<?xml version="1.0" encoding="UTF-8" standalone="no"?>
<!DOCTYPE svg PUBLIC "-//W3C//DTD SVG 1.1//EN"
 "http://www.w3.org/Graphics/SVG/1.1/DTD/svg11.dtd">
<!-- Generated by graphviz version 2.43.0 (0)
 -->
<!-- Title: PokitDevicePrivate::setController Pages: 1 -->
<svg width="700pt" height="1036pt"
 viewBox="0.00 0.00 700.00 1036.00" xmlns="http://www.w3.org/2000/svg" xmlns:xlink="http://www.w3.org/1999/xlink">
<g id="graph0" class="graph" transform="scale(1 1) rotate(0) translate(4 1032)">
<title>PokitDevicePrivate::setController</title>
<!-- Node1 -->
<g id="Node000001" class="node">
<title>Node1</title>
<g id="a_Node000001"><a xlink:title="Sets newController to be used for accessing Pokit devices.">
<polygon fill="#999999" stroke="#666666" points="110,-518 0,-518 0,-488 110,-488 110,-518"/>
<text text-anchor="start" x="8" y="-506" font-family="Helvetica,sans-Serif" font-size="10.00">PokitDevicePrivate</text>
<text text-anchor="middle" x="55" y="-495" font-family="Helvetica,sans-Serif" font-size="10.00">::setController</text>
</a>
</g>
</g>
<!-- Node2 -->
<g id="Node000002" class="node">
<title>Node2</title>
<g id="a_Node000002"><a target="_parent" xlink:href="https://doc.qt.io/qt-5/qstring.html#arg-1" xlink:title=" ">
<polygon fill="white" stroke="#666666" points="438,-946.5 364,-946.5 364,-927.5 438,-927.5 438,-946.5"/>
<text text-anchor="middle" x="401" y="-934.5" font-family="Helvetica,sans-Serif" font-size="10.00">QString::arg</text>
</a>
</g>
</g>
<!-- Node1&#45;&gt;Node2 -->
<g id="edge1_Node000001_Node000002" class="edge">
<title>Node1&#45;&gt;Node2</title>
<g id="a_edge1_Node000001_Node000002"><a xlink:title=" ">
<path fill="none" stroke="#63b8ff" d="M57.59,-518.24C64.53,-581.69 94.08,-824.09 146,-877 174.83,-906.39 290.73,-924.29 355.55,-932.2"/>
<polygon fill="#63b8ff" stroke="#63b8ff" points="363.57,-933.16 355.2,-935.78 359.6,-932.69 355.63,-932.21 355.63,-932.21 355.63,-932.21 359.6,-932.69 356.06,-928.64 363.57,-933.16 363.57,-933.16"/>
</a>
</g>
</g>
<!-- Node3 -->
<g id="Node000003" class="node">
<title>Node3</title>
<g id="a_Node000003"><a target="_parent" xlink:href="https://doc.qt.io/qt-5/qobject.html#connect" xlink:title=" ">
<polygon fill="white" stroke="#666666" points="258.5,-393.5 158.5,-393.5 158.5,-374.5 258.5,-374.5 258.5,-393.5"/>
<text text-anchor="middle" x="208.5" y="-381.5" font-family="Helvetica,sans-Serif" font-size="10.00">QObject::connect</text>
</a>
</g>
</g>
<!-- Node1&#45;&gt;Node3 -->
<g id="edge2_Node000001_Node000003" class="edge">
<title>Node1&#45;&gt;Node3</title>
<g id="a_edge2_Node000001_Node000003"><a xlink:title=" ">
<path fill="none" stroke="#63b8ff" d="M66.89,-487.86C82.38,-467.27 112.64,-430.45 146,-408 152.63,-403.54 160.22,-399.72 167.74,-396.54"/>
<polygon fill="#63b8ff" stroke="#63b8ff" points="175.21,-393.56 169.11,-399.87 171.49,-395.04 167.78,-396.53 167.78,-396.53 167.78,-396.53 171.49,-395.04 166.44,-393.18 175.21,-393.56 175.21,-393.56"/>
</a>
</g>
</g>
<!-- Node4 -->
<g id="Node000004" class="node">
<title>Node4</title>
<g id="a_Node000004"><a xlink:href="classPokitDevicePrivate.html#a10b2976e2baa050f48be0e9690c02a24" target="_top" xlink:title="Handle connected signals.">
<polygon fill="white" stroke="#666666" points="263.5,-804 153.5,-804 153.5,-774 263.5,-774 263.5,-804"/>
<text text-anchor="start" x="161.5" y="-792" font-family="Helvetica,sans-Serif" font-size="10.00">PokitDevicePrivate</text>
<text text-anchor="middle" x="208.5" y="-781" font-family="Helvetica,sans-Serif" font-size="10.00">::connected</text>
</a>
</g>
</g>
<!-- Node1&#45;&gt;Node4 -->
<g id="edge3_Node000001_Node000004" class="edge">
<title>Node1&#45;&gt;Node4</title>
<g id="a_edge3_Node000001_Node000004"><a xlink:title=" ">
<path fill="none" stroke="#63b8ff" d="M57.27,-518.08C61.64,-561.16 79.69,-686.43 146,-760 149.19,-763.54 152.9,-766.68 156.89,-769.47"/>
<polygon fill="#63b8ff" stroke="#63b8ff" points="163.83,-773.82 155.14,-772.62 160.44,-771.7 157.05,-769.57 157.05,-769.57 157.05,-769.57 160.44,-771.7 158.97,-766.52 163.83,-773.82 163.83,-773.82"/>
</a>
</g>
</g>
<!-- Node5 -->
<g id="Node000005" class="node">
<title>Node5</title>
<g id="a_Node000005"><a target="_parent" xlink:href="https://doc.qt.io/qt-5/qlowenergycontroller.html#remoteAddress" xlink:title=" ">
<polygon fill="white" stroke="#666666" points="463.5,-872 338.5,-872 338.5,-842 463.5,-842 463.5,-872"/>
<text text-anchor="start" x="346.5" y="-860" font-family="Helvetica,sans-Serif" font-size="10.00">QLowEnergyController</text>
<text text-anchor="middle" x="401" y="-849" font-family="Helvetica,sans-Serif" font-size="10.00">::remoteAddress</text>
</a>
</g>
</g>
<!-- Node1&#45;&gt;Node5 -->
<g id="edge29_Node000001_Node000005" class="edge">
<title>Node1&#45;&gt;Node5</title>
<g id="a_edge29_Node000001_Node000005"><a xlink:title=" ">
<path fill="none" stroke="#63b8ff" d="M55.28,-518.13C53.76,-568.61 56.2,-732.66 146,-813 172.59,-836.79 264.57,-848.01 330.19,-853.1"/>
<polygon fill="#63b8ff" stroke="#63b8ff" points="338.46,-853.71 330.21,-856.71 334.47,-853.42 330.48,-853.12 330.48,-853.12 330.48,-853.12 334.47,-853.42 330.75,-849.53 338.46,-853.71 338.46,-853.71"/>
</a>
</g>
</g>
<!-- Node6 -->
<g id="Node000006" class="node">
<title>Node6</title>
<g id="a_Node000006"><a target="_parent" xlink:href="https://doc.qt.io/qt-5/qlowenergycontroller.html#remoteDeviceUuid" xlink:title=" ">
<polygon fill="white" stroke="#666666" points="463.5,-786 338.5,-786 338.5,-756 463.5,-756 463.5,-786"/>
<text text-anchor="start" x="346.5" y="-774" font-family="Helvetica,sans-Serif" font-size="10.00">QLowEnergyController</text>
<text text-anchor="middle" x="401" y="-763" font-family="Helvetica,sans-Serif" font-size="10.00">::remoteDeviceUuid</text>
</a>
</g>
</g>
<!-- Node1&#45;&gt;Node6 -->
<g id="edge30_Node000001_Node000006" class="edge">
<title>Node1&#45;&gt;Node6</title>
<g id="a_edge30_Node000001_Node000006"><a xlink:title=" ">
<path fill="none" stroke="#63b8ff" d="M58,-518.14C63.89,-556.39 84.76,-657.51 146,-709 197.49,-752.3 274.5,-766.24 330.22,-770.31"/>
<polygon fill="#63b8ff" stroke="#63b8ff" points="338.28,-770.84 330.06,-773.91 334.28,-770.58 330.29,-770.31 330.29,-770.31 330.29,-770.31 334.28,-770.58 330.53,-766.72 338.28,-770.84 338.28,-770.84"/>
</a>
</g>
</g>
<!-- Node7 -->
<g id="Node000007" class="node">
<title>Node7</title>
<g id="a_Node000007"><a target="_parent" xlink:href="https://doc.qt.io/qt-5/qlowenergycontroller.html#remoteName" xlink:title=" ">
<polygon fill="white" stroke="#666666" points="463.5,-738 338.5,-738 338.5,-708 463.5,-708 463.5,-738"/>
<text text-anchor="start" x="346.5" y="-726" font-family="Helvetica,sans-Serif" font-size="10.00">QLowEnergyController</text>
<text text-anchor="middle" x="401" y="-715" font-family="Helvetica,sans-Serif" font-size="10.00">::remoteName</text>
</a>
</g>
</g>
<!-- Node1&#45;&gt;Node7 -->
<g id="edge31_Node000001_Node000007" class="edge">
<title>Node1&#45;&gt;Node7</title>
<g id="a_edge31_Node000001_Node000007"><a xlink:title=" ">
<path fill="none" stroke="#63b8ff" d="M59.38,-518.02C67.73,-551.49 92.67,-632.31 146,-672 199.11,-711.53 275.12,-722.46 330.13,-724.61"/>
<polygon fill="#63b8ff" stroke="#63b8ff" points="338.43,-724.88 330.32,-728.22 334.44,-724.75 330.44,-724.62 330.44,-724.62 330.44,-724.62 334.44,-724.75 330.55,-721.02 338.43,-724.88 338.43,-724.88"/>
</a>
</g>
</g>
<!-- Node8 -->
<g id="Node000008" class="node">
<title>Node8</title>
<g id="a_Node000008"><a target="_parent" xlink:href="https://doc.qt.io/qt-5/qbluetoothaddress.html#toString" xlink:title=" ">
<polygon fill="white" stroke="#666666" points="459,-690 343,-690 343,-660 459,-660 459,-690"/>
<text text-anchor="start" x="351" y="-678" font-family="Helvetica,sans-Serif" font-size="10.00">QBluetoothAddress::</text>
<text text-anchor="middle" x="401" y="-667" font-family="Helvetica,sans-Serif" font-size="10.00">toString</text>
</a>
</g>
</g>
<!-- Node1&#45;&gt;Node8 -->
<g id="edge43_Node000001_Node000008" class="edge">
<title>Node1&#45;&gt;Node8</title>
<g id="a_edge43_Node000001_Node000008"><a xlink:title=" ">
<path fill="none" stroke="#63b8ff" d="M61.07,-518.03C71.7,-547.05 99.32,-610.52 146,-640 202.56,-675.72 280.25,-681.56 334.77,-680.3"/>
<polygon fill="#63b8ff" stroke="#63b8ff" points="342.97,-680.05 335.09,-683.89 338.98,-680.17 334.98,-680.29 334.98,-680.29 334.98,-680.29 338.98,-680.17 334.87,-676.69 342.97,-680.05 342.97,-680.05"/>
</a>
</g>
</g>
<!-- Node9 -->
<g id="Node000009" class="node">
<title>Node9</title>
<g id="a_Node000009"><a target="_parent" xlink:href="https://doc.qt.io/qt-5/quuid.html#toString" xlink:title=" ">
<polygon fill="white" stroke="#666666" points="446.5,-909.5 355.5,-909.5 355.5,-890.5 446.5,-890.5 446.5,-909.5"/>
<text text-anchor="middle" x="401" y="-897.5" font-family="Helvetica,sans-Serif" font-size="10.00">QUuid::toString</text>
</a>
</g>
</g>
<!-- Node1&#45;&gt;Node9 -->
<g id="edge44_Node000001_Node000009" class="edge">
<title>Node1&#45;&gt;Node9</title>
<g id="a_edge44_Node000001_Node000009"><a xlink:title=" ">
<path fill="none" stroke="#63b8ff" d="M57.93,-518.09C65.85,-577.74 97.76,-796.04 146,-843 174.18,-870.43 281.46,-886.91 347.25,-894.65"/>
<polygon fill="#63b8ff" stroke="#63b8ff" points="355.45,-895.6 347.09,-898.26 351.48,-895.14 347.51,-894.68 347.51,-894.68 347.51,-894.68 351.48,-895.14 347.92,-891.1 355.45,-895.6 355.45,-895.6"/>
</a>
</g>
</g>
<!-- Node10 -->
<g id="Node000010" class="node">
<title>Node10</title>
<g id="a_Node000010"><a target="_parent" xlink:href="https://doc.qt.io/qt-5/qobject.html#tr" xlink:title=" ">
<polygon fill="white" stroke="#666666" points="646,-593.5 577,-593.5 577,-574.5 646,-574.5 646,-593.5"/>
<text text-anchor="middle" x="611.5" y="-581.5" font-family="Helvetica,sans-Serif" font-size="10.00">QObject::tr</text>
</a>
</g>
</g>
<!-- Node1&#45;&gt;Node10 -->
<g id="edge45_Node000001_Node000010" class="edge">
<title>Node1&#45;&gt;Node10</title>
<g id="a_edge45_Node000001_Node000010"><a xlink:title=" ">
<path fill="none" stroke="#63b8ff" d="M107.59,-518.07C120.09,-521.35 133.46,-524.57 146,-527 300.42,-556.92 486.94,-574.18 568.69,-580.82"/>
<polygon fill="#63b8ff" stroke="#63b8ff" points="576.73,-581.47 568.47,-584.42 572.75,-581.15 568.76,-580.83 568.76,-580.83 568.76,-580.83 572.75,-581.15 569.05,-577.24 576.73,-581.47 576.73,-581.47"/>
</a>
</g>
</g>
<!-- Node11 -->
<g id="Node000011" class="node">
<title>Node11</title>
<g id="a_Node000011"><a target="_parent" xlink:href="https://doc.qt.io/qt-5/qlowenergycontroller.html#connected" xlink:title=" ">
<polygon fill="white" stroke="#666666" points="271,-356 146,-356 146,-326 271,-326 271,-356"/>
<text text-anchor="start" x="154" y="-344" font-family="Helvetica,sans-Serif" font-size="10.00">QLowEnergyController</text>
<text text-anchor="middle" x="208.5" y="-333" font-family="Helvetica,sans-Serif" font-size="10.00">::connected</text>
</a>
</g>
</g>
<!-- Node1&#45;&gt;Node11 -->
<g id="edge11_Node000001_Node000011" class="edge">
<title>Node1&#45;&gt;Node11</title>
<g id="a_edge11_Node000001_Node000011"><a xlink:title=" ">
<path fill="none" stroke="#63b8ff" d="M62.34,-487.66C74.58,-459.79 104,-400.51 146,-366 148.6,-363.86 151.42,-361.88 154.36,-360.06"/>
<polygon fill="#63b8ff" stroke="#63b8ff" points="161.4,-356.08 156.21,-363.15 157.92,-358.04 154.44,-360.01 154.44,-360.01 154.44,-360.01 157.92,-358.04 152.67,-356.88 161.4,-356.08 161.4,-356.08"/>
</a>
</g>
</g>
<!-- Node12 -->
<g id="Node000012" class="node">
<title>Node12</title>
<g id="a_Node000012"><a xlink:href="classPokitDevicePrivate.html#a8970f7ca0c32636778d87f2b65711774" target="_top" xlink:title="Handle connectionUpdated signals.">
<polygon fill="white" stroke="#666666" points="267,-518 150,-518 150,-488 267,-488 267,-518"/>
<text text-anchor="start" x="158" y="-506" font-family="Helvetica,sans-Serif" font-size="10.00">PokitDevicePrivate</text>
<text text-anchor="middle" x="208.5" y="-495" font-family="Helvetica,sans-Serif" font-size="10.00">::connectionUpdated</text>
</a>
</g>
</g>
<!-- Node1&#45;&gt;Node12 -->
<g id="edge12_Node000001_Node000012" class="edge">
<title>Node1&#45;&gt;Node12</title>
<g id="a_edge12_Node000001_Node000012"><a xlink:title=" ">
<path fill="none" stroke="#63b8ff" d="M110.27,-503C120.38,-503 131.06,-503 141.48,-503"/>
<polygon fill="#63b8ff" stroke="#63b8ff" points="149.77,-503 141.77,-506.6 145.77,-503 141.77,-503 141.77,-503 141.77,-503 145.77,-503 141.77,-499.4 149.77,-503 149.77,-503"/>
</a>
</g>
</g>
<!-- Node17 -->
<g id="Node000017" class="node">
<title>Node17</title>
<g id="a_Node000017"><a target="_parent" xlink:href="https://doc.qt.io/qt-5/qlowenergycontroller.html#connectionUpdated" xlink:title=" ">
<polygon fill="white" stroke="#666666" points="271,-308 146,-308 146,-278 271,-278 271,-308"/>
<text text-anchor="start" x="154" y="-296" font-family="Helvetica,sans-Serif" font-size="10.00">QLowEnergyController</text>
<text text-anchor="middle" x="208.5" y="-285" font-family="Helvetica,sans-Serif" font-size="10.00">::connectionUpdated</text>
</a>
</g>
</g>
<!-- Node1&#45;&gt;Node17 -->
<g id="edge18_Node000001_Node000017" class="edge">
<title>Node1&#45;&gt;Node17</title>
<g id="a_edge18_Node000001_Node000017"><a xlink:title=" ">
<path fill="none" stroke="#63b8ff" d="M59.28,-487.97C67.64,-453.13 92.92,-366.07 146,-317 147.74,-315.4 149.59,-313.89 151.54,-312.49"/>
<polygon fill="#63b8ff" stroke="#63b8ff" points="158.44,-308.07 153.64,-315.42 155.07,-310.23 151.7,-312.38 151.7,-312.38 151.7,-312.38 155.07,-310.23 149.76,-309.35 158.44,-308.07 158.44,-308.07"/>
</a>
</g>
</g>
<!-- Node18 -->
<g id="Node000018" class="node">
<title>Node18</title>
<g id="a_Node000018"><a target="_parent" xlink:href="https://doc.qt.io/qt-5/qobject.html#disconnect" xlink:title=" ">
<polygon fill="white" stroke="#666666" points="265.5,-259.5 151.5,-259.5 151.5,-240.5 265.5,-240.5 265.5,-259.5"/>
<text text-anchor="middle" x="208.5" y="-247.5" font-family="Helvetica,sans-Serif" font-size="10.00">QObject::disconnect</text>
</a>
</g>
</g>
<!-- Node1&#45;&gt;Node18 -->
<g id="edge19_Node000001_Node000018" class="edge">
<title>Node1&#45;&gt;Node18</title>
<g id="a_edge19_Node000001_Node000018"><a xlink:title=" ">
<path fill="none" stroke="#63b8ff" d="M57.33,-487.93C61.78,-446.66 79.86,-330.82 146,-269 148.21,-266.93 150.64,-265.09 153.23,-263.45"/>
<polygon fill="#63b8ff" stroke="#63b8ff" points="160.36,-259.55 155.06,-266.55 156.85,-261.47 153.34,-263.39 153.34,-263.39 153.34,-263.39 156.85,-261.47 151.61,-260.23 160.36,-259.55 160.36,-259.55"/>
</a>
</g>
</g>
<!-- Node19 -->
<g id="Node000019" class="node">
<title>Node19</title>
<g id="a_Node000019"><a xlink:href="classPokitDevicePrivate.html#a1c0f8fc8e835f46c0e0b3c7faa830654" target="_top" xlink:title="Handle disconnected signals.">
<polygon fill="white" stroke="#666666" points="456,-288 346,-288 346,-258 456,-258 456,-288"/>
<text text-anchor="start" x="354" y="-276" font-family="Helvetica,sans-Serif" font-size="10.00">PokitDevicePrivate</text>
<text text-anchor="middle" x="401" y="-265" font-family="Helvetica,sans-Serif" font-size="10.00">::disconnected</text>
</a>
</g>
</g>
<!-- Node1&#45;&gt;Node19 -->
<g id="edge20_Node000001_Node000019" class="edge">
<title>Node1&#45;&gt;Node19</title>
<g id="a_edge20_Node000001_Node000019"><a xlink:title=" ">
<path fill="none" stroke="#63b8ff" d="M108.66,-487.99C170.43,-470.17 265.23,-442.09 271,-436 315.78,-388.74 260.36,-339.43 307,-294 315.48,-285.74 326.47,-280.46 337.92,-277.13"/>
<polygon fill="#63b8ff" stroke="#63b8ff" points="345.89,-275.13 339.01,-280.57 342.01,-276.1 338.13,-277.08 338.13,-277.08 338.13,-277.08 342.01,-276.1 337.26,-273.59 345.89,-275.13 345.89,-275.13"/>
</a>
</g>
</g>
<!-- Node20 -->
<g id="Node000020" class="node">
<title>Node20</title>
<g id="a_Node000020"><a target="_parent" xlink:href="https://doc.qt.io/qt-5/qlowenergycontroller.html#disconnected" xlink:title=" ">
<polygon fill="white" stroke="#666666" points="271,-222 146,-222 146,-192 271,-192 271,-222"/>
<text text-anchor="start" x="154" y="-210" font-family="Helvetica,sans-Serif" font-size="10.00">QLowEnergyController</text>
<text text-anchor="middle" x="208.5" y="-199" font-family="Helvetica,sans-Serif" font-size="10.00">::disconnected</text>
</a>
</g>
</g>
<!-- Node1&#45;&gt;Node20 -->
<g id="edge22_Node000001_Node000020" class="edge">
<title>Node1&#45;&gt;Node20</title>
<g id="a_edge22_Node000001_Node000020"><a xlink:title=" ">
<path fill="none" stroke="#63b8ff" d="M56.74,-487.9C59.72,-442.94 74.49,-308.35 146,-232 147.81,-230.07 149.8,-228.28 151.9,-226.62"/>
<polygon fill="#63b8ff" stroke="#63b8ff" points="158.56,-222.06 154,-229.55 155.26,-224.32 151.96,-226.58 151.96,-226.58 151.96,-226.58 155.26,-224.32 149.93,-223.61 158.56,-222.06 158.56,-222.06"/>
</a>
</g>
</g>
<!-- Node21 -->
<g id="Node000021" class="node">
<title>Node21</title>
<g id="a_Node000021"><a xlink:href="classPokitDevicePrivate.html#aa398e7104b760707fc5424062af08150" target="_top" xlink:title="Handle discoveryFinished signals.">
<polygon fill="white" stroke="#666666" points="456,-240 346,-240 346,-210 456,-210 456,-240"/>
<text text-anchor="start" x="354" y="-228" font-family="Helvetica,sans-Serif" font-size="10.00">PokitDevicePrivate</text>
<text text-anchor="middle" x="401" y="-217" font-family="Helvetica,sans-Serif" font-size="10.00">::discoveryFinished</text>
</a>
</g>
</g>
<!-- Node1&#45;&gt;Node21 -->
<g id="edge23_Node000001_Node000021" class="edge">
<title>Node1&#45;&gt;Node21</title>
<g id="a_edge23_Node000001_Node000021"><a xlink:title=" ">
<path fill="none" stroke="#63b8ff" d="M72.31,-487.79C89.43,-472.6 117.75,-449.61 146,-436 197.76,-411.06 230.95,-444.2 271,-403 319.99,-352.6 257.87,-299.27 307,-249 315.33,-240.47 326.27,-234.84 337.7,-231.14"/>
<polygon fill="#63b8ff" stroke="#63b8ff" points="345.66,-228.88 338.95,-234.53 341.82,-229.97 337.97,-231.07 337.97,-231.07 337.97,-231.07 341.82,-229.97 336.99,-227.6 345.66,-228.88 345.66,-228.88"/>
</a>
</g>
</g>
<!-- Node22 -->
<g id="Node000022" class="node">
<title>Node22</title>
<g id="a_Node000022"><a target="_parent" xlink:href="https://doc.qt.io/qt-5/qlowenergycontroller.html#discoveryFinished" xlink:title=" ">
<polygon fill="white" stroke="#666666" points="271,-174 146,-174 146,-144 271,-144 271,-174"/>
<text text-anchor="start" x="154" y="-162" font-family="Helvetica,sans-Serif" font-size="10.00">QLowEnergyController</text>
<text text-anchor="middle" x="208.5" y="-151" font-family="Helvetica,sans-Serif" font-size="10.00">::discoveryFinished</text>
</a>
</g>
</g>
<!-- Node1&#45;&gt;Node22 -->
<g id="edge25_Node000001_Node000022" class="edge">
<title>Node1&#45;&gt;Node22</title>
<g id="a_edge25_Node000001_Node000022"><a xlink:title=" ">
<path fill="none" stroke="#63b8ff" d="M55.77,-487.73C55.86,-437.39 62.86,-274.71 146,-183 147.25,-181.62 148.59,-180.32 150,-179.09"/>
<polygon fill="#63b8ff" stroke="#63b8ff" points="156.61,-174.17 152.34,-181.84 153.4,-176.56 150.19,-178.95 150.19,-178.95 150.19,-178.95 153.4,-176.56 148.04,-176.06 156.61,-174.17 156.61,-174.17"/>
</a>
</g>
</g>
<!-- Node23 -->
<g id="Node000023" class="node">
<title>Node23</title>
<g id="a_Node000023"><a target="_parent" xlink:href="https://doc.qt.io/qt-5/qlowenergycontroller.html#error" xlink:title=" ">
<polygon fill="white" stroke="#666666" points="271,-126 146,-126 146,-96 271,-96 271,-126"/>
<text text-anchor="start" x="154" y="-114" font-family="Helvetica,sans-Serif" font-size="10.00">QLowEnergyController</text>
<text text-anchor="middle" x="208.5" y="-103" font-family="Helvetica,sans-Serif" font-size="10.00">::error</text>
</a>
</g>
</g>
<!-- Node1&#45;&gt;Node23 -->
<g id="edge26_Node000001_Node000023" class="edge">
<title>Node1&#45;&gt;Node23</title>
<g id="a_edge26_Node000001_Node000023"><a xlink:title=" ">
<path fill="none" stroke="#63b8ff" d="M57.85,-487.74C65.69,-425.27 98.01,-189.8 146,-135 147.23,-133.6 148.55,-132.28 149.94,-131.04"/>
<polygon fill="#63b8ff" stroke="#63b8ff" points="156.49,-126.06 152.3,-133.77 153.3,-128.48 150.12,-130.9 150.12,-130.9 150.12,-130.9 153.3,-128.48 147.94,-128.04 156.49,-126.06 156.49,-126.06"/>
</a>
</g>
</g>
<!-- Node24 -->
<g id="Node000024" class="node">
<title>Node24</title>
<g id="a_Node000024"><a xlink:href="classPokitDevicePrivate.html#a42deb037a280ec3d7eeaef23c1f5ab79" target="_top" xlink:title="Handle error signals.">
<polygon fill="white" stroke="#666666" points="456,-642 346,-642 346,-612 456,-612 456,-642"/>
<text text-anchor="start" x="354" y="-630" font-family="Helvetica,sans-Serif" font-size="10.00">PokitDevicePrivate</text>
<text text-anchor="middle" x="401" y="-619" font-family="Helvetica,sans-Serif" font-size="10.00">::errorOccurred</text>
</a>
</g>
</g>
<!-- Node1&#45;&gt;Node24 -->
<g id="edge27_Node000001_Node000024" class="edge">
<title>Node1&#45;&gt;Node24</title>
<g id="a_edge27_Node000001_Node000024"><a xlink:title=" ">
<path fill="none" stroke="#63b8ff" d="M63.12,-518.11C75.8,-543.04 104.86,-592.1 146,-613 205.83,-643.4 284.12,-642.64 337.88,-637.01"/>
<polygon fill="#63b8ff" stroke="#63b8ff" points="345.96,-636.1 338.41,-640.57 341.98,-636.55 338.01,-636.99 338.01,-636.99 338.01,-636.99 341.98,-636.55 337.61,-633.41 345.96,-636.1 345.96,-636.1"/>
</a>
</g>
</g>
<!-- Node25 -->
<g id="Node000025" class="node">
<title>Node25</title>
<g id="a_Node000025"><a xlink:href="classPokitDevicePrivate.html#ad4cab70edfb4430a42c55a6b70150a6f" target="_top" xlink:title="Handle serviceDiscovered signals.">
<polygon fill="white" stroke="#666666" points="265,-966 152,-966 152,-936 265,-936 265,-966"/>
<text text-anchor="start" x="160" y="-954" font-family="Helvetica,sans-Serif" font-size="10.00">PokitDevicePrivate</text>
<text text-anchor="middle" x="208.5" y="-943" font-family="Helvetica,sans-Serif" font-size="10.00">::serviceDiscovered</text>
</a>
</g>
</g>
<!-- Node1&#45;&gt;Node25 -->
<g id="edge32_Node000001_Node000025" class="edge">
<title>Node1&#45;&gt;Node25</title>
<g id="a_edge32_Node000001_Node000025"><a xlink:title=" ">
<path fill="none" stroke="#63b8ff" d="M57.48,-518.4C64.28,-586.1 94.31,-856.87 146,-922 148.8,-925.53 152.13,-928.64 155.77,-931.4"/>
<polygon fill="#63b8ff" stroke="#63b8ff" points="162.6,-935.97 153.95,-934.52 159.28,-933.75 155.95,-931.52 155.95,-931.52 155.95,-931.52 159.28,-933.75 157.96,-928.53 162.6,-935.97 162.6,-935.97"/>
</a>
</g>
</g>
<!-- Node28 -->
<g id="Node000028" class="node">
<title>Node28</title>
<g id="a_Node000028"><a target="_parent" xlink:href="https://doc.qt.io/qt-5/qlowenergycontroller.html#serviceDiscovered" xlink:title=" ">
<polygon fill="white" stroke="#666666" points="271,-78 146,-78 146,-48 271,-48 271,-78"/>
<text text-anchor="start" x="154" y="-66" font-family="Helvetica,sans-Serif" font-size="10.00">QLowEnergyController</text>
<text text-anchor="middle" x="208.5" y="-55" font-family="Helvetica,sans-Serif" font-size="10.00">::serviceDiscovered</text>
</a>
</g>
</g>
<!-- Node1&#45;&gt;Node28 -->
<g id="edge39_Node000001_Node000028" class="edge">
<title>Node1&#45;&gt;Node28</title>
<g id="a_edge39_Node000001_Node000028"><a xlink:title=" ">
<path fill="none" stroke="#63b8ff" d="M57.39,-487.63C63.8,-420.04 92.43,-149.84 146,-87 147.18,-85.62 148.45,-84.32 149.79,-83.09"/>
<polygon fill="#63b8ff" stroke="#63b8ff" points="156.1,-78.17 152,-85.92 152.94,-80.63 149.79,-83.09 149.79,-83.09 149.79,-83.09 152.94,-80.63 147.58,-80.25 156.1,-78.17 156.1,-78.17"/>
</a>
</g>
</g>
<!-- Node29 -->
<g id="Node000029" class="node">
<title>Node29</title>
<g id="a_Node000029"><a xlink:href="classPokitDevicePrivate.html#a59717ccd3d928cc20f66ea4ff37970d6" target="_top" xlink:title="Handle stateChanged signals.">
<polygon fill="white" stroke="#666666" points="263.5,-604 153.5,-604 153.5,-574 263.5,-574 263.5,-604"/>
<text text-anchor="start" x="161.5" y="-592" font-family="Helvetica,sans-Serif" font-size="10.00">PokitDevicePrivate</text>
<text text-anchor="middle" x="208.5" y="-581" font-family="Helvetica,sans-Serif" font-size="10.00">::stateChanged</text>
</a>
</g>
</g>
<!-- Node1&#45;&gt;Node29 -->
<g id="edge40_Node000001_Node000029" class="edge">
<title>Node1&#45;&gt;Node29</title>
<g id="a_edge40_Node000001_Node000029"><a xlink:title=" ">
<path fill="none" stroke="#63b8ff" d="M78.1,-518.08C96.04,-530.05 122.17,-546.9 146,-560 152.46,-563.55 159.42,-567.09 166.26,-570.42"/>
<polygon fill="#63b8ff" stroke="#63b8ff" points="173.61,-573.94 164.84,-573.73 170,-572.21 166.39,-570.48 166.39,-570.48 166.39,-570.48 170,-572.21 167.95,-567.24 173.61,-573.94 173.61,-573.94"/>
</a>
</g>
</g>
<!-- Node30 -->
<g id="Node000030" class="node">
<title>Node30</title>
<g id="a_Node000030"><a target="_parent" xlink:href="https://doc.qt.io/qt-5/qlowenergycontroller.html#stateChanged" xlink:title=" ">
<polygon fill="white" stroke="#666666" points="271,-30 146,-30 146,0 271,0 271,-30"/>
<text text-anchor="start" x="154" y="-18" font-family="Helvetica,sans-Serif" font-size="10.00">QLowEnergyController</text>
<text text-anchor="middle" x="208.5" y="-7" font-family="Helvetica,sans-Serif" font-size="10.00">::stateChanged</text>
</a>
</g>
</g>
<!-- Node1&#45;&gt;Node30 -->
<g id="edge42_Node000001_Node000030" class="edge">
<title>Node1&#45;&gt;Node30</title>
<g id="a_edge42_Node000001_Node000030"><a xlink:title=" ">
<path fill="none" stroke="#63b8ff" d="M57,-487.84C62.05,-415.95 86.74,-110.05 146,-39 147.07,-37.71 148.23,-36.49 149.44,-35.34"/>
<polygon fill="#63b8ff" stroke="#63b8ff" points="156.02,-30.1 152.01,-37.9 152.89,-32.59 149.76,-35.09 149.76,-35.09 149.76,-35.09 152.89,-32.59 147.52,-32.27 156.02,-30.1 156.02,-30.1"/>
</a>
</g>
</g>
<!-- Node4&#45;&gt;Node2 -->
<g id="edge4_Node000004_Node000002" class="edge">
<title>Node4&#45;&gt;Node2</title>
<g id="a_edge4_Node000004_Node000002"><a xlink:title=" ">
<path fill="none" stroke="#63b8ff" d="M216.33,-804.36C229.53,-832.12 261.32,-890.41 307,-919 321.36,-927.99 339.23,-932.66 355.45,-935.03"/>
<polygon fill="#63b8ff" stroke="#63b8ff" points="363.76,-936.07 355.38,-938.65 359.79,-935.57 355.82,-935.08 355.82,-935.08 355.82,-935.08 359.79,-935.57 356.27,-931.5 363.76,-936.07 363.76,-936.07"/>
</a>
</g>
</g>
<!-- Node4&#45;&gt;Node5 -->
<g id="edge5_Node000004_Node000005" class="edge">
<title>Node4&#45;&gt;Node5</title>
<g id="a_edge5_Node000004_Node000005"><a xlink:title=" ">
<path fill="none" stroke="#63b8ff" d="M245.36,-804.12C263.67,-811.65 286.39,-820.68 307,-828 318.01,-831.91 329.84,-835.82 341.26,-839.45"/>
<polygon fill="#63b8ff" stroke="#63b8ff" points="349.08,-841.91 340.37,-842.94 345.27,-840.71 341.45,-839.51 341.45,-839.51 341.45,-839.51 345.27,-840.71 342.53,-836.07 349.08,-841.91 349.08,-841.91"/>
</a>
</g>
</g>
<!-- Node4&#45;&gt;Node6 -->
<g id="edge6_Node000004_Node000006" class="edge">
<title>Node4&#45;&gt;Node6</title>
<g id="a_edge6_Node000004_Node000006"><a xlink:title=" ">
<path fill="none" stroke="#63b8ff" d="M263.58,-783.89C284.35,-781.93 308.35,-779.66 330.38,-777.58"/>
<polygon fill="#63b8ff" stroke="#63b8ff" points="338.4,-776.82 330.77,-781.16 334.41,-777.2 330.43,-777.57 330.43,-777.57 330.43,-777.57 334.41,-777.2 330.09,-773.99 338.4,-776.82 338.4,-776.82"/>
</a>
</g>
</g>
<!-- Node4&#45;&gt;Node7 -->
<g id="edge7_Node000004_Node000007" class="edge">
<title>Node4&#45;&gt;Node7</title>
<g id="a_edge7_Node000004_Node000007"><a xlink:title=" ">
<path fill="none" stroke="#63b8ff" d="M241.07,-773.93C259.92,-765.3 284.5,-754.7 307,-747 314.45,-744.45 322.33,-742.02 330.21,-739.76"/>
<polygon fill="#63b8ff" stroke="#63b8ff" points="338.07,-737.56 331.34,-743.18 334.22,-738.64 330.37,-739.72 330.37,-739.72 330.37,-739.72 334.22,-738.64 329.4,-736.25 338.07,-737.56 338.07,-737.56"/>
</a>
</g>
</g>
<!-- Node4&#45;&gt;Node8 -->
<g id="edge8_Node000004_Node000008" class="edge">
<title>Node4&#45;&gt;Node8</title>
<g id="a_edge8_Node000004_Node000008"><a xlink:title=" ">
<path fill="none" stroke="#63b8ff" d="M221.68,-773.81C238.67,-753.67 271.4,-718.4 307,-699 315.66,-694.28 325.29,-690.46 334.98,-687.37"/>
<polygon fill="#63b8ff" stroke="#63b8ff" points="342.74,-685.05 336.1,-690.79 338.91,-686.2 335.07,-687.34 335.07,-687.34 335.07,-687.34 338.91,-686.2 334.04,-683.89 342.74,-685.05 342.74,-685.05"/>
</a>
</g>
</g>
<!-- Node4&#45;&gt;Node9 -->
<g id="edge9_Node000004_Node000009" class="edge">
<title>Node4&#45;&gt;Node9</title>
<g id="a_edge9_Node000004_Node000009"><a xlink:title=" ">
<path fill="none" stroke="#63b8ff" d="M223.43,-804.02C245.48,-827.45 287.89,-871.08 307,-881 319.35,-887.41 333.67,-891.66 347.31,-894.48"/>
<polygon fill="#63b8ff" stroke="#63b8ff" points="355.25,-895.97 346.72,-898.03 351.32,-895.23 347.39,-894.49 347.39,-894.49 347.39,-894.49 351.32,-895.23 348.06,-890.95 355.25,-895.97 355.25,-895.97"/>
</a>
</g>
</g>
<!-- Node4&#45;&gt;Node10 -->
<g id="edge10_Node000004_Node000010" class="edge">
<title>Node4&#45;&gt;Node10</title>
<g id="a_edge10_Node000004_Node000010"><a xlink:title=" ">
<path fill="none" stroke="#63b8ff" d="M256.03,-804.06C315.87,-820.46 420.9,-838.92 495,-795 567.94,-751.78 597.83,-644.41 607.08,-601.82"/>
<polygon fill="#63b8ff" stroke="#63b8ff" points="608.7,-593.98 610.6,-602.55 607.89,-597.9 607.08,-601.82 607.08,-601.82 607.08,-601.82 607.89,-597.9 603.55,-601.08 608.7,-593.98 608.7,-593.98"/>
</a>
</g>
</g>
<!-- Node12&#45;&gt;Node10 -->
<g id="edge17_Node000012_Node000010" class="edge">
<title>Node12&#45;&gt;Node10</title>
<g id="a_edge17_Node000012_Node000010"><a xlink:title=" ">
<path fill="none" stroke="#63b8ff" d="M253.88,-487.99C260.32,-484.24 266.33,-479.64 271,-474 311.71,-424.86 256.53,-374.06 307,-335 373.08,-283.86 424.58,-290.03 495,-335 578.39,-388.24 602.49,-518.9 608.62,-566.39"/>
<polygon fill="#63b8ff" stroke="#63b8ff" points="609.59,-574.49 605.06,-566.97 609.11,-570.52 608.64,-566.54 608.64,-566.54 608.64,-566.54 609.11,-570.52 612.21,-566.12 609.59,-574.49 609.59,-574.49"/>
</a>
</g>
</g>
<!-- Node13 -->
<g id="Node000013" class="node">
<title>Node13</title>
<g id="a_Node000013"><a target="_parent" xlink:href="https://doc.qt.io/qt-5/qlowenergyconnectionparameters.html#latency" xlink:title=" ">
<polygon fill="white" stroke="#666666" points="495,-518 307,-518 307,-488 495,-488 495,-518"/>
<text text-anchor="start" x="315" y="-506" font-family="Helvetica,sans-Serif" font-size="10.00">QLowEnergyConnectionParameters</text>
<text text-anchor="middle" x="401" y="-495" font-family="Helvetica,sans-Serif" font-size="10.00">::latency</text>
</a>
</g>
</g>
<!-- Node12&#45;&gt;Node13 -->
<g id="edge13_Node000012_Node000013" class="edge">
<title>Node12&#45;&gt;Node13</title>
<g id="a_edge13_Node000012_Node000013"><a xlink:title=" ">
<path fill="none" stroke="#63b8ff" d="M267.17,-503C277.21,-503 287.91,-503 298.71,-503"/>
<polygon fill="#63b8ff" stroke="#63b8ff" points="306.98,-503 298.98,-506.6 302.98,-503 298.98,-503 298.98,-503 298.98,-503 302.98,-503 298.98,-499.4 306.98,-503 306.98,-503"/>
</a>
</g>
</g>
<!-- Node14 -->
<g id="Node000014" class="node">
<title>Node14</title>
<g id="a_Node000014"><a target="_parent" xlink:href="https://doc.qt.io/qt-5/qlowenergyconnectionparameters.html#maximumInterval" xlink:title=" ">
<polygon fill="white" stroke="#666666" points="495,-470 307,-470 307,-440 495,-440 495,-470"/>
<text text-anchor="start" x="315" y="-458" font-family="Helvetica,sans-Serif" font-size="10.00">QLowEnergyConnectionParameters</text>
<text text-anchor="middle" x="401" y="-447" font-family="Helvetica,sans-Serif" font-size="10.00">::maximumInterval</text>
</a>
</g>
</g>
<!-- Node12&#45;&gt;Node14 -->
<g id="edge14_Node000012_Node000014" class="edge">
<title>Node12&#45;&gt;Node14</title>
<g id="a_edge14_Node000012_Node000014"><a xlink:title=" ">
<path fill="none" stroke="#63b8ff" d="M267.17,-488.47C287.75,-483.28 311.12,-477.4 332.45,-472.02"/>
<polygon fill="#63b8ff" stroke="#63b8ff" points="340.21,-470.06 333.34,-475.51 336.33,-471.04 332.46,-472.02 332.46,-472.02 332.46,-472.02 336.33,-471.04 331.58,-468.53 340.21,-470.06 340.21,-470.06"/>
</a>
</g>
</g>
<!-- Node15 -->
<g id="Node000015" class="node">
<title>Node15</title>
<g id="a_Node000015"><a target="_parent" xlink:href="https://doc.qt.io/qt-5/qlowenergyconnectionparameters.html#minimumInterval" xlink:title=" ">
<polygon fill="white" stroke="#666666" points="495,-422 307,-422 307,-392 495,-392 495,-422"/>
<text text-anchor="start" x="315" y="-410" font-family="Helvetica,sans-Serif" font-size="10.00">QLowEnergyConnectionParameters</text>
<text text-anchor="middle" x="401" y="-399" font-family="Helvetica,sans-Serif" font-size="10.00">::minimumInterval</text>
</a>
</g>
</g>
<!-- Node12&#45;&gt;Node15 -->
<g id="edge15_Node000012_Node000015" class="edge">
<title>Node12&#45;&gt;Node15</title>
<g id="a_edge15_Node000012_Node000015"><a xlink:title=" ">
<path fill="none" stroke="#63b8ff" d="M248.07,-487.96C256.03,-484.01 264.08,-479.34 271,-474 290.73,-458.77 285.92,-444.31 307,-431 310.26,-428.94 313.7,-427.05 317.25,-425.33"/>
<polygon fill="#63b8ff" stroke="#63b8ff" points="324.67,-422.01 318.83,-428.56 321.02,-423.65 317.37,-425.28 317.37,-425.28 317.37,-425.28 321.02,-423.65 315.9,-421.99 324.67,-422.01 324.67,-422.01"/>
</a>
</g>
</g>
<!-- Node16 -->
<g id="Node000016" class="node">
<title>Node16</title>
<g id="a_Node000016"><a target="_parent" xlink:href="https://doc.qt.io/qt-5/qlowenergyconnectionparameters.html#supervisionTimeout" xlink:title=" ">
<polygon fill="white" stroke="#666666" points="495,-374 307,-374 307,-344 495,-344 495,-374"/>
<text text-anchor="start" x="315" y="-362" font-family="Helvetica,sans-Serif" font-size="10.00">QLowEnergyConnectionParameters</text>
<text text-anchor="middle" x="401" y="-351" font-family="Helvetica,sans-Serif" font-size="10.00">::supervisionTimeout</text>
</a>
</g>
</g>
<!-- Node12&#45;&gt;Node16 -->
<g id="edge16_Node000012_Node000016" class="edge">
<title>Node12&#45;&gt;Node16</title>
<g id="a_edge16_Node000012_Node000016"><a xlink:title=" ">
<path fill="none" stroke="#63b8ff" d="M252.67,-487.83C259.4,-484.08 265.83,-479.51 271,-474 300.76,-442.28 274.4,-411.79 307,-383 308.82,-381.4 310.73,-379.9 312.71,-378.5"/>
<polygon fill="#63b8ff" stroke="#63b8ff" points="319.74,-374.1 314.87,-381.4 316.35,-376.22 312.96,-378.34 312.96,-378.34 312.96,-378.34 316.35,-376.22 311.05,-375.29 319.74,-374.1 319.74,-374.1"/>
</a>
</g>
</g>
<!-- Node19&#45;&gt;Node10 -->
<g id="edge21_Node000019_Node000010" class="edge">
<title>Node19&#45;&gt;Node10</title>
<g id="a_edge21_Node000019_Node000010"><a xlink:title=" ">
<path fill="none" stroke="#63b8ff" d="M456.38,-281.38C470.27,-285.67 484.28,-292.17 495,-302 576.31,-376.56 601.79,-516.76 608.45,-566.19"/>
<polygon fill="#63b8ff" stroke="#63b8ff" points="609.48,-574.33 604.9,-566.85 608.97,-570.36 608.47,-566.39 608.47,-566.39 608.47,-566.39 608.97,-570.36 612.04,-565.94 609.48,-574.33 609.48,-574.33"/>
</a>
</g>
</g>
<!-- Node21&#45;&gt;Node10 -->
<g id="edge24_Node000021_Node000010" class="edge">
<title>Node21&#45;&gt;Node10</title>
<g id="a_edge24_Node000021_Node000010"><a xlink:title=" ">
<path fill="none" stroke="#63b8ff" d="M456.14,-229.7C470.19,-233.23 484.34,-239.16 495,-249 591.11,-337.76 607.25,-510.23 609.95,-566.08"/>
<polygon fill="#63b8ff" stroke="#63b8ff" points="610.29,-574.29 606.37,-566.44 610.13,-570.29 609.96,-566.29 609.96,-566.29 609.96,-566.29 610.13,-570.29 613.56,-566.15 610.29,-574.29 610.29,-574.29"/>
</a>
</g>
</g>
<!-- Node24&#45;&gt;Node10 -->
<g id="edge28_Node000024_Node000010" class="edge">
<title>Node24&#45;&gt;Node10</title>
<g id="a_edge28_Node000024_Node000010"><a xlink:title=" ">
<path fill="none" stroke="#63b8ff" d="M456.24,-615.81C491.39,-608.57 536.48,-599.27 568.82,-592.6"/>
<polygon fill="#63b8ff" stroke="#63b8ff" points="576.75,-590.96 569.64,-596.1 572.83,-591.77 568.92,-592.58 568.92,-592.58 568.92,-592.58 572.83,-591.77 568.19,-589.05 576.75,-590.96 576.75,-590.96"/>
</a>
</g>
</g>
<!-- Node25&#45;&gt;Node2 -->
<g id="edge33_Node000025_Node000002" class="edge">
<title>Node25&#45;&gt;Node2</title>
<g id="a_edge33_Node000025_Node000002"><a xlink:title=" ">
<path fill="none" stroke="#63b8ff" d="M265.11,-946.91C293.98,-944.79 328.75,-942.24 355.76,-940.25"/>
<polygon fill="#63b8ff" stroke="#63b8ff" points="363.88,-939.65 356.16,-943.83 359.89,-939.95 355.9,-940.24 355.9,-940.24 355.9,-940.24 359.89,-939.95 355.63,-936.65 363.88,-939.65 363.88,-939.65"/>
</a>
</g>
</g>
<!-- Node25&#45;&gt;Node9 -->
<g id="edge37_Node000025_Node000009" class="edge">
<title>Node25&#45;&gt;Node9</title>
<g id="a_edge37_Node000025_Node000009"><a xlink:title=" ">
<path fill="none" stroke="#63b8ff" d="M251.89,-935.9C268.89,-930.16 288.75,-923.84 307,-919 319.93,-915.57 334,-912.41 347.2,-909.68"/>
<polygon fill="#63b8ff" stroke="#63b8ff" points="355.29,-908.05 348.16,-913.16 351.37,-908.84 347.45,-909.63 347.45,-909.63 347.45,-909.63 351.37,-908.84 346.73,-906.1 355.29,-908.05 355.29,-908.05"/>
</a>
</g>
</g>
<!-- Node25&#45;&gt;Node10 -->
<g id="edge38_Node000025_Node000010" class="edge">
<title>Node25&#45;&gt;Node10</title>
<g id="a_edge38_Node000025_Node000010"><a xlink:title=" ">
<path fill="none" stroke="#63b8ff" d="M251.05,-966.05C311.2,-984.95 423.15,-1008.92 495,-956 554.79,-911.96 597.01,-669.66 607.79,-601.72"/>
<polygon fill="#63b8ff" stroke="#63b8ff" points="609.05,-593.65 611.37,-602.11 608.43,-597.61 607.82,-601.56 607.82,-601.56 607.82,-601.56 608.43,-597.61 604.26,-601 609.05,-593.65 609.05,-593.65"/>
</a>
</g>
</g>
<!-- Node26 -->
<g id="Node000026" class="node">
<title>Node26</title>
<g id="a_Node000026"><a xlink:href="classPokitDevice.html#aca9393595de5676f20e3d0fd795358b5" target="_top" xlink:title="Returns a human&#45;readable name for the uuid service, or a null QString if unknonw.">
<polygon fill="white" stroke="#666666" points="478.5,-1022.5 323.5,-1022.5 323.5,-1003.5 478.5,-1003.5 478.5,-1022.5"/>
<text text-anchor="middle" x="401" y="-1010.5" font-family="Helvetica,sans-Serif" font-size="10.00">PokitDevice::serviceToString</text>
</a>
</g>
</g>
<!-- Node25&#45;&gt;Node26 -->
<g id="edge34_Node000025_Node000026" class="edge">
<title>Node25&#45;&gt;Node26</title>
<g id="a_edge34_Node000025_Node000026"><a xlink:title=" ">
<path fill="none" stroke="#63b8ff" d="M245.25,-966.11C263.53,-973.54 286.25,-982.31 307,-989 320.93,-993.49 336.24,-997.73 350.35,-1001.35"/>
<polygon fill="#63b8ff" stroke="#63b8ff" points="358.49,-1003.41 349.85,-1004.94 354.62,-1002.43 350.74,-1001.45 350.74,-1001.45 350.74,-1001.45 354.62,-1002.43 351.62,-997.96 358.49,-1003.41 358.49,-1003.41"/>
</a>
</g>
</g>
<!-- Node26&#45;&gt;Node10 -->
<g id="edge36_Node000026_Node000010" class="edge">
<title>Node26&#45;&gt;Node10</title>
<g id="a_edge36_Node000026_Node000010"><a xlink:title=" ">
<path fill="none" stroke="#63b8ff" d="M472.29,-1003.49C480.69,-999.99 488.55,-995.29 495,-989 608.51,-878.32 612.6,-664.57 611.19,-601.76"/>
<polygon fill="#63b8ff" stroke="#63b8ff" points="610.95,-593.62 614.78,-601.52 611.07,-597.62 611.18,-601.62 611.18,-601.62 611.18,-601.62 611.07,-597.62 607.58,-601.72 610.95,-593.62 610.95,-593.62"/>
</a>
</g>
</g>
<!-- Node27 -->
<g id="Node000027" class="node">
<title>Node27</title>
<g id="a_Node000027"><a target="_parent" xlink:href="https://doc.qt.io/qt-5/qbluetoothuuid.html#serviceClassToString" xlink:title=" ">
<polygon fill="white" stroke="#666666" points="692,-1028 531,-1028 531,-998 692,-998 692,-1028"/>
<text text-anchor="start" x="539" y="-1016" font-family="Helvetica,sans-Serif" font-size="10.00">QBluetoothUuid::serviceClass</text>
<text text-anchor="middle" x="611.5" y="-1005" font-family="Helvetica,sans-Serif" font-size="10.00">ToString</text>
</a>
</g>
</g>
<!-- Node26&#45;&gt;Node27 -->
<g id="edge35_Node000026_Node000027" class="edge">
<title>Node26&#45;&gt;Node27</title>
<g id="a_edge35_Node000026_Node000027"><a xlink:title=" ">
<path fill="none" stroke="#63b8ff" d="M478.75,-1013C493.05,-1013 508.1,-1013 522.71,-1013"/>
<polygon fill="#63b8ff" stroke="#63b8ff" points="530.77,-1013 522.77,-1016.6 526.77,-1013 522.77,-1013 522.77,-1013 522.77,-1013 526.77,-1013 522.77,-1009.4 530.77,-1013 530.77,-1013"/>
</a>
</g>
</g>
<!-- Node29&#45;&gt;Node10 -->
<g id="edge41_Node000029_Node000010" class="edge">
<title>Node29&#45;&gt;Node10</title>
<g id="a_edge41_Node000029_Node000010"><a xlink:title=" ">
<path fill="none" stroke="#63b8ff" d="M263.58,-588.33C344.58,-587.32 495.69,-585.43 568.78,-584.52"/>
<polygon fill="#63b8ff" stroke="#63b8ff" points="576.87,-584.42 568.92,-588.12 572.87,-584.47 568.87,-584.52 568.87,-584.52 568.87,-584.52 572.87,-584.47 568.83,-580.92 576.87,-584.42 576.87,-584.42"/>
</a>
</g>
</g>
</g>
</svg>
