<?xml version="1.0" encoding="UTF-8" standalone="no"?>
<!DOCTYPE svg PUBLIC "-//W3C//DTD SVG 1.1//EN"
 "http://www.w3.org/Graphics/SVG/1.1/DTD/svg11.dtd">
<!-- Generated by graphviz version 2.43.0 (0)
 -->
<!-- Title: InfoCommand::processOptions Pages: 1 -->
<svg width="797pt" height="541pt"
 viewBox="0.00 0.00 797.00 540.50" xmlns="http://www.w3.org/2000/svg" xmlns:xlink="http://www.w3.org/1999/xlink">
<g id="graph0" class="graph" transform="scale(1 1) rotate(0) translate(4 536.5)">
<title>InfoCommand::processOptions</title>
<!-- Node1 -->
<g id="Node000001" class="node">
<title>Node1</title>
<g id="a_Node000001"><a xlink:title="Processes the relevant options from the command line parser.">
<polygon fill="#999999" stroke="#666666" points="167,-297.5 0,-297.5 0,-278.5 167,-278.5 167,-297.5"/>
<text text-anchor="middle" x="83.5" y="-285.5" font-family="Helvetica,sans-Serif" font-size="10.00">InfoCommand::processOptions</text>
</a>
</g>
</g>
<!-- Node2 -->
<g id="Node000002" class="node">
<title>Node2</title>
<g id="a_Node000002"><a target="_parent" xlink:href="https://doc.qt.io/qt-5/qlist.html#isEmpty" xlink:title=" ">
<polygon fill="white" stroke="#666666" points="322,-319.5 235,-319.5 235,-300.5 322,-300.5 322,-319.5"/>
<text text-anchor="middle" x="278.5" y="-307.5" font-family="Helvetica,sans-Serif" font-size="10.00">QList::isEmpty</text>
</a>
</g>
</g>
<!-- Node1&#45;&gt;Node2 -->
<g id="edge1_Node000001_Node000002" class="edge">
<title>Node1&#45;&gt;Node2</title>
<g id="a_edge1_Node000001_Node000002"><a xlink:title=" ">
<path fill="none" stroke="#63b8ff" d="M167.19,-297.43C187.42,-299.73 208.47,-302.13 226.7,-304.21"/>
<polygon fill="#63b8ff" stroke="#63b8ff" points="234.86,-305.14 226.51,-307.81 230.89,-304.69 226.91,-304.23 226.91,-304.23 226.91,-304.23 230.89,-304.69 227.32,-300.66 234.86,-305.14 234.86,-305.14"/>
</a>
</g>
</g>
<!-- Node3 -->
<g id="Node000003" class="node">
<title>Node3</title>
<g id="a_Node000003"><a xlink:href="classAbstractCommand.html#ad827a18a24776efeb955739459d48f7d" target="_top" xlink:title="Processes the relevant options from the command line parser.">
<polygon fill="white" stroke="#666666" points="354,-282 203,-282 203,-252 354,-252 354,-282"/>
<text text-anchor="start" x="211" y="-270" font-family="Helvetica,sans-Serif" font-size="10.00">AbstractCommand::process</text>
<text text-anchor="middle" x="278.5" y="-259" font-family="Helvetica,sans-Serif" font-size="10.00">Options</text>
</a>
</g>
</g>
<!-- Node1&#45;&gt;Node3 -->
<g id="edge2_Node000001_Node000003" class="edge">
<title>Node1&#45;&gt;Node3</title>
<g id="a_edge2_Node000001_Node000003"><a xlink:title=" ">
<path fill="none" stroke="#63b8ff" d="M167.19,-279C176.37,-278 185.72,-276.99 194.9,-275.99"/>
<polygon fill="#63b8ff" stroke="#63b8ff" points="202.91,-275.12 195.35,-279.56 198.93,-275.55 194.96,-275.98 194.96,-275.98 194.96,-275.98 198.93,-275.55 194.57,-272.4 202.91,-275.12 202.91,-275.12"/>
</a>
</g>
</g>
<!-- Node4 -->
<g id="Node000004" class="node">
<title>Node4</title>
<g id="a_Node000004"><a target="_parent" xlink:href="https://doc.qt.io/qt-5/qlist.html#append" xlink:title=" ">
<polygon fill="white" stroke="#666666" points="536,-532.5 453,-532.5 453,-513.5 536,-513.5 536,-532.5"/>
<text text-anchor="middle" x="494.5" y="-520.5" font-family="Helvetica,sans-Serif" font-size="10.00">QList::append</text>
</a>
</g>
</g>
<!-- Node3&#45;&gt;Node4 -->
<g id="edge3_Node000003_Node000004" class="edge">
<title>Node3&#45;&gt;Node4</title>
<g id="a_edge3_Node000003_Node000004"><a xlink:title=" ">
<path fill="none" stroke="#63b8ff" d="M342.58,-282.16C346.83,-284.91 350.72,-288.16 354,-292 416.38,-364.98 322.27,-436.95 390,-505 404.13,-519.2 425.18,-524.52 444.62,-525.98"/>
<polygon fill="#63b8ff" stroke="#63b8ff" points="452.82,-526.38 444.66,-529.59 448.83,-526.19 444.83,-525.99 444.83,-525.99 444.83,-525.99 448.83,-526.19 445.01,-522.4 452.82,-526.38 452.82,-526.38"/>
</a>
</g>
</g>
<!-- Node5 -->
<g id="Node000005" class="node">
<title>Node5</title>
<g id="a_Node000005"><a target="_parent" xlink:href="https://doc.qt.io/qt-5/qstring.html#arg-1" xlink:title=" ">
<polygon fill="white" stroke="#666666" points="531.5,-495.5 457.5,-495.5 457.5,-476.5 531.5,-476.5 531.5,-495.5"/>
<text text-anchor="middle" x="494.5" y="-483.5" font-family="Helvetica,sans-Serif" font-size="10.00">QString::arg</text>
</a>
</g>
</g>
<!-- Node3&#45;&gt;Node5 -->
<g id="edge4_Node000003_Node000005" class="edge">
<title>Node3&#45;&gt;Node5</title>
<g id="a_edge4_Node000003_Node000005"><a xlink:title=" ">
<path fill="none" stroke="#63b8ff" d="M342.09,-282.06C346.51,-284.84 350.56,-288.12 354,-292 406.91,-351.79 332.71,-412.38 390,-468 405.48,-483.03 428.75,-488.01 449.31,-489.02"/>
<polygon fill="#63b8ff" stroke="#63b8ff" points="457.33,-489.23 449.24,-492.62 453.33,-489.13 449.34,-489.02 449.34,-489.02 449.34,-489.02 453.33,-489.13 449.43,-485.43 457.33,-489.23 457.33,-489.23"/>
</a>
</g>
</g>
<!-- Node6 -->
<g id="Node000006" class="node">
<title>Node6</title>
<g id="a_Node000006"><a target="_parent" xlink:href="https://doc.qt.io/qt-5/qstringlist.html#contains" xlink:title=" ">
<polygon fill="white" stroke="#666666" points="553,-458.5 436,-458.5 436,-439.5 553,-439.5 553,-458.5"/>
<text text-anchor="middle" x="494.5" y="-446.5" font-family="Helvetica,sans-Serif" font-size="10.00">QStringList::contains</text>
</a>
</g>
</g>
<!-- Node3&#45;&gt;Node6 -->
<g id="edge5_Node000003_Node000006" class="edge">
<title>Node3&#45;&gt;Node6</title>
<g id="a_edge5_Node000003_Node000006"><a xlink:title=" ">
<path fill="none" stroke="#63b8ff" d="M341.51,-282.05C346.12,-284.83 350.37,-288.11 354,-292 397.26,-338.33 343.56,-386.86 390,-430 400.35,-439.61 413.89,-445.15 427.75,-448.2"/>
<polygon fill="#63b8ff" stroke="#63b8ff" points="435.92,-449.72 427.4,-451.8 431.99,-448.99 428.06,-448.26 428.06,-448.26 428.06,-448.26 431.99,-448.99 428.72,-444.72 435.92,-449.72 435.92,-449.72"/>
</a>
</g>
</g>
<!-- Node7 -->
<g id="Node000007" class="node">
<title>Node7</title>
<g id="a_Node000007"><a target="_parent" xlink:href="https://doc.qt.io/qt-5/qcommandlineparser.html#isSet" xlink:title=" ">
<polygon fill="white" stroke="#666666" points="557,-421 432,-421 432,-391 557,-391 557,-421"/>
<text text-anchor="start" x="440" y="-409" font-family="Helvetica,sans-Serif" font-size="10.00">QCommandLineParser</text>
<text text-anchor="middle" x="494.5" y="-398" font-family="Helvetica,sans-Serif" font-size="10.00">::isSet</text>
</a>
</g>
</g>
<!-- Node3&#45;&gt;Node7 -->
<g id="edge6_Node000003_Node000007" class="edge">
<title>Node3&#45;&gt;Node7</title>
<g id="a_edge6_Node000003_Node000007"><a xlink:title=" ">
<path fill="none" stroke="#63b8ff" d="M340.28,-282.15C345.26,-284.91 349.93,-288.16 354,-292 385.32,-321.59 357.3,-353.95 390,-382 399.68,-390.31 411.68,-395.87 424.05,-399.58"/>
<polygon fill="#63b8ff" stroke="#63b8ff" points="431.77,-401.65 423.11,-403.06 427.91,-400.62 424.05,-399.58 424.05,-399.58 424.05,-399.58 427.91,-400.62 424.98,-396.1 431.77,-401.65 431.77,-401.65"/>
</a>
</g>
</g>
<!-- Node8 -->
<g id="Node000008" class="node">
<title>Node8</title>
<g id="a_Node000008"><a target="_parent" xlink:href="https://doc.qt.io/qt-5/qbluetoothdevicediscoveryagent.html#lowEnergyDiscoveryTimeout" xlink:title=" ">
<polygon fill="white" stroke="#666666" points="590,-373 399,-373 399,-343 590,-343 590,-373"/>
<text text-anchor="start" x="407" y="-361" font-family="Helvetica,sans-Serif" font-size="10.00">QBluetoothDeviceDiscovery</text>
<text text-anchor="middle" x="494.5" y="-350" font-family="Helvetica,sans-Serif" font-size="10.00">Agent::lowEnergyDiscoveryTimeout</text>
</a>
</g>
</g>
<!-- Node3&#45;&gt;Node8 -->
<g id="edge7_Node000003_Node000008" class="edge">
<title>Node3&#45;&gt;Node8</title>
<g id="a_edge7_Node000003_Node000008"><a xlink:title=" ">
<path fill="none" stroke="#63b8ff" d="M335.6,-282.11C342.05,-284.91 348.34,-288.19 354,-292 374.39,-305.74 368.98,-321.25 390,-334 393.37,-336.04 396.9,-337.91 400.54,-339.62"/>
<polygon fill="#63b8ff" stroke="#63b8ff" points="408.15,-342.92 399.37,-343.04 404.47,-341.33 400.8,-339.74 400.8,-339.74 400.8,-339.74 404.47,-341.33 402.23,-336.44 408.15,-342.92 408.15,-342.92"/>
</a>
</g>
</g>
<!-- Node9 -->
<g id="Node000009" class="node">
<title>Node9</title>
<g id="a_Node000009"><a target="_parent" xlink:href="https://doc.qt.io/qt-5/qcommandlineparser.html#optionNames" xlink:title=" ">
<polygon fill="white" stroke="#666666" points="557,-325 432,-325 432,-295 557,-295 557,-325"/>
<text text-anchor="start" x="440" y="-313" font-family="Helvetica,sans-Serif" font-size="10.00">QCommandLineParser</text>
<text text-anchor="middle" x="494.5" y="-302" font-family="Helvetica,sans-Serif" font-size="10.00">::optionNames</text>
</a>
</g>
</g>
<!-- Node3&#45;&gt;Node9 -->
<g id="edge8_Node000003_Node000009" class="edge">
<title>Node3&#45;&gt;Node9</title>
<g id="a_edge8_Node000003_Node000009"><a xlink:title=" ">
<path fill="none" stroke="#63b8ff" d="M354.05,-281.98C376.71,-286.53 401.53,-291.52 423.86,-296.01"/>
<polygon fill="#63b8ff" stroke="#63b8ff" points="431.97,-297.64 423.41,-299.59 428.05,-296.85 424.12,-296.06 424.12,-296.06 424.12,-296.06 428.05,-296.85 424.83,-292.53 431.97,-297.64 431.97,-297.64"/>
</a>
</g>
</g>
<!-- Node10 -->
<g id="Node000010" class="node">
<title>Node10</title>
<g id="a_Node000010"><a xlink:href="classAbstractCommand.html#a29b2a2446ef034195183a2ae9d4bb911" target="_top" xlink:title="Returns value as an integer multiple of the ratio R.">
<polygon fill="white" stroke="#666666" points="584,-276.5 405,-276.5 405,-257.5 584,-257.5 584,-276.5"/>
<text text-anchor="middle" x="494.5" y="-264.5" font-family="Helvetica,sans-Serif" font-size="10.00">AbstractCommand::parseNumber</text>
</a>
</g>
</g>
<!-- Node3&#45;&gt;Node10 -->
<g id="edge9_Node000003_Node000010" class="edge">
<title>Node3&#45;&gt;Node10</title>
<g id="a_edge9_Node000003_Node000010"><a xlink:title=" ">
<path fill="none" stroke="#63b8ff" d="M354.05,-267C367.76,-267 382.26,-267 396.52,-267"/>
<polygon fill="#63b8ff" stroke="#63b8ff" points="404.88,-267 396.88,-270.6 400.88,-267 396.88,-267 396.88,-267 396.88,-267 400.88,-267 396.88,-263.4 404.88,-267 404.88,-267"/>
</a>
</g>
</g>
<!-- Node22 -->
<g id="Node000022" class="node">
<title>Node22</title>
<g id="a_Node000022"><a xlink:href="classAbstractCommand.html#afd6f41cfc925751415cfa45e3b2d0b4a" target="_top" xlink:title="Returns a list of CLI option names required by this command.">
<polygon fill="white" stroke="#666666" points="789,-91 635,-91 635,-61 789,-61 789,-91"/>
<text text-anchor="start" x="643" y="-79" font-family="Helvetica,sans-Serif" font-size="10.00">AbstractCommand::required</text>
<text text-anchor="middle" x="712" y="-68" font-family="Helvetica,sans-Serif" font-size="10.00">Options</text>
</a>
</g>
</g>
<!-- Node3&#45;&gt;Node22 -->
<g id="edge21_Node000003_Node000022" class="edge">
<title>Node3&#45;&gt;Node22</title>
<g id="a_edge21_Node000003_Node000022"><a xlink:title=" ">
<path fill="none" stroke="#63b8ff" d="M354.22,-254.64C447.18,-239.12 594.36,-214.04 599,-210 637.82,-176.25 598.44,-136.18 635,-100 636.51,-98.51 638.1,-97.11 639.78,-95.8"/>
<polygon fill="#63b8ff" stroke="#63b8ff" points="646.57,-91.16 641.99,-98.65 643.27,-93.42 639.96,-95.67 639.96,-95.67 639.96,-95.67 643.27,-93.42 637.93,-92.7 646.57,-91.16 646.57,-91.16"/>
</a>
</g>
</g>
<!-- Node23 -->
<g id="Node000023" class="node">
<title>Node23</title>
<g id="a_Node000023"><a target="_parent" xlink:href="https://doc.qt.io/qt-5/qbluetoothdevicediscoveryagent.html#setLowEnergyDiscoveryTimeout" xlink:title=" ">
<polygon fill="white" stroke="#666666" points="599,-201 390,-201 390,-171 599,-171 599,-201"/>
<text text-anchor="start" x="398" y="-189" font-family="Helvetica,sans-Serif" font-size="10.00">QBluetoothDeviceDiscovery</text>
<text text-anchor="middle" x="494.5" y="-178" font-family="Helvetica,sans-Serif" font-size="10.00">Agent::setLowEnergyDiscoveryTimeout</text>
</a>
</g>
</g>
<!-- Node3&#45;&gt;Node23 -->
<g id="edge22_Node000003_Node000023" class="edge">
<title>Node3&#45;&gt;Node23</title>
<g id="a_edge22_Node000003_Node000023"><a xlink:title=" ">
<path fill="none" stroke="#63b8ff" d="M308.02,-251.97C330,-240.78 361.39,-225.66 390,-215 401.33,-210.78 413.56,-206.84 425.5,-203.3"/>
<polygon fill="#63b8ff" stroke="#63b8ff" points="433.3,-201.04 426.62,-206.73 429.46,-202.16 425.62,-203.27 425.62,-203.27 425.62,-203.27 429.46,-202.16 424.61,-199.81 433.3,-201.04 433.3,-201.04"/>
</a>
</g>
</g>
<!-- Node24 -->
<g id="Node000024" class="node">
<title>Node24</title>
<g id="a_Node000024"><a xlink:href="classAbstractCommand.html#a1ceca3c5b4cb24277dd4d4054f45db18" target="_top" xlink:title="Returns a list of CLI option names supported by this command.">
<polygon fill="white" stroke="#666666" points="575.5,-153 413.5,-153 413.5,-123 575.5,-123 575.5,-153"/>
<text text-anchor="start" x="421.5" y="-141" font-family="Helvetica,sans-Serif" font-size="10.00">AbstractCommand::supported</text>
<text text-anchor="middle" x="494.5" y="-130" font-family="Helvetica,sans-Serif" font-size="10.00">Options</text>
</a>
</g>
</g>
<!-- Node3&#45;&gt;Node24 -->
<g id="edge23_Node000003_Node000024" class="edge">
<title>Node3&#45;&gt;Node24</title>
<g id="a_edge23_Node000003_Node000024"><a xlink:title=" ">
<path fill="none" stroke="#63b8ff" d="M290.93,-251.86C309.22,-228.75 347.36,-184.96 390,-162 395.02,-159.29 400.35,-156.89 405.82,-154.76"/>
<polygon fill="#63b8ff" stroke="#63b8ff" points="413.36,-152.02 407.08,-158.13 409.61,-153.38 405.85,-154.75 405.85,-154.75 405.85,-154.75 409.61,-153.38 404.62,-151.37 413.36,-152.02 413.36,-152.02"/>
</a>
</g>
</g>
<!-- Node25 -->
<g id="Node000025" class="node">
<title>Node25</title>
<g id="a_Node000025"><a target="_parent" xlink:href="https://doc.qt.io/qt-5/qstring.html#toLower" xlink:title=" ">
<polygon fill="white" stroke="#666666" points="543.5,-104.5 445.5,-104.5 445.5,-85.5 543.5,-85.5 543.5,-104.5"/>
<text text-anchor="middle" x="494.5" y="-92.5" font-family="Helvetica,sans-Serif" font-size="10.00">QString::toLower</text>
</a>
</g>
</g>
<!-- Node3&#45;&gt;Node25 -->
<g id="edge25_Node000003_Node000025" class="edge">
<title>Node3&#45;&gt;Node25</title>
<g id="a_edge25_Node000003_Node000025"><a xlink:title=" ">
<path fill="none" stroke="#63b8ff" d="M285.71,-251.86C299.41,-220.49 335.43,-148.47 390,-114 403.94,-105.19 420.92,-100.23 437.06,-97.5"/>
<polygon fill="#63b8ff" stroke="#63b8ff" points="445.4,-96.27 438.01,-101 441.44,-96.86 437.49,-97.44 437.49,-97.44 437.49,-97.44 441.44,-96.86 436.96,-93.88 445.4,-96.27 445.4,-96.27"/>
</a>
</g>
</g>
<!-- Node26 -->
<g id="Node000026" class="node">
<title>Node26</title>
<g id="a_Node000026"><a target="_parent" xlink:href="https://doc.qt.io/qt-5/qobject.html#tr" xlink:title=" ">
<polygon fill="white" stroke="#666666" points="529,-67.5 460,-67.5 460,-48.5 529,-48.5 529,-67.5"/>
<text text-anchor="middle" x="494.5" y="-55.5" font-family="Helvetica,sans-Serif" font-size="10.00">QObject::tr</text>
</a>
</g>
</g>
<!-- Node3&#45;&gt;Node26 -->
<g id="edge26_Node000003_Node000026" class="edge">
<title>Node3&#45;&gt;Node26</title>
<g id="a_edge26_Node000003_Node000026"><a xlink:title=" ">
<path fill="none" stroke="#63b8ff" d="M283.47,-251.82C293.95,-214.99 326.07,-120.61 390,-76 407.75,-63.62 431.28,-58.85 451.42,-57.29"/>
<polygon fill="#63b8ff" stroke="#63b8ff" points="459.52,-56.82 451.75,-60.88 455.53,-57.05 451.54,-57.28 451.54,-57.28 451.54,-57.28 455.53,-57.05 451.33,-53.69 459.52,-56.82 459.52,-56.82"/>
</a>
</g>
</g>
<!-- Node27 -->
<g id="Node000027" class="node">
<title>Node27</title>
<g id="a_Node000027"><a target="_parent" xlink:href="https://doc.qt.io/qt-5/qcommandlineparser.html#value" xlink:title=" ">
<polygon fill="white" stroke="#666666" points="557,-30 432,-30 432,0 557,0 557,-30"/>
<text text-anchor="start" x="440" y="-18" font-family="Helvetica,sans-Serif" font-size="10.00">QCommandLineParser</text>
<text text-anchor="middle" x="494.5" y="-7" font-family="Helvetica,sans-Serif" font-size="10.00">::value</text>
</a>
</g>
</g>
<!-- Node3&#45;&gt;Node27 -->
<g id="edge27_Node000003_Node000027" class="edge">
<title>Node3&#45;&gt;Node27</title>
<g id="a_edge27_Node000003_Node000027"><a xlink:title=" ">
<path fill="none" stroke="#63b8ff" d="M282.16,-251.98C290.24,-210.92 318.5,-96.08 390,-39 399.82,-31.16 411.73,-25.8 423.93,-22.15"/>
<polygon fill="#63b8ff" stroke="#63b8ff" points="431.98,-19.98 425.19,-25.54 428.11,-21.02 424.25,-22.06 424.25,-22.06 424.25,-22.06 428.11,-21.02 423.32,-18.58 431.98,-19.98 431.98,-19.98"/>
</a>
</g>
</g>
<!-- Node11 -->
<g id="Node000011" class="node">
<title>Node11</title>
<g id="a_Node000011"><a target="_parent" xlink:href="https://doc.qt.io/qt-5/qstring.html#at" xlink:title=" ">
<polygon fill="white" stroke="#666666" points="746,-498.5 678,-498.5 678,-479.5 746,-479.5 746,-498.5"/>
<text text-anchor="middle" x="712" y="-486.5" font-family="Helvetica,sans-Serif" font-size="10.00">QString::at</text>
</a>
</g>
</g>
<!-- Node10&#45;&gt;Node11 -->
<g id="edge10_Node000010_Node000011" class="edge">
<title>Node10&#45;&gt;Node11</title>
<g id="a_edge10_Node000010_Node000011"><a xlink:title=" ">
<path fill="none" stroke="#63b8ff" d="M584.05,-275.23C589.52,-278.09 594.58,-281.63 599,-286 658.54,-344.91 576.98,-410.59 635,-471 644.01,-480.39 656.95,-485.26 669.6,-487.7"/>
<polygon fill="#63b8ff" stroke="#63b8ff" points="677.83,-488.96 669.38,-491.3 673.88,-488.35 669.93,-487.74 669.93,-487.74 669.93,-487.74 673.88,-488.35 670.47,-484.19 677.83,-488.96 677.83,-488.96"/>
</a>
</g>
</g>
<!-- Node12 -->
<g id="Node000012" class="node">
<title>Node12</title>
<g id="a_Node000012"><a target="_parent" xlink:href="https://doc.qt.io/qt-5/qstring.html#back" xlink:title=" ">
<polygon fill="white" stroke="#666666" points="753,-461.5 671,-461.5 671,-442.5 753,-442.5 753,-461.5"/>
<text text-anchor="middle" x="712" y="-449.5" font-family="Helvetica,sans-Serif" font-size="10.00">QString::back</text>
</a>
</g>
</g>
<!-- Node10&#45;&gt;Node12 -->
<g id="edge11_Node000010_Node000012" class="edge">
<title>Node10&#45;&gt;Node12</title>
<g id="a_edge11_Node000010_Node000012"><a xlink:title=" ">
<path fill="none" stroke="#63b8ff" d="M584.31,-275.71C589.64,-278.47 594.62,-281.86 599,-286 648.21,-332.48 586.99,-386.28 635,-434 642.51,-441.46 652.51,-446.05 662.78,-448.82"/>
<polygon fill="#63b8ff" stroke="#63b8ff" points="670.66,-450.6 662.06,-452.35 666.75,-449.72 662.85,-448.83 662.85,-448.83 662.85,-448.83 666.75,-449.72 663.65,-445.32 670.66,-450.6 670.66,-450.6"/>
</a>
</g>
</g>
<!-- Node13 -->
<g id="Node000013" class="node">
<title>Node13</title>
<g id="a_Node000013"><a target="_parent" xlink:href="https://doc.qt.io/qt-5/qstring.html#chop" xlink:title=" ">
<polygon fill="white" stroke="#666666" points="753,-424.5 671,-424.5 671,-405.5 753,-405.5 753,-424.5"/>
<text text-anchor="middle" x="712" y="-412.5" font-family="Helvetica,sans-Serif" font-size="10.00">QString::chop</text>
</a>
</g>
</g>
<!-- Node10&#45;&gt;Node13 -->
<g id="edge12_Node000010_Node000013" class="edge">
<title>Node10&#45;&gt;Node13</title>
<g id="a_edge12_Node000010_Node000013"><a xlink:title=" ">
<path fill="none" stroke="#63b8ff" d="M584.45,-276.34C589.69,-278.96 594.6,-282.15 599,-286 638.01,-320.17 596.87,-361.84 635,-397 642.63,-404.04 652.49,-408.47 662.57,-411.24"/>
<polygon fill="#63b8ff" stroke="#63b8ff" points="670.66,-413.11 662.05,-414.81 666.76,-412.21 662.86,-411.31 662.86,-411.31 662.86,-411.31 666.76,-412.21 663.68,-407.8 670.66,-413.11 670.66,-413.11"/>
</a>
</g>
</g>
<!-- Node14 -->
<g id="Node000014" class="node">
<title>Node14</title>
<g id="a_Node000014"><a target="_parent" xlink:href="https://doc.qt.io/qt-5/qstring.html#endsWith" xlink:title=" ">
<polygon fill="white" stroke="#666666" points="764,-387.5 660,-387.5 660,-368.5 764,-368.5 764,-387.5"/>
<text text-anchor="middle" x="712" y="-375.5" font-family="Helvetica,sans-Serif" font-size="10.00">QString::endsWith</text>
</a>
</g>
</g>
<!-- Node10&#45;&gt;Node14 -->
<g id="edge13_Node000010_Node000014" class="edge">
<title>Node10&#45;&gt;Node14</title>
<g id="a_edge13_Node000010_Node000014"><a xlink:title=" ">
<path fill="none" stroke="#63b8ff" d="M582.85,-276.61C588.6,-279.15 594.05,-282.24 599,-286 628.12,-308.13 606.45,-337.14 635,-360 640.06,-364.05 645.88,-367.22 652,-369.69"/>
<polygon fill="#63b8ff" stroke="#63b8ff" points="659.88,-372.46 651.14,-373.2 656.11,-371.13 652.34,-369.81 652.34,-369.81 652.34,-369.81 656.11,-371.13 653.53,-366.41 659.88,-372.46 659.88,-372.46"/>
</a>
</g>
</g>
<!-- Node15 -->
<g id="Node000015" class="node">
<title>Node15</title>
<g id="a_Node000015"><a target="_parent" xlink:href="https://doc.qt.io/qt-5/qstring.html#isEmpty" xlink:title=" ">
<polygon fill="white" stroke="#666666" points="761,-350.5 663,-350.5 663,-331.5 761,-331.5 761,-350.5"/>
<text text-anchor="middle" x="712" y="-338.5" font-family="Helvetica,sans-Serif" font-size="10.00">QString::isEmpty</text>
</a>
</g>
</g>
<!-- Node10&#45;&gt;Node15 -->
<g id="edge14_Node000010_Node000015" class="edge">
<title>Node10&#45;&gt;Node15</title>
<g id="a_edge14_Node000010_Node000015"><a xlink:title=" ">
<path fill="none" stroke="#63b8ff" d="M575.75,-276.56C583.85,-279.03 591.75,-282.13 599,-286 619.24,-296.8 615.04,-311.68 635,-323 641.1,-326.46 647.85,-329.26 654.72,-331.52"/>
<polygon fill="#63b8ff" stroke="#63b8ff" points="662.82,-333.93 654.12,-335.1 658.98,-332.79 655.15,-331.65 655.15,-331.65 655.15,-331.65 658.98,-332.79 656.18,-328.2 662.82,-333.93 662.82,-333.93"/>
</a>
</g>
</g>
<!-- Node16 -->
<g id="Node000016" class="node">
<title>Node16</title>
<g id="a_Node000016"><a xlink:href="structRatio.html#abbfb48e8ebeec5666385f38b31f94215" target="_top" xlink:title="Returns true if both num and den are non&#45;zero.">
<polygon fill="white" stroke="#666666" points="752,-313.5 672,-313.5 672,-294.5 752,-294.5 752,-313.5"/>
<text text-anchor="middle" x="712" y="-301.5" font-family="Helvetica,sans-Serif" font-size="10.00">Ratio::isValid</text>
</a>
</g>
</g>
<!-- Node10&#45;&gt;Node16 -->
<g id="edge15_Node000010_Node000016" class="edge">
<title>Node10&#45;&gt;Node16</title>
<g id="a_edge15_Node000010_Node000016"><a xlink:title=" ">
<path fill="none" stroke="#63b8ff" d="M551,-276.53C585.83,-282.51 630.28,-290.14 663.48,-295.84"/>
<polygon fill="#63b8ff" stroke="#63b8ff" points="671.67,-297.25 663.18,-299.44 667.73,-296.57 663.79,-295.89 663.79,-295.89 663.79,-295.89 667.73,-296.57 664.4,-292.35 671.67,-297.25 671.67,-297.25"/>
</a>
</g>
</g>
<!-- Node17 -->
<g id="Node000017" class="node">
<title>Node17</title>
<g id="a_Node000017"><a target="_parent" xlink:href="https://doc.qt.io/qt-5/qstring.html#length" xlink:title=" ">
<polygon fill="white" stroke="#666666" points="756.5,-276.5 667.5,-276.5 667.5,-257.5 756.5,-257.5 756.5,-276.5"/>
<text text-anchor="middle" x="712" y="-264.5" font-family="Helvetica,sans-Serif" font-size="10.00">QString::length</text>
</a>
</g>
</g>
<!-- Node10&#45;&gt;Node17 -->
<g id="edge16_Node000010_Node000017" class="edge">
<title>Node10&#45;&gt;Node17</title>
<g id="a_edge16_Node000010_Node000017"><a xlink:title=" ">
<path fill="none" stroke="#63b8ff" d="M584.09,-267C609.62,-267 636.64,-267 659.16,-267"/>
<polygon fill="#63b8ff" stroke="#63b8ff" points="667.24,-267 659.24,-270.6 663.24,-267 659.24,-267 659.24,-267 659.24,-267 663.24,-267 659.24,-263.4 667.24,-267 667.24,-267"/>
</a>
</g>
</g>
<!-- Node18 -->
<g id="Node000018" class="node">
<title>Node18</title>
<g id="a_Node000018"><a target="_parent" xlink:href="https://doc.qt.io/qt-5/qstring.html#size" xlink:title=" ">
<polygon fill="white" stroke="#666666" points="751,-239.5 673,-239.5 673,-220.5 751,-220.5 751,-239.5"/>
<text text-anchor="middle" x="712" y="-227.5" font-family="Helvetica,sans-Serif" font-size="10.00">QString::size</text>
</a>
</g>
</g>
<!-- Node10&#45;&gt;Node18 -->
<g id="edge17_Node000010_Node000018" class="edge">
<title>Node10&#45;&gt;Node18</title>
<g id="a_edge17_Node000010_Node000018"><a xlink:title=" ">
<path fill="none" stroke="#63b8ff" d="M551,-257.47C586.18,-251.43 631.16,-243.71 664.47,-237.99"/>
<polygon fill="#63b8ff" stroke="#63b8ff" points="672.67,-236.58 665.4,-241.48 668.73,-237.26 664.79,-237.93 664.79,-237.93 664.79,-237.93 668.73,-237.26 664.18,-234.39 672.67,-236.58 672.67,-236.58"/>
</a>
</g>
</g>
<!-- Node19 -->
<g id="Node000019" class="node">
<title>Node19</title>
<g id="a_Node000019"><a target="_parent" xlink:href="https://doc.qt.io/qt-5/qlocale.html#toDouble" xlink:title=" ">
<polygon fill="white" stroke="#666666" points="765,-202.5 659,-202.5 659,-183.5 765,-183.5 765,-202.5"/>
<text text-anchor="middle" x="712" y="-190.5" font-family="Helvetica,sans-Serif" font-size="10.00">QLocale::toDouble</text>
</a>
</g>
</g>
<!-- Node10&#45;&gt;Node19 -->
<g id="edge18_Node000010_Node000019" class="edge">
<title>Node10&#45;&gt;Node19</title>
<g id="a_edge18_Node000010_Node000019"><a xlink:title=" ">
<path fill="none" stroke="#63b8ff" d="M558.51,-257.49C572.3,-254.03 586.5,-249.34 599,-243 617.83,-233.45 616.25,-221.71 635,-212 640.15,-209.33 645.69,-207.03 651.35,-205.04"/>
<polygon fill="#63b8ff" stroke="#63b8ff" points="659.11,-202.51 652.62,-208.41 655.31,-203.75 651.51,-204.99 651.51,-204.99 651.51,-204.99 655.31,-203.75 650.39,-201.56 659.11,-202.51 659.11,-202.51"/>
</a>
</g>
</g>
<!-- Node20 -->
<g id="Node000020" class="node">
<title>Node20</title>
<g id="a_Node000020"><a target="_parent" xlink:href="https://doc.qt.io/qt-5/qlocale.html#toULongLong" xlink:title=" ">
<polygon fill="white" stroke="#666666" points="774.5,-165.5 649.5,-165.5 649.5,-146.5 774.5,-146.5 774.5,-165.5"/>
<text text-anchor="middle" x="712" y="-153.5" font-family="Helvetica,sans-Serif" font-size="10.00">QLocale::toULongLong</text>
</a>
</g>
</g>
<!-- Node10&#45;&gt;Node20 -->
<g id="edge19_Node000010_Node000020" class="edge">
<title>Node10&#45;&gt;Node20</title>
<g id="a_edge19_Node000010_Node000020"><a xlink:title=" ">
<path fill="none" stroke="#63b8ff" d="M571.32,-257.48C581.26,-253.99 590.81,-249.3 599,-243 626.1,-222.15 608.08,-196.09 635,-175 637.85,-172.77 640.92,-170.8 644.15,-169.05"/>
<polygon fill="#63b8ff" stroke="#63b8ff" points="651.42,-165.59 645.75,-172.28 647.81,-167.31 644.2,-169.03 644.2,-169.03 644.2,-169.03 647.81,-167.31 642.65,-165.78 651.42,-165.59 651.42,-165.59"/>
</a>
</g>
</g>
<!-- Node21 -->
<g id="Node000021" class="node">
<title>Node21</title>
<g id="a_Node000021"><a target="_parent" xlink:href="https://doc.qt.io/qt-5/qstring.html#trimmed" xlink:title=" ">
<polygon fill="white" stroke="#666666" points="762.5,-128.5 661.5,-128.5 661.5,-109.5 762.5,-109.5 762.5,-128.5"/>
<text text-anchor="middle" x="712" y="-116.5" font-family="Helvetica,sans-Serif" font-size="10.00">QString::trimmed</text>
</a>
</g>
</g>
<!-- Node10&#45;&gt;Node21 -->
<g id="edge20_Node000010_Node000021" class="edge">
<title>Node10&#45;&gt;Node21</title>
<g id="a_edge20_Node000010_Node000021"><a xlink:title=" ">
<path fill="none" stroke="#63b8ff" d="M575.14,-257.5C583.87,-253.95 592.08,-249.24 599,-243 635.62,-209.95 598.66,-171.36 635,-138 640.37,-133.07 646.83,-129.37 653.67,-126.6"/>
<polygon fill="#63b8ff" stroke="#63b8ff" points="661.23,-123.95 654.87,-130 657.45,-125.28 653.68,-126.6 653.68,-126.6 653.68,-126.6 657.45,-125.28 652.49,-123.2 661.23,-123.95 661.23,-123.95"/>
</a>
</g>
</g>
<!-- Node24&#45;&gt;Node22 -->
<g id="edge24_Node000024_Node000022" class="edge">
<title>Node24&#45;&gt;Node22</title>
<g id="a_edge24_Node000024_Node000022"><a xlink:title=" ">
<path fill="none" stroke="#63b8ff" d="M562.32,-123C574.59,-119.92 587.23,-116.54 599,-113 615.29,-108.11 618.89,-105.45 635,-100 641.31,-97.86 647.94,-95.68 654.54,-93.55"/>
<polygon fill="#63b8ff" stroke="#63b8ff" points="662.25,-91.07 655.74,-96.95 658.44,-92.29 654.64,-93.52 654.64,-93.52 654.64,-93.52 658.44,-92.29 653.53,-90.09 662.25,-91.07 662.25,-91.07"/>
</a>
</g>
</g>
</g>
</svg>
