<?xml version="1.0" encoding="UTF-8" standalone="no"?>
<!DOCTYPE svg PUBLIC "-//W3C//DTD SVG 1.1//EN"
 "http://www.w3.org/Graphics/SVG/1.1/DTD/svg11.dtd">
<!-- Generated by graphviz version 2.43.0 (0)
 -->
<!-- Title: SetNameCommand::getService Pages: 1 -->
<svg width="758pt" height="200pt"
 viewBox="0.00 0.00 758.00 200.00" xmlns="http://www.w3.org/2000/svg" xmlns:xlink="http://www.w3.org/1999/xlink">
<g id="graph0" class="graph" transform="scale(1 1) rotate(0) translate(4 196)">
<title>SetNameCommand::getService</title>
<!-- Node1 -->
<g id="Node000001" class="node">
<title>Node1</title>
<g id="a_Node000001"><a xlink:title="Returns a Pokit service object for the derived command class.">
<polygon fill="#999999" stroke="#666666" points="170,-104 0,-104 0,-85 170,-85 170,-104"/>
<text text-anchor="middle" x="85" y="-92" font-family="Helvetica,sans-Serif" font-size="10.00">SetNameCommand::getService</text>
</a>
</g>
</g>
<!-- Node2 -->
<g id="Node000002" class="node">
<title>Node2</title>
<g id="a_Node000002"><a target="_parent" xlink:href="https://doc.qt.io/qt-5/qobject.html#connect" xlink:title=" ">
<polygon fill="white" stroke="#666666" points="345.5,-171 245.5,-171 245.5,-152 345.5,-152 345.5,-171"/>
<text text-anchor="middle" x="295.5" y="-159" font-family="Helvetica,sans-Serif" font-size="10.00">QObject::connect</text>
</a>
</g>
</g>
<!-- Node1&#45;&gt;Node2 -->
<g id="edge1_Node000001_Node000002" class="edge">
<title>Node1&#45;&gt;Node2</title>
<g id="a_edge1_Node000001_Node000002"><a xlink:title=" ">
<path fill="none" stroke="#63b8ff" d="M106.86,-104.1C130.49,-114.68 170.37,-131.64 206,-142.5 216.06,-145.57 226.91,-148.33 237.45,-150.74"/>
<polygon fill="#63b8ff" stroke="#63b8ff" points="245.43,-152.51 236.84,-154.29 241.53,-151.64 237.62,-150.78 237.62,-150.78 237.62,-150.78 241.53,-151.64 238.4,-147.26 245.43,-152.51 245.43,-152.51"/>
</a>
</g>
</g>
<!-- Node3 -->
<g id="Node000003" class="node">
<title>Node3</title>
<g id="a_Node000003"><a xlink:href="classSetNameCommand.html#a6488980e62ffb16274644152a1364bce" target="_top" xlink:title="Handles StatusService::deviceNameWritten events, by outputting the result and exiting.">
<polygon fill="white" stroke="#666666" points="385,-133.5 206,-133.5 206,-103.5 385,-103.5 385,-133.5"/>
<text text-anchor="start" x="214" y="-121.5" font-family="Helvetica,sans-Serif" font-size="10.00">SetNameCommand::deviceName</text>
<text text-anchor="middle" x="295.5" y="-110.5" font-family="Helvetica,sans-Serif" font-size="10.00">Written</text>
</a>
</g>
</g>
<!-- Node1&#45;&gt;Node3 -->
<g id="edge2_Node000001_Node000003" class="edge">
<title>Node1&#45;&gt;Node3</title>
<g id="a_edge2_Node000001_Node000003"><a xlink:title=" ">
<path fill="none" stroke="#63b8ff" d="M168.7,-104.02C178.21,-105.11 187.96,-106.24 197.63,-107.35"/>
<polygon fill="#63b8ff" stroke="#63b8ff" points="205.73,-108.28 197.37,-110.94 201.75,-107.82 197.78,-107.37 197.78,-107.37 197.78,-107.37 201.75,-107.82 198.19,-103.79 205.73,-108.28 205.73,-108.28"/>
</a>
</g>
</g>
<!-- Node8 -->
<g id="Node000008" class="node">
<title>Node8</title>
<g id="a_Node000008"><a xlink:href="classStatusService.html#ab5d4871d4fae7045dff91f12f8f67d9a" target="_top" xlink:title="This signal is emitted when the Device Name characteristic has been written successfully.">
<polygon fill="white" stroke="#666666" points="371,-85.5 220,-85.5 220,-55.5 371,-55.5 371,-85.5"/>
<text text-anchor="start" x="228" y="-73.5" font-family="Helvetica,sans-Serif" font-size="10.00">StatusService::deviceName</text>
<text text-anchor="middle" x="295.5" y="-62.5" font-family="Helvetica,sans-Serif" font-size="10.00">Written</text>
</a>
</g>
</g>
<!-- Node1&#45;&gt;Node8 -->
<g id="edge8_Node000001_Node000008" class="edge">
<title>Node1&#45;&gt;Node8</title>
<g id="a_edge8_Node000001_Node000008"><a xlink:title=" ">
<path fill="none" stroke="#63b8ff" d="M168.7,-84.98C182.77,-83.36 197.38,-81.68 211.46,-80.06"/>
<polygon fill="#63b8ff" stroke="#63b8ff" points="219.68,-79.11 212.14,-83.6 215.7,-79.57 211.73,-80.03 211.73,-80.03 211.73,-80.03 215.7,-79.57 211.32,-76.45 219.68,-79.11 219.68,-79.11"/>
</a>
</g>
</g>
<!-- Node9 -->
<g id="Node000009" class="node">
<title>Node9</title>
<g id="a_Node000009"><a xlink:href="classPokitDevice.html#adaaaedcb434b3dda9608ad58192e9142" target="_top" xlink:title="Returns a pointer to StatusService instance that uses this device&#39;s controller for access.">
<polygon fill="white" stroke="#666666" points="351,-19 240,-19 240,0 351,0 351,-19"/>
<text text-anchor="middle" x="295.5" y="-7" font-family="Helvetica,sans-Serif" font-size="10.00">PokitDevice::status</text>
</a>
</g>
</g>
<!-- Node1&#45;&gt;Node9 -->
<g id="edge9_Node000001_Node000009" class="edge">
<title>Node1&#45;&gt;Node9</title>
<g id="a_edge9_Node000001_Node000009"><a xlink:title=" ">
<path fill="none" stroke="#63b8ff" d="M109.51,-84.91C147.31,-69.51 221.59,-39.22 263.62,-22.09"/>
<polygon fill="#63b8ff" stroke="#63b8ff" points="271.07,-19.05 265.02,-25.4 267.37,-20.56 263.67,-22.07 263.67,-22.07 263.67,-22.07 267.37,-20.56 262.31,-18.74 271.07,-19.05 271.07,-19.05"/>
</a>
</g>
</g>
<!-- Node4 -->
<g id="Node000004" class="node">
<title>Node4</title>
<g id="a_Node000004"><a xlink:href="classDeviceCommand.html#ae619166395b5651f1316fd5336d9fa2c" target="_top" xlink:title="Disconnects the underlying Pokit device, and sets exitCode to be return to the OS once the disconnect...">
<polygon fill="white" stroke="#666666" points="580,-147 421,-147 421,-128 580,-128 580,-147"/>
<text text-anchor="middle" x="500.5" y="-135" font-family="Helvetica,sans-Serif" font-size="10.00">DeviceCommand::disconnect</text>
</a>
</g>
</g>
<!-- Node3&#45;&gt;Node4 -->
<g id="edge3_Node000003_Node000004" class="edge">
<title>Node3&#45;&gt;Node4</title>
<g id="a_edge3_Node000003_Node000004"><a xlink:title=" ">
<path fill="none" stroke="#63b8ff" d="M385.24,-126.81C394.4,-127.66 403.7,-128.53 412.84,-129.39"/>
<polygon fill="#63b8ff" stroke="#63b8ff" points="420.82,-130.14 412.52,-132.97 416.84,-129.76 412.85,-129.39 412.85,-129.39 412.85,-129.39 416.84,-129.76 413.19,-125.81 420.82,-130.14 420.82,-130.14"/>
</a>
</g>
</g>
<!-- Node7 -->
<g id="Node000007" class="node">
<title>Node7</title>
<g id="a_Node000007"><a target="_parent" xlink:href="https://doc.qt.io/qt-5/qobject.html#tr" xlink:title=" ">
<polygon fill="white" stroke="#666666" points="717.5,-106 648.5,-106 648.5,-87 717.5,-87 717.5,-106"/>
<text text-anchor="middle" x="683" y="-94" font-family="Helvetica,sans-Serif" font-size="10.00">QObject::tr</text>
</a>
</g>
</g>
<!-- Node3&#45;&gt;Node7 -->
<g id="edge7_Node000003_Node000007" class="edge">
<title>Node3&#45;&gt;Node7</title>
<g id="a_edge7_Node000003_Node000007"><a xlink:title=" ">
<path fill="none" stroke="#63b8ff" d="M385.43,-113.43C465.28,-108.87 579.01,-102.38 639.82,-98.91"/>
<polygon fill="#63b8ff" stroke="#63b8ff" points="648.04,-98.44 640.26,-102.49 644.04,-98.67 640.05,-98.89 640.05,-98.89 640.05,-98.89 644.04,-98.67 639.85,-95.3 648.04,-98.44 648.04,-98.44"/>
</a>
</g>
</g>
<!-- Node5 -->
<g id="Node000005" class="node">
<title>Node5</title>
<g id="a_Node000005"><a xlink:href="classPokitDevice.html#a2e2fb6b30e6f5f0d7bc6cd8f806d6423" target="_top" xlink:title="Returns a non&#45;const pointer to the controller used to access the Pokit device.">
<polygon fill="white" stroke="#666666" points="747,-192 619,-192 619,-173 747,-173 747,-192"/>
<text text-anchor="middle" x="683" y="-180" font-family="Helvetica,sans-Serif" font-size="10.00">PokitDevice::controller</text>
</a>
</g>
</g>
<!-- Node4&#45;&gt;Node5 -->
<g id="edge4_Node000004_Node000005" class="edge">
<title>Node4&#45;&gt;Node5</title>
<g id="a_edge4_Node000004_Node000005"><a xlink:title=" ">
<path fill="none" stroke="#63b8ff" d="M539.78,-147.04C567.9,-154.05 606.23,-163.61 636.01,-171.03"/>
<polygon fill="#63b8ff" stroke="#63b8ff" points="643.78,-172.97 635.14,-174.53 639.89,-172 636.01,-171.04 636.01,-171.04 636.01,-171.04 639.89,-172 636.88,-167.54 643.78,-172.97 643.78,-172.97"/>
</a>
</g>
</g>
<!-- Node6 -->
<g id="Node000006" class="node">
<title>Node6</title>
<g id="a_Node000006"><a target="_parent" xlink:href="https://doc.qt.io/qt-5/qlowenergycontroller.html#disconnectFromDevice" xlink:title=" ">
<polygon fill="white" stroke="#666666" points="750,-154.5 616,-154.5 616,-124.5 750,-124.5 750,-154.5"/>
<text text-anchor="start" x="624" y="-142.5" font-family="Helvetica,sans-Serif" font-size="10.00">QLowEnergyController</text>
<text text-anchor="middle" x="683" y="-131.5" font-family="Helvetica,sans-Serif" font-size="10.00">::disconnectFromDevice</text>
</a>
</g>
</g>
<!-- Node4&#45;&gt;Node6 -->
<g id="edge5_Node000004_Node000006" class="edge">
<title>Node4&#45;&gt;Node6</title>
<g id="a_edge5_Node000004_Node000006"><a xlink:title=" ">
<path fill="none" stroke="#63b8ff" d="M580.14,-138.37C589.24,-138.47 598.49,-138.57 607.52,-138.67"/>
<polygon fill="#63b8ff" stroke="#63b8ff" points="615.75,-138.77 607.71,-142.28 611.75,-138.72 607.75,-138.68 607.75,-138.68 607.75,-138.68 611.75,-138.72 607.79,-135.08 615.75,-138.77 615.75,-138.77"/>
</a>
</g>
</g>
<!-- Node4&#45;&gt;Node7 -->
<g id="edge6_Node000004_Node000007" class="edge">
<title>Node4&#45;&gt;Node7</title>
<g id="a_edge6_Node000004_Node000007"><a xlink:title=" ">
<path fill="none" stroke="#63b8ff" d="M543.36,-127.99C572.59,-121.35 611.42,-112.53 640.56,-105.91"/>
<polygon fill="#63b8ff" stroke="#63b8ff" points="648.5,-104.11 641.49,-109.39 644.6,-105 640.7,-105.88 640.7,-105.88 640.7,-105.88 644.6,-105 639.9,-102.37 648.5,-104.11 648.5,-104.11"/>
</a>
</g>
</g>
<!-- Node9&#45;&gt;Node9 -->
<g id="edge10_Node000009_Node000009" class="edge">
<title>Node9&#45;&gt;Node9</title>
<g id="a_edge10_Node000009_Node000009"><a xlink:title=" ">
<path fill="none" stroke="#63b8ff" d="M264.06,-19.08C248.76,-27.73 259.24,-37 295.5,-37 324.39,-37 336.92,-31.12 333.07,-24.35"/>
<polygon fill="#63b8ff" stroke="#63b8ff" points="326.94,-19.08 335.36,-21.56 329.98,-21.69 333.01,-24.3 333.01,-24.3 333.01,-24.3 329.98,-21.69 330.67,-27.03 326.94,-19.08 326.94,-19.08"/>
</a>
</g>
</g>
</g>
</svg>
