<?xml version="1.0" encoding="UTF-8" standalone="no"?>
<!DOCTYPE svg PUBLIC "-//W3C//DTD SVG 1.1//EN"
 "http://www.w3.org/Graphics/SVG/1.1/DTD/svg11.dtd">
<!-- Generated by graphviz version 2.43.0 (0)
 -->
<!-- Title: DeviceCommand::minCapacitanceRange Pages: 1 -->
<svg width="385pt" height="38pt"
 viewBox="0.00 0.00 385.00 38.00" xmlns="http://www.w3.org/2000/svg" xmlns:xlink="http://www.w3.org/1999/xlink">
<g id="graph0" class="graph" transform="scale(1 1) rotate(0) translate(4 34)">
<title>DeviceCommand::minCapacitanceRange</title>
<!-- Node1 -->
<g id="Node000001" class="node">
<title>Node1</title>
<g id="a_Node000001"><a xlink:title="Returns the product&#39;s lowest capacitance range that can measure at least up to maxValue (nF),...">
<polygon fill="#999999" stroke="#666666" points="185,-30 0,-30 0,0 185,0 185,-30"/>
<text text-anchor="start" x="8" y="-18" font-family="Helvetica,sans-Serif" font-size="10.00">DeviceCommand::minCapacitance</text>
<text text-anchor="middle" x="92.5" y="-7" font-family="Helvetica,sans-Serif" font-size="10.00">Range</text>
</a>
</g>
</g>
<!-- Node2 -->
<g id="Node000002" class="node">
<title>Node2</title>
<g id="a_Node000002"><a xlink:href="classDeviceCommand.html#abb9d2e113e372130dca9360791e7ce5b" target="_top" xlink:title=" ">
<polygon fill="white" stroke="#666666" points="377,-24.5 221,-24.5 221,-5.5 377,-5.5 377,-24.5"/>
<text text-anchor="middle" x="299" y="-12.5" font-family="Helvetica,sans-Serif" font-size="10.00">DeviceCommand::minRange</text>
</a>
</g>
</g>
<!-- Node1&#45;&gt;Node2 -->
<g id="edge1_Node000001_Node000002" class="edge">
<title>Node1&#45;&gt;Node2</title>
<g id="a_edge1_Node000001_Node000002"><a xlink:title=" ">
<path fill="none" stroke="#63b8ff" d="M185.28,-15C194.39,-15 203.6,-15 212.64,-15"/>
<polygon fill="#63b8ff" stroke="#63b8ff" points="220.88,-15 212.88,-18.6 216.88,-15 212.88,-15 212.88,-15 212.88,-15 216.88,-15 212.88,-11.4 220.88,-15 220.88,-15"/>
</a>
</g>
</g>
</g>
</svg>
