<?xml version="1.0" encoding="UTF-8" standalone="no"?>
<!DOCTYPE svg PUBLIC "-//W3C//DTD SVG 1.1//EN"
 "http://www.w3.org/Graphics/SVG/1.1/DTD/svg11.dtd">
<!-- Generated by graphviz version 2.43.0 (0)
 -->
<!-- Title: DsoService::toString Pages: 1 -->
<svg width="438pt" height="64pt"
 viewBox="0.00 0.00 438.00 64.00" xmlns="http://www.w3.org/2000/svg" xmlns:xlink="http://www.w3.org/1999/xlink">
<g id="graph0" class="graph" transform="scale(1 1) rotate(0) translate(4 60)">
<title>DsoService::toString</title>
<!-- Node1 -->
<g id="Node000001" class="node">
<title>Node1</title>
<g id="a_Node000001"><a xlink:title="Returns range as a user&#45;friendly string, or a null QString if mode has no ranges.">
<polygon fill="#999999" stroke="#666666" points="116,-37 0,-37 0,-18 116,-18 116,-37"/>
<text text-anchor="middle" x="58" y="-25" font-family="Helvetica,sans-Serif" font-size="10.00">DsoService::toString</text>
</a>
</g>
</g>
<!-- Node2 -->
<g id="Node000002" class="node">
<title>Node2</title>
<g id="a_Node000002"><a xlink:href="namespaceCurrentRange.html#a683a82fdd02371d1d6acb4bbbd91e844" target="_top" xlink:title="Returns product&#39;s current range as a human&#45;friendly string.">
<polygon fill="white" stroke="#666666" points="280,-56 152,-56 152,-37 280,-37 280,-56"/>
<text text-anchor="middle" x="216" y="-44" font-family="Helvetica,sans-Serif" font-size="10.00">CurrentRange::toString</text>
</a>
</g>
</g>
<!-- Node1&#45;&gt;Node2 -->
<g id="edge1_Node000001_Node000002" class="edge">
<title>Node1&#45;&gt;Node2</title>
<g id="a_edge1_Node000001_Node000002"><a xlink:title=" ">
<path fill="none" stroke="#63b8ff" d="M116.2,-34.47C125.15,-35.56 134.49,-36.69 143.7,-37.82"/>
<polygon fill="#63b8ff" stroke="#63b8ff" points="151.75,-38.8 143.37,-41.4 147.78,-38.31 143.81,-37.83 143.81,-37.83 143.81,-37.83 147.78,-38.31 144.24,-34.26 151.75,-38.8 151.75,-38.8"/>
</a>
</g>
</g>
<!-- Node5 -->
<g id="Node000005" class="node">
<title>Node5</title>
<g id="a_Node000005"><a xlink:href="namespaceVoltageRange.html#a843ef4bfc3538988c695fa643adcd4d0" target="_top" xlink:title="Returns product&#39;s current range as a human&#45;friendly string.">
<polygon fill="white" stroke="#666666" points="280,-19 152,-19 152,0 280,0 280,-19"/>
<text text-anchor="middle" x="216" y="-7" font-family="Helvetica,sans-Serif" font-size="10.00">VoltageRange::toString</text>
</a>
</g>
</g>
<!-- Node1&#45;&gt;Node5 -->
<g id="edge4_Node000001_Node000005" class="edge">
<title>Node1&#45;&gt;Node5</title>
<g id="a_edge4_Node000001_Node000005"><a xlink:title=" ">
<path fill="none" stroke="#63b8ff" d="M116.2,-20.9C125.15,-19.87 134.49,-18.79 143.7,-17.73"/>
<polygon fill="#63b8ff" stroke="#63b8ff" points="151.75,-16.8 144.22,-21.29 147.78,-17.26 143.8,-17.72 143.8,-17.72 143.8,-17.72 147.78,-17.26 143.39,-14.14 151.75,-16.8 151.75,-16.8"/>
</a>
</g>
</g>
<!-- Node3 -->
<g id="Node000003" class="node">
<title>Node3</title>
<g id="a_Node000003"><a xlink:href="namespacePokitMeter.html#a3c3db7b94b6f44af24f4a23e87a3569e" target="_top" xlink:title="Returns range as a user&#45;friendly string.">
<polygon fill="white" stroke="#666666" points="430,-56 316,-56 316,-37 430,-37 430,-56"/>
<text text-anchor="middle" x="373" y="-44" font-family="Helvetica,sans-Serif" font-size="10.00">PokitMeter::toString</text>
</a>
</g>
</g>
<!-- Node2&#45;&gt;Node3 -->
<g id="edge2_Node000002_Node000003" class="edge">
<title>Node2&#45;&gt;Node3</title>
<g id="a_edge2_Node000002_Node000003"><a xlink:title=" ">
<path fill="none" stroke="#63b8ff" d="M280.04,-46.5C289.25,-46.5 298.74,-46.5 307.96,-46.5"/>
<polygon fill="#63b8ff" stroke="#63b8ff" points="315.99,-46.5 307.99,-50.1 311.99,-46.5 307.99,-46.5 307.99,-46.5 307.99,-46.5 311.99,-46.5 307.99,-42.9 315.99,-46.5 315.99,-46.5"/>
</a>
</g>
</g>
<!-- Node4 -->
<g id="Node000004" class="node">
<title>Node4</title>
<g id="a_Node000004"><a xlink:href="namespacePokitPro.html#a38ce307b844e4d67d94402b31461f7f4" target="_top" xlink:title="Returns range as a user&#45;friendly string.">
<polygon fill="white" stroke="#666666" points="423.5,-19 322.5,-19 322.5,0 423.5,0 423.5,-19"/>
<text text-anchor="middle" x="373" y="-7" font-family="Helvetica,sans-Serif" font-size="10.00">PokitPro::toString</text>
</a>
</g>
</g>
<!-- Node2&#45;&gt;Node4 -->
<g id="edge3_Node000002_Node000004" class="edge">
<title>Node2&#45;&gt;Node4</title>
<g id="a_edge3_Node000002_Node000004"><a xlink:title=" ">
<path fill="none" stroke="#63b8ff" d="M256.92,-36.97C277.36,-32.09 302.4,-26.11 323.9,-20.98"/>
<polygon fill="#63b8ff" stroke="#63b8ff" points="331.95,-19.06 325,-24.42 328.06,-19.99 324.17,-20.92 324.17,-20.92 324.17,-20.92 328.06,-19.99 323.33,-17.42 331.95,-19.06 331.95,-19.06"/>
</a>
</g>
</g>
<!-- Node5&#45;&gt;Node3 -->
<g id="edge5_Node000005_Node000003" class="edge">
<title>Node5&#45;&gt;Node3</title>
<g id="a_edge5_Node000005_Node000003"><a xlink:title=" ">
<path fill="none" stroke="#63b8ff" d="M256.92,-19.03C277.36,-23.91 302.4,-29.89 323.9,-35.02"/>
<polygon fill="#63b8ff" stroke="#63b8ff" points="331.95,-36.94 323.33,-38.58 328.06,-36.01 324.17,-35.08 324.17,-35.08 324.17,-35.08 328.06,-36.01 325,-31.58 331.95,-36.94 331.95,-36.94"/>
</a>
</g>
</g>
<!-- Node5&#45;&gt;Node4 -->
<g id="edge6_Node000005_Node000004" class="edge">
<title>Node5&#45;&gt;Node4</title>
<g id="a_edge6_Node000005_Node000004"><a xlink:title=" ">
<path fill="none" stroke="#63b8ff" d="M280.04,-9.5C291.37,-9.5 303.13,-9.5 314.3,-9.5"/>
<polygon fill="#63b8ff" stroke="#63b8ff" points="322.32,-9.5 314.32,-13.1 318.32,-9.5 314.32,-9.5 314.32,-9.5 314.32,-9.5 318.32,-9.5 314.32,-5.9 322.32,-9.5 322.32,-9.5"/>
</a>
</g>
</g>
</g>
</svg>
