<?xml version="1.0" encoding="UTF-8" standalone="no"?>
<!DOCTYPE svg PUBLIC "-//W3C//DTD SVG 1.1//EN"
 "http://www.w3.org/Graphics/SVG/1.1/DTD/svg11.dtd">
<!-- Generated by graphviz version 2.43.0 (0)
 -->
<!-- Title: AbstractPokitServicePrivate::connected Pages: 1 -->
<svg width="321pt" height="380pt"
 viewBox="0.00 0.00 321.00 380.00" xmlns="http://www.w3.org/2000/svg" xmlns:xlink="http://www.w3.org/1999/xlink">
<g id="graph0" class="graph" transform="scale(1 1) rotate(0) translate(4 376)">
<title>AbstractPokitServicePrivate::connected</title>
<!-- Node1 -->
<g id="Node000001" class="node">
<title>Node1</title>
<g id="a_Node000001"><a xlink:title="Handles QLowEnergyController::connected events.">
<polygon fill="#999999" stroke="#666666" points="152,-190.5 0,-190.5 0,-160.5 152,-160.5 152,-190.5"/>
<text text-anchor="start" x="8" y="-178.5" font-family="Helvetica,sans-Serif" font-size="10.00">AbstractPokitServicePrivate</text>
<text text-anchor="middle" x="76" y="-167.5" font-family="Helvetica,sans-Serif" font-size="10.00">::connected</text>
</a>
</g>
</g>
<!-- Node2 -->
<g id="Node000002" class="node">
<title>Node2</title>
<g id="a_Node000002"><a target="_parent" xlink:href="https://doc.qt.io/qt-5/qstring.html#arg-1" xlink:title=" ">
<polygon fill="white" stroke="#666666" points="287.5,-372 213.5,-372 213.5,-353 287.5,-353 287.5,-372"/>
<text text-anchor="middle" x="250.5" y="-360" font-family="Helvetica,sans-Serif" font-size="10.00">QString::arg</text>
</a>
</g>
</g>
<!-- Node1&#45;&gt;Node2 -->
<g id="edge1_Node000001_Node000002" class="edge">
<title>Node1&#45;&gt;Node2</title>
<g id="a_edge1_Node000001_Node000002"><a xlink:title=" ">
<path fill="none" stroke="#63b8ff" d="M82.78,-190.57C96.14,-223.4 132.34,-301.77 188,-343.5 193.22,-347.41 199.25,-350.53 205.46,-353.01"/>
<polygon fill="#63b8ff" stroke="#63b8ff" points="213.37,-355.82 204.63,-356.53 209.6,-354.48 205.83,-353.14 205.83,-353.14 205.83,-353.14 209.6,-354.48 207.04,-349.75 213.37,-355.82 213.37,-355.82"/>
</a>
</g>
</g>
<!-- Node3 -->
<g id="Node000003" class="node">
<title>Node3</title>
<g id="a_Node000003"><a target="_parent" xlink:href="https://doc.qt.io/qt-5/qlowenergycontroller.html#discoverServices" xlink:title=" ">
<polygon fill="white" stroke="#666666" points="313,-334.5 188,-334.5 188,-304.5 313,-304.5 313,-334.5"/>
<text text-anchor="start" x="196" y="-322.5" font-family="Helvetica,sans-Serif" font-size="10.00">QLowEnergyController</text>
<text text-anchor="middle" x="250.5" y="-311.5" font-family="Helvetica,sans-Serif" font-size="10.00">::discoverServices</text>
</a>
</g>
</g>
<!-- Node1&#45;&gt;Node3 -->
<g id="edge2_Node000001_Node000003" class="edge">
<title>Node1&#45;&gt;Node3</title>
<g id="a_edge2_Node000001_Node000003"><a xlink:title=" ">
<path fill="none" stroke="#63b8ff" d="M87.58,-190.84C105.55,-215.9 144.38,-265.77 188,-295.5 190.77,-297.39 193.71,-299.16 196.75,-300.81"/>
<polygon fill="#63b8ff" stroke="#63b8ff" points="203.96,-304.46 195.2,-304.06 200.39,-302.66 196.82,-300.85 196.82,-300.85 196.82,-300.85 200.39,-302.66 198.45,-297.64 203.96,-304.46 203.96,-304.46"/>
</a>
</g>
</g>
<!-- Node4 -->
<g id="Node000004" class="node">
<title>Node4</title>
<g id="a_Node000004"><a target="_parent" xlink:href="https://doc.qt.io/qt-5/qlowenergycontroller.html#remoteAddress" xlink:title=" ">
<polygon fill="white" stroke="#666666" points="313,-286.5 188,-286.5 188,-256.5 313,-256.5 313,-286.5"/>
<text text-anchor="start" x="196" y="-274.5" font-family="Helvetica,sans-Serif" font-size="10.00">QLowEnergyController</text>
<text text-anchor="middle" x="250.5" y="-263.5" font-family="Helvetica,sans-Serif" font-size="10.00">::remoteAddress</text>
</a>
</g>
</g>
<!-- Node1&#45;&gt;Node4 -->
<g id="edge3_Node000001_Node000004" class="edge">
<title>Node1&#45;&gt;Node4</title>
<g id="a_edge3_Node000001_Node000004"><a xlink:title=" ">
<path fill="none" stroke="#63b8ff" d="M97.51,-190.63C119.23,-206.2 154.89,-230.52 188,-247.5 191.89,-249.49 195.98,-251.43 200.14,-253.27"/>
<polygon fill="#63b8ff" stroke="#63b8ff" points="207.64,-256.49 198.87,-256.64 203.96,-254.91 200.29,-253.34 200.29,-253.34 200.29,-253.34 203.96,-254.91 201.71,-250.03 207.64,-256.49 207.64,-256.49"/>
</a>
</g>
</g>
<!-- Node5 -->
<g id="Node000005" class="node">
<title>Node5</title>
<g id="a_Node000005"><a target="_parent" xlink:href="https://doc.qt.io/qt-5/qlowenergycontroller.html#remoteDeviceUuid" xlink:title=" ">
<polygon fill="white" stroke="#666666" points="313,-238.5 188,-238.5 188,-208.5 313,-208.5 313,-238.5"/>
<text text-anchor="start" x="196" y="-226.5" font-family="Helvetica,sans-Serif" font-size="10.00">QLowEnergyController</text>
<text text-anchor="middle" x="250.5" y="-215.5" font-family="Helvetica,sans-Serif" font-size="10.00">::remoteDeviceUuid</text>
</a>
</g>
</g>
<!-- Node1&#45;&gt;Node5 -->
<g id="edge4_Node000001_Node000005" class="edge">
<title>Node1&#45;&gt;Node5</title>
<g id="a_edge4_Node000001_Node000005"><a xlink:title=" ">
<path fill="none" stroke="#63b8ff" d="M131.11,-190.56C149.09,-195.56 169.25,-201.17 187.76,-206.32"/>
<polygon fill="#63b8ff" stroke="#63b8ff" points="195.59,-208.5 186.91,-209.82 191.73,-207.43 187.88,-206.35 187.88,-206.35 187.88,-206.35 191.73,-207.43 188.84,-202.88 195.59,-208.5 195.59,-208.5"/>
</a>
</g>
</g>
<!-- Node6 -->
<g id="Node000006" class="node">
<title>Node6</title>
<g id="a_Node000006"><a target="_parent" xlink:href="https://doc.qt.io/qt-5/qlowenergycontroller.html#remoteName" xlink:title=" ">
<polygon fill="white" stroke="#666666" points="313,-190.5 188,-190.5 188,-160.5 313,-160.5 313,-190.5"/>
<text text-anchor="start" x="196" y="-178.5" font-family="Helvetica,sans-Serif" font-size="10.00">QLowEnergyController</text>
<text text-anchor="middle" x="250.5" y="-167.5" font-family="Helvetica,sans-Serif" font-size="10.00">::remoteName</text>
</a>
</g>
</g>
<!-- Node1&#45;&gt;Node6 -->
<g id="edge5_Node000001_Node000006" class="edge">
<title>Node1&#45;&gt;Node6</title>
<g id="a_edge5_Node000001_Node000006"><a xlink:title=" ">
<path fill="none" stroke="#63b8ff" d="M152.16,-175.5C161.27,-175.5 170.54,-175.5 179.57,-175.5"/>
<polygon fill="#63b8ff" stroke="#63b8ff" points="187.77,-175.5 179.77,-179.1 183.77,-175.5 179.77,-175.5 179.77,-175.5 179.77,-175.5 183.77,-175.5 179.77,-171.9 187.77,-175.5 187.77,-175.5"/>
</a>
</g>
</g>
<!-- Node7 -->
<g id="Node000007" class="node">
<title>Node7</title>
<g id="a_Node000007"><a target="_parent" xlink:href="https://doc.qt.io/qt-5/qobject.html#sender" xlink:title=" ">
<polygon fill="white" stroke="#666666" points="298,-142 203,-142 203,-123 298,-123 298,-142"/>
<text text-anchor="middle" x="250.5" y="-130" font-family="Helvetica,sans-Serif" font-size="10.00">QObject::sender</text>
</a>
</g>
</g>
<!-- Node1&#45;&gt;Node7 -->
<g id="edge6_Node000001_Node000007" class="edge">
<title>Node1&#45;&gt;Node7</title>
<g id="a_edge6_Node000001_Node000007"><a xlink:title=" ">
<path fill="none" stroke="#63b8ff" d="M137.33,-160.46C159.03,-155.05 183.15,-149.04 203.44,-143.98"/>
<polygon fill="#63b8ff" stroke="#63b8ff" points="211.3,-142.02 204.41,-147.45 207.42,-142.99 203.54,-143.96 203.54,-143.96 203.54,-143.96 207.42,-142.99 202.67,-140.46 211.3,-142.02 211.3,-142.02"/>
</a>
</g>
</g>
<!-- Node8 -->
<g id="Node000008" class="node">
<title>Node8</title>
<g id="a_Node000008"><a target="_parent" xlink:href="https://doc.qt.io/qt-5/qbluetoothaddress.html#toString" xlink:title=" ">
<polygon fill="white" stroke="#666666" points="308.5,-104.5 192.5,-104.5 192.5,-74.5 308.5,-74.5 308.5,-104.5"/>
<text text-anchor="start" x="200.5" y="-92.5" font-family="Helvetica,sans-Serif" font-size="10.00">QBluetoothAddress::</text>
<text text-anchor="middle" x="250.5" y="-81.5" font-family="Helvetica,sans-Serif" font-size="10.00">toString</text>
</a>
</g>
</g>
<!-- Node1&#45;&gt;Node8 -->
<g id="edge7_Node000001_Node000008" class="edge">
<title>Node1&#45;&gt;Node8</title>
<g id="a_edge7_Node000001_Node000008"><a xlink:title=" ">
<path fill="none" stroke="#63b8ff" d="M102.57,-160.33C124.79,-147.43 158.02,-128.77 188,-114.5 192.82,-112.2 197.92,-109.92 203.03,-107.72"/>
<polygon fill="#63b8ff" stroke="#63b8ff" points="210.49,-104.56 204.52,-110.99 206.81,-106.12 203.12,-107.68 203.12,-107.68 203.12,-107.68 206.81,-106.12 201.72,-104.36 210.49,-104.56 210.49,-104.56"/>
</a>
</g>
</g>
<!-- Node9 -->
<g id="Node000009" class="node">
<title>Node9</title>
<g id="a_Node000009"><a target="_parent" xlink:href="https://doc.qt.io/qt-5/quuid.html#toString" xlink:title=" ">
<polygon fill="white" stroke="#666666" points="296,-56 205,-56 205,-37 296,-37 296,-56"/>
<text text-anchor="middle" x="250.5" y="-44" font-family="Helvetica,sans-Serif" font-size="10.00">QUuid::toString</text>
</a>
</g>
</g>
<!-- Node1&#45;&gt;Node9 -->
<g id="edge8_Node000001_Node000009" class="edge">
<title>Node1&#45;&gt;Node9</title>
<g id="a_edge8_Node000001_Node000009"><a xlink:title=" ">
<path fill="none" stroke="#63b8ff" d="M88.24,-160.38C106.58,-136.77 145.19,-91.18 188,-65.5 192.05,-63.07 196.44,-60.92 200.95,-59.03"/>
<polygon fill="#63b8ff" stroke="#63b8ff" points="208.61,-56.09 202.43,-62.32 204.87,-57.53 201.14,-58.96 201.14,-58.96 201.14,-58.96 204.87,-57.53 199.85,-55.6 208.61,-56.09 208.61,-56.09"/>
</a>
</g>
</g>
<!-- Node10 -->
<g id="Node000010" class="node">
<title>Node10</title>
<g id="a_Node000010"><a target="_parent" xlink:href="https://doc.qt.io/qt-5/qobject.html#tr" xlink:title=" ">
<polygon fill="white" stroke="#666666" points="285,-19 216,-19 216,0 285,0 285,-19"/>
<text text-anchor="middle" x="250.5" y="-7" font-family="Helvetica,sans-Serif" font-size="10.00">QObject::tr</text>
</a>
</g>
</g>
<!-- Node1&#45;&gt;Node10 -->
<g id="edge9_Node000001_Node000010" class="edge">
<title>Node1&#45;&gt;Node10</title>
<g id="a_edge9_Node000001_Node000010"><a xlink:title=" ">
<path fill="none" stroke="#63b8ff" d="M84.44,-160.08C99.66,-130.18 137.21,-64.13 188,-28.5 194.05,-24.26 201.07,-20.94 208.16,-18.35"/>
<polygon fill="#63b8ff" stroke="#63b8ff" points="215.84,-15.82 209.37,-21.74 212.05,-17.07 208.25,-18.32 208.25,-18.32 208.25,-18.32 212.05,-17.07 207.12,-14.9 215.84,-15.82 215.84,-15.82"/>
</a>
</g>
</g>
</g>
</svg>
