<?xml version="1.0" encoding="UTF-8" standalone="no"?>
<!DOCTYPE svg PUBLIC "-//W3C//DTD SVG 1.1//EN"
 "http://www.w3.org/Graphics/SVG/1.1/DTD/svg11.dtd">
<!-- Generated by graphviz version 2.43.0 (0)
 -->
<!-- Title: MultimeterService::MultimeterService Pages: 1 -->
<svg width="860pt" height="268pt"
 viewBox="0.00 0.00 860.00 268.00" xmlns="http://www.w3.org/2000/svg" xmlns:xlink="http://www.w3.org/1999/xlink">
<g id="graph0" class="graph" transform="scale(1 1) rotate(0) translate(4 264)">
<title>MultimeterService::MultimeterService</title>
<!-- Node1 -->
<g id="Node000001" class="node">
<title>Node1</title>
<g id="a_Node000001"><a xlink:title="Constructs a new Pokit service with parent.">
<polygon fill="#999999" stroke="#666666" points="852,-142 739,-142 739,-112 852,-112 852,-142"/>
<text text-anchor="start" x="747" y="-130" font-family="Helvetica,sans-Serif" font-size="10.00">MultimeterService::</text>
<text text-anchor="middle" x="795.5" y="-119" font-family="Helvetica,sans-Serif" font-size="10.00">MultimeterService</text>
</a>
</g>
</g>
<!-- Node2 -->
<g id="Node000002" class="node">
<title>Node2</title>
<g id="a_Node000002"><a xlink:href="classMultimeterService.html#ae51553919b7d659cf6d0ce1210503555" target="_top" xlink:title="Disables client&#45;side notifications of meter readings.">
<polygon fill="white" stroke="#666666" points="703,-260 550,-260 550,-230 703,-230 703,-260"/>
<text text-anchor="start" x="558" y="-248" font-family="Helvetica,sans-Serif" font-size="10.00">MultimeterService::</text>
<text text-anchor="middle" x="626.5" y="-237" font-family="Helvetica,sans-Serif" font-size="10.00">disableReadingNotifications</text>
</a>
</g>
</g>
<!-- Node1&#45;&gt;Node2 -->
<g id="edge1_Node000001_Node000002" class="edge">
<title>Node1&#45;&gt;Node2</title>
<g id="a_edge1_Node000001_Node000002"><a xlink:title=" ">
<path fill="none" stroke="#63b8ff" d="M778.54,-148.78C761.89,-170.03 733.95,-201.88 703,-221 697.5,-224.4 691.48,-227.36 685.3,-229.92"/>
<polygon fill="#63b8ff" stroke="#63b8ff" points="783.54,-142.28 781.51,-150.81 781.1,-145.45 778.66,-148.62 778.66,-148.62 778.66,-148.62 781.1,-145.45 775.81,-146.43 783.54,-142.28 783.54,-142.28"/>
</a>
</g>
</g>
<!-- Node3 -->
<g id="Node000003" class="node">
<title>Node3</title>
<g id="a_Node000003"><a xlink:href="classMultimeterService.html#a321c4fdade8d934ac2e1daec3be174fb" target="_top" xlink:title="Enables client&#45;side notifications of meter readings.">
<polygon fill="white" stroke="#666666" points="702,-212 551,-212 551,-182 702,-182 702,-212"/>
<text text-anchor="start" x="559" y="-200" font-family="Helvetica,sans-Serif" font-size="10.00">MultimeterService::</text>
<text text-anchor="middle" x="626.5" y="-189" font-family="Helvetica,sans-Serif" font-size="10.00">enableReadingNotifications</text>
</a>
</g>
</g>
<!-- Node1&#45;&gt;Node3 -->
<g id="edge2_Node000001_Node000003" class="edge">
<title>Node1&#45;&gt;Node3</title>
<g id="a_edge2_Node000001_Node000003"><a xlink:title=" ">
<path fill="none" stroke="#63b8ff" d="M759.94,-146C743.06,-154.86 722.28,-165.15 703,-173 695.23,-176.16 686.88,-179.18 678.66,-181.95"/>
<polygon fill="#63b8ff" stroke="#63b8ff" points="767.4,-142.05 762.02,-148.97 763.86,-143.92 760.33,-145.79 760.33,-145.79 760.33,-145.79 763.86,-143.92 758.64,-142.61 767.4,-142.05 767.4,-142.05"/>
</a>
</g>
</g>
<!-- Node4 -->
<g id="Node000004" class="node">
<title>Node4</title>
<g id="a_Node000004"><a xlink:href="classMultimeterService.html#ad7623c59f41fc099bebd3447637a904e" target="_top" xlink:title="Returns the most recent value of the Multimeter service&#39;s Reading characteristic.">
<polygon fill="white" stroke="#666666" points="683,-164 570,-164 570,-134 683,-134 683,-164"/>
<text text-anchor="start" x="578" y="-152" font-family="Helvetica,sans-Serif" font-size="10.00">MultimeterService::</text>
<text text-anchor="middle" x="626.5" y="-141" font-family="Helvetica,sans-Serif" font-size="10.00">reading</text>
</a>
</g>
</g>
<!-- Node1&#45;&gt;Node4 -->
<g id="edge3_Node000001_Node000004" class="edge">
<title>Node1&#45;&gt;Node4</title>
<g id="a_edge3_Node000001_Node000004"><a xlink:title=" ">
<path fill="none" stroke="#63b8ff" d="M730.79,-135.39C715.1,-137.46 698.42,-139.66 683.15,-141.67"/>
<polygon fill="#63b8ff" stroke="#63b8ff" points="738.89,-134.33 731.43,-138.94 734.93,-134.85 730.96,-135.37 730.96,-135.37 730.96,-135.37 734.93,-134.85 730.49,-131.8 738.89,-134.33 738.89,-134.33"/>
</a>
</g>
</g>
<!-- Node5 -->
<g id="Node000005" class="node">
<title>Node5</title>
<g id="a_Node000005"><a xlink:href="classMultimeterService.html#a713bc310057b845399ed495ad5df2663" target="_top" xlink:title="This signal is emitted when the Reading characteristic has been read successfully.">
<polygon fill="white" stroke="#666666" points="514,-145 401,-145 401,-115 514,-115 514,-145"/>
<text text-anchor="start" x="409" y="-133" font-family="Helvetica,sans-Serif" font-size="10.00">MultimeterService::</text>
<text text-anchor="middle" x="457.5" y="-122" font-family="Helvetica,sans-Serif" font-size="10.00">readingRead</text>
</a>
</g>
</g>
<!-- Node1&#45;&gt;Node5 -->
<g id="edge7_Node000001_Node000005" class="edge">
<title>Node1&#45;&gt;Node5</title>
<g id="a_edge7_Node000001_Node000005"><a xlink:title=" ">
<path fill="none" stroke="#63b8ff" d="M730.61,-125.24C681.27,-124.18 611.3,-123.33 550,-125 538.39,-125.32 525.96,-125.86 514.13,-126.47"/>
<polygon fill="#63b8ff" stroke="#63b8ff" points="738.65,-125.42 730.57,-128.84 734.65,-125.33 730.65,-125.24 730.65,-125.24 730.65,-125.24 734.65,-125.33 730.73,-121.64 738.65,-125.42 738.65,-125.42"/>
</a>
</g>
</g>
<!-- Node8 -->
<g id="Node000008" class="node">
<title>Node8</title>
<g id="a_Node000008"><a xlink:href="classMultimeterService.html#a818612a809f2addc659b44bc537c4428" target="_top" xlink:title="Read the Multimeter service&#39;s Reading characteristic.">
<polygon fill="white" stroke="#666666" points="699.5,-78 553.5,-78 553.5,-48 699.5,-48 699.5,-78"/>
<text text-anchor="start" x="561.5" y="-66" font-family="Helvetica,sans-Serif" font-size="10.00">MultimeterService::</text>
<text text-anchor="middle" x="626.5" y="-55" font-family="Helvetica,sans-Serif" font-size="10.00">readReadingCharacteristic</text>
</a>
</g>
</g>
<!-- Node1&#45;&gt;Node8 -->
<g id="edge8_Node000001_Node000008" class="edge">
<title>Node1&#45;&gt;Node8</title>
<g id="a_edge8_Node000001_Node000008"><a xlink:title=" ">
<path fill="none" stroke="#63b8ff" d="M747.62,-109.04C722.11,-99.26 690.91,-87.3 666.7,-78.02"/>
<polygon fill="#63b8ff" stroke="#63b8ff" points="755.35,-111.99 746.59,-112.49 751.61,-110.56 747.88,-109.13 747.88,-109.13 747.88,-109.13 751.61,-110.56 749.16,-105.77 755.35,-111.99 755.35,-111.99"/>
</a>
</g>
</g>
<!-- Node10 -->
<g id="Node000010" class="node">
<title>Node10</title>
<g id="a_Node000010"><a xlink:href="classMultimeterService.html#ab459a9db42aed973bbc18a2bc9fcd957" target="_top" xlink:title="Configures the Pokit device&#39;s multimeter mode.">
<polygon fill="white" stroke="#666666" points="683,-30 570,-30 570,0 683,0 683,-30"/>
<text text-anchor="start" x="578" y="-18" font-family="Helvetica,sans-Serif" font-size="10.00">MultimeterService::</text>
<text text-anchor="middle" x="626.5" y="-7" font-family="Helvetica,sans-Serif" font-size="10.00">setSettings</text>
</a>
</g>
</g>
<!-- Node1&#45;&gt;Node10 -->
<g id="edge10_Node000001_Node000010" class="edge">
<title>Node1&#45;&gt;Node10</title>
<g id="a_edge10_Node000001_Node000010"><a xlink:title=" ">
<path fill="none" stroke="#63b8ff" d="M777.15,-105.38C760.18,-85.54 732.61,-56.62 703,-39 696.85,-35.34 690.09,-32.18 683.21,-29.46"/>
<polygon fill="#63b8ff" stroke="#63b8ff" points="782.49,-111.73 774.59,-107.93 779.92,-108.67 777.35,-105.61 777.35,-105.61 777.35,-105.61 779.92,-108.67 780.1,-103.29 782.49,-111.73 782.49,-111.73"/>
</a>
</g>
</g>
<!-- Node4&#45;&gt;Node5 -->
<g id="edge4_Node000004_Node000005" class="edge">
<title>Node4&#45;&gt;Node5</title>
<g id="a_edge4_Node000004_Node000005"><a xlink:title=" ">
<path fill="none" stroke="#63b8ff" d="M561.79,-141.75C546.1,-139.97 529.42,-138.07 514.15,-136.33"/>
<polygon fill="#63b8ff" stroke="#63b8ff" points="569.89,-142.67 561.54,-145.35 565.92,-142.22 561.94,-141.77 561.94,-141.77 561.94,-141.77 565.92,-142.22 562.35,-138.19 569.89,-142.67 569.89,-142.67"/>
</a>
</g>
</g>
<!-- Node6 -->
<g id="Node000006" class="node">
<title>Node6</title>
<g id="a_Node000006"><a xlink:href="classMeterCommand.html#a994e13d73c26eac303fa34b14082c9a4" target="_top" xlink:title="Invoked when the multimeter settings have been written, to begin reading the meter values.">
<polygon fill="white" stroke="#666666" points="365,-139.5 189,-139.5 189,-120.5 365,-120.5 365,-139.5"/>
<text text-anchor="middle" x="277" y="-127.5" font-family="Helvetica,sans-Serif" font-size="10.00">MeterCommand::settingsWritten</text>
</a>
</g>
</g>
<!-- Node5&#45;&gt;Node6 -->
<g id="edge5_Node000005_Node000006" class="edge">
<title>Node5&#45;&gt;Node6</title>
<g id="a_edge5_Node000005_Node000006"><a xlink:title=" ">
<path fill="none" stroke="#63b8ff" d="M392.88,-130C383.92,-130 374.57,-130 365.26,-130"/>
<polygon fill="#63b8ff" stroke="#63b8ff" points="401,-130 393,-133.6 397,-130 393,-130 393,-130 393,-130 397,-130 393,-126.4 401,-130 401,-130"/>
</a>
</g>
</g>
<!-- Node7 -->
<g id="Node000007" class="node">
<title>Node7</title>
<g id="a_Node000007"><a xlink:href="classMeterCommand.html#abdc90c9cd480caa8ad04281c49a1e9a4" target="_top" xlink:title="Returns a Pokit service object for the derived command class.">
<polygon fill="white" stroke="#666666" points="153,-139.5 0,-139.5 0,-120.5 153,-120.5 153,-139.5"/>
<text text-anchor="middle" x="76.5" y="-127.5" font-family="Helvetica,sans-Serif" font-size="10.00">MeterCommand::getService</text>
</a>
</g>
</g>
<!-- Node6&#45;&gt;Node7 -->
<g id="edge6_Node000006_Node000007" class="edge">
<title>Node6&#45;&gt;Node7</title>
<g id="a_edge6_Node000006_Node000007"><a xlink:title=" ">
<path fill="none" stroke="#63b8ff" d="M180.84,-130C171.6,-130 162.31,-130 153.29,-130"/>
<polygon fill="#63b8ff" stroke="#63b8ff" points="188.94,-130 180.94,-133.6 184.94,-130 180.94,-130 180.94,-130 180.94,-130 184.94,-130 180.93,-126.4 188.94,-130 188.94,-130"/>
</a>
</g>
</g>
<!-- Node9 -->
<g id="Node000009" class="node">
<title>Node9</title>
<g id="a_Node000009"><a xlink:href="classMultimeterService.html#a58831d3ca3e6df355fcd6fd1bb8d5e68" target="_top" xlink:title="Read all characteristics.">
<polygon fill="white" stroke="#666666" points="514,-78 401,-78 401,-48 514,-48 514,-78"/>
<text text-anchor="start" x="409" y="-66" font-family="Helvetica,sans-Serif" font-size="10.00">MultimeterService::</text>
<text text-anchor="middle" x="457.5" y="-55" font-family="Helvetica,sans-Serif" font-size="10.00">readCharacteristics</text>
</a>
</g>
</g>
<!-- Node8&#45;&gt;Node9 -->
<g id="edge9_Node000008_Node000009" class="edge">
<title>Node8&#45;&gt;Node9</title>
<g id="a_edge9_Node000008_Node000009"><a xlink:title=" ">
<path fill="none" stroke="#63b8ff" d="M545.18,-63C534.64,-63 524.03,-63 514.02,-63"/>
<polygon fill="#63b8ff" stroke="#63b8ff" points="553.22,-63 545.22,-66.6 549.22,-63 545.22,-63 545.22,-63 545.22,-63 549.22,-63 545.22,-59.4 553.22,-63 553.22,-63"/>
</a>
</g>
</g>
</g>
</svg>
