<?xml version="1.0" encoding="UTF-8" standalone="no"?>
<!DOCTYPE svg PUBLIC "-//W3C//DTD SVG 1.1//EN"
 "http://www.w3.org/Graphics/SVG/1.1/DTD/svg11.dtd">
<!-- Generated by graphviz version 2.43.0 (0)
 -->
<!-- Title: StatusServicePrivate::parseTorchStatus Pages: 1 -->
<svg width="307pt" height="38pt"
 viewBox="0.00 0.00 307.00 38.00" xmlns="http://www.w3.org/2000/svg" xmlns:xlink="http://www.w3.org/1999/xlink">
<g id="graph0" class="graph" transform="scale(1 1) rotate(0) translate(4 34)">
<title>StatusServicePrivate::parseTorchStatus</title>
<!-- Node1 -->
<g id="Node000001" class="node">
<title>Node1</title>
<g id="a_Node000001"><a xlink:title="Parses the torch status value, and returns the corresponding TorchStatus.">
<polygon fill="#999999" stroke="#666666" points="299,-30 181,-30 181,0 299,0 299,-30"/>
<text text-anchor="start" x="189" y="-18" font-family="Helvetica,sans-Serif" font-size="10.00">StatusServicePrivate</text>
<text text-anchor="middle" x="240" y="-7" font-family="Helvetica,sans-Serif" font-size="10.00">::parseTorchStatus</text>
</a>
</g>
</g>
<!-- Node2 -->
<g id="Node000002" class="node">
<title>Node2</title>
<g id="a_Node000002"><a xlink:href="classStatusService.html#acb4787284fb5314ee2085421ad4c1d36" target="_top" xlink:title="Returns the most recent value of the Status services&#39;s Torch characteristic.">
<polygon fill="white" stroke="#666666" points="145,-24.5 0,-24.5 0,-5.5 145,-5.5 145,-24.5"/>
<text text-anchor="middle" x="72.5" y="-12.5" font-family="Helvetica,sans-Serif" font-size="10.00">StatusService::torchStatus</text>
</a>
</g>
</g>
<!-- Node1&#45;&gt;Node2 -->
<g id="edge1_Node000001_Node000002" class="edge">
<title>Node1&#45;&gt;Node2</title>
<g id="a_edge1_Node000001_Node000002"><a xlink:title=" ">
<path fill="none" stroke="#63b8ff" d="M172.5,-15C163.53,-15 154.3,-15 145.25,-15"/>
<polygon fill="#63b8ff" stroke="#63b8ff" points="180.65,-15 172.65,-18.6 176.65,-15 172.65,-15 172.65,-15 172.65,-15 176.65,-15 172.65,-11.4 180.65,-15 180.65,-15"/>
</a>
</g>
</g>
</g>
</svg>
