<?xml version="1.0" encoding="UTF-8" standalone="no"?>
<!DOCTYPE svg PUBLIC "-//W3C//DTD SVG 1.1//EN"
 "http://www.w3.org/Graphics/SVG/1.1/DTD/svg11.dtd">
<!-- Generated by graphviz version 2.43.0 (0)
 -->
<!-- Title: SetNameCommand Pages: 1 -->
<svg width="1210pt" height="665pt"
 viewBox="0.00 0.00 1210.00 664.88" xmlns="http://www.w3.org/2000/svg" xmlns:xlink="http://www.w3.org/1999/xlink">
<g id="graph0" class="graph" transform="scale(1 1) rotate(0) translate(4 660.88)">
<title>SetNameCommand</title>
<!-- Node1 -->
<g id="Node000001" class="node">
<title>Node1</title>
<g id="a_Node000001"><a xlink:title="The SetNameCommand class implements the set&#45;name CLI command.">
<polygon fill="#999999" stroke="#666666" points="1202,-553.3 1090,-553.3 1090,-534.3 1202,-534.3 1202,-553.3"/>
<text text-anchor="middle" x="1146" y="-541.3" font-family="Helvetica,sans-Serif" font-size="10.00">SetNameCommand</text>
</a>
</g>
</g>
<!-- Node2 -->
<g id="Node000002" class="node">
<title>Node2</title>
<g id="a_Node000002"><a xlink:href="classDeviceCommand.html" target="_top" xlink:title="The AbstractCommand class extends AbstractCommand to add a PokitDevice instance.">
<polygon fill="white" stroke="#666666" points="964,-553.3 863,-553.3 863,-534.3 964,-534.3 964,-553.3"/>
<text text-anchor="middle" x="913.5" y="-541.3" font-family="Helvetica,sans-Serif" font-size="10.00">DeviceCommand</text>
</a>
</g>
</g>
<!-- Node2&#45;&gt;Node1 -->
<g id="edge1_Node000001_Node000002" class="edge">
<title>Node2&#45;&gt;Node1</title>
<g id="a_edge1_Node000001_Node000002"><a xlink:title=" ">
<path fill="none" stroke="#63b8ff" d="M972.66,-543.8C1008.56,-543.8 1054.35,-543.8 1089.7,-543.8"/>
<polygon fill="#63b8ff" stroke="#63b8ff" points="964.23,-543.8 972.23,-540.2 968.23,-543.8 972.23,-543.8 972.23,-543.8 972.23,-543.8 968.23,-543.8 972.23,-547.4 964.23,-543.8 964.23,-543.8"/>
</a>
</g>
</g>
<!-- Node3 -->
<g id="Node000003" class="node">
<title>Node3</title>
<g id="a_Node000003"><a xlink:href="classAbstractCommand.html" target="_top" xlink:title="The AbstractCommand class provides a consistent base for the classes that implement CLI commands.">
<polygon fill="white" stroke="#666666" points="747,-608.3 640,-608.3 640,-589.3 747,-589.3 747,-608.3"/>
<text text-anchor="middle" x="693.5" y="-596.3" font-family="Helvetica,sans-Serif" font-size="10.00">AbstractCommand</text>
</a>
</g>
</g>
<!-- Node3&#45;&gt;Node2 -->
<g id="edge2_Node000002_Node000003" class="edge">
<title>Node3&#45;&gt;Node2</title>
<g id="a_edge2_Node000002_Node000003"><a xlink:title=" ">
<path fill="none" stroke="#63b8ff" d="M740.45,-587.21C780.31,-577.15 837.3,-562.77 874.6,-553.36"/>
<polygon fill="#63b8ff" stroke="#63b8ff" points="732.47,-589.22 739.35,-583.77 736.35,-588.24 740.23,-587.26 740.23,-587.26 740.23,-587.26 736.35,-588.24 741.11,-590.75 732.47,-589.22 732.47,-589.22"/>
</a>
</g>
</g>
<!-- Node4 -->
<g id="Node000004" class="node">
<title>Node4</title>
<g id="a_Node000004"><a target="_parent" xlink:href="https://doc.qt.io/qt-5/qobject.html" xlink:title=" ">
<polygon fill="white" stroke="#bfbfbf" points="56,-424.3 0,-424.3 0,-405.3 56,-405.3 56,-424.3"/>
<text text-anchor="middle" x="28" y="-412.3" font-family="Helvetica,sans-Serif" font-size="10.00">QObject</text>
</a>
</g>
</g>
<!-- Node4&#45;&gt;Node3 -->
<g id="edge3_Node000003_Node000004" class="edge">
<title>Node4&#45;&gt;Node3</title>
<g id="a_edge3_Node000003_Node000004"><a xlink:title=" ">
<path fill="none" stroke="#63b8ff" d="M31.66,-432.81C37.25,-464.3 53.17,-529.48 93,-565.8 179.52,-644.68 228.31,-627.81 344,-645.8 456.13,-663.24 488.7,-659.46 599,-632.8 624.18,-626.71 651.96,-616.09 670.64,-608.33"/>
<polygon fill="#63b8ff" stroke="#63b8ff" points="30.29,-424.53 35.15,-431.83 30.94,-428.47 31.59,-432.42 31.59,-432.42 31.59,-432.42 30.94,-428.47 28.04,-433.01 30.29,-424.53 30.29,-424.53"/>
</a>
</g>
</g>
<!-- Node7 -->
<g id="Node000007" class="node">
<title>Node7</title>
<g id="a_Node000007"><a target="_parent" xlink:href="https://doc.qt.io/qt-5/qbluetoothdevicediscoveryagent.html" xlink:title=" ">
<polygon fill="white" stroke="#bfbfbf" points="247,-556.8 93,-556.8 93,-526.8 247,-526.8 247,-556.8"/>
<text text-anchor="start" x="101" y="-544.8" font-family="Helvetica,sans-Serif" font-size="10.00">QBluetoothDeviceDiscovery</text>
<text text-anchor="middle" x="170" y="-533.8" font-family="Helvetica,sans-Serif" font-size="10.00">Agent</text>
</a>
</g>
</g>
<!-- Node4&#45;&gt;Node7 -->
<g id="edge7_Node000007_Node000004" class="edge">
<title>Node4&#45;&gt;Node7</title>
<g id="a_edge7_Node000007_Node000004"><a xlink:title=" ">
<path fill="none" stroke="#63b8ff" d="M33.51,-432.07C39.58,-452.11 52.2,-484.92 74,-504.8 84.33,-514.22 97.34,-521.35 110.38,-526.71"/>
<polygon fill="#63b8ff" stroke="#63b8ff" points="31.31,-424.34 36.97,-431.05 32.41,-428.19 33.5,-432.03 33.5,-432.03 33.5,-432.03 32.41,-428.19 30.04,-433.02 31.31,-424.34 31.31,-424.34"/>
</a>
</g>
</g>
<!-- Node8 -->
<g id="Node000008" class="node">
<title>Node8</title>
<g id="a_Node000008"><a xlink:href="classPokitDiscoveryAgentPrivate.html" target="_top" xlink:title="The PokitDiscoveryAgentPrivate class provides private implementation for PokitDiscoveryAgent.">
<polygon fill="white" stroke="#666666" points="770,-529.3 617,-529.3 617,-510.3 770,-510.3 770,-529.3"/>
<text text-anchor="middle" x="693.5" y="-517.3" font-family="Helvetica,sans-Serif" font-size="10.00">PokitDiscoveryAgentPrivate</text>
</a>
</g>
</g>
<!-- Node4&#45;&gt;Node8 -->
<g id="edge9_Node000008_Node000004" class="edge">
<title>Node4&#45;&gt;Node8</title>
<g id="a_edge9_Node000008_Node000004"><a xlink:title=" ">
<path fill="none" stroke="#63b8ff" d="M38.48,-431.46C46.33,-443.52 58.66,-459.01 74,-466.8 178.39,-519.77 482.46,-498.8 599,-509.8 604.85,-510.35 610.91,-510.95 616.99,-511.56"/>
<polygon fill="#63b8ff" stroke="#63b8ff" points="34.19,-424.49 41.45,-429.41 36.29,-427.9 38.39,-431.3 38.39,-431.3 38.39,-431.3 36.29,-427.9 35.32,-433.19 34.19,-424.49 34.19,-424.49"/>
</a>
</g>
</g>
<!-- Node9 -->
<g id="Node000009" class="node">
<title>Node9</title>
<g id="a_Node000009"><a xlink:href="classPokitDevice.html" target="_top" xlink:title="The PokitDevice class simplifies Pokit device access.">
<polygon fill="white" stroke="#666666" points="731,-377.3 656,-377.3 656,-358.3 731,-358.3 731,-377.3"/>
<text text-anchor="middle" x="693.5" y="-365.3" font-family="Helvetica,sans-Serif" font-size="10.00">PokitDevice</text>
</a>
</g>
</g>
<!-- Node4&#45;&gt;Node9 -->
<g id="edge12_Node000009_Node000004" class="edge">
<title>Node4&#45;&gt;Node9</title>
<g id="a_edge12_Node000009_Node000004"><a xlink:title=" ">
<path fill="none" stroke="#63b8ff" d="M63.46,-402.91C72.93,-400.1 83.27,-397.45 93,-395.8 303.6,-360.16 561.34,-363.64 655.68,-366.45"/>
<polygon fill="#63b8ff" stroke="#63b8ff" points="55.75,-405.28 62.34,-399.49 59.57,-404.11 63.4,-402.93 63.4,-402.93 63.4,-402.93 59.57,-404.11 64.46,-406.37 55.75,-405.28 55.75,-405.28"/>
</a>
</g>
</g>
<!-- Node10 -->
<g id="Node000010" class="node">
<title>Node10</title>
<g id="a_Node000010"><a xlink:href="classPokitDevicePrivate.html" target="_top" xlink:title="The PokitDevicePrivate class provides private implementation for PokitDevice.">
<polygon fill="white" stroke="#666666" points="1201,-250.3 1091,-250.3 1091,-231.3 1201,-231.3 1201,-250.3"/>
<text text-anchor="middle" x="1146" y="-238.3" font-family="Helvetica,sans-Serif" font-size="10.00">PokitDevicePrivate</text>
</a>
</g>
</g>
<!-- Node4&#45;&gt;Node10 -->
<g id="edge14_Node000010_Node000004" class="edge">
<title>Node4&#45;&gt;Node10</title>
<g id="a_edge14_Node000010_Node000004"><a xlink:title=" ">
<path fill="none" stroke="#63b8ff" d="M63.43,-426.6C72.89,-429.26 83.24,-431.64 93,-432.8 168.94,-441.82 188.55,-435.66 265,-437.8 444.27,-442.8 928.94,-538.95 1072,-430.8 1132.61,-384.98 1142.9,-282.11 1144.65,-250.33"/>
<polygon fill="#63b8ff" stroke="#63b8ff" points="55.71,-424.32 64.41,-423.14 59.55,-425.45 63.39,-426.59 63.39,-426.59 63.39,-426.59 59.55,-425.45 62.37,-430.04 55.71,-424.32 55.71,-424.32"/>
</a>
</g>
</g>
<!-- Node11 -->
<g id="Node000011" class="node">
<title>Node11</title>
<g id="a_Node000011"><a target="_parent" xlink:href="https://doc.qt.io/qt-5/qlowenergycontroller.html" xlink:title=" ">
<polygon fill="white" stroke="#bfbfbf" points="232.5,-424.3 107.5,-424.3 107.5,-405.3 232.5,-405.3 232.5,-424.3"/>
<text text-anchor="middle" x="170" y="-412.3" font-family="Helvetica,sans-Serif" font-size="10.00">QLowEnergyController</text>
</a>
</g>
</g>
<!-- Node4&#45;&gt;Node11 -->
<g id="edge16_Node000011_Node000004" class="edge">
<title>Node4&#45;&gt;Node11</title>
<g id="a_edge16_Node000011_Node000004"><a xlink:title=" ">
<path fill="none" stroke="#63b8ff" d="M64.53,-414.8C77.53,-414.8 92.64,-414.8 107.26,-414.8"/>
<polygon fill="#63b8ff" stroke="#63b8ff" points="56.33,-414.8 64.33,-411.2 60.33,-414.8 64.33,-414.8 64.33,-414.8 64.33,-414.8 60.33,-414.8 64.33,-418.4 56.33,-414.8 56.33,-414.8"/>
</a>
</g>
</g>
<!-- Node13 -->
<g id="Node000013" class="node">
<title>Node13</title>
<g id="a_Node000013"><a xlink:href="classAbstractPokitService.html" target="_top" xlink:title="The AbstractPokitService class provides a common base for Pokit services classes.">
<polygon fill="white" stroke="#666666" points="752.5,-247.3 634.5,-247.3 634.5,-228.3 752.5,-228.3 752.5,-247.3"/>
<text text-anchor="middle" x="693.5" y="-235.3" font-family="Helvetica,sans-Serif" font-size="10.00">AbstractPokitService</text>
</a>
</g>
</g>
<!-- Node4&#45;&gt;Node13 -->
<g id="edge19_Node000013_Node000004" class="edge">
<title>Node4&#45;&gt;Node13</title>
<g id="a_edge19_Node000013_Node000004"><a xlink:title=" ">
<path fill="none" stroke="#63b8ff" d="M47.66,-400.24C59.92,-391.36 76.66,-380.46 93,-373.8 99.65,-371.09 592.07,-270.66 599,-268.8 622.12,-262.59 647.92,-253.9 666.55,-247.3"/>
<polygon fill="#63b8ff" stroke="#63b8ff" points="41,-405.19 45.28,-397.53 44.21,-402.8 47.42,-400.42 47.42,-400.42 47.42,-400.42 44.21,-402.8 49.57,-403.31 41,-405.19 41,-405.19"/>
</a>
</g>
</g>
<!-- Node14 -->
<g id="Node000014" class="node">
<title>Node14</title>
<g id="a_Node000014"><a xlink:href="classAbstractPokitServicePrivate.html" target="_top" xlink:title="The AbstractPokitServicePrivate class provides private implementation for AbstractPokitService.">
<polygon fill="white" stroke="#666666" points="496,-267.3 344,-267.3 344,-248.3 496,-248.3 496,-267.3"/>
<text text-anchor="middle" x="420" y="-255.3" font-family="Helvetica,sans-Serif" font-size="10.00">AbstractPokitServicePrivate</text>
</a>
</g>
</g>
<!-- Node4&#45;&gt;Node14 -->
<g id="edge21_Node000014_Node000004" class="edge">
<title>Node4&#45;&gt;Node14</title>
<g id="a_edge21_Node000014_Node000004"><a xlink:title=" ">
<path fill="none" stroke="#63b8ff" d="M31.2,-396.9C36.07,-365.81 50.91,-302.4 93,-273.8 181.81,-213.44 317.77,-233.68 382.41,-248.26"/>
<polygon fill="#63b8ff" stroke="#63b8ff" points="30.03,-405.1 27.59,-396.67 30.59,-401.14 31.16,-397.18 31.16,-397.18 31.16,-397.18 30.59,-401.14 34.72,-397.69 30.03,-405.1 30.03,-405.1"/>
</a>
</g>
</g>
<!-- Node15 -->
<g id="Node000015" class="node">
<title>Node15</title>
<g id="a_Node000015"><a target="_parent" xlink:href="https://doc.qt.io/qt-5/qlowenergyservice.html" xlink:title=" ">
<polygon fill="white" stroke="#bfbfbf" points="226.5,-302.3 113.5,-302.3 113.5,-283.3 226.5,-283.3 226.5,-302.3"/>
<text text-anchor="middle" x="170" y="-290.3" font-family="Helvetica,sans-Serif" font-size="10.00">QLowEnergyService</text>
</a>
</g>
</g>
<!-- Node4&#45;&gt;Node15 -->
<g id="edge24_Node000015_Node000004" class="edge">
<title>Node4&#45;&gt;Node15</title>
<g id="a_edge24_Node000015_Node000004"><a xlink:title=" ">
<path fill="none" stroke="#63b8ff" d="M33.36,-397.35C39.27,-377.14 51.74,-344.16 74,-324.8 86.08,-314.29 101.75,-307.2 116.86,-302.43"/>
<polygon fill="#63b8ff" stroke="#63b8ff" points="31.21,-405.15 29.86,-396.48 32.27,-401.29 33.33,-397.44 33.33,-397.44 33.33,-397.44 32.27,-401.29 36.8,-398.39 31.21,-405.15 31.21,-405.15"/>
</a>
</g>
</g>
<!-- Node5 -->
<g id="Node000005" class="node">
<title>Node5</title>
<g id="a_Node000005"><a target="_parent" xlink:href="https://doc.qt.io/qt-5/qstring.html" xlink:title=" ">
<polygon fill="white" stroke="#bfbfbf" points="446.5,-637.3 393.5,-637.3 393.5,-618.3 446.5,-618.3 446.5,-637.3"/>
<text text-anchor="middle" x="420" y="-625.3" font-family="Helvetica,sans-Serif" font-size="10.00">QString</text>
</a>
</g>
</g>
<!-- Node5&#45;&gt;Node1 -->
<g id="edge45_Node000001_Node000005" class="edge">
<title>Node5&#45;&gt;Node1</title>
<g id="a_edge45_Node000001_Node000005"><a xlink:title=" ">
<path fill="none" stroke="#9a32cd" stroke-dasharray="5,2" d="M454.82,-630.25C490.64,-632.5 548.83,-635.14 599,-632.8 675.25,-629.24 694.44,-627.66 770,-616.8 891.95,-599.27 1034.36,-568.74 1103.33,-553.31"/>
<polygon fill="#9a32cd" stroke="#9a32cd" points="446.66,-629.72 454.87,-626.65 450.65,-629.98 454.64,-630.24 454.64,-630.24 454.64,-630.24 450.65,-629.98 454.41,-633.83 446.66,-629.72 446.66,-629.72"/>
</a>
</g>
<text text-anchor="middle" x="814.5" y="-617.8" font-family="Helvetica,sans-Serif" font-size="10.00" fill="grey"> newName</text>
</g>
<!-- Node5&#45;&gt;Node3 -->
<g id="edge4_Node000003_Node000005" class="edge">
<title>Node5&#45;&gt;Node3</title>
<g id="a_edge4_Node000003_Node000005"><a xlink:title=" ">
<path fill="none" stroke="#9a32cd" stroke-dasharray="5,2" d="M454.76,-624.19C501.21,-619.23 585.27,-610.25 639.97,-604.41"/>
<polygon fill="#9a32cd" stroke="#9a32cd" points="446.54,-625.07 454.11,-620.64 450.52,-624.65 454.5,-624.22 454.5,-624.22 454.5,-624.22 450.52,-624.65 454.88,-627.8 446.54,-625.07 446.54,-625.07"/>
</a>
</g>
<text text-anchor="middle" x="556.5" y="-620.8" font-family="Helvetica,sans-Serif" font-size="10.00" fill="grey"> deviceToScanFor</text>
</g>
<!-- Node6 -->
<g id="Node000006" class="node">
<title>Node6</title>
<g id="a_Node000006"><a xlink:href="classPokitDiscoveryAgent.html" target="_top" xlink:title="The PokitDiscoveryAgent class discovers nearby Pokit devices.">
<polygon fill="white" stroke="#666666" points="479.5,-559.3 360.5,-559.3 360.5,-540.3 479.5,-540.3 479.5,-559.3"/>
<text text-anchor="middle" x="420" y="-547.3" font-family="Helvetica,sans-Serif" font-size="10.00">PokitDiscoveryAgent</text>
</a>
</g>
</g>
<!-- Node6&#45;&gt;Node3 -->
<g id="edge5_Node000003_Node000006" class="edge">
<title>Node6&#45;&gt;Node3</title>
<g id="a_edge5_Node000003_Node000006"><a xlink:title=" ">
<path fill="none" stroke="#9a32cd" stroke-dasharray="5,2" d="M481.73,-560.76C529.26,-569.34 594.68,-581.15 639.98,-589.32"/>
<polygon fill="#9a32cd" stroke="#9a32cd" points="473.67,-559.3 482.18,-557.18 477.61,-560.02 481.54,-560.73 481.54,-560.73 481.54,-560.73 477.61,-560.02 480.9,-564.27 473.67,-559.3 473.67,-559.3"/>
</a>
</g>
<text text-anchor="middle" x="556.5" y="-584.8" font-family="Helvetica,sans-Serif" font-size="10.00" fill="grey"> discoveryAgent</text>
</g>
<!-- Node6&#45;&gt;Node8 -->
<g id="edge10_Node000008_Node000006" class="edge">
<title>Node6&#45;&gt;Node8</title>
<g id="a_edge10_Node000008_Node000006"><a xlink:title=" ">
<path fill="none" stroke="#9a32cd" stroke-dasharray="5,2" d="M450.87,-537.11C468.81,-530.19 492.29,-522.32 514,-518.8 547.5,-513.36 584.99,-512.76 616.94,-513.85"/>
<polygon fill="#9a32cd" stroke="#9a32cd" points="443.04,-540.21 449.15,-533.92 446.76,-538.74 450.48,-537.26 450.48,-537.26 450.48,-537.26 446.76,-538.74 451.8,-540.61 443.04,-540.21 443.04,-540.21"/>
</a>
</g>
<text text-anchor="middle" x="556.5" y="-521.8" font-family="Helvetica,sans-Serif" font-size="10.00" fill="grey"> q_ptr</text>
</g>
<!-- Node7&#45;&gt;Node6 -->
<g id="edge6_Node000006_Node000007" class="edge">
<title>Node7&#45;&gt;Node6</title>
<g id="a_edge6_Node000006_Node000007"><a xlink:title=" ">
<path fill="none" stroke="#63b8ff" d="M255.31,-544.52C289.87,-545.63 329.03,-546.9 360.38,-547.91"/>
<polygon fill="#63b8ff" stroke="#63b8ff" points="247.09,-544.25 255.21,-540.91 251.09,-544.38 255.09,-544.51 255.09,-544.51 255.09,-544.51 251.09,-544.38 254.97,-548.11 247.09,-544.25 247.09,-544.25"/>
</a>
</g>
</g>
<!-- Node8&#45;&gt;Node6 -->
<g id="edge8_Node000006_Node000008" class="edge">
<title>Node8&#45;&gt;Node6</title>
<g id="a_edge8_Node000006_Node000008"><a xlink:title=" ">
<path fill="none" stroke="#9a32cd" stroke-dasharray="5,2" d="M611.58,-530.32C607.32,-530.83 603.11,-531.33 599,-531.8 559.19,-536.37 514.31,-540.9 479.57,-544.28"/>
<polygon fill="#9a32cd" stroke="#9a32cd" points="619.79,-529.32 612.28,-533.86 615.82,-529.81 611.84,-530.29 611.84,-530.29 611.84,-530.29 615.82,-529.81 611.41,-526.72 619.79,-529.32 619.79,-529.32"/>
</a>
</g>
<text text-anchor="middle" x="556.5" y="-543.8" font-family="Helvetica,sans-Serif" font-size="10.00" fill="grey"> d_ptr</text>
</g>
<!-- Node9&#45;&gt;Node2 -->
<g id="edge11_Node000002_Node000009" class="edge">
<title>Node9&#45;&gt;Node2</title>
<g id="a_edge11_Node000002_Node000009"><a xlink:title=" ">
<path fill="none" stroke="#9a32cd" stroke-dasharray="5,2" d="M738.79,-377.74C749.48,-381.24 760.55,-385.84 770,-391.8 833.64,-431.94 887.94,-507.19 906.06,-534"/>
<polygon fill="#9a32cd" stroke="#9a32cd" points="731.1,-375.39 739.8,-374.29 734.92,-376.56 738.75,-377.73 738.75,-377.73 738.75,-377.73 734.92,-376.56 737.69,-381.17 731.1,-375.39 731.1,-375.39"/>
</a>
</g>
<text text-anchor="middle" x="814.5" y="-453.8" font-family="Helvetica,sans-Serif" font-size="10.00" fill="grey"> device</text>
</g>
<!-- Node9&#45;&gt;Node10 -->
<g id="edge44_Node000010_Node000009" class="edge">
<title>Node9&#45;&gt;Node10</title>
<g id="a_edge44_Node000010_Node000009"><a xlink:title=" ">
<path fill="none" stroke="#9a32cd" stroke-dasharray="5,2" d="M739.41,-371.15C814.14,-374.56 966.23,-372.13 1072,-307.8 1098.46,-291.71 1123.8,-265.12 1136.51,-250.75"/>
<polygon fill="#9a32cd" stroke="#9a32cd" points="731.12,-370.73 739.29,-367.54 735.12,-370.93 739.11,-371.14 739.11,-371.14 739.11,-371.14 735.12,-370.93 738.93,-374.73 731.12,-370.73 731.12,-370.73"/>
</a>
</g>
<text text-anchor="middle" x="913.5" y="-371.8" font-family="Helvetica,sans-Serif" font-size="10.00" fill="grey"> q_ptr</text>
</g>
<!-- Node10&#45;&gt;Node9 -->
<g id="edge13_Node000009_Node000010" class="edge">
<title>Node10&#45;&gt;Node9</title>
<g id="a_edge13_Node000009_Node000010"><a xlink:title=" ">
<path fill="none" stroke="#9a32cd" stroke-dasharray="5,2" d="M1123.57,-254.59C1109.41,-263.18 1090.17,-273.88 1072,-280.8 1008.99,-304.8 813.12,-344.57 731.15,-360.69"/>
<polygon fill="#9a32cd" stroke="#9a32cd" points="1130.48,-250.32 1125.56,-257.59 1127.08,-252.43 1123.67,-254.53 1123.67,-254.53 1123.67,-254.53 1127.08,-252.43 1121.78,-251.47 1130.48,-250.32 1130.48,-250.32"/>
</a>
</g>
<text text-anchor="middle" x="913.5" y="-336.8" font-family="Helvetica,sans-Serif" font-size="10.00" fill="grey"> d_ptr</text>
</g>
<!-- Node11&#45;&gt;Node10 -->
<g id="edge15_Node000010_Node000011" class="edge">
<title>Node11&#45;&gt;Node10</title>
<g id="a_edge15_Node000010_Node000011"><a xlink:title=" ">
<path fill="none" stroke="#9a32cd" stroke-dasharray="5,2" d="M240.81,-420.23C380.71,-429.33 704.57,-441.46 968,-383.8 1016.86,-373.11 1032.68,-371.71 1072,-340.8 1105.12,-314.76 1130.32,-269.98 1140.31,-250.41"/>
<polygon fill="#9a32cd" stroke="#9a32cd" points="232.67,-419.69 240.89,-416.62 236.66,-419.95 240.65,-420.22 240.65,-420.22 240.65,-420.22 236.66,-419.95 240.41,-423.81 232.67,-419.69 232.67,-419.69"/>
</a>
</g>
<text text-anchor="middle" x="693.5" y="-428.8" font-family="Helvetica,sans-Serif" font-size="10.00" fill="grey"> controller</text>
</g>
<!-- Node11&#45;&gt;Node14 -->
<g id="edge22_Node000014_Node000011" class="edge">
<title>Node11&#45;&gt;Node14</title>
<g id="a_edge22_Node000014_Node000011"><a xlink:title=" ">
<path fill="none" stroke="#9a32cd" stroke-dasharray="5,2" d="M192.91,-400.93C242.31,-369.65 361.4,-294.26 403.74,-267.46"/>
<polygon fill="#9a32cd" stroke="#9a32cd" points="186.14,-405.21 190.97,-397.89 189.52,-403.07 192.9,-400.94 192.9,-400.94 192.9,-400.94 189.52,-403.07 194.83,-403.98 186.14,-405.21 186.14,-405.21"/>
</a>
</g>
<text text-anchor="middle" x="295.5" y="-358.8" font-family="Helvetica,sans-Serif" font-size="10.00" fill="grey"> controller</text>
</g>
<!-- Node12 -->
<g id="Node000012" class="node">
<title>Node12</title>
<g id="a_Node000012"><a xlink:href="classCalibrationService.html" target="_top" xlink:title="The CalibrationService class accesses the Calibrartion service of Pokit devices.">
<polygon fill="white" stroke="#666666" points="966.5,-247.3 860.5,-247.3 860.5,-228.3 966.5,-228.3 966.5,-247.3"/>
<text text-anchor="middle" x="913.5" y="-235.3" font-family="Helvetica,sans-Serif" font-size="10.00">CalibrationService</text>
</a>
</g>
</g>
<!-- Node12&#45;&gt;Node10 -->
<g id="edge17_Node000010_Node000012" class="edge">
<title>Node12&#45;&gt;Node10</title>
<g id="a_edge17_Node000010_Node000012"><a xlink:title=" ">
<path fill="none" stroke="#9a32cd" stroke-dasharray="5,2" d="M974.96,-238.59C1010.87,-239.05 1056.02,-239.64 1090.77,-240.09"/>
<polygon fill="#9a32cd" stroke="#9a32cd" points="966.52,-238.48 974.56,-234.98 970.52,-238.53 974.52,-238.58 974.52,-238.58 974.52,-238.58 970.52,-238.53 974.47,-242.18 966.52,-238.48 966.52,-238.48"/>
</a>
</g>
<text text-anchor="middle" x="1029" y="-243.8" font-family="Helvetica,sans-Serif" font-size="10.00" fill="grey"> calibration</text>
</g>
<!-- Node13&#45;&gt;Node12 -->
<g id="edge18_Node000012_Node000013" class="edge">
<title>Node13&#45;&gt;Node12</title>
<g id="a_edge18_Node000012_Node000013"><a xlink:title=" ">
<path fill="none" stroke="#63b8ff" d="M760.64,-237.8C792.66,-237.8 830.56,-237.8 860.48,-237.8"/>
<polygon fill="#63b8ff" stroke="#63b8ff" points="752.63,-237.8 760.63,-234.2 756.63,-237.8 760.63,-237.8 760.63,-237.8 760.63,-237.8 756.63,-237.8 760.63,-241.4 752.63,-237.8 752.63,-237.8"/>
</a>
</g>
</g>
<!-- Node13&#45;&gt;Node14 -->
<g id="edge27_Node000014_Node000013" class="edge">
<title>Node13&#45;&gt;Node14</title>
<g id="a_edge27_Node000014_Node000013"><a xlink:title=" ">
<path fill="none" stroke="#9a32cd" stroke-dasharray="5,2" d="M626.21,-245.31C617.07,-246.22 607.81,-247.08 599,-247.8 565.37,-250.54 528.11,-252.76 496.41,-254.41"/>
<polygon fill="#9a32cd" stroke="#9a32cd" points="634.19,-244.49 626.59,-248.89 630.21,-244.9 626.23,-245.31 626.23,-245.31 626.23,-245.31 630.21,-244.9 625.86,-241.72 634.19,-244.49 634.19,-244.49"/>
</a>
</g>
<text text-anchor="middle" x="556.5" y="-256.8" font-family="Helvetica,sans-Serif" font-size="10.00" fill="grey"> q_ptr</text>
</g>
<!-- Node18 -->
<g id="Node000018" class="node">
<title>Node18</title>
<g id="a_Node000018"><a xlink:href="classDataLoggerService.html" target="_top" xlink:title="The DataLoggerService class accesses the Data Logger service of Pokit devices.">
<polygon fill="white" stroke="#666666" points="968,-165.3 859,-165.3 859,-146.3 968,-146.3 968,-165.3"/>
<text text-anchor="middle" x="913.5" y="-153.3" font-family="Helvetica,sans-Serif" font-size="10.00">DataLoggerService</text>
</a>
</g>
</g>
<!-- Node13&#45;&gt;Node18 -->
<g id="edge30_Node000018_Node000013" class="edge">
<title>Node13&#45;&gt;Node18</title>
<g id="a_edge30_Node000018_Node000013"><a xlink:title=" ">
<path fill="none" stroke="#63b8ff" d="M727.46,-225.4C771.25,-208.93 847.7,-180.17 887.23,-165.3"/>
<polygon fill="#63b8ff" stroke="#63b8ff" points="719.93,-228.23 726.15,-222.05 723.68,-226.82 727.42,-225.42 727.42,-225.42 727.42,-225.42 723.68,-226.82 728.69,-228.78 719.93,-228.23 719.93,-228.23"/>
</a>
</g>
</g>
<!-- Node19 -->
<g id="Node000019" class="node">
<title>Node19</title>
<g id="a_Node000019"><a xlink:href="classDeviceInfoService.html" target="_top" xlink:title="The DeviceInfoService class accesses the Device Info service of Pokit devices.">
<polygon fill="white" stroke="#666666" points="966,-128.3 861,-128.3 861,-109.3 966,-109.3 966,-128.3"/>
<text text-anchor="middle" x="913.5" y="-116.3" font-family="Helvetica,sans-Serif" font-size="10.00">DeviceInfoService</text>
</a>
</g>
</g>
<!-- Node13&#45;&gt;Node19 -->
<g id="edge33_Node000019_Node000013" class="edge">
<title>Node13&#45;&gt;Node19</title>
<g id="a_edge33_Node000019_Node000013"><a xlink:title=" ">
<path fill="none" stroke="#63b8ff" d="M714.67,-223.32C744.89,-202.14 804.2,-162.44 859,-136.8 865.75,-133.64 873.2,-130.77 880.35,-128.3"/>
<polygon fill="#63b8ff" stroke="#63b8ff" points="707.99,-228.05 712.45,-220.49 711.25,-225.74 714.52,-223.43 714.52,-223.43 714.52,-223.43 711.25,-225.74 716.6,-226.37 707.99,-228.05 707.99,-228.05"/>
</a>
</g>
</g>
<!-- Node20 -->
<g id="Node000020" class="node">
<title>Node20</title>
<g id="a_Node000020"><a xlink:href="classDsoService.html" target="_top" xlink:title="The DsoService class accesses the DSO (Digital Storage Oscilloscope) service of Pokit devices.">
<polygon fill="white" stroke="#666666" points="949,-22.3 878,-22.3 878,-3.3 949,-3.3 949,-22.3"/>
<text text-anchor="middle" x="913.5" y="-10.3" font-family="Helvetica,sans-Serif" font-size="10.00">DsoService</text>
</a>
</g>
</g>
<!-- Node13&#45;&gt;Node20 -->
<g id="edge36_Node000020_Node000013" class="edge">
<title>Node13&#45;&gt;Node20</title>
<g id="a_edge36_Node000020_Node000013"><a xlink:title=" ">
<path fill="none" stroke="#63b8ff" d="M703.65,-220.42C725.3,-180.91 783.58,-83.73 859,-30.8 864.7,-26.8 871.35,-23.64 877.99,-21.15"/>
<polygon fill="#63b8ff" stroke="#63b8ff" points="699.59,-227.93 700.22,-219.18 701.49,-224.41 703.39,-220.89 703.39,-220.89 703.39,-220.89 701.49,-224.41 706.56,-222.6 699.59,-227.93 699.59,-227.93"/>
</a>
</g>
</g>
<!-- Node21 -->
<g id="Node000021" class="node">
<title>Node21</title>
<g id="a_Node000021"><a xlink:href="classMultimeterService.html" target="_top" xlink:title="The MultimeterService class accesses the Multimeter service of Pokit devices.">
<polygon fill="white" stroke="#666666" points="967,-210.3 860,-210.3 860,-191.3 967,-191.3 967,-210.3"/>
<text text-anchor="middle" x="913.5" y="-198.3" font-family="Helvetica,sans-Serif" font-size="10.00">MultimeterService</text>
</a>
</g>
</g>
<!-- Node13&#45;&gt;Node21 -->
<g id="edge39_Node000021_Node000013" class="edge">
<title>Node13&#45;&gt;Node21</title>
<g id="a_edge39_Node000021_Node000013"><a xlink:title=" ">
<path fill="none" stroke="#63b8ff" d="M758.69,-226.9C790.92,-221.43 829.47,-214.89 859.92,-209.72"/>
<polygon fill="#63b8ff" stroke="#63b8ff" points="750.64,-228.27 757.93,-223.38 754.58,-227.6 758.53,-226.93 758.53,-226.93 758.53,-226.93 754.58,-227.6 759.13,-230.48 750.64,-228.27 750.64,-228.27"/>
</a>
</g>
</g>
<!-- Node22 -->
<g id="Node000022" class="node">
<title>Node22</title>
<g id="a_Node000022"><a xlink:href="classStatusService.html" target="_top" xlink:title="The StatusService class accesses the Pokit Status service of Pokit devices.">
<polygon fill="white" stroke="#666666" points="955,-284.3 872,-284.3 872,-265.3 955,-265.3 955,-284.3"/>
<text text-anchor="middle" x="913.5" y="-272.3" font-family="Helvetica,sans-Serif" font-size="10.00">StatusService</text>
</a>
</g>
</g>
<!-- Node13&#45;&gt;Node22 -->
<g id="edge42_Node000022_Node000013" class="edge">
<title>Node13&#45;&gt;Node22</title>
<g id="a_edge42_Node000022_Node000013"><a xlink:title=" ">
<path fill="none" stroke="#63b8ff" d="M758.78,-248.71C795.31,-254.91 839.95,-262.49 871.7,-267.87"/>
<polygon fill="#63b8ff" stroke="#63b8ff" points="750.64,-247.33 759.13,-245.12 754.58,-248 758.53,-248.67 758.53,-248.67 758.53,-248.67 754.58,-248 757.93,-252.22 750.64,-247.33 750.64,-247.33"/>
</a>
</g>
</g>
<!-- Node14&#45;&gt;Node13 -->
<g id="edge20_Node000013_Node000014" class="edge">
<title>Node14&#45;&gt;Node13</title>
<g id="a_edge20_Node000013_Node000014"><a xlink:title=" ">
<path fill="none" stroke="#9a32cd" stroke-dasharray="5,2" d="M462.77,-246.29C478.68,-242.46 497.05,-238.69 514,-236.8 554.04,-232.33 599.44,-232.66 634.44,-234.07"/>
<polygon fill="#9a32cd" stroke="#9a32cd" points="454.7,-248.29 461.6,-242.87 458.59,-247.33 462.47,-246.37 462.47,-246.37 462.47,-246.37 458.59,-247.33 463.34,-249.86 454.7,-248.29 454.7,-248.29"/>
</a>
</g>
<text text-anchor="middle" x="556.5" y="-239.8" font-family="Helvetica,sans-Serif" font-size="10.00" fill="grey"> d_ptr</text>
</g>
<!-- Node15&#45;&gt;Node14 -->
<g id="edge23_Node000014_Node000015" class="edge">
<title>Node15&#45;&gt;Node14</title>
<g id="a_edge23_Node000014_Node000015"><a xlink:title=" ">
<path fill="none" stroke="#9a32cd" stroke-dasharray="5,2" d="M234.63,-283.82C270.46,-278.76 315.19,-272.45 351.61,-267.31"/>
<polygon fill="#9a32cd" stroke="#9a32cd" points="226.66,-284.94 234.07,-280.26 230.62,-284.39 234.58,-283.83 234.58,-283.83 234.58,-283.83 230.62,-284.39 235.08,-287.39 226.66,-284.94 226.66,-284.94"/>
</a>
</g>
<text text-anchor="middle" x="295.5" y="-282.8" font-family="Helvetica,sans-Serif" font-size="10.00" fill="grey"> service</text>
</g>
<!-- Node16 -->
<g id="Node000016" class="node">
<title>Node16</title>
<g id="a_Node000016"><a target="_parent" xlink:href="https://doc.qt.io/qt-5/qbluetoothuuid.html" xlink:title=" ">
<polygon fill="white" stroke="#bfbfbf" points="217,-134.3 123,-134.3 123,-115.3 217,-115.3 217,-134.3"/>
<text text-anchor="middle" x="170" y="-122.3" font-family="Helvetica,sans-Serif" font-size="10.00">QBluetoothUuid</text>
</a>
</g>
</g>
<!-- Node16&#45;&gt;Node12 -->
<g id="edge28_Node000012_Node000016" class="edge">
<title>Node16&#45;&gt;Node12</title>
<g id="a_edge28_Node000012_Node000016"><a xlink:title=" ">
<path fill="none" stroke="#9a32cd" stroke-dasharray="5,2" d="M203.65,-137.18C221.54,-143.55 244.24,-150.97 265,-155.8 299.53,-163.83 308.85,-162.21 344,-166.8 533.13,-191.51 580.8,-194.64 770,-218.8 799.96,-222.62 833.43,-227.08 860.4,-230.71"/>
<polygon fill="#9a32cd" stroke="#9a32cd" points="195.79,-134.33 204.53,-133.67 199.55,-135.69 203.31,-137.05 203.31,-137.05 203.31,-137.05 199.55,-135.69 202.09,-140.44 195.79,-134.33 195.79,-134.33"/>
</a>
</g>
<text text-anchor="middle" x="556.5" y="-201.8" font-family="Helvetica,sans-Serif" font-size="10.00" fill="grey"> serviceUuid</text>
</g>
<!-- Node16&#45;&gt;Node14 -->
<g id="edge25_Node000014_Node000016" class="edge">
<title>Node16&#45;&gt;Node14</title>
<g id="a_edge25_Node000014_Node000016"><a xlink:title=" ">
<path fill="none" stroke="#9a32cd" stroke-dasharray="5,2" d="M187.28,-139.93C205.22,-155.98 235.46,-181.26 265,-197.8 290.28,-211.95 298.98,-210.33 326,-220.8 349.66,-229.96 376.58,-240.71 395.35,-248.25"/>
<polygon fill="#9a32cd" stroke="#9a32cd" points="181.25,-134.47 189.6,-137.17 184.22,-137.15 187.18,-139.84 187.18,-139.84 187.18,-139.84 184.22,-137.15 184.76,-142.51 181.25,-134.47 181.25,-134.47"/>
</a>
</g>
<text text-anchor="middle" x="295.5" y="-223.8" font-family="Helvetica,sans-Serif" font-size="10.00" fill="grey"> serviceUuid</text>
</g>
<!-- Node16&#45;&gt;Node18 -->
<g id="edge31_Node000018_Node000016" class="edge">
<title>Node16&#45;&gt;Node18</title>
<g id="a_edge31_Node000018_Node000016"><a xlink:title=" ">
<path fill="none" stroke="#9a32cd" stroke-dasharray="5,2" d="M225.37,-123.98C306.69,-123.05 464.81,-122.4 599,-128.8 690.4,-133.16 796.4,-143.37 858.77,-149.91"/>
<polygon fill="#9a32cd" stroke="#9a32cd" points="217.27,-124.07 225.22,-120.38 221.27,-124.02 225.27,-123.98 225.27,-123.98 225.27,-123.98 221.27,-124.02 225.31,-127.58 217.27,-124.07 217.27,-124.07"/>
</a>
</g>
<text text-anchor="middle" x="556.5" y="-131.8" font-family="Helvetica,sans-Serif" font-size="10.00" fill="grey"> serviceUuid</text>
</g>
<!-- Node16&#45;&gt;Node19 -->
<g id="edge34_Node000019_Node000016" class="edge">
<title>Node16&#45;&gt;Node19</title>
<g id="a_edge34_Node000019_Node000016"><a xlink:title=" ">
<path fill="none" stroke="#9a32cd" stroke-dasharray="5,2" d="M190.95,-110.72C209.27,-98.61 237.64,-81.86 265,-73.8 387.8,-37.6 720.59,-20.33 841,-63.8 867.22,-73.26 891.55,-96.16 903.93,-109.23"/>
<polygon fill="#9a32cd" stroke="#9a32cd" points="184.22,-115.26 188.84,-107.81 187.53,-113.03 190.85,-110.79 190.85,-110.79 190.85,-110.79 187.53,-113.03 192.86,-113.77 184.22,-115.26 184.22,-115.26"/>
</a>
</g>
<text text-anchor="middle" x="556.5" y="-43.8" font-family="Helvetica,sans-Serif" font-size="10.00" fill="grey"> serviceUuid</text>
</g>
<!-- Node16&#45;&gt;Node20 -->
<g id="edge37_Node000020_Node000016" class="edge">
<title>Node16&#45;&gt;Node20</title>
<g id="a_edge37_Node000020_Node000016"><a xlink:title=" ">
<path fill="none" stroke="#9a32cd" stroke-dasharray="5,2" d="M187.37,-109.75C205.17,-94.2 235.09,-70.34 265,-56.8 297.81,-41.95 308.43,-44.39 344,-38.8 544.33,-7.29 788.87,-9.59 877.95,-11.74"/>
<polygon fill="#9a32cd" stroke="#9a32cd" points="181.38,-115.07 184.97,-107.07 184.37,-112.42 187.36,-109.76 187.36,-109.76 187.36,-109.76 184.37,-112.42 189.75,-112.45 181.38,-115.07 181.38,-115.07"/>
</a>
</g>
<text text-anchor="middle" x="556.5" y="-22.8" font-family="Helvetica,sans-Serif" font-size="10.00" fill="grey"> serviceUuid</text>
</g>
<!-- Node16&#45;&gt;Node21 -->
<g id="edge40_Node000021_Node000016" class="edge">
<title>Node16&#45;&gt;Node21</title>
<g id="a_edge40_Node000021_Node000016"><a xlink:title=" ">
<path fill="none" stroke="#9a32cd" stroke-dasharray="5,2" d="M225.28,-132.78C238.28,-134.56 252.12,-136.35 265,-137.8 520.39,-166.53 586.12,-155.87 841,-188.8 847.12,-189.59 853.51,-190.52 859.85,-191.5"/>
<polygon fill="#9a32cd" stroke="#9a32cd" points="217.32,-131.68 225.74,-129.21 221.28,-132.23 225.24,-132.78 225.24,-132.78 225.24,-132.78 221.28,-132.23 224.75,-136.35 217.32,-131.68 217.32,-131.68"/>
</a>
</g>
<text text-anchor="middle" x="556.5" y="-167.8" font-family="Helvetica,sans-Serif" font-size="10.00" fill="grey"> serviceUuid</text>
</g>
<!-- Node17 -->
<g id="Node000017" class="node">
<title>Node17</title>
<g id="a_Node000017"><a target="_parent" xlink:href="https://doc.qt.io/qt-5/quuid.html" xlink:title=" ">
<polygon fill="white" stroke="#bfbfbf" points="51.5,-134.3 4.5,-134.3 4.5,-115.3 51.5,-115.3 51.5,-134.3"/>
<text text-anchor="middle" x="28" y="-122.3" font-family="Helvetica,sans-Serif" font-size="10.00">QUuid</text>
</a>
</g>
</g>
<!-- Node17&#45;&gt;Node16 -->
<g id="edge26_Node000016_Node000017" class="edge">
<title>Node17&#45;&gt;Node16</title>
<g id="a_edge26_Node000016_Node000017"><a xlink:title=" ">
<path fill="none" stroke="#63b8ff" d="M59.9,-124.8C78.41,-124.8 102.29,-124.8 122.98,-124.8"/>
<polygon fill="#63b8ff" stroke="#63b8ff" points="51.81,-124.8 59.81,-121.2 55.81,-124.8 59.81,-124.8 59.81,-124.8 59.81,-124.8 55.81,-124.8 59.8,-128.4 51.81,-124.8 51.81,-124.8"/>
</a>
</g>
</g>
<!-- Node18&#45;&gt;Node10 -->
<g id="edge29_Node000010_Node000018" class="edge">
<title>Node18&#45;&gt;Node10</title>
<g id="a_edge29_Node000010_Node000018"><a xlink:title=" ">
<path fill="none" stroke="#9a32cd" stroke-dasharray="5,2" d="M976.49,-166.99C1006.09,-173.47 1041.61,-182.93 1072,-195.8 1094.48,-205.32 1118.12,-221.11 1132.2,-231.23"/>
<polygon fill="#9a32cd" stroke="#9a32cd" points="968.31,-165.24 976.89,-163.39 972.22,-166.07 976.13,-166.91 976.13,-166.91 976.13,-166.91 972.22,-166.07 975.38,-170.43 968.31,-165.24 968.31,-165.24"/>
</a>
</g>
<text text-anchor="middle" x="1029" y="-198.8" font-family="Helvetica,sans-Serif" font-size="10.00" fill="grey"> dataLogger</text>
</g>
<!-- Node19&#45;&gt;Node10 -->
<g id="edge32_Node000010_Node000019" class="edge">
<title>Node19&#45;&gt;Node10</title>
<g id="a_edge32_Node000010_Node000019"><a xlink:title=" ">
<path fill="none" stroke="#9a32cd" stroke-dasharray="5,2" d="M974.33,-123.4C1005.28,-127.94 1042.62,-136.95 1072,-154.8 1104.14,-174.32 1129.13,-212.93 1139.62,-231.02"/>
<polygon fill="#9a32cd" stroke="#9a32cd" points="966.19,-122.29 974.61,-119.81 970.16,-122.83 974.12,-123.37 974.12,-123.37 974.12,-123.37 970.16,-122.83 973.63,-126.94 966.19,-122.29 966.19,-122.29"/>
</a>
</g>
<text text-anchor="middle" x="1029" y="-157.8" font-family="Helvetica,sans-Serif" font-size="10.00" fill="grey"> deviceInfo</text>
</g>
<!-- Node20&#45;&gt;Node10 -->
<g id="edge35_Node000010_Node000020" class="edge">
<title>Node20&#45;&gt;Node10</title>
<g id="a_edge35_Node000010_Node000020"><a xlink:title=" ">
<path fill="none" stroke="#9a32cd" stroke-dasharray="5,2" d="M957.02,-3.21C991.52,1.98 1039.58,3.01 1072,-21.8 1141.39,-74.89 1145.54,-196.37 1145.24,-231.26"/>
<polygon fill="#9a32cd" stroke="#9a32cd" points="949,-4.53 956.31,0.32 952.95,-3.88 956.9,-3.23 956.9,-3.23 956.9,-3.23 952.95,-3.88 957.48,-6.78 949,-4.53 949,-4.53"/>
</a>
</g>
<text text-anchor="middle" x="1029" y="-24.8" font-family="Helvetica,sans-Serif" font-size="10.00" fill="grey"> dso</text>
</g>
<!-- Node21&#45;&gt;Node10 -->
<g id="edge38_Node000010_Node000021" class="edge">
<title>Node21&#45;&gt;Node10</title>
<g id="a_edge38_Node000010_Node000021"><a xlink:title=" ">
<path fill="none" stroke="#9a32cd" stroke-dasharray="5,2" d="M975.28,-208.46C1004.6,-212.47 1040.23,-217.79 1072,-223.8 1083.38,-225.95 1095.67,-228.66 1106.86,-231.28"/>
<polygon fill="#9a32cd" stroke="#9a32cd" points="967.18,-207.37 975.59,-204.87 971.15,-207.91 975.11,-208.44 975.11,-208.44 975.11,-208.44 971.15,-207.91 974.63,-212.01 967.18,-207.37 967.18,-207.37"/>
</a>
</g>
<text text-anchor="middle" x="1029" y="-226.8" font-family="Helvetica,sans-Serif" font-size="10.00" fill="grey"> multimeter</text>
</g>
<!-- Node22&#45;&gt;Node1 -->
<g id="edge46_Node000001_Node000022" class="edge">
<title>Node22&#45;&gt;Node1</title>
<g id="a_edge46_Node000001_Node000022"><a xlink:title=" ">
<path fill="none" stroke="#9a32cd" stroke-dasharray="5,2" d="M950.32,-287.71C956.56,-290.81 962.72,-294.5 968,-298.8 1056.7,-371.03 1122.69,-497.91 1140.32,-533.98"/>
<polygon fill="#9a32cd" stroke="#9a32cd" points="943.02,-284.33 951.79,-284.42 946.65,-286.01 950.28,-287.69 950.28,-287.69 950.28,-287.69 946.65,-286.01 948.77,-290.96 943.02,-284.33 943.02,-284.33"/>
</a>
</g>
<text text-anchor="middle" x="1029" y="-418.8" font-family="Helvetica,sans-Serif" font-size="10.00" fill="grey"> service</text>
</g>
<!-- Node22&#45;&gt;Node10 -->
<g id="edge41_Node000010_Node000022" class="edge">
<title>Node22&#45;&gt;Node10</title>
<g id="a_edge41_Node000010_Node000022"><a xlink:title=" ">
<path fill="none" stroke="#9a32cd" stroke-dasharray="5,2" d="M963.1,-268.32C994.25,-264.09 1035.54,-258.34 1072,-252.8 1078.09,-251.87 1084.47,-250.87 1090.81,-249.86"/>
<polygon fill="#9a32cd" stroke="#9a32cd" points="955,-269.42 962.45,-264.77 958.97,-268.88 962.93,-268.34 962.93,-268.34 962.93,-268.34 958.97,-268.88 963.41,-271.91 955,-269.42 955,-269.42"/>
</a>
</g>
<text text-anchor="middle" x="1029" y="-268.8" font-family="Helvetica,sans-Serif" font-size="10.00" fill="grey"> status</text>
</g>
<!-- Node23 -->
<g id="Node000023" class="node">
<title>Node23</title>
<g id="a_Node000023"><a target="_parent" xlink:href="https://doc.qt.io/qt-5/qmutex.html" xlink:title=" ">
<polygon fill="white" stroke="#bfbfbf" points="941,-59.3 886,-59.3 886,-40.3 941,-40.3 941,-59.3"/>
<text text-anchor="middle" x="913.5" y="-47.3" font-family="Helvetica,sans-Serif" font-size="10.00">QMutex</text>
</a>
</g>
</g>
<!-- Node23&#45;&gt;Node10 -->
<g id="edge43_Node000010_Node000023" class="edge">
<title>Node23&#45;&gt;Node10</title>
<g id="a_edge43_Node000010_Node000023"><a xlink:title=" ">
<path fill="none" stroke="#9a32cd" stroke-dasharray="5,2" d="M949.18,-41.32C983.62,-35.02 1036.29,-31.37 1072,-56.8 1131.91,-99.46 1142.67,-199.37 1144.59,-231.01"/>
<polygon fill="#9a32cd" stroke="#9a32cd" points="941.27,-42.87 948.43,-37.8 945.19,-42.1 949.12,-41.33 949.12,-41.33 949.12,-41.33 945.19,-42.1 949.81,-44.86 941.27,-42.87 941.27,-42.87"/>
</a>
</g>
<text text-anchor="middle" x="1029" y="-114.8" font-family="Helvetica,sans-Serif" font-size="10.00" fill="grey"> calibrationMutex</text>
<text text-anchor="middle" x="1029" y="-103.8" font-family="Helvetica,sans-Serif" font-size="10.00" fill="grey">dataLoggerMutex</text>
<text text-anchor="middle" x="1029" y="-92.8" font-family="Helvetica,sans-Serif" font-size="10.00" fill="grey">deviceInfoMutex</text>
<text text-anchor="middle" x="1029" y="-81.8" font-family="Helvetica,sans-Serif" font-size="10.00" fill="grey">dsoMutex</text>
<text text-anchor="middle" x="1029" y="-70.8" font-family="Helvetica,sans-Serif" font-size="10.00" fill="grey">multimeterMutex</text>
<text text-anchor="middle" x="1029" y="-59.8" font-family="Helvetica,sans-Serif" font-size="10.00" fill="grey">statusMutex</text>
</g>
</g>
</svg>
