<?xml version="1.0" encoding="UTF-8" standalone="no"?>
<!DOCTYPE svg PUBLIC "-//W3C//DTD SVG 1.1//EN"
 "http://www.w3.org/Graphics/SVG/1.1/DTD/svg11.dtd">
<!-- Generated by graphviz version 2.43.0 (0)
 -->
<!-- Title: FlashLedCommand::FlashLedCommand Pages: 1 -->
<svg width="821pt" height="444pt"
 viewBox="0.00 0.00 821.00 444.00" xmlns="http://www.w3.org/2000/svg" xmlns:xlink="http://www.w3.org/1999/xlink">
<g id="graph0" class="graph" transform="scale(1 1) rotate(0) translate(4 440)">
<title>FlashLedCommand::FlashLedCommand</title>
<!-- Node1 -->
<g id="Node000001" class="node">
<title>Node1</title>
<g id="a_Node000001"><a xlink:title="Construct a new FlashLedCommand object with parent.">
<polygon fill="#999999" stroke="#666666" points="160,-254.5 0,-254.5 0,-224.5 160,-224.5 160,-254.5"/>
<text text-anchor="start" x="8" y="-242.5" font-family="Helvetica,sans-Serif" font-size="10.00">FlashLedCommand::FlashLed</text>
<text text-anchor="middle" x="80" y="-231.5" font-family="Helvetica,sans-Serif" font-size="10.00">Command</text>
</a>
</g>
</g>
<!-- Node2 -->
<g id="Node000002" class="node">
<title>Node2</title>
<g id="a_Node000002"><a xlink:href="classDeviceCommand.html#a55c623ad1d1e0ad1273604f3f24b1dfc" target="_top" xlink:title="Construct a new DeviceCommand object with parent.">
<polygon fill="white" stroke="#666666" points="387,-249 196,-249 196,-230 387,-230 387,-249"/>
<text text-anchor="middle" x="291.5" y="-237" font-family="Helvetica,sans-Serif" font-size="10.00">DeviceCommand::DeviceCommand</text>
</a>
</g>
</g>
<!-- Node1&#45;&gt;Node2 -->
<g id="edge1_Node000001_Node000002" class="edge">
<title>Node1&#45;&gt;Node2</title>
<g id="a_edge1_Node000001_Node000002"><a xlink:title=" ">
<path fill="none" stroke="#63b8ff" d="M160.2,-239.5C169.16,-239.5 178.39,-239.5 187.6,-239.5"/>
<polygon fill="#63b8ff" stroke="#63b8ff" points="195.68,-239.5 187.68,-243.1 191.68,-239.5 187.68,-239.5 187.68,-239.5 187.68,-239.5 191.68,-239.5 187.68,-235.9 195.68,-239.5 195.68,-239.5"/>
</a>
</g>
</g>
<!-- Node11 -->
<g id="Node000011" class="node">
<title>Node11</title>
<g id="a_Node000011"><a target="_parent" xlink:href="https://doc.qt.io/qt-5/qobject.html#parent" xlink:title=" ">
<polygon fill="white" stroke="#666666" points="759.5,-436 666.5,-436 666.5,-417 759.5,-417 759.5,-436"/>
<text text-anchor="middle" x="713" y="-424" font-family="Helvetica,sans-Serif" font-size="10.00">QObject::parent</text>
</a>
</g>
</g>
<!-- Node1&#45;&gt;Node11 -->
<g id="edge17_Node000001_Node000011" class="edge">
<title>Node1&#45;&gt;Node11</title>
<g id="a_edge17_Node000001_Node000011"><a xlink:title=" ">
<path fill="none" stroke="#63b8ff" d="M114.3,-254.63C174.69,-281.54 306.8,-338.04 423,-371.5 505.67,-395.3 528.45,-392.58 613,-408.5 627.63,-411.25 643.49,-414.17 658.14,-416.83"/>
<polygon fill="#63b8ff" stroke="#63b8ff" points="666.14,-418.28 657.63,-420.4 662.2,-417.57 658.27,-416.86 658.27,-416.86 658.27,-416.86 662.2,-417.57 658.91,-413.31 666.14,-418.28 666.14,-418.28"/>
</a>
</g>
</g>
<!-- Node13 -->
<g id="Node000013" class="node">
<title>Node13</title>
<g id="a_Node000013"><a target="_parent" xlink:href="https://doc.qt.io/qt-5/qobject.html#QObject" xlink:title=" ">
<polygon fill="white" stroke="#666666" points="763.5,-19 662.5,-19 662.5,0 763.5,0 763.5,-19"/>
<text text-anchor="middle" x="713" y="-7" font-family="Helvetica,sans-Serif" font-size="10.00">QObject::QObject</text>
</a>
</g>
</g>
<!-- Node1&#45;&gt;Node13 -->
<g id="edge18_Node000001_Node000013" class="edge">
<title>Node1&#45;&gt;Node13</title>
<g id="a_edge18_Node000001_Node000013"><a xlink:title=" ">
<path fill="none" stroke="#63b8ff" d="M106.72,-224.4C162.54,-192.22 299.7,-116.24 423,-72.5 504.69,-43.52 528.2,-46.45 613,-28.5 626.38,-25.67 640.82,-22.79 654.42,-20.17"/>
<polygon fill="#63b8ff" stroke="#63b8ff" points="662.32,-18.65 655.14,-23.69 658.39,-19.41 654.47,-20.16 654.47,-20.16 654.47,-20.16 658.39,-19.41 653.79,-16.62 662.32,-18.65 662.32,-18.65"/>
</a>
</g>
</g>
<!-- Node3 -->
<g id="Node000003" class="node">
<title>Node3</title>
<g id="a_Node000003"><a xlink:href="classAbstractCommand.html#a0d6fde269511e87aa6f178c1733073ae" target="_top" xlink:title="Constructs a new command with parent.">
<polygon fill="white" stroke="#666666" points="577,-254.5 423,-254.5 423,-224.5 577,-224.5 577,-254.5"/>
<text text-anchor="start" x="431" y="-242.5" font-family="Helvetica,sans-Serif" font-size="10.00">AbstractCommand::Abstract</text>
<text text-anchor="middle" x="500" y="-231.5" font-family="Helvetica,sans-Serif" font-size="10.00">Command</text>
</a>
</g>
</g>
<!-- Node2&#45;&gt;Node3 -->
<g id="edge2_Node000002_Node000003" class="edge">
<title>Node2&#45;&gt;Node3</title>
<g id="a_edge2_Node000002_Node000003"><a xlink:title=" ">
<path fill="none" stroke="#63b8ff" d="M387.29,-239.5C396.38,-239.5 405.56,-239.5 414.54,-239.5"/>
<polygon fill="#63b8ff" stroke="#63b8ff" points="422.73,-239.5 414.73,-243.1 418.73,-239.5 414.73,-239.5 414.73,-239.5 414.73,-239.5 418.73,-239.5 414.73,-235.9 422.73,-239.5 422.73,-239.5"/>
</a>
</g>
</g>
<!-- Node2&#45;&gt;Node11 -->
<g id="edge15_Node000002_Node000011" class="edge">
<title>Node2&#45;&gt;Node11</title>
<g id="a_edge15_Node000002_Node000011"><a xlink:title=" ">
<path fill="none" stroke="#63b8ff" d="M306.79,-249.11C350.52,-278.05 487.25,-365.07 613,-408.5 627.35,-413.46 643.37,-417.12 658.26,-419.8"/>
<polygon fill="#63b8ff" stroke="#63b8ff" points="666.41,-421.19 657.92,-423.39 662.46,-420.52 658.52,-419.85 658.52,-419.85 658.52,-419.85 662.46,-420.52 659.13,-416.3 666.41,-421.19 666.41,-421.19"/>
</a>
</g>
</g>
<!-- Node2&#45;&gt;Node13 -->
<g id="edge16_Node000002_Node000013" class="edge">
<title>Node2&#45;&gt;Node13</title>
<g id="a_edge16_Node000002_Node000013"><a xlink:title=" ">
<path fill="none" stroke="#63b8ff" d="M314.52,-229.88C364.66,-207.32 489.76,-147.17 577,-72.5 596.2,-56.07 591.29,-41.43 613,-28.5 625.32,-21.16 639.89,-16.57 654.01,-13.73"/>
<polygon fill="#63b8ff" stroke="#63b8ff" points="662.25,-12.25 655.02,-17.21 658.32,-12.95 654.38,-13.66 654.38,-13.66 654.38,-13.66 658.32,-12.95 653.74,-10.12 662.25,-12.25 662.25,-12.25"/>
</a>
</g>
</g>
<!-- Node4 -->
<g id="Node000004" class="node">
<title>Node4</title>
<g id="a_Node000004"><a target="_parent" xlink:href="https://doc.qt.io/qt-5/qobject.html#connect" xlink:title=" ">
<polygon fill="white" stroke="#666666" points="763,-362 663,-362 663,-343 763,-343 763,-362"/>
<text text-anchor="middle" x="713" y="-350" font-family="Helvetica,sans-Serif" font-size="10.00">QObject::connect</text>
</a>
</g>
</g>
<!-- Node3&#45;&gt;Node4 -->
<g id="edge3_Node000003_Node000004" class="edge">
<title>Node3&#45;&gt;Node4</title>
<g id="a_edge3_Node000003_Node000004"><a xlink:title=" ">
<path fill="none" stroke="#63b8ff" d="M514.1,-254.82C533.42,-276.32 571.74,-314.99 613,-334.5 625.87,-340.59 640.58,-344.62 654.66,-347.29"/>
<polygon fill="#63b8ff" stroke="#63b8ff" points="662.85,-348.72 654.35,-350.9 658.91,-348.03 654.97,-347.35 654.97,-347.35 654.97,-347.35 658.91,-348.03 655.58,-343.8 662.85,-348.72 662.85,-348.72"/>
</a>
</g>
</g>
<!-- Node5 -->
<g id="Node000005" class="node">
<title>Node5</title>
<g id="a_Node000005"><a xlink:href="classAbstractCommand.html#a6ea2745014149145e803d64ca51057d9" target="_top" xlink:title="Handles PokitDiscoveryAgent::pokitDeviceDiscovered signal.">
<polygon fill="white" stroke="#666666" points="813,-325 613,-325 613,-306 813,-306 813,-325"/>
<text text-anchor="middle" x="713" y="-313" font-family="Helvetica,sans-Serif" font-size="10.00">AbstractCommand::deviceDiscovered</text>
</a>
</g>
</g>
<!-- Node3&#45;&gt;Node5 -->
<g id="edge4_Node000003_Node000005" class="edge">
<title>Node3&#45;&gt;Node5</title>
<g id="a_edge4_Node000003_Node000005"><a xlink:title=" ">
<path fill="none" stroke="#63b8ff" d="M525.47,-254.5C547.58,-267.43 581.42,-285.68 613,-296.5 621.73,-299.49 631.07,-302.06 640.38,-304.25"/>
<polygon fill="#63b8ff" stroke="#63b8ff" points="648.2,-306 639.6,-307.76 644.29,-305.12 640.39,-304.25 640.39,-304.25 640.39,-304.25 644.29,-305.12 641.18,-300.73 648.2,-306 648.2,-306"/>
</a>
</g>
</g>
<!-- Node6 -->
<g id="Node000006" class="node">
<title>Node6</title>
<g id="a_Node000006"><a xlink:href="classAbstractCommand.html#adb456a44bfe2f353e3a16aa720aeb299" target="_top" xlink:title="Handles PokitDiscoveryAgent::deviceDiscoveryFinished signal.">
<polygon fill="white" stroke="#666666" points="810,-287.5 616,-287.5 616,-257.5 810,-257.5 810,-287.5"/>
<text text-anchor="start" x="624" y="-275.5" font-family="Helvetica,sans-Serif" font-size="10.00">AbstractCommand::deviceDiscovery</text>
<text text-anchor="middle" x="713" y="-264.5" font-family="Helvetica,sans-Serif" font-size="10.00">Finished</text>
</a>
</g>
</g>
<!-- Node3&#45;&gt;Node6 -->
<g id="edge5_Node000003_Node000006" class="edge">
<title>Node3&#45;&gt;Node6</title>
<g id="a_edge5_Node000003_Node000006"><a xlink:title=" ">
<path fill="none" stroke="#63b8ff" d="M577.18,-244.9C599.99,-248.09 624.79,-252.04 646.83,-256.02"/>
<polygon fill="#63b8ff" stroke="#63b8ff" points="654.81,-257.48 646.3,-259.58 650.88,-256.76 646.94,-256.04 646.94,-256.04 646.94,-256.04 650.88,-256.76 647.59,-252.5 654.81,-257.48 654.81,-257.48"/>
</a>
</g>
</g>
<!-- Node7 -->
<g id="Node000007" class="node">
<title>Node7</title>
<g id="a_Node000007"><a target="_parent" xlink:href="https://doc.qt.io/qt-5/qbluetoothdevicediscoveryagent.html#error" xlink:title=" ">
<polygon fill="white" stroke="#666666" points="790,-239.5 636,-239.5 636,-209.5 790,-209.5 790,-239.5"/>
<text text-anchor="start" x="644" y="-227.5" font-family="Helvetica,sans-Serif" font-size="10.00">QBluetoothDeviceDiscovery</text>
<text text-anchor="middle" x="713" y="-216.5" font-family="Helvetica,sans-Serif" font-size="10.00">Agent::error</text>
</a>
</g>
</g>
<!-- Node3&#45;&gt;Node7 -->
<g id="edge7_Node000003_Node000007" class="edge">
<title>Node3&#45;&gt;Node7</title>
<g id="a_edge7_Node000003_Node000007"><a xlink:title=" ">
<path fill="none" stroke="#63b8ff" d="M577.18,-234.08C593.61,-232.92 611.07,-231.67 627.8,-230.49"/>
<polygon fill="#63b8ff" stroke="#63b8ff" points="635.94,-229.91 628.21,-234.07 631.95,-230.19 627.96,-230.47 627.96,-230.47 627.96,-230.47 631.95,-230.19 627.7,-226.88 635.94,-229.91 635.94,-229.91"/>
</a>
</g>
</g>
<!-- Node8 -->
<g id="Node000008" class="node">
<title>Node8</title>
<g id="a_Node000008"><a target="_parent" xlink:href="https://doc.qt.io/qt-5/qcoreapplication.html#exit" xlink:title=" ">
<polygon fill="white" stroke="#666666" points="776,-191 650,-191 650,-172 776,-172 776,-191"/>
<text text-anchor="middle" x="713" y="-179" font-family="Helvetica,sans-Serif" font-size="10.00">QCoreApplication::exit</text>
</a>
</g>
</g>
<!-- Node3&#45;&gt;Node8 -->
<g id="edge8_Node000003_Node000008" class="edge">
<title>Node3&#45;&gt;Node8</title>
<g id="a_edge8_Node000003_Node000008"><a xlink:title=" ">
<path fill="none" stroke="#63b8ff" d="M539.7,-224.46C561.08,-216.55 588.24,-207.15 613,-200.5 623.74,-197.61 635.26,-194.99 646.5,-192.68"/>
<polygon fill="#63b8ff" stroke="#63b8ff" points="654.61,-191.05 647.48,-196.15 650.69,-191.83 646.77,-192.62 646.77,-192.62 646.77,-192.62 650.69,-191.83 646.06,-189.09 654.61,-191.05 654.61,-191.05"/>
</a>
</g>
</g>
<!-- Node9 -->
<g id="Node000009" class="node">
<title>Node9</title>
<g id="a_Node000009"><a target="_parent" xlink:href="https://doc.qt.io/qt-5/qbluetoothdevicediscoveryagent.html#finished" xlink:title=" ">
<polygon fill="white" stroke="#666666" points="790,-153.5 636,-153.5 636,-123.5 790,-123.5 790,-153.5"/>
<text text-anchor="start" x="644" y="-141.5" font-family="Helvetica,sans-Serif" font-size="10.00">QBluetoothDeviceDiscovery</text>
<text text-anchor="middle" x="713" y="-130.5" font-family="Helvetica,sans-Serif" font-size="10.00">Agent::finished</text>
</a>
</g>
</g>
<!-- Node3&#45;&gt;Node9 -->
<g id="edge9_Node000003_Node000009" class="edge">
<title>Node3&#45;&gt;Node9</title>
<g id="a_edge9_Node000003_Node000009"><a xlink:title=" ">
<path fill="none" stroke="#63b8ff" d="M518.84,-224.46C540,-207.34 576.98,-179.66 613,-163.5 619.1,-160.76 625.56,-158.29 632.13,-156.06"/>
<polygon fill="#63b8ff" stroke="#63b8ff" points="639.88,-153.55 633.37,-159.44 636.07,-154.78 632.27,-156.01 632.27,-156.01 632.27,-156.01 636.07,-154.78 631.16,-152.59 639.88,-153.55 639.88,-153.55"/>
</a>
</g>
</g>
<!-- Node10 -->
<g id="Node000010" class="node">
<title>Node10</title>
<g id="a_Node000010"><a target="_parent" xlink:href="https://doc.qt.io/qt-5/qcoreapplication.html#instance" xlink:title=" ">
<polygon fill="white" stroke="#666666" points="787.5,-105 638.5,-105 638.5,-86 787.5,-86 787.5,-105"/>
<text text-anchor="middle" x="713" y="-93" font-family="Helvetica,sans-Serif" font-size="10.00">QCoreApplication::instance</text>
</a>
</g>
</g>
<!-- Node3&#45;&gt;Node10 -->
<g id="edge10_Node000003_Node000010" class="edge">
<title>Node3&#45;&gt;Node10</title>
<g id="a_edge10_Node000003_Node000010"><a xlink:title=" ">
<path fill="none" stroke="#63b8ff" d="M523.84,-224.3C540,-212.77 561.48,-195.82 577,-177.5 597.84,-152.89 586.77,-133.25 613,-114.5 618.47,-110.59 624.54,-107.42 630.89,-104.86"/>
<polygon fill="#63b8ff" stroke="#63b8ff" points="638.46,-102.14 632.16,-108.23 634.7,-103.49 630.94,-104.85 630.94,-104.85 630.94,-104.85 634.7,-103.49 629.72,-101.46 638.46,-102.14 638.46,-102.14"/>
</a>
</g>
</g>
<!-- Node3&#45;&gt;Node11 -->
<g id="edge11_Node000003_Node000011" class="edge">
<title>Node3&#45;&gt;Node11</title>
<g id="a_edge11_Node000003_Node000011"><a xlink:title=" ">
<path fill="none" stroke="#63b8ff" d="M516.18,-254.51C532.67,-271.39 559.06,-300.18 577,-328.5 597.87,-361.43 582.29,-384.47 613,-408.5 625.77,-418.49 642.3,-423.6 658.17,-426.06"/>
<polygon fill="#63b8ff" stroke="#63b8ff" points="666.39,-427.12 658,-429.67 662.43,-426.61 658.46,-426.1 658.46,-426.1 658.46,-426.1 662.43,-426.61 658.92,-422.53 666.39,-427.12 666.39,-427.12"/>
</a>
</g>
</g>
<!-- Node12 -->
<g id="Node000012" class="node">
<title>Node12</title>
<g id="a_Node000012"><a xlink:href="classPokitDiscoveryAgent.html#af38e511ae250a745cc900c0c4f356972" target="_top" xlink:title="This signal is emitted when the Pokit device described by info is discovered.">
<polygon fill="white" stroke="#666666" points="781,-67.5 645,-67.5 645,-37.5 781,-37.5 781,-67.5"/>
<text text-anchor="start" x="653" y="-55.5" font-family="Helvetica,sans-Serif" font-size="10.00">PokitDiscoveryAgent</text>
<text text-anchor="middle" x="713" y="-44.5" font-family="Helvetica,sans-Serif" font-size="10.00">::pokitDeviceDiscovered</text>
</a>
</g>
</g>
<!-- Node3&#45;&gt;Node12 -->
<g id="edge12_Node000003_Node000012" class="edge">
<title>Node3&#45;&gt;Node12</title>
<g id="a_edge12_Node000003_Node000012"><a xlink:title=" ">
<path fill="none" stroke="#63b8ff" d="M525.92,-224.36C542.43,-213.22 563.45,-196.7 577,-177.5 604.47,-138.56 577.59,-108.39 613,-76.5 620.03,-70.17 628.45,-65.43 637.37,-61.91"/>
<polygon fill="#63b8ff" stroke="#63b8ff" points="644.96,-59.22 638.62,-65.28 641.19,-60.55 637.42,-61.89 637.42,-61.89 637.42,-61.89 641.19,-60.55 636.22,-58.49 644.96,-59.22 644.96,-59.22"/>
</a>
</g>
</g>
<!-- Node3&#45;&gt;Node13 -->
<g id="edge13_Node000003_Node000013" class="edge">
<title>Node3&#45;&gt;Node13</title>
<g id="a_edge13_Node000003_Node000013"><a xlink:title=" ">
<path fill="none" stroke="#63b8ff" d="M527.31,-224.32C543.99,-213.37 564.66,-197.1 577,-177.5 613.29,-119.84 563.7,-75.52 613,-28.5 624.06,-17.95 639.1,-12.39 654.11,-9.64"/>
<polygon fill="#63b8ff" stroke="#63b8ff" points="662.42,-8.39 655.04,-13.14 658.46,-8.98 654.51,-9.58 654.51,-9.58 654.51,-9.58 658.46,-8.98 653.97,-6.02 662.42,-8.39 662.42,-8.39"/>
</a>
</g>
</g>
<!-- Node14 -->
<g id="Node000014" class="node">
<title>Node14</title>
<g id="a_Node000014"><a target="_parent" xlink:href="https://doc.qt.io/qt-5/qobject.html#tr" xlink:title=" ">
<polygon fill="white" stroke="#666666" points="747.5,-399 678.5,-399 678.5,-380 747.5,-380 747.5,-399"/>
<text text-anchor="middle" x="713" y="-387" font-family="Helvetica,sans-Serif" font-size="10.00">QObject::tr</text>
</a>
</g>
</g>
<!-- Node3&#45;&gt;Node14 -->
<g id="edge14_Node000003_Node000014" class="edge">
<title>Node3&#45;&gt;Node14</title>
<g id="a_edge14_Node000003_Node000014"><a xlink:title=" ">
<path fill="none" stroke="#63b8ff" d="M513.95,-254.58C529.12,-272.25 554.96,-302.43 577,-328.5 593.09,-347.53 591.45,-358.97 613,-371.5 630.23,-381.52 651.77,-386.19 670.36,-388.28"/>
<polygon fill="#63b8ff" stroke="#63b8ff" points="678.39,-389.05 670.08,-391.87 674.41,-388.67 670.43,-388.28 670.43,-388.28 670.43,-388.28 674.41,-388.67 670.77,-384.7 678.39,-389.05 678.39,-389.05"/>
</a>
</g>
</g>
<!-- Node6&#45;&gt;Node3 -->
<g id="edge6_Node000006_Node000003" class="edge">
<title>Node6&#45;&gt;Node3</title>
<g id="a_edge6_Node000006_Node000003"><a xlink:title=" ">
<path fill="none" stroke="#63b8ff" d="M615.82,-264.18C599.02,-261.64 581.9,-258.82 566.18,-255.99"/>
<polygon fill="#63b8ff" stroke="#63b8ff" points="558.1,-254.5 566.62,-252.41 562.03,-255.23 565.97,-255.95 565.97,-255.95 565.97,-255.95 562.03,-255.23 565.32,-259.49 558.1,-254.5 558.1,-254.5"/>
</a>
</g>
</g>
</g>
</svg>
