<?xml version="1.0" encoding="UTF-8" standalone="no"?>
<!DOCTYPE svg PUBLIC "-//W3C//DTD SVG 1.1//EN"
 "http://www.w3.org/Graphics/SVG/1.1/DTD/svg11.dtd">
<!-- Generated by graphviz version 2.43.0 (0)
 -->
<!-- Title: DataLoggerServicePrivate::characteristicRead Pages: 1 -->
<svg width="877pt" height="698pt"
 viewBox="0.00 0.00 877.00 697.94" xmlns="http://www.w3.org/2000/svg" xmlns:xlink="http://www.w3.org/1999/xlink">
<g id="graph0" class="graph" transform="scale(1 1) rotate(0) translate(4 693.94)">
<title>DataLoggerServicePrivate::characteristicRead</title>
<!-- Node1 -->
<g id="Node000001" class="node">
<title>Node1</title>
<g id="a_Node000001"><a xlink:title="Implements AbstractPokitServicePrivate::characteristicRead to parse value, then emit a specialised si...">
<polygon fill="#999999" stroke="#666666" points="143,-357.5 0,-357.5 0,-327.5 143,-327.5 143,-357.5"/>
<text text-anchor="start" x="8" y="-345.5" font-family="Helvetica,sans-Serif" font-size="10.00">DataLoggerServicePrivate</text>
<text text-anchor="middle" x="71.5" y="-334.5" font-family="Helvetica,sans-Serif" font-size="10.00">::characteristicRead</text>
</a>
</g>
</g>
<!-- Node2 -->
<g id="Node000002" class="node">
<title>Node2</title>
<g id="a_Node000002"><a xlink:href="classAbstractPokitServicePrivate.html#a84bef330c6ff124f1e460bb8949d82da" target="_top" xlink:title="Handles QLowEnergyService::characteristicRead events.">
<polygon fill="white" stroke="#666666" points="331,-480.5 179,-480.5 179,-450.5 331,-450.5 331,-480.5"/>
<text text-anchor="start" x="187" y="-468.5" font-family="Helvetica,sans-Serif" font-size="10.00">AbstractPokitServicePrivate</text>
<text text-anchor="middle" x="255" y="-457.5" font-family="Helvetica,sans-Serif" font-size="10.00">::characteristicRead</text>
</a>
</g>
</g>
<!-- Node1&#45;&gt;Node2 -->
<g id="edge1_Node000001_Node000002" class="edge">
<title>Node1&#45;&gt;Node2</title>
<g id="a_edge1_Node000001_Node000002"><a xlink:title=" ">
<path fill="none" stroke="#63b8ff" d="M94.76,-357.58C127.5,-379.77 188.69,-421.24 224.95,-445.81"/>
<polygon fill="#63b8ff" stroke="#63b8ff" points="231.85,-450.49 223.2,-448.98 228.54,-448.24 225.22,-446 225.22,-446 225.22,-446 228.54,-448.24 227.24,-443.02 231.85,-450.49 231.85,-450.49"/>
</a>
</g>
</g>
<!-- Node6 -->
<g id="Node000006" class="node">
<title>Node6</title>
<g id="a_Node000006"><a target="_parent" xlink:href="https://doc.qt.io/qt-5/qobject.html#tr" xlink:title=" ">
<polygon fill="white" stroke="#666666" points="672.5,-494 603.5,-494 603.5,-475 672.5,-475 672.5,-494"/>
<text text-anchor="middle" x="638" y="-482" font-family="Helvetica,sans-Serif" font-size="10.00">QObject::tr</text>
</a>
</g>
</g>
<!-- Node1&#45;&gt;Node6 -->
<g id="edge35_Node000001_Node000006" class="edge">
<title>Node1&#45;&gt;Node6</title>
<g id="a_edge35_Node000001_Node000006"><a xlink:title=" ">
<path fill="none" stroke="#63b8ff" d="M79.15,-357.61C93.11,-387.57 128.43,-454.58 179,-489.5 250.24,-538.7 281.18,-529.07 367,-540.5 433.96,-549.42 453.1,-555.34 519,-540.5 554.93,-532.41 592.77,-512.04 615.63,-498.23"/>
<polygon fill="#63b8ff" stroke="#63b8ff" points="622.5,-494 617.58,-501.26 619.1,-496.1 615.69,-498.2 615.69,-498.2 615.69,-498.2 619.1,-496.1 613.8,-495.13 622.5,-494 622.5,-494"/>
</a>
</g>
</g>
<!-- Node15 -->
<g id="Node000015" class="node">
<title>Node15</title>
<g id="a_Node000015"><a target="_parent" xlink:href="https://doc.qt.io/qt-5/qlowenergycharacteristic.html#uuid" xlink:title=" ">
<polygon fill="white" stroke="#666666" points="515.5,-418.5 370.5,-418.5 370.5,-388.5 515.5,-388.5 515.5,-418.5"/>
<text text-anchor="start" x="378.5" y="-406.5" font-family="Helvetica,sans-Serif" font-size="10.00">QLowEnergyCharacteristic</text>
<text text-anchor="middle" x="443" y="-395.5" font-family="Helvetica,sans-Serif" font-size="10.00">::uuid</text>
</a>
</g>
</g>
<!-- Node1&#45;&gt;Node15 -->
<g id="edge36_Node000001_Node000015" class="edge">
<title>Node1&#45;&gt;Node15</title>
<g id="a_edge36_Node000001_Node000015"><a xlink:title=" ">
<path fill="none" stroke="#63b8ff" d="M143.31,-354.19C205.9,-364.52 297.13,-379.58 362.28,-390.34"/>
<polygon fill="#63b8ff" stroke="#63b8ff" points="370.49,-391.69 362.01,-393.94 366.54,-391.04 362.6,-390.39 362.6,-390.39 362.6,-390.39 366.54,-391.04 363.18,-386.84 370.49,-391.69 370.49,-391.69"/>
</a>
</g>
</g>
<!-- Node16 -->
<g id="Node000016" class="node">
<title>Node16</title>
<g id="a_Node000016"><a target="_parent" xlink:href="https://doc.qt.io/qt-5/qlowenergycharacteristic.html#name" xlink:title=" ">
<polygon fill="white" stroke="#666666" points="327.5,-228.5 182.5,-228.5 182.5,-198.5 327.5,-198.5 327.5,-228.5"/>
<text text-anchor="start" x="190.5" y="-216.5" font-family="Helvetica,sans-Serif" font-size="10.00">QLowEnergyCharacteristic</text>
<text text-anchor="middle" x="255" y="-205.5" font-family="Helvetica,sans-Serif" font-size="10.00">::name</text>
</a>
</g>
</g>
<!-- Node1&#45;&gt;Node16 -->
<g id="edge18_Node000001_Node000016" class="edge">
<title>Node1&#45;&gt;Node16</title>
<g id="a_edge18_Node000001_Node000016"><a xlink:title=" ">
<path fill="none" stroke="#63b8ff" d="M83.92,-327.38C101.8,-304.71 138.57,-261.96 179,-237.5 182.33,-235.48 185.85,-233.62 189.48,-231.9"/>
<polygon fill="#63b8ff" stroke="#63b8ff" points="197.04,-228.56 191.18,-235.08 193.38,-230.17 189.72,-231.79 189.72,-231.79 189.72,-231.79 193.38,-230.17 188.27,-228.5 197.04,-228.56 197.04,-228.56"/>
</a>
</g>
</g>
<!-- Node17 -->
<g id="Node000017" class="node">
<title>Node17</title>
<g id="a_Node000017"><a xlink:href="classDataLoggerServicePrivate.html#aed59b28db53cea0757289a0960bed3fd" target="_top" xlink:title="Parses the Metadata value into a DataLoggerService::Metatdata struct.">
<polygon fill="white" stroke="#666666" points="326.5,-276.5 183.5,-276.5 183.5,-246.5 326.5,-246.5 326.5,-276.5"/>
<text text-anchor="start" x="191.5" y="-264.5" font-family="Helvetica,sans-Serif" font-size="10.00">DataLoggerServicePrivate</text>
<text text-anchor="middle" x="255" y="-253.5" font-family="Helvetica,sans-Serif" font-size="10.00">::parseMetadata</text>
</a>
</g>
</g>
<!-- Node1&#45;&gt;Node17 -->
<g id="edge19_Node000001_Node000017" class="edge">
<title>Node1&#45;&gt;Node17</title>
<g id="a_edge19_Node000001_Node000017"><a xlink:title=" ">
<path fill="none" stroke="#63b8ff" d="M106.21,-327.45C136.3,-314.03 180.45,-294.32 212.66,-279.95"/>
<polygon fill="#63b8ff" stroke="#63b8ff" points="220.16,-276.6 214.32,-283.15 216.51,-278.23 212.85,-279.86 212.85,-279.86 212.85,-279.86 216.51,-278.23 211.39,-276.58 220.16,-276.6 220.16,-276.6"/>
</a>
</g>
</g>
<!-- Node22 -->
<g id="Node000022" class="node">
<title>Node22</title>
<g id="a_Node000022"><a target="_parent" xlink:href="https://doc.qt.io/qt-5/qobject.html#Q_EMIT" xlink:title=" ">
<polygon fill="white" stroke="#666666" points="304,-180 206,-180 206,-161 304,-161 304,-180"/>
<text text-anchor="middle" x="255" y="-168" font-family="Helvetica,sans-Serif" font-size="10.00">QObject::Q_EMIT</text>
</a>
</g>
</g>
<!-- Node1&#45;&gt;Node22 -->
<g id="edge34_Node000001_Node000022" class="edge">
<title>Node1&#45;&gt;Node22</title>
<g id="a_edge34_Node000001_Node000022"><a xlink:title=" ">
<path fill="none" stroke="#63b8ff" d="M78.71,-327.18C92.12,-296.11 126.84,-225.6 179,-189.5 184.72,-185.54 191.19,-182.41 197.87,-179.93"/>
<polygon fill="#63b8ff" stroke="#63b8ff" points="205.79,-177.31 199.32,-183.24 201.99,-178.57 198.19,-179.82 198.19,-179.82 198.19,-179.82 201.99,-178.57 197.06,-176.41 205.79,-177.31 205.79,-177.31"/>
</a>
</g>
</g>
<!-- Node3 -->
<g id="Node000003" class="node">
<title>Node3</title>
<g id="a_Node000003"><a target="_parent" xlink:href="https://doc.qt.io/qt-5/qstring.html#arg-1" xlink:title=" ">
<polygon fill="white" stroke="#666666" points="850,-369 776,-369 776,-350 850,-350 850,-369"/>
<text text-anchor="middle" x="813" y="-357" font-family="Helvetica,sans-Serif" font-size="10.00">QString::arg</text>
</a>
</g>
</g>
<!-- Node2&#45;&gt;Node3 -->
<g id="edge2_Node000002_Node000003" class="edge">
<title>Node2&#45;&gt;Node3</title>
<g id="a_edge2_Node000002_Node000003"><a xlink:title=" ">
<path fill="none" stroke="#63b8ff" d="M260.95,-480.8C272.86,-514.71 306.68,-595.71 367,-627.5 506.19,-700.86 593.11,-719.14 721,-627.5 804.48,-567.69 812.31,-426.92 812.37,-377.24"/>
<polygon fill="#63b8ff" stroke="#63b8ff" points="812.3,-369.06 815.96,-377.04 812.33,-373.06 812.36,-377.06 812.36,-377.06 812.36,-377.06 812.33,-373.06 808.76,-377.09 812.3,-369.06 812.3,-369.06"/>
</a>
</g>
</g>
<!-- Node4 -->
<g id="Node000004" class="node">
<title>Node4</title>
<g id="a_Node000004"><a xlink:href="classPokitDevice.html#a0a3e6078ce0a7c2d93171ef0f4183d61" target="_top" xlink:title="Returns a human&#45;readable name for the uuid characteristic, or a null QString if unknown.">
<polygon fill="white" stroke="#666666" points="513.5,-618.5 372.5,-618.5 372.5,-588.5 513.5,-588.5 513.5,-618.5"/>
<text text-anchor="start" x="380.5" y="-606.5" font-family="Helvetica,sans-Serif" font-size="10.00">PokitDevice::charcteristic</text>
<text text-anchor="middle" x="443" y="-595.5" font-family="Helvetica,sans-Serif" font-size="10.00">ToString</text>
</a>
</g>
</g>
<!-- Node2&#45;&gt;Node4 -->
<g id="edge3_Node000002_Node000004" class="edge">
<title>Node2&#45;&gt;Node4</title>
<g id="a_edge3_Node000002_Node000004"><a xlink:title=" ">
<path fill="none" stroke="#63b8ff" d="M276.26,-480.53C309.94,-505.52 377.47,-555.62 415.1,-583.54"/>
<polygon fill="#63b8ff" stroke="#63b8ff" points="421.77,-588.49 413.2,-586.61 418.55,-586.1 415.34,-583.72 415.34,-583.72 415.34,-583.72 418.55,-586.1 417.49,-580.83 421.77,-588.49 421.77,-588.49"/>
</a>
</g>
</g>
<!-- Node2&#45;&gt;Node6 -->
<g id="edge16_Node000002_Node000006" class="edge">
<title>Node2&#45;&gt;Node6</title>
<g id="a_edge16_Node000002_Node000006"><a xlink:title=" ">
<path fill="none" stroke="#63b8ff" d="M331.27,-469.25C410.35,-473.2 531.85,-479.26 595.25,-482.42"/>
<polygon fill="#63b8ff" stroke="#63b8ff" points="603.43,-482.83 595.26,-486.02 599.43,-482.63 595.44,-482.43 595.44,-482.43 595.44,-482.43 599.43,-482.63 595.62,-478.83 603.43,-482.83 603.43,-482.83"/>
</a>
</g>
</g>
<!-- Node8 -->
<g id="Node000008" class="node">
<title>Node8</title>
<g id="a_Node000008"><a target="_parent" xlink:href="https://doc.qt.io/qt-5/qbytearray.html#size" xlink:title=" ">
<polygon fill="white" stroke="#666666" points="862,-195 764,-195 764,-176 862,-176 862,-195"/>
<text text-anchor="middle" x="813" y="-183" font-family="Helvetica,sans-Serif" font-size="10.00">QByteArray::size</text>
</a>
</g>
</g>
<!-- Node2&#45;&gt;Node8 -->
<g id="edge7_Node000002_Node000008" class="edge">
<title>Node2&#45;&gt;Node8</title>
<g id="a_edge7_Node000002_Node000008"><a xlink:title=" ">
<path fill="none" stroke="#63b8ff" d="M262.4,-450.17C284.52,-397.31 356.97,-225.4 367,-217.5 400.39,-191.21 512.68,-186.41 555,-182.5 628.47,-175.72 647.23,-181.28 721,-182.5 732.19,-182.68 744.16,-183 755.61,-183.35"/>
<polygon fill="#63b8ff" stroke="#63b8ff" points="763.84,-183.62 755.72,-186.96 759.84,-183.49 755.84,-183.36 755.84,-183.36 755.84,-183.36 759.84,-183.49 755.96,-179.76 763.84,-183.62 763.84,-183.62"/>
</a>
</g>
</g>
<!-- Node9 -->
<g id="Node000009" class="node">
<title>Node9</title>
<g id="a_Node000009"><a xlink:href="classAbstractPokitServicePrivate.html#af748600fc201fe47f29b58e8e93179d8" target="_top" xlink:title="Returns up to maxSize bytes of data as a human readable hexadecimal string.">
<polygon fill="white" stroke="#666666" points="714,-297.5 562,-297.5 562,-267.5 714,-267.5 714,-297.5"/>
<text text-anchor="start" x="570" y="-285.5" font-family="Helvetica,sans-Serif" font-size="10.00">AbstractPokitServicePrivate</text>
<text text-anchor="middle" x="638" y="-274.5" font-family="Helvetica,sans-Serif" font-size="10.00">::toHexString</text>
</a>
</g>
</g>
<!-- Node2&#45;&gt;Node9 -->
<g id="edge8_Node000002_Node000009" class="edge">
<title>Node2&#45;&gt;Node9</title>
<g id="a_edge8_Node000002_Node000009"><a xlink:title=" ">
<path fill="none" stroke="#63b8ff" d="M331.23,-468.83C386.53,-468.04 461.71,-459.97 519,-427.5 569.97,-398.61 607.74,-338.36 625.57,-305.34"/>
<polygon fill="#63b8ff" stroke="#63b8ff" points="629.47,-297.96 628.92,-306.71 627.6,-301.5 625.74,-305.03 625.74,-305.03 625.74,-305.03 627.6,-301.5 622.55,-303.35 629.47,-297.96 629.47,-297.96"/>
</a>
</g>
</g>
<!-- Node14 -->
<g id="Node000014" class="node">
<title>Node14</title>
<g id="a_Node000014"><a target="_parent" xlink:href="https://doc.qt.io/qt-5/quuid.html#toString" xlink:title=" ">
<polygon fill="white" stroke="#666666" points="488.5,-532 397.5,-532 397.5,-513 488.5,-513 488.5,-532"/>
<text text-anchor="middle" x="443" y="-520" font-family="Helvetica,sans-Serif" font-size="10.00">QUuid::toString</text>
</a>
</g>
</g>
<!-- Node2&#45;&gt;Node14 -->
<g id="edge15_Node000002_Node000014" class="edge">
<title>Node2&#45;&gt;Node14</title>
<g id="a_edge15_Node000002_Node000014"><a xlink:title=" ">
<path fill="none" stroke="#63b8ff" d="M305.36,-480.63C335.95,-490 374.7,-501.87 403.11,-510.58"/>
<polygon fill="#63b8ff" stroke="#63b8ff" points="410.83,-512.95 402.13,-514.05 407.01,-511.78 403.18,-510.6 403.18,-510.6 403.18,-510.6 407.01,-511.78 404.24,-507.16 410.83,-512.95 410.83,-512.95"/>
</a>
</g>
</g>
<!-- Node2&#45;&gt;Node15 -->
<g id="edge17_Node000002_Node000015" class="edge">
<title>Node2&#45;&gt;Node15</title>
<g id="a_edge17_Node000002_Node000015"><a xlink:title=" ">
<path fill="none" stroke="#63b8ff" d="M301.03,-450.49C327.56,-441.65 361.27,-430.41 389.07,-421.14"/>
<polygon fill="#63b8ff" stroke="#63b8ff" points="396.74,-418.59 390.29,-424.53 392.95,-419.85 389.16,-421.12 389.16,-421.12 389.16,-421.12 392.95,-419.85 388.02,-417.7 396.74,-418.59 396.74,-418.59"/>
</a>
</g>
</g>
<!-- Node5 -->
<g id="Node000005" class="node">
<title>Node5</title>
<g id="a_Node000005"><a target="_parent" xlink:href="https://doc.qt.io/qt-5/qbluetoothuuid.html#characteristicToString" xlink:title=" ">
<polygon fill="white" stroke="#666666" points="721,-618.5 555,-618.5 555,-588.5 721,-588.5 721,-618.5"/>
<text text-anchor="start" x="563" y="-606.5" font-family="Helvetica,sans-Serif" font-size="10.00">QBluetoothUuid::characteristic</text>
<text text-anchor="middle" x="638" y="-595.5" font-family="Helvetica,sans-Serif" font-size="10.00">ToString</text>
</a>
</g>
</g>
<!-- Node4&#45;&gt;Node5 -->
<g id="edge4_Node000004_Node000005" class="edge">
<title>Node4&#45;&gt;Node5</title>
<g id="a_edge4_Node000004_Node000005"><a xlink:title=" ">
<path fill="none" stroke="#63b8ff" d="M513.68,-603.5C524.45,-603.5 535.71,-603.5 546.85,-603.5"/>
<polygon fill="#63b8ff" stroke="#63b8ff" points="554.94,-603.5 546.94,-607.1 550.94,-603.5 546.94,-603.5 546.94,-603.5 546.94,-603.5 550.94,-603.5 546.94,-599.9 554.94,-603.5 554.94,-603.5"/>
</a>
</g>
</g>
<!-- Node4&#45;&gt;Node6 -->
<g id="edge5_Node000004_Node000006" class="edge">
<title>Node4&#45;&gt;Node6</title>
<g id="a_edge5_Node000004_Node000006"><a xlink:title=" ">
<path fill="none" stroke="#63b8ff" d="M490.91,-588.47C500.52,-584.54 510.34,-579.87 519,-574.5 537.44,-563.05 538.05,-555.06 555,-541.5 574.67,-525.77 598.41,-509.54 615.28,-498.44"/>
<polygon fill="#63b8ff" stroke="#63b8ff" points="622.05,-494.02 617.33,-501.4 618.71,-496.2 615.36,-498.39 615.36,-498.39 615.36,-498.39 618.71,-496.2 613.39,-495.38 622.05,-494.02 622.05,-494.02"/>
</a>
</g>
</g>
<!-- Node7 -->
<g id="Node000007" class="node">
<title>Node7</title>
<g id="a_Node000007"><a target="_parent" xlink:href="https://doc.qt.io/qt-5/qhash.html#value" xlink:title=" ">
<polygon fill="white" stroke="#666666" points="679,-570 597,-570 597,-551 679,-551 679,-570"/>
<text text-anchor="middle" x="638" y="-558" font-family="Helvetica,sans-Serif" font-size="10.00">QHash::value</text>
</a>
</g>
</g>
<!-- Node4&#45;&gt;Node7 -->
<g id="edge6_Node000004_Node000007" class="edge">
<title>Node4&#45;&gt;Node7</title>
<g id="a_edge6_Node000004_Node000007"><a xlink:title=" ">
<path fill="none" stroke="#63b8ff" d="M511.5,-588.46C536.98,-582.78 565.43,-576.45 588.79,-571.24"/>
<polygon fill="#63b8ff" stroke="#63b8ff" points="596.83,-569.45 589.8,-574.7 592.92,-570.32 589.02,-571.19 589.02,-571.19 589.02,-571.19 592.92,-570.32 588.24,-567.68 596.83,-569.45 596.83,-569.45"/>
</a>
</g>
</g>
<!-- Node9&#45;&gt;Node3 -->
<g id="edge9_Node000009_Node000003" class="edge">
<title>Node9&#45;&gt;Node3</title>
<g id="a_edge9_Node000009_Node000003"><a xlink:title=" ">
<path fill="none" stroke="#63b8ff" d="M688.97,-297.61C699.78,-301.58 710.97,-306.24 721,-311.5 738.48,-320.66 739.71,-327.99 757,-337.5 763.15,-340.89 769.94,-344.03 776.58,-346.82"/>
<polygon fill="#63b8ff" stroke="#63b8ff" points="784.26,-349.93 775.49,-350.27 780.55,-348.43 776.84,-346.93 776.84,-346.93 776.84,-346.93 780.55,-348.43 778.19,-343.59 784.26,-349.93 784.26,-349.93"/>
</a>
</g>
</g>
<!-- Node9&#45;&gt;Node8 -->
<g id="edge13_Node000009_Node000008" class="edge">
<title>Node9&#45;&gt;Node8</title>
<g id="a_edge13_Node000009_Node000008"><a xlink:title=" ">
<path fill="none" stroke="#63b8ff" d="M689.47,-267.37C700.14,-263.42 711.15,-258.78 721,-253.5 738.63,-244.06 740.98,-238.48 757,-226.5 768.74,-217.72 781.9,-207.91 792.4,-200.09"/>
<polygon fill="#63b8ff" stroke="#63b8ff" points="798.88,-195.26 794.61,-202.93 795.67,-197.65 792.46,-200.04 792.46,-200.04 792.46,-200.04 795.67,-197.65 790.31,-197.16 798.88,-195.26 798.88,-195.26"/>
</a>
</g>
</g>
<!-- Node10 -->
<g id="Node000010" class="node">
<title>Node10</title>
<g id="a_Node000010"><a target="_parent" xlink:href="https://doc.qt.io/qt-5/qstring.html#fromLatin1" xlink:title=" ">
<polygon fill="white" stroke="#666666" points="869,-329 757,-329 757,-310 869,-310 869,-329"/>
<text text-anchor="middle" x="813" y="-317" font-family="Helvetica,sans-Serif" font-size="10.00">QString::fromLatin1</text>
</a>
</g>
</g>
<!-- Node9&#45;&gt;Node10 -->
<g id="edge10_Node000009_Node000010" class="edge">
<title>Node9&#45;&gt;Node10</title>
<g id="a_edge10_Node000009_Node000010"><a xlink:title=" ">
<path fill="none" stroke="#63b8ff" d="M709.37,-297.55C726.09,-301.13 743.66,-304.88 759.43,-308.26"/>
<polygon fill="#63b8ff" stroke="#63b8ff" points="767.5,-309.98 758.93,-311.83 763.59,-309.15 759.68,-308.31 759.68,-308.31 759.68,-308.31 763.59,-309.15 760.43,-304.79 767.5,-309.98 767.5,-309.98"/>
</a>
</g>
</g>
<!-- Node11 -->
<g id="Node000011" class="node">
<title>Node11</title>
<g id="a_Node000011"><a target="_parent" xlink:href="https://doc.qt.io/qt-5/qbytearray.html#left" xlink:title=" ">
<polygon fill="white" stroke="#666666" points="860,-292 766,-292 766,-273 860,-273 860,-292"/>
<text text-anchor="middle" x="813" y="-280" font-family="Helvetica,sans-Serif" font-size="10.00">QByteArray::left</text>
</a>
</g>
</g>
<!-- Node9&#45;&gt;Node11 -->
<g id="edge11_Node000009_Node000011" class="edge">
<title>Node9&#45;&gt;Node11</title>
<g id="a_edge11_Node000009_Node000011"><a xlink:title=" ">
<path fill="none" stroke="#63b8ff" d="M714.13,-282.5C728.62,-282.5 743.56,-282.5 757.26,-282.5"/>
<polygon fill="#63b8ff" stroke="#63b8ff" points="765.61,-282.5 757.61,-286.1 761.61,-282.5 757.61,-282.5 757.61,-282.5 757.61,-282.5 761.61,-282.5 757.61,-278.9 765.61,-282.5 765.61,-282.5"/>
</a>
</g>
</g>
<!-- Node12 -->
<g id="Node000012" class="node">
<title>Node12</title>
<g id="a_Node000012"><a target="_parent" xlink:href="https://doc.qt.io/qt-5/qbytearray.html#right" xlink:title=" ">
<polygon fill="white" stroke="#666666" points="863.5,-255 762.5,-255 762.5,-236 863.5,-236 863.5,-255"/>
<text text-anchor="middle" x="813" y="-243" font-family="Helvetica,sans-Serif" font-size="10.00">QByteArray::right</text>
</a>
</g>
</g>
<!-- Node9&#45;&gt;Node12 -->
<g id="edge12_Node000009_Node000012" class="edge">
<title>Node9&#45;&gt;Node12</title>
<g id="a_edge12_Node000009_Node000012"><a xlink:title=" ">
<path fill="none" stroke="#63b8ff" d="M709.37,-267.45C726.09,-263.87 743.66,-260.12 759.43,-256.74"/>
<polygon fill="#63b8ff" stroke="#63b8ff" points="767.5,-255.02 760.43,-260.21 763.59,-255.85 759.68,-256.69 759.68,-256.69 759.68,-256.69 763.59,-255.85 758.93,-253.17 767.5,-255.02 767.5,-255.02"/>
</a>
</g>
</g>
<!-- Node13 -->
<g id="Node000013" class="node">
<title>Node13</title>
<g id="a_Node000013"><a target="_parent" xlink:href="https://doc.qt.io/qt-5/qbytearray.html#toHex" xlink:title=" ">
<polygon fill="white" stroke="#666666" points="866.5,-137 759.5,-137 759.5,-118 866.5,-118 866.5,-137"/>
<text text-anchor="middle" x="813" y="-125" font-family="Helvetica,sans-Serif" font-size="10.00">QByteArray::toHex</text>
</a>
</g>
</g>
<!-- Node9&#45;&gt;Node13 -->
<g id="edge14_Node000009_Node000013" class="edge">
<title>Node9&#45;&gt;Node13</title>
<g id="a_edge14_Node000009_Node000013"><a xlink:title=" ">
<path fill="none" stroke="#63b8ff" d="M662.53,-267.43C679.86,-255.64 703.39,-238.18 721,-219.5 740.54,-198.78 737.07,-186.84 757,-166.5 766.32,-156.99 778.22,-148.23 788.56,-141.43"/>
<polygon fill="#63b8ff" stroke="#63b8ff" points="795.42,-137.06 790.61,-144.39 792.05,-139.21 788.68,-141.36 788.68,-141.36 788.68,-141.36 792.05,-139.21 786.74,-138.32 795.42,-137.06 795.42,-137.06"/>
</a>
</g>
</g>
<!-- Node17&#45;&gt;Node3 -->
<g id="edge20_Node000017_Node000003" class="edge">
<title>Node17&#45;&gt;Node3</title>
<g id="a_edge20_Node000017_Node000003"><a xlink:title=" ">
<path fill="none" stroke="#63b8ff" d="M301.25,-276.52C359.3,-295.11 463.44,-326.19 555,-341.5 628.97,-353.87 716.29,-357.76 767.74,-358.97"/>
<polygon fill="#63b8ff" stroke="#63b8ff" points="775.99,-359.15 767.91,-362.57 771.99,-359.06 767.99,-358.97 767.99,-358.97 767.99,-358.97 771.99,-359.06 768.07,-355.37 775.99,-359.15 775.99,-359.15"/>
</a>
</g>
</g>
<!-- Node17&#45;&gt;Node6 -->
<g id="edge33_Node000017_Node000006" class="edge">
<title>Node17&#45;&gt;Node6</title>
<g id="a_edge33_Node000017_Node000006"><a xlink:title=" ">
<path fill="none" stroke="#63b8ff" d="M274.53,-276.76C295.71,-293.53 331.99,-320.23 367,-336.5 430.67,-366.08 457.44,-345.75 519,-379.5 562.33,-403.25 603.13,-445.6 623.49,-468.59"/>
<polygon fill="#63b8ff" stroke="#63b8ff" points="628.91,-474.79 620.93,-471.13 626.28,-471.78 623.65,-468.76 623.65,-468.76 623.65,-468.76 626.28,-471.78 626.36,-466.4 628.91,-474.79 628.91,-474.79"/>
</a>
</g>
</g>
<!-- Node17&#45;&gt;Node8 -->
<g id="edge30_Node000017_Node000008" class="edge">
<title>Node17&#45;&gt;Node8</title>
<g id="a_edge30_Node000017_Node000008"><a xlink:title=" ">
<path fill="none" stroke="#63b8ff" d="M314.88,-246.34C320.55,-243.81 326.03,-240.88 331,-237.5 351.89,-223.29 345.56,-206.87 367,-193.5 439.82,-148.1 469.75,-159.34 555,-149.5 628.29,-141.04 648.53,-135.69 721,-149.5 743.87,-153.86 768.32,-163.86 786.12,-172.22"/>
<polygon fill="#63b8ff" stroke="#63b8ff" points="793.8,-175.92 785.03,-175.69 790.19,-174.19 786.59,-172.45 786.59,-172.45 786.59,-172.45 790.19,-174.19 788.15,-169.21 793.8,-175.92 793.8,-175.92"/>
</a>
</g>
</g>
<!-- Node17&#45;&gt;Node9 -->
<g id="edge32_Node000017_Node000009" class="edge">
<title>Node17&#45;&gt;Node9</title>
<g id="a_edge32_Node000017_Node000009"><a xlink:title=" ">
<path fill="none" stroke="#63b8ff" d="M326.77,-265.4C390.98,-268.94 485.71,-274.16 553.58,-277.9"/>
<polygon fill="#63b8ff" stroke="#63b8ff" points="561.72,-278.35 553.53,-281.5 557.72,-278.13 553.73,-277.91 553.73,-277.91 553.73,-277.91 557.72,-278.13 553.93,-274.32 561.72,-278.35 561.72,-278.35"/>
</a>
</g>
</g>
<!-- Node17&#45;&gt;Node13 -->
<g id="edge31_Node000017_Node000013" class="edge">
<title>Node17&#45;&gt;Node13</title>
<g id="a_edge31_Node000017_Node000013"><a xlink:title=" ">
<path fill="none" stroke="#63b8ff" d="M318.6,-246.4C323.08,-243.88 327.29,-240.93 331,-237.5 362.03,-208.82 332.68,-174.16 367,-149.5 490.07,-61.06 685.42,-95.11 770.32,-115.96"/>
<polygon fill="#63b8ff" stroke="#63b8ff" points="778.19,-117.93 769.55,-119.47 774.31,-116.96 770.43,-115.98 770.43,-115.98 770.43,-115.98 774.31,-116.96 771.3,-112.49 778.19,-117.93 778.19,-117.93"/>
</a>
</g>
</g>
<!-- Node18 -->
<g id="Node000018" class="node">
<title>Node18</title>
<g id="a_Node000018"><a target="_parent" xlink:href="https://doc.qt.io/qt-5/qbytearray.html#at" xlink:title=" ">
<polygon fill="white" stroke="#666666" points="487,-56 399,-56 399,-37 487,-37 487,-56"/>
<text text-anchor="middle" x="443" y="-44" font-family="Helvetica,sans-Serif" font-size="10.00">QByteArray::at</text>
</a>
</g>
</g>
<!-- Node17&#45;&gt;Node18 -->
<g id="edge21_Node000017_Node000018" class="edge">
<title>Node17&#45;&gt;Node18</title>
<g id="a_edge21_Node000017_Node000018"><a xlink:title=" ">
<path fill="none" stroke="#63b8ff" d="M320.34,-246.42C324.26,-243.89 327.88,-240.94 331,-237.5 382.01,-181.26 315.99,-126.74 367,-70.5 373.46,-63.38 382.03,-58.36 391.06,-54.83"/>
<polygon fill="#63b8ff" stroke="#63b8ff" points="398.72,-52.19 392.32,-58.2 394.94,-53.49 391.15,-54.79 391.15,-54.79 391.15,-54.79 394.94,-53.49 389.98,-51.39 398.72,-52.19 398.72,-52.19"/>
</a>
</g>
</g>
<!-- Node19 -->
<g id="Node000019" class="node">
<title>Node19</title>
<g id="a_Node000019"><a xlink:href="classAbstractPokitServicePrivate.html#af8b480a950244540bfff7fc4b476a0ef" target="_top" xlink:title="Returns false if data is smaller than minSize, otherwise returns failOnMax if data is bigger than max...">
<polygon fill="white" stroke="#666666" points="519,-256.5 367,-256.5 367,-226.5 519,-226.5 519,-256.5"/>
<text text-anchor="start" x="375" y="-244.5" font-family="Helvetica,sans-Serif" font-size="10.00">AbstractPokitServicePrivate</text>
<text text-anchor="middle" x="443" y="-233.5" font-family="Helvetica,sans-Serif" font-size="10.00">::checkSize</text>
</a>
</g>
</g>
<!-- Node17&#45;&gt;Node19 -->
<g id="edge22_Node000017_Node000019" class="edge">
<title>Node17&#45;&gt;Node19</title>
<g id="a_edge22_Node000017_Node000019"><a xlink:title=" ">
<path fill="none" stroke="#63b8ff" d="M326.58,-253.91C337.07,-252.78 347.95,-251.61 358.67,-250.46"/>
<polygon fill="#63b8ff" stroke="#63b8ff" points="366.82,-249.58 359.25,-254.02 362.84,-250.01 358.86,-250.44 358.86,-250.44 358.86,-250.44 362.84,-250.01 358.48,-246.86 366.82,-249.58 366.82,-249.58"/>
</a>
</g>
</g>
<!-- Node20 -->
<g id="Node000020" class="node">
<title>Node20</title>
<g id="a_Node000020"><a target="_parent" xlink:href="https://doc.qt.io/qt-5/qbytearray.html#mid" xlink:title=" ">
<polygon fill="white" stroke="#666666" points="686.5,-211 589.5,-211 589.5,-192 686.5,-192 686.5,-211"/>
<text text-anchor="middle" x="638" y="-199" font-family="Helvetica,sans-Serif" font-size="10.00">QByteArray::mid</text>
</a>
</g>
</g>
<!-- Node17&#45;&gt;Node20 -->
<g id="edge29_Node000017_Node000020" class="edge">
<title>Node17&#45;&gt;Node20</title>
<g id="a_edge29_Node000017_Node000020"><a xlink:title=" ">
<path fill="none" stroke="#63b8ff" d="M307.73,-246.43C315.62,-243.7 323.6,-240.7 331,-237.5 347.8,-230.23 349.43,-222.61 367,-217.5 438.62,-196.66 525.31,-195.52 580.8,-197.66"/>
<polygon fill="#63b8ff" stroke="#63b8ff" points="589.09,-198.01 580.95,-201.27 585.1,-197.84 581.1,-197.67 581.1,-197.67 581.1,-197.67 585.1,-197.84 581.25,-194.08 589.09,-198.01 589.09,-198.01"/>
</a>
</g>
</g>
<!-- Node21 -->
<g id="Node000021" class="node">
<title>Node21</title>
<g id="a_Node000021"><a target="_parent" xlink:href="https://doc.qt.io/qt-5/qbytearray.html#constData" xlink:title=" ">
<polygon fill="white" stroke="#666666" points="507,-19 379,-19 379,0 507,0 507,-19"/>
<text text-anchor="middle" x="443" y="-7" font-family="Helvetica,sans-Serif" font-size="10.00">QByteArray::constData</text>
</a>
</g>
</g>
<!-- Node17&#45;&gt;Node21 -->
<g id="edge28_Node000017_Node000021" class="edge">
<title>Node17&#45;&gt;Node21</title>
<g id="a_edge28_Node000017_Node000021"><a xlink:title=" ">
<path fill="none" stroke="#63b8ff" d="M320.85,-246.35C324.6,-243.83 328.04,-240.91 331,-237.5 393.11,-166.02 302.28,-96.62 367,-27.5 368.48,-25.92 370.08,-24.46 371.76,-23.13"/>
<polygon fill="#63b8ff" stroke="#63b8ff" points="378.68,-18.54 374,-25.96 375.35,-20.75 372.01,-22.96 372.01,-22.96 372.01,-22.96 375.35,-20.75 370.02,-19.96 378.68,-18.54 378.68,-18.54"/>
</a>
</g>
</g>
<!-- Node19&#45;&gt;Node3 -->
<g id="edge23_Node000019_Node000003" class="edge">
<title>Node19&#45;&gt;Node3</title>
<g id="a_edge23_Node000019_Node000003"><a xlink:title=" ">
<path fill="none" stroke="#63b8ff" d="M465.05,-256.66C486.62,-271.5 521.64,-293.69 555,-306.5 626.66,-334.01 715.31,-348.27 767.56,-354.8"/>
<polygon fill="#63b8ff" stroke="#63b8ff" points="775.62,-355.78 767.24,-358.39 771.65,-355.3 767.68,-354.81 767.68,-354.81 767.68,-354.81 771.65,-355.3 768.11,-351.24 775.62,-355.78 775.62,-355.78"/>
</a>
</g>
</g>
<!-- Node19&#45;&gt;Node6 -->
<g id="edge27_Node000019_Node000006" class="edge">
<title>Node19&#45;&gt;Node6</title>
<g id="a_edge27_Node000019_Node000006"><a xlink:title=" ">
<path fill="none" stroke="#63b8ff" d="M456.07,-256.7C490.54,-300.1 589.17,-424.28 624.35,-468.57"/>
<polygon fill="#63b8ff" stroke="#63b8ff" points="629.43,-474.96 621.63,-470.94 626.94,-471.83 624.45,-468.7 624.45,-468.7 624.45,-468.7 626.94,-471.83 627.27,-466.46 629.43,-474.96 629.43,-474.96"/>
</a>
</g>
</g>
<!-- Node19&#45;&gt;Node8 -->
<g id="edge25_Node000019_Node000008" class="edge">
<title>Node19&#45;&gt;Node8</title>
<g id="a_edge25_Node000019_Node000008"><a xlink:title=" ">
<path fill="none" stroke="#63b8ff" d="M519.2,-241.15C575.39,-239.54 653.77,-234.42 721,-219.5 742.7,-214.68 766.18,-205.81 783.85,-198.34"/>
<polygon fill="#63b8ff" stroke="#63b8ff" points="791.54,-195.02 785.62,-201.5 787.87,-196.61 784.19,-198.19 784.19,-198.19 784.19,-198.19 787.87,-196.61 782.77,-194.89 791.54,-195.02 791.54,-195.02"/>
</a>
</g>
</g>
<!-- Node19&#45;&gt;Node9 -->
<g id="edge26_Node000019_Node000009" class="edge">
<title>Node19&#45;&gt;Node9</title>
<g id="a_edge26_Node000019_Node000009"><a xlink:title=" ">
<path fill="none" stroke="#63b8ff" d="M514.77,-256.53C528.93,-259.54 543.89,-262.72 558.3,-265.78"/>
<polygon fill="#63b8ff" stroke="#63b8ff" points="566.24,-267.47 557.66,-269.33 562.33,-266.64 558.41,-265.81 558.41,-265.81 558.41,-265.81 562.33,-266.64 559.16,-262.28 566.24,-267.47 566.24,-267.47"/>
</a>
</g>
</g>
<!-- Node19&#45;&gt;Node20 -->
<g id="edge24_Node000019_Node000020" class="edge">
<title>Node19&#45;&gt;Node20</title>
<g id="a_edge24_Node000019_Node000020"><a xlink:title=" ">
<path fill="none" stroke="#63b8ff" d="M516.42,-226.49C538.51,-221.91 562.41,-216.96 583.05,-212.68"/>
<polygon fill="#63b8ff" stroke="#63b8ff" points="591.09,-211.01 583.99,-216.16 587.17,-211.83 583.26,-212.64 583.26,-212.64 583.26,-212.64 587.17,-211.83 582.53,-209.11 591.09,-211.01 591.09,-211.01"/>
</a>
</g>
</g>
</g>
</svg>
