<?xml version="1.0" encoding="UTF-8" standalone="no"?>
<!DOCTYPE svg PUBLIC "-//W3C//DTD SVG 1.1//EN"
 "http://www.w3.org/Graphics/SVG/1.1/DTD/svg11.dtd">
<!-- Generated by graphviz version 2.43.0 (0)
 -->
<!-- Title: abstractpokitservice.h Pages: 1 -->
<svg width="1276pt" height="137pt"
 viewBox="0.00 0.00 1276.00 137.00" xmlns="http://www.w3.org/2000/svg" xmlns:xlink="http://www.w3.org/1999/xlink">
<g id="graph0" class="graph" transform="scale(1 1) rotate(0) translate(4 133)">
<title>abstractpokitservice.h</title>
<!-- Node1 -->
<g id="node1" class="node">
<title>Node1</title>
<g id="a_node1"><a xlink:title="Declares the AbstractPokitService class.">
<polygon fill="#999999" stroke="#666666" points="579,-129 454,-129 454,-110 579,-110 579,-129"/>
<text text-anchor="middle" x="516.5" y="-117" font-family="Helvetica,sans-Serif" font-size="10.00">abstractpokitservice.h</text>
</a>
</g>
</g>
<!-- Node2 -->
<g id="node2" class="node">
<title>Node2</title>
<g id="a_node2"><a xlink:href="abstractpokitservice_8cpp.html" target="_top" xlink:title="Defines the AbstractPokitService and AbstractPokitServicePrivate classes.">
<polygon fill="white" stroke="#666666" points="137,-74 0,-74 0,-55 137,-55 137,-74"/>
<text text-anchor="middle" x="68.5" y="-62" font-family="Helvetica,sans-Serif" font-size="10.00">abstractpokitservice.cpp</text>
</a>
</g>
</g>
<!-- Node1&#45;&gt;Node2 -->
<g id="edge1" class="edge">
<title>Node1&#45;&gt;Node2</title>
<path fill="none" stroke="#63b8ff" d="M443.67,-109.88C358.91,-99.86 219.98,-83.42 137.08,-73.61"/>
<polygon fill="#63b8ff" stroke="#63b8ff" points="443.39,-113.38 453.74,-111.07 444.22,-106.42 443.39,-113.38"/>
</g>
<!-- Node3 -->
<g id="node3" class="node">
<title>Node3</title>
<g id="a_node3"><a xlink:href="calibrationservice_8h.html" target="_top" xlink:title="Declares the CalibrationService class.">
<polygon fill="white" stroke="#666666" points="268,-74 155,-74 155,-55 268,-55 268,-74"/>
<text text-anchor="middle" x="211.5" y="-62" font-family="Helvetica,sans-Serif" font-size="10.00">calibrationservice.h</text>
</a>
</g>
</g>
<!-- Node1&#45;&gt;Node3 -->
<g id="edge2" class="edge">
<title>Node1&#45;&gt;Node3</title>
<path fill="none" stroke="#63b8ff" d="M457.5,-108.25C400.23,-98.3 314.3,-83.36 260.63,-74.04"/>
<polygon fill="#63b8ff" stroke="#63b8ff" points="457.04,-111.72 467.5,-109.98 458.24,-104.82 457.04,-111.72"/>
</g>
<!-- Node6 -->
<g id="node6" class="node">
<title>Node6</title>
<g id="a_node6"><a xlink:href="dataloggerservice_8h.html" target="_top" xlink:title="Declares the DataLoggerService class.">
<polygon fill="white" stroke="#666666" points="908,-74 795,-74 795,-55 908,-55 908,-74"/>
<text text-anchor="middle" x="851.5" y="-62" font-family="Helvetica,sans-Serif" font-size="10.00">dataloggerservice.h</text>
</a>
</g>
</g>
<!-- Node1&#45;&gt;Node6 -->
<g id="edge5" class="edge">
<title>Node1&#45;&gt;Node6</title>
<path fill="none" stroke="#63b8ff" d="M580.52,-108.37C643.42,-98.42 738.34,-83.4 797.53,-74.04"/>
<polygon fill="#63b8ff" stroke="#63b8ff" points="579.65,-104.96 570.32,-109.98 580.75,-111.88 579.65,-104.96"/>
</g>
<!-- Node8 -->
<g id="node8" class="node">
<title>Node8</title>
<g id="a_node8"><a xlink:href="deviceinfoservice_8h.html" target="_top" xlink:title="Declares the DeviceInfoService class.">
<polygon fill="white" stroke="#666666" points="398.5,-74 286.5,-74 286.5,-55 398.5,-55 398.5,-74"/>
<text text-anchor="middle" x="342.5" y="-62" font-family="Helvetica,sans-Serif" font-size="10.00">deviceinfoservice.h</text>
</a>
</g>
</g>
<!-- Node1&#45;&gt;Node8 -->
<g id="edge8" class="edge">
<title>Node1&#45;&gt;Node8</title>
<path fill="none" stroke="#63b8ff" d="M478.93,-107.06C446.41,-97.15 400.1,-83.04 370.68,-74.08"/>
<polygon fill="#63b8ff" stroke="#63b8ff" points="477.96,-110.42 488.54,-109.98 480,-103.72 477.96,-110.42"/>
</g>
<!-- Node10 -->
<g id="node10" class="node">
<title>Node10</title>
<g id="a_node10"><a xlink:href="dsoservice_8h.html" target="_top" xlink:title="Declares the DsoService class.">
<polygon fill="white" stroke="#666666" points="494.5,-74 416.5,-74 416.5,-55 494.5,-55 494.5,-74"/>
<text text-anchor="middle" x="455.5" y="-62" font-family="Helvetica,sans-Serif" font-size="10.00">dsoservice.h</text>
</a>
</g>
</g>
<!-- Node1&#45;&gt;Node10 -->
<g id="edge11" class="edge">
<title>Node1&#45;&gt;Node10</title>
<path fill="none" stroke="#63b8ff" d="M499.03,-103.32C488.16,-93.87 474.56,-82.06 465.48,-74.17"/>
<polygon fill="#63b8ff" stroke="#63b8ff" points="496.85,-106.07 506.7,-109.98 501.45,-100.78 496.85,-106.07"/>
</g>
<!-- Node12 -->
<g id="node12" class="node">
<title>Node12</title>
<g id="a_node12"><a xlink:href="genericaccessservice_8h.html" target="_top" xlink:title="Declares the GenericAccessService class.">
<polygon fill="white" stroke="#666666" points="642.5,-74 512.5,-74 512.5,-55 642.5,-55 642.5,-74"/>
<text text-anchor="middle" x="577.5" y="-62" font-family="Helvetica,sans-Serif" font-size="10.00">genericaccessservice.h</text>
</a>
</g>
</g>
<!-- Node1&#45;&gt;Node12 -->
<g id="edge14" class="edge">
<title>Node1&#45;&gt;Node12</title>
<path fill="none" stroke="#63b8ff" d="M533.97,-103.32C544.84,-93.87 558.44,-82.06 567.52,-74.17"/>
<polygon fill="#63b8ff" stroke="#63b8ff" points="531.55,-100.78 526.3,-109.98 536.15,-106.07 531.55,-100.78"/>
</g>
<!-- Node14 -->
<g id="node14" class="node">
<title>Node14</title>
<g id="a_node14"><a xlink:href="multimeterservice_8h.html" target="_top" xlink:title="Declares the MultimeterService class.">
<polygon fill="white" stroke="#666666" points="776.5,-74 660.5,-74 660.5,-55 776.5,-55 776.5,-74"/>
<text text-anchor="middle" x="718.5" y="-62" font-family="Helvetica,sans-Serif" font-size="10.00">multimeterservice.h</text>
</a>
</g>
</g>
<!-- Node1&#45;&gt;Node14 -->
<g id="edge17" class="edge">
<title>Node1&#45;&gt;Node14</title>
<path fill="none" stroke="#63b8ff" d="M558.66,-107.44C596.48,-97.52 651.19,-83.16 685.79,-74.08"/>
<polygon fill="#63b8ff" stroke="#63b8ff" points="557.74,-104.06 548.95,-109.98 559.52,-110.83 557.74,-104.06"/>
</g>
<!-- Node16 -->
<g id="node16" class="node">
<title>Node16</title>
<g id="a_node16"><a xlink:href="statusservice_8h.html" target="_top" xlink:title="Declares the StatusService class.">
<polygon fill="white" stroke="#666666" points="1017,-74 926,-74 926,-55 1017,-55 1017,-74"/>
<text text-anchor="middle" x="971.5" y="-62" font-family="Helvetica,sans-Serif" font-size="10.00">statusservice.h</text>
</a>
</g>
</g>
<!-- Node1&#45;&gt;Node16 -->
<g id="edge20" class="edge">
<title>Node1&#45;&gt;Node16</title>
<path fill="none" stroke="#63b8ff" d="M589.14,-111.44C669.57,-103.4 802.99,-89.36 917.5,-74 920.23,-73.63 923.03,-73.24 925.86,-72.83"/>
<polygon fill="#63b8ff" stroke="#63b8ff" points="588.72,-107.97 579.12,-112.44 589.42,-114.93 588.72,-107.97"/>
</g>
<!-- Node4 -->
<g id="node4" class="node">
<title>Node4</title>
<g id="a_node4"><a xlink:href="calibrationservice_8cpp.html" target="_top" xlink:title="Defines the CalibrationService and CalibrationServicePrivate classes.">
<polygon fill="white" stroke="#666666" points="183.5,-19 59.5,-19 59.5,0 183.5,0 183.5,-19"/>
<text text-anchor="middle" x="121.5" y="-7" font-family="Helvetica,sans-Serif" font-size="10.00">calibrationservice.cpp</text>
</a>
</g>
</g>
<!-- Node3&#45;&gt;Node4 -->
<g id="edge3" class="edge">
<title>Node3&#45;&gt;Node4</title>
<path fill="none" stroke="#63b8ff" d="M188.06,-49.7C171.66,-40.04 150.27,-27.44 136.22,-19.17"/>
<polygon fill="#63b8ff" stroke="#63b8ff" points="186.65,-52.93 197.04,-54.98 190.2,-46.89 186.65,-52.93"/>
</g>
<!-- Node5 -->
<g id="node5" class="node">
<title>Node5</title>
<g id="a_node5"><a xlink:href="pokitdevice_8cpp.html" target="_top" xlink:title="Defines the PokitDevice and PokitDevicePrivate classes.">
<polygon fill="white" stroke="#666666" points="544.5,-19 450.5,-19 450.5,0 544.5,0 544.5,-19"/>
<text text-anchor="middle" x="497.5" y="-7" font-family="Helvetica,sans-Serif" font-size="10.00">pokitdevice.cpp</text>
</a>
</g>
</g>
<!-- Node3&#45;&gt;Node5 -->
<g id="edge4" class="edge">
<title>Node3&#45;&gt;Node5</title>
<path fill="none" stroke="#63b8ff" d="M267.47,-53.13C321.09,-43.19 401.05,-28.37 451.19,-19.08"/>
<polygon fill="#63b8ff" stroke="#63b8ff" points="266.65,-49.72 257.45,-54.98 267.92,-56.6 266.65,-49.72"/>
</g>
<!-- Node6&#45;&gt;Node5 -->
<g id="edge7" class="edge">
<title>Node6&#45;&gt;Node5</title>
<path fill="none" stroke="#63b8ff" d="M784.57,-53.48C714.48,-42.99 606.2,-26.77 544.61,-17.55"/>
<polygon fill="#63b8ff" stroke="#63b8ff" points="784.22,-56.97 794.62,-54.98 785.25,-50.04 784.22,-56.97"/>
</g>
<!-- Node7 -->
<g id="node7" class="node">
<title>Node7</title>
<g id="a_node7"><a xlink:href="dataloggerservice_8cpp.html" target="_top" xlink:title="Defines the DataLoggerService and DataLoggerServicePrivate classes.">
<polygon fill="white" stroke="#666666" points="992,-19 867,-19 867,0 992,0 992,-19"/>
<text text-anchor="middle" x="929.5" y="-7" font-family="Helvetica,sans-Serif" font-size="10.00">dataloggerservice.cpp</text>
</a>
</g>
</g>
<!-- Node6&#45;&gt;Node7 -->
<g id="edge6" class="edge">
<title>Node6&#45;&gt;Node7</title>
<path fill="none" stroke="#63b8ff" d="M872.62,-49.15C886.71,-39.57 904.79,-27.29 916.74,-19.17"/>
<polygon fill="#63b8ff" stroke="#63b8ff" points="870.34,-46.47 864.03,-54.98 874.27,-52.26 870.34,-46.47"/>
</g>
<!-- Node8&#45;&gt;Node5 -->
<g id="edge10" class="edge">
<title>Node8&#45;&gt;Node5</title>
<path fill="none" stroke="#63b8ff" d="M377.1,-51.67C406,-41.79 446.53,-27.93 472.4,-19.08"/>
<polygon fill="#63b8ff" stroke="#63b8ff" points="375.73,-48.44 367.4,-54.98 378,-55.06 375.73,-48.44"/>
</g>
<!-- Node9 -->
<g id="node9" class="node">
<title>Node9</title>
<g id="a_node9"><a xlink:href="deviceinfoservice_8cpp.html" target="_top" xlink:title="Defines the DeviceInfoService and DeviceInfoServicePrivate classes.">
<polygon fill="white" stroke="#666666" points="325,-19 202,-19 202,0 325,0 325,-19"/>
<text text-anchor="middle" x="263.5" y="-7" font-family="Helvetica,sans-Serif" font-size="10.00">deviceinfoservice.cpp</text>
</a>
</g>
</g>
<!-- Node8&#45;&gt;Node9 -->
<g id="edge9" class="edge">
<title>Node8&#45;&gt;Node9</title>
<path fill="none" stroke="#63b8ff" d="M321.11,-49.15C306.83,-39.57 288.53,-27.29 276.42,-19.17"/>
<polygon fill="#63b8ff" stroke="#63b8ff" points="319.55,-52.32 329.81,-54.98 323.45,-46.51 319.55,-52.32"/>
</g>
<!-- Node10&#45;&gt;Node5 -->
<g id="edge13" class="edge">
<title>Node10&#45;&gt;Node5</title>
<path fill="none" stroke="#63b8ff" d="M468.83,-46.67C476.11,-37.5 484.8,-26.52 490.69,-19.09"/>
<polygon fill="#63b8ff" stroke="#63b8ff" points="465.9,-44.74 462.44,-54.75 471.39,-49.08 465.9,-44.74"/>
</g>
<!-- Node11 -->
<g id="node11" class="node">
<title>Node11</title>
<g id="a_node11"><a xlink:href="dsoservice_8cpp.html" target="_top" xlink:title="Defines the DsoService and DsoServicePrivate classes.">
<polygon fill="white" stroke="#666666" points="432,-19 343,-19 343,0 432,0 432,-19"/>
<text text-anchor="middle" x="387.5" y="-7" font-family="Helvetica,sans-Serif" font-size="10.00">dsoservice.cpp</text>
</a>
</g>
</g>
<!-- Node10&#45;&gt;Node11 -->
<g id="edge12" class="edge">
<title>Node10&#45;&gt;Node11</title>
<path fill="none" stroke="#63b8ff" d="M436.38,-48.6C424.2,-39.11 408.84,-27.13 398.62,-19.17"/>
<polygon fill="#63b8ff" stroke="#63b8ff" points="434.54,-51.6 444.57,-54.98 438.84,-46.08 434.54,-51.6"/>
</g>
<!-- Node12&#45;&gt;Node5 -->
<g id="edge16" class="edge">
<title>Node12&#45;&gt;Node5</title>
<path fill="none" stroke="#63b8ff" d="M556.25,-49.42C541.74,-39.81 522.96,-27.37 510.59,-19.17"/>
<polygon fill="#63b8ff" stroke="#63b8ff" points="554.38,-52.38 564.65,-54.98 558.24,-46.54 554.38,-52.38"/>
</g>
<!-- Node13 -->
<g id="node13" class="node">
<title>Node13</title>
<g id="a_node13"><a xlink:href="genericaccessservice_8cpp.html" target="_top" xlink:title="Defines the GenericAccessService and GenericAccessServicePrivate classes.">
<polygon fill="white" stroke="#666666" points="704,-19 563,-19 563,0 704,0 704,-19"/>
<text text-anchor="middle" x="633.5" y="-7" font-family="Helvetica,sans-Serif" font-size="10.00">genericaccessservice.cpp</text>
</a>
</g>
</g>
<!-- Node12&#45;&gt;Node13 -->
<g id="edge15" class="edge">
<title>Node12&#45;&gt;Node13</title>
<path fill="none" stroke="#63b8ff" d="M593.83,-48.04C603.76,-38.64 616.09,-26.98 624.34,-19.17"/>
<polygon fill="#63b8ff" stroke="#63b8ff" points="591.35,-45.57 586.5,-54.98 596.17,-50.65 591.35,-45.57"/>
</g>
<!-- Node14&#45;&gt;Node5 -->
<g id="edge19" class="edge">
<title>Node14&#45;&gt;Node5</title>
<path fill="none" stroke="#63b8ff" d="M673.16,-52.63C631.76,-42.7 571.38,-28.22 533.29,-19.08"/>
<polygon fill="#63b8ff" stroke="#63b8ff" points="672.45,-56.06 682.99,-54.98 674.08,-49.25 672.45,-56.06"/>
</g>
<!-- Node15 -->
<g id="node15" class="node">
<title>Node15</title>
<g id="a_node15"><a xlink:href="multimeterservice_8cpp.html" target="_top" xlink:title="Defines the MultimeterService and MultimeterServicePrivate classes.">
<polygon fill="white" stroke="#666666" points="849,-19 722,-19 722,0 849,0 849,-19"/>
<text text-anchor="middle" x="785.5" y="-7" font-family="Helvetica,sans-Serif" font-size="10.00">multimeterservice.cpp</text>
</a>
</g>
</g>
<!-- Node14&#45;&gt;Node15 -->
<g id="edge18" class="edge">
<title>Node14&#45;&gt;Node15</title>
<path fill="none" stroke="#63b8ff" d="M737.33,-48.6C749.34,-39.11 764.47,-27.13 774.54,-19.17"/>
<polygon fill="#63b8ff" stroke="#63b8ff" points="734.94,-46.04 729.26,-54.98 739.28,-51.53 734.94,-46.04"/>
</g>
<!-- Node16&#45;&gt;Node5 -->
<g id="edge22" class="edge">
<title>Node16&#45;&gt;Node5</title>
<path fill="none" stroke="#63b8ff" d="M915.61,-54.82C754.95,-34.56 712.09,-38.55 554.5,-19 551.32,-18.61 548.05,-18.18 544.75,-17.73"/>
<polygon fill="#63b8ff" stroke="#63b8ff" points="915.5,-58.34 925.86,-56.13 916.38,-51.39 915.5,-58.34"/>
</g>
<!-- Node16&#45;&gt;Node7 -->
<g id="edge21" class="edge">
<title>Node16&#45;&gt;Node7</title>
<path fill="none" stroke="#63b8ff" d="M958.17,-46.67C950.89,-37.5 942.2,-26.52 936.31,-19.09"/>
<polygon fill="#63b8ff" stroke="#63b8ff" points="955.61,-49.08 964.56,-54.75 961.1,-44.74 955.61,-49.08"/>
</g>
<!-- Node17 -->
<g id="node17" class="node">
<title>Node17</title>
<g id="a_node17"><a xlink:href="pokitdiscoveryagent_8cpp.html" target="_top" xlink:title="Defines the PokitDiscoveryAgent and PokitDiscoveryAgentPrivate classes.">
<polygon fill="white" stroke="#666666" points="1268,-19 1131,-19 1131,0 1268,0 1268,-19"/>
<text text-anchor="middle" x="1199.5" y="-7" font-family="Helvetica,sans-Serif" font-size="10.00">pokitdiscoveryagent.cpp</text>
</a>
</g>
</g>
<!-- Node16&#45;&gt;Node17 -->
<g id="edge23" class="edge">
<title>Node16&#45;&gt;Node17</title>
<path fill="none" stroke="#63b8ff" d="M1018,-52.69C1060.72,-42.76 1123.2,-28.24 1162.58,-19.08"/>
<polygon fill="#63b8ff" stroke="#63b8ff" points="1017.08,-49.31 1008.13,-54.98 1018.66,-56.13 1017.08,-49.31"/>
</g>
<!-- Node18 -->
<g id="node18" class="node">
<title>Node18</title>
<g id="a_node18"><a xlink:href="statusservice_8cpp.html" target="_top" xlink:title="Defines the StatusService and StatusServicePrivate classes.">
<polygon fill="white" stroke="#666666" points="1112.5,-19 1010.5,-19 1010.5,0 1112.5,0 1112.5,-19"/>
<text text-anchor="middle" x="1061.5" y="-7" font-family="Helvetica,sans-Serif" font-size="10.00">statusservice.cpp</text>
</a>
</g>
</g>
<!-- Node16&#45;&gt;Node18 -->
<g id="edge24" class="edge">
<title>Node16&#45;&gt;Node18</title>
<path fill="none" stroke="#63b8ff" d="M994.94,-49.7C1011.34,-40.04 1032.73,-27.44 1046.78,-19.17"/>
<polygon fill="#63b8ff" stroke="#63b8ff" points="992.8,-46.89 985.96,-54.98 996.35,-52.93 992.8,-46.89"/>
</g>
</g>
</svg>
