<?xml version="1.0" encoding="UTF-8" standalone="no"?>
<!DOCTYPE svg PUBLIC "-//W3C//DTD SVG 1.1//EN"
 "http://www.w3.org/Graphics/SVG/1.1/DTD/svg11.dtd">
<!-- Generated by graphviz version 2.43.0 (0)
 -->
<!-- Title: abstractpokitservice.cpp Pages: 1 -->
<svg width="705pt" height="196pt"
 viewBox="0.00 0.00 704.50 196.00" xmlns="http://www.w3.org/2000/svg" xmlns:xlink="http://www.w3.org/1999/xlink">
<g id="graph0" class="graph" transform="scale(1 1) rotate(0) translate(4 192)">
<title>abstractpokitservice.cpp</title>
<!-- Node1 -->
<g id="node1" class="node">
<title>Node1</title>
<g id="a_node1"><a xlink:title="Defines the AbstractPokitService and AbstractPokitServicePrivate classes.">
<polygon fill="#bfbfbf" stroke="black" points="332.5,-168.5 332.5,-187.5 469.5,-187.5 469.5,-168.5 332.5,-168.5"/>
<text text-anchor="middle" x="401" y="-175.5" font-family="Helvetica,sans-Serif" font-size="10.00">abstractpokitservice.cpp</text>
</a>
</g>
</g>
<!-- Node2 -->
<g id="node2" class="node">
<title>Node2</title>
<g id="a_node2"><a xlink:href="abstractpokitservice_8h.html" target="_top" xlink:title="Declares the AbstractPokitService class.">
<polygon fill="none" stroke="black" points="235.5,-112.5 235.5,-131.5 398.5,-131.5 398.5,-112.5 235.5,-112.5"/>
<text text-anchor="middle" x="317" y="-119.5" font-family="Helvetica,sans-Serif" font-size="10.00">qtpokit/abstractpokitservice.h</text>
</a>
</g>
</g>
<!-- Node1&#45;&gt;Node2 -->
<g id="edge1" class="edge">
<title>Node1&#45;&gt;Node2</title>
<path fill="none" stroke="midnightblue" d="M387.5,-168.32C374.4,-159.9 354.29,-146.97 338.89,-137.07"/>
<polygon fill="midnightblue" stroke="midnightblue" points="340.77,-134.12 330.46,-131.65 336.98,-140.01 340.77,-134.12"/>
</g>
<!-- Node7 -->
<g id="node7" class="node">
<title>Node7</title>
<g id="a_node7"><a xlink:title=" ">
<polygon fill="none" stroke="#bfbfbf" points="416.5,-112.5 416.5,-131.5 553.5,-131.5 553.5,-112.5 416.5,-112.5"/>
<text text-anchor="middle" x="485" y="-119.5" font-family="Helvetica,sans-Serif" font-size="10.00">abstractpokitservice_p.h</text>
</a>
</g>
</g>
<!-- Node1&#45;&gt;Node7 -->
<g id="edge6" class="edge">
<title>Node1&#45;&gt;Node7</title>
<path fill="none" stroke="midnightblue" d="M414.5,-168.32C427.6,-159.9 447.71,-146.97 463.11,-137.07"/>
<polygon fill="midnightblue" stroke="midnightblue" points="465.02,-140.01 471.54,-131.65 461.23,-134.12 465.02,-140.01"/>
</g>
<!-- Node8 -->
<g id="node8" class="node">
<title>Node8</title>
<g id="a_node8"><a xlink:href="pokitdevice_8h.html" target="_top" xlink:title="Declares the PokitDevice class.">
<polygon fill="none" stroke="black" points="97,-112.5 97,-131.5 217,-131.5 217,-112.5 97,-112.5"/>
<text text-anchor="middle" x="157" y="-119.5" font-family="Helvetica,sans-Serif" font-size="10.00">qtpokit/pokitdevice.h</text>
</a>
</g>
</g>
<!-- Node1&#45;&gt;Node8 -->
<g id="edge7" class="edge">
<title>Node1&#45;&gt;Node8</title>
<path fill="none" stroke="midnightblue" d="M362.34,-168.44C319.86,-159.04 251.57,-143.93 205.53,-133.74"/>
<polygon fill="midnightblue" stroke="midnightblue" points="206,-130.26 195.48,-131.52 204.49,-137.09 206,-130.26"/>
</g>
<!-- Node10 -->
<g id="node10" class="node">
<title>Node10</title>
<g id="a_node10"><a xlink:title=" ">
<polygon fill="none" stroke="#bfbfbf" points="571.5,-112.5 571.5,-131.5 696.5,-131.5 696.5,-112.5 571.5,-112.5"/>
<text text-anchor="middle" x="634" y="-119.5" font-family="Helvetica,sans-Serif" font-size="10.00">QLowEnergyController</text>
</a>
</g>
</g>
<!-- Node1&#45;&gt;Node10 -->
<g id="edge11" class="edge">
<title>Node1&#45;&gt;Node10</title>
<path fill="none" stroke="midnightblue" d="M437.92,-168.44C478.4,-159.06 543.42,-143.99 587.38,-133.8"/>
<polygon fill="midnightblue" stroke="midnightblue" points="588.3,-137.18 597.25,-131.52 586.72,-130.36 588.3,-137.18"/>
</g>
<!-- Node3 -->
<g id="node3" class="node">
<title>Node3</title>
<g id="a_node3"><a xlink:href="qtpokit__global_8h.html" target="_top" xlink:title="Global QtPokit library macros.">
<polygon fill="none" stroke="black" points="142.5,-56.5 142.5,-75.5 237.5,-75.5 237.5,-56.5 142.5,-56.5"/>
<text text-anchor="middle" x="190" y="-63.5" font-family="Helvetica,sans-Serif" font-size="10.00">qtpokit_global.h</text>
</a>
</g>
</g>
<!-- Node2&#45;&gt;Node3 -->
<g id="edge2" class="edge">
<title>Node2&#45;&gt;Node3</title>
<path fill="none" stroke="midnightblue" d="M296.88,-112.44C275.98,-103.56 243.07,-89.56 219.28,-79.45"/>
<polygon fill="midnightblue" stroke="midnightblue" points="220.6,-76.21 210.03,-75.52 217.86,-82.65 220.6,-76.21"/>
</g>
<!-- Node5 -->
<g id="node5" class="node">
<title>Node5</title>
<g id="a_node5"><a xlink:title=" ">
<polygon fill="none" stroke="#bfbfbf" points="330.5,-56.5 330.5,-75.5 443.5,-75.5 443.5,-56.5 330.5,-56.5"/>
<text text-anchor="middle" x="387" y="-63.5" font-family="Helvetica,sans-Serif" font-size="10.00">QLowEnergyService</text>
</a>
</g>
</g>
<!-- Node2&#45;&gt;Node5 -->
<g id="edge4" class="edge">
<title>Node2&#45;&gt;Node5</title>
<path fill="none" stroke="midnightblue" d="M328.25,-112.32C338.8,-104.18 354.8,-91.84 367.44,-82.09"/>
<polygon fill="midnightblue" stroke="midnightblue" points="369.77,-84.71 375.55,-75.83 365.49,-79.17 369.77,-84.71"/>
</g>
<!-- Node6 -->
<g id="node6" class="node">
<title>Node6</title>
<g id="a_node6"><a xlink:title=" ">
<polygon fill="none" stroke="#bfbfbf" points="256,-56.5 256,-75.5 312,-75.5 312,-56.5 256,-56.5"/>
<text text-anchor="middle" x="284" y="-63.5" font-family="Helvetica,sans-Serif" font-size="10.00">QObject</text>
</a>
</g>
</g>
<!-- Node2&#45;&gt;Node6 -->
<g id="edge5" class="edge">
<title>Node2&#45;&gt;Node6</title>
<path fill="none" stroke="midnightblue" d="M311.55,-112.08C306.99,-104.61 300.33,-93.72 294.71,-84.52"/>
<polygon fill="midnightblue" stroke="midnightblue" points="297.55,-82.46 289.35,-75.75 291.58,-86.11 297.55,-82.46"/>
</g>
<!-- Node4 -->
<g id="node4" class="node">
<title>Node4</title>
<g id="a_node4"><a xlink:title=" ">
<polygon fill="none" stroke="#bfbfbf" points="160.5,-0.5 160.5,-19.5 219.5,-19.5 219.5,-0.5 160.5,-0.5"/>
<text text-anchor="middle" x="190" y="-7.5" font-family="Helvetica,sans-Serif" font-size="10.00">QtGlobal</text>
</a>
</g>
</g>
<!-- Node3&#45;&gt;Node4 -->
<g id="edge3" class="edge">
<title>Node3&#45;&gt;Node4</title>
<path fill="none" stroke="midnightblue" d="M190,-56.08C190,-49.01 190,-38.86 190,-29.99"/>
<polygon fill="midnightblue" stroke="midnightblue" points="193.5,-29.75 190,-19.75 186.5,-29.75 193.5,-29.75"/>
</g>
<!-- Node8&#45;&gt;Node3 -->
<g id="edge8" class="edge">
<title>Node8&#45;&gt;Node3</title>
<path fill="none" stroke="midnightblue" d="M162.45,-112.08C167.01,-104.61 173.67,-93.72 179.29,-84.52"/>
<polygon fill="midnightblue" stroke="midnightblue" points="182.42,-86.11 184.65,-75.75 176.45,-82.46 182.42,-86.11"/>
</g>
<!-- Node8&#45;&gt;Node6 -->
<g id="edge10" class="edge">
<title>Node8&#45;&gt;Node6</title>
<path fill="none" stroke="midnightblue" d="M177.12,-112.44C198.02,-103.56 230.93,-89.56 254.72,-79.45"/>
<polygon fill="midnightblue" stroke="midnightblue" points="256.14,-82.65 263.97,-75.52 253.4,-76.21 256.14,-82.65"/>
</g>
<!-- Node9 -->
<g id="node9" class="node">
<title>Node9</title>
<g id="a_node9"><a xlink:title=" ">
<polygon fill="none" stroke="#bfbfbf" points="0,-56.5 0,-75.5 124,-75.5 124,-56.5 0,-56.5"/>
<text text-anchor="middle" x="62" y="-63.5" font-family="Helvetica,sans-Serif" font-size="10.00">QBluetoothDeviceInfo</text>
</a>
</g>
</g>
<!-- Node8&#45;&gt;Node9 -->
<g id="edge9" class="edge">
<title>Node8&#45;&gt;Node9</title>
<path fill="none" stroke="midnightblue" d="M141.74,-112.32C126.78,-103.82 103.75,-90.73 86.27,-80.8"/>
<polygon fill="midnightblue" stroke="midnightblue" points="87.65,-77.55 77.23,-75.65 84.19,-83.64 87.65,-77.55"/>
</g>
</g>
</svg>
