<?xml version="1.0" encoding="UTF-8" standalone="no"?>
<!DOCTYPE svg PUBLIC "-//W3C//DTD SVG 1.1//EN"
 "http://www.w3.org/Graphics/SVG/1.1/DTD/svg11.dtd">
<!-- Generated by graphviz version 2.43.0 (0)
 -->
<!-- Title: abstractpokitservice.cpp Pages: 1 -->
<svg width="648pt" height="196pt"
 viewBox="0.00 0.00 648.00 196.00" xmlns="http://www.w3.org/2000/svg" xmlns:xlink="http://www.w3.org/1999/xlink">
<g id="graph0" class="graph" transform="scale(1 1) rotate(0) translate(4 192)">
<title>abstractpokitservice.cpp</title>
<!-- Node1 -->
<g id="node1" class="node">
<title>Node1</title>
<g id="a_node1"><a xlink:title="Defines the AbstractPokitService and AbstractPokitServicePrivate classes.">
<polygon fill="#bfbfbf" stroke="black" points="317,-168.5 317,-187.5 454,-187.5 454,-168.5 317,-168.5"/>
<text text-anchor="middle" x="385.5" y="-175.5" font-family="Helvetica,sans-Serif" font-size="10.00">abstractpokitservice.cpp</text>
</a>
</g>
</g>
<!-- Node2 -->
<g id="node2" class="node">
<title>Node2</title>
<g id="a_node2"><a xlink:href="abstractpokitservice_8h.html" target="_top" xlink:title="Declares the AbstractPokitService class.">
<polygon fill="none" stroke="black" points="13,-112.5 13,-131.5 176,-131.5 176,-112.5 13,-112.5"/>
<text text-anchor="middle" x="94.5" y="-119.5" font-family="Helvetica,sans-Serif" font-size="10.00">qtpokit/abstractpokitservice.h</text>
</a>
</g>
</g>
<!-- Node1&#45;&gt;Node2 -->
<g id="edge1" class="edge">
<title>Node1&#45;&gt;Node2</title>
<path fill="none" stroke="midnightblue" d="M339.39,-168.44C288.09,-158.92 205.23,-143.55 150.31,-133.36"/>
<polygon fill="midnightblue" stroke="midnightblue" points="150.86,-129.9 140.39,-131.52 149.59,-136.78 150.86,-129.9"/>
</g>
<!-- Node6 -->
<g id="node6" class="node">
<title>Node6</title>
<g id="a_node6"><a xlink:title=" ">
<polygon fill="none" stroke="#bfbfbf" points="194,-112.5 194,-131.5 331,-131.5 331,-112.5 194,-112.5"/>
<text text-anchor="middle" x="262.5" y="-119.5" font-family="Helvetica,sans-Serif" font-size="10.00">abstractpokitservice_p.h</text>
</a>
</g>
</g>
<!-- Node1&#45;&gt;Node6 -->
<g id="edge5" class="edge">
<title>Node1&#45;&gt;Node6</title>
<path fill="none" stroke="midnightblue" d="M366.01,-168.44C345.86,-159.6 314.18,-145.69 291.17,-135.59"/>
<polygon fill="midnightblue" stroke="midnightblue" points="292.46,-132.33 281.9,-131.52 289.65,-138.74 292.46,-132.33"/>
</g>
<!-- Node7 -->
<g id="node7" class="node">
<title>Node7</title>
<g id="a_node7"><a xlink:title=" ">
<polygon fill="none" stroke="#bfbfbf" points="349,-112.5 349,-131.5 422,-131.5 422,-112.5 349,-112.5"/>
<text text-anchor="middle" x="385.5" y="-119.5" font-family="Helvetica,sans-Serif" font-size="10.00">logging_p.h</text>
</a>
</g>
</g>
<!-- Node1&#45;&gt;Node7 -->
<g id="edge6" class="edge">
<title>Node1&#45;&gt;Node7</title>
<path fill="none" stroke="midnightblue" d="M385.5,-168.08C385.5,-161.01 385.5,-150.86 385.5,-141.99"/>
<polygon fill="midnightblue" stroke="midnightblue" points="389,-141.75 385.5,-131.75 382,-141.75 389,-141.75"/>
</g>
<!-- Node8 -->
<g id="node8" class="node">
<title>Node8</title>
<g id="a_node8"><a xlink:title=" ">
<polygon fill="none" stroke="#bfbfbf" points="440.5,-112.5 440.5,-131.5 496.5,-131.5 496.5,-112.5 440.5,-112.5"/>
<text text-anchor="middle" x="468.5" y="-119.5" font-family="Helvetica,sans-Serif" font-size="10.00">QDebug</text>
</a>
</g>
</g>
<!-- Node1&#45;&gt;Node8 -->
<g id="edge7" class="edge">
<title>Node1&#45;&gt;Node8</title>
<path fill="none" stroke="midnightblue" d="M398.84,-168.32C411.66,-159.98 431.28,-147.21 446.44,-137.35"/>
<polygon fill="midnightblue" stroke="midnightblue" points="448.72,-140.04 455.2,-131.65 444.91,-134.17 448.72,-140.04"/>
</g>
<!-- Node9 -->
<g id="node9" class="node">
<title>Node9</title>
<g id="a_node9"><a xlink:title=" ">
<polygon fill="none" stroke="#bfbfbf" points="515,-112.5 515,-131.5 640,-131.5 640,-112.5 515,-112.5"/>
<text text-anchor="middle" x="577.5" y="-119.5" font-family="Helvetica,sans-Serif" font-size="10.00">QLowEnergyController</text>
</a>
</g>
</g>
<!-- Node1&#45;&gt;Node9 -->
<g id="edge8" class="edge">
<title>Node1&#45;&gt;Node9</title>
<path fill="none" stroke="midnightblue" d="M415.92,-168.44C448.78,-159.2 501.28,-144.44 537.47,-134.26"/>
<polygon fill="midnightblue" stroke="midnightblue" points="538.54,-137.59 547.22,-131.52 536.65,-130.85 538.54,-137.59"/>
</g>
<!-- Node3 -->
<g id="node3" class="node">
<title>Node3</title>
<g id="a_node3"><a xlink:href="qtpokit__global_8h.html" target="_top" xlink:title="Global QtPokit library macros.">
<polygon fill="none" stroke="black" points="0,-56.5 0,-75.5 95,-75.5 95,-56.5 0,-56.5"/>
<text text-anchor="middle" x="47.5" y="-63.5" font-family="Helvetica,sans-Serif" font-size="10.00">qtpokit_global.h</text>
</a>
</g>
</g>
<!-- Node2&#45;&gt;Node3 -->
<g id="edge2" class="edge">
<title>Node2&#45;&gt;Node3</title>
<path fill="none" stroke="midnightblue" d="M86.74,-112.08C79.96,-104.3 69.96,-92.8 61.74,-83.37"/>
<polygon fill="midnightblue" stroke="midnightblue" points="64.32,-81 55.12,-75.75 59.04,-85.59 64.32,-81"/>
</g>
<!-- Node5 -->
<g id="node5" class="node">
<title>Node5</title>
<g id="a_node5"><a xlink:title=" ">
<polygon fill="none" stroke="#bfbfbf" points="113.5,-56.5 113.5,-75.5 169.5,-75.5 169.5,-56.5 113.5,-56.5"/>
<text text-anchor="middle" x="141.5" y="-63.5" font-family="Helvetica,sans-Serif" font-size="10.00">QObject</text>
</a>
</g>
</g>
<!-- Node2&#45;&gt;Node5 -->
<g id="edge4" class="edge">
<title>Node2&#45;&gt;Node5</title>
<path fill="none" stroke="midnightblue" d="M102.26,-112.08C109.04,-104.3 119.04,-92.8 127.26,-83.37"/>
<polygon fill="midnightblue" stroke="midnightblue" points="129.96,-85.59 133.88,-75.75 124.68,-81 129.96,-85.59"/>
</g>
<!-- Node4 -->
<g id="node4" class="node">
<title>Node4</title>
<g id="a_node4"><a xlink:title=" ">
<polygon fill="none" stroke="#bfbfbf" points="18,-0.5 18,-19.5 77,-19.5 77,-0.5 18,-0.5"/>
<text text-anchor="middle" x="47.5" y="-7.5" font-family="Helvetica,sans-Serif" font-size="10.00">QtGlobal</text>
</a>
</g>
</g>
<!-- Node3&#45;&gt;Node4 -->
<g id="edge3" class="edge">
<title>Node3&#45;&gt;Node4</title>
<path fill="none" stroke="midnightblue" d="M47.5,-56.08C47.5,-49.01 47.5,-38.86 47.5,-29.99"/>
<polygon fill="midnightblue" stroke="midnightblue" points="51,-29.75 47.5,-19.75 44,-29.75 51,-29.75"/>
</g>
</g>
</svg>
