<?xml version="1.0" encoding="UTF-8" standalone="no"?>
<!DOCTYPE svg PUBLIC "-//W3C//DTD SVG 1.1//EN"
 "http://www.w3.org/Graphics/SVG/1.1/DTD/svg11.dtd">
<!-- Generated by graphviz version 2.43.0 (0)
 -->
<!-- Title: abstractpokitservice.cpp Pages: 1 -->
<svg width="853pt" height="247pt"
 viewBox="0.00 0.00 853.00 247.00" xmlns="http://www.w3.org/2000/svg" xmlns:xlink="http://www.w3.org/1999/xlink">
<g id="graph0" class="graph" transform="scale(1 1) rotate(0) translate(4 243)">
<title>abstractpokitservice.cpp</title>
<!-- Node1 -->
<g id="node1" class="node">
<title>Node1</title>
<g id="a_node1"><a xlink:title="Defines the AbstractPokitService and AbstractPokitServicePrivate classes.">
<polygon fill="#999999" stroke="#666666" points="579,-239 442,-239 442,-220 579,-220 579,-239"/>
<text text-anchor="middle" x="510.5" y="-227" font-family="Helvetica,sans-Serif" font-size="10.00">abstractpokitservice.cpp</text>
</a>
</g>
</g>
<!-- Node2 -->
<g id="node2" class="node">
<title>Node2</title>
<g id="a_node2"><a xlink:href="abstractpokitservice_8h.html" target="_top" xlink:title="Declares the AbstractPokitService class.">
<polygon fill="white" stroke="#666666" points="285,-184 122,-184 122,-165 285,-165 285,-184"/>
<text text-anchor="middle" x="203.5" y="-172" font-family="Helvetica,sans-Serif" font-size="10.00">qtpokit/abstractpokitservice.h</text>
</a>
</g>
</g>
<!-- Node1&#45;&gt;Node2 -->
<g id="edge1" class="edge">
<title>Node1&#45;&gt;Node2</title>
<path fill="none" stroke="#63b8ff" d="M461.18,-219.98C406.54,-210.55 318.57,-195.36 260.89,-185.41"/>
<polygon fill="#63b8ff" stroke="#63b8ff" points="252.96,-184.04 261.45,-181.85 256.9,-184.72 260.84,-185.4 260.84,-185.4 260.84,-185.4 256.9,-184.72 260.23,-188.95 252.96,-184.04 252.96,-184.04"/>
</g>
<!-- Node11 -->
<g id="node11" class="node">
<title>Node11</title>
<g id="a_node11"><a xlink:title=" ">
<polygon fill="#e0e0e0" stroke="#999999" points="579,-184 442,-184 442,-165 579,-165 579,-184"/>
<text text-anchor="middle" x="510.5" y="-172" font-family="Helvetica,sans-Serif" font-size="10.00">abstractpokitservice_p.h</text>
</a>
</g>
</g>
<!-- Node1&#45;&gt;Node11 -->
<g id="edge11" class="edge">
<title>Node1&#45;&gt;Node11</title>
<path fill="none" stroke="#63b8ff" d="M510.5,-219.75C510.5,-212.26 510.5,-201.28 510.5,-192.13"/>
<polygon fill="#63b8ff" stroke="#63b8ff" points="510.5,-184.09 514.1,-192.09 510.5,-188.09 510.5,-192.09 510.5,-192.09 510.5,-192.09 510.5,-188.09 506.9,-192.09 510.5,-184.09 510.5,-184.09"/>
</g>
<!-- Node12 -->
<g id="node12" class="node">
<title>Node12</title>
<g id="a_node12"><a xlink:title=" ">
<polygon fill="#e0e0e0" stroke="#999999" points="701.5,-184 597.5,-184 597.5,-165 701.5,-165 701.5,-184"/>
<text text-anchor="middle" x="649.5" y="-172" font-family="Helvetica,sans-Serif" font-size="10.00">pokitproducts_p.h</text>
</a>
</g>
</g>
<!-- Node1&#45;&gt;Node12 -->
<g id="edge12" class="edge">
<title>Node1&#45;&gt;Node12</title>
<path fill="none" stroke="#63b8ff" d="M532.83,-219.98C556.2,-211.07 593.04,-197.03 619.06,-187.11"/>
<polygon fill="#63b8ff" stroke="#63b8ff" points="626.76,-184.17 620.57,-190.38 623.02,-185.6 619.29,-187.02 619.29,-187.02 619.29,-187.02 623.02,-185.6 618,-183.66 626.76,-184.17 626.76,-184.17"/>
</g>
<!-- Node13 -->
<g id="node13" class="node">
<title>Node13</title>
<g id="a_node13"><a xlink:href="pokitdevice_8h.html" target="_top" xlink:title="Declares the PokitDevice class.">
<polygon fill="white" stroke="#666666" points="423.5,-184 303.5,-184 303.5,-165 423.5,-165 423.5,-184"/>
<text text-anchor="middle" x="363.5" y="-172" font-family="Helvetica,sans-Serif" font-size="10.00">qtpokit/pokitdevice.h</text>
</a>
</g>
</g>
<!-- Node1&#45;&gt;Node13 -->
<g id="edge13" class="edge">
<title>Node1&#45;&gt;Node13</title>
<path fill="none" stroke="#63b8ff" d="M486.88,-219.98C462.06,-211.04 422.87,-196.91 395.34,-186.98"/>
<polygon fill="#63b8ff" stroke="#63b8ff" points="387.55,-184.17 396.29,-183.5 391.31,-185.53 395.07,-186.88 395.07,-186.88 395.07,-186.88 391.31,-185.53 393.85,-190.27 387.55,-184.17 387.55,-184.17"/>
</g>
<!-- Node14 -->
<g id="node14" class="node">
<title>Node14</title>
<g id="a_node14"><a xlink:title=" ">
<polygon fill="#e0e0e0" stroke="#999999" points="845,-184 720,-184 720,-165 845,-165 845,-184"/>
<text text-anchor="middle" x="782.5" y="-172" font-family="Helvetica,sans-Serif" font-size="10.00">QLowEnergyController</text>
</a>
</g>
</g>
<!-- Node1&#45;&gt;Node14 -->
<g id="edge17" class="edge">
<title>Node1&#45;&gt;Node14</title>
<path fill="none" stroke="#63b8ff" d="M554.2,-219.98C602.24,-210.62 679.37,-195.6 730.48,-185.64"/>
<polygon fill="#63b8ff" stroke="#63b8ff" points="738.46,-184.08 731.29,-189.15 734.53,-184.85 730.6,-185.61 730.6,-185.61 730.6,-185.61 734.53,-184.85 729.92,-182.08 738.46,-184.08 738.46,-184.08"/>
</g>
<!-- Node3 -->
<g id="node3" class="node">
<title>Node3</title>
<g id="a_node3"><a xlink:href="qtpokit__global_8h.html" target="_top" xlink:title="Global QtPokit library macros.">
<polygon fill="white" stroke="#666666" points="317,-74 222,-74 222,-55 317,-55 317,-74"/>
<text text-anchor="middle" x="269.5" y="-62" font-family="Helvetica,sans-Serif" font-size="10.00">qtpokit_global.h</text>
</a>
</g>
</g>
<!-- Node2&#45;&gt;Node3 -->
<g id="edge2" class="edge">
<title>Node2&#45;&gt;Node3</title>
<path fill="none" stroke="#63b8ff" d="M209.41,-164.72C215.36,-155.8 224.76,-141.56 232.5,-129 242.37,-112.99 253.14,-94.36 260.5,-81.44"/>
<polygon fill="#63b8ff" stroke="#63b8ff" points="264.61,-74.21 263.79,-82.94 262.63,-77.69 260.66,-81.17 260.66,-81.17 260.66,-81.17 262.63,-77.69 257.53,-79.39 264.61,-74.21 264.61,-74.21"/>
</g>
<!-- Node5 -->
<g id="node5" class="node">
<title>Node5</title>
<g id="a_node5"><a xlink:href="pokitproducts_8h.html" target="_top" xlink:title="Declares the PokitProduct enumeration, and related helper functions.">
<polygon fill="white" stroke="#666666" points="223.5,-129 131.5,-129 131.5,-110 223.5,-110 223.5,-129"/>
<text text-anchor="middle" x="177.5" y="-117" font-family="Helvetica,sans-Serif" font-size="10.00">pokitproducts.h</text>
</a>
</g>
</g>
<!-- Node2&#45;&gt;Node5 -->
<g id="edge4" class="edge">
<title>Node2&#45;&gt;Node5</title>
<path fill="none" stroke="#63b8ff" d="M199.21,-164.75C195.42,-157.03 189.81,-145.6 185.24,-136.28"/>
<polygon fill="#63b8ff" stroke="#63b8ff" points="181.71,-129.09 188.47,-134.69 183.48,-132.68 185.24,-136.27 185.24,-136.27 185.24,-136.27 183.48,-132.68 182,-137.86 181.71,-129.09 181.71,-129.09"/>
</g>
<!-- Node9 -->
<g id="node9" class="node">
<title>Node9</title>
<g id="a_node9"><a xlink:title=" ">
<polygon fill="#e0e0e0" stroke="#999999" points="113,-129 0,-129 0,-110 113,-110 113,-129"/>
<text text-anchor="middle" x="56.5" y="-117" font-family="Helvetica,sans-Serif" font-size="10.00">QLowEnergyService</text>
</a>
</g>
</g>
<!-- Node2&#45;&gt;Node9 -->
<g id="edge9" class="edge">
<title>Node2&#45;&gt;Node9</title>
<path fill="none" stroke="#63b8ff" d="M179.88,-164.98C155.06,-156.04 115.87,-141.91 88.34,-131.98"/>
<polygon fill="#63b8ff" stroke="#63b8ff" points="80.55,-129.17 89.29,-128.5 84.31,-130.53 88.07,-131.88 88.07,-131.88 88.07,-131.88 84.31,-130.53 86.85,-135.27 80.55,-129.17 80.55,-129.17"/>
</g>
<!-- Node10 -->
<g id="node10" class="node">
<title>Node10</title>
<g id="a_node10"><a xlink:title=" ">
<polygon fill="#e0e0e0" stroke="#999999" points="335.5,-129 279.5,-129 279.5,-110 335.5,-110 335.5,-129"/>
<text text-anchor="middle" x="307.5" y="-117" font-family="Helvetica,sans-Serif" font-size="10.00">QObject</text>
</a>
</g>
</g>
<!-- Node2&#45;&gt;Node10 -->
<g id="edge10" class="edge">
<title>Node2&#45;&gt;Node10</title>
<path fill="none" stroke="#63b8ff" d="M220.21,-164.98C237.24,-156.3 263.84,-142.75 283.2,-132.88"/>
<polygon fill="#63b8ff" stroke="#63b8ff" points="290.49,-129.17 284.99,-136.01 286.92,-130.99 283.36,-132.8 283.36,-132.8 283.36,-132.8 286.92,-130.99 281.72,-129.6 290.49,-129.17 290.49,-129.17"/>
</g>
<!-- Node4 -->
<g id="node4" class="node">
<title>Node4</title>
<g id="a_node4"><a xlink:title=" ">
<polygon fill="#e0e0e0" stroke="#999999" points="299,-19 240,-19 240,0 299,0 299,-19"/>
<text text-anchor="middle" x="269.5" y="-7" font-family="Helvetica,sans-Serif" font-size="10.00">QtGlobal</text>
</a>
</g>
</g>
<!-- Node3&#45;&gt;Node4 -->
<g id="edge3" class="edge">
<title>Node3&#45;&gt;Node4</title>
<path fill="none" stroke="#63b8ff" d="M269.5,-54.75C269.5,-47.26 269.5,-36.28 269.5,-27.13"/>
<polygon fill="#63b8ff" stroke="#63b8ff" points="269.5,-19.09 273.1,-27.09 269.5,-23.09 269.5,-27.09 269.5,-27.09 269.5,-27.09 269.5,-23.09 265.9,-27.09 269.5,-19.09 269.5,-19.09"/>
</g>
<!-- Node5&#45;&gt;Node3 -->
<g id="edge5" class="edge">
<title>Node5&#45;&gt;Node3</title>
<path fill="none" stroke="#63b8ff" d="M192.28,-109.98C207.08,-101.46 230.04,-88.23 247.09,-78.41"/>
<polygon fill="#63b8ff" stroke="#63b8ff" points="254.45,-74.17 249.31,-81.28 250.98,-76.17 247.52,-78.16 247.52,-78.16 247.52,-78.16 250.98,-76.17 245.72,-75.04 254.45,-74.17 254.45,-74.17"/>
</g>
<!-- Node6 -->
<g id="node6" class="node">
<title>Node6</title>
<g id="a_node6"><a xlink:title=" ">
<polygon fill="#e0e0e0" stroke="#999999" points="461.5,-74 337.5,-74 337.5,-55 461.5,-55 461.5,-74"/>
<text text-anchor="middle" x="399.5" y="-62" font-family="Helvetica,sans-Serif" font-size="10.00">QBluetoothDeviceInfo</text>
</a>
</g>
</g>
<!-- Node5&#45;&gt;Node6 -->
<g id="edge6" class="edge">
<title>Node5&#45;&gt;Node6</title>
<path fill="none" stroke="#63b8ff" d="M213.17,-109.98C251.97,-100.72 314.03,-85.9 355.75,-75.94"/>
<polygon fill="#63b8ff" stroke="#63b8ff" points="363.55,-74.08 356.61,-79.44 359.66,-75.01 355.77,-75.94 355.77,-75.94 355.77,-75.94 359.66,-75.01 354.93,-72.44 363.55,-74.08 363.55,-74.08"/>
</g>
<!-- Node7 -->
<g id="node7" class="node">
<title>Node7</title>
<g id="a_node7"><a xlink:title=" ">
<polygon fill="#e0e0e0" stroke="#999999" points="132.5,-74 82.5,-74 82.5,-55 132.5,-55 132.5,-74"/>
<text text-anchor="middle" x="107.5" y="-62" font-family="Helvetica,sans-Serif" font-size="10.00">QFlags</text>
</a>
</g>
</g>
<!-- Node5&#45;&gt;Node7 -->
<g id="edge7" class="edge">
<title>Node5&#45;&gt;Node7</title>
<path fill="none" stroke="#63b8ff" d="M166.25,-109.98C155.3,-101.69 138.46,-88.94 125.61,-79.22"/>
<polygon fill="#63b8ff" stroke="#63b8ff" points="118.95,-74.17 127.5,-76.13 122.14,-76.58 125.33,-79 125.33,-79 125.33,-79 122.14,-76.58 123.16,-81.87 118.95,-74.17 118.95,-74.17"/>
</g>
<!-- Node8 -->
<g id="node8" class="node">
<title>Node8</title>
<g id="a_node8"><a xlink:title=" ">
<polygon fill="#e0e0e0" stroke="#999999" points="204,-74 151,-74 151,-55 204,-55 204,-74"/>
<text text-anchor="middle" x="177.5" y="-62" font-family="Helvetica,sans-Serif" font-size="10.00">QString</text>
</a>
</g>
</g>
<!-- Node5&#45;&gt;Node8 -->
<g id="edge8" class="edge">
<title>Node5&#45;&gt;Node8</title>
<path fill="none" stroke="#63b8ff" d="M177.5,-109.75C177.5,-102.26 177.5,-91.28 177.5,-82.13"/>
<polygon fill="#63b8ff" stroke="#63b8ff" points="177.5,-74.09 181.1,-82.09 177.5,-78.09 177.5,-82.09 177.5,-82.09 177.5,-82.09 177.5,-78.09 173.9,-82.09 177.5,-74.09 177.5,-74.09"/>
</g>
<!-- Node13&#45;&gt;Node3 -->
<g id="edge14" class="edge">
<title>Node13&#45;&gt;Node3</title>
<path fill="none" stroke="#63b8ff" d="M362.89,-164.79C361.56,-151.64 357.39,-126.51 344.5,-110 333.23,-95.57 315.87,-84.84 300.7,-77.54"/>
<polygon fill="#63b8ff" stroke="#63b8ff" points="293,-74.03 301.77,-74.08 296.64,-75.69 300.28,-77.35 300.28,-77.35 300.28,-77.35 296.64,-75.69 298.79,-80.63 293,-74.03 293,-74.03"/>
</g>
<!-- Node13&#45;&gt;Node6 -->
<g id="edge15" class="edge">
<title>Node13&#45;&gt;Node6</title>
<path fill="none" stroke="#63b8ff" d="M366.45,-164.66C372.49,-146.54 386.36,-104.91 394.08,-81.77"/>
<polygon fill="#63b8ff" stroke="#63b8ff" points="396.61,-74.16 397.5,-82.89 395.35,-77.95 394.08,-81.75 394.08,-81.75 394.08,-81.75 395.35,-77.95 390.67,-80.61 396.61,-74.16 396.61,-74.16"/>
</g>
<!-- Node13&#45;&gt;Node10 -->
<g id="edge16" class="edge">
<title>Node13&#45;&gt;Node10</title>
<path fill="none" stroke="#63b8ff" d="M354.5,-164.98C345.9,-156.84 332.77,-144.41 322.57,-134.76"/>
<polygon fill="#63b8ff" stroke="#63b8ff" points="316.66,-129.17 324.95,-132.05 319.57,-131.92 322.47,-134.67 322.47,-134.67 322.47,-134.67 319.57,-131.92 320,-137.28 316.66,-129.17 316.66,-129.17"/>
</g>
</g>
</svg>
