<?xml version="1.0" encoding="UTF-8" standalone="no"?>
<!DOCTYPE svg PUBLIC "-//W3C//DTD SVG 1.1//EN"
 "http://www.w3.org/Graphics/SVG/1.1/DTD/svg11.dtd">
<!-- Generated by graphviz version 2.43.0 (0)
 -->
<!-- Title: DsoService::startDso Pages: 1 -->
<svg width="476pt" height="88pt"
 viewBox="0.00 0.00 476.00 88.00" xmlns="http://www.w3.org/2000/svg" xmlns:xlink="http://www.w3.org/1999/xlink">
<g id="graph0" class="graph" transform="scale(1 1) rotate(0) translate(4 84)">
<title>DsoService::startDso</title>
<!-- Node1 -->
<g id="node1" class="node">
<title>Node1</title>
<g id="a_node1"><a xlink:title="Start the DSO with settings.">
<polygon fill="#bfbfbf" stroke="black" points="0,-19.5 0,-38.5 119,-38.5 119,-19.5 0,-19.5"/>
<text text-anchor="middle" x="59.5" y="-26.5" font-family="Helvetica,sans-Serif" font-size="10.00">DsoService::startDso</text>
</a>
</g>
</g>
<!-- Node2 -->
<g id="node2" class="node">
<title>Node2</title>
<g id="a_node2"><a xlink:href="classDsoService.html#a5714c8ccec6ab1d98241312b28a32e9e" target="_top" xlink:title="Configures the Pokit device&#39;s DSO mode.">
<polygon fill="none" stroke="black" points="155,-38.5 155,-57.5 287,-57.5 287,-38.5 155,-38.5"/>
<text text-anchor="middle" x="221" y="-45.5" font-family="Helvetica,sans-Serif" font-size="10.00">DsoService::setSettings</text>
</a>
</g>
</g>
<!-- Node1&#45;&gt;Node2 -->
<g id="edge1" class="edge">
<title>Node1&#45;&gt;Node2</title>
<path fill="none" stroke="midnightblue" d="M119.44,-36.02C127.73,-37.01 136.35,-38.03 144.89,-39.05"/>
<polygon fill="midnightblue" stroke="midnightblue" points="144.52,-42.53 154.86,-40.24 145.35,-35.58 144.52,-42.53"/>
</g>
<!-- Node5 -->
<g id="node5" class="node">
<title>Node5</title>
<g id="a_node5"><a target="_parent" xlink:href="https://doc.qt.io/qt-5/qobject.html#tr" xlink:title=" ">
<polygon fill="none" stroke="black" points="186.5,-0.5 186.5,-19.5 255.5,-19.5 255.5,-0.5 186.5,-0.5"/>
<text text-anchor="middle" x="221" y="-7.5" font-family="Helvetica,sans-Serif" font-size="10.00">QObject::tr</text>
</a>
</g>
</g>
<!-- Node1&#45;&gt;Node5 -->
<g id="edge4" class="edge">
<title>Node1&#45;&gt;Node5</title>
<path fill="none" stroke="midnightblue" d="M119.44,-21.98C138.28,-19.73 158.79,-17.29 176.34,-15.2"/>
<polygon fill="midnightblue" stroke="midnightblue" points="176.78,-18.67 186.3,-14.01 175.96,-11.72 176.78,-18.67"/>
</g>
<!-- Node3 -->
<g id="node3" class="node">
<title>Node3</title>
<g id="a_node3"><a target="_parent" xlink:href="https://doc.qt.io/qt-5/qbytearray.html#isNull" xlink:title=" ">
<polygon fill="none" stroke="black" points="342.5,-60.5 342.5,-79.5 448.5,-79.5 448.5,-60.5 342.5,-60.5"/>
<text text-anchor="middle" x="395.5" y="-67.5" font-family="Helvetica,sans-Serif" font-size="10.00">QByteArray::isNull</text>
</a>
</g>
</g>
<!-- Node2&#45;&gt;Node3 -->
<g id="edge2" class="edge">
<title>Node2&#45;&gt;Node3</title>
<path fill="none" stroke="midnightblue" d="M287.21,-56.32C302.02,-58.21 317.71,-60.21 332.38,-62.08"/>
<polygon fill="midnightblue" stroke="midnightblue" points="331.99,-65.56 342.35,-63.35 332.88,-58.61 331.99,-65.56"/>
</g>
<!-- Node4 -->
<g id="node4" class="node">
<title>Node4</title>
<g id="a_node4"><a target="_parent" xlink:href="https://doc.qt.io/qt-5/qlowenergycharacteristic.html#isValid" xlink:title=" ">
<polygon fill="none" stroke="black" points="323,-11 323,-41 468,-41 468,-11 323,-11"/>
<text text-anchor="start" x="331" y="-29" font-family="Helvetica,sans-Serif" font-size="10.00">QLowEnergyCharacteristic</text>
<text text-anchor="middle" x="395.5" y="-18" font-family="Helvetica,sans-Serif" font-size="10.00">::isValid</text>
</a>
</g>
</g>
<!-- Node2&#45;&gt;Node4 -->
<g id="edge3" class="edge">
<title>Node2&#45;&gt;Node4</title>
<path fill="none" stroke="midnightblue" d="M287.21,-39.68C295.58,-38.62 304.23,-37.51 312.82,-36.42"/>
<polygon fill="midnightblue" stroke="midnightblue" points="313.37,-39.88 322.85,-35.14 312.48,-32.93 313.37,-39.88"/>
</g>
</g>
</svg>
