<?xml version="1.0" encoding="UTF-8" standalone="no"?>
<!DOCTYPE svg PUBLIC "-//W3C//DTD SVG 1.1//EN"
 "http://www.w3.org/Graphics/SVG/1.1/DTD/svg11.dtd">
<!-- Generated by graphviz version 2.43.0 (0)
 -->
<!-- Title: DataLoggerService::setSettings Pages: 1 -->
<svg width="441pt" height="137pt"
 viewBox="0.00 0.00 441.00 136.50" xmlns="http://www.w3.org/2000/svg" xmlns:xlink="http://www.w3.org/1999/xlink">
<g id="graph0" class="graph" transform="scale(1 1) rotate(0) translate(4 132.5)">
<title>DataLoggerService::setSettings</title>
<!-- Node1 -->
<g id="Node000001" class="node">
<title>Node1</title>
<g id="a_Node000001"><a xlink:title="Configures the Pokit device&#39;s data logger mode.">
<polygon fill="#999999" stroke="#666666" points="115,-73 0,-73 0,-43 115,-43 115,-73"/>
<text text-anchor="start" x="8" y="-61" font-family="Helvetica,sans-Serif" font-size="10.00">DataLoggerService::</text>
<text text-anchor="middle" x="57.5" y="-50" font-family="Helvetica,sans-Serif" font-size="10.00">setSettings</text>
</a>
</g>
</g>
<!-- Node2 -->
<g id="Node000002" class="node">
<title>Node2</title>
<g id="a_Node000002"><a xlink:href="classDataLoggerService.html#a1c2155abba340d49fc39bfa49ed59a6c" target="_top" xlink:title="Constructs a new Pokit service with parent.">
<polygon fill="white" stroke="#666666" points="281,-116 166,-116 166,-86 281,-86 281,-116"/>
<text text-anchor="start" x="174" y="-104" font-family="Helvetica,sans-Serif" font-size="10.00">DataLoggerService::</text>
<text text-anchor="middle" x="223.5" y="-93" font-family="Helvetica,sans-Serif" font-size="10.00">DataLoggerService</text>
</a>
</g>
</g>
<!-- Node1&#45;&gt;Node2 -->
<g id="edge1_Node000001_Node000002" class="edge">
<title>Node1&#45;&gt;Node2</title>
<g id="a_edge1_Node000001_Node000002"><a xlink:title=" ">
<path fill="none" stroke="#63b8ff" d="M115.4,-72.92C129.22,-76.54 144.08,-80.44 158.22,-84.14"/>
<polygon fill="#63b8ff" stroke="#63b8ff" points="165.98,-86.18 157.33,-87.63 162.11,-85.17 158.24,-84.15 158.24,-84.15 158.24,-84.15 162.11,-85.17 159.15,-80.67 165.98,-86.18 165.98,-86.18"/>
</a>
</g>
</g>
<!-- Node5 -->
<g id="Node000005" class="node">
<title>Node5</title>
<g id="a_Node000005"><a target="_parent" xlink:href="https://doc.qt.io/qt-5/qbytearray.html#isNull" xlink:title=" ">
<polygon fill="white" stroke="#666666" points="276.5,-67.5 170.5,-67.5 170.5,-48.5 276.5,-48.5 276.5,-67.5"/>
<text text-anchor="middle" x="223.5" y="-55.5" font-family="Helvetica,sans-Serif" font-size="10.00">QByteArray::isNull</text>
</a>
</g>
</g>
<!-- Node1&#45;&gt;Node5 -->
<g id="edge4_Node000001_Node000005" class="edge">
<title>Node1&#45;&gt;Node5</title>
<g id="a_edge4_Node000001_Node000005"><a xlink:title=" ">
<path fill="none" stroke="#63b8ff" d="M115.4,-58C130.46,-58 146.78,-58 162.03,-58"/>
<polygon fill="#63b8ff" stroke="#63b8ff" points="170.37,-58 162.37,-61.6 166.37,-58 162.37,-58 162.37,-58 162.37,-58 166.37,-58 162.37,-54.4 170.37,-58 170.37,-58"/>
</a>
</g>
</g>
<!-- Node6 -->
<g id="Node000006" class="node">
<title>Node6</title>
<g id="a_Node000006"><a target="_parent" xlink:href="https://doc.qt.io/qt-5/qlowenergycharacteristic.html#isValid" xlink:title=" ">
<polygon fill="white" stroke="#666666" points="296,-30 151,-30 151,0 296,0 296,-30"/>
<text text-anchor="start" x="159" y="-18" font-family="Helvetica,sans-Serif" font-size="10.00">QLowEnergyCharacteristic</text>
<text text-anchor="middle" x="223.5" y="-7" font-family="Helvetica,sans-Serif" font-size="10.00">::isValid</text>
</a>
</g>
</g>
<!-- Node1&#45;&gt;Node6 -->
<g id="edge5_Node000001_Node000006" class="edge">
<title>Node1&#45;&gt;Node6</title>
<g id="a_edge5_Node000001_Node000006"><a xlink:title=" ">
<path fill="none" stroke="#63b8ff" d="M115.4,-43.08C128.86,-39.55 143.31,-35.76 157.11,-32.15"/>
<polygon fill="#63b8ff" stroke="#63b8ff" points="165.15,-30.04 158.32,-35.55 161.28,-31.05 157.41,-32.07 157.41,-32.07 157.41,-32.07 161.28,-31.05 156.49,-28.58 165.15,-30.04 165.15,-30.04"/>
</a>
</g>
</g>
<!-- Node3 -->
<g id="Node000003" class="node">
<title>Node3</title>
<g id="a_Node000003"><a target="_parent" xlink:href="https://doc.qt.io/qt-5/qobject.html#parent" xlink:title=" ">
<polygon fill="white" stroke="#666666" points="429,-128.5 336,-128.5 336,-109.5 429,-109.5 429,-128.5"/>
<text text-anchor="middle" x="382.5" y="-116.5" font-family="Helvetica,sans-Serif" font-size="10.00">QObject::parent</text>
</a>
</g>
</g>
<!-- Node2&#45;&gt;Node3 -->
<g id="edge2_Node000002_Node000003" class="edge">
<title>Node2&#45;&gt;Node3</title>
<g id="a_edge2_Node000002_Node000003"><a xlink:title=" ">
<path fill="none" stroke="#63b8ff" d="M281.18,-107.5C296.37,-109.24 312.75,-111.12 327.78,-112.84"/>
<polygon fill="#63b8ff" stroke="#63b8ff" points="335.97,-113.78 327.61,-116.45 332,-113.32 328.02,-112.87 328.02,-112.87 328.02,-112.87 332,-113.32 328.43,-109.29 335.97,-113.78 335.97,-113.78"/>
</a>
</g>
</g>
<!-- Node4 -->
<g id="Node000004" class="node">
<title>Node4</title>
<g id="a_Node000004"><a target="_parent" xlink:href="https://doc.qt.io/qt-5/qobject.html#QObject" xlink:title=" ">
<polygon fill="white" stroke="#666666" points="433,-91.5 332,-91.5 332,-72.5 433,-72.5 433,-91.5"/>
<text text-anchor="middle" x="382.5" y="-79.5" font-family="Helvetica,sans-Serif" font-size="10.00">QObject::QObject</text>
</a>
</g>
</g>
<!-- Node2&#45;&gt;Node4 -->
<g id="edge3_Node000002_Node000004" class="edge">
<title>Node2&#45;&gt;Node4</title>
<g id="a_edge3_Node000002_Node000004"><a xlink:title=" ">
<path fill="none" stroke="#63b8ff" d="M281.18,-94.14C295.06,-92.46 309.92,-90.66 323.84,-88.98"/>
<polygon fill="#63b8ff" stroke="#63b8ff" points="331.92,-88 324.41,-92.54 327.95,-88.48 323.98,-88.96 323.98,-88.96 323.98,-88.96 327.95,-88.48 323.54,-85.39 331.92,-88 331.92,-88"/>
</a>
</g>
</g>
</g>
</svg>
