<?xml version="1.0" encoding="UTF-8" standalone="no"?>
<!DOCTYPE svg PUBLIC "-//W3C//DTD SVG 1.1//EN"
 "http://www.w3.org/Graphics/SVG/1.1/DTD/svg11.dtd">
<!-- Generated by graphviz version 2.43.0 (0)
 -->
<!-- Title: DataLoggerService::startLogger Pages: 1 -->
<svg width="455pt" height="92pt"
 viewBox="0.00 0.00 455.00 92.00" xmlns="http://www.w3.org/2000/svg" xmlns:xlink="http://www.w3.org/1999/xlink">
<g id="graph0" class="graph" transform="scale(1 1) rotate(0) translate(4 88)">
<title>DataLoggerService::startLogger</title>
<!-- Node1 -->
<g id="node1" class="node">
<title>Node1</title>
<g id="a_node1"><a xlink:title="Start the data logger with settings.">
<polygon fill="#999999" stroke="#666666" points="115,-45.5 0,-45.5 0,-15.5 115,-15.5 115,-45.5"/>
<text text-anchor="start" x="8" y="-33.5" font-family="Helvetica,sans-Serif" font-size="10.00">DataLoggerService::</text>
<text text-anchor="middle" x="57.5" y="-22.5" font-family="Helvetica,sans-Serif" font-size="10.00">startLogger</text>
</a>
</g>
</g>
<!-- Node2 -->
<g id="node2" class="node">
<title>Node2</title>
<g id="a_node2"><a xlink:href="classDataLoggerService.html#a3b933a1a161a390eb08e5019685f449c" target="_top" xlink:title="Configures the Pokit device&#39;s data logger mode.">
<polygon fill="white" stroke="#666666" points="266,-67.5 151,-67.5 151,-37.5 266,-37.5 266,-67.5"/>
<text text-anchor="start" x="159" y="-55.5" font-family="Helvetica,sans-Serif" font-size="10.00">DataLoggerService::</text>
<text text-anchor="middle" x="208.5" y="-44.5" font-family="Helvetica,sans-Serif" font-size="10.00">setSettings</text>
</a>
</g>
</g>
<!-- Node1&#45;&gt;Node2 -->
<g id="edge1" class="edge">
<title>Node1&#45;&gt;Node2</title>
<path fill="none" stroke="#63b8ff" d="M115.26,-38.88C123.65,-40.12 132.36,-41.41 140.93,-42.67"/>
<polygon fill="#63b8ff" stroke="#63b8ff" points="140.5,-46.14 150.9,-44.14 141.52,-39.22 140.5,-46.14"/>
</g>
<!-- Node5 -->
<g id="node5" class="node">
<title>Node5</title>
<g id="a_node5"><a target="_parent" xlink:href="https://doc.qt.io/qt-5/qobject.html#tr" xlink:title=" ">
<polygon fill="white" stroke="#666666" points="243,-19 174,-19 174,0 243,0 243,-19"/>
<text text-anchor="middle" x="208.5" y="-7" font-family="Helvetica,sans-Serif" font-size="10.00">QObject::tr</text>
</a>
</g>
</g>
<!-- Node1&#45;&gt;Node5 -->
<g id="edge4" class="edge">
<title>Node1&#45;&gt;Node5</title>
<path fill="none" stroke="#63b8ff" d="M115.26,-22.5C131.29,-20.24 148.49,-17.82 163.65,-15.68"/>
<polygon fill="#63b8ff" stroke="#63b8ff" points="164.36,-19.12 173.77,-14.25 163.38,-12.18 164.36,-19.12"/>
</g>
<!-- Node3 -->
<g id="node3" class="node">
<title>Node3</title>
<g id="a_node3"><a target="_parent" xlink:href="https://doc.qt.io/qt-5/qbytearray.html#isNull" xlink:title=" ">
<polygon fill="white" stroke="#666666" points="427.5,-84 321.5,-84 321.5,-65 427.5,-65 427.5,-84"/>
<text text-anchor="middle" x="374.5" y="-72" font-family="Helvetica,sans-Serif" font-size="10.00">QByteArray::isNull</text>
</a>
</g>
</g>
<!-- Node2&#45;&gt;Node3 -->
<g id="edge2" class="edge">
<title>Node2&#45;&gt;Node3</title>
<path fill="none" stroke="#63b8ff" d="M266.4,-60.13C280.91,-62.08 296.57,-64.18 311.33,-66.16"/>
<polygon fill="#63b8ff" stroke="#63b8ff" points="311,-69.65 321.37,-67.51 311.93,-62.71 311,-69.65"/>
</g>
<!-- Node4 -->
<g id="node4" class="node">
<title>Node4</title>
<g id="a_node4"><a target="_parent" xlink:href="https://doc.qt.io/qt-5/qlowenergycharacteristic.html#isValid" xlink:title=" ">
<polygon fill="white" stroke="#666666" points="447,-46.5 302,-46.5 302,-16.5 447,-16.5 447,-46.5"/>
<text text-anchor="start" x="310" y="-34.5" font-family="Helvetica,sans-Serif" font-size="10.00">QLowEnergyCharacteristic</text>
<text text-anchor="middle" x="374.5" y="-23.5" font-family="Helvetica,sans-Serif" font-size="10.00">::isValid</text>
</a>
</g>
</g>
<!-- Node2&#45;&gt;Node4 -->
<g id="edge3" class="edge">
<title>Node2&#45;&gt;Node4</title>
<path fill="none" stroke="#63b8ff" d="M266.4,-45.21C274.64,-44.16 283.26,-43.05 291.88,-41.95"/>
<polygon fill="#63b8ff" stroke="#63b8ff" points="292.49,-45.4 301.97,-40.66 291.6,-38.46 292.49,-45.4"/>
</g>
</g>
</svg>
