<?xml version="1.0" encoding="UTF-8" standalone="no"?>
<!DOCTYPE svg PUBLIC "-//W3C//DTD SVG 1.1//EN"
 "http://www.w3.org/Graphics/SVG/1.1/DTD/svg11.dtd">
<!-- Generated by graphviz version 2.43.0 (0)
 -->
<!-- Title: DataLoggerService::setSettings Pages: 1 -->
<svg width="304pt" height="76pt"
 viewBox="0.00 0.00 304.00 75.50" xmlns="http://www.w3.org/2000/svg" xmlns:xlink="http://www.w3.org/1999/xlink">
<g id="graph0" class="graph" transform="scale(1 1) rotate(0) translate(4 71.5)">
<title>DataLoggerService::setSettings</title>
<!-- Node1 -->
<g id="node1" class="node">
<title>Node1</title>
<g id="a_node1"><a xlink:title="Configures the Pokit device&#39;s data logger mode.">
<polygon fill="#999999" stroke="#666666" points="115,-51 0,-51 0,-21 115,-21 115,-51"/>
<text text-anchor="start" x="8" y="-39" font-family="Helvetica,sans-Serif" font-size="10.00">DataLoggerService::</text>
<text text-anchor="middle" x="57.5" y="-28" font-family="Helvetica,sans-Serif" font-size="10.00">setSettings</text>
</a>
</g>
</g>
<!-- Node2 -->
<g id="node2" class="node">
<title>Node2</title>
<g id="a_node2"><a target="_parent" xlink:href="https://doc.qt.io/qt-5/qbytearray.html#isNull" xlink:title=" ">
<polygon fill="white" stroke="#666666" points="276.5,-67.5 170.5,-67.5 170.5,-48.5 276.5,-48.5 276.5,-67.5"/>
<text text-anchor="middle" x="223.5" y="-55.5" font-family="Helvetica,sans-Serif" font-size="10.00">QByteArray::isNull</text>
</a>
</g>
</g>
<!-- Node1&#45;&gt;Node2 -->
<g id="edge1" class="edge">
<title>Node1&#45;&gt;Node2</title>
<path fill="none" stroke="#63b8ff" d="M115.4,-43.63C130.46,-45.65 146.78,-47.84 162.03,-49.89"/>
<polygon fill="#63b8ff" stroke="#63b8ff" points="170.37,-51.01 161.97,-53.51 166.41,-50.48 162.45,-49.94 162.45,-49.94 162.45,-49.94 166.41,-50.48 162.92,-46.38 170.37,-51.01 170.37,-51.01"/>
</g>
<!-- Node3 -->
<g id="node3" class="node">
<title>Node3</title>
<g id="a_node3"><a target="_parent" xlink:href="https://doc.qt.io/qt-5/qlowenergycharacteristic.html#isValid" xlink:title=" ">
<polygon fill="white" stroke="#666666" points="296,-30 151,-30 151,0 296,0 296,-30"/>
<text text-anchor="start" x="159" y="-18" font-family="Helvetica,sans-Serif" font-size="10.00">QLowEnergyCharacteristic</text>
<text text-anchor="middle" x="223.5" y="-7" font-family="Helvetica,sans-Serif" font-size="10.00">::isValid</text>
</a>
</g>
</g>
<!-- Node1&#45;&gt;Node3 -->
<g id="edge2" class="edge">
<title>Node1&#45;&gt;Node3</title>
<path fill="none" stroke="#63b8ff" d="M115.4,-28.71C124.27,-27.58 133.58,-26.39 142.84,-25.2"/>
<polygon fill="#63b8ff" stroke="#63b8ff" points="150.97,-24.16 143.49,-28.75 147,-24.67 143.03,-25.18 143.03,-25.18 143.03,-25.18 147,-24.67 142.57,-21.61 150.97,-24.16 150.97,-24.16"/>
</g>
</g>
</svg>
