<?xml version="1.0" encoding="UTF-8" standalone="no"?>
<!DOCTYPE svg PUBLIC "-//W3C//DTD SVG 1.1//EN"
 "http://www.w3.org/Graphics/SVG/1.1/DTD/svg11.dtd">
<!-- Generated by graphviz version 2.43.0 (0)
 -->
<!-- Title: MultimeterService::maxValue Pages: 1 -->
<svg width="275pt" height="86pt"
 viewBox="0.00 0.00 275.00 86.00" xmlns="http://www.w3.org/2000/svg" xmlns:xlink="http://www.w3.org/1999/xlink">
<g id="graph0" class="graph" transform="scale(1 1) rotate(0) translate(4 82)">
<title>MultimeterService::maxValue</title>
<!-- Node1 -->
<g id="Node000001" class="node">
<title>Node1</title>
<g id="a_Node000001"><a xlink:title="Returns the maximum value for range, or the string &quot;Auto&quot;.">
<polygon fill="#999999" stroke="#666666" points="113,-54 0,-54 0,-24 113,-24 113,-54"/>
<text text-anchor="start" x="8" y="-42" font-family="Helvetica,sans-Serif" font-size="10.00">MultimeterService::</text>
<text text-anchor="middle" x="56.5" y="-31" font-family="Helvetica,sans-Serif" font-size="10.00">maxValue</text>
</a>
</g>
</g>
<!-- Node2 -->
<g id="Node000002" class="node">
<title>Node2</title>
<g id="a_Node000002"><a xlink:href="classMultimeterService.html#a9d05ef9c2d80a941bfd4f972d3dc6145" target="_top" xlink:title="Returns the maximum value for range, or the string &quot;Auto&quot;.">
<polygon fill="white" stroke="#666666" points="264.5,-78 151.5,-78 151.5,-48 264.5,-48 264.5,-78"/>
<text text-anchor="start" x="159.5" y="-66" font-family="Helvetica,sans-Serif" font-size="10.00">MultimeterService::</text>
<text text-anchor="middle" x="208" y="-55" font-family="Helvetica,sans-Serif" font-size="10.00">maxValue</text>
</a>
</g>
</g>
<!-- Node1&#45;&gt;Node2 -->
<g id="edge1_Node000001_Node000002" class="edge">
<title>Node1&#45;&gt;Node2</title>
<g id="a_edge1_Node000001_Node000002"><a xlink:title=" ">
<path fill="none" stroke="#63b8ff" d="M113.17,-47.94C122.99,-49.51 133.29,-51.17 143.32,-52.78"/>
<polygon fill="#63b8ff" stroke="#63b8ff" points="151.29,-54.06 142.82,-56.34 147.34,-53.42 143.39,-52.79 143.39,-52.79 143.39,-52.79 147.34,-53.42 143.96,-49.23 151.29,-54.06 151.29,-54.06"/>
</a>
</g>
</g>
<!-- Node3 -->
<g id="Node000003" class="node">
<title>Node3</title>
<g id="a_Node000003"><a xlink:href="classAbstractPokitService.html#a039d2f1054788cf586c8decadb53ddc0" target="_top" xlink:title="Returns the Pokit product this service is attached to.">
<polygon fill="white" stroke="#666666" points="267,-30 149,-30 149,0 267,0 267,-30"/>
<text text-anchor="start" x="157" y="-18" font-family="Helvetica,sans-Serif" font-size="10.00">AbstractPokitService</text>
<text text-anchor="middle" x="208" y="-7" font-family="Helvetica,sans-Serif" font-size="10.00">::pokitProduct</text>
</a>
</g>
</g>
<!-- Node1&#45;&gt;Node3 -->
<g id="edge2_Node000001_Node000003" class="edge">
<title>Node1&#45;&gt;Node3</title>
<g id="a_edge2_Node000001_Node000003"><a xlink:title=" ">
<path fill="none" stroke="#63b8ff" d="M113.17,-30.06C122.16,-28.62 131.54,-27.11 140.75,-25.64"/>
<polygon fill="#63b8ff" stroke="#63b8ff" points="148.78,-24.35 141.46,-29.17 144.84,-24.98 140.89,-25.61 140.89,-25.61 140.89,-25.61 144.84,-24.98 140.32,-22.06 148.78,-24.35 148.78,-24.35"/>
</a>
</g>
</g>
</g>
</svg>
