<?xml version="1.0" encoding="UTF-8" standalone="no"?>
<!DOCTYPE svg PUBLIC "-//W3C//DTD SVG 1.1//EN"
 "http://www.w3.org/Graphics/SVG/1.1/DTD/svg11.dtd">
<!-- Generated by graphviz version 2.43.0 (0)
 -->
<!-- Title: DeviceInfoService::readCharacteristics Pages: 1 -->
<svg width="350pt" height="235pt"
 viewBox="0.00 0.00 350.00 235.00" xmlns="http://www.w3.org/2000/svg" xmlns:xlink="http://www.w3.org/1999/xlink">
<g id="graph0" class="graph" transform="scale(1 1) rotate(0) translate(4 231)">
<title>DeviceInfoService::readCharacteristics</title>
<!-- Node1 -->
<g id="node1" class="node">
<title>Node1</title>
<g id="a_node1"><a xlink:title="Read all characteristics.">
<polygon fill="#bfbfbf" stroke="black" points="0,-98.5 0,-128.5 111,-128.5 111,-98.5 0,-98.5"/>
<text text-anchor="start" x="8" y="-116.5" font-family="Helvetica,sans-Serif" font-size="10.00">DeviceInfoService::</text>
<text text-anchor="middle" x="55.5" y="-105.5" font-family="Helvetica,sans-Serif" font-size="10.00">readCharacteristics</text>
</a>
</g>
</g>
<!-- Node2 -->
<g id="node2" class="node">
<title>Node2</title>
<g id="a_node2"><a xlink:href="classDeviceInfoService.html#a3a77c71bed9398ca507aa0657b41fd9a" target="_top" xlink:title="Read the Device Info service&#39;s Firmware Revision characteristic.">
<polygon fill="none" stroke="black" points="147.5,-196.5 147.5,-226.5 341.5,-226.5 341.5,-196.5 147.5,-196.5"/>
<text text-anchor="start" x="155.5" y="-214.5" font-family="Helvetica,sans-Serif" font-size="10.00">DeviceInfoService::</text>
<text text-anchor="middle" x="244.5" y="-203.5" font-family="Helvetica,sans-Serif" font-size="10.00">readFirmwareRevisionCharacteristic</text>
</a>
</g>
</g>
<!-- Node1&#45;&gt;Node2 -->
<g id="edge1" class="edge">
<title>Node1&#45;&gt;Node2</title>
<path fill="none" stroke="midnightblue" d="M70.72,-128.61C87.42,-145.45 116.7,-172.31 147,-187.5 150.97,-189.49 155.12,-191.32 159.37,-193.01"/>
<polygon fill="midnightblue" stroke="midnightblue" points="158.2,-196.31 168.8,-196.47 160.62,-189.74 158.2,-196.31"/>
</g>
<!-- Node3 -->
<g id="node3" class="node">
<title>Node3</title>
<g id="a_node3"><a xlink:href="classDeviceInfoService.html#a0be29e195fea415073d07907e7cf65a6" target="_top" xlink:title="Read the Device Info service&#39;s Hardware Revision characteristic.">
<polygon fill="none" stroke="black" points="147,-147.5 147,-177.5 342,-177.5 342,-147.5 147,-147.5"/>
<text text-anchor="start" x="155" y="-165.5" font-family="Helvetica,sans-Serif" font-size="10.00">DeviceInfoService::</text>
<text text-anchor="middle" x="244.5" y="-154.5" font-family="Helvetica,sans-Serif" font-size="10.00">readHardwareRevisionCharacteristic</text>
</a>
</g>
</g>
<!-- Node1&#45;&gt;Node3 -->
<g id="edge2" class="edge">
<title>Node1&#45;&gt;Node3</title>
<path fill="none" stroke="midnightblue" d="M110.04,-128.53C122.17,-131.87 135.02,-135.36 147,-138.5 155.1,-140.63 163.6,-142.81 172.05,-144.95"/>
<polygon fill="midnightblue" stroke="midnightblue" points="171.37,-148.39 181.92,-147.44 173.08,-141.6 171.37,-148.39"/>
</g>
<!-- Node4 -->
<g id="node4" class="node">
<title>Node4</title>
<g id="a_node4"><a xlink:href="classDeviceInfoService.html#a5e8128c7432c3ffe4d2ff045e117ab1e" target="_top" xlink:title="Read the Device Info service&#39;s Manufacturer Name characteristic.">
<polygon fill="none" stroke="black" points="156.5,-98.5 156.5,-128.5 332.5,-128.5 332.5,-98.5 156.5,-98.5"/>
<text text-anchor="start" x="164.5" y="-116.5" font-family="Helvetica,sans-Serif" font-size="10.00">DeviceInfoService::</text>
<text text-anchor="middle" x="244.5" y="-105.5" font-family="Helvetica,sans-Serif" font-size="10.00">readManufacturerCharacteristics</text>
</a>
</g>
</g>
<!-- Node1&#45;&gt;Node4 -->
<g id="edge3" class="edge">
<title>Node1&#45;&gt;Node4</title>
<path fill="none" stroke="midnightblue" d="M111.09,-113.5C122.21,-113.5 134.22,-113.5 146.31,-113.5"/>
<polygon fill="midnightblue" stroke="midnightblue" points="146.47,-117 156.47,-113.5 146.47,-110 146.47,-117"/>
</g>
<!-- Node5 -->
<g id="node5" class="node">
<title>Node5</title>
<g id="a_node5"><a xlink:href="classDeviceInfoService.html#a826dda294fcd640e43509bad3db71b10" target="_top" xlink:title="Read the Device Info service&#39;s Model Number characteristic.">
<polygon fill="none" stroke="black" points="157,-49.5 157,-79.5 332,-79.5 332,-49.5 157,-49.5"/>
<text text-anchor="start" x="165" y="-67.5" font-family="Helvetica,sans-Serif" font-size="10.00">DeviceInfoService::</text>
<text text-anchor="middle" x="244.5" y="-56.5" font-family="Helvetica,sans-Serif" font-size="10.00">readModelNumberCharacteristic</text>
</a>
</g>
</g>
<!-- Node1&#45;&gt;Node5 -->
<g id="edge4" class="edge">
<title>Node1&#45;&gt;Node5</title>
<path fill="none" stroke="midnightblue" d="M111.04,-98.98C122.89,-95.84 135.36,-92.55 147,-89.5 156.19,-87.09 165.89,-84.56 175.44,-82.08"/>
<polygon fill="midnightblue" stroke="midnightblue" points="176.51,-85.42 185.31,-79.52 174.75,-78.64 176.51,-85.42"/>
</g>
<!-- Node6 -->
<g id="node6" class="node">
<title>Node6</title>
<g id="a_node6"><a xlink:href="classDeviceInfoService.html#a1e08a98402611a2a8301012fd33b069c" target="_top" xlink:title="Read the Device Info service&#39;s Software Revision characteristic.">
<polygon fill="none" stroke="black" points="149,-0.5 149,-30.5 340,-30.5 340,-0.5 149,-0.5"/>
<text text-anchor="start" x="157" y="-18.5" font-family="Helvetica,sans-Serif" font-size="10.00">DeviceInfoService::</text>
<text text-anchor="middle" x="244.5" y="-7.5" font-family="Helvetica,sans-Serif" font-size="10.00">readSoftwareRevisionCharacteristic</text>
</a>
</g>
</g>
<!-- Node1&#45;&gt;Node6 -->
<g id="edge5" class="edge">
<title>Node1&#45;&gt;Node6</title>
<path fill="none" stroke="midnightblue" d="M71.09,-98.36C87.9,-81.78 117.07,-55.56 147,-40.5 151.66,-38.15 156.57,-36.01 161.59,-34.06"/>
<polygon fill="midnightblue" stroke="midnightblue" points="163.14,-37.22 171.37,-30.54 160.77,-30.64 163.14,-37.22"/>
</g>
</g>
</svg>
