<?xml version="1.0" encoding="UTF-8" standalone="no"?>
<!DOCTYPE svg PUBLIC "-//W3C//DTD SVG 1.1//EN"
 "http://www.w3.org/Graphics/SVG/1.1/DTD/svg11.dtd">
<!-- Generated by graphviz version 2.43.0 (0)
 -->
<!-- Title: StatusService::deviceCharacteristics Pages: 1 -->
<svg width="531pt" height="124pt"
 viewBox="0.00 0.00 531.00 124.00" xmlns="http://www.w3.org/2000/svg" xmlns:xlink="http://www.w3.org/1999/xlink">
<g id="graph0" class="graph" transform="scale(1 1) rotate(0) translate(4 120)">
<title>StatusService::deviceCharacteristics</title>
<!-- Node1 -->
<g id="Node000001" class="node">
<title>Node1</title>
<g id="a_Node000001"><a xlink:title="Returns the most recent value of the Status service&#39;s Device Characteristics characteristic.">
<polygon fill="#999999" stroke="#666666" points="194,-67.5 0,-67.5 0,-48.5 194,-48.5 194,-67.5"/>
<text text-anchor="middle" x="97" y="-55.5" font-family="Helvetica,sans-Serif" font-size="10.00">StatusService::deviceCharacteristics</text>
</a>
</g>
</g>
<!-- Node2 -->
<g id="Node000002" class="node">
<title>Node2</title>
<g id="a_Node000002"><a target="_parent" xlink:href="https://doc.qt.io/qt-5/qlowenergycharacteristic.html#isValid" xlink:title=" ">
<polygon fill="white" stroke="#666666" points="380.5,-116 235.5,-116 235.5,-86 380.5,-86 380.5,-116"/>
<text text-anchor="start" x="243.5" y="-104" font-family="Helvetica,sans-Serif" font-size="10.00">QLowEnergyCharacteristic</text>
<text text-anchor="middle" x="308" y="-93" font-family="Helvetica,sans-Serif" font-size="10.00">::isValid</text>
</a>
</g>
</g>
<!-- Node1&#45;&gt;Node2 -->
<g id="edge1_Node000001_Node000002" class="edge">
<title>Node1&#45;&gt;Node2</title>
<g id="a_edge1_Node000001_Node000002"><a xlink:title=" ">
<path fill="none" stroke="#63b8ff" d="M144.38,-67.54C168.79,-72.56 199.39,-78.86 227.45,-84.63"/>
<polygon fill="#63b8ff" stroke="#63b8ff" points="235.28,-86.25 226.72,-88.16 231.37,-85.44 227.45,-84.63 227.45,-84.63 227.45,-84.63 231.37,-85.44 228.17,-81.11 235.28,-86.25 235.28,-86.25"/>
</a>
</g>
</g>
<!-- Node3 -->
<g id="Node000003" class="node">
<title>Node3</title>
<g id="a_Node000003"><a xlink:href="classStatusService.html#a095254046689e5115ba053c029a2e1b8" target="_top" xlink:title="Constructs a new Pokit service with parent.">
<polygon fill="white" stroke="#666666" points="386,-67.5 230,-67.5 230,-48.5 386,-48.5 386,-67.5"/>
<text text-anchor="middle" x="308" y="-55.5" font-family="Helvetica,sans-Serif" font-size="10.00">StatusService::StatusService</text>
</a>
</g>
</g>
<!-- Node1&#45;&gt;Node3 -->
<g id="edge2_Node000001_Node000003" class="edge">
<title>Node1&#45;&gt;Node3</title>
<g id="a_edge2_Node000001_Node000003"><a xlink:title=" ">
<path fill="none" stroke="#63b8ff" d="M194.24,-58C203.35,-58 212.54,-58 221.53,-58"/>
<polygon fill="#63b8ff" stroke="#63b8ff" points="229.73,-58 221.73,-61.6 225.73,-58 221.73,-58 221.73,-58 221.73,-58 225.73,-58 221.73,-54.4 229.73,-58 229.73,-58"/>
</a>
</g>
</g>
<!-- Node6 -->
<g id="Node000006" class="node">
<title>Node6</title>
<g id="a_Node000006"><a target="_parent" xlink:href="https://doc.qt.io/qt-5/qlowenergycharacteristic.html#value" xlink:title=" ">
<polygon fill="white" stroke="#666666" points="380.5,-30 235.5,-30 235.5,0 380.5,0 380.5,-30"/>
<text text-anchor="start" x="243.5" y="-18" font-family="Helvetica,sans-Serif" font-size="10.00">QLowEnergyCharacteristic</text>
<text text-anchor="middle" x="308" y="-7" font-family="Helvetica,sans-Serif" font-size="10.00">::value</text>
</a>
</g>
</g>
<!-- Node1&#45;&gt;Node6 -->
<g id="edge5_Node000001_Node000006" class="edge">
<title>Node1&#45;&gt;Node6</title>
<g id="a_edge5_Node000001_Node000006"><a xlink:title=" ">
<path fill="none" stroke="#63b8ff" d="M144.38,-48.46C168.79,-43.44 199.39,-37.14 227.45,-31.37"/>
<polygon fill="#63b8ff" stroke="#63b8ff" points="235.28,-29.75 228.17,-34.89 231.37,-30.56 227.45,-31.37 227.45,-31.37 227.45,-31.37 231.37,-30.56 226.72,-27.84 235.28,-29.75 235.28,-29.75"/>
</a>
</g>
</g>
<!-- Node4 -->
<g id="Node000004" class="node">
<title>Node4</title>
<g id="a_Node000004"><a target="_parent" xlink:href="https://doc.qt.io/qt-5/qobject.html#parent" xlink:title=" ">
<polygon fill="white" stroke="#666666" points="519,-85.5 426,-85.5 426,-66.5 519,-66.5 519,-85.5"/>
<text text-anchor="middle" x="472.5" y="-73.5" font-family="Helvetica,sans-Serif" font-size="10.00">QObject::parent</text>
</a>
</g>
</g>
<!-- Node3&#45;&gt;Node4 -->
<g id="edge3_Node000003_Node000004" class="edge">
<title>Node3&#45;&gt;Node4</title>
<g id="a_edge3_Node000003_Node000004"><a xlink:title=" ">
<path fill="none" stroke="#63b8ff" d="M386.44,-66.58C396.92,-67.74 407.47,-68.91 417.42,-70.01"/>
<polygon fill="#63b8ff" stroke="#63b8ff" points="425.61,-70.92 417.26,-73.61 421.64,-70.48 417.66,-70.04 417.66,-70.04 417.66,-70.04 421.64,-70.48 418.06,-66.46 425.61,-70.92 425.61,-70.92"/>
</a>
</g>
</g>
<!-- Node5 -->
<g id="Node000005" class="node">
<title>Node5</title>
<g id="a_Node000005"><a target="_parent" xlink:href="https://doc.qt.io/qt-5/qobject.html#QObject" xlink:title=" ">
<polygon fill="white" stroke="#666666" points="523,-48.5 422,-48.5 422,-29.5 523,-29.5 523,-48.5"/>
<text text-anchor="middle" x="472.5" y="-36.5" font-family="Helvetica,sans-Serif" font-size="10.00">QObject::QObject</text>
</a>
</g>
</g>
<!-- Node3&#45;&gt;Node5 -->
<g id="edge4_Node000003_Node000005" class="edge">
<title>Node3&#45;&gt;Node5</title>
<g id="a_edge4_Node000003_Node000005"><a xlink:title=" ">
<path fill="none" stroke="#63b8ff" d="M386.44,-48.95C395.71,-47.86 405.03,-46.77 413.95,-45.73"/>
<polygon fill="#63b8ff" stroke="#63b8ff" points="422,-44.79 414.47,-49.29 418.03,-45.25 414.05,-45.72 414.05,-45.72 414.05,-45.72 418.03,-45.25 413.64,-42.14 422,-44.79 422,-44.79"/>
</a>
</g>
</g>
</g>
</svg>
