<?xml version="1.0" encoding="UTF-8" standalone="no"?>
<!DOCTYPE svg PUBLIC "-//W3C//DTD SVG 1.1//EN"
 "http://www.w3.org/Graphics/SVG/1.1/DTD/svg11.dtd">
<!-- Generated by graphviz version 2.43.0 (0)
 -->
<!-- Title: StatusService::setDeviceName Pages: 1 -->
<svg width="356pt" height="224pt"
 viewBox="0.00 0.00 356.00 224.00" xmlns="http://www.w3.org/2000/svg" xmlns:xlink="http://www.w3.org/1999/xlink">
<g id="graph0" class="graph" transform="scale(1 1) rotate(0) translate(4 220)">
<title>StatusService::setDeviceName</title>
<!-- Node1 -->
<g id="node1" class="node">
<title>Node1</title>
<g id="a_node1"><a xlink:title="Set&#39;s the Pokit device&#39;s name to name.">
<polygon fill="#999999" stroke="#666666" points="167,-111 0,-111 0,-92 167,-92 167,-111"/>
<text text-anchor="middle" x="83.5" y="-99" font-family="Helvetica,sans-Serif" font-size="10.00">StatusService::setDeviceName</text>
</a>
</g>
</g>
<!-- Node2 -->
<g id="node2" class="node">
<title>Node2</title>
<g id="a_node2"><a target="_parent" xlink:href="https://doc.qt.io/qt-5/qstring.html#arg-1" xlink:title=" ">
<polygon fill="white" stroke="#666666" points="312.5,-216 238.5,-216 238.5,-197 312.5,-197 312.5,-216"/>
<text text-anchor="middle" x="275.5" y="-204" font-family="Helvetica,sans-Serif" font-size="10.00">QString::arg</text>
</a>
</g>
</g>
<!-- Node1&#45;&gt;Node2 -->
<g id="edge1" class="edge">
<title>Node1&#45;&gt;Node2</title>
<path fill="none" stroke="#63b8ff" d="M94.75,-111.01C114.3,-128.65 158.92,-166.55 203,-187.5 211.61,-191.59 221.24,-194.91 230.57,-197.56"/>
<polygon fill="#63b8ff" stroke="#63b8ff" points="238.31,-199.62 229.65,-201.04 234.44,-198.59 230.58,-197.56 230.58,-197.56 230.58,-197.56 234.44,-198.59 231.51,-194.08 238.31,-199.62 238.31,-199.62"/>
</g>
<!-- Node3 -->
<g id="node3" class="node">
<title>Node3</title>
<g id="a_node3"><a target="_parent" xlink:href="https://doc.qt.io/qt-5/qlowenergycharacteristic.html#isValid" xlink:title=" ">
<polygon fill="white" stroke="#666666" points="348,-178.5 203,-178.5 203,-148.5 348,-148.5 348,-178.5"/>
<text text-anchor="start" x="211" y="-166.5" font-family="Helvetica,sans-Serif" font-size="10.00">QLowEnergyCharacteristic</text>
<text text-anchor="middle" x="275.5" y="-155.5" font-family="Helvetica,sans-Serif" font-size="10.00">::isValid</text>
</a>
</g>
</g>
<!-- Node1&#45;&gt;Node3 -->
<g id="edge2" class="edge">
<title>Node1&#45;&gt;Node3</title>
<path fill="none" stroke="#63b8ff" d="M113.77,-111.05C142.13,-120.3 185.8,-134.56 220.48,-145.87"/>
<polygon fill="#63b8ff" stroke="#63b8ff" points="228.18,-148.38 219.46,-149.32 224.37,-147.14 220.57,-145.9 220.57,-145.9 220.57,-145.9 224.37,-147.14 221.69,-142.48 228.18,-148.38 228.18,-148.38"/>
</g>
<!-- Node4 -->
<g id="node4" class="node">
<title>Node4</title>
<g id="a_node4"><a target="_parent" xlink:href="https://doc.qt.io/qt-5/qbytearray.html#length" xlink:title=" ">
<polygon fill="white" stroke="#666666" points="330,-130 221,-130 221,-111 330,-111 330,-130"/>
<text text-anchor="middle" x="275.5" y="-118" font-family="Helvetica,sans-Serif" font-size="10.00">QByteArray::length</text>
</a>
</g>
</g>
<!-- Node1&#45;&gt;Node4 -->
<g id="edge3" class="edge">
<title>Node1&#45;&gt;Node4</title>
<path fill="none" stroke="#63b8ff" d="M167.01,-109.75C182.39,-111.29 198.21,-112.87 212.83,-114.33"/>
<polygon fill="#63b8ff" stroke="#63b8ff" points="220.81,-115.13 212.5,-117.92 216.83,-114.73 212.85,-114.34 212.85,-114.34 212.85,-114.34 216.83,-114.73 213.21,-110.75 220.81,-115.13 220.81,-115.13"/>
</g>
<!-- Node5 -->
<g id="node5" class="node">
<title>Node5</title>
<g id="a_node5"><a target="_parent" xlink:href="https://doc.qt.io/qt-5/qbytearray.html#toHex" xlink:title=" ">
<polygon fill="white" stroke="#666666" points="329,-93 222,-93 222,-74 329,-74 329,-93"/>
<text text-anchor="middle" x="275.5" y="-81" font-family="Helvetica,sans-Serif" font-size="10.00">QByteArray::toHex</text>
</a>
</g>
</g>
<!-- Node1&#45;&gt;Node5 -->
<g id="edge4" class="edge">
<title>Node1&#45;&gt;Node5</title>
<path fill="none" stroke="#63b8ff" d="M167.01,-93.68C182.72,-92.19 198.91,-90.66 213.79,-89.25"/>
<polygon fill="#63b8ff" stroke="#63b8ff" points="221.91,-88.48 214.29,-92.82 217.93,-88.86 213.95,-89.24 213.95,-89.24 213.95,-89.24 217.93,-88.86 213.61,-85.65 221.91,-88.48 221.91,-88.48"/>
</g>
<!-- Node6 -->
<g id="node6" class="node">
<title>Node6</title>
<g id="a_node6"><a target="_parent" xlink:href="https://doc.qt.io/qt-5/qstring.html#toUtf8" xlink:title=" ">
<polygon fill="white" stroke="#666666" points="320,-56 231,-56 231,-37 320,-37 320,-56"/>
<text text-anchor="middle" x="275.5" y="-44" font-family="Helvetica,sans-Serif" font-size="10.00">QString::toUtf8</text>
</a>
</g>
</g>
<!-- Node1&#45;&gt;Node6 -->
<g id="edge5" class="edge">
<title>Node1&#45;&gt;Node6</title>
<path fill="none" stroke="#63b8ff" d="M115.1,-91.88C138.98,-84.45 173.01,-74.04 203,-65.5 211.69,-63.02 221.01,-60.47 229.95,-58.08"/>
<polygon fill="#63b8ff" stroke="#63b8ff" points="237.69,-56.02 230.89,-61.55 233.83,-57.05 229.96,-58.08 229.96,-58.08 229.96,-58.08 233.83,-57.05 229.03,-54.6 237.69,-56.02 237.69,-56.02"/>
</g>
<!-- Node7 -->
<g id="node7" class="node">
<title>Node7</title>
<g id="a_node7"><a target="_parent" xlink:href="https://doc.qt.io/qt-5/qobject.html#tr" xlink:title=" ">
<polygon fill="white" stroke="#666666" points="310,-19 241,-19 241,0 310,0 310,-19"/>
<text text-anchor="middle" x="275.5" y="-7" font-family="Helvetica,sans-Serif" font-size="10.00">QObject::tr</text>
</a>
</g>
</g>
<!-- Node1&#45;&gt;Node7 -->
<g id="edge6" class="edge">
<title>Node1&#45;&gt;Node7</title>
<path fill="none" stroke="#63b8ff" d="M97.31,-91.84C118.33,-76.41 161.93,-46.15 203,-28.5 212.4,-24.46 222.88,-21.09 232.85,-18.37"/>
<polygon fill="#63b8ff" stroke="#63b8ff" points="240.71,-16.33 233.88,-21.83 236.84,-17.33 232.97,-18.34 232.97,-18.34 232.97,-18.34 236.84,-17.33 232.07,-14.86 240.71,-16.33 240.71,-16.33"/>
</g>
</g>
</svg>
