<?xml version="1.0" encoding="UTF-8" standalone="no"?>
<!DOCTYPE svg PUBLIC "-//W3C//DTD SVG 1.1//EN"
 "http://www.w3.org/Graphics/SVG/1.1/DTD/svg11.dtd">
<!-- Generated by graphviz version 2.43.0 (0)
 -->
<!-- Title: DataLoggerService::fetchSamples Pages: 1 -->
<svg width="455pt" height="76pt"
 viewBox="0.00 0.00 455.00 75.50" xmlns="http://www.w3.org/2000/svg" xmlns:xlink="http://www.w3.org/1999/xlink">
<g id="graph0" class="graph" transform="scale(1 1) rotate(0) translate(4 71.5)">
<title>DataLoggerService::fetchSamples</title>
<!-- Node1 -->
<g id="node1" class="node">
<title>Node1</title>
<g id="a_node1"><a xlink:title="Start the data logger.">
<polygon fill="#999999" stroke="#666666" points="115,-51 0,-51 0,-21 115,-21 115,-51"/>
<text text-anchor="start" x="8" y="-39" font-family="Helvetica,sans-Serif" font-size="10.00">DataLoggerService::</text>
<text text-anchor="middle" x="57.5" y="-28" font-family="Helvetica,sans-Serif" font-size="10.00">fetchSamples</text>
</a>
</g>
</g>
<!-- Node2 -->
<g id="node2" class="node">
<title>Node2</title>
<g id="a_node2"><a xlink:href="classDataLoggerService.html#a3b933a1a161a390eb08e5019685f449c" target="_top" xlink:title="Configures the Pokit device&#39;s data logger mode.">
<polygon fill="white" stroke="#666666" points="266,-51 151,-51 151,-21 266,-21 266,-51"/>
<text text-anchor="start" x="159" y="-39" font-family="Helvetica,sans-Serif" font-size="10.00">DataLoggerService::</text>
<text text-anchor="middle" x="208.5" y="-28" font-family="Helvetica,sans-Serif" font-size="10.00">setSettings</text>
</a>
</g>
</g>
<!-- Node1&#45;&gt;Node2 -->
<g id="edge1" class="edge">
<title>Node1&#45;&gt;Node2</title>
<path fill="none" stroke="#63b8ff" d="M115.26,-36C123.56,-36 132.17,-36 140.65,-36"/>
<polygon fill="#63b8ff" stroke="#63b8ff" points="140.9,-39.5 150.9,-36 140.9,-32.5 140.9,-39.5"/>
</g>
<!-- Node3 -->
<g id="node3" class="node">
<title>Node3</title>
<g id="a_node3"><a target="_parent" xlink:href="https://doc.qt.io/qt-5/qbytearray.html#isNull" xlink:title=" ">
<polygon fill="white" stroke="#666666" points="427.5,-67.5 321.5,-67.5 321.5,-48.5 427.5,-48.5 427.5,-67.5"/>
<text text-anchor="middle" x="374.5" y="-55.5" font-family="Helvetica,sans-Serif" font-size="10.00">QByteArray::isNull</text>
</a>
</g>
</g>
<!-- Node2&#45;&gt;Node3 -->
<g id="edge2" class="edge">
<title>Node2&#45;&gt;Node3</title>
<path fill="none" stroke="#63b8ff" d="M266.4,-43.63C280.91,-45.58 296.57,-47.68 311.33,-49.66"/>
<polygon fill="#63b8ff" stroke="#63b8ff" points="311,-53.15 321.37,-51.01 311.93,-46.21 311,-53.15"/>
</g>
<!-- Node4 -->
<g id="node4" class="node">
<title>Node4</title>
<g id="a_node4"><a target="_parent" xlink:href="https://doc.qt.io/qt-5/qlowenergycharacteristic.html#isValid" xlink:title=" ">
<polygon fill="white" stroke="#666666" points="447,-30 302,-30 302,0 447,0 447,-30"/>
<text text-anchor="start" x="310" y="-18" font-family="Helvetica,sans-Serif" font-size="10.00">QLowEnergyCharacteristic</text>
<text text-anchor="middle" x="374.5" y="-7" font-family="Helvetica,sans-Serif" font-size="10.00">::isValid</text>
</a>
</g>
</g>
<!-- Node2&#45;&gt;Node4 -->
<g id="edge3" class="edge">
<title>Node2&#45;&gt;Node4</title>
<path fill="none" stroke="#63b8ff" d="M266.4,-28.71C274.64,-27.66 283.26,-26.55 291.88,-25.45"/>
<polygon fill="#63b8ff" stroke="#63b8ff" points="292.49,-28.9 301.97,-24.16 291.6,-21.96 292.49,-28.9"/>
</g>
</g>
</svg>
