<?xml version="1.0" encoding="UTF-8" standalone="no"?>
<!DOCTYPE svg PUBLIC "-//W3C//DTD SVG 1.1//EN"
 "http://www.w3.org/Graphics/SVG/1.1/DTD/svg11.dtd">
<!-- Generated by graphviz version 2.43.0 (0)
 -->
<!-- Title: MultimeterService::reading Pages: 1 -->
<svg width="302pt" height="86pt"
 viewBox="0.00 0.00 302.00 86.00" xmlns="http://www.w3.org/2000/svg" xmlns:xlink="http://www.w3.org/1999/xlink">
<g id="graph0" class="graph" transform="scale(1 1) rotate(0) translate(4 82)">
<title>MultimeterService::reading</title>
<!-- Node1 -->
<g id="node1" class="node">
<title>Node1</title>
<g id="a_node1"><a xlink:title="Returns the most recent value of the Multimeter service&#39;s Reading characteristic.">
<polygon fill="#999999" stroke="#666666" points="113,-54 0,-54 0,-24 113,-24 113,-54"/>
<text text-anchor="start" x="8" y="-42" font-family="Helvetica,sans-Serif" font-size="10.00">MultimeterService::</text>
<text text-anchor="middle" x="56.5" y="-31" font-family="Helvetica,sans-Serif" font-size="10.00">reading</text>
</a>
</g>
</g>
<!-- Node2 -->
<g id="node2" class="node">
<title>Node2</title>
<g id="a_node2"><a target="_parent" xlink:href="https://doc.qt.io/qt-5/qlowenergycharacteristic.html#isValid" xlink:title=" ">
<polygon fill="white" stroke="#666666" points="294,-78 149,-78 149,-48 294,-48 294,-78"/>
<text text-anchor="start" x="157" y="-66" font-family="Helvetica,sans-Serif" font-size="10.00">QLowEnergyCharacteristic</text>
<text text-anchor="middle" x="221.5" y="-55" font-family="Helvetica,sans-Serif" font-size="10.00">::isValid</text>
</a>
</g>
</g>
<!-- Node1&#45;&gt;Node2 -->
<g id="edge1" class="edge">
<title>Node1&#45;&gt;Node2</title>
<path fill="none" stroke="#63b8ff" d="M113.14,-47.19C121.43,-48.41 130.11,-49.69 138.8,-50.97"/>
<polygon fill="#63b8ff" stroke="#63b8ff" points="138.57,-54.47 148.97,-52.47 139.59,-47.55 138.57,-54.47"/>
</g>
<!-- Node3 -->
<g id="node3" class="node">
<title>Node3</title>
<g id="a_node3"><a target="_parent" xlink:href="https://doc.qt.io/qt-5/qlowenergycharacteristic.html#value" xlink:title=" ">
<polygon fill="white" stroke="#666666" points="294,-30 149,-30 149,0 294,0 294,-30"/>
<text text-anchor="start" x="157" y="-18" font-family="Helvetica,sans-Serif" font-size="10.00">QLowEnergyCharacteristic</text>
<text text-anchor="middle" x="221.5" y="-7" font-family="Helvetica,sans-Serif" font-size="10.00">::value</text>
</a>
</g>
</g>
<!-- Node1&#45;&gt;Node3 -->
<g id="edge2" class="edge">
<title>Node1&#45;&gt;Node3</title>
<path fill="none" stroke="#63b8ff" d="M113.14,-30.81C121.43,-29.59 130.11,-28.31 138.8,-27.03"/>
<polygon fill="#63b8ff" stroke="#63b8ff" points="139.59,-30.45 148.97,-25.53 138.57,-23.53 139.59,-30.45"/>
</g>
</g>
</svg>
