<?xml version="1.0" encoding="UTF-8" standalone="no"?>
<!DOCTYPE svg PUBLIC "-//W3C//DTD SVG 1.1//EN"
 "http://www.w3.org/Graphics/SVG/1.1/DTD/svg11.dtd">
<!-- Generated by graphviz version 2.43.0 (0)
 -->
<!-- Title: MultimeterService::readingRead Pages: 1 -->
<svg width="623pt" height="187pt"
 viewBox="0.00 0.00 623.00 186.50" xmlns="http://www.w3.org/2000/svg" xmlns:xlink="http://www.w3.org/1999/xlink">
<g id="graph0" class="graph" transform="scale(1 1) rotate(0) translate(4 182.5)">
<title>MultimeterService::readingRead</title>
<!-- Node1 -->
<g id="Node000001" class="node">
<title>Node1</title>
<g id="a_Node000001"><a xlink:title="This signal is emitted when the Reading characteristic has been read successfully.">
<polygon fill="#999999" stroke="#666666" points="113,-121 0,-121 0,-91 113,-91 113,-121"/>
<text text-anchor="start" x="8" y="-109" font-family="Helvetica,sans-Serif" font-size="10.00">MultimeterService::</text>
<text text-anchor="middle" x="56.5" y="-98" font-family="Helvetica,sans-Serif" font-size="10.00">readingRead</text>
</a>
</g>
</g>
<!-- Node2 -->
<g id="Node000002" class="node">
<title>Node2</title>
<g id="a_Node000002"><a xlink:href="classMultimeterService.html#a8121655f13ddf00fc2a65921b5ebc67b" target="_top" xlink:title="Constructs a new Pokit service with parent.">
<polygon fill="white" stroke="#666666" points="462,-164 349,-164 349,-134 462,-134 462,-164"/>
<text text-anchor="start" x="357" y="-152" font-family="Helvetica,sans-Serif" font-size="10.00">MultimeterService::</text>
<text text-anchor="middle" x="405.5" y="-141" font-family="Helvetica,sans-Serif" font-size="10.00">MultimeterService</text>
</a>
</g>
</g>
<!-- Node1&#45;&gt;Node2 -->
<g id="edge1_Node000001_Node000002" class="edge">
<title>Node1&#45;&gt;Node2</title>
<g id="a_edge1_Node000001_Node000002"><a xlink:title=" ">
<path fill="none" stroke="#63b8ff" d="M113.1,-114.86C124.93,-116.65 137.37,-118.45 149,-120 214.21,-128.69 289.01,-136.98 340.75,-142.46"/>
<polygon fill="#63b8ff" stroke="#63b8ff" points="348.85,-143.31 340.52,-146.05 344.87,-142.89 340.9,-142.47 340.9,-142.47 340.9,-142.47 344.87,-142.89 341.27,-138.89 348.85,-143.31 348.85,-143.31"/>
</a>
</g>
</g>
<!-- Node3 -->
<g id="Node000003" class="node">
<title>Node3</title>
<g id="a_Node000003"><a target="_parent" xlink:href="https://doc.qt.io/qt-5/qobject.html#parent" xlink:title=" ">
<polygon fill="white" stroke="#666666" points="611,-178.5 518,-178.5 518,-159.5 611,-159.5 611,-178.5"/>
<text text-anchor="middle" x="564.5" y="-166.5" font-family="Helvetica,sans-Serif" font-size="10.00">QObject::parent</text>
</a>
</g>
</g>
<!-- Node1&#45;&gt;Node3 -->
<g id="edge4_Node000001_Node000003" class="edge">
<title>Node1&#45;&gt;Node3</title>
<g id="a_edge4_Node000001_Node000003"><a xlink:title=" ">
<path fill="none" stroke="#63b8ff" d="M90.82,-121.04C107.92,-128.27 129.26,-136.52 149,-142 290.51,-181.3 331.17,-176.43 478,-173 488.2,-172.76 499.08,-172.36 509.53,-171.91"/>
<polygon fill="#63b8ff" stroke="#63b8ff" points="517.81,-171.53 509.98,-175.49 513.81,-171.71 509.82,-171.9 509.82,-171.9 509.82,-171.9 513.81,-171.71 509.66,-168.3 517.81,-171.53 517.81,-171.53"/>
</a>
</g>
</g>
<!-- Node4 -->
<g id="Node000004" class="node">
<title>Node4</title>
<g id="a_Node000004"><a target="_parent" xlink:href="https://doc.qt.io/qt-5/qobject.html#QObject" xlink:title=" ">
<polygon fill="white" stroke="#666666" points="615,-138.5 514,-138.5 514,-119.5 615,-119.5 615,-138.5"/>
<text text-anchor="middle" x="564.5" y="-126.5" font-family="Helvetica,sans-Serif" font-size="10.00">QObject::QObject</text>
</a>
</g>
</g>
<!-- Node1&#45;&gt;Node4 -->
<g id="edge6_Node000001_Node000004" class="edge">
<title>Node1&#45;&gt;Node4</title>
<g id="a_edge6_Node000001_Node000004"><a xlink:title=" ">
<path fill="none" stroke="#63b8ff" d="M113.28,-108.49C193.81,-112.1 347.33,-118.99 478,-125 486.96,-125.41 496.44,-125.85 505.7,-126.28"/>
<polygon fill="#63b8ff" stroke="#63b8ff" points="513.77,-126.66 505.61,-129.88 509.77,-126.47 505.78,-126.29 505.78,-126.29 505.78,-126.29 509.77,-126.47 505.95,-122.69 513.77,-126.66 513.77,-126.66"/>
</a>
</g>
</g>
<!-- Node5 -->
<g id="Node000005" class="node">
<title>Node5</title>
<g id="a_Node000005"><a target="_parent" xlink:href="https://doc.qt.io/qt-5/qobject.html#Q_DISABLE_COPY" xlink:title=" ">
<polygon fill="white" stroke="#666666" points="297,-29.5 149,-29.5 149,-10.5 297,-10.5 297,-29.5"/>
<text text-anchor="middle" x="223" y="-17.5" font-family="Helvetica,sans-Serif" font-size="10.00">QObject::Q_DISABLE_COPY</text>
</a>
</g>
</g>
<!-- Node1&#45;&gt;Node5 -->
<g id="edge5_Node000001_Node000005" class="edge">
<title>Node1&#45;&gt;Node5</title>
<g id="a_edge5_Node000001_Node000005"><a xlink:title=" ">
<path fill="none" stroke="#63b8ff" d="M74.12,-90.79C91.56,-75.59 120.37,-52.6 149,-39 154.66,-36.31 160.75,-33.97 166.91,-31.93"/>
<polygon fill="#63b8ff" stroke="#63b8ff" points="174.73,-29.51 168.15,-35.31 170.91,-30.69 167.09,-31.88 167.09,-31.88 167.09,-31.88 170.91,-30.69 166.02,-28.44 174.73,-29.51 174.73,-29.51"/>
</a>
</g>
</g>
<!-- Node6 -->
<g id="Node000006" class="node">
<title>Node6</title>
<g id="a_Node000006"><a xlink:href="classMultimeterService.html#ad7623c59f41fc099bebd3447637a904e" target="_top" xlink:title="Returns the most recent value of the Multimeter service&#39;s Reading characteristic.">
<polygon fill="white" stroke="#666666" points="279.5,-78 166.5,-78 166.5,-48 279.5,-48 279.5,-78"/>
<text text-anchor="start" x="174.5" y="-66" font-family="Helvetica,sans-Serif" font-size="10.00">MultimeterService::</text>
<text text-anchor="middle" x="223" y="-55" font-family="Helvetica,sans-Serif" font-size="10.00">reading</text>
</a>
</g>
</g>
<!-- Node1&#45;&gt;Node6 -->
<g id="edge7_Node000001_Node000006" class="edge">
<title>Node1&#45;&gt;Node6</title>
<g id="a_edge7_Node000001_Node000006"><a xlink:title=" ">
<path fill="none" stroke="#63b8ff" d="M113.19,-91.44C127.66,-87.66 143.36,-83.56 158.21,-79.67"/>
<polygon fill="#63b8ff" stroke="#63b8ff" points="166.37,-77.54 159.54,-83.05 162.5,-78.55 158.63,-79.57 158.63,-79.57 158.63,-79.57 162.5,-78.55 157.71,-76.08 166.37,-77.54 166.37,-77.54"/>
</a>
</g>
</g>
<!-- Node2&#45;&gt;Node3 -->
<g id="edge2_Node000002_Node000003" class="edge">
<title>Node2&#45;&gt;Node3</title>
<g id="a_edge2_Node000002_Node000003"><a xlink:title=" ">
<path fill="none" stroke="#63b8ff" d="M462.29,-156.11C477.69,-158.07 494.36,-160.19 509.64,-162.14"/>
<polygon fill="#63b8ff" stroke="#63b8ff" points="517.97,-163.2 509.58,-165.76 514,-162.69 510.03,-162.19 510.03,-162.19 510.03,-162.19 514,-162.69 510.49,-158.62 517.97,-163.2 517.97,-163.2"/>
</a>
</g>
</g>
<!-- Node2&#45;&gt;Node4 -->
<g id="edge3_Node000002_Node000004" class="edge">
<title>Node2&#45;&gt;Node4</title>
<g id="a_edge3_Node000002_Node000004"><a xlink:title=" ">
<path fill="none" stroke="#63b8ff" d="M462.29,-141.89C476.37,-140.1 491.5,-138.17 505.67,-136.37"/>
<polygon fill="#63b8ff" stroke="#63b8ff" points="513.89,-135.32 506.41,-139.9 509.92,-135.83 505.95,-136.33 505.95,-136.33 505.95,-136.33 509.92,-135.83 505.5,-132.76 513.89,-135.32 513.89,-135.32"/>
</a>
</g>
</g>
<!-- Node6&#45;&gt;Node2 -->
<g id="edge9_Node000006_Node000002" class="edge">
<title>Node6&#45;&gt;Node2</title>
<g id="a_edge9_Node000006_Node000002"><a xlink:title=" ">
<path fill="none" stroke="#63b8ff" d="M255.85,-78.18C286.4,-92.73 332.58,-114.73 365.36,-130.35"/>
<polygon fill="#63b8ff" stroke="#63b8ff" points="372.96,-133.97 364.19,-133.78 369.35,-132.25 365.74,-130.53 365.74,-130.53 365.74,-130.53 369.35,-132.25 367.29,-127.28 372.96,-133.97 372.96,-133.97"/>
</a>
</g>
</g>
<!-- Node7 -->
<g id="Node000007" class="node">
<title>Node7</title>
<g id="a_Node000007"><a target="_parent" xlink:href="https://doc.qt.io/qt-5/qlowenergycharacteristic.html#isValid" xlink:title=" ">
<polygon fill="white" stroke="#666666" points="478,-30 333,-30 333,0 478,0 478,-30"/>
<text text-anchor="start" x="341" y="-18" font-family="Helvetica,sans-Serif" font-size="10.00">QLowEnergyCharacteristic</text>
<text text-anchor="middle" x="405.5" y="-7" font-family="Helvetica,sans-Serif" font-size="10.00">::isValid</text>
</a>
</g>
</g>
<!-- Node6&#45;&gt;Node7 -->
<g id="edge8_Node000006_Node000007" class="edge">
<title>Node6&#45;&gt;Node7</title>
<g id="a_edge8_Node000006_Node000007"><a xlink:title=" ">
<path fill="none" stroke="#63b8ff" d="M279.63,-48.21C298.74,-43.12 320.29,-37.39 340.05,-32.14"/>
<polygon fill="#63b8ff" stroke="#63b8ff" points="347.81,-30.08 341,-35.61 343.94,-31.1 340.08,-32.13 340.08,-32.13 340.08,-32.13 343.94,-31.1 339.15,-28.65 347.81,-30.08 347.81,-30.08"/>
</a>
</g>
</g>
<!-- Node8 -->
<g id="Node000008" class="node">
<title>Node8</title>
<g id="a_Node000008"><a target="_parent" xlink:href="https://doc.qt.io/qt-5/qlowenergycharacteristic.html#value" xlink:title=" ">
<polygon fill="white" stroke="#666666" points="478,-78 333,-78 333,-48 478,-48 478,-78"/>
<text text-anchor="start" x="341" y="-66" font-family="Helvetica,sans-Serif" font-size="10.00">QLowEnergyCharacteristic</text>
<text text-anchor="middle" x="405.5" y="-55" font-family="Helvetica,sans-Serif" font-size="10.00">::value</text>
</a>
</g>
</g>
<!-- Node6&#45;&gt;Node8 -->
<g id="edge10_Node000006_Node000008" class="edge">
<title>Node6&#45;&gt;Node8</title>
<g id="a_edge10_Node000006_Node000008"><a xlink:title=" ">
<path fill="none" stroke="#63b8ff" d="M279.63,-63C293.79,-63 309.29,-63 324.4,-63"/>
<polygon fill="#63b8ff" stroke="#63b8ff" points="332.75,-63 324.75,-66.6 328.75,-63 324.75,-63 324.75,-63 324.75,-63 328.75,-63 324.75,-59.4 332.75,-63 332.75,-63"/>
</a>
</g>
</g>
</g>
</svg>
