<?xml version="1.0" encoding="UTF-8" standalone="no"?>
<!DOCTYPE svg PUBLIC "-//W3C//DTD SVG 1.1//EN"
 "http://www.w3.org/Graphics/SVG/1.1/DTD/svg11.dtd">
<!-- Generated by graphviz version 2.43.0 (0)
 -->
<!-- Title: DataLoggerService::setSettings Pages: 1 -->
<svg width="312pt" height="116pt"
 viewBox="0.00 0.00 312.00 115.50" xmlns="http://www.w3.org/2000/svg" xmlns:xlink="http://www.w3.org/1999/xlink">
<g id="graph0" class="graph" transform="scale(1 1) rotate(0) translate(4 111.5)">
<title>DataLoggerService::setSettings</title>
<!-- Node1 -->
<g id="node1" class="node">
<title>Node1</title>
<g id="a_node1"><a xlink:title="Configures the Pokit device&#39;s data logger mode.">
<polygon fill="#bfbfbf" stroke="black" points="0,-33 0,-63 115,-63 115,-33 0,-33"/>
<text text-anchor="start" x="8" y="-51" font-family="Helvetica,sans-Serif" font-size="10.00">DataLoggerService::</text>
<text text-anchor="middle" x="57.5" y="-40" font-family="Helvetica,sans-Serif" font-size="10.00">setSettings</text>
</a>
</g>
</g>
<!-- Node2 -->
<g id="node2" class="node">
<title>Node2</title>
<g id="a_node2"><a target="_parent" xlink:href="https://doc.qt.io/qt-5/qlowenergycharacteristic.html#isValid" xlink:title=" ">
<polygon fill="none" stroke="black" points="155,-77 155,-107 300,-107 300,-77 155,-77"/>
<text text-anchor="start" x="163" y="-95" font-family="Helvetica,sans-Serif" font-size="10.00">QLowEnergyCharacteristic</text>
<text text-anchor="middle" x="227.5" y="-84" font-family="Helvetica,sans-Serif" font-size="10.00">::isValid</text>
</a>
</g>
</g>
<!-- Node1&#45;&gt;Node2 -->
<g id="edge1" class="edge">
<title>Node1&#45;&gt;Node2</title>
<path fill="none" stroke="midnightblue" d="M115.38,-62.9C129.45,-66.58 144.67,-70.57 159.19,-74.37"/>
<polygon fill="midnightblue" stroke="midnightblue" points="158.55,-77.82 169.11,-76.97 160.32,-71.05 158.55,-77.82"/>
</g>
<!-- Node3 -->
<g id="node3" class="node">
<title>Node3</title>
<g id="a_node3"><a target="_parent" xlink:href="https://doc.qt.io/qt-5/qdatastream.html#setByteOrder" xlink:title=" ">
<polygon fill="none" stroke="black" points="151,-38.5 151,-57.5 304,-57.5 304,-38.5 151,-38.5"/>
<text text-anchor="middle" x="227.5" y="-45.5" font-family="Helvetica,sans-Serif" font-size="10.00">QDataStream::setByteOrder</text>
</a>
</g>
</g>
<!-- Node1&#45;&gt;Node3 -->
<g id="edge2" class="edge">
<title>Node1&#45;&gt;Node3</title>
<path fill="none" stroke="midnightblue" d="M115.38,-48C123.59,-48 132.18,-48 140.81,-48"/>
<polygon fill="midnightblue" stroke="midnightblue" points="140.92,-51.5 150.92,-48 140.92,-44.5 140.92,-51.5"/>
</g>
<!-- Node4 -->
<g id="node4" class="node">
<title>Node4</title>
<g id="a_node4"><a target="_parent" xlink:href="https://doc.qt.io/qt-5/qbytearray.html#size" xlink:title=" ">
<polygon fill="none" stroke="black" points="178.5,-0.5 178.5,-19.5 276.5,-19.5 276.5,-0.5 178.5,-0.5"/>
<text text-anchor="middle" x="227.5" y="-7.5" font-family="Helvetica,sans-Serif" font-size="10.00">QByteArray::size</text>
</a>
</g>
</g>
<!-- Node1&#45;&gt;Node4 -->
<g id="edge3" class="edge">
<title>Node1&#45;&gt;Node4</title>
<path fill="none" stroke="midnightblue" d="M115.38,-35.13C134.5,-30.81 155.73,-26.01 174.46,-21.77"/>
<polygon fill="midnightblue" stroke="midnightblue" points="175.31,-25.17 184.29,-19.55 173.76,-18.34 175.31,-25.17"/>
</g>
</g>
</svg>
