<?xml version="1.0" encoding="UTF-8" standalone="no"?>
<!DOCTYPE svg PUBLIC "-//W3C//DTD SVG 1.1//EN"
 "http://www.w3.org/Graphics/SVG/1.1/DTD/svg11.dtd">
<!-- Generated by graphviz version 2.43.0 (0)
 -->
<!-- Title: StatusService::enableStatusNotifications Pages: 1 -->
<svg width="490pt" height="64pt"
 viewBox="0.00 0.00 490.00 64.00" xmlns="http://www.w3.org/2000/svg" xmlns:xlink="http://www.w3.org/1999/xlink">
<g id="graph0" class="graph" transform="scale(1 1) rotate(0) translate(4 60)">
<title>StatusService::enableStatusNotifications</title>
<!-- Node1 -->
<g id="Node000001" class="node">
<title>Node1</title>
<g id="a_Node000001"><a xlink:title="Enables client&#45;side notifications of device status changes.">
<polygon fill="#999999" stroke="#666666" points="153,-42.5 0,-42.5 0,-12.5 153,-12.5 153,-42.5"/>
<text text-anchor="start" x="8" y="-30.5" font-family="Helvetica,sans-Serif" font-size="10.00">StatusService::enableStatus</text>
<text text-anchor="middle" x="76.5" y="-19.5" font-family="Helvetica,sans-Serif" font-size="10.00">Notifications</text>
</a>
</g>
</g>
<!-- Node2 -->
<g id="Node000002" class="node">
<title>Node2</title>
<g id="a_Node000002"><a xlink:href="classStatusService.html#a095254046689e5115ba053c029a2e1b8" target="_top" xlink:title="Constructs a new Pokit service with parent.">
<polygon fill="white" stroke="#666666" points="345,-37 189,-37 189,-18 345,-18 345,-37"/>
<text text-anchor="middle" x="267" y="-25" font-family="Helvetica,sans-Serif" font-size="10.00">StatusService::StatusService</text>
</a>
</g>
</g>
<!-- Node1&#45;&gt;Node2 -->
<g id="edge1_Node000001_Node000002" class="edge">
<title>Node1&#45;&gt;Node2</title>
<g id="a_edge1_Node000001_Node000002"><a xlink:title=" ">
<path fill="none" stroke="#63b8ff" d="M153.08,-27.5C162.19,-27.5 171.55,-27.5 180.78,-27.5"/>
<polygon fill="#63b8ff" stroke="#63b8ff" points="188.86,-27.5 180.86,-31.1 184.86,-27.5 180.86,-27.5 180.86,-27.5 180.86,-27.5 184.86,-27.5 180.86,-23.9 188.86,-27.5 188.86,-27.5"/>
</a>
</g>
</g>
<!-- Node3 -->
<g id="Node000003" class="node">
<title>Node3</title>
<g id="a_Node000003"><a target="_parent" xlink:href="https://doc.qt.io/qt-5/qobject.html#parent" xlink:title=" ">
<polygon fill="white" stroke="#666666" points="478,-56 385,-56 385,-37 478,-37 478,-56"/>
<text text-anchor="middle" x="431.5" y="-44" font-family="Helvetica,sans-Serif" font-size="10.00">QObject::parent</text>
</a>
</g>
</g>
<!-- Node2&#45;&gt;Node3 -->
<g id="edge2_Node000002_Node000003" class="edge">
<title>Node2&#45;&gt;Node3</title>
<g id="a_edge2_Node000002_Node000003"><a xlink:title=" ">
<path fill="none" stroke="#63b8ff" d="M345.44,-36.55C355.92,-37.78 366.47,-39.01 376.42,-40.18"/>
<polygon fill="#63b8ff" stroke="#63b8ff" points="384.61,-41.13 376.25,-43.78 380.64,-40.67 376.67,-40.21 376.67,-40.21 376.67,-40.21 380.64,-40.67 377.08,-36.63 384.61,-41.13 384.61,-41.13"/>
</a>
</g>
</g>
<!-- Node4 -->
<g id="Node000004" class="node">
<title>Node4</title>
<g id="a_Node000004"><a target="_parent" xlink:href="https://doc.qt.io/qt-5/qobject.html#QObject" xlink:title=" ">
<polygon fill="white" stroke="#666666" points="482,-19 381,-19 381,0 482,0 482,-19"/>
<text text-anchor="middle" x="431.5" y="-7" font-family="Helvetica,sans-Serif" font-size="10.00">QObject::QObject</text>
</a>
</g>
</g>
<!-- Node2&#45;&gt;Node4 -->
<g id="edge3_Node000002_Node000004" class="edge">
<title>Node2&#45;&gt;Node4</title>
<g id="a_edge3_Node000002_Node000004"><a xlink:title=" ">
<path fill="none" stroke="#63b8ff" d="M345.44,-18.92C354.71,-17.9 364.03,-16.86 372.95,-15.88"/>
<polygon fill="#63b8ff" stroke="#63b8ff" points="381,-14.98 373.44,-19.44 377.02,-15.42 373.05,-15.86 373.05,-15.86 373.05,-15.86 377.02,-15.42 372.65,-12.29 381,-14.98 381,-14.98"/>
</a>
</g>
</g>
</g>
</svg>
