<?xml version="1.0" encoding="UTF-8" standalone="no"?>
<!DOCTYPE svg PUBLIC "-//W3C//DTD SVG 1.1//EN"
 "http://www.w3.org/Graphics/SVG/1.1/DTD/svg11.dtd">
<!-- Generated by graphviz version 2.43.0 (0)
 -->
<!-- Title: DsoService::metadata Pages: 1 -->
<svg width="451pt" height="142pt"
 viewBox="0.00 0.00 451.00 141.50" xmlns="http://www.w3.org/2000/svg" xmlns:xlink="http://www.w3.org/1999/xlink">
<g id="graph0" class="graph" transform="scale(1 1) rotate(0) translate(4 137.5)">
<title>DsoService::metadata</title>
<!-- Node1 -->
<g id="Node000001" class="node">
<title>Node1</title>
<g id="a_Node000001"><a xlink:title="Returns the most recent value of the DSO service&#39;s Metadata characteristic.">
<polygon fill="#999999" stroke="#666666" points="125,-72.5 0,-72.5 0,-53.5 125,-53.5 125,-72.5"/>
<text text-anchor="middle" x="62.5" y="-60.5" font-family="Helvetica,sans-Serif" font-size="10.00">DsoService::metadata</text>
</a>
</g>
</g>
<!-- Node2 -->
<g id="Node000002" class="node">
<title>Node2</title>
<g id="a_Node000002"><a xlink:href="classDsoService.html#a1dd2b779c611f5d255bedf8f142806b7" target="_top" xlink:title="Constructs a new Pokit service with parent.">
<polygon fill="white" stroke="#666666" points="299.5,-115.5 167.5,-115.5 167.5,-96.5 299.5,-96.5 299.5,-115.5"/>
<text text-anchor="middle" x="233.5" y="-103.5" font-family="Helvetica,sans-Serif" font-size="10.00">DsoService::DsoService</text>
</a>
</g>
</g>
<!-- Node1&#45;&gt;Node2 -->
<g id="edge1_Node000001_Node000002" class="edge">
<title>Node1&#45;&gt;Node2</title>
<g id="a_edge1_Node000001_Node000002"><a xlink:title=" ">
<path fill="none" stroke="#63b8ff" d="M101.01,-72.54C126.5,-79.03 160.35,-87.64 187.33,-94.51"/>
<polygon fill="#63b8ff" stroke="#63b8ff" points="195.1,-96.48 186.46,-98 191.22,-95.5 187.35,-94.51 187.35,-94.51 187.35,-94.51 191.22,-95.5 188.23,-91.02 195.1,-96.48 195.1,-96.48"/>
</a>
</g>
</g>
<!-- Node5 -->
<g id="Node000005" class="node">
<title>Node5</title>
<g id="a_Node000005"><a target="_parent" xlink:href="https://doc.qt.io/qt-5/qlowenergycharacteristic.html#isValid" xlink:title=" ">
<polygon fill="white" stroke="#666666" points="306,-78 161,-78 161,-48 306,-48 306,-78"/>
<text text-anchor="start" x="169" y="-66" font-family="Helvetica,sans-Serif" font-size="10.00">QLowEnergyCharacteristic</text>
<text text-anchor="middle" x="233.5" y="-55" font-family="Helvetica,sans-Serif" font-size="10.00">::isValid</text>
</a>
</g>
</g>
<!-- Node1&#45;&gt;Node5 -->
<g id="edge4_Node000001_Node000005" class="edge">
<title>Node1&#45;&gt;Node5</title>
<g id="a_edge4_Node000001_Node000005"><a xlink:title=" ">
<path fill="none" stroke="#63b8ff" d="M125.47,-63C134.36,-63 143.61,-63 152.78,-63"/>
<polygon fill="#63b8ff" stroke="#63b8ff" points="160.81,-63 152.81,-66.6 156.81,-63 152.81,-63 152.81,-63 152.81,-63 156.81,-63 152.81,-59.4 160.81,-63 160.81,-63"/>
</a>
</g>
</g>
<!-- Node6 -->
<g id="Node000006" class="node">
<title>Node6</title>
<g id="a_Node000006"><a target="_parent" xlink:href="https://doc.qt.io/qt-5/qlowenergycharacteristic.html#value" xlink:title=" ">
<polygon fill="white" stroke="#666666" points="306,-30 161,-30 161,0 306,0 306,-30"/>
<text text-anchor="start" x="169" y="-18" font-family="Helvetica,sans-Serif" font-size="10.00">QLowEnergyCharacteristic</text>
<text text-anchor="middle" x="233.5" y="-7" font-family="Helvetica,sans-Serif" font-size="10.00">::value</text>
</a>
</g>
</g>
<!-- Node1&#45;&gt;Node6 -->
<g id="edge5_Node000001_Node000006" class="edge">
<title>Node1&#45;&gt;Node6</title>
<g id="a_edge5_Node000001_Node000006"><a xlink:title=" ">
<path fill="none" stroke="#63b8ff" d="M97.29,-53.4C118.5,-47.38 146.47,-39.43 171.47,-32.33"/>
<polygon fill="#63b8ff" stroke="#63b8ff" points="179.47,-30.06 172.75,-35.71 175.62,-31.16 171.77,-32.25 171.77,-32.25 171.77,-32.25 175.62,-31.16 170.79,-28.79 179.47,-30.06 179.47,-30.06"/>
</a>
</g>
</g>
<!-- Node3 -->
<g id="Node000003" class="node">
<title>Node3</title>
<g id="a_Node000003"><a target="_parent" xlink:href="https://doc.qt.io/qt-5/qobject.html#parent" xlink:title=" ">
<polygon fill="white" stroke="#666666" points="439,-133.5 346,-133.5 346,-114.5 439,-114.5 439,-133.5"/>
<text text-anchor="middle" x="392.5" y="-121.5" font-family="Helvetica,sans-Serif" font-size="10.00">QObject::parent</text>
</a>
</g>
</g>
<!-- Node2&#45;&gt;Node3 -->
<g id="edge2_Node000002_Node000003" class="edge">
<title>Node2&#45;&gt;Node3</title>
<g id="a_edge2_Node000002_Node000003"><a xlink:title=" ">
<path fill="none" stroke="#63b8ff" d="M299.72,-113.48C312.31,-114.92 325.38,-116.42 337.57,-117.82"/>
<polygon fill="#63b8ff" stroke="#63b8ff" points="345.85,-118.77 337.49,-121.43 341.87,-118.31 337.9,-117.85 337.9,-117.85 337.9,-117.85 341.87,-118.31 338.31,-114.28 345.85,-118.77 345.85,-118.77"/>
</a>
</g>
</g>
<!-- Node4 -->
<g id="Node000004" class="node">
<title>Node4</title>
<g id="a_Node000004"><a target="_parent" xlink:href="https://doc.qt.io/qt-5/qobject.html#QObject" xlink:title=" ">
<polygon fill="white" stroke="#666666" points="443,-96.5 342,-96.5 342,-77.5 443,-77.5 443,-96.5"/>
<text text-anchor="middle" x="392.5" y="-84.5" font-family="Helvetica,sans-Serif" font-size="10.00">QObject::QObject</text>
</a>
</g>
</g>
<!-- Node2&#45;&gt;Node4 -->
<g id="edge3_Node000002_Node000004" class="edge">
<title>Node2&#45;&gt;Node4</title>
<g id="a_edge3_Node000002_Node000004"><a xlink:title=" ">
<path fill="none" stroke="#63b8ff" d="M299.72,-98.11C310.86,-96.76 322.38,-95.37 333.32,-94.04"/>
<polygon fill="#63b8ff" stroke="#63b8ff" points="341.57,-93.04 334.06,-97.58 337.6,-93.52 333.62,-94 333.62,-94 333.62,-94 337.6,-93.52 333.19,-90.43 341.57,-93.04 341.57,-93.04"/>
</a>
</g>
</g>
</g>
</svg>
