<?xml version="1.0" encoding="UTF-8" standalone="no"?>
<!DOCTYPE svg PUBLIC "-//W3C//DTD SVG 1.1//EN"
 "http://www.w3.org/Graphics/SVG/1.1/DTD/svg11.dtd">
<!-- Generated by graphviz version 2.43.0 (0)
 -->
<!-- Title: dataloggerservice.cpp Pages: 1 -->
<svg width="1055pt" height="302pt"
 viewBox="0.00 0.00 1054.50 302.00" xmlns="http://www.w3.org/2000/svg" xmlns:xlink="http://www.w3.org/1999/xlink">
<g id="graph0" class="graph" transform="scale(1 1) rotate(0) translate(4 298)">
<title>dataloggerservice.cpp</title>
<!-- Node1 -->
<g id="node1" class="node">
<title>Node1</title>
<g id="a_node1"><a xlink:title="Defines the DataLoggerService and DataLoggerServicePrivate classes.">
<polygon fill="#999999" stroke="#666666" points="702.5,-294 577.5,-294 577.5,-275 702.5,-275 702.5,-294"/>
<text text-anchor="middle" x="640" y="-282" font-family="Helvetica,sans-Serif" font-size="10.00">dataloggerservice.cpp</text>
</a>
</g>
</g>
<!-- Node2 -->
<g id="node2" class="node">
<title>Node2</title>
<g id="a_node2"><a xlink:href="dataloggerservice_8h.html" target="_top" xlink:title="Declares the DataLoggerService class.">
<polygon fill="white" stroke="#666666" points="223.5,-239 72.5,-239 72.5,-220 223.5,-220 223.5,-239"/>
<text text-anchor="middle" x="148" y="-227" font-family="Helvetica,sans-Serif" font-size="10.00">qtpokit/dataloggerservice.h</text>
</a>
</g>
</g>
<!-- Node1&#45;&gt;Node2 -->
<g id="edge1" class="edge">
<title>Node1&#45;&gt;Node2</title>
<path fill="none" stroke="#63b8ff" d="M577.44,-276.76C489.71,-267.31 329.91,-250.1 231.93,-239.54"/>
<polygon fill="#63b8ff" stroke="#63b8ff" points="223.81,-238.67 232.15,-235.94 227.79,-239.1 231.77,-239.52 231.77,-239.52 231.77,-239.52 227.79,-239.1 231.38,-243.1 223.81,-238.67 223.81,-238.67"/>
</g>
<!-- Node15 -->
<g id="node15" class="node">
<title>Node15</title>
<g id="a_node15"><a xlink:title=" ">
<polygon fill="#e0e0e0" stroke="#999999" points="513.5,-239 388.5,-239 388.5,-220 513.5,-220 513.5,-239"/>
<text text-anchor="middle" x="451" y="-227" font-family="Helvetica,sans-Serif" font-size="10.00">dataloggerservice_p.h</text>
</a>
</g>
</g>
<!-- Node1&#45;&gt;Node15 -->
<g id="edge15" class="edge">
<title>Node1&#45;&gt;Node15</title>
<path fill="none" stroke="#63b8ff" d="M609.63,-274.98C576.94,-265.82 524.86,-251.21 489.36,-241.26"/>
<polygon fill="#63b8ff" stroke="#63b8ff" points="481.6,-239.08 490.28,-237.78 485.46,-240.16 489.31,-241.24 489.31,-241.24 489.31,-241.24 485.46,-240.16 488.33,-244.71 481.6,-239.08 481.6,-239.08"/>
</g>
<!-- Node16 -->
<g id="node16" class="node">
<title>Node16</title>
<g id="a_node16"><a xlink:title=" ">
<polygon fill="#e0e0e0" stroke="#999999" points="636,-239 532,-239 532,-220 636,-220 636,-239"/>
<text text-anchor="middle" x="584" y="-227" font-family="Helvetica,sans-Serif" font-size="10.00">pokitproducts_p.h</text>
</a>
</g>
</g>
<!-- Node1&#45;&gt;Node16 -->
<g id="edge16" class="edge">
<title>Node1&#45;&gt;Node16</title>
<path fill="none" stroke="#63b8ff" d="M631,-274.98C622.4,-266.84 609.27,-254.41 599.07,-244.76"/>
<polygon fill="#63b8ff" stroke="#63b8ff" points="593.16,-239.17 601.45,-242.05 596.07,-241.92 598.97,-244.67 598.97,-244.67 598.97,-244.67 596.07,-241.92 596.5,-247.28 593.16,-239.17 593.16,-239.17"/>
</g>
<!-- Node17 -->
<g id="node17" class="node">
<title>Node17</title>
<g id="a_node17"><a xlink:href="statusservice_8h.html" target="_top" xlink:title="Declares the StatusService class.">
<polygon fill="white" stroke="#666666" points="370,-239 242,-239 242,-220 370,-220 370,-239"/>
<text text-anchor="middle" x="306" y="-227" font-family="Helvetica,sans-Serif" font-size="10.00">qtpokit/statusservice.h</text>
</a>
</g>
</g>
<!-- Node1&#45;&gt;Node17 -->
<g id="edge17" class="edge">
<title>Node1&#45;&gt;Node17</title>
<path fill="none" stroke="#63b8ff" d="M586.34,-274.98C526.78,-265.53 430.8,-250.3 368.05,-240.35"/>
<polygon fill="#63b8ff" stroke="#63b8ff" points="359.81,-239.04 368.27,-236.74 363.76,-239.67 367.71,-240.29 367.71,-240.29 367.71,-240.29 363.76,-239.67 367.14,-243.85 359.81,-239.04 359.81,-239.04"/>
</g>
<!-- Node18 -->
<g id="node18" class="node">
<title>Node18</title>
<g id="a_node18"><a xlink:title=" ">
<polygon fill="#e0e0e0" stroke="#999999" points="737.5,-239 654.5,-239 654.5,-220 737.5,-220 737.5,-239"/>
<text text-anchor="middle" x="696" y="-227" font-family="Helvetica,sans-Serif" font-size="10.00">QDataStream</text>
</a>
</g>
</g>
<!-- Node1&#45;&gt;Node18 -->
<g id="edge22" class="edge">
<title>Node1&#45;&gt;Node18</title>
<path fill="none" stroke="#63b8ff" d="M649,-274.98C657.6,-266.84 670.73,-254.41 680.93,-244.76"/>
<polygon fill="#63b8ff" stroke="#63b8ff" points="686.84,-239.17 683.5,-247.28 683.93,-241.92 681.03,-244.67 681.03,-244.67 681.03,-244.67 683.93,-241.92 678.55,-242.05 686.84,-239.17 686.84,-239.17"/>
</g>
<!-- Node19 -->
<g id="node19" class="node">
<title>Node19</title>
<g id="a_node19"><a xlink:title=" ">
<polygon fill="#e0e0e0" stroke="#999999" points="824,-239 756,-239 756,-220 824,-220 824,-239"/>
<text text-anchor="middle" x="790" y="-227" font-family="Helvetica,sans-Serif" font-size="10.00">QIODevice</text>
</a>
</g>
</g>
<!-- Node1&#45;&gt;Node19 -->
<g id="edge23" class="edge">
<title>Node1&#45;&gt;Node19</title>
<path fill="none" stroke="#63b8ff" d="M664.1,-274.98C689.53,-266 729.76,-251.79 757.87,-241.85"/>
<polygon fill="#63b8ff" stroke="#63b8ff" points="765.46,-239.17 759.12,-245.23 761.69,-240.5 757.92,-241.84 757.92,-241.84 757.92,-241.84 761.69,-240.5 756.72,-238.44 765.46,-239.17 765.46,-239.17"/>
</g>
<!-- Node20 -->
<g id="node20" class="node">
<title>Node20</title>
<g id="a_node20"><a xlink:title=" ">
<polygon fill="#e0e0e0" stroke="#999999" points="967.5,-239 842.5,-239 842.5,-220 967.5,-220 967.5,-239"/>
<text text-anchor="middle" x="905" y="-227" font-family="Helvetica,sans-Serif" font-size="10.00">QLowEnergyController</text>
</a>
</g>
</g>
<!-- Node1&#45;&gt;Node20 -->
<g id="edge24" class="edge">
<title>Node1&#45;&gt;Node20</title>
<path fill="none" stroke="#63b8ff" d="M682.58,-274.98C729.28,-265.64 804.21,-250.66 854.01,-240.7"/>
<polygon fill="#63b8ff" stroke="#63b8ff" points="862.09,-239.08 854.95,-244.18 858.17,-239.87 854.24,-240.65 854.24,-240.65 854.24,-240.65 858.17,-239.87 853.54,-237.12 862.09,-239.08 862.09,-239.08"/>
</g>
<!-- Node21 -->
<g id="node21" class="node">
<title>Node21</title>
<g id="a_node21"><a xlink:title=" ">
<polygon fill="#e0e0e0" stroke="#999999" points="1046.5,-239 985.5,-239 985.5,-220 1046.5,-220 1046.5,-239"/>
<text text-anchor="middle" x="1016" y="-227" font-family="Helvetica,sans-Serif" font-size="10.00">QtEndian</text>
</a>
</g>
</g>
<!-- Node1&#45;&gt;Node21 -->
<g id="edge25" class="edge">
<title>Node1&#45;&gt;Node21</title>
<path fill="none" stroke="#63b8ff" d="M702.66,-276.81C770.51,-269.19 881.8,-255.63 977,-239 977.17,-238.97 977.34,-238.94 977.51,-238.91"/>
<polygon fill="#63b8ff" stroke="#63b8ff" points="985.39,-237.42 978.2,-242.44 981.46,-238.17 977.53,-238.91 977.53,-238.91 977.53,-238.91 981.46,-238.17 976.86,-235.37 985.39,-237.42 985.39,-237.42"/>
</g>
<!-- Node3 -->
<g id="node3" class="node">
<title>Node3</title>
<g id="a_node3"><a xlink:href="abstractpokitservice_8h.html" target="_top" xlink:title="Declares the AbstractPokitService class.">
<polygon fill="white" stroke="#666666" points="354.5,-184 229.5,-184 229.5,-165 354.5,-165 354.5,-184"/>
<text text-anchor="middle" x="292" y="-172" font-family="Helvetica,sans-Serif" font-size="10.00">abstractpokitservice.h</text>
</a>
</g>
</g>
<!-- Node2&#45;&gt;Node3 -->
<g id="edge2" class="edge">
<title>Node2&#45;&gt;Node3</title>
<path fill="none" stroke="#63b8ff" d="M171.14,-219.98C195.45,-211.04 233.84,-196.91 260.81,-186.98"/>
<polygon fill="#63b8ff" stroke="#63b8ff" points="268.44,-184.17 262.18,-190.31 264.69,-185.55 260.94,-186.93 260.94,-186.93 260.94,-186.93 264.69,-185.55 259.69,-183.56 268.44,-184.17 268.44,-184.17"/>
</g>
<!-- Node12 -->
<g id="node12" class="node">
<title>Node12</title>
<g id="a_node12"><a xlink:title=" ">
<polygon fill="#e0e0e0" stroke="#999999" points="483,-184 373,-184 373,-165 483,-165 483,-184"/>
<text text-anchor="middle" x="428" y="-172" font-family="Helvetica,sans-Serif" font-size="10.00">QBluetoothAddress</text>
</a>
</g>
</g>
<!-- Node2&#45;&gt;Node12 -->
<g id="edge12" class="edge">
<title>Node2&#45;&gt;Node12</title>
<path fill="none" stroke="#63b8ff" d="M192.99,-219.98C242.54,-210.61 322.16,-195.53 374.78,-185.57"/>
<polygon fill="#63b8ff" stroke="#63b8ff" points="382.66,-184.08 375.47,-189.11 378.73,-184.83 374.8,-185.57 374.8,-185.57 374.8,-185.57 378.73,-184.83 374.13,-182.03 382.66,-184.08 382.66,-184.08"/>
</g>
<!-- Node13 -->
<g id="node13" class="node">
<title>Node13</title>
<g id="a_node13"><a xlink:title=" ">
<polygon fill="#e0e0e0" stroke="#999999" points="94,-184 0,-184 0,-165 94,-165 94,-184"/>
<text text-anchor="middle" x="47" y="-172" font-family="Helvetica,sans-Serif" font-size="10.00">QBluetoothUuid</text>
</a>
</g>
</g>
<!-- Node2&#45;&gt;Node13 -->
<g id="edge13" class="edge">
<title>Node2&#45;&gt;Node13</title>
<path fill="none" stroke="#63b8ff" d="M131.77,-219.98C115.38,-211.38 89.86,-197.99 71.1,-188.15"/>
<polygon fill="#63b8ff" stroke="#63b8ff" points="63.52,-184.17 72.28,-184.7 67.06,-186.03 70.61,-187.89 70.61,-187.89 70.61,-187.89 67.06,-186.03 68.93,-191.08 63.52,-184.17 63.52,-184.17"/>
</g>
<!-- Node14 -->
<g id="node14" class="node">
<title>Node14</title>
<g id="a_node14"><a xlink:title=" ">
<polygon fill="#e0e0e0" stroke="#999999" points="211.5,-184 112.5,-184 112.5,-165 211.5,-165 211.5,-184"/>
<text text-anchor="middle" x="162" y="-172" font-family="Helvetica,sans-Serif" font-size="10.00">QVersionNumber</text>
</a>
</g>
</g>
<!-- Node2&#45;&gt;Node14 -->
<g id="edge14" class="edge">
<title>Node2&#45;&gt;Node14</title>
<path fill="none" stroke="#63b8ff" d="M150.31,-219.75C152.31,-212.18 155.25,-201.05 157.68,-191.84"/>
<polygon fill="#63b8ff" stroke="#63b8ff" points="159.73,-184.09 161.17,-192.74 158.71,-187.96 157.69,-191.82 157.69,-191.82 157.69,-191.82 158.71,-187.96 154.21,-190.9 159.73,-184.09 159.73,-184.09"/>
</g>
<!-- Node4 -->
<g id="node4" class="node">
<title>Node4</title>
<g id="a_node4"><a xlink:href="qtpokit__global_8h.html" target="_top" xlink:title="Global QtPokit library macros.">
<polygon fill="white" stroke="#666666" points="150.5,-74 55.5,-74 55.5,-55 150.5,-55 150.5,-74"/>
<text text-anchor="middle" x="103" y="-62" font-family="Helvetica,sans-Serif" font-size="10.00">qtpokit_global.h</text>
</a>
</g>
</g>
<!-- Node3&#45;&gt;Node4 -->
<g id="edge3" class="edge">
<title>Node3&#45;&gt;Node4</title>
<path fill="none" stroke="#63b8ff" d="M261.11,-164.9C236.93,-157.41 202.99,-145.22 176,-129 153.28,-115.34 130.82,-94.39 116.95,-80.33"/>
<polygon fill="#63b8ff" stroke="#63b8ff" points="111.2,-74.4 119.36,-77.64 113.99,-77.28 116.77,-80.15 116.77,-80.15 116.77,-80.15 113.99,-77.28 114.19,-82.65 111.2,-74.4 111.2,-74.4"/>
</g>
<!-- Node6 -->
<g id="node6" class="node">
<title>Node6</title>
<g id="a_node6"><a xlink:href="pokitproducts_8h.html" target="_top" xlink:title="Declares the PokitProduct enumeration, and related helper functions.">
<polygon fill="white" stroke="#666666" points="277,-129 185,-129 185,-110 277,-110 277,-129"/>
<text text-anchor="middle" x="231" y="-117" font-family="Helvetica,sans-Serif" font-size="10.00">pokitproducts.h</text>
</a>
</g>
</g>
<!-- Node3&#45;&gt;Node6 -->
<g id="edge5" class="edge">
<title>Node3&#45;&gt;Node6</title>
<path fill="none" stroke="#63b8ff" d="M282.2,-164.98C272.74,-156.77 258.25,-144.18 247.1,-134.49"/>
<polygon fill="#63b8ff" stroke="#63b8ff" points="240.98,-129.17 249.38,-131.7 244,-131.79 247.02,-134.42 247.02,-134.42 247.02,-134.42 244,-131.79 244.66,-137.13 240.98,-129.17 240.98,-129.17"/>
</g>
<!-- Node10 -->
<g id="node10" class="node">
<title>Node10</title>
<g id="a_node10"><a xlink:title=" ">
<polygon fill="#e0e0e0" stroke="#999999" points="408.5,-129 295.5,-129 295.5,-110 408.5,-110 408.5,-129"/>
<text text-anchor="middle" x="352" y="-117" font-family="Helvetica,sans-Serif" font-size="10.00">QLowEnergyService</text>
</a>
</g>
</g>
<!-- Node3&#45;&gt;Node10 -->
<g id="edge10" class="edge">
<title>Node3&#45;&gt;Node10</title>
<path fill="none" stroke="#63b8ff" d="M301.64,-164.98C310.94,-156.77 325.2,-144.18 336.17,-134.49"/>
<polygon fill="#63b8ff" stroke="#63b8ff" points="342.18,-129.17 338.57,-137.16 339.19,-131.82 336.19,-134.47 336.19,-134.47 336.19,-134.47 339.19,-131.82 333.81,-131.77 342.18,-129.17 342.18,-129.17"/>
</g>
<!-- Node11 -->
<g id="node11" class="node">
<title>Node11</title>
<g id="a_node11"><a xlink:title=" ">
<polygon fill="#e0e0e0" stroke="#999999" points="483,-129 427,-129 427,-110 483,-110 483,-129"/>
<text text-anchor="middle" x="455" y="-117" font-family="Helvetica,sans-Serif" font-size="10.00">QObject</text>
</a>
</g>
</g>
<!-- Node3&#45;&gt;Node11 -->
<g id="edge11" class="edge">
<title>Node3&#45;&gt;Node11</title>
<path fill="none" stroke="#63b8ff" d="M318.19,-164.98C346.03,-155.93 390.17,-141.58 420.75,-131.64"/>
<polygon fill="#63b8ff" stroke="#63b8ff" points="428.61,-129.08 422.11,-134.98 424.8,-130.32 421,-131.56 421,-131.56 421,-131.56 424.8,-130.32 419.88,-128.13 428.61,-129.08 428.61,-129.08"/>
</g>
<!-- Node5 -->
<g id="node5" class="node">
<title>Node5</title>
<g id="a_node5"><a xlink:title=" ">
<polygon fill="#e0e0e0" stroke="#999999" points="132.5,-19 73.5,-19 73.5,0 132.5,0 132.5,-19"/>
<text text-anchor="middle" x="103" y="-7" font-family="Helvetica,sans-Serif" font-size="10.00">QtGlobal</text>
</a>
</g>
</g>
<!-- Node4&#45;&gt;Node5 -->
<g id="edge4" class="edge">
<title>Node4&#45;&gt;Node5</title>
<path fill="none" stroke="#63b8ff" d="M103,-54.75C103,-47.26 103,-36.28 103,-27.13"/>
<polygon fill="#63b8ff" stroke="#63b8ff" points="103,-19.09 106.6,-27.09 103,-23.09 103,-27.09 103,-27.09 103,-27.09 103,-23.09 99.4,-27.09 103,-19.09 103,-19.09"/>
</g>
<!-- Node6&#45;&gt;Node4 -->
<g id="edge6" class="edge">
<title>Node6&#45;&gt;Node4</title>
<path fill="none" stroke="#63b8ff" d="M210.43,-109.98C189.01,-101.11 155.29,-87.15 131.34,-77.24"/>
<polygon fill="#63b8ff" stroke="#63b8ff" points="123.94,-74.17 132.71,-73.9 127.64,-75.7 131.33,-77.23 131.33,-77.23 131.33,-77.23 127.64,-75.7 129.95,-80.56 123.94,-74.17 123.94,-74.17"/>
</g>
<!-- Node7 -->
<g id="node7" class="node">
<title>Node7</title>
<g id="a_node7"><a xlink:title=" ">
<polygon fill="#e0e0e0" stroke="#999999" points="293,-74 169,-74 169,-55 293,-55 293,-74"/>
<text text-anchor="middle" x="231" y="-62" font-family="Helvetica,sans-Serif" font-size="10.00">QBluetoothDeviceInfo</text>
</a>
</g>
</g>
<!-- Node6&#45;&gt;Node7 -->
<g id="edge7" class="edge">
<title>Node6&#45;&gt;Node7</title>
<path fill="none" stroke="#63b8ff" d="M231,-109.75C231,-102.26 231,-91.28 231,-82.13"/>
<polygon fill="#63b8ff" stroke="#63b8ff" points="231,-74.09 234.6,-82.09 231,-78.09 231,-82.09 231,-82.09 231,-82.09 231,-78.09 227.4,-82.09 231,-74.09 231,-74.09"/>
</g>
<!-- Node8 -->
<g id="node8" class="node">
<title>Node8</title>
<g id="a_node8"><a xlink:title=" ">
<polygon fill="#e0e0e0" stroke="#999999" points="361,-74 311,-74 311,-55 361,-55 361,-74"/>
<text text-anchor="middle" x="336" y="-62" font-family="Helvetica,sans-Serif" font-size="10.00">QFlags</text>
</a>
</g>
</g>
<!-- Node6&#45;&gt;Node8 -->
<g id="edge8" class="edge">
<title>Node6&#45;&gt;Node8</title>
<path fill="none" stroke="#63b8ff" d="M247.87,-109.98C265.07,-101.3 291.92,-87.75 311.46,-77.88"/>
<polygon fill="#63b8ff" stroke="#63b8ff" points="318.82,-74.17 313.3,-80.99 315.25,-75.97 311.68,-77.78 311.68,-77.78 311.68,-77.78 315.25,-75.97 310.06,-74.56 318.82,-74.17 318.82,-74.17"/>
</g>
<!-- Node9 -->
<g id="node9" class="node">
<title>Node9</title>
<g id="a_node9"><a xlink:title=" ">
<polygon fill="#e0e0e0" stroke="#999999" points="432.5,-74 379.5,-74 379.5,-55 432.5,-55 432.5,-74"/>
<text text-anchor="middle" x="406" y="-62" font-family="Helvetica,sans-Serif" font-size="10.00">QString</text>
</a>
</g>
</g>
<!-- Node6&#45;&gt;Node9 -->
<g id="edge9" class="edge">
<title>Node6&#45;&gt;Node9</title>
<path fill="none" stroke="#63b8ff" d="M259.12,-109.98C289.67,-100.73 338.51,-85.94 371.39,-75.98"/>
<polygon fill="#63b8ff" stroke="#63b8ff" points="379.39,-73.56 372.77,-79.32 375.56,-74.72 371.73,-75.88 371.73,-75.88 371.73,-75.88 375.56,-74.72 370.69,-72.43 379.39,-73.56 379.39,-73.56"/>
</g>
<!-- Node17&#45;&gt;Node3 -->
<g id="edge18" class="edge">
<title>Node17&#45;&gt;Node3</title>
<path fill="none" stroke="#63b8ff" d="M303.69,-219.75C301.69,-212.18 298.75,-201.05 296.32,-191.84"/>
<polygon fill="#63b8ff" stroke="#63b8ff" points="294.27,-184.09 299.79,-190.9 295.29,-187.96 296.31,-191.82 296.31,-191.82 296.31,-191.82 295.29,-187.96 292.83,-192.74 294.27,-184.09 294.27,-184.09"/>
</g>
<!-- Node17&#45;&gt;Node12 -->
<g id="edge19" class="edge">
<title>Node17&#45;&gt;Node12</title>
<path fill="none" stroke="#63b8ff" d="M325.6,-219.98C345.93,-211.15 377.89,-197.27 400.69,-187.36"/>
<polygon fill="#63b8ff" stroke="#63b8ff" points="408.04,-184.17 402.14,-190.66 404.37,-185.76 400.7,-187.36 400.7,-187.36 400.7,-187.36 404.37,-185.76 399.27,-184.06 408.04,-184.17 408.04,-184.17"/>
</g>
<!-- Node17&#45;&gt;Node13 -->
<g id="edge20" class="edge">
<title>Node17&#45;&gt;Node13</title>
<path fill="none" stroke="#63b8ff" d="M264.39,-219.98C218.74,-210.64 145.51,-195.66 96.83,-185.7"/>
<polygon fill="#63b8ff" stroke="#63b8ff" points="88.94,-184.08 97.5,-182.16 92.86,-184.88 96.78,-185.69 96.78,-185.69 96.78,-185.69 92.86,-184.88 96.05,-189.21 88.94,-184.08 88.94,-184.08"/>
</g>
<!-- Node17&#45;&gt;Node14 -->
<g id="edge21" class="edge">
<title>Node17&#45;&gt;Node14</title>
<path fill="none" stroke="#63b8ff" d="M282.86,-219.98C258.55,-211.04 220.16,-196.91 193.19,-186.98"/>
<polygon fill="#63b8ff" stroke="#63b8ff" points="185.56,-184.17 194.31,-183.56 189.31,-185.55 193.06,-186.93 193.06,-186.93 193.06,-186.93 189.31,-185.55 191.82,-190.31 185.56,-184.17 185.56,-184.17"/>
</g>
</g>
</svg>
