<?xml version="1.0" encoding="UTF-8" standalone="no"?>
<!DOCTYPE svg PUBLIC "-//W3C//DTD SVG 1.1//EN"
 "http://www.w3.org/Graphics/SVG/1.1/DTD/svg11.dtd">
<!-- Generated by graphviz version 2.43.0 (0)
 -->
<!-- Title: dsoservice.h Pages: 1 -->
<svg width="717pt" height="247pt"
 viewBox="0.00 0.00 716.50 247.00" xmlns="http://www.w3.org/2000/svg" xmlns:xlink="http://www.w3.org/1999/xlink">
<g id="graph0" class="graph" transform="scale(1 1) rotate(0) translate(4 243)">
<title>dsoservice.h</title>
<!-- Node1 -->
<g id="node1" class="node">
<title>Node1</title>
<g id="a_node1"><a xlink:title="Declares the DsoService class.">
<polygon fill="#999999" stroke="#666666" points="463,-239 385,-239 385,-220 463,-220 463,-239"/>
<text text-anchor="middle" x="424" y="-227" font-family="Helvetica,sans-Serif" font-size="10.00">dsoservice.h</text>
</a>
</g>
</g>
<!-- Node2 -->
<g id="node2" class="node">
<title>Node2</title>
<g id="a_node2"><a xlink:href="abstractpokitservice_8h.html" target="_top" xlink:title="Declares the AbstractPokitService class.">
<polygon fill="white" stroke="#666666" points="350.5,-184 225.5,-184 225.5,-165 350.5,-165 350.5,-184"/>
<text text-anchor="middle" x="288" y="-172" font-family="Helvetica,sans-Serif" font-size="10.00">abstractpokitservice.h</text>
</a>
</g>
</g>
<!-- Node1&#45;&gt;Node2 -->
<g id="edge1" class="edge">
<title>Node1&#45;&gt;Node2</title>
<path fill="none" stroke="#63b8ff" d="M402.15,-219.98C379.29,-211.07 343.24,-197.03 317.78,-187.11"/>
<polygon fill="#63b8ff" stroke="#63b8ff" points="310.25,-184.17 319.01,-183.72 313.98,-185.62 317.7,-187.08 317.7,-187.08 317.7,-187.08 313.98,-185.62 316.4,-190.43 310.25,-184.17 310.25,-184.17"/>
</g>
<!-- Node5 -->
<g id="node5" class="node">
<title>Node5</title>
<g id="a_node5"><a xlink:href="pokitproducts_8h.html" target="_top" xlink:title="Declares the PokitProduct enumeration, and related helper functions.">
<polygon fill="white" stroke="#666666" points="213,-129 121,-129 121,-110 213,-110 213,-129"/>
<text text-anchor="middle" x="167" y="-117" font-family="Helvetica,sans-Serif" font-size="10.00">pokitproducts.h</text>
</a>
</g>
</g>
<!-- Node1&#45;&gt;Node5 -->
<g id="edge11" class="edge">
<title>Node1&#45;&gt;Node5</title>
<path fill="none" stroke="#63b8ff" d="M384.98,-228.02C340.8,-225.79 268.18,-216.87 216,-184 197.51,-172.35 183.28,-151.12 175.03,-136.43"/>
<polygon fill="#63b8ff" stroke="#63b8ff" points="171.07,-129.05 178.02,-134.4 172.96,-132.58 174.85,-136.1 174.85,-136.1 174.85,-136.1 172.96,-132.58 171.68,-137.8 171.07,-129.05 171.07,-129.05"/>
</g>
<!-- Node11 -->
<g id="node11" class="node">
<title>Node11</title>
<g id="a_node11"><a xlink:title=" ">
<polygon fill="#e0e0e0" stroke="#999999" points="479,-184 369,-184 369,-165 479,-165 479,-184"/>
<text text-anchor="middle" x="424" y="-172" font-family="Helvetica,sans-Serif" font-size="10.00">QBluetoothAddress</text>
</a>
</g>
</g>
<!-- Node1&#45;&gt;Node11 -->
<g id="edge12" class="edge">
<title>Node1&#45;&gt;Node11</title>
<path fill="none" stroke="#63b8ff" d="M424,-219.75C424,-212.26 424,-201.28 424,-192.13"/>
<polygon fill="#63b8ff" stroke="#63b8ff" points="424,-184.09 427.6,-192.09 424,-188.09 424,-192.09 424,-192.09 424,-192.09 424,-188.09 420.4,-192.09 424,-184.09 424,-184.09"/>
</g>
<!-- Node12 -->
<g id="node12" class="node">
<title>Node12</title>
<g id="a_node12"><a xlink:title=" ">
<polygon fill="#e0e0e0" stroke="#999999" points="591,-184 497,-184 497,-165 591,-165 591,-184"/>
<text text-anchor="middle" x="544" y="-172" font-family="Helvetica,sans-Serif" font-size="10.00">QBluetoothUuid</text>
</a>
</g>
</g>
<!-- Node1&#45;&gt;Node12 -->
<g id="edge13" class="edge">
<title>Node1&#45;&gt;Node12</title>
<path fill="none" stroke="#63b8ff" d="M443.28,-219.98C463.19,-211.19 494.44,-197.39 516.84,-187.49"/>
<polygon fill="#63b8ff" stroke="#63b8ff" points="524.37,-184.17 518.51,-190.7 520.71,-185.79 517.05,-187.4 517.05,-187.4 517.05,-187.4 520.71,-185.79 515.6,-184.11 524.37,-184.17 524.37,-184.17"/>
</g>
<!-- Node13 -->
<g id="node13" class="node">
<title>Node13</title>
<g id="a_node13"><a xlink:title=" ">
<polygon fill="#e0e0e0" stroke="#999999" points="708.5,-184 609.5,-184 609.5,-165 708.5,-165 708.5,-184"/>
<text text-anchor="middle" x="659" y="-172" font-family="Helvetica,sans-Serif" font-size="10.00">QVersionNumber</text>
</a>
</g>
</g>
<!-- Node1&#45;&gt;Node13 -->
<g id="edge14" class="edge">
<title>Node1&#45;&gt;Node13</title>
<path fill="none" stroke="#63b8ff" d="M461.76,-219.98C502.92,-210.7 568.8,-195.84 612.96,-185.88"/>
<polygon fill="#63b8ff" stroke="#63b8ff" points="620.95,-184.08 613.94,-189.35 617.05,-184.96 613.14,-185.84 613.14,-185.84 613.14,-185.84 617.05,-184.96 612.35,-182.33 620.95,-184.08 620.95,-184.08"/>
</g>
<!-- Node3 -->
<g id="node3" class="node">
<title>Node3</title>
<g id="a_node3"><a xlink:href="qtpokit__global_8h.html" target="_top" xlink:title="Global QtPokit library macros.">
<polygon fill="white" stroke="#666666" points="435.5,-74 340.5,-74 340.5,-55 435.5,-55 435.5,-74"/>
<text text-anchor="middle" x="388" y="-62" font-family="Helvetica,sans-Serif" font-size="10.00">qtpokit_global.h</text>
</a>
</g>
</g>
<!-- Node2&#45;&gt;Node3 -->
<g id="edge2" class="edge">
<title>Node2&#45;&gt;Node3</title>
<path fill="none" stroke="#63b8ff" d="M333.96,-164.95C370.28,-157.15 416.67,-144.49 428,-129 440.05,-112.53 422.38,-92.44 406.85,-79.33"/>
<polygon fill="#63b8ff" stroke="#63b8ff" points="400.42,-74.17 408.91,-76.37 403.54,-76.67 406.66,-79.18 406.66,-79.18 406.66,-79.18 403.54,-76.67 404.4,-81.98 400.42,-74.17 400.42,-74.17"/>
</g>
<!-- Node2&#45;&gt;Node5 -->
<g id="edge4" class="edge">
<title>Node2&#45;&gt;Node5</title>
<path fill="none" stroke="#63b8ff" d="M268.56,-164.98C248.48,-156.19 216.98,-142.39 194.38,-132.49"/>
<polygon fill="#63b8ff" stroke="#63b8ff" points="186.79,-129.17 195.57,-129.08 190.46,-130.78 194.12,-132.38 194.12,-132.38 194.12,-132.38 190.46,-130.78 192.68,-135.68 186.79,-129.17 186.79,-129.17"/>
</g>
<!-- Node9 -->
<g id="node9" class="node">
<title>Node9</title>
<g id="a_node9"><a xlink:title=" ">
<polygon fill="#e0e0e0" stroke="#999999" points="344.5,-129 231.5,-129 231.5,-110 344.5,-110 344.5,-129"/>
<text text-anchor="middle" x="288" y="-117" font-family="Helvetica,sans-Serif" font-size="10.00">QLowEnergyService</text>
</a>
</g>
</g>
<!-- Node2&#45;&gt;Node9 -->
<g id="edge9" class="edge">
<title>Node2&#45;&gt;Node9</title>
<path fill="none" stroke="#63b8ff" d="M288,-164.75C288,-157.26 288,-146.28 288,-137.13"/>
<polygon fill="#63b8ff" stroke="#63b8ff" points="288,-129.09 291.6,-137.09 288,-133.09 288,-137.09 288,-137.09 288,-137.09 288,-133.09 284.4,-137.09 288,-129.09 288,-129.09"/>
</g>
<!-- Node10 -->
<g id="node10" class="node">
<title>Node10</title>
<g id="a_node10"><a xlink:title=" ">
<polygon fill="#e0e0e0" stroke="#999999" points="419,-129 363,-129 363,-110 419,-110 419,-129"/>
<text text-anchor="middle" x="391" y="-117" font-family="Helvetica,sans-Serif" font-size="10.00">QObject</text>
</a>
</g>
</g>
<!-- Node2&#45;&gt;Node10 -->
<g id="edge10" class="edge">
<title>Node2&#45;&gt;Node10</title>
<path fill="none" stroke="#63b8ff" d="M304.55,-164.98C321.42,-156.3 347.76,-142.75 366.93,-132.88"/>
<polygon fill="#63b8ff" stroke="#63b8ff" points="374.15,-129.17 368.68,-136.03 370.59,-131 367.04,-132.83 367.04,-132.83 367.04,-132.83 370.59,-131 365.39,-129.63 374.15,-129.17 374.15,-129.17"/>
</g>
<!-- Node4 -->
<g id="node4" class="node">
<title>Node4</title>
<g id="a_node4"><a xlink:title=" ">
<polygon fill="#e0e0e0" stroke="#999999" points="417.5,-19 358.5,-19 358.5,0 417.5,0 417.5,-19"/>
<text text-anchor="middle" x="388" y="-7" font-family="Helvetica,sans-Serif" font-size="10.00">QtGlobal</text>
</a>
</g>
</g>
<!-- Node3&#45;&gt;Node4 -->
<g id="edge3" class="edge">
<title>Node3&#45;&gt;Node4</title>
<path fill="none" stroke="#63b8ff" d="M388,-54.75C388,-47.26 388,-36.28 388,-27.13"/>
<polygon fill="#63b8ff" stroke="#63b8ff" points="388,-19.09 391.6,-27.09 388,-23.09 388,-27.09 388,-27.09 388,-27.09 388,-23.09 384.4,-27.09 388,-19.09 388,-19.09"/>
</g>
<!-- Node5&#45;&gt;Node3 -->
<g id="edge5" class="edge">
<title>Node5&#45;&gt;Node3</title>
<path fill="none" stroke="#63b8ff" d="M202.51,-109.98C241.06,-100.74 302.66,-85.97 344.19,-76.01"/>
<polygon fill="#63b8ff" stroke="#63b8ff" points="352.21,-74.08 345.27,-79.45 348.32,-75.01 344.43,-75.95 344.43,-75.95 344.43,-75.95 348.32,-75.01 343.6,-72.45 352.21,-74.08 352.21,-74.08"/>
</g>
<!-- Node6 -->
<g id="node6" class="node">
<title>Node6</title>
<g id="a_node6"><a xlink:title=" ">
<polygon fill="#e0e0e0" stroke="#999999" points="124,-74 0,-74 0,-55 124,-55 124,-74"/>
<text text-anchor="middle" x="62" y="-62" font-family="Helvetica,sans-Serif" font-size="10.00">QBluetoothDeviceInfo</text>
</a>
</g>
</g>
<!-- Node5&#45;&gt;Node6 -->
<g id="edge6" class="edge">
<title>Node5&#45;&gt;Node6</title>
<path fill="none" stroke="#63b8ff" d="M150.13,-109.98C132.93,-101.3 106.08,-87.75 86.54,-77.88"/>
<polygon fill="#63b8ff" stroke="#63b8ff" points="79.18,-74.17 87.94,-74.56 82.75,-75.97 86.32,-77.78 86.32,-77.78 86.32,-77.78 82.75,-75.97 84.7,-80.99 79.18,-74.17 79.18,-74.17"/>
</g>
<!-- Node7 -->
<g id="node7" class="node">
<title>Node7</title>
<g id="a_node7"><a xlink:title=" ">
<polygon fill="#e0e0e0" stroke="#999999" points="192,-74 142,-74 142,-55 192,-55 192,-74"/>
<text text-anchor="middle" x="167" y="-62" font-family="Helvetica,sans-Serif" font-size="10.00">QFlags</text>
</a>
</g>
</g>
<!-- Node5&#45;&gt;Node7 -->
<g id="edge7" class="edge">
<title>Node5&#45;&gt;Node7</title>
<path fill="none" stroke="#63b8ff" d="M167,-109.75C167,-102.26 167,-91.28 167,-82.13"/>
<polygon fill="#63b8ff" stroke="#63b8ff" points="167,-74.09 170.6,-82.09 167,-78.09 167,-82.09 167,-82.09 167,-82.09 167,-78.09 163.4,-82.09 167,-74.09 167,-74.09"/>
</g>
<!-- Node8 -->
<g id="node8" class="node">
<title>Node8</title>
<g id="a_node8"><a xlink:title=" ">
<polygon fill="#e0e0e0" stroke="#999999" points="263.5,-74 210.5,-74 210.5,-55 263.5,-55 263.5,-74"/>
<text text-anchor="middle" x="237" y="-62" font-family="Helvetica,sans-Serif" font-size="10.00">QString</text>
</a>
</g>
</g>
<!-- Node5&#45;&gt;Node8 -->
<g id="edge8" class="edge">
<title>Node5&#45;&gt;Node8</title>
<path fill="none" stroke="#63b8ff" d="M178.25,-109.98C189.2,-101.69 206.04,-88.94 218.89,-79.22"/>
<polygon fill="#63b8ff" stroke="#63b8ff" points="225.55,-74.17 221.34,-81.87 222.36,-76.58 219.17,-79 219.17,-79 219.17,-79 222.36,-76.58 217,-76.13 225.55,-74.17 225.55,-74.17"/>
</g>
</g>
</svg>
