<?xml version="1.0" encoding="UTF-8" standalone="no"?>
<!DOCTYPE svg PUBLIC "-//W3C//DTD SVG 1.1//EN"
 "http://www.w3.org/Graphics/SVG/1.1/DTD/svg11.dtd">
<!-- Generated by graphviz version 2.43.0 (0)
 -->
<!-- Title: PokitMeter::toString Pages: 1 -->
<svg width="403pt" height="56pt"
 viewBox="0.00 0.00 403.00 56.49" xmlns="http://www.w3.org/2000/svg" xmlns:xlink="http://www.w3.org/1999/xlink">
<g id="graph0" class="graph" transform="scale(1 1) rotate(0) translate(4 52.49)">
<title>PokitMeter::toString</title>
<!-- Node1 -->
<g id="Node000001" class="node">
<title>Node1</title>
<g id="a_Node000001"><a xlink:title="Returns range as a user&#45;friendly string.">
<polygon fill="#999999" stroke="#666666" points="114,-47 0,-47 0,-28 114,-28 114,-47"/>
<text text-anchor="middle" x="57" y="-35" font-family="Helvetica,sans-Serif" font-size="10.00">PokitMeter::toString</text>
</a>
</g>
</g>
<!-- Node2 -->
<g id="Node000002" class="node">
<title>Node2</title>
<g id="a_Node000002"><a target="_parent" xlink:href="https://doc.qt.io/qt-5/qstring.html#QString" xlink:title=" ">
<polygon fill="white" stroke="#666666" points="395,-47 300,-47 300,-28 395,-28 395,-47"/>
<text text-anchor="middle" x="347.5" y="-35" font-family="Helvetica,sans-Serif" font-size="10.00">QString::QString</text>
</a>
</g>
</g>
<!-- Node1&#45;&gt;Node2 -->
<g id="edge1_Node000001_Node000002" class="edge">
<title>Node1&#45;&gt;Node2</title>
<g id="a_edge1_Node000001_Node000002"><a xlink:title=" ">
<path fill="none" stroke="#63b8ff" d="M114.37,-43.89C126.13,-44.98 138.46,-45.94 150,-46.5 200.61,-48.97 213.41,-49.25 264,-46.5 273.01,-46.01 282.56,-45.22 291.83,-44.31"/>
<polygon fill="#63b8ff" stroke="#63b8ff" points="299.89,-43.48 292.3,-47.88 295.91,-43.89 291.93,-44.3 291.93,-44.3 291.93,-44.3 295.91,-43.89 291.56,-40.72 299.89,-43.48 299.89,-43.48"/>
</a>
</g>
</g>
<!-- Node3 -->
<g id="Node000003" class="node">
<title>Node3</title>
<g id="a_Node000003"><a xlink:href="namespacePokitMeter.html#a3c3db7b94b6f44af24f4a23e87a3569e" target="_top" xlink:title="Returns range as a user&#45;friendly string.">
<polygon fill="white" stroke="#666666" points="264,-19 150,-19 150,0 264,0 264,-19"/>
<text text-anchor="middle" x="207" y="-7" font-family="Helvetica,sans-Serif" font-size="10.00">PokitMeter::toString</text>
</a>
</g>
</g>
<!-- Node1&#45;&gt;Node3 -->
<g id="edge2_Node000001_Node000003" class="edge">
<title>Node1&#45;&gt;Node3</title>
<g id="a_edge2_Node000001_Node000003"><a xlink:title=" ">
<path fill="none" stroke="#63b8ff" d="M108.52,-27.94C121.14,-25.55 134.78,-22.97 147.74,-20.52"/>
<polygon fill="#63b8ff" stroke="#63b8ff" points="155.71,-19.01 148.52,-24.04 151.78,-19.76 147.85,-20.5 147.85,-20.5 147.85,-20.5 151.78,-19.76 147.18,-16.96 155.71,-19.01 155.71,-19.01"/>
</a>
</g>
</g>
<!-- Node3&#45;&gt;Node2 -->
<g id="edge3_Node000003_Node000002" class="edge">
<title>Node3&#45;&gt;Node2</title>
<g id="a_edge3_Node000003_Node000002"><a xlink:title=" ">
<path fill="none" stroke="#63b8ff" d="M255.28,-19.06C267.1,-21.45 279.89,-24.03 292.03,-26.49"/>
<polygon fill="#63b8ff" stroke="#63b8ff" points="299.91,-28.08 291.35,-30.02 295.99,-27.29 292.06,-26.49 292.06,-26.49 292.06,-26.49 295.99,-27.29 292.78,-22.97 299.91,-28.08 299.91,-28.08"/>
</a>
</g>
</g>
<!-- Node3&#45;&gt;Node3 -->
<g id="edge4_Node000003_Node000003" class="edge">
<title>Node3&#45;&gt;Node3</title>
<g id="a_edge4_Node000003_Node000003"><a xlink:title=" ">
<path fill="none" stroke="#63b8ff" d="M185.42,-19.08C174.92,-27.73 182.12,-37 207,-37 225.27,-37 234.01,-32 233.2,-25.92"/>
<polygon fill="#63b8ff" stroke="#63b8ff" points="228.58,-19.08 236.04,-23.7 230.82,-22.4 233.06,-25.71 233.06,-25.71 233.06,-25.71 230.82,-22.4 230.07,-27.73 228.58,-19.08 228.58,-19.08"/>
</a>
</g>
</g>
</g>
</svg>
