<?xml version="1.0" encoding="UTF-8" standalone="no"?>
<!DOCTYPE svg PUBLIC "-//W3C//DTD SVG 1.1//EN"
 "http://www.w3.org/Graphics/SVG/1.1/DTD/svg11.dtd">
<!-- Generated by graphviz version 2.43.0 (0)
 -->
<!-- Title: pokitproducts.cpp Pages: 1 -->
<svg width="786pt" height="302pt"
 viewBox="0.00 0.00 785.50 302.00" xmlns="http://www.w3.org/2000/svg" xmlns:xlink="http://www.w3.org/1999/xlink">
<g id="graph0" class="graph" transform="scale(1 1) rotate(0) translate(4 298)">
<title>pokitproducts.cpp</title>
<!-- Node1 -->
<g id="node1" class="node">
<title>Node1</title>
<g id="a_node1"><a xlink:title="Defines the PokitProduct helper functions.">
<polygon fill="#999999" stroke="#666666" points="318,-294 214,-294 214,-275 318,-275 318,-294"/>
<text text-anchor="middle" x="266" y="-282" font-family="Helvetica,sans-Serif" font-size="10.00">pokitproducts.cpp</text>
</a>
</g>
</g>
<!-- Node2 -->
<g id="node2" class="node">
<title>Node2</title>
<g id="a_node2"><a xlink:href="pokitmeter_8h.html" target="_top" xlink:title="Declares the PokitMeter namespace.">
<polygon fill="white" stroke="#666666" points="116,-239 0,-239 0,-220 116,-220 116,-239"/>
<text text-anchor="middle" x="58" y="-227" font-family="Helvetica,sans-Serif" font-size="10.00">qtpokit/pokitmeter.h</text>
</a>
</g>
</g>
<!-- Node1&#45;&gt;Node2 -->
<g id="edge1" class="edge">
<title>Node1&#45;&gt;Node2</title>
<path fill="none" stroke="#63b8ff" d="M232.58,-274.98C196.45,-265.78 138.8,-251.09 99.72,-241.13"/>
<polygon fill="#63b8ff" stroke="#63b8ff" points="91.68,-239.08 100.32,-237.57 95.56,-240.07 99.43,-241.06 99.43,-241.06 99.43,-241.06 95.56,-240.07 98.54,-244.55 91.68,-239.08 91.68,-239.08"/>
</g>
<!-- Node6 -->
<g id="node6" class="node">
<title>Node6</title>
<g id="a_node6"><a xlink:href="pokitpro_8h.html" target="_top" xlink:title="Declares the PokitPro namespace.">
<polygon fill="white" stroke="#666666" points="238,-239 134,-239 134,-220 238,-220 238,-239"/>
<text text-anchor="middle" x="186" y="-227" font-family="Helvetica,sans-Serif" font-size="10.00">qtpokit/pokitpro.h</text>
</a>
</g>
</g>
<!-- Node1&#45;&gt;Node6 -->
<g id="edge5" class="edge">
<title>Node1&#45;&gt;Node6</title>
<path fill="none" stroke="#63b8ff" d="M253.15,-274.98C240.39,-266.54 220.67,-253.47 205.89,-243.68"/>
<polygon fill="#63b8ff" stroke="#63b8ff" points="199.09,-239.17 207.74,-240.59 202.42,-241.38 205.76,-243.59 205.76,-243.59 205.76,-243.59 202.42,-241.38 203.77,-246.59 199.09,-239.17 199.09,-239.17"/>
</g>
<!-- Node7 -->
<g id="node7" class="node">
<title>Node7</title>
<g id="a_node7"><a xlink:href="pokitproducts_8h.html" target="_top" xlink:title="Declares the PokitProduct enumeration, and related helper functions.">
<polygon fill="white" stroke="#666666" points="370,-129 240,-129 240,-110 370,-110 370,-129"/>
<text text-anchor="middle" x="305" y="-117" font-family="Helvetica,sans-Serif" font-size="10.00">qtpokit/pokitproducts.h</text>
</a>
</g>
</g>
<!-- Node1&#45;&gt;Node7 -->
<g id="edge8" class="edge">
<title>Node1&#45;&gt;Node7</title>
<path fill="none" stroke="#63b8ff" d="M266.59,-275C268.13,-255.29 273,-205.12 285,-165 287.94,-155.16 292.59,-144.66 296.66,-136.33"/>
<polygon fill="#63b8ff" stroke="#63b8ff" points="300.31,-129.1 299.91,-137.87 298.51,-132.67 296.7,-136.24 296.7,-136.24 296.7,-136.24 298.51,-132.67 293.49,-134.62 300.31,-129.1 300.31,-129.1"/>
</g>
<!-- Node11 -->
<g id="node11" class="node">
<title>Node11</title>
<g id="a_node11"><a xlink:href="statusservice_8h.html" target="_top" xlink:title="Declares the StatusService class.">
<polygon fill="white" stroke="#666666" points="489,-239 361,-239 361,-220 489,-220 489,-239"/>
<text text-anchor="middle" x="425" y="-227" font-family="Helvetica,sans-Serif" font-size="10.00">qtpokit/statusservice.h</text>
</a>
</g>
</g>
<!-- Node1&#45;&gt;Node11 -->
<g id="edge13" class="edge">
<title>Node1&#45;&gt;Node11</title>
<path fill="none" stroke="#63b8ff" d="M291.55,-274.98C318.7,-265.93 361.76,-251.58 391.59,-241.64"/>
<polygon fill="#63b8ff" stroke="#63b8ff" points="399.25,-239.08 392.8,-245.03 395.46,-240.35 391.66,-241.61 391.66,-241.61 391.66,-241.61 395.46,-240.35 390.53,-238.2 399.25,-239.08 399.25,-239.08"/>
</g>
<!-- Node18 -->
<g id="node18" class="node">
<title>Node18</title>
<g id="a_node18"><a xlink:title=" ">
<polygon fill="#e0e0e0" stroke="#999999" points="611,-239 507,-239 507,-220 611,-220 611,-239"/>
<text text-anchor="middle" x="559" y="-227" font-family="Helvetica,sans-Serif" font-size="10.00">pokitproducts_p.h</text>
</a>
</g>
</g>
<!-- Node1&#45;&gt;Node18 -->
<g id="edge22" class="edge">
<title>Node1&#45;&gt;Node18</title>
<path fill="none" stroke="#63b8ff" d="M313.08,-274.98C365.04,-265.59 448.59,-250.47 503.65,-240.51"/>
<polygon fill="#63b8ff" stroke="#63b8ff" points="511.56,-239.08 504.32,-244.05 507.62,-239.79 503.68,-240.51 503.68,-240.51 503.68,-240.51 507.62,-239.79 503.04,-236.96 511.56,-239.08 511.56,-239.08"/>
</g>
<!-- Node3 -->
<g id="node3" class="node">
<title>Node3</title>
<g id="a_node3"><a xlink:href="qtpokit__global_8h.html" target="_top" xlink:title="Global QtPokit library macros.">
<polygon fill="white" stroke="#666666" points="221.5,-74 126.5,-74 126.5,-55 221.5,-55 221.5,-74"/>
<text text-anchor="middle" x="174" y="-62" font-family="Helvetica,sans-Serif" font-size="10.00">qtpokit_global.h</text>
</a>
</g>
</g>
<!-- Node2&#45;&gt;Node3 -->
<g id="edge2" class="edge">
<title>Node2&#45;&gt;Node3</title>
<path fill="none" stroke="#63b8ff" d="M59.25,-219.75C61.37,-206.99 66.5,-182.85 77,-165 97.97,-129.35 134.36,-96.82 156.11,-79.23"/>
<polygon fill="#63b8ff" stroke="#63b8ff" points="162.62,-74.05 158.59,-81.85 159.49,-76.54 156.35,-79.03 156.35,-79.03 156.35,-79.03 159.49,-76.54 154.11,-76.21 162.62,-74.05 162.62,-74.05"/>
</g>
<!-- Node5 -->
<g id="node5" class="node">
<title>Node5</title>
<g id="a_node5"><a xlink:title=" ">
<polygon fill="#e0e0e0" stroke="#999999" points="145.5,-184 86.5,-184 86.5,-165 145.5,-165 145.5,-184"/>
<text text-anchor="middle" x="116" y="-172" font-family="Helvetica,sans-Serif" font-size="10.00">QVariant</text>
</a>
</g>
</g>
<!-- Node2&#45;&gt;Node5 -->
<g id="edge4" class="edge">
<title>Node2&#45;&gt;Node5</title>
<path fill="none" stroke="#63b8ff" d="M67.32,-219.98C76.23,-211.84 89.83,-199.41 100.4,-189.76"/>
<polygon fill="#63b8ff" stroke="#63b8ff" points="106.51,-184.17 103.03,-192.22 103.56,-186.87 100.61,-189.57 100.61,-189.57 100.61,-189.57 103.56,-186.87 98.18,-186.91 106.51,-184.17 106.51,-184.17"/>
</g>
<!-- Node4 -->
<g id="node4" class="node">
<title>Node4</title>
<g id="a_node4"><a xlink:title=" ">
<polygon fill="#e0e0e0" stroke="#999999" points="203.5,-19 144.5,-19 144.5,0 203.5,0 203.5,-19"/>
<text text-anchor="middle" x="174" y="-7" font-family="Helvetica,sans-Serif" font-size="10.00">QtGlobal</text>
</a>
</g>
</g>
<!-- Node3&#45;&gt;Node4 -->
<g id="edge3" class="edge">
<title>Node3&#45;&gt;Node4</title>
<path fill="none" stroke="#63b8ff" d="M174,-54.75C174,-47.26 174,-36.28 174,-27.13"/>
<polygon fill="#63b8ff" stroke="#63b8ff" points="174,-19.09 177.6,-27.09 174,-23.09 174,-27.09 174,-27.09 174,-27.09 174,-23.09 170.4,-27.09 174,-19.09 174,-19.09"/>
</g>
<!-- Node6&#45;&gt;Node3 -->
<g id="edge6" class="edge">
<title>Node6&#45;&gt;Node3</title>
<path fill="none" stroke="#63b8ff" d="M185.35,-219.74C183.44,-193.76 177.78,-116.83 175.25,-82.44"/>
<polygon fill="#63b8ff" stroke="#63b8ff" points="174.65,-74.31 178.83,-82.02 174.94,-78.3 175.24,-82.29 175.24,-82.29 175.24,-82.29 174.94,-78.3 171.65,-82.55 174.65,-74.31 174.65,-74.31"/>
</g>
<!-- Node6&#45;&gt;Node5 -->
<g id="edge7" class="edge">
<title>Node6&#45;&gt;Node5</title>
<path fill="none" stroke="#63b8ff" d="M174.75,-219.98C163.8,-211.69 146.96,-198.94 134.11,-189.22"/>
<polygon fill="#63b8ff" stroke="#63b8ff" points="127.45,-184.17 136,-186.13 130.64,-186.58 133.83,-189 133.83,-189 133.83,-189 130.64,-186.58 131.66,-191.87 127.45,-184.17 127.45,-184.17"/>
</g>
<!-- Node7&#45;&gt;Node3 -->
<g id="edge9" class="edge">
<title>Node7&#45;&gt;Node3</title>
<path fill="none" stroke="#63b8ff" d="M283.95,-109.98C262.02,-101.11 227.51,-87.15 203.01,-77.24"/>
<polygon fill="#63b8ff" stroke="#63b8ff" points="195.43,-74.17 204.2,-73.83 199.14,-75.67 202.85,-77.17 202.85,-77.17 202.85,-77.17 199.14,-75.67 201.5,-80.51 195.43,-74.17 195.43,-74.17"/>
</g>
<!-- Node8 -->
<g id="node8" class="node">
<title>Node8</title>
<g id="a_node8"><a xlink:title=" ">
<polygon fill="#e0e0e0" stroke="#999999" points="364,-74 240,-74 240,-55 364,-55 364,-74"/>
<text text-anchor="middle" x="302" y="-62" font-family="Helvetica,sans-Serif" font-size="10.00">QBluetoothDeviceInfo</text>
</a>
</g>
</g>
<!-- Node7&#45;&gt;Node8 -->
<g id="edge10" class="edge">
<title>Node7&#45;&gt;Node8</title>
<path fill="none" stroke="#63b8ff" d="M304.5,-109.75C304.08,-102.26 303.46,-91.28 302.94,-82.13"/>
<polygon fill="#63b8ff" stroke="#63b8ff" points="302.49,-74.09 306.53,-81.87 302.71,-78.08 302.94,-82.08 302.94,-82.08 302.94,-82.08 302.71,-78.08 299.34,-82.28 302.49,-74.09 302.49,-74.09"/>
</g>
<!-- Node9 -->
<g id="node9" class="node">
<title>Node9</title>
<g id="a_node9"><a xlink:title=" ">
<polygon fill="#e0e0e0" stroke="#999999" points="432,-74 382,-74 382,-55 432,-55 432,-74"/>
<text text-anchor="middle" x="407" y="-62" font-family="Helvetica,sans-Serif" font-size="10.00">QFlags</text>
</a>
</g>
</g>
<!-- Node7&#45;&gt;Node9 -->
<g id="edge11" class="edge">
<title>Node7&#45;&gt;Node9</title>
<path fill="none" stroke="#63b8ff" d="M321.39,-109.98C338.09,-101.3 364.18,-87.75 383.17,-77.88"/>
<polygon fill="#63b8ff" stroke="#63b8ff" points="390.31,-74.17 384.87,-81.05 386.76,-76.01 383.21,-77.86 383.21,-77.86 383.21,-77.86 386.76,-76.01 381.55,-74.66 390.31,-74.17 390.31,-74.17"/>
</g>
<!-- Node10 -->
<g id="node10" class="node">
<title>Node10</title>
<g id="a_node10"><a xlink:title=" ">
<polygon fill="#e0e0e0" stroke="#999999" points="503.5,-74 450.5,-74 450.5,-55 503.5,-55 503.5,-74"/>
<text text-anchor="middle" x="477" y="-62" font-family="Helvetica,sans-Serif" font-size="10.00">QString</text>
</a>
</g>
</g>
<!-- Node7&#45;&gt;Node10 -->
<g id="edge12" class="edge">
<title>Node7&#45;&gt;Node10</title>
<path fill="none" stroke="#63b8ff" d="M332.63,-109.98C362.49,-100.79 410.1,-86.11 442.42,-76.16"/>
<polygon fill="#63b8ff" stroke="#63b8ff" points="450.28,-73.73 443.7,-79.53 446.46,-74.91 442.64,-76.09 442.64,-76.09 442.64,-76.09 446.46,-74.91 441.58,-72.65 450.28,-73.73 450.28,-73.73"/>
</g>
<!-- Node12 -->
<g id="node12" class="node">
<title>Node12</title>
<g id="a_node12"><a xlink:href="abstractpokitservice_8h.html" target="_top" xlink:title="Declares the AbstractPokitService class.">
<polygon fill="white" stroke="#666666" points="419.5,-184 294.5,-184 294.5,-165 419.5,-165 419.5,-184"/>
<text text-anchor="middle" x="357" y="-172" font-family="Helvetica,sans-Serif" font-size="10.00">abstractpokitservice.h</text>
</a>
</g>
</g>
<!-- Node11&#45;&gt;Node12 -->
<g id="edge14" class="edge">
<title>Node11&#45;&gt;Node12</title>
<path fill="none" stroke="#63b8ff" d="M414.07,-219.98C403.43,-211.69 387.08,-198.94 374.6,-189.22"/>
<polygon fill="#63b8ff" stroke="#63b8ff" points="368.12,-184.17 376.65,-186.25 371.28,-186.63 374.43,-189.09 374.43,-189.09 374.43,-189.09 371.28,-186.63 372.22,-191.93 368.12,-184.17 368.12,-184.17"/>
</g>
<!-- Node15 -->
<g id="node15" class="node">
<title>Node15</title>
<g id="a_node15"><a xlink:title=" ">
<polygon fill="#e0e0e0" stroke="#999999" points="548,-184 438,-184 438,-165 548,-165 548,-184"/>
<text text-anchor="middle" x="493" y="-172" font-family="Helvetica,sans-Serif" font-size="10.00">QBluetoothAddress</text>
</a>
</g>
</g>
<!-- Node11&#45;&gt;Node15 -->
<g id="edge19" class="edge">
<title>Node11&#45;&gt;Node15</title>
<path fill="none" stroke="#63b8ff" d="M435.93,-219.98C446.57,-211.69 462.92,-198.94 475.4,-189.22"/>
<polygon fill="#63b8ff" stroke="#63b8ff" points="481.88,-184.17 477.78,-191.93 478.72,-186.63 475.57,-189.09 475.57,-189.09 475.57,-189.09 478.72,-186.63 473.35,-186.25 481.88,-184.17 481.88,-184.17"/>
</g>
<!-- Node16 -->
<g id="node16" class="node">
<title>Node16</title>
<g id="a_node16"><a xlink:title=" ">
<polygon fill="#e0e0e0" stroke="#999999" points="660,-184 566,-184 566,-165 660,-165 660,-184"/>
<text text-anchor="middle" x="613" y="-172" font-family="Helvetica,sans-Serif" font-size="10.00">QBluetoothUuid</text>
</a>
</g>
</g>
<!-- Node11&#45;&gt;Node16 -->
<g id="edge20" class="edge">
<title>Node11&#45;&gt;Node16</title>
<path fill="none" stroke="#63b8ff" d="M455.21,-219.98C487.73,-210.82 539.53,-196.21 574.84,-186.26"/>
<polygon fill="#63b8ff" stroke="#63b8ff" points="582.56,-184.08 575.83,-189.72 578.71,-185.17 574.86,-186.25 574.86,-186.25 574.86,-186.25 578.71,-185.17 573.88,-182.79 582.56,-184.08 582.56,-184.08"/>
</g>
<!-- Node17 -->
<g id="node17" class="node">
<title>Node17</title>
<g id="a_node17"><a xlink:title=" ">
<polygon fill="#e0e0e0" stroke="#999999" points="777.5,-184 678.5,-184 678.5,-165 777.5,-165 777.5,-184"/>
<text text-anchor="middle" x="728" y="-172" font-family="Helvetica,sans-Serif" font-size="10.00">QVersionNumber</text>
</a>
</g>
</g>
<!-- Node11&#45;&gt;Node17 -->
<g id="edge21" class="edge">
<title>Node11&#45;&gt;Node17</title>
<path fill="none" stroke="#63b8ff" d="M473.68,-219.98C527.5,-210.57 614.08,-195.43 671.01,-185.47"/>
<polygon fill="#63b8ff" stroke="#63b8ff" points="679.19,-184.04 671.93,-188.96 675.25,-184.73 671.31,-185.42 671.31,-185.42 671.31,-185.42 675.25,-184.73 670.69,-181.87 679.19,-184.04 679.19,-184.04"/>
</g>
<!-- Node12&#45;&gt;Node3 -->
<g id="edge15" class="edge">
<title>Node12&#45;&gt;Node3</title>
<path fill="none" stroke="#63b8ff" d="M317.47,-164.97C291.4,-158.08 257.32,-146.6 231,-129 211.7,-116.1 194.68,-95.2 184.37,-80.93"/>
<polygon fill="#63b8ff" stroke="#63b8ff" points="179.61,-74.15 187.15,-78.63 181.91,-77.42 184.21,-80.7 184.21,-80.7 184.21,-80.7 181.91,-77.42 181.26,-82.77 179.61,-74.15 179.61,-74.15"/>
</g>
<!-- Node12&#45;&gt;Node7 -->
<g id="edge16" class="edge">
<title>Node12&#45;&gt;Node7</title>
<path fill="none" stroke="#63b8ff" d="M348.41,-164.75C340.46,-156.64 328.49,-144.44 319.13,-134.9"/>
<polygon fill="#63b8ff" stroke="#63b8ff" points="313.43,-129.09 321.6,-132.28 316.23,-131.94 319.03,-134.8 319.03,-134.8 319.03,-134.8 316.23,-131.94 316.46,-137.32 313.43,-129.09 313.43,-129.09"/>
</g>
<!-- Node13 -->
<g id="node13" class="node">
<title>Node13</title>
<g id="a_node13"><a xlink:title=" ">
<polygon fill="#e0e0e0" stroke="#999999" points="501.5,-129 388.5,-129 388.5,-110 501.5,-110 501.5,-129"/>
<text text-anchor="middle" x="445" y="-117" font-family="Helvetica,sans-Serif" font-size="10.00">QLowEnergyService</text>
</a>
</g>
</g>
<!-- Node12&#45;&gt;Node13 -->
<g id="edge17" class="edge">
<title>Node12&#45;&gt;Node13</title>
<path fill="none" stroke="#63b8ff" d="M371.14,-164.98C385.3,-156.46 407.26,-143.23 423.56,-133.41"/>
<polygon fill="#63b8ff" stroke="#63b8ff" points="430.6,-129.17 425.61,-136.38 427.18,-131.23 423.75,-133.3 423.75,-133.3 423.75,-133.3 427.18,-131.23 421.89,-130.21 430.6,-129.17 430.6,-129.17"/>
</g>
<!-- Node14 -->
<g id="node14" class="node">
<title>Node14</title>
<g id="a_node14"><a xlink:title=" ">
<polygon fill="#e0e0e0" stroke="#999999" points="576,-129 520,-129 520,-110 576,-110 576,-129"/>
<text text-anchor="middle" x="548" y="-117" font-family="Helvetica,sans-Serif" font-size="10.00">QObject</text>
</a>
</g>
</g>
<!-- Node12&#45;&gt;Node14 -->
<g id="edge18" class="edge">
<title>Node12&#45;&gt;Node14</title>
<path fill="none" stroke="#63b8ff" d="M387.69,-164.98C421.61,-155.57 476.18,-140.43 512.07,-130.47"/>
<polygon fill="#63b8ff" stroke="#63b8ff" points="519.88,-128.3 513.13,-133.91 516.02,-129.37 512.17,-130.44 512.17,-130.44 512.17,-130.44 516.02,-129.37 511.21,-126.97 519.88,-128.3 519.88,-128.3"/>
</g>
</g>
</svg>
