<?xml version="1.0" encoding="UTF-8" standalone="no"?>
<!DOCTYPE svg PUBLIC "-//W3C//DTD SVG 1.1//EN"
 "http://www.w3.org/Graphics/SVG/1.1/DTD/svg11.dtd">
<!-- Generated by graphviz version 2.43.0 (0)
 -->
<!-- Title: pokitproducts.cpp Pages: 1 -->
<svg width="1107pt" height="302pt"
 viewBox="0.00 0.00 1106.50 302.00" xmlns="http://www.w3.org/2000/svg" xmlns:xlink="http://www.w3.org/1999/xlink">
<g id="graph0" class="graph" transform="scale(1 1) rotate(0) translate(4 298)">
<title>pokitproducts.cpp</title>
<!-- Node1 -->
<g id="Node000001" class="node">
<title>Node1</title>
<g id="a_Node000001"><a xlink:title="Defines the PokitProduct helper functions.">
<polygon fill="#999999" stroke="#666666" points="774,-294 670,-294 670,-275 774,-275 774,-294"/>
<text text-anchor="middle" x="722" y="-282" font-family="Helvetica,sans-Serif" font-size="10.00">pokitproducts.cpp</text>
</a>
</g>
</g>
<!-- Node2 -->
<g id="Node000002" class="node">
<title>Node2</title>
<g id="a_Node000002"><a xlink:href="pokitmeter_8h.html" target="_top" xlink:title="Declares the PokitMeter namespace.">
<polygon fill="white" stroke="#666666" points="193,-184 77,-184 77,-165 193,-165 193,-184"/>
<text text-anchor="middle" x="135" y="-172" font-family="Helvetica,sans-Serif" font-size="10.00">qtpokit/pokitmeter.h</text>
</a>
</g>
</g>
<!-- Node1&#45;&gt;Node2 -->
<g id="edge1_Node000001_Node000002" class="edge">
<title>Node1&#45;&gt;Node2</title>
<g id="a_edge1_Node000001_Node000002"><a xlink:title=" ">
<path fill="none" stroke="#63b8ff" d="M669.79,-275.34C615.71,-266.76 528.82,-252.65 454,-239 358.04,-221.49 246.33,-198.7 183.82,-185.72"/>
<polygon fill="#63b8ff" stroke="#63b8ff" points="175.71,-184.04 184.27,-182.14 179.63,-184.85 183.54,-185.66 183.54,-185.66 183.54,-185.66 179.63,-184.85 182.81,-189.19 175.71,-184.04 175.71,-184.04"/>
</a>
</g>
</g>
<!-- Node5 -->
<g id="Node000005" class="node">
<title>Node5</title>
<g id="a_Node000005"><a xlink:href="pokitpro_8h.html" target="_top" xlink:title="Declares the PokitPro namespace.">
<polygon fill="white" stroke="#666666" points="104,-129 0,-129 0,-110 104,-110 104,-129"/>
<text text-anchor="middle" x="52" y="-117" font-family="Helvetica,sans-Serif" font-size="10.00">qtpokit/pokitpro.h</text>
</a>
</g>
</g>
<!-- Node1&#45;&gt;Node5 -->
<g id="edge4_Node000001_Node000005" class="edge">
<title>Node1&#45;&gt;Node5</title>
<g id="a_edge4_Node000001_Node000005"><a xlink:title=" ">
<path fill="none" stroke="#63b8ff" d="M669.8,-282.95C530.49,-280.37 154.62,-265.83 68,-184 55.41,-172.1 52.14,-151.87 51.55,-137.44"/>
<polygon fill="#63b8ff" stroke="#63b8ff" points="51.48,-129.33 55.15,-137.3 51.51,-133.33 51.55,-137.33 51.55,-137.33 51.55,-137.33 51.51,-133.33 47.95,-137.37 51.48,-129.33 51.48,-129.33"/>
</a>
</g>
</g>
<!-- Node6 -->
<g id="Node000006" class="node">
<title>Node6</title>
<g id="a_Node000006"><a xlink:href="pokitproducts_8h.html" target="_top" xlink:title="Declares the PokitProduct enumeration, and related helper functions.">
<polygon fill="white" stroke="#666666" points="609,-129 479,-129 479,-110 609,-110 609,-129"/>
<text text-anchor="middle" x="544" y="-117" font-family="Helvetica,sans-Serif" font-size="10.00">qtpokit/pokitproducts.h</text>
</a>
</g>
</g>
<!-- Node1&#45;&gt;Node6 -->
<g id="edge6_Node000001_Node000006" class="edge">
<title>Node1&#45;&gt;Node6</title>
<g id="a_edge6_Node000001_Node000006"><a xlink:title=" ">
<path fill="none" stroke="#63b8ff" d="M723.47,-274.74C726.56,-253.13 731.3,-196.72 703,-165 681.45,-140.85 647.98,-129.34 617.3,-124.03"/>
<polygon fill="#63b8ff" stroke="#63b8ff" points="609.15,-122.75 617.61,-120.44 613.1,-123.37 617.05,-123.99 617.05,-123.99 617.05,-123.99 613.1,-123.37 616.49,-127.55 609.15,-122.75 609.15,-122.75"/>
</a>
</g>
</g>
<!-- Node10 -->
<g id="Node000010" class="node">
<title>Node10</title>
<g id="a_Node000010"><a xlink:href="statusservice_8h.html" target="_top" xlink:title="Declares the StatusService class.">
<polygon fill="white" stroke="#666666" points="591,-239 463,-239 463,-220 591,-220 591,-239"/>
<text text-anchor="middle" x="527" y="-227" font-family="Helvetica,sans-Serif" font-size="10.00">qtpokit/statusservice.h</text>
</a>
</g>
</g>
<!-- Node1&#45;&gt;Node10 -->
<g id="edge11_Node000001_Node000010" class="edge">
<title>Node1&#45;&gt;Node10</title>
<g id="a_edge11_Node000001_Node000010"><a xlink:title=" ">
<path fill="none" stroke="#63b8ff" d="M690.67,-274.98C656.94,-265.82 603.2,-251.21 566.58,-241.26"/>
<polygon fill="#63b8ff" stroke="#63b8ff" points="558.58,-239.08 567.24,-237.71 562.44,-240.13 566.3,-241.18 566.3,-241.18 566.3,-241.18 562.44,-240.13 565.35,-244.65 558.58,-239.08 558.58,-239.08"/>
</a>
</g>
</g>
<!-- Node18 -->
<g id="Node000018" class="node">
<title>Node18</title>
<g id="a_Node000018"><a xlink:title=" ">
<polygon fill="#e0e0e0" stroke="#999999" points="854,-239 750,-239 750,-220 854,-220 854,-239"/>
<text text-anchor="middle" x="802" y="-227" font-family="Helvetica,sans-Serif" font-size="10.00">pokitproducts_p.h</text>
</a>
</g>
</g>
<!-- Node1&#45;&gt;Node18 -->
<g id="edge21_Node000001_Node000018" class="edge">
<title>Node1&#45;&gt;Node18</title>
<g id="a_edge21_Node000001_Node000018"><a xlink:title=" ">
<path fill="none" stroke="#63b8ff" d="M734.85,-274.98C747.61,-266.54 767.33,-253.47 782.11,-243.68"/>
<polygon fill="#63b8ff" stroke="#63b8ff" points="788.91,-239.17 784.23,-246.59 785.58,-241.38 782.24,-243.59 782.24,-243.59 782.24,-243.59 785.58,-241.38 780.26,-240.59 788.91,-239.17 788.91,-239.17"/>
</a>
</g>
</g>
<!-- Node19 -->
<g id="Node000019" class="node">
<title>Node19</title>
<g id="a_Node000019"><a xlink:title=" ">
<polygon fill="#e0e0e0" stroke="#999999" points="973.5,-239 872.5,-239 872.5,-220 973.5,-220 973.5,-239"/>
<text text-anchor="middle" x="923" y="-227" font-family="Helvetica,sans-Serif" font-size="10.00">QCoreApplication</text>
</a>
</g>
</g>
<!-- Node1&#45;&gt;Node19 -->
<g id="edge22_Node000001_Node000019" class="edge">
<title>Node1&#45;&gt;Node19</title>
<g id="a_edge22_Node000001_Node000019"><a xlink:title=" ">
<path fill="none" stroke="#63b8ff" d="M754.29,-274.98C789.21,-265.78 844.92,-251.09 882.68,-241.13"/>
<polygon fill="#63b8ff" stroke="#63b8ff" points="890.45,-239.08 883.64,-244.6 886.58,-240.1 882.72,-241.12 882.72,-241.12 882.72,-241.12 886.58,-240.1 881.8,-237.64 890.45,-239.08 890.45,-239.08"/>
</a>
</g>
</g>
<!-- Node20 -->
<g id="Node000020" class="node">
<title>Node20</title>
<g id="a_Node000020"><a xlink:title=" ">
<polygon fill="#e0e0e0" stroke="#999999" points="1098.5,-239 991.5,-239 991.5,-220 1098.5,-220 1098.5,-239"/>
<text text-anchor="middle" x="1045" y="-227" font-family="Helvetica,sans-Serif" font-size="10.00">QLoggingCategory</text>
</a>
</g>
</g>
<!-- Node1&#45;&gt;Node20 -->
<g id="edge23_Node000001_Node000020" class="edge">
<title>Node1&#45;&gt;Node20</title>
<g id="a_edge23_Node000001_Node000020"><a xlink:title=" ">
<path fill="none" stroke="#63b8ff" d="M773.9,-274.98C831.5,-265.53 924.31,-250.3 984.99,-240.35"/>
<polygon fill="#63b8ff" stroke="#63b8ff" points="992.97,-239.04 985.65,-243.89 989.02,-239.69 985.07,-240.33 985.07,-240.33 985.07,-240.33 989.02,-239.69 984.49,-236.78 992.97,-239.04 992.97,-239.04"/>
</a>
</g>
</g>
<!-- Node3 -->
<g id="Node000003" class="node">
<title>Node3</title>
<g id="a_Node000003"><a xlink:href="qtpokit__global_8h.html" target="_top" xlink:title="Global QtPokit library macros.">
<polygon fill="white" stroke="#666666" points="199.5,-74 104.5,-74 104.5,-55 199.5,-55 199.5,-74"/>
<text text-anchor="middle" x="152" y="-62" font-family="Helvetica,sans-Serif" font-size="10.00">qtpokit_global.h</text>
</a>
</g>
</g>
<!-- Node2&#45;&gt;Node3 -->
<g id="edge2_Node000002_Node000003" class="edge">
<title>Node2&#45;&gt;Node3</title>
<g id="a_edge2_Node000002_Node000003"><a xlink:title=" ">
<path fill="none" stroke="#63b8ff" d="M136.39,-164.66C139.23,-146.61 145.74,-105.28 149.39,-82.08"/>
<polygon fill="#63b8ff" stroke="#63b8ff" points="150.64,-74.16 152.95,-82.62 150.02,-78.11 149.39,-82.06 149.39,-82.06 149.39,-82.06 150.02,-78.11 145.84,-81.5 150.64,-74.16 150.64,-74.16"/>
</a>
</g>
</g>
<!-- Node4 -->
<g id="Node000004" class="node">
<title>Node4</title>
<g id="a_Node000004"><a xlink:title=" ">
<polygon fill="#e0e0e0" stroke="#999999" points="181.5,-19 122.5,-19 122.5,0 181.5,0 181.5,-19"/>
<text text-anchor="middle" x="152" y="-7" font-family="Helvetica,sans-Serif" font-size="10.00">QtGlobal</text>
</a>
</g>
</g>
<!-- Node3&#45;&gt;Node4 -->
<g id="edge3_Node000003_Node000004" class="edge">
<title>Node3&#45;&gt;Node4</title>
<g id="a_edge3_Node000003_Node000004"><a xlink:title=" ">
<path fill="none" stroke="#63b8ff" d="M152,-54.75C152,-47.26 152,-36.28 152,-27.13"/>
<polygon fill="#63b8ff" stroke="#63b8ff" points="152,-19.09 155.6,-27.09 152,-23.09 152,-27.09 152,-27.09 152,-27.09 152,-23.09 148.4,-27.09 152,-19.09 152,-19.09"/>
</a>
</g>
</g>
<!-- Node5&#45;&gt;Node3 -->
<g id="edge5_Node000005_Node000003" class="edge">
<title>Node5&#45;&gt;Node3</title>
<g id="a_edge5_Node000005_Node000003"><a xlink:title=" ">
<path fill="none" stroke="#63b8ff" d="M68.07,-109.98C84.3,-101.38 109.56,-87.99 128.14,-78.15"/>
<polygon fill="#63b8ff" stroke="#63b8ff" points="135.64,-74.17 130.26,-81.1 132.11,-76.04 128.57,-77.92 128.57,-77.92 128.57,-77.92 132.11,-76.04 126.89,-74.74 135.64,-74.17 135.64,-74.17"/>
</a>
</g>
</g>
<!-- Node6&#45;&gt;Node3 -->
<g id="edge7_Node000006_Node000003" class="edge">
<title>Node6&#45;&gt;Node3</title>
<g id="a_edge7_Node000006_Node000003"><a xlink:title=" ">
<path fill="none" stroke="#63b8ff" d="M481.02,-109.98C405.48,-99.77 280.02,-82.81 207.81,-73.05"/>
<polygon fill="#63b8ff" stroke="#63b8ff" points="199.71,-71.95 208.12,-69.45 203.67,-72.49 207.63,-73.02 207.63,-73.02 207.63,-73.02 203.67,-72.49 207.15,-76.59 199.71,-71.95 199.71,-71.95"/>
</a>
</g>
</g>
<!-- Node7 -->
<g id="Node000007" class="node">
<title>Node7</title>
<g id="a_Node000007"><a xlink:title=" ">
<polygon fill="#e0e0e0" stroke="#999999" points="713,-74 589,-74 589,-55 713,-55 713,-74"/>
<text text-anchor="middle" x="651" y="-62" font-family="Helvetica,sans-Serif" font-size="10.00">QBluetoothDeviceInfo</text>
</a>
</g>
</g>
<!-- Node6&#45;&gt;Node7 -->
<g id="edge8_Node000006_Node000007" class="edge">
<title>Node6&#45;&gt;Node7</title>
<g id="a_edge8_Node000006_Node000007"><a xlink:title=" ">
<path fill="none" stroke="#63b8ff" d="M561.19,-109.98C578.79,-101.27 606.32,-87.63 626.26,-77.75"/>
<polygon fill="#63b8ff" stroke="#63b8ff" points="633.5,-74.17 627.92,-80.95 629.91,-75.95 626.33,-77.72 626.33,-77.72 626.33,-77.72 629.91,-75.95 624.73,-74.5 633.5,-74.17 633.5,-74.17"/>
</a>
</g>
</g>
<!-- Node8 -->
<g id="Node000008" class="node">
<title>Node8</title>
<g id="a_Node000008"><a xlink:title=" ">
<polygon fill="#e0e0e0" stroke="#999999" points="499,-74 449,-74 449,-55 499,-55 499,-74"/>
<text text-anchor="middle" x="474" y="-62" font-family="Helvetica,sans-Serif" font-size="10.00">QFlags</text>
</a>
</g>
</g>
<!-- Node6&#45;&gt;Node8 -->
<g id="edge9_Node000006_Node000008" class="edge">
<title>Node6&#45;&gt;Node8</title>
<g id="a_edge9_Node000006_Node000008"><a xlink:title=" ">
<path fill="none" stroke="#63b8ff" d="M532.75,-109.98C521.8,-101.69 504.96,-88.94 492.11,-79.22"/>
<polygon fill="#63b8ff" stroke="#63b8ff" points="485.45,-74.17 494,-76.13 488.64,-76.58 491.83,-79 491.83,-79 491.83,-79 488.64,-76.58 489.66,-81.87 485.45,-74.17 485.45,-74.17"/>
</a>
</g>
</g>
<!-- Node9 -->
<g id="Node000009" class="node">
<title>Node9</title>
<g id="a_Node000009"><a xlink:title=" ">
<polygon fill="#e0e0e0" stroke="#999999" points="570.5,-74 517.5,-74 517.5,-55 570.5,-55 570.5,-74"/>
<text text-anchor="middle" x="544" y="-62" font-family="Helvetica,sans-Serif" font-size="10.00">QString</text>
</a>
</g>
</g>
<!-- Node6&#45;&gt;Node9 -->
<g id="edge10_Node000006_Node000009" class="edge">
<title>Node6&#45;&gt;Node9</title>
<g id="a_edge10_Node000006_Node000009"><a xlink:title=" ">
<path fill="none" stroke="#63b8ff" d="M544,-109.75C544,-102.26 544,-91.28 544,-82.13"/>
<polygon fill="#63b8ff" stroke="#63b8ff" points="544,-74.09 547.6,-82.09 544,-78.09 544,-82.09 544,-82.09 544,-82.09 544,-78.09 540.4,-82.09 544,-74.09 544,-74.09"/>
</a>
</g>
</g>
<!-- Node11 -->
<g id="Node000011" class="node">
<title>Node11</title>
<g id="a_Node000011"><a xlink:href="abstractpokitservice_8h.html" target="_top" xlink:title="Declares the AbstractPokitService class.">
<polygon fill="white" stroke="#666666" points="336.5,-184 211.5,-184 211.5,-165 336.5,-165 336.5,-184"/>
<text text-anchor="middle" x="274" y="-172" font-family="Helvetica,sans-Serif" font-size="10.00">abstractpokitservice.h</text>
</a>
</g>
</g>
<!-- Node10&#45;&gt;Node11 -->
<g id="edge12_Node000010_Node000011" class="edge">
<title>Node10&#45;&gt;Node11</title>
<g id="a_edge12_Node000010_Node000011"><a xlink:title=" ">
<path fill="none" stroke="#63b8ff" d="M486.35,-219.98C441.85,-210.66 370.52,-195.72 322.97,-185.76"/>
<polygon fill="#63b8ff" stroke="#63b8ff" points="314.97,-184.08 323.54,-182.2 318.88,-184.9 322.8,-185.72 322.8,-185.72 322.8,-185.72 318.88,-184.9 322.06,-189.25 314.97,-184.08 314.97,-184.08"/>
</a>
</g>
</g>
<!-- Node15 -->
<g id="Node000015" class="node">
<title>Node15</title>
<g id="a_Node000015"><a xlink:title=" ">
<polygon fill="#e0e0e0" stroke="#999999" points="582,-184 472,-184 472,-165 582,-165 582,-184"/>
<text text-anchor="middle" x="527" y="-172" font-family="Helvetica,sans-Serif" font-size="10.00">QBluetoothAddress</text>
</a>
</g>
</g>
<!-- Node10&#45;&gt;Node15 -->
<g id="edge18_Node000010_Node000015" class="edge">
<title>Node10&#45;&gt;Node15</title>
<g id="a_edge18_Node000010_Node000015"><a xlink:title=" ">
<path fill="none" stroke="#63b8ff" d="M527,-219.75C527,-212.26 527,-201.28 527,-192.13"/>
<polygon fill="#63b8ff" stroke="#63b8ff" points="527,-184.09 530.6,-192.09 527,-188.09 527,-192.09 527,-192.09 527,-192.09 527,-188.09 523.4,-192.09 527,-184.09 527,-184.09"/>
</a>
</g>
</g>
<!-- Node16 -->
<g id="Node000016" class="node">
<title>Node16</title>
<g id="a_Node000016"><a xlink:title=" ">
<polygon fill="#e0e0e0" stroke="#999999" points="694,-184 600,-184 600,-165 694,-165 694,-184"/>
<text text-anchor="middle" x="647" y="-172" font-family="Helvetica,sans-Serif" font-size="10.00">QBluetoothUuid</text>
</a>
</g>
</g>
<!-- Node10&#45;&gt;Node16 -->
<g id="edge19_Node000010_Node000016" class="edge">
<title>Node10&#45;&gt;Node16</title>
<g id="a_edge19_Node000010_Node000016"><a xlink:title=" ">
<path fill="none" stroke="#63b8ff" d="M546.28,-219.98C566.19,-211.19 597.44,-197.39 619.84,-187.49"/>
<polygon fill="#63b8ff" stroke="#63b8ff" points="627.37,-184.17 621.51,-190.7 623.71,-185.79 620.05,-187.4 620.05,-187.4 620.05,-187.4 623.71,-185.79 618.6,-184.11 627.37,-184.17 627.37,-184.17"/>
</a>
</g>
</g>
<!-- Node17 -->
<g id="Node000017" class="node">
<title>Node17</title>
<g id="a_Node000017"><a xlink:title=" ">
<polygon fill="#e0e0e0" stroke="#999999" points="453.5,-184 354.5,-184 354.5,-165 453.5,-165 453.5,-184"/>
<text text-anchor="middle" x="404" y="-172" font-family="Helvetica,sans-Serif" font-size="10.00">QVersionNumber</text>
</a>
</g>
</g>
<!-- Node10&#45;&gt;Node17 -->
<g id="edge20_Node000010_Node000017" class="edge">
<title>Node10&#45;&gt;Node17</title>
<g id="a_edge20_Node000010_Node000017"><a xlink:title=" ">
<path fill="none" stroke="#63b8ff" d="M507.24,-219.98C486.74,-211.15 454.52,-197.27 431.53,-187.36"/>
<polygon fill="#63b8ff" stroke="#63b8ff" points="424.12,-184.17 432.89,-184.03 427.8,-185.75 431.47,-187.34 431.47,-187.34 431.47,-187.34 427.8,-185.75 430.04,-190.64 424.12,-184.17 424.12,-184.17"/>
</a>
</g>
</g>
<!-- Node11&#45;&gt;Node3 -->
<g id="edge13_Node000011_Node000003" class="edge">
<title>Node11&#45;&gt;Node3</title>
<g id="a_edge13_Node000011_Node000003"><a xlink:title=" ">
<path fill="none" stroke="#63b8ff" d="M250.11,-164.95C232,-157.56 207.36,-145.47 190,-129 175.82,-115.54 165.08,-95.65 158.69,-81.73"/>
<polygon fill="#63b8ff" stroke="#63b8ff" points="155.44,-74.31 161.95,-80.2 157.04,-77.98 158.65,-81.64 158.65,-81.64 158.65,-81.64 157.04,-77.98 155.35,-83.09 155.44,-74.31 155.44,-74.31"/>
</a>
</g>
</g>
<!-- Node11&#45;&gt;Node6 -->
<g id="edge14_Node000011_Node000006" class="edge">
<title>Node11&#45;&gt;Node6</title>
<g id="a_edge14_Node000011_Node000006"><a xlink:title=" ">
<path fill="none" stroke="#63b8ff" d="M317.38,-164.98C365.06,-155.62 441.63,-140.6 492.37,-130.64"/>
<polygon fill="#63b8ff" stroke="#63b8ff" points="500.28,-129.08 493.12,-134.16 496.35,-129.85 492.43,-130.62 492.43,-130.62 492.43,-130.62 496.35,-129.85 491.74,-127.09 500.28,-129.08 500.28,-129.08"/>
</a>
</g>
</g>
<!-- Node12 -->
<g id="Node000012" class="node">
<title>Node12</title>
<g id="a_Node000012"><a xlink:title=" ">
<polygon fill="#e0e0e0" stroke="#999999" points="386.5,-129 273.5,-129 273.5,-110 386.5,-110 386.5,-129"/>
<text text-anchor="middle" x="330" y="-117" font-family="Helvetica,sans-Serif" font-size="10.00">QLowEnergyService</text>
</a>
</g>
</g>
<!-- Node11&#45;&gt;Node12 -->
<g id="edge15_Node000011_Node000012" class="edge">
<title>Node11&#45;&gt;Node12</title>
<g id="a_edge15_Node000011_Node000012"><a xlink:title=" ">
<path fill="none" stroke="#63b8ff" d="M283,-164.98C291.6,-156.84 304.73,-144.41 314.93,-134.76"/>
<polygon fill="#63b8ff" stroke="#63b8ff" points="320.84,-129.17 317.5,-137.28 317.93,-131.92 315.03,-134.67 315.03,-134.67 315.03,-134.67 317.93,-131.92 312.55,-132.05 320.84,-129.17 320.84,-129.17"/>
</a>
</g>
</g>
<!-- Node13 -->
<g id="Node000013" class="node">
<title>Node13</title>
<g id="a_Node000013"><a xlink:title=" ">
<polygon fill="#e0e0e0" stroke="#999999" points="461,-129 405,-129 405,-110 461,-110 461,-129"/>
<text text-anchor="middle" x="433" y="-117" font-family="Helvetica,sans-Serif" font-size="10.00">QObject</text>
</a>
</g>
</g>
<!-- Node11&#45;&gt;Node13 -->
<g id="edge16_Node000011_Node000013" class="edge">
<title>Node11&#45;&gt;Node13</title>
<g id="a_edge16_Node000011_Node000013"><a xlink:title=" ">
<path fill="none" stroke="#63b8ff" d="M299.55,-164.98C326.7,-155.93 369.76,-141.58 399.59,-131.64"/>
<polygon fill="#63b8ff" stroke="#63b8ff" points="407.25,-129.08 400.8,-135.03 403.46,-130.35 399.66,-131.61 399.66,-131.61 399.66,-131.61 403.46,-130.35 398.53,-128.2 407.25,-129.08 407.25,-129.08"/>
</a>
</g>
</g>
<!-- Node14 -->
<g id="Node000014" class="node">
<title>Node14</title>
<g id="a_Node000014"><a xlink:title=" ">
<polygon fill="#e0e0e0" stroke="#999999" points="255,-129 199,-129 199,-110 255,-110 255,-129"/>
<text text-anchor="middle" x="227" y="-117" font-family="Helvetica,sans-Serif" font-size="10.00">optional</text>
</a>
</g>
</g>
<!-- Node11&#45;&gt;Node14 -->
<g id="edge17_Node000011_Node000014" class="edge">
<title>Node11&#45;&gt;Node14</title>
<g id="a_edge17_Node000011_Node000014"><a xlink:title=" ">
<path fill="none" stroke="#63b8ff" d="M266.24,-164.75C259.12,-156.72 248.44,-144.67 240.02,-135.18"/>
<polygon fill="#63b8ff" stroke="#63b8ff" points="234.62,-129.09 242.62,-132.69 237.27,-132.08 239.92,-135.07 239.92,-135.07 239.92,-135.07 237.27,-132.08 237.23,-137.46 234.62,-129.09 234.62,-129.09"/>
</a>
</g>
</g>
</g>
</svg>
