<?xml version="1.0" encoding="UTF-8" standalone="no"?>
<!DOCTYPE svg PUBLIC "-//W3C//DTD SVG 1.1//EN"
 "http://www.w3.org/Graphics/SVG/1.1/DTD/svg11.dtd">
<!-- Generated by graphviz version 2.43.0 (0)
 -->
<!-- Title: pokitproducts.h Pages: 1 -->
<svg width="1339pt" height="192pt"
 viewBox="0.00 0.00 1338.50 192.00" xmlns="http://www.w3.org/2000/svg" xmlns:xlink="http://www.w3.org/1999/xlink">
<g id="graph0" class="graph" transform="scale(1 1) rotate(0) translate(4 188)">
<title>pokitproducts.h</title>
<!-- Node1 -->
<g id="Node000001" class="node">
<title>Node1</title>
<g id="a_Node000001"><a xlink:title="Declares the PokitProduct enumeration, and related helper functions.">
<polygon fill="#999999" stroke="#666666" points="1092.5,-184 1000.5,-184 1000.5,-165 1092.5,-165 1092.5,-184"/>
<text text-anchor="middle" x="1046.5" y="-172" font-family="Helvetica,sans-Serif" font-size="10.00">pokitproducts.h</text>
</a>
</g>
</g>
<!-- Node2 -->
<g id="Node000002" class="node">
<title>Node2</title>
<g id="a_Node000002"><a xlink:href="abstractpokitservice_8h.html" target="_top" xlink:title="Declares the AbstractPokitService class.">
<polygon fill="white" stroke="#666666" points="692,-129 567,-129 567,-110 692,-110 692,-129"/>
<text text-anchor="middle" x="629.5" y="-117" font-family="Helvetica,sans-Serif" font-size="10.00">abstractpokitservice.h</text>
</a>
</g>
</g>
<!-- Node1&#45;&gt;Node2 -->
<g id="edge1_Node000001_Node000002" class="edge">
<title>Node1&#45;&gt;Node2</title>
<g id="a_edge1_Node000001_Node000002"><a xlink:title=" ">
<path fill="none" stroke="#63b8ff" d="M992.1,-166.59C914.85,-156.77 773.73,-138.83 692.19,-128.47"/>
<polygon fill="#63b8ff" stroke="#63b8ff" points="1000.28,-167.63 991.89,-170.19 996.31,-167.12 992.34,-166.62 992.34,-166.62 992.34,-166.62 996.31,-167.12 992.8,-163.05 1000.28,-167.63 1000.28,-167.63"/>
</a>
</g>
</g>
<!-- Node11 -->
<g id="Node000011" class="node">
<title>Node11</title>
<g id="a_Node000011"><a xlink:href="dsoservice_8h.html" target="_top" xlink:title="Declares the DsoService class.">
<polygon fill="white" stroke="#666666" points="937.5,-74 859.5,-74 859.5,-55 937.5,-55 937.5,-74"/>
<text text-anchor="middle" x="898.5" y="-62" font-family="Helvetica,sans-Serif" font-size="10.00">dsoservice.h</text>
</a>
</g>
</g>
<!-- Node1&#45;&gt;Node11 -->
<g id="edge27_Node000001_Node000011" class="edge">
<title>Node1&#45;&gt;Node11</title>
<g id="a_edge27_Node000001_Node000011"><a xlink:title=" ">
<path fill="none" stroke="#63b8ff" d="M1027.82,-159.87C996.95,-137.34 936.12,-92.96 910.42,-74.2"/>
<polygon fill="#63b8ff" stroke="#63b8ff" points="1034.64,-164.84 1026.05,-163.04 1031.41,-162.49 1028.18,-160.13 1028.18,-160.13 1028.18,-160.13 1031.41,-162.49 1030.3,-157.22 1034.64,-164.84 1034.64,-164.84"/>
</a>
</g>
</g>
<!-- Node18 -->
<g id="Node000018" class="node">
<title>Node18</title>
<g id="a_Node000018"><a xlink:href="pokitdiscoveryagent_8cpp.html" target="_top" xlink:title="Defines the PokitDiscoveryAgent and PokitDiscoveryAgentPrivate classes.">
<polygon fill="white" stroke="#666666" points="1208,-19 1071,-19 1071,0 1208,0 1208,-19"/>
<text text-anchor="middle" x="1139.5" y="-7" font-family="Helvetica,sans-Serif" font-size="10.00">pokitdiscoveryagent.cpp</text>
</a>
</g>
</g>
<!-- Node1&#45;&gt;Node18 -->
<g id="edge28_Node000001_Node000018" class="edge">
<title>Node1&#45;&gt;Node18</title>
<g id="a_edge28_Node000001_Node000018"><a xlink:title=" ">
<path fill="none" stroke="#63b8ff" d="M1055.64,-157.49C1074.98,-123.59 1119.49,-45.57 1134.48,-19.31"/>
<polygon fill="#63b8ff" stroke="#63b8ff" points="1051.5,-164.74 1052.34,-156 1053.48,-161.26 1055.46,-157.79 1055.46,-157.79 1055.46,-157.79 1053.48,-161.26 1058.59,-159.57 1051.5,-164.74 1051.5,-164.74"/>
</a>
</g>
</g>
<!-- Node19 -->
<g id="Node000019" class="node">
<title>Node19</title>
<g id="a_Node000019"><a xlink:href="pokitproducts_8cpp.html" target="_top" xlink:title="Defines the PokitProduct helper functions.">
<polygon fill="white" stroke="#666666" points="1330.5,-19 1226.5,-19 1226.5,0 1330.5,0 1330.5,-19"/>
<text text-anchor="middle" x="1278.5" y="-7" font-family="Helvetica,sans-Serif" font-size="10.00">pokitproducts.cpp</text>
</a>
</g>
</g>
<!-- Node1&#45;&gt;Node19 -->
<g id="edge29_Node000001_Node000019" class="edge">
<title>Node1&#45;&gt;Node19</title>
<g id="a_edge29_Node000001_Node000019"><a xlink:title=" ">
<path fill="none" stroke="#63b8ff" d="M1065.39,-160.23C1111.35,-127.94 1228.01,-45.98 1266.19,-19.15"/>
<polygon fill="#63b8ff" stroke="#63b8ff" points="1058.65,-164.97 1063.12,-157.42 1061.92,-162.67 1065.19,-160.37 1065.19,-160.37 1065.19,-160.37 1061.92,-162.67 1067.26,-163.31 1058.65,-164.97 1058.65,-164.97"/>
</a>
</g>
</g>
<!-- Node3 -->
<g id="Node000003" class="node">
<title>Node3</title>
<g id="a_Node000003"><a xlink:href="abstractpokitservice_8cpp.html" target="_top" xlink:title="Defines the AbstractPokitService and AbstractPokitServicePrivate classes.">
<polygon fill="white" stroke="#666666" points="841,-74 704,-74 704,-55 841,-55 841,-74"/>
<text text-anchor="middle" x="772.5" y="-62" font-family="Helvetica,sans-Serif" font-size="10.00">abstractpokitservice.cpp</text>
</a>
</g>
</g>
<!-- Node2&#45;&gt;Node3 -->
<g id="edge2_Node000002_Node000003" class="edge">
<title>Node2&#45;&gt;Node3</title>
<g id="a_edge2_Node000002_Node000003"><a xlink:title=" ">
<path fill="none" stroke="#63b8ff" d="M660.01,-107.19C686.67,-97.31 724.8,-83.18 749.11,-74.17"/>
<polygon fill="#63b8ff" stroke="#63b8ff" points="652.48,-109.98 658.73,-103.83 656.23,-108.59 659.98,-107.2 659.98,-107.2 659.98,-107.2 656.23,-108.59 661.23,-110.58 652.48,-109.98 652.48,-109.98"/>
</a>
</g>
</g>
<!-- Node4 -->
<g id="Node000004" class="node">
<title>Node4</title>
<g id="a_Node000004"><a xlink:href="calibrationservice_8h.html" target="_top" xlink:title="Declares the CalibrationService class.">
<polygon fill="white" stroke="#666666" points="276,-74 163,-74 163,-55 276,-55 276,-74"/>
<text text-anchor="middle" x="219.5" y="-62" font-family="Helvetica,sans-Serif" font-size="10.00">calibrationservice.h</text>
</a>
</g>
</g>
<!-- Node2&#45;&gt;Node4 -->
<g id="edge3_Node000002_Node000004" class="edge">
<title>Node2&#45;&gt;Node4</title>
<g id="a_edge3_Node000002_Node000004"><a xlink:title=" ">
<path fill="none" stroke="#63b8ff" d="M558.72,-109.35C478.69,-99.01 349.99,-82.37 276.26,-72.84"/>
<polygon fill="#63b8ff" stroke="#63b8ff" points="566.78,-110.39 558.39,-112.94 562.82,-109.88 558.85,-109.37 558.85,-109.37 558.85,-109.37 562.82,-109.88 559.31,-105.8 566.78,-110.39 566.78,-110.39"/>
</a>
</g>
</g>
<!-- Node7 -->
<g id="Node000007" class="node">
<title>Node7</title>
<g id="a_Node000007"><a xlink:href="dataloggerservice_8h.html" target="_top" xlink:title="Declares the DataLoggerService class.">
<polygon fill="white" stroke="#666666" points="686,-74 573,-74 573,-55 686,-55 686,-74"/>
<text text-anchor="middle" x="629.5" y="-62" font-family="Helvetica,sans-Serif" font-size="10.00">dataloggerservice.h</text>
</a>
</g>
</g>
<!-- Node2&#45;&gt;Node7 -->
<g id="edge6_Node000002_Node000007" class="edge">
<title>Node2&#45;&gt;Node7</title>
<g id="a_edge6_Node000002_Node000007"><a xlink:title=" ">
<path fill="none" stroke="#63b8ff" d="M629.5,-101.67C629.5,-92.5 629.5,-81.52 629.5,-74.09"/>
<polygon fill="#63b8ff" stroke="#63b8ff" points="629.5,-109.75 625.9,-101.75 629.5,-105.75 629.5,-101.75 629.5,-101.75 629.5,-101.75 629.5,-105.75 633.1,-101.75 629.5,-109.75 629.5,-109.75"/>
</a>
</g>
</g>
<!-- Node9 -->
<g id="Node000009" class="node">
<title>Node9</title>
<g id="a_Node000009"><a xlink:href="deviceinfoservice_8h.html" target="_top" xlink:title="Declares the DeviceInfoService class.">
<polygon fill="white" stroke="#666666" points="406.5,-74 294.5,-74 294.5,-55 406.5,-55 406.5,-74"/>
<text text-anchor="middle" x="350.5" y="-62" font-family="Helvetica,sans-Serif" font-size="10.00">deviceinfoservice.h</text>
</a>
</g>
</g>
<!-- Node2&#45;&gt;Node9 -->
<g id="edge9_Node000002_Node000009" class="edge">
<title>Node2&#45;&gt;Node9</title>
<g id="a_edge9_Node000002_Node000009"><a xlink:title=" ">
<path fill="none" stroke="#63b8ff" d="M576.52,-108.44C524.21,-98.5 445.09,-83.47 395.68,-74.08"/>
<polygon fill="#63b8ff" stroke="#63b8ff" points="584.67,-109.98 576.14,-112.03 580.74,-109.24 576.81,-108.49 576.81,-108.49 576.81,-108.49 580.74,-109.24 577.49,-104.95 584.67,-109.98 584.67,-109.98"/>
</a>
</g>
</g>
<!-- Node2&#45;&gt;Node11 -->
<g id="edge12_Node000002_Node000011" class="edge">
<title>Node2&#45;&gt;Node11</title>
<g id="a_edge12_Node000002_Node000011"><a xlink:title=" ">
<path fill="none" stroke="#63b8ff" d="M680.82,-108.39C732.83,-98.14 812.16,-82.51 859.32,-73.22"/>
<polygon fill="#63b8ff" stroke="#63b8ff" points="672.72,-109.98 679.87,-104.91 676.64,-109.21 680.57,-108.44 680.57,-108.44 680.57,-108.44 676.64,-109.21 681.26,-111.97 672.72,-109.98 672.72,-109.98"/>
</a>
</g>
</g>
<!-- Node13 -->
<g id="Node000013" class="node">
<title>Node13</title>
<g id="a_Node000013"><a xlink:href="genericaccessservice_8h.html" target="_top" xlink:title="Declares the GenericAccessService class.">
<polygon fill="white" stroke="#666666" points="554.5,-74 424.5,-74 424.5,-55 554.5,-55 554.5,-74"/>
<text text-anchor="middle" x="489.5" y="-62" font-family="Helvetica,sans-Serif" font-size="10.00">genericaccessservice.h</text>
</a>
</g>
</g>
<!-- Node2&#45;&gt;Node13 -->
<g id="edge15_Node000002_Node000013" class="edge">
<title>Node2&#45;&gt;Node13</title>
<g id="a_edge15_Node000002_Node000013"><a xlink:title=" ">
<path fill="none" stroke="#63b8ff" d="M599.29,-107.06C573.21,-97.19 536.09,-83.14 512.4,-74.17"/>
<polygon fill="#63b8ff" stroke="#63b8ff" points="607.01,-109.98 598.25,-110.52 603.27,-108.57 599.52,-107.15 599.52,-107.15 599.52,-107.15 603.27,-108.57 600.8,-103.79 607.01,-109.98 607.01,-109.98"/>
</a>
</g>
</g>
<!-- Node15 -->
<g id="Node000015" class="node">
<title>Node15</title>
<g id="a_Node000015"><a xlink:href="multimeterservice_8h.html" target="_top" xlink:title="Declares the MultimeterService class.">
<polygon fill="white" stroke="#666666" points="144.5,-74 28.5,-74 28.5,-55 144.5,-55 144.5,-74"/>
<text text-anchor="middle" x="86.5" y="-62" font-family="Helvetica,sans-Serif" font-size="10.00">multimeterservice.h</text>
</a>
</g>
</g>
<!-- Node2&#45;&gt;Node15 -->
<g id="edge18_Node000002_Node000015" class="edge">
<title>Node2&#45;&gt;Node15</title>
<g id="a_edge18_Node000002_Node000015"><a xlink:title=" ">
<path fill="none" stroke="#63b8ff" d="M558.46,-112.59C465.36,-104.69 297.05,-89.81 153.5,-74 150.59,-73.68 147.6,-73.34 144.59,-72.99"/>
<polygon fill="#63b8ff" stroke="#63b8ff" points="566.68,-113.29 558.4,-116.2 562.69,-112.95 558.71,-112.62 558.71,-112.62 558.71,-112.62 562.69,-112.95 559.01,-109.03 566.68,-113.29 566.68,-113.29"/>
</a>
</g>
</g>
<!-- Node17 -->
<g id="Node000017" class="node">
<title>Node17</title>
<g id="a_Node000017"><a xlink:href="statusservice_8h.html" target="_top" xlink:title="Declares the StatusService class.">
<polygon fill="white" stroke="#666666" points="1047,-74 956,-74 956,-55 1047,-55 1047,-74"/>
<text text-anchor="middle" x="1001.5" y="-62" font-family="Helvetica,sans-Serif" font-size="10.00">statusservice.h</text>
</a>
</g>
</g>
<!-- Node2&#45;&gt;Node17 -->
<g id="edge21_Node000002_Node000017" class="edge">
<title>Node2&#45;&gt;Node17</title>
<g id="a_edge21_Node000002_Node000017"><a xlink:title=" ">
<path fill="none" stroke="#63b8ff" d="M700.15,-108.87C764.42,-100.04 861.88,-86.48 946.5,-74 949.56,-73.55 952.71,-73.08 955.89,-72.6"/>
<polygon fill="#63b8ff" stroke="#63b8ff" points="692.09,-109.97 699.53,-105.32 696.05,-109.43 700.02,-108.89 700.02,-108.89 700.02,-108.89 696.05,-109.43 700.51,-112.45 692.09,-109.97 692.09,-109.97"/>
</a>
</g>
</g>
<!-- Node5 -->
<g id="Node000005" class="node">
<title>Node5</title>
<g id="a_Node000005"><a xlink:href="calibrationservice_8cpp.html" target="_top" xlink:title="Defines the CalibrationService and CalibrationServicePrivate classes.">
<polygon fill="white" stroke="#666666" points="269.5,-19 145.5,-19 145.5,0 269.5,0 269.5,-19"/>
<text text-anchor="middle" x="207.5" y="-7" font-family="Helvetica,sans-Serif" font-size="10.00">calibrationservice.cpp</text>
</a>
</g>
</g>
<!-- Node4&#45;&gt;Node5 -->
<g id="edge4_Node000004_Node000005" class="edge">
<title>Node4&#45;&gt;Node5</title>
<g id="a_edge4_Node000004_Node000005"><a xlink:title=" ">
<path fill="none" stroke="#63b8ff" d="M215.69,-46.67C213.61,-37.5 211.13,-26.52 209.44,-19.09"/>
<polygon fill="#63b8ff" stroke="#63b8ff" points="217.52,-54.75 212.24,-47.74 216.64,-50.85 215.75,-46.95 215.75,-46.95 215.75,-46.95 216.64,-50.85 219.26,-46.15 217.52,-54.75 217.52,-54.75"/>
</a>
</g>
</g>
<!-- Node6 -->
<g id="Node000006" class="node">
<title>Node6</title>
<g id="a_Node000006"><a xlink:href="pokitdevice_8cpp.html" target="_top" xlink:title="Defines the PokitDevice and PokitDevicePrivate classes.">
<polygon fill="white" stroke="#666666" points="523.5,-19 429.5,-19 429.5,0 523.5,0 523.5,-19"/>
<text text-anchor="middle" x="476.5" y="-7" font-family="Helvetica,sans-Serif" font-size="10.00">pokitdevice.cpp</text>
</a>
</g>
</g>
<!-- Node4&#45;&gt;Node6 -->
<g id="edge5_Node000004_Node000006" class="edge">
<title>Node4&#45;&gt;Node6</title>
<g id="a_edge5_Node000004_Node000006"><a xlink:title=" ">
<path fill="none" stroke="#63b8ff" d="M268.9,-53.31C317.08,-43.38 389.55,-28.43 434.88,-19.08"/>
<polygon fill="#63b8ff" stroke="#63b8ff" points="260.79,-54.98 267.9,-49.84 264.71,-54.18 268.63,-53.37 268.63,-53.37 268.63,-53.37 264.71,-54.18 269.35,-56.89 260.79,-54.98 260.79,-54.98"/>
</a>
</g>
</g>
<!-- Node7&#45;&gt;Node6 -->
<g id="edge8_Node000007_Node000006" class="edge">
<title>Node7&#45;&gt;Node6</title>
<g id="a_edge8_Node000007_Node000006"><a xlink:title=" ">
<path fill="none" stroke="#63b8ff" d="M597.2,-52.31C568.57,-42.39 527.37,-28.12 501.27,-19.08"/>
<polygon fill="#63b8ff" stroke="#63b8ff" points="604.92,-54.98 596.18,-55.77 601.14,-53.68 597.36,-52.37 597.36,-52.37 597.36,-52.37 601.14,-53.68 598.54,-48.96 604.92,-54.98 604.92,-54.98"/>
</a>
</g>
</g>
<!-- Node8 -->
<g id="Node000008" class="node">
<title>Node8</title>
<g id="a_Node000008"><a xlink:href="dataloggerservice_8cpp.html" target="_top" xlink:title="Defines the DataLoggerService and DataLoggerServicePrivate classes.">
<polygon fill="white" stroke="#666666" points="826,-19 701,-19 701,0 826,0 826,-19"/>
<text text-anchor="middle" x="763.5" y="-7" font-family="Helvetica,sans-Serif" font-size="10.00">dataloggerservice.cpp</text>
</a>
</g>
</g>
<!-- Node7&#45;&gt;Node8 -->
<g id="edge7_Node000007_Node000008" class="edge">
<title>Node7&#45;&gt;Node8</title>
<g id="a_edge7_Node000007_Node000008"><a xlink:title=" ">
<path fill="none" stroke="#63b8ff" d="M658.74,-51.94C683.68,-42.07 719,-28.1 741.58,-19.17"/>
<polygon fill="#63b8ff" stroke="#63b8ff" points="651.03,-54.98 657.14,-48.69 654.75,-53.51 658.47,-52.04 658.47,-52.04 658.47,-52.04 654.75,-53.51 659.79,-55.39 651.03,-54.98 651.03,-54.98"/>
</a>
</g>
</g>
<!-- Node9&#45;&gt;Node6 -->
<g id="edge11_Node000009_Node000006" class="edge">
<title>Node9&#45;&gt;Node6</title>
<g id="a_edge11_Node000009_Node000006"><a xlink:title=" ">
<path fill="none" stroke="#63b8ff" d="M378.29,-51.81C401.73,-41.95 434.75,-28.06 455.89,-19.17"/>
<polygon fill="#63b8ff" stroke="#63b8ff" points="370.74,-54.98 376.72,-48.56 374.43,-53.43 378.12,-51.88 378.12,-51.88 378.12,-51.88 374.43,-53.43 379.51,-55.2 370.74,-54.98 370.74,-54.98"/>
</a>
</g>
</g>
<!-- Node10 -->
<g id="Node000010" class="node">
<title>Node10</title>
<g id="a_Node000010"><a xlink:href="deviceinfoservice_8cpp.html" target="_top" xlink:title="Defines the DeviceInfoService and DeviceInfoServicePrivate classes.">
<polygon fill="white" stroke="#666666" points="411,-19 288,-19 288,0 411,0 411,-19"/>
<text text-anchor="middle" x="349.5" y="-7" font-family="Helvetica,sans-Serif" font-size="10.00">deviceinfoservice.cpp</text>
</a>
</g>
</g>
<!-- Node9&#45;&gt;Node10 -->
<g id="edge10_Node000009_Node000010" class="edge">
<title>Node9&#45;&gt;Node10</title>
<g id="a_edge10_Node000009_Node000010"><a xlink:title=" ">
<path fill="none" stroke="#63b8ff" d="M350.18,-46.67C350.01,-37.5 349.8,-26.52 349.66,-19.09"/>
<polygon fill="#63b8ff" stroke="#63b8ff" points="350.33,-54.75 346.58,-46.82 350.26,-50.75 350.18,-46.75 350.18,-46.75 350.18,-46.75 350.26,-50.75 353.78,-46.68 350.33,-54.75 350.33,-54.75"/>
</a>
</g>
</g>
<!-- Node11&#45;&gt;Node6 -->
<g id="edge14_Node000011_Node000006" class="edge">
<title>Node11&#45;&gt;Node6</title>
<g id="a_edge14_Node000011_Node000006"><a xlink:title=" ">
<path fill="none" stroke="#63b8ff" d="M851.3,-55.12C851.03,-55.08 850.77,-55.04 850.5,-55 710.18,-34.63 674.09,-37.46 533.5,-19 530.33,-18.58 527.05,-18.14 523.76,-17.68"/>
<polygon fill="#63b8ff" stroke="#63b8ff" points="859.24,-56.34 850.78,-58.68 855.29,-55.73 851.33,-55.12 851.33,-55.12 851.33,-55.12 855.29,-55.73 851.88,-51.56 859.24,-56.34 859.24,-56.34"/>
</a>
</g>
</g>
<!-- Node12 -->
<g id="Node000012" class="node">
<title>Node12</title>
<g id="a_Node000012"><a xlink:href="dsoservice_8cpp.html" target="_top" xlink:title="Defines the DsoService and DsoServicePrivate classes.">
<polygon fill="white" stroke="#666666" points="933,-19 844,-19 844,0 933,0 933,-19"/>
<text text-anchor="middle" x="888.5" y="-7" font-family="Helvetica,sans-Serif" font-size="10.00">dsoservice.cpp</text>
</a>
</g>
</g>
<!-- Node11&#45;&gt;Node12 -->
<g id="edge13_Node000011_Node000012" class="edge">
<title>Node11&#45;&gt;Node12</title>
<g id="a_edge13_Node000011_Node000012"><a xlink:title=" ">
<path fill="none" stroke="#63b8ff" d="M895.33,-46.67C893.59,-37.5 891.52,-26.52 890.12,-19.09"/>
<polygon fill="#63b8ff" stroke="#63b8ff" points="896.85,-54.75 891.83,-47.55 896.11,-50.82 895.37,-46.89 895.37,-46.89 895.37,-46.89 896.11,-50.82 898.9,-46.22 896.85,-54.75 896.85,-54.75"/>
</a>
</g>
</g>
<!-- Node13&#45;&gt;Node6 -->
<g id="edge17_Node000013_Node000006" class="edge">
<title>Node13&#45;&gt;Node6</title>
<g id="a_edge17_Node000013_Node000006"><a xlink:title=" ">
<path fill="none" stroke="#63b8ff" d="M485.44,-46.96C483.18,-37.72 480.45,-26.6 478.61,-19.09"/>
<polygon fill="#63b8ff" stroke="#63b8ff" points="487.35,-54.75 481.95,-47.84 486.4,-50.86 485.45,-46.98 485.45,-46.98 485.45,-46.98 486.4,-50.86 488.94,-46.12 487.35,-54.75 487.35,-54.75"/>
</a>
</g>
</g>
<!-- Node14 -->
<g id="Node000014" class="node">
<title>Node14</title>
<g id="a_Node000014"><a xlink:href="genericaccessservice_8cpp.html" target="_top" xlink:title="Defines the GenericAccessService and GenericAccessServicePrivate classes.">
<polygon fill="white" stroke="#666666" points="683,-19 542,-19 542,0 683,0 683,-19"/>
<text text-anchor="middle" x="612.5" y="-7" font-family="Helvetica,sans-Serif" font-size="10.00">genericaccessservice.cpp</text>
</a>
</g>
</g>
<!-- Node13&#45;&gt;Node14 -->
<g id="edge16_Node000013_Node000014" class="edge">
<title>Node13&#45;&gt;Node14</title>
<g id="a_edge16_Node000013_Node000014"><a xlink:title=" ">
<path fill="none" stroke="#63b8ff" d="M516.63,-51.81C539.51,-41.95 571.74,-28.06 592.38,-19.17"/>
<polygon fill="#63b8ff" stroke="#63b8ff" points="509.26,-54.98 515.18,-48.51 512.94,-53.4 516.61,-51.82 516.61,-51.82 516.61,-51.82 512.94,-53.4 518.03,-55.12 509.26,-54.98 509.26,-54.98"/>
</a>
</g>
</g>
<!-- Node15&#45;&gt;Node6 -->
<g id="edge20_Node000015_Node000006" class="edge">
<title>Node15&#45;&gt;Node6</title>
<g id="a_edge20_Node000015_Node000006"><a xlink:title=" ">
<path fill="none" stroke="#63b8ff" d="M152.58,-54.97C219.8,-46.22 326.96,-32.08 419.5,-19 422.67,-18.55 425.94,-18.08 429.23,-17.61"/>
<polygon fill="#63b8ff" stroke="#63b8ff" points="144.59,-56.01 152.06,-51.41 148.55,-55.49 152.52,-54.98 152.52,-54.98 152.52,-54.98 148.55,-55.49 152.98,-58.55 144.59,-56.01 144.59,-56.01"/>
</a>
</g>
</g>
<!-- Node16 -->
<g id="Node000016" class="node">
<title>Node16</title>
<g id="a_Node000016"><a xlink:href="multimeterservice_8cpp.html" target="_top" xlink:title="Defines the MultimeterService and MultimeterServicePrivate classes.">
<polygon fill="white" stroke="#666666" points="127,-19 0,-19 0,0 127,0 127,-19"/>
<text text-anchor="middle" x="63.5" y="-7" font-family="Helvetica,sans-Serif" font-size="10.00">multimeterservice.cpp</text>
</a>
</g>
</g>
<!-- Node15&#45;&gt;Node16 -->
<g id="edge19_Node000015_Node000016" class="edge">
<title>Node15&#45;&gt;Node16</title>
<g id="a_edge19_Node000015_Node000016"><a xlink:title=" ">
<path fill="none" stroke="#63b8ff" d="M79.44,-47.24C75.41,-37.95 70.52,-26.68 67.23,-19.09"/>
<polygon fill="#63b8ff" stroke="#63b8ff" points="82.7,-54.75 76.21,-48.84 81.11,-51.08 79.52,-47.41 79.52,-47.41 79.52,-47.41 81.11,-51.08 82.82,-45.98 82.7,-54.75 82.7,-54.75"/>
</a>
</g>
</g>
<!-- Node17&#45;&gt;Node6 -->
<g id="edge23_Node000017_Node000006" class="edge">
<title>Node17&#45;&gt;Node6</title>
<g id="a_edge23_Node000017_Node000006"><a xlink:title=" ">
<path fill="none" stroke="#63b8ff" d="M947.95,-55.18C947.46,-55.12 946.98,-55.06 946.5,-55 763.58,-32.92 716.48,-40.6 533.5,-19 530.32,-18.62 527.05,-18.21 523.75,-17.77"/>
<polygon fill="#63b8ff" stroke="#63b8ff" points="955.91,-56.22 947.52,-58.75 951.95,-55.7 947.98,-55.18 947.98,-55.18 947.98,-55.18 951.95,-55.7 948.45,-51.61 955.91,-56.22 955.91,-56.22"/>
</a>
</g>
</g>
<!-- Node17&#45;&gt;Node8 -->
<g id="edge22_Node000017_Node000008" class="edge">
<title>Node17&#45;&gt;Node8</title>
<g id="a_edge22_Node000017_Node000008"><a xlink:title=" ">
<path fill="none" stroke="#63b8ff" d="M955.2,-53.19C910.58,-43.25 843.85,-28.39 802.04,-19.08"/>
<polygon fill="#63b8ff" stroke="#63b8ff" points="963.26,-54.98 954.67,-56.76 959.36,-54.12 955.45,-53.25 955.45,-53.25 955.45,-53.25 959.36,-54.12 956.24,-49.73 963.26,-54.98 963.26,-54.98"/>
</a>
</g>
</g>
<!-- Node17&#45;&gt;Node18 -->
<g id="edge24_Node000017_Node000018" class="edge">
<title>Node17&#45;&gt;Node18</title>
<g id="a_edge24_Node000017_Node000018"><a xlink:title=" ">
<path fill="none" stroke="#63b8ff" d="M1031.27,-52.06C1056.98,-42.19 1093.57,-28.14 1116.92,-19.17"/>
<polygon fill="#63b8ff" stroke="#63b8ff" points="1023.67,-54.98 1029.85,-48.76 1027.41,-53.55 1031.14,-52.12 1031.14,-52.12 1031.14,-52.12 1027.41,-53.55 1032.43,-55.48 1023.67,-54.98 1023.67,-54.98"/>
</a>
</g>
</g>
<!-- Node17&#45;&gt;Node19 -->
<g id="edge25_Node000017_Node000019" class="edge">
<title>Node17&#45;&gt;Node19</title>
<g id="a_edge25_Node000017_Node000019"><a xlink:title=" ">
<path fill="none" stroke="#63b8ff" d="M1054.1,-53.44C1106.03,-43.5 1184.58,-28.47 1233.65,-19.08"/>
<polygon fill="#63b8ff" stroke="#63b8ff" points="1046,-54.98 1053.19,-49.95 1049.93,-54.23 1053.86,-53.48 1053.86,-53.48 1053.86,-53.48 1049.93,-54.23 1054.54,-57.02 1046,-54.98 1046,-54.98"/>
</a>
</g>
</g>
<!-- Node20 -->
<g id="Node000020" class="node">
<title>Node20</title>
<g id="a_Node000020"><a xlink:href="statusservice_8cpp.html" target="_top" xlink:title="Defines the StatusService and StatusServicePrivate classes.">
<polygon fill="white" stroke="#666666" points="1052.5,-19 950.5,-19 950.5,0 1052.5,0 1052.5,-19"/>
<text text-anchor="middle" x="1001.5" y="-7" font-family="Helvetica,sans-Serif" font-size="10.00">statusservice.cpp</text>
</a>
</g>
</g>
<!-- Node17&#45;&gt;Node20 -->
<g id="edge26_Node000017_Node000020" class="edge">
<title>Node17&#45;&gt;Node20</title>
<g id="a_edge26_Node000017_Node000020"><a xlink:title=" ">
<path fill="none" stroke="#63b8ff" d="M1001.5,-46.67C1001.5,-37.5 1001.5,-26.52 1001.5,-19.09"/>
<polygon fill="#63b8ff" stroke="#63b8ff" points="1001.5,-54.75 997.9,-46.75 1001.5,-50.75 1001.5,-46.75 1001.5,-46.75 1001.5,-46.75 1001.5,-50.75 1005.1,-46.75 1001.5,-54.75 1001.5,-54.75"/>
</a>
</g>
</g>
</g>
</svg>
