<?xml version="1.0" encoding="UTF-8" standalone="no"?>
<!DOCTYPE svg PUBLIC "-//W3C//DTD SVG 1.1//EN"
 "http://www.w3.org/Graphics/SVG/1.1/DTD/svg11.dtd">
<!-- Generated by graphviz version 2.43.0 (0)
 -->
<!-- Title: pokitmeter.h Pages: 1 -->
<svg width="328pt" height="82pt"
 viewBox="0.00 0.00 327.50 82.00" xmlns="http://www.w3.org/2000/svg" xmlns:xlink="http://www.w3.org/1999/xlink">
<g id="graph0" class="graph" transform="scale(1 1) rotate(0) translate(4 78)">
<title>pokitmeter.h</title>
<!-- Node1 -->
<g id="node1" class="node">
<title>Node1</title>
<g id="a_node1"><a xlink:title="Declares the PokitMeter namespace.">
<polygon fill="#999999" stroke="#666666" points="192,-74 113,-74 113,-55 192,-55 192,-74"/>
<text text-anchor="middle" x="152.5" y="-62" font-family="Helvetica,sans-Serif" font-size="10.00">pokitmeter.h</text>
</a>
</g>
</g>
<!-- Node2 -->
<g id="node2" class="node">
<title>Node2</title>
<g id="a_node2"><a xlink:href="dsoservice_8cpp.html" target="_top" xlink:title="Defines the DsoService and DsoServicePrivate classes.">
<polygon fill="white" stroke="#666666" points="89,-19 0,-19 0,0 89,0 89,-19"/>
<text text-anchor="middle" x="44.5" y="-7" font-family="Helvetica,sans-Serif" font-size="10.00">dsoservice.cpp</text>
</a>
</g>
</g>
<!-- Node1&#45;&gt;Node2 -->
<g id="edge1" class="edge">
<title>Node1&#45;&gt;Node2</title>
<path fill="none" stroke="#63b8ff" d="M127.89,-51.42C107.85,-41.59 80.05,-27.95 62.17,-19.17"/>
<polygon fill="#63b8ff" stroke="#63b8ff" points="135.15,-54.98 126.38,-54.69 131.56,-53.22 127.97,-51.46 127.97,-51.46 127.97,-51.46 131.56,-53.22 129.55,-48.23 135.15,-54.98 135.15,-54.98"/>
</g>
<!-- Node3 -->
<g id="node3" class="node">
<title>Node3</title>
<g id="a_node3"><a xlink:href="pokitmeter_8cpp.html" target="_top" xlink:title="Declares the PokitMeter namespace.">
<polygon fill="white" stroke="#666666" points="197.5,-19 107.5,-19 107.5,0 197.5,0 197.5,-19"/>
<text text-anchor="middle" x="152.5" y="-7" font-family="Helvetica,sans-Serif" font-size="10.00">pokitmeter.cpp</text>
</a>
</g>
</g>
<!-- Node1&#45;&gt;Node3 -->
<g id="edge2" class="edge">
<title>Node1&#45;&gt;Node3</title>
<path fill="none" stroke="#63b8ff" d="M152.5,-46.67C152.5,-37.5 152.5,-26.52 152.5,-19.09"/>
<polygon fill="#63b8ff" stroke="#63b8ff" points="152.5,-54.75 148.9,-46.75 152.5,-50.75 152.5,-46.75 152.5,-46.75 152.5,-46.75 152.5,-50.75 156.1,-46.75 152.5,-54.75 152.5,-54.75"/>
</g>
<!-- Node4 -->
<g id="node4" class="node">
<title>Node4</title>
<g id="a_node4"><a xlink:href="pokitproducts_8cpp.html" target="_top" xlink:title="Defines the PokitProduct helper functions.">
<polygon fill="white" stroke="#666666" points="319.5,-19 215.5,-19 215.5,0 319.5,0 319.5,-19"/>
<text text-anchor="middle" x="267.5" y="-7" font-family="Helvetica,sans-Serif" font-size="10.00">pokitproducts.cpp</text>
</a>
</g>
</g>
<!-- Node1&#45;&gt;Node4 -->
<g id="edge3" class="edge">
<title>Node1&#45;&gt;Node4</title>
<path fill="none" stroke="#63b8ff" d="M178.43,-51.55C199.78,-41.71 229.56,-27.98 248.69,-19.17"/>
<polygon fill="#63b8ff" stroke="#63b8ff" points="170.98,-54.98 176.74,-48.37 174.61,-53.31 178.24,-51.64 178.24,-51.64 178.24,-51.64 174.61,-53.31 179.75,-54.91 170.98,-54.98 170.98,-54.98"/>
</g>
</g>
</svg>
