<?xml version="1.0" encoding="UTF-8" standalone="no"?>
<!DOCTYPE svg PUBLIC "-//W3C//DTD SVG 1.1//EN"
 "http://www.w3.org/Graphics/SVG/1.1/DTD/svg11.dtd">
<!-- Generated by graphviz version 2.43.0 (0)
 -->
<!-- Title: pokitdevice.cpp Pages: 1 -->
<svg width="1303pt" height="302pt"
 viewBox="0.00 0.00 1302.91 302.00" xmlns="http://www.w3.org/2000/svg" xmlns:xlink="http://www.w3.org/1999/xlink">
<g id="graph0" class="graph" transform="scale(1 1) rotate(0) translate(4 298)">
<title>pokitdevice.cpp</title>
<!-- Node1 -->
<g id="Node000001" class="node">
<title>Node1</title>
<g id="a_Node000001"><a xlink:title="Defines the PokitDevice and PokitDevicePrivate classes.">
<polygon fill="#999999" stroke="#666666" points="711.91,-294 617.91,-294 617.91,-275 711.91,-275 711.91,-294"/>
<text text-anchor="middle" x="664.91" y="-282" font-family="Helvetica,sans-Serif" font-size="10.00">pokitdevice.cpp</text>
</a>
</g>
</g>
<!-- Node2 -->
<g id="Node000002" class="node">
<title>Node2</title>
<g id="a_Node000002"><a xlink:href="pokitdevice_8h.html" target="_top" xlink:title="Declares the PokitDevice class.">
<polygon fill="white" stroke="#666666" points="154.91,-184 34.91,-184 34.91,-165 154.91,-165 154.91,-184"/>
<text text-anchor="middle" x="94.91" y="-172" font-family="Helvetica,sans-Serif" font-size="10.00">qtpokit/pokitdevice.h</text>
</a>
</g>
</g>
<!-- Node1&#45;&gt;Node2 -->
<g id="edge1_Node000001_Node000002" class="edge">
<title>Node1&#45;&gt;Node2</title>
<g id="a_edge1_Node000001_Node000002"><a xlink:title=" ">
<path fill="none" stroke="#63b8ff" d="M617.9,-283.94C474.12,-284.79 47.51,-283.5 5.91,-239 -14.61,-217.05 24.28,-197.96 56.96,-186.59"/>
<polygon fill="#63b8ff" stroke="#63b8ff" points="64.66,-184.01 58.22,-189.97 60.87,-185.28 57.08,-186.55 57.08,-186.55 57.08,-186.55 60.87,-185.28 55.93,-183.14 64.66,-184.01 64.66,-184.01"/>
</a>
</g>
</g>
<!-- Node7 -->
<g id="Node000007" class="node">
<title>Node7</title>
<g id="a_Node000007"><a xlink:href="calibrationservice_8h.html" target="_top" xlink:title="Declares the CalibrationService class.">
<polygon fill="white" stroke="#666666" points="818.91,-239 668.91,-239 668.91,-220 818.91,-220 818.91,-239"/>
<text text-anchor="middle" x="743.91" y="-227" font-family="Helvetica,sans-Serif" font-size="10.00">qtpokit/calibrationservice.h</text>
</a>
</g>
</g>
<!-- Node1&#45;&gt;Node7 -->
<g id="edge6_Node000001_Node000007" class="edge">
<title>Node1&#45;&gt;Node7</title>
<g id="a_edge6_Node000001_Node000007"><a xlink:title=" ">
<path fill="none" stroke="#63b8ff" d="M677.6,-274.98C690.2,-266.54 709.68,-253.47 724.27,-243.68"/>
<polygon fill="#63b8ff" stroke="#63b8ff" points="730.99,-239.17 726.35,-246.62 727.67,-241.4 724.34,-243.63 724.34,-243.63 724.34,-243.63 727.67,-241.4 722.34,-240.64 730.99,-239.17 730.99,-239.17"/>
</a>
</g>
</g>
<!-- Node17 -->
<g id="Node000017" class="node">
<title>Node17</title>
<g id="a_Node000017"><a xlink:href="dataloggerservice_8h.html" target="_top" xlink:title="Declares the DataLoggerService class.">
<polygon fill="white" stroke="#666666" points="166.41,-239 15.41,-239 15.41,-220 166.41,-220 166.41,-239"/>
<text text-anchor="middle" x="90.91" y="-227" font-family="Helvetica,sans-Serif" font-size="10.00">qtpokit/dataloggerservice.h</text>
</a>
</g>
</g>
<!-- Node1&#45;&gt;Node17 -->
<g id="edge20_Node000001_Node000017" class="edge">
<title>Node1&#45;&gt;Node17</title>
<g id="a_edge20_Node000001_Node000017"><a xlink:title=" ">
<path fill="none" stroke="#63b8ff" d="M617.59,-279.37C530.14,-271.69 337.32,-254.59 174.91,-239 174.82,-238.99 174.74,-238.98 174.65,-238.98"/>
<polygon fill="#63b8ff" stroke="#63b8ff" points="166.46,-238.18 174.77,-235.37 170.44,-238.57 174.43,-238.95 174.43,-238.95 174.43,-238.95 170.44,-238.57 174.08,-242.54 166.46,-238.18 166.46,-238.18"/>
</a>
</g>
</g>
<!-- Node18 -->
<g id="Node000018" class="node">
<title>Node18</title>
<g id="a_Node000018"><a xlink:href="deviceinfoservice_8h.html" target="_top" xlink:title="Declares the DeviceInfoService class.">
<polygon fill="white" stroke="#666666" points="333.41,-239 184.41,-239 184.41,-220 333.41,-220 333.41,-239"/>
<text text-anchor="middle" x="258.91" y="-227" font-family="Helvetica,sans-Serif" font-size="10.00">qtpokit/deviceinfoservice.h</text>
</a>
</g>
</g>
<!-- Node1&#45;&gt;Node18 -->
<g id="edge25_Node000001_Node000018" class="edge">
<title>Node1&#45;&gt;Node18</title>
<g id="a_edge25_Node000001_Node000018"><a xlink:title=" ">
<path fill="none" stroke="#63b8ff" d="M617.54,-277.32C547.3,-268.15 414.92,-250.87 332.13,-240.06"/>
<polygon fill="#63b8ff" stroke="#63b8ff" points="324.03,-239 332.43,-236.47 327.99,-239.52 331.96,-240.04 331.96,-240.04 331.96,-240.04 327.99,-239.52 331.49,-243.61 324.03,-239 324.03,-239"/>
</a>
</g>
</g>
<!-- Node19 -->
<g id="Node000019" class="node">
<title>Node19</title>
<g id="a_Node000019"><a xlink:href="dsoservice_8h.html" target="_top" xlink:title="Declares the DsoService class.">
<polygon fill="white" stroke="#666666" points="952.91,-239 836.91,-239 836.91,-220 952.91,-220 952.91,-239"/>
<text text-anchor="middle" x="894.91" y="-227" font-family="Helvetica,sans-Serif" font-size="10.00">qtpokit/dsoservice.h</text>
</a>
</g>
</g>
<!-- Node1&#45;&gt;Node19 -->
<g id="edge30_Node000001_Node000019" class="edge">
<title>Node1&#45;&gt;Node19</title>
<g id="a_edge30_Node000001_Node000019"><a xlink:title=" ">
<path fill="none" stroke="#63b8ff" d="M701.86,-274.98C742.15,-265.7 806.63,-250.84 849.85,-240.88"/>
<polygon fill="#63b8ff" stroke="#63b8ff" points="857.67,-239.08 850.68,-244.39 853.77,-239.98 849.87,-240.88 849.87,-240.88 849.87,-240.88 853.77,-239.98 849.06,-237.37 857.67,-239.08 857.67,-239.08"/>
</a>
</g>
</g>
<!-- Node20 -->
<g id="Node000020" class="node">
<title>Node20</title>
<g id="a_Node000020"><a xlink:href="multimeterservice_8h.html" target="_top" xlink:title="Declares the MultimeterService class.">
<polygon fill="white" stroke="#666666" points="504.41,-239 351.41,-239 351.41,-220 504.41,-220 504.41,-239"/>
<text text-anchor="middle" x="427.91" y="-227" font-family="Helvetica,sans-Serif" font-size="10.00">qtpokit/multimeterservice.h</text>
</a>
</g>
</g>
<!-- Node1&#45;&gt;Node20 -->
<g id="edge36_Node000001_Node000020" class="edge">
<title>Node1&#45;&gt;Node20</title>
<g id="a_edge36_Node000001_Node000020"><a xlink:title=" ">
<path fill="none" stroke="#63b8ff" d="M626.83,-274.98C585.32,-265.7 518.88,-250.84 474.34,-240.88"/>
<polygon fill="#63b8ff" stroke="#63b8ff" points="466.29,-239.08 474.88,-237.31 470.19,-239.96 474.09,-240.83 474.09,-240.83 474.09,-240.83 470.19,-239.96 473.31,-244.34 466.29,-239.08 466.29,-239.08"/>
</a>
</g>
</g>
<!-- Node21 -->
<g id="Node000021" class="node">
<title>Node21</title>
<g id="a_Node000021"><a xlink:href="statusservice_8h.html" target="_top" xlink:title="Declares the StatusService class.">
<polygon fill="white" stroke="#666666" points="650.91,-239 522.91,-239 522.91,-220 650.91,-220 650.91,-239"/>
<text text-anchor="middle" x="586.91" y="-227" font-family="Helvetica,sans-Serif" font-size="10.00">qtpokit/statusservice.h</text>
</a>
</g>
</g>
<!-- Node1&#45;&gt;Node21 -->
<g id="edge41_Node000001_Node000021" class="edge">
<title>Node1&#45;&gt;Node21</title>
<g id="a_edge41_Node000001_Node000021"><a xlink:title=" ">
<path fill="none" stroke="#63b8ff" d="M652.38,-274.98C639.94,-266.54 620.71,-253.47 606.31,-243.68"/>
<polygon fill="#63b8ff" stroke="#63b8ff" points="599.67,-239.17 608.31,-240.69 602.98,-241.42 606.29,-243.67 606.29,-243.67 606.29,-243.67 602.98,-241.42 604.26,-246.64 599.67,-239.17 599.67,-239.17"/>
</a>
</g>
</g>
<!-- Node22 -->
<g id="Node000022" class="node">
<title>Node22</title>
<g id="a_Node000022"><a xlink:title=" ">
<polygon fill="#e0e0e0" stroke="#999999" points="1064.91,-239 970.91,-239 970.91,-220 1064.91,-220 1064.91,-239"/>
<text text-anchor="middle" x="1017.91" y="-227" font-family="Helvetica,sans-Serif" font-size="10.00">pokitdevice_p.h</text>
</a>
</g>
</g>
<!-- Node1&#45;&gt;Node22 -->
<g id="edge46_Node000001_Node000022" class="edge">
<title>Node1&#45;&gt;Node22</title>
<g id="a_edge46_Node000001_Node000022"><a xlink:title=" ">
<path fill="none" stroke="#63b8ff" d="M711.98,-276.48C770.55,-267.73 873.62,-252.31 961.91,-239 962.18,-238.96 962.46,-238.92 962.73,-238.88"/>
<polygon fill="#63b8ff" stroke="#63b8ff" points="970.86,-237.65 963.49,-242.4 966.9,-238.25 962.95,-238.84 962.95,-238.84 962.95,-238.84 966.9,-238.25 962.41,-235.28 970.86,-237.65 970.86,-237.65"/>
</a>
</g>
</g>
<!-- Node23 -->
<g id="Node000023" class="node">
<title>Node23</title>
<g id="a_Node000023"><a xlink:title=" ">
<polygon fill="#e0e0e0" stroke="#999999" points="1190.41,-239 1083.41,-239 1083.41,-220 1190.41,-220 1190.41,-239"/>
<text text-anchor="middle" x="1136.91" y="-227" font-family="Helvetica,sans-Serif" font-size="10.00">../stringliterals_p.h</text>
</a>
</g>
</g>
<!-- Node1&#45;&gt;Node23 -->
<g id="edge47_Node000001_Node000023" class="edge">
<title>Node1&#45;&gt;Node23</title>
<g id="a_edge47_Node000001_Node000023"><a xlink:title=" ">
<path fill="none" stroke="#63b8ff" d="M712.19,-278.76C788.4,-271.02 943.1,-254.94 1073.91,-239 1074.39,-238.94 1074.87,-238.88 1075.35,-238.82"/>
<polygon fill="#63b8ff" stroke="#63b8ff" points="1083.31,-237.83 1075.82,-242.39 1079.34,-238.32 1075.37,-238.82 1075.37,-238.82 1075.37,-238.82 1079.34,-238.32 1074.92,-235.25 1083.31,-237.83 1083.31,-237.83"/>
</a>
</g>
</g>
<!-- Node24 -->
<g id="Node000024" class="node">
<title>Node24</title>
<g id="a_Node000024"><a xlink:title=" ">
<polygon fill="#e0e0e0" stroke="#999999" points="1294.91,-239 1208.91,-239 1208.91,-220 1294.91,-220 1294.91,-239"/>
<text text-anchor="middle" x="1251.91" y="-227" font-family="Helvetica,sans-Serif" font-size="10.00">QMutexLocker</text>
</a>
</g>
</g>
<!-- Node1&#45;&gt;Node24 -->
<g id="edge48_Node000001_Node000024" class="edge">
<title>Node1&#45;&gt;Node24</title>
<g id="a_edge48_Node000001_Node000024"><a xlink:title=" ">
<path fill="none" stroke="#63b8ff" d="M711.91,-280.84C805.19,-275.29 1020.22,-261.12 1199.91,-239 1200.18,-238.97 1200.46,-238.93 1200.73,-238.9"/>
<polygon fill="#63b8ff" stroke="#63b8ff" points="1208.82,-237.81 1201.37,-242.45 1204.85,-238.35 1200.89,-238.88 1200.89,-238.88 1200.89,-238.88 1204.85,-238.35 1200.41,-235.31 1208.82,-237.81 1208.82,-237.81"/>
</a>
</g>
</g>
<!-- Node3 -->
<g id="Node000003" class="node">
<title>Node3</title>
<g id="a_Node000003"><a xlink:href="qtpokit__global_8h.html" target="_top" xlink:title="Global QtPokit library macros.">
<polygon fill="white" stroke="#666666" points="273.41,-74 178.41,-74 178.41,-55 273.41,-55 273.41,-74"/>
<text text-anchor="middle" x="225.91" y="-62" font-family="Helvetica,sans-Serif" font-size="10.00">qtpokit_global.h</text>
</a>
</g>
</g>
<!-- Node2&#45;&gt;Node3 -->
<g id="edge2_Node000002_Node000003" class="edge">
<title>Node2&#45;&gt;Node3</title>
<g id="a_edge2_Node000002_Node000003"><a xlink:title=" ">
<path fill="none" stroke="#63b8ff" d="M98.27,-164.6C103.71,-151.2 115.63,-125.75 132.91,-110 149.23,-95.13 171.42,-84.25 190.04,-76.98"/>
<polygon fill="#63b8ff" stroke="#63b8ff" points="197.76,-74.08 191.54,-80.26 194.02,-75.49 190.27,-76.89 190.27,-76.89 190.27,-76.89 194.02,-75.49 189.01,-73.52 197.76,-74.08 197.76,-74.08"/>
</a>
</g>
</g>
<!-- Node5 -->
<g id="Node000005" class="node">
<title>Node5</title>
<g id="a_Node000005"><a xlink:title=" ">
<polygon fill="#e0e0e0" stroke="#999999" points="148.91,-74 24.91,-74 24.91,-55 148.91,-55 148.91,-74"/>
<text text-anchor="middle" x="86.91" y="-62" font-family="Helvetica,sans-Serif" font-size="10.00">QBluetoothDeviceInfo</text>
</a>
</g>
</g>
<!-- Node2&#45;&gt;Node5 -->
<g id="edge4_Node000002_Node000005" class="edge">
<title>Node2&#45;&gt;Node5</title>
<g id="a_edge4_Node000002_Node000005"><a xlink:title=" ">
<path fill="none" stroke="#63b8ff" d="M94.26,-164.66C92.93,-146.69 89.88,-105.64 88.16,-82.38"/>
<polygon fill="#63b8ff" stroke="#63b8ff" points="87.55,-74.16 91.73,-81.87 87.85,-78.15 88.14,-82.14 88.14,-82.14 88.14,-82.14 87.85,-78.15 84.55,-82.4 87.55,-74.16 87.55,-74.16"/>
</a>
</g>
</g>
<!-- Node6 -->
<g id="Node000006" class="node">
<title>Node6</title>
<g id="a_Node000006"><a xlink:title=" ">
<polygon fill="#e0e0e0" stroke="#999999" points="197.91,-129 141.91,-129 141.91,-110 197.91,-110 197.91,-129"/>
<text text-anchor="middle" x="169.91" y="-117" font-family="Helvetica,sans-Serif" font-size="10.00">QObject</text>
</a>
</g>
</g>
<!-- Node2&#45;&gt;Node6 -->
<g id="edge5_Node000002_Node000006" class="edge">
<title>Node2&#45;&gt;Node6</title>
<g id="a_edge5_Node000002_Node000006"><a xlink:title=" ">
<path fill="none" stroke="#63b8ff" d="M106.96,-164.98C118.81,-156.61 137.07,-143.7 150.88,-133.95"/>
<polygon fill="#63b8ff" stroke="#63b8ff" points="157.64,-129.17 153.19,-136.73 154.37,-131.48 151.11,-133.79 151.11,-133.79 151.11,-133.79 154.37,-131.48 149.03,-130.85 157.64,-129.17 157.64,-129.17"/>
</a>
</g>
</g>
<!-- Node4 -->
<g id="Node000004" class="node">
<title>Node4</title>
<g id="a_Node000004"><a xlink:title=" ">
<polygon fill="#e0e0e0" stroke="#999999" points="255.41,-19 196.41,-19 196.41,0 255.41,0 255.41,-19"/>
<text text-anchor="middle" x="225.91" y="-7" font-family="Helvetica,sans-Serif" font-size="10.00">QtGlobal</text>
</a>
</g>
</g>
<!-- Node3&#45;&gt;Node4 -->
<g id="edge3_Node000003_Node000004" class="edge">
<title>Node3&#45;&gt;Node4</title>
<g id="a_edge3_Node000003_Node000004"><a xlink:title=" ">
<path fill="none" stroke="#63b8ff" d="M225.91,-54.75C225.91,-47.26 225.91,-36.28 225.91,-27.13"/>
<polygon fill="#63b8ff" stroke="#63b8ff" points="225.91,-19.09 229.51,-27.09 225.91,-23.09 225.91,-27.09 225.91,-27.09 225.91,-27.09 225.91,-23.09 222.31,-27.09 225.91,-19.09 225.91,-19.09"/>
</a>
</g>
</g>
<!-- Node8 -->
<g id="Node000008" class="node">
<title>Node8</title>
<g id="a_Node000008"><a xlink:href="abstractpokitservice_8h.html" target="_top" xlink:title="Declares the AbstractPokitService class.">
<polygon fill="white" stroke="#666666" points="373.41,-184 248.41,-184 248.41,-165 373.41,-165 373.41,-184"/>
<text text-anchor="middle" x="310.91" y="-172" font-family="Helvetica,sans-Serif" font-size="10.00">abstractpokitservice.h</text>
</a>
</g>
</g>
<!-- Node7&#45;&gt;Node8 -->
<g id="edge7_Node000007_Node000008" class="edge">
<title>Node7&#45;&gt;Node8</title>
<g id="a_edge7_Node000007_Node000008"><a xlink:title=" ">
<path fill="none" stroke="#63b8ff" d="M674.34,-219.98C594.03,-210.15 462.63,-194.07 381.77,-184.17"/>
<polygon fill="#63b8ff" stroke="#63b8ff" points="373.63,-183.18 382,-180.58 377.6,-183.66 381.57,-184.15 381.57,-184.15 381.57,-184.15 377.6,-183.66 381.13,-187.72 373.63,-183.18 373.63,-183.18"/>
</a>
</g>
</g>
<!-- Node14 -->
<g id="Node000014" class="node">
<title>Node14</title>
<g id="a_Node000014"><a xlink:title=" ">
<polygon fill="#e0e0e0" stroke="#999999" points="501.91,-184 391.91,-184 391.91,-165 501.91,-165 501.91,-184"/>
<text text-anchor="middle" x="446.91" y="-172" font-family="Helvetica,sans-Serif" font-size="10.00">QBluetoothAddress</text>
</a>
</g>
</g>
<!-- Node7&#45;&gt;Node14 -->
<g id="edge17_Node000007_Node000014" class="edge">
<title>Node7&#45;&gt;Node14</title>
<g id="a_edge17_Node000007_Node000014"><a xlink:title=" ">
<path fill="none" stroke="#63b8ff" d="M696.19,-219.98C643.52,-210.59 558.83,-195.47 503.02,-185.51"/>
<polygon fill="#63b8ff" stroke="#63b8ff" points="495,-184.08 503.51,-181.94 498.94,-184.78 502.88,-185.49 502.88,-185.49 502.88,-185.49 498.94,-184.78 502.25,-189.03 495,-184.08 495,-184.08"/>
</a>
</g>
</g>
<!-- Node15 -->
<g id="Node000015" class="node">
<title>Node15</title>
<g id="a_Node000015"><a xlink:title=" ">
<polygon fill="#e0e0e0" stroke="#999999" points="613.91,-184 519.91,-184 519.91,-165 613.91,-165 613.91,-184"/>
<text text-anchor="middle" x="566.91" y="-172" font-family="Helvetica,sans-Serif" font-size="10.00">QBluetoothUuid</text>
</a>
</g>
</g>
<!-- Node7&#45;&gt;Node15 -->
<g id="edge18_Node000007_Node000015" class="edge">
<title>Node7&#45;&gt;Node15</title>
<g id="a_edge18_Node000007_Node000015"><a xlink:title=" ">
<path fill="none" stroke="#63b8ff" d="M715.47,-219.98C684.98,-210.86 636.49,-196.33 603.25,-186.38"/>
<polygon fill="#63b8ff" stroke="#63b8ff" points="595.57,-184.08 604.27,-182.93 599.4,-185.23 603.24,-186.38 603.24,-186.38 603.24,-186.38 599.4,-185.23 602.2,-189.83 595.57,-184.08 595.57,-184.08"/>
</a>
</g>
</g>
<!-- Node16 -->
<g id="Node000016" class="node">
<title>Node16</title>
<g id="a_Node000016"><a xlink:title=" ">
<polygon fill="#e0e0e0" stroke="#999999" points="731.41,-184 632.41,-184 632.41,-165 731.41,-165 731.41,-184"/>
<text text-anchor="middle" x="681.91" y="-172" font-family="Helvetica,sans-Serif" font-size="10.00">QVersionNumber</text>
</a>
</g>
</g>
<!-- Node7&#45;&gt;Node16 -->
<g id="edge19_Node000007_Node000016" class="edge">
<title>Node7&#45;&gt;Node16</title>
<g id="a_edge19_Node000007_Node000016"><a xlink:title=" ">
<path fill="none" stroke="#63b8ff" d="M733.95,-219.98C724.33,-211.77 709.61,-199.18 698.27,-189.49"/>
<polygon fill="#63b8ff" stroke="#63b8ff" points="692.05,-184.17 700.47,-186.63 695.09,-186.77 698.13,-189.37 698.13,-189.37 698.13,-189.37 695.09,-186.77 695.8,-192.11 692.05,-184.17 692.05,-184.17"/>
</a>
</g>
</g>
<!-- Node8&#45;&gt;Node3 -->
<g id="edge8_Node000008_Node000003" class="edge">
<title>Node8&#45;&gt;Node3</title>
<g id="a_edge8_Node000008_Node000003"><a xlink:title=" ">
<path fill="none" stroke="#63b8ff" d="M291.45,-164.92C276.65,-157.44 256.87,-145.25 244.91,-129 234.73,-115.16 229.96,-95.87 227.76,-82.19"/>
<polygon fill="#63b8ff" stroke="#63b8ff" points="226.65,-74.12 231.3,-81.55 227.19,-78.08 227.74,-82.05 227.74,-82.05 227.74,-82.05 227.19,-78.08 224.17,-82.54 226.65,-74.12 226.65,-74.12"/>
</a>
</g>
</g>
<!-- Node8&#45;&gt;Node6 -->
<g id="edge15_Node000008_Node000006" class="edge">
<title>Node8&#45;&gt;Node6</title>
<g id="a_edge15_Node000008_Node000006"><a xlink:title=" ">
<path fill="none" stroke="#63b8ff" d="M288.26,-164.98C264.55,-156.07 227.18,-142.03 200.79,-132.11"/>
<polygon fill="#63b8ff" stroke="#63b8ff" points="192.98,-129.17 201.73,-128.62 196.72,-130.58 200.47,-131.99 200.47,-131.99 200.47,-131.99 196.72,-130.58 199.2,-135.35 192.98,-129.17 192.98,-129.17"/>
</a>
</g>
</g>
<!-- Node9 -->
<g id="Node000009" class="node">
<title>Node9</title>
<g id="a_Node000009"><a xlink:href="pokitproducts_8h.html" target="_top" xlink:title="Declares the PokitProduct enumeration, and related helper functions.">
<polygon fill="white" stroke="#666666" points="551.91,-129 459.91,-129 459.91,-110 551.91,-110 551.91,-129"/>
<text text-anchor="middle" x="505.91" y="-117" font-family="Helvetica,sans-Serif" font-size="10.00">pokitproducts.h</text>
</a>
</g>
</g>
<!-- Node8&#45;&gt;Node9 -->
<g id="edge9_Node000008_Node000009" class="edge">
<title>Node8&#45;&gt;Node9</title>
<g id="a_edge9_Node000008_Node000009"><a xlink:title=" ">
<path fill="none" stroke="#63b8ff" d="M342.24,-164.98C375.97,-155.82 429.71,-141.21 466.33,-131.26"/>
<polygon fill="#63b8ff" stroke="#63b8ff" points="474.34,-129.08 467.56,-134.65 470.48,-130.13 466.62,-131.18 466.62,-131.18 466.62,-131.18 470.48,-130.13 465.67,-127.71 474.34,-129.08 474.34,-129.08"/>
</a>
</g>
</g>
<!-- Node12 -->
<g id="Node000012" class="node">
<title>Node12</title>
<g id="a_Node000012"><a xlink:title=" ">
<polygon fill="#e0e0e0" stroke="#999999" points="367.41,-129 254.41,-129 254.41,-110 367.41,-110 367.41,-129"/>
<text text-anchor="middle" x="310.91" y="-117" font-family="Helvetica,sans-Serif" font-size="10.00">QLowEnergyService</text>
</a>
</g>
</g>
<!-- Node8&#45;&gt;Node12 -->
<g id="edge14_Node000008_Node000012" class="edge">
<title>Node8&#45;&gt;Node12</title>
<g id="a_edge14_Node000008_Node000012"><a xlink:title=" ">
<path fill="none" stroke="#63b8ff" d="M310.91,-164.75C310.91,-157.26 310.91,-146.28 310.91,-137.13"/>
<polygon fill="#63b8ff" stroke="#63b8ff" points="310.91,-129.09 314.51,-137.09 310.91,-133.09 310.91,-137.09 310.91,-137.09 310.91,-137.09 310.91,-133.09 307.31,-137.09 310.91,-129.09 310.91,-129.09"/>
</a>
</g>
</g>
<!-- Node13 -->
<g id="Node000013" class="node">
<title>Node13</title>
<g id="a_Node000013"><a xlink:title=" ">
<polygon fill="#e0e0e0" stroke="#999999" points="441.91,-129 385.91,-129 385.91,-110 441.91,-110 441.91,-129"/>
<text text-anchor="middle" x="413.91" y="-117" font-family="Helvetica,sans-Serif" font-size="10.00">optional</text>
</a>
</g>
</g>
<!-- Node8&#45;&gt;Node13 -->
<g id="edge16_Node000008_Node000013" class="edge">
<title>Node8&#45;&gt;Node13</title>
<g id="a_edge16_Node000008_Node000013"><a xlink:title=" ">
<path fill="none" stroke="#63b8ff" d="M327.46,-164.98C344.33,-156.3 370.67,-142.75 389.84,-132.88"/>
<polygon fill="#63b8ff" stroke="#63b8ff" points="397.06,-129.17 391.59,-136.03 393.5,-131 389.95,-132.83 389.95,-132.83 389.95,-132.83 393.5,-131 388.3,-129.63 397.06,-129.17 397.06,-129.17"/>
</a>
</g>
</g>
<!-- Node9&#45;&gt;Node3 -->
<g id="edge10_Node000009_Node000003" class="edge">
<title>Node9&#45;&gt;Node3</title>
<g id="a_edge10_Node000009_Node000003"><a xlink:title=" ">
<path fill="none" stroke="#63b8ff" d="M460.92,-109.98C411.37,-100.61 331.75,-85.53 279.13,-75.57"/>
<polygon fill="#63b8ff" stroke="#63b8ff" points="271.25,-74.08 279.78,-72.03 275.18,-74.83 279.11,-75.57 279.11,-75.57 279.11,-75.57 275.18,-74.83 278.44,-79.11 271.25,-74.08 271.25,-74.08"/>
</a>
</g>
</g>
<!-- Node9&#45;&gt;Node5 -->
<g id="edge11_Node000009_Node000005" class="edge">
<title>Node9&#45;&gt;Node5</title>
<g id="a_edge11_Node000009_Node000005"><a xlink:title=" ">
<path fill="none" stroke="#63b8ff" d="M459.71,-111.25C456.74,-110.82 453.78,-110.4 450.91,-110 349.05,-95.91 230.82,-81.88 157.42,-73.45"/>
<polygon fill="#63b8ff" stroke="#63b8ff" points="149.14,-72.5 157.5,-69.84 153.12,-72.96 157.09,-73.41 157.09,-73.41 157.09,-73.41 153.12,-72.96 156.68,-76.99 149.14,-72.5 149.14,-72.5"/>
</a>
</g>
</g>
<!-- Node10 -->
<g id="Node000010" class="node">
<title>Node10</title>
<g id="a_Node000010"><a xlink:title=" ">
<polygon fill="#e0e0e0" stroke="#999999" points="495.91,-74 445.91,-74 445.91,-55 495.91,-55 495.91,-74"/>
<text text-anchor="middle" x="470.91" y="-62" font-family="Helvetica,sans-Serif" font-size="10.00">QFlags</text>
</a>
</g>
</g>
<!-- Node9&#45;&gt;Node10 -->
<g id="edge12_Node000009_Node000010" class="edge">
<title>Node9&#45;&gt;Node10</title>
<g id="a_edge12_Node000009_Node000010"><a xlink:title=" ">
<path fill="none" stroke="#63b8ff" d="M500.13,-109.75C494.98,-101.95 487.33,-90.37 481.15,-81"/>
<polygon fill="#63b8ff" stroke="#63b8ff" points="476.58,-74.09 484,-78.78 478.79,-77.43 480.99,-80.76 480.99,-80.76 480.99,-80.76 478.79,-77.43 477.99,-82.75 476.58,-74.09 476.58,-74.09"/>
</a>
</g>
</g>
<!-- Node11 -->
<g id="Node000011" class="node">
<title>Node11</title>
<g id="a_Node000011"><a xlink:title=" ">
<polygon fill="#e0e0e0" stroke="#999999" points="567.41,-74 514.41,-74 514.41,-55 567.41,-55 567.41,-74"/>
<text text-anchor="middle" x="540.91" y="-62" font-family="Helvetica,sans-Serif" font-size="10.00">QString</text>
</a>
</g>
</g>
<!-- Node9&#45;&gt;Node11 -->
<g id="edge13_Node000009_Node000011" class="edge">
<title>Node9&#45;&gt;Node11</title>
<g id="a_edge13_Node000009_Node000011"><a xlink:title=" ">
<path fill="none" stroke="#63b8ff" d="M511.69,-109.75C516.84,-101.95 524.49,-90.37 530.67,-81"/>
<polygon fill="#63b8ff" stroke="#63b8ff" points="535.24,-74.09 533.83,-82.75 533.03,-77.43 530.83,-80.76 530.83,-80.76 530.83,-80.76 533.03,-77.43 527.83,-78.78 535.24,-74.09 535.24,-74.09"/>
</a>
</g>
</g>
<!-- Node17&#45;&gt;Node8 -->
<g id="edge21_Node000017_Node000008" class="edge">
<title>Node17&#45;&gt;Node8</title>
<g id="a_edge21_Node000017_Node000008"><a xlink:title=" ">
<path fill="none" stroke="#63b8ff" d="M126.26,-219.98C164.63,-210.74 225.96,-195.97 267.3,-186.01"/>
<polygon fill="#63b8ff" stroke="#63b8ff" points="275.29,-184.08 268.35,-189.46 271.4,-185.02 267.51,-185.96 267.51,-185.96 267.51,-185.96 271.4,-185.02 266.67,-182.46 275.29,-184.08 275.29,-184.08"/>
</a>
</g>
</g>
<!-- Node17&#45;&gt;Node14 -->
<g id="edge22_Node000017_Node000014" class="edge">
<title>Node17&#45;&gt;Node14</title>
<g id="a_edge22_Node000017_Node000014"><a xlink:title=" ">
<path fill="none" stroke="#63b8ff" d="M148.11,-219.98C212.61,-210.38 317.18,-194.81 383.95,-184.87"/>
<polygon fill="#63b8ff" stroke="#63b8ff" points="391.9,-183.69 384.52,-188.43 387.95,-184.28 383.99,-184.87 383.99,-184.87 383.99,-184.87 387.95,-184.28 383.46,-181.31 391.9,-183.69 391.9,-183.69"/>
</a>
</g>
</g>
<!-- Node17&#45;&gt;Node15 -->
<g id="edge23_Node000017_Node000015" class="edge">
<title>Node17&#45;&gt;Node15</title>
<g id="a_edge23_Node000017_Node000015"><a xlink:title=" ">
<path fill="none" stroke="#63b8ff" d="M166.69,-220.66C278.41,-209.07 477.73,-188.27 510.91,-184 511.19,-183.96 511.46,-183.93 511.74,-183.89"/>
<polygon fill="#63b8ff" stroke="#63b8ff" points="519.88,-182.8 512.43,-187.43 515.91,-183.33 511.95,-183.86 511.95,-183.86 511.95,-183.86 515.91,-183.33 511.47,-180.3 519.88,-182.8 519.88,-182.8"/>
</a>
</g>
</g>
<!-- Node17&#45;&gt;Node16 -->
<g id="edge24_Node000017_Node000016" class="edge">
<title>Node17&#45;&gt;Node16</title>
<g id="a_edge24_Node000017_Node000016"><a xlink:title=" ">
<path fill="none" stroke="#63b8ff" d="M166.46,-220.78C169.31,-220.51 172.14,-220.25 174.91,-220 373.85,-201.94 424.4,-206.25 622.91,-184 623.39,-183.95 623.88,-183.89 624.36,-183.84"/>
<polygon fill="#63b8ff" stroke="#63b8ff" points="632.37,-182.87 624.85,-187.4 628.39,-183.35 624.42,-183.83 624.42,-183.83 624.42,-183.83 628.39,-183.35 623.99,-180.25 632.37,-182.87 632.37,-182.87"/>
</a>
</g>
</g>
<!-- Node18&#45;&gt;Node8 -->
<g id="edge26_Node000018_Node000008" class="edge">
<title>Node18&#45;&gt;Node8</title>
<g id="a_edge26_Node000018_Node000008"><a xlink:title=" ">
<path fill="none" stroke="#63b8ff" d="M267.5,-219.75C275.45,-211.64 287.42,-199.44 296.78,-189.9"/>
<polygon fill="#63b8ff" stroke="#63b8ff" points="302.48,-184.09 299.45,-192.32 299.68,-186.94 296.88,-189.8 296.88,-189.8 296.88,-189.8 299.68,-186.94 294.31,-187.28 302.48,-184.09 302.48,-184.09"/>
</a>
</g>
</g>
<!-- Node18&#45;&gt;Node14 -->
<g id="edge27_Node000018_Node000014" class="edge">
<title>Node18&#45;&gt;Node14</title>
<g id="a_edge27_Node000018_Node000014"><a xlink:title=" ">
<path fill="none" stroke="#63b8ff" d="M289.12,-219.98C321.64,-210.82 373.44,-196.21 408.76,-186.26"/>
<polygon fill="#63b8ff" stroke="#63b8ff" points="416.47,-184.08 409.75,-189.72 412.62,-185.17 408.77,-186.25 408.77,-186.25 408.77,-186.25 412.62,-185.17 407.79,-182.79 416.47,-184.08 416.47,-184.08"/>
</a>
</g>
</g>
<!-- Node18&#45;&gt;Node15 -->
<g id="edge28_Node000018_Node000015" class="edge">
<title>Node18&#45;&gt;Node15</title>
<g id="a_edge28_Node000018_Node000015"><a xlink:title=" ">
<path fill="none" stroke="#63b8ff" d="M308.4,-219.98C364.02,-210.41 454.09,-194.91 511.89,-184.97"/>
<polygon fill="#63b8ff" stroke="#63b8ff" points="519.82,-183.6 512.55,-188.51 515.88,-184.28 511.94,-184.96 511.94,-184.96 511.94,-184.96 515.88,-184.28 511.33,-181.41 519.82,-183.6 519.82,-183.6"/>
</a>
</g>
</g>
<!-- Node18&#45;&gt;Node16 -->
<g id="edge29_Node000018_Node000016" class="edge">
<title>Node18&#45;&gt;Node16</title>
<g id="a_edge29_Node000018_Node000016"><a xlink:title=" ">
<path fill="none" stroke="#63b8ff" d="M332.52,-219.97C406.09,-211.33 522.41,-197.38 622.91,-184 623.39,-183.94 623.87,-183.87 624.36,-183.81"/>
<polygon fill="#63b8ff" stroke="#63b8ff" points="632.35,-182.72 624.91,-187.37 628.38,-183.26 624.42,-183.8 624.42,-183.8 624.42,-183.8 628.38,-183.26 623.93,-180.23 632.35,-182.72 632.35,-182.72"/>
</a>
</g>
</g>
<!-- Node19&#45;&gt;Node8 -->
<g id="edge31_Node000019_Node000008" class="edge">
<title>Node19&#45;&gt;Node8</title>
<g id="a_edge31_Node000019_Node000008"><a xlink:title=" ">
<path fill="none" stroke="#63b8ff" d="M836.82,-220.97C833.81,-220.63 830.83,-220.3 827.91,-220 630.55,-199.51 580.36,-203.64 382.91,-184 382.54,-183.96 382.16,-183.92 381.78,-183.89"/>
<polygon fill="#63b8ff" stroke="#63b8ff" points="373.72,-183.05 382.05,-180.3 377.7,-183.47 381.68,-183.88 381.68,-183.88 381.68,-183.88 377.7,-183.47 381.31,-187.46 373.72,-183.05 373.72,-183.05"/>
</a>
</g>
</g>
<!-- Node19&#45;&gt;Node9 -->
<g id="edge32_Node000019_Node000009" class="edge">
<title>Node19&#45;&gt;Node9</title>
<g id="a_edge32_Node000019_Node000009"><a xlink:title=" ">
<path fill="none" stroke="#63b8ff" d="M877.32,-219.86C849.16,-206.34 791.91,-180.17 740.91,-165 680.15,-146.93 608.28,-134.58 560.17,-127.56"/>
<polygon fill="#63b8ff" stroke="#63b8ff" points="552.06,-126.4 560.49,-123.97 556.02,-126.97 559.98,-127.54 559.98,-127.54 559.98,-127.54 556.02,-126.97 559.47,-131.1 552.06,-126.4 552.06,-126.4"/>
</a>
</g>
</g>
<!-- Node19&#45;&gt;Node14 -->
<g id="edge33_Node000019_Node000014" class="edge">
<title>Node19&#45;&gt;Node14</title>
<g id="a_edge33_Node000019_Node000014"><a xlink:title=" ">
<path fill="none" stroke="#63b8ff" d="M836.81,-221.08C833.8,-220.71 830.82,-220.35 827.91,-220 687.13,-203.08 651.64,-201.33 510.91,-184 510.64,-183.97 510.37,-183.93 510.1,-183.9"/>
<polygon fill="#63b8ff" stroke="#63b8ff" points="502.06,-182.89 510.45,-180.32 506.03,-183.39 510,-183.89 510,-183.89 510,-183.89 506.03,-183.39 509.55,-187.46 502.06,-182.89 502.06,-182.89"/>
</a>
</g>
</g>
<!-- Node19&#45;&gt;Node15 -->
<g id="edge34_Node000019_Node000015" class="edge">
<title>Node19&#45;&gt;Node15</title>
<g id="a_edge34_Node000019_Node000015"><a xlink:title=" ">
<path fill="none" stroke="#63b8ff" d="M842.21,-219.98C781.9,-210.24 683.56,-194.35 622.19,-184.43"/>
<polygon fill="#63b8ff" stroke="#63b8ff" points="614.16,-183.13 622.63,-180.86 618.1,-183.77 622.05,-184.41 622.05,-184.41 622.05,-184.41 618.1,-183.77 621.48,-187.96 614.16,-183.13 614.16,-183.13"/>
</a>
</g>
</g>
<!-- Node19&#45;&gt;Node16 -->
<g id="edge35_Node000019_Node000016" class="edge">
<title>Node19&#45;&gt;Node16</title>
<g id="a_edge35_Node000019_Node000016"><a xlink:title=" ">
<path fill="none" stroke="#63b8ff" d="M860.69,-219.98C823.61,-210.76 764.41,-196.03 724.39,-186.07"/>
<polygon fill="#63b8ff" stroke="#63b8ff" points="716.4,-184.08 725.03,-182.52 720.28,-185.05 724.16,-186.01 724.16,-186.01 724.16,-186.01 720.28,-185.05 723.3,-189.51 716.4,-184.08 716.4,-184.08"/>
</a>
</g>
</g>
<!-- Node20&#45;&gt;Node8 -->
<g id="edge37_Node000020_Node000008" class="edge">
<title>Node20&#45;&gt;Node8</title>
<g id="a_edge37_Node000020_Node000008"><a xlink:title=" ">
<path fill="none" stroke="#63b8ff" d="M409.11,-219.98C389.7,-211.19 359.24,-197.39 337.39,-187.49"/>
<polygon fill="#63b8ff" stroke="#63b8ff" points="330.05,-184.17 338.82,-184.19 333.69,-185.82 337.34,-187.47 337.34,-187.47 337.34,-187.47 333.69,-185.82 335.85,-190.75 330.05,-184.17 330.05,-184.17"/>
</a>
</g>
</g>
<!-- Node20&#45;&gt;Node14 -->
<g id="edge38_Node000020_Node000014" class="edge">
<title>Node20&#45;&gt;Node14</title>
<g id="a_edge38_Node000020_Node000014"><a xlink:title=" ">
<path fill="none" stroke="#63b8ff" d="M431.05,-219.75C433.76,-212.18 437.75,-201.05 441.05,-191.84"/>
<polygon fill="#63b8ff" stroke="#63b8ff" points="443.83,-184.09 444.52,-192.83 442.48,-187.85 441.13,-191.62 441.13,-191.62 441.13,-191.62 442.48,-187.85 437.74,-190.4 443.83,-184.09 443.83,-184.09"/>
</a>
</g>
</g>
<!-- Node20&#45;&gt;Node15 -->
<g id="edge39_Node000020_Node000015" class="edge">
<title>Node20&#45;&gt;Node15</title>
<g id="a_edge39_Node000020_Node000015"><a xlink:title=" ">
<path fill="none" stroke="#63b8ff" d="M450.24,-219.98C473.61,-211.07 510.45,-197.03 536.47,-187.11"/>
<polygon fill="#63b8ff" stroke="#63b8ff" points="544.17,-184.17 537.98,-190.38 540.43,-185.6 536.7,-187.02 536.7,-187.02 536.7,-187.02 540.43,-185.6 535.41,-183.66 544.17,-184.17 544.17,-184.17"/>
</a>
</g>
</g>
<!-- Node20&#45;&gt;Node16 -->
<g id="edge40_Node000020_Node000016" class="edge">
<title>Node20&#45;&gt;Node16</title>
<g id="a_edge40_Node000020_Node000016"><a xlink:title=" ">
<path fill="none" stroke="#63b8ff" d="M468.72,-219.98C513.39,-210.66 585.01,-195.72 632.75,-185.76"/>
<polygon fill="#63b8ff" stroke="#63b8ff" points="640.78,-184.08 633.69,-189.24 636.87,-184.9 632.95,-185.72 632.95,-185.72 632.95,-185.72 636.87,-184.9 632.21,-182.19 640.78,-184.08 640.78,-184.08"/>
</a>
</g>
</g>
<!-- Node21&#45;&gt;Node8 -->
<g id="edge42_Node000021_Node000008" class="edge">
<title>Node21&#45;&gt;Node8</title>
<g id="a_edge42_Node000021_Node000008"><a xlink:title=" ">
<path fill="none" stroke="#63b8ff" d="M542.57,-219.98C493.82,-210.62 415.56,-195.6 363.69,-185.64"/>
<polygon fill="#63b8ff" stroke="#63b8ff" points="355.6,-184.08 364.14,-182.06 359.53,-184.84 363.46,-185.59 363.46,-185.59 363.46,-185.59 359.53,-184.84 362.78,-189.13 355.6,-184.08 355.6,-184.08"/>
</a>
</g>
</g>
<!-- Node21&#45;&gt;Node14 -->
<g id="edge43_Node000021_Node000014" class="edge">
<title>Node21&#45;&gt;Node14</title>
<g id="a_edge43_Node000021_Node000014"><a xlink:title=" ">
<path fill="none" stroke="#63b8ff" d="M564.42,-219.98C540.88,-211.07 503.78,-197.03 477.57,-187.11"/>
<polygon fill="#63b8ff" stroke="#63b8ff" points="469.81,-184.17 478.57,-183.64 473.55,-185.59 477.3,-187 477.3,-187 477.3,-187 473.55,-185.59 476.02,-190.37 469.81,-184.17 469.81,-184.17"/>
</a>
</g>
</g>
<!-- Node21&#45;&gt;Node15 -->
<g id="edge44_Node000021_Node000015" class="edge">
<title>Node21&#45;&gt;Node15</title>
<g id="a_edge44_Node000021_Node000015"><a xlink:title=" ">
<path fill="none" stroke="#63b8ff" d="M583.61,-219.75C580.75,-212.18 576.55,-201.05 573.08,-191.84"/>
<polygon fill="#63b8ff" stroke="#63b8ff" points="570.15,-184.09 576.34,-190.3 571.56,-187.83 572.98,-191.57 572.98,-191.57 572.98,-191.57 571.56,-187.83 569.61,-192.84 570.15,-184.09 570.15,-184.09"/>
</a>
</g>
</g>
<!-- Node21&#45;&gt;Node16 -->
<g id="edge45_Node000021_Node000016" class="edge">
<title>Node21&#45;&gt;Node16</title>
<g id="a_edge45_Node000021_Node000016"><a xlink:title=" ">
<path fill="none" stroke="#63b8ff" d="M602.17,-219.98C617.59,-211.38 641.6,-197.99 659.24,-188.15"/>
<polygon fill="#63b8ff" stroke="#63b8ff" points="666.37,-184.17 661.14,-191.21 662.88,-186.12 659.38,-188.07 659.38,-188.07 659.38,-188.07 662.88,-186.12 657.63,-184.92 666.37,-184.17 666.37,-184.17"/>
</a>
</g>
</g>
</g>
</svg>
