<?xml version="1.0" encoding="UTF-8" standalone="no"?>
<!DOCTYPE svg PUBLIC "-//W3C//DTD SVG 1.1//EN"
 "http://www.w3.org/Graphics/SVG/1.1/DTD/svg11.dtd">
<!-- Generated by graphviz version 2.43.0 (0)
 -->
<!-- Title: pokitdevice.cpp Pages: 1 -->
<svg width="1028pt" height="252pt"
 viewBox="0.00 0.00 1028.00 252.00" xmlns="http://www.w3.org/2000/svg" xmlns:xlink="http://www.w3.org/1999/xlink">
<g id="graph0" class="graph" transform="scale(1 1) rotate(0) translate(4 248)">
<title>pokitdevice.cpp</title>
<!-- Node1 -->
<g id="node1" class="node">
<title>Node1</title>
<g id="a_node1"><a xlink:title="Defines the PokitDevice and PokitDevicePrivate classes.">
<polygon fill="#bfbfbf" stroke="black" points="506,-224.5 506,-243.5 600,-243.5 600,-224.5 506,-224.5"/>
<text text-anchor="middle" x="553" y="-231.5" font-family="Helvetica,sans-Serif" font-size="10.00">pokitdevice.cpp</text>
</a>
</g>
</g>
<!-- Node2 -->
<g id="node2" class="node">
<title>Node2</title>
<g id="a_node2"><a xlink:href="pokitdevice_8h.html" target="_top" xlink:title="Declares the PokitDevice class.">
<polygon fill="none" stroke="black" points="0,-112.5 0,-131.5 120,-131.5 120,-112.5 0,-112.5"/>
<text text-anchor="middle" x="60" y="-119.5" font-family="Helvetica,sans-Serif" font-size="10.00">qtpokit/pokitdevice.h</text>
</a>
</g>
</g>
<!-- Node1&#45;&gt;Node2 -->
<g id="edge1" class="edge">
<title>Node1&#45;&gt;Node2</title>
<path fill="none" stroke="midnightblue" d="M505.93,-232.29C387.44,-230.01 84.15,-220.99 54,-188 42.68,-175.61 46.46,-155.81 51.66,-141.32"/>
<polygon fill="midnightblue" stroke="midnightblue" points="54.98,-142.46 55.5,-131.88 48.49,-139.82 54.98,-142.46"/>
</g>
<!-- Node6 -->
<g id="node6" class="node">
<title>Node6</title>
<g id="a_node6"><a xlink:href="calibrationservice_8h.html" target="_top" xlink:title="Declares the CalibrationService class.">
<polygon fill="none" stroke="black" points="395,-168.5 395,-187.5 545,-187.5 545,-168.5 395,-168.5"/>
<text text-anchor="middle" x="470" y="-175.5" font-family="Helvetica,sans-Serif" font-size="10.00">qtpokit/calibrationservice.h</text>
</a>
</g>
</g>
<!-- Node1&#45;&gt;Node6 -->
<g id="edge5" class="edge">
<title>Node1&#45;&gt;Node6</title>
<path fill="none" stroke="midnightblue" d="M539.66,-224.32C526.84,-215.98 507.22,-203.21 492.06,-193.35"/>
<polygon fill="midnightblue" stroke="midnightblue" points="493.59,-190.17 483.3,-187.65 489.78,-196.04 493.59,-190.17"/>
</g>
<!-- Node12 -->
<g id="node12" class="node">
<title>Node12</title>
<g id="a_node12"><a xlink:href="deviceinfoservice_8h.html" target="_top" xlink:title="Declares the DeviceInfoService class.">
<polygon fill="none" stroke="black" points="562.5,-168.5 562.5,-187.5 711.5,-187.5 711.5,-168.5 562.5,-168.5"/>
<text text-anchor="middle" x="637" y="-175.5" font-family="Helvetica,sans-Serif" font-size="10.00">qtpokit/deviceinfoservice.h</text>
</a>
</g>
</g>
<!-- Node1&#45;&gt;Node12 -->
<g id="edge13" class="edge">
<title>Node1&#45;&gt;Node12</title>
<path fill="none" stroke="midnightblue" d="M566.5,-224.32C579.6,-215.9 599.71,-202.97 615.11,-193.07"/>
<polygon fill="midnightblue" stroke="midnightblue" points="617.02,-196.01 623.54,-187.65 613.23,-190.12 617.02,-196.01"/>
</g>
<!-- Node13 -->
<g id="node13" class="node">
<title>Node13</title>
<g id="a_node13"><a xlink:href="genericaccessservice_8h.html" target="_top" xlink:title="Declares the GenericAccessService class.">
<polygon fill="none" stroke="black" points="63.5,-168.5 63.5,-187.5 230.5,-187.5 230.5,-168.5 63.5,-168.5"/>
<text text-anchor="middle" x="147" y="-175.5" font-family="Helvetica,sans-Serif" font-size="10.00">qtpokit/genericaccessservice.h</text>
</a>
</g>
</g>
<!-- Node1&#45;&gt;Node13 -->
<g id="edge18" class="edge">
<title>Node1&#45;&gt;Node13</title>
<path fill="none" stroke="midnightblue" d="M505.63,-226.7C435.65,-217.39 304.01,-199.88 221.16,-188.86"/>
<polygon fill="midnightblue" stroke="midnightblue" points="221.43,-185.37 211.06,-187.52 220.51,-192.31 221.43,-185.37"/>
</g>
<!-- Node14 -->
<g id="node14" class="node">
<title>Node14</title>
<g id="a_node14"><a xlink:href="statusservice_8h.html" target="_top" xlink:title="Declares the StatusService class.">
<polygon fill="none" stroke="black" points="249,-168.5 249,-187.5 377,-187.5 377,-168.5 249,-168.5"/>
<text text-anchor="middle" x="313" y="-175.5" font-family="Helvetica,sans-Serif" font-size="10.00">qtpokit/statusservice.h</text>
</a>
</g>
</g>
<!-- Node1&#45;&gt;Node14 -->
<g id="edge23" class="edge">
<title>Node1&#45;&gt;Node14</title>
<path fill="none" stroke="midnightblue" d="M514.97,-224.44C473.19,-215.04 406.02,-199.93 360.73,-189.74"/>
<polygon fill="midnightblue" stroke="midnightblue" points="361.38,-186.3 350.85,-187.52 359.84,-193.13 361.38,-186.3"/>
</g>
<!-- Node15 -->
<g id="node15" class="node">
<title>Node15</title>
<g id="a_node15"><a xlink:title=" ">
<polygon fill="none" stroke="#bfbfbf" points="730,-168.5 730,-187.5 824,-187.5 824,-168.5 730,-168.5"/>
<text text-anchor="middle" x="777" y="-175.5" font-family="Helvetica,sans-Serif" font-size="10.00">pokitdevice_p.h</text>
</a>
</g>
</g>
<!-- Node1&#45;&gt;Node15 -->
<g id="edge28" class="edge">
<title>Node1&#45;&gt;Node15</title>
<path fill="none" stroke="midnightblue" d="M588.49,-224.44C627.32,-215.08 689.66,-200.06 731.92,-189.87"/>
<polygon fill="midnightblue" stroke="midnightblue" points="732.77,-193.26 741.67,-187.52 731.13,-186.46 732.77,-193.26"/>
</g>
<!-- Node16 -->
<g id="node16" class="node">
<title>Node16</title>
<g id="a_node16"><a xlink:title=" ">
<polygon fill="none" stroke="#bfbfbf" points="842.5,-168.5 842.5,-187.5 915.5,-187.5 915.5,-168.5 842.5,-168.5"/>
<text text-anchor="middle" x="879" y="-175.5" font-family="Helvetica,sans-Serif" font-size="10.00">logging_p.h</text>
</a>
</g>
</g>
<!-- Node1&#45;&gt;Node16 -->
<g id="edge29" class="edge">
<title>Node1&#45;&gt;Node16</title>
<path fill="none" stroke="midnightblue" d="M600.15,-225.92C653.85,-217.75 744.48,-203.62 832.48,-188.04"/>
<polygon fill="midnightblue" stroke="midnightblue" points="833.13,-191.48 842.36,-186.28 831.9,-184.59 833.13,-191.48"/>
</g>
<!-- Node17 -->
<g id="node17" class="node">
<title>Node17</title>
<g id="a_node17"><a xlink:title=" ">
<polygon fill="none" stroke="#bfbfbf" points="934,-168.5 934,-187.5 1020,-187.5 1020,-168.5 934,-168.5"/>
<text text-anchor="middle" x="977" y="-175.5" font-family="Helvetica,sans-Serif" font-size="10.00">QMutexLocker</text>
</a>
</g>
</g>
<!-- Node1&#45;&gt;Node17 -->
<g id="edge30" class="edge">
<title>Node1&#45;&gt;Node17</title>
<path fill="none" stroke="midnightblue" d="M600.08,-228.08C668.92,-220.72 801.29,-205.92 923.95,-188.09"/>
<polygon fill="midnightblue" stroke="midnightblue" points="924.51,-191.55 933.9,-186.63 923.5,-184.62 924.51,-191.55"/>
</g>
<!-- Node3 -->
<g id="node3" class="node">
<title>Node3</title>
<g id="a_node3"><a xlink:href="qtpokit__global_8h.html" target="_top" xlink:title="Global QtPokit library macros.">
<polygon fill="none" stroke="black" points="318.5,-56.5 318.5,-75.5 413.5,-75.5 413.5,-56.5 318.5,-56.5"/>
<text text-anchor="middle" x="366" y="-63.5" font-family="Helvetica,sans-Serif" font-size="10.00">qtpokit_global.h</text>
</a>
</g>
</g>
<!-- Node2&#45;&gt;Node3 -->
<g id="edge2" class="edge">
<title>Node2&#45;&gt;Node3</title>
<path fill="none" stroke="midnightblue" d="M108.49,-112.44C162.78,-102.86 250.7,-87.35 308.44,-77.16"/>
<polygon fill="midnightblue" stroke="midnightblue" points="309.26,-80.57 318.5,-75.38 308.04,-73.67 309.26,-80.57"/>
</g>
<!-- Node5 -->
<g id="node5" class="node">
<title>Node5</title>
<g id="a_node5"><a xlink:title=" ">
<polygon fill="none" stroke="#bfbfbf" points="103,-56.5 103,-75.5 159,-75.5 159,-56.5 103,-56.5"/>
<text text-anchor="middle" x="131" y="-63.5" font-family="Helvetica,sans-Serif" font-size="10.00">QObject</text>
</a>
</g>
</g>
<!-- Node2&#45;&gt;Node5 -->
<g id="edge4" class="edge">
<title>Node2&#45;&gt;Node5</title>
<path fill="none" stroke="midnightblue" d="M71.41,-112.32C82.11,-104.18 98.34,-91.84 111.16,-82.09"/>
<polygon fill="midnightblue" stroke="midnightblue" points="113.54,-84.67 119.39,-75.83 109.31,-79.1 113.54,-84.67"/>
</g>
<!-- Node4 -->
<g id="node4" class="node">
<title>Node4</title>
<g id="a_node4"><a xlink:title=" ">
<polygon fill="none" stroke="#bfbfbf" points="336.5,-0.5 336.5,-19.5 395.5,-19.5 395.5,-0.5 336.5,-0.5"/>
<text text-anchor="middle" x="366" y="-7.5" font-family="Helvetica,sans-Serif" font-size="10.00">QtGlobal</text>
</a>
</g>
</g>
<!-- Node3&#45;&gt;Node4 -->
<g id="edge3" class="edge">
<title>Node3&#45;&gt;Node4</title>
<path fill="none" stroke="midnightblue" d="M366,-56.08C366,-49.01 366,-38.86 366,-29.99"/>
<polygon fill="midnightblue" stroke="midnightblue" points="369.5,-29.75 366,-19.75 362.5,-29.75 369.5,-29.75"/>
</g>
<!-- Node7 -->
<g id="node7" class="node">
<title>Node7</title>
<g id="a_node7"><a xlink:href="abstractpokitservice_8h.html" target="_top" xlink:title="Declares the AbstractPokitService class.">
<polygon fill="none" stroke="black" points="495.5,-112.5 495.5,-131.5 620.5,-131.5 620.5,-112.5 495.5,-112.5"/>
<text text-anchor="middle" x="558" y="-119.5" font-family="Helvetica,sans-Serif" font-size="10.00">abstractpokitservice.h</text>
</a>
</g>
</g>
<!-- Node6&#45;&gt;Node7 -->
<g id="edge6" class="edge">
<title>Node6&#45;&gt;Node7</title>
<path fill="none" stroke="midnightblue" d="M484.14,-168.32C497.87,-159.9 518.94,-146.97 535.06,-137.07"/>
<polygon fill="midnightblue" stroke="midnightblue" points="537.2,-139.87 543.9,-131.65 533.54,-133.9 537.2,-139.87"/>
</g>
<!-- Node9 -->
<g id="node9" class="node">
<title>Node9</title>
<g id="a_node9"><a xlink:title=" ">
<polygon fill="none" stroke="#bfbfbf" points="138,-112.5 138,-131.5 248,-131.5 248,-112.5 138,-112.5"/>
<text text-anchor="middle" x="193" y="-119.5" font-family="Helvetica,sans-Serif" font-size="10.00">QBluetoothAddress</text>
</a>
</g>
</g>
<!-- Node6&#45;&gt;Node9 -->
<g id="edge10" class="edge">
<title>Node6&#45;&gt;Node9</title>
<path fill="none" stroke="midnightblue" d="M426.11,-168.44C377.48,-158.96 299.05,-143.67 246.78,-133.48"/>
<polygon fill="midnightblue" stroke="midnightblue" points="247.17,-129.99 236.69,-131.52 245.83,-136.87 247.17,-129.99"/>
</g>
<!-- Node10 -->
<g id="node10" class="node">
<title>Node10</title>
<g id="a_node10"><a xlink:title=" ">
<polygon fill="none" stroke="#bfbfbf" points="266,-112.5 266,-131.5 360,-131.5 360,-112.5 266,-112.5"/>
<text text-anchor="middle" x="313" y="-119.5" font-family="Helvetica,sans-Serif" font-size="10.00">QBluetoothUuid</text>
</a>
</g>
</g>
<!-- Node6&#45;&gt;Node10 -->
<g id="edge11" class="edge">
<title>Node6&#45;&gt;Node10</title>
<path fill="none" stroke="midnightblue" d="M445.12,-168.44C418.71,-159.36 376.78,-144.94 347.26,-134.78"/>
<polygon fill="midnightblue" stroke="midnightblue" points="348.36,-131.46 337.76,-131.52 346.08,-138.08 348.36,-131.46"/>
</g>
<!-- Node11 -->
<g id="node11" class="node">
<title>Node11</title>
<g id="a_node11"><a xlink:title=" ">
<polygon fill="none" stroke="#bfbfbf" points="378.5,-112.5 378.5,-131.5 477.5,-131.5 477.5,-112.5 378.5,-112.5"/>
<text text-anchor="middle" x="428" y="-119.5" font-family="Helvetica,sans-Serif" font-size="10.00">QVersionNumber</text>
</a>
</g>
</g>
<!-- Node6&#45;&gt;Node11 -->
<g id="edge12" class="edge">
<title>Node6&#45;&gt;Node11</title>
<path fill="none" stroke="midnightblue" d="M463.06,-168.08C457.07,-160.38 448.25,-149.03 440.95,-139.65"/>
<polygon fill="midnightblue" stroke="midnightblue" points="443.71,-137.5 434.81,-131.75 438.18,-141.79 443.71,-137.5"/>
</g>
<!-- Node7&#45;&gt;Node3 -->
<g id="edge7" class="edge">
<title>Node7&#45;&gt;Node3</title>
<path fill="none" stroke="midnightblue" d="M527.58,-112.44C494.72,-103.2 442.22,-88.44 406.03,-78.26"/>
<polygon fill="midnightblue" stroke="midnightblue" points="406.85,-74.85 396.28,-75.52 404.96,-81.59 406.85,-74.85"/>
</g>
<!-- Node7&#45;&gt;Node5 -->
<g id="edge9" class="edge">
<title>Node7&#45;&gt;Node5</title>
<path fill="none" stroke="midnightblue" d="M495.28,-113.05C492.48,-112.69 489.71,-112.34 487,-112 371.37,-97.36 234.62,-80.09 169.37,-71.85"/>
<polygon fill="midnightblue" stroke="midnightblue" points="169.51,-68.34 159.15,-70.56 168.63,-75.28 169.51,-68.34"/>
</g>
<!-- Node8 -->
<g id="node8" class="node">
<title>Node8</title>
<g id="a_node8"><a xlink:title=" ">
<polygon fill="none" stroke="#bfbfbf" points="501.5,-56.5 501.5,-75.5 614.5,-75.5 614.5,-56.5 501.5,-56.5"/>
<text text-anchor="middle" x="558" y="-63.5" font-family="Helvetica,sans-Serif" font-size="10.00">QLowEnergyService</text>
</a>
</g>
</g>
<!-- Node7&#45;&gt;Node8 -->
<g id="edge8" class="edge">
<title>Node7&#45;&gt;Node8</title>
<path fill="none" stroke="midnightblue" d="M558,-112.08C558,-105.01 558,-94.86 558,-85.99"/>
<polygon fill="midnightblue" stroke="midnightblue" points="561.5,-85.75 558,-75.75 554.5,-85.75 561.5,-85.75"/>
</g>
<!-- Node12&#45;&gt;Node7 -->
<g id="edge14" class="edge">
<title>Node12&#45;&gt;Node7</title>
<path fill="none" stroke="midnightblue" d="M624.31,-168.32C612.1,-159.98 593.42,-147.21 579,-137.35"/>
<polygon fill="midnightblue" stroke="midnightblue" points="580.89,-134.41 570.66,-131.65 576.94,-140.19 580.89,-134.41"/>
</g>
<!-- Node12&#45;&gt;Node9 -->
<g id="edge15" class="edge">
<title>Node12&#45;&gt;Node9</title>
<path fill="none" stroke="midnightblue" d="M562.31,-168.64C487.89,-160.2 370.06,-146.54 258.25,-132.14"/>
<polygon fill="midnightblue" stroke="midnightblue" points="258.51,-128.64 248.15,-130.83 257.62,-135.59 258.51,-128.64"/>
</g>
<!-- Node12&#45;&gt;Node10 -->
<g id="edge16" class="edge">
<title>Node12&#45;&gt;Node10</title>
<path fill="none" stroke="midnightblue" d="M585.66,-168.44C527.05,-158.67 431.41,-142.73 370.38,-132.56"/>
<polygon fill="midnightblue" stroke="midnightblue" points="370.59,-129.05 360.15,-130.86 369.44,-135.95 370.59,-129.05"/>
</g>
<!-- Node12&#45;&gt;Node11 -->
<g id="edge17" class="edge">
<title>Node12&#45;&gt;Node11</title>
<path fill="none" stroke="midnightblue" d="M603.88,-168.44C567.88,-159.14 510.23,-144.25 470.81,-134.06"/>
<polygon fill="midnightblue" stroke="midnightblue" points="471.52,-130.63 460.96,-131.52 469.77,-137.41 471.52,-130.63"/>
</g>
<!-- Node13&#45;&gt;Node7 -->
<g id="edge19" class="edge">
<title>Node13&#45;&gt;Node7</title>
<path fill="none" stroke="midnightblue" d="M212.12,-168.44C286.43,-158.68 407.63,-142.76 485.05,-132.59"/>
<polygon fill="midnightblue" stroke="midnightblue" points="485.74,-136.02 495.2,-131.25 484.83,-129.08 485.74,-136.02"/>
</g>
<!-- Node13&#45;&gt;Node9 -->
<g id="edge20" class="edge">
<title>Node13&#45;&gt;Node9</title>
<path fill="none" stroke="midnightblue" d="M154.6,-168.08C161.23,-160.3 171.02,-148.8 179.06,-139.37"/>
<polygon fill="midnightblue" stroke="midnightblue" points="181.73,-141.63 185.55,-131.75 176.4,-137.09 181.73,-141.63"/>
</g>
<!-- Node13&#45;&gt;Node10 -->
<g id="edge21" class="edge">
<title>Node13&#45;&gt;Node10</title>
<path fill="none" stroke="midnightblue" d="M173.3,-168.44C201.35,-159.32 245.94,-144.81 277.18,-134.65"/>
<polygon fill="midnightblue" stroke="midnightblue" points="278.39,-137.94 286.82,-131.52 276.23,-131.28 278.39,-137.94"/>
</g>
<!-- Node13&#45;&gt;Node11 -->
<g id="edge22" class="edge">
<title>Node13&#45;&gt;Node11</title>
<path fill="none" stroke="midnightblue" d="M191.53,-168.44C240.96,-158.94 320.75,-143.61 373.78,-133.42"/>
<polygon fill="midnightblue" stroke="midnightblue" points="374.52,-136.84 383.68,-131.52 373.2,-129.97 374.52,-136.84"/>
</g>
<!-- Node14&#45;&gt;Node7 -->
<g id="edge24" class="edge">
<title>Node14&#45;&gt;Node7</title>
<path fill="none" stroke="midnightblue" d="M351.82,-168.44C394.56,-159.02 463.33,-143.87 509.57,-133.68"/>
<polygon fill="midnightblue" stroke="midnightblue" points="510.35,-137.09 519.36,-131.52 508.84,-130.25 510.35,-137.09"/>
</g>
<!-- Node14&#45;&gt;Node9 -->
<g id="edge25" class="edge">
<title>Node14&#45;&gt;Node9</title>
<path fill="none" stroke="midnightblue" d="M293.99,-168.44C274.41,-159.64 243.69,-145.81 221.27,-135.72"/>
<polygon fill="midnightblue" stroke="midnightblue" points="222.48,-132.43 211.93,-131.52 219.61,-138.81 222.48,-132.43"/>
</g>
<!-- Node14&#45;&gt;Node10 -->
<g id="edge26" class="edge">
<title>Node14&#45;&gt;Node10</title>
<path fill="none" stroke="midnightblue" d="M313,-168.08C313,-161.01 313,-150.86 313,-141.99"/>
<polygon fill="midnightblue" stroke="midnightblue" points="316.5,-141.75 313,-131.75 309.5,-141.75 316.5,-141.75"/>
</g>
<!-- Node14&#45;&gt;Node11 -->
<g id="edge27" class="edge">
<title>Node14&#45;&gt;Node11</title>
<path fill="none" stroke="midnightblue" d="M331.22,-168.44C349.9,-159.68 379.16,-145.94 400.62,-135.86"/>
<polygon fill="midnightblue" stroke="midnightblue" points="402.3,-138.93 409.86,-131.52 399.32,-132.6 402.3,-138.93"/>
</g>
</g>
</svg>
