<?xml version="1.0" encoding="UTF-8" standalone="no"?>
<!DOCTYPE svg PUBLIC "-//W3C//DTD SVG 1.1//EN"
 "http://www.w3.org/Graphics/SVG/1.1/DTD/svg11.dtd">
<!-- Generated by graphviz version 2.43.0 (0)
 -->
<!-- Title: qtpokit_global.h Pages: 1 -->
<svg width="1410pt" height="247pt"
 viewBox="0.00 0.00 1409.85 247.00" xmlns="http://www.w3.org/2000/svg" xmlns:xlink="http://www.w3.org/1999/xlink">
<g id="graph0" class="graph" transform="scale(1 1) rotate(0) translate(4 243)">
<title>qtpokit_global.h</title>
<!-- Node1 -->
<g id="Node000001" class="node">
<title>Node1</title>
<g id="a_Node000001"><a xlink:title="Global QtPokit library macros.">
<polygon fill="#999999" stroke="#666666" points="972.85,-239 877.85,-239 877.85,-220 972.85,-220 972.85,-239"/>
<text text-anchor="middle" x="925.35" y="-227" font-family="Helvetica,sans-Serif" font-size="10.00">qtpokit_global.h</text>
</a>
</g>
</g>
<!-- Node2 -->
<g id="Node000002" class="node">
<title>Node2</title>
<g id="a_Node000002"><a xlink:href="abstractpokitservice_8h.html" target="_top" xlink:title="Declares the AbstractPokitService class.">
<polygon fill="white" stroke="#666666" points="685.85,-129 560.85,-129 560.85,-110 685.85,-110 685.85,-129"/>
<text text-anchor="middle" x="623.35" y="-117" font-family="Helvetica,sans-Serif" font-size="10.00">abstractpokitservice.h</text>
</a>
</g>
</g>
<!-- Node1&#45;&gt;Node2 -->
<g id="edge1_Node000001_Node000002" class="edge">
<title>Node1&#45;&gt;Node2</title>
<g id="a_edge1_Node000001_Node000002"><a xlink:title=" ">
<path fill="none" stroke="#63b8ff" d="M893.66,-217.17C832.93,-195.45 701.38,-148.4 647.31,-129.07"/>
<polygon fill="#63b8ff" stroke="#63b8ff" points="901.4,-219.94 892.66,-220.63 897.64,-218.59 893.87,-217.24 893.87,-217.24 893.87,-217.24 897.64,-218.59 895.08,-213.85 901.4,-219.94 901.4,-219.94"/>
</a>
</g>
</g>
<!-- Node19 -->
<g id="Node000019" class="node">
<title>Node19</title>
<g id="a_Node000019"><a xlink:href="pokitdevice_8h.html" target="_top" xlink:title="Declares the PokitDevice class.">
<polygon fill="white" stroke="#666666" points="124.85,-129 41.85,-129 41.85,-110 124.85,-110 124.85,-129"/>
<text text-anchor="middle" x="83.35" y="-117" font-family="Helvetica,sans-Serif" font-size="10.00">pokitdevice.h</text>
</a>
</g>
</g>
<!-- Node1&#45;&gt;Node19 -->
<g id="edge24_Node000001_Node000019" class="edge">
<title>Node1&#45;&gt;Node19</title>
<g id="a_edge24_Node000001_Node000019"><a xlink:title=" ">
<path fill="none" stroke="#63b8ff" d="M869.47,-221.33C711.44,-201.06 263.8,-143.65 124.95,-125.84"/>
<polygon fill="#63b8ff" stroke="#63b8ff" points="877.67,-222.38 869.28,-224.94 873.7,-221.88 869.74,-221.37 869.74,-221.37 869.74,-221.37 873.7,-221.88 870.19,-217.8 877.67,-222.38 877.67,-222.38"/>
</a>
</g>
</g>
<!-- Node20 -->
<g id="Node000020" class="node">
<title>Node20</title>
<g id="a_Node000020"><a xlink:href="pokitdiscoveryagent_8h.html" target="_top" xlink:title="Declares the PokitDiscoveryAgent class.">
<polygon fill="white" stroke="#666666" points="1051.85,-184 926.85,-184 926.85,-165 1051.85,-165 1051.85,-184"/>
<text text-anchor="middle" x="989.35" y="-172" font-family="Helvetica,sans-Serif" font-size="10.00">pokitdiscoveryagent.h</text>
</a>
</g>
</g>
<!-- Node1&#45;&gt;Node20 -->
<g id="edge27_Node000001_Node000020" class="edge">
<title>Node1&#45;&gt;Node20</title>
<g id="a_edge27_Node000001_Node000020"><a xlink:title=" ">
<path fill="none" stroke="#63b8ff" d="M942.02,-214.7C953.68,-205.04 968.89,-192.44 978.88,-184.17"/>
<polygon fill="#63b8ff" stroke="#63b8ff" points="935.64,-219.98 939.5,-212.11 938.72,-217.43 941.8,-214.88 941.8,-214.88 941.8,-214.88 938.72,-217.43 944.09,-217.65 935.64,-219.98 935.64,-219.98"/>
</a>
</g>
</g>
<!-- Node21 -->
<g id="Node000021" class="node">
<title>Node21</title>
<g id="a_Node000021"><a xlink:href="pokitmeter_8h.html" target="_top" xlink:title="Declares the PokitMeter namespace.">
<polygon fill="white" stroke="#666666" points="1175.85,-74 1096.85,-74 1096.85,-55 1175.85,-55 1175.85,-74"/>
<text text-anchor="middle" x="1136.35" y="-62" font-family="Helvetica,sans-Serif" font-size="10.00">pokitmeter.h</text>
</a>
</g>
</g>
<!-- Node1&#45;&gt;Node21 -->
<g id="edge29_Node000001_Node000021" class="edge">
<title>Node1&#45;&gt;Node21</title>
<g id="a_edge29_Node000001_Node000021"><a xlink:title=" ">
<path fill="none" stroke="#63b8ff" d="M980.96,-219.39C1007.38,-212.92 1038.17,-202.05 1061.35,-184 1100.74,-153.34 1125.14,-95.8 1133.3,-74.09"/>
<polygon fill="#63b8ff" stroke="#63b8ff" points="972.92,-221.26 979.89,-215.94 976.81,-220.35 980.71,-219.45 980.71,-219.45 980.71,-219.45 976.81,-220.35 981.52,-222.95 972.92,-221.26 972.92,-221.26"/>
</a>
</g>
</g>
<!-- Node23 -->
<g id="Node000023" class="node">
<title>Node23</title>
<g id="a_Node000023"><a xlink:href="pokitpro_8h.html" target="_top" xlink:title="Declares the PokitPro namespace.">
<polygon fill="white" stroke="#666666" points="1268.35,-74 1202.35,-74 1202.35,-55 1268.35,-55 1268.35,-74"/>
<text text-anchor="middle" x="1235.35" y="-62" font-family="Helvetica,sans-Serif" font-size="10.00">pokitpro.h</text>
</a>
</g>
</g>
<!-- Node1&#45;&gt;Node23 -->
<g id="edge33_Node000001_Node000023" class="edge">
<title>Node1&#45;&gt;Node23</title>
<g id="a_edge33_Node000001_Node000023"><a xlink:title=" ">
<path fill="none" stroke="#63b8ff" d="M980.89,-218.56C1012.36,-211.58 1051.83,-200.49 1084.35,-184 1145.29,-153.11 1205.46,-95.71 1227.02,-74.06"/>
<polygon fill="#63b8ff" stroke="#63b8ff" points="973.07,-220.25 980.13,-215.04 976.98,-219.41 980.89,-218.56 980.89,-218.56 980.89,-218.56 976.98,-219.41 981.65,-222.08 973.07,-220.25 973.07,-220.25"/>
</a>
</g>
</g>
<!-- Node25 -->
<g id="Node000025" class="node">
<title>Node25</title>
<g id="a_Node000025"><a xlink:href="pokitproducts_8h.html" target="_top" xlink:title="Declares the PokitProduct enumeration, and related helper functions.">
<polygon fill="white" stroke="#666666" points="908.35,-184 816.35,-184 816.35,-165 908.35,-165 908.35,-184"/>
<text text-anchor="middle" x="862.35" y="-172" font-family="Helvetica,sans-Serif" font-size="10.00">pokitproducts.h</text>
</a>
</g>
</g>
<!-- Node1&#45;&gt;Node25 -->
<g id="edge37_Node000001_Node000025" class="edge">
<title>Node1&#45;&gt;Node25</title>
<g id="a_edge37_Node000001_Node000025"><a xlink:title=" ">
<path fill="none" stroke="#63b8ff" d="M908.94,-214.7C897.47,-205.04 882.49,-192.44 872.66,-184.17"/>
<polygon fill="#63b8ff" stroke="#63b8ff" points="915.23,-219.98 906.79,-217.59 912.17,-217.41 909.11,-214.83 909.11,-214.83 909.11,-214.83 912.17,-217.41 911.43,-212.08 915.23,-219.98 915.23,-219.98"/>
</a>
</g>
</g>
<!-- Node3 -->
<g id="Node000003" class="node">
<title>Node3</title>
<g id="a_Node000003"><a xlink:href="abstractpokitservice_8cpp.html" target="_top" xlink:title="Defines the AbstractPokitService and AbstractPokitServicePrivate classes.">
<polygon fill="white" stroke="#666666" points="151.85,-74 14.85,-74 14.85,-55 151.85,-55 151.85,-74"/>
<text text-anchor="middle" x="83.35" y="-62" font-family="Helvetica,sans-Serif" font-size="10.00">abstractpokitservice.cpp</text>
</a>
</g>
</g>
<!-- Node2&#45;&gt;Node3 -->
<g id="edge2_Node000002_Node000003" class="edge">
<title>Node2&#45;&gt;Node3</title>
<g id="a_edge2_Node000002_Node000003"><a xlink:title=" ">
<path fill="none" stroke="#63b8ff" d="M552.54,-111.96C461.86,-103.51 299.85,-88.22 161.35,-74 158.37,-73.69 155.33,-73.38 152.25,-73.06"/>
<polygon fill="#63b8ff" stroke="#63b8ff" points="560.56,-112.7 552.26,-115.55 556.57,-112.33 552.59,-111.96 552.59,-111.96 552.59,-111.96 556.57,-112.33 552.93,-108.38 560.56,-112.7 560.56,-112.7"/>
</a>
</g>
</g>
<!-- Node4 -->
<g id="Node000004" class="node">
<title>Node4</title>
<g id="a_Node000004"><a xlink:href="calibrationservice_8h.html" target="_top" xlink:title="Declares the CalibrationService class.">
<polygon fill="white" stroke="#666666" points="417.85,-74 304.85,-74 304.85,-55 417.85,-55 417.85,-74"/>
<text text-anchor="middle" x="361.35" y="-62" font-family="Helvetica,sans-Serif" font-size="10.00">calibrationservice.h</text>
</a>
</g>
</g>
<!-- Node2&#45;&gt;Node4 -->
<g id="edge3_Node000002_Node000004" class="edge">
<title>Node2&#45;&gt;Node4</title>
<g id="a_edge3_Node000002_Node000004"><a xlink:title=" ">
<path fill="none" stroke="#63b8ff" d="M573.3,-108.37C524.18,-98.44 450.09,-83.45 403.78,-74.08"/>
<polygon fill="#63b8ff" stroke="#63b8ff" points="581.26,-109.98 572.7,-111.93 577.34,-109.19 573.42,-108.4 573.42,-108.4 573.42,-108.4 577.34,-109.19 574.13,-104.87 581.26,-109.98 581.26,-109.98"/>
</a>
</g>
</g>
<!-- Node7 -->
<g id="Node000007" class="node">
<title>Node7</title>
<g id="a_Node000007"><a xlink:href="dataloggerservice_8h.html" target="_top" xlink:title="Declares the DataLoggerService class.">
<polygon fill="white" stroke="#666666" points="679.85,-74 566.85,-74 566.85,-55 679.85,-55 679.85,-74"/>
<text text-anchor="middle" x="623.35" y="-62" font-family="Helvetica,sans-Serif" font-size="10.00">dataloggerservice.h</text>
</a>
</g>
</g>
<!-- Node2&#45;&gt;Node7 -->
<g id="edge6_Node000002_Node000007" class="edge">
<title>Node2&#45;&gt;Node7</title>
<g id="a_edge6_Node000002_Node000007"><a xlink:title=" ">
<path fill="none" stroke="#63b8ff" d="M623.35,-101.67C623.35,-92.5 623.35,-81.52 623.35,-74.09"/>
<polygon fill="#63b8ff" stroke="#63b8ff" points="623.35,-109.75 619.75,-101.75 623.35,-105.75 623.35,-101.75 623.35,-101.75 623.35,-101.75 623.35,-105.75 626.95,-101.75 623.35,-109.75 623.35,-109.75"/>
</a>
</g>
</g>
<!-- Node9 -->
<g id="Node000009" class="node">
<title>Node9</title>
<g id="a_Node000009"><a xlink:href="deviceinfoservice_8h.html" target="_top" xlink:title="Declares the DeviceInfoService class.">
<polygon fill="white" stroke="#666666" points="548.35,-74 436.35,-74 436.35,-55 548.35,-55 548.35,-74"/>
<text text-anchor="middle" x="492.35" y="-62" font-family="Helvetica,sans-Serif" font-size="10.00">deviceinfoservice.h</text>
</a>
</g>
</g>
<!-- Node2&#45;&gt;Node9 -->
<g id="edge9_Node000002_Node000009" class="edge">
<title>Node2&#45;&gt;Node9</title>
<g id="a_edge9_Node000002_Node000009"><a xlink:title=" ">
<path fill="none" stroke="#63b8ff" d="M594.77,-106.94C570.38,-97.07 535.86,-83.1 513.78,-74.17"/>
<polygon fill="#63b8ff" stroke="#63b8ff" points="602.31,-109.98 593.54,-110.32 598.6,-108.48 594.89,-106.98 594.89,-106.98 594.89,-106.98 598.6,-108.48 596.24,-103.65 602.31,-109.98 602.31,-109.98"/>
</a>
</g>
</g>
<!-- Node11 -->
<g id="Node000011" class="node">
<title>Node11</title>
<g id="a_Node000011"><a xlink:href="dsoservice_8h.html" target="_top" xlink:title="Declares the DsoService class.">
<polygon fill="white" stroke="#666666" points="885.35,-74 807.35,-74 807.35,-55 885.35,-55 885.35,-74"/>
<text text-anchor="middle" x="846.35" y="-62" font-family="Helvetica,sans-Serif" font-size="10.00">dsoservice.h</text>
</a>
</g>
</g>
<!-- Node2&#45;&gt;Node11 -->
<g id="edge12_Node000002_Node000011" class="edge">
<title>Node2&#45;&gt;Node11</title>
<g id="a_edge12_Node000002_Node000011"><a xlink:title=" ">
<path fill="none" stroke="#63b8ff" d="M667,-108.13C708.81,-98.19 771.15,-83.37 810.24,-74.08"/>
<polygon fill="#63b8ff" stroke="#63b8ff" points="659.18,-109.98 666.13,-104.63 663.07,-109.06 666.96,-108.13 666.96,-108.13 666.96,-108.13 663.07,-109.06 667.8,-111.64 659.18,-109.98 659.18,-109.98"/>
</a>
</g>
</g>
<!-- Node13 -->
<g id="Node000013" class="node">
<title>Node13</title>
<g id="a_Node000013"><a xlink:href="multimeterservice_8h.html" target="_top" xlink:title="Declares the MultimeterService class.">
<polygon fill="white" stroke="#666666" points="286.35,-74 170.35,-74 170.35,-55 286.35,-55 286.35,-74"/>
<text text-anchor="middle" x="228.35" y="-62" font-family="Helvetica,sans-Serif" font-size="10.00">multimeterservice.h</text>
</a>
</g>
</g>
<!-- Node2&#45;&gt;Node13 -->
<g id="edge15_Node000002_Node000013" class="edge">
<title>Node2&#45;&gt;Node13</title>
<g id="a_edge15_Node000002_Node000013"><a xlink:title=" ">
<path fill="none" stroke="#63b8ff" d="M552.63,-109.01C476.62,-98.81 357.21,-82.79 286.47,-73.3"/>
<polygon fill="#63b8ff" stroke="#63b8ff" points="560.76,-110.1 552.36,-112.61 556.8,-109.57 552.83,-109.04 552.83,-109.04 552.83,-109.04 556.8,-109.57 553.31,-105.47 560.76,-110.1 560.76,-110.1"/>
</a>
</g>
</g>
<!-- Node15 -->
<g id="Node000015" class="node">
<title>Node15</title>
<g id="a_Node000015"><a xlink:href="statusservice_8h.html" target="_top" xlink:title="Declares the StatusService class.">
<polygon fill="white" stroke="#666666" points="788.85,-74 697.85,-74 697.85,-55 788.85,-55 788.85,-74"/>
<text text-anchor="middle" x="743.35" y="-62" font-family="Helvetica,sans-Serif" font-size="10.00">statusservice.h</text>
</a>
</g>
</g>
<!-- Node2&#45;&gt;Node15 -->
<g id="edge18_Node000002_Node000015" class="edge">
<title>Node2&#45;&gt;Node15</title>
<g id="a_edge18_Node000002_Node000015"><a xlink:title=" ">
<path fill="none" stroke="#63b8ff" d="M650.12,-106.68C672.42,-96.83 703.68,-83.02 723.72,-74.17"/>
<polygon fill="#63b8ff" stroke="#63b8ff" points="642.63,-109.98 648.5,-103.46 646.29,-108.37 649.95,-106.75 649.95,-106.75 649.95,-106.75 646.29,-108.37 651.41,-110.05 642.63,-109.98 642.63,-109.98"/>
</a>
</g>
</g>
<!-- Node5 -->
<g id="Node000005" class="node">
<title>Node5</title>
<g id="a_Node000005"><a xlink:href="calibrationservice_8cpp.html" target="_top" xlink:title="Defines the CalibrationService and CalibrationServicePrivate classes.">
<polygon fill="white" stroke="#666666" points="296.35,-19 172.35,-19 172.35,0 296.35,0 296.35,-19"/>
<text text-anchor="middle" x="234.35" y="-7" font-family="Helvetica,sans-Serif" font-size="10.00">calibrationservice.cpp</text>
</a>
</g>
</g>
<!-- Node4&#45;&gt;Node5 -->
<g id="edge4_Node000004_Node000005" class="edge">
<title>Node4&#45;&gt;Node5</title>
<g id="a_edge4_Node000004_Node000005"><a xlink:title=" ">
<path fill="none" stroke="#63b8ff" d="M333.34,-51.81C309.71,-41.95 276.44,-28.06 255.13,-19.17"/>
<polygon fill="#63b8ff" stroke="#63b8ff" points="340.95,-54.98 332.18,-55.23 337.26,-53.44 333.57,-51.9 333.57,-51.9 333.57,-51.9 337.26,-53.44 334.95,-48.58 340.95,-54.98 340.95,-54.98"/>
</a>
</g>
</g>
<!-- Node6 -->
<g id="Node000006" class="node">
<title>Node6</title>
<g id="a_Node000006"><a xlink:href="pokitdevice_8cpp.html" target="_top" xlink:title="Defines the PokitDevice and PokitDevicePrivate classes.">
<polygon fill="white" stroke="#666666" points="408.35,-19 314.35,-19 314.35,0 408.35,0 408.35,-19"/>
<text text-anchor="middle" x="361.35" y="-7" font-family="Helvetica,sans-Serif" font-size="10.00">pokitdevice.cpp</text>
</a>
</g>
</g>
<!-- Node4&#45;&gt;Node6 -->
<g id="edge5_Node000004_Node000006" class="edge">
<title>Node4&#45;&gt;Node6</title>
<g id="a_edge5_Node000004_Node000006"><a xlink:title=" ">
<path fill="none" stroke="#63b8ff" d="M361.35,-46.67C361.35,-37.5 361.35,-26.52 361.35,-19.09"/>
<polygon fill="#63b8ff" stroke="#63b8ff" points="361.35,-54.75 357.75,-46.75 361.35,-50.75 361.35,-46.75 361.35,-46.75 361.35,-46.75 361.35,-50.75 364.95,-46.75 361.35,-54.75 361.35,-54.75"/>
</a>
</g>
</g>
<!-- Node7&#45;&gt;Node6 -->
<g id="edge8_Node000007_Node000006" class="edge">
<title>Node7&#45;&gt;Node6</title>
<g id="a_edge8_Node000007_Node000006"><a xlink:title=" ">
<path fill="none" stroke="#63b8ff" d="M573.3,-53.37C524.18,-43.44 450.09,-28.45 403.78,-19.08"/>
<polygon fill="#63b8ff" stroke="#63b8ff" points="581.26,-54.98 572.7,-56.93 577.34,-54.19 573.42,-53.4 573.42,-53.4 573.42,-53.4 577.34,-54.19 574.13,-49.87 581.26,-54.98 581.26,-54.98"/>
</a>
</g>
</g>
<!-- Node8 -->
<g id="Node000008" class="node">
<title>Node8</title>
<g id="a_Node000008"><a xlink:href="dataloggerservice_8cpp.html" target="_top" xlink:title="Defines the DataLoggerService and DataLoggerServicePrivate classes.">
<polygon fill="white" stroke="#666666" points="692.85,-19 567.85,-19 567.85,0 692.85,0 692.85,-19"/>
<text text-anchor="middle" x="630.35" y="-7" font-family="Helvetica,sans-Serif" font-size="10.00">dataloggerservice.cpp</text>
</a>
</g>
</g>
<!-- Node7&#45;&gt;Node8 -->
<g id="edge7_Node000007_Node000008" class="edge">
<title>Node7&#45;&gt;Node8</title>
<g id="a_edge7_Node000007_Node000008"><a xlink:title=" ">
<path fill="none" stroke="#63b8ff" d="M625.58,-46.67C626.79,-37.5 628.24,-26.52 629.22,-19.09"/>
<polygon fill="#63b8ff" stroke="#63b8ff" points="624.51,-54.75 621.99,-46.35 625.03,-50.78 625.56,-46.82 625.56,-46.82 625.56,-46.82 625.03,-50.78 629.13,-47.29 624.51,-54.75 624.51,-54.75"/>
</a>
</g>
</g>
<!-- Node9&#45;&gt;Node6 -->
<g id="edge11_Node000009_Node000006" class="edge">
<title>Node9&#45;&gt;Node6</title>
<g id="a_edge11_Node000009_Node000006"><a xlink:title=" ">
<path fill="none" stroke="#63b8ff" d="M463.77,-51.94C439.38,-42.07 404.86,-28.1 382.78,-19.17"/>
<polygon fill="#63b8ff" stroke="#63b8ff" points="471.31,-54.98 462.54,-55.32 467.6,-53.48 463.89,-51.98 463.89,-51.98 463.89,-51.98 467.6,-53.48 465.24,-48.65 471.31,-54.98 471.31,-54.98"/>
</a>
</g>
</g>
<!-- Node10 -->
<g id="Node000010" class="node">
<title>Node10</title>
<g id="a_Node000010"><a xlink:href="deviceinfoservice_8cpp.html" target="_top" xlink:title="Defines the DeviceInfoService and DeviceInfoServicePrivate classes.">
<polygon fill="white" stroke="#666666" points="549.85,-19 426.85,-19 426.85,0 549.85,0 549.85,-19"/>
<text text-anchor="middle" x="488.35" y="-7" font-family="Helvetica,sans-Serif" font-size="10.00">deviceinfoservice.cpp</text>
</a>
</g>
</g>
<!-- Node9&#45;&gt;Node10 -->
<g id="edge10_Node000009_Node000010" class="edge">
<title>Node9&#45;&gt;Node10</title>
<g id="a_edge10_Node000009_Node000010"><a xlink:title=" ">
<path fill="none" stroke="#63b8ff" d="M491.08,-46.67C490.39,-37.5 489.56,-26.52 489,-19.09"/>
<polygon fill="#63b8ff" stroke="#63b8ff" points="491.69,-54.75 487.5,-47.04 491.39,-50.76 491.09,-46.77 491.09,-46.77 491.09,-46.77 491.39,-50.76 494.68,-46.5 491.69,-54.75 491.69,-54.75"/>
</a>
</g>
</g>
<!-- Node11&#45;&gt;Node6 -->
<g id="edge14_Node000011_Node000006" class="edge">
<title>Node11&#45;&gt;Node6</title>
<g id="a_edge14_Node000011_Node000006"><a xlink:title=" ">
<path fill="none" stroke="#63b8ff" d="M799.16,-55.11C798.89,-55.07 798.62,-55.04 798.35,-55 630.25,-32.19 586.75,-39.52 418.35,-19 415.17,-18.61 411.9,-18.19 408.6,-17.75"/>
<polygon fill="#63b8ff" stroke="#63b8ff" points="807.1,-56.28 798.66,-58.68 803.14,-55.7 799.19,-55.11 799.19,-55.11 799.19,-55.11 803.14,-55.7 799.71,-51.55 807.1,-56.28 807.1,-56.28"/>
</a>
</g>
</g>
<!-- Node12 -->
<g id="Node000012" class="node">
<title>Node12</title>
<g id="a_Node000012"><a xlink:href="dsoservice_8cpp.html" target="_top" xlink:title="Defines the DsoService and DsoServicePrivate classes.">
<polygon fill="white" stroke="#666666" points="1306.85,-19 1217.85,-19 1217.85,0 1306.85,0 1306.85,-19"/>
<text text-anchor="middle" x="1262.35" y="-7" font-family="Helvetica,sans-Serif" font-size="10.00">dsoservice.cpp</text>
</a>
</g>
</g>
<!-- Node11&#45;&gt;Node12 -->
<g id="edge13_Node000011_Node000012" class="edge">
<title>Node11&#45;&gt;Node12</title>
<g id="a_edge13_Node000011_Node000012"><a xlink:title=" ">
<path fill="none" stroke="#63b8ff" d="M893.63,-58.2C962.82,-50.34 1095.67,-34.79 1208.35,-19 1211.36,-18.58 1214.46,-18.13 1217.58,-17.67"/>
<polygon fill="#63b8ff" stroke="#63b8ff" points="885.51,-59.13 893.06,-54.65 889.49,-58.67 893.46,-58.22 893.46,-58.22 893.46,-58.22 889.49,-58.67 893.87,-61.8 885.51,-59.13 885.51,-59.13"/>
</a>
</g>
</g>
<!-- Node13&#45;&gt;Node6 -->
<g id="edge17_Node000013_Node000006" class="edge">
<title>Node13&#45;&gt;Node6</title>
<g id="a_edge17_Node000013_Node000006"><a xlink:title=" ">
<path fill="none" stroke="#63b8ff" d="M257.37,-51.94C282.13,-42.07 317.18,-28.1 339.6,-19.17"/>
<polygon fill="#63b8ff" stroke="#63b8ff" points="249.72,-54.98 255.82,-48.68 253.44,-53.5 257.15,-52.02 257.15,-52.02 257.15,-52.02 253.44,-53.5 258.49,-55.37 249.72,-54.98 249.72,-54.98"/>
</a>
</g>
</g>
<!-- Node14 -->
<g id="Node000014" class="node">
<title>Node14</title>
<g id="a_Node000014"><a xlink:href="multimeterservice_8cpp.html" target="_top" xlink:title="Defines the MultimeterService and MultimeterServicePrivate classes.">
<polygon fill="white" stroke="#666666" points="153.85,-19 26.85,-19 26.85,0 153.85,0 153.85,-19"/>
<text text-anchor="middle" x="90.35" y="-7" font-family="Helvetica,sans-Serif" font-size="10.00">multimeterservice.cpp</text>
</a>
</g>
</g>
<!-- Node13&#45;&gt;Node14 -->
<g id="edge16_Node000013_Node000014" class="edge">
<title>Node13&#45;&gt;Node14</title>
<g id="a_edge16_Node000013_Node000014"><a xlink:title=" ">
<path fill="none" stroke="#63b8ff" d="M198.58,-52.06C172.87,-42.19 136.28,-28.14 112.93,-19.17"/>
<polygon fill="#63b8ff" stroke="#63b8ff" points="206.18,-54.98 197.42,-55.48 202.45,-53.55 198.71,-52.12 198.71,-52.12 198.71,-52.12 202.45,-53.55 200,-48.76 206.18,-54.98 206.18,-54.98"/>
</a>
</g>
</g>
<!-- Node15&#45;&gt;Node6 -->
<g id="edge20_Node000015_Node000006" class="edge">
<title>Node15&#45;&gt;Node6</title>
<g id="a_edge20_Node000015_Node000006"><a xlink:title=" ">
<path fill="none" stroke="#63b8ff" d="M689.61,-55.04C689.52,-55.02 689.44,-55.01 689.35,-55 569.11,-37.55 538.67,-35.96 418.35,-19 415.18,-18.55 411.91,-18.09 408.62,-17.61"/>
<polygon fill="#63b8ff" stroke="#63b8ff" points="697.7,-56.23 689.26,-58.62 693.74,-55.65 689.79,-55.06 689.79,-55.06 689.79,-55.06 693.74,-55.65 690.31,-51.5 697.7,-56.23 697.7,-56.23"/>
</a>
</g>
</g>
<!-- Node15&#45;&gt;Node8 -->
<g id="edge19_Node000015_Node000008" class="edge">
<title>Node15&#45;&gt;Node8</title>
<g id="a_edge19_Node000015_Node000008"><a xlink:title=" ">
<path fill="none" stroke="#63b8ff" d="M717.88,-51.55C696.89,-41.71 667.63,-27.98 648.84,-19.17"/>
<polygon fill="#63b8ff" stroke="#63b8ff" points="725.2,-54.98 716.43,-54.85 721.58,-53.29 717.95,-51.59 717.95,-51.59 717.95,-51.59 721.58,-53.29 719.48,-48.33 725.2,-54.98 725.2,-54.98"/>
</a>
</g>
</g>
<!-- Node16 -->
<g id="Node000016" class="node">
<title>Node16</title>
<g id="a_Node000016"><a xlink:href="pokitdiscoveryagent_8cpp.html" target="_top" xlink:title="Defines the PokitDiscoveryAgent and PokitDiscoveryAgentPrivate classes.">
<polygon fill="white" stroke="#666666" points="968.85,-19 831.85,-19 831.85,0 968.85,0 968.85,-19"/>
<text text-anchor="middle" x="900.35" y="-7" font-family="Helvetica,sans-Serif" font-size="10.00">pokitdiscoveryagent.cpp</text>
</a>
</g>
</g>
<!-- Node15&#45;&gt;Node16 -->
<g id="edge21_Node000015_Node000016" class="edge">
<title>Node15&#45;&gt;Node16</title>
<g id="a_edge21_Node000015_Node000016"><a xlink:title=" ">
<path fill="none" stroke="#63b8ff" d="M776.5,-52.31C805.88,-42.39 848.15,-28.12 874.93,-19.08"/>
<polygon fill="#63b8ff" stroke="#63b8ff" points="768.58,-54.98 775.01,-49.01 772.37,-53.71 776.16,-52.43 776.16,-52.43 776.16,-52.43 772.37,-53.71 777.31,-55.84 768.58,-54.98 768.58,-54.98"/>
</a>
</g>
</g>
<!-- Node17 -->
<g id="Node000017" class="node">
<title>Node17</title>
<g id="a_Node000017"><a xlink:href="pokitproducts_8cpp.html" target="_top" xlink:title="Defines the PokitProduct helper functions.">
<polygon fill="white" stroke="#666666" points="1091.35,-19 987.35,-19 987.35,0 1091.35,0 1091.35,-19"/>
<text text-anchor="middle" x="1039.35" y="-7" font-family="Helvetica,sans-Serif" font-size="10.00">pokitproducts.cpp</text>
</a>
</g>
</g>
<!-- Node15&#45;&gt;Node17 -->
<g id="edge22_Node000015_Node000017" class="edge">
<title>Node15&#45;&gt;Node17</title>
<g id="a_edge22_Node000015_Node000017"><a xlink:title=" ">
<path fill="none" stroke="#63b8ff" d="M796.92,-53.91C852.47,-43.96 938.5,-28.56 991.74,-19.03"/>
<polygon fill="#63b8ff" stroke="#63b8ff" points="788.95,-55.33 796.19,-50.38 792.89,-54.63 796.83,-53.92 796.83,-53.92 796.83,-53.92 792.89,-54.63 797.46,-57.47 788.95,-55.33 788.95,-55.33"/>
</a>
</g>
</g>
<!-- Node18 -->
<g id="Node000018" class="node">
<title>Node18</title>
<g id="a_Node000018"><a xlink:href="statusservice_8cpp.html" target="_top" xlink:title="Defines the StatusService and StatusServicePrivate classes.">
<polygon fill="white" stroke="#666666" points="813.35,-19 711.35,-19 711.35,0 813.35,0 813.35,-19"/>
<text text-anchor="middle" x="762.35" y="-7" font-family="Helvetica,sans-Serif" font-size="10.00">statusservice.cpp</text>
</a>
</g>
</g>
<!-- Node15&#45;&gt;Node18 -->
<g id="edge23_Node000015_Node000018" class="edge">
<title>Node15&#45;&gt;Node18</title>
<g id="a_edge23_Node000015_Node000018"><a xlink:title=" ">
<path fill="none" stroke="#63b8ff" d="M749.28,-46.96C752.59,-37.72 756.58,-26.6 759.27,-19.09"/>
<polygon fill="#63b8ff" stroke="#63b8ff" points="746.49,-54.75 745.8,-46 747.84,-50.98 749.19,-47.22 749.19,-47.22 749.19,-47.22 747.84,-50.98 752.58,-48.43 746.49,-54.75 746.49,-54.75"/>
</a>
</g>
</g>
<!-- Node19&#45;&gt;Node3 -->
<g id="edge25_Node000019_Node000003" class="edge">
<title>Node19&#45;&gt;Node3</title>
<g id="a_edge25_Node000019_Node000003"><a xlink:title=" ">
<path fill="none" stroke="#63b8ff" d="M83.35,-101.67C83.35,-92.5 83.35,-81.52 83.35,-74.09"/>
<polygon fill="#63b8ff" stroke="#63b8ff" points="83.35,-109.75 79.75,-101.75 83.35,-105.75 83.35,-101.75 83.35,-101.75 83.35,-101.75 83.35,-105.75 86.95,-101.75 83.35,-109.75 83.35,-109.75"/>
</a>
</g>
</g>
<!-- Node19&#45;&gt;Node6 -->
<g id="edge26_Node000019_Node000006" class="edge">
<title>Node19&#45;&gt;Node6</title>
<g id="a_edge26_Node000019_Node000006"><a xlink:title=" ">
<path fill="none" stroke="#63b8ff" d="M50.2,-106.96C21.4,-95.19 -13.05,-75.74 5.35,-55 49.91,-4.77 238.82,-28.04 305.35,-19 308.28,-18.6 311.28,-18.18 314.31,-17.75"/>
<polygon fill="#63b8ff" stroke="#63b8ff" points="57.75,-109.93 48.99,-110.35 54.03,-108.47 50.3,-107 50.3,-107 50.3,-107 54.03,-108.47 51.62,-103.65 57.75,-109.93 57.75,-109.93"/>
</a>
</g>
</g>
<!-- Node20&#45;&gt;Node16 -->
<g id="edge28_Node000020_Node000016" class="edge">
<title>Node20&#45;&gt;Node16</title>
<g id="a_edge28_Node000020_Node000016"><a xlink:title=" ">
<path fill="none" stroke="#63b8ff" d="M980.61,-157.49C962.1,-123.59 919.5,-45.57 905.16,-19.31"/>
<polygon fill="#63b8ff" stroke="#63b8ff" points="984.57,-164.74 977.57,-159.44 982.65,-161.23 980.73,-157.71 980.73,-157.71 980.73,-157.71 982.65,-161.23 983.89,-155.99 984.57,-164.74 984.57,-164.74"/>
</a>
</g>
</g>
<!-- Node21&#45;&gt;Node12 -->
<g id="edge30_Node000021_Node000012" class="edge">
<title>Node21&#45;&gt;Node12</title>
<g id="a_edge30_Node000021_Node000012"><a xlink:title=" ">
<path fill="none" stroke="#63b8ff" d="M1164.15,-51.81C1187.59,-41.95 1220.6,-28.06 1241.74,-19.17"/>
<polygon fill="#63b8ff" stroke="#63b8ff" points="1156.6,-54.98 1162.58,-48.56 1160.28,-53.43 1163.97,-51.88 1163.97,-51.88 1163.97,-51.88 1160.28,-53.43 1165.37,-55.2 1156.6,-54.98 1156.6,-54.98"/>
</a>
</g>
</g>
<!-- Node21&#45;&gt;Node17 -->
<g id="edge32_Node000021_Node000017" class="edge">
<title>Node21&#45;&gt;Node17</title>
<g id="a_edge32_Node000021_Node000017"><a xlink:title=" ">
<path fill="none" stroke="#63b8ff" d="M1113.53,-51.03C1095.59,-41.23 1071.07,-27.83 1055.22,-19.17"/>
<polygon fill="#63b8ff" stroke="#63b8ff" points="1120.77,-54.98 1112.02,-54.31 1117.26,-53.07 1113.75,-51.15 1113.75,-51.15 1113.75,-51.15 1117.26,-53.07 1115.47,-47.99 1120.77,-54.98 1120.77,-54.98"/>
</a>
</g>
</g>
<!-- Node22 -->
<g id="Node000022" class="node">
<title>Node22</title>
<g id="a_Node000022"><a xlink:href="pokitmeter_8cpp.html" target="_top" xlink:title="Declares the PokitMeter namespace.">
<polygon fill="white" stroke="#666666" points="1199.35,-19 1109.35,-19 1109.35,0 1199.35,0 1199.35,-19"/>
<text text-anchor="middle" x="1154.35" y="-7" font-family="Helvetica,sans-Serif" font-size="10.00">pokitmeter.cpp</text>
</a>
</g>
</g>
<!-- Node21&#45;&gt;Node22 -->
<g id="edge31_Node000021_Node000022" class="edge">
<title>Node21&#45;&gt;Node22</title>
<g id="a_edge31_Node000021_Node000022"><a xlink:title=" ">
<path fill="none" stroke="#63b8ff" d="M1141.97,-46.96C1145.11,-37.72 1148.88,-26.6 1151.44,-19.09"/>
<polygon fill="#63b8ff" stroke="#63b8ff" points="1139.33,-54.75 1138.49,-46.02 1140.61,-50.96 1141.9,-47.17 1141.9,-47.17 1141.9,-47.17 1140.61,-50.96 1145.31,-48.33 1139.33,-54.75 1139.33,-54.75"/>
</a>
</g>
</g>
<!-- Node23&#45;&gt;Node12 -->
<g id="edge34_Node000023_Node000012" class="edge">
<title>Node23&#45;&gt;Node12</title>
<g id="a_edge34_Node000023_Node000012"><a xlink:title=" ">
<path fill="none" stroke="#63b8ff" d="M1243.49,-47.52C1248.25,-38.18 1254.07,-26.75 1257.98,-19.09"/>
<polygon fill="#63b8ff" stroke="#63b8ff" points="1239.81,-54.75 1240.24,-45.99 1241.63,-51.18 1243.44,-47.62 1243.44,-47.62 1243.44,-47.62 1241.63,-51.18 1246.65,-49.25 1239.81,-54.75 1239.81,-54.75"/>
</a>
</g>
</g>
<!-- Node23&#45;&gt;Node17 -->
<g id="edge36_Node000023_Node000017" class="edge">
<title>Node23&#45;&gt;Node17</title>
<g id="a_edge36_Node000023_Node000017"><a xlink:title=" ">
<path fill="none" stroke="#63b8ff" d="M1195.84,-52.82C1159.11,-42.88 1105.09,-28.28 1071.09,-19.08"/>
<polygon fill="#63b8ff" stroke="#63b8ff" points="1203.86,-54.98 1195.2,-56.37 1200,-53.94 1196.14,-52.9 1196.14,-52.9 1196.14,-52.9 1200,-53.94 1197.08,-49.42 1203.86,-54.98 1203.86,-54.98"/>
</a>
</g>
</g>
<!-- Node24 -->
<g id="Node000024" class="node">
<title>Node24</title>
<g id="a_Node000024"><a xlink:href="pokitpro_8cpp.html" target="_top" xlink:title="Defined the PokitPro helper functions.">
<polygon fill="white" stroke="#666666" points="1401.85,-19 1324.85,-19 1324.85,0 1401.85,0 1401.85,-19"/>
<text text-anchor="middle" x="1363.35" y="-7" font-family="Helvetica,sans-Serif" font-size="10.00">pokitpro.cpp</text>
</a>
</g>
</g>
<!-- Node23&#45;&gt;Node24 -->
<g id="edge35_Node000023_Node000024" class="edge">
<title>Node23&#45;&gt;Node24</title>
<g id="a_edge35_Node000023_Node000024"><a xlink:title=" ">
<path fill="none" stroke="#63b8ff" d="M1263.59,-51.81C1287.4,-41.95 1320.94,-28.06 1342.41,-19.17"/>
<polygon fill="#63b8ff" stroke="#63b8ff" points="1255.92,-54.98 1261.93,-48.6 1259.61,-53.45 1263.31,-51.92 1263.31,-51.92 1263.31,-51.92 1259.61,-53.45 1264.69,-55.25 1255.92,-54.98 1255.92,-54.98"/>
</a>
</g>
</g>
<!-- Node25&#45;&gt;Node2 -->
<g id="edge38_Node000025_Node000002" class="edge">
<title>Node25&#45;&gt;Node2</title>
<g id="a_edge38_Node000025_Node000002"><a xlink:title=" ">
<path fill="none" stroke="#63b8ff" d="M816.13,-163.25C771.32,-153.31 704.12,-138.41 662.05,-129.08"/>
<polygon fill="#63b8ff" stroke="#63b8ff" points="823.95,-164.98 815.36,-166.77 820.05,-164.12 816.14,-163.25 816.14,-163.25 816.14,-163.25 820.05,-164.12 816.92,-159.74 823.95,-164.98 823.95,-164.98"/>
</a>
</g>
</g>
<!-- Node25&#45;&gt;Node11 -->
<g id="edge39_Node000025_Node000011" class="edge">
<title>Node25&#45;&gt;Node11</title>
<g id="a_edge39_Node000025_Node000011"><a xlink:title=" ">
<path fill="none" stroke="#63b8ff" d="M859.86,-156.69C856.41,-133.37 850.29,-92.05 847.64,-74.16"/>
<polygon fill="#63b8ff" stroke="#63b8ff" points="861.04,-164.66 856.31,-157.28 860.46,-160.71 859.87,-156.75 859.87,-156.75 859.87,-156.75 860.46,-160.71 863.43,-156.22 861.04,-164.66 861.04,-164.66"/>
</a>
</g>
</g>
<!-- Node25&#45;&gt;Node16 -->
<g id="edge40_Node000025_Node000016" class="edge">
<title>Node25&#45;&gt;Node16</title>
<g id="a_edge40_Node000025_Node000016"><a xlink:title=" ">
<path fill="none" stroke="#63b8ff" d="M868.79,-157.24C876.21,-137.78 888.18,-104.04 894.35,-74 898.32,-54.69 899.67,-31.54 900.13,-19.22"/>
<polygon fill="#63b8ff" stroke="#63b8ff" points="865.83,-164.89 865.36,-156.13 867.27,-161.16 868.72,-157.43 868.72,-157.43 868.72,-157.43 867.27,-161.16 872.08,-158.73 865.83,-164.89 865.83,-164.89"/>
</a>
</g>
</g>
<!-- Node25&#45;&gt;Node17 -->
<g id="edge41_Node000025_Node000017" class="edge">
<title>Node25&#45;&gt;Node17</title>
<g id="a_edge41_Node000025_Node000017"><a xlink:title=" ">
<path fill="none" stroke="#63b8ff" d="M877.92,-159.16C913.67,-126.24 1000.79,-46.01 1029.79,-19.31"/>
<polygon fill="#63b8ff" stroke="#63b8ff" points="871.87,-164.74 875.32,-156.67 874.81,-162.03 877.75,-159.32 877.75,-159.32 877.75,-159.32 874.81,-162.03 880.19,-161.97 871.87,-164.74 871.87,-164.74"/>
</a>
</g>
</g>
</g>
</svg>
