<?xml version="1.0" encoding="UTF-8" standalone="no"?>
<!DOCTYPE svg PUBLIC "-//W3C//DTD SVG 1.1//EN"
 "http://www.w3.org/Graphics/SVG/1.1/DTD/svg11.dtd">
<!-- Generated by graphviz version 2.43.0 (0)
 -->
<!-- Title: qtpokit_global.h Pages: 1 -->
<svg width="301pt" height="140pt"
 viewBox="0.00 0.00 301.00 140.00" xmlns="http://www.w3.org/2000/svg" xmlns:xlink="http://www.w3.org/1999/xlink">
<g id="graph0" class="graph" transform="scale(1 1) rotate(0) translate(4 136)">
<title>qtpokit_global.h</title>
<!-- Node1 -->
<g id="node1" class="node">
<title>Node1</title>
<g id="a_node1"><a xlink:title="Global QtPokit library macros.">
<polygon fill="#bfbfbf" stroke="black" points="148.5,-112.5 148.5,-131.5 243.5,-131.5 243.5,-112.5 148.5,-112.5"/>
<text text-anchor="middle" x="196" y="-119.5" font-family="Helvetica,sans-Serif" font-size="10.00">qtpokit_global.h</text>
</a>
</g>
</g>
<!-- Node2 -->
<g id="node2" class="node">
<title>Node2</title>
<g id="a_node2"><a xlink:href="pokitdevicedisoveryagent_8h.html" target="_top" xlink:title="Declares the PokitDeviceDiscoveryAgent class.">
<polygon fill="none" stroke="black" points="0,-56.5 0,-75.5 152,-75.5 152,-56.5 0,-56.5"/>
<text text-anchor="middle" x="76" y="-63.5" font-family="Helvetica,sans-Serif" font-size="10.00">pokitdevicedisoveryagent.h</text>
</a>
</g>
</g>
<!-- Node1&#45;&gt;Node2 -->
<g id="edge1" class="edge">
<title>Node1&#45;&gt;Node2</title>
<path fill="none" stroke="midnightblue" d="M167.63,-108.23C145.18,-98.13 114.46,-84.31 94.93,-75.52"/>
<polygon fill="midnightblue" stroke="midnightblue" points="166.43,-111.53 176.99,-112.44 169.3,-105.15 166.43,-111.53"/>
</g>
<!-- Node4 -->
<g id="node4" class="node">
<title>Node4</title>
<g id="a_node4"><a xlink:href="utils_8h.html" target="_top" xlink:title="Declares some simple general purpose, utility functions used by QtPokit.">
<polygon fill="none" stroke="black" points="240.5,-56.5 240.5,-75.5 287.5,-75.5 287.5,-56.5 240.5,-56.5"/>
<text text-anchor="middle" x="264" y="-63.5" font-family="Helvetica,sans-Serif" font-size="10.00">utils.h</text>
</a>
</g>
</g>
<!-- Node1&#45;&gt;Node4 -->
<g id="edge3" class="edge">
<title>Node1&#45;&gt;Node4</title>
<path fill="none" stroke="midnightblue" d="M214.76,-106.1C227,-96.38 242.56,-84.03 252.88,-75.83"/>
<polygon fill="midnightblue" stroke="midnightblue" points="212.58,-103.36 206.93,-112.32 216.93,-108.85 212.58,-103.36"/>
</g>
<!-- Node6 -->
<g id="node6" class="node">
<title>Node6</title>
<g id="a_node6"><a xlink:href="uuids_8h.html" target="_top" xlink:title="Define official UUIDs from Pokit&#39;s Bluetooth API Definition document.">
<polygon fill="none" stroke="black" points="170,-56.5 170,-75.5 222,-75.5 222,-56.5 170,-56.5"/>
<text text-anchor="middle" x="196" y="-63.5" font-family="Helvetica,sans-Serif" font-size="10.00">uuids.h</text>
</a>
</g>
</g>
<!-- Node1&#45;&gt;Node6 -->
<g id="edge5" class="edge">
<title>Node1&#45;&gt;Node6</title>
<path fill="none" stroke="midnightblue" d="M196,-101.8C196,-92.91 196,-82.78 196,-75.75"/>
<polygon fill="midnightblue" stroke="midnightblue" points="192.5,-102.08 196,-112.08 199.5,-102.08 192.5,-102.08"/>
</g>
<!-- Node3 -->
<g id="node3" class="node">
<title>Node3</title>
<g id="a_node3"><a xlink:href="pokitdevicedisoveryagent_8cpp.html" target="_top" xlink:title="Defines the PokitDeviceDiscoveryAgent class.">
<polygon fill="none" stroke="black" points="24,-0.5 24,-19.5 188,-19.5 188,-0.5 24,-0.5"/>
<text text-anchor="middle" x="106" y="-7.5" font-family="Helvetica,sans-Serif" font-size="10.00">pokitdevicedisoveryagent.cpp</text>
</a>
</g>
</g>
<!-- Node2&#45;&gt;Node3 -->
<g id="edge2" class="edge">
<title>Node2&#45;&gt;Node3</title>
<path fill="none" stroke="midnightblue" d="M85.85,-47.27C90.97,-38.05 97.02,-27.17 101.14,-19.75"/>
<polygon fill="midnightblue" stroke="midnightblue" points="82.75,-45.64 80.95,-56.08 88.87,-49.04 82.75,-45.64"/>
</g>
<!-- Node5 -->
<g id="node5" class="node">
<title>Node5</title>
<g id="a_node5"><a xlink:href="utils_8cpp.html" target="_top" xlink:title="Defines some simple general purpose, utility functions used by QtPokit.">
<polygon fill="none" stroke="black" points="235,-0.5 235,-19.5 293,-19.5 293,-0.5 235,-0.5"/>
<text text-anchor="middle" x="264" y="-7.5" font-family="Helvetica,sans-Serif" font-size="10.00">utils.cpp</text>
</a>
</g>
</g>
<!-- Node4&#45;&gt;Node5 -->
<g id="edge4" class="edge">
<title>Node4&#45;&gt;Node5</title>
<path fill="none" stroke="midnightblue" d="M264,-45.8C264,-36.91 264,-26.78 264,-19.75"/>
<polygon fill="midnightblue" stroke="midnightblue" points="260.5,-46.08 264,-56.08 267.5,-46.08 260.5,-46.08"/>
</g>
<!-- Node6&#45;&gt;Node3 -->
<g id="edge6" class="edge">
<title>Node6&#45;&gt;Node3</title>
<path fill="none" stroke="midnightblue" d="M172.96,-51.18C156.4,-41.24 134.58,-28.15 120.42,-19.65"/>
<polygon fill="midnightblue" stroke="midnightblue" points="171.16,-54.18 181.54,-56.32 174.77,-48.18 171.16,-54.18"/>
</g>
</g>
</svg>
