<?xml version="1.0" encoding="UTF-8" standalone="no"?>
<!DOCTYPE svg PUBLIC "-//W3C//DTD SVG 1.1//EN"
 "http://www.w3.org/Graphics/SVG/1.1/DTD/svg11.dtd">
<!-- Generated by graphviz version 2.43.0 (0)
 -->
<!-- Title: qtpokit_global.h Pages: 1 -->
<svg width="1562pt" height="247pt"
 viewBox="0.00 0.00 1562.05 247.00" xmlns="http://www.w3.org/2000/svg" xmlns:xlink="http://www.w3.org/1999/xlink">
<g id="graph0" class="graph" transform="scale(1 1) rotate(0) translate(4 243)">
<title>qtpokit_global.h</title>
<!-- Node1 -->
<g id="Node000001" class="node">
<title>Node1</title>
<g id="a_Node000001"><a xlink:title="Global QtPokit library macros.">
<polygon fill="#999999" stroke="#666666" points="1107.05,-239 1012.05,-239 1012.05,-220 1107.05,-220 1107.05,-239"/>
<text text-anchor="middle" x="1059.55" y="-227" font-family="Helvetica,sans-Serif" font-size="10.00">qtpokit_global.h</text>
</a>
</g>
</g>
<!-- Node2 -->
<g id="Node000002" class="node">
<title>Node2</title>
<g id="a_Node000002"><a xlink:href="abstractpokitservice_8h.html" target="_top" xlink:title="Declares the AbstractPokitService class.">
<polygon fill="white" stroke="#666666" points="767.05,-129 642.05,-129 642.05,-110 767.05,-110 767.05,-129"/>
<text text-anchor="middle" x="704.55" y="-117" font-family="Helvetica,sans-Serif" font-size="10.00">abstractpokitservice.h</text>
</a>
</g>
</g>
<!-- Node1&#45;&gt;Node2 -->
<g id="edge1_Node000001_Node000002" class="edge">
<title>Node1&#45;&gt;Node2</title>
<g id="a_edge1_Node000001_Node000002"><a xlink:title=" ">
<path fill="none" stroke="#63b8ff" d="M1023.6,-217.56C952.8,-196.03 796.66,-148.52 732.7,-129.07"/>
<polygon fill="#63b8ff" stroke="#63b8ff" points="1031.39,-219.94 1022.69,-221.05 1027.57,-218.77 1023.74,-217.61 1023.74,-217.61 1023.74,-217.61 1027.57,-218.77 1024.79,-214.16 1031.39,-219.94 1031.39,-219.94"/>
</a>
</g>
</g>
<!-- Node21 -->
<g id="Node000021" class="node">
<title>Node21</title>
<g id="a_Node000021"><a xlink:href="pokitdevice_8h.html" target="_top" xlink:title="Declares the PokitDevice class.">
<polygon fill="white" stroke="#666666" points="125.05,-129 42.05,-129 42.05,-110 125.05,-110 125.05,-129"/>
<text text-anchor="middle" x="83.55" y="-117" font-family="Helvetica,sans-Serif" font-size="10.00">pokitdevice.h</text>
</a>
</g>
</g>
<!-- Node1&#45;&gt;Node21 -->
<g id="edge27_Node000001_Node000021" class="edge">
<title>Node1&#45;&gt;Node21</title>
<g id="a_edge27_Node000001_Node000021"><a xlink:title=" ">
<path fill="none" stroke="#63b8ff" d="M1003.66,-222.32C826.55,-202.72 280.28,-142.27 125.07,-125.09"/>
<polygon fill="#63b8ff" stroke="#63b8ff" points="1011.81,-223.22 1003.46,-225.92 1007.84,-222.78 1003.86,-222.34 1003.86,-222.34 1003.86,-222.34 1007.84,-222.78 1004.26,-218.76 1011.81,-223.22 1011.81,-223.22"/>
</a>
</g>
</g>
<!-- Node22 -->
<g id="Node000022" class="node">
<title>Node22</title>
<g id="a_Node000022"><a xlink:href="pokitdiscoveryagent_8h.html" target="_top" xlink:title="Declares the PokitDiscoveryAgent class.">
<polygon fill="white" stroke="#666666" points="1186.05,-184 1061.05,-184 1061.05,-165 1186.05,-165 1186.05,-184"/>
<text text-anchor="middle" x="1123.55" y="-172" font-family="Helvetica,sans-Serif" font-size="10.00">pokitdiscoveryagent.h</text>
</a>
</g>
</g>
<!-- Node1&#45;&gt;Node22 -->
<g id="edge30_Node000001_Node000022" class="edge">
<title>Node1&#45;&gt;Node22</title>
<g id="a_edge30_Node000001_Node000022"><a xlink:title=" ">
<path fill="none" stroke="#63b8ff" d="M1076.22,-214.7C1087.87,-205.04 1103.09,-192.44 1113.08,-184.17"/>
<polygon fill="#63b8ff" stroke="#63b8ff" points="1069.83,-219.98 1073.69,-212.11 1072.91,-217.43 1075.99,-214.88 1075.99,-214.88 1075.99,-214.88 1072.91,-217.43 1078.29,-217.65 1069.83,-219.98 1069.83,-219.98"/>
</a>
</g>
</g>
<!-- Node23 -->
<g id="Node000023" class="node">
<title>Node23</title>
<g id="a_Node000023"><a xlink:href="pokitmeter_8h.html" target="_top" xlink:title="Declares the PokitMeter namespace.">
<polygon fill="white" stroke="#666666" points="1254.05,-74 1175.05,-74 1175.05,-55 1254.05,-55 1254.05,-74"/>
<text text-anchor="middle" x="1214.55" y="-62" font-family="Helvetica,sans-Serif" font-size="10.00">pokitmeter.h</text>
</a>
</g>
</g>
<!-- Node1&#45;&gt;Node23 -->
<g id="edge32_Node000001_Node000023" class="edge">
<title>Node1&#45;&gt;Node23</title>
<g id="a_edge32_Node000001_Node000023"><a xlink:title=" ">
<path fill="none" stroke="#63b8ff" d="M1115.24,-223.81C1143.36,-218.48 1175.65,-207.3 1195.55,-184 1223.15,-151.68 1218.82,-95.62 1215.93,-74.18"/>
<polygon fill="#63b8ff" stroke="#63b8ff" points="1107.05,-225.22 1114.32,-220.31 1110.99,-224.54 1114.93,-223.86 1114.93,-223.86 1114.93,-223.86 1110.99,-224.54 1115.54,-227.41 1107.05,-225.22 1107.05,-225.22"/>
</a>
</g>
</g>
<!-- Node25 -->
<g id="Node000025" class="node">
<title>Node25</title>
<g id="a_Node000025"><a xlink:href="pokitpro_8h.html" target="_top" xlink:title="Declares the PokitPro namespace.">
<polygon fill="white" stroke="#666666" points="1338.55,-74 1272.55,-74 1272.55,-55 1338.55,-55 1338.55,-74"/>
<text text-anchor="middle" x="1305.55" y="-62" font-family="Helvetica,sans-Serif" font-size="10.00">pokitpro.h</text>
</a>
</g>
</g>
<!-- Node1&#45;&gt;Node25 -->
<g id="edge36_Node000001_Node000025" class="edge">
<title>Node1&#45;&gt;Node25</title>
<g id="a_edge36_Node000001_Node000025"><a xlink:title=" ">
<path fill="none" stroke="#63b8ff" d="M1115.46,-221.25C1146.7,-215.14 1185.12,-204.03 1214.55,-184 1258.5,-154.07 1290.41,-96.09 1301.38,-74.17"/>
<polygon fill="#63b8ff" stroke="#63b8ff" points="1107.27,-222.77 1114.48,-217.77 1111.21,-222.04 1115.14,-221.31 1115.14,-221.31 1115.14,-221.31 1111.21,-222.04 1115.8,-224.85 1107.27,-222.77 1107.27,-222.77"/>
</a>
</g>
</g>
<!-- Node27 -->
<g id="Node000027" class="node">
<title>Node27</title>
<g id="a_Node000027"><a xlink:href="pokitproducts_8h.html" target="_top" xlink:title="Declares the PokitProduct enumeration, and related helper functions.">
<polygon fill="white" stroke="#666666" points="1042.55,-184 950.55,-184 950.55,-165 1042.55,-165 1042.55,-184"/>
<text text-anchor="middle" x="996.55" y="-172" font-family="Helvetica,sans-Serif" font-size="10.00">pokitproducts.h</text>
</a>
</g>
</g>
<!-- Node1&#45;&gt;Node27 -->
<g id="edge40_Node000001_Node000027" class="edge">
<title>Node1&#45;&gt;Node27</title>
<g id="a_edge40_Node000001_Node000027"><a xlink:title=" ">
<path fill="none" stroke="#63b8ff" d="M1043.14,-214.7C1031.66,-205.04 1016.69,-192.44 1006.85,-184.17"/>
<polygon fill="#63b8ff" stroke="#63b8ff" points="1049.42,-219.98 1040.98,-217.59 1046.36,-217.41 1043.3,-214.83 1043.3,-214.83 1043.3,-214.83 1046.36,-217.41 1045.62,-212.08 1049.42,-219.98 1049.42,-219.98"/>
</a>
</g>
</g>
<!-- Node3 -->
<g id="Node000003" class="node">
<title>Node3</title>
<g id="a_Node000003"><a xlink:href="abstractpokitservice_8cpp.html" target="_top" xlink:title="Defines the AbstractPokitService and AbstractPokitServicePrivate classes.">
<polygon fill="white" stroke="#666666" points="152.05,-74 15.05,-74 15.05,-55 152.05,-55 152.05,-74"/>
<text text-anchor="middle" x="83.55" y="-62" font-family="Helvetica,sans-Serif" font-size="10.00">abstractpokitservice.cpp</text>
</a>
</g>
</g>
<!-- Node2&#45;&gt;Node3 -->
<g id="edge2_Node000002_Node000003" class="edge">
<title>Node2&#45;&gt;Node3</title>
<g id="a_edge2_Node000002_Node000003"><a xlink:title=" ">
<path fill="none" stroke="#63b8ff" d="M633.57,-113.29C529.82,-105.54 330.69,-90.14 161.55,-74 158.56,-73.72 155.52,-73.42 152.44,-73.11"/>
<polygon fill="#63b8ff" stroke="#63b8ff" points="641.79,-113.91 633.54,-116.9 637.8,-113.61 633.81,-113.31 633.81,-113.31 633.81,-113.31 637.8,-113.61 634.08,-109.72 641.79,-113.91 641.79,-113.91"/>
</a>
</g>
</g>
<!-- Node4 -->
<g id="Node000004" class="node">
<title>Node4</title>
<g id="a_Node000004"><a xlink:href="calibrationservice_8h.html" target="_top" xlink:title="Declares the CalibrationService class.">
<polygon fill="white" stroke="#666666" points="696.05,-74 583.05,-74 583.05,-55 696.05,-55 696.05,-74"/>
<text text-anchor="middle" x="639.55" y="-62" font-family="Helvetica,sans-Serif" font-size="10.00">calibrationservice.h</text>
</a>
</g>
</g>
<!-- Node2&#45;&gt;Node4 -->
<g id="edge3_Node000002_Node000004" class="edge">
<title>Node2&#45;&gt;Node4</title>
<g id="a_edge3_Node000002_Node000004"><a xlink:title=" ">
<path fill="none" stroke="#63b8ff" d="M687.62,-104.7C675.78,-95.04 660.33,-82.44 650.18,-74.17"/>
<polygon fill="#63b8ff" stroke="#63b8ff" points="694.1,-109.98 685.63,-107.72 691,-107.46 687.9,-104.93 687.9,-104.93 687.9,-104.93 691,-107.46 690.18,-102.14 694.1,-109.98 694.1,-109.98"/>
</a>
</g>
</g>
<!-- Node7 -->
<g id="Node000007" class="node">
<title>Node7</title>
<g id="a_Node000007"><a xlink:href="dataloggerservice_8h.html" target="_top" xlink:title="Declares the DataLoggerService class.">
<polygon fill="white" stroke="#666666" points="827.05,-74 714.05,-74 714.05,-55 827.05,-55 827.05,-74"/>
<text text-anchor="middle" x="770.55" y="-62" font-family="Helvetica,sans-Serif" font-size="10.00">dataloggerservice.h</text>
</a>
</g>
</g>
<!-- Node2&#45;&gt;Node7 -->
<g id="edge6_Node000002_Node000007" class="edge">
<title>Node2&#45;&gt;Node7</title>
<g id="a_edge6_Node000002_Node000007"><a xlink:title=" ">
<path fill="none" stroke="#63b8ff" d="M721.4,-104.97C733.47,-95.28 749.35,-82.52 759.75,-74.17"/>
<polygon fill="#63b8ff" stroke="#63b8ff" points="715.15,-109.98 719.13,-102.17 718.27,-107.48 721.39,-104.98 721.39,-104.98 721.39,-104.98 718.27,-107.48 723.64,-107.78 715.15,-109.98 715.15,-109.98"/>
</a>
</g>
</g>
<!-- Node9 -->
<g id="Node000009" class="node">
<title>Node9</title>
<g id="a_Node000009"><a xlink:href="deviceinfoservice_8h.html" target="_top" xlink:title="Declares the DeviceInfoService class.">
<polygon fill="white" stroke="#666666" points="282.55,-74 170.55,-74 170.55,-55 282.55,-55 282.55,-74"/>
<text text-anchor="middle" x="226.55" y="-62" font-family="Helvetica,sans-Serif" font-size="10.00">deviceinfoservice.h</text>
</a>
</g>
</g>
<!-- Node2&#45;&gt;Node9 -->
<g id="edge9_Node000002_Node000009" class="edge">
<title>Node2&#45;&gt;Node9</title>
<g id="a_edge9_Node000002_Node000009"><a xlink:title=" ">
<path fill="none" stroke="#63b8ff" d="M633.6,-111.35C551.28,-102.94 411.49,-88.3 291.55,-74 288.61,-73.65 285.6,-73.28 282.56,-72.91"/>
<polygon fill="#63b8ff" stroke="#63b8ff" points="641.87,-112.19 633.55,-114.96 637.9,-111.79 633.92,-111.38 633.92,-111.38 633.92,-111.38 637.9,-111.79 634.28,-107.8 641.87,-112.19 641.87,-112.19"/>
</a>
</g>
</g>
<!-- Node11 -->
<g id="Node000011" class="node">
<title>Node11</title>
<g id="a_Node000011"><a xlink:href="dsoservice_8h.html" target="_top" xlink:title="Declares the DsoService class.">
<polygon fill="white" stroke="#666666" points="1032.55,-74 954.55,-74 954.55,-55 1032.55,-55 1032.55,-74"/>
<text text-anchor="middle" x="993.55" y="-62" font-family="Helvetica,sans-Serif" font-size="10.00">dsoservice.h</text>
</a>
</g>
</g>
<!-- Node2&#45;&gt;Node11 -->
<g id="edge12_Node000002_Node000011" class="edge">
<title>Node2&#45;&gt;Node11</title>
<g id="a_edge12_Node000002_Node000011"><a xlink:title=" ">
<path fill="none" stroke="#63b8ff" d="M759.14,-108.49C816.02,-98.06 903.75,-81.97 954.19,-72.72"/>
<polygon fill="#63b8ff" stroke="#63b8ff" points="750.98,-109.98 758.2,-105 754.91,-109.26 758.85,-108.54 758.85,-108.54 758.85,-108.54 754.91,-109.26 759.5,-112.08 750.98,-109.98 750.98,-109.98"/>
</a>
</g>
</g>
<!-- Node13 -->
<g id="Node000013" class="node">
<title>Node13</title>
<g id="a_Node000013"><a xlink:href="genericaccessservice_8h.html" target="_top" xlink:title="Declares the GenericAccessService class.">
<polygon fill="white" stroke="#666666" points="430.55,-74 300.55,-74 300.55,-55 430.55,-55 430.55,-74"/>
<text text-anchor="middle" x="365.55" y="-62" font-family="Helvetica,sans-Serif" font-size="10.00">genericaccessservice.h</text>
</a>
</g>
</g>
<!-- Node2&#45;&gt;Node13 -->
<g id="edge15_Node000002_Node000013" class="edge">
<title>Node2&#45;&gt;Node13</title>
<g id="a_edge15_Node000002_Node000013"><a xlink:title=" ">
<path fill="none" stroke="#63b8ff" d="M642.11,-108.74C578.49,-98.79 480.79,-83.52 420.16,-74.04"/>
<polygon fill="#63b8ff" stroke="#63b8ff" points="650.08,-109.98 641.62,-112.31 646.13,-109.37 642.18,-108.75 642.18,-108.75 642.18,-108.75 646.13,-109.37 642.73,-105.19 650.08,-109.98 650.08,-109.98"/>
</a>
</g>
</g>
<!-- Node15 -->
<g id="Node000015" class="node">
<title>Node15</title>
<g id="a_Node000015"><a xlink:href="multimeterservice_8h.html" target="_top" xlink:title="Declares the MultimeterService class.">
<polygon fill="white" stroke="#666666" points="564.55,-74 448.55,-74 448.55,-55 564.55,-55 564.55,-74"/>
<text text-anchor="middle" x="506.55" y="-62" font-family="Helvetica,sans-Serif" font-size="10.00">multimeterservice.h</text>
</a>
</g>
</g>
<!-- Node2&#45;&gt;Node15 -->
<g id="edge18_Node000002_Node000015" class="edge">
<title>Node2&#45;&gt;Node15</title>
<g id="a_edge18_Node000002_Node000015"><a xlink:title=" ">
<path fill="none" stroke="#63b8ff" d="M664.63,-107.82C627.52,-97.88 572.96,-83.28 538.61,-74.08"/>
<polygon fill="#63b8ff" stroke="#63b8ff" points="672.73,-109.98 664.08,-111.39 668.87,-108.95 665.01,-107.92 665.01,-107.92 665.01,-107.92 668.87,-108.95 665.94,-104.44 672.73,-109.98 672.73,-109.98"/>
</a>
</g>
</g>
<!-- Node17 -->
<g id="Node000017" class="node">
<title>Node17</title>
<g id="a_Node000017"><a xlink:href="statusservice_8h.html" target="_top" xlink:title="Declares the StatusService class.">
<polygon fill="white" stroke="#666666" points="936.05,-74 845.05,-74 845.05,-55 936.05,-55 936.05,-74"/>
<text text-anchor="middle" x="890.55" y="-62" font-family="Helvetica,sans-Serif" font-size="10.00">statusservice.h</text>
</a>
</g>
</g>
<!-- Node2&#45;&gt;Node17 -->
<g id="edge21_Node000002_Node000017" class="edge">
<title>Node2&#45;&gt;Node17</title>
<g id="a_edge21_Node000002_Node000017"><a xlink:title=" ">
<path fill="none" stroke="#63b8ff" d="M742.48,-107.69C777.33,-97.76 828.3,-83.24 860.43,-74.08"/>
<polygon fill="#63b8ff" stroke="#63b8ff" points="734.43,-109.98 741.14,-104.33 738.28,-108.89 742.12,-107.79 742.12,-107.79 742.12,-107.79 738.28,-108.89 743.11,-111.25 734.43,-109.98 734.43,-109.98"/>
</a>
</g>
</g>
<!-- Node5 -->
<g id="Node000005" class="node">
<title>Node5</title>
<g id="a_Node000005"><a xlink:href="calibrationservice_8cpp.html" target="_top" xlink:title="Defines the CalibrationService and CalibrationServicePrivate classes.">
<polygon fill="white" stroke="#666666" points="700.55,-19 576.55,-19 576.55,0 700.55,0 700.55,-19"/>
<text text-anchor="middle" x="638.55" y="-7" font-family="Helvetica,sans-Serif" font-size="10.00">calibrationservice.cpp</text>
</a>
</g>
</g>
<!-- Node4&#45;&gt;Node5 -->
<g id="edge4_Node000004_Node000005" class="edge">
<title>Node4&#45;&gt;Node5</title>
<g id="a_edge4_Node000004_Node000005"><a xlink:title=" ">
<path fill="none" stroke="#63b8ff" d="M639.23,-46.67C639.06,-37.5 638.85,-26.52 638.71,-19.09"/>
<polygon fill="#63b8ff" stroke="#63b8ff" points="639.38,-54.75 635.63,-46.82 639.31,-50.75 639.23,-46.75 639.23,-46.75 639.23,-46.75 639.31,-50.75 642.83,-46.68 639.38,-54.75 639.38,-54.75"/>
</a>
</g>
</g>
<!-- Node6 -->
<g id="Node000006" class="node">
<title>Node6</title>
<g id="a_Node000006"><a xlink:href="pokitdevice_8cpp.html" target="_top" xlink:title="Defines the PokitDevice and PokitDevicePrivate classes.">
<polygon fill="white" stroke="#666666" points="558.55,-19 464.55,-19 464.55,0 558.55,0 558.55,-19"/>
<text text-anchor="middle" x="511.55" y="-7" font-family="Helvetica,sans-Serif" font-size="10.00">pokitdevice.cpp</text>
</a>
</g>
</g>
<!-- Node4&#45;&gt;Node6 -->
<g id="edge5_Node000004_Node000006" class="edge">
<title>Node4&#45;&gt;Node6</title>
<g id="a_edge5_Node000004_Node000006"><a xlink:title=" ">
<path fill="none" stroke="#63b8ff" d="M611.31,-51.81C587.5,-41.95 553.96,-28.06 532.49,-19.17"/>
<polygon fill="#63b8ff" stroke="#63b8ff" points="618.98,-54.98 610.21,-55.25 615.29,-53.45 611.59,-51.92 611.59,-51.92 611.59,-51.92 615.29,-53.45 612.97,-48.6 618.98,-54.98 618.98,-54.98"/>
</a>
</g>
</g>
<!-- Node7&#45;&gt;Node6 -->
<g id="edge8_Node000007_Node000006" class="edge">
<title>Node7&#45;&gt;Node6</title>
<g id="a_edge8_Node000007_Node000006"><a xlink:title=" ">
<path fill="none" stroke="#63b8ff" d="M721.06,-53.37C672.5,-43.44 599.26,-28.45 553.49,-19.08"/>
<polygon fill="#63b8ff" stroke="#63b8ff" points="728.93,-54.98 720.37,-56.91 725.01,-54.18 721.1,-53.38 721.1,-53.38 721.1,-53.38 725.01,-54.18 721.82,-49.85 728.93,-54.98 728.93,-54.98"/>
</a>
</g>
</g>
<!-- Node8 -->
<g id="Node000008" class="node">
<title>Node8</title>
<g id="a_Node000008"><a xlink:href="dataloggerservice_8cpp.html" target="_top" xlink:title="Defines the DataLoggerService and DataLoggerServicePrivate classes.">
<polygon fill="white" stroke="#666666" points="844.05,-19 719.05,-19 719.05,0 844.05,0 844.05,-19"/>
<text text-anchor="middle" x="781.55" y="-7" font-family="Helvetica,sans-Serif" font-size="10.00">dataloggerservice.cpp</text>
</a>
</g>
</g>
<!-- Node7&#45;&gt;Node8 -->
<g id="edge7_Node000007_Node000008" class="edge">
<title>Node7&#45;&gt;Node8</title>
<g id="a_edge7_Node000007_Node000008"><a xlink:title=" ">
<path fill="none" stroke="#63b8ff" d="M774.04,-46.67C775.94,-37.5 778.22,-26.52 779.76,-19.09"/>
<polygon fill="#63b8ff" stroke="#63b8ff" points="772.36,-54.75 770.46,-46.18 773.18,-50.83 773.99,-46.92 773.99,-46.92 773.99,-46.92 773.18,-50.83 777.51,-47.65 772.36,-54.75 772.36,-54.75"/>
</a>
</g>
</g>
<!-- Node9&#45;&gt;Node6 -->
<g id="edge11_Node000009_Node000006" class="edge">
<title>Node9&#45;&gt;Node6</title>
<g id="a_edge11_Node000009_Node000006"><a xlink:title=" ">
<path fill="none" stroke="#63b8ff" d="M280.34,-53.5C333.76,-43.56 414.82,-28.49 465.4,-19.08"/>
<polygon fill="#63b8ff" stroke="#63b8ff" points="272.34,-54.98 279.54,-49.98 276.27,-54.25 280.2,-53.52 280.2,-53.52 280.2,-53.52 276.27,-54.25 280.86,-57.06 272.34,-54.98 272.34,-54.98"/>
</a>
</g>
</g>
<!-- Node10 -->
<g id="Node000010" class="node">
<title>Node10</title>
<g id="a_Node000010"><a xlink:href="deviceinfoservice_8cpp.html" target="_top" xlink:title="Defines the DeviceInfoService and DeviceInfoServicePrivate classes.">
<polygon fill="white" stroke="#666666" points="142.05,-19 19.05,-19 19.05,0 142.05,0 142.05,-19"/>
<text text-anchor="middle" x="80.55" y="-7" font-family="Helvetica,sans-Serif" font-size="10.00">deviceinfoservice.cpp</text>
</a>
</g>
</g>
<!-- Node9&#45;&gt;Node10 -->
<g id="edge10_Node000009_Node000010" class="edge">
<title>Node9&#45;&gt;Node10</title>
<g id="a_edge10_Node000009_Node000010"><a xlink:title=" ">
<path fill="none" stroke="#63b8ff" d="M195.4,-52.19C168.18,-42.31 129.24,-28.18 104.43,-19.17"/>
<polygon fill="#63b8ff" stroke="#63b8ff" points="203.09,-54.98 194.34,-55.64 199.33,-53.62 195.57,-52.25 195.57,-52.25 195.57,-52.25 199.33,-53.62 196.8,-48.87 203.09,-54.98 203.09,-54.98"/>
</a>
</g>
</g>
<!-- Node11&#45;&gt;Node6 -->
<g id="edge14_Node000011_Node000006" class="edge">
<title>Node11&#45;&gt;Node6</title>
<g id="a_edge14_Node000011_Node000006"><a xlink:title=" ">
<path fill="none" stroke="#63b8ff" d="M946.35,-55.11C946.08,-55.07 945.81,-55.04 945.55,-55 778.32,-32.27 735.04,-39.67 567.55,-19 564.62,-18.64 561.61,-18.25 558.57,-17.83"/>
<polygon fill="#63b8ff" stroke="#63b8ff" points="954.29,-56.28 945.85,-58.68 950.34,-55.7 946.38,-55.11 946.38,-55.11 946.38,-55.11 950.34,-55.7 946.91,-51.55 954.29,-56.28 954.29,-56.28"/>
</a>
</g>
</g>
<!-- Node12 -->
<g id="Node000012" class="node">
<title>Node12</title>
<g id="a_Node000012"><a xlink:href="dsoservice_8cpp.html" target="_top" xlink:title="Defines the DsoService and DsoServicePrivate classes.">
<polygon fill="white" stroke="#666666" points="1350.05,-19 1261.05,-19 1261.05,0 1350.05,0 1350.05,-19"/>
<text text-anchor="middle" x="1305.55" y="-7" font-family="Helvetica,sans-Serif" font-size="10.00">dsoservice.cpp</text>
</a>
</g>
</g>
<!-- Node11&#45;&gt;Node12 -->
<g id="edge13_Node000011_Node000012" class="edge">
<title>Node11&#45;&gt;Node12</title>
<g id="a_edge13_Node000011_Node000012"><a xlink:title=" ">
<path fill="none" stroke="#63b8ff" d="M1040.88,-55.46C1100.62,-45.31 1202.58,-27.99 1260.97,-18.07"/>
<polygon fill="#63b8ff" stroke="#63b8ff" points="1032.75,-56.84 1040.03,-51.95 1036.69,-56.17 1040.63,-55.5 1040.63,-55.5 1040.63,-55.5 1036.69,-56.17 1041.24,-59.05 1032.75,-56.84 1032.75,-56.84"/>
</a>
</g>
</g>
<!-- Node13&#45;&gt;Node6 -->
<g id="edge17_Node000013_Node000006" class="edge">
<title>Node13&#45;&gt;Node6</title>
<g id="a_edge17_Node000013_Node000006"><a xlink:title=" ">
<path fill="none" stroke="#63b8ff" d="M396.7,-52.19C423.91,-42.31 462.85,-28.18 487.66,-19.17"/>
<polygon fill="#63b8ff" stroke="#63b8ff" points="389,-54.98 395.3,-48.87 392.76,-53.62 396.52,-52.25 396.52,-52.25 396.52,-52.25 392.76,-53.62 397.75,-55.64 389,-54.98 389,-54.98"/>
</a>
</g>
</g>
<!-- Node14 -->
<g id="Node000014" class="node">
<title>Node14</title>
<g id="a_Node000014"><a xlink:href="genericaccessservice_8cpp.html" target="_top" xlink:title="Defines the GenericAccessService and GenericAccessServicePrivate classes.">
<polygon fill="white" stroke="#666666" points="301.05,-19 160.05,-19 160.05,0 301.05,0 301.05,-19"/>
<text text-anchor="middle" x="230.55" y="-7" font-family="Helvetica,sans-Serif" font-size="10.00">genericaccessservice.cpp</text>
</a>
</g>
</g>
<!-- Node13&#45;&gt;Node14 -->
<g id="edge16_Node000013_Node000014" class="edge">
<title>Node13&#45;&gt;Node14</title>
<g id="a_edge16_Node000013_Node000014"><a xlink:title=" ">
<path fill="none" stroke="#63b8ff" d="M336.09,-51.94C310.96,-42.07 275.38,-28.1 252.63,-19.17"/>
<polygon fill="#63b8ff" stroke="#63b8ff" points="343.86,-54.98 335.09,-55.41 340.13,-53.52 336.41,-52.06 336.41,-52.06 336.41,-52.06 340.13,-53.52 337.73,-48.71 343.86,-54.98 343.86,-54.98"/>
</a>
</g>
</g>
<!-- Node15&#45;&gt;Node6 -->
<g id="edge20_Node000015_Node000006" class="edge">
<title>Node15&#45;&gt;Node6</title>
<g id="a_edge20_Node000015_Node000006"><a xlink:title=" ">
<path fill="none" stroke="#63b8ff" d="M508.13,-46.67C509,-37.5 510.03,-26.52 510.74,-19.09"/>
<polygon fill="#63b8ff" stroke="#63b8ff" points="507.37,-54.75 504.54,-46.45 507.75,-50.77 508.12,-46.78 508.12,-46.78 508.12,-46.78 507.75,-50.77 511.71,-47.12 507.37,-54.75 507.37,-54.75"/>
</a>
</g>
</g>
<!-- Node16 -->
<g id="Node000016" class="node">
<title>Node16</title>
<g id="a_Node000016"><a xlink:href="multimeterservice_8cpp.html" target="_top" xlink:title="Defines the MultimeterService and MultimeterServicePrivate classes.">
<polygon fill="white" stroke="#666666" points="446.05,-19 319.05,-19 319.05,0 446.05,0 446.05,-19"/>
<text text-anchor="middle" x="382.55" y="-7" font-family="Helvetica,sans-Serif" font-size="10.00">multimeterservice.cpp</text>
</a>
</g>
</g>
<!-- Node15&#45;&gt;Node16 -->
<g id="edge19_Node000015_Node000016" class="edge">
<title>Node15&#45;&gt;Node16</title>
<g id="a_edge19_Node000015_Node000016"><a xlink:title=" ">
<path fill="none" stroke="#63b8ff" d="M479.19,-51.81C456.13,-41.95 423.64,-28.06 402.83,-19.17"/>
<polygon fill="#63b8ff" stroke="#63b8ff" points="486.62,-54.98 477.85,-55.15 482.95,-53.41 479.27,-51.84 479.27,-51.84 479.27,-51.84 482.95,-53.41 480.68,-48.53 486.62,-54.98 486.62,-54.98"/>
</a>
</g>
</g>
<!-- Node17&#45;&gt;Node6 -->
<g id="edge23_Node000017_Node000006" class="edge">
<title>Node17&#45;&gt;Node6</title>
<g id="a_edge23_Node000017_Node000006"><a xlink:title=" ">
<path fill="none" stroke="#63b8ff" d="M836.8,-55.04C836.72,-55.02 836.63,-55.01 836.55,-55 717.18,-37.62 686.96,-36.05 567.55,-19 564.63,-18.58 561.62,-18.15 558.59,-17.7"/>
<polygon fill="#63b8ff" stroke="#63b8ff" points="844.89,-56.24 836.45,-58.62 840.94,-55.65 836.98,-55.06 836.98,-55.06 836.98,-55.06 840.94,-55.65 837.51,-51.5 844.89,-56.24 844.89,-56.24"/>
</a>
</g>
</g>
<!-- Node17&#45;&gt;Node8 -->
<g id="edge22_Node000017_Node000008" class="edge">
<title>Node17&#45;&gt;Node8</title>
<g id="a_edge22_Node000017_Node000008"><a xlink:title=" ">
<path fill="none" stroke="#63b8ff" d="M865.7,-51.42C845.48,-41.59 817.43,-27.95 799.38,-19.17"/>
<polygon fill="#63b8ff" stroke="#63b8ff" points="873.03,-54.98 864.26,-54.72 869.44,-53.24 865.84,-51.49 865.84,-51.49 865.84,-51.49 869.44,-53.24 867.41,-48.25 873.03,-54.98 873.03,-54.98"/>
</a>
</g>
</g>
<!-- Node18 -->
<g id="Node000018" class="node">
<title>Node18</title>
<g id="a_Node000018"><a xlink:href="pokitdiscoveryagent_8cpp.html" target="_top" xlink:title="Defines the PokitDiscoveryAgent and PokitDiscoveryAgentPrivate classes.">
<polygon fill="white" stroke="#666666" points="1120.05,-19 983.05,-19 983.05,0 1120.05,0 1120.05,-19"/>
<text text-anchor="middle" x="1051.55" y="-7" font-family="Helvetica,sans-Serif" font-size="10.00">pokitdiscoveryagent.cpp</text>
</a>
</g>
</g>
<!-- Node17&#45;&gt;Node18 -->
<g id="edge24_Node000017_Node000018" class="edge">
<title>Node17&#45;&gt;Node18</title>
<g id="a_edge24_Node000017_Node000018"><a xlink:title=" ">
<path fill="none" stroke="#63b8ff" d="M924.15,-52.44C954.29,-42.52 997.9,-28.16 1025.48,-19.08"/>
<polygon fill="#63b8ff" stroke="#63b8ff" points="916.41,-54.98 922.89,-49.06 920.21,-53.73 924.01,-52.48 924.01,-52.48 924.01,-52.48 920.21,-53.73 925.14,-55.9 916.41,-54.98 916.41,-54.98"/>
</a>
</g>
</g>
<!-- Node19 -->
<g id="Node000019" class="node">
<title>Node19</title>
<g id="a_Node000019"><a xlink:href="pokitproducts_8cpp.html" target="_top" xlink:title="Defines the PokitProduct helper functions.">
<polygon fill="white" stroke="#666666" points="1242.55,-19 1138.55,-19 1138.55,0 1242.55,0 1242.55,-19"/>
<text text-anchor="middle" x="1190.55" y="-7" font-family="Helvetica,sans-Serif" font-size="10.00">pokitproducts.cpp</text>
</a>
</g>
</g>
<!-- Node17&#45;&gt;Node19 -->
<g id="edge25_Node000017_Node000019" class="edge">
<title>Node17&#45;&gt;Node19</title>
<g id="a_edge25_Node000017_Node000019"><a xlink:title=" ">
<path fill="none" stroke="#63b8ff" d="M944.18,-54.02C1000.46,-44.08 1088.14,-28.59 1142.31,-19.02"/>
<polygon fill="#63b8ff" stroke="#63b8ff" points="936.11,-55.45 943.36,-50.51 940.05,-54.75 943.99,-54.06 943.99,-54.06 943.99,-54.06 940.05,-54.75 944.61,-57.6 936.11,-55.45 936.11,-55.45"/>
</a>
</g>
</g>
<!-- Node20 -->
<g id="Node000020" class="node">
<title>Node20</title>
<g id="a_Node000020"><a xlink:href="statusservice_8cpp.html" target="_top" xlink:title="Defines the StatusService and StatusServicePrivate classes.">
<polygon fill="white" stroke="#666666" points="964.55,-19 862.55,-19 862.55,0 964.55,0 964.55,-19"/>
<text text-anchor="middle" x="913.55" y="-7" font-family="Helvetica,sans-Serif" font-size="10.00">statusservice.cpp</text>
</a>
</g>
</g>
<!-- Node17&#45;&gt;Node20 -->
<g id="edge26_Node000017_Node000020" class="edge">
<title>Node17&#45;&gt;Node20</title>
<g id="a_edge26_Node000017_Node000020"><a xlink:title=" ">
<path fill="none" stroke="#63b8ff" d="M897.6,-47.24C901.63,-37.95 906.53,-26.68 909.82,-19.09"/>
<polygon fill="#63b8ff" stroke="#63b8ff" points="894.34,-54.75 894.23,-45.98 895.94,-51.08 897.53,-47.41 897.53,-47.41 897.53,-47.41 895.94,-51.08 900.83,-48.84 894.34,-54.75 894.34,-54.75"/>
</a>
</g>
</g>
<!-- Node21&#45;&gt;Node3 -->
<g id="edge28_Node000021_Node000003" class="edge">
<title>Node21&#45;&gt;Node3</title>
<g id="a_edge28_Node000021_Node000003"><a xlink:title=" ">
<path fill="none" stroke="#63b8ff" d="M83.55,-101.67C83.55,-92.5 83.55,-81.52 83.55,-74.09"/>
<polygon fill="#63b8ff" stroke="#63b8ff" points="83.55,-109.75 79.95,-101.75 83.55,-105.75 83.55,-101.75 83.55,-101.75 83.55,-101.75 83.55,-105.75 87.15,-101.75 83.55,-109.75 83.55,-109.75"/>
</a>
</g>
</g>
<!-- Node21&#45;&gt;Node6 -->
<g id="edge29_Node000021_Node000006" class="edge">
<title>Node21&#45;&gt;Node6</title>
<g id="a_edge29_Node000021_Node000006"><a xlink:title=" ">
<path fill="none" stroke="#63b8ff" d="M50.47,-106.91C21.48,-95.02 -13.32,-75.44 5.55,-55 39.49,-18.22 404.82,-24.69 454.55,-19 457.73,-18.64 461,-18.23 464.3,-17.8"/>
<polygon fill="#63b8ff" stroke="#63b8ff" points="58.06,-109.9 49.3,-110.31 54.34,-108.43 50.62,-106.96 50.62,-106.96 50.62,-106.96 54.34,-108.43 51.94,-103.62 58.06,-109.9 58.06,-109.9"/>
</a>
</g>
</g>
<!-- Node22&#45;&gt;Node18 -->
<g id="edge31_Node000022_Node000018" class="edge">
<title>Node22&#45;&gt;Node18</title>
<g id="a_edge31_Node000022_Node000018"><a xlink:title=" ">
<path fill="none" stroke="#63b8ff" d="M1116.28,-157.05C1101.21,-122.93 1066.99,-45.45 1055.44,-19.31"/>
<polygon fill="#63b8ff" stroke="#63b8ff" points="1119.68,-164.74 1113.15,-158.87 1118.06,-161.08 1116.44,-157.42 1116.44,-157.42 1116.44,-157.42 1118.06,-161.08 1119.74,-155.96 1119.68,-164.74 1119.68,-164.74"/>
</a>
</g>
</g>
<!-- Node23&#45;&gt;Node12 -->
<g id="edge33_Node000023_Node000012" class="edge">
<title>Node23&#45;&gt;Node12</title>
<g id="a_edge33_Node000023_Node000012"><a xlink:title=" ">
<path fill="none" stroke="#63b8ff" d="M1236.41,-50.77C1253.2,-40.99 1275.92,-27.75 1290.66,-19.17"/>
<polygon fill="#63b8ff" stroke="#63b8ff" points="1229.17,-54.98 1234.27,-47.85 1232.62,-52.97 1236.08,-50.96 1236.08,-50.96 1236.08,-50.96 1232.62,-52.97 1237.89,-54.07 1229.17,-54.98 1229.17,-54.98"/>
</a>
</g>
</g>
<!-- Node23&#45;&gt;Node19 -->
<g id="edge35_Node000023_Node000019" class="edge">
<title>Node23&#45;&gt;Node19</title>
<g id="a_edge35_Node000023_Node000019"><a xlink:title=" ">
<path fill="none" stroke="#63b8ff" d="M1207.18,-47.24C1202.98,-37.95 1197.87,-26.68 1194.44,-19.09"/>
<polygon fill="#63b8ff" stroke="#63b8ff" points="1210.58,-54.75 1204,-48.95 1208.93,-51.1 1207.28,-47.46 1207.28,-47.46 1207.28,-47.46 1208.93,-51.1 1210.56,-45.98 1210.58,-54.75 1210.58,-54.75"/>
</a>
</g>
</g>
<!-- Node24 -->
<g id="Node000024" class="node">
<title>Node24</title>
<g id="a_Node000024"><a xlink:href="pokitmeter_8cpp.html" target="_top" xlink:title="Declares the PokitMeter namespace.">
<polygon fill="white" stroke="#666666" points="1458.55,-19 1368.55,-19 1368.55,0 1458.55,0 1458.55,-19"/>
<text text-anchor="middle" x="1413.55" y="-7" font-family="Helvetica,sans-Serif" font-size="10.00">pokitmeter.cpp</text>
</a>
</g>
</g>
<!-- Node23&#45;&gt;Node24 -->
<g id="edge34_Node000023_Node000024" class="edge">
<title>Node23&#45;&gt;Node24</title>
<g id="a_edge34_Node000023_Node000024"><a xlink:title=" ">
<path fill="none" stroke="#63b8ff" d="M1254.66,-52.82C1291.96,-42.88 1346.8,-28.28 1381.32,-19.08"/>
<polygon fill="#63b8ff" stroke="#63b8ff" points="1246.52,-54.98 1253.32,-49.45 1250.38,-53.96 1254.25,-52.93 1254.25,-52.93 1254.25,-52.93 1250.38,-53.96 1255.18,-56.4 1246.52,-54.98 1246.52,-54.98"/>
</a>
</g>
</g>
<!-- Node25&#45;&gt;Node12 -->
<g id="edge37_Node000025_Node000012" class="edge">
<title>Node25&#45;&gt;Node12</title>
<g id="a_edge37_Node000025_Node000012"><a xlink:title=" ">
<path fill="none" stroke="#63b8ff" d="M1305.55,-46.67C1305.55,-37.5 1305.55,-26.52 1305.55,-19.09"/>
<polygon fill="#63b8ff" stroke="#63b8ff" points="1305.55,-54.75 1301.95,-46.75 1305.55,-50.75 1305.55,-46.75 1305.55,-46.75 1305.55,-46.75 1305.55,-50.75 1309.15,-46.75 1305.55,-54.75 1305.55,-54.75"/>
</a>
</g>
</g>
<!-- Node25&#45;&gt;Node19 -->
<g id="edge39_Node000025_Node000019" class="edge">
<title>Node25&#45;&gt;Node19</title>
<g id="a_edge39_Node000025_Node000019"><a xlink:title=" ">
<path fill="none" stroke="#63b8ff" d="M1279.62,-51.55C1258.26,-41.71 1228.49,-27.98 1209.36,-19.17"/>
<polygon fill="#63b8ff" stroke="#63b8ff" points="1287.07,-54.98 1278.3,-54.91 1283.44,-53.31 1279.8,-51.64 1279.8,-51.64 1279.8,-51.64 1283.44,-53.31 1281.31,-48.37 1287.07,-54.98 1287.07,-54.98"/>
</a>
</g>
</g>
<!-- Node26 -->
<g id="Node000026" class="node">
<title>Node26</title>
<g id="a_Node000026"><a xlink:href="pokitpro_8cpp.html" target="_top" xlink:title="Defined the PokitPro helper functions.">
<polygon fill="white" stroke="#666666" points="1554.05,-19 1477.05,-19 1477.05,0 1554.05,0 1554.05,-19"/>
<text text-anchor="middle" x="1515.55" y="-7" font-family="Helvetica,sans-Serif" font-size="10.00">pokitpro.cpp</text>
</a>
</g>
</g>
<!-- Node25&#45;&gt;Node26 -->
<g id="edge38_Node000025_Node000026" class="edge">
<title>Node25&#45;&gt;Node26</title>
<g id="a_edge38_Node000025_Node000026"><a xlink:title=" ">
<path fill="none" stroke="#63b8ff" d="M1346.93,-53.06C1386.37,-43.1 1445.02,-28.3 1481.73,-19.03"/>
<polygon fill="#63b8ff" stroke="#63b8ff" points="1338.82,-55.1 1345.7,-49.65 1342.7,-54.12 1346.58,-53.14 1346.58,-53.14 1346.58,-53.14 1342.7,-54.12 1347.46,-56.63 1338.82,-55.1 1338.82,-55.1"/>
</a>
</g>
</g>
<!-- Node27&#45;&gt;Node2 -->
<g id="edge41_Node000027_Node000002" class="edge">
<title>Node27&#45;&gt;Node2</title>
<g id="a_edge41_Node000027_Node000002"><a xlink:title=" ">
<path fill="none" stroke="#63b8ff" d="M942.07,-163.61C887.25,-153.66 803.57,-138.47 751.57,-129.03"/>
<polygon fill="#63b8ff" stroke="#63b8ff" points="950.28,-165.1 941.76,-167.22 946.34,-164.39 942.41,-163.67 942.41,-163.67 942.41,-163.67 946.34,-164.39 943.05,-160.13 950.28,-165.1 950.28,-165.1"/>
</a>
</g>
</g>
<!-- Node27&#45;&gt;Node11 -->
<g id="edge42_Node000027_Node000011" class="edge">
<title>Node27&#45;&gt;Node11</title>
<g id="a_edge42_Node000027_Node000011"><a xlink:title=" ">
<path fill="none" stroke="#63b8ff" d="M996.07,-156.38C995.42,-133.01 994.28,-91.97 993.79,-74.16"/>
<polygon fill="#63b8ff" stroke="#63b8ff" points="996.3,-164.66 992.48,-156.76 996.19,-160.66 996.08,-156.66 996.08,-156.66 996.08,-156.66 996.19,-160.66 999.68,-156.56 996.3,-164.66 996.3,-164.66"/>
</a>
</g>
</g>
<!-- Node27&#45;&gt;Node18 -->
<g id="edge43_Node000027_Node000018" class="edge">
<title>Node27&#45;&gt;Node18</title>
<g id="a_edge43_Node000027_Node000018"><a xlink:title=" ">
<path fill="none" stroke="#63b8ff" d="M1005.31,-157.69C1015.57,-138.48 1032.34,-104.81 1041.55,-74 1047.24,-54.97 1049.85,-31.7 1050.91,-19.29"/>
<polygon fill="#63b8ff" stroke="#63b8ff" points="1001.48,-164.76 1002.13,-156.01 1003.38,-161.24 1005.29,-157.73 1005.29,-157.73 1005.29,-157.73 1003.38,-161.24 1008.46,-159.44 1001.48,-164.76 1001.48,-164.76"/>
</a>
</g>
</g>
<!-- Node27&#45;&gt;Node19 -->
<g id="edge44_Node000027_Node000019" class="edge">
<title>Node27&#45;&gt;Node19</title>
<g id="a_edge44_Node000027_Node000019"><a xlink:title=" ">
<path fill="none" stroke="#63b8ff" d="M1013.29,-159.43C1052.25,-126.7 1148.11,-46.16 1180.02,-19.34"/>
<polygon fill="#63b8ff" stroke="#63b8ff" points="1006.7,-164.97 1010.51,-157.06 1009.77,-162.39 1012.83,-159.82 1012.83,-159.82 1012.83,-159.82 1009.77,-162.39 1015.14,-162.58 1006.7,-164.97 1006.7,-164.97"/>
</a>
</g>
</g>
</g>
</svg>
