<?xml version="1.0" encoding="UTF-8" standalone="no"?>
<!DOCTYPE svg PUBLIC "-//W3C//DTD SVG 1.1//EN"
 "http://www.w3.org/Graphics/SVG/1.1/DTD/svg11.dtd">
<!-- Generated by graphviz version 2.43.0 (0)
 -->
<!-- Title: statusservice.cpp Pages: 1 -->
<svg width="637pt" height="247pt"
 viewBox="0.00 0.00 637.00 247.00" xmlns="http://www.w3.org/2000/svg" xmlns:xlink="http://www.w3.org/1999/xlink">
<g id="graph0" class="graph" transform="scale(1 1) rotate(0) translate(4 243)">
<title>statusservice.cpp</title>
<!-- Node1 -->
<g id="node1" class="node">
<title>Node1</title>
<g id="a_node1"><a xlink:title="Defines the StatusService and StatusServicePrivate classes.">
<polygon fill="#999999" stroke="#666666" points="549.5,-239 447.5,-239 447.5,-220 549.5,-220 549.5,-239"/>
<text text-anchor="middle" x="498.5" y="-227" font-family="Helvetica,sans-Serif" font-size="10.00">statusservice.cpp</text>
</a>
</g>
</g>
<!-- Node2 -->
<g id="node2" class="node">
<title>Node2</title>
<g id="a_node2"><a xlink:href="statusservice_8h.html" target="_top" xlink:title="Declares the StatusService class.">
<polygon fill="white" stroke="#666666" points="429.5,-184 301.5,-184 301.5,-165 429.5,-165 429.5,-184"/>
<text text-anchor="middle" x="365.5" y="-172" font-family="Helvetica,sans-Serif" font-size="10.00">qtpokit/statusservice.h</text>
</a>
</g>
</g>
<!-- Node1&#45;&gt;Node2 -->
<g id="edge1" class="edge">
<title>Node1&#45;&gt;Node2</title>
<path fill="none" stroke="#63b8ff" d="M477.13,-219.98C454.87,-211.11 419.83,-197.15 394.95,-187.24"/>
<polygon fill="#63b8ff" stroke="#63b8ff" points="387.26,-184.17 396.02,-183.79 390.97,-185.65 394.69,-187.13 394.69,-187.13 394.69,-187.13 390.97,-185.65 393.36,-190.48 387.26,-184.17 387.26,-184.17"/>
</g>
<!-- Node11 -->
<g id="node11" class="node">
<title>Node11</title>
<g id="a_node11"><a xlink:title=" ">
<polygon fill="#e0e0e0" stroke="#999999" points="549.5,-184 447.5,-184 447.5,-165 549.5,-165 549.5,-184"/>
<text text-anchor="middle" x="498.5" y="-172" font-family="Helvetica,sans-Serif" font-size="10.00">statusservice_p.h</text>
</a>
</g>
</g>
<!-- Node1&#45;&gt;Node11 -->
<g id="edge10" class="edge">
<title>Node1&#45;&gt;Node11</title>
<path fill="none" stroke="#63b8ff" d="M498.5,-219.75C498.5,-212.26 498.5,-201.28 498.5,-192.13"/>
<polygon fill="#63b8ff" stroke="#63b8ff" points="498.5,-184.09 502.1,-192.09 498.5,-188.09 498.5,-192.09 498.5,-192.09 498.5,-192.09 498.5,-188.09 494.9,-192.09 498.5,-184.09 498.5,-184.09"/>
</g>
<!-- Node12 -->
<g id="node12" class="node">
<title>Node12</title>
<g id="a_node12"><a xlink:title=" ">
<polygon fill="#e0e0e0" stroke="#999999" points="629,-184 568,-184 568,-165 629,-165 629,-184"/>
<text text-anchor="middle" x="598.5" y="-172" font-family="Helvetica,sans-Serif" font-size="10.00">QtEndian</text>
</a>
</g>
</g>
<!-- Node1&#45;&gt;Node12 -->
<g id="edge11" class="edge">
<title>Node1&#45;&gt;Node12</title>
<path fill="none" stroke="#63b8ff" d="M514.57,-219.98C530.8,-211.38 556.06,-197.99 574.64,-188.15"/>
<polygon fill="#63b8ff" stroke="#63b8ff" points="582.14,-184.17 576.76,-191.1 578.61,-186.04 575.07,-187.92 575.07,-187.92 575.07,-187.92 578.61,-186.04 573.39,-184.74 582.14,-184.17 582.14,-184.17"/>
</g>
<!-- Node3 -->
<g id="node3" class="node">
<title>Node3</title>
<g id="a_node3"><a xlink:href="abstractpokitservice_8h.html" target="_top" xlink:title="Declares the AbstractPokitService class.">
<polygon fill="white" stroke="#666666" points="232,-129 107,-129 107,-110 232,-110 232,-129"/>
<text text-anchor="middle" x="169.5" y="-117" font-family="Helvetica,sans-Serif" font-size="10.00">abstractpokitservice.h</text>
</a>
</g>
</g>
<!-- Node2&#45;&gt;Node3 -->
<g id="edge2" class="edge">
<title>Node2&#45;&gt;Node3</title>
<path fill="none" stroke="#63b8ff" d="M334.01,-164.98C300.11,-155.82 246.09,-141.21 209.28,-131.26"/>
<polygon fill="#63b8ff" stroke="#63b8ff" points="201.24,-129.08 209.9,-127.7 205.1,-130.13 208.96,-131.17 208.96,-131.17 208.96,-131.17 205.1,-130.13 208.02,-134.65 201.24,-129.08 201.24,-129.08"/>
</g>
<!-- Node8 -->
<g id="node8" class="node">
<title>Node8</title>
<g id="a_node8"><a xlink:title=" ">
<polygon fill="#e0e0e0" stroke="#999999" points="360.5,-129 250.5,-129 250.5,-110 360.5,-110 360.5,-129"/>
<text text-anchor="middle" x="305.5" y="-117" font-family="Helvetica,sans-Serif" font-size="10.00">QBluetoothAddress</text>
</a>
</g>
</g>
<!-- Node2&#45;&gt;Node8 -->
<g id="edge7" class="edge">
<title>Node2&#45;&gt;Node8</title>
<path fill="none" stroke="#63b8ff" d="M355.86,-164.98C346.56,-156.77 332.3,-144.18 321.33,-134.49"/>
<polygon fill="#63b8ff" stroke="#63b8ff" points="315.32,-129.17 323.69,-131.77 318.31,-131.82 321.31,-134.47 321.31,-134.47 321.31,-134.47 318.31,-131.82 318.93,-137.16 315.32,-129.17 315.32,-129.17"/>
</g>
<!-- Node9 -->
<g id="node9" class="node">
<title>Node9</title>
<g id="a_node9"><a xlink:title=" ">
<polygon fill="#e0e0e0" stroke="#999999" points="472.5,-129 378.5,-129 378.5,-110 472.5,-110 472.5,-129"/>
<text text-anchor="middle" x="425.5" y="-117" font-family="Helvetica,sans-Serif" font-size="10.00">QBluetoothUuid</text>
</a>
</g>
</g>
<!-- Node2&#45;&gt;Node9 -->
<g id="edge8" class="edge">
<title>Node2&#45;&gt;Node9</title>
<path fill="none" stroke="#63b8ff" d="M375.14,-164.98C384.44,-156.77 398.7,-144.18 409.67,-134.49"/>
<polygon fill="#63b8ff" stroke="#63b8ff" points="415.68,-129.17 412.07,-137.16 412.69,-131.82 409.69,-134.47 409.69,-134.47 409.69,-134.47 412.69,-131.82 407.31,-131.77 415.68,-129.17 415.68,-129.17"/>
</g>
<!-- Node10 -->
<g id="node10" class="node">
<title>Node10</title>
<g id="a_node10"><a xlink:title=" ">
<polygon fill="#e0e0e0" stroke="#999999" points="590,-129 491,-129 491,-110 590,-110 590,-129"/>
<text text-anchor="middle" x="540.5" y="-117" font-family="Helvetica,sans-Serif" font-size="10.00">QVersionNumber</text>
</a>
</g>
</g>
<!-- Node2&#45;&gt;Node10 -->
<g id="edge9" class="edge">
<title>Node2&#45;&gt;Node10</title>
<path fill="none" stroke="#63b8ff" d="M393.62,-164.98C423.63,-155.89 471.3,-141.46 504.15,-131.51"/>
<polygon fill="#63b8ff" stroke="#63b8ff" points="512.16,-129.08 505.55,-134.85 508.33,-130.24 504.51,-131.4 504.51,-131.4 504.51,-131.4 508.33,-130.24 503.46,-127.96 512.16,-129.08 512.16,-129.08"/>
</g>
<!-- Node4 -->
<g id="node4" class="node">
<title>Node4</title>
<g id="a_node4"><a xlink:href="qtpokit__global_8h.html" target="_top" xlink:title="Global QtPokit library macros.">
<polygon fill="white" stroke="#666666" points="95,-74 0,-74 0,-55 95,-55 95,-74"/>
<text text-anchor="middle" x="47.5" y="-62" font-family="Helvetica,sans-Serif" font-size="10.00">qtpokit_global.h</text>
</a>
</g>
</g>
<!-- Node3&#45;&gt;Node4 -->
<g id="edge3" class="edge">
<title>Node3&#45;&gt;Node4</title>
<path fill="none" stroke="#63b8ff" d="M149.9,-109.98C129.57,-101.15 97.61,-87.27 74.81,-77.36"/>
<polygon fill="#63b8ff" stroke="#63b8ff" points="67.46,-74.17 76.23,-74.06 71.13,-75.76 74.8,-77.36 74.8,-77.36 74.8,-77.36 71.13,-75.76 73.36,-80.66 67.46,-74.17 67.46,-74.17"/>
</g>
<!-- Node6 -->
<g id="node6" class="node">
<title>Node6</title>
<g id="a_node6"><a xlink:title=" ">
<polygon fill="#e0e0e0" stroke="#999999" points="226,-74 113,-74 113,-55 226,-55 226,-74"/>
<text text-anchor="middle" x="169.5" y="-62" font-family="Helvetica,sans-Serif" font-size="10.00">QLowEnergyService</text>
</a>
</g>
</g>
<!-- Node3&#45;&gt;Node6 -->
<g id="edge5" class="edge">
<title>Node3&#45;&gt;Node6</title>
<path fill="none" stroke="#63b8ff" d="M169.5,-109.75C169.5,-102.26 169.5,-91.28 169.5,-82.13"/>
<polygon fill="#63b8ff" stroke="#63b8ff" points="169.5,-74.09 173.1,-82.09 169.5,-78.09 169.5,-82.09 169.5,-82.09 169.5,-82.09 169.5,-78.09 165.9,-82.09 169.5,-74.09 169.5,-74.09"/>
</g>
<!-- Node7 -->
<g id="node7" class="node">
<title>Node7</title>
<g id="a_node7"><a xlink:title=" ">
<polygon fill="#e0e0e0" stroke="#999999" points="300.5,-74 244.5,-74 244.5,-55 300.5,-55 300.5,-74"/>
<text text-anchor="middle" x="272.5" y="-62" font-family="Helvetica,sans-Serif" font-size="10.00">QObject</text>
</a>
</g>
</g>
<!-- Node3&#45;&gt;Node7 -->
<g id="edge6" class="edge">
<title>Node3&#45;&gt;Node7</title>
<path fill="none" stroke="#63b8ff" d="M186.05,-109.98C202.92,-101.3 229.26,-87.75 248.43,-77.88"/>
<polygon fill="#63b8ff" stroke="#63b8ff" points="255.65,-74.17 250.18,-81.03 252.09,-76 248.54,-77.83 248.54,-77.83 248.54,-77.83 252.09,-76 246.89,-74.63 255.65,-74.17 255.65,-74.17"/>
</g>
<!-- Node5 -->
<g id="node5" class="node">
<title>Node5</title>
<g id="a_node5"><a xlink:title=" ">
<polygon fill="#e0e0e0" stroke="#999999" points="77,-19 18,-19 18,0 77,0 77,-19"/>
<text text-anchor="middle" x="47.5" y="-7" font-family="Helvetica,sans-Serif" font-size="10.00">QtGlobal</text>
</a>
</g>
</g>
<!-- Node4&#45;&gt;Node5 -->
<g id="edge4" class="edge">
<title>Node4&#45;&gt;Node5</title>
<path fill="none" stroke="#63b8ff" d="M47.5,-54.75C47.5,-47.26 47.5,-36.28 47.5,-27.13"/>
<polygon fill="#63b8ff" stroke="#63b8ff" points="47.5,-19.09 51.1,-27.09 47.5,-23.09 47.5,-27.09 47.5,-27.09 47.5,-27.09 47.5,-23.09 43.9,-27.09 47.5,-19.09 47.5,-19.09"/>
</g>
</g>
</svg>
