<?xml version="1.0" encoding="UTF-8" standalone="no"?>
<!DOCTYPE svg PUBLIC "-//W3C//DTD SVG 1.1//EN"
 "http://www.w3.org/Graphics/SVG/1.1/DTD/svg11.dtd">
<!-- Generated by graphviz version 2.43.0 (0)
 -->
<!-- Title: StatusService::CharacteristicUuids Pages: 1 -->
<svg width="199pt" height="241pt"
 viewBox="0.00 0.00 198.50 241.00" xmlns="http://www.w3.org/2000/svg" xmlns:xlink="http://www.w3.org/1999/xlink">
<g id="graph0" class="graph" transform="scale(1 1) rotate(0) translate(4 237)">
<title>StatusService::CharacteristicUuids</title>
<!-- Node1 -->
<g id="Node000001" class="node">
<title>Node1</title>
<g id="a_Node000001"><a xlink:title="Characteristics available via the Pokit Status service.">
<polygon fill="#999999" stroke="#666666" points="157,-30 0,-30 0,0 157,0 157,-30"/>
<text text-anchor="start" x="8" y="-18" font-family="Helvetica,sans-Serif" font-size="10.00">StatusService::Characteristic</text>
<text text-anchor="middle" x="78.5" y="-7" font-family="Helvetica,sans-Serif" font-size="10.00">Uuids</text>
</a>
</g>
</g>
<!-- Node2 -->
<g id="Node000002" class="node">
<title>Node2</title>
<g id="a_Node000002"><a target="_parent" xlink:href="https://doc.qt.io/qt-5/qbluetoothuuid.html" xlink:title=" ">
<polygon fill="white" stroke="#bfbfbf" points="125.5,-177 31.5,-177 31.5,-158 125.5,-158 125.5,-177"/>
<text text-anchor="middle" x="78.5" y="-165" font-family="Helvetica,sans-Serif" font-size="10.00">QBluetoothUuid</text>
</a>
</g>
</g>
<!-- Node2&#45;&gt;Node1 -->
<g id="edge1_Node000001_Node000002" class="edge">
<title>Node2&#45;&gt;Node1</title>
<g id="a_edge1_Node000001_Node000002"><a xlink:title=" ">
<path fill="none" stroke="#9a32cd" stroke-dasharray="5,2" d="M78.5,-149.84C78.5,-120.08 78.5,-58.27 78.5,-30.3"/>
<polygon fill="#9a32cd" stroke="#9a32cd" points="78.5,-157.98 74.9,-149.98 78.5,-153.98 78.5,-149.98 78.5,-149.98 78.5,-149.98 78.5,-153.98 82.1,-149.98 78.5,-157.98 78.5,-157.98"/>
</a>
</g>
<text text-anchor="start" x="81.5" y="-129" font-family="Helvetica,sans-Serif" font-size="10.00" fill="grey">buttonPress</text>
<text text-anchor="start" x="81.5" y="-114" font-family="Helvetica,sans-Serif" font-size="10.00" fill="grey">deviceCharacteristics</text>
<text text-anchor="start" x="81.5" y="-99" font-family="Helvetica,sans-Serif" font-size="10.00" fill="grey">flashLed</text>
<text text-anchor="start" x="81.5" y="-84" font-family="Helvetica,sans-Serif" font-size="10.00" fill="grey">name</text>
<text text-anchor="start" x="81.5" y="-69" font-family="Helvetica,sans-Serif" font-size="10.00" fill="grey">status</text>
<text text-anchor="start" x="81.5" y="-54" font-family="Helvetica,sans-Serif" font-size="10.00" fill="grey">torch</text>
</g>
<!-- Node3 -->
<g id="Node000003" class="node">
<title>Node3</title>
<g id="a_Node000003"><a target="_parent" xlink:href="https://doc.qt.io/qt-5/quuid.html" xlink:title=" ">
<polygon fill="white" stroke="#bfbfbf" points="102,-233 55,-233 55,-214 102,-214 102,-233"/>
<text text-anchor="middle" x="78.5" y="-221" font-family="Helvetica,sans-Serif" font-size="10.00">QUuid</text>
</a>
</g>
</g>
<!-- Node3&#45;&gt;Node2 -->
<g id="edge2_Node000002_Node000003" class="edge">
<title>Node3&#45;&gt;Node2</title>
<g id="a_edge2_Node000002_Node000003"><a xlink:title=" ">
<path fill="none" stroke="#63b8ff" d="M78.5,-205.36C78.5,-196 78.5,-184.83 78.5,-177.25"/>
<polygon fill="#63b8ff" stroke="#63b8ff" points="78.5,-213.58 74.9,-205.58 78.5,-209.58 78.5,-205.58 78.5,-205.58 78.5,-205.58 78.5,-209.58 82.1,-205.58 78.5,-213.58 78.5,-213.58"/>
</a>
</g>
</g>
</g>
</svg>
