<?xml version="1.0" encoding="UTF-8" standalone="no"?>
<!DOCTYPE svg PUBLIC "-//W3C//DTD SVG 1.1//EN"
 "http://www.w3.org/Graphics/SVG/1.1/DTD/svg11.dtd">
<!-- Generated by graphviz version 2.43.0 (0)
 -->
<!-- Title: DeviceInfoService::CharacteristicUuids Pages: 1 -->
<svg width="160pt" height="204pt"
 viewBox="0.00 0.00 160.00 204.00" xmlns="http://www.w3.org/2000/svg" xmlns:xlink="http://www.w3.org/1999/xlink">
<g id="graph0" class="graph" transform="scale(1 1) rotate(0) translate(4 200)">
<title>DeviceInfoService::CharacteristicUuids</title>
<!-- Node1 -->
<g id="node1" class="node">
<title>Node1</title>
<g id="a_node1"><a xlink:title="Characteristics available via the Device Info service.">
<polygon fill="#999999" stroke="#666666" points="112,-30 0,-30 0,0 112,0 112,-30"/>
<text text-anchor="start" x="8" y="-18" font-family="Helvetica,sans-Serif" font-size="10.00">DeviceInfoService::</text>
<text text-anchor="middle" x="56" y="-7" font-family="Helvetica,sans-Serif" font-size="10.00">CharacteristicUuids</text>
</a>
</g>
</g>
<!-- Node2 -->
<g id="node2" class="node">
<title>Node2</title>
<g id="a_node2"><a target="_parent" xlink:href="https://doc.qt.io/qt-5/qbluetoothuuid.html" xlink:title=" ">
<polygon fill="white" stroke="#bfbfbf" points="103,-140 9,-140 9,-121 103,-121 103,-140"/>
<text text-anchor="middle" x="56" y="-128" font-family="Helvetica,sans-Serif" font-size="10.00">QBluetoothUuid</text>
</a>
</g>
</g>
<!-- Node2&#45;&gt;Node1 -->
<g id="edge1" class="edge">
<title>Node2&#45;&gt;Node1</title>
<path fill="none" stroke="#9a32cd" stroke-dasharray="5,2" d="M56,-110.96C56,-88.34 56,-50.61 56,-30.18"/>
<polygon fill="#9a32cd" stroke="#9a32cd" points="52.5,-110.97 56,-120.97 59.5,-110.97 52.5,-110.97"/>
<text text-anchor="middle" x="104" y="-95" font-family="Helvetica,sans-Serif" font-size="10.00"> firmwareRevision</text>
<text text-anchor="middle" x="104" y="-84" font-family="Helvetica,sans-Serif" font-size="10.00">hardwareRevision</text>
<text text-anchor="middle" x="104" y="-73" font-family="Helvetica,sans-Serif" font-size="10.00">manufacturerName</text>
<text text-anchor="middle" x="104" y="-62" font-family="Helvetica,sans-Serif" font-size="10.00">modelNumber</text>
<text text-anchor="middle" x="104" y="-51" font-family="Helvetica,sans-Serif" font-size="10.00">softwareRevision</text>
</g>
<!-- Node3 -->
<g id="node3" class="node">
<title>Node3</title>
<g id="a_node3"><a target="_parent" xlink:href="https://doc.qt.io/qt-5/quuid.html" xlink:title=" ">
<polygon fill="white" stroke="#bfbfbf" points="79.5,-196 32.5,-196 32.5,-177 79.5,-177 79.5,-196"/>
<text text-anchor="middle" x="56" y="-184" font-family="Helvetica,sans-Serif" font-size="10.00">QUuid</text>
</a>
</g>
</g>
<!-- Node3&#45;&gt;Node2 -->
<g id="edge2" class="edge">
<title>Node3&#45;&gt;Node2</title>
<path fill="none" stroke="#63b8ff" d="M56,-166.3C56,-157.41 56,-147.28 56,-140.25"/>
<polygon fill="#63b8ff" stroke="#63b8ff" points="52.5,-166.58 56,-176.58 59.5,-166.58 52.5,-166.58"/>
</g>
</g>
</svg>
