<?xml version="1.0" encoding="UTF-8" standalone="no"?>
<!DOCTYPE svg PUBLIC "-//W3C//DTD SVG 1.1//EN"
 "http://www.w3.org/Graphics/SVG/1.1/DTD/svg11.dtd">
<!-- Generated by graphviz version 2.43.0 (0)
 -->
<!-- Title: StatusService::DeviceCharacteristics Pages: 1 -->
<svg width="236pt" height="93pt"
 viewBox="0.00 0.00 235.50 93.00" xmlns="http://www.w3.org/2000/svg" xmlns:xlink="http://www.w3.org/1999/xlink">
<g id="graph0" class="graph" transform="scale(1 1) rotate(0) translate(4 89)">
<title>StatusService::DeviceCharacteristics</title>
<!-- Node1 -->
<g id="node1" class="node">
<title>Node1</title>
<g id="a_node1"><a xlink:title="Attributes included in the Device Characteristics characterstic.">
<polygon fill="#999999" stroke="#666666" points="208.5,-19 12.5,-19 12.5,0 208.5,0 208.5,-19"/>
<text text-anchor="middle" x="110.5" y="-7" font-family="Helvetica,sans-Serif" font-size="10.00">StatusService::DeviceCharacteristics</text>
</a>
</g>
</g>
<!-- Node2 -->
<g id="node2" class="node">
<title>Node2</title>
<g id="a_node2"><a target="_parent" xlink:href="https://doc.qt.io/qt-5/qversionnumber.html" xlink:title=" ">
<polygon fill="white" stroke="#bfbfbf" points="99,-85 0,-85 0,-66 99,-66 99,-85"/>
<text text-anchor="middle" x="49.5" y="-73" font-family="Helvetica,sans-Serif" font-size="10.00">QVersionNumber</text>
</a>
</g>
</g>
<!-- Node2&#45;&gt;Node1 -->
<g id="edge1" class="edge">
<title>Node2&#45;&gt;Node1</title>
<path fill="none" stroke="#9a32cd" stroke-dasharray="5,2" d="M54.92,-58.25C57.85,-51.16 62.01,-43.09 67.5,-37 74.19,-29.57 83.45,-23.5 91.66,-19.06"/>
<polygon fill="#9a32cd" stroke="#9a32cd" points="52.04,-65.95 51.47,-57.19 53.44,-62.2 54.84,-58.46 54.84,-58.46 54.84,-58.46 53.44,-62.2 58.21,-59.72 52.04,-65.95 52.04,-65.95"/>
<text text-anchor="middle" x="109" y="-40" font-family="Helvetica,sans-Serif" font-size="10.00"> firmwareVersion</text>
</g>
<!-- Node3 -->
<g id="node3" class="node">
<title>Node3</title>
<g id="a_node3"><a target="_parent" xlink:href="https://doc.qt.io/qt-5/qbluetoothaddress.html" xlink:title=" ">
<polygon fill="white" stroke="#bfbfbf" points="227.5,-85 117.5,-85 117.5,-66 227.5,-66 227.5,-85"/>
<text text-anchor="middle" x="172.5" y="-73" font-family="Helvetica,sans-Serif" font-size="10.00">QBluetoothAddress</text>
</a>
</g>
</g>
<!-- Node3&#45;&gt;Node1 -->
<g id="edge2" class="edge">
<title>Node3&#45;&gt;Node1</title>
<path fill="none" stroke="#9a32cd" stroke-dasharray="5,2" d="M164.98,-58.1C161.26,-51.1 156.32,-43.15 150.5,-37 143.74,-29.86 134.72,-23.67 126.95,-19.08"/>
<polygon fill="#9a32cd" stroke="#9a32cd" points="168.76,-65.72 161.98,-60.15 166.98,-62.14 165.2,-58.55 165.2,-58.55 165.2,-58.55 166.98,-62.14 168.43,-56.95 168.76,-65.72 168.76,-65.72"/>
<text text-anchor="middle" x="190.5" y="-40" font-family="Helvetica,sans-Serif" font-size="10.00"> macAddress</text>
</g>
</g>
</svg>
