<?xml version="1.0" encoding="UTF-8" standalone="no"?>
<!DOCTYPE svg PUBLIC "-//W3C//DTD SVG 1.1//EN"
 "http://www.w3.org/Graphics/SVG/1.1/DTD/svg11.dtd">
<!-- Generated by graphviz version 2.43.0 (0)
 -->
<!-- Title: StatusService::ServiceUuids Pages: 1 -->
<svg width="161pt" height="160pt"
 viewBox="0.00 0.00 161.00 160.00" xmlns="http://www.w3.org/2000/svg" xmlns:xlink="http://www.w3.org/1999/xlink">
<g id="graph0" class="graph" transform="scale(1 1) rotate(0) translate(4 156)">
<title>StatusService::ServiceUuids</title>
<!-- Node1 -->
<g id="node1" class="node">
<title>Node1</title>
<g id="a_node1"><a xlink:title="UUIDs of the &quot;Pokit Status&quot; service.">
<polygon fill="#999999" stroke="#666666" points="153,-19 0,-19 0,0 153,0 153,-19"/>
<text text-anchor="middle" x="76.5" y="-7" font-family="Helvetica,sans-Serif" font-size="10.00">StatusService::ServiceUuids</text>
</a>
</g>
</g>
<!-- Node2 -->
<g id="node2" class="node">
<title>Node2</title>
<g id="a_node2"><a target="_parent" xlink:href="https://doc.qt.io/qt-5/qbluetoothuuid.html" xlink:title=" ">
<polygon fill="white" stroke="#bfbfbf" points="123.5,-96 29.5,-96 29.5,-77 123.5,-77 123.5,-96"/>
<text text-anchor="middle" x="76.5" y="-84" font-family="Helvetica,sans-Serif" font-size="10.00">QBluetoothUuid</text>
</a>
</g>
</g>
<!-- Node2&#45;&gt;Node1 -->
<g id="edge1" class="edge">
<title>Node2&#45;&gt;Node1</title>
<path fill="none" stroke="#9a32cd" stroke-dasharray="5,2" d="M76.5,-68.73C76.5,-53.3 76.5,-31.04 76.5,-19"/>
<polygon fill="#9a32cd" stroke="#9a32cd" points="76.5,-76.9 72.9,-68.9 76.5,-72.9 76.5,-68.9 76.5,-68.9 76.5,-68.9 76.5,-72.9 80.1,-68.9 76.5,-76.9 76.5,-76.9"/>
<text text-anchor="middle" x="105" y="-51" font-family="Helvetica,sans-Serif" font-size="10.00"> pokitMeter</text>
<text text-anchor="middle" x="105" y="-40" font-family="Helvetica,sans-Serif" font-size="10.00">pokitPro</text>
</g>
<!-- Node3 -->
<g id="node3" class="node">
<title>Node3</title>
<g id="a_node3"><a target="_parent" xlink:href="https://doc.qt.io/qt-5/quuid.html" xlink:title=" ">
<polygon fill="white" stroke="#bfbfbf" points="100,-152 53,-152 53,-133 100,-133 100,-152"/>
<text text-anchor="middle" x="76.5" y="-140" font-family="Helvetica,sans-Serif" font-size="10.00">QUuid</text>
</a>
</g>
</g>
<!-- Node3&#45;&gt;Node2 -->
<g id="edge2" class="edge">
<title>Node3&#45;&gt;Node2</title>
<path fill="none" stroke="#63b8ff" d="M76.5,-124.36C76.5,-115 76.5,-103.83 76.5,-96.25"/>
<polygon fill="#63b8ff" stroke="#63b8ff" points="76.5,-132.58 72.9,-124.58 76.5,-128.58 76.5,-124.58 76.5,-124.58 76.5,-124.58 76.5,-128.58 80.1,-124.58 76.5,-132.58 76.5,-132.58"/>
</g>
</g>
</svg>
