<?xml version="1.0" encoding="UTF-8" standalone="no"?>
<!DOCTYPE svg PUBLIC "-//W3C//DTD SVG 1.1//EN"
 "http://www.w3.org/Graphics/SVG/1.1/DTD/svg11.dtd">
<!-- Generated by graphviz version 2.43.0 (0)
 -->
<!-- Title: GenericAccessService::CharacteristicUuids Pages: 1 -->
<svg width="132pt" height="171pt"
 viewBox="0.00 0.00 132.00 171.00" xmlns="http://www.w3.org/2000/svg" xmlns:xlink="http://www.w3.org/1999/xlink">
<g id="graph0" class="graph" transform="scale(1 1) rotate(0) translate(4 167)">
<title>GenericAccessService::CharacteristicUuids</title>
<!-- Node1 -->
<g id="node1" class="node">
<title>Node1</title>
<g id="a_node1"><a xlink:title="Characteristics available via the Generic Access service.">
<polygon fill="#999999" stroke="#666666" points="124,-30 0,-30 0,0 124,0 124,-30"/>
<text text-anchor="start" x="8" y="-18" font-family="Helvetica,sans-Serif" font-size="10.00">GenericAccessService</text>
<text text-anchor="middle" x="62" y="-7" font-family="Helvetica,sans-Serif" font-size="10.00">::CharacteristicUuids</text>
</a>
</g>
</g>
<!-- Node2 -->
<g id="node2" class="node">
<title>Node2</title>
<g id="a_node2"><a target="_parent" xlink:href="https://doc.qt.io/qt-5/qbluetoothuuid.html" xlink:title=" ">
<polygon fill="white" stroke="#bfbfbf" points="109,-107 15,-107 15,-88 109,-88 109,-107"/>
<text text-anchor="middle" x="62" y="-95" font-family="Helvetica,sans-Serif" font-size="10.00">QBluetoothUuid</text>
</a>
</g>
</g>
<!-- Node2&#45;&gt;Node1 -->
<g id="edge1" class="edge">
<title>Node2&#45;&gt;Node1</title>
<path fill="none" stroke="#9a32cd" stroke-dasharray="5,2" d="M62,-79.71C62,-65.06 62,-44.05 62,-30.22"/>
<polygon fill="#9a32cd" stroke="#9a32cd" points="62,-87.89 58.4,-79.89 62,-83.89 62,-79.89 62,-79.89 62,-79.89 62,-83.89 65.6,-79.89 62,-87.89 62,-87.89"/>
<text text-anchor="middle" x="93" y="-62" font-family="Helvetica,sans-Serif" font-size="10.00"> appearance</text>
<text text-anchor="middle" x="93" y="-51" font-family="Helvetica,sans-Serif" font-size="10.00">deviceName</text>
</g>
<!-- Node3 -->
<g id="node3" class="node">
<title>Node3</title>
<g id="a_node3"><a target="_parent" xlink:href="https://doc.qt.io/qt-5/quuid.html" xlink:title=" ">
<polygon fill="white" stroke="#bfbfbf" points="85.5,-163 38.5,-163 38.5,-144 85.5,-144 85.5,-163"/>
<text text-anchor="middle" x="62" y="-151" font-family="Helvetica,sans-Serif" font-size="10.00">QUuid</text>
</a>
</g>
</g>
<!-- Node3&#45;&gt;Node2 -->
<g id="edge2" class="edge">
<title>Node3&#45;&gt;Node2</title>
<path fill="none" stroke="#63b8ff" d="M62,-135.36C62,-126 62,-114.83 62,-107.25"/>
<polygon fill="#63b8ff" stroke="#63b8ff" points="62,-143.58 58.4,-135.58 62,-139.58 62,-135.58 62,-135.58 62,-135.58 62,-139.58 65.6,-135.58 62,-143.58 62,-143.58"/>
</g>
</g>
</svg>
