<?xml version="1.0" encoding="UTF-8" standalone="no"?>
<!DOCTYPE svg PUBLIC "-//W3C//DTD SVG 1.1//EN"
 "http://www.w3.org/Graphics/SVG/1.1/DTD/svg11.dtd">
<!-- Generated by graphviz version 2.43.0 (0)
 -->
<!-- Title: StatusService::toString Pages: 1 -->
<svg width="996pt" height="308pt"
 viewBox="0.00 0.00 996.00 307.92" xmlns="http://www.w3.org/2000/svg" xmlns:xlink="http://www.w3.org/1999/xlink">
<g id="graph0" class="graph" transform="scale(1 1) rotate(0) translate(4 303.92)">
<title>StatusService::toString</title>
<!-- Node1 -->
<g id="Node000001" class="node">
<title>Node1</title>
<g id="a_Node000001"><a xlink:title="Returns a string version of the status enum label.">
<polygon fill="#999999" stroke="#666666" points="128,-181 0,-181 0,-162 128,-162 128,-181"/>
<text text-anchor="middle" x="64" y="-169" font-family="Helvetica,sans-Serif" font-size="10.00">StatusService::toString</text>
</a>
</g>
</g>
<!-- Node2 -->
<g id="Node000002" class="node">
<title>Node2</title>
<g id="a_Node000002"><a xlink:href="classStatusService.html#ae7be4aae021ae50faef48ed2812eb6a7" target="_top" xlink:title="Returns the most recent value of the Status service&#39;s Status characteristic.">
<polygon fill="white" stroke="#666666" points="283,-202 164,-202 164,-183 283,-183 283,-202"/>
<text text-anchor="middle" x="223.5" y="-190" font-family="Helvetica,sans-Serif" font-size="10.00">StatusService::status</text>
</a>
</g>
</g>
<!-- Node1&#45;&gt;Node2 -->
<g id="edge1_Node000001_Node000002" class="edge">
<title>Node1&#45;&gt;Node2</title>
<g id="a_edge1_Node000001_Node000002"><a xlink:title=" ">
<path fill="none" stroke="#63b8ff" d="M128.15,-179.92C137.29,-181.14 146.71,-182.4 155.91,-183.62"/>
<polygon fill="#63b8ff" stroke="#63b8ff" points="163.93,-184.69 155.52,-187.2 159.96,-184.16 156,-183.63 156,-183.63 156,-183.63 159.96,-184.16 156.47,-180.06 163.93,-184.69 163.93,-184.69"/>
</a>
</g>
</g>
<!-- Node3 -->
<g id="Node000003" class="node">
<title>Node3</title>
<g id="a_Node000003"><a target="_parent" xlink:href="https://doc.qt.io/qt-5/qlowenergycharacteristic.html#isValid" xlink:title=" ">
<polygon fill="white" stroke="#666666" points="464,-210.5 319,-210.5 319,-180.5 464,-180.5 464,-210.5"/>
<text text-anchor="start" x="327" y="-198.5" font-family="Helvetica,sans-Serif" font-size="10.00">QLowEnergyCharacteristic</text>
<text text-anchor="middle" x="391.5" y="-187.5" font-family="Helvetica,sans-Serif" font-size="10.00">::isValid</text>
</a>
</g>
</g>
<!-- Node2&#45;&gt;Node3 -->
<g id="edge2_Node000002_Node000003" class="edge">
<title>Node2&#45;&gt;Node3</title>
<g id="a_edge2_Node000002_Node000003"><a xlink:title=" ">
<path fill="none" stroke="#63b8ff" d="M283.03,-193.56C291.98,-193.72 301.35,-193.89 310.66,-194.06"/>
<polygon fill="#63b8ff" stroke="#63b8ff" points="318.83,-194.2 310.76,-197.66 314.83,-194.13 310.83,-194.06 310.83,-194.06 310.83,-194.06 314.83,-194.13 310.89,-190.46 318.83,-194.2 318.83,-194.2"/>
</a>
</g>
</g>
<!-- Node4 -->
<g id="Node000004" class="node">
<title>Node4</title>
<g id="a_Node000004"><a xlink:href="classStatusServicePrivate.html#a3a6ff8ca3e9d7c884b269e52dd43aeb0" target="_top" xlink:title="Parses the Status value into a Status struct.">
<polygon fill="white" stroke="#666666" points="450.5,-162.5 332.5,-162.5 332.5,-132.5 450.5,-132.5 450.5,-162.5"/>
<text text-anchor="start" x="340.5" y="-150.5" font-family="Helvetica,sans-Serif" font-size="10.00">StatusServicePrivate</text>
<text text-anchor="middle" x="391.5" y="-139.5" font-family="Helvetica,sans-Serif" font-size="10.00">::parseStatus</text>
</a>
</g>
</g>
<!-- Node2&#45;&gt;Node4 -->
<g id="edge3_Node000002_Node000004" class="edge">
<title>Node2&#45;&gt;Node4</title>
<g id="a_edge3_Node000002_Node000004"><a xlink:title=" ">
<path fill="none" stroke="#63b8ff" d="M259.7,-182.96C279.29,-177.65 304.25,-170.88 327.11,-164.68"/>
<polygon fill="#63b8ff" stroke="#63b8ff" points="335.09,-162.52 328.32,-168.09 331.23,-163.57 327.37,-164.61 327.37,-164.61 327.37,-164.61 331.23,-163.57 326.43,-161.14 335.09,-162.52 335.09,-162.52"/>
</a>
</g>
</g>
<!-- Node17 -->
<g id="Node000017" class="node">
<title>Node17</title>
<g id="a_Node000017"><a target="_parent" xlink:href="https://doc.qt.io/qt-5/qlowenergycharacteristic.html#value" xlink:title=" ">
<polygon fill="white" stroke="#666666" points="464,-258.5 319,-258.5 319,-228.5 464,-228.5 464,-258.5"/>
<text text-anchor="start" x="327" y="-246.5" font-family="Helvetica,sans-Serif" font-size="10.00">QLowEnergyCharacteristic</text>
<text text-anchor="middle" x="391.5" y="-235.5" font-family="Helvetica,sans-Serif" font-size="10.00">::value</text>
</a>
</g>
</g>
<!-- Node2&#45;&gt;Node17 -->
<g id="edge23_Node000002_Node000017" class="edge">
<title>Node2&#45;&gt;Node17</title>
<g id="a_edge23_Node000002_Node000017"><a xlink:title=" ">
<path fill="none" stroke="#63b8ff" d="M255.72,-202.09C277.6,-208.81 307.46,-217.99 333.52,-225.99"/>
<polygon fill="#63b8ff" stroke="#63b8ff" points="341.47,-228.44 332.76,-229.53 337.64,-227.26 333.82,-226.09 333.82,-226.09 333.82,-226.09 337.64,-227.26 334.88,-222.65 341.47,-228.44 341.47,-228.44"/>
</a>
</g>
</g>
<!-- Node4&#45;&gt;Node1 -->
<g id="edge21_Node000004_Node000001" class="edge">
<title>Node4&#45;&gt;Node1</title>
<g id="a_edge21_Node000004_Node000001"><a xlink:title=" ">
<path fill="none" stroke="#63b8ff" d="M332.45,-151.78C277.58,-155.83 195.12,-161.91 136.29,-166.24"/>
<polygon fill="#63b8ff" stroke="#63b8ff" points="128.15,-166.84 135.86,-162.67 132.13,-166.55 136.12,-166.26 136.12,-166.26 136.12,-166.26 132.13,-166.55 136.39,-169.85 128.15,-166.84 128.15,-166.84"/>
</a>
</g>
</g>
<!-- Node5 -->
<g id="Node000005" class="node">
<title>Node5</title>
<g id="a_Node000005"><a target="_parent" xlink:href="https://doc.qt.io/qt-5/qstring.html#arg-1" xlink:title=" ">
<polygon fill="white" stroke="#666666" points="969,-268 895,-268 895,-249 969,-249 969,-268"/>
<text text-anchor="middle" x="932" y="-256" font-family="Helvetica,sans-Serif" font-size="10.00">QString::arg</text>
</a>
</g>
</g>
<!-- Node4&#45;&gt;Node5 -->
<g id="edge4_Node000004_Node000005" class="edge">
<title>Node4&#45;&gt;Node5</title>
<g id="a_edge4_Node000004_Node000005"><a xlink:title=" ">
<path fill="none" stroke="#63b8ff" d="M450.59,-162.31C455.42,-164.9 459.99,-167.94 464,-171.5 491.95,-196.32 469.46,-225.95 500,-247.5 620.91,-332.83 812.13,-292.92 892.95,-270.32"/>
<polygon fill="#63b8ff" stroke="#63b8ff" points="900.87,-268.06 894.17,-273.72 897.03,-269.16 893.18,-270.25 893.18,-270.25 893.18,-270.25 897.03,-269.16 892.19,-266.79 900.87,-268.06 900.87,-268.06"/>
</a>
</g>
</g>
<!-- Node6 -->
<g id="Node000006" class="node">
<title>Node6</title>
<g id="a_Node000006"><a target="_parent" xlink:href="https://doc.qt.io/qt-5/qbytearray.html#at" xlink:title=" ">
<polygon fill="white" stroke="#666666" points="620,-238 532,-238 532,-219 620,-219 620,-238"/>
<text text-anchor="middle" x="576" y="-226" font-family="Helvetica,sans-Serif" font-size="10.00">QByteArray::at</text>
</a>
</g>
</g>
<!-- Node4&#45;&gt;Node6 -->
<g id="edge5_Node000004_Node000006" class="edge">
<title>Node4&#45;&gt;Node6</title>
<g id="a_edge5_Node000004_Node000006"><a xlink:title=" ">
<path fill="none" stroke="#63b8ff" d="M445.93,-162.65C452.2,-165.23 458.36,-168.17 464,-171.5 482.7,-182.53 481.23,-193.61 500,-204.5 508.22,-209.27 517.51,-213.22 526.68,-216.44"/>
<polygon fill="#63b8ff" stroke="#63b8ff" points="534.33,-218.98 525.6,-219.88 530.53,-217.72 526.73,-216.46 526.73,-216.46 526.73,-216.46 530.53,-217.72 527.87,-213.05 534.33,-218.98 534.33,-218.98"/>
</a>
</g>
</g>
<!-- Node7 -->
<g id="Node000007" class="node">
<title>Node7</title>
<g id="a_Node000007"><a xlink:href="classAbstractPokitServicePrivate.html#af8b480a950244540bfff7fc4b476a0ef" target="_top" xlink:title="Returns false if data is smaller than minSize, otherwise returns failOnMax if data is bigger than max...">
<polygon fill="white" stroke="#666666" points="652,-162.5 500,-162.5 500,-132.5 652,-132.5 652,-162.5"/>
<text text-anchor="start" x="508" y="-150.5" font-family="Helvetica,sans-Serif" font-size="10.00">AbstractPokitServicePrivate</text>
<text text-anchor="middle" x="576" y="-139.5" font-family="Helvetica,sans-Serif" font-size="10.00">::checkSize</text>
</a>
</g>
</g>
<!-- Node4&#45;&gt;Node7 -->
<g id="edge6_Node000004_Node000007" class="edge">
<title>Node4&#45;&gt;Node7</title>
<g id="a_edge6_Node000004_Node000007"><a xlink:title=" ">
<path fill="none" stroke="#63b8ff" d="M450.75,-147.5C463.83,-147.5 477.95,-147.5 491.83,-147.5"/>
<polygon fill="#63b8ff" stroke="#63b8ff" points="499.96,-147.5 491.96,-151.1 495.96,-147.5 491.96,-147.5 491.96,-147.5 491.96,-147.5 495.96,-147.5 491.96,-143.9 499.96,-147.5 499.96,-147.5"/>
</a>
</g>
</g>
<!-- Node8 -->
<g id="Node000008" class="node">
<title>Node8</title>
<g id="a_Node000008"><a target="_parent" xlink:href="https://doc.qt.io/qt-5/qbytearray.html#mid" xlink:title=" ">
<polygon fill="white" stroke="#666666" points="812.5,-257 715.5,-257 715.5,-238 812.5,-238 812.5,-257"/>
<text text-anchor="middle" x="764" y="-245" font-family="Helvetica,sans-Serif" font-size="10.00">QByteArray::mid</text>
</a>
</g>
</g>
<!-- Node4&#45;&gt;Node8 -->
<g id="edge19_Node000004_Node000008" class="edge">
<title>Node4&#45;&gt;Node8</title>
<g id="a_edge19_Node000004_Node000008"><a xlink:title=" ">
<path fill="none" stroke="#63b8ff" d="M450.53,-160.39C515.01,-174.89 614.92,-197.92 652,-209.5 668.39,-214.62 671.82,-217.77 688,-223.5 699.62,-227.62 712.36,-231.81 723.99,-235.52"/>
<polygon fill="#63b8ff" stroke="#63b8ff" points="731.84,-238 723.13,-239.02 728.03,-236.79 724.21,-235.59 724.21,-235.59 724.21,-235.59 728.03,-236.79 725.3,-232.15 731.84,-238 731.84,-238"/>
</a>
</g>
</g>
<!-- Node9 -->
<g id="Node000009" class="node">
<title>Node9</title>
<g id="a_Node000009"><a target="_parent" xlink:href="https://doc.qt.io/qt-5/qbytearray.html#size" xlink:title=" ">
<polygon fill="white" stroke="#666666" points="981,-83 883,-83 883,-64 981,-64 981,-83"/>
<text text-anchor="middle" x="932" y="-71" font-family="Helvetica,sans-Serif" font-size="10.00">QByteArray::size</text>
</a>
</g>
</g>
<!-- Node4&#45;&gt;Node9 -->
<g id="edge20_Node000004_Node000009" class="edge">
<title>Node4&#45;&gt;Node9</title>
<g id="a_edge20_Node000004_Node000009"><a xlink:title=" ">
<path fill="none" stroke="#63b8ff" d="M419.03,-132.29C440.28,-120.76 471.19,-105.43 500,-96.5 629.35,-56.4 790.88,-61.46 874.68,-67.9"/>
<polygon fill="#63b8ff" stroke="#63b8ff" points="882.79,-68.54 874.53,-71.5 878.8,-68.22 874.82,-67.91 874.82,-67.91 874.82,-67.91 878.8,-68.22 875.1,-64.32 882.79,-68.54 882.79,-68.54"/>
</a>
</g>
</g>
<!-- Node15 -->
<g id="Node000015" class="node">
<title>Node15</title>
<g id="a_Node000015"><a target="_parent" xlink:href="https://doc.qt.io/qt-5/qobject.html#tr" xlink:title=" ">
<polygon fill="white" stroke="#666666" points="798.5,-95 729.5,-95 729.5,-76 798.5,-76 798.5,-95"/>
<text text-anchor="middle" x="764" y="-83" font-family="Helvetica,sans-Serif" font-size="10.00">QObject::tr</text>
</a>
</g>
</g>
<!-- Node4&#45;&gt;Node15 -->
<g id="edge22_Node000004_Node000015" class="edge">
<title>Node4&#45;&gt;Node15</title>
<g id="a_edge22_Node000004_Node000015"><a xlink:title=" ">
<path fill="none" stroke="#63b8ff" d="M450.64,-133.67C466.59,-130.11 483.92,-126.45 500,-123.5 577.74,-109.23 669.23,-97.04 721.24,-90.54"/>
<polygon fill="#63b8ff" stroke="#63b8ff" points="729.24,-89.54 721.74,-94.1 725.27,-90.04 721.3,-90.53 721.3,-90.53 721.3,-90.53 725.27,-90.04 720.86,-86.96 729.24,-89.54 729.24,-89.54"/>
</a>
</g>
</g>
<!-- Node16 -->
<g id="Node000016" class="node">
<title>Node16</title>
<g id="a_Node000016"><a target="_parent" xlink:href="https://doc.qt.io/qt-5/qbytearray.html#constData" xlink:title=" ">
<polygon fill="white" stroke="#666666" points="640,-19 512,-19 512,0 640,0 640,-19"/>
<text text-anchor="middle" x="576" y="-7" font-family="Helvetica,sans-Serif" font-size="10.00">QByteArray::constData</text>
</a>
</g>
</g>
<!-- Node4&#45;&gt;Node16 -->
<g id="edge18_Node000004_Node000016" class="edge">
<title>Node4&#45;&gt;Node16</title>
<g id="a_edge18_Node000004_Node000016"><a xlink:title=" ">
<path fill="none" stroke="#63b8ff" d="M402.89,-132.25C420.24,-107.92 457.42,-60.33 500,-33.5 507.6,-28.71 516.25,-24.8 524.9,-21.63"/>
<polygon fill="#63b8ff" stroke="#63b8ff" points="532.47,-19.03 526.08,-25.03 528.69,-20.33 524.91,-21.62 524.91,-21.62 524.91,-21.62 528.69,-20.33 523.74,-18.22 532.47,-19.03 532.47,-19.03"/>
</a>
</g>
</g>
<!-- Node7&#45;&gt;Node5 -->
<g id="edge7_Node000007_Node000005" class="edge">
<title>Node7&#45;&gt;Node5</title>
<g id="a_edge7_Node000007_Node000005"><a xlink:title=" ">
<path fill="none" stroke="#63b8ff" d="M636.49,-162.51C641.8,-164.34 647.04,-166.34 652,-168.5 669.19,-175.99 670.73,-183.2 688,-190.5 752.24,-217.65 772.97,-210.24 840,-229.5 850.32,-232.46 873.47,-239.85 893.84,-246.42"/>
<polygon fill="#63b8ff" stroke="#63b8ff" points="901.48,-248.89 892.76,-249.85 897.67,-247.66 893.87,-246.43 893.87,-246.43 893.87,-246.43 897.67,-247.66 894.97,-243 901.48,-248.89 901.48,-248.89"/>
</a>
</g>
</g>
<!-- Node7&#45;&gt;Node8 -->
<g id="edge8_Node000007_Node000008" class="edge">
<title>Node7&#45;&gt;Node8</title>
<g id="a_edge8_Node000007_Node000008"><a xlink:title=" ">
<path fill="none" stroke="#63b8ff" d="M627.43,-162.58C636.07,-166.37 644.63,-170.97 652,-176.5 673.06,-192.28 666.48,-208.35 688,-223.5 694.71,-228.22 702.39,-232.05 710.22,-235.14"/>
<polygon fill="#63b8ff" stroke="#63b8ff" points="718.08,-237.99 709.33,-238.65 714.32,-236.63 710.56,-235.26 710.56,-235.26 710.56,-235.26 714.32,-236.63 711.79,-231.88 718.08,-237.99 718.08,-237.99"/>
</a>
</g>
</g>
<!-- Node7&#45;&gt;Node9 -->
<g id="edge9_Node000007_Node000009" class="edge">
<title>Node7&#45;&gt;Node9</title>
<g id="a_edge9_Node000007_Node000009"><a xlink:title=" ">
<path fill="none" stroke="#63b8ff" d="M652.17,-138.1C705.12,-130.71 777.44,-119.06 840,-103.5 856.37,-99.43 859.99,-96.79 876,-91.5 881.71,-89.62 887.75,-87.63 893.66,-85.69"/>
<polygon fill="#63b8ff" stroke="#63b8ff" points="901.59,-83.09 895.11,-89 897.79,-84.34 893.99,-85.58 893.99,-85.58 893.99,-85.58 897.79,-84.34 892.87,-82.16 901.59,-83.09 901.59,-83.09"/>
</a>
</g>
</g>
<!-- Node10 -->
<g id="Node000010" class="node">
<title>Node10</title>
<g id="a_Node000010"><a xlink:href="classAbstractPokitServicePrivate.html#af748600fc201fe47f29b58e8e93179d8" target="_top" xlink:title="Returns up to maxSize bytes of data as a human readable hexadecimal string.">
<polygon fill="white" stroke="#666666" points="840,-181.5 688,-181.5 688,-151.5 840,-151.5 840,-181.5"/>
<text text-anchor="start" x="696" y="-169.5" font-family="Helvetica,sans-Serif" font-size="10.00">AbstractPokitServicePrivate</text>
<text text-anchor="middle" x="764" y="-158.5" font-family="Helvetica,sans-Serif" font-size="10.00">::toHexString</text>
</a>
</g>
</g>
<!-- Node7&#45;&gt;Node10 -->
<g id="edge10_Node000007_Node000010" class="edge">
<title>Node7&#45;&gt;Node10</title>
<g id="a_edge10_Node000007_Node000010"><a xlink:title=" ">
<path fill="none" stroke="#63b8ff" d="M652.12,-155.17C661.24,-156.11 670.6,-157.06 679.84,-158"/>
<polygon fill="#63b8ff" stroke="#63b8ff" points="687.9,-158.83 679.58,-161.6 683.93,-158.42 679.95,-158.02 679.95,-158.02 679.95,-158.02 683.93,-158.42 680.31,-154.43 687.9,-158.83 687.9,-158.83"/>
</a>
</g>
</g>
<!-- Node7&#45;&gt;Node15 -->
<g id="edge17_Node000007_Node000015" class="edge">
<title>Node7&#45;&gt;Node15</title>
<g id="a_edge17_Node000007_Node000015"><a xlink:title=" ">
<path fill="none" stroke="#63b8ff" d="M620.16,-132.5C640.68,-125.43 665.57,-116.93 688,-109.5 699.92,-105.55 712.93,-101.35 724.73,-97.58"/>
<polygon fill="#63b8ff" stroke="#63b8ff" points="732.67,-95.05 726.14,-100.91 728.86,-96.27 725.04,-97.48 725.04,-97.48 725.04,-97.48 728.86,-96.27 723.95,-94.05 732.67,-95.05 732.67,-95.05"/>
</a>
</g>
</g>
<!-- Node10&#45;&gt;Node5 -->
<g id="edge11_Node000010_Node000005" class="edge">
<title>Node10&#45;&gt;Node5</title>
<g id="a_edge11_Node000010_Node000005"><a xlink:title=" ">
<path fill="none" stroke="#63b8ff" d="M814.94,-181.54C823.72,-185.35 832.46,-189.97 840,-195.5 860.66,-210.64 854.95,-225.91 876,-240.5 879.56,-242.97 883.48,-245.12 887.54,-246.98"/>
<polygon fill="#63b8ff" stroke="#63b8ff" points="894.95,-250.04 886.18,-250.31 891.26,-248.51 887.56,-246.99 887.56,-246.99 887.56,-246.99 891.26,-248.51 888.93,-243.66 894.95,-250.04 894.95,-250.04"/>
</a>
</g>
</g>
<!-- Node10&#45;&gt;Node9 -->
<g id="edge15_Node000010_Node000009" class="edge">
<title>Node10&#45;&gt;Node9</title>
<g id="a_edge15_Node000010_Node000009"><a xlink:title=" ">
<path fill="none" stroke="#63b8ff" d="M815.38,-151.36C824.03,-147.57 832.6,-142.99 840,-137.5 860.86,-122.04 854.74,-106.4 876,-91.5 878.73,-89.59 881.68,-87.87 884.74,-86.32"/>
<polygon fill="#63b8ff" stroke="#63b8ff" points="892.04,-83.03 886.23,-89.6 888.39,-84.67 884.75,-86.32 884.75,-86.32 884.75,-86.32 888.39,-84.67 883.27,-83.03 892.04,-83.03 892.04,-83.03"/>
</a>
</g>
</g>
<!-- Node11 -->
<g id="Node000011" class="node">
<title>Node11</title>
<g id="a_Node000011"><a target="_parent" xlink:href="https://doc.qt.io/qt-5/qstring.html#fromLatin1" xlink:title=" ">
<polygon fill="white" stroke="#666666" points="988,-194 876,-194 876,-175 988,-175 988,-194"/>
<text text-anchor="middle" x="932" y="-182" font-family="Helvetica,sans-Serif" font-size="10.00">QString::fromLatin1</text>
</a>
</g>
</g>
<!-- Node10&#45;&gt;Node11 -->
<g id="edge12_Node000010_Node000011" class="edge">
<title>Node10&#45;&gt;Node11</title>
<g id="a_edge12_Node000010_Node000011"><a xlink:title=" ">
<path fill="none" stroke="#63b8ff" d="M840.23,-174.66C849.42,-175.65 858.75,-176.67 867.74,-177.64"/>
<polygon fill="#63b8ff" stroke="#63b8ff" points="875.9,-178.53 867.56,-181.24 871.92,-178.09 867.94,-177.66 867.94,-177.66 867.94,-177.66 871.92,-178.09 868.33,-174.08 875.9,-178.53 875.9,-178.53"/>
</a>
</g>
</g>
<!-- Node12 -->
<g id="Node000012" class="node">
<title>Node12</title>
<g id="a_Node000012"><a target="_parent" xlink:href="https://doc.qt.io/qt-5/qbytearray.html#left" xlink:title=" ">
<polygon fill="white" stroke="#666666" points="979,-157 885,-157 885,-138 979,-138 979,-157"/>
<text text-anchor="middle" x="932" y="-145" font-family="Helvetica,sans-Serif" font-size="10.00">QByteArray::left</text>
</a>
</g>
</g>
<!-- Node10&#45;&gt;Node12 -->
<g id="edge13_Node000010_Node000012" class="edge">
<title>Node10&#45;&gt;Node12</title>
<g id="a_edge13_Node000010_Node000012"><a xlink:title=" ">
<path fill="none" stroke="#63b8ff" d="M840.23,-157.89C852.38,-156.5 864.75,-155.08 876.3,-153.76"/>
<polygon fill="#63b8ff" stroke="#63b8ff" points="884.54,-152.82 877,-157.3 880.56,-153.27 876.59,-153.73 876.59,-153.73 876.59,-153.73 880.56,-153.27 876.18,-150.15 884.54,-152.82 884.54,-152.82"/>
</a>
</g>
</g>
<!-- Node13 -->
<g id="Node000013" class="node">
<title>Node13</title>
<g id="a_Node000013"><a target="_parent" xlink:href="https://doc.qt.io/qt-5/qbytearray.html#right" xlink:title=" ">
<polygon fill="white" stroke="#666666" points="982.5,-120 881.5,-120 881.5,-101 982.5,-101 982.5,-120"/>
<text text-anchor="middle" x="932" y="-108" font-family="Helvetica,sans-Serif" font-size="10.00">QByteArray::right</text>
</a>
</g>
</g>
<!-- Node10&#45;&gt;Node13 -->
<g id="edge14_Node000010_Node000013" class="edge">
<title>Node10&#45;&gt;Node13</title>
<g id="a_edge14_Node000010_Node000013"><a xlink:title=" ">
<path fill="none" stroke="#63b8ff" d="M808.44,-151.47C828.92,-144.43 853.69,-135.97 876,-128.5 881.7,-126.59 887.74,-124.59 893.64,-122.65"/>
<polygon fill="#63b8ff" stroke="#63b8ff" points="901.58,-120.05 895.1,-125.96 897.78,-121.3 893.97,-122.54 893.97,-122.54 893.97,-122.54 897.78,-121.3 892.85,-119.12 901.58,-120.05 901.58,-120.05"/>
</a>
</g>
</g>
<!-- Node14 -->
<g id="Node000014" class="node">
<title>Node14</title>
<g id="a_Node000014"><a target="_parent" xlink:href="https://doc.qt.io/qt-5/qbytearray.html#toHex" xlink:title=" ">
<polygon fill="white" stroke="#666666" points="985.5,-231 878.5,-231 878.5,-212 985.5,-212 985.5,-231"/>
<text text-anchor="middle" x="932" y="-219" font-family="Helvetica,sans-Serif" font-size="10.00">QByteArray::toHex</text>
</a>
</g>
</g>
<!-- Node10&#45;&gt;Node14 -->
<g id="edge16_Node000010_Node000014" class="edge">
<title>Node10&#45;&gt;Node14</title>
<g id="a_edge16_Node000010_Node000014"><a xlink:title=" ">
<path fill="none" stroke="#63b8ff" d="M810.36,-181.53C836.69,-190.25 869.44,-201.1 894.17,-209.3"/>
<polygon fill="#63b8ff" stroke="#63b8ff" points="901.9,-211.86 893.17,-212.76 898.1,-210.6 894.3,-209.34 894.3,-209.34 894.3,-209.34 898.1,-210.6 895.43,-205.92 901.9,-211.86 901.9,-211.86"/>
</a>
</g>
</g>
</g>
</svg>
