<?xml version="1.0" encoding="UTF-8" standalone="no"?>
<!DOCTYPE svg PUBLIC "-//W3C//DTD SVG 1.1//EN"
 "http://www.w3.org/Graphics/SVG/1.1/DTD/svg11.dtd">
<!-- Generated by graphviz version 2.43.0 (0)
 -->
<!-- Title: DsoServicePrivate::characteristicRead Pages: 1 -->
<svg width="846pt" height="450pt"
 viewBox="0.00 0.00 846.00 449.56" xmlns="http://www.w3.org/2000/svg" xmlns:xlink="http://www.w3.org/1999/xlink">
<g id="graph0" class="graph" transform="scale(1 1) rotate(0) translate(4 445.56)">
<title>DsoServicePrivate::characteristicRead</title>
<!-- Node1 -->
<g id="Node000001" class="node">
<title>Node1</title>
<g id="a_Node000001"><a xlink:title="Implements AbstractPokitServicePrivate::characteristicRead to parse value, then emit a specialised si...">
<polygon fill="#999999" stroke="#666666" points="112,-204.5 0,-204.5 0,-174.5 112,-174.5 112,-204.5"/>
<text text-anchor="start" x="8" y="-192.5" font-family="Helvetica,sans-Serif" font-size="10.00">DsoServicePrivate::</text>
<text text-anchor="middle" x="56" y="-181.5" font-family="Helvetica,sans-Serif" font-size="10.00">characteristicRead</text>
</a>
</g>
</g>
<!-- Node2 -->
<g id="Node000002" class="node">
<title>Node2</title>
<g id="a_Node000002"><a xlink:href="classAbstractPokitServicePrivate.html#a84bef330c6ff124f1e460bb8949d82da" target="_top" xlink:title="Handles QLowEnergyService::characteristicRead events.">
<polygon fill="white" stroke="#666666" points="300,-290.5 148,-290.5 148,-260.5 300,-260.5 300,-290.5"/>
<text text-anchor="start" x="156" y="-278.5" font-family="Helvetica,sans-Serif" font-size="10.00">AbstractPokitServicePrivate</text>
<text text-anchor="middle" x="224" y="-267.5" font-family="Helvetica,sans-Serif" font-size="10.00">::characteristicRead</text>
</a>
</g>
</g>
<!-- Node1&#45;&gt;Node2 -->
<g id="edge1_Node000001_Node000002" class="edge">
<title>Node1&#45;&gt;Node2</title>
<g id="a_edge1_Node000001_Node000002"><a xlink:title=" ">
<path fill="none" stroke="#63b8ff" d="M86.3,-204.68C114.27,-219.17 156.5,-241.05 186.62,-256.65"/>
<polygon fill="#63b8ff" stroke="#63b8ff" points="194,-260.47 185.24,-259.99 190.45,-258.63 186.89,-256.79 186.89,-256.79 186.89,-256.79 190.45,-258.63 188.55,-253.6 194,-260.47 194,-260.47"/>
</a>
</g>
</g>
<!-- Node6 -->
<g id="Node000006" class="node">
<title>Node6</title>
<g id="a_Node000006"><a target="_parent" xlink:href="https://doc.qt.io/qt-5/qobject.html#tr" xlink:title=" ">
<polygon fill="white" stroke="#666666" points="641.5,-428 572.5,-428 572.5,-409 641.5,-409 641.5,-428"/>
<text text-anchor="middle" x="607" y="-416" font-family="Helvetica,sans-Serif" font-size="10.00">QObject::tr</text>
</a>
</g>
</g>
<!-- Node1&#45;&gt;Node6 -->
<g id="edge29_Node000001_Node000006" class="edge">
<title>Node1&#45;&gt;Node6</title>
<g id="a_edge29_Node000001_Node000006"><a xlink:title=" ">
<path fill="none" stroke="#63b8ff" d="M67.46,-204.65C100.32,-250.62 207.01,-387.76 336,-427.5 413.81,-451.47 510.24,-438.8 564.26,-428.15"/>
<polygon fill="#63b8ff" stroke="#63b8ff" points="572.24,-426.53 565.11,-431.65 568.32,-427.33 564.4,-428.12 564.4,-428.12 564.4,-428.12 568.32,-427.33 563.68,-424.59 572.24,-426.53 572.24,-426.53"/>
</a>
</g>
</g>
<!-- Node14 -->
<g id="Node000014" class="node">
<title>Node14</title>
<g id="a_Node000014"><a target="_parent" xlink:href="https://doc.qt.io/qt-5/qlowenergycharacteristic.html#uuid" xlink:title=" ">
<polygon fill="white" stroke="#666666" points="484.5,-228.5 339.5,-228.5 339.5,-198.5 484.5,-198.5 484.5,-228.5"/>
<text text-anchor="start" x="347.5" y="-216.5" font-family="Helvetica,sans-Serif" font-size="10.00">QLowEnergyCharacteristic</text>
<text text-anchor="middle" x="412" y="-205.5" font-family="Helvetica,sans-Serif" font-size="10.00">::uuid</text>
</a>
</g>
</g>
<!-- Node1&#45;&gt;Node14 -->
<g id="edge30_Node000001_Node000014" class="edge">
<title>Node1&#45;&gt;Node14</title>
<g id="a_edge30_Node000001_Node000014"><a xlink:title=" ">
<path fill="none" stroke="#63b8ff" d="M112.31,-193.25C171.08,-197.23 264.54,-203.57 331.26,-208.09"/>
<polygon fill="#63b8ff" stroke="#63b8ff" points="339.26,-208.64 331.03,-211.69 335.27,-208.37 331.27,-208.09 331.27,-208.09 331.27,-208.09 335.27,-208.37 331.52,-204.5 339.26,-208.64 339.26,-208.64"/>
</a>
</g>
</g>
<!-- Node15 -->
<g id="Node000015" class="node">
<title>Node15</title>
<g id="a_Node000015"><a target="_parent" xlink:href="https://doc.qt.io/qt-5/qlowenergycharacteristic.html#name" xlink:title=" ">
<polygon fill="white" stroke="#666666" points="296.5,-132.5 151.5,-132.5 151.5,-102.5 296.5,-102.5 296.5,-132.5"/>
<text text-anchor="start" x="159.5" y="-120.5" font-family="Helvetica,sans-Serif" font-size="10.00">QLowEnergyCharacteristic</text>
<text text-anchor="middle" x="224" y="-109.5" font-family="Helvetica,sans-Serif" font-size="10.00">::name</text>
</a>
</g>
</g>
<!-- Node1&#45;&gt;Node15 -->
<g id="edge17_Node000001_Node000015" class="edge">
<title>Node1&#45;&gt;Node15</title>
<g id="a_edge17_Node000001_Node000015"><a xlink:title=" ">
<path fill="none" stroke="#63b8ff" d="M82.69,-174.39C100.61,-164.25 125.27,-151.04 148,-141.5 153.08,-139.37 158.42,-137.31 163.81,-135.36"/>
<polygon fill="#63b8ff" stroke="#63b8ff" points="171.73,-132.58 165.37,-138.63 167.95,-133.9 164.18,-135.23 164.18,-135.23 164.18,-135.23 167.95,-133.9 162.99,-131.83 171.73,-132.58 171.73,-132.58"/>
</a>
</g>
</g>
<!-- Node16 -->
<g id="Node000016" class="node">
<title>Node16</title>
<g id="a_Node000016"><a xlink:href="classDsoServicePrivate.html#af869cf5b228bac719545511ba4247b88" target="_top" xlink:title="Parses the Metadata value into a DsoService::Metatdata struct.">
<polygon fill="white" stroke="#666666" points="280,-180.5 168,-180.5 168,-150.5 280,-150.5 280,-180.5"/>
<text text-anchor="start" x="176" y="-168.5" font-family="Helvetica,sans-Serif" font-size="10.00">DsoServicePrivate::</text>
<text text-anchor="middle" x="224" y="-157.5" font-family="Helvetica,sans-Serif" font-size="10.00">parseMetadata</text>
</a>
</g>
</g>
<!-- Node1&#45;&gt;Node16 -->
<g id="edge18_Node000001_Node000016" class="edge">
<title>Node1&#45;&gt;Node16</title>
<g id="a_edge18_Node000001_Node000016"><a xlink:title=" ">
<path fill="none" stroke="#63b8ff" d="M112.28,-181.51C127.54,-179.3 144.21,-176.89 159.88,-174.63"/>
<polygon fill="#63b8ff" stroke="#63b8ff" points="167.97,-173.46 160.56,-178.16 164.01,-174.03 160.05,-174.6 160.05,-174.6 160.05,-174.6 164.01,-174.03 159.53,-171.04 167.97,-173.46 167.97,-173.46"/>
</a>
</g>
</g>
<!-- Node21 -->
<g id="Node000021" class="node">
<title>Node21</title>
<g id="a_Node000021"><a target="_parent" xlink:href="https://doc.qt.io/qt-5/qobject.html#Q_EMIT" xlink:title=" ">
<polygon fill="white" stroke="#666666" points="273,-84 175,-84 175,-65 273,-65 273,-84"/>
<text text-anchor="middle" x="224" y="-72" font-family="Helvetica,sans-Serif" font-size="10.00">QObject::Q_EMIT</text>
</a>
</g>
</g>
<!-- Node1&#45;&gt;Node21 -->
<g id="edge28_Node000001_Node000021" class="edge">
<title>Node1&#45;&gt;Node21</title>
<g id="a_edge28_Node000001_Node000021"><a xlink:title=" ">
<path fill="none" stroke="#63b8ff" d="M67.12,-174.31C82.18,-152.94 112.54,-114.29 148,-93.5 153.91,-90.03 160.45,-87.19 167.13,-84.87"/>
<polygon fill="#63b8ff" stroke="#63b8ff" points="175,-82.37 168.46,-88.22 171.19,-83.58 167.37,-84.79 167.37,-84.79 167.37,-84.79 171.19,-83.58 166.28,-81.36 175,-82.37 175,-82.37"/>
</a>
</g>
</g>
<!-- Node3 -->
<g id="Node000003" class="node">
<title>Node3</title>
<g id="a_Node000003"><a target="_parent" xlink:href="https://doc.qt.io/qt-5/qstring.html#arg-1" xlink:title=" ">
<polygon fill="white" stroke="#666666" points="819,-299 745,-299 745,-280 819,-280 819,-299"/>
<text text-anchor="middle" x="782" y="-287" font-family="Helvetica,sans-Serif" font-size="10.00">QString::arg</text>
</a>
</g>
</g>
<!-- Node2&#45;&gt;Node3 -->
<g id="edge2_Node000002_Node000003" class="edge">
<title>Node2&#45;&gt;Node3</title>
<g id="a_edge2_Node000002_Node000003"><a xlink:title=" ">
<path fill="none" stroke="#63b8ff" d="M300.27,-277.4C417.91,-280.36 641.68,-285.99 736.63,-288.38"/>
<polygon fill="#63b8ff" stroke="#63b8ff" points="744.87,-288.59 736.78,-291.99 740.87,-288.49 736.87,-288.39 736.87,-288.39 736.87,-288.39 740.87,-288.49 736.96,-284.79 744.87,-288.59 744.87,-288.59"/>
</a>
</g>
</g>
<!-- Node4 -->
<g id="Node000004" class="node">
<title>Node4</title>
<g id="a_Node000004"><a xlink:href="classPokitDevice.html#a0a3e6078ce0a7c2d93171ef0f4183d61" target="_top" xlink:title="Returns a human&#45;readable name for the uuid characteristic, or a null QString if unknown.">
<polygon fill="white" stroke="#666666" points="482.5,-390.5 341.5,-390.5 341.5,-360.5 482.5,-360.5 482.5,-390.5"/>
<text text-anchor="start" x="349.5" y="-378.5" font-family="Helvetica,sans-Serif" font-size="10.00">PokitDevice::charcteristic</text>
<text text-anchor="middle" x="412" y="-367.5" font-family="Helvetica,sans-Serif" font-size="10.00">ToString</text>
</a>
</g>
</g>
<!-- Node2&#45;&gt;Node4 -->
<g id="edge3_Node000002_Node000004" class="edge">
<title>Node2&#45;&gt;Node4</title>
<g id="a_edge3_Node000002_Node000004"><a xlink:title=" ">
<path fill="none" stroke="#63b8ff" d="M243.6,-290.76C264.84,-307.56 301.18,-334.46 336,-351.5 340.43,-353.67 345.11,-355.7 349.86,-357.6"/>
<polygon fill="#63b8ff" stroke="#63b8ff" points="357.39,-360.46 348.63,-360.98 353.65,-359.04 349.91,-357.62 349.91,-357.62 349.91,-357.62 353.65,-359.04 351.19,-354.25 357.39,-360.46 357.39,-360.46"/>
</a>
</g>
</g>
<!-- Node2&#45;&gt;Node6 -->
<g id="edge15_Node000002_Node000006" class="edge">
<title>Node2&#45;&gt;Node6</title>
<g id="a_edge15_Node000002_Node000006"><a xlink:title=" ">
<path fill="none" stroke="#63b8ff" d="M233.25,-290.73C249.04,-318.15 286.44,-375.23 336,-399.5 409.86,-435.68 508.92,-431.27 564.21,-424.86"/>
<polygon fill="#63b8ff" stroke="#63b8ff" points="572.37,-423.86 564.86,-428.41 568.4,-424.35 564.43,-424.83 564.43,-424.83 564.43,-424.83 568.4,-424.35 563.99,-421.26 572.37,-423.86 572.37,-423.86"/>
</a>
</g>
</g>
<!-- Node7 -->
<g id="Node000007" class="node">
<title>Node7</title>
<g id="a_Node000007"><a target="_parent" xlink:href="https://doc.qt.io/qt-5/qbytearray.html#size" xlink:title=" ">
<polygon fill="white" stroke="#666666" points="831,-114 733,-114 733,-95 831,-95 831,-114"/>
<text text-anchor="middle" x="782" y="-102" font-family="Helvetica,sans-Serif" font-size="10.00">QByteArray::size</text>
</a>
</g>
</g>
<!-- Node2&#45;&gt;Node7 -->
<g id="edge6_Node000002_Node000007" class="edge">
<title>Node2&#45;&gt;Node7</title>
<g id="a_edge6_Node000002_Node000007"><a xlink:title=" ">
<path fill="none" stroke="#63b8ff" d="M238.9,-260.26C254.22,-243.29 279.44,-214.91 300,-189.5 316.77,-168.77 313.42,-155.68 336,-141.5 457.12,-65.43 634.78,-79.79 724.58,-93.74"/>
<polygon fill="#63b8ff" stroke="#63b8ff" points="732.73,-95.04 724.26,-97.34 728.78,-94.41 724.83,-93.78 724.83,-93.78 724.83,-93.78 728.78,-94.41 725.4,-90.23 732.73,-95.04 732.73,-95.04"/>
</a>
</g>
</g>
<!-- Node8 -->
<g id="Node000008" class="node">
<title>Node8</title>
<g id="a_Node000008"><a xlink:href="classAbstractPokitServicePrivate.html#af748600fc201fe47f29b58e8e93179d8" target="_top" xlink:title="Returns up to maxSize bytes of data as a human readable hexadecimal string.">
<polygon fill="white" stroke="#666666" points="683,-225.5 531,-225.5 531,-195.5 683,-195.5 683,-225.5"/>
<text text-anchor="start" x="539" y="-213.5" font-family="Helvetica,sans-Serif" font-size="10.00">AbstractPokitServicePrivate</text>
<text text-anchor="middle" x="607" y="-202.5" font-family="Helvetica,sans-Serif" font-size="10.00">::toHexString</text>
</a>
</g>
</g>
<!-- Node2&#45;&gt;Node8 -->
<g id="edge7_Node000002_Node000008" class="edge">
<title>Node2&#45;&gt;Node8</title>
<g id="a_edge7_Node000002_Node000008"><a xlink:title=" ">
<path fill="none" stroke="#63b8ff" d="M300.09,-266.3C352.84,-259.44 424.96,-249.25 488,-237.5 503.75,-234.57 520.58,-230.99 536.45,-227.4"/>
<polygon fill="#63b8ff" stroke="#63b8ff" points="544.65,-225.53 537.65,-230.82 540.75,-226.42 536.85,-227.31 536.85,-227.31 536.85,-227.31 540.75,-226.42 536.05,-223.8 544.65,-225.53 544.65,-225.53"/>
</a>
</g>
</g>
<!-- Node13 -->
<g id="Node000013" class="node">
<title>Node13</title>
<g id="a_Node000013"><a target="_parent" xlink:href="https://doc.qt.io/qt-5/quuid.html#toString" xlink:title=" ">
<polygon fill="white" stroke="#666666" points="457.5,-342 366.5,-342 366.5,-323 457.5,-323 457.5,-342"/>
<text text-anchor="middle" x="412" y="-330" font-family="Helvetica,sans-Serif" font-size="10.00">QUuid::toString</text>
</a>
</g>
</g>
<!-- Node2&#45;&gt;Node13 -->
<g id="edge14_Node000002_Node000013" class="edge">
<title>Node2&#45;&gt;Node13</title>
<g id="a_edge14_Node000002_Node000013"><a xlink:title=" ">
<path fill="none" stroke="#63b8ff" d="M274.36,-290.63C304.95,-300 343.7,-311.87 372.11,-320.58"/>
<polygon fill="#63b8ff" stroke="#63b8ff" points="379.83,-322.95 371.13,-324.05 376.01,-321.78 372.18,-320.6 372.18,-320.6 372.18,-320.6 376.01,-321.78 373.24,-317.16 379.83,-322.95 379.83,-322.95"/>
</a>
</g>
</g>
<!-- Node2&#45;&gt;Node14 -->
<g id="edge16_Node000002_Node000014" class="edge">
<title>Node2&#45;&gt;Node14</title>
<g id="a_edge16_Node000002_Node000014"><a xlink:title=" ">
<path fill="none" stroke="#63b8ff" d="M270.03,-260.49C296.56,-251.65 330.27,-240.41 358.07,-231.14"/>
<polygon fill="#63b8ff" stroke="#63b8ff" points="365.74,-228.59 359.29,-234.53 361.95,-229.85 358.16,-231.12 358.16,-231.12 358.16,-231.12 361.95,-229.85 357.02,-227.7 365.74,-228.59 365.74,-228.59"/>
</a>
</g>
</g>
<!-- Node5 -->
<g id="Node000005" class="node">
<title>Node5</title>
<g id="a_Node000005"><a target="_parent" xlink:href="https://doc.qt.io/qt-5/qbluetoothuuid.html#characteristicToString" xlink:title=" ">
<polygon fill="white" stroke="#666666" points="690,-390.5 524,-390.5 524,-360.5 690,-360.5 690,-390.5"/>
<text text-anchor="start" x="532" y="-378.5" font-family="Helvetica,sans-Serif" font-size="10.00">QBluetoothUuid::characteristic</text>
<text text-anchor="middle" x="607" y="-367.5" font-family="Helvetica,sans-Serif" font-size="10.00">ToString</text>
</a>
</g>
</g>
<!-- Node4&#45;&gt;Node5 -->
<g id="edge4_Node000004_Node000005" class="edge">
<title>Node4&#45;&gt;Node5</title>
<g id="a_edge4_Node000004_Node000005"><a xlink:title=" ">
<path fill="none" stroke="#63b8ff" d="M482.68,-375.5C493.45,-375.5 504.71,-375.5 515.85,-375.5"/>
<polygon fill="#63b8ff" stroke="#63b8ff" points="523.94,-375.5 515.94,-379.1 519.94,-375.5 515.94,-375.5 515.94,-375.5 515.94,-375.5 519.94,-375.5 515.94,-371.9 523.94,-375.5 523.94,-375.5"/>
</a>
</g>
</g>
<!-- Node4&#45;&gt;Node6 -->
<g id="edge5_Node000004_Node000006" class="edge">
<title>Node4&#45;&gt;Node6</title>
<g id="a_edge5_Node000004_Node000006"><a xlink:title=" ">
<path fill="none" stroke="#63b8ff" d="M480.5,-390.54C508.43,-396.76 539.94,-403.78 564.39,-409.23"/>
<polygon fill="#63b8ff" stroke="#63b8ff" points="572.4,-411.01 563.81,-412.79 568.5,-410.14 564.59,-409.27 564.59,-409.27 564.59,-409.27 568.5,-410.14 565.38,-405.76 572.4,-411.01 572.4,-411.01"/>
</a>
</g>
</g>
<!-- Node8&#45;&gt;Node3 -->
<g id="edge8_Node000008_Node000003" class="edge">
<title>Node8&#45;&gt;Node3</title>
<g id="a_edge8_Node000008_Node000003"><a xlink:title=" ">
<path fill="none" stroke="#63b8ff" d="M658.31,-225.65C669.1,-229.79 680.2,-234.74 690,-240.5 708.21,-251.19 707.61,-261.13 726,-271.5 729.57,-273.52 733.4,-275.35 737.32,-277"/>
<polygon fill="#63b8ff" stroke="#63b8ff" points="744.92,-279.96 736.16,-280.41 741.19,-278.51 737.46,-277.05 737.46,-277.05 737.46,-277.05 741.19,-278.51 738.77,-273.7 744.92,-279.96 744.92,-279.96"/>
</a>
</g>
</g>
<!-- Node8&#45;&gt;Node7 -->
<g id="edge12_Node000008_Node000007" class="edge">
<title>Node8&#45;&gt;Node7</title>
<g id="a_edge12_Node000008_Node000007"><a xlink:title=" ">
<path fill="none" stroke="#63b8ff" d="M659.19,-195.41C670.05,-190.76 680.95,-184.86 690,-177.5 712.38,-159.3 703.17,-141.13 726,-123.5 728.87,-121.29 732.01,-119.32 735.29,-117.58"/>
<polygon fill="#63b8ff" stroke="#63b8ff" points="742.66,-114.1 736.96,-120.77 739.04,-115.81 735.42,-117.51 735.42,-117.51 735.42,-117.51 739.04,-115.81 733.88,-114.26 742.66,-114.1 742.66,-114.1"/>
</a>
</g>
</g>
<!-- Node9 -->
<g id="Node000009" class="node">
<title>Node9</title>
<g id="a_Node000009"><a target="_parent" xlink:href="https://doc.qt.io/qt-5/qstring.html#fromLatin1" xlink:title=" ">
<polygon fill="white" stroke="#666666" points="838,-188 726,-188 726,-169 838,-169 838,-188"/>
<text text-anchor="middle" x="782" y="-176" font-family="Helvetica,sans-Serif" font-size="10.00">QString::fromLatin1</text>
</a>
</g>
</g>
<!-- Node8&#45;&gt;Node9 -->
<g id="edge9_Node000008_Node000009" class="edge">
<title>Node8&#45;&gt;Node9</title>
<g id="a_edge9_Node000008_Node000009"><a xlink:title=" ">
<path fill="none" stroke="#63b8ff" d="M683.13,-196.6C695.99,-194.22 709.2,-191.78 721.58,-189.49"/>
<polygon fill="#63b8ff" stroke="#63b8ff" points="729.59,-188.01 722.38,-193 725.66,-188.74 721.72,-189.46 721.72,-189.46 721.72,-189.46 725.66,-188.74 721.07,-185.92 729.59,-188.01 729.59,-188.01"/>
</a>
</g>
</g>
<!-- Node10 -->
<g id="Node000010" class="node">
<title>Node10</title>
<g id="a_Node000010"><a target="_parent" xlink:href="https://doc.qt.io/qt-5/qbytearray.html#left" xlink:title=" ">
<polygon fill="white" stroke="#666666" points="829,-151 735,-151 735,-132 829,-132 829,-151"/>
<text text-anchor="middle" x="782" y="-139" font-family="Helvetica,sans-Serif" font-size="10.00">QByteArray::left</text>
</a>
</g>
</g>
<!-- Node8&#45;&gt;Node10 -->
<g id="edge10_Node000008_Node000010" class="edge">
<title>Node8&#45;&gt;Node10</title>
<g id="a_edge10_Node000008_Node000010"><a xlink:title=" ">
<path fill="none" stroke="#63b8ff" d="M646.99,-195.35C660.66,-189.9 676.08,-183.58 690,-177.5 706.21,-170.42 709.61,-167.18 726,-160.5 731.6,-158.22 737.58,-155.97 743.46,-153.86"/>
<polygon fill="#63b8ff" stroke="#63b8ff" points="751.38,-151.07 745.03,-157.12 747.61,-152.4 743.83,-153.73 743.83,-153.73 743.83,-153.73 747.61,-152.4 742.64,-150.33 751.38,-151.07 751.38,-151.07"/>
</a>
</g>
</g>
<!-- Node11 -->
<g id="Node000011" class="node">
<title>Node11</title>
<g id="a_Node000011"><a target="_parent" xlink:href="https://doc.qt.io/qt-5/qbytearray.html#right" xlink:title=" ">
<polygon fill="white" stroke="#666666" points="832.5,-262 731.5,-262 731.5,-243 832.5,-243 832.5,-262"/>
<text text-anchor="middle" x="782" y="-250" font-family="Helvetica,sans-Serif" font-size="10.00">QByteArray::right</text>
</a>
</g>
</g>
<!-- Node8&#45;&gt;Node11 -->
<g id="edge11_Node000008_Node000011" class="edge">
<title>Node8&#45;&gt;Node11</title>
<g id="a_edge11_Node000008_Node000011"><a xlink:title=" ">
<path fill="none" stroke="#63b8ff" d="M669.97,-225.54C691.02,-230.65 714.18,-236.28 733.87,-241.06"/>
<polygon fill="#63b8ff" stroke="#63b8ff" points="741.8,-242.98 733.18,-244.6 737.92,-242.04 734.03,-241.1 734.03,-241.1 734.03,-241.1 737.92,-242.04 734.88,-237.6 741.8,-242.98 741.8,-242.98"/>
</a>
</g>
</g>
<!-- Node12 -->
<g id="Node000012" class="node">
<title>Node12</title>
<g id="a_Node000012"><a target="_parent" xlink:href="https://doc.qt.io/qt-5/qbytearray.html#toHex" xlink:title=" ">
<polygon fill="white" stroke="#666666" points="835.5,-225 728.5,-225 728.5,-206 835.5,-206 835.5,-225"/>
<text text-anchor="middle" x="782" y="-213" font-family="Helvetica,sans-Serif" font-size="10.00">QByteArray::toHex</text>
</a>
</g>
</g>
<!-- Node8&#45;&gt;Node12 -->
<g id="edge13_Node000008_Node000012" class="edge">
<title>Node8&#45;&gt;Node12</title>
<g id="a_edge13_Node000008_Node000012"><a xlink:title=" ">
<path fill="none" stroke="#63b8ff" d="M683.13,-212.67C695.5,-213.03 708.19,-213.4 720.16,-213.74"/>
<polygon fill="#63b8ff" stroke="#63b8ff" points="728.31,-213.98 720.21,-217.34 724.32,-213.86 720.32,-213.75 720.32,-213.75 720.32,-213.75 724.32,-213.86 720.42,-210.15 728.31,-213.98 728.31,-213.98"/>
</a>
</g>
</g>
<!-- Node17 -->
<g id="Node000017" class="node">
<title>Node17</title>
<g id="a_Node000017"><a target="_parent" xlink:href="https://doc.qt.io/qt-5/qbytearray.html#at" xlink:title=" ">
<polygon fill="white" stroke="#666666" points="456,-56 368,-56 368,-37 456,-37 456,-56"/>
<text text-anchor="middle" x="412" y="-44" font-family="Helvetica,sans-Serif" font-size="10.00">QByteArray::at</text>
</a>
</g>
</g>
<!-- Node16&#45;&gt;Node17 -->
<g id="edge19_Node000016_Node000017" class="edge">
<title>Node16&#45;&gt;Node17</title>
<g id="a_edge19_Node000016_Node000017"><a xlink:title=" ">
<path fill="none" stroke="#63b8ff" d="M280.13,-153.53C287.31,-150.41 294.17,-146.46 300,-141.5 326.93,-118.56 309.07,-93.44 336,-70.5 343,-64.53 351.51,-60.05 360.24,-56.67"/>
<polygon fill="#63b8ff" stroke="#63b8ff" points="367.94,-53.98 361.57,-60.02 364.16,-55.3 360.38,-56.62 360.38,-56.62 360.38,-56.62 364.16,-55.3 359.2,-53.22 367.94,-53.98 367.94,-53.98"/>
</a>
</g>
</g>
<!-- Node18 -->
<g id="Node000018" class="node">
<title>Node18</title>
<g id="a_Node000018"><a xlink:href="classAbstractPokitServicePrivate.html#af8b480a950244540bfff7fc4b476a0ef" target="_top" xlink:title="Returns false if data is smaller than minSize, otherwise returns failOnMax if data is bigger than max...">
<polygon fill="white" stroke="#666666" points="488,-180.5 336,-180.5 336,-150.5 488,-150.5 488,-180.5"/>
<text text-anchor="start" x="344" y="-168.5" font-family="Helvetica,sans-Serif" font-size="10.00">AbstractPokitServicePrivate</text>
<text text-anchor="middle" x="412" y="-157.5" font-family="Helvetica,sans-Serif" font-size="10.00">::checkSize</text>
</a>
</g>
</g>
<!-- Node16&#45;&gt;Node18 -->
<g id="edge20_Node000016_Node000018" class="edge">
<title>Node16&#45;&gt;Node18</title>
<g id="a_edge20_Node000016_Node000018"><a xlink:title=" ">
<path fill="none" stroke="#63b8ff" d="M280.05,-165.5C294.92,-165.5 311.35,-165.5 327.41,-165.5"/>
<polygon fill="#63b8ff" stroke="#63b8ff" points="335.76,-165.5 327.76,-169.1 331.76,-165.5 327.76,-165.5 327.76,-165.5 327.76,-165.5 331.76,-165.5 327.76,-161.9 335.76,-165.5 335.76,-165.5"/>
</a>
</g>
</g>
<!-- Node19 -->
<g id="Node000019" class="node">
<title>Node19</title>
<g id="a_Node000019"><a target="_parent" xlink:href="https://doc.qt.io/qt-5/qbytearray.html#mid" xlink:title=" ">
<polygon fill="white" stroke="#666666" points="655.5,-133 558.5,-133 558.5,-114 655.5,-114 655.5,-133"/>
<text text-anchor="middle" x="607" y="-121" font-family="Helvetica,sans-Serif" font-size="10.00">QByteArray::mid</text>
</a>
</g>
</g>
<!-- Node16&#45;&gt;Node19 -->
<g id="edge27_Node000016_Node000019" class="edge">
<title>Node16&#45;&gt;Node19</title>
<g id="a_edge27_Node000016_Node000019"><a xlink:title=" ">
<path fill="none" stroke="#63b8ff" d="M280.05,-151.93C297.81,-148 317.65,-144.08 336,-141.5 409.68,-131.14 495.53,-126.71 550.29,-124.83"/>
<polygon fill="#63b8ff" stroke="#63b8ff" points="558.47,-124.57 550.6,-128.43 554.48,-124.7 550.48,-124.83 550.48,-124.83 550.48,-124.83 554.48,-124.7 550.36,-121.23 558.47,-124.57 558.47,-124.57"/>
</a>
</g>
</g>
<!-- Node20 -->
<g id="Node000020" class="node">
<title>Node20</title>
<g id="a_Node000020"><a target="_parent" xlink:href="https://doc.qt.io/qt-5/qbytearray.html#constData" xlink:title=" ">
<polygon fill="white" stroke="#666666" points="476,-19 348,-19 348,0 476,0 476,-19"/>
<text text-anchor="middle" x="412" y="-7" font-family="Helvetica,sans-Serif" font-size="10.00">QByteArray::constData</text>
</a>
</g>
</g>
<!-- Node16&#45;&gt;Node20 -->
<g id="edge26_Node000016_Node000020" class="edge">
<title>Node16&#45;&gt;Node20</title>
<g id="a_edge26_Node000016_Node000020"><a xlink:title=" ">
<path fill="none" stroke="#63b8ff" d="M280.15,-154.72C287.49,-151.42 294.4,-147.12 300,-141.5 337.5,-103.86 297.13,-63.73 336,-27.5 337.59,-26.02 339.27,-24.66 341.04,-23.4"/>
<polygon fill="#63b8ff" stroke="#63b8ff" points="348.2,-19.06 343.22,-26.29 344.78,-21.14 341.36,-23.21 341.36,-23.21 341.36,-23.21 344.78,-21.14 339.5,-20.13 348.2,-19.06 348.2,-19.06"/>
</a>
</g>
</g>
<!-- Node18&#45;&gt;Node3 -->
<g id="edge21_Node000018_Node000003" class="edge">
<title>Node18&#45;&gt;Node3</title>
<g id="a_edge21_Node000018_Node000003"><a xlink:title=" ">
<path fill="none" stroke="#63b8ff" d="M471.92,-180.6C477.58,-183.14 483.05,-186.09 488,-189.5 509.1,-204.02 502.21,-221.04 524,-234.5 559.11,-256.19 672.9,-274.69 736.67,-283.67"/>
<polygon fill="#63b8ff" stroke="#63b8ff" points="744.94,-284.83 736.52,-287.29 740.98,-284.28 737.02,-283.72 737.02,-283.72 737.02,-283.72 740.98,-284.28 737.51,-280.16 744.94,-284.83 744.94,-284.83"/>
</a>
</g>
</g>
<!-- Node18&#45;&gt;Node6 -->
<g id="edge25_Node000018_Node000006" class="edge">
<title>Node18&#45;&gt;Node6</title>
<g id="a_edge25_Node000018_Node000006"><a xlink:title=" ">
<path fill="none" stroke="#63b8ff" d="M477.85,-180.65C481.6,-183.17 485.04,-186.09 488,-189.5 550.11,-260.98 459.01,-330.63 524,-399.5 534.32,-410.44 549.6,-415.65 564.18,-417.98"/>
<polygon fill="#63b8ff" stroke="#63b8ff" points="572.18,-418.99 563.79,-421.56 568.21,-418.49 564.24,-417.99 564.24,-417.99 564.24,-417.99 568.21,-418.49 564.69,-414.41 572.18,-418.99 572.18,-418.99"/>
</a>
</g>
</g>
<!-- Node18&#45;&gt;Node7 -->
<g id="edge23_Node000018_Node000007" class="edge">
<title>Node18&#45;&gt;Node7</title>
<g id="a_edge23_Node000018_Node000007"><a xlink:title=" ">
<path fill="none" stroke="#63b8ff" d="M488.25,-167.33C544.82,-166.78 623.65,-161.88 690,-142.5 707.37,-137.43 709.4,-130.7 726,-123.5 731.42,-121.15 737.23,-118.89 742.97,-116.79"/>
<polygon fill="#63b8ff" stroke="#63b8ff" points="750.71,-114.03 744.38,-120.11 746.94,-115.37 743.17,-116.71 743.17,-116.71 743.17,-116.71 746.94,-115.37 741.97,-113.32 750.71,-114.03 750.71,-114.03"/>
</a>
</g>
</g>
<!-- Node18&#45;&gt;Node8 -->
<g id="edge24_Node000018_Node000008" class="edge">
<title>Node18&#45;&gt;Node8</title>
<g id="a_edge24_Node000018_Node000008"><a xlink:title=" ">
<path fill="none" stroke="#63b8ff" d="M477.53,-180.55C495.56,-184.75 515.27,-189.34 533.71,-193.64"/>
<polygon fill="#63b8ff" stroke="#63b8ff" points="541.53,-195.47 532.92,-197.16 537.63,-194.56 533.74,-193.65 533.74,-193.65 533.74,-193.65 537.63,-194.56 534.55,-190.14 541.53,-195.47 541.53,-195.47"/>
</a>
</g>
</g>
<!-- Node18&#45;&gt;Node19 -->
<g id="edge22_Node000018_Node000019" class="edge">
<title>Node18&#45;&gt;Node19</title>
<g id="a_edge22_Node000018_Node000019"><a xlink:title=" ">
<path fill="none" stroke="#63b8ff" d="M482.13,-150.46C505.93,-145.28 532.14,-139.57 554.3,-134.75"/>
<polygon fill="#63b8ff" stroke="#63b8ff" points="562.27,-133.02 555.22,-138.23 558.36,-133.87 554.46,-134.72 554.46,-134.72 554.46,-134.72 558.36,-133.87 553.69,-131.2 562.27,-133.02 562.27,-133.02"/>
</a>
</g>
</g>
</g>
</svg>
