<?xml version="1.0" encoding="UTF-8" standalone="no"?>
<!DOCTYPE svg PUBLIC "-//W3C//DTD SVG 1.1//EN"
 "http://www.w3.org/Graphics/SVG/1.1/DTD/svg11.dtd">
<!-- Generated by graphviz version 2.43.0 (0)
 -->
<!-- Title: SetNameCommand::processOptions Pages: 1 -->
<svg width="823pt" height="540pt"
 viewBox="0.00 0.00 823.00 540.00" xmlns="http://www.w3.org/2000/svg" xmlns:xlink="http://www.w3.org/1999/xlink">
<g id="graph0" class="graph" transform="scale(1 1) rotate(0) translate(4 536)">
<title>SetNameCommand::processOptions</title>
<!-- Node1 -->
<g id="Node000001" class="node">
<title>Node1</title>
<g id="a_Node000001"><a xlink:title="Processes the relevant options from the command line parser.">
<polygon fill="#999999" stroke="#666666" points="193,-131 0,-131 0,-112 193,-112 193,-131"/>
<text text-anchor="middle" x="96.5" y="-119" font-family="Helvetica,sans-Serif" font-size="10.00">SetNameCommand::processOptions</text>
</a>
</g>
</g>
<!-- Node2 -->
<g id="Node000002" class="node">
<title>Node2</title>
<g id="a_Node000002"><a target="_parent" xlink:href="https://doc.qt.io/qt-5/qlist.html#append" xlink:title=" ">
<polygon fill="white" stroke="#666666" points="562,-532 479,-532 479,-513 562,-513 562,-532"/>
<text text-anchor="middle" x="520.5" y="-520" font-family="Helvetica,sans-Serif" font-size="10.00">QList::append</text>
</a>
</g>
</g>
<!-- Node1&#45;&gt;Node2 -->
<g id="edge1_Node000001_Node000002" class="edge">
<title>Node1&#45;&gt;Node2</title>
<g id="a_edge1_Node000001_Node000002"><a xlink:title=" ">
<path fill="none" stroke="#63b8ff" d="M102.09,-131.1C126.29,-180.55 244.53,-408.04 416,-504.5 432.47,-513.77 452.57,-518.48 470.66,-520.81"/>
<polygon fill="#63b8ff" stroke="#63b8ff" points="478.8,-521.72 470.45,-524.41 474.83,-521.27 470.85,-520.83 470.85,-520.83 470.85,-520.83 474.83,-521.27 471.25,-517.25 478.8,-521.72 478.8,-521.72"/>
</a>
</g>
</g>
<!-- Node3 -->
<g id="Node000003" class="node">
<title>Node3</title>
<g id="a_Node000003"><a target="_parent" xlink:href="https://doc.qt.io/qt-5/qlist.html#isEmpty" xlink:title=" ">
<polygon fill="white" stroke="#666666" points="348,-93 261,-93 261,-74 348,-74 348,-93"/>
<text text-anchor="middle" x="304.5" y="-81" font-family="Helvetica,sans-Serif" font-size="10.00">QList::isEmpty</text>
</a>
</g>
</g>
<!-- Node1&#45;&gt;Node3 -->
<g id="edge2_Node000001_Node000003" class="edge">
<title>Node1&#45;&gt;Node3</title>
<g id="a_edge2_Node000001_Node000003"><a xlink:title=" ">
<path fill="none" stroke="#63b8ff" d="M149.22,-111.96C180.83,-106.13 221.11,-98.7 252.58,-92.89"/>
<polygon fill="#63b8ff" stroke="#63b8ff" points="260.79,-91.38 253.58,-96.37 256.86,-92.1 252.93,-92.83 252.93,-92.83 252.93,-92.83 256.86,-92.1 252.27,-89.29 260.79,-91.38 260.79,-91.38"/>
</a>
</g>
</g>
<!-- Node4 -->
<g id="Node000004" class="node">
<title>Node4</title>
<g id="a_Node000004"><a target="_parent" xlink:href="https://doc.qt.io/qt-5/qstring.html#isEmpty" xlink:title=" ">
<polygon fill="white" stroke="#666666" points="353.5,-56 255.5,-56 255.5,-37 353.5,-37 353.5,-56"/>
<text text-anchor="middle" x="304.5" y="-44" font-family="Helvetica,sans-Serif" font-size="10.00">QString::isEmpty</text>
</a>
</g>
</g>
<!-- Node1&#45;&gt;Node4 -->
<g id="edge3_Node000001_Node000004" class="edge">
<title>Node1&#45;&gt;Node4</title>
<g id="a_edge3_Node000001_Node000004"><a xlink:title=" ">
<path fill="none" stroke="#63b8ff" d="M116.7,-111.93C141.95,-99.64 187.94,-78.24 229,-64.5 235.95,-62.17 243.36,-60.01 250.7,-58.06"/>
<polygon fill="#63b8ff" stroke="#63b8ff" points="258.63,-56.02 251.78,-61.5 254.75,-57.02 250.88,-58.01 250.88,-58.01 250.88,-58.01 254.75,-57.02 249.98,-54.53 258.63,-56.02 258.63,-56.02"/>
</a>
</g>
</g>
<!-- Node5 -->
<g id="Node000005" class="node">
<title>Node5</title>
<g id="a_Node000005"><a target="_parent" xlink:href="https://doc.qt.io/qt-5/qstring.html#length" xlink:title=" ">
<polygon fill="white" stroke="#666666" points="349,-19 260,-19 260,0 349,0 349,-19"/>
<text text-anchor="middle" x="304.5" y="-7" font-family="Helvetica,sans-Serif" font-size="10.00">QString::length</text>
</a>
</g>
</g>
<!-- Node1&#45;&gt;Node5 -->
<g id="edge4_Node000001_Node000005" class="edge">
<title>Node1&#45;&gt;Node5</title>
<g id="a_edge4_Node000001_Node000005"><a xlink:title=" ">
<path fill="none" stroke="#63b8ff" d="M107.86,-111.91C128.98,-92.88 179.23,-50.25 229,-27.5 236.17,-24.22 244.01,-21.5 251.83,-19.24"/>
<polygon fill="#63b8ff" stroke="#63b8ff" points="259.62,-17.15 252.83,-22.7 255.75,-18.19 251.89,-19.23 251.89,-19.23 251.89,-19.23 255.75,-18.19 250.95,-15.75 259.62,-17.15 259.62,-17.15"/>
</a>
</g>
</g>
<!-- Node6 -->
<g id="Node000006" class="node">
<title>Node6</title>
<g id="a_Node000006"><a xlink:href="classAbstractCommand.html#ad827a18a24776efeb955739459d48f7d" target="_top" xlink:title="Processes the relevant options from the command line parser.">
<polygon fill="white" stroke="#666666" points="380,-281.5 229,-281.5 229,-251.5 380,-251.5 380,-281.5"/>
<text text-anchor="start" x="237" y="-269.5" font-family="Helvetica,sans-Serif" font-size="10.00">AbstractCommand::process</text>
<text text-anchor="middle" x="304.5" y="-258.5" font-family="Helvetica,sans-Serif" font-size="10.00">Options</text>
</a>
</g>
</g>
<!-- Node1&#45;&gt;Node6 -->
<g id="edge5_Node000001_Node000006" class="edge">
<title>Node1&#45;&gt;Node6</title>
<g id="a_edge5_Node000001_Node000006"><a xlink:title=" ">
<path fill="none" stroke="#63b8ff" d="M111.02,-131.01C144.22,-154.39 230.35,-215.01 275.29,-246.64"/>
<polygon fill="#63b8ff" stroke="#63b8ff" points="281.87,-251.27 273.25,-249.61 278.6,-248.97 275.33,-246.67 275.33,-246.67 275.33,-246.67 278.6,-248.97 277.4,-243.72 281.87,-251.27 281.87,-251.27"/>
</a>
</g>
</g>
<!-- Node16 -->
<g id="Node000016" class="node">
<title>Node16</title>
<g id="a_Node000016"><a target="_parent" xlink:href="https://doc.qt.io/qt-5/qobject.html#tr" xlink:title=" ">
<polygon fill="white" stroke="#666666" points="555,-105 486,-105 486,-86 555,-86 555,-105"/>
<text text-anchor="middle" x="520.5" y="-93" font-family="Helvetica,sans-Serif" font-size="10.00">QObject::tr</text>
</a>
</g>
</g>
<!-- Node1&#45;&gt;Node16 -->
<g id="edge19_Node000001_Node000016" class="edge">
<title>Node1&#45;&gt;Node16</title>
<g id="a_edge19_Node000001_Node000016"><a xlink:title=" ">
<path fill="none" stroke="#63b8ff" d="M173.88,-131.02C191.92,-132.88 211.12,-134.55 229,-135.5 296.02,-139.06 315.4,-153.68 380,-135.5 398.05,-130.42 398.45,-120.11 416,-113.5 435.56,-106.13 458.36,-101.75 477.57,-99.16"/>
<polygon fill="#63b8ff" stroke="#63b8ff" points="485.56,-98.16 478.07,-102.73 481.59,-98.66 477.62,-99.15 477.62,-99.15 477.62,-99.15 481.59,-98.66 477.17,-95.58 485.56,-98.16 485.56,-98.16"/>
</a>
</g>
</g>
<!-- Node17 -->
<g id="Node000017" class="node">
<title>Node17</title>
<g id="a_Node000017"><a target="_parent" xlink:href="https://doc.qt.io/qt-5/qcommandlineparser.html#value" xlink:title=" ">
<polygon fill="white" stroke="#666666" points="583,-67.5 458,-67.5 458,-37.5 583,-37.5 583,-67.5"/>
<text text-anchor="start" x="466" y="-55.5" font-family="Helvetica,sans-Serif" font-size="10.00">QCommandLineParser</text>
<text text-anchor="middle" x="520.5" y="-44.5" font-family="Helvetica,sans-Serif" font-size="10.00">::value</text>
</a>
</g>
</g>
<!-- Node1&#45;&gt;Node17 -->
<g id="edge20_Node000001_Node000017" class="edge">
<title>Node1&#45;&gt;Node17</title>
<g id="a_edge20_Node000001_Node000017"><a xlink:title=" ">
<path fill="none" stroke="#63b8ff" d="M193.25,-127.18C249.19,-127.48 320.3,-122.54 380,-101.5 398.37,-95.03 398.19,-84.4 416,-76.5 426.62,-71.79 438.27,-67.95 449.82,-64.83"/>
<polygon fill="#63b8ff" stroke="#63b8ff" points="457.77,-62.78 450.92,-68.26 453.9,-63.78 450.03,-64.77 450.03,-64.77 450.03,-64.77 453.9,-63.78 449.13,-61.29 457.77,-62.78 457.77,-62.78"/>
</a>
</g>
</g>
<!-- Node6&#45;&gt;Node2 -->
<g id="edge6_Node000006_Node000002" class="edge">
<title>Node6&#45;&gt;Node2</title>
<g id="a_edge6_Node000006_Node000002"><a xlink:title=" ">
<path fill="none" stroke="#63b8ff" d="M315.1,-281.86C330.21,-306.46 359.9,-356.53 380,-401.5 399.78,-445.77 379.02,-473.13 416,-504.5 431.03,-517.25 451.81,-522.44 470.82,-524.19"/>
<polygon fill="#63b8ff" stroke="#63b8ff" points="478.83,-524.73 470.6,-527.78 474.84,-524.46 470.85,-524.19 470.85,-524.19 470.85,-524.19 474.84,-524.46 471.09,-520.6 478.83,-524.73 478.83,-524.73"/>
</a>
</g>
</g>
<!-- Node7 -->
<g id="Node000007" class="node">
<title>Node7</title>
<g id="a_Node000007"><a target="_parent" xlink:href="https://doc.qt.io/qt-5/qstring.html#arg-1" xlink:title=" ">
<polygon fill="white" stroke="#666666" points="557.5,-495 483.5,-495 483.5,-476 557.5,-476 557.5,-495"/>
<text text-anchor="middle" x="520.5" y="-483" font-family="Helvetica,sans-Serif" font-size="10.00">QString::arg</text>
</a>
</g>
</g>
<!-- Node6&#45;&gt;Node7 -->
<g id="edge7_Node000006_Node000007" class="edge">
<title>Node6&#45;&gt;Node7</title>
<g id="a_edge7_Node000006_Node000007"><a xlink:title=" ">
<path fill="none" stroke="#63b8ff" d="M314.02,-281.87C327.88,-306.92 356.18,-358.08 380,-401.5 396.07,-430.79 388.84,-448.04 416,-467.5 432.99,-479.68 455.52,-484.56 475.22,-486.24"/>
<polygon fill="#63b8ff" stroke="#63b8ff" points="483.46,-486.77 475.24,-489.85 479.47,-486.51 475.48,-486.25 475.48,-486.25 475.48,-486.25 479.47,-486.51 475.71,-482.66 483.46,-486.77 483.46,-486.77"/>
</a>
</g>
</g>
<!-- Node8 -->
<g id="Node000008" class="node">
<title>Node8</title>
<g id="a_Node000008"><a target="_parent" xlink:href="https://doc.qt.io/qt-5/qstringlist.html#contains" xlink:title=" ">
<polygon fill="white" stroke="#666666" points="579,-458 462,-458 462,-439 579,-439 579,-458"/>
<text text-anchor="middle" x="520.5" y="-446" font-family="Helvetica,sans-Serif" font-size="10.00">QStringList::contains</text>
</a>
</g>
</g>
<!-- Node6&#45;&gt;Node8 -->
<g id="edge8_Node000006_Node000008" class="edge">
<title>Node6&#45;&gt;Node8</title>
<g id="a_edge8_Node000006_Node000008"><a xlink:title=" ">
<path fill="none" stroke="#63b8ff" d="M311.02,-281.61C323.86,-314.44 359.03,-392.31 416,-429.5 427.21,-436.82 440.49,-441.5 453.73,-444.46"/>
<polygon fill="#63b8ff" stroke="#63b8ff" points="461.94,-446.09 453.4,-448.07 458.02,-445.31 454.1,-444.54 454.1,-444.54 454.1,-444.54 458.02,-445.31 454.8,-441.01 461.94,-446.09 461.94,-446.09"/>
</a>
</g>
</g>
<!-- Node9 -->
<g id="Node000009" class="node">
<title>Node9</title>
<g id="a_Node000009"><a target="_parent" xlink:href="https://doc.qt.io/qt-5/qcommandlineparser.html#isSet" xlink:title=" ">
<polygon fill="white" stroke="#666666" points="583,-420.5 458,-420.5 458,-390.5 583,-390.5 583,-420.5"/>
<text text-anchor="start" x="466" y="-408.5" font-family="Helvetica,sans-Serif" font-size="10.00">QCommandLineParser</text>
<text text-anchor="middle" x="520.5" y="-397.5" font-family="Helvetica,sans-Serif" font-size="10.00">::isSet</text>
</a>
</g>
</g>
<!-- Node6&#45;&gt;Node9 -->
<g id="edge9_Node000006_Node000009" class="edge">
<title>Node6&#45;&gt;Node9</title>
<g id="a_edge9_Node000006_Node000009"><a xlink:title=" ">
<path fill="none" stroke="#63b8ff" d="M315.72,-281.89C333.18,-306.88 371.22,-356.06 416,-381.5 426.46,-387.44 438.31,-391.91 450.16,-395.28"/>
<polygon fill="#63b8ff" stroke="#63b8ff" points="457.93,-397.33 449.27,-398.77 454.06,-396.31 450.19,-395.29 450.19,-395.29 450.19,-395.29 454.06,-396.31 451.11,-391.81 457.93,-397.33 457.93,-397.33"/>
</a>
</g>
</g>
<!-- Node10 -->
<g id="Node000010" class="node">
<title>Node10</title>
<g id="a_Node000010"><a target="_parent" xlink:href="https://doc.qt.io/qt-5/qbluetoothdevicediscoveryagent.html#lowEnergyDiscoveryTimeout" xlink:title=" ">
<polygon fill="white" stroke="#666666" points="616,-372.5 425,-372.5 425,-342.5 616,-342.5 616,-372.5"/>
<text text-anchor="start" x="433" y="-360.5" font-family="Helvetica,sans-Serif" font-size="10.00">QBluetoothDeviceDiscovery</text>
<text text-anchor="middle" x="520.5" y="-349.5" font-family="Helvetica,sans-Serif" font-size="10.00">Agent::lowEnergyDiscoveryTimeout</text>
</a>
</g>
</g>
<!-- Node6&#45;&gt;Node10 -->
<g id="edge10_Node000006_Node000010" class="edge">
<title>Node6&#45;&gt;Node10</title>
<g id="a_edge10_Node000006_Node000010"><a xlink:title=" ">
<path fill="none" stroke="#63b8ff" d="M326.04,-281.71C347.46,-296.9 382.54,-319.89 416,-333.5 421.89,-335.9 428.06,-338.08 434.35,-340.07"/>
<polygon fill="#63b8ff" stroke="#63b8ff" points="442.34,-342.48 433.65,-343.62 438.52,-341.33 434.69,-340.17 434.69,-340.17 434.69,-340.17 438.52,-341.33 435.73,-336.73 442.34,-342.48 442.34,-342.48"/>
</a>
</g>
</g>
<!-- Node11 -->
<g id="Node000011" class="node">
<title>Node11</title>
<g id="a_Node000011"><a target="_parent" xlink:href="https://doc.qt.io/qt-5/qcommandlineparser.html#optionNames" xlink:title=" ">
<polygon fill="white" stroke="#666666" points="583,-324.5 458,-324.5 458,-294.5 583,-294.5 583,-324.5"/>
<text text-anchor="start" x="466" y="-312.5" font-family="Helvetica,sans-Serif" font-size="10.00">QCommandLineParser</text>
<text text-anchor="middle" x="520.5" y="-301.5" font-family="Helvetica,sans-Serif" font-size="10.00">::optionNames</text>
</a>
</g>
</g>
<!-- Node6&#45;&gt;Node11 -->
<g id="edge11_Node000006_Node000011" class="edge">
<title>Node6&#45;&gt;Node11</title>
<g id="a_edge11_Node000006_Node000011"><a xlink:title=" ">
<path fill="none" stroke="#63b8ff" d="M380.05,-281.48C402.71,-286.03 427.53,-291.02 449.86,-295.51"/>
<polygon fill="#63b8ff" stroke="#63b8ff" points="457.97,-297.14 449.41,-299.09 454.05,-296.35 450.12,-295.56 450.12,-295.56 450.12,-295.56 454.05,-296.35 450.83,-292.03 457.97,-297.14 457.97,-297.14"/>
</a>
</g>
</g>
<!-- Node12 -->
<g id="Node000012" class="node">
<title>Node12</title>
<g id="a_Node000012"><a xlink:href="classAbstractCommand.html#afd6f41cfc925751415cfa45e3b2d0b4a" target="_top" xlink:title="Returns a list of CLI option names required by this command.">
<polygon fill="white" stroke="#666666" points="815,-259.5 661,-259.5 661,-229.5 815,-229.5 815,-259.5"/>
<text text-anchor="start" x="669" y="-247.5" font-family="Helvetica,sans-Serif" font-size="10.00">AbstractCommand::required</text>
<text text-anchor="middle" x="738" y="-236.5" font-family="Helvetica,sans-Serif" font-size="10.00">Options</text>
</a>
</g>
</g>
<!-- Node6&#45;&gt;Node12 -->
<g id="edge12_Node000006_Node000012" class="edge">
<title>Node6&#45;&gt;Node12</title>
<g id="a_edge12_Node000006_Node000012"><a xlink:title=" ">
<path fill="none" stroke="#63b8ff" d="M380.17,-262.69C456.08,-258.82 573.48,-252.84 652.69,-248.8"/>
<polygon fill="#63b8ff" stroke="#63b8ff" points="660.71,-248.39 652.9,-252.39 656.71,-248.59 652.72,-248.8 652.72,-248.8 652.72,-248.8 656.71,-248.59 652.53,-245.2 660.71,-248.39 660.71,-248.39"/>
</a>
</g>
</g>
<!-- Node13 -->
<g id="Node000013" class="node">
<title>Node13</title>
<g id="a_Node000013"><a target="_parent" xlink:href="https://doc.qt.io/qt-5/qbluetoothdevicediscoveryagent.html#setLowEnergyDiscoveryTimeout" xlink:title=" ">
<polygon fill="white" stroke="#666666" points="625,-190.5 416,-190.5 416,-160.5 625,-160.5 625,-190.5"/>
<text text-anchor="start" x="424" y="-178.5" font-family="Helvetica,sans-Serif" font-size="10.00">QBluetoothDeviceDiscovery</text>
<text text-anchor="middle" x="520.5" y="-167.5" font-family="Helvetica,sans-Serif" font-size="10.00">Agent::setLowEnergyDiscoveryTimeout</text>
</a>
</g>
</g>
<!-- Node6&#45;&gt;Node13 -->
<g id="edge13_Node000006_Node000013" class="edge">
<title>Node6&#45;&gt;Node13</title>
<g id="a_edge13_Node000006_Node000013"><a xlink:title=" ">
<path fill="none" stroke="#63b8ff" d="M326.04,-251.29C347.46,-236.1 382.54,-213.11 416,-199.5 421.89,-197.1 428.06,-194.92 434.35,-192.93"/>
<polygon fill="#63b8ff" stroke="#63b8ff" points="442.34,-190.52 435.73,-196.27 438.52,-191.67 434.69,-192.83 434.69,-192.83 434.69,-192.83 438.52,-191.67 433.65,-189.38 442.34,-190.52 442.34,-190.52"/>
</a>
</g>
</g>
<!-- Node14 -->
<g id="Node000014" class="node">
<title>Node14</title>
<g id="a_Node000014"><a xlink:href="classAbstractCommand.html#a1ceca3c5b4cb24277dd4d4054f45db18" target="_top" xlink:title="Returns a list of CLI option names supported by this command.">
<polygon fill="white" stroke="#666666" points="601.5,-238.5 439.5,-238.5 439.5,-208.5 601.5,-208.5 601.5,-238.5"/>
<text text-anchor="start" x="447.5" y="-226.5" font-family="Helvetica,sans-Serif" font-size="10.00">AbstractCommand::supported</text>
<text text-anchor="middle" x="520.5" y="-215.5" font-family="Helvetica,sans-Serif" font-size="10.00">Options</text>
</a>
</g>
</g>
<!-- Node6&#45;&gt;Node14 -->
<g id="edge14_Node000006_Node000014" class="edge">
<title>Node6&#45;&gt;Node14</title>
<g id="a_edge14_Node000006_Node000014"><a xlink:title=" ">
<path fill="none" stroke="#63b8ff" d="M380.05,-251.52C398.31,-247.85 417.96,-243.9 436.58,-240.16"/>
<polygon fill="#63b8ff" stroke="#63b8ff" points="444.5,-238.57 437.36,-243.68 440.57,-239.36 436.65,-240.15 436.65,-240.15 436.65,-240.15 440.57,-239.36 435.94,-236.62 444.5,-238.57 444.5,-238.57"/>
</a>
</g>
</g>
<!-- Node15 -->
<g id="Node000015" class="node">
<title>Node15</title>
<g id="a_Node000015"><a target="_parent" xlink:href="https://doc.qt.io/qt-5/qstring.html#toLower" xlink:title=" ">
<polygon fill="white" stroke="#666666" points="569.5,-142 471.5,-142 471.5,-123 569.5,-123 569.5,-142"/>
<text text-anchor="middle" x="520.5" y="-130" font-family="Helvetica,sans-Serif" font-size="10.00">QString::toLower</text>
</a>
</g>
</g>
<!-- Node6&#45;&gt;Node15 -->
<g id="edge16_Node000006_Node000015" class="edge">
<title>Node6&#45;&gt;Node15</title>
<g id="a_edge16_Node000006_Node000015"><a xlink:title=" ">
<path fill="none" stroke="#63b8ff" d="M315.32,-251.29C332.46,-226.08 370.4,-176.03 416,-151.5 430.32,-143.8 447.19,-139.16 463.11,-136.38"/>
<polygon fill="#63b8ff" stroke="#63b8ff" points="471.32,-135.09 463.98,-139.88 467.37,-135.71 463.42,-136.33 463.42,-136.33 463.42,-136.33 467.37,-135.71 462.86,-132.77 471.32,-135.09 471.32,-135.09"/>
</a>
</g>
</g>
<!-- Node6&#45;&gt;Node16 -->
<g id="edge17_Node000006_Node000016" class="edge">
<title>Node6&#45;&gt;Node16</title>
<g id="a_edge17_Node000006_Node000016"><a xlink:title=" ">
<path fill="none" stroke="#63b8ff" d="M318.82,-251.2C334.27,-233.17 360.15,-202.03 380,-173.5 397.76,-147.97 390.36,-131.09 416,-113.5 433.84,-101.26 457.38,-96.5 477.5,-94.91"/>
<polygon fill="#63b8ff" stroke="#63b8ff" points="485.6,-94.43 477.83,-98.5 481.61,-94.67 477.61,-94.91 477.61,-94.91 477.61,-94.91 481.61,-94.67 477.4,-91.31 485.6,-94.43 485.6,-94.43"/>
</a>
</g>
</g>
<!-- Node6&#45;&gt;Node17 -->
<g id="edge18_Node000006_Node000017" class="edge">
<title>Node6&#45;&gt;Node17</title>
<g id="a_edge18_Node000006_Node000017"><a xlink:title=" ">
<path fill="none" stroke="#63b8ff" d="M314.17,-251.23C339.51,-206.62 411.95,-79.49 416,-76.5 425.98,-69.13 437.86,-63.98 449.96,-60.38"/>
<polygon fill="#63b8ff" stroke="#63b8ff" points="457.92,-58.24 451.13,-63.8 454.06,-59.28 450.19,-60.32 450.19,-60.32 450.19,-60.32 454.06,-59.28 449.26,-56.84 457.92,-58.24 457.92,-58.24"/>
</a>
</g>
</g>
<!-- Node14&#45;&gt;Node12 -->
<g id="edge15_Node000014_Node000012" class="edge">
<title>Node14&#45;&gt;Node12</title>
<g id="a_edge15_Node000014_Node000012"><a xlink:title=" ">
<path fill="none" stroke="#63b8ff" d="M601.74,-231.32C618.4,-232.94 636,-234.66 652.8,-236.3"/>
<polygon fill="#63b8ff" stroke="#63b8ff" points="660.98,-237.09 652.66,-239.9 656.99,-236.7 653.01,-236.32 653.01,-236.32 653.01,-236.32 656.99,-236.7 653.36,-232.73 660.98,-237.09 660.98,-237.09"/>
</a>
</g>
</g>
</g>
</svg>
