<?xml version="1.0" encoding="UTF-8" standalone="no"?>
<!DOCTYPE svg PUBLIC "-//W3C//DTD SVG 1.1//EN"
 "http://www.w3.org/Graphics/SVG/1.1/DTD/svg11.dtd">
<!-- Generated by graphviz version 2.43.0 (0)
 -->
<!-- Title: MultimeterService::reading Pages: 1 -->
<svg width="826pt" height="257pt"
 viewBox="0.00 0.00 826.00 257.00" xmlns="http://www.w3.org/2000/svg" xmlns:xlink="http://www.w3.org/1999/xlink">
<g id="graph0" class="graph" transform="scale(1 1) rotate(0) translate(4 253)">
<title>MultimeterService::reading</title>
<!-- Node1 -->
<g id="Node000001" class="node">
<title>Node1</title>
<g id="a_Node000001"><a xlink:title="Returns the most recent value of the Multimeter service&#39;s Reading characteristic.">
<polygon fill="#999999" stroke="#666666" points="113,-83.5 0,-83.5 0,-53.5 113,-53.5 113,-83.5"/>
<text text-anchor="start" x="8" y="-71.5" font-family="Helvetica,sans-Serif" font-size="10.00">MultimeterService::</text>
<text text-anchor="middle" x="56.5" y="-60.5" font-family="Helvetica,sans-Serif" font-size="10.00">reading</text>
</a>
</g>
</g>
<!-- Node2 -->
<g id="Node000002" class="node">
<title>Node2</title>
<g id="a_Node000002"><a target="_parent" xlink:href="https://doc.qt.io/qt-5/qlowenergycharacteristic.html#isValid" xlink:title=" ">
<polygon fill="white" stroke="#666666" points="294,-131.5 149,-131.5 149,-101.5 294,-101.5 294,-131.5"/>
<text text-anchor="start" x="157" y="-119.5" font-family="Helvetica,sans-Serif" font-size="10.00">QLowEnergyCharacteristic</text>
<text text-anchor="middle" x="221.5" y="-108.5" font-family="Helvetica,sans-Serif" font-size="10.00">::isValid</text>
</a>
</g>
</g>
<!-- Node1&#45;&gt;Node2 -->
<g id="edge1_Node000001_Node000002" class="edge">
<title>Node1&#45;&gt;Node2</title>
<g id="a_edge1_Node000001_Node000002"><a xlink:title=" ">
<path fill="none" stroke="#63b8ff" d="M108.63,-83.56C125.47,-88.51 144.33,-94.07 161.69,-99.18"/>
<polygon fill="#63b8ff" stroke="#63b8ff" points="169.55,-101.5 160.86,-102.69 165.72,-100.37 161.88,-99.24 161.88,-99.24 161.88,-99.24 165.72,-100.37 162.9,-95.78 169.55,-101.5 169.55,-101.5"/>
</a>
</g>
</g>
<!-- Node3 -->
<g id="Node000003" class="node">
<title>Node3</title>
<g id="a_Node000003"><a xlink:href="classMultimeterServicePrivate.html#ac9594dce487207bafd123e1093f399db" target="_top" xlink:title="Parses the Reading value into a MultimeterService::Reading struct.">
<polygon fill="white" stroke="#666666" points="292,-83.5 151,-83.5 151,-53.5 292,-53.5 292,-83.5"/>
<text text-anchor="start" x="159" y="-71.5" font-family="Helvetica,sans-Serif" font-size="10.00">MultimeterServicePrivate</text>
<text text-anchor="middle" x="221.5" y="-60.5" font-family="Helvetica,sans-Serif" font-size="10.00">::parseReading</text>
</a>
</g>
</g>
<!-- Node1&#45;&gt;Node3 -->
<g id="edge2_Node000001_Node000003" class="edge">
<title>Node1&#45;&gt;Node3</title>
<g id="a_edge2_Node000001_Node000003"><a xlink:title=" ">
<path fill="none" stroke="#63b8ff" d="M113.14,-68.5C122.75,-68.5 132.89,-68.5 142.95,-68.5"/>
<polygon fill="#63b8ff" stroke="#63b8ff" points="150.99,-68.5 142.99,-72.1 146.99,-68.5 142.99,-68.5 142.99,-68.5 142.99,-68.5 146.99,-68.5 142.99,-64.9 150.99,-68.5 150.99,-68.5"/>
</a>
</g>
</g>
<!-- Node16 -->
<g id="Node000016" class="node">
<title>Node16</title>
<g id="a_Node000016"><a target="_parent" xlink:href="https://doc.qt.io/qt-5/qlowenergycharacteristic.html#value" xlink:title=" ">
<polygon fill="white" stroke="#666666" points="294,-35.5 149,-35.5 149,-5.5 294,-5.5 294,-35.5"/>
<text text-anchor="start" x="157" y="-23.5" font-family="Helvetica,sans-Serif" font-size="10.00">QLowEnergyCharacteristic</text>
<text text-anchor="middle" x="221.5" y="-12.5" font-family="Helvetica,sans-Serif" font-size="10.00">::value</text>
</a>
</g>
</g>
<!-- Node1&#45;&gt;Node16 -->
<g id="edge18_Node000001_Node000016" class="edge">
<title>Node1&#45;&gt;Node16</title>
<g id="a_edge18_Node000001_Node000016"><a xlink:title=" ">
<path fill="none" stroke="#63b8ff" d="M108.63,-53.44C125.47,-48.49 144.33,-42.93 161.69,-37.82"/>
<polygon fill="#63b8ff" stroke="#63b8ff" points="169.55,-35.5 162.9,-41.22 165.72,-36.63 161.88,-37.76 161.88,-37.76 161.88,-37.76 165.72,-36.63 160.86,-34.31 169.55,-35.5 169.55,-35.5"/>
</a>
</g>
</g>
<!-- Node4 -->
<g id="Node000004" class="node">
<title>Node4</title>
<g id="a_Node000004"><a target="_parent" xlink:href="https://doc.qt.io/qt-5/qbytearray.html#at" xlink:title=" ">
<polygon fill="white" stroke="#666666" points="450,-143 362,-143 362,-124 450,-124 450,-143"/>
<text text-anchor="middle" x="406" y="-131" font-family="Helvetica,sans-Serif" font-size="10.00">QByteArray::at</text>
</a>
</g>
</g>
<!-- Node3&#45;&gt;Node4 -->
<g id="edge3_Node000003_Node000004" class="edge">
<title>Node3&#45;&gt;Node4</title>
<g id="a_edge3_Node000003_Node000004"><a xlink:title=" ">
<path fill="none" stroke="#63b8ff" d="M272.3,-83.6C279.68,-86.3 287.12,-89.29 294,-92.5 311,-100.42 312.72,-107.23 330,-114.5 337.6,-117.7 345.87,-120.45 354.04,-122.8"/>
<polygon fill="#63b8ff" stroke="#63b8ff" points="361.83,-124.92 353.17,-126.29 357.97,-123.87 354.11,-122.82 354.11,-122.82 354.11,-122.82 357.97,-123.87 355.06,-119.34 361.83,-124.92 361.83,-124.92"/>
</a>
</g>
</g>
<!-- Node5 -->
<g id="Node000005" class="node">
<title>Node5</title>
<g id="a_Node000005"><a xlink:href="classAbstractPokitServicePrivate.html#af8b480a950244540bfff7fc4b476a0ef" target="_top" xlink:title="Returns false if data is smaller than minSize, otherwise returns failOnMax if data is bigger than max...">
<polygon fill="white" stroke="#666666" points="482,-105.5 330,-105.5 330,-75.5 482,-75.5 482,-105.5"/>
<text text-anchor="start" x="338" y="-93.5" font-family="Helvetica,sans-Serif" font-size="10.00">AbstractPokitServicePrivate</text>
<text text-anchor="middle" x="406" y="-82.5" font-family="Helvetica,sans-Serif" font-size="10.00">::checkSize</text>
</a>
</g>
</g>
<!-- Node3&#45;&gt;Node5 -->
<g id="edge4_Node000003_Node000005" class="edge">
<title>Node3&#45;&gt;Node5</title>
<g id="a_edge4_Node000003_Node000005"><a xlink:title=" ">
<path fill="none" stroke="#63b8ff" d="M292.02,-76.88C301.79,-78.06 311.92,-79.28 321.92,-80.48"/>
<polygon fill="#63b8ff" stroke="#63b8ff" points="329.9,-81.45 321.53,-84.06 325.93,-80.97 321.96,-80.49 321.96,-80.49 321.96,-80.49 325.93,-80.97 322.39,-76.92 329.9,-81.45 329.9,-81.45"/>
</a>
</g>
</g>
<!-- Node7 -->
<g id="Node000007" class="node">
<title>Node7</title>
<g id="a_Node000007"><a target="_parent" xlink:href="https://doc.qt.io/qt-5/qbytearray.html#mid" xlink:title=" ">
<polygon fill="white" stroke="#666666" points="642.5,-41 545.5,-41 545.5,-22 642.5,-22 642.5,-41"/>
<text text-anchor="middle" x="594" y="-29" font-family="Helvetica,sans-Serif" font-size="10.00">QByteArray::mid</text>
</a>
</g>
</g>
<!-- Node3&#45;&gt;Node7 -->
<g id="edge17_Node000003_Node000007" class="edge">
<title>Node3&#45;&gt;Node7</title>
<g id="a_edge17_Node000003_Node000007"><a xlink:title=" ">
<path fill="none" stroke="#63b8ff" d="M292.19,-61.54C363.15,-54.45 471.78,-43.61 537.24,-37.07"/>
<polygon fill="#63b8ff" stroke="#63b8ff" points="545.4,-36.25 537.79,-40.63 541.42,-36.65 537.44,-37.05 537.44,-37.05 537.44,-37.05 541.42,-36.65 537.08,-33.47 545.4,-36.25 545.4,-36.25"/>
</a>
</g>
</g>
<!-- Node15 -->
<g id="Node000015" class="node">
<title>Node15</title>
<g id="a_Node000015"><a target="_parent" xlink:href="https://doc.qt.io/qt-5/qbytearray.html#constData" xlink:title=" ">
<polygon fill="white" stroke="#666666" points="470,-19 342,-19 342,0 470,0 470,-19"/>
<text text-anchor="middle" x="406" y="-7" font-family="Helvetica,sans-Serif" font-size="10.00">QByteArray::constData</text>
</a>
</g>
</g>
<!-- Node3&#45;&gt;Node15 -->
<g id="edge16_Node000003_Node000015" class="edge">
<title>Node3&#45;&gt;Node15</title>
<g id="a_edge16_Node000003_Node000015"><a xlink:title=" ">
<path fill="none" stroke="#63b8ff" d="M268.52,-53.46C287.54,-47.26 309.83,-40.01 330,-33.5 342.17,-29.57 355.45,-25.31 367.42,-21.49"/>
<polygon fill="#63b8ff" stroke="#63b8ff" points="375.06,-19.04 368.54,-24.91 371.25,-20.26 367.44,-21.48 367.44,-21.48 367.44,-21.48 371.25,-20.26 366.35,-18.05 375.06,-19.04 375.06,-19.04"/>
</a>
</g>
</g>
<!-- Node6 -->
<g id="Node000006" class="node">
<title>Node6</title>
<g id="a_Node000006"><a target="_parent" xlink:href="https://doc.qt.io/qt-5/qstring.html#arg-1" xlink:title=" ">
<polygon fill="white" stroke="#666666" points="799,-64 725,-64 725,-45 799,-45 799,-64"/>
<text text-anchor="middle" x="762" y="-52" font-family="Helvetica,sans-Serif" font-size="10.00">QString::arg</text>
</a>
</g>
</g>
<!-- Node5&#45;&gt;Node6 -->
<g id="edge5_Node000005_Node000006" class="edge">
<title>Node5&#45;&gt;Node6</title>
<g id="a_edge5_Node000005_Node000006"><a xlink:title=" ">
<path fill="none" stroke="#63b8ff" d="M482.07,-82.87C553.41,-75.61 658.24,-64.95 716.97,-58.98"/>
<polygon fill="#63b8ff" stroke="#63b8ff" points="724.94,-58.17 717.35,-62.56 720.96,-58.57 716.99,-58.98 716.99,-58.98 716.99,-58.98 720.96,-58.57 716.62,-55.39 724.94,-58.17 724.94,-58.17"/>
</a>
</g>
</g>
<!-- Node5&#45;&gt;Node7 -->
<g id="edge6_Node000005_Node000007" class="edge">
<title>Node5&#45;&gt;Node7</title>
<g id="a_edge6_Node000005_Node000007"><a xlink:title=" ">
<path fill="none" stroke="#63b8ff" d="M454.42,-75.46C485.6,-65.57 525.88,-52.79 554.96,-43.57"/>
<polygon fill="#63b8ff" stroke="#63b8ff" points="562.85,-41.06 556.32,-46.91 559.04,-42.27 555.23,-43.48 555.23,-43.48 555.23,-43.48 559.04,-42.27 554.14,-40.05 562.85,-41.06 562.85,-41.06"/>
</a>
</g>
</g>
<!-- Node8 -->
<g id="Node000008" class="node">
<title>Node8</title>
<g id="a_Node000008"><a target="_parent" xlink:href="https://doc.qt.io/qt-5/qbytearray.html#size" xlink:title=" ">
<polygon fill="white" stroke="#666666" points="811,-249 713,-249 713,-230 811,-230 811,-249"/>
<text text-anchor="middle" x="762" y="-237" font-family="Helvetica,sans-Serif" font-size="10.00">QByteArray::size</text>
</a>
</g>
</g>
<!-- Node5&#45;&gt;Node8 -->
<g id="edge7_Node000005_Node000008" class="edge">
<title>Node5&#45;&gt;Node8</title>
<g id="a_edge7_Node000005_Node000008"><a xlink:title=" ">
<path fill="none" stroke="#63b8ff" d="M467.92,-105.67C472.94,-108.18 477.71,-111.1 482,-114.5 506.37,-133.81 493.17,-155.78 518,-174.5 572.62,-215.67 651.36,-230.79 704.27,-236.33"/>
<polygon fill="#63b8ff" stroke="#63b8ff" points="712.53,-237.14 704.21,-239.94 708.55,-236.75 704.57,-236.36 704.57,-236.36 704.57,-236.36 708.55,-236.75 704.92,-232.78 712.53,-237.14 712.53,-237.14"/>
</a>
</g>
</g>
<!-- Node9 -->
<g id="Node000009" class="node">
<title>Node9</title>
<g id="a_Node000009"><a xlink:href="classAbstractPokitServicePrivate.html#af748600fc201fe47f29b58e8e93179d8" target="_top" xlink:title="Returns up to maxSize bytes of data as a human readable hexadecimal string.">
<polygon fill="white" stroke="#666666" points="670,-165.5 518,-165.5 518,-135.5 670,-135.5 670,-165.5"/>
<text text-anchor="start" x="526" y="-153.5" font-family="Helvetica,sans-Serif" font-size="10.00">AbstractPokitServicePrivate</text>
<text text-anchor="middle" x="594" y="-142.5" font-family="Helvetica,sans-Serif" font-size="10.00">::toHexString</text>
</a>
</g>
</g>
<!-- Node5&#45;&gt;Node9 -->
<g id="edge8_Node000005_Node000009" class="edge">
<title>Node5&#45;&gt;Node9</title>
<g id="a_edge8_Node000005_Node000009"><a xlink:title=" ">
<path fill="none" stroke="#63b8ff" d="M454.22,-105.58C463.43,-108.53 473.02,-111.61 482,-114.5 500.64,-120.51 521.04,-127.11 539.2,-133.01"/>
<polygon fill="#63b8ff" stroke="#63b8ff" points="546.84,-135.48 538.12,-136.44 543.03,-134.25 539.23,-133.01 539.23,-133.01 539.23,-133.01 543.03,-134.25 540.34,-129.59 546.84,-135.48 546.84,-135.48"/>
</a>
</g>
</g>
<!-- Node14 -->
<g id="Node000014" class="node">
<title>Node14</title>
<g id="a_Node000014"><a target="_parent" xlink:href="https://doc.qt.io/qt-5/qobject.html#tr" xlink:title=" ">
<polygon fill="white" stroke="#666666" points="628.5,-117 559.5,-117 559.5,-98 628.5,-98 628.5,-117"/>
<text text-anchor="middle" x="594" y="-105" font-family="Helvetica,sans-Serif" font-size="10.00">QObject::tr</text>
</a>
</g>
</g>
<!-- Node5&#45;&gt;Node14 -->
<g id="edge15_Node000005_Node000014" class="edge">
<title>Node5&#45;&gt;Node14</title>
<g id="a_edge15_Node000005_Node000014"><a xlink:title=" ">
<path fill="none" stroke="#63b8ff" d="M482.12,-97.37C505.69,-99.52 530.85,-101.82 551.24,-103.68"/>
<polygon fill="#63b8ff" stroke="#63b8ff" points="559.38,-104.43 551.08,-107.28 555.4,-104.06 551.41,-103.7 551.41,-103.7 551.41,-103.7 555.4,-104.06 551.74,-100.11 559.38,-104.43 559.38,-104.43"/>
</a>
</g>
</g>
<!-- Node9&#45;&gt;Node6 -->
<g id="edge9_Node000009_Node000006" class="edge">
<title>Node9&#45;&gt;Node6</title>
<g id="a_edge9_Node000009_Node000006"><a xlink:title=" ">
<path fill="none" stroke="#63b8ff" d="M653.44,-135.32C659.32,-132.56 664.97,-129.31 670,-125.5 692.7,-108.31 683.25,-89.62 706,-72.5 709.51,-69.86 713.43,-67.59 717.51,-65.65"/>
<polygon fill="#63b8ff" stroke="#63b8ff" points="724.99,-62.5 719.01,-68.93 721.3,-64.05 717.61,-65.61 717.61,-65.61 717.61,-65.61 721.3,-64.05 716.22,-62.29 724.99,-62.5 724.99,-62.5"/>
</a>
</g>
</g>
<!-- Node9&#45;&gt;Node8 -->
<g id="edge13_Node000009_Node000008" class="edge">
<title>Node9&#45;&gt;Node8</title>
<g id="a_edge13_Node000009_Node000008"><a xlink:title=" ">
<path fill="none" stroke="#63b8ff" d="M615.36,-165.77C636.96,-181.41 672.51,-205.63 706,-221.5 710.3,-223.54 714.9,-225.44 719.53,-227.19"/>
<polygon fill="#63b8ff" stroke="#63b8ff" points="727.32,-229.97 718.57,-230.67 723.55,-228.62 719.78,-227.28 719.78,-227.28 719.78,-227.28 723.55,-228.62 721,-223.89 727.32,-229.97 727.32,-229.97"/>
</a>
</g>
</g>
<!-- Node10 -->
<g id="Node000010" class="node">
<title>Node10</title>
<g id="a_Node000010"><a target="_parent" xlink:href="https://doc.qt.io/qt-5/qstring.html#fromLatin1" xlink:title=" ">
<polygon fill="white" stroke="#666666" points="818,-175 706,-175 706,-156 818,-156 818,-175"/>
<text text-anchor="middle" x="762" y="-163" font-family="Helvetica,sans-Serif" font-size="10.00">QString::fromLatin1</text>
</a>
</g>
</g>
<!-- Node9&#45;&gt;Node10 -->
<g id="edge10_Node000009_Node000010" class="edge">
<title>Node9&#45;&gt;Node10</title>
<g id="a_edge10_Node000009_Node000010"><a xlink:title=" ">
<path fill="none" stroke="#63b8ff" d="M670.23,-157.3C679.42,-158.13 688.75,-158.97 697.74,-159.78"/>
<polygon fill="#63b8ff" stroke="#63b8ff" points="705.9,-160.52 697.61,-163.39 701.91,-160.16 697.93,-159.8 697.93,-159.8 697.93,-159.8 701.91,-160.16 698.25,-156.22 705.9,-160.52 705.9,-160.52"/>
</a>
</g>
</g>
<!-- Node11 -->
<g id="Node000011" class="node">
<title>Node11</title>
<g id="a_Node000011"><a target="_parent" xlink:href="https://doc.qt.io/qt-5/qbytearray.html#left" xlink:title=" ">
<polygon fill="white" stroke="#666666" points="809,-138 715,-138 715,-119 809,-119 809,-138"/>
<text text-anchor="middle" x="762" y="-126" font-family="Helvetica,sans-Serif" font-size="10.00">QByteArray::left</text>
</a>
</g>
</g>
<!-- Node9&#45;&gt;Node11 -->
<g id="edge11_Node000009_Node000011" class="edge">
<title>Node9&#45;&gt;Node11</title>
<g id="a_edge11_Node000009_Node000011"><a xlink:title=" ">
<path fill="none" stroke="#63b8ff" d="M670.23,-140.53C682.38,-138.92 694.75,-137.28 706.3,-135.75"/>
<polygon fill="#63b8ff" stroke="#63b8ff" points="714.54,-134.66 707.08,-139.28 710.57,-135.18 706.61,-135.71 706.61,-135.71 706.61,-135.71 710.57,-135.18 706.14,-132.14 714.54,-134.66 714.54,-134.66"/>
</a>
</g>
</g>
<!-- Node12 -->
<g id="Node000012" class="node">
<title>Node12</title>
<g id="a_Node000012"><a target="_parent" xlink:href="https://doc.qt.io/qt-5/qbytearray.html#right" xlink:title=" ">
<polygon fill="white" stroke="#666666" points="812.5,-101 711.5,-101 711.5,-82 812.5,-82 812.5,-101"/>
<text text-anchor="middle" x="762" y="-89" font-family="Helvetica,sans-Serif" font-size="10.00">QByteArray::right</text>
</a>
</g>
</g>
<!-- Node9&#45;&gt;Node12 -->
<g id="edge12_Node000009_Node000012" class="edge">
<title>Node9&#45;&gt;Node12</title>
<g id="a_edge12_Node000009_Node000012"><a xlink:title=" ">
<path fill="none" stroke="#63b8ff" d="M642.46,-135.45C651.65,-132.32 661.17,-128.92 670,-125.5 686.32,-119.17 689.66,-115.79 706,-109.5 711.17,-107.51 716.66,-105.55 722.09,-103.69"/>
<polygon fill="#63b8ff" stroke="#63b8ff" points="729.97,-101.04 723.53,-107 726.18,-102.31 722.39,-103.59 722.39,-103.59 722.39,-103.59 726.18,-102.31 721.24,-100.17 729.97,-101.04 729.97,-101.04"/>
</a>
</g>
</g>
<!-- Node13 -->
<g id="Node000013" class="node">
<title>Node13</title>
<g id="a_Node000013"><a target="_parent" xlink:href="https://doc.qt.io/qt-5/qbytearray.html#toHex" xlink:title=" ">
<polygon fill="white" stroke="#666666" points="815.5,-212 708.5,-212 708.5,-193 815.5,-193 815.5,-212"/>
<text text-anchor="middle" x="762" y="-200" font-family="Helvetica,sans-Serif" font-size="10.00">QByteArray::toHex</text>
</a>
</g>
</g>
<!-- Node9&#45;&gt;Node13 -->
<g id="edge14_Node000009_Node000013" class="edge">
<title>Node9&#45;&gt;Node13</title>
<g id="a_edge14_Node000009_Node000013"><a xlink:title=" ">
<path fill="none" stroke="#63b8ff" d="M643.01,-165.54C668.39,-173.49 699.11,-183.11 722.84,-190.55"/>
<polygon fill="#63b8ff" stroke="#63b8ff" points="730.61,-192.98 721.9,-194.02 726.79,-191.78 722.97,-190.59 722.97,-190.59 722.97,-190.59 726.79,-191.78 724.05,-187.15 730.61,-192.98 730.61,-192.98"/>
</a>
</g>
</g>
</g>
</svg>
