<?xml version="1.0" encoding="UTF-8" standalone="no"?>
<!DOCTYPE svg PUBLIC "-//W3C//DTD SVG 1.1//EN"
 "http://www.w3.org/Graphics/SVG/1.1/DTD/svg11.dtd">
<!-- Generated by graphviz version 2.43.0 (0)
 -->
<!-- Title: Graphical Class Hierarchy Pages: 1 -->
<svg width="610pt" height="804pt"
 viewBox="0.00 0.00 610.00 804.00" xmlns="http://www.w3.org/2000/svg" xmlns:xlink="http://www.w3.org/1999/xlink">
<g id="graph0" class="graph" transform="scale(1 1) rotate(0) translate(4 800)">
<title>Graphical Class Hierarchy</title>
<!-- Node0 -->
<g id="Node000000" class="node">
<title>Node0</title>
<g id="a_Node000000"><a target="_parent" xlink:href="https://doc.qt.io/qt-5/qobject.html" xlink:title=" ">
<polygon fill="white" stroke="#666666" points="56,-152 0,-152 0,-133 56,-133 56,-152"/>
<text text-anchor="middle" x="28" y="-140" font-family="Helvetica,sans-Serif" font-size="10.00">QObject</text>
</a>
</g>
</g>
<!-- Node1 -->
<g id="Node000001" class="node">
<title>Node1</title>
<g id="a_Node000001"><a xlink:href="classAbstractCommand.html" target="_top" xlink:title="The AbstractCommand class provides a consistent base for the classes that implement CLI commands.">
<polygon fill="white" stroke="#666666" points="222.5,-574 115.5,-574 115.5,-555 222.5,-555 222.5,-574"/>
<text text-anchor="middle" x="169" y="-562" font-family="Helvetica,sans-Serif" font-size="10.00">AbstractCommand</text>
</a>
</g>
</g>
<!-- Node0&#45;&gt;Node1 -->
<g id="edge1_Node000000_Node000001" class="edge">
<title>Node0&#45;&gt;Node1</title>
<g id="a_edge1_Node000000_Node000001"><a xlink:title=" ">
<path fill="none" stroke="#63b8ff" d="M31.52,-160.28C38.13,-204.57 57.85,-322.99 92,-416.5 112.02,-471.3 147.76,-531.77 161.95,-554.84"/>
<polygon fill="#63b8ff" stroke="#63b8ff" points="30.34,-152.21 35.06,-159.61 30.92,-156.17 31.5,-160.13 31.5,-160.13 31.5,-160.13 30.92,-156.17 27.93,-160.65 30.34,-152.21 30.34,-152.21"/>
</a>
</g>
</g>
<!-- Node15 -->
<g id="Node000015" class="node">
<title>Node15</title>
<g id="a_Node000015"><a xlink:href="classAbstractPokitService.html" target="_top" xlink:title="The AbstractPokitService class provides a common base for Pokit services classes.">
<polygon fill="white" stroke="#666666" points="228,-407 110,-407 110,-388 228,-388 228,-407"/>
<text text-anchor="middle" x="169" y="-395" font-family="Helvetica,sans-Serif" font-size="10.00">AbstractPokitService</text>
</a>
</g>
</g>
<!-- Node0&#45;&gt;Node15 -->
<g id="edge15_Node000000_Node000015" class="edge">
<title>Node0&#45;&gt;Node15</title>
<g id="a_edge15_Node000000_Node000015"><a xlink:title=" ">
<path fill="none" stroke="#63b8ff" d="M38.26,-159.5C65.02,-208.59 141.85,-349.53 162.72,-387.81"/>
<polygon fill="#63b8ff" stroke="#63b8ff" points="34.28,-152.18 41.27,-157.49 36.19,-155.7 38.11,-159.21 38.11,-159.21 38.11,-159.21 36.19,-155.7 34.95,-160.93 34.28,-152.18 34.28,-152.18"/>
</a>
</g>
</g>
<!-- Node23 -->
<g id="Node000023" class="node">
<title>Node23</title>
<g id="a_Node000023"><a xlink:href="classAbstractPokitServicePrivate.html" target="_top" xlink:title="The AbstractPokitServicePrivate class provides private implementation for AbstractPokitService.">
<polygon fill="white" stroke="#666666" points="245,-189 93,-189 93,-170 245,-170 245,-189"/>
<text text-anchor="middle" x="169" y="-177" font-family="Helvetica,sans-Serif" font-size="10.00">AbstractPokitServicePrivate</text>
</a>
</g>
</g>
<!-- Node0&#45;&gt;Node23 -->
<g id="edge23_Node000000_Node000023" class="edge">
<title>Node0&#45;&gt;Node23</title>
<g id="a_edge23_Node000000_Node000023"><a xlink:title=" ">
<path fill="none" stroke="#63b8ff" d="M63.96,-153.45C73.06,-156.19 82.87,-159.04 92,-161.5 102.87,-164.42 114.68,-167.34 125.68,-169.95"/>
<polygon fill="#63b8ff" stroke="#63b8ff" points="56.19,-151.09 64.89,-149.97 60.01,-152.25 63.84,-153.42 63.84,-153.42 63.84,-153.42 60.01,-152.25 62.79,-156.86 56.19,-151.09 56.19,-151.09"/>
</a>
</g>
</g>
<!-- Node31 -->
<g id="Node000031" class="node">
<title>Node31</title>
<g id="a_Node000031"><a xlink:href="classPokitDevice.html" target="_top" xlink:title="The PokitDevice class simplifies Pokit device access.">
<polygon fill="white" stroke="#666666" points="206.5,-152 131.5,-152 131.5,-133 206.5,-133 206.5,-152"/>
<text text-anchor="middle" x="169" y="-140" font-family="Helvetica,sans-Serif" font-size="10.00">PokitDevice</text>
</a>
</g>
</g>
<!-- Node0&#45;&gt;Node31 -->
<g id="edge31_Node000000_Node000031" class="edge">
<title>Node0&#45;&gt;Node31</title>
<g id="a_edge31_Node000000_Node000031"><a xlink:title=" ">
<path fill="none" stroke="#63b8ff" d="M64.29,-142.5C84.84,-142.5 110.71,-142.5 131.47,-142.5"/>
<polygon fill="#63b8ff" stroke="#63b8ff" points="56.13,-142.5 64.13,-138.9 60.13,-142.5 64.13,-142.5 64.13,-142.5 64.13,-142.5 60.13,-142.5 64.13,-146.1 56.13,-142.5 56.13,-142.5"/>
</a>
</g>
</g>
<!-- Node32 -->
<g id="Node000032" class="node">
<title>Node32</title>
<g id="a_Node000032"><a xlink:href="classPokitDevicePrivate.html" target="_top" xlink:title="The PokitDevicePrivate class provides private implementation for PokitDevice.">
<polygon fill="white" stroke="#666666" points="224,-115 114,-115 114,-96 224,-96 224,-115"/>
<text text-anchor="middle" x="169" y="-103" font-family="Helvetica,sans-Serif" font-size="10.00">PokitDevicePrivate</text>
</a>
</g>
</g>
<!-- Node0&#45;&gt;Node32 -->
<g id="edge32_Node000000_Node000032" class="edge">
<title>Node0&#45;&gt;Node32</title>
<g id="a_edge32_Node000000_Node000032"><a xlink:title=" ">
<path fill="none" stroke="#63b8ff" d="M64.01,-132.27C73.11,-129.68 82.91,-126.94 92,-124.5 103.96,-121.3 117.01,-117.97 128.88,-115.01"/>
<polygon fill="#63b8ff" stroke="#63b8ff" points="56.23,-134.5 62.93,-128.84 60.08,-133.4 63.92,-132.3 63.92,-132.3 63.92,-132.3 60.08,-133.4 64.92,-135.76 56.23,-134.5 56.23,-134.5"/>
</a>
</g>
</g>
<!-- Node33 -->
<g id="Node000033" class="node">
<title>Node33</title>
<g id="a_Node000033"><a xlink:href="classPokitDiscoveryAgentPrivate.html" target="_top" xlink:title="The PokitDiscoveryAgentPrivate class provides private implementation for PokitDiscoveryAgent.">
<polygon fill="white" stroke="#666666" points="245.5,-78 92.5,-78 92.5,-59 245.5,-59 245.5,-78"/>
<text text-anchor="middle" x="169" y="-66" font-family="Helvetica,sans-Serif" font-size="10.00">PokitDiscoveryAgentPrivate</text>
</a>
</g>
</g>
<!-- Node0&#45;&gt;Node33 -->
<g id="edge33_Node000000_Node000033" class="edge">
<title>Node0&#45;&gt;Node33</title>
<g id="a_edge33_Node000000_Node000033"><a xlink:title=" ">
<path fill="none" stroke="#63b8ff" d="M42.97,-126.75C54.83,-114.32 72.93,-97.46 92,-87.5 99.35,-83.66 107.52,-80.57 115.69,-78.09"/>
<polygon fill="#63b8ff" stroke="#63b8ff" points="37.36,-132.79 40.16,-124.47 40.08,-129.86 42.8,-126.92 42.8,-126.92 42.8,-126.92 40.08,-129.86 45.44,-129.37 37.36,-132.79 37.36,-132.79"/>
</a>
</g>
</g>
<!-- Node34 -->
<g id="Node000034" class="node">
<title>Node34</title>
<g id="a_Node000034"><a target="_parent" xlink:href="https://doc.qt.io/qt-5/qbluetoothdevicediscoveryagent.html" xlink:title=" ">
<polygon fill="white" stroke="#666666" points="246,-32.5 92,-32.5 92,-2.5 246,-2.5 246,-32.5"/>
<text text-anchor="start" x="100" y="-20.5" font-family="Helvetica,sans-Serif" font-size="10.00">QBluetoothDeviceDiscovery</text>
<text text-anchor="middle" x="169" y="-9.5" font-family="Helvetica,sans-Serif" font-size="10.00">Agent</text>
</a>
</g>
</g>
<!-- Node0&#45;&gt;Node34 -->
<g id="edge34_Node000000_Node000034" class="edge">
<title>Node0&#45;&gt;Node34</title>
<g id="a_edge34_Node000000_Node000034"><a xlink:title=" ">
<path fill="none" stroke="#63b8ff" d="M36.89,-125.56C47.08,-105.3 66.56,-71.49 92,-50.5 100.76,-43.27 111.36,-37.35 121.81,-32.64"/>
<polygon fill="#63b8ff" stroke="#63b8ff" points="33.33,-132.85 33.61,-124.08 35.09,-129.25 36.84,-125.66 36.84,-125.66 36.84,-125.66 35.09,-129.25 40.08,-127.24 33.33,-132.85 33.33,-132.85"/>
</a>
</g>
</g>
<!-- Node2 -->
<g id="Node000002" class="node">
<title>Node2</title>
<g id="a_Node000002"><a xlink:href="classDeviceCommand.html" target="_top" xlink:title="The AbstractCommand class extends AbstractCommand to add a PokitDevice instance.">
<polygon fill="white" stroke="#666666" points="411.5,-611 310.5,-611 310.5,-592 411.5,-592 411.5,-611"/>
<text text-anchor="middle" x="361" y="-599" font-family="Helvetica,sans-Serif" font-size="10.00">DeviceCommand</text>
</a>
</g>
</g>
<!-- Node1&#45;&gt;Node2 -->
<g id="edge2_Node000001_Node000002" class="edge">
<title>Node1&#45;&gt;Node2</title>
<g id="a_edge2_Node000001_Node000002"><a xlink:title=" ">
<path fill="none" stroke="#63b8ff" d="M227.05,-575.61C253.77,-580.81 285.27,-586.95 310.91,-591.94"/>
<polygon fill="#63b8ff" stroke="#63b8ff" points="218.93,-574.03 227.47,-572.02 222.86,-574.79 226.78,-575.56 226.78,-575.56 226.78,-575.56 222.86,-574.79 226.09,-579.09 218.93,-574.03 218.93,-574.03"/>
</a>
</g>
</g>
<!-- Node14 -->
<g id="Node000014" class="node">
<title>Node14</title>
<g id="a_Node000014"><a xlink:href="classScanCommand.html" target="_top" xlink:title="The ScanCommand class implements the scan CLI command, by scanning for nearby Pokit Bluetooth devices...">
<polygon fill="white" stroke="#666666" points="406,-574 316,-574 316,-555 406,-555 406,-574"/>
<text text-anchor="middle" x="361" y="-562" font-family="Helvetica,sans-Serif" font-size="10.00">ScanCommand</text>
</a>
</g>
</g>
<!-- Node1&#45;&gt;Node14 -->
<g id="edge14_Node000001_Node000014" class="edge">
<title>Node1&#45;&gt;Node14</title>
<g id="a_edge14_Node000001_Node000014"><a xlink:title=" ">
<path fill="none" stroke="#63b8ff" d="M230.73,-564.5C258.41,-564.5 290.58,-564.5 315.9,-564.5"/>
<polygon fill="#63b8ff" stroke="#63b8ff" points="222.67,-564.5 230.67,-560.9 226.67,-564.5 230.67,-564.5 230.67,-564.5 230.67,-564.5 226.67,-564.5 230.67,-568.1 222.67,-564.5 222.67,-564.5"/>
</a>
</g>
</g>
<!-- Node3 -->
<g id="Node000003" class="node">
<title>Node3</title>
<g id="a_Node000003"><a xlink:href="classCalibrateCommand.html" target="_top" xlink:title="The CalibrateCommand class implements the calibrate CLI command.">
<polygon fill="white" stroke="#666666" points="594.5,-796 483.5,-796 483.5,-777 594.5,-777 594.5,-796"/>
<text text-anchor="middle" x="539" y="-784" font-family="Helvetica,sans-Serif" font-size="10.00">CalibrateCommand</text>
</a>
</g>
</g>
<!-- Node2&#45;&gt;Node3 -->
<g id="edge3_Node000002_Node000003" class="edge">
<title>Node2&#45;&gt;Node3</title>
<g id="a_edge3_Node000002_Node000003"><a xlink:title=" ">
<path fill="none" stroke="#63b8ff" d="M369,-618.84C383.63,-652.84 420.71,-728.43 476,-768.5 480.72,-771.92 486.08,-774.69 491.63,-776.94"/>
<polygon fill="#63b8ff" stroke="#63b8ff" points="365.77,-611.14 372.19,-617.12 367.32,-614.83 368.87,-618.51 368.87,-618.51 368.87,-618.51 367.32,-614.83 365.55,-619.91 365.77,-611.14 365.77,-611.14"/>
</a>
</g>
</g>
<!-- Node4 -->
<g id="Node000004" class="node">
<title>Node4</title>
<g id="a_Node000004"><a xlink:href="classDsoCommand.html" target="_top" xlink:title="The DsoCommand class implements the dso CLI command.">
<polygon fill="white" stroke="#666666" points="582,-759 496,-759 496,-740 582,-740 582,-759"/>
<text text-anchor="middle" x="539" y="-747" font-family="Helvetica,sans-Serif" font-size="10.00">DsoCommand</text>
</a>
</g>
</g>
<!-- Node2&#45;&gt;Node4 -->
<g id="edge4_Node000002_Node000004" class="edge">
<title>Node2&#45;&gt;Node4</title>
<g id="a_edge4_Node000002_Node000004"><a xlink:title=" ">
<path fill="none" stroke="#63b8ff" d="M372.21,-618.41C389.86,-646.2 428.78,-701.45 476,-731.5 482.05,-735.35 488.95,-738.4 495.9,-740.81"/>
<polygon fill="#63b8ff" stroke="#63b8ff" points="367.81,-611.34 375.09,-616.23 369.92,-614.74 372.04,-618.13 372.04,-618.13 372.04,-618.13 369.92,-614.74 368.98,-620.04 367.81,-611.34 367.81,-611.34"/>
</a>
</g>
</g>
<!-- Node5 -->
<g id="Node000005" class="node">
<title>Node5</title>
<g id="a_Node000005"><a xlink:href="classFlashLedCommand.html" target="_top" xlink:title="The FlashLedCommand class implements the flash&#45;led CLI command.">
<polygon fill="white" stroke="#666666" points="594,-722 484,-722 484,-703 594,-703 594,-722"/>
<text text-anchor="middle" x="539" y="-710" font-family="Helvetica,sans-Serif" font-size="10.00">FlashLedCommand</text>
</a>
</g>
</g>
<!-- Node2&#45;&gt;Node5 -->
<g id="edge5_Node000002_Node000005" class="edge">
<title>Node2&#45;&gt;Node5</title>
<g id="a_edge5_Node000002_Node000005"><a xlink:title=" ">
<path fill="none" stroke="#63b8ff" d="M376.84,-617.01C397.32,-637.56 436.24,-673.63 476,-694.5 482.35,-697.83 489.4,-700.63 496.41,-702.94"/>
<polygon fill="#63b8ff" stroke="#63b8ff" points="371.1,-611.17 379.28,-614.35 373.9,-614.02 376.71,-616.88 376.71,-616.88 376.71,-616.88 373.9,-614.02 374.14,-619.4 371.1,-611.17 371.1,-611.17"/>
</a>
</g>
</g>
<!-- Node6 -->
<g id="Node000006" class="node">
<title>Node6</title>
<g id="a_Node000006"><a xlink:href="classInfoCommand.html" target="_top" xlink:title="The InfoCommand class implements the info CLI command.">
<polygon fill="white" stroke="#666666" points="582,-685 496,-685 496,-666 582,-666 582,-685"/>
<text text-anchor="middle" x="539" y="-673" font-family="Helvetica,sans-Serif" font-size="10.00">InfoCommand</text>
</a>
</g>
</g>
<!-- Node2&#45;&gt;Node6 -->
<g id="edge6_Node000002_Node000006" class="edge">
<title>Node2&#45;&gt;Node6</title>
<g id="a_edge6_Node000002_Node000006"><a xlink:title=" ">
<path fill="none" stroke="#63b8ff" d="M386.56,-615.12C409.27,-627.34 444.23,-645.19 476,-657.5 484.05,-660.62 492.86,-663.49 501.26,-665.98"/>
<polygon fill="#63b8ff" stroke="#63b8ff" points="379.34,-611.21 388.09,-611.86 382.86,-613.11 386.38,-615.02 386.38,-615.02 386.38,-615.02 382.86,-613.11 384.66,-618.18 379.34,-611.21 379.34,-611.21"/>
</a>
</g>
</g>
<!-- Node7 -->
<g id="Node000007" class="node">
<title>Node7</title>
<g id="a_Node000007"><a xlink:href="classLoggerFetchCommand.html" target="_top" xlink:title="The LoggerFetchCommand class implements the logger CLI command.">
<polygon fill="white" stroke="#666666" points="602,-648 476,-648 476,-629 602,-629 602,-648"/>
<text text-anchor="middle" x="539" y="-636" font-family="Helvetica,sans-Serif" font-size="10.00">LoggerFetchCommand</text>
</a>
</g>
</g>
<!-- Node2&#45;&gt;Node7 -->
<g id="edge7_Node000002_Node000007" class="edge">
<title>Node2&#45;&gt;Node7</title>
<g id="a_edge7_Node000002_Node000007"><a xlink:title=" ">
<path fill="none" stroke="#63b8ff" d="M415.17,-612.68C439.85,-617.87 468.88,-623.97 492.52,-628.94"/>
<polygon fill="#63b8ff" stroke="#63b8ff" points="407.32,-611.03 415.89,-609.15 411.24,-611.85 415.15,-612.67 415.15,-612.67 415.15,-612.67 411.24,-611.85 414.41,-616.2 407.32,-611.03 407.32,-611.03"/>
</a>
</g>
</g>
<!-- Node8 -->
<g id="Node000008" class="node">
<title>Node8</title>
<g id="a_Node000008"><a xlink:href="classLoggerStartCommand.html" target="_top" xlink:title="The LoggerStartCommand class implements the logger CLI command.">
<polygon fill="white" stroke="#666666" points="600.5,-611 477.5,-611 477.5,-592 600.5,-592 600.5,-611"/>
<text text-anchor="middle" x="539" y="-599" font-family="Helvetica,sans-Serif" font-size="10.00">LoggerStartCommand</text>
</a>
</g>
</g>
<!-- Node2&#45;&gt;Node8 -->
<g id="edge8_Node000002_Node000008" class="edge">
<title>Node2&#45;&gt;Node8</title>
<g id="a_edge8_Node000002_Node000008"><a xlink:title=" ">
<path fill="none" stroke="#63b8ff" d="M420.23,-601.5C438.54,-601.5 458.8,-601.5 477.28,-601.5"/>
<polygon fill="#63b8ff" stroke="#63b8ff" points="411.96,-601.5 419.96,-597.9 415.96,-601.5 419.96,-601.5 419.96,-601.5 419.96,-601.5 415.96,-601.5 419.96,-605.1 411.96,-601.5 411.96,-601.5"/>
</a>
</g>
</g>
<!-- Node9 -->
<g id="Node000009" class="node">
<title>Node9</title>
<g id="a_Node000009"><a xlink:href="classLoggerStopCommand.html" target="_top" xlink:title="The LoggerStopCommand class implements the logger stop CLI command.">
<polygon fill="white" stroke="#666666" points="600,-574 478,-574 478,-555 600,-555 600,-574"/>
<text text-anchor="middle" x="539" y="-562" font-family="Helvetica,sans-Serif" font-size="10.00">LoggerStopCommand</text>
</a>
</g>
</g>
<!-- Node2&#45;&gt;Node9 -->
<g id="edge9_Node000002_Node000009" class="edge">
<title>Node2&#45;&gt;Node9</title>
<g id="a_edge9_Node000002_Node000009"><a xlink:title=" ">
<path fill="none" stroke="#63b8ff" d="M415.17,-590.32C439.85,-585.13 468.88,-579.03 492.52,-574.06"/>
<polygon fill="#63b8ff" stroke="#63b8ff" points="407.32,-591.97 414.41,-586.8 411.24,-591.15 415.15,-590.33 415.15,-590.33 415.15,-590.33 411.24,-591.15 415.89,-593.85 407.32,-591.97 407.32,-591.97"/>
</a>
</g>
</g>
<!-- Node10 -->
<g id="Node000010" class="node">
<title>Node10</title>
<g id="a_Node000010"><a xlink:href="classMeterCommand.html" target="_top" xlink:title="The MeterCommand class implements the meter CLI command.">
<polygon fill="white" stroke="#666666" points="586.5,-537 491.5,-537 491.5,-518 586.5,-518 586.5,-537"/>
<text text-anchor="middle" x="539" y="-525" font-family="Helvetica,sans-Serif" font-size="10.00">MeterCommand</text>
</a>
</g>
</g>
<!-- Node2&#45;&gt;Node10 -->
<g id="edge10_Node000002_Node000010" class="edge">
<title>Node2&#45;&gt;Node10</title>
<g id="a_edge10_Node000002_Node000010"><a xlink:title=" ">
<path fill="none" stroke="#63b8ff" d="M419.6,-592.2C426.71,-589.91 433.69,-587.06 440,-583.5 459.99,-572.24 456.42,-558.46 476,-546.5 482.25,-542.69 489.32,-539.58 496.39,-537.08"/>
<polygon fill="#63b8ff" stroke="#63b8ff" points="411.86,-594.47 418.52,-588.77 415.7,-593.35 419.54,-592.22 419.54,-592.22 419.54,-592.22 415.7,-593.35 420.55,-595.67 411.86,-594.47 411.86,-594.47"/>
</a>
</g>
</g>
<!-- Node11 -->
<g id="Node000011" class="node">
<title>Node11</title>
<g id="a_Node000011"><a xlink:href="classSetNameCommand.html" target="_top" xlink:title="The SetNameCommand class implements the set&#45;name CLI command.">
<polygon fill="white" stroke="#666666" points="595,-500 483,-500 483,-481 595,-481 595,-500"/>
<text text-anchor="middle" x="539" y="-488" font-family="Helvetica,sans-Serif" font-size="10.00">SetNameCommand</text>
</a>
</g>
</g>
<!-- Node2&#45;&gt;Node11 -->
<g id="edge11_Node000002_Node000011" class="edge">
<title>Node2&#45;&gt;Node11</title>
<g id="a_edge11_Node000002_Node000011"><a xlink:title=" ">
<path fill="none" stroke="#63b8ff" d="M419.66,-594.45C426.99,-591.82 434.01,-588.27 440,-583.5 468.61,-560.72 448.21,-533.28 476,-509.5 480.53,-505.62 485.85,-502.53 491.42,-500.08"/>
<polygon fill="#63b8ff" stroke="#63b8ff" points="411.61,-596.97 418.17,-591.14 415.43,-595.77 419.25,-594.58 419.25,-594.58 419.25,-594.58 415.43,-595.77 420.32,-598.02 411.61,-596.97 411.61,-596.97"/>
</a>
</g>
</g>
<!-- Node12 -->
<g id="Node000012" class="node">
<title>Node12</title>
<g id="a_Node000012"><a xlink:href="classSetTorchCommand.html" target="_top" xlink:title="The SetTorchCommand class implements the set&#45;torch CLI command.">
<polygon fill="white" stroke="#666666" points="593,-463 485,-463 485,-444 593,-444 593,-463"/>
<text text-anchor="middle" x="539" y="-451" font-family="Helvetica,sans-Serif" font-size="10.00">SetTorchCommand</text>
</a>
</g>
</g>
<!-- Node2&#45;&gt;Node12 -->
<g id="edge12_Node000002_Node000012" class="edge">
<title>Node2&#45;&gt;Node12</title>
<g id="a_edge12_Node000002_Node000012"><a xlink:title=" ">
<path fill="none" stroke="#63b8ff" d="M419.24,-595.59C426.87,-592.82 434.08,-588.92 440,-583.5 478.23,-548.45 439.03,-508.87 476,-472.5 479.93,-468.63 484.63,-465.55 489.66,-463.09"/>
<polygon fill="#63b8ff" stroke="#63b8ff" points="411.51,-598.01 418.07,-592.19 415.32,-596.82 419.14,-595.62 419.14,-595.62 419.14,-595.62 415.32,-596.82 420.22,-599.06 411.51,-598.01 411.51,-598.01"/>
</a>
</g>
</g>
<!-- Node13 -->
<g id="Node000013" class="node">
<title>Node13</title>
<g id="a_Node000013"><a xlink:href="classStatusCommand.html" target="_top" xlink:title="The StatusCommand class implements the status CLI command.">
<polygon fill="white" stroke="#666666" points="588,-426 490,-426 490,-407 588,-407 588,-426"/>
<text text-anchor="middle" x="539" y="-414" font-family="Helvetica,sans-Serif" font-size="10.00">StatusCommand</text>
</a>
</g>
</g>
<!-- Node2&#45;&gt;Node13 -->
<g id="edge13_Node000002_Node000013" class="edge">
<title>Node2&#45;&gt;Node13</title>
<g id="a_edge13_Node000002_Node000013"><a xlink:title=" ">
<path fill="none" stroke="#63b8ff" d="M419.32,-596.09C427,-593.26 434.22,-589.21 440,-583.5 488.15,-535.92 429.56,-484.75 476,-435.5 479.94,-431.32 484.77,-428.06 489.98,-425.5"/>
<polygon fill="#63b8ff" stroke="#63b8ff" points="411.51,-598.55 418.06,-592.72 415.32,-597.35 419.14,-596.15 419.14,-596.15 419.14,-596.15 415.32,-597.35 420.22,-599.58 411.51,-598.55 411.51,-598.55"/>
</a>
</g>
</g>
<!-- Node16 -->
<g id="Node000016" class="node">
<title>Node16</title>
<g id="a_Node000016"><a xlink:href="classCalibrationService.html" target="_top" xlink:title="The CalibrationService class accesses the Calibrartion service of Pokit devices.">
<polygon fill="white" stroke="#666666" points="414,-537 308,-537 308,-518 414,-518 414,-537"/>
<text text-anchor="middle" x="361" y="-525" font-family="Helvetica,sans-Serif" font-size="10.00">CalibrationService</text>
</a>
</g>
</g>
<!-- Node15&#45;&gt;Node16 -->
<g id="edge16_Node000015_Node000016" class="edge">
<title>Node15&#45;&gt;Node16</title>
<g id="a_edge16_Node000015_Node000016"><a xlink:title=" ">
<path fill="none" stroke="#63b8ff" d="M181.41,-413.7C199.69,-438.39 238,-485.11 282,-509.5 289.9,-513.88 298.82,-517.19 307.73,-519.7"/>
<polygon fill="#63b8ff" stroke="#63b8ff" points="176.59,-407.08 184.21,-411.43 178.95,-410.31 181.3,-413.55 181.3,-413.55 181.3,-413.55 178.95,-410.31 178.39,-415.67 176.59,-407.08 176.59,-407.08"/>
</a>
</g>
</g>
<!-- Node17 -->
<g id="Node000017" class="node">
<title>Node17</title>
<g id="a_Node000017"><a xlink:href="classDataLoggerService.html" target="_top" xlink:title="The DataLoggerService class accesses the Data Logger service of Pokit devices.">
<polygon fill="white" stroke="#666666" points="415.5,-500 306.5,-500 306.5,-481 415.5,-481 415.5,-500"/>
<text text-anchor="middle" x="361" y="-488" font-family="Helvetica,sans-Serif" font-size="10.00">DataLoggerService</text>
</a>
</g>
</g>
<!-- Node15&#45;&gt;Node17 -->
<g id="edge17_Node000015_Node000017" class="edge">
<title>Node15&#45;&gt;Node17</title>
<g id="a_edge17_Node000015_Node000017"><a xlink:title=" ">
<path fill="none" stroke="#63b8ff" d="M187.54,-412.24C208.64,-429.22 245.76,-456.82 282,-472.5 289.78,-475.87 298.28,-478.65 306.72,-480.94"/>
<polygon fill="#63b8ff" stroke="#63b8ff" points="181.27,-407.12 189.74,-409.39 184.37,-409.65 187.47,-412.18 187.47,-412.18 187.47,-412.18 184.37,-409.65 185.19,-414.97 181.27,-407.12 181.27,-407.12"/>
</a>
</g>
</g>
<!-- Node18 -->
<g id="Node000018" class="node">
<title>Node18</title>
<g id="a_Node000018"><a xlink:href="classDeviceInfoService.html" target="_top" xlink:title="The DeviceInfoService class accesses the Device Info service of Pokit devices.">
<polygon fill="white" stroke="#666666" points="413.5,-463 308.5,-463 308.5,-444 413.5,-444 413.5,-463"/>
<text text-anchor="middle" x="361" y="-451" font-family="Helvetica,sans-Serif" font-size="10.00">DeviceInfoService</text>
</a>
</g>
</g>
<!-- Node15&#45;&gt;Node18 -->
<g id="edge18_Node000015_Node000018" class="edge">
<title>Node15&#45;&gt;Node18</title>
<g id="a_edge18_Node000015_Node000018"><a xlink:title=" ">
<path fill="none" stroke="#63b8ff" d="M203.79,-409.95C225.88,-417.85 255.44,-427.95 282,-435.5 292.69,-438.54 304.32,-441.44 315.26,-443.99"/>
<polygon fill="#63b8ff" stroke="#63b8ff" points="196.02,-407.16 204.76,-406.48 199.78,-408.51 203.54,-409.86 203.54,-409.86 203.54,-409.86 199.78,-408.51 202.33,-413.25 196.02,-407.16 196.02,-407.16"/>
</a>
</g>
</g>
<!-- Node19 -->
<g id="Node000019" class="node">
<title>Node19</title>
<g id="a_Node000019"><a xlink:href="classDsoService.html" target="_top" xlink:title="The DsoService class accesses the DSO (Digital Storage Oscilloscope) service of Pokit devices.">
<polygon fill="white" stroke="#666666" points="396.5,-426 325.5,-426 325.5,-407 396.5,-407 396.5,-426"/>
<text text-anchor="middle" x="361" y="-414" font-family="Helvetica,sans-Serif" font-size="10.00">DsoService</text>
</a>
</g>
</g>
<!-- Node15&#45;&gt;Node19 -->
<g id="edge19_Node000015_Node000019" class="edge">
<title>Node15&#45;&gt;Node19</title>
<g id="a_edge19_Node000015_Node000019"><a xlink:title=" ">
<path fill="none" stroke="#63b8ff" d="M236,-404.1C266.14,-407.11 300.57,-410.56 325.5,-413.05"/>
<polygon fill="#63b8ff" stroke="#63b8ff" points="228.04,-403.3 236.36,-400.52 232.02,-403.7 236,-404.1 236,-404.1 236,-404.1 232.02,-403.7 235.64,-407.68 228.04,-403.3 228.04,-403.3"/>
</a>
</g>
</g>
<!-- Node20 -->
<g id="Node000020" class="node">
<title>Node20</title>
<g id="a_Node000020"><a xlink:href="classGenericAccessService.html" target="_top" xlink:title="The GenericAccessService class accesses the Generic Access service of Pokit devices.">
<polygon fill="white" stroke="#666666" points="423,-389 299,-389 299,-370 423,-370 423,-389"/>
<text text-anchor="middle" x="361" y="-377" font-family="Helvetica,sans-Serif" font-size="10.00">GenericAccessService</text>
</a>
</g>
</g>
<!-- Node15&#45;&gt;Node20 -->
<g id="edge20_Node000015_Node000020" class="edge">
<title>Node15&#45;&gt;Node20</title>
<g id="a_edge20_Node000015_Node000020"><a xlink:title=" ">
<path fill="none" stroke="#63b8ff" d="M236.03,-391.24C256.37,-389.32 278.68,-387.2 298.69,-385.31"/>
<polygon fill="#63b8ff" stroke="#63b8ff" points="228.04,-392 235.66,-387.66 232.02,-391.62 236,-391.25 236,-391.25 236,-391.25 232.02,-391.62 236.34,-394.83 228.04,-392 228.04,-392"/>
</a>
</g>
</g>
<!-- Node21 -->
<g id="Node000021" class="node">
<title>Node21</title>
<g id="a_Node000021"><a xlink:href="classMultimeterService.html" target="_top" xlink:title="The MultimeterService class accesses the Multimeter service of Pokit devices.">
<polygon fill="white" stroke="#666666" points="414.5,-352 307.5,-352 307.5,-333 414.5,-333 414.5,-352"/>
<text text-anchor="middle" x="361" y="-340" font-family="Helvetica,sans-Serif" font-size="10.00">MultimeterService</text>
</a>
</g>
</g>
<!-- Node15&#45;&gt;Node21 -->
<g id="edge21_Node000015_Node000021" class="edge">
<title>Node15&#45;&gt;Node21</title>
<g id="a_edge21_Node000015_Node000021"><a xlink:title=" ">
<path fill="none" stroke="#63b8ff" d="M205.65,-385.32C227.56,-378.01 256.26,-368.76 282,-361.5 293.8,-358.17 306.71,-354.88 318.56,-352.01"/>
<polygon fill="#63b8ff" stroke="#63b8ff" points="197.91,-387.91 204.35,-381.96 201.7,-386.64 205.49,-385.37 205.49,-385.37 205.49,-385.37 201.7,-386.64 206.64,-388.78 197.91,-387.91 197.91,-387.91"/>
</a>
</g>
</g>
<!-- Node22 -->
<g id="Node000022" class="node">
<title>Node22</title>
<g id="a_Node000022"><a xlink:href="classStatusService.html" target="_top" xlink:title="The StatusService class accesses the Pokit Status service of Pokit devices.">
<polygon fill="white" stroke="#666666" points="402.5,-315 319.5,-315 319.5,-296 402.5,-296 402.5,-315"/>
<text text-anchor="middle" x="361" y="-303" font-family="Helvetica,sans-Serif" font-size="10.00">StatusService</text>
</a>
</g>
</g>
<!-- Node15&#45;&gt;Node22 -->
<g id="edge22_Node000015_Node000022" class="edge">
<title>Node15&#45;&gt;Node22</title>
<g id="a_edge22_Node000015_Node000022"><a xlink:title=" ">
<path fill="none" stroke="#63b8ff" d="M187.98,-382.99C209.23,-366.53 246.25,-339.97 282,-324.5 293.77,-319.41 307.15,-315.52 319.47,-312.63"/>
<polygon fill="#63b8ff" stroke="#63b8ff" points="181.66,-387.96 185.73,-380.18 184.8,-385.49 187.95,-383.02 187.95,-383.02 187.95,-383.02 184.8,-385.49 190.17,-385.85 181.66,-387.96 181.66,-387.96"/>
</a>
</g>
</g>
<!-- Node24 -->
<g id="Node000024" class="node">
<title>Node24</title>
<g id="a_Node000024"><a xlink:href="classCalibrationServicePrivate.html" target="_top" xlink:title="The CalibrationServicePrivate class provides private implementation for CalibrationService.">
<polygon fill="white" stroke="#666666" points="431,-278 291,-278 291,-259 431,-259 431,-278"/>
<text text-anchor="middle" x="361" y="-266" font-family="Helvetica,sans-Serif" font-size="10.00">CalibrationServicePrivate</text>
</a>
</g>
</g>
<!-- Node23&#45;&gt;Node24 -->
<g id="edge24_Node000023_Node000024" class="edge">
<title>Node23&#45;&gt;Node24</title>
<g id="a_edge24_Node000023_Node000024"><a xlink:title=" ">
<path fill="none" stroke="#63b8ff" d="M188.36,-193.92C209.7,-210 246.54,-235.68 282,-250.5 290.08,-253.88 298.9,-256.68 307.62,-258.99"/>
<polygon fill="#63b8ff" stroke="#63b8ff" points="182,-189.06 190.54,-191.06 185.18,-191.49 188.36,-193.92 188.36,-193.92 188.36,-193.92 185.18,-191.49 186.17,-196.78 182,-189.06 182,-189.06"/>
</a>
</g>
</g>
<!-- Node25 -->
<g id="Node000025" class="node">
<title>Node25</title>
<g id="a_Node000025"><a xlink:href="classDataLoggerServicePrivate.html" target="_top" xlink:title="The DataLoggerServicePrivate class provides private implementation for DataLoggerService.">
<polygon fill="white" stroke="#666666" points="432.5,-241 289.5,-241 289.5,-222 432.5,-222 432.5,-241"/>
<text text-anchor="middle" x="361" y="-229" font-family="Helvetica,sans-Serif" font-size="10.00">DataLoggerServicePrivate</text>
</a>
</g>
</g>
<!-- Node23&#45;&gt;Node25 -->
<g id="edge25_Node000023_Node000025" class="edge">
<title>Node23&#45;&gt;Node25</title>
<g id="a_edge25_Node000023_Node000025"><a xlink:title=" ">
<path fill="none" stroke="#63b8ff" d="M207.48,-191.57C229.15,-198.38 256.99,-206.83 282,-213.5 293.01,-216.44 304.97,-219.34 316.14,-221.93"/>
<polygon fill="#63b8ff" stroke="#63b8ff" points="199.79,-189.15 208.5,-188.12 203.6,-190.35 207.42,-191.55 207.42,-191.55 207.42,-191.55 203.6,-190.35 206.34,-194.99 199.79,-189.15 199.79,-189.15"/>
</a>
</g>
</g>
<!-- Node26 -->
<g id="Node000026" class="node">
<title>Node26</title>
<g id="a_Node000026"><a xlink:href="classDeviceInfoServicePrivate.html" target="_top" xlink:title="The DeviceInfoServicePrivate class provides private implementation for DeviceInfoService.">
<polygon fill="white" stroke="#666666" points="431,-204 291,-204 291,-185 431,-185 431,-204"/>
<text text-anchor="middle" x="361" y="-192" font-family="Helvetica,sans-Serif" font-size="10.00">DeviceInfoServicePrivate</text>
</a>
</g>
</g>
<!-- Node23&#45;&gt;Node26 -->
<g id="edge26_Node000023_Node000026" class="edge">
<title>Node23&#45;&gt;Node26</title>
<g id="a_edge26_Node000023_Node000026"><a xlink:title=" ">
<path fill="none" stroke="#63b8ff" d="M253.26,-186.07C265.76,-187.06 278.54,-188.07 290.7,-189.03"/>
<polygon fill="#63b8ff" stroke="#63b8ff" points="245.09,-185.43 253.35,-182.47 249.08,-185.74 253.07,-186.06 253.07,-186.06 253.07,-186.06 249.08,-185.74 252.78,-189.65 245.09,-185.43 245.09,-185.43"/>
</a>
</g>
</g>
<!-- Node27 -->
<g id="Node000027" class="node">
<title>Node27</title>
<g id="a_Node000027"><a xlink:href="classDsoServicePrivate.html" target="_top" xlink:title="The DsoServicePrivate class provides private implementation for DsoService.">
<polygon fill="white" stroke="#666666" points="414,-167 308,-167 308,-148 414,-148 414,-167"/>
<text text-anchor="middle" x="361" y="-155" font-family="Helvetica,sans-Serif" font-size="10.00">DsoServicePrivate</text>
</a>
</g>
</g>
<!-- Node23&#45;&gt;Node27 -->
<g id="edge27_Node000023_Node000027" class="edge">
<title>Node23&#45;&gt;Node27</title>
<g id="a_edge27_Node000023_Node000027"><a xlink:title=" ">
<path fill="none" stroke="#63b8ff" d="M253.04,-169.88C271.71,-167.72 291,-165.49 307.97,-163.52"/>
<polygon fill="#63b8ff" stroke="#63b8ff" points="245.09,-170.81 252.63,-166.31 249.07,-170.34 253.04,-169.88 253.04,-169.88 253.04,-169.88 249.07,-170.34 253.45,-173.46 245.09,-170.81 245.09,-170.81"/>
</a>
</g>
</g>
<!-- Node28 -->
<g id="Node000028" class="node">
<title>Node28</title>
<g id="a_Node000028"><a xlink:href="classGenericAccessServicePrivate.html" target="_top" xlink:title="The GenericAccessServicePrivate class provides private implementation for GenericAccessService.">
<polygon fill="white" stroke="#666666" points="440,-130 282,-130 282,-111 440,-111 440,-130"/>
<text text-anchor="middle" x="361" y="-118" font-family="Helvetica,sans-Serif" font-size="10.00">GenericAccessServicePrivate</text>
</a>
</g>
</g>
<!-- Node23&#45;&gt;Node28 -->
<g id="edge28_Node000023_Node000028" class="edge">
<title>Node23&#45;&gt;Node28</title>
<g id="a_edge28_Node000023_Node000028"><a xlink:title=" ">
<path fill="none" stroke="#63b8ff" d="M228,-167.79C234.16,-165.95 240.27,-163.86 246,-161.5 263.34,-154.36 264.68,-146.69 282,-139.5 291.01,-135.76 300.92,-132.64 310.58,-130.09"/>
<polygon fill="#63b8ff" stroke="#63b8ff" points="220.18,-170 226.9,-164.36 224.03,-168.91 227.88,-167.83 227.88,-167.83 227.88,-167.83 224.03,-168.91 228.86,-171.29 220.18,-170 220.18,-170"/>
</a>
</g>
</g>
<!-- Node29 -->
<g id="Node000029" class="node">
<title>Node29</title>
<g id="a_Node000029"><a xlink:href="classMultimeterServicePrivate.html" target="_top" xlink:title="The MultimeterServicePrivate class provides private implementation for MultimeterService.">
<polygon fill="white" stroke="#666666" points="431.5,-93 290.5,-93 290.5,-74 431.5,-74 431.5,-93"/>
<text text-anchor="middle" x="361" y="-81" font-family="Helvetica,sans-Serif" font-size="10.00">MultimeterServicePrivate</text>
</a>
</g>
</g>
<!-- Node23&#45;&gt;Node29 -->
<g id="edge29_Node000023_Node000029" class="edge">
<title>Node23&#45;&gt;Node29</title>
<g id="a_edge29_Node000023_Node000029"><a xlink:title=" ">
<path fill="none" stroke="#63b8ff" d="M238.05,-166.43C240.83,-164.96 243.49,-163.32 246,-161.5 270.86,-143.46 257.2,-120.62 282,-102.5 287.29,-98.64 293.27,-95.55 299.5,-93.09"/>
<polygon fill="#63b8ff" stroke="#63b8ff" points="230.49,-169.96 236.21,-163.32 234.11,-168.27 237.74,-166.58 237.74,-166.58 237.74,-166.58 234.11,-168.27 239.26,-169.84 230.49,-169.96 230.49,-169.96"/>
</a>
</g>
</g>
<!-- Node30 -->
<g id="Node000030" class="node">
<title>Node30</title>
<g id="a_Node000030"><a xlink:href="classStatusServicePrivate.html" target="_top" xlink:title="The StatusServicePrivate class provides private implementation for StatusService.">
<polygon fill="white" stroke="#666666" points="420,-56 302,-56 302,-37 420,-37 420,-56"/>
<text text-anchor="middle" x="361" y="-44" font-family="Helvetica,sans-Serif" font-size="10.00">StatusServicePrivate</text>
</a>
</g>
</g>
<!-- Node23&#45;&gt;Node30 -->
<g id="edge30_Node000023_Node000030" class="edge">
<title>Node23&#45;&gt;Node30</title>
<g id="a_edge30_Node000023_Node000030"><a xlink:title=" ">
<path fill="none" stroke="#63b8ff" d="M240.24,-165.9C242.26,-164.56 244.19,-163.1 246,-161.5 280.19,-131.37 247.91,-95.73 282,-65.5 287.74,-60.41 294.61,-56.64 301.86,-53.84"/>
<polygon fill="#63b8ff" stroke="#63b8ff" points="233.06,-169.98 238.23,-162.9 236.54,-168 240.02,-166.02 240.02,-166.02 240.02,-166.02 236.54,-168 241.8,-169.15 233.06,-169.98 233.06,-169.98"/>
</a>
</g>
</g>
<!-- Node35 -->
<g id="Node000035" class="node">
<title>Node35</title>
<g id="a_Node000035"><a xlink:href="classPokitDiscoveryAgent.html" target="_top" xlink:title="The PokitDiscoveryAgent class discovers nearby Pokit devices.">
<polygon fill="white" stroke="#666666" points="420.5,-19 301.5,-19 301.5,0 420.5,0 420.5,-19"/>
<text text-anchor="middle" x="361" y="-7" font-family="Helvetica,sans-Serif" font-size="10.00">PokitDiscoveryAgent</text>
</a>
</g>
</g>
<!-- Node34&#45;&gt;Node35 -->
<g id="edge35_Node000034_Node000035" class="edge">
<title>Node34&#45;&gt;Node35</title>
<g id="a_edge35_Node000034_Node000035"><a xlink:title=" ">
<path fill="none" stroke="#63b8ff" d="M254.42,-13.95C270.27,-13.28 286.51,-12.59 301.35,-11.97"/>
<polygon fill="#63b8ff" stroke="#63b8ff" points="246.19,-14.29 254.03,-10.36 250.18,-14.12 254.18,-13.96 254.18,-13.96 254.18,-13.96 250.18,-14.12 254.33,-17.55 246.19,-14.29 246.19,-14.29"/>
</a>
</g>
</g>
</g>
</svg>
