<?xml version="1.0" encoding="UTF-8" standalone="no"?>
<!DOCTYPE svg PUBLIC "-//W3C//DTD SVG 1.1//EN"
 "http://www.w3.org/Graphics/SVG/1.1/DTD/svg11.dtd">
<!-- Generated by graphviz version 2.43.0 (0)
 -->
<!-- Title: CalibrationService::temperatureCalibrated Pages: 1 -->
<svg width="427pt" height="67pt"
 viewBox="0.00 0.00 427.00 67.00" xmlns="http://www.w3.org/2000/svg" xmlns:xlink="http://www.w3.org/1999/xlink">
<g id="graph0" class="graph" transform="scale(1 1) rotate(0) translate(4 63)">
<title>CalibrationService::temperatureCalibrated</title>
<!-- Node1 -->
<g id="Node000001" class="node">
<title>Node1</title>
<g id="a_Node000001"><a xlink:title="This signal is emitted when the Temperature characteristic has been written successfully.">
<polygon fill="#999999" stroke="#666666" points="134,-44.5 0,-44.5 0,-14.5 134,-14.5 134,-44.5"/>
<text text-anchor="start" x="8" y="-32.5" font-family="Helvetica,sans-Serif" font-size="10.00">CalibrationService</text>
<text text-anchor="middle" x="67" y="-21.5" font-family="Helvetica,sans-Serif" font-size="10.00">::temperatureCalibrated</text>
</a>
</g>
</g>
<!-- Node2 -->
<g id="Node000002" class="node">
<title>Node2</title>
<g id="a_Node000002"><a xlink:href="classCalibrationService.html#a6116051fc655e706a0a0f120f423c5b3" target="_top" xlink:title="Constructs a new Pokit service with parent.">
<polygon fill="white" stroke="#666666" points="282,-44.5 170,-44.5 170,-14.5 282,-14.5 282,-44.5"/>
<text text-anchor="start" x="178" y="-32.5" font-family="Helvetica,sans-Serif" font-size="10.00">CalibrationService</text>
<text text-anchor="middle" x="226" y="-21.5" font-family="Helvetica,sans-Serif" font-size="10.00">::CalibrationService</text>
</a>
</g>
</g>
<!-- Node1&#45;&gt;Node2 -->
<g id="edge1_Node000001_Node000002" class="edge">
<title>Node1&#45;&gt;Node2</title>
<g id="a_edge1_Node000001_Node000002"><a xlink:title=" ">
<path fill="none" stroke="#63b8ff" d="M134.13,-29.5C143.24,-29.5 152.58,-29.5 161.64,-29.5"/>
<polygon fill="#63b8ff" stroke="#63b8ff" points="169.86,-29.5 161.86,-33.1 165.86,-29.5 161.86,-29.5 161.86,-29.5 161.86,-29.5 165.86,-29.5 161.86,-25.9 169.86,-29.5 169.86,-29.5"/>
</a>
</g>
</g>
<!-- Node3 -->
<g id="Node000003" class="node">
<title>Node3</title>
<g id="a_Node000003"><a target="_parent" xlink:href="https://doc.qt.io/qt-5/qobject.html#parent" xlink:title=" ">
<polygon fill="white" stroke="#666666" points="415,-59 322,-59 322,-40 415,-40 415,-59"/>
<text text-anchor="middle" x="368.5" y="-47" font-family="Helvetica,sans-Serif" font-size="10.00">QObject::parent</text>
</a>
</g>
</g>
<!-- Node1&#45;&gt;Node3 -->
<g id="edge4_Node000001_Node000003" class="edge">
<title>Node1&#45;&gt;Node3</title>
<g id="a_edge4_Node000001_Node000003"><a xlink:title=" ">
<path fill="none" stroke="#63b8ff" d="M121.58,-44.56C137.08,-48.24 154.1,-51.65 170,-53.5 219.45,-59.24 232.24,-54.66 282,-53.5 292.2,-53.26 303.08,-52.86 313.53,-52.41"/>
<polygon fill="#63b8ff" stroke="#63b8ff" points="321.81,-52.03 313.98,-55.99 317.81,-52.21 313.82,-52.4 313.82,-52.4 313.82,-52.4 317.81,-52.21 313.66,-48.8 321.81,-52.03 321.81,-52.03"/>
</a>
</g>
</g>
<!-- Node4 -->
<g id="Node000004" class="node">
<title>Node4</title>
<g id="a_Node000004"><a target="_parent" xlink:href="https://doc.qt.io/qt-5/qobject.html#QObject" xlink:title=" ">
<polygon fill="white" stroke="#666666" points="419,-19 318,-19 318,0 419,0 419,-19"/>
<text text-anchor="middle" x="368.5" y="-7" font-family="Helvetica,sans-Serif" font-size="10.00">QObject::QObject</text>
</a>
</g>
</g>
<!-- Node1&#45;&gt;Node4 -->
<g id="edge5_Node000001_Node000004" class="edge">
<title>Node1&#45;&gt;Node4</title>
<g id="a_edge5_Node000001_Node000004"><a xlink:title=" ">
<path fill="none" stroke="#63b8ff" d="M121.58,-14.44C137.08,-10.76 154.1,-7.35 170,-5.5 219.45,0.24 232.24,-4.34 282,-5.5 290.96,-5.71 300.45,-6.04 309.71,-6.43"/>
<polygon fill="#63b8ff" stroke="#63b8ff" points="317.78,-6.78 309.63,-10.03 313.79,-6.61 309.79,-6.43 309.79,-6.43 309.79,-6.43 313.79,-6.61 309.95,-2.84 317.78,-6.78 317.78,-6.78"/>
</a>
</g>
</g>
<!-- Node2&#45;&gt;Node3 -->
<g id="edge2_Node000002_Node000003" class="edge">
<title>Node2&#45;&gt;Node3</title>
<g id="a_edge2_Node000002_Node000003"><a xlink:title=" ">
<path fill="none" stroke="#63b8ff" d="M282.13,-37.35C292.44,-38.82 303.21,-40.35 313.49,-41.81"/>
<polygon fill="#63b8ff" stroke="#63b8ff" points="321.61,-42.97 313.18,-45.4 317.65,-42.4 313.69,-41.84 313.69,-41.84 313.69,-41.84 317.65,-42.4 314.19,-38.28 321.61,-42.97 321.61,-42.97"/>
</a>
</g>
</g>
<!-- Node2&#45;&gt;Node4 -->
<g id="edge3_Node000002_Node000004" class="edge">
<title>Node2&#45;&gt;Node4</title>
<g id="a_edge3_Node000002_Node000004"><a xlink:title=" ">
<path fill="none" stroke="#63b8ff" d="M282.13,-21.65C291.07,-20.38 300.36,-19.06 309.38,-17.77"/>
<polygon fill="#63b8ff" stroke="#63b8ff" points="317.56,-16.61 310.15,-21.3 313.6,-17.17 309.64,-17.74 309.64,-17.74 309.64,-17.74 313.6,-17.17 309.14,-14.17 317.56,-16.61 317.56,-16.61"/>
</a>
</g>
</g>
</g>
</svg>
