<?xml version="1.0" encoding="UTF-8" standalone="no"?>
<!DOCTYPE svg PUBLIC "-//W3C//DTD SVG 1.1//EN"
 "http://www.w3.org/Graphics/SVG/1.1/DTD/svg11.dtd">
<!-- Generated by graphviz version 2.43.0 (0)
 -->
<!-- Title: DsoCommand::processOptions Pages: 1 -->
<svg width="808pt" height="640pt"
 viewBox="0.00 0.00 808.00 640.00" xmlns="http://www.w3.org/2000/svg" xmlns:xlink="http://www.w3.org/1999/xlink">
<g id="graph0" class="graph" transform="scale(1 1) rotate(0) translate(4 636)">
<title>DsoCommand::processOptions</title>
<!-- Node1 -->
<g id="Node000001" class="node">
<title>Node1</title>
<g id="a_Node000001"><a xlink:title="Processes the relevant options from the command line parser.">
<polygon fill="#999999" stroke="#666666" points="167,-265 0,-265 0,-246 167,-246 167,-265"/>
<text text-anchor="middle" x="83.5" y="-253" font-family="Helvetica,sans-Serif" font-size="10.00">DsoCommand::processOptions</text>
</a>
</g>
</g>
<!-- Node2 -->
<g id="Node000002" class="node">
<title>Node2</title>
<g id="a_Node000002"><a target="_parent" xlink:href="https://doc.qt.io/qt-5/qlist.html#append" xlink:title=" ">
<polygon fill="white" stroke="#666666" points="547,-632 464,-632 464,-613 547,-613 547,-632"/>
<text text-anchor="middle" x="505.5" y="-620" font-family="Helvetica,sans-Serif" font-size="10.00">QList::append</text>
</a>
</g>
</g>
<!-- Node1&#45;&gt;Node2 -->
<g id="edge1_Node000001_Node000002" class="edge">
<title>Node1&#45;&gt;Node2</title>
<g id="a_edge1_Node000001_Node000002"><a xlink:title=" ">
<path fill="none" stroke="#63b8ff" d="M86.06,-265.02C92.78,-302.99 122.58,-445.3 203,-523.5 272.79,-591.36 389.87,-612.71 455.72,-619.42"/>
<polygon fill="#63b8ff" stroke="#63b8ff" points="463.87,-620.21 455.57,-623.02 459.89,-619.82 455.91,-619.44 455.91,-619.44 455.91,-619.44 459.89,-619.82 456.26,-615.86 463.87,-620.21 463.87,-620.21"/>
</a>
</g>
</g>
<!-- Node3 -->
<g id="Node000003" class="node">
<title>Node3</title>
<g id="a_Node000003"><a target="_parent" xlink:href="https://doc.qt.io/qt-5/qstring.html#arg-1" xlink:title=" ">
<polygon fill="white" stroke="#666666" points="542.5,-595 468.5,-595 468.5,-576 542.5,-576 542.5,-595"/>
<text text-anchor="middle" x="505.5" y="-583" font-family="Helvetica,sans-Serif" font-size="10.00">QString::arg</text>
</a>
</g>
</g>
<!-- Node1&#45;&gt;Node3 -->
<g id="edge2_Node000001_Node000003" class="edge">
<title>Node1&#45;&gt;Node3</title>
<g id="a_edge2_Node000001_Node000003"><a xlink:title=" ">
<path fill="none" stroke="#63b8ff" d="M87.67,-265.08C98.7,-297.18 138.33,-402.37 203,-464.5 274.39,-533.08 307.31,-534.55 401,-566.5 419.98,-572.97 441.71,-577.39 460.34,-580.32"/>
<polygon fill="#63b8ff" stroke="#63b8ff" points="468.39,-581.52 459.95,-583.9 464.44,-580.93 460.48,-580.34 460.48,-580.34 460.48,-580.34 464.44,-580.93 461.01,-576.78 468.39,-581.52 468.39,-581.52"/>
</a>
</g>
</g>
<!-- Node4 -->
<g id="Node000004" class="node">
<title>Node4</title>
<g id="a_Node000004"><a target="_parent" xlink:href="https://doc.qt.io/qt-5/qlist.html#isEmpty" xlink:title=" ">
<polygon fill="white" stroke="#666666" points="327.5,-227 240.5,-227 240.5,-208 327.5,-208 327.5,-227"/>
<text text-anchor="middle" x="284" y="-215" font-family="Helvetica,sans-Serif" font-size="10.00">QList::isEmpty</text>
</a>
</g>
</g>
<!-- Node1&#45;&gt;Node4 -->
<g id="edge3_Node000001_Node000004" class="edge">
<title>Node1&#45;&gt;Node4</title>
<g id="a_edge3_Node000001_Node000004"><a xlink:title=" ">
<path fill="none" stroke="#63b8ff" d="M134.33,-245.96C164.27,-240.23 202.27,-232.95 232.35,-227.2"/>
<polygon fill="#63b8ff" stroke="#63b8ff" points="240.22,-225.69 233.04,-230.73 236.29,-226.44 232.36,-227.19 232.36,-227.19 232.36,-227.19 236.29,-226.44 231.68,-223.66 240.22,-225.69 240.22,-225.69"/>
</a>
</g>
</g>
<!-- Node5 -->
<g id="Node000005" class="node">
<title>Node5</title>
<g id="a_Node000005"><a target="_parent" xlink:href="https://doc.qt.io/qt-5/qstring.html#isEmpty" xlink:title=" ">
<polygon fill="white" stroke="#666666" points="333,-190 235,-190 235,-171 333,-171 333,-190"/>
<text text-anchor="middle" x="284" y="-178" font-family="Helvetica,sans-Serif" font-size="10.00">QString::isEmpty</text>
</a>
</g>
</g>
<!-- Node1&#45;&gt;Node5 -->
<g id="edge4_Node000001_Node000005" class="edge">
<title>Node1&#45;&gt;Node5</title>
<g id="a_edge4_Node000001_Node000005"><a xlink:title=" ">
<path fill="none" stroke="#63b8ff" d="M101.25,-245.93C123.75,-233.44 165.27,-211.63 203,-198.5 210.56,-195.87 218.66,-193.52 226.7,-191.47"/>
<polygon fill="#63b8ff" stroke="#63b8ff" points="234.7,-189.51 227.79,-194.91 230.81,-190.46 226.93,-191.41 226.93,-191.41 226.93,-191.41 230.81,-190.46 226.07,-187.92 234.7,-189.51 234.7,-189.51"/>
</a>
</g>
</g>
<!-- Node6 -->
<g id="Node000006" class="node">
<title>Node6</title>
<g id="a_Node000006"><a target="_parent" xlink:href="https://doc.qt.io/qt-5/qcommandlineparser.html#isSet" xlink:title=" ">
<polygon fill="white" stroke="#666666" points="568,-557.5 443,-557.5 443,-527.5 568,-527.5 568,-557.5"/>
<text text-anchor="start" x="451" y="-545.5" font-family="Helvetica,sans-Serif" font-size="10.00">QCommandLineParser</text>
<text text-anchor="middle" x="505.5" y="-534.5" font-family="Helvetica,sans-Serif" font-size="10.00">::isSet</text>
</a>
</g>
</g>
<!-- Node1&#45;&gt;Node6 -->
<g id="edge5_Node000001_Node000006" class="edge">
<title>Node1&#45;&gt;Node6</title>
<g id="a_edge5_Node000001_Node000006"><a xlink:title=" ">
<path fill="none" stroke="#63b8ff" d="M90.78,-265.12C107.07,-289.6 152.95,-355.32 203,-398.5 280.91,-465.72 305.68,-479.73 401,-518.5 411.69,-522.85 423.34,-526.5 434.83,-529.55"/>
<polygon fill="#63b8ff" stroke="#63b8ff" points="442.75,-531.56 434.11,-533.08 438.88,-530.57 435,-529.59 435,-529.59 435,-529.59 438.88,-530.57 435.89,-526.1 442.75,-531.56 442.75,-531.56"/>
</a>
</g>
</g>
<!-- Node7 -->
<g id="Node000007" class="node">
<title>Node7</title>
<g id="a_Node000007"><a xlink:href="classDeviceCommand.html#ab5ae0318d3ec2bd4449e710eafafa680" target="_top" xlink:title="Returns the product&#39;s lowest current range that can measure at least up to maxValue (µA),...">
<polygon fill="white" stroke="#666666" points="364.5,-152.5 203.5,-152.5 203.5,-122.5 364.5,-122.5 364.5,-152.5"/>
<text text-anchor="start" x="211.5" y="-140.5" font-family="Helvetica,sans-Serif" font-size="10.00">DeviceCommand::minCurrent</text>
<text text-anchor="middle" x="284" y="-129.5" font-family="Helvetica,sans-Serif" font-size="10.00">Range</text>
</a>
</g>
</g>
<!-- Node1&#45;&gt;Node7 -->
<g id="edge6_Node000001_Node000007" class="edge">
<title>Node1&#45;&gt;Node7</title>
<g id="a_edge6_Node000001_Node000007"><a xlink:title=" ">
<path fill="none" stroke="#63b8ff" d="M94.04,-245.78C113.07,-226.9 157.84,-185.07 203,-161.5 207.12,-159.35 211.46,-157.36 215.9,-155.53"/>
<polygon fill="#63b8ff" stroke="#63b8ff" points="223.45,-152.59 217.3,-158.85 219.72,-154.04 215.99,-155.5 215.99,-155.5 215.99,-155.5 219.72,-154.04 214.69,-152.14 223.45,-152.59 223.45,-152.59"/>
</a>
</g>
</g>
<!-- Node8 -->
<g id="Node000008" class="node">
<title>Node8</title>
<g id="a_Node000008"><a xlink:href="classDeviceCommand.html#a92f7e61dff3d28eda856ea4f95e828fe" target="_top" xlink:title="t Returns the product&#39;s lowest voltage range that can measure at least up to maxValue (mV),...">
<polygon fill="white" stroke="#666666" points="365,-104.5 203,-104.5 203,-74.5 365,-74.5 365,-104.5"/>
<text text-anchor="start" x="211" y="-92.5" font-family="Helvetica,sans-Serif" font-size="10.00">DeviceCommand::minVoltage</text>
<text text-anchor="middle" x="284" y="-81.5" font-family="Helvetica,sans-Serif" font-size="10.00">Range</text>
</a>
</g>
</g>
<!-- Node1&#45;&gt;Node8 -->
<g id="edge7_Node000001_Node000008" class="edge">
<title>Node1&#45;&gt;Node8</title>
<g id="a_edge7_Node000001_Node000008"><a xlink:title=" ">
<path fill="none" stroke="#63b8ff" d="M89.77,-245.91C104.29,-220.36 147.53,-150.11 203,-113.5 206.01,-111.51 209.19,-109.69 212.47,-108.01"/>
<polygon fill="#63b8ff" stroke="#63b8ff" points="219.82,-104.56 214.11,-111.22 216.2,-106.26 212.58,-107.96 212.58,-107.96 212.58,-107.96 216.2,-106.26 211.05,-104.7 219.82,-104.56 219.82,-104.56"/>
</a>
</g>
</g>
<!-- Node9 -->
<g id="Node000009" class="node">
<title>Node9</title>
<g id="a_Node000009"><a xlink:href="classAbstractCommand.html#ad827a18a24776efeb955739459d48f7d" target="_top" xlink:title="Processes the relevant options from the command line parser.">
<polygon fill="white" stroke="#666666" points="359.5,-389.5 208.5,-389.5 208.5,-359.5 359.5,-359.5 359.5,-389.5"/>
<text text-anchor="start" x="216.5" y="-377.5" font-family="Helvetica,sans-Serif" font-size="10.00">AbstractCommand::process</text>
<text text-anchor="middle" x="284" y="-366.5" font-family="Helvetica,sans-Serif" font-size="10.00">Options</text>
</a>
</g>
</g>
<!-- Node1&#45;&gt;Node9 -->
<g id="edge8_Node000001_Node000009" class="edge">
<title>Node1&#45;&gt;Node9</title>
<g id="a_edge8_Node000001_Node000009"><a xlink:title=" ">
<path fill="none" stroke="#63b8ff" d="M94.85,-265.11C114.56,-283.01 159.44,-321.78 203,-345.5 210.3,-349.47 218.25,-353.1 226.22,-356.34"/>
<polygon fill="#63b8ff" stroke="#63b8ff" points="234.17,-359.46 225.41,-359.89 230.44,-358 226.72,-356.54 226.72,-356.54 226.72,-356.54 230.44,-358 228.03,-353.19 234.17,-359.46 234.17,-359.46"/>
</a>
</g>
</g>
<!-- Node16 -->
<g id="Node000016" class="node">
<title>Node16</title>
<g id="a_Node000016"><a target="_parent" xlink:href="https://doc.qt.io/qt-5/qstring.html#toLower" xlink:title=" ">
<polygon fill="white" stroke="#666666" points="554.5,-241 456.5,-241 456.5,-222 554.5,-222 554.5,-241"/>
<text text-anchor="middle" x="505.5" y="-229" font-family="Helvetica,sans-Serif" font-size="10.00">QString::toLower</text>
</a>
</g>
</g>
<!-- Node1&#45;&gt;Node16 -->
<g id="edge23_Node000001_Node000016" class="edge">
<title>Node1&#45;&gt;Node16</title>
<g id="a_edge23_Node000001_Node000016"><a xlink:title=" ">
<path fill="none" stroke="#63b8ff" d="M100.23,-265.17C144.75,-291.19 274.35,-357.47 365,-307.5 391.24,-293.04 376.18,-267.28 401,-250.5 414.85,-241.13 432.03,-236.04 448.38,-233.35"/>
<polygon fill="#63b8ff" stroke="#63b8ff" points="456.32,-232.22 448.91,-236.91 452.36,-232.79 448.4,-233.35 448.4,-233.35 448.4,-233.35 452.36,-232.79 447.9,-229.79 456.32,-232.22 456.32,-232.22"/>
</a>
</g>
</g>
<!-- Node17 -->
<g id="Node000017" class="node">
<title>Node17</title>
<g id="a_Node000017"><a target="_parent" xlink:href="https://doc.qt.io/qt-5/qobject.html#tr" xlink:title=" ">
<polygon fill="white" stroke="#666666" points="540,-204 471,-204 471,-185 540,-185 540,-204"/>
<text text-anchor="middle" x="505.5" y="-192" font-family="Helvetica,sans-Serif" font-size="10.00">QObject::tr</text>
</a>
</g>
</g>
<!-- Node1&#45;&gt;Node17 -->
<g id="edge24_Node000001_Node000017" class="edge">
<title>Node1&#45;&gt;Node17</title>
<g id="a_edge24_Node000001_Node000017"><a xlink:title=" ">
<path fill="none" stroke="#63b8ff" d="M109.71,-265.05C161.34,-282.92 281.3,-315.63 365,-269.5 391.24,-255.04 376.1,-229.17 401,-212.5 418.98,-200.46 442.53,-195.72 462.62,-194.09"/>
<polygon fill="#63b8ff" stroke="#63b8ff" points="470.7,-193.58 462.95,-197.68 466.71,-193.83 462.72,-194.08 462.72,-194.08 462.72,-194.08 466.71,-193.83 462.5,-190.49 470.7,-193.58 470.7,-193.58"/>
</a>
</g>
</g>
<!-- Node18 -->
<g id="Node000018" class="node">
<title>Node18</title>
<g id="a_Node000018"><a target="_parent" xlink:href="https://doc.qt.io/qt-5/qcommandlineparser.html#value" xlink:title=" ">
<polygon fill="white" stroke="#666666" points="568,-166.5 443,-166.5 443,-136.5 568,-136.5 568,-166.5"/>
<text text-anchor="start" x="451" y="-154.5" font-family="Helvetica,sans-Serif" font-size="10.00">QCommandLineParser</text>
<text text-anchor="middle" x="505.5" y="-143.5" font-family="Helvetica,sans-Serif" font-size="10.00">::value</text>
</a>
</g>
</g>
<!-- Node1&#45;&gt;Node18 -->
<g id="edge26_Node000001_Node000018" class="edge">
<title>Node1&#45;&gt;Node18</title>
<g id="a_edge26_Node000001_Node000018"><a xlink:title=" ">
<path fill="none" stroke="#63b8ff" d="M167.01,-257.87C237.66,-258.43 332.91,-255.21 365,-235.5 391.5,-219.22 375.86,-193.8 401,-175.5 410.97,-168.24 422.79,-163.14 434.82,-159.56"/>
<polygon fill="#63b8ff" stroke="#63b8ff" points="442.73,-157.42 435.95,-162.98 438.87,-158.46 435.01,-159.51 435.01,-159.51 435.01,-159.51 438.87,-158.46 434.07,-156.03 442.73,-157.42 442.73,-157.42"/>
</a>
</g>
</g>
<!-- Node19 -->
<g id="Node000019" class="node">
<title>Node19</title>
<g id="a_Node000019"><a target="_parent" xlink:href="https://doc.qt.io/qt-5/qstring.html#startsWith" xlink:title=" ">
<polygon fill="white" stroke="#666666" points="338.5,-56 229.5,-56 229.5,-37 338.5,-37 338.5,-56"/>
<text text-anchor="middle" x="284" y="-44" font-family="Helvetica,sans-Serif" font-size="10.00">QString::startsWith</text>
</a>
</g>
</g>
<!-- Node1&#45;&gt;Node19 -->
<g id="edge22_Node000001_Node000019" class="edge">
<title>Node1&#45;&gt;Node19</title>
<g id="a_edge22_Node000001_Node000019"><a xlink:title=" ">
<path fill="none" stroke="#63b8ff" d="M87.57,-245.76C98.03,-214.2 135.44,-114.05 203,-65.5 208.58,-61.49 214.9,-58.31 221.47,-55.8"/>
<polygon fill="#63b8ff" stroke="#63b8ff" points="229.27,-53.15 222.85,-59.13 225.48,-54.44 221.7,-55.72 221.7,-55.72 221.7,-55.72 225.48,-54.44 220.54,-52.32 229.27,-53.15 229.27,-53.15"/>
</a>
</g>
</g>
<!-- Node20 -->
<g id="Node000020" class="node">
<title>Node20</title>
<g id="a_Node000020"><a target="_parent" xlink:href="https://doc.qt.io/qt-5/qstring.html#trimmed" xlink:title=" ">
<polygon fill="white" stroke="#666666" points="334.5,-19 233.5,-19 233.5,0 334.5,0 334.5,-19"/>
<text text-anchor="middle" x="284" y="-7" font-family="Helvetica,sans-Serif" font-size="10.00">QString::trimmed</text>
</a>
</g>
</g>
<!-- Node1&#45;&gt;Node20 -->
<g id="edge25_Node000001_Node000020" class="edge">
<title>Node1&#45;&gt;Node20</title>
<g id="a_edge25_Node000001_Node000020"><a xlink:title=" ">
<path fill="none" stroke="#63b8ff" d="M86.47,-245.84C94.2,-210.46 125.96,-86.85 203,-27.5 209.51,-22.48 217.16,-18.81 225.09,-16.14"/>
<polygon fill="#63b8ff" stroke="#63b8ff" points="233.1,-13.78 226.44,-19.5 229.26,-14.91 225.42,-16.04 225.42,-16.04 225.42,-16.04 229.26,-14.91 224.4,-12.59 233.1,-13.78 233.1,-13.78"/>
</a>
</g>
</g>
<!-- Node9&#45;&gt;Node2 -->
<g id="edge9_Node000009_Node000002" class="edge">
<title>Node9&#45;&gt;Node2</title>
<g id="a_edge9_Node000009_Node000002"><a xlink:title=" ">
<path fill="none" stroke="#63b8ff" d="M287.76,-389.58C296.26,-431.33 326.09,-548.97 401,-604.5 416.57,-616.04 437.05,-621.1 455.68,-623.08"/>
<polygon fill="#63b8ff" stroke="#63b8ff" points="463.81,-623.76 455.53,-626.68 459.82,-623.42 455.83,-623.09 455.83,-623.09 455.83,-623.09 459.82,-623.42 456.14,-619.5 463.81,-623.76 463.81,-623.76"/>
</a>
</g>
</g>
<!-- Node9&#45;&gt;Node3 -->
<g id="edge10_Node000009_Node000003" class="edge">
<title>Node9&#45;&gt;Node3</title>
<g id="a_edge10_Node000009_Node000003"><a xlink:title=" ">
<path fill="none" stroke="#63b8ff" d="M289.41,-389.73C300.95,-426.7 335.79,-521.46 401,-566.5 418.1,-578.31 440.44,-583.38 459.98,-585.36"/>
<polygon fill="#63b8ff" stroke="#63b8ff" points="468.16,-586.03 459.9,-588.96 464.18,-585.7 460.19,-585.38 460.19,-585.38 460.19,-585.38 464.18,-585.7 460.49,-581.79 468.16,-586.03 468.16,-586.03"/>
</a>
</g>
</g>
<!-- Node9&#45;&gt;Node6 -->
<g id="edge12_Node000009_Node000006" class="edge">
<title>Node9&#45;&gt;Node6</title>
<g id="a_edge12_Node000009_Node000006"><a xlink:title=" ">
<path fill="none" stroke="#63b8ff" d="M297.99,-389.6C314.02,-408.34 341.99,-441.4 365,-470.5 381.54,-491.42 378.66,-503.94 401,-518.5 411.2,-525.15 423.03,-529.97 434.96,-533.45"/>
<polygon fill="#63b8ff" stroke="#63b8ff" points="442.81,-535.56 434.15,-536.96 438.94,-534.52 435.08,-533.48 435.08,-533.48 435.08,-533.48 438.94,-534.52 436.01,-530.01 442.81,-535.56 442.81,-535.56"/>
</a>
</g>
</g>
<!-- Node10 -->
<g id="Node000010" class="node">
<title>Node10</title>
<g id="a_Node000010"><a target="_parent" xlink:href="https://doc.qt.io/qt-5/qstringlist.html#contains" xlink:title=" ">
<polygon fill="white" stroke="#666666" points="564,-509 447,-509 447,-490 564,-490 564,-509"/>
<text text-anchor="middle" x="505.5" y="-497" font-family="Helvetica,sans-Serif" font-size="10.00">QStringList::contains</text>
</a>
</g>
</g>
<!-- Node9&#45;&gt;Node10 -->
<g id="edge11_Node000009_Node000010" class="edge">
<title>Node9&#45;&gt;Node10</title>
<g id="a_edge11_Node000009_Node000010"><a xlink:title=" ">
<path fill="none" stroke="#63b8ff" d="M296.7,-389.64C315.79,-413.18 356.04,-458.17 401,-480.5 412.65,-486.29 425.83,-490.33 438.79,-493.14"/>
<polygon fill="#63b8ff" stroke="#63b8ff" points="446.81,-494.74 438.26,-496.7 442.89,-493.96 438.96,-493.17 438.96,-493.17 438.96,-493.17 442.89,-493.96 439.67,-489.64 446.81,-494.74 446.81,-494.74"/>
</a>
</g>
</g>
<!-- Node11 -->
<g id="Node000011" class="node">
<title>Node11</title>
<g id="a_Node000011"><a target="_parent" xlink:href="https://doc.qt.io/qt-5/qbluetoothdevicediscoveryagent.html#lowEnergyDiscoveryTimeout" xlink:title=" ">
<polygon fill="white" stroke="#666666" points="601,-471.5 410,-471.5 410,-441.5 601,-441.5 601,-471.5"/>
<text text-anchor="start" x="418" y="-459.5" font-family="Helvetica,sans-Serif" font-size="10.00">QBluetoothDeviceDiscovery</text>
<text text-anchor="middle" x="505.5" y="-448.5" font-family="Helvetica,sans-Serif" font-size="10.00">Agent::lowEnergyDiscoveryTimeout</text>
</a>
</g>
</g>
<!-- Node9&#45;&gt;Node11 -->
<g id="edge13_Node000009_Node000011" class="edge">
<title>Node9&#45;&gt;Node11</title>
<g id="a_edge13_Node000009_Node000011"><a xlink:title=" ">
<path fill="none" stroke="#63b8ff" d="M310.94,-389.7C333.94,-402.63 368.8,-420.9 401,-432.5 407.82,-434.96 414.98,-437.22 422.22,-439.3"/>
<polygon fill="#63b8ff" stroke="#63b8ff" points="430.1,-441.48 421.43,-442.82 426.24,-440.42 422.39,-439.35 422.39,-439.35 422.39,-439.35 426.24,-440.42 423.35,-435.88 430.1,-441.48 430.1,-441.48"/>
</a>
</g>
</g>
<!-- Node12 -->
<g id="Node000012" class="node">
<title>Node12</title>
<g id="a_Node000012"><a target="_parent" xlink:href="https://doc.qt.io/qt-5/qcommandlineparser.html#optionNames" xlink:title=" ">
<polygon fill="white" stroke="#666666" points="568,-423.5 443,-423.5 443,-393.5 568,-393.5 568,-423.5"/>
<text text-anchor="start" x="451" y="-411.5" font-family="Helvetica,sans-Serif" font-size="10.00">QCommandLineParser</text>
<text text-anchor="middle" x="505.5" y="-400.5" font-family="Helvetica,sans-Serif" font-size="10.00">::optionNames</text>
</a>
</g>
</g>
<!-- Node9&#45;&gt;Node12 -->
<g id="edge14_Node000009_Node000012" class="edge">
<title>Node9&#45;&gt;Node12</title>
<g id="a_edge14_Node000009_Node000012"><a xlink:title=" ">
<path fill="none" stroke="#63b8ff" d="M359.62,-386.06C383.96,-389.83 410.88,-394 434.84,-397.71"/>
<polygon fill="#63b8ff" stroke="#63b8ff" points="442.85,-398.95 434.39,-401.28 438.9,-398.34 434.94,-397.73 434.94,-397.73 434.94,-397.73 438.9,-398.34 435.49,-394.17 442.85,-398.95 442.85,-398.95"/>
</a>
</g>
</g>
<!-- Node13 -->
<g id="Node000013" class="node">
<title>Node13</title>
<g id="a_Node000013"><a xlink:href="classAbstractCommand.html#afd6f41cfc925751415cfa45e3b2d0b4a" target="_top" xlink:title="Returns a list of CLI option names required by this command.">
<polygon fill="white" stroke="#666666" points="800,-358.5 646,-358.5 646,-328.5 800,-328.5 800,-358.5"/>
<text text-anchor="start" x="654" y="-346.5" font-family="Helvetica,sans-Serif" font-size="10.00">AbstractCommand::required</text>
<text text-anchor="middle" x="723" y="-335.5" font-family="Helvetica,sans-Serif" font-size="10.00">Options</text>
</a>
</g>
</g>
<!-- Node9&#45;&gt;Node13 -->
<g id="edge15_Node000009_Node000013" class="edge">
<title>Node9&#45;&gt;Node13</title>
<g id="a_edge15_Node000009_Node000013"><a xlink:title=" ">
<path fill="none" stroke="#63b8ff" d="M359.63,-369.21C436.81,-363.73 557.12,-355.2 637.69,-349.48"/>
<polygon fill="#63b8ff" stroke="#63b8ff" points="645.85,-348.9 638.12,-353.06 641.86,-349.19 637.87,-349.47 637.87,-349.47 637.87,-349.47 641.86,-349.19 637.61,-345.88 645.85,-348.9 645.85,-348.9"/>
</a>
</g>
</g>
<!-- Node14 -->
<g id="Node000014" class="node">
<title>Node14</title>
<g id="a_Node000014"><a target="_parent" xlink:href="https://doc.qt.io/qt-5/qbluetoothdevicediscoveryagent.html#setLowEnergyDiscoveryTimeout" xlink:title=" ">
<polygon fill="white" stroke="#666666" points="610,-289.5 401,-289.5 401,-259.5 610,-259.5 610,-289.5"/>
<text text-anchor="start" x="409" y="-277.5" font-family="Helvetica,sans-Serif" font-size="10.00">QBluetoothDeviceDiscovery</text>
<text text-anchor="middle" x="505.5" y="-266.5" font-family="Helvetica,sans-Serif" font-size="10.00">Agent::setLowEnergyDiscoveryTimeout</text>
</a>
</g>
</g>
<!-- Node9&#45;&gt;Node14 -->
<g id="edge16_Node000009_Node000014" class="edge">
<title>Node9&#45;&gt;Node14</title>
<g id="a_edge16_Node000009_Node000014"><a xlink:title=" ">
<path fill="none" stroke="#63b8ff" d="M339.63,-359.46C348.56,-355.7 357.37,-351.09 365,-345.5 386.22,-329.95 378.88,-312.75 401,-298.5 404.09,-296.51 407.33,-294.68 410.67,-293"/>
<polygon fill="#63b8ff" stroke="#63b8ff" points="418.15,-289.57 412.38,-296.18 414.51,-291.24 410.88,-292.91 410.88,-292.91 410.88,-292.91 414.51,-291.24 409.37,-289.64 418.15,-289.57 418.15,-289.57"/>
</a>
</g>
</g>
<!-- Node15 -->
<g id="Node000015" class="node">
<title>Node15</title>
<g id="a_Node000015"><a xlink:href="classAbstractCommand.html#a1ceca3c5b4cb24277dd4d4054f45db18" target="_top" xlink:title="Returns a list of CLI option names supported by this command.">
<polygon fill="white" stroke="#666666" points="586.5,-337.5 424.5,-337.5 424.5,-307.5 586.5,-307.5 586.5,-337.5"/>
<text text-anchor="start" x="432.5" y="-325.5" font-family="Helvetica,sans-Serif" font-size="10.00">AbstractCommand::supported</text>
<text text-anchor="middle" x="505.5" y="-314.5" font-family="Helvetica,sans-Serif" font-size="10.00">Options</text>
</a>
</g>
</g>
<!-- Node9&#45;&gt;Node15 -->
<g id="edge17_Node000009_Node000015" class="edge">
<title>Node9&#45;&gt;Node15</title>
<g id="a_edge17_Node000009_Node000015"><a xlink:title=" ">
<path fill="none" stroke="#63b8ff" d="M348.49,-359.46C374.99,-353.18 405.9,-345.86 433.19,-339.39"/>
<polygon fill="#63b8ff" stroke="#63b8ff" points="441.15,-337.51 434.2,-342.85 437.26,-338.43 433.37,-339.35 433.37,-339.35 433.37,-339.35 437.26,-338.43 432.54,-335.85 441.15,-337.51 441.15,-337.51"/>
</a>
</g>
</g>
<!-- Node9&#45;&gt;Node16 -->
<g id="edge19_Node000009_Node000016" class="edge">
<title>Node9&#45;&gt;Node16</title>
<g id="a_edge19_Node000009_Node000016"><a xlink:title=" ">
<path fill="none" stroke="#63b8ff" d="M344.81,-359.49C352.22,-355.8 359.21,-351.2 365,-345.5 397.16,-313.8 366.32,-279.42 401,-250.5 414.14,-239.54 431.53,-234.06 448.28,-231.51"/>
<polygon fill="#63b8ff" stroke="#63b8ff" points="456.44,-230.48 448.95,-235.05 452.47,-230.98 448.5,-231.48 448.5,-231.48 448.5,-231.48 452.47,-230.98 448.05,-227.91 456.44,-230.48 456.44,-230.48"/>
</a>
</g>
</g>
<!-- Node9&#45;&gt;Node17 -->
<g id="edge20_Node000009_Node000017" class="edge">
<title>Node9&#45;&gt;Node17</title>
<g id="a_edge20_Node000009_Node000017"><a xlink:title=" ">
<path fill="none" stroke="#63b8ff" d="M308.86,-359.46C326.46,-347.3 349.89,-328.76 365,-307.5 391.16,-270.7 366.19,-241.25 401,-212.5 418.01,-198.45 442.05,-193.66 462.68,-192.51"/>
<polygon fill="#63b8ff" stroke="#63b8ff" points="470.69,-192.24 462.82,-196.11 466.69,-192.38 462.69,-192.51 462.69,-192.51 462.69,-192.51 466.69,-192.38 462.57,-188.92 470.69,-192.24 470.69,-192.24"/>
</a>
</g>
</g>
<!-- Node9&#45;&gt;Node18 -->
<g id="edge21_Node000009_Node000018" class="edge">
<title>Node9&#45;&gt;Node18</title>
<g id="a_edge21_Node000009_Node000018"><a xlink:title=" ">
<path fill="none" stroke="#63b8ff" d="M298.69,-359.47C315.95,-339.91 345.7,-304.13 365,-269.5 386.78,-230.42 367.26,-204.88 401,-175.5 410.68,-167.07 422.74,-161.45 435.17,-157.74"/>
<polygon fill="#63b8ff" stroke="#63b8ff" points="442.94,-155.66 436.14,-161.21 439.08,-156.7 435.21,-157.73 435.21,-157.73 435.21,-157.73 439.08,-156.7 434.28,-154.25 442.94,-155.66 442.94,-155.66"/>
</a>
</g>
</g>
<!-- Node15&#45;&gt;Node13 -->
<g id="edge18_Node000015_Node000013" class="edge">
<title>Node15&#45;&gt;Node13</title>
<g id="a_edge18_Node000015_Node000013"><a xlink:title=" ">
<path fill="none" stroke="#63b8ff" d="M586.74,-330.32C603.4,-331.94 621,-333.66 637.8,-335.3"/>
<polygon fill="#63b8ff" stroke="#63b8ff" points="645.98,-336.09 637.66,-338.9 641.99,-335.7 638.01,-335.32 638.01,-335.32 638.01,-335.32 641.99,-335.7 638.36,-331.73 645.98,-336.09 645.98,-336.09"/>
</a>
</g>
</g>
</g>
</svg>
