<?xml version="1.0" encoding="UTF-8" standalone="no"?>
<!DOCTYPE svg PUBLIC "-//W3C//DTD SVG 1.1//EN"
 "http://www.w3.org/Graphics/SVG/1.1/DTD/svg11.dtd">
<!-- Generated by graphviz version 2.43.0 (0)
 -->
<!-- Title: PokitDevice Pages: 1 -->
<svg width="1068pt" height="471pt"
 viewBox="0.00 0.00 1068.00 471.33" xmlns="http://www.w3.org/2000/svg" xmlns:xlink="http://www.w3.org/1999/xlink">
<g id="graph0" class="graph" transform="scale(1 1) rotate(0) translate(4 467.33)">
<title>PokitDevice</title>
<!-- Node1 -->
<g id="Node000001" class="node">
<title>Node1</title>
<g id="a_Node000001"><a xlink:title="The PokitDevice class simplifies Pokit device access.">
<polygon fill="#999999" stroke="#666666" points="193,-414.83 118,-414.83 118,-395.83 193,-395.83 193,-414.83"/>
<text text-anchor="middle" x="155.5" y="-402.83" font-family="Helvetica,sans-Serif" font-size="10.00">PokitDevice</text>
</a>
</g>
</g>
<!-- Node3 -->
<g id="Node000003" class="node">
<title>Node3</title>
<g id="a_Node000003"><a xlink:href="classPokitDevicePrivate.html" target="_top" xlink:title="The PokitDevicePrivate class provides private implementation for PokitDevice.">
<polygon fill="white" stroke="#666666" points="1060,-252.83 950,-252.83 950,-233.83 1060,-233.83 1060,-252.83"/>
<text text-anchor="middle" x="1005" y="-240.83" font-family="Helvetica,sans-Serif" font-size="10.00">PokitDevicePrivate</text>
</a>
</g>
</g>
<!-- Node1&#45;&gt;Node3 -->
<g id="edge33_Node000003_Node000001" class="edge">
<title>Node1&#45;&gt;Node3</title>
<g id="a_edge33_Node000003_Node000001"><a xlink:title=" ">
<path fill="none" stroke="#9a32cd" stroke-dasharray="5,2" d="M201.45,-405.33C248.47,-405.33 324.41,-405.33 390,-405.33 390,-405.33 390,-405.33 774.5,-405.33 845.93,-405.33 874.4,-415.57 932,-373.33 974.65,-342.05 995.16,-277.51 1001.64,-253.03"/>
<polygon fill="#9a32cd" stroke="#9a32cd" points="193.3,-405.33 201.3,-401.73 197.3,-405.33 201.3,-405.33 201.3,-405.33 201.3,-405.33 197.3,-405.33 201.3,-408.93 193.3,-405.33 193.3,-405.33"/>
</a>
</g>
<text text-anchor="middle" x="623" y="-408.33" font-family="Helvetica,sans-Serif" font-size="10.00" fill="grey"> q_ptr</text>
</g>
<!-- Node2 -->
<g id="Node000002" class="node">
<title>Node2</title>
<g id="a_Node000002"><a target="_parent" xlink:href="https://doc.qt.io/qt-5/qobject.html" xlink:title=" ">
<polygon fill="white" stroke="#bfbfbf" points="56,-308.83 0,-308.83 0,-289.83 56,-289.83 56,-308.83"/>
<text text-anchor="middle" x="28" y="-296.83" font-family="Helvetica,sans-Serif" font-size="10.00">QObject</text>
</a>
</g>
</g>
<!-- Node2&#45;&gt;Node1 -->
<g id="edge1_Node000001_Node000002" class="edge">
<title>Node2&#45;&gt;Node1</title>
<g id="a_edge1_Node000001_Node000002"><a xlink:title=" ">
<path fill="none" stroke="#63b8ff" d="M35.7,-316.7C42.9,-333.28 55.81,-357.96 74,-373.33 86.52,-383.91 102.98,-391.28 117.74,-396.26"/>
<polygon fill="#63b8ff" stroke="#63b8ff" points="32.46,-308.86 38.84,-314.87 33.99,-312.55 35.52,-316.25 35.52,-316.25 35.52,-316.25 33.99,-312.55 32.19,-317.62 32.46,-308.86 32.46,-308.86"/>
</a>
</g>
</g>
<!-- Node2&#45;&gt;Node3 -->
<g id="edge3_Node000003_Node000002" class="edge">
<title>Node2&#45;&gt;Node3</title>
<g id="a_edge3_Node000003_Node000002"><a xlink:title=" ">
<path fill="none" stroke="#63b8ff" d="M46.81,-314.13C70.05,-331.9 112.7,-359.33 154.5,-359.33 154.5,-359.33 154.5,-359.33 774.5,-359.33 848.5,-359.33 867.8,-342.14 932,-305.33 957.47,-290.73 982.33,-266.46 995.12,-253.02"/>
<polygon fill="#63b8ff" stroke="#63b8ff" points="40.24,-308.97 48.76,-311.08 43.39,-311.44 46.53,-313.91 46.53,-313.91 46.53,-313.91 43.39,-311.44 44.31,-316.75 40.24,-308.97 40.24,-308.97"/>
</a>
</g>
</g>
<!-- Node4 -->
<g id="Node000004" class="node">
<title>Node4</title>
<g id="a_Node000004"><a target="_parent" xlink:href="https://doc.qt.io/qt-5/qlowenergycontroller.html" xlink:title=" ">
<polygon fill="white" stroke="#bfbfbf" points="218,-330.83 93,-330.83 93,-311.83 218,-311.83 218,-330.83"/>
<text text-anchor="middle" x="155.5" y="-318.83" font-family="Helvetica,sans-Serif" font-size="10.00">QLowEnergyController</text>
</a>
</g>
</g>
<!-- Node2&#45;&gt;Node4 -->
<g id="edge5_Node000004_Node000002" class="edge">
<title>Node2&#45;&gt;Node4</title>
<g id="a_edge5_Node000004_Node000002"><a xlink:title=" ">
<path fill="none" stroke="#63b8ff" d="M64.43,-305.54C75.56,-307.49 88.12,-309.69 100.24,-311.82"/>
<polygon fill="#63b8ff" stroke="#63b8ff" points="56.23,-304.1 64.73,-301.94 60.17,-304.79 64.11,-305.49 64.11,-305.49 64.11,-305.49 60.17,-304.79 63.49,-309.03 56.23,-304.1 56.23,-304.1"/>
</a>
</g>
</g>
<!-- Node6 -->
<g id="Node000006" class="node">
<title>Node6</title>
<g id="a_Node000006"><a xlink:href="classAbstractPokitService.html" target="_top" xlink:title="The AbstractPokitService class provides a common base for Pokit services classes.">
<polygon fill="white" stroke="#666666" points="682,-233.83 564,-233.83 564,-214.83 682,-214.83 682,-233.83"/>
<text text-anchor="middle" x="623" y="-221.83" font-family="Helvetica,sans-Serif" font-size="10.00">AbstractPokitService</text>
</a>
</g>
</g>
<!-- Node2&#45;&gt;Node6 -->
<g id="edge8_Node000006_Node000002" class="edge">
<title>Node2&#45;&gt;Node6</title>
<g id="a_edge8_Node000006_Node000002"><a xlink:title=" ">
<path fill="none" stroke="#63b8ff" d="M64.21,-296.7C148.06,-290.16 366,-271.47 546,-241.33 558.13,-239.3 571.25,-236.56 583.11,-233.88"/>
<polygon fill="#63b8ff" stroke="#63b8ff" points="56.05,-297.34 63.75,-293.13 60.04,-297.03 64.03,-296.72 64.03,-296.72 64.03,-296.72 60.04,-297.03 64.31,-300.31 56.05,-297.34 56.05,-297.34"/>
</a>
</g>
</g>
<!-- Node7 -->
<g id="Node000007" class="node">
<title>Node7</title>
<g id="a_Node000007"><a xlink:href="classAbstractPokitServicePrivate.html" target="_top" xlink:title="The AbstractPokitServicePrivate class provides private implementation for AbstractPokitService.">
<polygon fill="white" stroke="#666666" points="467,-235.83 315,-235.83 315,-216.83 467,-216.83 467,-235.83"/>
<text text-anchor="middle" x="391" y="-223.83" font-family="Helvetica,sans-Serif" font-size="10.00">AbstractPokitServicePrivate</text>
</a>
</g>
</g>
<!-- Node2&#45;&gt;Node7 -->
<g id="edge10_Node000007_Node000002" class="edge">
<title>Node2&#45;&gt;Node7</title>
<g id="a_edge10_Node000007_Node000002"><a xlink:title=" ">
<path fill="none" stroke="#63b8ff" d="M47.06,-284.55C54.9,-278.9 64.45,-272.94 74,-269.33 116.72,-253.17 235.65,-239.98 314.79,-232.64"/>
<polygon fill="#63b8ff" stroke="#63b8ff" points="40.4,-289.59 44.62,-281.89 43.6,-287.18 46.79,-284.76 46.79,-284.76 46.79,-284.76 43.6,-287.18 48.96,-287.64 40.4,-289.59 40.4,-289.59"/>
</a>
</g>
</g>
<!-- Node8 -->
<g id="Node000008" class="node">
<title>Node8</title>
<g id="a_Node000008"><a target="_parent" xlink:href="https://doc.qt.io/qt-5/qlowenergyservice.html" xlink:title=" ">
<polygon fill="white" stroke="#bfbfbf" points="212,-216.83 99,-216.83 99,-197.83 212,-197.83 212,-216.83"/>
<text text-anchor="middle" x="155.5" y="-204.83" font-family="Helvetica,sans-Serif" font-size="10.00">QLowEnergyService</text>
</a>
</g>
</g>
<!-- Node2&#45;&gt;Node8 -->
<g id="edge13_Node000008_Node000002" class="edge">
<title>Node2&#45;&gt;Node8</title>
<g id="a_edge13_Node000008_Node000002"><a xlink:title=" ">
<path fill="none" stroke="#63b8ff" d="M36.26,-282.03C43.6,-266.57 56.38,-244.4 74,-231.33 82.55,-224.99 92.77,-220.31 103.01,-216.87"/>
<polygon fill="#63b8ff" stroke="#63b8ff" points="32.92,-289.42 32.93,-280.64 34.57,-285.77 36.21,-282.13 36.21,-282.13 36.21,-282.13 34.57,-285.77 39.49,-283.61 32.92,-289.42 32.92,-289.42"/>
</a>
</g>
</g>
<!-- Node3&#45;&gt;Node1 -->
<g id="edge2_Node000001_Node000003" class="edge">
<title>Node3&#45;&gt;Node1</title>
<g id="a_edge2_Node000001_Node000003"><a xlink:title=" ">
<path fill="none" stroke="#9a32cd" stroke-dasharray="5,2" d="M1002.14,-261.29C997.42,-297.22 981.58,-378.04 932,-419.33 877.05,-465.1 846.02,-452.33 774.5,-452.33 390,-452.33 390,-452.33 390,-452.33 314.74,-452.33 228.47,-428.58 184.89,-414.84"/>
<polygon fill="#9a32cd" stroke="#9a32cd" points="1003.12,-253.17 1005.74,-261.54 1002.64,-257.14 1002.16,-261.11 1002.16,-261.11 1002.16,-261.11 1002.64,-257.14 998.59,-260.68 1003.12,-253.17 1003.12,-253.17"/>
</a>
</g>
<text text-anchor="middle" x="623" y="-455.33" font-family="Helvetica,sans-Serif" font-size="10.00" fill="grey"> d_ptr</text>
</g>
<!-- Node4&#45;&gt;Node3 -->
<g id="edge4_Node000003_Node000004" class="edge">
<title>Node4&#45;&gt;Node3</title>
<g id="a_edge4_Node000003_Node000004"><a xlink:title=" ">
<path fill="none" stroke="#9a32cd" stroke-dasharray="5,2" d="M226.36,-320.65C348.52,-319.06 608.82,-313.87 828,-297.33 874.4,-293.83 887.85,-300.03 932,-285.33 954.38,-277.88 977.45,-262.89 991.26,-252.98"/>
<polygon fill="#9a32cd" stroke="#9a32cd" points="218.16,-320.76 226.11,-317.06 222.16,-320.71 226.16,-320.66 226.16,-320.66 226.16,-320.66 222.16,-320.71 226.2,-324.26 218.16,-320.76 218.16,-320.76"/>
</a>
</g>
<text text-anchor="middle" x="623" y="-315.33" font-family="Helvetica,sans-Serif" font-size="10.00" fill="grey"> controller</text>
</g>
<!-- Node4&#45;&gt;Node7 -->
<g id="edge11_Node000007_Node000004" class="edge">
<title>Node4&#45;&gt;Node7</title>
<g id="a_edge11_Node000007_Node000004"><a xlink:title=" ">
<path fill="none" stroke="#9a32cd" stroke-dasharray="5,2" d="M187.69,-308.64C235.12,-289.34 324.32,-253.05 366.61,-235.85"/>
<polygon fill="#9a32cd" stroke="#9a32cd" points="180.17,-311.7 186.23,-305.35 183.88,-310.19 187.58,-308.68 187.58,-308.68 187.58,-308.68 183.88,-310.19 188.94,-312.02 180.17,-311.7 180.17,-311.7"/>
</a>
</g>
<text text-anchor="middle" x="266.5" y="-291.33" font-family="Helvetica,sans-Serif" font-size="10.00" fill="grey"> controller</text>
</g>
<!-- Node5 -->
<g id="Node000005" class="node">
<title>Node5</title>
<g id="a_Node000005"><a xlink:href="classCalibrationService.html" target="_top" xlink:title="The CalibrationService class accesses the Calibrartion service of Pokit devices.">
<polygon fill="white" stroke="#666666" points="826.5,-133.83 720.5,-133.83 720.5,-114.83 826.5,-114.83 826.5,-133.83"/>
<text text-anchor="middle" x="773.5" y="-121.83" font-family="Helvetica,sans-Serif" font-size="10.00">CalibrationService</text>
</a>
</g>
</g>
<!-- Node5&#45;&gt;Node3 -->
<g id="edge6_Node000003_Node000005" class="edge">
<title>Node5&#45;&gt;Node3</title>
<g id="a_edge6_Node000003_Node000005"><a xlink:title=" ">
<path fill="none" stroke="#9a32cd" stroke-dasharray="5,2" d="M834.95,-129.16C865.74,-133.78 902.75,-142.78 932,-160.33 963.24,-179.08 987.94,-216.05 998.47,-233.62"/>
<polygon fill="#9a32cd" stroke="#9a32cd" points="826.85,-128.03 835.27,-125.57 830.81,-128.59 834.77,-129.14 834.77,-129.14 834.77,-129.14 830.81,-128.59 834.27,-132.71 826.85,-128.03 826.85,-128.03"/>
</a>
</g>
<text text-anchor="middle" x="889" y="-163.33" font-family="Helvetica,sans-Serif" font-size="10.00" fill="grey"> calibration</text>
</g>
<!-- Node6&#45;&gt;Node5 -->
<g id="edge7_Node000005_Node000006" class="edge">
<title>Node6&#45;&gt;Node5</title>
<g id="a_edge7_Node000005_Node000006"><a xlink:title=" ">
<path fill="none" stroke="#63b8ff" d="M638.59,-208.46C656.11,-190.23 687.14,-160.5 719,-142.33 724.79,-139.03 731.28,-136.21 737.68,-133.85"/>
<polygon fill="#63b8ff" stroke="#63b8ff" points="632.77,-214.61 635.65,-206.33 635.51,-211.71 638.26,-208.8 638.26,-208.8 638.26,-208.8 635.51,-211.71 640.88,-211.27 632.77,-214.61 632.77,-214.61"/>
</a>
</g>
</g>
<!-- Node6&#45;&gt;Node7 -->
<g id="edge16_Node000007_Node000006" class="edge">
<title>Node6&#45;&gt;Node7</title>
<g id="a_edge16_Node000007_Node000006"><a xlink:title=" ">
<path fill="none" stroke="#9a32cd" stroke-dasharray="5,2" d="M570.05,-213.46C562.03,-212.16 553.82,-211.04 546,-210.33 519,-207.86 512.01,-208.02 485,-210.33 469.66,-211.64 453.04,-214.15 438.16,-216.79"/>
<polygon fill="#9a32cd" stroke="#9a32cd" points="577.98,-214.82 569.49,-217.02 574.04,-214.15 570.1,-213.47 570.1,-213.47 570.1,-213.47 574.04,-214.15 570.7,-209.92 577.98,-214.82 577.98,-214.82"/>
</a>
</g>
<text text-anchor="middle" x="515.5" y="-213.33" font-family="Helvetica,sans-Serif" font-size="10.00" fill="grey"> q_ptr</text>
</g>
<!-- Node11 -->
<g id="Node000011" class="node">
<title>Node11</title>
<g id="a_Node000011"><a xlink:href="classDataLoggerService.html" target="_top" xlink:title="The DataLoggerService class accesses the Data Logger service of Pokit devices.">
<polygon fill="white" stroke="#666666" points="828,-170.83 719,-170.83 719,-151.83 828,-151.83 828,-170.83"/>
<text text-anchor="middle" x="773.5" y="-158.83" font-family="Helvetica,sans-Serif" font-size="10.00">DataLoggerService</text>
</a>
</g>
</g>
<!-- Node6&#45;&gt;Node11 -->
<g id="edge19_Node000011_Node000006" class="edge">
<title>Node6&#45;&gt;Node11</title>
<g id="a_edge19_Node000011_Node000006"><a xlink:title=" ">
<path fill="none" stroke="#63b8ff" d="M654.15,-211.54C682.45,-199.54 724.13,-181.85 749.73,-170.99"/>
<polygon fill="#63b8ff" stroke="#63b8ff" points="646.55,-214.76 652.51,-208.32 650.24,-213.2 653.92,-211.64 653.92,-211.64 653.92,-211.64 650.24,-213.2 655.32,-214.95 646.55,-214.76 646.55,-214.76"/>
</a>
</g>
</g>
<!-- Node12 -->
<g id="Node000012" class="node">
<title>Node12</title>
<g id="a_Node000012"><a xlink:href="classDeviceInfoService.html" target="_top" xlink:title="The DeviceInfoService class accesses the Device Info service of Pokit devices.">
<polygon fill="white" stroke="#666666" points="826,-96.83 721,-96.83 721,-77.83 826,-77.83 826,-96.83"/>
<text text-anchor="middle" x="773.5" y="-84.83" font-family="Helvetica,sans-Serif" font-size="10.00">DeviceInfoService</text>
</a>
</g>
</g>
<!-- Node6&#45;&gt;Node12 -->
<g id="edge22_Node000012_Node000006" class="edge">
<title>Node6&#45;&gt;Node12</title>
<g id="a_edge22_Node000012_Node000006"><a xlink:title=" ">
<path fill="none" stroke="#63b8ff" d="M633.09,-207.61C647.83,-182 679.36,-133.09 719,-105.33 723.82,-101.96 729.31,-99.18 734.91,-96.9"/>
<polygon fill="#63b8ff" stroke="#63b8ff" points="629.06,-214.77 629.85,-206.03 631.02,-211.28 632.98,-207.8 632.98,-207.8 632.98,-207.8 631.02,-211.28 636.12,-209.56 629.06,-214.77 629.06,-214.77"/>
</a>
</g>
</g>
<!-- Node13 -->
<g id="Node000013" class="node">
<title>Node13</title>
<g id="a_Node000013"><a xlink:href="classDsoService.html" target="_top" xlink:title="The DsoService class accesses the DSO (Digital Storage Oscilloscope) service of Pokit devices.">
<polygon fill="white" stroke="#666666" points="809,-251.83 738,-251.83 738,-232.83 809,-232.83 809,-251.83"/>
<text text-anchor="middle" x="773.5" y="-239.83" font-family="Helvetica,sans-Serif" font-size="10.00">DsoService</text>
</a>
</g>
</g>
<!-- Node6&#45;&gt;Node13 -->
<g id="edge25_Node000013_Node000006" class="edge">
<title>Node6&#45;&gt;Node13</title>
<g id="a_edge25_Node000013_Node000006"><a xlink:title=" ">
<path fill="none" stroke="#63b8ff" d="M689.99,-234.08C693.37,-234.51 696.72,-234.94 700,-235.33 712.3,-236.81 725.81,-238.19 737.8,-239.32"/>
<polygon fill="#63b8ff" stroke="#63b8ff" points="682.05,-233.02 690.46,-230.51 686.02,-233.55 689.99,-234.07 689.99,-234.07 689.99,-234.07 686.02,-233.55 689.51,-237.64 682.05,-233.02 682.05,-233.02"/>
</a>
</g>
</g>
<!-- Node14 -->
<g id="Node000014" class="node">
<title>Node14</title>
<g id="a_Node000014"><a xlink:href="classMultimeterService.html" target="_top" xlink:title="The MultimeterService class accesses the Multimeter service of Pokit devices.">
<polygon fill="white" stroke="#666666" points="827,-214.83 720,-214.83 720,-195.83 827,-195.83 827,-214.83"/>
<text text-anchor="middle" x="773.5" y="-202.83" font-family="Helvetica,sans-Serif" font-size="10.00">MultimeterService</text>
</a>
</g>
</g>
<!-- Node6&#45;&gt;Node14 -->
<g id="edge28_Node000014_Node000006" class="edge">
<title>Node6&#45;&gt;Node14</title>
<g id="a_edge28_Node000014_Node000006"><a xlink:title=" ">
<path fill="none" stroke="#63b8ff" d="M690.44,-215.83C700.25,-214.57 710.24,-213.3 719.72,-212.08"/>
<polygon fill="#63b8ff" stroke="#63b8ff" points="682.26,-216.88 689.74,-212.29 686.23,-216.37 690.2,-215.86 690.2,-215.86 690.2,-215.86 686.23,-216.37 690.66,-219.43 682.26,-216.88 682.26,-216.88"/>
</a>
</g>
</g>
<!-- Node15 -->
<g id="Node000015" class="node">
<title>Node15</title>
<g id="a_Node000015"><a xlink:href="classStatusService.html" target="_top" xlink:title="The StatusService class accesses the Pokit Status service of Pokit devices.">
<polygon fill="white" stroke="#666666" points="815,-288.83 732,-288.83 732,-269.83 815,-269.83 815,-288.83"/>
<text text-anchor="middle" x="773.5" y="-276.83" font-family="Helvetica,sans-Serif" font-size="10.00">StatusService</text>
</a>
</g>
</g>
<!-- Node6&#45;&gt;Node15 -->
<g id="edge31_Node000015_Node000006" class="edge">
<title>Node6&#45;&gt;Node15</title>
<g id="a_edge31_Node000015_Node000006"><a xlink:title=" ">
<path fill="none" stroke="#63b8ff" d="M656.47,-236.83C674.8,-243.83 698.14,-252.67 719,-260.33 727.51,-263.45 736.82,-266.79 745.24,-269.77"/>
<polygon fill="#63b8ff" stroke="#63b8ff" points="648.95,-233.95 657.71,-233.45 652.68,-235.38 656.42,-236.81 656.42,-236.81 656.42,-236.81 652.68,-235.38 655.13,-240.17 648.95,-233.95 648.95,-233.95"/>
</a>
</g>
</g>
<!-- Node7&#45;&gt;Node6 -->
<g id="edge9_Node000006_Node000007" class="edge">
<title>Node7&#45;&gt;Node6</title>
<g id="a_edge9_Node000006_Node000007"><a xlink:title=" ">
<path fill="none" stroke="#9a32cd" stroke-dasharray="5,2" d="M475.48,-225.6C504.72,-225.35 536.92,-225.07 563.67,-224.84"/>
<polygon fill="#9a32cd" stroke="#9a32cd" points="467.31,-225.68 475.28,-222.01 471.31,-225.64 475.31,-225.61 475.31,-225.61 475.31,-225.61 471.31,-225.64 475.34,-229.21 467.31,-225.68 467.31,-225.68"/>
</a>
</g>
<text text-anchor="middle" x="515.5" y="-229.33" font-family="Helvetica,sans-Serif" font-size="10.00" fill="grey"> d_ptr</text>
</g>
<!-- Node8&#45;&gt;Node7 -->
<g id="edge12_Node000007_Node000008" class="edge">
<title>Node8&#45;&gt;Node7</title>
<g id="a_edge12_Node000007_Node000008"><a xlink:title=" ">
<path fill="none" stroke="#9a32cd" stroke-dasharray="5,2" d="M220.23,-212.52C249.49,-214.9 284.39,-217.74 314.92,-220.22"/>
<polygon fill="#9a32cd" stroke="#9a32cd" points="212.13,-211.86 220.4,-208.92 216.12,-212.18 220.11,-212.51 220.11,-212.51 220.11,-212.51 216.12,-212.18 219.81,-216.09 212.13,-211.86 212.13,-211.86"/>
</a>
</g>
<text text-anchor="middle" x="266.5" y="-222.33" font-family="Helvetica,sans-Serif" font-size="10.00" fill="grey"> service</text>
</g>
<!-- Node9 -->
<g id="Node000009" class="node">
<title>Node9</title>
<g id="a_Node000009"><a target="_parent" xlink:href="https://doc.qt.io/qt-5/qbluetoothuuid.html" xlink:title=" ">
<polygon fill="white" stroke="#bfbfbf" points="202.5,-117.83 108.5,-117.83 108.5,-98.83 202.5,-98.83 202.5,-117.83"/>
<text text-anchor="middle" x="155.5" y="-105.83" font-family="Helvetica,sans-Serif" font-size="10.00">QBluetoothUuid</text>
</a>
</g>
</g>
<!-- Node9&#45;&gt;Node5 -->
<g id="edge17_Node000005_Node000009" class="edge">
<title>Node9&#45;&gt;Node5</title>
<g id="a_edge17_Node000005_Node000009"><a xlink:title=" ">
<path fill="none" stroke="#9a32cd" stroke-dasharray="5,2" d="M181.1,-94.9C196.42,-87.2 216.82,-78.14 236,-73.33 336.26,-48.22 616.4,-3.96 701,-63.33 717.62,-75 704.19,-91.43 719,-105.33 723.1,-109.17 728.02,-112.25 733.2,-114.71"/>
<polygon fill="#9a32cd" stroke="#9a32cd" points="173.58,-98.78 179.04,-91.91 177.13,-96.95 180.69,-95.11 180.69,-95.11 180.69,-95.11 177.13,-96.95 182.34,-98.31 173.58,-98.78 173.58,-98.78"/>
</a>
</g>
<text text-anchor="middle" x="515.5" y="-39.33" font-family="Helvetica,sans-Serif" font-size="10.00" fill="grey"> serviceUuid</text>
</g>
<!-- Node9&#45;&gt;Node7 -->
<g id="edge14_Node000007_Node000009" class="edge">
<title>Node9&#45;&gt;Node7</title>
<g id="a_edge14_Node000007_Node000009"><a xlink:title=" ">
<path fill="none" stroke="#9a32cd" stroke-dasharray="5,2" d="M175.26,-123.05C190.91,-134.9 214.12,-151.47 236,-163.33 278.03,-186.12 330.08,-205.77 361.63,-216.82"/>
<polygon fill="#9a32cd" stroke="#9a32cd" points="168.63,-117.97 177.17,-119.98 171.8,-120.4 174.98,-122.83 174.98,-122.83 174.98,-122.83 171.8,-120.4 172.79,-125.69 168.63,-117.97 168.63,-117.97"/>
</a>
</g>
<text text-anchor="middle" x="266.5" y="-194.33" font-family="Helvetica,sans-Serif" font-size="10.00" fill="grey"> serviceUuid</text>
</g>
<!-- Node9&#45;&gt;Node11 -->
<g id="edge20_Node000011_Node000009" class="edge">
<title>Node9&#45;&gt;Node11</title>
<g id="a_edge20_Node000011_Node000009"><a xlink:title=" ">
<path fill="none" stroke="#9a32cd" stroke-dasharray="5,2" d="M210.1,-97.37C307.88,-79.91 520.05,-53.83 682,-117.33 700.48,-124.58 701.29,-133.38 719,-142.33 726.04,-145.89 733.9,-149.07 741.39,-151.78"/>
<polygon fill="#9a32cd" stroke="#9a32cd" points="202.13,-98.82 209.36,-93.85 206.07,-98.11 210,-97.39 210,-97.39 210,-97.39 206.07,-98.11 210.65,-100.93 202.13,-98.82 202.13,-98.82"/>
</a>
</g>
<text text-anchor="middle" x="515.5" y="-87.33" font-family="Helvetica,sans-Serif" font-size="10.00" fill="grey"> serviceUuid</text>
</g>
<!-- Node9&#45;&gt;Node12 -->
<g id="edge23_Node000012_Node000009" class="edge">
<title>Node9&#45;&gt;Node12</title>
<g id="a_edge23_Node000012_Node000009"><a xlink:title=" ">
<path fill="none" stroke="#9a32cd" stroke-dasharray="5,2" d="M175.7,-93.86C191.29,-82.66 214.18,-67.41 236,-57.33 269.31,-41.94 278.95,-40.21 315,-33.33 475.23,-2.76 527.24,21.2 682,-30.33 713.54,-40.83 745.22,-64.51 761.42,-77.81"/>
<polygon fill="#9a32cd" stroke="#9a32cd" points="169.09,-98.69 173.43,-91.07 172.32,-96.33 175.55,-93.97 175.55,-93.97 175.55,-93.97 172.32,-96.33 177.67,-96.88 169.09,-98.69 169.09,-98.69"/>
</a>
</g>
<text text-anchor="middle" x="515.5" y="-5.33" font-family="Helvetica,sans-Serif" font-size="10.00" fill="grey"> serviceUuid</text>
</g>
<!-- Node9&#45;&gt;Node13 -->
<g id="edge26_Node000013_Node000009" class="edge">
<title>Node9&#45;&gt;Node13</title>
<g id="a_edge26_Node000013_Node000009"><a xlink:title=" ">
<path fill="none" stroke="#9a32cd" stroke-dasharray="5,2" d="M210.46,-117.89C340.01,-140.88 659.56,-197.95 682,-205.33 699.37,-211.04 702.14,-216.26 719,-223.33 726.91,-226.65 735.62,-229.9 743.68,-232.76"/>
<polygon fill="#9a32cd" stroke="#9a32cd" points="202.58,-116.49 211.09,-114.34 206.52,-117.19 210.46,-117.89 210.46,-117.89 210.46,-117.89 206.52,-117.19 209.83,-121.43 202.58,-116.49 202.58,-116.49"/>
</a>
</g>
<text text-anchor="middle" x="515.5" y="-182.33" font-family="Helvetica,sans-Serif" font-size="10.00" fill="grey"> serviceUuid</text>
</g>
<!-- Node9&#45;&gt;Node14 -->
<g id="edge29_Node000014_Node000009" class="edge">
<title>Node9&#45;&gt;Node14</title>
<g id="a_edge29_Node000014_Node000009"><a xlink:title=" ">
<path fill="none" stroke="#9a32cd" stroke-dasharray="5,2" d="M210.94,-107.35C308,-107.11 516.29,-113.53 682,-166.33 707.27,-174.38 735.11,-186.98 753.15,-195.67"/>
<polygon fill="#9a32cd" stroke="#9a32cd" points="202.74,-107.38 210.73,-103.75 206.74,-107.37 210.74,-107.35 210.74,-107.35 210.74,-107.35 206.74,-107.37 210.76,-110.95 202.74,-107.38 202.74,-107.38"/>
</a>
</g>
<text text-anchor="middle" x="515.5" y="-136.33" font-family="Helvetica,sans-Serif" font-size="10.00" fill="grey"> serviceUuid</text>
</g>
<!-- Node10 -->
<g id="Node000010" class="node">
<title>Node10</title>
<g id="a_Node000010"><a target="_parent" xlink:href="https://doc.qt.io/qt-5/quuid.html" xlink:title=" ">
<polygon fill="white" stroke="#bfbfbf" points="51.5,-117.83 4.5,-117.83 4.5,-98.83 51.5,-98.83 51.5,-117.83"/>
<text text-anchor="middle" x="28" y="-105.83" font-family="Helvetica,sans-Serif" font-size="10.00">QUuid</text>
</a>
</g>
</g>
<!-- Node10&#45;&gt;Node9 -->
<g id="edge15_Node000009_Node000010" class="edge">
<title>Node10&#45;&gt;Node9</title>
<g id="a_edge15_Node000009_Node000010"><a xlink:title=" ">
<path fill="none" stroke="#63b8ff" d="M59.91,-108.33C74.48,-108.33 92.17,-108.33 108.29,-108.33"/>
<polygon fill="#63b8ff" stroke="#63b8ff" points="51.73,-108.33 59.73,-104.73 55.73,-108.33 59.73,-108.33 59.73,-108.33 59.73,-108.33 55.73,-108.33 59.73,-111.93 51.73,-108.33 51.73,-108.33"/>
</a>
</g>
</g>
<!-- Node11&#45;&gt;Node3 -->
<g id="edge18_Node000003_Node000011" class="edge">
<title>Node11&#45;&gt;Node3</title>
<g id="a_edge18_Node000003_Node000011"><a xlink:title=" ">
<path fill="none" stroke="#9a32cd" stroke-dasharray="5,2" d="M836.42,-172.24C866.01,-178.56 901.52,-187.78 932,-200.33 953.81,-209.31 976.85,-224.14 990.83,-233.83"/>
<polygon fill="#9a32cd" stroke="#9a32cd" points="828.24,-170.54 836.81,-168.64 832.16,-171.35 836.08,-172.17 836.08,-172.17 836.08,-172.17 832.16,-171.35 835.34,-175.69 828.24,-170.54 828.24,-170.54"/>
</a>
</g>
<text text-anchor="middle" x="889" y="-203.33" font-family="Helvetica,sans-Serif" font-size="10.00" fill="grey"> dataLogger</text>
</g>
<!-- Node12&#45;&gt;Node3 -->
<g id="edge21_Node000003_Node000012" class="edge">
<title>Node12&#45;&gt;Node3</title>
<g id="a_edge21_Node000003_Node000012"><a xlink:title=" ">
<path fill="none" stroke="#9a32cd" stroke-dasharray="5,2" d="M834.59,-87.04C866.12,-89.62 903.92,-97.29 932,-117.33 973.83,-147.19 994.72,-209.47 1001.47,-233.54"/>
<polygon fill="#9a32cd" stroke="#9a32cd" points="826.3,-86.47 834.53,-83.43 830.29,-86.75 834.28,-87.02 834.28,-87.02 834.28,-87.02 830.29,-86.75 834.03,-90.61 826.3,-86.47 826.3,-86.47"/>
</a>
</g>
<text text-anchor="middle" x="889" y="-120.33" font-family="Helvetica,sans-Serif" font-size="10.00" fill="grey"> deviceInfo</text>
</g>
<!-- Node13&#45;&gt;Node3 -->
<g id="edge24_Node000003_Node000013" class="edge">
<title>Node13&#45;&gt;Node3</title>
<g id="a_edge24_Node000003_Node000013"><a xlink:title=" ">
<path fill="none" stroke="#9a32cd" stroke-dasharray="5,2" d="M817.56,-242.52C855.05,-242.68 909.59,-242.92 950,-243.1"/>
<polygon fill="#9a32cd" stroke="#9a32cd" points="809.36,-242.48 817.37,-238.92 813.36,-242.5 817.36,-242.52 817.36,-242.52 817.36,-242.52 813.36,-242.5 817.34,-246.12 809.36,-242.48 809.36,-242.48"/>
</a>
</g>
<text text-anchor="middle" x="889" y="-246.33" font-family="Helvetica,sans-Serif" font-size="10.00" fill="grey"> dso</text>
</g>
<!-- Node14&#45;&gt;Node3 -->
<g id="edge27_Node000003_Node000014" class="edge">
<title>Node14&#45;&gt;Node3</title>
<g id="a_edge27_Node000003_Node000014"><a xlink:title=" ">
<path fill="none" stroke="#9a32cd" stroke-dasharray="5,2" d="M835.22,-213.32C864.53,-217.41 900.16,-222.69 932,-228.33 941.18,-229.96 950.98,-231.87 960.3,-233.78"/>
<polygon fill="#9a32cd" stroke="#9a32cd" points="827.13,-212.21 835.55,-209.74 831.09,-212.75 835.05,-213.3 835.05,-213.3 835.05,-213.3 831.09,-212.75 834.56,-216.87 827.13,-212.21 827.13,-212.21"/>
</a>
</g>
<text text-anchor="middle" x="889" y="-231.33" font-family="Helvetica,sans-Serif" font-size="10.00" fill="grey"> multimeter</text>
</g>
<!-- Node15&#45;&gt;Node3 -->
<g id="edge30_Node000003_Node000015" class="edge">
<title>Node15&#45;&gt;Node3</title>
<g id="a_edge30_Node000003_Node000015"><a xlink:title=" ">
<path fill="none" stroke="#9a32cd" stroke-dasharray="5,2" d="M823.12,-272.66C854.28,-268.28 895.57,-262.28 932,-256.33 938.64,-255.25 945.62,-254.05 952.51,-252.84"/>
<polygon fill="#9a32cd" stroke="#9a32cd" points="815.02,-273.8 822.44,-269.12 818.98,-273.24 822.94,-272.69 822.94,-272.69 822.94,-272.69 818.98,-273.24 823.44,-276.25 815.02,-273.8 815.02,-273.8"/>
</a>
</g>
<text text-anchor="middle" x="889" y="-273.33" font-family="Helvetica,sans-Serif" font-size="10.00" fill="grey"> status</text>
</g>
<!-- Node16 -->
<g id="Node000016" class="node">
<title>Node16</title>
<g id="a_Node000016"><a target="_parent" xlink:href="https://doc.qt.io/qt-5/qmutex.html" xlink:title=" ">
<polygon fill="white" stroke="#bfbfbf" points="801,-27.83 746,-27.83 746,-8.83 801,-8.83 801,-27.83"/>
<text text-anchor="middle" x="773.5" y="-15.83" font-family="Helvetica,sans-Serif" font-size="10.00">QMutex</text>
</a>
</g>
</g>
<!-- Node16&#45;&gt;Node3 -->
<g id="edge32_Node000003_Node000016" class="edge">
<title>Node16&#45;&gt;Node3</title>
<g id="a_edge32_Node000003_Node000016"><a xlink:title=" ">
<path fill="none" stroke="#9a32cd" stroke-dasharray="5,2" d="M809.05,-7.82C843.61,0.43 896.59,6.65 932,-19.33 1003.79,-72.01 1005.52,-197.41 1004.46,-233.47"/>
<polygon fill="#9a32cd" stroke="#9a32cd" points="801.11,-9.83 807.99,-4.38 804.99,-8.85 808.87,-7.87 808.87,-7.87 808.87,-7.87 804.99,-8.85 809.75,-11.36 801.11,-9.83 801.11,-9.83"/>
</a>
</g>
<text text-anchor="middle" x="889" y="-77.33" font-family="Helvetica,sans-Serif" font-size="10.00" fill="grey"> calibrationMutex</text>
<text text-anchor="middle" x="889" y="-66.33" font-family="Helvetica,sans-Serif" font-size="10.00" fill="grey">dataLoggerMutex</text>
<text text-anchor="middle" x="889" y="-55.33" font-family="Helvetica,sans-Serif" font-size="10.00" fill="grey">deviceInfoMutex</text>
<text text-anchor="middle" x="889" y="-44.33" font-family="Helvetica,sans-Serif" font-size="10.00" fill="grey">dsoMutex</text>
<text text-anchor="middle" x="889" y="-33.33" font-family="Helvetica,sans-Serif" font-size="10.00" fill="grey">multimeterMutex</text>
<text text-anchor="middle" x="889" y="-22.33" font-family="Helvetica,sans-Serif" font-size="10.00" fill="grey">statusMutex</text>
</g>
</g>
</svg>
