<?xml version="1.0" encoding="UTF-8" standalone="no"?>
<!DOCTYPE svg PUBLIC "-//W3C//DTD SVG 1.1//EN"
 "http://www.w3.org/Graphics/SVG/1.1/DTD/svg11.dtd">
<!-- Generated by graphviz version 2.43.0 (0)
 -->
<!-- Title: PokitDevice::PokitDevice Pages: 1 -->
<svg width="309pt" height="38pt"
 viewBox="0.00 0.00 309.00 38.00" xmlns="http://www.w3.org/2000/svg" xmlns:xlink="http://www.w3.org/1999/xlink">
<g id="graph0" class="graph" transform="scale(1 1) rotate(0) translate(4 34)">
<title>PokitDevice::PokitDevice</title>
<!-- Node1 -->
<g id="Node000001" class="node">
<title>Node1</title>
<g id="a_Node000001"><a xlink:title="Constructs a new Pokit device controller wrapper for deviceInfo, with parent.">
<polygon fill="#999999" stroke="#666666" points="140,-24.5 0,-24.5 0,-5.5 140,-5.5 140,-24.5"/>
<text text-anchor="middle" x="70" y="-12.5" font-family="Helvetica,sans-Serif" font-size="10.00">PokitDevice::PokitDevice</text>
</a>
</g>
</g>
<!-- Node2 -->
<g id="Node000002" class="node">
<title>Node2</title>
<g id="a_Node000002"><a target="_parent" xlink:href="https://doc.qt.io/qt-5/qlowenergycontroller.html#createCentral" xlink:title=" ">
<polygon fill="white" stroke="#666666" points="301,-30 176,-30 176,0 301,0 301,-30"/>
<text text-anchor="start" x="184" y="-18" font-family="Helvetica,sans-Serif" font-size="10.00">QLowEnergyController</text>
<text text-anchor="middle" x="238.5" y="-7" font-family="Helvetica,sans-Serif" font-size="10.00">::createCentral</text>
</a>
</g>
</g>
<!-- Node1&#45;&gt;Node2 -->
<g id="edge1_Node000001_Node000002" class="edge">
<title>Node1&#45;&gt;Node2</title>
<g id="a_edge1_Node000001_Node000002"><a xlink:title=" ">
<path fill="none" stroke="#63b8ff" d="M140.16,-15C149.36,-15 158.78,-15 167.98,-15"/>
<polygon fill="#63b8ff" stroke="#63b8ff" points="175.99,-15 167.99,-18.6 171.99,-15 167.99,-15 167.99,-15 167.99,-15 171.99,-15 167.99,-11.4 175.99,-15 175.99,-15"/>
</a>
</g>
</g>
</g>
</svg>
