<?xml version="1.0" encoding="UTF-8" standalone="no"?>
<!DOCTYPE svg PUBLIC "-//W3C//DTD SVG 1.1//EN"
 "http://www.w3.org/Graphics/SVG/1.1/DTD/svg11.dtd">
<!-- Generated by graphviz version 2.43.0 (0)
 -->
<!-- Title: abstractpokitservice.cpp Pages: 1 -->
<svg width="705pt" height="192pt"
 viewBox="0.00 0.00 704.50 192.00" xmlns="http://www.w3.org/2000/svg" xmlns:xlink="http://www.w3.org/1999/xlink">
<g id="graph0" class="graph" transform="scale(1 1) rotate(0) translate(4 188)">
<title>abstractpokitservice.cpp</title>
<!-- Node1 -->
<g id="node1" class="node">
<title>Node1</title>
<g id="a_node1"><a xlink:title="Defines the AbstractPokitService and AbstractPokitServicePrivate classes.">
<polygon fill="#999999" stroke="#666666" points="469.5,-184 332.5,-184 332.5,-165 469.5,-165 469.5,-184"/>
<text text-anchor="middle" x="401" y="-172" font-family="Helvetica,sans-Serif" font-size="10.00">abstractpokitservice.cpp</text>
</a>
</g>
</g>
<!-- Node2 -->
<g id="node2" class="node">
<title>Node2</title>
<g id="a_node2"><a xlink:href="abstractpokitservice_8h.html" target="_top" xlink:title="Declares the AbstractPokitService class.">
<polygon fill="white" stroke="#666666" points="398.5,-129 235.5,-129 235.5,-110 398.5,-110 398.5,-129"/>
<text text-anchor="middle" x="317" y="-117" font-family="Helvetica,sans-Serif" font-size="10.00">qtpokit/abstractpokitservice.h</text>
</a>
</g>
</g>
<!-- Node1&#45;&gt;Node2 -->
<g id="edge1" class="edge">
<title>Node1&#45;&gt;Node2</title>
<path fill="none" stroke="#63b8ff" d="M387.5,-164.98C374.11,-156.54 353.4,-143.47 337.89,-133.68"/>
<polygon fill="#63b8ff" stroke="#63b8ff" points="330.74,-129.17 339.43,-130.39 334.12,-131.3 337.51,-133.44 337.51,-133.44 337.51,-133.44 334.12,-131.3 335.59,-136.48 330.74,-129.17 330.74,-129.17"/>
</g>
<!-- Node7 -->
<g id="node7" class="node">
<title>Node7</title>
<g id="a_node7"><a xlink:title=" ">
<polygon fill="#e0e0e0" stroke="#999999" points="553.5,-129 416.5,-129 416.5,-110 553.5,-110 553.5,-129"/>
<text text-anchor="middle" x="485" y="-117" font-family="Helvetica,sans-Serif" font-size="10.00">abstractpokitservice_p.h</text>
</a>
</g>
</g>
<!-- Node1&#45;&gt;Node7 -->
<g id="edge6" class="edge">
<title>Node1&#45;&gt;Node7</title>
<path fill="none" stroke="#63b8ff" d="M414.5,-164.98C427.89,-156.54 448.6,-143.47 464.11,-133.68"/>
<polygon fill="#63b8ff" stroke="#63b8ff" points="471.26,-129.17 466.41,-136.48 467.88,-131.3 464.49,-133.44 464.49,-133.44 464.49,-133.44 467.88,-131.3 462.57,-130.39 471.26,-129.17 471.26,-129.17"/>
</g>
<!-- Node8 -->
<g id="node8" class="node">
<title>Node8</title>
<g id="a_node8"><a xlink:href="pokitdevice_8h.html" target="_top" xlink:title="Declares the PokitDevice class.">
<polygon fill="white" stroke="#666666" points="217,-129 97,-129 97,-110 217,-110 217,-129"/>
<text text-anchor="middle" x="157" y="-117" font-family="Helvetica,sans-Serif" font-size="10.00">qtpokit/pokitdevice.h</text>
</a>
</g>
</g>
<!-- Node1&#45;&gt;Node8 -->
<g id="edge7" class="edge">
<title>Node1&#45;&gt;Node8</title>
<path fill="none" stroke="#63b8ff" d="M361.8,-164.98C318.97,-155.68 250.37,-140.78 204.51,-130.82"/>
<polygon fill="#63b8ff" stroke="#63b8ff" points="196.51,-129.08 205.09,-127.26 200.42,-129.93 204.33,-130.78 204.33,-130.78 204.33,-130.78 200.42,-129.93 203.56,-134.3 196.51,-129.08 196.51,-129.08"/>
</g>
<!-- Node10 -->
<g id="node10" class="node">
<title>Node10</title>
<g id="a_node10"><a xlink:title=" ">
<polygon fill="#e0e0e0" stroke="#999999" points="696.5,-129 571.5,-129 571.5,-110 696.5,-110 696.5,-129"/>
<text text-anchor="middle" x="634" y="-117" font-family="Helvetica,sans-Serif" font-size="10.00">QLowEnergyController</text>
</a>
</g>
</g>
<!-- Node1&#45;&gt;Node10 -->
<g id="edge11" class="edge">
<title>Node1&#45;&gt;Node10</title>
<path fill="none" stroke="#63b8ff" d="M438.44,-164.98C479.25,-155.7 544.57,-140.84 588.36,-130.88"/>
<polygon fill="#63b8ff" stroke="#63b8ff" points="596.27,-129.08 589.27,-134.37 592.37,-129.97 588.47,-130.86 588.47,-130.86 588.47,-130.86 592.37,-129.97 587.67,-127.35 596.27,-129.08 596.27,-129.08"/>
</g>
<!-- Node3 -->
<g id="node3" class="node">
<title>Node3</title>
<g id="a_node3"><a xlink:href="qtpokit__global_8h.html" target="_top" xlink:title="Global QtPokit library macros.">
<polygon fill="white" stroke="#666666" points="237.5,-74 142.5,-74 142.5,-55 237.5,-55 237.5,-74"/>
<text text-anchor="middle" x="190" y="-62" font-family="Helvetica,sans-Serif" font-size="10.00">qtpokit_global.h</text>
</a>
</g>
</g>
<!-- Node2&#45;&gt;Node3 -->
<g id="edge2" class="edge">
<title>Node2&#45;&gt;Node3</title>
<path fill="none" stroke="#63b8ff" d="M296.6,-109.98C275.43,-101.15 242.17,-87.27 218.43,-77.36"/>
<polygon fill="#63b8ff" stroke="#63b8ff" points="210.78,-74.17 219.55,-73.93 214.47,-75.71 218.16,-77.25 218.16,-77.25 218.16,-77.25 214.47,-75.71 216.77,-80.57 210.78,-74.17 210.78,-74.17"/>
</g>
<!-- Node5 -->
<g id="node5" class="node">
<title>Node5</title>
<g id="a_node5"><a xlink:title=" ">
<polygon fill="#e0e0e0" stroke="#999999" points="443.5,-74 330.5,-74 330.5,-55 443.5,-55 443.5,-74"/>
<text text-anchor="middle" x="387" y="-62" font-family="Helvetica,sans-Serif" font-size="10.00">QLowEnergyService</text>
</a>
</g>
</g>
<!-- Node2&#45;&gt;Node5 -->
<g id="edge4" class="edge">
<title>Node2&#45;&gt;Node5</title>
<path fill="none" stroke="#63b8ff" d="M328.25,-109.98C339.2,-101.69 356.04,-88.94 368.89,-79.22"/>
<polygon fill="#63b8ff" stroke="#63b8ff" points="375.55,-74.17 371.34,-81.87 372.36,-76.58 369.17,-79 369.17,-79 369.17,-79 372.36,-76.58 367,-76.13 375.55,-74.17 375.55,-74.17"/>
</g>
<!-- Node6 -->
<g id="node6" class="node">
<title>Node6</title>
<g id="a_node6"><a xlink:title=" ">
<polygon fill="#e0e0e0" stroke="#999999" points="312,-74 256,-74 256,-55 312,-55 312,-74"/>
<text text-anchor="middle" x="284" y="-62" font-family="Helvetica,sans-Serif" font-size="10.00">QObject</text>
</a>
</g>
</g>
<!-- Node2&#45;&gt;Node6 -->
<g id="edge5" class="edge">
<title>Node2&#45;&gt;Node6</title>
<path fill="none" stroke="#63b8ff" d="M311.55,-109.75C306.7,-101.95 299.48,-90.37 293.65,-81"/>
<polygon fill="#63b8ff" stroke="#63b8ff" points="289.35,-74.09 296.63,-78.98 291.46,-77.48 293.58,-80.88 293.58,-80.88 293.58,-80.88 291.46,-77.48 290.52,-82.78 289.35,-74.09 289.35,-74.09"/>
</g>
<!-- Node4 -->
<g id="node4" class="node">
<title>Node4</title>
<g id="a_node4"><a xlink:title=" ">
<polygon fill="#e0e0e0" stroke="#999999" points="219.5,-19 160.5,-19 160.5,0 219.5,0 219.5,-19"/>
<text text-anchor="middle" x="190" y="-7" font-family="Helvetica,sans-Serif" font-size="10.00">QtGlobal</text>
</a>
</g>
</g>
<!-- Node3&#45;&gt;Node4 -->
<g id="edge3" class="edge">
<title>Node3&#45;&gt;Node4</title>
<path fill="none" stroke="#63b8ff" d="M190,-54.75C190,-47.26 190,-36.28 190,-27.13"/>
<polygon fill="#63b8ff" stroke="#63b8ff" points="190,-19.09 193.6,-27.09 190,-23.09 190,-27.09 190,-27.09 190,-27.09 190,-23.09 186.4,-27.09 190,-19.09 190,-19.09"/>
</g>
<!-- Node8&#45;&gt;Node3 -->
<g id="edge8" class="edge">
<title>Node8&#45;&gt;Node3</title>
<path fill="none" stroke="#63b8ff" d="M162.45,-109.75C167.3,-101.95 174.52,-90.37 180.35,-81"/>
<polygon fill="#63b8ff" stroke="#63b8ff" points="184.65,-74.09 183.48,-82.78 182.54,-77.48 180.42,-80.88 180.42,-80.88 180.42,-80.88 182.54,-77.48 177.37,-78.98 184.65,-74.09 184.65,-74.09"/>
</g>
<!-- Node8&#45;&gt;Node6 -->
<g id="edge10" class="edge">
<title>Node8&#45;&gt;Node6</title>
<path fill="none" stroke="#63b8ff" d="M177.4,-109.98C198.57,-101.15 231.83,-87.27 255.57,-77.36"/>
<polygon fill="#63b8ff" stroke="#63b8ff" points="263.22,-74.17 257.23,-80.57 259.53,-75.71 255.84,-77.25 255.84,-77.25 255.84,-77.25 259.53,-75.71 254.45,-73.93 263.22,-74.17 263.22,-74.17"/>
</g>
<!-- Node9 -->
<g id="node9" class="node">
<title>Node9</title>
<g id="a_node9"><a xlink:title=" ">
<polygon fill="#e0e0e0" stroke="#999999" points="124,-74 0,-74 0,-55 124,-55 124,-74"/>
<text text-anchor="middle" x="62" y="-62" font-family="Helvetica,sans-Serif" font-size="10.00">QBluetoothDeviceInfo</text>
</a>
</g>
</g>
<!-- Node8&#45;&gt;Node9 -->
<g id="edge9" class="edge">
<title>Node8&#45;&gt;Node9</title>
<path fill="none" stroke="#63b8ff" d="M141.74,-109.98C126.32,-101.38 102.31,-87.99 84.67,-78.15"/>
<polygon fill="#63b8ff" stroke="#63b8ff" points="77.54,-74.17 86.28,-74.92 81.03,-76.12 84.53,-78.07 84.53,-78.07 84.53,-78.07 81.03,-76.12 82.77,-81.21 77.54,-74.17 77.54,-74.17"/>
</g>
</g>
</svg>
