<?xml version="1.0" encoding="UTF-8" standalone="no"?>
<!DOCTYPE svg PUBLIC "-//W3C//DTD SVG 1.1//EN"
 "http://www.w3.org/Graphics/SVG/1.1/DTD/svg11.dtd">
<!-- Generated by graphviz version 2.43.0 (0)
 -->
<!-- Title: StatusService::readStatusCharacteristic Pages: 1 -->
<svg width="479pt" height="64pt"
 viewBox="0.00 0.00 479.00 64.00" xmlns="http://www.w3.org/2000/svg" xmlns:xlink="http://www.w3.org/1999/xlink">
<g id="graph0" class="graph" transform="scale(1 1) rotate(0) translate(4 60)">
<title>StatusService::readStatusCharacteristic</title>
<!-- Node1 -->
<g id="Node000001" class="node">
<title>Node1</title>
<g id="a_Node000001"><a xlink:title="Read the Status service&#39;s Status characteristic.">
<polygon fill="#999999" stroke="#666666" points="142,-42.5 0,-42.5 0,-12.5 142,-12.5 142,-42.5"/>
<text text-anchor="start" x="8" y="-30.5" font-family="Helvetica,sans-Serif" font-size="10.00">StatusService::readStatus</text>
<text text-anchor="middle" x="71" y="-19.5" font-family="Helvetica,sans-Serif" font-size="10.00">Characteristic</text>
</a>
</g>
</g>
<!-- Node2 -->
<g id="Node000002" class="node">
<title>Node2</title>
<g id="a_Node000002"><a xlink:href="classStatusService.html#a095254046689e5115ba053c029a2e1b8" target="_top" xlink:title="Constructs a new Pokit service with parent.">
<polygon fill="white" stroke="#666666" points="334,-37 178,-37 178,-18 334,-18 334,-37"/>
<text text-anchor="middle" x="256" y="-25" font-family="Helvetica,sans-Serif" font-size="10.00">StatusService::StatusService</text>
</a>
</g>
</g>
<!-- Node1&#45;&gt;Node2 -->
<g id="edge1_Node000001_Node000002" class="edge">
<title>Node1&#45;&gt;Node2</title>
<g id="a_edge1_Node000001_Node000002"><a xlink:title=" ">
<path fill="none" stroke="#63b8ff" d="M142.23,-27.5C151.27,-27.5 160.61,-27.5 169.86,-27.5"/>
<polygon fill="#63b8ff" stroke="#63b8ff" points="177.96,-27.5 169.96,-31.1 173.96,-27.5 169.96,-27.5 169.96,-27.5 169.96,-27.5 173.96,-27.5 169.96,-23.9 177.96,-27.5 177.96,-27.5"/>
</a>
</g>
</g>
<!-- Node3 -->
<g id="Node000003" class="node">
<title>Node3</title>
<g id="a_Node000003"><a target="_parent" xlink:href="https://doc.qt.io/qt-5/qobject.html#parent" xlink:title=" ">
<polygon fill="white" stroke="#666666" points="467,-56 374,-56 374,-37 467,-37 467,-56"/>
<text text-anchor="middle" x="420.5" y="-44" font-family="Helvetica,sans-Serif" font-size="10.00">QObject::parent</text>
</a>
</g>
</g>
<!-- Node2&#45;&gt;Node3 -->
<g id="edge2_Node000002_Node000003" class="edge">
<title>Node2&#45;&gt;Node3</title>
<g id="a_edge2_Node000002_Node000003"><a xlink:title=" ">
<path fill="none" stroke="#63b8ff" d="M334.44,-36.55C344.92,-37.78 355.47,-39.01 365.42,-40.18"/>
<polygon fill="#63b8ff" stroke="#63b8ff" points="373.61,-41.13 365.25,-43.78 369.64,-40.67 365.67,-40.21 365.67,-40.21 365.67,-40.21 369.64,-40.67 366.08,-36.63 373.61,-41.13 373.61,-41.13"/>
</a>
</g>
</g>
<!-- Node4 -->
<g id="Node000004" class="node">
<title>Node4</title>
<g id="a_Node000004"><a target="_parent" xlink:href="https://doc.qt.io/qt-5/qobject.html#QObject" xlink:title=" ">
<polygon fill="white" stroke="#666666" points="471,-19 370,-19 370,0 471,0 471,-19"/>
<text text-anchor="middle" x="420.5" y="-7" font-family="Helvetica,sans-Serif" font-size="10.00">QObject::QObject</text>
</a>
</g>
</g>
<!-- Node2&#45;&gt;Node4 -->
<g id="edge3_Node000002_Node000004" class="edge">
<title>Node2&#45;&gt;Node4</title>
<g id="a_edge3_Node000002_Node000004"><a xlink:title=" ">
<path fill="none" stroke="#63b8ff" d="M334.44,-18.92C343.71,-17.9 353.03,-16.86 361.95,-15.88"/>
<polygon fill="#63b8ff" stroke="#63b8ff" points="370,-14.98 362.44,-19.44 366.02,-15.42 362.05,-15.86 362.05,-15.86 362.05,-15.86 366.02,-15.42 361.65,-12.29 370,-14.98 370,-14.98"/>
</a>
</g>
</g>
</g>
</svg>
