<?xml version="1.0" encoding="UTF-8" standalone="no"?>
<!DOCTYPE svg PUBLIC "-//W3C//DTD SVG 1.1//EN"
 "http://www.w3.org/Graphics/SVG/1.1/DTD/svg11.dtd">
<!-- Generated by graphviz version 2.43.0 (0)
 -->
<!-- Title: StatusService::enableTorchStatusNotifications Pages: 1 -->
<svg width="485pt" height="64pt"
 viewBox="0.00 0.00 485.00 64.00" xmlns="http://www.w3.org/2000/svg" xmlns:xlink="http://www.w3.org/1999/xlink">
<g id="graph0" class="graph" transform="scale(1 1) rotate(0) translate(4 60)">
<title>StatusService::enableTorchStatusNotifications</title>
<!-- Node1 -->
<g id="Node000001" class="node">
<title>Node1</title>
<g id="a_Node000001"><a xlink:title="Enables client&#45;side notifications of torch status changes.">
<polygon fill="#999999" stroke="#666666" points="148,-42.5 0,-42.5 0,-12.5 148,-12.5 148,-42.5"/>
<text text-anchor="start" x="8" y="-30.5" font-family="Helvetica,sans-Serif" font-size="10.00">StatusService::enableTorch</text>
<text text-anchor="middle" x="74" y="-19.5" font-family="Helvetica,sans-Serif" font-size="10.00">StatusNotifications</text>
</a>
</g>
</g>
<!-- Node2 -->
<g id="Node000002" class="node">
<title>Node2</title>
<g id="a_Node000002"><a xlink:href="classStatusService.html#a095254046689e5115ba053c029a2e1b8" target="_top" xlink:title="Constructs a new Pokit service with parent.">
<polygon fill="white" stroke="#666666" points="340,-37 184,-37 184,-18 340,-18 340,-37"/>
<text text-anchor="middle" x="262" y="-25" font-family="Helvetica,sans-Serif" font-size="10.00">StatusService::StatusService</text>
</a>
</g>
</g>
<!-- Node1&#45;&gt;Node2 -->
<g id="edge1_Node000001_Node000002" class="edge">
<title>Node1&#45;&gt;Node2</title>
<g id="a_edge1_Node000001_Node000002"><a xlink:title=" ">
<path fill="none" stroke="#63b8ff" d="M148.25,-27.5C157.29,-27.5 166.59,-27.5 175.79,-27.5"/>
<polygon fill="#63b8ff" stroke="#63b8ff" points="183.84,-27.5 175.84,-31.1 179.84,-27.5 175.84,-27.5 175.84,-27.5 175.84,-27.5 179.84,-27.5 175.84,-23.9 183.84,-27.5 183.84,-27.5"/>
</a>
</g>
</g>
<!-- Node3 -->
<g id="Node000003" class="node">
<title>Node3</title>
<g id="a_Node000003"><a target="_parent" xlink:href="https://doc.qt.io/qt-5/qobject.html#parent" xlink:title=" ">
<polygon fill="white" stroke="#666666" points="473,-56 380,-56 380,-37 473,-37 473,-56"/>
<text text-anchor="middle" x="426.5" y="-44" font-family="Helvetica,sans-Serif" font-size="10.00">QObject::parent</text>
</a>
</g>
</g>
<!-- Node2&#45;&gt;Node3 -->
<g id="edge2_Node000002_Node000003" class="edge">
<title>Node2&#45;&gt;Node3</title>
<g id="a_edge2_Node000002_Node000003"><a xlink:title=" ">
<path fill="none" stroke="#63b8ff" d="M340.44,-36.55C350.92,-37.78 361.47,-39.01 371.42,-40.18"/>
<polygon fill="#63b8ff" stroke="#63b8ff" points="379.61,-41.13 371.25,-43.78 375.64,-40.67 371.67,-40.21 371.67,-40.21 371.67,-40.21 375.64,-40.67 372.08,-36.63 379.61,-41.13 379.61,-41.13"/>
</a>
</g>
</g>
<!-- Node4 -->
<g id="Node000004" class="node">
<title>Node4</title>
<g id="a_Node000004"><a target="_parent" xlink:href="https://doc.qt.io/qt-5/qobject.html#QObject" xlink:title=" ">
<polygon fill="white" stroke="#666666" points="477,-19 376,-19 376,0 477,0 477,-19"/>
<text text-anchor="middle" x="426.5" y="-7" font-family="Helvetica,sans-Serif" font-size="10.00">QObject::QObject</text>
</a>
</g>
</g>
<!-- Node2&#45;&gt;Node4 -->
<g id="edge3_Node000002_Node000004" class="edge">
<title>Node2&#45;&gt;Node4</title>
<g id="a_edge3_Node000002_Node000004"><a xlink:title=" ">
<path fill="none" stroke="#63b8ff" d="M340.44,-18.92C349.71,-17.9 359.03,-16.86 367.95,-15.88"/>
<polygon fill="#63b8ff" stroke="#63b8ff" points="376,-14.98 368.44,-19.44 372.02,-15.42 368.05,-15.86 368.05,-15.86 368.05,-15.86 372.02,-15.42 367.65,-12.29 376,-14.98 376,-14.98"/>
</a>
</g>
</g>
</g>
</svg>
