<?xml version="1.0" encoding="UTF-8" standalone="no"?>
<!DOCTYPE svg PUBLIC "-//W3C//DTD SVG 1.1//EN"
 "http://www.w3.org/Graphics/SVG/1.1/DTD/svg11.dtd">
<!-- Generated by graphviz version 2.43.0 (0)
 -->
<!-- Title: DataLoggerService::enableMetadataNotifications Pages: 1 -->
<svg width="454pt" height="64pt"
 viewBox="0.00 0.00 454.00 64.00" xmlns="http://www.w3.org/2000/svg" xmlns:xlink="http://www.w3.org/1999/xlink">
<g id="graph0" class="graph" transform="scale(1 1) rotate(0) translate(4 60)">
<title>DataLoggerService::enableMetadataNotifications</title>
<!-- Node1 -->
<g id="Node000001" class="node">
<title>Node1</title>
<g id="a_Node000001"><a xlink:title="Enables client&#45;side notifications of Data Logger metadata changes.">
<polygon fill="#999999" stroke="#666666" points="158,-42.5 0,-42.5 0,-12.5 158,-12.5 158,-42.5"/>
<text text-anchor="start" x="8" y="-30.5" font-family="Helvetica,sans-Serif" font-size="10.00">DataLoggerService::</text>
<text text-anchor="middle" x="79" y="-19.5" font-family="Helvetica,sans-Serif" font-size="10.00">enableMetadataNotifications</text>
</a>
</g>
</g>
<!-- Node2 -->
<g id="Node000002" class="node">
<title>Node2</title>
<g id="a_Node000002"><a xlink:href="classDataLoggerService.html#a1c2155abba340d49fc39bfa49ed59a6c" target="_top" xlink:title="Constructs a new Pokit service with parent.">
<polygon fill="white" stroke="#666666" points="309,-42.5 194,-42.5 194,-12.5 309,-12.5 309,-42.5"/>
<text text-anchor="start" x="202" y="-30.5" font-family="Helvetica,sans-Serif" font-size="10.00">DataLoggerService::</text>
<text text-anchor="middle" x="251.5" y="-19.5" font-family="Helvetica,sans-Serif" font-size="10.00">DataLoggerService</text>
</a>
</g>
</g>
<!-- Node1&#45;&gt;Node2 -->
<g id="edge1_Node000001_Node000002" class="edge">
<title>Node1&#45;&gt;Node2</title>
<g id="a_edge1_Node000001_Node000002"><a xlink:title=" ">
<path fill="none" stroke="#63b8ff" d="M158.26,-27.5C167.38,-27.5 176.6,-27.5 185.51,-27.5"/>
<polygon fill="#63b8ff" stroke="#63b8ff" points="193.59,-27.5 185.59,-31.1 189.59,-27.5 185.59,-27.5 185.59,-27.5 185.59,-27.5 189.59,-27.5 185.59,-23.9 193.59,-27.5 193.59,-27.5"/>
</a>
</g>
</g>
<!-- Node3 -->
<g id="Node000003" class="node">
<title>Node3</title>
<g id="a_Node000003"><a target="_parent" xlink:href="https://doc.qt.io/qt-5/qobject.html#parent" xlink:title=" ">
<polygon fill="white" stroke="#666666" points="442,-56 349,-56 349,-37 442,-37 442,-56"/>
<text text-anchor="middle" x="395.5" y="-44" font-family="Helvetica,sans-Serif" font-size="10.00">QObject::parent</text>
</a>
</g>
</g>
<!-- Node2&#45;&gt;Node3 -->
<g id="edge2_Node000002_Node000003" class="edge">
<title>Node2&#45;&gt;Node3</title>
<g id="a_edge2_Node000002_Node000003"><a xlink:title=" ">
<path fill="none" stroke="#63b8ff" d="M309.03,-35.06C319.4,-36.45 330.21,-37.9 340.51,-39.28"/>
<polygon fill="#63b8ff" stroke="#63b8ff" points="348.64,-40.36 340.23,-42.87 344.68,-39.83 340.71,-39.3 340.71,-39.3 340.71,-39.3 344.68,-39.83 341.19,-35.73 348.64,-40.36 348.64,-40.36"/>
</a>
</g>
</g>
<!-- Node4 -->
<g id="Node000004" class="node">
<title>Node4</title>
<g id="a_Node000004"><a target="_parent" xlink:href="https://doc.qt.io/qt-5/qobject.html#QObject" xlink:title=" ">
<polygon fill="white" stroke="#666666" points="446,-19 345,-19 345,0 446,0 446,-19"/>
<text text-anchor="middle" x="395.5" y="-7" font-family="Helvetica,sans-Serif" font-size="10.00">QObject::QObject</text>
</a>
</g>
</g>
<!-- Node2&#45;&gt;Node4 -->
<g id="edge3_Node000002_Node000004" class="edge">
<title>Node2&#45;&gt;Node4</title>
<g id="a_edge3_Node000002_Node000004"><a xlink:title=" ">
<path fill="none" stroke="#63b8ff" d="M309.03,-20.33C318.03,-19.19 327.36,-18.01 336.39,-16.87"/>
<polygon fill="#63b8ff" stroke="#63b8ff" points="344.59,-15.83 337.11,-20.4 340.62,-16.33 336.66,-16.83 336.66,-16.83 336.66,-16.83 340.62,-16.33 336.2,-13.26 344.59,-15.83 344.59,-15.83"/>
</a>
</g>
</g>
</g>
</svg>
