<?xml version="1.0" encoding="UTF-8" standalone="no"?>
<!DOCTYPE svg PUBLIC "-//W3C//DTD SVG 1.1//EN"
 "http://www.w3.org/Graphics/SVG/1.1/DTD/svg11.dtd">
<!-- Generated by graphviz version 2.43.0 (0)
 -->
<!-- Title: PokitDevice::charcteristicToString Pages: 1 -->
<svg width="351pt" height="113pt"
 viewBox="0.00 0.00 351.00 112.50" xmlns="http://www.w3.org/2000/svg" xmlns:xlink="http://www.w3.org/1999/xlink">
<g id="graph0" class="graph" transform="scale(1 1) rotate(0) translate(4 108.5)">
<title>PokitDevice::charcteristicToString</title>
<!-- Node1 -->
<g id="Node000001" class="node">
<title>Node1</title>
<g id="a_Node000001"><a xlink:title="Returns a human&#45;readable name for the uuid characteristic, or a null QString if unknown.">
<polygon fill="#999999" stroke="#666666" points="141,-61.5 0,-61.5 0,-31.5 141,-31.5 141,-61.5"/>
<text text-anchor="start" x="8" y="-49.5" font-family="Helvetica,sans-Serif" font-size="10.00">PokitDevice::charcteristic</text>
<text text-anchor="middle" x="70.5" y="-38.5" font-family="Helvetica,sans-Serif" font-size="10.00">ToString</text>
</a>
</g>
</g>
<!-- Node2 -->
<g id="Node000002" class="node">
<title>Node2</title>
<g id="a_Node000002"><a target="_parent" xlink:href="https://doc.qt.io/qt-5/qbluetoothuuid.html#characteristicToString" xlink:title=" ">
<polygon fill="white" stroke="#666666" points="343,-104.5 177,-104.5 177,-74.5 343,-74.5 343,-104.5"/>
<text text-anchor="start" x="185" y="-92.5" font-family="Helvetica,sans-Serif" font-size="10.00">QBluetoothUuid::characteristic</text>
<text text-anchor="middle" x="260" y="-81.5" font-family="Helvetica,sans-Serif" font-size="10.00">ToString</text>
</a>
</g>
</g>
<!-- Node1&#45;&gt;Node2 -->
<g id="edge1_Node000001_Node000002" class="edge">
<title>Node1&#45;&gt;Node2</title>
<g id="a_edge1_Node000001_Node000002"><a xlink:title=" ">
<path fill="none" stroke="#63b8ff" d="M137.08,-61.54C152.64,-65.11 169.33,-68.94 185.23,-72.58"/>
<polygon fill="#63b8ff" stroke="#63b8ff" points="193.46,-74.47 184.86,-76.19 189.56,-73.58 185.66,-72.68 185.66,-72.68 185.66,-72.68 189.56,-73.58 186.47,-69.17 193.46,-74.47 193.46,-74.47"/>
</a>
</g>
</g>
<!-- Node3 -->
<g id="Node000003" class="node">
<title>Node3</title>
<g id="a_Node000003"><a target="_parent" xlink:href="https://doc.qt.io/qt-5/qobject.html#tr" xlink:title=" ">
<polygon fill="white" stroke="#666666" points="294.5,-56 225.5,-56 225.5,-37 294.5,-37 294.5,-56"/>
<text text-anchor="middle" x="260" y="-44" font-family="Helvetica,sans-Serif" font-size="10.00">QObject::tr</text>
</a>
</g>
</g>
<!-- Node1&#45;&gt;Node3 -->
<g id="edge2_Node000001_Node000003" class="edge">
<title>Node1&#45;&gt;Node3</title>
<g id="a_edge2_Node000001_Node000003"><a xlink:title=" ">
<path fill="none" stroke="#63b8ff" d="M141.05,-46.5C166.56,-46.5 194.63,-46.5 216.99,-46.5"/>
<polygon fill="#63b8ff" stroke="#63b8ff" points="225.26,-46.5 217.26,-50.1 221.26,-46.5 217.26,-46.5 217.26,-46.5 217.26,-46.5 221.26,-46.5 217.26,-42.9 225.26,-46.5 225.26,-46.5"/>
</a>
</g>
</g>
<!-- Node4 -->
<g id="Node000004" class="node">
<title>Node4</title>
<g id="a_Node000004"><a target="_parent" xlink:href="https://doc.qt.io/qt-5/qhash.html#value" xlink:title=" ">
<polygon fill="white" stroke="#666666" points="301,-19 219,-19 219,0 301,0 301,-19"/>
<text text-anchor="middle" x="260" y="-7" font-family="Helvetica,sans-Serif" font-size="10.00">QHash::value</text>
</a>
</g>
</g>
<!-- Node1&#45;&gt;Node4 -->
<g id="edge3_Node000001_Node000004" class="edge">
<title>Node1&#45;&gt;Node4</title>
<g id="a_edge3_Node000001_Node000004"><a xlink:title=" ">
<path fill="none" stroke="#63b8ff" d="M141.05,-32.78C164.34,-28.18 189.77,-23.16 211.03,-18.97"/>
<polygon fill="#63b8ff" stroke="#63b8ff" points="218.96,-17.4 211.81,-22.48 215.04,-18.18 211.11,-18.95 211.11,-18.95 211.11,-18.95 215.04,-18.18 210.42,-15.42 218.96,-17.4 218.96,-17.4"/>
</a>
</g>
</g>
</g>
</svg>
