<?xml version="1.0" encoding="UTF-8" standalone="no"?>
<!DOCTYPE svg PUBLIC "-//W3C//DTD SVG 1.1//EN"
 "http://www.w3.org/Graphics/SVG/1.1/DTD/svg11.dtd">
<!-- Generated by graphviz version 2.43.0 (0)
 -->
<!-- Title: abstractpokitservice_p.h Pages: 1 -->
<svg width="472pt" height="137pt"
 viewBox="0.00 0.00 471.50 137.00" xmlns="http://www.w3.org/2000/svg" xmlns:xlink="http://www.w3.org/1999/xlink">
<g id="graph0" class="graph" transform="scale(1 1) rotate(0) translate(4 133)">
<title>abstractpokitservice_p.h</title>
<!-- Node1 -->
<g id="node1" class="node">
<title>Node1</title>
<g id="a_node1"><a xlink:title="Declares the AbstractPokitServicePrivate class.">
<polygon fill="#999999" stroke="#666666" points="337,-129 200,-129 200,-110 337,-110 337,-129"/>
<text text-anchor="middle" x="268.5" y="-117" font-family="Helvetica,sans-Serif" font-size="10.00">abstractpokitservice_p.h</text>
</a>
</g>
</g>
<!-- Node2 -->
<g id="node2" class="node">
<title>Node2</title>
<g id="a_node2"><a xlink:href="qtpokit__global_8h.html" target="_top" xlink:title="Global QtPokit library macros.">
<polygon fill="white" stroke="#666666" points="133,-74 0,-74 0,-55 133,-55 133,-74"/>
<text text-anchor="middle" x="66.5" y="-62" font-family="Helvetica,sans-Serif" font-size="10.00">qtpokit/qtpokit_global.h</text>
</a>
</g>
</g>
<!-- Node1&#45;&gt;Node2 -->
<g id="edge1" class="edge">
<title>Node1&#45;&gt;Node2</title>
<path fill="none" stroke="#63b8ff" d="M236.05,-109.98C200.96,-100.78 144.97,-86.09 107.02,-76.13"/>
<polygon fill="#63b8ff" stroke="#63b8ff" points="99.21,-74.08 107.86,-72.63 103.08,-75.1 106.95,-76.11 106.95,-76.11 106.95,-76.11 103.08,-75.1 106.03,-79.59 99.21,-74.08 99.21,-74.08"/>
</g>
<!-- Node4 -->
<g id="node4" class="node">
<title>Node4</title>
<g id="a_node4"><a xlink:title=" ">
<polygon fill="#e0e0e0" stroke="#999999" points="258,-74 151,-74 151,-55 258,-55 258,-74"/>
<text text-anchor="middle" x="204.5" y="-62" font-family="Helvetica,sans-Serif" font-size="10.00">QLoggingCategory</text>
</a>
</g>
</g>
<!-- Node1&#45;&gt;Node4 -->
<g id="edge3" class="edge">
<title>Node1&#45;&gt;Node4</title>
<path fill="none" stroke="#63b8ff" d="M258.22,-109.98C248.29,-101.77 233.09,-89.18 221.39,-79.49"/>
<polygon fill="#63b8ff" stroke="#63b8ff" points="214.97,-74.17 223.43,-76.5 218.05,-76.72 221.13,-79.27 221.13,-79.27 221.13,-79.27 218.05,-76.72 218.84,-82.05 214.97,-74.17 214.97,-74.17"/>
</g>
<!-- Node5 -->
<g id="node5" class="node">
<title>Node5</title>
<g id="a_node5"><a xlink:title=" ">
<polygon fill="#e0e0e0" stroke="#999999" points="389,-74 276,-74 276,-55 389,-55 389,-74"/>
<text text-anchor="middle" x="332.5" y="-62" font-family="Helvetica,sans-Serif" font-size="10.00">QLowEnergyService</text>
</a>
</g>
</g>
<!-- Node1&#45;&gt;Node5 -->
<g id="edge4" class="edge">
<title>Node1&#45;&gt;Node5</title>
<path fill="none" stroke="#63b8ff" d="M278.78,-109.98C288.71,-101.77 303.91,-89.18 315.61,-79.49"/>
<polygon fill="#63b8ff" stroke="#63b8ff" points="322.03,-74.17 318.16,-82.05 318.95,-76.72 315.87,-79.27 315.87,-79.27 315.87,-79.27 318.95,-76.72 313.57,-76.5 322.03,-74.17 322.03,-74.17"/>
</g>
<!-- Node6 -->
<g id="node6" class="node">
<title>Node6</title>
<g id="a_node6"><a xlink:title=" ">
<polygon fill="#e0e0e0" stroke="#999999" points="463.5,-74 407.5,-74 407.5,-55 463.5,-55 463.5,-74"/>
<text text-anchor="middle" x="435.5" y="-62" font-family="Helvetica,sans-Serif" font-size="10.00">QObject</text>
</a>
</g>
</g>
<!-- Node1&#45;&gt;Node6 -->
<g id="edge5" class="edge">
<title>Node1&#45;&gt;Node6</title>
<path fill="none" stroke="#63b8ff" d="M295.33,-109.98C323.98,-100.89 369.47,-86.46 400.81,-76.51"/>
<polygon fill="#63b8ff" stroke="#63b8ff" points="408.46,-74.08 401.92,-79.93 404.65,-75.29 400.83,-76.5 400.83,-76.5 400.83,-76.5 404.65,-75.29 399.74,-73.07 408.46,-74.08 408.46,-74.08"/>
</g>
<!-- Node3 -->
<g id="node3" class="node">
<title>Node3</title>
<g id="a_node3"><a xlink:title=" ">
<polygon fill="#e0e0e0" stroke="#999999" points="96,-19 37,-19 37,0 96,0 96,-19"/>
<text text-anchor="middle" x="66.5" y="-7" font-family="Helvetica,sans-Serif" font-size="10.00">QtGlobal</text>
</a>
</g>
</g>
<!-- Node2&#45;&gt;Node3 -->
<g id="edge2" class="edge">
<title>Node2&#45;&gt;Node3</title>
<path fill="none" stroke="#63b8ff" d="M66.5,-54.75C66.5,-47.26 66.5,-36.28 66.5,-27.13"/>
<polygon fill="#63b8ff" stroke="#63b8ff" points="66.5,-19.09 70.1,-27.09 66.5,-23.09 66.5,-27.09 66.5,-27.09 66.5,-27.09 66.5,-23.09 62.9,-27.09 66.5,-19.09 66.5,-19.09"/>
</g>
</g>
</svg>
