<?xml version="1.0" encoding="UTF-8" standalone="no"?>
<!DOCTYPE svg PUBLIC "-//W3C//DTD SVG 1.1//EN"
 "http://www.w3.org/Graphics/SVG/1.1/DTD/svg11.dtd">
<!-- Generated by graphviz version 2.43.0 (0)
 -->
<!-- Title: SetNameCommand::processOptions Pages: 1 -->
<svg width="823pt" height="628pt"
 viewBox="0.00 0.00 823.00 627.54" xmlns="http://www.w3.org/2000/svg" xmlns:xlink="http://www.w3.org/1999/xlink">
<g id="graph0" class="graph" transform="scale(1 1) rotate(0) translate(4 623.54)">
<title>SetNameCommand::processOptions</title>
<!-- Node1 -->
<g id="node1" class="node">
<title>Node1</title>
<g id="a_node1"><a xlink:title="Processes the relevant options from the command line parser.">
<polygon fill="#999999" stroke="#666666" points="193,-304.5 0,-304.5 0,-285.5 193,-285.5 193,-304.5"/>
<text text-anchor="middle" x="96.5" y="-292.5" font-family="Helvetica,sans-Serif" font-size="10.00">SetNameCommand::processOptions</text>
</a>
</g>
</g>
<!-- Node2 -->
<g id="node2" class="node">
<title>Node2</title>
<g id="a_node2"><a target="_parent" xlink:href="https://doc.qt.io/qt-5/qlist.html#append" xlink:title=" ">
<polygon fill="white" stroke="#666666" points="562,-543.5 479,-543.5 479,-524.5 562,-524.5 562,-543.5"/>
<text text-anchor="middle" x="520.5" y="-531.5" font-family="Helvetica,sans-Serif" font-size="10.00">QList::append</text>
</a>
</g>
</g>
<!-- Node1&#45;&gt;Node2 -->
<g id="edge1" class="edge">
<title>Node1&#45;&gt;Node2</title>
<path fill="none" stroke="#63b8ff" d="M107.78,-304.63C145.48,-339.36 280.98,-459.02 416,-515 433.12,-522.1 452.93,-526.56 470.61,-529.35"/>
<polygon fill="#63b8ff" stroke="#63b8ff" points="478.56,-530.52 470.12,-532.92 474.6,-529.94 470.64,-529.35 470.64,-529.35 470.64,-529.35 474.6,-529.94 471.17,-525.79 478.56,-530.52 478.56,-530.52"/>
</g>
<!-- Node3 -->
<g id="node3" class="node">
<title>Node3</title>
<g id="a_node3"><a target="_parent" xlink:href="https://doc.qt.io/qt-5/qlist.html#isEmpty" xlink:title=" ">
<polygon fill="white" stroke="#666666" points="348,-185.5 261,-185.5 261,-166.5 348,-166.5 348,-185.5"/>
<text text-anchor="middle" x="304.5" y="-173.5" font-family="Helvetica,sans-Serif" font-size="10.00">QList::isEmpty</text>
</a>
</g>
</g>
<!-- Node1&#45;&gt;Node3 -->
<g id="edge2" class="edge">
<title>Node1&#45;&gt;Node3</title>
<path fill="none" stroke="#63b8ff" d="M108.33,-285.32C129.87,-266.51 180.25,-224.68 229,-200 238.18,-195.35 248.46,-191.35 258.37,-188.02"/>
<polygon fill="#63b8ff" stroke="#63b8ff" points="266.21,-185.5 259.7,-191.38 262.4,-186.73 258.6,-187.95 258.6,-187.95 258.6,-187.95 262.4,-186.73 257.49,-184.52 266.21,-185.5 266.21,-185.5"/>
</g>
<!-- Node4 -->
<g id="node4" class="node">
<title>Node4</title>
<g id="a_node4"><a target="_parent" xlink:href="https://doc.qt.io/qt-5/qstring.html#isEmpty" xlink:title=" ">
<polygon fill="white" stroke="#666666" points="787,-619.5 689,-619.5 689,-600.5 787,-600.5 787,-619.5"/>
<text text-anchor="middle" x="738" y="-607.5" font-family="Helvetica,sans-Serif" font-size="10.00">QString::isEmpty</text>
</a>
</g>
</g>
<!-- Node1&#45;&gt;Node4 -->
<g id="edge3" class="edge">
<title>Node1&#45;&gt;Node4</title>
<path fill="none" stroke="#63b8ff" d="M100.4,-304.77C111.2,-339.47 152.47,-458.02 229,-519 362.72,-625.55 579.37,-623.81 681,-616.03"/>
<polygon fill="#63b8ff" stroke="#63b8ff" points="689,-615.38 681.31,-619.61 685.01,-615.7 681.02,-616.02 681.02,-616.02 681.02,-616.02 685.01,-615.7 680.74,-612.44 689,-615.38 689,-615.38"/>
</g>
<!-- Node5 -->
<g id="node5" class="node">
<title>Node5</title>
<g id="a_node5"><a target="_parent" xlink:href="https://doc.qt.io/qt-5/qstring.html#length" xlink:title=" ">
<polygon fill="white" stroke="#666666" points="782.5,-582.5 693.5,-582.5 693.5,-563.5 782.5,-563.5 782.5,-582.5"/>
<text text-anchor="middle" x="738" y="-570.5" font-family="Helvetica,sans-Serif" font-size="10.00">QString::length</text>
</a>
</g>
</g>
<!-- Node1&#45;&gt;Node5 -->
<g id="edge4" class="edge">
<title>Node1&#45;&gt;Node5</title>
<path fill="none" stroke="#63b8ff" d="M102.74,-304.89C118.36,-333.54 167.35,-417.7 229,-467 300.44,-524.13 327.29,-530.67 416,-553 508.63,-576.32 620.8,-577.4 685.04,-575.56"/>
<polygon fill="#63b8ff" stroke="#63b8ff" points="693.39,-575.29 685.51,-579.14 689.39,-575.42 685.4,-575.55 685.4,-575.55 685.4,-575.55 689.39,-575.42 685.28,-571.95 693.39,-575.29 693.39,-575.29"/>
</g>
<!-- Node6 -->
<g id="node6" class="node">
<title>Node6</title>
<g id="a_node6"><a xlink:href="classAbstractCommand.html#ad827a18a24776efeb955739459d48f7d" target="_top" xlink:title="Processes the relevant options from the command line parser.">
<polygon fill="white" stroke="#666666" points="380,-310 229,-310 229,-280 380,-280 380,-310"/>
<text text-anchor="start" x="237" y="-298" font-family="Helvetica,sans-Serif" font-size="10.00">AbstractCommand::process</text>
<text text-anchor="middle" x="304.5" y="-287" font-family="Helvetica,sans-Serif" font-size="10.00">Options</text>
</a>
</g>
</g>
<!-- Node1&#45;&gt;Node6 -->
<g id="edge5" class="edge">
<title>Node1&#45;&gt;Node6</title>
<path fill="none" stroke="#63b8ff" d="M193.26,-295C202.43,-295 211.68,-295 220.71,-295"/>
<polygon fill="#63b8ff" stroke="#63b8ff" points="228.94,-295 220.94,-298.6 224.94,-295 220.94,-295 220.94,-295 220.94,-295 224.94,-295 220.94,-291.4 228.94,-295 228.94,-295"/>
</g>
<!-- Node22 -->
<g id="node22" class="node">
<title>Node22</title>
<g id="a_node22"><a target="_parent" xlink:href="https://doc.qt.io/qt-5/qobject.html#tr" xlink:title=" ">
<polygon fill="white" stroke="#666666" points="555,-67.5 486,-67.5 486,-48.5 555,-48.5 555,-67.5"/>
<text text-anchor="middle" x="520.5" y="-55.5" font-family="Helvetica,sans-Serif" font-size="10.00">QObject::tr</text>
</a>
</g>
</g>
<!-- Node1&#45;&gt;Node22 -->
<g id="edge27" class="edge">
<title>Node1&#45;&gt;Node22</title>
<path fill="none" stroke="#63b8ff" d="M150.92,-285.45C228.21,-271.16 363.8,-244.19 380,-228 428.81,-179.24 365.95,-124.49 416,-77 432.26,-61.57 456.72,-56.57 477.77,-55.54"/>
<polygon fill="#63b8ff" stroke="#63b8ff" points="485.95,-55.33 478.04,-59.13 481.95,-55.43 477.95,-55.53 477.95,-55.53 477.95,-55.53 481.95,-55.43 477.86,-51.94 485.95,-55.33 485.95,-55.33"/>
</g>
<!-- Node23 -->
<g id="node23" class="node">
<title>Node23</title>
<g id="a_node23"><a target="_parent" xlink:href="https://doc.qt.io/qt-5/qcommandlineparser.html#value" xlink:title=" ">
<polygon fill="white" stroke="#666666" points="583,-30 458,-30 458,0 583,0 583,-30"/>
<text text-anchor="start" x="466" y="-18" font-family="Helvetica,sans-Serif" font-size="10.00">QCommandLineParser</text>
<text text-anchor="middle" x="520.5" y="-7" font-family="Helvetica,sans-Serif" font-size="10.00">::value</text>
</a>
</g>
</g>
<!-- Node1&#45;&gt;Node23 -->
<g id="edge28" class="edge">
<title>Node1&#45;&gt;Node23</title>
<path fill="none" stroke="#63b8ff" d="M113.1,-285.37C137.15,-270.94 185.09,-243.69 229,-228 293.69,-204.88 331.14,-243.29 380,-195 430.61,-144.98 365.71,-89.34 416,-39 425.23,-29.76 437.27,-23.8 449.86,-20"/>
<polygon fill="#63b8ff" stroke="#63b8ff" points="457.76,-17.91 450.94,-23.44 453.89,-18.93 450.02,-19.96 450.02,-19.96 450.02,-19.96 453.89,-18.93 449.1,-16.48 457.76,-17.91 457.76,-17.91"/>
</g>
<!-- Node6&#45;&gt;Node2 -->
<g id="edge6" class="edge">
<title>Node6&#45;&gt;Node2</title>
<path fill="none" stroke="#63b8ff" d="M316.53,-310.01C332.2,-331.83 361.09,-373.97 380,-413 400.96,-456.26 379.43,-483.79 416,-515 431.02,-527.82 451.8,-533.2 470.8,-535.14"/>
<polygon fill="#63b8ff" stroke="#63b8ff" points="478.81,-535.77 470.56,-538.73 474.83,-535.46 470.84,-535.14 470.84,-535.14 470.84,-535.14 474.83,-535.46 471.12,-531.55 478.81,-535.77 478.81,-535.77"/>
</g>
<!-- Node7 -->
<g id="node7" class="node">
<title>Node7</title>
<g id="a_node7"><a target="_parent" xlink:href="https://doc.qt.io/qt-5/qstring.html#arg-1" xlink:title=" ">
<polygon fill="white" stroke="#666666" points="557.5,-286.5 483.5,-286.5 483.5,-267.5 557.5,-267.5 557.5,-286.5"/>
<text text-anchor="middle" x="520.5" y="-274.5" font-family="Helvetica,sans-Serif" font-size="10.00">QString::arg</text>
</a>
</g>
</g>
<!-- Node6&#45;&gt;Node7 -->
<g id="edge7" class="edge">
<title>Node6&#45;&gt;Node7</title>
<path fill="none" stroke="#63b8ff" d="M380.05,-288.73C411.75,-286.06 447.65,-283.04 475.08,-280.74"/>
<polygon fill="#63b8ff" stroke="#63b8ff" points="483.31,-280.04 475.64,-284.3 479.33,-280.38 475.34,-280.71 475.34,-280.71 475.34,-280.71 479.33,-280.38 475.04,-277.13 483.31,-280.04 483.31,-280.04"/>
</g>
<!-- Node8 -->
<g id="node8" class="node">
<title>Node8</title>
<g id="a_node8"><a target="_parent" xlink:href="https://doc.qt.io/qt-5/qstringlist.html#contains" xlink:title=" ">
<polygon fill="white" stroke="#666666" points="579,-249.5 462,-249.5 462,-230.5 579,-230.5 579,-249.5"/>
<text text-anchor="middle" x="520.5" y="-237.5" font-family="Helvetica,sans-Serif" font-size="10.00">QStringList::contains</text>
</a>
</g>
</g>
<!-- Node6&#45;&gt;Node8 -->
<g id="edge8" class="edge">
<title>Node6&#45;&gt;Node8</title>
<path fill="none" stroke="#63b8ff" d="M347.09,-279.99C367.64,-272.96 392.92,-264.85 416,-259 428.13,-255.93 441.18,-253.14 453.79,-250.7"/>
<polygon fill="#63b8ff" stroke="#63b8ff" points="461.99,-249.15 454.8,-254.17 458.06,-249.89 454.13,-250.63 454.13,-250.63 454.13,-250.63 458.06,-249.89 453.46,-247.1 461.99,-249.15 461.99,-249.15"/>
</g>
<!-- Node9 -->
<g id="node9" class="node">
<title>Node9</title>
<g id="a_node9"><a target="_parent" xlink:href="https://doc.qt.io/qt-5/qcommandlineparser.html#isSet" xlink:title=" ">
<polygon fill="white" stroke="#666666" points="583,-212 458,-212 458,-182 583,-182 583,-212"/>
<text text-anchor="start" x="466" y="-200" font-family="Helvetica,sans-Serif" font-size="10.00">QCommandLineParser</text>
<text text-anchor="middle" x="520.5" y="-189" font-family="Helvetica,sans-Serif" font-size="10.00">::isSet</text>
</a>
</g>
</g>
<!-- Node6&#45;&gt;Node9 -->
<g id="edge9" class="edge">
<title>Node6&#45;&gt;Node9</title>
<path fill="none" stroke="#63b8ff" d="M355.06,-279.86C363.79,-276.06 372.48,-271.46 380,-266 400.44,-251.15 394.61,-235.44 416,-222 426.27,-215.55 438.08,-210.76 449.96,-207.21"/>
<polygon fill="#63b8ff" stroke="#63b8ff" points="457.76,-205.04 451.01,-210.65 453.91,-206.11 450.05,-207.18 450.05,-207.18 450.05,-207.18 453.91,-206.11 449.09,-203.71 457.76,-205.04 457.76,-205.04"/>
</g>
<!-- Node10 -->
<g id="node10" class="node">
<title>Node10</title>
<g id="a_node10"><a target="_parent" xlink:href="https://doc.qt.io/qt-5/qbluetoothdevicediscoveryagent.html#lowEnergyDiscoveryTimeout" xlink:title=" ">
<polygon fill="white" stroke="#666666" points="616,-164 425,-164 425,-134 616,-134 616,-164"/>
<text text-anchor="start" x="433" y="-152" font-family="Helvetica,sans-Serif" font-size="10.00">QBluetoothDeviceDiscovery</text>
<text text-anchor="middle" x="520.5" y="-141" font-family="Helvetica,sans-Serif" font-size="10.00">Agent::lowEnergyDiscoveryTimeout</text>
</a>
</g>
</g>
<!-- Node6&#45;&gt;Node10 -->
<g id="edge10" class="edge">
<title>Node6&#45;&gt;Node10</title>
<path fill="none" stroke="#63b8ff" d="M360.43,-279.82C367.62,-276.14 374.41,-271.6 380,-266 411.31,-234.63 382.52,-202.05 416,-173 417.83,-171.41 419.74,-169.93 421.73,-168.53"/>
<polygon fill="#63b8ff" stroke="#63b8ff" points="428.73,-164.15 423.86,-171.45 425.34,-166.27 421.95,-168.39 421.95,-168.39 421.95,-168.39 425.34,-166.27 420.04,-165.34 428.73,-164.15 428.73,-164.15"/>
</g>
<!-- Node11 -->
<g id="node11" class="node">
<title>Node11</title>
<g id="a_node11"><a target="_parent" xlink:href="https://doc.qt.io/qt-5/qcommandlineparser.html#optionNames" xlink:title=" ">
<polygon fill="white" stroke="#666666" points="583,-116 458,-116 458,-86 583,-86 583,-116"/>
<text text-anchor="start" x="466" y="-104" font-family="Helvetica,sans-Serif" font-size="10.00">QCommandLineParser</text>
<text text-anchor="middle" x="520.5" y="-93" font-family="Helvetica,sans-Serif" font-size="10.00">::optionNames</text>
</a>
</g>
</g>
<!-- Node6&#45;&gt;Node11 -->
<g id="edge11" class="edge">
<title>Node6&#45;&gt;Node11</title>
<path fill="none" stroke="#63b8ff" d="M362.17,-279.81C368.84,-276.15 375.03,-271.61 380,-266 422.88,-217.58 369.76,-170.22 416,-125 425.34,-115.87 437.43,-109.95 450.03,-106.17"/>
<polygon fill="#63b8ff" stroke="#63b8ff" points="457.93,-104.08 451.11,-109.61 454.06,-105.1 450.19,-106.13 450.19,-106.13 450.19,-106.13 454.06,-105.1 449.27,-102.65 457.93,-104.08 457.93,-104.08"/>
</g>
<!-- Node12 -->
<g id="node12" class="node">
<title>Node12</title>
<g id="a_node12"><a xlink:href="classAbstractCommand.html#ab18bb57fe68534739f63c994330a29c2" target="_top" xlink:title="Returns value as a number of millis, such as milliseconds, or millivolts.">
<polygon fill="white" stroke="#666666" points="601,-506 440,-506 440,-476 601,-476 601,-506"/>
<text text-anchor="start" x="448" y="-494" font-family="Helvetica,sans-Serif" font-size="10.00">AbstractCommand::parseMilli</text>
<text text-anchor="middle" x="520.5" y="-483" font-family="Helvetica,sans-Serif" font-size="10.00">Value</text>
</a>
</g>
</g>
<!-- Node6&#45;&gt;Node12 -->
<g id="edge12" class="edge">
<title>Node6&#45;&gt;Node12</title>
<path fill="none" stroke="#63b8ff" d="M315.11,-310.29C341.3,-351.92 412.22,-464.34 416,-467 421.09,-470.59 426.64,-473.64 432.43,-476.25"/>
<polygon fill="#63b8ff" stroke="#63b8ff" points="439.89,-479.31 431.12,-479.6 436.19,-477.79 432.49,-476.27 432.49,-476.27 432.49,-476.27 436.19,-477.79 433.86,-472.94 439.89,-479.31 439.89,-479.31"/>
</g>
<!-- Node18 -->
<g id="node18" class="node">
<title>Node18</title>
<g id="a_node18"><a xlink:href="classAbstractCommand.html#afd6f41cfc925751415cfa45e3b2d0b4a" target="_top" xlink:title="Returns a list of CLI option names required by this command.">
<polygon fill="white" stroke="#666666" points="815,-360 661,-360 661,-330 815,-330 815,-360"/>
<text text-anchor="start" x="669" y="-348" font-family="Helvetica,sans-Serif" font-size="10.00">AbstractCommand::required</text>
<text text-anchor="middle" x="738" y="-337" font-family="Helvetica,sans-Serif" font-size="10.00">Options</text>
</a>
</g>
</g>
<!-- Node6&#45;&gt;Node18 -->
<g id="edge20" class="edge">
<title>Node6&#45;&gt;Node18</title>
<path fill="none" stroke="#63b8ff" d="M318.63,-310.17C337.64,-330.86 375.07,-366.95 416,-381 503.86,-411.16 533.23,-395.39 625,-381 628.24,-380.49 656.42,-371.43 683.69,-362.53"/>
<polygon fill="#63b8ff" stroke="#63b8ff" points="691.34,-360.03 684.86,-365.94 687.54,-361.27 683.74,-362.52 683.74,-362.52 683.74,-362.52 687.54,-361.27 682.62,-359.1 691.34,-360.03 691.34,-360.03"/>
</g>
<!-- Node19 -->
<g id="node19" class="node">
<title>Node19</title>
<g id="a_node19"><a target="_parent" xlink:href="https://doc.qt.io/qt-5/qbluetoothdevicediscoveryagent.html#setLowEnergyDiscoveryTimeout" xlink:title=" ">
<polygon fill="white" stroke="#666666" points="625,-372 416,-372 416,-342 625,-342 625,-372"/>
<text text-anchor="start" x="424" y="-360" font-family="Helvetica,sans-Serif" font-size="10.00">QBluetoothDeviceDiscovery</text>
<text text-anchor="middle" x="520.5" y="-349" font-family="Helvetica,sans-Serif" font-size="10.00">Agent::setLowEnergyDiscoveryTimeout</text>
</a>
</g>
</g>
<!-- Node6&#45;&gt;Node19 -->
<g id="edge21" class="edge">
<title>Node6&#45;&gt;Node19</title>
<path fill="none" stroke="#63b8ff" d="M346.11,-310.09C366.86,-317.51 392.6,-326.28 416,-333 424.5,-335.44 433.45,-337.81 442.38,-340.05"/>
<polygon fill="#63b8ff" stroke="#63b8ff" points="450.21,-341.98 441.58,-343.56 446.33,-341.02 442.44,-340.06 442.44,-340.06 442.44,-340.06 446.33,-341.02 443.3,-336.57 450.21,-341.98 450.21,-341.98"/>
</g>
<!-- Node20 -->
<g id="node20" class="node">
<title>Node20</title>
<g id="a_node20"><a xlink:href="classAbstractCommand.html#a1ceca3c5b4cb24277dd4d4054f45db18" target="_top" xlink:title="Returns a list of CLI option names supported by this command.">
<polygon fill="white" stroke="#666666" points="601.5,-458 439.5,-458 439.5,-428 601.5,-428 601.5,-458"/>
<text text-anchor="start" x="447.5" y="-446" font-family="Helvetica,sans-Serif" font-size="10.00">AbstractCommand::supported</text>
<text text-anchor="middle" x="520.5" y="-435" font-family="Helvetica,sans-Serif" font-size="10.00">Options</text>
</a>
</g>
</g>
<!-- Node6&#45;&gt;Node20 -->
<g id="edge22" class="edge">
<title>Node6&#45;&gt;Node20</title>
<path fill="none" stroke="#63b8ff" d="M315.45,-310.29C332.78,-335.7 370.99,-386.54 416,-414 422.93,-418.23 430.49,-421.86 438.27,-424.97"/>
<polygon fill="#63b8ff" stroke="#63b8ff" points="446.11,-427.91 437.36,-428.47 442.37,-426.5 438.62,-425.1 438.62,-425.1 438.62,-425.1 442.37,-426.5 439.89,-421.73 446.11,-427.91 446.11,-427.91"/>
</g>
<!-- Node21 -->
<g id="node21" class="node">
<title>Node21</title>
<g id="a_node21"><a target="_parent" xlink:href="https://doc.qt.io/qt-5/qstring.html#toLower" xlink:title=" ">
<polygon fill="white" stroke="#666666" points="569.5,-323.5 471.5,-323.5 471.5,-304.5 569.5,-304.5 569.5,-323.5"/>
<text text-anchor="middle" x="520.5" y="-311.5" font-family="Helvetica,sans-Serif" font-size="10.00">QString::toLower</text>
</a>
</g>
</g>
<!-- Node6&#45;&gt;Node21 -->
<g id="edge24" class="edge">
<title>Node6&#45;&gt;Node21</title>
<path fill="none" stroke="#63b8ff" d="M380.05,-301.62C407.37,-304.04 437.8,-306.75 463.26,-309.01"/>
<polygon fill="#63b8ff" stroke="#63b8ff" points="471.33,-309.72 463.05,-312.6 467.35,-309.37 463.37,-309.02 463.37,-309.02 463.37,-309.02 467.35,-309.37 463.68,-305.43 471.33,-309.72 471.33,-309.72"/>
</g>
<!-- Node6&#45;&gt;Node22 -->
<g id="edge25" class="edge">
<title>Node6&#45;&gt;Node22</title>
<path fill="none" stroke="#63b8ff" d="M362.87,-279.88C369.35,-276.21 375.3,-271.66 380,-266 434.69,-200.26 355.33,-137.26 416,-77 431.9,-61.2 456.34,-56.18 477.48,-55.24"/>
<polygon fill="#63b8ff" stroke="#63b8ff" points="485.69,-55.06 477.77,-58.83 481.69,-55.15 477.7,-55.24 477.7,-55.24 477.7,-55.24 481.69,-55.15 477.62,-51.64 485.69,-55.06 485.69,-55.06"/>
</g>
<!-- Node6&#45;&gt;Node23 -->
<g id="edge26" class="edge">
<title>Node6&#45;&gt;Node23</title>
<path fill="none" stroke="#63b8ff" d="M329.45,-279.78C346.28,-267.78 367.87,-249.52 380,-228 421.99,-153.51 356.75,-100.65 416,-39 425.1,-29.53 437.15,-23.47 449.8,-19.66"/>
<polygon fill="#63b8ff" stroke="#63b8ff" points="457.74,-17.56 450.92,-23.09 453.87,-18.58 450,-19.61 450,-19.61 450,-19.61 453.87,-18.58 449.08,-16.12 457.74,-17.56 457.74,-17.56"/>
</g>
<!-- Node12&#45;&gt;Node4 -->
<g id="edge15" class="edge">
<title>Node12&#45;&gt;Node4</title>
<path fill="none" stroke="#63b8ff" d="M601.03,-502.29C609.68,-505.75 617.9,-510.23 625,-516 654,-539.58 631.95,-568.48 661,-592 666.88,-596.76 673.81,-600.3 681.05,-602.93"/>
<polygon fill="#63b8ff" stroke="#63b8ff" points="689,-605.43 680.29,-606.46 685.18,-604.23 681.37,-603.03 681.37,-603.03 681.37,-603.03 685.18,-604.23 682.45,-599.59 689,-605.43 689,-605.43"/>
</g>
<!-- Node12&#45;&gt;Node5 -->
<g id="edge16" class="edge">
<title>Node12&#45;&gt;Node5</title>
<path fill="none" stroke="#63b8ff" d="M601.11,-505.08C609.45,-508.05 617.59,-511.65 625,-516 645.34,-527.95 640.63,-543.1 661,-555 668.53,-559.4 677.07,-562.73 685.64,-565.24"/>
<polygon fill="#63b8ff" stroke="#63b8ff" points="693.49,-567.33 684.84,-568.75 689.63,-566.3 685.76,-565.27 685.76,-565.27 685.76,-565.27 689.63,-566.3 686.69,-561.79 693.49,-567.33 693.49,-567.33"/>
</g>
<!-- Node13 -->
<g id="node13" class="node">
<title>Node13</title>
<g id="a_node13"><a target="_parent" xlink:href="https://doc.qt.io/qt-5/qstring.html#chop" xlink:title=" ">
<polygon fill="white" stroke="#666666" points="779,-397.5 697,-397.5 697,-378.5 779,-378.5 779,-397.5"/>
<text text-anchor="middle" x="738" y="-385.5" font-family="Helvetica,sans-Serif" font-size="10.00">QString::chop</text>
</a>
</g>
</g>
<!-- Node12&#45;&gt;Node13 -->
<g id="edge13" class="edge">
<title>Node12&#45;&gt;Node13</title>
<path fill="none" stroke="#63b8ff" d="M601.01,-479.63C609.56,-476.4 617.77,-472.26 625,-467 650.14,-448.7 636.01,-425.51 661,-407 669.19,-400.93 679.1,-396.79 689.02,-393.96"/>
<polygon fill="#63b8ff" stroke="#63b8ff" points="696.95,-391.97 690.07,-397.41 693.07,-392.94 689.19,-393.92 689.19,-393.92 689.19,-393.92 693.07,-392.94 688.31,-390.43 696.95,-391.97 696.95,-391.97"/>
</g>
<!-- Node14 -->
<g id="node14" class="node">
<title>Node14</title>
<g id="a_node14"><a target="_parent" xlink:href="https://doc.qt.io/qt-5/qstring.html#endsWith" xlink:title=" ">
<polygon fill="white" stroke="#666666" points="790,-545.5 686,-545.5 686,-526.5 790,-526.5 790,-545.5"/>
<text text-anchor="middle" x="738" y="-533.5" font-family="Helvetica,sans-Serif" font-size="10.00">QString::endsWith</text>
</a>
</g>
</g>
<!-- Node12&#45;&gt;Node14 -->
<g id="edge14" class="edge">
<title>Node12&#45;&gt;Node14</title>
<path fill="none" stroke="#63b8ff" d="M593.56,-506.05C622.96,-512.19 656.36,-519.16 683.52,-524.83"/>
<polygon fill="#63b8ff" stroke="#63b8ff" points="691.38,-526.47 682.81,-528.36 687.46,-525.66 683.55,-524.84 683.55,-524.84 683.55,-524.84 687.46,-525.66 684.28,-521.31 691.38,-526.47 691.38,-526.47"/>
</g>
<!-- Node15 -->
<g id="node15" class="node">
<title>Node15</title>
<g id="a_node15"><a target="_parent" xlink:href="https://doc.qt.io/qt-5/qlocale.html#toDouble" xlink:title=" ">
<polygon fill="white" stroke="#666666" points="791,-508.5 685,-508.5 685,-489.5 791,-489.5 791,-508.5"/>
<text text-anchor="middle" x="738" y="-496.5" font-family="Helvetica,sans-Serif" font-size="10.00">QLocale::toDouble</text>
</a>
</g>
</g>
<!-- Node12&#45;&gt;Node15 -->
<g id="edge17" class="edge">
<title>Node12&#45;&gt;Node15</title>
<path fill="none" stroke="#63b8ff" d="M601.13,-493.96C626.12,-494.88 653.28,-495.89 676.7,-496.76"/>
<polygon fill="#63b8ff" stroke="#63b8ff" points="684.82,-497.06 676.69,-500.36 680.82,-496.91 676.83,-496.77 676.83,-496.77 676.83,-496.77 680.82,-496.91 676.96,-493.17 684.82,-497.06 684.82,-497.06"/>
</g>
<!-- Node16 -->
<g id="node16" class="node">
<title>Node16</title>
<g id="a_node16"><a target="_parent" xlink:href="https://doc.qt.io/qt-5/qlocale.html#toUInt" xlink:title=" ">
<polygon fill="white" stroke="#666666" points="784,-471.5 692,-471.5 692,-452.5 784,-452.5 784,-471.5"/>
<text text-anchor="middle" x="738" y="-459.5" font-family="Helvetica,sans-Serif" font-size="10.00">QLocale::toUInt</text>
</a>
</g>
</g>
<!-- Node12&#45;&gt;Node16 -->
<g id="edge18" class="edge">
<title>Node12&#45;&gt;Node16</title>
<path fill="none" stroke="#63b8ff" d="M601.13,-480.28C628.6,-476.59 658.69,-472.54 683.56,-469.19"/>
<polygon fill="#63b8ff" stroke="#63b8ff" points="691.78,-468.09 684.33,-472.72 687.81,-468.62 683.85,-469.15 683.85,-469.15 683.85,-469.15 687.81,-468.62 683.37,-465.58 691.78,-468.09 691.78,-468.09"/>
</g>
<!-- Node17 -->
<g id="node17" class="node">
<title>Node17</title>
<g id="a_node17"><a target="_parent" xlink:href="https://doc.qt.io/qt-5/qstring.html#trimmed" xlink:title=" ">
<polygon fill="white" stroke="#666666" points="788.5,-434.5 687.5,-434.5 687.5,-415.5 788.5,-415.5 788.5,-434.5"/>
<text text-anchor="middle" x="738" y="-422.5" font-family="Helvetica,sans-Serif" font-size="10.00">QString::trimmed</text>
</a>
</g>
</g>
<!-- Node12&#45;&gt;Node17 -->
<g id="edge19" class="edge">
<title>Node12&#45;&gt;Node17</title>
<path fill="none" stroke="#63b8ff" d="M599.56,-475.93C608.28,-473.36 616.92,-470.4 625,-467 642.5,-459.64 643.56,-451.51 661,-444 667.28,-441.29 674.03,-438.92 680.82,-436.84"/>
<polygon fill="#63b8ff" stroke="#63b8ff" points="688.79,-434.55 682.1,-440.22 684.94,-435.66 681.1,-436.76 681.1,-436.76 681.1,-436.76 684.94,-435.66 680.1,-433.31 688.79,-434.55 688.79,-434.55"/>
</g>
<!-- Node20&#45;&gt;Node18 -->
<g id="edge23" class="edge">
<title>Node20&#45;&gt;Node18</title>
<path fill="none" stroke="#63b8ff" d="M596.56,-427.93C606.56,-424.24 616.33,-419.67 625,-414 646.15,-400.17 640.17,-384.3 661,-370 664.42,-367.65 668.08,-365.51 671.87,-363.57"/>
<polygon fill="#63b8ff" stroke="#63b8ff" points="679.29,-360.05 673.6,-366.73 675.68,-361.76 672.06,-363.47 672.06,-363.47 672.06,-363.47 675.68,-361.76 670.52,-360.22 679.29,-360.05 679.29,-360.05"/>
</g>
</g>
</svg>
