<?xml version="1.0" encoding="UTF-8" standalone="no"?>
<!DOCTYPE svg PUBLIC "-//W3C//DTD SVG 1.1//EN"
 "http://www.w3.org/Graphics/SVG/1.1/DTD/svg11.dtd">
<!-- Generated by graphviz version 2.43.0 (0)
 -->
<!-- Title: StatusService::deviceCharacteristics Pages: 1 -->
<svg width="918pt" height="212pt"
 viewBox="0.00 0.00 918.00 212.00" xmlns="http://www.w3.org/2000/svg" xmlns:xlink="http://www.w3.org/1999/xlink">
<g id="graph0" class="graph" transform="scale(1 1) rotate(0) translate(4 208)">
<title>StatusService::deviceCharacteristics</title>
<!-- Node1 -->
<g id="node1" class="node">
<title>Node1</title>
<g id="a_node1"><a xlink:title="Returns the most recent value of the Status service&#39;s Device Characteristics characteristic.">
<polygon fill="#999999" stroke="#666666" points="194,-111 0,-111 0,-92 194,-92 194,-111"/>
<text text-anchor="middle" x="97" y="-99" font-family="Helvetica,sans-Serif" font-size="10.00">StatusService::deviceCharacteristics</text>
</a>
</g>
</g>
<!-- Node2 -->
<g id="node2" class="node">
<title>Node2</title>
<g id="a_node2"><a target="_parent" xlink:href="https://doc.qt.io/qt-5/qlowenergycharacteristic.html#isValid" xlink:title=" ">
<polygon fill="white" stroke="#666666" points="380.5,-164.5 235.5,-164.5 235.5,-134.5 380.5,-134.5 380.5,-164.5"/>
<text text-anchor="start" x="243.5" y="-152.5" font-family="Helvetica,sans-Serif" font-size="10.00">QLowEnergyCharacteristic</text>
<text text-anchor="middle" x="308" y="-141.5" font-family="Helvetica,sans-Serif" font-size="10.00">::isValid</text>
</a>
</g>
</g>
<!-- Node1&#45;&gt;Node2 -->
<g id="edge1" class="edge">
<title>Node1&#45;&gt;Node2</title>
<path fill="none" stroke="#63b8ff" d="M139.54,-111.04C166.43,-117.22 202.18,-125.43 233.75,-132.68"/>
<polygon fill="#63b8ff" stroke="#63b8ff" points="241.67,-134.5 233.07,-136.21 237.77,-133.6 233.88,-132.71 233.88,-132.71 233.88,-132.71 237.77,-133.6 234.68,-129.2 241.67,-134.5 241.67,-134.5"/>
</g>
<!-- Node3 -->
<g id="node3" class="node">
<title>Node3</title>
<g id="a_node3"><a xlink:href="classStatusServicePrivate.html#a7bdbc14dbfe0a29bb0333c01890a6ced" target="_top" xlink:title="Parses the Device Characteristics value into a DeviceCharacteristics struct.">
<polygon fill="white" stroke="#666666" points="386,-116.5 230,-116.5 230,-86.5 386,-86.5 386,-116.5"/>
<text text-anchor="start" x="238" y="-104.5" font-family="Helvetica,sans-Serif" font-size="10.00">StatusServicePrivate</text>
<text text-anchor="middle" x="308" y="-93.5" font-family="Helvetica,sans-Serif" font-size="10.00">::parseDeviceCharacteristics</text>
</a>
</g>
</g>
<!-- Node1&#45;&gt;Node3 -->
<g id="edge2" class="edge">
<title>Node1&#45;&gt;Node3</title>
<path fill="none" stroke="#63b8ff" d="M194.24,-101.5C203.35,-101.5 212.54,-101.5 221.53,-101.5"/>
<polygon fill="#63b8ff" stroke="#63b8ff" points="229.73,-101.5 221.73,-105.1 225.73,-101.5 221.73,-101.5 221.73,-101.5 221.73,-101.5 225.73,-101.5 221.73,-97.9 229.73,-101.5 229.73,-101.5"/>
</g>
<!-- Node14 -->
<g id="node14" class="node">
<title>Node14</title>
<g id="a_node14"><a target="_parent" xlink:href="https://doc.qt.io/qt-5/qlowenergycharacteristic.html#value" xlink:title=" ">
<polygon fill="white" stroke="#666666" points="380.5,-68.5 235.5,-68.5 235.5,-38.5 380.5,-38.5 380.5,-68.5"/>
<text text-anchor="start" x="243.5" y="-56.5" font-family="Helvetica,sans-Serif" font-size="10.00">QLowEnergyCharacteristic</text>
<text text-anchor="middle" x="308" y="-45.5" font-family="Helvetica,sans-Serif" font-size="10.00">::value</text>
</a>
</g>
</g>
<!-- Node1&#45;&gt;Node14 -->
<g id="edge17" class="edge">
<title>Node1&#45;&gt;Node14</title>
<path fill="none" stroke="#63b8ff" d="M139.54,-91.96C166.43,-85.78 202.18,-77.57 233.75,-70.32"/>
<polygon fill="#63b8ff" stroke="#63b8ff" points="241.67,-68.5 234.68,-73.8 237.77,-69.4 233.88,-70.29 233.88,-70.29 233.88,-70.29 237.77,-69.4 233.07,-66.79 241.67,-68.5 241.67,-68.5"/>
</g>
<!-- Node4 -->
<g id="node4" class="node">
<title>Node4</title>
<g id="a_node4"><a xlink:href="classAbstractPokitServicePrivate.html#af8b480a950244540bfff7fc4b476a0ef" target="_top" xlink:title="Returns false if data is smaller than minSize, otherwise returns failOnMax if data is bigger than max...">
<polygon fill="white" stroke="#666666" points="574,-116.5 422,-116.5 422,-86.5 574,-86.5 574,-116.5"/>
<text text-anchor="start" x="430" y="-104.5" font-family="Helvetica,sans-Serif" font-size="10.00">AbstractPokitServicePrivate</text>
<text text-anchor="middle" x="498" y="-93.5" font-family="Helvetica,sans-Serif" font-size="10.00">::checkSize</text>
</a>
</g>
</g>
<!-- Node3&#45;&gt;Node4 -->
<g id="edge3" class="edge">
<title>Node3&#45;&gt;Node4</title>
<path fill="none" stroke="#63b8ff" d="M386.01,-101.5C395.19,-101.5 404.59,-101.5 413.84,-101.5"/>
<polygon fill="#63b8ff" stroke="#63b8ff" points="421.93,-101.5 413.93,-105.1 417.93,-101.5 413.93,-101.5 413.93,-101.5 413.93,-101.5 417.93,-101.5 413.93,-97.9 421.93,-101.5 421.93,-101.5"/>
</g>
<!-- Node6 -->
<g id="node6" class="node">
<title>Node6</title>
<g id="a_node6"><a target="_parent" xlink:href="https://doc.qt.io/qt-5/qbytearray.html#mid" xlink:title=" ">
<polygon fill="white" stroke="#666666" points="734.5,-192 637.5,-192 637.5,-173 734.5,-173 734.5,-192"/>
<text text-anchor="middle" x="686" y="-180" font-family="Helvetica,sans-Serif" font-size="10.00">QByteArray::mid</text>
</a>
</g>
</g>
<!-- Node3&#45;&gt;Node6 -->
<g id="edge15" class="edge">
<title>Node3&#45;&gt;Node6</title>
<path fill="none" stroke="#63b8ff" d="M378.84,-116.55C452.36,-132.38 566.43,-156.96 632.6,-171.21"/>
<polygon fill="#63b8ff" stroke="#63b8ff" points="640.82,-172.98 632.25,-174.82 636.91,-172.14 633,-171.3 633,-171.3 633,-171.3 636.91,-172.14 633.76,-167.78 640.82,-172.98 640.82,-172.98"/>
</g>
<!-- Node13 -->
<g id="node13" class="node">
<title>Node13</title>
<g id="a_node13"><a target="_parent" xlink:href="https://doc.qt.io/qt-5/qobject.html#tr" xlink:title=" ">
<polygon fill="white" stroke="#666666" points="720.5,-30 651.5,-30 651.5,-11 720.5,-11 720.5,-30"/>
<text text-anchor="middle" x="686" y="-18" font-family="Helvetica,sans-Serif" font-size="10.00">QObject::tr</text>
</a>
</g>
</g>
<!-- Node3&#45;&gt;Node13 -->
<g id="edge16" class="edge">
<title>Node3&#45;&gt;Node13</title>
<path fill="none" stroke="#63b8ff" d="M378.84,-86.45C456.44,-69.74 579.2,-43.29 643.15,-29.52"/>
<polygon fill="#63b8ff" stroke="#63b8ff" points="651.02,-27.82 643.96,-33.02 647.11,-28.66 643.2,-29.5 643.2,-29.5 643.2,-29.5 647.11,-28.66 642.44,-25.99 651.02,-27.82 651.02,-27.82"/>
</g>
<!-- Node5 -->
<g id="node5" class="node">
<title>Node5</title>
<g id="a_node5"><a target="_parent" xlink:href="https://doc.qt.io/qt-5/qstring.html#arg-1" xlink:title=" ">
<polygon fill="white" stroke="#666666" points="891,-19 817,-19 817,0 891,0 891,-19"/>
<text text-anchor="middle" x="854" y="-7" font-family="Helvetica,sans-Serif" font-size="10.00">QString::arg</text>
</a>
</g>
</g>
<!-- Node4&#45;&gt;Node5 -->
<g id="edge4" class="edge">
<title>Node4&#45;&gt;Node5</title>
<path fill="none" stroke="#63b8ff" d="M567.74,-86.49C621.02,-74.5 696.53,-56.75 762,-38.5 772.41,-35.6 795.81,-28.13 816.28,-21.5"/>
<polygon fill="#63b8ff" stroke="#63b8ff" points="823.94,-19.02 817.44,-24.91 820.14,-20.25 816.33,-21.49 816.33,-21.49 816.33,-21.49 820.14,-20.25 815.22,-18.06 823.94,-19.02 823.94,-19.02"/>
</g>
<!-- Node4&#45;&gt;Node6 -->
<g id="edge5" class="edge">
<title>Node4&#45;&gt;Node6</title>
<path fill="none" stroke="#63b8ff" d="M525.33,-116.59C547.46,-128.88 580.17,-146.17 610,-158.5 620.57,-162.87 632.25,-166.95 643.18,-170.46"/>
<polygon fill="#63b8ff" stroke="#63b8ff" points="650.97,-172.91 642.26,-173.95 647.16,-171.71 643.34,-170.51 643.34,-170.51 643.34,-170.51 647.16,-171.71 644.42,-167.08 650.97,-172.91 650.97,-172.91"/>
</g>
<!-- Node7 -->
<g id="node7" class="node">
<title>Node7</title>
<g id="a_node7"><a target="_parent" xlink:href="https://doc.qt.io/qt-5/qbytearray.html#size" xlink:title=" ">
<polygon fill="white" stroke="#666666" points="903,-204 805,-204 805,-185 903,-185 903,-204"/>
<text text-anchor="middle" x="854" y="-192" font-family="Helvetica,sans-Serif" font-size="10.00">QByteArray::size</text>
</a>
</g>
</g>
<!-- Node4&#45;&gt;Node7 -->
<g id="edge6" class="edge">
<title>Node4&#45;&gt;Node7</title>
<path fill="none" stroke="#63b8ff" d="M568.92,-116.52C622.17,-128.37 697.11,-145.95 762,-164.5 778.22,-169.14 781.99,-171.21 798,-176.5 803.71,-178.38 809.75,-180.37 815.66,-182.31"/>
<polygon fill="#63b8ff" stroke="#63b8ff" points="823.59,-184.91 814.87,-185.84 819.79,-183.66 815.99,-182.42 815.99,-182.42 815.99,-182.42 819.79,-183.66 817.11,-179 823.59,-184.91 823.59,-184.91"/>
</g>
<!-- Node8 -->
<g id="node8" class="node">
<title>Node8</title>
<g id="a_node8"><a xlink:href="classAbstractPokitServicePrivate.html#af748600fc201fe47f29b58e8e93179d8" target="_top" xlink:title="Returns up to maxSize bytes of data as a human readable hexadecimal string.">
<polygon fill="white" stroke="#666666" points="762,-116.5 610,-116.5 610,-86.5 762,-86.5 762,-116.5"/>
<text text-anchor="start" x="618" y="-104.5" font-family="Helvetica,sans-Serif" font-size="10.00">AbstractPokitServicePrivate</text>
<text text-anchor="middle" x="686" y="-93.5" font-family="Helvetica,sans-Serif" font-size="10.00">::toHexString</text>
</a>
</g>
</g>
<!-- Node4&#45;&gt;Node8 -->
<g id="edge7" class="edge">
<title>Node4&#45;&gt;Node8</title>
<path fill="none" stroke="#63b8ff" d="M574.12,-101.5C583.24,-101.5 592.6,-101.5 601.84,-101.5"/>
<polygon fill="#63b8ff" stroke="#63b8ff" points="609.9,-101.5 601.9,-105.1 605.9,-101.5 601.9,-101.5 601.9,-101.5 601.9,-101.5 605.9,-101.5 601.9,-97.9 609.9,-101.5 609.9,-101.5"/>
</g>
<!-- Node4&#45;&gt;Node13 -->
<g id="edge14" class="edge">
<title>Node4&#45;&gt;Node13</title>
<path fill="none" stroke="#63b8ff" d="M525.33,-86.41C547.46,-74.12 580.17,-56.83 610,-44.5 620.67,-40.09 632.47,-35.97 643.49,-32.44"/>
<polygon fill="#63b8ff" stroke="#63b8ff" points="651.35,-29.97 644.79,-35.8 647.53,-31.17 643.71,-32.37 643.71,-32.37 643.71,-32.37 647.53,-31.17 642.64,-28.93 651.35,-29.97 651.35,-29.97"/>
</g>
<!-- Node8&#45;&gt;Node5 -->
<g id="edge8" class="edge">
<title>Node8&#45;&gt;Node5</title>
<path fill="none" stroke="#63b8ff" d="M736.94,-86.46C745.72,-82.65 754.46,-78.03 762,-72.5 782.66,-57.36 776.95,-42.09 798,-27.5 801.56,-25.03 805.48,-22.88 809.54,-21.02"/>
<polygon fill="#63b8ff" stroke="#63b8ff" points="816.95,-17.96 810.93,-24.34 813.26,-19.49 809.56,-21.01 809.56,-21.01 809.56,-21.01 813.26,-19.49 808.18,-17.69 816.95,-17.96 816.95,-17.96"/>
</g>
<!-- Node8&#45;&gt;Node7 -->
<g id="edge12" class="edge">
<title>Node8&#45;&gt;Node7</title>
<path fill="none" stroke="#63b8ff" d="M737.38,-116.64C746.03,-120.43 754.6,-125.01 762,-130.5 782.86,-145.96 776.74,-161.6 798,-176.5 800.73,-178.41 803.68,-180.13 806.74,-181.68"/>
<polygon fill="#63b8ff" stroke="#63b8ff" points="814.04,-184.97 805.27,-184.97 810.39,-183.33 806.75,-181.68 806.75,-181.68 806.75,-181.68 810.39,-183.33 808.23,-178.4 814.04,-184.97 814.04,-184.97"/>
</g>
<!-- Node9 -->
<g id="node9" class="node">
<title>Node9</title>
<g id="a_node9"><a target="_parent" xlink:href="https://doc.qt.io/qt-5/qstring.html#fromLatin1" xlink:title=" ">
<polygon fill="white" stroke="#666666" points="910,-93 798,-93 798,-74 910,-74 910,-93"/>
<text text-anchor="middle" x="854" y="-81" font-family="Helvetica,sans-Serif" font-size="10.00">QString::fromLatin1</text>
</a>
</g>
</g>
<!-- Node8&#45;&gt;Node9 -->
<g id="edge9" class="edge">
<title>Node8&#45;&gt;Node9</title>
<path fill="none" stroke="#63b8ff" d="M762.23,-93.34C771.42,-92.35 780.75,-91.33 789.74,-90.36"/>
<polygon fill="#63b8ff" stroke="#63b8ff" points="797.9,-89.47 790.33,-93.92 793.92,-89.91 789.94,-90.34 789.94,-90.34 789.94,-90.34 793.92,-89.91 789.56,-86.76 797.9,-89.47 797.9,-89.47"/>
</g>
<!-- Node10 -->
<g id="node10" class="node">
<title>Node10</title>
<g id="a_node10"><a target="_parent" xlink:href="https://doc.qt.io/qt-5/qbytearray.html#left" xlink:title=" ">
<polygon fill="white" stroke="#666666" points="901,-56 807,-56 807,-37 901,-37 901,-56"/>
<text text-anchor="middle" x="854" y="-44" font-family="Helvetica,sans-Serif" font-size="10.00">QByteArray::left</text>
</a>
</g>
</g>
<!-- Node8&#45;&gt;Node10 -->
<g id="edge10" class="edge">
<title>Node8&#45;&gt;Node10</title>
<path fill="none" stroke="#63b8ff" d="M732.08,-86.41C752.24,-79.68 776.3,-71.67 798,-64.5 803.71,-62.62 809.75,-60.63 815.66,-58.69"/>
<polygon fill="#63b8ff" stroke="#63b8ff" points="823.59,-56.09 817.11,-62 819.79,-57.34 815.99,-58.58 815.99,-58.58 815.99,-58.58 819.79,-57.34 814.87,-55.16 823.59,-56.09 823.59,-56.09"/>
</g>
<!-- Node11 -->
<g id="node11" class="node">
<title>Node11</title>
<g id="a_node11"><a target="_parent" xlink:href="https://doc.qt.io/qt-5/qbytearray.html#right" xlink:title=" ">
<polygon fill="white" stroke="#666666" points="904.5,-167 803.5,-167 803.5,-148 904.5,-148 904.5,-167"/>
<text text-anchor="middle" x="854" y="-155" font-family="Helvetica,sans-Serif" font-size="10.00">QByteArray::right</text>
</a>
</g>
</g>
<!-- Node8&#45;&gt;Node11 -->
<g id="edge11" class="edge">
<title>Node8&#45;&gt;Node11</title>
<path fill="none" stroke="#63b8ff" d="M730.44,-116.53C750.92,-123.57 775.69,-132.03 798,-139.5 803.7,-141.41 809.74,-143.41 815.64,-145.35"/>
<polygon fill="#63b8ff" stroke="#63b8ff" points="823.58,-147.95 814.85,-148.88 819.78,-146.7 815.97,-145.46 815.97,-145.46 815.97,-145.46 819.78,-146.7 817.1,-142.04 823.58,-147.95 823.58,-147.95"/>
</g>
<!-- Node12 -->
<g id="node12" class="node">
<title>Node12</title>
<g id="a_node12"><a target="_parent" xlink:href="https://doc.qt.io/qt-5/qbytearray.html#toHex" xlink:title=" ">
<polygon fill="white" stroke="#666666" points="907.5,-130 800.5,-130 800.5,-111 907.5,-111 907.5,-130"/>
<text text-anchor="middle" x="854" y="-118" font-family="Helvetica,sans-Serif" font-size="10.00">QByteArray::toHex</text>
</a>
</g>
</g>
<!-- Node8&#45;&gt;Node12 -->
<g id="edge13" class="edge">
<title>Node8&#45;&gt;Node12</title>
<path fill="none" stroke="#63b8ff" d="M762.23,-110.11C772.28,-111.26 782.49,-112.43 792.25,-113.55"/>
<polygon fill="#63b8ff" stroke="#63b8ff" points="800.33,-114.47 791.98,-117.14 796.36,-114.02 792.39,-113.56 792.39,-113.56 792.39,-113.56 796.36,-114.02 792.8,-109.99 800.33,-114.47 800.33,-114.47"/>
</g>
</g>
</svg>
