<?xml version="1.0" encoding="UTF-8" standalone="no"?>
<!DOCTYPE svg PUBLIC "-//W3C//DTD SVG 1.1//EN"
 "http://www.w3.org/Graphics/SVG/1.1/DTD/svg11.dtd">
<!-- Generated by graphviz version 2.43.0 (0)
 -->
<!-- Title: LoggerFetchCommand::serviceDetailsDiscovered Pages: 1 -->
<svg width="888pt" height="206pt"
 viewBox="0.00 0.00 888.00 205.81" xmlns="http://www.w3.org/2000/svg" xmlns:xlink="http://www.w3.org/1999/xlink">
<g id="graph0" class="graph" transform="scale(1 1) rotate(0) translate(4 201.81)">
<title>LoggerFetchCommand::serviceDetailsDiscovered</title>
<!-- Node1 -->
<g id="node1" class="node">
<title>Node1</title>
<g id="a_node1"><a xlink:title="Handles service detail discovery events.">
<polygon fill="#999999" stroke="#666666" points="147,-101.81 0,-101.81 0,-71.81 147,-71.81 147,-101.81"/>
<text text-anchor="start" x="8" y="-89.81" font-family="Helvetica,sans-Serif" font-size="10.00">LoggerFetchCommand</text>
<text text-anchor="middle" x="73.5" y="-78.81" font-family="Helvetica,sans-Serif" font-size="10.00">::serviceDetailsDiscovered</text>
</a>
</g>
</g>
<!-- Node2 -->
<g id="node2" class="node">
<title>Node2</title>
<g id="a_node2"><a xlink:href="classDataLoggerService.html#a0c63e3cdbc6b39ab68b8442b77938049" target="_top" xlink:title="Enables client&#45;side notifications of Data Logger metadata changes.">
<polygon fill="white" stroke="#666666" points="350,-197.81 192,-197.81 192,-167.81 350,-167.81 350,-197.81"/>
<text text-anchor="start" x="200" y="-185.81" font-family="Helvetica,sans-Serif" font-size="10.00">DataLoggerService::</text>
<text text-anchor="middle" x="271" y="-174.81" font-family="Helvetica,sans-Serif" font-size="10.00">enableMetadataNotifications</text>
</a>
</g>
</g>
<!-- Node1&#45;&gt;Node2 -->
<g id="edge1" class="edge">
<title>Node1&#45;&gt;Node2</title>
<path fill="none" stroke="#63b8ff" d="M93.39,-102.06C114.22,-118.21 149.26,-143.43 183,-158.81 187.89,-161.03 193.02,-163.09 198.25,-164.99"/>
<polygon fill="#63b8ff" stroke="#63b8ff" points="205.97,-167.66 197.23,-168.45 202.19,-166.35 198.41,-165.04 198.41,-165.04 198.41,-165.04 202.19,-166.35 199.59,-161.64 205.97,-167.66 205.97,-167.66"/>
</g>
<!-- Node3 -->
<g id="node3" class="node">
<title>Node3</title>
<g id="a_node3"><a xlink:href="classDataLoggerService.html#a2b9d2cad9b7b937a2fd20517c5ba825e" target="_top" xlink:title="Enables client&#45;side notifications of Data Logger readings.">
<polygon fill="white" stroke="#666666" points="346.5,-149.81 195.5,-149.81 195.5,-119.81 346.5,-119.81 346.5,-149.81"/>
<text text-anchor="start" x="203.5" y="-137.81" font-family="Helvetica,sans-Serif" font-size="10.00">DataLoggerService::</text>
<text text-anchor="middle" x="271" y="-126.81" font-family="Helvetica,sans-Serif" font-size="10.00">enableReadingNotifications</text>
</a>
</g>
</g>
<!-- Node1&#45;&gt;Node3 -->
<g id="edge2" class="edge">
<title>Node1&#45;&gt;Node3</title>
<path fill="none" stroke="#63b8ff" d="M135.82,-101.86C156.47,-106.93 179.66,-112.63 200.87,-117.83"/>
<polygon fill="#63b8ff" stroke="#63b8ff" points="208.9,-119.8 200.27,-121.39 205.01,-118.85 201.13,-117.9 201.13,-117.9 201.13,-117.9 205.01,-118.85 201.99,-114.4 208.9,-119.8 208.9,-119.8"/>
</g>
<!-- Node4 -->
<g id="node4" class="node">
<title>Node4</title>
<g id="a_node4"><a xlink:href="classDataLoggerService.html#a4c9e68b94b0fba82a979bb7e0b0adab4" target="_top" xlink:title="Start the data logger.">
<polygon fill="white" stroke="#666666" points="328.5,-101.81 213.5,-101.81 213.5,-71.81 328.5,-71.81 328.5,-101.81"/>
<text text-anchor="start" x="221.5" y="-89.81" font-family="Helvetica,sans-Serif" font-size="10.00">DataLoggerService::</text>
<text text-anchor="middle" x="271" y="-78.81" font-family="Helvetica,sans-Serif" font-size="10.00">fetchSamples</text>
</a>
</g>
</g>
<!-- Node1&#45;&gt;Node4 -->
<g id="edge3" class="edge">
<title>Node1&#45;&gt;Node4</title>
<path fill="none" stroke="#63b8ff" d="M147.02,-86.81C166.14,-86.81 186.64,-86.81 205.32,-86.81"/>
<polygon fill="#63b8ff" stroke="#63b8ff" points="213.48,-86.81 205.48,-90.41 209.48,-86.81 205.48,-86.81 205.48,-86.81 205.48,-86.81 209.48,-86.81 205.48,-83.21 213.48,-86.81 213.48,-86.81"/>
</g>
<!-- Node12 -->
<g id="node12" class="node">
<title>Node12</title>
<g id="a_node12"><a xlink:href="classDeviceCommand.html#a906fd97d832be0e8d2ba1c917fba41db" target="_top" xlink:title="Handles service detail discovery events.">
<polygon fill="white" stroke="#666666" points="359,-53.81 183,-53.81 183,-23.81 359,-23.81 359,-53.81"/>
<text text-anchor="start" x="191" y="-41.81" font-family="Helvetica,sans-Serif" font-size="10.00">DeviceCommand::serviceDetails</text>
<text text-anchor="middle" x="271" y="-30.81" font-family="Helvetica,sans-Serif" font-size="10.00">Discovered</text>
</a>
</g>
</g>
<!-- Node1&#45;&gt;Node12 -->
<g id="edge11" class="edge">
<title>Node1&#45;&gt;Node12</title>
<path fill="none" stroke="#63b8ff" d="M135.82,-71.75C156.47,-66.68 179.66,-60.99 200.87,-55.78"/>
<polygon fill="#63b8ff" stroke="#63b8ff" points="208.9,-53.81 201.99,-59.21 205.01,-54.76 201.13,-55.72 201.13,-55.72 201.13,-55.72 205.01,-54.76 200.27,-52.22 208.9,-53.81 208.9,-53.81"/>
</g>
<!-- Node13 -->
<g id="node13" class="node">
<title>Node13</title>
<g id="a_node13"><a target="_parent" xlink:href="https://doc.qt.io/qt-5/qobject.html#tr" xlink:title=" ">
<polygon fill="white" stroke="#666666" points="487,-27.31 418,-27.31 418,-8.31 487,-8.31 487,-27.31"/>
<text text-anchor="middle" x="452.5" y="-15.31" font-family="Helvetica,sans-Serif" font-size="10.00">QObject::tr</text>
</a>
</g>
</g>
<!-- Node1&#45;&gt;Node13 -->
<g id="edge13" class="edge">
<title>Node1&#45;&gt;Node13</title>
<path fill="none" stroke="#63b8ff" d="M90.55,-71.65C110.43,-54.01 146.21,-25.9 183,-14.81 260.48,8.56 356.34,-1.14 410.03,-9.81"/>
<polygon fill="#63b8ff" stroke="#63b8ff" points="417.95,-11.13 409.47,-13.37 414.01,-10.47 410.06,-9.81 410.06,-9.81 410.06,-9.81 414.01,-10.47 410.65,-6.26 417.95,-11.13 417.95,-11.13"/>
</g>
<!-- Node5 -->
<g id="node5" class="node">
<title>Node5</title>
<g id="a_node5"><a xlink:href="classDataLoggerService.html#a3b933a1a161a390eb08e5019685f449c" target="_top" xlink:title="Configures the Pokit device&#39;s data logger mode.">
<polygon fill="white" stroke="#666666" points="510,-101.81 395,-101.81 395,-71.81 510,-71.81 510,-101.81"/>
<text text-anchor="start" x="403" y="-89.81" font-family="Helvetica,sans-Serif" font-size="10.00">DataLoggerService::</text>
<text text-anchor="middle" x="452.5" y="-78.81" font-family="Helvetica,sans-Serif" font-size="10.00">setSettings</text>
</a>
</g>
</g>
<!-- Node4&#45;&gt;Node5 -->
<g id="edge4" class="edge">
<title>Node4&#45;&gt;Node5</title>
<path fill="none" stroke="#63b8ff" d="M328.79,-86.81C347.22,-86.81 367.79,-86.81 386.75,-86.81"/>
<polygon fill="#63b8ff" stroke="#63b8ff" points="394.77,-86.81 386.77,-90.41 390.77,-86.81 386.77,-86.81 386.77,-86.81 386.77,-86.81 390.77,-86.81 386.77,-83.21 394.77,-86.81 394.77,-86.81"/>
</g>
<!-- Node6 -->
<g id="node6" class="node">
<title>Node6</title>
<g id="a_node6"><a xlink:href="classDataLoggerServicePrivate.html#a774d21863bf83168171143ec8492a736" target="_top" xlink:title="Returns settings in the format Pokit devices expect.">
<polygon fill="white" stroke="#666666" points="690,-144.81 547,-144.81 547,-114.81 690,-114.81 690,-144.81"/>
<text text-anchor="start" x="555" y="-132.81" font-family="Helvetica,sans-Serif" font-size="10.00">DataLoggerServicePrivate</text>
<text text-anchor="middle" x="618.5" y="-121.81" font-family="Helvetica,sans-Serif" font-size="10.00">::encodeSettings</text>
</a>
</g>
</g>
<!-- Node5&#45;&gt;Node6 -->
<g id="edge5" class="edge">
<title>Node5&#45;&gt;Node6</title>
<path fill="none" stroke="#63b8ff" d="M510.4,-101.72C523.86,-105.25 538.31,-109.04 552.11,-112.66"/>
<polygon fill="#63b8ff" stroke="#63b8ff" points="560.15,-114.77 551.49,-116.22 556.28,-113.75 552.41,-112.74 552.41,-112.74 552.41,-112.74 556.28,-113.75 553.32,-109.26 560.15,-114.77 560.15,-114.77"/>
</g>
<!-- Node10 -->
<g id="node10" class="node">
<title>Node10</title>
<g id="a_node10"><a target="_parent" xlink:href="https://doc.qt.io/qt-5/qbytearray.html#isNull" xlink:title=" ">
<polygon fill="white" stroke="#666666" points="671.5,-96.31 565.5,-96.31 565.5,-77.31 671.5,-77.31 671.5,-96.31"/>
<text text-anchor="middle" x="618.5" y="-84.31" font-family="Helvetica,sans-Serif" font-size="10.00">QByteArray::isNull</text>
</a>
</g>
</g>
<!-- Node5&#45;&gt;Node10 -->
<g id="edge9" class="edge">
<title>Node5&#45;&gt;Node10</title>
<path fill="none" stroke="#63b8ff" d="M510.4,-86.81C525.46,-86.81 541.78,-86.81 557.03,-86.81"/>
<polygon fill="#63b8ff" stroke="#63b8ff" points="565.37,-86.81 557.37,-90.41 561.37,-86.81 557.37,-86.81 557.37,-86.81 557.37,-86.81 561.37,-86.81 557.37,-83.21 565.37,-86.81 565.37,-86.81"/>
</g>
<!-- Node11 -->
<g id="node11" class="node">
<title>Node11</title>
<g id="a_node11"><a target="_parent" xlink:href="https://doc.qt.io/qt-5/qlowenergycharacteristic.html#isValid" xlink:title=" ">
<polygon fill="white" stroke="#666666" points="691,-58.81 546,-58.81 546,-28.81 691,-28.81 691,-58.81"/>
<text text-anchor="start" x="554" y="-46.81" font-family="Helvetica,sans-Serif" font-size="10.00">QLowEnergyCharacteristic</text>
<text text-anchor="middle" x="618.5" y="-35.81" font-family="Helvetica,sans-Serif" font-size="10.00">::isValid</text>
</a>
</g>
</g>
<!-- Node5&#45;&gt;Node11 -->
<g id="edge10" class="edge">
<title>Node5&#45;&gt;Node11</title>
<path fill="none" stroke="#63b8ff" d="M510.4,-71.89C523.86,-68.36 538.31,-64.57 552.11,-60.95"/>
<polygon fill="#63b8ff" stroke="#63b8ff" points="560.15,-58.84 553.32,-64.36 556.28,-59.86 552.41,-60.87 552.41,-60.87 552.41,-60.87 556.28,-59.86 551.49,-57.39 560.15,-58.84 560.15,-58.84"/>
</g>
<!-- Node7 -->
<g id="node7" class="node">
<title>Node7</title>
<g id="a_node7"><a target="_parent" xlink:href="https://doc.qt.io/qt-5/qdatastream.html#setByteOrder" xlink:title=" ">
<polygon fill="white" stroke="#666666" points="880,-182.31 727,-182.31 727,-163.31 880,-163.31 880,-182.31"/>
<text text-anchor="middle" x="803.5" y="-170.31" font-family="Helvetica,sans-Serif" font-size="10.00">QDataStream::setByteOrder</text>
</a>
</g>
</g>
<!-- Node6&#45;&gt;Node7 -->
<g id="edge6" class="edge">
<title>Node6&#45;&gt;Node7</title>
<path fill="none" stroke="#63b8ff" d="M683.5,-144.85C706.63,-150.28 732.33,-156.32 753.92,-161.39"/>
<polygon fill="#63b8ff" stroke="#63b8ff" points="761.98,-163.28 753.36,-164.96 758.08,-162.37 754.19,-161.45 754.19,-161.45 754.19,-161.45 758.08,-162.37 755.01,-157.95 761.98,-163.28 761.98,-163.28"/>
</g>
<!-- Node8 -->
<g id="node8" class="node">
<title>Node8</title>
<g id="a_node8"><a target="_parent" xlink:href="https://doc.qt.io/qt-5/qdatastream.html#setFloatingPointPrecision" xlink:title=" ">
<polygon fill="white" stroke="#666666" points="875,-144.81 732,-144.81 732,-114.81 875,-114.81 875,-144.81"/>
<text text-anchor="start" x="740" y="-132.81" font-family="Helvetica,sans-Serif" font-size="10.00">QDataStream::setFloating</text>
<text text-anchor="middle" x="803.5" y="-121.81" font-family="Helvetica,sans-Serif" font-size="10.00">PointPrecision</text>
</a>
</g>
</g>
<!-- Node6&#45;&gt;Node8 -->
<g id="edge7" class="edge">
<title>Node6&#45;&gt;Node8</title>
<path fill="none" stroke="#63b8ff" d="M690.25,-129.81C701.26,-129.81 712.69,-129.81 723.86,-129.81"/>
<polygon fill="#63b8ff" stroke="#63b8ff" points="731.94,-129.81 723.94,-133.41 727.94,-129.81 723.94,-129.81 723.94,-129.81 723.94,-129.81 727.94,-129.81 723.94,-126.21 731.94,-129.81 731.94,-129.81"/>
</g>
<!-- Node9 -->
<g id="node9" class="node">
<title>Node9</title>
<g id="a_node9"><a target="_parent" xlink:href="https://doc.qt.io/qt-5/qbytearray.html#size" xlink:title=" ">
<polygon fill="white" stroke="#666666" points="852.5,-96.31 754.5,-96.31 754.5,-77.31 852.5,-77.31 852.5,-96.31"/>
<text text-anchor="middle" x="803.5" y="-84.31" font-family="Helvetica,sans-Serif" font-size="10.00">QByteArray::size</text>
</a>
</g>
</g>
<!-- Node6&#45;&gt;Node9 -->
<g id="edge8" class="edge">
<title>Node6&#45;&gt;Node9</title>
<path fill="none" stroke="#63b8ff" d="M683.5,-114.77C706.63,-109.33 732.33,-103.29 753.92,-98.22"/>
<polygon fill="#63b8ff" stroke="#63b8ff" points="761.98,-96.33 755.01,-101.66 758.08,-97.24 754.19,-98.16 754.19,-98.16 754.19,-98.16 758.08,-97.24 753.36,-94.65 761.98,-96.33 761.98,-96.33"/>
</g>
<!-- Node12&#45;&gt;Node13 -->
<g id="edge12" class="edge">
<title>Node12&#45;&gt;Node13</title>
<path fill="none" stroke="#63b8ff" d="M359.12,-28.61C376.76,-26.55 394.53,-24.47 409.71,-22.7"/>
<polygon fill="#63b8ff" stroke="#63b8ff" points="417.86,-21.74 410.33,-26.25 413.88,-22.21 409.91,-22.67 409.91,-22.67 409.91,-22.67 413.88,-22.21 409.49,-19.1 417.86,-21.74 417.86,-21.74"/>
</g>
</g>
</svg>
