<?xml version="1.0" encoding="UTF-8" standalone="no"?>
<!DOCTYPE svg PUBLIC "-//W3C//DTD SVG 1.1//EN"
 "http://www.w3.org/Graphics/SVG/1.1/DTD/svg11.dtd">
<!-- Generated by graphviz version 2.43.0 (0)
 -->
<!-- Title: MultimeterServicePrivate::encodeSettings Pages: 1 -->
<svg width="338pt" height="113pt"
 viewBox="0.00 0.00 338.00 113.00" xmlns="http://www.w3.org/2000/svg" xmlns:xlink="http://www.w3.org/1999/xlink">
<g id="graph0" class="graph" transform="scale(1 1) rotate(0) translate(4 109)">
<title>MultimeterServicePrivate::encodeSettings</title>
<!-- Node1 -->
<g id="node1" class="node">
<title>Node1</title>
<g id="a_node1"><a xlink:title="Returns settings in the format Pokit devices expect.">
<polygon fill="#999999" stroke="#666666" points="141,-67.5 0,-67.5 0,-37.5 141,-37.5 141,-67.5"/>
<text text-anchor="start" x="8" y="-55.5" font-family="Helvetica,sans-Serif" font-size="10.00">MultimeterServicePrivate</text>
<text text-anchor="middle" x="70.5" y="-44.5" font-family="Helvetica,sans-Serif" font-size="10.00">::encodeSettings</text>
</a>
</g>
</g>
<!-- Node2 -->
<g id="node2" class="node">
<title>Node2</title>
<g id="a_node2"><a target="_parent" xlink:href="https://doc.qt.io/qt-5/qdatastream.html#setByteOrder" xlink:title=" ">
<polygon fill="white" stroke="#666666" points="330,-105 177,-105 177,-86 330,-86 330,-105"/>
<text text-anchor="middle" x="253.5" y="-93" font-family="Helvetica,sans-Serif" font-size="10.00">QDataStream::setByteOrder</text>
</a>
</g>
</g>
<!-- Node1&#45;&gt;Node2 -->
<g id="edge1" class="edge">
<title>Node1&#45;&gt;Node2</title>
<path fill="none" stroke="#63b8ff" d="M134.81,-67.54C157.68,-72.97 183.1,-79.01 204.45,-84.08"/>
<polygon fill="#63b8ff" stroke="#63b8ff" points="212.42,-85.98 203.8,-87.63 208.53,-85.05 204.63,-84.13 204.63,-84.13 204.63,-84.13 208.53,-85.05 205.47,-80.63 212.42,-85.98 212.42,-85.98"/>
</g>
<!-- Node3 -->
<g id="node3" class="node">
<title>Node3</title>
<g id="a_node3"><a target="_parent" xlink:href="https://doc.qt.io/qt-5/qdatastream.html#setFloatingPointPrecision" xlink:title=" ">
<polygon fill="white" stroke="#666666" points="325,-67.5 182,-67.5 182,-37.5 325,-37.5 325,-67.5"/>
<text text-anchor="start" x="190" y="-55.5" font-family="Helvetica,sans-Serif" font-size="10.00">QDataStream::setFloating</text>
<text text-anchor="middle" x="253.5" y="-44.5" font-family="Helvetica,sans-Serif" font-size="10.00">PointPrecision</text>
</a>
</g>
</g>
<!-- Node1&#45;&gt;Node3 -->
<g id="edge2" class="edge">
<title>Node1&#45;&gt;Node3</title>
<path fill="none" stroke="#63b8ff" d="M141.22,-52.5C151.85,-52.5 162.89,-52.5 173.71,-52.5"/>
<polygon fill="#63b8ff" stroke="#63b8ff" points="181.92,-52.5 173.92,-56.1 177.92,-52.5 173.92,-52.5 173.92,-52.5 173.92,-52.5 177.92,-52.5 173.92,-48.9 181.92,-52.5 181.92,-52.5"/>
</g>
<!-- Node4 -->
<g id="node4" class="node">
<title>Node4</title>
<g id="a_node4"><a target="_parent" xlink:href="https://doc.qt.io/qt-5/qbytearray.html#size" xlink:title=" ">
<polygon fill="white" stroke="#666666" points="302.5,-19 204.5,-19 204.5,0 302.5,0 302.5,-19"/>
<text text-anchor="middle" x="253.5" y="-7" font-family="Helvetica,sans-Serif" font-size="10.00">QByteArray::size</text>
</a>
</g>
</g>
<!-- Node1&#45;&gt;Node4 -->
<g id="edge3" class="edge">
<title>Node1&#45;&gt;Node4</title>
<path fill="none" stroke="#63b8ff" d="M134.81,-37.46C157.68,-32.03 183.1,-25.99 204.45,-20.92"/>
<polygon fill="#63b8ff" stroke="#63b8ff" points="212.42,-19.02 205.47,-24.37 208.53,-19.95 204.63,-20.87 204.63,-20.87 204.63,-20.87 208.53,-19.95 203.8,-17.37 212.42,-19.02 212.42,-19.02"/>
</g>
</g>
</svg>
