<?xml version="1.0" encoding="UTF-8" standalone="no"?>
<!DOCTYPE svg PUBLIC "-//W3C//DTD SVG 1.1//EN"
 "http://www.w3.org/Graphics/SVG/1.1/DTD/svg11.dtd">
<!-- Generated by graphviz version 2.43.0 (0)
 -->
<!-- Title: PokitDevicePrivate Pages: 1 -->
<svg width="1237pt" height="421pt"
 viewBox="0.00 0.00 1237.00 420.50" xmlns="http://www.w3.org/2000/svg" xmlns:xlink="http://www.w3.org/1999/xlink">
<g id="graph0" class="graph" transform="scale(1 1) rotate(0) translate(4 416.5)">
<title>PokitDevicePrivate</title>
<!-- Node1 -->
<g id="node1" class="node">
<title>Node1</title>
<g id="a_node1"><a xlink:title="The PokitDevicePrivate class provides private implementation for PokitDevice.">
<polygon fill="#999999" stroke="#666666" points="1090,-197 980,-197 980,-178 1090,-178 1090,-197"/>
<text text-anchor="middle" x="1035" y="-185" font-family="Helvetica,sans-Serif" font-size="10.00">PokitDevicePrivate</text>
</a>
</g>
</g>
<!-- Node18 -->
<g id="node18" class="node">
<title>Node18</title>
<g id="a_node18"><a xlink:href="classPokitDevice.html" target="_top" xlink:title="The PokitDevice class simplifies Pokit device access.">
<polygon fill="white" stroke="#666666" points="1229,-231 1154,-231 1154,-212 1229,-212 1229,-231"/>
<text text-anchor="middle" x="1191.5" y="-219" font-family="Helvetica,sans-Serif" font-size="10.00">PokitDevice</text>
</a>
</g>
</g>
<!-- Node1&#45;&gt;Node18 -->
<g id="edge37" class="edge">
<title>Node1&#45;&gt;Node18</title>
<path fill="none" stroke="#9a32cd" stroke-dasharray="5,2" d="M1087.32,-198.79C1109.12,-203.59 1134.02,-209.07 1153.91,-213.45"/>
<polygon fill="#9a32cd" stroke="#9a32cd" points="1079.45,-197.06 1088.03,-195.26 1083.35,-197.92 1087.26,-198.78 1087.26,-198.78 1087.26,-198.78 1083.35,-197.92 1086.49,-202.3 1079.45,-197.06 1079.45,-197.06"/>
<text text-anchor="middle" x="1122" y="-212.5" font-family="Helvetica,sans-Serif" font-size="10.00"> d_ptr</text>
</g>
<!-- Node2 -->
<g id="node2" class="node">
<title>Node2</title>
<g id="a_node2"><a target="_parent" xlink:href="https://doc.qt.io/qt-5/qobject.html" xlink:title=" ">
<polygon fill="white" stroke="#bfbfbf" points="56,-327 0,-327 0,-308 56,-308 56,-327"/>
<text text-anchor="middle" x="28" y="-315" font-family="Helvetica,sans-Serif" font-size="10.00">QObject</text>
</a>
</g>
</g>
<!-- Node2&#45;&gt;Node1 -->
<g id="edge1" class="edge">
<title>Node2&#45;&gt;Node1</title>
<path fill="none" stroke="#63b8ff" d="M47.67,-332.1C71.19,-348.98 113.51,-374.5 154.5,-374.5 154.5,-374.5 154.5,-374.5 782,-374.5 862.54,-374.5 897.34,-401.53 962,-353.5 1015.46,-313.79 1029.75,-226.01 1033.09,-197.01"/>
<polygon fill="#63b8ff" stroke="#63b8ff" points="41,-327.17 49.57,-329.02 44.21,-329.54 47.43,-331.92 47.43,-331.92 47.43,-331.92 44.21,-329.54 45.29,-334.82 41,-327.17 41,-327.17"/>
</g>
<!-- Node3 -->
<g id="node3" class="node">
<title>Node3</title>
<g id="a_node3"><a target="_parent" xlink:href="https://doc.qt.io/qt-5/qlowenergycontroller.html" xlink:title=" ">
<polygon fill="white" stroke="#bfbfbf" points="218,-302 93,-302 93,-283 218,-283 218,-302"/>
<text text-anchor="middle" x="155.5" y="-290" font-family="Helvetica,sans-Serif" font-size="10.00">QLowEnergyController</text>
</a>
</g>
</g>
<!-- Node2&#45;&gt;Node3 -->
<g id="edge3" class="edge">
<title>Node2&#45;&gt;Node3</title>
<path fill="none" stroke="#63b8ff" d="M64.13,-310.5C77.28,-307.88 92.45,-304.86 106.57,-302.05"/>
<polygon fill="#63b8ff" stroke="#63b8ff" points="56.23,-312.08 63.37,-306.98 60.15,-311.29 64.08,-310.51 64.08,-310.51 64.08,-310.51 60.15,-311.29 64.78,-314.04 56.23,-312.08 56.23,-312.08"/>
</g>
<!-- Node5 -->
<g id="node5" class="node">
<title>Node5</title>
<g id="a_node5"><a xlink:href="classAbstractPokitService.html" target="_top" xlink:title="The AbstractPokitService class provides a common base for Pokit services classes.">
<polygon fill="white" stroke="#666666" points="682,-187 564,-187 564,-168 682,-168 682,-187"/>
<text text-anchor="middle" x="623" y="-175" font-family="Helvetica,sans-Serif" font-size="10.00">AbstractPokitService</text>
</a>
</g>
</g>
<!-- Node2&#45;&gt;Node5 -->
<g id="edge6" class="edge">
<title>Node2&#45;&gt;Node5</title>
<path fill="none" stroke="#63b8ff" d="M64.31,-318.8C102.44,-319.64 164.87,-319.39 218,-311.5 291.15,-300.64 453.15,-249.63 546,-213.5 566.14,-205.66 588.39,-194.86 603.59,-187.13"/>
<polygon fill="#63b8ff" stroke="#63b8ff" points="56.09,-318.59 64.18,-315.2 60.09,-318.7 64.09,-318.8 64.09,-318.8 64.09,-318.8 60.09,-318.7 64,-322.39 56.09,-318.59 56.09,-318.59"/>
</g>
<!-- Node6 -->
<g id="node6" class="node">
<title>Node6</title>
<g id="a_node6"><a xlink:href="classAbstractPokitServicePrivate.html" target="_top" xlink:title="The AbstractPokitServicePrivate class provides private implementation for AbstractPokitService.">
<polygon fill="white" stroke="#666666" points="467,-225 315,-225 315,-206 467,-206 467,-225"/>
<text text-anchor="middle" x="391" y="-213" font-family="Helvetica,sans-Serif" font-size="10.00">AbstractPokitServicePrivate</text>
</a>
</g>
</g>
<!-- Node2&#45;&gt;Node6 -->
<g id="edge8" class="edge">
<title>Node2&#45;&gt;Node6</title>
<path fill="none" stroke="#63b8ff" d="M36.92,-300.61C46.97,-281.33 66.26,-250.64 93,-236.5 130.13,-216.87 239.79,-213.7 314.94,-214"/>
<polygon fill="#63b8ff" stroke="#63b8ff" points="33.3,-307.86 33.65,-299.09 35.08,-304.28 36.87,-300.7 36.87,-300.7 36.87,-300.7 35.08,-304.28 40.09,-302.31 33.3,-307.86 33.3,-307.86"/>
</g>
<!-- Node7 -->
<g id="node7" class="node">
<title>Node7</title>
<g id="a_node7"><a target="_parent" xlink:href="https://doc.qt.io/qt-5/qlowenergyservice.html" xlink:title=" ">
<polygon fill="white" stroke="#bfbfbf" points="212,-265 99,-265 99,-246 212,-246 212,-265"/>
<text text-anchor="middle" x="155.5" y="-253" font-family="Helvetica,sans-Serif" font-size="10.00">QLowEnergyService</text>
</a>
</g>
</g>
<!-- Node2&#45;&gt;Node7 -->
<g id="edge11" class="edge">
<title>Node2&#45;&gt;Node7</title>
<path fill="none" stroke="#63b8ff" d="M46.9,-302.89C59.24,-293.42 76.35,-281.41 93,-273.5 99.93,-270.21 107.6,-267.38 115.09,-265.01"/>
<polygon fill="#63b8ff" stroke="#63b8ff" points="40.57,-307.85 44.65,-300.08 43.72,-305.38 46.87,-302.92 46.87,-302.92 46.87,-302.92 43.72,-305.38 49.09,-305.75 40.57,-307.85 40.57,-307.85"/>
</g>
<!-- Node2&#45;&gt;Node18 -->
<g id="edge36" class="edge">
<title>Node2&#45;&gt;Node18</title>
<path fill="none" stroke="#63b8ff" d="M39.93,-333.97C59.44,-361.17 103.08,-412.5 154.5,-412.5 154.5,-412.5 154.5,-412.5 1036,-412.5 1130.26,-412.5 1176.92,-270.16 1187.91,-231.23"/>
<polygon fill="#63b8ff" stroke="#63b8ff" points="35.29,-327.31 42.82,-331.81 37.58,-330.59 39.86,-333.87 39.86,-333.87 39.86,-333.87 37.58,-330.59 36.91,-335.93 35.29,-327.31 35.29,-327.31"/>
</g>
<!-- Node3&#45;&gt;Node1 -->
<g id="edge2" class="edge">
<title>Node3&#45;&gt;Node1</title>
<path fill="none" stroke="#9a32cd" stroke-dasharray="5,2" d="M226.19,-300.55C410.4,-321.2 900.38,-371.82 962,-333.5 1012.16,-302.31 1028.41,-224.74 1032.68,-197.3"/>
<polygon fill="#9a32cd" stroke="#9a32cd" points="218.18,-299.65 226.53,-296.96 222.15,-300.1 226.13,-300.54 226.13,-300.54 226.13,-300.54 222.15,-300.1 225.72,-304.12 218.18,-299.65 218.18,-299.65"/>
<text text-anchor="middle" x="623" y="-344.5" font-family="Helvetica,sans-Serif" font-size="10.00"> controller</text>
</g>
<!-- Node3&#45;&gt;Node6 -->
<g id="edge9" class="edge">
<title>Node3&#45;&gt;Node6</title>
<path fill="none" stroke="#9a32cd" stroke-dasharray="5,2" d="M209.4,-281.12C235.99,-274.85 268.53,-266.35 297,-256.5 323.18,-247.44 352.23,-234.07 370.78,-225.09"/>
<polygon fill="#9a32cd" stroke="#9a32cd" points="201.35,-282.99 208.33,-277.67 205.24,-282.09 209.14,-281.18 209.14,-281.18 209.14,-281.18 205.24,-282.09 209.96,-284.69 201.35,-282.99 201.35,-282.99"/>
<text text-anchor="middle" x="266.5" y="-278.5" font-family="Helvetica,sans-Serif" font-size="10.00"> controller</text>
</g>
<!-- Node4 -->
<g id="node4" class="node">
<title>Node4</title>
<g id="a_node4"><a xlink:href="classCalibrationService.html" target="_top" xlink:title="The CalibrationService class accesses the Calibrartion service of Pokit devices.">
<polygon fill="white" stroke="#666666" points="834,-130 728,-130 728,-111 834,-111 834,-130"/>
<text text-anchor="middle" x="781" y="-118" font-family="Helvetica,sans-Serif" font-size="10.00">CalibrationService</text>
</a>
</g>
</g>
<!-- Node4&#45;&gt;Node1 -->
<g id="edge4" class="edge">
<title>Node4&#45;&gt;Node1</title>
<path fill="none" stroke="#9a32cd" stroke-dasharray="5,2" d="M842.43,-123.02C878.03,-125.94 923.49,-132.18 962,-145.5 984.29,-153.21 1007.39,-168.13 1021.22,-177.95"/>
<polygon fill="#9a32cd" stroke="#9a32cd" points="834.06,-122.38 842.31,-119.4 838.05,-122.69 842.04,-122.99 842.04,-122.99 842.04,-122.99 838.05,-122.69 841.76,-126.58 834.06,-122.38 834.06,-122.38"/>
<text text-anchor="middle" x="911.5" y="-148.5" font-family="Helvetica,sans-Serif" font-size="10.00"> calibration</text>
</g>
<!-- Node5&#45;&gt;Node4 -->
<g id="edge5" class="edge">
<title>Node5&#45;&gt;Node4</title>
<path fill="none" stroke="#63b8ff" d="M653.23,-164.59C671.86,-156.59 696.63,-146.37 719,-138.5 727.44,-135.53 736.64,-132.64 745.28,-130.07"/>
<polygon fill="#63b8ff" stroke="#63b8ff" points="645.64,-167.87 651.55,-161.39 649.31,-166.28 652.98,-164.7 652.98,-164.7 652.98,-164.7 649.31,-166.28 654.41,-168 645.64,-167.87 645.64,-167.87"/>
</g>
<!-- Node5&#45;&gt;Node6 -->
<g id="edge14" class="edge">
<title>Node5&#45;&gt;Node6</title>
<path fill="none" stroke="#9a32cd" stroke-dasharray="5,2" d="M556.29,-188.36C522.68,-193.91 482.14,-200.61 449.74,-205.96"/>
<polygon fill="#9a32cd" stroke="#9a32cd" points="564.23,-187.04 556.93,-191.9 560.29,-187.7 556.34,-188.35 556.34,-188.35 556.34,-188.35 560.29,-187.7 555.75,-184.8 564.23,-187.04 564.23,-187.04"/>
<text text-anchor="middle" x="515.5" y="-203.5" font-family="Helvetica,sans-Serif" font-size="10.00"> q_ptr</text>
</g>
<!-- Node10 -->
<g id="node10" class="node">
<title>Node10</title>
<g id="a_node10"><a xlink:href="classDataLoggerService.html" target="_top" xlink:title="The DataLoggerService class accesses the Pokit Status service of Pokit devices.">
<polygon fill="white" stroke="#666666" points="835.5,-93 726.5,-93 726.5,-74 835.5,-74 835.5,-93"/>
<text text-anchor="middle" x="781" y="-81" font-family="Helvetica,sans-Serif" font-size="10.00">DataLoggerService</text>
</a>
</g>
</g>
<!-- Node5&#45;&gt;Node10 -->
<g id="edge17" class="edge">
<title>Node5&#45;&gt;Node10</title>
<path fill="none" stroke="#63b8ff" d="M639.27,-162.11C657,-145.04 687.81,-117.77 719,-101.5 725.36,-98.18 732.43,-95.39 739.43,-93.06"/>
<polygon fill="#63b8ff" stroke="#63b8ff" points="633.35,-167.89 636.55,-159.73 636.21,-165.1 639.07,-162.3 639.07,-162.3 639.07,-162.3 636.21,-165.1 641.59,-164.87 633.35,-167.89 633.35,-167.89"/>
</g>
<!-- Node11 -->
<g id="node11" class="node">
<title>Node11</title>
<g id="a_node11"><a xlink:href="classDeviceInfoService.html" target="_top" xlink:title="The DeviceInfoService class accesses the Device Info service of Pokit devices.">
<polygon fill="white" stroke="#666666" points="833.5,-19 728.5,-19 728.5,0 833.5,0 833.5,-19"/>
<text text-anchor="middle" x="781" y="-7" font-family="Helvetica,sans-Serif" font-size="10.00">DeviceInfoService</text>
</a>
</g>
</g>
<!-- Node5&#45;&gt;Node11 -->
<g id="edge20" class="edge">
<title>Node5&#45;&gt;Node11</title>
<path fill="none" stroke="#63b8ff" d="M630.19,-160.23C642.27,-128.97 672.02,-62.96 719,-27.5 723.49,-24.11 728.62,-21.35 733.94,-19.11"/>
<polygon fill="#63b8ff" stroke="#63b8ff" points="627.37,-167.73 626.81,-158.98 628.78,-163.99 630.18,-160.24 630.18,-160.24 630.18,-160.24 628.78,-163.99 633.55,-161.51 627.37,-167.73 627.37,-167.73"/>
</g>
<!-- Node12 -->
<g id="node12" class="node">
<title>Node12</title>
<g id="a_node12"><a xlink:href="classDsoService.html" target="_top" xlink:title="The DsoService class accesses the Pokit Status service of Pokit devices.">
<polygon fill="white" stroke="#666666" points="816.5,-167 745.5,-167 745.5,-148 816.5,-148 816.5,-167"/>
<text text-anchor="middle" x="781" y="-155" font-family="Helvetica,sans-Serif" font-size="10.00">DsoService</text>
</a>
</g>
</g>
<!-- Node5&#45;&gt;Node12 -->
<g id="edge23" class="edge">
<title>Node5&#45;&gt;Node12</title>
<path fill="none" stroke="#63b8ff" d="M690.14,-170.83C693.81,-170.4 697.45,-169.95 701,-169.5 715.59,-167.64 731.64,-165.26 745.44,-163.11"/>
<polygon fill="#63b8ff" stroke="#63b8ff" points="682.06,-171.76 689.59,-167.27 686.03,-171.31 690,-170.85 690,-170.85 690,-170.85 686.03,-171.31 690.41,-174.42 682.06,-171.76 682.06,-171.76"/>
</g>
<!-- Node13 -->
<g id="node13" class="node">
<title>Node13</title>
<g id="a_node13"><a xlink:href="classGenericAccessService.html" target="_top" xlink:title="The GenericAccessService class accesses the Generic Access service of Pokit devices.">
<polygon fill="white" stroke="#666666" points="843,-218 719,-218 719,-199 843,-199 843,-218"/>
<text text-anchor="middle" x="781" y="-206" font-family="Helvetica,sans-Serif" font-size="10.00">GenericAccessService</text>
</a>
</g>
</g>
<!-- Node5&#45;&gt;Node13 -->
<g id="edge26" class="edge">
<title>Node5&#45;&gt;Node13</title>
<path fill="none" stroke="#63b8ff" d="M680.27,-188.68C697.24,-192.06 715.71,-195.72 732.08,-198.98"/>
<polygon fill="#63b8ff" stroke="#63b8ff" points="672.08,-187.05 680.63,-185.08 676,-187.83 679.92,-188.61 679.92,-188.61 679.92,-188.61 676,-187.83 679.22,-192.14 672.08,-187.05 672.08,-187.05"/>
</g>
<!-- Node14 -->
<g id="node14" class="node">
<title>Node14</title>
<g id="a_node14"><a xlink:href="classMultimeterService.html" target="_top" xlink:title="The MultimeterService class accesses the Pokit Status service of Pokit devices.">
<polygon fill="white" stroke="#666666" points="834.5,-56 727.5,-56 727.5,-37 834.5,-37 834.5,-56"/>
<text text-anchor="middle" x="781" y="-44" font-family="Helvetica,sans-Serif" font-size="10.00">MultimeterService</text>
</a>
</g>
</g>
<!-- Node5&#45;&gt;Node14 -->
<g id="edge29" class="edge">
<title>Node5&#45;&gt;Node14</title>
<path fill="none" stroke="#63b8ff" d="M633.4,-161.1C648.36,-136.46 679.93,-90.06 719,-64.5 724.17,-61.11 730,-58.35 735.95,-56.09"/>
<polygon fill="#63b8ff" stroke="#63b8ff" points="629.3,-168 630.29,-159.28 631.34,-164.56 633.39,-161.12 633.39,-161.12 633.39,-161.12 631.34,-164.56 636.48,-162.96 629.3,-168 629.3,-168"/>
</g>
<!-- Node15 -->
<g id="node15" class="node">
<title>Node15</title>
<g id="a_node15"><a xlink:href="classStatusService.html" target="_top" xlink:title="The StatusService class accesses the Pokit Status service of Pokit devices.">
<polygon fill="white" stroke="#666666" points="822.5,-256 739.5,-256 739.5,-237 822.5,-237 822.5,-256"/>
<text text-anchor="middle" x="781" y="-244" font-family="Helvetica,sans-Serif" font-size="10.00">StatusService</text>
</a>
</g>
</g>
<!-- Node5&#45;&gt;Node15 -->
<g id="edge32" class="edge">
<title>Node5&#45;&gt;Node15</title>
<path fill="none" stroke="#63b8ff" d="M647.83,-191.14C666.75,-201.64 694.07,-216.06 719,-226.5 728.15,-230.33 738.31,-233.92 747.67,-236.96"/>
<polygon fill="#63b8ff" stroke="#63b8ff" points="640.77,-187.19 649.51,-187.96 644.26,-189.14 647.75,-191.1 647.75,-191.1 647.75,-191.1 644.26,-189.14 645.99,-194.24 640.77,-187.19 640.77,-187.19"/>
</g>
<!-- Node6&#45;&gt;Node5 -->
<g id="edge7" class="edge">
<title>Node6&#45;&gt;Node5</title>
<path fill="none" stroke="#9a32cd" stroke-dasharray="5,2" d="M412.87,-201.35C431.03,-189.95 458.52,-174.81 485,-168.5 515.37,-161.26 550.54,-163.79 577.63,-167.98"/>
<polygon fill="#9a32cd" stroke="#9a32cd" points="405.69,-205.97 410.47,-198.61 409.05,-203.81 412.42,-201.64 412.42,-201.64 412.42,-201.64 409.05,-203.81 414.37,-204.67 405.69,-205.97 405.69,-205.97"/>
<text text-anchor="middle" x="515.5" y="-171.5" font-family="Helvetica,sans-Serif" font-size="10.00"> d_ptr</text>
</g>
<!-- Node7&#45;&gt;Node6 -->
<g id="edge10" class="edge">
<title>Node7&#45;&gt;Node6</title>
<path fill="none" stroke="#9a32cd" stroke-dasharray="5,2" d="M220.09,-244.61C255.83,-238.48 300.03,-230.91 334.39,-225.03"/>
<polygon fill="#9a32cd" stroke="#9a32cd" points="212.13,-245.97 219.41,-241.07 216.07,-245.29 220.02,-244.62 220.02,-244.62 220.02,-244.62 216.07,-245.29 220.63,-248.17 212.13,-245.97 212.13,-245.97"/>
<text text-anchor="middle" x="266.5" y="-244.5" font-family="Helvetica,sans-Serif" font-size="10.00"> service</text>
</g>
<!-- Node8 -->
<g id="node8" class="node">
<title>Node8</title>
<g id="a_node8"><a target="_parent" xlink:href="https://doc.qt.io/qt-5/qbluetoothuuid.html" xlink:title=" ">
<polygon fill="white" stroke="#bfbfbf" points="202.5,-105 108.5,-105 108.5,-86 202.5,-86 202.5,-105"/>
<text text-anchor="middle" x="155.5" y="-93" font-family="Helvetica,sans-Serif" font-size="10.00">QBluetoothUuid</text>
</a>
</g>
</g>
<!-- Node8&#45;&gt;Node4 -->
<g id="edge15" class="edge">
<title>Node8&#45;&gt;Node4</title>
<path fill="none" stroke="#9a32cd" stroke-dasharray="5,2" d="M211.12,-94.96C286.51,-94.49 426.65,-94.64 546,-100.5 608.51,-103.57 680.19,-110.15 727.56,-114.92"/>
<polygon fill="#9a32cd" stroke="#9a32cd" points="202.7,-95.01 210.68,-91.36 206.7,-94.99 210.7,-94.96 210.7,-94.96 210.7,-94.96 206.7,-94.99 210.73,-98.56 202.7,-95.01 202.7,-95.01"/>
<text text-anchor="middle" x="515.5" y="-103.5" font-family="Helvetica,sans-Serif" font-size="10.00"> serviceUuid</text>
</g>
<!-- Node8&#45;&gt;Node6 -->
<g id="edge12" class="edge">
<title>Node8&#45;&gt;Node6</title>
<path fill="none" stroke="#9a32cd" stroke-dasharray="5,2" d="M169.47,-111.29C184.02,-128.02 209.13,-154.12 236,-169.5 255.62,-180.73 312.07,-196.17 350.89,-205.99"/>
<polygon fill="#9a32cd" stroke="#9a32cd" points="164.25,-105.16 172.18,-108.92 166.85,-108.21 169.44,-111.25 169.44,-111.25 169.44,-111.25 166.85,-108.21 166.7,-113.59 164.25,-105.16 164.25,-105.16"/>
<text text-anchor="middle" x="266.5" y="-194.5" font-family="Helvetica,sans-Serif" font-size="10.00"> serviceUuid</text>
</g>
<!-- Node8&#45;&gt;Node10 -->
<g id="edge18" class="edge">
<title>Node8&#45;&gt;Node10</title>
<path fill="none" stroke="#9a32cd" stroke-dasharray="5,2" d="M210.66,-85.23C219.12,-83.84 227.78,-82.53 236,-81.5 372.96,-64.26 408.1,-56.32 546,-62.5 607.94,-65.27 678.82,-72.16 726.19,-77.29"/>
<polygon fill="#9a32cd" stroke="#9a32cd" points="202.63,-86.59 209.91,-81.7 206.57,-85.92 210.51,-85.25 210.51,-85.25 210.51,-85.25 206.57,-85.92 211.11,-88.8 202.63,-86.59 202.63,-86.59"/>
<text text-anchor="middle" x="515.5" y="-65.5" font-family="Helvetica,sans-Serif" font-size="10.00"> serviceUuid</text>
</g>
<!-- Node8&#45;&gt;Node11 -->
<g id="edge21" class="edge">
<title>Node8&#45;&gt;Node11</title>
<path fill="none" stroke="#9a32cd" stroke-dasharray="5,2" d="M179.17,-81.86C194.67,-73.1 215.97,-62.16 236,-55.5 269.84,-44.26 279.62,-45.98 315,-41.5 464.32,-22.61 642.13,-14.28 728.21,-11.13"/>
<polygon fill="#9a32cd" stroke="#9a32cd" points="172.05,-85.96 177.19,-78.85 175.52,-83.96 178.98,-81.97 178.98,-81.97 178.98,-81.97 175.52,-83.96 180.78,-85.09 172.05,-85.96 172.05,-85.96"/>
<text text-anchor="middle" x="515.5" y="-28.5" font-family="Helvetica,sans-Serif" font-size="10.00"> serviceUuid</text>
</g>
<!-- Node8&#45;&gt;Node12 -->
<g id="edge24" class="edge">
<title>Node8&#45;&gt;Node12</title>
<path fill="none" stroke="#9a32cd" stroke-dasharray="5,2" d="M210.67,-105.68C219.13,-107.09 227.79,-108.42 236,-109.5 427.52,-134.76 658.78,-150.22 745.2,-155.47"/>
<polygon fill="#9a32cd" stroke="#9a32cd" points="202.64,-104.32 211.13,-102.11 206.58,-104.99 210.53,-105.66 210.53,-105.66 210.53,-105.66 206.58,-104.99 209.92,-109.21 202.64,-104.32 202.64,-104.32"/>
<text text-anchor="middle" x="515.5" y="-144.5" font-family="Helvetica,sans-Serif" font-size="10.00"> serviceUuid</text>
</g>
<!-- Node8&#45;&gt;Node13 -->
<g id="edge27" class="edge">
<title>Node8&#45;&gt;Node13</title>
<path fill="none" stroke="#9a32cd" stroke-dasharray="5,2" d="M185.99,-108.13C200.87,-114.3 219.26,-121.64 236,-127.5 337.14,-162.88 375.73,-140.37 467,-196.5 476.91,-202.59 474.31,-210.9 485,-215.5 509.9,-226.21 518.89,-215.91 546,-215.5 604.72,-214.62 671.71,-212.5 718.92,-210.83"/>
<polygon fill="#9a32cd" stroke="#9a32cd" points="178.57,-105.02 187.34,-104.79 182.26,-106.56 185.95,-108.11 185.95,-108.11 185.95,-108.11 182.26,-106.56 184.56,-111.43 178.57,-105.02 178.57,-105.02"/>
<text text-anchor="middle" x="515.5" y="-223.5" font-family="Helvetica,sans-Serif" font-size="10.00"> serviceUuid</text>
</g>
<!-- Node8&#45;&gt;Node14 -->
<g id="edge30" class="edge">
<title>Node8&#45;&gt;Node14</title>
<path fill="none" stroke="#9a32cd" stroke-dasharray="5,2" d="M191.65,-83.37C205.37,-78.92 221.32,-74.09 236,-70.5 270.64,-62.02 279.59,-60.67 315,-56.5 463.76,-39 641.09,-41.61 727.47,-44.38"/>
<polygon fill="#9a32cd" stroke="#9a32cd" points="183.85,-85.94 190.32,-80.02 187.65,-84.69 191.45,-83.44 191.45,-83.44 191.45,-83.44 187.65,-84.69 192.57,-86.86 183.85,-85.94 183.85,-85.94"/>
<text text-anchor="middle" x="515.5" y="-47.5" font-family="Helvetica,sans-Serif" font-size="10.00"> serviceUuid</text>
</g>
<!-- Node9 -->
<g id="node9" class="node">
<title>Node9</title>
<g id="a_node9"><a target="_parent" xlink:href="https://doc.qt.io/qt-5/quuid.html" xlink:title=" ">
<polygon fill="white" stroke="#bfbfbf" points="51.5,-105 4.5,-105 4.5,-86 51.5,-86 51.5,-105"/>
<text text-anchor="middle" x="28" y="-93" font-family="Helvetica,sans-Serif" font-size="10.00">QUuid</text>
</a>
</g>
</g>
<!-- Node9&#45;&gt;Node8 -->
<g id="edge13" class="edge">
<title>Node9&#45;&gt;Node8</title>
<path fill="none" stroke="#63b8ff" d="M59.91,-95.5C74.48,-95.5 92.17,-95.5 108.29,-95.5"/>
<polygon fill="#63b8ff" stroke="#63b8ff" points="51.73,-95.5 59.73,-91.9 55.73,-95.5 59.73,-95.5 59.73,-95.5 59.73,-95.5 55.73,-95.5 59.73,-99.1 51.73,-95.5 51.73,-95.5"/>
</g>
<!-- Node10&#45;&gt;Node1 -->
<g id="edge16" class="edge">
<title>Node10&#45;&gt;Node1</title>
<path fill="none" stroke="#9a32cd" stroke-dasharray="5,2" d="M843.72,-82.81C880.01,-84.76 925.72,-91.43 962,-110.5 992.62,-126.59 1017.27,-160.89 1028.08,-177.74"/>
<polygon fill="#9a32cd" stroke="#9a32cd" points="835.66,-82.44 843.82,-79.21 839.66,-82.62 843.65,-82.8 843.65,-82.8 843.65,-82.8 839.66,-82.62 843.49,-86.4 835.66,-82.44 835.66,-82.44"/>
<text text-anchor="middle" x="911.5" y="-113.5" font-family="Helvetica,sans-Serif" font-size="10.00"> dataLogger</text>
</g>
<!-- Node11&#45;&gt;Node1 -->
<g id="edge19" class="edge">
<title>Node11&#45;&gt;Node1</title>
<path fill="none" stroke="#9a32cd" stroke-dasharray="5,2" d="M842.12,-1.13C879.88,0.88 927.76,-2.86 962,-27.5 1014.17,-65.04 1029.25,-149.39 1032.94,-177.89"/>
<polygon fill="#9a32cd" stroke="#9a32cd" points="833.73,-1.68 841.48,2.43 837.72,-1.42 841.71,-1.16 841.71,-1.16 841.71,-1.16 837.72,-1.42 841.95,-4.75 833.73,-1.68 833.73,-1.68"/>
<text text-anchor="middle" x="911.5" y="-30.5" font-family="Helvetica,sans-Serif" font-size="10.00"> deviceInfo</text>
</g>
<!-- Node12&#45;&gt;Node1 -->
<g id="edge22" class="edge">
<title>Node12&#45;&gt;Node1</title>
<path fill="none" stroke="#9a32cd" stroke-dasharray="5,2" d="M824.71,-158.21C861.33,-159.32 915.4,-162.18 962,-169.5 974.86,-171.52 988.77,-174.75 1000.92,-177.92"/>
<polygon fill="#9a32cd" stroke="#9a32cd" points="816.71,-157.98 824.81,-154.61 820.71,-158.09 824.71,-158.21 824.71,-158.21 824.71,-158.21 820.71,-158.09 824.61,-161.8 816.71,-157.98 816.71,-157.98"/>
<text text-anchor="middle" x="911.5" y="-172.5" font-family="Helvetica,sans-Serif" font-size="10.00"> dso</text>
</g>
<!-- Node13&#45;&gt;Node1 -->
<g id="edge25" class="edge">
<title>Node13&#45;&gt;Node1</title>
<path fill="none" stroke="#9a32cd" stroke-dasharray="5,2" d="M820.19,-196.85C833.03,-193.46 847.52,-190.22 861,-188.5 900.48,-183.46 945.43,-183.37 979.62,-184.46"/>
<polygon fill="#9a32cd" stroke="#9a32cd" points="812.43,-198.96 819.21,-193.39 816.29,-197.91 820.15,-196.86 820.15,-196.86 820.15,-196.86 816.29,-197.91 821.1,-200.33 812.43,-198.96 812.43,-198.96"/>
<text text-anchor="middle" x="911.5" y="-191.5" font-family="Helvetica,sans-Serif" font-size="10.00"> genericAccess</text>
</g>
<!-- Node14&#45;&gt;Node1 -->
<g id="edge28" class="edge">
<title>Node14&#45;&gt;Node1</title>
<path fill="none" stroke="#9a32cd" stroke-dasharray="5,2" d="M842.81,-41.54C880,-41.44 926.98,-46.8 962,-69.5 1002.88,-95.99 1024.2,-154.67 1031.28,-177.83"/>
<polygon fill="#9a32cd" stroke="#9a32cd" points="834.56,-41.66 842.51,-37.95 838.56,-41.6 842.56,-41.55 842.56,-41.55 842.56,-41.55 838.56,-41.6 842.6,-45.15 834.56,-41.66 834.56,-41.66"/>
<text text-anchor="middle" x="911.5" y="-72.5" font-family="Helvetica,sans-Serif" font-size="10.00"> multimeter</text>
</g>
<!-- Node15&#45;&gt;Node1 -->
<g id="edge31" class="edge">
<title>Node15&#45;&gt;Node1</title>
<path fill="none" stroke="#9a32cd" stroke-dasharray="5,2" d="M819.02,-234.46C832.2,-230.38 847.19,-225.99 861,-222.5 900.52,-212.52 945.67,-203.47 979.93,-197.07"/>
<polygon fill="#9a32cd" stroke="#9a32cd" points="811.08,-236.94 817.64,-231.12 814.9,-235.75 818.71,-234.55 818.71,-234.55 818.71,-234.55 814.9,-235.75 819.79,-237.99 811.08,-236.94 811.08,-236.94"/>
<text text-anchor="middle" x="911.5" y="-225.5" font-family="Helvetica,sans-Serif" font-size="10.00"> status</text>
</g>
<!-- Node16 -->
<g id="node16" class="node">
<title>Node16</title>
<g id="a_node16"><a target="_parent" xlink:href="https://doc.qt.io/qt-5/qmutex.html" xlink:title=" ">
<polygon fill="white" stroke="#bfbfbf" points="808.5,-294 753.5,-294 753.5,-275 808.5,-275 808.5,-294"/>
<text text-anchor="middle" x="781" y="-282" font-family="Helvetica,sans-Serif" font-size="10.00">QMutex</text>
</a>
</g>
</g>
<!-- Node16&#45;&gt;Node1 -->
<g id="edge33" class="edge">
<title>Node16&#45;&gt;Node1</title>
<path fill="none" stroke="#9a32cd" stroke-dasharray="5,2" d="M816.44,-273.88C825.17,-271.01 834.48,-267.78 843,-264.5 851.17,-261.35 852.69,-259.26 861,-256.5 904.69,-241.97 919.53,-251.27 962,-233.5 984.72,-224 1008.25,-207.48 1021.98,-197.04"/>
<polygon fill="#9a32cd" stroke="#9a32cd" points="808.63,-276.42 815.13,-270.52 812.43,-275.18 816.24,-273.95 816.24,-273.95 816.24,-273.95 812.43,-275.18 817.35,-277.37 808.63,-276.42 808.63,-276.42"/>
<text text-anchor="middle" x="911.5" y="-325.5" font-family="Helvetica,sans-Serif" font-size="10.00"> calibrationMutex</text>
<text text-anchor="middle" x="911.5" y="-314.5" font-family="Helvetica,sans-Serif" font-size="10.00">dataLoggerMutex</text>
<text text-anchor="middle" x="911.5" y="-303.5" font-family="Helvetica,sans-Serif" font-size="10.00">deviceInfoMutex</text>
<text text-anchor="middle" x="911.5" y="-292.5" font-family="Helvetica,sans-Serif" font-size="10.00">dsoMutex</text>
<text text-anchor="middle" x="911.5" y="-281.5" font-family="Helvetica,sans-Serif" font-size="10.00">genericAccessMutex</text>
<text text-anchor="middle" x="911.5" y="-270.5" font-family="Helvetica,sans-Serif" font-size="10.00">multimeterMutex</text>
<text text-anchor="middle" x="911.5" y="-259.5" font-family="Helvetica,sans-Serif" font-size="10.00">statusMutex</text>
</g>
<!-- Node17 -->
<g id="node17" class="node">
<title>Node17</title>
<g id="a_node17"><a xlink:title=" ">
<polygon fill="white" stroke="#bfbfbf" points="663.5,-296 582.5,-296 582.5,-277 663.5,-277 663.5,-296"/>
<text text-anchor="middle" x="623" y="-284" font-family="Helvetica,sans-Serif" font-size="10.00">QBasicMutex</text>
</a>
</g>
</g>
<!-- Node17&#45;&gt;Node16 -->
<g id="edge34" class="edge">
<title>Node17&#45;&gt;Node16</title>
<path fill="none" stroke="#63b8ff" d="M671.85,-285.89C698.53,-285.54 730.77,-285.13 753.07,-284.85"/>
<polygon fill="#63b8ff" stroke="#63b8ff" points="663.77,-285.99 671.72,-282.29 667.77,-285.94 671.77,-285.89 671.77,-285.89 671.77,-285.89 667.77,-285.94 671.81,-289.49 663.77,-285.99 663.77,-285.99"/>
</g>
<!-- Node18&#45;&gt;Node1 -->
<g id="edge35" class="edge">
<title>Node18&#45;&gt;Node1</title>
<path fill="none" stroke="#9a32cd" stroke-dasharray="5,2" d="M1172.37,-207.13C1162.28,-200.05 1149.14,-192.24 1136,-188.5 1121.47,-184.37 1105.27,-182.93 1090.21,-182.83"/>
<polygon fill="#9a32cd" stroke="#9a32cd" points="1178.83,-211.86 1170.25,-210.04 1175.6,-209.5 1172.38,-207.14 1172.38,-207.14 1172.38,-207.14 1175.6,-209.5 1174.5,-204.23 1178.83,-211.86 1178.83,-211.86"/>
<text text-anchor="middle" x="1122" y="-191.5" font-family="Helvetica,sans-Serif" font-size="10.00"> q_ptr</text>
</g>
</g>
</svg>
