<?xml version="1.0" encoding="UTF-8" standalone="no"?>
<!DOCTYPE svg PUBLIC "-//W3C//DTD SVG 1.1//EN"
 "http://www.w3.org/Graphics/SVG/1.1/DTD/svg11.dtd">
<!-- Generated by graphviz version 2.43.0 (0)
 -->
<!-- Title: StatusServicePrivate::characteristicWritten Pages: 1 -->
<svg width="711pt" height="455pt"
 viewBox="0.00 0.00 711.00 454.50" xmlns="http://www.w3.org/2000/svg" xmlns:xlink="http://www.w3.org/1999/xlink">
<g id="graph0" class="graph" transform="scale(1 1) rotate(0) translate(4 450.5)">
<title>StatusServicePrivate::characteristicWritten</title>
<!-- Node1 -->
<g id="node1" class="node">
<title>Node1</title>
<g id="a_node1"><a xlink:title="Implements AbstractPokitServicePrivate::characteristicWritten to parse newValue, then emit a speciali...">
<polygon fill="#999999" stroke="#666666" points="125,-94 0,-94 0,-64 125,-64 125,-94"/>
<text text-anchor="start" x="8" y="-82" font-family="Helvetica,sans-Serif" font-size="10.00">StatusServicePrivate</text>
<text text-anchor="middle" x="62.5" y="-71" font-family="Helvetica,sans-Serif" font-size="10.00">::characteristicWritten</text>
</a>
</g>
</g>
<!-- Node2 -->
<g id="node2" class="node">
<title>Node2</title>
<g id="a_node2"><a xlink:href="classAbstractPokitServicePrivate.html#aaf4a6cb9f0b1fe537877d615a6634201" target="_top" xlink:title="Handles QLowEnergyService::characteristicWritten events.">
<polygon fill="white" stroke="#666666" points="313,-218 161,-218 161,-188 313,-188 313,-218"/>
<text text-anchor="start" x="169" y="-206" font-family="Helvetica,sans-Serif" font-size="10.00">AbstractPokitServicePrivate</text>
<text text-anchor="middle" x="237" y="-195" font-family="Helvetica,sans-Serif" font-size="10.00">::characteristicWritten</text>
</a>
</g>
</g>
<!-- Node1&#45;&gt;Node2 -->
<g id="edge1" class="edge">
<title>Node1&#45;&gt;Node2</title>
<path fill="none" stroke="#63b8ff" d="M84.65,-94.2C115.77,-116.58 173.93,-158.38 208.39,-183.15"/>
<polygon fill="#63b8ff" stroke="#63b8ff" points="214.95,-187.86 206.35,-186.12 211.7,-185.53 208.45,-183.2 208.45,-183.2 208.45,-183.2 211.7,-185.53 210.55,-180.27 214.95,-187.86 214.95,-187.86"/>
</g>
<!-- Node6 -->
<g id="node6" class="node">
<title>Node6</title>
<g id="a_node6"><a target="_parent" xlink:href="https://doc.qt.io/qt-5/qobject.html#tr" xlink:title=" ">
<polygon fill="white" stroke="#666666" points="654.5,-153.5 585.5,-153.5 585.5,-134.5 654.5,-134.5 654.5,-153.5"/>
<text text-anchor="middle" x="620" y="-141.5" font-family="Helvetica,sans-Serif" font-size="10.00">QObject::tr</text>
</a>
</g>
</g>
<!-- Node1&#45;&gt;Node6 -->
<g id="edge18" class="edge">
<title>Node1&#45;&gt;Node6</title>
<path fill="none" stroke="#63b8ff" d="M125.28,-68.79C211.18,-56.81 370.83,-42.62 501,-77 539.43,-87.15 578.47,-113.03 600.61,-129.49"/>
<polygon fill="#63b8ff" stroke="#63b8ff" points="607.19,-134.47 598.64,-132.51 604,-132.06 600.81,-129.64 600.81,-129.64 600.81,-129.64 604,-132.06 602.99,-126.77 607.19,-134.47 607.19,-134.47"/>
</g>
<!-- Node14 -->
<g id="node14" class="node">
<title>Node14</title>
<g id="a_node14"><a target="_parent" xlink:href="https://doc.qt.io/qt-5/qlowenergycharacteristic.html#uuid" xlink:title=" ">
<polygon fill="white" stroke="#666666" points="497.5,-116 352.5,-116 352.5,-86 497.5,-86 497.5,-116"/>
<text text-anchor="start" x="360.5" y="-104" font-family="Helvetica,sans-Serif" font-size="10.00">QLowEnergyCharacteristic</text>
<text text-anchor="middle" x="425" y="-93" font-family="Helvetica,sans-Serif" font-size="10.00">::uuid</text>
</a>
</g>
</g>
<!-- Node1&#45;&gt;Node14 -->
<g id="edge19" class="edge">
<title>Node1&#45;&gt;Node14</title>
<path fill="none" stroke="#63b8ff" d="M125.06,-82.76C185.52,-86.45 278.05,-92.09 344.14,-96.13"/>
<polygon fill="#63b8ff" stroke="#63b8ff" points="352.47,-96.63 344.27,-99.74 348.48,-96.39 344.49,-96.15 344.49,-96.15 344.49,-96.15 348.48,-96.39 344.71,-92.55 352.47,-96.63 352.47,-96.63"/>
</g>
<!-- Node15 -->
<g id="node15" class="node">
<title>Node15</title>
<g id="a_node15"><a target="_parent" xlink:href="https://doc.qt.io/qt-5/qlowenergycharacteristic.html#name" xlink:title=" ">
<polygon fill="white" stroke="#666666" points="309.5,-30 164.5,-30 164.5,0 309.5,0 309.5,-30"/>
<text text-anchor="start" x="172.5" y="-18" font-family="Helvetica,sans-Serif" font-size="10.00">QLowEnergyCharacteristic</text>
<text text-anchor="middle" x="237" y="-7" font-family="Helvetica,sans-Serif" font-size="10.00">::name</text>
</a>
</g>
</g>
<!-- Node1&#45;&gt;Node15 -->
<g id="edge17" class="edge">
<title>Node1&#45;&gt;Node15</title>
<path fill="none" stroke="#63b8ff" d="M103.94,-63.99C129.05,-54.68 161.45,-42.66 187.87,-32.86"/>
<polygon fill="#63b8ff" stroke="#63b8ff" points="195.51,-30.02 189.26,-36.18 191.76,-31.41 188.01,-32.8 188.01,-32.8 188.01,-32.8 191.76,-31.41 186.76,-29.43 195.51,-30.02 195.51,-30.02"/>
</g>
<!-- Node3 -->
<g id="node3" class="node">
<title>Node3</title>
<g id="a_node3"><a target="_parent" xlink:href="https://doc.qt.io/qt-5/qstring.html#arg-11" xlink:title=" ">
<polygon fill="white" stroke="#666666" points="657,-261.5 583,-261.5 583,-242.5 657,-242.5 657,-261.5"/>
<text text-anchor="middle" x="620" y="-249.5" font-family="Helvetica,sans-Serif" font-size="10.00">QString::arg</text>
</a>
</g>
</g>
<!-- Node2&#45;&gt;Node3 -->
<g id="edge2" class="edge">
<title>Node2&#45;&gt;Node3</title>
<path fill="none" stroke="#63b8ff" d="M265.8,-218.02C287.69,-228.98 319.37,-242.93 349,-249 427.19,-265.01 520.8,-261.05 574.74,-256.6"/>
<polygon fill="#63b8ff" stroke="#63b8ff" points="582.73,-255.92 575.06,-260.19 578.74,-256.26 574.75,-256.6 574.75,-256.6 574.75,-256.6 578.74,-256.26 574.45,-253.02 582.73,-255.92 582.73,-255.92"/>
</g>
<!-- Node4 -->
<g id="node4" class="node">
<title>Node4</title>
<g id="a_node4"><a xlink:href="classPokitDevice.html#a0a3e6078ce0a7c2d93171ef0f4183d61" target="_top" xlink:title="Returns a human&#45;readable name for the uuid characteristic, or a null QString if unknown.">
<polygon fill="white" stroke="#666666" points="495.5,-240 354.5,-240 354.5,-210 495.5,-210 495.5,-240"/>
<text text-anchor="start" x="362.5" y="-228" font-family="Helvetica,sans-Serif" font-size="10.00">PokitDevice::charcteristic</text>
<text text-anchor="middle" x="425" y="-217" font-family="Helvetica,sans-Serif" font-size="10.00">ToString</text>
</a>
</g>
</g>
<!-- Node2&#45;&gt;Node4 -->
<g id="edge3" class="edge">
<title>Node2&#45;&gt;Node4</title>
<path fill="none" stroke="#63b8ff" d="M313.12,-211.88C324.07,-213.18 335.37,-214.52 346.37,-215.82"/>
<polygon fill="#63b8ff" stroke="#63b8ff" points="354.32,-216.76 345.95,-219.39 350.35,-216.29 346.37,-215.82 346.37,-215.82 346.37,-215.82 350.35,-216.29 346.8,-212.24 354.32,-216.76 354.32,-216.76"/>
</g>
<!-- Node2&#45;&gt;Node6 -->
<g id="edge15" class="edge">
<title>Node2&#45;&gt;Node6</title>
<path fill="none" stroke="#63b8ff" d="M273.31,-187.9C294.79,-179.4 323.01,-169.43 349,-164 428.49,-147.4 523.65,-144.09 577.14,-143.7"/>
<polygon fill="#63b8ff" stroke="#63b8ff" points="585.35,-143.66 577.37,-147.3 581.35,-143.68 577.35,-143.7 577.35,-143.7 577.35,-143.7 581.35,-143.68 577.34,-140.1 585.35,-143.66 585.35,-143.66"/>
</g>
<!-- Node7 -->
<g id="node7" class="node">
<title>Node7</title>
<g id="a_node7"><a target="_parent" xlink:href="https://doc.qt.io/qt-5/qbytearray.html#size" xlink:title=" ">
<polygon fill="white" stroke="#666666" points="669,-446.5 571,-446.5 571,-427.5 669,-427.5 669,-446.5"/>
<text text-anchor="middle" x="620" y="-434.5" font-family="Helvetica,sans-Serif" font-size="10.00">QByteArray::size</text>
</a>
</g>
</g>
<!-- Node2&#45;&gt;Node7 -->
<g id="edge6" class="edge">
<title>Node2&#45;&gt;Node7</title>
<path fill="none" stroke="#63b8ff" d="M245.61,-218.19C261.11,-247.69 299.16,-313.05 349,-350 413.24,-397.62 504.6,-419.83 562.84,-429.71"/>
<polygon fill="#63b8ff" stroke="#63b8ff" points="570.83,-431.02 562.35,-433.28 566.88,-430.37 562.94,-429.72 562.94,-429.72 562.94,-429.72 566.88,-430.37 563.52,-426.17 570.83,-431.02 570.83,-431.02"/>
</g>
<!-- Node8 -->
<g id="node8" class="node">
<title>Node8</title>
<g id="a_node8"><a xlink:href="classAbstractPokitServicePrivate.html#af748600fc201fe47f29b58e8e93179d8" target="_top" xlink:title="Returns up to maxSize bytes of data as a human readable hexadecimal string.">
<polygon fill="white" stroke="#666666" points="501,-341 349,-341 349,-311 501,-311 501,-341"/>
<text text-anchor="start" x="357" y="-329" font-family="Helvetica,sans-Serif" font-size="10.00">AbstractPokitServicePrivate</text>
<text text-anchor="middle" x="425" y="-318" font-family="Helvetica,sans-Serif" font-size="10.00">::toHexString</text>
</a>
</g>
</g>
<!-- Node2&#45;&gt;Node8 -->
<g id="edge7" class="edge">
<title>Node2&#45;&gt;Node8</title>
<path fill="none" stroke="#63b8ff" d="M258.09,-218.11C280.04,-234.43 316.44,-260.92 349,-282 362.15,-290.51 376.97,-299.36 389.93,-306.86"/>
<polygon fill="#63b8ff" stroke="#63b8ff" points="396.93,-310.88 388.2,-310.01 393.46,-308.89 389.99,-306.89 389.99,-306.89 389.99,-306.89 393.46,-308.89 391.79,-303.77 396.93,-310.88 396.93,-310.88"/>
</g>
<!-- Node13 -->
<g id="node13" class="node">
<title>Node13</title>
<g id="a_node13"><a target="_parent" xlink:href="https://doc.qt.io/qt-5/quuid.html#toString" xlink:title=" ">
<polygon fill="white" stroke="#666666" points="470.5,-191.5 379.5,-191.5 379.5,-172.5 470.5,-172.5 470.5,-191.5"/>
<text text-anchor="middle" x="425" y="-179.5" font-family="Helvetica,sans-Serif" font-size="10.00">QUuid::toString</text>
</a>
</g>
</g>
<!-- Node2&#45;&gt;Node13 -->
<g id="edge14" class="edge">
<title>Node2&#45;&gt;Node13</title>
<path fill="none" stroke="#63b8ff" d="M313.12,-194.52C332.61,-192.32 353.2,-189.99 371.27,-187.95"/>
<polygon fill="#63b8ff" stroke="#63b8ff" points="379.39,-187.04 371.84,-191.51 375.41,-187.49 371.44,-187.93 371.44,-187.93 371.44,-187.93 375.41,-187.49 371.03,-184.36 379.39,-187.04 379.39,-187.04"/>
</g>
<!-- Node2&#45;&gt;Node14 -->
<g id="edge16" class="edge">
<title>Node2&#45;&gt;Node14</title>
<path fill="none" stroke="#63b8ff" d="M258.07,-187.91C279.71,-172.1 315.57,-147.21 349,-130 356.6,-126.09 364.86,-122.39 373.03,-119.02"/>
<polygon fill="#63b8ff" stroke="#63b8ff" points="380.48,-116.03 374.39,-122.35 376.76,-117.52 373.05,-119.01 373.05,-119.01 373.05,-119.01 376.76,-117.52 371.71,-115.67 380.48,-116.03 380.48,-116.03"/>
</g>
<!-- Node5 -->
<g id="node5" class="node">
<title>Node5</title>
<g id="a_node5"><a target="_parent" xlink:href="https://doc.qt.io/qt-5/qbluetoothuuid.html#characteristicToString" xlink:title=" ">
<polygon fill="white" stroke="#666666" points="703,-224 537,-224 537,-194 703,-194 703,-224"/>
<text text-anchor="start" x="545" y="-212" font-family="Helvetica,sans-Serif" font-size="10.00">QBluetoothUuid::characteristic</text>
<text text-anchor="middle" x="620" y="-201" font-family="Helvetica,sans-Serif" font-size="10.00">ToString</text>
</a>
</g>
</g>
<!-- Node4&#45;&gt;Node5 -->
<g id="edge4" class="edge">
<title>Node4&#45;&gt;Node5</title>
<path fill="none" stroke="#63b8ff" d="M495.68,-219.22C506.45,-218.33 517.71,-217.4 528.85,-216.47"/>
<polygon fill="#63b8ff" stroke="#63b8ff" points="536.94,-215.8 529.27,-220.05 532.95,-216.13 528.97,-216.46 528.97,-216.46 528.97,-216.46 532.95,-216.13 528.67,-212.88 536.94,-215.8 536.94,-215.8"/>
</g>
<!-- Node4&#45;&gt;Node6 -->
<g id="edge5" class="edge">
<title>Node4&#45;&gt;Node6</title>
<path fill="none" stroke="#63b8ff" d="M476.37,-209.96C484.67,-207.17 493.13,-204.14 501,-201 518.65,-193.95 563.52,-171.83 592.56,-157.31"/>
<polygon fill="#63b8ff" stroke="#63b8ff" points="599.94,-153.61 594.4,-160.41 596.36,-155.4 592.79,-157.19 592.79,-157.19 592.79,-157.19 596.36,-155.4 591.18,-153.97 599.94,-153.61 599.94,-153.61"/>
</g>
<!-- Node8&#45;&gt;Node3 -->
<g id="edge8" class="edge">
<title>Node8&#45;&gt;Node3</title>
<path fill="none" stroke="#63b8ff" d="M452.15,-310.87C474.18,-298.66 506.83,-281.8 537,-271 549.08,-266.68 562.51,-263.08 574.95,-260.23"/>
<polygon fill="#63b8ff" stroke="#63b8ff" points="582.96,-258.46 575.93,-263.7 579.06,-259.32 575.15,-260.19 575.15,-260.19 575.15,-260.19 579.06,-259.32 574.37,-256.67 582.96,-258.46 582.96,-258.46"/>
</g>
<!-- Node8&#45;&gt;Node7 -->
<g id="edge12" class="edge">
<title>Node8&#45;&gt;Node7</title>
<path fill="none" stroke="#63b8ff" d="M444.2,-341.29C475.51,-367.6 536.33,-418.67 537,-419 545.09,-422.98 554.07,-426.08 563.02,-428.51"/>
<polygon fill="#63b8ff" stroke="#63b8ff" points="570.86,-430.47 562.22,-432.02 566.98,-429.5 563.1,-428.53 563.1,-428.53 563.1,-428.53 566.98,-429.5 563.97,-425.03 570.86,-430.47 570.86,-430.47"/>
</g>
<!-- Node9 -->
<g id="node9" class="node">
<title>Node9</title>
<g id="a_node9"><a target="_parent" xlink:href="https://doc.qt.io/qt-5/qstring.html#fromLatin1" xlink:title=" ">
<polygon fill="white" stroke="#666666" points="676,-335.5 564,-335.5 564,-316.5 676,-316.5 676,-335.5"/>
<text text-anchor="middle" x="620" y="-323.5" font-family="Helvetica,sans-Serif" font-size="10.00">QString::fromLatin1</text>
</a>
</g>
</g>
<!-- Node8&#45;&gt;Node9 -->
<g id="edge9" class="edge">
<title>Node8&#45;&gt;Node9</title>
<path fill="none" stroke="#63b8ff" d="M501.17,-326C519.09,-326 538.04,-326 555.38,-326"/>
<polygon fill="#63b8ff" stroke="#63b8ff" points="563.76,-326 555.76,-329.6 559.76,-326 555.76,-326 555.76,-326 555.76,-326 559.76,-326 555.76,-322.4 563.76,-326 563.76,-326"/>
</g>
<!-- Node10 -->
<g id="node10" class="node">
<title>Node10</title>
<g id="a_node10"><a target="_parent" xlink:href="https://doc.qt.io/qt-5/qbytearray.html#left" xlink:title=" ">
<polygon fill="white" stroke="#666666" points="667,-298.5 573,-298.5 573,-279.5 667,-279.5 667,-298.5"/>
<text text-anchor="middle" x="620" y="-286.5" font-family="Helvetica,sans-Serif" font-size="10.00">QByteArray::left</text>
</a>
</g>
</g>
<!-- Node8&#45;&gt;Node10 -->
<g id="edge10" class="edge">
<title>Node8&#45;&gt;Node10</title>
<path fill="none" stroke="#63b8ff" d="M501.17,-311.59C522.38,-307.52 545.04,-303.18 564.76,-299.4"/>
<polygon fill="#63b8ff" stroke="#63b8ff" points="572.73,-297.87 565.55,-302.91 568.8,-298.62 564.88,-299.38 564.88,-299.38 564.88,-299.38 568.8,-298.62 564.2,-295.84 572.73,-297.87 572.73,-297.87"/>
</g>
<!-- Node11 -->
<g id="node11" class="node">
<title>Node11</title>
<g id="a_node11"><a target="_parent" xlink:href="https://doc.qt.io/qt-5/qbytearray.html#right" xlink:title=" ">
<polygon fill="white" stroke="#666666" points="670.5,-409.5 569.5,-409.5 569.5,-390.5 670.5,-390.5 670.5,-409.5"/>
<text text-anchor="middle" x="620" y="-397.5" font-family="Helvetica,sans-Serif" font-size="10.00">QByteArray::right</text>
</a>
</g>
</g>
<!-- Node8&#45;&gt;Node11 -->
<g id="edge11" class="edge">
<title>Node8&#45;&gt;Node11</title>
<path fill="none" stroke="#63b8ff" d="M451.2,-341.02C473.19,-353.56 506.29,-371.08 537,-382 544.81,-384.78 553.19,-387.21 561.5,-389.31"/>
<polygon fill="#63b8ff" stroke="#63b8ff" points="569.44,-391.22 560.81,-392.84 565.55,-390.28 561.66,-389.35 561.66,-389.35 561.66,-389.35 565.55,-390.28 562.5,-385.85 569.44,-391.22 569.44,-391.22"/>
</g>
<!-- Node12 -->
<g id="node12" class="node">
<title>Node12</title>
<g id="a_node12"><a target="_parent" xlink:href="https://doc.qt.io/qt-5/qbytearray.html#toHex" xlink:title=" ">
<polygon fill="white" stroke="#666666" points="673.5,-372.5 566.5,-372.5 566.5,-353.5 673.5,-353.5 673.5,-372.5"/>
<text text-anchor="middle" x="620" y="-360.5" font-family="Helvetica,sans-Serif" font-size="10.00">QByteArray::toHex</text>
</a>
</g>
</g>
<!-- Node8&#45;&gt;Node12 -->
<g id="edge13" class="edge">
<title>Node8&#45;&gt;Node12</title>
<path fill="none" stroke="#63b8ff" d="M501.17,-340.41C521.18,-344.25 542.47,-348.33 561.37,-351.95"/>
<polygon fill="#63b8ff" stroke="#63b8ff" points="569.31,-353.47 560.78,-355.5 565.38,-352.72 561.46,-351.97 561.46,-351.97 561.46,-351.97 565.38,-352.72 562.13,-348.43 569.31,-353.47 569.31,-353.47"/>
</g>
</g>
</svg>
