<?xml version="1.0" encoding="UTF-8" standalone="no"?>
<!DOCTYPE svg PUBLIC "-//W3C//DTD SVG 1.1//EN"
 "http://www.w3.org/Graphics/SVG/1.1/DTD/svg11.dtd">
<!-- Generated by graphviz version 2.43.0 (0)
 -->
<!-- Title: AbstractPokitServicePrivate::checkSize Pages: 1 -->
<svg width="496pt" height="212pt"
 viewBox="0.00 0.00 496.00 212.00" xmlns="http://www.w3.org/2000/svg" xmlns:xlink="http://www.w3.org/1999/xlink">
<g id="graph0" class="graph" transform="scale(1 1) rotate(0) translate(4 208)">
<title>AbstractPokitServicePrivate::checkSize</title>
<!-- Node1 -->
<g id="node1" class="node">
<title>Node1</title>
<g id="a_node1"><a xlink:title="Returns false if data is smaller than minSize, otherwise returns failOnMax if data is bigger than max...">
<polygon fill="#999999" stroke="#666666" points="152,-129.5 0,-129.5 0,-99.5 152,-99.5 152,-129.5"/>
<text text-anchor="start" x="8" y="-117.5" font-family="Helvetica,sans-Serif" font-size="10.00">AbstractPokitServicePrivate</text>
<text text-anchor="middle" x="76" y="-106.5" font-family="Helvetica,sans-Serif" font-size="10.00">::checkSize</text>
</a>
</g>
</g>
<!-- Node2 -->
<g id="node2" class="node">
<title>Node2</title>
<g id="a_node2"><a target="_parent" xlink:href="https://doc.qt.io/qt-5/qstring.html#arg-11" xlink:title=" ">
<polygon fill="white" stroke="#666666" points="469,-204 395,-204 395,-185 469,-185 469,-204"/>
<text text-anchor="middle" x="432" y="-192" font-family="Helvetica,sans-Serif" font-size="10.00">QString::arg</text>
</a>
</g>
</g>
<!-- Node1&#45;&gt;Node2 -->
<g id="edge1" class="edge">
<title>Node1&#45;&gt;Node2</title>
<path fill="none" stroke="#63b8ff" d="M108.35,-129.59C130.21,-139.52 160.3,-152.01 188,-159.5 255.87,-177.85 337.17,-187.09 386.41,-191.33"/>
<polygon fill="#63b8ff" stroke="#63b8ff" points="394.63,-192.02 386.35,-194.94 390.64,-191.69 386.65,-191.35 386.65,-191.35 386.65,-191.35 390.64,-191.69 386.95,-187.77 394.63,-192.02 394.63,-192.02"/>
</g>
<!-- Node3 -->
<g id="node3" class="node">
<title>Node3</title>
<g id="a_node3"><a target="_parent" xlink:href="https://doc.qt.io/qt-5/qbytearray.html#mid" xlink:title=" ">
<polygon fill="white" stroke="#666666" points="312.5,-81 215.5,-81 215.5,-62 312.5,-62 312.5,-81"/>
<text text-anchor="middle" x="264" y="-69" font-family="Helvetica,sans-Serif" font-size="10.00">QByteArray::mid</text>
</a>
</g>
</g>
<!-- Node1&#45;&gt;Node3 -->
<g id="edge2" class="edge">
<title>Node1&#45;&gt;Node3</title>
<path fill="none" stroke="#63b8ff" d="M142.05,-99.46C165.66,-94 191.91,-87.93 213.91,-82.85"/>
<polygon fill="#63b8ff" stroke="#63b8ff" points="221.81,-81.02 214.83,-86.33 217.91,-81.92 214.02,-82.82 214.02,-82.82 214.02,-82.82 217.91,-81.92 213.21,-79.32 221.81,-81.02 221.81,-81.02"/>
</g>
<!-- Node4 -->
<g id="node4" class="node">
<title>Node4</title>
<g id="a_node4"><a target="_parent" xlink:href="https://doc.qt.io/qt-5/qbytearray.html#size" xlink:title=" ">
<polygon fill="white" stroke="#666666" points="481,-167 383,-167 383,-148 481,-148 481,-167"/>
<text text-anchor="middle" x="432" y="-155" font-family="Helvetica,sans-Serif" font-size="10.00">QByteArray::size</text>
</a>
</g>
</g>
<!-- Node1&#45;&gt;Node4 -->
<g id="edge3" class="edge">
<title>Node1&#45;&gt;Node4</title>
<path fill="none" stroke="#63b8ff" d="M139.25,-129.5C155.08,-132.89 172.1,-136.17 188,-138.5 251.66,-147.83 325.41,-152.78 374.82,-155.26"/>
<polygon fill="#63b8ff" stroke="#63b8ff" points="382.84,-155.65 374.67,-158.86 378.84,-155.46 374.85,-155.26 374.85,-155.26 374.85,-155.26 378.84,-155.46 375.02,-151.66 382.84,-155.65 382.84,-155.65"/>
</g>
<!-- Node5 -->
<g id="node5" class="node">
<title>Node5</title>
<g id="a_node5"><a xlink:href="classAbstractPokitServicePrivate.html#af748600fc201fe47f29b58e8e93179d8" target="_top" xlink:title="Returns up to maxSize bytes of data as a human readable hexadecimal string.">
<polygon fill="white" stroke="#666666" points="340,-129.5 188,-129.5 188,-99.5 340,-99.5 340,-129.5"/>
<text text-anchor="start" x="196" y="-117.5" font-family="Helvetica,sans-Serif" font-size="10.00">AbstractPokitServicePrivate</text>
<text text-anchor="middle" x="264" y="-106.5" font-family="Helvetica,sans-Serif" font-size="10.00">::toHexString</text>
</a>
</g>
</g>
<!-- Node1&#45;&gt;Node5 -->
<g id="edge4" class="edge">
<title>Node1&#45;&gt;Node5</title>
<path fill="none" stroke="#63b8ff" d="M152.12,-114.5C161.24,-114.5 170.6,-114.5 179.84,-114.5"/>
<polygon fill="#63b8ff" stroke="#63b8ff" points="187.9,-114.5 179.9,-118.1 183.9,-114.5 179.9,-114.5 179.9,-114.5 179.9,-114.5 183.9,-114.5 179.9,-110.9 187.9,-114.5 187.9,-114.5"/>
</g>
<!-- Node10 -->
<g id="node10" class="node">
<title>Node10</title>
<g id="a_node10"><a target="_parent" xlink:href="https://doc.qt.io/qt-5/qobject.html#tr" xlink:title=" ">
<polygon fill="white" stroke="#666666" points="298.5,-44 229.5,-44 229.5,-25 298.5,-25 298.5,-44"/>
<text text-anchor="middle" x="264" y="-32" font-family="Helvetica,sans-Serif" font-size="10.00">QObject::tr</text>
</a>
</g>
</g>
<!-- Node1&#45;&gt;Node10 -->
<g id="edge11" class="edge">
<title>Node1&#45;&gt;Node10</title>
<path fill="none" stroke="#63b8ff" d="M99.9,-99.25C121.72,-85.31 155.93,-65.03 188,-52.5 198.54,-48.38 210.29,-45.02 221.31,-42.37"/>
<polygon fill="#63b8ff" stroke="#63b8ff" points="229.17,-40.56 222.18,-45.86 225.27,-41.46 221.37,-42.35 221.37,-42.35 221.37,-42.35 225.27,-41.46 220.57,-38.84 229.17,-40.56 229.17,-40.56"/>
</g>
<!-- Node5&#45;&gt;Node2 -->
<g id="edge5" class="edge">
<title>Node5&#45;&gt;Node2</title>
<path fill="none" stroke="#63b8ff" d="M288.99,-129.69C311.02,-143.2 344.86,-162.86 376,-176.5 380.65,-178.54 385.61,-180.47 390.57,-182.26"/>
<polygon fill="#63b8ff" stroke="#63b8ff" points="398.33,-184.96 389.59,-185.73 394.55,-183.65 390.77,-182.33 390.77,-182.33 390.77,-182.33 394.55,-183.65 391.95,-178.93 398.33,-184.96 398.33,-184.96"/>
</g>
<!-- Node5&#45;&gt;Node4 -->
<g id="edge9" class="edge">
<title>Node5&#45;&gt;Node4</title>
<path fill="none" stroke="#63b8ff" d="M323.06,-129.54C343.77,-134.9 366.76,-140.86 386.18,-145.89"/>
<polygon fill="#63b8ff" stroke="#63b8ff" points="393.99,-147.91 385.34,-149.39 390.12,-146.91 386.25,-145.91 386.25,-145.91 386.25,-145.91 390.12,-146.91 387.15,-142.42 393.99,-147.91 393.99,-147.91"/>
</g>
<!-- Node6 -->
<g id="node6" class="node">
<title>Node6</title>
<g id="a_node6"><a target="_parent" xlink:href="https://doc.qt.io/qt-5/qstring.html#fromLatin1" xlink:title=" ">
<polygon fill="white" stroke="#666666" points="488,-56 376,-56 376,-37 488,-37 488,-56"/>
<text text-anchor="middle" x="432" y="-44" font-family="Helvetica,sans-Serif" font-size="10.00">QString::fromLatin1</text>
</a>
</g>
</g>
<!-- Node5&#45;&gt;Node6 -->
<g id="edge6" class="edge">
<title>Node5&#45;&gt;Node6</title>
<path fill="none" stroke="#63b8ff" d="M319.09,-99.47C326.26,-96.82 333.41,-93.83 340,-90.5 357.62,-81.6 358.41,-73.45 376,-64.5 379.97,-62.48 384.22,-60.62 388.53,-58.92"/>
<polygon fill="#63b8ff" stroke="#63b8ff" points="396.3,-56.04 390.05,-62.19 392.55,-57.43 388.8,-58.82 388.8,-58.82 388.8,-58.82 392.55,-57.43 387.55,-55.44 396.3,-56.04 396.3,-56.04"/>
</g>
<!-- Node7 -->
<g id="node7" class="node">
<title>Node7</title>
<g id="a_node7"><a target="_parent" xlink:href="https://doc.qt.io/qt-5/qbytearray.html#left" xlink:title=" ">
<polygon fill="white" stroke="#666666" points="479,-19 385,-19 385,0 479,0 479,-19"/>
<text text-anchor="middle" x="432" y="-7" font-family="Helvetica,sans-Serif" font-size="10.00">QByteArray::left</text>
</a>
</g>
</g>
<!-- Node5&#45;&gt;Node7 -->
<g id="edge7" class="edge">
<title>Node5&#45;&gt;Node7</title>
<path fill="none" stroke="#63b8ff" d="M326,-99.42C331,-96.89 335.75,-93.94 340,-90.5 365.06,-70.21 351,-47.88 376,-27.5 378.1,-25.79 380.37,-24.23 382.75,-22.83"/>
<polygon fill="#63b8ff" stroke="#63b8ff" points="390.16,-19.03 384.68,-25.88 386.6,-20.86 383.04,-22.68 383.04,-22.68 383.04,-22.68 386.6,-20.86 381.4,-19.47 390.16,-19.03 390.16,-19.03"/>
</g>
<!-- Node8 -->
<g id="node8" class="node">
<title>Node8</title>
<g id="a_node8"><a target="_parent" xlink:href="https://doc.qt.io/qt-5/qbytearray.html#right" xlink:title=" ">
<polygon fill="white" stroke="#666666" points="482.5,-130 381.5,-130 381.5,-111 482.5,-111 482.5,-130"/>
<text text-anchor="middle" x="432" y="-118" font-family="Helvetica,sans-Serif" font-size="10.00">QByteArray::right</text>
</a>
</g>
</g>
<!-- Node5&#45;&gt;Node8 -->
<g id="edge8" class="edge">
<title>Node5&#45;&gt;Node8</title>
<path fill="none" stroke="#63b8ff" d="M340.23,-117.22C351.3,-117.62 362.56,-118.03 373.21,-118.41"/>
<polygon fill="#63b8ff" stroke="#63b8ff" points="381.22,-118.7 373.1,-122.01 377.23,-118.56 373.23,-118.41 373.23,-118.41 373.23,-118.41 377.23,-118.56 373.36,-114.81 381.22,-118.7 381.22,-118.7"/>
</g>
<!-- Node9 -->
<g id="node9" class="node">
<title>Node9</title>
<g id="a_node9"><a target="_parent" xlink:href="https://doc.qt.io/qt-5/qbytearray.html#toHex" xlink:title=" ">
<polygon fill="white" stroke="#666666" points="485.5,-93 378.5,-93 378.5,-74 485.5,-74 485.5,-93"/>
<text text-anchor="middle" x="432" y="-81" font-family="Helvetica,sans-Serif" font-size="10.00">QByteArray::toHex</text>
</a>
</g>
</g>
<!-- Node5&#45;&gt;Node9 -->
<g id="edge10" class="edge">
<title>Node5&#45;&gt;Node9</title>
<path fill="none" stroke="#63b8ff" d="M340.23,-100.45C350.79,-98.48 361.52,-96.48 371.72,-94.57"/>
<polygon fill="#63b8ff" stroke="#63b8ff" points="379.78,-93.06 372.58,-98.07 375.85,-93.8 371.92,-94.53 371.92,-94.53 371.92,-94.53 375.85,-93.8 371.26,-90.99 379.78,-93.06 379.78,-93.06"/>
</g>
</g>
</svg>
