<?xml version="1.0" encoding="UTF-8" standalone="no"?>
<!DOCTYPE svg PUBLIC "-//W3C//DTD SVG 1.1//EN"
 "http://www.w3.org/Graphics/SVG/1.1/DTD/svg11.dtd">
<!-- Generated by graphviz version 2.43.0 (0)
 -->
<!-- Title: DeviceCommand::controllerError Pages: 1 -->
<svg width="323pt" height="64pt"
 viewBox="0.00 0.00 323.00 64.00" xmlns="http://www.w3.org/2000/svg" xmlns:xlink="http://www.w3.org/1999/xlink">
<g id="graph0" class="graph" transform="scale(1 1) rotate(0) translate(4 60)">
<title>DeviceCommand::controllerError</title>
<!-- Node1 -->
<g id="node1" class="node">
<title>Node1</title>
<g id="a_node1"><a xlink:title="Handles controller error events.">
<polygon fill="#999999" stroke="#666666" points="153,-42.5 0,-42.5 0,-12.5 153,-12.5 153,-42.5"/>
<text text-anchor="start" x="8" y="-30.5" font-family="Helvetica,sans-Serif" font-size="10.00">DeviceCommand::controller</text>
<text text-anchor="middle" x="76.5" y="-19.5" font-family="Helvetica,sans-Serif" font-size="10.00">Error</text>
</a>
</g>
</g>
<!-- Node2 -->
<g id="node2" class="node">
<title>Node2</title>
<g id="a_node2"><a target="_parent" xlink:href="https://doc.qt.io/qt-5/qcoreapplication.html#exit" xlink:title=" ">
<polygon fill="white" stroke="#666666" points="315,-56 189,-56 189,-37 315,-37 315,-56"/>
<text text-anchor="middle" x="252" y="-44" font-family="Helvetica,sans-Serif" font-size="10.00">QCoreApplication::exit</text>
</a>
</g>
</g>
<!-- Node1&#45;&gt;Node2 -->
<g id="edge1" class="edge">
<title>Node1&#45;&gt;Node2</title>
<path fill="none" stroke="#63b8ff" d="M153.09,-35.78C162.35,-36.79 171.77,-37.82 180.94,-38.83"/>
<polygon fill="#63b8ff" stroke="#63b8ff" points="188.92,-39.7 180.57,-42.41 184.94,-39.27 180.96,-38.83 180.96,-38.83 180.96,-38.83 184.94,-39.27 181.36,-35.25 188.92,-39.7 188.92,-39.7"/>
</g>
<!-- Node3 -->
<g id="node3" class="node">
<title>Node3</title>
<g id="a_node3"><a target="_parent" xlink:href="https://doc.qt.io/qt-5/qobject.html#tr" xlink:title=" ">
<polygon fill="white" stroke="#666666" points="286.5,-19 217.5,-19 217.5,0 286.5,0 286.5,-19"/>
<text text-anchor="middle" x="252" y="-7" font-family="Helvetica,sans-Serif" font-size="10.00">QObject::tr</text>
</a>
</g>
</g>
<!-- Node1&#45;&gt;Node3 -->
<g id="edge2" class="edge">
<title>Node1&#45;&gt;Node3</title>
<path fill="none" stroke="#63b8ff" d="M153.09,-19.66C172.4,-17.65 192.45,-15.57 209.35,-13.82"/>
<polygon fill="#63b8ff" stroke="#63b8ff" points="217.37,-12.99 209.78,-17.4 213.39,-13.4 209.41,-13.81 209.41,-13.81 209.41,-13.81 213.39,-13.4 209.04,-10.23 217.37,-12.99 217.37,-12.99"/>
</g>
</g>
</svg>
