<?xml version="1.0" encoding="UTF-8" standalone="no"?>
<!DOCTYPE svg PUBLIC "-//W3C//DTD SVG 1.1//EN"
 "http://www.w3.org/Graphics/SVG/1.1/DTD/svg11.dtd">
<!-- Generated by graphviz version 2.43.0 (0)
 -->
<!-- Title: StatusCommand::getService Pages: 1 -->
<svg width="310pt" height="45pt"
 viewBox="0.00 0.00 310.00 45.00" xmlns="http://www.w3.org/2000/svg" xmlns:xlink="http://www.w3.org/1999/xlink">
<g id="graph0" class="graph" transform="scale(1 1) rotate(0) translate(4 41)">
<title>StatusCommand::getService</title>
<!-- Node1 -->
<g id="node1" class="node">
<title>Node1</title>
<g id="a_node1"><a xlink:title="Returns a Pokit service object for the derived command class.">
<polygon fill="#999999" stroke="#666666" points="155,-19 0,-19 0,0 155,0 155,-19"/>
<text text-anchor="middle" x="77.5" y="-7" font-family="Helvetica,sans-Serif" font-size="10.00">StatusCommand::getService</text>
</a>
</g>
</g>
<!-- Node2 -->
<g id="node2" class="node">
<title>Node2</title>
<g id="a_node2"><a xlink:href="classPokitDevice.html#adaaaedcb434b3dda9608ad58192e9142" target="_top" xlink:title="Returns a pointer to StatusService instance that uses this device&#39;s controller for access.">
<polygon fill="white" stroke="#666666" points="302,-19 191,-19 191,0 302,0 302,-19"/>
<text text-anchor="middle" x="246.5" y="-7" font-family="Helvetica,sans-Serif" font-size="10.00">PokitDevice::status</text>
</a>
</g>
</g>
<!-- Node1&#45;&gt;Node2 -->
<g id="edge1" class="edge">
<title>Node1&#45;&gt;Node2</title>
<path fill="none" stroke="#63b8ff" d="M155.16,-9.5C164.35,-9.5 173.65,-9.5 182.61,-9.5"/>
<polygon fill="#63b8ff" stroke="#63b8ff" points="190.74,-9.5 182.74,-13.1 186.74,-9.5 182.74,-9.5 182.74,-9.5 182.74,-9.5 186.74,-9.5 182.74,-5.9 190.74,-9.5 190.74,-9.5"/>
</g>
<!-- Node2&#45;&gt;Node2 -->
<g id="edge2" class="edge">
<title>Node2&#45;&gt;Node2</title>
<path fill="none" stroke="#63b8ff" d="M220.61,-19.08C208.01,-27.73 216.64,-37 246.5,-37 269.36,-37 279.78,-31.57 277.75,-25.14"/>
<polygon fill="#63b8ff" stroke="#63b8ff" points="272.39,-19.08 280.39,-22.69 275.04,-22.08 277.69,-25.07 277.69,-25.07 277.69,-25.07 275.04,-22.08 275,-27.46 272.39,-19.08 272.39,-19.08"/>
</g>
</g>
</svg>
