<?xml version="1.0" encoding="UTF-8" standalone="no"?>
<!DOCTYPE svg PUBLIC "-//W3C//DTD SVG 1.1//EN"
 "http://www.w3.org/Graphics/SVG/1.1/DTD/svg11.dtd">
<!-- Generated by graphviz version 2.43.0 (0)
 -->
<!-- Title: DsoCommand Pages: 1 -->
<svg width="1221pt" height="717pt"
 viewBox="0.00 0.00 1221.00 716.95" xmlns="http://www.w3.org/2000/svg" xmlns:xlink="http://www.w3.org/1999/xlink">
<g id="graph0" class="graph" transform="scale(1 1) rotate(0) translate(4 712.95)">
<title>DsoCommand</title>
<!-- Node1 -->
<g id="node1" class="node">
<title>Node1</title>
<g id="a_node1"><a xlink:title="The DsoCommand class implements the dso CLI command.">
<polygon fill="#999999" stroke="#666666" points="1201,-623.45 1115,-623.45 1115,-604.45 1201,-604.45 1201,-623.45"/>
<text text-anchor="middle" x="1158" y="-611.45" font-family="Helvetica,sans-Serif" font-size="10.00">DsoCommand</text>
</a>
</g>
</g>
<!-- Node2 -->
<g id="node2" class="node">
<title>Node2</title>
<g id="a_node2"><a xlink:href="classDeviceCommand.html" target="_top" xlink:title="The AbstractCommand class extends AbstractCommand to add a PokitDevice instance.">
<polygon fill="white" stroke="#666666" points="954.5,-605.45 853.5,-605.45 853.5,-586.45 954.5,-586.45 954.5,-605.45"/>
<text text-anchor="middle" x="904" y="-593.45" font-family="Helvetica,sans-Serif" font-size="10.00">DeviceCommand</text>
</a>
</g>
</g>
<!-- Node2&#45;&gt;Node1 -->
<g id="edge1" class="edge">
<title>Node2&#45;&gt;Node1</title>
<path fill="none" stroke="#63b8ff" d="M962.94,-600.09C1009.31,-603.4 1073.24,-607.97 1114.84,-610.94"/>
<polygon fill="#63b8ff" stroke="#63b8ff" points="954.79,-599.51 963.02,-596.48 958.78,-599.79 962.77,-600.08 962.77,-600.08 962.77,-600.08 958.78,-599.79 962.51,-603.67 954.79,-599.51 954.79,-599.51"/>
</g>
<!-- Node3 -->
<g id="node3" class="node">
<title>Node3</title>
<g id="a_node3"><a xlink:href="classAbstractCommand.html" target="_top" xlink:title="The AbstractCommand class provides a consistent base for the classes that implement CLI commands.">
<polygon fill="white" stroke="#666666" points="747,-642.45 640,-642.45 640,-623.45 747,-623.45 747,-642.45"/>
<text text-anchor="middle" x="693.5" y="-630.45" font-family="Helvetica,sans-Serif" font-size="10.00">AbstractCommand</text>
</a>
</g>
</g>
<!-- Node3&#45;&gt;Node2 -->
<g id="edge2" class="edge">
<title>Node3&#45;&gt;Node2</title>
<path fill="none" stroke="#63b8ff" d="M741.52,-621.59C756.34,-618.23 772.81,-614.71 788,-611.95 809.32,-608.08 833.01,-604.64 853.33,-601.95"/>
<polygon fill="#63b8ff" stroke="#63b8ff" points="733.48,-623.44 740.47,-618.14 737.37,-622.54 741.27,-621.65 741.27,-621.65 741.27,-621.65 737.37,-622.54 742.08,-625.16 733.48,-623.44 733.48,-623.44"/>
</g>
<!-- Node4 -->
<g id="node4" class="node">
<title>Node4</title>
<g id="a_node4"><a target="_parent" xlink:href="https://doc.qt.io/qt-5/qobject.html" xlink:title=" ">
<polygon fill="white" stroke="#bfbfbf" points="56,-472.45 0,-472.45 0,-453.45 56,-453.45 56,-472.45"/>
<text text-anchor="middle" x="28" y="-460.45" font-family="Helvetica,sans-Serif" font-size="10.00">QObject</text>
</a>
</g>
</g>
<!-- Node4&#45;&gt;Node3 -->
<g id="edge3" class="edge">
<title>Node4&#45;&gt;Node3</title>
<path fill="none" stroke="#63b8ff" d="M30.87,-480.57C35.29,-512.38 49.51,-578.88 93,-608.95 180.49,-669.45 510,-648.69 639.64,-637.82"/>
<polygon fill="#63b8ff" stroke="#63b8ff" points="29.87,-472.58 34.44,-480.07 30.37,-476.55 30.86,-480.52 30.86,-480.52 30.86,-480.52 30.37,-476.55 27.29,-480.96 29.87,-472.58 29.87,-472.58"/>
</g>
<!-- Node7 -->
<g id="node7" class="node">
<title>Node7</title>
<g id="a_node7"><a target="_parent" xlink:href="https://doc.qt.io/qt-5/qbluetoothdevicediscoveryagent.html" xlink:title=" ">
<polygon fill="white" stroke="#bfbfbf" points="247,-599.95 93,-599.95 93,-569.95 247,-569.95 247,-599.95"/>
<text text-anchor="start" x="101" y="-587.95" font-family="Helvetica,sans-Serif" font-size="10.00">QBluetoothDeviceDiscovery</text>
<text text-anchor="middle" x="170" y="-576.95" font-family="Helvetica,sans-Serif" font-size="10.00">Agent</text>
</a>
</g>
</g>
<!-- Node4&#45;&gt;Node7 -->
<g id="edge7" class="edge">
<title>Node4&#45;&gt;Node7</title>
<path fill="none" stroke="#63b8ff" d="M33.36,-480.4C39.27,-500.6 51.74,-533.58 74,-552.95 82.14,-560.03 91.91,-565.56 102.04,-569.87"/>
<polygon fill="#63b8ff" stroke="#63b8ff" points="31.21,-472.6 36.8,-479.36 32.27,-476.45 33.33,-480.31 33.33,-480.31 33.33,-480.31 32.27,-476.45 29.86,-481.26 31.21,-472.6 31.21,-472.6"/>
</g>
<!-- Node8 -->
<g id="node8" class="node">
<title>Node8</title>
<g id="a_node8"><a xlink:href="classPokitDiscoveryAgentPrivate.html" target="_top" xlink:title="The PokitDiscoveryAgentPrivate class provides private implementation for PokitDiscoveryAgent.">
<polygon fill="white" stroke="#666666" points="770,-574.45 617,-574.45 617,-555.45 770,-555.45 770,-574.45"/>
<text text-anchor="middle" x="693.5" y="-562.45" font-family="Helvetica,sans-Serif" font-size="10.00">PokitDiscoveryAgentPrivate</text>
</a>
</g>
</g>
<!-- Node4&#45;&gt;Node8 -->
<g id="edge9" class="edge">
<title>Node4&#45;&gt;Node8</title>
<path fill="none" stroke="#63b8ff" d="M38.48,-479.63C46.32,-491.69 58.64,-507.19 74,-514.95 178.46,-567.71 482.42,-545.79 599,-555.95 604.85,-556.46 610.9,-557 616.98,-557.56"/>
<polygon fill="#63b8ff" stroke="#63b8ff" points="34.19,-472.65 41.44,-477.58 36.28,-476.06 38.38,-479.47 38.38,-479.47 38.38,-479.47 36.28,-476.06 35.31,-481.35 34.19,-472.65 34.19,-472.65"/>
</g>
<!-- Node9 -->
<g id="node9" class="node">
<title>Node9</title>
<g id="a_node9"><a xlink:href="classPokitDevice.html" target="_top" xlink:title="The PokitDevice class simplifies Pokit device access.">
<polygon fill="white" stroke="#666666" points="731,-472.45 656,-472.45 656,-453.45 731,-453.45 731,-472.45"/>
<text text-anchor="middle" x="693.5" y="-460.45" font-family="Helvetica,sans-Serif" font-size="10.00">PokitDevice</text>
</a>
</g>
</g>
<!-- Node4&#45;&gt;Node9 -->
<g id="edge12" class="edge">
<title>Node4&#45;&gt;Node9</title>
<path fill="none" stroke="#63b8ff" d="M64.38,-462.95C178.91,-462.95 538.9,-462.95 655.59,-462.95"/>
<polygon fill="#63b8ff" stroke="#63b8ff" points="56.25,-462.95 64.25,-459.35 60.25,-462.95 64.25,-462.95 64.25,-462.95 64.25,-462.95 60.25,-462.95 64.25,-466.55 56.25,-462.95 56.25,-462.95"/>
</g>
<!-- Node10 -->
<g id="node10" class="node">
<title>Node10</title>
<g id="a_node10"><a xlink:href="classPokitDevicePrivate.html" target="_top" xlink:title="The PokitDevicePrivate class provides private implementation for PokitDevice.">
<polygon fill="white" stroke="#666666" points="1213,-286.45 1103,-286.45 1103,-267.45 1213,-267.45 1213,-286.45"/>
<text text-anchor="middle" x="1158" y="-274.45" font-family="Helvetica,sans-Serif" font-size="10.00">PokitDevicePrivate</text>
</a>
</g>
</g>
<!-- Node4&#45;&gt;Node10 -->
<g id="edge14" class="edge">
<title>Node4&#45;&gt;Node10</title>
<path fill="none" stroke="#63b8ff" d="M63.17,-474.69C66.79,-475.6 70.45,-476.38 74,-476.95 411.12,-530.65 500.64,-485.5 842,-487.95 950.15,-488.72 999.92,-541.72 1085,-474.95 1146.86,-426.4 1155.6,-319.74 1156.81,-286.82"/>
<polygon fill="#63b8ff" stroke="#63b8ff" points="55.35,-472.53 64.02,-471.19 59.2,-473.59 63.06,-474.66 63.06,-474.66 63.06,-474.66 59.2,-473.59 62.1,-478.13 55.35,-472.53 55.35,-472.53"/>
</g>
<!-- Node11 -->
<g id="node11" class="node">
<title>Node11</title>
<g id="a_node11"><a target="_parent" xlink:href="https://doc.qt.io/qt-5/qlowenergycontroller.html" xlink:title=" ">
<polygon fill="white" stroke="#bfbfbf" points="232.5,-434.45 107.5,-434.45 107.5,-415.45 232.5,-415.45 232.5,-434.45"/>
<text text-anchor="middle" x="170" y="-422.45" font-family="Helvetica,sans-Serif" font-size="10.00">QLowEnergyController</text>
</a>
</g>
</g>
<!-- Node4&#45;&gt;Node11 -->
<g id="edge16" class="edge">
<title>Node4&#45;&gt;Node11</title>
<path fill="none" stroke="#63b8ff" d="M63.92,-451.88C67.32,-450.87 70.72,-449.87 74,-448.95 92.01,-443.88 112.08,-438.73 129.12,-434.51"/>
<polygon fill="#63b8ff" stroke="#63b8ff" points="56.06,-454.27 62.66,-448.5 59.88,-453.11 63.71,-451.95 63.71,-451.95 63.71,-451.95 59.88,-453.11 64.76,-455.39 56.06,-454.27 56.06,-454.27"/>
</g>
<!-- Node13 -->
<g id="node13" class="node">
<title>Node13</title>
<g id="a_node13"><a xlink:href="classAbstractPokitService.html" target="_top" xlink:title="The AbstractPokitService class provides a common base for Pokit services classes.">
<polygon fill="white" stroke="#666666" points="752.5,-260.45 634.5,-260.45 634.5,-241.45 752.5,-241.45 752.5,-260.45"/>
<text text-anchor="middle" x="693.5" y="-248.45" font-family="Helvetica,sans-Serif" font-size="10.00">AbstractPokitService</text>
</a>
</g>
</g>
<!-- Node4&#45;&gt;Node13 -->
<g id="edge19" class="edge">
<title>Node4&#45;&gt;Node13</title>
<path fill="none" stroke="#63b8ff" d="M30.81,-445.13C35.18,-411.53 49.42,-338.6 93,-298.95 171.01,-227.99 499.17,-239.13 634.14,-246.98"/>
<polygon fill="#63b8ff" stroke="#63b8ff" points="29.86,-453.15 27.22,-444.78 30.33,-449.18 30.8,-445.21 30.8,-445.21 30.8,-445.21 30.33,-449.18 34.37,-445.63 29.86,-453.15 29.86,-453.15"/>
</g>
<!-- Node14 -->
<g id="node14" class="node">
<title>Node14</title>
<g id="a_node14"><a xlink:href="classAbstractPokitServicePrivate.html" target="_top" xlink:title="The AbstractPokitServicePrivate class provides private implementation for AbstractPokitService.">
<polygon fill="white" stroke="#666666" points="496,-297.45 344,-297.45 344,-278.45 496,-278.45 496,-297.45"/>
<text text-anchor="middle" x="420" y="-285.45" font-family="Helvetica,sans-Serif" font-size="10.00">AbstractPokitServicePrivate</text>
</a>
</g>
</g>
<!-- Node4&#45;&gt;Node14 -->
<g id="edge21" class="edge">
<title>Node4&#45;&gt;Node14</title>
<path fill="none" stroke="#63b8ff" d="M35.47,-445.62C44.73,-423.26 63.92,-384.75 93,-363.95 167.21,-310.87 273.01,-294.31 343.74,-289.44"/>
<polygon fill="#63b8ff" stroke="#63b8ff" points="32.41,-453.34 32.01,-444.57 33.88,-449.62 35.36,-445.9 35.36,-445.9 35.36,-445.9 33.88,-449.62 38.7,-447.23 32.41,-453.34 32.41,-453.34"/>
</g>
<!-- Node15 -->
<g id="node15" class="node">
<title>Node15</title>
<g id="a_node15"><a target="_parent" xlink:href="https://doc.qt.io/qt-5/qlowenergyservice.html" xlink:title=" ">
<polygon fill="white" stroke="#bfbfbf" points="226.5,-392.45 113.5,-392.45 113.5,-373.45 226.5,-373.45 226.5,-392.45"/>
<text text-anchor="middle" x="170" y="-380.45" font-family="Helvetica,sans-Serif" font-size="10.00">QLowEnergyService</text>
</a>
</g>
</g>
<!-- Node4&#45;&gt;Node15 -->
<g id="edge24" class="edge">
<title>Node4&#45;&gt;Node15</title>
<path fill="none" stroke="#63b8ff" d="M43.26,-446.87C55.36,-434.12 73.77,-416.73 93,-405.95 103.1,-400.29 114.76,-395.87 125.86,-392.48"/>
<polygon fill="#63b8ff" stroke="#63b8ff" points="37.54,-453.05 40.33,-444.73 40.26,-450.11 42.98,-447.18 42.98,-447.18 42.98,-447.18 40.26,-450.11 45.62,-449.62 37.54,-453.05 37.54,-453.05"/>
</g>
<!-- Node5 -->
<g id="node5" class="node">
<title>Node5</title>
<g id="a_node5"><a target="_parent" xlink:href="https://doc.qt.io/qt-5/qstring.html" xlink:title=" ">
<polygon fill="white" stroke="#bfbfbf" points="446.5,-706.45 393.5,-706.45 393.5,-687.45 446.5,-687.45 446.5,-706.45"/>
<text text-anchor="middle" x="420" y="-694.45" font-family="Helvetica,sans-Serif" font-size="10.00">QString</text>
</a>
</g>
</g>
<!-- Node5&#45;&gt;Node3 -->
<g id="edge4" class="edge">
<title>Node5&#45;&gt;Node3</title>
<path fill="none" stroke="#9a32cd" stroke-dasharray="5,2" d="M454.81,-699.5C492.42,-700.79 553.83,-698.19 599,-672.95 610.03,-666.79 606.29,-657.65 617,-650.95 623.97,-646.59 631.9,-643.28 639.94,-640.78"/>
<polygon fill="#9a32cd" stroke="#9a32cd" points="446.7,-699.15 454.85,-695.9 450.7,-699.32 454.7,-699.49 454.7,-699.49 454.7,-699.49 450.7,-699.32 454.54,-703.09 446.7,-699.15 446.7,-699.15"/>
<text text-anchor="middle" x="556.5" y="-700.95" font-family="Helvetica,sans-Serif" font-size="10.00"> deviceToScanFor</text>
</g>
<!-- Node6 -->
<g id="node6" class="node">
<title>Node6</title>
<g id="a_node6"><a xlink:href="classPokitDiscoveryAgent.html" target="_top" xlink:title="The PokitDiscoveryAgent class discovers nearby Pokit devices.">
<polygon fill="white" stroke="#666666" points="479.5,-606.45 360.5,-606.45 360.5,-587.45 479.5,-587.45 479.5,-606.45"/>
<text text-anchor="middle" x="420" y="-594.45" font-family="Helvetica,sans-Serif" font-size="10.00">PokitDiscoveryAgent</text>
</a>
</g>
</g>
<!-- Node6&#45;&gt;Node3 -->
<g id="edge5" class="edge">
<title>Node6&#45;&gt;Node3</title>
<path fill="none" stroke="#9a32cd" stroke-dasharray="5,2" d="M487.57,-605.78C534.52,-612 596.53,-620.22 640,-625.99"/>
<polygon fill="#9a32cd" stroke="#9a32cd" points="479.58,-604.72 487.98,-602.2 483.54,-605.24 487.51,-605.77 487.51,-605.77 487.51,-605.77 483.54,-605.24 487.03,-609.34 479.58,-604.72 479.58,-604.72"/>
<text text-anchor="middle" x="556.5" y="-623.95" font-family="Helvetica,sans-Serif" font-size="10.00"> discoveryAgent</text>
</g>
<!-- Node6&#45;&gt;Node8 -->
<g id="edge10" class="edge">
<title>Node6&#45;&gt;Node8</title>
<path fill="none" stroke="#9a32cd" stroke-dasharray="5,2" d="M487.87,-589.69C521.27,-586 562.28,-581.37 599,-576.95 605.58,-576.16 612.42,-575.32 619.27,-574.46"/>
<polygon fill="#9a32cd" stroke="#9a32cd" points="479.55,-590.61 487.11,-586.15 483.53,-590.17 487.5,-589.73 487.5,-589.73 487.5,-589.73 483.53,-590.17 487.9,-593.31 479.55,-590.61 479.55,-590.61"/>
<text text-anchor="middle" x="556.5" y="-589.95" font-family="Helvetica,sans-Serif" font-size="10.00"> q_ptr</text>
</g>
<!-- Node7&#45;&gt;Node6 -->
<g id="edge6" class="edge">
<title>Node7&#45;&gt;Node6</title>
<path fill="none" stroke="#63b8ff" d="M255.31,-589.03C289.87,-590.7 329.03,-592.6 360.38,-594.11"/>
<polygon fill="#63b8ff" stroke="#63b8ff" points="247.09,-588.63 255.26,-585.42 251.09,-588.82 255.08,-589.02 255.08,-589.02 255.08,-589.02 251.09,-588.82 254.91,-592.61 247.09,-588.63 247.09,-588.63"/>
</g>
<!-- Node8&#45;&gt;Node6 -->
<g id="edge8" class="edge">
<title>Node8&#45;&gt;Node6</title>
<path fill="none" stroke="#9a32cd" stroke-dasharray="5,2" d="M608.57,-559.99C578.56,-559.64 544.6,-560.89 514,-565.95 488.98,-570.08 461.58,-579.9 443.05,-587.39"/>
<polygon fill="#9a32cd" stroke="#9a32cd" points="616.93,-560.12 608.87,-563.59 612.93,-560.06 608.93,-559.99 608.93,-559.99 608.93,-559.99 612.93,-560.06 608.99,-556.39 616.93,-560.12 616.93,-560.12"/>
<text text-anchor="middle" x="556.5" y="-568.95" font-family="Helvetica,sans-Serif" font-size="10.00"> d_ptr</text>
</g>
<!-- Node9&#45;&gt;Node2 -->
<g id="edge11" class="edge">
<title>Node9&#45;&gt;Node2</title>
<path fill="none" stroke="#9a32cd" stroke-dasharray="5,2" d="M716.34,-476.88C758.78,-503.95 851.43,-563.06 887.86,-586.29"/>
<polygon fill="#9a32cd" stroke="#9a32cd" points="709.49,-472.51 718.18,-473.78 712.87,-474.67 716.24,-476.82 716.24,-476.82 716.24,-476.82 712.87,-474.67 714.3,-479.85 709.49,-472.51 709.49,-472.51"/>
<text text-anchor="middle" x="806" y="-548.95" font-family="Helvetica,sans-Serif" font-size="10.00"> device</text>
</g>
<!-- Node9&#45;&gt;Node10 -->
<g id="edge48" class="edge">
<title>Node9&#45;&gt;Node10</title>
<path fill="none" stroke="#9a32cd" stroke-dasharray="5,2" d="M739.42,-455.83C835.86,-440.27 1056.36,-403.09 1085,-383.95 1122.23,-359.07 1145.24,-307.76 1153.52,-286.5"/>
<polygon fill="#9a32cd" stroke="#9a32cd" points="731.31,-457.14 738.64,-452.31 735.26,-456.5 739.21,-455.87 739.21,-455.87 739.21,-455.87 735.26,-456.5 739.78,-459.42 731.31,-457.14 731.31,-457.14"/>
<text text-anchor="middle" x="904" y="-441.95" font-family="Helvetica,sans-Serif" font-size="10.00"> q_ptr</text>
</g>
<!-- Node10&#45;&gt;Node9 -->
<g id="edge13" class="edge">
<title>Node10&#45;&gt;Node9</title>
<path fill="none" stroke="#9a32cd" stroke-dasharray="5,2" d="M1155.61,-294.72C1151.72,-330.91 1137.28,-412.79 1085,-448.95 1028.51,-488.02 817.05,-474.04 731.13,-466.49"/>
<polygon fill="#9a32cd" stroke="#9a32cd" points="1156.39,-286.56 1159.21,-294.86 1156.01,-290.54 1155.63,-294.52 1155.63,-294.52 1155.63,-294.52 1156.01,-290.54 1152.04,-294.18 1156.39,-286.56 1156.39,-286.56"/>
<text text-anchor="middle" x="904" y="-478.95" font-family="Helvetica,sans-Serif" font-size="10.00"> d_ptr</text>
</g>
<!-- Node11&#45;&gt;Node10 -->
<g id="edge15" class="edge">
<title>Node11&#45;&gt;Node10</title>
<path fill="none" stroke="#9a32cd" stroke-dasharray="5,2" d="M240.83,-423.83C427.27,-419.97 932.91,-403.68 1085,-338.95 1112.62,-327.19 1137.36,-300.82 1149.35,-286.55"/>
<polygon fill="#9a32cd" stroke="#9a32cd" points="232.73,-423.99 240.65,-420.23 236.73,-423.91 240.73,-423.83 240.73,-423.83 240.73,-423.83 236.73,-423.91 240.8,-427.43 232.73,-423.99 232.73,-423.99"/>
<text text-anchor="middle" x="693.5" y="-410.95" font-family="Helvetica,sans-Serif" font-size="10.00"> controller</text>
</g>
<!-- Node11&#45;&gt;Node14 -->
<g id="edge22" class="edge">
<title>Node11&#45;&gt;Node14</title>
<path fill="none" stroke="#9a32cd" stroke-dasharray="5,2" d="M213.02,-412.94C224.19,-409.41 236.15,-405.31 247,-400.95 283.33,-386.34 292.94,-382.93 326,-361.95 357.88,-341.72 391.71,-312.6 408.4,-297.63"/>
<polygon fill="#9a32cd" stroke="#9a32cd" points="205.06,-415.41 211.64,-409.6 208.88,-414.22 212.7,-413.04 212.7,-413.04 212.7,-413.04 208.88,-414.22 213.77,-416.48 205.06,-415.41 205.06,-415.41"/>
<text text-anchor="middle" x="295.5" y="-396.95" font-family="Helvetica,sans-Serif" font-size="10.00"> controller</text>
</g>
<!-- Node12 -->
<g id="node12" class="node">
<title>Node12</title>
<g id="a_node12"><a xlink:href="classCalibrationService.html" target="_top" xlink:title="The CalibrationService class accesses the Calibrartion service of Pokit devices.">
<polygon fill="white" stroke="#666666" points="957,-304.45 851,-304.45 851,-285.45 957,-285.45 957,-304.45"/>
<text text-anchor="middle" x="904" y="-292.45" font-family="Helvetica,sans-Serif" font-size="10.00">CalibrationService</text>
</a>
</g>
</g>
<!-- Node12&#45;&gt;Node10 -->
<g id="edge17" class="edge">
<title>Node12&#45;&gt;Node10</title>
<path fill="none" stroke="#9a32cd" stroke-dasharray="5,2" d="M965.38,-290.64C1007.16,-287.65 1062.28,-283.71 1102.68,-280.83"/>
<polygon fill="#9a32cd" stroke="#9a32cd" points="957.21,-291.22 964.94,-287.06 961.2,-290.93 965.19,-290.65 965.19,-290.65 965.19,-290.65 961.2,-290.93 965.45,-294.24 957.21,-291.22 957.21,-291.22"/>
<text text-anchor="middle" x="1034.5" y="-292.95" font-family="Helvetica,sans-Serif" font-size="10.00"> calibration</text>
</g>
<!-- Node13&#45;&gt;Node12 -->
<g id="edge18" class="edge">
<title>Node13&#45;&gt;Node12</title>
<path fill="none" stroke="#63b8ff" d="M747.74,-262.18C781.79,-269.37 825.49,-278.59 857.85,-285.42"/>
<polygon fill="#63b8ff" stroke="#63b8ff" points="739.74,-260.5 748.31,-258.63 743.66,-261.32 747.57,-262.15 747.57,-262.15 747.57,-262.15 743.66,-261.32 746.83,-265.67 739.74,-260.5 739.74,-260.5"/>
</g>
<!-- Node13&#45;&gt;Node14 -->
<g id="edge27" class="edge">
<title>Node13&#45;&gt;Node14</title>
<path fill="none" stroke="#9a32cd" stroke-dasharray="5,2" d="M625.77,-248.66C592.02,-248.65 550.58,-250.38 514,-256.95 489.21,-261.4 462,-271.07 443.45,-278.43"/>
<polygon fill="#9a32cd" stroke="#9a32cd" points="634.17,-248.7 626.16,-252.26 630.18,-248.68 626.18,-248.66 626.18,-248.66 626.18,-248.66 630.18,-248.68 626.19,-245.06 634.17,-248.7 634.17,-248.7"/>
<text text-anchor="middle" x="556.5" y="-259.95" font-family="Helvetica,sans-Serif" font-size="10.00"> q_ptr</text>
</g>
<!-- Node18 -->
<g id="node18" class="node">
<title>Node18</title>
<g id="a_node18"><a xlink:href="classDataLoggerService.html" target="_top" xlink:title="The DataLoggerService class accesses the Pokit Status service of Pokit devices.">
<polygon fill="white" stroke="#666666" points="958.5,-230.45 849.5,-230.45 849.5,-211.45 958.5,-211.45 958.5,-230.45"/>
<text text-anchor="middle" x="904" y="-218.45" font-family="Helvetica,sans-Serif" font-size="10.00">DataLoggerService</text>
</a>
</g>
</g>
<!-- Node13&#45;&gt;Node18 -->
<g id="edge30" class="edge">
<title>Node13&#45;&gt;Node18</title>
<path fill="none" stroke="#63b8ff" d="M760.51,-241.45C789.09,-237.34 822.11,-232.59 849.16,-228.7"/>
<polygon fill="#63b8ff" stroke="#63b8ff" points="752.58,-242.59 759.98,-237.89 756.54,-242.02 760.5,-241.45 760.5,-241.45 760.5,-241.45 756.54,-242.02 761.01,-245.02 752.58,-242.59 752.58,-242.59"/>
</g>
<!-- Node19 -->
<g id="node19" class="node">
<title>Node19</title>
<g id="a_node19"><a xlink:href="classDeviceInfoService.html" target="_top" xlink:title="The DeviceInfoService class accesses the Device Info service of Pokit devices.">
<polygon fill="white" stroke="#666666" points="956.5,-93.45 851.5,-93.45 851.5,-74.45 956.5,-74.45 956.5,-93.45"/>
<text text-anchor="middle" x="904" y="-81.45" font-family="Helvetica,sans-Serif" font-size="10.00">DeviceInfoService</text>
</a>
</g>
</g>
<!-- Node13&#45;&gt;Node19 -->
<g id="edge33" class="edge">
<title>Node13&#45;&gt;Node19</title>
<path fill="none" stroke="#63b8ff" d="M708.79,-235.2C733.85,-208.19 788.22,-152.34 842,-114.95 854.09,-106.54 868.78,-99 880.72,-93.47"/>
<polygon fill="#63b8ff" stroke="#63b8ff" points="703.06,-241.42 705.83,-233.09 705.77,-238.47 708.48,-235.53 708.48,-235.53 708.48,-235.53 705.77,-238.47 711.13,-237.97 703.06,-241.42 703.06,-241.42"/>
</g>
<!-- Node20 -->
<g id="node20" class="node">
<title>Node20</title>
<g id="a_node20"><a xlink:href="classDsoService.html" target="_top" xlink:title="The DsoService class accesses the Pokit Status service of Pokit devices.">
<polygon fill="white" stroke="#666666" points="939.5,-341.45 868.5,-341.45 868.5,-322.45 939.5,-322.45 939.5,-341.45"/>
<text text-anchor="middle" x="904" y="-329.45" font-family="Helvetica,sans-Serif" font-size="10.00">DsoService</text>
</a>
</g>
</g>
<!-- Node13&#45;&gt;Node20 -->
<g id="edge36" class="edge">
<title>Node13&#45;&gt;Node20</title>
<path fill="none" stroke="#63b8ff" d="M723.2,-263.98C752.69,-277.14 800.08,-297.65 842,-312.95 851.07,-316.26 861.01,-319.51 870.2,-322.37"/>
<polygon fill="#63b8ff" stroke="#63b8ff" points="715.74,-260.64 724.51,-260.62 719.39,-262.27 723.04,-263.91 723.04,-263.91 723.04,-263.91 719.39,-262.27 721.57,-267.19 715.74,-260.64 715.74,-260.64"/>
</g>
<!-- Node21 -->
<g id="node21" class="node">
<title>Node21</title>
<g id="a_node21"><a xlink:href="classGenericAccessService.html" target="_top" xlink:title="The GenericAccessService class accesses the Generic Access service of Pokit devices.">
<polygon fill="white" stroke="#666666" points="966,-193.45 842,-193.45 842,-174.45 966,-174.45 966,-193.45"/>
<text text-anchor="middle" x="904" y="-181.45" font-family="Helvetica,sans-Serif" font-size="10.00">GenericAccessService</text>
</a>
</g>
</g>
<!-- Node13&#45;&gt;Node21 -->
<g id="edge39" class="edge">
<title>Node13&#45;&gt;Node21</title>
<path fill="none" stroke="#63b8ff" d="M730.06,-238.76C759.86,-228.64 803.59,-213.99 842,-201.95 851.06,-199.11 860.92,-196.14 870.01,-193.46"/>
<polygon fill="#63b8ff" stroke="#63b8ff" points="722.41,-241.36 728.82,-235.38 726.2,-240.08 729.98,-238.79 729.98,-238.79 729.98,-238.79 726.2,-240.08 731.14,-242.2 722.41,-241.36 722.41,-241.36"/>
</g>
<!-- Node22 -->
<g id="node22" class="node">
<title>Node22</title>
<g id="a_node22"><a xlink:href="classMultimeterService.html" target="_top" xlink:title="The MultimeterService class accesses the Pokit Status service of Pokit devices.">
<polygon fill="white" stroke="#666666" points="957.5,-143.45 850.5,-143.45 850.5,-124.45 957.5,-124.45 957.5,-143.45"/>
<text text-anchor="middle" x="904" y="-131.45" font-family="Helvetica,sans-Serif" font-size="10.00">MultimeterService</text>
</a>
</g>
</g>
<!-- Node13&#45;&gt;Node22 -->
<g id="edge42" class="edge">
<title>Node13&#45;&gt;Node22</title>
<path fill="none" stroke="#63b8ff" d="M717.43,-237.03C746.24,-219.66 797.32,-189.3 842,-164.95 855.66,-157.5 871.32,-149.56 883.35,-143.58"/>
<polygon fill="#63b8ff" stroke="#63b8ff" points="710.26,-241.36 715.25,-234.14 713.69,-239.29 717.11,-237.22 717.11,-237.22 717.11,-237.22 713.69,-239.29 718.97,-240.3 710.26,-241.36 710.26,-241.36"/>
</g>
<!-- Node23 -->
<g id="node23" class="node">
<title>Node23</title>
<g id="a_node23"><a xlink:href="classStatusService.html" target="_top" xlink:title="The StatusService class accesses the Pokit Status service of Pokit devices.">
<polygon fill="white" stroke="#666666" points="945.5,-267.45 862.5,-267.45 862.5,-248.45 945.5,-248.45 945.5,-267.45"/>
<text text-anchor="middle" x="904" y="-255.45" font-family="Helvetica,sans-Serif" font-size="10.00">StatusService</text>
</a>
</g>
</g>
<!-- Node13&#45;&gt;Node23 -->
<g id="edge45" class="edge">
<title>Node13&#45;&gt;Node23</title>
<path fill="none" stroke="#63b8ff" d="M760.92,-253.18C794.26,-254.3 833.58,-255.62 862.39,-256.59"/>
<polygon fill="#63b8ff" stroke="#63b8ff" points="752.58,-252.9 760.7,-249.57 756.58,-253.03 760.57,-253.17 760.57,-253.17 760.57,-253.17 756.58,-253.03 760.45,-256.77 752.58,-252.9 752.58,-252.9"/>
</g>
<!-- Node14&#45;&gt;Node13 -->
<g id="edge20" class="edge">
<title>Node14&#45;&gt;Node13</title>
<path fill="none" stroke="#9a32cd" stroke-dasharray="5,2" d="M504.45,-281.24C534.35,-278.38 568.26,-274.61 599,-269.95 615.87,-267.39 634.3,-263.81 650.3,-260.45"/>
<polygon fill="#9a32cd" stroke="#9a32cd" points="496.12,-282.03 503.75,-277.69 500.11,-281.65 504.09,-281.28 504.09,-281.28 504.09,-281.28 500.11,-281.65 504.43,-284.86 496.12,-282.03 496.12,-282.03"/>
<text text-anchor="middle" x="556.5" y="-283.95" font-family="Helvetica,sans-Serif" font-size="10.00"> d_ptr</text>
</g>
<!-- Node15&#45;&gt;Node14 -->
<g id="edge23" class="edge">
<title>Node15&#45;&gt;Node14</title>
<path fill="none" stroke="#9a32cd" stroke-dasharray="5,2" d="M203.82,-370.38C254.11,-351.11 349.14,-314.71 394.16,-297.47"/>
<polygon fill="#9a32cd" stroke="#9a32cd" points="196.14,-373.32 202.33,-367.09 199.88,-371.89 203.61,-370.46 203.61,-370.46 203.61,-370.46 199.88,-371.89 204.9,-373.82 196.14,-373.32 196.14,-373.32"/>
<text text-anchor="middle" x="295.5" y="-349.95" font-family="Helvetica,sans-Serif" font-size="10.00"> service</text>
</g>
<!-- Node16 -->
<g id="node16" class="node">
<title>Node16</title>
<g id="a_node16"><a target="_parent" xlink:href="https://doc.qt.io/qt-5/qbluetoothuuid.html" xlink:title=" ">
<polygon fill="white" stroke="#bfbfbf" points="217,-207.45 123,-207.45 123,-188.45 217,-188.45 217,-207.45"/>
<text text-anchor="middle" x="170" y="-195.45" font-family="Helvetica,sans-Serif" font-size="10.00">QBluetoothUuid</text>
</a>
</g>
</g>
<!-- Node16&#45;&gt;Node12 -->
<g id="edge28" class="edge">
<title>Node16&#45;&gt;Node12</title>
<path fill="none" stroke="#9a32cd" stroke-dasharray="5,2" d="M186.99,-213.34C215.61,-239.55 278.73,-291.42 344,-305.95 526.63,-346.6 751.14,-319.8 850.94,-304.08"/>
<polygon fill="#9a32cd" stroke="#9a32cd" points="180.79,-207.56 189.09,-210.38 183.71,-210.29 186.64,-213.02 186.64,-213.02 186.64,-213.02 183.71,-210.29 184.19,-215.65 180.79,-207.56 180.79,-207.56"/>
<text text-anchor="middle" x="556.5" y="-330.95" font-family="Helvetica,sans-Serif" font-size="10.00"> serviceUuid</text>
</g>
<!-- Node16&#45;&gt;Node14 -->
<g id="edge25" class="edge">
<title>Node16&#45;&gt;Node14</title>
<path fill="none" stroke="#9a32cd" stroke-dasharray="5,2" d="M205.2,-210.36C255.27,-228.53 347.47,-261.99 392.65,-278.39"/>
<polygon fill="#9a32cd" stroke="#9a32cd" points="197.54,-207.58 206.29,-206.93 201.3,-208.95 205.06,-210.31 205.06,-210.31 205.06,-210.31 201.3,-208.95 203.83,-213.69 197.54,-207.58 197.54,-207.58"/>
<text text-anchor="middle" x="295.5" y="-256.95" font-family="Helvetica,sans-Serif" font-size="10.00"> serviceUuid</text>
</g>
<!-- Node16&#45;&gt;Node18 -->
<g id="edge31" class="edge">
<title>Node16&#45;&gt;Node18</title>
<path fill="none" stroke="#9a32cd" stroke-dasharray="5,2" d="M225.36,-197.08C306.66,-196.05 464.75,-195 599,-199.95 686.76,-203.18 788.53,-211.05 849.24,-216.19"/>
<polygon fill="#9a32cd" stroke="#9a32cd" points="217.25,-197.19 225.21,-193.49 221.25,-197.14 225.25,-197.09 225.25,-197.09 225.25,-197.09 221.25,-197.14 225.3,-200.69 217.25,-197.19 217.25,-197.19"/>
<text text-anchor="middle" x="556.5" y="-202.95" font-family="Helvetica,sans-Serif" font-size="10.00"> serviceUuid</text>
</g>
<!-- Node16&#45;&gt;Node19 -->
<g id="edge34" class="edge">
<title>Node16&#45;&gt;Node19</title>
<path fill="none" stroke="#9a32cd" stroke-dasharray="5,2" d="M198.25,-185C216.74,-176.62 241.94,-166 265,-158.95 299.26,-148.48 308.59,-148.39 344,-142.95 529.68,-114.41 752.19,-95.43 851.15,-87.77"/>
<polygon fill="#9a32cd" stroke="#9a32cd" points="190.76,-188.43 196.53,-181.82 194.39,-186.76 198.03,-185.1 198.03,-185.1 198.03,-185.1 194.39,-186.76 199.53,-188.37 190.76,-188.43 190.76,-188.43"/>
<text text-anchor="middle" x="556.5" y="-123.95" font-family="Helvetica,sans-Serif" font-size="10.00"> serviceUuid</text>
</g>
<!-- Node16&#45;&gt;Node20 -->
<g id="edge37" class="edge">
<title>Node16&#45;&gt;Node20</title>
<path fill="none" stroke="#9a32cd" stroke-dasharray="5,2" d="M181.96,-214.21C197.84,-236.62 229.28,-276.95 265,-300.95 296.05,-321.8 307.43,-322.11 344,-329.95 538.53,-371.64 779.97,-347.84 868.44,-336.71"/>
<polygon fill="#9a32cd" stroke="#9a32cd" points="177.37,-207.6 184.89,-212.11 179.65,-210.89 181.94,-214.17 181.94,-214.17 181.94,-214.17 179.65,-210.89 178.98,-216.23 177.37,-207.6 177.37,-207.6"/>
<text text-anchor="middle" x="556.5" y="-356.95" font-family="Helvetica,sans-Serif" font-size="10.00"> serviceUuid</text>
</g>
<!-- Node16&#45;&gt;Node21 -->
<g id="edge40" class="edge">
<title>Node16&#45;&gt;Node21</title>
<path fill="none" stroke="#9a32cd" stroke-dasharray="5,2" d="M225.26,-189.19C238.25,-187.28 252.1,-185.4 265,-183.95 412.75,-167.33 450.39,-160.31 599,-164.95 683.3,-167.58 780.57,-174.31 841.91,-179.01"/>
<polygon fill="#9a32cd" stroke="#9a32cd" points="217.29,-190.38 224.67,-185.64 221.25,-189.79 225.2,-189.2 225.2,-189.2 225.2,-189.2 221.25,-189.79 225.73,-192.76 217.29,-190.38 217.29,-190.38"/>
<text text-anchor="middle" x="556.5" y="-167.95" font-family="Helvetica,sans-Serif" font-size="10.00"> serviceUuid</text>
</g>
<!-- Node16&#45;&gt;Node22 -->
<g id="edge43" class="edge">
<title>Node16&#45;&gt;Node22</title>
<path fill="none" stroke="#9a32cd" stroke-dasharray="5,2" d="M213.18,-186.3C247.97,-177.27 298.78,-165.4 344,-159.95 529.19,-137.62 751.03,-134.16 850.38,-133.82"/>
<polygon fill="#9a32cd" stroke="#9a32cd" points="205.13,-188.41 211.95,-182.9 209,-187.39 212.87,-186.38 212.87,-186.38 212.87,-186.38 209,-187.39 213.78,-189.86 205.13,-188.41 205.13,-188.41"/>
<text text-anchor="middle" x="556.5" y="-147.95" font-family="Helvetica,sans-Serif" font-size="10.00"> serviceUuid</text>
</g>
<!-- Node17 -->
<g id="node17" class="node">
<title>Node17</title>
<g id="a_node17"><a target="_parent" xlink:href="https://doc.qt.io/qt-5/quuid.html" xlink:title=" ">
<polygon fill="white" stroke="#bfbfbf" points="51.5,-207.45 4.5,-207.45 4.5,-188.45 51.5,-188.45 51.5,-207.45"/>
<text text-anchor="middle" x="28" y="-195.45" font-family="Helvetica,sans-Serif" font-size="10.00">QUuid</text>
</a>
</g>
</g>
<!-- Node17&#45;&gt;Node16 -->
<g id="edge26" class="edge">
<title>Node17&#45;&gt;Node16</title>
<path fill="none" stroke="#63b8ff" d="M59.9,-197.95C78.41,-197.95 102.29,-197.95 122.98,-197.95"/>
<polygon fill="#63b8ff" stroke="#63b8ff" points="51.81,-197.95 59.81,-194.35 55.81,-197.95 59.81,-197.95 59.81,-197.95 59.81,-197.95 55.81,-197.95 59.8,-201.55 51.81,-197.95 51.81,-197.95"/>
</g>
<!-- Node18&#45;&gt;Node10 -->
<g id="edge29" class="edge">
<title>Node18&#45;&gt;Node10</title>
<path fill="none" stroke="#9a32cd" stroke-dasharray="5,2" d="M967.13,-226.04C1002.19,-229.87 1046.54,-236.34 1085,-246.95 1103.54,-252.06 1123.66,-260.73 1137.91,-267.44"/>
<polygon fill="#9a32cd" stroke="#9a32cd" points="958.89,-225.17 967.22,-222.43 962.87,-225.59 966.84,-226.01 966.84,-226.01 966.84,-226.01 962.87,-225.59 966.47,-229.59 958.89,-225.17 958.89,-225.17"/>
<text text-anchor="middle" x="1034.5" y="-249.95" font-family="Helvetica,sans-Serif" font-size="10.00"> dataLogger</text>
</g>
<!-- Node19&#45;&gt;Node10 -->
<g id="edge32" class="edge">
<title>Node19&#45;&gt;Node10</title>
<path fill="none" stroke="#9a32cd" stroke-dasharray="5,2" d="M957,-95.22C1009.71,-106.69 1083.71,-122.92 1085,-123.95 1132.91,-162.28 1150.58,-240 1155.45,-267.25"/>
<polygon fill="#9a32cd" stroke="#9a32cd" points="949.07,-93.5 957.65,-91.68 952.98,-94.35 956.89,-95.2 956.89,-95.2 956.89,-95.2 952.98,-94.35 956.12,-98.71 949.07,-93.5 949.07,-93.5"/>
<text text-anchor="middle" x="1034.5" y="-126.95" font-family="Helvetica,sans-Serif" font-size="10.00"> deviceInfo</text>
</g>
<!-- Node20&#45;&gt;Node1 -->
<g id="edge49" class="edge">
<title>Node20&#45;&gt;Node1</title>
<path fill="none" stroke="#9a32cd" stroke-dasharray="5,2" d="M921.14,-347.8C933.6,-360.17 951.16,-377.9 966,-393.95 1039.13,-473.06 1122.79,-572.83 1148.83,-604.11"/>
<polygon fill="#9a32cd" stroke="#9a32cd" points="915.13,-341.86 923.35,-344.92 917.97,-344.67 920.82,-347.48 920.82,-347.48 920.82,-347.48 917.97,-344.67 918.28,-350.04 915.13,-341.86 915.13,-341.86"/>
<text text-anchor="middle" x="1034.5" y="-526.95" font-family="Helvetica,sans-Serif" font-size="10.00"> service</text>
</g>
<!-- Node20&#45;&gt;Node10 -->
<g id="edge35" class="edge">
<title>Node20&#45;&gt;Node10</title>
<path fill="none" stroke="#9a32cd" stroke-dasharray="5,2" d="M947.68,-328.24C984.49,-324.41 1038.86,-317.22 1085,-304.95 1102.63,-300.26 1121.85,-292.65 1135.99,-286.55"/>
<polygon fill="#9a32cd" stroke="#9a32cd" points="939.64,-329.06 947.23,-324.67 943.61,-328.65 947.59,-328.25 947.59,-328.25 947.59,-328.25 943.61,-328.65 947.96,-331.83 939.64,-329.06 939.64,-329.06"/>
<text text-anchor="middle" x="1034.5" y="-326.95" font-family="Helvetica,sans-Serif" font-size="10.00"> dso</text>
</g>
<!-- Node21&#45;&gt;Node10 -->
<g id="edge38" class="edge">
<title>Node21&#45;&gt;Node10</title>
<path fill="none" stroke="#9a32cd" stroke-dasharray="5,2" d="M974.43,-186.59C1009.01,-190.09 1050.67,-197.7 1085,-213.95 1112.32,-226.88 1137.19,-253.27 1149.28,-267.44"/>
<polygon fill="#9a32cd" stroke="#9a32cd" points="966.25,-185.83 974.55,-182.99 970.24,-186.2 974.22,-186.58 974.22,-186.58 974.22,-186.58 970.24,-186.2 973.88,-190.16 966.25,-185.83 966.25,-185.83"/>
<text text-anchor="middle" x="1034.5" y="-216.95" font-family="Helvetica,sans-Serif" font-size="10.00"> genericAccess</text>
</g>
<!-- Node22&#45;&gt;Node10 -->
<g id="edge41" class="edge">
<title>Node22&#45;&gt;Node10</title>
<path fill="none" stroke="#9a32cd" stroke-dasharray="5,2" d="M966.07,-136.02C1003.14,-139.85 1049.91,-149.49 1085,-172.95 1121.33,-197.24 1144.68,-246.61 1153.28,-267.39"/>
<polygon fill="#9a32cd" stroke="#9a32cd" points="957.84,-135.25 966.14,-132.41 961.82,-135.62 965.8,-136 965.8,-136 965.8,-136 961.82,-135.62 965.47,-139.58 957.84,-135.25 957.84,-135.25"/>
<text text-anchor="middle" x="1034.5" y="-175.95" font-family="Helvetica,sans-Serif" font-size="10.00"> multimeter</text>
</g>
<!-- Node23&#45;&gt;Node10 -->
<g id="edge44" class="edge">
<title>Node23&#45;&gt;Node10</title>
<path fill="none" stroke="#9a32cd" stroke-dasharray="5,2" d="M954.23,-259.77C990.45,-261.33 1040.85,-263.97 1085,-267.95 1090.77,-268.47 1096.79,-269.09 1102.79,-269.77"/>
<polygon fill="#9a32cd" stroke="#9a32cd" points="945.81,-259.41 953.95,-256.15 949.8,-259.58 953.8,-259.75 953.8,-259.75 953.8,-259.75 949.8,-259.58 953.65,-263.35 945.81,-259.41 945.81,-259.41"/>
<text text-anchor="middle" x="1034.5" y="-270.95" font-family="Helvetica,sans-Serif" font-size="10.00"> status</text>
</g>
<!-- Node24 -->
<g id="node24" class="node">
<title>Node24</title>
<g id="a_node24"><a target="_parent" xlink:href="https://doc.qt.io/qt-5/qmutex.html" xlink:title=" ">
<polygon fill="white" stroke="#bfbfbf" points="931.5,-30.45 876.5,-30.45 876.5,-11.45 931.5,-11.45 931.5,-30.45"/>
<text text-anchor="middle" x="904" y="-18.45" font-family="Helvetica,sans-Serif" font-size="10.00">QMutex</text>
</a>
</g>
</g>
<!-- Node24&#45;&gt;Node10 -->
<g id="edge46" class="edge">
<title>Node24&#45;&gt;Node10</title>
<path fill="none" stroke="#9a32cd" stroke-dasharray="5,2" d="M939.67,-9.87C979.08,0.39 1043.33,9.77 1085,-21.95 1125.91,-53.08 1150.27,-224.22 1155.79,-267.17"/>
<polygon fill="#9a32cd" stroke="#9a32cd" points="931.66,-12.06 938.43,-6.48 935.52,-11.01 939.37,-9.95 939.37,-9.95 939.37,-9.95 935.52,-11.01 940.32,-13.43 931.66,-12.06 931.66,-12.06"/>
<text text-anchor="middle" x="1034.5" y="-90.95" font-family="Helvetica,sans-Serif" font-size="10.00"> calibrationMutex</text>
<text text-anchor="middle" x="1034.5" y="-79.95" font-family="Helvetica,sans-Serif" font-size="10.00">dataLoggerMutex</text>
<text text-anchor="middle" x="1034.5" y="-68.95" font-family="Helvetica,sans-Serif" font-size="10.00">deviceInfoMutex</text>
<text text-anchor="middle" x="1034.5" y="-57.95" font-family="Helvetica,sans-Serif" font-size="10.00">dsoMutex</text>
<text text-anchor="middle" x="1034.5" y="-46.95" font-family="Helvetica,sans-Serif" font-size="10.00">genericAccessMutex</text>
<text text-anchor="middle" x="1034.5" y="-35.95" font-family="Helvetica,sans-Serif" font-size="10.00">multimeterMutex</text>
<text text-anchor="middle" x="1034.5" y="-24.95" font-family="Helvetica,sans-Serif" font-size="10.00">statusMutex</text>
</g>
<!-- Node25 -->
<g id="node25" class="node">
<title>Node25</title>
<g id="a_node25"><a xlink:title=" ">
<polygon fill="white" stroke="#bfbfbf" points="734,-30.45 653,-30.45 653,-11.45 734,-11.45 734,-30.45"/>
<text text-anchor="middle" x="693.5" y="-18.45" font-family="Helvetica,sans-Serif" font-size="10.00">QBasicMutex</text>
</a>
</g>
</g>
<!-- Node25&#45;&gt;Node24 -->
<g id="edge47" class="edge">
<title>Node25&#45;&gt;Node24</title>
<path fill="none" stroke="#63b8ff" d="M742.28,-20.95C783.86,-20.95 842.6,-20.95 876.34,-20.95"/>
<polygon fill="#63b8ff" stroke="#63b8ff" points="734.21,-20.95 742.21,-17.35 738.21,-20.95 742.21,-20.95 742.21,-20.95 742.21,-20.95 738.21,-20.95 742.21,-24.55 734.21,-20.95 734.21,-20.95"/>
</g>
<!-- Node26 -->
<g id="node26" class="node">
<title>Node26</title>
<g id="a_node26"><a xlink:href="structDsoService_1_1Settings.html" target="_top" xlink:title="Attributes included in the Settings characterstic.">
<polygon fill="white" stroke="#666666" points="962.5,-642.45 845.5,-642.45 845.5,-623.45 962.5,-623.45 962.5,-642.45"/>
<text text-anchor="middle" x="904" y="-630.45" font-family="Helvetica,sans-Serif" font-size="10.00">DsoService::Settings</text>
</a>
</g>
</g>
<!-- Node26&#45;&gt;Node1 -->
<g id="edge50" class="edge">
<title>Node26&#45;&gt;Node1</title>
<path fill="none" stroke="#9a32cd" stroke-dasharray="5,2" d="M970.85,-627.98C1016.34,-624.55 1075.5,-620.09 1114.78,-617.13"/>
<polygon fill="#9a32cd" stroke="#9a32cd" points="962.81,-628.59 970.52,-624.4 966.8,-628.29 970.79,-627.99 970.79,-627.99 970.79,-627.99 966.8,-628.29 971.06,-631.58 962.81,-628.59 962.81,-628.59"/>
<text text-anchor="middle" x="1034.5" y="-629.95" font-family="Helvetica,sans-Serif" font-size="10.00"> settings</text>
</g>
<!-- Node27 -->
<g id="node27" class="node">
<title>Node27</title>
<g id="a_node27"><a xlink:href="unionDsoService_1_1Range.html" target="_top" xlink:title="Values supported by the Range attribute of the Settings and Metadata characteristics.">
<polygon fill="white" stroke="#666666" points="747.5,-679.45 639.5,-679.45 639.5,-660.45 747.5,-660.45 747.5,-679.45"/>
<text text-anchor="middle" x="693.5" y="-667.45" font-family="Helvetica,sans-Serif" font-size="10.00">DsoService::Range</text>
</a>
</g>
</g>
<!-- Node27&#45;&gt;Node26 -->
<g id="edge51" class="edge">
<title>Node27&#45;&gt;Node26</title>
<path fill="none" stroke="#9a32cd" stroke-dasharray="5,2" d="M755.85,-659.06C785.46,-653.81 820.67,-647.56 849.22,-642.49"/>
<polygon fill="#9a32cd" stroke="#9a32cd" points="747.65,-660.52 754.9,-655.57 751.59,-659.82 755.53,-659.12 755.53,-659.12 755.53,-659.12 751.59,-659.82 756.16,-662.66 747.65,-660.52 747.65,-660.52"/>
<text text-anchor="middle" x="806" y="-655.95" font-family="Helvetica,sans-Serif" font-size="10.00"> range</text>
</g>
<!-- Node28 -->
<g id="node28" class="node">
<title>Node28</title>
<g id="a_node28"><a xlink:href="structDsoService_1_1Metadata.html" target="_top" xlink:title="Attributes included in the Metadata characterstic.">
<polygon fill="white" stroke="#666666" points="966,-679.45 842,-679.45 842,-660.45 966,-660.45 966,-679.45"/>
<text text-anchor="middle" x="904" y="-667.45" font-family="Helvetica,sans-Serif" font-size="10.00">DsoService::Metadata</text>
</a>
</g>
</g>
<!-- Node27&#45;&gt;Node28 -->
<g id="edge53" class="edge">
<title>Node27&#45;&gt;Node28</title>
<path fill="none" stroke="#9a32cd" stroke-dasharray="5,2" d="M755.9,-669.95C782.99,-669.95 814.75,-669.95 841.82,-669.95"/>
<polygon fill="#9a32cd" stroke="#9a32cd" points="747.65,-669.95 755.65,-666.35 751.65,-669.95 755.65,-669.95 755.65,-669.95 755.65,-669.95 751.65,-669.95 755.65,-673.55 747.65,-669.95 747.65,-669.95"/>
<text text-anchor="middle" x="806" y="-672.95" font-family="Helvetica,sans-Serif" font-size="10.00"> range</text>
</g>
<!-- Node28&#45;&gt;Node1 -->
<g id="edge52" class="edge">
<title>Node28&#45;&gt;Node1</title>
<path fill="none" stroke="#9a32cd" stroke-dasharray="5,2" d="M974.08,-662.76C1007.88,-658.35 1048.95,-651.64 1085,-641.95 1102.61,-637.21 1121.83,-629.61 1135.98,-623.52"/>
<polygon fill="#9a32cd" stroke="#9a32cd" points="966.09,-663.78 973.57,-659.2 970.06,-663.27 974.03,-662.77 974.03,-662.77 974.03,-662.77 970.06,-663.27 974.48,-666.34 966.09,-663.78 966.09,-663.78"/>
<text text-anchor="middle" x="1034.5" y="-663.95" font-family="Helvetica,sans-Serif" font-size="10.00"> metadata</text>
</g>
</g>
</svg>
