<?xml version="1.0" encoding="UTF-8" standalone="no"?>
<!DOCTYPE svg PUBLIC "-//W3C//DTD SVG 1.1//EN"
 "http://www.w3.org/Graphics/SVG/1.1/DTD/svg11.dtd">
<!-- Generated by graphviz version 2.43.0 (0)
 -->
<!-- Title: MeterCommand::serviceDetailsDiscovered Pages: 1 -->
<svg width="761pt" height="375pt"
 viewBox="0.00 0.00 761.00 374.50" xmlns="http://www.w3.org/2000/svg" xmlns:xlink="http://www.w3.org/1999/xlink">
<g id="graph0" class="graph" transform="scale(1 1) rotate(0) translate(4 370.5)">
<title>MeterCommand::serviceDetailsDiscovered</title>
<!-- Node1 -->
<g id="Node000001" class="node">
<title>Node1</title>
<g id="a_Node000001"><a xlink:title="Handles service detail discovery events.">
<polygon fill="#999999" stroke="#666666" points="171,-231 0,-231 0,-201 171,-201 171,-231"/>
<text text-anchor="start" x="8" y="-219" font-family="Helvetica,sans-Serif" font-size="10.00">MeterCommand::serviceDetails</text>
<text text-anchor="middle" x="85.5" y="-208" font-family="Helvetica,sans-Serif" font-size="10.00">Discovered</text>
</a>
</g>
</g>
<!-- Node2 -->
<g id="Node000002" class="node">
<title>Node2</title>
<g id="a_Node000002"><a target="_parent" xlink:href="https://doc.qt.io/qt-5/qstring.html#arg-1" xlink:title=" ">
<polygon fill="white" stroke="#666666" points="332,-366.5 258,-366.5 258,-347.5 332,-347.5 332,-366.5"/>
<text text-anchor="middle" x="295" y="-354.5" font-family="Helvetica,sans-Serif" font-size="10.00">QString::arg</text>
</a>
</g>
</g>
<!-- Node1&#45;&gt;Node2 -->
<g id="edge1_Node000001_Node000002" class="edge">
<title>Node1&#45;&gt;Node2</title>
<g id="a_edge1_Node000001_Node000002"><a xlink:title=" ">
<path fill="none" stroke="#63b8ff" d="M96.75,-231.3C115.36,-257.78 157.41,-311.92 207,-339 219.9,-346.04 235.25,-350.34 249.44,-352.95"/>
<polygon fill="#63b8ff" stroke="#63b8ff" points="257.64,-354.31 249.16,-356.56 253.69,-353.66 249.74,-353 249.74,-353 249.74,-353 253.69,-353.66 250.33,-349.45 257.64,-354.31 257.64,-354.31"/>
</a>
</g>
</g>
<!-- Node3 -->
<g id="Node000003" class="node">
<title>Node3</title>
<g id="a_Node000003"><a target="_parent" xlink:href="https://doc.qt.io/qt-5/qstring.html#fromLatin1" xlink:title=" ">
<polygon fill="white" stroke="#666666" points="351,-329.5 239,-329.5 239,-310.5 351,-310.5 351,-329.5"/>
<text text-anchor="middle" x="295" y="-317.5" font-family="Helvetica,sans-Serif" font-size="10.00">QString::fromLatin1</text>
</a>
</g>
</g>
<!-- Node1&#45;&gt;Node3 -->
<g id="edge2_Node000001_Node000003" class="edge">
<title>Node1&#45;&gt;Node3</title>
<g id="a_edge2_Node000001_Node000003"><a xlink:title=" ">
<path fill="none" stroke="#63b8ff" d="M103.06,-231.31C125.08,-250.8 166.02,-284.09 207,-302 214.5,-305.28 222.62,-307.97 230.8,-310.18"/>
<polygon fill="#63b8ff" stroke="#63b8ff" points="238.63,-312.15 229.99,-313.68 234.75,-311.17 230.87,-310.19 230.87,-310.19 230.87,-310.19 234.75,-311.17 231.75,-306.7 238.63,-312.15 238.63,-312.15"/>
</a>
</g>
</g>
<!-- Node4 -->
<g id="Node000004" class="node">
<title>Node4</title>
<g id="a_Node000004"><a target="_parent" xlink:href="https://doc.qt.io/qt-5/qstring.html#isNull" xlink:title=" ">
<polygon fill="white" stroke="#666666" points="338,-292.5 252,-292.5 252,-273.5 338,-273.5 338,-292.5"/>
<text text-anchor="middle" x="295" y="-280.5" font-family="Helvetica,sans-Serif" font-size="10.00">QString::isNull</text>
</a>
</g>
</g>
<!-- Node1&#45;&gt;Node4 -->
<g id="edge3_Node000001_Node000004" class="edge">
<title>Node1&#45;&gt;Node4</title>
<g id="a_edge3_Node000001_Node000004"><a xlink:title=" ">
<path fill="none" stroke="#63b8ff" d="M119.99,-231.06C143.88,-241.38 176.96,-254.81 207,-264 218.76,-267.6 231.62,-270.8 243.75,-273.5"/>
<polygon fill="#63b8ff" stroke="#63b8ff" points="251.6,-275.2 243.02,-277.02 247.69,-274.35 243.78,-273.5 243.78,-273.5 243.78,-273.5 247.69,-274.35 244.54,-269.98 251.6,-275.2 251.6,-275.2"/>
</a>
</g>
</g>
<!-- Node5 -->
<g id="Node000005" class="node">
<title>Node5</title>
<g id="a_Node000005"><a xlink:href="classAbstractPokitService.html#a039d2f1054788cf586c8decadb53ddc0" target="_top" xlink:title="Returns the Pokit product this service is attached to.">
<polygon fill="white" stroke="#666666" points="354,-255 236,-255 236,-225 354,-225 354,-255"/>
<text text-anchor="start" x="244" y="-243" font-family="Helvetica,sans-Serif" font-size="10.00">AbstractPokitService</text>
<text text-anchor="middle" x="295" y="-232" font-family="Helvetica,sans-Serif" font-size="10.00">::pokitProduct</text>
</a>
</g>
</g>
<!-- Node1&#45;&gt;Node5 -->
<g id="edge4_Node000001_Node000005" class="edge">
<title>Node1&#45;&gt;Node5</title>
<g id="a_edge4_Node000001_Node000005"><a xlink:title=" ">
<path fill="none" stroke="#63b8ff" d="M171.2,-225.8C190.05,-227.98 209.77,-230.26 227.76,-232.34"/>
<polygon fill="#63b8ff" stroke="#63b8ff" points="235.89,-233.28 227.53,-235.94 231.91,-232.82 227.94,-232.36 227.94,-232.36 227.94,-232.36 231.91,-232.82 228.35,-228.78 235.89,-233.28 235.89,-233.28"/>
</a>
</g>
</g>
<!-- Node6 -->
<g id="Node000006" class="node">
<title>Node6</title>
<g id="a_Node000006"><a xlink:href="classDeviceCommand.html#a906fd97d832be0e8d2ba1c917fba41db" target="_top" xlink:title="Handles service detail discovery events.">
<polygon fill="white" stroke="#666666" points="383,-207 207,-207 207,-177 383,-177 383,-207"/>
<text text-anchor="start" x="215" y="-195" font-family="Helvetica,sans-Serif" font-size="10.00">DeviceCommand::serviceDetails</text>
<text text-anchor="middle" x="295" y="-184" font-family="Helvetica,sans-Serif" font-size="10.00">Discovered</text>
</a>
</g>
</g>
<!-- Node1&#45;&gt;Node6 -->
<g id="edge5_Node000001_Node000006" class="edge">
<title>Node1&#45;&gt;Node6</title>
<g id="a_edge5_Node000001_Node000006"><a xlink:title=" ">
<path fill="none" stroke="#63b8ff" d="M171.2,-206.2C180.3,-205.15 189.6,-204.08 198.81,-203.01"/>
<polygon fill="#63b8ff" stroke="#63b8ff" points="206.88,-202.08 199.35,-206.57 202.91,-202.54 198.93,-203 198.93,-203 198.93,-203 202.91,-202.54 198.52,-199.42 206.88,-202.08 206.88,-202.08"/>
</a>
</g>
</g>
<!-- Node7 -->
<g id="Node000007" class="node">
<title>Node7</title>
<g id="a_Node000007"><a target="_parent" xlink:href="https://doc.qt.io/qt-5/qobject.html#tr" xlink:title=" ">
<polygon fill="white" stroke="#666666" points="526,-158.5 457,-158.5 457,-139.5 526,-139.5 526,-158.5"/>
<text text-anchor="middle" x="491.5" y="-146.5" font-family="Helvetica,sans-Serif" font-size="10.00">QObject::tr</text>
</a>
</g>
</g>
<!-- Node1&#45;&gt;Node7 -->
<g id="edge16_Node000001_Node000007" class="edge">
<title>Node1&#45;&gt;Node7</title>
<g id="a_edge16_Node000001_Node000007"><a xlink:title=" ">
<path fill="none" stroke="#63b8ff" d="M116.86,-200.83C140.73,-189.66 175.16,-175.22 207,-168 291.2,-148.91 392.77,-147.04 448.61,-147.77"/>
<polygon fill="#63b8ff" stroke="#63b8ff" points="456.84,-147.9 448.79,-151.37 452.84,-147.84 448.85,-147.77 448.85,-147.77 448.85,-147.77 452.84,-147.84 448.9,-144.17 456.84,-147.9 456.84,-147.9"/>
</a>
</g>
</g>
<!-- Node8 -->
<g id="Node000008" class="node">
<title>Node8</title>
<g id="a_Node000008"><a xlink:href="classMultimeterService.html#ab459a9db42aed973bbc18a2bc9fcd957" target="_top" xlink:title="Configures the Pokit device&#39;s multimeter mode.">
<polygon fill="white" stroke="#666666" points="351.5,-73 238.5,-73 238.5,-43 351.5,-43 351.5,-73"/>
<text text-anchor="start" x="246.5" y="-61" font-family="Helvetica,sans-Serif" font-size="10.00">MultimeterService::</text>
<text text-anchor="middle" x="295" y="-50" font-family="Helvetica,sans-Serif" font-size="10.00">setSettings</text>
</a>
</g>
</g>
<!-- Node1&#45;&gt;Node8 -->
<g id="edge7_Node000001_Node000008" class="edge">
<title>Node1&#45;&gt;Node8</title>
<g id="a_edge7_Node000001_Node000008"><a xlink:title=" ">
<path fill="none" stroke="#63b8ff" d="M95.75,-200.99C113.67,-173.17 155.91,-113.59 207,-82 214.24,-77.52 222.33,-73.86 230.59,-70.88"/>
<polygon fill="#63b8ff" stroke="#63b8ff" points="238.19,-68.32 231.75,-74.28 234.4,-69.59 230.61,-70.87 230.61,-70.87 230.61,-70.87 234.4,-69.59 229.46,-67.46 238.19,-68.32 238.19,-68.32"/>
</a>
</g>
</g>
<!-- Node15 -->
<g id="Node000015" class="node">
<title>Node15</title>
<g id="a_Node000015"><a xlink:href="classMultimeterService.html#a58a03dbc0ae216dc60f27d975af92cf8" target="_top" xlink:title="Returns mode as a user&#45;friendly string.">
<polygon fill="white" stroke="#666666" points="351.5,-121 238.5,-121 238.5,-91 351.5,-91 351.5,-121"/>
<text text-anchor="start" x="246.5" y="-109" font-family="Helvetica,sans-Serif" font-size="10.00">MultimeterService::</text>
<text text-anchor="middle" x="295" y="-98" font-family="Helvetica,sans-Serif" font-size="10.00">toString</text>
</a>
</g>
</g>
<!-- Node1&#45;&gt;Node15 -->
<g id="edge14_Node000001_Node000015" class="edge">
<title>Node1&#45;&gt;Node15</title>
<g id="a_edge14_Node000001_Node000015"><a xlink:title=" ">
<path fill="none" stroke="#63b8ff" d="M105.54,-200.8C128.5,-183.07 168.77,-153.79 207,-135 215.37,-130.89 224.47,-127.14 233.52,-123.8"/>
<polygon fill="#63b8ff" stroke="#63b8ff" points="241.1,-121.09 234.77,-127.17 237.33,-122.44 233.56,-123.78 233.56,-123.78 233.56,-123.78 237.33,-122.44 232.35,-120.39 241.1,-121.09 241.1,-121.09"/>
</a>
</g>
</g>
<!-- Node6&#45;&gt;Node7 -->
<g id="edge6_Node000006_Node000007" class="edge">
<title>Node6&#45;&gt;Node7</title>
<g id="a_edge6_Node000006_Node000007"><a xlink:title=" ">
<path fill="none" stroke="#63b8ff" d="M364.03,-176.96C392.27,-170.72 424.15,-163.67 448.83,-158.21"/>
<polygon fill="#63b8ff" stroke="#63b8ff" points="456.91,-156.43 449.87,-161.67 453,-157.29 449.1,-158.15 449.1,-158.15 449.1,-158.15 453,-157.29 448.32,-154.64 456.91,-156.43 456.91,-156.43"/>
</a>
</g>
</g>
<!-- Node9 -->
<g id="Node000009" class="node">
<title>Node9</title>
<g id="a_Node000009"><a xlink:href="classMultimeterServicePrivate.html#ab69aec8bf3290ba5037e8d11926fe707" target="_top" xlink:title="Returns settings in the format Pokit devices expect.">
<polygon fill="white" stroke="#666666" points="562,-116 421,-116 421,-86 562,-86 562,-116"/>
<text text-anchor="start" x="429" y="-104" font-family="Helvetica,sans-Serif" font-size="10.00">MultimeterServicePrivate</text>
<text text-anchor="middle" x="491.5" y="-93" font-family="Helvetica,sans-Serif" font-size="10.00">::encodeSettings</text>
</a>
</g>
</g>
<!-- Node8&#45;&gt;Node9 -->
<g id="edge8_Node000008_Node000009" class="edge">
<title>Node8&#45;&gt;Node9</title>
<g id="a_edge8_Node000008_Node000009"><a xlink:title=" ">
<path fill="none" stroke="#63b8ff" d="M351.74,-70.32C371.25,-74.64 393.5,-79.56 414.39,-84.17"/>
<polygon fill="#63b8ff" stroke="#63b8ff" points="422.32,-85.93 413.73,-87.71 418.41,-85.06 414.5,-84.2 414.5,-84.2 414.5,-84.2 418.41,-85.06 415.28,-80.68 422.32,-85.93 422.32,-85.93"/>
</a>
</g>
</g>
<!-- Node13 -->
<g id="Node000013" class="node">
<title>Node13</title>
<g id="a_Node000013"><a target="_parent" xlink:href="https://doc.qt.io/qt-5/qbytearray.html#isNull" xlink:title=" ">
<polygon fill="white" stroke="#666666" points="544.5,-67.5 438.5,-67.5 438.5,-48.5 544.5,-48.5 544.5,-67.5"/>
<text text-anchor="middle" x="491.5" y="-55.5" font-family="Helvetica,sans-Serif" font-size="10.00">QByteArray::isNull</text>
</a>
</g>
</g>
<!-- Node8&#45;&gt;Node13 -->
<g id="edge12_Node000008_Node000013" class="edge">
<title>Node8&#45;&gt;Node13</title>
<g id="a_edge12_Node000008_Node000013"><a xlink:title=" ">
<path fill="none" stroke="#63b8ff" d="M351.74,-58C376.35,-58 405.33,-58 430.43,-58"/>
<polygon fill="#63b8ff" stroke="#63b8ff" points="438.43,-58 430.43,-61.6 434.43,-58 430.43,-58 430.43,-58 430.43,-58 434.43,-58 430.43,-54.4 438.43,-58 438.43,-58"/>
</a>
</g>
</g>
<!-- Node14 -->
<g id="Node000014" class="node">
<title>Node14</title>
<g id="a_Node000014"><a target="_parent" xlink:href="https://doc.qt.io/qt-5/qlowenergycharacteristic.html#isValid" xlink:title=" ">
<polygon fill="white" stroke="#666666" points="564,-30 419,-30 419,0 564,0 564,-30"/>
<text text-anchor="start" x="427" y="-18" font-family="Helvetica,sans-Serif" font-size="10.00">QLowEnergyCharacteristic</text>
<text text-anchor="middle" x="491.5" y="-7" font-family="Helvetica,sans-Serif" font-size="10.00">::isValid</text>
</a>
</g>
</g>
<!-- Node8&#45;&gt;Node14 -->
<g id="edge13_Node000008_Node000014" class="edge">
<title>Node8&#45;&gt;Node14</title>
<g id="a_edge13_Node000008_Node000014"><a xlink:title=" ">
<path fill="none" stroke="#63b8ff" d="M351.74,-45.68C371.25,-41.36 393.5,-36.44 414.39,-31.83"/>
<polygon fill="#63b8ff" stroke="#63b8ff" points="422.32,-30.07 415.28,-35.32 418.41,-30.94 414.5,-31.8 414.5,-31.8 414.5,-31.8 418.41,-30.94 413.73,-28.29 422.32,-30.07 422.32,-30.07"/>
</a>
</g>
</g>
<!-- Node10 -->
<g id="Node000010" class="node">
<title>Node10</title>
<g id="a_Node000010"><a target="_parent" xlink:href="https://doc.qt.io/qt-5/qdatastream.html#setByteOrder" xlink:title=" ">
<polygon fill="white" stroke="#666666" points="753,-153.5 600,-153.5 600,-134.5 753,-134.5 753,-153.5"/>
<text text-anchor="middle" x="676.5" y="-141.5" font-family="Helvetica,sans-Serif" font-size="10.00">QDataStream::setByteOrder</text>
</a>
</g>
</g>
<!-- Node9&#45;&gt;Node10 -->
<g id="edge9_Node000009_Node000010" class="edge">
<title>Node9&#45;&gt;Node10</title>
<g id="a_edge9_Node000009_Node000010"><a xlink:title=" ">
<path fill="none" stroke="#63b8ff" d="M556.5,-116.04C579.63,-121.47 605.33,-127.51 626.92,-132.58"/>
<polygon fill="#63b8ff" stroke="#63b8ff" points="634.98,-134.48 626.36,-136.15 631.08,-133.56 627.19,-132.65 627.19,-132.65 627.19,-132.65 631.08,-133.56 628.01,-129.14 634.98,-134.48 634.98,-134.48"/>
</a>
</g>
</g>
<!-- Node11 -->
<g id="Node000011" class="node">
<title>Node11</title>
<g id="a_Node000011"><a target="_parent" xlink:href="https://doc.qt.io/qt-5/qdatastream.html#setFloatingPointPrecision" xlink:title=" ">
<polygon fill="white" stroke="#666666" points="748,-116 605,-116 605,-86 748,-86 748,-116"/>
<text text-anchor="start" x="613" y="-104" font-family="Helvetica,sans-Serif" font-size="10.00">QDataStream::setFloating</text>
<text text-anchor="middle" x="676.5" y="-93" font-family="Helvetica,sans-Serif" font-size="10.00">PointPrecision</text>
</a>
</g>
</g>
<!-- Node9&#45;&gt;Node11 -->
<g id="edge10_Node000009_Node000011" class="edge">
<title>Node9&#45;&gt;Node11</title>
<g id="a_edge10_Node000009_Node000011"><a xlink:title=" ">
<path fill="none" stroke="#63b8ff" d="M562.21,-101C573.42,-101 585.1,-101 596.52,-101"/>
<polygon fill="#63b8ff" stroke="#63b8ff" points="604.77,-101 596.77,-104.6 600.77,-101 596.77,-101 596.77,-101 596.77,-101 600.77,-101 596.77,-97.4 604.77,-101 604.77,-101"/>
</a>
</g>
</g>
<!-- Node12 -->
<g id="Node000012" class="node">
<title>Node12</title>
<g id="a_Node000012"><a target="_parent" xlink:href="https://doc.qt.io/qt-5/qbytearray.html#size" xlink:title=" ">
<polygon fill="white" stroke="#666666" points="725.5,-67.5 627.5,-67.5 627.5,-48.5 725.5,-48.5 725.5,-67.5"/>
<text text-anchor="middle" x="676.5" y="-55.5" font-family="Helvetica,sans-Serif" font-size="10.00">QByteArray::size</text>
</a>
</g>
</g>
<!-- Node9&#45;&gt;Node12 -->
<g id="edge11_Node000009_Node000012" class="edge">
<title>Node9&#45;&gt;Node12</title>
<g id="a_edge11_Node000009_Node000012"><a xlink:title=" ">
<path fill="none" stroke="#63b8ff" d="M556.5,-85.96C579.63,-80.53 605.33,-74.49 626.92,-69.42"/>
<polygon fill="#63b8ff" stroke="#63b8ff" points="634.98,-67.52 628.01,-72.86 631.08,-68.44 627.19,-69.35 627.19,-69.35 627.19,-69.35 631.08,-68.44 626.36,-65.85 634.98,-67.52 634.98,-67.52"/>
</a>
</g>
</g>
<!-- Node15&#45;&gt;Node7 -->
<g id="edge15_Node000015_Node000007" class="edge">
<title>Node15&#45;&gt;Node7</title>
<g id="a_edge15_Node000015_Node000007"><a xlink:title=" ">
<path fill="none" stroke="#63b8ff" d="M351.74,-118.32C382.59,-125.14 420.31,-133.48 448.63,-139.74"/>
<polygon fill="#63b8ff" stroke="#63b8ff" points="456.73,-141.53 448.14,-143.32 452.82,-140.67 448.92,-139.81 448.92,-139.81 448.92,-139.81 452.82,-140.67 449.69,-136.29 456.73,-141.53 456.73,-141.53"/>
</a>
</g>
</g>
</g>
</svg>
