<?xml version="1.0" encoding="UTF-8" standalone="no"?>
<!DOCTYPE svg PUBLIC "-//W3C//DTD SVG 1.1//EN"
 "http://www.w3.org/Graphics/SVG/1.1/DTD/svg11.dtd">
<!-- Generated by graphviz version 2.43.0 (0)
 -->
<!-- Title: AbstractPokitServicePrivate Pages: 1 -->
<svg width="446pt" height="249pt"
 viewBox="0.00 0.00 446.00 249.00" xmlns="http://www.w3.org/2000/svg" xmlns:xlink="http://www.w3.org/1999/xlink">
<g id="graph0" class="graph" transform="scale(1 1) rotate(0) translate(4 245)">
<title>AbstractPokitServicePrivate</title>
<!-- Node1 -->
<g id="Node000001" class="node">
<title>Node1</title>
<g id="a_Node000001"><a xlink:title="The AbstractPokitServicePrivate class provides private implementation for AbstractPokitService.">
<polygon fill="#999999" stroke="#666666" points="244,-130 92,-130 92,-111 244,-111 244,-130"/>
<text text-anchor="middle" x="168" y="-118" font-family="Helvetica,sans-Serif" font-size="10.00">AbstractPokitServicePrivate</text>
</a>
</g>
</g>
<!-- Node3 -->
<g id="Node000003" class="node">
<title>Node3</title>
<g id="a_Node000003"><a xlink:href="classCalibrationServicePrivate.html" target="_top" xlink:title="The CalibrationServicePrivate class provides private implementation for CalibrationService.">
<polygon fill="white" stroke="#666666" points="429,-241 289,-241 289,-222 429,-222 429,-241"/>
<text text-anchor="middle" x="359" y="-229" font-family="Helvetica,sans-Serif" font-size="10.00">CalibrationServicePrivate</text>
</a>
</g>
</g>
<!-- Node1&#45;&gt;Node3 -->
<g id="edge2_Node000001_Node000003" class="edge">
<title>Node1&#45;&gt;Node3</title>
<g id="a_edge2_Node000001_Node000003"><a xlink:title=" ">
<path fill="none" stroke="#63b8ff" d="M182.9,-136.03C202.47,-156.91 240.23,-193.69 280,-213.5 286.84,-216.91 294.34,-219.68 301.91,-221.94"/>
<polygon fill="#63b8ff" stroke="#63b8ff" points="177.43,-130.1 185.5,-133.54 180.14,-133.04 182.85,-135.98 182.85,-135.98 182.85,-135.98 180.14,-133.04 180.21,-138.42 177.43,-130.1 177.43,-130.1"/>
</a>
</g>
</g>
<!-- Node4 -->
<g id="Node000004" class="node">
<title>Node4</title>
<g id="a_Node000004"><a xlink:href="classDataLoggerServicePrivate.html" target="_top" xlink:title="The DataLoggerServicePrivate class provides private implementation for DataLoggerService.">
<polygon fill="white" stroke="#666666" points="430.5,-204 287.5,-204 287.5,-185 430.5,-185 430.5,-204"/>
<text text-anchor="middle" x="359" y="-192" font-family="Helvetica,sans-Serif" font-size="10.00">DataLoggerServicePrivate</text>
</a>
</g>
</g>
<!-- Node1&#45;&gt;Node4 -->
<g id="edge3_Node000001_Node000004" class="edge">
<title>Node1&#45;&gt;Node4</title>
<g id="a_edge3_Node000001_Node000004"><a xlink:title=" ">
<path fill="none" stroke="#63b8ff" d="M191.95,-134.14C213.9,-146.68 248.27,-165.02 280,-176.5 289.02,-179.76 298.84,-182.57 308.38,-184.94"/>
<polygon fill="#63b8ff" stroke="#63b8ff" points="185,-130.12 193.73,-131.01 188.46,-132.13 191.93,-134.13 191.93,-134.13 191.93,-134.13 188.46,-132.13 190.13,-137.24 185,-130.12 185,-130.12"/>
</a>
</g>
</g>
<!-- Node5 -->
<g id="Node000005" class="node">
<title>Node5</title>
<g id="a_Node000005"><a xlink:href="classDeviceInfoServicePrivate.html" target="_top" xlink:title="The DeviceInfoServicePrivate class provides private implementation for DeviceInfoService.">
<polygon fill="white" stroke="#666666" points="429,-167 289,-167 289,-148 429,-148 429,-167"/>
<text text-anchor="middle" x="359" y="-155" font-family="Helvetica,sans-Serif" font-size="10.00">DeviceInfoServicePrivate</text>
</a>
</g>
</g>
<!-- Node1&#45;&gt;Node5 -->
<g id="edge4_Node000001_Node000005" class="edge">
<title>Node1&#45;&gt;Node5</title>
<g id="a_edge4_Node000001_Node000005"><a xlink:title=" ">
<path fill="none" stroke="#63b8ff" d="M225.75,-131.61C252.33,-136.81 283.67,-142.95 309.16,-147.94"/>
<polygon fill="#63b8ff" stroke="#63b8ff" points="217.67,-130.03 226.21,-128.03 221.6,-130.8 225.52,-131.57 225.52,-131.57 225.52,-131.57 221.6,-130.8 224.83,-135.1 217.67,-130.03 217.67,-130.03"/>
</a>
</g>
</g>
<!-- Node6 -->
<g id="Node000006" class="node">
<title>Node6</title>
<g id="a_Node000006"><a xlink:href="classDsoServicePrivate.html" target="_top" xlink:title="The DsoServicePrivate class provides private implementation for DsoService.">
<polygon fill="white" stroke="#666666" points="412,-130 306,-130 306,-111 412,-111 412,-130"/>
<text text-anchor="middle" x="359" y="-118" font-family="Helvetica,sans-Serif" font-size="10.00">DsoServicePrivate</text>
</a>
</g>
</g>
<!-- Node1&#45;&gt;Node6 -->
<g id="edge5_Node000001_Node000006" class="edge">
<title>Node1&#45;&gt;Node6</title>
<g id="a_edge5_Node000001_Node000006"><a xlink:title=" ">
<path fill="none" stroke="#63b8ff" d="M252.54,-120.5C270.72,-120.5 289.44,-120.5 305.97,-120.5"/>
<polygon fill="#63b8ff" stroke="#63b8ff" points="244.24,-120.5 252.24,-116.9 248.24,-120.5 252.24,-120.5 252.24,-120.5 252.24,-120.5 248.24,-120.5 252.24,-124.1 244.24,-120.5 244.24,-120.5"/>
</a>
</g>
</g>
<!-- Node7 -->
<g id="Node000007" class="node">
<title>Node7</title>
<g id="a_Node000007"><a xlink:href="classGenericAccessServicePrivate.html" target="_top" xlink:title="The GenericAccessServicePrivate class provides private implementation for GenericAccessService.">
<polygon fill="white" stroke="#666666" points="438,-93 280,-93 280,-74 438,-74 438,-93"/>
<text text-anchor="middle" x="359" y="-81" font-family="Helvetica,sans-Serif" font-size="10.00">GenericAccessServicePrivate</text>
</a>
</g>
</g>
<!-- Node1&#45;&gt;Node7 -->
<g id="edge6_Node000001_Node000007" class="edge">
<title>Node1&#45;&gt;Node7</title>
<g id="a_edge6_Node000001_Node000007"><a xlink:title=" ">
<path fill="none" stroke="#63b8ff" d="M225.75,-109.39C252.33,-104.19 283.67,-98.05 309.16,-93.06"/>
<polygon fill="#63b8ff" stroke="#63b8ff" points="217.67,-110.97 224.83,-105.9 221.6,-110.2 225.52,-109.43 225.52,-109.43 225.52,-109.43 221.6,-110.2 226.21,-112.97 217.67,-110.97 217.67,-110.97"/>
</a>
</g>
</g>
<!-- Node8 -->
<g id="Node000008" class="node">
<title>Node8</title>
<g id="a_Node000008"><a xlink:href="classMultimeterServicePrivate.html" target="_top" xlink:title="The MultimeterServicePrivate class provides private implementation for MultimeterService.">
<polygon fill="white" stroke="#666666" points="429.5,-56 288.5,-56 288.5,-37 429.5,-37 429.5,-56"/>
<text text-anchor="middle" x="359" y="-44" font-family="Helvetica,sans-Serif" font-size="10.00">MultimeterServicePrivate</text>
</a>
</g>
</g>
<!-- Node1&#45;&gt;Node8 -->
<g id="edge7_Node000001_Node000008" class="edge">
<title>Node1&#45;&gt;Node8</title>
<g id="a_edge7_Node000001_Node000008"><a xlink:title=" ">
<path fill="none" stroke="#63b8ff" d="M191.95,-106.86C213.9,-94.32 248.27,-75.98 280,-64.5 289.02,-61.24 298.84,-58.43 308.38,-56.06"/>
<polygon fill="#63b8ff" stroke="#63b8ff" points="185,-110.88 190.13,-103.76 188.46,-108.87 191.93,-106.87 191.93,-106.87 191.93,-106.87 188.46,-108.87 193.73,-109.99 185,-110.88 185,-110.88"/>
</a>
</g>
</g>
<!-- Node9 -->
<g id="Node000009" class="node">
<title>Node9</title>
<g id="a_Node000009"><a xlink:href="classStatusServicePrivate.html" target="_top" xlink:title="The StatusServicePrivate class provides private implementation for StatusService.">
<polygon fill="white" stroke="#666666" points="418,-19 300,-19 300,0 418,0 418,-19"/>
<text text-anchor="middle" x="359" y="-7" font-family="Helvetica,sans-Serif" font-size="10.00">StatusServicePrivate</text>
</a>
</g>
</g>
<!-- Node1&#45;&gt;Node9 -->
<g id="edge8_Node000001_Node000009" class="edge">
<title>Node1&#45;&gt;Node9</title>
<g id="a_edge8_Node000001_Node000009"><a xlink:title=" ">
<path fill="none" stroke="#63b8ff" d="M182.9,-104.97C202.47,-84.09 240.23,-47.31 280,-27.5 286.84,-24.09 294.34,-21.32 301.91,-19.06"/>
<polygon fill="#63b8ff" stroke="#63b8ff" points="177.43,-110.9 180.21,-102.58 180.14,-107.96 182.85,-105.02 182.85,-105.02 182.85,-105.02 180.14,-107.96 185.5,-107.46 177.43,-110.9 177.43,-110.9"/>
</a>
</g>
</g>
<!-- Node2 -->
<g id="Node000002" class="node">
<title>Node2</title>
<g id="a_Node000002"><a target="_parent" xlink:href="https://doc.qt.io/qt-5/qobject.html" xlink:title=" ">
<polygon fill="white" stroke="#bfbfbf" points="56,-130 0,-130 0,-111 56,-111 56,-130"/>
<text text-anchor="middle" x="28" y="-118" font-family="Helvetica,sans-Serif" font-size="10.00">QObject</text>
</a>
</g>
</g>
<!-- Node2&#45;&gt;Node1 -->
<g id="edge1_Node000001_Node000002" class="edge">
<title>Node2&#45;&gt;Node1</title>
<g id="a_edge1_Node000001_Node000002"><a xlink:title=" ">
<path fill="none" stroke="#63b8ff" d="M64.46,-120.5C72.97,-120.5 82.4,-120.5 91.97,-120.5"/>
<polygon fill="#63b8ff" stroke="#63b8ff" points="56.26,-120.5 64.26,-116.9 60.26,-120.5 64.26,-120.5 64.26,-120.5 64.26,-120.5 60.26,-120.5 64.26,-124.1 56.26,-120.5 56.26,-120.5"/>
</a>
</g>
</g>
</g>
</svg>
