<?xml version="1.0" encoding="UTF-8" standalone="no"?>
<!DOCTYPE svg PUBLIC "-//W3C//DTD SVG 1.1//EN"
 "http://www.w3.org/Graphics/SVG/1.1/DTD/svg11.dtd">
<!-- Generated by graphviz version 2.43.0 (0)
 -->
<!-- Title: MultimeterService::toString Pages: 1 -->
<svg width="380pt" height="86pt"
 viewBox="0.00 0.00 380.00 86.00" xmlns="http://www.w3.org/2000/svg" xmlns:xlink="http://www.w3.org/1999/xlink">
<g id="graph0" class="graph" transform="scale(1 1) rotate(0) translate(4 82)">
<title>MultimeterService::toString</title>
<!-- Node1 -->
<g id="Node000001" class="node">
<title>Node1</title>
<g id="a_Node000001"><a xlink:title="Returns range as a user&#45;friendly string, or a null QString if mode has no ranges.">
<polygon fill="#999999" stroke="#666666" points="113,-54 0,-54 0,-24 113,-24 113,-54"/>
<text text-anchor="start" x="8" y="-42" font-family="Helvetica,sans-Serif" font-size="10.00">MultimeterService::</text>
<text text-anchor="middle" x="56.5" y="-31" font-family="Helvetica,sans-Serif" font-size="10.00">toString</text>
</a>
</g>
</g>
<!-- Node2 -->
<g id="Node000002" class="node">
<title>Node2</title>
<g id="a_Node000002"><a xlink:href="classAbstractPokitService.html#a039d2f1054788cf586c8decadb53ddc0" target="_top" xlink:title="Returns the Pokit product this service is attached to.">
<polygon fill="white" stroke="#666666" points="267,-78 149,-78 149,-48 267,-48 267,-78"/>
<text text-anchor="start" x="157" y="-66" font-family="Helvetica,sans-Serif" font-size="10.00">AbstractPokitService</text>
<text text-anchor="middle" x="208" y="-55" font-family="Helvetica,sans-Serif" font-size="10.00">::pokitProduct</text>
</a>
</g>
</g>
<!-- Node1&#45;&gt;Node2 -->
<g id="edge1_Node000001_Node000002" class="edge">
<title>Node1&#45;&gt;Node2</title>
<g id="a_edge1_Node000001_Node000002"><a xlink:title=" ">
<path fill="none" stroke="#63b8ff" d="M113.17,-47.94C122.16,-49.38 131.54,-50.89 140.75,-52.36"/>
<polygon fill="#63b8ff" stroke="#63b8ff" points="148.78,-53.65 140.32,-55.94 144.84,-53.02 140.89,-52.39 140.89,-52.39 140.89,-52.39 144.84,-53.02 141.46,-48.83 148.78,-53.65 148.78,-53.65"/>
</a>
</g>
</g>
<!-- Node3 -->
<g id="Node000003" class="node">
<title>Node3</title>
<g id="a_Node000003"><a xlink:href="classMultimeterService.html#a58a03dbc0ae216dc60f27d975af92cf8" target="_top" xlink:title="Returns mode as a user&#45;friendly string.">
<polygon fill="white" stroke="#666666" points="264.5,-30 151.5,-30 151.5,0 264.5,0 264.5,-30"/>
<text text-anchor="start" x="159.5" y="-18" font-family="Helvetica,sans-Serif" font-size="10.00">MultimeterService::</text>
<text text-anchor="middle" x="208" y="-7" font-family="Helvetica,sans-Serif" font-size="10.00">toString</text>
</a>
</g>
</g>
<!-- Node1&#45;&gt;Node3 -->
<g id="edge2_Node000001_Node000003" class="edge">
<title>Node1&#45;&gt;Node3</title>
<g id="a_edge2_Node000001_Node000003"><a xlink:title=" ">
<path fill="none" stroke="#63b8ff" d="M113.17,-30.06C122.99,-28.49 133.29,-26.83 143.32,-25.22"/>
<polygon fill="#63b8ff" stroke="#63b8ff" points="151.29,-23.94 143.96,-28.77 147.34,-24.58 143.39,-25.21 143.39,-25.21 143.39,-25.21 147.34,-24.58 142.82,-21.66 151.29,-23.94 151.29,-23.94"/>
</a>
</g>
</g>
<!-- Node4 -->
<g id="Node000004" class="node">
<title>Node4</title>
<g id="a_Node000004"><a target="_parent" xlink:href="https://doc.qt.io/qt-5/qobject.html#tr" xlink:title=" ">
<polygon fill="white" stroke="#666666" points="372,-24.5 303,-24.5 303,-5.5 372,-5.5 372,-24.5"/>
<text text-anchor="middle" x="337.5" y="-12.5" font-family="Helvetica,sans-Serif" font-size="10.00">QObject::tr</text>
</a>
</g>
</g>
<!-- Node3&#45;&gt;Node4 -->
<g id="edge3_Node000003_Node000004" class="edge">
<title>Node3&#45;&gt;Node4</title>
<g id="a_edge3_Node000003_Node000004"><a xlink:title=" ">
<path fill="none" stroke="#63b8ff" d="M264.55,-15C274.62,-15 284.97,-15 294.56,-15"/>
<polygon fill="#63b8ff" stroke="#63b8ff" points="302.78,-15 294.78,-18.6 298.78,-15 294.78,-15 294.78,-15 294.78,-15 298.78,-15 294.78,-11.4 302.78,-15 302.78,-15"/>
</a>
</g>
</g>
</g>
</svg>
