<?xml version="1.0" encoding="UTF-8" standalone="no"?>
<!DOCTYPE svg PUBLIC "-//W3C//DTD SVG 1.1//EN"
 "http://www.w3.org/Graphics/SVG/1.1/DTD/svg11.dtd">
<!-- Generated by graphviz version 2.43.0 (0)
 -->
<!-- Title: AbstractCommand Pages: 1 -->
<svg width="506pt" height="397pt"
 viewBox="0.00 0.00 506.00 397.00" xmlns="http://www.w3.org/2000/svg" xmlns:xlink="http://www.w3.org/1999/xlink">
<g id="graph0" class="graph" transform="scale(1 1) rotate(0) translate(4 393)">
<title>AbstractCommand</title>
<!-- Node1 -->
<g id="Node000001" class="node">
<title>Node1</title>
<g id="a_Node000001"><a xlink:title="The AbstractCommand class provides a consistent base for the classes that implement CLI commands.">
<polygon fill="#999999" stroke="#666666" points="199,-185 92,-185 92,-166 199,-166 199,-185"/>
<text text-anchor="middle" x="145.5" y="-173" font-family="Helvetica,sans-Serif" font-size="10.00">AbstractCommand</text>
</a>
</g>
</g>
<!-- Node3 -->
<g id="Node000003" class="node">
<title>Node3</title>
<g id="a_Node000003"><a xlink:href="classDeviceCommand.html" target="_top" xlink:title="The AbstractCommand class extends AbstractCommand to add a PokitDevice instance.">
<polygon fill="white" stroke="#666666" points="336,-204 235,-204 235,-185 336,-185 336,-204"/>
<text text-anchor="middle" x="285.5" y="-192" font-family="Helvetica,sans-Serif" font-size="10.00">DeviceCommand</text>
</a>
</g>
</g>
<!-- Node1&#45;&gt;Node3 -->
<g id="edge2_Node000001_Node000003" class="edge">
<title>Node1&#45;&gt;Node3</title>
<g id="a_edge2_Node000001_Node000003"><a xlink:title=" ">
<path fill="none" stroke="#63b8ff" d="M207.12,-183.85C216.37,-185.12 225.83,-186.42 234.81,-187.66"/>
<polygon fill="#63b8ff" stroke="#63b8ff" points="199.07,-182.74 207.48,-180.26 203.03,-183.28 206.99,-183.83 206.99,-183.83 206.99,-183.83 203.03,-183.28 206.5,-187.39 199.07,-182.74 199.07,-182.74"/>
</a>
</g>
</g>
<!-- Node15 -->
<g id="Node000015" class="node">
<title>Node15</title>
<g id="a_Node000015"><a xlink:href="classScanCommand.html" target="_top" xlink:title="The ScanCommand class implements the scan CLI command, by scanning for nearby Pokit Bluetooth devices...">
<polygon fill="white" stroke="#666666" points="330.5,-167 240.5,-167 240.5,-148 330.5,-148 330.5,-167"/>
<text text-anchor="middle" x="285.5" y="-155" font-family="Helvetica,sans-Serif" font-size="10.00">ScanCommand</text>
</a>
</g>
</g>
<!-- Node1&#45;&gt;Node15 -->
<g id="edge14_Node000001_Node000015" class="edge">
<title>Node1&#45;&gt;Node15</title>
<g id="a_edge14_Node000001_Node000015"><a xlink:title=" ">
<path fill="none" stroke="#63b8ff" d="M207.1,-167.6C218.22,-166.15 229.64,-164.66 240.17,-163.28"/>
<polygon fill="#63b8ff" stroke="#63b8ff" points="199.07,-168.64 206.53,-164.04 203.03,-168.13 207,-167.61 207,-167.61 207,-167.61 203.03,-168.13 207.46,-171.18 199.07,-168.64 199.07,-168.64"/>
</a>
</g>
</g>
<!-- Node2 -->
<g id="Node000002" class="node">
<title>Node2</title>
<g id="a_Node000002"><a target="_parent" xlink:href="https://doc.qt.io/qt-5/qobject.html" xlink:title=" ">
<polygon fill="white" stroke="#bfbfbf" points="56,-185 0,-185 0,-166 56,-166 56,-185"/>
<text text-anchor="middle" x="28" y="-173" font-family="Helvetica,sans-Serif" font-size="10.00">QObject</text>
</a>
</g>
</g>
<!-- Node2&#45;&gt;Node1 -->
<g id="edge1_Node000001_Node000002" class="edge">
<title>Node2&#45;&gt;Node1</title>
<g id="a_edge1_Node000001_Node000002"><a xlink:title=" ">
<path fill="none" stroke="#63b8ff" d="M64.14,-175.5C72.85,-175.5 82.37,-175.5 91.71,-175.5"/>
<polygon fill="#63b8ff" stroke="#63b8ff" points="56.08,-175.5 64.08,-171.9 60.08,-175.5 64.08,-175.5 64.08,-175.5 64.08,-175.5 60.08,-175.5 64.08,-179.1 56.08,-175.5 56.08,-175.5"/>
</a>
</g>
</g>
<!-- Node4 -->
<g id="Node000004" class="node">
<title>Node4</title>
<g id="a_Node000004"><a xlink:href="classCalibrateCommand.html" target="_top" xlink:title="The CalibrateCommand class implements the calibrate CLI command.">
<polygon fill="white" stroke="#666666" points="490.5,-389 379.5,-389 379.5,-370 490.5,-370 490.5,-389"/>
<text text-anchor="middle" x="435" y="-377" font-family="Helvetica,sans-Serif" font-size="10.00">CalibrateCommand</text>
</a>
</g>
</g>
<!-- Node3&#45;&gt;Node4 -->
<g id="edge3_Node000003_Node000004" class="edge">
<title>Node3&#45;&gt;Node4</title>
<g id="a_edge3_Node000003_Node000004"><a xlink:title=" ">
<path fill="none" stroke="#63b8ff" d="M290.58,-212.23C299.37,-246.35 323.35,-321.34 372,-361.5 376.15,-364.92 380.92,-367.7 385.94,-369.94"/>
<polygon fill="#63b8ff" stroke="#63b8ff" points="288.58,-204.11 293.99,-211.02 289.54,-207.99 290.5,-211.88 290.5,-211.88 290.5,-211.88 289.54,-207.99 287,-212.74 288.58,-204.11 288.58,-204.11"/>
</a>
</g>
</g>
<!-- Node5 -->
<g id="Node000005" class="node">
<title>Node5</title>
<g id="a_Node000005"><a xlink:href="classDsoCommand.html" target="_top" xlink:title="The DsoCommand class implements the dso CLI command.">
<polygon fill="white" stroke="#666666" points="478,-352 392,-352 392,-333 478,-333 478,-352"/>
<text text-anchor="middle" x="435" y="-340" font-family="Helvetica,sans-Serif" font-size="10.00">DsoCommand</text>
</a>
</g>
</g>
<!-- Node3&#45;&gt;Node5 -->
<g id="edge4_Node000003_Node000005" class="edge">
<title>Node3&#45;&gt;Node5</title>
<g id="a_edge4_Node000003_Node000005"><a xlink:title=" ">
<path fill="none" stroke="#63b8ff" d="M293.16,-211.75C304.82,-239.69 331.62,-294.7 372,-324.5 377.86,-328.83 384.74,-332.12 391.75,-334.62"/>
<polygon fill="#63b8ff" stroke="#63b8ff" points="290.02,-204.01 296.36,-210.07 291.52,-207.72 293.02,-211.42 293.02,-211.42 293.02,-211.42 291.52,-207.72 289.69,-212.77 290.02,-204.01 290.02,-204.01"/>
</a>
</g>
</g>
<!-- Node6 -->
<g id="Node000006" class="node">
<title>Node6</title>
<g id="a_Node000006"><a xlink:href="classFlashLedCommand.html" target="_top" xlink:title="The FlashLedCommand class implements the flash&#45;led CLI command.">
<polygon fill="white" stroke="#666666" points="490,-315 380,-315 380,-296 490,-296 490,-315"/>
<text text-anchor="middle" x="435" y="-303" font-family="Helvetica,sans-Serif" font-size="10.00">FlashLedCommand</text>
</a>
</g>
</g>
<!-- Node3&#45;&gt;Node6 -->
<g id="edge5_Node000003_Node000006" class="edge">
<title>Node3&#45;&gt;Node6</title>
<g id="a_edge5_Node000003_Node000006"><a xlink:title=" ">
<path fill="none" stroke="#63b8ff" d="M297.33,-210.99C311.87,-231.84 339.65,-267.44 372,-287.5 377.43,-290.87 383.52,-293.63 389.7,-295.88"/>
<polygon fill="#63b8ff" stroke="#63b8ff" points="292.75,-204.28 300.23,-208.86 295.01,-207.58 297.26,-210.89 297.26,-210.89 297.26,-210.89 295.01,-207.58 294.29,-212.92 292.75,-204.28 292.75,-204.28"/>
</a>
</g>
</g>
<!-- Node7 -->
<g id="Node000007" class="node">
<title>Node7</title>
<g id="a_Node000007"><a xlink:href="classInfoCommand.html" target="_top" xlink:title="The InfoCommand class implements the info CLI command.">
<polygon fill="white" stroke="#666666" points="478,-278 392,-278 392,-259 478,-259 478,-278"/>
<text text-anchor="middle" x="435" y="-266" font-family="Helvetica,sans-Serif" font-size="10.00">InfoCommand</text>
</a>
</g>
</g>
<!-- Node3&#45;&gt;Node7 -->
<g id="edge6_Node000003_Node000007" class="edge">
<title>Node3&#45;&gt;Node7</title>
<g id="a_edge6_Node000003_Node000007"><a xlink:title=" ">
<path fill="none" stroke="#63b8ff" d="M305.15,-209.07C321.87,-221.54 347.46,-239.21 372,-250.5 379.13,-253.78 386.99,-256.61 394.66,-258.99"/>
<polygon fill="#63b8ff" stroke="#63b8ff" points="298.56,-204.08 307.11,-206.04 301.75,-206.5 304.94,-208.91 304.94,-208.91 304.94,-208.91 301.75,-206.5 302.77,-211.78 298.56,-204.08 298.56,-204.08"/>
</a>
</g>
</g>
<!-- Node8 -->
<g id="Node000008" class="node">
<title>Node8</title>
<g id="a_Node000008"><a xlink:href="classLoggerFetchCommand.html" target="_top" xlink:title="The LoggerFetchCommand class implements the logger CLI command.">
<polygon fill="white" stroke="#666666" points="498,-241 372,-241 372,-222 498,-222 498,-241"/>
<text text-anchor="middle" x="435" y="-229" font-family="Helvetica,sans-Serif" font-size="10.00">LoggerFetchCommand</text>
</a>
</g>
</g>
<!-- Node3&#45;&gt;Node8 -->
<g id="edge7_Node000003_Node000008" class="edge">
<title>Node3&#45;&gt;Node8</title>
<g id="a_edge7_Node000003_Node000008"><a xlink:title=" ">
<path fill="none" stroke="#63b8ff" d="M332.41,-206.02C352.79,-211.13 376.5,-217.08 395.89,-221.94"/>
<polygon fill="#63b8ff" stroke="#63b8ff" points="324.48,-204.03 333.12,-202.48 328.36,-205 332.24,-205.97 332.24,-205.97 332.24,-205.97 328.36,-205 331.37,-209.47 324.48,-204.03 324.48,-204.03"/>
</a>
</g>
</g>
<!-- Node9 -->
<g id="Node000009" class="node">
<title>Node9</title>
<g id="a_Node000009"><a xlink:href="classLoggerStartCommand.html" target="_top" xlink:title="The LoggerStartCommand class implements the logger CLI command.">
<polygon fill="white" stroke="#666666" points="496.5,-204 373.5,-204 373.5,-185 496.5,-185 496.5,-204"/>
<text text-anchor="middle" x="435" y="-192" font-family="Helvetica,sans-Serif" font-size="10.00">LoggerStartCommand</text>
</a>
</g>
</g>
<!-- Node3&#45;&gt;Node9 -->
<g id="edge8_Node000003_Node000009" class="edge">
<title>Node3&#45;&gt;Node9</title>
<g id="a_edge8_Node000003_Node000009"><a xlink:title=" ">
<path fill="none" stroke="#63b8ff" d="M344.29,-194.5C353.82,-194.5 363.73,-194.5 373.33,-194.5"/>
<polygon fill="#63b8ff" stroke="#63b8ff" points="336.03,-194.5 344.03,-190.9 340.03,-194.5 344.03,-194.5 344.03,-194.5 344.03,-194.5 340.03,-194.5 344.03,-198.1 336.03,-194.5 336.03,-194.5"/>
</a>
</g>
</g>
<!-- Node10 -->
<g id="Node000010" class="node">
<title>Node10</title>
<g id="a_Node000010"><a xlink:href="classLoggerStopCommand.html" target="_top" xlink:title="The LoggerStopCommand class implements the logger stop CLI command.">
<polygon fill="white" stroke="#666666" points="496,-167 374,-167 374,-148 496,-148 496,-167"/>
<text text-anchor="middle" x="435" y="-155" font-family="Helvetica,sans-Serif" font-size="10.00">LoggerStopCommand</text>
</a>
</g>
</g>
<!-- Node3&#45;&gt;Node10 -->
<g id="edge9_Node000003_Node000010" class="edge">
<title>Node3&#45;&gt;Node10</title>
<g id="a_edge9_Node000003_Node000010"><a xlink:title=" ">
<path fill="none" stroke="#63b8ff" d="M332.41,-182.98C352.79,-177.87 376.5,-171.92 395.89,-167.06"/>
<polygon fill="#63b8ff" stroke="#63b8ff" points="324.48,-184.97 331.37,-179.53 328.36,-184 332.24,-183.03 332.24,-183.03 332.24,-183.03 328.36,-184 333.12,-186.52 324.48,-184.97 324.48,-184.97"/>
</a>
</g>
</g>
<!-- Node11 -->
<g id="Node000011" class="node">
<title>Node11</title>
<g id="a_Node000011"><a xlink:href="classMeterCommand.html" target="_top" xlink:title="The MeterCommand class implements the meter CLI command.">
<polygon fill="white" stroke="#666666" points="482.5,-130 387.5,-130 387.5,-111 482.5,-111 482.5,-130"/>
<text text-anchor="middle" x="435" y="-118" font-family="Helvetica,sans-Serif" font-size="10.00">MeterCommand</text>
</a>
</g>
</g>
<!-- Node3&#45;&gt;Node11 -->
<g id="edge10_Node000003_Node000011" class="edge">
<title>Node3&#45;&gt;Node11</title>
<g id="a_edge10_Node000003_Node000011"><a xlink:title=" ">
<path fill="none" stroke="#63b8ff" d="M326.95,-181.61C330.11,-180.06 333.16,-178.36 336,-176.5 355.45,-163.74 352.14,-150.61 372,-138.5 377.55,-135.12 383.77,-132.34 390.07,-130.07"/>
<polygon fill="#63b8ff" stroke="#63b8ff" points="319.49,-184.94 325.32,-178.39 323.14,-183.31 326.79,-181.68 326.79,-181.68 326.79,-181.68 323.14,-183.31 328.26,-184.97 319.49,-184.94 319.49,-184.94"/>
</a>
</g>
</g>
<!-- Node12 -->
<g id="Node000012" class="node">
<title>Node12</title>
<g id="a_Node000012"><a xlink:href="classSetNameCommand.html" target="_top" xlink:title="The SetNameCommand class implements the set&#45;name CLI command.">
<polygon fill="white" stroke="#666666" points="491,-93 379,-93 379,-74 491,-74 491,-93"/>
<text text-anchor="middle" x="435" y="-81" font-family="Helvetica,sans-Serif" font-size="10.00">SetNameCommand</text>
</a>
</g>
</g>
<!-- Node3&#45;&gt;Node12 -->
<g id="edge11_Node000003_Node000012" class="edge">
<title>Node3&#45;&gt;Node12</title>
<g id="a_edge11_Node000003_Node000012"><a xlink:title=" ">
<path fill="none" stroke="#63b8ff" d="M330.36,-180.85C332.36,-179.53 334.25,-178.08 336,-176.5 363.4,-151.68 343.79,-125.4 372,-101.5 376.02,-98.09 380.65,-95.33 385.54,-93.09"/>
<polygon fill="#63b8ff" stroke="#63b8ff" points="323.23,-184.88 328.42,-177.81 326.72,-182.91 330.2,-180.94 330.2,-180.94 330.2,-180.94 326.72,-182.91 331.97,-184.07 323.23,-184.88 323.23,-184.88"/>
</a>
</g>
</g>
<!-- Node13 -->
<g id="Node000013" class="node">
<title>Node13</title>
<g id="a_Node000013"><a xlink:href="classSetTorchCommand.html" target="_top" xlink:title="The SetTorchCommand class implements the set&#45;torch CLI command.">
<polygon fill="white" stroke="#666666" points="489,-56 381,-56 381,-37 489,-37 489,-56"/>
<text text-anchor="middle" x="435" y="-44" font-family="Helvetica,sans-Serif" font-size="10.00">SetTorchCommand</text>
</a>
</g>
</g>
<!-- Node3&#45;&gt;Node13 -->
<g id="edge12_Node000003_Node000013" class="edge">
<title>Node3&#45;&gt;Node13</title>
<g id="a_edge12_Node000003_Node000013"><a xlink:title=" ">
<path fill="none" stroke="#63b8ff" d="M331.3,-180.63C332.98,-179.37 334.56,-178 336,-176.5 372.27,-138.84 334.51,-100.94 372,-64.5 375.54,-61.06 379.69,-58.28 384.14,-56.02"/>
<polygon fill="#63b8ff" stroke="#63b8ff" points="324.42,-184.95 329.28,-177.65 327.81,-182.83 331.2,-180.7 331.2,-180.7 331.2,-180.7 327.81,-182.83 333.11,-183.75 324.42,-184.95 324.42,-184.95"/>
</a>
</g>
</g>
<!-- Node14 -->
<g id="Node000014" class="node">
<title>Node14</title>
<g id="a_Node000014"><a xlink:href="classStatusCommand.html" target="_top" xlink:title="The StatusCommand class implements the status CLI command.">
<polygon fill="white" stroke="#666666" points="484,-19 386,-19 386,0 484,0 484,-19"/>
<text text-anchor="middle" x="435" y="-7" font-family="Helvetica,sans-Serif" font-size="10.00">StatusCommand</text>
</a>
</g>
</g>
<!-- Node3&#45;&gt;Node14 -->
<g id="edge13_Node000003_Node000014" class="edge">
<title>Node3&#45;&gt;Node14</title>
<g id="a_edge13_Node000003_Node000014"><a xlink:title=" ">
<path fill="none" stroke="#63b8ff" d="M331.97,-180.34C333.41,-179.16 334.76,-177.88 336,-176.5 381.41,-125.71 324.93,-76.76 372,-27.5 375.95,-23.37 380.79,-20.17 386,-17.69"/>
<polygon fill="#63b8ff" stroke="#63b8ff" points="325.15,-184.91 329.79,-177.47 328.47,-182.68 331.8,-180.46 331.8,-180.46 331.8,-180.46 328.47,-182.68 333.8,-183.45 325.15,-184.91 325.15,-184.91"/>
</a>
</g>
</g>
</g>
</svg>
