<?xml version="1.0" encoding="UTF-8" standalone="no"?>
<!DOCTYPE svg PUBLIC "-//W3C//DTD SVG 1.1//EN"
 "http://www.w3.org/Graphics/SVG/1.1/DTD/svg11.dtd">
<!-- Generated by graphviz version 2.43.0 (0)
 -->
<!-- Title: LoggerStopCommand Pages: 1 -->
<svg width="1218pt" height="620pt"
 viewBox="0.00 0.00 1218.00 619.71" xmlns="http://www.w3.org/2000/svg" xmlns:xlink="http://www.w3.org/1999/xlink">
<g id="graph0" class="graph" transform="scale(1 1) rotate(0) translate(4 615.71)">
<title>LoggerStopCommand</title>
<!-- Node1 -->
<g id="Node000001" class="node">
<title>Node1</title>
<g id="a_Node000001"><a xlink:title="The LoggerStopCommand class implements the logger stop CLI command.">
<polygon fill="#999999" stroke="#666666" points="1210,-550.12 1088,-550.12 1088,-531.12 1210,-531.12 1210,-550.12"/>
<text text-anchor="middle" x="1149" y="-538.12" font-family="Helvetica,sans-Serif" font-size="10.00">LoggerStopCommand</text>
</a>
</g>
</g>
<!-- Node2 -->
<g id="Node000002" class="node">
<title>Node2</title>
<g id="a_Node000002"><a xlink:href="classDeviceCommand.html" target="_top" xlink:title="The AbstractCommand class extends AbstractCommand to add a PokitDevice instance.">
<polygon fill="white" stroke="#666666" points="956,-589.12 855,-589.12 855,-570.12 956,-570.12 956,-589.12"/>
<text text-anchor="middle" x="905.5" y="-577.12" font-family="Helvetica,sans-Serif" font-size="10.00">DeviceCommand</text>
</a>
</g>
</g>
<!-- Node2&#45;&gt;Node1 -->
<g id="edge1_Node000001_Node000002" class="edge">
<title>Node2&#45;&gt;Node1</title>
<g id="a_edge1_Node000001_Node000002"><a xlink:title=" ">
<path fill="none" stroke="#63b8ff" d="M964.43,-570.51C995.7,-565.57 1034.97,-559.32 1070,-553.62 1076.77,-552.51 1083.88,-551.34 1090.92,-550.18"/>
<polygon fill="#63b8ff" stroke="#63b8ff" points="956.24,-571.8 963.58,-567 960.2,-571.18 964.15,-570.56 964.15,-570.56 964.15,-570.56 960.2,-571.18 964.71,-574.11 956.24,-571.8 956.24,-571.8"/>
</a>
</g>
</g>
<!-- Node3 -->
<g id="Node000003" class="node">
<title>Node3</title>
<g id="a_Node000003"><a xlink:href="classAbstractCommand.html" target="_top" xlink:title="The AbstractCommand class provides a consistent base for the classes that implement CLI commands.">
<polygon fill="white" stroke="#666666" points="753,-484.12 646,-484.12 646,-465.12 753,-465.12 753,-484.12"/>
<text text-anchor="middle" x="699.5" y="-472.12" font-family="Helvetica,sans-Serif" font-size="10.00">AbstractCommand</text>
</a>
</g>
</g>
<!-- Node3&#45;&gt;Node2 -->
<g id="edge2_Node000002_Node000003" class="edge">
<title>Node3&#45;&gt;Node2</title>
<g id="a_edge2_Node000002_Node000003"><a xlink:title=" ">
<path fill="none" stroke="#63b8ff" d="M716.65,-489.94C732.7,-505.61 757.52,-531.08 776,-555.62 785.35,-568.04 780.47,-577.95 794,-585.62 819.08,-599.81 852.7,-595.31 876.25,-589.15"/>
<polygon fill="#63b8ff" stroke="#63b8ff" points="710.75,-484.24 719.01,-487.21 713.63,-487.02 716.51,-489.8 716.51,-489.8 716.51,-489.8 713.63,-487.02 714,-492.39 710.75,-484.24 710.75,-484.24"/>
</a>
</g>
</g>
<!-- Node4 -->
<g id="Node000004" class="node">
<title>Node4</title>
<g id="a_Node000004"><a target="_parent" xlink:href="https://doc.qt.io/qt-5/qobject.html" xlink:title=" ">
<polygon fill="white" stroke="#bfbfbf" points="56,-351.12 0,-351.12 0,-332.12 56,-332.12 56,-351.12"/>
<text text-anchor="middle" x="28" y="-339.12" font-family="Helvetica,sans-Serif" font-size="10.00">QObject</text>
</a>
</g>
</g>
<!-- Node4&#45;&gt;Node3 -->
<g id="edge3_Node000003_Node000004" class="edge">
<title>Node4&#45;&gt;Node3</title>
<g id="a_edge3_Node000003_Node000004"><a xlink:title=" ">
<path fill="none" stroke="#63b8ff" d="M46.97,-356.67C59.17,-366.02 76.1,-377.42 93,-383.62 308.25,-462.58 380.61,-399.56 605,-446.62 627.55,-451.35 652.53,-458.95 670.99,-465.04"/>
<polygon fill="#63b8ff" stroke="#63b8ff" points="40.37,-351.45 48.88,-353.59 43.51,-353.93 46.65,-356.41 46.65,-356.41 46.65,-356.41 43.51,-353.93 44.42,-359.23 40.37,-351.45 40.37,-351.45"/>
</a>
</g>
</g>
<!-- Node7 -->
<g id="Node000007" class="node">
<title>Node7</title>
<g id="a_Node000007"><a target="_parent" xlink:href="https://doc.qt.io/qt-5/qbluetoothdevicediscoveryagent.html" xlink:title=" ">
<polygon fill="white" stroke="#bfbfbf" points="247,-507.62 93,-507.62 93,-477.62 247,-477.62 247,-507.62"/>
<text text-anchor="start" x="101" y="-495.62" font-family="Helvetica,sans-Serif" font-size="10.00">QBluetoothDeviceDiscovery</text>
<text text-anchor="middle" x="170" y="-484.62" font-family="Helvetica,sans-Serif" font-size="10.00">Agent</text>
</a>
</g>
</g>
<!-- Node4&#45;&gt;Node7 -->
<g id="edge7_Node000007_Node000004" class="edge">
<title>Node4&#45;&gt;Node7</title>
<g id="a_edge7_Node000007_Node000004"><a xlink:title=" ">
<path fill="none" stroke="#63b8ff" d="M34.54,-359.03C41.39,-378.46 54.58,-409.99 74,-431.62 91.55,-451.16 116.76,-466.95 136.8,-477.57"/>
<polygon fill="#63b8ff" stroke="#63b8ff" points="31.92,-351.27 37.89,-357.7 33.2,-355.06 34.48,-358.85 34.48,-358.85 34.48,-358.85 33.2,-355.06 31.07,-360.01 31.92,-351.27 31.92,-351.27"/>
</a>
</g>
</g>
<!-- Node8 -->
<g id="Node000008" class="node">
<title>Node8</title>
<g id="a_Node000008"><a xlink:href="classPokitDiscoveryAgentPrivate.html" target="_top" xlink:title="The PokitDiscoveryAgentPrivate class provides private implementation for PokitDiscoveryAgent.">
<polygon fill="white" stroke="#666666" points="776,-583.12 623,-583.12 623,-564.12 776,-564.12 776,-583.12"/>
<text text-anchor="middle" x="699.5" y="-571.12" font-family="Helvetica,sans-Serif" font-size="10.00">PokitDiscoveryAgentPrivate</text>
</a>
</g>
</g>
<!-- Node4&#45;&gt;Node8 -->
<g id="edge9_Node000008_Node000004" class="edge">
<title>Node4&#45;&gt;Node8</title>
<g id="a_edge9_Node000008_Node000004"><a xlink:title=" ">
<path fill="none" stroke="#63b8ff" d="M29.87,-359.6C32.64,-395.56 44.27,-476.33 93,-516.62 262.07,-656.37 555.5,-606.84 660.1,-583.2"/>
<polygon fill="#63b8ff" stroke="#63b8ff" points="29.34,-351.48 33.45,-359.22 29.6,-355.47 29.86,-359.46 29.86,-359.46 29.86,-359.46 29.6,-355.47 26.27,-359.69 29.34,-351.48 29.34,-351.48"/>
</a>
</g>
</g>
<!-- Node9 -->
<g id="Node000009" class="node">
<title>Node9</title>
<g id="a_Node000009"><a xlink:href="classPokitDevice.html" target="_top" xlink:title="The PokitDevice class simplifies Pokit device access.">
<polygon fill="white" stroke="#666666" points="737,-409.12 662,-409.12 662,-390.12 737,-390.12 737,-409.12"/>
<text text-anchor="middle" x="699.5" y="-397.12" font-family="Helvetica,sans-Serif" font-size="10.00">PokitDevice</text>
</a>
</g>
</g>
<!-- Node4&#45;&gt;Node9 -->
<g id="edge12_Node000009_Node000004" class="edge">
<title>Node4&#45;&gt;Node9</title>
<g id="a_edge12_Node000009_Node000004"><a xlink:title=" ">
<path fill="none" stroke="#63b8ff" d="M64.33,-353.44C67.58,-354.28 70.83,-355.02 74,-355.62 294.31,-397.07 564.99,-400.29 661.87,-399.97"/>
<polygon fill="#63b8ff" stroke="#63b8ff" points="56.35,-351.23 65.02,-349.9 60.21,-352.3 64.06,-353.37 64.06,-353.37 64.06,-353.37 60.21,-352.3 63.1,-356.84 56.35,-351.23 56.35,-351.23"/>
</a>
</g>
</g>
<!-- Node10 -->
<g id="Node000010" class="node">
<title>Node10</title>
<g id="a_Node000010"><a xlink:href="classPokitDevicePrivate.html" target="_top" xlink:title="The PokitDevicePrivate class provides private implementation for PokitDevice.">
<polygon fill="white" stroke="#666666" points="1204,-274.12 1094,-274.12 1094,-255.12 1204,-255.12 1204,-274.12"/>
<text text-anchor="middle" x="1149" y="-262.12" font-family="Helvetica,sans-Serif" font-size="10.00">PokitDevicePrivate</text>
</a>
</g>
</g>
<!-- Node4&#45;&gt;Node10 -->
<g id="edge14_Node000010_Node000004" class="edge">
<title>Node4&#45;&gt;Node10</title>
<g id="a_edge14_Node000010_Node000004"><a xlink:title=" ">
<path fill="none" stroke="#63b8ff" d="M64.1,-341.62C92.42,-341.62 133.27,-341.62 169,-341.62 169,-341.62 169,-341.62 562,-341.62 739.36,-341.62 783.26,-327.37 960,-312.62 1008.92,-308.53 1022.71,-315.8 1070,-302.62 1092.92,-296.22 1117.26,-283.25 1132.54,-274.25"/>
<polygon fill="#63b8ff" stroke="#63b8ff" points="56.1,-341.62 64.1,-338.02 60.1,-341.62 64.1,-341.62 64.1,-341.62 64.1,-341.62 60.1,-341.62 64.1,-345.22 56.1,-341.62 56.1,-341.62"/>
</a>
</g>
</g>
<!-- Node11 -->
<g id="Node000011" class="node">
<title>Node11</title>
<g id="a_Node000011"><a target="_parent" xlink:href="https://doc.qt.io/qt-5/qlowenergycontroller.html" xlink:title=" ">
<polygon fill="white" stroke="#bfbfbf" points="232.5,-313.12 107.5,-313.12 107.5,-294.12 232.5,-294.12 232.5,-313.12"/>
<text text-anchor="middle" x="170" y="-301.12" font-family="Helvetica,sans-Serif" font-size="10.00">QLowEnergyController</text>
</a>
</g>
</g>
<!-- Node4&#45;&gt;Node11 -->
<g id="edge16_Node000011_Node000004" class="edge">
<title>Node4&#45;&gt;Node11</title>
<g id="a_edge16_Node000011_Node000004"><a xlink:title=" ">
<path fill="none" stroke="#63b8ff" d="M63.92,-330.55C67.32,-329.53 70.72,-328.54 74,-327.62 92.01,-322.54 112.08,-317.4 129.12,-313.18"/>
<polygon fill="#63b8ff" stroke="#63b8ff" points="56.06,-332.94 62.66,-327.17 59.88,-331.77 63.71,-330.61 63.71,-330.61 63.71,-330.61 59.88,-331.77 64.76,-334.06 56.06,-332.94 56.06,-332.94"/>
</a>
</g>
</g>
<!-- Node13 -->
<g id="Node000013" class="node">
<title>Node13</title>
<g id="a_Node000013"><a xlink:href="classAbstractPokitService.html" target="_top" xlink:title="The AbstractPokitService class provides a common base for Pokit services classes.">
<polygon fill="white" stroke="#666666" points="758.5,-196.12 640.5,-196.12 640.5,-177.12 758.5,-177.12 758.5,-196.12"/>
<text text-anchor="middle" x="699.5" y="-184.12" font-family="Helvetica,sans-Serif" font-size="10.00">AbstractPokitService</text>
</a>
</g>
</g>
<!-- Node4&#45;&gt;Node13 -->
<g id="edge19_Node000013_Node000004" class="edge">
<title>Node4&#45;&gt;Node13</title>
<g id="a_edge19_Node000013_Node000004"><a xlink:title=" ">
<path fill="none" stroke="#63b8ff" d="M31.48,-323.95C36.76,-293.89 52.14,-233.42 93,-206.62 137.96,-177.12 497.48,-181.99 640.3,-185.14"/>
<polygon fill="#63b8ff" stroke="#63b8ff" points="30.2,-331.91 27.92,-323.44 30.84,-327.96 31.47,-324.01 31.47,-324.01 31.47,-324.01 30.84,-327.96 35.03,-324.58 30.2,-331.91 30.2,-331.91"/>
</a>
</g>
</g>
<!-- Node14 -->
<g id="Node000014" class="node">
<title>Node14</title>
<g id="a_Node000014"><a xlink:href="classAbstractPokitServicePrivate.html" target="_top" xlink:title="The AbstractPokitServicePrivate class provides private implementation for AbstractPokitService.">
<polygon fill="white" stroke="#666666" points="499,-244.12 347,-244.12 347,-225.12 499,-225.12 499,-244.12"/>
<text text-anchor="middle" x="423" y="-232.12" font-family="Helvetica,sans-Serif" font-size="10.00">AbstractPokitServicePrivate</text>
</a>
</g>
</g>
<!-- Node4&#45;&gt;Node14 -->
<g id="edge21_Node000014_Node000004" class="edge">
<title>Node4&#45;&gt;Node14</title>
<g id="a_edge21_Node000014_Node000004"><a xlink:title=" ">
<path fill="none" stroke="#63b8ff" d="M34.95,-324.32C43.73,-301.76 62.49,-263.1 93,-245.62 185.97,-192.33 319.24,-211.2 383.91,-225.11"/>
<polygon fill="#63b8ff" stroke="#63b8ff" points="32.07,-332.1 31.47,-323.35 33.46,-328.35 34.84,-324.6 34.84,-324.6 34.84,-324.6 33.46,-328.35 38.22,-325.85 32.07,-332.1 32.07,-332.1"/>
</a>
</g>
</g>
<!-- Node15 -->
<g id="Node000015" class="node">
<title>Node15</title>
<g id="a_Node000015"><a target="_parent" xlink:href="https://doc.qt.io/qt-5/qlowenergyservice.html" xlink:title=" ">
<polygon fill="white" stroke="#bfbfbf" points="226.5,-274.12 113.5,-274.12 113.5,-255.12 226.5,-255.12 226.5,-274.12"/>
<text text-anchor="middle" x="170" y="-262.12" font-family="Helvetica,sans-Serif" font-size="10.00">QLowEnergyService</text>
</a>
</g>
</g>
<!-- Node4&#45;&gt;Node15 -->
<g id="edge24_Node000015_Node000004" class="edge">
<title>Node4&#45;&gt;Node15</title>
<g id="a_edge24_Node000015_Node000004"><a xlink:title=" ">
<path fill="none" stroke="#63b8ff" d="M42.75,-325.79C54.77,-312.89 73.35,-295.16 93,-284.62 101.05,-280.29 110.1,-276.86 119.06,-274.16"/>
<polygon fill="#63b8ff" stroke="#63b8ff" points="37.08,-332.02 39.8,-323.68 39.77,-329.06 42.46,-326.1 42.46,-326.1 42.46,-326.1 39.77,-329.06 45.13,-328.52 37.08,-332.02 37.08,-332.02"/>
</a>
</g>
</g>
<!-- Node5 -->
<g id="Node000005" class="node">
<title>Node5</title>
<g id="a_Node000005"><a target="_parent" xlink:href="https://doc.qt.io/qt-5/qstring.html" xlink:title=" ">
<polygon fill="white" stroke="#bfbfbf" points="449.5,-465.12 396.5,-465.12 396.5,-446.12 449.5,-446.12 449.5,-465.12"/>
<text text-anchor="middle" x="423" y="-453.12" font-family="Helvetica,sans-Serif" font-size="10.00">QString</text>
</a>
</g>
</g>
<!-- Node5&#45;&gt;Node3 -->
<g id="edge4_Node000003_Node000005" class="edge">
<title>Node5&#45;&gt;Node3</title>
<g id="a_edge4_Node000003_Node000005"><a xlink:title=" ">
<path fill="none" stroke="#9a32cd" stroke-dasharray="5,2" d="M457.87,-453.2C494.32,-451.12 553.94,-449.22 605,-454.62 624.15,-456.64 645.14,-460.94 662.38,-465.03"/>
<polygon fill="#9a32cd" stroke="#9a32cd" points="449.57,-453.7 457.34,-449.62 453.56,-453.46 457.55,-453.22 457.55,-453.22 457.55,-453.22 453.56,-453.46 457.77,-456.81 449.57,-453.7 449.57,-453.7"/>
</a>
</g>
<text text-anchor="start" x="520" y="-460.12" font-family="Helvetica,sans-Serif" font-size="10.00" fill="grey">deviceToScanFor</text>
</g>
<!-- Node6 -->
<g id="Node000006" class="node">
<title>Node6</title>
<g id="a_Node000006"><a xlink:href="classPokitDiscoveryAgent.html" target="_top" xlink:title="The PokitDiscoveryAgent class discovers nearby Pokit devices.">
<polygon fill="white" stroke="#666666" points="482.5,-531.12 363.5,-531.12 363.5,-512.12 482.5,-512.12 482.5,-531.12"/>
<text text-anchor="middle" x="423" y="-519.12" font-family="Helvetica,sans-Serif" font-size="10.00">PokitDiscoveryAgent</text>
</a>
</g>
</g>
<!-- Node6&#45;&gt;Node3 -->
<g id="edge5_Node000003_Node000006" class="edge">
<title>Node6&#45;&gt;Node3</title>
<g id="a_edge5_Node000003_Node000006"><a xlink:title=" ">
<path fill="none" stroke="#9a32cd" stroke-dasharray="5,2" d="M460.23,-509.52C477.29,-504.23 498.01,-498.39 517,-494.62 559.91,-486.09 609.3,-480.94 645.71,-478.01"/>
<polygon fill="#9a32cd" stroke="#9a32cd" points="452.18,-512.06 458.73,-506.22 455.99,-510.85 459.81,-509.65 459.81,-509.65 459.81,-509.65 455.99,-510.85 460.89,-513.08 452.18,-512.06 452.18,-512.06"/>
</a>
</g>
<text text-anchor="start" x="523" y="-500.12" font-family="Helvetica,sans-Serif" font-size="10.00" fill="grey">discoveryAgent</text>
</g>
<!-- Node6&#45;&gt;Node8 -->
<g id="edge10_Node000008_Node000006" class="edge">
<title>Node6&#45;&gt;Node8</title>
<g id="a_edge10_Node000008_Node000006"><a xlink:title=" ">
<path fill="none" stroke="#9a32cd" stroke-dasharray="5,2" d="M457.03,-533.98C474.62,-540.12 496.74,-547.16 517,-551.62 551.41,-559.18 590.1,-564.32 622.9,-567.72"/>
<polygon fill="#9a32cd" stroke="#9a32cd" points="449.3,-531.23 458.04,-530.51 453.07,-532.57 456.84,-533.91 456.84,-533.91 456.84,-533.91 453.07,-532.57 455.63,-537.3 449.3,-531.23 449.3,-531.23"/>
</a>
</g>
<text text-anchor="start" x="549" y="-570.12" font-family="Helvetica,sans-Serif" font-size="10.00" fill="grey">q_ptr</text>
</g>
<!-- Node7&#45;&gt;Node6 -->
<g id="edge6_Node000006_Node000007" class="edge">
<title>Node7&#45;&gt;Node6</title>
<g id="a_edge6_Node000006_Node000007"><a xlink:title=" ">
<path fill="none" stroke="#63b8ff" d="M255.72,-502.4C291.03,-506.48 331.17,-511.12 363.16,-514.82"/>
<polygon fill="#63b8ff" stroke="#63b8ff" points="247.33,-501.43 255.69,-498.78 251.3,-501.89 255.28,-502.35 255.28,-502.35 255.28,-502.35 251.3,-501.89 254.86,-505.93 247.33,-501.43 247.33,-501.43"/>
</a>
</g>
</g>
<!-- Node8&#45;&gt;Node6 -->
<g id="edge8_Node000006_Node000008" class="edge">
<title>Node8&#45;&gt;Node6</title>
<g id="a_edge8_Node000006_Node000008"><a xlink:title=" ">
<path fill="none" stroke="#9a32cd" stroke-dasharray="5,2" d="M673.06,-560.36C654.67,-551.44 628.96,-540.31 605,-534.62 564.85,-525.07 518.39,-521.89 482.6,-521.06"/>
<polygon fill="#9a32cd" stroke="#9a32cd" points="680.47,-564.02 671.7,-563.7 676.88,-562.25 673.3,-560.47 673.3,-560.47 673.3,-560.47 676.88,-562.25 674.89,-557.25 680.47,-564.02 680.47,-564.02"/>
</a>
</g>
<text text-anchor="start" x="549" y="-540.12" font-family="Helvetica,sans-Serif" font-size="10.00" fill="grey">d_ptr</text>
</g>
<!-- Node9&#45;&gt;Node2 -->
<g id="edge11_Node000002_Node000009" class="edge">
<title>Node9&#45;&gt;Node2</title>
<g id="a_edge11_Node000002_Node000009"><a xlink:title=" ">
<path fill="none" stroke="#9a32cd" stroke-dasharray="5,2" d="M727.46,-413.33C744.01,-423.16 764.24,-437.93 776,-456.62 797.5,-490.77 766.91,-515.7 794,-545.62 802.79,-555.32 831.33,-563.97 857.21,-570.11"/>
<polygon fill="#9a32cd" stroke="#9a32cd" points="720.15,-409.17 728.88,-410 723.63,-411.15 727.1,-413.13 727.1,-413.13 727.1,-413.13 723.63,-411.15 725.32,-416.26 720.15,-409.17 720.15,-409.17"/>
</a>
</g>
<text text-anchor="start" x="797.5" y="-568.12" font-family="Helvetica,sans-Serif" font-size="10.00" fill="grey">device</text>
</g>
<!-- Node9&#45;&gt;Node10 -->
<g id="edge44_Node000010_Node000009" class="edge">
<title>Node9&#45;&gt;Node10</title>
<g id="a_edge44_Node000010_Node000009"><a xlink:title=" ">
<path fill="none" stroke="#9a32cd" stroke-dasharray="5,2" d="M724.61,-413.43C797.24,-454.19 1012.44,-568.49 1070,-525.62 1112.48,-493.98 1140.34,-317.88 1146.64,-274.35"/>
<polygon fill="#9a32cd" stroke="#9a32cd" points="717.25,-409.28 725.99,-410.08 720.74,-411.25 724.22,-413.21 724.22,-413.21 724.22,-413.21 720.74,-411.25 722.45,-416.35 717.25,-409.28 717.25,-409.28"/>
</a>
</g>
<text text-anchor="start" x="893.5" y="-526.12" font-family="Helvetica,sans-Serif" font-size="10.00" fill="grey">q_ptr</text>
</g>
<!-- Node10&#45;&gt;Node9 -->
<g id="edge13_Node000009_Node000010" class="edge">
<title>Node10&#45;&gt;Node9</title>
<g id="a_edge13_Node000009_Node000010"><a xlink:title=" ">
<path fill="none" stroke="#9a32cd" stroke-dasharray="5,2" d="M1137.35,-280.98C1124.04,-299.93 1099.41,-330.5 1070,-345.62 1012.27,-375.28 818.76,-391.58 737.22,-397.27"/>
<polygon fill="#9a32cd" stroke="#9a32cd" points="1141.88,-274.33 1140.35,-282.97 1139.63,-277.64 1137.37,-280.94 1137.37,-280.94 1137.37,-280.94 1139.63,-277.64 1134.4,-278.91 1141.88,-274.33 1141.88,-274.33"/>
</a>
</g>
<text text-anchor="start" x="893.5" y="-393.12" font-family="Helvetica,sans-Serif" font-size="10.00" fill="grey">d_ptr</text>
</g>
<!-- Node11&#45;&gt;Node10 -->
<g id="edge15_Node000010_Node000011" class="edge">
<title>Node11&#45;&gt;Node10</title>
<g id="a_edge15_Node000010_Node000011"><a xlink:title=" ">
<path fill="none" stroke="#9a32cd" stroke-dasharray="5,2" d="M240.55,-302.37C268.09,-301.86 300.04,-301.24 329,-300.62 658.35,-293.49 743.16,-323.86 1070,-282.62 1084.34,-280.81 1099.9,-277.5 1113.33,-274.2"/>
<polygon fill="#9a32cd" stroke="#9a32cd" points="232.53,-302.52 240.46,-298.78 236.53,-302.45 240.53,-302.38 240.53,-302.38 240.53,-302.38 236.53,-302.45 240.59,-305.97 232.53,-302.52 232.53,-302.52"/>
</a>
</g>
<text text-anchor="start" x="676.5" y="-311.12" font-family="Helvetica,sans-Serif" font-size="10.00" fill="grey">controller</text>
</g>
<!-- Node11&#45;&gt;Node14 -->
<g id="edge22_Node000014_Node000011" class="edge">
<title>Node11&#45;&gt;Node14</title>
<g id="a_edge22_Node000014_Node000011"><a xlink:title=" ">
<path fill="none" stroke="#9a32cd" stroke-dasharray="5,2" d="M217.2,-292.13C248.77,-284.15 291.52,-273.12 329,-262.62 349.95,-256.75 373.4,-249.68 391.51,-244.12"/>
<polygon fill="#9a32cd" stroke="#9a32cd" points="209.42,-294.09 216.3,-288.64 213.3,-293.11 217.18,-292.13 217.18,-292.13 217.18,-292.13 213.3,-293.11 218.06,-295.62 209.42,-294.09 209.42,-294.09"/>
</a>
</g>
<text text-anchor="start" x="274" y="-285.12" font-family="Helvetica,sans-Serif" font-size="10.00" fill="grey">controller</text>
</g>
<!-- Node12 -->
<g id="Node000012" class="node">
<title>Node12</title>
<g id="a_Node000012"><a xlink:href="classCalibrationService.html" target="_top" xlink:title="The CalibrationService class accesses the Calibrartion service of Pokit devices.">
<polygon fill="white" stroke="#666666" points="958.5,-154.12 852.5,-154.12 852.5,-135.12 958.5,-135.12 958.5,-154.12"/>
<text text-anchor="middle" x="905.5" y="-142.12" font-family="Helvetica,sans-Serif" font-size="10.00">CalibrationService</text>
</a>
</g>
</g>
<!-- Node12&#45;&gt;Node10 -->
<g id="edge17_Node000010_Node000012" class="edge">
<title>Node12&#45;&gt;Node10</title>
<g id="a_edge17_Node000010_Node000012"><a xlink:title=" ">
<path fill="none" stroke="#9a32cd" stroke-dasharray="5,2" d="M966.75,-141.14C999.24,-141.83 1038.91,-147.02 1070,-164.62 1107.94,-186.09 1133.85,-234.17 1143.65,-254.85"/>
<polygon fill="#9a32cd" stroke="#9a32cd" points="958.66,-141.05 966.7,-137.54 962.66,-141.09 966.66,-141.14 966.66,-141.14 966.66,-141.14 962.66,-141.09 966.62,-144.74 958.66,-141.05 958.66,-141.05"/>
</a>
</g>
<text text-anchor="start" x="998" y="-170.12" font-family="Helvetica,sans-Serif" font-size="10.00" fill="grey">calibration</text>
</g>
<!-- Node13&#45;&gt;Node12 -->
<g id="edge18_Node000012_Node000013" class="edge">
<title>Node13&#45;&gt;Node12</title>
<g id="a_edge18_Node000012_Node000013"><a xlink:title=" ">
<path fill="none" stroke="#63b8ff" d="M754.79,-175.44C786.97,-168.81 827.33,-160.5 858.04,-154.18"/>
<polygon fill="#63b8ff" stroke="#63b8ff" points="746.79,-177.09 753.9,-171.95 750.71,-176.28 754.63,-175.47 754.63,-175.47 754.63,-175.47 750.71,-176.28 755.35,-179 746.79,-177.09 746.79,-177.09"/>
</a>
</g>
</g>
<!-- Node13&#45;&gt;Node14 -->
<g id="edge27_Node000014_Node000013" class="edge">
<title>Node13&#45;&gt;Node14</title>
<g id="a_edge27_Node000014_Node000013"><a xlink:title=" ">
<path fill="none" stroke="#9a32cd" stroke-dasharray="5,2" d="M679.11,-200.98C661,-213.44 632.68,-230.56 605,-237.62 568.46,-246.93 526.4,-246.86 492.03,-244.15"/>
<polygon fill="#9a32cd" stroke="#9a32cd" points="685.76,-196.3 681.29,-203.85 682.49,-198.6 679.22,-200.91 679.22,-200.91 679.22,-200.91 682.49,-198.6 677.15,-197.97 685.76,-196.3 685.76,-196.3"/>
</a>
</g>
<text text-anchor="start" x="549" y="-252.12" font-family="Helvetica,sans-Serif" font-size="10.00" fill="grey">q_ptr</text>
</g>
<!-- Node18 -->
<g id="Node000018" class="node">
<title>Node18</title>
<g id="a_Node000018"><a xlink:href="classDataLoggerService.html" target="_top" xlink:title="The DataLoggerService class accesses the Data Logger service of Pokit devices.">
<polygon fill="white" stroke="#666666" points="960,-268.12 851,-268.12 851,-249.12 960,-249.12 960,-268.12"/>
<text text-anchor="middle" x="905.5" y="-256.12" font-family="Helvetica,sans-Serif" font-size="10.00">DataLoggerService</text>
</a>
</g>
</g>
<!-- Node13&#45;&gt;Node18 -->
<g id="edge30_Node000018_Node000013" class="edge">
<title>Node13&#45;&gt;Node18</title>
<g id="a_edge30_Node000018_Node000013"><a xlink:title=" ">
<path fill="none" stroke="#63b8ff" d="M735.27,-198.89C775.43,-213.06 840.66,-236.08 877.3,-249.02"/>
<polygon fill="#63b8ff" stroke="#63b8ff" points="727.59,-196.18 736.33,-195.44 731.36,-197.51 735.13,-198.84 735.13,-198.84 735.13,-198.84 731.36,-197.51 733.94,-202.23 727.59,-196.18 727.59,-196.18"/>
</a>
</g>
</g>
<!-- Node19 -->
<g id="Node000019" class="node">
<title>Node19</title>
<g id="a_Node000019"><a xlink:href="classDeviceInfoService.html" target="_top" xlink:title="The DeviceInfoService class accesses the Device Info service of Pokit devices.">
<polygon fill="white" stroke="#666666" points="958,-114.12 853,-114.12 853,-95.12 958,-95.12 958,-114.12"/>
<text text-anchor="middle" x="905.5" y="-102.12" font-family="Helvetica,sans-Serif" font-size="10.00">DeviceInfoService</text>
</a>
</g>
</g>
<!-- Node13&#45;&gt;Node19 -->
<g id="edge33_Node000019_Node000013" class="edge">
<title>Node13&#45;&gt;Node19</title>
<g id="a_edge33_Node000019_Node000013"><a xlink:title=" ">
<path fill="none" stroke="#63b8ff" d="M731.65,-173.87C762.06,-161.46 809.65,-142.11 851,-125.62 860.45,-121.84 870.87,-117.74 879.97,-114.18"/>
<polygon fill="#63b8ff" stroke="#63b8ff" points="723.93,-177.03 729.97,-170.67 727.63,-175.51 731.34,-174 731.34,-174 731.34,-174 727.63,-175.51 732.7,-177.33 723.93,-177.03 723.93,-177.03"/>
</a>
</g>
</g>
<!-- Node20 -->
<g id="Node000020" class="node">
<title>Node20</title>
<g id="a_Node000020"><a xlink:href="classDsoService.html" target="_top" xlink:title="The DsoService class accesses the DSO (Digital Storage Oscilloscope) service of Pokit devices.">
<polygon fill="white" stroke="#666666" points="941,-63.12 870,-63.12 870,-44.12 941,-44.12 941,-63.12"/>
<text text-anchor="middle" x="905.5" y="-51.12" font-family="Helvetica,sans-Serif" font-size="10.00">DsoService</text>
</a>
</g>
</g>
<!-- Node13&#45;&gt;Node20 -->
<g id="edge36_Node000020_Node000013" class="edge">
<title>Node13&#45;&gt;Node20</title>
<g id="a_edge36_Node000020_Node000013"><a xlink:title=" ">
<path fill="none" stroke="#63b8ff" d="M721.21,-172.22C750.02,-152.3 803.96,-115.44 851,-85.62 863.25,-77.85 877.33,-69.45 887.97,-63.2"/>
<polygon fill="#63b8ff" stroke="#63b8ff" points="714.45,-176.9 718.98,-169.39 717.74,-174.62 721.03,-172.35 721.03,-172.35 721.03,-172.35 717.74,-174.62 723.08,-175.31 714.45,-176.9 714.45,-176.9"/>
</a>
</g>
</g>
<!-- Node21 -->
<g id="Node000021" class="node">
<title>Node21</title>
<g id="a_Node000021"><a xlink:href="classMultimeterService.html" target="_top" xlink:title="The MultimeterService class accesses the Multimeter service of Pokit devices.">
<polygon fill="white" stroke="#666666" points="959,-193.12 852,-193.12 852,-174.12 959,-174.12 959,-193.12"/>
<text text-anchor="middle" x="905.5" y="-181.12" font-family="Helvetica,sans-Serif" font-size="10.00">MultimeterService</text>
</a>
</g>
</g>
<!-- Node13&#45;&gt;Node21 -->
<g id="edge39_Node000021_Node000013" class="edge">
<title>Node13&#45;&gt;Node21</title>
<g id="a_edge39_Node000021_Node000013"><a xlink:title=" ">
<path fill="none" stroke="#63b8ff" d="M766.72,-185.64C794.3,-185.24 825.86,-184.77 851.82,-184.39"/>
<polygon fill="#63b8ff" stroke="#63b8ff" points="758.69,-185.76 766.63,-182.04 762.68,-185.7 766.68,-185.64 766.68,-185.64 766.68,-185.64 762.68,-185.7 766.74,-189.24 758.69,-185.76 758.69,-185.76"/>
</a>
</g>
</g>
<!-- Node22 -->
<g id="Node000022" class="node">
<title>Node22</title>
<g id="a_Node000022"><a xlink:href="classStatusService.html" target="_top" xlink:title="The StatusService class accesses the Pokit Status service of Pokit devices.">
<polygon fill="white" stroke="#666666" points="947,-230.12 864,-230.12 864,-211.12 947,-211.12 947,-230.12"/>
<text text-anchor="middle" x="905.5" y="-218.12" font-family="Helvetica,sans-Serif" font-size="10.00">StatusService</text>
</a>
</g>
</g>
<!-- Node13&#45;&gt;Node22 -->
<g id="edge42_Node000022_Node000013" class="edge">
<title>Node13&#45;&gt;Node22</title>
<g id="a_edge42_Node000022_Node000013"><a xlink:title=" ">
<path fill="none" stroke="#63b8ff" d="M765.67,-197.48C797.93,-202.85 835.87,-209.18 863.92,-213.85"/>
<polygon fill="#63b8ff" stroke="#63b8ff" points="757.6,-196.13 766.08,-193.9 761.54,-196.79 765.49,-197.45 765.49,-197.45 765.49,-197.45 761.54,-196.79 764.9,-201 757.6,-196.13 757.6,-196.13"/>
</a>
</g>
</g>
<!-- Node14&#45;&gt;Node13 -->
<g id="edge20_Node000013_Node000014" class="edge">
<title>Node14&#45;&gt;Node13</title>
<g id="a_edge20_Node000013_Node000014"><a xlink:title=" ">
<path fill="none" stroke="#9a32cd" stroke-dasharray="5,2" d="M486.62,-223.67C534.1,-215.36 598.7,-204.07 644.04,-196.14"/>
<polygon fill="#9a32cd" stroke="#9a32cd" points="478.56,-225.08 485.82,-220.15 482.5,-224.39 486.44,-223.7 486.44,-223.7 486.44,-223.7 482.5,-224.39 487.06,-227.24 478.56,-225.08 478.56,-225.08"/>
</a>
</g>
<text text-anchor="start" x="549" y="-224.12" font-family="Helvetica,sans-Serif" font-size="10.00" fill="grey">d_ptr</text>
</g>
<!-- Node15&#45;&gt;Node14 -->
<g id="edge23_Node000014_Node000015" class="edge">
<title>Node15&#45;&gt;Node14</title>
<g id="a_edge23_Node000014_Node000015"><a xlink:title=" ">
<path fill="none" stroke="#9a32cd" stroke-dasharray="5,2" d="M220.67,-253.33C234.92,-250.43 250.52,-247.58 265,-245.62 291.53,-242.02 320.76,-239.57 346.73,-237.9"/>
<polygon fill="#9a32cd" stroke="#9a32cd" points="212.45,-255.03 219.55,-249.88 216.37,-254.22 220.28,-253.41 220.28,-253.41 220.28,-253.41 216.37,-254.22 221.02,-256.93 212.45,-255.03 212.45,-255.03"/>
</a>
</g>
<text text-anchor="start" x="279" y="-251.12" font-family="Helvetica,sans-Serif" font-size="10.00" fill="grey">service</text>
</g>
<!-- Node16 -->
<g id="Node000016" class="node">
<title>Node16</title>
<g id="a_Node000016"><a target="_parent" xlink:href="https://doc.qt.io/qt-5/qbluetoothuuid.html" xlink:title=" ">
<polygon fill="white" stroke="#bfbfbf" points="217,-92.12 123,-92.12 123,-73.12 217,-73.12 217,-92.12"/>
<text text-anchor="middle" x="170" y="-80.12" font-family="Helvetica,sans-Serif" font-size="10.00">QBluetoothUuid</text>
</a>
</g>
</g>
<!-- Node16&#45;&gt;Node12 -->
<g id="edge28_Node000012_Node000016" class="edge">
<title>Node16&#45;&gt;Node12</title>
<g id="a_edge28_Node000012_Node000016"><a xlink:title=" ">
<path fill="none" stroke="#9a32cd" stroke-dasharray="5,2" d="M225.08,-76.71C364.51,-62.54 732.26,-32.25 833,-94.62 845.58,-102.4 839.64,-113.14 851,-122.62 857.17,-127.76 864.71,-131.84 872.16,-135.01"/>
<polygon fill="#9a32cd" stroke="#9a32cd" points="217.03,-77.53 224.62,-73.14 221.01,-77.13 224.99,-76.72 224.99,-76.72 224.99,-76.72 221.01,-77.13 225.35,-80.3 217.03,-77.53 217.03,-77.53"/>
</a>
</g>
<text text-anchor="start" x="532" y="-63.12" font-family="Helvetica,sans-Serif" font-size="10.00" fill="grey">serviceUuid</text>
</g>
<!-- Node16&#45;&gt;Node14 -->
<g id="edge25_Node000014_Node000016" class="edge">
<title>Node16&#45;&gt;Node14</title>
<g id="a_edge25_Node000014_Node000016"><a xlink:title=" ">
<path fill="none" stroke="#9a32cd" stroke-dasharray="5,2" d="M193.58,-96.29C243.73,-126.66 363.35,-199.1 406.3,-225.11"/>
<polygon fill="#9a32cd" stroke="#9a32cd" points="186.7,-92.12 195.41,-93.19 190.12,-94.2 193.54,-96.27 193.54,-96.27 193.54,-96.27 190.12,-94.2 191.68,-99.35 186.7,-92.12 186.7,-92.12"/>
</a>
</g>
<text text-anchor="start" x="268" y="-183.12" font-family="Helvetica,sans-Serif" font-size="10.00" fill="grey">serviceUuid</text>
</g>
<!-- Node16&#45;&gt;Node18 -->
<g id="edge31_Node000018_Node000016" class="edge">
<title>Node16&#45;&gt;Node18</title>
<g id="a_edge31_Node000018_Node000016"><a xlink:title=" ">
<path fill="none" stroke="#9a32cd" stroke-dasharray="5,2" d="M225.07,-93.04C334.1,-114.34 572.72,-162.57 605,-182.62 615.73,-189.28 612.22,-198.02 623,-204.62 689.33,-245.2 717.54,-227.48 794,-241.62 812.51,-245.04 832.86,-248.31 851,-251.05"/>
<polygon fill="#9a32cd" stroke="#9a32cd" points="217.14,-91.49 225.68,-89.49 221.06,-92.25 224.99,-93.02 224.99,-93.02 224.99,-93.02 221.06,-92.25 224.3,-96.55 217.14,-91.49 217.14,-91.49"/>
</a>
</g>
<text text-anchor="start" x="532" y="-188.12" font-family="Helvetica,sans-Serif" font-size="10.00" fill="grey">serviceUuid</text>
</g>
<!-- Node16&#45;&gt;Node19 -->
<g id="edge34_Node000019_Node000016" class="edge">
<title>Node16&#45;&gt;Node19</title>
<g id="a_edge34_Node000019_Node000016"><a xlink:title=" ">
<path fill="none" stroke="#9a32cd" stroke-dasharray="5,2" d="M205.95,-70.47C223.48,-64.83 245.15,-58.52 265,-54.62 413.67,-25.38 453.91,-18.2 605,-29.62 681.65,-35.41 700.03,-43.84 776,-55.62 801.34,-59.54 808.76,-56.22 833,-64.62 854.51,-72.06 877.06,-85.83 890.95,-95.1"/>
<polygon fill="#9a32cd" stroke="#9a32cd" points="198.21,-73.01 204.7,-67.1 202.01,-71.76 205.82,-70.52 205.82,-70.52 205.82,-70.52 202.01,-71.76 206.94,-73.94 198.21,-73.01 198.21,-73.01"/>
</a>
</g>
<text text-anchor="start" x="532" y="-35.12" font-family="Helvetica,sans-Serif" font-size="10.00" fill="grey">serviceUuid</text>
</g>
<!-- Node16&#45;&gt;Node20 -->
<g id="edge37_Node000020_Node000016" class="edge">
<title>Node16&#45;&gt;Node20</title>
<g id="a_edge37_Node000020_Node000016"><a xlink:title=" ">
<path fill="none" stroke="#9a32cd" stroke-dasharray="5,2" d="M196.41,-69.3C215.01,-59.97 241.07,-47.77 265,-39.62 300.41,-27.55 310.07,-26.6 347,-20.62 535.23,9.91 587.95,4.02 776,-27.62 807.99,-33 844.18,-40.44 869.98,-45.99"/>
<polygon fill="#9a32cd" stroke="#9a32cd" points="188.93,-73.1 194.43,-66.26 192.49,-71.28 196.06,-69.47 196.06,-69.47 196.06,-69.47 192.49,-71.28 197.69,-72.68 188.93,-73.1 188.93,-73.1"/>
</a>
</g>
<text text-anchor="start" x="532" y="-9.12" font-family="Helvetica,sans-Serif" font-size="10.00" fill="grey">serviceUuid</text>
</g>
<!-- Node16&#45;&gt;Node21 -->
<g id="edge40_Node000021_Node000016" class="edge">
<title>Node16&#45;&gt;Node21</title>
<g id="a_edge40_Node000021_Node000016"><a xlink:title=" ">
<path fill="none" stroke="#9a32cd" stroke-dasharray="5,2" d="M225.42,-83.52C307.94,-85.54 469.46,-92.01 605,-112.62 703.53,-127.6 817.45,-158.43 872.05,-174.07"/>
<polygon fill="#9a32cd" stroke="#9a32cd" points="217.2,-83.33 225.28,-79.92 221.2,-83.42 225.2,-83.52 225.2,-83.52 225.2,-83.52 221.2,-83.42 225.11,-87.12 217.2,-83.33 217.2,-83.33"/>
</a>
</g>
<text text-anchor="start" x="532" y="-118.12" font-family="Helvetica,sans-Serif" font-size="10.00" fill="grey">serviceUuid</text>
</g>
<!-- Node17 -->
<g id="Node000017" class="node">
<title>Node17</title>
<g id="a_Node000017"><a target="_parent" xlink:href="https://doc.qt.io/qt-5/quuid.html" xlink:title=" ">
<polygon fill="white" stroke="#bfbfbf" points="51.5,-92.12 4.5,-92.12 4.5,-73.12 51.5,-73.12 51.5,-92.12"/>
<text text-anchor="middle" x="28" y="-80.12" font-family="Helvetica,sans-Serif" font-size="10.00">QUuid</text>
</a>
</g>
</g>
<!-- Node17&#45;&gt;Node16 -->
<g id="edge26_Node000016_Node000017" class="edge">
<title>Node17&#45;&gt;Node16</title>
<g id="a_edge26_Node000016_Node000017"><a xlink:title=" ">
<path fill="none" stroke="#63b8ff" d="M59.9,-82.62C78.41,-82.62 102.29,-82.62 122.98,-82.62"/>
<polygon fill="#63b8ff" stroke="#63b8ff" points="51.81,-82.62 59.81,-79.02 55.81,-82.62 59.81,-82.62 59.81,-82.62 59.81,-82.62 55.81,-82.62 59.8,-86.22 51.81,-82.62 51.81,-82.62"/>
</a>
</g>
</g>
<!-- Node18&#45;&gt;Node1 -->
<g id="edge45_Node000001_Node000018" class="edge">
<title>Node18&#45;&gt;Node1</title>
<g id="a_edge45_Node000001_Node000018"><a xlink:title=" ">
<path fill="none" stroke="#9a32cd" stroke-dasharray="5,2" d="M917.73,-275.19C930.16,-294.39 949.79,-327.39 960,-358.62 977.72,-412.8 941.3,-441.99 978,-485.62 993.87,-504.49 1055.61,-521.13 1100.11,-531.04"/>
<polygon fill="#9a32cd" stroke="#9a32cd" points="913.2,-268.31 920.61,-273.01 915.4,-271.65 917.6,-274.99 917.6,-274.99 917.6,-274.99 915.4,-271.65 914.59,-276.97 913.2,-268.31 913.2,-268.31"/>
</a>
</g>
<text text-anchor="start" x="1006" y="-528.12" font-family="Helvetica,sans-Serif" font-size="10.00" fill="grey">service</text>
</g>
<!-- Node18&#45;&gt;Node10 -->
<g id="edge29_Node000010_Node000018" class="edge">
<title>Node18&#45;&gt;Node10</title>
<g id="a_edge29_Node000010_Node000018"><a xlink:title=" ">
<path fill="none" stroke="#9a32cd" stroke-dasharray="5,2" d="M968.19,-260.15C1006.95,-261.11 1056.46,-262.34 1093.72,-263.27"/>
<polygon fill="#9a32cd" stroke="#9a32cd" points="960.1,-259.95 968.18,-256.55 964.1,-260.05 968.09,-260.15 968.09,-260.15 968.09,-260.15 964.1,-260.05 968,-263.75 960.1,-259.95 960.1,-259.95"/>
</a>
</g>
<text text-anchor="start" x="997" y="-269.12" font-family="Helvetica,sans-Serif" font-size="10.00" fill="grey">dataLogger</text>
</g>
<!-- Node19&#45;&gt;Node10 -->
<g id="edge32_Node000010_Node000019" class="edge">
<title>Node19&#45;&gt;Node10</title>
<g id="a_edge32_Node000010_Node000019"><a xlink:title=" ">
<path fill="none" stroke="#9a32cd" stroke-dasharray="5,2" d="M966.42,-97.91C999.51,-97.2 1039.89,-101.56 1070,-121.62 1118.96,-154.22 1139.85,-228.24 1145.97,-254.86"/>
<polygon fill="#9a32cd" stroke="#9a32cd" points="958.17,-98.19 966.04,-94.32 962.17,-98.05 966.17,-97.92 966.17,-97.92 966.17,-97.92 962.17,-98.05 966.29,-101.51 958.17,-98.19 958.17,-98.19"/>
</a>
</g>
<text text-anchor="start" x="998" y="-127.12" font-family="Helvetica,sans-Serif" font-size="10.00" fill="grey">deviceInfo</text>
</g>
<!-- Node20&#45;&gt;Node10 -->
<g id="edge35_Node000010_Node000020" class="edge">
<title>Node20&#45;&gt;Node10</title>
<g id="a_edge35_Node000010_Node000020"><a xlink:title=" ">
<path fill="none" stroke="#9a32cd" stroke-dasharray="5,2" d="M949.59,-48.98C985.43,-47.49 1035.92,-51.13 1070,-77.62 1129.44,-123.81 1144.01,-223.45 1147.19,-254.9"/>
<polygon fill="#9a32cd" stroke="#9a32cd" points="941.27,-49.43 949.06,-45.41 945.26,-49.22 949.26,-49 949.26,-49 949.26,-49 945.26,-49.22 949.45,-52.6 941.27,-49.43 941.27,-49.43"/>
</a>
</g>
<text text-anchor="start" x="1015" y="-83.12" font-family="Helvetica,sans-Serif" font-size="10.00" fill="grey">dso</text>
</g>
<!-- Node21&#45;&gt;Node10 -->
<g id="edge38_Node000010_Node000021" class="edge">
<title>Node21&#45;&gt;Node10</title>
<g id="a_edge38_Node000010_Node000021"><a xlink:title=" ">
<path fill="none" stroke="#9a32cd" stroke-dasharray="5,2" d="M967.37,-184.45C998.99,-186.68 1037.67,-192.3 1070,-205.62 1097.95,-217.13 1124.74,-241.15 1138.47,-254.73"/>
<polygon fill="#9a32cd" stroke="#9a32cd" points="959.07,-183.93 967.28,-180.83 963.06,-184.18 967.05,-184.43 967.05,-184.43 967.05,-184.43 963.06,-184.18 966.83,-188.02 959.07,-183.93 959.07,-183.93"/>
</a>
</g>
<text text-anchor="start" x="997" y="-211.12" font-family="Helvetica,sans-Serif" font-size="10.00" fill="grey">multimeter</text>
</g>
<!-- Node22&#45;&gt;Node10 -->
<g id="edge41_Node000010_Node000022" class="edge">
<title>Node22&#45;&gt;Node10</title>
<g id="a_edge41_Node000010_Node000022"><a xlink:title=" ">
<path fill="none" stroke="#9a32cd" stroke-dasharray="5,2" d="M955.24,-223.79C987.96,-226.52 1031.89,-231.38 1070,-239.62 1087.79,-243.46 1107.29,-249.71 1122.34,-255"/>
<polygon fill="#9a32cd" stroke="#9a32cd" points="947.17,-223.14 955.44,-220.19 951.16,-223.46 955.15,-223.78 955.15,-223.78 955.15,-223.78 951.16,-223.46 954.86,-227.37 947.17,-223.14 947.17,-223.14"/>
</a>
</g>
<text text-anchor="start" x="1009" y="-245.12" font-family="Helvetica,sans-Serif" font-size="10.00" fill="grey">status</text>
</g>
<!-- Node23 -->
<g id="Node000023" class="node">
<title>Node23</title>
<g id="a_Node000023"><a target="_parent" xlink:href="https://doc.qt.io/qt-5/qmutex.html" xlink:title=" ">
<polygon fill="white" stroke="#bfbfbf" points="933,-435.12 878,-435.12 878,-416.12 933,-416.12 933,-435.12"/>
<text text-anchor="middle" x="905.5" y="-423.12" font-family="Helvetica,sans-Serif" font-size="10.00">QMutex</text>
</a>
</g>
</g>
<!-- Node23&#45;&gt;Node10 -->
<g id="edge43_Node000010_Node000023" class="edge">
<title>Node23&#45;&gt;Node10</title>
<g id="a_edge43_Node000010_Node000023"><a xlink:title=" ">
<path fill="none" stroke="#9a32cd" stroke-dasharray="5,2" d="M935.03,-412.81C954.7,-403.99 977.42,-393.82 978,-393.62 1017.83,-379.84 1034.99,-394.09 1070,-370.62 1107.76,-345.29 1133.95,-295.29 1143.74,-274.27"/>
<polygon fill="#9a32cd" stroke="#9a32cd" points="927.69,-416.1 933.52,-409.55 931.34,-414.47 934.99,-412.83 934.99,-412.83 934.99,-412.83 931.34,-414.47 936.47,-416.11 927.69,-416.1 927.69,-416.1"/>
</a>
</g>
<text text-anchor="start" x="981" y="-474.62" font-family="Helvetica,sans-Serif" font-size="10.00" fill="grey">calibrationMutex</text>
<text text-anchor="start" x="981" y="-459.62" font-family="Helvetica,sans-Serif" font-size="10.00" fill="grey">dataLoggerMutex</text>
<text text-anchor="start" x="981" y="-444.62" font-family="Helvetica,sans-Serif" font-size="10.00" fill="grey">deviceInfoMutex</text>
<text text-anchor="start" x="981" y="-429.62" font-family="Helvetica,sans-Serif" font-size="10.00" fill="grey">dsoMutex</text>
<text text-anchor="start" x="981" y="-414.62" font-family="Helvetica,sans-Serif" font-size="10.00" fill="grey">multimeterMutex</text>
<text text-anchor="start" x="981" y="-399.62" font-family="Helvetica,sans-Serif" font-size="10.00" fill="grey">statusMutex</text>
</g>
</g>
</svg>
