<?xml version="1.0" encoding="UTF-8" standalone="no"?>
<!DOCTYPE svg PUBLIC "-//W3C//DTD SVG 1.1//EN"
 "http://www.w3.org/Graphics/SVG/1.1/DTD/svg11.dtd">
<!-- Generated by graphviz version 2.43.0 (0)
 -->
<!-- Title: MultimeterService::toString Pages: 1 -->
<svg width="459pt" height="138pt"
 viewBox="0.00 0.00 459.00 138.00" xmlns="http://www.w3.org/2000/svg" xmlns:xlink="http://www.w3.org/1999/xlink">
<g id="graph0" class="graph" transform="scale(1 1) rotate(0) translate(4 134)">
<title>MultimeterService::toString</title>
<!-- Node1 -->
<g id="Node000001" class="node">
<title>Node1</title>
<g id="a_Node000001"><a xlink:title="Returns range as a user&#45;friendly string, or a null QString if mode has no ranges.">
<polygon fill="#999999" stroke="#666666" points="113,-79.5 0,-79.5 0,-49.5 113,-49.5 113,-79.5"/>
<text text-anchor="start" x="8" y="-67.5" font-family="Helvetica,sans-Serif" font-size="10.00">MultimeterService::</text>
<text text-anchor="middle" x="56.5" y="-56.5" font-family="Helvetica,sans-Serif" font-size="10.00">toString</text>
</a>
</g>
</g>
<!-- Node2 -->
<g id="Node000002" class="node">
<title>Node2</title>
<g id="a_Node000002"><a xlink:href="namespaceCapacitanceRange.html#a14203d0e3a636e5142dccade0c4b5c91" target="_top" xlink:title="Returns product&#39;s capacitance range as a human&#45;friendly string.">
<polygon fill="white" stroke="#666666" points="301,-130 149,-130 149,-111 301,-111 301,-130"/>
<text text-anchor="middle" x="225" y="-118" font-family="Helvetica,sans-Serif" font-size="10.00">CapacitanceRange::toString</text>
</a>
</g>
</g>
<!-- Node1&#45;&gt;Node2 -->
<g id="edge1_Node000001_Node000002" class="edge">
<title>Node1&#45;&gt;Node2</title>
<g id="a_edge1_Node000001_Node000002"><a xlink:title=" ">
<path fill="none" stroke="#63b8ff" d="M90.49,-79.68C107.68,-87.22 129.21,-96.06 149,-102.5 156.11,-104.81 163.68,-106.97 171.18,-108.94"/>
<polygon fill="#63b8ff" stroke="#63b8ff" points="179.26,-110.99 170.62,-112.51 175.38,-110 171.5,-109.02 171.5,-109.02 171.5,-109.02 175.38,-110 172.39,-105.53 179.26,-110.99 179.26,-110.99"/>
</a>
</g>
</g>
<!-- Node5 -->
<g id="Node000005" class="node">
<title>Node5</title>
<g id="a_Node000005"><a xlink:href="namespaceCurrentRange.html#a683a82fdd02371d1d6acb4bbbd91e844" target="_top" xlink:title="Returns product&#39;s current range as a human&#45;friendly string.">
<polygon fill="white" stroke="#666666" points="289,-93 161,-93 161,-74 289,-74 289,-93"/>
<text text-anchor="middle" x="225" y="-81" font-family="Helvetica,sans-Serif" font-size="10.00">CurrentRange::toString</text>
</a>
</g>
</g>
<!-- Node1&#45;&gt;Node5 -->
<g id="edge4_Node000001_Node000005" class="edge">
<title>Node1&#45;&gt;Node5</title>
<g id="a_edge4_Node000001_Node000005"><a xlink:title=" ">
<path fill="none" stroke="#63b8ff" d="M113.41,-70.88C126,-72.32 139.54,-73.86 152.67,-75.36"/>
<polygon fill="#63b8ff" stroke="#63b8ff" points="160.78,-76.29 152.42,-78.96 156.81,-75.83 152.83,-75.38 152.83,-75.38 152.83,-75.38 156.81,-75.83 153.24,-71.8 160.78,-76.29 160.78,-76.29"/>
</a>
</g>
</g>
<!-- Node7 -->
<g id="Node000007" class="node">
<title>Node7</title>
<g id="a_Node000007"><a xlink:href="namespaceResistanceRange.html#a6f542c3fe27b9c58c03edc92ceab40ef" target="_top" xlink:title="Returns product&#39;s current range as a human&#45;friendly string.">
<polygon fill="white" stroke="#666666" points="297.5,-56 152.5,-56 152.5,-37 297.5,-37 297.5,-56"/>
<text text-anchor="middle" x="225" y="-44" font-family="Helvetica,sans-Serif" font-size="10.00">ResistanceRange::toString</text>
</a>
</g>
</g>
<!-- Node1&#45;&gt;Node7 -->
<g id="edge8_Node000001_Node000007" class="edge">
<title>Node1&#45;&gt;Node7</title>
<g id="a_edge8_Node000001_Node000007"><a xlink:title=" ">
<path fill="none" stroke="#63b8ff" d="M113.41,-58.46C123.34,-57.38 133.86,-56.24 144.31,-55.11"/>
<polygon fill="#63b8ff" stroke="#63b8ff" points="152.28,-54.25 144.71,-58.69 148.3,-54.68 144.32,-55.11 144.32,-55.11 144.32,-55.11 148.3,-54.68 143.93,-51.53 152.28,-54.25 152.28,-54.25"/>
</a>
</g>
</g>
<!-- Node8 -->
<g id="Node000008" class="node">
<title>Node8</title>
<g id="a_Node000008"><a xlink:href="namespaceVoltageRange.html#a843ef4bfc3538988c695fa643adcd4d0" target="_top" xlink:title="Returns product&#39;s current range as a human&#45;friendly string.">
<polygon fill="white" stroke="#666666" points="289,-19 161,-19 161,0 289,0 289,-19"/>
<text text-anchor="middle" x="225" y="-7" font-family="Helvetica,sans-Serif" font-size="10.00">VoltageRange::toString</text>
</a>
</g>
</g>
<!-- Node1&#45;&gt;Node8 -->
<g id="edge12_Node000001_Node000008" class="edge">
<title>Node1&#45;&gt;Node8</title>
<g id="a_edge12_Node000001_Node000008"><a xlink:title=" ">
<path fill="none" stroke="#63b8ff" d="M92.75,-49.42C109.6,-42.53 130.15,-34.57 149,-28.5 157.22,-25.85 166.05,-23.34 174.65,-21.05"/>
<polygon fill="#63b8ff" stroke="#63b8ff" points="182.47,-19.02 175.63,-24.52 178.6,-20.03 174.73,-21.03 174.73,-21.03 174.73,-21.03 178.6,-20.03 173.82,-17.55 182.47,-19.02 182.47,-19.02"/>
</a>
</g>
</g>
<!-- Node3 -->
<g id="Node000003" class="node">
<title>Node3</title>
<g id="a_Node000003"><a target="_parent" xlink:href="https://doc.qt.io/qt-5/qstring.html#arg-1" xlink:title=" ">
<polygon fill="white" stroke="#666666" points="431,-56 357,-56 357,-37 431,-37 431,-56"/>
<text text-anchor="middle" x="394" y="-44" font-family="Helvetica,sans-Serif" font-size="10.00">QString::arg</text>
</a>
</g>
</g>
<!-- Node2&#45;&gt;Node3 -->
<g id="edge2_Node000002_Node000003" class="edge">
<title>Node2&#45;&gt;Node3</title>
<g id="a_edge2_Node000002_Node000003"><a xlink:title=" ">
<path fill="none" stroke="#63b8ff" d="M281.44,-110.99C288.26,-108.73 294.95,-105.94 301,-102.5 320.94,-91.15 317.6,-77.75 337,-65.5 340.8,-63.1 344.93,-60.97 349.18,-59.08"/>
<polygon fill="#63b8ff" stroke="#63b8ff" points="356.9,-55.94 350.84,-62.29 353.19,-57.45 349.49,-58.96 349.49,-58.96 349.49,-58.96 353.19,-57.45 348.13,-55.62 356.9,-55.94 356.9,-55.94"/>
</a>
</g>
</g>
<!-- Node4 -->
<g id="Node000004" class="node">
<title>Node4</title>
<g id="a_Node000004"><a xlink:href="namespacePokitPro.html#a38ce307b844e4d67d94402b31461f7f4" target="_top" xlink:title="Returns range as a user&#45;friendly string.">
<polygon fill="white" stroke="#666666" points="444.5,-93 343.5,-93 343.5,-74 444.5,-74 444.5,-93"/>
<text text-anchor="middle" x="394" y="-81" font-family="Helvetica,sans-Serif" font-size="10.00">PokitPro::toString</text>
</a>
</g>
</g>
<!-- Node2&#45;&gt;Node4 -->
<g id="edge3_Node000002_Node000004" class="edge">
<title>Node2&#45;&gt;Node4</title>
<g id="a_edge3_Node000002_Node000004"><a xlink:title=" ">
<path fill="none" stroke="#63b8ff" d="M269.01,-110.97C291.22,-106.05 318.49,-100.01 341.79,-94.85"/>
<polygon fill="#63b8ff" stroke="#63b8ff" points="349.85,-93.06 342.82,-98.31 345.94,-93.93 342.04,-94.79 342.04,-94.79 342.04,-94.79 345.94,-93.93 341.26,-91.28 349.85,-93.06 349.85,-93.06"/>
</a>
</g>
</g>
<!-- Node5&#45;&gt;Node3 -->
<g id="edge5_Node000005_Node000003" class="edge">
<title>Node5&#45;&gt;Node3</title>
<g id="a_edge5_Node000005_Node000003"><a xlink:title=" ">
<path fill="none" stroke="#63b8ff" d="M269.01,-73.97C293.49,-68.55 324.11,-61.76 348.79,-56.3"/>
<polygon fill="#63b8ff" stroke="#63b8ff" points="356.91,-54.49 349.88,-59.74 353.01,-55.36 349.1,-56.23 349.1,-56.23 349.1,-56.23 353.01,-55.36 348.33,-52.71 356.91,-54.49 356.91,-54.49"/>
</a>
</g>
</g>
<!-- Node5&#45;&gt;Node4 -->
<g id="edge7_Node000005_Node000004" class="edge">
<title>Node5&#45;&gt;Node4</title>
<g id="a_edge7_Node000005_Node000004"><a xlink:title=" ">
<path fill="none" stroke="#63b8ff" d="M289.14,-83.5C304.25,-83.5 320.32,-83.5 335.19,-83.5"/>
<polygon fill="#63b8ff" stroke="#63b8ff" points="343.31,-83.5 335.31,-87.1 339.31,-83.5 335.31,-83.5 335.31,-83.5 335.31,-83.5 339.31,-83.5 335.31,-79.9 343.31,-83.5 343.31,-83.5"/>
</a>
</g>
</g>
<!-- Node6 -->
<g id="Node000006" class="node">
<title>Node6</title>
<g id="a_Node000006"><a xlink:href="namespacePokitMeter.html#a3c3db7b94b6f44af24f4a23e87a3569e" target="_top" xlink:title="Returns range as a user&#45;friendly string.">
<polygon fill="white" stroke="#666666" points="451,-19 337,-19 337,0 451,0 451,-19"/>
<text text-anchor="middle" x="394" y="-7" font-family="Helvetica,sans-Serif" font-size="10.00">PokitMeter::toString</text>
</a>
</g>
</g>
<!-- Node5&#45;&gt;Node6 -->
<g id="edge6_Node000005_Node000006" class="edge">
<title>Node5&#45;&gt;Node6</title>
<g id="a_edge6_Node000005_Node000006"><a xlink:title=" ">
<path fill="none" stroke="#63b8ff" d="M281.44,-73.99C288.26,-71.73 294.95,-68.94 301,-65.5 320.94,-54.15 317.6,-40.75 337,-28.5 340.74,-26.14 344.82,-24.03 349,-22.16"/>
<polygon fill="#63b8ff" stroke="#63b8ff" points="356.6,-19.05 350.56,-25.41 352.9,-20.57 349.2,-22.08 349.2,-22.08 349.2,-22.08 352.9,-20.57 347.83,-18.75 356.6,-19.05 356.6,-19.05"/>
</a>
</g>
</g>
<!-- Node7&#45;&gt;Node3 -->
<g id="edge9_Node000007_Node000003" class="edge">
<title>Node7&#45;&gt;Node3</title>
<g id="a_edge9_Node000007_Node000003"><a xlink:title=" ">
<path fill="none" stroke="#63b8ff" d="M297.79,-46.5C314.95,-46.5 332.78,-46.5 348.3,-46.5"/>
<polygon fill="#63b8ff" stroke="#63b8ff" points="356.67,-46.5 348.67,-50.1 352.67,-46.5 348.67,-46.5 348.67,-46.5 348.67,-46.5 352.67,-46.5 348.67,-42.9 356.67,-46.5 356.67,-46.5"/>
</a>
</g>
</g>
<!-- Node7&#45;&gt;Node4 -->
<g id="edge11_Node000007_Node000004" class="edge">
<title>Node7&#45;&gt;Node4</title>
<g id="a_edge11_Node000007_Node000004"><a xlink:title=" ">
<path fill="none" stroke="#63b8ff" d="M269.01,-56.03C291.22,-60.95 318.49,-66.99 341.79,-72.15"/>
<polygon fill="#63b8ff" stroke="#63b8ff" points="349.85,-73.94 341.26,-75.72 345.94,-73.07 342.04,-72.21 342.04,-72.21 342.04,-72.21 345.94,-73.07 342.82,-68.69 349.85,-73.94 349.85,-73.94"/>
</a>
</g>
</g>
<!-- Node7&#45;&gt;Node6 -->
<g id="edge10_Node000007_Node000006" class="edge">
<title>Node7&#45;&gt;Node6</title>
<g id="a_edge10_Node000007_Node000006"><a xlink:title=" ">
<path fill="none" stroke="#63b8ff" d="M269.01,-36.97C291.22,-32.05 318.49,-26.01 341.79,-20.85"/>
<polygon fill="#63b8ff" stroke="#63b8ff" points="349.85,-19.06 342.82,-24.31 345.94,-19.93 342.04,-20.79 342.04,-20.79 342.04,-20.79 345.94,-19.93 341.26,-17.28 349.85,-19.06 349.85,-19.06"/>
</a>
</g>
</g>
<!-- Node8&#45;&gt;Node3 -->
<g id="edge13_Node000008_Node000003" class="edge">
<title>Node8&#45;&gt;Node3</title>
<g id="a_edge13_Node000008_Node000003"><a xlink:title=" ">
<path fill="none" stroke="#63b8ff" d="M269.01,-19.03C293.49,-24.45 324.11,-31.24 348.79,-36.7"/>
<polygon fill="#63b8ff" stroke="#63b8ff" points="356.91,-38.51 348.33,-40.29 353.01,-37.64 349.1,-36.77 349.1,-36.77 349.1,-36.77 353.01,-37.64 349.88,-33.26 356.91,-38.51 356.91,-38.51"/>
</a>
</g>
</g>
<!-- Node8&#45;&gt;Node4 -->
<g id="edge15_Node000008_Node000004" class="edge">
<title>Node8&#45;&gt;Node4</title>
<g id="a_edge15_Node000008_Node000004"><a xlink:title=" ">
<path fill="none" stroke="#63b8ff" d="M279.09,-19.03C286.71,-21.5 294.25,-24.6 301,-28.5 320.87,-39.97 317.5,-53.41 337,-65.5 340.11,-67.43 343.45,-69.17 346.89,-70.74"/>
<polygon fill="#63b8ff" stroke="#63b8ff" points="354.53,-73.9 345.76,-74.17 350.84,-72.37 347.14,-70.84 347.14,-70.84 347.14,-70.84 350.84,-72.37 348.52,-67.52 354.53,-73.9 354.53,-73.9"/>
</a>
</g>
</g>
<!-- Node8&#45;&gt;Node6 -->
<g id="edge14_Node000008_Node000006" class="edge">
<title>Node8&#45;&gt;Node6</title>
<g id="a_edge14_Node000008_Node000006"><a xlink:title=" ">
<path fill="none" stroke="#63b8ff" d="M289.14,-9.5C302.14,-9.5 315.84,-9.5 328.88,-9.5"/>
<polygon fill="#63b8ff" stroke="#63b8ff" points="336.9,-9.5 328.9,-13.1 332.9,-9.5 328.9,-9.5 328.9,-9.5 328.9,-9.5 332.9,-9.5 328.9,-5.9 336.9,-9.5 336.9,-9.5"/>
</a>
</g>
</g>
</g>
</svg>
