<?xml version="1.0" encoding="UTF-8" standalone="no"?>
<!DOCTYPE svg PUBLIC "-//W3C//DTD SVG 1.1//EN"
 "http://www.w3.org/Graphics/SVG/1.1/DTD/svg11.dtd">
<!-- Generated by graphviz version 2.43.0 (0)
 -->
<!-- Title: StatusService::torchStatusRead Pages: 1 -->
<svg width="1049pt" height="460pt"
 viewBox="0.00 0.00 1049.00 460.43" xmlns="http://www.w3.org/2000/svg" xmlns:xlink="http://www.w3.org/1999/xlink">
<g id="graph0" class="graph" transform="scale(1 1) rotate(0) translate(4 456.43)">
<title>StatusService::torchStatusRead</title>
<!-- Node1 -->
<g id="Node000001" class="node">
<title>Node1</title>
<g id="a_Node000001"><a xlink:title="This signal is emitted when the Torch characteristic has been read successfully.">
<polygon fill="#999999" stroke="#666666" points="170,-105.5 0,-105.5 0,-86.5 170,-86.5 170,-105.5"/>
<text text-anchor="middle" x="85" y="-93.5" font-family="Helvetica,sans-Serif" font-size="10.00">StatusService::torchStatusRead</text>
</a>
</g>
</g>
<!-- Node2 -->
<g id="Node000002" class="node">
<title>Node2</title>
<g id="a_Node000002"><a xlink:href="classStatusService.html#ae7be4aae021ae50faef48ed2812eb6a7" target="_top" xlink:title="Returns the most recent value of the Status service&#39;s Status characteristic.">
<polygon fill="white" stroke="#666666" points="325,-105.5 206,-105.5 206,-86.5 325,-86.5 325,-105.5"/>
<text text-anchor="middle" x="265.5" y="-93.5" font-family="Helvetica,sans-Serif" font-size="10.00">StatusService::status</text>
</a>
</g>
</g>
<!-- Node1&#45;&gt;Node2 -->
<g id="edge1_Node000001_Node000002" class="edge">
<title>Node1&#45;&gt;Node2</title>
<g id="a_edge1_Node000001_Node000002"><a xlink:title=" ">
<path fill="none" stroke="#63b8ff" d="M170.02,-96C179.3,-96 188.65,-96 197.68,-96"/>
<polygon fill="#63b8ff" stroke="#63b8ff" points="205.86,-96 197.86,-99.6 201.86,-96 197.86,-96 197.86,-96 197.86,-96 201.86,-96 197.86,-92.4 205.86,-96 205.86,-96"/>
</a>
</g>
</g>
<!-- Node3 -->
<g id="Node000003" class="node">
<title>Node3</title>
<g id="a_Node000003"><a target="_parent" xlink:href="https://doc.qt.io/qt-5/qlowenergycharacteristic.html#isValid" xlink:title=" ">
<polygon fill="white" stroke="#666666" points="511.5,-252 366.5,-252 366.5,-222 511.5,-222 511.5,-252"/>
<text text-anchor="start" x="374.5" y="-240" font-family="Helvetica,sans-Serif" font-size="10.00">QLowEnergyCharacteristic</text>
<text text-anchor="middle" x="439" y="-229" font-family="Helvetica,sans-Serif" font-size="10.00">::isValid</text>
</a>
</g>
</g>
<!-- Node2&#45;&gt;Node3 -->
<g id="edge2_Node000002_Node000003" class="edge">
<title>Node2&#45;&gt;Node3</title>
<g id="a_edge2_Node000002_Node000003"><a xlink:title=" ">
<path fill="none" stroke="#63b8ff" d="M271.7,-105.8C284.09,-128.2 317.59,-183.51 361,-213 363.8,-214.9 366.76,-216.66 369.82,-218.28"/>
<polygon fill="#63b8ff" stroke="#63b8ff" points="377.13,-221.83 368.36,-221.58 373.53,-220.08 369.93,-218.34 369.93,-218.34 369.93,-218.34 373.53,-220.08 371.51,-215.1 377.13,-221.83 377.13,-221.83"/>
</a>
</g>
</g>
<!-- Node4 -->
<g id="Node000004" class="node">
<title>Node4</title>
<g id="a_Node000004"><a xlink:href="classStatusServicePrivate.html#a3a6ff8ca3e9d7c884b269e52dd43aeb0" target="_top" xlink:title="Parses the Status value into a Status struct.">
<polygon fill="white" stroke="#666666" points="498,-204 380,-204 380,-174 498,-174 498,-204"/>
<text text-anchor="start" x="388" y="-192" font-family="Helvetica,sans-Serif" font-size="10.00">StatusServicePrivate</text>
<text text-anchor="middle" x="439" y="-181" font-family="Helvetica,sans-Serif" font-size="10.00">::parseStatus</text>
</a>
</g>
</g>
<!-- Node2&#45;&gt;Node4 -->
<g id="edge3_Node000002_Node000004" class="edge">
<title>Node2&#45;&gt;Node4</title>
<g id="a_edge3_Node000002_Node000004"><a xlink:title=" ">
<path fill="none" stroke="#63b8ff" d="M284.21,-105.6C312.09,-120.72 366.77,-150.37 402.84,-169.94"/>
<polygon fill="#63b8ff" stroke="#63b8ff" points="410.24,-173.95 401.5,-173.3 406.73,-172.04 403.21,-170.14 403.21,-170.14 403.21,-170.14 406.73,-172.04 404.93,-166.97 410.24,-173.95 410.24,-173.95"/>
</a>
</g>
</g>
<!-- Node18 -->
<g id="Node000018" class="node">
<title>Node18</title>
<g id="a_Node000018"><a xlink:href="classStatusService.html#a095254046689e5115ba053c029a2e1b8" target="_top" xlink:title="Constructs a new Pokit service with parent.">
<polygon fill="white" stroke="#666666" points="517,-67.5 361,-67.5 361,-48.5 517,-48.5 517,-67.5"/>
<text text-anchor="middle" x="439" y="-55.5" font-family="Helvetica,sans-Serif" font-size="10.00">StatusService::StatusService</text>
</a>
</g>
</g>
<!-- Node2&#45;&gt;Node18 -->
<g id="edge24_Node000002_Node000018" class="edge">
<title>Node2&#45;&gt;Node18</title>
<g id="a_edge24_Node000002_Node000018"><a xlink:title=" ">
<path fill="none" stroke="#63b8ff" d="M309.78,-86.41C333.33,-81.19 362.59,-74.71 387.22,-69.25"/>
<polygon fill="#63b8ff" stroke="#63b8ff" points="395.03,-67.52 388,-72.77 391.13,-68.39 387.22,-69.25 387.22,-69.25 387.22,-69.25 391.13,-68.39 386.45,-65.74 395.03,-67.52 395.03,-67.52"/>
</a>
</g>
</g>
<!-- Node21 -->
<g id="Node000021" class="node">
<title>Node21</title>
<g id="a_Node000021"><a target="_parent" xlink:href="https://doc.qt.io/qt-5/qlowenergycharacteristic.html#value" xlink:title=" ">
<polygon fill="white" stroke="#666666" points="511.5,-30 366.5,-30 366.5,0 511.5,0 511.5,-30"/>
<text text-anchor="start" x="374.5" y="-18" font-family="Helvetica,sans-Serif" font-size="10.00">QLowEnergyCharacteristic</text>
<text text-anchor="middle" x="439" y="-7" font-family="Helvetica,sans-Serif" font-size="10.00">::value</text>
</a>
</g>
</g>
<!-- Node2&#45;&gt;Node21 -->
<g id="edge27_Node000002_Node000021" class="edge">
<title>Node2&#45;&gt;Node21</title>
<g id="a_edge27_Node000002_Node000021"><a xlink:title=" ">
<path fill="none" stroke="#63b8ff" d="M280.02,-86.41C297.86,-74.09 330.59,-52.67 361,-39 365.89,-36.8 371.04,-34.72 376.27,-32.78"/>
<polygon fill="#63b8ff" stroke="#63b8ff" points="383.95,-30.03 377.63,-36.11 380.18,-31.38 376.42,-32.73 376.42,-32.73 376.42,-32.73 380.18,-31.38 375.2,-29.34 383.95,-30.03 383.95,-30.03"/>
</a>
</g>
</g>
<!-- Node5 -->
<g id="Node000005" class="node">
<title>Node5</title>
<g id="a_Node000005"><a target="_parent" xlink:href="https://doc.qt.io/qt-5/qstring.html#arg-1" xlink:title=" ">
<polygon fill="white" stroke="#666666" points="1022,-266.5 948,-266.5 948,-247.5 1022,-247.5 1022,-266.5"/>
<text text-anchor="middle" x="985" y="-254.5" font-family="Helvetica,sans-Serif" font-size="10.00">QString::arg</text>
</a>
</g>
</g>
<!-- Node4&#45;&gt;Node5 -->
<g id="edge4_Node000004_Node000005" class="edge">
<title>Node4&#45;&gt;Node5</title>
<g id="a_edge4_Node000004_Node000005"><a xlink:title=" ">
<path fill="none" stroke="#63b8ff" d="M489.4,-204.04C498.6,-206.94 508.11,-210.01 517,-213 533.12,-218.42 536.36,-222.47 553,-226 691.78,-255.46 860.72,-258.31 939.52,-257.79"/>
<polygon fill="#63b8ff" stroke="#63b8ff" points="947.77,-257.72 939.8,-261.39 943.77,-257.75 939.77,-257.79 939.77,-257.79 939.77,-257.79 943.77,-257.75 939.74,-254.19 947.77,-257.72 947.77,-257.72"/>
</a>
</g>
</g>
<!-- Node6 -->
<g id="Node000006" class="node">
<title>Node6</title>
<g id="a_Node000006"><a target="_parent" xlink:href="https://doc.qt.io/qt-5/qbytearray.html#at" xlink:title=" ">
<polygon fill="white" stroke="#666666" points="673,-217.5 585,-217.5 585,-198.5 673,-198.5 673,-217.5"/>
<text text-anchor="middle" x="629" y="-205.5" font-family="Helvetica,sans-Serif" font-size="10.00">QByteArray::at</text>
</a>
</g>
</g>
<!-- Node4&#45;&gt;Node6 -->
<g id="edge5_Node000004_Node000006" class="edge">
<title>Node4&#45;&gt;Node6</title>
<g id="a_edge5_Node000004_Node000006"><a xlink:title=" ">
<path fill="none" stroke="#63b8ff" d="M498.2,-194.88C523.39,-197.43 552.61,-200.38 576.94,-202.84"/>
<polygon fill="#63b8ff" stroke="#63b8ff" points="585,-203.65 576.67,-206.43 581.02,-203.25 577.04,-202.85 577.04,-202.85 577.04,-202.85 581.02,-203.25 577.4,-199.27 585,-203.65 585,-203.65"/>
</a>
</g>
</g>
<!-- Node7 -->
<g id="Node000007" class="node">
<title>Node7</title>
<g id="a_Node000007"><a xlink:href="classAbstractPokitServicePrivate.html#af8b480a950244540bfff7fc4b476a0ef" target="_top" xlink:title="Returns false if data is smaller than minSize, otherwise returns failOnMax if data is bigger than max...">
<polygon fill="white" stroke="#666666" points="705,-342 553,-342 553,-312 705,-312 705,-342"/>
<text text-anchor="start" x="561" y="-330" font-family="Helvetica,sans-Serif" font-size="10.00">AbstractPokitServicePrivate</text>
<text text-anchor="middle" x="629" y="-319" font-family="Helvetica,sans-Serif" font-size="10.00">::checkSize</text>
</a>
</g>
</g>
<!-- Node4&#45;&gt;Node7 -->
<g id="edge6_Node000004_Node000007" class="edge">
<title>Node4&#45;&gt;Node7</title>
<g id="a_edge6_Node000004_Node000007"><a xlink:title=" ">
<path fill="none" stroke="#63b8ff" d="M498.09,-200.94C504.98,-204.07 511.5,-208.02 517,-213 547.4,-240.55 523.53,-269.45 553,-298 556.91,-301.79 561.36,-305.09 566.11,-307.97"/>
<polygon fill="#63b8ff" stroke="#63b8ff" points="573.24,-311.9 564.5,-311.2 569.74,-309.97 566.23,-308.04 566.23,-308.04 566.23,-308.04 569.74,-309.97 567.97,-304.89 573.24,-311.9 573.24,-311.9"/>
</a>
</g>
</g>
<!-- Node8 -->
<g id="Node000008" class="node">
<title>Node8</title>
<g id="a_Node000008"><a target="_parent" xlink:href="https://doc.qt.io/qt-5/qbytearray.html#mid" xlink:title=" ">
<polygon fill="white" stroke="#666666" points="865.5,-293.5 768.5,-293.5 768.5,-274.5 865.5,-274.5 865.5,-293.5"/>
<text text-anchor="middle" x="817" y="-281.5" font-family="Helvetica,sans-Serif" font-size="10.00">QByteArray::mid</text>
</a>
</g>
</g>
<!-- Node4&#45;&gt;Node8 -->
<g id="edge19_Node000004_Node000008" class="edge">
<title>Node4&#45;&gt;Node8</title>
<g id="a_edge19_Node000004_Node000008"><a xlink:title=" ">
<path fill="none" stroke="#63b8ff" d="M498.19,-202.82C504.83,-205.63 511.26,-208.99 517,-213 538.57,-228.07 529.96,-247.29 553,-260 617.28,-295.46 704.05,-295.95 760.02,-291.34"/>
<polygon fill="#63b8ff" stroke="#63b8ff" points="768.04,-290.63 760.39,-294.92 764.06,-290.98 760.07,-291.34 760.07,-291.34 760.07,-291.34 764.06,-290.98 759.76,-287.75 768.04,-290.63 768.04,-290.63"/>
</a>
</g>
</g>
<!-- Node9 -->
<g id="Node000009" class="node">
<title>Node9</title>
<g id="a_Node000009"><a target="_parent" xlink:href="https://doc.qt.io/qt-5/qbytearray.html#size" xlink:title=" ">
<polygon fill="white" stroke="#666666" points="1034,-451.5 936,-451.5 936,-432.5 1034,-432.5 1034,-451.5"/>
<text text-anchor="middle" x="985" y="-439.5" font-family="Helvetica,sans-Serif" font-size="10.00">QByteArray::size</text>
</a>
</g>
</g>
<!-- Node4&#45;&gt;Node9 -->
<g id="edge20_Node000004_Node000009" class="edge">
<title>Node4&#45;&gt;Node9</title>
<g id="a_edge20_Node000004_Node000009"><a xlink:title=" ">
<path fill="none" stroke="#63b8ff" d="M498.03,-199.85C505.1,-203.14 511.68,-207.43 517,-213 560.76,-258.86 510.61,-303.87 553,-351 648.56,-457.26 834.25,-456.88 927.58,-448.92"/>
<polygon fill="#63b8ff" stroke="#63b8ff" points="935.77,-448.19 928.13,-452.49 931.79,-448.54 927.8,-448.9 927.8,-448.9 927.8,-448.9 931.79,-448.54 927.48,-445.32 935.77,-448.19 935.77,-448.19"/>
</a>
</g>
</g>
<!-- Node15 -->
<g id="Node000015" class="node">
<title>Node15</title>
<g id="a_Node000015"><a target="_parent" xlink:href="https://doc.qt.io/qt-5/qobject.html#tr" xlink:title=" ">
<polygon fill="white" stroke="#666666" points="851.5,-180.5 782.5,-180.5 782.5,-161.5 851.5,-161.5 851.5,-180.5"/>
<text text-anchor="middle" x="817" y="-168.5" font-family="Helvetica,sans-Serif" font-size="10.00">QObject::tr</text>
</a>
</g>
</g>
<!-- Node4&#45;&gt;Node15 -->
<g id="edge23_Node000004_Node000015" class="edge">
<title>Node4&#45;&gt;Node15</title>
<g id="a_edge23_Node000004_Node000015"><a xlink:title=" ">
<path fill="none" stroke="#63b8ff" d="M476.17,-173.91C497.99,-165.63 526.6,-156.21 553,-152 630.45,-139.64 722.04,-152.34 774.14,-162.08"/>
<polygon fill="#63b8ff" stroke="#63b8ff" points="782.16,-163.62 773.62,-165.65 778.23,-162.87 774.3,-162.12 774.3,-162.12 774.3,-162.12 778.23,-162.87 774.98,-158.58 782.16,-163.62 782.16,-163.62"/>
</a>
</g>
</g>
<!-- Node16 -->
<g id="Node000016" class="node">
<title>Node16</title>
<g id="a_Node000016"><a target="_parent" xlink:href="https://doc.qt.io/qt-5/qbytearray.html#constData" xlink:title=" ">
<polygon fill="white" stroke="#666666" points="693,-180.5 565,-180.5 565,-161.5 693,-161.5 693,-180.5"/>
<text text-anchor="middle" x="629" y="-168.5" font-family="Helvetica,sans-Serif" font-size="10.00">QByteArray::constData</text>
</a>
</g>
</g>
<!-- Node4&#45;&gt;Node16 -->
<g id="edge18_Node000004_Node000016" class="edge">
<title>Node4&#45;&gt;Node16</title>
<g id="a_edge18_Node000004_Node000016"><a xlink:title=" ">
<path fill="none" stroke="#63b8ff" d="M498.2,-183.43C516.69,-181.66 537.36,-179.68 556.67,-177.83"/>
<polygon fill="#63b8ff" stroke="#63b8ff" points="564.85,-177.05 557.23,-181.39 560.87,-177.43 556.89,-177.81 556.89,-177.81 556.89,-177.81 560.87,-177.43 556.55,-174.22 564.85,-177.05 564.85,-177.05"/>
</a>
</g>
</g>
<!-- Node17 -->
<g id="Node000017" class="node">
<title>Node17</title>
<g id="a_Node000017"><a xlink:href="classStatusService.html#aac79e97cb114be25b2a6771d915f132d" target="_top" xlink:title="Returns a string version of the status enum label.">
<polygon fill="white" stroke="#666666" points="693,-104.5 565,-104.5 565,-85.5 693,-85.5 693,-104.5"/>
<text text-anchor="middle" x="629" y="-92.5" font-family="Helvetica,sans-Serif" font-size="10.00">StatusService::toString</text>
</a>
</g>
</g>
<!-- Node4&#45;&gt;Node17 -->
<g id="edge21_Node000004_Node000017" class="edge">
<title>Node4&#45;&gt;Node17</title>
<g id="a_edge21_Node000004_Node000017"><a xlink:title=" ">
<path fill="none" stroke="#63b8ff" d="M460.79,-173.95C482.82,-158.53 519.05,-134.66 553,-119 562.79,-114.48 573.67,-110.47 584.04,-107.08"/>
<polygon fill="#63b8ff" stroke="#63b8ff" points="591.84,-104.61 585.3,-110.46 588.03,-105.82 584.21,-107.03 584.21,-107.03 584.21,-107.03 588.03,-105.82 583.13,-103.59 591.84,-104.61 591.84,-104.61"/>
</a>
</g>
</g>
<!-- Node7&#45;&gt;Node5 -->
<g id="edge7_Node000007_Node000005" class="edge">
<title>Node7&#45;&gt;Node5</title>
<g id="a_edge7_Node000007_Node000005"><a xlink:title=" ">
<path fill="none" stroke="#63b8ff" d="M705.01,-330.87C759.01,-331.14 832.66,-326.21 893,-303 911.67,-295.82 911.34,-285.38 929,-276 933.51,-273.61 938.38,-271.42 943.3,-269.45"/>
<polygon fill="#63b8ff" stroke="#63b8ff" points="951.01,-266.53 944.8,-272.72 947.27,-267.94 943.53,-269.36 943.53,-269.36 943.53,-269.36 947.27,-267.94 942.26,-265.99 951.01,-266.53 951.01,-266.53"/>
</a>
</g>
</g>
<!-- Node7&#45;&gt;Node8 -->
<g id="edge8_Node000007_Node000008" class="edge">
<title>Node7&#45;&gt;Node8</title>
<g id="a_edge8_Node000007_Node000008"><a xlink:title=" ">
<path fill="none" stroke="#63b8ff" d="M695.05,-311.96C718.66,-306.5 744.91,-300.43 766.91,-295.35"/>
<polygon fill="#63b8ff" stroke="#63b8ff" points="774.81,-293.52 767.83,-298.83 770.91,-294.42 767.02,-295.32 767.02,-295.32 767.02,-295.32 770.91,-294.42 766.21,-291.82 774.81,-293.52 774.81,-293.52"/>
</a>
</g>
</g>
<!-- Node7&#45;&gt;Node9 -->
<g id="edge9_Node000007_Node000009" class="edge">
<title>Node7&#45;&gt;Node9</title>
<g id="a_edge9_Node000007_Node000009"><a xlink:title=" ">
<path fill="none" stroke="#63b8ff" d="M652.42,-342.14C674.19,-356.19 708.59,-376.72 741,-389 802.77,-412.4 877.5,-426.76 927.63,-434.53"/>
<polygon fill="#63b8ff" stroke="#63b8ff" points="935.77,-435.76 927.32,-438.12 931.81,-435.16 927.86,-434.56 927.86,-434.56 927.86,-434.56 931.81,-435.16 928.4,-431 935.77,-435.76 935.77,-435.76"/>
</a>
</g>
</g>
<!-- Node10 -->
<g id="Node000010" class="node">
<title>Node10</title>
<g id="a_Node000010"><a xlink:href="classAbstractPokitServicePrivate.html#af748600fc201fe47f29b58e8e93179d8" target="_top" xlink:title="Returns up to maxSize bytes of data as a human readable hexadecimal string.">
<polygon fill="white" stroke="#666666" points="893,-380 741,-380 741,-350 893,-350 893,-380"/>
<text text-anchor="start" x="749" y="-368" font-family="Helvetica,sans-Serif" font-size="10.00">AbstractPokitServicePrivate</text>
<text text-anchor="middle" x="817" y="-357" font-family="Helvetica,sans-Serif" font-size="10.00">::toHexString</text>
</a>
</g>
</g>
<!-- Node7&#45;&gt;Node10 -->
<g id="edge10_Node000007_Node000010" class="edge">
<title>Node7&#45;&gt;Node10</title>
<g id="a_edge10_Node000007_Node000010"><a xlink:title=" ">
<path fill="none" stroke="#63b8ff" d="M703.51,-342.02C713.71,-344.1 724.23,-346.25 734.56,-348.36"/>
<polygon fill="#63b8ff" stroke="#63b8ff" points="742.41,-349.97 733.85,-351.89 738.49,-349.17 734.57,-348.36 734.57,-348.36 734.57,-348.36 738.49,-349.17 735.3,-344.84 742.41,-349.97 742.41,-349.97"/>
</a>
</g>
</g>
<!-- Node7&#45;&gt;Node15 -->
<g id="edge17_Node000007_Node000015" class="edge">
<title>Node7&#45;&gt;Node15</title>
<g id="a_edge17_Node000007_Node000015"><a xlink:title=" ">
<path fill="none" stroke="#63b8ff" d="M648.17,-311.76C683.82,-281.86 762.54,-215.84 798.03,-186.07"/>
<polygon fill="#63b8ff" stroke="#63b8ff" points="804.52,-180.63 800.71,-188.53 801.46,-183.2 798.39,-185.77 798.39,-185.77 798.39,-185.77 801.46,-183.2 796.08,-183.01 804.52,-180.63 804.52,-180.63"/>
</a>
</g>
</g>
<!-- Node10&#45;&gt;Node5 -->
<g id="edge11_Node000010_Node000005" class="edge">
<title>Node10&#45;&gt;Node5</title>
<g id="a_edge11_Node000010_Node000005"><a xlink:title=" ">
<path fill="none" stroke="#63b8ff" d="M870.53,-349.88C878.56,-346.15 886.38,-341.57 893,-336 916.79,-315.97 904.85,-295.59 929,-276 932.43,-273.22 936.3,-270.83 940.35,-268.78"/>
<polygon fill="#63b8ff" stroke="#63b8ff" points="947.79,-265.46 941.95,-272.01 944.13,-267.09 940.48,-268.72 940.48,-268.72 940.48,-268.72 944.13,-267.09 939.01,-265.44 947.79,-265.46 947.79,-265.46"/>
</a>
</g>
</g>
<!-- Node10&#45;&gt;Node9 -->
<g id="edge15_Node000010_Node000009" class="edge">
<title>Node10&#45;&gt;Node9</title>
<g id="a_edge15_Node000010_Node000009"><a xlink:title=" ">
<path fill="none" stroke="#63b8ff" d="M863.93,-380.03C873.8,-384 883.98,-388.69 893,-394 910.95,-404.56 910.78,-413.91 929,-424 932.64,-426.02 936.55,-427.85 940.53,-429.51"/>
<polygon fill="#63b8ff" stroke="#63b8ff" points="948.25,-432.49 939.49,-432.97 944.52,-431.05 940.79,-429.61 940.79,-429.61 940.79,-429.61 944.52,-431.05 942.08,-426.25 948.25,-432.49 948.25,-432.49"/>
</a>
</g>
</g>
<!-- Node11 -->
<g id="Node000011" class="node">
<title>Node11</title>
<g id="a_Node000011"><a target="_parent" xlink:href="https://doc.qt.io/qt-5/qstring.html#fromLatin1" xlink:title=" ">
<polygon fill="white" stroke="#666666" points="1041,-340.5 929,-340.5 929,-321.5 1041,-321.5 1041,-340.5"/>
<text text-anchor="middle" x="985" y="-328.5" font-family="Helvetica,sans-Serif" font-size="10.00">QString::fromLatin1</text>
</a>
</g>
</g>
<!-- Node10&#45;&gt;Node11 -->
<g id="edge12_Node000010_Node000011" class="edge">
<title>Node10&#45;&gt;Node11</title>
<g id="a_edge12_Node000010_Node000011"><a xlink:title=" ">
<path fill="none" stroke="#63b8ff" d="M891.29,-349.99C904.12,-347.36 917.26,-344.67 929.46,-342.17"/>
<polygon fill="#63b8ff" stroke="#63b8ff" points="937.33,-340.56 930.22,-345.69 933.41,-341.36 929.49,-342.16 929.49,-342.16 929.49,-342.16 933.41,-341.36 928.77,-338.64 937.33,-340.56 937.33,-340.56"/>
</a>
</g>
</g>
<!-- Node12 -->
<g id="Node000012" class="node">
<title>Node12</title>
<g id="a_Node000012"><a target="_parent" xlink:href="https://doc.qt.io/qt-5/qbytearray.html#left" xlink:title=" ">
<polygon fill="white" stroke="#666666" points="1032,-303.5 938,-303.5 938,-284.5 1032,-284.5 1032,-303.5"/>
<text text-anchor="middle" x="985" y="-291.5" font-family="Helvetica,sans-Serif" font-size="10.00">QByteArray::left</text>
</a>
</g>
</g>
<!-- Node10&#45;&gt;Node12 -->
<g id="edge13_Node000010_Node000012" class="edge">
<title>Node10&#45;&gt;Node12</title>
<g id="a_edge13_Node000010_Node000012"><a xlink:title=" ">
<path fill="none" stroke="#63b8ff" d="M861.48,-349.88C871.98,-345.77 883.04,-341.05 893,-336 909.94,-327.42 911.91,-321.27 929,-313 933.95,-310.61 939.28,-308.37 944.61,-306.34"/>
<polygon fill="#63b8ff" stroke="#63b8ff" points="952.36,-303.5 946.08,-309.63 948.6,-304.87 944.85,-306.25 944.85,-306.25 944.85,-306.25 948.6,-304.87 943.61,-302.87 952.36,-303.5 952.36,-303.5"/>
</a>
</g>
</g>
<!-- Node13 -->
<g id="Node000013" class="node">
<title>Node13</title>
<g id="a_Node000013"><a target="_parent" xlink:href="https://doc.qt.io/qt-5/qbytearray.html#right" xlink:title=" ">
<polygon fill="white" stroke="#666666" points="1035.5,-414.5 934.5,-414.5 934.5,-395.5 1035.5,-395.5 1035.5,-414.5"/>
<text text-anchor="middle" x="985" y="-402.5" font-family="Helvetica,sans-Serif" font-size="10.00">QByteArray::right</text>
</a>
</g>
</g>
<!-- Node10&#45;&gt;Node13 -->
<g id="edge14_Node000010_Node000013" class="edge">
<title>Node10&#45;&gt;Node13</title>
<g id="a_edge14_Node000010_Node000013"><a xlink:title=" ">
<path fill="none" stroke="#63b8ff" d="M880.28,-380.01C898.95,-384.51 919.12,-389.37 936.65,-393.59"/>
<polygon fill="#63b8ff" stroke="#63b8ff" points="944.51,-395.49 935.89,-397.11 940.63,-394.55 936.74,-393.61 936.74,-393.61 936.74,-393.61 940.63,-394.55 937.58,-390.11 944.51,-395.49 944.51,-395.49"/>
</a>
</g>
</g>
<!-- Node14 -->
<g id="Node000014" class="node">
<title>Node14</title>
<g id="a_Node000014"><a target="_parent" xlink:href="https://doc.qt.io/qt-5/qbytearray.html#toHex" xlink:title=" ">
<polygon fill="white" stroke="#666666" points="1038.5,-377.5 931.5,-377.5 931.5,-358.5 1038.5,-358.5 1038.5,-377.5"/>
<text text-anchor="middle" x="985" y="-365.5" font-family="Helvetica,sans-Serif" font-size="10.00">QByteArray::toHex</text>
</a>
</g>
</g>
<!-- Node10&#45;&gt;Node14 -->
<g id="edge16_Node000010_Node000014" class="edge">
<title>Node10&#45;&gt;Node14</title>
<g id="a_edge16_Node000010_Node000014"><a xlink:title=" ">
<path fill="none" stroke="#63b8ff" d="M893.23,-366.36C903.28,-366.54 913.49,-366.73 923.25,-366.9"/>
<polygon fill="#63b8ff" stroke="#63b8ff" points="931.33,-367.05 923.27,-370.5 927.33,-366.98 923.34,-366.9 923.34,-366.9 923.34,-366.9 927.33,-366.98 923.4,-363.3 931.33,-367.05 931.33,-367.05"/>
</a>
</g>
</g>
<!-- Node17&#45;&gt;Node2 -->
<g id="edge22_Node000017_Node000002" class="edge">
<title>Node17&#45;&gt;Node2</title>
<g id="a_edge22_Node000017_Node000002"><a xlink:title=" ">
<path fill="none" stroke="#63b8ff" d="M564.88,-95.17C500.16,-95.35 399.85,-95.63 333.68,-95.81"/>
<polygon fill="#63b8ff" stroke="#63b8ff" points="325.39,-95.84 333.38,-92.21 329.39,-95.83 333.39,-95.81 333.39,-95.81 333.39,-95.81 329.39,-95.83 333.4,-99.41 325.39,-95.84 325.39,-95.84"/>
</a>
</g>
</g>
<!-- Node19 -->
<g id="Node000019" class="node">
<title>Node19</title>
<g id="a_Node000019"><a target="_parent" xlink:href="https://doc.qt.io/qt-5/qobject.html#parent" xlink:title=" ">
<polygon fill="white" stroke="#666666" points="675.5,-67.5 582.5,-67.5 582.5,-48.5 675.5,-48.5 675.5,-67.5"/>
<text text-anchor="middle" x="629" y="-55.5" font-family="Helvetica,sans-Serif" font-size="10.00">QObject::parent</text>
</a>
</g>
</g>
<!-- Node18&#45;&gt;Node19 -->
<g id="edge25_Node000018_Node000019" class="edge">
<title>Node18&#45;&gt;Node19</title>
<g id="a_edge25_Node000018_Node000019"><a xlink:title=" ">
<path fill="none" stroke="#63b8ff" d="M517.01,-58C536.27,-58 556.51,-58 574.36,-58"/>
<polygon fill="#63b8ff" stroke="#63b8ff" points="582.38,-58 574.38,-61.6 578.38,-58 574.38,-58 574.38,-58 574.38,-58 578.38,-58 574.38,-54.4 582.38,-58 582.38,-58"/>
</a>
</g>
</g>
<!-- Node20 -->
<g id="Node000020" class="node">
<title>Node20</title>
<g id="a_Node000020"><a target="_parent" xlink:href="https://doc.qt.io/qt-5/qobject.html#QObject" xlink:title=" ">
<polygon fill="white" stroke="#666666" points="679.5,-30.5 578.5,-30.5 578.5,-11.5 679.5,-11.5 679.5,-30.5"/>
<text text-anchor="middle" x="629" y="-18.5" font-family="Helvetica,sans-Serif" font-size="10.00">QObject::QObject</text>
</a>
</g>
</g>
<!-- Node18&#45;&gt;Node20 -->
<g id="edge26_Node000018_Node000020" class="edge">
<title>Node18&#45;&gt;Node20</title>
<g id="a_edge26_Node000018_Node000020"><a xlink:title=" ">
<path fill="none" stroke="#63b8ff" d="M488.41,-48.47C513.75,-43.48 544.92,-37.35 571.38,-32.14"/>
<polygon fill="#63b8ff" stroke="#63b8ff" points="579.42,-30.56 572.27,-35.64 575.5,-31.33 571.57,-32.11 571.57,-32.11 571.57,-32.11 575.5,-31.33 570.88,-28.57 579.42,-30.56 579.42,-30.56"/>
</a>
</g>
</g>
</g>
</svg>
