<?xml version="1.0" encoding="UTF-8" standalone="no"?>
<!DOCTYPE svg PUBLIC "-//W3C//DTD SVG 1.1//EN"
 "http://www.w3.org/Graphics/SVG/1.1/DTD/svg11.dtd">
<!-- Generated by graphviz version 2.43.0 (0)
 -->
<!-- Title: DeviceInfoService::CharacteristicUuids Pages: 1 -->
<svg width="166pt" height="241pt"
 viewBox="0.00 0.00 166.00 241.00" xmlns="http://www.w3.org/2000/svg" xmlns:xlink="http://www.w3.org/1999/xlink">
<g id="graph0" class="graph" transform="scale(1 1) rotate(0) translate(4 237)">
<title>DeviceInfoService::CharacteristicUuids</title>
<!-- Node1 -->
<g id="Node000001" class="node">
<title>Node1</title>
<g id="a_Node000001"><a xlink:title="Characteristics available via the Device Info service.">
<polygon fill="#999999" stroke="#666666" points="112,-30 0,-30 0,0 112,0 112,-30"/>
<text text-anchor="start" x="8" y="-18" font-family="Helvetica,sans-Serif" font-size="10.00">DeviceInfoService::</text>
<text text-anchor="middle" x="56" y="-7" font-family="Helvetica,sans-Serif" font-size="10.00">CharacteristicUuids</text>
</a>
</g>
</g>
<!-- Node2 -->
<g id="Node000002" class="node">
<title>Node2</title>
<g id="a_Node000002"><a target="_parent" xlink:href="https://doc.qt.io/qt-5/qbluetoothuuid.html" xlink:title=" ">
<polygon fill="white" stroke="#bfbfbf" points="103,-177 9,-177 9,-158 103,-158 103,-177"/>
<text text-anchor="middle" x="56" y="-165" font-family="Helvetica,sans-Serif" font-size="10.00">QBluetoothUuid</text>
</a>
</g>
</g>
<!-- Node2&#45;&gt;Node1 -->
<g id="edge1_Node000001_Node000002" class="edge">
<title>Node2&#45;&gt;Node1</title>
<g id="a_edge1_Node000001_Node000002"><a xlink:title=" ">
<path fill="none" stroke="#9a32cd" stroke-dasharray="5,2" d="M56,-149.84C56,-120.08 56,-58.27 56,-30.3"/>
<polygon fill="#9a32cd" stroke="#9a32cd" points="56,-157.98 52.4,-149.98 56,-153.98 56,-149.98 56,-149.98 56,-149.98 56,-153.98 59.6,-149.98 56,-157.98 56,-157.98"/>
</a>
</g>
<text text-anchor="start" x="59" y="-129" font-family="Helvetica,sans-Serif" font-size="10.00" fill="grey">firmwareRevision</text>
<text text-anchor="start" x="59" y="-114" font-family="Helvetica,sans-Serif" font-size="10.00" fill="grey">hardwareRevision</text>
<text text-anchor="start" x="59" y="-99" font-family="Helvetica,sans-Serif" font-size="10.00" fill="grey">manufacturerName</text>
<text text-anchor="start" x="59" y="-84" font-family="Helvetica,sans-Serif" font-size="10.00" fill="grey">modelNumber</text>
<text text-anchor="start" x="59" y="-69" font-family="Helvetica,sans-Serif" font-size="10.00" fill="grey">serialNumber</text>
<text text-anchor="start" x="59" y="-54" font-family="Helvetica,sans-Serif" font-size="10.00" fill="grey">softwareRevision</text>
</g>
<!-- Node3 -->
<g id="Node000003" class="node">
<title>Node3</title>
<g id="a_Node000003"><a target="_parent" xlink:href="https://doc.qt.io/qt-5/quuid.html" xlink:title=" ">
<polygon fill="white" stroke="#bfbfbf" points="79.5,-233 32.5,-233 32.5,-214 79.5,-214 79.5,-233"/>
<text text-anchor="middle" x="56" y="-221" font-family="Helvetica,sans-Serif" font-size="10.00">QUuid</text>
</a>
</g>
</g>
<!-- Node3&#45;&gt;Node2 -->
<g id="edge2_Node000002_Node000003" class="edge">
<title>Node3&#45;&gt;Node2</title>
<g id="a_edge2_Node000002_Node000003"><a xlink:title=" ">
<path fill="none" stroke="#63b8ff" d="M56,-205.36C56,-196 56,-184.83 56,-177.25"/>
<polygon fill="#63b8ff" stroke="#63b8ff" points="56,-213.58 52.4,-205.58 56,-209.58 56,-205.58 56,-205.58 56,-205.58 56,-209.58 59.6,-205.58 56,-213.58 56,-213.58"/>
</a>
</g>
</g>
</g>
</svg>
