<?xml version="1.0" encoding="UTF-8" standalone="no"?>
<!DOCTYPE svg PUBLIC "-//W3C//DTD SVG 1.1//EN"
 "http://www.w3.org/Graphics/SVG/1.1/DTD/svg11.dtd">
<!-- Generated by graphviz version 2.43.0 (0)
 -->
<!-- Title: abstractpokitservice.h Pages: 1 -->
<svg width="436pt" height="192pt"
 viewBox="0.00 0.00 435.50 192.00" xmlns="http://www.w3.org/2000/svg" xmlns:xlink="http://www.w3.org/1999/xlink">
<g id="graph0" class="graph" transform="scale(1 1) rotate(0) translate(4 188)">
<title>abstractpokitservice.h</title>
<!-- Node1 -->
<g id="node1" class="node">
<title>Node1</title>
<g id="a_node1"><a xlink:title="Declares the AbstractPokitService class.">
<polygon fill="#999999" stroke="#666666" points="298,-184 173,-184 173,-165 298,-165 298,-184"/>
<text text-anchor="middle" x="235.5" y="-172" font-family="Helvetica,sans-Serif" font-size="10.00">abstractpokitservice.h</text>
</a>
</g>
</g>
<!-- Node2 -->
<g id="node2" class="node">
<title>Node2</title>
<g id="a_node2"><a xlink:href="qtpokit__global_8h.html" target="_top" xlink:title="Global QtPokit library macros.">
<polygon fill="white" stroke="#666666" points="95,-74 0,-74 0,-55 95,-55 95,-74"/>
<text text-anchor="middle" x="47.5" y="-62" font-family="Helvetica,sans-Serif" font-size="10.00">qtpokit_global.h</text>
</a>
</g>
</g>
<!-- Node1&#45;&gt;Node2 -->
<g id="edge1" class="edge">
<title>Node1&#45;&gt;Node2</title>
<path fill="none" stroke="#63b8ff" d="M204.87,-164.85C180.91,-157.34 147.27,-145.14 120.5,-129 97.8,-115.31 75.34,-94.37 61.46,-80.31"/>
<polygon fill="#63b8ff" stroke="#63b8ff" points="55.71,-74.39 63.86,-77.63 58.5,-77.26 61.28,-80.13 61.28,-80.13 61.28,-80.13 58.5,-77.26 58.7,-82.64 55.71,-74.39 55.71,-74.39"/>
</g>
<!-- Node4 -->
<g id="node4" class="node">
<title>Node4</title>
<g id="a_node4"><a xlink:href="pokitproducts_8h.html" target="_top" xlink:title="Declares the PokitProduct enumeration, and related helper functions.">
<polygon fill="white" stroke="#666666" points="221.5,-129 129.5,-129 129.5,-110 221.5,-110 221.5,-129"/>
<text text-anchor="middle" x="175.5" y="-117" font-family="Helvetica,sans-Serif" font-size="10.00">pokitproducts.h</text>
</a>
</g>
</g>
<!-- Node1&#45;&gt;Node4 -->
<g id="edge3" class="edge">
<title>Node1&#45;&gt;Node4</title>
<path fill="none" stroke="#63b8ff" d="M225.86,-164.98C216.56,-156.77 202.3,-144.18 191.33,-134.49"/>
<polygon fill="#63b8ff" stroke="#63b8ff" points="185.32,-129.17 193.69,-131.77 188.31,-131.82 191.31,-134.47 191.31,-134.47 191.31,-134.47 188.31,-131.82 188.93,-137.16 185.32,-129.17 185.32,-129.17"/>
</g>
<!-- Node8 -->
<g id="node8" class="node">
<title>Node8</title>
<g id="a_node8"><a xlink:title=" ">
<polygon fill="#e0e0e0" stroke="#999999" points="353,-129 240,-129 240,-110 353,-110 353,-129"/>
<text text-anchor="middle" x="296.5" y="-117" font-family="Helvetica,sans-Serif" font-size="10.00">QLowEnergyService</text>
</a>
</g>
</g>
<!-- Node1&#45;&gt;Node8 -->
<g id="edge8" class="edge">
<title>Node1&#45;&gt;Node8</title>
<path fill="none" stroke="#63b8ff" d="M245.3,-164.98C254.76,-156.77 269.25,-144.18 280.4,-134.49"/>
<polygon fill="#63b8ff" stroke="#63b8ff" points="286.52,-129.17 282.84,-137.13 283.5,-131.79 280.48,-134.42 280.48,-134.42 280.48,-134.42 283.5,-131.79 278.12,-131.7 286.52,-129.17 286.52,-129.17"/>
</g>
<!-- Node9 -->
<g id="node9" class="node">
<title>Node9</title>
<g id="a_node9"><a xlink:title=" ">
<polygon fill="#e0e0e0" stroke="#999999" points="427.5,-129 371.5,-129 371.5,-110 427.5,-110 427.5,-129"/>
<text text-anchor="middle" x="399.5" y="-117" font-family="Helvetica,sans-Serif" font-size="10.00">QObject</text>
</a>
</g>
</g>
<!-- Node1&#45;&gt;Node9 -->
<g id="edge9" class="edge">
<title>Node1&#45;&gt;Node9</title>
<path fill="none" stroke="#63b8ff" d="M261.85,-164.98C289.86,-155.93 334.27,-141.58 365.04,-131.64"/>
<polygon fill="#63b8ff" stroke="#63b8ff" points="372.94,-129.08 366.44,-134.97 369.14,-130.31 365.33,-131.54 365.33,-131.54 365.33,-131.54 369.14,-130.31 364.22,-128.12 372.94,-129.08 372.94,-129.08"/>
</g>
<!-- Node3 -->
<g id="node3" class="node">
<title>Node3</title>
<g id="a_node3"><a xlink:title=" ">
<polygon fill="#e0e0e0" stroke="#999999" points="77,-19 18,-19 18,0 77,0 77,-19"/>
<text text-anchor="middle" x="47.5" y="-7" font-family="Helvetica,sans-Serif" font-size="10.00">QtGlobal</text>
</a>
</g>
</g>
<!-- Node2&#45;&gt;Node3 -->
<g id="edge2" class="edge">
<title>Node2&#45;&gt;Node3</title>
<path fill="none" stroke="#63b8ff" d="M47.5,-54.75C47.5,-47.26 47.5,-36.28 47.5,-27.13"/>
<polygon fill="#63b8ff" stroke="#63b8ff" points="47.5,-19.09 51.1,-27.09 47.5,-23.09 47.5,-27.09 47.5,-27.09 47.5,-27.09 47.5,-23.09 43.9,-27.09 47.5,-19.09 47.5,-19.09"/>
</g>
<!-- Node4&#45;&gt;Node2 -->
<g id="edge4" class="edge">
<title>Node4&#45;&gt;Node2</title>
<path fill="none" stroke="#63b8ff" d="M154.93,-109.98C133.51,-101.11 99.79,-87.15 75.84,-77.24"/>
<polygon fill="#63b8ff" stroke="#63b8ff" points="68.44,-74.17 77.21,-73.9 72.14,-75.7 75.83,-77.23 75.83,-77.23 75.83,-77.23 72.14,-75.7 74.45,-80.56 68.44,-74.17 68.44,-74.17"/>
</g>
<!-- Node5 -->
<g id="node5" class="node">
<title>Node5</title>
<g id="a_node5"><a xlink:title=" ">
<polygon fill="#e0e0e0" stroke="#999999" points="237.5,-74 113.5,-74 113.5,-55 237.5,-55 237.5,-74"/>
<text text-anchor="middle" x="175.5" y="-62" font-family="Helvetica,sans-Serif" font-size="10.00">QBluetoothDeviceInfo</text>
</a>
</g>
</g>
<!-- Node4&#45;&gt;Node5 -->
<g id="edge5" class="edge">
<title>Node4&#45;&gt;Node5</title>
<path fill="none" stroke="#63b8ff" d="M175.5,-109.75C175.5,-102.26 175.5,-91.28 175.5,-82.13"/>
<polygon fill="#63b8ff" stroke="#63b8ff" points="175.5,-74.09 179.1,-82.09 175.5,-78.09 175.5,-82.09 175.5,-82.09 175.5,-82.09 175.5,-78.09 171.9,-82.09 175.5,-74.09 175.5,-74.09"/>
</g>
<!-- Node6 -->
<g id="node6" class="node">
<title>Node6</title>
<g id="a_node6"><a xlink:title=" ">
<polygon fill="#e0e0e0" stroke="#999999" points="305.5,-74 255.5,-74 255.5,-55 305.5,-55 305.5,-74"/>
<text text-anchor="middle" x="280.5" y="-62" font-family="Helvetica,sans-Serif" font-size="10.00">QFlags</text>
</a>
</g>
</g>
<!-- Node4&#45;&gt;Node6 -->
<g id="edge6" class="edge">
<title>Node4&#45;&gt;Node6</title>
<path fill="none" stroke="#63b8ff" d="M192.37,-109.98C209.57,-101.3 236.42,-87.75 255.96,-77.88"/>
<polygon fill="#63b8ff" stroke="#63b8ff" points="263.32,-74.17 257.8,-80.99 259.75,-75.97 256.18,-77.78 256.18,-77.78 256.18,-77.78 259.75,-75.97 254.56,-74.56 263.32,-74.17 263.32,-74.17"/>
</g>
<!-- Node7 -->
<g id="node7" class="node">
<title>Node7</title>
<g id="a_node7"><a xlink:title=" ">
<polygon fill="#e0e0e0" stroke="#999999" points="377,-74 324,-74 324,-55 377,-55 377,-74"/>
<text text-anchor="middle" x="350.5" y="-62" font-family="Helvetica,sans-Serif" font-size="10.00">QString</text>
</a>
</g>
</g>
<!-- Node4&#45;&gt;Node7 -->
<g id="edge7" class="edge">
<title>Node4&#45;&gt;Node7</title>
<path fill="none" stroke="#63b8ff" d="M203.62,-109.98C234.17,-100.73 283.01,-85.94 315.89,-75.98"/>
<polygon fill="#63b8ff" stroke="#63b8ff" points="323.89,-73.56 317.27,-79.32 320.06,-74.72 316.23,-75.88 316.23,-75.88 316.23,-75.88 320.06,-74.72 315.19,-72.43 323.89,-73.56 323.89,-73.56"/>
</g>
</g>
</svg>
