<?xml version="1.0" encoding="UTF-8" standalone="no"?>
<!DOCTYPE svg PUBLIC "-//W3C//DTD SVG 1.1//EN"
 "http://www.w3.org/Graphics/SVG/1.1/DTD/svg11.dtd">
<!-- Generated by graphviz version 2.43.0 (0)
 -->
<!-- Title: abstractpokitservice.cpp Pages: 1 -->
<svg width="807pt" height="247pt"
 viewBox="0.00 0.00 806.50 247.00" xmlns="http://www.w3.org/2000/svg" xmlns:xlink="http://www.w3.org/1999/xlink">
<g id="graph0" class="graph" transform="scale(1 1) rotate(0) translate(4 243)">
<title>abstractpokitservice.cpp</title>
<!-- Node1 -->
<g id="Node000001" class="node">
<title>Node1</title>
<g id="a_Node000001"><a xlink:title="Defines the AbstractPokitService and AbstractPokitServicePrivate classes.">
<polygon fill="#999999" stroke="#666666" points="477.5,-239 340.5,-239 340.5,-220 477.5,-220 477.5,-239"/>
<text text-anchor="middle" x="409" y="-227" font-family="Helvetica,sans-Serif" font-size="10.00">abstractpokitservice.cpp</text>
</a>
</g>
</g>
<!-- Node2 -->
<g id="Node000002" class="node">
<title>Node2</title>
<g id="a_Node000002"><a xlink:href="abstractpokitservice_8h.html" target="_top" xlink:title="Declares the AbstractPokitService class.">
<polygon fill="white" stroke="#666666" points="315.5,-184 152.5,-184 152.5,-165 315.5,-165 315.5,-184"/>
<text text-anchor="middle" x="234" y="-172" font-family="Helvetica,sans-Serif" font-size="10.00">qtpokit/abstractpokitservice.h</text>
</a>
</g>
</g>
<!-- Node1&#45;&gt;Node2 -->
<g id="edge1_Node000001_Node000002" class="edge">
<title>Node1&#45;&gt;Node2</title>
<g id="a_edge1_Node000001_Node000002"><a xlink:title=" ">
<path fill="none" stroke="#63b8ff" d="M380.88,-219.98C350.87,-210.89 303.2,-196.46 270.35,-186.51"/>
<polygon fill="#63b8ff" stroke="#63b8ff" points="262.34,-184.08 271.04,-182.96 266.17,-185.24 269.99,-186.4 269.99,-186.4 269.99,-186.4 266.17,-185.24 268.95,-189.85 262.34,-184.08 262.34,-184.08"/>
</a>
</g>
</g>
<!-- Node12 -->
<g id="Node000012" class="node">
<title>Node12</title>
<g id="a_Node000012"><a xlink:href="abstractpokitservice__p_8h.html" target="_top" xlink:title="Declares the AbstractPokitServicePrivate class.">
<polygon fill="white" stroke="#666666" points="477.5,-184 340.5,-184 340.5,-165 477.5,-165 477.5,-184"/>
<text text-anchor="middle" x="409" y="-172" font-family="Helvetica,sans-Serif" font-size="10.00">abstractpokitservice_p.h</text>
</a>
</g>
</g>
<!-- Node1&#45;&gt;Node12 -->
<g id="edge12_Node000001_Node000012" class="edge">
<title>Node1&#45;&gt;Node12</title>
<g id="a_edge12_Node000001_Node000012"><a xlink:title=" ">
<path fill="none" stroke="#63b8ff" d="M409,-219.75C409,-212.26 409,-201.28 409,-192.13"/>
<polygon fill="#63b8ff" stroke="#63b8ff" points="409,-184.09 412.6,-192.09 409,-188.09 409,-192.09 409,-192.09 409,-192.09 409,-188.09 405.4,-192.09 409,-184.09 409,-184.09"/>
</a>
</g>
</g>
<!-- Node14 -->
<g id="Node000014" class="node">
<title>Node14</title>
<g id="a_Node000014"><a xlink:href="pokitproducts__p_8h_source.html" target="_top" xlink:title=" ">
<polygon fill="white" stroke="#666666" points="661,-184 557,-184 557,-165 661,-165 661,-184"/>
<text text-anchor="middle" x="609" y="-172" font-family="Helvetica,sans-Serif" font-size="10.00">pokitproducts_p.h</text>
</a>
</g>
</g>
<!-- Node1&#45;&gt;Node14 -->
<g id="edge18_Node000001_Node000014" class="edge">
<title>Node1&#45;&gt;Node14</title>
<g id="a_edge18_Node000001_Node000014"><a xlink:title=" ">
<path fill="none" stroke="#63b8ff" d="M441.13,-219.98C475.87,-210.78 531.31,-196.09 568.88,-186.13"/>
<polygon fill="#63b8ff" stroke="#63b8ff" points="576.61,-184.08 569.8,-189.61 572.75,-185.11 568.88,-186.13 568.88,-186.13 568.88,-186.13 572.75,-185.11 567.96,-182.65 576.61,-184.08 576.61,-184.08"/>
</a>
</g>
</g>
<!-- Node15 -->
<g id="Node000015" class="node">
<title>Node15</title>
<g id="a_Node000015"><a xlink:title=" ">
<polygon fill="#e0e0e0" stroke="#999999" points="798.5,-129 673.5,-129 673.5,-110 798.5,-110 798.5,-129"/>
<text text-anchor="middle" x="736" y="-117" font-family="Helvetica,sans-Serif" font-size="10.00">QLowEnergyController</text>
</a>
</g>
</g>
<!-- Node1&#45;&gt;Node15 -->
<g id="edge25_Node000001_Node000015" class="edge">
<title>Node1&#45;&gt;Node15</title>
<g id="a_edge25_Node000001_Node000015"><a xlink:title=" ">
<path fill="none" stroke="#63b8ff" d="M477.57,-227.74C532.31,-224.64 609.58,-214.5 670,-184 692.69,-172.55 712.78,-150.64 724.66,-135.8"/>
<polygon fill="#63b8ff" stroke="#63b8ff" points="729.82,-129.16 727.76,-137.68 727.36,-132.32 724.91,-135.48 724.91,-135.48 724.91,-135.48 727.36,-132.32 722.07,-133.27 729.82,-129.16 729.82,-129.16"/>
</a>
</g>
</g>
<!-- Node16 -->
<g id="Node000016" class="node">
<title>Node16</title>
<g id="a_Node000016"><a xlink:href="pokitdevice_8h.html" target="_top" xlink:title="Declares the PokitDevice class.">
<polygon fill="white" stroke="#666666" points="120,-184 0,-184 0,-165 120,-165 120,-184"/>
<text text-anchor="middle" x="60" y="-172" font-family="Helvetica,sans-Serif" font-size="10.00">qtpokit/pokitdevice.h</text>
</a>
</g>
</g>
<!-- Node1&#45;&gt;Node16 -->
<g id="edge21_Node000001_Node000016" class="edge">
<title>Node1&#45;&gt;Node16</title>
<g id="a_edge21_Node000001_Node000016"><a xlink:title=" ">
<path fill="none" stroke="#63b8ff" d="M352.93,-219.98C290.56,-210.51 189.99,-195.24 124.44,-185.29"/>
<polygon fill="#63b8ff" stroke="#63b8ff" points="116.22,-184.04 124.67,-181.68 120.18,-184.64 124.13,-185.24 124.13,-185.24 124.13,-185.24 120.18,-184.64 123.59,-188.8 116.22,-184.04 116.22,-184.04"/>
</a>
</g>
</g>
<!-- Node3 -->
<g id="Node000003" class="node">
<title>Node3</title>
<g id="a_Node000003"><a xlink:href="qtpokit__global_8h.html" target="_top" xlink:title="Global QtPokit library macros.">
<polygon fill="white" stroke="#666666" points="283.5,-74 188.5,-74 188.5,-55 283.5,-55 283.5,-74"/>
<text text-anchor="middle" x="236" y="-62" font-family="Helvetica,sans-Serif" font-size="10.00">qtpokit_global.h</text>
</a>
</g>
</g>
<!-- Node2&#45;&gt;Node3 -->
<g id="edge2_Node000002_Node000003" class="edge">
<title>Node2&#45;&gt;Node3</title>
<g id="a_edge2_Node000002_Node000003"><a xlink:title=" ">
<path fill="none" stroke="#63b8ff" d="M218.75,-164.95C200.56,-153.54 173.79,-132.18 184,-110 190.03,-96.9 202.04,-86.21 213,-78.6"/>
<polygon fill="#63b8ff" stroke="#63b8ff" points="219.97,-74.05 215.24,-81.44 216.62,-76.23 213.27,-78.42 213.27,-78.42 213.27,-78.42 216.62,-76.23 211.3,-75.41 219.97,-74.05 219.97,-74.05"/>
</a>
</g>
</g>
<!-- Node5 -->
<g id="Node000005" class="node">
<title>Node5</title>
<g id="a_Node000005"><a xlink:href="pokitproducts_8h.html" target="_top" xlink:title="Declares the PokitProduct enumeration, and related helper functions.">
<polygon fill="white" stroke="#666666" points="655,-129 563,-129 563,-110 655,-110 655,-129"/>
<text text-anchor="middle" x="609" y="-117" font-family="Helvetica,sans-Serif" font-size="10.00">pokitproducts.h</text>
</a>
</g>
</g>
<!-- Node2&#45;&gt;Node5 -->
<g id="edge4_Node000002_Node000005" class="edge">
<title>Node2&#45;&gt;Node5</title>
<g id="a_edge4_Node000002_Node000005"><a xlink:title=" ">
<path fill="none" stroke="#63b8ff" d="M296.68,-164.98C361.03,-156.19 464.05,-141.95 553,-129 553.6,-128.91 554.21,-128.82 554.82,-128.73"/>
<polygon fill="#63b8ff" stroke="#63b8ff" points="562.86,-127.55 555.47,-132.28 558.9,-128.13 554.95,-128.72 554.95,-128.72 554.95,-128.72 558.9,-128.13 554.42,-125.15 562.86,-127.55 562.86,-127.55"/>
</a>
</g>
</g>
<!-- Node9 -->
<g id="Node000009" class="node">
<title>Node9</title>
<g id="a_Node000009"><a xlink:title=" ">
<polygon fill="#e0e0e0" stroke="#999999" points="380.5,-129 267.5,-129 267.5,-110 380.5,-110 380.5,-129"/>
<text text-anchor="middle" x="324" y="-117" font-family="Helvetica,sans-Serif" font-size="10.00">QLowEnergyService</text>
</a>
</g>
</g>
<!-- Node2&#45;&gt;Node9 -->
<g id="edge9_Node000002_Node000009" class="edge">
<title>Node2&#45;&gt;Node9</title>
<g id="a_edge9_Node000002_Node000009"><a xlink:title=" ">
<path fill="none" stroke="#63b8ff" d="M248.46,-164.98C262.94,-156.46 285.4,-143.23 302.07,-133.41"/>
<polygon fill="#63b8ff" stroke="#63b8ff" points="309.28,-129.17 304.21,-136.33 305.83,-131.2 302.38,-133.23 302.38,-133.23 302.38,-133.23 305.83,-131.2 300.56,-130.13 309.28,-129.17 309.28,-129.17"/>
</a>
</g>
</g>
<!-- Node10 -->
<g id="Node000010" class="node">
<title>Node10</title>
<g id="a_Node000010"><a xlink:title=" ">
<polygon fill="#e0e0e0" stroke="#999999" points="137,-129 81,-129 81,-110 137,-110 137,-129"/>
<text text-anchor="middle" x="109" y="-117" font-family="Helvetica,sans-Serif" font-size="10.00">QObject</text>
</a>
</g>
</g>
<!-- Node2&#45;&gt;Node10 -->
<g id="edge10_Node000002_Node000010" class="edge">
<title>Node2&#45;&gt;Node10</title>
<g id="a_edge10_Node000002_Node000010"><a xlink:title=" ">
<path fill="none" stroke="#63b8ff" d="M213.92,-164.98C193.08,-156.15 160.34,-142.27 136.98,-132.36"/>
<polygon fill="#63b8ff" stroke="#63b8ff" points="129.45,-129.17 138.22,-128.98 133.13,-130.73 136.81,-132.29 136.81,-132.29 136.81,-132.29 133.13,-130.73 135.41,-135.61 129.45,-129.17 129.45,-129.17"/>
</a>
</g>
</g>
<!-- Node11 -->
<g id="Node000011" class="node">
<title>Node11</title>
<g id="a_Node000011"><a xlink:title=" ">
<polygon fill="#e0e0e0" stroke="#999999" points="249,-129 193,-129 193,-110 249,-110 249,-129"/>
<text text-anchor="middle" x="221" y="-117" font-family="Helvetica,sans-Serif" font-size="10.00">optional</text>
</a>
</g>
</g>
<!-- Node2&#45;&gt;Node11 -->
<g id="edge11_Node000002_Node000011" class="edge">
<title>Node2&#45;&gt;Node11</title>
<g id="a_edge11_Node000002_Node000011"><a xlink:title=" ">
<path fill="none" stroke="#63b8ff" d="M231.85,-164.75C230.02,-157.26 227.32,-146.28 225.08,-137.13"/>
<polygon fill="#63b8ff" stroke="#63b8ff" points="223.11,-129.09 228.51,-136 224.06,-132.97 225.01,-136.86 225.01,-136.86 225.01,-136.86 224.06,-132.97 221.52,-137.72 223.11,-129.09 223.11,-129.09"/>
</a>
</g>
</g>
<!-- Node4 -->
<g id="Node000004" class="node">
<title>Node4</title>
<g id="a_Node000004"><a xlink:title=" ">
<polygon fill="#e0e0e0" stroke="#999999" points="265.5,-19 206.5,-19 206.5,0 265.5,0 265.5,-19"/>
<text text-anchor="middle" x="236" y="-7" font-family="Helvetica,sans-Serif" font-size="10.00">QtGlobal</text>
</a>
</g>
</g>
<!-- Node3&#45;&gt;Node4 -->
<g id="edge3_Node000003_Node000004" class="edge">
<title>Node3&#45;&gt;Node4</title>
<g id="a_edge3_Node000003_Node000004"><a xlink:title=" ">
<path fill="none" stroke="#63b8ff" d="M236,-54.75C236,-47.26 236,-36.28 236,-27.13"/>
<polygon fill="#63b8ff" stroke="#63b8ff" points="236,-19.09 239.6,-27.09 236,-23.09 236,-27.09 236,-27.09 236,-27.09 236,-23.09 232.4,-27.09 236,-19.09 236,-19.09"/>
</a>
</g>
</g>
<!-- Node5&#45;&gt;Node3 -->
<g id="edge5_Node000005_Node000003" class="edge">
<title>Node5&#45;&gt;Node3</title>
<g id="a_edge5_Node000005_Node000003"><a xlink:title=" ">
<path fill="none" stroke="#63b8ff" d="M562.86,-111.46C559.52,-110.96 556.21,-110.47 553,-110 461.56,-96.64 355.16,-81.86 291.82,-73.14"/>
<polygon fill="#63b8ff" stroke="#63b8ff" points="283.55,-72.01 291.97,-69.53 287.52,-72.55 291.48,-73.1 291.48,-73.1 291.48,-73.1 287.52,-72.55 290.99,-76.66 283.55,-72.01 283.55,-72.01"/>
</a>
</g>
</g>
<!-- Node6 -->
<g id="Node000006" class="node">
<title>Node6</title>
<g id="a_Node000006"><a xlink:title=" ">
<polygon fill="#e0e0e0" stroke="#999999" points="496,-74 372,-74 372,-55 496,-55 496,-74"/>
<text text-anchor="middle" x="434" y="-62" font-family="Helvetica,sans-Serif" font-size="10.00">QBluetoothDeviceInfo</text>
</a>
</g>
</g>
<!-- Node5&#45;&gt;Node6 -->
<g id="edge6_Node000005_Node000006" class="edge">
<title>Node5&#45;&gt;Node6</title>
<g id="a_edge6_Node000005_Node000006"><a xlink:title=" ">
<path fill="none" stroke="#63b8ff" d="M580.88,-109.98C550.87,-100.89 503.2,-86.46 470.35,-76.51"/>
<polygon fill="#63b8ff" stroke="#63b8ff" points="462.34,-74.08 471.04,-72.96 466.17,-75.24 469.99,-76.4 469.99,-76.4 469.99,-76.4 466.17,-75.24 468.95,-79.85 462.34,-74.08 462.34,-74.08"/>
</a>
</g>
</g>
<!-- Node7 -->
<g id="Node000007" class="node">
<title>Node7</title>
<g id="a_Node000007"><a xlink:title=" ">
<polygon fill="#e0e0e0" stroke="#999999" points="599,-74 549,-74 549,-55 599,-55 599,-74"/>
<text text-anchor="middle" x="574" y="-62" font-family="Helvetica,sans-Serif" font-size="10.00">QFlags</text>
</a>
</g>
</g>
<!-- Node5&#45;&gt;Node7 -->
<g id="edge7_Node000005_Node000007" class="edge">
<title>Node5&#45;&gt;Node7</title>
<g id="a_edge7_Node000005_Node000007"><a xlink:title=" ">
<path fill="none" stroke="#63b8ff" d="M603.22,-109.75C598.07,-101.95 590.42,-90.37 584.24,-81"/>
<polygon fill="#63b8ff" stroke="#63b8ff" points="579.67,-74.09 587.08,-78.78 581.88,-77.43 584.08,-80.76 584.08,-80.76 584.08,-80.76 581.88,-77.43 581.08,-82.75 579.67,-74.09 579.67,-74.09"/>
</a>
</g>
</g>
<!-- Node8 -->
<g id="Node000008" class="node">
<title>Node8</title>
<g id="a_Node000008"><a xlink:title=" ">
<polygon fill="#e0e0e0" stroke="#999999" points="670.5,-74 617.5,-74 617.5,-55 670.5,-55 670.5,-74"/>
<text text-anchor="middle" x="644" y="-62" font-family="Helvetica,sans-Serif" font-size="10.00">QString</text>
</a>
</g>
</g>
<!-- Node5&#45;&gt;Node8 -->
<g id="edge8_Node000005_Node000008" class="edge">
<title>Node5&#45;&gt;Node8</title>
<g id="a_edge8_Node000005_Node000008"><a xlink:title=" ">
<path fill="none" stroke="#63b8ff" d="M614.78,-109.75C619.93,-101.95 627.58,-90.37 633.76,-81"/>
<polygon fill="#63b8ff" stroke="#63b8ff" points="638.33,-74.09 636.92,-82.75 636.12,-77.43 633.92,-80.76 633.92,-80.76 633.92,-80.76 636.12,-77.43 630.92,-78.78 638.33,-74.09 638.33,-74.09"/>
</a>
</g>
</g>
<!-- Node12&#45;&gt;Node3 -->
<g id="edge13_Node000012_Node000003" class="edge">
<title>Node12&#45;&gt;Node3</title>
<g id="a_edge13_Node000012_Node000003"><a xlink:title=" ">
<path fill="none" stroke="#63b8ff" d="M408.75,-164.79C407.88,-151.17 404.2,-124.87 389,-110 363.2,-84.77 323.97,-73.7 291.69,-68.9"/>
<polygon fill="#63b8ff" stroke="#63b8ff" points="283.65,-67.82 292.06,-65.32 287.61,-68.35 291.58,-68.89 291.58,-68.89 291.58,-68.89 287.61,-68.35 291.09,-72.46 283.65,-67.82 283.65,-67.82"/>
</a>
</g>
</g>
<!-- Node12&#45;&gt;Node5 -->
<g id="edge14_Node000012_Node000005" class="edge">
<title>Node12&#45;&gt;Node5</title>
<g id="a_edge14_Node000012_Node000005"><a xlink:title=" ">
<path fill="none" stroke="#63b8ff" d="M441.13,-164.98C475.87,-155.78 531.31,-141.09 568.88,-131.13"/>
<polygon fill="#63b8ff" stroke="#63b8ff" points="576.61,-129.08 569.8,-134.61 572.75,-130.11 568.88,-131.13 568.88,-131.13 568.88,-131.13 572.75,-130.11 567.96,-127.65 576.61,-129.08 576.61,-129.08"/>
</a>
</g>
</g>
<!-- Node12&#45;&gt;Node9 -->
<g id="edge16_Node000012_Node000009" class="edge">
<title>Node12&#45;&gt;Node9</title>
<g id="a_edge16_Node000012_Node000009"><a xlink:title=" ">
<path fill="none" stroke="#63b8ff" d="M395.34,-164.98C381.67,-156.46 360.45,-143.23 344.71,-133.41"/>
<polygon fill="#63b8ff" stroke="#63b8ff" points="337.91,-129.17 346.6,-130.35 341.3,-131.29 344.69,-133.4 344.69,-133.4 344.69,-133.4 341.3,-131.29 342.79,-136.46 337.91,-129.17 337.91,-129.17"/>
</a>
</g>
</g>
<!-- Node12&#45;&gt;Node10 -->
<g id="edge17_Node000012_Node000010" class="edge">
<title>Node12&#45;&gt;Node10</title>
<g id="a_edge17_Node000012_Node000010"><a xlink:title=" ">
<path fill="none" stroke="#63b8ff" d="M360.8,-164.98C300.62,-154.35 199.04,-136.41 145.13,-126.88"/>
<polygon fill="#63b8ff" stroke="#63b8ff" points="137.22,-125.49 145.72,-123.33 141.16,-126.18 145.1,-126.88 145.1,-126.88 145.1,-126.88 141.16,-126.18 144.47,-130.42 137.22,-125.49 137.22,-125.49"/>
</a>
</g>
</g>
<!-- Node13 -->
<g id="Node000013" class="node">
<title>Node13</title>
<g id="a_Node000013"><a xlink:title=" ">
<polygon fill="#e0e0e0" stroke="#999999" points="544.5,-129 437.5,-129 437.5,-110 544.5,-110 544.5,-129"/>
<text text-anchor="middle" x="491" y="-117" font-family="Helvetica,sans-Serif" font-size="10.00">QLoggingCategory</text>
</a>
</g>
</g>
<!-- Node12&#45;&gt;Node13 -->
<g id="edge15_Node000012_Node000013" class="edge">
<title>Node12&#45;&gt;Node13</title>
<g id="a_edge15_Node000012_Node000013"><a xlink:title=" ">
<path fill="none" stroke="#63b8ff" d="M422.17,-164.98C435.25,-156.54 455.47,-143.47 470.61,-133.68"/>
<polygon fill="#63b8ff" stroke="#63b8ff" points="477.59,-129.17 472.82,-136.54 474.23,-131.34 470.87,-133.51 470.87,-133.51 470.87,-133.51 474.23,-131.34 468.91,-130.49 477.59,-129.17 477.59,-129.17"/>
</a>
</g>
</g>
<!-- Node14&#45;&gt;Node5 -->
<g id="edge19_Node000014_Node000005" class="edge">
<title>Node14&#45;&gt;Node5</title>
<g id="a_edge19_Node000014_Node000005"><a xlink:title=" ">
<path fill="none" stroke="#63b8ff" d="M609,-164.75C609,-157.26 609,-146.28 609,-137.13"/>
<polygon fill="#63b8ff" stroke="#63b8ff" points="609,-129.09 612.6,-137.09 609,-133.09 609,-137.09 609,-137.09 609,-137.09 609,-133.09 605.4,-137.09 609,-129.09 609,-129.09"/>
</a>
</g>
</g>
<!-- Node14&#45;&gt;Node15 -->
<g id="edge20_Node000014_Node000015" class="edge">
<title>Node14&#45;&gt;Node15</title>
<g id="a_edge20_Node000014_Node000015"><a xlink:title=" ">
<path fill="none" stroke="#63b8ff" d="M629.4,-164.98C650.57,-156.15 683.83,-142.27 707.57,-132.36"/>
<polygon fill="#63b8ff" stroke="#63b8ff" points="715.22,-129.17 709.23,-135.57 711.53,-130.71 707.84,-132.25 707.84,-132.25 707.84,-132.25 711.53,-130.71 706.45,-128.93 715.22,-129.17 715.22,-129.17"/>
</a>
</g>
</g>
<!-- Node16&#45;&gt;Node3 -->
<g id="edge22_Node000016_Node000003" class="edge">
<title>Node16&#45;&gt;Node3</title>
<g id="a_edge22_Node000016_Node000003"><a xlink:title=" ">
<path fill="none" stroke="#63b8ff" d="M52.44,-164.79C41.99,-151.64 25.81,-126.51 39,-110 56.4,-88.23 128.18,-76.33 180.07,-70.45"/>
<polygon fill="#63b8ff" stroke="#63b8ff" points="188.22,-69.55 180.66,-74 184.24,-69.99 180.27,-70.43 180.27,-70.43 180.27,-70.43 184.24,-69.99 179.88,-66.85 188.22,-69.55 188.22,-69.55"/>
</a>
</g>
</g>
<!-- Node16&#45;&gt;Node6 -->
<g id="edge23_Node000016_Node000006" class="edge">
<title>Node16&#45;&gt;Node6</title>
<g id="a_edge23_Node000016_Node000006"><a xlink:title=" ">
<path fill="none" stroke="#63b8ff" d="M58.74,-164.61C57.33,-150.75 56.94,-124.12 72,-110 92.84,-90.47 264.12,-76.36 363.43,-69.74"/>
<polygon fill="#63b8ff" stroke="#63b8ff" points="371.63,-69.2 363.89,-73.32 367.64,-69.46 363.65,-69.72 363.65,-69.72 363.65,-69.72 367.64,-69.46 363.41,-66.13 371.63,-69.2 371.63,-69.2"/>
</a>
</g>
</g>
<!-- Node16&#45;&gt;Node10 -->
<g id="edge24_Node000016_Node000010" class="edge">
<title>Node16&#45;&gt;Node10</title>
<g id="a_edge24_Node000016_Node000010"><a xlink:title=" ">
<path fill="none" stroke="#63b8ff" d="M68.09,-164.75C75.51,-156.72 86.65,-144.67 95.43,-135.18"/>
<polygon fill="#63b8ff" stroke="#63b8ff" points="101.06,-129.09 98.27,-137.41 98.34,-132.03 95.63,-134.96 95.63,-134.96 95.63,-134.96 98.34,-132.03 92.98,-132.52 101.06,-129.09 101.06,-129.09"/>
</a>
</g>
</g>
</g>
</svg>
