<?xml version="1.0" encoding="UTF-8" standalone="no"?>
<!DOCTYPE svg PUBLIC "-//W3C//DTD SVG 1.1//EN"
 "http://www.w3.org/Graphics/SVG/1.1/DTD/svg11.dtd">
<!-- Generated by graphviz version 2.43.0 (0)
 -->
<!-- Title: abstractpokitservice_p.h Pages: 1 -->
<svg width="1104pt" height="137pt"
 viewBox="0.00 0.00 1103.50 137.00" xmlns="http://www.w3.org/2000/svg" xmlns:xlink="http://www.w3.org/1999/xlink">
<g id="graph0" class="graph" transform="scale(1 1) rotate(0) translate(4 133)">
<title>abstractpokitservice_p.h</title>
<!-- Node1 -->
<g id="node1" class="node">
<title>Node1</title>
<g id="a_node1"><a xlink:title="Declares the AbstractPokitServicePrivate class.">
<polygon fill="#999999" stroke="#666666" points="633,-129 496,-129 496,-110 633,-110 633,-129"/>
<text text-anchor="middle" x="564.5" y="-117" font-family="Helvetica,sans-Serif" font-size="10.00">abstractpokitservice_p.h</text>
</a>
</g>
</g>
<!-- Node2 -->
<g id="node2" class="node">
<title>Node2</title>
<g id="a_node2"><a xlink:href="abstractpokitservice_8cpp.html" target="_top" xlink:title="Defines the AbstractPokitService and AbstractPokitServicePrivate classes.">
<polygon fill="white" stroke="#666666" points="137,-74 0,-74 0,-55 137,-55 137,-74"/>
<text text-anchor="middle" x="68.5" y="-62" font-family="Helvetica,sans-Serif" font-size="10.00">abstractpokitservice.cpp</text>
</a>
</g>
</g>
<!-- Node1&#45;&gt;Node2 -->
<g id="edge1" class="edge">
<title>Node1&#45;&gt;Node2</title>
<path fill="none" stroke="#63b8ff" d="M485.73,-110.17C401.69,-101.28 264.68,-86.73 146.5,-74 143.52,-73.68 140.48,-73.35 137.4,-73.02"/>
<polygon fill="#63b8ff" stroke="#63b8ff" points="485.39,-113.66 495.71,-111.23 486.13,-106.7 485.39,-113.66"/>
</g>
<!-- Node3 -->
<g id="node3" class="node">
<title>Node3</title>
<g id="a_node3"><a xlink:href="calibrationservice__p_8h.html" target="_top" xlink:title="Declares the CalibrationServicePrivate class.">
<polygon fill="white" stroke="#666666" points="279.5,-74 155.5,-74 155.5,-55 279.5,-55 279.5,-74"/>
<text text-anchor="middle" x="217.5" y="-62" font-family="Helvetica,sans-Serif" font-size="10.00">calibrationservice_p.h</text>
</a>
</g>
</g>
<!-- Node1&#45;&gt;Node3 -->
<g id="edge2" class="edge">
<title>Node1&#45;&gt;Node3</title>
<path fill="none" stroke="#63b8ff" d="M498.59,-108.43C433.43,-98.48 334.84,-83.42 273.4,-74.04"/>
<polygon fill="#63b8ff" stroke="#63b8ff" points="498.33,-111.93 508.75,-109.98 499.39,-105.01 498.33,-111.93"/>
</g>
<!-- Node5 -->
<g id="node5" class="node">
<title>Node5</title>
<g id="a_node5"><a xlink:href="dataloggerservice__p_8h.html" target="_top" xlink:title="Declares the DataLoggerServicePrivate class.">
<polygon fill="white" stroke="#666666" points="423,-74 298,-74 298,-55 423,-55 423,-74"/>
<text text-anchor="middle" x="360.5" y="-62" font-family="Helvetica,sans-Serif" font-size="10.00">dataloggerservice_p.h</text>
</a>
</g>
</g>
<!-- Node1&#45;&gt;Node5 -->
<g id="edge4" class="edge">
<title>Node1&#45;&gt;Node5</title>
<path fill="none" stroke="#63b8ff" d="M521.92,-107.44C483.73,-97.52 428.48,-83.16 393.53,-74.08"/>
<polygon fill="#63b8ff" stroke="#63b8ff" points="521.17,-110.86 531.72,-109.98 522.93,-104.08 521.17,-110.86"/>
</g>
<!-- Node7 -->
<g id="node7" class="node">
<title>Node7</title>
<g id="a_node7"><a xlink:href="deviceinfoservice__p_8h.html" target="_top" xlink:title="Declares the DeviceInfoServicePrivate class.">
<polygon fill="white" stroke="#666666" points="564,-74 441,-74 441,-55 564,-55 564,-74"/>
<text text-anchor="middle" x="502.5" y="-62" font-family="Helvetica,sans-Serif" font-size="10.00">deviceinfoservice_p.h</text>
</a>
</g>
</g>
<!-- Node1&#45;&gt;Node7 -->
<g id="edge6" class="edge">
<title>Node1&#45;&gt;Node7</title>
<path fill="none" stroke="#63b8ff" d="M546.75,-103.32C535.69,-93.87 521.87,-82.06 512.64,-74.17"/>
<polygon fill="#63b8ff" stroke="#63b8ff" points="544.66,-106.15 554.54,-109.98 549.21,-100.83 544.66,-106.15"/>
</g>
<!-- Node9 -->
<g id="node9" class="node">
<title>Node9</title>
<g id="a_node9"><a xlink:href="dsoservice__p_8h.html" target="_top" xlink:title="Declares the DsoServicePrivate class.">
<polygon fill="white" stroke="#666666" points="671,-74 582,-74 582,-55 671,-55 671,-74"/>
<text text-anchor="middle" x="626.5" y="-62" font-family="Helvetica,sans-Serif" font-size="10.00">dsoservice_p.h</text>
</a>
</g>
</g>
<!-- Node1&#45;&gt;Node9 -->
<g id="edge8" class="edge">
<title>Node1&#45;&gt;Node9</title>
<path fill="none" stroke="#63b8ff" d="M582.25,-103.32C593.31,-93.87 607.13,-82.06 616.36,-74.17"/>
<polygon fill="#63b8ff" stroke="#63b8ff" points="579.79,-100.83 574.46,-109.98 584.34,-106.15 579.79,-100.83"/>
</g>
<!-- Node11 -->
<g id="node11" class="node">
<title>Node11</title>
<g id="a_node11"><a xlink:href="genericaccessservice__p_8h.html" target="_top" xlink:title="Declares the GenericAccessServicePrivate class.">
<polygon fill="white" stroke="#666666" points="830,-74 689,-74 689,-55 830,-55 830,-74"/>
<text text-anchor="middle" x="759.5" y="-62" font-family="Helvetica,sans-Serif" font-size="10.00">genericaccessservice_p.h</text>
</a>
</g>
</g>
<!-- Node1&#45;&gt;Node11 -->
<g id="edge10" class="edge">
<title>Node1&#45;&gt;Node11</title>
<path fill="none" stroke="#63b8ff" d="M605.67,-107.31C642.16,-97.39 694.67,-83.12 727.92,-74.08"/>
<polygon fill="#63b8ff" stroke="#63b8ff" points="604.56,-103.98 595.83,-109.98 606.4,-110.74 604.56,-103.98"/>
</g>
<!-- Node13 -->
<g id="node13" class="node">
<title>Node13</title>
<g id="a_node13"><a xlink:href="multimeterservice__p_8h.html" target="_top" xlink:title="Declares the MultimeterServicePrivate class.">
<polygon fill="white" stroke="#666666" points="975,-74 848,-74 848,-55 975,-55 975,-74"/>
<text text-anchor="middle" x="911.5" y="-62" font-family="Helvetica,sans-Serif" font-size="10.00">multimeterservice_p.h</text>
</a>
</g>
</g>
<!-- Node1&#45;&gt;Node13 -->
<g id="edge12" class="edge">
<title>Node1&#45;&gt;Node13</title>
<path fill="none" stroke="#63b8ff" d="M630.41,-108.43C695.57,-98.48 794.16,-83.42 855.6,-74.04"/>
<polygon fill="#63b8ff" stroke="#63b8ff" points="629.61,-105.01 620.25,-109.98 630.67,-111.93 629.61,-105.01"/>
</g>
<!-- Node15 -->
<g id="node15" class="node">
<title>Node15</title>
<g id="a_node15"><a xlink:href="statusservice__p_8h.html" target="_top" xlink:title="Declares the StatusServicePrivate class.">
<polygon fill="white" stroke="#666666" points="1095.5,-74 993.5,-74 993.5,-55 1095.5,-55 1095.5,-74"/>
<text text-anchor="middle" x="1044.5" y="-62" font-family="Helvetica,sans-Serif" font-size="10.00">statusservice_p.h</text>
</a>
</g>
</g>
<!-- Node1&#45;&gt;Node15 -->
<g id="edge14" class="edge">
<title>Node1&#45;&gt;Node15</title>
<path fill="none" stroke="#63b8ff" d="M643.37,-110.98C727.85,-102.73 865.8,-88.69 984.5,-74 987.42,-73.64 990.43,-73.25 993.45,-72.86"/>
<polygon fill="#63b8ff" stroke="#63b8ff" points="642.95,-107.5 633.33,-111.96 643.63,-114.47 642.95,-107.5"/>
</g>
<!-- Node4 -->
<g id="node4" class="node">
<title>Node4</title>
<g id="a_node4"><a xlink:href="calibrationservice_8cpp.html" target="_top" xlink:title="Defines the CalibrationService and CalibrationServicePrivate classes.">
<polygon fill="white" stroke="#666666" points="279.5,-19 155.5,-19 155.5,0 279.5,0 279.5,-19"/>
<text text-anchor="middle" x="217.5" y="-7" font-family="Helvetica,sans-Serif" font-size="10.00">calibrationservice.cpp</text>
</a>
</g>
</g>
<!-- Node3&#45;&gt;Node4 -->
<g id="edge3" class="edge">
<title>Node3&#45;&gt;Node4</title>
<path fill="none" stroke="#63b8ff" d="M217.5,-44.66C217.5,-35.93 217.5,-25.99 217.5,-19.09"/>
<polygon fill="#63b8ff" stroke="#63b8ff" points="214,-44.75 217.5,-54.75 221,-44.75 214,-44.75"/>
</g>
<!-- Node6 -->
<g id="node6" class="node">
<title>Node6</title>
<g id="a_node6"><a xlink:href="dataloggerservice_8cpp.html" target="_top" xlink:title="Defines the DataLoggerService and DataLoggerServicePrivate classes.">
<polygon fill="white" stroke="#666666" points="423,-19 298,-19 298,0 423,0 423,-19"/>
<text text-anchor="middle" x="360.5" y="-7" font-family="Helvetica,sans-Serif" font-size="10.00">dataloggerservice.cpp</text>
</a>
</g>
</g>
<!-- Node5&#45;&gt;Node6 -->
<g id="edge5" class="edge">
<title>Node5&#45;&gt;Node6</title>
<path fill="none" stroke="#63b8ff" d="M360.5,-44.66C360.5,-35.93 360.5,-25.99 360.5,-19.09"/>
<polygon fill="#63b8ff" stroke="#63b8ff" points="357,-44.75 360.5,-54.75 364,-44.75 357,-44.75"/>
</g>
<!-- Node8 -->
<g id="node8" class="node">
<title>Node8</title>
<g id="a_node8"><a xlink:href="deviceinfoservice_8cpp.html" target="_top" xlink:title="Defines the DeviceInfoService and DeviceInfoServicePrivate classes.">
<polygon fill="white" stroke="#666666" points="564,-19 441,-19 441,0 564,0 564,-19"/>
<text text-anchor="middle" x="502.5" y="-7" font-family="Helvetica,sans-Serif" font-size="10.00">deviceinfoservice.cpp</text>
</a>
</g>
</g>
<!-- Node7&#45;&gt;Node8 -->
<g id="edge7" class="edge">
<title>Node7&#45;&gt;Node8</title>
<path fill="none" stroke="#63b8ff" d="M502.5,-44.66C502.5,-35.93 502.5,-25.99 502.5,-19.09"/>
<polygon fill="#63b8ff" stroke="#63b8ff" points="499,-44.75 502.5,-54.75 506,-44.75 499,-44.75"/>
</g>
<!-- Node10 -->
<g id="node10" class="node">
<title>Node10</title>
<g id="a_node10"><a xlink:href="dsoservice_8cpp.html" target="_top" xlink:title="Defines the DsoService and DsoServicePrivate classes.">
<polygon fill="white" stroke="#666666" points="671,-19 582,-19 582,0 671,0 671,-19"/>
<text text-anchor="middle" x="626.5" y="-7" font-family="Helvetica,sans-Serif" font-size="10.00">dsoservice.cpp</text>
</a>
</g>
</g>
<!-- Node9&#45;&gt;Node10 -->
<g id="edge9" class="edge">
<title>Node9&#45;&gt;Node10</title>
<path fill="none" stroke="#63b8ff" d="M626.5,-44.66C626.5,-35.93 626.5,-25.99 626.5,-19.09"/>
<polygon fill="#63b8ff" stroke="#63b8ff" points="623,-44.75 626.5,-54.75 630,-44.75 623,-44.75"/>
</g>
<!-- Node12 -->
<g id="node12" class="node">
<title>Node12</title>
<g id="a_node12"><a xlink:href="genericaccessservice_8cpp.html" target="_top" xlink:title="Defines the GenericAccessService and GenericAccessServicePrivate classes.">
<polygon fill="white" stroke="#666666" points="830,-19 689,-19 689,0 830,0 830,-19"/>
<text text-anchor="middle" x="759.5" y="-7" font-family="Helvetica,sans-Serif" font-size="10.00">genericaccessservice.cpp</text>
</a>
</g>
</g>
<!-- Node11&#45;&gt;Node12 -->
<g id="edge11" class="edge">
<title>Node11&#45;&gt;Node12</title>
<path fill="none" stroke="#63b8ff" d="M759.5,-44.66C759.5,-35.93 759.5,-25.99 759.5,-19.09"/>
<polygon fill="#63b8ff" stroke="#63b8ff" points="756,-44.75 759.5,-54.75 763,-44.75 756,-44.75"/>
</g>
<!-- Node14 -->
<g id="node14" class="node">
<title>Node14</title>
<g id="a_node14"><a xlink:href="multimeterservice_8cpp.html" target="_top" xlink:title="Defines the MultimeterService and MultimeterServicePrivate classes.">
<polygon fill="white" stroke="#666666" points="975,-19 848,-19 848,0 975,0 975,-19"/>
<text text-anchor="middle" x="911.5" y="-7" font-family="Helvetica,sans-Serif" font-size="10.00">multimeterservice.cpp</text>
</a>
</g>
</g>
<!-- Node13&#45;&gt;Node14 -->
<g id="edge13" class="edge">
<title>Node13&#45;&gt;Node14</title>
<path fill="none" stroke="#63b8ff" d="M911.5,-44.66C911.5,-35.93 911.5,-25.99 911.5,-19.09"/>
<polygon fill="#63b8ff" stroke="#63b8ff" points="908,-44.75 911.5,-54.75 915,-44.75 908,-44.75"/>
</g>
<!-- Node16 -->
<g id="node16" class="node">
<title>Node16</title>
<g id="a_node16"><a xlink:href="statusservice_8cpp.html" target="_top" xlink:title="Defines the StatusService and StatusServicePrivate classes.">
<polygon fill="white" stroke="#666666" points="1095.5,-19 993.5,-19 993.5,0 1095.5,0 1095.5,-19"/>
<text text-anchor="middle" x="1044.5" y="-7" font-family="Helvetica,sans-Serif" font-size="10.00">statusservice.cpp</text>
</a>
</g>
</g>
<!-- Node15&#45;&gt;Node16 -->
<g id="edge15" class="edge">
<title>Node15&#45;&gt;Node16</title>
<path fill="none" stroke="#63b8ff" d="M1044.5,-44.66C1044.5,-35.93 1044.5,-25.99 1044.5,-19.09"/>
<polygon fill="#63b8ff" stroke="#63b8ff" points="1041,-44.75 1044.5,-54.75 1048,-44.75 1041,-44.75"/>
</g>
</g>
</svg>
