<?xml version="1.0" encoding="UTF-8" standalone="no"?>
<!DOCTYPE svg PUBLIC "-//W3C//DTD SVG 1.1//EN"
 "http://www.w3.org/Graphics/SVG/1.1/DTD/svg11.dtd">
<!-- Generated by graphviz version 2.43.0 (0)
 -->
<!-- Title: abstractpokitservice.cpp Pages: 1 -->
<svg width="560pt" height="196pt"
 viewBox="0.00 0.00 560.00 196.00" xmlns="http://www.w3.org/2000/svg" xmlns:xlink="http://www.w3.org/1999/xlink">
<g id="graph0" class="graph" transform="scale(1 1) rotate(0) translate(4 192)">
<title>abstractpokitservice.cpp</title>
<!-- Node1 -->
<g id="node1" class="node">
<title>Node1</title>
<g id="a_node1"><a xlink:title="Defines the AbstractPokitService and AbstractPokitServicePrivate classes.">
<polygon fill="#bfbfbf" stroke="black" points="242,-168.5 242,-187.5 379,-187.5 379,-168.5 242,-168.5"/>
<text text-anchor="middle" x="310.5" y="-175.5" font-family="Helvetica,sans-Serif" font-size="10.00">abstractpokitservice.cpp</text>
</a>
</g>
</g>
<!-- Node2 -->
<g id="node2" class="node">
<title>Node2</title>
<g id="a_node2"><a xlink:href="abstractpokitservice_8h.html" target="_top" xlink:title="Declares the AbstractPokitService class.">
<polygon fill="none" stroke="black" points="0,-112.5 0,-131.5 163,-131.5 163,-112.5 0,-112.5"/>
<text text-anchor="middle" x="81.5" y="-119.5" font-family="Helvetica,sans-Serif" font-size="10.00">qtpokit/abstractpokitservice.h</text>
</a>
</g>
</g>
<!-- Node1&#45;&gt;Node2 -->
<g id="edge1" class="edge">
<title>Node1&#45;&gt;Node2</title>
<path fill="none" stroke="midnightblue" d="M274.21,-168.44C234.52,-159.08 170.79,-144.06 127.59,-133.87"/>
<polygon fill="midnightblue" stroke="midnightblue" points="128.15,-130.41 117.62,-131.52 126.55,-137.22 128.15,-130.41"/>
</g>
<!-- Node7 -->
<g id="node7" class="node">
<title>Node7</title>
<g id="a_node7"><a xlink:href="abstractpokitservice__p_8h.html" target="_top" xlink:title="Declares the AbstractPokitServicePrivate class.">
<polygon fill="none" stroke="black" points="181,-112.5 181,-131.5 318,-131.5 318,-112.5 181,-112.5"/>
<text text-anchor="middle" x="249.5" y="-119.5" font-family="Helvetica,sans-Serif" font-size="10.00">abstractpokitservice_p.h</text>
</a>
</g>
</g>
<!-- Node1&#45;&gt;Node7 -->
<g id="edge6" class="edge">
<title>Node1&#45;&gt;Node7</title>
<path fill="none" stroke="midnightblue" d="M300.7,-168.32C291.68,-160.34 278.09,-148.31 267.18,-138.65"/>
<polygon fill="midnightblue" stroke="midnightblue" points="269.29,-135.84 259.48,-131.83 264.65,-141.08 269.29,-135.84"/>
</g>
<!-- Node8 -->
<g id="node8" class="node">
<title>Node8</title>
<g id="a_node8"><a xlink:href="logging__p_8h.html" target="_top" xlink:title="QtPokit logging categories.">
<polygon fill="none" stroke="black" points="336,-112.5 336,-131.5 409,-131.5 409,-112.5 336,-112.5"/>
<text text-anchor="middle" x="372.5" y="-119.5" font-family="Helvetica,sans-Serif" font-size="10.00">logging_p.h</text>
</a>
</g>
</g>
<!-- Node1&#45;&gt;Node8 -->
<g id="edge10" class="edge">
<title>Node1&#45;&gt;Node8</title>
<path fill="none" stroke="midnightblue" d="M320.46,-168.32C329.63,-160.34 343.44,-148.31 354.53,-138.65"/>
<polygon fill="midnightblue" stroke="midnightblue" points="357.12,-141.04 362.36,-131.83 352.52,-135.76 357.12,-141.04"/>
</g>
<!-- Node10 -->
<g id="node10" class="node">
<title>Node10</title>
<g id="a_node10"><a xlink:title=" ">
<polygon fill="none" stroke="#bfbfbf" points="427,-112.5 427,-131.5 552,-131.5 552,-112.5 427,-112.5"/>
<text text-anchor="middle" x="489.5" y="-119.5" font-family="Helvetica,sans-Serif" font-size="10.00">QLowEnergyController</text>
</a>
</g>
</g>
<!-- Node1&#45;&gt;Node10 -->
<g id="edge13" class="edge">
<title>Node1&#45;&gt;Node10</title>
<path fill="none" stroke="midnightblue" d="M338.86,-168.44C369.24,-159.28 417.61,-144.69 451.32,-134.52"/>
<polygon fill="midnightblue" stroke="midnightblue" points="452.71,-137.76 461.27,-131.52 450.68,-131.05 452.71,-137.76"/>
</g>
<!-- Node3 -->
<g id="node3" class="node">
<title>Node3</title>
<g id="a_node3"><a xlink:href="qtpokit__global_8h.html" target="_top" xlink:title="Global QtPokit library macros.">
<polygon fill="none" stroke="black" points="219,-56.5 219,-75.5 314,-75.5 314,-56.5 219,-56.5"/>
<text text-anchor="middle" x="266.5" y="-63.5" font-family="Helvetica,sans-Serif" font-size="10.00">qtpokit_global.h</text>
</a>
</g>
</g>
<!-- Node2&#45;&gt;Node3 -->
<g id="edge2" class="edge">
<title>Node2&#45;&gt;Node3</title>
<path fill="none" stroke="midnightblue" d="M110.81,-112.44C142.34,-103.24 192.63,-88.56 227.49,-78.39"/>
<polygon fill="midnightblue" stroke="midnightblue" points="228.7,-81.68 237.32,-75.52 226.74,-74.96 228.7,-81.68"/>
</g>
<!-- Node5 -->
<g id="node5" class="node">
<title>Node5</title>
<g id="a_node5"><a xlink:title=" ">
<polygon fill="none" stroke="#bfbfbf" points="13,-56.5 13,-75.5 126,-75.5 126,-56.5 13,-56.5"/>
<text text-anchor="middle" x="69.5" y="-63.5" font-family="Helvetica,sans-Serif" font-size="10.00">QLowEnergyService</text>
</a>
</g>
</g>
<!-- Node2&#45;&gt;Node5 -->
<g id="edge4" class="edge">
<title>Node2&#45;&gt;Node5</title>
<path fill="none" stroke="midnightblue" d="M79.52,-112.08C77.93,-104.93 75.64,-94.64 73.65,-85.69"/>
<polygon fill="midnightblue" stroke="midnightblue" points="77.03,-84.75 71.44,-75.75 70.2,-86.27 77.03,-84.75"/>
</g>
<!-- Node6 -->
<g id="node6" class="node">
<title>Node6</title>
<g id="a_node6"><a xlink:title=" ">
<polygon fill="none" stroke="#bfbfbf" points="144.5,-56.5 144.5,-75.5 200.5,-75.5 200.5,-56.5 144.5,-56.5"/>
<text text-anchor="middle" x="172.5" y="-63.5" font-family="Helvetica,sans-Serif" font-size="10.00">QObject</text>
</a>
</g>
</g>
<!-- Node2&#45;&gt;Node6 -->
<g id="edge5" class="edge">
<title>Node2&#45;&gt;Node6</title>
<path fill="none" stroke="midnightblue" d="M96.12,-112.32C110.45,-103.82 132.51,-90.73 149.25,-80.8"/>
<polygon fill="midnightblue" stroke="midnightblue" points="151.1,-83.77 157.92,-75.65 147.53,-77.75 151.1,-83.77"/>
</g>
<!-- Node4 -->
<g id="node4" class="node">
<title>Node4</title>
<g id="a_node4"><a xlink:title=" ">
<polygon fill="none" stroke="#bfbfbf" points="237,-0.5 237,-19.5 296,-19.5 296,-0.5 237,-0.5"/>
<text text-anchor="middle" x="266.5" y="-7.5" font-family="Helvetica,sans-Serif" font-size="10.00">QtGlobal</text>
</a>
</g>
</g>
<!-- Node3&#45;&gt;Node4 -->
<g id="edge3" class="edge">
<title>Node3&#45;&gt;Node4</title>
<path fill="none" stroke="midnightblue" d="M266.5,-56.08C266.5,-49.01 266.5,-38.86 266.5,-29.99"/>
<polygon fill="midnightblue" stroke="midnightblue" points="270,-29.75 266.5,-19.75 263,-29.75 270,-29.75"/>
</g>
<!-- Node7&#45;&gt;Node3 -->
<g id="edge7" class="edge">
<title>Node7&#45;&gt;Node3</title>
<path fill="none" stroke="midnightblue" d="M252.31,-112.08C254.58,-104.85 257.87,-94.41 260.71,-85.4"/>
<polygon fill="midnightblue" stroke="midnightblue" points="264.08,-86.34 263.75,-75.75 257.4,-84.24 264.08,-86.34"/>
</g>
<!-- Node7&#45;&gt;Node5 -->
<g id="edge8" class="edge">
<title>Node7&#45;&gt;Node5</title>
<path fill="none" stroke="midnightblue" d="M220.98,-112.44C190.43,-103.28 141.79,-88.69 107.9,-78.52"/>
<polygon fill="midnightblue" stroke="midnightblue" points="108.47,-75.04 97.89,-75.52 106.46,-81.74 108.47,-75.04"/>
</g>
<!-- Node7&#45;&gt;Node6 -->
<g id="edge9" class="edge">
<title>Node7&#45;&gt;Node6</title>
<path fill="none" stroke="midnightblue" d="M237.13,-112.32C225.34,-104.06 207.37,-91.45 193.36,-81.63"/>
<polygon fill="midnightblue" stroke="midnightblue" points="195.04,-78.53 184.84,-75.65 191.02,-84.26 195.04,-78.53"/>
</g>
<!-- Node8&#45;&gt;Node3 -->
<g id="edge11" class="edge">
<title>Node8&#45;&gt;Node3</title>
<path fill="none" stroke="midnightblue" d="M355.47,-112.32C338.47,-103.66 312.12,-90.24 292.51,-80.25"/>
<polygon fill="midnightblue" stroke="midnightblue" points="293.99,-77.08 283.49,-75.65 290.81,-83.31 293.99,-77.08"/>
</g>
<!-- Node9 -->
<g id="node9" class="node">
<title>Node9</title>
<g id="a_node9"><a xlink:title=" ">
<polygon fill="none" stroke="#bfbfbf" points="332,-56.5 332,-75.5 439,-75.5 439,-56.5 332,-56.5"/>
<text text-anchor="middle" x="385.5" y="-63.5" font-family="Helvetica,sans-Serif" font-size="10.00">QLoggingCategory</text>
</a>
</g>
</g>
<!-- Node8&#45;&gt;Node9 -->
<g id="edge12" class="edge">
<title>Node8&#45;&gt;Node9</title>
<path fill="none" stroke="midnightblue" d="M374.65,-112.08C376.37,-104.93 378.85,-94.64 381,-85.69"/>
<polygon fill="midnightblue" stroke="midnightblue" points="384.46,-86.29 383.39,-75.75 377.65,-84.65 384.46,-86.29"/>
</g>
</g>
</svg>
