<?xml version="1.0" encoding="UTF-8" standalone="no"?>
<!DOCTYPE svg PUBLIC "-//W3C//DTD SVG 1.1//EN"
 "http://www.w3.org/Graphics/SVG/1.1/DTD/svg11.dtd">
<!-- Generated by graphviz version 2.43.0 (0)
 -->
<!-- Title: abstractpokitservice.h Pages: 1 -->
<svg width="1690pt" height="196pt"
 viewBox="0.00 0.00 1690.00 196.00" xmlns="http://www.w3.org/2000/svg" xmlns:xlink="http://www.w3.org/1999/xlink">
<g id="graph0" class="graph" transform="scale(1 1) rotate(0) translate(4 192)">
<title>abstractpokitservice.h</title>
<!-- Node1 -->
<g id="node1" class="node">
<title>Node1</title>
<g id="a_node1"><a xlink:title="Declares the AbstractPokitService class.">
<polygon fill="#bfbfbf" stroke="black" points="444.5,-168.5 444.5,-187.5 569.5,-187.5 569.5,-168.5 444.5,-168.5"/>
<text text-anchor="middle" x="507" y="-175.5" font-family="Helvetica,sans-Serif" font-size="10.00">abstractpokitservice.h</text>
</a>
</g>
</g>
<!-- Node2 -->
<g id="node2" class="node">
<title>Node2</title>
<g id="a_node2"><a xlink:href="abstractpokitservice_8cpp.html" target="_top" xlink:title="Defines the AbstractPokitService and AbstractPokitServicePrivate classes.">
<polygon fill="none" stroke="black" points="140.5,-112.5 140.5,-131.5 277.5,-131.5 277.5,-112.5 140.5,-112.5"/>
<text text-anchor="middle" x="209" y="-119.5" font-family="Helvetica,sans-Serif" font-size="10.00">abstractpokitservice.cpp</text>
</a>
</g>
</g>
<!-- Node1&#45;&gt;Node2 -->
<g id="edge1" class="edge">
<title>Node1&#45;&gt;Node2</title>
<path fill="none" stroke="midnightblue" d="M449.61,-166.6C393.29,-156.4 308.44,-141.02 256,-131.52"/>
<polygon fill="midnightblue" stroke="midnightblue" points="449.32,-170.1 459.78,-168.44 450.57,-163.22 449.32,-170.1"/>
</g>
<!-- Node3 -->
<g id="node3" class="node">
<title>Node3</title>
<g id="a_node3"><a xlink:href="calibrationservice_8h.html" target="_top" xlink:title="Declares the CalibrationService class.">
<polygon fill="none" stroke="black" points="295.5,-112.5 295.5,-131.5 408.5,-131.5 408.5,-112.5 295.5,-112.5"/>
<text text-anchor="middle" x="352" y="-119.5" font-family="Helvetica,sans-Serif" font-size="10.00">calibrationservice.h</text>
</a>
</g>
</g>
<!-- Node1&#45;&gt;Node3 -->
<g id="edge2" class="edge">
<title>Node1&#45;&gt;Node3</title>
<path fill="none" stroke="midnightblue" d="M472.67,-165.04C443.5,-154.88 402.36,-140.55 376.45,-131.52"/>
<polygon fill="midnightblue" stroke="midnightblue" points="471.84,-168.46 482.44,-168.44 474.15,-161.85 471.84,-168.46"/>
</g>
<!-- Node8 -->
<g id="node8" class="node">
<title>Node8</title>
<g id="a_node8"><a xlink:href="deviceinfoservice_8h.html" target="_top" xlink:title="Declares the DeviceInfoService class.">
<polygon fill="none" stroke="black" points="451,-112.5 451,-131.5 563,-131.5 563,-112.5 451,-112.5"/>
<text text-anchor="middle" x="507" y="-119.5" font-family="Helvetica,sans-Serif" font-size="10.00">deviceinfoservice.h</text>
</a>
</g>
</g>
<!-- Node1&#45;&gt;Node8 -->
<g id="edge8" class="edge">
<title>Node1&#45;&gt;Node8</title>
<path fill="none" stroke="midnightblue" d="M507,-157.8C507,-148.91 507,-138.78 507,-131.75"/>
<polygon fill="midnightblue" stroke="midnightblue" points="503.5,-158.08 507,-168.08 510.5,-158.08 503.5,-158.08"/>
</g>
<!-- Node12 -->
<g id="node12" class="node">
<title>Node12</title>
<g id="a_node12"><a xlink:href="genericaccessservice_8h.html" target="_top" xlink:title="Declares the GenericAccessService class.">
<polygon fill="none" stroke="black" points="647,-112.5 647,-131.5 777,-131.5 777,-112.5 647,-112.5"/>
<text text-anchor="middle" x="712" y="-119.5" font-family="Helvetica,sans-Serif" font-size="10.00">genericaccessservice.h</text>
</a>
</g>
</g>
<!-- Node1&#45;&gt;Node12 -->
<g id="edge14" class="edge">
<title>Node1&#45;&gt;Node12</title>
<path fill="none" stroke="midnightblue" d="M549.41,-165.83C588.11,-155.63 644.49,-140.78 679.67,-131.52"/>
<polygon fill="midnightblue" stroke="midnightblue" points="548.26,-162.51 539.48,-168.44 550.04,-169.28 548.26,-162.51"/>
</g>
<!-- Node15 -->
<g id="node15" class="node">
<title>Node15</title>
<g id="a_node15"><a xlink:href="statusservice_8h.html" target="_top" xlink:title="Declares the StatusService class.">
<polygon fill="none" stroke="black" points="1116.5,-112.5 1116.5,-131.5 1207.5,-131.5 1207.5,-112.5 1116.5,-112.5"/>
<text text-anchor="middle" x="1162" y="-119.5" font-family="Helvetica,sans-Serif" font-size="10.00">statusservice.h</text>
</a>
</g>
</g>
<!-- Node1&#45;&gt;Node15 -->
<g id="edge19" class="edge">
<title>Node1&#45;&gt;Node15</title>
<path fill="none" stroke="midnightblue" d="M579.82,-171C715.78,-159.79 1004.59,-135.98 1116.43,-126.76"/>
<polygon fill="midnightblue" stroke="midnightblue" points="579.19,-167.54 569.51,-171.85 579.76,-174.51 579.19,-167.54"/>
</g>
<!-- Node4 -->
<g id="node4" class="node">
<title>Node4</title>
<g id="a_node4"><a xlink:href="calibratecommand_8cpp_source.html" target="_top" xlink:title=" ">
<polygon fill="none" stroke="black" points="0,-56.5 0,-75.5 128,-75.5 128,-56.5 0,-56.5"/>
<text text-anchor="middle" x="64" y="-63.5" font-family="Helvetica,sans-Serif" font-size="10.00">calibratecommand.cpp</text>
</a>
</g>
</g>
<!-- Node3&#45;&gt;Node4 -->
<g id="edge3" class="edge">
<title>Node3&#45;&gt;Node4</title>
<path fill="none" stroke="midnightblue" d="M296.2,-110.54C241.77,-100.33 160,-85 109.42,-75.52"/>
<polygon fill="midnightblue" stroke="midnightblue" points="295.89,-114.04 306.37,-112.44 297.18,-107.16 295.89,-114.04"/>
</g>
<!-- Node5 -->
<g id="node5" class="node">
<title>Node5</title>
<g id="a_node5"><a xlink:href="calibrationservice_8cpp.html" target="_top" xlink:title="Defines the CalibrationService and CalibrationServicePrivate classes.">
<polygon fill="none" stroke="black" points="200,-0.5 200,-19.5 324,-19.5 324,-0.5 200,-0.5"/>
<text text-anchor="middle" x="262" y="-7.5" font-family="Helvetica,sans-Serif" font-size="10.00">calibrationservice.cpp</text>
</a>
</g>
</g>
<!-- Node3&#45;&gt;Node5 -->
<g id="edge4" class="edge">
<title>Node3&#45;&gt;Node5</title>
<path fill="none" stroke="midnightblue" d="M338.57,-104.59C319.17,-80.87 283.98,-37.87 269.03,-19.59"/>
<polygon fill="midnightblue" stroke="midnightblue" points="335.9,-106.85 344.94,-112.37 341.31,-102.41 335.9,-106.85"/>
</g>
<!-- Node6 -->
<g id="node6" class="node">
<title>Node6</title>
<g id="a_node6"><a xlink:href="calibrationservice__p_8h.html" target="_top" xlink:title="Declares the CalibrationServicePrivate class.">
<polygon fill="none" stroke="black" points="146,-56.5 146,-75.5 270,-75.5 270,-56.5 146,-56.5"/>
<text text-anchor="middle" x="208" y="-63.5" font-family="Helvetica,sans-Serif" font-size="10.00">calibrationservice_p.h</text>
</a>
</g>
</g>
<!-- Node3&#45;&gt;Node6 -->
<g id="edge5" class="edge">
<title>Node3&#45;&gt;Node6</title>
<path fill="none" stroke="midnightblue" d="M319.75,-108.91C292.68,-98.75 254.68,-84.51 230.71,-75.52"/>
<polygon fill="midnightblue" stroke="midnightblue" points="318.59,-112.21 329.18,-112.44 321.05,-105.66 318.59,-112.21"/>
</g>
<!-- Node7 -->
<g id="node7" class="node">
<title>Node7</title>
<g id="a_node7"><a xlink:href="pokitdevice_8cpp.html" target="_top" xlink:title="Defines the PokitDevice and PokitDevicePrivate classes.">
<polygon fill="none" stroke="black" points="628,-56.5 628,-75.5 722,-75.5 722,-56.5 628,-56.5"/>
<text text-anchor="middle" x="675" y="-63.5" font-family="Helvetica,sans-Serif" font-size="10.00">pokitdevice.cpp</text>
</a>
</g>
</g>
<!-- Node3&#45;&gt;Node7 -->
<g id="edge7" class="edge">
<title>Node3&#45;&gt;Node7</title>
<path fill="none" stroke="midnightblue" d="M413.29,-110.75C475.75,-100.31 571.27,-84.34 628,-74.86"/>
<polygon fill="midnightblue" stroke="midnightblue" points="412.47,-107.34 403.18,-112.44 413.62,-114.25 412.47,-107.34"/>
</g>
<!-- Node6&#45;&gt;Node5 -->
<g id="edge6" class="edge">
<title>Node6&#45;&gt;Node5</title>
<path fill="none" stroke="midnightblue" d="M224,-49C233.57,-39.43 245.36,-27.64 253.25,-19.75"/>
<polygon fill="midnightblue" stroke="midnightblue" points="221.51,-46.54 216.92,-56.08 226.46,-51.49 221.51,-46.54"/>
</g>
<!-- Node8&#45;&gt;Node7 -->
<g id="edge13" class="edge">
<title>Node8&#45;&gt;Node7</title>
<path fill="none" stroke="midnightblue" d="M543.39,-109.3C575.04,-99.13 620.17,-84.62 648.5,-75.52"/>
<polygon fill="midnightblue" stroke="midnightblue" points="542.07,-106.05 533.62,-112.44 544.21,-112.72 542.07,-106.05"/>
</g>
<!-- Node9 -->
<g id="node9" class="node">
<title>Node9</title>
<g id="a_node9"><a xlink:href="deviceinfoservice_8cpp.html" target="_top" xlink:title="Defines the DeviceInfoService and DeviceInfoServicePrivate classes.">
<polygon fill="none" stroke="black" points="361.5,-0.5 361.5,-19.5 484.5,-19.5 484.5,-0.5 361.5,-0.5"/>
<text text-anchor="middle" x="423" y="-7.5" font-family="Helvetica,sans-Serif" font-size="10.00">deviceinfoservice.cpp</text>
</a>
</g>
</g>
<!-- Node8&#45;&gt;Node9 -->
<g id="edge9" class="edge">
<title>Node8&#45;&gt;Node9</title>
<path fill="none" stroke="midnightblue" d="M494.3,-104.01C484.45,-90.86 470.43,-72.23 458,-56 448.25,-43.27 436.83,-28.63 429.75,-19.6"/>
<polygon fill="midnightblue" stroke="midnightblue" points="491.59,-106.23 500.38,-112.14 497.19,-102.03 491.59,-106.23"/>
</g>
<!-- Node10 -->
<g id="node10" class="node">
<title>Node10</title>
<g id="a_node10"><a xlink:href="deviceinfoservice__p_8h.html" target="_top" xlink:title="Declares the DeviceInfoServicePrivate class.">
<polygon fill="none" stroke="black" points="326.5,-56.5 326.5,-75.5 449.5,-75.5 449.5,-56.5 326.5,-56.5"/>
<text text-anchor="middle" x="388" y="-63.5" font-family="Helvetica,sans-Serif" font-size="10.00">deviceinfoservice_p.h</text>
</a>
</g>
</g>
<!-- Node8&#45;&gt;Node10 -->
<g id="edge10" class="edge">
<title>Node8&#45;&gt;Node10</title>
<path fill="none" stroke="midnightblue" d="M478.86,-108.23C456.6,-98.13 426.14,-84.31 406.77,-75.52"/>
<polygon fill="midnightblue" stroke="midnightblue" points="477.59,-111.5 488.14,-112.44 480.48,-105.12 477.59,-111.5"/>
</g>
<!-- Node11 -->
<g id="node11" class="node">
<title>Node11</title>
<g id="a_node11"><a xlink:href="infocommand_8cpp_source.html" target="_top" xlink:title=" ">
<polygon fill="none" stroke="black" points="506,-56.5 506,-75.5 610,-75.5 610,-56.5 506,-56.5"/>
<text text-anchor="middle" x="558" y="-63.5" font-family="Helvetica,sans-Serif" font-size="10.00">infocommand.cpp</text>
</a>
</g>
</g>
<!-- Node8&#45;&gt;Node11 -->
<g id="edge12" class="edge">
<title>Node8&#45;&gt;Node11</title>
<path fill="none" stroke="midnightblue" d="M522.38,-104.72C531.37,-95.2 542.36,-83.56 549.74,-75.75"/>
<polygon fill="midnightblue" stroke="midnightblue" points="519.74,-102.41 515.42,-112.08 524.83,-107.22 519.74,-102.41"/>
</g>
<!-- Node10&#45;&gt;Node9 -->
<g id="edge11" class="edge">
<title>Node10&#45;&gt;Node9</title>
<path fill="none" stroke="midnightblue" d="M399.3,-47.57C405.32,-38.27 412.47,-27.25 417.33,-19.75"/>
<polygon fill="midnightblue" stroke="midnightblue" points="396.28,-45.79 393.78,-56.08 402.16,-49.6 396.28,-45.79"/>
</g>
<!-- Node12&#45;&gt;Node7 -->
<g id="edge18" class="edge">
<title>Node12&#45;&gt;Node7</title>
<path fill="none" stroke="midnightblue" d="M700.05,-103.57C693.69,-94.27 686.13,-83.25 681,-75.75"/>
<polygon fill="midnightblue" stroke="midnightblue" points="697.35,-105.81 705.89,-112.08 703.13,-101.86 697.35,-105.81"/>
</g>
<!-- Node13 -->
<g id="node13" class="node">
<title>Node13</title>
<g id="a_node13"><a xlink:href="genericaccessservice_8cpp.html" target="_top" xlink:title="Defines the GenericAccessService and GenericAccessServicePrivate classes.">
<polygon fill="none" stroke="black" points="728.5,-0.5 728.5,-19.5 869.5,-19.5 869.5,-0.5 728.5,-0.5"/>
<text text-anchor="middle" x="799" y="-7.5" font-family="Helvetica,sans-Serif" font-size="10.00">genericaccessservice.cpp</text>
</a>
</g>
</g>
<!-- Node12&#45;&gt;Node13 -->
<g id="edge15" class="edge">
<title>Node12&#45;&gt;Node13</title>
<path fill="none" stroke="midnightblue" d="M725.23,-104.27C744.04,-80.49 777.81,-37.79 792.2,-19.59"/>
<polygon fill="midnightblue" stroke="midnightblue" points="722.28,-102.35 718.83,-112.37 727.78,-106.7 722.28,-102.35"/>
</g>
<!-- Node14 -->
<g id="node14" class="node">
<title>Node14</title>
<g id="a_node14"><a xlink:href="genericaccessservice__p_8h.html" target="_top" xlink:title="Declares the GenericAccessServicePrivate class.">
<polygon fill="none" stroke="black" points="778.5,-56.5 778.5,-75.5 919.5,-75.5 919.5,-56.5 778.5,-56.5"/>
<text text-anchor="middle" x="849" y="-63.5" font-family="Helvetica,sans-Serif" font-size="10.00">genericaccessservice_p.h</text>
</a>
</g>
</g>
<!-- Node12&#45;&gt;Node14 -->
<g id="edge16" class="edge">
<title>Node12&#45;&gt;Node14</title>
<path fill="none" stroke="midnightblue" d="M743.02,-108.77C768.76,-98.63 804.69,-84.47 827.39,-75.52"/>
<polygon fill="midnightblue" stroke="midnightblue" points="741.73,-105.52 733.71,-112.44 744.29,-112.03 741.73,-105.52"/>
</g>
<!-- Node14&#45;&gt;Node13 -->
<g id="edge17" class="edge">
<title>Node14&#45;&gt;Node13</title>
<path fill="none" stroke="midnightblue" d="M833.92,-48.72C825.11,-39.2 814.33,-27.56 807.1,-19.75"/>
<polygon fill="midnightblue" stroke="midnightblue" points="831.38,-51.12 840.74,-56.08 836.52,-46.37 831.38,-51.12"/>
</g>
<!-- Node15&#45;&gt;Node7 -->
<g id="edge21" class="edge">
<title>Node15&#45;&gt;Node7</title>
<path fill="none" stroke="midnightblue" d="M1106.01,-114.79C1009.23,-104.06 812.37,-82.23 722.12,-72.22"/>
<polygon fill="midnightblue" stroke="midnightblue" points="1105.86,-118.3 1116.18,-115.92 1106.63,-111.34 1105.86,-118.3"/>
</g>
<!-- Node16 -->
<g id="node16" class="node">
<title>Node16</title>
<g id="a_node16"><a xlink:href="flashledcommand_8cpp_source.html" target="_top" xlink:title=" ">
<polygon fill="none" stroke="black" points="1230,-56.5 1230,-75.5 1354,-75.5 1354,-56.5 1230,-56.5"/>
<text text-anchor="middle" x="1292" y="-63.5" font-family="Helvetica,sans-Serif" font-size="10.00">flashledcommand.cpp</text>
</a>
</g>
</g>
<!-- Node15&#45;&gt;Node16 -->
<g id="edge20" class="edge">
<title>Node15&#45;&gt;Node16</title>
<path fill="none" stroke="midnightblue" d="M1192.09,-108.5C1216.46,-98.38 1250.14,-84.39 1271.5,-75.52"/>
<polygon fill="midnightblue" stroke="midnightblue" points="1190.49,-105.38 1182.6,-112.44 1193.18,-111.84 1190.49,-105.38"/>
</g>
<!-- Node17 -->
<g id="node17" class="node">
<title>Node17</title>
<g id="a_node17"><a xlink:href="pokitdevicedisoveryagent_8cpp.html" target="_top" xlink:title="Defines the PokitDeviceDiscoveryAgent and PokitDeviceDiscoveryAgentPrivate classes.">
<polygon fill="none" stroke="black" points="1372,-56.5 1372,-75.5 1536,-75.5 1536,-56.5 1372,-56.5"/>
<text text-anchor="middle" x="1454" y="-63.5" font-family="Helvetica,sans-Serif" font-size="10.00">pokitdevicedisoveryagent.cpp</text>
</a>
</g>
</g>
<!-- Node15&#45;&gt;Node17 -->
<g id="edge22" class="edge">
<title>Node15&#45;&gt;Node17</title>
<path fill="none" stroke="midnightblue" d="M1217.57,-110.72C1272.67,-100.53 1356.12,-85.1 1407.73,-75.56"/>
<polygon fill="midnightblue" stroke="midnightblue" points="1216.82,-107.3 1207.62,-112.56 1218.09,-114.19 1216.82,-107.3"/>
</g>
<!-- Node18 -->
<g id="node18" class="node">
<title>Node18</title>
<g id="a_node18"><a xlink:href="setnamecommand_8cpp_source.html" target="_top" xlink:title=" ">
<polygon fill="none" stroke="black" points="1554,-56.5 1554,-75.5 1682,-75.5 1682,-56.5 1554,-56.5"/>
<text text-anchor="middle" x="1618" y="-63.5" font-family="Helvetica,sans-Serif" font-size="10.00">setnamecommand.cpp</text>
</a>
</g>
</g>
<!-- Node15&#45;&gt;Node18 -->
<g id="edge23" class="edge">
<title>Node15&#45;&gt;Node18</title>
<path fill="none" stroke="midnightblue" d="M1217.81,-114.54C1292.38,-105.89 1428.66,-90.01 1545,-76 1547.92,-75.65 1550.9,-75.29 1553.91,-74.92"/>
<polygon fill="midnightblue" stroke="midnightblue" points="1217.23,-111.09 1207.7,-115.72 1218.04,-118.04 1217.23,-111.09"/>
</g>
<!-- Node19 -->
<g id="node19" class="node">
<title>Node19</title>
<g id="a_node19"><a xlink:href="statuscommand_8cpp_source.html" target="_top" xlink:title=" ">
<polygon fill="none" stroke="black" points="938,-56.5 938,-75.5 1054,-75.5 1054,-56.5 938,-56.5"/>
<text text-anchor="middle" x="996" y="-63.5" font-family="Helvetica,sans-Serif" font-size="10.00">statuscommand.cpp</text>
</a>
</g>
</g>
<!-- Node15&#45;&gt;Node19 -->
<g id="edge24" class="edge">
<title>Node15&#45;&gt;Node19</title>
<path fill="none" stroke="midnightblue" d="M1126.05,-109.3C1094.77,-99.13 1050.18,-84.62 1022.18,-75.52"/>
<polygon fill="midnightblue" stroke="midnightblue" points="1125.1,-112.68 1135.7,-112.44 1127.27,-106.02 1125.1,-112.68"/>
</g>
<!-- Node20 -->
<g id="node20" class="node">
<title>Node20</title>
<g id="a_node20"><a xlink:href="statusservice_8cpp.html" target="_top" xlink:title="Defines the StatusService and StatusServicePrivate classes.">
<polygon fill="none" stroke="black" points="1111,-0.5 1111,-19.5 1213,-19.5 1213,-0.5 1111,-0.5"/>
<text text-anchor="middle" x="1162" y="-7.5" font-family="Helvetica,sans-Serif" font-size="10.00">statusservice.cpp</text>
</a>
</g>
</g>
<!-- Node15&#45;&gt;Node20 -->
<g id="edge25" class="edge">
<title>Node15&#45;&gt;Node20</title>
<path fill="none" stroke="midnightblue" d="M1172.28,-103.63C1176.49,-95.52 1180.88,-85.57 1183,-76 1187.57,-55.39 1175.63,-32.02 1167.93,-19.69"/>
<polygon fill="midnightblue" stroke="midnightblue" points="1169.18,-102 1167.38,-112.44 1175.3,-105.4 1169.18,-102"/>
</g>
<!-- Node21 -->
<g id="node21" class="node">
<title>Node21</title>
<g id="a_node21"><a xlink:href="statusservice__p_8h.html" target="_top" xlink:title="Declares the StatusServicePrivate class.">
<polygon fill="none" stroke="black" points="1072,-56.5 1072,-75.5 1174,-75.5 1174,-56.5 1072,-56.5"/>
<text text-anchor="middle" x="1123" y="-63.5" font-family="Helvetica,sans-Serif" font-size="10.00">statusservice_p.h</text>
</a>
</g>
</g>
<!-- Node15&#45;&gt;Node21 -->
<g id="edge26" class="edge">
<title>Node15&#45;&gt;Node21</title>
<path fill="none" stroke="midnightblue" d="M1149.62,-103.86C1142.86,-94.5 1134.79,-83.33 1129.32,-75.75"/>
<polygon fill="midnightblue" stroke="midnightblue" points="1146.87,-106.03 1155.56,-112.08 1152.54,-101.93 1146.87,-106.03"/>
</g>
<!-- Node21&#45;&gt;Node20 -->
<g id="edge27" class="edge">
<title>Node21&#45;&gt;Node20</title>
<path fill="none" stroke="midnightblue" d="M1135.38,-47.86C1142.14,-38.5 1150.21,-27.33 1155.68,-19.75"/>
<polygon fill="midnightblue" stroke="midnightblue" points="1132.46,-45.93 1129.44,-56.08 1138.13,-50.03 1132.46,-45.93"/>
</g>
</g>
</svg>
