<?xml version="1.0" encoding="UTF-8" standalone="no"?>
<!DOCTYPE svg PUBLIC "-//W3C//DTD SVG 1.1//EN"
 "http://www.w3.org/Graphics/SVG/1.1/DTD/svg11.dtd">
<!-- Generated by graphviz version 2.43.0 (0)
 -->
<!-- Title: abstractpokitservice_p.h Pages: 1 -->
<svg width="997pt" height="140pt"
 viewBox="0.00 0.00 996.50 140.00" xmlns="http://www.w3.org/2000/svg" xmlns:xlink="http://www.w3.org/1999/xlink">
<g id="graph0" class="graph" transform="scale(1 1) rotate(0) translate(4 136)">
<title>abstractpokitservice_p.h</title>
<!-- Node1 -->
<g id="node1" class="node">
<title>Node1</title>
<g id="a_node1"><a xlink:title="Declares the AbstractPokitServicePrivate class.">
<polygon fill="#bfbfbf" stroke="black" points="434,-112.5 434,-131.5 571,-131.5 571,-112.5 434,-112.5"/>
<text text-anchor="middle" x="502.5" y="-119.5" font-family="Helvetica,sans-Serif" font-size="10.00">abstractpokitservice_p.h</text>
</a>
</g>
</g>
<!-- Node2 -->
<g id="node2" class="node">
<title>Node2</title>
<g id="a_node2"><a xlink:href="abstractpokitservice_8cpp.html" target="_top" xlink:title="Defines the AbstractPokitService and AbstractPokitServicePrivate classes.">
<polygon fill="none" stroke="black" points="0,-56.5 0,-75.5 137,-75.5 137,-56.5 0,-56.5"/>
<text text-anchor="middle" x="68.5" y="-63.5" font-family="Helvetica,sans-Serif" font-size="10.00">abstractpokitservice.cpp</text>
</a>
</g>
</g>
<!-- Node1&#45;&gt;Node2 -->
<g id="edge1" class="edge">
<title>Node1&#45;&gt;Node2</title>
<path fill="none" stroke="midnightblue" d="M423.72,-111.2C341.79,-101 214.82,-85.21 136.95,-75.52"/>
<polygon fill="midnightblue" stroke="midnightblue" points="423.38,-114.68 433.73,-112.44 424.24,-107.74 423.38,-114.68"/>
</g>
<!-- Node3 -->
<g id="node3" class="node">
<title>Node3</title>
<g id="a_node3"><a xlink:href="calibrationservice__p_8h.html" target="_top" xlink:title="Declares the CalibrationServicePrivate class.">
<polygon fill="none" stroke="black" points="155.5,-56.5 155.5,-75.5 279.5,-75.5 279.5,-56.5 155.5,-56.5"/>
<text text-anchor="middle" x="217.5" y="-63.5" font-family="Helvetica,sans-Serif" font-size="10.00">calibrationservice_p.h</text>
</a>
</g>
</g>
<!-- Node1&#45;&gt;Node3 -->
<g id="edge2" class="edge">
<title>Node1&#45;&gt;Node3</title>
<path fill="none" stroke="midnightblue" d="M447.28,-110.54C393.42,-100.33 312.5,-85 262.45,-75.52"/>
<polygon fill="midnightblue" stroke="midnightblue" points="446.86,-114.02 457.34,-112.44 448.17,-107.14 446.86,-114.02"/>
</g>
<!-- Node5 -->
<g id="node5" class="node">
<title>Node5</title>
<g id="a_node5"><a xlink:href="dataloggerservice__p_8h.html" target="_top" xlink:title="Declares the DataLoggerServicePrivate class.">
<polygon fill="none" stroke="black" points="298,-56.5 298,-75.5 423,-75.5 423,-56.5 298,-56.5"/>
<text text-anchor="middle" x="360.5" y="-63.5" font-family="Helvetica,sans-Serif" font-size="10.00">dataloggerservice_p.h</text>
</a>
</g>
</g>
<!-- Node1&#45;&gt;Node5 -->
<g id="edge4" class="edge">
<title>Node1&#45;&gt;Node5</title>
<path fill="none" stroke="midnightblue" d="M470.34,-108.77C443.67,-98.63 406.43,-84.47 382.9,-75.52"/>
<polygon fill="midnightblue" stroke="midnightblue" points="469.41,-112.16 480,-112.44 471.9,-105.62 469.41,-112.16"/>
</g>
<!-- Node7 -->
<g id="node7" class="node">
<title>Node7</title>
<g id="a_node7"><a xlink:href="deviceinfoservice__p_8h.html" target="_top" xlink:title="Declares the DeviceInfoServicePrivate class.">
<polygon fill="none" stroke="black" points="441,-56.5 441,-75.5 564,-75.5 564,-56.5 441,-56.5"/>
<text text-anchor="middle" x="502.5" y="-63.5" font-family="Helvetica,sans-Serif" font-size="10.00">deviceinfoservice_p.h</text>
</a>
</g>
</g>
<!-- Node1&#45;&gt;Node7 -->
<g id="edge6" class="edge">
<title>Node1&#45;&gt;Node7</title>
<path fill="none" stroke="midnightblue" d="M502.5,-101.8C502.5,-92.91 502.5,-82.78 502.5,-75.75"/>
<polygon fill="midnightblue" stroke="midnightblue" points="499,-102.08 502.5,-112.08 506,-102.08 499,-102.08"/>
</g>
<!-- Node9 -->
<g id="node9" class="node">
<title>Node9</title>
<g id="a_node9"><a xlink:href="genericaccessservice__p_8h.html" target="_top" xlink:title="Declares the GenericAccessServicePrivate class.">
<polygon fill="none" stroke="black" points="582,-56.5 582,-75.5 723,-75.5 723,-56.5 582,-56.5"/>
<text text-anchor="middle" x="652.5" y="-63.5" font-family="Helvetica,sans-Serif" font-size="10.00">genericaccessservice_p.h</text>
</a>
</g>
</g>
<!-- Node1&#45;&gt;Node9 -->
<g id="edge8" class="edge">
<title>Node1&#45;&gt;Node9</title>
<path fill="none" stroke="midnightblue" d="M535.72,-109.04C563.95,-98.88 603.76,-84.55 628.84,-75.52"/>
<polygon fill="midnightblue" stroke="midnightblue" points="534.49,-105.76 526.27,-112.44 536.86,-112.35 534.49,-105.76"/>
</g>
<!-- Node11 -->
<g id="node11" class="node">
<title>Node11</title>
<g id="a_node11"><a xlink:href="multimeterservice__p_8h.html" target="_top" xlink:title="Declares the MultimeterServicePrivate class.">
<polygon fill="none" stroke="black" points="741,-56.5 741,-75.5 868,-75.5 868,-56.5 741,-56.5"/>
<text text-anchor="middle" x="804.5" y="-63.5" font-family="Helvetica,sans-Serif" font-size="10.00">multimeterservice_p.h</text>
</a>
</g>
</g>
<!-- Node1&#45;&gt;Node11 -->
<g id="edge10" class="edge">
<title>Node1&#45;&gt;Node11</title>
<path fill="none" stroke="midnightblue" d="M560.3,-110.66C617.38,-100.46 703.62,-85.04 756.87,-75.52"/>
<polygon fill="midnightblue" stroke="midnightblue" points="559.58,-107.24 550.35,-112.44 560.81,-114.13 559.58,-107.24"/>
</g>
<!-- Node13 -->
<g id="node13" class="node">
<title>Node13</title>
<g id="a_node13"><a xlink:href="statusservice__p_8h.html" target="_top" xlink:title="Declares the StatusServicePrivate class.">
<polygon fill="none" stroke="black" points="886.5,-56.5 886.5,-75.5 988.5,-75.5 988.5,-56.5 886.5,-56.5"/>
<text text-anchor="middle" x="937.5" y="-63.5" font-family="Helvetica,sans-Serif" font-size="10.00">statusservice_p.h</text>
</a>
</g>
</g>
<!-- Node1&#45;&gt;Node13 -->
<g id="edge12" class="edge">
<title>Node1&#45;&gt;Node13</title>
<path fill="none" stroke="midnightblue" d="M580.97,-112.26C656.9,-103.65 775.2,-89.81 877.5,-76 880.42,-75.61 883.42,-75.19 886.45,-74.76"/>
<polygon fill="midnightblue" stroke="midnightblue" points="580.55,-108.79 571.01,-113.39 581.34,-115.75 580.55,-108.79"/>
</g>
<!-- Node4 -->
<g id="node4" class="node">
<title>Node4</title>
<g id="a_node4"><a xlink:href="calibrationservice_8cpp.html" target="_top" xlink:title="Defines the CalibrationService and CalibrationServicePrivate classes.">
<polygon fill="none" stroke="black" points="155.5,-0.5 155.5,-19.5 279.5,-19.5 279.5,-0.5 155.5,-0.5"/>
<text text-anchor="middle" x="217.5" y="-7.5" font-family="Helvetica,sans-Serif" font-size="10.00">calibrationservice.cpp</text>
</a>
</g>
</g>
<!-- Node3&#45;&gt;Node4 -->
<g id="edge3" class="edge">
<title>Node3&#45;&gt;Node4</title>
<path fill="none" stroke="midnightblue" d="M217.5,-45.8C217.5,-36.91 217.5,-26.78 217.5,-19.75"/>
<polygon fill="midnightblue" stroke="midnightblue" points="214,-46.08 217.5,-56.08 221,-46.08 214,-46.08"/>
</g>
<!-- Node6 -->
<g id="node6" class="node">
<title>Node6</title>
<g id="a_node6"><a xlink:href="dataloggerservice_8cpp.html" target="_top" xlink:title="Defines the DataLoggerService and DataLoggerServicePrivate classes.">
<polygon fill="none" stroke="black" points="298,-0.5 298,-19.5 423,-19.5 423,-0.5 298,-0.5"/>
<text text-anchor="middle" x="360.5" y="-7.5" font-family="Helvetica,sans-Serif" font-size="10.00">dataloggerservice.cpp</text>
</a>
</g>
</g>
<!-- Node5&#45;&gt;Node6 -->
<g id="edge5" class="edge">
<title>Node5&#45;&gt;Node6</title>
<path fill="none" stroke="midnightblue" d="M360.5,-45.8C360.5,-36.91 360.5,-26.78 360.5,-19.75"/>
<polygon fill="midnightblue" stroke="midnightblue" points="357,-46.08 360.5,-56.08 364,-46.08 357,-46.08"/>
</g>
<!-- Node8 -->
<g id="node8" class="node">
<title>Node8</title>
<g id="a_node8"><a xlink:href="deviceinfoservice_8cpp.html" target="_top" xlink:title="Defines the DeviceInfoService and DeviceInfoServicePrivate classes.">
<polygon fill="none" stroke="black" points="441,-0.5 441,-19.5 564,-19.5 564,-0.5 441,-0.5"/>
<text text-anchor="middle" x="502.5" y="-7.5" font-family="Helvetica,sans-Serif" font-size="10.00">deviceinfoservice.cpp</text>
</a>
</g>
</g>
<!-- Node7&#45;&gt;Node8 -->
<g id="edge7" class="edge">
<title>Node7&#45;&gt;Node8</title>
<path fill="none" stroke="midnightblue" d="M502.5,-45.8C502.5,-36.91 502.5,-26.78 502.5,-19.75"/>
<polygon fill="midnightblue" stroke="midnightblue" points="499,-46.08 502.5,-56.08 506,-46.08 499,-46.08"/>
</g>
<!-- Node10 -->
<g id="node10" class="node">
<title>Node10</title>
<g id="a_node10"><a xlink:href="genericaccessservice_8cpp.html" target="_top" xlink:title="Defines the GenericAccessService and GenericAccessServicePrivate classes.">
<polygon fill="none" stroke="black" points="582,-0.5 582,-19.5 723,-19.5 723,-0.5 582,-0.5"/>
<text text-anchor="middle" x="652.5" y="-7.5" font-family="Helvetica,sans-Serif" font-size="10.00">genericaccessservice.cpp</text>
</a>
</g>
</g>
<!-- Node9&#45;&gt;Node10 -->
<g id="edge9" class="edge">
<title>Node9&#45;&gt;Node10</title>
<path fill="none" stroke="midnightblue" d="M652.5,-45.8C652.5,-36.91 652.5,-26.78 652.5,-19.75"/>
<polygon fill="midnightblue" stroke="midnightblue" points="649,-46.08 652.5,-56.08 656,-46.08 649,-46.08"/>
</g>
<!-- Node12 -->
<g id="node12" class="node">
<title>Node12</title>
<g id="a_node12"><a xlink:href="multimeterservice_8cpp.html" target="_top" xlink:title="Defines the MultimeterService and MultimeterServicePrivate classes.">
<polygon fill="none" stroke="black" points="741,-0.5 741,-19.5 868,-19.5 868,-0.5 741,-0.5"/>
<text text-anchor="middle" x="804.5" y="-7.5" font-family="Helvetica,sans-Serif" font-size="10.00">multimeterservice.cpp</text>
</a>
</g>
</g>
<!-- Node11&#45;&gt;Node12 -->
<g id="edge11" class="edge">
<title>Node11&#45;&gt;Node12</title>
<path fill="none" stroke="midnightblue" d="M804.5,-45.8C804.5,-36.91 804.5,-26.78 804.5,-19.75"/>
<polygon fill="midnightblue" stroke="midnightblue" points="801,-46.08 804.5,-56.08 808,-46.08 801,-46.08"/>
</g>
<!-- Node14 -->
<g id="node14" class="node">
<title>Node14</title>
<g id="a_node14"><a xlink:href="statusservice_8cpp.html" target="_top" xlink:title="Defines the StatusService and StatusServicePrivate classes.">
<polygon fill="none" stroke="black" points="886.5,-0.5 886.5,-19.5 988.5,-19.5 988.5,-0.5 886.5,-0.5"/>
<text text-anchor="middle" x="937.5" y="-7.5" font-family="Helvetica,sans-Serif" font-size="10.00">statusservice.cpp</text>
</a>
</g>
</g>
<!-- Node13&#45;&gt;Node14 -->
<g id="edge13" class="edge">
<title>Node13&#45;&gt;Node14</title>
<path fill="none" stroke="midnightblue" d="M937.5,-45.8C937.5,-36.91 937.5,-26.78 937.5,-19.75"/>
<polygon fill="midnightblue" stroke="midnightblue" points="934,-46.08 937.5,-56.08 941,-46.08 934,-46.08"/>
</g>
</g>
</svg>
