<?xml version="1.0" encoding="UTF-8" standalone="no"?>
<!DOCTYPE svg PUBLIC "-//W3C//DTD SVG 1.1//EN"
 "http://www.w3.org/Graphics/SVG/1.1/DTD/svg11.dtd">
<!-- Generated by graphviz version 2.43.0 (0)
 -->
<!-- Title: abstractpokitservice.h Pages: 1 -->
<svg width="2994pt" height="192pt"
 viewBox="0.00 0.00 2993.50 192.00" xmlns="http://www.w3.org/2000/svg" xmlns:xlink="http://www.w3.org/1999/xlink">
<g id="graph0" class="graph" transform="scale(1 1) rotate(0) translate(4 188)">
<title>abstractpokitservice.h</title>
<!-- Node1 -->
<g id="node1" class="node">
<title>Node1</title>
<g id="a_node1"><a xlink:title="Declares the AbstractPokitService class.">
<polygon fill="#999999" stroke="#666666" points="1552.5,-184 1427.5,-184 1427.5,-165 1552.5,-165 1552.5,-184"/>
<text text-anchor="middle" x="1490" y="-172" font-family="Helvetica,sans-Serif" font-size="10.00">abstractpokitservice.h</text>
</a>
</g>
</g>
<!-- Node2 -->
<g id="node2" class="node">
<title>Node2</title>
<g id="a_node2"><a xlink:href="abstractpokitservice_8cpp.html" target="_top" xlink:title="Defines the AbstractPokitService and AbstractPokitServicePrivate classes.">
<polygon fill="white" stroke="#666666" points="362.5,-129 225.5,-129 225.5,-110 362.5,-110 362.5,-129"/>
<text text-anchor="middle" x="294" y="-117" font-family="Helvetica,sans-Serif" font-size="10.00">abstractpokitservice.cpp</text>
</a>
</g>
</g>
<!-- Node1&#45;&gt;Node2 -->
<g id="edge1" class="edge">
<title>Node1&#45;&gt;Node2</title>
<path fill="none" stroke="#63b8ff" d="M1419.23,-172.41C1242.31,-169.31 766.54,-158.66 371,-129 368.32,-128.8 365.58,-128.58 362.82,-128.34"/>
<polygon fill="#63b8ff" stroke="#63b8ff" points="1427.43,-172.55 1419.37,-176.01 1423.43,-172.48 1419.43,-172.41 1419.43,-172.41 1419.43,-172.41 1423.43,-172.48 1419.5,-168.81 1427.43,-172.55 1427.43,-172.55"/>
</g>
<!-- Node3 -->
<g id="node3" class="node">
<title>Node3</title>
<g id="a_node3"><a xlink:href="calibrationservice_8h.html" target="_top" xlink:title="Declares the CalibrationService class.">
<polygon fill="white" stroke="#666666" points="493.5,-129 380.5,-129 380.5,-110 493.5,-110 493.5,-129"/>
<text text-anchor="middle" x="437" y="-117" font-family="Helvetica,sans-Serif" font-size="10.00">calibrationservice.h</text>
</a>
</g>
</g>
<!-- Node1&#45;&gt;Node3 -->
<g id="edge2" class="edge">
<title>Node1&#45;&gt;Node3</title>
<path fill="none" stroke="#63b8ff" d="M1419.02,-169.93C1222.12,-160.02 671.86,-132.32 493.55,-123.35"/>
<polygon fill="#63b8ff" stroke="#63b8ff" points="1427.28,-170.34 1419.11,-173.54 1423.29,-170.14 1419.29,-169.94 1419.29,-169.94 1419.29,-169.94 1423.29,-170.14 1419.47,-166.35 1427.28,-170.34 1427.28,-170.34"/>
</g>
<!-- Node8 -->
<g id="node8" class="node">
<title>Node8</title>
<g id="a_node8"><a xlink:href="dataloggerservice_8h.html" target="_top" xlink:title="Declares the DataLoggerService class.">
<polygon fill="white" stroke="#666666" points="814.5,-129 701.5,-129 701.5,-110 814.5,-110 814.5,-129"/>
<text text-anchor="middle" x="758" y="-117" font-family="Helvetica,sans-Serif" font-size="10.00">dataloggerservice.h</text>
</a>
</g>
</g>
<!-- Node1&#45;&gt;Node8 -->
<g id="edge8" class="edge">
<title>Node1&#45;&gt;Node8</title>
<path fill="none" stroke="#63b8ff" d="M1419.26,-168.38C1274.4,-157.89 946.56,-134.15 814.6,-124.6"/>
<polygon fill="#63b8ff" stroke="#63b8ff" points="1427.27,-168.96 1419.03,-171.97 1423.28,-168.67 1419.29,-168.38 1419.29,-168.38 1419.29,-168.38 1423.28,-168.67 1419.55,-164.79 1427.27,-168.96 1427.27,-168.96"/>
</g>
<!-- Node18 -->
<g id="node18" class="node">
<title>Node18</title>
<g id="a_node18"><a xlink:href="devicecommand_8cpp_source.html" target="_top" xlink:title=" ">
<polygon fill="white" stroke="#666666" points="2640,-129 2522,-129 2522,-110 2640,-110 2640,-129"/>
<text text-anchor="middle" x="2581" y="-117" font-family="Helvetica,sans-Serif" font-size="10.00">devicecommand.cpp</text>
</a>
</g>
</g>
<!-- Node1&#45;&gt;Node18 -->
<g id="edge22" class="edge">
<title>Node1&#45;&gt;Node18</title>
<path fill="none" stroke="#63b8ff" d="M1560.88,-172.39C1727.34,-169.35 2156.1,-159.02 2513,-129 2515.85,-128.76 2518.75,-128.49 2521.69,-128.2"/>
<polygon fill="#63b8ff" stroke="#63b8ff" points="1552.68,-172.54 1560.61,-168.79 1556.68,-172.46 1560.68,-172.39 1560.68,-172.39 1560.68,-172.39 1556.68,-172.46 1560.74,-175.99 1552.68,-172.54 1552.68,-172.54"/>
</g>
<!-- Node19 -->
<g id="node19" class="node">
<title>Node19</title>
<g id="a_node19"><a xlink:href="deviceinfoservice_8h.html" target="_top" xlink:title="Declares the DeviceInfoService class.">
<polygon fill="white" stroke="#666666" points="2356,-129 2244,-129 2244,-110 2356,-110 2356,-129"/>
<text text-anchor="middle" x="2300" y="-117" font-family="Helvetica,sans-Serif" font-size="10.00">deviceinfoservice.h</text>
</a>
</g>
</g>
<!-- Node1&#45;&gt;Node19 -->
<g id="edge23" class="edge">
<title>Node1&#45;&gt;Node19</title>
<path fill="none" stroke="#63b8ff" d="M1560.85,-168.86C1719.42,-158.49 2100.25,-133.57 2243.89,-124.17"/>
<polygon fill="#63b8ff" stroke="#63b8ff" points="1552.55,-169.41 1560.3,-165.29 1556.54,-169.15 1560.53,-168.88 1560.53,-168.88 1560.53,-168.88 1556.54,-169.15 1560.77,-172.48 1552.55,-169.41 1552.55,-169.41"/>
</g>
<!-- Node23 -->
<g id="node23" class="node">
<title>Node23</title>
<g id="a_node23"><a xlink:href="dsoservice_8h.html" target="_top" xlink:title="Declares the DsoService class.">
<polygon fill="white" stroke="#666666" points="1251,-129 1173,-129 1173,-110 1251,-110 1251,-129"/>
<text text-anchor="middle" x="1212" y="-117" font-family="Helvetica,sans-Serif" font-size="10.00">dsoservice.h</text>
</a>
</g>
</g>
<!-- Node1&#45;&gt;Node23 -->
<g id="edge29" class="edge">
<title>Node1&#45;&gt;Node23</title>
<path fill="none" stroke="#63b8ff" d="M1437.22,-163.44C1382.98,-153.1 1299.81,-137.24 1251.16,-127.97"/>
<polygon fill="#63b8ff" stroke="#63b8ff" points="1445.33,-164.98 1436.8,-167.02 1441.41,-164.24 1437.48,-163.49 1437.48,-163.49 1437.48,-163.49 1441.41,-164.24 1438.15,-159.95 1445.33,-164.98 1445.33,-164.98"/>
</g>
<!-- Node28 -->
<g id="node28" class="node">
<title>Node28</title>
<g id="a_node28"><a xlink:href="genericaccessservice_8h.html" target="_top" xlink:title="Declares the GenericAccessService class.">
<polygon fill="white" stroke="#666666" points="2504,-129 2374,-129 2374,-110 2504,-110 2504,-129"/>
<text text-anchor="middle" x="2439" y="-117" font-family="Helvetica,sans-Serif" font-size="10.00">genericaccessservice.h</text>
</a>
</g>
</g>
<!-- Node1&#45;&gt;Node28 -->
<g id="edge37" class="edge">
<title>Node1&#45;&gt;Node28</title>
<path fill="none" stroke="#63b8ff" d="M1560.92,-171.42C1709.99,-166.72 2066.71,-153.69 2365,-129 2367.84,-128.77 2370.73,-128.51 2373.65,-128.23"/>
<polygon fill="#63b8ff" stroke="#63b8ff" points="1552.69,-171.68 1560.57,-167.83 1556.69,-171.55 1560.69,-171.43 1560.69,-171.43 1560.69,-171.43 1556.69,-171.55 1560.8,-175.03 1552.69,-171.68 1552.69,-171.68"/>
</g>
<!-- Node31 -->
<g id="node31" class="node">
<title>Node31</title>
<g id="a_node31"><a xlink:href="multimeterservice_8h.html" target="_top" xlink:title="Declares the MultimeterService class.">
<polygon fill="white" stroke="#666666" points="1548,-129 1432,-129 1432,-110 1548,-110 1548,-129"/>
<text text-anchor="middle" x="1490" y="-117" font-family="Helvetica,sans-Serif" font-size="10.00">multimeterservice.h</text>
</a>
</g>
</g>
<!-- Node1&#45;&gt;Node31 -->
<g id="edge42" class="edge">
<title>Node1&#45;&gt;Node31</title>
<path fill="none" stroke="#63b8ff" d="M1490,-156.67C1490,-147.5 1490,-136.52 1490,-129.09"/>
<polygon fill="#63b8ff" stroke="#63b8ff" points="1490,-164.75 1486.4,-156.75 1490,-160.75 1490,-156.75 1490,-156.75 1490,-156.75 1490,-160.75 1493.6,-156.75 1490,-164.75 1490,-164.75"/>
</g>
<!-- Node36 -->
<g id="node36" class="node">
<title>Node36</title>
<g id="a_node36"><a xlink:href="statusservice_8h.html" target="_top" xlink:title="Declares the StatusService class.">
<polygon fill="white" stroke="#666666" points="1944.5,-129 1853.5,-129 1853.5,-110 1944.5,-110 1944.5,-129"/>
<text text-anchor="middle" x="1899" y="-117" font-family="Helvetica,sans-Serif" font-size="10.00">statusservice.h</text>
</a>
</g>
</g>
<!-- Node1&#45;&gt;Node36 -->
<g id="edge50" class="edge">
<title>Node1&#45;&gt;Node36</title>
<path fill="none" stroke="#63b8ff" d="M1560.51,-164.36C1644.42,-153.49 1782.09,-135.65 1853.24,-126.43"/>
<polygon fill="#63b8ff" stroke="#63b8ff" points="1552.56,-165.39 1560.03,-160.79 1556.53,-164.88 1560.5,-164.36 1560.5,-164.36 1560.5,-164.36 1556.53,-164.88 1560.96,-167.93 1552.56,-165.39 1552.56,-165.39"/>
</g>
<!-- Node4 -->
<g id="node4" class="node">
<title>Node4</title>
<g id="a_node4"><a xlink:href="calibratecommand_8cpp_source.html" target="_top" xlink:title=" ">
<polygon fill="white" stroke="#666666" points="128,-74 0,-74 0,-55 128,-55 128,-74"/>
<text text-anchor="middle" x="64" y="-62" font-family="Helvetica,sans-Serif" font-size="10.00">calibratecommand.cpp</text>
</a>
</g>
</g>
<!-- Node3&#45;&gt;Node4 -->
<g id="edge3" class="edge">
<title>Node3&#45;&gt;Node4</title>
<path fill="none" stroke="#63b8ff" d="M372.03,-109.27C302.13,-99.34 191.87,-83.67 123.97,-74.02"/>
<polygon fill="#63b8ff" stroke="#63b8ff" points="380.35,-110.45 371.92,-112.89 376.39,-109.89 372.43,-109.32 372.43,-109.32 372.43,-109.32 376.39,-109.89 372.94,-105.76 380.35,-110.45 380.35,-110.45"/>
</g>
<!-- Node5 -->
<g id="node5" class="node">
<title>Node5</title>
<g id="a_node5"><a xlink:href="calibrationservice_8cpp.html" target="_top" xlink:title="Defines the CalibrationService and CalibrationServicePrivate classes.">
<polygon fill="white" stroke="#666666" points="263,-19 139,-19 139,0 263,0 263,-19"/>
<text text-anchor="middle" x="201" y="-7" font-family="Helvetica,sans-Serif" font-size="10.00">calibrationservice.cpp</text>
</a>
</g>
</g>
<!-- Node3&#45;&gt;Node5 -->
<g id="edge4" class="edge">
<title>Node3&#45;&gt;Node5</title>
<path fill="none" stroke="#63b8ff" d="M372.3,-109.63C296.8,-98.96 181.38,-81.56 175,-74 161.01,-57.44 180.05,-32.33 192.23,-19.2"/>
<polygon fill="#63b8ff" stroke="#63b8ff" points="380.38,-110.76 371.96,-113.21 376.42,-110.21 372.46,-109.65 372.46,-109.65 372.46,-109.65 376.42,-110.21 372.96,-106.08 380.38,-110.76 380.38,-110.76"/>
</g>
<!-- Node6 -->
<g id="node6" class="node">
<title>Node6</title>
<g id="a_node6"><a xlink:href="calibrationservice__p_8h.html" target="_top" xlink:title="Declares the CalibrationServicePrivate class.">
<polygon fill="white" stroke="#666666" points="308,-74 184,-74 184,-55 308,-55 308,-74"/>
<text text-anchor="middle" x="246" y="-62" font-family="Helvetica,sans-Serif" font-size="10.00">calibrationservice_p.h</text>
</a>
</g>
</g>
<!-- Node3&#45;&gt;Node6 -->
<g id="edge5" class="edge">
<title>Node3&#45;&gt;Node6</title>
<path fill="none" stroke="#63b8ff" d="M398.5,-107.82C362.7,-97.88 310.06,-83.28 276.93,-74.08"/>
<polygon fill="#63b8ff" stroke="#63b8ff" points="406.31,-109.98 397.64,-111.31 402.46,-108.92 398.6,-107.85 398.6,-107.85 398.6,-107.85 402.46,-108.92 399.57,-104.38 406.31,-109.98 406.31,-109.98"/>
</g>
<!-- Node7 -->
<g id="node7" class="node">
<title>Node7</title>
<g id="a_node7"><a xlink:href="pokitdevice_8cpp.html" target="_top" xlink:title="Defines the PokitDevice and PokitDevicePrivate classes.">
<polygon fill="white" stroke="#666666" points="1602,-74 1508,-74 1508,-55 1602,-55 1602,-74"/>
<text text-anchor="middle" x="1555" y="-62" font-family="Helvetica,sans-Serif" font-size="10.00">pokitdevice.cpp</text>
</a>
</g>
</g>
<!-- Node3&#45;&gt;Node7 -->
<g id="edge7" class="edge">
<title>Node3&#45;&gt;Node7</title>
<path fill="none" stroke="#63b8ff" d="M501.64,-116.19C716.56,-108.45 1399.24,-83.41 1498,-74 1501.19,-73.7 1504.47,-73.34 1507.77,-72.94"/>
<polygon fill="#63b8ff" stroke="#63b8ff" points="493.58,-116.48 501.45,-112.59 497.58,-116.34 501.58,-116.19 501.58,-116.19 501.58,-116.19 497.58,-116.34 501.71,-119.79 493.58,-116.48 493.58,-116.48"/>
</g>
<!-- Node6&#45;&gt;Node5 -->
<g id="edge6" class="edge">
<title>Node6&#45;&gt;Node5</title>
<path fill="none" stroke="#63b8ff" d="M233.37,-48.63C225.28,-39.1 215.06,-27.06 208.29,-19.09"/>
<polygon fill="#63b8ff" stroke="#63b8ff" points="238.57,-54.75 230.65,-50.98 235.98,-51.7 233.39,-48.65 233.39,-48.65 233.39,-48.65 235.98,-51.7 236.14,-46.32 238.57,-54.75 238.57,-54.75"/>
</g>
<!-- Node8&#45;&gt;Node7 -->
<g id="edge21" class="edge">
<title>Node8&#45;&gt;Node7</title>
<path fill="none" stroke="#63b8ff" d="M823.02,-116.51C952.02,-112.15 1249.36,-99.96 1498,-74 1501.18,-73.67 1504.46,-73.29 1507.76,-72.87"/>
<polygon fill="#63b8ff" stroke="#63b8ff" points="814.77,-116.79 822.65,-112.92 818.77,-116.66 822.77,-116.52 822.77,-116.52 822.77,-116.52 818.77,-116.66 822.89,-120.12 814.77,-116.79 814.77,-116.79"/>
</g>
<!-- Node9 -->
<g id="node9" class="node">
<title>Node9</title>
<g id="a_node9"><a xlink:href="dataloggerservice_8cpp.html" target="_top" xlink:title="Defines the DataLoggerService and DataLoggerServicePrivate classes.">
<polygon fill="white" stroke="#666666" points="488.5,-19 363.5,-19 363.5,0 488.5,0 488.5,-19"/>
<text text-anchor="middle" x="426" y="-7" font-family="Helvetica,sans-Serif" font-size="10.00">dataloggerservice.cpp</text>
</a>
</g>
</g>
<!-- Node8&#45;&gt;Node9 -->
<g id="edge9" class="edge">
<title>Node8&#45;&gt;Node9</title>
<path fill="none" stroke="#63b8ff" d="M693.04,-116.14C640.07,-112.14 564.4,-101.58 504,-74 474.46,-60.51 446.67,-33.1 433.68,-19.12"/>
<polygon fill="#63b8ff" stroke="#63b8ff" points="701.34,-116.73 693.11,-119.76 697.35,-116.45 693.36,-116.17 693.36,-116.17 693.36,-116.17 697.35,-116.45 693.62,-112.57 701.34,-116.73 701.34,-116.73"/>
</g>
<!-- Node10 -->
<g id="node10" class="node">
<title>Node10</title>
<g id="a_node10"><a xlink:href="dataloggerservice__p_8h.html" target="_top" xlink:title="Declares the DataLoggerServicePrivate class.">
<polygon fill="white" stroke="#666666" points="451.5,-74 326.5,-74 326.5,-55 451.5,-55 451.5,-74"/>
<text text-anchor="middle" x="389" y="-62" font-family="Helvetica,sans-Serif" font-size="10.00">dataloggerservice_p.h</text>
</a>
</g>
</g>
<!-- Node8&#45;&gt;Node10 -->
<g id="edge10" class="edge">
<title>Node8&#45;&gt;Node10</title>
<path fill="none" stroke="#63b8ff" d="M692.92,-109.15C623.73,-99.22 515.27,-83.64 448.36,-74.03"/>
<polygon fill="#63b8ff" stroke="#63b8ff" points="701.15,-110.33 692.72,-112.76 697.19,-109.77 693.23,-109.2 693.23,-109.2 693.23,-109.2 697.19,-109.77 693.75,-105.63 701.15,-110.33 701.15,-110.33"/>
</g>
<!-- Node11 -->
<g id="node11" class="node">
<title>Node11</title>
<g id="a_node11"><a xlink:href="loggerfetchcommand_8h_source.html" target="_top" xlink:title=" ">
<polygon fill="white" stroke="#666666" points="676,-74 546,-74 546,-55 676,-55 676,-74"/>
<text text-anchor="middle" x="611" y="-62" font-family="Helvetica,sans-Serif" font-size="10.00">loggerfetchcommand.h</text>
</a>
</g>
</g>
<!-- Node8&#45;&gt;Node11 -->
<g id="edge12" class="edge">
<title>Node8&#45;&gt;Node11</title>
<path fill="none" stroke="#63b8ff" d="M726.64,-107.19C699.23,-97.31 660.03,-83.18 635.05,-74.17"/>
<polygon fill="#63b8ff" stroke="#63b8ff" points="734.38,-109.98 725.64,-110.66 730.62,-108.63 726.86,-107.27 726.86,-107.27 726.86,-107.27 730.62,-108.63 728.08,-103.88 734.38,-109.98 734.38,-109.98"/>
</g>
<!-- Node14 -->
<g id="node14" class="node">
<title>Node14</title>
<g id="a_node14"><a xlink:href="loggerstartcommand_8h_source.html" target="_top" xlink:title=" ">
<polygon fill="white" stroke="#666666" points="822,-74 694,-74 694,-55 822,-55 822,-74"/>
<text text-anchor="middle" x="758" y="-62" font-family="Helvetica,sans-Serif" font-size="10.00">loggerstartcommand.h</text>
</a>
</g>
</g>
<!-- Node8&#45;&gt;Node14 -->
<g id="edge15" class="edge">
<title>Node8&#45;&gt;Node14</title>
<path fill="none" stroke="#63b8ff" d="M758,-101.67C758,-92.5 758,-81.52 758,-74.09"/>
<polygon fill="#63b8ff" stroke="#63b8ff" points="758,-109.75 754.4,-101.75 758,-105.75 758,-101.75 758,-101.75 758,-101.75 758,-105.75 761.6,-101.75 758,-109.75 758,-109.75"/>
</g>
<!-- Node16 -->
<g id="node16" class="node">
<title>Node16</title>
<g id="a_node16"><a xlink:href="loggerstopcommand_8h_source.html" target="_top" xlink:title=" ">
<polygon fill="white" stroke="#666666" points="966,-74 840,-74 840,-55 966,-55 966,-74"/>
<text text-anchor="middle" x="903" y="-62" font-family="Helvetica,sans-Serif" font-size="10.00">loggerstopcommand.h</text>
</a>
</g>
</g>
<!-- Node8&#45;&gt;Node16 -->
<g id="edge18" class="edge">
<title>Node8&#45;&gt;Node16</title>
<path fill="none" stroke="#63b8ff" d="M788.94,-107.19C815.97,-97.31 854.64,-83.18 879.28,-74.17"/>
<polygon fill="#63b8ff" stroke="#63b8ff" points="781.3,-109.98 787.57,-103.86 785.05,-108.61 788.81,-107.24 788.81,-107.24 788.81,-107.24 785.05,-108.61 790.05,-110.62 781.3,-109.98 781.3,-109.98"/>
</g>
<!-- Node10&#45;&gt;Node9 -->
<g id="edge11" class="edge">
<title>Node10&#45;&gt;Node9</title>
<path fill="none" stroke="#63b8ff" d="M399.77,-48.08C406.36,-38.64 414.55,-26.91 420,-19.09"/>
<polygon fill="#63b8ff" stroke="#63b8ff" points="395.11,-54.75 396.74,-46.13 397.4,-51.47 399.69,-48.19 399.69,-48.19 399.69,-48.19 397.4,-51.47 402.64,-50.25 395.11,-54.75 395.11,-54.75"/>
</g>
<!-- Node12 -->
<g id="node12" class="node">
<title>Node12</title>
<g id="a_node12"><a xlink:href="loggerfetchcommand_8cpp_source.html" target="_top" xlink:title=" ">
<polygon fill="white" stroke="#666666" points="647.5,-19 506.5,-19 506.5,0 647.5,0 647.5,-19"/>
<text text-anchor="middle" x="577" y="-7" font-family="Helvetica,sans-Serif" font-size="10.00">loggerfetchcommand.cpp</text>
</a>
</g>
</g>
<!-- Node11&#45;&gt;Node12 -->
<g id="edge13" class="edge">
<title>Node11&#45;&gt;Node12</title>
<path fill="none" stroke="#63b8ff" d="M600.93,-47.8C594.9,-38.41 587.48,-26.83 582.51,-19.09"/>
<polygon fill="#63b8ff" stroke="#63b8ff" points="605.39,-54.75 598.04,-49.96 603.23,-51.38 601.07,-48.01 601.07,-48.01 601.07,-48.01 603.23,-51.38 604.1,-46.07 605.39,-54.75 605.39,-54.75"/>
</g>
<!-- Node13 -->
<g id="node13" class="node">
<title>Node13</title>
<g id="a_node13"><a xlink:href="main_8cpp_source.html" target="_top" xlink:title=" ">
<polygon fill="white" stroke="#666666" points="1040,-19 978,-19 978,0 1040,0 1040,-19"/>
<text text-anchor="middle" x="1009" y="-7" font-family="Helvetica,sans-Serif" font-size="10.00">main.cpp</text>
</a>
</g>
</g>
<!-- Node11&#45;&gt;Node13 -->
<g id="edge14" class="edge">
<title>Node11&#45;&gt;Node13</title>
<path fill="none" stroke="#63b8ff" d="M684.15,-55.09C772.26,-44.83 915.04,-27.78 968,-19 971.16,-18.48 974.44,-17.88 977.71,-17.26"/>
<polygon fill="#63b8ff" stroke="#63b8ff" points="676.06,-56.03 683.59,-51.53 680.03,-55.56 684.01,-55.1 684.01,-55.1 684.01,-55.1 680.03,-55.56 684.42,-58.68 676.06,-56.03 676.06,-56.03"/>
</g>
<!-- Node14&#45;&gt;Node13 -->
<g id="edge17" class="edge">
<title>Node14&#45;&gt;Node13</title>
<path fill="none" stroke="#63b8ff" d="M806.2,-53.32C856.81,-42.64 934.87,-26.15 977.89,-17.07"/>
<polygon fill="#63b8ff" stroke="#63b8ff" points="798.33,-54.98 805.41,-49.81 802.24,-54.16 806.15,-53.33 806.15,-53.33 806.15,-53.33 802.24,-54.16 806.9,-56.85 798.33,-54.98 798.33,-54.98"/>
</g>
<!-- Node15 -->
<g id="node15" class="node">
<title>Node15</title>
<g id="a_node15"><a xlink:href="loggerstartcommand_8cpp_source.html" target="_top" xlink:title=" ">
<polygon fill="white" stroke="#666666" points="804.5,-19 665.5,-19 665.5,0 804.5,0 804.5,-19"/>
<text text-anchor="middle" x="735" y="-7" font-family="Helvetica,sans-Serif" font-size="10.00">loggerstartcommand.cpp</text>
</a>
</g>
</g>
<!-- Node14&#45;&gt;Node15 -->
<g id="edge16" class="edge">
<title>Node14&#45;&gt;Node15</title>
<path fill="none" stroke="#63b8ff" d="M750.94,-47.24C746.91,-37.95 742.02,-26.68 738.73,-19.09"/>
<polygon fill="#63b8ff" stroke="#63b8ff" points="754.2,-54.75 747.71,-48.84 752.61,-51.08 751.02,-47.41 751.02,-47.41 751.02,-47.41 752.61,-51.08 754.32,-45.98 754.2,-54.75 754.2,-54.75"/>
</g>
<!-- Node16&#45;&gt;Node13 -->
<g id="edge20" class="edge">
<title>Node16&#45;&gt;Node13</title>
<path fill="none" stroke="#63b8ff" d="M927.42,-51.29C947.06,-41.47 974.19,-27.91 991.66,-19.17"/>
<polygon fill="#63b8ff" stroke="#63b8ff" points="920.03,-54.98 925.58,-48.19 923.61,-53.2 927.19,-51.41 927.19,-51.41 927.19,-51.41 923.61,-53.2 928.8,-54.63 920.03,-54.98 920.03,-54.98"/>
</g>
<!-- Node17 -->
<g id="node17" class="node">
<title>Node17</title>
<g id="a_node17"><a xlink:href="loggerstopcommand_8cpp_source.html" target="_top" xlink:title=" ">
<polygon fill="white" stroke="#666666" points="959.5,-19 822.5,-19 822.5,0 959.5,0 959.5,-19"/>
<text text-anchor="middle" x="891" y="-7" font-family="Helvetica,sans-Serif" font-size="10.00">loggerstopcommand.cpp</text>
</a>
</g>
</g>
<!-- Node16&#45;&gt;Node17 -->
<g id="edge19" class="edge">
<title>Node16&#45;&gt;Node17</title>
<path fill="none" stroke="#63b8ff" d="M899.19,-46.67C897.11,-37.5 894.63,-26.52 892.94,-19.09"/>
<polygon fill="#63b8ff" stroke="#63b8ff" points="901.02,-54.75 895.74,-47.74 900.14,-50.85 899.25,-46.95 899.25,-46.95 899.25,-46.95 900.14,-50.85 902.76,-46.15 901.02,-54.75 901.02,-54.75"/>
</g>
<!-- Node19&#45;&gt;Node7 -->
<g id="edge28" class="edge">
<title>Node19&#45;&gt;Node7</title>
<path fill="none" stroke="#63b8ff" d="M2235.63,-114.57C2118.73,-107.33 1863.78,-91.05 1649,-74 1633.81,-72.79 1617.25,-71.34 1602.32,-69.98"/>
<polygon fill="#63b8ff" stroke="#63b8ff" points="2243.8,-115.08 2235.6,-118.17 2239.81,-114.83 2235.82,-114.58 2235.82,-114.58 2235.82,-114.58 2239.81,-114.83 2236.04,-110.99 2243.8,-115.08 2243.8,-115.08"/>
</g>
<!-- Node20 -->
<g id="node20" class="node">
<title>Node20</title>
<g id="a_node20"><a xlink:href="deviceinfoservice_8cpp.html" target="_top" xlink:title="Defines the DeviceInfoService and DeviceInfoServicePrivate classes.">
<polygon fill="white" stroke="#666666" points="2620.5,-19 2497.5,-19 2497.5,0 2620.5,0 2620.5,-19"/>
<text text-anchor="middle" x="2559" y="-7" font-family="Helvetica,sans-Serif" font-size="10.00">deviceinfoservice.cpp</text>
</a>
</g>
</g>
<!-- Node19&#45;&gt;Node20 -->
<g id="edge24" class="edge">
<title>Node19&#45;&gt;Node20</title>
<path fill="none" stroke="#63b8ff" d="M2359.49,-108.51C2407.64,-99.75 2471.09,-86.51 2494,-74 2519.48,-60.09 2541.91,-33.37 2552.51,-19.44"/>
<polygon fill="#63b8ff" stroke="#63b8ff" points="2351.6,-109.93 2358.84,-104.97 2355.54,-109.22 2359.48,-108.51 2359.48,-108.51 2359.48,-108.51 2355.54,-109.22 2360.12,-112.05 2351.6,-109.93 2351.6,-109.93"/>
</g>
<!-- Node21 -->
<g id="node21" class="node">
<title>Node21</title>
<g id="a_node21"><a xlink:href="deviceinfoservice__p_8h.html" target="_top" xlink:title="Declares the DeviceInfoServicePrivate class.">
<polygon fill="white" stroke="#666666" points="2665.5,-74 2542.5,-74 2542.5,-55 2665.5,-55 2665.5,-74"/>
<text text-anchor="middle" x="2604" y="-62" font-family="Helvetica,sans-Serif" font-size="10.00">deviceinfoservice_p.h</text>
</a>
</g>
</g>
<!-- Node19&#45;&gt;Node21 -->
<g id="edge25" class="edge">
<title>Node19&#45;&gt;Node21</title>
<path fill="none" stroke="#63b8ff" d="M2357.04,-108.56C2414.11,-98.61 2500.98,-83.46 2555.03,-74.04"/>
<polygon fill="#63b8ff" stroke="#63b8ff" points="2348.84,-109.98 2356.11,-105.06 2352.78,-109.3 2356.72,-108.61 2356.72,-108.61 2356.72,-108.61 2352.78,-109.3 2357.34,-112.16 2348.84,-109.98 2348.84,-109.98"/>
</g>
<!-- Node22 -->
<g id="node22" class="node">
<title>Node22</title>
<g id="a_node22"><a xlink:href="infocommand_8cpp_source.html" target="_top" xlink:title=" ">
<polygon fill="white" stroke="#666666" points="2788,-74 2684,-74 2684,-55 2788,-55 2788,-74"/>
<text text-anchor="middle" x="2736" y="-62" font-family="Helvetica,sans-Serif" font-size="10.00">infocommand.cpp</text>
</a>
</g>
</g>
<!-- Node19&#45;&gt;Node22 -->
<g id="edge27" class="edge">
<title>Node19&#45;&gt;Node22</title>
<path fill="none" stroke="#63b8ff" d="M2364.17,-110.1C2364.45,-110.07 2364.72,-110.03 2365,-110 2502.22,-93.04 2536.84,-91.39 2674,-74 2677.23,-73.59 2680.56,-73.16 2683.91,-72.72"/>
<polygon fill="#63b8ff" stroke="#63b8ff" points="2356.01,-111.12 2363.5,-106.56 2359.98,-110.63 2363.95,-110.13 2363.95,-110.13 2363.95,-110.13 2359.98,-110.63 2364.4,-113.7 2356.01,-111.12 2356.01,-111.12"/>
</g>
<!-- Node21&#45;&gt;Node20 -->
<g id="edge26" class="edge">
<title>Node21&#45;&gt;Node20</title>
<path fill="none" stroke="#63b8ff" d="M2591.37,-48.63C2583.28,-39.1 2573.06,-27.06 2566.29,-19.09"/>
<polygon fill="#63b8ff" stroke="#63b8ff" points="2596.57,-54.75 2588.65,-50.98 2593.98,-51.7 2591.39,-48.65 2591.39,-48.65 2591.39,-48.65 2593.98,-51.7 2594.14,-46.32 2596.57,-54.75 2596.57,-54.75"/>
</g>
<!-- Node23&#45;&gt;Node7 -->
<g id="edge36" class="edge">
<title>Node23&#45;&gt;Node7</title>
<path fill="none" stroke="#63b8ff" d="M1259.12,-111.22C1324.57,-101.11 1442.32,-82.91 1507.81,-72.79"/>
<polygon fill="#63b8ff" stroke="#63b8ff" points="1251.01,-112.47 1258.37,-107.69 1254.97,-111.86 1258.92,-111.25 1258.92,-111.25 1258.92,-111.25 1254.97,-111.86 1259.47,-114.81 1251.01,-112.47 1251.01,-112.47"/>
</g>
<!-- Node24 -->
<g id="node24" class="node">
<title>Node24</title>
<g id="a_node24"><a xlink:href="dsocommand_8h_source.html" target="_top" xlink:title=" ">
<polygon fill="white" stroke="#666666" points="1076,-74 984,-74 984,-55 1076,-55 1076,-74"/>
<text text-anchor="middle" x="1030" y="-62" font-family="Helvetica,sans-Serif" font-size="10.00">dsocommand.h</text>
</a>
</g>
</g>
<!-- Node23&#45;&gt;Node24 -->
<g id="edge30" class="edge">
<title>Node23&#45;&gt;Node24</title>
<path fill="none" stroke="#63b8ff" d="M1174.88,-107.69C1140.78,-97.76 1090.91,-83.24 1059.47,-74.08"/>
<polygon fill="#63b8ff" stroke="#63b8ff" points="1182.76,-109.98 1174.07,-111.2 1178.92,-108.87 1175.08,-107.75 1175.08,-107.75 1175.08,-107.75 1178.92,-108.87 1176.08,-104.29 1182.76,-109.98 1182.76,-109.98"/>
</g>
<!-- Node26 -->
<g id="node26" class="node">
<title>Node26</title>
<g id="a_node26"><a xlink:href="dsoservice_8cpp.html" target="_top" xlink:title="Defines the DsoService and DsoServicePrivate classes.">
<polygon fill="white" stroke="#666666" points="1268.5,-19 1179.5,-19 1179.5,0 1268.5,0 1268.5,-19"/>
<text text-anchor="middle" x="1224" y="-7" font-family="Helvetica,sans-Serif" font-size="10.00">dsoservice.cpp</text>
</a>
</g>
</g>
<!-- Node23&#45;&gt;Node26 -->
<g id="edge33" class="edge">
<title>Node23&#45;&gt;Node26</title>
<path fill="none" stroke="#63b8ff" d="M1213.87,-101.69C1216.46,-78.37 1221.05,-37.05 1223.04,-19.16"/>
<polygon fill="#63b8ff" stroke="#63b8ff" points="1212.98,-109.66 1210.29,-101.31 1213.42,-105.69 1213.87,-101.71 1213.87,-101.71 1213.87,-101.71 1213.42,-105.69 1217.44,-102.11 1212.98,-109.66 1212.98,-109.66"/>
</g>
<!-- Node27 -->
<g id="node27" class="node">
<title>Node27</title>
<g id="a_node27"><a xlink:href="dsoservice__p_8h.html" target="_top" xlink:title="Declares the DsoServicePrivate class.">
<polygon fill="white" stroke="#666666" points="1183.5,-74 1094.5,-74 1094.5,-55 1183.5,-55 1183.5,-74"/>
<text text-anchor="middle" x="1139" y="-62" font-family="Helvetica,sans-Serif" font-size="10.00">dsoservice_p.h</text>
</a>
</g>
</g>
<!-- Node23&#45;&gt;Node27 -->
<g id="edge34" class="edge">
<title>Node23&#45;&gt;Node27</title>
<path fill="none" stroke="#63b8ff" d="M1193.73,-105.23C1180.34,-95.51 1162.55,-82.6 1150.94,-74.17"/>
<polygon fill="#63b8ff" stroke="#63b8ff" points="1200.27,-109.98 1191.68,-108.2 1197.03,-107.63 1193.8,-105.28 1193.8,-105.28 1193.8,-105.28 1197.03,-107.63 1195.91,-102.37 1200.27,-109.98 1200.27,-109.98"/>
</g>
<!-- Node24&#45;&gt;Node13 -->
<g id="edge32" class="edge">
<title>Node24&#45;&gt;Node13</title>
<path fill="none" stroke="#63b8ff" d="M1023.56,-47.24C1019.88,-37.95 1015.41,-26.68 1012.4,-19.09"/>
<polygon fill="#63b8ff" stroke="#63b8ff" points="1026.53,-54.75 1020.24,-48.64 1025.06,-51.03 1023.59,-47.31 1023.59,-47.31 1023.59,-47.31 1025.06,-51.03 1026.93,-45.98 1026.53,-54.75 1026.53,-54.75"/>
</g>
<!-- Node25 -->
<g id="node25" class="node">
<title>Node25</title>
<g id="a_node25"><a xlink:href="dsocommand_8cpp_source.html" target="_top" xlink:title=" ">
<polygon fill="white" stroke="#666666" points="1161.5,-19 1058.5,-19 1058.5,0 1161.5,0 1161.5,-19"/>
<text text-anchor="middle" x="1110" y="-7" font-family="Helvetica,sans-Serif" font-size="10.00">dsocommand.cpp</text>
</a>
</g>
</g>
<!-- Node24&#45;&gt;Node25 -->
<g id="edge31" class="edge">
<title>Node24&#45;&gt;Node25</title>
<path fill="none" stroke="#63b8ff" d="M1049.62,-50.5C1064.34,-40.75 1084.07,-27.68 1096.91,-19.17"/>
<polygon fill="#63b8ff" stroke="#63b8ff" points="1042.85,-54.98 1047.53,-47.57 1046.19,-52.78 1049.52,-50.57 1049.52,-50.57 1049.52,-50.57 1046.19,-52.78 1051.51,-53.57 1042.85,-54.98 1042.85,-54.98"/>
</g>
<!-- Node27&#45;&gt;Node26 -->
<g id="edge35" class="edge">
<title>Node27&#45;&gt;Node26</title>
<path fill="none" stroke="#63b8ff" d="M1159.85,-50.5C1175.48,-40.75 1196.45,-27.68 1210.09,-19.17"/>
<polygon fill="#63b8ff" stroke="#63b8ff" points="1152.66,-54.98 1157.54,-47.7 1156.05,-52.87 1159.45,-50.75 1159.45,-50.75 1159.45,-50.75 1156.05,-52.87 1161.35,-53.81 1152.66,-54.98 1152.66,-54.98"/>
</g>
<!-- Node28&#45;&gt;Node7 -->
<g id="edge41" class="edge">
<title>Node28&#45;&gt;Node7</title>
<path fill="none" stroke="#63b8ff" d="M2365.53,-110.04C2365.35,-110.03 2365.18,-110.01 2365,-110 2047.45,-83.81 1966.84,-96.35 1649,-74 1633.8,-72.93 1617.24,-71.52 1602.31,-70.15"/>
<polygon fill="#63b8ff" stroke="#63b8ff" points="2373.65,-110.76 2365.37,-113.64 2369.67,-110.41 2365.68,-110.06 2365.68,-110.06 2365.68,-110.06 2369.67,-110.41 2366,-106.47 2373.65,-110.76 2373.65,-110.76"/>
</g>
<!-- Node29 -->
<g id="node29" class="node">
<title>Node29</title>
<g id="a_node29"><a xlink:href="genericaccessservice_8cpp.html" target="_top" xlink:title="Defines the GenericAccessService and GenericAccessServicePrivate classes.">
<polygon fill="white" stroke="#666666" points="2935.5,-19 2794.5,-19 2794.5,0 2935.5,0 2935.5,-19"/>
<text text-anchor="middle" x="2865" y="-7" font-family="Helvetica,sans-Serif" font-size="10.00">genericaccessservice.cpp</text>
</a>
</g>
</g>
<!-- Node28&#45;&gt;Node29 -->
<g id="edge38" class="edge">
<title>Node28&#45;&gt;Node29</title>
<path fill="none" stroke="#63b8ff" d="M2512.19,-109.97C2615.04,-97.91 2790.6,-76.99 2797,-74 2824.22,-61.27 2847.78,-33.52 2858.63,-19.29"/>
<polygon fill="#63b8ff" stroke="#63b8ff" points="2504,-110.93 2511.53,-106.43 2507.97,-110.47 2511.95,-110 2511.95,-110 2511.95,-110 2507.97,-110.47 2512.37,-113.58 2504,-110.93 2504,-110.93"/>
</g>
<!-- Node30 -->
<g id="node30" class="node">
<title>Node30</title>
<g id="a_node30"><a xlink:href="genericaccessservice__p_8h.html" target="_top" xlink:title="Declares the GenericAccessServicePrivate class.">
<polygon fill="white" stroke="#666666" points="2985.5,-74 2844.5,-74 2844.5,-55 2985.5,-55 2985.5,-74"/>
<text text-anchor="middle" x="2915" y="-62" font-family="Helvetica,sans-Serif" font-size="10.00">genericaccessservice_p.h</text>
</a>
</g>
</g>
<!-- Node28&#45;&gt;Node30 -->
<g id="edge39" class="edge">
<title>Node28&#45;&gt;Node30</title>
<path fill="none" stroke="#63b8ff" d="M2512.47,-110.06C2512.65,-110.04 2512.82,-110.02 2513,-110 2629,-96.92 2763.88,-82.06 2844.19,-73.25"/>
<polygon fill="#63b8ff" stroke="#63b8ff" points="2504.37,-110.98 2511.91,-106.5 2508.34,-110.53 2512.32,-110.08 2512.32,-110.08 2512.32,-110.08 2508.34,-110.53 2512.72,-113.65 2504.37,-110.98 2504.37,-110.98"/>
</g>
<!-- Node30&#45;&gt;Node29 -->
<g id="edge40" class="edge">
<title>Node30&#45;&gt;Node29</title>
<path fill="none" stroke="#63b8ff" d="M2901.23,-48.9C2892.2,-39.33 2880.7,-27.14 2873.1,-19.09"/>
<polygon fill="#63b8ff" stroke="#63b8ff" points="2906.74,-54.75 2898.64,-51.4 2904,-51.84 2901.25,-48.93 2901.25,-48.93 2901.25,-48.93 2904,-51.84 2903.87,-46.46 2906.74,-54.75 2906.74,-54.75"/>
</g>
<!-- Node31&#45;&gt;Node7 -->
<g id="edge49" class="edge">
<title>Node31&#45;&gt;Node7</title>
<path fill="none" stroke="#63b8ff" d="M1506.93,-104.7C1518.77,-95.04 1534.22,-82.44 1544.37,-74.17"/>
<polygon fill="#63b8ff" stroke="#63b8ff" points="1500.44,-109.98 1504.37,-102.14 1503.54,-107.46 1506.64,-104.93 1506.64,-104.93 1506.64,-104.93 1503.54,-107.46 1508.92,-107.72 1500.44,-109.98 1500.44,-109.98"/>
</g>
<!-- Node32 -->
<g id="node32" class="node">
<title>Node32</title>
<g id="a_node32"><a xlink:href="metercommand_8h_source.html" target="_top" xlink:title=" ">
<polygon fill="white" stroke="#666666" points="1344,-74 1240,-74 1240,-55 1344,-55 1344,-74"/>
<text text-anchor="middle" x="1292" y="-62" font-family="Helvetica,sans-Serif" font-size="10.00">metercommand.h</text>
</a>
</g>
</g>
<!-- Node31&#45;&gt;Node32 -->
<g id="edge43" class="edge">
<title>Node31&#45;&gt;Node32</title>
<path fill="none" stroke="#63b8ff" d="M1450.08,-107.82C1412.98,-97.88 1358.41,-83.28 1324.06,-74.08"/>
<polygon fill="#63b8ff" stroke="#63b8ff" points="1458.19,-109.98 1449.53,-111.39 1454.32,-108.95 1450.46,-107.92 1450.46,-107.92 1450.46,-107.92 1454.32,-108.95 1451.39,-104.44 1458.19,-109.98 1458.19,-109.98"/>
</g>
<!-- Node34 -->
<g id="node34" class="node">
<title>Node34</title>
<g id="a_node34"><a xlink:href="multimeterservice_8cpp.html" target="_top" xlink:title="Defines the MultimeterService and MultimeterServicePrivate classes.">
<polygon fill="white" stroke="#666666" points="1584.5,-19 1457.5,-19 1457.5,0 1584.5,0 1584.5,-19"/>
<text text-anchor="middle" x="1521" y="-7" font-family="Helvetica,sans-Serif" font-size="10.00">multimeterservice.cpp</text>
</a>
</g>
</g>
<!-- Node31&#45;&gt;Node34 -->
<g id="edge46" class="edge">
<title>Node31&#45;&gt;Node34</title>
<path fill="none" stroke="#63b8ff" d="M1555.93,-109.47C1577.03,-103.11 1598.22,-92.31 1611,-74 1629.05,-48.12 1586.45,-29.22 1553.88,-19.06"/>
<polygon fill="#63b8ff" stroke="#63b8ff" points="1548.17,-111.61 1554.92,-106.01 1552.02,-110.55 1555.88,-109.48 1555.88,-109.48 1555.88,-109.48 1552.02,-110.55 1556.84,-112.95 1548.17,-111.61 1548.17,-111.61"/>
</g>
<!-- Node35 -->
<g id="node35" class="node">
<title>Node35</title>
<g id="a_node35"><a xlink:href="multimeterservice__p_8h.html" target="_top" xlink:title="Declares the MultimeterServicePrivate class.">
<polygon fill="white" stroke="#666666" points="1489.5,-74 1362.5,-74 1362.5,-55 1489.5,-55 1489.5,-74"/>
<text text-anchor="middle" x="1426" y="-62" font-family="Helvetica,sans-Serif" font-size="10.00">multimeterservice_p.h</text>
</a>
</g>
</g>
<!-- Node31&#45;&gt;Node35 -->
<g id="edge47" class="edge">
<title>Node31&#45;&gt;Node35</title>
<path fill="none" stroke="#63b8ff" d="M1473.33,-104.7C1461.67,-95.04 1446.46,-82.44 1436.47,-74.17"/>
<polygon fill="#63b8ff" stroke="#63b8ff" points="1479.72,-109.98 1471.26,-107.65 1476.64,-107.43 1473.56,-104.88 1473.56,-104.88 1473.56,-104.88 1476.64,-107.43 1475.85,-102.11 1479.72,-109.98 1479.72,-109.98"/>
</g>
<!-- Node32&#45;&gt;Node13 -->
<g id="edge44" class="edge">
<title>Node32&#45;&gt;Node13</title>
<path fill="none" stroke="#63b8ff" d="M1235.05,-53.54C1185.75,-44.8 1112.57,-31.57 1049,-19 1046.21,-18.45 1043.32,-17.86 1040.43,-17.27"/>
<polygon fill="#63b8ff" stroke="#63b8ff" points="1243.05,-54.96 1234.55,-57.11 1239.11,-54.26 1235.17,-53.56 1235.17,-53.56 1235.17,-53.56 1239.11,-54.26 1235.8,-50.02 1243.05,-54.96 1243.05,-54.96"/>
</g>
<!-- Node33 -->
<g id="node33" class="node">
<title>Node33</title>
<g id="a_node33"><a xlink:href="metercommand_8cpp_source.html" target="_top" xlink:title=" ">
<polygon fill="white" stroke="#666666" points="1401.5,-19 1286.5,-19 1286.5,0 1401.5,0 1401.5,-19"/>
<text text-anchor="middle" x="1344" y="-7" font-family="Helvetica,sans-Serif" font-size="10.00">metercommand.cpp</text>
</a>
</g>
</g>
<!-- Node32&#45;&gt;Node33 -->
<g id="edge45" class="edge">
<title>Node32&#45;&gt;Node33</title>
<path fill="none" stroke="#63b8ff" d="M1306.32,-48.9C1315.71,-39.33 1327.68,-27.14 1335.57,-19.09"/>
<polygon fill="#63b8ff" stroke="#63b8ff" points="1300.59,-54.75 1303.62,-46.52 1303.39,-51.89 1306.19,-49.04 1306.19,-49.04 1306.19,-49.04 1303.39,-51.89 1308.76,-51.56 1300.59,-54.75 1300.59,-54.75"/>
</g>
<!-- Node35&#45;&gt;Node34 -->
<g id="edge48" class="edge">
<title>Node35&#45;&gt;Node34</title>
<path fill="none" stroke="#63b8ff" d="M1448.35,-51.03C1465.92,-41.23 1489.94,-27.83 1505.46,-19.17"/>
<polygon fill="#63b8ff" stroke="#63b8ff" points="1441.26,-54.98 1446.5,-47.94 1444.76,-53.04 1448.25,-51.09 1448.25,-51.09 1448.25,-51.09 1444.76,-53.04 1450,-54.23 1441.26,-54.98 1441.26,-54.98"/>
</g>
<!-- Node36&#45;&gt;Node7 -->
<g id="edge53" class="edge">
<title>Node36&#45;&gt;Node7</title>
<path fill="none" stroke="#63b8ff" d="M1845.01,-110.18C1778.27,-99.9 1665.73,-82.56 1602.25,-72.78"/>
<polygon fill="#63b8ff" stroke="#63b8ff" points="1853.32,-111.46 1844.86,-113.8 1849.37,-110.85 1845.41,-110.24 1845.41,-110.24 1845.41,-110.24 1849.37,-110.85 1845.96,-106.69 1853.32,-111.46 1853.32,-111.46"/>
</g>
<!-- Node36&#45;&gt;Node9 -->
<g id="edge51" class="edge">
<title>Node36&#45;&gt;Node9</title>
<path fill="none" stroke="#63b8ff" d="M1845.15,-117.09C1596.36,-110.56 569,-83.07 537,-74 534.38,-73.26 470.71,-36.43 441,-19.21"/>
<polygon fill="#63b8ff" stroke="#63b8ff" points="1853.32,-117.31 1845.23,-120.7 1849.32,-117.2 1845.32,-117.1 1845.32,-117.1 1845.32,-117.1 1849.32,-117.2 1845.42,-113.5 1853.32,-117.31 1853.32,-117.31"/>
</g>
<!-- Node37 -->
<g id="node37" class="node">
<title>Node37</title>
<g id="a_node37"><a xlink:href="flashledcommand_8cpp_source.html" target="_top" xlink:title=" ">
<polygon fill="white" stroke="#666666" points="2330,-74 2206,-74 2206,-55 2330,-55 2330,-74"/>
<text text-anchor="middle" x="2268" y="-62" font-family="Helvetica,sans-Serif" font-size="10.00">flashledcommand.cpp</text>
</a>
</g>
</g>
<!-- Node36&#45;&gt;Node37 -->
<g id="edge52" class="edge">
<title>Node36&#45;&gt;Node37</title>
<path fill="none" stroke="#63b8ff" d="M1952.68,-110.79C2020.85,-101 2138.08,-84.16 2208.78,-74.01"/>
<polygon fill="#63b8ff" stroke="#63b8ff" points="1944.62,-111.95 1952.02,-107.25 1948.58,-111.38 1952.54,-110.81 1952.54,-110.81 1952.54,-110.81 1948.58,-111.38 1953.05,-114.37 1944.62,-111.95 1944.62,-111.95"/>
</g>
<!-- Node38 -->
<g id="node38" class="node">
<title>Node38</title>
<g id="a_node38"><a xlink:href="pokitdiscoveryagent_8cpp.html" target="_top" xlink:title="Defines the PokitDiscoveryAgent and PokitDiscoveryAgentPrivate classes.">
<polygon fill="white" stroke="#666666" points="2485.5,-74 2348.5,-74 2348.5,-55 2485.5,-55 2485.5,-74"/>
<text text-anchor="middle" x="2417" y="-62" font-family="Helvetica,sans-Serif" font-size="10.00">pokitdiscoveryagent.cpp</text>
</a>
</g>
</g>
<!-- Node36&#45;&gt;Node38 -->
<g id="edge54" class="edge">
<title>Node36&#45;&gt;Node38</title>
<path fill="none" stroke="#63b8ff" d="M1952.62,-113.21C2035.5,-105.01 2199.7,-88.63 2339,-74 2341.98,-73.69 2345.02,-73.36 2348.1,-73.04"/>
<polygon fill="#63b8ff" stroke="#63b8ff" points="1944.62,-114 1952.22,-109.63 1948.6,-113.61 1952.58,-113.22 1952.58,-113.22 1952.58,-113.22 1948.6,-113.61 1952.93,-116.8 1944.62,-114 1944.62,-114"/>
</g>
<!-- Node39 -->
<g id="node39" class="node">
<title>Node39</title>
<g id="a_node39"><a xlink:href="pokitproducts_8cpp.html" target="_top" xlink:title="Defines the PokitProduct helper functions.">
<polygon fill="white" stroke="#666666" points="1884,-74 1780,-74 1780,-55 1884,-55 1884,-74"/>
<text text-anchor="middle" x="1832" y="-62" font-family="Helvetica,sans-Serif" font-size="10.00">pokitproducts.cpp</text>
</a>
</g>
</g>
<!-- Node36&#45;&gt;Node39 -->
<g id="edge55" class="edge">
<title>Node36&#45;&gt;Node39</title>
<path fill="none" stroke="#63b8ff" d="M1881.89,-104.97C1869.64,-95.28 1853.52,-82.52 1842.96,-74.17"/>
<polygon fill="#63b8ff" stroke="#63b8ff" points="1888.24,-109.98 1879.73,-107.84 1885.1,-107.5 1881.96,-105.02 1881.96,-105.02 1881.96,-105.02 1885.1,-107.5 1884.19,-102.2 1888.24,-109.98 1888.24,-109.98"/>
</g>
<!-- Node40 -->
<g id="node40" class="node">
<title>Node40</title>
<g id="a_node40"><a xlink:href="setnamecommand_8cpp_source.html" target="_top" xlink:title=" ">
<polygon fill="white" stroke="#666666" points="2030,-74 1902,-74 1902,-55 2030,-55 2030,-74"/>
<text text-anchor="middle" x="1966" y="-62" font-family="Helvetica,sans-Serif" font-size="10.00">setnamecommand.cpp</text>
</a>
</g>
</g>
<!-- Node36&#45;&gt;Node40 -->
<g id="edge56" class="edge">
<title>Node36&#45;&gt;Node40</title>
<path fill="none" stroke="#63b8ff" d="M1916.11,-104.97C1928.36,-95.28 1944.48,-82.52 1955.04,-74.17"/>
<polygon fill="#63b8ff" stroke="#63b8ff" points="1909.76,-109.98 1913.81,-102.2 1912.9,-107.5 1916.04,-105.02 1916.04,-105.02 1916.04,-105.02 1912.9,-107.5 1918.27,-107.84 1909.76,-109.98 1909.76,-109.98"/>
</g>
<!-- Node41 -->
<g id="node41" class="node">
<title>Node41</title>
<g id="a_node41"><a xlink:href="statuscommand_8h_source.html" target="_top" xlink:title=" ">
<polygon fill="white" stroke="#666666" points="1762,-74 1658,-74 1658,-55 1762,-55 1762,-74"/>
<text text-anchor="middle" x="1710" y="-62" font-family="Helvetica,sans-Serif" font-size="10.00">statuscommand.h</text>
</a>
</g>
</g>
<!-- Node36&#45;&gt;Node41 -->
<g id="edge57" class="edge">
<title>Node36&#45;&gt;Node41</title>
<path fill="none" stroke="#63b8ff" d="M1860.9,-107.82C1825.48,-97.88 1773.39,-83.28 1740.6,-74.08"/>
<polygon fill="#63b8ff" stroke="#63b8ff" points="1868.63,-109.98 1859.96,-111.29 1864.78,-108.9 1860.93,-107.82 1860.93,-107.82 1860.93,-107.82 1864.78,-108.9 1861.9,-104.36 1868.63,-109.98 1868.63,-109.98"/>
</g>
<!-- Node43 -->
<g id="node43" class="node">
<title>Node43</title>
<g id="a_node43"><a xlink:href="statusservice_8cpp.html" target="_top" xlink:title="Defines the StatusService and StatusServicePrivate classes.">
<polygon fill="white" stroke="#666666" points="2189,-19 2087,-19 2087,0 2189,0 2189,-19"/>
<text text-anchor="middle" x="2138" y="-7" font-family="Helvetica,sans-Serif" font-size="10.00">statusservice.cpp</text>
</a>
</g>
</g>
<!-- Node36&#45;&gt;Node43 -->
<g id="edge60" class="edge">
<title>Node36&#45;&gt;Node43</title>
<path fill="none" stroke="#63b8ff" d="M1952.7,-117.16C2020.99,-114.19 2133.15,-104.65 2159,-74 2172.62,-57.85 2156.26,-32.57 2145.66,-19.3"/>
<polygon fill="#63b8ff" stroke="#63b8ff" points="1944.6,-117.49 1952.45,-113.57 1948.6,-117.33 1952.6,-117.16 1952.6,-117.16 1952.6,-117.16 1948.6,-117.33 1952.74,-120.76 1944.6,-117.49 1944.6,-117.49"/>
</g>
<!-- Node44 -->
<g id="node44" class="node">
<title>Node44</title>
<g id="a_node44"><a xlink:href="statusservice__p_8h.html" target="_top" xlink:title="Declares the StatusServicePrivate class.">
<polygon fill="white" stroke="#666666" points="2150,-74 2048,-74 2048,-55 2150,-55 2150,-74"/>
<text text-anchor="middle" x="2099" y="-62" font-family="Helvetica,sans-Serif" font-size="10.00">statusservice_p.h</text>
</a>
</g>
</g>
<!-- Node36&#45;&gt;Node44 -->
<g id="edge61" class="edge">
<title>Node36&#45;&gt;Node44</title>
<path fill="none" stroke="#63b8ff" d="M1939.32,-107.82C1976.8,-97.88 2031.92,-83.28 2066.61,-74.08"/>
<polygon fill="#63b8ff" stroke="#63b8ff" points="1931.13,-109.98 1937.94,-104.46 1935,-108.96 1938.87,-107.94 1938.87,-107.94 1938.87,-107.94 1935,-108.96 1939.79,-111.42 1931.13,-109.98 1931.13,-109.98"/>
</g>
<!-- Node41&#45;&gt;Node13 -->
<g id="edge58" class="edge">
<title>Node41&#45;&gt;Node13</title>
<path fill="none" stroke="#63b8ff" d="M1649.6,-58.1C1636.86,-57.02 1623.49,-55.94 1611,-55 1361.41,-36.29 1296.96,-53.1 1049,-19 1046.19,-18.61 1043.28,-18.14 1040.37,-17.62"/>
<polygon fill="#63b8ff" stroke="#63b8ff" points="1657.87,-58.81 1649.59,-61.72 1653.88,-58.47 1649.9,-58.13 1649.9,-58.13 1649.9,-58.13 1653.88,-58.47 1650.2,-54.54 1657.87,-58.81 1657.87,-58.81"/>
</g>
<!-- Node42 -->
<g id="node42" class="node">
<title>Node42</title>
<g id="a_node42"><a xlink:href="statuscommand_8cpp_source.html" target="_top" xlink:title=" ">
<polygon fill="white" stroke="#666666" points="1768,-19 1652,-19 1652,0 1768,0 1768,-19"/>
<text text-anchor="middle" x="1710" y="-7" font-family="Helvetica,sans-Serif" font-size="10.00">statuscommand.cpp</text>
</a>
</g>
</g>
<!-- Node41&#45;&gt;Node42 -->
<g id="edge59" class="edge">
<title>Node41&#45;&gt;Node42</title>
<path fill="none" stroke="#63b8ff" d="M1710,-46.67C1710,-37.5 1710,-26.52 1710,-19.09"/>
<polygon fill="#63b8ff" stroke="#63b8ff" points="1710,-54.75 1706.4,-46.75 1710,-50.75 1710,-46.75 1710,-46.75 1710,-46.75 1710,-50.75 1713.6,-46.75 1710,-54.75 1710,-54.75"/>
</g>
<!-- Node44&#45;&gt;Node43 -->
<g id="edge62" class="edge">
<title>Node44&#45;&gt;Node43</title>
<path fill="none" stroke="#63b8ff" d="M2110.35,-48.08C2117.3,-38.64 2125.93,-26.91 2131.68,-19.09"/>
<polygon fill="#63b8ff" stroke="#63b8ff" points="2105.44,-54.75 2107.28,-46.17 2107.81,-51.53 2110.18,-48.3 2110.18,-48.3 2110.18,-48.3 2107.81,-51.53 2113.08,-50.44 2105.44,-54.75 2105.44,-54.75"/>
</g>
</g>
</svg>
