<?xml version="1.0" encoding="UTF-8" standalone="no"?>
<!DOCTYPE svg PUBLIC "-//W3C//DTD SVG 1.1//EN"
 "http://www.w3.org/Graphics/SVG/1.1/DTD/svg11.dtd">
<!-- Generated by graphviz version 2.43.0 (0)
 -->
<!-- Title: abstractpokitservice.h Pages: 1 -->
<svg width="1371pt" height="196pt"
 viewBox="0.00 0.00 1370.50 196.00" xmlns="http://www.w3.org/2000/svg" xmlns:xlink="http://www.w3.org/1999/xlink">
<g id="graph0" class="graph" transform="scale(1 1) rotate(0) translate(4 192)">
<title>abstractpokitservice.h</title>
<!-- Node1 -->
<g id="node1" class="node">
<title>Node1</title>
<g id="a_node1"><a xlink:title="Declares the AbstractPokitService class.">
<polygon fill="#bfbfbf" stroke="black" points="272,-168.5 272,-187.5 397,-187.5 397,-168.5 272,-168.5"/>
<text text-anchor="middle" x="334.5" y="-175.5" font-family="Helvetica,sans-Serif" font-size="10.00">abstractpokitservice.h</text>
</a>
</g>
</g>
<!-- Node2 -->
<g id="node2" class="node">
<title>Node2</title>
<g id="a_node2"><a xlink:href="abstractpokitservice_8cpp.html" target="_top" xlink:title="Defines the AbstractPokitService and AbstractPokitServicePrivate classes.">
<polygon fill="none" stroke="black" points="40,-112.5 40,-131.5 177,-131.5 177,-112.5 40,-112.5"/>
<text text-anchor="middle" x="108.5" y="-119.5" font-family="Helvetica,sans-Serif" font-size="10.00">abstractpokitservice.cpp</text>
</a>
</g>
</g>
<!-- Node1&#45;&gt;Node2 -->
<g id="edge1" class="edge">
<title>Node1&#45;&gt;Node2</title>
<path fill="none" stroke="midnightblue" d="M288.83,-166.09C246.14,-155.89 183.25,-140.86 144.14,-131.52"/>
<polygon fill="midnightblue" stroke="midnightblue" points="288.15,-169.52 298.69,-168.44 289.78,-162.72 288.15,-169.52"/>
</g>
<!-- Node3 -->
<g id="node3" class="node">
<title>Node3</title>
<g id="a_node3"><a xlink:href="deviceinfoservice_8h.html" target="_top" xlink:title="Declares the DeviceInfoService class.">
<polygon fill="none" stroke="black" points="195.5,-112.5 195.5,-131.5 307.5,-131.5 307.5,-112.5 195.5,-112.5"/>
<text text-anchor="middle" x="251.5" y="-119.5" font-family="Helvetica,sans-Serif" font-size="10.00">deviceinfoservice.h</text>
</a>
</g>
</g>
<!-- Node1&#45;&gt;Node3 -->
<g id="edge2" class="edge">
<title>Node1&#45;&gt;Node3</title>
<path fill="none" stroke="midnightblue" d="M312.4,-162.62C297.24,-152.76 277.62,-139.99 264.8,-131.65"/>
<polygon fill="midnightblue" stroke="midnightblue" points="310.87,-165.8 321.16,-168.32 314.69,-159.94 310.87,-165.8"/>
</g>
<!-- Node8 -->
<g id="node8" class="node">
<title>Node8</title>
<g id="a_node8"><a xlink:href="genericaccessservice_8h.html" target="_top" xlink:title="Declares the GenericAccessService class.">
<polygon fill="none" stroke="black" points="339.5,-112.5 339.5,-131.5 469.5,-131.5 469.5,-112.5 339.5,-112.5"/>
<text text-anchor="middle" x="404.5" y="-119.5" font-family="Helvetica,sans-Serif" font-size="10.00">genericaccessservice.h</text>
</a>
</g>
</g>
<!-- Node1&#45;&gt;Node8 -->
<g id="edge8" class="edge">
<title>Node1&#45;&gt;Node8</title>
<path fill="none" stroke="midnightblue" d="M353.81,-162.1C366.41,-152.38 382.43,-140.03 393.05,-131.83"/>
<polygon fill="midnightblue" stroke="midnightblue" points="351.53,-159.44 345.75,-168.32 355.8,-164.99 351.53,-159.44"/>
</g>
<!-- Node11 -->
<g id="node11" class="node">
<title>Node11</title>
<g id="a_node11"><a xlink:href="statusservice_8h.html" target="_top" xlink:title="Declares the StatusService class.">
<polygon fill="none" stroke="black" points="879,-112.5 879,-131.5 970,-131.5 970,-112.5 879,-112.5"/>
<text text-anchor="middle" x="924.5" y="-119.5" font-family="Helvetica,sans-Serif" font-size="10.00">statusservice.h</text>
</a>
</g>
</g>
<!-- Node1&#45;&gt;Node11 -->
<g id="edge13" class="edge">
<title>Node1&#45;&gt;Node11</title>
<path fill="none" stroke="midnightblue" d="M407.18,-170.35C530.43,-159.07 776.95,-136.5 878.83,-127.18"/>
<polygon fill="midnightblue" stroke="midnightblue" points="406.72,-166.88 397.08,-171.27 407.36,-173.85 406.72,-166.88"/>
</g>
<!-- Node4 -->
<g id="node4" class="node">
<title>Node4</title>
<g id="a_node4"><a xlink:href="deviceinfoservice_8cpp.html" target="_top" xlink:title="Defines the DeviceInfoService and DeviceInfoServicePrivate classes.">
<polygon fill="none" stroke="black" points="0,-0.5 0,-19.5 123,-19.5 123,-0.5 0,-0.5"/>
<text text-anchor="middle" x="61.5" y="-7.5" font-family="Helvetica,sans-Serif" font-size="10.00">deviceinfoservice.cpp</text>
</a>
</g>
</g>
<!-- Node3&#45;&gt;Node4 -->
<g id="edge3" class="edge">
<title>Node3&#45;&gt;Node4</title>
<path fill="none" stroke="midnightblue" d="M185.09,-111.44C125.19,-102.15 45.05,-87.75 35.5,-76 21.54,-58.84 40.57,-33.22 52.74,-19.85"/>
<polygon fill="midnightblue" stroke="midnightblue" points="184.85,-114.95 195.26,-113.01 185.91,-108.03 184.85,-114.95"/>
</g>
<!-- Node5 -->
<g id="node5" class="node">
<title>Node5</title>
<g id="a_node5"><a xlink:href="deviceinfoservice__p_8h.html" target="_top" xlink:title="Declares the DeviceInfoServicePrivate class.">
<polygon fill="none" stroke="black" points="45,-56.5 45,-75.5 168,-75.5 168,-56.5 45,-56.5"/>
<text text-anchor="middle" x="106.5" y="-63.5" font-family="Helvetica,sans-Serif" font-size="10.00">deviceinfoservice_p.h</text>
</a>
</g>
</g>
<!-- Node3&#45;&gt;Node5 -->
<g id="edge4" class="edge">
<title>Node3&#45;&gt;Node5</title>
<path fill="none" stroke="midnightblue" d="M219.02,-108.91C191.76,-98.75 153.51,-84.51 129.37,-75.52"/>
<polygon fill="midnightblue" stroke="midnightblue" points="217.93,-112.23 228.52,-112.44 220.37,-105.67 217.93,-112.23"/>
</g>
<!-- Node6 -->
<g id="node6" class="node">
<title>Node6</title>
<g id="a_node6"><a xlink:href="infocommand_8cpp_source.html" target="_top" xlink:title=" ">
<polygon fill="none" stroke="black" points="186.5,-56.5 186.5,-75.5 290.5,-75.5 290.5,-56.5 186.5,-56.5"/>
<text text-anchor="middle" x="238.5" y="-63.5" font-family="Helvetica,sans-Serif" font-size="10.00">infocommand.cpp</text>
</a>
</g>
</g>
<!-- Node3&#45;&gt;Node6 -->
<g id="edge6" class="edge">
<title>Node3&#45;&gt;Node6</title>
<path fill="none" stroke="midnightblue" d="M246.95,-102.1C244.79,-93.14 242.32,-82.86 240.61,-75.75"/>
<polygon fill="midnightblue" stroke="midnightblue" points="243.61,-103.18 249.35,-112.08 250.42,-101.54 243.61,-103.18"/>
</g>
<!-- Node7 -->
<g id="node7" class="node">
<title>Node7</title>
<g id="a_node7"><a xlink:href="pokitdevice_8cpp.html" target="_top" xlink:title="Defines the PokitDevice and PokitDevicePrivate classes.">
<polygon fill="none" stroke="black" points="308.5,-56.5 308.5,-75.5 402.5,-75.5 402.5,-56.5 308.5,-56.5"/>
<text text-anchor="middle" x="355.5" y="-63.5" font-family="Helvetica,sans-Serif" font-size="10.00">pokitdevice.cpp</text>
</a>
</g>
</g>
<!-- Node3&#45;&gt;Node7 -->
<g id="edge7" class="edge">
<title>Node3&#45;&gt;Node7</title>
<path fill="none" stroke="midnightblue" d="M277.33,-107.59C296.56,-97.61 322.24,-84.27 338.83,-75.65"/>
<polygon fill="midnightblue" stroke="midnightblue" points="275.47,-104.61 268.21,-112.32 278.7,-110.82 275.47,-104.61"/>
</g>
<!-- Node5&#45;&gt;Node4 -->
<g id="edge5" class="edge">
<title>Node5&#45;&gt;Node4</title>
<path fill="none" stroke="midnightblue" d="M92.45,-48.14C84.61,-38.74 75.17,-27.4 68.79,-19.75"/>
<polygon fill="midnightblue" stroke="midnightblue" points="89.98,-50.64 99.07,-56.08 95.36,-46.16 89.98,-50.64"/>
</g>
<!-- Node8&#45;&gt;Node7 -->
<g id="edge12" class="edge">
<title>Node8&#45;&gt;Node7</title>
<path fill="none" stroke="midnightblue" d="M389.47,-104.43C380.88,-94.97 370.46,-83.48 363.44,-75.75"/>
<polygon fill="midnightblue" stroke="midnightblue" points="387.1,-107.03 396.41,-112.08 392.28,-102.33 387.1,-107.03"/>
</g>
<!-- Node9 -->
<g id="node9" class="node">
<title>Node9</title>
<g id="a_node9"><a xlink:href="genericaccessservice_8cpp.html" target="_top" xlink:title="Defines the GenericAccessService and GenericAccessServicePrivate classes.">
<polygon fill="none" stroke="black" points="409,-0.5 409,-19.5 550,-19.5 550,-0.5 409,-0.5"/>
<text text-anchor="middle" x="479.5" y="-7.5" font-family="Helvetica,sans-Serif" font-size="10.00">genericaccessservice.cpp</text>
</a>
</g>
</g>
<!-- Node8&#45;&gt;Node9 -->
<g id="edge9" class="edge">
<title>Node8&#45;&gt;Node9</title>
<path fill="none" stroke="midnightblue" d="M416.12,-103.96C432.37,-80.12 461.29,-37.71 473.64,-19.59"/>
<polygon fill="midnightblue" stroke="midnightblue" points="413.13,-102.13 410.39,-112.37 418.91,-106.08 413.13,-102.13"/>
</g>
<!-- Node10 -->
<g id="node10" class="node">
<title>Node10</title>
<g id="a_node10"><a xlink:href="genericaccessservice__p_8h.html" target="_top" xlink:title="Declares the GenericAccessServicePrivate class.">
<polygon fill="none" stroke="black" points="459,-56.5 459,-75.5 600,-75.5 600,-56.5 459,-56.5"/>
<text text-anchor="middle" x="529.5" y="-63.5" font-family="Helvetica,sans-Serif" font-size="10.00">genericaccessservice_p.h</text>
</a>
</g>
</g>
<!-- Node8&#45;&gt;Node10 -->
<g id="edge10" class="edge">
<title>Node8&#45;&gt;Node10</title>
<path fill="none" stroke="midnightblue" d="M433.74,-108.37C457.15,-98.26 489.34,-84.35 509.79,-75.52"/>
<polygon fill="midnightblue" stroke="midnightblue" points="432.1,-105.26 424.31,-112.44 434.87,-111.69 432.1,-105.26"/>
</g>
<!-- Node10&#45;&gt;Node9 -->
<g id="edge11" class="edge">
<title>Node10&#45;&gt;Node9</title>
<path fill="none" stroke="midnightblue" d="M514.42,-48.72C505.61,-39.2 494.83,-27.56 487.6,-19.75"/>
<polygon fill="midnightblue" stroke="midnightblue" points="511.88,-51.12 521.24,-56.08 517.02,-46.37 511.88,-51.12"/>
</g>
<!-- Node11&#45;&gt;Node7 -->
<g id="edge15" class="edge">
<title>Node11&#45;&gt;Node7</title>
<path fill="none" stroke="midnightblue" d="M868.87,-115.75C780.17,-107.37 601.2,-90.45 449.5,-76 434.32,-74.55 417.77,-72.97 402.84,-71.54"/>
<polygon fill="midnightblue" stroke="midnightblue" points="868.69,-119.25 878.98,-116.7 869.35,-112.28 868.69,-119.25"/>
</g>
<!-- Node12 -->
<g id="node12" class="node">
<title>Node12</title>
<g id="a_node12"><a xlink:href="flashledcommand_8cpp_source.html" target="_top" xlink:title=" ">
<polygon fill="none" stroke="black" points="618.5,-56.5 618.5,-75.5 742.5,-75.5 742.5,-56.5 618.5,-56.5"/>
<text text-anchor="middle" x="680.5" y="-63.5" font-family="Helvetica,sans-Serif" font-size="10.00">flashledcommand.cpp</text>
</a>
</g>
</g>
<!-- Node11&#45;&gt;Node12 -->
<g id="edge14" class="edge">
<title>Node11&#45;&gt;Node12</title>
<path fill="none" stroke="midnightblue" d="M876.07,-110.28C829.96,-100.08 761.47,-84.92 718.98,-75.52"/>
<polygon fill="midnightblue" stroke="midnightblue" points="875.32,-113.7 885.84,-112.44 876.83,-106.87 875.32,-113.7"/>
</g>
<!-- Node13 -->
<g id="node13" class="node">
<title>Node13</title>
<g id="a_node13"><a xlink:href="pokitdevicedisoveryagent_8cpp.html" target="_top" xlink:title="Defines the PokitDeviceDiscoveryAgent and PokitDeviceDiscoveryAgentPrivate classes.">
<polygon fill="none" stroke="black" points="760.5,-56.5 760.5,-75.5 924.5,-75.5 924.5,-56.5 760.5,-56.5"/>
<text text-anchor="middle" x="842.5" y="-63.5" font-family="Helvetica,sans-Serif" font-size="10.00">pokitdevicedisoveryagent.cpp</text>
</a>
</g>
</g>
<!-- Node11&#45;&gt;Node13 -->
<g id="edge16" class="edge">
<title>Node11&#45;&gt;Node13</title>
<path fill="none" stroke="midnightblue" d="M902.67,-106.62C887.69,-96.76 868.3,-83.99 855.64,-75.65"/>
<polygon fill="midnightblue" stroke="midnightblue" points="901.05,-109.75 911.33,-112.32 904.9,-103.9 901.05,-109.75"/>
</g>
<!-- Node14 -->
<g id="node14" class="node">
<title>Node14</title>
<g id="a_node14"><a xlink:href="setnamecommand_8cpp_source.html" target="_top" xlink:title=" ">
<polygon fill="none" stroke="black" points="942.5,-56.5 942.5,-75.5 1070.5,-75.5 1070.5,-56.5 942.5,-56.5"/>
<text text-anchor="middle" x="1006.5" y="-63.5" font-family="Helvetica,sans-Serif" font-size="10.00">setnamecommand.cpp</text>
</a>
</g>
</g>
<!-- Node11&#45;&gt;Node14 -->
<g id="edge17" class="edge">
<title>Node11&#45;&gt;Node14</title>
<path fill="none" stroke="midnightblue" d="M946.33,-106.62C961.31,-96.76 980.7,-83.99 993.36,-75.65"/>
<polygon fill="midnightblue" stroke="midnightblue" points="944.1,-103.9 937.67,-112.32 947.95,-109.75 944.1,-103.9"/>
</g>
<!-- Node15 -->
<g id="node15" class="node">
<title>Node15</title>
<g id="a_node15"><a xlink:href="statuscommand_8cpp_source.html" target="_top" xlink:title=" ">
<polygon fill="none" stroke="black" points="1088.5,-56.5 1088.5,-75.5 1204.5,-75.5 1204.5,-56.5 1088.5,-56.5"/>
<text text-anchor="middle" x="1146.5" y="-63.5" font-family="Helvetica,sans-Serif" font-size="10.00">statuscommand.cpp</text>
</a>
</g>
</g>
<!-- Node11&#45;&gt;Node15 -->
<g id="edge18" class="edge">
<title>Node11&#45;&gt;Node15</title>
<path fill="none" stroke="midnightblue" d="M969.62,-110.02C1011.56,-99.82 1073.15,-84.84 1111.49,-75.52"/>
<polygon fill="midnightblue" stroke="midnightblue" points="968.57,-106.68 959.68,-112.44 970.22,-113.48 968.57,-106.68"/>
</g>
<!-- Node16 -->
<g id="node16" class="node">
<title>Node16</title>
<g id="a_node16"><a xlink:href="statusservice_8cpp.html" target="_top" xlink:title="Defines the StatusService and StatusServicePrivate classes.">
<polygon fill="none" stroke="black" points="1220.5,-0.5 1220.5,-19.5 1322.5,-19.5 1322.5,-0.5 1220.5,-0.5"/>
<text text-anchor="middle" x="1271.5" y="-7.5" font-family="Helvetica,sans-Serif" font-size="10.00">statusservice.cpp</text>
</a>
</g>
</g>
<!-- Node11&#45;&gt;Node16 -->
<g id="edge19" class="edge">
<title>Node11&#45;&gt;Node16</title>
<path fill="none" stroke="midnightblue" d="M980.51,-116.78C1052.91,-110.56 1174.34,-97.31 1213.5,-76 1238.21,-62.55 1257.63,-34.33 1266.4,-19.91"/>
<polygon fill="midnightblue" stroke="midnightblue" points="979.87,-113.32 970.2,-117.65 980.46,-120.3 979.87,-113.32"/>
</g>
<!-- Node17 -->
<g id="node17" class="node">
<title>Node17</title>
<g id="a_node17"><a xlink:href="statusservice__p_8h.html" target="_top" xlink:title="Declares the StatusServicePrivate class.">
<polygon fill="none" stroke="black" points="1260.5,-56.5 1260.5,-75.5 1362.5,-75.5 1362.5,-56.5 1260.5,-56.5"/>
<text text-anchor="middle" x="1311.5" y="-63.5" font-family="Helvetica,sans-Serif" font-size="10.00">statusservice_p.h</text>
</a>
</g>
</g>
<!-- Node11&#45;&gt;Node17 -->
<g id="edge20" class="edge">
<title>Node11&#45;&gt;Node17</title>
<path fill="none" stroke="midnightblue" d="M980.23,-113.22C1055.25,-102.76 1187.69,-84.28 1260.32,-74.14"/>
<polygon fill="midnightblue" stroke="midnightblue" points="979.45,-109.8 970.03,-114.65 980.42,-116.73 979.45,-109.8"/>
</g>
<!-- Node17&#45;&gt;Node16 -->
<g id="edge21" class="edge">
<title>Node17&#45;&gt;Node16</title>
<path fill="none" stroke="midnightblue" d="M1298.8,-47.86C1291.87,-38.5 1283.59,-27.33 1277.98,-19.75"/>
<polygon fill="midnightblue" stroke="midnightblue" points="1296.13,-50.13 1304.89,-56.08 1301.75,-45.96 1296.13,-50.13"/>
</g>
</g>
</svg>
