<?xml version="1.0" encoding="UTF-8" standalone="no"?>
<!DOCTYPE svg PUBLIC "-//W3C//DTD SVG 1.1//EN"
 "http://www.w3.org/Graphics/SVG/1.1/DTD/svg11.dtd">
<!-- Generated by graphviz version 2.43.0 (0)
 -->
<!-- Title: abstractpokitservice.h Pages: 1 -->
<svg width="2276pt" height="196pt"
 viewBox="0.00 0.00 2276.00 196.00" xmlns="http://www.w3.org/2000/svg" xmlns:xlink="http://www.w3.org/1999/xlink">
<g id="graph0" class="graph" transform="scale(1 1) rotate(0) translate(4 192)">
<title>abstractpokitservice.h</title>
<!-- Node1 -->
<g id="node1" class="node">
<title>Node1</title>
<g id="a_node1"><a xlink:title="Declares the AbstractPokitService class.">
<polygon fill="#bfbfbf" stroke="black" points="948.5,-168.5 948.5,-187.5 1073.5,-187.5 1073.5,-168.5 948.5,-168.5"/>
<text text-anchor="middle" x="1011" y="-175.5" font-family="Helvetica,sans-Serif" font-size="10.00">abstractpokitservice.h</text>
</a>
</g>
</g>
<!-- Node2 -->
<g id="node2" class="node">
<title>Node2</title>
<g id="a_node2"><a xlink:href="abstractpokitservice_8cpp.html" target="_top" xlink:title="Defines the AbstractPokitService and AbstractPokitServicePrivate classes.">
<polygon fill="none" stroke="black" points="152.5,-112.5 152.5,-131.5 289.5,-131.5 289.5,-112.5 152.5,-112.5"/>
<text text-anchor="middle" x="221" y="-119.5" font-family="Helvetica,sans-Serif" font-size="10.00">abstractpokitservice.cpp</text>
</a>
</g>
</g>
<!-- Node1&#45;&gt;Node2 -->
<g id="edge1" class="edge">
<title>Node1&#45;&gt;Node2</title>
<path fill="none" stroke="midnightblue" d="M938.29,-173.69C809.21,-167.54 531.63,-153.01 298,-132 295.32,-131.76 292.59,-131.5 289.83,-131.23"/>
<polygon fill="midnightblue" stroke="midnightblue" points="938.29,-177.2 948.44,-174.18 938.62,-170.21 938.29,-177.2"/>
</g>
<!-- Node3 -->
<g id="node3" class="node">
<title>Node3</title>
<g id="a_node3"><a xlink:href="calibrationservice_8h.html" target="_top" xlink:title="Declares the CalibrationService class.">
<polygon fill="none" stroke="black" points="307.5,-112.5 307.5,-131.5 420.5,-131.5 420.5,-112.5 307.5,-112.5"/>
<text text-anchor="middle" x="364" y="-119.5" font-family="Helvetica,sans-Serif" font-size="10.00">calibrationservice.h</text>
</a>
</g>
</g>
<!-- Node1&#45;&gt;Node3 -->
<g id="edge2" class="edge">
<title>Node1&#45;&gt;Node3</title>
<path fill="none" stroke="midnightblue" d="M938.11,-170.92C807.9,-160.05 538,-137.52 420.6,-127.72"/>
<polygon fill="midnightblue" stroke="midnightblue" points="938.12,-174.43 948.38,-171.77 938.7,-167.45 938.12,-174.43"/>
</g>
<!-- Node8 -->
<g id="node8" class="node">
<title>Node8</title>
<g id="a_node8"><a xlink:href="dataloggerservice_8h.html" target="_top" xlink:title="Declares the DataLoggerService class.">
<polygon fill="none" stroke="black" points="504.5,-112.5 504.5,-131.5 617.5,-131.5 617.5,-112.5 504.5,-112.5"/>
<text text-anchor="middle" x="561" y="-119.5" font-family="Helvetica,sans-Serif" font-size="10.00">dataloggerservice.h</text>
</a>
</g>
</g>
<!-- Node1&#45;&gt;Node8 -->
<g id="edge8" class="edge">
<title>Node1&#45;&gt;Node8</title>
<path fill="none" stroke="midnightblue" d="M938.37,-168.28C848.99,-157.56 699.09,-139.57 617.71,-129.81"/>
<polygon fill="midnightblue" stroke="midnightblue" points="938.08,-171.78 948.43,-169.49 938.92,-164.82 938.08,-171.78"/>
</g>
<!-- Node14 -->
<g id="node14" class="node">
<title>Node14</title>
<g id="a_node14"><a xlink:href="devicecommand_8cpp_source.html" target="_top" xlink:title=" ">
<polygon fill="none" stroke="black" points="1799,-112.5 1799,-131.5 1917,-131.5 1917,-112.5 1799,-112.5"/>
<text text-anchor="middle" x="1858" y="-119.5" font-family="Helvetica,sans-Serif" font-size="10.00">devicecommand.cpp</text>
</a>
</g>
</g>
<!-- Node1&#45;&gt;Node14 -->
<g id="edge16" class="edge">
<title>Node1&#45;&gt;Node14</title>
<path fill="none" stroke="midnightblue" d="M1083.76,-174.59C1221.73,-169.63 1530.81,-156.6 1790,-132 1792.85,-131.73 1795.75,-131.43 1798.69,-131.11"/>
<polygon fill="midnightblue" stroke="midnightblue" points="1083.59,-171.1 1073.72,-174.95 1083.84,-178.09 1083.59,-171.1"/>
</g>
<!-- Node15 -->
<g id="node15" class="node">
<title>Node15</title>
<g id="a_node15"><a xlink:href="deviceinfoservice_8h.html" target="_top" xlink:title="Declares the DeviceInfoService class.">
<polygon fill="none" stroke="black" points="1056,-112.5 1056,-131.5 1168,-131.5 1168,-112.5 1056,-112.5"/>
<text text-anchor="middle" x="1112" y="-119.5" font-family="Helvetica,sans-Serif" font-size="10.00">deviceinfoservice.h</text>
</a>
</g>
</g>
<!-- Node1&#45;&gt;Node15 -->
<g id="edge17" class="edge">
<title>Node1&#45;&gt;Node15</title>
<path fill="none" stroke="midnightblue" d="M1036.08,-163.59C1054.76,-153.61 1079.7,-140.27 1095.81,-131.65"/>
<polygon fill="midnightblue" stroke="midnightblue" points="1034.4,-160.52 1027.23,-168.32 1037.7,-166.7 1034.4,-160.52"/>
</g>
<!-- Node19 -->
<g id="node19" class="node">
<title>Node19</title>
<g id="a_node19"><a xlink:href="genericaccessservice_8h.html" target="_top" xlink:title="Declares the GenericAccessService class.">
<polygon fill="none" stroke="black" points="1242,-112.5 1242,-131.5 1372,-131.5 1372,-112.5 1242,-112.5"/>
<text text-anchor="middle" x="1307" y="-119.5" font-family="Helvetica,sans-Serif" font-size="10.00">genericaccessservice.h</text>
</a>
</g>
</g>
<!-- Node1&#45;&gt;Node19 -->
<g id="edge23" class="edge">
<title>Node1&#45;&gt;Node19</title>
<path fill="none" stroke="midnightblue" d="M1068,-166.6C1123.94,-156.4 1208.23,-141.02 1260.32,-131.52"/>
<polygon fill="midnightblue" stroke="midnightblue" points="1067.11,-163.21 1057.9,-168.44 1068.37,-170.09 1067.11,-163.21"/>
</g>
<!-- Node22 -->
<g id="node22" class="node">
<title>Node22</title>
<g id="a_node22"><a xlink:href="multimeterservice_8h.html" target="_top" xlink:title="Declares the MultimeterService class.">
<polygon fill="none" stroke="black" points="852,-112.5 852,-131.5 968,-131.5 968,-112.5 852,-112.5"/>
<text text-anchor="middle" x="910" y="-119.5" font-family="Helvetica,sans-Serif" font-size="10.00">multimeterservice.h</text>
</a>
</g>
</g>
<!-- Node1&#45;&gt;Node22 -->
<g id="edge28" class="edge">
<title>Node1&#45;&gt;Node22</title>
<path fill="none" stroke="midnightblue" d="M985.92,-163.59C967.24,-153.61 942.3,-140.27 926.19,-131.65"/>
<polygon fill="midnightblue" stroke="midnightblue" points="984.3,-166.7 994.77,-168.32 987.6,-160.52 984.3,-166.7"/>
</g>
<!-- Node27 -->
<g id="node27" class="node">
<title>Node27</title>
<g id="a_node27"><a xlink:href="statusservice_8h.html" target="_top" xlink:title="Declares the StatusService class.">
<polygon fill="none" stroke="black" points="1689.5,-112.5 1689.5,-131.5 1780.5,-131.5 1780.5,-112.5 1689.5,-112.5"/>
<text text-anchor="middle" x="1735" y="-119.5" font-family="Helvetica,sans-Serif" font-size="10.00">statusservice.h</text>
</a>
</g>
</g>
<!-- Node1&#45;&gt;Node27 -->
<g id="edge36" class="edge">
<title>Node1&#45;&gt;Node27</title>
<path fill="none" stroke="midnightblue" d="M1084.06,-171.55C1232.93,-160.45 1567.6,-135.49 1689.49,-126.39"/>
<polygon fill="midnightblue" stroke="midnightblue" points="1083.38,-168.09 1073.67,-172.33 1083.9,-175.07 1083.38,-168.09"/>
</g>
<!-- Node4 -->
<g id="node4" class="node">
<title>Node4</title>
<g id="a_node4"><a xlink:href="calibratecommand_8cpp_source.html" target="_top" xlink:title=" ">
<polygon fill="none" stroke="black" points="0,-56.5 0,-75.5 128,-75.5 128,-56.5 0,-56.5"/>
<text text-anchor="middle" x="64" y="-63.5" font-family="Helvetica,sans-Serif" font-size="10.00">calibratecommand.cpp</text>
</a>
</g>
</g>
<!-- Node3&#45;&gt;Node4 -->
<g id="edge3" class="edge">
<title>Node3&#45;&gt;Node4</title>
<path fill="none" stroke="midnightblue" d="M306.58,-110.66C249.88,-100.46 164.21,-85.04 111.31,-75.52"/>
<polygon fill="midnightblue" stroke="midnightblue" points="306,-114.12 316.46,-112.44 307.24,-107.23 306,-114.12"/>
</g>
<!-- Node5 -->
<g id="node5" class="node">
<title>Node5</title>
<g id="a_node5"><a xlink:href="calibrationservice_8cpp.html" target="_top" xlink:title="Defines the CalibrationService and CalibrationServicePrivate classes.">
<polygon fill="none" stroke="black" points="169,-0.5 169,-19.5 293,-19.5 293,-0.5 169,-0.5"/>
<text text-anchor="middle" x="231" y="-7.5" font-family="Helvetica,sans-Serif" font-size="10.00">calibrationservice.cpp</text>
</a>
</g>
</g>
<!-- Node3&#45;&gt;Node5 -->
<g id="edge4" class="edge">
<title>Node3&#45;&gt;Node5</title>
<path fill="none" stroke="midnightblue" d="M345.64,-105.82C317.31,-82.39 263.87,-38.19 241.39,-19.59"/>
<polygon fill="midnightblue" stroke="midnightblue" points="343.63,-108.69 353.56,-112.37 348.09,-103.3 343.63,-108.69"/>
</g>
<!-- Node6 -->
<g id="node6" class="node">
<title>Node6</title>
<g id="a_node6"><a xlink:href="calibrationservice__p_8h.html" target="_top" xlink:title="Declares the CalibrationServicePrivate class.">
<polygon fill="none" stroke="black" points="146,-56.5 146,-75.5 270,-75.5 270,-56.5 146,-56.5"/>
<text text-anchor="middle" x="208" y="-63.5" font-family="Helvetica,sans-Serif" font-size="10.00">calibrationservice_p.h</text>
</a>
</g>
</g>
<!-- Node3&#45;&gt;Node6 -->
<g id="edge5" class="edge">
<title>Node3&#45;&gt;Node6</title>
<path fill="none" stroke="midnightblue" d="M329.83,-109.17C300.46,-99 258.8,-84.59 232.6,-75.52"/>
<polygon fill="midnightblue" stroke="midnightblue" points="328.69,-112.48 339.28,-112.44 330.98,-105.86 328.69,-112.48"/>
</g>
<!-- Node7 -->
<g id="node7" class="node">
<title>Node7</title>
<g id="a_node7"><a xlink:href="pokitdevice_8cpp.html" target="_top" xlink:title="Defines the PokitDevice and PokitDevicePrivate classes.">
<polygon fill="none" stroke="black" points="938,-56.5 938,-75.5 1032,-75.5 1032,-56.5 938,-56.5"/>
<text text-anchor="middle" x="985" y="-63.5" font-family="Helvetica,sans-Serif" font-size="10.00">pokitdevice.cpp</text>
</a>
</g>
</g>
<!-- Node3&#45;&gt;Node7 -->
<g id="edge7" class="edge">
<title>Node3&#45;&gt;Node7</title>
<path fill="none" stroke="midnightblue" d="M431.09,-115.46C531.09,-107.15 725.14,-90.86 890,-76 905.51,-74.6 922.44,-73.02 937.65,-71.57"/>
<polygon fill="midnightblue" stroke="midnightblue" points="430.51,-111.99 420.84,-116.31 431.09,-118.97 430.51,-111.99"/>
</g>
<!-- Node6&#45;&gt;Node5 -->
<g id="edge6" class="edge">
<title>Node6&#45;&gt;Node5</title>
<path fill="none" stroke="midnightblue" d="M215.8,-46.69C219.68,-37.59 224.18,-27.01 227.27,-19.75"/>
<polygon fill="midnightblue" stroke="midnightblue" points="212.5,-45.51 211.8,-56.08 218.94,-48.25 212.5,-45.51"/>
</g>
<!-- Node8&#45;&gt;Node7 -->
<g id="edge15" class="edge">
<title>Node8&#45;&gt;Node7</title>
<path fill="none" stroke="midnightblue" d="M627.69,-112.51C713.99,-101.52 862.19,-82.64 937.74,-73.02"/>
<polygon fill="midnightblue" stroke="midnightblue" points="627.22,-109.04 617.74,-113.77 628.1,-115.98 627.22,-109.04"/>
</g>
<!-- Node9 -->
<g id="node9" class="node">
<title>Node9</title>
<g id="a_node9"><a xlink:href="dataloggerservice_8cpp.html" target="_top" xlink:title="Defines the DataLoggerService and DataLoggerServicePrivate classes.">
<polygon fill="none" stroke="black" points="330.5,-0.5 330.5,-19.5 455.5,-19.5 455.5,-0.5 330.5,-0.5"/>
<text text-anchor="middle" x="393" y="-7.5" font-family="Helvetica,sans-Serif" font-size="10.00">dataloggerservice.cpp</text>
</a>
</g>
</g>
<!-- Node8&#45;&gt;Node9 -->
<g id="edge9" class="edge">
<title>Node8&#45;&gt;Node9</title>
<path fill="none" stroke="midnightblue" d="M539.18,-106.71C503.78,-83.53 434.89,-38.43 406.12,-19.59"/>
<polygon fill="midnightblue" stroke="midnightblue" points="537.53,-109.82 547.82,-112.37 541.37,-103.96 537.53,-109.82"/>
</g>
<!-- Node10 -->
<g id="node10" class="node">
<title>Node10</title>
<g id="a_node10"><a xlink:href="dataloggerservice__p_8h.html" target="_top" xlink:title="Declares the DataLoggerServicePrivate class.">
<polygon fill="none" stroke="black" points="326.5,-56.5 326.5,-75.5 451.5,-75.5 451.5,-56.5 326.5,-56.5"/>
<text text-anchor="middle" x="389" y="-63.5" font-family="Helvetica,sans-Serif" font-size="10.00">dataloggerservice_p.h</text>
</a>
</g>
</g>
<!-- Node8&#45;&gt;Node10 -->
<g id="edge10" class="edge">
<title>Node8&#45;&gt;Node10</title>
<path fill="none" stroke="midnightblue" d="M524.17,-109.44C491.74,-99.26 445.26,-84.66 416.13,-75.52"/>
<polygon fill="midnightblue" stroke="midnightblue" points="523.16,-112.79 533.75,-112.44 525.25,-106.11 523.16,-112.79"/>
</g>
<!-- Node11 -->
<g id="node11" class="node">
<title>Node11</title>
<g id="a_node11"><a xlink:href="loggercommand_8h_source.html" target="_top" xlink:title=" ">
<polygon fill="none" stroke="black" points="508.5,-56.5 508.5,-75.5 613.5,-75.5 613.5,-56.5 508.5,-56.5"/>
<text text-anchor="middle" x="561" y="-63.5" font-family="Helvetica,sans-Serif" font-size="10.00">loggercommand.h</text>
</a>
</g>
</g>
<!-- Node8&#45;&gt;Node11 -->
<g id="edge12" class="edge">
<title>Node8&#45;&gt;Node11</title>
<path fill="none" stroke="midnightblue" d="M561,-101.8C561,-92.91 561,-82.78 561,-75.75"/>
<polygon fill="midnightblue" stroke="midnightblue" points="557.5,-102.08 561,-112.08 564.5,-102.08 557.5,-102.08"/>
</g>
<!-- Node10&#45;&gt;Node9 -->
<g id="edge11" class="edge">
<title>Node10&#45;&gt;Node9</title>
<path fill="none" stroke="midnightblue" d="M390.4,-46.1C391.06,-37.14 391.83,-26.86 392.35,-19.75"/>
<polygon fill="midnightblue" stroke="midnightblue" points="386.91,-45.85 389.66,-56.08 393.89,-46.37 386.91,-45.85"/>
</g>
<!-- Node12 -->
<g id="node12" class="node">
<title>Node12</title>
<g id="a_node12"><a xlink:href="loggercommand_8cpp_source.html" target="_top" xlink:title=" ">
<polygon fill="none" stroke="black" points="478,-0.5 478,-19.5 594,-19.5 594,-0.5 478,-0.5"/>
<text text-anchor="middle" x="536" y="-7.5" font-family="Helvetica,sans-Serif" font-size="10.00">loggercommand.cpp</text>
</a>
</g>
</g>
<!-- Node11&#45;&gt;Node12 -->
<g id="edge13" class="edge">
<title>Node11&#45;&gt;Node12</title>
<path fill="none" stroke="midnightblue" d="M552.66,-46.98C548.42,-37.82 543.45,-27.09 540.05,-19.75"/>
<polygon fill="midnightblue" stroke="midnightblue" points="549.49,-48.48 556.87,-56.08 555.85,-45.54 549.49,-48.48"/>
</g>
<!-- Node13 -->
<g id="node13" class="node">
<title>Node13</title>
<g id="a_node13"><a xlink:href="main_8cpp_source.html" target="_top" xlink:title=" ">
<polygon fill="none" stroke="black" points="612,-0.5 612,-19.5 674,-19.5 674,-0.5 612,-0.5"/>
<text text-anchor="middle" x="643" y="-7.5" font-family="Helvetica,sans-Serif" font-size="10.00">main.cpp</text>
</a>
</g>
</g>
<!-- Node11&#45;&gt;Node13 -->
<g id="edge14" class="edge">
<title>Node11&#45;&gt;Node13</title>
<path fill="none" stroke="midnightblue" d="M582.83,-50.62C597.81,-40.76 617.2,-27.99 629.86,-19.65"/>
<polygon fill="midnightblue" stroke="midnightblue" points="580.6,-47.9 574.17,-56.32 584.45,-53.75 580.6,-47.9"/>
</g>
<!-- Node15&#45;&gt;Node7 -->
<g id="edge22" class="edge">
<title>Node15&#45;&gt;Node7</title>
<path fill="none" stroke="midnightblue" d="M1082.61,-108.5C1058.8,-98.38 1025.89,-84.39 1005.03,-75.52"/>
<polygon fill="midnightblue" stroke="midnightblue" points="1081.3,-111.75 1091.88,-112.44 1084.04,-105.31 1081.3,-111.75"/>
</g>
<!-- Node16 -->
<g id="node16" class="node">
<title>Node16</title>
<g id="a_node16"><a xlink:href="deviceinfoservice_8cpp.html" target="_top" xlink:title="Defines the DeviceInfoService and DeviceInfoServicePrivate classes.">
<polygon fill="none" stroke="black" points="1095.5,-0.5 1095.5,-19.5 1218.5,-19.5 1218.5,-0.5 1095.5,-0.5"/>
<text text-anchor="middle" x="1157" y="-7.5" font-family="Helvetica,sans-Serif" font-size="10.00">deviceinfoservice.cpp</text>
</a>
</g>
</g>
<!-- Node15&#45;&gt;Node16 -->
<g id="edge18" class="edge">
<title>Node15&#45;&gt;Node16</title>
<path fill="none" stroke="midnightblue" d="M1145.82,-107.96C1159.64,-100.76 1174.18,-90.32 1182,-76 1192.43,-56.9 1175.83,-32.52 1165.06,-19.73"/>
<polygon fill="midnightblue" stroke="midnightblue" points="1143.98,-104.97 1136.47,-112.44 1147,-111.28 1143.98,-104.97"/>
</g>
<!-- Node17 -->
<g id="node17" class="node">
<title>Node17</title>
<g id="a_node17"><a xlink:href="deviceinfoservice__p_8h.html" target="_top" xlink:title="Declares the DeviceInfoServicePrivate class.">
<polygon fill="none" stroke="black" points="1050.5,-56.5 1050.5,-75.5 1173.5,-75.5 1173.5,-56.5 1050.5,-56.5"/>
<text text-anchor="middle" x="1112" y="-63.5" font-family="Helvetica,sans-Serif" font-size="10.00">deviceinfoservice_p.h</text>
</a>
</g>
</g>
<!-- Node15&#45;&gt;Node17 -->
<g id="edge19" class="edge">
<title>Node15&#45;&gt;Node17</title>
<path fill="none" stroke="midnightblue" d="M1112,-101.8C1112,-92.91 1112,-82.78 1112,-75.75"/>
<polygon fill="midnightblue" stroke="midnightblue" points="1108.5,-102.08 1112,-112.08 1115.5,-102.08 1108.5,-102.08"/>
</g>
<!-- Node18 -->
<g id="node18" class="node">
<title>Node18</title>
<g id="a_node18"><a xlink:href="infocommand_8cpp_source.html" target="_top" xlink:title=" ">
<polygon fill="none" stroke="black" points="1230,-56.5 1230,-75.5 1334,-75.5 1334,-56.5 1230,-56.5"/>
<text text-anchor="middle" x="1282" y="-63.5" font-family="Helvetica,sans-Serif" font-size="10.00">infocommand.cpp</text>
</a>
</g>
</g>
<!-- Node15&#45;&gt;Node18 -->
<g id="edge21" class="edge">
<title>Node15&#45;&gt;Node18</title>
<path fill="none" stroke="midnightblue" d="M1148.82,-109.3C1180.85,-99.13 1226.52,-84.62 1255.19,-75.52"/>
<polygon fill="midnightblue" stroke="midnightblue" points="1147.41,-106.08 1138.94,-112.44 1149.53,-112.75 1147.41,-106.08"/>
</g>
<!-- Node17&#45;&gt;Node16 -->
<g id="edge20" class="edge">
<title>Node17&#45;&gt;Node16</title>
<path fill="none" stroke="midnightblue" d="M1126.05,-48.14C1133.89,-38.74 1143.33,-27.4 1149.71,-19.75"/>
<polygon fill="midnightblue" stroke="midnightblue" points="1123.14,-46.16 1119.43,-56.08 1128.52,-50.64 1123.14,-46.16"/>
</g>
<!-- Node19&#45;&gt;Node7 -->
<g id="edge27" class="edge">
<title>Node19&#45;&gt;Node7</title>
<path fill="none" stroke="midnightblue" d="M1245.91,-110.76C1183.74,-100.33 1088.7,-84.39 1032.12,-74.9"/>
<polygon fill="midnightblue" stroke="midnightblue" points="1245.54,-114.24 1255.98,-112.44 1246.69,-107.34 1245.54,-114.24"/>
</g>
<!-- Node20 -->
<g id="node20" class="node">
<title>Node20</title>
<g id="a_node20"><a xlink:href="genericaccessservice_8cpp.html" target="_top" xlink:title="Defines the GenericAccessService and GenericAccessServicePrivate classes.">
<polygon fill="none" stroke="black" points="1340.5,-0.5 1340.5,-19.5 1481.5,-19.5 1481.5,-0.5 1340.5,-0.5"/>
<text text-anchor="middle" x="1411" y="-7.5" font-family="Helvetica,sans-Serif" font-size="10.00">genericaccessservice.cpp</text>
</a>
</g>
</g>
<!-- Node19&#45;&gt;Node20 -->
<g id="edge24" class="edge">
<title>Node19&#45;&gt;Node20</title>
<path fill="none" stroke="midnightblue" d="M1322.23,-104.9C1344.58,-81.25 1385.52,-37.95 1402.88,-19.59"/>
<polygon fill="midnightblue" stroke="midnightblue" points="1319.49,-102.7 1315.16,-112.37 1324.57,-107.51 1319.49,-102.7"/>
</g>
<!-- Node21 -->
<g id="node21" class="node">
<title>Node21</title>
<g id="a_node21"><a xlink:href="genericaccessservice__p_8h.html" target="_top" xlink:title="Declares the GenericAccessServicePrivate class.">
<polygon fill="none" stroke="black" points="1390.5,-56.5 1390.5,-75.5 1531.5,-75.5 1531.5,-56.5 1390.5,-56.5"/>
<text text-anchor="middle" x="1461" y="-63.5" font-family="Helvetica,sans-Serif" font-size="10.00">genericaccessservice_p.h</text>
</a>
</g>
</g>
<!-- Node19&#45;&gt;Node21 -->
<g id="edge25" class="edge">
<title>Node19&#45;&gt;Node21</title>
<path fill="none" stroke="midnightblue" d="M1341.11,-109.04C1370.09,-98.88 1410.96,-84.55 1436.71,-75.52"/>
<polygon fill="midnightblue" stroke="midnightblue" points="1339.68,-105.83 1331.4,-112.44 1342,-112.44 1339.68,-105.83"/>
</g>
<!-- Node21&#45;&gt;Node20 -->
<g id="edge26" class="edge">
<title>Node21&#45;&gt;Node20</title>
<path fill="none" stroke="midnightblue" d="M1445.92,-48.72C1437.11,-39.2 1426.33,-27.56 1419.1,-19.75"/>
<polygon fill="midnightblue" stroke="midnightblue" points="1443.38,-51.12 1452.74,-56.08 1448.52,-46.37 1443.38,-51.12"/>
</g>
<!-- Node22&#45;&gt;Node7 -->
<g id="edge35" class="edge">
<title>Node22&#45;&gt;Node7</title>
<path fill="none" stroke="midnightblue" d="M930.31,-106.38C943.86,-96.62 961.24,-84.11 972.73,-75.83"/>
<polygon fill="midnightblue" stroke="midnightblue" points="928.12,-103.64 922.05,-112.32 932.21,-109.32 928.12,-103.64"/>
</g>
<!-- Node23 -->
<g id="node23" class="node">
<title>Node23</title>
<g id="a_node23"><a xlink:href="metercommand_8h_source.html" target="_top" xlink:title=" ">
<polygon fill="none" stroke="black" points="632,-56.5 632,-75.5 736,-75.5 736,-56.5 632,-56.5"/>
<text text-anchor="middle" x="684" y="-63.5" font-family="Helvetica,sans-Serif" font-size="10.00">metercommand.h</text>
</a>
</g>
</g>
<!-- Node22&#45;&gt;Node23 -->
<g id="edge29" class="edge">
<title>Node22&#45;&gt;Node23</title>
<path fill="none" stroke="midnightblue" d="M864.33,-110.09C821.64,-99.89 758.75,-84.86 719.64,-75.52"/>
<polygon fill="midnightblue" stroke="midnightblue" points="863.65,-113.52 874.19,-112.44 865.28,-106.72 863.65,-113.52"/>
</g>
<!-- Node25 -->
<g id="node25" class="node">
<title>Node25</title>
<g id="a_node25"><a xlink:href="multimeterservice_8cpp.html" target="_top" xlink:title="Defines the MultimeterService and MultimeterServicePrivate classes.">
<polygon fill="none" stroke="black" points="832.5,-0.5 832.5,-19.5 959.5,-19.5 959.5,-0.5 832.5,-0.5"/>
<text text-anchor="middle" x="896" y="-7.5" font-family="Helvetica,sans-Serif" font-size="10.00">multimeterservice.cpp</text>
</a>
</g>
</g>
<!-- Node22&#45;&gt;Node25 -->
<g id="edge32" class="edge">
<title>Node22&#45;&gt;Node25</title>
<path fill="none" stroke="midnightblue" d="M907.63,-102.35C904.56,-78.25 899.35,-37.31 897.09,-19.59"/>
<polygon fill="midnightblue" stroke="midnightblue" points="904.17,-102.89 908.9,-112.37 911.11,-102.01 904.17,-102.89"/>
</g>
<!-- Node26 -->
<g id="node26" class="node">
<title>Node26</title>
<g id="a_node26"><a xlink:href="multimeterservice__p_8h.html" target="_top" xlink:title="Declares the MultimeterServicePrivate class.">
<polygon fill="none" stroke="black" points="754.5,-56.5 754.5,-75.5 881.5,-75.5 881.5,-56.5 754.5,-56.5"/>
<text text-anchor="middle" x="818" y="-63.5" font-family="Helvetica,sans-Serif" font-size="10.00">multimeterservice_p.h</text>
</a>
</g>
</g>
<!-- Node22&#45;&gt;Node26 -->
<g id="edge33" class="edge">
<title>Node22&#45;&gt;Node26</title>
<path fill="none" stroke="midnightblue" d="M886.45,-107.18C869.52,-97.24 847.22,-84.15 832.74,-75.65"/>
<polygon fill="midnightblue" stroke="midnightblue" points="884.82,-110.28 895.22,-112.32 888.37,-104.24 884.82,-110.28"/>
</g>
<!-- Node23&#45;&gt;Node13 -->
<g id="edge30" class="edge">
<title>Node23&#45;&gt;Node13</title>
<path fill="none" stroke="midnightblue" d="M670.98,-47.86C663.88,-38.5 655.4,-27.33 649.64,-19.75"/>
<polygon fill="midnightblue" stroke="midnightblue" points="668.39,-50.24 677.23,-56.08 673.97,-46 668.39,-50.24"/>
</g>
<!-- Node24 -->
<g id="node24" class="node">
<title>Node24</title>
<g id="a_node24"><a xlink:href="metercommand_8cpp_source.html" target="_top" xlink:title=" ">
<polygon fill="none" stroke="black" points="692.5,-0.5 692.5,-19.5 807.5,-19.5 807.5,-0.5 692.5,-0.5"/>
<text text-anchor="middle" x="750" y="-7.5" font-family="Helvetica,sans-Serif" font-size="10.00">metercommand.cpp</text>
</a>
</g>
</g>
<!-- Node23&#45;&gt;Node24 -->
<g id="edge31" class="edge">
<title>Node23&#45;&gt;Node24</title>
<path fill="none" stroke="midnightblue" d="M702.55,-49.82C714.38,-40.15 729.29,-27.95 739.2,-19.83"/>
<polygon fill="midnightblue" stroke="midnightblue" points="700.13,-47.28 694.6,-56.32 704.56,-52.7 700.13,-47.28"/>
</g>
<!-- Node26&#45;&gt;Node25 -->
<g id="edge34" class="edge">
<title>Node26&#45;&gt;Node25</title>
<path fill="none" stroke="midnightblue" d="M838.77,-50.62C853.02,-40.76 871.46,-27.99 883.5,-19.65"/>
<polygon fill="midnightblue" stroke="midnightblue" points="836.76,-47.75 830.53,-56.32 840.75,-53.51 836.76,-47.75"/>
</g>
<!-- Node27&#45;&gt;Node7 -->
<g id="edge38" class="edge">
<title>Node27&#45;&gt;Node7</title>
<path fill="none" stroke="midnightblue" d="M1679.16,-119.17C1561.07,-114.91 1277.43,-102.6 1041,-76 1038.06,-75.67 1035.05,-75.29 1032.01,-74.89"/>
<polygon fill="midnightblue" stroke="midnightblue" points="1679.28,-122.68 1689.4,-119.54 1679.53,-115.68 1679.28,-122.68"/>
</g>
<!-- Node28 -->
<g id="node28" class="node">
<title>Node28</title>
<g id="a_node28"><a xlink:href="flashledcommand_8cpp_source.html" target="_top" xlink:title=" ">
<polygon fill="none" stroke="black" points="1842,-56.5 1842,-75.5 1966,-75.5 1966,-56.5 1842,-56.5"/>
<text text-anchor="middle" x="1904" y="-63.5" font-family="Helvetica,sans-Serif" font-size="10.00">flashledcommand.cpp</text>
</a>
</g>
</g>
<!-- Node27&#45;&gt;Node28 -->
<g id="edge37" class="edge">
<title>Node27&#45;&gt;Node28</title>
<path fill="none" stroke="midnightblue" d="M1771.6,-109.3C1803.45,-99.13 1848.84,-84.62 1877.35,-75.52"/>
<polygon fill="midnightblue" stroke="midnightblue" points="1770.24,-106.07 1761.78,-112.44 1772.37,-112.73 1770.24,-106.07"/>
</g>
<!-- Node29 -->
<g id="node29" class="node">
<title>Node29</title>
<g id="a_node29"><a xlink:href="pokitdiscoveryagent_8cpp.html" target="_top" xlink:title="Defines the PokitDiscoveryAgent and PokitDiscoveryAgentPrivate classes.">
<polygon fill="none" stroke="black" points="1984.5,-56.5 1984.5,-75.5 2121.5,-75.5 2121.5,-56.5 1984.5,-56.5"/>
<text text-anchor="middle" x="2053" y="-63.5" font-family="Helvetica,sans-Serif" font-size="10.00">pokitdiscoveryagent.cpp</text>
</a>
</g>
</g>
<!-- Node27&#45;&gt;Node29 -->
<g id="edge39" class="edge">
<title>Node27&#45;&gt;Node29</title>
<path fill="none" stroke="midnightblue" d="M1790.6,-111.56C1850.53,-101.38 1945.06,-85.33 2002.8,-75.52"/>
<polygon fill="midnightblue" stroke="midnightblue" points="1789.83,-108.14 1780.56,-113.26 1791.01,-115.04 1789.83,-108.14"/>
</g>
<!-- Node30 -->
<g id="node30" class="node">
<title>Node30</title>
<g id="a_node30"><a xlink:href="setnamecommand_8cpp_source.html" target="_top" xlink:title=" ">
<polygon fill="none" stroke="black" points="2140,-56.5 2140,-75.5 2268,-75.5 2268,-56.5 2140,-56.5"/>
<text text-anchor="middle" x="2204" y="-63.5" font-family="Helvetica,sans-Serif" font-size="10.00">setnamecommand.cpp</text>
</a>
</g>
</g>
<!-- Node27&#45;&gt;Node30 -->
<g id="edge40" class="edge">
<title>Node27&#45;&gt;Node30</title>
<path fill="none" stroke="midnightblue" d="M1790.76,-111.97C1942.75,-91.75 1982.84,-92.95 2131,-76 2133.92,-75.67 2136.9,-75.32 2139.91,-74.97"/>
<polygon fill="midnightblue" stroke="midnightblue" points="1790.04,-108.54 1780.59,-113.33 1790.96,-115.48 1790.04,-108.54"/>
</g>
<!-- Node31 -->
<g id="node31" class="node">
<title>Node31</title>
<g id="a_node31"><a xlink:href="statuscommand_8cpp_source.html" target="_top" xlink:title=" ">
<polygon fill="none" stroke="black" points="1550,-56.5 1550,-75.5 1666,-75.5 1666,-56.5 1550,-56.5"/>
<text text-anchor="middle" x="1608" y="-63.5" font-family="Helvetica,sans-Serif" font-size="10.00">statuscommand.cpp</text>
</a>
</g>
</g>
<!-- Node27&#45;&gt;Node31 -->
<g id="edge41" class="edge">
<title>Node27&#45;&gt;Node31</title>
<path fill="none" stroke="midnightblue" d="M1705.61,-108.5C1681.8,-98.38 1648.89,-84.39 1628.03,-75.52"/>
<polygon fill="midnightblue" stroke="midnightblue" points="1704.3,-111.75 1714.88,-112.44 1707.04,-105.31 1704.3,-111.75"/>
</g>
<!-- Node32 -->
<g id="node32" class="node">
<title>Node32</title>
<g id="a_node32"><a xlink:href="statusservice_8cpp.html" target="_top" xlink:title="Defines the StatusService and StatusServicePrivate classes.">
<polygon fill="none" stroke="black" points="1723,-0.5 1723,-19.5 1825,-19.5 1825,-0.5 1723,-0.5"/>
<text text-anchor="middle" x="1774" y="-7.5" font-family="Helvetica,sans-Serif" font-size="10.00">statusservice.cpp</text>
</a>
</g>
</g>
<!-- Node27&#45;&gt;Node32 -->
<g id="edge42" class="edge">
<title>Node27&#45;&gt;Node32</title>
<path fill="none" stroke="midnightblue" d="M1763.29,-107.38C1775.39,-99.93 1788.27,-89.46 1795,-76 1804.55,-56.91 1790.29,-32.53 1780.98,-19.74"/>
<polygon fill="midnightblue" stroke="midnightblue" points="1761.27,-104.5 1754.3,-112.48 1764.72,-110.59 1761.27,-104.5"/>
</g>
<!-- Node33 -->
<g id="node33" class="node">
<title>Node33</title>
<g id="a_node33"><a xlink:href="statusservice__p_8h.html" target="_top" xlink:title="Declares the StatusServicePrivate class.">
<polygon fill="none" stroke="black" points="1684,-56.5 1684,-75.5 1786,-75.5 1786,-56.5 1684,-56.5"/>
<text text-anchor="middle" x="1735" y="-63.5" font-family="Helvetica,sans-Serif" font-size="10.00">statusservice_p.h</text>
</a>
</g>
</g>
<!-- Node27&#45;&gt;Node33 -->
<g id="edge43" class="edge">
<title>Node27&#45;&gt;Node33</title>
<path fill="none" stroke="midnightblue" d="M1735,-101.8C1735,-92.91 1735,-82.78 1735,-75.75"/>
<polygon fill="midnightblue" stroke="midnightblue" points="1731.5,-102.08 1735,-112.08 1738.5,-102.08 1731.5,-102.08"/>
</g>
<!-- Node33&#45;&gt;Node32 -->
<g id="edge44" class="edge">
<title>Node33&#45;&gt;Node32</title>
<path fill="none" stroke="midnightblue" d="M1747.38,-47.86C1754.14,-38.5 1762.21,-27.33 1767.68,-19.75"/>
<polygon fill="midnightblue" stroke="midnightblue" points="1744.46,-45.93 1741.44,-56.08 1750.13,-50.03 1744.46,-45.93"/>
</g>
</g>
</svg>
