<?xml version="1.0" encoding="UTF-8" standalone="no"?>
<!DOCTYPE svg PUBLIC "-//W3C//DTD SVG 1.1//EN"
 "http://www.w3.org/Graphics/SVG/1.1/DTD/svg11.dtd">
<!-- Generated by graphviz version 2.43.0 (0)
 -->
<!-- Title: StatusService::deviceNameWritten Pages: 1 -->
<svg width="365pt" height="38pt"
 viewBox="0.00 0.00 365.00 38.00" xmlns="http://www.w3.org/2000/svg" xmlns:xlink="http://www.w3.org/1999/xlink">
<g id="graph0" class="graph" transform="scale(1 1) rotate(0) translate(4 34)">
<title>StatusService::deviceNameWritten</title>
<!-- Node1 -->
<g id="node1" class="node">
<title>Node1</title>
<g id="a_node1"><a xlink:title="This signal is emitted when the Device Name characteristic has been written successfully.">
<polygon fill="#999999" stroke="#666666" points="357,-30 206,-30 206,0 357,0 357,-30"/>
<text text-anchor="start" x="214" y="-18" font-family="Helvetica,sans-Serif" font-size="10.00">StatusService::deviceName</text>
<text text-anchor="middle" x="281.5" y="-7" font-family="Helvetica,sans-Serif" font-size="10.00">Written</text>
</a>
</g>
</g>
<!-- Node2 -->
<g id="node2" class="node">
<title>Node2</title>
<g id="a_node2"><a xlink:href="classSetNameCommand.html#ac57aeeca51642c3ba79e6c6578677210" target="_top" xlink:title="Returns a Pokit service object for the derived command class.">
<polygon fill="white" stroke="#666666" points="170,-24.5 0,-24.5 0,-5.5 170,-5.5 170,-24.5"/>
<text text-anchor="middle" x="85" y="-12.5" font-family="Helvetica,sans-Serif" font-size="10.00">SetNameCommand::getService</text>
</a>
</g>
</g>
<!-- Node1&#45;&gt;Node2 -->
<g id="edge1" class="edge">
<title>Node1&#45;&gt;Node2</title>
<path fill="none" stroke="#63b8ff" d="M197.58,-15C188.51,-15 179.26,-15 170.17,-15"/>
<polygon fill="#63b8ff" stroke="#63b8ff" points="205.86,-15 197.86,-18.6 201.86,-15 197.86,-15 197.86,-15 197.86,-15 201.86,-15 197.86,-11.4 205.86,-15 205.86,-15"/>
</g>
</g>
</svg>
