<?xml version="1.0" encoding="UTF-8" standalone="no"?>
<!DOCTYPE svg PUBLIC "-//W3C//DTD SVG 1.1//EN"
 "http://www.w3.org/Graphics/SVG/1.1/DTD/svg11.dtd">
<!-- Generated by graphviz version 2.43.0 (0)
 -->
<!-- Title: AbstractCommand Pages: 1 -->
<svg width="399pt" height="216pt"
 viewBox="0.00 0.00 399.00 216.00" xmlns="http://www.w3.org/2000/svg" xmlns:xlink="http://www.w3.org/1999/xlink">
<g id="graph0" class="graph" transform="scale(1 1) rotate(0) translate(4 212)">
<title>AbstractCommand</title>
<!-- Node1 -->
<g id="node1" class="node">
<title>Node1</title>
<g id="a_node1"><a xlink:title="The AbstractCommand class provides a consistent base for the classes that implement CLI commands.">
<polygon fill="#999999" stroke="#666666" points="107,-19 0,-19 0,0 107,0 107,-19"/>
<text text-anchor="middle" x="53.5" y="-7" font-family="Helvetica,sans-Serif" font-size="10.00">AbstractCommand</text>
</a>
</g>
</g>
<!-- Node2 -->
<g id="node2" class="node">
<title>Node2</title>
<g id="a_node2"><a target="_parent" xlink:href="https://doc.qt.io/qt-5/qobject.html" xlink:title=" ">
<polygon fill="white" stroke="#bfbfbf" points="280.5,-208 224.5,-208 224.5,-189 280.5,-189 280.5,-208"/>
<text text-anchor="middle" x="252.5" y="-196" font-family="Helvetica,sans-Serif" font-size="10.00">QObject</text>
</a>
</g>
</g>
<!-- Node2&#45;&gt;Node1 -->
<g id="edge1" class="edge">
<title>Node2&#45;&gt;Node1</title>
<path fill="none" stroke="#63b8ff" d="M216.33,-191.28C164.41,-180.2 70.5,-151.6 29.5,-85 16.25,-63.48 34.92,-33.9 46.13,-19.34"/>
<polygon fill="#63b8ff" stroke="#63b8ff" points="224.29,-192.91 215.73,-194.83 220.37,-192.11 216.45,-191.31 216.45,-191.31 216.45,-191.31 220.37,-192.11 217.17,-187.78 224.29,-192.91 224.29,-192.91"/>
</g>
<!-- Node5 -->
<g id="node5" class="node">
<title>Node5</title>
<g id="a_node5"><a target="_parent" xlink:href="https://doc.qt.io/qt-5/qbluetoothdevicediscoveryagent.html" xlink:title=" ">
<polygon fill="white" stroke="#bfbfbf" points="329.5,-152 175.5,-152 175.5,-122 329.5,-122 329.5,-152"/>
<text text-anchor="start" x="183.5" y="-140" font-family="Helvetica,sans-Serif" font-size="10.00">QBluetoothDeviceDiscovery</text>
<text text-anchor="middle" x="252.5" y="-129" font-family="Helvetica,sans-Serif" font-size="10.00">Agent</text>
</a>
</g>
</g>
<!-- Node2&#45;&gt;Node5 -->
<g id="edge5" class="edge">
<title>Node2&#45;&gt;Node5</title>
<path fill="none" stroke="#63b8ff" d="M252.5,-180.75C252.5,-171.69 252.5,-160.62 252.5,-152.02"/>
<polygon fill="#63b8ff" stroke="#63b8ff" points="252.5,-188.98 248.9,-180.98 252.5,-184.98 252.5,-180.98 252.5,-180.98 252.5,-180.98 252.5,-184.98 256.1,-180.98 252.5,-188.98 252.5,-188.98"/>
</g>
<!-- Node6 -->
<g id="node6" class="node">
<title>Node6</title>
<g id="a_node6"><a xlink:href="classPokitDiscoveryAgentPrivate.html" target="_top" xlink:title="The PokitDiscoveryAgentPrivate class provides private implementation for PokitDiscoveryAgent.">
<polygon fill="white" stroke="#666666" points="391,-19 238,-19 238,0 391,0 391,-19"/>
<text text-anchor="middle" x="314.5" y="-7" font-family="Helvetica,sans-Serif" font-size="10.00">PokitDiscoveryAgentPrivate</text>
</a>
</g>
</g>
<!-- Node2&#45;&gt;Node6 -->
<g id="edge7" class="edge">
<title>Node2&#45;&gt;Node6</title>
<path fill="none" stroke="#63b8ff" d="M288.4,-188.18C306.81,-181.38 327.6,-170.11 338.5,-152 348.08,-136.1 348.3,-86.65 331.5,-37 329.33,-30.58 325.27,-24.16 321.67,-19.25"/>
<polygon fill="#63b8ff" stroke="#63b8ff" points="280.69,-190.83 287.09,-184.82 284.48,-189.53 288.26,-188.23 288.26,-188.23 288.26,-188.23 284.48,-189.53 289.43,-191.63 280.69,-190.83 280.69,-190.83"/>
</g>
<!-- Node3 -->
<g id="node3" class="node">
<title>Node3</title>
<g id="a_node3"><a target="_parent" xlink:href="https://doc.qt.io/qt-5/qstring.html" xlink:title=" ">
<polygon fill="white" stroke="#bfbfbf" points="91,-85 38,-85 38,-66 91,-66 91,-85"/>
<text text-anchor="middle" x="64.5" y="-73" font-family="Helvetica,sans-Serif" font-size="10.00">QString</text>
</a>
</g>
</g>
<!-- Node3&#45;&gt;Node1 -->
<g id="edge2" class="edge">
<title>Node3&#45;&gt;Node1</title>
<path fill="none" stroke="#9a32cd" stroke-dasharray="5,2" d="M57.38,-58.21C56.21,-54.89 55.16,-51.38 54.5,-48 52.59,-38.29 52.6,-26.89 52.92,-19.23"/>
<polygon fill="#9a32cd" stroke="#9a32cd" points="60.41,-65.88 54.13,-59.76 58.94,-62.16 57.47,-58.44 57.47,-58.44 57.47,-58.44 58.94,-62.16 60.82,-57.12 60.41,-65.88 60.41,-65.88"/>
<text text-anchor="middle" x="97" y="-40" font-family="Helvetica,sans-Serif" font-size="10.00"> deviceToScanFor</text>
</g>
<!-- Node4 -->
<g id="node4" class="node">
<title>Node4</title>
<g id="a_node4"><a xlink:href="classPokitDiscoveryAgent.html" target="_top" xlink:title="The PokitDiscoveryAgent class discovers nearby Pokit devices.">
<polygon fill="white" stroke="#666666" points="318,-85 199,-85 199,-66 318,-66 318,-85"/>
<text text-anchor="middle" x="258.5" y="-73" font-family="Helvetica,sans-Serif" font-size="10.00">PokitDiscoveryAgent</text>
</a>
</g>
</g>
<!-- Node4&#45;&gt;Node1 -->
<g id="edge3" class="edge">
<title>Node4&#45;&gt;Node1</title>
<path fill="none" stroke="#9a32cd" stroke-dasharray="5,2" d="M223.2,-63.59C207.91,-58.84 189.81,-53.18 173.5,-48 158.36,-43.19 154.64,-41.78 139.5,-37 120.28,-30.93 98.59,-24.25 81.81,-19.11"/>
<polygon fill="#9a32cd" stroke="#9a32cd" points="230.91,-65.98 222.21,-67.05 227.09,-64.8 223.27,-63.61 223.27,-63.61 223.27,-63.61 227.09,-64.8 224.34,-60.17 230.91,-65.98 230.91,-65.98"/>
<text text-anchor="middle" x="213" y="-40" font-family="Helvetica,sans-Serif" font-size="10.00"> discoveryAgent</text>
</g>
<!-- Node4&#45;&gt;Node6 -->
<g id="edge8" class="edge">
<title>Node4&#45;&gt;Node6</title>
<path fill="none" stroke="#9a32cd" stroke-dasharray="5,2" d="M255.86,-57.87C255.6,-50.9 256.51,-43.04 260.5,-37 265.91,-28.81 274.63,-23.06 283.5,-19.07"/>
<polygon fill="#9a32cd" stroke="#9a32cd" points="256.66,-66 252.29,-58.39 256.27,-62.02 255.88,-58.04 255.88,-58.04 255.88,-58.04 256.27,-62.02 259.46,-57.69 256.66,-66 256.66,-66"/>
<text text-anchor="middle" x="274.5" y="-40" font-family="Helvetica,sans-Serif" font-size="10.00"> q_ptr</text>
</g>
<!-- Node5&#45;&gt;Node4 -->
<g id="edge4" class="edge">
<title>Node5&#45;&gt;Node4</title>
<path fill="none" stroke="#63b8ff" d="M254.73,-113.9C255.74,-103.91 256.87,-92.68 257.63,-85.16"/>
<polygon fill="#63b8ff" stroke="#63b8ff" points="253.92,-121.9 251.14,-113.58 254.32,-117.92 254.72,-113.94 254.72,-113.94 254.72,-113.94 254.32,-117.92 258.31,-114.3 253.92,-121.9 253.92,-121.9"/>
</g>
<!-- Node6&#45;&gt;Node4 -->
<g id="edge6" class="edge">
<title>Node6&#45;&gt;Node4</title>
<path fill="none" stroke="#9a32cd" stroke-dasharray="5,2" d="M306.75,-26.69C302.99,-33.65 298.08,-41.64 292.5,-48 286.48,-54.87 278.48,-61.21 271.75,-65.96"/>
<polygon fill="#9a32cd" stroke="#9a32cd" points="310.6,-19.14 310.17,-27.9 308.79,-22.7 306.97,-26.27 306.97,-26.27 306.97,-26.27 308.79,-22.7 303.76,-24.63 310.6,-19.14 310.6,-19.14"/>
<text text-anchor="middle" x="313.5" y="-40" font-family="Helvetica,sans-Serif" font-size="10.00"> d_ptr</text>
</g>
</g>
</svg>
