<?xml version="1.0" encoding="UTF-8" standalone="no"?>
<!DOCTYPE svg PUBLIC "-//W3C//DTD SVG 1.1//EN"
 "http://www.w3.org/Graphics/SVG/1.1/DTD/svg11.dtd">
<!-- Generated by graphviz version 2.43.0 (0)
 -->
<!-- Title: MultimeterService::readCharacteristics Pages: 1 -->
<svg width="589pt" height="64pt"
 viewBox="0.00 0.00 589.00 64.00" xmlns="http://www.w3.org/2000/svg" xmlns:xlink="http://www.w3.org/1999/xlink">
<g id="graph0" class="graph" transform="scale(1 1) rotate(0) translate(4 60)">
<title>MultimeterService::readCharacteristics</title>
<!-- Node1 -->
<g id="Node000001" class="node">
<title>Node1</title>
<g id="a_Node000001"><a xlink:title="Read all characteristics.">
<polygon fill="#999999" stroke="#666666" points="113,-42.5 0,-42.5 0,-12.5 113,-12.5 113,-42.5"/>
<text text-anchor="start" x="8" y="-30.5" font-family="Helvetica,sans-Serif" font-size="10.00">MultimeterService::</text>
<text text-anchor="middle" x="56.5" y="-19.5" font-family="Helvetica,sans-Serif" font-size="10.00">readCharacteristics</text>
</a>
</g>
</g>
<!-- Node2 -->
<g id="Node000002" class="node">
<title>Node2</title>
<g id="a_Node000002"><a xlink:href="classMultimeterService.html#a818612a809f2addc659b44bc537c4428" target="_top" xlink:title="Read the Multimeter service&#39;s Reading characteristic.">
<polygon fill="white" stroke="#666666" points="295,-42.5 149,-42.5 149,-12.5 295,-12.5 295,-42.5"/>
<text text-anchor="start" x="157" y="-30.5" font-family="Helvetica,sans-Serif" font-size="10.00">MultimeterService::</text>
<text text-anchor="middle" x="222" y="-19.5" font-family="Helvetica,sans-Serif" font-size="10.00">readReadingCharacteristic</text>
</a>
</g>
</g>
<!-- Node1&#45;&gt;Node2 -->
<g id="edge1_Node000001_Node000002" class="edge">
<title>Node1&#45;&gt;Node2</title>
<g id="a_edge1_Node000001_Node000002"><a xlink:title=" ">
<path fill="none" stroke="#63b8ff" d="M113.31,-27.5C122.18,-27.5 131.51,-27.5 140.81,-27.5"/>
<polygon fill="#63b8ff" stroke="#63b8ff" points="148.96,-27.5 140.96,-31.1 144.96,-27.5 140.96,-27.5 140.96,-27.5 140.96,-27.5 144.96,-27.5 140.96,-23.9 148.96,-27.5 148.96,-27.5"/>
</a>
</g>
</g>
<!-- Node3 -->
<g id="Node000003" class="node">
<title>Node3</title>
<g id="a_Node000003"><a xlink:href="classMultimeterService.html#a8121655f13ddf00fc2a65921b5ebc67b" target="_top" xlink:title="Constructs a new Pokit service with parent.">
<polygon fill="white" stroke="#666666" points="444,-42.5 331,-42.5 331,-12.5 444,-12.5 444,-42.5"/>
<text text-anchor="start" x="339" y="-30.5" font-family="Helvetica,sans-Serif" font-size="10.00">MultimeterService::</text>
<text text-anchor="middle" x="387.5" y="-19.5" font-family="Helvetica,sans-Serif" font-size="10.00">MultimeterService</text>
</a>
</g>
</g>
<!-- Node2&#45;&gt;Node3 -->
<g id="edge2_Node000002_Node000003" class="edge">
<title>Node2&#45;&gt;Node3</title>
<g id="a_edge2_Node000002_Node000003"><a xlink:title=" ">
<path fill="none" stroke="#63b8ff" d="M295.19,-27.5C304.36,-27.5 313.69,-27.5 322.72,-27.5"/>
<polygon fill="#63b8ff" stroke="#63b8ff" points="330.9,-27.5 322.9,-31.1 326.9,-27.5 322.9,-27.5 322.9,-27.5 322.9,-27.5 326.9,-27.5 322.9,-23.9 330.9,-27.5 330.9,-27.5"/>
</a>
</g>
</g>
<!-- Node4 -->
<g id="Node000004" class="node">
<title>Node4</title>
<g id="a_Node000004"><a target="_parent" xlink:href="https://doc.qt.io/qt-5/qobject.html#parent" xlink:title=" ">
<polygon fill="white" stroke="#666666" points="577,-56 484,-56 484,-37 577,-37 577,-56"/>
<text text-anchor="middle" x="530.5" y="-44" font-family="Helvetica,sans-Serif" font-size="10.00">QObject::parent</text>
</a>
</g>
</g>
<!-- Node3&#45;&gt;Node4 -->
<g id="edge3_Node000003_Node000004" class="edge">
<title>Node3&#45;&gt;Node4</title>
<g id="a_edge3_Node000003_Node000004"><a xlink:title=" ">
<path fill="none" stroke="#63b8ff" d="M444.23,-35.01C454.55,-36.4 465.32,-37.85 475.59,-39.24"/>
<polygon fill="#63b8ff" stroke="#63b8ff" points="483.7,-40.33 475.29,-42.83 479.74,-39.79 475.77,-39.26 475.77,-39.26 475.77,-39.26 479.74,-39.79 476.26,-35.69 483.7,-40.33 483.7,-40.33"/>
</a>
</g>
</g>
<!-- Node5 -->
<g id="Node000005" class="node">
<title>Node5</title>
<g id="a_Node000005"><a target="_parent" xlink:href="https://doc.qt.io/qt-5/qobject.html#QObject" xlink:title=" ">
<polygon fill="white" stroke="#666666" points="581,-19 480,-19 480,0 581,0 581,-19"/>
<text text-anchor="middle" x="530.5" y="-7" font-family="Helvetica,sans-Serif" font-size="10.00">QObject::QObject</text>
</a>
</g>
</g>
<!-- Node3&#45;&gt;Node5 -->
<g id="edge4_Node000003_Node000005" class="edge">
<title>Node3&#45;&gt;Node5</title>
<g id="a_edge4_Node000003_Node000005"><a xlink:title=" ">
<path fill="none" stroke="#63b8ff" d="M444.23,-20.39C453.19,-19.24 462.48,-18.06 471.49,-16.91"/>
<polygon fill="#63b8ff" stroke="#63b8ff" points="479.66,-15.86 472.18,-20.45 475.7,-16.37 471.73,-16.88 471.73,-16.88 471.73,-16.88 475.7,-16.37 471.27,-13.3 479.66,-15.86 479.66,-15.86"/>
</a>
</g>
</g>
</g>
</svg>
