<?xml version="1.0" encoding="UTF-8" standalone="no"?>
<!DOCTYPE svg PUBLIC "-//W3C//DTD SVG 1.1//EN"
 "http://www.w3.org/Graphics/SVG/1.1/DTD/svg11.dtd">
<!-- Generated by graphviz version 2.43.0 (0)
 -->
<!-- Title: AbstractPokitService Pages: 1 -->
<svg width="551pt" height="155pt"
 viewBox="0.00 0.00 551.00 155.00" xmlns="http://www.w3.org/2000/svg" xmlns:xlink="http://www.w3.org/1999/xlink">
<g id="graph0" class="graph" transform="scale(1 1) rotate(0) translate(4 151)">
<title>AbstractPokitService</title>
<!-- Node1 -->
<g id="Node000001" class="node">
<title>Node1</title>
<g id="a_Node000001"><a xlink:title="The AbstractPokitService class provides a common base for Pokit services classes.">
<polygon fill="#999999" stroke="#666666" points="118,-91 0,-91 0,-72 118,-72 118,-91"/>
<text text-anchor="middle" x="59" y="-79" font-family="Helvetica,sans-Serif" font-size="10.00">AbstractPokitService</text>
</a>
</g>
</g>
<!-- Node3 -->
<g id="Node000003" class="node">
<title>Node3</title>
<g id="a_Node000003"><a xlink:href="classAbstractPokitServicePrivate.html" target="_top" xlink:title="The AbstractPokitServicePrivate class provides private implementation for AbstractPokitService.">
<polygon fill="white" stroke="#666666" points="253,-19 101,-19 101,0 253,0 253,-19"/>
<text text-anchor="middle" x="177" y="-7" font-family="Helvetica,sans-Serif" font-size="10.00">AbstractPokitServicePrivate</text>
</a>
</g>
</g>
<!-- Node1&#45;&gt;Node3 -->
<g id="edge10_Node000003_Node000001" class="edge">
<title>Node1&#45;&gt;Node3</title>
<g id="a_edge10_Node000003_Node000001"><a xlink:title=" ">
<path fill="none" stroke="#9a32cd" stroke-dasharray="5,2" d="M47.9,-64.96C42.95,-55.97 39.53,-44.91 46,-37 53.57,-27.75 76.25,-21.65 100.66,-17.67"/>
<polygon fill="#9a32cd" stroke="#9a32cd" points="52.24,-71.91 44.95,-67.03 50.12,-68.51 48,-65.12 48,-65.12 48,-65.12 50.12,-68.51 51.06,-63.21 52.24,-71.91 52.24,-71.91"/>
</a>
</g>
<text text-anchor="start" x="49.5" y="-42.5" font-family="Helvetica,sans-Serif" font-size="10.00" fill="grey">q_ptr</text>
</g>
<!-- Node2 -->
<g id="Node000002" class="node">
<title>Node2</title>
<g id="a_Node000002"><a target="_parent" xlink:href="https://doc.qt.io/qt-5/qobject.html" xlink:title=" ">
<polygon fill="white" stroke="#bfbfbf" points="203,-147 147,-147 147,-128 203,-128 203,-147"/>
<text text-anchor="middle" x="175" y="-135" font-family="Helvetica,sans-Serif" font-size="10.00">QObject</text>
</a>
</g>
</g>
<!-- Node2&#45;&gt;Node1 -->
<g id="edge1_Node000001_Node000002" class="edge">
<title>Node2&#45;&gt;Node1</title>
<g id="a_edge1_Node000001_Node000002"><a xlink:title=" ">
<path fill="none" stroke="#63b8ff" d="M149.31,-124.54C127.48,-114.38 96.69,-100.05 77.29,-91.02"/>
<polygon fill="#63b8ff" stroke="#63b8ff" points="156.62,-127.94 147.85,-127.83 152.99,-126.26 149.37,-124.57 149.37,-124.57 149.37,-124.57 152.99,-126.26 150.89,-121.3 156.62,-127.94 156.62,-127.94"/>
</a>
</g>
</g>
<!-- Node2&#45;&gt;Node3 -->
<g id="edge3_Node000003_Node000002" class="edge">
<title>Node2&#45;&gt;Node3</title>
<g id="a_edge3_Node000003_Node000002"><a xlink:title=" ">
<path fill="none" stroke="#63b8ff" d="M170.5,-120.11C168.37,-111.51 166.06,-100.77 165,-91 162.16,-64.87 169.78,-34.22 174.16,-19.4"/>
<polygon fill="#63b8ff" stroke="#63b8ff" points="172.52,-127.87 167.02,-121.03 171.51,-124 170.5,-120.13 170.5,-120.13 170.5,-120.13 171.51,-124 173.99,-119.22 172.52,-127.87 172.52,-127.87"/>
</a>
</g>
</g>
<!-- Node4 -->
<g id="Node000004" class="node">
<title>Node4</title>
<g id="a_Node000004"><a target="_parent" xlink:href="https://doc.qt.io/qt-5/qlowenergycontroller.html" xlink:title=" ">
<polygon fill="white" stroke="#bfbfbf" points="299.5,-91 174.5,-91 174.5,-72 299.5,-72 299.5,-91"/>
<text text-anchor="middle" x="237" y="-79" font-family="Helvetica,sans-Serif" font-size="10.00">QLowEnergyController</text>
</a>
</g>
</g>
<!-- Node2&#45;&gt;Node4 -->
<g id="edge5_Node000004_Node000002" class="edge">
<title>Node2&#45;&gt;Node4</title>
<g id="a_edge5_Node000004_Node000002"><a xlink:title=" ">
<path fill="none" stroke="#63b8ff" d="M191.15,-122.44C202.44,-112.6 217.18,-99.76 226.86,-91.33"/>
<polygon fill="#63b8ff" stroke="#63b8ff" points="184.96,-127.82 188.63,-119.85 187.98,-125.2 190.99,-122.57 190.99,-122.57 190.99,-122.57 187.98,-125.2 193.36,-125.28 184.96,-127.82 184.96,-127.82"/>
</a>
</g>
</g>
<!-- Node5 -->
<g id="Node000005" class="node">
<title>Node5</title>
<g id="a_Node000005"><a target="_parent" xlink:href="https://doc.qt.io/qt-5/qlowenergyservice.html" xlink:title=" ">
<polygon fill="white" stroke="#bfbfbf" points="430.5,-91 317.5,-91 317.5,-72 430.5,-72 430.5,-91"/>
<text text-anchor="middle" x="374" y="-79" font-family="Helvetica,sans-Serif" font-size="10.00">QLowEnergyService</text>
</a>
</g>
</g>
<!-- Node2&#45;&gt;Node5 -->
<g id="edge7_Node000005_Node000002" class="edge">
<title>Node2&#45;&gt;Node5</title>
<g id="a_edge7_Node000005_Node000002"><a xlink:title=" ">
<path fill="none" stroke="#63b8ff" d="M211.23,-126.67C248.74,-116.49 306.75,-100.75 342.44,-91.06"/>
<polygon fill="#63b8ff" stroke="#63b8ff" points="203.09,-128.88 209.87,-123.31 206.95,-127.83 210.81,-126.78 210.81,-126.78 210.81,-126.78 206.95,-127.83 211.75,-130.26 203.09,-128.88 203.09,-128.88"/>
</a>
</g>
</g>
<!-- Node3&#45;&gt;Node1 -->
<g id="edge2_Node000001_Node000003" class="edge">
<title>Node3&#45;&gt;Node1</title>
<g id="a_edge2_Node000001_Node000003"><a xlink:title=" ">
<path fill="none" stroke="#9a32cd" stroke-dasharray="5,2" d="M134.09,-21.56C122.83,-25.49 111.04,-30.57 101,-37 86.14,-46.51 72.7,-62.27 65.21,-71.98"/>
<polygon fill="#9a32cd" stroke="#9a32cd" points="141.77,-19.03 135.3,-24.95 137.97,-20.28 134.17,-21.54 134.17,-21.54 134.17,-21.54 137.97,-20.28 133.04,-18.12 141.77,-19.03 141.77,-19.03"/>
</a>
</g>
<text text-anchor="start" x="104.5" y="-42.5" font-family="Helvetica,sans-Serif" font-size="10.00" fill="grey">d_ptr</text>
</g>
<!-- Node4&#45;&gt;Node3 -->
<g id="edge4_Node000003_Node000004" class="edge">
<title>Node4&#45;&gt;Node3</title>
<g id="a_edge4_Node000003_Node000004"><a xlink:title=" ">
<path fill="none" stroke="#9a32cd" stroke-dasharray="5,2" d="M224.21,-65.58C212.11,-51.46 194.35,-30.74 184.42,-19.15"/>
<polygon fill="#9a32cd" stroke="#9a32cd" points="229.64,-71.92 221.7,-68.19 227.04,-68.88 224.44,-65.84 224.44,-65.84 224.44,-65.84 227.04,-68.88 227.17,-63.5 229.64,-71.92 229.64,-71.92"/>
</a>
</g>
<text text-anchor="start" x="218.5" y="-42.5" font-family="Helvetica,sans-Serif" font-size="10.00" fill="grey">controller</text>
</g>
<!-- Node5&#45;&gt;Node3 -->
<g id="edge6_Node000003_Node000005" class="edge">
<title>Node5&#45;&gt;Node3</title>
<g id="a_edge6_Node000003_Node000005"><a xlink:title=" ">
<path fill="none" stroke="#9a32cd" stroke-dasharray="5,2" d="M348.51,-68.52C328.09,-59.2 298.58,-46.33 272,-37 252.45,-30.14 230.16,-23.84 212.08,-19.11"/>
<polygon fill="#9a32cd" stroke="#9a32cd" points="355.86,-71.91 347.09,-71.83 352.23,-70.23 348.59,-68.56 348.59,-68.56 348.59,-68.56 352.23,-70.23 350.1,-65.29 355.86,-71.91 355.86,-71.91"/>
</a>
</g>
<text text-anchor="start" x="318" y="-42.5" font-family="Helvetica,sans-Serif" font-size="10.00" fill="grey">service</text>
</g>
<!-- Node6 -->
<g id="Node000006" class="node">
<title>Node6</title>
<g id="a_Node000006"><a target="_parent" xlink:href="https://doc.qt.io/qt-5/qbluetoothuuid.html" xlink:title=" ">
<polygon fill="white" stroke="#bfbfbf" points="543,-91 449,-91 449,-72 543,-72 543,-91"/>
<text text-anchor="middle" x="496" y="-79" font-family="Helvetica,sans-Serif" font-size="10.00">QBluetoothUuid</text>
</a>
</g>
</g>
<!-- Node6&#45;&gt;Node3 -->
<g id="edge8_Node000003_Node000006" class="edge">
<title>Node6&#45;&gt;Node3</title>
<g id="a_edge8_Node000003_Node000006"><a xlink:title=" ">
<path fill="none" stroke="#9a32cd" stroke-dasharray="5,2" d="M465.8,-69.15C438.71,-59.35 397.68,-45.49 361,-37 325.94,-28.89 286.52,-22.82 253.18,-18.54"/>
<polygon fill="#9a32cd" stroke="#9a32cd" points="473.4,-71.92 464.65,-72.56 469.64,-70.55 465.88,-69.18 465.88,-69.18 465.88,-69.18 469.64,-70.55 467.12,-65.8 473.4,-71.92 473.4,-71.92"/>
</a>
</g>
<text text-anchor="start" x="424" y="-42.5" font-family="Helvetica,sans-Serif" font-size="10.00" fill="grey">serviceUuid</text>
</g>
<!-- Node7 -->
<g id="Node000007" class="node">
<title>Node7</title>
<g id="a_Node000007"><a target="_parent" xlink:href="https://doc.qt.io/qt-5/quuid.html" xlink:title=" ">
<polygon fill="white" stroke="#bfbfbf" points="519.5,-147 472.5,-147 472.5,-128 519.5,-128 519.5,-147"/>
<text text-anchor="middle" x="496" y="-135" font-family="Helvetica,sans-Serif" font-size="10.00">QUuid</text>
</a>
</g>
</g>
<!-- Node7&#45;&gt;Node6 -->
<g id="edge9_Node000006_Node000007" class="edge">
<title>Node7&#45;&gt;Node6</title>
<g id="a_edge9_Node000006_Node000007"><a xlink:title=" ">
<path fill="none" stroke="#63b8ff" d="M496,-119.36C496,-110 496,-98.83 496,-91.25"/>
<polygon fill="#63b8ff" stroke="#63b8ff" points="496,-127.58 492.4,-119.58 496,-123.58 496,-119.58 496,-119.58 496,-119.58 496,-123.58 499.6,-119.58 496,-127.58 496,-127.58"/>
</a>
</g>
</g>
</g>
</svg>
