<?xml version="1.0" encoding="UTF-8" standalone="no"?>
<!DOCTYPE svg PUBLIC "-//W3C//DTD SVG 1.1//EN"
 "http://www.w3.org/Graphics/SVG/1.1/DTD/svg11.dtd">
<!-- Generated by graphviz version 2.43.0 (0)
 -->
<!-- Title: PokitDevicePrivate Pages: 1 -->
<svg width="1237pt" height="421pt"
 viewBox="0.00 0.00 1237.00 420.50" xmlns="http://www.w3.org/2000/svg" xmlns:xlink="http://www.w3.org/1999/xlink">
<g id="graph0" class="graph" transform="scale(1 1) rotate(0) translate(4 416.5)">
<title>PokitDevicePrivate</title>
<!-- Node1 -->
<g id="node1" class="node">
<title>Node1</title>
<g id="a_node1"><a xlink:title="The PokitDevicePrivate class provides private implementation for PokitDevice.">
<polygon fill="#999999" stroke="#666666" points="1090,-197 980,-197 980,-178 1090,-178 1090,-197"/>
<text text-anchor="middle" x="1035" y="-185" font-family="Helvetica,sans-Serif" font-size="10.00">PokitDevicePrivate</text>
</a>
</g>
</g>
<!-- Node18 -->
<g id="node18" class="node">
<title>Node18</title>
<g id="a_node18"><a xlink:href="classPokitDevice.html" target="_top" xlink:title="The PokitDevice class simplifies Pokit device access.">
<polygon fill="white" stroke="#666666" points="1229,-231 1154,-231 1154,-212 1229,-212 1229,-231"/>
<text text-anchor="middle" x="1191.5" y="-219" font-family="Helvetica,sans-Serif" font-size="10.00">PokitDevice</text>
</a>
</g>
</g>
<!-- Node1&#45;&gt;Node18 -->
<g id="edge37" class="edge">
<title>Node1&#45;&gt;Node18</title>
<path fill="none" stroke="#9a32cd" stroke-dasharray="5,2" d="M1089.34,-199.24C1110.64,-203.93 1134.63,-209.21 1153.91,-213.45"/>
<polygon fill="#9a32cd" stroke="#9a32cd" points="1089.97,-195.79 1079.45,-197.06 1088.46,-202.63 1089.97,-195.79"/>
<text text-anchor="middle" x="1122" y="-212.5" font-family="Helvetica,sans-Serif" font-size="10.00"> d_ptr</text>
</g>
<!-- Node2 -->
<g id="node2" class="node">
<title>Node2</title>
<g id="a_node2"><a target="_parent" xlink:href="https://doc.qt.io/qt-5/qobject.html" xlink:title=" ">
<polygon fill="white" stroke="#bfbfbf" points="56,-327 0,-327 0,-308 56,-308 56,-327"/>
<text text-anchor="middle" x="28" y="-315" font-family="Helvetica,sans-Serif" font-size="10.00">QObject</text>
</a>
</g>
</g>
<!-- Node2&#45;&gt;Node1 -->
<g id="edge1" class="edge">
<title>Node2&#45;&gt;Node1</title>
<path fill="none" stroke="#63b8ff" d="M49.22,-333.2C73.01,-350.07 114.4,-374.5 154.5,-374.5 154.5,-374.5 154.5,-374.5 782,-374.5 862.54,-374.5 897.34,-401.53 962,-353.5 1015.46,-313.79 1029.75,-226.01 1033.09,-197.01"/>
<polygon fill="#63b8ff" stroke="#63b8ff" points="51.13,-330.26 41,-327.17 46.99,-335.91 51.13,-330.26"/>
</g>
<!-- Node3 -->
<g id="node3" class="node">
<title>Node3</title>
<g id="a_node3"><a target="_parent" xlink:href="https://doc.qt.io/qt-5/qlowenergycontroller.html" xlink:title=" ">
<polygon fill="white" stroke="#bfbfbf" points="218,-302 93,-302 93,-283 218,-283 218,-302"/>
<text text-anchor="middle" x="155.5" y="-290" font-family="Helvetica,sans-Serif" font-size="10.00">QLowEnergyController</text>
</a>
</g>
</g>
<!-- Node2&#45;&gt;Node3 -->
<g id="edge3" class="edge">
<title>Node2&#45;&gt;Node3</title>
<path fill="none" stroke="#63b8ff" d="M66.38,-310.05C79,-307.54 93.25,-304.7 106.57,-302.05"/>
<polygon fill="#63b8ff" stroke="#63b8ff" points="65.36,-306.69 56.23,-312.08 66.72,-313.55 65.36,-306.69"/>
</g>
<!-- Node5 -->
<g id="node5" class="node">
<title>Node5</title>
<g id="a_node5"><a xlink:href="classAbstractPokitService.html" target="_top" xlink:title="The AbstractPokitService class provides a common base for Pokit services classes.">
<polygon fill="white" stroke="#666666" points="682,-187 564,-187 564,-168 682,-168 682,-187"/>
<text text-anchor="middle" x="623" y="-175" font-family="Helvetica,sans-Serif" font-size="10.00">AbstractPokitService</text>
</a>
</g>
</g>
<!-- Node2&#45;&gt;Node5 -->
<g id="edge6" class="edge">
<title>Node2&#45;&gt;Node5</title>
<path fill="none" stroke="#63b8ff" d="M66.25,-318.84C104.54,-319.63 165.76,-319.26 218,-311.5 291.15,-300.64 453.15,-249.63 546,-213.5 566.14,-205.66 588.39,-194.86 603.59,-187.13"/>
<polygon fill="#63b8ff" stroke="#63b8ff" points="66.17,-315.34 56.09,-318.59 66,-322.34 66.17,-315.34"/>
</g>
<!-- Node6 -->
<g id="node6" class="node">
<title>Node6</title>
<g id="a_node6"><a xlink:href="classAbstractPokitServicePrivate.html" target="_top" xlink:title="The AbstractPokitServicePrivate class provides private implementation for AbstractPokitService.">
<polygon fill="white" stroke="#666666" points="467,-225 315,-225 315,-206 467,-206 467,-225"/>
<text text-anchor="middle" x="391" y="-213" font-family="Helvetica,sans-Serif" font-size="10.00">AbstractPokitServicePrivate</text>
</a>
</g>
</g>
<!-- Node2&#45;&gt;Node6 -->
<g id="edge8" class="edge">
<title>Node2&#45;&gt;Node6</title>
<path fill="none" stroke="#63b8ff" d="M37.88,-298.78C48.17,-279.44 67.09,-250.2 93,-236.5 130.13,-216.87 239.79,-213.7 314.94,-214"/>
<polygon fill="#63b8ff" stroke="#63b8ff" points="34.68,-297.36 33.3,-307.86 40.93,-300.51 34.68,-297.36"/>
</g>
<!-- Node7 -->
<g id="node7" class="node">
<title>Node7</title>
<g id="a_node7"><a target="_parent" xlink:href="https://doc.qt.io/qt-5/qlowenergyservice.html" xlink:title=" ">
<polygon fill="white" stroke="#bfbfbf" points="212,-265 99,-265 99,-246 212,-246 212,-265"/>
<text text-anchor="middle" x="155.5" y="-253" font-family="Helvetica,sans-Serif" font-size="10.00">QLowEnergyService</text>
</a>
</g>
</g>
<!-- Node2&#45;&gt;Node7 -->
<g id="edge11" class="edge">
<title>Node2&#45;&gt;Node7</title>
<path fill="none" stroke="#63b8ff" d="M48.64,-301.56C60.82,-292.31 77.12,-281.04 93,-273.5 99.93,-270.21 107.6,-267.38 115.09,-265.01"/>
<polygon fill="#63b8ff" stroke="#63b8ff" points="46.31,-298.94 40.57,-307.85 50.61,-304.46 46.31,-298.94"/>
</g>
<!-- Node2&#45;&gt;Node18 -->
<g id="edge36" class="edge">
<title>Node2&#45;&gt;Node18</title>
<path fill="none" stroke="#63b8ff" d="M41.21,-335.74C61.3,-363.33 104.17,-412.5 154.5,-412.5 154.5,-412.5 154.5,-412.5 1036,-412.5 1130.26,-412.5 1176.92,-270.16 1187.91,-231.23"/>
<polygon fill="#63b8ff" stroke="#63b8ff" points="43.9,-333.48 35.29,-327.31 38.17,-337.5 43.9,-333.48"/>
</g>
<!-- Node3&#45;&gt;Node1 -->
<g id="edge2" class="edge">
<title>Node3&#45;&gt;Node1</title>
<path fill="none" stroke="#9a32cd" stroke-dasharray="5,2" d="M228.12,-300.77C413.8,-321.55 900.59,-371.69 962,-333.5 1012.16,-302.31 1028.41,-224.74 1032.68,-197.3"/>
<polygon fill="#9a32cd" stroke="#9a32cd" points="228.51,-297.29 218.18,-299.65 227.72,-304.24 228.51,-297.29"/>
<text text-anchor="middle" x="623" y="-344.5" font-family="Helvetica,sans-Serif" font-size="10.00"> controller</text>
</g>
<!-- Node3&#45;&gt;Node6 -->
<g id="edge9" class="edge">
<title>Node3&#45;&gt;Node6</title>
<path fill="none" stroke="#9a32cd" stroke-dasharray="5,2" d="M211.13,-280.71C237.39,-274.48 269.15,-266.13 297,-256.5 323.18,-247.44 352.23,-234.07 370.78,-225.09"/>
<polygon fill="#9a32cd" stroke="#9a32cd" points="210.29,-277.31 201.35,-282.99 211.88,-284.13 210.29,-277.31"/>
<text text-anchor="middle" x="266.5" y="-278.5" font-family="Helvetica,sans-Serif" font-size="10.00"> controller</text>
</g>
<!-- Node4 -->
<g id="node4" class="node">
<title>Node4</title>
<g id="a_node4"><a xlink:href="classCalibrationService.html" target="_top" xlink:title="The CalibrationService class accesses the Calibrartion service of Pokit devices.">
<polygon fill="white" stroke="#666666" points="834,-130 728,-130 728,-111 834,-111 834,-130"/>
<text text-anchor="middle" x="781" y="-118" font-family="Helvetica,sans-Serif" font-size="10.00">CalibrationService</text>
</a>
</g>
</g>
<!-- Node4&#45;&gt;Node1 -->
<g id="edge4" class="edge">
<title>Node4&#45;&gt;Node1</title>
<path fill="none" stroke="#9a32cd" stroke-dasharray="5,2" d="M844.24,-123.17C879.56,-126.15 924.14,-132.4 962,-145.5 984.29,-153.21 1007.39,-168.13 1021.22,-177.95"/>
<polygon fill="#9a32cd" stroke="#9a32cd" points="844.3,-119.67 834.06,-122.38 843.76,-126.64 844.3,-119.67"/>
<text text-anchor="middle" x="911.5" y="-148.5" font-family="Helvetica,sans-Serif" font-size="10.00"> calibration</text>
</g>
<!-- Node5&#45;&gt;Node4 -->
<g id="edge5" class="edge">
<title>Node5&#45;&gt;Node4</title>
<path fill="none" stroke="#63b8ff" d="M654.99,-163.83C673.41,-155.95 697.33,-146.12 719,-138.5 727.44,-135.53 736.64,-132.64 745.28,-130.07"/>
<polygon fill="#63b8ff" stroke="#63b8ff" points="653.43,-160.7 645.64,-167.87 656.21,-167.12 653.43,-160.7"/>
</g>
<!-- Node5&#45;&gt;Node6 -->
<g id="edge14" class="edge">
<title>Node5&#45;&gt;Node6</title>
<path fill="none" stroke="#9a32cd" stroke-dasharray="5,2" d="M554.16,-188.71C520.97,-194.19 481.46,-200.72 449.74,-205.96"/>
<polygon fill="#9a32cd" stroke="#9a32cd" points="554.94,-192.13 564.23,-187.04 553.8,-185.22 554.94,-192.13"/>
<text text-anchor="middle" x="515.5" y="-203.5" font-family="Helvetica,sans-Serif" font-size="10.00"> q_ptr</text>
</g>
<!-- Node10 -->
<g id="node10" class="node">
<title>Node10</title>
<g id="a_node10"><a xlink:href="classDataLoggerService.html" target="_top" xlink:title="The DataLoggerService class accesses the Pokit Status service of Pokit devices.">
<polygon fill="white" stroke="#666666" points="835.5,-93 726.5,-93 726.5,-74 835.5,-74 835.5,-93"/>
<text text-anchor="middle" x="781" y="-81" font-family="Helvetica,sans-Serif" font-size="10.00">DataLoggerService</text>
</a>
</g>
</g>
<!-- Node5&#45;&gt;Node10 -->
<g id="edge17" class="edge">
<title>Node5&#45;&gt;Node10</title>
<path fill="none" stroke="#63b8ff" d="M640.69,-160.74C658.62,-143.61 688.63,-117.34 719,-101.5 725.36,-98.18 732.43,-95.39 739.43,-93.06"/>
<polygon fill="#63b8ff" stroke="#63b8ff" points="638.07,-158.41 633.35,-167.89 642.96,-163.42 638.07,-158.41"/>
</g>
<!-- Node11 -->
<g id="node11" class="node">
<title>Node11</title>
<g id="a_node11"><a xlink:href="classDeviceInfoService.html" target="_top" xlink:title="The DeviceInfoService class accesses the Device Info service of Pokit devices.">
<polygon fill="white" stroke="#666666" points="833.5,-19 728.5,-19 728.5,0 833.5,0 833.5,-19"/>
<text text-anchor="middle" x="781" y="-7" font-family="Helvetica,sans-Serif" font-size="10.00">DeviceInfoService</text>
</a>
</g>
</g>
<!-- Node5&#45;&gt;Node11 -->
<g id="edge20" class="edge">
<title>Node5&#45;&gt;Node11</title>
<path fill="none" stroke="#63b8ff" d="M630.98,-158.19C643.55,-126.17 673.02,-62.2 719,-27.5 723.49,-24.11 728.62,-21.35 733.94,-19.11"/>
<polygon fill="#63b8ff" stroke="#63b8ff" points="627.64,-157.14 627.37,-167.73 634.18,-159.62 627.64,-157.14"/>
</g>
<!-- Node12 -->
<g id="node12" class="node">
<title>Node12</title>
<g id="a_node12"><a xlink:href="classDsoService.html" target="_top" xlink:title="The DsoService class accesses the Pokit Status service of Pokit devices.">
<polygon fill="white" stroke="#666666" points="816.5,-167 745.5,-167 745.5,-148 816.5,-148 816.5,-167"/>
<text text-anchor="middle" x="781" y="-155" font-family="Helvetica,sans-Serif" font-size="10.00">DsoService</text>
</a>
</g>
</g>
<!-- Node5&#45;&gt;Node12 -->
<g id="edge23" class="edge">
<title>Node5&#45;&gt;Node12</title>
<path fill="none" stroke="#63b8ff" d="M692.22,-170.59C695.19,-170.23 698.13,-169.87 701,-169.5 715.59,-167.64 731.64,-165.26 745.44,-163.11"/>
<polygon fill="#63b8ff" stroke="#63b8ff" points="691.59,-167.14 682.06,-171.76 692.39,-174.09 691.59,-167.14"/>
</g>
<!-- Node13 -->
<g id="node13" class="node">
<title>Node13</title>
<g id="a_node13"><a xlink:href="classGenericAccessService.html" target="_top" xlink:title="The GenericAccessService class accesses the Generic Access service of Pokit devices.">
<polygon fill="white" stroke="#666666" points="843,-218 719,-218 719,-199 843,-199 843,-218"/>
<text text-anchor="middle" x="781" y="-206" font-family="Helvetica,sans-Serif" font-size="10.00">GenericAccessService</text>
</a>
</g>
</g>
<!-- Node5&#45;&gt;Node13 -->
<g id="edge26" class="edge">
<title>Node5&#45;&gt;Node13</title>
<path fill="none" stroke="#63b8ff" d="M682.13,-189.05C698.58,-192.32 716.3,-195.84 732.08,-198.98"/>
<polygon fill="#63b8ff" stroke="#63b8ff" points="682.57,-185.57 672.08,-187.05 681.2,-192.44 682.57,-185.57"/>
</g>
<!-- Node14 -->
<g id="node14" class="node">
<title>Node14</title>
<g id="a_node14"><a xlink:href="classMultimeterService.html" target="_top" xlink:title="The MultimeterService class accesses the Pokit Status service of Pokit devices.">
<polygon fill="white" stroke="#666666" points="834.5,-56 727.5,-56 727.5,-37 834.5,-37 834.5,-56"/>
<text text-anchor="middle" x="781" y="-44" font-family="Helvetica,sans-Serif" font-size="10.00">MultimeterService</text>
</a>
</g>
</g>
<!-- Node5&#45;&gt;Node14 -->
<g id="edge29" class="edge">
<title>Node5&#45;&gt;Node14</title>
<path fill="none" stroke="#63b8ff" d="M634.6,-159.14C650,-134.07 680.94,-89.4 719,-64.5 724.17,-61.11 730,-58.35 735.95,-56.09"/>
<polygon fill="#63b8ff" stroke="#63b8ff" points="631.43,-157.62 629.3,-168 637.44,-161.21 631.43,-157.62"/>
</g>
<!-- Node15 -->
<g id="node15" class="node">
<title>Node15</title>
<g id="a_node15"><a xlink:href="classStatusService.html" target="_top" xlink:title="The StatusService class accesses the Pokit Status service of Pokit devices.">
<polygon fill="white" stroke="#666666" points="822.5,-256 739.5,-256 739.5,-237 822.5,-237 822.5,-256"/>
<text text-anchor="middle" x="781" y="-244" font-family="Helvetica,sans-Serif" font-size="10.00">StatusService</text>
</a>
</g>
</g>
<!-- Node5&#45;&gt;Node15 -->
<g id="edge32" class="edge">
<title>Node5&#45;&gt;Node15</title>
<path fill="none" stroke="#63b8ff" d="M649.62,-192.13C668.44,-202.53 694.84,-216.38 719,-226.5 728.15,-230.33 738.31,-233.92 747.67,-236.96"/>
<polygon fill="#63b8ff" stroke="#63b8ff" points="651.21,-189.01 640.77,-187.19 647.8,-195.12 651.21,-189.01"/>
</g>
<!-- Node6&#45;&gt;Node5 -->
<g id="edge7" class="edge">
<title>Node6&#45;&gt;Node5</title>
<path fill="none" stroke="#9a32cd" stroke-dasharray="5,2" d="M414.35,-200.42C432.5,-189.14 459.22,-174.64 485,-168.5 515.37,-161.26 550.54,-163.79 577.63,-167.98"/>
<polygon fill="#9a32cd" stroke="#9a32cd" points="412.22,-197.63 405.69,-205.97 416,-203.52 412.22,-197.63"/>
<text text-anchor="middle" x="515.5" y="-171.5" font-family="Helvetica,sans-Serif" font-size="10.00"> d_ptr</text>
</g>
<!-- Node7&#45;&gt;Node6 -->
<g id="edge10" class="edge">
<title>Node7&#45;&gt;Node6</title>
<path fill="none" stroke="#9a32cd" stroke-dasharray="5,2" d="M222.35,-244.22C257.69,-238.17 300.75,-230.79 334.39,-225.03"/>
<polygon fill="#9a32cd" stroke="#9a32cd" points="221.4,-240.83 212.13,-245.97 222.58,-247.73 221.4,-240.83"/>
<text text-anchor="middle" x="266.5" y="-244.5" font-family="Helvetica,sans-Serif" font-size="10.00"> service</text>
</g>
<!-- Node8 -->
<g id="node8" class="node">
<title>Node8</title>
<g id="a_node8"><a target="_parent" xlink:href="https://doc.qt.io/qt-5/qbluetoothuuid.html" xlink:title=" ">
<polygon fill="white" stroke="#bfbfbf" points="202.5,-105 108.5,-105 108.5,-86 202.5,-86 202.5,-105"/>
<text text-anchor="middle" x="155.5" y="-93" font-family="Helvetica,sans-Serif" font-size="10.00">QBluetoothUuid</text>
</a>
</g>
</g>
<!-- Node8&#45;&gt;Node4 -->
<g id="edge15" class="edge">
<title>Node8&#45;&gt;Node4</title>
<path fill="none" stroke="#9a32cd" stroke-dasharray="5,2" d="M212.97,-94.94C288.78,-94.49 427.62,-94.69 546,-100.5 608.51,-103.57 680.19,-110.15 727.56,-114.92"/>
<polygon fill="#9a32cd" stroke="#9a32cd" points="212.68,-91.45 202.7,-95.01 212.72,-98.45 212.68,-91.45"/>
<text text-anchor="middle" x="515.5" y="-103.5" font-family="Helvetica,sans-Serif" font-size="10.00"> serviceUuid</text>
</g>
<!-- Node8&#45;&gt;Node6 -->
<g id="edge12" class="edge">
<title>Node8&#45;&gt;Node6</title>
<path fill="none" stroke="#9a32cd" stroke-dasharray="5,2" d="M171.05,-113.1C185.8,-129.86 210.08,-154.66 236,-169.5 255.62,-180.73 312.07,-196.17 350.89,-205.99"/>
<polygon fill="#9a32cd" stroke="#9a32cd" points="173.42,-110.48 164.25,-105.16 168.1,-115.03 173.42,-110.48"/>
<text text-anchor="middle" x="266.5" y="-194.5" font-family="Helvetica,sans-Serif" font-size="10.00"> serviceUuid</text>
</g>
<!-- Node8&#45;&gt;Node10 -->
<g id="edge18" class="edge">
<title>Node8&#45;&gt;Node10</title>
<path fill="none" stroke="#9a32cd" stroke-dasharray="5,2" d="M212.49,-84.93C220.37,-83.65 228.37,-82.46 236,-81.5 372.96,-64.26 408.1,-56.32 546,-62.5 607.94,-65.27 678.82,-72.16 726.19,-77.29"/>
<polygon fill="#9a32cd" stroke="#9a32cd" points="211.91,-81.48 202.63,-86.59 213.07,-88.38 211.91,-81.48"/>
<text text-anchor="middle" x="515.5" y="-65.5" font-family="Helvetica,sans-Serif" font-size="10.00"> serviceUuid</text>
</g>
<!-- Node8&#45;&gt;Node11 -->
<g id="edge21" class="edge">
<title>Node8&#45;&gt;Node11</title>
<path fill="none" stroke="#9a32cd" stroke-dasharray="5,2" d="M180.88,-80.9C196.22,-72.31 216.69,-61.91 236,-55.5 269.84,-44.26 279.62,-45.98 315,-41.5 464.32,-22.61 642.13,-14.28 728.21,-11.13"/>
<polygon fill="#9a32cd" stroke="#9a32cd" points="178.99,-77.95 172.05,-85.96 182.47,-84.02 178.99,-77.95"/>
<text text-anchor="middle" x="515.5" y="-28.5" font-family="Helvetica,sans-Serif" font-size="10.00"> serviceUuid</text>
</g>
<!-- Node8&#45;&gt;Node12 -->
<g id="edge24" class="edge">
<title>Node8&#45;&gt;Node12</title>
<path fill="none" stroke="#9a32cd" stroke-dasharray="5,2" d="M212.5,-105.99C220.38,-107.28 228.38,-108.49 236,-109.5 427.52,-134.76 658.78,-150.22 745.2,-155.47"/>
<polygon fill="#9a32cd" stroke="#9a32cd" points="213.08,-102.53 202.64,-104.32 211.92,-109.44 213.08,-102.53"/>
<text text-anchor="middle" x="515.5" y="-144.5" font-family="Helvetica,sans-Serif" font-size="10.00"> serviceUuid</text>
</g>
<!-- Node8&#45;&gt;Node13 -->
<g id="edge27" class="edge">
<title>Node8&#45;&gt;Node13</title>
<path fill="none" stroke="#9a32cd" stroke-dasharray="5,2" d="M188.06,-108.99C202.55,-114.97 220.03,-121.91 236,-127.5 337.14,-162.88 375.73,-140.37 467,-196.5 476.91,-202.59 474.31,-210.9 485,-215.5 509.9,-226.21 518.89,-215.91 546,-215.5 604.72,-214.62 671.71,-212.5 718.92,-210.83"/>
<polygon fill="#9a32cd" stroke="#9a32cd" points="189.14,-105.64 178.57,-105.02 186.45,-112.1 189.14,-105.64"/>
<text text-anchor="middle" x="515.5" y="-223.5" font-family="Helvetica,sans-Serif" font-size="10.00"> serviceUuid</text>
</g>
<!-- Node8&#45;&gt;Node14 -->
<g id="edge30" class="edge">
<title>Node8&#45;&gt;Node14</title>
<path fill="none" stroke="#9a32cd" stroke-dasharray="5,2" d="M193.59,-82.75C206.86,-78.47 222,-73.93 236,-70.5 270.64,-62.02 279.59,-60.67 315,-56.5 463.76,-39 641.09,-41.61 727.47,-44.38"/>
<polygon fill="#9a32cd" stroke="#9a32cd" points="192.26,-79.5 183.85,-85.94 194.44,-86.15 192.26,-79.5"/>
<text text-anchor="middle" x="515.5" y="-47.5" font-family="Helvetica,sans-Serif" font-size="10.00"> serviceUuid</text>
</g>
<!-- Node9 -->
<g id="node9" class="node">
<title>Node9</title>
<g id="a_node9"><a target="_parent" xlink:href="https://doc.qt.io/qt-5/quuid.html" xlink:title=" ">
<polygon fill="white" stroke="#bfbfbf" points="51.5,-105 4.5,-105 4.5,-86 51.5,-86 51.5,-105"/>
<text text-anchor="middle" x="28" y="-93" font-family="Helvetica,sans-Serif" font-size="10.00">QUuid</text>
</a>
</g>
</g>
<!-- Node9&#45;&gt;Node8 -->
<g id="edge13" class="edge">
<title>Node9&#45;&gt;Node8</title>
<path fill="none" stroke="#63b8ff" d="M61.97,-95.5C76.13,-95.5 92.92,-95.5 108.29,-95.5"/>
<polygon fill="#63b8ff" stroke="#63b8ff" points="61.73,-92 51.73,-95.5 61.73,-99 61.73,-92"/>
</g>
<!-- Node10&#45;&gt;Node1 -->
<g id="edge16" class="edge">
<title>Node10&#45;&gt;Node1</title>
<path fill="none" stroke="#9a32cd" stroke-dasharray="5,2" d="M846.02,-82.94C881.92,-85.04 926.49,-91.83 962,-110.5 992.62,-126.59 1017.27,-160.89 1028.08,-177.74"/>
<polygon fill="#9a32cd" stroke="#9a32cd" points="845.82,-79.42 835.66,-82.44 845.48,-86.42 845.82,-79.42"/>
<text text-anchor="middle" x="911.5" y="-113.5" font-family="Helvetica,sans-Serif" font-size="10.00"> dataLogger</text>
</g>
<!-- Node11&#45;&gt;Node1 -->
<g id="edge19" class="edge">
<title>Node11&#45;&gt;Node1</title>
<path fill="none" stroke="#9a32cd" stroke-dasharray="5,2" d="M844.03,-1.04C881.49,0.75 928.33,-3.27 962,-27.5 1014.17,-65.04 1029.25,-149.39 1032.94,-177.89"/>
<polygon fill="#9a32cd" stroke="#9a32cd" points="843.49,2.44 833.73,-1.68 843.93,-4.55 843.49,2.44"/>
<text text-anchor="middle" x="911.5" y="-30.5" font-family="Helvetica,sans-Serif" font-size="10.00"> deviceInfo</text>
</g>
<!-- Node12&#45;&gt;Node1 -->
<g id="edge22" class="edge">
<title>Node12&#45;&gt;Node1</title>
<path fill="none" stroke="#9a32cd" stroke-dasharray="5,2" d="M827.04,-158.28C863.6,-159.44 916.38,-162.34 962,-169.5 974.86,-171.52 988.77,-174.75 1000.92,-177.92"/>
<polygon fill="#9a32cd" stroke="#9a32cd" points="826.81,-154.77 816.71,-157.98 826.61,-161.77 826.81,-154.77"/>
<text text-anchor="middle" x="911.5" y="-172.5" font-family="Helvetica,sans-Serif" font-size="10.00"> dso</text>
</g>
<!-- Node13&#45;&gt;Node1 -->
<g id="edge25" class="edge">
<title>Node13&#45;&gt;Node1</title>
<path fill="none" stroke="#9a32cd" stroke-dasharray="5,2" d="M822.39,-196.28C834.67,-193.1 848.28,-190.12 861,-188.5 900.48,-183.46 945.43,-183.37 979.62,-184.46"/>
<polygon fill="#9a32cd" stroke="#9a32cd" points="821.18,-192.98 812.43,-198.96 823,-199.74 821.18,-192.98"/>
<text text-anchor="middle" x="911.5" y="-191.5" font-family="Helvetica,sans-Serif" font-size="10.00"> genericAccess</text>
</g>
<!-- Node14&#45;&gt;Node1 -->
<g id="edge28" class="edge">
<title>Node14&#45;&gt;Node1</title>
<path fill="none" stroke="#9a32cd" stroke-dasharray="5,2" d="M844.7,-41.54C881.57,-41.62 927.56,-47.18 962,-69.5 1002.88,-95.99 1024.2,-154.67 1031.28,-177.83"/>
<polygon fill="#9a32cd" stroke="#9a32cd" points="844.52,-38.04 834.56,-41.66 844.59,-45.04 844.52,-38.04"/>
<text text-anchor="middle" x="911.5" y="-72.5" font-family="Helvetica,sans-Serif" font-size="10.00"> multimeter</text>
</g>
<!-- Node15&#45;&gt;Node1 -->
<g id="edge31" class="edge">
<title>Node15&#45;&gt;Node1</title>
<path fill="none" stroke="#9a32cd" stroke-dasharray="5,2" d="M820.9,-233.88C833.61,-229.97 847.84,-225.82 861,-222.5 900.52,-212.52 945.67,-203.47 979.93,-197.07"/>
<polygon fill="#9a32cd" stroke="#9a32cd" points="819.58,-230.62 811.08,-236.94 821.67,-237.3 819.58,-230.62"/>
<text text-anchor="middle" x="911.5" y="-225.5" font-family="Helvetica,sans-Serif" font-size="10.00"> status</text>
</g>
<!-- Node16 -->
<g id="node16" class="node">
<title>Node16</title>
<g id="a_node16"><a target="_parent" xlink:href="https://doc.qt.io/qt-5/qmutex.html" xlink:title=" ">
<polygon fill="white" stroke="#bfbfbf" points="808.5,-294 753.5,-294 753.5,-275 808.5,-275 808.5,-294"/>
<text text-anchor="middle" x="781" y="-282" font-family="Helvetica,sans-Serif" font-size="10.00">QMutex</text>
</a>
</g>
</g>
<!-- Node16&#45;&gt;Node1 -->
<g id="edge33" class="edge">
<title>Node16&#45;&gt;Node1</title>
<path fill="none" stroke="#9a32cd" stroke-dasharray="5,2" d="M818.32,-273.26C826.49,-270.55 835.09,-267.55 843,-264.5 851.17,-261.35 852.69,-259.26 861,-256.5 904.69,-241.97 919.53,-251.27 962,-233.5 984.72,-224 1008.25,-207.48 1021.98,-197.04"/>
<polygon fill="#9a32cd" stroke="#9a32cd" points="817.05,-269.99 808.63,-276.42 819.22,-276.65 817.05,-269.99"/>
<text text-anchor="middle" x="911.5" y="-325.5" font-family="Helvetica,sans-Serif" font-size="10.00"> calibrationMutex</text>
<text text-anchor="middle" x="911.5" y="-314.5" font-family="Helvetica,sans-Serif" font-size="10.00">dataLoggerMutex</text>
<text text-anchor="middle" x="911.5" y="-303.5" font-family="Helvetica,sans-Serif" font-size="10.00">deviceInfoMutex</text>
<text text-anchor="middle" x="911.5" y="-292.5" font-family="Helvetica,sans-Serif" font-size="10.00">dsoMutex</text>
<text text-anchor="middle" x="911.5" y="-281.5" font-family="Helvetica,sans-Serif" font-size="10.00">genericAccessMutex</text>
<text text-anchor="middle" x="911.5" y="-270.5" font-family="Helvetica,sans-Serif" font-size="10.00">multimeterMutex</text>
<text text-anchor="middle" x="911.5" y="-259.5" font-family="Helvetica,sans-Serif" font-size="10.00">statusMutex</text>
</g>
<!-- Node17 -->
<g id="node17" class="node">
<title>Node17</title>
<g id="a_node17"><a xlink:title=" ">
<polygon fill="white" stroke="#bfbfbf" points="663.5,-296 582.5,-296 582.5,-277 663.5,-277 663.5,-296"/>
<text text-anchor="middle" x="623" y="-284" font-family="Helvetica,sans-Serif" font-size="10.00">QBasicMutex</text>
</a>
</g>
</g>
<!-- Node17&#45;&gt;Node16 -->
<g id="edge34" class="edge">
<title>Node17&#45;&gt;Node16</title>
<path fill="none" stroke="#63b8ff" d="M673.93,-285.86C700.19,-285.52 731.34,-285.12 753.07,-284.85"/>
<polygon fill="#63b8ff" stroke="#63b8ff" points="673.72,-282.36 663.77,-285.99 673.81,-289.36 673.72,-282.36"/>
</g>
<!-- Node18&#45;&gt;Node1 -->
<g id="edge35" class="edge">
<title>Node18&#45;&gt;Node1</title>
<path fill="none" stroke="#9a32cd" stroke-dasharray="5,2" d="M1170.6,-205.9C1160.77,-199.16 1148.38,-192.02 1136,-188.5 1121.47,-184.37 1105.27,-182.93 1090.21,-182.83"/>
<polygon fill="#9a32cd" stroke="#9a32cd" points="1168.68,-208.83 1178.83,-211.86 1172.78,-203.16 1168.68,-208.83"/>
<text text-anchor="middle" x="1122" y="-191.5" font-family="Helvetica,sans-Serif" font-size="10.00"> q_ptr</text>
</g>
</g>
</svg>
