<?xml version="1.0" encoding="UTF-8" standalone="no"?>
<!DOCTYPE svg PUBLIC "-//W3C//DTD SVG 1.1//EN"
 "http://www.w3.org/Graphics/SVG/1.1/DTD/svg11.dtd">
<!-- Generated by graphviz version 2.43.0 (0)
 -->
<!-- Title: LoggerFetchCommand::outputSamples Pages: 1 -->
<svg width="499pt" height="318pt"
 viewBox="0.00 0.00 499.00 318.00" xmlns="http://www.w3.org/2000/svg" xmlns:xlink="http://www.w3.org/1999/xlink">
<g id="graph0" class="graph" transform="scale(1 1) rotate(0) translate(4 314)">
<title>LoggerFetchCommand::outputSamples</title>
<!-- Node1 -->
<g id="node1" class="node">
<title>Node1</title>
<g id="a_node1"><a xlink:title="Outputs logger samples in the selected ouput format.">
<polygon fill="#999999" stroke="#666666" points="126,-174.5 0,-174.5 0,-144.5 126,-144.5 126,-174.5"/>
<text text-anchor="start" x="8" y="-162.5" font-family="Helvetica,sans-Serif" font-size="10.00">LoggerFetchCommand</text>
<text text-anchor="middle" x="63" y="-151.5" font-family="Helvetica,sans-Serif" font-size="10.00">::outputSamples</text>
</a>
</g>
</g>
<!-- Node2 -->
<g id="node2" class="node">
<title>Node2</title>
<g id="a_node2"><a target="_parent" xlink:href="https://doc.qt.io/qt-5/qstring.html#arg-11" xlink:title=" ">
<polygon fill="white" stroke="#666666" points="278.5,-304 204.5,-304 204.5,-285 278.5,-285 278.5,-304"/>
<text text-anchor="middle" x="241.5" y="-292" font-family="Helvetica,sans-Serif" font-size="10.00">QString::arg</text>
</a>
</g>
</g>
<!-- Node1&#45;&gt;Node2 -->
<g id="edge1" class="edge">
<title>Node1&#45;&gt;Node2</title>
<path fill="none" stroke="#63b8ff" d="M72.31,-174.78C86.93,-200.12 119.74,-250.62 162,-276.5 171.68,-282.43 183.11,-286.4 194.21,-289.07"/>
<polygon fill="#63b8ff" stroke="#63b8ff" points="193.74,-292.55 204.25,-291.17 195.18,-285.7 193.74,-292.55"/>
</g>
<!-- Node3 -->
<g id="node3" class="node">
<title>Node3</title>
<g id="a_node3"><a xlink:href="classDeviceCommand.html#ae619166395b5651f1316fd5336d9fa2c" target="_top" xlink:title="Disconnects the underlying Pokit device, and sets exitCode to be return to the OS once the disconnect...">
<polygon fill="white" stroke="#666666" points="321,-267 162,-267 162,-248 321,-248 321,-267"/>
<text text-anchor="middle" x="241.5" y="-255" font-family="Helvetica,sans-Serif" font-size="10.00">DeviceCommand::disconnect</text>
</a>
</g>
</g>
<!-- Node1&#45;&gt;Node3 -->
<g id="edge2" class="edge">
<title>Node1&#45;&gt;Node3</title>
<path fill="none" stroke="#63b8ff" d="M80.13,-174.54C98.63,-191.08 130.47,-217.42 162,-233.5 170.67,-237.92 180.3,-241.69 189.76,-244.84"/>
<polygon fill="#63b8ff" stroke="#63b8ff" points="188.92,-248.25 199.51,-247.91 191.02,-241.57 188.92,-248.25"/>
</g>
<!-- Node6 -->
<g id="node6" class="node">
<title>Node6</title>
<g id="a_node6"><a target="_parent" xlink:href="https://doc.qt.io/qt-5/qobject.html#tr" xlink:title=" ">
<polygon fill="white" stroke="#666666" points="458.5,-224 389.5,-224 389.5,-205 458.5,-205 458.5,-224"/>
<text text-anchor="middle" x="424" y="-212" font-family="Helvetica,sans-Serif" font-size="10.00">QObject::tr</text>
</a>
</g>
</g>
<!-- Node1&#45;&gt;Node6 -->
<g id="edge12" class="edge">
<title>Node1&#45;&gt;Node6</title>
<path fill="none" stroke="#63b8ff" d="M92.72,-174.6C111.8,-183.85 137.73,-194.95 162,-200.5 236.7,-217.59 326.41,-218.23 378.83,-216.68"/>
<polygon fill="#63b8ff" stroke="#63b8ff" points="379.24,-220.17 389.12,-216.33 379.01,-213.17 379.24,-220.17"/>
</g>
<!-- Node7 -->
<g id="node7" class="node">
<title>Node7</title>
<g id="a_node7"><a target="_parent" xlink:href="https://doc.qt.io/qt-5/qstring.html#fromLatin1" xlink:title=" ">
<polygon fill="white" stroke="#666666" points="297.5,-191 185.5,-191 185.5,-172 297.5,-172 297.5,-191"/>
<text text-anchor="middle" x="241.5" y="-179" font-family="Helvetica,sans-Serif" font-size="10.00">QString::fromLatin1</text>
</a>
</g>
</g>
<!-- Node1&#45;&gt;Node7 -->
<g id="edge6" class="edge">
<title>Node1&#45;&gt;Node7</title>
<path fill="none" stroke="#63b8ff" d="M126.23,-167.26C142.02,-169.23 159.04,-171.35 174.99,-173.33"/>
<polygon fill="#63b8ff" stroke="#63b8ff" points="174.94,-176.86 185.3,-174.62 175.81,-169.91 174.94,-176.86"/>
</g>
<!-- Node8 -->
<g id="node8" class="node">
<title>Node8</title>
<g id="a_node8"><a target="_parent" xlink:href="https://doc.qt.io/qt-5/qdatetime.html#fromMSecsSinceEpoch" xlink:title=" ">
<polygon fill="white" stroke="#666666" points="321,-153.5 162,-153.5 162,-123.5 321,-123.5 321,-153.5"/>
<text text-anchor="start" x="170" y="-141.5" font-family="Helvetica,sans-Serif" font-size="10.00">QDateTime::fromMSecsSince</text>
<text text-anchor="middle" x="241.5" y="-130.5" font-family="Helvetica,sans-Serif" font-size="10.00">Epoch</text>
</a>
</g>
</g>
<!-- Node1&#45;&gt;Node8 -->
<g id="edge7" class="edge">
<title>Node1&#45;&gt;Node8</title>
<path fill="none" stroke="#63b8ff" d="M126.23,-152.1C134.5,-151.11 143.11,-150.09 151.73,-149.06"/>
<polygon fill="#63b8ff" stroke="#63b8ff" points="152.31,-152.52 161.83,-147.86 151.48,-145.57 152.31,-152.52"/>
</g>
<!-- Node9 -->
<g id="node9" class="node">
<title>Node9</title>
<g id="a_node9"><a target="_parent" xlink:href="https://doc.qt.io/qt-5/qstring.html#number-2" xlink:title=" ">
<polygon fill="white" stroke="#666666" points="289.5,-105 193.5,-105 193.5,-86 289.5,-86 289.5,-105"/>
<text text-anchor="middle" x="241.5" y="-93" font-family="Helvetica,sans-Serif" font-size="10.00">QString::number</text>
</a>
</g>
</g>
<!-- Node1&#45;&gt;Node9 -->
<g id="edge8" class="edge">
<title>Node1&#45;&gt;Node9</title>
<path fill="none" stroke="#63b8ff" d="M92.98,-144.4C112.17,-134.85 138.12,-122.78 162,-114.5 169.27,-111.98 177.02,-109.67 184.72,-107.59"/>
<polygon fill="#63b8ff" stroke="#63b8ff" points="185.6,-110.98 194.41,-105.08 183.85,-104.2 185.6,-110.98"/>
</g>
<!-- Node10 -->
<g id="node10" class="node">
<title>Node10</title>
<g id="a_node10"><a xlink:href="classDataLoggerService.html#a4c696b7500e666959bbec4b0ed677d5d" target="_top" xlink:title="Returns mode as a user&#45;friendly string.">
<polygon fill="white" stroke="#666666" points="299,-67.5 184,-67.5 184,-37.5 299,-37.5 299,-67.5"/>
<text text-anchor="start" x="192" y="-55.5" font-family="Helvetica,sans-Serif" font-size="10.00">DataLoggerService::</text>
<text text-anchor="middle" x="241.5" y="-44.5" font-family="Helvetica,sans-Serif" font-size="10.00">toString</text>
</a>
</g>
</g>
<!-- Node1&#45;&gt;Node10 -->
<g id="edge9" class="edge">
<title>Node1&#45;&gt;Node10</title>
<path fill="none" stroke="#63b8ff" d="M77.86,-144.49C95.67,-126.03 128.34,-94.88 162,-76.5 165.91,-74.37 170.03,-72.4 174.25,-70.59"/>
<polygon fill="#63b8ff" stroke="#63b8ff" points="175.62,-73.81 183.62,-66.86 173.04,-67.3 175.62,-73.81"/>
</g>
<!-- Node11 -->
<g id="node11" class="node">
<title>Node11</title>
<g id="a_node11"><a target="_parent" xlink:href="https://doc.qt.io/qt-5/qdatetime.html#toString-1" xlink:title=" ">
<polygon fill="white" stroke="#666666" points="299.5,-19 183.5,-19 183.5,0 299.5,0 299.5,-19"/>
<text text-anchor="middle" x="241.5" y="-7" font-family="Helvetica,sans-Serif" font-size="10.00">QDateTime::toString</text>
</a>
</g>
</g>
<!-- Node1&#45;&gt;Node11 -->
<g id="edge11" class="edge">
<title>Node1&#45;&gt;Node11</title>
<path fill="none" stroke="#63b8ff" d="M70.99,-144.23C84.45,-116.59 116.71,-58.37 162,-28.5 165.72,-26.05 169.73,-23.91 173.9,-22.05"/>
<polygon fill="#63b8ff" stroke="#63b8ff" points="175.19,-25.3 183.22,-18.39 172.63,-18.78 175.19,-25.3"/>
</g>
<!-- Node4 -->
<g id="node4" class="node">
<title>Node4</title>
<g id="a_node4"><a xlink:href="classPokitDevice.html#a2e2fb6b30e6f5f0d7bc6cd8f806d6423" target="_top" xlink:title="Returns a non&#45;const pointer to the controller used to access the Pokit device.">
<polygon fill="white" stroke="#666666" points="488,-310 360,-310 360,-291 488,-291 488,-310"/>
<text text-anchor="middle" x="424" y="-298" font-family="Helvetica,sans-Serif" font-size="10.00">PokitDevice::controller</text>
</a>
</g>
</g>
<!-- Node3&#45;&gt;Node4 -->
<g id="edge3" class="edge">
<title>Node3&#45;&gt;Node4</title>
<path fill="none" stroke="#63b8ff" d="M282.56,-267.04C309.32,-273.42 344.7,-281.85 373.26,-288.65"/>
<polygon fill="#63b8ff" stroke="#63b8ff" points="372.51,-292.07 383.05,-290.98 374.14,-285.26 372.51,-292.07"/>
</g>
<!-- Node5 -->
<g id="node5" class="node">
<title>Node5</title>
<g id="a_node5"><a target="_parent" xlink:href="https://doc.qt.io/qt-5/qlowenergycontroller.html#disconnectFromDevice" xlink:title=" ">
<polygon fill="white" stroke="#666666" points="491,-272.5 357,-272.5 357,-242.5 491,-242.5 491,-272.5"/>
<text text-anchor="start" x="365" y="-260.5" font-family="Helvetica,sans-Serif" font-size="10.00">QLowEnergyController</text>
<text text-anchor="middle" x="424" y="-249.5" font-family="Helvetica,sans-Serif" font-size="10.00">::disconnectFromDevice</text>
</a>
</g>
</g>
<!-- Node3&#45;&gt;Node5 -->
<g id="edge4" class="edge">
<title>Node3&#45;&gt;Node5</title>
<path fill="none" stroke="#63b8ff" d="M321.14,-257.5C329.59,-257.5 338.17,-257.5 346.58,-257.5"/>
<polygon fill="#63b8ff" stroke="#63b8ff" points="346.75,-261 356.75,-257.5 346.75,-254 346.75,-261"/>
</g>
<!-- Node3&#45;&gt;Node6 -->
<g id="edge5" class="edge">
<title>Node3&#45;&gt;Node6</title>
<path fill="none" stroke="#63b8ff" d="M282.56,-247.96C311.27,-241.12 349.91,-231.91 379.39,-224.89"/>
<polygon fill="#63b8ff" stroke="#63b8ff" points="380.49,-228.22 389.41,-222.5 378.87,-221.41 380.49,-228.22"/>
</g>
<!-- Node10&#45;&gt;Node6 -->
<g id="edge10" class="edge">
<title>Node10&#45;&gt;Node6</title>
<path fill="none" stroke="#63b8ff" d="M299.03,-64.96C306.8,-68.02 314.37,-71.81 321,-76.5 365.82,-108.2 398.97,-165.76 414.02,-195.54"/>
<polygon fill="#63b8ff" stroke="#63b8ff" points="411.03,-197.39 418.58,-204.82 417.31,-194.3 411.03,-197.39"/>
</g>
</g>
</svg>
