<?xml version="1.0" encoding="UTF-8" standalone="no"?>
<!DOCTYPE svg PUBLIC "-//W3C//DTD SVG 1.1//EN"
 "http://www.w3.org/Graphics/SVG/1.1/DTD/svg11.dtd">
<!-- Generated by graphviz version 2.43.0 (0)
 -->
<!-- Title: MeterCommand::processOptions Pages: 1 -->
<svg width="819pt" height="904pt"
 viewBox="0.00 0.00 819.00 904.00" xmlns="http://www.w3.org/2000/svg" xmlns:xlink="http://www.w3.org/1999/xlink">
<g id="graph0" class="graph" transform="scale(1 1) rotate(0) translate(4 900)">
<title>MeterCommand::processOptions</title>
<!-- Node1 -->
<g id="node1" class="node">
<title>Node1</title>
<g id="a_node1"><a xlink:title="Processes the relevant options from the command line parser.">
<polygon fill="#999999" stroke="#666666" points="176,-376 0,-376 0,-357 176,-357 176,-376"/>
<text text-anchor="middle" x="88" y="-364" font-family="Helvetica,sans-Serif" font-size="10.00">MeterCommand::processOptions</text>
</a>
</g>
</g>
<!-- Node2 -->
<g id="node2" class="node">
<title>Node2</title>
<g id="a_node2"><a target="_parent" xlink:href="https://doc.qt.io/qt-5/qlist.html#append" xlink:title=" ">
<polygon fill="white" stroke="#666666" points="558,-896 475,-896 475,-877 558,-877 558,-896"/>
<text text-anchor="middle" x="516.5" y="-884" font-family="Helvetica,sans-Serif" font-size="10.00">QList::append</text>
</a>
</g>
</g>
<!-- Node1&#45;&gt;Node2 -->
<g id="edge1" class="edge">
<title>Node1&#45;&gt;Node2</title>
<path fill="none" stroke="#63b8ff" d="M89.17,-376.1C90.53,-424.71 102.72,-646.47 212,-773.5 276.78,-848.81 396.71,-873.99 464.8,-882.37"/>
<polygon fill="#63b8ff" stroke="#63b8ff" points="464.53,-885.86 474.87,-883.53 465.33,-878.9 464.53,-885.86"/>
</g>
<!-- Node3 -->
<g id="node3" class="node">
<title>Node3</title>
<g id="a_node3"><a target="_parent" xlink:href="https://doc.qt.io/qt-5/qstring.html#arg-11" xlink:title=" ">
<polygon fill="white" stroke="#666666" points="553.5,-859 479.5,-859 479.5,-840 553.5,-840 553.5,-859"/>
<text text-anchor="middle" x="516.5" y="-847" font-family="Helvetica,sans-Serif" font-size="10.00">QString::arg</text>
</a>
</g>
</g>
<!-- Node1&#45;&gt;Node3 -->
<g id="edge2" class="edge">
<title>Node1&#45;&gt;Node3</title>
<path fill="none" stroke="#63b8ff" d="M90.22,-376.17C96.09,-419.1 124.74,-595.04 212,-703.5 278,-785.54 313.97,-792.06 412,-830.5 430,-837.56 450.8,-842.03 469.02,-844.84"/>
<polygon fill="#63b8ff" stroke="#63b8ff" points="468.72,-848.33 479.12,-846.28 469.71,-841.4 468.72,-848.33"/>
</g>
<!-- Node4 -->
<g id="node4" class="node">
<title>Node4</title>
<g id="a_node4"><a target="_parent" xlink:href="https://doc.qt.io/qt-5/qstring.html#compare-4" xlink:title=" ">
<polygon fill="white" stroke="#666666" points="344.5,-93 243.5,-93 243.5,-74 344.5,-74 344.5,-93"/>
<text text-anchor="middle" x="294" y="-81" font-family="Helvetica,sans-Serif" font-size="10.00">QString::compare</text>
</a>
</g>
</g>
<!-- Node1&#45;&gt;Node4 -->
<g id="edge3" class="edge">
<title>Node1&#45;&gt;Node4</title>
<path fill="none" stroke="#63b8ff" d="M90.68,-356.8C97.76,-318.8 128.79,-178.7 212,-107.5 218.41,-102.02 226.02,-97.79 233.98,-94.52"/>
<polygon fill="#63b8ff" stroke="#63b8ff" points="235.21,-97.8 243.43,-91.12 232.83,-91.22 235.21,-97.8"/>
</g>
<!-- Node5 -->
<g id="node5" class="node">
<title>Node5</title>
<g id="a_node5"><a target="_parent" xlink:href="https://doc.qt.io/qt-5/qstring.html#isEmpty" xlink:title=" ">
<polygon fill="white" stroke="#666666" points="783,-394 685,-394 685,-375 783,-375 783,-394"/>
<text text-anchor="middle" x="734" y="-382" font-family="Helvetica,sans-Serif" font-size="10.00">QString::isEmpty</text>
</a>
</g>
</g>
<!-- Node1&#45;&gt;Node5 -->
<g id="edge4" class="edge">
<title>Node1&#45;&gt;Node5</title>
<path fill="none" stroke="#63b8ff" d="M166.02,-376.03C181.24,-377.69 197.11,-379.28 212,-380.5 393.23,-395.33 439.23,-395.37 621,-390.5 638.33,-390.04 657.15,-389.17 674.33,-388.24"/>
<polygon fill="#63b8ff" stroke="#63b8ff" points="675,-391.7 684.79,-387.65 674.6,-384.72 675,-391.7"/>
</g>
<!-- Node6 -->
<g id="node6" class="node">
<title>Node6</title>
<g id="a_node6"><a target="_parent" xlink:href="https://doc.qt.io/qt-5/qlist.html#isEmpty" xlink:title=" ">
<polygon fill="white" stroke="#666666" points="337.5,-56 250.5,-56 250.5,-37 337.5,-37 337.5,-56"/>
<text text-anchor="middle" x="294" y="-44" font-family="Helvetica,sans-Serif" font-size="10.00">QList::isEmpty</text>
</a>
</g>
</g>
<!-- Node1&#45;&gt;Node6 -->
<g id="edge5" class="edge">
<title>Node1&#45;&gt;Node6</title>
<path fill="none" stroke="#63b8ff" d="M89.8,-356.8C93.8,-314.66 115.55,-145.96 212,-64.5 220.09,-57.67 230.21,-53.27 240.53,-50.48"/>
<polygon fill="#63b8ff" stroke="#63b8ff" points="241.43,-53.87 250.43,-48.27 239.91,-47.04 241.43,-53.87"/>
</g>
<!-- Node7 -->
<g id="node7" class="node">
<title>Node7</title>
<g id="a_node7"><a target="_parent" xlink:href="https://doc.qt.io/qt-5/qcommandlineparser.html#isSet" xlink:title=" ">
<polygon fill="white" stroke="#666666" points="579,-821.5 454,-821.5 454,-791.5 579,-791.5 579,-821.5"/>
<text text-anchor="start" x="462" y="-809.5" font-family="Helvetica,sans-Serif" font-size="10.00">QCommandLineParser</text>
<text text-anchor="middle" x="516.5" y="-798.5" font-family="Helvetica,sans-Serif" font-size="10.00">::isSet</text>
</a>
</g>
</g>
<!-- Node1&#45;&gt;Node7 -->
<g id="edge6" class="edge">
<title>Node1&#45;&gt;Node7</title>
<path fill="none" stroke="#63b8ff" d="M92.15,-376.45C103.74,-411.97 146.75,-534.85 212,-617.5 283.41,-707.94 308.68,-731.46 412,-782.5 422.04,-787.46 433.14,-791.42 444.23,-794.57"/>
<polygon fill="#63b8ff" stroke="#63b8ff" points="443.39,-797.97 453.95,-797.14 445.18,-791.2 443.39,-797.97"/>
</g>
<!-- Node8 -->
<g id="node8" class="node">
<title>Node8</title>
<g id="a_node8"><a xlink:href="classMeterCommand.html#aa0da7d9e482b6752f233d068561fe9e8" target="_top" xlink:title="Returns the lowest mode range that can measure at least up to desired max, or AutoRange if no such ra...">
<polygon fill="white" stroke="#666666" points="376,-290 212,-290 212,-271 376,-271 376,-290"/>
<text text-anchor="middle" x="294" y="-278" font-family="Helvetica,sans-Serif" font-size="10.00">MeterCommand::lowestRange</text>
</a>
</g>
</g>
<!-- Node1&#45;&gt;Node8 -->
<g id="edge7" class="edge">
<title>Node1&#45;&gt;Node8</title>
<path fill="none" stroke="#63b8ff" d="M110.23,-356.89C134.66,-345.9 176.05,-327.49 212,-312.5 227.19,-306.17 244.12,-299.43 258.55,-293.78"/>
<polygon fill="#63b8ff" stroke="#63b8ff" points="260.04,-296.96 268.09,-290.06 257.5,-290.43 260.04,-296.96"/>
</g>
<!-- Node12 -->
<g id="node12" class="node">
<title>Node12</title>
<g id="a_node12"><a target="_parent" xlink:href="https://doc.qt.io/qt-5/qobject.html#tr" xlink:title=" ">
<polygon fill="white" stroke="#666666" points="551,-333 482,-333 482,-314 551,-314 551,-333"/>
<text text-anchor="middle" x="516.5" y="-321" font-family="Helvetica,sans-Serif" font-size="10.00">QObject::tr</text>
</a>
</g>
</g>
<!-- Node1&#45;&gt;Node12 -->
<g id="edge44" class="edge">
<title>Node1&#45;&gt;Node12</title>
<path fill="none" stroke="#63b8ff" d="M176.08,-357.72C265.88,-348.67 402.29,-334.91 471.66,-327.92"/>
<polygon fill="#63b8ff" stroke="#63b8ff" points="472.2,-331.38 481.8,-326.9 471.5,-324.42 472.2,-331.38"/>
</g>
<!-- Node13 -->
<g id="node13" class="node">
<title>Node13</title>
<g id="a_node13"><a xlink:href="classAbstractCommand.html#ab18bb57fe68534739f63c994330a29c2" target="_top" xlink:title="Returns value as a number of millis, such as milliseconds, or millivolts.">
<polygon fill="white" stroke="#666666" points="597,-381.5 436,-381.5 436,-351.5 597,-351.5 597,-381.5"/>
<text text-anchor="start" x="444" y="-369.5" font-family="Helvetica,sans-Serif" font-size="10.00">AbstractCommand::parseMilli</text>
<text text-anchor="middle" x="516.5" y="-358.5" font-family="Helvetica,sans-Serif" font-size="10.00">Value</text>
</a>
</g>
</g>
<!-- Node1&#45;&gt;Node13 -->
<g id="edge12" class="edge">
<title>Node1&#45;&gt;Node13</title>
<path fill="none" stroke="#63b8ff" d="M176.08,-366.5C248.8,-366.5 352.07,-366.5 425.57,-366.5"/>
<polygon fill="#63b8ff" stroke="#63b8ff" points="425.74,-370 435.74,-366.5 425.74,-363 425.74,-370"/>
</g>
<!-- Node19 -->
<g id="node19" class="node">
<title>Node19</title>
<g id="a_node19"><a target="_parent" xlink:href="https://doc.qt.io/qt-5/qstring.html#trimmed" xlink:title=" ">
<polygon fill="white" stroke="#666666" points="784.5,-146 683.5,-146 683.5,-127 784.5,-127 784.5,-146"/>
<text text-anchor="middle" x="734" y="-134" font-family="Helvetica,sans-Serif" font-size="10.00">QString::trimmed</text>
</a>
</g>
</g>
<!-- Node1&#45;&gt;Node19 -->
<g id="edge45" class="edge">
<title>Node1&#45;&gt;Node19</title>
<path fill="none" stroke="#63b8ff" d="M92.33,-356.65C103.63,-324.72 143.68,-223.16 212,-171.5 355.51,-62.97 589.66,-101.69 687.64,-124.57"/>
<polygon fill="#63b8ff" stroke="#63b8ff" points="686.98,-128.01 697.52,-126.93 688.61,-121.2 686.98,-128.01"/>
</g>
<!-- Node20 -->
<g id="node20" class="node">
<title>Node20</title>
<g id="a_node20"><a xlink:href="classAbstractCommand.html#a77b59d2b62aae9580aea93ca65c3af9a" target="_top" xlink:title="Returns value as a number, with optional SI unit prefix, and optional unit suffix.">
<polygon fill="white" stroke="#666666" points="602,-151.5 431,-151.5 431,-121.5 602,-121.5 602,-151.5"/>
<text text-anchor="start" x="439" y="-139.5" font-family="Helvetica,sans-Serif" font-size="10.00">AbstractCommand::parseWhole</text>
<text text-anchor="middle" x="516.5" y="-128.5" font-family="Helvetica,sans-Serif" font-size="10.00">Value</text>
</a>
</g>
</g>
<!-- Node1&#45;&gt;Node20 -->
<g id="edge20" class="edge">
<title>Node1&#45;&gt;Node20</title>
<path fill="none" stroke="#63b8ff" d="M98.55,-356.92C118.42,-337.34 166.19,-291.99 212,-261.5 294.9,-206.34 318.38,-194.44 412,-160.5 418.18,-158.26 424.63,-156.18 431.18,-154.26"/>
<polygon fill="#63b8ff" stroke="#63b8ff" points="432.13,-157.63 440.81,-151.56 430.24,-150.89 432.13,-157.63"/>
</g>
<!-- Node21 -->
<g id="node21" class="node">
<title>Node21</title>
<g id="a_node21"><a xlink:href="classAbstractCommand.html#ad827a18a24776efeb955739459d48f7d" target="_top" xlink:title="Processes the relevant options from the command line parser.">
<polygon fill="white" stroke="#666666" points="369.5,-608.5 218.5,-608.5 218.5,-578.5 369.5,-578.5 369.5,-608.5"/>
<text text-anchor="start" x="226.5" y="-596.5" font-family="Helvetica,sans-Serif" font-size="10.00">AbstractCommand::process</text>
<text text-anchor="middle" x="294" y="-585.5" font-family="Helvetica,sans-Serif" font-size="10.00">Options</text>
</a>
</g>
</g>
<!-- Node1&#45;&gt;Node21 -->
<g id="edge27" class="edge">
<title>Node1&#45;&gt;Node21</title>
<path fill="none" stroke="#63b8ff" d="M97.26,-376.09C116.92,-398.89 168.16,-458.03 212,-506.5 231.93,-528.53 255.06,-553.3 271.48,-570.75"/>
<polygon fill="#63b8ff" stroke="#63b8ff" points="269.12,-573.35 278.53,-578.22 274.21,-568.54 269.12,-573.35"/>
</g>
<!-- Node28 -->
<g id="node28" class="node">
<title>Node28</title>
<g id="a_node28"><a target="_parent" xlink:href="https://doc.qt.io/qt-5/qstring.html#toLower" xlink:title=" ">
<polygon fill="white" stroke="#666666" points="565.5,-505 467.5,-505 467.5,-486 565.5,-486 565.5,-505"/>
<text text-anchor="middle" x="516.5" y="-493" font-family="Helvetica,sans-Serif" font-size="10.00">QString::toLower</text>
</a>
</g>
</g>
<!-- Node1&#45;&gt;Node28 -->
<g id="edge43" class="edge">
<title>Node1&#45;&gt;Node28</title>
<path fill="none" stroke="#63b8ff" d="M99.55,-376.23C119.7,-394.2 165.77,-432.4 212,-450.5 293.17,-482.28 394.58,-491.82 457.19,-494.56"/>
<polygon fill="#63b8ff" stroke="#63b8ff" points="457.14,-498.06 467.27,-494.96 457.42,-491.07 457.14,-498.06"/>
</g>
<!-- Node29 -->
<g id="node29" class="node">
<title>Node29</title>
<g id="a_node29"><a target="_parent" xlink:href="https://doc.qt.io/qt-5/qcommandlineparser.html#value" xlink:title=" ">
<polygon fill="white" stroke="#666666" points="579,-467.5 454,-467.5 454,-437.5 579,-437.5 579,-467.5"/>
<text text-anchor="start" x="462" y="-455.5" font-family="Helvetica,sans-Serif" font-size="10.00">QCommandLineParser</text>
<text text-anchor="middle" x="516.5" y="-444.5" font-family="Helvetica,sans-Serif" font-size="10.00">::value</text>
</a>
</g>
</g>
<!-- Node1&#45;&gt;Node29 -->
<g id="edge46" class="edge">
<title>Node1&#45;&gt;Node29</title>
<path fill="none" stroke="#63b8ff" d="M105.04,-376.1C127.89,-389.27 171.56,-412.54 212,-423.5 289.43,-444.48 381.56,-450.78 443.84,-452.43"/>
<polygon fill="#63b8ff" stroke="#63b8ff" points="443.88,-455.94 453.96,-452.67 444.04,-448.94 443.88,-455.94"/>
</g>
<!-- Node30 -->
<g id="node30" class="node">
<title>Node30</title>
<g id="a_node30"><a target="_parent" xlink:href="https://doc.qt.io/qt-5/qstring.html#startsWith" xlink:title=" ">
<polygon fill="white" stroke="#666666" points="348.5,-19 239.5,-19 239.5,0 348.5,0 348.5,-19"/>
<text text-anchor="middle" x="294" y="-7" font-family="Helvetica,sans-Serif" font-size="10.00">QString::startsWith</text>
</a>
</g>
</g>
<!-- Node1&#45;&gt;Node30 -->
<g id="edge42" class="edge">
<title>Node1&#45;&gt;Node30</title>
<path fill="none" stroke="#63b8ff" d="M89.32,-356.88C91.35,-311.88 106.16,-120.46 212,-27.5 217.16,-22.97 223.21,-19.5 229.64,-16.85"/>
<polygon fill="#63b8ff" stroke="#63b8ff" points="230.96,-20.1 239.28,-13.54 228.68,-13.48 230.96,-20.1"/>
</g>
<!-- Node9 -->
<g id="node9" class="node">
<title>Node9</title>
<g id="a_node9"><a xlink:href="classMeterCommand.html#adcc916b68fa32670962f99f640a0254e" target="_top" xlink:title="Returns the lowest current range that can measure at least up to desired max, or AutoRange if no such...">
<polygon fill="white" stroke="#666666" points="601.5,-247.5 431.5,-247.5 431.5,-217.5 601.5,-217.5 601.5,-247.5"/>
<text text-anchor="start" x="439.5" y="-235.5" font-family="Helvetica,sans-Serif" font-size="10.00">MeterCommand::lowestCurrent</text>
<text text-anchor="middle" x="516.5" y="-224.5" font-family="Helvetica,sans-Serif" font-size="10.00">Range</text>
</a>
</g>
</g>
<!-- Node8&#45;&gt;Node9 -->
<g id="edge8" class="edge">
<title>Node8&#45;&gt;Node9</title>
<path fill="none" stroke="#63b8ff" d="M338.83,-270.96C366.71,-264.89 403.64,-256.85 436.52,-249.69"/>
<polygon fill="#63b8ff" stroke="#63b8ff" points="437.55,-253.05 446.58,-247.5 436.06,-246.21 437.55,-253.05"/>
</g>
<!-- Node10 -->
<g id="node10" class="node">
<title>Node10</title>
<g id="a_node10"><a xlink:href="classMeterCommand.html#a4f5535a0b9d26e9b45903374561d4c97" target="_top" xlink:title="Returns the lowest resistance range that can measure at least up to desired max, or AutoRange if no s...">
<polygon fill="white" stroke="#666666" points="610,-199.5 423,-199.5 423,-169.5 610,-169.5 610,-199.5"/>
<text text-anchor="start" x="431" y="-187.5" font-family="Helvetica,sans-Serif" font-size="10.00">MeterCommand::lowestResistance</text>
<text text-anchor="middle" x="516.5" y="-176.5" font-family="Helvetica,sans-Serif" font-size="10.00">Range</text>
</a>
</g>
</g>
<!-- Node8&#45;&gt;Node10 -->
<g id="edge9" class="edge">
<title>Node8&#45;&gt;Node10</title>
<path fill="none" stroke="#63b8ff" d="M309.93,-270.94C338.99,-252.38 401.24,-212.92 412,-208.5 417.3,-206.32 422.84,-204.32 428.48,-202.48"/>
<polygon fill="#63b8ff" stroke="#63b8ff" points="429.52,-205.83 438.05,-199.54 427.46,-199.13 429.52,-205.83"/>
</g>
<!-- Node11 -->
<g id="node11" class="node">
<title>Node11</title>
<g id="a_node11"><a xlink:href="classMeterCommand.html#a84a9af540f43dfd03c4cd2a68dc87476" target="_top" xlink:title="Returns the lowest voltage range that can measure at least up to desired max, or AutoRange if no such...">
<polygon fill="white" stroke="#666666" points="601.5,-295.5 431.5,-295.5 431.5,-265.5 601.5,-265.5 601.5,-295.5"/>
<text text-anchor="start" x="439.5" y="-283.5" font-family="Helvetica,sans-Serif" font-size="10.00">MeterCommand::lowestVoltage</text>
<text text-anchor="middle" x="516.5" y="-272.5" font-family="Helvetica,sans-Serif" font-size="10.00">Range</text>
</a>
</g>
</g>
<!-- Node8&#45;&gt;Node11 -->
<g id="edge10" class="edge">
<title>Node8&#45;&gt;Node11</title>
<path fill="none" stroke="#63b8ff" d="M376.17,-280.5C390.73,-280.5 406.03,-280.5 420.94,-280.5"/>
<polygon fill="#63b8ff" stroke="#63b8ff" points="421.18,-284 431.18,-280.5 421.18,-277 421.18,-284"/>
</g>
<!-- Node8&#45;&gt;Node12 -->
<g id="edge11" class="edge">
<title>Node8&#45;&gt;Node12</title>
<path fill="none" stroke="#63b8ff" d="M340.24,-290.01C361.93,-294.51 388.29,-299.89 412,-304.5 431.67,-308.32 453.49,-312.36 472,-315.72"/>
<polygon fill="#63b8ff" stroke="#63b8ff" points="471.44,-319.18 481.91,-317.52 472.69,-312.29 471.44,-319.18"/>
</g>
<!-- Node13&#45;&gt;Node5 -->
<g id="edge15" class="edge">
<title>Node13&#45;&gt;Node5</title>
<path fill="none" stroke="#63b8ff" d="M597.13,-373.15C622.94,-375.31 651.06,-377.66 674.99,-379.65"/>
<polygon fill="#63b8ff" stroke="#63b8ff" points="674.71,-383.14 684.97,-380.49 675.3,-376.17 674.71,-383.14"/>
</g>
<!-- Node14 -->
<g id="node14" class="node">
<title>Node14</title>
<g id="a_node14"><a target="_parent" xlink:href="https://doc.qt.io/qt-5/qstring.html#chop" xlink:title=" ">
<polygon fill="white" stroke="#666666" points="775,-202 693,-202 693,-183 775,-183 775,-202"/>
<text text-anchor="middle" x="734" y="-190" font-family="Helvetica,sans-Serif" font-size="10.00">QString::chop</text>
</a>
</g>
</g>
<!-- Node13&#45;&gt;Node14 -->
<g id="edge13" class="edge">
<title>Node13&#45;&gt;Node14</title>
<path fill="none" stroke="#63b8ff" d="M597.24,-356.65C606.01,-352.96 614.2,-348.03 621,-341.5 663.29,-300.84 615.63,-256.1 657,-214.5 664.12,-207.34 673.42,-202.48 683.05,-199.19"/>
<polygon fill="#63b8ff" stroke="#63b8ff" points="684.1,-202.53 692.73,-196.39 682.15,-195.8 684.1,-202.53"/>
</g>
<!-- Node15 -->
<g id="node15" class="node">
<title>Node15</title>
<g id="a_node15"><a target="_parent" xlink:href="https://doc.qt.io/qt-5/qstring.html#endsWith" xlink:title=" ">
<polygon fill="white" stroke="#666666" points="786,-357 682,-357 682,-338 786,-338 786,-357"/>
<text text-anchor="middle" x="734" y="-345" font-family="Helvetica,sans-Serif" font-size="10.00">QString::endsWith</text>
</a>
</g>
</g>
<!-- Node13&#45;&gt;Node15 -->
<g id="edge14" class="edge">
<title>Node13&#45;&gt;Node15</title>
<path fill="none" stroke="#63b8ff" d="M597.13,-359.48C621.78,-357.31 648.54,-354.95 671.74,-352.9"/>
<polygon fill="#63b8ff" stroke="#63b8ff" points="672.13,-356.38 681.79,-352.02 671.52,-349.41 672.13,-356.38"/>
</g>
<!-- Node16 -->
<g id="node16" class="node">
<title>Node16</title>
<g id="a_node16"><a target="_parent" xlink:href="https://doc.qt.io/qt-5/qstring.html#length" xlink:title=" ">
<polygon fill="white" stroke="#666666" points="778.5,-320 689.5,-320 689.5,-301 778.5,-301 778.5,-320"/>
<text text-anchor="middle" x="734" y="-308" font-family="Helvetica,sans-Serif" font-size="10.00">QString::length</text>
</a>
</g>
</g>
<!-- Node13&#45;&gt;Node16 -->
<g id="edge16" class="edge">
<title>Node13&#45;&gt;Node16</title>
<path fill="none" stroke="#63b8ff" d="M584.32,-351.5C596.59,-348.42 609.23,-345.04 621,-341.5 637.29,-336.61 640.7,-333.36 657,-328.5 664.23,-326.35 671.9,-324.28 679.49,-322.36"/>
<polygon fill="#63b8ff" stroke="#63b8ff" points="680.49,-325.72 689.37,-319.93 678.82,-318.92 680.49,-325.72"/>
</g>
<!-- Node17 -->
<g id="node17" class="node">
<title>Node17</title>
<g id="a_node17"><a target="_parent" xlink:href="https://doc.qt.io/qt-5/qlocale.html#toDouble" xlink:title=" ">
<polygon fill="white" stroke="#666666" points="787,-282 681,-282 681,-263 787,-263 787,-282"/>
<text text-anchor="middle" x="734" y="-270" font-family="Helvetica,sans-Serif" font-size="10.00">QLocale::toDouble</text>
</a>
</g>
</g>
<!-- Node13&#45;&gt;Node17 -->
<g id="edge17" class="edge">
<title>Node13&#45;&gt;Node17</title>
<path fill="none" stroke="#63b8ff" d="M597.13,-353.51C605.57,-350.34 613.71,-346.4 621,-341.5 643.72,-326.22 634.34,-306.87 657,-291.5 661.32,-288.57 666.06,-286.09 670.98,-283.99"/>
<polygon fill="#63b8ff" stroke="#63b8ff" points="672.48,-287.17 680.63,-280.41 670.04,-280.61 672.48,-287.17"/>
</g>
<!-- Node18 -->
<g id="node18" class="node">
<title>Node18</title>
<g id="a_node18"><a target="_parent" xlink:href="https://doc.qt.io/qt-5/qlocale.html#toUInt" xlink:title=" ">
<polygon fill="white" stroke="#666666" points="780,-243 688,-243 688,-224 780,-224 780,-243"/>
<text text-anchor="middle" x="734" y="-231" font-family="Helvetica,sans-Serif" font-size="10.00">QLocale::toUInt</text>
</a>
</g>
</g>
<!-- Node13&#45;&gt;Node18 -->
<g id="edge18" class="edge">
<title>Node13&#45;&gt;Node18</title>
<path fill="none" stroke="#63b8ff" d="M597.08,-355.69C605.77,-352.15 613.99,-347.52 621,-341.5 653.05,-313.96 625.23,-281.36 657,-253.5 663.13,-248.13 670.53,-244.17 678.28,-241.27"/>
<polygon fill="#63b8ff" stroke="#63b8ff" points="679.38,-244.59 687.85,-238.22 677.26,-237.92 679.38,-244.59"/>
</g>
<!-- Node13&#45;&gt;Node19 -->
<g id="edge19" class="edge">
<title>Node13&#45;&gt;Node19</title>
<path fill="none" stroke="#63b8ff" d="M597.14,-357.29C606.04,-353.5 614.29,-348.38 621,-341.5 674.29,-286.81 609.92,-233.62 657,-173.5 665.07,-163.2 676.74,-155.58 688.52,-150.04"/>
<polygon fill="#63b8ff" stroke="#63b8ff" points="690.1,-153.16 697.92,-146.02 687.35,-146.73 690.1,-153.16"/>
</g>
<!-- Node20&#45;&gt;Node14 -->
<g id="edge21" class="edge">
<title>Node20&#45;&gt;Node14</title>
<path fill="none" stroke="#63b8ff" d="M584.71,-151.57C596.82,-154.43 609.3,-157.47 621,-160.5 644.49,-166.58 670.57,-173.99 691.65,-180.15"/>
<polygon fill="#63b8ff" stroke="#63b8ff" points="690.67,-183.51 701.25,-182.97 692.65,-176.79 690.67,-183.51"/>
</g>
<!-- Node20&#45;&gt;Node15 -->
<g id="edge22" class="edge">
<title>Node20&#45;&gt;Node15</title>
<path fill="none" stroke="#63b8ff" d="M602.17,-147.19C609.13,-150.62 615.57,-154.98 621,-160.5 674.54,-214.95 603.93,-273.6 657,-328.5 661.4,-333.06 666.72,-336.58 672.48,-339.3"/>
<polygon fill="#63b8ff" stroke="#63b8ff" points="671.22,-342.57 681.81,-342.95 673.77,-336.05 671.22,-342.57"/>
</g>
<!-- Node20&#45;&gt;Node16 -->
<g id="edge23" class="edge">
<title>Node20&#45;&gt;Node16</title>
<path fill="none" stroke="#63b8ff" d="M602.08,-147.66C609.02,-150.99 615.47,-155.2 621,-160.5 664.28,-201.99 614.34,-248.38 657,-290.5 663.28,-296.7 671.23,-301.04 679.62,-304.07"/>
<polygon fill="#63b8ff" stroke="#63b8ff" points="678.62,-307.42 689.2,-306.96 680.64,-300.72 678.62,-307.42"/>
</g>
<!-- Node20&#45;&gt;Node17 -->
<g id="edge24" class="edge">
<title>Node20&#45;&gt;Node17</title>
<path fill="none" stroke="#63b8ff" d="M602.01,-148.52C608.88,-151.69 615.34,-155.63 621,-160.5 653.96,-188.88 624.64,-222.44 657,-251.5 661.2,-255.27 666.02,-258.38 671.15,-260.93"/>
<polygon fill="#63b8ff" stroke="#63b8ff" points="670.08,-264.27 680.66,-264.94 672.81,-257.83 670.08,-264.27"/>
</g>
<!-- Node20&#45;&gt;Node18 -->
<g id="edge25" class="edge">
<title>Node20&#45;&gt;Node18</title>
<path fill="none" stroke="#63b8ff" d="M602.14,-150.62C608.78,-153.36 615.17,-156.62 621,-160.5 643.79,-175.67 634.72,-194.58 657,-210.5 663.39,-215.06 670.7,-218.74 678.2,-221.69"/>
<polygon fill="#63b8ff" stroke="#63b8ff" points="677.15,-225.03 687.75,-225.05 679.48,-218.43 677.15,-225.03"/>
</g>
<!-- Node20&#45;&gt;Node19 -->
<g id="edge26" class="edge">
<title>Node20&#45;&gt;Node19</title>
<path fill="none" stroke="#63b8ff" d="M602.05,-136.5C625.77,-136.5 651.06,-136.5 673.03,-136.5"/>
<polygon fill="#63b8ff" stroke="#63b8ff" points="673.2,-140 683.2,-136.5 673.2,-133 673.2,-140"/>
</g>
<!-- Node21&#45;&gt;Node2 -->
<g id="edge28" class="edge">
<title>Node21&#45;&gt;Node2</title>
<path fill="none" stroke="#63b8ff" d="M296.5,-608.69C302.02,-655.74 325.61,-800 412,-868.5 426.83,-880.26 446.65,-885.44 464.97,-887.45"/>
<polygon fill="#63b8ff" stroke="#63b8ff" points="464.7,-890.94 474.95,-888.26 465.27,-883.96 464.7,-890.94"/>
</g>
<!-- Node21&#45;&gt;Node3 -->
<g id="edge29" class="edge">
<title>Node21&#45;&gt;Node3</title>
<path fill="none" stroke="#63b8ff" d="M297.64,-608.69C305.92,-651.31 335.47,-772.7 412,-830.5 428.19,-842.73 449.81,-847.92 469.1,-849.88"/>
<polygon fill="#63b8ff" stroke="#63b8ff" points="468.99,-853.39 479.23,-850.65 469.52,-846.41 468.99,-853.39"/>
</g>
<!-- Node21&#45;&gt;Node7 -->
<g id="edge31" class="edge">
<title>Node21&#45;&gt;Node7</title>
<path fill="none" stroke="#63b8ff" d="M306.06,-608.67C322.21,-631.1 352.84,-674.63 376,-713.5 393.7,-743.22 384.65,-761.32 412,-782.5 421.4,-789.78 432.63,-794.91 444.17,-798.52"/>
<polygon fill="#63b8ff" stroke="#63b8ff" points="443.33,-801.92 453.9,-801.21 445.19,-795.17 443.33,-801.92"/>
</g>
<!-- Node21&#45;&gt;Node12 -->
<g id="edge40" class="edge">
<title>Node21&#45;&gt;Node12</title>
<path fill="none" stroke="#63b8ff" d="M297.19,-578.4C304.43,-534.21 331.93,-404.4 412,-342.5 428.74,-329.56 451.52,-324.44 471.44,-322.71"/>
<polygon fill="#63b8ff" stroke="#63b8ff" points="471.78,-326.2 481.55,-322.09 471.36,-319.21 471.78,-326.2"/>
</g>
<!-- Node21&#45;&gt;Node13 -->
<g id="edge34" class="edge">
<title>Node21&#45;&gt;Node13</title>
<path fill="none" stroke="#63b8ff" d="M302.94,-578.26C319.74,-547.14 361.49,-475.26 412,-428.5 430.26,-411.59 453.86,-397.03 473.92,-386.27"/>
<polygon fill="#63b8ff" stroke="#63b8ff" points="475.61,-389.33 482.85,-381.6 472.37,-383.13 475.61,-389.33"/>
</g>
<!-- Node22 -->
<g id="node22" class="node">
<title>Node22</title>
<g id="a_node22"><a target="_parent" xlink:href="https://doc.qt.io/qt-5/qstringlist.html#contains" xlink:title=" ">
<polygon fill="white" stroke="#666666" points="575,-725 458,-725 458,-706 575,-706 575,-725"/>
<text text-anchor="middle" x="516.5" y="-713" font-family="Helvetica,sans-Serif" font-size="10.00">QStringList::contains</text>
</a>
</g>
</g>
<!-- Node21&#45;&gt;Node22 -->
<g id="edge30" class="edge">
<title>Node21&#45;&gt;Node22</title>
<path fill="none" stroke="#63b8ff" d="M307.25,-608.58C326.8,-631.54 367.44,-674.88 412,-696.5 423.15,-701.91 435.67,-705.79 448.03,-708.57"/>
<polygon fill="#63b8ff" stroke="#63b8ff" points="447.4,-712.01 457.89,-710.56 448.79,-705.15 447.4,-712.01"/>
</g>
<!-- Node23 -->
<g id="node23" class="node">
<title>Node23</title>
<g id="a_node23"><a target="_parent" xlink:href="https://doc.qt.io/qt-5/qbluetoothdevicediscoveryagent.html#lowEnergyDiscoveryTimeout" xlink:title=" ">
<polygon fill="white" stroke="#666666" points="612,-687.5 421,-687.5 421,-657.5 612,-657.5 612,-687.5"/>
<text text-anchor="start" x="429" y="-675.5" font-family="Helvetica,sans-Serif" font-size="10.00">QBluetoothDeviceDiscovery</text>
<text text-anchor="middle" x="516.5" y="-664.5" font-family="Helvetica,sans-Serif" font-size="10.00">Agent::lowEnergyDiscoveryTimeout</text>
</a>
</g>
</g>
<!-- Node21&#45;&gt;Node23 -->
<g id="edge32" class="edge">
<title>Node21&#45;&gt;Node23</title>
<path fill="none" stroke="#63b8ff" d="M322.67,-608.55C345.95,-620.71 380.4,-637.55 412,-648.5 418.44,-650.73 425.18,-652.82 431.99,-654.76"/>
<polygon fill="#63b8ff" stroke="#63b8ff" points="431.44,-658.24 442.01,-657.49 433.28,-651.48 431.44,-658.24"/>
</g>
<!-- Node24 -->
<g id="node24" class="node">
<title>Node24</title>
<g id="a_node24"><a target="_parent" xlink:href="https://doc.qt.io/qt-5/qcommandlineparser.html#optionNames" xlink:title=" ">
<polygon fill="white" stroke="#666666" points="579,-639.5 454,-639.5 454,-609.5 579,-609.5 579,-639.5"/>
<text text-anchor="start" x="462" y="-627.5" font-family="Helvetica,sans-Serif" font-size="10.00">QCommandLineParser</text>
<text text-anchor="middle" x="516.5" y="-616.5" font-family="Helvetica,sans-Serif" font-size="10.00">::optionNames</text>
</a>
</g>
</g>
<!-- Node21&#45;&gt;Node24 -->
<g id="edge33" class="edge">
<title>Node21&#45;&gt;Node24</title>
<path fill="none" stroke="#63b8ff" d="M369.65,-604C393.59,-607.36 420.04,-611.08 443.77,-614.42"/>
<polygon fill="#63b8ff" stroke="#63b8ff" points="443.37,-617.89 453.76,-615.82 444.34,-610.96 443.37,-617.89"/>
</g>
<!-- Node25 -->
<g id="node25" class="node">
<title>Node25</title>
<g id="a_node25"><a xlink:href="classAbstractCommand.html#afd6f41cfc925751415cfa45e3b2d0b4a" target="_top" xlink:title="Returns a list of CLI option names required by this command.">
<polygon fill="white" stroke="#666666" points="811,-574.5 657,-574.5 657,-544.5 811,-544.5 811,-574.5"/>
<text text-anchor="start" x="665" y="-562.5" font-family="Helvetica,sans-Serif" font-size="10.00">AbstractCommand::required</text>
<text text-anchor="middle" x="734" y="-551.5" font-family="Helvetica,sans-Serif" font-size="10.00">Options</text>
</a>
</g>
</g>
<!-- Node21&#45;&gt;Node25 -->
<g id="edge35" class="edge">
<title>Node21&#45;&gt;Node25</title>
<path fill="none" stroke="#63b8ff" d="M369.8,-587.69C446.53,-581.74 565.79,-572.48 646.53,-566.21"/>
<polygon fill="#63b8ff" stroke="#63b8ff" points="646.97,-569.69 656.67,-565.42 646.43,-562.71 646.97,-569.69"/>
</g>
<!-- Node26 -->
<g id="node26" class="node">
<title>Node26</title>
<g id="a_node26"><a target="_parent" xlink:href="https://doc.qt.io/qt-5/qbluetoothdevicediscoveryagent.html#setLowEnergyDiscoveryTimeout" xlink:title=" ">
<polygon fill="white" stroke="#666666" points="621,-773.5 412,-773.5 412,-743.5 621,-743.5 621,-773.5"/>
<text text-anchor="start" x="420" y="-761.5" font-family="Helvetica,sans-Serif" font-size="10.00">QBluetoothDeviceDiscovery</text>
<text text-anchor="middle" x="516.5" y="-750.5" font-family="Helvetica,sans-Serif" font-size="10.00">Agent::setLowEnergyDiscoveryTimeout</text>
</a>
</g>
</g>
<!-- Node21&#45;&gt;Node26 -->
<g id="edge36" class="edge">
<title>Node21&#45;&gt;Node26</title>
<path fill="none" stroke="#63b8ff" d="M303.02,-608.6C319.37,-637.83 359.49,-702.09 412,-734.5 414.79,-736.22 417.68,-737.82 420.66,-739.3"/>
<polygon fill="#63b8ff" stroke="#63b8ff" points="419.26,-742.51 429.82,-743.41 422.13,-736.12 419.26,-742.51"/>
</g>
<!-- Node27 -->
<g id="node27" class="node">
<title>Node27</title>
<g id="a_node27"><a xlink:href="classAbstractCommand.html#a1ceca3c5b4cb24277dd4d4054f45db18" target="_top" xlink:title="Returns a list of CLI option names supported by this command.">
<polygon fill="white" stroke="#666666" points="597.5,-553.5 435.5,-553.5 435.5,-523.5 597.5,-523.5 597.5,-553.5"/>
<text text-anchor="start" x="443.5" y="-541.5" font-family="Helvetica,sans-Serif" font-size="10.00">AbstractCommand::supported</text>
<text text-anchor="middle" x="516.5" y="-530.5" font-family="Helvetica,sans-Serif" font-size="10.00">Options</text>
</a>
</g>
</g>
<!-- Node21&#45;&gt;Node27 -->
<g id="edge37" class="edge">
<title>Node21&#45;&gt;Node27</title>
<path fill="none" stroke="#63b8ff" d="M355.25,-578.47C383.08,-571.53 416.31,-563.24 445.27,-556.02"/>
<polygon fill="#63b8ff" stroke="#63b8ff" points="446.46,-559.33 455.32,-553.51 444.77,-552.54 446.46,-559.33"/>
</g>
<!-- Node21&#45;&gt;Node28 -->
<g id="edge39" class="edge">
<title>Node21&#45;&gt;Node28</title>
<path fill="none" stroke="#63b8ff" d="M312.3,-578.4C334.03,-560.27 373.2,-530.35 412,-514.5 426.15,-508.72 442.11,-504.69 457.19,-501.88"/>
<polygon fill="#63b8ff" stroke="#63b8ff" points="458.18,-505.26 467.45,-500.12 457,-498.36 458.18,-505.26"/>
</g>
<!-- Node21&#45;&gt;Node29 -->
<g id="edge41" class="edge">
<title>Node21&#45;&gt;Node29</title>
<path fill="none" stroke="#63b8ff" d="M305.68,-578.26C324.25,-552.98 365.03,-502.57 412,-476.5 421.85,-471.03 432.9,-466.81 444.01,-463.54"/>
<polygon fill="#63b8ff" stroke="#63b8ff" points="445.01,-466.9 453.76,-460.91 443.19,-460.14 445.01,-466.9"/>
</g>
<!-- Node27&#45;&gt;Node25 -->
<g id="edge38" class="edge">
<title>Node27&#45;&gt;Node25</title>
<path fill="none" stroke="#63b8ff" d="M597.74,-546.32C613.8,-547.88 630.73,-549.53 646.97,-551.12"/>
<polygon fill="#63b8ff" stroke="#63b8ff" points="646.68,-554.61 656.98,-552.09 647.36,-547.64 646.68,-554.61"/>
</g>
</g>
</svg>
