<?xml version="1.0" encoding="UTF-8" standalone="no"?>
<!DOCTYPE svg PUBLIC "-//W3C//DTD SVG 1.1//EN"
 "http://www.w3.org/Graphics/SVG/1.1/DTD/svg11.dtd">
<!-- Generated by graphviz version 2.43.0 (0)
 -->
<!-- Title: DsoCommand::settingsWritten Pages: 1 -->
<svg width="741pt" height="349pt"
 viewBox="0.00 0.00 741.00 349.00" xmlns="http://www.w3.org/2000/svg" xmlns:xlink="http://www.w3.org/1999/xlink">
<g id="graph0" class="graph" transform="scale(1 1) rotate(0) translate(4 345)">
<title>DsoCommand::settingsWritten</title>
<!-- Node1 -->
<g id="node1" class="node">
<title>Node1</title>
<g id="a_node1"><a xlink:title="Invoked when the DSO settings have been written.">
<polygon fill="#999999" stroke="#666666" points="167,-228 0,-228 0,-209 167,-209 167,-228"/>
<text text-anchor="middle" x="83.5" y="-216" font-family="Helvetica,sans-Serif" font-size="10.00">DsoCommand::settingsWritten</text>
</a>
</g>
</g>
<!-- Node2 -->
<g id="node2" class="node">
<title>Node2</title>
<g id="a_node2"><a target="_parent" xlink:href="https://doc.qt.io/qt-5/qobject.html#connect" xlink:title=" ">
<polygon fill="white" stroke="#666666" points="335.5,-341 235.5,-341 235.5,-322 335.5,-322 335.5,-341"/>
<text text-anchor="middle" x="285.5" y="-329" font-family="Helvetica,sans-Serif" font-size="10.00">QObject::connect</text>
</a>
</g>
</g>
<!-- Node1&#45;&gt;Node2 -->
<g id="edge1" class="edge">
<title>Node1&#45;&gt;Node2</title>
<path fill="none" stroke="#63b8ff" d="M93.62,-228.18C112.27,-247.35 156.89,-290.24 203,-312.5 210.71,-316.22 219.2,-319.24 227.68,-321.68"/>
<polygon fill="#63b8ff" stroke="#63b8ff" points="235.46,-323.76 226.8,-325.17 231.6,-322.72 227.73,-321.69 227.73,-321.69 227.73,-321.69 231.6,-322.72 228.66,-318.21 235.46,-323.76 235.46,-323.76"/>
</g>
<!-- Node3 -->
<g id="node3" class="node">
<title>Node3</title>
<g id="a_node3"><a xlink:href="classDsoService.html#a67ca97370da5420c62591c3d8614a26d" target="_top" xlink:title="Enables client&#45;side notifications of DSO metadata changes.">
<polygon fill="white" stroke="#666666" points="364,-303.5 207,-303.5 207,-273.5 364,-273.5 364,-303.5"/>
<text text-anchor="start" x="215" y="-291.5" font-family="Helvetica,sans-Serif" font-size="10.00">DsoService::enableMetadata</text>
<text text-anchor="middle" x="285.5" y="-280.5" font-family="Helvetica,sans-Serif" font-size="10.00">Notifications</text>
</a>
</g>
</g>
<!-- Node1&#45;&gt;Node3 -->
<g id="edge2" class="edge">
<title>Node1&#45;&gt;Node3</title>
<path fill="none" stroke="#63b8ff" d="M107.45,-228.07C131.17,-237.8 169.37,-253.04 203,-264.5 209.42,-266.69 216.17,-268.86 222.91,-270.96"/>
<polygon fill="#63b8ff" stroke="#63b8ff" points="230.81,-273.39 222.11,-274.48 226.99,-272.21 223.17,-271.04 223.17,-271.04 223.17,-271.04 226.99,-272.21 224.22,-267.6 230.81,-273.39 230.81,-273.39"/>
</g>
<!-- Node4 -->
<g id="node4" class="node">
<title>Node4</title>
<g id="a_node4"><a xlink:href="classDsoService.html#ab0d0c4d4b41617bc23556b800dbafe29" target="_top" xlink:title="Enables client&#45;side notifications of DSO readings.">
<polygon fill="white" stroke="#666666" points="360.5,-255.5 210.5,-255.5 210.5,-225.5 360.5,-225.5 360.5,-255.5"/>
<text text-anchor="start" x="218.5" y="-243.5" font-family="Helvetica,sans-Serif" font-size="10.00">DsoService::enableReading</text>
<text text-anchor="middle" x="285.5" y="-232.5" font-family="Helvetica,sans-Serif" font-size="10.00">Notifications</text>
</a>
</g>
</g>
<!-- Node1&#45;&gt;Node4 -->
<g id="edge3" class="edge">
<title>Node1&#45;&gt;Node4</title>
<path fill="none" stroke="#63b8ff" d="M167,-227.58C178.63,-228.85 190.58,-230.17 202.21,-231.45"/>
<polygon fill="#63b8ff" stroke="#63b8ff" points="210.19,-232.33 201.85,-235.03 206.22,-231.89 202.24,-231.45 202.24,-231.45 202.24,-231.45 206.22,-231.89 202.64,-227.87 210.19,-232.33 210.19,-232.33"/>
</g>
<!-- Node5 -->
<g id="node5" class="node">
<title>Node5</title>
<g id="a_node5"><a xlink:href="classDsoCommand.html#ae5c33b9f7b6fc2d1ed194b024f9e6fb7" target="_top" xlink:title="Invoked when metadata has been received from the DSO.">
<polygon fill="white" stroke="#666666" points="367.5,-169 203.5,-169 203.5,-150 367.5,-150 367.5,-169"/>
<text text-anchor="middle" x="285.5" y="-157" font-family="Helvetica,sans-Serif" font-size="10.00">DsoCommand::metadataRead</text>
</a>
</g>
</g>
<!-- Node1&#45;&gt;Node5 -->
<g id="edge4" class="edge">
<title>Node1&#45;&gt;Node5</title>
<path fill="none" stroke="#63b8ff" d="M116.69,-208.99C140.52,-201.94 173.78,-192.12 203,-183.5 216.36,-179.56 230.95,-175.26 244.04,-171.41"/>
<polygon fill="#63b8ff" stroke="#63b8ff" points="251.98,-169.07 245.32,-174.78 248.14,-170.2 244.3,-171.33 244.3,-171.33 244.3,-171.33 248.14,-170.2 243.29,-167.88 251.98,-169.07 251.98,-169.07"/>
</g>
<!-- Node7 -->
<g id="node7" class="node">
<title>Node7</title>
<g id="a_node7"><a target="_parent" xlink:href="https://doc.qt.io/qt-5/qobject.html#tr" xlink:title=" ">
<polygon fill="white" stroke="#666666" points="700.5,-150 631.5,-150 631.5,-131 700.5,-131 700.5,-150"/>
<text text-anchor="middle" x="666" y="-138" font-family="Helvetica,sans-Serif" font-size="10.00">QObject::tr</text>
</a>
</g>
</g>
<!-- Node1&#45;&gt;Node7 -->
<g id="edge16" class="edge">
<title>Node1&#45;&gt;Node7</title>
<path fill="none" stroke="#63b8ff" d="M167.1,-214.32C283.54,-207.96 489.88,-194.85 563,-178.5 588.72,-172.75 616.7,-161.98 636.83,-153.37"/>
<polygon fill="#63b8ff" stroke="#63b8ff" points="644.41,-150.08 638.51,-156.57 640.74,-151.67 637.08,-153.27 637.08,-153.27 637.08,-153.27 640.74,-151.67 635.64,-149.97 644.41,-150.08 644.41,-150.08"/>
</g>
<!-- Node8 -->
<g id="node8" class="node">
<title>Node8</title>
<g id="a_node8"><a xlink:href="classDsoCommand.html#a5ed6988ac93f2964979b8dce1425816e" target="_top" xlink:title="Outputs DSO samples in the selected ouput format.">
<polygon fill="white" stroke="#666666" points="368,-112 203,-112 203,-93 368,-93 368,-112"/>
<text text-anchor="middle" x="285.5" y="-100" font-family="Helvetica,sans-Serif" font-size="10.00">DsoCommand::outputSamples</text>
</a>
</g>
</g>
<!-- Node1&#45;&gt;Node8 -->
<g id="edge7" class="edge">
<title>Node1&#45;&gt;Node8</title>
<path fill="none" stroke="#63b8ff" d="M98.01,-208.9C119.64,-193.7 163.63,-163.59 203,-141.5 219.93,-132 239.54,-122.57 255.28,-115.37"/>
<polygon fill="#63b8ff" stroke="#63b8ff" points="262.66,-112.02 256.86,-118.6 259.02,-113.67 255.38,-115.32 255.38,-115.32 255.38,-115.32 259.02,-113.67 253.89,-112.04 262.66,-112.02 262.66,-112.02"/>
</g>
<!-- Node6 -->
<g id="node6" class="node">
<title>Node6</title>
<g id="a_node6"><a xlink:href="classDsoService.html#acc76b93255cf3c5110d90c0df3318afe" target="_top" xlink:title="Returns mode as a user&#45;friendly string.">
<polygon fill="white" stroke="#666666" points="541.5,-169 425.5,-169 425.5,-150 541.5,-150 541.5,-169"/>
<text text-anchor="middle" x="483.5" y="-157" font-family="Helvetica,sans-Serif" font-size="10.00">DsoService::toString</text>
</a>
</g>
</g>
<!-- Node5&#45;&gt;Node6 -->
<g id="edge5" class="edge">
<title>Node5&#45;&gt;Node6</title>
<path fill="none" stroke="#63b8ff" d="M367.64,-159.5C384.14,-159.5 401.3,-159.5 417.16,-159.5"/>
<polygon fill="#63b8ff" stroke="#63b8ff" points="425.34,-159.5 417.34,-163.1 421.34,-159.5 417.34,-159.5 417.34,-159.5 417.34,-159.5 421.34,-159.5 417.34,-155.9 425.34,-159.5 425.34,-159.5"/>
</g>
<!-- Node6&#45;&gt;Node7 -->
<g id="edge6" class="edge">
<title>Node6&#45;&gt;Node7</title>
<path fill="none" stroke="#63b8ff" d="M541.61,-153.49C568.15,-150.69 599.13,-147.43 623.41,-144.88"/>
<polygon fill="#63b8ff" stroke="#63b8ff" points="631.37,-144.04 623.79,-148.46 627.39,-144.46 623.41,-144.88 623.41,-144.88 623.41,-144.88 627.39,-144.46 623.03,-141.3 631.37,-144.04 631.37,-144.04"/>
</g>
<!-- Node8&#45;&gt;Node6 -->
<g id="edge14" class="edge">
<title>Node8&#45;&gt;Node6</title>
<path fill="none" stroke="#63b8ff" d="M319.31,-112.04C352.94,-121.82 405.33,-137.06 441.64,-147.62"/>
<polygon fill="#63b8ff" stroke="#63b8ff" points="449.59,-149.93 440.9,-151.15 445.75,-148.81 441.91,-147.69 441.91,-147.69 441.91,-147.69 445.75,-148.81 442.91,-144.24 449.59,-149.93 449.59,-149.93"/>
</g>
<!-- Node8&#45;&gt;Node7 -->
<g id="edge15" class="edge">
<title>Node8&#45;&gt;Node7</title>
<path fill="none" stroke="#63b8ff" d="M368.16,-110.7C446.41,-118.55 561.41,-130.1 622.77,-136.26"/>
<polygon fill="#63b8ff" stroke="#63b8ff" points="631.06,-137.09 622.74,-139.88 627.08,-136.69 623.1,-136.29 623.1,-136.29 623.1,-136.29 627.08,-136.69 623.46,-132.71 631.06,-137.09 631.06,-137.09"/>
</g>
<!-- Node9 -->
<g id="node9" class="node">
<title>Node9</title>
<g id="a_node9"><a target="_parent" xlink:href="https://doc.qt.io/qt-5/qstring.html#arg-11" xlink:title=" ">
<polygon fill="white" stroke="#666666" points="520.5,-19 446.5,-19 446.5,0 520.5,0 520.5,-19"/>
<text text-anchor="middle" x="483.5" y="-7" font-family="Helvetica,sans-Serif" font-size="10.00">QString::arg</text>
</a>
</g>
</g>
<!-- Node8&#45;&gt;Node9 -->
<g id="edge8" class="edge">
<title>Node8&#45;&gt;Node9</title>
<path fill="none" stroke="#63b8ff" d="M298.41,-92.9C318.8,-76.95 362.26,-44.99 404,-27.5 414.69,-23.02 426.68,-19.56 438.02,-16.92"/>
<polygon fill="#63b8ff" stroke="#63b8ff" points="446.13,-15.14 439.09,-20.37 442.22,-16 438.32,-16.85 438.32,-16.85 438.32,-16.85 442.22,-16 437.55,-13.34 446.13,-15.14 446.13,-15.14"/>
</g>
<!-- Node10 -->
<g id="node10" class="node">
<title>Node10</title>
<g id="a_node10"><a xlink:href="classDeviceCommand.html#ae619166395b5651f1316fd5336d9fa2c" target="_top" xlink:title="Disconnects the underlying Pokit device, and sets exitCode to be return to the OS once the disconnect...">
<polygon fill="white" stroke="#666666" points="563,-56 404,-56 404,-37 563,-37 563,-56"/>
<text text-anchor="middle" x="483.5" y="-44" font-family="Helvetica,sans-Serif" font-size="10.00">DeviceCommand::disconnect</text>
</a>
</g>
</g>
<!-- Node8&#45;&gt;Node10 -->
<g id="edge9" class="edge">
<title>Node8&#45;&gt;Node10</title>
<path fill="none" stroke="#63b8ff" d="M313.83,-92.91C337.52,-84.78 372.79,-73.11 404,-64.5 412.36,-62.19 421.27,-59.95 429.99,-57.87"/>
<polygon fill="#63b8ff" stroke="#63b8ff" points="437.91,-56.01 430.94,-61.35 434.02,-56.93 430.12,-57.84 430.12,-57.84 430.12,-57.84 434.02,-56.93 429.3,-54.34 437.91,-56.01 437.91,-56.01"/>
</g>
<!-- Node13 -->
<g id="node13" class="node">
<title>Node13</title>
<g id="a_node13"><a target="_parent" xlink:href="https://doc.qt.io/qt-5/qstring.html#fromLatin1" xlink:title=" ">
<polygon fill="white" stroke="#666666" points="539.5,-93 427.5,-93 427.5,-74 539.5,-74 539.5,-93"/>
<text text-anchor="middle" x="483.5" y="-81" font-family="Helvetica,sans-Serif" font-size="10.00">QString::fromLatin1</text>
</a>
</g>
</g>
<!-- Node8&#45;&gt;Node13 -->
<g id="edge13" class="edge">
<title>Node8&#45;&gt;Node13</title>
<path fill="none" stroke="#63b8ff" d="M368.2,-94.58C385.2,-92.93 402.87,-91.22 419.08,-89.65"/>
<polygon fill="#63b8ff" stroke="#63b8ff" points="427.42,-88.84 419.81,-93.19 423.44,-89.23 419.46,-89.61 419.46,-89.61 419.46,-89.61 423.44,-89.23 419.11,-86.03 427.42,-88.84 427.42,-88.84"/>
</g>
<!-- Node10&#45;&gt;Node7 -->
<g id="edge12" class="edge">
<title>Node10&#45;&gt;Node7</title>
<path fill="none" stroke="#63b8ff" d="M539.53,-56.04C547.58,-58.31 555.64,-61.1 563,-64.5 580.77,-72.71 622.87,-106.01 647.06,-125.71"/>
<polygon fill="#63b8ff" stroke="#63b8ff" points="653.37,-130.87 644.9,-128.59 650.27,-128.34 647.18,-125.8 647.18,-125.8 647.18,-125.8 650.27,-128.34 649.46,-123.02 653.37,-130.87 653.37,-130.87"/>
</g>
<!-- Node11 -->
<g id="node11" class="node">
<title>Node11</title>
<g id="a_node11"><a xlink:href="classPokitDevice.html#a2e2fb6b30e6f5f0d7bc6cd8f806d6423" target="_top" xlink:title="Returns a non&#45;const pointer to the controller used to access the Pokit device.">
<polygon fill="white" stroke="#666666" points="730,-29 602,-29 602,-10 730,-10 730,-29"/>
<text text-anchor="middle" x="666" y="-17" font-family="Helvetica,sans-Serif" font-size="10.00">PokitDevice::controller</text>
</a>
</g>
</g>
<!-- Node10&#45;&gt;Node11 -->
<g id="edge10" class="edge">
<title>Node10&#45;&gt;Node11</title>
<path fill="none" stroke="#63b8ff" d="M548.14,-36.98C562.87,-34.78 578.64,-32.42 593.67,-30.17"/>
<polygon fill="#63b8ff" stroke="#63b8ff" points="601.94,-28.93 594.56,-33.68 597.98,-29.53 594.03,-30.12 594.03,-30.12 594.03,-30.12 597.98,-29.53 593.49,-26.56 601.94,-28.93 601.94,-28.93"/>
</g>
<!-- Node12 -->
<g id="node12" class="node">
<title>Node12</title>
<g id="a_node12"><a target="_parent" xlink:href="https://doc.qt.io/qt-5/qlowenergycontroller.html#disconnectFromDevice" xlink:title=" ">
<polygon fill="white" stroke="#666666" points="733,-77.5 599,-77.5 599,-47.5 733,-47.5 733,-77.5"/>
<text text-anchor="start" x="607" y="-65.5" font-family="Helvetica,sans-Serif" font-size="10.00">QLowEnergyController</text>
<text text-anchor="middle" x="666" y="-54.5" font-family="Helvetica,sans-Serif" font-size="10.00">::disconnectFromDevice</text>
</a>
</g>
</g>
<!-- Node10&#45;&gt;Node12 -->
<g id="edge11" class="edge">
<title>Node10&#45;&gt;Node12</title>
<path fill="none" stroke="#63b8ff" d="M563.14,-53.47C572.24,-54.28 581.49,-55.1 590.52,-55.9"/>
<polygon fill="#63b8ff" stroke="#63b8ff" points="598.75,-56.63 590.46,-59.51 594.76,-56.27 590.78,-55.92 590.78,-55.92 590.78,-55.92 594.76,-56.27 591.1,-52.33 598.75,-56.63 598.75,-56.63"/>
</g>
</g>
</svg>
