<?xml version="1.0" encoding="UTF-8" standalone="no"?>
<!DOCTYPE svg PUBLIC "-//W3C//DTD SVG 1.1//EN"
 "http://www.w3.org/Graphics/SVG/1.1/DTD/svg11.dtd">
<!-- Generated by graphviz version 2.43.0 (0)
 -->
<!-- Title: AbstractCommand::escapeCsvField Pages: 1 -->
<svg width="599pt" height="127pt"
 viewBox="0.00 0.00 599.00 126.50" xmlns="http://www.w3.org/2000/svg" xmlns:xlink="http://www.w3.org/1999/xlink">
<g id="graph0" class="graph" transform="scale(1 1) rotate(0) translate(4 122.5)">
<title>AbstractCommand::escapeCsvField</title>
<!-- Node1 -->
<g id="node1" class="node">
<title>Node1</title>
<g id="a_node1"><a xlink:title="Returns an RFC 4180 compliant version of field.">
<polygon fill="#bfbfbf" stroke="black" points="425,-49.5 425,-79.5 591,-79.5 591,-49.5 425,-49.5"/>
<text text-anchor="start" x="433" y="-67.5" font-family="Helvetica,sans-Serif" font-size="10.00">AbstractCommand::escapeCsv</text>
<text text-anchor="middle" x="508" y="-56.5" font-family="Helvetica,sans-Serif" font-size="10.00">Field</text>
</a>
</g>
</g>
<!-- Node2 -->
<g id="node2" class="node">
<title>Node2</title>
<g id="a_node2"><a xlink:href="classScanCommand.html#abd933fedb834ca58d1ba4b60398a8cc1" target="_top" xlink:title="Handles discovered Pokit devices, writing info to stdout.">
<polygon fill="none" stroke="black" points="206,-99 206,-118 389,-118 389,-99 206,-99"/>
<text text-anchor="middle" x="297.5" y="-106" font-family="Helvetica,sans-Serif" font-size="10.00">ScanCommand::deviceDiscovered</text>
</a>
</g>
</g>
<!-- Node1&#45;&gt;Node2 -->
<g id="edge1" class="edge">
<title>Node1&#45;&gt;Node2</title>
<path fill="none" stroke="midnightblue" d="M426.25,-81.63C413.78,-84.27 401.05,-86.96 389,-89.5 374.39,-92.58 358.45,-95.93 344.08,-98.95"/>
<polygon fill="midnightblue" stroke="midnightblue" points="427.13,-85.02 436.18,-79.53 425.68,-78.17 427.13,-85.02"/>
</g>
<!-- Node4 -->
<g id="node4" class="node">
<title>Node4</title>
<g id="a_node4"><a xlink:href="classInfoCommand.html#a06d095d57662fd10b201d6273085c34e" target="_top" xlink:title="Handles service detail discovery events.">
<polygon fill="none" stroke="black" points="217,-49.5 217,-79.5 378,-79.5 378,-49.5 217,-49.5"/>
<text text-anchor="start" x="225" y="-67.5" font-family="Helvetica,sans-Serif" font-size="10.00">InfoCommand::serviceDetails</text>
<text text-anchor="middle" x="297.5" y="-56.5" font-family="Helvetica,sans-Serif" font-size="10.00">Discovered</text>
</a>
</g>
</g>
<!-- Node1&#45;&gt;Node4 -->
<g id="edge3" class="edge">
<title>Node1&#45;&gt;Node4</title>
<path fill="none" stroke="midnightblue" d="M414.72,-64.5C402.52,-64.5 390.1,-64.5 378.14,-64.5"/>
<polygon fill="midnightblue" stroke="midnightblue" points="414.89,-68 424.89,-64.5 414.89,-61 414.89,-68"/>
</g>
<!-- Node6 -->
<g id="node6" class="node">
<title>Node6</title>
<g id="a_node6"><a xlink:href="classStatusCommand.html#af275e3a02032915dd27e0c0e041ff6c1" target="_top" xlink:title="Handles service detail discovery events.">
<polygon fill="none" stroke="black" points="211,-0.5 211,-30.5 384,-30.5 384,-0.5 211,-0.5"/>
<text text-anchor="start" x="219" y="-18.5" font-family="Helvetica,sans-Serif" font-size="10.00">StatusCommand::serviceDetails</text>
<text text-anchor="middle" x="297.5" y="-7.5" font-family="Helvetica,sans-Serif" font-size="10.00">Discovered</text>
</a>
</g>
</g>
<!-- Node1&#45;&gt;Node6 -->
<g id="edge5" class="edge">
<title>Node1&#45;&gt;Node6</title>
<path fill="none" stroke="midnightblue" d="M433.26,-47.17C410.11,-41.73 384.76,-35.77 362.35,-30.51"/>
<polygon fill="midnightblue" stroke="midnightblue" points="432.49,-50.58 443.03,-49.47 434.09,-43.77 432.49,-50.58"/>
</g>
<!-- Node3 -->
<g id="node3" class="node">
<title>Node3</title>
<g id="a_node3"><a xlink:href="classScanCommand.html#abf73c3339c34841c58f8165839b45b6d" target="_top" xlink:title="Construct a new ScanCommand object with parent.">
<polygon fill="none" stroke="black" points="0,-99 0,-118 170,-118 170,-99 0,-99"/>
<text text-anchor="middle" x="85" y="-106" font-family="Helvetica,sans-Serif" font-size="10.00">ScanCommand::ScanCommand</text>
</a>
</g>
</g>
<!-- Node2&#45;&gt;Node3 -->
<g id="edge2" class="edge">
<title>Node2&#45;&gt;Node3</title>
<path fill="none" stroke="midnightblue" d="M195.43,-108.5C186.98,-108.5 178.49,-108.5 170.18,-108.5"/>
<polygon fill="midnightblue" stroke="midnightblue" points="195.7,-112 205.7,-108.5 195.7,-105 195.7,-112"/>
</g>
<!-- Node5 -->
<g id="node5" class="node">
<title>Node5</title>
<g id="a_node5"><a xlink:href="classInfoCommand.html#a8f12a62e56958971c0f3655e1338decb" target="_top" xlink:title="Begins scanning for Pokit devices.">
<polygon fill="none" stroke="black" points="28,-55 28,-74 142,-74 142,-55 28,-55"/>
<text text-anchor="middle" x="85" y="-62" font-family="Helvetica,sans-Serif" font-size="10.00">InfoCommand::start</text>
</a>
</g>
</g>
<!-- Node4&#45;&gt;Node5 -->
<g id="edge4" class="edge">
<title>Node4&#45;&gt;Node5</title>
<path fill="none" stroke="midnightblue" d="M206.9,-64.5C184.91,-64.5 162,-64.5 142.1,-64.5"/>
<polygon fill="midnightblue" stroke="midnightblue" points="206.92,-68 216.92,-64.5 206.92,-61 206.92,-68"/>
</g>
<!-- Node7 -->
<g id="node7" class="node">
<title>Node7</title>
<g id="a_node7"><a xlink:href="classStatusCommand.html#a132a16e82442ad44cc7340075e726f97" target="_top" xlink:title="Begins scanning for Pokit devices.">
<polygon fill="none" stroke="black" points="22,-6 22,-25 148,-25 148,-6 22,-6"/>
<text text-anchor="middle" x="85" y="-13" font-family="Helvetica,sans-Serif" font-size="10.00">StatusCommand::start</text>
</a>
</g>
</g>
<!-- Node6&#45;&gt;Node7 -->
<g id="edge6" class="edge">
<title>Node6&#45;&gt;Node7</title>
<path fill="none" stroke="midnightblue" d="M200.5,-15.5C182.78,-15.5 164.7,-15.5 148.3,-15.5"/>
<polygon fill="midnightblue" stroke="midnightblue" points="200.88,-19 210.88,-15.5 200.88,-12 200.88,-19"/>
</g>
</g>
</svg>
