<?xml version="1.0" encoding="UTF-8" standalone="no"?>
<!DOCTYPE svg PUBLIC "-//W3C//DTD SVG 1.1//EN"
 "http://www.w3.org/Graphics/SVG/1.1/DTD/svg11.dtd">
<!-- Generated by graphviz version 2.43.0 (0)
 -->
<!-- Title: SetNameCommand::start Pages: 1 -->
<svg width="575pt" height="221pt"
 viewBox="0.00 0.00 575.00 221.00" xmlns="http://www.w3.org/2000/svg" xmlns:xlink="http://www.w3.org/1999/xlink">
<g id="graph0" class="graph" transform="scale(1 1) rotate(0) translate(4 217)">
<title>SetNameCommand::start</title>
<!-- Node1 -->
<g id="node1" class="node">
<title>Node1</title>
<g id="a_node1"><a xlink:title="Begins scanning for Pokit devices.">
<polygon fill="#bfbfbf" stroke="black" points="0,-100.5 0,-119.5 140,-119.5 140,-100.5 0,-100.5"/>
<text text-anchor="middle" x="70" y="-107.5" font-family="Helvetica,sans-Serif" font-size="10.00">SetNameCommand::start</text>
</a>
</g>
</g>
<!-- Node2 -->
<g id="node2" class="node">
<title>Node2</title>
<g id="a_node2"><a xlink:href="classPokitDevice.html#a2e2fb6b30e6f5f0d7bc6cd8f806d6423" target="_top" xlink:title="Returns a non&#45;const pointer to the controller used to access the Pokit device.">
<polygon fill="none" stroke="black" points="206,-193.5 206,-212.5 334,-212.5 334,-193.5 206,-193.5"/>
<text text-anchor="middle" x="270" y="-200.5" font-family="Helvetica,sans-Serif" font-size="10.00">PokitDevice::controller</text>
</a>
</g>
</g>
<!-- Node1&#45;&gt;Node2 -->
<g id="edge1" class="edge">
<title>Node1&#45;&gt;Node2</title>
<path fill="none" stroke="midnightblue" d="M81.43,-119.63C99.34,-135.6 137.71,-167.46 176,-184 182.3,-186.72 189.02,-189.06 195.84,-191.07"/>
<polygon fill="midnightblue" stroke="midnightblue" points="195.32,-194.55 205.88,-193.78 197.14,-187.8 195.32,-194.55"/>
</g>
<!-- Node3 -->
<g id="node3" class="node">
<title>Node3</title>
<g id="a_node3"><a xlink:href="classSetNameCommand.html#a25871d2f3a6aded92a89559fd36370f4" target="_top" xlink:title="Handles StatusService::deivceNameWritten events, by outputting the result and exiting.">
<polygon fill="none" stroke="black" points="180.5,-144 180.5,-174 359.5,-174 359.5,-144 180.5,-144"/>
<text text-anchor="start" x="188.5" y="-162" font-family="Helvetica,sans-Serif" font-size="10.00">SetNameCommand::deivceName</text>
<text text-anchor="middle" x="270" y="-151" font-family="Helvetica,sans-Serif" font-size="10.00">Written</text>
</a>
</g>
</g>
<!-- Node1&#45;&gt;Node3 -->
<g id="edge2" class="edge">
<title>Node1&#45;&gt;Node3</title>
<path fill="none" stroke="midnightblue" d="M109.65,-119.56C134.82,-125.79 168.42,-134.11 198.28,-141.5"/>
<polygon fill="midnightblue" stroke="midnightblue" points="197.69,-144.96 208.24,-143.96 199.37,-138.16 197.69,-144.96"/>
</g>
<!-- Node4 -->
<g id="node4" class="node">
<title>Node4</title>
<g id="a_node4"><a xlink:href="classSetNameCommand.html#a3d6d88c52edc3fed5d2326c6d0859b82" target="_top" xlink:title="Handles service detail discovery events.">
<polygon fill="none" stroke="black" points="176,-95 176,-125 364,-125 364,-95 176,-95"/>
<text text-anchor="start" x="184" y="-113" font-family="Helvetica,sans-Serif" font-size="10.00">SetNameCommand::serviceDetails</text>
<text text-anchor="middle" x="270" y="-102" font-family="Helvetica,sans-Serif" font-size="10.00">Discovered</text>
</a>
</g>
</g>
<!-- Node1&#45;&gt;Node4 -->
<g id="edge3" class="edge">
<title>Node1&#45;&gt;Node4</title>
<path fill="none" stroke="midnightblue" d="M140.25,-110C148.51,-110 157.07,-110 165.67,-110"/>
<polygon fill="midnightblue" stroke="midnightblue" points="165.78,-113.5 175.78,-110 165.78,-106.5 165.78,-113.5"/>
</g>
<!-- Node6 -->
<g id="node6" class="node">
<title>Node6</title>
<g id="a_node6"><a xlink:href="classDeviceCommand.html#a96208c78728c0068e7a78f961b913751" target="_top" xlink:title="Handles service error events.">
<polygon fill="none" stroke="black" points="187.5,-56.5 187.5,-75.5 352.5,-75.5 352.5,-56.5 187.5,-56.5"/>
<text text-anchor="middle" x="270" y="-63.5" font-family="Helvetica,sans-Serif" font-size="10.00">DeviceCommand::serviceError</text>
</a>
</g>
</g>
<!-- Node1&#45;&gt;Node6 -->
<g id="edge5" class="edge">
<title>Node1&#45;&gt;Node6</title>
<path fill="none" stroke="midnightblue" d="M112.11,-100.47C131.48,-96.02 154.91,-90.68 176,-86 188.34,-83.26 201.62,-80.37 214.16,-77.67"/>
<polygon fill="midnightblue" stroke="midnightblue" points="215,-81.07 224.04,-75.55 213.52,-74.23 215,-81.07"/>
</g>
<!-- Node7 -->
<g id="node7" class="node">
<title>Node7</title>
<g id="a_node7"><a xlink:href="classPokitDevice.html#adaaaedcb434b3dda9608ad58192e9142" target="_top" xlink:title="Returns a pointer to StatusService instance that uses this device&#39;s controller for access.">
<polygon fill="none" stroke="black" points="214.5,-0.5 214.5,-19.5 325.5,-19.5 325.5,-0.5 214.5,-0.5"/>
<text text-anchor="middle" x="270" y="-7.5" font-family="Helvetica,sans-Serif" font-size="10.00">PokitDevice::status</text>
</a>
</g>
</g>
<!-- Node1&#45;&gt;Node7 -->
<g id="edge6" class="edge">
<title>Node1&#45;&gt;Node7</title>
<path fill="none" stroke="midnightblue" d="M85.19,-100.47C104.99,-87.42 142.28,-63.69 176,-47 193.97,-38.11 214.63,-29.72 231.9,-23.18"/>
<polygon fill="midnightblue" stroke="midnightblue" points="233.49,-26.33 241.64,-19.56 231.04,-19.77 233.49,-26.33"/>
</g>
<!-- Node5 -->
<g id="node5" class="node">
<title>Node5</title>
<g id="a_node5"><a xlink:href="classStatusService.html#ada280bc54493f85e6855a2534bf2a02d" target="_top" xlink:title="Set&#39;s the Pokit device&#39;s name to name.">
<polygon fill="none" stroke="black" points="400,-100.5 400,-119.5 567,-119.5 567,-100.5 400,-100.5"/>
<text text-anchor="middle" x="483.5" y="-107.5" font-family="Helvetica,sans-Serif" font-size="10.00">StatusService::setDeviceName</text>
</a>
</g>
</g>
<!-- Node4&#45;&gt;Node5 -->
<g id="edge4" class="edge">
<title>Node4&#45;&gt;Node5</title>
<path fill="none" stroke="midnightblue" d="M364.07,-110C372.51,-110 381.04,-110 389.48,-110"/>
<polygon fill="midnightblue" stroke="midnightblue" points="389.69,-113.5 399.69,-110 389.69,-106.5 389.69,-113.5"/>
</g>
<!-- Node7&#45;&gt;Node7 -->
<g id="edge7" class="edge">
<title>Node7&#45;&gt;Node7</title>
<path fill="none" stroke="midnightblue" d="M239.17,-19.76C224.18,-28.57 234.45,-38 270,-38 294.99,-38 307.49,-33.34 307.5,-27.5"/>
<polygon fill="midnightblue" stroke="midnightblue" points="310,-25.05 300.83,-19.76 304.7,-29.62 310,-25.05"/>
</g>
</g>
</svg>
