<?xml version="1.0" encoding="UTF-8" standalone="no"?>
<!DOCTYPE svg PUBLIC "-//W3C//DTD SVG 1.1//EN"
 "http://www.w3.org/Graphics/SVG/1.1/DTD/svg11.dtd">
<!-- Generated by graphviz version 2.43.0 (0)
 -->
<!-- Title: DsoService::setSettings Pages: 1 -->
<svg width="337pt" height="116pt"
 viewBox="0.00 0.00 337.00 116.00" xmlns="http://www.w3.org/2000/svg" xmlns:xlink="http://www.w3.org/1999/xlink">
<g id="graph0" class="graph" transform="scale(1 1) rotate(0) translate(4 112)">
<title>DsoService::setSettings</title>
<!-- Node1 -->
<g id="node1" class="node">
<title>Node1</title>
<g id="a_node1"><a xlink:title="Configures the Pokit device&#39;s DSO mode.">
<polygon fill="#bfbfbf" stroke="black" points="197,-44.5 197,-63.5 329,-63.5 329,-44.5 197,-44.5"/>
<text text-anchor="middle" x="263" y="-51.5" font-family="Helvetica,sans-Serif" font-size="10.00">DsoService::setSettings</text>
</a>
</g>
</g>
<!-- Node2 -->
<g id="node2" class="node">
<title>Node2</title>
<g id="a_node2"><a xlink:href="classDsoService.html#a5da2f9ae60f06d3b904d6d239bacd09e" target="_top" xlink:title="Fetch DSO samples.">
<polygon fill="none" stroke="black" points="8.5,-88.5 8.5,-107.5 152.5,-107.5 152.5,-88.5 8.5,-88.5"/>
<text text-anchor="middle" x="80.5" y="-95.5" font-family="Helvetica,sans-Serif" font-size="10.00">DsoService::fetchSamples</text>
</a>
</g>
</g>
<!-- Node1&#45;&gt;Node2 -->
<g id="edge1" class="edge">
<title>Node1&#45;&gt;Node2</title>
<path fill="none" stroke="midnightblue" d="M213.58,-66.07C196.93,-70.2 178.15,-74.83 161,-79 148.18,-82.12 134.18,-85.48 121.55,-88.49"/>
<polygon fill="midnightblue" stroke="midnightblue" points="214.79,-69.38 223.65,-63.57 213.1,-62.58 214.79,-69.38"/>
</g>
<!-- Node3 -->
<g id="node3" class="node">
<title>Node3</title>
<g id="a_node3"><a xlink:href="classDsoCommand.html#a57f3b6be35c7a6fdadfaa737177016a8" target="_top" xlink:title="Handles service detail discovery events.">
<polygon fill="none" stroke="black" points="0,-39 0,-69 161,-69 161,-39 0,-39"/>
<text text-anchor="start" x="8" y="-57" font-family="Helvetica,sans-Serif" font-size="10.00">DsoCommand::serviceDetails</text>
<text text-anchor="middle" x="80.5" y="-46" font-family="Helvetica,sans-Serif" font-size="10.00">Discovered</text>
</a>
</g>
</g>
<!-- Node1&#45;&gt;Node3 -->
<g id="edge2" class="edge">
<title>Node1&#45;&gt;Node3</title>
<path fill="none" stroke="midnightblue" d="M186.63,-54C178.18,-54 169.55,-54 161.05,-54"/>
<polygon fill="midnightblue" stroke="midnightblue" points="186.84,-57.5 196.84,-54 186.84,-50.5 186.84,-57.5"/>
</g>
<!-- Node4 -->
<g id="node4" class="node">
<title>Node4</title>
<g id="a_node4"><a xlink:href="classDsoService.html#a4bd74f90cf6b34172cfeaff8112f22fe" target="_top" xlink:title="Start the DSO with settings.">
<polygon fill="none" stroke="black" points="21,-0.5 21,-19.5 140,-19.5 140,-0.5 21,-0.5"/>
<text text-anchor="middle" x="80.5" y="-7.5" font-family="Helvetica,sans-Serif" font-size="10.00">DsoService::startDso</text>
</a>
</g>
</g>
<!-- Node1&#45;&gt;Node4 -->
<g id="edge3" class="edge">
<title>Node1&#45;&gt;Node4</title>
<path fill="none" stroke="midnightblue" d="M212.9,-42.03C183.89,-34.96 147.65,-26.13 120.59,-19.53"/>
<polygon fill="midnightblue" stroke="midnightblue" points="212.29,-45.48 222.83,-44.45 213.95,-38.68 212.29,-45.48"/>
</g>
</g>
</svg>
