<?xml version="1.0" encoding="UTF-8" standalone="no"?>
<!DOCTYPE svg PUBLIC "-//W3C//DTD SVG 1.1//EN"
 "http://www.w3.org/Graphics/SVG/1.1/DTD/svg11.dtd">
<!-- Generated by graphviz version 2.43.0 (0)
 -->
<!-- Title: AbstractCommand::parseWholeValue Pages: 1 -->
<svg width="391pt" height="66pt"
 viewBox="0.00 0.00 391.00 66.00" xmlns="http://www.w3.org/2000/svg" xmlns:xlink="http://www.w3.org/1999/xlink">
<g id="graph0" class="graph" transform="scale(1 1) rotate(0) translate(4 62)">
<title>AbstractCommand::parseWholeValue</title>
<!-- Node1 -->
<g id="node1" class="node">
<title>Node1</title>
<g id="a_node1"><a xlink:title="Returns value as a number, with optional SI unit prefix, and optional unit suffix.">
<polygon fill="#bfbfbf" stroke="black" points="212,-14 212,-44 383,-44 383,-14 212,-14"/>
<text text-anchor="start" x="220" y="-32" font-family="Helvetica,sans-Serif" font-size="10.00">AbstractCommand::parseWhole</text>
<text text-anchor="middle" x="297.5" y="-21" font-family="Helvetica,sans-Serif" font-size="10.00">Value</text>
</a>
</g>
</g>
<!-- Node2 -->
<g id="node2" class="node">
<title>Node2</title>
<g id="a_node2"><a xlink:href="classDsoCommand.html#a87db950042b5ea7707bd76648536c943" target="_top" xlink:title="Processes the relevant options from the command line parser.">
<polygon fill="none" stroke="black" points="4.5,-38.5 4.5,-57.5 171.5,-57.5 171.5,-38.5 4.5,-38.5"/>
<text text-anchor="middle" x="88" y="-45.5" font-family="Helvetica,sans-Serif" font-size="10.00">DsoCommand::processOptions</text>
</a>
</g>
</g>
<!-- Node1&#45;&gt;Node2 -->
<g id="edge1" class="edge">
<title>Node1&#45;&gt;Node2</title>
<path fill="none" stroke="midnightblue" d="M201.82,-37.67C191.78,-38.59 181.63,-39.52 171.75,-40.42"/>
<polygon fill="midnightblue" stroke="midnightblue" points="202.16,-41.15 211.8,-36.76 201.53,-34.18 202.16,-41.15"/>
</g>
<!-- Node3 -->
<g id="node3" class="node">
<title>Node3</title>
<g id="a_node3"><a xlink:href="classMeterCommand.html#a7252ac9a772bc45e374da30bbc23ed85" target="_top" xlink:title="Processes the relevant options from the command line parser.">
<polygon fill="none" stroke="black" points="0,-0.5 0,-19.5 176,-19.5 176,-0.5 0,-0.5"/>
<text text-anchor="middle" x="88" y="-7.5" font-family="Helvetica,sans-Serif" font-size="10.00">MeterCommand::processOptions</text>
</a>
</g>
</g>
<!-- Node1&#45;&gt;Node3 -->
<g id="edge2" class="edge">
<title>Node1&#45;&gt;Node3</title>
<path fill="none" stroke="midnightblue" d="M201.81,-20.33C193.25,-19.55 184.61,-18.75 176.12,-17.98"/>
<polygon fill="midnightblue" stroke="midnightblue" points="201.53,-23.82 211.8,-21.24 202.16,-16.85 201.53,-23.82"/>
</g>
</g>
</svg>
