<?xml version="1.0" encoding="UTF-8" standalone="no"?>
<!DOCTYPE svg PUBLIC "-//W3C//DTD SVG 1.1//EN"
 "http://www.w3.org/Graphics/SVG/1.1/DTD/svg11.dtd">
<!-- Generated by graphviz version 2.43.0 (0)
 -->
<!-- Title: SetNameCommand::processOptions Pages: 1 -->
<svg width="823pt" height="603pt"
 viewBox="0.00 0.00 823.00 602.50" xmlns="http://www.w3.org/2000/svg" xmlns:xlink="http://www.w3.org/1999/xlink">
<g id="graph0" class="graph" transform="scale(1 1) rotate(0) translate(4 598.5)">
<title>SetNameCommand::processOptions</title>
<!-- Node1 -->
<g id="node1" class="node">
<title>Node1</title>
<g id="a_node1"><a xlink:title="Processes the relevant options from the command line parser.">
<polygon fill="#bfbfbf" stroke="black" points="0,-219 0,-238 193,-238 193,-219 0,-219"/>
<text text-anchor="middle" x="96.5" y="-226" font-family="Helvetica,sans-Serif" font-size="10.00">SetNameCommand::processOptions</text>
</a>
</g>
</g>
<!-- Node2 -->
<g id="node2" class="node">
<title>Node2</title>
<g id="a_node2"><a target="_parent" xlink:href="https://doc.qt.io/qt-5/qlist.html#append" xlink:title=" ">
<polygon fill="none" stroke="black" points="479,-537 479,-556 562,-556 562,-537 479,-537"/>
<text text-anchor="middle" x="520.5" y="-544" font-family="Helvetica,sans-Serif" font-size="10.00">QList::append</text>
</a>
</g>
</g>
<!-- Node1&#45;&gt;Node2 -->
<g id="edge1" class="edge">
<title>Node1&#45;&gt;Node2</title>
<path fill="none" stroke="midnightblue" d="M104.28,-238.04C134.82,-280.2 264.69,-451.08 416,-527.5 432.22,-535.69 451.46,-540.39 468.93,-543.07"/>
<polygon fill="midnightblue" stroke="midnightblue" points="468.6,-546.55 478.97,-544.42 469.53,-539.61 468.6,-546.55"/>
</g>
<!-- Node3 -->
<g id="node3" class="node">
<title>Node3</title>
<g id="a_node3"><a target="_parent" xlink:href="https://doc.qt.io/qt-5/qstring.html#isEmpty" xlink:title=" ">
<polygon fill="none" stroke="black" points="255.5,-143 255.5,-162 353.5,-162 353.5,-143 255.5,-143"/>
<text text-anchor="middle" x="304.5" y="-150" font-family="Helvetica,sans-Serif" font-size="10.00">QString::isEmpty</text>
</a>
</g>
</g>
<!-- Node1&#45;&gt;Node3 -->
<g id="edge2" class="edge">
<title>Node1&#45;&gt;Node3</title>
<path fill="none" stroke="midnightblue" d="M120.61,-218.84C146.73,-208.03 190.64,-190.25 229,-176.5 239.77,-172.64 251.52,-168.72 262.44,-165.2"/>
<polygon fill="midnightblue" stroke="midnightblue" points="263.71,-168.47 272.17,-162.09 261.58,-161.8 263.71,-168.47"/>
</g>
<!-- Node4 -->
<g id="node4" class="node">
<title>Node4</title>
<g id="a_node4"><a target="_parent" xlink:href="https://doc.qt.io/qt-5/qlist.html#isEmpty" xlink:title=" ">
<polygon fill="none" stroke="black" points="261,-105 261,-124 348,-124 348,-105 261,-105"/>
<text text-anchor="middle" x="304.5" y="-112" font-family="Helvetica,sans-Serif" font-size="10.00">QList::isEmpty</text>
</a>
</g>
</g>
<!-- Node1&#45;&gt;Node4 -->
<g id="edge3" class="edge">
<title>Node1&#45;&gt;Node4</title>
<path fill="none" stroke="midnightblue" d="M107.87,-218.85C129,-199.71 179.26,-156.78 229,-133.5 235.89,-130.27 243.41,-127.54 250.93,-125.25"/>
<polygon fill="midnightblue" stroke="midnightblue" points="252.1,-128.55 260.77,-122.47 250.2,-121.82 252.1,-128.55"/>
</g>
<!-- Node5 -->
<g id="node5" class="node">
<title>Node5</title>
<g id="a_node5"><a target="_parent" xlink:href="https://doc.qt.io/qt-5/qstring.html#length" xlink:title=" ">
<polygon fill="none" stroke="black" points="693.5,-575 693.5,-594 782.5,-594 782.5,-575 693.5,-575"/>
<text text-anchor="middle" x="738" y="-582" font-family="Helvetica,sans-Serif" font-size="10.00">QString::length</text>
</a>
</g>
</g>
<!-- Node1&#45;&gt;Node5 -->
<g id="edge4" class="edge">
<title>Node1&#45;&gt;Node5</title>
<path fill="none" stroke="midnightblue" d="M101.01,-238.39C113.53,-272.56 159.06,-387.39 229,-457.5 296.78,-525.45 324.07,-537.92 416,-565.5 506.86,-592.75 618.51,-592.2 683.33,-588.75"/>
<polygon fill="midnightblue" stroke="midnightblue" points="683.54,-592.24 693.33,-588.17 683.14,-585.25 683.54,-592.24"/>
</g>
<!-- Node6 -->
<g id="node6" class="node">
<title>Node6</title>
<g id="a_node6"><a xlink:href="classAbstractCommand.html#ad827a18a24776efeb955739459d48f7d" target="_top" xlink:title="Processes the relevant options from the command line parser.">
<polygon fill="none" stroke="black" points="229,-257.5 229,-287.5 380,-287.5 380,-257.5 229,-257.5"/>
<text text-anchor="start" x="237" y="-275.5" font-family="Helvetica,sans-Serif" font-size="10.00">AbstractCommand::process</text>
<text text-anchor="middle" x="304.5" y="-264.5" font-family="Helvetica,sans-Serif" font-size="10.00">Options</text>
</a>
</g>
</g>
<!-- Node1&#45;&gt;Node6 -->
<g id="edge5" class="edge">
<title>Node1&#45;&gt;Node6</title>
<path fill="none" stroke="midnightblue" d="M142.2,-238.05C165.81,-243.09 195.51,-249.43 222.97,-255.3"/>
<polygon fill="midnightblue" stroke="midnightblue" points="222.46,-258.77 232.97,-257.43 223.92,-251.92 222.46,-258.77"/>
</g>
<!-- Node22 -->
<g id="node22" class="node">
<title>Node22</title>
<g id="a_node22"><a target="_parent" xlink:href="https://doc.qt.io/qt-5/qobject.html#tr" xlink:title=" ">
<polygon fill="none" stroke="black" points="486,-50 486,-69 555,-69 555,-50 486,-50"/>
<text text-anchor="middle" x="520.5" y="-57" font-family="Helvetica,sans-Serif" font-size="10.00">QObject::tr</text>
</a>
</g>
</g>
<!-- Node1&#45;&gt;Node22 -->
<g id="edge26" class="edge">
<title>Node1&#45;&gt;Node22</title>
<path fill="none" stroke="midnightblue" d="M138.31,-238.09C198.44,-249.63 311.15,-261.04 380,-204.5 424.68,-167.81 373.33,-118.51 416,-79.5 431.95,-64.92 455.19,-59.54 475.62,-57.96"/>
<polygon fill="midnightblue" stroke="midnightblue" points="475.87,-61.46 485.68,-57.47 475.52,-54.46 475.87,-61.46"/>
</g>
<!-- Node23 -->
<g id="node23" class="node">
<title>Node23</title>
<g id="a_node23"><a target="_parent" xlink:href="https://doc.qt.io/qt-5/qcommandlineparser.html#value" xlink:title=" ">
<polygon fill="none" stroke="black" points="458,-0.5 458,-30.5 583,-30.5 583,-0.5 458,-0.5"/>
<text text-anchor="start" x="466" y="-18.5" font-family="Helvetica,sans-Serif" font-size="10.00">QCommandLineParser</text>
<text text-anchor="middle" x="520.5" y="-7.5" font-family="Helvetica,sans-Serif" font-size="10.00">::value</text>
</a>
</g>
</g>
<!-- Node1&#45;&gt;Node23 -->
<g id="edge27" class="edge">
<title>Node1&#45;&gt;Node23</title>
<path fill="none" stroke="midnightblue" d="M148.04,-219C228.15,-203.84 375.74,-175.47 380,-171.5 424.14,-130.3 372.64,-82.52 416,-40.5 424.81,-31.96 436.02,-26.16 447.78,-22.27"/>
<polygon fill="midnightblue" stroke="midnightblue" points="449.1,-25.53 457.76,-19.42 447.18,-18.8 449.1,-25.53"/>
</g>
<!-- Node6&#45;&gt;Node2 -->
<g id="edge6" class="edge">
<title>Node6&#45;&gt;Node2</title>
<path fill="none" stroke="midnightblue" d="M314.38,-287.78C329.26,-313.8 359.61,-368.66 380,-417.5 399.82,-464.97 377.26,-493.66 416,-527.5 430.39,-540.08 450.31,-545.55 468.83,-547.62"/>
<polygon fill="midnightblue" stroke="midnightblue" points="468.68,-551.12 478.93,-548.44 469.25,-544.14 468.68,-551.12"/>
</g>
<!-- Node7 -->
<g id="node7" class="node">
<title>Node7</title>
<g id="a_node7"><a target="_parent" xlink:href="https://doc.qt.io/qt-5/qstring.html#arg-11" xlink:title=" ">
<polygon fill="none" stroke="black" points="483.5,-225 483.5,-244 557.5,-244 557.5,-225 483.5,-225"/>
<text text-anchor="middle" x="520.5" y="-232" font-family="Helvetica,sans-Serif" font-size="10.00">QString::arg</text>
</a>
</g>
</g>
<!-- Node6&#45;&gt;Node7 -->
<g id="edge7" class="edge">
<title>Node6&#45;&gt;Node7</title>
<path fill="none" stroke="midnightblue" d="M380.05,-259.26C411.07,-253.75 446.1,-247.53 473.3,-242.7"/>
<polygon fill="midnightblue" stroke="midnightblue" points="474.08,-246.12 483.31,-240.93 472.85,-239.23 474.08,-246.12"/>
</g>
<!-- Node8 -->
<g id="node8" class="node">
<title>Node8</title>
<g id="a_node8"><a target="_parent" xlink:href="https://doc.qt.io/qt-5/qstringlist.html#contains" xlink:title=" ">
<polygon fill="none" stroke="black" points="462,-187 462,-206 579,-206 579,-187 462,-187"/>
<text text-anchor="middle" x="520.5" y="-194" font-family="Helvetica,sans-Serif" font-size="10.00">QStringList::contains</text>
</a>
</g>
</g>
<!-- Node6&#45;&gt;Node8 -->
<g id="edge8" class="edge">
<title>Node6&#45;&gt;Node8</title>
<path fill="none" stroke="midnightblue" d="M348.55,-257.38C359.09,-253.08 370.16,-248.04 380,-242.5 397.42,-232.68 397.68,-223.52 416,-215.5 427.29,-210.56 439.82,-206.9 452.15,-204.2"/>
<polygon fill="midnightblue" stroke="midnightblue" points="452.85,-207.63 461.97,-202.22 451.47,-200.76 452.85,-207.63"/>
</g>
<!-- Node9 -->
<g id="node9" class="node">
<title>Node9</title>
<g id="a_node9"><a target="_parent" xlink:href="https://doc.qt.io/qt-5/qcommandlineparser.html#isSet" xlink:title=" ">
<polygon fill="none" stroke="black" points="458,-137.5 458,-167.5 583,-167.5 583,-137.5 458,-137.5"/>
<text text-anchor="start" x="466" y="-155.5" font-family="Helvetica,sans-Serif" font-size="10.00">QCommandLineParser</text>
<text text-anchor="middle" x="520.5" y="-144.5" font-family="Helvetica,sans-Serif" font-size="10.00">::isSet</text>
</a>
</g>
</g>
<!-- Node6&#45;&gt;Node9 -->
<g id="edge9" class="edge">
<title>Node6&#45;&gt;Node9</title>
<path fill="none" stroke="midnightblue" d="M356.69,-257.34C365.06,-253.39 373.21,-248.5 380,-242.5 404.74,-220.63 389.73,-197.51 416,-177.5 425.42,-170.32 436.61,-165.17 448.09,-161.48"/>
<polygon fill="midnightblue" stroke="midnightblue" points="449.11,-164.83 457.77,-158.72 447.19,-158.1 449.11,-164.83"/>
</g>
<!-- Node10 -->
<g id="node10" class="node">
<title>Node10</title>
<g id="a_node10"><a target="_parent" xlink:href="https://doc.qt.io/qt-5/qbluetoothdevicediscoveryagent.html#lowEnergyDiscoveryTimeout" xlink:title=" ">
<polygon fill="none" stroke="black" points="425,-88.5 425,-118.5 616,-118.5 616,-88.5 425,-88.5"/>
<text text-anchor="start" x="433" y="-106.5" font-family="Helvetica,sans-Serif" font-size="10.00">QBluetoothDeviceDiscovery</text>
<text text-anchor="middle" x="520.5" y="-95.5" font-family="Helvetica,sans-Serif" font-size="10.00">Agent::lowEnergyDiscoveryTimeout</text>
</a>
</g>
</g>
<!-- Node6&#45;&gt;Node10 -->
<g id="edge10" class="edge">
<title>Node6&#45;&gt;Node10</title>
<path fill="none" stroke="midnightblue" d="M359.65,-257.47C367.2,-253.55 374.32,-248.64 380,-242.5 416.1,-203.51 377.16,-164.75 416,-128.5 417.52,-127.08 419.11,-125.74 420.75,-124.47"/>
<polygon fill="midnightblue" stroke="midnightblue" points="423.03,-127.16 429.41,-118.7 419.15,-121.33 423.03,-127.16"/>
</g>
<!-- Node11 -->
<g id="node11" class="node">
<title>Node11</title>
<g id="a_node11"><a target="_parent" xlink:href="https://doc.qt.io/qt-5/qcommandlineparser.html#optionNames" xlink:title=" ">
<polygon fill="none" stroke="black" points="458,-487.5 458,-517.5 583,-517.5 583,-487.5 458,-487.5"/>
<text text-anchor="start" x="466" y="-505.5" font-family="Helvetica,sans-Serif" font-size="10.00">QCommandLineParser</text>
<text text-anchor="middle" x="520.5" y="-494.5" font-family="Helvetica,sans-Serif" font-size="10.00">::optionNames</text>
</a>
</g>
</g>
<!-- Node6&#45;&gt;Node11 -->
<g id="edge11" class="edge">
<title>Node6&#45;&gt;Node11</title>
<path fill="none" stroke="midnightblue" d="M313.25,-287.75C336.95,-334.33 407.44,-471.95 416,-478.5 425.44,-485.72 436.69,-490.83 448.24,-494.43"/>
<polygon fill="midnightblue" stroke="midnightblue" points="447.4,-497.83 457.97,-497.11 449.26,-491.08 447.4,-497.83"/>
</g>
<!-- Node12 -->
<g id="node12" class="node">
<title>Node12</title>
<g id="a_node12"><a xlink:href="classAbstractCommand.html#ab18bb57fe68534739f63c994330a29c2" target="_top" xlink:title="Returns value as a number of millis, such as milliseconds, or millivolts.">
<polygon fill="none" stroke="black" points="440,-438.5 440,-468.5 601,-468.5 601,-438.5 440,-438.5"/>
<text text-anchor="start" x="448" y="-456.5" font-family="Helvetica,sans-Serif" font-size="10.00">AbstractCommand::parseMilli</text>
<text text-anchor="middle" x="520.5" y="-445.5" font-family="Helvetica,sans-Serif" font-size="10.00">Value</text>
</a>
</g>
</g>
<!-- Node6&#45;&gt;Node12 -->
<g id="edge12" class="edge">
<title>Node6&#45;&gt;Node12</title>
<path fill="none" stroke="midnightblue" d="M312.49,-287.95C327.15,-318.58 364.1,-387.18 416,-423.5 422.06,-427.74 428.72,-431.39 435.64,-434.52"/>
<polygon fill="midnightblue" stroke="midnightblue" points="434.64,-437.89 445.22,-438.49 437.32,-431.43 434.64,-437.89"/>
</g>
<!-- Node18 -->
<g id="node18" class="node">
<title>Node18</title>
<g id="a_node18"><a xlink:href="classAbstractCommand.html#afd6f41cfc925751415cfa45e3b2d0b4a" target="_top" xlink:title="Returns a list of CLI option names required by this command.">
<polygon fill="none" stroke="black" points="661,-335.5 661,-365.5 815,-365.5 815,-335.5 661,-335.5"/>
<text text-anchor="start" x="669" y="-353.5" font-family="Helvetica,sans-Serif" font-size="10.00">AbstractCommand::required</text>
<text text-anchor="middle" x="738" y="-342.5" font-family="Helvetica,sans-Serif" font-size="10.00">Options</text>
</a>
</g>
</g>
<!-- Node6&#45;&gt;Node18 -->
<g id="edge19" class="edge">
<title>Node6&#45;&gt;Node18</title>
<path fill="none" stroke="midnightblue" d="M313.99,-287.76C329.9,-314.56 367.07,-369.29 416,-390.5 501.22,-427.45 533.91,-408.72 625,-390.5 642,-387.1 644.76,-381.55 661,-375.5 666.98,-373.27 673.26,-371.04 679.54,-368.88"/>
<polygon fill="midnightblue" stroke="midnightblue" points="681.03,-372.07 689.37,-365.54 678.78,-365.44 681.03,-372.07"/>
</g>
<!-- Node19 -->
<g id="node19" class="node">
<title>Node19</title>
<g id="a_node19"><a target="_parent" xlink:href="https://doc.qt.io/qt-5/qbluetoothdevicediscoveryagent.html#setLowEnergyDiscoveryTimeout" xlink:title=" ">
<polygon fill="none" stroke="black" points="416,-301.5 416,-331.5 625,-331.5 625,-301.5 416,-301.5"/>
<text text-anchor="start" x="424" y="-319.5" font-family="Helvetica,sans-Serif" font-size="10.00">QBluetoothDeviceDiscovery</text>
<text text-anchor="middle" x="520.5" y="-308.5" font-family="Helvetica,sans-Serif" font-size="10.00">Agent::setLowEnergyDiscoveryTimeout</text>
</a>
</g>
</g>
<!-- Node6&#45;&gt;Node19 -->
<g id="edge20" class="edge">
<title>Node6&#45;&gt;Node19</title>
<path fill="none" stroke="midnightblue" d="M378.55,-287.52C397.21,-291.36 417.41,-295.51 436.53,-299.44"/>
<polygon fill="midnightblue" stroke="midnightblue" points="435.92,-302.89 446.42,-301.47 437.33,-296.03 435.92,-302.89"/>
</g>
<!-- Node20 -->
<g id="node20" class="node">
<title>Node20</title>
<g id="a_node20"><a xlink:href="classAbstractCommand.html#a1ceca3c5b4cb24277dd4d4054f45db18" target="_top" xlink:title="Returns a list of CLI option names supported by this command.">
<polygon fill="none" stroke="black" points="439.5,-350.5 439.5,-380.5 601.5,-380.5 601.5,-350.5 439.5,-350.5"/>
<text text-anchor="start" x="447.5" y="-368.5" font-family="Helvetica,sans-Serif" font-size="10.00">AbstractCommand::supported</text>
<text text-anchor="middle" x="520.5" y="-357.5" font-family="Helvetica,sans-Serif" font-size="10.00">Options</text>
</a>
</g>
</g>
<!-- Node6&#45;&gt;Node20 -->
<g id="edge21" class="edge">
<title>Node6&#45;&gt;Node20</title>
<path fill="none" stroke="midnightblue" d="M325.17,-287.61C346.46,-303.27 381.95,-327.38 416,-341.5 421.11,-343.62 426.45,-345.57 431.88,-347.37"/>
<polygon fill="midnightblue" stroke="midnightblue" points="431.16,-350.81 441.75,-350.43 433.24,-344.12 431.16,-350.81"/>
</g>
<!-- Node21 -->
<g id="node21" class="node">
<title>Node21</title>
<g id="a_node21"><a target="_parent" xlink:href="https://doc.qt.io/qt-5/qstring.html#toLower" xlink:title=" ">
<polygon fill="none" stroke="black" points="471.5,-263 471.5,-282 569.5,-282 569.5,-263 471.5,-263"/>
<text text-anchor="middle" x="520.5" y="-270" font-family="Helvetica,sans-Serif" font-size="10.00">QString::toLower</text>
</a>
</g>
</g>
<!-- Node6&#45;&gt;Node21 -->
<g id="edge23" class="edge">
<title>Node6&#45;&gt;Node21</title>
<path fill="none" stroke="midnightblue" d="M380.05,-272.5C406.66,-272.5 436.23,-272.5 461.26,-272.5"/>
<polygon fill="midnightblue" stroke="midnightblue" points="461.33,-276 471.33,-272.5 461.33,-269 461.33,-276"/>
</g>
<!-- Node6&#45;&gt;Node22 -->
<g id="edge24" class="edge">
<title>Node6&#45;&gt;Node22</title>
<path fill="none" stroke="midnightblue" d="M360.88,-257.5C368.09,-253.59 374.77,-248.67 380,-242.5 427.95,-185.88 362.85,-131.26 416,-79.5 431.59,-64.32 455.03,-58.92 475.66,-57.5"/>
<polygon fill="midnightblue" stroke="midnightblue" points="475.97,-60.99 485.82,-57.09 475.69,-54 475.97,-60.99"/>
</g>
<!-- Node6&#45;&gt;Node23 -->
<g id="edge25" class="edge">
<title>Node6&#45;&gt;Node23</title>
<path fill="none" stroke="midnightblue" d="M328.56,-257.38C345.4,-245.12 367.39,-226.34 380,-204.5 417.31,-139.87 363.79,-93.82 416,-40.5 424.78,-31.54 436.17,-25.57 448.18,-21.64"/>
<polygon fill="midnightblue" stroke="midnightblue" points="449.23,-24.98 457.91,-18.91 447.33,-18.24 449.23,-24.98"/>
</g>
<!-- Node12&#45;&gt;Node5 -->
<g id="edge15" class="edge">
<title>Node12&#45;&gt;Node5</title>
<path fill="none" stroke="midnightblue" d="M601.05,-464.34C609.75,-467.88 617.98,-472.49 625,-478.5 656.8,-505.7 629.31,-538.17 661,-565.5 667.51,-571.12 675.45,-575.12 683.7,-577.96"/>
<polygon fill="midnightblue" stroke="midnightblue" points="682.9,-581.37 693.48,-580.79 684.84,-574.65 682.9,-581.37"/>
</g>
<!-- Node13 -->
<g id="node13" class="node">
<title>Node13</title>
<g id="a_node13"><a target="_parent" xlink:href="https://doc.qt.io/qt-5/qstring.html#chop" xlink:title=" ">
<polygon fill="none" stroke="black" points="697,-461 697,-480 779,-480 779,-461 697,-461"/>
<text text-anchor="middle" x="738" y="-468" font-family="Helvetica,sans-Serif" font-size="10.00">QString::chop</text>
</a>
</g>
</g>
<!-- Node12&#45;&gt;Node13 -->
<g id="edge13" class="edge">
<title>Node12&#45;&gt;Node13</title>
<path fill="none" stroke="midnightblue" d="M601.13,-459.78C629.8,-462.04 661.31,-464.53 686.77,-466.54"/>
<polygon fill="midnightblue" stroke="midnightblue" points="686.68,-470.04 696.92,-467.34 687.23,-463.06 686.68,-470.04"/>
</g>
<!-- Node14 -->
<g id="node14" class="node">
<title>Node14</title>
<g id="a_node14"><a target="_parent" xlink:href="https://doc.qt.io/qt-5/qstring.html#endsWith" xlink:title=" ">
<polygon fill="none" stroke="black" points="686,-423 686,-442 790,-442 790,-423 686,-423"/>
<text text-anchor="middle" x="738" y="-430" font-family="Helvetica,sans-Serif" font-size="10.00">QString::endsWith</text>
</a>
</g>
</g>
<!-- Node12&#45;&gt;Node14 -->
<g id="edge14" class="edge">
<title>Node12&#45;&gt;Node14</title>
<path fill="none" stroke="midnightblue" d="M601.13,-445.74C625.78,-443.34 652.54,-440.73 675.74,-438.47"/>
<polygon fill="midnightblue" stroke="midnightblue" points="676.18,-441.94 685.79,-437.49 675.5,-434.98 676.18,-441.94"/>
</g>
<!-- Node15 -->
<g id="node15" class="node">
<title>Node15</title>
<g id="a_node15"><a target="_parent" xlink:href="https://doc.qt.io/qt-5/qlocale.html#toDouble" xlink:title=" ">
<polygon fill="none" stroke="black" points="685,-385 685,-404 791,-404 791,-385 685,-385"/>
<text text-anchor="middle" x="738" y="-392" font-family="Helvetica,sans-Serif" font-size="10.00">QLocale::toDouble</text>
</a>
</g>
</g>
<!-- Node12&#45;&gt;Node15 -->
<g id="edge16" class="edge">
<title>Node12&#45;&gt;Node15</title>
<path fill="none" stroke="midnightblue" d="M573.46,-438.4C605.83,-429.03 644.39,-417.96 661,-413.5 669.69,-411.17 678.95,-408.78 687.92,-406.51"/>
<polygon fill="midnightblue" stroke="midnightblue" points="689.03,-409.84 697.88,-404.01 687.33,-403.05 689.03,-409.84"/>
</g>
<!-- Node16 -->
<g id="node16" class="node">
<title>Node16</title>
<g id="a_node16"><a target="_parent" xlink:href="https://doc.qt.io/qt-5/qlocale.html#toUInt" xlink:title=" ">
<polygon fill="none" stroke="black" points="692,-537 692,-556 784,-556 784,-537 692,-537"/>
<text text-anchor="middle" x="738" y="-544" font-family="Helvetica,sans-Serif" font-size="10.00">QLocale::toUInt</text>
</a>
</g>
</g>
<!-- Node12&#45;&gt;Node16 -->
<g id="edge17" class="edge">
<title>Node12&#45;&gt;Node16</title>
<path fill="none" stroke="midnightblue" d="M601.08,-466.56C609.53,-469.72 617.69,-473.64 625,-478.5 647.5,-493.47 638.56,-512.44 661,-527.5 667.36,-531.77 674.6,-535.08 682.03,-537.64"/>
<polygon fill="midnightblue" stroke="midnightblue" points="681.25,-541.07 691.83,-540.61 683.27,-534.37 681.25,-541.07"/>
</g>
<!-- Node17 -->
<g id="node17" class="node">
<title>Node17</title>
<g id="a_node17"><a target="_parent" xlink:href="https://doc.qt.io/qt-5/qstring.html#trimmed" xlink:title=" ">
<polygon fill="none" stroke="black" points="687.5,-499 687.5,-518 788.5,-518 788.5,-499 687.5,-499"/>
<text text-anchor="middle" x="738" y="-506" font-family="Helvetica,sans-Serif" font-size="10.00">QString::trimmed</text>
</a>
</g>
</g>
<!-- Node12&#45;&gt;Node17 -->
<g id="edge18" class="edge">
<title>Node12&#45;&gt;Node17</title>
<path fill="none" stroke="midnightblue" d="M586.25,-468.51C599.12,-471.67 612.52,-475.09 625,-478.5 641.14,-482.91 644.88,-485.03 661,-489.5 669.47,-491.85 678.52,-494.23 687.3,-496.47"/>
<polygon fill="midnightblue" stroke="midnightblue" points="686.51,-499.88 697.06,-498.93 688.22,-493.09 686.51,-499.88"/>
</g>
<!-- Node20&#45;&gt;Node18 -->
<g id="edge22" class="edge">
<title>Node20&#45;&gt;Node18</title>
<path fill="none" stroke="midnightblue" d="M601.74,-359.91C617.8,-358.8 634.73,-357.62 650.97,-356.49"/>
<polygon fill="midnightblue" stroke="midnightblue" points="651.24,-359.98 660.98,-355.79 650.76,-352.99 651.24,-359.98"/>
</g>
</g>
</svg>
