<?xml version="1.0" encoding="UTF-8" standalone="no"?>
<!DOCTYPE svg PUBLIC "-//W3C//DTD SVG 1.1//EN"
 "http://www.w3.org/Graphics/SVG/1.1/DTD/svg11.dtd">
<!-- Generated by graphviz version 2.43.0 (0)
 -->
<!-- Title: StatusCommand::processOptions Pages: 1 -->
<svg width="980pt" height="61pt"
 viewBox="0.00 0.00 980.00 61.00" xmlns="http://www.w3.org/2000/svg" xmlns:xlink="http://www.w3.org/1999/xlink">
<g id="graph0" class="graph" transform="scale(1 1) rotate(0) translate(4 57)">
<title>StatusCommand::processOptions</title>
<!-- Node1 -->
<g id="node1" class="node">
<title>Node1</title>
<g id="a_node1"><a xlink:title="Processes the relevant options from the command line parser.">
<polygon fill="#bfbfbf" stroke="black" points="0,-28 0,-47 179,-47 179,-28 0,-28"/>
<text text-anchor="middle" x="89.5" y="-35" font-family="Helvetica,sans-Serif" font-size="10.00">StatusCommand::processOptions</text>
</a>
</g>
</g>
<!-- Node2 -->
<g id="node2" class="node">
<title>Node2</title>
<g id="a_node2"><a xlink:href="classDeviceCommand.html#a429915728a274595d134b3214e605c1b" target="_top" xlink:title="Processes the relevant options from the command line parser.">
<polygon fill="none" stroke="black" points="215,-28 215,-47 397,-47 397,-28 215,-28"/>
<text text-anchor="middle" x="306" y="-35" font-family="Helvetica,sans-Serif" font-size="10.00">DeviceCommand::processOptions</text>
</a>
</g>
</g>
<!-- Node1&#45;&gt;Node2 -->
<g id="edge1" class="edge">
<title>Node1&#45;&gt;Node2</title>
<path fill="none" stroke="midnightblue" d="M179.29,-37.5C187.65,-37.5 196.16,-37.5 204.62,-37.5"/>
<polygon fill="midnightblue" stroke="midnightblue" points="204.89,-41 214.89,-37.5 204.89,-34 204.89,-41"/>
</g>
<!-- Node3 -->
<g id="node3" class="node">
<title>Node3</title>
<g id="a_node3"><a xlink:href="classAbstractCommand.html#ad827a18a24776efeb955739459d48f7d" target="_top" xlink:title="Processes the relevant options from the command line parser.">
<polygon fill="none" stroke="black" points="433,-22.5 433,-52.5 584,-52.5 584,-22.5 433,-22.5"/>
<text text-anchor="start" x="441" y="-40.5" font-family="Helvetica,sans-Serif" font-size="10.00">AbstractCommand::process</text>
<text text-anchor="middle" x="508.5" y="-29.5" font-family="Helvetica,sans-Serif" font-size="10.00">Options</text>
</a>
</g>
</g>
<!-- Node2&#45;&gt;Node3 -->
<g id="edge2" class="edge">
<title>Node2&#45;&gt;Node3</title>
<path fill="none" stroke="midnightblue" d="M397.28,-37.5C405.7,-37.5 414.22,-37.5 422.59,-37.5"/>
<polygon fill="midnightblue" stroke="midnightblue" points="422.72,-41 432.72,-37.5 422.72,-34 422.72,-41"/>
</g>
<!-- Node4 -->
<g id="node4" class="node">
<title>Node4</title>
<g id="a_node4"><a xlink:href="classAbstractCommand.html#aec006493cf0a4ba88c092c597bf247b8" target="_top" xlink:title="Returns a list of CLI option names required by this command.">
<polygon fill="none" stroke="black" points="818,-22.5 818,-52.5 972,-52.5 972,-22.5 818,-22.5"/>
<text text-anchor="start" x="826" y="-40.5" font-family="Helvetica,sans-Serif" font-size="10.00">AbstractCommand::required</text>
<text text-anchor="middle" x="895" y="-29.5" font-family="Helvetica,sans-Serif" font-size="10.00">Options</text>
</a>
</g>
</g>
<!-- Node3&#45;&gt;Node4 -->
<g id="edge3" class="edge">
<title>Node3&#45;&gt;Node4</title>
<path fill="none" stroke="midnightblue" d="M584.09,-39.8C596.1,-40.09 608.39,-40.34 620,-40.5 691.99,-41.48 710.01,-41.46 782,-40.5 790.32,-40.39 798.98,-40.23 807.65,-40.04"/>
<polygon fill="midnightblue" stroke="midnightblue" points="807.87,-43.54 817.79,-39.82 807.72,-36.54 807.87,-43.54"/>
</g>
<!-- Node5 -->
<g id="node5" class="node">
<title>Node5</title>
<g id="a_node5"><a xlink:href="classAbstractCommand.html#a002fc48054b9df13bbb2e0bdc488c6d3" target="_top" xlink:title="Returns a list of CLI option names supported by this command.">
<polygon fill="none" stroke="black" points="620,-0.5 620,-30.5 782,-30.5 782,-0.5 620,-0.5"/>
<text text-anchor="start" x="628" y="-18.5" font-family="Helvetica,sans-Serif" font-size="10.00">AbstractCommand::supported</text>
<text text-anchor="middle" x="701" y="-7.5" font-family="Helvetica,sans-Serif" font-size="10.00">Options</text>
</a>
</g>
</g>
<!-- Node3&#45;&gt;Node5 -->
<g id="edge4" class="edge">
<title>Node3&#45;&gt;Node5</title>
<path fill="none" stroke="midnightblue" d="M584.24,-28.87C592.64,-27.9 601.25,-26.9 609.81,-25.92"/>
<polygon fill="midnightblue" stroke="midnightblue" points="610.28,-29.38 619.81,-24.76 609.48,-22.43 610.28,-29.38"/>
</g>
<!-- Node5&#45;&gt;Node4 -->
<g id="edge5" class="edge">
<title>Node5&#45;&gt;Node4</title>
<path fill="none" stroke="midnightblue" d="M782.03,-24.67C790.54,-25.65 799.22,-26.64 807.79,-27.62"/>
<polygon fill="midnightblue" stroke="midnightblue" points="807.45,-31.11 817.79,-28.77 808.25,-24.15 807.45,-31.11"/>
</g>
</g>
</svg>
