<?xml version="1.0" encoding="UTF-8" standalone="no"?>
<!DOCTYPE svg PUBLIC "-//W3C//DTD SVG 1.1//EN"
 "http://www.w3.org/Graphics/SVG/1.1/DTD/svg11.dtd">
<!-- Generated by graphviz version 2.43.0 (0)
 -->
<!-- Title: CalibrateCommand::serviceDetailsDiscovered Pages: 1 -->
<svg width="689pt" height="226pt"
 viewBox="0.00 0.00 689.00 225.50" xmlns="http://www.w3.org/2000/svg" xmlns:xlink="http://www.w3.org/1999/xlink">
<g id="graph0" class="graph" transform="scale(1 1) rotate(0) translate(4 221.5)">
<title>CalibrateCommand::serviceDetailsDiscovered</title>
<!-- Node1 -->
<g id="node1" class="node">
<title>Node1</title>
<g id="a_node1"><a xlink:title="Handles service detail discovery events.">
<polygon fill="#999999" stroke="#666666" points="152,-111 0,-111 0,-81 152,-81 152,-111"/>
<text text-anchor="start" x="8" y="-99" font-family="Helvetica,sans-Serif" font-size="10.00">CalibrateCommand::service</text>
<text text-anchor="middle" x="76" y="-88" font-family="Helvetica,sans-Serif" font-size="10.00">DetailsDiscovered</text>
</a>
</g>
</g>
<!-- Node2 -->
<g id="node2" class="node">
<title>Node2</title>
<g id="a_node2"><a target="_parent" xlink:href="https://doc.qt.io/qt-5/qstring.html#arg-1" xlink:title=" ">
<polygon fill="white" stroke="#666666" points="509.5,-217.5 435.5,-217.5 435.5,-198.5 509.5,-198.5 509.5,-217.5"/>
<text text-anchor="middle" x="472.5" y="-205.5" font-family="Helvetica,sans-Serif" font-size="10.00">QString::arg</text>
</a>
</g>
</g>
<!-- Node1&#45;&gt;Node2 -->
<g id="edge1" class="edge">
<title>Node1&#45;&gt;Node2</title>
<path fill="none" stroke="#63b8ff" d="M96.66,-111.12C117.96,-126.69 153.54,-150.41 188,-163 269.2,-192.66 370.53,-202.79 427.42,-206.23"/>
<polygon fill="#63b8ff" stroke="#63b8ff" points="435.49,-206.69 427.29,-209.83 431.49,-206.47 427.5,-206.24 427.5,-206.24 427.5,-206.24 431.49,-206.47 427.7,-202.64 435.49,-206.69 435.49,-206.69"/>
</g>
<!-- Node3 -->
<g id="node3" class="node">
<title>Node3</title>
<g id="a_node3"><a xlink:href="classCalibrationService.html#a301f5b733cacbebbf24459639f04af52" target="_top" xlink:title="Set&#39;s the Pokit device&#39;s name to name.">
<polygon fill="white" stroke="#666666" points="339.5,-154 212.5,-154 212.5,-124 339.5,-124 339.5,-154"/>
<text text-anchor="start" x="220.5" y="-142" font-family="Helvetica,sans-Serif" font-size="10.00">CalibrationService</text>
<text text-anchor="middle" x="276" y="-131" font-family="Helvetica,sans-Serif" font-size="10.00">::calibrateTemperature</text>
</a>
</g>
</g>
<!-- Node1&#45;&gt;Node3 -->
<g id="edge2" class="edge">
<title>Node1&#45;&gt;Node3</title>
<path fill="none" stroke="#63b8ff" d="M146.25,-111.04C165.08,-115.13 185.5,-119.56 204.41,-123.67"/>
<polygon fill="#63b8ff" stroke="#63b8ff" points="212.41,-125.41 203.82,-127.23 208.5,-124.56 204.59,-123.71 204.59,-123.71 204.59,-123.71 208.5,-124.56 205.35,-120.19 212.41,-125.41 212.41,-125.41"/>
</g>
<!-- Node8 -->
<g id="node8" class="node">
<title>Node8</title>
<g id="a_node8"><a target="_parent" xlink:href="https://doc.qt.io/qt-5/qobject.html#tr" xlink:title=" ">
<polygon fill="white" stroke="#666666" points="507,-46.5 438,-46.5 438,-27.5 507,-27.5 507,-46.5"/>
<text text-anchor="middle" x="472.5" y="-34.5" font-family="Helvetica,sans-Serif" font-size="10.00">QObject::tr</text>
</a>
</g>
</g>
<!-- Node1&#45;&gt;Node8 -->
<g id="edge12" class="edge">
<title>Node1&#45;&gt;Node8</title>
<path fill="none" stroke="#63b8ff" d="M152.13,-99.99C211.05,-100.94 294.43,-97.43 364,-76 381.7,-70.55 382.85,-62 400,-55 409.45,-51.15 419.94,-47.95 429.91,-45.37"/>
<polygon fill="#63b8ff" stroke="#63b8ff" points="437.77,-43.43 430.86,-48.84 433.89,-44.39 430,-45.35 430,-45.35 430,-45.35 433.89,-44.39 429.14,-41.85 437.77,-43.43 437.77,-43.43"/>
</g>
<!-- Node9 -->
<g id="node9" class="node">
<title>Node9</title>
<g id="a_node9"><a target="_parent" xlink:href="https://doc.qt.io/qt-5/qcoreapplication.html#exit" xlink:title=" ">
<polygon fill="white" stroke="#666666" points="339,-67.5 213,-67.5 213,-48.5 339,-48.5 339,-67.5"/>
<text text-anchor="middle" x="276" y="-55.5" font-family="Helvetica,sans-Serif" font-size="10.00">QCoreApplication::exit</text>
</a>
</g>
</g>
<!-- Node1&#45;&gt;Node9 -->
<g id="edge9" class="edge">
<title>Node1&#45;&gt;Node9</title>
<path fill="none" stroke="#63b8ff" d="M152.14,-81.58C173.77,-77.43 197.02,-72.97 217.41,-69.05"/>
<polygon fill="#63b8ff" stroke="#63b8ff" points="225.37,-67.52 218.19,-72.57 221.44,-68.28 217.51,-69.03 217.51,-69.03 217.51,-69.03 221.44,-68.28 216.84,-65.5 225.37,-67.52 225.37,-67.52"/>
</g>
<!-- Node10 -->
<g id="node10" class="node">
<title>Node10</title>
<g id="a_node10"><a xlink:href="classDeviceCommand.html#a906fd97d832be0e8d2ba1c917fba41db" target="_top" xlink:title="Handles service detail discovery events.">
<polygon fill="white" stroke="#666666" points="364,-30 188,-30 188,0 364,0 364,-30"/>
<text text-anchor="start" x="196" y="-18" font-family="Helvetica,sans-Serif" font-size="10.00">DeviceCommand::serviceDetails</text>
<text text-anchor="middle" x="276" y="-7" font-family="Helvetica,sans-Serif" font-size="10.00">Discovered</text>
</a>
</g>
</g>
<!-- Node1&#45;&gt;Node10 -->
<g id="edge10" class="edge">
<title>Node1&#45;&gt;Node10</title>
<path fill="none" stroke="#63b8ff" d="M102.76,-80.85C124.82,-68.35 157.73,-50.8 188,-39 193.85,-36.72 200,-34.56 206.22,-32.55"/>
<polygon fill="#63b8ff" stroke="#63b8ff" points="214.1,-30.08 207.55,-35.91 210.29,-31.28 206.47,-32.47 206.47,-32.47 206.47,-32.47 210.29,-31.28 205.39,-29.04 214.1,-30.08 214.1,-30.08"/>
</g>
<!-- Node3&#45;&gt;Node2 -->
<g id="edge3" class="edge">
<title>Node3&#45;&gt;Node2</title>
<path fill="none" stroke="#63b8ff" d="M323.09,-154.04C336.44,-158.76 350.93,-164.26 364,-170 380.56,-177.28 383.15,-182.41 400,-189 408.7,-192.4 418.22,-195.4 427.4,-197.96"/>
<polygon fill="#63b8ff" stroke="#63b8ff" points="435.35,-200.09 426.69,-201.49 431.49,-199.05 427.62,-198.02 427.62,-198.02 427.62,-198.02 431.49,-199.05 428.55,-194.54 435.35,-200.09 435.35,-200.09"/>
</g>
<!-- Node4 -->
<g id="node4" class="node">
<title>Node4</title>
<g id="a_node4"><a xlink:href="classCalibrationServicePrivate.html#a0da3f9cbe7dfb8a1d8e1cb94845702bc" target="_top" xlink:title="Returns value in a format Pokit devices expect.">
<polygon fill="white" stroke="#666666" points="542.5,-180 402.5,-180 402.5,-150 542.5,-150 542.5,-180"/>
<text text-anchor="start" x="410.5" y="-168" font-family="Helvetica,sans-Serif" font-size="10.00">CalibrationServicePrivate</text>
<text text-anchor="middle" x="472.5" y="-157" font-family="Helvetica,sans-Serif" font-size="10.00">::encodeTemperature</text>
</a>
</g>
</g>
<!-- Node3&#45;&gt;Node4 -->
<g id="edge4" class="edge">
<title>Node3&#45;&gt;Node4</title>
<path fill="none" stroke="#63b8ff" d="M339.61,-147.37C356.95,-149.69 375.97,-152.23 394.04,-154.65"/>
<polygon fill="#63b8ff" stroke="#63b8ff" points="402.27,-155.75 393.86,-158.25 398.3,-155.22 394.34,-154.69 394.34,-154.69 394.34,-154.69 398.3,-155.22 394.82,-151.12 402.27,-155.75 402.27,-155.75"/>
</g>
<!-- Node6 -->
<g id="node6" class="node">
<title>Node6</title>
<g id="a_node6"><a target="_parent" xlink:href="https://doc.qt.io/qt-5/qlowenergycharacteristic.html#isValid" xlink:title=" ">
<polygon fill="white" stroke="#666666" points="545,-132 400,-132 400,-102 545,-102 545,-132"/>
<text text-anchor="start" x="408" y="-120" font-family="Helvetica,sans-Serif" font-size="10.00">QLowEnergyCharacteristic</text>
<text text-anchor="middle" x="472.5" y="-109" font-family="Helvetica,sans-Serif" font-size="10.00">::isValid</text>
</a>
</g>
</g>
<!-- Node3&#45;&gt;Node6 -->
<g id="edge6" class="edge">
<title>Node3&#45;&gt;Node6</title>
<path fill="none" stroke="#63b8ff" d="M339.61,-131.92C356.12,-130.05 374.16,-128.01 391.46,-126.05"/>
<polygon fill="#63b8ff" stroke="#63b8ff" points="399.88,-125.1 392.33,-129.58 395.9,-125.55 391.93,-126 391.93,-126 391.93,-126 395.9,-125.55 391.52,-122.42 399.88,-125.1 399.88,-125.1"/>
</g>
<!-- Node7 -->
<g id="node7" class="node">
<title>Node7</title>
<g id="a_node7"><a target="_parent" xlink:href="https://doc.qt.io/qt-5/qbytearray.html#toHex" xlink:title=" ">
<polygon fill="white" stroke="#666666" points="526,-83.5 419,-83.5 419,-64.5 526,-64.5 526,-83.5"/>
<text text-anchor="middle" x="472.5" y="-71.5" font-family="Helvetica,sans-Serif" font-size="10.00">QByteArray::toHex</text>
</a>
</g>
</g>
<!-- Node3&#45;&gt;Node7 -->
<g id="edge7" class="edge">
<title>Node3&#45;&gt;Node7</title>
<path fill="none" stroke="#63b8ff" d="M325.69,-123.91C338.28,-119.7 351.74,-114.92 364,-110 380.42,-103.41 383.38,-99.07 400,-93 407.09,-90.41 414.69,-88.01 422.19,-85.84"/>
<polygon fill="#63b8ff" stroke="#63b8ff" points="430.27,-83.59 423.53,-89.21 426.41,-84.67 422.56,-85.74 422.56,-85.74 422.56,-85.74 426.41,-84.67 421.59,-82.27 430.27,-83.59 430.27,-83.59"/>
</g>
<!-- Node3&#45;&gt;Node8 -->
<g id="edge8" class="edge">
<title>Node3&#45;&gt;Node8</title>
<path fill="none" stroke="#63b8ff" d="M339.5,-123.91C348.22,-120.21 356.69,-115.64 364,-110 387.14,-92.17 376.2,-71.95 400,-55 408.72,-48.79 419.38,-44.71 429.78,-42.04"/>
<polygon fill="#63b8ff" stroke="#63b8ff" points="437.64,-40.26 430.64,-45.54 433.74,-41.14 429.84,-42.03 429.84,-42.03 429.84,-42.03 433.74,-41.14 429.05,-38.52 437.64,-40.26 437.64,-40.26"/>
</g>
<!-- Node5 -->
<g id="node5" class="node">
<title>Node5</title>
<g id="a_node5"><a target="_parent" xlink:href="https://doc.qt.io/qt-5/qbytearray.html#data" xlink:title=" ">
<polygon fill="white" stroke="#666666" points="681,-174.5 581,-174.5 581,-155.5 681,-155.5 681,-174.5"/>
<text text-anchor="middle" x="631" y="-162.5" font-family="Helvetica,sans-Serif" font-size="10.00">QByteArray::data</text>
</a>
</g>
</g>
<!-- Node4&#45;&gt;Node5 -->
<g id="edge5" class="edge">
<title>Node4&#45;&gt;Node5</title>
<path fill="none" stroke="#63b8ff" d="M542.6,-165C552.71,-165 563.02,-165 572.85,-165"/>
<polygon fill="#63b8ff" stroke="#63b8ff" points="580.99,-165 572.99,-168.6 576.99,-165 572.99,-165 572.99,-165 572.99,-165 576.99,-165 572.99,-161.4 580.99,-165 580.99,-165"/>
</g>
<!-- Node10&#45;&gt;Node8 -->
<g id="edge11" class="edge">
<title>Node10&#45;&gt;Node8</title>
<path fill="none" stroke="#63b8ff" d="M364.01,-24.84C386.84,-27.42 410.44,-30.09 429.68,-32.27"/>
<polygon fill="#63b8ff" stroke="#63b8ff" points="437.65,-33.17 429.3,-35.85 433.68,-32.72 429.7,-32.27 429.7,-32.27 429.7,-32.27 433.68,-32.72 430.11,-28.69 437.65,-33.17 437.65,-33.17"/>
</g>
</g>
</svg>
