<?xml version="1.0" encoding="UTF-8" standalone="no"?>
<!DOCTYPE svg PUBLIC "-//W3C//DTD SVG 1.1//EN"
 "http://www.w3.org/Graphics/SVG/1.1/DTD/svg11.dtd">
<!-- Generated by graphviz version 2.43.0 (0)
 -->
<!-- Title: DsoService::enableReadingNotifications Pages: 1 -->
<svg width="540pt" height="38pt"
 viewBox="0.00 0.00 540.00 38.00" xmlns="http://www.w3.org/2000/svg" xmlns:xlink="http://www.w3.org/1999/xlink">
<g id="graph0" class="graph" transform="scale(1 1) rotate(0) translate(4 34)">
<title>DsoService::enableReadingNotifications</title>
<!-- Node1 -->
<g id="node1" class="node">
<title>Node1</title>
<g id="a_node1"><a xlink:title="Enables client&#45;side notifications of DSO readings.">
<polygon fill="#999999" stroke="#666666" points="532,-30 382,-30 382,0 532,0 532,-30"/>
<text text-anchor="start" x="390" y="-18" font-family="Helvetica,sans-Serif" font-size="10.00">DsoService::enableReading</text>
<text text-anchor="middle" x="457" y="-7" font-family="Helvetica,sans-Serif" font-size="10.00">Notifications</text>
</a>
</g>
</g>
<!-- Node2 -->
<g id="node2" class="node">
<title>Node2</title>
<g id="a_node2"><a xlink:href="classDsoCommand.html#a96c56e497f56ab5ed43201ad13aede7b" target="_top" xlink:title="Invoked when the DSO settings have been written.">
<polygon fill="white" stroke="#666666" points="346,-24.5 179,-24.5 179,-5.5 346,-5.5 346,-24.5"/>
<text text-anchor="middle" x="262.5" y="-12.5" font-family="Helvetica,sans-Serif" font-size="10.00">DsoCommand::settingsWritten</text>
</a>
</g>
</g>
<!-- Node1&#45;&gt;Node2 -->
<g id="edge1" class="edge">
<title>Node1&#45;&gt;Node2</title>
<path fill="none" stroke="#63b8ff" d="M371.65,-15C363.22,-15 354.67,-15 346.26,-15"/>
<polygon fill="#63b8ff" stroke="#63b8ff" points="371.85,-18.5 381.85,-15 371.85,-11.5 371.85,-18.5"/>
</g>
<!-- Node3 -->
<g id="node3" class="node">
<title>Node3</title>
<g id="a_node3"><a xlink:href="classDsoCommand.html#abdc2af86181151e0c64c655ed265fbe8" target="_top" xlink:title="Returns a Pokit service object for the derived command class.">
<polygon fill="white" stroke="#666666" points="143,-24.5 0,-24.5 0,-5.5 143,-5.5 143,-24.5"/>
<text text-anchor="middle" x="71.5" y="-12.5" font-family="Helvetica,sans-Serif" font-size="10.00">DsoCommand::getService</text>
</a>
</g>
</g>
<!-- Node2&#45;&gt;Node3 -->
<g id="edge2" class="edge">
<title>Node2&#45;&gt;Node3</title>
<path fill="none" stroke="#63b8ff" d="M168.78,-15C160.15,-15 151.5,-15 143.12,-15"/>
<polygon fill="#63b8ff" stroke="#63b8ff" points="168.88,-18.5 178.88,-15 168.88,-11.5 168.88,-18.5"/>
</g>
</g>
</svg>
