<?xml version="1.0" encoding="UTF-8" standalone="no"?>
<!DOCTYPE svg PUBLIC "-//W3C//DTD SVG 1.1//EN"
 "http://www.w3.org/Graphics/SVG/1.1/DTD/svg11.dtd">
<!-- Generated by graphviz version 2.43.0 (0)
 -->
<!-- Title: StatusServicePrivate::parseStatus Pages: 1 -->
<svg width="469pt" height="61pt"
 viewBox="0.00 0.00 469.00 61.00" xmlns="http://www.w3.org/2000/svg" xmlns:xlink="http://www.w3.org/1999/xlink">
<g id="graph0" class="graph" transform="scale(1 1) rotate(0) translate(4 57)">
<title>StatusServicePrivate::parseStatus</title>
<!-- Node1 -->
<g id="node1" class="node">
<title>Node1</title>
<g id="a_node1"><a xlink:title="Parses the Status value into a DeviceStatus and battery voltage.">
<polygon fill="#bfbfbf" stroke="black" points="0,-0.5 0,-30.5 118,-30.5 118,-0.5 0,-0.5"/>
<text text-anchor="start" x="8" y="-18.5" font-family="Helvetica,sans-Serif" font-size="10.00">StatusServicePrivate</text>
<text text-anchor="middle" x="59" y="-7.5" font-family="Helvetica,sans-Serif" font-size="10.00">::parseStatus</text>
</a>
</g>
</g>
<!-- Node2 -->
<g id="node2" class="node">
<title>Node2</title>
<g id="a_node2"><a xlink:href="classStatusService.html#adddc5b563c16a8ad199f6a07966d372c" target="_top" xlink:title="Returns a string version of the status enum label.">
<polygon fill="none" stroke="black" points="154,-22.5 154,-52.5 306,-52.5 306,-22.5 154,-22.5"/>
<text text-anchor="start" x="162" y="-40.5" font-family="Helvetica,sans-Serif" font-size="10.00">StatusService::deviceStatus</text>
<text text-anchor="middle" x="230" y="-29.5" font-family="Helvetica,sans-Serif" font-size="10.00">Label</text>
</a>
</g>
</g>
<!-- Node1&#45;&gt;Node2 -->
<g id="edge1" class="edge">
<title>Node1&#45;&gt;Node2</title>
<path fill="none" stroke="midnightblue" d="M118.16,-23.07C126.4,-24.14 135,-25.26 143.62,-26.39"/>
<polygon fill="midnightblue" stroke="midnightblue" points="143.35,-29.88 153.72,-27.7 144.26,-22.94 143.35,-29.88"/>
</g>
<!-- Node3 -->
<g id="node3" class="node">
<title>Node3</title>
<g id="a_node3"><a xlink:href="classStatusService.html#ae7be4aae021ae50faef48ed2812eb6a7" target="_top" xlink:title="Returns the most recent value of the Status service&#39;s Status characteristic.">
<polygon fill="none" stroke="black" points="342,-6 342,-25 461,-25 461,-6 342,-6"/>
<text text-anchor="middle" x="401.5" y="-13" font-family="Helvetica,sans-Serif" font-size="10.00">StatusService::status</text>
</a>
</g>
</g>
<!-- Node2&#45;&gt;Node3 -->
<g id="edge2" class="edge">
<title>Node2&#45;&gt;Node3</title>
<path fill="none" stroke="midnightblue" d="M306.33,-27.72C314.82,-26.62 323.43,-25.5 331.83,-24.41"/>
<polygon fill="midnightblue" stroke="midnightblue" points="332.47,-27.86 341.94,-23.1 331.57,-20.92 332.47,-27.86"/>
</g>
<!-- Node3&#45;&gt;Node1 -->
<g id="edge3" class="edge">
<title>Node3&#45;&gt;Node1</title>
<path fill="none" stroke="midnightblue" d="M341.78,-14.06C329.93,-13.83 317.57,-13.62 306,-13.5 238.45,-12.79 221.55,-12.78 154,-13.5 145.67,-13.59 136.93,-13.72 128.26,-13.88"/>
<polygon fill="midnightblue" stroke="midnightblue" points="128.09,-10.38 118.16,-14.07 128.23,-17.38 128.09,-10.38"/>
</g>
</g>
</svg>
