<?xml version="1.0" encoding="UTF-8" standalone="no"?>
<!DOCTYPE svg PUBLIC "-//W3C//DTD SVG 1.1//EN"
 "http://www.w3.org/Graphics/SVG/1.1/DTD/svg11.dtd">
<!-- Generated by graphviz version 2.43.0 (0)
 -->
<!-- Title: DsoCommand::metadataRead Pages: 1 -->
<svg width="429pt" height="27pt"
 viewBox="0.00 0.00 429.00 27.00" xmlns="http://www.w3.org/2000/svg" xmlns:xlink="http://www.w3.org/1999/xlink">
<g id="graph0" class="graph" transform="scale(1 1) rotate(0) translate(4 23)">
<title>DsoCommand::metadataRead</title>
<!-- Node1 -->
<g id="node1" class="node">
<title>Node1</title>
<g id="a_node1"><a xlink:title="Invoked when metadata has been received from the DSO.">
<polygon fill="#999999" stroke="#666666" points="164,-19 0,-19 0,0 164,0 164,-19"/>
<text text-anchor="middle" x="82" y="-7" font-family="Helvetica,sans-Serif" font-size="10.00">DsoCommand::metadataRead</text>
</a>
</g>
</g>
<!-- Node2 -->
<g id="node2" class="node">
<title>Node2</title>
<g id="a_node2"><a xlink:href="classDsoService.html#acc76b93255cf3c5110d90c0df3318afe" target="_top" xlink:title="Returns mode as a user&#45;friendly string.">
<polygon fill="white" stroke="#666666" points="316,-19 200,-19 200,0 316,0 316,-19"/>
<text text-anchor="middle" x="258" y="-7" font-family="Helvetica,sans-Serif" font-size="10.00">DsoService::toString</text>
</a>
</g>
</g>
<!-- Node1&#45;&gt;Node2 -->
<g id="edge1" class="edge">
<title>Node1&#45;&gt;Node2</title>
<path fill="none" stroke="#63b8ff" d="M164.14,-9.5C173.37,-9.5 182.68,-9.5 191.66,-9.5"/>
<polygon fill="#63b8ff" stroke="#63b8ff" points="199.81,-9.5 191.81,-13.1 195.81,-9.5 191.81,-9.5 191.81,-9.5 191.81,-9.5 195.81,-9.5 191.81,-5.9 199.81,-9.5 199.81,-9.5"/>
</g>
<!-- Node3 -->
<g id="node3" class="node">
<title>Node3</title>
<g id="a_node3"><a target="_parent" xlink:href="https://doc.qt.io/qt-5/qobject.html#tr" xlink:title=" ">
<polygon fill="white" stroke="#666666" points="421,-19 352,-19 352,0 421,0 421,-19"/>
<text text-anchor="middle" x="386.5" y="-7" font-family="Helvetica,sans-Serif" font-size="10.00">QObject::tr</text>
</a>
</g>
</g>
<!-- Node2&#45;&gt;Node3 -->
<g id="edge2" class="edge">
<title>Node2&#45;&gt;Node3</title>
<path fill="none" stroke="#63b8ff" d="M316.33,-9.5C325.54,-9.5 334.93,-9.5 343.69,-9.5"/>
<polygon fill="#63b8ff" stroke="#63b8ff" points="351.87,-9.5 343.87,-13.1 347.87,-9.5 343.87,-9.5 343.87,-9.5 343.87,-9.5 347.87,-9.5 343.87,-5.9 351.87,-9.5 351.87,-9.5"/>
</g>
</g>
</svg>
