<?xml version="1.0" encoding="UTF-8" standalone="no"?>
<!DOCTYPE svg PUBLIC "-//W3C//DTD SVG 1.1//EN"
 "http://www.w3.org/Graphics/SVG/1.1/DTD/svg11.dtd">
<!-- Generated by graphviz version 2.43.0 (0)
 -->
<!-- Title: DeviceCommand::processOptions Pages: 1 -->
<svg width="765pt" height="61pt"
 viewBox="0.00 0.00 765.00 61.00" xmlns="http://www.w3.org/2000/svg" xmlns:xlink="http://www.w3.org/1999/xlink">
<g id="graph0" class="graph" transform="scale(1 1) rotate(0) translate(4 57)">
<title>DeviceCommand::processOptions</title>
<!-- Node1 -->
<g id="node1" class="node">
<title>Node1</title>
<g id="a_node1"><a xlink:title="Processes the relevant options from the command line parser.">
<polygon fill="#bfbfbf" stroke="black" points="0,-28 0,-47 182,-47 182,-28 0,-28"/>
<text text-anchor="middle" x="91" y="-35" font-family="Helvetica,sans-Serif" font-size="10.00">DeviceCommand::processOptions</text>
</a>
</g>
</g>
<!-- Node2 -->
<g id="node2" class="node">
<title>Node2</title>
<g id="a_node2"><a xlink:href="classAbstractCommand.html#ad827a18a24776efeb955739459d48f7d" target="_top" xlink:title="Processes the relevant options from the command line parser.">
<polygon fill="none" stroke="black" points="218,-22.5 218,-52.5 369,-52.5 369,-22.5 218,-22.5"/>
<text text-anchor="start" x="226" y="-40.5" font-family="Helvetica,sans-Serif" font-size="10.00">AbstractCommand::process</text>
<text text-anchor="middle" x="293.5" y="-29.5" font-family="Helvetica,sans-Serif" font-size="10.00">Options</text>
</a>
</g>
</g>
<!-- Node1&#45;&gt;Node2 -->
<g id="edge1" class="edge">
<title>Node1&#45;&gt;Node2</title>
<path fill="none" stroke="midnightblue" d="M182.28,-37.5C190.7,-37.5 199.22,-37.5 207.59,-37.5"/>
<polygon fill="midnightblue" stroke="midnightblue" points="207.72,-41 217.72,-37.5 207.72,-34 207.72,-41"/>
</g>
<!-- Node3 -->
<g id="node3" class="node">
<title>Node3</title>
<g id="a_node3"><a xlink:href="classAbstractCommand.html#aec006493cf0a4ba88c092c597bf247b8" target="_top" xlink:title="Returns a list of CLI option names required by this command.">
<polygon fill="none" stroke="black" points="603,-22.5 603,-52.5 757,-52.5 757,-22.5 603,-22.5"/>
<text text-anchor="start" x="611" y="-40.5" font-family="Helvetica,sans-Serif" font-size="10.00">AbstractCommand::required</text>
<text text-anchor="middle" x="680" y="-29.5" font-family="Helvetica,sans-Serif" font-size="10.00">Options</text>
</a>
</g>
</g>
<!-- Node2&#45;&gt;Node3 -->
<g id="edge2" class="edge">
<title>Node2&#45;&gt;Node3</title>
<path fill="none" stroke="midnightblue" d="M369.09,-39.8C381.1,-40.09 393.39,-40.34 405,-40.5 476.99,-41.48 495.01,-41.46 567,-40.5 575.32,-40.39 583.98,-40.23 592.65,-40.04"/>
<polygon fill="midnightblue" stroke="midnightblue" points="592.87,-43.54 602.79,-39.82 592.72,-36.54 592.87,-43.54"/>
</g>
<!-- Node4 -->
<g id="node4" class="node">
<title>Node4</title>
<g id="a_node4"><a xlink:href="classAbstractCommand.html#a002fc48054b9df13bbb2e0bdc488c6d3" target="_top" xlink:title="Returns a list of CLI option names supported by this command.">
<polygon fill="none" stroke="black" points="405,-0.5 405,-30.5 567,-30.5 567,-0.5 405,-0.5"/>
<text text-anchor="start" x="413" y="-18.5" font-family="Helvetica,sans-Serif" font-size="10.00">AbstractCommand::supported</text>
<text text-anchor="middle" x="486" y="-7.5" font-family="Helvetica,sans-Serif" font-size="10.00">Options</text>
</a>
</g>
</g>
<!-- Node2&#45;&gt;Node4 -->
<g id="edge3" class="edge">
<title>Node2&#45;&gt;Node4</title>
<path fill="none" stroke="midnightblue" d="M369.24,-28.87C377.64,-27.9 386.25,-26.9 394.81,-25.92"/>
<polygon fill="midnightblue" stroke="midnightblue" points="395.28,-29.38 404.81,-24.76 394.48,-22.43 395.28,-29.38"/>
</g>
<!-- Node4&#45;&gt;Node3 -->
<g id="edge4" class="edge">
<title>Node4&#45;&gt;Node3</title>
<path fill="none" stroke="midnightblue" d="M567.03,-24.67C575.54,-25.65 584.22,-26.64 592.79,-27.62"/>
<polygon fill="midnightblue" stroke="midnightblue" points="592.45,-31.11 602.79,-28.77 593.25,-24.15 592.45,-31.11"/>
</g>
</g>
</svg>
