<?xml version="1.0" encoding="UTF-8" standalone="no"?>
<!DOCTYPE svg PUBLIC "-//W3C//DTD SVG 1.1//EN"
 "http://www.w3.org/Graphics/SVG/1.1/DTD/svg11.dtd">
<!-- Generated by graphviz version 2.43.0 (0)
 -->
<!-- Title: LoggerFetchCommand::getService Pages: 1 -->
<svg width="628pt" height="650pt"
 viewBox="0.00 0.00 628.00 649.64" xmlns="http://www.w3.org/2000/svg" xmlns:xlink="http://www.w3.org/1999/xlink">
<g id="graph0" class="graph" transform="scale(1 1) rotate(0) translate(4 645.64)">
<title>LoggerFetchCommand::getService</title>
<!-- Node1 -->
<g id="Node000001" class="node">
<title>Node1</title>
<g id="a_Node000001"><a xlink:title="Returns a Pokit service object for the derived command class.">
<polygon fill="#999999" stroke="#666666" points="126,-555.64 0,-555.64 0,-525.64 126,-525.64 126,-555.64"/>
<text text-anchor="start" x="8" y="-543.64" font-family="Helvetica,sans-Serif" font-size="10.00">LoggerFetchCommand</text>
<text text-anchor="middle" x="63" y="-532.64" font-family="Helvetica,sans-Serif" font-size="10.00">::getService</text>
</a>
</g>
</g>
<!-- Node2 -->
<g id="Node000002" class="node">
<title>Node2</title>
<g id="a_Node000002"><a target="_parent" xlink:href="https://doc.qt.io/qt-5/qobject.html#connect" xlink:title=" ">
<polygon fill="white" stroke="#666666" points="275,-641.14 175,-641.14 175,-622.14 275,-622.14 275,-641.14"/>
<text text-anchor="middle" x="225" y="-629.14" font-family="Helvetica,sans-Serif" font-size="10.00">QObject::connect</text>
</a>
</g>
</g>
<!-- Node1&#45;&gt;Node2 -->
<g id="edge1_Node000001_Node000002" class="edge">
<title>Node1&#45;&gt;Node2</title>
<g id="a_edge1_Node000001_Node000002"><a xlink:title=" ">
<path fill="none" stroke="#63b8ff" d="M80.89,-555.83C99.54,-571.92 131.06,-597.1 162,-612.64 166.93,-615.12 172.25,-617.35 177.63,-619.32"/>
<polygon fill="#63b8ff" stroke="#63b8ff" points="185.51,-622.05 176.77,-622.84 181.73,-620.74 177.95,-619.43 177.95,-619.43 177.95,-619.43 181.73,-620.74 179.12,-616.03 185.51,-622.05 185.51,-622.05"/>
</a>
</g>
</g>
<!-- Node3 -->
<g id="Node000003" class="node">
<title>Node3</title>
<g id="a_Node000003"><a xlink:href="classDataLoggerService.html#a637460cb26b0d448760544ecba6de468" target="_top" xlink:title="This signal is emitted when the Metadata characteristic has been read successfully.">
<polygon fill="white" stroke="#666666" points="282.5,-603.64 167.5,-603.64 167.5,-573.64 282.5,-573.64 282.5,-603.64"/>
<text text-anchor="start" x="175.5" y="-591.64" font-family="Helvetica,sans-Serif" font-size="10.00">DataLoggerService::</text>
<text text-anchor="middle" x="225" y="-580.64" font-family="Helvetica,sans-Serif" font-size="10.00">metadataRead</text>
</a>
</g>
</g>
<!-- Node1&#45;&gt;Node3 -->
<g id="edge2_Node000001_Node000003" class="edge">
<title>Node1&#45;&gt;Node3</title>
<g id="a_edge2_Node000001_Node000003"><a xlink:title=" ">
<path fill="none" stroke="#63b8ff" d="M114.19,-555.7C130.72,-560.66 149.23,-566.21 166.28,-571.32"/>
<polygon fill="#63b8ff" stroke="#63b8ff" points="173.99,-573.64 165.29,-574.79 170.16,-572.49 166.33,-571.34 166.33,-571.34 166.33,-571.34 170.16,-572.49 167.36,-567.89 173.99,-573.64 173.99,-573.64"/>
</a>
</g>
</g>
<!-- Node4 -->
<g id="Node000004" class="node">
<title>Node4</title>
<g id="a_Node000004"><a xlink:href="classLoggerFetchCommand.html#ad77b93a8a2ccad9ee9aaacd67f49689e" target="_top" xlink:title="Invoked when metadata has been received from the data logger.">
<polygon fill="white" stroke="#666666" points="288,-555.64 162,-555.64 162,-525.64 288,-525.64 288,-555.64"/>
<text text-anchor="start" x="170" y="-543.64" font-family="Helvetica,sans-Serif" font-size="10.00">LoggerFetchCommand</text>
<text text-anchor="middle" x="225" y="-532.64" font-family="Helvetica,sans-Serif" font-size="10.00">::metadataRead</text>
</a>
</g>
</g>
<!-- Node1&#45;&gt;Node4 -->
<g id="edge3_Node000001_Node000004" class="edge">
<title>Node1&#45;&gt;Node4</title>
<g id="a_edge3_Node000001_Node000004"><a xlink:title=" ">
<path fill="none" stroke="#63b8ff" d="M126.32,-540.64C135.25,-540.64 144.5,-540.64 153.58,-540.64"/>
<polygon fill="#63b8ff" stroke="#63b8ff" points="161.85,-540.64 153.85,-544.24 157.85,-540.64 153.85,-540.64 153.85,-540.64 153.85,-540.64 157.85,-540.64 153.85,-537.04 161.85,-540.64 161.85,-540.64"/>
</a>
</g>
</g>
<!-- Node8 -->
<g id="Node000008" class="node">
<title>Node8</title>
<g id="a_Node000008"><a xlink:href="classLoggerFetchCommand.html#a2f093386853fc6667de091a0e921a665" target="_top" xlink:title="Outputs logger samples in the selected output format.">
<polygon fill="white" stroke="#666666" points="288,-357.64 162,-357.64 162,-327.64 288,-327.64 288,-357.64"/>
<text text-anchor="start" x="170" y="-345.64" font-family="Helvetica,sans-Serif" font-size="10.00">LoggerFetchCommand</text>
<text text-anchor="middle" x="225" y="-334.64" font-family="Helvetica,sans-Serif" font-size="10.00">::outputSamples</text>
</a>
</g>
</g>
<!-- Node1&#45;&gt;Node8 -->
<g id="edge8_Node000001_Node000008" class="edge">
<title>Node1&#45;&gt;Node8</title>
<g id="a_edge8_Node000001_Node000008"><a xlink:title=" ">
<path fill="none" stroke="#63b8ff" d="M76.29,-525.43C104.44,-490.59 173.69,-404.9 206.38,-364.45"/>
<polygon fill="#63b8ff" stroke="#63b8ff" points="211.67,-357.9 209.44,-366.39 209.15,-361.01 206.64,-364.12 206.64,-364.12 206.64,-364.12 209.15,-361.01 203.84,-361.86 211.67,-357.9 211.67,-357.9"/>
</a>
</g>
</g>
<!-- Node19 -->
<g id="Node000019" class="node">
<title>Node19</title>
<g id="a_Node000019"><a xlink:href="classDataLoggerService.html#a4f3e86b3300ebd0f0b212cabf8da90a0" target="_top" xlink:title="This signal is emitted when the Reading characteristic has been notified.">
<polygon fill="white" stroke="#666666" points="282.5,-70.64 167.5,-70.64 167.5,-40.64 282.5,-40.64 282.5,-70.64"/>
<text text-anchor="start" x="175.5" y="-58.64" font-family="Helvetica,sans-Serif" font-size="10.00">DataLoggerService::</text>
<text text-anchor="middle" x="225" y="-47.64" font-family="Helvetica,sans-Serif" font-size="10.00">samplesRead</text>
</a>
</g>
</g>
<!-- Node1&#45;&gt;Node19 -->
<g id="edge22_Node000001_Node000019" class="edge">
<title>Node1&#45;&gt;Node19</title>
<g id="a_edge22_Node000001_Node000019"><a xlink:title=" ">
<path fill="none" stroke="#63b8ff" d="M68.96,-525.59C91.99,-455.81 188.42,-163.48 216.38,-78.75"/>
<polygon fill="#63b8ff" stroke="#63b8ff" points="218.94,-70.99 219.85,-79.72 217.68,-74.79 216.43,-78.59 216.43,-78.59 216.43,-78.59 217.68,-74.79 213.01,-77.46 218.94,-70.99 218.94,-70.99"/>
</a>
</g>
</g>
<!-- Node5 -->
<g id="Node000005" class="node">
<title>Node5</title>
<g id="a_Node000005"><a target="_parent" xlink:href="https://doc.qt.io/qt-5/qdatetime.html#fromSecsSinceEpoch" xlink:title=" ">
<polygon fill="white" stroke="#666666" points="478.5,-641.64 328.5,-641.64 328.5,-611.64 478.5,-611.64 478.5,-641.64"/>
<text text-anchor="start" x="336.5" y="-629.64" font-family="Helvetica,sans-Serif" font-size="10.00">QDateTime::fromSecsSince</text>
<text text-anchor="middle" x="403.5" y="-618.64" font-family="Helvetica,sans-Serif" font-size="10.00">Epoch</text>
</a>
</g>
</g>
<!-- Node4&#45;&gt;Node5 -->
<g id="edge4_Node000004_Node000005" class="edge">
<title>Node4&#45;&gt;Node5</title>
<g id="a_edge4_Node000004_Node000005"><a xlink:title=" ">
<path fill="none" stroke="#63b8ff" d="M271,-555.75C276.88,-558.38 282.7,-561.35 288,-564.64 306.44,-576.09 305.47,-586.33 324,-597.64 330.47,-601.59 337.56,-605.13 344.74,-608.27"/>
<polygon fill="#63b8ff" stroke="#63b8ff" points="352.56,-611.51 343.79,-611.77 348.87,-609.98 345.17,-608.44 345.17,-608.44 345.17,-608.44 348.87,-609.98 346.55,-605.12 352.56,-611.51 352.56,-611.51"/>
</a>
</g>
</g>
<!-- Node6 -->
<g id="Node000006" class="node">
<title>Node6</title>
<g id="a_Node000006"><a xlink:href="classDataLoggerService.html#a4c696b7500e666959bbec4b0ed677d5d" target="_top" xlink:title="Returns mode as a user&#45;friendly string.">
<polygon fill="white" stroke="#666666" points="461,-555.64 346,-555.64 346,-525.64 461,-525.64 461,-555.64"/>
<text text-anchor="start" x="354" y="-543.64" font-family="Helvetica,sans-Serif" font-size="10.00">DataLoggerService::</text>
<text text-anchor="middle" x="403.5" y="-532.64" font-family="Helvetica,sans-Serif" font-size="10.00">toString</text>
</a>
</g>
</g>
<!-- Node4&#45;&gt;Node6 -->
<g id="edge5_Node000004_Node000006" class="edge">
<title>Node4&#45;&gt;Node6</title>
<g id="a_edge5_Node000004_Node000006"><a xlink:title=" ">
<path fill="none" stroke="#63b8ff" d="M288.23,-540.64C304.2,-540.64 321.42,-540.64 337.53,-540.64"/>
<polygon fill="#63b8ff" stroke="#63b8ff" points="345.84,-540.64 337.84,-544.24 341.84,-540.64 337.84,-540.64 337.84,-540.64 337.84,-540.64 341.84,-540.64 337.84,-537.04 345.84,-540.64 345.84,-540.64"/>
</a>
</g>
</g>
<!-- Node7 -->
<g id="Node000007" class="node">
<title>Node7</title>
<g id="a_Node000007"><a target="_parent" xlink:href="https://doc.qt.io/qt-5/qobject.html#tr" xlink:title=" ">
<polygon fill="white" stroke="#666666" points="604,-528.14 535,-528.14 535,-509.14 604,-509.14 604,-528.14"/>
<text text-anchor="middle" x="569.5" y="-516.14" font-family="Helvetica,sans-Serif" font-size="10.00">QObject::tr</text>
</a>
</g>
</g>
<!-- Node4&#45;&gt;Node7 -->
<g id="edge7_Node000004_Node000007" class="edge">
<title>Node4&#45;&gt;Node7</title>
<g id="a_edge7_Node000004_Node000007"><a xlink:title=" ">
<path fill="none" stroke="#63b8ff" d="M278.48,-555.74C330.98,-568.49 413.69,-582.1 483,-564.64 507.24,-558.53 532.08,-544.07 548.7,-532.97"/>
<polygon fill="#63b8ff" stroke="#63b8ff" points="555.73,-528.16 551.16,-535.65 552.43,-530.42 549.13,-532.68 549.13,-532.68 549.13,-532.68 552.43,-530.42 547.09,-529.71 555.73,-528.16 555.73,-528.16"/>
</a>
</g>
</g>
<!-- Node6&#45;&gt;Node7 -->
<g id="edge6_Node000006_Node000007" class="edge">
<title>Node6&#45;&gt;Node7</title>
<g id="a_edge6_Node000006_Node000007"><a xlink:title=" ">
<path fill="none" stroke="#63b8ff" d="M461.4,-533.01C482.87,-530.13 506.87,-526.91 526.71,-524.25"/>
<polygon fill="#63b8ff" stroke="#63b8ff" points="534.65,-523.18 527.2,-527.81 530.69,-523.71 526.72,-524.25 526.72,-524.25 526.72,-524.25 530.69,-523.71 526.24,-520.68 534.65,-523.18 534.65,-523.18"/>
</a>
</g>
</g>
<!-- Node8&#45;&gt;Node6 -->
<g id="edge19_Node000008_Node000006" class="edge">
<title>Node8&#45;&gt;Node6</title>
<g id="a_edge19_Node000008_Node000006"><a xlink:title=" ">
<path fill="none" stroke="#63b8ff" d="M230.9,-358.08C242.09,-390.95 272.62,-468.4 324,-511.64 328.59,-515.5 333.73,-518.87 339.14,-521.8"/>
<polygon fill="#63b8ff" stroke="#63b8ff" points="346.64,-525.54 337.88,-525.2 343.06,-523.76 339.48,-521.98 339.48,-521.98 339.48,-521.98 343.06,-523.76 341.09,-518.75 346.64,-525.54 346.64,-525.54"/>
</a>
</g>
</g>
<!-- Node8&#45;&gt;Node7 -->
<g id="edge21_Node000008_Node000007" class="edge">
<title>Node8&#45;&gt;Node7</title>
<g id="a_edge21_Node000008_Node000007"><a xlink:title=" ">
<path fill="none" stroke="#63b8ff" d="M232.21,-357.92C244.79,-386.79 276.24,-449.08 324,-478.64 357.1,-499.13 465.6,-510.64 526.35,-515.63"/>
<polygon fill="#63b8ff" stroke="#63b8ff" points="534.59,-516.29 526.33,-519.24 530.6,-515.97 526.62,-515.65 526.62,-515.65 526.62,-515.65 530.6,-515.97 526.9,-512.06 534.59,-516.29 534.59,-516.29"/>
</a>
</g>
</g>
<!-- Node9 -->
<g id="Node000009" class="node">
<title>Node9</title>
<g id="a_Node000009"><a target="_parent" xlink:href="https://doc.qt.io/qt-5/qstring.html#arg-1" xlink:title=" ">
<polygon fill="white" stroke="#666666" points="440.5,-469.14 366.5,-469.14 366.5,-450.14 440.5,-450.14 440.5,-469.14"/>
<text text-anchor="middle" x="403.5" y="-457.14" font-family="Helvetica,sans-Serif" font-size="10.00">QString::arg</text>
</a>
</g>
</g>
<!-- Node8&#45;&gt;Node9 -->
<g id="edge9_Node000008_Node000009" class="edge">
<title>Node8&#45;&gt;Node9</title>
<g id="a_edge9_Node000008_Node000009"><a xlink:title=" ">
<path fill="none" stroke="#63b8ff" d="M236.46,-357.67C252.6,-379.68 285.75,-420.35 324,-441.64 334.42,-447.44 346.62,-451.38 358.24,-454.04"/>
<polygon fill="#63b8ff" stroke="#63b8ff" points="366.17,-455.69 357.61,-457.59 362.26,-454.88 358.34,-454.06 358.34,-454.06 358.34,-454.06 362.26,-454.88 359.08,-450.54 366.17,-455.69 366.17,-455.69"/>
</a>
</g>
</g>
<!-- Node10 -->
<g id="Node000010" class="node">
<title>Node10</title>
<g id="a_Node000010"><a xlink:href="classDeviceCommand.html#ae619166395b5651f1316fd5336d9fa2c" target="_top" xlink:title="Disconnects the underlying Pokit device, and sets exitCode to be return to the OS once the disconnect...">
<polygon fill="white" stroke="#666666" points="483,-432.14 324,-432.14 324,-413.14 483,-413.14 483,-432.14"/>
<text text-anchor="middle" x="403.5" y="-420.14" font-family="Helvetica,sans-Serif" font-size="10.00">DeviceCommand::disconnect</text>
</a>
</g>
</g>
<!-- Node8&#45;&gt;Node10 -->
<g id="edge10_Node000008_Node000010" class="edge">
<title>Node8&#45;&gt;Node10</title>
<g id="a_edge10_Node000008_Node000010"><a xlink:title=" ">
<path fill="none" stroke="#63b8ff" d="M245.54,-357.83C264.57,-371.92 294.82,-392.48 324,-404.64 329.5,-406.93 335.35,-408.96 341.27,-410.75"/>
<polygon fill="#63b8ff" stroke="#63b8ff" points="349.37,-413.04 340.69,-414.33 345.52,-411.95 341.67,-410.86 341.67,-410.86 341.67,-410.86 345.52,-411.95 342.65,-407.4 349.37,-413.04 349.37,-413.04"/>
</a>
</g>
</g>
<!-- Node11 -->
<g id="Node000011" class="node">
<title>Node11</title>
<g id="a_Node000011"><a target="_parent" xlink:href="https://doc.qt.io/qt-5/qstring.html#fromLatin1" xlink:title=" ">
<polygon fill="white" stroke="#666666" points="459.5,-395.14 347.5,-395.14 347.5,-376.14 459.5,-376.14 459.5,-395.14"/>
<text text-anchor="middle" x="403.5" y="-383.14" font-family="Helvetica,sans-Serif" font-size="10.00">QString::fromLatin1</text>
</a>
</g>
</g>
<!-- Node8&#45;&gt;Node11 -->
<g id="edge12_Node000008_Node000011" class="edge">
<title>Node8&#45;&gt;Node11</title>
<g id="a_edge12_Node000008_Node000011"><a xlink:title=" ">
<path fill="none" stroke="#63b8ff" d="M287.16,-357.64C299.36,-360.63 312.09,-363.74 324,-366.64 334,-369.07 344.71,-371.67 354.92,-374.15"/>
<polygon fill="#63b8ff" stroke="#63b8ff" points="362.96,-376.09 354.34,-377.71 359.07,-375.15 355.19,-374.21 355.19,-374.21 355.19,-374.21 359.07,-375.15 356.03,-370.71 362.96,-376.09 362.96,-376.09"/>
</a>
</g>
</g>
<!-- Node12 -->
<g id="Node000012" class="node">
<title>Node12</title>
<g id="a_Node000012"><a target="_parent" xlink:href="https://doc.qt.io/qt-5/qdatetime.html#fromMSecsSinceEpoch" xlink:title=" ">
<polygon fill="white" stroke="#666666" points="483,-357.64 324,-357.64 324,-327.64 483,-327.64 483,-357.64"/>
<text text-anchor="start" x="332" y="-345.64" font-family="Helvetica,sans-Serif" font-size="10.00">QDateTime::fromMSecsSince</text>
<text text-anchor="middle" x="403.5" y="-334.64" font-family="Helvetica,sans-Serif" font-size="10.00">Epoch</text>
</a>
</g>
</g>
<!-- Node8&#45;&gt;Node12 -->
<g id="edge13_Node000008_Node000012" class="edge">
<title>Node8&#45;&gt;Node12</title>
<g id="a_edge13_Node000008_Node000012"><a xlink:title=" ">
<path fill="none" stroke="#63b8ff" d="M288.23,-342.64C297.13,-342.64 306.42,-342.64 315.7,-342.64"/>
<polygon fill="#63b8ff" stroke="#63b8ff" points="323.83,-342.64 315.83,-346.24 319.83,-342.64 315.83,-342.64 315.83,-342.64 315.83,-342.64 319.83,-342.64 315.83,-339.04 323.83,-342.64 323.83,-342.64"/>
</a>
</g>
</g>
<!-- Node13 -->
<g id="Node000013" class="node">
<title>Node13</title>
<g id="a_Node000013"><a target="_parent" xlink:href="https://doc.qt.io/qt-5/qstring.html#fromUtf8" xlink:title=" ">
<polygon fill="white" stroke="#666666" points="455,-309.14 352,-309.14 352,-290.14 455,-290.14 455,-309.14"/>
<text text-anchor="middle" x="403.5" y="-297.14" font-family="Helvetica,sans-Serif" font-size="10.00">QString::fromUtf8</text>
</a>
</g>
</g>
<!-- Node8&#45;&gt;Node13 -->
<g id="edge14_Node000008_Node000013" class="edge">
<title>Node8&#45;&gt;Node13</title>
<g id="a_edge14_Node000008_Node000013"><a xlink:title=" ">
<path fill="none" stroke="#63b8ff" d="M287.16,-327.64C299.36,-324.65 312.09,-321.54 324,-318.64 334,-316.21 344.71,-313.61 354.92,-311.14"/>
<polygon fill="#63b8ff" stroke="#63b8ff" points="362.96,-309.19 356.03,-314.57 359.07,-310.13 355.19,-311.07 355.19,-311.07 355.19,-311.07 359.07,-310.13 354.34,-307.57 362.96,-309.19 362.96,-309.19"/>
</a>
</g>
</g>
<!-- Node14 -->
<g id="Node000014" class="node">
<title>Node14</title>
<g id="a_Node000014"><a target="_parent" xlink:href="https://doc.qt.io/qt-5/qstring.html#isEmpty" xlink:title=" ">
<polygon fill="white" stroke="#666666" points="452.5,-272.14 354.5,-272.14 354.5,-253.14 452.5,-253.14 452.5,-272.14"/>
<text text-anchor="middle" x="403.5" y="-260.14" font-family="Helvetica,sans-Serif" font-size="10.00">QString::isEmpty</text>
</a>
</g>
</g>
<!-- Node8&#45;&gt;Node14 -->
<g id="edge15_Node000008_Node000014" class="edge">
<title>Node8&#45;&gt;Node14</title>
<g id="a_edge15_Node000008_Node000014"><a xlink:title=" ">
<path fill="none" stroke="#63b8ff" d="M245.98,-327.52C265.09,-313.74 295.17,-293.73 324,-281.64 331.03,-278.69 338.61,-276.14 346.19,-273.95"/>
<polygon fill="#63b8ff" stroke="#63b8ff" points="354.39,-271.71 347.62,-277.29 350.54,-272.76 346.68,-273.82 346.68,-273.82 346.68,-273.82 350.54,-272.76 345.73,-270.34 354.39,-271.71 354.39,-271.71"/>
</a>
</g>
</g>
<!-- Node15 -->
<g id="Node000015" class="node">
<title>Node15</title>
<g id="a_Node000015"><a target="_parent" xlink:href="https://doc.qt.io/qt-5/qstring.html#number-1" xlink:title=" ">
<polygon fill="white" stroke="#666666" points="451.5,-235.14 355.5,-235.14 355.5,-216.14 451.5,-216.14 451.5,-235.14"/>
<text text-anchor="middle" x="403.5" y="-223.14" font-family="Helvetica,sans-Serif" font-size="10.00">QString::number</text>
</a>
</g>
</g>
<!-- Node8&#45;&gt;Node15 -->
<g id="edge16_Node000008_Node000015" class="edge">
<title>Node8&#45;&gt;Node15</title>
<g id="a_edge16_Node000008_Node000015"><a xlink:title=" ">
<path fill="none" stroke="#63b8ff" d="M236.8,-327.46C253.13,-305.68 286.23,-265.84 324,-244.64 331.23,-240.58 339.3,-237.39 347.45,-234.87"/>
<polygon fill="#63b8ff" stroke="#63b8ff" points="355.25,-232.66 348.54,-238.3 351.41,-233.75 347.56,-234.84 347.56,-234.84 347.56,-234.84 351.41,-233.75 346.58,-231.38 355.25,-232.66 355.25,-232.66"/>
</a>
</g>
</g>
<!-- Node16 -->
<g id="Node000016" class="node">
<title>Node16</title>
<g id="a_Node000016"><a target="_parent" xlink:href="https://doc.qt.io/qt-5/qjsondocument.html#toJson" xlink:title=" ">
<polygon fill="white" stroke="#666666" points="469,-198.14 338,-198.14 338,-179.14 469,-179.14 469,-198.14"/>
<text text-anchor="middle" x="403.5" y="-186.14" font-family="Helvetica,sans-Serif" font-size="10.00">QJsonDocument::toJson</text>
</a>
</g>
</g>
<!-- Node8&#45;&gt;Node16 -->
<g id="edge17_Node000008_Node000016" class="edge">
<title>Node8&#45;&gt;Node16</title>
<g id="a_edge17_Node000008_Node000016"><a xlink:title=" ">
<path fill="none" stroke="#63b8ff" d="M232.65,-327.35C245.77,-299.05 277.8,-238.59 324,-207.64 327.64,-205.2 331.56,-203.08 335.64,-201.22"/>
<polygon fill="#63b8ff" stroke="#63b8ff" points="343.13,-198.17 337.08,-204.52 339.43,-199.68 335.72,-201.19 335.72,-201.19 335.72,-201.19 339.43,-199.68 334.36,-197.86 343.13,-198.17 343.13,-198.17"/>
</a>
</g>
</g>
<!-- Node17 -->
<g id="Node000017" class="node">
<title>Node17</title>
<g id="a_Node000017"><a target="_parent" xlink:href="https://doc.qt.io/qt-5/qbytearray.html#toStdString" xlink:title=" ">
<polygon fill="white" stroke="#666666" points="469.5,-161.14 337.5,-161.14 337.5,-142.14 469.5,-142.14 469.5,-161.14"/>
<text text-anchor="middle" x="403.5" y="-149.14" font-family="Helvetica,sans-Serif" font-size="10.00">QByteArray::toStdString</text>
</a>
</g>
</g>
<!-- Node8&#45;&gt;Node17 -->
<g id="edge18_Node000008_Node000017" class="edge">
<title>Node8&#45;&gt;Node17</title>
<g id="a_edge18_Node000008_Node000017"><a xlink:title=" ">
<path fill="none" stroke="#63b8ff" d="M230.13,-327.48C240.16,-293.7 269.08,-211.97 324,-170.64 327.06,-168.34 330.36,-166.31 333.82,-164.52"/>
<polygon fill="#63b8ff" stroke="#63b8ff" points="341.1,-161.19 335.32,-167.79 337.46,-162.86 333.82,-164.52 333.82,-164.52 333.82,-164.52 337.46,-162.86 332.32,-161.25 341.1,-161.19 341.1,-161.19"/>
</a>
</g>
</g>
<!-- Node18 -->
<g id="Node000018" class="node">
<title>Node18</title>
<g id="a_Node000018"><a target="_parent" xlink:href="https://doc.qt.io/qt-5/qdatetime.html#toString-1" xlink:title=" ">
<polygon fill="white" stroke="#666666" points="461.5,-124.14 345.5,-124.14 345.5,-105.14 461.5,-105.14 461.5,-124.14"/>
<text text-anchor="middle" x="403.5" y="-112.14" font-family="Helvetica,sans-Serif" font-size="10.00">QDateTime::toString</text>
</a>
</g>
</g>
<!-- Node8&#45;&gt;Node18 -->
<g id="edge20_Node000008_Node000018" class="edge">
<title>Node8&#45;&gt;Node18</title>
<g id="a_edge20_Node000008_Node000018"><a xlink:title=" ">
<path fill="none" stroke="#63b8ff" d="M228.49,-327.53C235.69,-288.87 260.22,-185.74 324,-133.64 328.16,-130.24 332.83,-127.44 337.77,-125.12"/>
<polygon fill="#63b8ff" stroke="#63b8ff" points="345.16,-122.07 339.14,-128.45 341.47,-123.6 337.77,-125.12 337.77,-125.12 337.77,-125.12 341.47,-123.6 336.39,-121.79 345.16,-122.07 345.16,-122.07"/>
</a>
</g>
</g>
<!-- Node10&#45;&gt;Node7 -->
<g id="edge11_Node000010_Node000007" class="edge">
<title>Node10&#45;&gt;Node7</title>
<g id="a_edge11_Node000010_Node000007"><a xlink:title=" ">
<path fill="none" stroke="#63b8ff" d="M459.41,-432.22C467.57,-434.69 475.68,-437.78 483,-441.64 512.33,-457.11 539.56,-484.88 555.09,-502.51"/>
<polygon fill="#63b8ff" stroke="#63b8ff" points="560.64,-508.94 552.69,-505.23 558.03,-505.91 555.41,-502.88 555.41,-502.88 555.41,-502.88 558.03,-505.91 558.14,-500.53 560.64,-508.94 560.64,-508.94"/>
</a>
</g>
</g>
<!-- Node20 -->
<g id="Node000020" class="node">
<title>Node20</title>
<g id="a_Node000020"><a xlink:href="classDataLoggerService.html#a1c2155abba340d49fc39bfa49ed59a6c" target="_top" xlink:title="Constructs a new Pokit service with parent.">
<polygon fill="white" stroke="#666666" points="461,-48.64 346,-48.64 346,-18.64 461,-18.64 461,-48.64"/>
<text text-anchor="start" x="354" y="-36.64" font-family="Helvetica,sans-Serif" font-size="10.00">DataLoggerService::</text>
<text text-anchor="middle" x="403.5" y="-25.64" font-family="Helvetica,sans-Serif" font-size="10.00">DataLoggerService</text>
</a>
</g>
</g>
<!-- Node19&#45;&gt;Node20 -->
<g id="edge23_Node000019_Node000020" class="edge">
<title>Node19&#45;&gt;Node20</title>
<g id="a_edge23_Node000019_Node000020"><a xlink:title=" ">
<path fill="none" stroke="#63b8ff" d="M282.82,-48.56C300.3,-46.38 319.67,-43.97 337.64,-41.72"/>
<polygon fill="#63b8ff" stroke="#63b8ff" points="345.79,-40.71 338.3,-45.27 341.82,-41.2 337.85,-41.7 337.85,-41.7 337.85,-41.7 341.82,-41.2 337.41,-38.13 345.79,-40.71 345.79,-40.71"/>
</a>
</g>
</g>
<!-- Node21 -->
<g id="Node000021" class="node">
<title>Node21</title>
<g id="a_Node000021"><a target="_parent" xlink:href="https://doc.qt.io/qt-5/qobject.html#parent" xlink:title=" ">
<polygon fill="white" stroke="#666666" points="616,-63.14 523,-63.14 523,-44.14 616,-44.14 616,-63.14"/>
<text text-anchor="middle" x="569.5" y="-51.14" font-family="Helvetica,sans-Serif" font-size="10.00">QObject::parent</text>
</a>
</g>
</g>
<!-- Node19&#45;&gt;Node21 -->
<g id="edge26_Node000019_Node000021" class="edge">
<title>Node19&#45;&gt;Node21</title>
<g id="a_edge26_Node000019_Node000021"><a xlink:title=" ">
<path fill="none" stroke="#63b8ff" d="M282.66,-57.09C334.74,-58.19 414.08,-59.25 483,-57.64 493.2,-57.4 504.08,-57 514.53,-56.55"/>
<polygon fill="#63b8ff" stroke="#63b8ff" points="522.81,-56.17 514.98,-60.13 518.81,-56.35 514.82,-56.54 514.82,-56.54 514.82,-56.54 518.81,-56.35 514.66,-52.94 522.81,-56.17 522.81,-56.17"/>
</a>
</g>
</g>
<!-- Node22 -->
<g id="Node000022" class="node">
<title>Node22</title>
<g id="a_Node000022"><a target="_parent" xlink:href="https://doc.qt.io/qt-5/qobject.html#QObject" xlink:title=" ">
<polygon fill="white" stroke="#666666" points="620,-23.14 519,-23.14 519,-4.14 620,-4.14 620,-23.14"/>
<text text-anchor="middle" x="569.5" y="-11.14" font-family="Helvetica,sans-Serif" font-size="10.00">QObject::QObject</text>
</a>
</g>
</g>
<!-- Node19&#45;&gt;Node22 -->
<g id="edge27_Node000019_Node000022" class="edge">
<title>Node19&#45;&gt;Node22</title>
<g id="a_edge27_Node000019_Node000022"><a xlink:title=" ">
<path fill="none" stroke="#63b8ff" d="M250.29,-40.54C269.49,-29.54 297.4,-15.57 324,-9.64 386.6,4.32 460.48,0.41 510.51,-5.14"/>
<polygon fill="#63b8ff" stroke="#63b8ff" points="518.64,-6.08 510.28,-8.74 514.67,-5.62 510.69,-5.16 510.69,-5.16 510.69,-5.16 514.67,-5.62 511.11,-1.59 518.64,-6.08 518.64,-6.08"/>
</a>
</g>
</g>
<!-- Node20&#45;&gt;Node21 -->
<g id="edge24_Node000020_Node000021" class="edge">
<title>Node20&#45;&gt;Node21</title>
<g id="a_edge24_Node000020_Node000021"><a xlink:title=" ">
<path fill="none" stroke="#63b8ff" d="M461.4,-40.58C478.65,-42.68 497.54,-44.99 514.59,-47.07"/>
<polygon fill="#63b8ff" stroke="#63b8ff" points="522.8,-48.07 514.42,-50.67 518.83,-47.58 514.86,-47.1 514.86,-47.1 514.86,-47.1 518.83,-47.58 515.3,-43.53 522.8,-48.07 522.8,-48.07"/>
</a>
</g>
</g>
<!-- Node20&#45;&gt;Node22 -->
<g id="edge25_Node000020_Node000022" class="edge">
<title>Node20&#45;&gt;Node22</title>
<g id="a_edge25_Node000020_Node000022"><a xlink:title=" ">
<path fill="none" stroke="#63b8ff" d="M461.4,-26.7C477.31,-24.76 494.62,-22.65 510.59,-20.7"/>
<polygon fill="#63b8ff" stroke="#63b8ff" points="518.81,-19.7 511.3,-24.24 514.84,-20.18 510.87,-20.67 510.87,-20.67 510.87,-20.67 514.84,-20.18 510.43,-17.1 518.81,-19.7 518.81,-19.7"/>
</a>
</g>
</g>
</g>
</svg>
