<?xml version="1.0" encoding="UTF-8" standalone="no"?>
<!DOCTYPE svg PUBLIC "-//W3C//DTD SVG 1.1//EN"
 "http://www.w3.org/Graphics/SVG/1.1/DTD/svg11.dtd">
<!-- Generated by graphviz version 2.43.0 (0)
 -->
<!-- Title: DsoServicePrivate::characteristicWritten Pages: 1 -->
<svg width="705pt" height="492pt"
 viewBox="0.00 0.00 705.00 492.00" xmlns="http://www.w3.org/2000/svg" xmlns:xlink="http://www.w3.org/1999/xlink">
<g id="graph0" class="graph" transform="scale(1 1) rotate(0) translate(4 488)">
<title>DsoServicePrivate::characteristicWritten</title>
<!-- Node1 -->
<g id="Node000001" class="node">
<title>Node1</title>
<g id="a_Node000001"><a xlink:title="Implements AbstractPokitServicePrivate::characteristicWritten to parse newValue, then emit a speciali...">
<polygon fill="#999999" stroke="#666666" points="119,-110.5 0,-110.5 0,-80.5 119,-80.5 119,-110.5"/>
<text text-anchor="start" x="8" y="-98.5" font-family="Helvetica,sans-Serif" font-size="10.00">DsoServicePrivate::</text>
<text text-anchor="middle" x="59.5" y="-87.5" font-family="Helvetica,sans-Serif" font-size="10.00">characteristicWritten</text>
</a>
</g>
</g>
<!-- Node2 -->
<g id="Node000002" class="node">
<title>Node2</title>
<g id="a_Node000002"><a xlink:href="classAbstractPokitServicePrivate.html#aaf4a6cb9f0b1fe537877d615a6634201" target="_top" xlink:title="Handles QLowEnergyService::characteristicWritten events.">
<polygon fill="white" stroke="#666666" points="307,-256.5 155,-256.5 155,-226.5 307,-226.5 307,-256.5"/>
<text text-anchor="start" x="163" y="-244.5" font-family="Helvetica,sans-Serif" font-size="10.00">AbstractPokitServicePrivate</text>
<text text-anchor="middle" x="231" y="-233.5" font-family="Helvetica,sans-Serif" font-size="10.00">::characteristicWritten</text>
</a>
</g>
</g>
<!-- Node1&#45;&gt;Node2 -->
<g id="edge1_Node000001_Node000002" class="edge">
<title>Node1&#45;&gt;Node2</title>
<g id="a_edge1_Node000001_Node000002"><a xlink:title=" ">
<path fill="none" stroke="#63b8ff" d="M78,-110.57C108.58,-136.91 171.75,-191.33 206.25,-221.04"/>
<polygon fill="#63b8ff" stroke="#63b8ff" points="212.34,-226.29 203.93,-223.8 209.31,-223.68 206.28,-221.07 206.28,-221.07 206.28,-221.07 209.31,-223.68 208.63,-218.34 212.34,-226.29 212.34,-226.29"/>
</a>
</g>
</g>
<!-- Node6 -->
<g id="Node000006" class="node">
<title>Node6</title>
<g id="a_Node000006"><a target="_parent" xlink:href="https://doc.qt.io/qt-5/qobject.html#tr" xlink:title=" ">
<polygon fill="white" stroke="#666666" points="648.5,-191 579.5,-191 579.5,-172 648.5,-172 648.5,-191"/>
<text text-anchor="middle" x="614" y="-179" font-family="Helvetica,sans-Serif" font-size="10.00">QObject::tr</text>
</a>
</g>
</g>
<!-- Node1&#45;&gt;Node6 -->
<g id="edge19_Node000001_Node000006" class="edge">
<title>Node1&#45;&gt;Node6</title>
<g id="a_edge19_Node000001_Node000006"><a xlink:title=" ">
<path fill="none" stroke="#63b8ff" d="M119.17,-89.51C203.98,-82.75 364.93,-77.09 495,-114.5 533,-125.43 571.89,-150.83 594.17,-167.02"/>
<polygon fill="#63b8ff" stroke="#63b8ff" points="600.8,-171.93 592.23,-170.06 597.59,-169.55 594.37,-167.17 594.37,-167.17 594.37,-167.17 597.59,-169.55 596.51,-164.28 600.8,-171.93 600.8,-171.93"/>
</a>
</g>
</g>
<!-- Node14 -->
<g id="Node000014" class="node">
<title>Node14</title>
<g id="a_Node000014"><a target="_parent" xlink:href="https://doc.qt.io/qt-5/qlowenergycharacteristic.html#uuid" xlink:title=" ">
<polygon fill="white" stroke="#666666" points="491.5,-153.5 346.5,-153.5 346.5,-123.5 491.5,-123.5 491.5,-153.5"/>
<text text-anchor="start" x="354.5" y="-141.5" font-family="Helvetica,sans-Serif" font-size="10.00">QLowEnergyCharacteristic</text>
<text text-anchor="middle" x="419" y="-130.5" font-family="Helvetica,sans-Serif" font-size="10.00">::uuid</text>
</a>
</g>
</g>
<!-- Node1&#45;&gt;Node14 -->
<g id="edge20_Node000001_Node000014" class="edge">
<title>Node1&#45;&gt;Node14</title>
<g id="a_edge20_Node000001_Node000014"><a xlink:title=" ">
<path fill="none" stroke="#63b8ff" d="M119.18,-104.54C131.03,-106.27 143.4,-108 155,-109.5 216.41,-117.43 286.06,-125.05 338.25,-130.49"/>
<polygon fill="#63b8ff" stroke="#63b8ff" points="346.47,-131.34 338.15,-134.1 342.5,-130.93 338.52,-130.51 338.52,-130.51 338.52,-130.51 342.5,-130.93 338.89,-126.93 346.47,-131.34 346.47,-131.34"/>
</a>
</g>
</g>
<!-- Node15 -->
<g id="Node000015" class="node">
<title>Node15</title>
<g id="a_Node000015"><a target="_parent" xlink:href="https://doc.qt.io/qt-5/qlowenergycharacteristic.html#name" xlink:title=" ">
<polygon fill="white" stroke="#666666" points="303.5,-67.5 158.5,-67.5 158.5,-37.5 303.5,-37.5 303.5,-67.5"/>
<text text-anchor="start" x="166.5" y="-55.5" font-family="Helvetica,sans-Serif" font-size="10.00">QLowEnergyCharacteristic</text>
<text text-anchor="middle" x="231" y="-44.5" font-family="Helvetica,sans-Serif" font-size="10.00">::name</text>
</a>
</g>
</g>
<!-- Node1&#45;&gt;Node15 -->
<g id="edge17_Node000001_Node000015" class="edge">
<title>Node1&#45;&gt;Node15</title>
<g id="a_edge17_Node000001_Node000015"><a xlink:title=" ">
<path fill="none" stroke="#63b8ff" d="M119.31,-80.58C133.34,-77.02 148.43,-73.19 162.82,-69.54"/>
<polygon fill="#63b8ff" stroke="#63b8ff" points="170.72,-67.54 163.85,-72.99 166.85,-68.52 162.97,-69.51 162.97,-69.51 162.97,-69.51 166.85,-68.52 162.08,-66.02 170.72,-67.54 170.72,-67.54"/>
</a>
</g>
</g>
<!-- Node16 -->
<g id="Node000016" class="node">
<title>Node16</title>
<g id="a_Node000016"><a target="_parent" xlink:href="https://doc.qt.io/qt-5/qobject.html#Q_EMIT" xlink:title=" ">
<polygon fill="white" stroke="#666666" points="280,-19 182,-19 182,0 280,0 280,-19"/>
<text text-anchor="middle" x="231" y="-7" font-family="Helvetica,sans-Serif" font-size="10.00">QObject::Q_EMIT</text>
</a>
</g>
</g>
<!-- Node1&#45;&gt;Node16 -->
<g id="edge18_Node000001_Node000016" class="edge">
<title>Node1&#45;&gt;Node16</title>
<g id="a_edge18_Node000001_Node000016"><a xlink:title=" ">
<path fill="none" stroke="#63b8ff" d="M77.74,-80.27C95.8,-65.07 125.6,-42.07 155,-28.5 161.05,-25.71 167.57,-23.29 174.15,-21.19"/>
<polygon fill="#63b8ff" stroke="#63b8ff" points="181.88,-18.89 175.24,-24.62 178.05,-20.03 174.21,-21.17 174.21,-21.17 174.21,-21.17 178.05,-20.03 173.18,-17.72 181.88,-18.89 181.88,-18.89"/>
</a>
</g>
</g>
<!-- Node3 -->
<g id="Node000003" class="node">
<title>Node3</title>
<g id="a_Node000003"><a target="_parent" xlink:href="https://doc.qt.io/qt-5/qstring.html#arg-1" xlink:title=" ">
<polygon fill="white" stroke="#666666" points="651,-299 577,-299 577,-280 651,-280 651,-299"/>
<text text-anchor="middle" x="614" y="-287" font-family="Helvetica,sans-Serif" font-size="10.00">QString::arg</text>
</a>
</g>
</g>
<!-- Node2&#45;&gt;Node3 -->
<g id="edge2_Node000002_Node000003" class="edge">
<title>Node2&#45;&gt;Node3</title>
<g id="a_edge2_Node000002_Node000003"><a xlink:title=" ">
<path fill="none" stroke="#63b8ff" d="M260.75,-256.64C282.63,-267.29 313.85,-280.65 343,-286.5 421.25,-302.21 514.85,-298.35 568.76,-294"/>
<polygon fill="#63b8ff" stroke="#63b8ff" points="576.74,-293.33 569.07,-297.59 572.76,-293.67 568.77,-294 568.77,-294 568.77,-294 572.76,-293.67 568.47,-290.41 576.74,-293.33 576.74,-293.33"/>
</a>
</g>
</g>
<!-- Node4 -->
<g id="Node000004" class="node">
<title>Node4</title>
<g id="a_Node000004"><a xlink:href="classPokitDevice.html#a0a3e6078ce0a7c2d93171ef0f4183d61" target="_top" xlink:title="Returns a human&#45;readable name for the uuid characteristic, or a null QString if unknown.">
<polygon fill="white" stroke="#666666" points="489.5,-277.5 348.5,-277.5 348.5,-247.5 489.5,-247.5 489.5,-277.5"/>
<text text-anchor="start" x="356.5" y="-265.5" font-family="Helvetica,sans-Serif" font-size="10.00">PokitDevice::charcteristic</text>
<text text-anchor="middle" x="419" y="-254.5" font-family="Helvetica,sans-Serif" font-size="10.00">ToString</text>
</a>
</g>
</g>
<!-- Node2&#45;&gt;Node4 -->
<g id="edge3_Node000002_Node000004" class="edge">
<title>Node2&#45;&gt;Node4</title>
<g id="a_edge3_Node000002_Node000004"><a xlink:title=" ">
<path fill="none" stroke="#63b8ff" d="M307.12,-249.98C318.07,-251.22 329.37,-252.49 340.37,-253.74"/>
<polygon fill="#63b8ff" stroke="#63b8ff" points="348.32,-254.63 339.96,-257.31 344.34,-254.18 340.37,-253.74 340.37,-253.74 340.37,-253.74 344.34,-254.18 340.77,-250.16 348.32,-254.63 348.32,-254.63"/>
</a>
</g>
</g>
<!-- Node2&#45;&gt;Node6 -->
<g id="edge15_Node000002_Node000006" class="edge">
<title>Node2&#45;&gt;Node6</title>
<g id="a_edge15_Node000002_Node000006"><a xlink:title=" ">
<path fill="none" stroke="#63b8ff" d="M266.29,-226.4C287.87,-217.59 316.55,-207.13 343,-201.5 422.42,-184.58 517.61,-181.39 571.11,-181.1"/>
<polygon fill="#63b8ff" stroke="#63b8ff" points="579.33,-181.08 571.34,-184.7 575.33,-181.09 571.33,-181.1 571.33,-181.1 571.33,-181.1 575.33,-181.09 571.32,-177.5 579.33,-181.08 579.33,-181.08"/>
</a>
</g>
</g>
<!-- Node7 -->
<g id="Node000007" class="node">
<title>Node7</title>
<g id="a_Node000007"><a target="_parent" xlink:href="https://doc.qt.io/qt-5/qbytearray.html#size" xlink:title=" ">
<polygon fill="white" stroke="#666666" points="663,-484 565,-484 565,-465 663,-465 663,-484"/>
<text text-anchor="middle" x="614" y="-472" font-family="Helvetica,sans-Serif" font-size="10.00">QByteArray::size</text>
</a>
</g>
</g>
<!-- Node2&#45;&gt;Node7 -->
<g id="edge6_Node000002_Node000007" class="edge">
<title>Node2&#45;&gt;Node7</title>
<g id="a_edge6_Node000002_Node000007"><a xlink:title=" ">
<path fill="none" stroke="#63b8ff" d="M239.64,-256.58C255.19,-285.88 293.32,-350.8 343,-387.5 407.31,-435.01 498.66,-457.25 556.87,-467.17"/>
<polygon fill="#63b8ff" stroke="#63b8ff" points="564.86,-468.48 556.38,-470.73 560.91,-467.83 556.97,-467.18 556.97,-467.18 556.97,-467.18 560.91,-467.83 557.55,-463.63 564.86,-468.48 564.86,-468.48"/>
</a>
</g>
</g>
<!-- Node8 -->
<g id="Node000008" class="node">
<title>Node8</title>
<g id="a_Node000008"><a xlink:href="classAbstractPokitServicePrivate.html#af748600fc201fe47f29b58e8e93179d8" target="_top" xlink:title="Returns up to maxSize bytes of data as a human readable hexadecimal string.">
<polygon fill="white" stroke="#666666" points="495,-378.5 343,-378.5 343,-348.5 495,-348.5 495,-378.5"/>
<text text-anchor="start" x="351" y="-366.5" font-family="Helvetica,sans-Serif" font-size="10.00">AbstractPokitServicePrivate</text>
<text text-anchor="middle" x="419" y="-355.5" font-family="Helvetica,sans-Serif" font-size="10.00">::toHexString</text>
</a>
</g>
</g>
<!-- Node2&#45;&gt;Node8 -->
<g id="edge7_Node000002_Node000008" class="edge">
<title>Node2&#45;&gt;Node8</title>
<g id="a_edge7_Node000002_Node000008"><a xlink:title=" ">
<path fill="none" stroke="#63b8ff" d="M252.52,-256.68C274.54,-272.79 310.71,-298.73 343,-319.5 356.18,-327.97 371,-336.81 383.96,-344.32"/>
<polygon fill="#63b8ff" stroke="#63b8ff" points="390.95,-348.34 382.22,-347.47 387.48,-346.35 384.02,-344.35 384.02,-344.35 384.02,-344.35 387.48,-346.35 385.81,-341.23 390.95,-348.34 390.95,-348.34"/>
</a>
</g>
</g>
<!-- Node13 -->
<g id="Node000013" class="node">
<title>Node13</title>
<g id="a_Node000013"><a target="_parent" xlink:href="https://doc.qt.io/qt-5/quuid.html#toString" xlink:title=" ">
<polygon fill="white" stroke="#666666" points="464.5,-229 373.5,-229 373.5,-210 464.5,-210 464.5,-229"/>
<text text-anchor="middle" x="419" y="-217" font-family="Helvetica,sans-Serif" font-size="10.00">QUuid::toString</text>
</a>
</g>
</g>
<!-- Node2&#45;&gt;Node13 -->
<g id="edge14_Node000002_Node000013" class="edge">
<title>Node2&#45;&gt;Node13</title>
<g id="a_edge14_Node000002_Node000013"><a xlink:title=" ">
<path fill="none" stroke="#63b8ff" d="M307.12,-232.62C326.61,-230.31 347.2,-227.87 365.27,-225.74"/>
<polygon fill="#63b8ff" stroke="#63b8ff" points="373.39,-224.78 365.87,-229.29 369.42,-225.25 365.44,-225.72 365.44,-225.72 365.44,-225.72 369.42,-225.25 365.02,-222.14 373.39,-224.78 373.39,-224.78"/>
</a>
</g>
</g>
<!-- Node2&#45;&gt;Node14 -->
<g id="edge16_Node000002_Node000014" class="edge">
<title>Node2&#45;&gt;Node14</title>
<g id="a_edge16_Node000002_Node000014"><a xlink:title=" ">
<path fill="none" stroke="#63b8ff" d="M251.64,-226.47C273.21,-210.44 309.28,-184.99 343,-167.5 350.34,-163.69 358.3,-160.09 366.2,-156.81"/>
<polygon fill="#63b8ff" stroke="#63b8ff" points="374.06,-153.64 367.99,-159.97 370.35,-155.14 366.64,-156.63 366.64,-156.63 366.64,-156.63 370.35,-155.14 365.29,-153.3 374.06,-153.64 374.06,-153.64"/>
</a>
</g>
</g>
<!-- Node5 -->
<g id="Node000005" class="node">
<title>Node5</title>
<g id="a_Node000005"><a target="_parent" xlink:href="https://doc.qt.io/qt-5/qbluetoothuuid.html#characteristicToString" xlink:title=" ">
<polygon fill="white" stroke="#666666" points="697,-261.5 531,-261.5 531,-231.5 697,-231.5 697,-261.5"/>
<text text-anchor="start" x="539" y="-249.5" font-family="Helvetica,sans-Serif" font-size="10.00">QBluetoothUuid::characteristic</text>
<text text-anchor="middle" x="614" y="-238.5" font-family="Helvetica,sans-Serif" font-size="10.00">ToString</text>
</a>
</g>
</g>
<!-- Node4&#45;&gt;Node5 -->
<g id="edge4_Node000004_Node000005" class="edge">
<title>Node4&#45;&gt;Node5</title>
<g id="a_edge4_Node000004_Node000005"><a xlink:title=" ">
<path fill="none" stroke="#63b8ff" d="M489.68,-256.72C500.45,-255.83 511.71,-254.9 522.85,-253.97"/>
<polygon fill="#63b8ff" stroke="#63b8ff" points="530.94,-253.3 523.27,-257.55 526.95,-253.63 522.97,-253.96 522.97,-253.96 522.97,-253.96 526.95,-253.63 522.67,-250.38 530.94,-253.3 530.94,-253.3"/>
</a>
</g>
</g>
<!-- Node4&#45;&gt;Node6 -->
<g id="edge5_Node000004_Node000006" class="edge">
<title>Node4&#45;&gt;Node6</title>
<g id="a_edge5_Node000004_Node000006"><a xlink:title=" ">
<path fill="none" stroke="#63b8ff" d="M470.37,-247.46C478.67,-244.67 487.13,-241.64 495,-238.5 512.65,-231.45 557.52,-209.33 586.56,-194.81"/>
<polygon fill="#63b8ff" stroke="#63b8ff" points="593.94,-191.11 588.4,-197.91 590.36,-192.9 586.79,-194.69 586.79,-194.69 586.79,-194.69 590.36,-192.9 585.18,-191.47 593.94,-191.11 593.94,-191.11"/>
</a>
</g>
</g>
<!-- Node8&#45;&gt;Node3 -->
<g id="edge8_Node000008_Node000003" class="edge">
<title>Node8&#45;&gt;Node3</title>
<g id="a_edge8_Node000008_Node000003"><a xlink:title=" ">
<path fill="none" stroke="#63b8ff" d="M446.15,-348.37C468.18,-336.16 500.83,-319.3 531,-308.5 543.08,-304.18 556.51,-300.58 568.95,-297.73"/>
<polygon fill="#63b8ff" stroke="#63b8ff" points="576.96,-295.96 569.93,-301.2 573.06,-296.82 569.15,-297.69 569.15,-297.69 569.15,-297.69 573.06,-296.82 568.37,-294.17 576.96,-295.96 576.96,-295.96"/>
</a>
</g>
</g>
<!-- Node8&#45;&gt;Node7 -->
<g id="edge12_Node000008_Node000007" class="edge">
<title>Node8&#45;&gt;Node7</title>
<g id="a_edge12_Node000008_Node000007"><a xlink:title=" ">
<path fill="none" stroke="#63b8ff" d="M438.2,-378.79C469.51,-405.1 530.33,-456.17 531,-456.5 539.09,-460.48 548.07,-463.58 557.02,-466.01"/>
<polygon fill="#63b8ff" stroke="#63b8ff" points="564.86,-467.97 556.22,-469.52 560.98,-467 557.1,-466.03 557.1,-466.03 557.1,-466.03 560.98,-467 557.97,-462.53 564.86,-467.97 564.86,-467.97"/>
</a>
</g>
</g>
<!-- Node9 -->
<g id="Node000009" class="node">
<title>Node9</title>
<g id="a_Node000009"><a target="_parent" xlink:href="https://doc.qt.io/qt-5/qstring.html#fromLatin1" xlink:title=" ">
<polygon fill="white" stroke="#666666" points="670,-373 558,-373 558,-354 670,-354 670,-373"/>
<text text-anchor="middle" x="614" y="-361" font-family="Helvetica,sans-Serif" font-size="10.00">QString::fromLatin1</text>
</a>
</g>
</g>
<!-- Node8&#45;&gt;Node9 -->
<g id="edge9_Node000008_Node000009" class="edge">
<title>Node8&#45;&gt;Node9</title>
<g id="a_edge9_Node000008_Node000009"><a xlink:title=" ">
<path fill="none" stroke="#63b8ff" d="M495.17,-363.5C513.09,-363.5 532.04,-363.5 549.38,-363.5"/>
<polygon fill="#63b8ff" stroke="#63b8ff" points="557.76,-363.5 549.76,-367.1 553.76,-363.5 549.76,-363.5 549.76,-363.5 549.76,-363.5 553.76,-363.5 549.76,-359.9 557.76,-363.5 557.76,-363.5"/>
</a>
</g>
</g>
<!-- Node10 -->
<g id="Node000010" class="node">
<title>Node10</title>
<g id="a_Node000010"><a target="_parent" xlink:href="https://doc.qt.io/qt-5/qbytearray.html#left" xlink:title=" ">
<polygon fill="white" stroke="#666666" points="661,-336 567,-336 567,-317 661,-317 661,-336"/>
<text text-anchor="middle" x="614" y="-324" font-family="Helvetica,sans-Serif" font-size="10.00">QByteArray::left</text>
</a>
</g>
</g>
<!-- Node8&#45;&gt;Node10 -->
<g id="edge10_Node000008_Node000010" class="edge">
<title>Node8&#45;&gt;Node10</title>
<g id="a_edge10_Node000008_Node000010"><a xlink:title=" ">
<path fill="none" stroke="#63b8ff" d="M495.17,-349.09C516.38,-345.02 539.04,-340.68 558.76,-336.9"/>
<polygon fill="#63b8ff" stroke="#63b8ff" points="566.73,-335.37 559.55,-340.41 562.8,-336.12 558.88,-336.88 558.88,-336.88 558.88,-336.88 562.8,-336.12 558.2,-333.34 566.73,-335.37 566.73,-335.37"/>
</a>
</g>
</g>
<!-- Node11 -->
<g id="Node000011" class="node">
<title>Node11</title>
<g id="a_Node000011"><a target="_parent" xlink:href="https://doc.qt.io/qt-5/qbytearray.html#right" xlink:title=" ">
<polygon fill="white" stroke="#666666" points="664.5,-447 563.5,-447 563.5,-428 664.5,-428 664.5,-447"/>
<text text-anchor="middle" x="614" y="-435" font-family="Helvetica,sans-Serif" font-size="10.00">QByteArray::right</text>
</a>
</g>
</g>
<!-- Node8&#45;&gt;Node11 -->
<g id="edge11_Node000008_Node000011" class="edge">
<title>Node8&#45;&gt;Node11</title>
<g id="a_edge11_Node000008_Node000011"><a xlink:title=" ">
<path fill="none" stroke="#63b8ff" d="M445.2,-378.52C467.19,-391.06 500.29,-408.58 531,-419.5 538.81,-422.28 547.19,-424.71 555.5,-426.81"/>
<polygon fill="#63b8ff" stroke="#63b8ff" points="563.44,-428.72 554.81,-430.34 559.55,-427.78 555.66,-426.85 555.66,-426.85 555.66,-426.85 559.55,-427.78 556.5,-423.35 563.44,-428.72 563.44,-428.72"/>
</a>
</g>
</g>
<!-- Node12 -->
<g id="Node000012" class="node">
<title>Node12</title>
<g id="a_Node000012"><a target="_parent" xlink:href="https://doc.qt.io/qt-5/qbytearray.html#toHex" xlink:title=" ">
<polygon fill="white" stroke="#666666" points="667.5,-410 560.5,-410 560.5,-391 667.5,-391 667.5,-410"/>
<text text-anchor="middle" x="614" y="-398" font-family="Helvetica,sans-Serif" font-size="10.00">QByteArray::toHex</text>
</a>
</g>
</g>
<!-- Node8&#45;&gt;Node12 -->
<g id="edge13_Node000008_Node000012" class="edge">
<title>Node8&#45;&gt;Node12</title>
<g id="a_edge13_Node000008_Node000012"><a xlink:title=" ">
<path fill="none" stroke="#63b8ff" d="M495.17,-377.91C515.18,-381.75 536.47,-385.83 555.37,-389.45"/>
<polygon fill="#63b8ff" stroke="#63b8ff" points="563.31,-390.97 554.78,-393 559.38,-390.22 555.46,-389.47 555.46,-389.47 555.46,-389.47 559.38,-390.22 556.13,-385.93 563.31,-390.97 563.31,-390.97"/>
</a>
</g>
</g>
</g>
</svg>
