<?xml version="1.0" encoding="UTF-8" standalone="no"?>
<!DOCTYPE svg PUBLIC "-//W3C//DTD SVG 1.1//EN"
 "http://www.w3.org/Graphics/SVG/1.1/DTD/svg11.dtd">
<!-- Generated by graphviz version 2.43.0 (0)
 -->
<!-- Title: FlashLedCommand::serviceDetailsDiscovered Pages: 1 -->
<svg width="553pt" height="132pt"
 viewBox="0.00 0.00 553.00 131.69" xmlns="http://www.w3.org/2000/svg" xmlns:xlink="http://www.w3.org/1999/xlink">
<g id="graph0" class="graph" transform="scale(1 1) rotate(0) translate(4 127.69)">
<title>FlashLedCommand::serviceDetailsDiscovered</title>
<!-- Node1 -->
<g id="node1" class="node">
<title>Node1</title>
<g id="a_node1"><a xlink:title="Handles service detail discovery events.">
<polygon fill="#999999" stroke="#666666" points="152,-70.19 0,-70.19 0,-40.19 152,-40.19 152,-70.19"/>
<text text-anchor="start" x="8" y="-58.19" font-family="Helvetica,sans-Serif" font-size="10.00">FlashLedCommand::service</text>
<text text-anchor="middle" x="76" y="-47.19" font-family="Helvetica,sans-Serif" font-size="10.00">DetailsDiscovered</text>
</a>
</g>
</g>
<!-- Node2 -->
<g id="node2" class="node">
<title>Node2</title>
<g id="a_node2"><a target="_parent" xlink:href="https://doc.qt.io/qt-5/qcoreapplication.html#exit" xlink:title=" ">
<polygon fill="white" stroke="#666666" points="339,-123.69 213,-123.69 213,-104.69 339,-104.69 339,-123.69"/>
<text text-anchor="middle" x="276" y="-111.69" font-family="Helvetica,sans-Serif" font-size="10.00">QCoreApplication::exit</text>
</a>
</g>
</g>
<!-- Node1&#45;&gt;Node2 -->
<g id="edge1" class="edge">
<title>Node1&#45;&gt;Node2</title>
<path fill="none" stroke="#63b8ff" d="M113.54,-70.26C134.97,-78.7 162.72,-88.95 188,-96.19 195.8,-98.42 204.07,-100.5 212.28,-102.39"/>
<polygon fill="#63b8ff" stroke="#63b8ff" points="211.72,-105.85 222.24,-104.59 213.24,-99.01 211.72,-105.85"/>
</g>
<!-- Node3 -->
<g id="node3" class="node">
<title>Node3</title>
<g id="a_node3"><a xlink:href="classStatusService.html#a425bf65d42b24c4a621b312fcd152708" target="_top" xlink:title="Flash the Pokit device&#39;s LED.">
<polygon fill="white" stroke="#666666" points="341,-86.69 211,-86.69 211,-67.69 341,-67.69 341,-86.69"/>
<text text-anchor="middle" x="276" y="-74.69" font-family="Helvetica,sans-Serif" font-size="10.00">StatusService::flashLed</text>
</a>
</g>
</g>
<!-- Node1&#45;&gt;Node3 -->
<g id="edge2" class="edge">
<title>Node1&#45;&gt;Node3</title>
<path fill="none" stroke="#63b8ff" d="M152.14,-63.54C168.02,-65.3 184.78,-67.16 200.63,-68.92"/>
<polygon fill="#63b8ff" stroke="#63b8ff" points="200.58,-72.44 210.9,-70.06 201.35,-65.48 200.58,-72.44"/>
</g>
<!-- Node5 -->
<g id="node5" class="node">
<title>Node5</title>
<g id="a_node5"><a xlink:href="classDeviceCommand.html#a906fd97d832be0e8d2ba1c917fba41db" target="_top" xlink:title="Handles service detail discovery events.">
<polygon fill="white" stroke="#666666" points="364,-49.19 188,-49.19 188,-19.19 364,-19.19 364,-49.19"/>
<text text-anchor="start" x="196" y="-37.19" font-family="Helvetica,sans-Serif" font-size="10.00">DeviceCommand::serviceDetails</text>
<text text-anchor="middle" x="276" y="-26.19" font-family="Helvetica,sans-Serif" font-size="10.00">Discovered</text>
</a>
</g>
</g>
<!-- Node1&#45;&gt;Node5 -->
<g id="edge4" class="edge">
<title>Node1&#45;&gt;Node5</title>
<path fill="none" stroke="#63b8ff" d="M152.14,-47.22C160.55,-46.32 169.21,-45.41 177.85,-44.49"/>
<polygon fill="#63b8ff" stroke="#63b8ff" points="178.39,-47.95 187.97,-43.42 177.65,-40.99 178.39,-47.95"/>
</g>
<!-- Node6 -->
<g id="node6" class="node">
<title>Node6</title>
<g id="a_node6"><a target="_parent" xlink:href="https://doc.qt.io/qt-5/qobject.html#tr" xlink:title=" ">
<polygon fill="white" stroke="#666666" points="507,-22.69 438,-22.69 438,-3.69 507,-3.69 507,-22.69"/>
<text text-anchor="middle" x="472.5" y="-10.69" font-family="Helvetica,sans-Serif" font-size="10.00">QObject::tr</text>
</a>
</g>
</g>
<!-- Node1&#45;&gt;Node6 -->
<g id="edge6" class="edge">
<title>Node1&#45;&gt;Node6</title>
<path fill="none" stroke="#63b8ff" d="M105.27,-40.17C127.16,-29.44 158.61,-15.92 188,-10.19 271.68,6.13 371.92,-1.01 427.99,-7.33"/>
<polygon fill="#63b8ff" stroke="#63b8ff" points="427.59,-10.81 437.93,-8.49 428.41,-3.85 427.59,-10.81"/>
</g>
<!-- Node4 -->
<g id="node4" class="node">
<title>Node4</title>
<g id="a_node4"><a target="_parent" xlink:href="https://doc.qt.io/qt-5/qlowenergycharacteristic.html#isValid" xlink:title=" ">
<polygon fill="white" stroke="#666666" points="545,-92.19 400,-92.19 400,-62.19 545,-62.19 545,-92.19"/>
<text text-anchor="start" x="408" y="-80.19" font-family="Helvetica,sans-Serif" font-size="10.00">QLowEnergyCharacteristic</text>
<text text-anchor="middle" x="472.5" y="-69.19" font-family="Helvetica,sans-Serif" font-size="10.00">::isValid</text>
</a>
</g>
</g>
<!-- Node3&#45;&gt;Node4 -->
<g id="edge3" class="edge">
<title>Node3&#45;&gt;Node4</title>
<path fill="none" stroke="#63b8ff" d="M341.23,-77.19C356.8,-77.19 373.66,-77.19 389.92,-77.19"/>
<polygon fill="#63b8ff" stroke="#63b8ff" points="389.95,-80.69 399.95,-77.19 389.95,-73.69 389.95,-80.69"/>
</g>
<!-- Node5&#45;&gt;Node6 -->
<g id="edge5" class="edge">
<title>Node5&#45;&gt;Node6</title>
<path fill="none" stroke="#63b8ff" d="M364.01,-24.79C386.03,-22.41 408.75,-19.96 427.61,-17.93"/>
<polygon fill="#63b8ff" stroke="#63b8ff" points="428.09,-21.39 437.65,-16.84 427.33,-14.43 428.09,-21.39"/>
</g>
</g>
</svg>
