<?xml version="1.0" encoding="UTF-8" standalone="no"?>
<!DOCTYPE svg PUBLIC "-//W3C//DTD SVG 1.1//EN"
 "http://www.w3.org/Graphics/SVG/1.1/DTD/svg11.dtd">
<!-- Generated by graphviz version 2.43.0 (0)
 -->
<!-- Title: DsoServicePrivate::characteristicChanged Pages: 1 -->
<svg width="859pt" height="619pt"
 viewBox="0.00 0.00 859.00 618.80" xmlns="http://www.w3.org/2000/svg" xmlns:xlink="http://www.w3.org/1999/xlink">
<g id="graph0" class="graph" transform="scale(1 1) rotate(0) translate(4 614.8)">
<title>DsoServicePrivate::characteristicChanged</title>
<!-- Node1 -->
<g id="Node000001" class="node">
<title>Node1</title>
<g id="a_Node000001"><a xlink:title="Implements AbstractPokitServicePrivate::characteristicChanged to parse newValue, then emit a speciali...">
<polygon fill="#999999" stroke="#666666" points="125,-277.5 0,-277.5 0,-247.5 125,-247.5 125,-277.5"/>
<text text-anchor="start" x="8" y="-265.5" font-family="Helvetica,sans-Serif" font-size="10.00">DsoServicePrivate::</text>
<text text-anchor="middle" x="62.5" y="-254.5" font-family="Helvetica,sans-Serif" font-size="10.00">characteristicChanged</text>
</a>
</g>
</g>
<!-- Node2 -->
<g id="Node000002" class="node">
<title>Node2</title>
<g id="a_Node000002"><a xlink:href="classAbstractPokitServicePrivate.html#a642431b7bfb76baa5d976ae24e90d9ef" target="_top" xlink:title="Handles QLowEnergyService::characteristicChanged events.">
<polygon fill="white" stroke="#666666" points="313,-442.5 161,-442.5 161,-412.5 313,-412.5 313,-442.5"/>
<text text-anchor="start" x="169" y="-430.5" font-family="Helvetica,sans-Serif" font-size="10.00">AbstractPokitServicePrivate</text>
<text text-anchor="middle" x="237" y="-419.5" font-family="Helvetica,sans-Serif" font-size="10.00">::characteristicChanged</text>
</a>
</g>
</g>
<!-- Node1&#45;&gt;Node2 -->
<g id="edge1_Node000001_Node000002" class="edge">
<title>Node1&#45;&gt;Node2</title>
<g id="a_edge1_Node000001_Node000002"><a xlink:title=" ">
<path fill="none" stroke="#63b8ff" d="M79.42,-277.73C110.36,-307.32 178.64,-372.64 213.93,-406.39"/>
<polygon fill="#63b8ff" stroke="#63b8ff" points="220.12,-412.31 211.85,-409.38 217.23,-409.54 214.34,-406.78 214.34,-406.78 214.34,-406.78 217.23,-409.54 216.83,-404.18 220.12,-412.31 220.12,-412.31"/>
</a>
</g>
</g>
<!-- Node6 -->
<g id="Node000006" class="node">
<title>Node6</title>
<g id="a_Node000006"><a target="_parent" xlink:href="https://doc.qt.io/qt-5/qobject.html#tr" xlink:title=" ">
<polygon fill="white" stroke="#666666" points="654.5,-332 585.5,-332 585.5,-313 654.5,-313 654.5,-332"/>
<text text-anchor="middle" x="620" y="-320" font-family="Helvetica,sans-Serif" font-size="10.00">QObject::tr</text>
</a>
</g>
</g>
<!-- Node1&#45;&gt;Node6 -->
<g id="edge35_Node000001_Node000006" class="edge">
<title>Node1&#45;&gt;Node6</title>
<g id="a_edge35_Node000001_Node000006"><a xlink:title=" ">
<path fill="none" stroke="#63b8ff" d="M125.23,-266.99C210.08,-273.46 367.43,-286.51 501,-303.5 526.39,-306.73 554.71,-311.26 577.24,-315.08"/>
<polygon fill="#63b8ff" stroke="#63b8ff" points="585.26,-316.46 576.77,-318.66 581.32,-315.78 577.38,-315.11 577.38,-315.11 577.38,-315.11 581.32,-315.78 577.98,-311.56 585.26,-316.46 585.26,-316.46"/>
</a>
</g>
</g>
<!-- Node14 -->
<g id="Node000014" class="node">
<title>Node14</title>
<g id="a_Node000014"><a target="_parent" xlink:href="https://doc.qt.io/qt-5/qlowenergycharacteristic.html#uuid" xlink:title=" ">
<polygon fill="white" stroke="#666666" points="497.5,-342.5 352.5,-342.5 352.5,-312.5 497.5,-312.5 497.5,-342.5"/>
<text text-anchor="start" x="360.5" y="-330.5" font-family="Helvetica,sans-Serif" font-size="10.00">QLowEnergyCharacteristic</text>
<text text-anchor="middle" x="425" y="-319.5" font-family="Helvetica,sans-Serif" font-size="10.00">::uuid</text>
</a>
</g>
</g>
<!-- Node1&#45;&gt;Node14 -->
<g id="edge36_Node000001_Node000014" class="edge">
<title>Node1&#45;&gt;Node14</title>
<g id="a_edge36_Node000001_Node000014"><a xlink:title=" ">
<path fill="none" stroke="#63b8ff" d="M98.06,-277.61C116.43,-285.03 139.57,-293.44 161,-298.5 221.47,-312.77 291.47,-320.06 344.04,-323.76"/>
<polygon fill="#63b8ff" stroke="#63b8ff" points="352.32,-324.32 344.09,-327.37 348.33,-324.05 344.34,-323.78 344.34,-323.78 344.34,-323.78 348.33,-324.05 344.58,-320.19 352.32,-324.32 352.32,-324.32"/>
</a>
</g>
</g>
<!-- Node15 -->
<g id="Node000015" class="node">
<title>Node15</title>
<g id="a_Node000015"><a target="_parent" xlink:href="https://doc.qt.io/qt-5/qlowenergycharacteristic.html#name" xlink:title=" ">
<polygon fill="white" stroke="#666666" points="309.5,-256.5 164.5,-256.5 164.5,-226.5 309.5,-226.5 309.5,-256.5"/>
<text text-anchor="start" x="172.5" y="-244.5" font-family="Helvetica,sans-Serif" font-size="10.00">QLowEnergyCharacteristic</text>
<text text-anchor="middle" x="237" y="-233.5" font-family="Helvetica,sans-Serif" font-size="10.00">::name</text>
</a>
</g>
</g>
<!-- Node1&#45;&gt;Node15 -->
<g id="edge17_Node000001_Node000015" class="edge">
<title>Node1&#45;&gt;Node15</title>
<g id="a_edge17_Node000001_Node000015"><a xlink:title=" ">
<path fill="none" stroke="#63b8ff" d="M125.29,-254.98C135.38,-253.75 145.96,-252.46 156.41,-251.19"/>
<polygon fill="#63b8ff" stroke="#63b8ff" points="164.36,-250.22 156.86,-254.76 160.39,-250.7 156.42,-251.19 156.42,-251.19 156.42,-251.19 160.39,-250.7 155.99,-247.61 164.36,-250.22 164.36,-250.22"/>
</a>
</g>
</g>
<!-- Node16 -->
<g id="Node000016" class="node">
<title>Node16</title>
<g id="a_Node000016"><a xlink:href="classDsoServicePrivate.html#af869cf5b228bac719545511ba4247b88" target="_top" xlink:title="Parses the Metadata value into a DsoService::Metatdata struct.">
<polygon fill="white" stroke="#666666" points="293,-208.5 181,-208.5 181,-178.5 293,-178.5 293,-208.5"/>
<text text-anchor="start" x="189" y="-196.5" font-family="Helvetica,sans-Serif" font-size="10.00">DsoServicePrivate::</text>
<text text-anchor="middle" x="237" y="-185.5" font-family="Helvetica,sans-Serif" font-size="10.00">parseMetadata</text>
</a>
</g>
</g>
<!-- Node1&#45;&gt;Node16 -->
<g id="edge18_Node000001_Node000016" class="edge">
<title>Node1&#45;&gt;Node16</title>
<g id="a_edge18_Node000001_Node000016"><a xlink:title=" ">
<path fill="none" stroke="#63b8ff" d="M93.82,-247.33C112.86,-238.11 138.07,-226.42 161,-217.5 166.52,-215.35 172.32,-213.25 178.14,-211.23"/>
<polygon fill="#63b8ff" stroke="#63b8ff" points="186.08,-208.53 179.66,-214.51 182.29,-209.82 178.5,-211.1 178.5,-211.1 178.5,-211.1 182.29,-209.82 177.34,-207.69 186.08,-208.53 186.08,-208.53"/>
</a>
</g>
</g>
<!-- Node20 -->
<g id="Node000020" class="node">
<title>Node20</title>
<g id="a_Node000020"><a xlink:href="classDsoServicePrivate.html#a404aa10d2278131ea7f787ff5e354e8a" target="_top" xlink:title="Parses the Reading value into a DsoService::Samples vector.">
<polygon fill="white" stroke="#666666" points="481,-132.5 369,-132.5 369,-102.5 481,-102.5 481,-132.5"/>
<text text-anchor="start" x="377" y="-120.5" font-family="Helvetica,sans-Serif" font-size="10.00">DsoServicePrivate::</text>
<text text-anchor="middle" x="425" y="-109.5" font-family="Helvetica,sans-Serif" font-size="10.00">parseSamples</text>
</a>
</g>
</g>
<!-- Node1&#45;&gt;Node20 -->
<g id="edge27_Node000001_Node000020" class="edge">
<title>Node1&#45;&gt;Node20</title>
<g id="a_edge27_Node000001_Node000020"><a xlink:title=" ">
<path fill="none" stroke="#63b8ff" d="M74.84,-247.2C91.34,-226.14 124.04,-188.67 161,-169.5 224.11,-136.77 305.53,-124.58 360.95,-120.08"/>
<polygon fill="#63b8ff" stroke="#63b8ff" points="368.93,-119.47 361.23,-123.67 364.94,-119.77 360.96,-120.08 360.96,-120.08 360.96,-120.08 364.94,-119.77 360.68,-116.49 368.93,-119.47 368.93,-119.47"/>
</a>
</g>
</g>
<!-- Node3 -->
<g id="Node000003" class="node">
<title>Node3</title>
<g id="a_Node000003"><a target="_parent" xlink:href="https://doc.qt.io/qt-5/qstring.html#arg-1" xlink:title=" ">
<polygon fill="white" stroke="#666666" points="832,-293 758,-293 758,-274 832,-274 832,-293"/>
<text text-anchor="middle" x="795" y="-281" font-family="Helvetica,sans-Serif" font-size="10.00">QString::arg</text>
</a>
</g>
</g>
<!-- Node2&#45;&gt;Node3 -->
<g id="edge2_Node000002_Node000003" class="edge">
<title>Node2&#45;&gt;Node3</title>
<g id="a_edge2_Node000002_Node000003"><a xlink:title=" ">
<path fill="none" stroke="#63b8ff" d="M245.85,-442.63C261.24,-470.43 298.35,-528.86 349,-551.5 492.64,-615.7 575.11,-643.14 703,-551.5 786.48,-491.69 794.31,-350.92 794.37,-301.24"/>
<polygon fill="#63b8ff" stroke="#63b8ff" points="794.3,-293.06 797.96,-301.04 794.33,-297.06 794.36,-301.06 794.36,-301.06 794.36,-301.06 794.33,-297.06 790.76,-301.09 794.3,-293.06 794.3,-293.06"/>
</a>
</g>
</g>
<!-- Node4 -->
<g id="Node000004" class="node">
<title>Node4</title>
<g id="a_Node000004"><a xlink:href="classPokitDevice.html#a0a3e6078ce0a7c2d93171ef0f4183d61" target="_top" xlink:title="Returns a human&#45;readable name for the uuid characteristic, or a null QString if unknown.">
<polygon fill="white" stroke="#666666" points="495.5,-542.5 354.5,-542.5 354.5,-512.5 495.5,-512.5 495.5,-542.5"/>
<text text-anchor="start" x="362.5" y="-530.5" font-family="Helvetica,sans-Serif" font-size="10.00">PokitDevice::charcteristic</text>
<text text-anchor="middle" x="425" y="-519.5" font-family="Helvetica,sans-Serif" font-size="10.00">ToString</text>
</a>
</g>
</g>
<!-- Node2&#45;&gt;Node4 -->
<g id="edge3_Node000002_Node000004" class="edge">
<title>Node2&#45;&gt;Node4</title>
<g id="a_edge3_Node000002_Node000004"><a xlink:title=" ">
<path fill="none" stroke="#63b8ff" d="M258.94,-442.7C280.71,-458.06 316.15,-481.85 349,-498.5 356.63,-502.36 364.9,-506.04 373.07,-509.4"/>
<polygon fill="#63b8ff" stroke="#63b8ff" points="380.52,-512.38 371.76,-512.75 376.81,-510.9 373.1,-509.41 373.1,-509.41 373.1,-509.41 376.81,-510.9 374.44,-506.07 380.52,-512.38 380.52,-512.38"/>
</a>
</g>
</g>
<!-- Node2&#45;&gt;Node6 -->
<g id="edge15_Node000002_Node000006" class="edge">
<title>Node2&#45;&gt;Node6</title>
<g id="a_edge15_Node000002_Node000006"><a xlink:title=" ">
<path fill="none" stroke="#63b8ff" d="M313.07,-439.15C367.09,-444.45 440.76,-445.24 501,-422.5 546.73,-405.23 587.09,-361.96 606.59,-338.4"/>
<polygon fill="#63b8ff" stroke="#63b8ff" points="611.74,-332.04 609.5,-340.52 609.23,-335.15 606.71,-338.25 606.71,-338.25 606.71,-338.25 609.23,-335.15 603.91,-335.99 611.74,-332.04 611.74,-332.04"/>
</a>
</g>
</g>
<!-- Node7 -->
<g id="Node000007" class="node">
<title>Node7</title>
<g id="a_Node000007"><a target="_parent" xlink:href="https://doc.qt.io/qt-5/qbytearray.html#size" xlink:title=" ">
<polygon fill="white" stroke="#666666" points="844,-256 746,-256 746,-237 844,-237 844,-256"/>
<text text-anchor="middle" x="795" y="-244" font-family="Helvetica,sans-Serif" font-size="10.00">QByteArray::size</text>
</a>
</g>
</g>
<!-- Node2&#45;&gt;Node7 -->
<g id="edge6_Node000002_Node000007" class="edge">
<title>Node2&#45;&gt;Node7</title>
<g id="a_edge6_Node000002_Node000007"><a xlink:title=" ">
<path fill="none" stroke="#63b8ff" d="M301.36,-442.53C355.22,-452.79 434.2,-461.82 501,-445.5 599.29,-421.48 632.79,-413.36 703,-340.5 728.94,-313.59 710.96,-289.21 739,-264.5 740.8,-262.91 742.75,-261.46 744.79,-260.14"/>
<polygon fill="#63b8ff" stroke="#63b8ff" points="752.07,-256.12 746.81,-263.14 748.57,-258.06 745.07,-259.99 745.07,-259.99 745.07,-259.99 748.57,-258.06 743.33,-256.84 752.07,-256.12 752.07,-256.12"/>
</a>
</g>
</g>
<!-- Node8 -->
<g id="Node000008" class="node">
<title>Node8</title>
<g id="a_Node000008"><a xlink:href="classAbstractPokitServicePrivate.html#af748600fc201fe47f29b58e8e93179d8" target="_top" xlink:title="Returns up to maxSize bytes of data as a human readable hexadecimal string.">
<polygon fill="white" stroke="#666666" points="696,-218.5 544,-218.5 544,-188.5 696,-188.5 696,-218.5"/>
<text text-anchor="start" x="552" y="-206.5" font-family="Helvetica,sans-Serif" font-size="10.00">AbstractPokitServicePrivate</text>
<text text-anchor="middle" x="620" y="-195.5" font-family="Helvetica,sans-Serif" font-size="10.00">::toHexString</text>
</a>
</g>
</g>
<!-- Node2&#45;&gt;Node8 -->
<g id="edge7_Node000002_Node000008" class="edge">
<title>Node2&#45;&gt;Node8</title>
<g id="a_edge7_Node000002_Node000008"><a xlink:title=" ">
<path fill="none" stroke="#63b8ff" d="M313.05,-424.78C380.23,-420.91 472.41,-411.64 501,-389.5 533.76,-364.13 515.64,-339.01 537,-303.5 554.76,-273.99 580.67,-243.94 598.6,-224.59"/>
<polygon fill="#63b8ff" stroke="#63b8ff" points="604.12,-218.7 601.28,-227 601.38,-221.62 598.65,-224.54 598.65,-224.54 598.65,-224.54 601.38,-221.62 596.02,-222.08 604.12,-218.7 604.12,-218.7"/>
</a>
</g>
</g>
<!-- Node13 -->
<g id="Node000013" class="node">
<title>Node13</title>
<g id="a_Node000013"><a target="_parent" xlink:href="https://doc.qt.io/qt-5/quuid.html#toString" xlink:title=" ">
<polygon fill="white" stroke="#666666" points="470.5,-380 379.5,-380 379.5,-361 470.5,-361 470.5,-380"/>
<text text-anchor="middle" x="425" y="-368" font-family="Helvetica,sans-Serif" font-size="10.00">QUuid::toString</text>
</a>
</g>
</g>
<!-- Node2&#45;&gt;Node13 -->
<g id="edge14_Node000002_Node000013" class="edge">
<title>Node2&#45;&gt;Node13</title>
<g id="a_edge14_Node000002_Node000013"><a xlink:title=" ">
<path fill="none" stroke="#63b8ff" d="M287.36,-412.37C317.95,-403 356.7,-391.13 385.11,-382.42"/>
<polygon fill="#63b8ff" stroke="#63b8ff" points="392.83,-380.05 386.24,-385.84 389.01,-381.22 385.18,-382.4 385.18,-382.4 385.18,-382.4 389.01,-381.22 384.13,-378.95 392.83,-380.05 392.83,-380.05"/>
</a>
</g>
</g>
<!-- Node2&#45;&gt;Node14 -->
<g id="edge16_Node000002_Node000014" class="edge">
<title>Node2&#45;&gt;Node14</title>
<g id="a_edge16_Node000002_Node000014"><a xlink:title=" ">
<path fill="none" stroke="#63b8ff" d="M257.06,-412.24C278.42,-395.72 314.58,-369.47 349,-352.5 354.08,-350 359.47,-347.65 364.93,-345.48"/>
<polygon fill="#63b8ff" stroke="#63b8ff" points="372.42,-342.62 366.23,-348.84 368.68,-344.05 364.94,-345.47 364.94,-345.47 364.94,-345.47 368.68,-344.05 363.66,-342.11 372.42,-342.62 372.42,-342.62"/>
</a>
</g>
</g>
<!-- Node5 -->
<g id="Node000005" class="node">
<title>Node5</title>
<g id="a_Node000005"><a target="_parent" xlink:href="https://doc.qt.io/qt-5/qbluetoothuuid.html#characteristicToString" xlink:title=" ">
<polygon fill="white" stroke="#666666" points="703,-542.5 537,-542.5 537,-512.5 703,-512.5 703,-542.5"/>
<text text-anchor="start" x="545" y="-530.5" font-family="Helvetica,sans-Serif" font-size="10.00">QBluetoothUuid::characteristic</text>
<text text-anchor="middle" x="620" y="-519.5" font-family="Helvetica,sans-Serif" font-size="10.00">ToString</text>
</a>
</g>
</g>
<!-- Node4&#45;&gt;Node5 -->
<g id="edge4_Node000004_Node000005" class="edge">
<title>Node4&#45;&gt;Node5</title>
<g id="a_edge4_Node000004_Node000005"><a xlink:title=" ">
<path fill="none" stroke="#63b8ff" d="M495.68,-527.5C506.45,-527.5 517.71,-527.5 528.85,-527.5"/>
<polygon fill="#63b8ff" stroke="#63b8ff" points="536.94,-527.5 528.94,-531.1 532.94,-527.5 528.94,-527.5 528.94,-527.5 528.94,-527.5 532.94,-527.5 528.94,-523.9 536.94,-527.5 536.94,-527.5"/>
</a>
</g>
</g>
<!-- Node4&#45;&gt;Node6 -->
<g id="edge5_Node000004_Node000006" class="edge">
<title>Node4&#45;&gt;Node6</title>
<g id="a_edge5_Node000004_Node000006"><a xlink:title=" ">
<path fill="none" stroke="#63b8ff" d="M444.2,-512.44C459.78,-499.27 482.56,-479.34 501,-460.5 541.88,-418.72 585.45,-365.06 606.36,-338.65"/>
<polygon fill="#63b8ff" stroke="#63b8ff" points="611.41,-332.26 609.28,-340.77 608.93,-335.4 606.46,-338.54 606.46,-338.54 606.46,-338.54 608.93,-335.4 603.63,-336.31 611.41,-332.26 611.41,-332.26"/>
</a>
</g>
</g>
<!-- Node8&#45;&gt;Node3 -->
<g id="edge8_Node000008_Node000003" class="edge">
<title>Node8&#45;&gt;Node3</title>
<g id="a_edge8_Node000008_Node000003"><a xlink:title=" ">
<path fill="none" stroke="#63b8ff" d="M647.65,-218.69C671.22,-231.78 706.78,-250.69 739,-264.5 744.43,-266.83 750.24,-269.08 755.98,-271.17"/>
<polygon fill="#63b8ff" stroke="#63b8ff" points="763.73,-273.92 754.99,-274.64 759.96,-272.58 756.19,-271.25 756.19,-271.25 756.19,-271.25 759.96,-272.58 757.39,-267.85 763.73,-273.92 763.73,-273.92"/>
</a>
</g>
</g>
<!-- Node8&#45;&gt;Node7 -->
<g id="edge12_Node000008_Node000007" class="edge">
<title>Node8&#45;&gt;Node7</title>
<g id="a_edge12_Node000008_Node000007"><a xlink:title=" ">
<path fill="none" stroke="#63b8ff" d="M681.51,-218.54C703.27,-223.95 727.45,-229.96 747.8,-235.02"/>
<polygon fill="#63b8ff" stroke="#63b8ff" points="755.69,-236.98 747.06,-238.54 751.81,-236.01 747.93,-235.05 747.93,-235.05 747.93,-235.05 751.81,-236.01 748.79,-231.55 755.69,-236.98 755.69,-236.98"/>
</a>
</g>
</g>
<!-- Node9 -->
<g id="Node000009" class="node">
<title>Node9</title>
<g id="a_Node000009"><a target="_parent" xlink:href="https://doc.qt.io/qt-5/qstring.html#fromLatin1" xlink:title=" ">
<polygon fill="white" stroke="#666666" points="851,-219 739,-219 739,-200 851,-200 851,-219"/>
<text text-anchor="middle" x="795" y="-207" font-family="Helvetica,sans-Serif" font-size="10.00">QString::fromLatin1</text>
</a>
</g>
</g>
<!-- Node8&#45;&gt;Node9 -->
<g id="edge9_Node000008_Node000009" class="edge">
<title>Node8&#45;&gt;Node9</title>
<g id="a_edge9_Node000008_Node000009"><a xlink:title=" ">
<path fill="none" stroke="#63b8ff" d="M696.13,-206.11C707.72,-206.51 719.59,-206.92 730.89,-207.31"/>
<polygon fill="#63b8ff" stroke="#63b8ff" points="739,-207.59 730.88,-210.91 735,-207.45 731,-207.31 731,-207.31 731,-207.31 735,-207.45 731.13,-203.72 739,-207.59 739,-207.59"/>
</a>
</g>
</g>
<!-- Node10 -->
<g id="Node000010" class="node">
<title>Node10</title>
<g id="a_Node000010"><a target="_parent" xlink:href="https://doc.qt.io/qt-5/qbytearray.html#left" xlink:title=" ">
<polygon fill="white" stroke="#666666" points="842,-182 748,-182 748,-163 842,-163 842,-182"/>
<text text-anchor="middle" x="795" y="-170" font-family="Helvetica,sans-Serif" font-size="10.00">QByteArray::left</text>
</a>
</g>
</g>
<!-- Node8&#45;&gt;Node10 -->
<g id="edge10_Node000008_Node000010" class="edge">
<title>Node8&#45;&gt;Node10</title>
<g id="a_edge10_Node000008_Node000010"><a xlink:title=" ">
<path fill="none" stroke="#63b8ff" d="M696.13,-190.04C710.76,-187.42 725.84,-184.71 739.64,-182.24"/>
<polygon fill="#63b8ff" stroke="#63b8ff" points="747.61,-180.81 740.37,-185.77 743.67,-181.52 739.74,-182.22 739.74,-182.22 739.74,-182.22 743.67,-181.52 739.1,-178.68 747.61,-180.81 747.61,-180.81"/>
</a>
</g>
</g>
<!-- Node11 -->
<g id="Node000011" class="node">
<title>Node11</title>
<g id="a_Node000011"><a target="_parent" xlink:href="https://doc.qt.io/qt-5/qbytearray.html#right" xlink:title=" ">
<polygon fill="white" stroke="#666666" points="845.5,-145 744.5,-145 744.5,-126 845.5,-126 845.5,-145"/>
<text text-anchor="middle" x="795" y="-133" font-family="Helvetica,sans-Serif" font-size="10.00">QByteArray::right</text>
</a>
</g>
</g>
<!-- Node8&#45;&gt;Node11 -->
<g id="edge11_Node000008_Node000011" class="edge">
<title>Node8&#45;&gt;Node11</title>
<g id="a_edge11_Node000008_Node000011"><a xlink:title=" ">
<path fill="none" stroke="#63b8ff" d="M678.78,-188.38C687.07,-185.49 695.37,-182.2 703,-178.5 720.53,-170 721.56,-162.18 739,-153.5 743.15,-151.44 747.59,-149.53 752.08,-147.8"/>
<polygon fill="#63b8ff" stroke="#63b8ff" points="759.64,-145.04 753.36,-151.16 755.88,-146.41 752.13,-147.78 752.13,-147.78 752.13,-147.78 755.88,-146.41 750.89,-144.4 759.64,-145.04 759.64,-145.04"/>
</a>
</g>
</g>
<!-- Node12 -->
<g id="Node000012" class="node">
<title>Node12</title>
<g id="a_Node000012"><a target="_parent" xlink:href="https://doc.qt.io/qt-5/qbytearray.html#toHex" xlink:title=" ">
<polygon fill="white" stroke="#666666" points="848.5,-108 741.5,-108 741.5,-89 848.5,-89 848.5,-108"/>
<text text-anchor="middle" x="795" y="-96" font-family="Helvetica,sans-Serif" font-size="10.00">QByteArray::toHex</text>
</a>
</g>
</g>
<!-- Node8&#45;&gt;Node12 -->
<g id="edge13_Node000008_Node000012" class="edge">
<title>Node8&#45;&gt;Node12</title>
<g id="a_edge13_Node000008_Node000012"><a xlink:title=" ">
<path fill="none" stroke="#63b8ff" d="M686.83,-188.44C692.6,-185.67 698.1,-182.38 703,-178.5 727.97,-158.7 714.23,-136.55 739,-116.5 741.11,-114.79 743.38,-113.25 745.77,-111.84"/>
<polygon fill="#63b8ff" stroke="#63b8ff" points="753.19,-108.06 747.7,-114.9 749.62,-109.88 746.06,-111.7 746.06,-111.7 746.06,-111.7 749.62,-109.88 744.42,-108.49 753.19,-108.06 753.19,-108.06"/>
</a>
</g>
</g>
<!-- Node17 -->
<g id="Node000017" class="node">
<title>Node17</title>
<g id="a_Node000017"><a target="_parent" xlink:href="https://doc.qt.io/qt-5/qbytearray.html#at" xlink:title=" ">
<polygon fill="white" stroke="#666666" points="469,-256 381,-256 381,-237 469,-237 469,-256"/>
<text text-anchor="middle" x="425" y="-244" font-family="Helvetica,sans-Serif" font-size="10.00">QByteArray::at</text>
</a>
</g>
</g>
<!-- Node16&#45;&gt;Node17 -->
<g id="edge19_Node000016_Node000017" class="edge">
<title>Node16&#45;&gt;Node17</title>
<g id="a_edge19_Node000016_Node000017"><a xlink:title=" ">
<path fill="none" stroke="#63b8ff" d="M285.38,-208.57C305.01,-214.67 328.04,-221.64 349,-227.5 357.9,-229.99 367.44,-232.51 376.63,-234.88"/>
<polygon fill="#63b8ff" stroke="#63b8ff" points="384.59,-236.9 375.95,-238.42 380.71,-235.92 376.84,-234.93 376.84,-234.93 376.84,-234.93 380.71,-235.92 377.73,-231.44 384.59,-236.9 384.59,-236.9"/>
</a>
</g>
</g>
<!-- Node18 -->
<g id="Node000018" class="node">
<title>Node18</title>
<g id="a_Node000018"><a xlink:href="classAbstractPokitServicePrivate.html#af8b480a950244540bfff7fc4b476a0ef" target="_top" xlink:title="Returns false if data is smaller than minSize, otherwise returns failOnMax if data is bigger than max...">
<polygon fill="white" stroke="#666666" points="501,-218.5 349,-218.5 349,-188.5 501,-188.5 501,-218.5"/>
<text text-anchor="start" x="357" y="-206.5" font-family="Helvetica,sans-Serif" font-size="10.00">AbstractPokitServicePrivate</text>
<text text-anchor="middle" x="425" y="-195.5" font-family="Helvetica,sans-Serif" font-size="10.00">::checkSize</text>
</a>
</g>
</g>
<!-- Node16&#45;&gt;Node18 -->
<g id="edge20_Node000016_Node000018" class="edge">
<title>Node16&#45;&gt;Node18</title>
<g id="a_edge20_Node000016_Node000018"><a xlink:title=" ">
<path fill="none" stroke="#63b8ff" d="M293.05,-196.46C307.92,-197.26 324.35,-198.14 340.41,-199.01"/>
<polygon fill="#63b8ff" stroke="#63b8ff" points="348.76,-199.45 340.57,-202.62 344.76,-199.24 340.77,-199.03 340.77,-199.03 340.77,-199.03 344.76,-199.24 340.96,-195.43 348.76,-199.45 348.76,-199.45"/>
</a>
</g>
</g>
<!-- Node19 -->
<g id="Node000019" class="node">
<title>Node19</title>
<g id="a_Node000019"><a target="_parent" xlink:href="https://doc.qt.io/qt-5/qbytearray.html#mid" xlink:title=" ">
<polygon fill="white" stroke="#666666" points="668.5,-170 571.5,-170 571.5,-151 668.5,-151 668.5,-170"/>
<text text-anchor="middle" x="620" y="-158" font-family="Helvetica,sans-Serif" font-size="10.00">QByteArray::mid</text>
</a>
</g>
</g>
<!-- Node16&#45;&gt;Node19 -->
<g id="edge26_Node000016_Node000019" class="edge">
<title>Node16&#45;&gt;Node19</title>
<g id="a_edge26_Node000016_Node000019"><a xlink:title=" ">
<path fill="none" stroke="#63b8ff" d="M293.26,-185.92C311.04,-183.65 330.83,-181.28 349,-179.5 422.84,-172.25 508.31,-166.72 562.97,-163.54"/>
<polygon fill="#63b8ff" stroke="#63b8ff" points="571.14,-163.07 563.36,-167.12 567.14,-163.3 563.15,-163.53 563.15,-163.53 563.15,-163.53 567.14,-163.3 562.94,-159.93 571.14,-163.07 571.14,-163.07"/>
</a>
</g>
</g>
<!-- Node18&#45;&gt;Node3 -->
<g id="edge21_Node000018_Node000003" class="edge">
<title>Node18&#45;&gt;Node3</title>
<g id="a_edge21_Node000018_Node000003"><a xlink:title=" ">
<path fill="none" stroke="#63b8ff" d="M478.66,-218.58C486.27,-221.27 493.91,-224.26 501,-227.5 518.05,-235.3 519.32,-243.25 537,-249.5 608.69,-274.86 697.7,-281.56 749.94,-283.18"/>
<polygon fill="#63b8ff" stroke="#63b8ff" points="758,-283.4 749.9,-286.78 754,-283.29 750,-283.18 750,-283.18 750,-283.18 754,-283.29 750.1,-279.58 758,-283.4 758,-283.4"/>
</a>
</g>
</g>
<!-- Node18&#45;&gt;Node6 -->
<g id="edge25_Node000018_Node000006" class="edge">
<title>Node18&#45;&gt;Node6</title>
<g id="a_edge25_Node000018_Node000006"><a xlink:title=" ">
<path fill="none" stroke="#63b8ff" d="M487.56,-218.55C492.38,-221.08 496.94,-224.04 501,-227.5 527.93,-250.44 509.78,-275.89 537,-298.5 548.35,-307.93 563.26,-313.65 577.25,-317.13"/>
<polygon fill="#63b8ff" stroke="#63b8ff" points="585.35,-318.93 576.76,-320.71 581.44,-318.06 577.54,-317.19 577.54,-317.19 577.54,-317.19 581.44,-318.06 578.32,-313.68 585.35,-318.93 585.35,-318.93"/>
</a>
</g>
</g>
<!-- Node18&#45;&gt;Node7 -->
<g id="edge23_Node000018_Node000007" class="edge">
<title>Node18&#45;&gt;Node7</title>
<g id="a_edge23_Node000018_Node000007"><a xlink:title=" ">
<path fill="none" stroke="#63b8ff" d="M488.24,-218.55C504.07,-221.94 521.1,-225.2 537,-227.5 605.72,-237.42 685.57,-242.3 737.8,-244.6"/>
<polygon fill="#63b8ff" stroke="#63b8ff" points="745.94,-244.94 737.8,-248.2 741.95,-244.77 737.95,-244.6 737.95,-244.6 737.95,-244.6 741.95,-244.77 738.11,-241.01 745.94,-244.94 745.94,-244.94"/>
</a>
</g>
</g>
<!-- Node18&#45;&gt;Node8 -->
<g id="edge24_Node000018_Node000008" class="edge">
<title>Node18&#45;&gt;Node8</title>
<g id="a_edge24_Node000018_Node000008"><a xlink:title=" ">
<path fill="none" stroke="#63b8ff" d="M501.17,-203.5C512.41,-203.5 524.06,-203.5 535.47,-203.5"/>
<polygon fill="#63b8ff" stroke="#63b8ff" points="543.72,-203.5 535.72,-207.1 539.72,-203.5 535.72,-203.5 535.72,-203.5 535.72,-203.5 539.72,-203.5 535.72,-199.9 543.72,-203.5 543.72,-203.5"/>
</a>
</g>
</g>
<!-- Node18&#45;&gt;Node19 -->
<g id="edge22_Node000018_Node000019" class="edge">
<title>Node18&#45;&gt;Node19</title>
<g id="a_edge22_Node000018_Node000019"><a xlink:title=" ">
<path fill="none" stroke="#63b8ff" d="M493.5,-188.46C518.1,-182.98 545.48,-176.88 568.36,-171.78"/>
<polygon fill="#63b8ff" stroke="#63b8ff" points="576.26,-170.02 569.23,-175.28 572.36,-170.89 568.45,-171.76 568.45,-171.76 568.45,-171.76 572.36,-170.89 567.67,-168.25 576.26,-170.02 576.26,-170.02"/>
</a>
</g>
</g>
<!-- Node20&#45;&gt;Node3 -->
<g id="edge29_Node000020_Node000003" class="edge">
<title>Node20&#45;&gt;Node3</title>
<g id="a_edge29_Node000020_Node000003"><a xlink:title=" ">
<path fill="none" stroke="#63b8ff" d="M481.22,-115.17C552.21,-113.34 670.23,-114.66 703,-141.5 747.07,-177.59 699.7,-223.27 739,-264.5 742.3,-267.97 746.27,-270.8 750.54,-273.12"/>
<polygon fill="#63b8ff" stroke="#63b8ff" points="757.95,-276.55 749.18,-276.45 754.32,-274.87 750.69,-273.19 750.69,-273.19 750.69,-273.19 754.32,-274.87 752.2,-269.92 757.95,-276.55 757.95,-276.55"/>
</a>
</g>
</g>
<!-- Node20&#45;&gt;Node6 -->
<g id="edge34_Node000020_Node000006" class="edge">
<title>Node20&#45;&gt;Node6</title>
<g id="a_edge34_Node000020_Node000006"><a xlink:title=" ">
<path fill="none" stroke="#63b8ff" d="M446.86,-132.61C462.58,-144.48 484.21,-161.9 501,-179.5 519.41,-198.8 520.28,-206.73 537,-227.5 560,-256.07 588.2,-288.14 604.83,-306.76"/>
<polygon fill="#63b8ff" stroke="#63b8ff" points="610.4,-312.98 602.38,-309.42 607.73,-310 605.06,-307.02 605.06,-307.02 605.06,-307.02 607.73,-310 607.74,-304.61 610.4,-312.98 610.4,-312.98"/>
</a>
</g>
</g>
<!-- Node20&#45;&gt;Node7 -->
<g id="edge31_Node000020_Node000007" class="edge">
<title>Node20&#45;&gt;Node7</title>
<g id="a_edge31_Node000020_Node000007"><a xlink:title=" ">
<path fill="none" stroke="#63b8ff" d="M464.91,-102.43C522.95,-82.73 632.88,-56.45 703,-108.5 747.37,-141.43 700.69,-187.68 739,-227.5 740.86,-229.43 742.92,-231.16 745.12,-232.72"/>
<polygon fill="#63b8ff" stroke="#63b8ff" points="752.1,-236.89 743.38,-235.88 748.66,-234.84 745.23,-232.78 745.23,-232.78 745.23,-232.78 748.66,-234.84 747.07,-229.69 752.1,-236.89 752.1,-236.89"/>
</a>
</g>
</g>
<!-- Node20&#45;&gt;Node8 -->
<g id="edge33_Node000020_Node000008" class="edge">
<title>Node20&#45;&gt;Node8</title>
<g id="a_edge33_Node000020_Node000008"><a xlink:title=" ">
<path fill="none" stroke="#63b8ff" d="M449.96,-132.57C471.97,-145.94 505.8,-165.34 537,-178.5 543.11,-181.08 549.58,-183.52 556.09,-185.78"/>
<polygon fill="#63b8ff" stroke="#63b8ff" points="563.75,-188.37 555.02,-189.22 559.96,-187.09 556.17,-185.81 556.17,-185.81 556.17,-185.81 559.96,-187.09 557.32,-182.4 563.75,-188.37 563.75,-188.37"/>
</a>
</g>
</g>
<!-- Node20&#45;&gt;Node19 -->
<g id="edge30_Node000020_Node000019" class="edge">
<title>Node20&#45;&gt;Node19</title>
<g id="a_edge30_Node000020_Node000019"><a xlink:title=" ">
<path fill="none" stroke="#63b8ff" d="M481.05,-129.76C508.41,-135.86 541.26,-143.18 568.05,-149.15"/>
<polygon fill="#63b8ff" stroke="#63b8ff" points="576.15,-150.95 567.56,-152.73 572.24,-150.08 568.34,-149.21 568.34,-149.21 568.34,-149.21 572.24,-150.08 569.12,-145.7 576.15,-150.95 576.15,-150.95"/>
</a>
</g>
</g>
<!-- Node21 -->
<g id="Node000021" class="node">
<title>Node21</title>
<g id="a_Node000021"><a target="_parent" xlink:href="https://doc.qt.io/qt-5/qvector.html#append" xlink:title=" ">
<polygon fill="white" stroke="#666666" points="668.5,-56 571.5,-56 571.5,-37 668.5,-37 668.5,-56"/>
<text text-anchor="middle" x="620" y="-44" font-family="Helvetica,sans-Serif" font-size="10.00">QVector::append</text>
</a>
</g>
</g>
<!-- Node20&#45;&gt;Node21 -->
<g id="edge28_Node000020_Node000021" class="edge">
<title>Node20&#45;&gt;Node21</title>
<g id="a_edge28_Node000020_Node000021"><a xlink:title=" ">
<path fill="none" stroke="#63b8ff" d="M459.12,-102.29C480.98,-92.54 510.39,-79.99 537,-70.5 549.26,-66.13 562.76,-61.93 575.2,-58.3"/>
<polygon fill="#63b8ff" stroke="#63b8ff" points="583.19,-56.01 576.5,-61.68 579.35,-57.11 575.5,-58.22 575.5,-58.22 575.5,-58.22 579.35,-57.11 574.51,-54.76 583.19,-56.01 583.19,-56.01"/>
</a>
</g>
</g>
<!-- Node22 -->
<g id="Node000022" class="node">
<title>Node22</title>
<g id="a_Node000022"><a target="_parent" xlink:href="https://doc.qt.io/qt-5/qvector.html#size" xlink:title=" ">
<polygon fill="white" stroke="#666666" points="660,-19 580,-19 580,0 660,0 660,-19"/>
<text text-anchor="middle" x="620" y="-7" font-family="Helvetica,sans-Serif" font-size="10.00">QVector::size</text>
</a>
</g>
</g>
<!-- Node20&#45;&gt;Node22 -->
<g id="edge32_Node000020_Node000022" class="edge">
<title>Node20&#45;&gt;Node22</title>
<g id="a_edge32_Node000020_Node000022"><a xlink:title=" ">
<path fill="none" stroke="#63b8ff" d="M440.22,-102.18C459.95,-81.88 497.66,-46.44 537,-27.5 547.78,-22.31 560.07,-18.6 571.8,-15.95"/>
<polygon fill="#63b8ff" stroke="#63b8ff" points="579.81,-14.28 572.71,-19.44 575.89,-15.1 571.98,-15.92 571.98,-15.92 571.98,-15.92 575.89,-15.1 571.24,-12.39 579.81,-14.28 579.81,-14.28"/>
</a>
</g>
</g>
</g>
</svg>
