<?xml version="1.0" encoding="UTF-8" standalone="no"?>
<!DOCTYPE svg PUBLIC "-//W3C//DTD SVG 1.1//EN"
 "http://www.w3.org/Graphics/SVG/1.1/DTD/svg11.dtd">
<!-- Generated by graphviz version 2.43.0 (0)
 -->
<!-- Title: DeviceCommand Pages: 1 -->
<svg width="1221pt" height="644pt"
 viewBox="0.00 0.00 1221.00 644.00" xmlns="http://www.w3.org/2000/svg" xmlns:xlink="http://www.w3.org/1999/xlink">
<g id="graph0" class="graph" transform="scale(1 1) rotate(0) translate(4 640)">
<title>DeviceCommand</title>
<!-- Node1 -->
<g id="node1" class="node">
<title>Node1</title>
<g id="a_node1"><a xlink:title="The AbstractCommand class extends AbstractCommand to add a PokitDevice instance.">
<polygon fill="#bfbfbf" stroke="black" points="853.5,-517.5 853.5,-536.5 954.5,-536.5 954.5,-517.5 853.5,-517.5"/>
<text text-anchor="middle" x="904" y="-524.5" font-family="Helvetica,sans-Serif" font-size="10.00">DeviceCommand</text>
</a>
</g>
</g>
<!-- Node2 -->
<g id="node2" class="node">
<title>Node2</title>
<g id="a_node2"><a xlink:href="classAbstractCommand.html" target="_top" xlink:title="The AbstractCommand class provides a consistent base for the classes that implement CLI commands.">
<polygon fill="none" stroke="black" points="640,-565.5 640,-584.5 747,-584.5 747,-565.5 640,-565.5"/>
<text text-anchor="middle" x="693.5" y="-572.5" font-family="Helvetica,sans-Serif" font-size="10.00">AbstractCommand</text>
</a>
</g>
</g>
<!-- Node2&#45;&gt;Node1 -->
<g id="edge1" class="edge">
<title>Node2&#45;&gt;Node1</title>
<path fill="none" stroke="midnightblue" d="M746.36,-563.06C781.86,-554.89 828.3,-544.2 861.38,-536.58"/>
<polygon fill="midnightblue" stroke="midnightblue" points="745.15,-559.75 736.19,-565.4 746.72,-566.57 745.15,-559.75"/>
</g>
<!-- Node3 -->
<g id="node3" class="node">
<title>Node3</title>
<g id="a_node3"><a target="_parent" xlink:href="https://doc.qt.io/qt-5/qobject.html" xlink:title=" ">
<polygon fill="none" stroke="#bfbfbf" points="0,-375.5 0,-394.5 56,-394.5 56,-375.5 0,-375.5"/>
<text text-anchor="middle" x="28" y="-382.5" font-family="Helvetica,sans-Serif" font-size="10.00">QObject</text>
</a>
</g>
</g>
<!-- Node3&#45;&gt;Node2 -->
<g id="edge2" class="edge">
<title>Node3&#45;&gt;Node2</title>
<path fill="none" stroke="midnightblue" d="M31.24,-404.67C36.1,-437.18 50.79,-501.56 93,-532 179.54,-594.4 510.38,-584.55 639.98,-578.06"/>
<polygon fill="midnightblue" stroke="midnightblue" points="34.69,-404.06 29.91,-394.6 27.75,-404.98 34.69,-404.06"/>
</g>
<!-- Node5 -->
<g id="node5" class="node">
<title>Node5</title>
<g id="a_node5"><a target="_parent" xlink:href="https://doc.qt.io/qt-5/qbluetoothdevicediscoveryagent.html" xlink:title=" ">
<polygon fill="none" stroke="#bfbfbf" points="93,-493 93,-523 247,-523 247,-493 93,-493"/>
<text text-anchor="start" x="101" y="-511" font-family="Helvetica,sans-Serif" font-size="10.00">QBluetoothDeviceDiscovery</text>
<text text-anchor="middle" x="170" y="-500" font-family="Helvetica,sans-Serif" font-size="10.00">Agent</text>
</a>
</g>
</g>
<!-- Node3&#45;&gt;Node5 -->
<g id="edge5" class="edge">
<title>Node3&#45;&gt;Node5</title>
<path fill="none" stroke="midnightblue" d="M33.96,-404.34C40.12,-424.63 52.53,-456.14 74,-475 82.53,-482.49 92.85,-488.3 103.5,-492.81"/>
<polygon fill="midnightblue" stroke="midnightblue" points="37.31,-403.31 31.23,-394.63 30.57,-405.2 37.31,-403.31"/>
</g>
<!-- Node6 -->
<g id="node6" class="node">
<title>Node6</title>
<g id="a_node6"><a xlink:href="classPokitDiscoveryAgentPrivate.html" target="_top" xlink:title="The PokitDiscoveryAgentPrivate class provides private implementation for PokitDiscoveryAgent.">
<polygon fill="none" stroke="black" points="617,-484.5 617,-503.5 770,-503.5 770,-484.5 617,-484.5"/>
<text text-anchor="middle" x="693.5" y="-491.5" font-family="Helvetica,sans-Serif" font-size="10.00">PokitDiscoveryAgentPrivate</text>
</a>
</g>
</g>
<!-- Node3&#45;&gt;Node6 -->
<g id="edge7" class="edge">
<title>Node3&#45;&gt;Node6</title>
<path fill="none" stroke="midnightblue" d="M47.83,-401.23C59.92,-410.69 76.41,-421.93 93,-428 99.11,-430.23 457.08,-468.78 616.88,-485.91"/>
<polygon fill="midnightblue" stroke="midnightblue" points="49.83,-398.35 39.87,-394.75 45.41,-403.77 49.83,-398.35"/>
</g>
<!-- Node8 -->
<g id="node8" class="node">
<title>Node8</title>
<g id="a_node8"><a xlink:href="classPokitDevice.html" target="_top" xlink:title="The PokitDevice class simplifies Pokit device access.">
<polygon fill="none" stroke="black" points="656,-434.5 656,-453.5 731,-453.5 731,-434.5 656,-434.5"/>
<text text-anchor="middle" x="693.5" y="-441.5" font-family="Helvetica,sans-Serif" font-size="10.00">PokitDevice</text>
</a>
</g>
</g>
<!-- Node3&#45;&gt;Node8 -->
<g id="edge11" class="edge">
<title>Node3&#45;&gt;Node8</title>
<path fill="none" stroke="midnightblue" d="M66,-397.24C68.69,-397.91 71.38,-398.5 74,-399 291.91,-440.26 559.61,-444.26 655.87,-444.24"/>
<polygon fill="midnightblue" stroke="midnightblue" points="66.92,-393.86 56.35,-394.6 65.08,-400.62 66.92,-393.86"/>
</g>
<!-- Node9 -->
<g id="node9" class="node">
<title>Node9</title>
<g id="a_node9"><a xlink:href="classPokitDevicePrivate.html" target="_top" xlink:title="The PokitDevicePrivate class provides private implementation for PokitDevice.">
<polygon fill="none" stroke="black" points="1103,-251.5 1103,-270.5 1213,-270.5 1213,-251.5 1103,-251.5"/>
<text text-anchor="middle" x="1158" y="-258.5" font-family="Helvetica,sans-Serif" font-size="10.00">PokitDevicePrivate</text>
</a>
</g>
</g>
<!-- Node3&#45;&gt;Node9 -->
<g id="edge13" class="edge">
<title>Node3&#45;&gt;Node9</title>
<path fill="none" stroke="midnightblue" d="M66.31,-385C94.52,-385 134.19,-385 169,-385 169,-385 169,-385 905,-385 1008.37,-385 1113.35,-299.96 1146.39,-270.73"/>
<polygon fill="midnightblue" stroke="midnightblue" points="66.1,-381.5 56.1,-385 66.1,-388.5 66.1,-381.5"/>
</g>
<!-- Node10 -->
<g id="node10" class="node">
<title>Node10</title>
<g id="a_node10"><a target="_parent" xlink:href="https://doc.qt.io/qt-5/qlowenergycontroller.html" xlink:title=" ">
<polygon fill="none" stroke="#bfbfbf" points="107.5,-337.5 107.5,-356.5 232.5,-356.5 232.5,-337.5 107.5,-337.5"/>
<text text-anchor="middle" x="170" y="-344.5" font-family="Helvetica,sans-Serif" font-size="10.00">QLowEnergyController</text>
</a>
</g>
</g>
<!-- Node3&#45;&gt;Node10 -->
<g id="edge15" class="edge">
<title>Node3&#45;&gt;Node10</title>
<path fill="none" stroke="midnightblue" d="M65.9,-373.34C68.64,-372.53 71.36,-371.74 74,-371 92.01,-365.93 112.08,-360.78 129.12,-356.56"/>
<polygon fill="midnightblue" stroke="midnightblue" points="64.61,-370.08 56.06,-376.32 66.64,-376.78 64.61,-370.08"/>
</g>
<!-- Node12 -->
<g id="node12" class="node">
<title>Node12</title>
<g id="a_node12"><a xlink:href="classAbstractPokitService.html" target="_top" xlink:title="The AbstractPokitService class provides a common base for Pokit services classes.">
<polygon fill="none" stroke="black" points="634.5,-218.5 634.5,-237.5 752.5,-237.5 752.5,-218.5 634.5,-218.5"/>
<text text-anchor="middle" x="693.5" y="-225.5" font-family="Helvetica,sans-Serif" font-size="10.00">AbstractPokitService</text>
</a>
</g>
</g>
<!-- Node3&#45;&gt;Node12 -->
<g id="edge18" class="edge">
<title>Node3&#45;&gt;Node12</title>
<path fill="none" stroke="midnightblue" d="M32.02,-365.27C37.83,-334.96 53.66,-277.78 93,-252 137.49,-222.85 492.61,-224.94 634.36,-226.97"/>
<polygon fill="midnightblue" stroke="midnightblue" points="28.52,-364.99 30.26,-375.44 35.42,-366.19 28.52,-364.99"/>
</g>
<!-- Node13 -->
<g id="node13" class="node">
<title>Node13</title>
<g id="a_node13"><a xlink:href="classAbstractPokitServicePrivate.html" target="_top" xlink:title="The AbstractPokitServicePrivate class provides private implementation for AbstractPokitService.">
<polygon fill="none" stroke="black" points="344,-286.5 344,-305.5 496,-305.5 496,-286.5 344,-286.5"/>
<text text-anchor="middle" x="420" y="-293.5" font-family="Helvetica,sans-Serif" font-size="10.00">AbstractPokitServicePrivate</text>
</a>
</g>
</g>
<!-- Node3&#45;&gt;Node13 -->
<g id="edge20" class="edge">
<title>Node3&#45;&gt;Node13</title>
<path fill="none" stroke="midnightblue" d="M42.93,-367.68C54.74,-354.36 72.91,-336.8 93,-328 173.49,-292.76 275.56,-288.4 343.85,-290.48"/>
<polygon fill="midnightblue" stroke="midnightblue" points="40.26,-365.42 36.45,-375.31 45.59,-369.96 40.26,-365.42"/>
</g>
<!-- Node14 -->
<g id="node14" class="node">
<title>Node14</title>
<g id="a_node14"><a target="_parent" xlink:href="https://doc.qt.io/qt-5/qlowenergyservice.html" xlink:title=" ">
<polygon fill="none" stroke="#bfbfbf" points="113.5,-261.5 113.5,-280.5 226.5,-280.5 226.5,-261.5 113.5,-261.5"/>
<text text-anchor="middle" x="170" y="-268.5" font-family="Helvetica,sans-Serif" font-size="10.00">QLowEnergyService</text>
</a>
</g>
</g>
<!-- Node3&#45;&gt;Node14 -->
<g id="edge23" class="edge">
<title>Node3&#45;&gt;Node14</title>
<path fill="none" stroke="midnightblue" d="M33.56,-365.61C39.42,-345.01 51.61,-313 74,-295 85.14,-286.04 99.19,-280.38 113.05,-276.82"/>
<polygon fill="midnightblue" stroke="midnightblue" points="30.13,-364.9 30.99,-375.46 36.9,-366.66 30.13,-364.9"/>
</g>
<!-- Node4 -->
<g id="node4" class="node">
<title>Node4</title>
<g id="a_node4"><a xlink:href="classPokitDiscoveryAgent.html" target="_top" xlink:title="The PokitDiscoveryAgent class discovers nearby Pokit devices.">
<polygon fill="none" stroke="black" points="360.5,-512.5 360.5,-531.5 479.5,-531.5 479.5,-512.5 360.5,-512.5"/>
<text text-anchor="middle" x="420" y="-519.5" font-family="Helvetica,sans-Serif" font-size="10.00">PokitDiscoveryAgent</text>
</a>
</g>
</g>
<!-- Node4&#45;&gt;Node2 -->
<g id="edge3" class="edge">
<title>Node4&#45;&gt;Node2</title>
<path fill="none" stroke="#9a32cd" stroke-dasharray="5,2" d="M479.67,-533.45C528.62,-543.01 597.57,-556.47 643.58,-565.45"/>
<polygon fill="#9a32cd" stroke="#9a32cd" points="480.34,-530.02 469.85,-531.54 479,-536.89 480.34,-530.02"/>
<text text-anchor="middle" x="556.5" y="-560" font-family="Helvetica,sans-Serif" font-size="10.00"> discoveryAgent</text>
</g>
<!-- Node4&#45;&gt;Node6 -->
<g id="edge8" class="edge">
<title>Node4&#45;&gt;Node6</title>
<path fill="none" stroke="#9a32cd" stroke-dasharray="5,2" d="M454.34,-508.91C471.81,-502.75 493.73,-496.09 514,-493 547.55,-487.89 585.05,-487.34 616.99,-488.37"/>
<polygon fill="#9a32cd" stroke="#9a32cd" points="452.82,-505.74 444.62,-512.45 455.21,-512.32 452.82,-505.74"/>
<text text-anchor="middle" x="556.5" y="-496" font-family="Helvetica,sans-Serif" font-size="10.00"> q_ptr</text>
</g>
<!-- Node5&#45;&gt;Node4 -->
<g id="edge4" class="edge">
<title>Node5&#45;&gt;Node4</title>
<path fill="none" stroke="midnightblue" d="M257.5,-512.88C291.52,-514.8 329.7,-516.96 360.38,-518.69"/>
<polygon fill="midnightblue" stroke="midnightblue" points="257.27,-509.36 247.09,-512.3 256.88,-516.35 257.27,-509.36"/>
</g>
<!-- Node6&#45;&gt;Node4 -->
<g id="edge6" class="edge">
<title>Node6&#45;&gt;Node4</title>
<path fill="none" stroke="#9a32cd" stroke-dasharray="5,2" d="M610.35,-504.72C606.51,-505.17 602.72,-505.59 599,-506 559.21,-510.34 514.32,-514.37 479.58,-517.3"/>
<polygon fill="#9a32cd" stroke="#9a32cd" points="611.04,-508.16 620.56,-503.51 610.21,-501.21 611.04,-508.16"/>
<text text-anchor="middle" x="556.5" y="-518" font-family="Helvetica,sans-Serif" font-size="10.00"> d_ptr</text>
</g>
<!-- Node7 -->
<g id="node7" class="node">
<title>Node7</title>
<g id="a_node7"><a target="_parent" xlink:href="https://doc.qt.io/qt-5/qstring.html" xlink:title=" ">
<polygon fill="none" stroke="#bfbfbf" points="393.5,-616.5 393.5,-635.5 446.5,-635.5 446.5,-616.5 393.5,-616.5"/>
<text text-anchor="middle" x="420" y="-623.5" font-family="Helvetica,sans-Serif" font-size="10.00">QString</text>
</a>
</g>
</g>
<!-- Node7&#45;&gt;Node2 -->
<g id="edge9" class="edge">
<title>Node7&#45;&gt;Node2</title>
<path fill="none" stroke="#9a32cd" stroke-dasharray="5,2" d="M456.6,-622.76C492.72,-619.1 550.12,-612.29 599,-602 620.99,-597.37 645.37,-590.26 663.72,-584.5"/>
<polygon fill="#9a32cd" stroke="#9a32cd" points="456.16,-619.28 446.55,-623.75 456.85,-626.25 456.16,-619.28"/>
<text text-anchor="middle" x="556.5" y="-618" font-family="Helvetica,sans-Serif" font-size="10.00"> deviceToScanFor</text>
</g>
<!-- Node8&#45;&gt;Node1 -->
<g id="edge10" class="edge">
<title>Node8&#45;&gt;Node1</title>
<path fill="none" stroke="#9a32cd" stroke-dasharray="5,2" d="M734.15,-457.11C746.13,-461.9 759.01,-467.91 770,-475 779.25,-480.97 778.48,-486.47 788,-492 808.3,-503.79 832.97,-511.98 854.24,-517.45"/>
<polygon fill="#9a32cd" stroke="#9a32cd" points="735.38,-453.84 724.79,-453.54 732.88,-460.38 735.38,-453.84"/>
<text text-anchor="middle" x="806" y="-512" font-family="Helvetica,sans-Serif" font-size="10.00"> device</text>
</g>
<!-- Node8&#45;&gt;Node9 -->
<g id="edge42" class="edge">
<title>Node8&#45;&gt;Node9</title>
<path fill="none" stroke="#9a32cd" stroke-dasharray="5,2" d="M733.75,-456.34C810.95,-477.95 983.83,-512.76 1085,-428 1136.06,-385.21 1151.86,-299.51 1155.84,-270.7"/>
<polygon fill="#9a32cd" stroke="#9a32cd" points="734.52,-452.92 723.94,-453.52 732.59,-459.65 734.52,-452.92"/>
<text text-anchor="middle" x="904" y="-486" font-family="Helvetica,sans-Serif" font-size="10.00"> q_ptr</text>
</g>
<!-- Node9&#45;&gt;Node8 -->
<g id="edge12" class="edge">
<title>Node9&#45;&gt;Node8</title>
<path fill="none" stroke="#9a32cd" stroke-dasharray="5,2" d="M1152.89,-280.74C1145.32,-311.63 1126.05,-370.77 1085,-399 1028.06,-438.15 816.86,-443.52 731.08,-444.05"/>
<polygon fill="#9a32cd" stroke="#9a32cd" points="1156.35,-281.28 1155.16,-270.75 1149.53,-279.72 1156.35,-281.28"/>
<text text-anchor="middle" x="904" y="-444" font-family="Helvetica,sans-Serif" font-size="10.00"> d_ptr</text>
</g>
<!-- Node10&#45;&gt;Node9 -->
<g id="edge14" class="edge">
<title>Node10&#45;&gt;Node9</title>
<path fill="none" stroke="#9a32cd" stroke-dasharray="5,2" d="M243.06,-344.51C269.19,-343.53 298.93,-342.32 326,-341 610.69,-327.15 681.79,-321.62 966,-300 1018.92,-295.97 1033.36,-302.27 1085,-290 1103.49,-285.61 1123.45,-277.25 1137.66,-270.64"/>
<polygon fill="#9a32cd" stroke="#9a32cd" points="242.72,-341.02 232.86,-344.89 242.98,-348.01 242.72,-341.02"/>
<text text-anchor="middle" x="693.5" y="-329" font-family="Helvetica,sans-Serif" font-size="10.00"> controller</text>
</g>
<!-- Node10&#45;&gt;Node13 -->
<g id="edge21" class="edge">
<title>Node10&#45;&gt;Node13</title>
<path fill="none" stroke="#9a32cd" stroke-dasharray="5,2" d="M227.29,-335.42C271.14,-326.41 331.29,-314.04 372.45,-305.57"/>
<polygon fill="#9a32cd" stroke="#9a32cd" points="226.45,-332.02 217.36,-337.47 227.86,-338.88 226.45,-332.02"/>
<text text-anchor="middle" x="295.5" y="-331" font-family="Helvetica,sans-Serif" font-size="10.00"> controller</text>
</g>
<!-- Node11 -->
<g id="node11" class="node">
<title>Node11</title>
<g id="a_node11"><a xlink:href="classCalibrationService.html" target="_top" xlink:title="The CalibrationService class accesses the Calibrartion service of Pokit devices.">
<polygon fill="none" stroke="black" points="851,-195.5 851,-214.5 957,-214.5 957,-195.5 851,-195.5"/>
<text text-anchor="middle" x="904" y="-202.5" font-family="Helvetica,sans-Serif" font-size="10.00">CalibrationService</text>
</a>
</g>
</g>
<!-- Node11&#45;&gt;Node9 -->
<g id="edge16" class="edge">
<title>Node11&#45;&gt;Node9</title>
<path fill="none" stroke="#9a32cd" stroke-dasharray="5,2" d="M967.2,-207.7C1002.33,-210.44 1046.74,-215.94 1085,-227 1105.05,-232.8 1126.5,-243.58 1140.72,-251.46"/>
<polygon fill="#9a32cd" stroke="#9a32cd" points="967.31,-204.2 957.08,-206.97 966.81,-211.18 967.31,-204.2"/>
<text text-anchor="middle" x="1034.5" y="-230" font-family="Helvetica,sans-Serif" font-size="10.00"> calibration</text>
</g>
<!-- Node12&#45;&gt;Node11 -->
<g id="edge17" class="edge">
<title>Node12&#45;&gt;Node11</title>
<path fill="none" stroke="midnightblue" d="M762.55,-220.49C791.27,-217.32 824.18,-213.69 850.92,-210.74"/>
<polygon fill="midnightblue" stroke="midnightblue" points="762.13,-217.02 752.58,-221.59 762.9,-223.98 762.13,-217.02"/>
</g>
<!-- Node12&#45;&gt;Node13 -->
<g id="edge26" class="edge">
<title>Node12&#45;&gt;Node13</title>
<path fill="none" stroke="#9a32cd" stroke-dasharray="5,2" d="M623.96,-233.46C590.35,-237.27 549.55,-243.61 514,-254 486.45,-262.05 456.53,-276.73 438.27,-286.43"/>
<polygon fill="#9a32cd" stroke="#9a32cd" points="624.58,-236.91 634.15,-232.35 623.83,-229.95 624.58,-236.91"/>
<text text-anchor="middle" x="556.5" y="-257" font-family="Helvetica,sans-Serif" font-size="10.00"> q_ptr</text>
</g>
<!-- Node17 -->
<g id="node17" class="node">
<title>Node17</title>
<g id="a_node17"><a xlink:href="classDeviceInfoService.html" target="_top" xlink:title="The DeviceInfoService class accesses the Device Info service of Pokit devices.">
<polygon fill="none" stroke="black" points="851.5,-63.5 851.5,-82.5 956.5,-82.5 956.5,-63.5 851.5,-63.5"/>
<text text-anchor="middle" x="904" y="-70.5" font-family="Helvetica,sans-Serif" font-size="10.00">DeviceInfoService</text>
</a>
</g>
</g>
<!-- Node12&#45;&gt;Node17 -->
<g id="edge29" class="edge">
<title>Node12&#45;&gt;Node17</title>
<path fill="none" stroke="midnightblue" d="M715.62,-212.3C758.56,-180.38 854.94,-108.73 889.96,-82.69"/>
<polygon fill="midnightblue" stroke="midnightblue" points="713.48,-209.53 707.54,-218.3 717.66,-215.15 713.48,-209.53"/>
</g>
<!-- Node18 -->
<g id="node18" class="node">
<title>Node18</title>
<g id="a_node18"><a xlink:href="classGenericAccessService.html" target="_top" xlink:title="The GenericAccessService class accesses the Generic Access service of Pokit devices.">
<polygon fill="none" stroke="black" points="842,-233.5 842,-252.5 966,-252.5 966,-233.5 842,-233.5"/>
<text text-anchor="middle" x="904" y="-240.5" font-family="Helvetica,sans-Serif" font-size="10.00">GenericAccessService</text>
</a>
</g>
</g>
<!-- Node12&#45;&gt;Node18 -->
<g id="edge32" class="edge">
<title>Node12&#45;&gt;Node18</title>
<path fill="none" stroke="midnightblue" d="M762.57,-232.9C788.16,-234.74 817.06,-236.82 841.96,-238.61"/>
<polygon fill="midnightblue" stroke="midnightblue" points="762.8,-229.41 752.58,-232.18 762.3,-236.39 762.8,-229.41"/>
</g>
<!-- Node19 -->
<g id="node19" class="node">
<title>Node19</title>
<g id="a_node19"><a xlink:href="classMultimeterService.html" target="_top" xlink:title="The MultimeterService class accesses the Pokit Status service of Pokit devices.">
<polygon fill="none" stroke="black" points="850.5,-157.5 850.5,-176.5 957.5,-176.5 957.5,-157.5 850.5,-157.5"/>
<text text-anchor="middle" x="904" y="-164.5" font-family="Helvetica,sans-Serif" font-size="10.00">MultimeterService</text>
</a>
</g>
</g>
<!-- Node12&#45;&gt;Node19 -->
<g id="edge35" class="edge">
<title>Node12&#45;&gt;Node19</title>
<path fill="none" stroke="midnightblue" d="M736.68,-215.66C776.14,-204.11 834.26,-187.11 870.31,-176.56"/>
<polygon fill="midnightblue" stroke="midnightblue" points="735.69,-212.3 727.08,-218.47 737.66,-219.02 735.69,-212.3"/>
</g>
<!-- Node20 -->
<g id="node20" class="node">
<title>Node20</title>
<g id="a_node20"><a xlink:href="classStatusService.html" target="_top" xlink:title="The StatusService class accesses the Pokit Status service of Pokit devices.">
<polygon fill="none" stroke="black" points="862.5,-271.5 862.5,-290.5 945.5,-290.5 945.5,-271.5 862.5,-271.5"/>
<text text-anchor="middle" x="904" y="-278.5" font-family="Helvetica,sans-Serif" font-size="10.00">StatusService</text>
</a>
</g>
</g>
<!-- Node12&#45;&gt;Node20 -->
<g id="edge38" class="edge">
<title>Node12&#45;&gt;Node20</title>
<path fill="none" stroke="midnightblue" d="M742.42,-240.18C779.83,-249.69 831.07,-262.72 865.52,-271.47"/>
<polygon fill="midnightblue" stroke="midnightblue" points="742.81,-236.67 732.26,-237.6 741.09,-243.45 742.81,-236.67"/>
</g>
<!-- Node13&#45;&gt;Node12 -->
<g id="edge19" class="edge">
<title>Node13&#45;&gt;Node12</title>
<path fill="none" stroke="#9a32cd" stroke-dasharray="5,2" d="M480.49,-306.81C515.83,-310.85 561.01,-311.79 599,-299 635.51,-286.71 669.07,-253.87 684.14,-237.52"/>
<polygon fill="#9a32cd" stroke="#9a32cd" points="480.69,-303.31 470.33,-305.53 479.81,-310.25 480.69,-303.31"/>
<text text-anchor="middle" x="556.5" y="-313" font-family="Helvetica,sans-Serif" font-size="10.00"> d_ptr</text>
</g>
<!-- Node14&#45;&gt;Node13 -->
<g id="edge22" class="edge">
<title>Node14&#45;&gt;Node13</title>
<path fill="none" stroke="#9a32cd" stroke-dasharray="5,2" d="M237.15,-267.19C264.73,-266.59 297.02,-267.17 326,-271 348.21,-273.93 372.65,-280.65 390.9,-286.38"/>
<polygon fill="#9a32cd" stroke="#9a32cd" points="236.73,-263.71 226.83,-267.48 236.92,-270.7 236.73,-263.71"/>
<text text-anchor="middle" x="295.5" y="-274" font-family="Helvetica,sans-Serif" font-size="10.00"> service</text>
</g>
<!-- Node15 -->
<g id="node15" class="node">
<title>Node15</title>
<g id="a_node15"><a target="_parent" xlink:href="https://doc.qt.io/qt-5/qbluetoothuuid.html" xlink:title=" ">
<polygon fill="none" stroke="#bfbfbf" points="123,-127.5 123,-146.5 217,-146.5 217,-127.5 123,-127.5"/>
<text text-anchor="middle" x="170" y="-134.5" font-family="Helvetica,sans-Serif" font-size="10.00">QBluetoothUuid</text>
</a>
</g>
</g>
<!-- Node15&#45;&gt;Node11 -->
<g id="edge27" class="edge">
<title>Node15&#45;&gt;Node11</title>
<path fill="none" stroke="#9a32cd" stroke-dasharray="5,2" d="M227.31,-130.22C367.66,-114.52 728.56,-81.81 824,-148 839.36,-158.65 827.89,-173.75 842,-186 846.44,-189.86 851.65,-192.93 857.13,-195.38"/>
<polygon fill="#9a32cd" stroke="#9a32cd" points="226.74,-126.76 217.2,-131.37 227.53,-133.72 226.74,-126.76"/>
<text text-anchor="middle" x="556.5" y="-113" font-family="Helvetica,sans-Serif" font-size="10.00"> serviceUuid</text>
</g>
<!-- Node15&#45;&gt;Node13 -->
<g id="edge24" class="edge">
<title>Node15&#45;&gt;Node13</title>
<path fill="none" stroke="#9a32cd" stroke-dasharray="5,2" d="M194.19,-152.5C225.34,-173.74 281.9,-213.74 326,-253 334.69,-260.73 334.15,-265.81 344,-272 353.84,-278.18 365.41,-282.91 376.48,-286.46"/>
<polygon fill="#9a32cd" stroke="#9a32cd" points="195.98,-149.49 185.74,-146.78 192.06,-155.29 195.98,-149.49"/>
<text text-anchor="middle" x="295.5" y="-256" font-family="Helvetica,sans-Serif" font-size="10.00"> serviceUuid</text>
</g>
<!-- Node15&#45;&gt;Node17 -->
<g id="edge30" class="edge">
<title>Node15&#45;&gt;Node17</title>
<path fill="none" stroke="#9a32cd" stroke-dasharray="5,2" d="M199.57,-123.13C217.89,-114.74 242.39,-104.46 265,-98 299.22,-88.23 308.67,-89.25 344,-85 529.52,-62.68 752.11,-67.14 851.13,-70.73"/>
<polygon fill="#9a32cd" stroke="#9a32cd" points="197.92,-120.03 190.33,-127.43 200.88,-126.38 197.92,-120.03"/>
<text text-anchor="middle" x="556.5" y="-75" font-family="Helvetica,sans-Serif" font-size="10.00"> serviceUuid</text>
</g>
<!-- Node15&#45;&gt;Node18 -->
<g id="edge33" class="edge">
<title>Node15&#45;&gt;Node18</title>
<path fill="none" stroke="#9a32cd" stroke-dasharray="5,2" d="M227.36,-141.3C333.97,-149.98 572.22,-172 770,-209 804.79,-215.51 843.97,-225.91 870.74,-233.49"/>
<polygon fill="#9a32cd" stroke="#9a32cd" points="227.4,-137.79 217.15,-140.48 226.84,-144.77 227.4,-137.79"/>
<text text-anchor="middle" x="556.5" y="-184" font-family="Helvetica,sans-Serif" font-size="10.00"> serviceUuid</text>
</g>
<!-- Node15&#45;&gt;Node19 -->
<g id="edge36" class="edge">
<title>Node15&#45;&gt;Node19</title>
<path fill="none" stroke="#9a32cd" stroke-dasharray="5,2" d="M208.24,-124.41C225.34,-119.12 246,-113.42 265,-110 387.26,-88.01 707.33,-69.33 824,-112 851.62,-122.1 878.6,-144.31 892.77,-157.2"/>
<polygon fill="#9a32cd" stroke="#9a32cd" points="207.1,-121.1 198.62,-127.46 209.21,-127.78 207.1,-121.1"/>
<text text-anchor="middle" x="556.5" y="-91" font-family="Helvetica,sans-Serif" font-size="10.00"> serviceUuid</text>
</g>
<!-- Node15&#45;&gt;Node20 -->
<g id="edge39" class="edge">
<title>Node15&#45;&gt;Node20</title>
<path fill="none" stroke="#9a32cd" stroke-dasharray="5,2" d="M203.49,-150.63C276.4,-180.97 451.52,-252.39 514,-265 639.06,-290.24 791.17,-286.96 862.46,-283.49"/>
<polygon fill="#9a32cd" stroke="#9a32cd" points="204.48,-147.25 193.91,-146.63 201.79,-153.71 204.48,-147.25"/>
<text text-anchor="middle" x="556.5" y="-281" font-family="Helvetica,sans-Serif" font-size="10.00"> serviceUuid</text>
</g>
<!-- Node16 -->
<g id="node16" class="node">
<title>Node16</title>
<g id="a_node16"><a target="_parent" xlink:href="https://doc.qt.io/qt-5/quuid.html" xlink:title=" ">
<polygon fill="none" stroke="#bfbfbf" points="4.5,-127.5 4.5,-146.5 51.5,-146.5 51.5,-127.5 4.5,-127.5"/>
<text text-anchor="middle" x="28" y="-134.5" font-family="Helvetica,sans-Serif" font-size="10.00">QUuid</text>
</a>
</g>
</g>
<!-- Node16&#45;&gt;Node15 -->
<g id="edge25" class="edge">
<title>Node16&#45;&gt;Node15</title>
<path fill="none" stroke="midnightblue" d="M61.92,-137C80.13,-137 103.03,-137 122.98,-137"/>
<polygon fill="midnightblue" stroke="midnightblue" points="61.81,-133.5 51.81,-137 61.8,-140.5 61.81,-133.5"/>
</g>
<!-- Node17&#45;&gt;Node9 -->
<g id="edge28" class="edge">
<title>Node17&#45;&gt;Node9</title>
<path fill="none" stroke="#9a32cd" stroke-dasharray="5,2" d="M927.89,-88.31C943.31,-98.19 964.35,-110.86 984,-120 1027.08,-140.03 1047.29,-126.1 1085,-155 1119.96,-181.79 1143.91,-230.55 1152.97,-251.27"/>
<polygon fill="#9a32cd" stroke="#9a32cd" points="929.37,-85.1 919.08,-82.57 925.55,-90.96 929.37,-85.1"/>
<text text-anchor="middle" x="1034.5" y="-158" font-family="Helvetica,sans-Serif" font-size="10.00"> deviceInfo</text>
</g>
<!-- Node18&#45;&gt;Node9 -->
<g id="edge31" class="edge">
<title>Node18&#45;&gt;Node9</title>
<path fill="none" stroke="#9a32cd" stroke-dasharray="5,2" d="M976.45,-241.81C1009.56,-241.97 1049.37,-243.17 1085,-247 1094.5,-248.02 1104.61,-249.65 1114.16,-251.43"/>
<polygon fill="#9a32cd" stroke="#9a32cd" points="976.41,-238.31 966.4,-241.79 976.39,-245.31 976.41,-238.31"/>
<text text-anchor="middle" x="1034.5" y="-250" font-family="Helvetica,sans-Serif" font-size="10.00"> genericAccess</text>
</g>
<!-- Node19&#45;&gt;Node9 -->
<g id="edge34" class="edge">
<title>Node19&#45;&gt;Node9</title>
<path fill="none" stroke="#9a32cd" stroke-dasharray="5,2" d="M968.12,-167.88C1003.92,-170.52 1048.68,-177.54 1085,-195 1113.12,-208.52 1138.01,-236.7 1149.79,-251.48"/>
<polygon fill="#9a32cd" stroke="#9a32cd" points="968,-164.37 957.8,-167.22 967.56,-171.35 968,-164.37"/>
<text text-anchor="middle" x="1034.5" y="-198" font-family="Helvetica,sans-Serif" font-size="10.00"> multimeter</text>
</g>
<!-- Node20&#45;&gt;Node9 -->
<g id="edge37" class="edge">
<title>Node20&#45;&gt;Node9</title>
<path fill="none" stroke="#9a32cd" stroke-dasharray="5,2" d="M955.92,-276.96C998.5,-273.58 1059.11,-268.77 1102.63,-265.31"/>
<polygon fill="#9a32cd" stroke="#9a32cd" points="955.46,-273.48 945.77,-277.76 956.01,-280.46 955.46,-273.48"/>
<text text-anchor="middle" x="1034.5" y="-278" font-family="Helvetica,sans-Serif" font-size="10.00"> status</text>
</g>
<!-- Node21 -->
<g id="node21" class="node">
<title>Node21</title>
<g id="a_node21"><a target="_parent" xlink:href="https://doc.qt.io/qt-5/qmutex.html" xlink:title=" ">
<polygon fill="none" stroke="#bfbfbf" points="876.5,-13.5 876.5,-32.5 931.5,-32.5 931.5,-13.5 876.5,-13.5"/>
<text text-anchor="middle" x="904" y="-20.5" font-family="Helvetica,sans-Serif" font-size="10.00">QMutex</text>
</a>
</g>
</g>
<!-- Node21&#45;&gt;Node9 -->
<g id="edge40" class="edge">
<title>Node21&#45;&gt;Node9</title>
<path fill="none" stroke="#9a32cd" stroke-dasharray="5,2" d="M941.88,-15.37C981.62,-9.41 1044.57,-6.78 1085,-39 1154.07,-94.05 1157.72,-216.33 1157.28,-251.42"/>
<polygon fill="#9a32cd" stroke="#9a32cd" points="941.12,-11.95 931.82,-17.03 942.25,-18.86 941.12,-11.95"/>
<text text-anchor="middle" x="1034.5" y="-108" font-family="Helvetica,sans-Serif" font-size="10.00"> calibrationMutex</text>
<text text-anchor="middle" x="1034.5" y="-97" font-family="Helvetica,sans-Serif" font-size="10.00">dataLoggerMutex</text>
<text text-anchor="middle" x="1034.5" y="-86" font-family="Helvetica,sans-Serif" font-size="10.00">deviceInfoMutex</text>
<text text-anchor="middle" x="1034.5" y="-75" font-family="Helvetica,sans-Serif" font-size="10.00">dsoMutex</text>
<text text-anchor="middle" x="1034.5" y="-64" font-family="Helvetica,sans-Serif" font-size="10.00">genericAccessMutex</text>
<text text-anchor="middle" x="1034.5" y="-53" font-family="Helvetica,sans-Serif" font-size="10.00">multimeterMutex</text>
<text text-anchor="middle" x="1034.5" y="-42" font-family="Helvetica,sans-Serif" font-size="10.00">statusMutex</text>
</g>
<!-- Node22 -->
<g id="node22" class="node">
<title>Node22</title>
<g id="a_node22"><a xlink:title=" ">
<polygon fill="none" stroke="#bfbfbf" points="653,-0.5 653,-19.5 734,-19.5 734,-0.5 653,-0.5"/>
<text text-anchor="middle" x="693.5" y="-7.5" font-family="Helvetica,sans-Serif" font-size="10.00">QBasicMutex</text>
</a>
</g>
</g>
<!-- Node22&#45;&gt;Node21 -->
<g id="edge41" class="edge">
<title>Node22&#45;&gt;Node21</title>
<path fill="none" stroke="midnightblue" d="M744.38,-13.11C785.81,-15.69 843.16,-19.27 876.34,-21.34"/>
<polygon fill="midnightblue" stroke="midnightblue" points="744.41,-9.6 734.21,-12.48 743.97,-16.59 744.41,-9.6"/>
</g>
</g>
</svg>
