<?xml version="1.0" encoding="UTF-8" standalone="no"?>
<!DOCTYPE svg PUBLIC "-//W3C//DTD SVG 1.1//EN"
 "http://www.w3.org/Graphics/SVG/1.1/DTD/svg11.dtd">
<!-- Generated by graphviz version 2.43.0 (0)
 -->
<!-- Title: CalibrationCommand Pages: 1 -->
<svg width="1231pt" height="641pt"
 viewBox="0.00 0.00 1231.00 640.75" xmlns="http://www.w3.org/2000/svg" xmlns:xlink="http://www.w3.org/1999/xlink">
<g id="graph0" class="graph" transform="scale(1 1) rotate(0) translate(4 636.75)">
<title>CalibrationCommand</title>
<!-- Node1 -->
<g id="node1" class="node">
<title>Node1</title>
<g id="a_node1"><a xlink:title="The CalibrationCommand class implements the calibrate CLI command.">
<polygon fill="#bfbfbf" stroke="black" points="1103,-447.5 1103,-466.5 1223,-466.5 1223,-447.5 1103,-447.5"/>
<text text-anchor="middle" x="1163" y="-454.5" font-family="Helvetica,sans-Serif" font-size="10.00">CalibrationCommand</text>
</a>
</g>
</g>
<!-- Node2 -->
<g id="node2" class="node">
<title>Node2</title>
<g id="a_node2"><a xlink:href="classDeviceCommand.html" target="_top" xlink:title="The AbstractCommand class extends AbstractCommand to add a PokitDevice instance.">
<polygon fill="none" stroke="black" points="853.5,-507.5 853.5,-526.5 954.5,-526.5 954.5,-507.5 853.5,-507.5"/>
<text text-anchor="middle" x="904" y="-514.5" font-family="Helvetica,sans-Serif" font-size="10.00">DeviceCommand</text>
</a>
</g>
</g>
<!-- Node2&#45;&gt;Node1 -->
<g id="edge1" class="edge">
<title>Node2&#45;&gt;Node1</title>
<path fill="none" stroke="midnightblue" d="M964.89,-513.04C1000.34,-509.62 1045.84,-503.36 1085,-492 1106.44,-485.78 1129.56,-474.61 1144.81,-466.56"/>
<polygon fill="midnightblue" stroke="midnightblue" points="964.34,-509.57 954.7,-513.97 964.97,-516.54 964.34,-509.57"/>
</g>
<!-- Node3 -->
<g id="node3" class="node">
<title>Node3</title>
<g id="a_node3"><a xlink:href="classAbstractCommand.html" target="_top" xlink:title="The AbstractCommand class provides a consistent base for the classes that implement CLI commands.">
<polygon fill="none" stroke="black" points="640,-505.5 640,-524.5 747,-524.5 747,-505.5 640,-505.5"/>
<text text-anchor="middle" x="693.5" y="-512.5" font-family="Helvetica,sans-Serif" font-size="10.00">AbstractCommand</text>
</a>
</g>
</g>
<!-- Node3&#45;&gt;Node2 -->
<g id="edge2" class="edge">
<title>Node3&#45;&gt;Node2</title>
<path fill="none" stroke="midnightblue" d="M757.45,-521.13C767.65,-521.91 778.11,-522.58 788,-523 803.99,-523.68 808.01,-523.61 824,-523 833.48,-522.64 843.59,-522.04 853.31,-521.35"/>
<polygon fill="midnightblue" stroke="midnightblue" points="757.61,-517.63 747.36,-520.31 757.05,-524.6 757.61,-517.63"/>
</g>
<!-- Node4 -->
<g id="node4" class="node">
<title>Node4</title>
<g id="a_node4"><a target="_parent" xlink:href="https://doc.qt.io/qt-5/qobject.html" xlink:title=" ">
<polygon fill="none" stroke="#bfbfbf" points="0,-376.5 0,-395.5 56,-395.5 56,-376.5 0,-376.5"/>
<text text-anchor="middle" x="28" y="-383.5" font-family="Helvetica,sans-Serif" font-size="10.00">QObject</text>
</a>
</g>
</g>
<!-- Node4&#45;&gt;Node3 -->
<g id="edge3" class="edge">
<title>Node4&#45;&gt;Node3</title>
<path fill="none" stroke="midnightblue" d="M49.32,-401.56C61.36,-409.94 77.3,-419.64 93,-425 307.73,-498.36 375.85,-451.85 599,-493 617.86,-496.48 638.64,-501.27 655.82,-505.49"/>
<polygon fill="midnightblue" stroke="midnightblue" points="51.09,-398.52 40.94,-395.5 46.99,-404.2 51.09,-398.52"/>
</g>
<!-- Node6 -->
<g id="node6" class="node">
<title>Node6</title>
<g id="a_node6"><a target="_parent" xlink:href="https://doc.qt.io/qt-5/qbluetoothdevicediscoveryagent.html" xlink:title=" ">
<polygon fill="none" stroke="#bfbfbf" points="93,-499 93,-529 247,-529 247,-499 93,-499"/>
<text text-anchor="start" x="101" y="-517" font-family="Helvetica,sans-Serif" font-size="10.00">QBluetoothDeviceDiscovery</text>
<text text-anchor="middle" x="170" y="-506" font-family="Helvetica,sans-Serif" font-size="10.00">Agent</text>
</a>
</g>
</g>
<!-- Node4&#45;&gt;Node6 -->
<g id="edge6" class="edge">
<title>Node4&#45;&gt;Node6</title>
<path fill="none" stroke="midnightblue" d="M34.14,-405.15C40.44,-425.28 52.97,-456.65 74,-476 84.72,-485.86 98.32,-493.31 111.85,-498.87"/>
<polygon fill="midnightblue" stroke="midnightblue" points="37.49,-404.14 31.33,-395.52 30.77,-406.1 37.49,-404.14"/>
</g>
<!-- Node7 -->
<g id="node7" class="node">
<title>Node7</title>
<g id="a_node7"><a xlink:href="classPokitDiscoveryAgentPrivate.html" target="_top" xlink:title="The PokitDiscoveryAgentPrivate class provides private implementation for PokitDiscoveryAgent.">
<polygon fill="none" stroke="black" points="617,-590.5 617,-609.5 770,-609.5 770,-590.5 617,-590.5"/>
<text text-anchor="middle" x="693.5" y="-597.5" font-family="Helvetica,sans-Serif" font-size="10.00">PokitDiscoveryAgentPrivate</text>
</a>
</g>
</g>
<!-- Node4&#45;&gt;Node7 -->
<g id="edge8" class="edge">
<title>Node4&#45;&gt;Node7</title>
<path fill="none" stroke="midnightblue" d="M31.21,-406.14C36.01,-439.5 50.62,-505.81 93,-539 261.64,-671.07 544.02,-630.9 650.32,-609.52"/>
<polygon fill="midnightblue" stroke="midnightblue" points="34.63,-405.3 29.89,-395.83 27.68,-406.19 34.63,-405.3"/>
</g>
<!-- Node9 -->
<g id="node9" class="node">
<title>Node9</title>
<g id="a_node9"><a xlink:href="classPokitDevice.html" target="_top" xlink:title="The PokitDevice class simplifies Pokit device access.">
<polygon fill="none" stroke="black" points="656,-444.5 656,-463.5 731,-463.5 731,-444.5 656,-444.5"/>
<text text-anchor="middle" x="693.5" y="-451.5" font-family="Helvetica,sans-Serif" font-size="10.00">PokitDevice</text>
</a>
</g>
</g>
<!-- Node4&#45;&gt;Node9 -->
<g id="edge12" class="edge">
<title>Node4&#45;&gt;Node9</title>
<path fill="none" stroke="midnightblue" d="M66.01,-398.2C68.7,-398.87 71.38,-399.48 74,-400 131.04,-411.23 531.24,-441.89 655.67,-451.25"/>
<polygon fill="midnightblue" stroke="midnightblue" points="66.94,-394.82 56.37,-395.54 65.07,-401.57 66.94,-394.82"/>
</g>
<!-- Node10 -->
<g id="node10" class="node">
<title>Node10</title>
<g id="a_node10"><a xlink:href="classPokitDevicePrivate.html" target="_top" xlink:title="The PokitDevicePrivate class provides private implementation for PokitDevice.">
<polygon fill="none" stroke="black" points="1108,-265.5 1108,-284.5 1218,-284.5 1218,-265.5 1108,-265.5"/>
<text text-anchor="middle" x="1163" y="-272.5" font-family="Helvetica,sans-Serif" font-size="10.00">PokitDevicePrivate</text>
</a>
</g>
</g>
<!-- Node4&#45;&gt;Node10 -->
<g id="edge14" class="edge">
<title>Node4&#45;&gt;Node10</title>
<path fill="none" stroke="midnightblue" d="M66.31,-386C94.52,-386 134.19,-386 169,-386 169,-386 169,-386 694.5,-386 870.3,-386 920.39,-384.71 1085,-323 1109.93,-313.65 1135.5,-295.73 1150,-284.63"/>
<polygon fill="midnightblue" stroke="midnightblue" points="66.1,-382.5 56.1,-386 66.1,-389.5 66.1,-382.5"/>
</g>
<!-- Node11 -->
<g id="node11" class="node">
<title>Node11</title>
<g id="a_node11"><a target="_parent" xlink:href="https://doc.qt.io/qt-5/qlowenergycontroller.html" xlink:title=" ">
<polygon fill="none" stroke="#bfbfbf" points="107.5,-338.5 107.5,-357.5 232.5,-357.5 232.5,-338.5 107.5,-338.5"/>
<text text-anchor="middle" x="170" y="-345.5" font-family="Helvetica,sans-Serif" font-size="10.00">QLowEnergyController</text>
</a>
</g>
</g>
<!-- Node4&#45;&gt;Node11 -->
<g id="edge16" class="edge">
<title>Node4&#45;&gt;Node11</title>
<path fill="none" stroke="midnightblue" d="M65.9,-374.34C68.64,-373.53 71.36,-372.74 74,-372 92.01,-366.93 112.08,-361.78 129.12,-357.56"/>
<polygon fill="midnightblue" stroke="midnightblue" points="64.61,-371.08 56.06,-377.32 66.64,-377.78 64.61,-371.08"/>
</g>
<!-- Node13 -->
<g id="node13" class="node">
<title>Node13</title>
<g id="a_node13"><a xlink:href="classAbstractPokitService.html" target="_top" xlink:title="The AbstractPokitService class provides a common base for Pokit services classes.">
<polygon fill="none" stroke="black" points="634.5,-215.5 634.5,-234.5 752.5,-234.5 752.5,-215.5 634.5,-215.5"/>
<text text-anchor="middle" x="693.5" y="-222.5" font-family="Helvetica,sans-Serif" font-size="10.00">AbstractPokitService</text>
</a>
</g>
</g>
<!-- Node4&#45;&gt;Node13 -->
<g id="edge19" class="edge">
<title>Node4&#45;&gt;Node13</title>
<path fill="none" stroke="midnightblue" d="M42.9,-368.61C54.69,-355.26 72.86,-337.67 93,-329 188.46,-287.89 223.25,-324.63 326,-309 448.82,-290.31 478.15,-277.78 599,-249 618.07,-244.46 639.24,-239.05 656.61,-234.53"/>
<polygon fill="midnightblue" stroke="midnightblue" points="40.22,-366.37 36.43,-376.27 45.56,-370.89 40.22,-366.37"/>
</g>
<!-- Node14 -->
<g id="node14" class="node">
<title>Node14</title>
<g id="a_node14"><a xlink:href="classAbstractPokitServicePrivate.html" target="_top" xlink:title="The AbstractPokitServicePrivate class provides private implementation for AbstractPokitService.">
<polygon fill="none" stroke="black" points="344,-228.5 344,-247.5 496,-247.5 496,-228.5 344,-228.5"/>
<text text-anchor="middle" x="420" y="-235.5" font-family="Helvetica,sans-Serif" font-size="10.00">AbstractPokitServicePrivate</text>
</a>
</g>
</g>
<!-- Node4&#45;&gt;Node14 -->
<g id="edge21" class="edge">
<title>Node4&#45;&gt;Node14</title>
<path fill="none" stroke="midnightblue" d="M33.21,-366.54C38.8,-345.65 50.8,-313.16 74,-296 95.36,-280.2 248.74,-258.9 343.66,-247"/>
<polygon fill="midnightblue" stroke="midnightblue" points="29.81,-365.72 30.85,-376.27 36.61,-367.38 29.81,-365.72"/>
</g>
<!-- Node15 -->
<g id="node15" class="node">
<title>Node15</title>
<g id="a_node15"><a target="_parent" xlink:href="https://doc.qt.io/qt-5/qlowenergyservice.html" xlink:title=" ">
<polygon fill="none" stroke="#bfbfbf" points="113.5,-216.5 113.5,-235.5 226.5,-235.5 226.5,-216.5 113.5,-216.5"/>
<text text-anchor="middle" x="170" y="-223.5" font-family="Helvetica,sans-Serif" font-size="10.00">QLowEnergyService</text>
</a>
</g>
</g>
<!-- Node4&#45;&gt;Node15 -->
<g id="edge24" class="edge">
<title>Node4&#45;&gt;Node15</title>
<path fill="none" stroke="midnightblue" d="M29.8,-366.14C32.11,-336.48 40.89,-280.81 74,-250 84.71,-240.03 98.95,-234.06 113.13,-230.51"/>
<polygon fill="midnightblue" stroke="midnightblue" points="26.29,-366.26 29.19,-376.46 33.28,-366.68 26.29,-366.26"/>
</g>
<!-- Node5 -->
<g id="node5" class="node">
<title>Node5</title>
<g id="a_node5"><a xlink:href="classPokitDiscoveryAgent.html" target="_top" xlink:title="The PokitDiscoveryAgent class discovers nearby Pokit devices.">
<polygon fill="none" stroke="black" points="360.5,-549.5 360.5,-568.5 479.5,-568.5 479.5,-549.5 360.5,-549.5"/>
<text text-anchor="middle" x="420" y="-556.5" font-family="Helvetica,sans-Serif" font-size="10.00">PokitDiscoveryAgent</text>
</a>
</g>
</g>
<!-- Node5&#45;&gt;Node3 -->
<g id="edge4" class="edge">
<title>Node5&#45;&gt;Node3</title>
<path fill="none" stroke="#9a32cd" stroke-dasharray="5,2" d="M478.39,-547.46C490.15,-545.21 502.46,-542.96 514,-541 556.15,-533.86 604.1,-526.94 639.68,-522.04"/>
<polygon fill="#9a32cd" stroke="#9a32cd" points="477.39,-544.09 468.23,-549.42 478.72,-550.96 477.39,-544.09"/>
<text text-anchor="middle" x="556.5" y="-544" font-family="Helvetica,sans-Serif" font-size="10.00"> discoveryAgent</text>
</g>
<!-- Node5&#45;&gt;Node7 -->
<g id="edge9" class="edge">
<title>Node5&#45;&gt;Node7</title>
<path fill="none" stroke="#9a32cd" stroke-dasharray="5,2" d="M489.75,-556.16C523.04,-556.09 563.41,-557.94 599,-565 625.35,-570.23 654.07,-581.96 672.63,-590.4"/>
<polygon fill="#9a32cd" stroke="#9a32cd" points="489.64,-552.66 479.67,-556.24 489.69,-559.66 489.64,-552.66"/>
<text text-anchor="middle" x="556.5" y="-568" font-family="Helvetica,sans-Serif" font-size="10.00"> q_ptr</text>
</g>
<!-- Node6&#45;&gt;Node5 -->
<g id="edge5" class="edge">
<title>Node6&#45;&gt;Node5</title>
<path fill="none" stroke="midnightblue" d="M257.23,-529.65C293.66,-536.26 334.9,-543.74 366.62,-549.5"/>
<polygon fill="midnightblue" stroke="midnightblue" points="257.56,-526.15 247.09,-527.81 256.31,-533.04 257.56,-526.15"/>
</g>
<!-- Node7&#45;&gt;Node5 -->
<g id="edge7" class="edge">
<title>Node7&#45;&gt;Node5</title>
<path fill="none" stroke="#9a32cd" stroke-dasharray="5,2" d="M606.51,-590.79C577.1,-587.27 544.05,-582.91 514,-578 497.57,-575.31 479.63,-571.79 463.93,-568.51"/>
<polygon fill="#9a32cd" stroke="#9a32cd" points="606.41,-594.31 616.75,-592 607.23,-587.35 606.41,-594.31"/>
<text text-anchor="middle" x="556.5" y="-592" font-family="Helvetica,sans-Serif" font-size="10.00"> d_ptr</text>
</g>
<!-- Node8 -->
<g id="node8" class="node">
<title>Node8</title>
<g id="a_node8"><a target="_parent" xlink:href="https://doc.qt.io/qt-5/qstring.html" xlink:title=" ">
<polygon fill="none" stroke="#bfbfbf" points="393.5,-490.5 393.5,-509.5 446.5,-509.5 446.5,-490.5 393.5,-490.5"/>
<text text-anchor="middle" x="420" y="-497.5" font-family="Helvetica,sans-Serif" font-size="10.00">QString</text>
</a>
</g>
</g>
<!-- Node8&#45;&gt;Node3 -->
<g id="edge10" class="edge">
<title>Node8&#45;&gt;Node3</title>
<path fill="none" stroke="#9a32cd" stroke-dasharray="5,2" d="M456.72,-497.91C492.71,-496.25 549.81,-494.82 599,-499 614.42,-500.31 631.13,-502.82 646.09,-505.46"/>
<polygon fill="#9a32cd" stroke="#9a32cd" points="456.52,-494.42 446.7,-498.4 456.86,-501.41 456.52,-494.42"/>
<text text-anchor="middle" x="556.5" y="-502" font-family="Helvetica,sans-Serif" font-size="10.00"> deviceToScanFor</text>
</g>
<!-- Node9&#45;&gt;Node2 -->
<g id="edge11" class="edge">
<title>Node9&#45;&gt;Node2</title>
<path fill="none" stroke="#9a32cd" stroke-dasharray="5,2" d="M727.04,-467.27C744.87,-474.27 767.45,-482.68 788,-489 810.98,-496.07 836.97,-502.53 858.43,-507.45"/>
<polygon fill="#9a32cd" stroke="#9a32cd" points="728.26,-463.99 717.67,-463.56 725.68,-470.5 728.26,-463.99"/>
<text text-anchor="middle" x="806" y="-501" font-family="Helvetica,sans-Serif" font-size="10.00"> device</text>
</g>
<!-- Node9&#45;&gt;Node10 -->
<g id="edge43" class="edge">
<title>Node9&#45;&gt;Node10</title>
<path fill="none" stroke="#9a32cd" stroke-dasharray="5,2" d="M741.43,-458.44C833.16,-466.11 1031.93,-477.49 1085,-438 1137.98,-398.57 1155.93,-313.41 1160.61,-284.68"/>
<polygon fill="#9a32cd" stroke="#9a32cd" points="741.58,-454.94 731.32,-457.57 740.98,-461.91 741.58,-454.94"/>
<text text-anchor="middle" x="904" y="-470" font-family="Helvetica,sans-Serif" font-size="10.00"> q_ptr</text>
</g>
<!-- Node10&#45;&gt;Node9 -->
<g id="edge13" class="edge">
<title>Node10&#45;&gt;Node9</title>
<path fill="none" stroke="#9a32cd" stroke-dasharray="5,2" d="M1157.64,-294.56C1149.46,-326.26 1128.53,-388.22 1085,-417 1070.34,-426.69 825.24,-444.82 731.01,-451.47"/>
<polygon fill="#9a32cd" stroke="#9a32cd" points="1161.08,-295.25 1160.03,-284.71 1154.27,-293.61 1161.08,-295.25"/>
<text text-anchor="middle" x="904" y="-447" font-family="Helvetica,sans-Serif" font-size="10.00"> d_ptr</text>
</g>
<!-- Node11&#45;&gt;Node10 -->
<g id="edge15" class="edge">
<title>Node11&#45;&gt;Node10</title>
<path fill="none" stroke="#9a32cd" stroke-dasharray="5,2" d="M242.77,-345.92C382.23,-341.66 699.51,-330.89 966,-314 1018.97,-310.64 1033.23,-315.69 1085,-304 1104.65,-299.56 1126.01,-291.22 1141.24,-284.61"/>
<polygon fill="#9a32cd" stroke="#9a32cd" points="242.53,-342.42 232.64,-346.23 242.74,-349.42 242.53,-342.42"/>
<text text-anchor="middle" x="693.5" y="-336" font-family="Helvetica,sans-Serif" font-size="10.00"> controller</text>
</g>
<!-- Node11&#45;&gt;Node14 -->
<g id="edge22" class="edge">
<title>Node11&#45;&gt;Node14</title>
<path fill="none" stroke="#9a32cd" stroke-dasharray="5,2" d="M201.77,-334.35C252.66,-311.78 353.13,-267.22 397.3,-247.63"/>
<polygon fill="#9a32cd" stroke="#9a32cd" points="200.3,-331.18 192.57,-338.43 203.13,-337.58 200.3,-331.18"/>
<text text-anchor="middle" x="295.5" y="-310" font-family="Helvetica,sans-Serif" font-size="10.00"> controller</text>
</g>
<!-- Node12 -->
<g id="node12" class="node">
<title>Node12</title>
<g id="a_node12"><a xlink:href="classCalibrationService.html" target="_top" xlink:title="The CalibrationService class accesses the Calibrartion service of Pokit devices.">
<polygon fill="none" stroke="black" points="851,-285.5 851,-304.5 957,-304.5 957,-285.5 851,-285.5"/>
<text text-anchor="middle" x="904" y="-292.5" font-family="Helvetica,sans-Serif" font-size="10.00">CalibrationService</text>
</a>
</g>
</g>
<!-- Node12&#45;&gt;Node1 -->
<g id="edge44" class="edge">
<title>Node12&#45;&gt;Node1</title>
<path fill="none" stroke="#9a32cd" stroke-dasharray="5,2" d="M928.9,-310.07C981.04,-342.93 1103.75,-420.28 1146.77,-447.4"/>
<polygon fill="#9a32cd" stroke="#9a32cd" points="930.63,-307.02 920.31,-304.65 926.9,-312.94 930.63,-307.02"/>
<text text-anchor="middle" x="1034.5" y="-408" font-family="Helvetica,sans-Serif" font-size="10.00"> service</text>
</g>
<!-- Node12&#45;&gt;Node10 -->
<g id="edge17" class="edge">
<title>Node12&#45;&gt;Node10</title>
<path fill="none" stroke="#9a32cd" stroke-dasharray="5,2" d="M967.07,-290.17C1010.05,-286.83 1066.71,-282.42 1107.86,-279.21"/>
<polygon fill="#9a32cd" stroke="#9a32cd" points="966.71,-286.69 957.01,-290.95 967.25,-293.67 966.71,-286.69"/>
<text text-anchor="middle" x="1034.5" y="-292" font-family="Helvetica,sans-Serif" font-size="10.00"> calibration</text>
</g>
<!-- Node13&#45;&gt;Node12 -->
<g id="edge18" class="edge">
<title>Node13&#45;&gt;Node12</title>
<path fill="none" stroke="midnightblue" d="M732.68,-237.82C773.62,-251.56 837.68,-273.07 874.46,-285.42"/>
<polygon fill="midnightblue" stroke="midnightblue" points="733.65,-234.45 723.05,-234.59 731.42,-241.09 733.65,-234.45"/>
</g>
<!-- Node13&#45;&gt;Node14 -->
<g id="edge27" class="edge">
<title>Node13&#45;&gt;Node14</title>
<path fill="none" stroke="#9a32cd" stroke-dasharray="5,2" d="M624.35,-215.54C590.99,-212.34 550.3,-210.58 514,-215 492.87,-217.57 469.62,-223.32 451.65,-228.43"/>
<polygon fill="#9a32cd" stroke="#9a32cd" points="624.15,-219.04 634.45,-216.57 624.86,-212.07 624.15,-219.04"/>
<text text-anchor="middle" x="556.5" y="-218" font-family="Helvetica,sans-Serif" font-size="10.00"> q_ptr</text>
</g>
<!-- Node18 -->
<g id="node18" class="node">
<title>Node18</title>
<g id="a_node18"><a xlink:href="classDeviceInfoService.html" target="_top" xlink:title="The DeviceInfoService class accesses the Device Info service of Pokit devices.">
<polygon fill="none" stroke="black" points="851.5,-201.5 851.5,-220.5 956.5,-220.5 956.5,-201.5 851.5,-201.5"/>
<text text-anchor="middle" x="904" y="-208.5" font-family="Helvetica,sans-Serif" font-size="10.00">DeviceInfoService</text>
</a>
</g>
</g>
<!-- Node13&#45;&gt;Node18 -->
<g id="edge30" class="edge">
<title>Node13&#45;&gt;Node18</title>
<path fill="none" stroke="midnightblue" d="M762.59,-220.43C791.43,-218.49 824.48,-216.27 851.27,-214.47"/>
<polygon fill="midnightblue" stroke="midnightblue" points="762.32,-216.94 752.58,-221.1 762.79,-223.92 762.32,-216.94"/>
</g>
<!-- Node19 -->
<g id="node19" class="node">
<title>Node19</title>
<g id="a_node19"><a xlink:href="classGenericAccessService.html" target="_top" xlink:title="The GenericAccessService class accesses the Generic Access service of Pokit devices.">
<polygon fill="none" stroke="black" points="842,-90.5 842,-109.5 966,-109.5 966,-90.5 842,-90.5"/>
<text text-anchor="middle" x="904" y="-97.5" font-family="Helvetica,sans-Serif" font-size="10.00">GenericAccessService</text>
</a>
</g>
</g>
<!-- Node13&#45;&gt;Node19 -->
<g id="edge33" class="edge">
<title>Node13&#45;&gt;Node19</title>
<path fill="none" stroke="midnightblue" d="M712.95,-208.71C739.69,-185.82 791.58,-144.14 842,-119 849.35,-115.34 857.54,-112.2 865.48,-109.6"/>
<polygon fill="midnightblue" stroke="midnightblue" points="710.45,-206.24 705.18,-215.43 715.03,-211.53 710.45,-206.24"/>
</g>
<!-- Node20 -->
<g id="node20" class="node">
<title>Node20</title>
<g id="a_node20"><a xlink:href="classMultimeterService.html" target="_top" xlink:title="The MultimeterService class accesses the Pokit Status service of Pokit devices.">
<polygon fill="none" stroke="black" points="850.5,-239.5 850.5,-258.5 957.5,-258.5 957.5,-239.5 850.5,-239.5"/>
<text text-anchor="middle" x="904" y="-246.5" font-family="Helvetica,sans-Serif" font-size="10.00">MultimeterService</text>
</a>
</g>
</g>
<!-- Node13&#45;&gt;Node20 -->
<g id="edge36" class="edge">
<title>Node13&#45;&gt;Node20</title>
<path fill="none" stroke="midnightblue" d="M762.84,-232.87C791.25,-236.14 823.7,-239.87 850.22,-242.92"/>
<polygon fill="midnightblue" stroke="midnightblue" points="762.91,-229.35 752.58,-231.69 762.11,-236.31 762.91,-229.35"/>
</g>
<!-- Node21 -->
<g id="node21" class="node">
<title>Node21</title>
<g id="a_node21"><a xlink:href="classStatusService.html" target="_top" xlink:title="The StatusService class accesses the Pokit Status service of Pokit devices.">
<polygon fill="none" stroke="black" points="862.5,-128.5 862.5,-147.5 945.5,-147.5 945.5,-128.5 862.5,-128.5"/>
<text text-anchor="middle" x="904" y="-135.5" font-family="Helvetica,sans-Serif" font-size="10.00">StatusService</text>
</a>
</g>
</g>
<!-- Node13&#45;&gt;Node21 -->
<g id="edge39" class="edge">
<title>Node13&#45;&gt;Node21</title>
<path fill="none" stroke="midnightblue" d="M726.95,-211.46C769.46,-193.72 842.96,-163.05 880.1,-147.55"/>
<polygon fill="midnightblue" stroke="midnightblue" points="725.49,-208.28 717.61,-215.36 728.19,-214.74 725.49,-208.28"/>
</g>
<!-- Node14&#45;&gt;Node13 -->
<g id="edge20" class="edge">
<title>Node14&#45;&gt;Node13</title>
<path fill="none" stroke="#9a32cd" stroke-dasharray="5,2" d="M506.41,-233.91C548.06,-231.92 597.07,-229.57 634.34,-227.78"/>
<polygon fill="#9a32cd" stroke="#9a32cd" points="506.09,-230.42 496.27,-234.4 506.42,-237.41 506.09,-230.42"/>
<text text-anchor="middle" x="556.5" y="-237" font-family="Helvetica,sans-Serif" font-size="10.00"> d_ptr</text>
</g>
<!-- Node15&#45;&gt;Node14 -->
<g id="edge23" class="edge">
<title>Node15&#45;&gt;Node14</title>
<path fill="none" stroke="#9a32cd" stroke-dasharray="5,2" d="M237.06,-229.2C269.91,-230.79 309.76,-232.71 343.78,-234.36"/>
<polygon fill="#9a32cd" stroke="#9a32cd" points="236.81,-225.68 226.66,-228.69 236.48,-232.67 236.81,-225.68"/>
<text text-anchor="middle" x="295.5" y="-237" font-family="Helvetica,sans-Serif" font-size="10.00"> service</text>
</g>
<!-- Node16 -->
<g id="node16" class="node">
<title>Node16</title>
<g id="a_node16"><a target="_parent" xlink:href="https://doc.qt.io/qt-5/qbluetoothuuid.html" xlink:title=" ">
<polygon fill="none" stroke="#bfbfbf" points="123,-124.5 123,-143.5 217,-143.5 217,-124.5 123,-124.5"/>
<text text-anchor="middle" x="170" y="-131.5" font-family="Helvetica,sans-Serif" font-size="10.00">QBluetoothUuid</text>
</a>
</g>
</g>
<!-- Node16&#45;&gt;Node12 -->
<g id="edge28" class="edge">
<title>Node16&#45;&gt;Node12</title>
<path fill="none" stroke="#9a32cd" stroke-dasharray="5,2" d="M220.54,-145.92C308.74,-167.27 484.84,-210.63 496,-219 508.44,-228.32 500.94,-240.56 514,-249 618.22,-316.4 771.54,-311.08 850.99,-302.47"/>
<polygon fill="#9a32cd" stroke="#9a32cd" points="221.29,-142.5 210.75,-143.55 219.65,-149.3 221.29,-142.5"/>
<text text-anchor="middle" x="556.5" y="-290" font-family="Helvetica,sans-Serif" font-size="10.00"> serviceUuid</text>
</g>
<!-- Node16&#45;&gt;Node14 -->
<g id="edge25" class="edge">
<title>Node16&#45;&gt;Node14</title>
<path fill="none" stroke="#9a32cd" stroke-dasharray="5,2" d="M197.86,-148.51C216.5,-158.37 242.01,-171.5 265,-182 299.46,-197.74 308.38,-201.11 344,-214 358.14,-219.12 373.98,-224.27 387.44,-228.48"/>
<polygon fill="#9a32cd" stroke="#9a32cd" points="199.26,-145.29 188.79,-143.67 195.97,-151.47 199.26,-145.29"/>
<text text-anchor="middle" x="295.5" y="-211" font-family="Helvetica,sans-Serif" font-size="10.00"> serviceUuid</text>
</g>
<!-- Node16&#45;&gt;Node18 -->
<g id="edge31" class="edge">
<title>Node16&#45;&gt;Node18</title>
<path fill="none" stroke="#9a32cd" stroke-dasharray="5,2" d="M227.13,-130.59C309.06,-126.36 466.11,-121.05 599,-133 675.93,-139.92 694.15,-149.4 770,-164 794.05,-168.63 800.71,-167.43 824,-175 845.64,-182.04 869.24,-193.3 884.96,-201.35"/>
<polygon fill="#9a32cd" stroke="#9a32cd" points="226.84,-127.1 217.04,-131.13 227.21,-134.09 226.84,-127.1"/>
<text text-anchor="middle" x="556.5" y="-136" font-family="Helvetica,sans-Serif" font-size="10.00"> serviceUuid</text>
</g>
<!-- Node16&#45;&gt;Node19 -->
<g id="edge34" class="edge">
<title>Node16&#45;&gt;Node19</title>
<path fill="none" stroke="#9a32cd" stroke-dasharray="5,2" d="M198.78,-119.88C217.13,-111.13 241.96,-100.38 265,-94 299.16,-84.53 308.71,-86.38 344,-83 419.32,-75.78 438.37,-76 514,-74 551.76,-73 561.26,-72.39 599,-74 683.41,-77.6 780.65,-86.81 841.96,-93.24"/>
<polygon fill="#9a32cd" stroke="#9a32cd" points="197.02,-116.84 189.55,-124.37 200.08,-123.14 197.02,-116.84"/>
<text text-anchor="middle" x="556.5" y="-77" font-family="Helvetica,sans-Serif" font-size="10.00"> serviceUuid</text>
</g>
<!-- Node16&#45;&gt;Node20 -->
<g id="edge37" class="edge">
<title>Node16&#45;&gt;Node20</title>
<path fill="none" stroke="#9a32cd" stroke-dasharray="5,2" d="M227.63,-136.99C334.69,-143.47 573.67,-161.95 770,-206 802.91,-213.38 809.9,-219.65 842,-230 851.71,-233.13 862.32,-236.47 871.93,-239.45"/>
<polygon fill="#9a32cd" stroke="#9a32cd" points="227.57,-133.48 217.38,-136.38 227.15,-140.46 227.57,-133.48"/>
<text text-anchor="middle" x="556.5" y="-178" font-family="Helvetica,sans-Serif" font-size="10.00"> serviceUuid</text>
</g>
<!-- Node16&#45;&gt;Node21 -->
<g id="edge40" class="edge">
<title>Node16&#45;&gt;Node21</title>
<path fill="none" stroke="#9a32cd" stroke-dasharray="5,2" d="M207.82,-121.32C224.99,-115.95 245.82,-110.21 265,-107 411.52,-82.46 450.83,-83.33 599,-94 693.94,-100.84 804.28,-119.53 862.39,-130.22"/>
<polygon fill="#9a32cd" stroke="#9a32cd" points="206.63,-118.02 198.18,-124.41 208.77,-124.69 206.63,-118.02"/>
<text text-anchor="middle" x="556.5" y="-97" font-family="Helvetica,sans-Serif" font-size="10.00"> serviceUuid</text>
</g>
<!-- Node17 -->
<g id="node17" class="node">
<title>Node17</title>
<g id="a_node17"><a target="_parent" xlink:href="https://doc.qt.io/qt-5/quuid.html" xlink:title=" ">
<polygon fill="none" stroke="#bfbfbf" points="4.5,-124.5 4.5,-143.5 51.5,-143.5 51.5,-124.5 4.5,-124.5"/>
<text text-anchor="middle" x="28" y="-131.5" font-family="Helvetica,sans-Serif" font-size="10.00">QUuid</text>
</a>
</g>
</g>
<!-- Node17&#45;&gt;Node16 -->
<g id="edge26" class="edge">
<title>Node17&#45;&gt;Node16</title>
<path fill="none" stroke="midnightblue" d="M61.92,-134C80.13,-134 103.03,-134 122.98,-134"/>
<polygon fill="midnightblue" stroke="midnightblue" points="61.81,-130.5 51.81,-134 61.8,-137.5 61.81,-130.5"/>
</g>
<!-- Node18&#45;&gt;Node10 -->
<g id="edge29" class="edge">
<title>Node18&#45;&gt;Node10</title>
<path fill="none" stroke="#9a32cd" stroke-dasharray="5,2" d="M966.61,-218.56C1001.74,-223.71 1046.33,-231.67 1085,-243 1105.14,-248.9 1127.17,-258.38 1142.49,-265.5"/>
<polygon fill="#9a32cd" stroke="#9a32cd" points="966.9,-215.07 956.5,-217.12 965.91,-222 966.9,-215.07"/>
<text text-anchor="middle" x="1034.5" y="-246" font-family="Helvetica,sans-Serif" font-size="10.00"> deviceInfo</text>
</g>
<!-- Node19&#45;&gt;Node10 -->
<g id="edge32" class="edge">
<title>Node19&#45;&gt;Node10</title>
<path fill="none" stroke="#9a32cd" stroke-dasharray="5,2" d="M953.34,-113.09C957.72,-114.86 962,-116.82 966,-119 975.15,-123.98 974.62,-129.47 984,-134 1025.29,-153.94 1047.23,-129.01 1085,-155 1126.4,-183.48 1150.56,-242.25 1158.79,-265.36"/>
<polygon fill="#9a32cd" stroke="#9a32cd" points="954.28,-109.71 943.69,-109.53 951.86,-116.27 954.28,-109.71"/>
<text text-anchor="middle" x="1034.5" y="-158" font-family="Helvetica,sans-Serif" font-size="10.00"> genericAccess</text>
</g>
<!-- Node20&#45;&gt;Node10 -->
<g id="edge35" class="edge">
<title>Node20&#45;&gt;Node10</title>
<path fill="none" stroke="#9a32cd" stroke-dasharray="5,2" d="M967.74,-255.21C1002.33,-258.66 1046.04,-263.03 1085,-267 1092.35,-267.75 1100.1,-268.55 1107.74,-269.34"/>
<polygon fill="#9a32cd" stroke="#9a32cd" points="968.07,-251.73 957.78,-254.22 967.38,-258.7 968.07,-251.73"/>
<text text-anchor="middle" x="1034.5" y="-270" font-family="Helvetica,sans-Serif" font-size="10.00"> multimeter</text>
</g>
<!-- Node21&#45;&gt;Node10 -->
<g id="edge38" class="edge">
<title>Node21&#45;&gt;Node10</title>
<path fill="none" stroke="#9a32cd" stroke-dasharray="5,2" d="M939.6,-151.18C991.42,-170.92 1083.36,-206 1085,-207 1112.76,-223.82 1139.97,-251.09 1153.38,-265.46"/>
<polygon fill="#9a32cd" stroke="#9a32cd" points="940.71,-147.85 930.11,-147.56 938.21,-154.39 940.71,-147.85"/>
<text text-anchor="middle" x="1034.5" y="-210" font-family="Helvetica,sans-Serif" font-size="10.00"> status</text>
</g>
<!-- Node22 -->
<g id="node22" class="node">
<title>Node22</title>
<g id="a_node22"><a target="_parent" xlink:href="https://doc.qt.io/qt-5/qmutex.html" xlink:title=" ">
<polygon fill="none" stroke="#bfbfbf" points="876.5,-46.5 876.5,-65.5 931.5,-65.5 931.5,-46.5 876.5,-46.5"/>
<text text-anchor="middle" x="904" y="-53.5" font-family="Helvetica,sans-Serif" font-size="10.00">QMutex</text>
</a>
</g>
</g>
<!-- Node22&#45;&gt;Node10 -->
<g id="edge41" class="edge">
<title>Node22&#45;&gt;Node10</title>
<path fill="none" stroke="#9a32cd" stroke-dasharray="5,2" d="M941.37,-43.73C980.61,-32.95 1043.07,-23.16 1085,-53 1157.46,-104.56 1162.35,-229.29 1162.2,-265.19"/>
<polygon fill="#9a32cd" stroke="#9a32cd" points="940.31,-40.4 931.69,-46.55 942.27,-47.12 940.31,-40.4"/>
<text text-anchor="middle" x="1034.5" y="-122" font-family="Helvetica,sans-Serif" font-size="10.00"> calibrationMutex</text>
<text text-anchor="middle" x="1034.5" y="-111" font-family="Helvetica,sans-Serif" font-size="10.00">dataLoggerMutex</text>
<text text-anchor="middle" x="1034.5" y="-100" font-family="Helvetica,sans-Serif" font-size="10.00">deviceInfoMutex</text>
<text text-anchor="middle" x="1034.5" y="-89" font-family="Helvetica,sans-Serif" font-size="10.00">dsoMutex</text>
<text text-anchor="middle" x="1034.5" y="-78" font-family="Helvetica,sans-Serif" font-size="10.00">genericAccessMutex</text>
<text text-anchor="middle" x="1034.5" y="-67" font-family="Helvetica,sans-Serif" font-size="10.00">multimeterMutex</text>
<text text-anchor="middle" x="1034.5" y="-56" font-family="Helvetica,sans-Serif" font-size="10.00">statusMutex</text>
</g>
<!-- Node23 -->
<g id="node23" class="node">
<title>Node23</title>
<g id="a_node23"><a xlink:title=" ">
<polygon fill="none" stroke="#bfbfbf" points="653,-0.5 653,-19.5 734,-19.5 734,-0.5 653,-0.5"/>
<text text-anchor="middle" x="693.5" y="-7.5" font-family="Helvetica,sans-Serif" font-size="10.00">QBasicMutex</text>
</a>
</g>
</g>
<!-- Node23&#45;&gt;Node22 -->
<g id="edge42" class="edge">
<title>Node23&#45;&gt;Node22</title>
<path fill="none" stroke="midnightblue" d="M744.1,-18.13C768.3,-22.37 797.78,-27.93 824,-34 841.62,-38.08 861.2,-43.52 876.46,-47.98"/>
<polygon fill="midnightblue" stroke="midnightblue" points="744.52,-14.66 734.07,-16.4 743.33,-21.55 744.52,-14.66"/>
</g>
</g>
</svg>
