<?xml version="1.0" encoding="UTF-8" standalone="no"?>
<!DOCTYPE svg PUBLIC "-//W3C//DTD SVG 1.1//EN"
 "http://www.w3.org/Graphics/SVG/1.1/DTD/svg11.dtd">
<!-- Generated by graphviz version 2.43.0 (0)
 -->
<!-- Title: MultimeterService::toString Pages: 1 -->
<svg width="731pt" height="78pt"
 viewBox="0.00 0.00 731.00 77.50" xmlns="http://www.w3.org/2000/svg" xmlns:xlink="http://www.w3.org/1999/xlink">
<g id="graph0" class="graph" transform="scale(1 1) rotate(0) translate(4 73.5)">
<title>MultimeterService::toString</title>
<!-- Node1 -->
<g id="node1" class="node">
<title>Node1</title>
<g id="a_node1"><a xlink:title="Returns mode as a user&#45;friendly string.">
<polygon fill="#bfbfbf" stroke="black" points="610,-22.5 610,-52.5 723,-52.5 723,-22.5 610,-22.5"/>
<text text-anchor="start" x="618" y="-40.5" font-family="Helvetica,sans-Serif" font-size="10.00">MultimeterService::</text>
<text text-anchor="middle" x="666.5" y="-29.5" font-family="Helvetica,sans-Serif" font-size="10.00">toString</text>
</a>
</g>
</g>
<!-- Node2 -->
<g id="node2" class="node">
<title>Node2</title>
<g id="a_node2"><a xlink:href="classMeterCommand.html#a551a1c3d1c6f10384b5ccf264a640eff" target="_top" xlink:title="Outputs meter reading in the selected ouput format.">
<polygon fill="none" stroke="black" points="401,-50 401,-69 574,-69 574,-50 401,-50"/>
<text text-anchor="middle" x="487.5" y="-57" font-family="Helvetica,sans-Serif" font-size="10.00">MeterCommand::outputReading</text>
</a>
</g>
</g>
<!-- Node1&#45;&gt;Node2 -->
<g id="edge1" class="edge">
<title>Node1&#45;&gt;Node2</title>
<path fill="none" stroke="midnightblue" d="M599.81,-45.67C588.54,-47.07 576.75,-48.53 565.22,-49.96"/>
<polygon fill="midnightblue" stroke="midnightblue" points="600.49,-49.11 609.98,-44.4 599.63,-42.16 600.49,-49.11"/>
</g>
<!-- Node5 -->
<g id="node5" class="node">
<title>Node5</title>
<g id="a_node5"><a xlink:href="classMeterCommand.html#aca51a018963bc384a24154cdb112a49b" target="_top" xlink:title="Handles service detail discovery events.">
<polygon fill="none" stroke="black" points="402,-0.5 402,-30.5 573,-30.5 573,-0.5 402,-0.5"/>
<text text-anchor="start" x="410" y="-18.5" font-family="Helvetica,sans-Serif" font-size="10.00">MeterCommand::serviceDetails</text>
<text text-anchor="middle" x="487.5" y="-7.5" font-family="Helvetica,sans-Serif" font-size="10.00">Discovered</text>
</a>
</g>
</g>
<!-- Node1&#45;&gt;Node5 -->
<g id="edge4" class="edge">
<title>Node1&#45;&gt;Node5</title>
<path fill="none" stroke="midnightblue" d="M599.95,-29.35C591.27,-28.27 582.27,-27.16 573.32,-26.04"/>
<polygon fill="midnightblue" stroke="midnightblue" points="599.63,-32.84 609.98,-30.6 600.49,-25.89 599.63,-32.84"/>
</g>
<!-- Node3 -->
<g id="node3" class="node">
<title>Node3</title>
<g id="a_node3"><a xlink:href="classMeterCommand.html#a994e13d73c26eac303fa34b14082c9a4" target="_top" xlink:title="Invoked when the multimeter settings have been written, to begin reading the meter values.">
<polygon fill="none" stroke="black" points="189,-50 189,-69 365,-69 365,-50 189,-50"/>
<text text-anchor="middle" x="277" y="-57" font-family="Helvetica,sans-Serif" font-size="10.00">MeterCommand::settingsWritten</text>
</a>
</g>
</g>
<!-- Node2&#45;&gt;Node3 -->
<g id="edge2" class="edge">
<title>Node2&#45;&gt;Node3</title>
<path fill="none" stroke="midnightblue" d="M390.78,-59.5C382.21,-59.5 373.55,-59.5 365.06,-59.5"/>
<polygon fill="midnightblue" stroke="midnightblue" points="390.79,-63 400.79,-59.5 390.79,-56 390.79,-63"/>
</g>
<!-- Node4 -->
<g id="node4" class="node">
<title>Node4</title>
<g id="a_node4"><a xlink:href="classMeterCommand.html#abdc90c9cd480caa8ad04281c49a1e9a4" target="_top" xlink:title="Returns a Pokit service object for the derived command class.">
<polygon fill="none" stroke="black" points="0,-50 0,-69 153,-69 153,-50 0,-50"/>
<text text-anchor="middle" x="76.5" y="-57" font-family="Helvetica,sans-Serif" font-size="10.00">MeterCommand::getService</text>
</a>
</g>
</g>
<!-- Node3&#45;&gt;Node4 -->
<g id="edge3" class="edge">
<title>Node3&#45;&gt;Node4</title>
<path fill="none" stroke="midnightblue" d="M178.87,-59.5C170.28,-59.5 161.67,-59.5 153.29,-59.5"/>
<polygon fill="midnightblue" stroke="midnightblue" points="178.94,-63 188.94,-59.5 178.93,-56 178.94,-63"/>
</g>
</g>
</svg>
