<?xml version="1.0" encoding="UTF-8" standalone="no"?>
<!DOCTYPE svg PUBLIC "-//W3C//DTD SVG 1.1//EN"
 "http://www.w3.org/Graphics/SVG/1.1/DTD/svg11.dtd">
<!-- Generated by graphviz version 2.43.0 (0)
 -->
<!-- Title: PokitDevicePrivate::connected Pages: 1 -->
<svg width="279pt" height="301pt"
 viewBox="0.00 0.00 279.00 301.00" xmlns="http://www.w3.org/2000/svg" xmlns:xlink="http://www.w3.org/1999/xlink">
<g id="graph0" class="graph" transform="scale(1 1) rotate(0) translate(4 297)">
<title>PokitDevicePrivate::connected</title>
<!-- Node1 -->
<g id="node1" class="node">
<title>Node1</title>
<g id="a_node1"><a xlink:title="Handle connected signals.">
<polygon fill="#bfbfbf" stroke="black" points="0,-126 0,-156 110,-156 110,-126 0,-126"/>
<text text-anchor="start" x="8" y="-144" font-family="Helvetica,sans-Serif" font-size="10.00">PokitDevicePrivate</text>
<text text-anchor="middle" x="55" y="-133" font-family="Helvetica,sans-Serif" font-size="10.00">::connected</text>
</a>
</g>
</g>
<!-- Node2 -->
<g id="node2" class="node">
<title>Node2</title>
<g id="a_node2"><a target="_parent" xlink:href="https://doc.qt.io/qt-5/qstring.html#arg-11" xlink:title=" ">
<polygon fill="none" stroke="black" points="171.5,-273.5 171.5,-292.5 245.5,-292.5 245.5,-273.5 171.5,-273.5"/>
<text text-anchor="middle" x="208.5" y="-280.5" font-family="Helvetica,sans-Serif" font-size="10.00">QString::arg</text>
</a>
</g>
</g>
<!-- Node1&#45;&gt;Node2 -->
<g id="edge1" class="edge">
<title>Node1&#45;&gt;Node2</title>
<path fill="none" stroke="midnightblue" d="M63.1,-156.31C75.94,-182.32 105.5,-235.12 146,-264 150.78,-267.41 156.19,-270.22 161.76,-272.53"/>
<polygon fill="midnightblue" stroke="midnightblue" points="160.63,-275.84 171.23,-275.97 163.03,-269.26 160.63,-275.84"/>
</g>
<!-- Node3 -->
<g id="node3" class="node">
<title>Node3</title>
<g id="a_node3"><a target="_parent" xlink:href="https://doc.qt.io/qt-5/qlowenergycontroller.html#remoteAddress" xlink:title=" ">
<polygon fill="none" stroke="black" points="146,-224 146,-254 271,-254 271,-224 146,-224"/>
<text text-anchor="start" x="154" y="-242" font-family="Helvetica,sans-Serif" font-size="10.00">QLowEnergyController</text>
<text text-anchor="middle" x="208.5" y="-231" font-family="Helvetica,sans-Serif" font-size="10.00">::remoteAddress</text>
</a>
</g>
</g>
<!-- Node1&#45;&gt;Node3 -->
<g id="edge2" class="edge">
<title>Node1&#45;&gt;Node3</title>
<path fill="none" stroke="midnightblue" d="M71.12,-156.01C88.14,-172.26 117.2,-198.12 146,-215 148.68,-216.57 151.49,-218.08 154.36,-219.52"/>
<polygon fill="midnightblue" stroke="midnightblue" points="153.14,-222.82 163.68,-223.89 156.11,-216.48 153.14,-222.82"/>
</g>
<!-- Node4 -->
<g id="node4" class="node">
<title>Node4</title>
<g id="a_node4"><a target="_parent" xlink:href="https://doc.qt.io/qt-5/qlowenergycontroller.html#remoteDeviceUuid" xlink:title=" ">
<polygon fill="none" stroke="black" points="146,-175 146,-205 271,-205 271,-175 146,-175"/>
<text text-anchor="start" x="154" y="-193" font-family="Helvetica,sans-Serif" font-size="10.00">QLowEnergyController</text>
<text text-anchor="middle" x="208.5" y="-182" font-family="Helvetica,sans-Serif" font-size="10.00">::remoteDeviceUuid</text>
</a>
</g>
</g>
<!-- Node1&#45;&gt;Node4 -->
<g id="edge3" class="edge">
<title>Node1&#45;&gt;Node4</title>
<path fill="none" stroke="midnightblue" d="M102.69,-156.1C118.03,-161.06 135.24,-166.63 151.21,-171.79"/>
<polygon fill="midnightblue" stroke="midnightblue" points="150.37,-175.2 160.96,-174.95 152.53,-168.54 150.37,-175.2"/>
</g>
<!-- Node5 -->
<g id="node5" class="node">
<title>Node5</title>
<g id="a_node5"><a target="_parent" xlink:href="https://doc.qt.io/qt-5/qlowenergycontroller.html#remoteName" xlink:title=" ">
<polygon fill="none" stroke="black" points="146,-126 146,-156 271,-156 271,-126 146,-126"/>
<text text-anchor="start" x="154" y="-144" font-family="Helvetica,sans-Serif" font-size="10.00">QLowEnergyController</text>
<text text-anchor="middle" x="208.5" y="-133" font-family="Helvetica,sans-Serif" font-size="10.00">::remoteName</text>
</a>
</g>
</g>
<!-- Node1&#45;&gt;Node5 -->
<g id="edge4" class="edge">
<title>Node1&#45;&gt;Node5</title>
<path fill="none" stroke="midnightblue" d="M110.27,-141C118.57,-141 127.24,-141 135.84,-141"/>
<polygon fill="midnightblue" stroke="midnightblue" points="135.89,-144.5 145.89,-141 135.89,-137.5 135.89,-144.5"/>
</g>
<!-- Node6 -->
<g id="node6" class="node">
<title>Node6</title>
<g id="a_node6"><a target="_parent" xlink:href="https://doc.qt.io/qt-5/qbluetoothaddress.html#toString" xlink:title=" ">
<polygon fill="none" stroke="black" points="150.5,-77 150.5,-107 266.5,-107 266.5,-77 150.5,-77"/>
<text text-anchor="start" x="158.5" y="-95" font-family="Helvetica,sans-Serif" font-size="10.00">QBluetoothAddress::</text>
<text text-anchor="middle" x="208.5" y="-84" font-family="Helvetica,sans-Serif" font-size="10.00">toString</text>
</a>
</g>
</g>
<!-- Node1&#45;&gt;Node6 -->
<g id="edge5" class="edge">
<title>Node1&#45;&gt;Node6</title>
<path fill="none" stroke="midnightblue" d="M102.69,-125.9C118.03,-120.94 135.24,-115.37 151.21,-110.21"/>
<polygon fill="midnightblue" stroke="midnightblue" points="152.53,-113.46 160.96,-107.05 150.37,-106.8 152.53,-113.46"/>
</g>
<!-- Node7 -->
<g id="node7" class="node">
<title>Node7</title>
<g id="a_node7"><a target="_parent" xlink:href="https://doc.qt.io/qt-5/quuid.html#toString" xlink:title=" ">
<polygon fill="none" stroke="black" points="163,-38.5 163,-57.5 254,-57.5 254,-38.5 163,-38.5"/>
<text text-anchor="middle" x="208.5" y="-45.5" font-family="Helvetica,sans-Serif" font-size="10.00">QUuid::toString</text>
</a>
</g>
</g>
<!-- Node1&#45;&gt;Node7 -->
<g id="edge6" class="edge">
<title>Node1&#45;&gt;Node7</title>
<path fill="none" stroke="midnightblue" d="M70.98,-125.9C87.88,-109.6 116.84,-83.86 146,-68 150.75,-65.42 155.88,-63.1 161.09,-61.04"/>
<polygon fill="midnightblue" stroke="midnightblue" points="162.3,-64.33 170.48,-57.6 159.89,-57.75 162.3,-64.33"/>
</g>
<!-- Node8 -->
<g id="node8" class="node">
<title>Node8</title>
<g id="a_node8"><a target="_parent" xlink:href="https://doc.qt.io/qt-5/qobject.html#tr" xlink:title=" ">
<polygon fill="none" stroke="black" points="174,-0.5 174,-19.5 243,-19.5 243,-0.5 174,-0.5"/>
<text text-anchor="middle" x="208.5" y="-7.5" font-family="Helvetica,sans-Serif" font-size="10.00">QObject::tr</text>
</a>
</g>
</g>
<!-- Node1&#45;&gt;Node8 -->
<g id="edge7" class="edge">
<title>Node1&#45;&gt;Node8</title>
<path fill="none" stroke="midnightblue" d="M64.12,-125.92C77.83,-101.87 107.83,-54.93 146,-29 151.59,-25.2 157.97,-22.14 164.46,-19.67"/>
<polygon fill="midnightblue" stroke="midnightblue" points="165.59,-22.98 173.95,-16.48 163.36,-16.35 165.59,-22.98"/>
</g>
</g>
</svg>
