<?xml version="1.0" encoding="UTF-8" standalone="no"?>
<!DOCTYPE svg PUBLIC "-//W3C//DTD SVG 1.1//EN"
 "http://www.w3.org/Graphics/SVG/1.1/DTD/svg11.dtd">
<!-- Generated by graphviz version 2.43.0 (0)
 -->
<!-- Title: AbstractPokitService::pokitProduct Pages: 1 -->
<svg width="356pt" height="296pt"
 viewBox="0.00 0.00 356.00 295.50" xmlns="http://www.w3.org/2000/svg" xmlns:xlink="http://www.w3.org/1999/xlink">
<g id="graph0" class="graph" transform="scale(1 1) rotate(0) translate(4 291.5)">
<title>AbstractPokitService::pokitProduct</title>
<!-- Node1 -->
<g id="Node000001" class="node">
<title>Node1</title>
<g id="a_Node000001"><a xlink:title="Returns the Pokit product this service is attached to.">
<polygon fill="#999999" stroke="#666666" points="348,-164 230,-164 230,-134 348,-134 348,-164"/>
<text text-anchor="start" x="238" y="-152" font-family="Helvetica,sans-Serif" font-size="10.00">AbstractPokitService</text>
<text text-anchor="middle" x="289" y="-141" font-family="Helvetica,sans-Serif" font-size="10.00">::pokitProduct</text>
</a>
</g>
</g>
<!-- Node2 -->
<g id="Node000002" class="node">
<title>Node2</title>
<g id="a_Node000002"><a xlink:href="classDeviceCommand.html#acde5a41e646a23c5485b67cf99e402a7" target="_top" xlink:title="Checks if info is the device (if any) we&#39;re looking for, and if so, create a contoller and service,...">
<polygon fill="white" stroke="#666666" points="194,-287.5 0,-287.5 0,-268.5 194,-268.5 194,-287.5"/>
<text text-anchor="middle" x="97" y="-275.5" font-family="Helvetica,sans-Serif" font-size="10.00">DeviceCommand::deviceDiscovered</text>
</a>
</g>
</g>
<!-- Node1&#45;&gt;Node2 -->
<g id="edge1_Node000001_Node000002" class="edge">
<title>Node1&#45;&gt;Node2</title>
<g id="a_edge1_Node000001_Node000002"><a xlink:title=" ">
<path fill="none" stroke="#63b8ff" d="M275.33,-171.33C259.65,-196.79 230.5,-237.63 194,-259 187.4,-262.86 180.16,-265.95 172.7,-268.43"/>
<polygon fill="#63b8ff" stroke="#63b8ff" points="279.57,-164.27 278.54,-172.98 277.51,-167.7 275.45,-171.13 275.45,-171.13 275.45,-171.13 277.51,-167.7 272.37,-169.27 279.57,-164.27 279.57,-164.27"/>
</a>
</g>
</g>
<!-- Node3 -->
<g id="Node000003" class="node">
<title>Node3</title>
<g id="a_Node000003"><a xlink:href="classDataLoggerService.html#a975b86a17e910d91a60461032b096d4d" target="_top" xlink:title="Returns the maximum value for range, or 0 range is not a known value for the current product&#39;s mode.">
<polygon fill="white" stroke="#666666" points="154.5,-250 39.5,-250 39.5,-220 154.5,-220 154.5,-250"/>
<text text-anchor="start" x="47.5" y="-238" font-family="Helvetica,sans-Serif" font-size="10.00">DataLoggerService::</text>
<text text-anchor="middle" x="97" y="-227" font-family="Helvetica,sans-Serif" font-size="10.00">maxValue</text>
</a>
</g>
</g>
<!-- Node1&#45;&gt;Node3 -->
<g id="edge2_Node000001_Node000003" class="edge">
<title>Node1&#45;&gt;Node3</title>
<g id="a_edge2_Node000001_Node000003"><a xlink:title=" ">
<path fill="none" stroke="#63b8ff" d="M262.48,-169.28C244.31,-182.83 218.81,-200.1 194,-211 181.65,-216.43 167.85,-220.78 154.65,-224.21"/>
<polygon fill="#63b8ff" stroke="#63b8ff" points="269.31,-164.11 265.1,-171.81 266.12,-166.52 262.93,-168.94 262.93,-168.94 262.93,-168.94 266.12,-166.52 260.76,-166.07 269.31,-164.11 269.31,-164.11"/>
</a>
</g>
</g>
<!-- Node4 -->
<g id="Node000004" class="node">
<title>Node4</title>
<g id="a_Node000004"><a xlink:href="classDsoService.html#a89dd8027581790c3e65c13ced786d2ee" target="_top" xlink:title="Returns the maximum value for range, or 0 range is not a known value for the current product&#39;s mode.">
<polygon fill="white" stroke="#666666" points="160,-201.5 34,-201.5 34,-182.5 160,-182.5 160,-201.5"/>
<text text-anchor="middle" x="97" y="-189.5" font-family="Helvetica,sans-Serif" font-size="10.00">DsoService::maxValue</text>
</a>
</g>
</g>
<!-- Node1&#45;&gt;Node4 -->
<g id="edge3_Node000001_Node000004" class="edge">
<title>Node1&#45;&gt;Node4</title>
<g id="a_edge3_Node000001_Node000004"><a xlink:title=" ">
<path fill="none" stroke="#63b8ff" d="M223.18,-166.04C213.43,-168.46 203.46,-170.86 194,-173 179.42,-176.3 163.52,-179.58 148.93,-182.46"/>
<polygon fill="#63b8ff" stroke="#63b8ff" points="230.95,-164.1 224.07,-169.53 227.07,-165.07 223.19,-166.04 223.19,-166.04 223.19,-166.04 227.07,-165.07 222.32,-162.55 230.95,-164.1 230.95,-164.1"/>
</a>
</g>
</g>
<!-- Node5 -->
<g id="Node000005" class="node">
<title>Node5</title>
<g id="a_Node000005"><a xlink:href="classMultimeterService.html#afb8e02e67d3adfc010796904052689e0" target="_top" xlink:title="Returns the maximum value for range, or 0 range is not a known value for the current product&#39;s mode.">
<polygon fill="white" stroke="#666666" points="153.5,-164 40.5,-164 40.5,-134 153.5,-134 153.5,-164"/>
<text text-anchor="start" x="48.5" y="-152" font-family="Helvetica,sans-Serif" font-size="10.00">MultimeterService::</text>
<text text-anchor="middle" x="97" y="-141" font-family="Helvetica,sans-Serif" font-size="10.00">maxValue</text>
</a>
</g>
</g>
<!-- Node1&#45;&gt;Node5 -->
<g id="edge4_Node000001_Node000005" class="edge">
<title>Node1&#45;&gt;Node5</title>
<g id="a_edge4_Node000001_Node000005"><a xlink:title=" ">
<path fill="none" stroke="#63b8ff" d="M221.89,-149C199.65,-149 175.08,-149 153.73,-149"/>
<polygon fill="#63b8ff" stroke="#63b8ff" points="229.96,-149 221.96,-152.6 225.96,-149 221.96,-149 221.96,-149 221.96,-149 225.96,-149 221.96,-145.4 229.96,-149 229.96,-149"/>
</a>
</g>
</g>
<!-- Node6 -->
<g id="Node000006" class="node">
<title>Node6</title>
<g id="a_Node000006"><a xlink:href="classDataLoggerService.html#a6f92316f5c2c256b17a74c5ad38eeab8" target="_top" xlink:title="Returns range as a user&#45;friendly string, or a null QString if mode has no ranges.">
<polygon fill="white" stroke="#666666" points="154.5,-116 39.5,-116 39.5,-86 154.5,-86 154.5,-116"/>
<text text-anchor="start" x="47.5" y="-104" font-family="Helvetica,sans-Serif" font-size="10.00">DataLoggerService::</text>
<text text-anchor="middle" x="97" y="-93" font-family="Helvetica,sans-Serif" font-size="10.00">toString</text>
</a>
</g>
</g>
<!-- Node1&#45;&gt;Node6 -->
<g id="edge5_Node000001_Node000006" class="edge">
<title>Node1&#45;&gt;Node6</title>
<g id="a_edge5_Node000001_Node000006"><a xlink:title=" ">
<path fill="none" stroke="#63b8ff" d="M222,-132.1C212.6,-129.71 203.06,-127.29 194,-125 181.26,-121.78 167.56,-118.34 154.61,-115.1"/>
<polygon fill="#63b8ff" stroke="#63b8ff" points="229.85,-134.1 221.2,-135.62 225.97,-133.12 222.09,-132.13 222.09,-132.13 222.09,-132.13 225.97,-133.12 222.98,-128.64 229.85,-134.1 229.85,-134.1"/>
</a>
</g>
</g>
<!-- Node7 -->
<g id="Node000007" class="node">
<title>Node7</title>
<g id="a_Node000007"><a xlink:href="classDsoService.html#aa106091512457325081f1940ad70c9f7" target="_top" xlink:title="Returns range as a user&#45;friendly string, or a null QString if mode has no ranges.">
<polygon fill="white" stroke="#666666" points="155,-67.5 39,-67.5 39,-48.5 155,-48.5 155,-67.5"/>
<text text-anchor="middle" x="97" y="-55.5" font-family="Helvetica,sans-Serif" font-size="10.00">DsoService::toString</text>
</a>
</g>
</g>
<!-- Node1&#45;&gt;Node7 -->
<g id="edge6_Node000001_Node000007" class="edge">
<title>Node1&#45;&gt;Node7</title>
<g id="a_edge6_Node000001_Node000007"><a xlink:title=" ">
<path fill="none" stroke="#63b8ff" d="M266.67,-128.01C248.75,-111.59 221.69,-89.52 194,-77 181.92,-71.54 168.29,-67.65 155.18,-64.87"/>
<polygon fill="#63b8ff" stroke="#63b8ff" points="272.84,-133.77 264.54,-130.94 269.92,-131.04 267,-128.31 267,-128.31 267,-128.31 269.92,-131.04 269.45,-125.68 272.84,-133.77 272.84,-133.77"/>
</a>
</g>
</g>
<!-- Node8 -->
<g id="Node000008" class="node">
<title>Node8</title>
<g id="a_Node000008"><a xlink:href="classMultimeterService.html#ade75432f62ac592509c4583a415ec04b" target="_top" xlink:title="Returns range as a user&#45;friendly string, or a null QString if mode has no ranges.">
<polygon fill="white" stroke="#666666" points="153.5,-30 40.5,-30 40.5,0 153.5,0 153.5,-30"/>
<text text-anchor="start" x="48.5" y="-18" font-family="Helvetica,sans-Serif" font-size="10.00">MultimeterService::</text>
<text text-anchor="middle" x="97" y="-7" font-family="Helvetica,sans-Serif" font-size="10.00">toString</text>
</a>
</g>
</g>
<!-- Node1&#45;&gt;Node8 -->
<g id="edge7_Node000001_Node000008" class="edge">
<title>Node1&#45;&gt;Node8</title>
<g id="a_edge7_Node000001_Node000008"><a xlink:title=" ">
<path fill="none" stroke="#63b8ff" d="M274.79,-126.85C258.8,-101.95 229.52,-62.12 194,-40 181.87,-32.44 167.51,-27.16 153.65,-23.47"/>
<polygon fill="#63b8ff" stroke="#63b8ff" points="279.14,-133.75 271.83,-128.9 277.01,-130.37 274.88,-126.98 274.88,-126.98 274.88,-126.98 277.01,-130.37 277.93,-125.06 279.14,-133.75 279.14,-133.75"/>
</a>
</g>
</g>
</g>
</svg>
