<?xml version="1.0" encoding="UTF-8" standalone="no"?>
<!DOCTYPE svg PUBLIC "-//W3C//DTD SVG 1.1//EN"
 "http://www.w3.org/Graphics/SVG/1.1/DTD/svg11.dtd">
<!-- Generated by graphviz version 2.43.0 (0)
 -->
<!-- Title: SetTorchCommand::serviceDetailsDiscovered Pages: 1 -->
<svg width="1214pt" height="415pt"
 viewBox="0.00 0.00 1214.00 414.69" xmlns="http://www.w3.org/2000/svg" xmlns:xlink="http://www.w3.org/1999/xlink">
<g id="graph0" class="graph" transform="scale(1 1) rotate(0) translate(4 410.69)">
<title>SetTorchCommand::serviceDetailsDiscovered</title>
<!-- Node1 -->
<g id="Node000001" class="node">
<title>Node1</title>
<g id="a_Node000001"><a xlink:title="Handles service detail discovery events.">
<polygon fill="#999999" stroke="#666666" points="149,-228.5 0,-228.5 0,-198.5 149,-198.5 149,-228.5"/>
<text text-anchor="start" x="8" y="-216.5" font-family="Helvetica,sans-Serif" font-size="10.00">SetTorchCommand::service</text>
<text text-anchor="middle" x="74.5" y="-205.5" font-family="Helvetica,sans-Serif" font-size="10.00">DetailsDiscovered</text>
</a>
</g>
</g>
<!-- Node2 -->
<g id="Node000002" class="node">
<title>Node2</title>
<g id="a_Node000002"><a target="_parent" xlink:href="https://doc.qt.io/qt-5/qstring.html#arg-1" xlink:title=" ">
<polygon fill="white" stroke="#666666" points="1187,-99 1113,-99 1113,-80 1187,-80 1187,-99"/>
<text text-anchor="middle" x="1150" y="-87" font-family="Helvetica,sans-Serif" font-size="10.00">QString::arg</text>
</a>
</g>
</g>
<!-- Node1&#45;&gt;Node2 -->
<g id="edge1_Node000001_Node000002" class="edge">
<title>Node1&#45;&gt;Node2</title>
<g id="a_edge1_Node000001_Node000002"><a xlink:title=" ">
<path fill="none" stroke="#63b8ff" d="M93.54,-198.48C144.52,-157.61 295.36,-47.5 440.5,-47.5 440.5,-47.5 440.5,-47.5 795,-47.5 912.37,-47.5 941.83,-54.76 1058,-71.5 1073.33,-73.71 1089.99,-76.8 1104.81,-79.8"/>
<polygon fill="#63b8ff" stroke="#63b8ff" points="1112.84,-81.45 1104.28,-83.36 1108.92,-80.64 1105,-79.84 1105,-79.84 1105,-79.84 1108.92,-80.64 1105.73,-76.31 1112.84,-81.45 1112.84,-81.45"/>
</a>
</g>
</g>
<!-- Node3 -->
<g id="Node000003" class="node">
<title>Node3</title>
<g id="a_Node000003"><a target="_parent" xlink:href="https://doc.qt.io/qt-5/qcoreapplication.html#exit" xlink:title=" ">
<polygon fill="white" stroke="#666666" points="328.5,-19 202.5,-19 202.5,0 328.5,0 328.5,-19"/>
<text text-anchor="middle" x="265.5" y="-7" font-family="Helvetica,sans-Serif" font-size="10.00">QCoreApplication::exit</text>
</a>
</g>
</g>
<!-- Node1&#45;&gt;Node3 -->
<g id="edge2_Node000001_Node000003" class="edge">
<title>Node1&#45;&gt;Node3</title>
<g id="a_edge2_Node000001_Node000003"><a xlink:title=" ">
<path fill="none" stroke="#63b8ff" d="M80.44,-198.38C92.51,-163.8 126.86,-78.5 185,-33.5 191.03,-28.83 197.96,-25.07 205.16,-22.04"/>
<polygon fill="#63b8ff" stroke="#63b8ff" points="213.05,-19.03 206.86,-25.24 209.31,-20.45 205.58,-21.88 205.58,-21.88 205.58,-21.88 209.31,-20.45 204.29,-18.52 213.05,-19.03 213.05,-19.03"/>
</a>
</g>
</g>
<!-- Node4 -->
<g id="Node000004" class="node">
<title>Node4</title>
<g id="a_Node000004"><a xlink:href="classStatusService.html#a3bc469455e6e704e0643fbc9ad236c70" target="_top" xlink:title="Set the Pokit device&#39;s torch to status.">
<polygon fill="white" stroke="#666666" points="346,-223 185,-223 185,-204 346,-204 346,-223"/>
<text text-anchor="middle" x="265.5" y="-211" font-family="Helvetica,sans-Serif" font-size="10.00">StatusService::setTorchStatus</text>
</a>
</g>
</g>
<!-- Node1&#45;&gt;Node4 -->
<g id="edge3_Node000001_Node000004" class="edge">
<title>Node1&#45;&gt;Node4</title>
<g id="a_edge3_Node000001_Node000004"><a xlink:title=" ">
<path fill="none" stroke="#63b8ff" d="M149.11,-213.5C158.17,-213.5 167.5,-213.5 176.74,-213.5"/>
<polygon fill="#63b8ff" stroke="#63b8ff" points="184.83,-213.5 176.83,-217.1 180.83,-213.5 176.83,-213.5 176.83,-213.5 176.83,-213.5 180.83,-213.5 176.83,-209.9 184.83,-213.5 184.83,-213.5"/>
</a>
</g>
</g>
<!-- Node17 -->
<g id="Node000017" class="node">
<title>Node17</title>
<g id="a_Node000017"><a target="_parent" xlink:href="https://doc.qt.io/qt-5/qobject.html#tr" xlink:title=" ">
<polygon fill="white" stroke="#666666" points="1016.5,-295 947.5,-295 947.5,-276 1016.5,-276 1016.5,-295"/>
<text text-anchor="middle" x="982" y="-283" font-family="Helvetica,sans-Serif" font-size="10.00">QObject::tr</text>
</a>
</g>
</g>
<!-- Node1&#45;&gt;Node17 -->
<g id="edge30_Node000001_Node000017" class="edge">
<title>Node1&#45;&gt;Node17</title>
<g id="a_edge30_Node000001_Node000017"><a xlink:title=" ">
<path fill="none" stroke="#63b8ff" d="M91.46,-228.72C139.78,-273.14 290.43,-399.5 440.5,-399.5 440.5,-399.5 440.5,-399.5 610.5,-399.5 726.14,-399.5 763.06,-424.52 870,-380.5 911.88,-363.26 949.33,-323.86 968.16,-301.6"/>
<polygon fill="#63b8ff" stroke="#63b8ff" points="973.39,-295.28 971.06,-303.74 970.84,-298.36 968.29,-301.44 968.29,-301.44 968.29,-301.44 970.84,-298.36 965.52,-299.15 973.39,-295.28 973.39,-295.28"/>
</a>
</g>
</g>
<!-- Node19 -->
<g id="Node000019" class="node">
<title>Node19</title>
<g id="a_Node000019"><a xlink:href="classStatusService.html#aac79e97cb114be25b2a6771d915f132d" target="_top" xlink:title="Returns a string version of the status enum label.">
<polygon fill="white" stroke="#666666" points="858,-371 730,-371 730,-352 858,-352 858,-371"/>
<text text-anchor="middle" x="794" y="-359" font-family="Helvetica,sans-Serif" font-size="10.00">StatusService::toString</text>
</a>
</g>
</g>
<!-- Node1&#45;&gt;Node19 -->
<g id="edge29_Node000001_Node000019" class="edge">
<title>Node1&#45;&gt;Node19</title>
<g id="a_edge29_Node000001_Node000019"><a xlink:title=" ">
<path fill="none" stroke="#63b8ff" d="M121.77,-228.53C204.26,-254.72 382.58,-308.57 537,-336.5 598.84,-347.68 670.05,-354.13 721.64,-357.66"/>
<polygon fill="#63b8ff" stroke="#63b8ff" points="729.74,-358.2 721.52,-361.26 725.75,-357.94 721.76,-357.67 721.76,-357.67 721.76,-357.67 725.75,-357.94 722,-354.08 729.74,-358.2 729.74,-358.2"/>
</a>
</g>
</g>
<!-- Node5 -->
<g id="Node000005" class="node">
<title>Node5</title>
<g id="a_Node000005"><a target="_parent" xlink:href="https://doc.qt.io/qt-5/qlowenergycharacteristic.html#isValid" xlink:title=" ">
<polygon fill="white" stroke="#666666" points="682,-199.5 537,-199.5 537,-169.5 682,-169.5 682,-199.5"/>
<text text-anchor="start" x="545" y="-187.5" font-family="Helvetica,sans-Serif" font-size="10.00">QLowEnergyCharacteristic</text>
<text text-anchor="middle" x="609.5" y="-176.5" font-family="Helvetica,sans-Serif" font-size="10.00">::isValid</text>
</a>
</g>
</g>
<!-- Node4&#45;&gt;Node5 -->
<g id="edge4_Node000004_Node000005" class="edge">
<title>Node4&#45;&gt;Node5</title>
<g id="a_edge4_Node000004_Node000005"><a xlink:title=" ">
<path fill="none" stroke="#63b8ff" d="M346.25,-206.74C401.07,-202.09 473.59,-195.94 528.47,-191.29"/>
<polygon fill="#63b8ff" stroke="#63b8ff" points="536.78,-190.58 529.11,-194.84 532.79,-190.92 528.8,-191.26 528.8,-191.26 528.8,-191.26 532.79,-190.92 528.5,-187.67 536.78,-190.58 536.78,-190.58"/>
</a>
</g>
</g>
<!-- Node6 -->
<g id="Node000006" class="node">
<title>Node6</title>
<g id="a_Node000006"><a xlink:href="classStatusService.html#ae7be4aae021ae50faef48ed2812eb6a7" target="_top" xlink:title="Returns the most recent value of the Status service&#39;s Status characteristic.">
<polygon fill="white" stroke="#666666" points="501,-242 382,-242 382,-223 501,-223 501,-242"/>
<text text-anchor="middle" x="441.5" y="-230" font-family="Helvetica,sans-Serif" font-size="10.00">StatusService::status</text>
</a>
</g>
</g>
<!-- Node4&#45;&gt;Node6 -->
<g id="edge5_Node000004_Node000006" class="edge">
<title>Node4&#45;&gt;Node6</title>
<g id="a_edge5_Node000004_Node000006"><a xlink:title=" ">
<path fill="none" stroke="#63b8ff" d="M346.12,-222.19C355.37,-223.2 364.73,-224.23 373.78,-225.21"/>
<polygon fill="#63b8ff" stroke="#63b8ff" points="381.99,-226.11 373.65,-228.82 378.01,-225.68 374.04,-225.24 374.04,-225.24 374.04,-225.24 378.01,-225.68 374.43,-221.66 381.99,-226.11 381.99,-226.11"/>
</a>
</g>
</g>
<!-- Node6&#45;&gt;Node5 -->
<g id="edge6_Node000006_Node000005" class="edge">
<title>Node6&#45;&gt;Node5</title>
<g id="a_edge6_Node000006_Node000005"><a xlink:title=" ">
<path fill="none" stroke="#63b8ff" d="M475.69,-222.9C496.53,-216.88 524,-208.93 548.55,-201.83"/>
<polygon fill="#63b8ff" stroke="#63b8ff" points="556.41,-199.56 549.72,-205.24 552.56,-200.67 548.72,-201.79 548.72,-201.79 548.72,-201.79 552.56,-200.67 547.72,-198.33 556.41,-199.56 556.41,-199.56"/>
</a>
</g>
</g>
<!-- Node7 -->
<g id="Node000007" class="node">
<title>Node7</title>
<g id="a_Node000007"><a xlink:href="classStatusServicePrivate.html#a3a6ff8ca3e9d7c884b269e52dd43aeb0" target="_top" xlink:title="Parses the Status value into a Status struct.">
<polygon fill="white" stroke="#666666" points="668.5,-247.5 550.5,-247.5 550.5,-217.5 668.5,-217.5 668.5,-247.5"/>
<text text-anchor="start" x="558.5" y="-235.5" font-family="Helvetica,sans-Serif" font-size="10.00">StatusServicePrivate</text>
<text text-anchor="middle" x="609.5" y="-224.5" font-family="Helvetica,sans-Serif" font-size="10.00">::parseStatus</text>
</a>
</g>
</g>
<!-- Node6&#45;&gt;Node7 -->
<g id="edge7_Node000006_Node000007" class="edge">
<title>Node6&#45;&gt;Node7</title>
<g id="a_edge7_Node000006_Node000007"><a xlink:title=" ">
<path fill="none" stroke="#63b8ff" d="M501.03,-232.5C514.24,-232.5 528.37,-232.5 541.9,-232.5"/>
<polygon fill="#63b8ff" stroke="#63b8ff" points="550.22,-232.5 542.22,-236.1 546.22,-232.5 542.22,-232.5 542.22,-232.5 542.22,-232.5 546.22,-232.5 542.22,-228.9 550.22,-232.5 550.22,-232.5"/>
</a>
</g>
</g>
<!-- Node20 -->
<g id="Node000020" class="node">
<title>Node20</title>
<g id="a_Node000020"><a target="_parent" xlink:href="https://doc.qt.io/qt-5/qlowenergycharacteristic.html#value" xlink:title=" ">
<polygon fill="white" stroke="#666666" points="682,-295.5 537,-295.5 537,-265.5 682,-265.5 682,-295.5"/>
<text text-anchor="start" x="545" y="-283.5" font-family="Helvetica,sans-Serif" font-size="10.00">QLowEnergyCharacteristic</text>
<text text-anchor="middle" x="609.5" y="-272.5" font-family="Helvetica,sans-Serif" font-size="10.00">::value</text>
</a>
</g>
</g>
<!-- Node6&#45;&gt;Node20 -->
<g id="edge28_Node000006_Node000020" class="edge">
<title>Node6&#45;&gt;Node20</title>
<g id="a_edge28_Node000006_Node000020"><a xlink:title=" ">
<path fill="none" stroke="#63b8ff" d="M475.69,-242.1C496.53,-248.12 524,-256.07 548.55,-263.17"/>
<polygon fill="#63b8ff" stroke="#63b8ff" points="556.41,-265.44 547.72,-266.67 552.56,-264.33 548.72,-263.21 548.72,-263.21 548.72,-263.21 552.56,-264.33 549.72,-259.76 556.41,-265.44 556.41,-265.44"/>
</a>
</g>
</g>
<!-- Node7&#45;&gt;Node2 -->
<g id="edge8_Node000007_Node000002" class="edge">
<title>Node7&#45;&gt;Node2</title>
<g id="a_edge8_Node000007_Node000002"><a xlink:title=" ">
<path fill="none" stroke="#63b8ff" d="M668.67,-218.34C673.54,-215.62 678.09,-212.37 682,-208.5 716.75,-174.08 678.66,-133.56 718,-104.5 778.2,-60.03 1007.23,-75.87 1104.68,-84.94"/>
<polygon fill="#63b8ff" stroke="#63b8ff" points="1112.86,-85.72 1104.56,-88.55 1108.88,-85.34 1104.9,-84.96 1104.9,-84.96 1104.9,-84.96 1108.88,-85.34 1105.24,-81.38 1112.86,-85.72 1112.86,-85.72"/>
</a>
</g>
</g>
<!-- Node8 -->
<g id="Node000008" class="node">
<title>Node8</title>
<g id="a_Node000008"><a target="_parent" xlink:href="https://doc.qt.io/qt-5/qbytearray.html#at" xlink:title=" ">
<polygon fill="white" stroke="#666666" points="838,-171 750,-171 750,-152 838,-152 838,-171"/>
<text text-anchor="middle" x="794" y="-159" font-family="Helvetica,sans-Serif" font-size="10.00">QByteArray::at</text>
</a>
</g>
</g>
<!-- Node7&#45;&gt;Node8 -->
<g id="edge9_Node000007_Node000008" class="edge">
<title>Node7&#45;&gt;Node8</title>
<g id="a_edge9_Node000007_Node000008"><a xlink:title=" ">
<path fill="none" stroke="#63b8ff" d="M662.16,-217.5C668.99,-214.84 675.77,-211.84 682,-208.5 699.86,-198.92 699.79,-189.4 718,-180.5 725.5,-176.84 733.78,-173.83 742.01,-171.38"/>
<polygon fill="#63b8ff" stroke="#63b8ff" points="749.87,-169.2 743.13,-174.81 746.02,-170.27 742.16,-171.34 742.16,-171.34 742.16,-171.34 746.02,-170.27 741.2,-167.87 749.87,-169.2 749.87,-169.2"/>
</a>
</g>
</g>
<!-- Node9 -->
<g id="Node000009" class="node">
<title>Node9</title>
<g id="a_Node000009"><a xlink:href="classAbstractPokitServicePrivate.html#af8b480a950244540bfff7fc4b476a0ef" target="_top" xlink:title="Returns false if data is smaller than minSize, otherwise returns failOnMax if data is bigger than max...">
<polygon fill="white" stroke="#666666" points="870,-219.5 718,-219.5 718,-189.5 870,-189.5 870,-219.5"/>
<text text-anchor="start" x="726" y="-207.5" font-family="Helvetica,sans-Serif" font-size="10.00">AbstractPokitServicePrivate</text>
<text text-anchor="middle" x="794" y="-196.5" font-family="Helvetica,sans-Serif" font-size="10.00">::checkSize</text>
</a>
</g>
</g>
<!-- Node7&#45;&gt;Node9 -->
<g id="edge10_Node000007_Node000009" class="edge">
<title>Node7&#45;&gt;Node9</title>
<g id="a_edge10_Node000007_Node000009"><a xlink:title=" ">
<path fill="none" stroke="#63b8ff" d="M668.75,-223.56C681.83,-221.56 695.95,-219.39 709.83,-217.26"/>
<polygon fill="#63b8ff" stroke="#63b8ff" points="717.96,-216.01 710.6,-220.79 714,-216.62 710.05,-217.23 710.05,-217.23 710.05,-217.23 714,-216.62 709.5,-213.67 717.96,-216.01 717.96,-216.01"/>
</a>
</g>
</g>
<!-- Node10 -->
<g id="Node000010" class="node">
<title>Node10</title>
<g id="a_Node000010"><a target="_parent" xlink:href="https://doc.qt.io/qt-5/qbytearray.html#mid" xlink:title=" ">
<polygon fill="white" stroke="#666666" points="1030.5,-133 933.5,-133 933.5,-114 1030.5,-114 1030.5,-133"/>
<text text-anchor="middle" x="982" y="-121" font-family="Helvetica,sans-Serif" font-size="10.00">QByteArray::mid</text>
</a>
</g>
</g>
<!-- Node7&#45;&gt;Node10 -->
<g id="edge23_Node000007_Node000010" class="edge">
<title>Node7&#45;&gt;Node10</title>
<g id="a_edge23_Node000007_Node000010"><a xlink:title=" ">
<path fill="none" stroke="#63b8ff" d="M668.38,-217.45C673.26,-214.91 677.89,-211.95 682,-208.5 707.61,-187.03 689.9,-160.58 718,-142.5 780.01,-102.6 868.11,-105.39 924.92,-112.94"/>
<polygon fill="#63b8ff" stroke="#63b8ff" points="933.06,-114.09 924.64,-116.54 929.1,-113.53 925.14,-112.97 925.14,-112.97 925.14,-112.97 929.1,-113.53 925.64,-109.41 933.06,-114.09 933.06,-114.09"/>
</a>
</g>
</g>
<!-- Node11 -->
<g id="Node000011" class="node">
<title>Node11</title>
<g id="a_Node000011"><a target="_parent" xlink:href="https://doc.qt.io/qt-5/qbytearray.html#size" xlink:title=" ">
<polygon fill="white" stroke="#666666" points="1199,-288 1101,-288 1101,-269 1199,-269 1199,-288"/>
<text text-anchor="middle" x="1150" y="-276" font-family="Helvetica,sans-Serif" font-size="10.00">QByteArray::size</text>
</a>
</g>
</g>
<!-- Node7&#45;&gt;Node11 -->
<g id="edge24_Node000007_Node000011" class="edge">
<title>Node7&#45;&gt;Node11</title>
<g id="a_edge24_Node000007_Node000011"><a xlink:title=" ">
<path fill="none" stroke="#63b8ff" d="M666.41,-247.5C671.92,-250.07 677.22,-253.05 682,-256.5 703.62,-272.11 694.15,-292.57 718,-304.5 852.88,-371.94 1041.93,-317.33 1116.72,-290.85"/>
<polygon fill="#63b8ff" stroke="#63b8ff" points="1124.43,-288.07 1118.12,-294.17 1120.67,-289.43 1116.9,-290.78 1116.9,-290.78 1116.9,-290.78 1120.67,-289.43 1115.68,-287.39 1124.43,-288.07 1124.43,-288.07"/>
</a>
</g>
</g>
<!-- Node7&#45;&gt;Node17 -->
<g id="edge27_Node000007_Node000017" class="edge">
<title>Node7&#45;&gt;Node17</title>
<g id="a_edge27_Node000007_Node000017"><a xlink:title=" ">
<path fill="none" stroke="#63b8ff" d="M668.54,-239.88C721.17,-246.67 800.86,-257.23 870,-267.5 892.84,-270.89 918.28,-274.99 939.03,-278.42"/>
<polygon fill="#63b8ff" stroke="#63b8ff" points="947.03,-279.75 938.55,-281.99 943.08,-279.1 939.14,-278.44 939.14,-278.44 939.14,-278.44 943.08,-279.1 939.73,-274.89 947.03,-279.75 947.03,-279.75"/>
</a>
</g>
</g>
<!-- Node18 -->
<g id="Node000018" class="node">
<title>Node18</title>
<g id="a_Node000018"><a target="_parent" xlink:href="https://doc.qt.io/qt-5/qbytearray.html#constData" xlink:title=" ">
<polygon fill="white" stroke="#666666" points="858,-295 730,-295 730,-276 858,-276 858,-295"/>
<text text-anchor="middle" x="794" y="-283" font-family="Helvetica,sans-Serif" font-size="10.00">QByteArray::constData</text>
</a>
</g>
</g>
<!-- Node7&#45;&gt;Node18 -->
<g id="edge22_Node000007_Node000018" class="edge">
<title>Node7&#45;&gt;Node18</title>
<g id="a_edge22_Node000007_Node000018"><a xlink:title=" ">
<path fill="none" stroke="#63b8ff" d="M662.31,-247.55C690.77,-255.81 725.57,-265.92 752.1,-273.62"/>
<polygon fill="#63b8ff" stroke="#63b8ff" points="760.05,-275.93 751.36,-277.16 756.21,-274.82 752.37,-273.7 752.37,-273.7 752.37,-273.7 756.21,-274.82 753.37,-270.24 760.05,-275.93 760.05,-275.93"/>
</a>
</g>
</g>
<!-- Node7&#45;&gt;Node19 -->
<g id="edge25_Node000007_Node000019" class="edge">
<title>Node7&#45;&gt;Node19</title>
<g id="a_edge25_Node000007_Node000019"><a xlink:title=" ">
<path fill="none" stroke="#63b8ff" d="M668.68,-247.21C673.5,-249.82 678.03,-252.89 682,-256.5 711.14,-283.01 688.67,-311.2 718,-337.5 723.05,-342.03 728.95,-345.7 735.2,-348.68"/>
<polygon fill="#63b8ff" stroke="#63b8ff" points="742.65,-351.87 733.88,-352.03 738.97,-350.3 735.3,-348.72 735.3,-348.72 735.3,-348.72 738.97,-350.3 736.71,-345.41 742.65,-351.87 742.65,-351.87"/>
</a>
</g>
</g>
<!-- Node9&#45;&gt;Node2 -->
<g id="edge11_Node000009_Node000002" class="edge">
<title>Node9&#45;&gt;Node2</title>
<g id="a_edge11_Node000009_Node000002"><a xlink:title=" ">
<path fill="none" stroke="#63b8ff" d="M864.84,-189.5C936.75,-173.77 1040.71,-150.17 1058,-141.5 1076.62,-132.16 1076.11,-122.17 1094,-111.5 1099.84,-108.02 1106.33,-104.87 1112.75,-102.11"/>
<polygon fill="#63b8ff" stroke="#63b8ff" points="1120.21,-99.05 1114.17,-105.42 1116.51,-100.57 1112.81,-102.09 1112.81,-102.09 1112.81,-102.09 1116.51,-100.57 1111.44,-98.75 1120.21,-99.05 1120.21,-99.05"/>
</a>
</g>
</g>
<!-- Node9&#45;&gt;Node10 -->
<g id="edge12_Node000009_Node000010" class="edge">
<title>Node9&#45;&gt;Node10</title>
<g id="a_edge12_Node000009_Node000010"><a xlink:title=" ">
<path fill="none" stroke="#63b8ff" d="M851.44,-189.4C857.88,-186.82 864.21,-183.86 870,-180.5 888.77,-169.61 887.23,-158.39 906,-147.5 914.22,-142.73 923.51,-138.78 932.68,-135.56"/>
<polygon fill="#63b8ff" stroke="#63b8ff" points="940.33,-133.02 933.87,-138.95 936.53,-134.28 932.73,-135.54 932.73,-135.54 932.73,-135.54 936.53,-134.28 931.6,-132.12 940.33,-133.02 940.33,-133.02"/>
</a>
</g>
</g>
<!-- Node9&#45;&gt;Node11 -->
<g id="edge13_Node000009_Node000011" class="edge">
<title>Node9&#45;&gt;Node11</title>
<g id="a_edge13_Node000009_Node000011"><a xlink:title=" ">
<path fill="none" stroke="#63b8ff" d="M863.96,-219.52C877.87,-222.52 892.4,-225.63 906,-228.5 970.47,-242.1 1044.67,-257.3 1093.94,-267.33"/>
<polygon fill="#63b8ff" stroke="#63b8ff" points="1101.93,-268.96 1093.38,-270.89 1098.01,-268.16 1094.09,-267.37 1094.09,-267.37 1094.09,-267.37 1098.01,-268.16 1094.81,-263.84 1101.93,-268.96 1101.93,-268.96"/>
</a>
</g>
</g>
<!-- Node12 -->
<g id="Node000012" class="node">
<title>Node12</title>
<g id="a_Node000012"><a xlink:href="classAbstractPokitServicePrivate.html#af748600fc201fe47f29b58e8e93179d8" target="_top" xlink:title="Returns up to maxSize bytes of data as a human readable hexadecimal string.">
<polygon fill="white" stroke="#666666" points="1058,-219.5 906,-219.5 906,-189.5 1058,-189.5 1058,-219.5"/>
<text text-anchor="start" x="914" y="-207.5" font-family="Helvetica,sans-Serif" font-size="10.00">AbstractPokitServicePrivate</text>
<text text-anchor="middle" x="982" y="-196.5" font-family="Helvetica,sans-Serif" font-size="10.00">::toHexString</text>
</a>
</g>
</g>
<!-- Node9&#45;&gt;Node12 -->
<g id="edge14_Node000009_Node000012" class="edge">
<title>Node9&#45;&gt;Node12</title>
<g id="a_edge14_Node000009_Node000012"><a xlink:title=" ">
<path fill="none" stroke="#63b8ff" d="M870.12,-204.5C879.24,-204.5 888.6,-204.5 897.84,-204.5"/>
<polygon fill="#63b8ff" stroke="#63b8ff" points="905.9,-204.5 897.9,-208.1 901.9,-204.5 897.9,-204.5 897.9,-204.5 897.9,-204.5 901.9,-204.5 897.9,-200.9 905.9,-204.5 905.9,-204.5"/>
</a>
</g>
</g>
<!-- Node9&#45;&gt;Node17 -->
<g id="edge21_Node000009_Node000017" class="edge">
<title>Node9&#45;&gt;Node17</title>
<g id="a_edge21_Node000009_Node000017"><a xlink:title=" ">
<path fill="none" stroke="#63b8ff" d="M840.4,-219.6C850.41,-223.6 860.77,-228.27 870,-233.5 887.64,-243.48 888.07,-252.04 906,-261.5 916.31,-266.94 928.08,-271.42 939.19,-274.97"/>
<polygon fill="#63b8ff" stroke="#63b8ff" points="947.13,-277.4 938.43,-278.51 943.3,-276.23 939.48,-275.06 939.48,-275.06 939.48,-275.06 943.3,-276.23 940.53,-271.62 947.13,-277.4 947.13,-277.4"/>
</a>
</g>
</g>
<!-- Node12&#45;&gt;Node2 -->
<g id="edge15_Node000012_Node000002" class="edge">
<title>Node12&#45;&gt;Node2</title>
<g id="a_edge15_Node000012_Node000002"><a xlink:title=" ">
<path fill="none" stroke="#63b8ff" d="M1036.05,-189.36C1043.93,-185.64 1051.56,-181.07 1058,-175.5 1082.67,-154.14 1069.45,-133.01 1094,-111.5 1097.91,-108.08 1102.42,-105.15 1107.14,-102.65"/>
<polygon fill="#63b8ff" stroke="#63b8ff" points="1114.67,-99.07 1108.99,-105.76 1111.06,-100.79 1107.44,-102.5 1107.44,-102.5 1107.44,-102.5 1111.06,-100.79 1105.9,-99.25 1114.67,-99.07 1114.67,-99.07"/>
</a>
</g>
</g>
<!-- Node12&#45;&gt;Node11 -->
<g id="edge19_Node000012_Node000011" class="edge">
<title>Node12&#45;&gt;Node11</title>
<g id="a_edge19_Node000012_Node000011"><a xlink:title=" ">
<path fill="none" stroke="#63b8ff" d="M1027.94,-219.56C1038.07,-223.59 1048.6,-228.29 1058,-233.5 1075.49,-243.2 1076.26,-251.27 1094,-260.5 1097.9,-262.53 1102.07,-264.39 1106.31,-266.08"/>
<polygon fill="#63b8ff" stroke="#63b8ff" points="1113.97,-268.94 1105.21,-269.52 1110.22,-267.54 1106.47,-266.14 1106.47,-266.14 1106.47,-266.14 1110.22,-267.54 1107.73,-262.77 1113.97,-268.94 1113.97,-268.94"/>
</a>
</g>
</g>
<!-- Node13 -->
<g id="Node000013" class="node">
<title>Node13</title>
<g id="a_Node000013"><a target="_parent" xlink:href="https://doc.qt.io/qt-5/qstring.html#fromLatin1" xlink:title=" ">
<polygon fill="white" stroke="#666666" points="1206,-214 1094,-214 1094,-195 1206,-195 1206,-214"/>
<text text-anchor="middle" x="1150" y="-202" font-family="Helvetica,sans-Serif" font-size="10.00">QString::fromLatin1</text>
</a>
</g>
</g>
<!-- Node12&#45;&gt;Node13 -->
<g id="edge16_Node000012_Node000013" class="edge">
<title>Node12&#45;&gt;Node13</title>
<g id="a_edge16_Node000012_Node000013"><a xlink:title=" ">
<path fill="none" stroke="#63b8ff" d="M1058.23,-204.5C1067.42,-204.5 1076.75,-204.5 1085.74,-204.5"/>
<polygon fill="#63b8ff" stroke="#63b8ff" points="1093.9,-204.5 1085.9,-208.1 1089.9,-204.5 1085.9,-204.5 1085.9,-204.5 1085.9,-204.5 1089.9,-204.5 1085.9,-200.9 1093.9,-204.5 1093.9,-204.5"/>
</a>
</g>
</g>
<!-- Node14 -->
<g id="Node000014" class="node">
<title>Node14</title>
<g id="a_Node000014"><a target="_parent" xlink:href="https://doc.qt.io/qt-5/qbytearray.html#left" xlink:title=" ">
<polygon fill="white" stroke="#666666" points="1197,-177 1103,-177 1103,-158 1197,-158 1197,-177"/>
<text text-anchor="middle" x="1150" y="-165" font-family="Helvetica,sans-Serif" font-size="10.00">QByteArray::left</text>
</a>
</g>
</g>
<!-- Node12&#45;&gt;Node14 -->
<g id="edge17_Node000012_Node000014" class="edge">
<title>Node12&#45;&gt;Node14</title>
<g id="a_edge17_Node000012_Node000014"><a xlink:title=" ">
<path fill="none" stroke="#63b8ff" d="M1050.52,-189.45C1066.42,-185.91 1083.11,-182.19 1098.14,-178.84"/>
<polygon fill="#63b8ff" stroke="#63b8ff" points="1106.3,-177.02 1099.28,-182.27 1102.4,-177.89 1098.5,-178.76 1098.5,-178.76 1098.5,-178.76 1102.4,-177.89 1097.71,-175.24 1106.3,-177.02 1106.3,-177.02"/>
</a>
</g>
</g>
<!-- Node15 -->
<g id="Node000015" class="node">
<title>Node15</title>
<g id="a_Node000015"><a target="_parent" xlink:href="https://doc.qt.io/qt-5/qbytearray.html#right" xlink:title=" ">
<polygon fill="white" stroke="#666666" points="1200.5,-140 1099.5,-140 1099.5,-121 1200.5,-121 1200.5,-140"/>
<text text-anchor="middle" x="1150" y="-128" font-family="Helvetica,sans-Serif" font-size="10.00">QByteArray::right</text>
</a>
</g>
</g>
<!-- Node12&#45;&gt;Node15 -->
<g id="edge18_Node000012_Node000015" class="edge">
<title>Node12&#45;&gt;Node15</title>
<g id="a_edge18_Node000012_Node000015"><a xlink:title=" ">
<path fill="none" stroke="#63b8ff" d="M1027.94,-189.44C1038.07,-185.41 1048.6,-180.71 1058,-175.5 1075.49,-165.8 1076.26,-157.73 1094,-148.5 1097.9,-146.47 1102.07,-144.61 1106.31,-142.92"/>
<polygon fill="#63b8ff" stroke="#63b8ff" points="1113.97,-140.06 1107.73,-146.23 1110.22,-141.46 1106.47,-142.86 1106.47,-142.86 1106.47,-142.86 1110.22,-141.46 1105.21,-139.48 1113.97,-140.06 1113.97,-140.06"/>
</a>
</g>
</g>
<!-- Node16 -->
<g id="Node000016" class="node">
<title>Node16</title>
<g id="a_Node000016"><a target="_parent" xlink:href="https://doc.qt.io/qt-5/qbytearray.html#toHex" xlink:title=" ">
<polygon fill="white" stroke="#666666" points="1203.5,-251 1096.5,-251 1096.5,-232 1203.5,-232 1203.5,-251"/>
<text text-anchor="middle" x="1150" y="-239" font-family="Helvetica,sans-Serif" font-size="10.00">QByteArray::toHex</text>
</a>
</g>
</g>
<!-- Node12&#45;&gt;Node16 -->
<g id="edge20_Node000012_Node000016" class="edge">
<title>Node12&#45;&gt;Node16</title>
<g id="a_edge20_Node000012_Node000016"><a xlink:title=" ">
<path fill="none" stroke="#63b8ff" d="M1050.52,-219.55C1066.42,-223.09 1083.11,-226.81 1098.14,-230.16"/>
<polygon fill="#63b8ff" stroke="#63b8ff" points="1106.3,-231.98 1097.71,-233.76 1102.4,-231.11 1098.5,-230.24 1098.5,-230.24 1098.5,-230.24 1102.4,-231.11 1099.28,-226.73 1106.3,-231.98 1106.3,-231.98"/>
</a>
</g>
</g>
<!-- Node19&#45;&gt;Node6 -->
<g id="edge26_Node000019_Node000006" class="edge">
<title>Node19&#45;&gt;Node6</title>
<g id="a_edge26_Node000019_Node000006"><a xlink:title=" ">
<path fill="none" stroke="#63b8ff" d="M737.34,-352C673.17,-340.54 572.05,-320.79 537,-304.5 506.02,-290.1 475.56,-264.19 457.92,-247.69"/>
<polygon fill="#63b8ff" stroke="#63b8ff" points="452.03,-242.08 460.31,-244.99 454.93,-244.84 457.82,-247.6 457.82,-247.6 457.82,-247.6 454.93,-244.84 455.34,-250.2 452.03,-242.08 452.03,-242.08"/>
</a>
</g>
</g>
</g>
</svg>
