<?xml version="1.0" encoding="UTF-8" standalone="no"?>
<!DOCTYPE svg PUBLIC "-//W3C//DTD SVG 1.1//EN"
 "http://www.w3.org/Graphics/SVG/1.1/DTD/svg11.dtd">
<!-- Generated by graphviz version 2.43.0 (0)
 -->
<!-- Title: FlashLedCommand::getService Pages: 1 -->
<svg width="743pt" height="152pt"
 viewBox="0.00 0.00 743.00 152.00" xmlns="http://www.w3.org/2000/svg" xmlns:xlink="http://www.w3.org/1999/xlink">
<g id="graph0" class="graph" transform="scale(1 1) rotate(0) translate(4 148)">
<title>FlashLedCommand::getService</title>
<!-- Node1 -->
<g id="node1" class="node">
<title>Node1</title>
<g id="a_node1"><a xlink:title="Returns a Pokit service object for the derived command class.">
<polygon fill="#999999" stroke="#666666" points="168,-80 0,-80 0,-61 168,-61 168,-80"/>
<text text-anchor="middle" x="84" y="-68" font-family="Helvetica,sans-Serif" font-size="10.00">FlashLedCommand::getService</text>
</a>
</g>
</g>
<!-- Node2 -->
<g id="node2" class="node">
<title>Node2</title>
<g id="a_node2"><a target="_parent" xlink:href="https://doc.qt.io/qt-5/qobject.html#connect" xlink:title=" ">
<polygon fill="white" stroke="#666666" points="337,-123 237,-123 237,-104 337,-104 337,-123"/>
<text text-anchor="middle" x="287" y="-111" font-family="Helvetica,sans-Serif" font-size="10.00">QObject::connect</text>
</a>
</g>
</g>
<!-- Node1&#45;&gt;Node2 -->
<g id="edge1" class="edge">
<title>Node1&#45;&gt;Node2</title>
<path fill="none" stroke="#63b8ff" d="M129.61,-80.04C160.32,-86.61 201.23,-95.36 233.51,-102.27"/>
<polygon fill="#63b8ff" stroke="#63b8ff" points="241.52,-103.98 232.94,-105.83 237.6,-103.15 233.69,-102.31 233.69,-102.31 233.69,-102.31 237.6,-103.15 234.45,-98.79 241.52,-103.98 241.52,-103.98"/>
</g>
<!-- Node3 -->
<g id="node3" class="node">
<title>Node3</title>
<g id="a_node3"><a xlink:href="classFlashLedCommand.html#af7a5897fc7657f70466c82f5ed538ccb" target="_top" xlink:title="Handles StatusService::deviceLedFlashed events, by outputting the result and exiting.">
<polygon fill="white" stroke="#666666" points="370,-85.5 204,-85.5 204,-55.5 370,-55.5 370,-85.5"/>
<text text-anchor="start" x="212" y="-73.5" font-family="Helvetica,sans-Serif" font-size="10.00">FlashLedCommand::deviceLed</text>
<text text-anchor="middle" x="287" y="-62.5" font-family="Helvetica,sans-Serif" font-size="10.00">Flashed</text>
</a>
</g>
</g>
<!-- Node1&#45;&gt;Node3 -->
<g id="edge2" class="edge">
<title>Node1&#45;&gt;Node3</title>
<path fill="none" stroke="#63b8ff" d="M168.21,-70.5C177.31,-70.5 186.61,-70.5 195.79,-70.5"/>
<polygon fill="#63b8ff" stroke="#63b8ff" points="203.83,-70.5 195.83,-74.1 199.83,-70.5 195.83,-70.5 195.83,-70.5 195.83,-70.5 199.83,-70.5 195.83,-66.9 203.83,-70.5 203.83,-70.5"/>
</g>
<!-- Node8 -->
<g id="node8" class="node">
<title>Node8</title>
<g id="a_node8"><a xlink:href="classPokitDevice.html#adaaaedcb434b3dda9608ad58192e9142" target="_top" xlink:title="Returns a pointer to StatusService instance that uses this device&#39;s controller for access.">
<polygon fill="white" stroke="#666666" points="342.5,-19 231.5,-19 231.5,0 342.5,0 342.5,-19"/>
<text text-anchor="middle" x="287" y="-7" font-family="Helvetica,sans-Serif" font-size="10.00">PokitDevice::status</text>
</a>
</g>
</g>
<!-- Node1&#45;&gt;Node8 -->
<g id="edge8" class="edge">
<title>Node1&#45;&gt;Node8</title>
<path fill="none" stroke="#63b8ff" d="M116.41,-60.97C151.56,-50.3 208.56,-33 246.66,-21.44"/>
<polygon fill="#63b8ff" stroke="#63b8ff" points="254.48,-19.06 247.87,-24.83 250.66,-20.23 246.83,-21.39 246.83,-21.39 246.83,-21.39 250.66,-20.23 245.78,-17.94 254.48,-19.06 254.48,-19.06"/>
</g>
<!-- Node4 -->
<g id="node4" class="node">
<title>Node4</title>
<g id="a_node4"><a xlink:href="classDeviceCommand.html#ae619166395b5651f1316fd5336d9fa2c" target="_top" xlink:title="Disconnects the underlying Pokit device, and sets exitCode to be return to the OS once the disconnect...">
<polygon fill="white" stroke="#666666" points="565,-99 406,-99 406,-80 565,-80 565,-99"/>
<text text-anchor="middle" x="485.5" y="-87" font-family="Helvetica,sans-Serif" font-size="10.00">DeviceCommand::disconnect</text>
</a>
</g>
</g>
<!-- Node3&#45;&gt;Node4 -->
<g id="edge3" class="edge">
<title>Node3&#45;&gt;Node4</title>
<path fill="none" stroke="#63b8ff" d="M370.2,-78.45C379.31,-79.33 388.6,-80.23 397.77,-81.11"/>
<polygon fill="#63b8ff" stroke="#63b8ff" points="405.78,-81.89 397.47,-84.7 401.8,-81.5 397.82,-81.12 397.82,-81.12 397.82,-81.12 401.8,-81.5 398.16,-77.53 405.78,-81.89 405.78,-81.89"/>
</g>
<!-- Node7 -->
<g id="node7" class="node">
<title>Node7</title>
<g id="a_node7"><a target="_parent" xlink:href="https://doc.qt.io/qt-5/qobject.html#tr" xlink:title=" ">
<polygon fill="white" stroke="#666666" points="702.5,-58 633.5,-58 633.5,-39 702.5,-39 702.5,-58"/>
<text text-anchor="middle" x="668" y="-46" font-family="Helvetica,sans-Serif" font-size="10.00">QObject::tr</text>
</a>
</g>
</g>
<!-- Node3&#45;&gt;Node7 -->
<g id="edge7" class="edge">
<title>Node3&#45;&gt;Node7</title>
<path fill="none" stroke="#63b8ff" d="M370.24,-65.73C448.63,-61.18 563.53,-54.51 624.82,-50.95"/>
<polygon fill="#63b8ff" stroke="#63b8ff" points="633.1,-50.47 625.33,-54.53 629.11,-50.7 625.12,-50.93 625.12,-50.93 625.12,-50.93 629.11,-50.7 624.91,-47.34 633.1,-50.47 633.1,-50.47"/>
</g>
<!-- Node5 -->
<g id="node5" class="node">
<title>Node5</title>
<g id="a_node5"><a xlink:href="classPokitDevice.html#a2e2fb6b30e6f5f0d7bc6cd8f806d6423" target="_top" xlink:title="Returns a non&#45;const pointer to the controller used to access the Pokit device.">
<polygon fill="white" stroke="#666666" points="732,-144 604,-144 604,-125 732,-125 732,-144"/>
<text text-anchor="middle" x="668" y="-132" font-family="Helvetica,sans-Serif" font-size="10.00">PokitDevice::controller</text>
</a>
</g>
</g>
<!-- Node4&#45;&gt;Node5 -->
<g id="edge4" class="edge">
<title>Node4&#45;&gt;Node5</title>
<path fill="none" stroke="#63b8ff" d="M524.78,-99.04C552.9,-106.05 591.23,-115.61 621.01,-123.03"/>
<polygon fill="#63b8ff" stroke="#63b8ff" points="628.78,-124.97 620.14,-126.53 624.89,-124 621.01,-123.04 621.01,-123.04 621.01,-123.04 624.89,-124 621.88,-119.54 628.78,-124.97 628.78,-124.97"/>
</g>
<!-- Node6 -->
<g id="node6" class="node">
<title>Node6</title>
<g id="a_node6"><a target="_parent" xlink:href="https://doc.qt.io/qt-5/qlowenergycontroller.html#disconnectFromDevice" xlink:title=" ">
<polygon fill="white" stroke="#666666" points="735,-106.5 601,-106.5 601,-76.5 735,-76.5 735,-106.5"/>
<text text-anchor="start" x="609" y="-94.5" font-family="Helvetica,sans-Serif" font-size="10.00">QLowEnergyController</text>
<text text-anchor="middle" x="668" y="-83.5" font-family="Helvetica,sans-Serif" font-size="10.00">::disconnectFromDevice</text>
</a>
</g>
</g>
<!-- Node4&#45;&gt;Node6 -->
<g id="edge5" class="edge">
<title>Node4&#45;&gt;Node6</title>
<path fill="none" stroke="#63b8ff" d="M565.14,-90.37C574.24,-90.47 583.49,-90.57 592.52,-90.67"/>
<polygon fill="#63b8ff" stroke="#63b8ff" points="600.75,-90.77 592.71,-94.28 596.75,-90.72 592.75,-90.68 592.75,-90.68 592.75,-90.68 596.75,-90.72 592.79,-87.08 600.75,-90.77 600.75,-90.77"/>
</g>
<!-- Node4&#45;&gt;Node7 -->
<g id="edge6" class="edge">
<title>Node4&#45;&gt;Node7</title>
<path fill="none" stroke="#63b8ff" d="M528.36,-79.99C557.59,-73.35 596.42,-64.53 625.56,-57.91"/>
<polygon fill="#63b8ff" stroke="#63b8ff" points="633.5,-56.11 626.49,-61.39 629.6,-57 625.7,-57.88 625.7,-57.88 625.7,-57.88 629.6,-57 624.9,-54.37 633.5,-56.11 633.5,-56.11"/>
</g>
<!-- Node8&#45;&gt;Node8 -->
<g id="edge9" class="edge">
<title>Node8&#45;&gt;Node8</title>
<path fill="none" stroke="#63b8ff" d="M256.48,-19.08C241.64,-27.73 251.81,-37 287,-37 314.49,-37 326.72,-31.34 323.67,-24.74"/>
<polygon fill="#63b8ff" stroke="#63b8ff" points="317.52,-19.08 325.84,-21.85 320.46,-21.79 323.4,-24.5 323.4,-24.5 323.4,-24.5 320.46,-21.79 320.97,-27.15 317.52,-19.08 317.52,-19.08"/>
</g>
</g>
</svg>
