<?xml version="1.0" encoding="UTF-8" standalone="no"?>
<!DOCTYPE svg PUBLIC "-//W3C//DTD SVG 1.1//EN"
 "http://www.w3.org/Graphics/SVG/1.1/DTD/svg11.dtd">
<!-- Generated by graphviz version 2.43.0 (0)
 -->
<!-- Title: AbstractCommand::supportedOptions Pages: 1 -->
<svg width="623pt" height="550pt"
 viewBox="0.00 0.00 623.00 550.00" xmlns="http://www.w3.org/2000/svg" xmlns:xlink="http://www.w3.org/1999/xlink">
<g id="graph0" class="graph" transform="scale(1 1) rotate(0) translate(4 546)">
<title>AbstractCommand::supportedOptions</title>
<!-- Node1 -->
<g id="node1" class="node">
<title>Node1</title>
<g id="a_node1"><a xlink:title="Returns a list of CLI option names supported by this command.">
<polygon fill="#bfbfbf" stroke="black" points="453,-175.5 453,-205.5 615,-205.5 615,-175.5 453,-175.5"/>
<text text-anchor="start" x="461" y="-193.5" font-family="Helvetica,sans-Serif" font-size="10.00">AbstractCommand::supported</text>
<text text-anchor="middle" x="534" y="-182.5" font-family="Helvetica,sans-Serif" font-size="10.00">Options</text>
</a>
</g>
</g>
<!-- Node2 -->
<g id="node2" class="node">
<title>Node2</title>
<g id="a_node2"><a xlink:href="classAbstractCommand.html#ad827a18a24776efeb955739459d48f7d" target="_top" xlink:title="Processes the relevant options from the command line parser.">
<polygon fill="none" stroke="black" points="247.5,-361.5 247.5,-391.5 398.5,-391.5 398.5,-361.5 247.5,-361.5"/>
<text text-anchor="start" x="255.5" y="-379.5" font-family="Helvetica,sans-Serif" font-size="10.00">AbstractCommand::process</text>
<text text-anchor="middle" x="323" y="-368.5" font-family="Helvetica,sans-Serif" font-size="10.00">Options</text>
</a>
</g>
</g>
<!-- Node1&#45;&gt;Node2 -->
<g id="edge1" class="edge">
<title>Node1&#45;&gt;Node2</title>
<path fill="none" stroke="midnightblue" d="M522.26,-214.96C505.24,-250.78 468.64,-317.1 417,-352.5 411.36,-356.37 405.14,-359.61 398.68,-362.33"/>
<polygon fill="midnightblue" stroke="midnightblue" points="525.51,-216.26 526.53,-205.71 519.16,-213.32 525.51,-216.26"/>
</g>
<!-- Node11 -->
<g id="node11" class="node">
<title>Node11</title>
<g id="a_node11"><a xlink:href="classCalibrationCommand.html#a00786e471cffba938fa6007d9e083468" target="_top" xlink:title="Returns a list of CLI option names supported by this command.">
<polygon fill="none" stroke="black" points="263,-312.5 263,-342.5 383,-342.5 383,-312.5 263,-312.5"/>
<text text-anchor="start" x="271" y="-330.5" font-family="Helvetica,sans-Serif" font-size="10.00">CalibrationCommand</text>
<text text-anchor="middle" x="323" y="-319.5" font-family="Helvetica,sans-Serif" font-size="10.00">::supportedOptions</text>
</a>
</g>
</g>
<!-- Node1&#45;&gt;Node11 -->
<g id="edge10" class="edge">
<title>Node1&#45;&gt;Node11</title>
<path fill="none" stroke="midnightblue" d="M515.23,-214C494.47,-239.79 457.73,-280.59 417,-303.5 406.68,-309.3 394.93,-313.74 383.34,-317.11"/>
<polygon fill="midnightblue" stroke="midnightblue" points="518.2,-215.89 521.64,-205.87 512.7,-211.55 518.2,-215.89"/>
</g>
<!-- Node12 -->
<g id="node12" class="node">
<title>Node12</title>
<g id="a_node12"><a xlink:href="classFlashLedCommand.html#ae533aaeeda78e56b6feabf9ef6fe5ab5" target="_top" xlink:title="Returns a list of CLI option names supported by this command.">
<polygon fill="none" stroke="black" points="240.5,-263.5 240.5,-293.5 405.5,-293.5 405.5,-263.5 240.5,-263.5"/>
<text text-anchor="start" x="248.5" y="-281.5" font-family="Helvetica,sans-Serif" font-size="10.00">FlashLedCommand::supported</text>
<text text-anchor="middle" x="323" y="-270.5" font-family="Helvetica,sans-Serif" font-size="10.00">Options</text>
</a>
</g>
</g>
<!-- Node1&#45;&gt;Node12 -->
<g id="edge11" class="edge">
<title>Node1&#45;&gt;Node12</title>
<path fill="none" stroke="midnightblue" d="M500.06,-211.1C477.38,-224.6 446.18,-241.84 417,-253.5 407.84,-257.16 397.96,-260.46 388.18,-263.37"/>
<polygon fill="midnightblue" stroke="midnightblue" points="502.17,-213.92 508.93,-205.76 498.55,-207.92 502.17,-213.92"/>
</g>
<!-- Node13 -->
<g id="node13" class="node">
<title>Node13</title>
<g id="a_node13"><a xlink:href="classInfoCommand.html#aaeb045dac5796d18b1041c0917267ec6" target="_top" xlink:title="Returns a list of CLI option names supported by this command.">
<polygon fill="none" stroke="black" points="234,-225 234,-244 412,-244 412,-225 234,-225"/>
<text text-anchor="middle" x="323" y="-232" font-family="Helvetica,sans-Serif" font-size="10.00">InfoCommand::supportedOptions</text>
</a>
</g>
</g>
<!-- Node1&#45;&gt;Node13 -->
<g id="edge12" class="edge">
<title>Node1&#45;&gt;Node13</title>
<path fill="none" stroke="midnightblue" d="M451.84,-207.59C423.76,-213.5 393.32,-219.91 369.18,-224.99"/>
<polygon fill="midnightblue" stroke="midnightblue" points="452.59,-211 461.66,-205.52 451.15,-204.15 452.59,-211"/>
</g>
<!-- Node14 -->
<g id="node14" class="node">
<title>Node14</title>
<g id="a_node14"><a xlink:href="classLoggerCommand.html#a613d8f216b23715be98ebc2a1d1c1319" target="_top" xlink:title="Returns a list of CLI option names supported by this command.">
<polygon fill="none" stroke="black" points="245.5,-175.5 245.5,-205.5 400.5,-205.5 400.5,-175.5 245.5,-175.5"/>
<text text-anchor="start" x="253.5" y="-193.5" font-family="Helvetica,sans-Serif" font-size="10.00">LoggerCommand::supported</text>
<text text-anchor="middle" x="323" y="-182.5" font-family="Helvetica,sans-Serif" font-size="10.00">Options</text>
</a>
</g>
</g>
<!-- Node1&#45;&gt;Node14 -->
<g id="edge13" class="edge">
<title>Node1&#45;&gt;Node14</title>
<path fill="none" stroke="midnightblue" d="M442.65,-190.5C428.62,-190.5 414.24,-190.5 400.55,-190.5"/>
<polygon fill="midnightblue" stroke="midnightblue" points="442.79,-194 452.79,-190.5 442.79,-187 442.79,-194"/>
</g>
<!-- Node15 -->
<g id="node15" class="node">
<title>Node15</title>
<g id="a_node15"><a xlink:href="classMeterCommand.html#a14ea22f356d952b504349c2002938555" target="_top" xlink:title="Returns a list of CLI option names supported by this command.">
<polygon fill="none" stroke="black" points="229,-137 229,-156 417,-156 417,-137 229,-137"/>
<text text-anchor="middle" x="323" y="-144" font-family="Helvetica,sans-Serif" font-size="10.00">MeterCommand::supportedOptions</text>
</a>
</g>
</g>
<!-- Node1&#45;&gt;Node15 -->
<g id="edge14" class="edge">
<title>Node1&#45;&gt;Node15</title>
<path fill="none" stroke="midnightblue" d="M453.89,-173.33C441.55,-170.69 428.93,-168 417,-165.5 402.16,-162.39 385.98,-159.06 371.33,-156.07"/>
<polygon fill="midnightblue" stroke="midnightblue" points="453.2,-176.76 463.71,-175.44 454.67,-169.92 453.2,-176.76"/>
</g>
<!-- Node16 -->
<g id="node16" class="node">
<title>Node16</title>
<g id="a_node16"><a xlink:href="classScanCommand.html#af9af0702a9869ec1c762aecce7600271" target="_top" xlink:title="Returns a list of CLI option names supported by this command.">
<polygon fill="none" stroke="black" points="232,-99 232,-118 414,-118 414,-99 232,-99"/>
<text text-anchor="middle" x="323" y="-106" font-family="Helvetica,sans-Serif" font-size="10.00">ScanCommand::supportedOptions</text>
</a>
</g>
</g>
<!-- Node1&#45;&gt;Node16 -->
<g id="edge15" class="edge">
<title>Node1&#45;&gt;Node16</title>
<path fill="none" stroke="midnightblue" d="M501.45,-170.03C478.78,-156.17 447.03,-138.45 417,-127.5 406.63,-123.72 395.31,-120.62 384.26,-118.09"/>
<polygon fill="midnightblue" stroke="midnightblue" points="499.63,-173.02 509.97,-175.32 503.32,-167.08 499.63,-173.02"/>
</g>
<!-- Node17 -->
<g id="node17" class="node">
<title>Node17</title>
<g id="a_node17"><a xlink:href="classSetNameCommand.html#a296bb2bf52fdd511a90ac412fc27dc52" target="_top" xlink:title="Returns a list of CLI option names supported by this command.">
<polygon fill="none" stroke="black" points="239.5,-49.5 239.5,-79.5 406.5,-79.5 406.5,-49.5 239.5,-49.5"/>
<text text-anchor="start" x="247.5" y="-67.5" font-family="Helvetica,sans-Serif" font-size="10.00">SetNameCommand::supported</text>
<text text-anchor="middle" x="323" y="-56.5" font-family="Helvetica,sans-Serif" font-size="10.00">Options</text>
</a>
</g>
</g>
<!-- Node1&#45;&gt;Node17 -->
<g id="edge16" class="edge">
<title>Node1&#45;&gt;Node17</title>
<path fill="none" stroke="midnightblue" d="M512.97,-167.84C491.45,-144.84 455.16,-109.83 417,-89.5 409.77,-85.65 401.9,-82.35 393.9,-79.55"/>
<polygon fill="midnightblue" stroke="midnightblue" points="510.6,-170.43 519.95,-175.42 515.76,-165.69 510.6,-170.43"/>
</g>
<!-- Node18 -->
<g id="node18" class="node">
<title>Node18</title>
<g id="a_node18"><a xlink:href="classStatusCommand.html#a6e6f923a2753025b8f11412048cd0866" target="_top" xlink:title="Returns a list of CLI option names supported by this command.">
<polygon fill="none" stroke="black" points="247,-0.5 247,-30.5 399,-30.5 399,-0.5 247,-0.5"/>
<text text-anchor="start" x="255" y="-18.5" font-family="Helvetica,sans-Serif" font-size="10.00">StatusCommand::supported</text>
<text text-anchor="middle" x="323" y="-7.5" font-family="Helvetica,sans-Serif" font-size="10.00">Options</text>
</a>
</g>
</g>
<!-- Node1&#45;&gt;Node18 -->
<g id="edge17" class="edge">
<title>Node1&#45;&gt;Node18</title>
<path fill="none" stroke="midnightblue" d="M521.04,-166.25C503.15,-132.54 466.19,-72.02 417,-39.5 411.44,-35.82 405.34,-32.71 399.01,-30.07"/>
<polygon fill="midnightblue" stroke="midnightblue" points="518.07,-168.12 525.78,-175.39 524.29,-164.9 518.07,-168.12"/>
</g>
<!-- Node3 -->
<g id="node3" class="node">
<title>Node3</title>
<g id="a_node3"><a xlink:href="classCalibrationCommand.html#aed246998ed2e3e10a7adc021d9f24a8c" target="_top" xlink:title="Processes the relevant options from the command line parser.">
<polygon fill="none" stroke="black" points="36.5,-511.5 36.5,-541.5 156.5,-541.5 156.5,-511.5 36.5,-511.5"/>
<text text-anchor="start" x="44.5" y="-529.5" font-family="Helvetica,sans-Serif" font-size="10.00">CalibrationCommand</text>
<text text-anchor="middle" x="96.5" y="-518.5" font-family="Helvetica,sans-Serif" font-size="10.00">::processOptions</text>
</a>
</g>
</g>
<!-- Node2&#45;&gt;Node3 -->
<g id="edge2" class="edge">
<title>Node2&#45;&gt;Node3</title>
<path fill="none" stroke="midnightblue" d="M304.7,-399.71C282.17,-428.27 240.05,-476.19 193,-502.5 181.88,-508.72 169.15,-513.35 156.68,-516.79"/>
<polygon fill="midnightblue" stroke="midnightblue" points="307.69,-401.57 311.05,-391.52 302.16,-397.28 307.69,-401.57"/>
</g>
<!-- Node4 -->
<g id="node4" class="node">
<title>Node4</title>
<g id="a_node4"><a xlink:href="classFlashLedCommand.html#ab2062e5ec29315ca83589a7302f7ae6f" target="_top" xlink:title="Processes the relevant options from the command line parser.">
<polygon fill="none" stroke="black" points="19.5,-462.5 19.5,-492.5 173.5,-492.5 173.5,-462.5 19.5,-462.5"/>
<text text-anchor="start" x="27.5" y="-480.5" font-family="Helvetica,sans-Serif" font-size="10.00">FlashLedCommand::process</text>
<text text-anchor="middle" x="96.5" y="-469.5" font-family="Helvetica,sans-Serif" font-size="10.00">Options</text>
</a>
</g>
</g>
<!-- Node2&#45;&gt;Node4 -->
<g id="edge3" class="edge">
<title>Node2&#45;&gt;Node4</title>
<path fill="none" stroke="midnightblue" d="M292.17,-397.3C266.79,-414.2 228.85,-437.59 193,-452.5 183.98,-456.25 174.24,-459.57 164.55,-462.47"/>
<polygon fill="midnightblue" stroke="midnightblue" points="294.26,-400.12 300.6,-391.62 290.35,-394.31 294.26,-400.12"/>
</g>
<!-- Node5 -->
<g id="node5" class="node">
<title>Node5</title>
<g id="a_node5"><a xlink:href="classInfoCommand.html#a7d815cb4b0133025e4354649e2cd7a6a" target="_top" xlink:title="Processes the relevant options from the command line parser.">
<polygon fill="none" stroke="black" points="13,-424 13,-443 180,-443 180,-424 13,-424"/>
<text text-anchor="middle" x="96.5" y="-431" font-family="Helvetica,sans-Serif" font-size="10.00">InfoCommand::processOptions</text>
</a>
</g>
</g>
<!-- Node2&#45;&gt;Node5 -->
<g id="edge4" class="edge">
<title>Node2&#45;&gt;Node5</title>
<path fill="none" stroke="midnightblue" d="M265.13,-394.45C242.77,-401.2 216.8,-408.64 193,-414.5 179.05,-417.94 163.83,-421.18 149.73,-423.99"/>
<polygon fill="midnightblue" stroke="midnightblue" points="266.25,-397.77 274.8,-391.51 264.21,-391.07 266.25,-397.77"/>
</g>
<!-- Node6 -->
<g id="node6" class="node">
<title>Node6</title>
<g id="a_node6"><a xlink:href="classLoggerCommand.html#aee1e274d05dfa103bc3d0054070650fb" target="_top" xlink:title="Processes the relevant options from the command line parser.">
<polygon fill="none" stroke="black" points="6,-386 6,-405 187,-405 187,-386 6,-386"/>
<text text-anchor="middle" x="96.5" y="-393" font-family="Helvetica,sans-Serif" font-size="10.00">LoggerCommand::processOptions</text>
</a>
</g>
</g>
<!-- Node2&#45;&gt;Node6 -->
<g id="edge5" class="edge">
<title>Node2&#45;&gt;Node6</title>
<path fill="none" stroke="midnightblue" d="M237.18,-383.68C220.82,-385.06 203.63,-386.52 187.13,-387.91"/>
<polygon fill="midnightblue" stroke="midnightblue" points="237.58,-387.16 247.24,-382.83 236.99,-380.18 237.58,-387.16"/>
</g>
<!-- Node7 -->
<g id="node7" class="node">
<title>Node7</title>
<g id="a_node7"><a xlink:href="classMeterCommand.html#a7252ac9a772bc45e374da30bbc23ed85" target="_top" xlink:title="Processes the relevant options from the command line parser.">
<polygon fill="none" stroke="black" points="8.5,-348 8.5,-367 184.5,-367 184.5,-348 8.5,-348"/>
<text text-anchor="middle" x="96.5" y="-355" font-family="Helvetica,sans-Serif" font-size="10.00">MeterCommand::processOptions</text>
</a>
</g>
</g>
<!-- Node2&#45;&gt;Node7 -->
<g id="edge6" class="edge">
<title>Node2&#45;&gt;Node7</title>
<path fill="none" stroke="midnightblue" d="M237.26,-369.33C220.09,-367.88 202.01,-366.34 184.76,-364.88"/>
<polygon fill="midnightblue" stroke="midnightblue" points="236.99,-372.82 247.24,-370.17 237.58,-365.84 236.99,-372.82"/>
</g>
<!-- Node8 -->
<g id="node8" class="node">
<title>Node8</title>
<g id="a_node8"><a xlink:href="classScanCommand.html#a9998ef360fde53be932dc3059e86578e" target="_top" xlink:title="Processes the relevant options from the command line parser.">
<polygon fill="none" stroke="black" points="11,-310 11,-329 182,-329 182,-310 11,-310"/>
<text text-anchor="middle" x="96.5" y="-317" font-family="Helvetica,sans-Serif" font-size="10.00">ScanCommand::processOptions</text>
</a>
</g>
</g>
<!-- Node2&#45;&gt;Node8 -->
<g id="edge7" class="edge">
<title>Node2&#45;&gt;Node8</title>
<path fill="none" stroke="midnightblue" d="M249.15,-358.58C242.31,-356.64 235.5,-354.6 229,-352.5 212.66,-347.23 209.48,-343.3 193,-338.5 180.5,-334.86 166.88,-331.69 153.95,-329.03"/>
<polygon fill="midnightblue" stroke="midnightblue" points="248.6,-362.06 259.18,-361.37 250.48,-355.32 248.6,-362.06"/>
</g>
<!-- Node9 -->
<g id="node9" class="node">
<title>Node9</title>
<g id="a_node9"><a xlink:href="classSetNameCommand.html#aac72587ddb035857cd224d843fc3d00c" target="_top" xlink:title="Processes the relevant options from the command line parser.">
<polygon fill="none" stroke="black" points="0,-272 0,-291 193,-291 193,-272 0,-272"/>
<text text-anchor="middle" x="96.5" y="-279" font-family="Helvetica,sans-Serif" font-size="10.00">SetNameCommand::processOptions</text>
</a>
</g>
</g>
<!-- Node2&#45;&gt;Node9 -->
<g id="edge8" class="edge">
<title>Node2&#45;&gt;Node9</title>
<path fill="none" stroke="midnightblue" d="M238.1,-358.06C234.94,-356.36 231.89,-354.52 229,-352.5 205.94,-336.42 216.5,-315.92 193,-300.5 187.21,-296.7 180.82,-293.62 174.17,-291.15"/>
<polygon fill="midnightblue" stroke="midnightblue" points="236.73,-361.28 247.26,-362.42 239.74,-354.96 236.73,-361.28"/>
</g>
<!-- Node10 -->
<g id="node10" class="node">
<title>Node10</title>
<g id="a_node10"><a xlink:href="classStatusCommand.html#a951404b4913fd4b341899d654a2abe72" target="_top" xlink:title="Processes the relevant options from the command line parser.">
<polygon fill="none" stroke="black" points="7,-234 7,-253 186,-253 186,-234 7,-234"/>
<text text-anchor="middle" x="96.5" y="-241" font-family="Helvetica,sans-Serif" font-size="10.00">StatusCommand::processOptions</text>
</a>
</g>
</g>
<!-- Node2&#45;&gt;Node10 -->
<g id="edge9" class="edge">
<title>Node2&#45;&gt;Node10</title>
<path fill="none" stroke="midnightblue" d="M238.21,-359.3C234.95,-357.27 231.86,-355.02 229,-352.5 196.65,-324.05 226.13,-290.03 193,-262.5 188.45,-258.72 183.36,-255.62 177.96,-253.08"/>
<polygon fill="midnightblue" stroke="midnightblue" points="236.71,-362.47 247.17,-364.14 240.03,-356.31 236.71,-362.47"/>
</g>
</g>
</svg>
