<?xml version="1.0" encoding="UTF-8" standalone="no"?>
<!DOCTYPE svg PUBLIC "-//W3C//DTD SVG 1.1//EN"
 "http://www.w3.org/Graphics/SVG/1.1/DTD/svg11.dtd">
<!-- Generated by graphviz version 2.43.0 (0)
 -->
<!-- Title: DsoServicePrivate::parseSamples Pages: 1 -->
<svg width="456pt" height="300pt"
 viewBox="0.00 0.00 456.00 300.00" xmlns="http://www.w3.org/2000/svg" xmlns:xlink="http://www.w3.org/1999/xlink">
<g id="graph0" class="graph" transform="scale(1 1) rotate(0) translate(4 296)">
<title>DsoServicePrivate::parseSamples</title>
<!-- Node1 -->
<g id="Node000001" class="node">
<title>Node1</title>
<g id="a_Node000001"><a xlink:title="Parses the Reading value into a DsoService::Samples vector.">
<polygon fill="#999999" stroke="#666666" points="112,-156.5 0,-156.5 0,-126.5 112,-126.5 112,-156.5"/>
<text text-anchor="start" x="8" y="-144.5" font-family="Helvetica,sans-Serif" font-size="10.00">DsoServicePrivate::</text>
<text text-anchor="middle" x="56" y="-133.5" font-family="Helvetica,sans-Serif" font-size="10.00">parseSamples</text>
</a>
</g>
</g>
<!-- Node2 -->
<g id="Node000002" class="node">
<title>Node2</title>
<g id="a_Node000002"><a target="_parent" xlink:href="https://doc.qt.io/qt-5/qvector.html#append" xlink:title=" ">
<polygon fill="white" stroke="#666666" points="272.5,-292 175.5,-292 175.5,-273 272.5,-273 272.5,-292"/>
<text text-anchor="middle" x="224" y="-280" font-family="Helvetica,sans-Serif" font-size="10.00">QVector::append</text>
</a>
</g>
</g>
<!-- Node1&#45;&gt;Node2 -->
<g id="edge1_Node000001_Node000002" class="edge">
<title>Node1&#45;&gt;Node2</title>
<g id="a_edge1_Node000001_Node000002"><a xlink:title=" ">
<path fill="none" stroke="#63b8ff" d="M64.89,-156.81C78.5,-181.75 108.76,-231.09 148,-258.5 154.72,-263.2 162.42,-267.01 170.25,-270.1"/>
<polygon fill="#63b8ff" stroke="#63b8ff" points="178.11,-272.95 169.36,-273.6 174.35,-271.58 170.59,-270.22 170.59,-270.22 170.59,-270.22 174.35,-271.58 171.82,-266.83 178.11,-272.95 178.11,-272.95"/>
</a>
</g>
</g>
<!-- Node3 -->
<g id="Node000003" class="node">
<title>Node3</title>
<g id="a_Node000003"><a target="_parent" xlink:href="https://doc.qt.io/qt-5/qstring.html#arg-1" xlink:title=" ">
<polygon fill="white" stroke="#666666" points="429,-253 355,-253 355,-234 429,-234 429,-253"/>
<text text-anchor="middle" x="392" y="-241" font-family="Helvetica,sans-Serif" font-size="10.00">QString::arg</text>
</a>
</g>
</g>
<!-- Node1&#45;&gt;Node3 -->
<g id="edge2_Node000001_Node000003" class="edge">
<title>Node1&#45;&gt;Node3</title>
<g id="a_edge2_Node000001_Node000003"><a xlink:title=" ">
<path fill="none" stroke="#63b8ff" d="M71.5,-156.67C88.25,-173.15 117.44,-198.82 148,-211.5 213.52,-238.69 296.77,-244.04 346.86,-244.46"/>
<polygon fill="#63b8ff" stroke="#63b8ff" points="354.91,-244.49 346.89,-248.06 350.91,-244.47 346.91,-244.46 346.91,-244.46 346.91,-244.46 350.91,-244.47 346.92,-240.86 354.91,-244.49 354.91,-244.49"/>
</a>
</g>
</g>
<!-- Node4 -->
<g id="Node000004" class="node">
<title>Node4</title>
<g id="a_Node000004"><a target="_parent" xlink:href="https://doc.qt.io/qt-5/qbytearray.html#constData" xlink:title=" ">
<polygon fill="white" stroke="#666666" points="288,-130 160,-130 160,-111 288,-111 288,-130"/>
<text text-anchor="middle" x="224" y="-118" font-family="Helvetica,sans-Serif" font-size="10.00">QByteArray::constData</text>
</a>
</g>
</g>
<!-- Node1&#45;&gt;Node4 -->
<g id="edge3_Node000001_Node000004" class="edge">
<title>Node1&#45;&gt;Node4</title>
<g id="a_edge3_Node000001_Node000004"><a xlink:title=" ">
<path fill="none" stroke="#63b8ff" d="M112.28,-134.51C124.93,-132.91 138.55,-131.18 151.77,-129.51"/>
<polygon fill="#63b8ff" stroke="#63b8ff" points="159.94,-128.48 152.45,-133.05 155.97,-128.98 152,-129.48 152,-129.48 152,-129.48 155.97,-128.98 151.55,-125.91 159.94,-128.48 159.94,-128.48"/>
</a>
</g>
</g>
<!-- Node5 -->
<g id="Node000005" class="node">
<title>Node5</title>
<g id="a_Node000005"><a target="_parent" xlink:href="https://doc.qt.io/qt-5/qbytearray.html#mid" xlink:title=" ">
<polygon fill="white" stroke="#666666" points="272.5,-93 175.5,-93 175.5,-74 272.5,-74 272.5,-93"/>
<text text-anchor="middle" x="224" y="-81" font-family="Helvetica,sans-Serif" font-size="10.00">QByteArray::mid</text>
</a>
</g>
</g>
<!-- Node1&#45;&gt;Node5 -->
<g id="edge4_Node000001_Node000005" class="edge">
<title>Node1&#45;&gt;Node5</title>
<g id="a_edge4_Node000001_Node000005"><a xlink:title=" ">
<path fill="none" stroke="#63b8ff" d="M87.62,-126.4C105.03,-118.24 127.39,-108.44 148,-101.5 154.9,-99.18 162.24,-97.03 169.54,-95.09"/>
<polygon fill="#63b8ff" stroke="#63b8ff" points="177.42,-93.06 170.57,-98.54 173.54,-94.06 169.67,-95.06 169.67,-95.06 169.67,-95.06 173.54,-94.06 168.77,-91.57 177.42,-93.06 177.42,-93.06"/>
</a>
</g>
</g>
<!-- Node6 -->
<g id="Node000006" class="node">
<title>Node6</title>
<g id="a_Node000006"><a target="_parent" xlink:href="https://doc.qt.io/qt-5/qbytearray.html#size" xlink:title=" ">
<polygon fill="white" stroke="#666666" points="441,-216 343,-216 343,-197 441,-197 441,-216"/>
<text text-anchor="middle" x="392" y="-204" font-family="Helvetica,sans-Serif" font-size="10.00">QByteArray::size</text>
</a>
</g>
</g>
<!-- Node1&#45;&gt;Node6 -->
<g id="edge5_Node000001_Node000006" class="edge">
<title>Node1&#45;&gt;Node6</title>
<g id="a_edge5_Node000001_Node000006"><a xlink:title=" ">
<path fill="none" stroke="#63b8ff" d="M80.66,-156.71C98.44,-167.31 123.79,-180.72 148,-187.5 210.15,-204.9 284.49,-208.31 334.44,-208.23"/>
<polygon fill="#63b8ff" stroke="#63b8ff" points="342.55,-208.18 334.57,-211.83 338.55,-208.2 334.55,-208.23 334.55,-208.23 334.55,-208.23 338.55,-208.2 334.53,-204.63 342.55,-208.18 342.55,-208.18"/>
</a>
</g>
</g>
<!-- Node7 -->
<g id="Node000007" class="node">
<title>Node7</title>
<g id="a_Node000007"><a target="_parent" xlink:href="https://doc.qt.io/qt-5/qvector.html#size" xlink:title=" ">
<polygon fill="white" stroke="#666666" points="264,-56 184,-56 184,-37 264,-37 264,-56"/>
<text text-anchor="middle" x="224" y="-44" font-family="Helvetica,sans-Serif" font-size="10.00">QVector::size</text>
</a>
</g>
</g>
<!-- Node1&#45;&gt;Node7 -->
<g id="edge6_Node000001_Node000007" class="edge">
<title>Node1&#45;&gt;Node7</title>
<g id="a_edge6_Node000001_Node000007"><a xlink:title=" ">
<path fill="none" stroke="#63b8ff" d="M70.58,-126.34C87.14,-108.8 116.8,-80.31 148,-64.5 156.59,-60.15 166.26,-56.82 175.74,-54.29"/>
<polygon fill="#63b8ff" stroke="#63b8ff" points="183.63,-52.34 176.72,-57.76 179.74,-53.3 175.86,-54.26 175.86,-54.26 175.86,-54.26 179.74,-53.3 175,-50.77 183.63,-52.34 183.63,-52.34"/>
</a>
</g>
</g>
<!-- Node8 -->
<g id="Node000008" class="node">
<title>Node8</title>
<g id="a_Node000008"><a xlink:href="classAbstractPokitServicePrivate.html#af748600fc201fe47f29b58e8e93179d8" target="_top" xlink:title="Returns up to maxSize bytes of data as a human readable hexadecimal string.">
<polygon fill="white" stroke="#666666" points="300,-178.5 148,-178.5 148,-148.5 300,-148.5 300,-178.5"/>
<text text-anchor="start" x="156" y="-166.5" font-family="Helvetica,sans-Serif" font-size="10.00">AbstractPokitServicePrivate</text>
<text text-anchor="middle" x="224" y="-155.5" font-family="Helvetica,sans-Serif" font-size="10.00">::toHexString</text>
</a>
</g>
</g>
<!-- Node1&#45;&gt;Node8 -->
<g id="edge7_Node000001_Node000008" class="edge">
<title>Node1&#45;&gt;Node8</title>
<g id="a_edge7_Node000001_Node000008"><a xlink:title=" ">
<path fill="none" stroke="#63b8ff" d="M112.28,-148.83C121.1,-150 130.4,-151.23 139.71,-152.46"/>
<polygon fill="#63b8ff" stroke="#63b8ff" points="147.87,-153.54 139.47,-156.06 143.91,-153.02 139.94,-152.49 139.94,-152.49 139.94,-152.49 143.91,-153.02 140.41,-148.92 147.87,-153.54 147.87,-153.54"/>
</a>
</g>
</g>
<!-- Node13 -->
<g id="Node000013" class="node">
<title>Node13</title>
<g id="a_Node000013"><a target="_parent" xlink:href="https://doc.qt.io/qt-5/qobject.html#tr" xlink:title=" ">
<polygon fill="white" stroke="#666666" points="258.5,-19 189.5,-19 189.5,0 258.5,0 258.5,-19"/>
<text text-anchor="middle" x="224" y="-7" font-family="Helvetica,sans-Serif" font-size="10.00">QObject::tr</text>
</a>
</g>
</g>
<!-- Node1&#45;&gt;Node13 -->
<g id="edge14_Node000001_Node000013" class="edge">
<title>Node1&#45;&gt;Node13</title>
<g id="a_edge14_Node000001_Node000013"><a xlink:title=" ">
<path fill="none" stroke="#63b8ff" d="M64.78,-126.26C78.22,-101.5 108.25,-52.77 148,-27.5 158.01,-21.14 170.07,-17.02 181.56,-14.36"/>
<polygon fill="#63b8ff" stroke="#63b8ff" points="189.4,-12.74 182.29,-17.89 185.48,-13.55 181.56,-14.36 181.56,-14.36 181.56,-14.36 185.48,-13.55 180.83,-10.84 189.4,-12.74 189.4,-12.74"/>
</a>
</g>
</g>
<!-- Node8&#45;&gt;Node3 -->
<g id="edge8_Node000008_Node000003" class="edge">
<title>Node8&#45;&gt;Node3</title>
<g id="a_edge8_Node000008_Node000003"><a xlink:title=" ">
<path fill="none" stroke="#63b8ff" d="M248.99,-178.69C271.02,-192.2 304.86,-211.86 336,-225.5 340.65,-227.54 345.61,-229.47 350.57,-231.26"/>
<polygon fill="#63b8ff" stroke="#63b8ff" points="358.33,-233.96 349.59,-234.73 354.55,-232.65 350.77,-231.33 350.77,-231.33 350.77,-231.33 354.55,-232.65 351.95,-227.93 358.33,-233.96 358.33,-233.96"/>
</a>
</g>
</g>
<!-- Node8&#45;&gt;Node6 -->
<g id="edge12_Node000008_Node000006" class="edge">
<title>Node8&#45;&gt;Node6</title>
<g id="a_edge12_Node000008_Node000006"><a xlink:title=" ">
<path fill="none" stroke="#63b8ff" d="M283.06,-178.54C303.77,-183.9 326.76,-189.86 346.18,-194.89"/>
<polygon fill="#63b8ff" stroke="#63b8ff" points="353.99,-196.91 345.34,-198.39 350.12,-195.91 346.25,-194.91 346.25,-194.91 346.25,-194.91 350.12,-195.91 347.15,-191.42 353.99,-196.91 353.99,-196.91"/>
</a>
</g>
</g>
<!-- Node9 -->
<g id="Node000009" class="node">
<title>Node9</title>
<g id="a_Node000009"><a target="_parent" xlink:href="https://doc.qt.io/qt-5/qstring.html#fromLatin1" xlink:title=" ">
<polygon fill="white" stroke="#666666" points="448,-105 336,-105 336,-86 448,-86 448,-105"/>
<text text-anchor="middle" x="392" y="-93" font-family="Helvetica,sans-Serif" font-size="10.00">QString::fromLatin1</text>
</a>
</g>
</g>
<!-- Node8&#45;&gt;Node9 -->
<g id="edge9_Node000008_Node000009" class="edge">
<title>Node8&#45;&gt;Node9</title>
<g id="a_edge9_Node000008_Node000009"><a xlink:title=" ">
<path fill="none" stroke="#63b8ff" d="M279.09,-148.47C286.26,-145.82 293.41,-142.83 300,-139.5 317.62,-130.6 318.41,-122.45 336,-113.5 339.97,-111.48 344.22,-109.62 348.53,-107.92"/>
<polygon fill="#63b8ff" stroke="#63b8ff" points="356.3,-105.04 350.05,-111.19 352.55,-106.43 348.8,-107.82 348.8,-107.82 348.8,-107.82 352.55,-106.43 347.55,-104.44 356.3,-105.04 356.3,-105.04"/>
</a>
</g>
</g>
<!-- Node10 -->
<g id="Node000010" class="node">
<title>Node10</title>
<g id="a_Node000010"><a target="_parent" xlink:href="https://doc.qt.io/qt-5/qbytearray.html#left" xlink:title=" ">
<polygon fill="white" stroke="#666666" points="439,-68 345,-68 345,-49 439,-49 439,-68"/>
<text text-anchor="middle" x="392" y="-56" font-family="Helvetica,sans-Serif" font-size="10.00">QByteArray::left</text>
</a>
</g>
</g>
<!-- Node8&#45;&gt;Node10 -->
<g id="edge10_Node000008_Node000010" class="edge">
<title>Node8&#45;&gt;Node10</title>
<g id="a_edge10_Node000008_Node000010"><a xlink:title=" ">
<path fill="none" stroke="#63b8ff" d="M286,-148.42C291,-145.89 295.75,-142.94 300,-139.5 325.06,-119.21 311,-96.88 336,-76.5 338.1,-74.79 340.37,-73.23 342.75,-71.83"/>
<polygon fill="#63b8ff" stroke="#63b8ff" points="350.16,-68.03 344.68,-74.88 346.6,-69.86 343.04,-71.68 343.04,-71.68 343.04,-71.68 346.6,-69.86 341.4,-68.47 350.16,-68.03 350.16,-68.03"/>
</a>
</g>
</g>
<!-- Node11 -->
<g id="Node000011" class="node">
<title>Node11</title>
<g id="a_Node000011"><a target="_parent" xlink:href="https://doc.qt.io/qt-5/qbytearray.html#right" xlink:title=" ">
<polygon fill="white" stroke="#666666" points="442.5,-179 341.5,-179 341.5,-160 442.5,-160 442.5,-179"/>
<text text-anchor="middle" x="392" y="-167" font-family="Helvetica,sans-Serif" font-size="10.00">QByteArray::right</text>
</a>
</g>
</g>
<!-- Node8&#45;&gt;Node11 -->
<g id="edge11_Node000008_Node000011" class="edge">
<title>Node8&#45;&gt;Node11</title>
<g id="a_edge11_Node000008_Node000011"><a xlink:title=" ">
<path fill="none" stroke="#63b8ff" d="M300.23,-166.22C311.3,-166.62 322.56,-167.03 333.21,-167.41"/>
<polygon fill="#63b8ff" stroke="#63b8ff" points="341.22,-167.7 333.1,-171.01 337.23,-167.56 333.23,-167.41 333.23,-167.41 333.23,-167.41 337.23,-167.56 333.36,-163.81 341.22,-167.7 341.22,-167.7"/>
</a>
</g>
</g>
<!-- Node12 -->
<g id="Node000012" class="node">
<title>Node12</title>
<g id="a_Node000012"><a target="_parent" xlink:href="https://doc.qt.io/qt-5/qbytearray.html#toHex" xlink:title=" ">
<polygon fill="white" stroke="#666666" points="445.5,-142 338.5,-142 338.5,-123 445.5,-123 445.5,-142"/>
<text text-anchor="middle" x="392" y="-130" font-family="Helvetica,sans-Serif" font-size="10.00">QByteArray::toHex</text>
</a>
</g>
</g>
<!-- Node8&#45;&gt;Node12 -->
<g id="edge13_Node000008_Node000012" class="edge">
<title>Node8&#45;&gt;Node12</title>
<g id="a_edge13_Node000008_Node000012"><a xlink:title=" ">
<path fill="none" stroke="#63b8ff" d="M300.23,-149.45C310.79,-147.48 321.52,-145.48 331.72,-143.57"/>
<polygon fill="#63b8ff" stroke="#63b8ff" points="339.78,-142.06 332.58,-147.07 335.85,-142.8 331.92,-143.53 331.92,-143.53 331.92,-143.53 335.85,-142.8 331.26,-139.99 339.78,-142.06 339.78,-142.06"/>
</a>
</g>
</g>
</g>
</svg>
