<?xml version="1.0" encoding="UTF-8" standalone="no"?>
<!DOCTYPE svg PUBLIC "-//W3C//DTD SVG 1.1//EN"
 "http://www.w3.org/Graphics/SVG/1.1/DTD/svg11.dtd">
<!-- Generated by graphviz version 2.43.0 (0)
 -->
<!-- Title: AbstractCommand::escapeCsvField Pages: 1 -->
<svg width="322pt" height="101pt"
 viewBox="0.00 0.00 322.00 101.00" xmlns="http://www.w3.org/2000/svg" xmlns:xlink="http://www.w3.org/1999/xlink">
<g id="graph0" class="graph" transform="scale(1 1) rotate(0) translate(4 97)">
<title>AbstractCommand::escapeCsvField</title>
<!-- Node1 -->
<g id="node1" class="node">
<title>Node1</title>
<g id="a_node1"><a xlink:title="Returns an RFC 4180 compliant version of field.">
<polygon fill="#999999" stroke="#666666" points="166,-61.5 0,-61.5 0,-31.5 166,-31.5 166,-61.5"/>
<text text-anchor="start" x="8" y="-49.5" font-family="Helvetica,sans-Serif" font-size="10.00">AbstractCommand::escapeCsv</text>
<text text-anchor="middle" x="83" y="-38.5" font-family="Helvetica,sans-Serif" font-size="10.00">Field</text>
</a>
</g>
</g>
<!-- Node2 -->
<g id="node2" class="node">
<title>Node2</title>
<g id="a_node2"><a target="_parent" xlink:href="https://doc.qt.io/qt-5/qstring.html#arg-11" xlink:title=" ">
<polygon fill="white" stroke="#666666" points="295,-93 221,-93 221,-74 295,-74 295,-93"/>
<text text-anchor="middle" x="258" y="-81" font-family="Helvetica,sans-Serif" font-size="10.00">QString::arg</text>
</a>
</g>
</g>
<!-- Node1&#45;&gt;Node2 -->
<g id="edge1" class="edge">
<title>Node1&#45;&gt;Node2</title>
<path fill="none" stroke="#63b8ff" d="M154.37,-61.55C173.45,-65.63 193.61,-69.94 210.97,-73.66"/>
<polygon fill="#63b8ff" stroke="#63b8ff" points="210.33,-77.1 220.84,-75.77 211.79,-70.25 210.33,-77.1"/>
</g>
<!-- Node3 -->
<g id="node3" class="node">
<title>Node3</title>
<g id="a_node3"><a target="_parent" xlink:href="https://doc.qt.io/qt-5/qstring.html#contains-1" xlink:title=" ">
<polygon fill="white" stroke="#666666" points="308,-56 208,-56 208,-37 308,-37 308,-56"/>
<text text-anchor="middle" x="258" y="-44" font-family="Helvetica,sans-Serif" font-size="10.00">QString::contains</text>
</a>
</g>
</g>
<!-- Node1&#45;&gt;Node3 -->
<g id="edge2" class="edge">
<title>Node1&#45;&gt;Node3</title>
<path fill="none" stroke="#63b8ff" d="M166.19,-46.5C176.92,-46.5 187.73,-46.5 197.97,-46.5"/>
<polygon fill="#63b8ff" stroke="#63b8ff" points="197.99,-50 207.99,-46.5 197.99,-43 197.99,-50"/>
</g>
<!-- Node4 -->
<g id="node4" class="node">
<title>Node4</title>
<g id="a_node4"><a target="_parent" xlink:href="https://doc.qt.io/qt-5/qstring.html#fromLatin1" xlink:title=" ">
<polygon fill="white" stroke="#666666" points="314,-19 202,-19 202,0 314,0 314,-19"/>
<text text-anchor="middle" x="258" y="-7" font-family="Helvetica,sans-Serif" font-size="10.00">QString::fromLatin1</text>
</a>
</g>
</g>
<!-- Node1&#45;&gt;Node4 -->
<g id="edge3" class="edge">
<title>Node1&#45;&gt;Node4</title>
<path fill="none" stroke="#63b8ff" d="M154.37,-31.45C170.48,-28 187.37,-24.39 202.69,-21.12"/>
<polygon fill="#63b8ff" stroke="#63b8ff" points="203.46,-24.53 212.5,-19.02 201.99,-17.69 203.46,-24.53"/>
</g>
</g>
</svg>
