<?xml version="1.0" encoding="UTF-8" standalone="no"?>
<!DOCTYPE svg PUBLIC "-//W3C//DTD SVG 1.1//EN"
 "http://www.w3.org/Graphics/SVG/1.1/DTD/svg11.dtd">
<!-- Generated by graphviz version 2.43.0 (0)
 -->
<!-- Title: StatusServicePrivate::parseDeviceCharacteristics Pages: 1 -->
<svg width="688pt" height="218pt"
 viewBox="0.00 0.00 688.00 218.00" xmlns="http://www.w3.org/2000/svg" xmlns:xlink="http://www.w3.org/1999/xlink">
<g id="graph0" class="graph" transform="scale(1 1) rotate(0) translate(4 214)">
<title>StatusServicePrivate::parseDeviceCharacteristics</title>
<!-- Node1 -->
<g id="node1" class="node">
<title>Node1</title>
<g id="a_node1"><a xlink:title="Parses the Device Characteristics value into a DeviceCharacteristics struct.">
<polygon fill="#bfbfbf" stroke="black" points="0,-68 0,-98 156,-98 156,-68 0,-68"/>
<text text-anchor="start" x="8" y="-86" font-family="Helvetica,sans-Serif" font-size="10.00">StatusServicePrivate</text>
<text text-anchor="middle" x="78" y="-75" font-family="Helvetica,sans-Serif" font-size="10.00">::parseDeviceCharacteristics</text>
</a>
</g>
</g>
<!-- Node2 -->
<g id="node2" class="node">
<title>Node2</title>
<g id="a_node2"><a xlink:href="classAbstractPokitServicePrivate.html#af8b480a950244540bfff7fc4b476a0ef" target="_top" xlink:title="Returns false if data is smaller than minSize, otherwise returns failOnMax if data is bigger than max...">
<polygon fill="none" stroke="black" points="192,-90 192,-120 344,-120 344,-90 192,-90"/>
<text text-anchor="start" x="200" y="-108" font-family="Helvetica,sans-Serif" font-size="10.00">AbstractPokitServicePrivate</text>
<text text-anchor="middle" x="268" y="-97" font-family="Helvetica,sans-Serif" font-size="10.00">::checkSize</text>
</a>
</g>
</g>
<!-- Node1&#45;&gt;Node2 -->
<g id="edge1" class="edge">
<title>Node1&#45;&gt;Node2</title>
<path fill="none" stroke="midnightblue" d="M156.01,-92.01C164.54,-93.01 173.26,-94.03 181.88,-95.04"/>
<polygon fill="midnightblue" stroke="midnightblue" points="181.59,-98.53 191.93,-96.22 182.41,-91.58 181.59,-98.53"/>
</g>
<!-- Node4 -->
<g id="node4" class="node">
<title>Node4</title>
<g id="a_node4"><a target="_parent" xlink:href="https://doc.qt.io/qt-5/qbytearray.html#mid" xlink:title=" ">
<polygon fill="none" stroke="black" points="407.5,-177.5 407.5,-196.5 504.5,-196.5 504.5,-177.5 407.5,-177.5"/>
<text text-anchor="middle" x="456" y="-184.5" font-family="Helvetica,sans-Serif" font-size="10.00">QByteArray::mid</text>
</a>
</g>
</g>
<!-- Node1&#45;&gt;Node4 -->
<g id="edge14" class="edge">
<title>Node1&#45;&gt;Node4</title>
<path fill="none" stroke="midnightblue" d="M111.06,-98.16C133.37,-108.26 164.02,-121.23 192,-130 261.31,-151.73 343.44,-168.09 397.26,-177.59"/>
<polygon fill="midnightblue" stroke="midnightblue" points="396.84,-181.07 407.3,-179.34 398.05,-174.17 396.84,-181.07"/>
</g>
<!-- Node11 -->
<g id="node11" class="node">
<title>Node11</title>
<g id="a_node11"><a target="_parent" xlink:href="https://doc.qt.io/qt-5/qobject.html#tr" xlink:title=" ">
<polygon fill="none" stroke="black" points="421.5,-13.5 421.5,-32.5 490.5,-32.5 490.5,-13.5 421.5,-13.5"/>
<text text-anchor="middle" x="456" y="-20.5" font-family="Helvetica,sans-Serif" font-size="10.00">QObject::tr</text>
</a>
</g>
</g>
<!-- Node1&#45;&gt;Node11 -->
<g id="edge15" class="edge">
<title>Node1&#45;&gt;Node11</title>
<path fill="none" stroke="midnightblue" d="M156.16,-71.4C209.06,-63.36 280.82,-52.29 344,-42 366.12,-38.4 390.69,-34.21 411.07,-30.69"/>
<polygon fill="midnightblue" stroke="midnightblue" points="411.76,-34.12 421.02,-28.96 410.57,-27.22 411.76,-34.12"/>
</g>
<!-- Node12 -->
<g id="node12" class="node">
<title>Node12</title>
<g id="a_node12"><a target="_parent" xlink:href="https://doc.qt.io/qt-5/qversionnumber.html#isNull" xlink:title=" ">
<polygon fill="none" stroke="black" points="201.5,-13.5 201.5,-32.5 334.5,-32.5 334.5,-13.5 201.5,-13.5"/>
<text text-anchor="middle" x="268" y="-20.5" font-family="Helvetica,sans-Serif" font-size="10.00">QVersionNumber::isNull</text>
</a>
</g>
</g>
<!-- Node1&#45;&gt;Node12 -->
<g id="edge13" class="edge">
<title>Node1&#45;&gt;Node12</title>
<path fill="none" stroke="midnightblue" d="M126.44,-67.86C157.71,-57.88 198.19,-44.96 227.66,-35.55"/>
<polygon fill="midnightblue" stroke="midnightblue" points="228.75,-38.88 237.21,-32.51 226.62,-32.21 228.75,-38.88"/>
</g>
<!-- Node3 -->
<g id="node3" class="node">
<title>Node3</title>
<g id="a_node3"><a target="_parent" xlink:href="https://doc.qt.io/qt-5/qstring.html#arg-11" xlink:title=" ">
<polygon fill="none" stroke="black" points="587,-0.5 587,-19.5 661,-19.5 661,-0.5 587,-0.5"/>
<text text-anchor="middle" x="624" y="-7.5" font-family="Helvetica,sans-Serif" font-size="10.00">QString::arg</text>
</a>
</g>
</g>
<!-- Node2&#45;&gt;Node3 -->
<g id="edge2" class="edge">
<title>Node2&#45;&gt;Node3</title>
<path fill="none" stroke="midnightblue" d="M335.51,-89.96C400.81,-75.03 495.74,-52.85 532,-42 548.3,-37.12 551.96,-34.67 568,-29 573.61,-27.02 579.56,-24.94 585.38,-22.92"/>
<polygon fill="midnightblue" stroke="midnightblue" points="586.69,-26.17 594.99,-19.59 584.4,-19.55 586.69,-26.17"/>
</g>
<!-- Node2&#45;&gt;Node4 -->
<g id="edge3" class="edge">
<title>Node2&#45;&gt;Node4</title>
<path fill="none" stroke="midnightblue" d="M294.85,-120.13C316.97,-132.68 349.9,-150.43 380,-163 389.94,-167.15 400.87,-171.02 411.24,-174.39"/>
<polygon fill="midnightblue" stroke="midnightblue" points="410.36,-177.78 420.95,-177.46 412.47,-171.11 410.36,-177.78"/>
</g>
<!-- Node5 -->
<g id="node5" class="node">
<title>Node5</title>
<g id="a_node5"><a target="_parent" xlink:href="https://doc.qt.io/qt-5/qbytearray.html#size" xlink:title=" ">
<polygon fill="none" stroke="black" points="575,-190.5 575,-209.5 673,-209.5 673,-190.5 575,-190.5"/>
<text text-anchor="middle" x="624" y="-197.5" font-family="Helvetica,sans-Serif" font-size="10.00">QByteArray::size</text>
</a>
</g>
</g>
<!-- Node2&#45;&gt;Node5 -->
<g id="edge4" class="edge">
<title>Node2&#45;&gt;Node5</title>
<path fill="none" stroke="midnightblue" d="M335.51,-120.04C400.81,-134.97 495.74,-157.15 532,-168 548.3,-172.88 551.96,-175.33 568,-181 573.61,-182.98 579.56,-185.06 585.38,-187.08"/>
<polygon fill="midnightblue" stroke="midnightblue" points="584.4,-190.45 594.99,-190.41 586.69,-183.83 584.4,-190.45"/>
</g>
<!-- Node6 -->
<g id="node6" class="node">
<title>Node6</title>
<g id="a_node6"><a xlink:href="classAbstractPokitServicePrivate.html#af748600fc201fe47f29b58e8e93179d8" target="_top" xlink:title="Returns up to maxSize bytes of data as a human readable hexadecimal string.">
<polygon fill="none" stroke="black" points="380,-90 380,-120 532,-120 532,-90 380,-90"/>
<text text-anchor="start" x="388" y="-108" font-family="Helvetica,sans-Serif" font-size="10.00">AbstractPokitServicePrivate</text>
<text text-anchor="middle" x="456" y="-97" font-family="Helvetica,sans-Serif" font-size="10.00">::toHexString</text>
</a>
</g>
</g>
<!-- Node2&#45;&gt;Node6 -->
<g id="edge5" class="edge">
<title>Node2&#45;&gt;Node6</title>
<path fill="none" stroke="midnightblue" d="M344.12,-105C352.6,-105 361.28,-105 369.87,-105"/>
<polygon fill="midnightblue" stroke="midnightblue" points="369.9,-108.5 379.9,-105 369.9,-101.5 369.9,-108.5"/>
</g>
<!-- Node2&#45;&gt;Node11 -->
<g id="edge12" class="edge">
<title>Node2&#45;&gt;Node11</title>
<path fill="none" stroke="midnightblue" d="M312.81,-89.87C323.29,-85.61 334.27,-80.58 344,-75 361.58,-64.91 362.07,-56.46 380,-47 389.81,-41.82 400.94,-37.52 411.57,-34.05"/>
<polygon fill="midnightblue" stroke="midnightblue" points="412.61,-37.39 421.13,-31.1 410.54,-30.7 412.61,-37.39"/>
</g>
<!-- Node6&#45;&gt;Node3 -->
<g id="edge6" class="edge">
<title>Node6&#45;&gt;Node3</title>
<path fill="none" stroke="midnightblue" d="M505.81,-89.83C514.98,-85.8 524.15,-80.89 532,-75 552.77,-59.42 546.87,-44.08 568,-29 571.01,-26.85 574.29,-24.92 577.7,-23.21"/>
<polygon fill="midnightblue" stroke="midnightblue" points="579.19,-26.37 586.92,-19.12 576.36,-19.97 579.19,-26.37"/>
</g>
<!-- Node6&#45;&gt;Node5 -->
<g id="edge10" class="edge">
<title>Node6&#45;&gt;Node5</title>
<path fill="none" stroke="midnightblue" d="M505.81,-120.17C514.98,-124.2 524.15,-129.11 532,-135 552.77,-150.58 546.87,-165.92 568,-181 570.67,-182.91 573.55,-184.64 576.55,-186.2"/>
<polygon fill="midnightblue" stroke="midnightblue" points="575.21,-189.44 585.76,-190.42 578.13,-183.08 575.21,-189.44"/>
</g>
<!-- Node7 -->
<g id="node7" class="node">
<title>Node7</title>
<g id="a_node7"><a target="_parent" xlink:href="https://doc.qt.io/qt-5/qstring.html#fromLatin1" xlink:title=" ">
<polygon fill="none" stroke="black" points="568,-76.5 568,-95.5 680,-95.5 680,-76.5 568,-76.5"/>
<text text-anchor="middle" x="624" y="-83.5" font-family="Helvetica,sans-Serif" font-size="10.00">QString::fromLatin1</text>
</a>
</g>
</g>
<!-- Node6&#45;&gt;Node7 -->
<g id="edge7" class="edge">
<title>Node6&#45;&gt;Node7</title>
<path fill="none" stroke="midnightblue" d="M532.23,-96.39C540.77,-95.41 549.42,-94.42 557.81,-93.46"/>
<polygon fill="midnightblue" stroke="midnightblue" points="558.36,-96.92 567.9,-92.31 557.56,-89.97 558.36,-96.92"/>
</g>
<!-- Node8 -->
<g id="node8" class="node">
<title>Node8</title>
<g id="a_node8"><a target="_parent" xlink:href="https://doc.qt.io/qt-5/qbytearray.html#left" xlink:title=" ">
<polygon fill="none" stroke="black" points="577,-38.5 577,-57.5 671,-57.5 671,-38.5 577,-38.5"/>
<text text-anchor="middle" x="624" y="-45.5" font-family="Helvetica,sans-Serif" font-size="10.00">QByteArray::left</text>
</a>
</g>
</g>
<!-- Node6&#45;&gt;Node8 -->
<g id="edge8" class="edge">
<title>Node6&#45;&gt;Node8</title>
<path fill="none" stroke="midnightblue" d="M501.05,-89.87C527.34,-80.85 560.36,-69.51 585.42,-60.91"/>
<polygon fill="midnightblue" stroke="midnightblue" points="586.61,-64.19 594.94,-57.64 584.34,-57.57 586.61,-64.19"/>
</g>
<!-- Node9 -->
<g id="node9" class="node">
<title>Node9</title>
<g id="a_node9"><a target="_parent" xlink:href="https://doc.qt.io/qt-5/qbytearray.html#right" xlink:title=" ">
<polygon fill="none" stroke="black" points="573.5,-152.5 573.5,-171.5 674.5,-171.5 674.5,-152.5 573.5,-152.5"/>
<text text-anchor="middle" x="624" y="-159.5" font-family="Helvetica,sans-Serif" font-size="10.00">QByteArray::right</text>
</a>
</g>
</g>
<!-- Node6&#45;&gt;Node9 -->
<g id="edge9" class="edge">
<title>Node6&#45;&gt;Node9</title>
<path fill="none" stroke="midnightblue" d="M501.05,-120.13C527.34,-129.15 560.36,-140.49 585.42,-149.09"/>
<polygon fill="midnightblue" stroke="midnightblue" points="584.34,-152.43 594.94,-152.36 586.61,-145.81 584.34,-152.43"/>
</g>
<!-- Node10 -->
<g id="node10" class="node">
<title>Node10</title>
<g id="a_node10"><a target="_parent" xlink:href="https://doc.qt.io/qt-5/qbytearray.html#toHex" xlink:title=" ">
<polygon fill="none" stroke="black" points="570.5,-114.5 570.5,-133.5 677.5,-133.5 677.5,-114.5 570.5,-114.5"/>
<text text-anchor="middle" x="624" y="-121.5" font-family="Helvetica,sans-Serif" font-size="10.00">QByteArray::toHex</text>
</a>
</g>
</g>
<!-- Node6&#45;&gt;Node10 -->
<g id="edge11" class="edge">
<title>Node6&#45;&gt;Node10</title>
<path fill="none" stroke="midnightblue" d="M532.23,-113.61C541.58,-114.68 551.06,-115.77 560.19,-116.81"/>
<polygon fill="midnightblue" stroke="midnightblue" points="560,-120.31 570.33,-117.97 560.8,-113.36 560,-120.31"/>
</g>
</g>
</svg>
