<?xml version="1.0" encoding="UTF-8" standalone="no"?>
<!DOCTYPE svg PUBLIC "-//W3C//DTD SVG 1.1//EN"
 "http://www.w3.org/Graphics/SVG/1.1/DTD/svg11.dtd">
<!-- Generated by graphviz version 2.43.0 (0)
 -->
<!-- Title: CalibrateCommand::temperatureCalibrated Pages: 1 -->
<svg width="486pt" height="52pt"
 viewBox="0.00 0.00 486.00 51.50" xmlns="http://www.w3.org/2000/svg" xmlns:xlink="http://www.w3.org/1999/xlink">
<g id="graph0" class="graph" transform="scale(1 1) rotate(0) translate(4 47.5)">
<title>CalibrateCommand::temperatureCalibrated</title>
<!-- Node1 -->
<g id="Node000001" class="node">
<title>Node1</title>
<g id="a_Node000001"><a xlink:title="Handles CalibrationService::temperatureCalibrated events, by outputting the result and exiting.">
<polygon fill="#999999" stroke="#666666" points="178,-30 0,-30 0,0 178,0 178,-30"/>
<text text-anchor="start" x="8" y="-18" font-family="Helvetica,sans-Serif" font-size="10.00">CalibrateCommand::temperature</text>
<text text-anchor="middle" x="89" y="-7" font-family="Helvetica,sans-Serif" font-size="10.00">Calibrated</text>
</a>
</g>
</g>
<!-- Node2 -->
<g id="Node000002" class="node">
<title>Node2</title>
<g id="a_Node000002"><a xlink:href="classDeviceCommand.html#ae619166395b5651f1316fd5336d9fa2c" target="_top" xlink:title="Disconnects the underlying Pokit device, and sets exitCode to be return to the OS once the disconnect...">
<polygon fill="white" stroke="#666666" points="373,-43.5 214,-43.5 214,-24.5 373,-24.5 373,-43.5"/>
<text text-anchor="middle" x="293.5" y="-31.5" font-family="Helvetica,sans-Serif" font-size="10.00">DeviceCommand::disconnect</text>
</a>
</g>
</g>
<!-- Node1&#45;&gt;Node2 -->
<g id="edge1_Node000001_Node000002" class="edge">
<title>Node1&#45;&gt;Node2</title>
<g id="a_edge1_Node000001_Node000002"><a xlink:title=" ">
<path fill="none" stroke="#63b8ff" d="M178.23,-23.28C187.38,-24.14 196.67,-25.01 205.81,-25.87"/>
<polygon fill="#63b8ff" stroke="#63b8ff" points="213.78,-26.61 205.48,-29.45 209.8,-26.24 205.82,-25.87 205.82,-25.87 205.82,-25.87 209.8,-26.24 206.16,-22.28 213.78,-26.61 213.78,-26.61"/>
</a>
</g>
</g>
<!-- Node3 -->
<g id="Node000003" class="node">
<title>Node3</title>
<g id="a_Node000003"><a target="_parent" xlink:href="https://doc.qt.io/qt-5/qobject.html#tr" xlink:title=" ">
<polygon fill="white" stroke="#666666" points="478,-24.5 409,-24.5 409,-5.5 478,-5.5 478,-24.5"/>
<text text-anchor="middle" x="443.5" y="-12.5" font-family="Helvetica,sans-Serif" font-size="10.00">QObject::tr</text>
</a>
</g>
</g>
<!-- Node1&#45;&gt;Node3 -->
<g id="edge3_Node000001_Node000003" class="edge">
<title>Node1&#45;&gt;Node3</title>
<g id="a_edge3_Node000001_Node000003"><a xlink:title=" ">
<path fill="none" stroke="#63b8ff" d="M178.04,-15C249.23,-15 346.28,-15 400.83,-15"/>
<polygon fill="#63b8ff" stroke="#63b8ff" points="408.89,-15 400.89,-18.6 404.89,-15 400.89,-15 400.89,-15 400.89,-15 404.89,-15 400.89,-11.4 408.89,-15 408.89,-15"/>
</a>
</g>
</g>
<!-- Node2&#45;&gt;Node3 -->
<g id="edge2_Node000002_Node000003" class="edge">
<title>Node2&#45;&gt;Node3</title>
<g id="a_edge2_Node000002_Node000003"><a xlink:title=" ">
<path fill="none" stroke="#63b8ff" d="M368.93,-24.44C379.84,-23.04 390.74,-21.64 400.68,-20.37"/>
<polygon fill="#63b8ff" stroke="#63b8ff" points="408.78,-19.33 401.3,-23.92 404.81,-19.84 400.84,-20.35 400.84,-20.35 400.84,-20.35 404.81,-19.84 400.38,-16.78 408.78,-19.33 408.78,-19.33"/>
</a>
</g>
</g>
</g>
</svg>
