<?xml version="1.0" encoding="UTF-8" standalone="no"?>
<!DOCTYPE svg PUBLIC "-//W3C//DTD SVG 1.1//EN"
 "http://www.w3.org/Graphics/SVG/1.1/DTD/svg11.dtd">
<!-- Generated by graphviz version 2.43.0 (0)
 -->
<!-- Title: DeviceCommand::deviceDisconnected Pages: 1 -->
<svg width="1068pt" height="182pt"
 viewBox="0.00 0.00 1068.00 182.00" xmlns="http://www.w3.org/2000/svg" xmlns:xlink="http://www.w3.org/1999/xlink">
<g id="graph0" class="graph" transform="scale(1 1) rotate(0) translate(4 178)">
<title>DeviceCommand::deviceDisconnected</title>
<!-- Node1 -->
<g id="Node000001" class="node">
<title>Node1</title>
<g id="a_Node000001"><a xlink:title="Handles device disconnection events.">
<polygon fill="#999999" stroke="#666666" points="1060,-96.5 855,-96.5 855,-77.5 1060,-77.5 1060,-96.5"/>
<text text-anchor="middle" x="957.5" y="-84.5" font-family="Helvetica,sans-Serif" font-size="10.00">DeviceCommand::deviceDisconnected</text>
</a>
</g>
</g>
<!-- Node2 -->
<g id="Node000002" class="node">
<title>Node2</title>
<g id="a_Node000002"><a xlink:href="classDeviceCommand.html#acde5a41e646a23c5485b67cf99e402a7" target="_top" xlink:title="Checks if info is the device (if any) we&#39;re looking for, and if so, create a controller and service,...">
<polygon fill="white" stroke="#666666" points="819,-77.5 625,-77.5 625,-58.5 819,-58.5 819,-77.5"/>
<text text-anchor="middle" x="722" y="-65.5" font-family="Helvetica,sans-Serif" font-size="10.00">DeviceCommand::deviceDiscovered</text>
</a>
</g>
</g>
<!-- Node1&#45;&gt;Node2 -->
<g id="edge1_Node000001_Node000002" class="edge">
<title>Node1&#45;&gt;Node2</title>
<g id="a_edge1_Node000001_Node000002"><a xlink:title=" ">
<path fill="none" stroke="#63b8ff" d="M846.72,-78.07C837.54,-77.32 828.3,-76.57 819.24,-75.83"/>
<polygon fill="#63b8ff" stroke="#63b8ff" points="854.76,-78.72 846.5,-81.66 850.78,-78.4 846.79,-78.07 846.79,-78.07 846.79,-78.07 850.78,-78.4 847.08,-74.48 854.76,-78.72 854.76,-78.72"/>
</a>
</g>
</g>
<!-- Node3 -->
<g id="Node000003" class="node">
<title>Node3</title>
<g id="a_Node000003"><a xlink:href="classDeviceCommand.html#abb9d2e113e372130dca9360791e7ce5b" target="_top" xlink:title=" ">
<polygon fill="white" stroke="#666666" points="589,-96.5 433,-96.5 433,-77.5 589,-77.5 589,-96.5"/>
<text text-anchor="middle" x="511" y="-84.5" font-family="Helvetica,sans-Serif" font-size="10.00">DeviceCommand::minRange</text>
</a>
</g>
</g>
<!-- Node1&#45;&gt;Node3 -->
<g id="edge19_Node000001_Node000003" class="edge">
<title>Node1&#45;&gt;Node3</title>
<g id="a_edge19_Node000001_Node000003"><a xlink:title=" ">
<path fill="none" stroke="#63b8ff" d="M846.66,-87C766.74,-87 660.48,-87 589.34,-87"/>
<polygon fill="#63b8ff" stroke="#63b8ff" points="854.8,-87 846.8,-90.6 850.8,-87 846.8,-87 846.8,-87 846.8,-87 850.8,-87 846.8,-83.4 854.8,-87 854.8,-87"/>
</a>
</g>
</g>
<!-- Node2&#45;&gt;Node3 -->
<g id="edge2_Node000002_Node000003" class="edge">
<title>Node2&#45;&gt;Node3</title>
<g id="a_edge2_Node000002_Node000003"><a xlink:title=" ">
<path fill="none" stroke="#63b8ff" d="M616.66,-77.49C607.44,-78.32 598.21,-79.16 589.27,-79.98"/>
<polygon fill="#63b8ff" stroke="#63b8ff" points="624.76,-76.75 617.12,-81.06 620.77,-77.11 616.79,-77.47 616.79,-77.47 616.79,-77.47 620.77,-77.11 616.47,-73.89 624.76,-76.75 624.76,-76.75"/>
</a>
</g>
</g>
<!-- Node4 -->
<g id="Node000004" class="node">
<title>Node4</title>
<g id="a_Node000004"><a xlink:href="classDeviceCommand.html#a8aa676de2533a687cb369e70bb352a4c" target="_top" xlink:title="Returns the product&#39;s lowest capacitance range that can measure at least up to maxValue (nF),...">
<polygon fill="white" stroke="#666666" points="397,-174 212,-174 212,-144 397,-144 397,-174"/>
<text text-anchor="start" x="220" y="-162" font-family="Helvetica,sans-Serif" font-size="10.00">DeviceCommand::minCapacitance</text>
<text text-anchor="middle" x="304.5" y="-151" font-family="Helvetica,sans-Serif" font-size="10.00">Range</text>
</a>
</g>
</g>
<!-- Node3&#45;&gt;Node4 -->
<g id="edge3_Node000003_Node000004" class="edge">
<title>Node3&#45;&gt;Node4</title>
<g id="a_edge3_Node000003_Node000004"><a xlink:title=" ">
<path fill="none" stroke="#63b8ff" d="M465.22,-99.58C444.7,-107.86 419.89,-118.18 397,-126 377.42,-132.69 354.95,-138.61 337.17,-143.97"/>
<polygon fill="#63b8ff" stroke="#63b8ff" points="472.86,-96.51 466.78,-102.83 469.15,-98 465.44,-99.49 465.44,-99.49 465.44,-99.49 469.15,-98 464.1,-96.15 472.86,-96.51 472.86,-96.51"/>
</a>
</g>
</g>
<!-- Node6 -->
<g id="Node000006" class="node">
<title>Node6</title>
<g id="a_Node000006"><a xlink:href="classDeviceCommand.html#ab5ae0318d3ec2bd4449e710eafafa680" target="_top" xlink:title="Returns the product&#39;s lowest current range that can measure at least up to maxValue (μA),...">
<polygon fill="white" stroke="#666666" points="385,-78 224,-78 224,-48 385,-48 385,-78"/>
<text text-anchor="start" x="232" y="-66" font-family="Helvetica,sans-Serif" font-size="10.00">DeviceCommand::minCurrent</text>
<text text-anchor="middle" x="304.5" y="-55" font-family="Helvetica,sans-Serif" font-size="10.00">Range</text>
</a>
</g>
</g>
<!-- Node3&#45;&gt;Node6 -->
<g id="edge6_Node000003_Node000006" class="edge">
<title>Node3&#45;&gt;Node6</title>
<g id="a_edge6_Node000003_Node000006"><a xlink:title=" ">
<path fill="none" stroke="#63b8ff" d="M465.86,-76.15C442.35,-72.41 412.7,-68.61 385.3,-65.76"/>
<polygon fill="#63b8ff" stroke="#63b8ff" points="473.91,-77.47 465.43,-79.73 469.96,-76.82 466.02,-76.18 466.02,-76.18 466.02,-76.18 469.96,-76.82 466.6,-72.62 473.91,-77.47 473.91,-77.47"/>
</a>
</g>
</g>
<!-- Node9 -->
<g id="Node000009" class="node">
<title>Node9</title>
<g id="a_Node000009"><a xlink:href="classDeviceCommand.html#a1ce3ce094a91ec500e9d50e620b0cc6d" target="_top" xlink:title="Returns the product&#39;s lowest resistance range that can measure at least up to maxValue (Ω),...">
<polygon fill="white" stroke="#666666" points="394,-126 215,-126 215,-96 394,-96 394,-126"/>
<text text-anchor="start" x="223" y="-114" font-family="Helvetica,sans-Serif" font-size="10.00">DeviceCommand::minResistance</text>
<text text-anchor="middle" x="304.5" y="-103" font-family="Helvetica,sans-Serif" font-size="10.00">Range</text>
</a>
</g>
</g>
<!-- Node3&#45;&gt;Node9 -->
<g id="edge11_Node000003_Node000009" class="edge">
<title>Node3&#45;&gt;Node9</title>
<g id="a_edge11_Node000003_Node000009"><a xlink:title=" ">
<path fill="none" stroke="#63b8ff" d="M424.9,-90.32C409.33,-91.99 393.22,-93.94 378.06,-95.99"/>
<polygon fill="#63b8ff" stroke="#63b8ff" points="432.98,-89.48 425.4,-93.89 429,-89.89 425.02,-90.31 425.02,-90.31 425.02,-90.31 429,-89.89 424.65,-86.73 432.98,-89.48 432.98,-89.48"/>
</a>
</g>
</g>
<!-- Node10 -->
<g id="Node000010" class="node">
<title>Node10</title>
<g id="a_Node000010"><a xlink:href="classDeviceCommand.html#a92f7e61dff3d28eda856ea4f95e828fe" target="_top" xlink:title="Returns the product&#39;s lowest voltage range that can measure at least up to maxValue (mV),...">
<polygon fill="white" stroke="#666666" points="385.5,-30 223.5,-30 223.5,0 385.5,0 385.5,-30"/>
<text text-anchor="start" x="231.5" y="-18" font-family="Helvetica,sans-Serif" font-size="10.00">DeviceCommand::minVoltage</text>
<text text-anchor="middle" x="304.5" y="-7" font-family="Helvetica,sans-Serif" font-size="10.00">Range</text>
</a>
</g>
</g>
<!-- Node3&#45;&gt;Node10 -->
<g id="edge14_Node000003_Node000010" class="edge">
<title>Node3&#45;&gt;Node10</title>
<g id="a_edge14_Node000003_Node000010"><a xlink:title=" ">
<path fill="none" stroke="#63b8ff" d="M493.61,-72.99C471.88,-59.94 432.18,-42.02 397,-30 393.27,-28.73 389.44,-27.48 385.55,-26.28"/>
<polygon fill="#63b8ff" stroke="#63b8ff" points="500.51,-77.39 491.83,-76.13 497.14,-75.24 493.76,-73.09 493.76,-73.09 493.76,-73.09 497.14,-75.24 495.7,-70.05 500.51,-77.39 500.51,-77.39"/>
</a>
</g>
</g>
<!-- Node4&#45;&gt;Node3 -->
<g id="edge4_Node000004_Node000003" class="edge">
<title>Node4&#45;&gt;Node3</title>
<g id="a_edge4_Node000004_Node000003"><a xlink:title=" ">
<path fill="none" stroke="#63b8ff" d="M404.52,-141.36C442.19,-127.84 482.58,-108.88 500.51,-96.61"/>
<polygon fill="#63b8ff" stroke="#63b8ff" points="396.53,-144.16 402.89,-138.12 400.31,-142.84 404.08,-141.51 404.08,-141.51 404.08,-141.51 400.31,-142.84 405.27,-144.91 396.53,-144.16 396.53,-144.16"/>
</a>
</g>
</g>
<!-- Node5 -->
<g id="Node000005" class="node">
<title>Node5</title>
<g id="a_Node000005"><a xlink:href="classMeterCommand.html#a7252ac9a772bc45e374da30bbc23ed85" target="_top" xlink:title="Processes the relevant options from the command line parser.">
<polygon fill="white" stroke="#666666" points="176,-116.5 0,-116.5 0,-97.5 176,-97.5 176,-116.5"/>
<text text-anchor="middle" x="88" y="-104.5" font-family="Helvetica,sans-Serif" font-size="10.00">MeterCommand::processOptions</text>
</a>
</g>
</g>
<!-- Node4&#45;&gt;Node5 -->
<g id="edge5_Node000004_Node000005" class="edge">
<title>Node4&#45;&gt;Node5</title>
<g id="a_edge5_Node000004_Node000005"><a xlink:title=" ">
<path fill="none" stroke="#63b8ff" d="M233.64,-142.06C198.69,-133.59 157.68,-123.65 128.27,-116.52"/>
<polygon fill="#63b8ff" stroke="#63b8ff" points="241.46,-143.96 232.83,-145.57 237.57,-143.02 233.68,-142.07 233.68,-142.07 233.68,-142.07 237.57,-143.02 234.53,-138.58 241.46,-143.96 241.46,-143.96"/>
</a>
</g>
</g>
<!-- Node6&#45;&gt;Node3 -->
<g id="edge7_Node000006_Node000003" class="edge">
<title>Node6&#45;&gt;Node3</title>
<g id="a_edge7_Node000006_Node000003"><a xlink:title=" ">
<path fill="none" stroke="#63b8ff" d="M386.07,-79.07C401.51,-81.08 417.65,-82.96 432.98,-84.52"/>
<polygon fill="#63b8ff" stroke="#63b8ff" points="378.06,-78.01 386.46,-75.49 382.03,-78.53 385.99,-79.06 385.99,-79.06 385.99,-79.06 382.03,-78.53 385.52,-82.63 378.06,-78.01 378.06,-78.01"/>
</a>
</g>
</g>
<!-- Node6&#45;&gt;Node5 -->
<g id="edge10_Node000006_Node000005" class="edge">
<title>Node6&#45;&gt;Node5</title>
<g id="a_edge10_Node000006_Node000005"><a xlink:title=" ">
<path fill="none" stroke="#63b8ff" d="M222.09,-79.7C192.76,-85.72 160.68,-92.3 135.37,-97.49"/>
<polygon fill="#63b8ff" stroke="#63b8ff" points="230.28,-78.02 223.17,-83.15 226.36,-78.82 222.44,-79.63 222.44,-79.63 222.44,-79.63 226.36,-78.82 221.72,-76.1 230.28,-78.02 230.28,-78.02"/>
</a>
</g>
</g>
<!-- Node7 -->
<g id="Node000007" class="node">
<title>Node7</title>
<g id="a_Node000007"><a xlink:href="classDsoCommand.html#a87db950042b5ea7707bd76648536c943" target="_top" xlink:title="Processes the relevant options from the command line parser.">
<polygon fill="white" stroke="#666666" points="171.5,-26.5 4.5,-26.5 4.5,-7.5 171.5,-7.5 171.5,-26.5"/>
<text text-anchor="middle" x="88" y="-14.5" font-family="Helvetica,sans-Serif" font-size="10.00">DsoCommand::processOptions</text>
</a>
</g>
</g>
<!-- Node6&#45;&gt;Node7 -->
<g id="edge8_Node000006_Node000007" class="edge">
<title>Node6&#45;&gt;Node7</title>
<g id="a_edge8_Node000006_Node000007"><a xlink:title=" ">
<path fill="none" stroke="#63b8ff" d="M225.08,-46.18C194.2,-39.56 159.88,-32.2 133.43,-26.53"/>
<polygon fill="#63b8ff" stroke="#63b8ff" points="233.26,-47.94 224.69,-49.78 229.35,-47.1 225.44,-46.26 225.44,-46.26 225.44,-46.26 229.35,-47.1 226.2,-42.74 233.26,-47.94 233.26,-47.94"/>
</a>
</g>
</g>
<!-- Node8 -->
<g id="Node000008" class="node">
<title>Node8</title>
<g id="a_Node000008"><a xlink:href="classLoggerStartCommand.html#a2dea05a52eab344c52648513e5fecbd3" target="_top" xlink:title="Processes the relevant options from the command line parser.">
<polygon fill="white" stroke="#666666" points="149.5,-76 26.5,-76 26.5,-46 149.5,-46 149.5,-76"/>
<text text-anchor="start" x="34.5" y="-64" font-family="Helvetica,sans-Serif" font-size="10.00">LoggerStartCommand</text>
<text text-anchor="middle" x="88" y="-53" font-family="Helvetica,sans-Serif" font-size="10.00">::processOptions</text>
</a>
</g>
</g>
<!-- Node6&#45;&gt;Node8 -->
<g id="edge9_Node000006_Node000008" class="edge">
<title>Node6&#45;&gt;Node8</title>
<g id="a_edge9_Node000006_Node000008"><a xlink:title=" ">
<path fill="none" stroke="#63b8ff" d="M215.81,-62.18C193.59,-61.98 170.21,-61.76 149.66,-61.57"/>
<polygon fill="#63b8ff" stroke="#63b8ff" points="223.93,-62.26 215.9,-65.78 219.93,-62.22 215.93,-62.18 215.93,-62.18 215.93,-62.18 219.93,-62.22 215.97,-58.58 223.93,-62.26 223.93,-62.26"/>
</a>
</g>
</g>
<!-- Node9&#45;&gt;Node3 -->
<g id="edge12_Node000009_Node000003" class="edge">
<title>Node9&#45;&gt;Node3</title>
<g id="a_edge12_Node000009_Node000003"><a xlink:title=" ">
<path fill="none" stroke="#63b8ff" d="M402.63,-106.34C428.07,-103.43 453.94,-99.91 473.91,-96.53"/>
<polygon fill="#63b8ff" stroke="#63b8ff" points="394.39,-107.27 401.94,-102.8 398.36,-106.82 402.34,-106.38 402.34,-106.38 402.34,-106.38 398.36,-106.82 402.74,-109.95 394.39,-107.27 394.39,-107.27"/>
</a>
</g>
</g>
<!-- Node9&#45;&gt;Node5 -->
<g id="edge13_Node000009_Node000005" class="edge">
<title>Node9&#45;&gt;Node5</title>
<g id="a_edge13_Node000009_Node000005"><a xlink:title=" ">
<path fill="none" stroke="#63b8ff" d="M206.57,-109.19C196.38,-109 186.07,-108.81 176,-108.62"/>
<polygon fill="#63b8ff" stroke="#63b8ff" points="214.71,-109.34 206.64,-112.79 210.71,-109.27 206.71,-109.19 206.71,-109.19 206.71,-109.19 210.71,-109.27 206.77,-105.6 214.71,-109.34 214.71,-109.34"/>
</a>
</g>
</g>
<!-- Node10&#45;&gt;Node3 -->
<g id="edge15_Node000010_Node000003" class="edge">
<title>Node10&#45;&gt;Node3</title>
<g id="a_edge15_Node000010_Node000003"><a xlink:title=" ">
<path fill="none" stroke="#63b8ff" d="M344.93,-32.33C361.21,-37.07 380.17,-42.25 397,-48 422.82,-56.82 451.07,-68.82 472.86,-77.49"/>
<polygon fill="#63b8ff" stroke="#63b8ff" points="337.17,-30.03 345.87,-28.85 341.01,-31.17 344.84,-32.3 344.84,-32.3 344.84,-32.3 341.01,-31.17 343.82,-35.76 337.17,-30.03 337.17,-30.03"/>
</a>
</g>
</g>
<!-- Node10&#45;&gt;Node5 -->
<g id="edge18_Node000010_Node000005" class="edge">
<title>Node10&#45;&gt;Node5</title>
<g id="a_edge18_Node000010_Node000005"><a xlink:title=" ">
<path fill="none" stroke="#63b8ff" d="M221.46,-33.53C218.19,-35.2 215.01,-37.02 212,-39 190.31,-53.26 197.75,-70.83 176,-85 167.78,-90.36 158.33,-94.41 148.76,-97.47"/>
<polygon fill="#63b8ff" stroke="#63b8ff" points="228.79,-30.11 223.07,-36.76 225.17,-31.8 221.54,-33.49 221.54,-33.49 221.54,-33.49 225.17,-31.8 220.02,-30.23 228.79,-30.11 228.79,-30.11"/>
</a>
</g>
</g>
<!-- Node10&#45;&gt;Node7 -->
<g id="edge16_Node000010_Node000007" class="edge">
<title>Node10&#45;&gt;Node7</title>
<g id="a_edge16_Node000010_Node000007"><a xlink:title=" ">
<path fill="none" stroke="#63b8ff" d="M214.94,-15.83C200.59,-15.96 185.78,-16.1 171.58,-16.23"/>
<polygon fill="#63b8ff" stroke="#63b8ff" points="223.32,-15.75 215.36,-19.42 219.32,-15.78 215.32,-15.82 215.32,-15.82 215.32,-15.82 219.32,-15.78 215.29,-12.22 223.32,-15.75 223.32,-15.75"/>
</a>
</g>
</g>
<!-- Node10&#45;&gt;Node8 -->
<g id="edge17_Node000010_Node000008" class="edge">
<title>Node10&#45;&gt;Node8</title>
<g id="a_edge17_Node000010_Node000008"><a xlink:title=" ">
<path fill="none" stroke="#63b8ff" d="M225.26,-31.78C200.34,-37.12 173.15,-42.95 149.67,-47.99"/>
<polygon fill="#63b8ff" stroke="#63b8ff" points="233.26,-30.06 226.2,-35.26 229.35,-30.9 225.44,-31.74 225.44,-31.74 225.44,-31.74 229.35,-30.9 224.69,-28.22 233.26,-30.06 233.26,-30.06"/>
</a>
</g>
</g>
</g>
</svg>
