<?xml version="1.0" encoding="UTF-8" standalone="no"?>
<!DOCTYPE svg PUBLIC "-//W3C//DTD SVG 1.1//EN"
 "http://www.w3.org/Graphics/SVG/1.1/DTD/svg11.dtd">
<!-- Generated by graphviz version 2.43.0 (0)
 -->
<!-- Title: MultimeterService::toString Pages: 1 -->
<svg width="646pt" height="138pt"
 viewBox="0.00 0.00 646.00 138.00" xmlns="http://www.w3.org/2000/svg" xmlns:xlink="http://www.w3.org/1999/xlink">
<g id="graph0" class="graph" transform="scale(1 1) rotate(0) translate(4 134)">
<title>MultimeterService::toString</title>
<!-- Node1 -->
<g id="node1" class="node">
<title>Node1</title>
<g id="a_node1"><a xlink:title="Returns range as a user&#45;friendly string, or a null QString if mode has no ranges.">
<polygon fill="#999999" stroke="#666666" points="113,-79.5 0,-79.5 0,-49.5 113,-49.5 113,-79.5"/>
<text text-anchor="start" x="8" y="-67.5" font-family="Helvetica,sans-Serif" font-size="10.00">MultimeterService::</text>
<text text-anchor="middle" x="56.5" y="-56.5" font-family="Helvetica,sans-Serif" font-size="10.00">toString</text>
</a>
</g>
</g>
<!-- Node2 -->
<g id="node2" class="node">
<title>Node2</title>
<g id="a_node2"><a xlink:href="namespaceCapacitanceRange.html#a6479f2bbaff1c1917c6701ab683641f9" target="_top" xlink:title="Returns product&#39;s capacitance range as a human&#45;friendly string.">
<polygon fill="white" stroke="#666666" points="301,-130 149,-130 149,-111 301,-111 301,-130"/>
<text text-anchor="middle" x="225" y="-118" font-family="Helvetica,sans-Serif" font-size="10.00">CapacitanceRange::toString</text>
</a>
</g>
</g>
<!-- Node1&#45;&gt;Node2 -->
<g id="edge1" class="edge">
<title>Node1&#45;&gt;Node2</title>
<path fill="none" stroke="#63b8ff" d="M90.49,-79.68C107.68,-87.22 129.21,-96.06 149,-102.5 156.11,-104.81 163.68,-106.97 171.18,-108.94"/>
<polygon fill="#63b8ff" stroke="#63b8ff" points="179.26,-110.99 170.62,-112.51 175.38,-110 171.5,-109.02 171.5,-109.02 171.5,-109.02 175.38,-110 172.39,-105.53 179.26,-110.99 179.26,-110.99"/>
</g>
<!-- Node5 -->
<g id="node5" class="node">
<title>Node5</title>
<g id="a_node5"><a xlink:href="namespaceCurrentRange.html#aa6b6d528c9f92c9dd34076fed36abbed" target="_top" xlink:title="Returns product&#39;s current range as a human&#45;friendly string.">
<polygon fill="white" stroke="#666666" points="289,-93 161,-93 161,-74 289,-74 289,-93"/>
<text text-anchor="middle" x="225" y="-81" font-family="Helvetica,sans-Serif" font-size="10.00">CurrentRange::toString</text>
</a>
</g>
</g>
<!-- Node1&#45;&gt;Node5 -->
<g id="edge4" class="edge">
<title>Node1&#45;&gt;Node5</title>
<path fill="none" stroke="#63b8ff" d="M113.41,-70.88C126,-72.32 139.54,-73.86 152.67,-75.36"/>
<polygon fill="#63b8ff" stroke="#63b8ff" points="160.78,-76.29 152.42,-78.96 156.81,-75.83 152.83,-75.38 152.83,-75.38 152.83,-75.38 156.81,-75.83 153.24,-71.8 160.78,-76.29 160.78,-76.29"/>
</g>
<!-- Node7 -->
<g id="node7" class="node">
<title>Node7</title>
<g id="a_node7"><a xlink:href="namespaceResistanceRange.html#af0105bd92b237f83728619e8d9fc7f87" target="_top" xlink:title="Returns product&#39;s current range as a human&#45;friendly string.">
<polygon fill="white" stroke="#666666" points="297.5,-56 152.5,-56 152.5,-37 297.5,-37 297.5,-56"/>
<text text-anchor="middle" x="225" y="-44" font-family="Helvetica,sans-Serif" font-size="10.00">ResistanceRange::toString</text>
</a>
</g>
</g>
<!-- Node1&#45;&gt;Node7 -->
<g id="edge8" class="edge">
<title>Node1&#45;&gt;Node7</title>
<path fill="none" stroke="#63b8ff" d="M113.41,-58.46C123.34,-57.38 133.86,-56.24 144.31,-55.11"/>
<polygon fill="#63b8ff" stroke="#63b8ff" points="152.28,-54.25 144.71,-58.69 148.3,-54.68 144.32,-55.11 144.32,-55.11 144.32,-55.11 148.3,-54.68 143.93,-51.53 152.28,-54.25 152.28,-54.25"/>
</g>
<!-- Node8 -->
<g id="node8" class="node">
<title>Node8</title>
<g id="a_node8"><a xlink:href="namespaceVoltageRange.html#a9b19de61217a271c49a29609344a686f" target="_top" xlink:title="Returns product&#39;s current range as a human&#45;friendly string.">
<polygon fill="white" stroke="#666666" points="289,-19 161,-19 161,0 289,0 289,-19"/>
<text text-anchor="middle" x="225" y="-7" font-family="Helvetica,sans-Serif" font-size="10.00">VoltageRange::toString</text>
</a>
</g>
</g>
<!-- Node1&#45;&gt;Node8 -->
<g id="edge11" class="edge">
<title>Node1&#45;&gt;Node8</title>
<path fill="none" stroke="#63b8ff" d="M92.75,-49.42C109.6,-42.53 130.15,-34.57 149,-28.5 157.22,-25.85 166.05,-23.34 174.65,-21.05"/>
<polygon fill="#63b8ff" stroke="#63b8ff" points="182.47,-19.02 175.63,-24.52 178.6,-20.03 174.73,-21.03 174.73,-21.03 174.73,-21.03 178.6,-20.03 173.82,-17.55 182.47,-19.02 182.47,-19.02"/>
</g>
<!-- Node3 -->
<g id="node3" class="node">
<title>Node3</title>
<g id="a_node3"><a xlink:href="namespacePokitPro.html#a38ce307b844e4d67d94402b31461f7f4" target="_top" xlink:title="Returns range as a user&#45;friendly string.">
<polygon fill="white" stroke="#666666" points="444.5,-93 343.5,-93 343.5,-74 444.5,-74 444.5,-93"/>
<text text-anchor="middle" x="394" y="-81" font-family="Helvetica,sans-Serif" font-size="10.00">PokitPro::toString</text>
</a>
</g>
</g>
<!-- Node2&#45;&gt;Node3 -->
<g id="edge2" class="edge">
<title>Node2&#45;&gt;Node3</title>
<path fill="none" stroke="#63b8ff" d="M269.01,-110.97C291.22,-106.05 318.49,-100.01 341.79,-94.85"/>
<polygon fill="#63b8ff" stroke="#63b8ff" points="349.85,-93.06 342.82,-98.31 345.94,-93.93 342.04,-94.79 342.04,-94.79 342.04,-94.79 345.94,-93.93 341.26,-91.28 349.85,-93.06 349.85,-93.06"/>
</g>
<!-- Node4 -->
<g id="node4" class="node">
<title>Node4</title>
<g id="a_node4"><a target="_parent" xlink:href="https://doc.qt.io/qt-5/qcoreapplication.html#translate" xlink:title=" ">
<polygon fill="white" stroke="#666666" points="638,-74 487,-74 487,-55 638,-55 638,-74"/>
<text text-anchor="middle" x="562.5" y="-62" font-family="Helvetica,sans-Serif" font-size="10.00">QCoreApplication::translate</text>
</a>
</g>
</g>
<!-- Node3&#45;&gt;Node4 -->
<g id="edge3" class="edge">
<title>Node3&#45;&gt;Node4</title>
<path fill="none" stroke="#63b8ff" d="M444.5,-77.85C455.33,-76.62 467.07,-75.28 478.8,-73.94"/>
<polygon fill="#63b8ff" stroke="#63b8ff" points="486.91,-73.01 479.37,-77.5 482.93,-73.47 478.96,-73.92 478.96,-73.92 478.96,-73.92 482.93,-73.47 478.55,-70.34 486.91,-73.01 486.91,-73.01"/>
</g>
<!-- Node5&#45;&gt;Node3 -->
<g id="edge5" class="edge">
<title>Node5&#45;&gt;Node3</title>
<path fill="none" stroke="#63b8ff" d="M289.14,-83.5C304.25,-83.5 320.32,-83.5 335.19,-83.5"/>
<polygon fill="#63b8ff" stroke="#63b8ff" points="343.31,-83.5 335.31,-87.1 339.31,-83.5 335.31,-83.5 335.31,-83.5 335.31,-83.5 339.31,-83.5 335.31,-79.9 343.31,-83.5 343.31,-83.5"/>
</g>
<!-- Node6 -->
<g id="node6" class="node">
<title>Node6</title>
<g id="a_node6"><a xlink:href="namespacePokitMeter.html#a3c3db7b94b6f44af24f4a23e87a3569e" target="_top" xlink:title="Returns range as a user&#45;friendly string.">
<polygon fill="white" stroke="#666666" points="451,-56 337,-56 337,-37 451,-37 451,-56"/>
<text text-anchor="middle" x="394" y="-44" font-family="Helvetica,sans-Serif" font-size="10.00">PokitMeter::toString</text>
</a>
</g>
</g>
<!-- Node5&#45;&gt;Node6 -->
<g id="edge6" class="edge">
<title>Node5&#45;&gt;Node6</title>
<path fill="none" stroke="#63b8ff" d="M269.01,-73.97C291.22,-69.05 318.49,-63.01 341.79,-57.85"/>
<polygon fill="#63b8ff" stroke="#63b8ff" points="349.85,-56.06 342.82,-61.31 345.94,-56.93 342.04,-57.79 342.04,-57.79 342.04,-57.79 345.94,-56.93 341.26,-54.28 349.85,-56.06 349.85,-56.06"/>
</g>
<!-- Node6&#45;&gt;Node4 -->
<g id="edge7" class="edge">
<title>Node6&#45;&gt;Node4</title>
<path fill="none" stroke="#63b8ff" d="M451.37,-52.59C460.2,-53.55 469.48,-54.55 478.75,-55.55"/>
<polygon fill="#63b8ff" stroke="#63b8ff" points="486.89,-56.43 478.55,-59.15 482.91,-56 478.93,-55.57 478.93,-55.57 478.93,-55.57 482.91,-56 479.32,-51.99 486.89,-56.43 486.89,-56.43"/>
</g>
<!-- Node7&#45;&gt;Node3 -->
<g id="edge9" class="edge">
<title>Node7&#45;&gt;Node3</title>
<path fill="none" stroke="#63b8ff" d="M269.01,-56.03C291.22,-60.95 318.49,-66.99 341.79,-72.15"/>
<polygon fill="#63b8ff" stroke="#63b8ff" points="349.85,-73.94 341.26,-75.72 345.94,-73.07 342.04,-72.21 342.04,-72.21 342.04,-72.21 345.94,-73.07 342.82,-68.69 349.85,-73.94 349.85,-73.94"/>
</g>
<!-- Node7&#45;&gt;Node6 -->
<g id="edge10" class="edge">
<title>Node7&#45;&gt;Node6</title>
<path fill="none" stroke="#63b8ff" d="M297.79,-46.5C308.12,-46.5 318.68,-46.5 328.85,-46.5"/>
<polygon fill="#63b8ff" stroke="#63b8ff" points="336.9,-46.5 328.9,-50.1 332.9,-46.5 328.9,-46.5 328.9,-46.5 328.9,-46.5 332.9,-46.5 328.9,-42.9 336.9,-46.5 336.9,-46.5"/>
</g>
<!-- Node8&#45;&gt;Node3 -->
<g id="edge12" class="edge">
<title>Node8&#45;&gt;Node3</title>
<path fill="none" stroke="#63b8ff" d="M279.09,-19.03C286.71,-21.5 294.25,-24.6 301,-28.5 320.87,-39.97 317.5,-53.41 337,-65.5 340.11,-67.43 343.45,-69.17 346.89,-70.74"/>
<polygon fill="#63b8ff" stroke="#63b8ff" points="354.53,-73.9 345.76,-74.17 350.84,-72.37 347.14,-70.84 347.14,-70.84 347.14,-70.84 350.84,-72.37 348.52,-67.52 354.53,-73.9 354.53,-73.9"/>
</g>
<!-- Node8&#45;&gt;Node6 -->
<g id="edge13" class="edge">
<title>Node8&#45;&gt;Node6</title>
<path fill="none" stroke="#63b8ff" d="M269.01,-19.03C291.22,-23.95 318.49,-29.99 341.79,-35.15"/>
<polygon fill="#63b8ff" stroke="#63b8ff" points="349.85,-36.94 341.26,-38.72 345.94,-36.07 342.04,-35.21 342.04,-35.21 342.04,-35.21 345.94,-36.07 342.82,-31.69 349.85,-36.94 349.85,-36.94"/>
</g>
</g>
</svg>
