<?xml version="1.0" encoding="UTF-8" standalone="no"?>
<!DOCTYPE svg PUBLIC "-//W3C//DTD SVG 1.1//EN"
 "http://www.w3.org/Graphics/SVG/1.1/DTD/svg11.dtd">
<!-- Generated by graphviz version 2.43.0 (0)
 -->
<!-- Title: StatusService::setTorchStatus Pages: 1 -->
<svg width="1029pt" height="341pt"
 viewBox="0.00 0.00 1029.00 341.00" xmlns="http://www.w3.org/2000/svg" xmlns:xlink="http://www.w3.org/1999/xlink">
<g id="graph0" class="graph" transform="scale(1 1) rotate(0) translate(4 337)">
<title>StatusService::setTorchStatus</title>
<!-- Node1 -->
<g id="Node000001" class="node">
<title>Node1</title>
<g id="a_Node000001"><a xlink:title="Set the Pokit device&#39;s torch to status.">
<polygon fill="#999999" stroke="#666666" points="161,-281 0,-281 0,-262 161,-262 161,-281"/>
<text text-anchor="middle" x="80.5" y="-269" font-family="Helvetica,sans-Serif" font-size="10.00">StatusService::setTorchStatus</text>
</a>
</g>
</g>
<!-- Node2 -->
<g id="Node000002" class="node">
<title>Node2</title>
<g id="a_Node000002"><a target="_parent" xlink:href="https://doc.qt.io/qt-5/qlowenergycharacteristic.html#isValid" xlink:title=" ">
<polygon fill="white" stroke="#666666" points="497,-310.5 352,-310.5 352,-280.5 497,-280.5 497,-310.5"/>
<text text-anchor="start" x="360" y="-298.5" font-family="Helvetica,sans-Serif" font-size="10.00">QLowEnergyCharacteristic</text>
<text text-anchor="middle" x="424.5" y="-287.5" font-family="Helvetica,sans-Serif" font-size="10.00">::isValid</text>
</a>
</g>
</g>
<!-- Node1&#45;&gt;Node2 -->
<g id="edge1_Node000001_Node000002" class="edge">
<title>Node1&#45;&gt;Node2</title>
<g id="a_edge1_Node000001_Node000002"><a xlink:title=" ">
<path fill="none" stroke="#63b8ff" d="M161.25,-277.1C216.07,-280.94 288.59,-286.03 343.47,-289.88"/>
<polygon fill="#63b8ff" stroke="#63b8ff" points="351.78,-290.47 343.54,-293.5 347.79,-290.19 343.8,-289.91 343.8,-289.91 343.8,-289.91 347.79,-290.19 344.05,-286.32 351.78,-290.47 351.78,-290.47"/>
</a>
</g>
</g>
<!-- Node3 -->
<g id="Node000003" class="node">
<title>Node3</title>
<g id="a_Node000003"><a xlink:href="classStatusService.html#ae7be4aae021ae50faef48ed2812eb6a7" target="_top" xlink:title="Returns the most recent value of the Status service&#39;s Status characteristic.">
<polygon fill="white" stroke="#666666" points="316,-262 197,-262 197,-243 316,-243 316,-262"/>
<text text-anchor="middle" x="256.5" y="-250" font-family="Helvetica,sans-Serif" font-size="10.00">StatusService::status</text>
</a>
</g>
</g>
<!-- Node1&#45;&gt;Node3 -->
<g id="edge2_Node000001_Node000003" class="edge">
<title>Node1&#45;&gt;Node3</title>
<g id="a_edge2_Node000001_Node000003"><a xlink:title=" ">
<path fill="none" stroke="#63b8ff" d="M161.12,-262.81C170.37,-261.8 179.73,-260.77 188.78,-259.79"/>
<polygon fill="#63b8ff" stroke="#63b8ff" points="196.99,-258.89 189.43,-263.34 193.01,-259.32 189.04,-259.76 189.04,-259.76 189.04,-259.76 193.01,-259.32 188.65,-256.18 196.99,-258.89 196.99,-258.89"/>
</a>
</g>
</g>
<!-- Node3&#45;&gt;Node2 -->
<g id="edge3_Node000003_Node000002" class="edge">
<title>Node3&#45;&gt;Node2</title>
<g id="a_edge3_Node000003_Node000002"><a xlink:title=" ">
<path fill="none" stroke="#63b8ff" d="M294.34,-262.04C312.97,-266.87 336.15,-272.87 357.71,-278.46"/>
<polygon fill="#63b8ff" stroke="#63b8ff" points="365.57,-280.49 356.92,-281.97 361.7,-279.49 357.82,-278.49 357.82,-278.49 357.82,-278.49 361.7,-279.49 358.73,-275 365.57,-280.49 365.57,-280.49"/>
</a>
</g>
</g>
<!-- Node4 -->
<g id="Node000004" class="node">
<title>Node4</title>
<g id="a_Node000004"><a xlink:href="classStatusServicePrivate.html#a3a6ff8ca3e9d7c884b269e52dd43aeb0" target="_top" xlink:title="Parses the Status value into a Status struct.">
<polygon fill="white" stroke="#666666" points="483.5,-224.5 365.5,-224.5 365.5,-194.5 483.5,-194.5 483.5,-224.5"/>
<text text-anchor="start" x="373.5" y="-212.5" font-family="Helvetica,sans-Serif" font-size="10.00">StatusServicePrivate</text>
<text text-anchor="middle" x="424.5" y="-201.5" font-family="Helvetica,sans-Serif" font-size="10.00">::parseStatus</text>
</a>
</g>
</g>
<!-- Node3&#45;&gt;Node4 -->
<g id="edge4_Node000003_Node000004" class="edge">
<title>Node3&#45;&gt;Node4</title>
<g id="a_edge4_Node000003_Node000004"><a xlink:title=" ">
<path fill="none" stroke="#63b8ff" d="M294.34,-242.96C312.97,-238.13 336.15,-232.13 357.71,-226.54"/>
<polygon fill="#63b8ff" stroke="#63b8ff" points="365.57,-224.51 358.73,-230 361.7,-225.51 357.82,-226.51 357.82,-226.51 357.82,-226.51 361.7,-225.51 356.92,-223.03 365.57,-224.51 365.57,-224.51"/>
</a>
</g>
</g>
<!-- Node18 -->
<g id="Node000018" class="node">
<title>Node18</title>
<g id="a_Node000018"><a target="_parent" xlink:href="https://doc.qt.io/qt-5/qlowenergycharacteristic.html#value" xlink:title=" ">
<polygon fill="white" stroke="#666666" points="497,-176.5 352,-176.5 352,-146.5 497,-146.5 497,-176.5"/>
<text text-anchor="start" x="360" y="-164.5" font-family="Helvetica,sans-Serif" font-size="10.00">QLowEnergyCharacteristic</text>
<text text-anchor="middle" x="424.5" y="-153.5" font-family="Helvetica,sans-Serif" font-size="10.00">::value</text>
</a>
</g>
</g>
<!-- Node3&#45;&gt;Node18 -->
<g id="edge25_Node000003_Node000018" class="edge">
<title>Node3&#45;&gt;Node18</title>
<g id="a_edge25_Node000003_Node000018"><a xlink:title=" ">
<path fill="none" stroke="#63b8ff" d="M268.72,-242.86C285.75,-228.66 319.55,-202 352,-185.5 356.11,-183.41 360.45,-181.44 364.87,-179.6"/>
<polygon fill="#63b8ff" stroke="#63b8ff" points="372.36,-176.62 366.25,-182.92 368.64,-178.1 364.92,-179.57 364.92,-179.57 364.92,-179.57 368.64,-178.1 363.59,-176.23 372.36,-176.62 372.36,-176.62"/>
</a>
</g>
</g>
<!-- Node5 -->
<g id="Node000005" class="node">
<title>Node5</title>
<g id="a_Node000005"><a target="_parent" xlink:href="https://doc.qt.io/qt-5/qstring.html#arg-1" xlink:title=" ">
<polygon fill="white" stroke="#666666" points="1002,-268 928,-268 928,-249 1002,-249 1002,-268"/>
<text text-anchor="middle" x="965" y="-256" font-family="Helvetica,sans-Serif" font-size="10.00">QString::arg</text>
</a>
</g>
</g>
<!-- Node4&#45;&gt;Node5 -->
<g id="edge5_Node000004_Node000005" class="edge">
<title>Node4&#45;&gt;Node5</title>
<g id="a_edge5_Node000004_Node000005"><a xlink:title=" ">
<path fill="none" stroke="#63b8ff" d="M457.43,-224.52C469.88,-230.53 484.21,-237.65 497,-244.5 513.33,-253.24 515.12,-260.67 533,-265.5 669.97,-302.53 840.45,-280.87 919.69,-267.14"/>
<polygon fill="#63b8ff" stroke="#63b8ff" points="927.98,-265.68 920.73,-270.62 924.04,-266.37 920.1,-267.07 920.1,-267.07 920.1,-267.07 924.04,-266.37 919.48,-263.53 927.98,-265.68 927.98,-265.68"/>
</a>
</g>
</g>
<!-- Node6 -->
<g id="Node000006" class="node">
<title>Node6</title>
<g id="a_Node000006"><a target="_parent" xlink:href="https://doc.qt.io/qt-5/qbytearray.html#at" xlink:title=" ">
<polygon fill="white" stroke="#666666" points="653,-257 565,-257 565,-238 653,-238 653,-257"/>
<text text-anchor="middle" x="609" y="-245" font-family="Helvetica,sans-Serif" font-size="10.00">QByteArray::at</text>
</a>
</g>
</g>
<!-- Node4&#45;&gt;Node6 -->
<g id="edge6_Node000004_Node000006" class="edge">
<title>Node4&#45;&gt;Node6</title>
<g id="a_edge6_Node000004_Node000006"><a xlink:title=" ">
<path fill="none" stroke="#63b8ff" d="M483.75,-221.63C507.26,-226.52 534.16,-232.12 556.9,-236.86"/>
<polygon fill="#63b8ff" stroke="#63b8ff" points="564.75,-238.5 556.19,-240.39 560.84,-237.68 556.92,-236.86 556.92,-236.86 556.92,-236.86 560.84,-237.68 557.66,-233.34 564.75,-238.5 564.75,-238.5"/>
</a>
</g>
</g>
<!-- Node7 -->
<g id="Node000007" class="node">
<title>Node7</title>
<g id="a_Node000007"><a xlink:href="classAbstractPokitServicePrivate.html#af8b480a950244540bfff7fc4b476a0ef" target="_top" xlink:title="Returns false if data is smaller than minSize, otherwise returns failOnMax if data is bigger than max...">
<polygon fill="white" stroke="#666666" points="685,-181.5 533,-181.5 533,-151.5 685,-151.5 685,-181.5"/>
<text text-anchor="start" x="541" y="-169.5" font-family="Helvetica,sans-Serif" font-size="10.00">AbstractPokitServicePrivate</text>
<text text-anchor="middle" x="609" y="-158.5" font-family="Helvetica,sans-Serif" font-size="10.00">::checkSize</text>
</a>
</g>
</g>
<!-- Node4&#45;&gt;Node7 -->
<g id="edge7_Node000004_Node000007" class="edge">
<title>Node4&#45;&gt;Node7</title>
<g id="a_edge7_Node000004_Node000007"><a xlink:title=" ">
<path fill="none" stroke="#63b8ff" d="M483.75,-195.78C500.48,-191.83 518.93,-187.49 536.37,-183.38"/>
<polygon fill="#63b8ff" stroke="#63b8ff" points="544.31,-181.51 537.34,-186.85 540.41,-182.42 536.52,-183.34 536.52,-183.34 536.52,-183.34 540.41,-182.42 535.69,-179.84 544.31,-181.51 544.31,-181.51"/>
</a>
</g>
</g>
<!-- Node8 -->
<g id="Node000008" class="node">
<title>Node8</title>
<g id="a_Node000008"><a target="_parent" xlink:href="https://doc.qt.io/qt-5/qbytearray.html#mid" xlink:title=" ">
<polygon fill="white" stroke="#666666" points="845.5,-257 748.5,-257 748.5,-238 845.5,-238 845.5,-257"/>
<text text-anchor="middle" x="797" y="-245" font-family="Helvetica,sans-Serif" font-size="10.00">QByteArray::mid</text>
</a>
</g>
</g>
<!-- Node4&#45;&gt;Node8 -->
<g id="edge20_Node000004_Node000008" class="edge">
<title>Node4&#45;&gt;Node8</title>
<g id="a_edge20_Node000004_Node000008"><a xlink:title=" ">
<path fill="none" stroke="#63b8ff" d="M483.63,-212.15C536.32,-214.93 616.06,-220.1 685,-228.5 703.09,-230.71 722.73,-233.82 740.38,-236.9"/>
<polygon fill="#63b8ff" stroke="#63b8ff" points="748.34,-238.3 739.84,-240.46 744.4,-237.61 740.46,-236.91 740.46,-236.91 740.46,-236.91 744.4,-237.61 741.09,-233.37 748.34,-238.3 748.34,-238.3"/>
</a>
</g>
</g>
<!-- Node9 -->
<g id="Node000009" class="node">
<title>Node9</title>
<g id="a_Node000009"><a target="_parent" xlink:href="https://doc.qt.io/qt-5/qbytearray.html#size" xlink:title=" ">
<polygon fill="white" stroke="#666666" points="1014,-83 916,-83 916,-64 1014,-64 1014,-83"/>
<text text-anchor="middle" x="965" y="-71" font-family="Helvetica,sans-Serif" font-size="10.00">QByteArray::size</text>
</a>
</g>
</g>
<!-- Node4&#45;&gt;Node9 -->
<g id="edge21_Node000004_Node000009" class="edge">
<title>Node4&#45;&gt;Node9</title>
<g id="a_edge21_Node000004_Node000009"><a xlink:title=" ">
<path fill="none" stroke="#63b8ff" d="M483.73,-194.85C488.54,-192.23 493.05,-189.14 497,-185.5 526.86,-157.97 501.29,-126.88 533,-101.5 647.27,-10.03 837.87,-41.78 921.96,-62.01"/>
<polygon fill="#63b8ff" stroke="#63b8ff" points="929.75,-63.93 921.13,-65.51 925.87,-62.97 921.99,-62.02 921.99,-62.02 921.99,-62.02 925.87,-62.97 922.85,-58.52 929.75,-63.93 929.75,-63.93"/>
</a>
</g>
</g>
<!-- Node15 -->
<g id="Node000015" class="node">
<title>Node15</title>
<g id="a_Node000015"><a target="_parent" xlink:href="https://doc.qt.io/qt-5/qobject.html#tr" xlink:title=" ">
<polygon fill="white" stroke="#666666" points="831.5,-95 762.5,-95 762.5,-76 831.5,-76 831.5,-95"/>
<text text-anchor="middle" x="797" y="-83" font-family="Helvetica,sans-Serif" font-size="10.00">QObject::tr</text>
</a>
</g>
</g>
<!-- Node4&#45;&gt;Node15 -->
<g id="edge24_Node000004_Node000015" class="edge">
<title>Node4&#45;&gt;Node15</title>
<g id="a_edge24_Node000004_Node000015"><a xlink:title=" ">
<path fill="none" stroke="#63b8ff" d="M480.86,-194.4C486.53,-191.84 492.02,-188.9 497,-185.5 517.59,-171.45 511.74,-155.51 533,-142.5 606.1,-97.75 637.08,-116.92 721,-99.5 731.75,-97.27 743.4,-95.01 754.24,-92.99"/>
<polygon fill="#63b8ff" stroke="#63b8ff" points="762.34,-91.48 755.13,-96.48 758.41,-92.21 754.48,-92.94 754.48,-92.94 754.48,-92.94 758.41,-92.21 753.82,-89.4 762.34,-91.48 762.34,-91.48"/>
</a>
</g>
</g>
<!-- Node16 -->
<g id="Node000016" class="node">
<title>Node16</title>
<g id="a_Node000016"><a target="_parent" xlink:href="https://doc.qt.io/qt-5/qbytearray.html#constData" xlink:title=" ">
<polygon fill="white" stroke="#666666" points="673,-19 545,-19 545,0 673,0 673,-19"/>
<text text-anchor="middle" x="609" y="-7" font-family="Helvetica,sans-Serif" font-size="10.00">QByteArray::constData</text>
</a>
</g>
</g>
<!-- Node4&#45;&gt;Node16 -->
<g id="edge19_Node000004_Node000016" class="edge">
<title>Node4&#45;&gt;Node16</title>
<g id="a_edge19_Node000004_Node000016"><a xlink:title=" ">
<path fill="none" stroke="#63b8ff" d="M483.74,-195.94C488.67,-193.1 493.2,-189.66 497,-185.5 543.8,-134.22 485.84,-84.45 533,-33.5 537.02,-29.15 541.83,-25.59 547.04,-22.67"/>
<polygon fill="#63b8ff" stroke="#63b8ff" points="554.37,-19.08 548.77,-25.83 550.78,-20.84 547.19,-22.6 547.19,-22.6 547.19,-22.6 550.78,-20.84 545.6,-19.37 554.37,-19.08 554.37,-19.08"/>
</a>
</g>
</g>
<!-- Node17 -->
<g id="Node000017" class="node">
<title>Node17</title>
<g id="a_Node000017"><a xlink:href="classStatusService.html#aac79e97cb114be25b2a6771d915f132d" target="_top" xlink:title="Returns a string version of the status enum label.">
<polygon fill="white" stroke="#666666" points="673,-333 545,-333 545,-314 673,-314 673,-333"/>
<text text-anchor="middle" x="609" y="-321" font-family="Helvetica,sans-Serif" font-size="10.00">StatusService::toString</text>
</a>
</g>
</g>
<!-- Node4&#45;&gt;Node17 -->
<g id="edge22_Node000004_Node000017" class="edge">
<title>Node4&#45;&gt;Node17</title>
<g id="a_edge22_Node000004_Node000017"><a xlink:title=" ">
<path fill="none" stroke="#63b8ff" d="M474.87,-224.52C482.79,-228.29 490.51,-232.9 497,-238.5 520.84,-259.06 508.4,-279.86 533,-299.5 538.81,-304.13 545.53,-307.88 552.51,-310.91"/>
<polygon fill="#63b8ff" stroke="#63b8ff" points="560.17,-313.93 551.4,-314.35 556.44,-312.46 552.72,-311 552.72,-311 552.72,-311 556.44,-312.46 554.04,-307.65 560.17,-313.93 560.17,-313.93"/>
</a>
</g>
</g>
<!-- Node7&#45;&gt;Node5 -->
<g id="edge8_Node000007_Node000005" class="edge">
<title>Node7&#45;&gt;Node5</title>
<g id="a_edge8_Node000007_Node000005"><a xlink:title=" ">
<path fill="none" stroke="#63b8ff" d="M676.76,-181.54C742,-196.37 836.66,-218.25 873,-228.5 891.71,-233.78 912.31,-240.49 929.16,-246.23"/>
<polygon fill="#63b8ff" stroke="#63b8ff" points="937.11,-248.95 928.38,-249.76 933.33,-247.66 929.55,-246.36 929.55,-246.36 929.55,-246.36 933.33,-247.66 930.71,-242.95 937.11,-248.95 937.11,-248.95"/>
</a>
</g>
</g>
<!-- Node7&#45;&gt;Node8 -->
<g id="edge9_Node000007_Node000008" class="edge">
<title>Node7&#45;&gt;Node8</title>
<g id="a_edge9_Node000007_Node000008"><a xlink:title=" ">
<path fill="none" stroke="#63b8ff" d="M655.4,-181.6C665.41,-185.6 675.77,-190.27 685,-195.5 702.64,-205.48 703.07,-214.04 721,-223.5 729.87,-228.18 739.82,-232.15 749.5,-235.43"/>
<polygon fill="#63b8ff" stroke="#63b8ff" points="757.18,-237.92 748.46,-238.88 753.37,-236.68 749.57,-235.45 749.57,-235.45 749.57,-235.45 753.37,-236.68 750.68,-232.03 757.18,-237.92 757.18,-237.92"/>
</a>
</g>
</g>
<!-- Node7&#45;&gt;Node9 -->
<g id="edge10_Node000007_Node000009" class="edge">
<title>Node7&#45;&gt;Node9</title>
<g id="a_edge10_Node000007_Node000009"><a xlink:title=" ">
<path fill="none" stroke="#63b8ff" d="M679.92,-151.48C733.17,-139.63 808.11,-122.05 873,-103.5 889.22,-98.86 892.99,-96.79 909,-91.5 914.71,-89.62 920.75,-87.63 926.66,-85.69"/>
<polygon fill="#63b8ff" stroke="#63b8ff" points="934.59,-83.09 928.11,-89 930.79,-84.34 926.99,-85.58 926.99,-85.58 926.99,-85.58 930.79,-84.34 925.87,-82.16 934.59,-83.09 934.59,-83.09"/>
</a>
</g>
</g>
<!-- Node10 -->
<g id="Node000010" class="node">
<title>Node10</title>
<g id="a_Node000010"><a xlink:href="classAbstractPokitServicePrivate.html#af748600fc201fe47f29b58e8e93179d8" target="_top" xlink:title="Returns up to maxSize bytes of data as a human readable hexadecimal string.">
<polygon fill="white" stroke="#666666" points="873,-181.5 721,-181.5 721,-151.5 873,-151.5 873,-181.5"/>
<text text-anchor="start" x="729" y="-169.5" font-family="Helvetica,sans-Serif" font-size="10.00">AbstractPokitServicePrivate</text>
<text text-anchor="middle" x="797" y="-158.5" font-family="Helvetica,sans-Serif" font-size="10.00">::toHexString</text>
</a>
</g>
</g>
<!-- Node7&#45;&gt;Node10 -->
<g id="edge11_Node000007_Node000010" class="edge">
<title>Node7&#45;&gt;Node10</title>
<g id="a_edge11_Node000007_Node000010"><a xlink:title=" ">
<path fill="none" stroke="#63b8ff" d="M685.12,-166.5C694.24,-166.5 703.6,-166.5 712.84,-166.5"/>
<polygon fill="#63b8ff" stroke="#63b8ff" points="720.9,-166.5 712.9,-170.1 716.9,-166.5 712.9,-166.5 712.9,-166.5 712.9,-166.5 716.9,-166.5 712.9,-162.9 720.9,-166.5 720.9,-166.5"/>
</a>
</g>
</g>
<!-- Node7&#45;&gt;Node15 -->
<g id="edge18_Node000007_Node000015" class="edge">
<title>Node7&#45;&gt;Node15</title>
<g id="a_edge18_Node000007_Node000015"><a xlink:title=" ">
<path fill="none" stroke="#63b8ff" d="M636.33,-151.41C658.46,-139.12 691.17,-121.83 721,-109.5 731.67,-105.09 743.47,-100.97 754.49,-97.44"/>
<polygon fill="#63b8ff" stroke="#63b8ff" points="762.35,-94.97 755.79,-100.8 758.53,-96.17 754.71,-97.37 754.71,-97.37 754.71,-97.37 758.53,-96.17 753.64,-93.93 762.35,-94.97 762.35,-94.97"/>
</a>
</g>
</g>
<!-- Node10&#45;&gt;Node5 -->
<g id="edge12_Node000010_Node000005" class="edge">
<title>Node10&#45;&gt;Node5</title>
<g id="a_edge12_Node000010_Node000005"><a xlink:title=" ">
<path fill="none" stroke="#63b8ff" d="M847.89,-181.61C856.68,-185.41 865.43,-190.01 873,-195.5 893.46,-210.32 888.27,-225.05 909,-239.5 912.57,-241.99 916.5,-244.18 920.57,-246.1"/>
<polygon fill="#63b8ff" stroke="#63b8ff" points="927.99,-249.28 919.21,-249.44 924.31,-247.7 920.63,-246.13 920.63,-246.13 920.63,-246.13 924.31,-247.7 922.05,-242.82 927.99,-249.28 927.99,-249.28"/>
</a>
</g>
</g>
<!-- Node10&#45;&gt;Node9 -->
<g id="edge16_Node000010_Node000009" class="edge">
<title>Node10&#45;&gt;Node9</title>
<g id="a_edge16_Node000010_Node000009"><a xlink:title=" ">
<path fill="none" stroke="#63b8ff" d="M848.38,-151.36C857.03,-147.57 865.6,-142.99 873,-137.5 893.86,-122.04 887.74,-106.4 909,-91.5 911.73,-89.59 914.68,-87.87 917.74,-86.32"/>
<polygon fill="#63b8ff" stroke="#63b8ff" points="925.04,-83.03 919.23,-89.6 921.39,-84.67 917.75,-86.32 917.75,-86.32 917.75,-86.32 921.39,-84.67 916.27,-83.03 925.04,-83.03 925.04,-83.03"/>
</a>
</g>
</g>
<!-- Node11 -->
<g id="Node000011" class="node">
<title>Node11</title>
<g id="a_Node000011"><a target="_parent" xlink:href="https://doc.qt.io/qt-5/qstring.html#fromLatin1" xlink:title=" ">
<polygon fill="white" stroke="#666666" points="1021,-194 909,-194 909,-175 1021,-175 1021,-194"/>
<text text-anchor="middle" x="965" y="-182" font-family="Helvetica,sans-Serif" font-size="10.00">QString::fromLatin1</text>
</a>
</g>
</g>
<!-- Node10&#45;&gt;Node11 -->
<g id="edge13_Node000010_Node000011" class="edge">
<title>Node10&#45;&gt;Node11</title>
<g id="a_edge13_Node000010_Node000011"><a xlink:title=" ">
<path fill="none" stroke="#63b8ff" d="M873.23,-174.66C882.42,-175.65 891.75,-176.67 900.74,-177.64"/>
<polygon fill="#63b8ff" stroke="#63b8ff" points="908.9,-178.53 900.56,-181.24 904.92,-178.09 900.94,-177.66 900.94,-177.66 900.94,-177.66 904.92,-178.09 901.33,-174.08 908.9,-178.53 908.9,-178.53"/>
</a>
</g>
</g>
<!-- Node12 -->
<g id="Node000012" class="node">
<title>Node12</title>
<g id="a_Node000012"><a target="_parent" xlink:href="https://doc.qt.io/qt-5/qbytearray.html#left" xlink:title=" ">
<polygon fill="white" stroke="#666666" points="1012,-157 918,-157 918,-138 1012,-138 1012,-157"/>
<text text-anchor="middle" x="965" y="-145" font-family="Helvetica,sans-Serif" font-size="10.00">QByteArray::left</text>
</a>
</g>
</g>
<!-- Node10&#45;&gt;Node12 -->
<g id="edge14_Node000010_Node000012" class="edge">
<title>Node10&#45;&gt;Node12</title>
<g id="a_edge14_Node000010_Node000012"><a xlink:title=" ">
<path fill="none" stroke="#63b8ff" d="M873.23,-157.89C885.38,-156.5 897.75,-155.08 909.3,-153.76"/>
<polygon fill="#63b8ff" stroke="#63b8ff" points="917.54,-152.82 910,-157.3 913.56,-153.27 909.59,-153.73 909.59,-153.73 909.59,-153.73 913.56,-153.27 909.18,-150.15 917.54,-152.82 917.54,-152.82"/>
</a>
</g>
</g>
<!-- Node13 -->
<g id="Node000013" class="node">
<title>Node13</title>
<g id="a_Node000013"><a target="_parent" xlink:href="https://doc.qt.io/qt-5/qbytearray.html#right" xlink:title=" ">
<polygon fill="white" stroke="#666666" points="1015.5,-120 914.5,-120 914.5,-101 1015.5,-101 1015.5,-120"/>
<text text-anchor="middle" x="965" y="-108" font-family="Helvetica,sans-Serif" font-size="10.00">QByteArray::right</text>
</a>
</g>
</g>
<!-- Node10&#45;&gt;Node13 -->
<g id="edge15_Node000010_Node000013" class="edge">
<title>Node10&#45;&gt;Node13</title>
<g id="a_edge15_Node000010_Node000013"><a xlink:title=" ">
<path fill="none" stroke="#63b8ff" d="M841.44,-151.47C861.92,-144.43 886.69,-135.97 909,-128.5 914.7,-126.59 920.74,-124.59 926.64,-122.65"/>
<polygon fill="#63b8ff" stroke="#63b8ff" points="934.58,-120.05 928.1,-125.96 930.78,-121.3 926.97,-122.54 926.97,-122.54 926.97,-122.54 930.78,-121.3 925.85,-119.12 934.58,-120.05 934.58,-120.05"/>
</a>
</g>
</g>
<!-- Node14 -->
<g id="Node000014" class="node">
<title>Node14</title>
<g id="a_Node000014"><a target="_parent" xlink:href="https://doc.qt.io/qt-5/qbytearray.html#toHex" xlink:title=" ">
<polygon fill="white" stroke="#666666" points="1018.5,-231 911.5,-231 911.5,-212 1018.5,-212 1018.5,-231"/>
<text text-anchor="middle" x="965" y="-219" font-family="Helvetica,sans-Serif" font-size="10.00">QByteArray::toHex</text>
</a>
</g>
</g>
<!-- Node10&#45;&gt;Node14 -->
<g id="edge17_Node000010_Node000014" class="edge">
<title>Node10&#45;&gt;Node14</title>
<g id="a_edge17_Node000010_Node000014"><a xlink:title=" ">
<path fill="none" stroke="#63b8ff" d="M843.36,-181.53C869.69,-190.25 902.44,-201.1 927.17,-209.3"/>
<polygon fill="#63b8ff" stroke="#63b8ff" points="934.9,-211.86 926.17,-212.76 931.1,-210.6 927.3,-209.34 927.3,-209.34 927.3,-209.34 931.1,-210.6 928.43,-205.92 934.9,-211.86 934.9,-211.86"/>
</a>
</g>
</g>
<!-- Node17&#45;&gt;Node3 -->
<g id="edge23_Node000017_Node000003" class="edge">
<title>Node17&#45;&gt;Node3</title>
<g id="a_edge23_Node000017_Node000003"><a xlink:title=" ">
<path fill="none" stroke="#63b8ff" d="M569.18,-313.92C557.22,-310.22 544.25,-305.43 533,-299.5 515.07,-290.04 515.9,-278.83 497,-271.5 441.56,-249.99 373.6,-246.55 324.25,-247.72"/>
<polygon fill="#63b8ff" stroke="#63b8ff" points="316.18,-247.95 324.07,-244.12 320.18,-247.83 324.18,-247.72 324.18,-247.72 324.18,-247.72 320.18,-247.83 324.28,-251.32 316.18,-247.95 316.18,-247.95"/>
</a>
</g>
</g>
</g>
</svg>
