<?xml version="1.0" encoding="UTF-8" standalone="no"?>
<!DOCTYPE svg PUBLIC "-//W3C//DTD SVG 1.1//EN"
 "http://www.w3.org/Graphics/SVG/1.1/DTD/svg11.dtd">
<!-- Generated by graphviz version 2.43.0 (0)
 -->
<!-- Title: AbstractCommand::parseNumber Pages: 1 -->
<svg width="348pt" height="508pt"
 viewBox="0.00 0.00 348.00 508.00" xmlns="http://www.w3.org/2000/svg" xmlns:xlink="http://www.w3.org/1999/xlink">
<g id="graph0" class="graph" transform="scale(1 1) rotate(0) translate(4 504)">
<title>AbstractCommand::parseNumber</title>
<!-- Node1 -->
<g id="Node000001" class="node">
<title>Node1</title>
<g id="a_Node000001"><a xlink:title="Returns value as an integer multiple of the ratio R, as number of type T.">
<polygon fill="#999999" stroke="#666666" points="179,-259 0,-259 0,-240 179,-240 179,-259"/>
<text text-anchor="middle" x="89.5" y="-247" font-family="Helvetica,sans-Serif" font-size="10.00">AbstractCommand::parseNumber</text>
</a>
</g>
</g>
<!-- Node2 -->
<g id="Node000002" class="node">
<title>Node2</title>
<g id="a_Node000002"><a target="_parent" xlink:href="https://doc.qt.io/qt-5/qstring.html#at" xlink:title=" ">
<polygon fill="white" stroke="#666666" points="311.5,-500 243.5,-500 243.5,-481 311.5,-481 311.5,-500"/>
<text text-anchor="middle" x="277.5" y="-488" font-family="Helvetica,sans-Serif" font-size="10.00">QString::at</text>
</a>
</g>
</g>
<!-- Node1&#45;&gt;Node2 -->
<g id="edge1_Node000001_Node000002" class="edge">
<title>Node1&#45;&gt;Node2</title>
<g id="a_edge1_Node000001_Node000002"><a xlink:title=" ">
<path fill="none" stroke="#63b8ff" d="M93.05,-259.27C102.62,-293.99 139.77,-412.51 215,-472.5 220.94,-477.24 228.09,-480.73 235.38,-483.3"/>
<polygon fill="#63b8ff" stroke="#63b8ff" points="243.29,-485.75 234.58,-486.82 239.47,-484.56 235.65,-483.38 235.65,-483.38 235.65,-483.38 239.47,-484.56 236.71,-479.94 243.29,-485.75 243.29,-485.75"/>
</a>
</g>
</g>
<!-- Node3 -->
<g id="Node000003" class="node">
<title>Node3</title>
<g id="a_Node000003"><a target="_parent" xlink:href="https://doc.qt.io/qt-5/qstring.html#back" xlink:title=" ">
<polygon fill="white" stroke="#666666" points="318.5,-463 236.5,-463 236.5,-444 318.5,-444 318.5,-463"/>
<text text-anchor="middle" x="277.5" y="-451" font-family="Helvetica,sans-Serif" font-size="10.00">QString::back</text>
</a>
</g>
</g>
<!-- Node1&#45;&gt;Node3 -->
<g id="edge2_Node000001_Node000003" class="edge">
<title>Node1&#45;&gt;Node3</title>
<g id="a_edge2_Node000001_Node000003"><a xlink:title=" ">
<path fill="none" stroke="#63b8ff" d="M94.21,-259.34C106.39,-290.29 148.26,-386.55 215,-435.5 219.12,-438.52 223.74,-441.04 228.55,-443.14"/>
<polygon fill="#63b8ff" stroke="#63b8ff" points="236.22,-446.1 227.47,-446.57 232.49,-444.66 228.76,-443.22 228.76,-443.22 228.76,-443.22 232.49,-444.66 230.06,-439.86 236.22,-446.1 236.22,-446.1"/>
</a>
</g>
</g>
<!-- Node4 -->
<g id="Node000004" class="node">
<title>Node4</title>
<g id="a_Node000004"><a target="_parent" xlink:href="https://doc.qt.io/qt-5/qstring.html#chop" xlink:title=" ">
<polygon fill="white" stroke="#666666" points="318.5,-426 236.5,-426 236.5,-407 318.5,-407 318.5,-426"/>
<text text-anchor="middle" x="277.5" y="-414" font-family="Helvetica,sans-Serif" font-size="10.00">QString::chop</text>
</a>
</g>
</g>
<!-- Node1&#45;&gt;Node4 -->
<g id="edge3_Node000001_Node000004" class="edge">
<title>Node1&#45;&gt;Node4</title>
<g id="a_edge3_Node000001_Node000004"><a xlink:title=" ">
<path fill="none" stroke="#63b8ff" d="M95.8,-259.2C110.81,-285.73 156.34,-360.09 215,-398.5 219.21,-401.26 223.86,-403.61 228.66,-405.6"/>
<polygon fill="#63b8ff" stroke="#63b8ff" points="236.28,-408.45 227.52,-409.02 232.53,-407.05 228.78,-405.65 228.78,-405.65 228.78,-405.65 232.53,-407.05 230.04,-402.27 236.28,-408.45 236.28,-408.45"/>
</a>
</g>
</g>
<!-- Node5 -->
<g id="Node000005" class="node">
<title>Node5</title>
<g id="a_Node000005"><a target="_parent" xlink:href="https://doc.qt.io/qt-5/qmap.html#constEnd" xlink:title=" ">
<polygon fill="white" stroke="#666666" points="325,-389 230,-389 230,-370 325,-370 325,-389"/>
<text text-anchor="middle" x="277.5" y="-377" font-family="Helvetica,sans-Serif" font-size="10.00">QMap::constEnd</text>
</a>
</g>
</g>
<!-- Node1&#45;&gt;Node5 -->
<g id="edge4_Node000001_Node000005" class="edge">
<title>Node1&#45;&gt;Node5</title>
<g id="a_edge4_Node000001_Node000005"><a xlink:title=" ">
<path fill="none" stroke="#63b8ff" d="M98.48,-259.17C116.79,-280.75 164.21,-333.18 215,-361.5 218.77,-363.6 222.8,-365.48 226.94,-367.15"/>
<polygon fill="#63b8ff" stroke="#63b8ff" points="234.45,-369.94 225.7,-370.53 230.7,-368.55 226.95,-367.16 226.95,-367.16 226.95,-367.16 230.7,-368.55 228.21,-363.78 234.45,-369.94 234.45,-369.94"/>
</a>
</g>
</g>
<!-- Node6 -->
<g id="Node000006" class="node">
<title>Node6</title>
<g id="a_Node000006"><a target="_parent" xlink:href="https://doc.qt.io/qt-5/qmap.html#constFind" xlink:title=" ">
<polygon fill="white" stroke="#666666" points="326.5,-352 228.5,-352 228.5,-333 326.5,-333 326.5,-352"/>
<text text-anchor="middle" x="277.5" y="-340" font-family="Helvetica,sans-Serif" font-size="10.00">QMap::constFind</text>
</a>
</g>
</g>
<!-- Node1&#45;&gt;Node6 -->
<g id="edge5_Node000001_Node000006" class="edge">
<title>Node1&#45;&gt;Node6</title>
<g id="a_edge5_Node000001_Node000006"><a xlink:title=" ">
<path fill="none" stroke="#63b8ff" d="M103.69,-259.03C125.77,-274.6 172.02,-305.64 215,-324.5 219.93,-326.66 225.19,-328.65 230.48,-330.45"/>
<polygon fill="#63b8ff" stroke="#63b8ff" points="238.23,-332.96 229.51,-333.92 234.42,-331.73 230.61,-330.49 230.61,-330.49 230.61,-330.49 234.42,-331.73 231.72,-327.07 238.23,-332.96 238.23,-332.96"/>
</a>
</g>
</g>
<!-- Node7 -->
<g id="Node000007" class="node">
<title>Node7</title>
<g id="a_Node000007"><a target="_parent" xlink:href="https://doc.qt.io/qt-5/qstring.html#endsWith" xlink:title=" ">
<polygon fill="white" stroke="#666666" points="329.5,-315 225.5,-315 225.5,-296 329.5,-296 329.5,-315"/>
<text text-anchor="middle" x="277.5" y="-303" font-family="Helvetica,sans-Serif" font-size="10.00">QString::endsWith</text>
</a>
</g>
</g>
<!-- Node1&#45;&gt;Node7 -->
<g id="edge6_Node000001_Node000007" class="edge">
<title>Node1&#45;&gt;Node7</title>
<g id="a_edge6_Node000001_Node000007"><a xlink:title=" ">
<path fill="none" stroke="#63b8ff" d="M121.42,-259.05C146.6,-266.79 183.06,-277.95 215,-287.5 221.67,-289.49 228.74,-291.59 235.64,-293.61"/>
<polygon fill="#63b8ff" stroke="#63b8ff" points="243.6,-295.95 234.92,-297.15 239.77,-294.82 235.93,-293.7 235.93,-293.7 235.93,-293.7 239.77,-294.82 236.94,-290.24 243.6,-295.95 243.6,-295.95"/>
</a>
</g>
</g>
<!-- Node8 -->
<g id="Node000008" class="node">
<title>Node8</title>
<g id="a_Node000008"><a target="_parent" xlink:href="https://doc.qt.io/qt-5/qstring.html#isEmpty" xlink:title=" ">
<polygon fill="white" stroke="#666666" points="326.5,-278 228.5,-278 228.5,-259 326.5,-259 326.5,-278"/>
<text text-anchor="middle" x="277.5" y="-266" font-family="Helvetica,sans-Serif" font-size="10.00">QString::isEmpty</text>
</a>
</g>
</g>
<!-- Node1&#45;&gt;Node8 -->
<g id="edge7_Node000001_Node000008" class="edge">
<title>Node1&#45;&gt;Node8</title>
<g id="a_edge7_Node000001_Node000008"><a xlink:title=" ">
<path fill="none" stroke="#63b8ff" d="M179.14,-258.55C192.96,-259.97 206.9,-261.39 219.75,-262.7"/>
<polygon fill="#63b8ff" stroke="#63b8ff" points="228.03,-263.55 219.7,-266.32 224.05,-263.14 220.07,-262.74 220.07,-262.74 220.07,-262.74 224.05,-263.14 220.43,-259.15 228.03,-263.55 228.03,-263.55"/>
</a>
</g>
</g>
<!-- Node9 -->
<g id="Node000009" class="node">
<title>Node9</title>
<g id="a_Node000009"><a xlink:href="structRatio.html#abbfb48e8ebeec5666385f38b31f94215" target="_top" xlink:title="Returns true if both num and den are non&#45;zero.">
<polygon fill="white" stroke="#666666" points="317.5,-241 237.5,-241 237.5,-222 317.5,-222 317.5,-241"/>
<text text-anchor="middle" x="277.5" y="-229" font-family="Helvetica,sans-Serif" font-size="10.00">Ratio::isValid</text>
</a>
</g>
</g>
<!-- Node1&#45;&gt;Node9 -->
<g id="edge8_Node000001_Node000009" class="edge">
<title>Node1&#45;&gt;Node9</title>
<g id="a_edge8_Node000001_Node000009"><a xlink:title=" ">
<path fill="none" stroke="#63b8ff" d="M179.14,-240.92C196.35,-239.26 213.76,-237.57 229.01,-236.1"/>
<polygon fill="#63b8ff" stroke="#63b8ff" points="237.24,-235.3 229.62,-239.65 233.26,-235.68 229.28,-236.07 229.28,-236.07 229.28,-236.07 233.26,-235.68 228.93,-232.49 237.24,-235.3 237.24,-235.3"/>
</a>
</g>
</g>
<!-- Node10 -->
<g id="Node000010" class="node">
<title>Node10</title>
<g id="a_Node000010"><a target="_parent" xlink:href="https://doc.qt.io/qt-5/qstring.html#length" xlink:title=" ">
<polygon fill="white" stroke="#666666" points="322,-204 233,-204 233,-185 322,-185 322,-204"/>
<text text-anchor="middle" x="277.5" y="-192" font-family="Helvetica,sans-Serif" font-size="10.00">QString::length</text>
</a>
</g>
</g>
<!-- Node1&#45;&gt;Node10 -->
<g id="edge9_Node000001_Node000010" class="edge">
<title>Node1&#45;&gt;Node10</title>
<g id="a_edge9_Node000001_Node000010"><a xlink:title=" ">
<path fill="none" stroke="#63b8ff" d="M122.9,-239.92C154.41,-230.6 202.36,-216.42 236.29,-206.39"/>
<polygon fill="#63b8ff" stroke="#63b8ff" points="244.16,-204.06 237.51,-209.78 240.33,-205.2 236.49,-206.33 236.49,-206.33 236.49,-206.33 240.33,-205.2 235.47,-202.88 244.16,-204.06 244.16,-204.06"/>
</a>
</g>
</g>
<!-- Node11 -->
<g id="Node000011" class="node">
<title>Node11</title>
<g id="a_Node000011"><a target="_parent" xlink:href="https://doc.qt.io/qt-5/qchar.html#QChar" xlink:title=" ">
<polygon fill="white" stroke="#666666" points="319,-167 236,-167 236,-148 319,-148 319,-167"/>
<text text-anchor="middle" x="277.5" y="-155" font-family="Helvetica,sans-Serif" font-size="10.00">QChar::QChar</text>
</a>
</g>
</g>
<!-- Node1&#45;&gt;Node11 -->
<g id="edge10_Node000001_Node000011" class="edge">
<title>Node1&#45;&gt;Node11</title>
<g id="a_edge10_Node000001_Node000011"><a xlink:title=" ">
<path fill="none" stroke="#63b8ff" d="M104.49,-239.84C126.95,-224.67 172.81,-195.09 215,-176.5 220.68,-174 226.79,-171.69 232.88,-169.6"/>
<polygon fill="#63b8ff" stroke="#63b8ff" points="240.54,-167.08 234.06,-173 236.74,-168.33 232.94,-169.58 232.94,-169.58 232.94,-169.58 236.74,-168.33 231.82,-166.16 240.54,-167.08 240.54,-167.08"/>
</a>
</g>
</g>
<!-- Node12 -->
<g id="Node000012" class="node">
<title>Node12</title>
<g id="a_Node000012"><a target="_parent" xlink:href="https://doc.qt.io/qt-5/qstring.html#size" xlink:title=" ">
<polygon fill="white" stroke="#666666" points="316.5,-130 238.5,-130 238.5,-111 316.5,-111 316.5,-130"/>
<text text-anchor="middle" x="277.5" y="-118" font-family="Helvetica,sans-Serif" font-size="10.00">QString::size</text>
</a>
</g>
</g>
<!-- Node1&#45;&gt;Node12 -->
<g id="edge11_Node000001_Node000012" class="edge">
<title>Node1&#45;&gt;Node12</title>
<g id="a_edge11_Node000001_Node000012"><a xlink:title=" ">
<path fill="none" stroke="#63b8ff" d="M98.82,-239.75C117.48,-218.48 164.95,-167.6 215,-139.5 219.84,-136.78 225.13,-134.4 230.49,-132.33"/>
<polygon fill="#63b8ff" stroke="#63b8ff" points="238.38,-129.52 232.05,-135.6 234.61,-130.86 230.84,-132.2 230.84,-132.2 230.84,-132.2 234.61,-130.86 229.63,-128.81 238.38,-129.52 238.38,-129.52"/>
</a>
</g>
</g>
<!-- Node13 -->
<g id="Node000013" class="node">
<title>Node13</title>
<g id="a_Node000013"><a target="_parent" xlink:href="https://doc.qt.io/qt-5/qlocale.html#toDouble" xlink:title=" ">
<polygon fill="white" stroke="#666666" points="330.5,-93 224.5,-93 224.5,-74 330.5,-74 330.5,-93"/>
<text text-anchor="middle" x="277.5" y="-81" font-family="Helvetica,sans-Serif" font-size="10.00">QLocale::toDouble</text>
</a>
</g>
</g>
<!-- Node1&#45;&gt;Node13 -->
<g id="edge12_Node000001_Node000013" class="edge">
<title>Node1&#45;&gt;Node13</title>
<g id="a_edge12_Node000001_Node000013"><a xlink:title=" ">
<path fill="none" stroke="#63b8ff" d="M95.87,-239.98C111.05,-213.92 156.96,-140.85 215,-102.5 218.61,-100.11 222.54,-98.01 226.61,-96.17"/>
<polygon fill="#63b8ff" stroke="#63b8ff" points="234.03,-93.12 228,-99.49 230.33,-94.64 226.63,-96.16 226.63,-96.16 226.63,-96.16 230.33,-94.64 225.27,-92.83 234.03,-93.12 234.03,-93.12"/>
</a>
</g>
</g>
<!-- Node14 -->
<g id="Node000014" class="node">
<title>Node14</title>
<g id="a_Node000014"><a target="_parent" xlink:href="https://doc.qt.io/qt-5/qlocale.html#toULongLong" xlink:title=" ">
<polygon fill="white" stroke="#666666" points="340,-56 215,-56 215,-37 340,-37 340,-56"/>
<text text-anchor="middle" x="277.5" y="-44" font-family="Helvetica,sans-Serif" font-size="10.00">QLocale::toULongLong</text>
</a>
</g>
</g>
<!-- Node1&#45;&gt;Node14 -->
<g id="edge13_Node000001_Node000014" class="edge">
<title>Node1&#45;&gt;Node14</title>
<g id="a_edge13_Node000001_Node000014"><a xlink:title=" ">
<path fill="none" stroke="#63b8ff" d="M94.27,-239.81C106.64,-209.31 149,-114.42 215,-65.5 218.09,-63.21 221.46,-61.19 224.99,-59.41"/>
<polygon fill="#63b8ff" stroke="#63b8ff" points="232.39,-56.09 226.56,-62.65 228.74,-57.73 225.09,-59.37 225.09,-59.37 225.09,-59.37 228.74,-57.73 223.61,-56.08 232.39,-56.09 232.39,-56.09"/>
</a>
</g>
</g>
<!-- Node15 -->
<g id="Node000015" class="node">
<title>Node15</title>
<g id="a_Node000015"><a target="_parent" xlink:href="https://doc.qt.io/qt-5/qstring.html#trimmed" xlink:title=" ">
<polygon fill="white" stroke="#666666" points="328,-19 227,-19 227,0 328,0 328,-19"/>
<text text-anchor="middle" x="277.5" y="-7" font-family="Helvetica,sans-Serif" font-size="10.00">QString::trimmed</text>
</a>
</g>
</g>
<!-- Node1&#45;&gt;Node15 -->
<g id="edge14_Node000001_Node000015" class="edge">
<title>Node1&#45;&gt;Node15</title>
<g id="a_edge14_Node000001_Node000015"><a xlink:title=" ">
<path fill="none" stroke="#63b8ff" d="M93.11,-239.85C102.88,-205.57 140.62,-88.49 215,-28.5 217.69,-26.33 220.63,-24.41 223.72,-22.7"/>
<polygon fill="#63b8ff" stroke="#63b8ff" points="231.14,-19.11 225.51,-25.83 227.54,-20.85 223.94,-22.59 223.94,-22.59 223.94,-22.59 227.54,-20.85 222.37,-19.35 231.14,-19.11 231.14,-19.11"/>
</a>
</g>
</g>
</g>
</svg>
