<?xml version="1.0" encoding="UTF-8" standalone="no"?>
<!DOCTYPE svg PUBLIC "-//W3C//DTD SVG 1.1//EN"
 "http://www.w3.org/Graphics/SVG/1.1/DTD/svg11.dtd">
<!-- Generated by graphviz version 2.43.0 (0)
 -->
<!-- Title: DeviceCommand::requiredOptions Pages: 1 -->
<svg width="640pt" height="352pt"
 viewBox="0.00 0.00 640.00 351.50" xmlns="http://www.w3.org/2000/svg" xmlns:xlink="http://www.w3.org/1999/xlink">
<g id="graph0" class="graph" transform="scale(1 1) rotate(0) translate(4 347.5)">
<title>DeviceCommand::requiredOptions</title>
<!-- Node1 -->
<g id="node1" class="node">
<title>Node1</title>
<g id="a_node1"><a xlink:title="Returns a list of CLI option names required by this command.">
<polygon fill="#bfbfbf" stroke="black" points="447,-110.5 447,-129.5 632,-129.5 632,-110.5 447,-110.5"/>
<text text-anchor="middle" x="539.5" y="-117.5" font-family="Helvetica,sans-Serif" font-size="10.00">DeviceCommand::requiredOptions</text>
</a>
</g>
</g>
<!-- Node2 -->
<g id="node2" class="node">
<title>Node2</title>
<g id="a_node2"><a xlink:href="classDeviceCommand.html#a429915728a274595d134b3214e605c1b" target="_top" xlink:title="Processes the relevant options from the command line parser.">
<polygon fill="none" stroke="black" points="229,-225.5 229,-244.5 411,-244.5 411,-225.5 229,-225.5"/>
<text text-anchor="middle" x="320" y="-232.5" font-family="Helvetica,sans-Serif" font-size="10.00">DeviceCommand::processOptions</text>
</a>
</g>
</g>
<!-- Node1&#45;&gt;Node2 -->
<g id="edge1" class="edge">
<title>Node1&#45;&gt;Node2</title>
<path fill="none" stroke="midnightblue" d="M521.67,-136.6C498.68,-158.3 455.22,-195.89 411,-216 402.42,-219.9 393.02,-223.01 383.62,-225.49"/>
<polygon fill="midnightblue" stroke="midnightblue" points="524.13,-139.09 528.92,-129.64 519.28,-134.04 524.13,-139.09"/>
</g>
<!-- Node8 -->
<g id="node8" class="node">
<title>Node8</title>
<g id="a_node8"><a xlink:href="classCalibrationCommand.html#aba224ed7cf4429cccd6970adcc60543b" target="_top" xlink:title="Returns a list of CLI option names required by this command.">
<polygon fill="none" stroke="black" points="260,-176 260,-206 380,-206 380,-176 260,-176"/>
<text text-anchor="start" x="268" y="-194" font-family="Helvetica,sans-Serif" font-size="10.00">CalibrationCommand</text>
<text text-anchor="middle" x="320" y="-183" font-family="Helvetica,sans-Serif" font-size="10.00">::requiredOptions</text>
</a>
</g>
</g>
<!-- Node1&#45;&gt;Node8 -->
<g id="edge7" class="edge">
<title>Node1&#45;&gt;Node8</title>
<path fill="none" stroke="midnightblue" d="M504.18,-133.18C478.65,-142.78 442.87,-155.84 411,-166 400.34,-169.4 388.89,-172.78 377.84,-175.91"/>
<polygon fill="midnightblue" stroke="midnightblue" points="505.66,-136.36 513.77,-129.55 503.18,-129.81 505.66,-136.36"/>
</g>
<!-- Node9 -->
<g id="node9" class="node">
<title>Node9</title>
<g id="a_node9"><a xlink:href="classFlashLedCommand.html#afdd092d0f82398d537a249cd6b8b9b9a" target="_top" xlink:title="Returns a list of CLI option names required by this command.">
<polygon fill="none" stroke="black" points="241.5,-127 241.5,-157 398.5,-157 398.5,-127 241.5,-127"/>
<text text-anchor="start" x="249.5" y="-145" font-family="Helvetica,sans-Serif" font-size="10.00">FlashLedCommand::required</text>
<text text-anchor="middle" x="320" y="-134" font-family="Helvetica,sans-Serif" font-size="10.00">Options</text>
</a>
</g>
</g>
<!-- Node1&#45;&gt;Node9 -->
<g id="edge8" class="edge">
<title>Node1&#45;&gt;Node9</title>
<path fill="none" stroke="midnightblue" d="M436.7,-130.3C423.94,-131.59 411.05,-132.89 398.74,-134.14"/>
<polygon fill="midnightblue" stroke="midnightblue" points="437.29,-133.75 446.89,-129.27 436.59,-126.79 437.29,-133.75"/>
</g>
<!-- Node10 -->
<g id="node10" class="node">
<title>Node10</title>
<g id="a_node10"><a xlink:href="classInfoCommand.html#aeba667f52f3bb12a890e70854c47eece" target="_top" xlink:title="Returns a list of CLI option names required by this command.">
<polygon fill="none" stroke="black" points="235,-88.5 235,-107.5 405,-107.5 405,-88.5 235,-88.5"/>
<text text-anchor="middle" x="320" y="-95.5" font-family="Helvetica,sans-Serif" font-size="10.00">InfoCommand::requiredOptions</text>
</a>
</g>
</g>
<!-- Node1&#45;&gt;Node10 -->
<g id="edge9" class="edge">
<title>Node1&#45;&gt;Node10</title>
<path fill="none" stroke="midnightblue" d="M436.8,-109.71C426.23,-108.64 415.58,-107.57 405.23,-106.52"/>
<polygon fill="midnightblue" stroke="midnightblue" points="436.59,-113.21 446.89,-110.73 437.29,-106.25 436.59,-113.21"/>
</g>
<!-- Node11 -->
<g id="node11" class="node">
<title>Node11</title>
<g id="a_node11"><a xlink:href="classSetNameCommand.html#aca427dcc4590c0eb0033885efc28fcf2" target="_top" xlink:title="Returns a list of CLI option names required by this command.">
<polygon fill="none" stroke="black" points="241,-39 241,-69 399,-69 399,-39 241,-39"/>
<text text-anchor="start" x="249" y="-57" font-family="Helvetica,sans-Serif" font-size="10.00">SetNameCommand::required</text>
<text text-anchor="middle" x="320" y="-46" font-family="Helvetica,sans-Serif" font-size="10.00">Options</text>
</a>
</g>
</g>
<!-- Node1&#45;&gt;Node11 -->
<g id="edge10" class="edge">
<title>Node1&#45;&gt;Node11</title>
<path fill="none" stroke="midnightblue" d="M500.41,-107.31C475.14,-99 441.18,-88.04 411,-79 399.97,-75.7 388.14,-72.3 376.79,-69.12"/>
<polygon fill="midnightblue" stroke="midnightblue" points="499.4,-110.66 509.99,-110.47 501.59,-104.01 499.4,-110.66"/>
</g>
<!-- Node12 -->
<g id="node12" class="node">
<title>Node12</title>
<g id="a_node12"><a xlink:href="classStatusCommand.html#aa2345f5f5e6453ca4364c78ca476c427" target="_top" xlink:title="Returns a list of CLI option names required by this command.">
<polygon fill="none" stroke="black" points="229,-0.5 229,-19.5 411,-19.5 411,-0.5 229,-0.5"/>
<text text-anchor="middle" x="320" y="-7.5" font-family="Helvetica,sans-Serif" font-size="10.00">StatusCommand::requiredOptions</text>
</a>
</g>
</g>
<!-- Node1&#45;&gt;Node12 -->
<g id="edge11" class="edge">
<title>Node1&#45;&gt;Node12</title>
<path fill="none" stroke="midnightblue" d="M520.48,-103.4C497.05,-82.74 454.02,-47.9 411,-29 402.23,-25.15 392.62,-22.05 383.06,-19.58"/>
<polygon fill="midnightblue" stroke="midnightblue" points="518.4,-106.24 528.19,-110.31 523.08,-101.03 518.4,-106.24"/>
</g>
<!-- Node3 -->
<g id="node3" class="node">
<title>Node3</title>
<g id="a_node3"><a xlink:href="classCalibrationCommand.html#aed246998ed2e3e10a7adc021d9f24a8c" target="_top" xlink:title="Processes the relevant options from the command line parser.">
<polygon fill="none" stroke="black" points="36.5,-313 36.5,-343 156.5,-343 156.5,-313 36.5,-313"/>
<text text-anchor="start" x="44.5" y="-331" font-family="Helvetica,sans-Serif" font-size="10.00">CalibrationCommand</text>
<text text-anchor="middle" x="96.5" y="-320" font-family="Helvetica,sans-Serif" font-size="10.00">::processOptions</text>
</a>
</g>
</g>
<!-- Node2&#45;&gt;Node3 -->
<g id="edge2" class="edge">
<title>Node2&#45;&gt;Node3</title>
<path fill="none" stroke="midnightblue" d="M295.85,-250.04C271.22,-265.46 230.68,-289.23 193,-304 181.46,-308.52 168.8,-312.41 156.57,-315.66"/>
<polygon fill="midnightblue" stroke="midnightblue" points="297.9,-252.88 304.47,-244.57 294.15,-246.97 297.9,-252.88"/>
</g>
<!-- Node4 -->
<g id="node4" class="node">
<title>Node4</title>
<g id="a_node4"><a xlink:href="classFlashLedCommand.html#ab2062e5ec29315ca83589a7302f7ae6f" target="_top" xlink:title="Processes the relevant options from the command line parser.">
<polygon fill="none" stroke="black" points="19.5,-264 19.5,-294 173.5,-294 173.5,-264 19.5,-264"/>
<text text-anchor="start" x="27.5" y="-282" font-family="Helvetica,sans-Serif" font-size="10.00">FlashLedCommand::process</text>
<text text-anchor="middle" x="96.5" y="-271" font-family="Helvetica,sans-Serif" font-size="10.00">Options</text>
</a>
</g>
</g>
<!-- Node2&#45;&gt;Node4 -->
<g id="edge3" class="edge">
<title>Node2&#45;&gt;Node4</title>
<path fill="none" stroke="midnightblue" d="M260.95,-246.53C234.17,-251.85 202.01,-258.24 173.34,-263.93"/>
<polygon fill="midnightblue" stroke="midnightblue" points="261.81,-249.93 270.94,-244.55 260.45,-243.06 261.81,-249.93"/>
</g>
<!-- Node5 -->
<g id="node5" class="node">
<title>Node5</title>
<g id="a_node5"><a xlink:href="classInfoCommand.html#a7d815cb4b0133025e4354649e2cd7a6a" target="_top" xlink:title="Processes the relevant options from the command line parser.">
<polygon fill="none" stroke="black" points="13,-225.5 13,-244.5 180,-244.5 180,-225.5 13,-225.5"/>
<text text-anchor="middle" x="96.5" y="-232.5" font-family="Helvetica,sans-Serif" font-size="10.00">InfoCommand::processOptions</text>
</a>
</g>
</g>
<!-- Node2&#45;&gt;Node5 -->
<g id="edge4" class="edge">
<title>Node2&#45;&gt;Node5</title>
<path fill="none" stroke="midnightblue" d="M218.61,-235C205.7,-235 192.6,-235 180.02,-235"/>
<polygon fill="midnightblue" stroke="midnightblue" points="218.91,-238.5 228.91,-235 218.91,-231.5 218.91,-238.5"/>
</g>
<!-- Node6 -->
<g id="node6" class="node">
<title>Node6</title>
<g id="a_node6"><a xlink:href="classSetNameCommand.html#aac72587ddb035857cd224d843fc3d00c" target="_top" xlink:title="Processes the relevant options from the command line parser.">
<polygon fill="none" stroke="black" points="0,-187.5 0,-206.5 193,-206.5 193,-187.5 0,-187.5"/>
<text text-anchor="middle" x="96.5" y="-194.5" font-family="Helvetica,sans-Serif" font-size="10.00">SetNameCommand::processOptions</text>
</a>
</g>
</g>
<!-- Node2&#45;&gt;Node6 -->
<g id="edge5" class="edge">
<title>Node2&#45;&gt;Node6</title>
<path fill="none" stroke="midnightblue" d="M253.27,-223.72C221.41,-218.26 183.55,-211.76 153.13,-206.54"/>
<polygon fill="midnightblue" stroke="midnightblue" points="252.94,-227.22 263.39,-225.46 254.13,-220.32 252.94,-227.22"/>
</g>
<!-- Node7 -->
<g id="node7" class="node">
<title>Node7</title>
<g id="a_node7"><a xlink:href="classStatusCommand.html#a951404b4913fd4b341899d654a2abe72" target="_top" xlink:title="Processes the relevant options from the command line parser.">
<polygon fill="none" stroke="black" points="7,-149.5 7,-168.5 186,-168.5 186,-149.5 7,-149.5"/>
<text text-anchor="middle" x="96.5" y="-156.5" font-family="Helvetica,sans-Serif" font-size="10.00">StatusCommand::processOptions</text>
</a>
</g>
</g>
<!-- Node2&#45;&gt;Node7 -->
<g id="edge6" class="edge">
<title>Node2&#45;&gt;Node7</title>
<path fill="none" stroke="midnightblue" d="M242.05,-222.14C237.52,-220.35 233.14,-218.32 229,-216 208.7,-204.64 213.37,-189.24 193,-178 186.04,-174.16 178.42,-171.09 170.62,-168.64"/>
<polygon fill="midnightblue" stroke="midnightblue" points="240.9,-225.44 251.49,-225.47 243.23,-218.84 240.9,-225.44"/>
</g>
</g>
</svg>
