<?xml version="1.0" encoding="UTF-8" standalone="no"?>
<!DOCTYPE svg PUBLIC "-//W3C//DTD SVG 1.1//EN"
 "http://www.w3.org/Graphics/SVG/1.1/DTD/svg11.dtd">
<!-- Generated by graphviz version 2.43.0 (0)
 -->
<!-- Title: AbstractPokitServicePrivate::getCharacteristic Pages: 1 -->
<svg width="553pt" height="381pt"
 viewBox="0.00 0.00 553.00 381.00" xmlns="http://www.w3.org/2000/svg" xmlns:xlink="http://www.w3.org/1999/xlink">
<g id="graph0" class="graph" transform="scale(1 1) rotate(0) translate(4 377)">
<title>AbstractPokitServicePrivate::getCharacteristic</title>
<!-- Node1 -->
<g id="node1" class="node">
<title>Node1</title>
<g id="a_node1"><a xlink:title="Get uuid characteristc from the underlying service.">
<polygon fill="#999999" stroke="#666666" points="152,-201.5 0,-201.5 0,-171.5 152,-171.5 152,-201.5"/>
<text text-anchor="start" x="8" y="-189.5" font-family="Helvetica,sans-Serif" font-size="10.00">AbstractPokitServicePrivate</text>
<text text-anchor="middle" x="76" y="-178.5" font-family="Helvetica,sans-Serif" font-size="10.00">::getCharacteristic</text>
</a>
</g>
</g>
<!-- Node2 -->
<g id="node2" class="node">
<title>Node2</title>
<g id="a_node2"><a target="_parent" xlink:href="https://doc.qt.io/qt-5/qstring.html#arg-11" xlink:title=" ">
<polygon fill="white" stroke="#666666" points="302.5,-373 228.5,-373 228.5,-354 302.5,-354 302.5,-373"/>
<text text-anchor="middle" x="265.5" y="-361" font-family="Helvetica,sans-Serif" font-size="10.00">QString::arg</text>
</a>
</g>
</g>
<!-- Node1&#45;&gt;Node2 -->
<g id="edge1" class="edge">
<title>Node1&#45;&gt;Node2</title>
<path fill="none" stroke="#63b8ff" d="M83.29,-201.86C97.16,-233.73 133.53,-307.16 188,-344.5 196.98,-350.66 207.77,-354.82 218.38,-357.64"/>
<polygon fill="#63b8ff" stroke="#63b8ff" points="217.89,-361.12 228.42,-359.95 219.46,-354.3 217.89,-361.12"/>
</g>
<!-- Node3 -->
<g id="node3" class="node">
<title>Node3</title>
<g id="a_node3"><a target="_parent" xlink:href="https://doc.qt.io/qt-5/qlowenergyservice.html#characteristic" xlink:title=" ">
<polygon fill="white" stroke="#666666" points="325,-335.5 206,-335.5 206,-305.5 325,-305.5 325,-335.5"/>
<text text-anchor="start" x="214" y="-323.5" font-family="Helvetica,sans-Serif" font-size="10.00">QLowEnergyService::</text>
<text text-anchor="middle" x="265.5" y="-312.5" font-family="Helvetica,sans-Serif" font-size="10.00">characteristic</text>
</a>
</g>
</g>
<!-- Node1&#45;&gt;Node3 -->
<g id="edge2" class="edge">
<title>Node1&#45;&gt;Node3</title>
<path fill="none" stroke="#63b8ff" d="M88.26,-201.59C106.61,-225.18 145.25,-270.73 188,-296.5 190.8,-298.19 193.73,-299.77 196.75,-301.25"/>
<polygon fill="#63b8ff" stroke="#63b8ff" points="195.43,-304.49 205.99,-305.38 198.29,-298.1 195.43,-304.49"/>
</g>
<!-- Node4 -->
<g id="node4" class="node">
<title>Node4</title>
<g id="a_node4"><a xlink:href="classPokitDevice.html#a0a3e6078ce0a7c2d93171ef0f4183d61" target="_top" xlink:title="Returns a human&#45;readable name for the uuid characteristic, or a null QString if unknown.">
<polygon fill="white" stroke="#666666" points="336,-287.5 195,-287.5 195,-257.5 336,-257.5 336,-287.5"/>
<text text-anchor="start" x="203" y="-275.5" font-family="Helvetica,sans-Serif" font-size="10.00">PokitDevice::charcteristic</text>
<text text-anchor="middle" x="265.5" y="-264.5" font-family="Helvetica,sans-Serif" font-size="10.00">ToString</text>
</a>
</g>
</g>
<!-- Node1&#45;&gt;Node4 -->
<g id="edge3" class="edge">
<title>Node1&#45;&gt;Node4</title>
<path fill="none" stroke="#63b8ff" d="M104.41,-201.66C126.62,-213.69 158.9,-230.56 188,-243.5 195.84,-246.98 204.23,-250.44 212.48,-253.68"/>
<polygon fill="#63b8ff" stroke="#63b8ff" points="211.48,-257.04 222.07,-257.38 214,-250.51 211.48,-257.04"/>
</g>
<!-- Node6 -->
<g id="node6" class="node">
<title>Node6</title>
<g id="a_node6"><a target="_parent" xlink:href="https://doc.qt.io/qt-5/qobject.html#tr" xlink:title=" ">
<polygon fill="white" stroke="#666666" points="496.5,-239 427.5,-239 427.5,-220 496.5,-220 496.5,-239"/>
<text text-anchor="middle" x="462" y="-227" font-family="Helvetica,sans-Serif" font-size="10.00">QObject::tr</text>
</a>
</g>
</g>
<!-- Node1&#45;&gt;Node6 -->
<g id="edge13" class="edge">
<title>Node1&#45;&gt;Node6</title>
<path fill="none" stroke="#63b8ff" d="M138.95,-201.54C154.85,-204.94 171.99,-208.22 188,-210.5 268.26,-221.91 362.81,-226.55 416.94,-228.38"/>
<polygon fill="#63b8ff" stroke="#63b8ff" points="417.11,-231.88 427.21,-228.71 417.33,-224.89 417.11,-231.88"/>
</g>
<!-- Node7 -->
<g id="node7" class="node">
<title>Node7</title>
<g id="a_node7"><a target="_parent" xlink:href="https://doc.qt.io/qt-5/qlowenergycharacteristic.html#isValid" xlink:title=" ">
<polygon fill="white" stroke="#666666" points="338,-201.5 193,-201.5 193,-171.5 338,-171.5 338,-201.5"/>
<text text-anchor="start" x="201" y="-189.5" font-family="Helvetica,sans-Serif" font-size="10.00">QLowEnergyCharacteristic</text>
<text text-anchor="middle" x="265.5" y="-178.5" font-family="Helvetica,sans-Serif" font-size="10.00">::isValid</text>
</a>
</g>
</g>
<!-- Node1&#45;&gt;Node7 -->
<g id="edge6" class="edge">
<title>Node1&#45;&gt;Node7</title>
<path fill="none" stroke="#63b8ff" d="M152.18,-186.5C162.27,-186.5 172.65,-186.5 182.85,-186.5"/>
<polygon fill="#63b8ff" stroke="#63b8ff" points="182.95,-190 192.95,-186.5 182.95,-183 182.95,-190"/>
</g>
<!-- Node8 -->
<g id="node8" class="node">
<title>Node8</title>
<g id="a_node8"><a xlink:href="classPokitDevice.html#aca9393595de5676f20e3d0fd795358b5" target="_top" xlink:title="Returns a human&#45;readable name for the uuid service, or a null QString if unknonw.">
<polygon fill="white" stroke="#666666" points="343,-153 188,-153 188,-134 343,-134 343,-153"/>
<text text-anchor="middle" x="265.5" y="-141" font-family="Helvetica,sans-Serif" font-size="10.00">PokitDevice::serviceToString</text>
</a>
</g>
</g>
<!-- Node1&#45;&gt;Node8 -->
<g id="edge7" class="edge">
<title>Node1&#45;&gt;Node8</title>
<path fill="none" stroke="#63b8ff" d="M142.58,-171.46C165.64,-166.17 191.22,-160.31 212.96,-155.32"/>
<polygon fill="#63b8ff" stroke="#63b8ff" points="214.01,-158.67 222.98,-153.02 212.45,-151.85 214.01,-158.67"/>
</g>
<!-- Node10 -->
<g id="node10" class="node">
<title>Node10</title>
<g id="a_node10"><a target="_parent" xlink:href="https://doc.qt.io/qt-5/qlowenergyservice.html#serviceUuid" xlink:title=" ">
<polygon fill="white" stroke="#666666" points="325,-115.5 206,-115.5 206,-85.5 325,-85.5 325,-115.5"/>
<text text-anchor="start" x="214" y="-103.5" font-family="Helvetica,sans-Serif" font-size="10.00">QLowEnergyService::</text>
<text text-anchor="middle" x="265.5" y="-92.5" font-family="Helvetica,sans-Serif" font-size="10.00">serviceUuid</text>
</a>
</g>
</g>
<!-- Node1&#45;&gt;Node10 -->
<g id="edge10" class="edge">
<title>Node1&#45;&gt;Node10</title>
<path fill="none" stroke="#63b8ff" d="M100.53,-171.48C122.51,-157.91 156.58,-138.03 188,-124.5 192.4,-122.6 197,-120.78 201.67,-119.05"/>
<polygon fill="#63b8ff" stroke="#63b8ff" points="203.06,-122.28 211.31,-115.63 200.71,-115.68 203.06,-122.28"/>
</g>
<!-- Node11 -->
<g id="node11" class="node">
<title>Node11</title>
<g id="a_node11"><a target="_parent" xlink:href="https://doc.qt.io/qt-5/qlowenergyservice.html#state" xlink:title=" ">
<polygon fill="white" stroke="#666666" points="325,-67.5 206,-67.5 206,-37.5 325,-37.5 325,-67.5"/>
<text text-anchor="start" x="214" y="-55.5" font-family="Helvetica,sans-Serif" font-size="10.00">QLowEnergyService::</text>
<text text-anchor="middle" x="265.5" y="-44.5" font-family="Helvetica,sans-Serif" font-size="10.00">state</text>
</a>
</g>
</g>
<!-- Node1&#45;&gt;Node11 -->
<g id="edge11" class="edge">
<title>Node1&#45;&gt;Node11</title>
<path fill="none" stroke="#63b8ff" d="M88.26,-171.41C106.61,-147.82 145.25,-102.27 188,-76.5 190.8,-74.81 193.73,-73.23 196.75,-71.75"/>
<polygon fill="#63b8ff" stroke="#63b8ff" points="198.29,-74.9 205.99,-67.62 195.43,-68.51 198.29,-74.9"/>
</g>
<!-- Node12 -->
<g id="node12" class="node">
<title>Node12</title>
<g id="a_node12"><a target="_parent" xlink:href="https://doc.qt.io/qt-5/quuid.html#toString" xlink:title=" ">
<polygon fill="white" stroke="#666666" points="311,-19 220,-19 220,0 311,0 311,-19"/>
<text text-anchor="middle" x="265.5" y="-7" font-family="Helvetica,sans-Serif" font-size="10.00">QUuid::toString</text>
</a>
</g>
</g>
<!-- Node1&#45;&gt;Node12 -->
<g id="edge12" class="edge">
<title>Node1&#45;&gt;Node12</title>
<path fill="none" stroke="#63b8ff" d="M83.29,-171.14C97.16,-139.27 133.53,-65.84 188,-28.5 194.66,-23.93 202.31,-20.46 210.15,-17.83"/>
<polygon fill="#63b8ff" stroke="#63b8ff" points="211.14,-21.18 219.75,-15.01 209.16,-14.47 211.14,-21.18"/>
</g>
<!-- Node5 -->
<g id="node5" class="node">
<title>Node5</title>
<g id="a_node5"><a target="_parent" xlink:href="https://doc.qt.io/qt-5/qbluetoothuuid.html#characteristicToString" xlink:title=" ">
<polygon fill="white" stroke="#666666" points="545,-287.5 379,-287.5 379,-257.5 545,-257.5 545,-287.5"/>
<text text-anchor="start" x="387" y="-275.5" font-family="Helvetica,sans-Serif" font-size="10.00">QBluetoothUuid::characteristic</text>
<text text-anchor="middle" x="462" y="-264.5" font-family="Helvetica,sans-Serif" font-size="10.00">ToString</text>
</a>
</g>
</g>
<!-- Node4&#45;&gt;Node5 -->
<g id="edge4" class="edge">
<title>Node4&#45;&gt;Node5</title>
<path fill="none" stroke="#63b8ff" d="M336.17,-272.5C346.77,-272.5 357.84,-272.5 368.83,-272.5"/>
<polygon fill="#63b8ff" stroke="#63b8ff" points="368.88,-276 378.88,-272.5 368.88,-269 368.88,-276"/>
</g>
<!-- Node4&#45;&gt;Node6 -->
<g id="edge5" class="edge">
<title>Node4&#45;&gt;Node6</title>
<path fill="none" stroke="#63b8ff" d="M334.53,-257.46C362.04,-251.38 392.99,-244.54 417.38,-239.14"/>
<polygon fill="#63b8ff" stroke="#63b8ff" points="418.4,-242.5 427.41,-236.93 416.89,-235.67 418.4,-242.5"/>
</g>
<!-- Node8&#45;&gt;Node6 -->
<g id="edge9" class="edge">
<title>Node8&#45;&gt;Node6</title>
<path fill="none" stroke="#63b8ff" d="M313.66,-153.07C323.52,-155.66 333.72,-158.8 343,-162.5 378.15,-176.54 415.66,-199.35 438.72,-214.39"/>
<polygon fill="#63b8ff" stroke="#63b8ff" points="436.83,-217.33 447.1,-219.93 440.69,-211.49 436.83,-217.33"/>
</g>
<!-- Node9 -->
<g id="node9" class="node">
<title>Node9</title>
<g id="a_node9"><a target="_parent" xlink:href="https://doc.qt.io/qt-5/qbluetoothuuid.html#serviceClassToString" xlink:title=" ">
<polygon fill="white" stroke="#666666" points="542.5,-158.5 381.5,-158.5 381.5,-128.5 542.5,-128.5 542.5,-158.5"/>
<text text-anchor="start" x="389.5" y="-146.5" font-family="Helvetica,sans-Serif" font-size="10.00">QBluetoothUuid::serviceClass</text>
<text text-anchor="middle" x="462" y="-135.5" font-family="Helvetica,sans-Serif" font-size="10.00">ToString</text>
</a>
</g>
</g>
<!-- Node8&#45;&gt;Node9 -->
<g id="edge8" class="edge">
<title>Node8&#45;&gt;Node9</title>
<path fill="none" stroke="#63b8ff" d="M343.09,-143.5C352.3,-143.5 361.78,-143.5 371.15,-143.5"/>
<polygon fill="#63b8ff" stroke="#63b8ff" points="371.28,-147 381.28,-143.5 371.28,-140 371.28,-147"/>
</g>
</g>
</svg>
