<?xml version="1.0" encoding="UTF-8" standalone="no"?>
<!DOCTYPE svg PUBLIC "-//W3C//DTD SVG 1.1//EN"
 "http://www.w3.org/Graphics/SVG/1.1/DTD/svg11.dtd">
<!-- Generated by graphviz version 2.43.0 (0)
 -->
<!-- Title: CalibrateCommand::getService Pages: 1 -->
<svg width="756pt" height="146pt"
 viewBox="0.00 0.00 756.00 146.00" xmlns="http://www.w3.org/2000/svg" xmlns:xlink="http://www.w3.org/1999/xlink">
<g id="graph0" class="graph" transform="scale(1 1) rotate(0) translate(4 142)">
<title>CalibrateCommand::getService</title>
<!-- Node1 -->
<g id="node1" class="node">
<title>Node1</title>
<g id="a_node1"><a xlink:title="Returns a Pokit service object for the derived command class.">
<polygon fill="#999999" stroke="#666666" points="169,-83 0,-83 0,-64 169,-64 169,-83"/>
<text text-anchor="middle" x="84.5" y="-71" font-family="Helvetica,sans-Serif" font-size="10.00">CalibrateCommand::getService</text>
</a>
</g>
</g>
<!-- Node2 -->
<g id="node2" class="node">
<title>Node2</title>
<g id="a_node2"><a xlink:href="classPokitDevice.html#abb2eafe232090e82ea1a69e38ebab49e" target="_top" xlink:title="Returns a pointer to a CalibrationService instance that uses this device&#39;s controller for access.">
<polygon fill="white" stroke="#666666" points="360.5,-120 227.5,-120 227.5,-101 360.5,-101 360.5,-120"/>
<text text-anchor="middle" x="294" y="-108" font-family="Helvetica,sans-Serif" font-size="10.00">PokitDevice::calibration</text>
</a>
</g>
</g>
<!-- Node1&#45;&gt;Node2 -->
<g id="edge1" class="edge">
<title>Node1&#45;&gt;Node2</title>
<path fill="none" stroke="#63b8ff" d="M138.94,-83.03C166.54,-87.95 200.42,-93.99 229.37,-99.15"/>
<polygon fill="#63b8ff" stroke="#63b8ff" points="228.93,-102.63 239.38,-100.94 230.15,-95.74 228.93,-102.63"/>
</g>
<!-- Node3 -->
<g id="node3" class="node">
<title>Node3</title>
<g id="a_node3"><a target="_parent" xlink:href="https://doc.qt.io/qt-5/qobject.html#connect" xlink:title=" ">
<polygon fill="white" stroke="#666666" points="344,-83 244,-83 244,-64 344,-64 344,-83"/>
<text text-anchor="middle" x="294" y="-71" font-family="Helvetica,sans-Serif" font-size="10.00">QObject::connect</text>
</a>
</g>
</g>
<!-- Node1&#45;&gt;Node3 -->
<g id="edge3" class="edge">
<title>Node1&#45;&gt;Node3</title>
<path fill="none" stroke="#63b8ff" d="M169,-73.5C190.67,-73.5 213.57,-73.5 233.72,-73.5"/>
<polygon fill="#63b8ff" stroke="#63b8ff" points="233.98,-77 243.98,-73.5 233.98,-70 233.98,-77"/>
</g>
<!-- Node4 -->
<g id="node4" class="node">
<title>Node4</title>
<g id="a_node4"><a xlink:href="classCalibrateCommand.html#afaf2c6153a3d409c06318dc809df1c78" target="_top" xlink:title="Handles CalibrationService::temperatureCalibrated events, by outputting the result and exiting.">
<polygon fill="white" stroke="#666666" points="383,-45.5 205,-45.5 205,-15.5 383,-15.5 383,-45.5"/>
<text text-anchor="start" x="213" y="-33.5" font-family="Helvetica,sans-Serif" font-size="10.00">CalibrateCommand::temperature</text>
<text text-anchor="middle" x="294" y="-22.5" font-family="Helvetica,sans-Serif" font-size="10.00">Calibrated</text>
</a>
</g>
</g>
<!-- Node1&#45;&gt;Node4 -->
<g id="edge4" class="edge">
<title>Node1&#45;&gt;Node4</title>
<path fill="none" stroke="#63b8ff" d="M131.55,-63.96C154.84,-59.13 183.81,-53.13 210.76,-47.54"/>
<polygon fill="#63b8ff" stroke="#63b8ff" points="211.5,-50.96 220.59,-45.51 210.08,-44.11 211.5,-50.96"/>
</g>
<!-- Node2&#45;&gt;Node2 -->
<g id="edge2" class="edge">
<title>Node2&#45;&gt;Node2</title>
<path fill="none" stroke="#63b8ff" d="M262.56,-120.08C247.26,-128.73 257.74,-138 294,-138 319.49,-138 332.24,-133.42 332.25,-127.69"/>
<polygon fill="#63b8ff" stroke="#63b8ff" points="334.72,-125.2 325.44,-120.08 329.5,-129.87 334.72,-125.2"/>
</g>
<!-- Node5 -->
<g id="node5" class="node">
<title>Node5</title>
<g id="a_node5"><a xlink:href="classDeviceCommand.html#ae619166395b5651f1316fd5336d9fa2c" target="_top" xlink:title="Disconnects the underlying Pokit device, and sets exitCode to be return to the OS once the disconnect...">
<polygon fill="white" stroke="#666666" points="578,-60 419,-60 419,-41 578,-41 578,-60"/>
<text text-anchor="middle" x="498.5" y="-48" font-family="Helvetica,sans-Serif" font-size="10.00">DeviceCommand::disconnect</text>
</a>
</g>
</g>
<!-- Node4&#45;&gt;Node5 -->
<g id="edge5" class="edge">
<title>Node4&#45;&gt;Node5</title>
<path fill="none" stroke="#63b8ff" d="M383.23,-39.21C391.64,-40.04 400.17,-40.89 408.59,-41.72"/>
<polygon fill="#63b8ff" stroke="#63b8ff" points="408.49,-45.23 418.78,-42.73 409.18,-38.26 408.49,-45.23"/>
</g>
<!-- Node8 -->
<g id="node8" class="node">
<title>Node8</title>
<g id="a_node8"><a target="_parent" xlink:href="https://doc.qt.io/qt-5/qobject.html#tr" xlink:title=" ">
<polygon fill="white" stroke="#666666" points="715.5,-19 646.5,-19 646.5,0 715.5,0 715.5,-19"/>
<text text-anchor="middle" x="681" y="-7" font-family="Helvetica,sans-Serif" font-size="10.00">QObject::tr</text>
</a>
</g>
</g>
<!-- Node4&#45;&gt;Node8 -->
<g id="edge9" class="edge">
<title>Node4&#45;&gt;Node8</title>
<path fill="none" stroke="#63b8ff" d="M383.33,-25.68C462.44,-21.37 575.16,-15.22 636.37,-11.88"/>
<polygon fill="#63b8ff" stroke="#63b8ff" points="636.66,-15.37 646.46,-11.33 636.28,-8.38 636.66,-15.37"/>
</g>
<!-- Node6 -->
<g id="node6" class="node">
<title>Node6</title>
<g id="a_node6"><a xlink:href="classPokitDevice.html#a2e2fb6b30e6f5f0d7bc6cd8f806d6423" target="_top" xlink:title="Returns a non&#45;const pointer to the controller used to access the Pokit device.">
<polygon fill="white" stroke="#666666" points="745,-105 617,-105 617,-86 745,-86 745,-105"/>
<text text-anchor="middle" x="681" y="-93" font-family="Helvetica,sans-Serif" font-size="10.00">PokitDevice::controller</text>
</a>
</g>
</g>
<!-- Node5&#45;&gt;Node6 -->
<g id="edge6" class="edge">
<title>Node5&#45;&gt;Node6</title>
<path fill="none" stroke="#63b8ff" d="M537.78,-60.04C565.18,-66.87 602.28,-76.12 631.71,-83.46"/>
<polygon fill="#63b8ff" stroke="#63b8ff" points="631.23,-86.95 641.78,-85.97 632.92,-80.16 631.23,-86.95"/>
</g>
<!-- Node7 -->
<g id="node7" class="node">
<title>Node7</title>
<g id="a_node7"><a target="_parent" xlink:href="https://doc.qt.io/qt-5/qlowenergycontroller.html#disconnectFromDevice" xlink:title=" ">
<polygon fill="white" stroke="#666666" points="748,-67.5 614,-67.5 614,-37.5 748,-37.5 748,-67.5"/>
<text text-anchor="start" x="622" y="-55.5" font-family="Helvetica,sans-Serif" font-size="10.00">QLowEnergyController</text>
<text text-anchor="middle" x="681" y="-44.5" font-family="Helvetica,sans-Serif" font-size="10.00">::disconnectFromDevice</text>
</a>
</g>
</g>
<!-- Node5&#45;&gt;Node7 -->
<g id="edge7" class="edge">
<title>Node5&#45;&gt;Node7</title>
<path fill="none" stroke="#63b8ff" d="M578.14,-51.37C586.59,-51.46 595.17,-51.56 603.58,-51.65"/>
<polygon fill="#63b8ff" stroke="#63b8ff" points="603.71,-55.15 613.75,-51.77 603.79,-48.16 603.71,-55.15"/>
</g>
<!-- Node5&#45;&gt;Node8 -->
<g id="edge8" class="edge">
<title>Node5&#45;&gt;Node8</title>
<path fill="none" stroke="#63b8ff" d="M541.36,-40.99C569.96,-34.49 607.77,-25.91 636.67,-19.34"/>
<polygon fill="#63b8ff" stroke="#63b8ff" points="637.52,-22.74 646.5,-17.11 635.97,-15.91 637.52,-22.74"/>
</g>
</g>
</svg>
