<?xml version="1.0" encoding="UTF-8" standalone="no"?>
<!DOCTYPE svg PUBLIC "-//W3C//DTD SVG 1.1//EN"
 "http://www.w3.org/Graphics/SVG/1.1/DTD/svg11.dtd">
<!-- Generated by graphviz version 2.43.0 (0)
 -->
<!-- Title: DeviceCommand::requiredOptions Pages: 1 -->
<svg width="640pt" height="273pt"
 viewBox="0.00 0.00 640.00 272.50" xmlns="http://www.w3.org/2000/svg" xmlns:xlink="http://www.w3.org/1999/xlink">
<g id="graph0" class="graph" transform="scale(1 1) rotate(0) translate(4 268.5)">
<title>DeviceCommand::requiredOptions</title>
<!-- Node1 -->
<g id="node1" class="node">
<title>Node1</title>
<g id="a_node1"><a xlink:title="Returns a list of CLI option names required by this command.">
<polygon fill="#bfbfbf" stroke="black" points="447,-88.5 447,-107.5 632,-107.5 632,-88.5 447,-88.5"/>
<text text-anchor="middle" x="539.5" y="-95.5" font-family="Helvetica,sans-Serif" font-size="10.00">DeviceCommand::requiredOptions</text>
</a>
</g>
</g>
<!-- Node2 -->
<g id="node2" class="node">
<title>Node2</title>
<g id="a_node2"><a xlink:href="classDeviceCommand.html#a429915728a274595d134b3214e605c1b" target="_top" xlink:title="Processes the relevant options from the command line parser.">
<polygon fill="none" stroke="black" points="229,-176.5 229,-195.5 411,-195.5 411,-176.5 229,-176.5"/>
<text text-anchor="middle" x="320" y="-183.5" font-family="Helvetica,sans-Serif" font-size="10.00">DeviceCommand::processOptions</text>
</a>
</g>
</g>
<!-- Node1&#45;&gt;Node2 -->
<g id="edge1" class="edge">
<title>Node1&#45;&gt;Node2</title>
<path fill="none" stroke="midnightblue" d="M515.09,-112.99C490.19,-128.34 449.18,-151.88 411,-166 399.74,-170.16 387.35,-173.61 375.47,-176.39"/>
<polygon fill="midnightblue" stroke="midnightblue" points="517.18,-115.81 523.81,-107.55 513.48,-109.88 517.18,-115.81"/>
</g>
<!-- Node7 -->
<g id="node7" class="node">
<title>Node7</title>
<g id="a_node7"><a xlink:href="classFlashLedCommand.html#afdd092d0f82398d537a249cd6b8b9b9a" target="_top" xlink:title="Returns a list of CLI option names required by this command.">
<polygon fill="none" stroke="black" points="241.5,-127 241.5,-157 398.5,-157 398.5,-127 241.5,-127"/>
<text text-anchor="start" x="249.5" y="-145" font-family="Helvetica,sans-Serif" font-size="10.00">FlashLedCommand::required</text>
<text text-anchor="middle" x="320" y="-134" font-family="Helvetica,sans-Serif" font-size="10.00">Options</text>
</a>
</g>
</g>
<!-- Node1&#45;&gt;Node7 -->
<g id="edge6" class="edge">
<title>Node1&#45;&gt;Node7</title>
<path fill="none" stroke="midnightblue" d="M481.5,-109.53C455.2,-114.85 423.63,-121.24 395.47,-126.93"/>
<polygon fill="midnightblue" stroke="midnightblue" points="482.2,-112.96 491.31,-107.55 480.81,-106.1 482.2,-112.96"/>
</g>
<!-- Node8 -->
<g id="node8" class="node">
<title>Node8</title>
<g id="a_node8"><a xlink:href="classInfoCommand.html#aeba667f52f3bb12a890e70854c47eece" target="_top" xlink:title="Returns a list of CLI option names required by this command.">
<polygon fill="none" stroke="black" points="235,-88.5 235,-107.5 405,-107.5 405,-88.5 235,-88.5"/>
<text text-anchor="middle" x="320" y="-95.5" font-family="Helvetica,sans-Serif" font-size="10.00">InfoCommand::requiredOptions</text>
</a>
</g>
</g>
<!-- Node1&#45;&gt;Node8 -->
<g id="edge7" class="edge">
<title>Node1&#45;&gt;Node8</title>
<path fill="none" stroke="midnightblue" d="M436.8,-98C426.23,-98 415.58,-98 405.23,-98"/>
<polygon fill="midnightblue" stroke="midnightblue" points="436.89,-101.5 446.89,-98 436.89,-94.5 436.89,-101.5"/>
</g>
<!-- Node9 -->
<g id="node9" class="node">
<title>Node9</title>
<g id="a_node9"><a xlink:href="classSetNameCommand.html#aca427dcc4590c0eb0033885efc28fcf2" target="_top" xlink:title="Returns a list of CLI option names required by this command.">
<polygon fill="none" stroke="black" points="241,-39 241,-69 399,-69 399,-39 241,-39"/>
<text text-anchor="start" x="249" y="-57" font-family="Helvetica,sans-Serif" font-size="10.00">SetNameCommand::required</text>
<text text-anchor="middle" x="320" y="-46" font-family="Helvetica,sans-Serif" font-size="10.00">Options</text>
</a>
</g>
</g>
<!-- Node1&#45;&gt;Node9 -->
<g id="edge8" class="edge">
<title>Node1&#45;&gt;Node9</title>
<path fill="none" stroke="midnightblue" d="M481.5,-86.47C455.2,-81.15 423.63,-74.76 395.47,-69.07"/>
<polygon fill="midnightblue" stroke="midnightblue" points="480.81,-89.9 491.31,-88.45 482.2,-83.04 480.81,-89.9"/>
</g>
<!-- Node10 -->
<g id="node10" class="node">
<title>Node10</title>
<g id="a_node10"><a xlink:href="classStatusCommand.html#aa2345f5f5e6453ca4364c78ca476c427" target="_top" xlink:title="Returns a list of CLI option names required by this command.">
<polygon fill="none" stroke="black" points="229,-0.5 229,-19.5 411,-19.5 411,-0.5 229,-0.5"/>
<text text-anchor="middle" x="320" y="-7.5" font-family="Helvetica,sans-Serif" font-size="10.00">StatusCommand::requiredOptions</text>
</a>
</g>
</g>
<!-- Node1&#45;&gt;Node10 -->
<g id="edge9" class="edge">
<title>Node1&#45;&gt;Node10</title>
<path fill="none" stroke="midnightblue" d="M515.56,-82.94C490.75,-67.3 449.55,-43.16 411,-29 400.66,-25.2 389.35,-22.07 378.35,-19.52"/>
<polygon fill="midnightblue" stroke="midnightblue" points="513.92,-86.05 524.23,-88.49 517.69,-80.15 513.92,-86.05"/>
</g>
<!-- Node3 -->
<g id="node3" class="node">
<title>Node3</title>
<g id="a_node3"><a xlink:href="classFlashLedCommand.html#ab2062e5ec29315ca83589a7302f7ae6f" target="_top" xlink:title="Processes the relevant options from the command line parser.">
<polygon fill="none" stroke="black" points="19.5,-234 19.5,-264 173.5,-264 173.5,-234 19.5,-234"/>
<text text-anchor="start" x="27.5" y="-252" font-family="Helvetica,sans-Serif" font-size="10.00">FlashLedCommand::process</text>
<text text-anchor="middle" x="96.5" y="-241" font-family="Helvetica,sans-Serif" font-size="10.00">Options</text>
</a>
</g>
</g>
<!-- Node2&#45;&gt;Node3 -->
<g id="edge2" class="edge">
<title>Node2&#45;&gt;Node3</title>
<path fill="none" stroke="midnightblue" d="M278.8,-198.54C254.11,-206.13 221.8,-215.89 193,-224 181.2,-227.32 168.55,-230.74 156.43,-233.94"/>
<polygon fill="midnightblue" stroke="midnightblue" points="280.02,-201.82 288.54,-195.53 277.95,-195.14 280.02,-201.82"/>
</g>
<!-- Node4 -->
<g id="node4" class="node">
<title>Node4</title>
<g id="a_node4"><a xlink:href="classInfoCommand.html#a7d815cb4b0133025e4354649e2cd7a6a" target="_top" xlink:title="Processes the relevant options from the command line parser.">
<polygon fill="none" stroke="black" points="13,-195.5 13,-214.5 180,-214.5 180,-195.5 13,-195.5"/>
<text text-anchor="middle" x="96.5" y="-202.5" font-family="Helvetica,sans-Serif" font-size="10.00">InfoCommand::processOptions</text>
</a>
</g>
</g>
<!-- Node2&#45;&gt;Node4 -->
<g id="edge3" class="edge">
<title>Node2&#45;&gt;Node4</title>
<path fill="none" stroke="midnightblue" d="M218.61,-194.61C205.7,-195.72 192.6,-196.84 180.02,-197.92"/>
<polygon fill="midnightblue" stroke="midnightblue" points="219.24,-198.07 228.91,-193.73 218.64,-191.1 219.24,-198.07"/>
</g>
<!-- Node5 -->
<g id="node5" class="node">
<title>Node5</title>
<g id="a_node5"><a xlink:href="classSetNameCommand.html#aac72587ddb035857cd224d843fc3d00c" target="_top" xlink:title="Processes the relevant options from the command line parser.">
<polygon fill="none" stroke="black" points="0,-157.5 0,-176.5 193,-176.5 193,-157.5 0,-157.5"/>
<text text-anchor="middle" x="96.5" y="-164.5" font-family="Helvetica,sans-Serif" font-size="10.00">SetNameCommand::processOptions</text>
</a>
</g>
</g>
<!-- Node2&#45;&gt;Node5 -->
<g id="edge4" class="edge">
<title>Node2&#45;&gt;Node5</title>
<path fill="none" stroke="midnightblue" d="M218.94,-177.42C210.41,-176.68 201.78,-175.95 193.28,-175.22"/>
<polygon fill="midnightblue" stroke="midnightblue" points="218.64,-180.9 228.91,-178.27 219.24,-173.93 218.64,-180.9"/>
</g>
<!-- Node6 -->
<g id="node6" class="node">
<title>Node6</title>
<g id="a_node6"><a xlink:href="classStatusCommand.html#a951404b4913fd4b341899d654a2abe72" target="_top" xlink:title="Processes the relevant options from the command line parser.">
<polygon fill="none" stroke="black" points="7,-119.5 7,-138.5 186,-138.5 186,-119.5 7,-119.5"/>
<text text-anchor="middle" x="96.5" y="-126.5" font-family="Helvetica,sans-Serif" font-size="10.00">StatusCommand::processOptions</text>
</a>
</g>
</g>
<!-- Node2&#45;&gt;Node6 -->
<g id="edge5" class="edge">
<title>Node2&#45;&gt;Node6</title>
<path fill="none" stroke="midnightblue" d="M256.12,-174.1C246.92,-171.76 237.64,-169.07 229,-166 212.14,-160.01 209.92,-153.8 193,-148 181.97,-144.22 169.94,-141.1 158.26,-138.55"/>
<polygon fill="midnightblue" stroke="midnightblue" points="255.5,-177.55 266.04,-176.5 257.14,-170.75 255.5,-177.55"/>
</g>
</g>
</svg>
