<?xml version="1.0" encoding="UTF-8" standalone="no"?>
<!DOCTYPE svg PUBLIC "-//W3C//DTD SVG 1.1//EN"
 "http://www.w3.org/Graphics/SVG/1.1/DTD/svg11.dtd">
<!-- Generated by graphviz version 2.43.0 (0)
 -->
<!-- Title: DeviceCommand Pages: 1 -->
<svg width="783pt" height="219pt"
 viewBox="0.00 0.00 782.50 219.00" xmlns="http://www.w3.org/2000/svg" xmlns:xlink="http://www.w3.org/1999/xlink">
<g id="graph0" class="graph" transform="scale(1 1) rotate(0) translate(4 215)">
<title>DeviceCommand</title>
<!-- Node1 -->
<g id="node1" class="node">
<title>Node1</title>
<g id="a_node1"><a xlink:title="The AbstractCommand class extends AbstractCommand to add a PokitDevice instance.">
<polygon fill="#bfbfbf" stroke="black" points="98,-67.5 98,-86.5 199,-86.5 199,-67.5 98,-67.5"/>
<text text-anchor="middle" x="148.5" y="-74.5" font-family="Helvetica,sans-Serif" font-size="10.00">DeviceCommand</text>
</a>
</g>
</g>
<!-- Node2 -->
<g id="node2" class="node">
<title>Node2</title>
<g id="a_node2"><a xlink:href="classAbstractCommand.html" target="_top" xlink:title="The AbstractCommand class provides a consistent base for the classes that implement CLI commands.">
<polygon fill="none" stroke="black" points="93,-134.5 93,-153.5 200,-153.5 200,-134.5 93,-134.5"/>
<text text-anchor="middle" x="146.5" y="-141.5" font-family="Helvetica,sans-Serif" font-size="10.00">AbstractCommand</text>
</a>
</g>
</g>
<!-- Node2&#45;&gt;Node1 -->
<g id="edge1" class="edge">
<title>Node2&#45;&gt;Node1</title>
<path fill="none" stroke="midnightblue" d="M147.08,-124.04C147.46,-111.67 147.94,-96.12 148.23,-86.63"/>
<polygon fill="midnightblue" stroke="midnightblue" points="143.58,-124.13 146.77,-134.23 150.58,-124.35 143.58,-124.13"/>
</g>
<!-- Node3 -->
<g id="node3" class="node">
<title>Node3</title>
<g id="a_node3"><a xlink:title=" ">
<polygon fill="none" stroke="#bfbfbf" points="200.5,-191.5 200.5,-210.5 256.5,-210.5 256.5,-191.5 200.5,-191.5"/>
<text text-anchor="middle" x="228.5" y="-198.5" font-family="Helvetica,sans-Serif" font-size="10.00">QObject</text>
</a>
</g>
</g>
<!-- Node3&#45;&gt;Node2 -->
<g id="edge2" class="edge">
<title>Node3&#45;&gt;Node2</title>
<path fill="none" stroke="midnightblue" d="M207.37,-185.82C192.13,-175.61 172.07,-162.15 159.22,-153.53"/>
<polygon fill="midnightblue" stroke="midnightblue" points="205.43,-188.74 215.69,-191.41 209.33,-182.93 205.43,-188.74"/>
</g>
<!-- Node4 -->
<g id="node4" class="node">
<title>Node4</title>
<g id="a_node4"><a xlink:href="classPokitDevice.html" target="_top" xlink:title="The PokitDevice class simplifies Pokit device access.">
<polygon fill="none" stroke="black" points="0,-134.5 0,-153.5 75,-153.5 75,-134.5 0,-134.5"/>
<text text-anchor="middle" x="37.5" y="-141.5" font-family="Helvetica,sans-Serif" font-size="10.00">PokitDevice</text>
</a>
</g>
</g>
<!-- Node3&#45;&gt;Node4 -->
<g id="edge4" class="edge">
<title>Node3&#45;&gt;Node4</title>
<path fill="none" stroke="midnightblue" d="M190.58,-189.08C154.28,-178.63 100.27,-163.08 67.06,-153.51"/>
<polygon fill="midnightblue" stroke="midnightblue" points="189.74,-192.48 200.32,-191.88 191.68,-185.75 189.74,-192.48"/>
</g>
<!-- Node5 -->
<g id="node5" class="node">
<title>Node5</title>
<g id="a_node5"><a xlink:href="classPokitDevicePrivate.html" target="_top" xlink:title="The PokitDevicePrivate class provides private implementation for PokitDevice.">
<polygon fill="none" stroke="black" points="240.5,-0.5 240.5,-19.5 350.5,-19.5 350.5,-0.5 240.5,-0.5"/>
<text text-anchor="middle" x="295.5" y="-7.5" font-family="Helvetica,sans-Serif" font-size="10.00">PokitDevicePrivate</text>
</a>
</g>
</g>
<!-- Node3&#45;&gt;Node5 -->
<g id="edge6" class="edge">
<title>Node3&#45;&gt;Node5</title>
<path fill="none" stroke="midnightblue" d="M227.72,-181.26C227.33,-154.63 229.28,-104.88 246.5,-67 255.37,-47.48 273.34,-29.73 284.88,-19.66"/>
<polygon fill="midnightblue" stroke="midnightblue" points="224.22,-181.55 228,-191.45 231.22,-181.35 224.22,-181.55"/>
</g>
<!-- Node7 -->
<g id="node7" class="node">
<title>Node7</title>
<g id="a_node7"><a xlink:href="classAbstractPokitService.html" target="_top" xlink:title="The AbstractPokitService class provides a common base for Pokit services classes.">
<polygon fill="none" stroke="black" points="376.5,-134.5 376.5,-153.5 494.5,-153.5 494.5,-134.5 376.5,-134.5"/>
<text text-anchor="middle" x="435.5" y="-141.5" font-family="Helvetica,sans-Serif" font-size="10.00">AbstractPokitService</text>
</a>
</g>
</g>
<!-- Node3&#45;&gt;Node7 -->
<g id="edge9" class="edge">
<title>Node3&#45;&gt;Node7</title>
<path fill="none" stroke="midnightblue" d="M266.6,-189.88C305.89,-179.44 366.49,-163.34 403.42,-153.52"/>
<polygon fill="midnightblue" stroke="midnightblue" points="265.61,-186.52 256.85,-192.47 267.41,-193.28 265.61,-186.52"/>
</g>
<!-- Node8 -->
<g id="node8" class="node">
<title>Node8</title>
<g id="a_node8"><a xlink:href="classAbstractPokitServicePrivate.html" target="_top" xlink:title="The AbstractPokitServicePrivate class provides private implementation for AbstractPokitService.">
<polygon fill="none" stroke="black" points="255.5,-67.5 255.5,-86.5 407.5,-86.5 407.5,-67.5 255.5,-67.5"/>
<text text-anchor="middle" x="331.5" y="-74.5" font-family="Helvetica,sans-Serif" font-size="10.00">AbstractPokitServicePrivate</text>
</a>
</g>
</g>
<!-- Node3&#45;&gt;Node8 -->
<g id="edge11" class="edge">
<title>Node3&#45;&gt;Node8</title>
<path fill="none" stroke="midnightblue" d="M242.6,-183.3C264.81,-156.99 307.15,-106.84 324.16,-86.69"/>
<polygon fill="midnightblue" stroke="midnightblue" points="239.68,-181.33 235.91,-191.23 245.03,-185.84 239.68,-181.33"/>
</g>
<!-- Node4&#45;&gt;Node1 -->
<g id="edge3" class="edge">
<title>Node4&#45;&gt;Node1</title>
<path fill="none" stroke="#9a32cd" stroke-dasharray="5,2" d="M61.21,-129.12C83.2,-116.24 115.24,-97.48 133.77,-86.63"/>
<polygon fill="#9a32cd" stroke="#9a32cd" points="59.33,-126.16 52.47,-134.23 62.87,-132.2 59.33,-126.16"/>
<text text-anchor="middle" x="118.5" y="-108" font-family="Helvetica,sans-Serif" font-size="10.00"> device</text>
</g>
<!-- Node4&#45;&gt;Node5 -->
<g id="edge17" class="edge">
<title>Node4&#45;&gt;Node5</title>
<path fill="none" stroke="#9a32cd" stroke-dasharray="5,2" d="M24.68,-125.69C14.28,-109.33 3.18,-84.73 15.5,-67 40.68,-30.77 166.21,-17.85 240.37,-13.34"/>
<polygon fill="#9a32cd" stroke="#9a32cd" points="22.01,-127.98 30.55,-134.25 27.79,-124.02 22.01,-127.98"/>
<text text-anchor="middle" x="29.5" y="-74.5" font-family="Helvetica,sans-Serif" font-size="10.00"> q_ptr</text>
</g>
<!-- Node5&#45;&gt;Node4 -->
<g id="edge5" class="edge">
<title>Node5&#45;&gt;Node4</title>
<path fill="none" stroke="#9a32cd" stroke-dasharray="5,2" d="M230.47,-19.16C169.7,-28.05 84.79,-44.12 60.5,-67 41.33,-85.05 37.96,-118.47 37.49,-134.28"/>
<polygon fill="#9a32cd" stroke="#9a32cd" points="230.97,-22.62 240.38,-17.74 229.98,-15.69 230.97,-22.62"/>
<text text-anchor="middle" x="74.5" y="-74.5" font-family="Helvetica,sans-Serif" font-size="10.00"> d_ptr</text>
</g>
<!-- Node6 -->
<g id="node6" class="node">
<title>Node6</title>
<g id="a_node6"><a xlink:href="classDeviceInfoService.html" target="_top" xlink:title="The DeviceInfoService class accesses the Device Info service of Pokit devices.">
<polygon fill="none" stroke="black" points="527,-67.5 527,-86.5 632,-86.5 632,-67.5 527,-67.5"/>
<text text-anchor="middle" x="579.5" y="-74.5" font-family="Helvetica,sans-Serif" font-size="10.00">DeviceInfoService</text>
</a>
</g>
</g>
<!-- Node6&#45;&gt;Node5 -->
<g id="edge7" class="edge">
<title>Node6&#45;&gt;Node5</title>
<path fill="none" stroke="#9a32cd" stroke-dasharray="5,2" d="M538,-64.9C507.96,-57.01 466.33,-46.37 429.5,-38 399.99,-31.29 366.64,-24.57 340.59,-19.51"/>
<polygon fill="#9a32cd" stroke="#9a32cd" points="537.15,-68.3 547.71,-67.46 538.94,-61.53 537.15,-68.3"/>
<text text-anchor="middle" x="502" y="-41" font-family="Helvetica,sans-Serif" font-size="10.00"> deviceInfo</text>
</g>
<!-- Node7&#45;&gt;Node6 -->
<g id="edge8" class="edge">
<title>Node7&#45;&gt;Node6</title>
<path fill="none" stroke="midnightblue" d="M464.05,-130.11C492.57,-117.24 535.62,-97.81 560.3,-86.67"/>
<polygon fill="midnightblue" stroke="midnightblue" points="462.3,-127.06 454.62,-134.37 465.18,-133.44 462.3,-127.06"/>
</g>
<!-- Node7&#45;&gt;Node8 -->
<g id="edge12" class="edge">
<title>Node7&#45;&gt;Node8</title>
<path fill="none" stroke="#9a32cd" stroke-dasharray="5,2" d="M417.58,-127.68C408.57,-120.36 397.3,-111.74 386.5,-105 375.31,-98.02 362.06,-91.46 351.36,-86.56"/>
<polygon fill="#9a32cd" stroke="#9a32cd" points="415.5,-130.51 425.43,-134.21 419.98,-125.12 415.5,-130.51"/>
<text text-anchor="middle" x="415.5" y="-108" font-family="Helvetica,sans-Serif" font-size="10.00"> q_ptr</text>
</g>
<!-- Node9 -->
<g id="node9" class="node">
<title>Node9</title>
<g id="a_node9"><a xlink:href="classGenericAccessService.html" target="_top" xlink:title="The GenericAccessService class accesses the Generic Access service of Pokit devices.">
<polygon fill="none" stroke="black" points="650.5,-67.5 650.5,-86.5 774.5,-86.5 774.5,-67.5 650.5,-67.5"/>
<text text-anchor="middle" x="712.5" y="-74.5" font-family="Helvetica,sans-Serif" font-size="10.00">GenericAccessService</text>
</a>
</g>
</g>
<!-- Node7&#45;&gt;Node9 -->
<g id="edge14" class="edge">
<title>Node7&#45;&gt;Node9</title>
<path fill="none" stroke="midnightblue" d="M481.76,-132.14C536.34,-119.34 625.95,-98.31 675.92,-86.58"/>
<polygon fill="midnightblue" stroke="midnightblue" points="480.93,-128.74 472,-134.44 482.53,-135.56 480.93,-128.74"/>
</g>
<!-- Node10 -->
<g id="node10" class="node">
<title>Node10</title>
<g id="a_node10"><a xlink:href="classStatusService.html" target="_top" xlink:title="The StatusService class accesses the Pokit Status service of Pokit devices.">
<polygon fill="none" stroke="black" points="426,-67.5 426,-86.5 509,-86.5 509,-67.5 426,-67.5"/>
<text text-anchor="middle" x="467.5" y="-74.5" font-family="Helvetica,sans-Serif" font-size="10.00">StatusService</text>
</a>
</g>
</g>
<!-- Node7&#45;&gt;Node10 -->
<g id="edge16" class="edge">
<title>Node7&#45;&gt;Node10</title>
<path fill="none" stroke="midnightblue" d="M444.28,-125.16C450.45,-112.63 458.44,-96.41 463.25,-86.63"/>
<polygon fill="midnightblue" stroke="midnightblue" points="441.09,-123.72 439.82,-134.23 447.37,-126.81 441.09,-123.72"/>
</g>
<!-- Node8&#45;&gt;Node7 -->
<g id="edge10" class="edge">
<title>Node8&#45;&gt;Node7</title>
<path fill="none" stroke="#9a32cd" stroke-dasharray="5,2" d="M340.89,-95.76C345.4,-102.88 351.39,-110.65 358.5,-116 369.59,-124.35 383.48,-130.26 396.39,-134.38"/>
<polygon fill="#9a32cd" stroke="#9a32cd" points="343.71,-93.65 335.68,-86.74 337.65,-97.15 343.71,-93.65"/>
<text text-anchor="middle" x="372.5" y="-108" font-family="Helvetica,sans-Serif" font-size="10.00"> d_ptr</text>
</g>
<!-- Node9&#45;&gt;Node5 -->
<g id="edge13" class="edge">
<title>Node9&#45;&gt;Node5</title>
<path fill="none" stroke="#9a32cd" stroke-dasharray="5,2" d="M667.17,-65.12C631.12,-56.76 579.31,-45.44 533.5,-38 471.11,-27.86 398.9,-20.24 350.53,-15.73"/>
<polygon fill="#9a32cd" stroke="#9a32cd" points="666.83,-68.63 677.37,-67.49 668.42,-61.81 666.83,-68.63"/>
<text text-anchor="middle" x="629" y="-41" font-family="Helvetica,sans-Serif" font-size="10.00"> genericAccess</text>
</g>
<!-- Node10&#45;&gt;Node5 -->
<g id="edge15" class="edge">
<title>Node10&#45;&gt;Node5</title>
<path fill="none" stroke="#9a32cd" stroke-dasharray="5,2" d="M435.14,-63.77C401,-50.87 348.09,-30.88 318.16,-19.56"/>
<polygon fill="#9a32cd" stroke="#9a32cd" points="434.07,-67.11 444.66,-67.37 436.54,-60.56 434.07,-67.11"/>
<text text-anchor="middle" x="408.5" y="-41" font-family="Helvetica,sans-Serif" font-size="10.00"> status</text>
</g>
</g>
</svg>
