<?xml version="1.0" encoding="UTF-8" standalone="no"?>
<!DOCTYPE svg PUBLIC "-//W3C//DTD SVG 1.1//EN"
 "http://www.w3.org/Graphics/SVG/1.1/DTD/svg11.dtd">
<!-- Generated by graphviz version 2.43.0 (0)
 -->
<!-- Title: DeviceCommand::serviceDetailsDiscovered Pages: 1 -->
<svg width="414pt" height="274pt"
 viewBox="0.00 0.00 414.00 273.50" xmlns="http://www.w3.org/2000/svg" xmlns:xlink="http://www.w3.org/1999/xlink">
<g id="graph0" class="graph" transform="scale(1 1) rotate(0) translate(4 269.5)">
<title>DeviceCommand::serviceDetailsDiscovered</title>
<!-- Node1 -->
<g id="node1" class="node">
<title>Node1</title>
<g id="a_node1"><a xlink:title="Handles service detail discovery events.">
<polygon fill="#bfbfbf" stroke="black" points="230,-122.5 230,-152.5 406,-152.5 406,-122.5 230,-122.5"/>
<text text-anchor="start" x="238" y="-140.5" font-family="Helvetica,sans-Serif" font-size="10.00">DeviceCommand::serviceDetails</text>
<text text-anchor="middle" x="318" y="-129.5" font-family="Helvetica,sans-Serif" font-size="10.00">Discovered</text>
</a>
</g>
</g>
<!-- Node2 -->
<g id="node2" class="node">
<title>Node2</title>
<g id="a_node2"><a xlink:href="classDeviceCommand.html#acde5a41e646a23c5485b67cf99e402a7" target="_top" xlink:title="Checks if info is the device (if any) we&#39;re looking for, and if so, create a contoller and service,...">
<polygon fill="none" stroke="black" points="0,-246 0,-265 194,-265 194,-246 0,-246"/>
<text text-anchor="middle" x="97" y="-253" font-family="Helvetica,sans-Serif" font-size="10.00">DeviceCommand::deviceDiscovered</text>
</a>
</g>
</g>
<!-- Node1&#45;&gt;Node2 -->
<g id="edge1" class="edge">
<title>Node1&#45;&gt;Node2</title>
<path fill="none" stroke="midnightblue" d="M295.97,-159.89C273.1,-182.8 234.4,-217.65 194,-236.5 185.61,-240.42 176.44,-243.52 167.2,-245.99"/>
<polygon fill="midnightblue" stroke="midnightblue" points="298.59,-162.2 303.09,-152.61 293.59,-157.31 298.59,-162.2"/>
</g>
<!-- Node3 -->
<g id="node3" class="node">
<title>Node3</title>
<g id="a_node3"><a xlink:href="classCalibrationCommand.html#a34c5b94d0b2c54f3ff81e3abd8e13516" target="_top" xlink:title="Handles service detail discovery events.">
<polygon fill="none" stroke="black" points="23.5,-196.5 23.5,-226.5 170.5,-226.5 170.5,-196.5 23.5,-196.5"/>
<text text-anchor="start" x="31.5" y="-214.5" font-family="Helvetica,sans-Serif" font-size="10.00">CalibrationCommand</text>
<text text-anchor="middle" x="97" y="-203.5" font-family="Helvetica,sans-Serif" font-size="10.00">::serviceDetailsDiscovered</text>
</a>
</g>
</g>
<!-- Node1&#45;&gt;Node3 -->
<g id="edge2" class="edge">
<title>Node1&#45;&gt;Node3</title>
<path fill="none" stroke="midnightblue" d="M274.25,-156.61C250.84,-166.64 221.16,-178.64 194,-187.5 184.2,-190.7 173.72,-193.72 163.42,-196.46"/>
<polygon fill="midnightblue" stroke="midnightblue" points="275.75,-159.78 283.54,-152.6 272.97,-153.35 275.75,-159.78"/>
</g>
<!-- Node4 -->
<g id="node4" class="node">
<title>Node4</title>
<g id="a_node4"><a xlink:href="classFlashLedCommand.html#af1d7d155b35b4a3d6301b2653c0d7eb7" target="_top" xlink:title="Handles service detail discovery events.">
<polygon fill="none" stroke="black" points="21,-147.5 21,-177.5 173,-177.5 173,-147.5 21,-147.5"/>
<text text-anchor="start" x="29" y="-165.5" font-family="Helvetica,sans-Serif" font-size="10.00">FlashLedCommand::service</text>
<text text-anchor="middle" x="97" y="-154.5" font-family="Helvetica,sans-Serif" font-size="10.00">DetailsDiscovered</text>
</a>
</g>
</g>
<!-- Node1&#45;&gt;Node4 -->
<g id="edge3" class="edge">
<title>Node1&#45;&gt;Node4</title>
<path fill="none" stroke="midnightblue" d="M219.65,-148.61C204.08,-150.39 188.18,-152.21 173.22,-153.91"/>
<polygon fill="midnightblue" stroke="midnightblue" points="220.28,-152.06 229.82,-147.45 219.48,-145.11 220.28,-152.06"/>
</g>
<!-- Node5 -->
<g id="node5" class="node">
<title>Node5</title>
<g id="a_node5"><a xlink:href="classInfoCommand.html#a06d095d57662fd10b201d6273085c34e" target="_top" xlink:title="Handles service detail discovery events.">
<polygon fill="none" stroke="black" points="16.5,-98.5 16.5,-128.5 177.5,-128.5 177.5,-98.5 16.5,-98.5"/>
<text text-anchor="start" x="24.5" y="-116.5" font-family="Helvetica,sans-Serif" font-size="10.00">InfoCommand::serviceDetails</text>
<text text-anchor="middle" x="97" y="-105.5" font-family="Helvetica,sans-Serif" font-size="10.00">Discovered</text>
</a>
</g>
</g>
<!-- Node1&#45;&gt;Node5 -->
<g id="edge4" class="edge">
<title>Node1&#45;&gt;Node5</title>
<path fill="none" stroke="midnightblue" d="M219.68,-126.83C205.67,-125.3 191.39,-123.73 177.78,-122.24"/>
<polygon fill="midnightblue" stroke="midnightblue" points="219.49,-130.34 229.82,-127.95 220.26,-123.38 219.49,-130.34"/>
</g>
<!-- Node6 -->
<g id="node6" class="node">
<title>Node6</title>
<g id="a_node6"><a xlink:href="classMultimeterCommand.html#ab5fe0af3f386789d6cf89487e587b767" target="_top" xlink:title="Handles service detail discovery events.">
<polygon fill="none" stroke="black" points="26.5,-49.5 26.5,-79.5 167.5,-79.5 167.5,-49.5 26.5,-49.5"/>
<text text-anchor="start" x="34.5" y="-67.5" font-family="Helvetica,sans-Serif" font-size="10.00">MultimeterCommand::</text>
<text text-anchor="middle" x="97" y="-56.5" font-family="Helvetica,sans-Serif" font-size="10.00">serviceDetailsDiscovered</text>
</a>
</g>
</g>
<!-- Node1&#45;&gt;Node6 -->
<g id="edge5" class="edge">
<title>Node1&#45;&gt;Node6</title>
<path fill="none" stroke="midnightblue" d="M272.08,-118.51C248.98,-109.12 220.24,-98 194,-89.5 183.1,-85.97 171.39,-82.59 160.02,-79.51"/>
<polygon fill="midnightblue" stroke="midnightblue" points="271.03,-121.86 281.61,-122.41 273.68,-115.38 271.03,-121.86"/>
</g>
<!-- Node7 -->
<g id="node7" class="node">
<title>Node7</title>
<g id="a_node7"><a xlink:href="classStatusCommand.html#af275e3a02032915dd27e0c0e041ff6c1" target="_top" xlink:title="Handles service detail discovery events.">
<polygon fill="none" stroke="black" points="10.5,-0.5 10.5,-30.5 183.5,-30.5 183.5,-0.5 10.5,-0.5"/>
<text text-anchor="start" x="18.5" y="-18.5" font-family="Helvetica,sans-Serif" font-size="10.00">StatusCommand::serviceDetails</text>
<text text-anchor="middle" x="97" y="-7.5" font-family="Helvetica,sans-Serif" font-size="10.00">Discovered</text>
</a>
</g>
</g>
<!-- Node1&#45;&gt;Node7 -->
<g id="edge6" class="edge">
<title>Node1&#45;&gt;Node7</title>
<path fill="none" stroke="midnightblue" d="M294.88,-115.32C271.66,-93.25 233.17,-59.97 194,-40.5 186.29,-36.67 177.93,-33.38 169.46,-30.57"/>
<polygon fill="midnightblue" stroke="midnightblue" points="292.52,-117.9 302.14,-122.33 297.38,-112.87 292.52,-117.9"/>
</g>
</g>
</svg>
