<?xml version="1.0" encoding="UTF-8" standalone="no"?>
<!DOCTYPE svg PUBLIC "-//W3C//DTD SVG 1.1//EN"
 "http://www.w3.org/Graphics/SVG/1.1/DTD/svg11.dtd">
<!-- Generated by graphviz version 2.43.0 (0)
 -->
<!-- Title: MultimeterCommand::getService Pages: 1 -->
<svg width="820pt" height="705pt"
 viewBox="0.00 0.00 820.00 705.44" xmlns="http://www.w3.org/2000/svg" xmlns:xlink="http://www.w3.org/1999/xlink">
<g id="graph0" class="graph" transform="scale(1 1) rotate(0) translate(4 701.44)">
<title>MultimeterCommand::getService</title>
<!-- Node1 -->
<g id="node1" class="node">
<title>Node1</title>
<g id="a_node1"><a xlink:title="Returns a Pokit service object for the derived command class.">
<polygon fill="#bfbfbf" stroke="black" points="0,-377.34 0,-407.34 127,-407.34 127,-377.34 0,-377.34"/>
<text text-anchor="start" x="8" y="-395.34" font-family="Helvetica,sans-Serif" font-size="10.00">MultimeterCommand::</text>
<text text-anchor="middle" x="63.5" y="-384.34" font-family="Helvetica,sans-Serif" font-size="10.00">getService</text>
</a>
</g>
</g>
<!-- Node2 -->
<g id="node2" class="node">
<title>Node2</title>
<g id="a_node2"><a target="_parent" xlink:href="https://doc.qt.io/qt-5/qobject.html#connect" xlink:title=" ">
<polygon fill="none" stroke="black" points="348.5,-435.84 348.5,-454.84 448.5,-454.84 448.5,-435.84 348.5,-435.84"/>
<text text-anchor="middle" x="398.5" y="-442.84" font-family="Helvetica,sans-Serif" font-size="10.00">QObject::connect</text>
</a>
</g>
</g>
<!-- Node1&#45;&gt;Node2 -->
<g id="edge1" class="edge">
<title>Node1&#45;&gt;Node2</title>
<path fill="none" stroke="midnightblue" d="M97.5,-407.49C116.29,-415.41 140.51,-424.45 163,-429.34 221.7,-442.08 290.43,-445.46 338.24,-446.03"/>
<polygon fill="midnightblue" stroke="midnightblue" points="338.39,-449.53 348.42,-446.11 338.45,-442.53 338.39,-449.53"/>
</g>
<!-- Node3 -->
<g id="node3" class="node">
<title>Node3</title>
<g id="a_node3"><a xlink:href="classPokitDevice.html#a7b4467f667ace65992a8fd152e9799ce" target="_top" xlink:title="Returns a pointer to MultimeterService instance that uses this device&#39;s controller for access.">
<polygon fill="none" stroke="black" points="163,-382.84 163,-401.84 299,-401.84 299,-382.84 163,-382.84"/>
<text text-anchor="middle" x="231" y="-389.84" font-family="Helvetica,sans-Serif" font-size="10.00">PokitDevice::multimeter</text>
</a>
</g>
</g>
<!-- Node1&#45;&gt;Node3 -->
<g id="edge2" class="edge">
<title>Node1&#45;&gt;Node3</title>
<path fill="none" stroke="midnightblue" d="M127.07,-392.34C135.49,-392.34 144.21,-392.34 152.84,-392.34"/>
<polygon fill="midnightblue" stroke="midnightblue" points="152.92,-395.84 162.92,-392.34 152.92,-388.84 152.92,-395.84"/>
</g>
<!-- Node4 -->
<g id="node4" class="node">
<title>Node4</title>
<g id="a_node4"><a xlink:href="classMultimeterCommand.html#a683a039618a2750b032c5de7f0d3eeee" target="_top" xlink:title="Invoked when the multimeter settings have been written, to begin reading the meter values.">
<polygon fill="none" stroke="black" points="167.5,-333.34 167.5,-363.34 294.5,-363.34 294.5,-333.34 167.5,-333.34"/>
<text text-anchor="start" x="175.5" y="-351.34" font-family="Helvetica,sans-Serif" font-size="10.00">MultimeterCommand::</text>
<text text-anchor="middle" x="231" y="-340.34" font-family="Helvetica,sans-Serif" font-size="10.00">settingsWritten</text>
</a>
</g>
</g>
<!-- Node1&#45;&gt;Node4 -->
<g id="edge4" class="edge">
<title>Node1&#45;&gt;Node4</title>
<path fill="none" stroke="midnightblue" d="M120.99,-377.32C134.76,-373.66 149.62,-369.71 163.8,-365.94"/>
<polygon fill="midnightblue" stroke="midnightblue" points="164.72,-369.31 173.48,-363.36 162.92,-362.55 164.72,-369.31"/>
</g>
<!-- Node3&#45;&gt;Node3 -->
<g id="edge3" class="edge">
<title>Node3&#45;&gt;Node3</title>
<path fill="none" stroke="midnightblue" d="M205.41,-402.09C192.97,-410.9 201.5,-420.34 231,-420.34 250.82,-420.34 261.18,-416.08 262.06,-410.61"/>
<polygon fill="midnightblue" stroke="midnightblue" points="264.94,-408.61 256.59,-402.09 259.05,-412.4 264.94,-408.61"/>
</g>
<!-- Node4&#45;&gt;Node2 -->
<g id="edge6" class="edge">
<title>Node4&#45;&gt;Node2</title>
<path fill="none" stroke="midnightblue" d="M282.36,-363.41C288.25,-366.23 293.95,-369.52 299,-373.34 320.56,-389.63 313.4,-406.09 335,-422.34 339.85,-425.99 345.35,-429.11 351.01,-431.76"/>
<polygon fill="midnightblue" stroke="midnightblue" points="350.06,-435.16 360.63,-435.8 352.77,-428.7 350.06,-435.16"/>
</g>
<!-- Node5 -->
<g id="node5" class="node">
<title>Node5</title>
<g id="a_node5"><a xlink:href="classMultimeterService.html#a371ead0ff91d92494ddb8bf9eba56b31" target="_top" xlink:title="Requests the Pokit device to begin reporting multimeter reads.">
<polygon fill="none" stroke="black" points="340,-382.34 340,-412.34 457,-412.34 457,-382.34 340,-382.34"/>
<text text-anchor="start" x="348" y="-400.34" font-family="Helvetica,sans-Serif" font-size="10.00">MultimeterService::</text>
<text text-anchor="middle" x="398.5" y="-389.34" font-family="Helvetica,sans-Serif" font-size="10.00">beginClientReadings</text>
</a>
</g>
</g>
<!-- Node4&#45;&gt;Node5 -->
<g id="edge5" class="edge">
<title>Node4&#45;&gt;Node5</title>
<path fill="none" stroke="midnightblue" d="M283.01,-363.44C300.07,-368.49 319.27,-374.17 336.99,-379.42"/>
<polygon fill="midnightblue" stroke="midnightblue" points="336.08,-382.8 346.66,-382.28 338.07,-376.09 336.08,-382.8"/>
</g>
<!-- Node6 -->
<g id="node6" class="node">
<title>Node6</title>
<g id="a_node6"><a xlink:href="classMultimeterCommand.html#a98e7c6c3cdab141604fe48aa72162175" target="_top" xlink:title="Outputs meter reading in the selected ouput format.">
<polygon fill="none" stroke="black" points="335,-333.34 335,-363.34 462,-363.34 462,-333.34 335,-333.34"/>
<text text-anchor="start" x="343" y="-351.34" font-family="Helvetica,sans-Serif" font-size="10.00">MultimeterCommand::</text>
<text text-anchor="middle" x="398.5" y="-340.34" font-family="Helvetica,sans-Serif" font-size="10.00">outputReading</text>
</a>
</g>
</g>
<!-- Node4&#45;&gt;Node6 -->
<g id="edge7" class="edge">
<title>Node4&#45;&gt;Node6</title>
<path fill="none" stroke="midnightblue" d="M294.57,-348.34C304.45,-348.34 314.75,-348.34 324.84,-348.34"/>
<polygon fill="midnightblue" stroke="midnightblue" points="324.84,-351.84 334.84,-348.34 324.84,-344.84 324.84,-351.84"/>
</g>
<!-- Node16 -->
<g id="node16" class="node">
<title>Node16</title>
<g id="a_node16"><a target="_parent" xlink:href="https://doc.qt.io/qt-5/qobject.html#tr" xlink:title=" ">
<polygon fill="none" stroke="black" points="721.5,-294.84 721.5,-313.84 790.5,-313.84 790.5,-294.84 721.5,-294.84"/>
<text text-anchor="middle" x="756" y="-301.84" font-family="Helvetica,sans-Serif" font-size="10.00">QObject::tr</text>
</a>
</g>
</g>
<!-- Node4&#45;&gt;Node16 -->
<g id="edge30" class="edge">
<title>Node4&#45;&gt;Node16</title>
<path fill="none" stroke="midnightblue" d="M238.59,-333.33C263.2,-279.4 355.75,-95.07 498,-28.34 564.79,3 604.22,14.9 664,-28.34 748.57,-89.5 755.88,-232.02 755.58,-284.49"/>
<polygon fill="midnightblue" stroke="midnightblue" points="752.07,-284.72 755.41,-294.77 759.07,-284.83 752.07,-284.72"/>
</g>
<!-- Node7 -->
<g id="node7" class="node">
<title>Node7</title>
<g id="a_node7"><a target="_parent" xlink:href="https://doc.qt.io/qt-5/qstring.html#arg-11" xlink:title=" ">
<polygon fill="none" stroke="black" points="719,-663.84 719,-682.84 793,-682.84 793,-663.84 719,-663.84"/>
<text text-anchor="middle" x="756" y="-670.84" font-family="Helvetica,sans-Serif" font-size="10.00">QString::arg</text>
</a>
</g>
</g>
<!-- Node6&#45;&gt;Node7 -->
<g id="edge8" class="edge">
<title>Node6&#45;&gt;Node7</title>
<path fill="none" stroke="midnightblue" d="M451.21,-363.4C455.3,-366.17 459,-369.45 462,-373.34 539.83,-473.99 405.2,-570.29 498,-657.34 555.52,-711.29 655.8,-698.48 712.6,-685.3"/>
<polygon fill="midnightblue" stroke="midnightblue" points="713.45,-688.7 722.34,-682.94 711.8,-681.9 713.45,-688.7"/>
</g>
<!-- Node8 -->
<g id="node8" class="node">
<title>Node8</title>
<g id="a_node8"><a xlink:href="classAbstractCommand.html#af85c842568f8a3a893e336e449ef7813" target="_top" xlink:title="Returns an RFC 4180 compliant version of field.">
<polygon fill="none" stroke="black" points="498,-617.34 498,-647.34 664,-647.34 664,-617.34 498,-617.34"/>
<text text-anchor="start" x="506" y="-635.34" font-family="Helvetica,sans-Serif" font-size="10.00">AbstractCommand::escapeCsv</text>
<text text-anchor="middle" x="581" y="-624.34" font-family="Helvetica,sans-Serif" font-size="10.00">Field</text>
</a>
</g>
</g>
<!-- Node6&#45;&gt;Node8 -->
<g id="edge9" class="edge">
<title>Node6&#45;&gt;Node8</title>
<path fill="none" stroke="midnightblue" d="M451.09,-363.49C455.2,-366.25 458.94,-369.5 462,-373.34 526.23,-453.89 432.58,-522.75 498,-602.34 500.89,-605.86 504.24,-608.96 507.89,-611.71"/>
<polygon fill="midnightblue" stroke="midnightblue" points="506.01,-614.66 516.31,-617.15 509.81,-608.78 506.01,-614.66"/>
</g>
<!-- Node10 -->
<g id="node10" class="node">
<title>Node10</title>
<g id="a_node10"><a target="_parent" xlink:href="https://doc.qt.io/qt-5/qstring.html#fromLatin1" xlink:title=" ">
<polygon fill="none" stroke="black" points="700,-581.84 700,-600.84 812,-600.84 812,-581.84 700,-581.84"/>
<text text-anchor="middle" x="756" y="-588.84" font-family="Helvetica,sans-Serif" font-size="10.00">QString::fromLatin1</text>
</a>
</g>
</g>
<!-- Node6&#45;&gt;Node10 -->
<g id="edge14" class="edge">
<title>Node6&#45;&gt;Node10</title>
<path fill="none" stroke="midnightblue" d="M450.69,-363.38C454.94,-366.16 458.82,-369.45 462,-373.34 518.1,-441.87 432.43,-509.79 498,-569.34 525.2,-594.03 623.1,-596.11 689.91,-594.42"/>
<polygon fill="midnightblue" stroke="midnightblue" points="690.04,-597.91 699.94,-594.13 689.84,-590.92 690.04,-597.91"/>
</g>
<!-- Node11 -->
<g id="node11" class="node">
<title>Node11</title>
<g id="a_node11"><a target="_parent" xlink:href="https://doc.qt.io/qt-5/qcoreapplication.html#exit" xlink:title=" ">
<polygon fill="none" stroke="black" points="518,-540.84 518,-559.84 644,-559.84 644,-540.84 518,-540.84"/>
<text text-anchor="middle" x="581" y="-547.84" font-family="Helvetica,sans-Serif" font-size="10.00">QCoreApplication::exit</text>
</a>
</g>
</g>
<!-- Node6&#45;&gt;Node11 -->
<g id="edge13" class="edge">
<title>Node6&#45;&gt;Node11</title>
<path fill="none" stroke="midnightblue" d="M450.52,-363.52C454.8,-366.27 458.74,-369.52 462,-373.34 508.79,-428.09 447.17,-480.32 498,-531.34 501.22,-534.57 504.87,-537.29 508.81,-539.59"/>
<polygon fill="midnightblue" stroke="midnightblue" points="507.29,-542.74 517.81,-543.96 510.34,-536.44 507.29,-542.74"/>
</g>
<!-- Node12 -->
<g id="node12" class="node">
<title>Node12</title>
<g id="a_node12"><a target="_parent" xlink:href="https://doc.qt.io/qt-5/qstring.html#fromUtf8" xlink:title=" ">
<polygon fill="none" stroke="black" points="529.5,-502.84 529.5,-521.84 632.5,-521.84 632.5,-502.84 529.5,-502.84"/>
<text text-anchor="middle" x="581" y="-509.84" font-family="Helvetica,sans-Serif" font-size="10.00">QString::fromUtf8</text>
</a>
</g>
</g>
<!-- Node6&#45;&gt;Node12 -->
<g id="edge15" class="edge">
<title>Node6&#45;&gt;Node12</title>
<path fill="none" stroke="midnightblue" d="M449.65,-363.38C454.22,-366.17 458.45,-369.46 462,-373.34 499.58,-414.42 457.39,-455.24 498,-493.34 504.06,-499.02 511.48,-503.12 519.35,-506.05"/>
<polygon fill="midnightblue" stroke="midnightblue" points="518.52,-509.46 529.11,-509.08 520.6,-502.78 518.52,-509.46"/>
</g>
<!-- Node13 -->
<g id="node13" class="node">
<title>Node13</title>
<g id="a_node13"><a target="_parent" xlink:href="https://doc.qt.io/qt-5/qstring.html#insert-2" xlink:title=" ">
<polygon fill="none" stroke="black" points="538,-464.84 538,-483.84 624,-483.84 624,-464.84 538,-464.84"/>
<text text-anchor="middle" x="581" y="-471.84" font-family="Helvetica,sans-Serif" font-size="10.00">QString::insert</text>
</a>
</g>
</g>
<!-- Node6&#45;&gt;Node13 -->
<g id="edge16" class="edge">
<title>Node6&#45;&gt;Node13</title>
<path fill="none" stroke="midnightblue" d="M448.56,-363.48C453.45,-366.26 458.05,-369.52 462,-373.34 490.61,-401.01 467.36,-429.93 498,-455.34 506.53,-462.41 517.19,-466.96 527.98,-469.86"/>
<polygon fill="midnightblue" stroke="midnightblue" points="527.35,-473.3 537.87,-472.08 528.88,-466.47 527.35,-473.3"/>
</g>
<!-- Node14 -->
<g id="node14" class="node">
<title>Node14</title>
<g id="a_node14"><a target="_parent" xlink:href="https://doc.qt.io/qt-5/qvariant.html#isNull" xlink:title=" ">
<polygon fill="none" stroke="black" points="535,-426.84 535,-445.84 627,-445.84 627,-426.84 535,-426.84"/>
<text text-anchor="middle" x="581" y="-433.84" font-family="Helvetica,sans-Serif" font-size="10.00">QVariant::isNull</text>
</a>
</g>
</g>
<!-- Node6&#45;&gt;Node14 -->
<g id="edge17" class="edge">
<title>Node6&#45;&gt;Node14</title>
<path fill="none" stroke="midnightblue" d="M445,-363.34C450.98,-366.21 456.82,-369.53 462,-373.34 482.37,-388.28 476.54,-403.99 498,-417.34 506.2,-422.43 515.62,-426.17 525.1,-428.9"/>
<polygon fill="midnightblue" stroke="midnightblue" points="524.39,-432.33 534.94,-431.4 526.11,-425.54 524.39,-432.33"/>
</g>
<!-- Node15 -->
<g id="node15" class="node">
<title>Node15</title>
<g id="a_node15"><a xlink:href="classMultimeterService.html#acafbc2f0d9f123634c54a14c963e88ca" target="_top" xlink:title="Returns the maximum value for range in (integer) millivolts, or the string &quot;Auto&quot;.">
<polygon fill="none" stroke="black" points="524.5,-377.34 524.5,-407.34 637.5,-407.34 637.5,-377.34 524.5,-377.34"/>
<text text-anchor="start" x="532.5" y="-395.34" font-family="Helvetica,sans-Serif" font-size="10.00">MultimeterService::</text>
<text text-anchor="middle" x="581" y="-384.34" font-family="Helvetica,sans-Serif" font-size="10.00">maxValue</text>
</a>
</g>
</g>
<!-- Node6&#45;&gt;Node15 -->
<g id="edge18" class="edge">
<title>Node6&#45;&gt;Node15</title>
<path fill="none" stroke="midnightblue" d="M461.11,-363.36C478.27,-367.54 496.97,-372.1 514.36,-376.33"/>
<polygon fill="midnightblue" stroke="midnightblue" points="513.87,-379.82 524.42,-378.79 515.53,-373.02 513.87,-379.82"/>
</g>
<!-- Node6&#45;&gt;Node16 -->
<g id="edge28" class="edge">
<title>Node6&#45;&gt;Node16</title>
<path fill="none" stroke="midnightblue" d="M462.18,-347.29C516.03,-345.57 595.6,-341.07 664,-329.34 681.22,-326.38 699.88,-321.55 715.8,-316.92"/>
<polygon fill="midnightblue" stroke="midnightblue" points="717.24,-320.14 725.82,-313.93 715.24,-313.43 717.24,-320.14"/>
</g>
<!-- Node17 -->
<g id="node17" class="node">
<title>Node17</title>
<g id="a_node17"><a xlink:href="classMultimeterService.html#a01d0e40b92ddcb6e4c89e4c8504e30d4" target="_top" xlink:title="Returns the minimum value for range in (integer) millivolts, or the string &quot;Auto&quot;.">
<polygon fill="none" stroke="black" points="524.5,-289.34 524.5,-319.34 637.5,-319.34 637.5,-289.34 524.5,-289.34"/>
<text text-anchor="start" x="532.5" y="-307.34" font-family="Helvetica,sans-Serif" font-size="10.00">MultimeterService::</text>
<text text-anchor="middle" x="581" y="-296.34" font-family="Helvetica,sans-Serif" font-size="10.00">minValue</text>
</a>
</g>
</g>
<!-- Node6&#45;&gt;Node17 -->
<g id="edge20" class="edge">
<title>Node6&#45;&gt;Node17</title>
<path fill="none" stroke="midnightblue" d="M461.11,-333.32C478.27,-329.13 496.97,-324.58 514.36,-320.34"/>
<polygon fill="midnightblue" stroke="midnightblue" points="515.53,-323.65 524.42,-317.89 513.87,-316.85 515.53,-323.65"/>
</g>
<!-- Node18 -->
<g id="node18" class="node">
<title>Node18</title>
<g id="a_node18"><a xlink:href="classMultimeterService.html#aee4f24051a196c67e74ba6f090964693" target="_top" xlink:title="Requests the Pokit device to stop reporting multimeter reads.">
<polygon fill="none" stroke="black" points="524.5,-240.34 524.5,-270.34 637.5,-270.34 637.5,-240.34 524.5,-240.34"/>
<text text-anchor="start" x="532.5" y="-258.34" font-family="Helvetica,sans-Serif" font-size="10.00">MultimeterService::</text>
<text text-anchor="middle" x="581" y="-247.34" font-family="Helvetica,sans-Serif" font-size="10.00">stopClientReadings</text>
</a>
</g>
</g>
<!-- Node6&#45;&gt;Node18 -->
<g id="edge22" class="edge">
<title>Node6&#45;&gt;Node18</title>
<path fill="none" stroke="midnightblue" d="M417.68,-333.21C436.68,-318.03 467.88,-294.89 498,-280.34 503.32,-277.76 508.97,-275.39 514.71,-273.21"/>
<polygon fill="midnightblue" stroke="midnightblue" points="516.18,-276.4 524.41,-269.73 513.82,-269.81 516.18,-276.4"/>
</g>
<!-- Node19 -->
<g id="node19" class="node">
<title>Node19</title>
<g id="a_node19"><a target="_parent" xlink:href="https://doc.qt.io/qt-5/qvariant.html#toInt" xlink:title=" ">
<polygon fill="none" stroke="black" points="537.5,-201.84 537.5,-220.84 624.5,-220.84 624.5,-201.84 537.5,-201.84"/>
<text text-anchor="middle" x="581" y="-208.84" font-family="Helvetica,sans-Serif" font-size="10.00">QVariant::toInt</text>
</a>
</g>
</g>
<!-- Node6&#45;&gt;Node19 -->
<g id="edge23" class="edge">
<title>Node6&#45;&gt;Node19</title>
<path fill="none" stroke="midnightblue" d="M407.91,-333.12C422.7,-307.87 455.8,-257.51 498,-231.34 506.87,-225.83 517.15,-221.85 527.38,-218.95"/>
<polygon fill="midnightblue" stroke="midnightblue" points="528.27,-222.34 537.11,-216.5 526.56,-215.55 528.27,-222.34"/>
</g>
<!-- Node20 -->
<g id="node20" class="node">
<title>Node20</title>
<g id="a_node20"><a target="_parent" xlink:href="https://doc.qt.io/qt-5/qvariant.html#toJsonValue" xlink:title=" ">
<polygon fill="none" stroke="black" points="520,-163.84 520,-182.84 642,-182.84 642,-163.84 520,-163.84"/>
<text text-anchor="middle" x="581" y="-170.84" font-family="Helvetica,sans-Serif" font-size="10.00">QVariant::toJsonValue</text>
</a>
</g>
</g>
<!-- Node6&#45;&gt;Node20 -->
<g id="edge24" class="edge">
<title>Node6&#45;&gt;Node20</title>
<path fill="none" stroke="midnightblue" d="M404.59,-333.12C415.96,-301.56 446.56,-228.88 498,-192.34 501.89,-189.57 506.12,-187.2 510.55,-185.18"/>
<polygon fill="midnightblue" stroke="midnightblue" points="511.85,-188.42 519.85,-181.47 509.26,-181.92 511.85,-188.42"/>
</g>
<!-- Node21 -->
<g id="node21" class="node">
<title>Node21</title>
<g id="a_node21"><a target="_parent" xlink:href="https://doc.qt.io/qt-5/qvariant.html#toString" xlink:title=" ">
<polygon fill="none" stroke="black" points="529.5,-125.84 529.5,-144.84 632.5,-144.84 632.5,-125.84 529.5,-125.84"/>
<text text-anchor="middle" x="581" y="-132.84" font-family="Helvetica,sans-Serif" font-size="10.00">QVariant::toString</text>
</a>
</g>
</g>
<!-- Node6&#45;&gt;Node21 -->
<g id="edge25" class="edge">
<title>Node6&#45;&gt;Node21</title>
<path fill="none" stroke="midnightblue" d="M402.59,-333.18C410.93,-296.36 437.48,-201.73 498,-154.34 504.38,-149.34 511.84,-145.62 519.62,-142.85"/>
<polygon fill="midnightblue" stroke="midnightblue" points="520.67,-146.19 529.21,-139.93 518.63,-139.49 520.67,-146.19"/>
</g>
<!-- Node22 -->
<g id="node22" class="node">
<title>Node22</title>
<g id="a_node22"><a xlink:href="classMultimeterService.html#a7554bfb64b385258c2a103f17753459a" target="_top" xlink:title="Returns mode as a user&#45;friendly string.">
<polygon fill="none" stroke="black" points="524.5,-76.34 524.5,-106.34 637.5,-106.34 637.5,-76.34 524.5,-76.34"/>
<text text-anchor="start" x="532.5" y="-94.34" font-family="Helvetica,sans-Serif" font-size="10.00">MultimeterService::</text>
<text text-anchor="middle" x="581" y="-83.34" font-family="Helvetica,sans-Serif" font-size="10.00">toString</text>
</a>
</g>
</g>
<!-- Node6&#45;&gt;Node22 -->
<g id="edge26" class="edge">
<title>Node6&#45;&gt;Node22</title>
<path fill="none" stroke="midnightblue" d="M401.5,-333.05C407.71,-291.77 430.5,-177.06 498,-116.34 503.06,-111.79 508.92,-108.07 515.14,-105.02"/>
<polygon fill="midnightblue" stroke="midnightblue" points="516.64,-108.19 524.46,-101.03 513.89,-101.75 516.64,-108.19"/>
</g>
<!-- Node23 -->
<g id="node23" class="node">
<title>Node23</title>
<g id="a_node23"><a target="_parent" xlink:href="https://doc.qt.io/qt-5/qvariant.html#type" xlink:title=" ">
<polygon fill="none" stroke="black" points="538,-37.84 538,-56.84 624,-56.84 624,-37.84 538,-37.84"/>
<text text-anchor="middle" x="581" y="-44.84" font-family="Helvetica,sans-Serif" font-size="10.00">QVariant::type</text>
</a>
</g>
</g>
<!-- Node6&#45;&gt;Node23 -->
<g id="edge29" class="edge">
<title>Node6&#45;&gt;Node23</title>
<path fill="none" stroke="midnightblue" d="M399.96,-333.05C402.25,-285.65 415.97,-139.93 498,-66.34 506.33,-58.86 517.01,-54.16 527.89,-51.24"/>
<polygon fill="midnightblue" stroke="midnightblue" points="528.87,-54.61 537.88,-49.03 527.36,-47.78 528.87,-54.61"/>
</g>
<!-- Node8&#45;&gt;Node7 -->
<g id="edge10" class="edge">
<title>Node8&#45;&gt;Node7</title>
<path fill="none" stroke="midnightblue" d="M645.44,-647.37C666.46,-652.35 689.44,-657.8 708.91,-662.41"/>
<polygon fill="midnightblue" stroke="midnightblue" points="708.2,-665.84 718.73,-664.74 709.81,-659.03 708.2,-665.84"/>
</g>
<!-- Node9 -->
<g id="node9" class="node">
<title>Node9</title>
<g id="a_node9"><a target="_parent" xlink:href="https://doc.qt.io/qt-5/qstring.html#contains-1" xlink:title=" ">
<polygon fill="none" stroke="black" points="706,-622.84 706,-641.84 806,-641.84 806,-622.84 706,-622.84"/>
<text text-anchor="middle" x="756" y="-629.84" font-family="Helvetica,sans-Serif" font-size="10.00">QString::contains</text>
</a>
</g>
</g>
<!-- Node8&#45;&gt;Node9 -->
<g id="edge11" class="edge">
<title>Node8&#45;&gt;Node9</title>
<path fill="none" stroke="midnightblue" d="M664.19,-632.34C674.92,-632.34 685.73,-632.34 695.97,-632.34"/>
<polygon fill="midnightblue" stroke="midnightblue" points="695.99,-635.84 705.99,-632.34 695.99,-628.84 695.99,-635.84"/>
</g>
<!-- Node8&#45;&gt;Node10 -->
<g id="edge12" class="edge">
<title>Node8&#45;&gt;Node10</title>
<path fill="none" stroke="midnightblue" d="M645.44,-617.3C664.96,-612.67 686.18,-607.64 704.7,-603.26"/>
<polygon fill="midnightblue" stroke="midnightblue" points="705.76,-606.6 714.68,-600.89 704.15,-599.79 705.76,-606.6"/>
</g>
<!-- Node15&#45;&gt;Node16 -->
<g id="edge19" class="edge">
<title>Node15&#45;&gt;Node16</title>
<path fill="none" stroke="midnightblue" d="M628.71,-377.23C640.44,-372.9 652.86,-367.84 664,-362.34 688.89,-350.03 715.45,-332.54 733.41,-319.99"/>
<polygon fill="midnightblue" stroke="midnightblue" points="735.83,-322.57 741.97,-313.93 731.78,-316.85 735.83,-322.57"/>
</g>
<!-- Node17&#45;&gt;Node16 -->
<g id="edge21" class="edge">
<title>Node17&#45;&gt;Node16</title>
<path fill="none" stroke="midnightblue" d="M637.69,-304.34C661.48,-304.34 688.85,-304.34 711.16,-304.34"/>
<polygon fill="midnightblue" stroke="midnightblue" points="711.35,-307.84 721.35,-304.34 711.35,-300.84 711.35,-307.84"/>
</g>
<!-- Node22&#45;&gt;Node16 -->
<g id="edge27" class="edge">
<title>Node22&#45;&gt;Node16</title>
<path fill="none" stroke="midnightblue" d="M637.7,-101.49C647.2,-105.05 656.42,-109.85 664,-116.34 717.4,-162.05 742.11,-246.34 750.96,-284.56"/>
<polygon fill="midnightblue" stroke="midnightblue" points="747.57,-285.44 753.13,-294.46 754.4,-283.94 747.57,-285.44"/>
</g>
</g>
</svg>
