<?xml version="1.0" encoding="UTF-8" standalone="no"?>
<!DOCTYPE svg PUBLIC "-//W3C//DTD SVG 1.1//EN"
 "http://www.w3.org/Graphics/SVG/1.1/DTD/svg11.dtd">
<!-- Generated by graphviz version 2.43.0 (0)
 -->
<!-- Title: ScanCommand::toJson Pages: 1 -->
<svg width="765pt" height="45pt"
 viewBox="0.00 0.00 765.00 45.00" xmlns="http://www.w3.org/2000/svg" xmlns:xlink="http://www.w3.org/1999/xlink">
<g id="graph0" class="graph" transform="scale(1 1) rotate(0) translate(4 41)">
<title>ScanCommand::toJson</title>
<!-- Node1 -->
<g id="node1" class="node">
<title>Node1</title>
<g id="a_node1"><a xlink:title="Returns info as a JSON object.">
<polygon fill="#999999" stroke="#666666" points="757,-19 631,-19 631,0 757,0 757,-19"/>
<text text-anchor="middle" x="694" y="-7" font-family="Helvetica,sans-Serif" font-size="10.00">ScanCommand::toJson</text>
</a>
</g>
</g>
<!-- Node1&#45;&gt;Node1 -->
<g id="edge4" class="edge">
<title>Node1&#45;&gt;Node1</title>
<path fill="none" stroke="#63b8ff" d="M729.19,-24.74C732.11,-31.34 720.38,-37 694,-37 660.23,-37 650.47,-27.73 664.72,-19.08"/>
<polygon fill="#63b8ff" stroke="#63b8ff" points="723.28,-19.08 731.55,-22.02 726.17,-21.85 729.06,-24.62 729.06,-24.62 729.06,-24.62 726.17,-21.85 726.57,-27.22 723.28,-19.08 723.28,-19.08"/>
</g>
<!-- Node2 -->
<g id="node2" class="node">
<title>Node2</title>
<g id="a_node2"><a xlink:href="classScanCommand.html#ac9f53dee63d2dfaa3acf82e71db01d64" target="_top" xlink:title="Handles discovered Pokit devices, writing info to stdout.">
<polygon fill="white" stroke="#666666" points="595,-19 412,-19 412,0 595,0 595,-19"/>
<text text-anchor="middle" x="503.5" y="-7" font-family="Helvetica,sans-Serif" font-size="10.00">ScanCommand::deviceDiscovered</text>
</a>
</g>
</g>
<!-- Node1&#45;&gt;Node2 -->
<g id="edge1" class="edge">
<title>Node1&#45;&gt;Node2</title>
<path fill="none" stroke="#63b8ff" d="M622.66,-9.5C613.73,-9.5 604.5,-9.5 595.32,-9.5"/>
<polygon fill="#63b8ff" stroke="#63b8ff" points="630.76,-9.5 622.76,-13.1 626.76,-9.5 622.76,-9.5 622.76,-9.5 622.76,-9.5 626.76,-9.5 622.76,-5.9 630.76,-9.5 630.76,-9.5"/>
</g>
<!-- Node3 -->
<g id="node3" class="node">
<title>Node3</title>
<g id="a_node3"><a xlink:href="classScanCommand.html#a2cb218644893d84036ec16cd46f1d488" target="_top" xlink:title="Handles updated Pokit devices, writing info to stdout.">
<polygon fill="white" stroke="#666666" points="376,-19 206,-19 206,0 376,0 376,-19"/>
<text text-anchor="middle" x="291" y="-7" font-family="Helvetica,sans-Serif" font-size="10.00">ScanCommand::deviceUpdated</text>
</a>
</g>
</g>
<!-- Node2&#45;&gt;Node3 -->
<g id="edge2" class="edge">
<title>Node2&#45;&gt;Node3</title>
<path fill="none" stroke="#63b8ff" d="M403.65,-9.5C394.47,-9.5 385.22,-9.5 376.18,-9.5"/>
<polygon fill="#63b8ff" stroke="#63b8ff" points="411.7,-9.5 403.7,-13.1 407.7,-9.5 403.7,-9.5 403.7,-9.5 403.7,-9.5 407.7,-9.5 403.7,-5.9 411.7,-9.5 411.7,-9.5"/>
</g>
<!-- Node4 -->
<g id="node4" class="node">
<title>Node4</title>
<g id="a_node4"><a xlink:href="classScanCommand.html#a3e809c3a97ec08aecf2dc0f2cf99a837" target="_top" xlink:title="Construct a new ScanCommand object with parent.">
<polygon fill="white" stroke="#666666" points="170,-19 0,-19 0,0 170,0 170,-19"/>
<text text-anchor="middle" x="85" y="-7" font-family="Helvetica,sans-Serif" font-size="10.00">ScanCommand::ScanCommand</text>
</a>
</g>
</g>
<!-- Node3&#45;&gt;Node4 -->
<g id="edge3" class="edge">
<title>Node3&#45;&gt;Node4</title>
<path fill="none" stroke="#63b8ff" d="M197.82,-9.5C188.65,-9.5 179.37,-9.5 170.29,-9.5"/>
<polygon fill="#63b8ff" stroke="#63b8ff" points="205.85,-9.5 197.85,-13.1 201.85,-9.5 197.85,-9.5 197.85,-9.5 197.85,-9.5 201.85,-9.5 197.85,-5.9 205.85,-9.5 205.85,-9.5"/>
</g>
</g>
</svg>
