<?xml version="1.0" encoding="UTF-8" standalone="no"?>
<!DOCTYPE svg PUBLIC "-//W3C//DTD SVG 1.1//EN"
 "http://www.w3.org/Graphics/SVG/1.1/DTD/svg11.dtd">
<!-- Generated by graphviz version 2.43.0 (0)
 -->
<!-- Title: AbstractPokitServicePrivate Pages: 1 -->
<svg width="446pt" height="142pt"
 viewBox="0.00 0.00 446.00 142.00" xmlns="http://www.w3.org/2000/svg" xmlns:xlink="http://www.w3.org/1999/xlink">
<g id="graph0" class="graph" transform="scale(1 1) rotate(0) translate(4 138)">
<title>AbstractPokitServicePrivate</title>
<!-- Node1 -->
<g id="node1" class="node">
<title>Node1</title>
<g id="a_node1"><a xlink:title="The AbstractPokitServicePrivate class provides private implementation for AbstractPokitService.">
<polygon fill="#bfbfbf" stroke="black" points="92,-57.5 92,-76.5 244,-76.5 244,-57.5 92,-57.5"/>
<text text-anchor="middle" x="168" y="-64.5" font-family="Helvetica,sans-Serif" font-size="10.00">AbstractPokitServicePrivate</text>
</a>
</g>
</g>
<!-- Node3 -->
<g id="node3" class="node">
<title>Node3</title>
<g id="a_node3"><a xlink:href="classCalibrationServicePrivate.html" target="_top" xlink:title="The CalibrationServicePrivate class provides private implementation for CalibrationService.">
<polygon fill="none" stroke="black" points="289,-114.5 289,-133.5 429,-133.5 429,-114.5 289,-114.5"/>
<text text-anchor="middle" x="359" y="-121.5" font-family="Helvetica,sans-Serif" font-size="10.00">CalibrationServicePrivate</text>
</a>
</g>
</g>
<!-- Node1&#45;&gt;Node3 -->
<g id="edge2" class="edge">
<title>Node1&#45;&gt;Node3</title>
<path fill="none" stroke="midnightblue" d="M204.26,-79.99C225.95,-87.75 254.4,-97.52 280,-105 291.5,-108.36 304.08,-111.61 315.71,-114.44"/>
<polygon fill="midnightblue" stroke="midnightblue" points="205.4,-76.68 194.8,-76.58 203.02,-83.26 205.4,-76.68"/>
</g>
<!-- Node4 -->
<g id="node4" class="node">
<title>Node4</title>
<g id="a_node4"><a xlink:href="classDeviceInfoServicePrivate.html" target="_top" xlink:title="The DeviceInfoServicePrivate class provides private implementation for DeviceInfoService.">
<polygon fill="none" stroke="black" points="289,-76.5 289,-95.5 429,-95.5 429,-76.5 289,-76.5"/>
<text text-anchor="middle" x="359" y="-83.5" font-family="Helvetica,sans-Serif" font-size="10.00">DeviceInfoServicePrivate</text>
</a>
</g>
</g>
<!-- Node1&#45;&gt;Node4 -->
<g id="edge3" class="edge">
<title>Node1&#45;&gt;Node4</title>
<path fill="none" stroke="midnightblue" d="M254.33,-75.58C265.88,-76.74 277.62,-77.92 288.84,-79.05"/>
<polygon fill="midnightblue" stroke="midnightblue" points="254.54,-72.08 244.24,-74.56 253.84,-79.05 254.54,-72.08"/>
</g>
<!-- Node5 -->
<g id="node5" class="node">
<title>Node5</title>
<g id="a_node5"><a xlink:href="classGenericAccessServicePrivate.html" target="_top" xlink:title="The GenericAccessServicePrivate class provides private implementation for GenericAccessService.">
<polygon fill="none" stroke="black" points="280,-38.5 280,-57.5 438,-57.5 438,-38.5 280,-38.5"/>
<text text-anchor="middle" x="359" y="-45.5" font-family="Helvetica,sans-Serif" font-size="10.00">GenericAccessServicePrivate</text>
</a>
</g>
</g>
<!-- Node1&#45;&gt;Node5 -->
<g id="edge4" class="edge">
<title>Node1&#45;&gt;Node5</title>
<path fill="none" stroke="midnightblue" d="M254.22,-58.43C262.78,-57.57 271.44,-56.7 279.92,-55.85"/>
<polygon fill="midnightblue" stroke="midnightblue" points="253.84,-54.95 244.24,-59.44 254.54,-61.92 253.84,-54.95"/>
</g>
<!-- Node6 -->
<g id="node6" class="node">
<title>Node6</title>
<g id="a_node6"><a xlink:href="classStatusServicePrivate.html" target="_top" xlink:title="The StatusServicePrivate class provides private implementation for StatusService.">
<polygon fill="none" stroke="black" points="300,-0.5 300,-19.5 418,-19.5 418,-0.5 300,-0.5"/>
<text text-anchor="middle" x="359" y="-7.5" font-family="Helvetica,sans-Serif" font-size="10.00">StatusServicePrivate</text>
</a>
</g>
</g>
<!-- Node1&#45;&gt;Node6 -->
<g id="edge5" class="edge">
<title>Node1&#45;&gt;Node6</title>
<path fill="none" stroke="midnightblue" d="M204.26,-54.01C225.95,-46.25 254.4,-36.48 280,-29 291.5,-25.64 304.08,-22.39 315.71,-19.56"/>
<polygon fill="midnightblue" stroke="midnightblue" points="203.02,-50.74 194.8,-57.42 205.4,-57.32 203.02,-50.74"/>
</g>
<!-- Node2 -->
<g id="node2" class="node">
<title>Node2</title>
<g id="a_node2"><a xlink:title=" ">
<polygon fill="none" stroke="#bfbfbf" points="0,-57.5 0,-76.5 56,-76.5 56,-57.5 0,-57.5"/>
<text text-anchor="middle" x="28" y="-64.5" font-family="Helvetica,sans-Serif" font-size="10.00">QObject</text>
</a>
</g>
</g>
<!-- Node2&#45;&gt;Node1 -->
<g id="edge1" class="edge">
<title>Node2&#45;&gt;Node1</title>
<path fill="none" stroke="midnightblue" d="M66.33,-67C74.35,-67 83.09,-67 91.97,-67"/>
<polygon fill="midnightblue" stroke="midnightblue" points="66.26,-63.5 56.26,-67 66.26,-70.5 66.26,-63.5"/>
</g>
</g>
</svg>
