<?xml version="1.0" encoding="UTF-8" standalone="no"?>
<!DOCTYPE svg PUBLIC "-//W3C//DTD SVG 1.1//EN"
 "http://www.w3.org/Graphics/SVG/1.1/DTD/svg11.dtd">
<!-- Generated by graphviz version 2.43.0 (0)
 -->
<!-- Title: AbstractPokitServicePrivate::discoveryFinished Pages: 1 -->
<svg width="926pt" height="1258pt"
 viewBox="0.00 0.00 926.00 1258.44" xmlns="http://www.w3.org/2000/svg" xmlns:xlink="http://www.w3.org/1999/xlink">
<g id="graph0" class="graph" transform="scale(1 1) rotate(0) translate(4 1254.44)">
<title>AbstractPokitServicePrivate::discoveryFinished</title>
<!-- Node1 -->
<g id="node1" class="node">
<title>Node1</title>
<g id="a_node1"><a xlink:title="Handles QLowEnergyController::discoveryFinished events.">
<polygon fill="#bfbfbf" stroke="black" points="0,-186.5 0,-216.5 152,-216.5 152,-186.5 0,-186.5"/>
<text text-anchor="start" x="8" y="-204.5" font-family="Helvetica,sans-Serif" font-size="10.00">AbstractPokitServicePrivate</text>
<text text-anchor="middle" x="76" y="-193.5" font-family="Helvetica,sans-Serif" font-size="10.00">::discoveryFinished</text>
</a>
</g>
</g>
<!-- Node2 -->
<g id="node2" class="node">
<title>Node2</title>
<g id="a_node2"><a target="_parent" xlink:href="https://doc.qt.io/qt-5/qstring.html#arg-11" xlink:title=" ">
<polygon fill="none" stroke="black" points="798,-1113 798,-1132 872,-1132 872,-1113 798,-1113"/>
<text text-anchor="middle" x="835" y="-1120" font-family="Helvetica,sans-Serif" font-size="10.00">QString::arg</text>
</a>
</g>
</g>
<!-- Node1&#45;&gt;Node2 -->
<g id="edge1" class="edge">
<title>Node1&#45;&gt;Node2</title>
<path fill="none" stroke="midnightblue" d="M78.21,-216.55C85.86,-309.65 129.03,-807.7 188,-947.5 241.62,-1074.61 255.63,-1127.1 376,-1194.5 508.05,-1268.45 572.74,-1262.32 716,-1213.5 758.78,-1198.92 798.12,-1161.87 818.79,-1139.8"/>
<polygon fill="midnightblue" stroke="midnightblue" points="821.62,-1141.9 825.77,-1132.15 816.45,-1137.18 821.62,-1141.9"/>
</g>
<!-- Node3 -->
<g id="node3" class="node">
<title>Node3</title>
<g id="a_node3"><a xlink:href="classAbstractPokitServicePrivate.html#a2b105802085225fe68254dfdb6754ad9" target="_top" xlink:title="Creates an internal service object from the internal controller.">
<polygon fill="none" stroke="black" points="188,-684.5 188,-714.5 340,-714.5 340,-684.5 188,-684.5"/>
<text text-anchor="start" x="196" y="-702.5" font-family="Helvetica,sans-Serif" font-size="10.00">AbstractPokitServicePrivate</text>
<text text-anchor="middle" x="264" y="-691.5" font-family="Helvetica,sans-Serif" font-size="10.00">::createServiceObject</text>
</a>
</g>
</g>
<!-- Node1&#45;&gt;Node3 -->
<g id="edge2" class="edge">
<title>Node1&#45;&gt;Node3</title>
<path fill="none" stroke="midnightblue" d="M82.67,-216.68C109.14,-287.55 220.69,-586.23 253.74,-674.7"/>
<polygon fill="midnightblue" stroke="midnightblue" points="250.51,-676.05 257.28,-684.2 257.06,-673.61 250.51,-676.05"/>
</g>
<!-- Node7 -->
<g id="node7" class="node">
<title>Node7</title>
<g id="a_node7"><a target="_parent" xlink:href="https://doc.qt.io/qt-5/qobject.html#tr" xlink:title=" ">
<polygon fill="none" stroke="black" points="800.5,-644 800.5,-663 869.5,-663 869.5,-644 800.5,-644"/>
<text text-anchor="middle" x="835" y="-651" font-family="Helvetica,sans-Serif" font-size="10.00">QObject::tr</text>
</a>
</g>
</g>
<!-- Node1&#45;&gt;Node7 -->
<g id="edge60" class="edge">
<title>Node1&#45;&gt;Node7</title>
<path fill="none" stroke="midnightblue" d="M143.19,-216.54C157.9,-219.68 173.45,-222.84 188,-225.5 423.19,-268.52 540.44,-166.2 716,-328.5 808.37,-413.9 828.58,-577.27 832.88,-633.73"/>
<polygon fill="midnightblue" stroke="midnightblue" points="829.39,-634.07 833.56,-643.81 836.38,-633.6 829.39,-634.07"/>
</g>
<!-- Node14 -->
<g id="node14" class="node">
<title>Node14</title>
<g id="a_node14"><a target="_parent" xlink:href="https://doc.qt.io/qt-5/quuid.html#toString" xlink:title=" ">
<polygon fill="none" stroke="black" points="594.5,-1155 594.5,-1174 685.5,-1174 685.5,-1155 594.5,-1155"/>
<text text-anchor="middle" x="640" y="-1162" font-family="Helvetica,sans-Serif" font-size="10.00">QUuid::toString</text>
</a>
</g>
</g>
<!-- Node1&#45;&gt;Node14 -->
<g id="edge59" class="edge">
<title>Node1&#45;&gt;Node14</title>
<path fill="none" stroke="midnightblue" d="M79.31,-216.81C96.67,-329.51 210.43,-1029.42 376,-1145.5 437.35,-1188.51 527.76,-1184.29 584.99,-1175.65"/>
<polygon fill="midnightblue" stroke="midnightblue" points="585.61,-1179.1 594.93,-1174.06 584.5,-1172.19 585.61,-1179.1"/>
</g>
<!-- Node32 -->
<g id="node32" class="node">
<title>Node32</title>
<g id="a_node32"><a target="_parent" xlink:href="https://doc.qt.io/qt-5/qlowenergycontroller.html#remoteAddress" xlink:title=" ">
<polygon fill="none" stroke="black" points="201.5,-186.5 201.5,-216.5 326.5,-216.5 326.5,-186.5 201.5,-186.5"/>
<text text-anchor="start" x="209.5" y="-204.5" font-family="Helvetica,sans-Serif" font-size="10.00">QLowEnergyController</text>
<text text-anchor="middle" x="264" y="-193.5" font-family="Helvetica,sans-Serif" font-size="10.00">::remoteAddress</text>
</a>
</g>
</g>
<!-- Node1&#45;&gt;Node32 -->
<g id="edge54" class="edge">
<title>Node1&#45;&gt;Node32</title>
<path fill="none" stroke="midnightblue" d="M152.12,-201.5C165.01,-201.5 178.37,-201.5 191.17,-201.5"/>
<polygon fill="midnightblue" stroke="midnightblue" points="191.29,-205 201.29,-201.5 191.29,-198 191.29,-205"/>
</g>
<!-- Node33 -->
<g id="node33" class="node">
<title>Node33</title>
<g id="a_node33"><a target="_parent" xlink:href="https://doc.qt.io/qt-5/qlowenergycontroller.html#remoteDeviceUuid" xlink:title=" ">
<polygon fill="none" stroke="black" points="201.5,-137.5 201.5,-167.5 326.5,-167.5 326.5,-137.5 201.5,-137.5"/>
<text text-anchor="start" x="209.5" y="-155.5" font-family="Helvetica,sans-Serif" font-size="10.00">QLowEnergyController</text>
<text text-anchor="middle" x="264" y="-144.5" font-family="Helvetica,sans-Serif" font-size="10.00">::remoteDeviceUuid</text>
</a>
</g>
</g>
<!-- Node1&#45;&gt;Node33 -->
<g id="edge55" class="edge">
<title>Node1&#45;&gt;Node33</title>
<path fill="none" stroke="midnightblue" d="M134.07,-186.47C153.71,-181.29 175.87,-175.45 196.22,-170.09"/>
<polygon fill="midnightblue" stroke="midnightblue" points="197.26,-173.44 206.04,-167.51 195.48,-166.67 197.26,-173.44"/>
</g>
<!-- Node34 -->
<g id="node34" class="node">
<title>Node34</title>
<g id="a_node34"><a target="_parent" xlink:href="https://doc.qt.io/qt-5/qlowenergycontroller.html#remoteName" xlink:title=" ">
<polygon fill="none" stroke="black" points="201.5,-88.5 201.5,-118.5 326.5,-118.5 326.5,-88.5 201.5,-88.5"/>
<text text-anchor="start" x="209.5" y="-106.5" font-family="Helvetica,sans-Serif" font-size="10.00">QLowEnergyController</text>
<text text-anchor="middle" x="264" y="-95.5" font-family="Helvetica,sans-Serif" font-size="10.00">::remoteName</text>
</a>
</g>
</g>
<!-- Node1&#45;&gt;Node34 -->
<g id="edge56" class="edge">
<title>Node1&#45;&gt;Node34</title>
<path fill="none" stroke="midnightblue" d="M96.05,-186.38C117.41,-170.03 153.57,-144.08 188,-127.5 191.81,-125.66 195.8,-123.92 199.86,-122.28"/>
<polygon fill="midnightblue" stroke="midnightblue" points="201.34,-125.46 209.43,-118.62 198.84,-118.92 201.34,-125.46"/>
</g>
<!-- Node35 -->
<g id="node35" class="node">
<title>Node35</title>
<g id="a_node35"><a target="_parent" xlink:href="https://doc.qt.io/qt-5/qobject.html#sender" xlink:title=" ">
<polygon fill="none" stroke="black" points="216.5,-50 216.5,-69 311.5,-69 311.5,-50 216.5,-50"/>
<text text-anchor="middle" x="264" y="-57" font-family="Helvetica,sans-Serif" font-size="10.00">QObject::sender</text>
</a>
</g>
</g>
<!-- Node1&#45;&gt;Node35 -->
<g id="edge57" class="edge">
<title>Node1&#45;&gt;Node35</title>
<path fill="none" stroke="midnightblue" d="M86.26,-186.4C103.13,-160.23 141.44,-106.56 188,-78.5 193.8,-75.01 200.22,-72.15 206.79,-69.82"/>
<polygon fill="midnightblue" stroke="midnightblue" points="208,-73.11 216.48,-66.76 205.89,-66.43 208,-73.11"/>
</g>
<!-- Node36 -->
<g id="node36" class="node">
<title>Node36</title>
<g id="a_node36"><a target="_parent" xlink:href="https://doc.qt.io/qt-5/qbluetoothaddress.html#toString" xlink:title=" ">
<polygon fill="none" stroke="black" points="206,-0.5 206,-30.5 322,-30.5 322,-0.5 206,-0.5"/>
<text text-anchor="start" x="214" y="-18.5" font-family="Helvetica,sans-Serif" font-size="10.00">QBluetoothAddress::</text>
<text text-anchor="middle" x="264" y="-7.5" font-family="Helvetica,sans-Serif" font-size="10.00">toString</text>
</a>
</g>
</g>
<!-- Node1&#45;&gt;Node36 -->
<g id="edge58" class="edge">
<title>Node1&#45;&gt;Node36</title>
<path fill="none" stroke="midnightblue" d="M83.45,-186.19C97.62,-154.36 134.53,-80.68 188,-40.5 190.77,-38.42 193.73,-36.5 196.8,-34.74"/>
<polygon fill="midnightblue" stroke="midnightblue" points="198.42,-37.84 205.74,-30.18 195.24,-31.61 198.42,-37.84"/>
</g>
<!-- Node3&#45;&gt;Node2 -->
<g id="edge3" class="edge">
<title>Node3&#45;&gt;Node2</title>
<path fill="none" stroke="midnightblue" d="M266.64,-714.81C274.54,-785.95 311.13,-1083.45 376,-1145.5 485.88,-1250.6 568.25,-1219.43 716,-1183.5 752.04,-1174.74 789.37,-1152.9 812.15,-1137.89"/>
<polygon fill="midnightblue" stroke="midnightblue" points="814.36,-1140.62 820.69,-1132.12 810.44,-1134.81 814.36,-1140.62"/>
</g>
<!-- Node4 -->
<g id="node4" class="node">
<title>Node4</title>
<g id="a_node4"><a xlink:href="classAbstractPokitServicePrivate.html#a642431b7bfb76baa5d976ae24e90d9ef" target="_top" xlink:title="Handles QLowEnergyService::characteristicChanged events.">
<polygon fill="none" stroke="black" points="376,-919.5 376,-949.5 528,-949.5 528,-919.5 376,-919.5"/>
<text text-anchor="start" x="384" y="-937.5" font-family="Helvetica,sans-Serif" font-size="10.00">AbstractPokitServicePrivate</text>
<text text-anchor="middle" x="452" y="-926.5" font-family="Helvetica,sans-Serif" font-size="10.00">::characteristicChanged</text>
</a>
</g>
</g>
<!-- Node3&#45;&gt;Node4 -->
<g id="edge4" class="edge">
<title>Node3&#45;&gt;Node4</title>
<path fill="none" stroke="midnightblue" d="M268.65,-714.51C278.77,-752.96 310.84,-855.83 376,-910.5 377.53,-911.79 379.13,-913 380.79,-914.15"/>
<polygon fill="midnightblue" stroke="midnightblue" points="379.12,-917.23 389.5,-919.39 382.73,-911.24 379.12,-917.23"/>
</g>
<!-- Node3&#45;&gt;Node7 -->
<g id="edge52" class="edge">
<title>Node3&#45;&gt;Node7</title>
<path fill="none" stroke="midnightblue" d="M320.49,-714.53C338.1,-718.61 357.74,-722.47 376,-724.5 443.14,-731.97 470.12,-759.35 528,-724.5 557.3,-706.86 534.8,-674.3 564,-656.5 634.27,-613.66 735.15,-628.17 791.6,-641.52"/>
<polygon fill="midnightblue" stroke="midnightblue" points="791.06,-644.99 801.61,-643.98 792.74,-638.19 791.06,-644.99"/>
</g>
<!-- Node3&#45;&gt;Node14 -->
<g id="edge51" class="edge">
<title>Node3&#45;&gt;Node14</title>
<path fill="none" stroke="midnightblue" d="M265.68,-714.74C268.76,-764.88 285.59,-926.19 376,-1008.5 427.57,-1055.45 475.33,-1001.78 528,-1047.5 559.6,-1074.93 534.24,-1105.09 564,-1134.5 571.11,-1141.52 580.07,-1146.96 589.3,-1151.15"/>
<polygon fill="midnightblue" stroke="midnightblue" points="587.98,-1154.39 598.56,-1154.94 590.63,-1147.92 587.98,-1154.39"/>
</g>
<!-- Node16 -->
<g id="node16" class="node">
<title>Node16</title>
<g id="a_node16"><a target="_parent" xlink:href="https://doc.qt.io/qt-5/qlowenergyservice.html#characteristicChanged" xlink:title=" ">
<polygon fill="none" stroke="black" points="389.5,-870.5 389.5,-900.5 514.5,-900.5 514.5,-870.5 389.5,-870.5"/>
<text text-anchor="start" x="397.5" y="-888.5" font-family="Helvetica,sans-Serif" font-size="10.00">QLowEnergyService::</text>
<text text-anchor="middle" x="452" y="-877.5" font-family="Helvetica,sans-Serif" font-size="10.00">characteristicChanged</text>
</a>
</g>
</g>
<!-- Node3&#45;&gt;Node16 -->
<g id="edge20" class="edge">
<title>Node3&#45;&gt;Node16</title>
<path fill="none" stroke="midnightblue" d="M271.38,-714.96C285.43,-747.08 322.12,-821.4 376,-861.5 377.87,-862.89 379.83,-864.21 381.85,-865.45"/>
<polygon fill="midnightblue" stroke="midnightblue" points="380.59,-868.74 391.05,-870.41 383.91,-862.58 380.59,-868.74"/>
</g>
<!-- Node17 -->
<g id="node17" class="node">
<title>Node17</title>
<g id="a_node17"><a xlink:href="classAbstractPokitServicePrivate.html#a84bef330c6ff124f1e460bb8949d82da" target="_top" xlink:title="Handles QLowEnergyService::characteristicRead events.">
<polygon fill="none" stroke="black" points="376,-821.5 376,-851.5 528,-851.5 528,-821.5 376,-821.5"/>
<text text-anchor="start" x="384" y="-839.5" font-family="Helvetica,sans-Serif" font-size="10.00">AbstractPokitServicePrivate</text>
<text text-anchor="middle" x="452" y="-828.5" font-family="Helvetica,sans-Serif" font-size="10.00">::characteristicRead</text>
</a>
</g>
</g>
<!-- Node3&#45;&gt;Node17 -->
<g id="edge21" class="edge">
<title>Node3&#45;&gt;Node17</title>
<path fill="none" stroke="midnightblue" d="M275.88,-714.6C294,-738.69 332.68,-785.82 376,-812.5 378.65,-814.13 381.42,-815.66 384.27,-817.1"/>
<polygon fill="midnightblue" stroke="midnightblue" points="383.05,-820.39 393.6,-821.37 385.96,-814.02 383.05,-820.39"/>
</g>
<!-- Node18 -->
<g id="node18" class="node">
<title>Node18</title>
<g id="a_node18"><a target="_parent" xlink:href="https://doc.qt.io/qt-5/qlowenergyservice.html#characteristicRead" xlink:title=" ">
<polygon fill="none" stroke="black" points="392.5,-772.5 392.5,-802.5 511.5,-802.5 511.5,-772.5 392.5,-772.5"/>
<text text-anchor="start" x="400.5" y="-790.5" font-family="Helvetica,sans-Serif" font-size="10.00">QLowEnergyService::</text>
<text text-anchor="middle" x="452" y="-779.5" font-family="Helvetica,sans-Serif" font-size="10.00">characteristicRead</text>
</a>
</g>
</g>
<!-- Node3&#45;&gt;Node18 -->
<g id="edge29" class="edge">
<title>Node3&#45;&gt;Node18</title>
<path fill="none" stroke="midnightblue" d="M291.99,-714.58C314.23,-726.77 346.76,-744.06 376,-757.5 384.15,-761.25 392.9,-764.99 401.45,-768.5"/>
<polygon fill="midnightblue" stroke="midnightblue" points="400.4,-771.85 410.98,-772.36 403.02,-765.36 400.4,-771.85"/>
</g>
<!-- Node19 -->
<g id="node19" class="node">
<title>Node19</title>
<g id="a_node19"><a xlink:href="classAbstractPokitServicePrivate.html#aaf4a6cb9f0b1fe537877d615a6634201" target="_top" xlink:title="Handles QLowEnergyService::characteristicWritten events.">
<polygon fill="none" stroke="black" points="376,-968.5 376,-998.5 528,-998.5 528,-968.5 376,-968.5"/>
<text text-anchor="start" x="384" y="-986.5" font-family="Helvetica,sans-Serif" font-size="10.00">AbstractPokitServicePrivate</text>
<text text-anchor="middle" x="452" y="-975.5" font-family="Helvetica,sans-Serif" font-size="10.00">::characteristicWritten</text>
</a>
</g>
</g>
<!-- Node3&#45;&gt;Node19 -->
<g id="edge30" class="edge">
<title>Node3&#45;&gt;Node19</title>
<path fill="none" stroke="midnightblue" d="M267.03,-714.63C273.79,-758.99 299.6,-889.95 376,-959.5 377.29,-960.67 378.63,-961.78 380.02,-962.84"/>
<polygon fill="midnightblue" stroke="midnightblue" points="378.17,-965.81 388.46,-968.34 381.99,-959.95 378.17,-965.81"/>
</g>
<!-- Node20 -->
<g id="node20" class="node">
<title>Node20</title>
<g id="a_node20"><a target="_parent" xlink:href="https://doc.qt.io/qt-5/qlowenergyservice.html#characteristicWritten" xlink:title=" ">
<polygon fill="none" stroke="black" points="392.5,-684.5 392.5,-714.5 511.5,-714.5 511.5,-684.5 392.5,-684.5"/>
<text text-anchor="start" x="400.5" y="-702.5" font-family="Helvetica,sans-Serif" font-size="10.00">QLowEnergyService::</text>
<text text-anchor="middle" x="452" y="-691.5" font-family="Helvetica,sans-Serif" font-size="10.00">characteristicWritten</text>
</a>
</g>
</g>
<!-- Node3&#45;&gt;Node20 -->
<g id="edge38" class="edge">
<title>Node3&#45;&gt;Node20</title>
<path fill="none" stroke="midnightblue" d="M340.12,-699.5C354.02,-699.5 368.47,-699.5 382.17,-699.5"/>
<polygon fill="midnightblue" stroke="midnightblue" points="382.48,-703 392.48,-699.5 382.48,-696 382.48,-703"/>
</g>
<!-- Node21 -->
<g id="node21" class="node">
<title>Node21</title>
<g id="a_node21"><a target="_parent" xlink:href="https://doc.qt.io/qt-5/qobject.html#connect" xlink:title=" ">
<polygon fill="none" stroke="black" points="402,-646 402,-665 502,-665 502,-646 402,-646"/>
<text text-anchor="middle" x="452" y="-653" font-family="Helvetica,sans-Serif" font-size="10.00">QObject::connect</text>
</a>
</g>
</g>
<!-- Node3&#45;&gt;Node21 -->
<g id="edge39" class="edge">
<title>Node3&#45;&gt;Node21</title>
<path fill="none" stroke="midnightblue" d="M328.49,-684.48C352.13,-678.89 378.6,-672.63 400.88,-667.36"/>
<polygon fill="midnightblue" stroke="midnightblue" points="401.86,-670.72 410.79,-665.01 400.25,-663.91 401.86,-670.72"/>
</g>
<!-- Node22 -->
<g id="node22" class="node">
<title>Node22</title>
<g id="a_node22"><a target="_parent" xlink:href="https://doc.qt.io/qt-5/qlowenergycontroller.html#createServiceObject" xlink:title=" ">
<polygon fill="none" stroke="black" points="389.5,-596.5 389.5,-626.5 514.5,-626.5 514.5,-596.5 389.5,-596.5"/>
<text text-anchor="start" x="397.5" y="-614.5" font-family="Helvetica,sans-Serif" font-size="10.00">QLowEnergyController</text>
<text text-anchor="middle" x="452" y="-603.5" font-family="Helvetica,sans-Serif" font-size="10.00">::createServiceObject</text>
</a>
</g>
</g>
<!-- Node3&#45;&gt;Node22 -->
<g id="edge40" class="edge">
<title>Node3&#45;&gt;Node22</title>
<path fill="none" stroke="midnightblue" d="M288.55,-684.34C310.55,-670.62 344.63,-650.47 376,-636.5 381.02,-634.27 386.29,-632.12 391.63,-630.09"/>
<polygon fill="midnightblue" stroke="midnightblue" points="393.07,-633.29 401.26,-626.56 390.67,-626.72 393.07,-633.29"/>
</g>
<!-- Node23 -->
<g id="node23" class="node">
<title>Node23</title>
<g id="a_node23"><a target="_parent" xlink:href="https://doc.qt.io/qt-5/qlowenergyservice.html#descriptorRead" xlink:title=" ">
<polygon fill="none" stroke="black" points="392.5,-547.5 392.5,-577.5 511.5,-577.5 511.5,-547.5 392.5,-547.5"/>
<text text-anchor="start" x="400.5" y="-565.5" font-family="Helvetica,sans-Serif" font-size="10.00">QLowEnergyService::</text>
<text text-anchor="middle" x="452" y="-554.5" font-family="Helvetica,sans-Serif" font-size="10.00">descriptorRead</text>
</a>
</g>
</g>
<!-- Node3&#45;&gt;Node23 -->
<g id="edge41" class="edge">
<title>Node3&#45;&gt;Node23</title>
<path fill="none" stroke="midnightblue" d="M276.25,-684.21C294.59,-660.31 333.21,-614.08 376,-587.5 379.32,-585.44 382.82,-583.53 386.43,-581.76"/>
<polygon fill="midnightblue" stroke="midnightblue" points="387.89,-584.94 395.58,-577.65 385.02,-578.56 387.89,-584.94"/>
</g>
<!-- Node24 -->
<g id="node24" class="node">
<title>Node24</title>
<g id="a_node24"><a target="_parent" xlink:href="https://doc.qt.io/qt-5/qlowenergyservice.html#descriptorWritten" xlink:title=" ">
<polygon fill="none" stroke="black" points="392.5,-498.5 392.5,-528.5 511.5,-528.5 511.5,-498.5 392.5,-498.5"/>
<text text-anchor="start" x="400.5" y="-516.5" font-family="Helvetica,sans-Serif" font-size="10.00">QLowEnergyService::</text>
<text text-anchor="middle" x="452" y="-505.5" font-family="Helvetica,sans-Serif" font-size="10.00">descriptorWritten</text>
</a>
</g>
</g>
<!-- Node3&#45;&gt;Node24 -->
<g id="edge42" class="edge">
<title>Node3&#45;&gt;Node24</title>
<path fill="none" stroke="midnightblue" d="M271.45,-684.19C285.62,-652.36 322.53,-578.68 376,-538.5 378.5,-536.62 381.14,-534.88 383.89,-533.27"/>
<polygon fill="midnightblue" stroke="midnightblue" points="385.72,-536.26 392.97,-528.53 382.48,-530.06 385.72,-536.26"/>
</g>
<!-- Node25 -->
<g id="node25" class="node">
<title>Node25</title>
<g id="a_node25"><a target="_parent" xlink:href="https://doc.qt.io/qt-5/qlowenergyservice.html#discoverDetails" xlink:title=" ">
<polygon fill="none" stroke="black" points="392.5,-449.5 392.5,-479.5 511.5,-479.5 511.5,-449.5 392.5,-449.5"/>
<text text-anchor="start" x="400.5" y="-467.5" font-family="Helvetica,sans-Serif" font-size="10.00">QLowEnergyService::</text>
<text text-anchor="middle" x="452" y="-456.5" font-family="Helvetica,sans-Serif" font-size="10.00">discoverDetails</text>
</a>
</g>
</g>
<!-- Node3&#45;&gt;Node25 -->
<g id="edge43" class="edge">
<title>Node3&#45;&gt;Node25</title>
<path fill="none" stroke="midnightblue" d="M268.78,-684.33C279.13,-645.94 311.51,-544.16 376,-489.5 378.38,-487.48 380.94,-485.62 383.61,-483.91"/>
<polygon fill="midnightblue" stroke="midnightblue" points="385.48,-486.88 392.5,-478.94 382.06,-480.77 385.48,-486.88"/>
</g>
<!-- Node26 -->
<g id="node26" class="node">
<title>Node26</title>
<g id="a_node26"><a target="_parent" xlink:href="https://doc.qt.io/qt-5/qlowenergyservice.html#error" xlink:title=" ">
<polygon fill="none" stroke="black" points="392.5,-400.5 392.5,-430.5 511.5,-430.5 511.5,-400.5 392.5,-400.5"/>
<text text-anchor="start" x="400.5" y="-418.5" font-family="Helvetica,sans-Serif" font-size="10.00">QLowEnergyService::</text>
<text text-anchor="middle" x="452" y="-407.5" font-family="Helvetica,sans-Serif" font-size="10.00">error</text>
</a>
</g>
</g>
<!-- Node3&#45;&gt;Node26 -->
<g id="edge44" class="edge">
<title>Node3&#45;&gt;Node26</title>
<path fill="none" stroke="midnightblue" d="M267.09,-684.47C274.01,-640.4 300.22,-510.23 376,-440.5 378.3,-438.38 380.78,-436.45 383.4,-434.67"/>
<polygon fill="midnightblue" stroke="midnightblue" points="385.29,-437.62 392.15,-429.55 381.75,-431.58 385.29,-437.62"/>
</g>
<!-- Node27 -->
<g id="node27" class="node">
<title>Node27</title>
<g id="a_node27"><a xlink:href="classAbstractPokitServicePrivate.html#ab086f2e2e5058bc7978a67e86d579325" target="_top" xlink:title="Handles QLowEnergyController::errorOccurred events.">
<polygon fill="none" stroke="black" points="564,-337.5 564,-367.5 716,-367.5 716,-337.5 564,-337.5"/>
<text text-anchor="start" x="572" y="-355.5" font-family="Helvetica,sans-Serif" font-size="10.00">AbstractPokitServicePrivate</text>
<text text-anchor="middle" x="640" y="-344.5" font-family="Helvetica,sans-Serif" font-size="10.00">::errorOccurred</text>
</a>
</g>
</g>
<!-- Node3&#45;&gt;Node27 -->
<g id="edge45" class="edge">
<title>Node3&#45;&gt;Node27</title>
<path fill="none" stroke="midnightblue" d="M266.84,-684.3C275.25,-617.58 312.42,-351.71 376,-303.5 445.1,-251.11 553.29,-301.2 606.81,-332.15"/>
<polygon fill="midnightblue" stroke="midnightblue" points="605.14,-335.23 615.53,-337.31 608.7,-329.21 605.14,-335.23"/>
</g>
<!-- Node28 -->
<g id="node28" class="node">
<title>Node28</title>
<g id="a_node28"><a target="_parent" xlink:href="https://doc.qt.io/qt-5/qlowenergydescriptor.html#name" xlink:title=" ">
<polygon fill="none" stroke="black" points="388,-312.5 388,-342.5 516,-342.5 516,-312.5 388,-312.5"/>
<text text-anchor="start" x="396" y="-330.5" font-family="Helvetica,sans-Serif" font-size="10.00">QLowEnergyDescriptor</text>
<text text-anchor="middle" x="452" y="-319.5" font-family="Helvetica,sans-Serif" font-size="10.00">::name</text>
</a>
</g>
</g>
<!-- Node3&#45;&gt;Node28 -->
<g id="edge47" class="edge">
<title>Node3&#45;&gt;Node28</title>
<path fill="none" stroke="midnightblue" d="M265.54,-684.27C268.19,-631.75 283.89,-455.97 376,-357.5 379.5,-353.76 383.53,-350.47 387.87,-347.59"/>
<polygon fill="midnightblue" stroke="midnightblue" points="389.67,-350.59 396.54,-342.52 386.14,-344.55 389.67,-350.59"/>
</g>
<!-- Node29 -->
<g id="node29" class="node">
<title>Node29</title>
<g id="a_node29"><a xlink:href="classAbstractPokitServicePrivate.html#ad4cd6a5700b0b764b3a81f67603dc68f" target="_top" xlink:title="Handles QLowEnergyController::stateChanged events.">
<polygon fill="none" stroke="black" points="564,-512.5 564,-542.5 716,-542.5 716,-512.5 564,-512.5"/>
<text text-anchor="start" x="572" y="-530.5" font-family="Helvetica,sans-Serif" font-size="10.00">AbstractPokitServicePrivate</text>
<text text-anchor="middle" x="640" y="-519.5" font-family="Helvetica,sans-Serif" font-size="10.00">::stateChanged</text>
</a>
</g>
</g>
<!-- Node3&#45;&gt;Node29 -->
<g id="edge48" class="edge">
<title>Node3&#45;&gt;Node29</title>
<path fill="none" stroke="midnightblue" d="M264.93,-684.46C265.58,-632.83 275.54,-462.08 376,-391.5 431.28,-352.66 466.97,-362.53 528,-391.5 576.66,-414.59 611.03,-470.61 627.66,-503.09"/>
<polygon fill="midnightblue" stroke="midnightblue" points="624.67,-504.95 632.24,-512.35 630.94,-501.84 624.67,-504.95"/>
</g>
<!-- Node30 -->
<g id="node30" class="node">
<title>Node30</title>
<g id="a_node30"><a target="_parent" xlink:href="https://doc.qt.io/qt-5/qlowenergyservice.html#stateChanged" xlink:title=" ">
<polygon fill="none" stroke="black" points="392.5,-1105.5 392.5,-1135.5 511.5,-1135.5 511.5,-1105.5 392.5,-1105.5"/>
<text text-anchor="start" x="400.5" y="-1123.5" font-family="Helvetica,sans-Serif" font-size="10.00">QLowEnergyService::</text>
<text text-anchor="middle" x="452" y="-1112.5" font-family="Helvetica,sans-Serif" font-size="10.00">stateChanged</text>
</a>
</g>
</g>
<!-- Node3&#45;&gt;Node30 -->
<g id="edge50" class="edge">
<title>Node3&#45;&gt;Node30</title>
<path fill="none" stroke="midnightblue" d="M264.48,-714.51C263.31,-772.38 267,-983.38 376,-1096.5 378.32,-1098.91 380.89,-1101.08 383.63,-1103.03"/>
<polygon fill="midnightblue" stroke="midnightblue" points="381.94,-1106.1 392.31,-1108.26 385.55,-1100.1 381.94,-1106.1"/>
</g>
<!-- Node31 -->
<g id="node31" class="node">
<title>Node31</title>
<g id="a_node31"><a target="_parent" xlink:href="https://doc.qt.io/qt-5/qlowenergydescriptor.html#uuid" xlink:title=" ">
<polygon fill="none" stroke="black" points="388,-1056.5 388,-1086.5 516,-1086.5 516,-1056.5 388,-1056.5"/>
<text text-anchor="start" x="396" y="-1074.5" font-family="Helvetica,sans-Serif" font-size="10.00">QLowEnergyDescriptor</text>
<text text-anchor="middle" x="452" y="-1063.5" font-family="Helvetica,sans-Serif" font-size="10.00">::uuid</text>
</a>
</g>
</g>
<!-- Node3&#45;&gt;Node31 -->
<g id="edge53" class="edge">
<title>Node3&#45;&gt;Node31</title>
<path fill="none" stroke="midnightblue" d="M265.54,-714.73C268.19,-767.25 283.89,-943.03 376,-1041.5 379.5,-1045.24 383.53,-1048.53 387.87,-1051.41"/>
<polygon fill="midnightblue" stroke="midnightblue" points="386.14,-1054.45 396.54,-1056.48 389.67,-1048.41 386.14,-1054.45"/>
</g>
<!-- Node4&#45;&gt;Node2 -->
<g id="edge5" class="edge">
<title>Node4&#45;&gt;Node2</title>
<path fill="none" stroke="midnightblue" d="M514.75,-949.6C519.59,-952.37 524.1,-955.63 528,-959.5 563.03,-994.23 527.11,-1031.75 564,-1064.5 572.39,-1071.95 712.88,-1099.52 787.79,-1113.8"/>
<polygon fill="midnightblue" stroke="midnightblue" points="787.43,-1117.29 797.91,-1115.72 788.74,-1110.41 787.43,-1117.29"/>
</g>
<!-- Node5 -->
<g id="node5" class="node">
<title>Node5</title>
<g id="a_node5"><a xlink:href="classPokitDevice.html#a0a3e6078ce0a7c2d93171ef0f4183d61" target="_top" xlink:title="Returns a human&#45;readable name for the uuid characteristic, or a null QString if unknown.">
<polygon fill="none" stroke="black" points="569.5,-739.5 569.5,-769.5 710.5,-769.5 710.5,-739.5 569.5,-739.5"/>
<text text-anchor="start" x="577.5" y="-757.5" font-family="Helvetica,sans-Serif" font-size="10.00">PokitDevice::charcteristic</text>
<text text-anchor="middle" x="640" y="-746.5" font-family="Helvetica,sans-Serif" font-size="10.00">ToString</text>
</a>
</g>
</g>
<!-- Node4&#45;&gt;Node5 -->
<g id="edge6" class="edge">
<title>Node4&#45;&gt;Node5</title>
<path fill="none" stroke="midnightblue" d="M515.66,-919.46C520.12,-916.92 524.31,-913.96 528,-910.5 560.01,-880.45 538.54,-854.27 564,-818.5 575.7,-802.06 592.53,-787.2 607.28,-775.94"/>
<polygon fill="midnightblue" stroke="midnightblue" points="609.7,-778.5 615.67,-769.74 605.54,-772.86 609.7,-778.5"/>
</g>
<!-- Node4&#45;&gt;Node7 -->
<g id="edge18" class="edge">
<title>Node4&#45;&gt;Node7</title>
<path fill="none" stroke="midnightblue" d="M517.4,-919.48C521.31,-916.93 524.9,-913.97 528,-910.5 582.36,-849.66 507.7,-789.54 564,-730.5 612.05,-680.1 649.12,-711.88 716,-692.5 743.56,-684.51 774.33,-674.3 797.54,-666.33"/>
<polygon fill="midnightblue" stroke="midnightblue" points="798.69,-669.63 807,-663.06 796.4,-663.02 798.69,-669.63"/>
</g>
<!-- Node8 -->
<g id="node8" class="node">
<title>Node8</title>
<g id="a_node8"><a target="_parent" xlink:href="https://doc.qt.io/qt-5/qbytearray.html#size" xlink:title=" ">
<polygon fill="none" stroke="black" points="786,-916 786,-935 884,-935 884,-916 786,-916"/>
<text text-anchor="middle" x="835" y="-923" font-family="Helvetica,sans-Serif" font-size="10.00">QByteArray::size</text>
</a>
</g>
</g>
<!-- Node4&#45;&gt;Node8 -->
<g id="edge9" class="edge">
<title>Node4&#45;&gt;Node8</title>
<path fill="none" stroke="midnightblue" d="M528.27,-932.72C600.84,-931.01 709.13,-928.45 775.46,-926.88"/>
<polygon fill="midnightblue" stroke="midnightblue" points="775.82,-930.38 785.73,-926.64 775.65,-923.38 775.82,-930.38"/>
</g>
<!-- Node9 -->
<g id="node9" class="node">
<title>Node9</title>
<g id="a_node9"><a xlink:href="classAbstractPokitServicePrivate.html#af748600fc201fe47f29b58e8e93179d8" target="_top" xlink:title="Returns up to maxSize bytes of data as a human readable hexadecimal string.">
<polygon fill="none" stroke="black" points="564,-991.5 564,-1021.5 716,-1021.5 716,-991.5 564,-991.5"/>
<text text-anchor="start" x="572" y="-1009.5" font-family="Helvetica,sans-Serif" font-size="10.00">AbstractPokitServicePrivate</text>
<text text-anchor="middle" x="640" y="-998.5" font-family="Helvetica,sans-Serif" font-size="10.00">::toHexString</text>
</a>
</g>
</g>
<!-- Node4&#45;&gt;Node9 -->
<g id="edge10" class="edge">
<title>Node4&#45;&gt;Node9</title>
<path fill="none" stroke="midnightblue" d="M500.01,-949.54C509.33,-952.7 519.01,-956.11 528,-959.5 550.65,-968.05 575.49,-978.47 595.92,-987.33"/>
<polygon fill="midnightblue" stroke="midnightblue" points="594.71,-990.62 605.27,-991.4 597.5,-984.2 594.71,-990.62"/>
</g>
<!-- Node4&#45;&gt;Node14 -->
<g id="edge17" class="edge">
<title>Node4&#45;&gt;Node14</title>
<path fill="none" stroke="midnightblue" d="M515.82,-949.69C520.31,-952.44 524.45,-955.68 528,-959.5 572.57,-1007.55 529,-1047.09 564,-1102.5 576.33,-1122.02 596.88,-1138.37 613.35,-1149.37"/>
<polygon fill="midnightblue" stroke="midnightblue" points="611.69,-1152.47 622,-1154.92 615.47,-1146.58 611.69,-1152.47"/>
</g>
<!-- Node15 -->
<g id="node15" class="node">
<title>Node15</title>
<g id="a_node15"><a target="_parent" xlink:href="https://doc.qt.io/qt-5/qlowenergycharacteristic.html#uuid" xlink:title=" ">
<polygon fill="none" stroke="black" points="567.5,-827.5 567.5,-857.5 712.5,-857.5 712.5,-827.5 567.5,-827.5"/>
<text text-anchor="start" x="575.5" y="-845.5" font-family="Helvetica,sans-Serif" font-size="10.00">QLowEnergyCharacteristic</text>
<text text-anchor="middle" x="640" y="-834.5" font-family="Helvetica,sans-Serif" font-size="10.00">::uuid</text>
</a>
</g>
</g>
<!-- Node4&#45;&gt;Node15 -->
<g id="edge19" class="edge">
<title>Node4&#45;&gt;Node15</title>
<path fill="none" stroke="midnightblue" d="M510.47,-919.47C516.59,-916.89 522.56,-913.92 528,-910.5 547.7,-898.12 544.75,-885.57 564,-872.5 569.9,-868.49 576.42,-864.89 583.08,-861.7"/>
<polygon fill="midnightblue" stroke="midnightblue" points="584.52,-864.89 592.2,-857.59 581.64,-858.51 584.52,-864.89"/>
</g>
<!-- Node6 -->
<g id="node6" class="node">
<title>Node6</title>
<g id="a_node6"><a target="_parent" xlink:href="https://doc.qt.io/qt-5/qbluetoothuuid.html#characteristicToString" xlink:title=" ">
<polygon fill="none" stroke="black" points="752,-739.5 752,-769.5 918,-769.5 918,-739.5 752,-739.5"/>
<text text-anchor="start" x="760" y="-757.5" font-family="Helvetica,sans-Serif" font-size="10.00">QBluetoothUuid::characteristic</text>
<text text-anchor="middle" x="835" y="-746.5" font-family="Helvetica,sans-Serif" font-size="10.00">ToString</text>
</a>
</g>
</g>
<!-- Node5&#45;&gt;Node6 -->
<g id="edge7" class="edge">
<title>Node5&#45;&gt;Node6</title>
<path fill="none" stroke="midnightblue" d="M710.68,-754.5C720.82,-754.5 731.4,-754.5 741.91,-754.5"/>
<polygon fill="midnightblue" stroke="midnightblue" points="741.94,-758 751.94,-754.5 741.94,-751 741.94,-758"/>
</g>
<!-- Node5&#45;&gt;Node7 -->
<g id="edge8" class="edge">
<title>Node5&#45;&gt;Node7</title>
<path fill="none" stroke="midnightblue" d="M682.01,-739.48C693.19,-735.01 705.2,-729.87 716,-724.5 750.4,-707.41 788.1,-683.8 811.41,-668.59"/>
<polygon fill="midnightblue" stroke="midnightblue" points="813.46,-671.44 819.89,-663.01 809.61,-665.59 813.46,-671.44"/>
</g>
<!-- Node9&#45;&gt;Node2 -->
<g id="edge11" class="edge">
<title>Node9&#45;&gt;Node2</title>
<path fill="none" stroke="midnightblue" d="M692.08,-1021.51C700.65,-1025.49 709.02,-1030.42 716,-1036.5 740.33,-1057.67 726.57,-1079.66 752,-1099.5 762.3,-1107.54 775.26,-1112.77 787.82,-1116.17"/>
<polygon fill="midnightblue" stroke="midnightblue" points="787.21,-1119.62 797.75,-1118.52 788.82,-1112.81 787.21,-1119.62"/>
</g>
<!-- Node9&#45;&gt;Node8 -->
<g id="edge15" class="edge">
<title>Node9&#45;&gt;Node8</title>
<path fill="none" stroke="midnightblue" d="M684.87,-991.49C695.36,-987.22 706.32,-982.16 716,-976.5 733.73,-966.13 733.68,-956.81 752,-947.5 759.56,-943.66 767.85,-940.44 776.18,-937.74"/>
<polygon fill="midnightblue" stroke="midnightblue" points="777.35,-941.05 785.92,-934.82 775.34,-934.34 777.35,-941.05"/>
</g>
<!-- Node10 -->
<g id="node10" class="node">
<title>Node10</title>
<g id="a_node10"><a target="_parent" xlink:href="https://doc.qt.io/qt-5/qstring.html#fromLatin1" xlink:title=" ">
<polygon fill="none" stroke="black" points="779,-1071 779,-1090 891,-1090 891,-1071 779,-1071"/>
<text text-anchor="middle" x="835" y="-1078" font-family="Helvetica,sans-Serif" font-size="10.00">QString::fromLatin1</text>
</a>
</g>
</g>
<!-- Node9&#45;&gt;Node10 -->
<g id="edge12" class="edge">
<title>Node9&#45;&gt;Node10</title>
<path fill="none" stroke="midnightblue" d="M683.42,-1021.53C694.26,-1025.89 705.75,-1030.98 716,-1036.5 733.15,-1045.73 734.19,-1053.6 752,-1061.5 757.7,-1064.03 763.77,-1066.24 769.94,-1068.17"/>
<polygon fill="midnightblue" stroke="midnightblue" points="769.1,-1071.57 779.68,-1070.98 771.04,-1064.84 769.1,-1071.57"/>
</g>
<!-- Node11 -->
<g id="node11" class="node">
<title>Node11</title>
<g id="a_node11"><a target="_parent" xlink:href="https://doc.qt.io/qt-5/qbytearray.html#left" xlink:title=" ">
<polygon fill="none" stroke="black" points="788,-1033 788,-1052 882,-1052 882,-1033 788,-1033"/>
<text text-anchor="middle" x="835" y="-1040" font-family="Helvetica,sans-Serif" font-size="10.00">QByteArray::left</text>
</a>
</g>
</g>
<!-- Node9&#45;&gt;Node11 -->
<g id="edge13" class="edge">
<title>Node9&#45;&gt;Node11</title>
<path fill="none" stroke="midnightblue" d="M716.17,-1020.52C736.63,-1024.34 758.43,-1028.4 777.65,-1031.99"/>
<polygon fill="midnightblue" stroke="midnightblue" points="777.26,-1035.48 787.73,-1033.87 778.54,-1028.6 777.26,-1035.48"/>
</g>
<!-- Node12 -->
<g id="node12" class="node">
<title>Node12</title>
<g id="a_node12"><a target="_parent" xlink:href="https://doc.qt.io/qt-5/qbytearray.html#right" xlink:title=" ">
<polygon fill="none" stroke="black" points="784.5,-995 784.5,-1014 885.5,-1014 885.5,-995 784.5,-995"/>
<text text-anchor="middle" x="835" y="-1002" font-family="Helvetica,sans-Serif" font-size="10.00">QByteArray::right</text>
</a>
</g>
</g>
<!-- Node9&#45;&gt;Node12 -->
<g id="edge14" class="edge">
<title>Node9&#45;&gt;Node12</title>
<path fill="none" stroke="midnightblue" d="M716.17,-1005.72C735.37,-1005.52 755.76,-1005.31 774.08,-1005.12"/>
<polygon fill="midnightblue" stroke="midnightblue" points="774.35,-1008.62 784.31,-1005.01 774.28,-1001.62 774.35,-1008.62"/>
</g>
<!-- Node13 -->
<g id="node13" class="node">
<title>Node13</title>
<g id="a_node13"><a target="_parent" xlink:href="https://doc.qt.io/qt-5/qbytearray.html#toHex" xlink:title=" ">
<polygon fill="none" stroke="black" points="781.5,-957 781.5,-976 888.5,-976 888.5,-957 781.5,-957"/>
<text text-anchor="middle" x="835" y="-964" font-family="Helvetica,sans-Serif" font-size="10.00">QByteArray::toHex</text>
</a>
</g>
</g>
<!-- Node9&#45;&gt;Node13 -->
<g id="edge16" class="edge">
<title>Node9&#45;&gt;Node13</title>
<path fill="none" stroke="midnightblue" d="M713.42,-991.49C734.83,-987.05 757.93,-982.27 778.13,-978.08"/>
<polygon fill="midnightblue" stroke="midnightblue" points="779.01,-981.47 788.09,-976.01 777.59,-974.62 779.01,-981.47"/>
</g>
<!-- Node17&#45;&gt;Node2 -->
<g id="edge22" class="edge">
<title>Node17&#45;&gt;Node2</title>
<path fill="none" stroke="midnightblue" d="M515.98,-851.55C520.43,-854.32 524.53,-857.61 528,-861.5 579.44,-919.11 509.53,-976.75 564,-1031.5 612.76,-1080.51 655.09,-1031.81 716,-1064.5 735.66,-1075.05 732.66,-1088.37 752,-1099.5 762.91,-1105.78 775.64,-1110.43 787.76,-1113.84"/>
<polygon fill="midnightblue" stroke="midnightblue" points="787.2,-1117.3 797.75,-1116.41 788.94,-1110.53 787.2,-1117.3"/>
</g>
<!-- Node17&#45;&gt;Node5 -->
<g id="edge23" class="edge">
<title>Node17&#45;&gt;Node5</title>
<path fill="none" stroke="midnightblue" d="M507.99,-821.39C514.88,-818.78 521.71,-815.82 528,-812.5 545.93,-803.04 546.42,-794.59 564,-784.5 570.84,-780.58 578.3,-776.93 585.77,-773.62"/>
<polygon fill="midnightblue" stroke="midnightblue" points="587.35,-776.75 595.19,-769.63 584.62,-770.31 587.35,-776.75"/>
</g>
<!-- Node17&#45;&gt;Node7 -->
<g id="edge27" class="edge">
<title>Node17&#45;&gt;Node7</title>
<path fill="none" stroke="midnightblue" d="M516.65,-821.32C520.78,-818.82 524.63,-815.9 528,-812.5 566,-774.16 523.2,-731.85 564,-696.5 597.03,-667.88 722.25,-658.19 789.94,-655"/>
<polygon fill="midnightblue" stroke="midnightblue" points="790.45,-658.48 800.28,-654.54 790.14,-651.49 790.45,-658.48"/>
</g>
<!-- Node17&#45;&gt;Node8 -->
<g id="edge24" class="edge">
<title>Node17&#45;&gt;Node8</title>
<path fill="none" stroke="midnightblue" d="M500.89,-821.38C555.04,-806.93 644.91,-791.07 716,-818.5 762.62,-836.49 802.22,-882.39 821.48,-907.84"/>
<polygon fill="midnightblue" stroke="midnightblue" points="818.67,-909.93 827.42,-915.91 824.31,-905.78 818.67,-909.93"/>
</g>
<!-- Node17&#45;&gt;Node9 -->
<g id="edge25" class="edge">
<title>Node17&#45;&gt;Node9</title>
<path fill="none" stroke="midnightblue" d="M510.46,-851.62C516.65,-854.4 522.64,-857.67 528,-861.5 573.38,-893.87 608.78,-950.17 626.51,-982.26"/>
<polygon fill="midnightblue" stroke="midnightblue" points="623.6,-984.25 631.43,-991.39 629.76,-980.93 623.6,-984.25"/>
</g>
<!-- Node17&#45;&gt;Node14 -->
<g id="edge26" class="edge">
<title>Node17&#45;&gt;Node14</title>
<path fill="none" stroke="midnightblue" d="M516.47,-851.65C520.75,-854.4 524.68,-857.66 528,-861.5 587.89,-930.85 527.52,-980.45 564,-1064.5 578.08,-1096.93 604.6,-1128.58 622.04,-1147.31"/>
<polygon fill="midnightblue" stroke="midnightblue" points="619.68,-1149.91 629.11,-1154.74 624.75,-1145.08 619.68,-1149.91"/>
</g>
<!-- Node17&#45;&gt;Node15 -->
<g id="edge28" class="edge">
<title>Node17&#45;&gt;Node15</title>
<path fill="none" stroke="midnightblue" d="M528.12,-838.92C537.7,-839.23 547.54,-839.55 557.21,-839.86"/>
<polygon fill="midnightblue" stroke="midnightblue" points="557.11,-843.36 567.22,-840.18 557.34,-836.36 557.11,-843.36"/>
</g>
<!-- Node19&#45;&gt;Node2 -->
<g id="edge31" class="edge">
<title>Node19&#45;&gt;Node2</title>
<path fill="none" stroke="midnightblue" d="M506.32,-998.5C514.26,-1002.44 521.84,-1007.36 528,-1013.5 558.23,-1043.61 529.53,-1077.36 564,-1102.5 629.56,-1150.32 729.48,-1142.74 787.61,-1132.73"/>
<polygon fill="midnightblue" stroke="midnightblue" points="788.4,-1136.15 797.61,-1130.91 787.14,-1129.26 788.4,-1136.15"/>
</g>
<!-- Node19&#45;&gt;Node5 -->
<g id="edge32" class="edge">
<title>Node19&#45;&gt;Node5</title>
<path fill="none" stroke="midnightblue" d="M517.19,-968.29C521.15,-965.79 524.81,-962.88 528,-959.5 572.35,-912.42 529.8,-873.39 564,-818.5 574.52,-801.62 590.94,-786.88 605.74,-775.81"/>
<polygon fill="midnightblue" stroke="midnightblue" points="608.12,-778.41 614.21,-769.73 604.04,-772.72 608.12,-778.41"/>
</g>
<!-- Node19&#45;&gt;Node7 -->
<g id="edge36" class="edge">
<title>Node19&#45;&gt;Node7</title>
<path fill="none" stroke="midnightblue" d="M504.73,-968.43C512.62,-965.7 520.6,-962.7 528,-959.5 544.8,-952.23 547.72,-947.87 564,-939.5 630.48,-905.33 668.26,-925.02 716,-867.5 756.2,-819.05 719.8,-784.6 752,-730.5 767,-705.29 792.63,-683.16 811.25,-669.17"/>
<polygon fill="midnightblue" stroke="midnightblue" points="813.48,-671.87 819.5,-663.15 809.36,-666.22 813.48,-671.87"/>
</g>
<!-- Node19&#45;&gt;Node8 -->
<g id="edge33" class="edge">
<title>Node19&#45;&gt;Node8</title>
<path fill="none" stroke="midnightblue" d="M528.11,-972.09C580.71,-964.09 652.65,-953.15 716,-943.5 735.45,-940.54 756.7,-937.3 775.75,-934.39"/>
<polygon fill="midnightblue" stroke="midnightblue" points="776.42,-937.83 785.78,-932.86 775.36,-930.91 776.42,-937.83"/>
</g>
<!-- Node19&#45;&gt;Node9 -->
<g id="edge34" class="edge">
<title>Node19&#45;&gt;Node9</title>
<path fill="none" stroke="midnightblue" d="M528.12,-992.79C536.6,-993.84 545.28,-994.91 553.87,-995.97"/>
<polygon fill="midnightblue" stroke="midnightblue" points="553.55,-999.46 563.9,-997.21 554.41,-992.51 553.55,-999.46"/>
</g>
<!-- Node19&#45;&gt;Node14 -->
<g id="edge35" class="edge">
<title>Node19&#45;&gt;Node14</title>
<path fill="none" stroke="midnightblue" d="M508.05,-998.53C515.49,-1002.44 522.46,-1007.35 528,-1013.5 567.27,-1057.09 523.22,-1098.33 564,-1140.5 569.74,-1146.44 576.95,-1150.91 584.62,-1154.28"/>
<polygon fill="midnightblue" stroke="midnightblue" points="583.54,-1157.61 594.13,-1157.86 586,-1151.06 583.54,-1157.61"/>
</g>
<!-- Node19&#45;&gt;Node15 -->
<g id="edge37" class="edge">
<title>Node19&#45;&gt;Node15</title>
<path fill="none" stroke="midnightblue" d="M515.58,-968.38C520.07,-965.86 524.28,-962.93 528,-959.5 558.79,-931.16 534.24,-901.91 564,-872.5 567.77,-868.78 572.06,-865.5 576.63,-862.61"/>
<polygon fill="midnightblue" stroke="midnightblue" points="578.69,-865.47 585.72,-857.54 575.28,-859.36 578.69,-865.47"/>
</g>
<!-- Node27&#45;&gt;Node7 -->
<g id="edge46" class="edge">
<title>Node27&#45;&gt;Node7</title>
<path fill="none" stroke="midnightblue" d="M650.84,-367.84C683.3,-418.47 786.97,-580.15 822.17,-635.05"/>
<polygon fill="midnightblue" stroke="midnightblue" points="819.4,-637.21 827.74,-643.74 825.29,-633.43 819.4,-637.21"/>
</g>
<!-- Node29&#45;&gt;Node7 -->
<g id="edge49" class="edge">
<title>Node29&#45;&gt;Node7</title>
<path fill="none" stroke="midnightblue" d="M664.28,-542.7C701.44,-566.96 773.72,-614.15 810.82,-638.36"/>
<polygon fill="midnightblue" stroke="midnightblue" points="809.16,-641.46 819.45,-644 812.99,-635.6 809.16,-641.46"/>
</g>
</g>
</svg>
