<?xml version="1.0" encoding="UTF-8" standalone="no"?>
<!DOCTYPE svg PUBLIC "-//W3C//DTD SVG 1.1//EN"
 "http://www.w3.org/Graphics/SVG/1.1/DTD/svg11.dtd">
<!-- Generated by graphviz version 2.43.0 (0)
 -->
<!-- Title: StatusService::deviceName Pages: 1 -->
<svg width="340pt" height="124pt"
 viewBox="0.00 0.00 340.00 123.50" xmlns="http://www.w3.org/2000/svg" xmlns:xlink="http://www.w3.org/1999/xlink">
<g id="graph0" class="graph" transform="scale(1 1) rotate(0) translate(4 119.5)">
<title>StatusService::deviceName</title>
<!-- Node1 -->
<g id="node1" class="node">
<title>Node1</title>
<g id="a_node1"><a xlink:title="Returns the most recent value of the Status services&#39;s Device Name characteristic.">
<polygon fill="#999999" stroke="#666666" points="151,-72.5 0,-72.5 0,-53.5 151,-53.5 151,-72.5"/>
<text text-anchor="middle" x="75.5" y="-60.5" font-family="Helvetica,sans-Serif" font-size="10.00">StatusService::deviceName</text>
</a>
</g>
</g>
<!-- Node2 -->
<g id="node2" class="node">
<title>Node2</title>
<g id="a_node2"><a target="_parent" xlink:href="https://doc.qt.io/qt-5/qstring.html#fromUtf8" xlink:title=" ">
<polygon fill="white" stroke="#666666" points="311,-115.5 208,-115.5 208,-96.5 311,-96.5 311,-115.5"/>
<text text-anchor="middle" x="259.5" y="-103.5" font-family="Helvetica,sans-Serif" font-size="10.00">QString::fromUtf8</text>
</a>
</g>
</g>
<!-- Node1&#45;&gt;Node2 -->
<g id="edge1" class="edge">
<title>Node1&#45;&gt;Node2</title>
<path fill="none" stroke="#63b8ff" d="M116.89,-72.54C143.87,-78.92 179.55,-87.35 208.35,-94.15"/>
<polygon fill="#63b8ff" stroke="#63b8ff" points="207.68,-97.59 218.22,-96.48 209.29,-90.78 207.68,-97.59"/>
</g>
<!-- Node3 -->
<g id="node3" class="node">
<title>Node3</title>
<g id="a_node3"><a target="_parent" xlink:href="https://doc.qt.io/qt-5/qlowenergycharacteristic.html#isValid" xlink:title=" ">
<polygon fill="white" stroke="#666666" points="332,-78 187,-78 187,-48 332,-48 332,-78"/>
<text text-anchor="start" x="195" y="-66" font-family="Helvetica,sans-Serif" font-size="10.00">QLowEnergyCharacteristic</text>
<text text-anchor="middle" x="259.5" y="-55" font-family="Helvetica,sans-Serif" font-size="10.00">::isValid</text>
</a>
</g>
</g>
<!-- Node1&#45;&gt;Node3 -->
<g id="edge2" class="edge">
<title>Node1&#45;&gt;Node3</title>
<path fill="none" stroke="#63b8ff" d="M151.05,-63C159.43,-63 167.99,-63 176.46,-63"/>
<polygon fill="#63b8ff" stroke="#63b8ff" points="176.71,-66.5 186.71,-63 176.71,-59.5 176.71,-66.5"/>
</g>
<!-- Node4 -->
<g id="node4" class="node">
<title>Node4</title>
<g id="a_node4"><a target="_parent" xlink:href="https://doc.qt.io/qt-5/qlowenergycharacteristic.html#value" xlink:title=" ">
<polygon fill="white" stroke="#666666" points="332,-30 187,-30 187,0 332,0 332,-30"/>
<text text-anchor="start" x="195" y="-18" font-family="Helvetica,sans-Serif" font-size="10.00">QLowEnergyCharacteristic</text>
<text text-anchor="middle" x="259.5" y="-7" font-family="Helvetica,sans-Serif" font-size="10.00">::value</text>
</a>
</g>
</g>
<!-- Node1&#45;&gt;Node4 -->
<g id="edge3" class="edge">
<title>Node1&#45;&gt;Node4</title>
<path fill="none" stroke="#63b8ff" d="M112.89,-53.4C135.34,-47.48 164.81,-39.71 191.37,-32.7"/>
<polygon fill="#63b8ff" stroke="#63b8ff" points="192.61,-36 201.39,-30.06 190.82,-29.23 192.61,-36"/>
</g>
</g>
</svg>
