<?xml version="1.0" encoding="UTF-8" standalone="no"?>
<!DOCTYPE svg PUBLIC "-//W3C//DTD SVG 1.1//EN"
 "http://www.w3.org/Graphics/SVG/1.1/DTD/svg11.dtd">
<!-- Generated by graphviz version 2.43.0 (0)
 -->
<!-- Title: CalibrateCommand::getService Pages: 1 -->
<svg width="756pt" height="194pt"
 viewBox="0.00 0.00 756.00 194.00" xmlns="http://www.w3.org/2000/svg" xmlns:xlink="http://www.w3.org/1999/xlink">
<g id="graph0" class="graph" transform="scale(1 1) rotate(0) translate(4 190)">
<title>CalibrateCommand::getService</title>
<!-- Node1 -->
<g id="Node000001" class="node">
<title>Node1</title>
<g id="a_Node000001"><a xlink:title="Returns a Pokit service object for the derived command class.">
<polygon fill="#999999" stroke="#666666" points="169,-109 0,-109 0,-90 169,-90 169,-109"/>
<text text-anchor="middle" x="84.5" y="-97" font-family="Helvetica,sans-Serif" font-size="10.00">CalibrateCommand::getService</text>
</a>
</g>
</g>
<!-- Node2 -->
<g id="Node000002" class="node">
<title>Node2</title>
<g id="a_Node000002"><a xlink:href="classPokitDevice.html#abb2eafe232090e82ea1a69e38ebab49e" target="_top" xlink:title="Returns a pointer to a CalibrationService instance that uses this device&#39;s controller for access.">
<polygon fill="white" stroke="#666666" points="360.5,-168 227.5,-168 227.5,-149 360.5,-149 360.5,-168"/>
<text text-anchor="middle" x="294" y="-156" font-family="Helvetica,sans-Serif" font-size="10.00">PokitDevice::calibration</text>
</a>
</g>
</g>
<!-- Node1&#45;&gt;Node2 -->
<g id="edge1_Node000001_Node000002" class="edge">
<title>Node1&#45;&gt;Node2</title>
<g id="a_edge1_Node000001_Node000002"><a xlink:title=" ">
<path fill="none" stroke="#63b8ff" d="M110.39,-109.09C134.36,-118.07 171.78,-131.44 205,-140.5 213.84,-142.91 223.27,-145.16 232.53,-147.2"/>
<polygon fill="#63b8ff" stroke="#63b8ff" points="240.62,-148.94 232.04,-150.78 236.71,-148.1 232.8,-147.26 232.8,-147.26 232.8,-147.26 236.71,-148.1 233.56,-143.74 240.62,-148.94 240.62,-148.94"/>
</a>
</g>
</g>
<!-- Node3 -->
<g id="Node000003" class="node">
<title>Node3</title>
<g id="a_Node000003"><a target="_parent" xlink:href="https://doc.qt.io/qt-5/qobject.html#connect" xlink:title=" ">
<polygon fill="white" stroke="#666666" points="344,-131 244,-131 244,-112 344,-112 344,-131"/>
<text text-anchor="middle" x="294" y="-119" font-family="Helvetica,sans-Serif" font-size="10.00">QObject::connect</text>
</a>
</g>
</g>
<!-- Node1&#45;&gt;Node3 -->
<g id="edge3_Node000001_Node000003" class="edge">
<title>Node1&#45;&gt;Node3</title>
<g id="a_edge3_Node000001_Node000003"><a xlink:title=" ">
<path fill="none" stroke="#63b8ff" d="M169,-108.35C191.47,-110.74 215.26,-113.26 235.92,-115.45"/>
<polygon fill="#63b8ff" stroke="#63b8ff" points="243.98,-116.3 235.64,-119.04 240,-115.88 236.02,-115.46 236.02,-115.46 236.02,-115.46 240,-115.88 236.4,-111.88 243.98,-116.3 243.98,-116.3"/>
</a>
</g>
</g>
<!-- Node4 -->
<g id="Node000004" class="node">
<title>Node4</title>
<g id="a_Node000004"><a xlink:href="classCalibrationService.html#a9d2d21992939b86c2dbf9ae65b52a59d" target="_top" xlink:title="This signal is emitted when the Temperature characteristic has been written succesfully.">
<polygon fill="white" stroke="#666666" points="361,-93.5 227,-93.5 227,-63.5 361,-63.5 361,-93.5"/>
<text text-anchor="start" x="235" y="-81.5" font-family="Helvetica,sans-Serif" font-size="10.00">CalibrationService</text>
<text text-anchor="middle" x="294" y="-70.5" font-family="Helvetica,sans-Serif" font-size="10.00">::temperatureCalibrated</text>
</a>
</g>
</g>
<!-- Node1&#45;&gt;Node4 -->
<g id="edge4_Node000001_Node000004" class="edge">
<title>Node1&#45;&gt;Node4</title>
<g id="a_edge4_Node000001_Node000004"><a xlink:title=" ">
<path fill="none" stroke="#63b8ff" d="M169,-91.05C185.4,-89.39 202.5,-87.66 218.58,-86.03"/>
<polygon fill="#63b8ff" stroke="#63b8ff" points="226.88,-85.19 219.29,-89.58 222.9,-85.59 218.92,-86 218.92,-86 218.92,-86 222.9,-85.59 218.56,-82.42 226.88,-85.19 226.88,-85.19"/>
</a>
</g>
</g>
<!-- Node5 -->
<g id="Node000005" class="node">
<title>Node5</title>
<g id="a_Node000005"><a xlink:href="classCalibrateCommand.html#afaf2c6153a3d409c06318dc809df1c78" target="_top" xlink:title="Handles CalibrationService::temperatureCalibrated events, by outputting the result and exiting.">
<polygon fill="white" stroke="#666666" points="383,-45.5 205,-45.5 205,-15.5 383,-15.5 383,-45.5"/>
<text text-anchor="start" x="213" y="-33.5" font-family="Helvetica,sans-Serif" font-size="10.00">CalibrateCommand::temperature</text>
<text text-anchor="middle" x="294" y="-22.5" font-family="Helvetica,sans-Serif" font-size="10.00">Calibrated</text>
</a>
</g>
</g>
<!-- Node1&#45;&gt;Node5 -->
<g id="edge5_Node000001_Node000005" class="edge">
<title>Node1&#45;&gt;Node5</title>
<g id="a_edge5_Node000001_Node000005"><a xlink:title=" ">
<path fill="none" stroke="#63b8ff" d="M109.07,-89.87C133.01,-80.27 171.26,-65.43 205,-54.5 211.97,-52.24 219.3,-50.02 226.62,-47.89"/>
<polygon fill="#63b8ff" stroke="#63b8ff" points="234.55,-45.61 227.85,-51.28 230.7,-46.72 226.86,-47.82 226.86,-47.82 226.86,-47.82 230.7,-46.72 225.87,-44.36 234.55,-45.61 234.55,-45.61"/>
</a>
</g>
</g>
<!-- Node2&#45;&gt;Node2 -->
<g id="edge2_Node000002_Node000002" class="edge">
<title>Node2&#45;&gt;Node2</title>
<g id="a_edge2_Node000002_Node000002"><a xlink:title=" ">
<path fill="none" stroke="#63b8ff" d="M262.56,-168.08C247.26,-176.73 257.74,-186 294,-186 322.89,-186 335.42,-180.12 331.57,-173.35"/>
<polygon fill="#63b8ff" stroke="#63b8ff" points="325.44,-168.08 333.86,-170.56 328.48,-170.69 331.51,-173.3 331.51,-173.3 331.51,-173.3 328.48,-170.69 329.17,-176.03 325.44,-168.08 325.44,-168.08"/>
</a>
</g>
</g>
<!-- Node6 -->
<g id="Node000006" class="node">
<title>Node6</title>
<g id="a_Node000006"><a xlink:href="classDeviceCommand.html#ae619166395b5651f1316fd5336d9fa2c" target="_top" xlink:title="Disconnects the underlying Pokit device, and sets exitCode to be return to the OS once the disconnect...">
<polygon fill="white" stroke="#666666" points="578,-60 419,-60 419,-41 578,-41 578,-60"/>
<text text-anchor="middle" x="498.5" y="-48" font-family="Helvetica,sans-Serif" font-size="10.00">DeviceCommand::disconnect</text>
</a>
</g>
</g>
<!-- Node5&#45;&gt;Node6 -->
<g id="edge6_Node000005_Node000006" class="edge">
<title>Node5&#45;&gt;Node6</title>
<g id="a_edge6_Node000005_Node000006"><a xlink:title=" ">
<path fill="none" stroke="#63b8ff" d="M383.23,-39.21C392.38,-40.12 401.67,-41.04 410.81,-41.94"/>
<polygon fill="#63b8ff" stroke="#63b8ff" points="418.78,-42.73 410.47,-45.52 414.8,-42.33 410.82,-41.94 410.82,-41.94 410.82,-41.94 414.8,-42.33 411.18,-38.36 418.78,-42.73 418.78,-42.73"/>
</a>
</g>
</g>
<!-- Node9 -->
<g id="Node000009" class="node">
<title>Node9</title>
<g id="a_Node000009"><a target="_parent" xlink:href="https://doc.qt.io/qt-5/qobject.html#tr" xlink:title=" ">
<polygon fill="white" stroke="#666666" points="715.5,-19 646.5,-19 646.5,0 715.5,0 715.5,-19"/>
<text text-anchor="middle" x="681" y="-7" font-family="Helvetica,sans-Serif" font-size="10.00">QObject::tr</text>
</a>
</g>
</g>
<!-- Node5&#45;&gt;Node9 -->
<g id="edge10_Node000005_Node000009" class="edge">
<title>Node5&#45;&gt;Node9</title>
<g id="a_edge10_Node000005_Node000009"><a xlink:title=" ">
<path fill="none" stroke="#63b8ff" d="M383.33,-25.68C463.26,-21.32 577.49,-15.09 638.25,-11.78"/>
<polygon fill="#63b8ff" stroke="#63b8ff" points="646.46,-11.33 638.66,-15.36 642.46,-11.55 638.47,-11.77 638.47,-11.77 638.47,-11.77 642.46,-11.55 638.27,-8.17 646.46,-11.33 646.46,-11.33"/>
</a>
</g>
</g>
<!-- Node7 -->
<g id="Node000007" class="node">
<title>Node7</title>
<g id="a_Node000007"><a xlink:href="classPokitDevice.html#a2e2fb6b30e6f5f0d7bc6cd8f806d6423" target="_top" xlink:title="Returns a non&#45;const pointer to the controller used to access the Pokit device.">
<polygon fill="white" stroke="#666666" points="745,-105 617,-105 617,-86 745,-86 745,-105"/>
<text text-anchor="middle" x="681" y="-93" font-family="Helvetica,sans-Serif" font-size="10.00">PokitDevice::controller</text>
</a>
</g>
</g>
<!-- Node6&#45;&gt;Node7 -->
<g id="edge7_Node000006_Node000007" class="edge">
<title>Node6&#45;&gt;Node7</title>
<g id="a_edge7_Node000006_Node000007"><a xlink:title=" ">
<path fill="none" stroke="#63b8ff" d="M537.78,-60.04C565.9,-67.05 604.23,-76.61 634.01,-84.03"/>
<polygon fill="#63b8ff" stroke="#63b8ff" points="641.78,-85.97 633.14,-87.53 637.89,-85 634.01,-84.04 634.01,-84.04 634.01,-84.04 637.89,-85 634.88,-80.54 641.78,-85.97 641.78,-85.97"/>
</a>
</g>
</g>
<!-- Node8 -->
<g id="Node000008" class="node">
<title>Node8</title>
<g id="a_Node000008"><a target="_parent" xlink:href="https://doc.qt.io/qt-5/qlowenergycontroller.html#disconnectFromDevice" xlink:title=" ">
<polygon fill="white" stroke="#666666" points="748,-67.5 614,-67.5 614,-37.5 748,-37.5 748,-67.5"/>
<text text-anchor="start" x="622" y="-55.5" font-family="Helvetica,sans-Serif" font-size="10.00">QLowEnergyController</text>
<text text-anchor="middle" x="681" y="-44.5" font-family="Helvetica,sans-Serif" font-size="10.00">::disconnectFromDevice</text>
</a>
</g>
</g>
<!-- Node6&#45;&gt;Node8 -->
<g id="edge8_Node000006_Node000008" class="edge">
<title>Node6&#45;&gt;Node8</title>
<g id="a_edge8_Node000006_Node000008"><a xlink:title=" ">
<path fill="none" stroke="#63b8ff" d="M578.14,-51.37C587.24,-51.47 596.49,-51.57 605.52,-51.67"/>
<polygon fill="#63b8ff" stroke="#63b8ff" points="613.75,-51.77 605.71,-55.28 609.75,-51.72 605.75,-51.68 605.75,-51.68 605.75,-51.68 609.75,-51.72 605.79,-48.08 613.75,-51.77 613.75,-51.77"/>
</a>
</g>
</g>
<!-- Node6&#45;&gt;Node9 -->
<g id="edge9_Node000006_Node000009" class="edge">
<title>Node6&#45;&gt;Node9</title>
<g id="a_edge9_Node000006_Node000009"><a xlink:title=" ">
<path fill="none" stroke="#63b8ff" d="M541.36,-40.99C570.59,-34.35 609.42,-25.53 638.56,-18.91"/>
<polygon fill="#63b8ff" stroke="#63b8ff" points="646.5,-17.11 639.49,-22.39 642.6,-18 638.7,-18.88 638.7,-18.88 638.7,-18.88 642.6,-18 637.9,-15.37 646.5,-17.11 646.5,-17.11"/>
</a>
</g>
</g>
</g>
</svg>
