<?xml version="1.0" encoding="UTF-8" standalone="no"?>
<!DOCTYPE svg PUBLIC "-//W3C//DTD SVG 1.1//EN"
 "http://www.w3.org/Graphics/SVG/1.1/DTD/svg11.dtd">
<!-- Generated by graphviz version 2.43.0 (0)
 -->
<!-- Title: AbstractPokitServicePrivate::createServiceObject Pages: 1 -->
<svg width="738pt" height="943pt"
 viewBox="0.00 0.00 738.00 943.00" xmlns="http://www.w3.org/2000/svg" xmlns:xlink="http://www.w3.org/1999/xlink">
<g id="graph0" class="graph" transform="scale(1 1) rotate(0) translate(4 939)">
<title>AbstractPokitServicePrivate::createServiceObject</title>
<!-- Node1 -->
<g id="node1" class="node">
<title>Node1</title>
<g id="a_node1"><a xlink:title="Creates an internal service object from the internal controller.">
<polygon fill="#999999" stroke="#666666" points="152,-490 0,-490 0,-460 152,-460 152,-490"/>
<text text-anchor="start" x="8" y="-478" font-family="Helvetica,sans-Serif" font-size="10.00">AbstractPokitServicePrivate</text>
<text text-anchor="middle" x="76" y="-467" font-family="Helvetica,sans-Serif" font-size="10.00">::createServiceObject</text>
</a>
</g>
</g>
<!-- Node2 -->
<g id="node2" class="node">
<title>Node2</title>
<g id="a_node2"><a target="_parent" xlink:href="https://doc.qt.io/qt-5/qstring.html#arg-11" xlink:title=" ">
<polygon fill="white" stroke="#666666" points="684,-316.5 610,-316.5 610,-297.5 684,-297.5 684,-316.5"/>
<text text-anchor="middle" x="647" y="-304.5" font-family="Helvetica,sans-Serif" font-size="10.00">QString::arg</text>
</a>
</g>
</g>
<!-- Node1&#45;&gt;Node2 -->
<g id="edge1" class="edge">
<title>Node1&#45;&gt;Node2</title>
<path fill="none" stroke="#63b8ff" d="M79.4,-459.92C89.55,-398.26 131.03,-166.7 188,-125 340.55,-13.34 570.94,-230 631.17,-291.42"/>
<polygon fill="#63b8ff" stroke="#63b8ff" points="637.07,-297.49 628.91,-294.26 634.28,-294.62 631.5,-291.75 631.5,-291.75 631.5,-291.75 634.28,-294.62 634.08,-289.24 637.07,-297.49 637.07,-297.49"/>
</g>
<!-- Node3 -->
<g id="node3" class="node">
<title>Node3</title>
<g id="a_node3"><a xlink:href="classAbstractPokitServicePrivate.html#a642431b7bfb76baa5d976ae24e90d9ef" target="_top" xlink:title="Handles QLowEnergyService::characteristicChanged events.">
<polygon fill="white" stroke="#666666" points="340,-250 188,-250 188,-220 340,-220 340,-250"/>
<text text-anchor="start" x="196" y="-238" font-family="Helvetica,sans-Serif" font-size="10.00">AbstractPokitServicePrivate</text>
<text text-anchor="middle" x="264" y="-227" font-family="Helvetica,sans-Serif" font-size="10.00">::characteristicChanged</text>
</a>
</g>
</g>
<!-- Node1&#45;&gt;Node3 -->
<g id="edge2" class="edge">
<title>Node1&#45;&gt;Node3</title>
<path fill="none" stroke="#63b8ff" d="M80.47,-459.92C90.24,-420.8 121.73,-315.14 188,-259 190.03,-257.28 192.19,-255.68 194.45,-254.19"/>
<polygon fill="#63b8ff" stroke="#63b8ff" points="201.46,-250.07 196.39,-257.23 198.01,-252.1 194.56,-254.12 194.56,-254.12 194.56,-254.12 198.01,-252.1 192.74,-251.02 201.46,-250.07 201.46,-250.07"/>
</g>
<!-- Node6 -->
<g id="node6" class="node">
<title>Node6</title>
<g id="a_node6"><a target="_parent" xlink:href="https://doc.qt.io/qt-5/qobject.html#tr" xlink:title=" ">
<polygon fill="white" stroke="#666666" points="681.5,-795.5 612.5,-795.5 612.5,-776.5 681.5,-776.5 681.5,-795.5"/>
<text text-anchor="middle" x="647" y="-783.5" font-family="Helvetica,sans-Serif" font-size="10.00">QObject::tr</text>
</a>
</g>
</g>
<!-- Node1&#45;&gt;Node6 -->
<g id="edge51" class="edge">
<title>Node1&#45;&gt;Node6</title>
<path fill="none" stroke="#63b8ff" d="M76.56,-490.22C75.95,-544.16 82,-726.96 188,-803 253.72,-850.14 503.86,-811.69 604.1,-793.86"/>
<polygon fill="#63b8ff" stroke="#63b8ff" points="612.19,-792.41 604.95,-797.37 608.25,-793.12 604.31,-793.82 604.31,-793.82 604.31,-793.82 608.25,-793.12 603.68,-790.28 612.19,-792.41 612.19,-792.41"/>
</g>
<!-- Node13 -->
<g id="node13" class="node">
<title>Node13</title>
<g id="a_node13"><a target="_parent" xlink:href="https://doc.qt.io/qt-5/quuid.html#toString" xlink:title=" ">
<polygon fill="white" stroke="#666666" points="497.5,-681.5 406.5,-681.5 406.5,-662.5 497.5,-662.5 497.5,-681.5"/>
<text text-anchor="middle" x="452" y="-669.5" font-family="Helvetica,sans-Serif" font-size="10.00">QUuid::toString</text>
</a>
</g>
</g>
<!-- Node1&#45;&gt;Node13 -->
<g id="edge50" class="edge">
<title>Node1&#45;&gt;Node13</title>
<path fill="none" stroke="#63b8ff" d="M77.04,-490.11C78.11,-541.2 89.28,-708.11 188,-777 243.4,-815.66 277.23,-801.98 340,-777 385.09,-759.05 422.42,-713.14 440.06,-688.39"/>
<polygon fill="#63b8ff" stroke="#63b8ff" points="444.69,-681.73 443.08,-690.35 442.41,-685.01 440.12,-688.29 440.12,-688.29 440.12,-688.29 442.41,-685.01 437.17,-686.24 444.69,-681.73 444.69,-681.73"/>
</g>
<!-- Node15 -->
<g id="node15" class="node">
<title>Node15</title>
<g id="a_node15"><a target="_parent" xlink:href="https://doc.qt.io/qt-5/qlowenergyservice.html#characteristicChanged" xlink:title=" ">
<polygon fill="white" stroke="#666666" points="326.5,-768 201.5,-768 201.5,-738 326.5,-738 326.5,-768"/>
<text text-anchor="start" x="209.5" y="-756" font-family="Helvetica,sans-Serif" font-size="10.00">QLowEnergyService::</text>
<text text-anchor="middle" x="264" y="-745" font-family="Helvetica,sans-Serif" font-size="10.00">characteristicChanged</text>
</a>
</g>
</g>
<!-- Node1&#45;&gt;Node15 -->
<g id="edge18" class="edge">
<title>Node1&#45;&gt;Node15</title>
<path fill="none" stroke="#63b8ff" d="M79.2,-490.1C86.35,-533.75 112.98,-661.29 188,-729 189.98,-730.79 192.09,-732.44 194.31,-733.97"/>
<polygon fill="#63b8ff" stroke="#63b8ff" points="201.22,-738.2 192.52,-737.1 197.81,-736.11 194.4,-734.03 194.4,-734.03 194.4,-734.03 197.81,-736.11 196.28,-730.96 201.22,-738.2 201.22,-738.2"/>
</g>
<!-- Node16 -->
<g id="node16" class="node">
<title>Node16</title>
<g id="a_node16"><a xlink:href="classAbstractPokitServicePrivate.html#a84bef330c6ff124f1e460bb8949d82da" target="_top" xlink:title="Handles QLowEnergyService::characteristicRead events.">
<polygon fill="white" stroke="#666666" points="340,-624 188,-624 188,-594 340,-594 340,-624"/>
<text text-anchor="start" x="196" y="-612" font-family="Helvetica,sans-Serif" font-size="10.00">AbstractPokitServicePrivate</text>
<text text-anchor="middle" x="264" y="-601" font-family="Helvetica,sans-Serif" font-size="10.00">::characteristicRead</text>
</a>
</g>
</g>
<!-- Node1&#45;&gt;Node16 -->
<g id="edge19" class="edge">
<title>Node1&#45;&gt;Node16</title>
<path fill="none" stroke="#63b8ff" d="M88.27,-490.06C106.65,-513.61 145.32,-559.11 188,-585 191.33,-587.02 194.85,-588.89 198.47,-590.61"/>
<polygon fill="#63b8ff" stroke="#63b8ff" points="206.03,-593.96 197.26,-594.01 202.37,-592.34 198.72,-590.72 198.72,-590.72 198.72,-590.72 202.37,-592.34 200.17,-587.43 206.03,-593.96 206.03,-593.96"/>
</g>
<!-- Node17 -->
<g id="node17" class="node">
<title>Node17</title>
<g id="a_node17"><a target="_parent" xlink:href="https://doc.qt.io/qt-5/qlowenergyservice.html#characteristicRead" xlink:title=" ">
<polygon fill="white" stroke="#666666" points="323.5,-672 204.5,-672 204.5,-642 323.5,-642 323.5,-672"/>
<text text-anchor="start" x="212.5" y="-660" font-family="Helvetica,sans-Serif" font-size="10.00">QLowEnergyService::</text>
<text text-anchor="middle" x="264" y="-649" font-family="Helvetica,sans-Serif" font-size="10.00">characteristicRead</text>
</a>
</g>
</g>
<!-- Node1&#45;&gt;Node17 -->
<g id="edge27" class="edge">
<title>Node1&#45;&gt;Node17</title>
<path fill="none" stroke="#63b8ff" d="M83.49,-490.07C97.74,-521.4 134.79,-593.88 188,-633 190.79,-635.05 193.76,-636.93 196.85,-638.65"/>
<polygon fill="#63b8ff" stroke="#63b8ff" points="204.24,-642.39 195.48,-641.99 200.67,-640.59 197.1,-638.78 197.1,-638.78 197.1,-638.78 200.67,-640.59 198.73,-635.57 204.24,-642.39 204.24,-642.39"/>
</g>
<!-- Node18 -->
<g id="node18" class="node">
<title>Node18</title>
<g id="a_node18"><a xlink:href="classAbstractPokitServicePrivate.html#aaf4a6cb9f0b1fe537877d615a6634201" target="_top" xlink:title="Handles QLowEnergyService::characteristicWritten events.">
<polygon fill="white" stroke="#666666" points="340,-720 188,-720 188,-690 340,-690 340,-720"/>
<text text-anchor="start" x="196" y="-708" font-family="Helvetica,sans-Serif" font-size="10.00">AbstractPokitServicePrivate</text>
<text text-anchor="middle" x="264" y="-697" font-family="Helvetica,sans-Serif" font-size="10.00">::characteristicWritten</text>
</a>
</g>
</g>
<!-- Node1&#45;&gt;Node18 -->
<g id="edge28" class="edge">
<title>Node1&#45;&gt;Node18</title>
<path fill="none" stroke="#63b8ff" d="M80.91,-490.21C91.45,-528.19 124.09,-627.92 188,-681 190.05,-682.7 192.22,-684.29 194.49,-685.76"/>
<polygon fill="#63b8ff" stroke="#63b8ff" points="201.53,-689.84 192.81,-688.94 198.07,-687.84 194.61,-685.83 194.61,-685.83 194.61,-685.83 198.07,-687.84 196.42,-682.72 201.53,-689.84 201.53,-689.84"/>
</g>
<!-- Node19 -->
<g id="node19" class="node">
<title>Node19</title>
<g id="a_node19"><a target="_parent" xlink:href="https://doc.qt.io/qt-5/qlowenergyservice.html#characteristicWritten" xlink:title=" ">
<polygon fill="white" stroke="#666666" points="323.5,-576 204.5,-576 204.5,-546 323.5,-546 323.5,-576"/>
<text text-anchor="start" x="212.5" y="-564" font-family="Helvetica,sans-Serif" font-size="10.00">QLowEnergyService::</text>
<text text-anchor="middle" x="264" y="-553" font-family="Helvetica,sans-Serif" font-size="10.00">characteristicWritten</text>
</a>
</g>
</g>
<!-- Node1&#45;&gt;Node19 -->
<g id="edge36" class="edge">
<title>Node1&#45;&gt;Node19</title>
<path fill="none" stroke="#63b8ff" d="M101.48,-490.13C123.55,-503.37 157.17,-522.52 188,-536 193.75,-538.51 199.83,-540.92 205.95,-543.19"/>
<polygon fill="#63b8ff" stroke="#63b8ff" points="213.7,-545.98 204.95,-546.66 209.94,-544.63 206.17,-543.27 206.17,-543.27 206.17,-543.27 209.94,-544.63 207.4,-539.89 213.7,-545.98 213.7,-545.98"/>
</g>
<!-- Node20 -->
<g id="node20" class="node">
<title>Node20</title>
<g id="a_node20"><a target="_parent" xlink:href="https://doc.qt.io/qt-5/qobject.html#connect" xlink:title=" ">
<polygon fill="white" stroke="#666666" points="314,-527.5 214,-527.5 214,-508.5 314,-508.5 314,-527.5"/>
<text text-anchor="middle" x="264" y="-515.5" font-family="Helvetica,sans-Serif" font-size="10.00">QObject::connect</text>
</a>
</g>
</g>
<!-- Node1&#45;&gt;Node20 -->
<g id="edge37" class="edge">
<title>Node1&#45;&gt;Node20</title>
<path fill="none" stroke="#63b8ff" d="M142.05,-490.04C165.66,-495.5 191.91,-501.57 213.91,-506.65"/>
<polygon fill="#63b8ff" stroke="#63b8ff" points="221.81,-508.48 213.21,-510.18 217.91,-507.58 214.02,-506.68 214.02,-506.68 214.02,-506.68 217.91,-507.58 214.83,-503.17 221.81,-508.48 221.81,-508.48"/>
</g>
<!-- Node21 -->
<g id="node21" class="node">
<title>Node21</title>
<g id="a_node21"><a target="_parent" xlink:href="https://doc.qt.io/qt-5/qlowenergycontroller.html#createServiceObject" xlink:title=" ">
<polygon fill="white" stroke="#666666" points="326.5,-490 201.5,-490 201.5,-460 326.5,-460 326.5,-490"/>
<text text-anchor="start" x="209.5" y="-478" font-family="Helvetica,sans-Serif" font-size="10.00">QLowEnergyController</text>
<text text-anchor="middle" x="264" y="-467" font-family="Helvetica,sans-Serif" font-size="10.00">::createServiceObject</text>
</a>
</g>
</g>
<!-- Node1&#45;&gt;Node21 -->
<g id="edge38" class="edge">
<title>Node1&#45;&gt;Node21</title>
<path fill="none" stroke="#63b8ff" d="M152.12,-475C165.64,-475 179.69,-475 193.07,-475"/>
<polygon fill="#63b8ff" stroke="#63b8ff" points="201.29,-475 193.29,-478.6 197.29,-475 193.29,-475 193.29,-475 193.29,-475 197.29,-475 193.29,-471.4 201.29,-475 201.29,-475"/>
</g>
<!-- Node22 -->
<g id="node22" class="node">
<title>Node22</title>
<g id="a_node22"><a target="_parent" xlink:href="https://doc.qt.io/qt-5/qlowenergyservice.html#descriptorRead" xlink:title=" ">
<polygon fill="white" stroke="#666666" points="323.5,-442 204.5,-442 204.5,-412 323.5,-412 323.5,-442"/>
<text text-anchor="start" x="212.5" y="-430" font-family="Helvetica,sans-Serif" font-size="10.00">QLowEnergyService::</text>
<text text-anchor="middle" x="264" y="-419" font-family="Helvetica,sans-Serif" font-size="10.00">descriptorRead</text>
</a>
</g>
</g>
<!-- Node1&#45;&gt;Node22 -->
<g id="edge39" class="edge">
<title>Node1&#45;&gt;Node22</title>
<path fill="none" stroke="#63b8ff" d="M135.34,-459.94C154.9,-454.9 176.86,-449.23 196.96,-444.04"/>
<polygon fill="#63b8ff" stroke="#63b8ff" points="204.87,-442 198.02,-447.49 200.99,-443 197.12,-444 197.12,-444 197.12,-444 200.99,-443 196.22,-440.52 204.87,-442 204.87,-442"/>
</g>
<!-- Node23 -->
<g id="node23" class="node">
<title>Node23</title>
<g id="a_node23"><a target="_parent" xlink:href="https://doc.qt.io/qt-5/qlowenergyservice.html#descriptorWritten" xlink:title=" ">
<polygon fill="white" stroke="#666666" points="323.5,-394 204.5,-394 204.5,-364 323.5,-364 323.5,-394"/>
<text text-anchor="start" x="212.5" y="-382" font-family="Helvetica,sans-Serif" font-size="10.00">QLowEnergyService::</text>
<text text-anchor="middle" x="264" y="-371" font-family="Helvetica,sans-Serif" font-size="10.00">descriptorWritten</text>
</a>
</g>
</g>
<!-- Node1&#45;&gt;Node23 -->
<g id="edge40" class="edge">
<title>Node1&#45;&gt;Node23</title>
<path fill="none" stroke="#63b8ff" d="M96.91,-459.75C118.42,-443.84 154.17,-419.03 188,-403 192.54,-400.85 197.32,-398.82 202.18,-396.92"/>
<polygon fill="#63b8ff" stroke="#63b8ff" points="209.86,-394.05 203.63,-400.23 206.12,-395.45 202.37,-396.85 202.37,-396.85 202.37,-396.85 206.12,-395.45 201.11,-393.48 209.86,-394.05 209.86,-394.05"/>
</g>
<!-- Node24 -->
<g id="node24" class="node">
<title>Node24</title>
<g id="a_node24"><a target="_parent" xlink:href="https://doc.qt.io/qt-5/qlowenergyservice.html#discoverDetails" xlink:title=" ">
<polygon fill="white" stroke="#666666" points="323.5,-346 204.5,-346 204.5,-316 323.5,-316 323.5,-346"/>
<text text-anchor="start" x="212.5" y="-334" font-family="Helvetica,sans-Serif" font-size="10.00">QLowEnergyService::</text>
<text text-anchor="middle" x="264" y="-323" font-family="Helvetica,sans-Serif" font-size="10.00">discoverDetails</text>
</a>
</g>
</g>
<!-- Node1&#45;&gt;Node24 -->
<g id="edge41" class="edge">
<title>Node1&#45;&gt;Node24</title>
<path fill="none" stroke="#63b8ff" d="M87.09,-459.76C104.64,-434.4 143.24,-383.5 188,-355 191.07,-353.05 194.31,-351.24 197.65,-349.57"/>
<polygon fill="#63b8ff" stroke="#63b8ff" points="205.1,-346.13 199.35,-352.75 201.47,-347.81 197.84,-349.48 197.84,-349.48 197.84,-349.48 201.47,-347.81 196.33,-346.22 205.1,-346.13 205.1,-346.13"/>
</g>
<!-- Node25 -->
<g id="node25" class="node">
<title>Node25</title>
<g id="a_node25"><a target="_parent" xlink:href="https://doc.qt.io/qt-5/qlowenergyservice.html#error" xlink:title=" ">
<polygon fill="white" stroke="#666666" points="323.5,-298 204.5,-298 204.5,-268 323.5,-268 323.5,-298"/>
<text text-anchor="start" x="212.5" y="-286" font-family="Helvetica,sans-Serif" font-size="10.00">QLowEnergyService::</text>
<text text-anchor="middle" x="264" y="-275" font-family="Helvetica,sans-Serif" font-size="10.00">error</text>
</a>
</g>
</g>
<!-- Node1&#45;&gt;Node25 -->
<g id="edge42" class="edge">
<title>Node1&#45;&gt;Node25</title>
<path fill="none" stroke="#63b8ff" d="M82.81,-459.97C96.23,-427.22 132.55,-349.01 188,-307 190.76,-304.91 193.7,-303 196.77,-301.25"/>
<polygon fill="#63b8ff" stroke="#63b8ff" points="204.13,-297.47 198.67,-304.33 200.58,-299.3 197.02,-301.13 197.02,-301.13 197.02,-301.13 200.58,-299.3 195.37,-297.93 204.13,-297.47 204.13,-297.47"/>
</g>
<!-- Node26 -->
<g id="node26" class="node">
<title>Node26</title>
<g id="a_node26"><a xlink:href="classAbstractPokitServicePrivate.html#ab086f2e2e5058bc7978a67e86d579325" target="_top" xlink:title="Handles QLowEnergyController::errorOccurred events.">
<polygon fill="white" stroke="#666666" points="528,-935 376,-935 376,-905 528,-905 528,-935"/>
<text text-anchor="start" x="384" y="-923" font-family="Helvetica,sans-Serif" font-size="10.00">AbstractPokitServicePrivate</text>
<text text-anchor="middle" x="452" y="-912" font-family="Helvetica,sans-Serif" font-size="10.00">::errorOccurred</text>
</a>
</g>
</g>
<!-- Node1&#45;&gt;Node26 -->
<g id="edge43" class="edge">
<title>Node1&#45;&gt;Node26</title>
<path fill="none" stroke="#63b8ff" d="M78.95,-490.39C87.83,-558.01 126.68,-827.79 188,-882 236.34,-924.74 310.37,-932.12 367.58,-930.02"/>
<polygon fill="#63b8ff" stroke="#63b8ff" points="375.9,-929.65 368.07,-933.6 371.9,-929.83 367.91,-930.01 367.91,-930.01 367.91,-930.01 371.9,-929.83 367.74,-926.41 375.9,-929.65 375.9,-929.65"/>
</g>
<!-- Node27 -->
<g id="node27" class="node">
<title>Node27</title>
<g id="a_node27"><a target="_parent" xlink:href="https://doc.qt.io/qt-5/quuid.html#isNull" xlink:title=" ">
<polygon fill="white" stroke="#666666" points="304,-201.5 224,-201.5 224,-182.5 304,-182.5 304,-201.5"/>
<text text-anchor="middle" x="264" y="-189.5" font-family="Helvetica,sans-Serif" font-size="10.00">QUuid::isNull</text>
</a>
</g>
</g>
<!-- Node1&#45;&gt;Node27 -->
<g id="edge45" class="edge">
<title>Node1&#45;&gt;Node27</title>
<path fill="none" stroke="#63b8ff" d="M78.71,-459.74C84.63,-414.4 108.47,-279.42 188,-211 195.87,-204.23 205.83,-199.81 215.9,-196.95"/>
<polygon fill="#63b8ff" stroke="#63b8ff" points="223.96,-194.97 217.05,-200.37 220.08,-195.92 216.19,-196.88 216.19,-196.88 216.19,-196.88 220.08,-195.92 215.33,-193.38 223.96,-194.97 223.96,-194.97"/>
</g>
<!-- Node28 -->
<g id="node28" class="node">
<title>Node28</title>
<g id="a_node28"><a target="_parent" xlink:href="https://doc.qt.io/qt-5/qlowenergydescriptor.html#name" xlink:title=" ">
<polygon fill="white" stroke="#666666" points="328,-164 200,-164 200,-134 328,-134 328,-164"/>
<text text-anchor="start" x="208" y="-152" font-family="Helvetica,sans-Serif" font-size="10.00">QLowEnergyDescriptor</text>
<text text-anchor="middle" x="264" y="-141" font-family="Helvetica,sans-Serif" font-size="10.00">::name</text>
</a>
</g>
</g>
<!-- Node1&#45;&gt;Node28 -->
<g id="edge46" class="edge">
<title>Node1&#45;&gt;Node28</title>
<path fill="none" stroke="#63b8ff" d="M78.01,-459.96C82.12,-411.17 101.69,-255.71 188,-173 189.55,-171.51 191.2,-170.11 192.92,-168.8"/>
<polygon fill="#63b8ff" stroke="#63b8ff" points="199.9,-164.16 195.23,-171.59 196.57,-166.38 193.24,-168.59 193.24,-168.59 193.24,-168.59 196.57,-166.38 191.25,-165.59 199.9,-164.16 199.9,-164.16"/>
</g>
<!-- Node29 -->
<g id="node29" class="node">
<title>Node29</title>
<g id="a_node29"><a xlink:href="classAbstractPokitServicePrivate.html#ad4cd6a5700b0b764b3a81f67603dc68f" target="_top" xlink:title="Handles QLowEnergyController::stateChanged events.">
<polygon fill="white" stroke="#666666" points="528,-887 376,-887 376,-857 528,-857 528,-887"/>
<text text-anchor="start" x="384" y="-875" font-family="Helvetica,sans-Serif" font-size="10.00">AbstractPokitServicePrivate</text>
<text text-anchor="middle" x="452" y="-864" font-family="Helvetica,sans-Serif" font-size="10.00">::stateChanged</text>
</a>
</g>
</g>
<!-- Node1&#45;&gt;Node29 -->
<g id="edge47" class="edge">
<title>Node1&#45;&gt;Node29</title>
<path fill="none" stroke="#63b8ff" d="M79.22,-490.04C88.93,-553.77 129.85,-800.37 188,-848 237.36,-888.43 310.77,-892 367.5,-886.83"/>
<polygon fill="#63b8ff" stroke="#63b8ff" points="375.74,-886.01 368.14,-890.39 371.76,-886.41 367.78,-886.8 367.78,-886.8 367.78,-886.8 371.76,-886.41 367.42,-883.22 375.74,-886.01 375.74,-886.01"/>
</g>
<!-- Node30 -->
<g id="node30" class="node">
<title>Node30</title>
<g id="a_node30"><a target="_parent" xlink:href="https://doc.qt.io/qt-5/qlowenergyservice.html#stateChanged" xlink:title=" ">
<polygon fill="white" stroke="#666666" points="323.5,-78 204.5,-78 204.5,-48 323.5,-48 323.5,-78"/>
<text text-anchor="start" x="212.5" y="-66" font-family="Helvetica,sans-Serif" font-size="10.00">QLowEnergyService::</text>
<text text-anchor="middle" x="264" y="-55" font-family="Helvetica,sans-Serif" font-size="10.00">stateChanged</text>
</a>
</g>
</g>
<!-- Node1&#45;&gt;Node30 -->
<g id="edge49" class="edge">
<title>Node1&#45;&gt;Node30</title>
<path fill="none" stroke="#63b8ff" d="M76.87,-459.93C77.19,-403.68 85.78,-203.5 188,-92 191.4,-88.29 195.34,-85.04 199.59,-82.21"/>
<polygon fill="#63b8ff" stroke="#63b8ff" points="206.49,-78.09 201.47,-85.28 203.06,-80.14 199.62,-82.19 199.62,-82.19 199.62,-82.19 203.06,-80.14 197.78,-79.1 206.49,-78.09 206.49,-78.09"/>
</g>
<!-- Node31 -->
<g id="node31" class="node">
<title>Node31</title>
<g id="a_node31"><a target="_parent" xlink:href="https://doc.qt.io/qt-5/qlowenergydescriptor.html#uuid" xlink:title=" ">
<polygon fill="white" stroke="#666666" points="328,-30 200,-30 200,0 328,0 328,-30"/>
<text text-anchor="start" x="208" y="-18" font-family="Helvetica,sans-Serif" font-size="10.00">QLowEnergyDescriptor</text>
<text text-anchor="middle" x="264" y="-7" font-family="Helvetica,sans-Serif" font-size="10.00">::uuid</text>
</a>
</g>
</g>
<!-- Node1&#45;&gt;Node31 -->
<g id="edge52" class="edge">
<title>Node1&#45;&gt;Node31</title>
<path fill="none" stroke="#63b8ff" d="M78.9,-459.72C87.85,-390.02 127.9,-102.84 188,-39 189.63,-37.27 191.37,-35.67 193.22,-34.18"/>
<polygon fill="#63b8ff" stroke="#63b8ff" points="199.86,-29.55 195.36,-37.08 196.58,-31.84 193.3,-34.13 193.3,-34.13 193.3,-34.13 196.58,-31.84 191.24,-31.18 199.86,-29.55 199.86,-29.55"/>
</g>
<!-- Node3&#45;&gt;Node2 -->
<g id="edge3" class="edge">
<title>Node3&#45;&gt;Node2</title>
<path fill="none" stroke="#63b8ff" d="M340.27,-249.22C418.26,-263.96 537.52,-286.5 601.6,-298.61"/>
<polygon fill="#63b8ff" stroke="#63b8ff" points="609.51,-300.11 600.98,-302.16 605.58,-299.36 601.65,-298.62 601.65,-298.62 601.65,-298.62 605.58,-299.36 602.32,-295.08 609.51,-300.11 609.51,-300.11"/>
</g>
<!-- Node4 -->
<g id="node4" class="node">
<title>Node4</title>
<g id="a_node4"><a xlink:href="classPokitDevice.html#a0a3e6078ce0a7c2d93171ef0f4183d61" target="_top" xlink:title="Returns a human&#45;readable name for the uuid characteristic, or a null QString if unknown.">
<polygon fill="white" stroke="#666666" points="522.5,-558 381.5,-558 381.5,-528 522.5,-528 522.5,-558"/>
<text text-anchor="start" x="389.5" y="-546" font-family="Helvetica,sans-Serif" font-size="10.00">PokitDevice::charcteristic</text>
<text text-anchor="middle" x="452" y="-535" font-family="Helvetica,sans-Serif" font-size="10.00">ToString</text>
</a>
</g>
</g>
<!-- Node3&#45;&gt;Node4 -->
<g id="edge4" class="edge">
<title>Node3&#45;&gt;Node4</title>
<path fill="none" stroke="#63b8ff" d="M329.87,-250.14C333.61,-252.65 337.05,-255.59 340,-259 403.93,-332.96 328.87,-390.35 376,-476 386.46,-495.01 404.43,-511.35 420.16,-523.13"/>
<polygon fill="#63b8ff" stroke="#63b8ff" points="426.74,-527.9 418.15,-526.12 423.5,-525.55 420.26,-523.2 420.26,-523.2 420.26,-523.2 423.5,-525.55 422.37,-520.29 426.74,-527.9 426.74,-527.9"/>
</g>
<!-- Node3&#45;&gt;Node6 -->
<g id="edge16" class="edge">
<title>Node3&#45;&gt;Node6</title>
<path fill="none" stroke="#63b8ff" d="M329.4,-250.02C333.31,-252.56 336.91,-255.53 340,-259 394.88,-320.54 326.36,-375.16 376,-441 421.71,-501.63 475.89,-463.77 528,-519 564.9,-558.11 621.7,-715.82 640.06,-768.65"/>
<polygon fill="#63b8ff" stroke="#63b8ff" points="642.76,-776.46 636.74,-770.08 641.45,-772.68 640.14,-768.9 640.14,-768.9 640.14,-768.9 641.45,-772.68 643.55,-767.73 642.76,-776.46 642.76,-776.46"/>
</g>
<!-- Node7 -->
<g id="node7" class="node">
<title>Node7</title>
<g id="a_node7"><a target="_parent" xlink:href="https://doc.qt.io/qt-5/qbytearray.html#size" xlink:title=" ">
<polygon fill="white" stroke="#666666" points="696,-505.5 598,-505.5 598,-486.5 696,-486.5 696,-505.5"/>
<text text-anchor="middle" x="647" y="-493.5" font-family="Helvetica,sans-Serif" font-size="10.00">QByteArray::size</text>
</a>
</g>
</g>
<!-- Node3&#45;&gt;Node7 -->
<g id="edge7" class="edge">
<title>Node3&#45;&gt;Node7</title>
<path fill="none" stroke="#63b8ff" d="M329.22,-250.18C333.17,-252.69 336.83,-255.6 340,-259 385.63,-307.84 329.55,-356.95 376,-405 424.79,-455.48 464.52,-418.01 528,-448 545.61,-456.32 546.38,-464.7 564,-473 573.38,-477.42 583.77,-481.14 593.92,-484.22"/>
<polygon fill="#63b8ff" stroke="#63b8ff" points="601.61,-486.45 592.93,-487.68 597.77,-485.34 593.93,-484.22 593.93,-484.22 593.93,-484.22 597.77,-485.34 594.93,-480.76 601.61,-486.45 601.61,-486.45"/>
</g>
<!-- Node8 -->
<g id="node8" class="node">
<title>Node8</title>
<g id="a_node8"><a xlink:href="classAbstractPokitServicePrivate.html#af748600fc201fe47f29b58e8e93179d8" target="_top" xlink:title="Returns up to maxSize bytes of data as a human readable hexadecimal string.">
<polygon fill="white" stroke="#666666" points="528,-396 376,-396 376,-366 528,-366 528,-396"/>
<text text-anchor="start" x="384" y="-384" font-family="Helvetica,sans-Serif" font-size="10.00">AbstractPokitServicePrivate</text>
<text text-anchor="middle" x="452" y="-373" font-family="Helvetica,sans-Serif" font-size="10.00">::toHexString</text>
</a>
</g>
</g>
<!-- Node3&#45;&gt;Node8 -->
<g id="edge8" class="edge">
<title>Node3&#45;&gt;Node8</title>
<path fill="none" stroke="#63b8ff" d="M322.93,-250.09C328.9,-252.65 334.71,-255.6 340,-259 381.57,-285.72 417.54,-331.85 436.57,-359.09"/>
<polygon fill="#63b8ff" stroke="#63b8ff" points="441.25,-365.91 433.75,-361.35 438.99,-362.61 436.72,-359.32 436.72,-359.32 436.72,-359.32 438.99,-362.61 439.69,-357.28 441.25,-365.91 441.25,-365.91"/>
</g>
<!-- Node3&#45;&gt;Node13 -->
<g id="edge15" class="edge">
<title>Node3&#45;&gt;Node13</title>
<path fill="none" stroke="#63b8ff" d="M330.45,-250.16C334.01,-252.68 337.25,-255.6 340,-259 390.06,-320.78 337.12,-545.64 376,-615 386.61,-633.93 406.37,-648.55 422.94,-658.24"/>
<polygon fill="#63b8ff" stroke="#63b8ff" points="430.29,-662.34 421.55,-661.59 426.8,-660.39 423.3,-658.44 423.3,-658.44 423.3,-658.44 426.8,-660.39 425.06,-655.3 430.29,-662.34 430.29,-662.34"/>
</g>
<!-- Node14 -->
<g id="node14" class="node">
<title>Node14</title>
<g id="a_node14"><a target="_parent" xlink:href="https://doc.qt.io/qt-5/qlowenergycharacteristic.html#uuid" xlink:title=" ">
<polygon fill="white" stroke="#666666" points="524.5,-606 379.5,-606 379.5,-576 524.5,-576 524.5,-606"/>
<text text-anchor="start" x="387.5" y="-594" font-family="Helvetica,sans-Serif" font-size="10.00">QLowEnergyCharacteristic</text>
<text text-anchor="middle" x="452" y="-583" font-family="Helvetica,sans-Serif" font-size="10.00">::uuid</text>
</a>
</g>
</g>
<!-- Node3&#45;&gt;Node14 -->
<g id="edge17" class="edge">
<title>Node3&#45;&gt;Node14</title>
<path fill="none" stroke="#63b8ff" d="M330.39,-250.21C333.96,-252.71 337.22,-255.62 340,-259 427.59,-365.41 288.41,-460.59 376,-567 377.04,-568.27 378.15,-569.47 379.32,-570.61"/>
<polygon fill="#63b8ff" stroke="#63b8ff" points="385.61,-575.79 377.15,-573.48 382.52,-573.24 379.44,-570.7 379.44,-570.7 379.44,-570.7 382.52,-573.24 381.73,-567.92 385.61,-575.79 385.61,-575.79"/>
</g>
<!-- Node5 -->
<g id="node5" class="node">
<title>Node5</title>
<g id="a_node5"><a target="_parent" xlink:href="https://doc.qt.io/qt-5/qbluetoothuuid.html#characteristicToString" xlink:title=" ">
<polygon fill="white" stroke="#666666" points="730,-558 564,-558 564,-528 730,-528 730,-558"/>
<text text-anchor="start" x="572" y="-546" font-family="Helvetica,sans-Serif" font-size="10.00">QBluetoothUuid::characteristic</text>
<text text-anchor="middle" x="647" y="-535" font-family="Helvetica,sans-Serif" font-size="10.00">ToString</text>
</a>
</g>
</g>
<!-- Node4&#45;&gt;Node5 -->
<g id="edge5" class="edge">
<title>Node4&#45;&gt;Node5</title>
<path fill="none" stroke="#63b8ff" d="M522.68,-543C533.45,-543 544.71,-543 555.85,-543"/>
<polygon fill="#63b8ff" stroke="#63b8ff" points="563.94,-543 555.94,-546.6 559.94,-543 555.94,-543 555.94,-543 555.94,-543 559.94,-543 555.94,-539.4 563.94,-543 563.94,-543"/>
</g>
<!-- Node4&#45;&gt;Node6 -->
<g id="edge6" class="edge">
<title>Node4&#45;&gt;Node6</title>
<path fill="none" stroke="#63b8ff" d="M514.47,-558.16C519.31,-560.67 523.9,-563.59 528,-567 595.31,-622.91 629.98,-727.48 641.52,-768.68"/>
<polygon fill="#63b8ff" stroke="#63b8ff" points="643.64,-776.47 638.07,-769.69 642.59,-772.61 641.54,-768.75 641.54,-768.75 641.54,-768.75 642.59,-772.61 645.02,-767.81 643.64,-776.47 643.64,-776.47"/>
</g>
<!-- Node8&#45;&gt;Node2 -->
<g id="edge9" class="edge">
<title>Node8&#45;&gt;Node2</title>
<path fill="none" stroke="#63b8ff" d="M478.2,-365.98C500.19,-353.44 533.29,-335.92 564,-325 576.05,-320.71 589.48,-317.25 601.92,-314.55"/>
<polygon fill="#63b8ff" stroke="#63b8ff" points="609.93,-312.88 602.83,-318.04 606.02,-313.7 602.1,-314.51 602.1,-314.51 602.1,-314.51 606.02,-313.7 601.37,-310.99 609.93,-312.88 609.93,-312.88"/>
</g>
<!-- Node8&#45;&gt;Node7 -->
<g id="edge13" class="edge">
<title>Node8&#45;&gt;Node7</title>
<path fill="none" stroke="#63b8ff" d="M506.02,-396.18C513.91,-399.89 521.54,-404.45 528,-410 552.45,-431.03 538.57,-453.16 564,-473 571.65,-478.97 580.77,-483.39 590.09,-486.66"/>
<polygon fill="#63b8ff" stroke="#63b8ff" points="597.95,-489.15 589.24,-490.17 594.14,-487.94 590.33,-486.73 590.33,-486.73 590.33,-486.73 594.14,-487.94 591.41,-483.3 597.95,-489.15 597.95,-489.15"/>
</g>
<!-- Node9 -->
<g id="node9" class="node">
<title>Node9</title>
<g id="a_node9"><a target="_parent" xlink:href="https://doc.qt.io/qt-5/qstring.html#fromLatin1" xlink:title=" ">
<polygon fill="white" stroke="#666666" points="703,-427.5 591,-427.5 591,-408.5 703,-408.5 703,-427.5"/>
<text text-anchor="middle" x="647" y="-415.5" font-family="Helvetica,sans-Serif" font-size="10.00">QString::fromLatin1</text>
</a>
</g>
</g>
<!-- Node8&#45;&gt;Node9 -->
<g id="edge10" class="edge">
<title>Node8&#45;&gt;Node9</title>
<path fill="none" stroke="#63b8ff" d="M528.17,-395.41C548.18,-399.25 569.47,-403.33 588.37,-406.95"/>
<polygon fill="#63b8ff" stroke="#63b8ff" points="596.31,-408.47 587.78,-410.5 592.38,-407.72 588.46,-406.97 588.46,-406.97 588.46,-406.97 592.38,-407.72 589.13,-403.43 596.31,-408.47 596.31,-408.47"/>
</g>
<!-- Node10 -->
<g id="node10" class="node">
<title>Node10</title>
<g id="a_node10"><a target="_parent" xlink:href="https://doc.qt.io/qt-5/qbytearray.html#left" xlink:title=" ">
<polygon fill="white" stroke="#666666" points="694,-390.5 600,-390.5 600,-371.5 694,-371.5 694,-390.5"/>
<text text-anchor="middle" x="647" y="-378.5" font-family="Helvetica,sans-Serif" font-size="10.00">QByteArray::left</text>
</a>
</g>
</g>
<!-- Node8&#45;&gt;Node10 -->
<g id="edge11" class="edge">
<title>Node8&#45;&gt;Node10</title>
<path fill="none" stroke="#63b8ff" d="M528.17,-381C549.29,-381 571.84,-381 591.5,-381"/>
<polygon fill="#63b8ff" stroke="#63b8ff" points="599.73,-381 591.73,-384.6 595.73,-381 591.73,-381 591.73,-381 591.73,-381 595.73,-381 591.73,-377.4 599.73,-381 599.73,-381"/>
</g>
<!-- Node11 -->
<g id="node11" class="node">
<title>Node11</title>
<g id="a_node11"><a target="_parent" xlink:href="https://doc.qt.io/qt-5/qbytearray.html#right" xlink:title=" ">
<polygon fill="white" stroke="#666666" points="697.5,-353.5 596.5,-353.5 596.5,-334.5 697.5,-334.5 697.5,-353.5"/>
<text text-anchor="middle" x="647" y="-341.5" font-family="Helvetica,sans-Serif" font-size="10.00">QByteArray::right</text>
</a>
</g>
</g>
<!-- Node8&#45;&gt;Node11 -->
<g id="edge12" class="edge">
<title>Node8&#45;&gt;Node11</title>
<path fill="none" stroke="#63b8ff" d="M528.17,-366.59C548.18,-362.75 569.47,-358.67 588.37,-355.05"/>
<polygon fill="#63b8ff" stroke="#63b8ff" points="596.31,-353.53 589.13,-358.57 592.38,-354.28 588.46,-355.03 588.46,-355.03 588.46,-355.03 592.38,-354.28 587.78,-351.5 596.31,-353.53 596.31,-353.53"/>
</g>
<!-- Node12 -->
<g id="node12" class="node">
<title>Node12</title>
<g id="a_node12"><a target="_parent" xlink:href="https://doc.qt.io/qt-5/qbytearray.html#toHex" xlink:title=" ">
<polygon fill="white" stroke="#666666" points="700.5,-464.5 593.5,-464.5 593.5,-445.5 700.5,-445.5 700.5,-464.5"/>
<text text-anchor="middle" x="647" y="-452.5" font-family="Helvetica,sans-Serif" font-size="10.00">QByteArray::toHex</text>
</a>
</g>
</g>
<!-- Node8&#45;&gt;Node12 -->
<g id="edge14" class="edge">
<title>Node8&#45;&gt;Node12</title>
<path fill="none" stroke="#63b8ff" d="M497.47,-396.03C507.73,-400.08 518.43,-404.81 528,-410 545.35,-419.41 546.03,-427.83 564,-436 570.74,-439.06 578.03,-441.66 585.38,-443.85"/>
<polygon fill="#63b8ff" stroke="#63b8ff" points="593.35,-446.08 584.68,-447.39 589.5,-445 585.65,-443.93 585.65,-443.93 585.65,-443.93 589.5,-445 586.61,-440.46 593.35,-446.08 593.35,-446.08"/>
</g>
<!-- Node16&#45;&gt;Node2 -->
<g id="edge20" class="edge">
<title>Node16&#45;&gt;Node2</title>
<path fill="none" stroke="#63b8ff" d="M329.9,-593.89C333.64,-591.37 337.06,-588.42 340,-585 406.78,-507.12 304.43,-430.5 376,-357 434.92,-296.49 541.61,-295.79 601.72,-301.09"/>
<polygon fill="#63b8ff" stroke="#63b8ff" points="609.88,-301.87 601.58,-304.69 605.9,-301.49 601.92,-301.11 601.92,-301.11 601.92,-301.11 605.9,-301.49 602.27,-297.53 609.88,-301.87 609.88,-301.87"/>
</g>
<!-- Node16&#45;&gt;Node4 -->
<g id="edge21" class="edge">
<title>Node16&#45;&gt;Node4</title>
<path fill="none" stroke="#63b8ff" d="M315.81,-593.91C323.98,-591.15 332.28,-588.14 340,-585 356.57,-578.25 359.43,-573.75 376,-567 381.31,-564.84 386.89,-562.74 392.52,-560.74"/>
<polygon fill="#63b8ff" stroke="#63b8ff" points="400.19,-558.09 393.81,-564.11 396.41,-559.4 392.63,-560.7 392.63,-560.7 392.63,-560.7 396.41,-559.4 391.45,-557.3 400.19,-558.09 400.19,-558.09"/>
</g>
<!-- Node16&#45;&gt;Node6 -->
<g id="edge25" class="edge">
<title>Node16&#45;&gt;Node6</title>
<path fill="none" stroke="#63b8ff" d="M340.2,-616.3C406.22,-623.71 496.49,-636.56 528,-654 578.86,-682.14 618.97,-740.73 636.46,-769.43"/>
<polygon fill="#63b8ff" stroke="#63b8ff" points="640.59,-776.37 633.4,-771.34 638.55,-772.93 636.5,-769.5 636.5,-769.5 636.5,-769.5 638.55,-772.93 639.59,-767.65 640.59,-776.37 640.59,-776.37"/>
</g>
<!-- Node16&#45;&gt;Node7 -->
<g id="edge22" class="edge">
<title>Node16&#45;&gt;Node7</title>
<path fill="none" stroke="#63b8ff" d="M326.45,-593.82C331.29,-591.31 335.89,-588.4 340,-585 365.76,-563.72 348.02,-537.26 376,-519 440.06,-477.19 531.67,-479.22 589.99,-486.26"/>
<polygon fill="#63b8ff" stroke="#63b8ff" points="597.99,-487.28 589.6,-489.84 594.02,-486.77 590.05,-486.26 590.05,-486.26 590.05,-486.26 594.02,-486.77 590.51,-482.69 597.99,-487.28 597.99,-487.28"/>
</g>
<!-- Node16&#45;&gt;Node8 -->
<g id="edge23" class="edge">
<title>Node16&#45;&gt;Node8</title>
<path fill="none" stroke="#63b8ff" d="M328.11,-593.85C332.42,-591.34 336.45,-588.41 340,-585 373.75,-552.55 354.19,-527.43 376,-486 392.29,-455.05 416.6,-422.81 433.09,-402.35"/>
<polygon fill="#63b8ff" stroke="#63b8ff" points="438.15,-396.14 435.89,-404.62 435.63,-399.24 433.1,-402.34 433.1,-402.34 433.1,-402.34 435.63,-399.24 430.31,-400.07 438.15,-396.14 438.15,-396.14"/>
</g>
<!-- Node16&#45;&gt;Node13 -->
<g id="edge24" class="edge">
<title>Node16&#45;&gt;Node13</title>
<path fill="none" stroke="#63b8ff" d="M314.02,-624.02C322.72,-626.88 331.66,-629.93 340,-633 356.27,-638.98 359.73,-642.02 376,-648 387.36,-652.18 399.84,-656.34 411.3,-659.99"/>
<polygon fill="#63b8ff" stroke="#63b8ff" points="419.05,-662.43 410.33,-663.46 415.23,-661.23 411.42,-660.03 411.42,-660.03 411.42,-660.03 415.23,-661.23 412.5,-656.59 419.05,-662.43 419.05,-662.43"/>
</g>
<!-- Node16&#45;&gt;Node14 -->
<g id="edge26" class="edge">
<title>Node16&#45;&gt;Node14</title>
<path fill="none" stroke="#63b8ff" d="M340.12,-601.73C350.3,-600.75 360.78,-599.73 371.05,-598.74"/>
<polygon fill="#63b8ff" stroke="#63b8ff" points="379.22,-597.95 371.6,-602.3 375.24,-598.33 371.26,-598.72 371.26,-598.72 371.26,-598.72 375.24,-598.33 370.91,-595.13 379.22,-597.95 379.22,-597.95"/>
</g>
<!-- Node18&#45;&gt;Node2 -->
<g id="edge29" class="edge">
<title>Node18&#45;&gt;Node2</title>
<path fill="none" stroke="#63b8ff" d="M340.29,-711.43C408.42,-715.45 501.97,-715.88 528,-691 587.07,-634.52 509.72,-386.1 564,-325 573.47,-314.34 587.67,-309.2 601.61,-306.92"/>
<polygon fill="#63b8ff" stroke="#63b8ff" points="609.75,-305.88 602.26,-310.46 605.78,-306.39 601.81,-306.89 601.81,-306.89 601.81,-306.89 605.78,-306.39 601.35,-303.32 609.75,-305.88 609.75,-305.88"/>
</g>
<!-- Node18&#45;&gt;Node4 -->
<g id="edge30" class="edge">
<title>Node18&#45;&gt;Node4</title>
<path fill="none" stroke="#63b8ff" d="M328.63,-689.8C332.77,-687.3 336.62,-684.39 340,-681 377.5,-643.36 338.5,-604.64 376,-567 377.48,-565.52 379.05,-564.13 380.69,-562.82"/>
<polygon fill="#63b8ff" stroke="#63b8ff" points="387.37,-558.2 382.84,-565.71 384.08,-560.47 380.79,-562.75 380.79,-562.75 380.79,-562.75 384.08,-560.47 378.75,-559.79 387.37,-558.2 387.37,-558.2"/>
</g>
<!-- Node18&#45;&gt;Node6 -->
<g id="edge34" class="edge">
<title>Node18&#45;&gt;Node6</title>
<path fill="none" stroke="#63b8ff" d="M321.44,-720.1C327.88,-722.68 334.21,-725.64 340,-729 358.77,-739.89 356.14,-753.24 376,-762 451.16,-795.14 549.34,-794.25 604.21,-790.32"/>
<polygon fill="#63b8ff" stroke="#63b8ff" points="612.31,-789.7 604.61,-793.9 608.32,-790.01 604.34,-790.31 604.34,-790.31 604.34,-790.31 608.32,-790.01 604.06,-786.72 612.31,-789.7 612.31,-789.7"/>
</g>
<!-- Node18&#45;&gt;Node7 -->
<g id="edge31" class="edge">
<title>Node18&#45;&gt;Node7</title>
<path fill="none" stroke="#63b8ff" d="M331.66,-720.01C399.71,-733.6 499.3,-748.1 528,-724 598.84,-664.51 501.93,-587.59 564,-519 570.89,-511.39 580.07,-506.21 589.8,-502.71"/>
<polygon fill="#63b8ff" stroke="#63b8ff" points="597.69,-500.25 591.12,-506.07 593.87,-501.44 590.05,-502.64 590.05,-502.64 590.05,-502.64 593.87,-501.44 588.98,-499.2 597.69,-500.25 597.69,-500.25"/>
</g>
<!-- Node18&#45;&gt;Node8 -->
<g id="edge32" class="edge">
<title>Node18&#45;&gt;Node8</title>
<path fill="none" stroke="#63b8ff" d="M329.31,-689.9C333.24,-687.38 336.87,-684.43 340,-681 389.73,-626.53 350.14,-588.07 376,-519 392.17,-475.82 419.7,-429.47 436.53,-402.98"/>
<polygon fill="#63b8ff" stroke="#63b8ff" points="440.97,-396.05 439.68,-404.73 438.81,-399.42 436.65,-402.79 436.65,-402.79 436.65,-402.79 438.81,-399.42 433.62,-400.84 440.97,-396.05 440.97,-396.05"/>
</g>
<!-- Node18&#45;&gt;Node13 -->
<g id="edge33" class="edge">
<title>Node18&#45;&gt;Node13</title>
<path fill="none" stroke="#63b8ff" d="M340.12,-691.67C359.61,-688.21 380.2,-684.56 398.27,-681.35"/>
<polygon fill="#63b8ff" stroke="#63b8ff" points="406.39,-679.91 399.14,-684.86 402.45,-680.61 398.51,-681.31 398.51,-681.31 398.51,-681.31 402.45,-680.61 397.88,-677.77 406.39,-679.91 406.39,-679.91"/>
</g>
<!-- Node18&#45;&gt;Node14 -->
<g id="edge35" class="edge">
<title>Node18&#45;&gt;Node14</title>
<path fill="none" stroke="#63b8ff" d="M320.46,-689.86C327.2,-687.26 333.87,-684.32 340,-681 349.44,-675.9 396.77,-636.63 426.5,-611.67"/>
<polygon fill="#63b8ff" stroke="#63b8ff" points="432.92,-606.28 429.11,-614.18 429.86,-608.85 426.79,-611.42 426.79,-611.42 426.79,-611.42 429.86,-608.85 424.48,-608.67 432.92,-606.28 432.92,-606.28"/>
</g>
<!-- Node26&#45;&gt;Node6 -->
<g id="edge44" class="edge">
<title>Node26&#45;&gt;Node6</title>
<path fill="none" stroke="#63b8ff" d="M509.47,-904.94C515.91,-902.36 522.22,-899.39 528,-896 571.77,-870.36 612.67,-825.94 632.85,-802.15"/>
<polygon fill="#63b8ff" stroke="#63b8ff" points="638.21,-795.74 635.84,-804.19 635.64,-798.81 633.08,-801.88 633.08,-801.88 633.08,-801.88 635.64,-798.81 630.31,-799.57 638.21,-795.74 638.21,-795.74"/>
</g>
<!-- Node29&#45;&gt;Node6 -->
<g id="edge48" class="edge">
<title>Node29&#45;&gt;Node6</title>
<path fill="none" stroke="#63b8ff" d="M493.72,-856.94C504.91,-852.62 516.99,-847.78 528,-843 560.2,-829.02 596.45,-811.19 620.18,-799.22"/>
<polygon fill="#63b8ff" stroke="#63b8ff" points="627.42,-795.56 621.9,-802.38 623.85,-797.36 620.28,-799.17 620.28,-799.17 620.28,-799.17 623.85,-797.36 618.65,-795.96 627.42,-795.56 627.42,-795.56"/>
</g>
</g>
</svg>
