<?xml version="1.0" encoding="UTF-8" standalone="no"?>
<!DOCTYPE svg PUBLIC "-//W3C//DTD SVG 1.1//EN"
 "http://www.w3.org/Graphics/SVG/1.1/DTD/svg11.dtd">
<!-- Generated by graphviz version 2.43.0 (0)
 -->
<!-- Title: DsoService::metadata Pages: 1 -->
<svg width="838pt" height="240pt"
 viewBox="0.00 0.00 838.00 240.00" xmlns="http://www.w3.org/2000/svg" xmlns:xlink="http://www.w3.org/1999/xlink">
<g id="graph0" class="graph" transform="scale(1 1) rotate(0) translate(4 236)">
<title>DsoService::metadata</title>
<!-- Node1 -->
<g id="node1" class="node">
<title>Node1</title>
<g id="a_node1"><a xlink:title="Returns the most recent value of the DSO service&#39;s Metadata characteristic.">
<polygon fill="#bfbfbf" stroke="black" points="0,-68.5 0,-87.5 125,-87.5 125,-68.5 0,-68.5"/>
<text text-anchor="middle" x="62.5" y="-75.5" font-family="Helvetica,sans-Serif" font-size="10.00">DsoService::metadata</text>
</a>
</g>
</g>
<!-- Node2 -->
<g id="node2" class="node">
<title>Node2</title>
<g id="a_node2"><a target="_parent" xlink:href="https://doc.qt.io/qt-5/qlowenergycharacteristic.html#isValid" xlink:title=" ">
<polygon fill="none" stroke="black" points="161,-112 161,-142 306,-142 306,-112 161,-112"/>
<text text-anchor="start" x="169" y="-130" font-family="Helvetica,sans-Serif" font-size="10.00">QLowEnergyCharacteristic</text>
<text text-anchor="middle" x="233.5" y="-119" font-family="Helvetica,sans-Serif" font-size="10.00">::isValid</text>
</a>
</g>
</g>
<!-- Node1&#45;&gt;Node2 -->
<g id="edge1" class="edge">
<title>Node1&#45;&gt;Node2</title>
<path fill="none" stroke="midnightblue" d="M96.49,-87.56C117.6,-93.69 145.66,-101.82 170.8,-109.11"/>
<polygon fill="midnightblue" stroke="midnightblue" points="170.06,-112.54 180.64,-111.96 172.01,-105.82 170.06,-112.54"/>
</g>
<!-- Node3 -->
<g id="node3" class="node">
<title>Node3</title>
<g id="a_node3"><a xlink:href="classDsoServicePrivate.html#af869cf5b228bac719545511ba4247b88" target="_top" xlink:title="Parses the Metadata value into a DsoService::Metatdata struct.">
<polygon fill="none" stroke="black" points="177.5,-63 177.5,-93 289.5,-93 289.5,-63 177.5,-63"/>
<text text-anchor="start" x="185.5" y="-81" font-family="Helvetica,sans-Serif" font-size="10.00">DsoServicePrivate::</text>
<text text-anchor="middle" x="233.5" y="-70" font-family="Helvetica,sans-Serif" font-size="10.00">parseMetadata</text>
</a>
</g>
</g>
<!-- Node1&#45;&gt;Node3 -->
<g id="edge2" class="edge">
<title>Node1&#45;&gt;Node3</title>
<path fill="none" stroke="midnightblue" d="M125.47,-78C138.98,-78 153.32,-78 166.97,-78"/>
<polygon fill="midnightblue" stroke="midnightblue" points="167.24,-81.5 177.24,-78 167.24,-74.5 167.24,-81.5"/>
</g>
<!-- Node15 -->
<g id="node15" class="node">
<title>Node15</title>
<g id="a_node15"><a target="_parent" xlink:href="https://doc.qt.io/qt-5/qlowenergycharacteristic.html#value" xlink:title=" ">
<polygon fill="none" stroke="black" points="161,-14 161,-44 306,-44 306,-14 161,-14"/>
<text text-anchor="start" x="169" y="-32" font-family="Helvetica,sans-Serif" font-size="10.00">QLowEnergyCharacteristic</text>
<text text-anchor="middle" x="233.5" y="-21" font-family="Helvetica,sans-Serif" font-size="10.00">::value</text>
</a>
</g>
</g>
<!-- Node1&#45;&gt;Node15 -->
<g id="edge17" class="edge">
<title>Node1&#45;&gt;Node15</title>
<path fill="none" stroke="midnightblue" d="M96.49,-68.44C117.6,-62.31 145.66,-54.18 170.8,-46.89"/>
<polygon fill="midnightblue" stroke="midnightblue" points="172.01,-50.18 180.64,-44.04 170.06,-43.46 172.01,-50.18"/>
</g>
<!-- Node4 -->
<g id="node4" class="node">
<title>Node4</title>
<g id="a_node4"><a target="_parent" xlink:href="https://doc.qt.io/qt-5/qbytearray.html#at" xlink:title=" ">
<polygon fill="none" stroke="black" points="374,-112.5 374,-131.5 462,-131.5 462,-112.5 374,-112.5"/>
<text text-anchor="middle" x="418" y="-119.5" font-family="Helvetica,sans-Serif" font-size="10.00">QByteArray::at</text>
</a>
</g>
</g>
<!-- Node3&#45;&gt;Node4 -->
<g id="edge3" class="edge">
<title>Node3&#45;&gt;Node4</title>
<path fill="none" stroke="midnightblue" d="M289.75,-91.32C314.54,-97.3 343.54,-104.29 367.6,-110.09"/>
<polygon fill="midnightblue" stroke="midnightblue" points="367.03,-113.55 377.57,-112.49 368.67,-106.75 367.03,-113.55"/>
</g>
<!-- Node5 -->
<g id="node5" class="node">
<title>Node5</title>
<g id="a_node5"><a xlink:href="classAbstractPokitServicePrivate.html#af8b480a950244540bfff7fc4b476a0ef" target="_top" xlink:title="Returns false if data is smaller than minSize, otherwise returns failOnMax if data is bigger than max...">
<polygon fill="none" stroke="black" points="342,-63 342,-93 494,-93 494,-63 342,-63"/>
<text text-anchor="start" x="350" y="-81" font-family="Helvetica,sans-Serif" font-size="10.00">AbstractPokitServicePrivate</text>
<text text-anchor="middle" x="418" y="-70" font-family="Helvetica,sans-Serif" font-size="10.00">::checkSize</text>
</a>
</g>
</g>
<!-- Node3&#45;&gt;Node5 -->
<g id="edge4" class="edge">
<title>Node3&#45;&gt;Node5</title>
<path fill="none" stroke="midnightblue" d="M289.75,-78C302.92,-78 317.28,-78 331.46,-78"/>
<polygon fill="midnightblue" stroke="midnightblue" points="331.73,-81.5 341.73,-78 331.73,-74.5 331.73,-81.5"/>
</g>
<!-- Node7 -->
<g id="node7" class="node">
<title>Node7</title>
<g id="a_node7"><a target="_parent" xlink:href="https://doc.qt.io/qt-5/qbytearray.html#mid" xlink:title=" ">
<polygon fill="none" stroke="black" points="557.5,-0.5 557.5,-19.5 654.5,-19.5 654.5,-0.5 557.5,-0.5"/>
<text text-anchor="middle" x="606" y="-7.5" font-family="Helvetica,sans-Serif" font-size="10.00">QByteArray::mid</text>
</a>
</g>
</g>
<!-- Node3&#45;&gt;Node7 -->
<g id="edge16" class="edge">
<title>Node3&#45;&gt;Node7</title>
<path fill="none" stroke="midnightblue" d="M289.59,-64.45C306.37,-60.52 324.89,-56.38 342,-53 412.35,-39.08 493.93,-26.25 547.35,-18.3"/>
<polygon fill="midnightblue" stroke="midnightblue" points="547.94,-21.75 557.32,-16.82 546.91,-14.83 547.94,-21.75"/>
</g>
<!-- Node6 -->
<g id="node6" class="node">
<title>Node6</title>
<g id="a_node6"><a target="_parent" xlink:href="https://doc.qt.io/qt-5/qstring.html#arg-11" xlink:title=" ">
<polygon fill="none" stroke="black" points="737,-22.5 737,-41.5 811,-41.5 811,-22.5 737,-22.5"/>
<text text-anchor="middle" x="774" y="-29.5" font-family="Helvetica,sans-Serif" font-size="10.00">QString::arg</text>
</a>
</g>
</g>
<!-- Node5&#45;&gt;Node6 -->
<g id="edge5" class="edge">
<title>Node5&#45;&gt;Node6</title>
<path fill="none" stroke="midnightblue" d="M494.07,-68.24C564.53,-59.09 667.68,-45.69 726.79,-38"/>
<polygon fill="midnightblue" stroke="midnightblue" points="727.48,-41.44 736.94,-36.69 726.58,-34.5 727.48,-41.44"/>
</g>
<!-- Node5&#45;&gt;Node7 -->
<g id="edge6" class="edge">
<title>Node5&#45;&gt;Node7</title>
<path fill="none" stroke="midnightblue" d="M455.26,-62.91C476.83,-54.11 504.82,-43.01 530,-34 540.84,-30.12 552.67,-26.2 563.65,-22.68"/>
<polygon fill="midnightblue" stroke="midnightblue" points="564.98,-25.93 573.46,-19.57 562.87,-19.26 564.98,-25.93"/>
</g>
<!-- Node8 -->
<g id="node8" class="node">
<title>Node8</title>
<g id="a_node8"><a target="_parent" xlink:href="https://doc.qt.io/qt-5/qbytearray.html#size" xlink:title=" ">
<polygon fill="none" stroke="black" points="725,-212.5 725,-231.5 823,-231.5 823,-212.5 725,-212.5"/>
<text text-anchor="middle" x="774" y="-219.5" font-family="Helvetica,sans-Serif" font-size="10.00">QByteArray::size</text>
</a>
</g>
</g>
<!-- Node5&#45;&gt;Node8 -->
<g id="edge7" class="edge">
<title>Node5&#45;&gt;Node8</title>
<path fill="none" stroke="midnightblue" d="M476.99,-93.09C483.02,-95.88 488.82,-99.15 494,-103 516.27,-119.55 507.33,-138 530,-154 585.2,-192.95 662.08,-209.65 714.49,-216.77"/>
<polygon fill="midnightblue" stroke="midnightblue" points="714.26,-220.27 724.63,-218.07 715.15,-213.33 714.26,-220.27"/>
</g>
<!-- Node9 -->
<g id="node9" class="node">
<title>Node9</title>
<g id="a_node9"><a xlink:href="classAbstractPokitServicePrivate.html#af748600fc201fe47f29b58e8e93179d8" target="_top" xlink:title="Returns up to maxSize bytes of data as a human readable hexadecimal string.">
<polygon fill="none" stroke="black" points="530,-115 530,-145 682,-145 682,-115 530,-115"/>
<text text-anchor="start" x="538" y="-133" font-family="Helvetica,sans-Serif" font-size="10.00">AbstractPokitServicePrivate</text>
<text text-anchor="middle" x="606" y="-122" font-family="Helvetica,sans-Serif" font-size="10.00">::toHexString</text>
</a>
</g>
</g>
<!-- Node5&#45;&gt;Node9 -->
<g id="edge8" class="edge">
<title>Node5&#45;&gt;Node9</title>
<path fill="none" stroke="midnightblue" d="M472.8,-93.04C494.29,-99.05 519.21,-106.02 541.58,-112.27"/>
<polygon fill="midnightblue" stroke="midnightblue" points="540.75,-115.67 551.32,-114.99 542.63,-108.93 540.75,-115.67"/>
</g>
<!-- Node14 -->
<g id="node14" class="node">
<title>Node14</title>
<g id="a_node14"><a target="_parent" xlink:href="https://doc.qt.io/qt-5/qobject.html#tr" xlink:title=" ">
<polygon fill="none" stroke="black" points="571.5,-76.5 571.5,-95.5 640.5,-95.5 640.5,-76.5 571.5,-76.5"/>
<text text-anchor="middle" x="606" y="-83.5" font-family="Helvetica,sans-Serif" font-size="10.00">QObject::tr</text>
</a>
</g>
</g>
<!-- Node5&#45;&gt;Node14 -->
<g id="edge15" class="edge">
<title>Node5&#45;&gt;Node14</title>
<path fill="none" stroke="midnightblue" d="M494.12,-81.23C516.96,-82.21 541.29,-83.26 561.32,-84.12"/>
<polygon fill="midnightblue" stroke="midnightblue" points="561.24,-87.62 571.38,-84.55 561.54,-80.63 561.24,-87.62"/>
</g>
<!-- Node9&#45;&gt;Node6 -->
<g id="edge9" class="edge">
<title>Node9&#45;&gt;Node6</title>
<path fill="none" stroke="midnightblue" d="M665.48,-114.87C671.35,-112.09 676.98,-108.83 682,-105 704.92,-87.49 695.17,-68.63 718,-51 720.97,-48.7 724.24,-46.67 727.66,-44.88"/>
<polygon fill="midnightblue" stroke="midnightblue" points="729.29,-47.99 736.95,-40.67 726.4,-41.61 729.29,-47.99"/>
</g>
<!-- Node9&#45;&gt;Node8 -->
<g id="edge13" class="edge">
<title>Node9&#45;&gt;Node8</title>
<path fill="none" stroke="midnightblue" d="M626.55,-145.04C648.05,-161.04 684.06,-186.3 718,-203 722.31,-205.12 726.91,-207.1 731.55,-208.93"/>
<polygon fill="midnightblue" stroke="midnightblue" points="730.45,-212.26 741.04,-212.47 732.89,-205.7 730.45,-212.26"/>
</g>
<!-- Node10 -->
<g id="node10" class="node">
<title>Node10</title>
<g id="a_node10"><a target="_parent" xlink:href="https://doc.qt.io/qt-5/qstring.html#fromLatin1" xlink:title=" ">
<polygon fill="none" stroke="black" points="718,-136.5 718,-155.5 830,-155.5 830,-136.5 718,-136.5"/>
<text text-anchor="middle" x="774" y="-143.5" font-family="Helvetica,sans-Serif" font-size="10.00">QString::fromLatin1</text>
</a>
</g>
</g>
<!-- Node9&#45;&gt;Node10 -->
<g id="edge10" class="edge">
<title>Node9&#45;&gt;Node10</title>
<path fill="none" stroke="midnightblue" d="M682.23,-137.25C690.77,-138.07 699.42,-138.91 707.81,-139.72"/>
<polygon fill="midnightblue" stroke="midnightblue" points="707.61,-143.21 717.9,-140.69 708.28,-136.25 707.61,-143.21"/>
</g>
<!-- Node11 -->
<g id="node11" class="node">
<title>Node11</title>
<g id="a_node11"><a target="_parent" xlink:href="https://doc.qt.io/qt-5/qbytearray.html#left" xlink:title=" ">
<polygon fill="none" stroke="black" points="727,-98.5 727,-117.5 821,-117.5 821,-98.5 727,-98.5"/>
<text text-anchor="middle" x="774" y="-105.5" font-family="Helvetica,sans-Serif" font-size="10.00">QByteArray::left</text>
</a>
</g>
</g>
<!-- Node9&#45;&gt;Node11 -->
<g id="edge11" class="edge">
<title>Node9&#45;&gt;Node11</title>
<path fill="none" stroke="midnightblue" d="M682.23,-120.03C693.79,-118.5 705.55,-116.94 716.61,-115.47"/>
<polygon fill="midnightblue" stroke="midnightblue" points="717.09,-118.94 726.54,-114.16 716.17,-112 717.09,-118.94"/>
</g>
<!-- Node12 -->
<g id="node12" class="node">
<title>Node12</title>
<g id="a_node12"><a target="_parent" xlink:href="https://doc.qt.io/qt-5/qbytearray.html#right" xlink:title=" ">
<polygon fill="none" stroke="black" points="723.5,-60.5 723.5,-79.5 824.5,-79.5 824.5,-60.5 723.5,-60.5"/>
<text text-anchor="middle" x="774" y="-67.5" font-family="Helvetica,sans-Serif" font-size="10.00">QByteArray::right</text>
</a>
</g>
</g>
<!-- Node9&#45;&gt;Node12 -->
<g id="edge12" class="edge">
<title>Node9&#45;&gt;Node12</title>
<path fill="none" stroke="midnightblue" d="M654.46,-114.95C663.65,-111.82 673.17,-108.42 682,-105 698.32,-98.67 701.71,-95.42 718,-89 723.17,-86.96 728.66,-84.92 734.09,-82.98"/>
<polygon fill="midnightblue" stroke="midnightblue" points="735.44,-86.21 743.71,-79.6 733.12,-79.61 735.44,-86.21"/>
</g>
<!-- Node13 -->
<g id="node13" class="node">
<title>Node13</title>
<g id="a_node13"><a target="_parent" xlink:href="https://doc.qt.io/qt-5/qbytearray.html#toHex" xlink:title=" ">
<polygon fill="none" stroke="black" points="720.5,-174.5 720.5,-193.5 827.5,-193.5 827.5,-174.5 720.5,-174.5"/>
<text text-anchor="middle" x="774" y="-181.5" font-family="Helvetica,sans-Serif" font-size="10.00">QByteArray::toHex</text>
</a>
</g>
</g>
<!-- Node9&#45;&gt;Node13 -->
<g id="edge14" class="edge">
<title>Node9&#45;&gt;Node13</title>
<path fill="none" stroke="midnightblue" d="M653.24,-145.04C678.7,-153.33 709.95,-163.49 734.14,-171.36"/>
<polygon fill="midnightblue" stroke="midnightblue" points="733.12,-174.71 743.71,-174.47 735.28,-168.05 733.12,-174.71"/>
</g>
</g>
</svg>
