<?xml version="1.0" encoding="UTF-8" standalone="no"?>
<!DOCTYPE svg PUBLIC "-//W3C//DTD SVG 1.1//EN"
 "http://www.w3.org/Graphics/SVG/1.1/DTD/svg11.dtd">
<!-- Generated by graphviz version 2.43.0 (0)
 -->
<!-- Title: MultimeterService::maxValue Pages: 1 -->
<svg width="731pt" height="38pt"
 viewBox="0.00 0.00 731.00 38.00" xmlns="http://www.w3.org/2000/svg" xmlns:xlink="http://www.w3.org/1999/xlink">
<g id="graph0" class="graph" transform="scale(1 1) rotate(0) translate(4 34)">
<title>MultimeterService::maxValue</title>
<!-- Node1 -->
<g id="node1" class="node">
<title>Node1</title>
<g id="a_node1"><a xlink:title="Returns the maximum value for range in (integer) millivolts, or the string &quot;Auto&quot;.">
<polygon fill="#999999" stroke="#666666" points="723,-30 610,-30 610,0 723,0 723,-30"/>
<text text-anchor="start" x="618" y="-18" font-family="Helvetica,sans-Serif" font-size="10.00">MultimeterService::</text>
<text text-anchor="middle" x="666.5" y="-7" font-family="Helvetica,sans-Serif" font-size="10.00">maxValue</text>
</a>
</g>
</g>
<!-- Node2 -->
<g id="node2" class="node">
<title>Node2</title>
<g id="a_node2"><a xlink:href="classMeterCommand.html#a551a1c3d1c6f10384b5ccf264a640eff" target="_top" xlink:title="Outputs meter reading in the selected ouput format.">
<polygon fill="white" stroke="#666666" points="574,-24.5 401,-24.5 401,-5.5 574,-5.5 574,-24.5"/>
<text text-anchor="middle" x="487.5" y="-12.5" font-family="Helvetica,sans-Serif" font-size="10.00">MeterCommand::outputReading</text>
</a>
</g>
</g>
<!-- Node1&#45;&gt;Node2 -->
<g id="edge1" class="edge">
<title>Node1&#45;&gt;Node2</title>
<path fill="none" stroke="#63b8ff" d="M599.95,-15C591.58,-15 582.92,-15 574.29,-15"/>
<polygon fill="#63b8ff" stroke="#63b8ff" points="599.98,-18.5 609.98,-15 599.98,-11.5 599.98,-18.5"/>
</g>
<!-- Node3 -->
<g id="node3" class="node">
<title>Node3</title>
<g id="a_node3"><a xlink:href="classMeterCommand.html#a994e13d73c26eac303fa34b14082c9a4" target="_top" xlink:title="Invoked when the multimeter settings have been written, to begin reading the meter values.">
<polygon fill="white" stroke="#666666" points="365,-24.5 189,-24.5 189,-5.5 365,-5.5 365,-24.5"/>
<text text-anchor="middle" x="277" y="-12.5" font-family="Helvetica,sans-Serif" font-size="10.00">MeterCommand::settingsWritten</text>
</a>
</g>
</g>
<!-- Node2&#45;&gt;Node3 -->
<g id="edge2" class="edge">
<title>Node2&#45;&gt;Node3</title>
<path fill="none" stroke="#63b8ff" d="M390.78,-15C382.21,-15 373.55,-15 365.06,-15"/>
<polygon fill="#63b8ff" stroke="#63b8ff" points="390.79,-18.5 400.79,-15 390.79,-11.5 390.79,-18.5"/>
</g>
<!-- Node4 -->
<g id="node4" class="node">
<title>Node4</title>
<g id="a_node4"><a xlink:href="classMeterCommand.html#abdc90c9cd480caa8ad04281c49a1e9a4" target="_top" xlink:title="Returns a Pokit service object for the derived command class.">
<polygon fill="white" stroke="#666666" points="153,-24.5 0,-24.5 0,-5.5 153,-5.5 153,-24.5"/>
<text text-anchor="middle" x="76.5" y="-12.5" font-family="Helvetica,sans-Serif" font-size="10.00">MeterCommand::getService</text>
</a>
</g>
</g>
<!-- Node3&#45;&gt;Node4 -->
<g id="edge3" class="edge">
<title>Node3&#45;&gt;Node4</title>
<path fill="none" stroke="#63b8ff" d="M178.87,-15C170.28,-15 161.67,-15 153.29,-15"/>
<polygon fill="#63b8ff" stroke="#63b8ff" points="178.94,-18.5 188.94,-15 178.93,-11.5 178.94,-18.5"/>
</g>
</g>
</svg>
