<?xml version="1.0" encoding="UTF-8" standalone="no"?>
<!DOCTYPE svg PUBLIC "-//W3C//DTD SVG 1.1//EN"
 "http://www.w3.org/Graphics/SVG/1.1/DTD/svg11.dtd">
<!-- Generated by graphviz version 2.43.0 (0)
 -->
<!-- Title: AbstractCommand::parseMilliValue Pages: 1 -->
<svg width="585pt" height="317pt"
 viewBox="0.00 0.00 585.00 317.00" xmlns="http://www.w3.org/2000/svg" xmlns:xlink="http://www.w3.org/1999/xlink">
<g id="graph0" class="graph" transform="scale(1 1) rotate(0) translate(4 313)">
<title>AbstractCommand::parseMilliValue</title>
<!-- Node1 -->
<g id="node1" class="node">
<title>Node1</title>
<g id="a_node1"><a xlink:title="Returns value as a number of millis, such as milliseconds, or millivolts.">
<polygon fill="#bfbfbf" stroke="black" points="416,-128 416,-158 577,-158 577,-128 416,-128"/>
<text text-anchor="start" x="424" y="-146" font-family="Helvetica,sans-Serif" font-size="10.00">AbstractCommand::parseMilli</text>
<text text-anchor="middle" x="496.5" y="-135" font-family="Helvetica,sans-Serif" font-size="10.00">Value</text>
</a>
</g>
</g>
<!-- Node2 -->
<g id="node2" class="node">
<title>Node2</title>
<g id="a_node2"><a xlink:href="classAbstractCommand.html#ad827a18a24776efeb955739459d48f7d" target="_top" xlink:title="Processes the relevant options from the command line parser.">
<polygon fill="none" stroke="black" points="229,-128 229,-158 380,-158 380,-128 229,-128"/>
<text text-anchor="start" x="237" y="-146" font-family="Helvetica,sans-Serif" font-size="10.00">AbstractCommand::process</text>
<text text-anchor="middle" x="304.5" y="-135" font-family="Helvetica,sans-Serif" font-size="10.00">Options</text>
</a>
</g>
</g>
<!-- Node1&#45;&gt;Node2 -->
<g id="edge1" class="edge">
<title>Node1&#45;&gt;Node2</title>
<path fill="none" stroke="midnightblue" d="M405.47,-143C397.01,-143 388.49,-143 380.19,-143"/>
<polygon fill="midnightblue" stroke="midnightblue" points="405.75,-146.5 415.75,-143 405.75,-139.5 405.75,-146.5"/>
</g>
<!-- Node6 -->
<g id="node6" class="node">
<title>Node6</title>
<g id="a_node6"><a xlink:href="classLoggerCommand.html#aee1e274d05dfa103bc3d0054070650fb" target="_top" xlink:title="Processes the relevant options from the command line parser.">
<polygon fill="none" stroke="black" points="6,-289.5 6,-308.5 187,-308.5 187,-289.5 6,-289.5"/>
<text text-anchor="middle" x="96.5" y="-296.5" font-family="Helvetica,sans-Serif" font-size="10.00">LoggerCommand::processOptions</text>
</a>
</g>
</g>
<!-- Node1&#45;&gt;Node6 -->
<g id="edge10" class="edge">
<title>Node1&#45;&gt;Node6</title>
<path fill="none" stroke="midnightblue" d="M458.87,-162.92C403.04,-192.51 292.62,-248 193,-280 181.33,-283.75 168.61,-286.9 156.37,-289.49"/>
<polygon fill="midnightblue" stroke="midnightblue" points="460.82,-165.85 467.99,-158.06 457.52,-159.67 460.82,-165.85"/>
</g>
<!-- Node7 -->
<g id="node7" class="node">
<title>Node7</title>
<g id="a_node7"><a xlink:href="classMeterCommand.html#a7252ac9a772bc45e374da30bbc23ed85" target="_top" xlink:title="Processes the relevant options from the command line parser.">
<polygon fill="none" stroke="black" points="8.5,-0.5 8.5,-19.5 184.5,-19.5 184.5,-0.5 8.5,-0.5"/>
<text text-anchor="middle" x="96.5" y="-7.5" font-family="Helvetica,sans-Serif" font-size="10.00">MeterCommand::processOptions</text>
</a>
</g>
</g>
<!-- Node1&#45;&gt;Node7 -->
<g id="edge11" class="edge">
<title>Node1&#45;&gt;Node7</title>
<path fill="none" stroke="midnightblue" d="M451.95,-123.99C393.84,-99.24 287.31,-55.96 193,-29 180.32,-25.38 166.5,-22.2 153.42,-19.53"/>
<polygon fill="midnightblue" stroke="midnightblue" points="450.62,-127.23 461.19,-127.95 453.37,-120.8 450.62,-127.23"/>
</g>
<!-- Node3 -->
<g id="node3" class="node">
<title>Node3</title>
<g id="a_node3"><a xlink:href="classCalibrationCommand.html#aed246998ed2e3e10a7adc021d9f24a8c" target="_top" xlink:title="Processes the relevant options from the command line parser.">
<polygon fill="none" stroke="black" points="36.5,-240 36.5,-270 156.5,-270 156.5,-240 36.5,-240"/>
<text text-anchor="start" x="44.5" y="-258" font-family="Helvetica,sans-Serif" font-size="10.00">CalibrationCommand</text>
<text text-anchor="middle" x="96.5" y="-247" font-family="Helvetica,sans-Serif" font-size="10.00">::processOptions</text>
</a>
</g>
</g>
<!-- Node2&#45;&gt;Node3 -->
<g id="edge2" class="edge">
<title>Node2&#45;&gt;Node3</title>
<path fill="none" stroke="midnightblue" d="M281.45,-165.35C260.47,-185.38 227.11,-214.13 193,-231 181.74,-236.57 169.07,-240.92 156.73,-244.29"/>
<polygon fill="midnightblue" stroke="midnightblue" points="284.14,-167.62 288.87,-158.14 279.26,-162.6 284.14,-167.62"/>
</g>
<!-- Node4 -->
<g id="node4" class="node">
<title>Node4</title>
<g id="a_node4"><a xlink:href="classFlashLedCommand.html#ab2062e5ec29315ca83589a7302f7ae6f" target="_top" xlink:title="Processes the relevant options from the command line parser.">
<polygon fill="none" stroke="black" points="19.5,-191 19.5,-221 173.5,-221 173.5,-191 19.5,-191"/>
<text text-anchor="start" x="27.5" y="-209" font-family="Helvetica,sans-Serif" font-size="10.00">FlashLedCommand::process</text>
<text text-anchor="middle" x="96.5" y="-198" font-family="Helvetica,sans-Serif" font-size="10.00">Options</text>
</a>
</g>
</g>
<!-- Node2&#45;&gt;Node4 -->
<g id="edge3" class="edge">
<title>Node2&#45;&gt;Node4</title>
<path fill="none" stroke="midnightblue" d="M252.55,-161.42C233.91,-167.92 212.6,-175.08 193,-181 181.68,-184.42 169.53,-187.82 157.81,-190.95"/>
<polygon fill="midnightblue" stroke="midnightblue" points="253.75,-164.71 262.03,-158.09 251.43,-158.1 253.75,-164.71"/>
</g>
<!-- Node5 -->
<g id="node5" class="node">
<title>Node5</title>
<g id="a_node5"><a xlink:href="classInfoCommand.html#a7d815cb4b0133025e4354649e2cd7a6a" target="_top" xlink:title="Processes the relevant options from the command line parser.">
<polygon fill="none" stroke="black" points="13,-152.5 13,-171.5 180,-171.5 180,-152.5 13,-152.5"/>
<text text-anchor="middle" x="96.5" y="-159.5" font-family="Helvetica,sans-Serif" font-size="10.00">InfoCommand::processOptions</text>
</a>
</g>
</g>
<!-- Node2&#45;&gt;Node5 -->
<g id="edge4" class="edge">
<title>Node2&#45;&gt;Node5</title>
<path fill="none" stroke="midnightblue" d="M218.74,-150.82C206.03,-151.99 192.94,-153.2 180.27,-154.37"/>
<polygon fill="midnightblue" stroke="midnightblue" points="219.2,-154.29 228.84,-149.89 218.56,-147.32 219.2,-154.29"/>
</g>
<!-- Node2&#45;&gt;Node6 -->
<g id="edge5" class="edge">
<title>Node2&#45;&gt;Node6</title>
<path fill="none" stroke="midnightblue" d="M285.46,-166.2C255.73,-204.3 199.14,-276.29 193,-280 186.64,-283.85 179.64,-286.94 172.41,-289.41"/>
<polygon fill="midnightblue" stroke="midnightblue" points="288.32,-168.22 291.71,-158.18 282.8,-163.92 288.32,-168.22"/>
</g>
<!-- Node2&#45;&gt;Node7 -->
<g id="edge6" class="edge">
<title>Node2&#45;&gt;Node7</title>
<path fill="none" stroke="midnightblue" d="M276.01,-121.48C261.35,-109.42 243.41,-93.67 229,-78 210.71,-58.11 215.8,-43.51 193,-29 187.01,-25.19 180.42,-22.12 173.57,-19.64"/>
<polygon fill="midnightblue" stroke="midnightblue" points="273.8,-124.2 283.77,-127.78 278.21,-118.77 273.8,-124.2"/>
</g>
<!-- Node8 -->
<g id="node8" class="node">
<title>Node8</title>
<g id="a_node8"><a xlink:href="classScanCommand.html#a9998ef360fde53be932dc3059e86578e" target="_top" xlink:title="Processes the relevant options from the command line parser.">
<polygon fill="none" stroke="black" points="11,-114.5 11,-133.5 182,-133.5 182,-114.5 11,-114.5"/>
<text text-anchor="middle" x="96.5" y="-121.5" font-family="Helvetica,sans-Serif" font-size="10.00">ScanCommand::processOptions</text>
</a>
</g>
</g>
<!-- Node2&#45;&gt;Node8 -->
<g id="edge7" class="edge">
<title>Node2&#45;&gt;Node8</title>
<path fill="none" stroke="midnightblue" d="M218.75,-135.18C206.63,-134.07 194.15,-132.91 182.03,-131.8"/>
<polygon fill="midnightblue" stroke="midnightblue" points="218.56,-138.68 228.84,-136.11 219.2,-131.71 218.56,-138.68"/>
</g>
<!-- Node9 -->
<g id="node9" class="node">
<title>Node9</title>
<g id="a_node9"><a xlink:href="classSetNameCommand.html#aac72587ddb035857cd224d843fc3d00c" target="_top" xlink:title="Processes the relevant options from the command line parser.">
<polygon fill="none" stroke="black" points="0,-76.5 0,-95.5 193,-95.5 193,-76.5 0,-76.5"/>
<text text-anchor="middle" x="96.5" y="-83.5" font-family="Helvetica,sans-Serif" font-size="10.00">SetNameCommand::processOptions</text>
</a>
</g>
</g>
<!-- Node2&#45;&gt;Node9 -->
<g id="edge8" class="edge">
<title>Node2&#45;&gt;Node9</title>
<path fill="none" stroke="midnightblue" d="M254.37,-124.52C235.38,-117.79 213.35,-110.5 193,-105 179.86,-101.45 165.54,-98.26 152.09,-95.54"/>
<polygon fill="midnightblue" stroke="midnightblue" points="253.41,-127.89 264.01,-127.97 255.78,-121.3 253.41,-127.89"/>
</g>
<!-- Node10 -->
<g id="node10" class="node">
<title>Node10</title>
<g id="a_node10"><a xlink:href="classStatusCommand.html#a951404b4913fd4b341899d654a2abe72" target="_top" xlink:title="Processes the relevant options from the command line parser.">
<polygon fill="none" stroke="black" points="7,-38.5 7,-57.5 186,-57.5 186,-38.5 7,-38.5"/>
<text text-anchor="middle" x="96.5" y="-45.5" font-family="Helvetica,sans-Serif" font-size="10.00">StatusCommand::processOptions</text>
</a>
</g>
</g>
<!-- Node2&#45;&gt;Node10 -->
<g id="edge9" class="edge">
<title>Node2&#45;&gt;Node10</title>
<path fill="none" stroke="midnightblue" d="M278.56,-121.41C257.24,-104.09 225,-80.51 193,-67 183.81,-63.12 173.79,-60.02 163.8,-57.55"/>
<polygon fill="midnightblue" stroke="midnightblue" points="276.51,-124.26 286.45,-127.94 280.98,-118.86 276.51,-124.26"/>
</g>
</g>
</svg>
