<?xml version="1.0" encoding="UTF-8" standalone="no"?>
<!DOCTYPE svg PUBLIC "-//W3C//DTD SVG 1.1//EN"
 "http://www.w3.org/Graphics/SVG/1.1/DTD/svg11.dtd">
<!-- Generated by graphviz version 2.43.0 (0)
 -->
<!-- Title: PokitDevice::status Pages: 1 -->
<svg width="325pt" height="138pt"
 viewBox="0.00 0.00 325.00 138.00" xmlns="http://www.w3.org/2000/svg" xmlns:xlink="http://www.w3.org/1999/xlink">
<g id="graph0" class="graph" transform="scale(1 1) rotate(0) translate(4 134)">
<title>PokitDevice::status</title>
<!-- Node1 -->
<g id="Node000001" class="node">
<title>Node1</title>
<g id="a_Node000001"><a xlink:title="Returns a pointer to StatusService instance that uses this device&#39;s controller for access.">
<polygon fill="#999999" stroke="#666666" points="317,-74 206,-74 206,-55 317,-55 317,-74"/>
<text text-anchor="middle" x="261.5" y="-62" font-family="Helvetica,sans-Serif" font-size="10.00">PokitDevice::status</text>
</a>
</g>
</g>
<!-- Node1&#45;&gt;Node1 -->
<g id="edge5_Node000001_Node000001" class="edge">
<title>Node1&#45;&gt;Node1</title>
<g id="a_edge5_Node000001_Node000001"><a xlink:title=" ">
<path fill="none" stroke="#63b8ff" d="M294.24,-80.14C296.36,-86.57 285.45,-92 261.5,-92 230.22,-92 221.18,-82.73 234.37,-74.08"/>
<polygon fill="#63b8ff" stroke="#63b8ff" points="288.63,-74.08 296.71,-77.5 291.35,-77.02 294.07,-79.95 294.07,-79.95 294.07,-79.95 291.35,-77.02 291.42,-82.4 288.63,-74.08 288.63,-74.08"/>
</a>
</g>
</g>
<!-- Node2 -->
<g id="Node000002" class="node">
<title>Node2</title>
<g id="a_Node000002"><a xlink:href="classFlashLedCommand.html#ae36389ece2050dd8546c5b379df942a9" target="_top" xlink:title="Returns a Pokit service object for the derived command class.">
<polygon fill="white" stroke="#666666" points="169,-130 1,-130 1,-111 169,-111 169,-130"/>
<text text-anchor="middle" x="85" y="-118" font-family="Helvetica,sans-Serif" font-size="10.00">FlashLedCommand::getService</text>
</a>
</g>
</g>
<!-- Node1&#45;&gt;Node2 -->
<g id="edge1_Node000001_Node000002" class="edge">
<title>Node1&#45;&gt;Node2</title>
<g id="a_edge1_Node000001_Node000002"><a xlink:title=" ">
<path fill="none" stroke="#63b8ff" d="M233.09,-77.59C215.4,-85.64 191.71,-95.68 170,-102.5 159.76,-105.72 148.63,-108.55 137.93,-110.96"/>
<polygon fill="#63b8ff" stroke="#63b8ff" points="240.77,-74.05 235.01,-80.66 237.14,-75.72 233.51,-77.39 233.51,-77.39 233.51,-77.39 237.14,-75.72 232,-74.13 240.77,-74.05 240.77,-74.05"/>
</a>
</g>
</g>
<!-- Node3 -->
<g id="Node000003" class="node">
<title>Node3</title>
<g id="a_Node000003"><a xlink:href="classSetNameCommand.html#ac57aeeca51642c3ba79e6c6578677210" target="_top" xlink:title="Returns a Pokit service object for the derived command class.">
<polygon fill="white" stroke="#666666" points="170,-93 0,-93 0,-74 170,-74 170,-93"/>
<text text-anchor="middle" x="85" y="-81" font-family="Helvetica,sans-Serif" font-size="10.00">SetNameCommand::getService</text>
</a>
</g>
</g>
<!-- Node1&#45;&gt;Node3 -->
<g id="edge2_Node000001_Node000003" class="edge">
<title>Node1&#45;&gt;Node3</title>
<g id="a_edge2_Node000001_Node000003"><a xlink:title=" ">
<path fill="none" stroke="#63b8ff" d="M197.7,-71.34C188.78,-72.31 179.5,-73.32 170.26,-74.33"/>
<polygon fill="#63b8ff" stroke="#63b8ff" points="205.77,-70.46 198.2,-74.9 201.79,-70.89 197.81,-71.33 197.81,-71.33 197.81,-71.33 201.79,-70.89 197.42,-67.75 205.77,-70.46 205.77,-70.46"/>
</a>
</g>
</g>
<!-- Node4 -->
<g id="Node000004" class="node">
<title>Node4</title>
<g id="a_Node000004"><a xlink:href="classSetTorchCommand.html#af772b83095447969556df52702d68dd4" target="_top" xlink:title="Returns a Pokit service object for the derived command class.">
<polygon fill="white" stroke="#666666" points="168,-56 2,-56 2,-37 168,-37 168,-56"/>
<text text-anchor="middle" x="85" y="-44" font-family="Helvetica,sans-Serif" font-size="10.00">SetTorchCommand::getService</text>
</a>
</g>
</g>
<!-- Node1&#45;&gt;Node4 -->
<g id="edge3_Node000001_Node000004" class="edge">
<title>Node1&#45;&gt;Node4</title>
<g id="a_edge3_Node000001_Node000004"><a xlink:title=" ">
<path fill="none" stroke="#63b8ff" d="M197.77,-58.03C188.11,-57.03 178.02,-55.99 168.02,-54.96"/>
<polygon fill="#63b8ff" stroke="#63b8ff" points="205.77,-58.85 197.44,-61.61 201.79,-58.44 197.81,-58.03 197.81,-58.03 197.81,-58.03 201.79,-58.44 198.18,-54.45 205.77,-58.85 205.77,-58.85"/>
</a>
</g>
</g>
<!-- Node5 -->
<g id="Node000005" class="node">
<title>Node5</title>
<g id="a_Node000005"><a xlink:href="classStatusCommand.html#abeff2e017b4c34cfab1c55addc776a09" target="_top" xlink:title="Returns a Pokit service object for the derived command class.">
<polygon fill="white" stroke="#666666" points="162.5,-19 7.5,-19 7.5,0 162.5,0 162.5,-19"/>
<text text-anchor="middle" x="85" y="-7" font-family="Helvetica,sans-Serif" font-size="10.00">StatusCommand::getService</text>
</a>
</g>
</g>
<!-- Node1&#45;&gt;Node5 -->
<g id="edge4_Node000001_Node000005" class="edge">
<title>Node1&#45;&gt;Node5</title>
<g id="a_edge4_Node000001_Node000005"><a xlink:title=" ">
<path fill="none" stroke="#63b8ff" d="M231.6,-51.66C214.03,-44.2 191.01,-35.01 170,-28.5 158.57,-24.96 146.09,-21.78 134.32,-19.07"/>
<polygon fill="#63b8ff" stroke="#63b8ff" points="239.26,-54.96 230.49,-55.11 235.59,-53.38 231.91,-51.8 231.91,-51.8 231.91,-51.8 235.59,-53.38 233.33,-48.49 239.26,-54.96 239.26,-54.96"/>
</a>
</g>
</g>
</g>
</svg>
