<?xml version="1.0" encoding="UTF-8" standalone="no"?>
<!DOCTYPE svg PUBLIC "-//W3C//DTD SVG 1.1//EN"
 "http://www.w3.org/Graphics/SVG/1.1/DTD/svg11.dtd">
<!-- Generated by graphviz version 2.43.0 (0)
 -->
<!-- Title: StatusService::toString Pages: 1 -->
<svg width="996pt" height="300pt"
 viewBox="0.00 0.00 996.00 299.51" xmlns="http://www.w3.org/2000/svg" xmlns:xlink="http://www.w3.org/1999/xlink">
<g id="graph0" class="graph" transform="scale(1 1) rotate(0) translate(4 295.51)">
<title>StatusService::toString</title>
<!-- Node1 -->
<g id="node1" class="node">
<title>Node1</title>
<g id="a_node1"><a xlink:title="Returns a string version of the status enum label.">
<polygon fill="#999999" stroke="#666666" points="128,-107 0,-107 0,-88 128,-88 128,-107"/>
<text text-anchor="middle" x="64" y="-95" font-family="Helvetica,sans-Serif" font-size="10.00">StatusService::toString</text>
</a>
</g>
</g>
<!-- Node2 -->
<g id="node2" class="node">
<title>Node2</title>
<g id="a_node2"><a xlink:href="classStatusService.html#ae7be4aae021ae50faef48ed2812eb6a7" target="_top" xlink:title="Returns the most recent value of the Status service&#39;s Status characteristic.">
<polygon fill="white" stroke="#666666" points="283,-107 164,-107 164,-88 283,-88 283,-107"/>
<text text-anchor="middle" x="223.5" y="-95" font-family="Helvetica,sans-Serif" font-size="10.00">StatusService::status</text>
</a>
</g>
</g>
<!-- Node1&#45;&gt;Node2 -->
<g id="edge1" class="edge">
<title>Node1&#45;&gt;Node2</title>
<path fill="none" stroke="#63b8ff" d="M128.15,-97.5C136.55,-97.5 145.19,-97.5 153.68,-97.5"/>
<polygon fill="#63b8ff" stroke="#63b8ff" points="153.93,-101 163.93,-97.5 153.93,-94 153.93,-101"/>
</g>
<!-- Node3 -->
<g id="node3" class="node">
<title>Node3</title>
<g id="a_node3"><a target="_parent" xlink:href="https://doc.qt.io/qt-5/qlowenergycharacteristic.html#isValid" xlink:title=" ">
<polygon fill="white" stroke="#666666" points="464,-184.5 319,-184.5 319,-154.5 464,-154.5 464,-184.5"/>
<text text-anchor="start" x="327" y="-172.5" font-family="Helvetica,sans-Serif" font-size="10.00">QLowEnergyCharacteristic</text>
<text text-anchor="middle" x="391.5" y="-161.5" font-family="Helvetica,sans-Serif" font-size="10.00">::isValid</text>
</a>
</g>
</g>
<!-- Node2&#45;&gt;Node3 -->
<g id="edge2" class="edge">
<title>Node2&#45;&gt;Node3</title>
<path fill="none" stroke="#63b8ff" d="M241.56,-107.12C260.21,-117.42 291.17,-133.83 319,-145.5 323.45,-147.36 328.09,-149.19 332.79,-150.94"/>
<polygon fill="#63b8ff" stroke="#63b8ff" points="331.85,-154.33 342.45,-154.45 334.24,-147.75 331.85,-154.33"/>
</g>
<!-- Node4 -->
<g id="node4" class="node">
<title>Node4</title>
<g id="a_node4"><a xlink:href="classStatusServicePrivate.html#a3a6ff8ca3e9d7c884b269e52dd43aeb0" target="_top" xlink:title="Parses the Status value into Statu struct.">
<polygon fill="white" stroke="#666666" points="450.5,-136.5 332.5,-136.5 332.5,-106.5 450.5,-106.5 450.5,-136.5"/>
<text text-anchor="start" x="340.5" y="-124.5" font-family="Helvetica,sans-Serif" font-size="10.00">StatusServicePrivate</text>
<text text-anchor="middle" x="391.5" y="-113.5" font-family="Helvetica,sans-Serif" font-size="10.00">::parseStatus</text>
</a>
</g>
</g>
<!-- Node2&#45;&gt;Node4 -->
<g id="edge3" class="edge">
<title>Node2&#45;&gt;Node4</title>
<path fill="none" stroke="#63b8ff" d="M283.03,-105.96C295.62,-107.78 309.04,-109.72 321.98,-111.59"/>
<polygon fill="#63b8ff" stroke="#63b8ff" points="321.83,-115.11 332.22,-113.07 322.83,-108.18 321.83,-115.11"/>
</g>
<!-- Node17 -->
<g id="node17" class="node">
<title>Node17</title>
<g id="a_node17"><a target="_parent" xlink:href="https://doc.qt.io/qt-5/qlowenergycharacteristic.html#value" xlink:title=" ">
<polygon fill="white" stroke="#666666" points="464,-88.5 319,-88.5 319,-58.5 464,-58.5 464,-88.5"/>
<text text-anchor="start" x="327" y="-76.5" font-family="Helvetica,sans-Serif" font-size="10.00">QLowEnergyCharacteristic</text>
<text text-anchor="middle" x="391.5" y="-65.5" font-family="Helvetica,sans-Serif" font-size="10.00">::value</text>
</a>
</g>
</g>
<!-- Node2&#45;&gt;Node17 -->
<g id="edge23" class="edge">
<title>Node2&#45;&gt;Node17</title>
<path fill="none" stroke="#63b8ff" d="M283.03,-89.04C291.34,-87.84 300.02,-86.58 308.69,-85.33"/>
<polygon fill="#63b8ff" stroke="#63b8ff" points="309.43,-88.76 318.83,-83.86 308.43,-81.83 309.43,-88.76"/>
</g>
<!-- Node5 -->
<g id="node5" class="node">
<title>Node5</title>
<g id="a_node5"><a target="_parent" xlink:href="https://doc.qt.io/qt-5/qstring.html#arg-11" xlink:title=" ">
<polygon fill="white" stroke="#666666" points="969,-268 895,-268 895,-249 969,-249 969,-268"/>
<text text-anchor="middle" x="932" y="-256" font-family="Helvetica,sans-Serif" font-size="10.00">QString::arg</text>
</a>
</g>
</g>
<!-- Node4&#45;&gt;Node5 -->
<g id="edge4" class="edge">
<title>Node4&#45;&gt;Node5</title>
<path fill="none" stroke="#63b8ff" d="M450.72,-136.17C455.52,-138.79 460.05,-141.87 464,-145.5 493.62,-172.69 468.75,-203.2 500,-228.5 612.75,-319.77 801.11,-290.26 886.5,-270.37"/>
<polygon fill="#63b8ff" stroke="#63b8ff" points="887.48,-273.74 896.39,-268 885.85,-266.93 887.48,-273.74"/>
</g>
<!-- Node6 -->
<g id="node6" class="node">
<title>Node6</title>
<g id="a_node6"><a target="_parent" xlink:href="https://doc.qt.io/qt-5/qbytearray.html#at" xlink:title=" ">
<polygon fill="white" stroke="#666666" points="620,-181 532,-181 532,-162 620,-162 620,-181"/>
<text text-anchor="middle" x="576" y="-169" font-family="Helvetica,sans-Serif" font-size="10.00">QByteArray::at</text>
</a>
</g>
</g>
<!-- Node4&#45;&gt;Node6 -->
<g id="edge5" class="edge">
<title>Node4&#45;&gt;Node6</title>
<path fill="none" stroke="#63b8ff" d="M443.26,-136.51C461.16,-141.7 481.44,-147.47 500,-152.5 508.57,-154.82 517.72,-157.21 526.57,-159.48"/>
<polygon fill="#63b8ff" stroke="#63b8ff" points="525.84,-162.9 536.4,-161.98 527.57,-156.12 525.84,-162.9"/>
</g>
<!-- Node7 -->
<g id="node7" class="node">
<title>Node7</title>
<g id="a_node7"><a xlink:href="classAbstractPokitServicePrivate.html#af8b480a950244540bfff7fc4b476a0ef" target="_top" xlink:title="Returns false if data is smaller than minSize, otherwise returns failOnMax if data is bigger than max...">
<polygon fill="white" stroke="#666666" points="652,-143.5 500,-143.5 500,-113.5 652,-113.5 652,-143.5"/>
<text text-anchor="start" x="508" y="-131.5" font-family="Helvetica,sans-Serif" font-size="10.00">AbstractPokitServicePrivate</text>
<text text-anchor="middle" x="576" y="-120.5" font-family="Helvetica,sans-Serif" font-size="10.00">::checkSize</text>
</a>
</g>
</g>
<!-- Node4&#45;&gt;Node7 -->
<g id="edge6" class="edge">
<title>Node4&#45;&gt;Node7</title>
<path fill="none" stroke="#63b8ff" d="M450.75,-123.73C463.21,-124.21 476.63,-124.73 489.88,-125.24"/>
<polygon fill="#63b8ff" stroke="#63b8ff" points="489.83,-128.74 499.96,-125.62 490.1,-121.74 489.83,-128.74"/>
</g>
<!-- Node8 -->
<g id="node8" class="node">
<title>Node8</title>
<g id="a_node8"><a target="_parent" xlink:href="https://doc.qt.io/qt-5/qbytearray.html#mid" xlink:title=" ">
<polygon fill="white" stroke="#666666" points="812.5,-257 715.5,-257 715.5,-238 812.5,-238 812.5,-257"/>
<text text-anchor="middle" x="764" y="-245" font-family="Helvetica,sans-Serif" font-size="10.00">QByteArray::mid</text>
</a>
</g>
</g>
<!-- Node4&#45;&gt;Node8 -->
<g id="edge18" class="edge">
<title>Node4&#45;&gt;Node8</title>
<path fill="none" stroke="#63b8ff" d="M448.31,-136.66C453.83,-139.19 459.17,-142.12 464,-145.5 484.99,-160.17 478.23,-177.01 500,-190.5 563,-229.54 648.9,-242.08 705.14,-245.98"/>
<polygon fill="#63b8ff" stroke="#63b8ff" points="705.08,-249.48 715.28,-246.61 705.52,-242.49 705.08,-249.48"/>
</g>
<!-- Node9 -->
<g id="node9" class="node">
<title>Node9</title>
<g id="a_node9"><a target="_parent" xlink:href="https://doc.qt.io/qt-5/qbytearray.html#size" xlink:title=" ">
<polygon fill="white" stroke="#666666" points="981,-83 883,-83 883,-64 981,-64 981,-83"/>
<text text-anchor="middle" x="932" y="-71" font-family="Helvetica,sans-Serif" font-size="10.00">QByteArray::size</text>
</a>
</g>
</g>
<!-- Node4&#45;&gt;Node9 -->
<g id="edge19" class="edge">
<title>Node4&#45;&gt;Node9</title>
<path fill="none" stroke="#63b8ff" d="M437.06,-106.45C460.87,-98.6 487.74,-90.1 500,-87.5 648.11,-56.12 688.71,-60.69 840,-66.5 850.56,-66.91 861.79,-67.57 872.63,-68.34"/>
<polygon fill="#63b8ff" stroke="#63b8ff" points="872.64,-71.85 882.87,-69.1 873.16,-64.87 872.64,-71.85"/>
</g>
<!-- Node15 -->
<g id="node15" class="node">
<title>Node15</title>
<g id="a_node15"><a target="_parent" xlink:href="https://doc.qt.io/qt-5/qobject.html#tr" xlink:title=" ">
<polygon fill="white" stroke="#666666" points="798.5,-95 729.5,-95 729.5,-76 798.5,-76 798.5,-95"/>
<text text-anchor="middle" x="764" y="-83" font-family="Helvetica,sans-Serif" font-size="10.00">QObject::tr</text>
</a>
</g>
</g>
<!-- Node4&#45;&gt;Node15 -->
<g id="edge22" class="edge">
<title>Node4&#45;&gt;Node15</title>
<path fill="none" stroke="#63b8ff" d="M450.68,-111.38C466.63,-108.85 483.95,-106.35 500,-104.5 576.8,-95.67 666.72,-90.22 719.03,-87.54"/>
<polygon fill="#63b8ff" stroke="#63b8ff" points="719.48,-91.02 729.29,-87.02 719.12,-84.03 719.48,-91.02"/>
</g>
<!-- Node16 -->
<g id="node16" class="node">
<title>Node16</title>
<g id="a_node16"><a xlink:href="classStatusService.html#aac79e97cb114be25b2a6771d915f132d" target="_top" xlink:title="Returns a string version of the status enum label.">
<polygon fill="white" stroke="#666666" points="640,-19 512,-19 512,0 640,0 640,-19"/>
<text text-anchor="middle" x="576" y="-7" font-family="Helvetica,sans-Serif" font-size="10.00">StatusService::toString</text>
</a>
</g>
</g>
<!-- Node4&#45;&gt;Node16 -->
<g id="edge20" class="edge">
<title>Node4&#45;&gt;Node16</title>
<path fill="none" stroke="#63b8ff" d="M450.33,-106.39C455.22,-103.86 459.86,-100.92 464,-97.5 489.15,-76.7 474.71,-54.12 500,-33.5 505.2,-29.26 511.16,-25.77 517.39,-22.89"/>
<polygon fill="#63b8ff" stroke="#63b8ff" points="518.74,-26.12 526.67,-19.09 516.09,-19.64 518.74,-26.12"/>
</g>
<!-- Node7&#45;&gt;Node5 -->
<g id="edge7" class="edge">
<title>Node7&#45;&gt;Node5</title>
<path fill="none" stroke="#63b8ff" d="M632.46,-143.6C639.27,-146.42 645.95,-149.71 652,-153.5 671.43,-165.7 668.15,-179 688,-190.5 748.35,-225.46 772.97,-210.24 840,-229.5 850,-232.37 872.05,-239.4 891.95,-245.81"/>
<polygon fill="#63b8ff" stroke="#63b8ff" points="890.89,-249.15 901.48,-248.89 893.04,-242.48 890.89,-249.15"/>
</g>
<!-- Node7&#45;&gt;Node8 -->
<g id="edge8" class="edge">
<title>Node7&#45;&gt;Node8</title>
<path fill="none" stroke="#63b8ff" d="M637.06,-143.64C642.43,-146.4 647.52,-149.66 652,-153.5 678.56,-176.27 661.3,-200.89 688,-223.5 693.26,-227.95 699.35,-231.58 705.75,-234.54"/>
<polygon fill="#63b8ff" stroke="#63b8ff" points="704.69,-237.89 715.27,-238.41 707.33,-231.4 704.69,-237.89"/>
</g>
<!-- Node7&#45;&gt;Node9 -->
<g id="edge9" class="edge">
<title>Node7&#45;&gt;Node9</title>
<path fill="none" stroke="#63b8ff" d="M652.24,-126.37C705.23,-123.72 777.55,-117.79 840,-104.5 841.44,-104.19 869,-94.79 893.41,-86.42"/>
<polygon fill="#63b8ff" stroke="#63b8ff" points="894.57,-89.72 902.9,-83.16 892.3,-83.1 894.57,-89.72"/>
</g>
<!-- Node10 -->
<g id="node10" class="node">
<title>Node10</title>
<g id="a_node10"><a xlink:href="classAbstractPokitServicePrivate.html#af748600fc201fe47f29b58e8e93179d8" target="_top" xlink:title="Returns up to maxSize bytes of data as a human readable hexadecimal string.">
<polygon fill="white" stroke="#666666" points="840,-181.5 688,-181.5 688,-151.5 840,-151.5 840,-181.5"/>
<text text-anchor="start" x="696" y="-169.5" font-family="Helvetica,sans-Serif" font-size="10.00">AbstractPokitServicePrivate</text>
<text text-anchor="middle" x="764" y="-158.5" font-family="Helvetica,sans-Serif" font-size="10.00">::toHexString</text>
</a>
</g>
</g>
<!-- Node7&#45;&gt;Node10 -->
<g id="edge10" class="edge">
<title>Node7&#45;&gt;Node10</title>
<path fill="none" stroke="#63b8ff" d="M650.51,-143.52C660.01,-145.46 669.79,-147.46 679.43,-149.43"/>
<polygon fill="#63b8ff" stroke="#63b8ff" points="678.91,-152.89 689.41,-151.47 680.32,-146.04 678.91,-152.89"/>
</g>
<!-- Node7&#45;&gt;Node15 -->
<g id="edge17" class="edge">
<title>Node7&#45;&gt;Node15</title>
<path fill="none" stroke="#63b8ff" d="M642.05,-113.46C667.7,-107.53 696.46,-100.88 719.51,-95.55"/>
<polygon fill="#63b8ff" stroke="#63b8ff" points="720.38,-98.95 729.33,-93.28 718.8,-92.13 720.38,-98.95"/>
</g>
<!-- Node10&#45;&gt;Node5 -->
<g id="edge11" class="edge">
<title>Node10&#45;&gt;Node5</title>
<path fill="none" stroke="#63b8ff" d="M814.94,-181.54C823.72,-185.35 832.46,-189.97 840,-195.5 860.66,-210.64 854.95,-225.91 876,-240.5 879.03,-242.6 882.31,-244.46 885.73,-246.12"/>
<polygon fill="#63b8ff" stroke="#63b8ff" points="884.38,-249.35 894.95,-250.04 887.12,-242.91 884.38,-249.35"/>
</g>
<!-- Node10&#45;&gt;Node9 -->
<g id="edge15" class="edge">
<title>Node10&#45;&gt;Node9</title>
<path fill="none" stroke="#63b8ff" d="M814.94,-151.46C823.72,-147.65 832.46,-143.03 840,-137.5 860.66,-122.36 855.07,-107.26 876,-92.5 878.72,-90.58 881.66,-88.84 884.71,-87.26"/>
<polygon fill="#63b8ff" stroke="#63b8ff" points="886.42,-90.33 894.09,-83.01 883.53,-83.95 886.42,-90.33"/>
</g>
<!-- Node11 -->
<g id="node11" class="node">
<title>Node11</title>
<g id="a_node11"><a target="_parent" xlink:href="https://doc.qt.io/qt-5/qstring.html#fromLatin1" xlink:title=" ">
<polygon fill="white" stroke="#666666" points="988,-157 876,-157 876,-138 988,-138 988,-157"/>
<text text-anchor="middle" x="932" y="-145" font-family="Helvetica,sans-Serif" font-size="10.00">QString::fromLatin1</text>
</a>
</g>
</g>
<!-- Node10&#45;&gt;Node11 -->
<g id="edge12" class="edge">
<title>Node10&#45;&gt;Node11</title>
<path fill="none" stroke="#63b8ff" d="M840.23,-157.89C848.77,-156.91 857.42,-155.92 865.81,-154.96"/>
<polygon fill="#63b8ff" stroke="#63b8ff" points="866.36,-158.42 875.9,-153.81 865.56,-151.47 866.36,-158.42"/>
</g>
<!-- Node12 -->
<g id="node12" class="node">
<title>Node12</title>
<g id="a_node12"><a target="_parent" xlink:href="https://doc.qt.io/qt-5/qbytearray.html#left" xlink:title=" ">
<polygon fill="white" stroke="#666666" points="979,-120 885,-120 885,-101 979,-101 979,-120"/>
<text text-anchor="middle" x="932" y="-108" font-family="Helvetica,sans-Serif" font-size="10.00">QByteArray::left</text>
</a>
</g>
</g>
<!-- Node10&#45;&gt;Node12 -->
<g id="edge13" class="edge">
<title>Node10&#45;&gt;Node12</title>
<path fill="none" stroke="#63b8ff" d="M809.48,-151.49C835.48,-142.72 867.96,-131.77 892.79,-123.39"/>
<polygon fill="#63b8ff" stroke="#63b8ff" points="894.23,-126.6 902.59,-120.08 891.99,-119.97 894.23,-126.6"/>
</g>
<!-- Node13 -->
<g id="node13" class="node">
<title>Node13</title>
<g id="a_node13"><a target="_parent" xlink:href="https://doc.qt.io/qt-5/qbytearray.html#right" xlink:title=" ">
<polygon fill="white" stroke="#666666" points="982.5,-231 881.5,-231 881.5,-212 982.5,-212 982.5,-231"/>
<text text-anchor="middle" x="932" y="-219" font-family="Helvetica,sans-Serif" font-size="10.00">QByteArray::right</text>
</a>
</g>
</g>
<!-- Node10&#45;&gt;Node13 -->
<g id="edge14" class="edge">
<title>Node10&#45;&gt;Node13</title>
<path fill="none" stroke="#63b8ff" d="M810.08,-181.59C830.24,-188.32 854.3,-196.33 876,-203.5 881.19,-205.21 886.65,-207.01 892.04,-208.78"/>
<polygon fill="#63b8ff" stroke="#63b8ff" points="891,-212.12 901.59,-211.91 893.18,-205.47 891,-212.12"/>
</g>
<!-- Node14 -->
<g id="node14" class="node">
<title>Node14</title>
<g id="a_node14"><a target="_parent" xlink:href="https://doc.qt.io/qt-5/qbytearray.html#toHex" xlink:title=" ">
<polygon fill="white" stroke="#666666" points="985.5,-194 878.5,-194 878.5,-175 985.5,-175 985.5,-194"/>
<text text-anchor="middle" x="932" y="-182" font-family="Helvetica,sans-Serif" font-size="10.00">QByteArray::toHex</text>
</a>
</g>
</g>
<!-- Node10&#45;&gt;Node14 -->
<g id="edge16" class="edge">
<title>Node10&#45;&gt;Node14</title>
<path fill="none" stroke="#63b8ff" d="M840.23,-174.66C849.58,-175.67 859.06,-176.7 868.19,-177.69"/>
<polygon fill="#63b8ff" stroke="#63b8ff" points="868.01,-181.19 878.33,-178.79 868.77,-174.23 868.01,-181.19"/>
</g>
<!-- Node16&#45;&gt;Node2 -->
<g id="edge21" class="edge">
<title>Node16&#45;&gt;Node2</title>
<path fill="none" stroke="#63b8ff" d="M511.91,-13.8C459.29,-18.69 382.89,-28.86 319,-49.5 293.68,-57.68 266.82,-71.93 248.24,-82.78"/>
<polygon fill="#63b8ff" stroke="#63b8ff" points="246.37,-79.82 239.57,-87.95 249.95,-85.84 246.37,-79.82"/>
</g>
</g>
</svg>
