<?xml version="1.0" encoding="UTF-8" standalone="no"?>
<!DOCTYPE svg PUBLIC "-//W3C//DTD SVG 1.1//EN"
 "http://www.w3.org/Graphics/SVG/1.1/DTD/svg11.dtd">
<!-- Generated by graphviz version 2.43.0 (0)
 -->
<!-- Title: LoggerFetchCommand::getService Pages: 1 -->
<svg width="1036pt" height="686pt"
 viewBox="0.00 0.00 1036.00 686.00" xmlns="http://www.w3.org/2000/svg" xmlns:xlink="http://www.w3.org/1999/xlink">
<g id="graph0" class="graph" transform="scale(1 1) rotate(0) translate(4 682)">
<title>LoggerFetchCommand::getService</title>
<!-- Node1 -->
<g id="Node000001" class="node">
<title>Node1</title>
<g id="a_Node000001"><a xlink:title="Returns a Pokit service object for the derived command class.">
<polygon fill="#999999" stroke="#666666" points="126,-563.5 0,-563.5 0,-533.5 126,-533.5 126,-563.5"/>
<text text-anchor="start" x="8" y="-551.5" font-family="Helvetica,sans-Serif" font-size="10.00">LoggerFetchCommand</text>
<text text-anchor="middle" x="63" y="-540.5" font-family="Helvetica,sans-Serif" font-size="10.00">::getService</text>
</a>
</g>
</g>
<!-- Node2 -->
<g id="Node000002" class="node">
<title>Node2</title>
<g id="a_Node000002"><a target="_parent" xlink:href="https://doc.qt.io/qt-5/qobject.html#connect" xlink:title=" ">
<polygon fill="white" stroke="#666666" points="280,-678 180,-678 180,-659 280,-659 280,-678"/>
<text text-anchor="middle" x="230" y="-666" font-family="Helvetica,sans-Serif" font-size="10.00">QObject::connect</text>
</a>
</g>
</g>
<!-- Node1&#45;&gt;Node2 -->
<g id="edge1_Node000001_Node000002" class="edge">
<title>Node1&#45;&gt;Node2</title>
<g id="a_edge1_Node000001_Node000002"><a xlink:title=" ">
<path fill="none" stroke="#63b8ff" d="M74.53,-563.59C90.76,-585.72 124.03,-626.82 162,-649.5 166.12,-651.96 170.58,-654.12 175.17,-656"/>
<polygon fill="#63b8ff" stroke="#63b8ff" points="182.97,-658.93 174.22,-659.49 179.23,-657.52 175.48,-656.12 175.48,-656.12 175.48,-656.12 179.23,-657.52 176.74,-652.75 182.97,-658.93 182.97,-658.93"/>
</a>
</g>
</g>
<!-- Node3 -->
<g id="Node000003" class="node">
<title>Node3</title>
<g id="a_Node000003"><a xlink:href="classPokitDevice.html#a77d94b8b0cf19bdbbd8f994e3c66c961" target="_top" xlink:title="Returns a pointer to a DataLoggerService instance that uses this device&#39;s controller for access.">
<polygon fill="white" stroke="#666666" points="298,-623 162,-623 162,-604 298,-604 298,-623"/>
<text text-anchor="middle" x="230" y="-611" font-family="Helvetica,sans-Serif" font-size="10.00">PokitDevice::dataLogger</text>
</a>
</g>
</g>
<!-- Node1&#45;&gt;Node3 -->
<g id="edge2_Node000001_Node000003" class="edge">
<title>Node1&#45;&gt;Node3</title>
<g id="a_edge2_Node000001_Node000003"><a xlink:title=" ">
<path fill="none" stroke="#63b8ff" d="M93.05,-563.66C112.28,-573.31 138.23,-585.62 162,-594.5 168.82,-597.05 176.14,-599.45 183.34,-601.63"/>
<polygon fill="#63b8ff" stroke="#63b8ff" points="191.09,-603.91 182.4,-605.11 187.25,-602.78 183.42,-601.65 183.42,-601.65 183.42,-601.65 187.25,-602.78 184.43,-598.2 191.09,-603.91 191.09,-603.91"/>
</a>
</g>
</g>
<!-- Node4 -->
<g id="Node000004" class="node">
<title>Node4</title>
<g id="a_Node000004"><a xlink:href="classDataLoggerService.html#a637460cb26b0d448760544ecba6de468" target="_top" xlink:title="This signal is emitted when the Metadata characteristic has been read successfully.">
<polygon fill="white" stroke="#666666" points="287.5,-585.5 172.5,-585.5 172.5,-555.5 287.5,-555.5 287.5,-585.5"/>
<text text-anchor="start" x="180.5" y="-573.5" font-family="Helvetica,sans-Serif" font-size="10.00">DataLoggerService::</text>
<text text-anchor="middle" x="230" y="-562.5" font-family="Helvetica,sans-Serif" font-size="10.00">metadataRead</text>
</a>
</g>
</g>
<!-- Node1&#45;&gt;Node4 -->
<g id="edge4_Node000001_Node000004" class="edge">
<title>Node1&#45;&gt;Node4</title>
<g id="a_edge4_Node000001_Node000004"><a xlink:title=" ">
<path fill="none" stroke="#63b8ff" d="M126.38,-556.82C138.73,-558.46 151.72,-560.2 164.16,-561.85"/>
<polygon fill="#63b8ff" stroke="#63b8ff" points="172.23,-562.93 163.83,-565.44 168.27,-562.4 164.3,-561.87 164.3,-561.87 164.3,-561.87 168.27,-562.4 164.78,-558.31 172.23,-562.93 172.23,-562.93"/>
</a>
</g>
</g>
<!-- Node5 -->
<g id="Node000005" class="node">
<title>Node5</title>
<g id="a_Node000005"><a xlink:href="classLoggerFetchCommand.html#ad77b93a8a2ccad9ee9aaacd67f49689e" target="_top" xlink:title="Invoked when metadata has been received from the data logger.">
<polygon fill="white" stroke="#666666" points="293,-477.5 167,-477.5 167,-447.5 293,-447.5 293,-477.5"/>
<text text-anchor="start" x="175" y="-465.5" font-family="Helvetica,sans-Serif" font-size="10.00">LoggerFetchCommand</text>
<text text-anchor="middle" x="230" y="-454.5" font-family="Helvetica,sans-Serif" font-size="10.00">::metadataRead</text>
</a>
</g>
</g>
<!-- Node1&#45;&gt;Node5 -->
<g id="edge5_Node000001_Node000005" class="edge">
<title>Node1&#45;&gt;Node5</title>
<g id="a_edge5_Node000001_Node000005"><a xlink:title=" ">
<path fill="none" stroke="#63b8ff" d="M93.12,-533.32C120.92,-518.83 162.9,-496.95 192.84,-481.35"/>
<polygon fill="#63b8ff" stroke="#63b8ff" points="200.17,-477.53 194.74,-484.42 196.63,-479.37 193.08,-481.22 193.08,-481.22 193.08,-481.22 196.63,-479.37 191.41,-478.03 200.17,-477.53 200.17,-477.53"/>
</a>
</g>
</g>
<!-- Node10 -->
<g id="Node000010" class="node">
<title>Node10</title>
<g id="a_Node000010"><a xlink:href="classLoggerFetchCommand.html#a2f093386853fc6667de091a0e921a665" target="_top" xlink:title="Outputs logger samples in the selected output format.">
<polygon fill="white" stroke="#666666" points="293,-240.5 167,-240.5 167,-210.5 293,-210.5 293,-240.5"/>
<text text-anchor="start" x="175" y="-228.5" font-family="Helvetica,sans-Serif" font-size="10.00">LoggerFetchCommand</text>
<text text-anchor="middle" x="230" y="-217.5" font-family="Helvetica,sans-Serif" font-size="10.00">::outputSamples</text>
</a>
</g>
</g>
<!-- Node1&#45;&gt;Node10 -->
<g id="edge11_Node000001_Node000010" class="edge">
<title>Node1&#45;&gt;Node10</title>
<g id="a_edge11_Node000001_Node000010"><a xlink:title=" ">
<path fill="none" stroke="#63b8ff" d="M71.74,-533.35C98.32,-481.32 185.98,-309.71 217.55,-247.92"/>
<polygon fill="#63b8ff" stroke="#63b8ff" points="221.28,-240.61 220.85,-249.37 219.46,-244.18 217.64,-247.74 217.64,-247.74 217.64,-247.74 219.46,-244.18 214.43,-246.1 221.28,-240.61 221.28,-240.61"/>
</a>
</g>
</g>
<!-- Node26 -->
<g id="Node000026" class="node">
<title>Node26</title>
<g id="a_Node000026"><a xlink:href="classDataLoggerService.html#a4f3e86b3300ebd0f0b212cabf8da90a0" target="_top" xlink:title="This signal is emitted when the Reading characteristic has been notified.">
<polygon fill="white" stroke="#666666" points="673.5,-499.5 558.5,-499.5 558.5,-469.5 673.5,-469.5 673.5,-499.5"/>
<text text-anchor="start" x="566.5" y="-487.5" font-family="Helvetica,sans-Serif" font-size="10.00">DataLoggerService::</text>
<text text-anchor="middle" x="616" y="-476.5" font-family="Helvetica,sans-Serif" font-size="10.00">samplesRead</text>
</a>
</g>
</g>
<!-- Node1&#45;&gt;Node26 -->
<g id="edge31_Node000001_Node000026" class="edge">
<title>Node1&#45;&gt;Node26</title>
<g id="a_edge31_Node000001_Node000026"><a xlink:title=" ">
<path fill="none" stroke="#63b8ff" d="M126.08,-545.76C213.04,-541.3 375.86,-530.63 513,-508.5 525.15,-506.54 538.01,-503.94 550.35,-501.17"/>
<polygon fill="#63b8ff" stroke="#63b8ff" points="558.37,-499.33 551.37,-504.63 554.47,-500.23 550.57,-501.12 550.57,-501.12 550.57,-501.12 554.47,-500.23 549.77,-497.61 558.37,-499.33 558.37,-499.33"/>
</a>
</g>
</g>
<!-- Node3&#45;&gt;Node3 -->
<g id="edge3_Node000003_Node000003" class="edge">
<title>Node3&#45;&gt;Node3</title>
<g id="a_edge3_Node000003_Node000003"><a xlink:title=" ">
<path fill="none" stroke="#63b8ff" d="M204.41,-623.08C191.97,-631.73 200.5,-641 230,-641 252.59,-641 262.88,-635.57 260.88,-629.14"/>
<polygon fill="#63b8ff" stroke="#63b8ff" points="255.59,-623.08 263.56,-626.74 258.22,-626.09 260.85,-629.11 260.85,-629.11 260.85,-629.11 258.22,-626.09 258.14,-631.48 255.59,-623.08 255.59,-623.08"/>
</a>
</g>
</g>
<!-- Node6 -->
<g id="Node000006" class="node">
<title>Node6</title>
<g id="a_Node000006"><a target="_parent" xlink:href="https://doc.qt.io/qt-5/qdatetime.html#fromSecsSinceEpoch" xlink:title=" ">
<polygon fill="white" stroke="#666666" points="498.5,-499.5 348.5,-499.5 348.5,-469.5 498.5,-469.5 498.5,-499.5"/>
<text text-anchor="start" x="356.5" y="-487.5" font-family="Helvetica,sans-Serif" font-size="10.00">QDateTime::fromSecsSince</text>
<text text-anchor="middle" x="423.5" y="-476.5" font-family="Helvetica,sans-Serif" font-size="10.00">Epoch</text>
</a>
</g>
</g>
<!-- Node5&#45;&gt;Node6 -->
<g id="edge6_Node000005_Node000006" class="edge">
<title>Node5&#45;&gt;Node6</title>
<g id="a_edge6_Node000005_Node000006"><a xlink:title=" ">
<path fill="none" stroke="#63b8ff" d="M293.17,-469.64C308.15,-471.36 324.38,-473.23 340.11,-475.04"/>
<polygon fill="#63b8ff" stroke="#63b8ff" points="348.29,-475.97 339.93,-478.64 344.31,-475.52 340.34,-475.06 340.34,-475.06 340.34,-475.06 344.31,-475.52 340.75,-471.48 348.29,-475.97 348.29,-475.97"/>
</a>
</g>
</g>
<!-- Node7 -->
<g id="Node000007" class="node">
<title>Node7</title>
<g id="a_Node000007"><a xlink:href="classDataLoggerService.html#a4c696b7500e666959bbec4b0ed677d5d" target="_top" xlink:title="Returns mode as a user&#45;friendly string.">
<polygon fill="white" stroke="#666666" points="481,-413.5 366,-413.5 366,-383.5 481,-383.5 481,-413.5"/>
<text text-anchor="start" x="374" y="-401.5" font-family="Helvetica,sans-Serif" font-size="10.00">DataLoggerService::</text>
<text text-anchor="middle" x="423.5" y="-390.5" font-family="Helvetica,sans-Serif" font-size="10.00">toString</text>
</a>
</g>
</g>
<!-- Node5&#45;&gt;Node7 -->
<g id="edge7_Node000005_Node000007" class="edge">
<title>Node5&#45;&gt;Node7</title>
<g id="a_edge7_Node000005_Node000007"><a xlink:title=" ">
<path fill="none" stroke="#63b8ff" d="M274.82,-447.49C293.1,-441.26 314.56,-433.99 334,-427.5 345.09,-423.8 356.98,-419.87 368.32,-416.15"/>
<polygon fill="#63b8ff" stroke="#63b8ff" points="376.08,-413.61 369.6,-419.52 372.28,-414.85 368.48,-416.1 368.48,-416.1 368.48,-416.1 372.28,-414.85 367.35,-412.68 376.08,-413.61 376.08,-413.61"/>
</a>
</g>
</g>
<!-- Node9 -->
<g id="Node000009" class="node">
<title>Node9</title>
<g id="a_Node000009"><a target="_parent" xlink:href="https://doc.qt.io/qt-5/qobject.html#tr" xlink:title=" ">
<polygon fill="white" stroke="#666666" points="650.5,-368 581.5,-368 581.5,-349 650.5,-349 650.5,-368"/>
<text text-anchor="middle" x="616" y="-356" font-family="Helvetica,sans-Serif" font-size="10.00">QObject::tr</text>
</a>
</g>
</g>
<!-- Node5&#45;&gt;Node9 -->
<g id="edge10_Node000005_Node000009" class="edge">
<title>Node5&#45;&gt;Node9</title>
<g id="a_edge10_Node000005_Node000009"><a xlink:title=" ">
<path fill="none" stroke="#63b8ff" d="M293.28,-458.86C364.62,-453.8 476.37,-442.86 513,-422.5 534.79,-410.39 528.3,-393.39 549,-379.5 556.42,-374.52 565.08,-370.67 573.65,-367.7"/>
<polygon fill="#63b8ff" stroke="#63b8ff" points="581.46,-365.22 574.92,-371.08 577.64,-366.43 573.83,-367.64 573.83,-367.64 573.83,-367.64 577.64,-366.43 572.74,-364.21 581.46,-365.22 581.46,-365.22"/>
</a>
</g>
</g>
<!-- Node8 -->
<g id="Node000008" class="node">
<title>Node8</title>
<g id="a_Node000008"><a target="_parent" xlink:href="https://doc.qt.io/qt-5/qstring.html#QString" xlink:title=" ">
<polygon fill="white" stroke="#666666" points="663.5,-408 568.5,-408 568.5,-389 663.5,-389 663.5,-408"/>
<text text-anchor="middle" x="616" y="-396" font-family="Helvetica,sans-Serif" font-size="10.00">QString::QString</text>
</a>
</g>
</g>
<!-- Node7&#45;&gt;Node8 -->
<g id="edge8_Node000007_Node000008" class="edge">
<title>Node7&#45;&gt;Node8</title>
<g id="a_edge8_Node000007_Node000008"><a xlink:title=" ">
<path fill="none" stroke="#63b8ff" d="M481.14,-398.5C506.07,-398.5 535.25,-398.5 559.99,-398.5"/>
<polygon fill="#63b8ff" stroke="#63b8ff" points="568.2,-398.5 560.2,-402.1 564.2,-398.5 560.2,-398.5 560.2,-398.5 560.2,-398.5 564.2,-398.5 560.2,-394.9 568.2,-398.5 568.2,-398.5"/>
</a>
</g>
</g>
<!-- Node7&#45;&gt;Node9 -->
<g id="edge9_Node000007_Node000009" class="edge">
<title>Node7&#45;&gt;Node9</title>
<g id="a_edge9_Node000007_Node000009"><a xlink:title=" ">
<path fill="none" stroke="#63b8ff" d="M481.14,-386.61C510.66,-380.41 546.14,-372.96 573.15,-367.29"/>
<polygon fill="#63b8ff" stroke="#63b8ff" points="581.24,-365.59 574.15,-370.76 577.33,-366.41 573.41,-367.23 573.41,-367.23 573.41,-367.23 577.33,-366.41 572.67,-363.71 581.24,-365.59 581.24,-365.59"/>
</a>
</g>
</g>
<!-- Node10&#45;&gt;Node7 -->
<g id="edge28_Node000010_Node000007" class="edge">
<title>Node10&#45;&gt;Node7</title>
<g id="a_edge28_Node000010_Node000007"><a xlink:title=" ">
<path fill="none" stroke="#63b8ff" d="M237.74,-240.54C251.57,-269.71 285.93,-334.21 334,-369.5 341.26,-374.83 349.55,-379.21 358.07,-382.81"/>
<polygon fill="#63b8ff" stroke="#63b8ff" points="365.61,-385.77 356.84,-386.19 361.88,-384.31 358.16,-382.84 358.16,-382.84 358.16,-382.84 361.88,-384.31 359.48,-379.49 365.61,-385.77 365.61,-385.77"/>
</a>
</g>
</g>
<!-- Node10&#45;&gt;Node9 -->
<g id="edge30_Node000010_Node000009" class="edge">
<title>Node10&#45;&gt;Node9</title>
<g id="a_edge30_Node000010_Node000009"><a xlink:title=" ">
<path fill="none" stroke="#63b8ff" d="M239.81,-240.53C255.29,-265.34 289.95,-314.22 334,-335.5 411.93,-373.14 516.25,-369.76 573.34,-364.06"/>
<polygon fill="#63b8ff" stroke="#63b8ff" points="581.41,-363.21 573.83,-367.63 577.43,-363.63 573.45,-364.05 573.45,-364.05 573.45,-364.05 577.43,-363.63 573.07,-360.47 581.41,-363.21 581.41,-363.21"/>
</a>
</g>
</g>
<!-- Node11 -->
<g id="Node000011" class="node">
<title>Node11</title>
<g id="a_Node000011"><a target="_parent" xlink:href="https://doc.qt.io/qt-5/qstring.html#arg-1" xlink:title=" ">
<polygon fill="white" stroke="#666666" points="460.5,-179 386.5,-179 386.5,-160 460.5,-160 460.5,-179"/>
<text text-anchor="middle" x="423.5" y="-167" font-family="Helvetica,sans-Serif" font-size="10.00">QString::arg</text>
</a>
</g>
</g>
<!-- Node10&#45;&gt;Node11 -->
<g id="edge12_Node000010_Node000011" class="edge">
<title>Node10&#45;&gt;Node11</title>
<g id="a_edge12_Node000010_Node000011"><a xlink:title=" ">
<path fill="none" stroke="#63b8ff" d="M267.73,-210.39C287.19,-202.79 311.63,-193.86 334,-187.5 348.25,-183.45 364.03,-179.94 378.27,-177.12"/>
<polygon fill="#63b8ff" stroke="#63b8ff" points="386.46,-175.54 379.29,-180.59 382.53,-176.3 378.6,-177.05 378.6,-177.05 378.6,-177.05 382.53,-176.3 377.92,-173.52 386.46,-175.54 386.46,-175.54"/>
</a>
</g>
</g>
<!-- Node12 -->
<g id="Node000012" class="node">
<title>Node12</title>
<g id="a_Node000012"><a xlink:href="classDeviceCommand.html#ae619166395b5651f1316fd5336d9fa2c" target="_top" xlink:title="Disconnects the underlying Pokit device, and sets exitCode to be return to the OS once the disconnect...">
<polygon fill="white" stroke="#666666" points="503,-216 344,-216 344,-197 503,-197 503,-216"/>
<text text-anchor="middle" x="423.5" y="-204" font-family="Helvetica,sans-Serif" font-size="10.00">DeviceCommand::disconnect</text>
</a>
</g>
</g>
<!-- Node10&#45;&gt;Node12 -->
<g id="edge13_Node000010_Node000012" class="edge">
<title>Node10&#45;&gt;Node12</title>
<g id="a_edge13_Node000010_Node000012"><a xlink:title=" ">
<path fill="none" stroke="#63b8ff" d="M293.17,-219.33C306.81,-217.98 321.49,-216.52 335.89,-215.09"/>
<polygon fill="#63b8ff" stroke="#63b8ff" points="343.85,-214.3 336.25,-218.68 339.87,-214.7 335.89,-215.09 335.89,-215.09 335.89,-215.09 339.87,-214.7 335.54,-211.51 343.85,-214.3 343.85,-214.3"/>
</a>
</g>
</g>
<!-- Node19 -->
<g id="Node000019" class="node">
<title>Node19</title>
<g id="a_Node000019"><a target="_parent" xlink:href="https://doc.qt.io/qt-5/qstring.html#fromLatin1" xlink:title=" ">
<polygon fill="white" stroke="#666666" points="479.5,-142 367.5,-142 367.5,-123 479.5,-123 479.5,-142"/>
<text text-anchor="middle" x="423.5" y="-130" font-family="Helvetica,sans-Serif" font-size="10.00">QString::fromLatin1</text>
</a>
</g>
</g>
<!-- Node10&#45;&gt;Node19 -->
<g id="edge22_Node000010_Node000019" class="edge">
<title>Node10&#45;&gt;Node19</title>
<g id="a_edge22_Node000010_Node000019"><a xlink:title=" ">
<path fill="none" stroke="#63b8ff" d="M247.09,-210.32C266.26,-193.1 299.99,-165.48 334,-150.5 341.91,-147.02 350.52,-144.2 359.15,-141.92"/>
<polygon fill="#63b8ff" stroke="#63b8ff" points="367.07,-139.98 360.16,-145.38 363.19,-140.93 359.3,-141.88 359.3,-141.88 359.3,-141.88 363.19,-140.93 358.45,-138.39 367.07,-139.98 367.07,-139.98"/>
</a>
</g>
</g>
<!-- Node20 -->
<g id="Node000020" class="node">
<title>Node20</title>
<g id="a_Node000020"><a target="_parent" xlink:href="https://doc.qt.io/qt-5/qdatetime.html#fromMSecsSinceEpoch" xlink:title=" ">
<polygon fill="white" stroke="#666666" points="503,-104.5 344,-104.5 344,-74.5 503,-74.5 503,-104.5"/>
<text text-anchor="start" x="352" y="-92.5" font-family="Helvetica,sans-Serif" font-size="10.00">QDateTime::fromMSecsSince</text>
<text text-anchor="middle" x="423.5" y="-81.5" font-family="Helvetica,sans-Serif" font-size="10.00">Epoch</text>
</a>
</g>
</g>
<!-- Node10&#45;&gt;Node20 -->
<g id="edge23_Node000010_Node000020" class="edge">
<title>Node10&#45;&gt;Node20</title>
<g id="a_edge23_Node000010_Node000020"><a xlink:title=" ">
<path fill="none" stroke="#63b8ff" d="M240.74,-210.29C257.04,-186.07 292.23,-138.88 334,-113.5 337.31,-111.49 340.79,-109.64 344.38,-107.95"/>
<polygon fill="#63b8ff" stroke="#63b8ff" points="351.89,-104.68 345.99,-111.17 348.22,-106.28 344.55,-107.87 344.55,-107.87 344.55,-107.87 348.22,-106.28 343.11,-104.57 351.89,-104.68 351.89,-104.68"/>
</a>
</g>
</g>
<!-- Node21 -->
<g id="Node000021" class="node">
<title>Node21</title>
<g id="a_Node000021"><a target="_parent" xlink:href="https://doc.qt.io/qt-5/qstring.html#fromUtf8" xlink:title=" ">
<polygon fill="white" stroke="#666666" points="475,-56 372,-56 372,-37 475,-37 475,-56"/>
<text text-anchor="middle" x="423.5" y="-44" font-family="Helvetica,sans-Serif" font-size="10.00">QString::fromUtf8</text>
</a>
</g>
</g>
<!-- Node10&#45;&gt;Node21 -->
<g id="edge24_Node000010_Node000021" class="edge">
<title>Node10&#45;&gt;Node21</title>
<g id="a_edge24_Node000010_Node000021"><a xlink:title=" ">
<path fill="none" stroke="#63b8ff" d="M236.18,-210.31C248.01,-178.07 280.2,-102.71 334,-65.5 342.86,-59.37 353.31,-55.17 363.88,-52.29"/>
<polygon fill="#63b8ff" stroke="#63b8ff" points="371.96,-50.34 365.03,-55.71 368.07,-51.28 364.18,-52.22 364.18,-52.22 364.18,-52.22 368.07,-51.28 363.33,-48.72 371.96,-50.34 371.96,-50.34"/>
</a>
</g>
</g>
<!-- Node22 -->
<g id="Node000022" class="node">
<title>Node22</title>
<g id="a_Node000022"><a target="_parent" xlink:href="https://doc.qt.io/qt-5/qstring.html#isEmpty" xlink:title=" ">
<polygon fill="white" stroke="#666666" points="472.5,-19 374.5,-19 374.5,0 472.5,0 472.5,-19"/>
<text text-anchor="middle" x="423.5" y="-7" font-family="Helvetica,sans-Serif" font-size="10.00">QString::isEmpty</text>
</a>
</g>
</g>
<!-- Node10&#45;&gt;Node22 -->
<g id="edge25_Node000010_Node000022" class="edge">
<title>Node10&#45;&gt;Node22</title>
<g id="a_edge25_Node000010_Node000022"><a xlink:title=" ">
<path fill="none" stroke="#63b8ff" d="M234.15,-210.48C242.81,-173.04 270.72,-75.19 334,-27.5 343.36,-20.45 354.8,-15.98 366.3,-13.18"/>
<polygon fill="#63b8ff" stroke="#63b8ff" points="374.26,-11.51 367.17,-16.68 370.34,-12.33 366.43,-13.16 366.43,-13.16 366.43,-13.16 370.34,-12.33 365.69,-9.63 374.26,-11.51 374.26,-11.51"/>
</a>
</g>
</g>
<!-- Node23 -->
<g id="Node000023" class="node">
<title>Node23</title>
<g id="a_Node000023"><a target="_parent" xlink:href="https://doc.qt.io/qt-5/qstring.html#number-1" xlink:title=" ">
<polygon fill="white" stroke="#666666" points="471.5,-327 375.5,-327 375.5,-308 471.5,-308 471.5,-327"/>
<text text-anchor="middle" x="423.5" y="-315" font-family="Helvetica,sans-Serif" font-size="10.00">QString::number</text>
</a>
</g>
</g>
<!-- Node10&#45;&gt;Node23 -->
<g id="edge26_Node000010_Node000023" class="edge">
<title>Node10&#45;&gt;Node23</title>
<g id="a_edge26_Node000010_Node000023"><a xlink:title=" ">
<path fill="none" stroke="#63b8ff" d="M247.89,-240.8C267.27,-257.51 300.69,-283.86 334,-298.5 344.52,-303.12 356.25,-306.66 367.64,-309.34"/>
<polygon fill="#63b8ff" stroke="#63b8ff" points="375.46,-311.07 366.87,-312.86 371.55,-310.21 367.65,-309.34 367.65,-309.34 367.65,-309.34 371.55,-310.21 368.42,-305.83 375.46,-311.07 375.46,-311.07"/>
</a>
</g>
</g>
<!-- Node24 -->
<g id="Node000024" class="node">
<title>Node24</title>
<g id="a_Node000024"><a target="_parent" xlink:href="https://doc.qt.io/qt-5/qjsondocument.html#QJsonDocument" xlink:title=" ">
<polygon fill="white" stroke="#666666" points="513,-290 334,-290 334,-271 513,-271 513,-290"/>
<text text-anchor="middle" x="423.5" y="-278" font-family="Helvetica,sans-Serif" font-size="10.00">QJsonDocument::QJsonDocument</text>
</a>
</g>
</g>
<!-- Node10&#45;&gt;Node24 -->
<g id="edge27_Node000010_Node000024" class="edge">
<title>Node10&#45;&gt;Node24</title>
<g id="a_edge27_Node000010_Node000024"><a xlink:title=" ">
<path fill="none" stroke="#63b8ff" d="M270.25,-240.51C289.31,-247.47 312.66,-255.51 334,-261.5 343.89,-264.28 354.49,-266.87 364.8,-269.2"/>
<polygon fill="#63b8ff" stroke="#63b8ff" points="372.62,-270.93 364.03,-272.72 368.71,-270.07 364.81,-269.2 364.81,-269.2 364.81,-269.2 368.71,-270.07 365.58,-265.69 372.62,-270.93 372.62,-270.93"/>
</a>
</g>
</g>
<!-- Node25 -->
<g id="Node000025" class="node">
<title>Node25</title>
<g id="a_Node000025"><a target="_parent" xlink:href="https://doc.qt.io/qt-5/qdatetime.html#toString-1" xlink:title=" ">
<polygon fill="white" stroke="#666666" points="481.5,-253 365.5,-253 365.5,-234 481.5,-234 481.5,-253"/>
<text text-anchor="middle" x="423.5" y="-241" font-family="Helvetica,sans-Serif" font-size="10.00">QDateTime::toString</text>
</a>
</g>
</g>
<!-- Node10&#45;&gt;Node25 -->
<g id="edge29_Node000010_Node000025" class="edge">
<title>Node10&#45;&gt;Node25</title>
<g id="a_edge29_Node000010_Node000025"><a xlink:title=" ">
<path fill="none" stroke="#63b8ff" d="M293.17,-231.34C313.71,-233.27 336.61,-235.43 357.36,-237.38"/>
<polygon fill="#63b8ff" stroke="#63b8ff" points="365.5,-238.14 357.2,-240.98 361.52,-237.77 357.53,-237.39 357.53,-237.39 357.53,-237.39 361.52,-237.77 357.87,-233.81 365.5,-238.14 365.5,-238.14"/>
</a>
</g>
</g>
<!-- Node12&#45;&gt;Node9 -->
<g id="edge21_Node000012_Node000009" class="edge">
<title>Node12&#45;&gt;Node9</title>
<g id="a_edge21_Node000012_Node000009"><a xlink:title=" ">
<path fill="none" stroke="#63b8ff" d="M498.71,-216.17C503.79,-218.44 508.63,-221.19 513,-224.5 540.89,-245.62 528.17,-266.4 549,-294.5 562.72,-313.01 581.96,-331 596.13,-343.17"/>
<polygon fill="#63b8ff" stroke="#63b8ff" points="602.63,-348.65 594.19,-346.24 599.57,-346.07 596.51,-343.49 596.51,-343.49 596.51,-343.49 599.57,-346.07 598.83,-340.74 602.63,-348.65 602.63,-348.65"/>
</a>
</g>
</g>
<!-- Node13 -->
<g id="Node000013" class="node">
<title>Node13</title>
<g id="a_Node000013"><a xlink:href="classPokitDevice.html#a2e2fb6b30e6f5f0d7bc6cd8f806d6423" target="_top" xlink:title="Returns a non&#45;const pointer to the controller used to access the Pokit device.">
<polygon fill="white" stroke="#666666" points="680,-286 552,-286 552,-267 680,-267 680,-286"/>
<text text-anchor="middle" x="616" y="-274" font-family="Helvetica,sans-Serif" font-size="10.00">PokitDevice::controller</text>
</a>
</g>
</g>
<!-- Node12&#45;&gt;Node13 -->
<g id="edge14_Node000012_Node000013" class="edge">
<title>Node12&#45;&gt;Node13</title>
<g id="a_edge14_Node000012_Node000013"><a xlink:title=" ">
<path fill="none" stroke="#63b8ff" d="M483.19,-216.1C493.26,-218.41 503.53,-221.19 513,-224.5 541.58,-234.48 572.25,-250.99 592.42,-262.73"/>
<polygon fill="#63b8ff" stroke="#63b8ff" points="599.35,-266.82 590.63,-265.85 595.9,-264.78 592.45,-262.75 592.45,-262.75 592.45,-262.75 595.9,-264.78 594.28,-259.65 599.35,-266.82 599.35,-266.82"/>
</a>
</g>
</g>
<!-- Node18 -->
<g id="Node000018" class="node">
<title>Node18</title>
<g id="a_Node000018"><a target="_parent" xlink:href="https://doc.qt.io/qt-5/qlowenergycontroller.html#disconnectFromDevice" xlink:title=" ">
<polygon fill="white" stroke="#666666" points="683,-221.5 549,-221.5 549,-191.5 683,-191.5 683,-221.5"/>
<text text-anchor="start" x="557" y="-209.5" font-family="Helvetica,sans-Serif" font-size="10.00">QLowEnergyController</text>
<text text-anchor="middle" x="616" y="-198.5" font-family="Helvetica,sans-Serif" font-size="10.00">::disconnectFromDevice</text>
</a>
</g>
</g>
<!-- Node12&#45;&gt;Node18 -->
<g id="edge20_Node000012_Node000018" class="edge">
<title>Node12&#45;&gt;Node18</title>
<g id="a_edge20_Node000012_Node000018"><a xlink:title=" ">
<path fill="none" stroke="#63b8ff" d="M503.08,-206.5C515.53,-206.5 528.36,-206.5 540.7,-206.5"/>
<polygon fill="#63b8ff" stroke="#63b8ff" points="548.73,-206.5 540.73,-210.1 544.73,-206.5 540.73,-206.5 540.73,-206.5 540.73,-206.5 544.73,-206.5 540.73,-202.9 548.73,-206.5 548.73,-206.5"/>
</a>
</g>
</g>
<!-- Node14 -->
<g id="Node000014" class="node">
<title>Node14</title>
<g id="a_Node000014"><a xlink:href="classPokitDevice.html#a3f88c7ddb9ab6182a4b52dcb31fa0ac2" target="_top" xlink:title="Constructs a new Pokit device controller wrapper for deviceInfo, with parent.">
<polygon fill="white" stroke="#666666" points="863,-357 723,-357 723,-338 863,-338 863,-357"/>
<text text-anchor="middle" x="793" y="-345" font-family="Helvetica,sans-Serif" font-size="10.00">PokitDevice::PokitDevice</text>
</a>
</g>
</g>
<!-- Node13&#45;&gt;Node14 -->
<g id="edge15_Node000013_Node000014" class="edge">
<title>Node13&#45;&gt;Node14</title>
<g id="a_edge15_Node000013_Node000014"><a xlink:title=" ">
<path fill="none" stroke="#63b8ff" d="M640.6,-286.08C671.74,-298.71 726.62,-320.97 761.05,-334.94"/>
<polygon fill="#63b8ff" stroke="#63b8ff" points="768.49,-337.96 759.73,-338.29 764.79,-336.46 761.08,-334.96 761.08,-334.96 761.08,-334.96 764.79,-336.46 762.43,-331.62 768.49,-337.96 768.49,-337.96"/>
</a>
</g>
</g>
<!-- Node14&#45;&gt;Node14 -->
<g id="edge18_Node000014_Node000014" class="edge">
<title>Node14&#45;&gt;Node14</title>
<g id="a_edge18_Node000014_Node000014"><a xlink:title=" ">
<path fill="none" stroke="#63b8ff" d="M766.49,-357.08C753.59,-365.73 762.43,-375 793,-375 816.41,-375 827.07,-369.57 825,-363.14"/>
<polygon fill="#63b8ff" stroke="#63b8ff" points="819.51,-357.08 827.55,-360.6 822.2,-360.05 824.88,-363.01 824.88,-363.01 824.88,-363.01 822.2,-360.05 822.21,-365.43 819.51,-357.08 819.51,-357.08"/>
</a>
</g>
</g>
<!-- Node15 -->
<g id="Node000015" class="node">
<title>Node15</title>
<g id="a_Node000015"><a target="_parent" xlink:href="https://doc.qt.io/qt-5/qlowenergycontroller.html#createCentral" xlink:title=" ">
<polygon fill="white" stroke="#666666" points="1028,-362.5 903,-362.5 903,-332.5 1028,-332.5 1028,-362.5"/>
<text text-anchor="start" x="911" y="-350.5" font-family="Helvetica,sans-Serif" font-size="10.00">QLowEnergyController</text>
<text text-anchor="middle" x="965.5" y="-339.5" font-family="Helvetica,sans-Serif" font-size="10.00">::createCentral</text>
</a>
</g>
</g>
<!-- Node14&#45;&gt;Node15 -->
<g id="edge16_Node000014_Node000015" class="edge">
<title>Node14&#45;&gt;Node15</title>
<g id="a_edge16_Node000014_Node000015"><a xlink:title=" ">
<path fill="none" stroke="#63b8ff" d="M863.35,-347.5C873.68,-347.5 884.33,-347.5 894.67,-347.5"/>
<polygon fill="#63b8ff" stroke="#63b8ff" points="902.89,-347.5 894.89,-351.1 898.89,-347.5 894.89,-347.5 894.89,-347.5 894.89,-347.5 898.89,-347.5 894.89,-343.9 902.89,-347.5 902.89,-347.5"/>
</a>
</g>
</g>
<!-- Node16 -->
<g id="Node000016" class="node">
<title>Node16</title>
<g id="a_Node000016"><a target="_parent" xlink:href="https://doc.qt.io/qt-5/qobject.html#parent" xlink:title=" ">
<polygon fill="white" stroke="#666666" points="1012,-494 919,-494 919,-475 1012,-475 1012,-494"/>
<text text-anchor="middle" x="965.5" y="-482" font-family="Helvetica,sans-Serif" font-size="10.00">QObject::parent</text>
</a>
</g>
</g>
<!-- Node14&#45;&gt;Node16 -->
<g id="edge17_Node000014_Node000016" class="edge">
<title>Node14&#45;&gt;Node16</title>
<g id="a_edge17_Node000014_Node000016"><a xlink:title=" ">
<path fill="none" stroke="#63b8ff" d="M805.99,-357.13C835.27,-380.66 910.58,-441.18 945.81,-469.48"/>
<polygon fill="#63b8ff" stroke="#63b8ff" points="952.3,-474.69 943.8,-472.49 949.18,-472.19 946.06,-469.68 946.06,-469.68 946.06,-469.68 949.18,-472.19 948.31,-466.88 952.3,-474.69 952.3,-474.69"/>
</a>
</g>
</g>
<!-- Node17 -->
<g id="Node000017" class="node">
<title>Node17</title>
<g id="a_Node000017"><a target="_parent" xlink:href="https://doc.qt.io/qt-5/qobject.html#QObject" xlink:title=" ">
<polygon fill="white" stroke="#666666" points="1016,-413 915,-413 915,-394 1016,-394 1016,-413"/>
<text text-anchor="middle" x="965.5" y="-401" font-family="Helvetica,sans-Serif" font-size="10.00">QObject::QObject</text>
</a>
</g>
</g>
<!-- Node14&#45;&gt;Node17 -->
<g id="edge19_Node000014_Node000017" class="edge">
<title>Node14&#45;&gt;Node17</title>
<g id="a_edge19_Node000014_Node000017"><a xlink:title=" ">
<path fill="none" stroke="#63b8ff" d="M823.31,-357.13C852.28,-366.64 896.67,-381.22 927.93,-391.49"/>
<polygon fill="#63b8ff" stroke="#63b8ff" points="935.57,-394 926.85,-394.92 931.77,-392.75 927.97,-391.5 927.97,-391.5 927.97,-391.5 931.77,-392.75 929.1,-388.08 935.57,-394 935.57,-394"/>
</a>
</g>
</g>
<!-- Node26&#45;&gt;Node16 -->
<g id="edge35_Node000026_Node000016" class="edge">
<title>Node26&#45;&gt;Node16</title>
<g id="a_edge35_Node000026_Node000016"><a xlink:title=" ">
<path fill="none" stroke="#63b8ff" d="M670.58,-499.56C686.08,-503.24 703.1,-506.65 719,-508.5 784.34,-516.08 801.7,-516.42 867,-508.5 886.66,-506.12 908.07,-501.12 925.81,-496.3"/>
<polygon fill="#63b8ff" stroke="#63b8ff" points="933.68,-494.11 926.94,-499.73 929.83,-495.18 925.97,-496.26 925.97,-496.26 925.97,-496.26 929.83,-495.18 925.01,-492.79 933.68,-494.11 933.68,-494.11"/>
</a>
</g>
</g>
<!-- Node26&#45;&gt;Node17 -->
<g id="edge37_Node000026_Node000017" class="edge">
<title>Node26&#45;&gt;Node17</title>
<g id="a_edge37_Node000026_Node000017"><a xlink:title=" ">
<path fill="none" stroke="#63b8ff" d="M635.59,-469.45C655.09,-454.62 687.24,-432.73 719,-422.5 780.86,-402.57 855.83,-399.61 906.53,-400.49"/>
<polygon fill="#63b8ff" stroke="#63b8ff" points="914.76,-400.67 906.68,-404.1 910.76,-400.59 906.76,-400.5 906.76,-400.5 906.76,-400.5 910.76,-400.59 906.84,-396.9 914.76,-400.67 914.76,-400.67"/>
</a>
</g>
</g>
<!-- Node27 -->
<g id="Node000027" class="node">
<title>Node27</title>
<g id="a_Node000027"><a xlink:href="classDataLoggerService.html#a1c2155abba340d49fc39bfa49ed59a6c" target="_top" xlink:title="Constructs a new Pokit service with parent.">
<polygon fill="white" stroke="#666666" points="850.5,-499.5 735.5,-499.5 735.5,-469.5 850.5,-469.5 850.5,-499.5"/>
<text text-anchor="start" x="743.5" y="-487.5" font-family="Helvetica,sans-Serif" font-size="10.00">DataLoggerService::</text>
<text text-anchor="middle" x="793" y="-476.5" font-family="Helvetica,sans-Serif" font-size="10.00">DataLoggerService</text>
</a>
</g>
</g>
<!-- Node26&#45;&gt;Node27 -->
<g id="edge32_Node000026_Node000027" class="edge">
<title>Node26&#45;&gt;Node27</title>
<g id="a_edge32_Node000026_Node000027"><a xlink:title=" ">
<path fill="none" stroke="#63b8ff" d="M673.82,-484.5C690.8,-484.5 709.55,-484.5 727.01,-484.5"/>
<polygon fill="#63b8ff" stroke="#63b8ff" points="735.47,-484.5 727.47,-488.1 731.47,-484.5 727.47,-484.5 727.47,-484.5 727.47,-484.5 731.47,-484.5 727.47,-480.9 735.47,-484.5 735.47,-484.5"/>
</a>
</g>
</g>
<!-- Node28 -->
<g id="Node000028" class="node">
<title>Node28</title>
<g id="a_Node000028"><a target="_parent" xlink:href="https://doc.qt.io/qt-5/qobject.html#Q_DISABLE_COPY" xlink:title=" ">
<polygon fill="white" stroke="#666666" points="867,-451 719,-451 719,-432 867,-432 867,-451"/>
<text text-anchor="middle" x="793" y="-439" font-family="Helvetica,sans-Serif" font-size="10.00">QObject::Q_DISABLE_COPY</text>
</a>
</g>
</g>
<!-- Node26&#45;&gt;Node28 -->
<g id="edge36_Node000026_Node000028" class="edge">
<title>Node26&#45;&gt;Node28</title>
<g id="a_edge36_Node000026_Node000028"><a xlink:title=" ">
<path fill="none" stroke="#63b8ff" d="M673.82,-470.54C696.93,-464.86 723.31,-458.38 745.27,-452.98"/>
<polygon fill="#63b8ff" stroke="#63b8ff" points="753.15,-451.05 746.24,-456.45 749.27,-452 745.38,-452.95 745.38,-452.95 745.38,-452.95 749.27,-452 744.52,-449.46 753.15,-451.05 753.15,-451.05"/>
</a>
</g>
</g>
<!-- Node27&#45;&gt;Node16 -->
<g id="edge33_Node000027_Node000016" class="edge">
<title>Node27&#45;&gt;Node16</title>
<g id="a_edge33_Node000027_Node000016"><a xlink:title=" ">
<path fill="none" stroke="#63b8ff" d="M850.77,-484.5C870.1,-484.5 891.63,-484.5 910.72,-484.5"/>
<polygon fill="#63b8ff" stroke="#63b8ff" points="918.73,-484.5 910.73,-488.1 914.73,-484.5 910.73,-484.5 910.73,-484.5 910.73,-484.5 914.73,-484.5 910.73,-480.9 918.73,-484.5 918.73,-484.5"/>
</a>
</g>
</g>
<!-- Node27&#45;&gt;Node17 -->
<g id="edge34_Node000027_Node000017" class="edge">
<title>Node27&#45;&gt;Node17</title>
<g id="a_edge34_Node000027_Node000017"><a xlink:title=" ">
<path fill="none" stroke="#63b8ff" d="M842.42,-469.38C850.72,-466.37 859.19,-463.04 867,-459.5 894.12,-447.21 923.53,-429.69 942.88,-417.53"/>
<polygon fill="#63b8ff" stroke="#63b8ff" points="949.77,-413.15 944.95,-420.48 946.4,-415.3 943.02,-417.44 943.02,-417.44 943.02,-417.44 946.4,-415.3 941.09,-414.4 949.77,-413.15 949.77,-413.15"/>
</a>
</g>
</g>
</g>
</svg>
