<?xml version="1.0" encoding="UTF-8" standalone="no"?>
<!DOCTYPE svg PUBLIC "-//W3C//DTD SVG 1.1//EN"
 "http://www.w3.org/Graphics/SVG/1.1/DTD/svg11.dtd">
<!-- Generated by graphviz version 2.43.0 (0)
 -->
<!-- Title: StatusCommand Pages: 1 -->
<svg width="799pt" height="219pt"
 viewBox="0.00 0.00 799.39 219.00" xmlns="http://www.w3.org/2000/svg" xmlns:xlink="http://www.w3.org/1999/xlink">
<g id="graph0" class="graph" transform="scale(1 1) rotate(0) translate(4 215)">
<title>StatusCommand</title>
<!-- Node1 -->
<g id="node1" class="node">
<title>Node1</title>
<g id="a_node1"><a xlink:title="The StatusCommand class implements the status CLI command.">
<polygon fill="#bfbfbf" stroke="black" points="106.5,-0.5 106.5,-19.5 204.5,-19.5 204.5,-0.5 106.5,-0.5"/>
<text text-anchor="middle" x="155.5" y="-7.5" font-family="Helvetica,sans-Serif" font-size="10.00">StatusCommand</text>
</a>
</g>
</g>
<!-- Node2 -->
<g id="node2" class="node">
<title>Node2</title>
<g id="a_node2"><a xlink:href="classDeviceCommand.html" target="_top" xlink:title="The AbstractCommand class extends AbstractCommand to add a PokitDevice instance.">
<polygon fill="none" stroke="black" points="0,-67.5 0,-86.5 101,-86.5 101,-67.5 0,-67.5"/>
<text text-anchor="middle" x="50.5" y="-74.5" font-family="Helvetica,sans-Serif" font-size="10.00">DeviceCommand</text>
</a>
</g>
</g>
<!-- Node2&#45;&gt;Node1 -->
<g id="edge1" class="edge">
<title>Node2&#45;&gt;Node1</title>
<path fill="none" stroke="midnightblue" d="M73.21,-61.94C94,-49.07 124.12,-30.43 141.56,-19.63"/>
<polygon fill="midnightblue" stroke="midnightblue" points="71.32,-58.99 64.66,-67.23 75.01,-64.95 71.32,-58.99"/>
</g>
<!-- Node3 -->
<g id="node3" class="node">
<title>Node3</title>
<g id="a_node3"><a xlink:href="classAbstractCommand.html" target="_top" xlink:title="The AbstractCommand class provides a consistent base for the classes that implement CLI commands.">
<polygon fill="none" stroke="black" points="9,-134.5 9,-153.5 116,-153.5 116,-134.5 9,-134.5"/>
<text text-anchor="middle" x="62.5" y="-141.5" font-family="Helvetica,sans-Serif" font-size="10.00">AbstractCommand</text>
</a>
</g>
</g>
<!-- Node3&#45;&gt;Node2 -->
<g id="edge2" class="edge">
<title>Node3&#45;&gt;Node2</title>
<path fill="none" stroke="midnightblue" d="M59,-124.04C56.72,-111.67 53.85,-96.12 52.09,-86.63"/>
<polygon fill="midnightblue" stroke="midnightblue" points="55.62,-125.04 60.88,-134.23 62.51,-123.76 55.62,-125.04"/>
</g>
<!-- Node4 -->
<g id="node4" class="node">
<title>Node4</title>
<g id="a_node4"><a xlink:title=" ">
<polygon fill="none" stroke="#bfbfbf" points="445.5,-191.5 445.5,-210.5 501.5,-210.5 501.5,-191.5 445.5,-191.5"/>
<text text-anchor="middle" x="473.5" y="-198.5" font-family="Helvetica,sans-Serif" font-size="10.00">QObject</text>
</a>
</g>
</g>
<!-- Node4&#45;&gt;Node3 -->
<g id="edge3" class="edge">
<title>Node4&#45;&gt;Node3</title>
<path fill="none" stroke="midnightblue" d="M435.04,-194.85C361.39,-185 200.32,-163.44 116.15,-152.18"/>
<polygon fill="midnightblue" stroke="midnightblue" points="434.87,-198.36 445.25,-196.22 435.8,-191.42 434.87,-198.36"/>
</g>
<!-- Node5 -->
<g id="node5" class="node">
<title>Node5</title>
<g id="a_node5"><a xlink:href="classPokitDevice.html" target="_top" xlink:title="The PokitDevice class simplifies Pokit device access.">
<polygon fill="none" stroke="black" points="154,-134.5 154,-153.5 229,-153.5 229,-134.5 154,-134.5"/>
<text text-anchor="middle" x="191.5" y="-141.5" font-family="Helvetica,sans-Serif" font-size="10.00">PokitDevice</text>
</a>
</g>
</g>
<!-- Node4&#45;&gt;Node5 -->
<g id="edge5" class="edge">
<title>Node4&#45;&gt;Node5</title>
<path fill="none" stroke="midnightblue" d="M435.57,-192.6C381.57,-182.07 283.12,-162.87 229.23,-152.36"/>
<polygon fill="midnightblue" stroke="midnightblue" points="434.94,-196.05 445.43,-194.53 436.28,-189.18 434.94,-196.05"/>
</g>
<!-- Node6 -->
<g id="node6" class="node">
<title>Node6</title>
<g id="a_node6"><a xlink:href="classPokitDevicePrivate.html" target="_top" xlink:title="The PokitDevicePrivate class provides private implementation for PokitDevice.">
<polygon fill="none" stroke="black" points="265.5,-0.5 265.5,-19.5 375.5,-19.5 375.5,-0.5 265.5,-0.5"/>
<text text-anchor="middle" x="320.5" y="-7.5" font-family="Helvetica,sans-Serif" font-size="10.00">PokitDevicePrivate</text>
</a>
</g>
</g>
<!-- Node4&#45;&gt;Node6 -->
<g id="edge7" class="edge">
<title>Node4&#45;&gt;Node6</title>
<path fill="none" stroke="midnightblue" d="M511.75,-197.15C609.09,-188.51 853.26,-157.44 776.5,-67 750.92,-36.86 491.49,-19.82 375.74,-13.66"/>
<polygon fill="midnightblue" stroke="midnightblue" points="511.38,-193.67 501.71,-198 511.98,-200.64 511.38,-193.67"/>
</g>
<!-- Node8 -->
<g id="node8" class="node">
<title>Node8</title>
<g id="a_node8"><a xlink:href="classAbstractPokitService.html" target="_top" xlink:title="The AbstractPokitService class provides a common base for Pokit services classes.">
<polygon fill="none" stroke="black" points="414.5,-134.5 414.5,-153.5 532.5,-153.5 532.5,-134.5 414.5,-134.5"/>
<text text-anchor="middle" x="473.5" y="-141.5" font-family="Helvetica,sans-Serif" font-size="10.00">AbstractPokitService</text>
</a>
</g>
</g>
<!-- Node4&#45;&gt;Node8 -->
<g id="edge10" class="edge">
<title>Node4&#45;&gt;Node8</title>
<path fill="none" stroke="midnightblue" d="M473.5,-181.12C473.5,-171.82 473.5,-161.06 473.5,-153.71"/>
<polygon fill="midnightblue" stroke="midnightblue" points="470,-181.41 473.5,-191.41 477,-181.41 470,-181.41"/>
</g>
<!-- Node9 -->
<g id="node9" class="node">
<title>Node9</title>
<g id="a_node9"><a xlink:href="classAbstractPokitServicePrivate.html" target="_top" xlink:title="The AbstractPokitServicePrivate class provides private implementation for AbstractPokitService.">
<polygon fill="none" stroke="black" points="491.5,-67.5 491.5,-86.5 643.5,-86.5 643.5,-67.5 491.5,-67.5"/>
<text text-anchor="middle" x="567.5" y="-74.5" font-family="Helvetica,sans-Serif" font-size="10.00">AbstractPokitServicePrivate</text>
</a>
</g>
</g>
<!-- Node4&#45;&gt;Node9 -->
<g id="edge12" class="edge">
<title>Node4&#45;&gt;Node9</title>
<path fill="none" stroke="midnightblue" d="M501.53,-186.56C515.24,-178.74 531.02,-167.71 541.5,-154 557.43,-133.17 563.98,-101.95 566.34,-86.83"/>
<polygon fill="midnightblue" stroke="midnightblue" points="499.59,-183.62 492.45,-191.45 502.91,-189.79 499.59,-183.62"/>
</g>
<!-- Node5&#45;&gt;Node2 -->
<g id="edge4" class="edge">
<title>Node5&#45;&gt;Node2</title>
<path fill="none" stroke="#9a32cd" stroke-dasharray="5,2" d="M143.56,-136.23C125.16,-132.21 104.51,-125.88 87.5,-116 74.6,-108.51 63.21,-95.28 56.59,-86.58"/>
<polygon fill="#9a32cd" stroke="#9a32cd" points="143.02,-139.69 153.51,-138.23 144.4,-132.82 143.02,-139.69"/>
<text text-anchor="middle" x="105.5" y="-108" font-family="Helvetica,sans-Serif" font-size="10.00"> device</text>
</g>
<!-- Node5&#45;&gt;Node6 -->
<g id="edge18" class="edge">
<title>Node5&#45;&gt;Node6</title>
<path fill="none" stroke="#9a32cd" stroke-dasharray="5,2" d="M191.92,-124.34C193.21,-107.68 197.42,-83.43 210.5,-67 229.99,-42.52 263.03,-27.75 287.82,-19.58"/>
<polygon fill="#9a32cd" stroke="#9a32cd" points="188.42,-124.32 191.43,-134.48 195.41,-124.66 188.42,-124.32"/>
<text text-anchor="middle" x="224.5" y="-74.5" font-family="Helvetica,sans-Serif" font-size="10.00"> q_ptr</text>
</g>
<!-- Node6&#45;&gt;Node5 -->
<g id="edge6" class="edge">
<title>Node6&#45;&gt;Node5</title>
<path fill="none" stroke="#9a32cd" stroke-dasharray="5,2" d="M255.3,-13.29C217.45,-18.52 173.1,-32.32 151.5,-67 136.84,-90.54 164.6,-119.99 180.87,-134.34"/>
<polygon fill="#9a32cd" stroke="#9a32cd" points="255.76,-16.76 265.27,-12.08 254.92,-9.81 255.76,-16.76"/>
<text text-anchor="middle" x="165.5" y="-74.5" font-family="Helvetica,sans-Serif" font-size="10.00"> d_ptr</text>
</g>
<!-- Node7 -->
<g id="node7" class="node">
<title>Node7</title>
<g id="a_node7"><a xlink:href="classDeviceInfoService.html" target="_top" xlink:title="The DeviceInfoService class accesses the Device Info service of Pokit devices.">
<polygon fill="none" stroke="black" points="662,-67.5 662,-86.5 767,-86.5 767,-67.5 662,-67.5"/>
<text text-anchor="middle" x="714.5" y="-74.5" font-family="Helvetica,sans-Serif" font-size="10.00">DeviceInfoService</text>
</a>
</g>
</g>
<!-- Node7&#45;&gt;Node6 -->
<g id="edge8" class="edge">
<title>Node7&#45;&gt;Node6</title>
<path fill="none" stroke="#9a32cd" stroke-dasharray="5,2" d="M652.51,-65.77C575.18,-53.02 444.4,-31.44 372.22,-19.53"/>
<polygon fill="#9a32cd" stroke="#9a32cd" points="652.15,-69.26 662.59,-67.44 653.29,-62.35 652.15,-69.26"/>
<text text-anchor="middle" x="569" y="-41" font-family="Helvetica,sans-Serif" font-size="10.00"> deviceInfo</text>
</g>
<!-- Node8&#45;&gt;Node7 -->
<g id="edge9" class="edge">
<title>Node8&#45;&gt;Node7</title>
<path fill="none" stroke="midnightblue" d="M515.2,-131.75C562.84,-118.91 639.73,-98.17 682.75,-86.56"/>
<polygon fill="midnightblue" stroke="midnightblue" points="514.25,-128.39 505.5,-134.37 516.07,-135.14 514.25,-128.39"/>
</g>
<!-- Node8&#45;&gt;Node9 -->
<g id="edge13" class="edge">
<title>Node8&#45;&gt;Node9</title>
<path fill="none" stroke="#9a32cd" stroke-dasharray="5,2" d="M493.08,-128.27C502.74,-121.11 514.63,-112.46 525.5,-105 534.79,-98.63 545.48,-91.76 553.75,-86.55"/>
<polygon fill="#9a32cd" stroke="#9a32cd" points="490.85,-125.56 484.92,-134.35 495.03,-131.18 490.85,-125.56"/>
<text text-anchor="middle" x="539.5" y="-108" font-family="Helvetica,sans-Serif" font-size="10.00"> q_ptr</text>
</g>
<!-- Node10 -->
<g id="node10" class="node">
<title>Node10</title>
<g id="a_node10"><a xlink:href="classGenericAccessService.html" target="_top" xlink:title="The GenericAccessService class accesses the Generic Access service of Pokit devices.">
<polygon fill="none" stroke="black" points="349.5,-67.5 349.5,-86.5 473.5,-86.5 473.5,-67.5 349.5,-67.5"/>
<text text-anchor="middle" x="411.5" y="-74.5" font-family="Helvetica,sans-Serif" font-size="10.00">GenericAccessService</text>
</a>
</g>
</g>
<!-- Node8&#45;&gt;Node10 -->
<g id="edge15" class="edge">
<title>Node8&#45;&gt;Node10</title>
<path fill="none" stroke="midnightblue" d="M458.24,-127C446.08,-114.25 429.52,-96.89 419.73,-86.63"/>
<polygon fill="midnightblue" stroke="midnightblue" points="455.7,-129.41 465.14,-134.23 460.77,-124.58 455.7,-129.41"/>
</g>
<!-- Node11 -->
<g id="node11" class="node">
<title>Node11</title>
<g id="a_node11"><a xlink:href="classStatusService.html" target="_top" xlink:title="The StatusService class accesses the Pokit Status service of Pokit devices.">
<polygon fill="none" stroke="black" points="248,-67.5 248,-86.5 331,-86.5 331,-67.5 248,-67.5"/>
<text text-anchor="middle" x="289.5" y="-74.5" font-family="Helvetica,sans-Serif" font-size="10.00">StatusService</text>
</a>
</g>
</g>
<!-- Node8&#45;&gt;Node11 -->
<g id="edge17" class="edge">
<title>Node8&#45;&gt;Node11</title>
<path fill="none" stroke="midnightblue" d="M439.35,-130.94C402.85,-118.04 345.9,-97.92 313.74,-86.56"/>
<polygon fill="midnightblue" stroke="midnightblue" points="438.47,-134.34 449.07,-134.37 440.8,-127.74 438.47,-134.34"/>
</g>
<!-- Node9&#45;&gt;Node8 -->
<g id="edge11" class="edge">
<title>Node9&#45;&gt;Node8</title>
<path fill="none" stroke="#9a32cd" stroke-dasharray="5,2" d="M490.37,-91.26C484.3,-94.86 478.85,-99.37 474.5,-105 468.13,-113.25 469.24,-125.8 471.03,-134.19"/>
<polygon fill="#9a32cd" stroke="#9a32cd" points="492.29,-94.21 499.66,-86.6 489.15,-87.95 492.29,-94.21"/>
<text text-anchor="middle" x="488.5" y="-108" font-family="Helvetica,sans-Serif" font-size="10.00"> d_ptr</text>
</g>
<!-- Node10&#45;&gt;Node6 -->
<g id="edge14" class="edge">
<title>Node10&#45;&gt;Node6</title>
<path fill="none" stroke="#9a32cd" stroke-dasharray="5,2" d="M391.09,-61.42C373.1,-48.57 347.49,-30.28 332.58,-19.63"/>
<polygon fill="#9a32cd" stroke="#9a32cd" points="389.06,-64.27 399.23,-67.23 393.12,-58.57 389.06,-64.27"/>
<text text-anchor="middle" x="408" y="-41" font-family="Helvetica,sans-Serif" font-size="10.00"> genericAccess</text>
</g>
<!-- Node11&#45;&gt;Node1 -->
<g id="edge19" class="edge">
<title>Node11&#45;&gt;Node1</title>
<path fill="none" stroke="#9a32cd" stroke-dasharray="5,2" d="M262.58,-62.94C236.04,-50.07 196.23,-30.76 173.37,-19.67"/>
<polygon fill="#9a32cd" stroke="#9a32cd" points="261.18,-66.15 271.71,-67.37 264.24,-59.85 261.18,-66.15"/>
<text text-anchor="middle" x="251" y="-41" font-family="Helvetica,sans-Serif" font-size="10.00"> service</text>
</g>
<!-- Node11&#45;&gt;Node6 -->
<g id="edge16" class="edge">
<title>Node11&#45;&gt;Node6</title>
<path fill="none" stroke="#9a32cd" stroke-dasharray="5,2" d="M298.01,-58.16C303.99,-45.63 311.72,-29.41 316.39,-19.63"/>
<polygon fill="#9a32cd" stroke="#9a32cd" points="294.83,-56.7 293.68,-67.23 301.14,-59.71 294.83,-56.7"/>
<text text-anchor="middle" x="324.5" y="-41" font-family="Helvetica,sans-Serif" font-size="10.00"> status</text>
</g>
</g>
</svg>
