<?xml version="1.0" encoding="UTF-8" standalone="no"?>
<!DOCTYPE svg PUBLIC "-//W3C//DTD SVG 1.1//EN"
 "http://www.w3.org/Graphics/SVG/1.1/DTD/svg11.dtd">
<!-- Generated by graphviz version 2.43.0 (0)
 -->
<!-- Title: DsoService::metadata Pages: 1 -->
<svg width="838pt" height="257pt"
 viewBox="0.00 0.00 838.00 257.00" xmlns="http://www.w3.org/2000/svg" xmlns:xlink="http://www.w3.org/1999/xlink">
<g id="graph0" class="graph" transform="scale(1 1) rotate(0) translate(4 253)">
<title>DsoService::metadata</title>
<!-- Node1 -->
<g id="Node000001" class="node">
<title>Node1</title>
<g id="a_Node000001"><a xlink:title="Returns the most recent value of the DSO service&#39;s Metadata characteristic.">
<polygon fill="#999999" stroke="#666666" points="125,-78 0,-78 0,-59 125,-59 125,-78"/>
<text text-anchor="middle" x="62.5" y="-66" font-family="Helvetica,sans-Serif" font-size="10.00">DsoService::metadata</text>
</a>
</g>
</g>
<!-- Node2 -->
<g id="Node000002" class="node">
<title>Node2</title>
<g id="a_Node000002"><a target="_parent" xlink:href="https://doc.qt.io/qt-5/qlowenergycharacteristic.html#isValid" xlink:title=" ">
<polygon fill="white" stroke="#666666" points="306,-131.5 161,-131.5 161,-101.5 306,-101.5 306,-131.5"/>
<text text-anchor="start" x="169" y="-119.5" font-family="Helvetica,sans-Serif" font-size="10.00">QLowEnergyCharacteristic</text>
<text text-anchor="middle" x="233.5" y="-108.5" font-family="Helvetica,sans-Serif" font-size="10.00">::isValid</text>
</a>
</g>
</g>
<!-- Node1&#45;&gt;Node2 -->
<g id="edge1_Node000001_Node000002" class="edge">
<title>Node1&#45;&gt;Node2</title>
<g id="a_edge1_Node000001_Node000002"><a xlink:title=" ">
<path fill="none" stroke="#63b8ff" d="M97.29,-78.1C118.5,-84.12 146.47,-92.07 171.47,-99.17"/>
<polygon fill="#63b8ff" stroke="#63b8ff" points="179.47,-101.44 170.79,-102.71 175.62,-100.34 171.77,-99.25 171.77,-99.25 171.77,-99.25 175.62,-100.34 172.75,-95.79 179.47,-101.44 179.47,-101.44"/>
</a>
</g>
</g>
<!-- Node3 -->
<g id="Node000003" class="node">
<title>Node3</title>
<g id="a_Node000003"><a xlink:href="classDsoServicePrivate.html#af869cf5b228bac719545511ba4247b88" target="_top" xlink:title="Parses the Metadata value into a DsoService::Metatdata struct.">
<polygon fill="white" stroke="#666666" points="289.5,-83.5 177.5,-83.5 177.5,-53.5 289.5,-53.5 289.5,-83.5"/>
<text text-anchor="start" x="185.5" y="-71.5" font-family="Helvetica,sans-Serif" font-size="10.00">DsoServicePrivate::</text>
<text text-anchor="middle" x="233.5" y="-60.5" font-family="Helvetica,sans-Serif" font-size="10.00">parseMetadata</text>
</a>
</g>
</g>
<!-- Node1&#45;&gt;Node3 -->
<g id="edge2_Node000001_Node000003" class="edge">
<title>Node1&#45;&gt;Node3</title>
<g id="a_edge2_Node000001_Node000003"><a xlink:title=" ">
<path fill="none" stroke="#63b8ff" d="M125.47,-68.5C139.64,-68.5 154.73,-68.5 168.97,-68.5"/>
<polygon fill="#63b8ff" stroke="#63b8ff" points="177.24,-68.5 169.24,-72.1 173.24,-68.5 169.24,-68.5 169.24,-68.5 169.24,-68.5 173.24,-68.5 169.24,-64.9 177.24,-68.5 177.24,-68.5"/>
</a>
</g>
</g>
<!-- Node16 -->
<g id="Node000016" class="node">
<title>Node16</title>
<g id="a_Node000016"><a target="_parent" xlink:href="https://doc.qt.io/qt-5/qlowenergycharacteristic.html#value" xlink:title=" ">
<polygon fill="white" stroke="#666666" points="306,-35.5 161,-35.5 161,-5.5 306,-5.5 306,-35.5"/>
<text text-anchor="start" x="169" y="-23.5" font-family="Helvetica,sans-Serif" font-size="10.00">QLowEnergyCharacteristic</text>
<text text-anchor="middle" x="233.5" y="-12.5" font-family="Helvetica,sans-Serif" font-size="10.00">::value</text>
</a>
</g>
</g>
<!-- Node1&#45;&gt;Node16 -->
<g id="edge18_Node000001_Node000016" class="edge">
<title>Node1&#45;&gt;Node16</title>
<g id="a_edge18_Node000001_Node000016"><a xlink:title=" ">
<path fill="none" stroke="#63b8ff" d="M97.29,-58.9C118.5,-52.88 146.47,-44.93 171.47,-37.83"/>
<polygon fill="#63b8ff" stroke="#63b8ff" points="179.47,-35.56 172.75,-41.21 175.62,-36.66 171.77,-37.75 171.77,-37.75 171.77,-37.75 175.62,-36.66 170.79,-34.29 179.47,-35.56 179.47,-35.56"/>
</a>
</g>
</g>
<!-- Node4 -->
<g id="Node000004" class="node">
<title>Node4</title>
<g id="a_Node000004"><a target="_parent" xlink:href="https://doc.qt.io/qt-5/qbytearray.html#at" xlink:title=" ">
<polygon fill="white" stroke="#666666" points="462,-143 374,-143 374,-124 462,-124 462,-143"/>
<text text-anchor="middle" x="418" y="-131" font-family="Helvetica,sans-Serif" font-size="10.00">QByteArray::at</text>
</a>
</g>
</g>
<!-- Node3&#45;&gt;Node4 -->
<g id="edge3_Node000003_Node000004" class="edge">
<title>Node3&#45;&gt;Node4</title>
<g id="a_edge3_Node000003_Node000004"><a xlink:title=" ">
<path fill="none" stroke="#63b8ff" d="M284.3,-83.6C291.68,-86.3 299.12,-89.29 306,-92.5 323,-100.42 324.72,-107.23 342,-114.5 349.6,-117.7 357.87,-120.45 366.04,-122.8"/>
<polygon fill="#63b8ff" stroke="#63b8ff" points="373.83,-124.92 365.17,-126.29 369.97,-123.87 366.11,-122.82 366.11,-122.82 366.11,-122.82 369.97,-123.87 367.06,-119.34 373.83,-124.92 373.83,-124.92"/>
</a>
</g>
</g>
<!-- Node5 -->
<g id="Node000005" class="node">
<title>Node5</title>
<g id="a_Node000005"><a xlink:href="classAbstractPokitServicePrivate.html#af8b480a950244540bfff7fc4b476a0ef" target="_top" xlink:title="Returns false if data is smaller than minSize, otherwise returns failOnMax if data is bigger than max...">
<polygon fill="white" stroke="#666666" points="494,-105.5 342,-105.5 342,-75.5 494,-75.5 494,-105.5"/>
<text text-anchor="start" x="350" y="-93.5" font-family="Helvetica,sans-Serif" font-size="10.00">AbstractPokitServicePrivate</text>
<text text-anchor="middle" x="418" y="-82.5" font-family="Helvetica,sans-Serif" font-size="10.00">::checkSize</text>
</a>
</g>
</g>
<!-- Node3&#45;&gt;Node5 -->
<g id="edge4_Node000003_Node000005" class="edge">
<title>Node3&#45;&gt;Node5</title>
<g id="a_edge4_Node000003_Node000005"><a xlink:title=" ">
<path fill="none" stroke="#63b8ff" d="M289.75,-75.16C303.56,-76.83 318.68,-78.65 333.52,-80.44"/>
<polygon fill="#63b8ff" stroke="#63b8ff" points="341.73,-81.43 333.36,-84.04 337.76,-80.95 333.79,-80.47 333.79,-80.47 333.79,-80.47 337.76,-80.95 334.22,-76.89 341.73,-81.43 341.73,-81.43"/>
</a>
</g>
</g>
<!-- Node7 -->
<g id="Node000007" class="node">
<title>Node7</title>
<g id="a_Node000007"><a target="_parent" xlink:href="https://doc.qt.io/qt-5/qbytearray.html#mid" xlink:title=" ">
<polygon fill="white" stroke="#666666" points="654.5,-41 557.5,-41 557.5,-22 654.5,-22 654.5,-41"/>
<text text-anchor="middle" x="606" y="-29" font-family="Helvetica,sans-Serif" font-size="10.00">QByteArray::mid</text>
</a>
</g>
</g>
<!-- Node3&#45;&gt;Node7 -->
<g id="edge17_Node000003_Node000007" class="edge">
<title>Node3&#45;&gt;Node7</title>
<g id="a_edge17_Node000003_Node000007"><a xlink:title=" ">
<path fill="none" stroke="#63b8ff" d="M289.57,-63C359.3,-56.04 478.8,-44.1 548.98,-37.09"/>
<polygon fill="#63b8ff" stroke="#63b8ff" points="557.29,-36.26 549.69,-40.64 553.31,-36.66 549.33,-37.06 549.33,-37.06 549.33,-37.06 553.31,-36.66 548.97,-33.48 557.29,-36.26 557.29,-36.26"/>
</a>
</g>
</g>
<!-- Node15 -->
<g id="Node000015" class="node">
<title>Node15</title>
<g id="a_Node000015"><a target="_parent" xlink:href="https://doc.qt.io/qt-5/qbytearray.html#constData" xlink:title=" ">
<polygon fill="white" stroke="#666666" points="482,-19 354,-19 354,0 482,0 482,-19"/>
<text text-anchor="middle" x="418" y="-7" font-family="Helvetica,sans-Serif" font-size="10.00">QByteArray::constData</text>
</a>
</g>
</g>
<!-- Node3&#45;&gt;Node15 -->
<g id="edge16_Node000003_Node000015" class="edge">
<title>Node3&#45;&gt;Node15</title>
<g id="a_edge16_Node000003_Node000015"><a xlink:title=" ">
<path fill="none" stroke="#63b8ff" d="M280.52,-53.46C299.54,-47.26 321.83,-40.01 342,-33.5 354.17,-29.57 367.45,-25.31 379.42,-21.49"/>
<polygon fill="#63b8ff" stroke="#63b8ff" points="387.06,-19.04 380.54,-24.91 383.25,-20.26 379.44,-21.48 379.44,-21.48 379.44,-21.48 383.25,-20.26 378.35,-18.05 387.06,-19.04 387.06,-19.04"/>
</a>
</g>
</g>
<!-- Node6 -->
<g id="Node000006" class="node">
<title>Node6</title>
<g id="a_Node000006"><a target="_parent" xlink:href="https://doc.qt.io/qt-5/qstring.html#arg-1" xlink:title=" ">
<polygon fill="white" stroke="#666666" points="811,-64 737,-64 737,-45 811,-45 811,-64"/>
<text text-anchor="middle" x="774" y="-52" font-family="Helvetica,sans-Serif" font-size="10.00">QString::arg</text>
</a>
</g>
</g>
<!-- Node5&#45;&gt;Node6 -->
<g id="edge5_Node000005_Node000006" class="edge">
<title>Node5&#45;&gt;Node6</title>
<g id="a_edge5_Node000005_Node000006"><a xlink:title=" ">
<path fill="none" stroke="#63b8ff" d="M494.07,-82.87C565.41,-75.61 670.24,-64.95 728.97,-58.98"/>
<polygon fill="#63b8ff" stroke="#63b8ff" points="736.94,-58.17 729.35,-62.56 732.96,-58.57 728.99,-58.98 728.99,-58.98 728.99,-58.98 732.96,-58.57 728.62,-55.39 736.94,-58.17 736.94,-58.17"/>
</a>
</g>
</g>
<!-- Node5&#45;&gt;Node7 -->
<g id="edge6_Node000005_Node000007" class="edge">
<title>Node5&#45;&gt;Node7</title>
<g id="a_edge6_Node000005_Node000007"><a xlink:title=" ">
<path fill="none" stroke="#63b8ff" d="M466.42,-75.46C497.6,-65.57 537.88,-52.79 566.96,-43.57"/>
<polygon fill="#63b8ff" stroke="#63b8ff" points="574.85,-41.06 568.32,-46.91 571.04,-42.27 567.23,-43.48 567.23,-43.48 567.23,-43.48 571.04,-42.27 566.14,-40.05 574.85,-41.06 574.85,-41.06"/>
</a>
</g>
</g>
<!-- Node8 -->
<g id="Node000008" class="node">
<title>Node8</title>
<g id="a_Node000008"><a target="_parent" xlink:href="https://doc.qt.io/qt-5/qbytearray.html#size" xlink:title=" ">
<polygon fill="white" stroke="#666666" points="823,-249 725,-249 725,-230 823,-230 823,-249"/>
<text text-anchor="middle" x="774" y="-237" font-family="Helvetica,sans-Serif" font-size="10.00">QByteArray::size</text>
</a>
</g>
</g>
<!-- Node5&#45;&gt;Node8 -->
<g id="edge7_Node000005_Node000008" class="edge">
<title>Node5&#45;&gt;Node8</title>
<g id="a_edge7_Node000005_Node000008"><a xlink:title=" ">
<path fill="none" stroke="#63b8ff" d="M479.92,-105.67C484.94,-108.18 489.71,-111.1 494,-114.5 518.37,-133.81 505.17,-155.78 530,-174.5 584.62,-215.67 663.36,-230.79 716.27,-236.33"/>
<polygon fill="#63b8ff" stroke="#63b8ff" points="724.53,-237.14 716.21,-239.94 720.55,-236.75 716.57,-236.36 716.57,-236.36 716.57,-236.36 720.55,-236.75 716.92,-232.78 724.53,-237.14 724.53,-237.14"/>
</a>
</g>
</g>
<!-- Node9 -->
<g id="Node000009" class="node">
<title>Node9</title>
<g id="a_Node000009"><a xlink:href="classAbstractPokitServicePrivate.html#af748600fc201fe47f29b58e8e93179d8" target="_top" xlink:title="Returns up to maxSize bytes of data as a human readable hexadecimal string.">
<polygon fill="white" stroke="#666666" points="682,-165.5 530,-165.5 530,-135.5 682,-135.5 682,-165.5"/>
<text text-anchor="start" x="538" y="-153.5" font-family="Helvetica,sans-Serif" font-size="10.00">AbstractPokitServicePrivate</text>
<text text-anchor="middle" x="606" y="-142.5" font-family="Helvetica,sans-Serif" font-size="10.00">::toHexString</text>
</a>
</g>
</g>
<!-- Node5&#45;&gt;Node9 -->
<g id="edge8_Node000005_Node000009" class="edge">
<title>Node5&#45;&gt;Node9</title>
<g id="a_edge8_Node000005_Node000009"><a xlink:title=" ">
<path fill="none" stroke="#63b8ff" d="M466.22,-105.58C475.43,-108.53 485.02,-111.61 494,-114.5 512.64,-120.51 533.04,-127.11 551.2,-133.01"/>
<polygon fill="#63b8ff" stroke="#63b8ff" points="558.84,-135.48 550.12,-136.44 555.03,-134.25 551.23,-133.01 551.23,-133.01 551.23,-133.01 555.03,-134.25 552.34,-129.59 558.84,-135.48 558.84,-135.48"/>
</a>
</g>
</g>
<!-- Node14 -->
<g id="Node000014" class="node">
<title>Node14</title>
<g id="a_Node000014"><a target="_parent" xlink:href="https://doc.qt.io/qt-5/qobject.html#tr" xlink:title=" ">
<polygon fill="white" stroke="#666666" points="640.5,-117 571.5,-117 571.5,-98 640.5,-98 640.5,-117"/>
<text text-anchor="middle" x="606" y="-105" font-family="Helvetica,sans-Serif" font-size="10.00">QObject::tr</text>
</a>
</g>
</g>
<!-- Node5&#45;&gt;Node14 -->
<g id="edge15_Node000005_Node000014" class="edge">
<title>Node5&#45;&gt;Node14</title>
<g id="a_edge15_Node000005_Node000014"><a xlink:title=" ">
<path fill="none" stroke="#63b8ff" d="M494.12,-97.37C517.69,-99.52 542.85,-101.82 563.24,-103.68"/>
<polygon fill="#63b8ff" stroke="#63b8ff" points="571.38,-104.43 563.08,-107.28 567.4,-104.06 563.41,-103.7 563.41,-103.7 563.41,-103.7 567.4,-104.06 563.74,-100.11 571.38,-104.43 571.38,-104.43"/>
</a>
</g>
</g>
<!-- Node9&#45;&gt;Node6 -->
<g id="edge9_Node000009_Node000006" class="edge">
<title>Node9&#45;&gt;Node6</title>
<g id="a_edge9_Node000009_Node000006"><a xlink:title=" ">
<path fill="none" stroke="#63b8ff" d="M665.44,-135.32C671.32,-132.56 676.97,-129.31 682,-125.5 704.7,-108.31 695.25,-89.62 718,-72.5 721.51,-69.86 725.43,-67.59 729.51,-65.65"/>
<polygon fill="#63b8ff" stroke="#63b8ff" points="736.99,-62.5 731.01,-68.93 733.3,-64.05 729.61,-65.61 729.61,-65.61 729.61,-65.61 733.3,-64.05 728.22,-62.29 736.99,-62.5 736.99,-62.5"/>
</a>
</g>
</g>
<!-- Node9&#45;&gt;Node8 -->
<g id="edge13_Node000009_Node000008" class="edge">
<title>Node9&#45;&gt;Node8</title>
<g id="a_edge13_Node000009_Node000008"><a xlink:title=" ">
<path fill="none" stroke="#63b8ff" d="M627.36,-165.77C648.96,-181.41 684.51,-205.63 718,-221.5 722.3,-223.54 726.9,-225.44 731.53,-227.19"/>
<polygon fill="#63b8ff" stroke="#63b8ff" points="739.32,-229.97 730.57,-230.67 735.55,-228.62 731.78,-227.28 731.78,-227.28 731.78,-227.28 735.55,-228.62 733,-223.89 739.32,-229.97 739.32,-229.97"/>
</a>
</g>
</g>
<!-- Node10 -->
<g id="Node000010" class="node">
<title>Node10</title>
<g id="a_Node000010"><a target="_parent" xlink:href="https://doc.qt.io/qt-5/qstring.html#fromLatin1" xlink:title=" ">
<polygon fill="white" stroke="#666666" points="830,-175 718,-175 718,-156 830,-156 830,-175"/>
<text text-anchor="middle" x="774" y="-163" font-family="Helvetica,sans-Serif" font-size="10.00">QString::fromLatin1</text>
</a>
</g>
</g>
<!-- Node9&#45;&gt;Node10 -->
<g id="edge10_Node000009_Node000010" class="edge">
<title>Node9&#45;&gt;Node10</title>
<g id="a_edge10_Node000009_Node000010"><a xlink:title=" ">
<path fill="none" stroke="#63b8ff" d="M682.23,-157.3C691.42,-158.13 700.75,-158.97 709.74,-159.78"/>
<polygon fill="#63b8ff" stroke="#63b8ff" points="717.9,-160.52 709.61,-163.39 713.91,-160.16 709.93,-159.8 709.93,-159.8 709.93,-159.8 713.91,-160.16 710.25,-156.22 717.9,-160.52 717.9,-160.52"/>
</a>
</g>
</g>
<!-- Node11 -->
<g id="Node000011" class="node">
<title>Node11</title>
<g id="a_Node000011"><a target="_parent" xlink:href="https://doc.qt.io/qt-5/qbytearray.html#left" xlink:title=" ">
<polygon fill="white" stroke="#666666" points="821,-138 727,-138 727,-119 821,-119 821,-138"/>
<text text-anchor="middle" x="774" y="-126" font-family="Helvetica,sans-Serif" font-size="10.00">QByteArray::left</text>
</a>
</g>
</g>
<!-- Node9&#45;&gt;Node11 -->
<g id="edge11_Node000009_Node000011" class="edge">
<title>Node9&#45;&gt;Node11</title>
<g id="a_edge11_Node000009_Node000011"><a xlink:title=" ">
<path fill="none" stroke="#63b8ff" d="M682.23,-140.53C694.38,-138.92 706.75,-137.28 718.3,-135.75"/>
<polygon fill="#63b8ff" stroke="#63b8ff" points="726.54,-134.66 719.08,-139.28 722.57,-135.18 718.61,-135.71 718.61,-135.71 718.61,-135.71 722.57,-135.18 718.14,-132.14 726.54,-134.66 726.54,-134.66"/>
</a>
</g>
</g>
<!-- Node12 -->
<g id="Node000012" class="node">
<title>Node12</title>
<g id="a_Node000012"><a target="_parent" xlink:href="https://doc.qt.io/qt-5/qbytearray.html#right" xlink:title=" ">
<polygon fill="white" stroke="#666666" points="824.5,-101 723.5,-101 723.5,-82 824.5,-82 824.5,-101"/>
<text text-anchor="middle" x="774" y="-89" font-family="Helvetica,sans-Serif" font-size="10.00">QByteArray::right</text>
</a>
</g>
</g>
<!-- Node9&#45;&gt;Node12 -->
<g id="edge12_Node000009_Node000012" class="edge">
<title>Node9&#45;&gt;Node12</title>
<g id="a_edge12_Node000009_Node000012"><a xlink:title=" ">
<path fill="none" stroke="#63b8ff" d="M654.46,-135.45C663.65,-132.32 673.17,-128.92 682,-125.5 698.32,-119.17 701.66,-115.79 718,-109.5 723.17,-107.51 728.66,-105.55 734.09,-103.69"/>
<polygon fill="#63b8ff" stroke="#63b8ff" points="741.97,-101.04 735.53,-107 738.18,-102.31 734.39,-103.59 734.39,-103.59 734.39,-103.59 738.18,-102.31 733.24,-100.17 741.97,-101.04 741.97,-101.04"/>
</a>
</g>
</g>
<!-- Node13 -->
<g id="Node000013" class="node">
<title>Node13</title>
<g id="a_Node000013"><a target="_parent" xlink:href="https://doc.qt.io/qt-5/qbytearray.html#toHex" xlink:title=" ">
<polygon fill="white" stroke="#666666" points="827.5,-212 720.5,-212 720.5,-193 827.5,-193 827.5,-212"/>
<text text-anchor="middle" x="774" y="-200" font-family="Helvetica,sans-Serif" font-size="10.00">QByteArray::toHex</text>
</a>
</g>
</g>
<!-- Node9&#45;&gt;Node13 -->
<g id="edge14_Node000009_Node000013" class="edge">
<title>Node9&#45;&gt;Node13</title>
<g id="a_edge14_Node000009_Node000013"><a xlink:title=" ">
<path fill="none" stroke="#63b8ff" d="M655.01,-165.54C680.39,-173.49 711.11,-183.11 734.84,-190.55"/>
<polygon fill="#63b8ff" stroke="#63b8ff" points="742.61,-192.98 733.9,-194.02 738.79,-191.78 734.97,-190.59 734.97,-190.59 734.97,-190.59 738.79,-191.78 736.05,-187.15 742.61,-192.98 742.61,-192.98"/>
</a>
</g>
</g>
</g>
</svg>
