<?xml version="1.0" encoding="UTF-8" standalone="no"?>
<!DOCTYPE svg PUBLIC "-//W3C//DTD SVG 1.1//EN"
 "http://www.w3.org/Graphics/SVG/1.1/DTD/svg11.dtd">
<!-- Generated by graphviz version 2.43.0 (0)
 -->
<!-- Title: StatusServicePrivate::characteristicWritten Pages: 1 -->
<svg width="711pt" height="455pt"
 viewBox="0.00 0.00 711.00 454.50" xmlns="http://www.w3.org/2000/svg" xmlns:xlink="http://www.w3.org/1999/xlink">
<g id="graph0" class="graph" transform="scale(1 1) rotate(0) translate(4 450.5)">
<title>StatusServicePrivate::characteristicWritten</title>
<!-- Node1 -->
<g id="node1" class="node">
<title>Node1</title>
<g id="a_node1"><a xlink:title="Implements AbstractPokitServicePrivate::characteristicWritten to parse newValue, then emit a speciali...">
<polygon fill="#999999" stroke="#666666" points="125,-94 0,-94 0,-64 125,-64 125,-94"/>
<text text-anchor="start" x="8" y="-82" font-family="Helvetica,sans-Serif" font-size="10.00">StatusServicePrivate</text>
<text text-anchor="middle" x="62.5" y="-71" font-family="Helvetica,sans-Serif" font-size="10.00">::characteristicWritten</text>
</a>
</g>
</g>
<!-- Node2 -->
<g id="node2" class="node">
<title>Node2</title>
<g id="a_node2"><a xlink:href="classAbstractPokitServicePrivate.html#aaf4a6cb9f0b1fe537877d615a6634201" target="_top" xlink:title="Handles QLowEnergyService::characteristicWritten events.">
<polygon fill="white" stroke="#666666" points="313,-218 161,-218 161,-188 313,-188 313,-218"/>
<text text-anchor="start" x="169" y="-206" font-family="Helvetica,sans-Serif" font-size="10.00">AbstractPokitServicePrivate</text>
<text text-anchor="middle" x="237" y="-195" font-family="Helvetica,sans-Serif" font-size="10.00">::characteristicWritten</text>
</a>
</g>
</g>
<!-- Node1&#45;&gt;Node2 -->
<g id="edge1" class="edge">
<title>Node1&#45;&gt;Node2</title>
<path fill="none" stroke="#63b8ff" d="M84.65,-94.2C115.26,-116.2 172,-157 206.64,-181.9"/>
<polygon fill="#63b8ff" stroke="#63b8ff" points="204.78,-184.87 214.95,-187.86 208.87,-179.19 204.78,-184.87"/>
</g>
<!-- Node6 -->
<g id="node6" class="node">
<title>Node6</title>
<g id="a_node6"><a target="_parent" xlink:href="https://doc.qt.io/qt-5/qobject.html#tr" xlink:title=" ">
<polygon fill="white" stroke="#666666" points="654.5,-153.5 585.5,-153.5 585.5,-134.5 654.5,-134.5 654.5,-153.5"/>
<text text-anchor="middle" x="620" y="-141.5" font-family="Helvetica,sans-Serif" font-size="10.00">QObject::tr</text>
</a>
</g>
</g>
<!-- Node1&#45;&gt;Node6 -->
<g id="edge18" class="edge">
<title>Node1&#45;&gt;Node6</title>
<path fill="none" stroke="#63b8ff" d="M125.28,-68.79C211.18,-56.81 370.83,-42.62 501,-77 538.6,-86.93 576.78,-111.92 599.15,-128.41"/>
<polygon fill="#63b8ff" stroke="#63b8ff" points="597.1,-131.24 607.19,-134.47 601.31,-125.66 597.1,-131.24"/>
</g>
<!-- Node14 -->
<g id="node14" class="node">
<title>Node14</title>
<g id="a_node14"><a target="_parent" xlink:href="https://doc.qt.io/qt-5/qlowenergycharacteristic.html#uuid" xlink:title=" ">
<polygon fill="white" stroke="#666666" points="497.5,-116 352.5,-116 352.5,-86 497.5,-86 497.5,-116"/>
<text text-anchor="start" x="360.5" y="-104" font-family="Helvetica,sans-Serif" font-size="10.00">QLowEnergyCharacteristic</text>
<text text-anchor="middle" x="425" y="-93" font-family="Helvetica,sans-Serif" font-size="10.00">::uuid</text>
</a>
</g>
</g>
<!-- Node1&#45;&gt;Node14 -->
<g id="edge19" class="edge">
<title>Node1&#45;&gt;Node14</title>
<path fill="none" stroke="#63b8ff" d="M125.06,-82.76C184.91,-86.41 276.17,-91.98 342.11,-96"/>
<polygon fill="#63b8ff" stroke="#63b8ff" points="342.28,-99.52 352.47,-96.63 342.7,-92.53 342.28,-99.52"/>
</g>
<!-- Node15 -->
<g id="node15" class="node">
<title>Node15</title>
<g id="a_node15"><a target="_parent" xlink:href="https://doc.qt.io/qt-5/qlowenergycharacteristic.html#name" xlink:title=" ">
<polygon fill="white" stroke="#666666" points="309.5,-30 164.5,-30 164.5,0 309.5,0 309.5,-30"/>
<text text-anchor="start" x="172.5" y="-18" font-family="Helvetica,sans-Serif" font-size="10.00">QLowEnergyCharacteristic</text>
<text text-anchor="middle" x="237" y="-7" font-family="Helvetica,sans-Serif" font-size="10.00">::name</text>
</a>
</g>
</g>
<!-- Node1&#45;&gt;Node15 -->
<g id="edge17" class="edge">
<title>Node1&#45;&gt;Node15</title>
<path fill="none" stroke="#63b8ff" d="M103.94,-63.99C128.4,-54.92 159.79,-43.28 185.82,-33.62"/>
<polygon fill="#63b8ff" stroke="#63b8ff" points="187.35,-36.78 195.51,-30.02 184.92,-30.22 187.35,-36.78"/>
</g>
<!-- Node3 -->
<g id="node3" class="node">
<title>Node3</title>
<g id="a_node3"><a target="_parent" xlink:href="https://doc.qt.io/qt-5/qstring.html#arg-11" xlink:title=" ">
<polygon fill="white" stroke="#666666" points="657,-261.5 583,-261.5 583,-242.5 657,-242.5 657,-261.5"/>
<text text-anchor="middle" x="620" y="-249.5" font-family="Helvetica,sans-Serif" font-size="10.00">QString::arg</text>
</a>
</g>
</g>
<!-- Node2&#45;&gt;Node3 -->
<g id="edge2" class="edge">
<title>Node2&#45;&gt;Node3</title>
<path fill="none" stroke="#63b8ff" d="M265.8,-218.02C287.69,-228.98 319.37,-242.93 349,-249 426.23,-264.82 518.5,-261.15 572.73,-256.77"/>
<polygon fill="#63b8ff" stroke="#63b8ff" points="573.06,-260.25 582.73,-255.92 572.46,-253.28 573.06,-260.25"/>
</g>
<!-- Node4 -->
<g id="node4" class="node">
<title>Node4</title>
<g id="a_node4"><a xlink:href="classPokitDevice.html#a0a3e6078ce0a7c2d93171ef0f4183d61" target="_top" xlink:title="Returns a human&#45;readable name for the uuid characteristic, or a null QString if unknown.">
<polygon fill="white" stroke="#666666" points="495.5,-240 354.5,-240 354.5,-210 495.5,-210 495.5,-240"/>
<text text-anchor="start" x="362.5" y="-228" font-family="Helvetica,sans-Serif" font-size="10.00">PokitDevice::charcteristic</text>
<text text-anchor="middle" x="425" y="-217" font-family="Helvetica,sans-Serif" font-size="10.00">ToString</text>
</a>
</g>
</g>
<!-- Node2&#45;&gt;Node4 -->
<g id="edge3" class="edge">
<title>Node2&#45;&gt;Node4</title>
<path fill="none" stroke="#63b8ff" d="M313.12,-211.88C323.33,-213.09 333.83,-214.34 344.12,-215.55"/>
<polygon fill="#63b8ff" stroke="#63b8ff" points="343.98,-219.06 354.32,-216.76 344.8,-212.11 343.98,-219.06"/>
</g>
<!-- Node2&#45;&gt;Node6 -->
<g id="edge15" class="edge">
<title>Node2&#45;&gt;Node6</title>
<path fill="none" stroke="#63b8ff" d="M273.31,-187.9C294.79,-179.4 323.01,-169.43 349,-164 427.51,-147.6 521.3,-144.18 575.14,-143.72"/>
<polygon fill="#63b8ff" stroke="#63b8ff" points="575.37,-147.22 585.35,-143.66 575.33,-140.22 575.37,-147.22"/>
</g>
<!-- Node7 -->
<g id="node7" class="node">
<title>Node7</title>
<g id="a_node7"><a target="_parent" xlink:href="https://doc.qt.io/qt-5/qbytearray.html#size" xlink:title=" ">
<polygon fill="white" stroke="#666666" points="669,-446.5 571,-446.5 571,-427.5 669,-427.5 669,-446.5"/>
<text text-anchor="middle" x="620" y="-434.5" font-family="Helvetica,sans-Serif" font-size="10.00">QByteArray::size</text>
</a>
</g>
</g>
<!-- Node2&#45;&gt;Node7 -->
<g id="edge6" class="edge">
<title>Node2&#45;&gt;Node7</title>
<path fill="none" stroke="#63b8ff" d="M245.61,-218.19C261.11,-247.69 299.16,-313.05 349,-350 412.45,-397.03 502.36,-419.28 560.68,-429.34"/>
<polygon fill="#63b8ff" stroke="#63b8ff" points="560.39,-432.84 570.83,-431.02 561.54,-425.93 560.39,-432.84"/>
</g>
<!-- Node8 -->
<g id="node8" class="node">
<title>Node8</title>
<g id="a_node8"><a xlink:href="classAbstractPokitServicePrivate.html#af748600fc201fe47f29b58e8e93179d8" target="_top" xlink:title="Returns up to maxSize bytes of data as a human readable hexadecimal string.">
<polygon fill="white" stroke="#666666" points="501,-341 349,-341 349,-311 501,-311 501,-341"/>
<text text-anchor="start" x="357" y="-329" font-family="Helvetica,sans-Serif" font-size="10.00">AbstractPokitServicePrivate</text>
<text text-anchor="middle" x="425" y="-318" font-family="Helvetica,sans-Serif" font-size="10.00">::toHexString</text>
</a>
</g>
</g>
<!-- Node2&#45;&gt;Node8 -->
<g id="edge7" class="edge">
<title>Node2&#45;&gt;Node8</title>
<path fill="none" stroke="#63b8ff" d="M258.09,-218.11C280.04,-234.43 316.44,-260.92 349,-282 361.54,-290.12 375.6,-298.54 388.12,-305.81"/>
<polygon fill="#63b8ff" stroke="#63b8ff" points="386.51,-308.92 396.93,-310.88 390.01,-302.86 386.51,-308.92"/>
</g>
<!-- Node13 -->
<g id="node13" class="node">
<title>Node13</title>
<g id="a_node13"><a target="_parent" xlink:href="https://doc.qt.io/qt-5/quuid.html#toString" xlink:title=" ">
<polygon fill="white" stroke="#666666" points="470.5,-191.5 379.5,-191.5 379.5,-172.5 470.5,-172.5 470.5,-191.5"/>
<text text-anchor="middle" x="425" y="-179.5" font-family="Helvetica,sans-Serif" font-size="10.00">QUuid::toString</text>
</a>
</g>
</g>
<!-- Node2&#45;&gt;Node13 -->
<g id="edge14" class="edge">
<title>Node2&#45;&gt;Node13</title>
<path fill="none" stroke="#63b8ff" d="M313.12,-194.52C331.91,-192.4 351.72,-190.16 369.31,-188.17"/>
<polygon fill="#63b8ff" stroke="#63b8ff" points="369.84,-191.64 379.39,-187.04 369.06,-184.68 369.84,-191.64"/>
</g>
<!-- Node2&#45;&gt;Node14 -->
<g id="edge16" class="edge">
<title>Node2&#45;&gt;Node14</title>
<path fill="none" stroke="#63b8ff" d="M258.07,-187.91C279.71,-172.1 315.57,-147.21 349,-130 355.98,-126.41 363.52,-122.99 371.02,-119.85"/>
<polygon fill="#63b8ff" stroke="#63b8ff" points="372.52,-123.02 380.48,-116.03 369.89,-116.53 372.52,-123.02"/>
</g>
<!-- Node5 -->
<g id="node5" class="node">
<title>Node5</title>
<g id="a_node5"><a target="_parent" xlink:href="https://doc.qt.io/qt-5/qbluetoothuuid.html#characteristicToString" xlink:title=" ">
<polygon fill="white" stroke="#666666" points="703,-224 537,-224 537,-194 703,-194 703,-224"/>
<text text-anchor="start" x="545" y="-212" font-family="Helvetica,sans-Serif" font-size="10.00">QBluetoothUuid::characteristic</text>
<text text-anchor="middle" x="620" y="-201" font-family="Helvetica,sans-Serif" font-size="10.00">ToString</text>
</a>
</g>
</g>
<!-- Node4&#45;&gt;Node5 -->
<g id="edge4" class="edge">
<title>Node4&#45;&gt;Node5</title>
<path fill="none" stroke="#63b8ff" d="M495.68,-219.22C505.82,-218.38 516.4,-217.51 526.91,-216.63"/>
<polygon fill="#63b8ff" stroke="#63b8ff" points="527.26,-220.12 536.94,-215.8 526.69,-213.14 527.26,-220.12"/>
</g>
<!-- Node4&#45;&gt;Node6 -->
<g id="edge5" class="edge">
<title>Node4&#45;&gt;Node6</title>
<path fill="none" stroke="#63b8ff" d="M476.37,-209.96C484.67,-207.17 493.13,-204.14 501,-201 518.27,-194.1 561.62,-172.76 590.69,-158.24"/>
<polygon fill="#63b8ff" stroke="#63b8ff" points="592.57,-161.22 599.94,-153.61 589.43,-154.96 592.57,-161.22"/>
</g>
<!-- Node8&#45;&gt;Node3 -->
<g id="edge8" class="edge">
<title>Node8&#45;&gt;Node3</title>
<path fill="none" stroke="#63b8ff" d="M452.15,-310.87C474.18,-298.66 506.83,-281.8 537,-271 548.5,-266.88 561.23,-263.43 573.17,-260.64"/>
<polygon fill="#63b8ff" stroke="#63b8ff" points="573.96,-264.05 582.96,-258.46 572.44,-257.22 573.96,-264.05"/>
</g>
<!-- Node8&#45;&gt;Node7 -->
<g id="edge12" class="edge">
<title>Node8&#45;&gt;Node7</title>
<path fill="none" stroke="#63b8ff" d="M444.2,-341.29C475.51,-367.6 536.33,-418.67 537,-419 544.52,-422.7 552.8,-425.64 561.12,-427.98"/>
<polygon fill="#63b8ff" stroke="#63b8ff" points="560.3,-431.39 570.86,-430.47 562.03,-424.6 560.3,-431.39"/>
</g>
<!-- Node9 -->
<g id="node9" class="node">
<title>Node9</title>
<g id="a_node9"><a target="_parent" xlink:href="https://doc.qt.io/qt-5/qstring.html#fromLatin1" xlink:title=" ">
<polygon fill="white" stroke="#666666" points="676,-335.5 564,-335.5 564,-316.5 676,-316.5 676,-335.5"/>
<text text-anchor="middle" x="620" y="-323.5" font-family="Helvetica,sans-Serif" font-size="10.00">QString::fromLatin1</text>
</a>
</g>
</g>
<!-- Node8&#45;&gt;Node9 -->
<g id="edge9" class="edge">
<title>Node8&#45;&gt;Node9</title>
<path fill="none" stroke="#63b8ff" d="M501.17,-326C518.44,-326 536.66,-326 553.49,-326"/>
<polygon fill="#63b8ff" stroke="#63b8ff" points="553.76,-329.5 563.76,-326 553.76,-322.5 553.76,-329.5"/>
</g>
<!-- Node10 -->
<g id="node10" class="node">
<title>Node10</title>
<g id="a_node10"><a target="_parent" xlink:href="https://doc.qt.io/qt-5/qbytearray.html#left" xlink:title=" ">
<polygon fill="white" stroke="#666666" points="667,-298.5 573,-298.5 573,-279.5 667,-279.5 667,-298.5"/>
<text text-anchor="middle" x="620" y="-286.5" font-family="Helvetica,sans-Serif" font-size="10.00">QByteArray::left</text>
</a>
</g>
</g>
<!-- Node8&#45;&gt;Node10 -->
<g id="edge10" class="edge">
<title>Node8&#45;&gt;Node10</title>
<path fill="none" stroke="#63b8ff" d="M501.17,-311.59C521.72,-307.65 543.63,-303.45 562.91,-299.75"/>
<polygon fill="#63b8ff" stroke="#63b8ff" points="563.57,-303.19 572.73,-297.87 562.25,-296.32 563.57,-303.19"/>
</g>
<!-- Node11 -->
<g id="node11" class="node">
<title>Node11</title>
<g id="a_node11"><a target="_parent" xlink:href="https://doc.qt.io/qt-5/qbytearray.html#right" xlink:title=" ">
<polygon fill="white" stroke="#666666" points="670.5,-409.5 569.5,-409.5 569.5,-390.5 670.5,-390.5 670.5,-409.5"/>
<text text-anchor="middle" x="620" y="-397.5" font-family="Helvetica,sans-Serif" font-size="10.00">QByteArray::right</text>
</a>
</g>
</g>
<!-- Node8&#45;&gt;Node11 -->
<g id="edge11" class="edge">
<title>Node8&#45;&gt;Node11</title>
<path fill="none" stroke="#63b8ff" d="M451.2,-341.02C473.19,-353.56 506.29,-371.08 537,-382 544.24,-384.58 551.98,-386.85 559.7,-388.85"/>
<polygon fill="#63b8ff" stroke="#63b8ff" points="558.89,-392.25 569.44,-391.22 560.55,-385.45 558.89,-392.25"/>
</g>
<!-- Node12 -->
<g id="node12" class="node">
<title>Node12</title>
<g id="a_node12"><a target="_parent" xlink:href="https://doc.qt.io/qt-5/qbytearray.html#toHex" xlink:title=" ">
<polygon fill="white" stroke="#666666" points="673.5,-372.5 566.5,-372.5 566.5,-353.5 673.5,-353.5 673.5,-372.5"/>
<text text-anchor="middle" x="620" y="-360.5" font-family="Helvetica,sans-Serif" font-size="10.00">QByteArray::toHex</text>
</a>
</g>
</g>
<!-- Node8&#45;&gt;Node12 -->
<g id="edge13" class="edge">
<title>Node8&#45;&gt;Node12</title>
<path fill="none" stroke="#63b8ff" d="M501.17,-340.41C520.46,-344.11 540.95,-348.04 559.34,-351.56"/>
<polygon fill="#63b8ff" stroke="#63b8ff" points="558.83,-355.03 569.31,-353.47 560.15,-348.15 558.83,-355.03"/>
</g>
</g>
</svg>
