<?xml version="1.0" encoding="UTF-8" standalone="no"?>
<!DOCTYPE svg PUBLIC "-//W3C//DTD SVG 1.1//EN"
 "http://www.w3.org/Graphics/SVG/1.1/DTD/svg11.dtd">
<!-- Generated by graphviz version 2.43.0 (0)
 -->
<!-- Title: ScanCommand::deviceDiscoveryFinished Pages: 1 -->
<svg width="347pt" height="66pt"
 viewBox="0.00 0.00 347.00 66.00" xmlns="http://www.w3.org/2000/svg" xmlns:xlink="http://www.w3.org/1999/xlink">
<g id="graph0" class="graph" transform="scale(1 1) rotate(0) translate(4 62)">
<title>ScanCommand::deviceDiscoveryFinished</title>
<!-- Node1 -->
<g id="node1" class="node">
<title>Node1</title>
<g id="a_node1"><a xlink:title="Handles the completion of device discovery.">
<polygon fill="#bfbfbf" stroke="black" points="0,-14 0,-44 177,-44 177,-14 0,-14"/>
<text text-anchor="start" x="8" y="-32" font-family="Helvetica,sans-Serif" font-size="10.00">ScanCommand::deviceDiscovery</text>
<text text-anchor="middle" x="88.5" y="-21" font-family="Helvetica,sans-Serif" font-size="10.00">Finished</text>
</a>
</g>
</g>
<!-- Node2 -->
<g id="node2" class="node">
<title>Node2</title>
<g id="a_node2"><a target="_parent" xlink:href="https://doc.qt.io/qt-5/qcoreapplication.html#quit" xlink:title=" ">
<polygon fill="none" stroke="black" points="213,-38.5 213,-57.5 339,-57.5 339,-38.5 213,-38.5"/>
<text text-anchor="middle" x="276" y="-45.5" font-family="Helvetica,sans-Serif" font-size="10.00">QCoreApplication::quit</text>
</a>
</g>
</g>
<!-- Node1&#45;&gt;Node2 -->
<g id="edge1" class="edge">
<title>Node1&#45;&gt;Node2</title>
<path fill="none" stroke="midnightblue" d="M177.09,-37.97C185.69,-38.85 194.36,-39.74 202.78,-40.6"/>
<polygon fill="midnightblue" stroke="midnightblue" points="202.61,-44.1 212.92,-41.64 203.33,-37.14 202.61,-44.1"/>
</g>
<!-- Node3 -->
<g id="node3" class="node">
<title>Node3</title>
<g id="a_node3"><a target="_parent" xlink:href="https://doc.qt.io/qt-5/qobject.html#tr" xlink:title=" ">
<polygon fill="none" stroke="black" points="241.5,-0.5 241.5,-19.5 310.5,-19.5 310.5,-0.5 241.5,-0.5"/>
<text text-anchor="middle" x="276" y="-7.5" font-family="Helvetica,sans-Serif" font-size="10.00">QObject::tr</text>
</a>
</g>
</g>
<!-- Node1&#45;&gt;Node3 -->
<g id="edge2" class="edge">
<title>Node1&#45;&gt;Node3</title>
<path fill="none" stroke="midnightblue" d="M177.09,-20.03C195.87,-18.11 214.92,-16.15 231.18,-14.49"/>
<polygon fill="midnightblue" stroke="midnightblue" points="231.83,-17.94 241.42,-13.44 231.11,-10.98 231.83,-17.94"/>
</g>
</g>
</svg>
