<?xml version="1.0" encoding="UTF-8" standalone="no"?>
<!DOCTYPE svg PUBLIC "-//W3C//DTD SVG 1.1//EN"
 "http://www.w3.org/Graphics/SVG/1.1/DTD/svg11.dtd">
<!-- Generated by graphviz version 2.43.0 (0)
 -->
<!-- Title: StatusService::deviceStatusLabel Pages: 1 -->
<svg width="639pt" height="227pt"
 viewBox="0.00 0.00 639.00 226.50" xmlns="http://www.w3.org/2000/svg" xmlns:xlink="http://www.w3.org/1999/xlink">
<g id="graph0" class="graph" transform="scale(1 1) rotate(0) translate(4 222.5)">
<title>StatusService::deviceStatusLabel</title>
<!-- Node1 -->
<g id="node1" class="node">
<title>Node1</title>
<g id="a_node1"><a xlink:title="Returns a string version of the status enum label.">
<polygon fill="#bfbfbf" stroke="black" points="0,-114 0,-144 152,-144 152,-114 0,-114"/>
<text text-anchor="start" x="8" y="-132" font-family="Helvetica,sans-Serif" font-size="10.00">StatusService::deviceStatus</text>
<text text-anchor="middle" x="76" y="-121" font-family="Helvetica,sans-Serif" font-size="10.00">Label</text>
</a>
</g>
</g>
<!-- Node2 -->
<g id="node2" class="node">
<title>Node2</title>
<g id="a_node2"><a xlink:href="classStatusService.html#ae7be4aae021ae50faef48ed2812eb6a7" target="_top" xlink:title="Returns the most recent value of the Status service&#39;s Status characteristic.">
<polygon fill="none" stroke="black" points="188,-141.5 188,-160.5 307,-160.5 307,-141.5 188,-141.5"/>
<text text-anchor="middle" x="247.5" y="-148.5" font-family="Helvetica,sans-Serif" font-size="10.00">StatusService::status</text>
</a>
</g>
</g>
<!-- Node1&#45;&gt;Node2 -->
<g id="edge1" class="edge">
<title>Node1&#45;&gt;Node2</title>
<path fill="none" stroke="midnightblue" d="M152.33,-138.78C160.82,-139.88 169.43,-141 177.83,-142.09"/>
<polygon fill="midnightblue" stroke="midnightblue" points="177.57,-145.58 187.94,-143.4 178.47,-138.64 177.57,-145.58"/>
</g>
<!-- Node3 -->
<g id="node3" class="node">
<title>Node3</title>
<g id="a_node3"><a target="_parent" xlink:href="https://doc.qt.io/qt-5/qlowenergycharacteristic.html#isValid" xlink:title=" ">
<polygon fill="none" stroke="black" points="343,-188 343,-218 488,-218 488,-188 343,-188"/>
<text text-anchor="start" x="351" y="-206" font-family="Helvetica,sans-Serif" font-size="10.00">QLowEnergyCharacteristic</text>
<text text-anchor="middle" x="415.5" y="-195" font-family="Helvetica,sans-Serif" font-size="10.00">::isValid</text>
</a>
</g>
</g>
<!-- Node2&#45;&gt;Node3 -->
<g id="edge2" class="edge">
<title>Node2&#45;&gt;Node3</title>
<path fill="none" stroke="midnightblue" d="M278.95,-160.54C300.61,-167.32 330.38,-176.65 356.51,-184.83"/>
<polygon fill="midnightblue" stroke="midnightblue" points="355.73,-188.26 366.32,-187.91 357.83,-181.58 355.73,-188.26"/>
</g>
<!-- Node4 -->
<g id="node4" class="node">
<title>Node4</title>
<g id="a_node4"><a xlink:href="classStatusServicePrivate.html#a3a6ff8ca3e9d7c884b269e52dd43aeb0" target="_top" xlink:title="Parses the Status value into a DeviceStatus and battery voltage.">
<polygon fill="none" stroke="black" points="356.5,-90 356.5,-120 474.5,-120 474.5,-90 356.5,-90"/>
<text text-anchor="start" x="364.5" y="-108" font-family="Helvetica,sans-Serif" font-size="10.00">StatusServicePrivate</text>
<text text-anchor="middle" x="415.5" y="-97" font-family="Helvetica,sans-Serif" font-size="10.00">::parseStatus</text>
</a>
</g>
</g>
<!-- Node2&#45;&gt;Node4 -->
<g id="edge3" class="edge">
<title>Node2&#45;&gt;Node4</title>
<path fill="none" stroke="midnightblue" d="M282.9,-141.47C302.42,-136.06 327.49,-129.11 350.5,-122.73"/>
<polygon fill="midnightblue" stroke="midnightblue" points="351.51,-126.09 360.22,-120.04 349.64,-119.34 351.51,-126.09"/>
</g>
<!-- Node11 -->
<g id="node11" class="node">
<title>Node11</title>
<g id="a_node11"><a target="_parent" xlink:href="https://doc.qt.io/qt-5/qlowenergycharacteristic.html#value" xlink:title=" ">
<polygon fill="none" stroke="black" points="343,-139 343,-169 488,-169 488,-139 343,-139"/>
<text text-anchor="start" x="351" y="-157" font-family="Helvetica,sans-Serif" font-size="10.00">QLowEnergyCharacteristic</text>
<text text-anchor="middle" x="415.5" y="-146" font-family="Helvetica,sans-Serif" font-size="10.00">::value</text>
</a>
</g>
</g>
<!-- Node2&#45;&gt;Node11 -->
<g id="edge11" class="edge">
<title>Node2&#45;&gt;Node11</title>
<path fill="none" stroke="midnightblue" d="M307.03,-152.06C315.34,-152.21 324.02,-152.36 332.69,-152.52"/>
<polygon fill="midnightblue" stroke="midnightblue" points="332.76,-156.02 342.83,-152.7 332.89,-149.02 332.76,-156.02"/>
</g>
<!-- Node4&#45;&gt;Node1 -->
<g id="edge6" class="edge">
<title>Node4&#45;&gt;Node1</title>
<path fill="none" stroke="midnightblue" d="M356.44,-109.13C303.09,-112.92 223.32,-118.59 162.65,-122.91"/>
<polygon fill="midnightblue" stroke="midnightblue" points="162.05,-119.44 152.32,-123.64 162.54,-126.43 162.05,-119.44"/>
</g>
<!-- Node5 -->
<g id="node5" class="node">
<title>Node5</title>
<g id="a_node5"><a target="_parent" xlink:href="https://doc.qt.io/qt-5/qstring.html#arg-11" xlink:title=" ">
<polygon fill="none" stroke="black" points="540.5,-190.5 540.5,-209.5 614.5,-209.5 614.5,-190.5 540.5,-190.5"/>
<text text-anchor="middle" x="577.5" y="-197.5" font-family="Helvetica,sans-Serif" font-size="10.00">QString::arg</text>
</a>
</g>
</g>
<!-- Node4&#45;&gt;Node5 -->
<g id="edge4" class="edge">
<title>Node4&#45;&gt;Node5</title>
<path fill="none" stroke="midnightblue" d="M471.42,-120.16C477.3,-122.94 482.96,-126.2 488,-130 510.15,-146.71 501.94,-164.17 524,-181 526.43,-182.85 529.05,-184.53 531.79,-186.06"/>
<polygon fill="midnightblue" stroke="midnightblue" points="530.28,-189.22 540.8,-190.43 533.33,-182.92 530.28,-189.22"/>
</g>
<!-- Node6 -->
<g id="node6" class="node">
<title>Node6</title>
<g id="a_node6"><a target="_parent" xlink:href="https://doc.qt.io/qt-5/qbytearray.html#at" xlink:title=" ">
<polygon fill="none" stroke="black" points="533.5,-152.5 533.5,-171.5 621.5,-171.5 621.5,-152.5 533.5,-152.5"/>
<text text-anchor="middle" x="577.5" y="-159.5" font-family="Helvetica,sans-Serif" font-size="10.00">QByteArray::at</text>
</a>
</g>
</g>
<!-- Node4&#45;&gt;Node6 -->
<g id="edge5" class="edge">
<title>Node4&#45;&gt;Node6</title>
<path fill="none" stroke="midnightblue" d="M460.01,-120.13C469.25,-123.37 478.96,-126.78 488,-130 493.3,-131.88 518.48,-140.99 540.63,-149.01"/>
<polygon fill="midnightblue" stroke="midnightblue" points="539.6,-152.36 550.2,-152.47 541.98,-145.78 539.6,-152.36"/>
</g>
<!-- Node7 -->
<g id="node7" class="node">
<title>Node7</title>
<g id="a_node7"><a target="_parent" xlink:href="https://doc.qt.io/qt-5/qbytearray.html#mid" xlink:title=" ">
<polygon fill="none" stroke="black" points="529,-114.5 529,-133.5 626,-133.5 626,-114.5 529,-114.5"/>
<text text-anchor="middle" x="577.5" y="-121.5" font-family="Helvetica,sans-Serif" font-size="10.00">QByteArray::mid</text>
</a>
</g>
</g>
<!-- Node4&#45;&gt;Node7 -->
<g id="edge7" class="edge">
<title>Node4&#45;&gt;Node7</title>
<path fill="none" stroke="midnightblue" d="M474.72,-111.91C489.02,-113.61 504.34,-115.43 518.63,-117.13"/>
<polygon fill="midnightblue" stroke="midnightblue" points="518.48,-120.64 528.83,-118.34 519.31,-113.68 518.48,-120.64"/>
</g>
<!-- Node8 -->
<g id="node8" class="node">
<title>Node8</title>
<g id="a_node8"><a target="_parent" xlink:href="https://doc.qt.io/qt-5/qbytearray.html#size" xlink:title=" ">
<polygon fill="none" stroke="black" points="528.5,-76.5 528.5,-95.5 626.5,-95.5 626.5,-76.5 528.5,-76.5"/>
<text text-anchor="middle" x="577.5" y="-83.5" font-family="Helvetica,sans-Serif" font-size="10.00">QByteArray::size</text>
</a>
</g>
</g>
<!-- Node4&#45;&gt;Node8 -->
<g id="edge8" class="edge">
<title>Node4&#45;&gt;Node8</title>
<path fill="none" stroke="midnightblue" d="M474.72,-98.09C488.88,-96.4 504.03,-94.61 518.2,-92.92"/>
<polygon fill="midnightblue" stroke="midnightblue" points="518.8,-96.38 528.31,-91.72 517.97,-89.43 518.8,-96.38"/>
</g>
<!-- Node9 -->
<g id="node9" class="node">
<title>Node9</title>
<g id="a_node9"><a target="_parent" xlink:href="https://doc.qt.io/qt-5/qbytearray.html#toHex" xlink:title=" ">
<polygon fill="none" stroke="black" points="524,-38.5 524,-57.5 631,-57.5 631,-38.5 524,-38.5"/>
<text text-anchor="middle" x="577.5" y="-45.5" font-family="Helvetica,sans-Serif" font-size="10.00">QByteArray::toHex</text>
</a>
</g>
</g>
<!-- Node4&#45;&gt;Node9 -->
<g id="edge9" class="edge">
<title>Node4&#45;&gt;Node9</title>
<path fill="none" stroke="midnightblue" d="M458.96,-89.87C484.18,-80.89 515.85,-69.61 539.95,-61.02"/>
<polygon fill="midnightblue" stroke="midnightblue" points="541.2,-64.29 549.45,-57.64 538.86,-57.7 541.2,-64.29"/>
</g>
<!-- Node10 -->
<g id="node10" class="node">
<title>Node10</title>
<g id="a_node10"><a target="_parent" xlink:href="https://doc.qt.io/qt-5/qobject.html#tr" xlink:title=" ">
<polygon fill="none" stroke="black" points="543,-0.5 543,-19.5 612,-19.5 612,-0.5 543,-0.5"/>
<text text-anchor="middle" x="577.5" y="-7.5" font-family="Helvetica,sans-Serif" font-size="10.00">QObject::tr</text>
</a>
</g>
</g>
<!-- Node4&#45;&gt;Node10 -->
<g id="edge10" class="edge">
<title>Node4&#45;&gt;Node10</title>
<path fill="none" stroke="midnightblue" d="M434.55,-89.94C455.15,-73.31 490.37,-46.56 524,-29 527.97,-26.92 532.23,-24.98 536.52,-23.18"/>
<polygon fill="midnightblue" stroke="midnightblue" points="537.89,-26.41 545.92,-19.5 535.34,-19.89 537.89,-26.41"/>
</g>
</g>
</svg>
