<?xml version="1.0" encoding="UTF-8" standalone="no"?>
<!DOCTYPE svg PUBLIC "-//W3C//DTD SVG 1.1//EN"
 "http://www.w3.org/Graphics/SVG/1.1/DTD/svg11.dtd">
<!-- Generated by graphviz version 2.43.0 (0)
 -->
<!-- Title: DsoCommand::lowestRange Pages: 1 -->
<svg width="360pt" height="161pt"
 viewBox="0.00 0.00 360.00 161.00" xmlns="http://www.w3.org/2000/svg" xmlns:xlink="http://www.w3.org/1999/xlink">
<g id="graph0" class="graph" transform="scale(1 1) rotate(0) translate(4 157)">
<title>DsoCommand::lowestRange</title>
<!-- Node1 -->
<g id="node1" class="node">
<title>Node1</title>
<g id="a_node1"><a xlink:title="Returns the lowest mode range that can measure at least up to desired max, or AutoRange if no such ra...">
<polygon fill="#999999" stroke="#666666" points="155,-86 0,-86 0,-67 155,-67 155,-86"/>
<text text-anchor="middle" x="77.5" y="-74" font-family="Helvetica,sans-Serif" font-size="10.00">DsoCommand::lowestRange</text>
</a>
</g>
</g>
<!-- Node2 -->
<g id="node2" class="node">
<title>Node2</title>
<g id="a_node2"><a target="_parent" xlink:href="https://doc.qt.io/qt-5/qstring.html#arg-11" xlink:title=" ">
<polygon fill="white" stroke="#666666" points="308.5,-153 234.5,-153 234.5,-134 308.5,-134 308.5,-153"/>
<text text-anchor="middle" x="271.5" y="-141" font-family="Helvetica,sans-Serif" font-size="10.00">QString::arg</text>
</a>
</g>
</g>
<!-- Node1&#45;&gt;Node2 -->
<g id="edge1" class="edge">
<title>Node1&#45;&gt;Node2</title>
<path fill="none" stroke="#63b8ff" d="M98.03,-86.03C120.16,-96.55 157.53,-113.45 191,-124.5 202.28,-128.22 214.68,-131.54 226.26,-134.33"/>
<polygon fill="#63b8ff" stroke="#63b8ff" points="234.13,-136.16 225.52,-137.85 230.23,-135.25 226.34,-134.34 226.34,-134.34 226.34,-134.34 230.23,-135.25 227.15,-130.84 234.13,-136.16 234.13,-136.16"/>
</g>
<!-- Node3 -->
<g id="node3" class="node">
<title>Node3</title>
<g id="a_node3"><a xlink:href="classDsoCommand.html#a7591804892fcf259b18ff7e465ad8931" target="_top" xlink:title="Returns the lowest current range that can measure at least up to desired max, or AutoRange if no such...">
<polygon fill="white" stroke="#666666" points="351.5,-115.5 191.5,-115.5 191.5,-85.5 351.5,-85.5 351.5,-115.5"/>
<text text-anchor="start" x="199.5" y="-103.5" font-family="Helvetica,sans-Serif" font-size="10.00">DsoCommand::lowestCurrent</text>
<text text-anchor="middle" x="271.5" y="-92.5" font-family="Helvetica,sans-Serif" font-size="10.00">Range</text>
</a>
</g>
</g>
<!-- Node1&#45;&gt;Node3 -->
<g id="edge2" class="edge">
<title>Node1&#45;&gt;Node3</title>
<path fill="none" stroke="#63b8ff" d="M154.66,-86.02C164.07,-87.2 173.74,-88.4 183.29,-89.6"/>
<polygon fill="#63b8ff" stroke="#63b8ff" points="191.28,-90.6 182.9,-93.18 187.31,-90.1 183.34,-89.61 183.34,-89.61 183.34,-89.61 187.31,-90.1 183.79,-86.03 191.28,-90.6 191.28,-90.6"/>
</g>
<!-- Node4 -->
<g id="node4" class="node">
<title>Node4</title>
<g id="a_node4"><a xlink:href="classDsoCommand.html#ab56ebce50ae16d193004eb2260986515" target="_top" xlink:title="Returns the lowest voltage range that can measure at least up to desired max, or AutoRange if no such...">
<polygon fill="white" stroke="#666666" points="352,-67.5 191,-67.5 191,-37.5 352,-37.5 352,-67.5"/>
<text text-anchor="start" x="199" y="-55.5" font-family="Helvetica,sans-Serif" font-size="10.00">DsoCommand::lowestVoltage</text>
<text text-anchor="middle" x="271.5" y="-44.5" font-family="Helvetica,sans-Serif" font-size="10.00">Range</text>
</a>
</g>
</g>
<!-- Node1&#45;&gt;Node4 -->
<g id="edge3" class="edge">
<title>Node1&#45;&gt;Node4</title>
<path fill="none" stroke="#63b8ff" d="M154.66,-66.98C163.89,-65.83 173.38,-64.64 182.76,-63.47"/>
<polygon fill="#63b8ff" stroke="#63b8ff" points="190.97,-62.44 183.48,-67.01 187,-62.94 183.03,-63.43 183.03,-63.43 183.03,-63.43 187,-62.94 182.58,-59.86 190.97,-62.44 190.97,-62.44"/>
</g>
<!-- Node5 -->
<g id="node5" class="node">
<title>Node5</title>
<g id="a_node5"><a target="_parent" xlink:href="https://doc.qt.io/qt-5/qobject.html#tr" xlink:title=" ">
<polygon fill="white" stroke="#666666" points="306,-19 237,-19 237,0 306,0 306,-19"/>
<text text-anchor="middle" x="271.5" y="-7" font-family="Helvetica,sans-Serif" font-size="10.00">QObject::tr</text>
</a>
</g>
</g>
<!-- Node1&#45;&gt;Node5 -->
<g id="edge4" class="edge">
<title>Node1&#45;&gt;Node5</title>
<path fill="none" stroke="#63b8ff" d="M98.03,-66.97C120.16,-56.45 157.53,-39.55 191,-28.5 203.16,-24.48 216.62,-20.94 228.96,-18.03"/>
<polygon fill="#63b8ff" stroke="#63b8ff" points="236.88,-16.21 229.89,-21.51 232.99,-17.11 229.09,-18 229.09,-18 229.09,-18 232.99,-17.11 228.28,-14.49 236.88,-16.21 236.88,-16.21"/>
</g>
</g>
</svg>
