<?xml version="1.0" encoding="UTF-8" standalone="no"?>
<!DOCTYPE svg PUBLIC "-//W3C//DTD SVG 1.1//EN"
 "http://www.w3.org/Graphics/SVG/1.1/DTD/svg11.dtd">
<!-- Generated by graphviz version 2.43.0 (0)
 -->
<!-- Title: ScanCommand::toJson Pages: 1 -->
<svg width="414pt" height="64pt"
 viewBox="0.00 0.00 414.00 64.00" xmlns="http://www.w3.org/2000/svg" xmlns:xlink="http://www.w3.org/1999/xlink">
<g id="graph0" class="graph" transform="scale(1 1) rotate(0) translate(4 60)">
<title>ScanCommand::toJson</title>
<!-- Node1 -->
<g id="node1" class="node">
<title>Node1</title>
<g id="a_node1"><a xlink:title="Returns minorClass as a JSON value.">
<polygon fill="#999999" stroke="#666666" points="126,-37 0,-37 0,-18 126,-18 126,-37"/>
<text text-anchor="middle" x="63" y="-25" font-family="Helvetica,sans-Serif" font-size="10.00">ScanCommand::toJson</text>
</a>
</g>
</g>
<!-- Node2 -->
<g id="node2" class="node">
<title>Node2</title>
<g id="a_node2"><a xlink:href="classScanCommand.html#a4422f8c5972370796065882a622940e1" target="_top" xlink:title="Returns majorClass as a human&#45;readable string, or a null QString if majorClass is not recognised.">
<polygon fill="white" stroke="#666666" points="296,-37 162,-37 162,-18 296,-18 296,-37"/>
<text text-anchor="middle" x="229" y="-25" font-family="Helvetica,sans-Serif" font-size="10.00">ScanCommand::toString</text>
</a>
</g>
</g>
<!-- Node1&#45;&gt;Node2 -->
<g id="edge1" class="edge">
<title>Node1&#45;&gt;Node2</title>
<path fill="none" stroke="#63b8ff" d="M126,-27.5C135.05,-27.5 144.45,-27.5 153.71,-27.5"/>
<polygon fill="#63b8ff" stroke="#63b8ff" points="161.81,-27.5 153.81,-31.1 157.81,-27.5 153.81,-27.5 153.81,-27.5 153.81,-27.5 157.81,-27.5 153.81,-23.9 161.81,-27.5 161.81,-27.5"/>
</g>
<!-- Node3 -->
<g id="node3" class="node">
<title>Node3</title>
<g id="a_node3"><a target="_parent" xlink:href="https://doc.qt.io/qt-5/qstring.html#arg-1" xlink:title=" ">
<polygon fill="white" stroke="#666666" points="406,-56 332,-56 332,-37 406,-37 406,-56"/>
<text text-anchor="middle" x="369" y="-44" font-family="Helvetica,sans-Serif" font-size="10.00">QString::arg</text>
</a>
</g>
</g>
<!-- Node2&#45;&gt;Node3 -->
<g id="edge2" class="edge">
<title>Node2&#45;&gt;Node3</title>
<path fill="none" stroke="#63b8ff" d="M296.17,-36.61C305.6,-37.91 315.1,-39.22 323.96,-40.44"/>
<polygon fill="#63b8ff" stroke="#63b8ff" points="331.9,-41.53 323.48,-44 327.94,-40.98 323.97,-40.44 323.97,-40.44 323.97,-40.44 327.94,-40.98 324.46,-36.87 331.9,-41.53 331.9,-41.53"/>
</g>
<!-- Node4 -->
<g id="node4" class="node">
<title>Node4</title>
<g id="a_node4"><a target="_parent" xlink:href="https://doc.qt.io/qt-5/qobject.html#tr" xlink:title=" ">
<polygon fill="white" stroke="#666666" points="403.5,-19 334.5,-19 334.5,0 403.5,0 403.5,-19"/>
<text text-anchor="middle" x="369" y="-7" font-family="Helvetica,sans-Serif" font-size="10.00">QObject::tr</text>
</a>
</g>
</g>
<!-- Node2&#45;&gt;Node4 -->
<g id="edge3" class="edge">
<title>Node2&#45;&gt;Node4</title>
<path fill="none" stroke="#63b8ff" d="M296.17,-18.87C306.44,-17.53 316.8,-16.18 326.33,-14.94"/>
<polygon fill="#63b8ff" stroke="#63b8ff" points="334.46,-13.87 326.99,-18.48 330.5,-14.39 326.53,-14.91 326.53,-14.91 326.53,-14.91 330.5,-14.39 326.06,-11.34 334.46,-13.87 334.46,-13.87"/>
</g>
</g>
</svg>
