<?xml version="1.0" encoding="UTF-8" standalone="no"?>
<!DOCTYPE svg PUBLIC "-//W3C//DTD SVG 1.1//EN"
 "http://www.w3.org/Graphics/SVG/1.1/DTD/svg11.dtd">
<!-- Generated by graphviz version 2.43.0 (0)
 -->
<!-- Title: PokitDevice Pages: 1 -->
<svg width="1098pt" height="544pt"
 viewBox="0.00 0.00 1098.00 544.00" xmlns="http://www.w3.org/2000/svg" xmlns:xlink="http://www.w3.org/1999/xlink">
<g id="graph0" class="graph" transform="scale(1 1) rotate(0) translate(4 540)">
<title>PokitDevice</title>
<!-- Node1 -->
<g id="node1" class="node">
<title>Node1</title>
<g id="a_node1"><a xlink:title="The PokitDevice class simplifies Pokit device access.">
<polygon fill="#bfbfbf" stroke="black" points="118,-468.5 118,-487.5 193,-487.5 193,-468.5 118,-468.5"/>
<text text-anchor="middle" x="155.5" y="-475.5" font-family="Helvetica,sans-Serif" font-size="10.00">PokitDevice</text>
</a>
</g>
</g>
<!-- Node3 -->
<g id="node3" class="node">
<title>Node3</title>
<g id="a_node3"><a xlink:href="classPokitDevicePrivate.html" target="_top" xlink:title="The PokitDevicePrivate class provides private implementation for PokitDevice.">
<polygon fill="none" stroke="black" points="980,-276.5 980,-295.5 1090,-295.5 1090,-276.5 980,-276.5"/>
<text text-anchor="middle" x="1035" y="-283.5" font-family="Helvetica,sans-Serif" font-size="10.00">PokitDevicePrivate</text>
</a>
</g>
</g>
<!-- Node1&#45;&gt;Node3 -->
<g id="edge35" class="edge">
<title>Node1&#45;&gt;Node3</title>
<path fill="none" stroke="#9a32cd" stroke-dasharray="5,2" d="M194.7,-490.54C240.55,-504.47 320.03,-525 390,-525 390,-525 390,-525 782,-525 864.8,-525 900.6,-532.55 962,-477 1018.23,-426.12 1030.76,-326.84 1033.36,-295.63"/>
<polygon fill="#9a32cd" stroke="#9a32cd" points="195.47,-487.12 184.89,-487.51 193.41,-493.81 195.47,-487.12"/>
<text text-anchor="middle" x="623" y="-528" font-family="Helvetica,sans-Serif" font-size="10.00"> q_ptr</text>
</g>
<!-- Node2 -->
<g id="node2" class="node">
<title>Node2</title>
<g id="a_node2"><a target="_parent" xlink:href="https://doc.qt.io/qt-5/qobject.html" xlink:title=" ">
<polygon fill="none" stroke="#bfbfbf" points="0,-357.5 0,-376.5 56,-376.5 56,-357.5 0,-357.5"/>
<text text-anchor="middle" x="28" y="-364.5" font-family="Helvetica,sans-Serif" font-size="10.00">QObject</text>
</a>
</g>
</g>
<!-- Node2&#45;&gt;Node1 -->
<g id="edge1" class="edge">
<title>Node2&#45;&gt;Node1</title>
<path fill="none" stroke="midnightblue" d="M35.77,-386.46C42.82,-404.15 55.46,-429.88 74,-446 86.48,-456.85 103.1,-464.29 118,-469.24"/>
<polygon fill="midnightblue" stroke="midnightblue" points="38.88,-384.78 32.1,-376.64 32.32,-387.23 38.88,-384.78"/>
</g>
<!-- Node2&#45;&gt;Node3 -->
<g id="edge3" class="edge">
<title>Node2&#45;&gt;Node3</title>
<path fill="none" stroke="midnightblue" d="M46.72,-383.14C69.77,-402.39 112.1,-432 154.5,-432 154.5,-432 154.5,-432 782,-432 891.21,-432 995.53,-328.06 1025.46,-295.58"/>
<polygon fill="midnightblue" stroke="midnightblue" points="49,-380.48 39.14,-376.59 44.42,-385.78 49,-380.48"/>
</g>
<!-- Node4 -->
<g id="node4" class="node">
<title>Node4</title>
<g id="a_node4"><a target="_parent" xlink:href="https://doc.qt.io/qt-5/qlowenergycontroller.html" xlink:title=" ">
<polygon fill="none" stroke="#bfbfbf" points="93,-376.5 93,-395.5 218,-395.5 218,-376.5 93,-376.5"/>
<text text-anchor="middle" x="155.5" y="-383.5" font-family="Helvetica,sans-Serif" font-size="10.00">QLowEnergyController</text>
</a>
</g>
</g>
<!-- Node2&#45;&gt;Node4 -->
<g id="edge5" class="edge">
<title>Node2&#45;&gt;Node4</title>
<path fill="none" stroke="midnightblue" d="M66.36,-372.66C74.71,-373.92 83.77,-375.29 92.81,-376.66"/>
<polygon fill="midnightblue" stroke="midnightblue" points="66.64,-369.16 56.23,-371.12 65.6,-376.08 66.64,-369.16"/>
</g>
<!-- Node6 -->
<g id="node6" class="node">
<title>Node6</title>
<g id="a_node6"><a xlink:href="classAbstractPokitService.html" target="_top" xlink:title="The AbstractPokitService class provides a common base for Pokit services classes.">
<polygon fill="none" stroke="black" points="564,-251.5 564,-270.5 682,-270.5 682,-251.5 564,-251.5"/>
<text text-anchor="middle" x="623" y="-258.5" font-family="Helvetica,sans-Serif" font-size="10.00">AbstractPokitService</text>
</a>
</g>
</g>
<!-- Node2&#45;&gt;Node6 -->
<g id="edge8" class="edge">
<title>Node2&#45;&gt;Node6</title>
<path fill="none" stroke="midnightblue" d="M39.21,-348.48C50.08,-330.65 69.02,-304.47 93,-291 252.6,-201.35 483.73,-232.95 578.74,-251.47"/>
<polygon fill="midnightblue" stroke="midnightblue" points="36.02,-346.99 34.02,-357.39 42.07,-350.51 36.02,-346.99"/>
</g>
<!-- Node7 -->
<g id="node7" class="node">
<title>Node7</title>
<g id="a_node7"><a xlink:href="classAbstractPokitServicePrivate.html" target="_top" xlink:title="The AbstractPokitServicePrivate class provides private implementation for AbstractPokitService.">
<polygon fill="none" stroke="black" points="315,-308.5 315,-327.5 467,-327.5 467,-308.5 315,-308.5"/>
<text text-anchor="middle" x="391" y="-315.5" font-family="Helvetica,sans-Serif" font-size="10.00">AbstractPokitServicePrivate</text>
</a>
</g>
</g>
<!-- Node2&#45;&gt;Node7 -->
<g id="edge10" class="edge">
<title>Node2&#45;&gt;Node7</title>
<path fill="none" stroke="midnightblue" d="M66.23,-361.95C125.88,-353.85 243.86,-337.84 319.73,-327.54"/>
<polygon fill="midnightblue" stroke="midnightblue" points="65.57,-358.5 56.13,-363.32 66.51,-365.44 65.57,-358.5"/>
</g>
<!-- Node8 -->
<g id="node8" class="node">
<title>Node8</title>
<g id="a_node8"><a target="_parent" xlink:href="https://doc.qt.io/qt-5/qlowenergyservice.html" xlink:title=" ">
<polygon fill="none" stroke="#bfbfbf" points="99,-300.5 99,-319.5 212,-319.5 212,-300.5 99,-300.5"/>
<text text-anchor="middle" x="155.5" y="-307.5" font-family="Helvetica,sans-Serif" font-size="10.00">QLowEnergyService</text>
</a>
</g>
</g>
<!-- Node2&#45;&gt;Node8 -->
<g id="edge13" class="edge">
<title>Node2&#45;&gt;Node8</title>
<path fill="none" stroke="midnightblue" d="M48,-350.82C55.69,-344.88 64.9,-338.52 74,-334 86.01,-328.03 99.79,-323.25 112.51,-319.58"/>
<polygon fill="midnightblue" stroke="midnightblue" points="45.36,-348.45 39.77,-357.44 49.75,-353.9 45.36,-348.45"/>
</g>
<!-- Node3&#45;&gt;Node1 -->
<g id="edge2" class="edge">
<title>Node3&#45;&gt;Node1</title>
<path fill="none" stroke="#9a32cd" stroke-dasharray="5,2" d="M1031.09,-306.05C1024.95,-340.51 1007.33,-410.68 962,-446 897.91,-495.94 863.25,-478 782,-478 390,-478 390,-478 390,-478 320.48,-478 239.31,-478 193.3,-478"/>
<polygon fill="#9a32cd" stroke="#9a32cd" points="1034.6,-306.27 1032.75,-295.83 1027.69,-305.14 1034.6,-306.27"/>
<text text-anchor="middle" x="623" y="-481" font-family="Helvetica,sans-Serif" font-size="10.00"> d_ptr</text>
</g>
<!-- Node4&#45;&gt;Node3 -->
<g id="edge4" class="edge">
<title>Node4&#45;&gt;Node3</title>
<path fill="none" stroke="#9a32cd" stroke-dasharray="5,2" d="M228.35,-388.55C250.38,-388.92 274.7,-388.92 297,-388 540.28,-377.99 600.72,-367.23 843,-343 895.99,-337.7 911.58,-346.14 962,-329 984.61,-321.31 1007.8,-305.83 1021.55,-295.69"/>
<polygon fill="#9a32cd" stroke="#9a32cd" points="228.14,-385.05 218.07,-388.35 228,-392.05 228.14,-385.05"/>
<text text-anchor="middle" x="623" y="-374" font-family="Helvetica,sans-Serif" font-size="10.00"> controller</text>
</g>
<!-- Node4&#45;&gt;Node7 -->
<g id="edge11" class="edge">
<title>Node4&#45;&gt;Node7</title>
<path fill="none" stroke="#9a32cd" stroke-dasharray="5,2" d="M228.18,-375.44C250.49,-371.3 275,-365.87 297,-359 323.78,-350.64 353.17,-336.85 371.6,-327.6"/>
<polygon fill="#9a32cd" stroke="#9a32cd" points="227.32,-372.04 218.1,-377.26 228.56,-378.93 227.32,-372.04"/>
<text text-anchor="middle" x="266.5" y="-376" font-family="Helvetica,sans-Serif" font-size="10.00"> controller</text>
</g>
<!-- Node5 -->
<g id="node5" class="node">
<title>Node5</title>
<g id="a_node5"><a xlink:href="classCalibrationService.html" target="_top" xlink:title="The CalibrationService class accesses the Calibrartion service of Pokit devices.">
<polygon fill="none" stroke="black" points="728,-276.5 728,-295.5 834,-295.5 834,-276.5 728,-276.5"/>
<text text-anchor="middle" x="781" y="-283.5" font-family="Helvetica,sans-Serif" font-size="10.00">CalibrationService</text>
</a>
</g>
</g>
<!-- Node5&#45;&gt;Node3 -->
<g id="edge6" class="edge">
<title>Node5&#45;&gt;Node3</title>
<path fill="none" stroke="#9a32cd" stroke-dasharray="5,2" d="M844.22,-286C885.76,-286 939.87,-286 979.68,-286"/>
<polygon fill="#9a32cd" stroke="#9a32cd" points="844.21,-282.5 834.21,-286 844.21,-289.5 844.21,-282.5"/>
<text text-anchor="middle" x="911.5" y="-289" font-family="Helvetica,sans-Serif" font-size="10.00"> calibration</text>
</g>
<!-- Node6&#45;&gt;Node5 -->
<g id="edge7" class="edge">
<title>Node6&#45;&gt;Node5</title>
<path fill="none" stroke="midnightblue" d="M692.05,-271.91C704.03,-273.82 716.32,-275.8 727.78,-277.63"/>
<polygon fill="midnightblue" stroke="midnightblue" points="692.52,-268.44 682.09,-270.31 691.41,-275.35 692.52,-268.44"/>
</g>
<!-- Node6&#45;&gt;Node7 -->
<g id="edge16" class="edge">
<title>Node6&#45;&gt;Node7</title>
<path fill="none" stroke="#9a32cd" stroke-dasharray="5,2" d="M553.62,-260.1C531.06,-261.84 506.31,-266.03 485,-275 475.4,-279.04 476.01,-284.77 467,-290 453.9,-297.61 438.36,-303.81 424.83,-308.43"/>
<polygon fill="#9a32cd" stroke="#9a32cd" points="554.05,-263.58 563.81,-259.46 553.62,-256.59 554.05,-263.58"/>
<text text-anchor="middle" x="515.5" y="-278" font-family="Helvetica,sans-Serif" font-size="10.00"> q_ptr</text>
</g>
<!-- Node11 -->
<g id="node11" class="node">
<title>Node11</title>
<g id="a_node11"><a xlink:href="classDataLoggerService.html" target="_top" xlink:title="The DataLoggerService class accesses the Pokit Status service of Pokit devices.">
<polygon fill="none" stroke="black" points="726.5,-189.5 726.5,-208.5 835.5,-208.5 835.5,-189.5 726.5,-189.5"/>
<text text-anchor="middle" x="781" y="-196.5" font-family="Helvetica,sans-Serif" font-size="10.00">DataLoggerService</text>
</a>
</g>
</g>
<!-- Node6&#45;&gt;Node11 -->
<g id="edge19" class="edge">
<title>Node6&#45;&gt;Node11</title>
<path fill="none" stroke="midnightblue" d="M657.54,-247.67C687.15,-235.9 729.59,-219.03 755.94,-208.56"/>
<polygon fill="midnightblue" stroke="midnightblue" points="656.03,-244.5 648.03,-251.45 658.62,-251.01 656.03,-244.5"/>
</g>
<!-- Node12 -->
<g id="node12" class="node">
<title>Node12</title>
<g id="a_node12"><a xlink:href="classDeviceInfoService.html" target="_top" xlink:title="The DeviceInfoService class accesses the Device Info service of Pokit devices.">
<polygon fill="none" stroke="black" points="728.5,-238.5 728.5,-257.5 833.5,-257.5 833.5,-238.5 728.5,-238.5"/>
<text text-anchor="middle" x="781" y="-245.5" font-family="Helvetica,sans-Serif" font-size="10.00">DeviceInfoService</text>
</a>
</g>
</g>
<!-- Node6&#45;&gt;Node12 -->
<g id="edge22" class="edge">
<title>Node6&#45;&gt;Node12</title>
<path fill="none" stroke="midnightblue" d="M692.17,-255.32C704.28,-254.31 716.72,-253.27 728.29,-252.31"/>
<polygon fill="midnightblue" stroke="midnightblue" points="691.76,-251.84 682.09,-256.16 692.34,-258.82 691.76,-251.84"/>
</g>
<!-- Node13 -->
<g id="node13" class="node">
<title>Node13</title>
<g id="a_node13"><a xlink:href="classGenericAccessService.html" target="_top" xlink:title="The GenericAccessService class accesses the Generic Access service of Pokit devices.">
<polygon fill="none" stroke="black" points="719,-151.5 719,-170.5 843,-170.5 843,-151.5 719,-151.5"/>
<text text-anchor="middle" x="781" y="-158.5" font-family="Helvetica,sans-Serif" font-size="10.00">GenericAccessService</text>
</a>
</g>
</g>
<!-- Node6&#45;&gt;Node13 -->
<g id="edge25" class="edge">
<title>Node6&#45;&gt;Node13</title>
<path fill="none" stroke="midnightblue" d="M639.96,-243.75C657.68,-225.55 687.89,-197.16 719,-180 725.8,-176.25 733.44,-173.13 740.96,-170.58"/>
<polygon fill="midnightblue" stroke="midnightblue" points="637.11,-241.67 632.74,-251.32 642.18,-246.5 637.11,-241.67"/>
</g>
<!-- Node14 -->
<g id="node14" class="node">
<title>Node14</title>
<g id="a_node14"><a xlink:href="classMultimeterService.html" target="_top" xlink:title="The MultimeterService class accesses the Pokit Status service of Pokit devices.">
<polygon fill="none" stroke="black" points="727.5,-314.5 727.5,-333.5 834.5,-333.5 834.5,-314.5 727.5,-314.5"/>
<text text-anchor="middle" x="781" y="-321.5" font-family="Helvetica,sans-Serif" font-size="10.00">MultimeterService</text>
</a>
</g>
</g>
<!-- Node6&#45;&gt;Node14 -->
<g id="edge28" class="edge">
<title>Node6&#45;&gt;Node14</title>
<path fill="none" stroke="midnightblue" d="M651.74,-275.03C670.47,-284.2 695.89,-296.09 719,-305 727.8,-308.39 737.48,-311.62 746.48,-314.43"/>
<polygon fill="midnightblue" stroke="midnightblue" points="653.13,-271.81 642.61,-270.51 650.02,-278.08 653.13,-271.81"/>
</g>
<!-- Node15 -->
<g id="node15" class="node">
<title>Node15</title>
<g id="a_node15"><a xlink:href="classStatusService.html" target="_top" xlink:title="The StatusService class accesses the Pokit Status service of Pokit devices.">
<polygon fill="none" stroke="black" points="739.5,-113.5 739.5,-132.5 822.5,-132.5 822.5,-113.5 739.5,-113.5"/>
<text text-anchor="middle" x="781" y="-120.5" font-family="Helvetica,sans-Serif" font-size="10.00">StatusService</text>
</a>
</g>
</g>
<!-- Node6&#45;&gt;Node15 -->
<g id="edge31" class="edge">
<title>Node6&#45;&gt;Node15</title>
<path fill="none" stroke="midnightblue" d="M633.98,-242.48C649.01,-216.3 679.91,-168.72 719,-142 725.14,-137.81 732.24,-134.51 739.38,-131.92"/>
<polygon fill="midnightblue" stroke="midnightblue" points="630.83,-240.93 629.01,-251.37 636.94,-244.35 630.83,-240.93"/>
</g>
<!-- Node7&#45;&gt;Node6 -->
<g id="edge9" class="edge">
<title>Node7&#45;&gt;Node6</title>
<path fill="none" stroke="#9a32cd" stroke-dasharray="5,2" d="M462.04,-306.63C488.54,-301.74 518.86,-295.42 546,-288 563.69,-283.16 583.18,-276.21 597.99,-270.57"/>
<polygon fill="#9a32cd" stroke="#9a32cd" points="461.3,-303.21 452.08,-308.44 462.55,-310.1 461.3,-303.21"/>
<text text-anchor="middle" x="515.5" y="-304" font-family="Helvetica,sans-Serif" font-size="10.00"> d_ptr</text>
</g>
<!-- Node8&#45;&gt;Node7 -->
<g id="edge12" class="edge">
<title>Node8&#45;&gt;Node7</title>
<path fill="none" stroke="#9a32cd" stroke-dasharray="5,2" d="M222.49,-312.26C251.28,-313.25 285.18,-314.41 314.92,-315.43"/>
<polygon fill="#9a32cd" stroke="#9a32cd" points="222.25,-308.75 212.13,-311.91 222.01,-315.75 222.25,-308.75"/>
<text text-anchor="middle" x="266.5" y="-317" font-family="Helvetica,sans-Serif" font-size="10.00"> service</text>
</g>
<!-- Node9 -->
<g id="node9" class="node">
<title>Node9</title>
<g id="a_node9"><a target="_parent" xlink:href="https://doc.qt.io/qt-5/qbluetoothuuid.html" xlink:title=" ">
<polygon fill="none" stroke="#bfbfbf" points="108.5,-152.5 108.5,-171.5 202.5,-171.5 202.5,-152.5 108.5,-152.5"/>
<text text-anchor="middle" x="155.5" y="-159.5" font-family="Helvetica,sans-Serif" font-size="10.00">QBluetoothUuid</text>
</a>
</g>
</g>
<!-- Node9&#45;&gt;Node5 -->
<g id="edge17" class="edge">
<title>Node9&#45;&gt;Node5</title>
<path fill="none" stroke="#9a32cd" stroke-dasharray="5,2" d="M213.14,-169.19C339.92,-185.49 638.84,-225.13 682,-242 700.48,-249.23 701.11,-258.4 719,-267 726.6,-270.65 735.06,-273.81 743.21,-276.45"/>
<polygon fill="#9a32cd" stroke="#9a32cd" points="213.23,-165.67 202.87,-167.87 212.34,-172.61 213.23,-165.67"/>
<text text-anchor="middle" x="515.5" y="-218" font-family="Helvetica,sans-Serif" font-size="10.00"> serviceUuid</text>
</g>
<!-- Node9&#45;&gt;Node7 -->
<g id="edge14" class="edge">
<title>Node9&#45;&gt;Node7</title>
<path fill="none" stroke="#9a32cd" stroke-dasharray="5,2" d="M170.36,-179.6C185.16,-197.52 210.01,-225.27 236,-244 276.79,-273.39 331.08,-296.3 363.11,-308.43"/>
<polygon fill="#9a32cd" stroke="#9a32cd" points="172.96,-177.24 163.95,-171.67 167.52,-181.65 172.96,-177.24"/>
<text text-anchor="middle" x="266.5" y="-282" font-family="Helvetica,sans-Serif" font-size="10.00"> serviceUuid</text>
</g>
<!-- Node9&#45;&gt;Node11 -->
<g id="edge20" class="edge">
<title>Node9&#45;&gt;Node11</title>
<path fill="none" stroke="#9a32cd" stroke-dasharray="5,2" d="M204.03,-150.24C298.78,-129.19 516.35,-92.95 682,-157 700.06,-163.98 701.39,-171.94 719,-180 726.87,-183.6 735.6,-186.77 743.95,-189.44"/>
<polygon fill="#9a32cd" stroke="#9a32cd" points="203.14,-146.85 194.17,-152.48 204.69,-153.68 203.14,-146.85"/>
<text text-anchor="middle" x="515.5" y="-128" font-family="Helvetica,sans-Serif" font-size="10.00"> serviceUuid</text>
</g>
<!-- Node9&#45;&gt;Node12 -->
<g id="edge23" class="edge">
<title>Node9&#45;&gt;Node12</title>
<path fill="none" stroke="#9a32cd" stroke-dasharray="5,2" d="M212.94,-158.9C288.98,-155.67 428.39,-153.03 546,-169 607.85,-177.4 623.1,-183.37 682,-204 710.34,-213.93 741.79,-228.77 761.24,-238.42"/>
<polygon fill="#9a32cd" stroke="#9a32cd" points="212.47,-155.42 202.64,-159.36 212.78,-162.41 212.47,-155.42"/>
<text text-anchor="middle" x="515.5" y="-172" font-family="Helvetica,sans-Serif" font-size="10.00"> serviceUuid</text>
</g>
<!-- Node9&#45;&gt;Node13 -->
<g id="edge26" class="edge">
<title>Node9&#45;&gt;Node13</title>
<path fill="none" stroke="#9a32cd" stroke-dasharray="5,2" d="M175.2,-145.81C190.46,-133.64 213.16,-117.77 236,-110 366.69,-65.57 408.02,-87 546,-91 614.98,-93 644.52,-60.36 701,-100 717.62,-111.67 703.92,-128.4 719,-142 723.28,-145.86 728.34,-148.94 733.69,-151.39"/>
<polygon fill="#9a32cd" stroke="#9a32cd" points="172.62,-143.4 167.13,-152.47 177.08,-148.81 172.62,-143.4"/>
<text text-anchor="middle" x="515.5" y="-94" font-family="Helvetica,sans-Serif" font-size="10.00"> serviceUuid</text>
</g>
<!-- Node9&#45;&gt;Node14 -->
<g id="edge29" class="edge">
<title>Node9&#45;&gt;Node14</title>
<path fill="none" stroke="#9a32cd" stroke-dasharray="5,2" d="M190.86,-175.44C261.13,-203.19 418.7,-266.92 467,-299 476.17,-305.09 474.83,-311.8 485,-316 564.43,-348.83 666.43,-342.07 727.32,-333.51"/>
<polygon fill="#9a32cd" stroke="#9a32cd" points="191.74,-172.02 181.15,-171.61 189.17,-178.53 191.74,-172.02"/>
<text text-anchor="middle" x="515.5" y="-336" font-family="Helvetica,sans-Serif" font-size="10.00"> serviceUuid</text>
</g>
<!-- Node9&#45;&gt;Node15 -->
<g id="edge32" class="edge">
<title>Node9&#45;&gt;Node15</title>
<path fill="none" stroke="#9a32cd" stroke-dasharray="5,2" d="M170.1,-144.01C184.42,-126.53 208.66,-100.8 236,-88 268.05,-73 279.72,-80.75 315,-78 477.62,-65.35 523.36,-38.08 682,-76 713.38,-83.5 746.57,-101.95 765.14,-113.38"/>
<polygon fill="#9a32cd" stroke="#9a32cd" points="167.01,-142.28 163.55,-152.29 172.5,-146.62 167.01,-142.28"/>
<text text-anchor="middle" x="515.5" y="-62" font-family="Helvetica,sans-Serif" font-size="10.00"> serviceUuid</text>
</g>
<!-- Node10 -->
<g id="node10" class="node">
<title>Node10</title>
<g id="a_node10"><a target="_parent" xlink:href="https://doc.qt.io/qt-5/quuid.html" xlink:title=" ">
<polygon fill="none" stroke="#bfbfbf" points="4.5,-152.5 4.5,-171.5 51.5,-171.5 51.5,-152.5 4.5,-152.5"/>
<text text-anchor="middle" x="28" y="-159.5" font-family="Helvetica,sans-Serif" font-size="10.00">QUuid</text>
</a>
</g>
</g>
<!-- Node10&#45;&gt;Node9 -->
<g id="edge15" class="edge">
<title>Node10&#45;&gt;Node9</title>
<path fill="none" stroke="midnightblue" d="M61.97,-162C76.13,-162 92.92,-162 108.29,-162"/>
<polygon fill="midnightblue" stroke="midnightblue" points="61.73,-158.5 51.73,-162 61.73,-165.5 61.73,-158.5"/>
</g>
<!-- Node11&#45;&gt;Node3 -->
<g id="edge18" class="edge">
<title>Node11&#45;&gt;Node3</title>
<path fill="none" stroke="#9a32cd" stroke-dasharray="5,2" d="M845.88,-209.19C880.99,-216.04 924.83,-226.66 962,-242 984.07,-251.11 1007.23,-266.46 1021.14,-276.41"/>
<polygon fill="#9a32cd" stroke="#9a32cd" points="846.23,-205.7 835.75,-207.27 844.92,-212.57 846.23,-205.7"/>
<text text-anchor="middle" x="911.5" y="-245" font-family="Helvetica,sans-Serif" font-size="10.00"> dataLogger</text>
</g>
<!-- Node12&#45;&gt;Node3 -->
<g id="edge21" class="edge">
<title>Node12&#45;&gt;Node3</title>
<path fill="none" stroke="#9a32cd" stroke-dasharray="5,2" d="M843.78,-254.68C878.6,-258.75 922.83,-264.43 962,-271 971.44,-272.58 981.53,-274.53 991.08,-276.48"/>
<polygon fill="#9a32cd" stroke="#9a32cd" points="844.09,-251.2 833.75,-253.52 843.29,-258.15 844.09,-251.2"/>
<text text-anchor="middle" x="911.5" y="-274" font-family="Helvetica,sans-Serif" font-size="10.00"> deviceInfo</text>
</g>
<!-- Node13&#45;&gt;Node3 -->
<g id="edge24" class="edge">
<title>Node13&#45;&gt;Node3</title>
<path fill="none" stroke="#9a32cd" stroke-dasharray="5,2" d="M853.39,-164.01C888.22,-168.18 929.49,-177.33 962,-197 994.99,-216.96 1019.33,-257.78 1029.18,-276.38"/>
<polygon fill="#9a32cd" stroke="#9a32cd" points="853.61,-160.51 843.29,-162.91 852.85,-167.47 853.61,-160.51"/>
<text text-anchor="middle" x="911.5" y="-200" font-family="Helvetica,sans-Serif" font-size="10.00"> genericAccess</text>
</g>
<!-- Node14&#45;&gt;Node3 -->
<g id="edge27" class="edge">
<title>Node14&#45;&gt;Node3</title>
<path fill="none" stroke="#9a32cd" stroke-dasharray="5,2" d="M844.49,-316.6C879.18,-312.25 923.06,-306.38 962,-300 970.17,-298.66 978.83,-297.1 987.21,-295.52"/>
<polygon fill="#9a32cd" stroke="#9a32cd" points="843.99,-313.13 834.5,-317.84 844.86,-320.08 843.99,-313.13"/>
<text text-anchor="middle" x="911.5" y="-317" font-family="Helvetica,sans-Serif" font-size="10.00"> multimeter</text>
</g>
<!-- Node15&#45;&gt;Node3 -->
<g id="edge30" class="edge">
<title>Node15&#45;&gt;Node3</title>
<path fill="none" stroke="#9a32cd" stroke-dasharray="5,2" d="M832.69,-118.89C871.47,-118.33 924.48,-123.42 962,-150 1007.12,-181.97 1026.35,-251.16 1032.06,-276.47"/>
<polygon fill="#9a32cd" stroke="#9a32cd" points="832.56,-115.39 822.66,-119.17 832.75,-122.39 832.56,-115.39"/>
<text text-anchor="middle" x="911.5" y="-153" font-family="Helvetica,sans-Serif" font-size="10.00"> status</text>
</g>
<!-- Node16 -->
<g id="node16" class="node">
<title>Node16</title>
<g id="a_node16"><a target="_parent" xlink:href="https://doc.qt.io/qt-5/qmutex.html" xlink:title=" ">
<polygon fill="none" stroke="#bfbfbf" points="753.5,-1.5 753.5,-20.5 808.5,-20.5 808.5,-1.5 753.5,-1.5"/>
<text text-anchor="middle" x="781" y="-8.5" font-family="Helvetica,sans-Serif" font-size="10.00">QMutex</text>
</a>
</g>
</g>
<!-- Node16&#45;&gt;Node3 -->
<g id="edge33" class="edge">
<title>Node16&#45;&gt;Node3</title>
<path fill="none" stroke="#9a32cd" stroke-dasharray="5,2" d="M818.68,-5.84C858.79,-2.37 922.59,-3.53 962,-38 1036.08,-102.78 1036.06,-238.8 1034.54,-276.26"/>
<polygon fill="#9a32cd" stroke="#9a32cd" points="818.13,-2.38 808.53,-6.86 818.83,-9.34 818.13,-2.38"/>
<text text-anchor="middle" x="911.5" y="-107" font-family="Helvetica,sans-Serif" font-size="10.00"> calibrationMutex</text>
<text text-anchor="middle" x="911.5" y="-96" font-family="Helvetica,sans-Serif" font-size="10.00">dataLoggerMutex</text>
<text text-anchor="middle" x="911.5" y="-85" font-family="Helvetica,sans-Serif" font-size="10.00">deviceInfoMutex</text>
<text text-anchor="middle" x="911.5" y="-74" font-family="Helvetica,sans-Serif" font-size="10.00">dsoMutex</text>
<text text-anchor="middle" x="911.5" y="-63" font-family="Helvetica,sans-Serif" font-size="10.00">genericAccessMutex</text>
<text text-anchor="middle" x="911.5" y="-52" font-family="Helvetica,sans-Serif" font-size="10.00">multimeterMutex</text>
<text text-anchor="middle" x="911.5" y="-41" font-family="Helvetica,sans-Serif" font-size="10.00">statusMutex</text>
</g>
<!-- Node17 -->
<g id="node17" class="node">
<title>Node17</title>
<g id="a_node17"><a xlink:title=" ">
<polygon fill="none" stroke="#bfbfbf" points="582.5,-0.5 582.5,-19.5 663.5,-19.5 663.5,-0.5 582.5,-0.5"/>
<text text-anchor="middle" x="623" y="-7.5" font-family="Helvetica,sans-Serif" font-size="10.00">QBasicMutex</text>
</a>
</g>
</g>
<!-- Node17&#45;&gt;Node16 -->
<g id="edge34" class="edge">
<title>Node17&#45;&gt;Node16</title>
<path fill="none" stroke="midnightblue" d="M673.93,-10.32C700.19,-10.49 731.34,-10.69 753.07,-10.83"/>
<polygon fill="midnightblue" stroke="midnightblue" points="673.79,-6.82 663.77,-10.25 673.75,-13.82 673.79,-6.82"/>
</g>
</g>
</svg>
