<?xml version="1.0" encoding="UTF-8" standalone="no"?>
<!DOCTYPE svg PUBLIC "-//W3C//DTD SVG 1.1//EN"
 "http://www.w3.org/Graphics/SVG/1.1/DTD/svg11.dtd">
<!-- Generated by graphviz version 2.43.0 (0)
 -->
<!-- Title: MeterCommand::getService Pages: 1 -->
<svg width="954pt" height="455pt"
 viewBox="0.00 0.00 954.00 455.32" xmlns="http://www.w3.org/2000/svg" xmlns:xlink="http://www.w3.org/1999/xlink">
<g id="graph0" class="graph" transform="scale(1 1) rotate(0) translate(4 451.32)">
<title>MeterCommand::getService</title>
<!-- Node1 -->
<g id="node1" class="node">
<title>Node1</title>
<g id="a_node1"><a xlink:title="Returns a Pokit service object for the derived command class.">
<polygon fill="#999999" stroke="#666666" points="153,-224.32 0,-224.32 0,-205.32 153,-205.32 153,-224.32"/>
<text text-anchor="middle" x="76.5" y="-212.32" font-family="Helvetica,sans-Serif" font-size="10.00">MeterCommand::getService</text>
</a>
</g>
</g>
<!-- Node2 -->
<g id="node2" class="node">
<title>Node2</title>
<g id="a_node2"><a target="_parent" xlink:href="https://doc.qt.io/qt-5/qobject.html#connect" xlink:title=" ">
<polygon fill="white" stroke="#666666" points="537.5,-262.32 437.5,-262.32 437.5,-243.32 537.5,-243.32 537.5,-262.32"/>
<text text-anchor="middle" x="487.5" y="-250.32" font-family="Helvetica,sans-Serif" font-size="10.00">QObject::connect</text>
</a>
</g>
</g>
<!-- Node1&#45;&gt;Node2 -->
<g id="edge1" class="edge">
<title>Node1&#45;&gt;Node2</title>
<path fill="none" stroke="#63b8ff" d="M130.11,-224.34C148.67,-227.43 169.71,-230.62 189,-232.82 272.26,-242.32 369.19,-247.8 429.2,-250.55"/>
<polygon fill="#63b8ff" stroke="#63b8ff" points="437.42,-250.92 429.26,-254.16 433.42,-250.74 429.42,-250.56 429.42,-250.56 429.42,-250.56 433.42,-250.74 429.59,-246.96 437.42,-250.92 437.42,-250.92"/>
</g>
<!-- Node3 -->
<g id="node3" class="node">
<title>Node3</title>
<g id="a_node3"><a xlink:href="classPokitDevice.html#a7b4467f667ace65992a8fd152e9799ce" target="_top" xlink:title="Returns a pointer to MultimeterService instance that uses this device&#39;s controller for access.">
<polygon fill="white" stroke="#666666" points="345,-169.32 209,-169.32 209,-150.32 345,-150.32 345,-169.32"/>
<text text-anchor="middle" x="277" y="-157.32" font-family="Helvetica,sans-Serif" font-size="10.00">PokitDevice::multimeter</text>
</a>
</g>
</g>
<!-- Node1&#45;&gt;Node3 -->
<g id="edge2" class="edge">
<title>Node1&#45;&gt;Node3</title>
<path fill="none" stroke="#63b8ff" d="M112.08,-205.24C145.84,-195.88 197.3,-181.63 233.54,-171.59"/>
<polygon fill="#63b8ff" stroke="#63b8ff" points="241.49,-169.38 234.74,-174.99 237.63,-170.45 233.78,-171.52 233.78,-171.52 233.78,-171.52 237.63,-170.45 232.82,-168.05 241.49,-169.38 241.49,-169.38"/>
</g>
<!-- Node4 -->
<g id="node4" class="node">
<title>Node4</title>
<g id="a_node4"><a xlink:href="classMeterCommand.html#a994e13d73c26eac303fa34b14082c9a4" target="_top" xlink:title="Invoked when the multimeter settings have been written, to begin reading the meter values.">
<polygon fill="white" stroke="#666666" points="365,-224.32 189,-224.32 189,-205.32 365,-205.32 365,-224.32"/>
<text text-anchor="middle" x="277" y="-212.32" font-family="Helvetica,sans-Serif" font-size="10.00">MeterCommand::settingsWritten</text>
</a>
</g>
</g>
<!-- Node1&#45;&gt;Node4 -->
<g id="edge4" class="edge">
<title>Node1&#45;&gt;Node4</title>
<path fill="none" stroke="#63b8ff" d="M153.11,-214.82C162.18,-214.82 171.52,-214.82 180.82,-214.82"/>
<polygon fill="#63b8ff" stroke="#63b8ff" points="188.97,-214.82 180.97,-218.42 184.97,-214.82 180.97,-214.82 180.97,-214.82 180.97,-214.82 184.97,-214.82 180.97,-211.22 188.97,-214.82 188.97,-214.82"/>
</g>
<!-- Node3&#45;&gt;Node3 -->
<g id="edge3" class="edge">
<title>Node3&#45;&gt;Node3</title>
<path fill="none" stroke="#63b8ff" d="M246.17,-169.4C231.18,-178.05 241.45,-187.32 277,-187.32 304.77,-187.32 317.12,-181.67 314.04,-175.07"/>
<polygon fill="#63b8ff" stroke="#63b8ff" points="307.83,-169.4 316.16,-172.13 310.78,-172.1 313.74,-174.79 313.74,-174.79 313.74,-174.79 310.78,-172.1 311.31,-177.45 307.83,-169.4 307.83,-169.4"/>
</g>
<!-- Node4&#45;&gt;Node2 -->
<g id="edge5" class="edge">
<title>Node4&#45;&gt;Node2</title>
<path fill="none" stroke="#63b8ff" d="M330.34,-224.36C360.46,-229.85 398.34,-236.75 429.25,-242.39"/>
<polygon fill="#63b8ff" stroke="#63b8ff" points="437.36,-243.87 428.84,-245.97 433.43,-243.15 429.49,-242.43 429.49,-242.43 429.49,-242.43 433.43,-243.15 430.14,-238.89 437.36,-243.87 437.36,-243.87"/>
</g>
<!-- Node5 -->
<g id="node5" class="node">
<title>Node5</title>
<g id="a_node5"><a xlink:href="classMultimeterService.html#a321c4fdade8d934ac2e1daec3be174fb" target="_top" xlink:title="Enables client&#45;side notifications of meter readings.">
<polygon fill="white" stroke="#666666" points="563,-187.82 412,-187.82 412,-157.82 563,-157.82 563,-187.82"/>
<text text-anchor="start" x="420" y="-175.82" font-family="Helvetica,sans-Serif" font-size="10.00">MultimeterService::</text>
<text text-anchor="middle" x="487.5" y="-164.82" font-family="Helvetica,sans-Serif" font-size="10.00">enableReadingNotifications</text>
</a>
</g>
</g>
<!-- Node4&#45;&gt;Node5 -->
<g id="edge6" class="edge">
<title>Node4&#45;&gt;Node5</title>
<path fill="none" stroke="#63b8ff" d="M325.31,-205.29C348.6,-200.6 377.37,-194.8 404.12,-189.42"/>
<polygon fill="#63b8ff" stroke="#63b8ff" points="411.97,-187.83 404.84,-192.94 408.05,-188.62 404.13,-189.41 404.13,-189.41 404.13,-189.41 408.05,-188.62 403.42,-185.88 411.97,-187.83 411.97,-187.83"/>
</g>
<!-- Node6 -->
<g id="node6" class="node">
<title>Node6</title>
<g id="a_node6"><a xlink:href="classMeterCommand.html#a551a1c3d1c6f10384b5ccf264a640eff" target="_top" xlink:title="Outputs meter reading in the selected ouput format.">
<polygon fill="white" stroke="#666666" points="574,-225.32 401,-225.32 401,-206.32 574,-206.32 574,-225.32"/>
<text text-anchor="middle" x="487.5" y="-213.32" font-family="Helvetica,sans-Serif" font-size="10.00">MeterCommand::outputReading</text>
</a>
</g>
</g>
<!-- Node4&#45;&gt;Node6 -->
<g id="edge7" class="edge">
<title>Node4&#45;&gt;Node6</title>
<path fill="none" stroke="#63b8ff" d="M365.21,-215.24C374.36,-215.28 383.69,-215.33 392.91,-215.37"/>
<polygon fill="#63b8ff" stroke="#63b8ff" points="400.97,-215.41 392.95,-218.97 396.97,-215.39 392.97,-215.37 392.97,-215.37 392.97,-215.37 396.97,-215.39 392.99,-211.77 400.97,-215.41 400.97,-215.41"/>
</g>
<!-- Node11 -->
<g id="node11" class="node">
<title>Node11</title>
<g id="a_node11"><a target="_parent" xlink:href="https://doc.qt.io/qt-5/qobject.html#tr" xlink:title=" ">
<polygon fill="white" stroke="#666666" points="913.5,-205.32 844.5,-205.32 844.5,-186.32 913.5,-186.32 913.5,-205.32"/>
<text text-anchor="middle" x="879" y="-193.32" font-family="Helvetica,sans-Serif" font-size="10.00">QObject::tr</text>
</a>
</g>
</g>
<!-- Node4&#45;&gt;Node11 -->
<g id="edge26" class="edge">
<title>Node4&#45;&gt;Node11</title>
<path fill="none" stroke="#63b8ff" d="M345.02,-205.3C352.05,-202.82 358.87,-199.72 365,-195.82 387.21,-181.71 381.42,-166.4 401,-148.82 481.88,-76.21 505.33,-51.13 610,-21.82 681.05,-1.93 711.98,14.86 776,-21.82 836.19,-56.31 864.31,-141.63 873.95,-178.45"/>
<polygon fill="#63b8ff" stroke="#63b8ff" points="875.91,-186.32 870.48,-179.43 874.94,-182.43 873.97,-178.55 873.97,-178.55 873.97,-178.55 874.94,-182.43 877.47,-177.68 875.91,-186.32 875.91,-186.32"/>
</g>
<!-- Node7 -->
<g id="node7" class="node">
<title>Node7</title>
<g id="a_node7"><a target="_parent" xlink:href="https://doc.qt.io/qt-5/qstring.html#arg-1" xlink:title=" ">
<polygon fill="white" stroke="#666666" points="916,-406.32 842,-406.32 842,-387.32 916,-387.32 916,-406.32"/>
<text text-anchor="middle" x="879" y="-394.32" font-family="Helvetica,sans-Serif" font-size="10.00">QString::arg</text>
</a>
</g>
</g>
<!-- Node6&#45;&gt;Node7 -->
<g id="edge8" class="edge">
<title>Node6&#45;&gt;Node7</title>
<path fill="none" stroke="#63b8ff" d="M562.71,-225.51C566.81,-227.81 570.62,-230.55 574,-233.82 622.33,-280.6 558.34,-337.74 610,-380.82 673.59,-433.85 777.98,-420.99 835.92,-408.15"/>
<polygon fill="#63b8ff" stroke="#63b8ff" points="843.78,-406.34 836.79,-411.64 839.88,-407.24 835.98,-408.13 835.98,-408.13 835.98,-408.13 839.88,-407.24 835.18,-404.62 843.78,-406.34 843.78,-406.34"/>
</g>
<!-- Node8 -->
<g id="node8" class="node">
<title>Node8</title>
<g id="a_node8"><a xlink:href="classDeviceCommand.html#ae619166395b5651f1316fd5336d9fa2c" target="_top" xlink:title="Disconnects the underlying Pokit device, and sets exitCode to be return to the OS once the disconnect...">
<polygon fill="white" stroke="#666666" points="772.5,-285.32 613.5,-285.32 613.5,-266.32 772.5,-266.32 772.5,-285.32"/>
<text text-anchor="middle" x="693" y="-273.32" font-family="Helvetica,sans-Serif" font-size="10.00">DeviceCommand::disconnect</text>
</a>
</g>
</g>
<!-- Node6&#45;&gt;Node8 -->
<g id="edge9" class="edge">
<title>Node6&#45;&gt;Node8</title>
<path fill="none" stroke="#63b8ff" d="M544.26,-225.4C554.28,-227.73 564.55,-230.52 574,-233.82 590.89,-239.71 593.35,-245.28 610,-251.82 621.55,-256.36 634.31,-260.49 646.26,-264"/>
<polygon fill="#63b8ff" stroke="#63b8ff" points="653.97,-266.22 645.29,-267.47 650.12,-265.11 646.28,-264.01 646.28,-264.01 646.28,-264.01 650.12,-265.11 647.27,-260.55 653.97,-266.22 653.97,-266.22"/>
</g>
<!-- Node6&#45;&gt;Node11 -->
<g id="edge25" class="edge">
<title>Node6&#45;&gt;Node11</title>
<path fill="none" stroke="#63b8ff" d="M574,-222.12C631.33,-225.01 708.41,-226.35 776,-218.82 796.03,-216.59 817.86,-211.97 836.17,-207.45"/>
<polygon fill="#63b8ff" stroke="#63b8ff" points="844.32,-205.39 837.45,-210.84 840.44,-206.37 836.56,-207.35 836.56,-207.35 836.56,-207.35 840.44,-206.37 835.68,-203.86 844.32,-205.39 844.32,-205.39"/>
</g>
<!-- Node12 -->
<g id="node12" class="node">
<title>Node12</title>
<g id="a_node12"><a xlink:href="classAbstractCommand.html#af85c842568f8a3a893e336e449ef7813" target="_top" xlink:title="Returns an RFC 4180 compliant version of field.">
<polygon fill="white" stroke="#666666" points="776,-371.82 610,-371.82 610,-341.82 776,-341.82 776,-371.82"/>
<text text-anchor="start" x="618" y="-359.82" font-family="Helvetica,sans-Serif" font-size="10.00">AbstractCommand::escapeCsv</text>
<text text-anchor="middle" x="693" y="-348.82" font-family="Helvetica,sans-Serif" font-size="10.00">Field</text>
</a>
</g>
</g>
<!-- Node6&#45;&gt;Node12 -->
<g id="edge13" class="edge">
<title>Node6&#45;&gt;Node12</title>
<path fill="none" stroke="#63b8ff" d="M561.02,-225.4C565.69,-227.7 570.08,-230.47 574,-233.82 608.04,-262.86 577.96,-296.6 610,-327.82 613.92,-331.64 618.38,-334.97 623.15,-337.85"/>
<polygon fill="#63b8ff" stroke="#63b8ff" points="630.31,-341.78 621.57,-341.09 626.81,-339.86 623.3,-337.94 623.3,-337.94 623.3,-337.94 626.81,-339.86 625.03,-334.78 630.31,-341.78 630.31,-341.78"/>
</g>
<!-- Node14 -->
<g id="node14" class="node">
<title>Node14</title>
<g id="a_node14"><a target="_parent" xlink:href="https://doc.qt.io/qt-5/qstring.html#fromLatin1" xlink:title=" ">
<polygon fill="white" stroke="#666666" points="935,-329.32 823,-329.32 823,-310.32 935,-310.32 935,-329.32"/>
<text text-anchor="middle" x="879" y="-317.32" font-family="Helvetica,sans-Serif" font-size="10.00">QString::fromLatin1</text>
</a>
</g>
</g>
<!-- Node6&#45;&gt;Node14 -->
<g id="edge17" class="edge">
<title>Node6&#45;&gt;Node14</title>
<path fill="none" stroke="#63b8ff" d="M558.72,-225.44C564.14,-227.7 569.32,-230.46 574,-233.82 599.57,-252.18 583.42,-277.96 610,-294.82 671.34,-333.73 756.99,-334.61 814.82,-329.29"/>
<polygon fill="#63b8ff" stroke="#63b8ff" points="822.79,-328.5 815.18,-332.87 818.81,-328.9 814.83,-329.29 814.83,-329.29 814.83,-329.29 818.81,-328.9 814.48,-325.71 822.79,-328.5 822.79,-328.5"/>
</g>
<!-- Node15 -->
<g id="node15" class="node">
<title>Node15</title>
<g id="a_node15"><a target="_parent" xlink:href="https://doc.qt.io/qt-5/qstring.html#fromUtf8" xlink:title=" ">
<polygon fill="white" stroke="#666666" points="744.5,-161.32 641.5,-161.32 641.5,-142.32 744.5,-142.32 744.5,-161.32"/>
<text text-anchor="middle" x="693" y="-149.32" font-family="Helvetica,sans-Serif" font-size="10.00">QString::fromUtf8</text>
</a>
</g>
</g>
<!-- Node6&#45;&gt;Node15 -->
<g id="edge18" class="edge">
<title>Node6&#45;&gt;Node15</title>
<path fill="none" stroke="#63b8ff" d="M546.57,-206.28C555.95,-203.79 565.4,-200.68 574,-196.82 592,-188.74 592.03,-178.99 610,-170.82 617.28,-167.51 625.2,-164.75 633.15,-162.45"/>
<polygon fill="#63b8ff" stroke="#63b8ff" points="641.09,-160.3 634.31,-165.87 637.23,-161.35 633.37,-162.39 633.37,-162.39 633.37,-162.39 637.23,-161.35 632.43,-158.91 641.09,-160.3 641.09,-160.3"/>
</g>
<!-- Node16 -->
<g id="node16" class="node">
<title>Node16</title>
<g id="a_node16"><a target="_parent" xlink:href="https://doc.qt.io/qt-5/qstring.html#insert-1" xlink:title=" ">
<polygon fill="white" stroke="#666666" points="736,-124.32 650,-124.32 650,-105.32 736,-105.32 736,-124.32"/>
<text text-anchor="middle" x="693" y="-112.32" font-family="Helvetica,sans-Serif" font-size="10.00">QString::insert</text>
</a>
</g>
</g>
<!-- Node6&#45;&gt;Node16 -->
<g id="edge19" class="edge">
<title>Node6&#45;&gt;Node16</title>
<path fill="none" stroke="#63b8ff" d="M557.1,-206.17C563.13,-203.7 568.87,-200.63 574,-196.82 600.21,-177.37 583.77,-152.24 610,-132.82 619.24,-125.98 630.57,-121.65 641.82,-118.93"/>
<polygon fill="#63b8ff" stroke="#63b8ff" points="649.97,-117.22 642.88,-122.38 646.05,-118.04 642.14,-118.86 642.14,-118.86 642.14,-118.86 646.05,-118.04 641.4,-115.34 649.97,-117.22 649.97,-117.22"/>
</g>
<!-- Node17 -->
<g id="node17" class="node">
<title>Node17</title>
<g id="a_node17"><a target="_parent" xlink:href="https://doc.qt.io/qt-5/qstring.html#isNull" xlink:title=" ">
<polygon fill="white" stroke="#666666" points="736,-87.32 650,-87.32 650,-68.32 736,-68.32 736,-87.32"/>
<text text-anchor="middle" x="693" y="-75.32" font-family="Helvetica,sans-Serif" font-size="10.00">QString::isNull</text>
</a>
</g>
</g>
<!-- Node6&#45;&gt;Node17 -->
<g id="edge20" class="edge">
<title>Node6&#45;&gt;Node17</title>
<path fill="none" stroke="#63b8ff" d="M559.49,-206.27C564.74,-203.75 569.67,-200.65 574,-196.82 609.72,-165.27 574.24,-127.32 610,-95.82 618.89,-87.99 630.39,-83.32 641.96,-80.59"/>
<polygon fill="#63b8ff" stroke="#63b8ff" points="649.94,-78.99 642.8,-84.09 646.02,-79.78 642.1,-80.56 642.1,-80.56 642.1,-80.56 646.02,-79.78 641.39,-77.03 649.94,-78.99 649.94,-78.99"/>
</g>
<!-- Node18 -->
<g id="node18" class="node">
<title>Node18</title>
<g id="a_node18"><a target="_parent" xlink:href="https://doc.qt.io/qt-5/qjsondocument.html#toJson" xlink:title=" ">
<polygon fill="white" stroke="#666666" points="758.5,-50.32 627.5,-50.32 627.5,-31.32 758.5,-31.32 758.5,-50.32"/>
<text text-anchor="middle" x="693" y="-38.32" font-family="Helvetica,sans-Serif" font-size="10.00">QJsonDocument::toJson</text>
</a>
</g>
</g>
<!-- Node6&#45;&gt;Node18 -->
<g id="edge21" class="edge">
<title>Node6&#45;&gt;Node18</title>
<path fill="none" stroke="#63b8ff" d="M560.67,-206.26C565.54,-203.73 570.06,-200.62 574,-196.82 619.63,-152.83 564.31,-102.76 610,-58.82 613.01,-55.93 616.37,-53.46 619.97,-51.35"/>
<polygon fill="#63b8ff" stroke="#63b8ff" points="627.15,-47.73 621.63,-54.54 623.58,-49.53 620.01,-51.33 620.01,-51.33 620.01,-51.33 623.58,-49.53 618.39,-48.12 627.15,-47.73 627.15,-47.73"/>
</g>
<!-- Node19 -->
<g id="node19" class="node">
<title>Node19</title>
<g id="a_node19"><a target="_parent" xlink:href="https://doc.qt.io/qt-5/qbytearray.html#toStdString" xlink:title=" ">
<polygon fill="white" stroke="#666666" points="759,-447.32 627,-447.32 627,-428.32 759,-428.32 759,-447.32"/>
<text text-anchor="middle" x="693" y="-435.32" font-family="Helvetica,sans-Serif" font-size="10.00">QByteArray::toStdString</text>
</a>
</g>
</g>
<!-- Node6&#45;&gt;Node19 -->
<g id="edge22" class="edge">
<title>Node6&#45;&gt;Node19</title>
<path fill="none" stroke="#63b8ff" d="M562.88,-225.35C566.93,-227.68 570.69,-230.48 574,-233.82 631.4,-291.8 554.88,-353.67 610,-413.82 613.84,-418.01 618.36,-421.48 623.28,-424.36"/>
<polygon fill="#63b8ff" stroke="#63b8ff" points="630.74,-428.16 621.98,-427.73 627.18,-426.34 623.61,-424.53 623.61,-424.53 623.61,-424.53 627.18,-426.34 625.25,-421.32 630.74,-428.16 630.74,-428.16"/>
</g>
<!-- Node20 -->
<g id="node20" class="node">
<title>Node20</title>
<g id="a_node20"><a xlink:href="classMultimeterService.html#a58a03dbc0ae216dc60f27d975af92cf8" target="_top" xlink:title="Returns mode as a user&#45;friendly string.">
<polygon fill="white" stroke="#666666" points="749.5,-209.82 636.5,-209.82 636.5,-179.82 749.5,-179.82 749.5,-209.82"/>
<text text-anchor="start" x="644.5" y="-197.82" font-family="Helvetica,sans-Serif" font-size="10.00">MultimeterService::</text>
<text text-anchor="middle" x="693" y="-186.82" font-family="Helvetica,sans-Serif" font-size="10.00">toString</text>
</a>
</g>
</g>
<!-- Node6&#45;&gt;Node20 -->
<g id="edge23" class="edge">
<title>Node6&#45;&gt;Node20</title>
<path fill="none" stroke="#63b8ff" d="M574.21,-206.98C592.23,-205.12 610.93,-203.19 627.99,-201.43"/>
<polygon fill="#63b8ff" stroke="#63b8ff" points="636.22,-200.58 628.63,-204.98 632.24,-200.99 628.26,-201.4 628.26,-201.4 628.26,-201.4 632.24,-200.99 627.89,-197.82 636.22,-200.58 636.22,-200.58"/>
</g>
<!-- Node9 -->
<g id="node9" class="node">
<title>Node9</title>
<g id="a_node9"><a xlink:href="classPokitDevice.html#a2e2fb6b30e6f5f0d7bc6cd8f806d6423" target="_top" xlink:title="Returns a non&#45;const pointer to the controller used to access the Pokit device.">
<polygon fill="white" stroke="#666666" points="943,-292.32 815,-292.32 815,-273.32 943,-273.32 943,-292.32"/>
<text text-anchor="middle" x="879" y="-280.32" font-family="Helvetica,sans-Serif" font-size="10.00">PokitDevice::controller</text>
</a>
</g>
</g>
<!-- Node8&#45;&gt;Node9 -->
<g id="edge10" class="edge">
<title>Node8&#45;&gt;Node9</title>
<path fill="none" stroke="#63b8ff" d="M772.57,-278.81C783.96,-279.24 795.64,-279.69 806.88,-280.12"/>
<polygon fill="#63b8ff" stroke="#63b8ff" points="814.98,-280.42 806.85,-283.72 810.98,-280.27 806.98,-280.12 806.98,-280.12 806.98,-280.12 810.98,-280.27 807.12,-276.52 814.98,-280.42 814.98,-280.42"/>
</g>
<!-- Node10 -->
<g id="node10" class="node">
<title>Node10</title>
<g id="a_node10"><a target="_parent" xlink:href="https://doc.qt.io/qt-5/qlowenergycontroller.html#disconnectFromDevice" xlink:title=" ">
<polygon fill="white" stroke="#666666" points="946,-254.82 812,-254.82 812,-224.82 946,-224.82 946,-254.82"/>
<text text-anchor="start" x="820" y="-242.82" font-family="Helvetica,sans-Serif" font-size="10.00">QLowEnergyController</text>
<text text-anchor="middle" x="879" y="-231.82" font-family="Helvetica,sans-Serif" font-size="10.00">::disconnectFromDevice</text>
</a>
</g>
</g>
<!-- Node8&#45;&gt;Node10 -->
<g id="edge11" class="edge">
<title>Node8&#45;&gt;Node10</title>
<path fill="none" stroke="#63b8ff" d="M742.83,-266.27C761.53,-262.61 783.31,-258.35 803.86,-254.33"/>
<polygon fill="#63b8ff" stroke="#63b8ff" points="811.97,-252.74 804.81,-257.81 808.04,-253.51 804.12,-254.28 804.12,-254.28 804.12,-254.28 808.04,-253.51 803.42,-250.74 811.97,-252.74 811.97,-252.74"/>
</g>
<!-- Node8&#45;&gt;Node11 -->
<g id="edge12" class="edge">
<title>Node8&#45;&gt;Node11</title>
<path fill="none" stroke="#63b8ff" d="M741.65,-266.23C753.36,-262.71 765.54,-258.02 776,-251.82 795.46,-240.28 792.59,-227.45 812,-215.82 819.55,-211.3 828.2,-207.72 836.71,-204.93"/>
<polygon fill="#63b8ff" stroke="#63b8ff" points="844.44,-202.57 837.83,-208.35 840.61,-203.74 836.78,-204.9 836.78,-204.9 836.78,-204.9 840.61,-203.74 835.73,-201.46 844.44,-202.57 844.44,-202.57"/>
</g>
<!-- Node12&#45;&gt;Node7 -->
<g id="edge14" class="edge">
<title>Node12&#45;&gt;Node7</title>
<path fill="none" stroke="#63b8ff" d="M763.04,-371.83C786.82,-377 812.79,-382.64 834.02,-387.26"/>
<polygon fill="#63b8ff" stroke="#63b8ff" points="841.91,-388.97 833.32,-390.79 838,-388.12 834.09,-387.27 834.09,-387.27 834.09,-387.27 838,-388.12 834.85,-383.76 841.91,-388.97 841.91,-388.97"/>
</g>
<!-- Node13 -->
<g id="node13" class="node">
<title>Node13</title>
<g id="a_node13"><a target="_parent" xlink:href="https://doc.qt.io/qt-5/qstring.html#contains-1" xlink:title=" ">
<polygon fill="white" stroke="#666666" points="929,-366.32 829,-366.32 829,-347.32 929,-347.32 929,-366.32"/>
<text text-anchor="middle" x="879" y="-354.32" font-family="Helvetica,sans-Serif" font-size="10.00">QString::contains</text>
</a>
</g>
</g>
<!-- Node12&#45;&gt;Node13 -->
<g id="edge15" class="edge">
<title>Node12&#45;&gt;Node13</title>
<path fill="none" stroke="#63b8ff" d="M776.04,-356.82C791.11,-356.82 806.53,-356.82 820.67,-356.82"/>
<polygon fill="#63b8ff" stroke="#63b8ff" points="828.83,-356.82 820.83,-360.42 824.83,-356.82 820.83,-356.82 820.83,-356.82 820.83,-356.82 824.83,-356.82 820.83,-353.22 828.83,-356.82 828.83,-356.82"/>
</g>
<!-- Node12&#45;&gt;Node14 -->
<g id="edge16" class="edge">
<title>Node12&#45;&gt;Node14</title>
<path fill="none" stroke="#63b8ff" d="M768.84,-341.77C786.8,-338.16 805.66,-334.37 822.55,-330.97"/>
<polygon fill="#63b8ff" stroke="#63b8ff" points="830.68,-329.34 823.54,-334.44 826.75,-330.13 822.83,-330.91 822.83,-330.91 822.83,-330.91 826.75,-330.13 822.12,-327.39 830.68,-329.34 830.68,-329.34"/>
</g>
<!-- Node20&#45;&gt;Node11 -->
<g id="edge24" class="edge">
<title>Node20&#45;&gt;Node11</title>
<path fill="none" stroke="#63b8ff" d="M749.71,-195.12C777.58,-195.28 810.74,-195.46 836.36,-195.59"/>
<polygon fill="#63b8ff" stroke="#63b8ff" points="844.4,-195.64 836.38,-199.19 840.4,-195.62 836.4,-195.59 836.4,-195.59 836.4,-195.59 840.4,-195.62 836.42,-191.99 844.4,-195.64 844.4,-195.64"/>
</g>
</g>
</svg>
