<?xml version="1.0" encoding="UTF-8" standalone="no"?>
<!DOCTYPE svg PUBLIC "-//W3C//DTD SVG 1.1//EN"
 "http://www.w3.org/Graphics/SVG/1.1/DTD/svg11.dtd">
<!-- Generated by graphviz version 2.43.0 (0)
 -->
<!-- Title: SetNameCommand::getService Pages: 1 -->
<svg width="1095pt" height="250pt"
 viewBox="0.00 0.00 1095.00 249.50" xmlns="http://www.w3.org/2000/svg" xmlns:xlink="http://www.w3.org/1999/xlink">
<g id="graph0" class="graph" transform="scale(1 1) rotate(0) translate(4 245.5)">
<title>SetNameCommand::getService</title>
<!-- Node1 -->
<g id="Node000001" class="node">
<title>Node1</title>
<g id="a_Node000001"><a xlink:title="Returns a Pokit service object for the derived command class.">
<polygon fill="#999999" stroke="#666666" points="170,-104 0,-104 0,-85 170,-85 170,-104"/>
<text text-anchor="middle" x="85" y="-92" font-family="Helvetica,sans-Serif" font-size="10.00">SetNameCommand::getService</text>
</a>
</g>
</g>
<!-- Node2 -->
<g id="Node000002" class="node">
<title>Node2</title>
<g id="a_Node000002"><a target="_parent" xlink:href="https://doc.qt.io/qt-5/qobject.html#connect" xlink:title=" ">
<polygon fill="white" stroke="#666666" points="345.5,-171 245.5,-171 245.5,-152 345.5,-152 345.5,-171"/>
<text text-anchor="middle" x="295.5" y="-159" font-family="Helvetica,sans-Serif" font-size="10.00">QObject::connect</text>
</a>
</g>
</g>
<!-- Node1&#45;&gt;Node2 -->
<g id="edge1_Node000001_Node000002" class="edge">
<title>Node1&#45;&gt;Node2</title>
<g id="a_edge1_Node000001_Node000002"><a xlink:title=" ">
<path fill="none" stroke="#63b8ff" d="M106.86,-104.1C130.49,-114.68 170.37,-131.64 206,-142.5 216.06,-145.57 226.91,-148.33 237.45,-150.74"/>
<polygon fill="#63b8ff" stroke="#63b8ff" points="245.43,-152.51 236.84,-154.29 241.53,-151.64 237.62,-150.78 237.62,-150.78 237.62,-150.78 241.53,-151.64 238.4,-147.26 245.43,-152.51 245.43,-152.51"/>
</a>
</g>
</g>
<!-- Node3 -->
<g id="Node000003" class="node">
<title>Node3</title>
<g id="a_Node000003"><a xlink:href="classSetNameCommand.html#a6488980e62ffb16274644152a1364bce" target="_top" xlink:title="Handles StatusService::deviceNameWritten events, by outputting the result and exiting.">
<polygon fill="white" stroke="#666666" points="385,-133.5 206,-133.5 206,-103.5 385,-103.5 385,-133.5"/>
<text text-anchor="start" x="214" y="-121.5" font-family="Helvetica,sans-Serif" font-size="10.00">SetNameCommand::deviceName</text>
<text text-anchor="middle" x="295.5" y="-110.5" font-family="Helvetica,sans-Serif" font-size="10.00">Written</text>
</a>
</g>
</g>
<!-- Node1&#45;&gt;Node3 -->
<g id="edge2_Node000001_Node000003" class="edge">
<title>Node1&#45;&gt;Node3</title>
<g id="a_edge2_Node000001_Node000003"><a xlink:title=" ">
<path fill="none" stroke="#63b8ff" d="M168.7,-104.02C178.21,-105.11 187.96,-106.24 197.63,-107.35"/>
<polygon fill="#63b8ff" stroke="#63b8ff" points="205.73,-108.28 197.37,-110.94 201.75,-107.82 197.78,-107.37 197.78,-107.37 197.78,-107.37 201.75,-107.82 198.19,-103.79 205.73,-108.28 205.73,-108.28"/>
</a>
</g>
</g>
<!-- Node12 -->
<g id="Node000012" class="node">
<title>Node12</title>
<g id="a_Node000012"><a xlink:href="classStatusService.html#ab5d4871d4fae7045dff91f12f8f67d9a" target="_top" xlink:title="This signal is emitted when the Device Name characteristic has been written successfully.">
<polygon fill="white" stroke="#666666" points="371,-85.5 220,-85.5 220,-55.5 371,-55.5 371,-85.5"/>
<text text-anchor="start" x="228" y="-73.5" font-family="Helvetica,sans-Serif" font-size="10.00">StatusService::deviceName</text>
<text text-anchor="middle" x="295.5" y="-62.5" font-family="Helvetica,sans-Serif" font-size="10.00">Written</text>
</a>
</g>
</g>
<!-- Node1&#45;&gt;Node12 -->
<g id="edge13_Node000001_Node000012" class="edge">
<title>Node1&#45;&gt;Node12</title>
<g id="a_edge13_Node000001_Node000012"><a xlink:title=" ">
<path fill="none" stroke="#63b8ff" d="M168.7,-84.98C182.77,-83.36 197.38,-81.68 211.46,-80.06"/>
<polygon fill="#63b8ff" stroke="#63b8ff" points="219.68,-79.11 212.14,-83.6 215.7,-79.57 211.73,-80.03 211.73,-80.03 211.73,-80.03 215.7,-79.57 211.32,-76.45 219.68,-79.11 219.68,-79.11"/>
</a>
</g>
</g>
<!-- Node13 -->
<g id="Node000013" class="node">
<title>Node13</title>
<g id="a_Node000013"><a xlink:href="classPokitDevice.html#adaaaedcb434b3dda9608ad58192e9142" target="_top" xlink:title="Returns a pointer to StatusService instance that uses this device&#39;s controller for access.">
<polygon fill="white" stroke="#666666" points="351,-19 240,-19 240,0 351,0 351,-19"/>
<text text-anchor="middle" x="295.5" y="-7" font-family="Helvetica,sans-Serif" font-size="10.00">PokitDevice::status</text>
</a>
</g>
</g>
<!-- Node1&#45;&gt;Node13 -->
<g id="edge14_Node000001_Node000013" class="edge">
<title>Node1&#45;&gt;Node13</title>
<g id="a_edge14_Node000001_Node000013"><a xlink:title=" ">
<path fill="none" stroke="#63b8ff" d="M109.51,-84.91C147.31,-69.51 221.59,-39.22 263.62,-22.09"/>
<polygon fill="#63b8ff" stroke="#63b8ff" points="271.07,-19.05 265.02,-25.4 267.37,-20.56 263.67,-22.07 263.67,-22.07 263.67,-22.07 267.37,-20.56 262.31,-18.74 271.07,-19.05 271.07,-19.05"/>
</a>
</g>
</g>
<!-- Node4 -->
<g id="Node000004" class="node">
<title>Node4</title>
<g id="a_Node000004"><a xlink:href="classDeviceCommand.html#ae619166395b5651f1316fd5336d9fa2c" target="_top" xlink:title="Disconnects the underlying Pokit device, and sets exitCode to be return to the OS once the disconnect...">
<polygon fill="white" stroke="#666666" points="580,-148 421,-148 421,-129 580,-129 580,-148"/>
<text text-anchor="middle" x="500.5" y="-136" font-family="Helvetica,sans-Serif" font-size="10.00">DeviceCommand::disconnect</text>
</a>
</g>
</g>
<!-- Node3&#45;&gt;Node4 -->
<g id="edge3_Node000003_Node000004" class="edge">
<title>Node3&#45;&gt;Node4</title>
<g id="a_edge3_Node000003_Node000004"><a xlink:title=" ">
<path fill="none" stroke="#63b8ff" d="M385.24,-127.24C394.4,-128.15 403.7,-129.06 412.84,-129.96"/>
<polygon fill="#63b8ff" stroke="#63b8ff" points="420.82,-130.75 412.5,-133.55 416.84,-130.36 412.86,-129.96 412.86,-129.96 412.86,-129.96 416.84,-130.36 413.21,-126.38 420.82,-130.75 420.82,-130.75"/>
</a>
</g>
</g>
<!-- Node11 -->
<g id="Node000011" class="node">
<title>Node11</title>
<g id="a_Node000011"><a target="_parent" xlink:href="https://doc.qt.io/qt-5/qobject.html#tr" xlink:title=" ">
<polygon fill="white" stroke="#666666" points="717.5,-107 648.5,-107 648.5,-88 717.5,-88 717.5,-107"/>
<text text-anchor="middle" x="683" y="-95" font-family="Helvetica,sans-Serif" font-size="10.00">QObject::tr</text>
</a>
</g>
</g>
<!-- Node3&#45;&gt;Node11 -->
<g id="edge12_Node000003_Node000011" class="edge">
<title>Node3&#45;&gt;Node11</title>
<g id="a_edge12_Node000003_Node000011"><a xlink:title=" ">
<path fill="none" stroke="#63b8ff" d="M385.43,-113.66C465.28,-109.31 579.01,-103.11 639.82,-99.8"/>
<polygon fill="#63b8ff" stroke="#63b8ff" points="648.04,-99.35 640.25,-103.38 644.04,-99.57 640.05,-99.79 640.05,-99.79 640.05,-99.79 644.04,-99.57 639.85,-96.19 648.04,-99.35 648.04,-99.35"/>
</a>
</g>
</g>
<!-- Node5 -->
<g id="Node000005" class="node">
<title>Node5</title>
<g id="a_Node000005"><a xlink:href="classPokitDevice.html#a2e2fb6b30e6f5f0d7bc6cd8f806d6423" target="_top" xlink:title="Returns a non&#45;const pointer to the controller used to access the Pokit device.">
<polygon fill="white" stroke="#666666" points="747,-193 619,-193 619,-174 747,-174 747,-193"/>
<text text-anchor="middle" x="683" y="-181" font-family="Helvetica,sans-Serif" font-size="10.00">PokitDevice::controller</text>
</a>
</g>
</g>
<!-- Node4&#45;&gt;Node5 -->
<g id="edge4_Node000004_Node000005" class="edge">
<title>Node4&#45;&gt;Node5</title>
<g id="a_edge4_Node000004_Node000005"><a xlink:title=" ">
<path fill="none" stroke="#63b8ff" d="M539.78,-148.04C567.9,-155.05 606.23,-164.61 636.01,-172.03"/>
<polygon fill="#63b8ff" stroke="#63b8ff" points="643.78,-173.97 635.14,-175.53 639.89,-173 636.01,-172.04 636.01,-172.04 636.01,-172.04 639.89,-173 636.88,-168.54 643.78,-173.97 643.78,-173.97"/>
</a>
</g>
</g>
<!-- Node10 -->
<g id="Node000010" class="node">
<title>Node10</title>
<g id="a_Node000010"><a target="_parent" xlink:href="https://doc.qt.io/qt-5/qlowenergycontroller.html#disconnectFromDevice" xlink:title=" ">
<polygon fill="white" stroke="#666666" points="750,-155.5 616,-155.5 616,-125.5 750,-125.5 750,-155.5"/>
<text text-anchor="start" x="624" y="-143.5" font-family="Helvetica,sans-Serif" font-size="10.00">QLowEnergyController</text>
<text text-anchor="middle" x="683" y="-132.5" font-family="Helvetica,sans-Serif" font-size="10.00">::disconnectFromDevice</text>
</a>
</g>
</g>
<!-- Node4&#45;&gt;Node10 -->
<g id="edge10_Node000004_Node000010" class="edge">
<title>Node4&#45;&gt;Node10</title>
<g id="a_edge10_Node000004_Node000010"><a xlink:title=" ">
<path fill="none" stroke="#63b8ff" d="M580.14,-139.37C589.24,-139.47 598.49,-139.57 607.52,-139.67"/>
<polygon fill="#63b8ff" stroke="#63b8ff" points="615.75,-139.77 607.71,-143.28 611.75,-139.72 607.75,-139.68 607.75,-139.68 607.75,-139.68 611.75,-139.72 607.79,-136.08 615.75,-139.77 615.75,-139.77"/>
</a>
</g>
</g>
<!-- Node4&#45;&gt;Node11 -->
<g id="edge11_Node000004_Node000011" class="edge">
<title>Node4&#45;&gt;Node11</title>
<g id="a_edge11_Node000004_Node000011"><a xlink:title=" ">
<path fill="none" stroke="#63b8ff" d="M543.36,-128.99C572.59,-122.35 611.42,-113.53 640.56,-106.91"/>
<polygon fill="#63b8ff" stroke="#63b8ff" points="648.5,-105.11 641.49,-110.39 644.6,-106 640.7,-106.88 640.7,-106.88 640.7,-106.88 644.6,-106 639.9,-103.37 648.5,-105.11 648.5,-105.11"/>
</a>
</g>
</g>
<!-- Node6 -->
<g id="Node000006" class="node">
<title>Node6</title>
<g id="a_Node000006"><a xlink:href="classPokitDevice.html#a3f88c7ddb9ab6182a4b52dcb31fa0ac2" target="_top" xlink:title="Constructs a new Pokit device controller wrapper for deviceInfo, with parent.">
<polygon fill="white" stroke="#666666" points="926,-193 786,-193 786,-174 926,-174 926,-193"/>
<text text-anchor="middle" x="856" y="-181" font-family="Helvetica,sans-Serif" font-size="10.00">PokitDevice::PokitDevice</text>
</a>
</g>
</g>
<!-- Node5&#45;&gt;Node6 -->
<g id="edge5_Node000005_Node000006" class="edge">
<title>Node5&#45;&gt;Node6</title>
<g id="a_edge5_Node000005_Node000006"><a xlink:title=" ">
<path fill="none" stroke="#63b8ff" d="M747.19,-183.5C757.1,-183.5 767.44,-183.5 777.62,-183.5"/>
<polygon fill="#63b8ff" stroke="#63b8ff" points="785.74,-183.5 777.74,-187.1 781.74,-183.5 777.74,-183.5 777.74,-183.5 777.74,-183.5 781.74,-183.5 777.74,-179.9 785.74,-183.5 785.74,-183.5"/>
</a>
</g>
</g>
<!-- Node6&#45;&gt;Node6 -->
<g id="edge8_Node000006_Node000006" class="edge">
<title>Node6&#45;&gt;Node6</title>
<g id="a_edge8_Node000006_Node000006"><a xlink:title=" ">
<path fill="none" stroke="#63b8ff" d="M830.11,-193.08C817.51,-201.73 826.14,-211 856,-211 878.86,-211 889.28,-205.57 887.25,-199.14"/>
<polygon fill="#63b8ff" stroke="#63b8ff" points="881.89,-193.08 889.89,-196.69 884.54,-196.08 887.19,-199.07 887.19,-199.07 887.19,-199.07 884.54,-196.08 884.5,-201.46 881.89,-193.08 881.89,-193.08"/>
</a>
</g>
</g>
<!-- Node7 -->
<g id="Node000007" class="node">
<title>Node7</title>
<g id="a_Node000007"><a target="_parent" xlink:href="https://doc.qt.io/qt-5/qlowenergycontroller.html#createCentral" xlink:title=" ">
<polygon fill="white" stroke="#666666" points="1087,-241.5 962,-241.5 962,-211.5 1087,-211.5 1087,-241.5"/>
<text text-anchor="start" x="970" y="-229.5" font-family="Helvetica,sans-Serif" font-size="10.00">QLowEnergyController</text>
<text text-anchor="middle" x="1024.5" y="-218.5" font-family="Helvetica,sans-Serif" font-size="10.00">::createCentral</text>
</a>
</g>
</g>
<!-- Node6&#45;&gt;Node7 -->
<g id="edge6_Node000006_Node000007" class="edge">
<title>Node6&#45;&gt;Node7</title>
<g id="a_edge6_Node000006_Node000007"><a xlink:title=" ">
<path fill="none" stroke="#63b8ff" d="M893.95,-193.04C912.64,-197.87 935.89,-203.87 957.51,-209.46"/>
<polygon fill="#63b8ff" stroke="#63b8ff" points="965.39,-211.49 956.75,-212.98 961.52,-210.49 957.65,-209.49 957.65,-209.49 957.65,-209.49 961.52,-210.49 958.55,-206.01 965.39,-211.49 965.39,-211.49"/>
</a>
</g>
</g>
<!-- Node8 -->
<g id="Node000008" class="node">
<title>Node8</title>
<g id="a_Node000008"><a target="_parent" xlink:href="https://doc.qt.io/qt-5/qobject.html#parent" xlink:title=" ">
<polygon fill="white" stroke="#666666" points="1071,-193 978,-193 978,-174 1071,-174 1071,-193"/>
<text text-anchor="middle" x="1024.5" y="-181" font-family="Helvetica,sans-Serif" font-size="10.00">QObject::parent</text>
</a>
</g>
</g>
<!-- Node6&#45;&gt;Node8 -->
<g id="edge7_Node000006_Node000008" class="edge">
<title>Node6&#45;&gt;Node8</title>
<g id="a_edge7_Node000006_Node000008"><a xlink:title=" ">
<path fill="none" stroke="#63b8ff" d="M926.16,-183.5C940.52,-183.5 955.45,-183.5 969.18,-183.5"/>
<polygon fill="#63b8ff" stroke="#63b8ff" points="977.56,-183.5 969.56,-187.1 973.56,-183.5 969.56,-183.5 969.56,-183.5 969.56,-183.5 973.56,-183.5 969.56,-179.9 977.56,-183.5 977.56,-183.5"/>
</a>
</g>
</g>
<!-- Node9 -->
<g id="Node000009" class="node">
<title>Node9</title>
<g id="a_Node000009"><a target="_parent" xlink:href="https://doc.qt.io/qt-5/qobject.html#QObject" xlink:title=" ">
<polygon fill="white" stroke="#666666" points="1075,-156 974,-156 974,-137 1075,-137 1075,-156"/>
<text text-anchor="middle" x="1024.5" y="-144" font-family="Helvetica,sans-Serif" font-size="10.00">QObject::QObject</text>
</a>
</g>
</g>
<!-- Node6&#45;&gt;Node9 -->
<g id="edge9_Node000006_Node000009" class="edge">
<title>Node6&#45;&gt;Node9</title>
<g id="a_edge9_Node000006_Node000009"><a xlink:title=" ">
<path fill="none" stroke="#63b8ff" d="M899.88,-173.97C922.03,-169.05 949.21,-163.01 972.44,-157.85"/>
<polygon fill="#63b8ff" stroke="#63b8ff" points="980.48,-156.06 973.45,-161.31 976.57,-156.93 972.67,-157.8 972.67,-157.8 972.67,-157.8 976.57,-156.93 971.89,-154.28 980.48,-156.06 980.48,-156.06"/>
</a>
</g>
</g>
<!-- Node13&#45;&gt;Node13 -->
<g id="edge15_Node000013_Node000013" class="edge">
<title>Node13&#45;&gt;Node13</title>
<g id="a_edge15_Node000013_Node000013"><a xlink:title=" ">
<path fill="none" stroke="#63b8ff" d="M264.06,-19.08C248.76,-27.73 259.24,-37 295.5,-37 324.39,-37 336.92,-31.12 333.07,-24.35"/>
<polygon fill="#63b8ff" stroke="#63b8ff" points="326.94,-19.08 335.36,-21.56 329.98,-21.69 333.01,-24.3 333.01,-24.3 333.01,-24.3 329.98,-21.69 330.67,-27.03 326.94,-19.08 326.94,-19.08"/>
</a>
</g>
</g>
</g>
</svg>
