<?xml version="1.0" encoding="UTF-8" standalone="no"?>
<!DOCTYPE svg PUBLIC "-//W3C//DTD SVG 1.1//EN"
 "http://www.w3.org/Graphics/SVG/1.1/DTD/svg11.dtd">
<!-- Generated by graphviz version 2.43.0 (0)
 -->
<!-- Title: CalibrationService::temperatureCalibrated Pages: 1 -->
<svg width="347pt" height="38pt"
 viewBox="0.00 0.00 347.00 38.00" xmlns="http://www.w3.org/2000/svg" xmlns:xlink="http://www.w3.org/1999/xlink">
<g id="graph0" class="graph" transform="scale(1 1) rotate(0) translate(4 34)">
<title>CalibrationService::temperatureCalibrated</title>
<!-- Node1 -->
<g id="Node000001" class="node">
<title>Node1</title>
<g id="a_Node000001"><a xlink:title="This signal is emitted when the Temperature characteristic has been written succesfully.">
<polygon fill="#999999" stroke="#666666" points="339,-30 205,-30 205,0 339,0 339,-30"/>
<text text-anchor="start" x="213" y="-18" font-family="Helvetica,sans-Serif" font-size="10.00">CalibrationService</text>
<text text-anchor="middle" x="272" y="-7" font-family="Helvetica,sans-Serif" font-size="10.00">::temperatureCalibrated</text>
</a>
</g>
</g>
<!-- Node2 -->
<g id="Node000002" class="node">
<title>Node2</title>
<g id="a_Node000002"><a xlink:href="classCalibrateCommand.html#aca9b6661db8a9d95ce5bc866772e2a11" target="_top" xlink:title="Returns a Pokit service object for the derived command class.">
<polygon fill="white" stroke="#666666" points="169,-24.5 0,-24.5 0,-5.5 169,-5.5 169,-24.5"/>
<text text-anchor="middle" x="84.5" y="-12.5" font-family="Helvetica,sans-Serif" font-size="10.00">CalibrateCommand::getService</text>
</a>
</g>
</g>
<!-- Node1&#45;&gt;Node2 -->
<g id="edge1_Node000001_Node000002" class="edge">
<title>Node1&#45;&gt;Node2</title>
<g id="a_edge1_Node000001_Node000002"><a xlink:title=" ">
<path fill="none" stroke="#63b8ff" d="M196.61,-15C187.58,-15 178.32,-15 169.17,-15"/>
<polygon fill="#63b8ff" stroke="#63b8ff" points="204.82,-15 196.82,-18.6 200.82,-15 196.82,-15 196.82,-15 196.82,-15 200.82,-15 196.82,-11.4 204.82,-15 204.82,-15"/>
</a>
</g>
</g>
</g>
</svg>
