<?xml version="1.0" encoding="UTF-8" standalone="no"?>
<!DOCTYPE svg PUBLIC "-//W3C//DTD SVG 1.1//EN"
 "http://www.w3.org/Graphics/SVG/1.1/DTD/svg11.dtd">
<!-- Generated by graphviz version 2.43.0 (0)
 -->
<!-- Title: DsoService::DsoService Pages: 1 -->
<svg width="722pt" height="382pt"
 viewBox="0.00 0.00 722.00 382.00" xmlns="http://www.w3.org/2000/svg" xmlns:xlink="http://www.w3.org/1999/xlink">
<g id="graph0" class="graph" transform="scale(1 1) rotate(0) translate(4 378)">
<title>DsoService::DsoService</title>
<!-- Node1 -->
<g id="Node000001" class="node">
<title>Node1</title>
<g id="a_Node000001"><a xlink:title="Constructs a new Pokit service with parent.">
<polygon fill="#999999" stroke="#666666" points="714,-181.5 582,-181.5 582,-162.5 714,-162.5 714,-181.5"/>
<text text-anchor="middle" x="648" y="-169.5" font-family="Helvetica,sans-Serif" font-size="10.00">DsoService::DsoService</text>
</a>
</g>
</g>
<!-- Node2 -->
<g id="Node000002" class="node">
<title>Node2</title>
<g id="a_Node000002"><a xlink:href="classDsoService.html#a2c5e40248d6dfe341251093d75ecd60f" target="_top" xlink:title="Disables client&#45;side notifications of DSO metadata changes.">
<polygon fill="white" stroke="#666666" points="546,-374 387,-374 387,-344 546,-344 546,-374"/>
<text text-anchor="start" x="395" y="-362" font-family="Helvetica,sans-Serif" font-size="10.00">DsoService::disableMetadata</text>
<text text-anchor="middle" x="466.5" y="-351" font-family="Helvetica,sans-Serif" font-size="10.00">Notifications</text>
</a>
</g>
</g>
<!-- Node1&#45;&gt;Node2 -->
<g id="edge1_Node000001_Node000002" class="edge">
<title>Node1&#45;&gt;Node2</title>
<g id="a_edge1_Node000001_Node000002"><a xlink:title=" ">
<path fill="none" stroke="#63b8ff" d="M641.02,-189.32C628.65,-222.61 597.06,-295.67 546,-335 541.6,-338.39 536.71,-341.31 531.6,-343.81"/>
<polygon fill="#63b8ff" stroke="#63b8ff" points="643.75,-181.76 644.42,-190.51 642.39,-185.53 641.04,-189.29 641.04,-189.29 641.04,-189.29 642.39,-185.53 637.65,-188.07 643.75,-181.76 643.75,-181.76"/>
</a>
</g>
</g>
<!-- Node3 -->
<g id="Node000003" class="node">
<title>Node3</title>
<g id="a_Node000003"><a xlink:href="classDsoService.html#af55d3574002bee3413f28ab48f007f8c" target="_top" xlink:title="Disables client&#45;side notifications of DSO readings.">
<polygon fill="white" stroke="#666666" points="542.5,-326 390.5,-326 390.5,-296 542.5,-296 542.5,-326"/>
<text text-anchor="start" x="398.5" y="-314" font-family="Helvetica,sans-Serif" font-size="10.00">DsoService::disableReading</text>
<text text-anchor="middle" x="466.5" y="-303" font-family="Helvetica,sans-Serif" font-size="10.00">Notifications</text>
</a>
</g>
</g>
<!-- Node1&#45;&gt;Node3 -->
<g id="edge2_Node000001_Node000003" class="edge">
<title>Node1&#45;&gt;Node3</title>
<g id="a_edge2_Node000001_Node000003"><a xlink:title=" ">
<path fill="none" stroke="#63b8ff" d="M636.79,-188.63C620.59,-213.63 586.66,-260.74 546,-287 540.73,-290.4 534.96,-293.34 529,-295.88"/>
<polygon fill="#63b8ff" stroke="#63b8ff" points="641.23,-181.63 639.98,-190.31 639.09,-185.01 636.94,-188.39 636.94,-188.39 636.94,-188.39 639.09,-185.01 633.9,-186.46 641.23,-181.63 641.23,-181.63"/>
</a>
</g>
</g>
<!-- Node4 -->
<g id="Node000004" class="node">
<title>Node4</title>
<g id="a_Node000004"><a xlink:href="classDsoService.html#a67ca97370da5420c62591c3d8614a26d" target="_top" xlink:title="Enables client&#45;side notifications of DSO metadata changes.">
<polygon fill="white" stroke="#666666" points="545,-230 388,-230 388,-200 545,-200 545,-230"/>
<text text-anchor="start" x="396" y="-218" font-family="Helvetica,sans-Serif" font-size="10.00">DsoService::enableMetadata</text>
<text text-anchor="middle" x="466.5" y="-207" font-family="Helvetica,sans-Serif" font-size="10.00">Notifications</text>
</a>
</g>
</g>
<!-- Node1&#45;&gt;Node4 -->
<g id="edge3_Node000001_Node000004" class="edge">
<title>Node1&#45;&gt;Node4</title>
<g id="a_edge3_Node000001_Node000004"><a xlink:title=" ">
<path fill="none" stroke="#63b8ff" d="M599.25,-183.44C578.06,-188.52 552.82,-194.56 530.14,-199.99"/>
<polygon fill="#63b8ff" stroke="#63b8ff" points="607.16,-181.54 600.22,-186.91 603.27,-182.47 599.38,-183.41 599.38,-183.41 599.38,-183.41 603.27,-182.47 598.54,-179.91 607.16,-181.54 607.16,-181.54"/>
</a>
</g>
</g>
<!-- Node6 -->
<g id="Node000006" class="node">
<title>Node6</title>
<g id="a_Node000006"><a xlink:href="classDsoService.html#ab0d0c4d4b41617bc23556b800dbafe29" target="_top" xlink:title="Enables client&#45;side notifications of DSO readings.">
<polygon fill="white" stroke="#666666" points="541.5,-278 391.5,-278 391.5,-248 541.5,-248 541.5,-278"/>
<text text-anchor="start" x="399.5" y="-266" font-family="Helvetica,sans-Serif" font-size="10.00">DsoService::enableReading</text>
<text text-anchor="middle" x="466.5" y="-255" font-family="Helvetica,sans-Serif" font-size="10.00">Notifications</text>
</a>
</g>
</g>
<!-- Node1&#45;&gt;Node6 -->
<g id="edge5_Node000001_Node000006" class="edge">
<title>Node1&#45;&gt;Node6</title>
<g id="a_edge5_Node000001_Node000006"><a xlink:title=" ">
<path fill="none" stroke="#63b8ff" d="M628.58,-186.6C609.05,-201.51 576.81,-224.45 546,-239 539.04,-242.29 531.53,-245.25 524,-247.89"/>
<polygon fill="#63b8ff" stroke="#63b8ff" points="634.94,-181.69 630.81,-189.43 631.77,-184.14 628.61,-186.58 628.61,-186.58 628.61,-186.58 631.77,-184.14 626.41,-183.73 634.94,-181.69 634.94,-181.69"/>
</a>
</g>
</g>
<!-- Node7 -->
<g id="Node000007" class="node">
<title>Node7</title>
<g id="a_Node000007"><a xlink:href="classDsoService.html#afda4aa4a55ff0af205f10ccf8c77cbf5" target="_top" xlink:title="Returns the most recent value of the DSO service&#39;s Metadata characteristic.">
<polygon fill="white" stroke="#666666" points="529,-67.5 404,-67.5 404,-48.5 529,-48.5 529,-67.5"/>
<text text-anchor="middle" x="466.5" y="-55.5" font-family="Helvetica,sans-Serif" font-size="10.00">DsoService::metadata</text>
</a>
</g>
</g>
<!-- Node1&#45;&gt;Node7 -->
<g id="edge7_Node000001_Node000007" class="edge">
<title>Node1&#45;&gt;Node7</title>
<g id="a_edge7_Node000001_Node000007"><a xlink:title=" ">
<path fill="none" stroke="#63b8ff" d="M633.33,-156.17C615.24,-136.17 581.5,-101.96 546,-82 535.19,-75.92 522.67,-71.2 510.83,-67.62"/>
<polygon fill="#63b8ff" stroke="#63b8ff" points="638.84,-162.37 630.83,-158.78 636.18,-159.38 633.52,-156.39 633.52,-156.39 633.52,-156.39 636.18,-159.38 636.21,-154 638.84,-162.37 638.84,-162.37"/>
</a>
</g>
</g>
<!-- Node8 -->
<g id="Node000008" class="node">
<title>Node8</title>
<g id="a_Node000008"><a xlink:href="classDsoService.html#ad8cd148690b9e4fd1b01071e8cfabd0c" target="_top" xlink:title="Reads the DSO service&#39;s Metadata characteristic.">
<polygon fill="white" stroke="#666666" points="539.5,-30 393.5,-30 393.5,0 539.5,0 539.5,-30"/>
<text text-anchor="start" x="401.5" y="-18" font-family="Helvetica,sans-Serif" font-size="10.00">DsoService::readMetadata</text>
<text text-anchor="middle" x="466.5" y="-7" font-family="Helvetica,sans-Serif" font-size="10.00">Characteristic</text>
</a>
</g>
</g>
<!-- Node1&#45;&gt;Node8 -->
<g id="edge8_Node000001_Node000008" class="edge">
<title>Node1&#45;&gt;Node8</title>
<g id="a_edge8_Node000001_Node000008"><a xlink:title=" ">
<path fill="none" stroke="#63b8ff" d="M638.73,-155.16C624,-126.92 590.56,-70.08 546,-39 541.09,-35.58 535.68,-32.63 530.06,-30.1"/>
<polygon fill="#63b8ff" stroke="#63b8ff" points="642.38,-162.32 635.54,-156.82 640.56,-158.75 638.74,-155.19 638.74,-155.19 638.74,-155.19 640.56,-158.75 641.95,-153.55 642.38,-162.32 642.38,-162.32"/>
</a>
</g>
</g>
<!-- Node10 -->
<g id="Node000010" class="node">
<title>Node10</title>
<g id="a_Node000010"><a xlink:href="classDsoService.html#afafabdcfc2d5812b32eac0e16c437789" target="_top" xlink:title="This signal is emitted when the Reading characteristic has been notified.">
<polygon fill="white" stroke="#666666" points="336.5,-105.5 193.5,-105.5 193.5,-86.5 336.5,-86.5 336.5,-105.5"/>
<text text-anchor="middle" x="265" y="-93.5" font-family="Helvetica,sans-Serif" font-size="10.00">DsoService::samplesRead</text>
</a>
</g>
</g>
<!-- Node1&#45;&gt;Node10 -->
<g id="edge10_Node000001_Node000010" class="edge">
<title>Node1&#45;&gt;Node10</title>
<g id="a_edge10_Node000001_Node000010"><a xlink:title=" ">
<path fill="none" stroke="#63b8ff" d="M617.45,-159.28C597.59,-151.21 570.63,-141.15 546,-135 475.88,-117.49 393.79,-107.22 336.7,-101.65"/>
<polygon fill="#63b8ff" stroke="#63b8ff" points="624.96,-162.38 616.19,-162.66 621.27,-160.85 617.57,-159.33 617.57,-159.33 617.57,-159.33 621.27,-160.85 618.94,-156 624.96,-162.38 624.96,-162.38"/>
</a>
</g>
</g>
<!-- Node12 -->
<g id="Node000012" class="node">
<title>Node12</title>
<g id="a_Node000012"><a xlink:href="classDsoService.html#a5714c8ccec6ab1d98241312b28a32e9e" target="_top" xlink:title="Configures the Pokit device&#39;s DSO mode.">
<polygon fill="white" stroke="#666666" points="532.5,-181.5 400.5,-181.5 400.5,-162.5 532.5,-162.5 532.5,-181.5"/>
<text text-anchor="middle" x="466.5" y="-169.5" font-family="Helvetica,sans-Serif" font-size="10.00">DsoService::setSettings</text>
</a>
</g>
</g>
<!-- Node1&#45;&gt;Node12 -->
<g id="edge12_Node000001_Node000012" class="edge">
<title>Node1&#45;&gt;Node12</title>
<g id="a_edge12_Node000001_Node000012"><a xlink:title=" ">
<path fill="none" stroke="#63b8ff" d="M573.58,-172C560.01,-172 545.93,-172 532.64,-172"/>
<polygon fill="#63b8ff" stroke="#63b8ff" points="581.94,-172 573.94,-175.6 577.94,-172 573.94,-172 573.94,-172 573.94,-172 577.94,-172 573.94,-168.4 581.94,-172 581.94,-172"/>
</a>
</g>
</g>
<!-- Node15 -->
<g id="Node000015" class="node">
<title>Node15</title>
<g id="a_Node000015"><a xlink:href="classDsoService.html#a4bd74f90cf6b34172cfeaff8112f22fe" target="_top" xlink:title="Start the DSO with settings.">
<polygon fill="white" stroke="#666666" points="324.5,-142.5 205.5,-142.5 205.5,-123.5 324.5,-123.5 324.5,-142.5"/>
<text text-anchor="middle" x="265" y="-130.5" font-family="Helvetica,sans-Serif" font-size="10.00">DsoService::startDso</text>
</a>
</g>
</g>
<!-- Node1&#45;&gt;Node15 -->
<g id="edge18_Node000001_Node000015" class="edge">
<title>Node1&#45;&gt;Node15</title>
<g id="a_edge18_Node000001_Node000015"><a xlink:title=" ">
<path fill="none" stroke="#63b8ff" d="M591.34,-161.04C576.64,-158.43 560.76,-155.86 546,-154 469.83,-144.38 381.4,-138.65 324.63,-135.66"/>
<polygon fill="#63b8ff" stroke="#63b8ff" points="599.37,-162.49 590.86,-164.61 595.43,-161.78 591.5,-161.06 591.5,-161.06 591.5,-161.06 595.43,-161.78 592.14,-157.52 599.37,-162.49 599.37,-162.49"/>
</a>
</g>
</g>
<!-- Node5 -->
<g id="Node000005" class="node">
<title>Node5</title>
<g id="a_Node000005"><a xlink:href="classDsoCommand.html#a57f3b6be35c7a6fdadfaa737177016a8" target="_top" xlink:title="Handles service detail discovery events.">
<polygon fill="white" stroke="#666666" points="345.5,-265 184.5,-265 184.5,-235 345.5,-235 345.5,-265"/>
<text text-anchor="start" x="192.5" y="-253" font-family="Helvetica,sans-Serif" font-size="10.00">DsoCommand::serviceDetails</text>
<text text-anchor="middle" x="265" y="-242" font-family="Helvetica,sans-Serif" font-size="10.00">Discovered</text>
</a>
</g>
</g>
<!-- Node4&#45;&gt;Node5 -->
<g id="edge4_Node000004_Node000005" class="edge">
<title>Node4&#45;&gt;Node5</title>
<g id="a_edge4_Node000004_Node000005"><a xlink:title=" ">
<path fill="none" stroke="#63b8ff" d="M379.66,-230.06C368.42,-232.03 356.93,-234.05 345.79,-236"/>
<polygon fill="#63b8ff" stroke="#63b8ff" points="387.8,-228.63 380.54,-233.56 383.86,-229.32 379.92,-230.01 379.92,-230.01 379.92,-230.01 383.86,-229.32 379.3,-226.47 387.8,-228.63 387.8,-228.63"/>
</a>
</g>
</g>
<!-- Node6&#45;&gt;Node5 -->
<g id="edge6_Node000006_Node000005" class="edge">
<title>Node6&#45;&gt;Node5</title>
<g id="a_edge6_Node000006_Node000005"><a xlink:title=" ">
<path fill="none" stroke="#63b8ff" d="M383.36,-257.65C370.87,-256.83 358,-256 345.57,-255.19"/>
<polygon fill="#63b8ff" stroke="#63b8ff" points="391.5,-258.18 383.28,-261.25 387.51,-257.92 383.51,-257.66 383.51,-257.66 383.51,-257.66 387.51,-257.92 383.75,-254.07 391.5,-258.18 391.5,-258.18"/>
</a>
</g>
</g>
<!-- Node9 -->
<g id="Node000009" class="node">
<title>Node9</title>
<g id="a_Node000009"><a xlink:href="classDsoService.html#aad086e99bfe4fe2e8d35d49c1e4d340b" target="_top" xlink:title="Read all characteristics.">
<polygon fill="white" stroke="#666666" points="351,-24.5 179,-24.5 179,-5.5 351,-5.5 351,-24.5"/>
<text text-anchor="middle" x="265" y="-12.5" font-family="Helvetica,sans-Serif" font-size="10.00">DsoService::readCharacteristics</text>
</a>
</g>
</g>
<!-- Node8&#45;&gt;Node9 -->
<g id="edge9_Node000008_Node000009" class="edge">
<title>Node8&#45;&gt;Node9</title>
<g id="a_edge9_Node000008_Node000009"><a xlink:title=" ">
<path fill="none" stroke="#63b8ff" d="M385.35,-15C374.1,-15 362.51,-15 351.17,-15"/>
<polygon fill="#63b8ff" stroke="#63b8ff" points="393.48,-15 385.48,-18.6 389.48,-15 385.48,-15 385.48,-15 385.48,-15 389.48,-15 385.48,-11.4 393.48,-15 393.48,-15"/>
</a>
</g>
</g>
<!-- Node11 -->
<g id="Node000011" class="node">
<title>Node11</title>
<g id="a_Node000011"><a xlink:href="classDsoCommand.html#abdc2af86181151e0c64c655ed265fbe8" target="_top" xlink:title="Returns a Pokit service object for the derived command class.">
<polygon fill="white" stroke="#666666" points="143,-142.5 0,-142.5 0,-123.5 143,-123.5 143,-142.5"/>
<text text-anchor="middle" x="71.5" y="-130.5" font-family="Helvetica,sans-Serif" font-size="10.00">DsoCommand::getService</text>
</a>
</g>
</g>
<!-- Node10&#45;&gt;Node11 -->
<g id="edge11_Node000010_Node000011" class="edge">
<title>Node10&#45;&gt;Node11</title>
<g id="a_edge11_Node000010_Node000011"><a xlink:title=" ">
<path fill="none" stroke="#63b8ff" d="M206.49,-107.11C179.57,-112.31 147.82,-118.45 121.98,-123.44"/>
<polygon fill="#63b8ff" stroke="#63b8ff" points="214.68,-105.53 207.51,-110.58 210.76,-106.29 206.83,-107.05 206.83,-107.05 206.83,-107.05 210.76,-106.29 206.15,-103.51 214.68,-105.53 214.68,-105.53"/>
</a>
</g>
</g>
<!-- Node12&#45;&gt;Node5 -->
<g id="edge16_Node000012_Node000005" class="edge">
<title>Node12&#45;&gt;Node5</title>
<g id="a_edge16_Node000012_Node000005"><a xlink:title=" ">
<path fill="none" stroke="#63b8ff" d="M401.94,-184.22C396.75,-186.16 391.7,-188.4 387,-191 367.46,-201.78 370.33,-214.85 351,-226 345.02,-229.45 338.52,-232.43 331.86,-234.99"/>
<polygon fill="#63b8ff" stroke="#63b8ff" points="409.63,-181.59 403.22,-187.59 405.84,-182.89 402.06,-184.18 402.06,-184.18 402.06,-184.18 405.84,-182.89 400.89,-180.78 409.63,-181.59 409.63,-181.59"/>
</a>
</g>
</g>
<!-- Node13 -->
<g id="Node000013" class="node">
<title>Node13</title>
<g id="a_Node000013"><a xlink:href="classDsoService.html#a5da2f9ae60f06d3b904d6d239bacd09e" target="_top" xlink:title="Fetch DSO samples.">
<polygon fill="white" stroke="#666666" points="337,-216.5 193,-216.5 193,-197.5 337,-197.5 337,-216.5"/>
<text text-anchor="middle" x="265" y="-204.5" font-family="Helvetica,sans-Serif" font-size="10.00">DsoService::fetchSamples</text>
</a>
</g>
</g>
<!-- Node12&#45;&gt;Node13 -->
<g id="edge13_Node000012_Node000013" class="edge">
<title>Node12&#45;&gt;Node13</title>
<g id="a_edge13_Node000012_Node000013"><a xlink:title=" ">
<path fill="none" stroke="#63b8ff" d="M403.15,-182.94C376.57,-187.6 345.86,-192.99 320.24,-197.48"/>
<polygon fill="#63b8ff" stroke="#63b8ff" points="411.25,-181.52 403.99,-186.45 407.31,-182.21 403.37,-182.9 403.37,-182.9 403.37,-182.9 407.31,-182.21 402.75,-179.35 411.25,-181.52 411.25,-181.52"/>
</a>
</g>
</g>
<!-- Node14 -->
<g id="Node000014" class="node">
<title>Node14</title>
<g id="a_Node000014"><a xlink:href="classDsoCommand.html#a5ed6988ac93f2964979b8dce1425816e" target="_top" xlink:title="Outputs DSO samples in the selected output format.">
<polygon fill="white" stroke="#666666" points="347.5,-179.5 182.5,-179.5 182.5,-160.5 347.5,-160.5 347.5,-179.5"/>
<text text-anchor="middle" x="265" y="-167.5" font-family="Helvetica,sans-Serif" font-size="10.00">DsoCommand::outputSamples</text>
</a>
</g>
</g>
<!-- Node12&#45;&gt;Node14 -->
<g id="edge14_Node000012_Node000014" class="edge">
<title>Node12&#45;&gt;Node14</title>
<g id="a_edge14_Node000012_Node000014"><a xlink:title=" ">
<path fill="none" stroke="#63b8ff" d="M392.06,-171.26C377.63,-171.12 362.41,-170.97 347.73,-170.82"/>
<polygon fill="#63b8ff" stroke="#63b8ff" points="400.45,-171.35 392.42,-174.87 396.45,-171.31 392.45,-171.27 392.45,-171.27 392.45,-171.27 396.45,-171.31 392.49,-167.67 400.45,-171.35 400.45,-171.35"/>
</a>
</g>
</g>
<!-- Node12&#45;&gt;Node15 -->
<g id="edge17_Node000012_Node000015" class="edge">
<title>Node12&#45;&gt;Node15</title>
<g id="a_edge17_Node000012_Node000015"><a xlink:title=" ">
<path fill="none" stroke="#63b8ff" d="M408.51,-160.86C378.85,-155.06 342.98,-148.05 314.64,-142.51"/>
<polygon fill="#63b8ff" stroke="#63b8ff" points="416.7,-162.46 408.15,-164.46 412.77,-161.69 408.85,-160.92 408.85,-160.92 408.85,-160.92 412.77,-161.69 409.54,-157.39 416.7,-162.46 416.7,-162.46"/>
</a>
</g>
</g>
<!-- Node14&#45;&gt;Node11 -->
<g id="edge15_Node000014_Node000011" class="edge">
<title>Node14&#45;&gt;Node11</title>
<g id="a_edge15_Node000014_Node000011"><a xlink:title=" ">
<path fill="none" stroke="#63b8ff" d="M206.49,-158.89C179.57,-153.69 147.82,-147.55 121.98,-142.56"/>
<polygon fill="#63b8ff" stroke="#63b8ff" points="214.68,-160.47 206.15,-162.49 210.76,-159.71 206.83,-158.95 206.83,-158.95 206.83,-158.95 210.76,-159.71 207.51,-155.42 214.68,-160.47 214.68,-160.47"/>
</a>
</g>
</g>
</g>
</svg>
