<?xml version="1.0" encoding="UTF-8" standalone="no"?>
<!DOCTYPE svg PUBLIC "-//W3C//DTD SVG 1.1//EN"
 "http://www.w3.org/Graphics/SVG/1.1/DTD/svg11.dtd">
<!-- Generated by graphviz version 2.43.0 (0)
 -->
<!-- Title: StatusCommand::processOptions Pages: 1 -->
<svg width="809pt" height="551pt"
 viewBox="0.00 0.00 809.00 550.50" xmlns="http://www.w3.org/2000/svg" xmlns:xlink="http://www.w3.org/1999/xlink">
<g id="graph0" class="graph" transform="scale(1 1) rotate(0) translate(4 546.5)">
<title>StatusCommand::processOptions</title>
<!-- Node1 -->
<g id="node1" class="node">
<title>Node1</title>
<g id="a_node1"><a xlink:title="Processes the relevant options from the command line parser.">
<polygon fill="#999999" stroke="#666666" points="179,-302.5 0,-302.5 0,-283.5 179,-283.5 179,-302.5"/>
<text text-anchor="middle" x="89.5" y="-290.5" font-family="Helvetica,sans-Serif" font-size="10.00">StatusCommand::processOptions</text>
</a>
</g>
</g>
<!-- Node2 -->
<g id="node2" class="node">
<title>Node2</title>
<g id="a_node2"><a target="_parent" xlink:href="https://doc.qt.io/qt-5/qlist.html#isEmpty" xlink:title=" ">
<polygon fill="white" stroke="#666666" points="334,-324.5 247,-324.5 247,-305.5 334,-305.5 334,-324.5"/>
<text text-anchor="middle" x="290.5" y="-312.5" font-family="Helvetica,sans-Serif" font-size="10.00">QList::isEmpty</text>
</a>
</g>
</g>
<!-- Node1&#45;&gt;Node2 -->
<g id="edge1" class="edge">
<title>Node1&#45;&gt;Node2</title>
<path fill="none" stroke="#63b8ff" d="M176.63,-302.52C197.76,-304.86 219.72,-307.29 238.59,-309.37"/>
<polygon fill="#63b8ff" stroke="#63b8ff" points="246.75,-310.27 238.4,-312.97 242.77,-309.83 238.8,-309.39 238.8,-309.39 238.8,-309.39 242.77,-309.83 239.19,-305.82 246.75,-310.27 246.75,-310.27"/>
</g>
<!-- Node3 -->
<g id="node3" class="node">
<title>Node3</title>
<g id="a_node3"><a xlink:href="classAbstractCommand.html#ad827a18a24776efeb955739459d48f7d" target="_top" xlink:title="Processes the relevant options from the command line parser.">
<polygon fill="white" stroke="#666666" points="366,-287 215,-287 215,-257 366,-257 366,-287"/>
<text text-anchor="start" x="223" y="-275" font-family="Helvetica,sans-Serif" font-size="10.00">AbstractCommand::process</text>
<text text-anchor="middle" x="290.5" y="-264" font-family="Helvetica,sans-Serif" font-size="10.00">Options</text>
</a>
</g>
</g>
<!-- Node1&#45;&gt;Node3 -->
<g id="edge2" class="edge">
<title>Node1&#45;&gt;Node3</title>
<path fill="none" stroke="#63b8ff" d="M179.23,-283.64C188.45,-282.66 197.8,-281.68 206.94,-280.71"/>
<polygon fill="#63b8ff" stroke="#63b8ff" points="214.92,-279.87 207.34,-284.29 210.94,-280.29 206.97,-280.71 206.97,-280.71 206.97,-280.71 210.94,-280.29 206.59,-277.13 214.92,-279.87 214.92,-279.87"/>
</g>
<!-- Node4 -->
<g id="node4" class="node">
<title>Node4</title>
<g id="a_node4"><a target="_parent" xlink:href="https://doc.qt.io/qt-5/qlist.html#append" xlink:title=" ">
<polygon fill="white" stroke="#666666" points="548,-542.5 465,-542.5 465,-523.5 548,-523.5 548,-542.5"/>
<text text-anchor="middle" x="506.5" y="-530.5" font-family="Helvetica,sans-Serif" font-size="10.00">QList::append</text>
</a>
</g>
</g>
<!-- Node3&#45;&gt;Node4 -->
<g id="edge3" class="edge">
<title>Node3&#45;&gt;Node4</title>
<path fill="none" stroke="#63b8ff" d="M354.6,-287.15C358.84,-289.9 362.73,-293.16 366,-297 429.66,-371.77 332.86,-445.27 402,-515 416.1,-529.22 437.15,-534.56 456.59,-536.01"/>
<polygon fill="#63b8ff" stroke="#63b8ff" points="464.8,-536.41 456.63,-539.61 460.8,-536.21 456.81,-536.02 456.81,-536.02 456.81,-536.02 460.8,-536.21 456.98,-532.42 464.8,-536.41 464.8,-536.41"/>
</g>
<!-- Node5 -->
<g id="node5" class="node">
<title>Node5</title>
<g id="a_node5"><a target="_parent" xlink:href="https://doc.qt.io/qt-5/qstring.html#arg-1" xlink:title=" ">
<polygon fill="white" stroke="#666666" points="543.5,-505.5 469.5,-505.5 469.5,-486.5 543.5,-486.5 543.5,-505.5"/>
<text text-anchor="middle" x="506.5" y="-493.5" font-family="Helvetica,sans-Serif" font-size="10.00">QString::arg</text>
</a>
</g>
</g>
<!-- Node3&#45;&gt;Node5 -->
<g id="edge4" class="edge">
<title>Node3&#45;&gt;Node5</title>
<path fill="none" stroke="#63b8ff" d="M354.11,-287.04C358.53,-289.82 362.58,-293.11 366,-297 420.19,-358.57 343.31,-420.71 402,-478 417.44,-493.07 440.71,-498.06 461.28,-499.06"/>
<polygon fill="#63b8ff" stroke="#63b8ff" points="469.3,-499.26 461.21,-502.66 465.3,-499.16 461.3,-499.06 461.3,-499.06 461.3,-499.06 465.3,-499.16 461.4,-495.46 469.3,-499.26 469.3,-499.26"/>
</g>
<!-- Node6 -->
<g id="node6" class="node">
<title>Node6</title>
<g id="a_node6"><a target="_parent" xlink:href="https://doc.qt.io/qt-5/qstringlist.html#contains" xlink:title=" ">
<polygon fill="white" stroke="#666666" points="565,-468.5 448,-468.5 448,-449.5 565,-449.5 565,-468.5"/>
<text text-anchor="middle" x="506.5" y="-456.5" font-family="Helvetica,sans-Serif" font-size="10.00">QStringList::contains</text>
</a>
</g>
</g>
<!-- Node3&#45;&gt;Node6 -->
<g id="edge5" class="edge">
<title>Node3&#45;&gt;Node6</title>
<path fill="none" stroke="#63b8ff" d="M353.55,-287.02C358.14,-289.8 362.39,-293.1 366,-297 410.52,-345.1 354.17,-395.19 402,-440 412.31,-449.66 425.83,-455.22 439.69,-458.27"/>
<polygon fill="#63b8ff" stroke="#63b8ff" points="447.86,-459.79 439.34,-461.87 443.93,-459.06 440,-458.33 440,-458.33 440,-458.33 443.93,-459.06 440.66,-454.79 447.86,-459.79 447.86,-459.79"/>
</g>
<!-- Node7 -->
<g id="node7" class="node">
<title>Node7</title>
<g id="a_node7"><a target="_parent" xlink:href="https://doc.qt.io/qt-5/qcommandlineparser.html#isSet" xlink:title=" ">
<polygon fill="white" stroke="#666666" points="569,-431 444,-431 444,-401 569,-401 569,-431"/>
<text text-anchor="start" x="452" y="-419" font-family="Helvetica,sans-Serif" font-size="10.00">QCommandLineParser</text>
<text text-anchor="middle" x="506.5" y="-408" font-family="Helvetica,sans-Serif" font-size="10.00">::isSet</text>
</a>
</g>
</g>
<!-- Node3&#45;&gt;Node7 -->
<g id="edge6" class="edge">
<title>Node3&#45;&gt;Node7</title>
<path fill="none" stroke="#63b8ff" d="M352.35,-287.07C357.32,-289.84 361.97,-293.12 366,-297 398.54,-328.31 368,-362.29 402,-392 411.66,-400.44 423.71,-406.07 436.15,-409.79"/>
<polygon fill="#63b8ff" stroke="#63b8ff" points="443.92,-411.86 435.26,-413.28 440.05,-410.83 436.19,-409.8 436.19,-409.8 436.19,-409.8 440.05,-410.83 437.12,-406.32 443.92,-411.86 443.92,-411.86"/>
</g>
<!-- Node8 -->
<g id="node8" class="node">
<title>Node8</title>
<g id="a_node8"><a target="_parent" xlink:href="https://doc.qt.io/qt-5/qbluetoothdevicediscoveryagent.html#lowEnergyDiscoveryTimeout" xlink:title=" ">
<polygon fill="white" stroke="#666666" points="602,-383 411,-383 411,-353 602,-353 602,-383"/>
<text text-anchor="start" x="419" y="-371" font-family="Helvetica,sans-Serif" font-size="10.00">QBluetoothDeviceDiscovery</text>
<text text-anchor="middle" x="506.5" y="-360" font-family="Helvetica,sans-Serif" font-size="10.00">Agent::lowEnergyDiscoveryTimeout</text>
</a>
</g>
</g>
<!-- Node3&#45;&gt;Node8 -->
<g id="edge7" class="edge">
<title>Node3&#45;&gt;Node8</title>
<path fill="none" stroke="#63b8ff" d="M348.57,-287.15C354.72,-289.93 360.67,-293.19 366,-297 387.41,-312.3 379.88,-329.75 402,-344 405.09,-345.99 408.33,-347.82 411.67,-349.5"/>
<polygon fill="#63b8ff" stroke="#63b8ff" points="419.15,-352.93 410.37,-352.86 415.51,-351.26 411.88,-349.59 411.88,-349.59 411.88,-349.59 415.51,-351.26 413.38,-346.32 419.15,-352.93 419.15,-352.93"/>
</g>
<!-- Node9 -->
<g id="node9" class="node">
<title>Node9</title>
<g id="a_node9"><a target="_parent" xlink:href="https://doc.qt.io/qt-5/qcommandlineparser.html#optionNames" xlink:title=" ">
<polygon fill="white" stroke="#666666" points="569,-335 444,-335 444,-305 569,-305 569,-335"/>
<text text-anchor="start" x="452" y="-323" font-family="Helvetica,sans-Serif" font-size="10.00">QCommandLineParser</text>
<text text-anchor="middle" x="506.5" y="-312" font-family="Helvetica,sans-Serif" font-size="10.00">::optionNames</text>
</a>
</g>
</g>
<!-- Node3&#45;&gt;Node9 -->
<g id="edge8" class="edge">
<title>Node3&#45;&gt;Node9</title>
<path fill="none" stroke="#63b8ff" d="M358.62,-287.06C383.18,-292.56 411,-298.8 435.78,-304.36"/>
<polygon fill="#63b8ff" stroke="#63b8ff" points="443.71,-306.14 435.11,-307.9 439.8,-305.26 435.9,-304.39 435.9,-304.39 435.9,-304.39 439.8,-305.26 436.69,-300.88 443.71,-306.14 443.71,-306.14"/>
</g>
<!-- Node10 -->
<g id="node10" class="node">
<title>Node10</title>
<g id="a_node10"><a xlink:href="classAbstractCommand.html#ab18bb57fe68534739f63c994330a29c2" target="_top" xlink:title="Returns value as a number of millis, such as milliseconds, or millivolts.">
<polygon fill="white" stroke="#666666" points="587,-287 426,-287 426,-257 587,-257 587,-287"/>
<text text-anchor="start" x="434" y="-275" font-family="Helvetica,sans-Serif" font-size="10.00">AbstractCommand::parseMilli</text>
<text text-anchor="middle" x="506.5" y="-264" font-family="Helvetica,sans-Serif" font-size="10.00">Value</text>
</a>
</g>
</g>
<!-- Node3&#45;&gt;Node10 -->
<g id="edge9" class="edge">
<title>Node3&#45;&gt;Node10</title>
<path fill="none" stroke="#63b8ff" d="M366.05,-272C382.63,-272 400.37,-272 417.44,-272"/>
<polygon fill="#63b8ff" stroke="#63b8ff" points="425.76,-272 417.76,-275.6 421.76,-272 417.76,-272 417.76,-272 417.76,-272 421.76,-272 417.76,-268.4 425.76,-272 425.76,-272"/>
</g>
<!-- Node18 -->
<g id="node18" class="node">
<title>Node18</title>
<g id="a_node18"><a xlink:href="classAbstractCommand.html#afd6f41cfc925751415cfa45e3b2d0b4a" target="_top" xlink:title="Returns a list of CLI option names required by this command.">
<polygon fill="white" stroke="#666666" points="801,-153 647,-153 647,-123 801,-123 801,-153"/>
<text text-anchor="start" x="655" y="-141" font-family="Helvetica,sans-Serif" font-size="10.00">AbstractCommand::required</text>
<text text-anchor="middle" x="724" y="-130" font-family="Helvetica,sans-Serif" font-size="10.00">Options</text>
</a>
</g>
</g>
<!-- Node3&#45;&gt;Node18 -->
<g id="edge17" class="edge">
<title>Node3&#45;&gt;Node18</title>
<path fill="none" stroke="#63b8ff" d="M358.92,-256.98C373.13,-253.92 388.04,-250.78 402,-248 494.59,-229.53 530.69,-259.64 611,-210 633.68,-195.98 625.24,-177.42 647,-162 649.73,-160.06 652.62,-158.28 655.62,-156.64"/>
<polygon fill="#63b8ff" stroke="#63b8ff" points="662.79,-153.05 657.25,-159.85 659.22,-154.84 655.64,-156.63 655.64,-156.63 655.64,-156.63 659.22,-154.84 654.03,-153.41 662.79,-153.05 662.79,-153.05"/>
</g>
<!-- Node19 -->
<g id="node19" class="node">
<title>Node19</title>
<g id="a_node19"><a target="_parent" xlink:href="https://doc.qt.io/qt-5/qbluetoothdevicediscoveryagent.html#setLowEnergyDiscoveryTimeout" xlink:title=" ">
<polygon fill="white" stroke="#666666" points="611,-201 402,-201 402,-171 611,-171 611,-201"/>
<text text-anchor="start" x="410" y="-189" font-family="Helvetica,sans-Serif" font-size="10.00">QBluetoothDeviceDiscovery</text>
<text text-anchor="middle" x="506.5" y="-178" font-family="Helvetica,sans-Serif" font-size="10.00">Agent::setLowEnergyDiscoveryTimeout</text>
</a>
</g>
</g>
<!-- Node3&#45;&gt;Node19 -->
<g id="edge18" class="edge">
<title>Node3&#45;&gt;Node19</title>
<path fill="none" stroke="#63b8ff" d="M317.15,-256.87C339.11,-244.38 371.87,-226.85 402,-215 412.79,-210.75 424.45,-206.86 435.91,-203.4"/>
<polygon fill="#63b8ff" stroke="#63b8ff" points="443.8,-201.07 437.14,-206.79 439.96,-202.2 436.12,-203.34 436.12,-203.34 436.12,-203.34 439.96,-202.2 435.11,-199.88 443.8,-201.07 443.8,-201.07"/>
</g>
<!-- Node20 -->
<g id="node20" class="node">
<title>Node20</title>
<g id="a_node20"><a xlink:href="classAbstractCommand.html#a1ceca3c5b4cb24277dd4d4054f45db18" target="_top" xlink:title="Returns a list of CLI option names supported by this command.">
<polygon fill="white" stroke="#666666" points="587.5,-153 425.5,-153 425.5,-123 587.5,-123 587.5,-153"/>
<text text-anchor="start" x="433.5" y="-141" font-family="Helvetica,sans-Serif" font-size="10.00">AbstractCommand::supported</text>
<text text-anchor="middle" x="506.5" y="-130" font-family="Helvetica,sans-Serif" font-size="10.00">Options</text>
</a>
</g>
</g>
<!-- Node3&#45;&gt;Node20 -->
<g id="edge19" class="edge">
<title>Node3&#45;&gt;Node20</title>
<path fill="none" stroke="#63b8ff" d="M302.17,-256.91C319.99,-232.9 358.19,-186.25 402,-162 406.99,-159.24 412.29,-156.79 417.75,-154.63"/>
<polygon fill="#63b8ff" stroke="#63b8ff" points="425.27,-151.84 419.02,-157.99 421.52,-153.23 417.77,-154.62 417.77,-154.62 417.77,-154.62 421.52,-153.23 416.52,-151.24 425.27,-151.84 425.27,-151.84"/>
</g>
<!-- Node21 -->
<g id="node21" class="node">
<title>Node21</title>
<g id="a_node21"><a target="_parent" xlink:href="https://doc.qt.io/qt-5/qstring.html#toLower" xlink:title=" ">
<polygon fill="white" stroke="#666666" points="555.5,-104.5 457.5,-104.5 457.5,-85.5 555.5,-85.5 555.5,-104.5"/>
<text text-anchor="middle" x="506.5" y="-92.5" font-family="Helvetica,sans-Serif" font-size="10.00">QString::toLower</text>
</a>
</g>
</g>
<!-- Node3&#45;&gt;Node21 -->
<g id="edge21" class="edge">
<title>Node3&#45;&gt;Node21</title>
<path fill="none" stroke="#63b8ff" d="M297.36,-256.86C310.63,-224.75 346.24,-149.82 402,-114 415.87,-105.09 432.83,-100.1 448.97,-97.37"/>
<polygon fill="#63b8ff" stroke="#63b8ff" points="457.32,-96.14 449.93,-100.87 453.36,-96.73 449.41,-97.31 449.41,-97.31 449.41,-97.31 453.36,-96.73 448.88,-93.75 457.32,-96.14 457.32,-96.14"/>
</g>
<!-- Node22 -->
<g id="node22" class="node">
<title>Node22</title>
<g id="a_node22"><a target="_parent" xlink:href="https://doc.qt.io/qt-5/qobject.html#tr" xlink:title=" ">
<polygon fill="white" stroke="#666666" points="541,-67.5 472,-67.5 472,-48.5 541,-48.5 541,-67.5"/>
<text text-anchor="middle" x="506.5" y="-55.5" font-family="Helvetica,sans-Serif" font-size="10.00">QObject::tr</text>
</a>
</g>
</g>
<!-- Node3&#45;&gt;Node22 -->
<g id="edge22" class="edge">
<title>Node3&#45;&gt;Node22</title>
<path fill="none" stroke="#63b8ff" d="M295.19,-256.99C305.23,-219.61 336.74,-122.08 402,-76 419.81,-63.43 443.55,-58.67 463.8,-57.17"/>
<polygon fill="#63b8ff" stroke="#63b8ff" points="471.95,-56.73 464.16,-60.76 467.96,-56.94 463.96,-57.16 463.96,-57.16 463.96,-57.16 467.96,-56.94 463.77,-53.57 471.95,-56.73 471.95,-56.73"/>
</g>
<!-- Node23 -->
<g id="node23" class="node">
<title>Node23</title>
<g id="a_node23"><a target="_parent" xlink:href="https://doc.qt.io/qt-5/qcommandlineparser.html#value" xlink:title=" ">
<polygon fill="white" stroke="#666666" points="569,-30 444,-30 444,0 569,0 569,-30"/>
<text text-anchor="start" x="452" y="-18" font-family="Helvetica,sans-Serif" font-size="10.00">QCommandLineParser</text>
<text text-anchor="middle" x="506.5" y="-7" font-family="Helvetica,sans-Serif" font-size="10.00">::value</text>
</a>
</g>
</g>
<!-- Node3&#45;&gt;Node23 -->
<g id="edge23" class="edge">
<title>Node3&#45;&gt;Node23</title>
<path fill="none" stroke="#63b8ff" d="M293.99,-256.96C301.72,-215.28 329.29,-97.54 402,-39 411.78,-31.12 423.68,-25.74 435.88,-22.08"/>
<polygon fill="#63b8ff" stroke="#63b8ff" points="443.92,-19.91 437.13,-25.47 440.06,-20.95 436.2,-21.99 436.2,-21.99 436.2,-21.99 440.06,-20.95 435.26,-18.52 443.92,-19.91 443.92,-19.91"/>
</g>
<!-- Node11 -->
<g id="node11" class="node">
<title>Node11</title>
<g id="a_node11"><a target="_parent" xlink:href="https://doc.qt.io/qt-5/qstring.html#chop" xlink:title=" ">
<polygon fill="white" stroke="#666666" points="765,-412.5 683,-412.5 683,-393.5 765,-393.5 765,-412.5"/>
<text text-anchor="middle" x="724" y="-400.5" font-family="Helvetica,sans-Serif" font-size="10.00">QString::chop</text>
</a>
</g>
</g>
<!-- Node10&#45;&gt;Node11 -->
<g id="edge10" class="edge">
<title>Node10&#45;&gt;Node11</title>
<path fill="none" stroke="#63b8ff" d="M587.08,-281.97C595.77,-285.44 603.99,-290.01 611,-296 643.44,-323.72 614.63,-357.2 647,-385 654.79,-391.69 664.63,-396 674.61,-398.75"/>
<polygon fill="#63b8ff" stroke="#63b8ff" points="682.62,-400.63 674.01,-402.3 678.73,-399.72 674.83,-398.8 674.83,-398.8 674.83,-398.8 678.73,-399.72 675.66,-395.29 682.62,-400.63 682.62,-400.63"/>
</g>
<!-- Node12 -->
<g id="node12" class="node">
<title>Node12</title>
<g id="a_node12"><a target="_parent" xlink:href="https://doc.qt.io/qt-5/qstring.html#endsWith" xlink:title=" ">
<polygon fill="white" stroke="#666666" points="776,-375.5 672,-375.5 672,-356.5 776,-356.5 776,-375.5"/>
<text text-anchor="middle" x="724" y="-363.5" font-family="Helvetica,sans-Serif" font-size="10.00">QString::endsWith</text>
</a>
</g>
</g>
<!-- Node10&#45;&gt;Node12 -->
<g id="edge11" class="edge">
<title>Node10&#45;&gt;Node12</title>
<path fill="none" stroke="#63b8ff" d="M587.21,-284.03C595.63,-287.16 603.75,-291.08 611,-296 634.25,-311.79 623.78,-332.15 647,-348 652.2,-351.55 658.01,-354.4 664.04,-356.69"/>
<polygon fill="#63b8ff" stroke="#63b8ff" points="671.76,-359.31 663.03,-360.15 667.98,-358.03 664.19,-356.74 664.19,-356.74 664.19,-356.74 667.98,-358.03 665.34,-353.33 671.76,-359.31 671.76,-359.31"/>
</g>
<!-- Node13 -->
<g id="node13" class="node">
<title>Node13</title>
<g id="a_node13"><a target="_parent" xlink:href="https://doc.qt.io/qt-5/qstring.html#isEmpty" xlink:title=" ">
<polygon fill="white" stroke="#666666" points="773,-338.5 675,-338.5 675,-319.5 773,-319.5 773,-338.5"/>
<text text-anchor="middle" x="724" y="-326.5" font-family="Helvetica,sans-Serif" font-size="10.00">QString::isEmpty</text>
</a>
</g>
</g>
<!-- Node10&#45;&gt;Node13 -->
<g id="edge12" class="edge">
<title>Node10&#45;&gt;Node13</title>
<path fill="none" stroke="#63b8ff" d="M579.47,-287.05C590.12,-289.75 600.9,-292.75 611,-296 627.5,-301.31 630.51,-305.65 647,-311 654.1,-313.3 661.67,-315.45 669.17,-317.4"/>
<polygon fill="#63b8ff" stroke="#63b8ff" points="677.25,-319.44 668.62,-320.97 673.38,-318.46 669.5,-317.48 669.5,-317.48 669.5,-317.48 673.38,-318.46 670.38,-313.99 677.25,-319.44 677.25,-319.44"/>
</g>
<!-- Node14 -->
<g id="node14" class="node">
<title>Node14</title>
<g id="a_node14"><a target="_parent" xlink:href="https://doc.qt.io/qt-5/qstring.html#length" xlink:title=" ">
<polygon fill="white" stroke="#666666" points="768.5,-301.5 679.5,-301.5 679.5,-282.5 768.5,-282.5 768.5,-301.5"/>
<text text-anchor="middle" x="724" y="-289.5" font-family="Helvetica,sans-Serif" font-size="10.00">QString::length</text>
</a>
</g>
</g>
<!-- Node10&#45;&gt;Node14 -->
<g id="edge13" class="edge">
<title>Node10&#45;&gt;Node14</title>
<path fill="none" stroke="#63b8ff" d="M587.13,-279.39C615.26,-282 646.14,-284.87 671.34,-287.21"/>
<polygon fill="#63b8ff" stroke="#63b8ff" points="679.31,-287.95 671.01,-290.79 675.33,-287.58 671.35,-287.21 671.35,-287.21 671.35,-287.21 675.33,-287.58 671.68,-283.62 679.31,-287.95 679.31,-287.95"/>
</g>
<!-- Node15 -->
<g id="node15" class="node">
<title>Node15</title>
<g id="a_node15"><a target="_parent" xlink:href="https://doc.qt.io/qt-5/qlocale.html#toDouble" xlink:title=" ">
<polygon fill="white" stroke="#666666" points="777,-264.5 671,-264.5 671,-245.5 777,-245.5 777,-264.5"/>
<text text-anchor="middle" x="724" y="-252.5" font-family="Helvetica,sans-Serif" font-size="10.00">QLocale::toDouble</text>
</a>
</g>
</g>
<!-- Node10&#45;&gt;Node15 -->
<g id="edge14" class="edge">
<title>Node10&#45;&gt;Node15</title>
<path fill="none" stroke="#63b8ff" d="M587.13,-265.72C612.12,-263.75 639.28,-261.6 662.7,-259.76"/>
<polygon fill="#63b8ff" stroke="#63b8ff" points="670.82,-259.12 663.13,-263.33 666.83,-259.43 662.85,-259.75 662.85,-259.75 662.85,-259.75 666.83,-259.43 662.56,-256.16 670.82,-259.12 670.82,-259.12"/>
</g>
<!-- Node16 -->
<g id="node16" class="node">
<title>Node16</title>
<g id="a_node16"><a target="_parent" xlink:href="https://doc.qt.io/qt-5/qlocale.html#toUInt" xlink:title=" ">
<polygon fill="white" stroke="#666666" points="770,-227.5 678,-227.5 678,-208.5 770,-208.5 770,-227.5"/>
<text text-anchor="middle" x="724" y="-215.5" font-family="Helvetica,sans-Serif" font-size="10.00">QLocale::toUInt</text>
</a>
</g>
</g>
<!-- Node10&#45;&gt;Node16 -->
<g id="edge15" class="edge">
<title>Node10&#45;&gt;Node16</title>
<path fill="none" stroke="#63b8ff" d="M567.58,-256.91C592.19,-250.74 620.96,-243.52 647,-237 656.68,-234.58 667.06,-231.98 676.93,-229.51"/>
<polygon fill="#63b8ff" stroke="#63b8ff" points="684.73,-227.56 677.84,-232.99 680.84,-228.53 676.96,-229.5 676.96,-229.5 676.96,-229.5 680.84,-228.53 676.09,-226.01 684.73,-227.56 684.73,-227.56"/>
</g>
<!-- Node17 -->
<g id="node17" class="node">
<title>Node17</title>
<g id="a_node17"><a target="_parent" xlink:href="https://doc.qt.io/qt-5/qstring.html#trimmed" xlink:title=" ">
<polygon fill="white" stroke="#666666" points="774.5,-190.5 673.5,-190.5 673.5,-171.5 774.5,-171.5 774.5,-190.5"/>
<text text-anchor="middle" x="724" y="-178.5" font-family="Helvetica,sans-Serif" font-size="10.00">QString::trimmed</text>
</a>
</g>
</g>
<!-- Node10&#45;&gt;Node17 -->
<g id="edge16" class="edge">
<title>Node10&#45;&gt;Node17</title>
<path fill="none" stroke="#63b8ff" d="M582.24,-256.94C592.33,-253.25 602.22,-248.67 611,-243 631.94,-229.48 625.87,-213.23 647,-200 652.72,-196.42 659.07,-193.52 665.6,-191.16"/>
<polygon fill="#63b8ff" stroke="#63b8ff" points="673.32,-188.63 666.84,-194.54 669.52,-189.88 665.72,-191.12 665.72,-191.12 665.72,-191.12 669.52,-189.88 664.6,-187.7 673.32,-188.63 673.32,-188.63"/>
</g>
<!-- Node20&#45;&gt;Node18 -->
<g id="edge20" class="edge">
<title>Node20&#45;&gt;Node18</title>
<path fill="none" stroke="#63b8ff" d="M587.74,-138C604.4,-138 622,-138 638.8,-138"/>
<polygon fill="#63b8ff" stroke="#63b8ff" points="646.98,-138 638.98,-141.6 642.98,-138 638.98,-138 638.98,-138 638.98,-138 642.98,-138 638.98,-134.4 646.98,-138 646.98,-138"/>
</g>
</g>
</svg>
