<?xml version="1.0" encoding="UTF-8" standalone="no"?>
<!DOCTYPE svg PUBLIC "-//W3C//DTD SVG 1.1//EN"
 "http://www.w3.org/Graphics/SVG/1.1/DTD/svg11.dtd">
<!-- Generated by graphviz version 2.43.0 (0)
 -->
<!-- Title: AbstractPokitServicePrivate::checkSize Pages: 1 -->
<svg width="987pt" height="645pt"
 viewBox="0.00 0.00 987.00 645.00" xmlns="http://www.w3.org/2000/svg" xmlns:xlink="http://www.w3.org/1999/xlink">
<g id="graph0" class="graph" transform="scale(1 1) rotate(0) translate(4 641)">
<title>AbstractPokitServicePrivate::checkSize</title>
<!-- Node1 -->
<g id="node1" class="node">
<title>Node1</title>
<g id="a_node1"><a xlink:title="Returns false if data is smaller than minSize, otherwise returns failOnMax if data is bigger than max...">
<polygon fill="#bfbfbf" stroke="black" points="827,-292.5 827,-322.5 979,-322.5 979,-292.5 827,-292.5"/>
<text text-anchor="start" x="835" y="-310.5" font-family="Helvetica,sans-Serif" font-size="10.00">AbstractPokitServicePrivate</text>
<text text-anchor="middle" x="903" y="-299.5" font-family="Helvetica,sans-Serif" font-size="10.00">::checkSize</text>
</a>
</g>
</g>
<!-- Node2 -->
<g id="node2" class="node">
<title>Node2</title>
<g id="a_node2"><a xlink:href="classGenericAccessServicePrivate.html#a9f3b84e40f816ad12cf4c8804c0c7505" target="_top" xlink:title="Parses the Appearance value.">
<polygon fill="none" stroke="black" points="633,-581.5 633,-611.5 791,-611.5 791,-581.5 633,-581.5"/>
<text text-anchor="start" x="641" y="-599.5" font-family="Helvetica,sans-Serif" font-size="10.00">GenericAccessServicePrivate</text>
<text text-anchor="middle" x="712" y="-588.5" font-family="Helvetica,sans-Serif" font-size="10.00">::parseAppearance</text>
</a>
</g>
</g>
<!-- Node1&#45;&gt;Node2 -->
<g id="edge1" class="edge">
<title>Node1&#45;&gt;Node2</title>
<path fill="none" stroke="midnightblue" d="M892.65,-332.04C876.05,-373.83 838.64,-460.39 791,-523.5 774.02,-546 749.7,-567.52 732.75,-581.29"/>
<polygon fill="midnightblue" stroke="midnightblue" points="895.94,-333.24 896.33,-322.66 889.42,-330.69 895.94,-333.24"/>
</g>
<!-- Node4 -->
<g id="node4" class="node">
<title>Node4</title>
<g id="a_node4"><a xlink:href="classStatusServicePrivate.html#a7bdbc14dbfe0a29bb0333c01890a6ced" target="_top" xlink:title="Parses the Device Characteristics value into a DeviceCharacteristics struct.">
<polygon fill="none" stroke="black" points="634,-131.5 634,-161.5 790,-161.5 790,-131.5 634,-131.5"/>
<text text-anchor="start" x="642" y="-149.5" font-family="Helvetica,sans-Serif" font-size="10.00">StatusServicePrivate</text>
<text text-anchor="middle" x="712" y="-138.5" font-family="Helvetica,sans-Serif" font-size="10.00">::parseDeviceCharacteristics</text>
</a>
</g>
</g>
<!-- Node1&#45;&gt;Node4 -->
<g id="edge3" class="edge">
<title>Node1&#45;&gt;Node4</title>
<path fill="none" stroke="midnightblue" d="M876.47,-285.75C837.61,-252.65 764.57,-190.43 730.87,-161.72"/>
<polygon fill="midnightblue" stroke="midnightblue" points="874.34,-288.53 884.22,-292.35 878.88,-283.2 874.34,-288.53"/>
</g>
<!-- Node8 -->
<g id="node8" class="node">
<title>Node8</title>
<g id="a_node8"><a xlink:href="classDataLoggerServicePrivate.html#aed59b28db53cea0757289a0960bed3fd" target="_top" xlink:title="Parses the Metadata value into a DataLoggerService::Metatdata struct.">
<polygon fill="none" stroke="black" points="640.5,-483.5 640.5,-513.5 783.5,-513.5 783.5,-483.5 640.5,-483.5"/>
<text text-anchor="start" x="648.5" y="-501.5" font-family="Helvetica,sans-Serif" font-size="10.00">DataLoggerServicePrivate</text>
<text text-anchor="middle" x="712" y="-490.5" font-family="Helvetica,sans-Serif" font-size="10.00">::parseMetadata</text>
</a>
</g>
</g>
<!-- Node1&#45;&gt;Node8 -->
<g id="edge7" class="edge">
<title>Node1&#45;&gt;Node8</title>
<path fill="none" stroke="midnightblue" d="M879.61,-330.13C840.57,-369.58 761.04,-449.95 727.96,-483.38"/>
<polygon fill="midnightblue" stroke="midnightblue" points="882.31,-332.38 886.85,-322.81 877.33,-327.45 882.31,-332.38"/>
</g>
<!-- Node12 -->
<g id="node12" class="node">
<title>Node12</title>
<g id="a_node12"><a xlink:href="classDsoServicePrivate.html#af869cf5b228bac719545511ba4247b88" target="_top" xlink:title="Parses the Metadata value into a DsoService::Metatdata struct.">
<polygon fill="none" stroke="black" points="656,-339.5 656,-369.5 768,-369.5 768,-339.5 656,-339.5"/>
<text text-anchor="start" x="664" y="-357.5" font-family="Helvetica,sans-Serif" font-size="10.00">DsoServicePrivate::</text>
<text text-anchor="middle" x="712" y="-346.5" font-family="Helvetica,sans-Serif" font-size="10.00">parseMetadata</text>
</a>
</g>
</g>
<!-- Node1&#45;&gt;Node12 -->
<g id="edge11" class="edge">
<title>Node1&#45;&gt;Node12</title>
<path fill="none" stroke="midnightblue" d="M831.85,-324.94C810.86,-330.16 788.15,-335.81 768.26,-340.76"/>
<polygon fill="midnightblue" stroke="midnightblue" points="832.82,-328.31 841.68,-322.5 831.13,-321.52 832.82,-328.31"/>
</g>
<!-- Node16 -->
<g id="node16" class="node">
<title>Node16</title>
<g id="a_node16"><a xlink:href="classMultimeterServicePrivate.html#ac9594dce487207bafd123e1093f399db" target="_top" xlink:title="Parses the Reading value into a MultimeterService::Reading struct.">
<polygon fill="none" stroke="black" points="641.5,-246.5 641.5,-276.5 782.5,-276.5 782.5,-246.5 641.5,-246.5"/>
<text text-anchor="start" x="649.5" y="-264.5" font-family="Helvetica,sans-Serif" font-size="10.00">MultimeterServicePrivate</text>
<text text-anchor="middle" x="712" y="-253.5" font-family="Helvetica,sans-Serif" font-size="10.00">::parseReading</text>
</a>
</g>
</g>
<!-- Node1&#45;&gt;Node16 -->
<g id="edge15" class="edge">
<title>Node1&#45;&gt;Node16</title>
<path fill="none" stroke="midnightblue" d="M830.37,-290.07C812.04,-285.6 792.48,-280.85 774.7,-276.52"/>
<polygon fill="midnightblue" stroke="midnightblue" points="829.57,-293.47 840.11,-292.44 831.23,-286.67 829.57,-293.47"/>
</g>
<!-- Node20 -->
<g id="node20" class="node">
<title>Node20</title>
<g id="a_node20"><a xlink:href="classStatusServicePrivate.html#a3a6ff8ca3e9d7c884b269e52dd43aeb0" target="_top" xlink:title="Parses the Status value into a DeviceStatus and battery voltage.">
<polygon fill="none" stroke="black" points="653,-63.5 653,-93.5 771,-93.5 771,-63.5 653,-63.5"/>
<text text-anchor="start" x="661" y="-81.5" font-family="Helvetica,sans-Serif" font-size="10.00">StatusServicePrivate</text>
<text text-anchor="middle" x="712" y="-70.5" font-family="Helvetica,sans-Serif" font-size="10.00">::parseStatus</text>
</a>
</g>
</g>
<!-- Node1&#45;&gt;Node20 -->
<g id="edge19" class="edge">
<title>Node1&#45;&gt;Node20</title>
<path fill="none" stroke="midnightblue" d="M892.42,-283.08C876.35,-244.68 840.77,-169.6 791,-121.5 779.1,-110 763.52,-100.6 749.42,-93.56"/>
<polygon fill="midnightblue" stroke="midnightblue" points="889.23,-284.52 896.26,-292.45 895.71,-281.87 889.23,-284.52"/>
</g>
<!-- Node3 -->
<g id="node3" class="node">
<title>Node3</title>
<g id="a_node3"><a xlink:href="classGenericAccessServicePrivate.html#a9b485f8e1eda4151b08b5543ab61fcc8" target="_top" xlink:title="Implements AbstractPokitServicePrivate::characteristicRead to parse value, then emit a specialised si...">
<polygon fill="none" stroke="black" points="439,-606.5 439,-636.5 597,-636.5 597,-606.5 439,-606.5"/>
<text text-anchor="start" x="447" y="-624.5" font-family="Helvetica,sans-Serif" font-size="10.00">GenericAccessServicePrivate</text>
<text text-anchor="middle" x="518" y="-613.5" font-family="Helvetica,sans-Serif" font-size="10.00">::characteristicRead</text>
</a>
</g>
</g>
<!-- Node2&#45;&gt;Node3 -->
<g id="edge2" class="edge">
<title>Node2&#45;&gt;Node3</title>
<path fill="none" stroke="midnightblue" d="M622.85,-607.98C614.23,-609.1 605.53,-610.23 597.02,-611.34"/>
<polygon fill="midnightblue" stroke="midnightblue" points="623.44,-611.43 632.91,-606.67 622.54,-604.49 623.44,-611.43"/>
</g>
<!-- Node5 -->
<g id="node5" class="node">
<title>Node5</title>
<g id="a_node5"><a xlink:href="classStatusServicePrivate.html#a08d8faee04fb47ac19d3962609606d52" target="_top" xlink:title="Implements AbstractPokitServicePrivate::characteristicRead to parse value, then emit a specialised si...">
<polygon fill="none" stroke="black" points="459,-87.5 459,-117.5 577,-117.5 577,-87.5 459,-87.5"/>
<text text-anchor="start" x="467" y="-105.5" font-family="Helvetica,sans-Serif" font-size="10.00">StatusServicePrivate</text>
<text text-anchor="middle" x="518" y="-94.5" font-family="Helvetica,sans-Serif" font-size="10.00">::characteristicRead</text>
</a>
</g>
</g>
<!-- Node4&#45;&gt;Node5 -->
<g id="edge4" class="edge">
<title>Node4&#45;&gt;Node5</title>
<path fill="none" stroke="midnightblue" d="M635.45,-129.19C616.07,-124.75 595.52,-120.04 577.17,-115.83"/>
<polygon fill="midnightblue" stroke="midnightblue" points="634.93,-132.66 645.46,-131.48 636.5,-125.84 634.93,-132.66"/>
</g>
<!-- Node6 -->
<g id="node6" class="node">
<title>Node6</title>
<g id="a_node6"><a xlink:href="classStatusService.html#a008d41a33eedd90e68ccf7a94ed5b65f" target="_top" xlink:title="Returns the most recent value of the Status service&#39;s Device Characteristics characteristic.">
<polygon fill="none" stroke="black" points="209,-137 209,-156 403,-156 403,-137 209,-137"/>
<text text-anchor="middle" x="306" y="-144" font-family="Helvetica,sans-Serif" font-size="10.00">StatusService::deviceCharacteristics</text>
</a>
</g>
</g>
<!-- Node4&#45;&gt;Node6 -->
<g id="edge5" class="edge">
<title>Node4&#45;&gt;Node6</title>
<path fill="none" stroke="midnightblue" d="M623.37,-146.5C558.41,-146.5 469.92,-146.5 403.05,-146.5"/>
<polygon fill="midnightblue" stroke="midnightblue" points="623.58,-150 633.58,-146.5 623.58,-143 623.58,-150"/>
</g>
<!-- Node7 -->
<g id="node7" class="node">
<title>Node7</title>
<g id="a_node7"><a xlink:href="classStatusCommand.html#af275e3a02032915dd27e0c0e041ff6c1" target="_top" xlink:title="Handles service detail discovery events.">
<polygon fill="none" stroke="black" points="0,-71.5 0,-101.5 173,-101.5 173,-71.5 0,-71.5"/>
<text text-anchor="start" x="8" y="-89.5" font-family="Helvetica,sans-Serif" font-size="10.00">StatusCommand::serviceDetails</text>
<text text-anchor="middle" x="86.5" y="-78.5" font-family="Helvetica,sans-Serif" font-size="10.00">Discovered</text>
</a>
</g>
</g>
<!-- Node6&#45;&gt;Node7 -->
<g id="edge6" class="edge">
<title>Node6&#45;&gt;Node7</title>
<path fill="none" stroke="midnightblue" d="M255.16,-134.47C240.28,-130.76 223.95,-126.58 209,-122.5 185.02,-115.95 158.53,-108.17 136.43,-101.52"/>
<polygon fill="midnightblue" stroke="midnightblue" points="254.65,-137.95 265.2,-136.96 256.33,-131.16 254.65,-137.95"/>
</g>
<!-- Node9 -->
<g id="node9" class="node">
<title>Node9</title>
<g id="a_node9"><a xlink:href="classDataLoggerServicePrivate.html#a687b443e1e36e2c07a9776a6ca02e688" target="_top" xlink:title="Implements AbstractPokitServicePrivate::characteristicChanged to parse newValue, then emit a speciali...">
<polygon fill="none" stroke="black" points="446.5,-459.5 446.5,-489.5 589.5,-489.5 589.5,-459.5 446.5,-459.5"/>
<text text-anchor="start" x="454.5" y="-477.5" font-family="Helvetica,sans-Serif" font-size="10.00">DataLoggerServicePrivate</text>
<text text-anchor="middle" x="518" y="-466.5" font-family="Helvetica,sans-Serif" font-size="10.00">::characteristicChanged</text>
</a>
</g>
</g>
<!-- Node8&#45;&gt;Node9 -->
<g id="edge8" class="edge">
<title>Node8&#45;&gt;Node9</title>
<path fill="none" stroke="midnightblue" d="M630.11,-488.39C616.62,-486.7 602.73,-484.97 589.53,-483.32"/>
<polygon fill="midnightblue" stroke="midnightblue" points="629.97,-491.9 640.32,-489.67 630.84,-484.95 629.97,-491.9"/>
</g>
<!-- Node10 -->
<g id="node10" class="node">
<title>Node10</title>
<g id="a_node10"><a xlink:href="classDataLoggerServicePrivate.html#a91ded6976e79e6054954eebe591214be" target="_top" xlink:title="Implements AbstractPokitServicePrivate::characteristicRead to parse value, then emit a specialised si...">
<polygon fill="none" stroke="black" points="446.5,-557.5 446.5,-587.5 589.5,-587.5 589.5,-557.5 446.5,-557.5"/>
<text text-anchor="start" x="454.5" y="-575.5" font-family="Helvetica,sans-Serif" font-size="10.00">DataLoggerServicePrivate</text>
<text text-anchor="middle" x="518" y="-564.5" font-family="Helvetica,sans-Serif" font-size="10.00">::characteristicRead</text>
</a>
</g>
</g>
<!-- Node8&#45;&gt;Node10 -->
<g id="edge9" class="edge">
<title>Node8&#45;&gt;Node10</title>
<path fill="none" stroke="midnightblue" d="M670.28,-517.72C648.74,-527.54 621.7,-539.32 597,-548.5 588.63,-551.61 579.66,-554.64 570.89,-557.45"/>
<polygon fill="midnightblue" stroke="midnightblue" points="671.83,-520.86 679.46,-513.5 668.91,-514.49 671.83,-520.86"/>
</g>
<!-- Node11 -->
<g id="node11" class="node">
<title>Node11</title>
<g id="a_node11"><a xlink:href="classDataLoggerService.html#aa94364928c317c1769e66eaf8635db92" target="_top" xlink:title="Returns the most recent value of the DataLogger service&#39;s Metadata characteristic.">
<polygon fill="none" stroke="black" points="460.5,-508.5 460.5,-538.5 575.5,-538.5 575.5,-508.5 460.5,-508.5"/>
<text text-anchor="start" x="468.5" y="-526.5" font-family="Helvetica,sans-Serif" font-size="10.00">DataLoggerService::</text>
<text text-anchor="middle" x="518" y="-515.5" font-family="Helvetica,sans-Serif" font-size="10.00">metadata</text>
</a>
</g>
</g>
<!-- Node8&#45;&gt;Node11 -->
<g id="edge10" class="edge">
<title>Node8&#45;&gt;Node11</title>
<path fill="none" stroke="midnightblue" d="M630.24,-509.02C611.91,-511.4 592.82,-513.89 575.73,-516.11"/>
<polygon fill="midnightblue" stroke="midnightblue" points="630.86,-512.46 640.32,-507.7 629.96,-505.52 630.86,-512.46"/>
</g>
<!-- Node13 -->
<g id="node13" class="node">
<title>Node13</title>
<g id="a_node13"><a xlink:href="classDsoServicePrivate.html#a7de9e2488240903fee3d88b89bf1d5ec" target="_top" xlink:title="Implements AbstractPokitServicePrivate::characteristicChanged to parse newValue, then emit a speciali...">
<polygon fill="none" stroke="black" points="455.5,-410.5 455.5,-440.5 580.5,-440.5 580.5,-410.5 455.5,-410.5"/>
<text text-anchor="start" x="463.5" y="-428.5" font-family="Helvetica,sans-Serif" font-size="10.00">DsoServicePrivate::</text>
<text text-anchor="middle" x="518" y="-417.5" font-family="Helvetica,sans-Serif" font-size="10.00">characteristicChanged</text>
</a>
</g>
</g>
<!-- Node12&#45;&gt;Node13 -->
<g id="edge12" class="edge">
<title>Node12&#45;&gt;Node13</title>
<path fill="none" stroke="midnightblue" d="M667.56,-373.52C646.44,-382.48 620.59,-393.03 597,-401.5 588.47,-404.56 579.32,-407.6 570.41,-410.42"/>
<polygon fill="midnightblue" stroke="midnightblue" points="669.08,-376.67 676.9,-369.53 666.33,-370.24 669.08,-376.67"/>
</g>
<!-- Node14 -->
<g id="node14" class="node">
<title>Node14</title>
<g id="a_node14"><a xlink:href="classDsoServicePrivate.html#a0eb9af767bd0ec01458d681a5831c07a" target="_top" xlink:title="Implements AbstractPokitServicePrivate::characteristicRead to parse value, then emit a specialised si...">
<polygon fill="none" stroke="black" points="462,-361.5 462,-391.5 574,-391.5 574,-361.5 462,-361.5"/>
<text text-anchor="start" x="470" y="-379.5" font-family="Helvetica,sans-Serif" font-size="10.00">DsoServicePrivate::</text>
<text text-anchor="middle" x="518" y="-368.5" font-family="Helvetica,sans-Serif" font-size="10.00">characteristicRead</text>
</a>
</g>
</g>
<!-- Node12&#45;&gt;Node14 -->
<g id="edge13" class="edge">
<title>Node12&#45;&gt;Node14</title>
<path fill="none" stroke="midnightblue" d="M645.82,-361.97C622.48,-364.64 596.42,-367.63 574.03,-370.19"/>
<polygon fill="midnightblue" stroke="midnightblue" points="646.44,-365.42 655.98,-360.8 645.65,-358.47 646.44,-365.42"/>
</g>
<!-- Node15 -->
<g id="node15" class="node">
<title>Node15</title>
<g id="a_node15"><a xlink:href="classDsoService.html#afda4aa4a55ff0af205f10ccf8c77cbf5" target="_top" xlink:title="Returns the most recent value of the DSO service&#39;s Metadata characteristic.">
<polygon fill="none" stroke="black" points="455.5,-323 455.5,-342 580.5,-342 580.5,-323 455.5,-323"/>
<text text-anchor="middle" x="518" y="-330" font-family="Helvetica,sans-Serif" font-size="10.00">DsoService::metadata</text>
</a>
</g>
</g>
<!-- Node12&#45;&gt;Node15 -->
<g id="edge14" class="edge">
<title>Node12&#45;&gt;Node15</title>
<path fill="none" stroke="midnightblue" d="M645.85,-347.04C624.81,-344.62 601.56,-341.96 580.78,-339.58"/>
<polygon fill="midnightblue" stroke="midnightblue" points="645.65,-350.53 655.98,-348.2 646.44,-343.58 645.65,-350.53"/>
</g>
<!-- Node17 -->
<g id="node17" class="node">
<title>Node17</title>
<g id="a_node17"><a xlink:href="classMultimeterServicePrivate.html#af80ef46d902cc372a57bb1ba45313bcb" target="_top" xlink:title="Implements AbstractPokitServicePrivate::characteristicChanged to parse newValue, then emit a speciali...">
<polygon fill="none" stroke="black" points="447.5,-175.5 447.5,-205.5 588.5,-205.5 588.5,-175.5 447.5,-175.5"/>
<text text-anchor="start" x="455.5" y="-193.5" font-family="Helvetica,sans-Serif" font-size="10.00">MultimeterServicePrivate</text>
<text text-anchor="middle" x="518" y="-182.5" font-family="Helvetica,sans-Serif" font-size="10.00">::characteristicChanged</text>
</a>
</g>
</g>
<!-- Node16&#45;&gt;Node17 -->
<g id="edge16" class="edge">
<title>Node16&#45;&gt;Node17</title>
<path fill="none" stroke="midnightblue" d="M667.56,-242.48C646.44,-233.52 620.59,-222.97 597,-214.5 588.47,-211.44 579.32,-208.4 570.41,-205.58"/>
<polygon fill="midnightblue" stroke="midnightblue" points="666.33,-245.76 676.9,-246.47 669.08,-239.33 666.33,-245.76"/>
</g>
<!-- Node18 -->
<g id="node18" class="node">
<title>Node18</title>
<g id="a_node18"><a xlink:href="classMultimeterServicePrivate.html#a2cb96a3c5ae351ca9d07ee7bc828029a" target="_top" xlink:title="Implements AbstractPokitServicePrivate::characteristicRead to parse value, then emit a specialised si...">
<polygon fill="none" stroke="black" points="447.5,-273.5 447.5,-303.5 588.5,-303.5 588.5,-273.5 447.5,-273.5"/>
<text text-anchor="start" x="455.5" y="-291.5" font-family="Helvetica,sans-Serif" font-size="10.00">MultimeterServicePrivate</text>
<text text-anchor="middle" x="518" y="-280.5" font-family="Helvetica,sans-Serif" font-size="10.00">::characteristicRead</text>
</a>
</g>
</g>
<!-- Node16&#45;&gt;Node18 -->
<g id="edge17" class="edge">
<title>Node16&#45;&gt;Node18</title>
<path fill="none" stroke="midnightblue" d="M631.23,-272.72C617.1,-274.7 602.49,-276.76 588.67,-278.7"/>
<polygon fill="midnightblue" stroke="midnightblue" points="632,-276.14 641.41,-271.29 631.02,-269.21 632,-276.14"/>
</g>
<!-- Node19 -->
<g id="node19" class="node">
<title>Node19</title>
<g id="a_node19"><a xlink:href="classMultimeterService.html#ad7623c59f41fc099bebd3447637a904e" target="_top" xlink:title="Returns the most recent value of the Multimeter service&#39;s Reading characteristic.">
<polygon fill="none" stroke="black" points="461.5,-224.5 461.5,-254.5 574.5,-254.5 574.5,-224.5 461.5,-224.5"/>
<text text-anchor="start" x="469.5" y="-242.5" font-family="Helvetica,sans-Serif" font-size="10.00">MultimeterService::</text>
<text text-anchor="middle" x="518" y="-231.5" font-family="Helvetica,sans-Serif" font-size="10.00">reading</text>
</a>
</g>
</g>
<!-- Node16&#45;&gt;Node19 -->
<g id="edge18" class="edge">
<title>Node16&#45;&gt;Node19</title>
<path fill="none" stroke="midnightblue" d="M631.24,-252.36C612.17,-250.18 592.22,-247.89 574.52,-245.86"/>
<polygon fill="midnightblue" stroke="midnightblue" points="631.08,-255.87 641.41,-253.53 631.88,-248.91 631.08,-255.87"/>
</g>
<!-- Node20&#45;&gt;Node5 -->
<g id="edge20" class="edge">
<title>Node20&#45;&gt;Node5</title>
<path fill="none" stroke="midnightblue" d="M642.86,-87.02C621.42,-89.7 597.95,-92.63 577.26,-95.22"/>
<polygon fill="midnightblue" stroke="midnightblue" points="643.38,-90.48 652.87,-85.77 642.52,-83.53 643.38,-90.48"/>
</g>
<!-- Node21 -->
<g id="node21" class="node">
<title>Node21</title>
<g id="a_node21"><a xlink:href="classStatusService.html#ae7be4aae021ae50faef48ed2812eb6a7" target="_top" xlink:title="Returns the most recent value of the Status service&#39;s Status characteristic.">
<polygon fill="none" stroke="black" points="458.5,-49 458.5,-68 577.5,-68 577.5,-49 458.5,-49"/>
<text text-anchor="middle" x="518" y="-56" font-family="Helvetica,sans-Serif" font-size="10.00">StatusService::status</text>
</a>
</g>
</g>
<!-- Node20&#45;&gt;Node21 -->
<g id="edge21" class="edge">
<title>Node20&#45;&gt;Node21</title>
<path fill="none" stroke="midnightblue" d="M642.91,-71.41C621.57,-69.18 598.21,-66.75 577.59,-64.6"/>
<polygon fill="midnightblue" stroke="midnightblue" points="642.56,-74.89 652.87,-72.45 643.29,-67.93 642.56,-74.89"/>
</g>
<!-- Node21&#45;&gt;Node7 -->
<g id="edge27" class="edge">
<title>Node21&#45;&gt;Node7</title>
<path fill="none" stroke="midnightblue" d="M466.27,-70.41C457.17,-72.67 447.78,-75.09 439,-77.5 422.87,-81.93 419.55,-86.03 403,-88.5 325.8,-100.03 236.79,-98.11 173.04,-94.13"/>
<polygon fill="midnightblue" stroke="midnightblue" points="467.12,-73.8 476,-68.02 465.45,-67 467.12,-73.8"/>
</g>
<!-- Node22 -->
<g id="node22" class="node">
<title>Node22</title>
<g id="a_node22"><a xlink:href="classStatusService.html#a45993e6794c48ce999b5effcd95b9a74" target="_top" xlink:title="Returns a string version of the status enum label.">
<polygon fill="none" stroke="black" points="228.5,-49.5 228.5,-79.5 383.5,-79.5 383.5,-49.5 228.5,-49.5"/>
<text text-anchor="start" x="236.5" y="-67.5" font-family="Helvetica,sans-Serif" font-size="10.00">StatusService::batteryStatus</text>
<text text-anchor="middle" x="306" y="-56.5" font-family="Helvetica,sans-Serif" font-size="10.00">Label</text>
</a>
</g>
</g>
<!-- Node21&#45;&gt;Node22 -->
<g id="edge22" class="edge">
<title>Node21&#45;&gt;Node22</title>
<path fill="none" stroke="midnightblue" d="M448.01,-60.47C427.48,-61.06 404.85,-61.7 383.85,-62.3"/>
<polygon fill="midnightblue" stroke="midnightblue" points="448.33,-63.96 458.22,-60.18 448.13,-56.97 448.33,-63.96"/>
</g>
<!-- Node23 -->
<g id="node23" class="node">
<title>Node23</title>
<g id="a_node23"><a xlink:href="classStatusService.html#adddc5b563c16a8ad199f6a07966d372c" target="_top" xlink:title="Returns a string version of the status enum label.">
<polygon fill="none" stroke="black" points="230,-0.5 230,-30.5 382,-30.5 382,-0.5 230,-0.5"/>
<text text-anchor="start" x="238" y="-18.5" font-family="Helvetica,sans-Serif" font-size="10.00">StatusService::deviceStatus</text>
<text text-anchor="middle" x="306" y="-7.5" font-family="Helvetica,sans-Serif" font-size="10.00">Label</text>
</a>
</g>
</g>
<!-- Node21&#45;&gt;Node23 -->
<g id="edge24" class="edge">
<title>Node21&#45;&gt;Node23</title>
<path fill="none" stroke="midnightblue" d="M460.48,-46.93C435.82,-41.88 406.59,-35.89 380.29,-30.51"/>
<polygon fill="midnightblue" stroke="midnightblue" points="459.9,-50.38 470.39,-48.96 461.3,-43.52 459.9,-50.38"/>
</g>
<!-- Node22&#45;&gt;Node7 -->
<g id="edge23" class="edge">
<title>Node22&#45;&gt;Node7</title>
<path fill="none" stroke="midnightblue" d="M218.15,-73.28C203.32,-74.78 187.92,-76.34 173.12,-77.84"/>
<polygon fill="midnightblue" stroke="midnightblue" points="218.72,-76.75 228.32,-72.26 218.02,-69.78 218.72,-76.75"/>
</g>
<!-- Node23&#45;&gt;Node7 -->
<g id="edge26" class="edge">
<title>Node23&#45;&gt;Node7</title>
<path fill="none" stroke="midnightblue" d="M230.29,-33.21C223.06,-35.21 215.87,-37.32 209,-39.5 179.57,-48.83 146.98,-61.57 122.97,-71.44"/>
<polygon fill="midnightblue" stroke="midnightblue" points="231.4,-36.54 240.14,-30.55 229.58,-29.78 231.4,-36.54"/>
</g>
<!-- Node23&#45;&gt;Node20 -->
<g id="edge25" class="edge">
<title>Node23&#45;&gt;Node20</title>
<path fill="none" stroke="midnightblue" d="M392.49,-17.04C450.67,-19.44 529.13,-25.31 597,-39.5 623.52,-45.04 652.38,-54.96 674.43,-63.4"/>
<polygon fill="midnightblue" stroke="midnightblue" points="392.36,-13.53 382.23,-16.65 392.09,-20.53 392.36,-13.53"/>
</g>
</g>
</svg>
