<?xml version="1.0" encoding="UTF-8" standalone="no"?>
<!DOCTYPE svg PUBLIC "-//W3C//DTD SVG 1.1//EN"
 "http://www.w3.org/Graphics/SVG/1.1/DTD/svg11.dtd">
<!-- Generated by graphviz version 2.43.0 (0)
 -->
<!-- Title: DsoService::toString Pages: 1 -->
<svg width="707pt" height="150pt"
 viewBox="0.00 0.00 707.00 150.00" xmlns="http://www.w3.org/2000/svg" xmlns:xlink="http://www.w3.org/1999/xlink">
<g id="graph0" class="graph" transform="scale(1 1) rotate(0) translate(4 146)">
<title>DsoService::toString</title>
<!-- Node1 -->
<g id="node1" class="node">
<title>Node1</title>
<g id="a_node1"><a xlink:title="Returns mode as a user&#45;friendly string.">
<polygon fill="#999999" stroke="#666666" points="699,-83 583,-83 583,-64 699,-64 699,-83"/>
<text text-anchor="middle" x="641" y="-71" font-family="Helvetica,sans-Serif" font-size="10.00">DsoService::toString</text>
</a>
</g>
</g>
<!-- Node2 -->
<g id="node2" class="node">
<title>Node2</title>
<g id="a_node2"><a xlink:href="classDsoCommand.html#ae5c33b9f7b6fc2d1ed194b024f9e6fb7" target="_top" xlink:title="Invoked when metadata has been received from the DSO.">
<polygon fill="white" stroke="#666666" points="546.5,-142 382.5,-142 382.5,-123 546.5,-123 546.5,-142"/>
<text text-anchor="middle" x="464.5" y="-130" font-family="Helvetica,sans-Serif" font-size="10.00">DsoCommand::metadataRead</text>
</a>
</g>
</g>
<!-- Node1&#45;&gt;Node2 -->
<g id="edge1" class="edge">
<title>Node1&#45;&gt;Node2</title>
<path fill="none" stroke="#63b8ff" d="M611.8,-87.68C593.65,-96.37 569.36,-107.18 547,-114.5 537.08,-117.75 526.3,-120.59 515.92,-123"/>
<polygon fill="#63b8ff" stroke="#63b8ff" points="613.73,-90.63 621.2,-83.11 610.67,-84.34 613.73,-90.63"/>
</g>
<!-- Node5 -->
<g id="node5" class="node">
<title>Node5</title>
<g id="a_node5"><a xlink:href="classDsoCommand.html#a5ed6988ac93f2964979b8dce1425816e" target="_top" xlink:title="Outputs DSO samples in the selected ouput format.">
<polygon fill="white" stroke="#666666" points="547,-105 382,-105 382,-86 547,-86 547,-105"/>
<text text-anchor="middle" x="464.5" y="-93" font-family="Helvetica,sans-Serif" font-size="10.00">DsoCommand::outputSamples</text>
</a>
</g>
</g>
<!-- Node1&#45;&gt;Node5 -->
<g id="edge4" class="edge">
<title>Node1&#45;&gt;Node5</title>
<path fill="none" stroke="#63b8ff" d="M572.62,-82C562.22,-83.31 551.42,-84.67 540.86,-86"/>
<polygon fill="#63b8ff" stroke="#63b8ff" points="573.38,-85.43 582.86,-80.7 572.5,-78.48 573.38,-85.43"/>
</g>
<!-- Node6 -->
<g id="node6" class="node">
<title>Node6</title>
<g id="a_node6"><a xlink:href="classDsoCommand.html#a57f3b6be35c7a6fdadfaa737177016a8" target="_top" xlink:title="Handles service detail discovery events.">
<polygon fill="white" stroke="#666666" points="545,-67.5 384,-67.5 384,-37.5 545,-37.5 545,-67.5"/>
<text text-anchor="start" x="392" y="-55.5" font-family="Helvetica,sans-Serif" font-size="10.00">DsoCommand::serviceDetails</text>
<text text-anchor="middle" x="464.5" y="-44.5" font-family="Helvetica,sans-Serif" font-size="10.00">Discovered</text>
</a>
</g>
</g>
<!-- Node1&#45;&gt;Node6 -->
<g id="edge6" class="edge">
<title>Node1&#45;&gt;Node6</title>
<path fill="none" stroke="#63b8ff" d="M572.82,-65.42C563.8,-64.33 554.47,-63.21 545.25,-62.1"/>
<polygon fill="#63b8ff" stroke="#63b8ff" points="572.52,-68.9 582.86,-66.62 573.35,-61.95 572.52,-68.9"/>
</g>
<!-- Node7 -->
<g id="node7" class="node">
<title>Node7</title>
<g id="a_node7"><a xlink:href="classDsoService.html#adb308ca510109b7aff20c2df3fd57131" target="_top" xlink:title="Returns range as a user&#45;friendly string, or a null QString if mode has no ranges.">
<polygon fill="white" stroke="#666666" points="522.5,-19 406.5,-19 406.5,0 522.5,0 522.5,-19"/>
<text text-anchor="middle" x="464.5" y="-7" font-family="Helvetica,sans-Serif" font-size="10.00">DsoService::toString</text>
</a>
</g>
</g>
<!-- Node1&#45;&gt;Node7 -->
<g id="edge7" class="edge">
<title>Node1&#45;&gt;Node7</title>
<path fill="none" stroke="#63b8ff" d="M614.13,-59.06C595.83,-49.33 570.47,-36.8 547,-28.5 536.59,-24.82 525.18,-21.65 514.28,-19.01"/>
<polygon fill="#63b8ff" stroke="#63b8ff" points="612.55,-62.18 623.01,-63.86 615.88,-56.02 612.55,-62.18"/>
</g>
<!-- Node3 -->
<g id="node3" class="node">
<title>Node3</title>
<g id="a_node3"><a xlink:href="classDsoCommand.html#a96c56e497f56ab5ed43201ad13aede7b" target="_top" xlink:title="Invoked when the DSO settings have been written.">
<polygon fill="white" stroke="#666666" points="346,-123 179,-123 179,-104 346,-104 346,-123"/>
<text text-anchor="middle" x="262.5" y="-111" font-family="Helvetica,sans-Serif" font-size="10.00">DsoCommand::settingsWritten</text>
</a>
</g>
</g>
<!-- Node2&#45;&gt;Node3 -->
<g id="edge2" class="edge">
<title>Node2&#45;&gt;Node3</title>
<path fill="none" stroke="#63b8ff" d="M372.32,-123.84C363.65,-123.01 354.89,-122.18 346.3,-121.37"/>
<polygon fill="#63b8ff" stroke="#63b8ff" points="372.15,-127.34 382.44,-124.8 372.82,-120.37 372.15,-127.34"/>
</g>
<!-- Node4 -->
<g id="node4" class="node">
<title>Node4</title>
<g id="a_node4"><a xlink:href="classDsoCommand.html#abdc2af86181151e0c64c655ed265fbe8" target="_top" xlink:title="Returns a Pokit service object for the derived command class.">
<polygon fill="white" stroke="#666666" points="143,-123 0,-123 0,-104 143,-104 143,-123"/>
<text text-anchor="middle" x="71.5" y="-111" font-family="Helvetica,sans-Serif" font-size="10.00">DsoCommand::getService</text>
</a>
</g>
</g>
<!-- Node3&#45;&gt;Node4 -->
<g id="edge3" class="edge">
<title>Node3&#45;&gt;Node4</title>
<path fill="none" stroke="#63b8ff" d="M168.78,-113.5C160.15,-113.5 151.5,-113.5 143.12,-113.5"/>
<polygon fill="#63b8ff" stroke="#63b8ff" points="168.88,-117 178.88,-113.5 168.88,-110 168.88,-117"/>
</g>
<!-- Node5&#45;&gt;Node3 -->
<g id="edge5" class="edge">
<title>Node5&#45;&gt;Node3</title>
<path fill="none" stroke="#63b8ff" d="M371.86,-103.75C363.3,-104.52 354.65,-105.3 346.17,-106.06"/>
<polygon fill="#63b8ff" stroke="#63b8ff" points="372.22,-107.23 381.86,-102.85 371.59,-100.26 372.22,-107.23"/>
</g>
</g>
</svg>
