<?xml version="1.0" encoding="UTF-8" standalone="no"?>
<!DOCTYPE svg PUBLIC "-//W3C//DTD SVG 1.1//EN"
 "http://www.w3.org/Graphics/SVG/1.1/DTD/svg11.dtd">
<!-- Generated by graphviz version 2.43.0 (0)
 -->
<!-- Title: StatusServicePrivate::parseStatus Pages: 1 -->
<svg width="650pt" height="297pt"
 viewBox="0.00 0.00 650.00 296.81" xmlns="http://www.w3.org/2000/svg" xmlns:xlink="http://www.w3.org/1999/xlink">
<g id="graph0" class="graph" transform="scale(1 1) rotate(0) translate(4 292.81)">
<title>StatusServicePrivate::parseStatus</title>
<!-- Node1 -->
<g id="node1" class="node">
<title>Node1</title>
<g id="a_node1"><a xlink:title="Parses the Status value into a DeviceStatus and battery voltage.">
<polygon fill="#bfbfbf" stroke="black" points="0,-118.81 0,-148.81 118,-148.81 118,-118.81 0,-118.81"/>
<text text-anchor="start" x="8" y="-136.81" font-family="Helvetica,sans-Serif" font-size="10.00">StatusServicePrivate</text>
<text text-anchor="middle" x="59" y="-125.81" font-family="Helvetica,sans-Serif" font-size="10.00">::parseStatus</text>
</a>
</g>
</g>
<!-- Node2 -->
<g id="node2" class="node">
<title>Node2</title>
<g id="a_node2"><a target="_parent" xlink:href="https://doc.qt.io/qt-5/qstring.html#arg-11" xlink:title=" ">
<polygon fill="none" stroke="black" points="193,-269.31 193,-288.31 267,-288.31 267,-269.31 193,-269.31"/>
<text text-anchor="middle" x="230" y="-276.31" font-family="Helvetica,sans-Serif" font-size="10.00">QString::arg</text>
</a>
</g>
</g>
<!-- Node1&#45;&gt;Node2 -->
<g id="edge1" class="edge">
<title>Node1&#45;&gt;Node2</title>
<path fill="none" stroke="midnightblue" d="M66.92,-148.87C79.99,-175.55 110.88,-231 154,-259.81 162.63,-265.57 172.88,-269.59 182.99,-272.38"/>
<polygon fill="midnightblue" stroke="midnightblue" points="182.44,-275.85 192.98,-274.8 184.08,-269.05 182.44,-275.85"/>
</g>
<!-- Node3 -->
<g id="node3" class="node">
<title>Node3</title>
<g id="a_node3"><a target="_parent" xlink:href="https://doc.qt.io/qt-5/qbytearray.html#at" xlink:title=" ">
<polygon fill="none" stroke="black" points="186,-231.31 186,-250.31 274,-250.31 274,-231.31 186,-231.31"/>
<text text-anchor="middle" x="230" y="-238.31" font-family="Helvetica,sans-Serif" font-size="10.00">QByteArray::at</text>
</a>
</g>
</g>
<!-- Node1&#45;&gt;Node3 -->
<g id="edge2" class="edge">
<title>Node1&#45;&gt;Node3</title>
<path fill="none" stroke="midnightblue" d="M71.97,-149.03C88.35,-168.81 119.67,-203.04 154,-221.81 160.88,-225.57 168.52,-228.6 176.21,-231.04"/>
<polygon fill="midnightblue" stroke="midnightblue" points="175.36,-234.44 185.94,-233.83 177.29,-227.71 175.36,-234.44"/>
</g>
<!-- Node4 -->
<g id="node4" class="node">
<title>Node4</title>
<g id="a_node4"><a xlink:href="classStatusService.html#adddc5b563c16a8ad199f6a07966d372c" target="_top" xlink:title="Returns a string version of the status enum label.">
<polygon fill="none" stroke="black" points="154,-181.81 154,-211.81 306,-211.81 306,-181.81 154,-181.81"/>
<text text-anchor="start" x="162" y="-199.81" font-family="Helvetica,sans-Serif" font-size="10.00">StatusService::deviceStatus</text>
<text text-anchor="middle" x="230" y="-188.81" font-family="Helvetica,sans-Serif" font-size="10.00">Label</text>
</a>
</g>
</g>
<!-- Node1&#45;&gt;Node4 -->
<g id="edge3" class="edge">
<title>Node1&#45;&gt;Node4</title>
<path fill="none" stroke="midnightblue" d="M95.95,-148.95C113.38,-156.14 134.67,-164.69 154,-171.81 160,-174.02 166.3,-176.25 172.59,-178.43"/>
<polygon fill="midnightblue" stroke="midnightblue" points="171.84,-181.87 182.43,-181.79 174.1,-175.24 171.84,-181.87"/>
</g>
<!-- Node8 -->
<g id="node8" class="node">
<title>Node8</title>
<g id="a_node8"><a target="_parent" xlink:href="https://doc.qt.io/qt-5/qbytearray.html#mid" xlink:title=" ">
<polygon fill="none" stroke="black" points="181.5,-143.31 181.5,-162.31 278.5,-162.31 278.5,-143.31 181.5,-143.31"/>
<text text-anchor="middle" x="230" y="-150.31" font-family="Helvetica,sans-Serif" font-size="10.00">QByteArray::mid</text>
</a>
</g>
</g>
<!-- Node1&#45;&gt;Node8 -->
<g id="edge8" class="edge">
<title>Node1&#45;&gt;Node8</title>
<path fill="none" stroke="midnightblue" d="M118.16,-140.35C135.24,-142.27 153.91,-144.37 170.98,-146.29"/>
<polygon fill="midnightblue" stroke="midnightblue" points="171.05,-149.81 181.38,-147.45 171.83,-142.86 171.05,-149.81"/>
</g>
<!-- Node9 -->
<g id="node9" class="node">
<title>Node9</title>
<g id="a_node9"><a target="_parent" xlink:href="https://doc.qt.io/qt-5/qbytearray.html#size" xlink:title=" ">
<polygon fill="none" stroke="black" points="181,-105.31 181,-124.31 279,-124.31 279,-105.31 181,-105.31"/>
<text text-anchor="middle" x="230" y="-112.31" font-family="Helvetica,sans-Serif" font-size="10.00">QByteArray::size</text>
</a>
</g>
</g>
<!-- Node1&#45;&gt;Node9 -->
<g id="edge9" class="edge">
<title>Node1&#45;&gt;Node9</title>
<path fill="none" stroke="midnightblue" d="M118.16,-127.27C135.08,-125.37 153.57,-123.29 170.51,-121.38"/>
<polygon fill="midnightblue" stroke="midnightblue" points="171.28,-124.82 180.83,-120.22 170.5,-117.86 171.28,-124.82"/>
</g>
<!-- Node10 -->
<g id="node10" class="node">
<title>Node10</title>
<g id="a_node10"><a target="_parent" xlink:href="https://doc.qt.io/qt-5/qbytearray.html#toHex" xlink:title=" ">
<polygon fill="none" stroke="black" points="176.5,-67.31 176.5,-86.31 283.5,-86.31 283.5,-67.31 176.5,-67.31"/>
<text text-anchor="middle" x="230" y="-74.31" font-family="Helvetica,sans-Serif" font-size="10.00">QByteArray::toHex</text>
</a>
</g>
</g>
<!-- Node1&#45;&gt;Node10 -->
<g id="edge10" class="edge">
<title>Node1&#45;&gt;Node10</title>
<path fill="none" stroke="midnightblue" d="M93.96,-118.78C111.65,-111.28 133.76,-102.43 154,-95.81 161.45,-93.37 169.4,-91.06 177.24,-88.94"/>
<polygon fill="midnightblue" stroke="midnightblue" points="178.27,-92.29 187.06,-86.36 176.5,-85.51 178.27,-92.29"/>
</g>
<!-- Node11 -->
<g id="node11" class="node">
<title>Node11</title>
<g id="a_node11"><a target="_parent" xlink:href="https://doc.qt.io/qt-5/qobject.html#tr" xlink:title=" ">
<polygon fill="none" stroke="black" points="195.5,-29.31 195.5,-48.31 264.5,-48.31 264.5,-29.31 195.5,-29.31"/>
<text text-anchor="middle" x="230" y="-36.31" font-family="Helvetica,sans-Serif" font-size="10.00">QObject::tr</text>
</a>
</g>
</g>
<!-- Node1&#45;&gt;Node11 -->
<g id="edge11" class="edge">
<title>Node1&#45;&gt;Node11</title>
<path fill="none" stroke="midnightblue" d="M74.51,-118.63C91.84,-101.39 122.47,-73.59 154,-57.81 163.74,-52.93 174.83,-49.24 185.45,-46.47"/>
<polygon fill="midnightblue" stroke="midnightblue" points="186.5,-49.82 195.42,-44.09 184.88,-43.01 186.5,-49.82"/>
</g>
<!-- Node5 -->
<g id="node5" class="node">
<title>Node5</title>
<g id="a_node5"><a xlink:href="classStatusService.html#ae7be4aae021ae50faef48ed2812eb6a7" target="_top" xlink:title="Returns the most recent value of the Status service&#39;s Status characteristic.">
<polygon fill="none" stroke="black" points="342,-89.31 342,-108.31 461,-108.31 461,-89.31 342,-89.31"/>
<text text-anchor="middle" x="401.5" y="-96.31" font-family="Helvetica,sans-Serif" font-size="10.00">StatusService::status</text>
</a>
</g>
</g>
<!-- Node4&#45;&gt;Node5 -->
<g id="edge4" class="edge">
<title>Node4&#45;&gt;Node5</title>
<path fill="none" stroke="midnightblue" d="M283.59,-181.8C291.28,-178.88 298.98,-175.55 306,-171.81 335.35,-156.16 365.03,-131.46 383.09,-115.19"/>
<polygon fill="midnightblue" stroke="midnightblue" points="385.53,-117.71 390.54,-108.38 380.8,-112.55 385.53,-117.71"/>
</g>
<!-- Node5&#45;&gt;Node1 -->
<g id="edge6" class="edge">
<title>Node5&#45;&gt;Node1</title>
<path fill="none" stroke="midnightblue" d="M392.97,-89.09C378.45,-71.25 344.59,-33.81 306,-19.81 242.5,3.24 215.1,9.01 154,-19.81 114.77,-38.31 86.36,-82.09 71.59,-109.7"/>
<polygon fill="midnightblue" stroke="midnightblue" points="68.41,-108.23 66.93,-118.72 74.63,-111.43 68.41,-108.23"/>
</g>
<!-- Node6 -->
<g id="node6" class="node">
<title>Node6</title>
<g id="a_node6"><a target="_parent" xlink:href="https://doc.qt.io/qt-5/qlowenergycharacteristic.html#isValid" xlink:title=" ">
<polygon fill="none" stroke="black" points="497,-108.81 497,-138.81 642,-138.81 642,-108.81 497,-108.81"/>
<text text-anchor="start" x="505" y="-126.81" font-family="Helvetica,sans-Serif" font-size="10.00">QLowEnergyCharacteristic</text>
<text text-anchor="middle" x="569.5" y="-115.81" font-family="Helvetica,sans-Serif" font-size="10.00">::isValid</text>
</a>
</g>
</g>
<!-- Node5&#45;&gt;Node6 -->
<g id="edge5" class="edge">
<title>Node5&#45;&gt;Node6</title>
<path fill="none" stroke="midnightblue" d="M461.03,-107.62C469.34,-108.87 478.02,-110.18 486.69,-111.49"/>
<polygon fill="midnightblue" stroke="midnightblue" points="486.42,-114.99 496.83,-113.01 487.46,-108.06 486.42,-114.99"/>
</g>
<!-- Node7 -->
<g id="node7" class="node">
<title>Node7</title>
<g id="a_node7"><a target="_parent" xlink:href="https://doc.qt.io/qt-5/qlowenergycharacteristic.html#value" xlink:title=" ">
<polygon fill="none" stroke="black" points="497,-59.81 497,-89.81 642,-89.81 642,-59.81 497,-59.81"/>
<text text-anchor="start" x="505" y="-77.81" font-family="Helvetica,sans-Serif" font-size="10.00">QLowEnergyCharacteristic</text>
<text text-anchor="middle" x="569.5" y="-66.81" font-family="Helvetica,sans-Serif" font-size="10.00">::value</text>
</a>
</g>
</g>
<!-- Node5&#45;&gt;Node7 -->
<g id="edge7" class="edge">
<title>Node5&#45;&gt;Node7</title>
<path fill="none" stroke="midnightblue" d="M461.03,-90.35C469.34,-89.14 478.02,-87.89 486.69,-86.64"/>
<polygon fill="midnightblue" stroke="midnightblue" points="487.43,-90.07 496.83,-85.17 486.43,-83.14 487.43,-90.07"/>
</g>
</g>
</svg>
