<?xml version="1.0" encoding="UTF-8" standalone="no"?>
<!DOCTYPE svg PUBLIC "-//W3C//DTD SVG 1.1//EN"
 "http://www.w3.org/Graphics/SVG/1.1/DTD/svg11.dtd">
<!-- Generated by graphviz version 2.43.0 (0)
 -->
<!-- Title: MeterCommand::outputReading Pages: 1 -->
<svg width="553pt" height="677pt"
 viewBox="0.00 0.00 553.00 676.85" xmlns="http://www.w3.org/2000/svg" xmlns:xlink="http://www.w3.org/1999/xlink">
<g id="graph0" class="graph" transform="scale(1 1) rotate(0) translate(4 672.85)">
<title>MeterCommand::outputReading</title>
<!-- Node1 -->
<g id="node1" class="node">
<title>Node1</title>
<g id="a_node1"><a xlink:title="Outputs meter reading in the selected ouput format.">
<polygon fill="#999999" stroke="#666666" points="173,-339 0,-339 0,-320 173,-320 173,-339"/>
<text text-anchor="middle" x="86.5" y="-327" font-family="Helvetica,sans-Serif" font-size="10.00">MeterCommand::outputReading</text>
</a>
</g>
</g>
<!-- Node2 -->
<g id="node2" class="node">
<title>Node2</title>
<g id="a_node2"><a target="_parent" xlink:href="https://doc.qt.io/qt-5/qstring.html#arg-11" xlink:title=" ">
<polygon fill="white" stroke="#666666" points="515,-658 441,-658 441,-639 515,-639 515,-658"/>
<text text-anchor="middle" x="478" y="-646" font-family="Helvetica,sans-Serif" font-size="10.00">QString::arg</text>
</a>
</g>
</g>
<!-- Node1&#45;&gt;Node2 -->
<g id="edge1" class="edge">
<title>Node1&#45;&gt;Node2</title>
<path fill="none" stroke="#63b8ff" d="M87.89,-339.04C90.23,-381.96 106.01,-558.27 209,-632.5 274.28,-679.55 373.39,-670.42 431.02,-659.48"/>
<polygon fill="#63b8ff" stroke="#63b8ff" points="431.81,-662.89 440.93,-657.51 430.44,-656.03 431.81,-662.89"/>
</g>
<!-- Node3 -->
<g id="node3" class="node">
<title>Node3</title>
<g id="a_node3"><a xlink:href="classDeviceCommand.html#ae619166395b5651f1316fd5336d9fa2c" target="_top" xlink:title="Disconnects the underlying Pokit device, and sets exitCode to be return to the OS once the disconnect...">
<polygon fill="white" stroke="#666666" points="371.5,-537 212.5,-537 212.5,-518 371.5,-518 371.5,-537"/>
<text text-anchor="middle" x="292" y="-525" font-family="Helvetica,sans-Serif" font-size="10.00">DeviceCommand::disconnect</text>
</a>
</g>
</g>
<!-- Node1&#45;&gt;Node3 -->
<g id="edge2" class="edge">
<title>Node1&#45;&gt;Node3</title>
<path fill="none" stroke="#63b8ff" d="M91.05,-339.12C102.72,-369.38 143.02,-463.26 209,-508.5 211.92,-510.5 215.02,-512.3 218.25,-513.9"/>
<polygon fill="#63b8ff" stroke="#63b8ff" points="217.04,-517.19 227.6,-517.95 219.82,-510.77 217.04,-517.19"/>
</g>
<!-- Node6 -->
<g id="node6" class="node">
<title>Node6</title>
<g id="a_node6"><a target="_parent" xlink:href="https://doc.qt.io/qt-5/qobject.html#tr" xlink:title=" ">
<polygon fill="white" stroke="#666666" points="512.5,-339 443.5,-339 443.5,-320 512.5,-320 512.5,-339"/>
<text text-anchor="middle" x="478" y="-327" font-family="Helvetica,sans-Serif" font-size="10.00">QObject::tr</text>
</a>
</g>
</g>
<!-- Node1&#45;&gt;Node6 -->
<g id="edge25" class="edge">
<title>Node1&#45;&gt;Node6</title>
<path fill="none" stroke="#63b8ff" d="M173.46,-329.5C253.72,-329.5 370.29,-329.5 433.05,-329.5"/>
<polygon fill="#63b8ff" stroke="#63b8ff" points="433.38,-333 443.38,-329.5 433.38,-326 433.38,-333"/>
</g>
<!-- Node7 -->
<g id="node7" class="node">
<title>Node7</title>
<g id="a_node7"><a xlink:href="classAbstractCommand.html#af85c842568f8a3a893e336e449ef7813" target="_top" xlink:title="Returns an RFC 4180 compliant version of field.">
<polygon fill="white" stroke="#666666" points="375,-623.5 209,-623.5 209,-593.5 375,-593.5 375,-623.5"/>
<text text-anchor="start" x="217" y="-611.5" font-family="Helvetica,sans-Serif" font-size="10.00">AbstractCommand::escapeCsv</text>
<text text-anchor="middle" x="292" y="-600.5" font-family="Helvetica,sans-Serif" font-size="10.00">Field</text>
</a>
</g>
</g>
<!-- Node1&#45;&gt;Node7 -->
<g id="edge6" class="edge">
<title>Node1&#45;&gt;Node7</title>
<path fill="none" stroke="#63b8ff" d="M89.44,-339.24C97.3,-376.19 130.19,-509.09 209,-579.5 212.84,-582.93 217.12,-585.97 221.64,-588.65"/>
<polygon fill="#63b8ff" stroke="#63b8ff" points="220.12,-591.8 230.6,-593.37 223.39,-585.61 220.12,-591.8"/>
</g>
<!-- Node9 -->
<g id="node9" class="node">
<title>Node9</title>
<g id="a_node9"><a target="_parent" xlink:href="https://doc.qt.io/qt-5/qstring.html#fromLatin1" xlink:title=" ">
<polygon fill="white" stroke="#666666" points="534,-578 422,-578 422,-559 534,-559 534,-578"/>
<text text-anchor="middle" x="478" y="-566" font-family="Helvetica,sans-Serif" font-size="10.00">QString::fromLatin1</text>
</a>
</g>
</g>
<!-- Node1&#45;&gt;Node9 -->
<g id="edge10" class="edge">
<title>Node1&#45;&gt;Node9</title>
<path fill="none" stroke="#63b8ff" d="M89.5,-339.06C97.38,-374.03 129.81,-495.62 209,-546.5 269.85,-585.6 355.22,-585.43 413.14,-579.2"/>
<polygon fill="#63b8ff" stroke="#63b8ff" points="413.73,-582.66 423.26,-578.02 412.92,-575.7 413.73,-582.66"/>
</g>
<!-- Node10 -->
<g id="node10" class="node">
<title>Node10</title>
<g id="a_node10"><a target="_parent" xlink:href="https://doc.qt.io/qt-5/qstring.html#fromUtf8" xlink:title=" ">
<polygon fill="white" stroke="#666666" points="343.5,-451 240.5,-451 240.5,-432 343.5,-432 343.5,-451"/>
<text text-anchor="middle" x="292" y="-439" font-family="Helvetica,sans-Serif" font-size="10.00">QString::fromUtf8</text>
</a>
</g>
</g>
<!-- Node1&#45;&gt;Node10 -->
<g id="edge11" class="edge">
<title>Node1&#45;&gt;Node10</title>
<path fill="none" stroke="#63b8ff" d="M96.88,-339.22C116.05,-358.46 161.89,-401.48 209,-423.5 215.79,-426.68 223.17,-429.3 230.62,-431.47"/>
<polygon fill="#63b8ff" stroke="#63b8ff" points="229.85,-434.89 240.41,-434.07 231.64,-428.12 229.85,-434.89"/>
</g>
<!-- Node11 -->
<g id="node11" class="node">
<title>Node11</title>
<g id="a_node11"><a target="_parent" xlink:href="https://doc.qt.io/qt-5/qstring.html#insert-2" xlink:title=" ">
<polygon fill="white" stroke="#666666" points="335,-414 249,-414 249,-395 335,-395 335,-414"/>
<text text-anchor="middle" x="292" y="-402" font-family="Helvetica,sans-Serif" font-size="10.00">QString::insert</text>
</a>
</g>
</g>
<!-- Node1&#45;&gt;Node11 -->
<g id="edge12" class="edge">
<title>Node1&#45;&gt;Node11</title>
<path fill="none" stroke="#63b8ff" d="M104.7,-339.07C127.79,-351.57 170.39,-373.39 209,-386.5 218.52,-389.73 228.87,-392.53 238.9,-394.89"/>
<polygon fill="#63b8ff" stroke="#63b8ff" points="238.27,-398.34 248.79,-397.11 239.8,-391.51 238.27,-398.34"/>
</g>
<!-- Node12 -->
<g id="node12" class="node">
<title>Node12</title>
<g id="a_node12"><a target="_parent" xlink:href="https://doc.qt.io/qt-5/qvariant.html#isNull" xlink:title=" ">
<polygon fill="white" stroke="#666666" points="338,-377 246,-377 246,-358 338,-358 338,-377"/>
<text text-anchor="middle" x="292" y="-365" font-family="Helvetica,sans-Serif" font-size="10.00">QVariant::isNull</text>
</a>
</g>
</g>
<!-- Node1&#45;&gt;Node12 -->
<g id="edge13" class="edge">
<title>Node1&#45;&gt;Node12</title>
<path fill="none" stroke="#63b8ff" d="M138.59,-339.04C168.21,-344.57 205.51,-351.54 235.8,-357.19"/>
<polygon fill="#63b8ff" stroke="#63b8ff" points="235.31,-360.66 245.79,-359.06 236.6,-353.78 235.31,-360.66"/>
</g>
<!-- Node13 -->
<g id="node13" class="node">
<title>Node13</title>
<g id="a_node13"><a xlink:href="classMultimeterService.html#acafbc2f0d9f123634c54a14c963e88ca" target="_top" xlink:title="Returns the maximum value for range in (integer) millivolts, or the string &quot;Auto&quot;.">
<polygon fill="white" stroke="#666666" points="348.5,-301.5 235.5,-301.5 235.5,-271.5 348.5,-271.5 348.5,-301.5"/>
<text text-anchor="start" x="243.5" y="-289.5" font-family="Helvetica,sans-Serif" font-size="10.00">MultimeterService::</text>
<text text-anchor="middle" x="292" y="-278.5" font-family="Helvetica,sans-Serif" font-size="10.00">maxValue</text>
</a>
</g>
</g>
<!-- Node1&#45;&gt;Node13 -->
<g id="edge14" class="edge">
<title>Node1&#45;&gt;Node13</title>
<path fill="none" stroke="#63b8ff" d="M132.66,-319.96C159.91,-314.2 195.1,-306.76 225.38,-300.37"/>
<polygon fill="#63b8ff" stroke="#63b8ff" points="226.38,-303.73 235.44,-298.24 224.93,-296.88 226.38,-303.73"/>
</g>
<!-- Node14 -->
<g id="node14" class="node">
<title>Node14</title>
<g id="a_node14"><a xlink:href="classMultimeterService.html#a01d0e40b92ddcb6e4c89e4c8504e30d4" target="_top" xlink:title="Returns the minimum value for range in (integer) millivolts, or the string &quot;Auto&quot;.">
<polygon fill="white" stroke="#666666" points="348.5,-67.5 235.5,-67.5 235.5,-37.5 348.5,-37.5 348.5,-67.5"/>
<text text-anchor="start" x="243.5" y="-55.5" font-family="Helvetica,sans-Serif" font-size="10.00">MultimeterService::</text>
<text text-anchor="middle" x="292" y="-44.5" font-family="Helvetica,sans-Serif" font-size="10.00">minValue</text>
</a>
</g>
</g>
<!-- Node1&#45;&gt;Node14 -->
<g id="edge16" class="edge">
<title>Node1&#45;&gt;Node14</title>
<path fill="none" stroke="#63b8ff" d="M89.23,-319.76C96.43,-282.24 127.47,-145.72 209,-76.5 213.97,-72.28 219.65,-68.8 225.66,-65.93"/>
<polygon fill="#63b8ff" stroke="#63b8ff" points="227.42,-68.99 235.3,-61.91 224.72,-62.53 227.42,-68.99"/>
</g>
<!-- Node15 -->
<g id="node15" class="node">
<title>Node15</title>
<g id="a_node15"><a target="_parent" xlink:href="https://doc.qt.io/qt-5/qvariant.html#toInt" xlink:title=" ">
<polygon fill="white" stroke="#666666" points="335.5,-253 248.5,-253 248.5,-234 335.5,-234 335.5,-253"/>
<text text-anchor="middle" x="292" y="-241" font-family="Helvetica,sans-Serif" font-size="10.00">QVariant::toInt</text>
</a>
</g>
</g>
<!-- Node1&#45;&gt;Node15 -->
<g id="edge18" class="edge">
<title>Node1&#45;&gt;Node15</title>
<path fill="none" stroke="#63b8ff" d="M101.82,-319.87C123.92,-305.43 168.06,-278.18 209,-262.5 218.31,-258.93 228.49,-255.92 238.41,-253.41"/>
<polygon fill="#63b8ff" stroke="#63b8ff" points="239.28,-256.8 248.19,-251.08 237.65,-249.99 239.28,-256.8"/>
</g>
<!-- Node16 -->
<g id="node16" class="node">
<title>Node16</title>
<g id="a_node16"><a target="_parent" xlink:href="https://doc.qt.io/qt-5/qjsondocument.html#toJson" xlink:title=" ">
<polygon fill="white" stroke="#666666" points="357.5,-216 226.5,-216 226.5,-197 357.5,-197 357.5,-216"/>
<text text-anchor="middle" x="292" y="-204" font-family="Helvetica,sans-Serif" font-size="10.00">QJsonDocument::toJson</text>
</a>
</g>
</g>
<!-- Node1&#45;&gt;Node16 -->
<g id="edge19" class="edge">
<title>Node1&#45;&gt;Node16</title>
<path fill="none" stroke="#63b8ff" d="M95.51,-319.9C113.49,-299.01 159.4,-249.35 209,-224.5 212.81,-222.59 216.82,-220.88 220.94,-219.35"/>
<polygon fill="#63b8ff" stroke="#63b8ff" points="222.3,-222.59 230.68,-216.11 220.09,-215.95 222.3,-222.59"/>
</g>
<!-- Node17 -->
<g id="node17" class="node">
<title>Node17</title>
<g id="a_node17"><a target="_parent" xlink:href="https://doc.qt.io/qt-5/qvariant.html#toJsonValue" xlink:title=" ">
<polygon fill="white" stroke="#666666" points="353,-179 231,-179 231,-160 353,-160 353,-179"/>
<text text-anchor="middle" x="292" y="-167" font-family="Helvetica,sans-Serif" font-size="10.00">QVariant::toJsonValue</text>
</a>
</g>
</g>
<!-- Node1&#45;&gt;Node17 -->
<g id="edge20" class="edge">
<title>Node1&#45;&gt;Node17</title>
<path fill="none" stroke="#63b8ff" d="M92.82,-319.68C107.5,-293.55 151.38,-222.01 209,-187.5 212.83,-185.21 216.92,-183.2 221.15,-181.45"/>
<polygon fill="#63b8ff" stroke="#63b8ff" points="222.39,-184.73 230.59,-178.02 220,-178.15 222.39,-184.73"/>
</g>
<!-- Node18 -->
<g id="node18" class="node">
<title>Node18</title>
<g id="a_node18"><a target="_parent" xlink:href="https://doc.qt.io/qt-5/qbytearray.html#toStdString" xlink:title=" ">
<polygon fill="white" stroke="#666666" points="358,-142 226,-142 226,-123 358,-123 358,-142"/>
<text text-anchor="middle" x="292" y="-130" font-family="Helvetica,sans-Serif" font-size="10.00">QByteArray::toStdString</text>
</a>
</g>
</g>
<!-- Node1&#45;&gt;Node18 -->
<g id="edge21" class="edge">
<title>Node1&#45;&gt;Node18</title>
<path fill="none" stroke="#63b8ff" d="M91.03,-319.84C102.64,-289.49 142.76,-195.36 209,-150.5 211.43,-148.85 213.99,-147.35 216.64,-145.99"/>
<polygon fill="#63b8ff" stroke="#63b8ff" points="218.23,-149.11 225.94,-141.85 215.38,-142.72 218.23,-149.11"/>
</g>
<!-- Node19 -->
<g id="node19" class="node">
<title>Node19</title>
<g id="a_node19"><a target="_parent" xlink:href="https://doc.qt.io/qt-5/qvariant.html#toString" xlink:title=" ">
<polygon fill="white" stroke="#666666" points="343.5,-105 240.5,-105 240.5,-86 343.5,-86 343.5,-105"/>
<text text-anchor="middle" x="292" y="-93" font-family="Helvetica,sans-Serif" font-size="10.00">QVariant::toString</text>
</a>
</g>
</g>
<!-- Node1&#45;&gt;Node19 -->
<g id="edge22" class="edge">
<title>Node1&#45;&gt;Node19</title>
<path fill="none" stroke="#63b8ff" d="M89.88,-319.86C98.84,-285.63 133.96,-169.05 209,-113.5 215.5,-108.69 223.03,-105.12 230.84,-102.48"/>
<polygon fill="#63b8ff" stroke="#63b8ff" points="231.82,-105.84 240.45,-99.69 229.87,-99.11 231.82,-105.84"/>
</g>
<!-- Node20 -->
<g id="node20" class="node">
<title>Node20</title>
<g id="a_node20"><a xlink:href="classMultimeterService.html#a58a03dbc0ae216dc60f27d975af92cf8" target="_top" xlink:title="Returns mode as a user&#45;friendly string.">
<polygon fill="white" stroke="#666666" points="348.5,-499.5 235.5,-499.5 235.5,-469.5 348.5,-469.5 348.5,-499.5"/>
<text text-anchor="start" x="243.5" y="-487.5" font-family="Helvetica,sans-Serif" font-size="10.00">MultimeterService::</text>
<text text-anchor="middle" x="292" y="-476.5" font-family="Helvetica,sans-Serif" font-size="10.00">toString</text>
</a>
</g>
</g>
<!-- Node1&#45;&gt;Node20 -->
<g id="edge23" class="edge">
<title>Node1&#45;&gt;Node20</title>
<path fill="none" stroke="#63b8ff" d="M93.61,-339.04C109.54,-363.17 154.92,-427.05 209,-460.5 214.3,-463.78 220.07,-466.62 226.01,-469.1"/>
<polygon fill="#63b8ff" stroke="#63b8ff" points="224.85,-472.4 235.44,-472.68 227.33,-465.85 224.85,-472.4"/>
</g>
<!-- Node21 -->
<g id="node21" class="node">
<title>Node21</title>
<g id="a_node21"><a target="_parent" xlink:href="https://doc.qt.io/qt-5/qvariant.html#type" xlink:title=" ">
<polygon fill="white" stroke="#666666" points="335,-19 249,-19 249,0 335,0 335,-19"/>
<text text-anchor="middle" x="292" y="-7" font-family="Helvetica,sans-Serif" font-size="10.00">QVariant::type</text>
</a>
</g>
</g>
<!-- Node1&#45;&gt;Node21 -->
<g id="edge26" class="edge">
<title>Node1&#45;&gt;Node21</title>
<path fill="none" stroke="#63b8ff" d="M88.27,-319.86C92.18,-277.96 113.49,-110.17 209,-28.5 217.42,-21.3 228.04,-16.7 238.82,-13.79"/>
<polygon fill="#63b8ff" stroke="#63b8ff" points="239.72,-17.17 248.71,-11.56 238.19,-10.34 239.72,-17.17"/>
</g>
<!-- Node4 -->
<g id="node4" class="node">
<title>Node4</title>
<g id="a_node4"><a xlink:href="classPokitDevice.html#a2e2fb6b30e6f5f0d7bc6cd8f806d6423" target="_top" xlink:title="Returns a non&#45;const pointer to the controller used to access the Pokit device.">
<polygon fill="white" stroke="#666666" points="542,-539 414,-539 414,-520 542,-520 542,-539"/>
<text text-anchor="middle" x="478" y="-527" font-family="Helvetica,sans-Serif" font-size="10.00">PokitDevice::controller</text>
</a>
</g>
</g>
<!-- Node3&#45;&gt;Node4 -->
<g id="edge3" class="edge">
<title>Node3&#45;&gt;Node4</title>
<path fill="none" stroke="#63b8ff" d="M371.57,-528.35C382.3,-528.47 393.28,-528.59 403.91,-528.71"/>
<polygon fill="#63b8ff" stroke="#63b8ff" points="403.94,-532.21 413.98,-528.81 404.01,-525.21 403.94,-532.21"/>
</g>
<!-- Node5 -->
<g id="node5" class="node">
<title>Node5</title>
<g id="a_node5"><a target="_parent" xlink:href="https://doc.qt.io/qt-5/qlowenergycontroller.html#disconnectFromDevice" xlink:title=" ">
<polygon fill="white" stroke="#666666" points="545,-501.5 411,-501.5 411,-471.5 545,-471.5 545,-501.5"/>
<text text-anchor="start" x="419" y="-489.5" font-family="Helvetica,sans-Serif" font-size="10.00">QLowEnergyController</text>
<text text-anchor="middle" x="478" y="-478.5" font-family="Helvetica,sans-Serif" font-size="10.00">::disconnectFromDevice</text>
</a>
</g>
</g>
<!-- Node3&#45;&gt;Node5 -->
<g id="edge4" class="edge">
<title>Node3&#45;&gt;Node5</title>
<path fill="none" stroke="#63b8ff" d="M335.68,-517.99C355.1,-513.66 378.68,-508.41 400.97,-503.44"/>
<polygon fill="#63b8ff" stroke="#63b8ff" points="401.77,-506.85 410.77,-501.26 400.24,-500.02 401.77,-506.85"/>
</g>
<!-- Node3&#45;&gt;Node6 -->
<g id="edge5" class="edge">
<title>Node3&#45;&gt;Node6</title>
<path fill="none" stroke="#63b8ff" d="M357.96,-517.89C364.04,-515.42 369.84,-512.34 375,-508.5 403.69,-487.13 449.83,-389.85 468.62,-348.35"/>
<polygon fill="#63b8ff" stroke="#63b8ff" points="471.88,-349.64 472.79,-339.08 465.5,-346.77 471.88,-349.64"/>
</g>
<!-- Node7&#45;&gt;Node2 -->
<g id="edge7" class="edge">
<title>Node7&#45;&gt;Node2</title>
<path fill="none" stroke="#63b8ff" d="M362.04,-623.51C385.09,-628.52 410.19,-633.98 431.04,-638.51"/>
<polygon fill="#63b8ff" stroke="#63b8ff" points="430.39,-641.95 440.91,-640.65 431.88,-635.11 430.39,-641.95"/>
</g>
<!-- Node8 -->
<g id="node8" class="node">
<title>Node8</title>
<g id="a_node8"><a target="_parent" xlink:href="https://doc.qt.io/qt-5/qstring.html#contains-1" xlink:title=" ">
<polygon fill="white" stroke="#666666" points="528,-618 428,-618 428,-599 528,-599 528,-618"/>
<text text-anchor="middle" x="478" y="-606" font-family="Helvetica,sans-Serif" font-size="10.00">QString::contains</text>
</a>
</g>
</g>
<!-- Node7&#45;&gt;Node8 -->
<g id="edge8" class="edge">
<title>Node7&#45;&gt;Node8</title>
<path fill="none" stroke="#63b8ff" d="M375.04,-608.5C389.4,-608.5 404.09,-608.5 417.68,-608.5"/>
<polygon fill="#63b8ff" stroke="#63b8ff" points="417.83,-612 427.83,-608.5 417.83,-605 417.83,-612"/>
</g>
<!-- Node7&#45;&gt;Node9 -->
<g id="edge9" class="edge">
<title>Node7&#45;&gt;Node9</title>
<path fill="none" stroke="#63b8ff" d="M362.04,-593.49C382.27,-589.09 404.07,-584.35 423.2,-580.2"/>
<polygon fill="#63b8ff" stroke="#63b8ff" points="424.2,-583.56 433.23,-578.01 422.72,-576.72 424.2,-583.56"/>
</g>
<!-- Node13&#45;&gt;Node6 -->
<g id="edge15" class="edge">
<title>Node13&#45;&gt;Node6</title>
<path fill="none" stroke="#63b8ff" d="M348.71,-299.52C375.85,-305.86 408.02,-313.38 433.35,-319.3"/>
<polygon fill="#63b8ff" stroke="#63b8ff" points="432.87,-322.78 443.4,-321.65 434.46,-315.96 432.87,-322.78"/>
</g>
<!-- Node14&#45;&gt;Node6 -->
<g id="edge17" class="edge">
<title>Node14&#45;&gt;Node6</title>
<path fill="none" stroke="#63b8ff" d="M348.62,-61.36C358.24,-64.86 367.53,-69.73 375,-76.5 446.17,-140.98 468.59,-262.05 474.84,-309.6"/>
<polygon fill="#63b8ff" stroke="#63b8ff" points="471.39,-310.29 476.07,-319.79 478.34,-309.45 471.39,-310.29"/>
</g>
<!-- Node20&#45;&gt;Node6 -->
<g id="edge24" class="edge">
<title>Node20&#45;&gt;Node6</title>
<path fill="none" stroke="#63b8ff" d="M348.51,-473.41C357.81,-470.13 367.03,-465.92 375,-460.5 418.72,-430.79 452.14,-376.42 467.59,-347.97"/>
<polygon fill="#63b8ff" stroke="#63b8ff" points="470.71,-349.55 472.29,-339.07 464.52,-346.28 470.71,-349.55"/>
</g>
</g>
</svg>
