<?xml version="1.0" encoding="UTF-8" standalone="no"?>
<!DOCTYPE svg PUBLIC "-//W3C//DTD SVG 1.1//EN"
 "http://www.w3.org/Graphics/SVG/1.1/DTD/svg11.dtd">
<!-- Generated by graphviz version 2.43.0 (0)
 -->
<!-- Title: StatusServicePrivate::parseStatus Pages: 1 -->
<svg width="892pt" height="304pt"
 viewBox="0.00 0.00 892.00 303.56" xmlns="http://www.w3.org/2000/svg" xmlns:xlink="http://www.w3.org/1999/xlink">
<g id="graph0" class="graph" transform="scale(1 1) rotate(0) translate(4 299.56)">
<title>StatusServicePrivate::parseStatus</title>
<!-- Node1 -->
<g id="Node000001" class="node">
<title>Node1</title>
<g id="a_Node000001"><a xlink:title="Parses the Status value into a Status struct.">
<polygon fill="#999999" stroke="#666666" points="884,-236.56 766,-236.56 766,-206.56 884,-206.56 884,-236.56"/>
<text text-anchor="start" x="774" y="-224.56" font-family="Helvetica,sans-Serif" font-size="10.00">StatusServicePrivate</text>
<text text-anchor="middle" x="825" y="-213.56" font-family="Helvetica,sans-Serif" font-size="10.00">::parseStatus</text>
</a>
</g>
</g>
<!-- Node2 -->
<g id="Node000002" class="node">
<title>Node2</title>
<g id="a_Node000002"><a xlink:href="classStatusServicePrivate.html#a08d8faee04fb47ac19d3962609606d52" target="_top" xlink:title="Implements AbstractPokitServicePrivate::characteristicRead to parse value, then emit a specialised si...">
<polygon fill="white" stroke="#666666" points="352.5,-295.56 234.5,-295.56 234.5,-265.56 352.5,-265.56 352.5,-295.56"/>
<text text-anchor="start" x="242.5" y="-283.56" font-family="Helvetica,sans-Serif" font-size="10.00">StatusServicePrivate</text>
<text text-anchor="middle" x="293.5" y="-272.56" font-family="Helvetica,sans-Serif" font-size="10.00">::characteristicRead</text>
</a>
</g>
</g>
<!-- Node1&#45;&gt;Node2 -->
<g id="edge1_Node000001_Node000002" class="edge">
<title>Node1&#45;&gt;Node2</title>
<g id="a_edge1_Node000001_Node000002"><a xlink:title=" ">
<path fill="none" stroke="#63b8ff" d="M757.76,-231.81C748.45,-233.13 738.99,-234.43 730,-235.56 595.2,-252.55 436.32,-267.75 352.71,-275.38"/>
<polygon fill="#63b8ff" stroke="#63b8ff" points="765.89,-230.63 758.49,-235.34 761.93,-231.2 757.97,-231.77 757.97,-231.77 757.97,-231.77 761.93,-231.2 757.46,-228.21 765.89,-230.63 765.89,-230.63"/>
</a>
</g>
</g>
<!-- Node3 -->
<g id="Node000003" class="node">
<title>Node3</title>
<g id="a_Node000003"><a xlink:href="classStatusService.html#ae7be4aae021ae50faef48ed2812eb6a7" target="_top" xlink:title="Returns the most recent value of the Status service&#39;s Status characteristic.">
<polygon fill="white" stroke="#666666" points="730,-139.06 611,-139.06 611,-120.06 730,-120.06 730,-139.06"/>
<text text-anchor="middle" x="670.5" y="-127.06" font-family="Helvetica,sans-Serif" font-size="10.00">StatusService::status</text>
</a>
</g>
</g>
<!-- Node1&#45;&gt;Node3 -->
<g id="edge2_Node000001_Node000003" class="edge">
<title>Node1&#45;&gt;Node3</title>
<g id="a_edge2_Node000001_Node000003"><a xlink:title=" ">
<path fill="none" stroke="#63b8ff" d="M791.84,-202.16C759.81,-182.83 711.97,-153.97 687.37,-139.13"/>
<polygon fill="#63b8ff" stroke="#63b8ff" points="798.82,-206.37 790.11,-205.32 795.39,-204.3 791.97,-202.23 791.97,-202.23 791.97,-202.23 795.39,-204.3 793.83,-199.15 798.82,-206.37 798.82,-206.37"/>
</a>
</g>
</g>
<!-- Node4 -->
<g id="Node000004" class="node">
<title>Node4</title>
<g id="a_Node000004"><a xlink:href="classStatusCommand.html#ae2349e3d64b1b4db9b80465c0b7dadb7" target="_top" xlink:title="Outputs the Pokit device&#39;s details, including chrs, in the selected format.">
<polygon fill="white" stroke="#666666" points="378,-64.56 209,-64.56 209,-34.56 378,-34.56 378,-64.56"/>
<text text-anchor="start" x="217" y="-52.56" font-family="Helvetica,sans-Serif" font-size="10.00">StatusCommand::outputDevice</text>
<text text-anchor="middle" x="293.5" y="-41.56" font-family="Helvetica,sans-Serif" font-size="10.00">Status</text>
</a>
</g>
</g>
<!-- Node3&#45;&gt;Node4 -->
<g id="edge3_Node000003_Node000004" class="edge">
<title>Node3&#45;&gt;Node4</title>
<g id="a_edge3_Node000003_Node000004"><a xlink:title=" ">
<path fill="none" stroke="#63b8ff" d="M661.35,-112.63C647.69,-86.5 617.45,-37.28 575,-17.56 492.99,20.55 383.49,-12.89 328.73,-34.55"/>
<polygon fill="#63b8ff" stroke="#63b8ff" points="665.05,-119.94 658.22,-114.43 663.24,-116.37 661.43,-112.81 661.43,-112.81 661.43,-112.81 663.24,-116.37 664.65,-111.18 665.05,-119.94 665.05,-119.94"/>
</a>
</g>
</g>
<!-- Node6 -->
<g id="Node000006" class="node">
<title>Node6</title>
<g id="a_Node000006"><a xlink:href="classStatusService.html#a3bc469455e6e704e0643fbc9ad236c70" target="_top" xlink:title="Set the Pokit device&#39;s torch to status.">
<polygon fill="white" stroke="#666666" points="575,-157.06 414,-157.06 414,-138.06 575,-138.06 575,-157.06"/>
<text text-anchor="middle" x="494.5" y="-145.06" font-family="Helvetica,sans-Serif" font-size="10.00">StatusService::setTorchStatus</text>
</a>
</g>
</g>
<!-- Node3&#45;&gt;Node6 -->
<g id="edge5_Node000003_Node000006" class="edge">
<title>Node3&#45;&gt;Node6</title>
<g id="a_edge5_Node000003_Node000006"><a xlink:title=" ">
<path fill="none" stroke="#63b8ff" d="M602.44,-136.5C593.46,-137.43 584.19,-138.38 575.02,-139.33"/>
<polygon fill="#63b8ff" stroke="#63b8ff" points="610.59,-135.65 603,-140.06 606.61,-136.06 602.63,-136.48 602.63,-136.48 602.63,-136.48 606.61,-136.06 602.26,-132.9 610.59,-135.65 610.59,-135.65"/>
</a>
</g>
</g>
<!-- Node8 -->
<g id="Node000008" class="node">
<title>Node8</title>
<g id="a_Node000008"><a xlink:href="classStatusService.html#aab6278d4fe2bedc916fc3d96641eaa30" target="_top" xlink:title="Returns a string version of the status enum label.">
<polygon fill="white" stroke="#666666" points="558.5,-120.06 430.5,-120.06 430.5,-101.06 558.5,-101.06 558.5,-120.06"/>
<text text-anchor="middle" x="494.5" y="-108.06" font-family="Helvetica,sans-Serif" font-size="10.00">StatusService::toString</text>
</a>
</g>
</g>
<!-- Node3&#45;&gt;Node8 -->
<g id="edge7_Node000003_Node000008" class="edge">
<title>Node3&#45;&gt;Node8</title>
<g id="a_edge7_Node000003_Node000008"><a xlink:title=" ">
<path fill="none" stroke="#63b8ff" d="M602.63,-122.26C588.14,-120.67 572.86,-119.01 558.52,-117.44"/>
<polygon fill="#63b8ff" stroke="#63b8ff" points="610.59,-123.13 602.25,-125.84 606.62,-122.69 602.64,-122.26 602.64,-122.26 602.64,-122.26 606.62,-122.69 603.03,-118.68 610.59,-123.13 610.59,-123.13"/>
</a>
</g>
</g>
<!-- Node9 -->
<g id="Node000009" class="node">
<title>Node9</title>
<g id="a_Node000009"><a xlink:href="classStatusService.html#a681701df043e0490ed38d127a86f9afb" target="_top" xlink:title="Returns a string version of the status enum label.">
<polygon fill="white" stroke="#666666" points="558.5,-83.06 430.5,-83.06 430.5,-64.06 558.5,-64.06 558.5,-83.06"/>
<text text-anchor="middle" x="494.5" y="-71.06" font-family="Helvetica,sans-Serif" font-size="10.00">StatusService::toString</text>
</a>
</g>
</g>
<!-- Node3&#45;&gt;Node9 -->
<g id="edge8_Node000003_Node000009" class="edge">
<title>Node3&#45;&gt;Node9</title>
<g id="a_edge8_Node000003_Node000009"><a xlink:title=" ">
<path fill="none" stroke="#63b8ff" d="M640.93,-116.68C622.4,-108.68 597.6,-98.61 575,-91.56 564.87,-88.4 553.85,-85.54 543.33,-83.09"/>
<polygon fill="#63b8ff" stroke="#63b8ff" points="648.46,-119.97 639.69,-120.07 644.79,-118.37 641.13,-116.77 641.13,-116.77 641.13,-116.77 644.79,-118.37 642.57,-113.47 648.46,-119.97 648.46,-119.97"/>
</a>
</g>
</g>
<!-- Node10 -->
<g id="Node000010" class="node">
<title>Node10</title>
<g id="a_Node000010"><a xlink:href="classStatusService.html#a5e5d307e56870f2a65e9ccf79429bff7" target="_top" xlink:title="Returns a string version of the status enum label.">
<polygon fill="white" stroke="#666666" points="558.5,-46.06 430.5,-46.06 430.5,-27.06 558.5,-27.06 558.5,-46.06"/>
<text text-anchor="middle" x="494.5" y="-34.06" font-family="Helvetica,sans-Serif" font-size="10.00">StatusService::toString</text>
</a>
</g>
</g>
<!-- Node3&#45;&gt;Node10 -->
<g id="edge9_Node000003_Node000010" class="edge">
<title>Node3&#45;&gt;Node10</title>
<g id="a_edge9_Node000003_Node000010"><a xlink:title=" ">
<path fill="none" stroke="#63b8ff" d="M654.47,-114.01C636.98,-96.84 606.46,-69.63 575,-54.56 567.85,-51.14 560.03,-48.35 552.17,-46.08"/>
<polygon fill="#63b8ff" stroke="#63b8ff" points="660.3,-119.84 652.1,-116.73 657.48,-117.01 654.65,-114.18 654.65,-114.18 654.65,-114.18 657.48,-117.01 657.19,-111.64 660.3,-119.84 660.3,-119.84"/>
</a>
</g>
</g>
<!-- Node11 -->
<g id="Node000011" class="node">
<title>Node11</title>
<g id="a_Node000011"><a xlink:href="classStatusService.html#aac79e97cb114be25b2a6771d915f132d" target="_top" xlink:title="Returns a string version of the status enum label.">
<polygon fill="white" stroke="#666666" points="558.5,-231.06 430.5,-231.06 430.5,-212.06 558.5,-212.06 558.5,-231.06"/>
<text text-anchor="middle" x="494.5" y="-219.06" font-family="Helvetica,sans-Serif" font-size="10.00">StatusService::toString</text>
</a>
</g>
</g>
<!-- Node3&#45;&gt;Node11 -->
<g id="edge10_Node000003_Node000011" class="edge">
<title>Node3&#45;&gt;Node11</title>
<g id="a_edge10_Node000003_Node000011"><a xlink:title=" ">
<path fill="none" stroke="#63b8ff" d="M654.07,-144.88C636.44,-161.53 605.98,-187.74 575,-202.56 566.93,-206.42 558.02,-209.53 549.17,-212.02"/>
<polygon fill="#63b8ff" stroke="#63b8ff" points="659.97,-139.22 656.69,-147.35 657.09,-141.99 654.2,-144.76 654.2,-144.76 654.2,-144.76 657.09,-141.99 651.71,-142.16 659.97,-139.22 659.97,-139.22"/>
</a>
</g>
</g>
<!-- Node14 -->
<g id="Node000014" class="node">
<title>Node14</title>
<g id="a_Node000014"><a xlink:href="classStatusService.html#a490e0f1d95063c7e0aabaed33f3f8b22" target="_top" xlink:title="Returns a string version of the status enum label.">
<polygon fill="white" stroke="#666666" points="558.5,-194.06 430.5,-194.06 430.5,-175.06 558.5,-175.06 558.5,-194.06"/>
<text text-anchor="middle" x="494.5" y="-182.06" font-family="Helvetica,sans-Serif" font-size="10.00">StatusService::toString</text>
</a>
</g>
</g>
<!-- Node3&#45;&gt;Node14 -->
<g id="edge17_Node000003_Node000014" class="edge">
<title>Node3&#45;&gt;Node14</title>
<g id="a_edge17_Node000003_Node000014"><a xlink:title=" ">
<path fill="none" stroke="#63b8ff" d="M639.37,-142.18C620.98,-149.6 596.87,-158.81 575,-165.56 563.75,-169.03 551.43,-172.25 539.93,-175.01"/>
<polygon fill="#63b8ff" stroke="#63b8ff" points="646.87,-139.13 640.82,-145.48 643.17,-140.64 639.46,-142.14 639.46,-142.14 639.46,-142.14 643.17,-140.64 638.11,-138.81 646.87,-139.13 646.87,-139.13"/>
</a>
</g>
</g>
<!-- Node5 -->
<g id="Node000005" class="node">
<title>Node5</title>
<g id="a_Node000005"><a xlink:href="classStatusCommand.html#af275e3a02032915dd27e0c0e041ff6c1" target="_top" xlink:title="Handles service detail discovery events.">
<polygon fill="white" stroke="#666666" points="173,-64.56 0,-64.56 0,-34.56 173,-34.56 173,-64.56"/>
<text text-anchor="start" x="8" y="-52.56" font-family="Helvetica,sans-Serif" font-size="10.00">StatusCommand::serviceDetails</text>
<text text-anchor="middle" x="86.5" y="-41.56" font-family="Helvetica,sans-Serif" font-size="10.00">Discovered</text>
</a>
</g>
</g>
<!-- Node4&#45;&gt;Node5 -->
<g id="edge4_Node000004_Node000005" class="edge">
<title>Node4&#45;&gt;Node5</title>
<g id="a_edge4_Node000004_Node000005"><a xlink:title=" ">
<path fill="none" stroke="#63b8ff" d="M200.8,-49.56C191.63,-49.56 182.34,-49.56 173.24,-49.56"/>
<polygon fill="#63b8ff" stroke="#63b8ff" points="208.82,-49.56 200.82,-53.16 204.82,-49.56 200.82,-49.56 200.82,-49.56 200.82,-49.56 204.82,-49.56 200.82,-45.96 208.82,-49.56 208.82,-49.56"/>
</a>
</g>
</g>
<!-- Node7 -->
<g id="Node000007" class="node">
<title>Node7</title>
<g id="a_Node000007"><a xlink:href="classSetTorchCommand.html#ae76dcd51a542ff55cf057079c215450e" target="_top" xlink:title="Handles service detail discovery events.">
<polygon fill="white" stroke="#666666" points="368,-151.56 219,-151.56 219,-121.56 368,-121.56 368,-151.56"/>
<text text-anchor="start" x="227" y="-139.56" font-family="Helvetica,sans-Serif" font-size="10.00">SetTorchCommand::service</text>
<text text-anchor="middle" x="293.5" y="-128.56" font-family="Helvetica,sans-Serif" font-size="10.00">DetailsDiscovered</text>
</a>
</g>
</g>
<!-- Node6&#45;&gt;Node7 -->
<g id="edge6_Node000006_Node000007" class="edge">
<title>Node6&#45;&gt;Node7</title>
<g id="a_edge6_Node000006_Node000007"><a xlink:title=" ">
<path fill="none" stroke="#63b8ff" d="M405.77,-142.71C393.18,-142.01 380.35,-141.3 368.07,-140.63"/>
<polygon fill="#63b8ff" stroke="#63b8ff" points="413.99,-143.16 405.81,-146.32 410,-142.94 406,-142.72 406,-142.72 406,-142.72 410,-142.94 406.2,-139.13 413.99,-143.16 413.99,-143.16"/>
</a>
</g>
</g>
<!-- Node11&#45;&gt;Node1 -->
<g id="edge14_Node000011_Node000001" class="edge">
<title>Node11&#45;&gt;Node1</title>
<g id="a_edge14_Node000011_Node000001"><a xlink:title=" ">
<path fill="none" stroke="#63b8ff" d="M566.86,-221.56C626.36,-221.56 710.09,-221.56 765.65,-221.56"/>
<polygon fill="#63b8ff" stroke="#63b8ff" points="558.63,-221.56 566.63,-217.96 562.63,-221.56 566.63,-221.56 566.63,-221.56 566.63,-221.56 562.63,-221.56 566.63,-225.16 558.63,-221.56 558.63,-221.56"/>
</a>
</g>
</g>
<!-- Node11&#45;&gt;Node2 -->
<g id="edge11_Node000011_Node000002" class="edge">
<title>Node11&#45;&gt;Node2</title>
<g id="a_edge11_Node000011_Node000002"><a xlink:title=" ">
<path fill="none" stroke="#63b8ff" d="M454.23,-233.61C431.91,-240.43 403.41,-249.06 378,-256.56 368.16,-259.46 357.66,-262.52 347.54,-265.44"/>
<polygon fill="#63b8ff" stroke="#63b8ff" points="462.16,-231.19 455.56,-236.97 458.34,-232.36 454.51,-233.53 454.51,-233.53 454.51,-233.53 458.34,-232.36 453.46,-230.08 462.16,-231.19 462.16,-231.19"/>
</a>
</g>
</g>
<!-- Node11&#45;&gt;Node4 -->
<g id="edge12_Node000011_Node000004" class="edge">
<title>Node11&#45;&gt;Node4</title>
<g id="a_edge12_Node000011_Node000004"><a xlink:title=" ">
<path fill="none" stroke="#63b8ff" d="M423.06,-208.95C419.84,-207.09 416.79,-204.97 414,-202.56 381.4,-174.4 404.16,-146.79 378,-112.56 362.78,-92.65 339.71,-75.9 321.67,-64.68"/>
<polygon fill="#63b8ff" stroke="#63b8ff" points="430.35,-212.62 421.59,-212.24 426.78,-210.82 423.21,-209.03 423.21,-209.03 423.21,-209.03 426.78,-210.82 424.83,-205.81 430.35,-212.62 430.35,-212.62"/>
</a>
</g>
</g>
<!-- Node11&#45;&gt;Node7 -->
<g id="edge16_Node000011_Node000007" class="edge">
<title>Node11&#45;&gt;Node7</title>
<g id="a_edge16_Node000011_Node000007"><a xlink:title=" ">
<path fill="none" stroke="#63b8ff" d="M426.85,-209.03C422.36,-207.17 418.03,-205.02 414,-202.56 393.02,-189.74 398.68,-173.85 378,-160.56 372.67,-157.14 366.84,-154.19 360.82,-151.66"/>
<polygon fill="#63b8ff" stroke="#63b8ff" points="434.5,-211.92 425.75,-212.47 430.76,-210.51 427.02,-209.1 427.02,-209.1 427.02,-209.1 430.76,-210.51 428.29,-205.73 434.5,-211.92 434.5,-211.92"/>
</a>
</g>
</g>
<!-- Node12 -->
<g id="Node000012" class="node">
<title>Node12</title>
<g id="a_Node000012"><a xlink:href="classStatusServicePrivate.html#a90d78c3261bea8f23ddf9804ada203c1" target="_top" xlink:title="Parses the button press value, and returns the corresponding ButtonStatus.">
<polygon fill="white" stroke="#666666" points="352.5,-199.56 234.5,-199.56 234.5,-169.56 352.5,-169.56 352.5,-199.56"/>
<text text-anchor="start" x="242.5" y="-187.56" font-family="Helvetica,sans-Serif" font-size="10.00">StatusServicePrivate</text>
<text text-anchor="middle" x="293.5" y="-176.56" font-family="Helvetica,sans-Serif" font-size="10.00">::parseButtonPress</text>
</a>
</g>
</g>
<!-- Node11&#45;&gt;Node12 -->
<g id="edge13_Node000011_Node000012" class="edge">
<title>Node11&#45;&gt;Node12</title>
<g id="a_edge13_Node000011_Node000012"><a xlink:title=" ">
<path fill="none" stroke="#63b8ff" d="M434.38,-210.57C408.54,-205.76 378.33,-200.15 352.61,-195.36"/>
<polygon fill="#63b8ff" stroke="#63b8ff" points="442.25,-212.03 433.73,-214.11 438.32,-211.3 434.39,-210.57 434.39,-210.57 434.39,-210.57 438.32,-211.3 435.05,-207.03 442.25,-212.03 442.25,-212.03"/>
</a>
</g>
</g>
<!-- Node13 -->
<g id="Node000013" class="node">
<title>Node13</title>
<g id="a_Node000013"><a xlink:href="classStatusServicePrivate.html#abe408253ab1c7f08e09d7613691befba" target="_top" xlink:title="Parses the torch status value, and returns the corresponding TorchStatus.">
<polygon fill="white" stroke="#666666" points="352.5,-247.56 234.5,-247.56 234.5,-217.56 352.5,-217.56 352.5,-247.56"/>
<text text-anchor="start" x="242.5" y="-235.56" font-family="Helvetica,sans-Serif" font-size="10.00">StatusServicePrivate</text>
<text text-anchor="middle" x="293.5" y="-224.56" font-family="Helvetica,sans-Serif" font-size="10.00">::parseTorchStatus</text>
</a>
</g>
</g>
<!-- Node11&#45;&gt;Node13 -->
<g id="edge15_Node000011_Node000013" class="edge">
<title>Node11&#45;&gt;Node13</title>
<g id="a_edge15_Node000011_Node000013"><a xlink:title=" ">
<path fill="none" stroke="#63b8ff" d="M422.27,-225.5C399.38,-226.76 374.32,-228.15 352.51,-229.35"/>
<polygon fill="#63b8ff" stroke="#63b8ff" points="430.26,-225.05 422.47,-229.09 426.27,-225.28 422.27,-225.5 422.27,-225.5 422.27,-225.5 426.27,-225.28 422.08,-221.9 430.26,-225.05 430.26,-225.05"/>
</a>
</g>
</g>
</g>
</svg>
