<?xml version="1.0" encoding="UTF-8" standalone="no"?>
<!DOCTYPE svg PUBLIC "-//W3C//DTD SVG 1.1//EN"
 "http://www.w3.org/Graphics/SVG/1.1/DTD/svg11.dtd">
<!-- Generated by graphviz version 2.43.0 (0)
 -->
<!-- Title: MeterCommand Pages: 1 -->
<svg width="1221pt" height="691pt"
 viewBox="0.00 0.00 1221.00 691.00" xmlns="http://www.w3.org/2000/svg" xmlns:xlink="http://www.w3.org/1999/xlink">
<g id="graph0" class="graph" transform="scale(1 1) rotate(0) translate(4 687)">
<title>MeterCommand</title>
<!-- Node1 -->
<g id="node1" class="node">
<title>Node1</title>
<g id="a_node1"><a xlink:title="The MeterCommand class implements the meter CLI command.">
<polygon fill="#bfbfbf" stroke="black" points="1110.5,-559.5 1110.5,-578.5 1205.5,-578.5 1205.5,-559.5 1110.5,-559.5"/>
<text text-anchor="middle" x="1158" y="-566.5" font-family="Helvetica,sans-Serif" font-size="10.00">MeterCommand</text>
</a>
</g>
</g>
<!-- Node2 -->
<g id="node2" class="node">
<title>Node2</title>
<g id="a_node2"><a xlink:href="classDeviceCommand.html" target="_top" xlink:title="The AbstractCommand class extends AbstractCommand to add a PokitDevice instance.">
<polygon fill="none" stroke="black" points="853.5,-603.5 853.5,-622.5 954.5,-622.5 954.5,-603.5 853.5,-603.5"/>
<text text-anchor="middle" x="904" y="-610.5" font-family="Helvetica,sans-Serif" font-size="10.00">DeviceCommand</text>
</a>
</g>
</g>
<!-- Node2&#45;&gt;Node1 -->
<g id="edge1" class="edge">
<title>Node2&#45;&gt;Node1</title>
<path fill="none" stroke="midnightblue" d="M964.85,-604.06C999.92,-598.64 1045.05,-591.37 1085,-584 1094.04,-582.33 1103.69,-580.41 1112.89,-578.52"/>
<polygon fill="midnightblue" stroke="midnightblue" points="964.12,-600.63 954.77,-605.61 965.18,-607.55 964.12,-600.63"/>
</g>
<!-- Node3 -->
<g id="node3" class="node">
<title>Node3</title>
<g id="a_node3"><a xlink:href="classAbstractCommand.html" target="_top" xlink:title="The AbstractCommand class provides a consistent base for the classes that implement CLI commands.">
<polygon fill="none" stroke="black" points="640,-622.5 640,-641.5 747,-641.5 747,-622.5 640,-622.5"/>
<text text-anchor="middle" x="693.5" y="-629.5" font-family="Helvetica,sans-Serif" font-size="10.00">AbstractCommand</text>
</a>
</g>
</g>
<!-- Node3&#45;&gt;Node2 -->
<g id="edge2" class="edge">
<title>Node3&#45;&gt;Node2</title>
<path fill="none" stroke="midnightblue" d="M757.3,-626.28C788.03,-623.48 824.51,-620.15 853.27,-617.53"/>
<polygon fill="midnightblue" stroke="midnightblue" points="756.75,-622.81 747.11,-627.21 757.39,-629.78 756.75,-622.81"/>
</g>
<!-- Node4 -->
<g id="node4" class="node">
<title>Node4</title>
<g id="a_node4"><a target="_parent" xlink:href="https://doc.qt.io/qt-5/qobject.html" xlink:title=" ">
<polygon fill="none" stroke="#bfbfbf" points="0,-422.5 0,-441.5 56,-441.5 56,-422.5 0,-422.5"/>
<text text-anchor="middle" x="28" y="-429.5" font-family="Helvetica,sans-Serif" font-size="10.00">QObject</text>
</a>
</g>
</g>
<!-- Node4&#45;&gt;Node3 -->
<g id="edge3" class="edge">
<title>Node4&#45;&gt;Node3</title>
<path fill="none" stroke="midnightblue" d="M31.23,-451.76C36.05,-484.44 50.71,-549.17 93,-580 179.32,-642.92 510.29,-638.5 639.96,-634.17"/>
<polygon fill="midnightblue" stroke="midnightblue" points="34.67,-451.11 29.9,-441.65 27.73,-452.02 34.67,-451.11"/>
</g>
<!-- Node6 -->
<g id="node6" class="node">
<title>Node6</title>
<g id="a_node6"><a target="_parent" xlink:href="https://doc.qt.io/qt-5/qbluetoothdevicediscoveryagent.html" xlink:title=" ">
<polygon fill="none" stroke="#bfbfbf" points="93,-540 93,-570 247,-570 247,-540 93,-540"/>
<text text-anchor="start" x="101" y="-558" font-family="Helvetica,sans-Serif" font-size="10.00">QBluetoothDeviceDiscovery</text>
<text text-anchor="middle" x="170" y="-547" font-family="Helvetica,sans-Serif" font-size="10.00">Agent</text>
</a>
</g>
</g>
<!-- Node4&#45;&gt;Node6 -->
<g id="edge6" class="edge">
<title>Node4&#45;&gt;Node6</title>
<path fill="none" stroke="midnightblue" d="M33.96,-451.34C40.12,-471.63 52.53,-503.14 74,-522 82.53,-529.49 92.85,-535.3 103.5,-539.81"/>
<polygon fill="midnightblue" stroke="midnightblue" points="37.31,-450.31 31.23,-441.63 30.57,-452.2 37.31,-450.31"/>
</g>
<!-- Node7 -->
<g id="node7" class="node">
<title>Node7</title>
<g id="a_node7"><a xlink:href="classPokitDiscoveryAgentPrivate.html" target="_top" xlink:title="The PokitDiscoveryAgentPrivate class provides private implementation for PokitDiscoveryAgent.">
<polygon fill="none" stroke="black" points="617,-565.5 617,-584.5 770,-584.5 770,-565.5 617,-565.5"/>
<text text-anchor="middle" x="693.5" y="-572.5" font-family="Helvetica,sans-Serif" font-size="10.00">PokitDiscoveryAgentPrivate</text>
</a>
</g>
</g>
<!-- Node4&#45;&gt;Node7 -->
<g id="edge8" class="edge">
<title>Node4&#45;&gt;Node7</title>
<path fill="none" stroke="midnightblue" d="M48.42,-447.94C60.52,-457.03 76.82,-467.8 93,-474 305.42,-555.39 376.57,-503.36 599,-551 607.12,-552.74 608.97,-553.88 617,-556 628.89,-559.15 641.87,-562.46 653.66,-565.42"/>
<polygon fill="midnightblue" stroke="midnightblue" points="50.46,-445.09 40.42,-441.71 46.16,-450.62 50.46,-445.09"/>
</g>
<!-- Node9 -->
<g id="node9" class="node">
<title>Node9</title>
<g id="a_node9"><a xlink:href="classPokitDevice.html" target="_top" xlink:title="The PokitDevice class simplifies Pokit device access.">
<polygon fill="none" stroke="black" points="656,-472.5 656,-491.5 731,-491.5 731,-472.5 656,-472.5"/>
<text text-anchor="middle" x="693.5" y="-479.5" font-family="Helvetica,sans-Serif" font-size="10.00">PokitDevice</text>
</a>
</g>
</g>
<!-- Node4&#45;&gt;Node9 -->
<g id="edge12" class="edge">
<title>Node4&#45;&gt;Node9</title>
<path fill="none" stroke="midnightblue" d="M65.77,-444.23C68.54,-444.91 71.3,-445.51 74,-446 292,-485.64 559.65,-484.8 655.88,-482.95"/>
<polygon fill="midnightblue" stroke="midnightblue" points="66.43,-440.78 55.86,-441.52 64.59,-447.54 66.43,-440.78"/>
</g>
<!-- Node10 -->
<g id="node10" class="node">
<title>Node10</title>
<g id="a_node10"><a xlink:href="classPokitDevicePrivate.html" target="_top" xlink:title="The PokitDevicePrivate class provides private implementation for PokitDevice.">
<polygon fill="none" stroke="black" points="1103,-282.5 1103,-301.5 1213,-301.5 1213,-282.5 1103,-282.5"/>
<text text-anchor="middle" x="1158" y="-289.5" font-family="Helvetica,sans-Serif" font-size="10.00">PokitDevicePrivate</text>
</a>
</g>
</g>
<!-- Node4&#45;&gt;Node10 -->
<g id="edge14" class="edge">
<title>Node4&#45;&gt;Node10</title>
<path fill="none" stroke="midnightblue" d="M66.31,-432C94.52,-432 134.19,-432 169,-432 169,-432 169,-432 694.5,-432 869.83,-432 936.31,-468.91 1085,-376 1116.11,-356.56 1140.88,-319.37 1151.45,-301.74"/>
<polygon fill="midnightblue" stroke="midnightblue" points="66.1,-428.5 56.1,-432 66.1,-435.5 66.1,-428.5"/>
</g>
<!-- Node11 -->
<g id="node11" class="node">
<title>Node11</title>
<g id="a_node11"><a target="_parent" xlink:href="https://doc.qt.io/qt-5/qlowenergycontroller.html" xlink:title=" ">
<polygon fill="none" stroke="#bfbfbf" points="107.5,-384.5 107.5,-403.5 232.5,-403.5 232.5,-384.5 107.5,-384.5"/>
<text text-anchor="middle" x="170" y="-391.5" font-family="Helvetica,sans-Serif" font-size="10.00">QLowEnergyController</text>
</a>
</g>
</g>
<!-- Node4&#45;&gt;Node11 -->
<g id="edge16" class="edge">
<title>Node4&#45;&gt;Node11</title>
<path fill="none" stroke="midnightblue" d="M65.9,-420.34C68.64,-419.53 71.36,-418.74 74,-418 92.01,-412.93 112.08,-407.78 129.12,-403.56"/>
<polygon fill="midnightblue" stroke="midnightblue" points="64.61,-417.08 56.06,-423.32 66.64,-423.78 64.61,-417.08"/>
</g>
<!-- Node13 -->
<g id="node13" class="node">
<title>Node13</title>
<g id="a_node13"><a xlink:href="classAbstractPokitService.html" target="_top" xlink:title="The AbstractPokitService class provides a common base for Pokit services classes.">
<polygon fill="none" stroke="black" points="634.5,-257.5 634.5,-276.5 752.5,-276.5 752.5,-257.5 634.5,-257.5"/>
<text text-anchor="middle" x="693.5" y="-264.5" font-family="Helvetica,sans-Serif" font-size="10.00">AbstractPokitService</text>
</a>
</g>
</g>
<!-- Node4&#45;&gt;Node13 -->
<g id="edge19" class="edge">
<title>Node4&#45;&gt;Node13</title>
<path fill="none" stroke="midnightblue" d="M31.99,-412.3C37.8,-381.44 53.68,-322.21 93,-293 137.9,-259.64 500.83,-257.32 514,-257 551.77,-256.09 561.28,-254.99 599,-257 610.41,-257.61 622.57,-258.63 634.22,-259.8"/>
<polygon fill="midnightblue" stroke="midnightblue" points="28.52,-411.83 30.28,-422.28 35.42,-413.01 28.52,-411.83"/>
</g>
<!-- Node14 -->
<g id="node14" class="node">
<title>Node14</title>
<g id="a_node14"><a xlink:href="classAbstractPokitServicePrivate.html" target="_top" xlink:title="The AbstractPokitServicePrivate class provides private implementation for AbstractPokitService.">
<polygon fill="none" stroke="black" points="344,-304.5 344,-323.5 496,-323.5 496,-304.5 344,-304.5"/>
<text text-anchor="middle" x="420" y="-311.5" font-family="Helvetica,sans-Serif" font-size="10.00">AbstractPokitServicePrivate</text>
</a>
</g>
</g>
<!-- Node4&#45;&gt;Node14 -->
<g id="edge21" class="edge">
<title>Node4&#45;&gt;Node14</title>
<path fill="none" stroke="midnightblue" d="M35.62,-412.72C44.65,-389.75 63.17,-352.31 93,-335 180.06,-284.46 303.12,-293.91 370.4,-304.46"/>
<polygon fill="midnightblue" stroke="midnightblue" points="32.23,-411.81 32.05,-422.41 38.79,-414.24 32.23,-411.81"/>
</g>
<!-- Node15 -->
<g id="node15" class="node">
<title>Node15</title>
<g id="a_node15"><a target="_parent" xlink:href="https://doc.qt.io/qt-5/qlowenergyservice.html" xlink:title=" ">
<polygon fill="none" stroke="#bfbfbf" points="113.5,-344.5 113.5,-363.5 226.5,-363.5 226.5,-344.5 113.5,-344.5"/>
<text text-anchor="middle" x="170" y="-351.5" font-family="Helvetica,sans-Serif" font-size="10.00">QLowEnergyService</text>
</a>
</g>
</g>
<!-- Node4&#45;&gt;Node15 -->
<g id="edge24" class="edge">
<title>Node4&#45;&gt;Node15</title>
<path fill="none" stroke="midnightblue" d="M44.13,-414.8C56.19,-402.09 74.13,-385.27 93,-375 101.78,-370.22 111.73,-366.46 121.47,-363.53"/>
<polygon fill="midnightblue" stroke="midnightblue" points="41.29,-412.72 37.11,-422.45 46.45,-417.45 41.29,-412.72"/>
</g>
<!-- Node5 -->
<g id="node5" class="node">
<title>Node5</title>
<g id="a_node5"><a xlink:href="classPokitDiscoveryAgent.html" target="_top" xlink:title="The PokitDiscoveryAgent class discovers nearby Pokit devices.">
<polygon fill="none" stroke="black" points="360.5,-562.5 360.5,-581.5 479.5,-581.5 479.5,-562.5 360.5,-562.5"/>
<text text-anchor="middle" x="420" y="-569.5" font-family="Helvetica,sans-Serif" font-size="10.00">PokitDiscoveryAgent</text>
</a>
</g>
</g>
<!-- Node5&#45;&gt;Node3 -->
<g id="edge4" class="edge">
<title>Node5&#45;&gt;Node3</title>
<path fill="none" stroke="#9a32cd" stroke-dasharray="5,2" d="M476.84,-583.61C511.95,-590.99 558.17,-600.84 599,-610 616.57,-613.94 635.96,-618.47 652.5,-622.4"/>
<polygon fill="#9a32cd" stroke="#9a32cd" points="477.29,-580.13 466.79,-581.5 475.86,-586.98 477.29,-580.13"/>
<text text-anchor="middle" x="556.5" y="-613" font-family="Helvetica,sans-Serif" font-size="10.00"> discoveryAgent</text>
</g>
<!-- Node5&#45;&gt;Node7 -->
<g id="edge9" class="edge">
<title>Node5&#45;&gt;Node7</title>
<path fill="none" stroke="#9a32cd" stroke-dasharray="5,2" d="M484.95,-561.09C494.66,-559.81 504.57,-558.71 514,-558 551.67,-555.18 561.37,-554.61 599,-558 615.6,-559.5 633.65,-562.46 649.43,-565.5"/>
<polygon fill="#9a32cd" stroke="#9a32cd" points="484.36,-557.64 474.94,-562.49 485.33,-564.57 484.36,-557.64"/>
<text text-anchor="middle" x="556.5" y="-561" font-family="Helvetica,sans-Serif" font-size="10.00"> q_ptr</text>
</g>
<!-- Node6&#45;&gt;Node5 -->
<g id="edge5" class="edge">
<title>Node6&#45;&gt;Node5</title>
<path fill="none" stroke="midnightblue" d="M257.5,-560.93C291.52,-563.26 329.7,-565.88 360.38,-567.98"/>
<polygon fill="midnightblue" stroke="midnightblue" points="257.31,-557.41 247.09,-560.22 256.83,-564.39 257.31,-557.41"/>
</g>
<!-- Node7&#45;&gt;Node5 -->
<g id="edge7" class="edge">
<title>Node7&#45;&gt;Node5</title>
<path fill="none" stroke="#9a32cd" stroke-dasharray="5,2" d="M606.89,-574.05C565.44,-573.6 516.73,-573.06 479.58,-572.65"/>
<polygon fill="#9a32cd" stroke="#9a32cd" points="606.94,-577.55 616.98,-574.17 607.02,-570.56 606.94,-577.55"/>
<text text-anchor="middle" x="556.5" y="-576" font-family="Helvetica,sans-Serif" font-size="10.00"> d_ptr</text>
</g>
<!-- Node8 -->
<g id="node8" class="node">
<title>Node8</title>
<g id="a_node8"><a target="_parent" xlink:href="https://doc.qt.io/qt-5/qstring.html" xlink:title=" ">
<polygon fill="none" stroke="#bfbfbf" points="393.5,-663.5 393.5,-682.5 446.5,-682.5 446.5,-663.5 393.5,-663.5"/>
<text text-anchor="middle" x="420" y="-670.5" font-family="Helvetica,sans-Serif" font-size="10.00">QString</text>
</a>
</g>
</g>
<!-- Node8&#45;&gt;Node3 -->
<g id="edge10" class="edge">
<title>Node8&#45;&gt;Node3</title>
<path fill="none" stroke="#9a32cd" stroke-dasharray="5,2" d="M456.71,-668.67C492.7,-664.2 549.8,-656.78 599,-649 613.18,-646.76 628.52,-644.07 642.59,-641.51"/>
<polygon fill="#9a32cd" stroke="#9a32cd" points="456.19,-665.21 446.7,-669.91 457.05,-672.16 456.19,-665.21"/>
<text text-anchor="middle" x="556.5" y="-663" font-family="Helvetica,sans-Serif" font-size="10.00"> deviceToScanFor</text>
</g>
<!-- Node9&#45;&gt;Node2 -->
<g id="edge11" class="edge">
<title>Node9&#45;&gt;Node2</title>
<path fill="none" stroke="#9a32cd" stroke-dasharray="5,2" d="M740.87,-488.99C751.59,-492.55 762.15,-497.92 770,-506 790.29,-526.89 769.07,-546.87 788,-569 804.47,-588.25 830.33,-599.1 853.36,-605.21"/>
<polygon fill="#9a32cd" stroke="#9a32cd" points="741.61,-485.56 731.04,-486.2 739.7,-492.29 741.61,-485.56"/>
<text text-anchor="middle" x="806" y="-597" font-family="Helvetica,sans-Serif" font-size="10.00"> device</text>
</g>
<!-- Node9&#45;&gt;Node10 -->
<g id="edge46" class="edge">
<title>Node9&#45;&gt;Node10</title>
<path fill="none" stroke="#9a32cd" stroke-dasharray="5,2" d="M741.22,-490.82C756.11,-493.27 772.7,-495.64 788,-497 919.59,-508.72 980.74,-566.13 1085,-485 1145.68,-437.78 1155.22,-333.74 1156.72,-301.63"/>
<polygon fill="#9a32cd" stroke="#9a32cd" points="741.65,-487.34 731.21,-489.11 740.48,-494.24 741.65,-487.34"/>
<text text-anchor="middle" x="904" y="-531" font-family="Helvetica,sans-Serif" font-size="10.00"> q_ptr</text>
</g>
<!-- Node10&#45;&gt;Node9 -->
<g id="edge13" class="edge">
<title>Node10&#45;&gt;Node9</title>
<path fill="none" stroke="#9a32cd" stroke-dasharray="5,2" d="M1155.32,-311.48C1151,-348.24 1135.95,-427.36 1085,-463 1056.46,-482.96 822.67,-483.13 731.09,-482.41"/>
<polygon fill="#9a32cd" stroke="#9a32cd" points="1158.8,-311.83 1156.35,-301.52 1151.84,-311.11 1158.8,-311.83"/>
<text text-anchor="middle" x="904" y="-486" font-family="Helvetica,sans-Serif" font-size="10.00"> d_ptr</text>
</g>
<!-- Node11&#45;&gt;Node10 -->
<g id="edge15" class="edge">
<title>Node11&#45;&gt;Node10</title>
<path fill="none" stroke="#9a32cd" stroke-dasharray="5,2" d="M242.7,-393.7C319.92,-393.41 446.42,-393 555.5,-393 555.5,-393 555.5,-393 905,-393 988.4,-393 1009.45,-375.31 1085,-340 1107.73,-329.38 1131.44,-312.19 1145.19,-301.52"/>
<polygon fill="#9a32cd" stroke="#9a32cd" points="242.58,-390.2 232.6,-393.74 242.61,-397.2 242.58,-390.2"/>
<text text-anchor="middle" x="693.5" y="-396" font-family="Helvetica,sans-Serif" font-size="10.00"> controller</text>
</g>
<!-- Node11&#45;&gt;Node14 -->
<g id="edge22" class="edge">
<title>Node11&#45;&gt;Node14</title>
<path fill="none" stroke="#9a32cd" stroke-dasharray="5,2" d="M225.16,-382.18C255.2,-375.09 293.04,-365.27 326,-354 351.78,-345.19 380.43,-332.38 399.03,-323.65"/>
<polygon fill="#9a32cd" stroke="#9a32cd" points="224.24,-378.8 215.29,-384.48 225.83,-385.62 224.24,-378.8"/>
<text text-anchor="middle" x="295.5" y="-375" font-family="Helvetica,sans-Serif" font-size="10.00"> controller</text>
</g>
<!-- Node12 -->
<g id="node12" class="node">
<title>Node12</title>
<g id="a_node12"><a xlink:href="classCalibrationService.html" target="_top" xlink:title="The CalibrationService class accesses the Calibrartion service of Pokit devices.">
<polygon fill="none" stroke="black" points="851,-244.5 851,-263.5 957,-263.5 957,-244.5 851,-244.5"/>
<text text-anchor="middle" x="904" y="-251.5" font-family="Helvetica,sans-Serif" font-size="10.00">CalibrationService</text>
</a>
</g>
</g>
<!-- Node12&#45;&gt;Node10 -->
<g id="edge17" class="edge">
<title>Node12&#45;&gt;Node10</title>
<path fill="none" stroke="#9a32cd" stroke-dasharray="5,2" d="M967.15,-260.73C1001.92,-264.79 1045.98,-270.45 1085,-277 1094.44,-278.58 1104.53,-280.53 1114.08,-282.48"/>
<polygon fill="#9a32cd" stroke="#9a32cd" points="967.48,-257.24 957.15,-259.57 966.68,-264.19 967.48,-257.24"/>
<text text-anchor="middle" x="1034.5" y="-280" font-family="Helvetica,sans-Serif" font-size="10.00"> calibration</text>
</g>
<!-- Node13&#45;&gt;Node12 -->
<g id="edge18" class="edge">
<title>Node13&#45;&gt;Node12</title>
<path fill="none" stroke="midnightblue" d="M762.92,-262.73C791.56,-260.95 824.3,-258.91 850.92,-257.25"/>
<polygon fill="midnightblue" stroke="midnightblue" points="762.34,-259.26 752.58,-263.38 762.78,-266.25 762.34,-259.26"/>
</g>
<!-- Node13&#45;&gt;Node14 -->
<g id="edge27" class="edge">
<title>Node13&#45;&gt;Node14</title>
<path fill="none" stroke="#9a32cd" stroke-dasharray="5,2" d="M637.47,-278.61C624.85,-281.15 611.48,-283.75 599,-286 561.75,-292.71 519.94,-299.33 486.21,-304.45"/>
<polygon fill="#9a32cd" stroke="#9a32cd" points="638.3,-282.01 647.4,-276.59 636.9,-275.15 638.3,-282.01"/>
<text text-anchor="middle" x="556.5" y="-303" font-family="Helvetica,sans-Serif" font-size="10.00"> q_ptr</text>
</g>
<!-- Node18 -->
<g id="node18" class="node">
<title>Node18</title>
<g id="a_node18"><a xlink:href="classDataLoggerService.html" target="_top" xlink:title="The DataLoggerService class accesses the Pokit Status service of Pokit devices.">
<polygon fill="none" stroke="black" points="849.5,-195.5 849.5,-214.5 958.5,-214.5 958.5,-195.5 849.5,-195.5"/>
<text text-anchor="middle" x="904" y="-202.5" font-family="Helvetica,sans-Serif" font-size="10.00">DataLoggerService</text>
</a>
</g>
</g>
<!-- Node13&#45;&gt;Node18 -->
<g id="edge30" class="edge">
<title>Node13&#45;&gt;Node18</title>
<path fill="none" stroke="midnightblue" d="M736.27,-254.58C775.93,-242.79 834.71,-225.31 870.84,-214.56"/>
<polygon fill="midnightblue" stroke="midnightblue" points="735.21,-251.24 726.62,-257.45 737.2,-257.95 735.21,-251.24"/>
</g>
<!-- Node19 -->
<g id="node19" class="node">
<title>Node19</title>
<g id="a_node19"><a xlink:href="classDeviceInfoService.html" target="_top" xlink:title="The DeviceInfoService class accesses the Device Info service of Pokit devices.">
<polygon fill="none" stroke="black" points="851.5,-119.5 851.5,-138.5 956.5,-138.5 956.5,-119.5 851.5,-119.5"/>
<text text-anchor="middle" x="904" y="-126.5" font-family="Helvetica,sans-Serif" font-size="10.00">DeviceInfoService</text>
</a>
</g>
</g>
<!-- Node13&#45;&gt;Node19 -->
<g id="edge33" class="edge">
<title>Node13&#45;&gt;Node19</title>
<path fill="none" stroke="midnightblue" d="M711.04,-250.05C736.82,-224.53 789.13,-176.23 842,-148 849.05,-144.24 856.95,-141.09 864.68,-138.51"/>
<polygon fill="midnightblue" stroke="midnightblue" points="708.5,-247.64 703.92,-257.2 713.46,-252.58 708.5,-247.64"/>
</g>
<!-- Node20 -->
<g id="node20" class="node">
<title>Node20</title>
<g id="a_node20"><a xlink:href="classGenericAccessService.html" target="_top" xlink:title="The GenericAccessService class accesses the Generic Access service of Pokit devices.">
<polygon fill="none" stroke="black" points="842,-157.5 842,-176.5 966,-176.5 966,-157.5 842,-157.5"/>
<text text-anchor="middle" x="904" y="-164.5" font-family="Helvetica,sans-Serif" font-size="10.00">GenericAccessService</text>
</a>
</g>
</g>
<!-- Node13&#45;&gt;Node20 -->
<g id="edge36" class="edge">
<title>Node13&#45;&gt;Node20</title>
<path fill="none" stroke="midnightblue" d="M718.33,-251.96C746.89,-234.4 796.59,-205.31 842,-186 850.27,-182.48 859.41,-179.29 868.05,-176.57"/>
<polygon fill="midnightblue" stroke="midnightblue" points="716.15,-249.2 709.49,-257.44 719.84,-255.14 716.15,-249.2"/>
</g>
<!-- Node21 -->
<g id="node21" class="node">
<title>Node21</title>
<g id="a_node21"><a xlink:href="classMultimeterService.html" target="_top" xlink:title="The MultimeterService class accesses the Pokit Status service of Pokit devices.">
<polygon fill="none" stroke="black" points="850.5,-328.5 850.5,-347.5 957.5,-347.5 957.5,-328.5 850.5,-328.5"/>
<text text-anchor="middle" x="904" y="-335.5" font-family="Helvetica,sans-Serif" font-size="10.00">MultimeterService</text>
</a>
</g>
</g>
<!-- Node13&#45;&gt;Node21 -->
<g id="edge39" class="edge">
<title>Node13&#45;&gt;Node21</title>
<path fill="none" stroke="midnightblue" d="M732.28,-279.86C773.4,-293.87 838.19,-315.93 874.99,-328.46"/>
<polygon fill="midnightblue" stroke="midnightblue" points="733.21,-276.49 722.62,-276.58 730.96,-283.11 733.21,-276.49"/>
</g>
<!-- Node22 -->
<g id="node22" class="node">
<title>Node22</title>
<g id="a_node22"><a xlink:href="classStatusService.html" target="_top" xlink:title="The StatusService class accesses the Pokit Status service of Pokit devices.">
<polygon fill="none" stroke="black" points="862.5,-282.5 862.5,-301.5 945.5,-301.5 945.5,-282.5 862.5,-282.5"/>
<text text-anchor="middle" x="904" y="-289.5" font-family="Helvetica,sans-Serif" font-size="10.00">StatusService</text>
</a>
</g>
</g>
<!-- Node13&#45;&gt;Node22 -->
<g id="edge42" class="edge">
<title>Node13&#45;&gt;Node22</title>
<path fill="none" stroke="midnightblue" d="M762.62,-275.17C795.59,-279.12 834.07,-283.73 862.39,-287.13"/>
<polygon fill="midnightblue" stroke="midnightblue" points="762.92,-271.68 752.58,-273.96 762.09,-278.63 762.92,-271.68"/>
</g>
<!-- Node14&#45;&gt;Node13 -->
<g id="edge20" class="edge">
<title>Node14&#45;&gt;Node13</title>
<path fill="none" stroke="#9a32cd" stroke-dasharray="5,2" d="M470.22,-301.26C479.05,-298.14 487.99,-294.4 496,-290 505.13,-284.99 504.29,-278.76 514,-275 552.18,-260.2 598.44,-258.54 634.31,-260.4"/>
<polygon fill="#9a32cd" stroke="#9a32cd" points="469.11,-297.94 460.72,-304.41 471.31,-304.58 469.11,-297.94"/>
<text text-anchor="middle" x="556.5" y="-278" font-family="Helvetica,sans-Serif" font-size="10.00"> d_ptr</text>
</g>
<!-- Node15&#45;&gt;Node14 -->
<g id="edge23" class="edge">
<title>Node15&#45;&gt;Node14</title>
<path fill="none" stroke="#9a32cd" stroke-dasharray="5,2" d="M236.69,-343.41C275.01,-337.22 322.97,-329.49 360.07,-323.5"/>
<polygon fill="#9a32cd" stroke="#9a32cd" points="235.97,-339.98 226.66,-345.02 237.09,-346.89 235.97,-339.98"/>
<text text-anchor="middle" x="295.5" y="-342" font-family="Helvetica,sans-Serif" font-size="10.00"> service</text>
</g>
<!-- Node16 -->
<g id="node16" class="node">
<title>Node16</title>
<g id="a_node16"><a target="_parent" xlink:href="https://doc.qt.io/qt-5/qbluetoothuuid.html" xlink:title=" ">
<polygon fill="none" stroke="#bfbfbf" points="123,-152.5 123,-171.5 217,-171.5 217,-152.5 123,-152.5"/>
<text text-anchor="middle" x="170" y="-159.5" font-family="Helvetica,sans-Serif" font-size="10.00">QBluetoothUuid</text>
</a>
</g>
</g>
<!-- Node16&#45;&gt;Node12 -->
<g id="edge28" class="edge">
<title>Node16&#45;&gt;Node12</title>
<path fill="none" stroke="#9a32cd" stroke-dasharray="5,2" d="M227.62,-159.83C335.15,-157.1 575.55,-157.73 770,-207 809.41,-216.98 853.63,-233.78 879.86,-244.36"/>
<polygon fill="#9a32cd" stroke="#9a32cd" points="227.23,-156.33 217.33,-160.11 227.42,-163.33 227.23,-156.33"/>
<text text-anchor="middle" x="556.5" y="-179" font-family="Helvetica,sans-Serif" font-size="10.00"> serviceUuid</text>
</g>
<!-- Node16&#45;&gt;Node14 -->
<g id="edge25" class="edge">
<title>Node16&#45;&gt;Node14</title>
<path fill="none" stroke="#9a32cd" stroke-dasharray="5,2" d="M187.44,-179.03C205.31,-196.86 235.31,-224.89 265,-244 306.61,-270.79 360.16,-292.64 391.91,-304.44"/>
<polygon fill="#9a32cd" stroke="#9a32cd" points="189.64,-176.28 180.13,-171.62 184.66,-181.19 189.64,-176.28"/>
<text text-anchor="middle" x="295.5" y="-279" font-family="Helvetica,sans-Serif" font-size="10.00"> serviceUuid</text>
</g>
<!-- Node16&#45;&gt;Node18 -->
<g id="edge31" class="edge">
<title>Node16&#45;&gt;Node18</title>
<path fill="none" stroke="#9a32cd" stroke-dasharray="5,2" d="M227.03,-152.4C334.42,-136.02 575.85,-109.02 770,-159 803.1,-167.52 809.67,-174.91 842,-186 851.44,-189.24 861.79,-192.55 871.23,-195.48"/>
<polygon fill="#9a32cd" stroke="#9a32cd" points="226.4,-148.95 217.06,-153.95 227.48,-155.87 226.4,-148.95"/>
<text text-anchor="middle" x="556.5" y="-136" font-family="Helvetica,sans-Serif" font-size="10.00"> serviceUuid</text>
</g>
<!-- Node16&#45;&gt;Node19 -->
<g id="edge34" class="edge">
<title>Node16&#45;&gt;Node19</title>
<path fill="none" stroke="#9a32cd" stroke-dasharray="5,2" d="M187.52,-145.25C205.06,-128.62 234.43,-103.93 265,-92 474.46,-10.26 547.49,-29.73 770,-62 794.77,-65.59 801.25,-67.55 824,-78 849.07,-89.52 875.47,-108.05 890.52,-119.32"/>
<polygon fill="#9a32cd" stroke="#9a32cd" points="185.06,-142.76 180.33,-152.25 189.94,-147.78 185.06,-142.76"/>
<text text-anchor="middle" x="556.5" y="-42" font-family="Helvetica,sans-Serif" font-size="10.00"> serviceUuid</text>
</g>
<!-- Node16&#45;&gt;Node20 -->
<g id="edge37" class="edge">
<title>Node16&#45;&gt;Node20</title>
<path fill="none" stroke="#9a32cd" stroke-dasharray="5,2" d="M192.32,-146.69C210.64,-134.43 238.25,-118 265,-110 371.33,-78.19 403.09,-95.23 514,-91 651.78,-85.75 711.92,-22.69 824,-103 841.51,-115.55 826.18,-133.38 842,-148 846.24,-151.92 851.27,-155.02 856.6,-157.49"/>
<polygon fill="#9a32cd" stroke="#9a32cd" points="190.15,-143.94 183.89,-152.49 194.11,-149.71 190.15,-143.94"/>
<text text-anchor="middle" x="556.5" y="-94" font-family="Helvetica,sans-Serif" font-size="10.00"> serviceUuid</text>
</g>
<!-- Node16&#45;&gt;Node21 -->
<g id="edge40" class="edge">
<title>Node16&#45;&gt;Node21</title>
<path fill="none" stroke="#9a32cd" stroke-dasharray="5,2" d="M208.19,-174.85C282.67,-200.95 447.15,-260.62 496,-295 505.78,-301.88 503.22,-309.81 514,-315 624.19,-368.03 772.7,-357.64 850.49,-346.95"/>
<polygon fill="#9a32cd" stroke="#9a32cd" points="209.32,-171.53 198.72,-171.54 207.01,-178.14 209.32,-171.53"/>
<text text-anchor="middle" x="556.5" y="-347" font-family="Helvetica,sans-Serif" font-size="10.00"> serviceUuid</text>
</g>
<!-- Node16&#45;&gt;Node22 -->
<g id="edge43" class="edge">
<title>Node16&#45;&gt;Node22</title>
<path fill="none" stroke="#9a32cd" stroke-dasharray="5,2" d="M227.55,-169.24C239.9,-170.81 252.89,-172.47 265,-174 490.04,-202.51 550.76,-189.77 770,-248 802.74,-256.7 809.83,-262.41 842,-273 851.59,-276.16 862.07,-279.47 871.59,-282.43"/>
<polygon fill="#9a32cd" stroke="#9a32cd" points="227.74,-165.73 217.37,-167.94 226.85,-172.68 227.74,-165.73"/>
<text text-anchor="middle" x="556.5" y="-214" font-family="Helvetica,sans-Serif" font-size="10.00"> serviceUuid</text>
</g>
<!-- Node17 -->
<g id="node17" class="node">
<title>Node17</title>
<g id="a_node17"><a target="_parent" xlink:href="https://doc.qt.io/qt-5/quuid.html" xlink:title=" ">
<polygon fill="none" stroke="#bfbfbf" points="4.5,-152.5 4.5,-171.5 51.5,-171.5 51.5,-152.5 4.5,-152.5"/>
<text text-anchor="middle" x="28" y="-159.5" font-family="Helvetica,sans-Serif" font-size="10.00">QUuid</text>
</a>
</g>
</g>
<!-- Node17&#45;&gt;Node16 -->
<g id="edge26" class="edge">
<title>Node17&#45;&gt;Node16</title>
<path fill="none" stroke="midnightblue" d="M61.92,-162C80.13,-162 103.03,-162 122.98,-162"/>
<polygon fill="midnightblue" stroke="midnightblue" points="61.81,-158.5 51.81,-162 61.8,-165.5 61.81,-158.5"/>
</g>
<!-- Node18&#45;&gt;Node10 -->
<g id="edge29" class="edge">
<title>Node18&#45;&gt;Node10</title>
<path fill="none" stroke="#9a32cd" stroke-dasharray="5,2" d="M968.81,-215.77C1003.9,-222.87 1047.75,-233.73 1085,-249 1106.82,-257.95 1129.86,-272.79 1143.83,-282.48"/>
<polygon fill="#9a32cd" stroke="#9a32cd" points="969.18,-212.27 958.69,-213.77 967.82,-219.14 969.18,-212.27"/>
<text text-anchor="middle" x="1034.5" y="-252" font-family="Helvetica,sans-Serif" font-size="10.00"> dataLogger</text>
</g>
<!-- Node19&#45;&gt;Node10 -->
<g id="edge32" class="edge">
<title>Node19&#45;&gt;Node10</title>
<path fill="none" stroke="#9a32cd" stroke-dasharray="5,2" d="M967.15,-125.34C1004.44,-126.18 1051.06,-132.9 1085,-157 1129.61,-188.69 1149.05,-256.79 1154.94,-282.19"/>
<polygon fill="#9a32cd" stroke="#9a32cd" points="966.92,-121.83 956.89,-125.25 966.86,-128.83 966.92,-121.83"/>
<text text-anchor="middle" x="1034.5" y="-160" font-family="Helvetica,sans-Serif" font-size="10.00"> deviceInfo</text>
</g>
<!-- Node20&#45;&gt;Node10 -->
<g id="edge35" class="edge">
<title>Node20&#45;&gt;Node10</title>
<path fill="none" stroke="#9a32cd" stroke-dasharray="5,2" d="M976.36,-170.54C1011.18,-174.94 1052.45,-184.32 1085,-204 1117.6,-223.71 1141.97,-263.72 1151.99,-282.22"/>
<polygon fill="#9a32cd" stroke="#9a32cd" points="976.59,-167.05 966.26,-169.38 975.79,-174 976.59,-167.05"/>
<text text-anchor="middle" x="1034.5" y="-207" font-family="Helvetica,sans-Serif" font-size="10.00"> genericAccess</text>
</g>
<!-- Node21&#45;&gt;Node1 -->
<g id="edge47" class="edge">
<title>Node21&#45;&gt;Node1</title>
<path fill="none" stroke="#9a32cd" stroke-dasharray="5,2" d="M923.16,-354.65C972.46,-399.83 1107.63,-523.74 1146.45,-559.33"/>
<polygon fill="#9a32cd" stroke="#9a32cd" points="925.24,-351.81 915.51,-347.63 920.51,-356.97 925.24,-351.81"/>
<text text-anchor="middle" x="1034.5" y="-504" font-family="Helvetica,sans-Serif" font-size="10.00"> service</text>
</g>
<!-- Node21&#45;&gt;Node10 -->
<g id="edge38" class="edge">
<title>Node21&#45;&gt;Node10</title>
<path fill="none" stroke="#9a32cd" stroke-dasharray="5,2" d="M967.83,-327.73C1002.45,-321.93 1046.16,-314.39 1085,-307 1093.91,-305.31 1103.41,-303.4 1112.5,-301.52"/>
<polygon fill="#9a32cd" stroke="#9a32cd" points="967.15,-324.3 957.86,-329.39 968.3,-331.2 967.15,-324.3"/>
<text text-anchor="middle" x="1034.5" y="-328" font-family="Helvetica,sans-Serif" font-size="10.00"> multimeter</text>
</g>
<!-- Node22&#45;&gt;Node10 -->
<g id="edge41" class="edge">
<title>Node22&#45;&gt;Node10</title>
<path fill="none" stroke="#9a32cd" stroke-dasharray="5,2" d="M955.92,-292C998.5,-292 1059.11,-292 1102.63,-292"/>
<polygon fill="#9a32cd" stroke="#9a32cd" points="955.77,-288.5 945.77,-292 955.77,-295.5 955.77,-288.5"/>
<text text-anchor="middle" x="1034.5" y="-295" font-family="Helvetica,sans-Serif" font-size="10.00"> status</text>
</g>
<!-- Node23 -->
<g id="node23" class="node">
<title>Node23</title>
<g id="a_node23"><a target="_parent" xlink:href="https://doc.qt.io/qt-5/qmutex.html" xlink:title=" ">
<polygon fill="none" stroke="#bfbfbf" points="876.5,-1.5 876.5,-20.5 931.5,-20.5 931.5,-1.5 876.5,-1.5"/>
<text text-anchor="middle" x="904" y="-8.5" font-family="Helvetica,sans-Serif" font-size="10.00">QMutex</text>
</a>
</g>
</g>
<!-- Node23&#45;&gt;Node10 -->
<g id="edge44" class="edge">
<title>Node23&#45;&gt;Node10</title>
<path fill="none" stroke="#9a32cd" stroke-dasharray="5,2" d="M941.84,-7.73C982.09,-6.27 1046.01,-10.47 1085,-46 1157.19,-111.79 1158.52,-245.61 1157.43,-282.44"/>
<polygon fill="#9a32cd" stroke="#9a32cd" points="941.46,-4.24 931.65,-8.24 941.81,-11.23 941.46,-4.24"/>
<text text-anchor="middle" x="1034.5" y="-115" font-family="Helvetica,sans-Serif" font-size="10.00"> calibrationMutex</text>
<text text-anchor="middle" x="1034.5" y="-104" font-family="Helvetica,sans-Serif" font-size="10.00">dataLoggerMutex</text>
<text text-anchor="middle" x="1034.5" y="-93" font-family="Helvetica,sans-Serif" font-size="10.00">deviceInfoMutex</text>
<text text-anchor="middle" x="1034.5" y="-82" font-family="Helvetica,sans-Serif" font-size="10.00">dsoMutex</text>
<text text-anchor="middle" x="1034.5" y="-71" font-family="Helvetica,sans-Serif" font-size="10.00">genericAccessMutex</text>
<text text-anchor="middle" x="1034.5" y="-60" font-family="Helvetica,sans-Serif" font-size="10.00">multimeterMutex</text>
<text text-anchor="middle" x="1034.5" y="-49" font-family="Helvetica,sans-Serif" font-size="10.00">statusMutex</text>
</g>
<!-- Node24 -->
<g id="node24" class="node">
<title>Node24</title>
<g id="a_node24"><a xlink:title=" ">
<polygon fill="none" stroke="#bfbfbf" points="653,-0.5 653,-19.5 734,-19.5 734,-0.5 653,-0.5"/>
<text text-anchor="middle" x="693.5" y="-7.5" font-family="Helvetica,sans-Serif" font-size="10.00">QBasicMutex</text>
</a>
</g>
</g>
<!-- Node24&#45;&gt;Node23 -->
<g id="edge45" class="edge">
<title>Node24&#45;&gt;Node23</title>
<path fill="none" stroke="midnightblue" d="M744.38,-10.24C785.81,-10.44 843.16,-10.71 876.34,-10.87"/>
<polygon fill="midnightblue" stroke="midnightblue" points="744.22,-6.74 734.21,-10.19 744.19,-13.74 744.22,-6.74"/>
</g>
<!-- Node25 -->
<g id="node25" class="node">
<title>Node25</title>
<g id="a_node25"><a xlink:href="structMultimeterService_1_1Settings.html" target="_top" xlink:title="Attributes included in the Settings characterstic.">
<polygon fill="none" stroke="black" points="847.5,-554 847.5,-584 960.5,-584 960.5,-554 847.5,-554"/>
<text text-anchor="start" x="855.5" y="-572" font-family="Helvetica,sans-Serif" font-size="10.00">MultimeterService::</text>
<text text-anchor="middle" x="904" y="-561" font-family="Helvetica,sans-Serif" font-size="10.00">Settings</text>
</a>
</g>
</g>
<!-- Node25&#45;&gt;Node1 -->
<g id="edge48" class="edge">
<title>Node25&#45;&gt;Node1</title>
<path fill="none" stroke="#9a32cd" stroke-dasharray="5,2" d="M970.62,-569C1014.48,-569 1071.12,-569 1110.4,-569"/>
<polygon fill="#9a32cd" stroke="#9a32cd" points="970.61,-565.5 960.61,-569 970.61,-572.5 970.61,-565.5"/>
<text text-anchor="middle" x="1034.5" y="-572" font-family="Helvetica,sans-Serif" font-size="10.00"> settings</text>
</g>
<!-- Node26 -->
<g id="node26" class="node">
<title>Node26</title>
<g id="a_node26"><a xlink:href="unionMultimeterService_1_1Range.html" target="_top" xlink:title="Values supported by the Range attribute of the Settings characteristic.">
<polygon fill="none" stroke="black" points="637,-516 637,-546 750,-546 750,-516 637,-516"/>
<text text-anchor="start" x="645" y="-534" font-family="Helvetica,sans-Serif" font-size="10.00">MultimeterService::</text>
<text text-anchor="middle" x="693.5" y="-523" font-family="Helvetica,sans-Serif" font-size="10.00">Range</text>
</a>
</g>
</g>
<!-- Node26&#45;&gt;Node25 -->
<g id="edge49" class="edge">
<title>Node26&#45;&gt;Node25</title>
<path fill="none" stroke="#9a32cd" stroke-dasharray="5,2" d="M760.19,-542.97C788.15,-548.07 820.41,-553.95 847.19,-558.83"/>
<polygon fill="#9a32cd" stroke="#9a32cd" points="760.57,-539.48 750.1,-541.13 759.31,-546.37 760.57,-539.48"/>
<text text-anchor="middle" x="806" y="-557" font-family="Helvetica,sans-Serif" font-size="10.00"> range</text>
</g>
</g>
</svg>
