<?xml version="1.0" encoding="UTF-8" standalone="no"?>
<!DOCTYPE svg PUBLIC "-//W3C//DTD SVG 1.1//EN"
 "http://www.w3.org/Graphics/SVG/1.1/DTD/svg11.dtd">
<!-- Generated by graphviz version 2.43.0 (0)
 -->
<!-- Title: DsoService::setSettings Pages: 1 -->
<svg width="337pt" height="113pt"
 viewBox="0.00 0.00 337.00 113.00" xmlns="http://www.w3.org/2000/svg" xmlns:xlink="http://www.w3.org/1999/xlink">
<g id="graph0" class="graph" transform="scale(1 1) rotate(0) translate(4 109)">
<title>DsoService::setSettings</title>
<!-- Node1 -->
<g id="node1" class="node">
<title>Node1</title>
<g id="a_node1"><a xlink:title="Configures the Pokit device&#39;s DSO mode.">
<polygon fill="#999999" stroke="#666666" points="329,-62 197,-62 197,-43 329,-43 329,-62"/>
<text text-anchor="middle" x="263" y="-50" font-family="Helvetica,sans-Serif" font-size="10.00">DsoService::setSettings</text>
</a>
</g>
</g>
<!-- Node2 -->
<g id="node2" class="node">
<title>Node2</title>
<g id="a_node2"><a xlink:href="classDsoService.html#a5da2f9ae60f06d3b904d6d239bacd09e" target="_top" xlink:title="Fetch DSO samples.">
<polygon fill="white" stroke="#666666" points="152.5,-105 8.5,-105 8.5,-86 152.5,-86 152.5,-105"/>
<text text-anchor="middle" x="80.5" y="-93" font-family="Helvetica,sans-Serif" font-size="10.00">DsoService::fetchSamples</text>
</a>
</g>
</g>
<!-- Node1&#45;&gt;Node2 -->
<g id="edge1" class="edge">
<title>Node1&#45;&gt;Node2</title>
<path fill="none" stroke="#63b8ff" d="M212.14,-64.38C183.56,-71.19 148.18,-79.62 121.45,-85.98"/>
<polygon fill="#63b8ff" stroke="#63b8ff" points="213.02,-67.77 221.94,-62.04 211.4,-60.96 213.02,-67.77"/>
</g>
<!-- Node3 -->
<g id="node3" class="node">
<title>Node3</title>
<g id="a_node3"><a xlink:href="classDsoCommand.html#a57f3b6be35c7a6fdadfaa737177016a8" target="_top" xlink:title="Handles service detail discovery events.">
<polygon fill="white" stroke="#666666" points="161,-67.5 0,-67.5 0,-37.5 161,-37.5 161,-67.5"/>
<text text-anchor="start" x="8" y="-55.5" font-family="Helvetica,sans-Serif" font-size="10.00">DsoCommand::serviceDetails</text>
<text text-anchor="middle" x="80.5" y="-44.5" font-family="Helvetica,sans-Serif" font-size="10.00">Discovered</text>
</a>
</g>
</g>
<!-- Node1&#45;&gt;Node3 -->
<g id="edge2" class="edge">
<title>Node1&#45;&gt;Node3</title>
<path fill="none" stroke="#63b8ff" d="M186.63,-52.5C178.18,-52.5 169.55,-52.5 161.05,-52.5"/>
<polygon fill="#63b8ff" stroke="#63b8ff" points="186.84,-56 196.84,-52.5 186.84,-49 186.84,-56"/>
</g>
<!-- Node4 -->
<g id="node4" class="node">
<title>Node4</title>
<g id="a_node4"><a xlink:href="classDsoService.html#a4bd74f90cf6b34172cfeaff8112f22fe" target="_top" xlink:title="Start the DSO with settings.">
<polygon fill="white" stroke="#666666" points="140,-19 21,-19 21,0 140,0 140,-19"/>
<text text-anchor="middle" x="80.5" y="-7" font-family="Helvetica,sans-Serif" font-size="10.00">DsoService::startDso</text>
</a>
</g>
</g>
<!-- Node1&#45;&gt;Node4 -->
<g id="edge3" class="edge">
<title>Node1&#45;&gt;Node4</title>
<path fill="none" stroke="#63b8ff" d="M212.14,-40.62C183.56,-33.81 148.18,-25.38 121.45,-19.02"/>
<polygon fill="#63b8ff" stroke="#63b8ff" points="211.4,-44.04 221.94,-42.96 213.02,-37.23 211.4,-44.04"/>
</g>
</g>
</svg>
