<?xml version="1.0" encoding="UTF-8" standalone="no"?>
<!DOCTYPE svg PUBLIC "-//W3C//DTD SVG 1.1//EN"
 "http://www.w3.org/Graphics/SVG/1.1/DTD/svg11.dtd">
<!-- Generated by graphviz version 2.43.0 (0)
 -->
<!-- Title: CalibrateCommand::processOptions Pages: 1 -->
<svg width="785pt" height="554pt"
 viewBox="0.00 0.00 785.00 554.00" xmlns="http://www.w3.org/2000/svg" xmlns:xlink="http://www.w3.org/1999/xlink">
<g id="graph0" class="graph" transform="scale(1 1) rotate(0) translate(4 550)">
<title>CalibrateCommand::processOptions</title>
<!-- Node1 -->
<g id="Node000001" class="node">
<title>Node1</title>
<g id="a_Node000001"><a xlink:title="Processes the relevant options from the command line parser.">
<polygon fill="#999999" stroke="#666666" points="155,-125.5 0,-125.5 0,-95.5 155,-95.5 155,-125.5"/>
<text text-anchor="start" x="8" y="-113.5" font-family="Helvetica,sans-Serif" font-size="10.00">CalibrateCommand::process</text>
<text text-anchor="middle" x="77.5" y="-102.5" font-family="Helvetica,sans-Serif" font-size="10.00">Options</text>
</a>
</g>
</g>
<!-- Node2 -->
<g id="Node000002" class="node">
<title>Node2</title>
<g id="a_Node000002"><a target="_parent" xlink:href="https://doc.qt.io/qt-5/qlist.html#append" xlink:title=" ">
<polygon fill="white" stroke="#666666" points="524,-546 441,-546 441,-527 524,-527 524,-546"/>
<text text-anchor="middle" x="482.5" y="-534" font-family="Helvetica,sans-Serif" font-size="10.00">QList::append</text>
</a>
</g>
</g>
<!-- Node1&#45;&gt;Node2 -->
<g id="edge1_Node000001_Node000002" class="edge">
<title>Node1&#45;&gt;Node2</title>
<g id="a_edge1_Node000001_Node000002"><a xlink:title=" ">
<path fill="none" stroke="#63b8ff" d="M84.45,-125.65C109.38,-186.93 211.9,-417.9 378,-518.5 394.23,-528.33 414.37,-533.14 432.56,-535.39"/>
<polygon fill="#63b8ff" stroke="#63b8ff" points="440.76,-536.26 432.42,-539 436.78,-535.84 432.8,-535.42 432.8,-535.42 432.8,-535.42 436.78,-535.84 433.18,-531.84 440.76,-536.26 440.76,-536.26"/>
</a>
</g>
</g>
<!-- Node3 -->
<g id="Node000003" class="node">
<title>Node3</title>
<g id="a_Node000003"><a target="_parent" xlink:href="https://doc.qt.io/qt-5/qlist.html#isEmpty" xlink:title=" ">
<polygon fill="white" stroke="#666666" points="310,-63 223,-63 223,-44 310,-44 310,-63"/>
<text text-anchor="middle" x="266.5" y="-51" font-family="Helvetica,sans-Serif" font-size="10.00">QList::isEmpty</text>
</a>
</g>
</g>
<!-- Node1&#45;&gt;Node3 -->
<g id="edge2_Node000001_Node000003" class="edge">
<title>Node1&#45;&gt;Node3</title>
<g id="a_edge2_Node000001_Node000003"><a xlink:title=" ">
<path fill="none" stroke="#63b8ff" d="M128.12,-95.37C158.88,-86 197.83,-74.13 226.4,-65.42"/>
<polygon fill="#63b8ff" stroke="#63b8ff" points="234.17,-63.05 227.56,-68.83 230.34,-64.22 226.51,-65.38 226.51,-65.38 226.51,-65.38 230.34,-64.22 225.46,-61.94 234.17,-63.05 234.17,-63.05"/>
</a>
</g>
</g>
<!-- Node4 -->
<g id="Node000004" class="node">
<title>Node4</title>
<g id="a_Node000004"><a xlink:href="classAbstractCommand.html#ad827a18a24776efeb955739459d48f7d" target="_top" xlink:title="Processes the relevant options from the command line parser.">
<polygon fill="white" stroke="#666666" points="342,-265.5 191,-265.5 191,-235.5 342,-235.5 342,-265.5"/>
<text text-anchor="start" x="199" y="-253.5" font-family="Helvetica,sans-Serif" font-size="10.00">AbstractCommand::process</text>
<text text-anchor="middle" x="266.5" y="-242.5" font-family="Helvetica,sans-Serif" font-size="10.00">Options</text>
</a>
</g>
</g>
<!-- Node1&#45;&gt;Node4 -->
<g id="edge3_Node000001_Node000004" class="edge">
<title>Node1&#45;&gt;Node4</title>
<g id="a_edge3_Node000001_Node000004"><a xlink:title=" ">
<path fill="none" stroke="#63b8ff" d="M98.87,-125.75C132.82,-151.17 200.98,-202.2 238.75,-230.48"/>
<polygon fill="#63b8ff" stroke="#63b8ff" points="245.44,-235.48 236.88,-233.57 242.24,-233.08 239.04,-230.69 239.04,-230.69 239.04,-230.69 242.24,-233.08 241.19,-227.81 245.44,-235.48 245.44,-235.48"/>
</a>
</g>
</g>
<!-- Node26 -->
<g id="Node000026" class="node">
<title>Node26</title>
<g id="a_Node000026"><a target="_parent" xlink:href="https://doc.qt.io/qt-5/qobject.html#tr" xlink:title=" ">
<polygon fill="white" stroke="#666666" points="517,-81 448,-81 448,-62 517,-62 517,-81"/>
<text text-anchor="middle" x="482.5" y="-69" font-family="Helvetica,sans-Serif" font-size="10.00">QObject::tr</text>
</a>
</g>
</g>
<!-- Node1&#45;&gt;Node26 -->
<g id="edge30_Node000001_Node000026" class="edge">
<title>Node1&#45;&gt;Node26</title>
<g id="a_edge30_Node000001_Node000026"><a xlink:title=" ">
<path fill="none" stroke="#63b8ff" d="M155.17,-116.55C208.2,-118.91 280.09,-118.49 342,-105.5 358.96,-101.94 361.38,-95.43 378,-90.5 398.08,-84.55 420.93,-80.12 440.04,-77.04"/>
<polygon fill="#63b8ff" stroke="#63b8ff" points="447.98,-75.8 440.63,-80.59 444.03,-76.42 440.08,-77.03 440.08,-77.03 440.08,-77.03 444.03,-76.42 439.52,-73.48 447.98,-75.8 447.98,-75.8"/>
</a>
</g>
</g>
<!-- Node27 -->
<g id="Node000027" class="node">
<title>Node27</title>
<g id="a_Node000027"><a target="_parent" xlink:href="https://doc.qt.io/qt-5/qcommandlineparser.html#value" xlink:title=" ">
<polygon fill="white" stroke="#666666" points="545,-43.5 420,-43.5 420,-13.5 545,-13.5 545,-43.5"/>
<text text-anchor="start" x="428" y="-31.5" font-family="Helvetica,sans-Serif" font-size="10.00">QCommandLineParser</text>
<text text-anchor="middle" x="482.5" y="-20.5" font-family="Helvetica,sans-Serif" font-size="10.00">::value</text>
</a>
</g>
</g>
<!-- Node1&#45;&gt;Node27 -->
<g id="edge31_Node000001_Node000027" class="edge">
<title>Node1&#45;&gt;Node27</title>
<g id="a_edge31_Node000001_Node000027"><a xlink:title=" ">
<path fill="none" stroke="#63b8ff" d="M155.16,-106.8C208.67,-102.46 281.12,-93.02 342,-72.5 359.34,-66.65 360.92,-59.08 378,-52.5 388.77,-48.35 400.46,-44.8 411.97,-41.8"/>
<polygon fill="#63b8ff" stroke="#63b8ff" points="419.9,-39.81 413.02,-45.25 416.02,-40.78 412.14,-41.76 412.14,-41.76 412.14,-41.76 416.02,-40.78 411.26,-38.26 419.9,-39.81 419.9,-39.81"/>
</a>
</g>
</g>
<!-- Node28 -->
<g id="Node000028" class="node">
<title>Node28</title>
<g id="a_Node000028"><a target="_parent" xlink:href="https://doc.qt.io/qt-5/qstring.html#toFloat" xlink:title=" ">
<polygon fill="white" stroke="#666666" points="313,-26 220,-26 220,-7 313,-7 313,-26"/>
<text text-anchor="middle" x="266.5" y="-14" font-family="Helvetica,sans-Serif" font-size="10.00">QString::toFloat</text>
</a>
</g>
</g>
<!-- Node1&#45;&gt;Node28 -->
<g id="edge29_Node000001_Node000028" class="edge">
<title>Node1&#45;&gt;Node28</title>
<g id="a_edge29_Node000001_Node000028"><a xlink:title=" ">
<path fill="none" stroke="#63b8ff" d="M96.4,-95.4C117.64,-78.22 154.77,-50.49 191,-34.5 197.62,-31.58 204.78,-29.09 211.96,-26.98"/>
<polygon fill="#63b8ff" stroke="#63b8ff" points="219.74,-24.83 212.98,-30.43 215.88,-25.89 212.02,-26.96 212.02,-26.96 212.02,-26.96 215.88,-25.89 211.07,-23.49 219.74,-24.83 219.74,-24.83"/>
</a>
</g>
</g>
<!-- Node4&#45;&gt;Node2 -->
<g id="edge4_Node000004_Node000002" class="edge">
<title>Node4&#45;&gt;Node2</title>
<g id="a_edge4_Node000004_Node000002"><a xlink:title=" ">
<path fill="none" stroke="#63b8ff" d="M275.28,-265.69C289.54,-293.82 320.36,-356.12 342,-410.5 360.71,-457.51 339.65,-485.5 378,-518.5 393,-531.41 413.88,-536.61 432.95,-538.31"/>
<polygon fill="#63b8ff" stroke="#63b8ff" points="441,-538.84 432.78,-541.91 437.01,-538.58 433.01,-538.32 433.01,-538.32 433.01,-538.32 437.01,-538.58 433.25,-534.73 441,-538.84 441,-538.84"/>
</a>
</g>
</g>
<!-- Node5 -->
<g id="Node000005" class="node">
<title>Node5</title>
<g id="a_Node000005"><a target="_parent" xlink:href="https://doc.qt.io/qt-5/qstring.html#arg-1" xlink:title=" ">
<polygon fill="white" stroke="#666666" points="519.5,-118 445.5,-118 445.5,-99 519.5,-99 519.5,-118"/>
<text text-anchor="middle" x="482.5" y="-106" font-family="Helvetica,sans-Serif" font-size="10.00">QString::arg</text>
</a>
</g>
</g>
<!-- Node4&#45;&gt;Node5 -->
<g id="edge5_Node000004_Node000005" class="edge">
<title>Node4&#45;&gt;Node5</title>
<g id="a_edge5_Node000004_Node000005"><a xlink:title=" ">
<path fill="none" stroke="#63b8ff" d="M276.52,-235.08C292.99,-208.41 330.66,-154 378,-127.5 395.86,-117.51 417.9,-112.62 437.05,-110.29"/>
<polygon fill="#63b8ff" stroke="#63b8ff" points="445.05,-109.43 437.48,-113.86 441.08,-109.86 437.1,-110.28 437.1,-110.28 437.1,-110.28 441.08,-109.86 436.72,-106.7 445.05,-109.43 445.05,-109.43"/>
</a>
</g>
</g>
<!-- Node6 -->
<g id="Node000006" class="node">
<title>Node6</title>
<g id="a_Node000006"><a target="_parent" xlink:href="https://doc.qt.io/qt-5/qstringlist.html#contains" xlink:title=" ">
<polygon fill="white" stroke="#666666" points="541,-509 424,-509 424,-490 541,-490 541,-509"/>
<text text-anchor="middle" x="482.5" y="-497" font-family="Helvetica,sans-Serif" font-size="10.00">QStringList::contains</text>
</a>
</g>
</g>
<!-- Node4&#45;&gt;Node6 -->
<g id="edge6_Node000004_Node000006" class="edge">
<title>Node4&#45;&gt;Node6</title>
<g id="a_edge6_Node000004_Node000006"><a xlink:title=" ">
<path fill="none" stroke="#63b8ff" d="M274.57,-265.68C298.2,-316.37 373.26,-476.88 378,-480.5 388.92,-488.84 402.37,-493.92 415.9,-496.94"/>
<polygon fill="#63b8ff" stroke="#63b8ff" points="423.86,-498.48 415.33,-500.49 419.94,-497.72 416.01,-496.96 416.01,-496.96 416.01,-496.96 419.94,-497.72 416.7,-493.42 423.86,-498.48 423.86,-498.48"/>
</a>
</g>
</g>
<!-- Node7 -->
<g id="Node000007" class="node">
<title>Node7</title>
<g id="a_Node000007"><a target="_parent" xlink:href="https://doc.qt.io/qt-5/qcommandlineparser.html#isSet" xlink:title=" ">
<polygon fill="white" stroke="#666666" points="545,-471.5 420,-471.5 420,-441.5 545,-441.5 545,-471.5"/>
<text text-anchor="start" x="428" y="-459.5" font-family="Helvetica,sans-Serif" font-size="10.00">QCommandLineParser</text>
<text text-anchor="middle" x="482.5" y="-448.5" font-family="Helvetica,sans-Serif" font-size="10.00">::isSet</text>
</a>
</g>
</g>
<!-- Node4&#45;&gt;Node7 -->
<g id="edge7_Node000004_Node000007" class="edge">
<title>Node4&#45;&gt;Node7</title>
<g id="a_edge7_Node000004_Node000007"><a xlink:title=" ">
<path fill="none" stroke="#63b8ff" d="M272.1,-265.53C283.68,-300.71 317.51,-388.72 378,-432.5 387.99,-439.73 399.82,-444.82 411.85,-448.4"/>
<polygon fill="#63b8ff" stroke="#63b8ff" points="419.77,-450.53 411.1,-451.92 415.9,-449.49 412.04,-448.45 412.04,-448.45 412.04,-448.45 415.9,-449.49 412.98,-444.97 419.77,-450.53 419.77,-450.53"/>
</a>
</g>
</g>
<!-- Node8 -->
<g id="Node000008" class="node">
<title>Node8</title>
<g id="a_Node000008"><a target="_parent" xlink:href="https://doc.qt.io/qt-5/qbluetoothdevicediscoveryagent.html#lowEnergyDiscoveryTimeout" xlink:title=" ">
<polygon fill="white" stroke="#666666" points="578,-423.5 387,-423.5 387,-393.5 578,-393.5 578,-423.5"/>
<text text-anchor="start" x="395" y="-411.5" font-family="Helvetica,sans-Serif" font-size="10.00">QBluetoothDeviceDiscovery</text>
<text text-anchor="middle" x="482.5" y="-400.5" font-family="Helvetica,sans-Serif" font-size="10.00">Agent::lowEnergyDiscoveryTimeout</text>
</a>
</g>
</g>
<!-- Node4&#45;&gt;Node8 -->
<g id="edge8_Node000004_Node000008" class="edge">
<title>Node4&#45;&gt;Node8</title>
<g id="a_edge8_Node000004_Node000008"><a xlink:title=" ">
<path fill="none" stroke="#63b8ff" d="M275.54,-265.72C291.23,-293.88 328.78,-354.02 378,-384.5 381.31,-386.55 384.77,-388.42 388.34,-390.13"/>
<polygon fill="#63b8ff" stroke="#63b8ff" points="395.81,-393.43 387.04,-393.49 392.15,-391.82 388.49,-390.2 388.49,-390.2 388.49,-390.2 392.15,-391.82 389.94,-386.91 395.81,-393.43 395.81,-393.43"/>
</a>
</g>
</g>
<!-- Node9 -->
<g id="Node000009" class="node">
<title>Node9</title>
<g id="a_Node000009"><a target="_parent" xlink:href="https://doc.qt.io/qt-5/qcommandlineparser.html#optionNames" xlink:title=" ">
<polygon fill="white" stroke="#666666" points="545,-375.5 420,-375.5 420,-345.5 545,-345.5 545,-375.5"/>
<text text-anchor="start" x="428" y="-363.5" font-family="Helvetica,sans-Serif" font-size="10.00">QCommandLineParser</text>
<text text-anchor="middle" x="482.5" y="-352.5" font-family="Helvetica,sans-Serif" font-size="10.00">::optionNames</text>
</a>
</g>
</g>
<!-- Node4&#45;&gt;Node9 -->
<g id="edge9_Node000004_Node000009" class="edge">
<title>Node4&#45;&gt;Node9</title>
<g id="a_edge9_Node000004_Node000009"><a xlink:title=" ">
<path fill="none" stroke="#63b8ff" d="M282.5,-265.72C302.49,-285.12 339.81,-318.31 378,-336.5 388.55,-341.53 400.22,-345.54 411.81,-348.72"/>
<polygon fill="#63b8ff" stroke="#63b8ff" points="419.81,-350.8 411.16,-352.27 415.94,-349.8 412.07,-348.79 412.07,-348.79 412.07,-348.79 415.94,-349.8 412.97,-345.31 419.81,-350.8 419.81,-350.8"/>
</a>
</g>
</g>
<!-- Node10 -->
<g id="Node000010" class="node">
<title>Node10</title>
<g id="a_Node000010"><a xlink:href="classAbstractCommand.html#a29b2a2446ef034195183a2ae9d4bb911" target="_top" xlink:title="Returns value as an integer multiple of the ratio R.">
<polygon fill="white" stroke="#666666" points="572,-241 393,-241 393,-222 572,-222 572,-241"/>
<text text-anchor="middle" x="482.5" y="-229" font-family="Helvetica,sans-Serif" font-size="10.00">AbstractCommand::parseNumber</text>
</a>
</g>
</g>
<!-- Node4&#45;&gt;Node10 -->
<g id="edge10_Node000004_Node000010" class="edge">
<title>Node4&#45;&gt;Node10</title>
<g id="a_edge10_Node000004_Node000010"><a xlink:title=" ">
<path fill="none" stroke="#63b8ff" d="M342.05,-243.88C355.76,-242.66 370.26,-241.38 384.52,-240.11"/>
<polygon fill="#63b8ff" stroke="#63b8ff" points="392.88,-239.37 385.23,-243.66 388.9,-239.72 384.91,-240.08 384.91,-240.08 384.91,-240.08 388.9,-239.72 384.59,-236.49 392.88,-239.37 392.88,-239.37"/>
</a>
</g>
</g>
<!-- Node22 -->
<g id="Node000022" class="node">
<title>Node22</title>
<g id="a_Node000022"><a xlink:href="classAbstractCommand.html#afd6f41cfc925751415cfa45e3b2d0b4a" target="_top" xlink:title="Returns a list of CLI option names required by this command.">
<polygon fill="white" stroke="#666666" points="777,-437.5 623,-437.5 623,-407.5 777,-407.5 777,-437.5"/>
<text text-anchor="start" x="631" y="-425.5" font-family="Helvetica,sans-Serif" font-size="10.00">AbstractCommand::required</text>
<text text-anchor="middle" x="700" y="-414.5" font-family="Helvetica,sans-Serif" font-size="10.00">Options</text>
</a>
</g>
</g>
<!-- Node4&#45;&gt;Node22 -->
<g id="edge22_Node000004_Node000022" class="edge">
<title>Node4&#45;&gt;Node22</title>
<g id="a_edge22_Node000004_Node000022"><a xlink:title=" ">
<path fill="none" stroke="#63b8ff" d="M342.31,-250.35C424.83,-251.71 550.76,-258.81 587,-288.5 626.79,-321.1 586.44,-362.32 623,-398.5 624.51,-399.99 626.1,-401.39 627.78,-402.7"/>
<polygon fill="#63b8ff" stroke="#63b8ff" points="634.57,-407.34 625.93,-405.8 631.27,-405.08 627.96,-402.83 627.96,-402.83 627.96,-402.83 631.27,-405.08 629.99,-399.85 634.57,-407.34 634.57,-407.34"/>
</a>
</g>
</g>
<!-- Node23 -->
<g id="Node000023" class="node">
<title>Node23</title>
<g id="a_Node000023"><a target="_parent" xlink:href="https://doc.qt.io/qt-5/qbluetoothdevicediscoveryagent.html#setLowEnergyDiscoveryTimeout" xlink:title=" ">
<polygon fill="white" stroke="#666666" points="587,-203.5 378,-203.5 378,-173.5 587,-173.5 587,-203.5"/>
<text text-anchor="start" x="386" y="-191.5" font-family="Helvetica,sans-Serif" font-size="10.00">QBluetoothDeviceDiscovery</text>
<text text-anchor="middle" x="482.5" y="-180.5" font-family="Helvetica,sans-Serif" font-size="10.00">Agent::setLowEnergyDiscoveryTimeout</text>
</a>
</g>
</g>
<!-- Node4&#45;&gt;Node23 -->
<g id="edge23_Node000004_Node000023" class="edge">
<title>Node4&#45;&gt;Node23</title>
<g id="a_edge23_Node000004_Node000023"><a xlink:title=" ">
<path fill="none" stroke="#63b8ff" d="M309.47,-235.5C330,-228.4 355.15,-220.07 378,-213.5 387.53,-210.76 397.62,-208.07 407.6,-205.53"/>
<polygon fill="#63b8ff" stroke="#63b8ff" points="415.57,-203.52 408.69,-208.96 411.69,-204.5 407.81,-205.47 407.81,-205.47 407.81,-205.47 411.69,-204.5 406.94,-201.98 415.57,-203.52 415.57,-203.52"/>
</a>
</g>
</g>
<!-- Node24 -->
<g id="Node000024" class="node">
<title>Node24</title>
<g id="a_Node000024"><a xlink:href="classAbstractCommand.html#a1ceca3c5b4cb24277dd4d4054f45db18" target="_top" xlink:title="Returns a list of CLI option names supported by this command.">
<polygon fill="white" stroke="#666666" points="563.5,-327.5 401.5,-327.5 401.5,-297.5 563.5,-297.5 563.5,-327.5"/>
<text text-anchor="start" x="409.5" y="-315.5" font-family="Helvetica,sans-Serif" font-size="10.00">AbstractCommand::supported</text>
<text text-anchor="middle" x="482.5" y="-304.5" font-family="Helvetica,sans-Serif" font-size="10.00">Options</text>
</a>
</g>
</g>
<!-- Node4&#45;&gt;Node24 -->
<g id="edge24_Node000004_Node000024" class="edge">
<title>Node4&#45;&gt;Node24</title>
<g id="a_edge24_Node000004_Node000024"><a xlink:title=" ">
<path fill="none" stroke="#63b8ff" d="M317.23,-265.55C336.22,-271.24 358.09,-277.74 378,-283.5 391.34,-287.36 405.66,-291.42 419.28,-295.25"/>
<polygon fill="#63b8ff" stroke="#63b8ff" points="427.2,-297.47 418.52,-298.78 423.35,-296.39 419.49,-295.31 419.49,-295.31 419.49,-295.31 423.35,-296.39 420.47,-291.85 427.2,-297.47 427.2,-297.47"/>
</a>
</g>
</g>
<!-- Node25 -->
<g id="Node000025" class="node">
<title>Node25</title>
<g id="a_Node000025"><a target="_parent" xlink:href="https://doc.qt.io/qt-5/qstring.html#toLower" xlink:title=" ">
<polygon fill="white" stroke="#666666" points="531.5,-155 433.5,-155 433.5,-136 531.5,-136 531.5,-155"/>
<text text-anchor="middle" x="482.5" y="-143" font-family="Helvetica,sans-Serif" font-size="10.00">QString::toLower</text>
</a>
</g>
</g>
<!-- Node4&#45;&gt;Node25 -->
<g id="edge26_Node000004_Node000025" class="edge">
<title>Node4&#45;&gt;Node25</title>
<g id="a_edge26_Node000004_Node000025"><a xlink:title=" ">
<path fill="none" stroke="#63b8ff" d="M282.03,-235.35C301.8,-215.7 339.18,-181.9 378,-164.5 392.69,-157.91 409.54,-153.61 425.31,-150.8"/>
<polygon fill="#63b8ff" stroke="#63b8ff" points="433.44,-149.46 426.13,-154.31 429.49,-150.11 425.55,-150.76 425.55,-150.76 425.55,-150.76 429.49,-150.11 424.96,-147.21 433.44,-149.46 433.44,-149.46"/>
</a>
</g>
</g>
<!-- Node4&#45;&gt;Node26 -->
<g id="edge27_Node000004_Node000026" class="edge">
<title>Node4&#45;&gt;Node26</title>
<g id="a_edge27_Node000004_Node000026"><a xlink:title=" ">
<path fill="none" stroke="#63b8ff" d="M278.17,-235.3C292.68,-214.59 319.43,-176.33 342,-143.5 358.14,-120.04 354.15,-106.05 378,-90.5 396.16,-78.66 419.72,-73.71 439.77,-71.81"/>
<polygon fill="#63b8ff" stroke="#63b8ff" points="447.84,-71.19 440.14,-75.4 443.85,-71.5 439.86,-71.81 439.86,-71.81 439.86,-71.81 443.85,-71.5 439.58,-68.22 447.84,-71.19 447.84,-71.19"/>
</a>
</g>
</g>
<!-- Node4&#45;&gt;Node27 -->
<g id="edge28_Node000004_Node000027" class="edge">
<title>Node4&#45;&gt;Node27</title>
<g id="a_edge28_Node000004_Node000027"><a xlink:title=" ">
<path fill="none" stroke="#63b8ff" d="M275,-235.45C297.1,-191.4 361.4,-64.98 378,-52.5 387.92,-45.04 399.77,-39.85 411.85,-36.24"/>
<polygon fill="#63b8ff" stroke="#63b8ff" points="419.81,-34.09 413.02,-39.65 415.95,-35.13 412.08,-36.18 412.08,-36.18 412.08,-36.18 415.95,-35.13 411.15,-32.7 419.81,-34.09 419.81,-34.09"/>
</a>
</g>
</g>
<!-- Node11 -->
<g id="Node000011" class="node">
<title>Node11</title>
<g id="a_Node000011"><a target="_parent" xlink:href="https://doc.qt.io/qt-5/qstring.html#at" xlink:title=" ">
<polygon fill="white" stroke="#666666" points="734,-352 666,-352 666,-333 734,-333 734,-352"/>
<text text-anchor="middle" x="700" y="-340" font-family="Helvetica,sans-Serif" font-size="10.00">QString::at</text>
</a>
</g>
</g>
<!-- Node10&#45;&gt;Node11 -->
<g id="edge11_Node000010_Node000011" class="edge">
<title>Node10&#45;&gt;Node11</title>
<g id="a_edge11_Node000010_Node000011"><a xlink:title=" ">
<path fill="none" stroke="#63b8ff" d="M559.62,-241.07C569.46,-244.55 578.91,-249.23 587,-255.5 614.35,-276.68 595.7,-303.26 623,-324.5 632.92,-332.22 645.62,-336.71 657.79,-339.29"/>
<polygon fill="#63b8ff" stroke="#63b8ff" points="665.67,-340.73 657.15,-342.84 661.74,-340.01 657.8,-339.3 657.8,-339.3 657.8,-339.3 661.74,-340.01 658.45,-335.75 665.67,-340.73 665.67,-340.73"/>
</a>
</g>
</g>
<!-- Node12 -->
<g id="Node000012" class="node">
<title>Node12</title>
<g id="a_Node000012"><a target="_parent" xlink:href="https://doc.qt.io/qt-5/qstring.html#back" xlink:title=" ">
<polygon fill="white" stroke="#666666" points="741,-315 659,-315 659,-296 741,-296 741,-315"/>
<text text-anchor="middle" x="700" y="-303" font-family="Helvetica,sans-Serif" font-size="10.00">QString::back</text>
</a>
</g>
</g>
<!-- Node10&#45;&gt;Node12 -->
<g id="edge12_Node000010_Node000012" class="edge">
<title>Node10&#45;&gt;Node12</title>
<g id="a_edge12_Node000010_Node000012"><a xlink:title=" ">
<path fill="none" stroke="#63b8ff" d="M547.4,-241.07C560.93,-244.52 574.79,-249.19 587,-255.5 606.02,-265.33 604.01,-277.62 623,-287.5 631.55,-291.95 641.22,-295.31 650.71,-297.86"/>
<polygon fill="#63b8ff" stroke="#63b8ff" points="658.63,-299.8 650,-301.39 654.74,-298.85 650.86,-297.89 650.86,-297.89 650.86,-297.89 654.74,-298.85 651.72,-294.39 658.63,-299.8 658.63,-299.8"/>
</a>
</g>
</g>
<!-- Node13 -->
<g id="Node000013" class="node">
<title>Node13</title>
<g id="a_Node000013"><a target="_parent" xlink:href="https://doc.qt.io/qt-5/qstring.html#chop" xlink:title=" ">
<polygon fill="white" stroke="#666666" points="741,-278 659,-278 659,-259 741,-259 741,-278"/>
<text text-anchor="middle" x="700" y="-266" font-family="Helvetica,sans-Serif" font-size="10.00">QString::chop</text>
</a>
</g>
</g>
<!-- Node10&#45;&gt;Node13 -->
<g id="edge13_Node000010_Node000013" class="edge">
<title>Node10&#45;&gt;Node13</title>
<g id="a_edge13_Node000010_Node000013"><a xlink:title=" ">
<path fill="none" stroke="#63b8ff" d="M539,-241.03C573.49,-246.95 617.4,-254.49 650.5,-260.17"/>
<polygon fill="#63b8ff" stroke="#63b8ff" points="658.66,-261.57 650.17,-263.77 654.72,-260.9 650.78,-260.22 650.78,-260.22 650.78,-260.22 654.72,-260.9 651.39,-256.67 658.66,-261.57 658.66,-261.57"/>
</a>
</g>
</g>
<!-- Node14 -->
<g id="Node000014" class="node">
<title>Node14</title>
<g id="a_Node000014"><a target="_parent" xlink:href="https://doc.qt.io/qt-5/qstring.html#endsWith" xlink:title=" ">
<polygon fill="white" stroke="#666666" points="752,-241 648,-241 648,-222 752,-222 752,-241"/>
<text text-anchor="middle" x="700" y="-229" font-family="Helvetica,sans-Serif" font-size="10.00">QString::endsWith</text>
</a>
</g>
</g>
<!-- Node10&#45;&gt;Node14 -->
<g id="edge14_Node000010_Node000014" class="edge">
<title>Node10&#45;&gt;Node14</title>
<g id="a_edge14_Node000010_Node000014"><a xlink:title=" ">
<path fill="none" stroke="#63b8ff" d="M572.09,-231.5C594.84,-231.5 618.77,-231.5 639.64,-231.5"/>
<polygon fill="#63b8ff" stroke="#63b8ff" points="647.78,-231.5 639.78,-235.1 643.78,-231.5 639.78,-231.5 639.78,-231.5 639.78,-231.5 643.78,-231.5 639.78,-227.9 647.78,-231.5 647.78,-231.5"/>
</a>
</g>
</g>
<!-- Node15 -->
<g id="Node000015" class="node">
<title>Node15</title>
<g id="a_Node000015"><a target="_parent" xlink:href="https://doc.qt.io/qt-5/qstring.html#isEmpty" xlink:title=" ">
<polygon fill="white" stroke="#666666" points="749,-204 651,-204 651,-185 749,-185 749,-204"/>
<text text-anchor="middle" x="700" y="-192" font-family="Helvetica,sans-Serif" font-size="10.00">QString::isEmpty</text>
</a>
</g>
</g>
<!-- Node10&#45;&gt;Node15 -->
<g id="edge15_Node000010_Node000015" class="edge">
<title>Node10&#45;&gt;Node15</title>
<g id="a_edge15_Node000010_Node000015"><a xlink:title=" ">
<path fill="none" stroke="#63b8ff" d="M539,-221.97C570.84,-216.5 610.72,-209.66 642.7,-204.17"/>
<polygon fill="#63b8ff" stroke="#63b8ff" points="650.65,-202.8 643.38,-207.7 646.71,-203.48 642.77,-204.15 642.77,-204.15 642.77,-204.15 646.71,-203.48 642.16,-200.61 650.65,-202.8 650.65,-202.8"/>
</a>
</g>
</g>
<!-- Node16 -->
<g id="Node000016" class="node">
<title>Node16</title>
<g id="a_Node000016"><a xlink:href="structRatio.html#abbfb48e8ebeec5666385f38b31f94215" target="_top" xlink:title="Returns true if both num and den are non&#45;zero.">
<polygon fill="white" stroke="#666666" points="740,-167 660,-167 660,-148 740,-148 740,-167"/>
<text text-anchor="middle" x="700" y="-155" font-family="Helvetica,sans-Serif" font-size="10.00">Ratio::isValid</text>
</a>
</g>
</g>
<!-- Node10&#45;&gt;Node16 -->
<g id="edge16_Node000010_Node000016" class="edge">
<title>Node10&#45;&gt;Node16</title>
<g id="a_edge16_Node000010_Node000016"><a xlink:title=" ">
<path fill="none" stroke="#63b8ff" d="M563.43,-221.93C571.63,-219.45 579.64,-216.36 587,-212.5 607.03,-201.98 603.31,-187.65 623,-176.5 631.87,-171.48 642.06,-167.77 652.04,-165.03"/>
<polygon fill="#63b8ff" stroke="#63b8ff" points="659.97,-163.04 653.09,-168.48 656.09,-164.01 652.21,-164.99 652.21,-164.99 652.21,-164.99 656.09,-164.01 651.34,-161.5 659.97,-163.04 659.97,-163.04"/>
</a>
</g>
</g>
<!-- Node17 -->
<g id="Node000017" class="node">
<title>Node17</title>
<g id="a_Node000017"><a target="_parent" xlink:href="https://doc.qt.io/qt-5/qstring.html#length" xlink:title=" ">
<polygon fill="white" stroke="#666666" points="744.5,-130 655.5,-130 655.5,-111 744.5,-111 744.5,-130"/>
<text text-anchor="middle" x="700" y="-118" font-family="Helvetica,sans-Serif" font-size="10.00">QString::length</text>
</a>
</g>
</g>
<!-- Node10&#45;&gt;Node17 -->
<g id="edge17_Node000010_Node000017" class="edge">
<title>Node10&#45;&gt;Node17</title>
<g id="a_edge17_Node000010_Node000017"><a xlink:title=" ">
<path fill="none" stroke="#63b8ff" d="M570.57,-221.98C576.42,-219.42 581.97,-216.3 587,-212.5 615.86,-190.69 594.84,-162.21 623,-139.5 630.12,-133.75 638.75,-129.72 647.6,-126.88"/>
<polygon fill="#63b8ff" stroke="#63b8ff" points="655.41,-124.7 648.68,-130.32 651.56,-125.78 647.7,-126.86 647.7,-126.86 647.7,-126.86 651.56,-125.78 646.73,-123.39 655.41,-124.7 655.41,-124.7"/>
</a>
</g>
</g>
<!-- Node18 -->
<g id="Node000018" class="node">
<title>Node18</title>
<g id="a_Node000018"><a target="_parent" xlink:href="https://doc.qt.io/qt-5/qstring.html#size" xlink:title=" ">
<polygon fill="white" stroke="#666666" points="739,-93 661,-93 661,-74 739,-74 739,-93"/>
<text text-anchor="middle" x="700" y="-81" font-family="Helvetica,sans-Serif" font-size="10.00">QString::size</text>
</a>
</g>
</g>
<!-- Node10&#45;&gt;Node18 -->
<g id="edge18_Node000010_Node000018" class="edge">
<title>Node10&#45;&gt;Node18</title>
<g id="a_edge18_Node000010_Node000018"><a xlink:title=" ">
<path fill="none" stroke="#63b8ff" d="M572.44,-222.15C577.68,-219.53 582.6,-216.35 587,-212.5 625.74,-178.66 585.35,-137.55 623,-102.5 631.25,-94.82 642.12,-90.12 653.06,-87.28"/>
<polygon fill="#63b8ff" stroke="#63b8ff" points="660.99,-85.52 653.96,-90.76 657.09,-86.38 653.18,-87.25 653.18,-87.25 653.18,-87.25 657.09,-86.38 652.41,-83.73 660.99,-85.52 660.99,-85.52"/>
</a>
</g>
</g>
<!-- Node19 -->
<g id="Node000019" class="node">
<title>Node19</title>
<g id="a_Node000019"><a target="_parent" xlink:href="https://doc.qt.io/qt-5/qlocale.html#toDouble" xlink:title=" ">
<polygon fill="white" stroke="#666666" points="753,-56 647,-56 647,-37 753,-37 753,-56"/>
<text text-anchor="middle" x="700" y="-44" font-family="Helvetica,sans-Serif" font-size="10.00">QLocale::toDouble</text>
</a>
</g>
</g>
<!-- Node10&#45;&gt;Node19 -->
<g id="edge19_Node000010_Node000019" class="edge">
<title>Node10&#45;&gt;Node19</title>
<g id="a_edge19_Node000010_Node000019"><a xlink:title=" ">
<path fill="none" stroke="#63b8ff" d="M572.31,-222.79C577.64,-220.03 582.62,-216.64 587,-212.5 636.21,-166.02 574.99,-112.22 623,-64.5 627.6,-59.93 633.13,-56.44 639.09,-53.78"/>
<polygon fill="#63b8ff" stroke="#63b8ff" points="646.82,-50.85 640.62,-57.05 643.08,-52.27 639.34,-53.69 639.34,-53.69 639.34,-53.69 643.08,-52.27 638.06,-50.32 646.82,-50.85 646.82,-50.85"/>
</a>
</g>
</g>
<!-- Node20 -->
<g id="Node000020" class="node">
<title>Node20</title>
<g id="a_Node000020"><a target="_parent" xlink:href="https://doc.qt.io/qt-5/qlocale.html#toULongLong" xlink:title=" ">
<polygon fill="white" stroke="#666666" points="762.5,-19 637.5,-19 637.5,0 762.5,0 762.5,-19"/>
<text text-anchor="middle" x="700" y="-7" font-family="Helvetica,sans-Serif" font-size="10.00">QLocale::toULongLong</text>
</a>
</g>
</g>
<!-- Node10&#45;&gt;Node20 -->
<g id="edge20_Node000010_Node000020" class="edge">
<title>Node10&#45;&gt;Node20</title>
<g id="a_edge20_Node000010_Node000020"><a xlink:title=" ">
<path fill="none" stroke="#63b8ff" d="M572.05,-223.27C577.52,-220.41 582.58,-216.87 587,-212.5 646.54,-153.59 564.98,-87.91 623,-27.5 625.2,-25.21 627.62,-23.2 630.22,-21.41"/>
<polygon fill="#63b8ff" stroke="#63b8ff" points="637.47,-17.23 632.34,-24.35 634,-19.23 630.54,-21.23 630.54,-21.23 630.54,-21.23 634,-19.23 628.74,-18.12 637.47,-17.23 637.47,-17.23"/>
</a>
</g>
</g>
<!-- Node21 -->
<g id="Node000021" class="node">
<title>Node21</title>
<g id="a_Node000021"><a target="_parent" xlink:href="https://doc.qt.io/qt-5/qstring.html#trimmed" xlink:title=" ">
<polygon fill="white" stroke="#666666" points="750.5,-389 649.5,-389 649.5,-370 750.5,-370 750.5,-389"/>
<text text-anchor="middle" x="700" y="-377" font-family="Helvetica,sans-Serif" font-size="10.00">QString::trimmed</text>
</a>
</g>
</g>
<!-- Node10&#45;&gt;Node21 -->
<g id="edge21_Node000010_Node000021" class="edge">
<title>Node10&#45;&gt;Node21</title>
<g id="a_edge21_Node000010_Node000021"><a xlink:title=" ">
<path fill="none" stroke="#63b8ff" d="M563.41,-241.09C572.05,-244.62 580.16,-249.31 587,-255.5 623.89,-288.89 586.19,-328.03 623,-361.5 628.26,-366.29 634.56,-369.87 641.25,-372.54"/>
<polygon fill="#63b8ff" stroke="#63b8ff" points="649.24,-375.27 640.51,-376.09 645.46,-373.97 641.67,-372.68 641.67,-372.68 641.67,-372.68 645.46,-373.97 642.84,-369.27 649.24,-375.27 649.24,-375.27"/>
</a>
</g>
</g>
<!-- Node24&#45;&gt;Node22 -->
<g id="edge25_Node000024_Node000022" class="edge">
<title>Node24&#45;&gt;Node22</title>
<g id="a_edge25_Node000024_Node000022"><a xlink:title=" ">
<path fill="none" stroke="#63b8ff" d="M563.61,-323.97C571.96,-327.19 579.95,-331.29 587,-336.5 612.63,-355.43 598.13,-378.58 623,-398.5 625.16,-400.23 627.45,-401.84 629.83,-403.33"/>
<polygon fill="#63b8ff" stroke="#63b8ff" points="637.21,-407.46 628.47,-406.7 633.72,-405.51 630.23,-403.56 630.23,-403.56 630.23,-403.56 633.72,-405.51 631.99,-400.41 637.21,-407.46 637.21,-407.46"/>
</a>
</g>
</g>
</g>
</svg>
