<?xml version="1.0" encoding="UTF-8" standalone="no"?>
<!DOCTYPE svg PUBLIC "-//W3C//DTD SVG 1.1//EN"
 "http://www.w3.org/Graphics/SVG/1.1/DTD/svg11.dtd">
<!-- Generated by graphviz version 2.43.0 (0)
 -->
<!-- Title: LoggerFetchCommand Pages: 1 -->
<svg width="1237pt" height="713pt"
 viewBox="0.00 0.00 1237.00 713.21" xmlns="http://www.w3.org/2000/svg" xmlns:xlink="http://www.w3.org/1999/xlink">
<g id="graph0" class="graph" transform="scale(1 1) rotate(0) translate(4 709.21)">
<title>LoggerFetchCommand</title>
<!-- Node1 -->
<g id="node1" class="node">
<title>Node1</title>
<g id="a_node1"><a xlink:title="The LoggerFetchCommand class implements the logger CLI command.">
<polygon fill="#bfbfbf" stroke="black" points="1103,-554.71 1103,-573.71 1229,-573.71 1229,-554.71 1103,-554.71"/>
<text text-anchor="middle" x="1166" y="-561.71" font-family="Helvetica,sans-Serif" font-size="10.00">LoggerFetchCommand</text>
</a>
</g>
</g>
<!-- Node2 -->
<g id="node2" class="node">
<title>Node2</title>
<g id="a_node2"><a xlink:href="classDeviceCommand.html" target="_top" xlink:title="The AbstractCommand class extends AbstractCommand to add a PokitDevice instance.">
<polygon fill="none" stroke="black" points="853.5,-554.71 853.5,-573.71 954.5,-573.71 954.5,-554.71 853.5,-554.71"/>
<text text-anchor="middle" x="904" y="-561.71" font-family="Helvetica,sans-Serif" font-size="10.00">DeviceCommand</text>
</a>
</g>
</g>
<!-- Node2&#45;&gt;Node1 -->
<g id="edge1" class="edge">
<title>Node2&#45;&gt;Node1</title>
<path fill="none" stroke="midnightblue" d="M964.72,-564.21C1006.05,-564.21 1060.94,-564.21 1102.8,-564.21"/>
<polygon fill="midnightblue" stroke="midnightblue" points="964.52,-560.71 954.52,-564.21 964.52,-567.71 964.52,-560.71"/>
</g>
<!-- Node3 -->
<g id="node3" class="node">
<title>Node3</title>
<g id="a_node3"><a xlink:href="classAbstractCommand.html" target="_top" xlink:title="The AbstractCommand class provides a consistent base for the classes that implement CLI commands.">
<polygon fill="none" stroke="black" points="640,-621.71 640,-640.71 747,-640.71 747,-621.71 640,-621.71"/>
<text text-anchor="middle" x="693.5" y="-628.71" font-family="Helvetica,sans-Serif" font-size="10.00">AbstractCommand</text>
</a>
</g>
</g>
<!-- Node3&#45;&gt;Node2 -->
<g id="edge2" class="edge">
<title>Node3&#45;&gt;Node2</title>
<path fill="none" stroke="midnightblue" d="M733.92,-618.54C774.43,-605.53 836.59,-585.55 873.18,-573.79"/>
<polygon fill="midnightblue" stroke="midnightblue" points="732.82,-615.22 724.37,-621.61 734.96,-621.89 732.82,-615.22"/>
</g>
<!-- Node4 -->
<g id="node4" class="node">
<title>Node4</title>
<g id="a_node4"><a target="_parent" xlink:href="https://doc.qt.io/qt-5/qobject.html" xlink:title=" ">
<polygon fill="none" stroke="#bfbfbf" points="0,-450.71 0,-469.71 56,-469.71 56,-450.71 0,-450.71"/>
<text text-anchor="middle" x="28" y="-457.71" font-family="Helvetica,sans-Serif" font-size="10.00">QObject</text>
</a>
</g>
</g>
<!-- Node4&#45;&gt;Node3 -->
<g id="edge3" class="edge">
<title>Node4&#45;&gt;Node3</title>
<path fill="none" stroke="midnightblue" d="M31.1,-480.15C35.74,-513.08 50.13,-578.19 93,-608.21 180.13,-669.23 509.85,-647.52 639.59,-636.25"/>
<polygon fill="midnightblue" stroke="midnightblue" points="34.54,-479.44 29.83,-469.95 27.59,-480.31 34.54,-479.44"/>
</g>
<!-- Node6 -->
<g id="node6" class="node">
<title>Node6</title>
<g id="a_node6"><a target="_parent" xlink:href="https://doc.qt.io/qt-5/qbluetoothdevicediscoveryagent.html" xlink:title=" ">
<polygon fill="none" stroke="#bfbfbf" points="93,-569.21 93,-599.21 247,-599.21 247,-569.21 93,-569.21"/>
<text text-anchor="start" x="101" y="-587.21" font-family="Helvetica,sans-Serif" font-size="10.00">QBluetoothDeviceDiscovery</text>
<text text-anchor="middle" x="170" y="-576.21" font-family="Helvetica,sans-Serif" font-size="10.00">Agent</text>
</a>
</g>
</g>
<!-- Node4&#45;&gt;Node6 -->
<g id="edge6" class="edge">
<title>Node4&#45;&gt;Node6</title>
<path fill="none" stroke="midnightblue" d="M34,-479.51C40.19,-499.77 52.62,-531.25 74,-550.21 83.04,-558.23 94.11,-564.4 105.46,-569.13"/>
<polygon fill="midnightblue" stroke="midnightblue" points="37.34,-478.48 31.25,-469.82 30.61,-480.39 37.34,-478.48"/>
</g>
<!-- Node7 -->
<g id="node7" class="node">
<title>Node7</title>
<g id="a_node7"><a xlink:href="classPokitDiscoveryAgentPrivate.html" target="_top" xlink:title="The PokitDiscoveryAgentPrivate class provides private implementation for PokitDiscoveryAgent.">
<polygon fill="none" stroke="black" points="617,-553.71 617,-572.71 770,-572.71 770,-553.71 617,-553.71"/>
<text text-anchor="middle" x="693.5" y="-560.71" font-family="Helvetica,sans-Serif" font-size="10.00">PokitDiscoveryAgentPrivate</text>
</a>
</g>
</g>
<!-- Node4&#45;&gt;Node7 -->
<g id="edge8" class="edge">
<title>Node4&#45;&gt;Node7</title>
<path fill="none" stroke="midnightblue" d="M39.62,-478.62C47.49,-490.4 59.37,-504.82 74,-512.21 178.46,-564.97 482.48,-542.43 599,-553.21 604.85,-553.75 610.91,-554.34 616.99,-554.95"/>
<polygon fill="midnightblue" stroke="midnightblue" points="42.45,-476.55 34.19,-469.92 36.51,-480.25 42.45,-476.55"/>
</g>
<!-- Node9 -->
<g id="node9" class="node">
<title>Node9</title>
<g id="a_node9"><a xlink:href="classPokitDevice.html" target="_top" xlink:title="The PokitDevice class simplifies Pokit device access.">
<polygon fill="none" stroke="black" points="656,-451.71 656,-470.71 731,-470.71 731,-451.71 656,-451.71"/>
<text text-anchor="middle" x="693.5" y="-458.71" font-family="Helvetica,sans-Serif" font-size="10.00">PokitDevice</text>
</a>
</g>
</g>
<!-- Node4&#45;&gt;Node9 -->
<g id="edge12" class="edge">
<title>Node4&#45;&gt;Node9</title>
<path fill="none" stroke="midnightblue" d="M66.47,-460.27C183.22,-460.44 539.6,-460.98 655.59,-461.16"/>
<polygon fill="midnightblue" stroke="midnightblue" points="66.25,-456.77 56.25,-460.25 66.24,-463.77 66.25,-456.77"/>
</g>
<!-- Node10 -->
<g id="node10" class="node">
<title>Node10</title>
<g id="a_node10"><a xlink:href="classPokitDevicePrivate.html" target="_top" xlink:title="The PokitDevicePrivate class provides private implementation for PokitDevice.">
<polygon fill="none" stroke="black" points="1111,-267.71 1111,-286.71 1221,-286.71 1221,-267.71 1111,-267.71"/>
<text text-anchor="middle" x="1166" y="-274.71" font-family="Helvetica,sans-Serif" font-size="10.00">PokitDevicePrivate</text>
</a>
</g>
</g>
<!-- Node4&#45;&gt;Node10 -->
<g id="edge14" class="edge">
<title>Node4&#45;&gt;Node10</title>
<path fill="none" stroke="midnightblue" d="M63.29,-472.82C66.87,-473.78 70.48,-474.61 74,-475.21 410.47,-532.97 500.62,-486.1 842,-489.21 950.15,-490.2 998.81,-541.55 1085,-476.21 1148.8,-427.85 1161.86,-320.36 1164.41,-287.17"/>
<polygon fill="midnightblue" stroke="midnightblue" points="64,-469.38 53.41,-469.84 61.98,-476.08 64,-469.38"/>
</g>
<!-- Node11 -->
<g id="node11" class="node">
<title>Node11</title>
<g id="a_node11"><a target="_parent" xlink:href="https://doc.qt.io/qt-5/qlowenergycontroller.html" xlink:title=" ">
<polygon fill="none" stroke="#bfbfbf" points="107.5,-412.71 107.5,-431.71 232.5,-431.71 232.5,-412.71 107.5,-412.71"/>
<text text-anchor="middle" x="170" y="-419.71" font-family="Helvetica,sans-Serif" font-size="10.00">QLowEnergyController</text>
</a>
</g>
</g>
<!-- Node4&#45;&gt;Node11 -->
<g id="edge16" class="edge">
<title>Node4&#45;&gt;Node11</title>
<path fill="none" stroke="midnightblue" d="M65.9,-448.55C68.64,-447.74 71.36,-446.96 74,-446.21 92.01,-441.14 112.08,-435.99 129.12,-431.78"/>
<polygon fill="midnightblue" stroke="midnightblue" points="64.61,-445.29 56.06,-451.53 66.64,-451.99 64.61,-445.29"/>
</g>
<!-- Node13 -->
<g id="node13" class="node">
<title>Node13</title>
<g id="a_node13"><a xlink:href="classAbstractPokitService.html" target="_top" xlink:title="The AbstractPokitService class provides a common base for Pokit services classes.">
<polygon fill="none" stroke="black" points="634.5,-231.71 634.5,-250.71 752.5,-250.71 752.5,-231.71 634.5,-231.71"/>
<text text-anchor="middle" x="693.5" y="-238.71" font-family="Helvetica,sans-Serif" font-size="10.00">AbstractPokitService</text>
</a>
</g>
</g>
<!-- Node4&#45;&gt;Node13 -->
<g id="edge19" class="edge">
<title>Node4&#45;&gt;Node13</title>
<path fill="none" stroke="midnightblue" d="M42.88,-442.78C54.66,-429.4 72.82,-411.8 93,-403.21 300.55,-314.91 400.93,-472.13 599,-364.21 647.29,-337.9 678.2,-274.86 688.6,-250.78"/>
<polygon fill="midnightblue" stroke="midnightblue" points="40.19,-440.55 36.42,-450.45 45.54,-445.06 40.19,-440.55"/>
</g>
<!-- Node14 -->
<g id="node14" class="node">
<title>Node14</title>
<g id="a_node14"><a xlink:href="classAbstractPokitServicePrivate.html" target="_top" xlink:title="The AbstractPokitServicePrivate class provides private implementation for AbstractPokitService.">
<polygon fill="none" stroke="black" points="344,-241.71 344,-260.71 496,-260.71 496,-241.71 344,-241.71"/>
<text text-anchor="middle" x="420" y="-248.71" font-family="Helvetica,sans-Serif" font-size="10.00">AbstractPokitServicePrivate</text>
</a>
</g>
</g>
<!-- Node4&#45;&gt;Node14 -->
<g id="edge21" class="edge">
<title>Node4&#45;&gt;Node14</title>
<path fill="none" stroke="midnightblue" d="M30.36,-440.27C33.93,-404.7 46.83,-330.63 93,-294.21 167.52,-235.43 282.74,-234.86 354.37,-241.69"/>
<polygon fill="midnightblue" stroke="midnightblue" points="26.86,-440.11 29.49,-450.37 33.83,-440.7 26.86,-440.11"/>
</g>
<!-- Node15 -->
<g id="node15" class="node">
<title>Node15</title>
<g id="a_node15"><a target="_parent" xlink:href="https://doc.qt.io/qt-5/qlowenergyservice.html" xlink:title=" ">
<polygon fill="none" stroke="#bfbfbf" points="113.5,-303.71 113.5,-322.71 226.5,-322.71 226.5,-303.71 113.5,-303.71"/>
<text text-anchor="middle" x="170" y="-310.71" font-family="Helvetica,sans-Serif" font-size="10.00">QLowEnergyService</text>
</a>
</g>
</g>
<!-- Node4&#45;&gt;Node15 -->
<g id="edge24" class="edge">
<title>Node4&#45;&gt;Node15</title>
<path fill="none" stroke="midnightblue" d="M35.08,-440.81C41.99,-421.18 54.87,-390.87 74,-370.21 94.13,-348.48 124.42,-332.27 145.36,-322.8"/>
<polygon fill="midnightblue" stroke="midnightblue" points="31.69,-439.89 31.85,-450.49 38.33,-442.11 31.69,-439.89"/>
</g>
<!-- Node5 -->
<g id="node5" class="node">
<title>Node5</title>
<g id="a_node5"><a xlink:href="classPokitDiscoveryAgent.html" target="_top" xlink:title="The PokitDiscoveryAgent class discovers nearby Pokit devices.">
<polygon fill="none" stroke="black" points="360.5,-584.71 360.5,-603.71 479.5,-603.71 479.5,-584.71 360.5,-584.71"/>
<text text-anchor="middle" x="420" y="-591.71" font-family="Helvetica,sans-Serif" font-size="10.00">PokitDiscoveryAgent</text>
</a>
</g>
</g>
<!-- Node5&#45;&gt;Node3 -->
<g id="edge4" class="edge">
<title>Node5&#45;&gt;Node3</title>
<path fill="none" stroke="#9a32cd" stroke-dasharray="5,2" d="M489.61,-603.56C536.31,-609.93 597.16,-618.22 640,-624.06"/>
<polygon fill="#9a32cd" stroke="#9a32cd" points="489.96,-600.08 479.58,-602.19 489.01,-607.01 489.96,-600.08"/>
<text text-anchor="middle" x="556.5" y="-621.21" font-family="Helvetica,sans-Serif" font-size="10.00"> discoveryAgent</text>
</g>
<!-- Node5&#45;&gt;Node7 -->
<g id="edge9" class="edge">
<title>Node5&#45;&gt;Node7</title>
<path fill="none" stroke="#9a32cd" stroke-dasharray="5,2" d="M451.58,-580.82C469.41,-573.74 492.54,-565.8 514,-562.21 547.47,-556.61 584.96,-555.99 616.92,-557.11"/>
<polygon fill="#9a32cd" stroke="#9a32cd" points="450.2,-577.6 442.27,-584.62 452.85,-584.08 450.2,-577.6"/>
<text text-anchor="middle" x="556.5" y="-565.21" font-family="Helvetica,sans-Serif" font-size="10.00"> q_ptr</text>
</g>
<!-- Node6&#45;&gt;Node5 -->
<g id="edge5" class="edge">
<title>Node6&#45;&gt;Node5</title>
<path fill="none" stroke="midnightblue" d="M257.5,-587.7C291.52,-589.07 329.7,-590.61 360.38,-591.85"/>
<polygon fill="midnightblue" stroke="midnightblue" points="257.23,-584.19 247.09,-587.28 256.94,-591.18 257.23,-584.19"/>
</g>
<!-- Node7&#45;&gt;Node5 -->
<g id="edge7" class="edge">
<title>Node7&#45;&gt;Node5</title>
<path fill="none" stroke="#9a32cd" stroke-dasharray="5,2" d="M609.48,-573.96C605.94,-574.39 602.44,-574.81 599,-575.21 559.18,-579.89 514.3,-584.68 479.56,-588.28"/>
<polygon fill="#9a32cd" stroke="#9a32cd" points="610.03,-577.42 619.53,-572.73 609.18,-570.47 610.03,-577.42"/>
<text text-anchor="middle" x="556.5" y="-588.21" font-family="Helvetica,sans-Serif" font-size="10.00"> d_ptr</text>
</g>
<!-- Node8 -->
<g id="node8" class="node">
<title>Node8</title>
<g id="a_node8"><a target="_parent" xlink:href="https://doc.qt.io/qt-5/qstring.html" xlink:title=" ">
<polygon fill="none" stroke="#bfbfbf" points="393.5,-685.71 393.5,-704.71 446.5,-704.71 446.5,-685.71 393.5,-685.71"/>
<text text-anchor="middle" x="420" y="-692.71" font-family="Helvetica,sans-Serif" font-size="10.00">QString</text>
</a>
</g>
</g>
<!-- Node8&#45;&gt;Node3 -->
<g id="edge10" class="edge">
<title>Node8&#45;&gt;Node3</title>
<path fill="none" stroke="#9a32cd" stroke-dasharray="5,2" d="M456.62,-697.62C494.28,-698.59 554.3,-695.52 599,-671.21 609.8,-665.34 606.55,-656.68 617,-650.21 623.9,-645.94 631.71,-642.63 639.62,-640.06"/>
<polygon fill="#9a32cd" stroke="#9a32cd" points="456.74,-694.12 446.62,-697.26 456.48,-701.12 456.74,-694.12"/>
<text text-anchor="middle" x="556.5" y="-697.21" font-family="Helvetica,sans-Serif" font-size="10.00"> deviceToScanFor</text>
</g>
<!-- Node9&#45;&gt;Node2 -->
<g id="edge11" class="edge">
<title>Node9&#45;&gt;Node2</title>
<path fill="none" stroke="#9a32cd" stroke-dasharray="5,2" d="M722.82,-475.2C765.81,-496.44 846.47,-536.28 883.5,-554.58"/>
<polygon fill="#9a32cd" stroke="#9a32cd" points="724.26,-472.01 713.74,-470.72 721.16,-478.28 724.26,-472.01"/>
<text text-anchor="middle" x="806" y="-528.21" font-family="Helvetica,sans-Serif" font-size="10.00"> device</text>
</g>
<!-- Node9&#45;&gt;Node10 -->
<g id="edge48" class="edge">
<title>Node9&#45;&gt;Node10</title>
<path fill="none" stroke="#9a32cd" stroke-dasharray="5,2" d="M741.07,-465.84C832.15,-473.94 1029.8,-486.61 1085,-450.21 1143.84,-411.41 1160.15,-317.41 1163.97,-286.93"/>
<polygon fill="#9a32cd" stroke="#9a32cd" points="741.3,-462.34 731.02,-464.92 740.67,-469.32 741.3,-462.34"/>
<text text-anchor="middle" x="904" y="-478.21" font-family="Helvetica,sans-Serif" font-size="10.00"> q_ptr</text>
</g>
<!-- Node10&#45;&gt;Node9 -->
<g id="edge13" class="edge">
<title>Node10&#45;&gt;Node9</title>
<path fill="none" stroke="#9a32cd" stroke-dasharray="5,2" d="M1156.59,-295.96C1144.5,-320.63 1119.75,-363.42 1085,-385.21 1038.44,-414.41 895.93,-420.62 842,-431.21 804.18,-438.64 760.97,-447.47 731.15,-453.62"/>
<polygon fill="#9a32cd" stroke="#9a32cd" points="1159.77,-297.43 1160.87,-286.9 1153.44,-294.45 1159.77,-297.43"/>
<text text-anchor="middle" x="904" y="-434.21" font-family="Helvetica,sans-Serif" font-size="10.00"> d_ptr</text>
</g>
<!-- Node11&#45;&gt;Node10 -->
<g id="edge15" class="edge">
<title>Node11&#45;&gt;Node10</title>
<path fill="none" stroke="#9a32cd" stroke-dasharray="5,2" d="M243.02,-419.08C308.92,-416.01 409.09,-410.84 496,-404.21 696.98,-388.9 1056.93,-350.62 1085,-339.21 1114.63,-327.17 1142.56,-300.91 1156.24,-286.74"/>
<polygon fill="#9a32cd" stroke="#9a32cd" points="242.58,-415.6 232.75,-419.55 242.9,-422.59 242.58,-415.6"/>
<text text-anchor="middle" x="693.5" y="-397.21" font-family="Helvetica,sans-Serif" font-size="10.00"> controller</text>
</g>
<!-- Node11&#45;&gt;Node14 -->
<g id="edge22" class="edge">
<title>Node11&#45;&gt;Node14</title>
<path fill="none" stroke="#9a32cd" stroke-dasharray="5,2" d="M193.29,-406.84C243.47,-372.24 364.13,-289.05 405.11,-260.79"/>
<polygon fill="#9a32cd" stroke="#9a32cd" points="191.29,-403.97 185.04,-412.53 195.26,-409.73 191.29,-403.97"/>
<text text-anchor="middle" x="295.5" y="-360.21" font-family="Helvetica,sans-Serif" font-size="10.00"> controller</text>
</g>
<!-- Node12 -->
<g id="node12" class="node">
<title>Node12</title>
<g id="a_node12"><a xlink:href="classCalibrationService.html" target="_top" xlink:title="The CalibrationService class accesses the Calibrartion service of Pokit devices.">
<polygon fill="none" stroke="black" points="851,-72.71 851,-91.71 957,-91.71 957,-72.71 851,-72.71"/>
<text text-anchor="middle" x="904" y="-79.71" font-family="Helvetica,sans-Serif" font-size="10.00">CalibrationService</text>
</a>
</g>
</g>
<!-- Node12&#45;&gt;Node10 -->
<g id="edge17" class="edge">
<title>Node12&#45;&gt;Node10</title>
<path fill="none" stroke="#9a32cd" stroke-dasharray="5,2" d="M956.69,-94C1009.41,-106.07 1083.69,-123.2 1085,-124.21 1134.52,-162.58 1156.51,-240.28 1162.91,-267.51"/>
<polygon fill="#9a32cd" stroke="#9a32cd" points="957.32,-90.56 946.79,-91.74 955.76,-97.38 957.32,-90.56"/>
<text text-anchor="middle" x="1034.5" y="-127.21" font-family="Helvetica,sans-Serif" font-size="10.00"> calibration</text>
</g>
<!-- Node13&#45;&gt;Node12 -->
<g id="edge18" class="edge">
<title>Node13&#45;&gt;Node12</title>
<path fill="none" stroke="midnightblue" d="M711.06,-224.4C737.24,-198.41 790.51,-147.87 842,-113.21 854.32,-104.92 869.15,-97.33 881.1,-91.74"/>
<polygon fill="midnightblue" stroke="midnightblue" points="708.43,-222.08 703.84,-231.63 713.38,-227.03 708.43,-222.08"/>
</g>
<!-- Node13&#45;&gt;Node14 -->
<g id="edge27" class="edge">
<title>Node13&#45;&gt;Node14</title>
<path fill="none" stroke="#9a32cd" stroke-dasharray="5,2" d="M624.4,-231.51C591.05,-228.17 550.35,-226.16 514,-230.21 494.1,-232.43 472.23,-237.24 454.7,-241.7"/>
<polygon fill="#9a32cd" stroke="#9a32cd" points="624.18,-235.01 634.49,-232.59 624.92,-228.05 624.18,-235.01"/>
<text text-anchor="middle" x="556.5" y="-233.21" font-family="Helvetica,sans-Serif" font-size="10.00"> q_ptr</text>
</g>
<!-- Node18 -->
<g id="node18" class="node">
<title>Node18</title>
<g id="a_node18"><a xlink:href="classDataLoggerService.html" target="_top" xlink:title="The DataLoggerService class accesses the Pokit Status service of Pokit devices.">
<polygon fill="none" stroke="black" points="849.5,-323.71 849.5,-342.71 958.5,-342.71 958.5,-323.71 849.5,-323.71"/>
<text text-anchor="middle" x="904" y="-330.71" font-family="Helvetica,sans-Serif" font-size="10.00">DataLoggerService</text>
</a>
</g>
</g>
<!-- Node13&#45;&gt;Node18 -->
<g id="edge30" class="edge">
<title>Node13&#45;&gt;Node18</title>
<path fill="none" stroke="midnightblue" d="M720.88,-255.85C749.95,-271.61 798.39,-296.75 842,-314.21 850.65,-317.67 860.19,-320.91 869.11,-323.7"/>
<polygon fill="midnightblue" stroke="midnightblue" points="722.25,-252.61 711.8,-250.89 718.9,-258.76 722.25,-252.61"/>
</g>
<!-- Node19 -->
<g id="node19" class="node">
<title>Node19</title>
<g id="a_node19"><a xlink:href="classDeviceInfoService.html" target="_top" xlink:title="The DeviceInfoService class accesses the Device Info service of Pokit devices.">
<polygon fill="none" stroke="black" points="851.5,-171.71 851.5,-190.71 956.5,-190.71 956.5,-171.71 851.5,-171.71"/>
<text text-anchor="middle" x="904" y="-178.71" font-family="Helvetica,sans-Serif" font-size="10.00">DeviceInfoService</text>
</a>
</g>
</g>
<!-- Node13&#45;&gt;Node19 -->
<g id="edge33" class="edge">
<title>Node13&#45;&gt;Node19</title>
<path fill="none" stroke="midnightblue" d="M737.35,-228.88C776.6,-217.59 833.89,-201.1 869.77,-190.77"/>
<polygon fill="midnightblue" stroke="midnightblue" points="736.18,-225.58 727.54,-231.7 738.12,-232.3 736.18,-225.58"/>
</g>
<!-- Node20 -->
<g id="node20" class="node">
<title>Node20</title>
<g id="a_node20"><a xlink:href="classDsoService.html" target="_top" xlink:title="The DsoService class accesses the Pokit Status service of Pokit devices.">
<polygon fill="none" stroke="black" points="868.5,-209.71 868.5,-228.71 939.5,-228.71 939.5,-209.71 868.5,-209.71"/>
<text text-anchor="middle" x="904" y="-216.71" font-family="Helvetica,sans-Serif" font-size="10.00">DsoService</text>
</a>
</g>
</g>
<!-- Node13&#45;&gt;Node20 -->
<g id="edge36" class="edge">
<title>Node13&#45;&gt;Node20</title>
<path fill="none" stroke="midnightblue" d="M762.83,-234C798.15,-230.28 839.72,-225.89 868.37,-222.87"/>
<polygon fill="midnightblue" stroke="midnightblue" points="762.16,-230.55 752.58,-235.08 762.89,-237.52 762.16,-230.55"/>
</g>
<!-- Node21 -->
<g id="node21" class="node">
<title>Node21</title>
<g id="a_node21"><a xlink:href="classGenericAccessService.html" target="_top" xlink:title="The GenericAccessService class accesses the Generic Access service of Pokit devices.">
<polygon fill="none" stroke="black" points="842,-122.71 842,-141.71 966,-141.71 966,-122.71 842,-122.71"/>
<text text-anchor="middle" x="904" y="-129.71" font-family="Helvetica,sans-Serif" font-size="10.00">GenericAccessService</text>
</a>
</g>
</g>
<!-- Node13&#45;&gt;Node21 -->
<g id="edge39" class="edge">
<title>Node13&#45;&gt;Node21</title>
<path fill="none" stroke="midnightblue" d="M720.93,-226.7C750.34,-210.64 799.33,-184.12 842,-162.21 855.65,-155.2 871.17,-147.58 883.13,-141.77"/>
<polygon fill="midnightblue" stroke="midnightblue" points="719.2,-223.66 712.11,-231.53 722.56,-229.8 719.2,-223.66"/>
</g>
<!-- Node22 -->
<g id="node22" class="node">
<title>Node22</title>
<g id="a_node22"><a xlink:href="classMultimeterService.html" target="_top" xlink:title="The MultimeterService class accesses the Pokit Status service of Pokit devices.">
<polygon fill="none" stroke="black" points="850.5,-247.71 850.5,-266.71 957.5,-266.71 957.5,-247.71 850.5,-247.71"/>
<text text-anchor="middle" x="904" y="-254.71" font-family="Helvetica,sans-Serif" font-size="10.00">MultimeterService</text>
</a>
</g>
</g>
<!-- Node13&#45;&gt;Node22 -->
<g id="edge42" class="edge">
<title>Node13&#45;&gt;Node22</title>
<path fill="none" stroke="midnightblue" d="M762.84,-246.46C791.25,-248.64 823.7,-251.13 850.22,-253.16"/>
<polygon fill="midnightblue" stroke="midnightblue" points="762.82,-242.94 752.58,-245.67 762.28,-249.92 762.82,-242.94"/>
</g>
<!-- Node23 -->
<g id="node23" class="node">
<title>Node23</title>
<g id="a_node23"><a xlink:href="classStatusService.html" target="_top" xlink:title="The StatusService class accesses the Pokit Status service of Pokit devices.">
<polygon fill="none" stroke="black" points="862.5,-285.71 862.5,-304.71 945.5,-304.71 945.5,-285.71 862.5,-285.71"/>
<text text-anchor="middle" x="904" y="-292.71" font-family="Helvetica,sans-Serif" font-size="10.00">StatusService</text>
</a>
</g>
</g>
<!-- Node13&#45;&gt;Node23 -->
<g id="edge45" class="edge">
<title>Node13&#45;&gt;Node23</title>
<path fill="none" stroke="midnightblue" d="M741.05,-253.27C778.82,-263.05 831.35,-276.66 866.22,-285.69"/>
<polygon fill="midnightblue" stroke="midnightblue" points="741.85,-249.86 731.3,-250.74 740.1,-256.64 741.85,-249.86"/>
</g>
<!-- Node14&#45;&gt;Node13 -->
<g id="edge20" class="edge">
<title>Node14&#45;&gt;Node13</title>
<path fill="none" stroke="#9a32cd" stroke-dasharray="5,2" d="M506.41,-248.07C548.06,-246.53 597.07,-244.73 634.34,-243.35"/>
<polygon fill="#9a32cd" stroke="#9a32cd" points="506.13,-244.57 496.27,-248.44 506.39,-251.57 506.13,-244.57"/>
<text text-anchor="middle" x="556.5" y="-251.21" font-family="Helvetica,sans-Serif" font-size="10.00"> d_ptr</text>
</g>
<!-- Node15&#45;&gt;Node14 -->
<g id="edge23" class="edge">
<title>Node15&#45;&gt;Node14</title>
<path fill="none" stroke="#9a32cd" stroke-dasharray="5,2" d="M219.19,-301.17C266.37,-289.37 337.31,-271.63 380.75,-260.77"/>
<polygon fill="#9a32cd" stroke="#9a32cd" points="218.06,-297.84 209.21,-303.66 219.76,-304.63 218.06,-297.84"/>
<text text-anchor="middle" x="295.5" y="-293.21" font-family="Helvetica,sans-Serif" font-size="10.00"> service</text>
</g>
<!-- Node16 -->
<g id="node16" class="node">
<title>Node16</title>
<g id="a_node16"><a target="_parent" xlink:href="https://doc.qt.io/qt-5/qbluetoothuuid.html" xlink:title=" ">
<polygon fill="none" stroke="#bfbfbf" points="123,-172.71 123,-191.71 217,-191.71 217,-172.71 123,-172.71"/>
<text text-anchor="middle" x="170" y="-179.71" font-family="Helvetica,sans-Serif" font-size="10.00">QBluetoothUuid</text>
</a>
</g>
</g>
<!-- Node16&#45;&gt;Node12 -->
<g id="edge28" class="edge">
<title>Node16&#45;&gt;Node12</title>
<path fill="none" stroke="#9a32cd" stroke-dasharray="5,2" d="M209.09,-169.56C226.06,-164.26 246.39,-158.38 265,-154.21 299.66,-146.46 308.78,-146.77 344,-142.21 530.09,-118.1 751.94,-96.37 850.89,-87.04"/>
<polygon fill="#9a32cd" stroke="#9a32cd" points="208,-166.23 199.53,-172.59 210.12,-172.9 208,-166.23"/>
<text text-anchor="middle" x="556.5" y="-125.21" font-family="Helvetica,sans-Serif" font-size="10.00"> serviceUuid</text>
</g>
<!-- Node16&#45;&gt;Node14 -->
<g id="edge25" class="edge">
<title>Node16&#45;&gt;Node14</title>
<path fill="none" stroke="#9a32cd" stroke-dasharray="5,2" d="M227.38,-192.55C257,-198.48 293.75,-206.66 326,-216.21 350.48,-223.46 377.74,-234.03 396.38,-241.65"/>
<polygon fill="#9a32cd" stroke="#9a32cd" points="227.71,-189.04 217.22,-190.54 226.35,-195.91 227.71,-189.04"/>
<text text-anchor="middle" x="295.5" y="-219.21" font-family="Helvetica,sans-Serif" font-size="10.00"> serviceUuid</text>
</g>
<!-- Node16&#45;&gt;Node18 -->
<g id="edge31" class="edge">
<title>Node16&#45;&gt;Node18</title>
<path fill="none" stroke="#9a32cd" stroke-dasharray="5,2" d="M182.26,-200.68C201.97,-232.39 242.75,-295.05 265,-308.21 362.92,-366.12 713.94,-347.24 849.27,-337.48"/>
<polygon fill="#9a32cd" stroke="#9a32cd" points="185.09,-198.6 176.86,-191.93 179.13,-202.28 185.09,-198.6"/>
<text text-anchor="middle" x="556.5" y="-352.21" font-family="Helvetica,sans-Serif" font-size="10.00"> serviceUuid</text>
</g>
<!-- Node16&#45;&gt;Node19 -->
<g id="edge34" class="edge">
<title>Node16&#45;&gt;Node19</title>
<path fill="none" stroke="#9a32cd" stroke-dasharray="5,2" d="M227.49,-174.86C239.83,-173.46 252.84,-172.14 265,-171.21 413.07,-159.89 450.57,-157.58 599,-162.21 687.8,-164.98 790.97,-172.3 851.41,-177"/>
<polygon fill="#9a32cd" stroke="#9a32cd" points="226.83,-171.41 217.31,-176.04 227.64,-178.36 226.83,-171.41"/>
<text text-anchor="middle" x="556.5" y="-165.21" font-family="Helvetica,sans-Serif" font-size="10.00"> serviceUuid</text>
</g>
<!-- Node16&#45;&gt;Node20 -->
<g id="edge37" class="edge">
<title>Node16&#45;&gt;Node20</title>
<path fill="none" stroke="#9a32cd" stroke-dasharray="5,2" d="M227.46,-185.07C371.88,-192.37 751.57,-211.56 868.33,-217.46"/>
<polygon fill="#9a32cd" stroke="#9a32cd" points="227.23,-181.55 217.07,-184.54 226.88,-188.54 227.23,-181.55"/>
<text text-anchor="middle" x="556.5" y="-207.21" font-family="Helvetica,sans-Serif" font-size="10.00"> serviceUuid</text>
</g>
<!-- Node16&#45;&gt;Node21 -->
<g id="edge40" class="edge">
<title>Node16&#45;&gt;Node21</title>
<path fill="none" stroke="#9a32cd" stroke-dasharray="5,2" d="M223.09,-170.61C236.68,-167.88 251.34,-165.19 265,-163.21 299.88,-158.16 308.85,-158.91 344,-156.21 419.49,-150.43 438.38,-148.92 514,-145.21 629.92,-139.53 765.39,-135.62 842,-133.66"/>
<polygon fill="#9a32cd" stroke="#9a32cd" points="222.03,-167.26 212.94,-172.7 223.44,-174.11 222.03,-167.26"/>
<text text-anchor="middle" x="556.5" y="-148.21" font-family="Helvetica,sans-Serif" font-size="10.00"> serviceUuid</text>
</g>
<!-- Node16&#45;&gt;Node22 -->
<g id="edge43" class="edge">
<title>Node16&#45;&gt;Node22</title>
<path fill="none" stroke="#9a32cd" stroke-dasharray="5,2" d="M180.97,-200.63C195.61,-225.49 225.53,-268.68 265,-286.21 369.12,-332.45 717.2,-285.77 850.47,-265.55"/>
<polygon fill="#9a32cd" stroke="#9a32cd" points="183.94,-198.77 175.96,-191.8 177.85,-202.23 183.94,-198.77"/>
<text text-anchor="middle" x="556.5" y="-306.21" font-family="Helvetica,sans-Serif" font-size="10.00"> serviceUuid</text>
</g>
<!-- Node17 -->
<g id="node17" class="node">
<title>Node17</title>
<g id="a_node17"><a target="_parent" xlink:href="https://doc.qt.io/qt-5/quuid.html" xlink:title=" ">
<polygon fill="none" stroke="#bfbfbf" points="4.5,-172.71 4.5,-191.71 51.5,-191.71 51.5,-172.71 4.5,-172.71"/>
<text text-anchor="middle" x="28" y="-179.71" font-family="Helvetica,sans-Serif" font-size="10.00">QUuid</text>
</a>
</g>
</g>
<!-- Node17&#45;&gt;Node16 -->
<g id="edge26" class="edge">
<title>Node17&#45;&gt;Node16</title>
<path fill="none" stroke="midnightblue" d="M61.92,-182.21C80.13,-182.21 103.03,-182.21 122.98,-182.21"/>
<polygon fill="midnightblue" stroke="midnightblue" points="61.81,-178.71 51.81,-182.21 61.8,-185.71 61.81,-178.71"/>
</g>
<!-- Node18&#45;&gt;Node1 -->
<g id="edge49" class="edge">
<title>Node18&#45;&gt;Node1</title>
<path fill="none" stroke="#9a32cd" stroke-dasharray="5,2" d="M923.43,-349.58C974.02,-394.53 1113.98,-518.88 1154.11,-554.54"/>
<polygon fill="#9a32cd" stroke="#9a32cd" points="925.64,-346.87 915.84,-342.84 920.99,-352.1 925.64,-346.87"/>
<text text-anchor="middle" x="1034.5" y="-493.21" font-family="Helvetica,sans-Serif" font-size="10.00"> service</text>
</g>
<!-- Node18&#45;&gt;Node10 -->
<g id="edge29" class="edge">
<title>Node18&#45;&gt;Node10</title>
<path fill="none" stroke="#9a32cd" stroke-dasharray="5,2" d="M968.68,-326.18C1003.37,-321.64 1046.89,-314.76 1085,-305.21 1104.27,-300.38 1125.46,-292.86 1141.19,-286.83"/>
<polygon fill="#9a32cd" stroke="#9a32cd" points="968.15,-322.72 958.67,-327.46 969.04,-329.67 968.15,-322.72"/>
<text text-anchor="middle" x="1034.5" y="-327.21" font-family="Helvetica,sans-Serif" font-size="10.00"> dataLogger</text>
</g>
<!-- Node19&#45;&gt;Node10 -->
<g id="edge32" class="edge">
<title>Node19&#45;&gt;Node10</title>
<path fill="none" stroke="#9a32cd" stroke-dasharray="5,2" d="M966.93,-185.13C1002.7,-189.18 1047.84,-197.43 1085,-214.21 1114,-227.31 1141.77,-253.13 1155.7,-267.31"/>
<polygon fill="#9a32cd" stroke="#9a32cd" points="966.93,-181.61 956.62,-184.04 966.2,-188.57 966.93,-181.61"/>
<text text-anchor="middle" x="1034.5" y="-217.21" font-family="Helvetica,sans-Serif" font-size="10.00"> deviceInfo</text>
</g>
<!-- Node20&#45;&gt;Node10 -->
<g id="edge35" class="edge">
<title>Node20&#45;&gt;Node10</title>
<path fill="none" stroke="#9a32cd" stroke-dasharray="5,2" d="M949.98,-223.62C986.71,-227.84 1039.76,-235.34 1085,-247.21 1105.23,-252.52 1127.44,-261.08 1143.32,-267.7"/>
<polygon fill="#9a32cd" stroke="#9a32cd" points="949.93,-220.1 939.6,-222.47 949.15,-227.05 949.93,-220.1"/>
<text text-anchor="middle" x="1034.5" y="-250.21" font-family="Helvetica,sans-Serif" font-size="10.00"> dso</text>
</g>
<!-- Node21&#45;&gt;Node10 -->
<g id="edge38" class="edge">
<title>Node21&#45;&gt;Node10</title>
<path fill="none" stroke="#9a32cd" stroke-dasharray="5,2" d="M976.28,-137.11C1011.25,-142.22 1052.7,-152.53 1085,-173.21 1123.18,-197.66 1150.34,-246.94 1160.55,-267.68"/>
<polygon fill="#9a32cd" stroke="#9a32cd" points="976.5,-133.61 966.13,-135.75 975.57,-140.55 976.5,-133.61"/>
<text text-anchor="middle" x="1034.5" y="-176.21" font-family="Helvetica,sans-Serif" font-size="10.00"> genericAccess</text>
</g>
<!-- Node22&#45;&gt;Node10 -->
<g id="edge41" class="edge">
<title>Node22&#45;&gt;Node10</title>
<path fill="none" stroke="#9a32cd" stroke-dasharray="5,2" d="M968.24,-260.29C1002.77,-262.16 1046.27,-264.85 1085,-268.21 1093.35,-268.94 1102.19,-269.82 1110.82,-270.74"/>
<polygon fill="#9a32cd" stroke="#9a32cd" points="968,-256.77 957.82,-259.73 967.62,-263.76 968,-256.77"/>
<text text-anchor="middle" x="1034.5" y="-271.21" font-family="Helvetica,sans-Serif" font-size="10.00"> multimeter</text>
</g>
<!-- Node23&#45;&gt;Node10 -->
<g id="edge44" class="edge">
<title>Node23&#45;&gt;Node10</title>
<path fill="none" stroke="#9a32cd" stroke-dasharray="5,2" d="M955.66,-291.7C1000.25,-288.62 1065,-284.14 1110.65,-280.97"/>
<polygon fill="#9a32cd" stroke="#9a32cd" points="955.36,-288.22 945.62,-292.4 955.84,-295.2 955.36,-288.22"/>
<text text-anchor="middle" x="1034.5" y="-293.21" font-family="Helvetica,sans-Serif" font-size="10.00"> status</text>
</g>
<!-- Node24 -->
<g id="node24" class="node">
<title>Node24</title>
<g id="a_node24"><a target="_parent" xlink:href="https://doc.qt.io/qt-5/qmutex.html" xlink:title=" ">
<polygon fill="none" stroke="#bfbfbf" points="876.5,-11.71 876.5,-30.71 931.5,-30.71 931.5,-11.71 876.5,-11.71"/>
<text text-anchor="middle" x="904" y="-18.71" font-family="Helvetica,sans-Serif" font-size="10.00">QMutex</text>
</a>
</g>
</g>
<!-- Node24&#45;&gt;Node10 -->
<g id="edge46" class="edge">
<title>Node24&#45;&gt;Node10</title>
<path fill="none" stroke="#9a32cd" stroke-dasharray="5,2" d="M941.23,-9.66C980.59,0.49 1043.42,9.35 1085,-21.21 1127.02,-52.1 1156.75,-224.93 1163.53,-267.66"/>
<polygon fill="#9a32cd" stroke="#9a32cd" points="940.23,-6.3 931.51,-12.31 942.08,-13.05 940.23,-6.3"/>
<text text-anchor="middle" x="1034.5" y="-90.21" font-family="Helvetica,sans-Serif" font-size="10.00"> calibrationMutex</text>
<text text-anchor="middle" x="1034.5" y="-79.21" font-family="Helvetica,sans-Serif" font-size="10.00">dataLoggerMutex</text>
<text text-anchor="middle" x="1034.5" y="-68.21" font-family="Helvetica,sans-Serif" font-size="10.00">deviceInfoMutex</text>
<text text-anchor="middle" x="1034.5" y="-57.21" font-family="Helvetica,sans-Serif" font-size="10.00">dsoMutex</text>
<text text-anchor="middle" x="1034.5" y="-46.21" font-family="Helvetica,sans-Serif" font-size="10.00">genericAccessMutex</text>
<text text-anchor="middle" x="1034.5" y="-35.21" font-family="Helvetica,sans-Serif" font-size="10.00">multimeterMutex</text>
<text text-anchor="middle" x="1034.5" y="-24.21" font-family="Helvetica,sans-Serif" font-size="10.00">statusMutex</text>
</g>
<!-- Node25 -->
<g id="node25" class="node">
<title>Node25</title>
<g id="a_node25"><a xlink:title=" ">
<polygon fill="none" stroke="#bfbfbf" points="653,-9.71 653,-28.71 734,-28.71 734,-9.71 653,-9.71"/>
<text text-anchor="middle" x="693.5" y="-16.71" font-family="Helvetica,sans-Serif" font-size="10.00">QBasicMutex</text>
</a>
</g>
</g>
<!-- Node25&#45;&gt;Node24 -->
<g id="edge47" class="edge">
<title>Node25&#45;&gt;Node24</title>
<path fill="none" stroke="midnightblue" d="M744.38,-19.69C785.81,-20.09 843.16,-20.64 876.34,-20.96"/>
<polygon fill="midnightblue" stroke="midnightblue" points="744.24,-16.19 734.21,-19.59 744.17,-23.19 744.24,-16.19"/>
</g>
<!-- Node26 -->
<g id="node26" class="node">
<title>Node26</title>
<g id="a_node26"><a xlink:href="structDataLoggerService_1_1Metadata.html" target="_top" xlink:title="Attributes included in the Metadata characterstic.">
<polygon fill="none" stroke="black" points="846.5,-645.21 846.5,-675.21 961.5,-675.21 961.5,-645.21 846.5,-645.21"/>
<text text-anchor="start" x="854.5" y="-663.21" font-family="Helvetica,sans-Serif" font-size="10.00">DataLoggerService::</text>
<text text-anchor="middle" x="904" y="-652.21" font-family="Helvetica,sans-Serif" font-size="10.00">Metadata</text>
</a>
</g>
</g>
<!-- Node26&#45;&gt;Node1 -->
<g id="edge50" class="edge">
<title>Node26&#45;&gt;Node1</title>
<path fill="none" stroke="#9a32cd" stroke-dasharray="5,2" d="M955.46,-641.58C1010.42,-621.29 1096.19,-589.62 1138.94,-573.83"/>
<polygon fill="#9a32cd" stroke="#9a32cd" points="954.08,-638.36 945.91,-645.11 956.5,-644.93 954.08,-638.36"/>
<text text-anchor="middle" x="1034.5" y="-632.21" font-family="Helvetica,sans-Serif" font-size="10.00"> metadata</text>
</g>
<!-- Node27 -->
<g id="node27" class="node">
<title>Node27</title>
<g id="a_node27"><a xlink:href="unionDataLoggerService_1_1Range.html" target="_top" xlink:title="Values supported by the Range attribute of the Settings and Metadata characteristics.">
<polygon fill="none" stroke="black" points="636,-660.21 636,-690.21 751,-690.21 751,-660.21 636,-660.21"/>
<text text-anchor="start" x="644" y="-678.21" font-family="Helvetica,sans-Serif" font-size="10.00">DataLoggerService::</text>
<text text-anchor="middle" x="693.5" y="-667.21" font-family="Helvetica,sans-Serif" font-size="10.00">Range</text>
</a>
</g>
</g>
<!-- Node27&#45;&gt;Node26 -->
<g id="edge51" class="edge">
<title>Node27&#45;&gt;Node26</title>
<path fill="none" stroke="#9a32cd" stroke-dasharray="5,2" d="M761.47,-670.39C788.82,-668.43 820.12,-666.17 846.31,-664.29"/>
<polygon fill="#9a32cd" stroke="#9a32cd" points="760.92,-666.92 751.2,-671.13 761.42,-673.91 760.92,-666.92"/>
<text text-anchor="middle" x="806" y="-671.21" font-family="Helvetica,sans-Serif" font-size="10.00"> range</text>
</g>
</g>
</svg>
