<?xml version="1.0" encoding="UTF-8" standalone="no"?>
<!DOCTYPE svg PUBLIC "-//W3C//DTD SVG 1.1//EN"
 "http://www.w3.org/Graphics/SVG/1.1/DTD/svg11.dtd">
<!-- Generated by graphviz version 2.43.0 (0)
 -->
<!-- Title: StatusService::status Pages: 1 -->
<svg width="705pt" height="144pt"
 viewBox="0.00 0.00 705.00 144.33" xmlns="http://www.w3.org/2000/svg" xmlns:xlink="http://www.w3.org/1999/xlink">
<g id="graph0" class="graph" transform="scale(1 1) rotate(0) translate(4 140.33)">
<title>StatusService::status</title>
<!-- Node1 -->
<g id="Node000001" class="node">
<title>Node1</title>
<g id="a_Node000001"><a xlink:title="Returns the most recent value of the Status service&#39;s Status characteristic.">
<polygon fill="#999999" stroke="#666666" points="697,-80.5 578,-80.5 578,-61.5 697,-61.5 697,-80.5"/>
<text text-anchor="middle" x="637.5" y="-68.5" font-family="Helvetica,sans-Serif" font-size="10.00">StatusService::status</text>
</a>
</g>
</g>
<!-- Node2 -->
<g id="Node000002" class="node">
<title>Node2</title>
<g id="a_Node000002"><a xlink:href="classStatusCommand.html#ae2349e3d64b1b4db9b80465c0b7dadb7" target="_top" xlink:title="Outputs the Pokit device&#39;s details, including chrs, in the selected format.">
<polygon fill="white" stroke="#666666" points="378,-119 209,-119 209,-89 378,-89 378,-119"/>
<text text-anchor="start" x="217" y="-107" font-family="Helvetica,sans-Serif" font-size="10.00">StatusCommand::outputDevice</text>
<text text-anchor="middle" x="293.5" y="-96" font-family="Helvetica,sans-Serif" font-size="10.00">Status</text>
</a>
</g>
</g>
<!-- Node1&#45;&gt;Node2 -->
<g id="edge1_Node000001_Node000002" class="edge">
<title>Node1&#45;&gt;Node2</title>
<g id="a_edge1_Node000001_Node000002"><a xlink:title=" ">
<path fill="none" stroke="#63b8ff" d="M618.34,-85.83C600.25,-99.57 571.06,-119.04 542,-127 475.62,-145.19 395.88,-131.79 345.19,-119.1"/>
<polygon fill="#63b8ff" stroke="#63b8ff" points="624.93,-80.7 620.83,-88.46 621.77,-83.16 618.62,-85.62 618.62,-85.62 618.62,-85.62 621.77,-83.16 616.41,-82.77 624.93,-80.7 624.93,-80.7"/>
</a>
</g>
</g>
<!-- Node4 -->
<g id="Node000004" class="node">
<title>Node4</title>
<g id="a_Node000004"><a xlink:href="classStatusService.html#aab6278d4fe2bedc916fc3d96641eaa30" target="_top" xlink:title="Returns a string version of the status enum label.">
<polygon fill="white" stroke="#666666" points="542,-117.5 414,-117.5 414,-98.5 542,-98.5 542,-117.5"/>
<text text-anchor="middle" x="478" y="-105.5" font-family="Helvetica,sans-Serif" font-size="10.00">StatusService::toString</text>
</a>
</g>
</g>
<!-- Node1&#45;&gt;Node4 -->
<g id="edge3_Node000001_Node000004" class="edge">
<title>Node1&#45;&gt;Node4</title>
<g id="a_edge3_Node000001_Node000004"><a xlink:title=" ">
<path fill="none" stroke="#63b8ff" d="M588.06,-82.38C566.16,-87.52 540.58,-93.53 519.7,-98.44"/>
<polygon fill="#63b8ff" stroke="#63b8ff" points="595.94,-80.53 588.98,-85.86 592.05,-81.44 588.15,-82.36 588.15,-82.36 588.15,-82.36 592.05,-81.44 587.33,-78.85 595.94,-80.53 595.94,-80.53"/>
</a>
</g>
</g>
<!-- Node5 -->
<g id="Node000005" class="node">
<title>Node5</title>
<g id="a_Node000005"><a xlink:href="classStatusService.html#a5e5d307e56870f2a65e9ccf79429bff7" target="_top" xlink:title="Returns a string version of the status enum label.">
<polygon fill="white" stroke="#666666" points="542,-80.5 414,-80.5 414,-61.5 542,-61.5 542,-80.5"/>
<text text-anchor="middle" x="478" y="-68.5" font-family="Helvetica,sans-Serif" font-size="10.00">StatusService::toString</text>
</a>
</g>
</g>
<!-- Node1&#45;&gt;Node5 -->
<g id="edge4_Node000001_Node000005" class="edge">
<title>Node1&#45;&gt;Node5</title>
<g id="a_edge4_Node000001_Node000005"><a xlink:title=" ">
<path fill="none" stroke="#63b8ff" d="M569.58,-71C560.5,-71 551.2,-71 542.19,-71"/>
<polygon fill="#63b8ff" stroke="#63b8ff" points="577.85,-71 569.85,-74.6 573.85,-71 569.85,-71 569.85,-71 569.85,-71 573.85,-71 569.85,-67.4 577.85,-71 577.85,-71"/>
</a>
</g>
</g>
<!-- Node6 -->
<g id="Node000006" class="node">
<title>Node6</title>
<g id="a_Node000006"><a xlink:href="classStatusService.html#aac79e97cb114be25b2a6771d915f132d" target="_top" xlink:title="Returns a string version of the status enum label.">
<polygon fill="white" stroke="#666666" points="542,-43.5 414,-43.5 414,-24.5 542,-24.5 542,-43.5"/>
<text text-anchor="middle" x="478" y="-31.5" font-family="Helvetica,sans-Serif" font-size="10.00">StatusService::toString</text>
</a>
</g>
</g>
<!-- Node1&#45;&gt;Node6 -->
<g id="edge5_Node000001_Node000006" class="edge">
<title>Node1&#45;&gt;Node6</title>
<g id="a_edge5_Node000001_Node000006"><a xlink:title=" ">
<path fill="none" stroke="#63b8ff" d="M588.06,-59.62C566.16,-54.48 540.58,-48.47 519.7,-43.56"/>
<polygon fill="#63b8ff" stroke="#63b8ff" points="595.94,-61.47 587.33,-63.15 592.05,-60.56 588.15,-59.64 588.15,-59.64 588.15,-59.64 592.05,-60.56 588.98,-56.14 595.94,-61.47 595.94,-61.47"/>
</a>
</g>
</g>
<!-- Node3 -->
<g id="Node000003" class="node">
<title>Node3</title>
<g id="a_Node000003"><a xlink:href="classStatusCommand.html#af275e3a02032915dd27e0c0e041ff6c1" target="_top" xlink:title="Handles service detail discovery events.">
<polygon fill="white" stroke="#666666" points="173,-119 0,-119 0,-89 173,-89 173,-119"/>
<text text-anchor="start" x="8" y="-107" font-family="Helvetica,sans-Serif" font-size="10.00">StatusCommand::serviceDetails</text>
<text text-anchor="middle" x="86.5" y="-96" font-family="Helvetica,sans-Serif" font-size="10.00">Discovered</text>
</a>
</g>
</g>
<!-- Node2&#45;&gt;Node3 -->
<g id="edge2_Node000002_Node000003" class="edge">
<title>Node2&#45;&gt;Node3</title>
<g id="a_edge2_Node000002_Node000003"><a xlink:title=" ">
<path fill="none" stroke="#63b8ff" d="M200.8,-104C191.63,-104 182.34,-104 173.24,-104"/>
<polygon fill="#63b8ff" stroke="#63b8ff" points="208.82,-104 200.82,-107.6 204.82,-104 200.82,-104 200.82,-104 200.82,-104 204.82,-104 200.82,-100.4 208.82,-104 208.82,-104"/>
</a>
</g>
</g>
<!-- Node6&#45;&gt;Node2 -->
<g id="edge6_Node000006_Node000002" class="edge">
<title>Node6&#45;&gt;Node2</title>
<g id="a_edge6_Node000006_Node000002"><a xlink:title=" ">
<path fill="none" stroke="#63b8ff" d="M434.7,-46.05C427.74,-48.24 420.64,-50.59 414,-53 384.1,-63.85 350.89,-78.22 327.08,-88.94"/>
<polygon fill="#63b8ff" stroke="#63b8ff" points="442.77,-43.57 436.18,-49.37 438.95,-44.75 435.12,-45.92 435.12,-45.92 435.12,-45.92 438.95,-44.75 434.07,-42.48 442.77,-43.57 442.77,-43.57"/>
</a>
</g>
</g>
<!-- Node7 -->
<g id="Node000007" class="node">
<title>Node7</title>
<g id="a_Node000007"><a xlink:href="classStatusServicePrivate.html#a3a6ff8ca3e9d7c884b269e52dd43aeb0" target="_top" xlink:title="Parses the Status value into Statu struct.">
<polygon fill="white" stroke="#666666" points="352.5,-30 234.5,-30 234.5,0 352.5,0 352.5,-30"/>
<text text-anchor="start" x="242.5" y="-18" font-family="Helvetica,sans-Serif" font-size="10.00">StatusServicePrivate</text>
<text text-anchor="middle" x="293.5" y="-7" font-family="Helvetica,sans-Serif" font-size="10.00">::parseStatus</text>
</a>
</g>
</g>
<!-- Node6&#45;&gt;Node7 -->
<g id="edge7_Node000006_Node000007" class="edge">
<title>Node6&#45;&gt;Node7</title>
<g id="a_edge7_Node000006_Node000007"><a xlink:title=" ">
<path fill="none" stroke="#63b8ff" d="M405.92,-26.6C388.29,-24.76 369.6,-22.82 352.66,-21.06"/>
<polygon fill="#63b8ff" stroke="#63b8ff" points="413.94,-27.43 405.61,-30.19 409.96,-27.02 405.98,-26.61 405.98,-26.61 405.98,-26.61 409.96,-27.02 406.35,-23.03 413.94,-27.43 413.94,-27.43"/>
</a>
</g>
</g>
<!-- Node7&#45;&gt;Node1 -->
<g id="edge9_Node000007_Node000001" class="edge">
<title>Node7&#45;&gt;Node1</title>
<g id="a_edge9_Node000007_Node000001"><a xlink:title=" ">
<path fill="none" stroke="#63b8ff" d="M360.92,-5.61C411.49,-0.69 482.33,1.35 542,-15 574.92,-24.02 608.01,-47.81 624.93,-61.3"/>
<polygon fill="#63b8ff" stroke="#63b8ff" points="352.67,-6.45 360.26,-2.06 356.64,-6.05 360.62,-5.64 360.62,-5.64 360.62,-5.64 356.64,-6.05 360.99,-9.22 352.67,-6.45 352.67,-6.45"/>
</a>
</g>
</g>
<!-- Node8 -->
<g id="Node000008" class="node">
<title>Node8</title>
<g id="a_Node000008"><a xlink:href="classStatusServicePrivate.html#a08d8faee04fb47ac19d3962609606d52" target="_top" xlink:title="Implements AbstractPokitServicePrivate::characteristicRead to parse value, then emit a specialised si...">
<polygon fill="white" stroke="#666666" points="145.5,-30 27.5,-30 27.5,0 145.5,0 145.5,-30"/>
<text text-anchor="start" x="35.5" y="-18" font-family="Helvetica,sans-Serif" font-size="10.00">StatusServicePrivate</text>
<text text-anchor="middle" x="86.5" y="-7" font-family="Helvetica,sans-Serif" font-size="10.00">::characteristicRead</text>
</a>
</g>
</g>
<!-- Node7&#45;&gt;Node8 -->
<g id="edge8_Node000007_Node000008" class="edge">
<title>Node7&#45;&gt;Node8</title>
<g id="a_edge8_Node000007_Node000008"><a xlink:title=" ">
<path fill="none" stroke="#63b8ff" d="M226.05,-15C200.2,-15 170.85,-15 145.84,-15"/>
<polygon fill="#63b8ff" stroke="#63b8ff" points="234.3,-15 226.3,-18.6 230.3,-15 226.3,-15 226.3,-15 226.3,-15 230.3,-15 226.3,-11.4 234.3,-15 234.3,-15"/>
</a>
</g>
</g>
</g>
</svg>
