<?xml version="1.0" encoding="UTF-8" standalone="no"?>
<!DOCTYPE svg PUBLIC "-//W3C//DTD SVG 1.1//EN"
 "http://www.w3.org/Graphics/SVG/1.1/DTD/svg11.dtd">
<!-- Generated by graphviz version 2.43.0 (0)
 -->
<!-- Title: AbstractCommand::escapeCsvField Pages: 1 -->
<svg width="805pt" height="176pt"
 viewBox="0.00 0.00 805.00 175.50" xmlns="http://www.w3.org/2000/svg" xmlns:xlink="http://www.w3.org/1999/xlink">
<g id="graph0" class="graph" transform="scale(1 1) rotate(0) translate(4 171.5)">
<title>AbstractCommand::escapeCsvField</title>
<!-- Node1 -->
<g id="node1" class="node">
<title>Node1</title>
<g id="a_node1"><a xlink:title="Returns an RFC 4180 compliant version of field.">
<polygon fill="#bfbfbf" stroke="black" points="631,-73.5 631,-103.5 797,-103.5 797,-73.5 631,-73.5"/>
<text text-anchor="start" x="639" y="-91.5" font-family="Helvetica,sans-Serif" font-size="10.00">AbstractCommand::escapeCsv</text>
<text text-anchor="middle" x="714" y="-80.5" font-family="Helvetica,sans-Serif" font-size="10.00">Field</text>
</a>
</g>
</g>
<!-- Node2 -->
<g id="node2" class="node">
<title>Node2</title>
<g id="a_node2"><a xlink:href="classScanCommand.html#ac9f53dee63d2dfaa3acf82e71db01d64" target="_top" xlink:title="Handles discovered Pokit devices, writing info to stdout.">
<polygon fill="none" stroke="black" points="412,-148 412,-167 595,-167 595,-148 412,-148"/>
<text text-anchor="middle" x="503.5" y="-155" font-family="Helvetica,sans-Serif" font-size="10.00">ScanCommand::deviceDiscovered</text>
</a>
</g>
</g>
<!-- Node1&#45;&gt;Node2 -->
<g id="edge1" class="edge">
<title>Node1&#45;&gt;Node2</title>
<path fill="none" stroke="midnightblue" d="M671.82,-107.7C649.45,-117.59 621.1,-129.27 595,-137.5 582.26,-141.52 568.27,-145.03 555.18,-147.95"/>
<polygon fill="midnightblue" stroke="midnightblue" points="673.32,-110.86 681.02,-103.58 670.46,-104.47 673.32,-110.86"/>
</g>
<!-- Node5 -->
<g id="node5" class="node">
<title>Node5</title>
<g id="a_node5"><a xlink:href="classMultimeterCommand.html#a98e7c6c3cdab141604fe48aa72162175" target="_top" xlink:title="Outputs meter reading in the selected ouput format.">
<polygon fill="none" stroke="black" points="440,-98.5 440,-128.5 567,-128.5 567,-98.5 440,-98.5"/>
<text text-anchor="start" x="448" y="-116.5" font-family="Helvetica,sans-Serif" font-size="10.00">MultimeterCommand::</text>
<text text-anchor="middle" x="503.5" y="-105.5" font-family="Helvetica,sans-Serif" font-size="10.00">outputReading</text>
</a>
</g>
</g>
<!-- Node1&#45;&gt;Node5 -->
<g id="edge4" class="edge">
<title>Node1&#45;&gt;Node5</title>
<path fill="none" stroke="midnightblue" d="M620.88,-99.55C602.73,-101.72 584.09,-103.96 567.19,-105.98"/>
<polygon fill="midnightblue" stroke="midnightblue" points="621.38,-103.01 630.89,-98.34 620.55,-96.06 621.38,-103.01"/>
</g>
<!-- Node8 -->
<g id="node8" class="node">
<title>Node8</title>
<g id="a_node8"><a xlink:href="classInfoCommand.html#a06d095d57662fd10b201d6273085c34e" target="_top" xlink:title="Handles service detail discovery events.">
<polygon fill="none" stroke="black" points="423,-49.5 423,-79.5 584,-79.5 584,-49.5 423,-49.5"/>
<text text-anchor="start" x="431" y="-67.5" font-family="Helvetica,sans-Serif" font-size="10.00">InfoCommand::serviceDetails</text>
<text text-anchor="middle" x="503.5" y="-56.5" font-family="Helvetica,sans-Serif" font-size="10.00">Discovered</text>
</a>
</g>
</g>
<!-- Node1&#45;&gt;Node8 -->
<g id="edge7" class="edge">
<title>Node1&#45;&gt;Node8</title>
<path fill="none" stroke="midnightblue" d="M620.72,-77.88C608.52,-76.47 596.1,-75.04 584.14,-73.67"/>
<polygon fill="midnightblue" stroke="midnightblue" points="620.56,-81.38 630.89,-79.05 621.36,-74.43 620.56,-81.38"/>
</g>
<!-- Node9 -->
<g id="node9" class="node">
<title>Node9</title>
<g id="a_node9"><a xlink:href="classStatusCommand.html#af275e3a02032915dd27e0c0e041ff6c1" target="_top" xlink:title="Handles service detail discovery events.">
<polygon fill="none" stroke="black" points="417,-0.5 417,-30.5 590,-30.5 590,-0.5 417,-0.5"/>
<text text-anchor="start" x="425" y="-18.5" font-family="Helvetica,sans-Serif" font-size="10.00">StatusCommand::serviceDetails</text>
<text text-anchor="middle" x="503.5" y="-7.5" font-family="Helvetica,sans-Serif" font-size="10.00">Discovered</text>
</a>
</g>
</g>
<!-- Node1&#45;&gt;Node9 -->
<g id="edge8" class="edge">
<title>Node1&#45;&gt;Node9</title>
<path fill="none" stroke="midnightblue" d="M670.96,-69.43C648.66,-59.72 620.65,-48.18 595,-39.5 585.61,-36.32 575.55,-33.29 565.69,-30.53"/>
<polygon fill="midnightblue" stroke="midnightblue" points="669.58,-72.64 680.14,-73.46 672.39,-66.23 669.58,-72.64"/>
</g>
<!-- Node3 -->
<g id="node3" class="node">
<title>Node3</title>
<g id="a_node3"><a xlink:href="classScanCommand.html#a2cb218644893d84036ec16cd46f1d488" target="_top" xlink:title="Handles updated Pokit devices, writing info to stdout.">
<polygon fill="none" stroke="black" points="206,-148 206,-167 376,-167 376,-148 206,-148"/>
<text text-anchor="middle" x="291" y="-155" font-family="Helvetica,sans-Serif" font-size="10.00">ScanCommand::deviceUpdated</text>
</a>
</g>
</g>
<!-- Node2&#45;&gt;Node3 -->
<g id="edge2" class="edge">
<title>Node2&#45;&gt;Node3</title>
<path fill="none" stroke="midnightblue" d="M401.43,-157.5C392.98,-157.5 384.49,-157.5 376.18,-157.5"/>
<polygon fill="midnightblue" stroke="midnightblue" points="401.7,-161 411.7,-157.5 401.7,-154 401.7,-161"/>
</g>
<!-- Node4 -->
<g id="node4" class="node">
<title>Node4</title>
<g id="a_node4"><a xlink:href="classScanCommand.html#abf73c3339c34841c58f8165839b45b6d" target="_top" xlink:title="Construct a new ScanCommand object with parent.">
<polygon fill="none" stroke="black" points="0,-148 0,-167 170,-167 170,-148 0,-148"/>
<text text-anchor="middle" x="85" y="-155" font-family="Helvetica,sans-Serif" font-size="10.00">ScanCommand::ScanCommand</text>
</a>
</g>
</g>
<!-- Node3&#45;&gt;Node4 -->
<g id="edge3" class="edge">
<title>Node3&#45;&gt;Node4</title>
<path fill="none" stroke="midnightblue" d="M195.6,-157.5C187.15,-157.5 178.64,-157.5 170.29,-157.5"/>
<polygon fill="midnightblue" stroke="midnightblue" points="195.85,-161 205.85,-157.5 195.85,-154 195.85,-161"/>
</g>
<!-- Node6 -->
<g id="node6" class="node">
<title>Node6</title>
<g id="a_node6"><a xlink:href="classMultimeterCommand.html#a683a039618a2750b032c5de7f0d3eeee" target="_top" xlink:title="Invoked when the multimeter settings have been written, to begin reading the meter values.">
<polygon fill="none" stroke="black" points="227.5,-98.5 227.5,-128.5 354.5,-128.5 354.5,-98.5 227.5,-98.5"/>
<text text-anchor="start" x="235.5" y="-116.5" font-family="Helvetica,sans-Serif" font-size="10.00">MultimeterCommand::</text>
<text text-anchor="middle" x="291" y="-105.5" font-family="Helvetica,sans-Serif" font-size="10.00">settingsWritten</text>
</a>
</g>
</g>
<!-- Node5&#45;&gt;Node6 -->
<g id="edge5" class="edge">
<title>Node5&#45;&gt;Node6</title>
<path fill="none" stroke="midnightblue" d="M429.63,-113.5C405.23,-113.5 378.26,-113.5 354.71,-113.5"/>
<polygon fill="midnightblue" stroke="midnightblue" points="429.91,-117 439.91,-113.5 429.91,-110 429.91,-117"/>
</g>
<!-- Node7 -->
<g id="node7" class="node">
<title>Node7</title>
<g id="a_node7"><a xlink:href="classMultimeterCommand.html#a8f76fdaec093abb2aae454bc7e5a8993" target="_top" xlink:title="Returns a Pokit service object for the derived command class.">
<polygon fill="none" stroke="black" points="21.5,-98.5 21.5,-128.5 148.5,-128.5 148.5,-98.5 21.5,-98.5"/>
<text text-anchor="start" x="29.5" y="-116.5" font-family="Helvetica,sans-Serif" font-size="10.00">MultimeterCommand::</text>
<text text-anchor="middle" x="85" y="-105.5" font-family="Helvetica,sans-Serif" font-size="10.00">getService</text>
</a>
</g>
</g>
<!-- Node6&#45;&gt;Node7 -->
<g id="edge6" class="edge">
<title>Node6&#45;&gt;Node7</title>
<path fill="none" stroke="midnightblue" d="M217.29,-113.5C194.91,-113.5 170.48,-113.5 148.83,-113.5"/>
<polygon fill="midnightblue" stroke="midnightblue" points="217.41,-117 227.41,-113.5 217.41,-110 217.41,-117"/>
</g>
</g>
</svg>
