<?xml version="1.0" encoding="UTF-8" standalone="no"?>
<!DOCTYPE svg PUBLIC "-//W3C//DTD SVG 1.1//EN"
 "http://www.w3.org/Graphics/SVG/1.1/DTD/svg11.dtd">
<!-- Generated by graphviz version 2.43.0 (0)
 -->
<!-- Title: DataLoggerService::setSettings Pages: 1 -->
<svg width="489pt" height="186pt"
 viewBox="0.00 0.00 489.00 186.00" xmlns="http://www.w3.org/2000/svg" xmlns:xlink="http://www.w3.org/1999/xlink">
<g id="graph0" class="graph" transform="scale(1 1) rotate(0) translate(4 182)">
<title>DataLoggerService::setSettings</title>
<!-- Node1 -->
<g id="node1" class="node">
<title>Node1</title>
<g id="a_node1"><a xlink:title="Configures the Pokit device&#39;s data logger mode.">
<polygon fill="#bfbfbf" stroke="black" points="366,-73.5 366,-103.5 481,-103.5 481,-73.5 366,-73.5"/>
<text text-anchor="start" x="374" y="-91.5" font-family="Helvetica,sans-Serif" font-size="10.00">DataLoggerService::</text>
<text text-anchor="middle" x="423.5" y="-80.5" font-family="Helvetica,sans-Serif" font-size="10.00">setSettings</text>
</a>
</g>
</g>
<!-- Node2 -->
<g id="node2" class="node">
<title>Node2</title>
<g id="a_node2"><a xlink:href="classDataLoggerService.html#a4c9e68b94b0fba82a979bb7e0b0adab4" target="_top" xlink:title="Start the data logger.">
<polygon fill="none" stroke="black" points="199,-147.5 199,-177.5 314,-177.5 314,-147.5 199,-147.5"/>
<text text-anchor="start" x="207" y="-165.5" font-family="Helvetica,sans-Serif" font-size="10.00">DataLoggerService::</text>
<text text-anchor="middle" x="256.5" y="-154.5" font-family="Helvetica,sans-Serif" font-size="10.00">fetchSamples</text>
</a>
</g>
</g>
<!-- Node1&#45;&gt;Node2 -->
<g id="edge1" class="edge">
<title>Node1&#45;&gt;Node2</title>
<path fill="none" stroke="midnightblue" d="M388.5,-108.74C371.32,-118.48 349.94,-129.89 330,-138.5 322.7,-141.65 314.83,-144.65 307.08,-147.38"/>
<polygon fill="midnightblue" stroke="midnightblue" points="390.65,-111.54 397.58,-103.53 387.16,-105.47 390.65,-111.54"/>
</g>
<!-- Node4 -->
<g id="node4" class="node">
<title>Node4</title>
<g id="a_node4"><a xlink:href="classLoggerStartCommand.html#ab1b0364c6a26ff893d5b58dea381e4d5" target="_top" xlink:title="Handles service detail discovery events.">
<polygon fill="none" stroke="black" points="183,-98.5 183,-128.5 330,-128.5 330,-98.5 183,-98.5"/>
<text text-anchor="start" x="191" y="-116.5" font-family="Helvetica,sans-Serif" font-size="10.00">LoggerStartCommand</text>
<text text-anchor="middle" x="256.5" y="-105.5" font-family="Helvetica,sans-Serif" font-size="10.00">::serviceDetailsDiscovered</text>
</a>
</g>
</g>
<!-- Node1&#45;&gt;Node4 -->
<g id="edge3" class="edge">
<title>Node1&#45;&gt;Node4</title>
<path fill="none" stroke="midnightblue" d="M355.61,-98.63C347.22,-99.91 338.6,-101.21 330.12,-102.5"/>
<polygon fill="midnightblue" stroke="midnightblue" points="356.35,-102.06 365.72,-97.1 355.3,-95.14 356.35,-102.06"/>
</g>
<!-- Node5 -->
<g id="node5" class="node">
<title>Node5</title>
<g id="a_node5"><a xlink:href="classDataLoggerService.html#a4aac49f9a655408e4b58f05735c5f9ab" target="_top" xlink:title="Start the data logger with settings.">
<polygon fill="none" stroke="black" points="199,-49.5 199,-79.5 314,-79.5 314,-49.5 199,-49.5"/>
<text text-anchor="start" x="207" y="-67.5" font-family="Helvetica,sans-Serif" font-size="10.00">DataLoggerService::</text>
<text text-anchor="middle" x="256.5" y="-56.5" font-family="Helvetica,sans-Serif" font-size="10.00">startLogger</text>
</a>
</g>
</g>
<!-- Node1&#45;&gt;Node5 -->
<g id="edge4" class="edge">
<title>Node1&#45;&gt;Node5</title>
<path fill="none" stroke="midnightblue" d="M355.78,-78.8C341.96,-76.79 327.53,-74.69 314.11,-72.73"/>
<polygon fill="midnightblue" stroke="midnightblue" points="355.32,-82.26 365.72,-80.24 356.32,-75.34 355.32,-82.26"/>
</g>
<!-- Node6 -->
<g id="node6" class="node">
<title>Node6</title>
<g id="a_node6"><a xlink:href="classDataLoggerService.html#a9f8a721025e04bf27df18194247b532e" target="_top" xlink:title="Stop the data logger.">
<polygon fill="none" stroke="black" points="199,-0.5 199,-30.5 314,-30.5 314,-0.5 199,-0.5"/>
<text text-anchor="start" x="207" y="-18.5" font-family="Helvetica,sans-Serif" font-size="10.00">DataLoggerService::</text>
<text text-anchor="middle" x="256.5" y="-7.5" font-family="Helvetica,sans-Serif" font-size="10.00">stopLogger</text>
</a>
</g>
</g>
<!-- Node1&#45;&gt;Node6 -->
<g id="edge5" class="edge">
<title>Node1&#45;&gt;Node6</title>
<path fill="none" stroke="midnightblue" d="M386.89,-68.46C369.94,-59.33 349.22,-48.75 330,-40.5 321.8,-36.98 312.93,-33.59 304.3,-30.51"/>
<polygon fill="midnightblue" stroke="midnightblue" points="385.43,-71.65 395.89,-73.36 388.78,-65.51 385.43,-71.65"/>
</g>
<!-- Node3 -->
<g id="node3" class="node">
<title>Node3</title>
<g id="a_node3"><a xlink:href="classLoggerFetchCommand.html#a87a6be7a1babc635129434b3ed3ae104" target="_top" xlink:title="Handles service detail discovery events.">
<polygon fill="none" stroke="black" points="0,-147.5 0,-177.5 147,-177.5 147,-147.5 0,-147.5"/>
<text text-anchor="start" x="8" y="-165.5" font-family="Helvetica,sans-Serif" font-size="10.00">LoggerFetchCommand</text>
<text text-anchor="middle" x="73.5" y="-154.5" font-family="Helvetica,sans-Serif" font-size="10.00">::serviceDetailsDiscovered</text>
</a>
</g>
</g>
<!-- Node2&#45;&gt;Node3 -->
<g id="edge2" class="edge">
<title>Node2&#45;&gt;Node3</title>
<path fill="none" stroke="midnightblue" d="M188.55,-162.5C175.03,-162.5 160.75,-162.5 147.05,-162.5"/>
<polygon fill="midnightblue" stroke="midnightblue" points="188.73,-166 198.73,-162.5 188.73,-159 188.73,-166"/>
</g>
<!-- Node7 -->
<g id="node7" class="node">
<title>Node7</title>
<g id="a_node7"><a xlink:href="classLoggerStopCommand.html#a6e1d2dd8ccd4dafacea51c63f4725d7e" target="_top" xlink:title="Handles service detail discovery events.">
<polygon fill="none" stroke="black" points="3,-0.5 3,-30.5 144,-30.5 144,-0.5 3,-0.5"/>
<text text-anchor="start" x="11" y="-18.5" font-family="Helvetica,sans-Serif" font-size="10.00">LoggerStopCommand::</text>
<text text-anchor="middle" x="73.5" y="-7.5" font-family="Helvetica,sans-Serif" font-size="10.00">serviceDetailsDiscovered</text>
</a>
</g>
</g>
<!-- Node6&#45;&gt;Node7 -->
<g id="edge6" class="edge">
<title>Node6&#45;&gt;Node7</title>
<path fill="none" stroke="midnightblue" d="M188.39,-15.5C173.94,-15.5 158.65,-15.5 144.12,-15.5"/>
<polygon fill="midnightblue" stroke="midnightblue" points="188.73,-19 198.73,-15.5 188.73,-12 188.73,-19"/>
</g>
</g>
</svg>
