<?xml version="1.0" encoding="UTF-8" standalone="no"?>
<!DOCTYPE svg PUBLIC "-//W3C//DTD SVG 1.1//EN"
 "http://www.w3.org/Graphics/SVG/1.1/DTD/svg11.dtd">
<!-- Generated by graphviz version 2.43.0 (0)
 -->
<!-- Title: AbstractPokitServicePrivate::AbstractPokitServicePrivate Pages: 1 -->
<svg width="730pt" height="176pt"
 viewBox="0.00 0.00 730.00 176.00" xmlns="http://www.w3.org/2000/svg" xmlns:xlink="http://www.w3.org/1999/xlink">
<g id="graph0" class="graph" transform="scale(1 1) rotate(0) translate(4 172)">
<title>AbstractPokitServicePrivate::AbstractPokitServicePrivate</title>
<!-- Node1 -->
<g id="node1" class="node">
<title>Node1</title>
<g id="a_node1"><a xlink:title=" ">
<polygon fill="#bfbfbf" stroke="black" points="0,-71.5 0,-101.5 158,-101.5 158,-71.5 0,-71.5"/>
<text text-anchor="start" x="8" y="-89.5" font-family="Helvetica,sans-Serif" font-size="10.00">AbstractPokitServicePrivate</text>
<text text-anchor="middle" x="79" y="-78.5" font-family="Helvetica,sans-Serif" font-size="10.00">::AbstractPokitServicePrivate</text>
</a>
</g>
</g>
<!-- Node2 -->
<g id="node2" class="node">
<title>Node2</title>
<g id="a_node2"><a xlink:href="classAbstractPokitServicePrivate.html#a9eec6d6dfe45c70c2907564940966200" target="_top" xlink:title="Handles QLowEnergyController::connected events.">
<polygon fill="none" stroke="black" points="194,-137.5 194,-167.5 346,-167.5 346,-137.5 194,-137.5"/>
<text text-anchor="start" x="202" y="-155.5" font-family="Helvetica,sans-Serif" font-size="10.00">AbstractPokitServicePrivate</text>
<text text-anchor="middle" x="270" y="-144.5" font-family="Helvetica,sans-Serif" font-size="10.00">::connected</text>
</a>
</g>
</g>
<!-- Node1&#45;&gt;Node2 -->
<g id="edge1" class="edge">
<title>Node1&#45;&gt;Node2</title>
<path fill="none" stroke="midnightblue" d="M123.36,-101.64C150.97,-111.28 186.92,-123.84 216.19,-134.06"/>
<polygon fill="midnightblue" stroke="midnightblue" points="215.25,-137.44 225.84,-137.43 217.55,-130.83 215.25,-137.44"/>
</g>
<!-- Node3 -->
<g id="node3" class="node">
<title>Node3</title>
<g id="a_node3"><a xlink:href="classAbstractPokitServicePrivate.html#a2b105802085225fe68254dfdb6754ad9" target="_top" xlink:title="Creates an internal service object from the internal controller.">
<polygon fill="none" stroke="black" points="382,-49.5 382,-79.5 534,-79.5 534,-49.5 382,-49.5"/>
<text text-anchor="start" x="390" y="-67.5" font-family="Helvetica,sans-Serif" font-size="10.00">AbstractPokitServicePrivate</text>
<text text-anchor="middle" x="458" y="-56.5" font-family="Helvetica,sans-Serif" font-size="10.00">::createServiceObject</text>
</a>
</g>
</g>
<!-- Node1&#45;&gt;Node3 -->
<g id="edge2" class="edge">
<title>Node1&#45;&gt;Node3</title>
<path fill="none" stroke="midnightblue" d="M158.23,-92.38C211.36,-95.14 283.12,-96.49 346,-89.5 360.83,-87.85 376.58,-85 391.41,-81.79"/>
<polygon fill="midnightblue" stroke="midnightblue" points="392.52,-85.13 401.51,-79.53 390.99,-78.3 392.52,-85.13"/>
</g>
<!-- Node7 -->
<g id="node7" class="node">
<title>Node7</title>
<g id="a_node7"><a xlink:href="classAbstractPokitServicePrivate.html#a2cc16a897908f50e0f3cfc6b876b50ab" target="_top" xlink:title="Handles QLowEnergyController::discoveryFinished events.">
<polygon fill="none" stroke="black" points="194,-49.5 194,-79.5 346,-79.5 346,-49.5 194,-49.5"/>
<text text-anchor="start" x="202" y="-67.5" font-family="Helvetica,sans-Serif" font-size="10.00">AbstractPokitServicePrivate</text>
<text text-anchor="middle" x="270" y="-56.5" font-family="Helvetica,sans-Serif" font-size="10.00">::discoveryFinished</text>
</a>
</g>
</g>
<!-- Node1&#45;&gt;Node7 -->
<g id="edge6" class="edge">
<title>Node1&#45;&gt;Node7</title>
<path fill="none" stroke="midnightblue" d="M158.24,-77.39C166.7,-76.41 175.35,-75.4 183.89,-74.41"/>
<polygon fill="midnightblue" stroke="midnightblue" points="184.33,-77.88 193.86,-73.25 183.52,-70.93 184.33,-77.88"/>
</g>
<!-- Node8 -->
<g id="node8" class="node">
<title>Node8</title>
<g id="a_node8"><a xlink:href="classAbstractPokitServicePrivate.html#a654255854b4aca7718ef30e10260d89b" target="_top" xlink:title="Handles QLowEnergyController::serviceDiscovered events.">
<polygon fill="none" stroke="black" points="194,-0.5 194,-30.5 346,-30.5 346,-0.5 194,-0.5"/>
<text text-anchor="start" x="202" y="-18.5" font-family="Helvetica,sans-Serif" font-size="10.00">AbstractPokitServicePrivate</text>
<text text-anchor="middle" x="270" y="-7.5" font-family="Helvetica,sans-Serif" font-size="10.00">::serviceDiscovered</text>
</a>
</g>
</g>
<!-- Node1&#45;&gt;Node8 -->
<g id="edge8" class="edge">
<title>Node1&#45;&gt;Node8</title>
<path fill="none" stroke="midnightblue" d="M115.72,-71.43C138.08,-62.16 167.56,-50.23 194,-40.5 200,-38.29 206.3,-36.06 212.6,-33.88"/>
<polygon fill="midnightblue" stroke="midnightblue" points="214.1,-37.07 222.43,-30.52 211.84,-30.44 214.1,-37.07"/>
</g>
<!-- Node4 -->
<g id="node4" class="node">
<title>Node4</title>
<g id="a_node4"><a xlink:href="classAbstractPokitServicePrivate.html#af4d66a5350233f431e869cd09bf4aa26" target="_top" xlink:title="Handles QLowEnergyService::characteristicRead events.">
<polygon fill="none" stroke="black" points="570,-98.5 570,-128.5 722,-128.5 722,-98.5 570,-98.5"/>
<text text-anchor="start" x="578" y="-116.5" font-family="Helvetica,sans-Serif" font-size="10.00">AbstractPokitServicePrivate</text>
<text text-anchor="middle" x="646" y="-105.5" font-family="Helvetica,sans-Serif" font-size="10.00">::characteristicRead</text>
</a>
</g>
</g>
<!-- Node3&#45;&gt;Node4 -->
<g id="edge3" class="edge">
<title>Node3&#45;&gt;Node4</title>
<path fill="none" stroke="midnightblue" d="M516.07,-79.53C535.71,-84.71 557.87,-90.55 578.22,-95.91"/>
<polygon fill="midnightblue" stroke="midnightblue" points="577.48,-99.33 588.04,-98.49 579.26,-92.56 577.48,-99.33"/>
</g>
<!-- Node5 -->
<g id="node5" class="node">
<title>Node5</title>
<g id="a_node5"><a xlink:href="classAbstractPokitServicePrivate.html#a20a20e4261112601e0c82b9389b1c7d8" target="_top" xlink:title="Handles QLowEnergyService::characteristicWritten events.">
<polygon fill="none" stroke="black" points="570,-49.5 570,-79.5 722,-79.5 722,-49.5 570,-49.5"/>
<text text-anchor="start" x="578" y="-67.5" font-family="Helvetica,sans-Serif" font-size="10.00">AbstractPokitServicePrivate</text>
<text text-anchor="middle" x="646" y="-56.5" font-family="Helvetica,sans-Serif" font-size="10.00">::characteristicWritten</text>
</a>
</g>
</g>
<!-- Node3&#45;&gt;Node5 -->
<g id="edge4" class="edge">
<title>Node3&#45;&gt;Node5</title>
<path fill="none" stroke="midnightblue" d="M534.12,-64.5C542.6,-64.5 551.28,-64.5 559.87,-64.5"/>
<polygon fill="midnightblue" stroke="midnightblue" points="559.9,-68 569.9,-64.5 559.9,-61 559.9,-68"/>
</g>
<!-- Node6 -->
<g id="node6" class="node">
<title>Node6</title>
<g id="a_node6"><a xlink:href="classAbstractPokitServicePrivate.html#ad4cd6a5700b0b764b3a81f67603dc68f" target="_top" xlink:title="Handles QLowEnergyController::stateChanged events.">
<polygon fill="none" stroke="black" points="570,-0.5 570,-30.5 722,-30.5 722,-0.5 570,-0.5"/>
<text text-anchor="start" x="578" y="-18.5" font-family="Helvetica,sans-Serif" font-size="10.00">AbstractPokitServicePrivate</text>
<text text-anchor="middle" x="646" y="-7.5" font-family="Helvetica,sans-Serif" font-size="10.00">::stateChanged</text>
</a>
</g>
</g>
<!-- Node3&#45;&gt;Node6 -->
<g id="edge5" class="edge">
<title>Node3&#45;&gt;Node6</title>
<path fill="none" stroke="midnightblue" d="M516.07,-49.47C535.71,-44.29 557.87,-38.45 578.22,-33.09"/>
<polygon fill="midnightblue" stroke="midnightblue" points="579.26,-36.44 588.04,-30.51 577.48,-29.67 579.26,-36.44"/>
</g>
<!-- Node7&#45;&gt;Node3 -->
<g id="edge7" class="edge">
<title>Node7&#45;&gt;Node3</title>
<path fill="none" stroke="midnightblue" d="M346.12,-64.5C354.6,-64.5 363.28,-64.5 371.87,-64.5"/>
<polygon fill="midnightblue" stroke="midnightblue" points="371.9,-68 381.9,-64.5 371.9,-61 371.9,-68"/>
</g>
<!-- Node8&#45;&gt;Node3 -->
<g id="edge9" class="edge">
<title>Node8&#45;&gt;Node3</title>
<path fill="none" stroke="midnightblue" d="M328.07,-30.53C347.71,-35.71 369.87,-41.55 390.22,-46.91"/>
<polygon fill="midnightblue" stroke="midnightblue" points="389.48,-50.33 400.04,-49.49 391.26,-43.56 389.48,-50.33"/>
</g>
</g>
</svg>
