<?xml version="1.0" encoding="UTF-8" standalone="no"?>
<!DOCTYPE svg PUBLIC "-//W3C//DTD SVG 1.1//EN"
 "http://www.w3.org/Graphics/SVG/1.1/DTD/svg11.dtd">
<!-- Generated by graphviz version 2.43.0 (0)
 -->
<!-- Title: DataLoggerService::startLogger Pages: 1 -->
<svg width="463pt" height="204pt"
 viewBox="0.00 0.00 463.00 203.50" xmlns="http://www.w3.org/2000/svg" xmlns:xlink="http://www.w3.org/1999/xlink">
<g id="graph0" class="graph" transform="scale(1 1) rotate(0) translate(4 199.5)">
<title>DataLoggerService::startLogger</title>
<!-- Node1 -->
<g id="node1" class="node">
<title>Node1</title>
<g id="a_node1"><a xlink:title="Start the data logger with settings.">
<polygon fill="#bfbfbf" stroke="black" points="0,-36 0,-66 115,-66 115,-36 0,-36"/>
<text text-anchor="start" x="8" y="-54" font-family="Helvetica,sans-Serif" font-size="10.00">DataLoggerService::</text>
<text text-anchor="middle" x="57.5" y="-43" font-family="Helvetica,sans-Serif" font-size="10.00">startLogger</text>
</a>
</g>
</g>
<!-- Node2 -->
<g id="node2" class="node">
<title>Node2</title>
<g id="a_node2"><a xlink:href="classDataLoggerService.html#a3b933a1a161a390eb08e5019685f449c" target="_top" xlink:title="Configures the Pokit device&#39;s data logger mode.">
<polygon fill="none" stroke="black" points="151,-67 151,-97 266,-97 266,-67 151,-67"/>
<text text-anchor="start" x="159" y="-85" font-family="Helvetica,sans-Serif" font-size="10.00">DataLoggerService::</text>
<text text-anchor="middle" x="208.5" y="-74" font-family="Helvetica,sans-Serif" font-size="10.00">setSettings</text>
</a>
</g>
</g>
<!-- Node1&#45;&gt;Node2 -->
<g id="edge1" class="edge">
<title>Node1&#45;&gt;Node2</title>
<path fill="none" stroke="midnightblue" d="M115.26,-62.81C123.65,-64.55 132.36,-66.37 140.93,-68.15"/>
<polygon fill="midnightblue" stroke="midnightblue" points="140.4,-71.61 150.9,-70.22 141.82,-64.76 140.4,-71.61"/>
</g>
<!-- Node7 -->
<g id="node7" class="node">
<title>Node7</title>
<g id="a_node7"><a target="_parent" xlink:href="https://doc.qt.io/qt-5/qobject.html#tr" xlink:title=" ">
<polygon fill="none" stroke="black" points="344,-0.5 344,-19.5 413,-19.5 413,-0.5 344,-0.5"/>
<text text-anchor="middle" x="378.5" y="-7.5" font-family="Helvetica,sans-Serif" font-size="10.00">QObject::tr</text>
</a>
</g>
</g>
<!-- Node1&#45;&gt;Node7 -->
<g id="edge7" class="edge">
<title>Node1&#45;&gt;Node7</title>
<path fill="none" stroke="midnightblue" d="M115.16,-43.72C177.69,-35.68 276.99,-22.92 333.79,-15.62"/>
<polygon fill="midnightblue" stroke="midnightblue" points="334.41,-19.07 343.88,-14.32 333.52,-12.12 334.41,-19.07"/>
</g>
<!-- Node3 -->
<g id="node3" class="node">
<title>Node3</title>
<g id="a_node3"><a target="_parent" xlink:href="https://doc.qt.io/qt-5/qlowenergycharacteristic.html#isValid" xlink:title=" ">
<polygon fill="none" stroke="black" points="306,-165 306,-195 451,-195 451,-165 306,-165"/>
<text text-anchor="start" x="314" y="-183" font-family="Helvetica,sans-Serif" font-size="10.00">QLowEnergyCharacteristic</text>
<text text-anchor="middle" x="378.5" y="-172" font-family="Helvetica,sans-Serif" font-size="10.00">::isValid</text>
</a>
</g>
</g>
<!-- Node2&#45;&gt;Node3 -->
<g id="edge2" class="edge">
<title>Node2&#45;&gt;Node3</title>
<path fill="none" stroke="midnightblue" d="M224.99,-97.05C242.44,-113.3 272.28,-139 302,-155 306.01,-157.16 310.23,-159.17 314.55,-161.05"/>
<polygon fill="midnightblue" stroke="midnightblue" points="313.54,-164.41 324.12,-164.93 316.17,-157.93 313.54,-164.41"/>
</g>
<!-- Node4 -->
<g id="node4" class="node">
<title>Node4</title>
<g id="a_node4"><a target="_parent" xlink:href="https://doc.qt.io/qt-5/qdatastream.html#setByteOrder" xlink:title=" ">
<polygon fill="none" stroke="black" points="302,-126.5 302,-145.5 455,-145.5 455,-126.5 302,-126.5"/>
<text text-anchor="middle" x="378.5" y="-133.5" font-family="Helvetica,sans-Serif" font-size="10.00">QDataStream::setByteOrder</text>
</a>
</g>
</g>
<!-- Node2&#45;&gt;Node4 -->
<g id="edge3" class="edge">
<title>Node2&#45;&gt;Node4</title>
<path fill="none" stroke="midnightblue" d="M246.51,-97.12C263.3,-103.69 283.49,-111.19 302,-117 309.79,-119.45 318.11,-121.8 326.28,-123.96"/>
<polygon fill="midnightblue" stroke="midnightblue" points="325.56,-127.39 336.12,-126.5 327.31,-120.61 325.56,-127.39"/>
</g>
<!-- Node5 -->
<g id="node5" class="node">
<title>Node5</title>
<g id="a_node5"><a target="_parent" xlink:href="https://doc.qt.io/qt-5/qdatastream.html#setFloatingPointPrecision" xlink:title=" ">
<polygon fill="none" stroke="black" points="307,-77 307,-107 450,-107 450,-77 307,-77"/>
<text text-anchor="start" x="315" y="-95" font-family="Helvetica,sans-Serif" font-size="10.00">QDataStream::setFloating</text>
<text text-anchor="middle" x="378.5" y="-84" font-family="Helvetica,sans-Serif" font-size="10.00">PointPrecision</text>
</a>
</g>
</g>
<!-- Node2&#45;&gt;Node5 -->
<g id="edge4" class="edge">
<title>Node2&#45;&gt;Node5</title>
<path fill="none" stroke="midnightblue" d="M266.38,-85.39C276.16,-85.97 286.49,-86.58 296.75,-87.19"/>
<polygon fill="midnightblue" stroke="midnightblue" points="296.79,-90.7 306.98,-87.8 297.2,-83.71 296.79,-90.7"/>
</g>
<!-- Node6 -->
<g id="node6" class="node">
<title>Node6</title>
<g id="a_node6"><a target="_parent" xlink:href="https://doc.qt.io/qt-5/qbytearray.html#size" xlink:title=" ">
<polygon fill="none" stroke="black" points="329.5,-38.5 329.5,-57.5 427.5,-57.5 427.5,-38.5 329.5,-38.5"/>
<text text-anchor="middle" x="378.5" y="-45.5" font-family="Helvetica,sans-Serif" font-size="10.00">QByteArray::size</text>
</a>
</g>
</g>
<!-- Node2&#45;&gt;Node6 -->
<g id="edge5" class="edge">
<title>Node2&#45;&gt;Node6</title>
<path fill="none" stroke="midnightblue" d="M266.38,-70.49C283.8,-66.96 302.98,-63.08 320.42,-59.55"/>
<polygon fill="midnightblue" stroke="midnightblue" points="321.35,-62.93 330.46,-57.52 319.96,-56.07 321.35,-62.93"/>
</g>
<!-- Node2&#45;&gt;Node7 -->
<g id="edge6" class="edge">
<title>Node2&#45;&gt;Node7</title>
<path fill="none" stroke="midnightblue" d="M231.81,-66.89C250.01,-55.14 276.77,-39.18 302,-29 312.07,-24.94 323.25,-21.55 333.86,-18.82"/>
<polygon fill="midnightblue" stroke="midnightblue" points="334.91,-22.17 343.8,-16.4 333.25,-15.37 334.91,-22.17"/>
</g>
</g>
</svg>
