<?xml version="1.0" encoding="UTF-8" standalone="no"?>
<!DOCTYPE svg PUBLIC "-//W3C//DTD SVG 1.1//EN"
 "http://www.w3.org/Graphics/SVG/1.1/DTD/svg11.dtd">
<!-- Generated by graphviz version 2.43.0 (0)
 -->
<!-- Title: InfoCommand::processOptions Pages: 1 -->
<svg width="797pt" height="551pt"
 viewBox="0.00 0.00 797.00 550.50" xmlns="http://www.w3.org/2000/svg" xmlns:xlink="http://www.w3.org/1999/xlink">
<g id="graph0" class="graph" transform="scale(1 1) rotate(0) translate(4 546.5)">
<title>InfoCommand::processOptions</title>
<!-- Node1 -->
<g id="node1" class="node">
<title>Node1</title>
<g id="a_node1"><a xlink:title="Processes the relevant options from the command line parser.">
<polygon fill="#999999" stroke="#666666" points="167,-302.5 0,-302.5 0,-283.5 167,-283.5 167,-302.5"/>
<text text-anchor="middle" x="83.5" y="-290.5" font-family="Helvetica,sans-Serif" font-size="10.00">InfoCommand::processOptions</text>
</a>
</g>
</g>
<!-- Node2 -->
<g id="node2" class="node">
<title>Node2</title>
<g id="a_node2"><a target="_parent" xlink:href="https://doc.qt.io/qt-5/qlist.html#isEmpty" xlink:title=" ">
<polygon fill="white" stroke="#666666" points="322,-324.5 235,-324.5 235,-305.5 322,-305.5 322,-324.5"/>
<text text-anchor="middle" x="278.5" y="-312.5" font-family="Helvetica,sans-Serif" font-size="10.00">QList::isEmpty</text>
</a>
</g>
</g>
<!-- Node1&#45;&gt;Node2 -->
<g id="edge1" class="edge">
<title>Node1&#45;&gt;Node2</title>
<path fill="none" stroke="#63b8ff" d="M167.19,-302.43C186.69,-304.65 206.96,-306.96 224.72,-308.98"/>
<polygon fill="#63b8ff" stroke="#63b8ff" points="224.53,-312.48 234.86,-310.14 225.32,-305.53 224.53,-312.48"/>
</g>
<!-- Node3 -->
<g id="node3" class="node">
<title>Node3</title>
<g id="a_node3"><a xlink:href="classAbstractCommand.html#ad827a18a24776efeb955739459d48f7d" target="_top" xlink:title="Processes the relevant options from the command line parser.">
<polygon fill="white" stroke="#666666" points="354,-287 203,-287 203,-257 354,-257 354,-287"/>
<text text-anchor="start" x="211" y="-275" font-family="Helvetica,sans-Serif" font-size="10.00">AbstractCommand::process</text>
<text text-anchor="middle" x="278.5" y="-264" font-family="Helvetica,sans-Serif" font-size="10.00">Options</text>
</a>
</g>
</g>
<!-- Node1&#45;&gt;Node3 -->
<g id="edge2" class="edge">
<title>Node1&#45;&gt;Node3</title>
<path fill="none" stroke="#63b8ff" d="M167.19,-284C175.72,-283.07 184.4,-282.13 192.95,-281.2"/>
<polygon fill="#63b8ff" stroke="#63b8ff" points="193.35,-284.68 202.91,-280.12 192.59,-277.72 193.35,-284.68"/>
</g>
<!-- Node4 -->
<g id="node4" class="node">
<title>Node4</title>
<g id="a_node4"><a target="_parent" xlink:href="https://doc.qt.io/qt-5/qlist.html#append" xlink:title=" ">
<polygon fill="white" stroke="#666666" points="536,-542.5 453,-542.5 453,-523.5 536,-523.5 536,-542.5"/>
<text text-anchor="middle" x="494.5" y="-530.5" font-family="Helvetica,sans-Serif" font-size="10.00">QList::append</text>
</a>
</g>
</g>
<!-- Node3&#45;&gt;Node4 -->
<g id="edge3" class="edge">
<title>Node3&#45;&gt;Node4</title>
<path fill="none" stroke="#63b8ff" d="M342.6,-287.15C346.84,-289.9 350.73,-293.16 354,-297 417.66,-371.77 320.86,-445.27 390,-515 403.66,-528.78 423.84,-534.21 442.76,-535.86"/>
<polygon fill="#63b8ff" stroke="#63b8ff" points="442.62,-539.36 452.8,-536.41 443,-532.37 442.62,-539.36"/>
</g>
<!-- Node5 -->
<g id="node5" class="node">
<title>Node5</title>
<g id="a_node5"><a target="_parent" xlink:href="https://doc.qt.io/qt-5/qstring.html#arg-11" xlink:title=" ">
<polygon fill="white" stroke="#666666" points="531.5,-505.5 457.5,-505.5 457.5,-486.5 531.5,-486.5 531.5,-505.5"/>
<text text-anchor="middle" x="494.5" y="-493.5" font-family="Helvetica,sans-Serif" font-size="10.00">QString::arg</text>
</a>
</g>
</g>
<!-- Node3&#45;&gt;Node5 -->
<g id="edge4" class="edge">
<title>Node3&#45;&gt;Node5</title>
<path fill="none" stroke="#63b8ff" d="M342.11,-287.04C346.53,-289.82 350.58,-293.11 354,-297 408.19,-358.57 331.31,-420.71 390,-478 404.89,-492.54 427.07,-497.69 447.08,-498.94"/>
<polygon fill="#63b8ff" stroke="#63b8ff" points="447.2,-502.44 457.3,-499.26 447.42,-495.45 447.2,-502.44"/>
</g>
<!-- Node6 -->
<g id="node6" class="node">
<title>Node6</title>
<g id="a_node6"><a target="_parent" xlink:href="https://doc.qt.io/qt-5/qstringlist.html#contains" xlink:title=" ">
<polygon fill="white" stroke="#666666" points="553,-468.5 436,-468.5 436,-449.5 553,-449.5 553,-468.5"/>
<text text-anchor="middle" x="494.5" y="-456.5" font-family="Helvetica,sans-Serif" font-size="10.00">QStringList::contains</text>
</a>
</g>
</g>
<!-- Node3&#45;&gt;Node6 -->
<g id="edge5" class="edge">
<title>Node3&#45;&gt;Node6</title>
<path fill="none" stroke="#63b8ff" d="M341.55,-287.02C346.14,-289.8 350.39,-293.1 354,-297 398.52,-345.1 342.17,-395.19 390,-440 399.83,-449.21 412.58,-454.69 425.75,-457.82"/>
<polygon fill="#63b8ff" stroke="#63b8ff" points="425.38,-461.32 435.86,-459.79 426.71,-454.45 425.38,-461.32"/>
</g>
<!-- Node7 -->
<g id="node7" class="node">
<title>Node7</title>
<g id="a_node7"><a target="_parent" xlink:href="https://doc.qt.io/qt-5/qcommandlineparser.html#isSet" xlink:title=" ">
<polygon fill="white" stroke="#666666" points="557,-431 432,-431 432,-401 557,-401 557,-431"/>
<text text-anchor="start" x="440" y="-419" font-family="Helvetica,sans-Serif" font-size="10.00">QCommandLineParser</text>
<text text-anchor="middle" x="494.5" y="-408" font-family="Helvetica,sans-Serif" font-size="10.00">::isSet</text>
</a>
</g>
</g>
<!-- Node3&#45;&gt;Node7 -->
<g id="edge6" class="edge">
<title>Node3&#45;&gt;Node7</title>
<path fill="none" stroke="#63b8ff" d="M340.35,-287.07C345.32,-289.84 349.97,-293.12 354,-297 386.54,-328.31 356,-362.29 390,-392 399.11,-399.97 410.36,-405.42 422.04,-409.14"/>
<polygon fill="#63b8ff" stroke="#63b8ff" points="421.35,-412.58 431.92,-411.86 423.21,-405.83 421.35,-412.58"/>
</g>
<!-- Node8 -->
<g id="node8" class="node">
<title>Node8</title>
<g id="a_node8"><a target="_parent" xlink:href="https://doc.qt.io/qt-5/qbluetoothdevicediscoveryagent.html#lowEnergyDiscoveryTimeout" xlink:title=" ">
<polygon fill="white" stroke="#666666" points="590,-383 399,-383 399,-353 590,-353 590,-383"/>
<text text-anchor="start" x="407" y="-371" font-family="Helvetica,sans-Serif" font-size="10.00">QBluetoothDeviceDiscovery</text>
<text text-anchor="middle" x="494.5" y="-360" font-family="Helvetica,sans-Serif" font-size="10.00">Agent::lowEnergyDiscoveryTimeout</text>
</a>
</g>
</g>
<!-- Node3&#45;&gt;Node8 -->
<g id="edge7" class="edge">
<title>Node3&#45;&gt;Node8</title>
<path fill="none" stroke="#63b8ff" d="M336.57,-287.15C342.72,-289.93 348.67,-293.19 354,-297 375.41,-312.3 367.88,-329.75 390,-344 392.59,-345.67 395.28,-347.22 398.06,-348.67"/>
<polygon fill="#63b8ff" stroke="#63b8ff" points="396.61,-351.86 407.15,-352.93 399.58,-345.52 396.61,-351.86"/>
</g>
<!-- Node9 -->
<g id="node9" class="node">
<title>Node9</title>
<g id="a_node9"><a target="_parent" xlink:href="https://doc.qt.io/qt-5/qcommandlineparser.html#optionNames" xlink:title=" ">
<polygon fill="white" stroke="#666666" points="557,-335 432,-335 432,-305 557,-305 557,-335"/>
<text text-anchor="start" x="440" y="-323" font-family="Helvetica,sans-Serif" font-size="10.00">QCommandLineParser</text>
<text text-anchor="middle" x="494.5" y="-312" font-family="Helvetica,sans-Serif" font-size="10.00">::optionNames</text>
</a>
</g>
</g>
<!-- Node3&#45;&gt;Node9 -->
<g id="edge8" class="edge">
<title>Node3&#45;&gt;Node9</title>
<path fill="none" stroke="#63b8ff" d="M346.62,-287.06C370.54,-292.42 397.56,-298.48 421.84,-303.93"/>
<polygon fill="#63b8ff" stroke="#63b8ff" points="421.18,-307.37 431.71,-306.14 422.72,-300.54 421.18,-307.37"/>
</g>
<!-- Node10 -->
<g id="node10" class="node">
<title>Node10</title>
<g id="a_node10"><a xlink:href="classAbstractCommand.html#ab18bb57fe68534739f63c994330a29c2" target="_top" xlink:title="Returns value as a number of millis, such as milliseconds, or millivolts.">
<polygon fill="white" stroke="#666666" points="575,-287 414,-287 414,-257 575,-257 575,-287"/>
<text text-anchor="start" x="422" y="-275" font-family="Helvetica,sans-Serif" font-size="10.00">AbstractCommand::parseMilli</text>
<text text-anchor="middle" x="494.5" y="-264" font-family="Helvetica,sans-Serif" font-size="10.00">Value</text>
</a>
</g>
</g>
<!-- Node3&#45;&gt;Node10 -->
<g id="edge9" class="edge">
<title>Node3&#45;&gt;Node10</title>
<path fill="none" stroke="#63b8ff" d="M354.05,-272C370.03,-272 387.08,-272 403.57,-272"/>
<polygon fill="#63b8ff" stroke="#63b8ff" points="403.76,-275.5 413.76,-272 403.76,-268.5 403.76,-275.5"/>
</g>
<!-- Node18 -->
<g id="node18" class="node">
<title>Node18</title>
<g id="a_node18"><a xlink:href="classAbstractCommand.html#afd6f41cfc925751415cfa45e3b2d0b4a" target="_top" xlink:title="Returns a list of CLI option names required by this command.">
<polygon fill="white" stroke="#666666" points="789,-153 635,-153 635,-123 789,-123 789,-153"/>
<text text-anchor="start" x="643" y="-141" font-family="Helvetica,sans-Serif" font-size="10.00">AbstractCommand::required</text>
<text text-anchor="middle" x="712" y="-130" font-family="Helvetica,sans-Serif" font-size="10.00">Options</text>
</a>
</g>
</g>
<!-- Node3&#45;&gt;Node18 -->
<g id="edge17" class="edge">
<title>Node3&#45;&gt;Node18</title>
<path fill="none" stroke="#63b8ff" d="M346.92,-256.98C361.13,-253.92 376.04,-250.78 390,-248 482.59,-229.53 518.69,-259.64 599,-210 621.68,-195.98 613.24,-177.42 635,-162 637.12,-160.49 639.35,-159.08 641.64,-157.75"/>
<polygon fill="#63b8ff" stroke="#63b8ff" points="643.5,-160.73 650.79,-153.05 640.3,-154.51 643.5,-160.73"/>
</g>
<!-- Node19 -->
<g id="node19" class="node">
<title>Node19</title>
<g id="a_node19"><a target="_parent" xlink:href="https://doc.qt.io/qt-5/qbluetoothdevicediscoveryagent.html#setLowEnergyDiscoveryTimeout" xlink:title=" ">
<polygon fill="white" stroke="#666666" points="599,-201 390,-201 390,-171 599,-171 599,-201"/>
<text text-anchor="start" x="398" y="-189" font-family="Helvetica,sans-Serif" font-size="10.00">QBluetoothDeviceDiscovery</text>
<text text-anchor="middle" x="494.5" y="-178" font-family="Helvetica,sans-Serif" font-size="10.00">Agent::setLowEnergyDiscoveryTimeout</text>
</a>
</g>
</g>
<!-- Node3&#45;&gt;Node19 -->
<g id="edge18" class="edge">
<title>Node3&#45;&gt;Node19</title>
<path fill="none" stroke="#63b8ff" d="M305.15,-256.87C327.11,-244.38 359.87,-226.85 390,-215 400.17,-211 411.11,-207.31 421.92,-204"/>
<polygon fill="#63b8ff" stroke="#63b8ff" points="423.21,-207.27 431.8,-201.07 421.22,-200.56 423.21,-207.27"/>
</g>
<!-- Node20 -->
<g id="node20" class="node">
<title>Node20</title>
<g id="a_node20"><a xlink:href="classAbstractCommand.html#a1ceca3c5b4cb24277dd4d4054f45db18" target="_top" xlink:title="Returns a list of CLI option names supported by this command.">
<polygon fill="white" stroke="#666666" points="575.5,-153 413.5,-153 413.5,-123 575.5,-123 575.5,-153"/>
<text text-anchor="start" x="421.5" y="-141" font-family="Helvetica,sans-Serif" font-size="10.00">AbstractCommand::supported</text>
<text text-anchor="middle" x="494.5" y="-130" font-family="Helvetica,sans-Serif" font-size="10.00">Options</text>
</a>
</g>
</g>
<!-- Node3&#45;&gt;Node20 -->
<g id="edge19" class="edge">
<title>Node3&#45;&gt;Node20</title>
<path fill="none" stroke="#63b8ff" d="M290.17,-256.91C307.99,-232.9 346.19,-186.25 390,-162 394.43,-159.55 399.09,-157.35 403.89,-155.37"/>
<polygon fill="#63b8ff" stroke="#63b8ff" points="405.15,-158.64 413.27,-151.84 402.68,-152.09 405.15,-158.64"/>
</g>
<!-- Node21 -->
<g id="node21" class="node">
<title>Node21</title>
<g id="a_node21"><a target="_parent" xlink:href="https://doc.qt.io/qt-5/qstring.html#toLower" xlink:title=" ">
<polygon fill="white" stroke="#666666" points="543.5,-104.5 445.5,-104.5 445.5,-85.5 543.5,-85.5 543.5,-104.5"/>
<text text-anchor="middle" x="494.5" y="-92.5" font-family="Helvetica,sans-Serif" font-size="10.00">QString::toLower</text>
</a>
</g>
</g>
<!-- Node3&#45;&gt;Node21 -->
<g id="edge21" class="edge">
<title>Node3&#45;&gt;Node21</title>
<path fill="none" stroke="#63b8ff" d="M285.36,-256.86C298.63,-224.75 334.24,-149.82 390,-114 403.37,-105.41 419.59,-100.47 435.19,-97.68"/>
<polygon fill="#63b8ff" stroke="#63b8ff" points="435.96,-101.11 445.32,-96.14 434.91,-94.18 435.96,-101.11"/>
</g>
<!-- Node22 -->
<g id="node22" class="node">
<title>Node22</title>
<g id="a_node22"><a target="_parent" xlink:href="https://doc.qt.io/qt-5/qobject.html#tr" xlink:title=" ">
<polygon fill="white" stroke="#666666" points="529,-67.5 460,-67.5 460,-48.5 529,-48.5 529,-67.5"/>
<text text-anchor="middle" x="494.5" y="-55.5" font-family="Helvetica,sans-Serif" font-size="10.00">QObject::tr</text>
</a>
</g>
</g>
<!-- Node3&#45;&gt;Node22 -->
<g id="edge22" class="edge">
<title>Node3&#45;&gt;Node22</title>
<path fill="none" stroke="#63b8ff" d="M283.19,-256.99C293.23,-219.61 324.74,-122.08 390,-76 407.25,-63.82 430.08,-58.97 449.9,-57.32"/>
<polygon fill="#63b8ff" stroke="#63b8ff" points="450.18,-60.81 459.95,-56.73 449.76,-53.82 450.18,-60.81"/>
</g>
<!-- Node23 -->
<g id="node23" class="node">
<title>Node23</title>
<g id="a_node23"><a target="_parent" xlink:href="https://doc.qt.io/qt-5/qcommandlineparser.html#value" xlink:title=" ">
<polygon fill="white" stroke="#666666" points="557,-30 432,-30 432,0 557,0 557,-30"/>
<text text-anchor="start" x="440" y="-18" font-family="Helvetica,sans-Serif" font-size="10.00">QCommandLineParser</text>
<text text-anchor="middle" x="494.5" y="-7" font-family="Helvetica,sans-Serif" font-size="10.00">::value</text>
</a>
</g>
</g>
<!-- Node3&#45;&gt;Node23 -->
<g id="edge23" class="edge">
<title>Node3&#45;&gt;Node23</title>
<path fill="none" stroke="#63b8ff" d="M281.99,-256.96C289.72,-215.28 317.29,-97.54 390,-39 399.32,-31.5 410.55,-26.26 422.14,-22.61"/>
<polygon fill="#63b8ff" stroke="#63b8ff" points="423.21,-25.95 431.92,-19.91 421.35,-19.2 423.21,-25.95"/>
</g>
<!-- Node11 -->
<g id="node11" class="node">
<title>Node11</title>
<g id="a_node11"><a target="_parent" xlink:href="https://doc.qt.io/qt-5/qstring.html#chop" xlink:title=" ">
<polygon fill="white" stroke="#666666" points="753,-412.5 671,-412.5 671,-393.5 753,-393.5 753,-412.5"/>
<text text-anchor="middle" x="712" y="-400.5" font-family="Helvetica,sans-Serif" font-size="10.00">QString::chop</text>
</a>
</g>
</g>
<!-- Node10&#45;&gt;Node11 -->
<g id="edge10" class="edge">
<title>Node10&#45;&gt;Node11</title>
<path fill="none" stroke="#63b8ff" d="M575.08,-281.97C583.77,-285.44 591.99,-290.01 599,-296 631.44,-323.72 602.63,-357.2 635,-385 642.33,-391.29 651.47,-395.48 660.84,-398.24"/>
<polygon fill="#63b8ff" stroke="#63b8ff" points="660.08,-401.66 670.62,-400.63 661.74,-394.86 660.08,-401.66"/>
</g>
<!-- Node12 -->
<g id="node12" class="node">
<title>Node12</title>
<g id="a_node12"><a target="_parent" xlink:href="https://doc.qt.io/qt-5/qstring.html#endsWith" xlink:title=" ">
<polygon fill="white" stroke="#666666" points="764,-375.5 660,-375.5 660,-356.5 764,-356.5 764,-375.5"/>
<text text-anchor="middle" x="712" y="-363.5" font-family="Helvetica,sans-Serif" font-size="10.00">QString::endsWith</text>
</a>
</g>
</g>
<!-- Node10&#45;&gt;Node12 -->
<g id="edge11" class="edge">
<title>Node10&#45;&gt;Node12</title>
<path fill="none" stroke="#63b8ff" d="M575.21,-284.03C583.63,-287.16 591.75,-291.08 599,-296 622.25,-311.79 611.78,-332.15 635,-348 639.62,-351.15 644.72,-353.76 650.04,-355.91"/>
<polygon fill="#63b8ff" stroke="#63b8ff" points="649.17,-359.31 659.76,-359.31 651.48,-352.7 649.17,-359.31"/>
</g>
<!-- Node13 -->
<g id="node13" class="node">
<title>Node13</title>
<g id="a_node13"><a target="_parent" xlink:href="https://doc.qt.io/qt-5/qstring.html#isEmpty" xlink:title=" ">
<polygon fill="white" stroke="#666666" points="761,-338.5 663,-338.5 663,-319.5 761,-319.5 761,-338.5"/>
<text text-anchor="middle" x="712" y="-326.5" font-family="Helvetica,sans-Serif" font-size="10.00">QString::isEmpty</text>
</a>
</g>
</g>
<!-- Node10&#45;&gt;Node13 -->
<g id="edge12" class="edge">
<title>Node10&#45;&gt;Node13</title>
<path fill="none" stroke="#63b8ff" d="M567.47,-287.05C578.12,-289.75 588.9,-292.75 599,-296 615.5,-301.31 618.51,-305.65 635,-311 641.5,-313.11 648.38,-315.08 655.25,-316.9"/>
<polygon fill="#63b8ff" stroke="#63b8ff" points="654.7,-320.37 665.25,-319.44 656.42,-313.58 654.7,-320.37"/>
</g>
<!-- Node14 -->
<g id="node14" class="node">
<title>Node14</title>
<g id="a_node14"><a target="_parent" xlink:href="https://doc.qt.io/qt-5/qstring.html#length" xlink:title=" ">
<polygon fill="white" stroke="#666666" points="756.5,-301.5 667.5,-301.5 667.5,-282.5 756.5,-282.5 756.5,-301.5"/>
<text text-anchor="middle" x="712" y="-289.5" font-family="Helvetica,sans-Serif" font-size="10.00">QString::length</text>
</a>
</g>
</g>
<!-- Node10&#45;&gt;Node14 -->
<g id="edge13" class="edge">
<title>Node10&#45;&gt;Node14</title>
<path fill="none" stroke="#63b8ff" d="M575.13,-279.39C602.41,-281.92 632.27,-284.69 657.03,-286.99"/>
<polygon fill="#63b8ff" stroke="#63b8ff" points="657.03,-290.51 667.31,-287.95 657.68,-283.54 657.03,-290.51"/>
</g>
<!-- Node15 -->
<g id="node15" class="node">
<title>Node15</title>
<g id="a_node15"><a target="_parent" xlink:href="https://doc.qt.io/qt-5/qlocale.html#toDouble" xlink:title=" ">
<polygon fill="white" stroke="#666666" points="765,-264.5 659,-264.5 659,-245.5 765,-245.5 765,-264.5"/>
<text text-anchor="middle" x="712" y="-252.5" font-family="Helvetica,sans-Serif" font-size="10.00">QLocale::toDouble</text>
</a>
</g>
</g>
<!-- Node10&#45;&gt;Node15 -->
<g id="edge14" class="edge">
<title>Node10&#45;&gt;Node15</title>
<path fill="none" stroke="#63b8ff" d="M575.13,-265.72C599.36,-263.81 625.62,-261.74 648.54,-259.93"/>
<polygon fill="#63b8ff" stroke="#63b8ff" points="649.13,-263.39 658.82,-259.12 648.58,-256.41 649.13,-263.39"/>
</g>
<!-- Node16 -->
<g id="node16" class="node">
<title>Node16</title>
<g id="a_node16"><a target="_parent" xlink:href="https://doc.qt.io/qt-5/qlocale.html#toUInt" xlink:title=" ">
<polygon fill="white" stroke="#666666" points="758,-227.5 666,-227.5 666,-208.5 758,-208.5 758,-227.5"/>
<text text-anchor="middle" x="712" y="-215.5" font-family="Helvetica,sans-Serif" font-size="10.00">QLocale::toUInt</text>
</a>
</g>
</g>
<!-- Node10&#45;&gt;Node16 -->
<g id="edge15" class="edge">
<title>Node10&#45;&gt;Node16</title>
<path fill="none" stroke="#63b8ff" d="M555.58,-256.91C580.19,-250.74 608.96,-243.52 635,-237 644.01,-234.74 653.62,-232.34 662.87,-230.03"/>
<polygon fill="#63b8ff" stroke="#63b8ff" points="663.87,-233.38 672.73,-227.56 662.17,-226.59 663.87,-233.38"/>
</g>
<!-- Node17 -->
<g id="node17" class="node">
<title>Node17</title>
<g id="a_node17"><a target="_parent" xlink:href="https://doc.qt.io/qt-5/qstring.html#trimmed" xlink:title=" ">
<polygon fill="white" stroke="#666666" points="762.5,-190.5 661.5,-190.5 661.5,-171.5 762.5,-171.5 762.5,-190.5"/>
<text text-anchor="middle" x="712" y="-178.5" font-family="Helvetica,sans-Serif" font-size="10.00">QString::trimmed</text>
</a>
</g>
</g>
<!-- Node10&#45;&gt;Node17 -->
<g id="edge16" class="edge">
<title>Node10&#45;&gt;Node17</title>
<path fill="none" stroke="#63b8ff" d="M570.24,-256.94C580.33,-253.25 590.22,-248.67 599,-243 619.94,-229.48 613.87,-213.23 635,-200 640.1,-196.81 645.7,-194.15 651.48,-191.95"/>
<polygon fill="#63b8ff" stroke="#63b8ff" points="652.96,-195.14 661.32,-188.63 650.73,-188.51 652.96,-195.14"/>
</g>
<!-- Node20&#45;&gt;Node18 -->
<g id="edge20" class="edge">
<title>Node20&#45;&gt;Node18</title>
<path fill="none" stroke="#63b8ff" d="M575.74,-138C591.8,-138 608.73,-138 624.97,-138"/>
<polygon fill="#63b8ff" stroke="#63b8ff" points="624.98,-141.5 634.98,-138 624.98,-134.5 624.98,-141.5"/>
</g>
</g>
</svg>
