<?xml version="1.0" encoding="UTF-8" standalone="no"?>
<!DOCTYPE svg PUBLIC "-//W3C//DTD SVG 1.1//EN"
 "http://www.w3.org/Graphics/SVG/1.1/DTD/svg11.dtd">
<!-- Generated by graphviz version 2.43.0 (0)
 -->
<!-- Title: AbstractPokitServicePrivate::disableCharacteristicNotificatons Pages: 1 -->
<svg width="784pt" height="509pt"
 viewBox="0.00 0.00 784.00 508.66" xmlns="http://www.w3.org/2000/svg" xmlns:xlink="http://www.w3.org/1999/xlink">
<g id="graph0" class="graph" transform="scale(1 1) rotate(0) translate(4 504.66)">
<title>AbstractPokitServicePrivate::disableCharacteristicNotificatons</title>
<!-- Node1 -->
<g id="Node000001" class="node">
<title>Node1</title>
<g id="a_Node000001"><a xlink:title="Disables client (Pokit device) side notification for characteristic uuid.">
<polygon fill="#999999" stroke="#666666" points="184,-284 0,-284 0,-254 184,-254 184,-284"/>
<text text-anchor="start" x="8" y="-272" font-family="Helvetica,sans-Serif" font-size="10.00">AbstractPokitServicePrivate</text>
<text text-anchor="middle" x="92" y="-261" font-family="Helvetica,sans-Serif" font-size="10.00">::disableCharacteristicNotificatons</text>
</a>
</g>
</g>
<!-- Node2 -->
<g id="Node000002" class="node">
<title>Node2</title>
<g id="a_Node000002"><a target="_parent" xlink:href="https://doc.qt.io/qt-5/qstring.html#arg-1" xlink:title=" ">
<polygon fill="white" stroke="#666666" points="522.5,-444.5 448.5,-444.5 448.5,-425.5 522.5,-425.5 522.5,-444.5"/>
<text text-anchor="middle" x="485.5" y="-432.5" font-family="Helvetica,sans-Serif" font-size="10.00">QString::arg</text>
</a>
</g>
</g>
<!-- Node1&#45;&gt;Node2 -->
<g id="edge1_Node000001_Node000002" class="edge">
<title>Node1&#45;&gt;Node2</title>
<g id="a_edge1_Node000001_Node000002"><a xlink:title=" ">
<path fill="none" stroke="#63b8ff" d="M104.41,-284.19C124.63,-309.91 169.4,-361.67 220,-387 291.45,-422.77 385.64,-432.16 440.19,-434.46"/>
<polygon fill="#63b8ff" stroke="#63b8ff" points="448.27,-434.76 440.14,-438.06 444.27,-434.61 440.27,-434.47 440.27,-434.47 440.27,-434.47 444.27,-434.61 440.41,-430.87 448.27,-434.76 448.27,-434.76"/>
</a>
</g>
</g>
<!-- Node3 -->
<g id="Node000003" class="node">
<title>Node3</title>
<g id="a_Node000003"><a xlink:href="classPokitDevice.html#a0a3e6078ce0a7c2d93171ef0f4183d61" target="_top" xlink:title="Returns a human&#45;readable name for the uuid characteristic, or a null QString if unknown.">
<polygon fill="white" stroke="#666666" points="556,-91 415,-91 415,-61 556,-61 556,-91"/>
<text text-anchor="start" x="423" y="-79" font-family="Helvetica,sans-Serif" font-size="10.00">PokitDevice::charcteristic</text>
<text text-anchor="middle" x="485.5" y="-68" font-family="Helvetica,sans-Serif" font-size="10.00">ToString</text>
</a>
</g>
</g>
<!-- Node1&#45;&gt;Node3 -->
<g id="edge2_Node000001_Node000003" class="edge">
<title>Node1&#45;&gt;Node3</title>
<g id="a_edge2_Node000001_Node000003"><a xlink:title=" ">
<path fill="none" stroke="#63b8ff" d="M133.38,-253.94C158.23,-244.86 190.8,-233.29 220,-224 286.9,-202.71 318.95,-226.98 372,-181 401.77,-155.2 378.6,-126.22 408,-100 409.8,-98.39 411.71,-96.89 413.7,-95.49"/>
<polygon fill="#63b8ff" stroke="#63b8ff" points="420.77,-91.11 415.87,-98.39 417.37,-93.22 413.97,-95.33 413.97,-95.33 413.97,-95.33 417.37,-93.22 412.07,-92.27 420.77,-91.11 420.77,-91.11"/>
</a>
</g>
</g>
<!-- Node6 -->
<g id="Node000006" class="node">
<title>Node6</title>
<g id="a_Node000006"><a target="_parent" xlink:href="https://doc.qt.io/qt-5/qobject.html#tr" xlink:title=" ">
<polygon fill="white" stroke="#666666" points="722,-190.5 653,-190.5 653,-171.5 722,-171.5 722,-190.5"/>
<text text-anchor="middle" x="687.5" y="-178.5" font-family="Helvetica,sans-Serif" font-size="10.00">QObject::tr</text>
</a>
</g>
</g>
<!-- Node1&#45;&gt;Node6 -->
<g id="edge27_Node000001_Node000006" class="edge">
<title>Node1&#45;&gt;Node6</title>
<g id="a_edge27_Node000001_Node000006"><a xlink:title=" ">
<path fill="none" stroke="#63b8ff" d="M100.78,-284.1C117.76,-315.36 161.35,-387.09 220,-421 352.58,-497.66 434.31,-537.03 563,-454 654.75,-394.8 679.07,-249.15 684.85,-198.61"/>
<polygon fill="#63b8ff" stroke="#63b8ff" points="685.71,-190.58 688.44,-198.91 685.28,-194.56 684.86,-198.53 684.86,-198.53 684.86,-198.53 685.28,-194.56 681.28,-198.15 685.71,-190.58 685.71,-190.58"/>
</a>
</g>
</g>
<!-- Node8 -->
<g id="Node000008" class="node">
<title>Node8</title>
<g id="a_Node000008"><a target="_parent" xlink:href="https://doc.qt.io/qt-5/qlowenergycharacteristic.html#descriptor" xlink:title=" ">
<polygon fill="white" stroke="#666666" points="368.5,-349 223.5,-349 223.5,-319 368.5,-319 368.5,-349"/>
<text text-anchor="start" x="231.5" y="-337" font-family="Helvetica,sans-Serif" font-size="10.00">QLowEnergyCharacteristic</text>
<text text-anchor="middle" x="296" y="-326" font-family="Helvetica,sans-Serif" font-size="10.00">::descriptor</text>
</a>
</g>
</g>
<!-- Node1&#45;&gt;Node8 -->
<g id="edge7_Node000001_Node000008" class="edge">
<title>Node1&#45;&gt;Node8</title>
<g id="a_edge7_Node000001_Node000008"><a xlink:title=" ">
<path fill="none" stroke="#63b8ff" d="M139.44,-284.02C163.48,-291.79 193.31,-301.42 220,-310 226.45,-312.07 233.22,-314.25 239.94,-316.4"/>
<polygon fill="#63b8ff" stroke="#63b8ff" points="247.78,-318.91 239.07,-319.9 243.98,-317.69 240.17,-316.47 240.17,-316.47 240.17,-316.47 243.98,-317.69 241.26,-313.04 247.78,-318.91 247.78,-318.91"/>
</a>
</g>
</g>
<!-- Node9 -->
<g id="Node000009" class="node">
<title>Node9</title>
<g id="a_Node000009"><a target="_parent" xlink:href="https://doc.qt.io/qt-5/qbytearray.html#fromHex" xlink:title=" ">
<polygon fill="white" stroke="#666666" points="356.5,-300.5 235.5,-300.5 235.5,-281.5 356.5,-281.5 356.5,-300.5"/>
<text text-anchor="middle" x="296" y="-288.5" font-family="Helvetica,sans-Serif" font-size="10.00">QByteArray::fromHex</text>
</a>
</g>
</g>
<!-- Node1&#45;&gt;Node9 -->
<g id="edge8_Node000001_Node000009" class="edge">
<title>Node1&#45;&gt;Node9</title>
<g id="a_edge8_Node000001_Node000009"><a xlink:title=" ">
<path fill="none" stroke="#63b8ff" d="M184.25,-278.94C198.76,-280.52 213.54,-282.13 227.37,-283.63"/>
<polygon fill="#63b8ff" stroke="#63b8ff" points="235.4,-284.51 227.06,-287.22 231.43,-284.08 227.45,-283.64 227.45,-283.64 227.45,-283.64 231.43,-284.08 227.84,-280.06 235.4,-284.51 235.4,-284.51"/>
</a>
</g>
</g>
<!-- Node10 -->
<g id="Node000010" class="node">
<title>Node10</title>
<g id="a_Node000010"><a xlink:href="classAbstractPokitServicePrivate.html#aaac3ef8e3590334acdddb2b029865eb0" target="_top" xlink:title="Get uuid characteristic from the underlying service.">
<polygon fill="white" stroke="#666666" points="372,-263 220,-263 220,-233 372,-233 372,-263"/>
<text text-anchor="start" x="228" y="-251" font-family="Helvetica,sans-Serif" font-size="10.00">AbstractPokitServicePrivate</text>
<text text-anchor="middle" x="296" y="-240" font-family="Helvetica,sans-Serif" font-size="10.00">::getCharacteristic</text>
</a>
</g>
</g>
<!-- Node1&#45;&gt;Node10 -->
<g id="edge9_Node000001_Node000010" class="edge">
<title>Node1&#45;&gt;Node10</title>
<g id="a_edge9_Node000001_Node000010"><a xlink:title=" ">
<path fill="none" stroke="#63b8ff" d="M184.25,-259.51C193.47,-258.56 202.8,-257.59 211.92,-256.64"/>
<polygon fill="#63b8ff" stroke="#63b8ff" points="219.88,-255.81 212.3,-260.22 215.9,-256.22 211.93,-256.64 211.93,-256.64 211.93,-256.64 215.9,-256.22 211.55,-253.06 219.88,-255.81 219.88,-255.81"/>
</a>
</g>
</g>
<!-- Node12 -->
<g id="Node000012" class="node">
<title>Node12</title>
<g id="a_Node000012"><a target="_parent" xlink:href="https://doc.qt.io/qt-5/qlowenergycharacteristic.html#isValid" xlink:title=" ">
<polygon fill="white" stroke="#666666" points="558,-407 413,-407 413,-377 558,-377 558,-407"/>
<text text-anchor="start" x="421" y="-395" font-family="Helvetica,sans-Serif" font-size="10.00">QLowEnergyCharacteristic</text>
<text text-anchor="middle" x="485.5" y="-384" font-family="Helvetica,sans-Serif" font-size="10.00">::isValid</text>
</a>
</g>
</g>
<!-- Node1&#45;&gt;Node12 -->
<g id="edge24_Node000001_Node000012" class="edge">
<title>Node1&#45;&gt;Node12</title>
<g id="a_edge24_Node000001_Node000012"><a xlink:title=" ">
<path fill="none" stroke="#63b8ff" d="M109.12,-284.28C131.86,-304.83 175.56,-340.79 220,-358 279.24,-380.94 350.95,-389.06 404.76,-391.65"/>
<polygon fill="#63b8ff" stroke="#63b8ff" points="412.9,-392.01 404.75,-395.26 408.9,-391.83 404.91,-391.66 404.91,-391.66 404.91,-391.66 408.9,-391.83 405.07,-388.06 412.9,-392.01 412.9,-392.01"/>
</a>
</g>
</g>
<!-- Node18 -->
<g id="Node000018" class="node">
<title>Node18</title>
<g id="a_Node000018"><a target="_parent" xlink:href="https://doc.qt.io/qt-5/quuid.html#toString" xlink:title=" ">
<polygon fill="white" stroke="#666666" points="531,-42.5 440,-42.5 440,-23.5 531,-23.5 531,-42.5"/>
<text text-anchor="middle" x="485.5" y="-30.5" font-family="Helvetica,sans-Serif" font-size="10.00">QUuid::toString</text>
</a>
</g>
</g>
<!-- Node1&#45;&gt;Node18 -->
<g id="edge26_Node000001_Node000018" class="edge">
<title>Node1&#45;&gt;Node18</title>
<g id="a_edge26_Node000001_Node000018"><a xlink:title=" ">
<path fill="none" stroke="#63b8ff" d="M110.17,-253.76C133.41,-233.96 176.95,-199.71 220,-181 283.4,-153.45 319.71,-193.21 372,-148 406.47,-118.2 373.98,-82.31 408,-52 414.8,-45.95 423.23,-41.75 431.98,-38.87"/>
<polygon fill="#63b8ff" stroke="#63b8ff" points="439.72,-36.65 433.02,-42.31 435.88,-37.75 432.03,-38.85 432.03,-38.85 432.03,-38.85 435.88,-37.75 431.04,-35.39 439.72,-36.65 439.72,-36.65"/>
</a>
</g>
</g>
<!-- Node19 -->
<g id="Node000019" class="node">
<title>Node19</title>
<g id="a_Node000019"><a target="_parent" xlink:href="https://doc.qt.io/qt-5/qlowenergydescriptor.html#isValid" xlink:title=" ">
<polygon fill="white" stroke="#666666" points="360,-139 232,-139 232,-109 360,-109 360,-139"/>
<text text-anchor="start" x="240" y="-127" font-family="Helvetica,sans-Serif" font-size="10.00">QLowEnergyDescriptor</text>
<text text-anchor="middle" x="296" y="-116" font-family="Helvetica,sans-Serif" font-size="10.00">::isValid</text>
</a>
</g>
</g>
<!-- Node1&#45;&gt;Node19 -->
<g id="edge25_Node000001_Node000019" class="edge">
<title>Node1&#45;&gt;Node19</title>
<g id="a_edge25_Node000001_Node000019"><a xlink:title=" ">
<path fill="none" stroke="#63b8ff" d="M106.05,-253.89C127.63,-229.71 173.04,-182.09 220,-153 226.36,-149.06 233.35,-145.5 240.42,-142.33"/>
<polygon fill="#63b8ff" stroke="#63b8ff" points="248.1,-139.04 242.16,-145.5 244.42,-140.62 240.74,-142.19 240.74,-142.19 240.74,-142.19 244.42,-140.62 239.33,-138.88 248.1,-139.04 248.1,-139.04"/>
</a>
</g>
</g>
<!-- Node20 -->
<g id="Node000020" class="node">
<title>Node20</title>
<g id="a_Node000020"><a target="_parent" xlink:href="https://doc.qt.io/qt-5/qlowenergyservice.html#writeDescriptor" xlink:title=" ">
<polygon fill="white" stroke="#666666" points="355.5,-91 236.5,-91 236.5,-61 355.5,-61 355.5,-91"/>
<text text-anchor="start" x="244.5" y="-79" font-family="Helvetica,sans-Serif" font-size="10.00">QLowEnergyService::</text>
<text text-anchor="middle" x="296" y="-68" font-family="Helvetica,sans-Serif" font-size="10.00">writeDescriptor</text>
</a>
</g>
</g>
<!-- Node1&#45;&gt;Node20 -->
<g id="edge28_Node000001_Node000020" class="edge">
<title>Node1&#45;&gt;Node20</title>
<g id="a_edge28_Node000001_Node000020"><a xlink:title=" ">
<path fill="none" stroke="#63b8ff" d="M100.23,-253.89C116.75,-220.97 160.47,-142.32 220,-100 222.9,-97.94 225.98,-96.05 229.18,-94.32"/>
<polygon fill="#63b8ff" stroke="#63b8ff" points="236.36,-90.77 230.78,-97.54 232.77,-92.54 229.19,-94.32 229.19,-94.32 229.19,-94.32 232.77,-92.54 227.59,-91.09 236.36,-90.77 236.36,-90.77"/>
</a>
</g>
</g>
<!-- Node4 -->
<g id="Node000004" class="node">
<title>Node4</title>
<g id="a_Node000004"><a target="_parent" xlink:href="https://doc.qt.io/qt-5/qbluetoothuuid.html#characteristicToString" xlink:title=" ">
<polygon fill="white" stroke="#666666" points="770.5,-30 604.5,-30 604.5,0 770.5,0 770.5,-30"/>
<text text-anchor="start" x="612.5" y="-18" font-family="Helvetica,sans-Serif" font-size="10.00">QBluetoothUuid::characteristic</text>
<text text-anchor="middle" x="687.5" y="-7" font-family="Helvetica,sans-Serif" font-size="10.00">ToString</text>
</a>
</g>
</g>
<!-- Node3&#45;&gt;Node4 -->
<g id="edge3_Node000003_Node000004" class="edge">
<title>Node3&#45;&gt;Node4</title>
<g id="a_edge3_Node000003_Node000004"><a xlink:title=" ">
<path fill="none" stroke="#63b8ff" d="M532.63,-60.97C542.65,-57.7 553.18,-54.24 563,-51 579.02,-45.71 582.86,-43.9 599,-39 606.46,-36.74 614.31,-34.45 622.11,-32.23"/>
<polygon fill="#63b8ff" stroke="#63b8ff" points="629.89,-30.05 623.16,-35.68 626.04,-31.13 622.19,-32.21 622.19,-32.21 622.19,-32.21 626.04,-31.13 621.21,-28.75 629.89,-30.05 629.89,-30.05"/>
</a>
</g>
</g>
<!-- Node5 -->
<g id="Node000005" class="node">
<title>Node5</title>
<g id="a_Node000005"><a target="_parent" xlink:href="https://doc.qt.io/qt-5/qbluetoothuuid.html#QBluetoothUuid" xlink:title=" ">
<polygon fill="white" stroke="#666666" points="776,-104.5 599,-104.5 599,-85.5 776,-85.5 776,-104.5"/>
<text text-anchor="middle" x="687.5" y="-92.5" font-family="Helvetica,sans-Serif" font-size="10.00">QBluetoothUuid::QBluetoothUuid</text>
</a>
</g>
</g>
<!-- Node3&#45;&gt;Node5 -->
<g id="edge4_Node000003_Node000005" class="edge">
<title>Node3&#45;&gt;Node5</title>
<g id="a_edge4_Node000003_Node000005"><a xlink:title=" ">
<path fill="none" stroke="#63b8ff" d="M556.17,-82.62C567.34,-83.68 579.08,-84.79 590.73,-85.9"/>
<polygon fill="#63b8ff" stroke="#63b8ff" points="598.78,-86.67 590.48,-89.49 594.8,-86.29 590.82,-85.91 590.82,-85.91 590.82,-85.91 594.8,-86.29 591.16,-82.33 598.78,-86.67 598.78,-86.67"/>
</a>
</g>
</g>
<!-- Node3&#45;&gt;Node6 -->
<g id="edge5_Node000003_Node000006" class="edge">
<title>Node3&#45;&gt;Node6</title>
<g id="a_edge5_Node000003_Node000006"><a xlink:title=" ">
<path fill="none" stroke="#63b8ff" d="M548.69,-91C553.79,-93.55 558.65,-96.52 563,-100 587.89,-119.9 573.24,-143.25 599,-162 612.16,-171.58 629.2,-176.5 644.74,-178.98"/>
<polygon fill="#63b8ff" stroke="#63b8ff" points="652.7,-180.06 644.29,-182.55 648.74,-179.52 644.78,-178.98 644.78,-178.98 644.78,-178.98 648.74,-179.52 645.26,-175.41 652.7,-180.06 652.7,-180.06"/>
</a>
</g>
</g>
<!-- Node7 -->
<g id="Node000007" class="node">
<title>Node7</title>
<g id="a_Node000007"><a target="_parent" xlink:href="https://doc.qt.io/qt-5/qhash.html#value" xlink:title=" ">
<polygon fill="white" stroke="#666666" points="728.5,-67.5 646.5,-67.5 646.5,-48.5 728.5,-48.5 728.5,-67.5"/>
<text text-anchor="middle" x="687.5" y="-55.5" font-family="Helvetica,sans-Serif" font-size="10.00">QHash::value</text>
</a>
</g>
</g>
<!-- Node3&#45;&gt;Node7 -->
<g id="edge6_Node000003_Node000007" class="edge">
<title>Node3&#45;&gt;Node7</title>
<g id="a_edge6_Node000003_Node000007"><a xlink:title=" ">
<path fill="none" stroke="#63b8ff" d="M556.17,-69.73C583.31,-67.29 613.75,-64.55 638.38,-62.33"/>
<polygon fill="#63b8ff" stroke="#63b8ff" points="646.5,-61.6 638.85,-65.9 642.51,-61.96 638.53,-62.32 638.53,-62.32 638.53,-62.32 642.51,-61.96 638.21,-58.73 646.5,-61.6 646.5,-61.6"/>
</a>
</g>
</g>
<!-- Node10&#45;&gt;Node2 -->
<g id="edge10_Node000010_Node000002" class="edge">
<title>Node10&#45;&gt;Node2</title>
<g id="a_edge10_Node000010_Node000002"><a xlink:title=" ">
<path fill="none" stroke="#63b8ff" d="M359.82,-263.19C364.31,-265.94 368.45,-269.18 372,-273 416.57,-321.05 361.58,-369.73 408,-416 416.58,-424.56 428.38,-429.47 440.15,-432.23"/>
<polygon fill="#63b8ff" stroke="#63b8ff" points="448.25,-433.82 439.7,-435.81 444.32,-433.05 440.4,-432.28 440.4,-432.28 440.4,-432.28 444.32,-433.05 441.09,-428.74 448.25,-433.82 448.25,-433.82"/>
</a>
</g>
</g>
<!-- Node10&#45;&gt;Node3 -->
<g id="edge12_Node000010_Node000003" class="edge">
<title>Node10&#45;&gt;Node3</title>
<g id="a_edge12_Node000010_Node000003"><a xlink:title=" ">
<path fill="none" stroke="#63b8ff" d="M353.45,-232.85C360.34,-229.18 366.78,-224.63 372,-219 409.58,-178.49 369.13,-139.27 408,-100 409.5,-98.49 411.09,-97.07 412.76,-95.74"/>
<polygon fill="#63b8ff" stroke="#63b8ff" points="419.56,-91.04 415.03,-98.55 416.27,-93.31 412.98,-95.59 412.98,-95.59 412.98,-95.59 416.27,-93.31 410.93,-92.62 419.56,-91.04 419.56,-91.04"/>
</a>
</g>
</g>
<!-- Node10&#45;&gt;Node6 -->
<g id="edge23_Node000010_Node000006" class="edge">
<title>Node10&#45;&gt;Node6</title>
<g id="a_edge23_Node000010_Node000006"><a xlink:title=" ">
<path fill="none" stroke="#63b8ff" d="M346.45,-232.99C355.37,-229.16 364.28,-224.53 372,-219 392.27,-204.49 385.42,-186.55 408,-176 448.76,-156.97 577.36,-168.24 644.61,-175.82"/>
<polygon fill="#63b8ff" stroke="#63b8ff" points="652.89,-176.77 644.53,-179.43 648.91,-176.31 644.94,-175.86 644.94,-175.86 644.94,-175.86 648.91,-176.31 645.35,-172.28 652.89,-176.77 652.89,-176.77"/>
</a>
</g>
</g>
<!-- Node11 -->
<g id="Node000011" class="node">
<title>Node11</title>
<g id="a_Node000011"><a target="_parent" xlink:href="https://doc.qt.io/qt-5/qlowenergyservice.html#characteristic" xlink:title=" ">
<polygon fill="white" stroke="#666666" points="545,-359 426,-359 426,-329 545,-329 545,-359"/>
<text text-anchor="start" x="434" y="-347" font-family="Helvetica,sans-Serif" font-size="10.00">QLowEnergyService::</text>
<text text-anchor="middle" x="485.5" y="-336" font-family="Helvetica,sans-Serif" font-size="10.00">characteristic</text>
</a>
</g>
</g>
<!-- Node10&#45;&gt;Node11 -->
<g id="edge11_Node000010_Node000011" class="edge">
<title>Node10&#45;&gt;Node11</title>
<g id="a_edge11_Node000010_Node000011"><a xlink:title=" ">
<path fill="none" stroke="#63b8ff" d="M354.46,-263.12C360.65,-265.91 366.64,-269.18 372,-273 393.42,-288.28 386.44,-304.91 408,-320 411.34,-322.33 414.91,-324.45 418.62,-326.36"/>
<polygon fill="#63b8ff" stroke="#63b8ff" points="425.9,-329.8 417.13,-329.64 422.28,-328.09 418.67,-326.39 418.67,-326.39 418.67,-326.39 422.28,-328.09 420.2,-323.13 425.9,-329.8 425.9,-329.8"/>
</a>
</g>
</g>
<!-- Node10&#45;&gt;Node12 -->
<g id="edge13_Node000010_Node000012" class="edge">
<title>Node10&#45;&gt;Node12</title>
<g id="a_edge13_Node000010_Node000012"><a xlink:title=" ">
<path fill="none" stroke="#63b8ff" d="M358.26,-263.03C363.26,-265.81 367.94,-269.1 372,-273 404.57,-304.27 375.16,-337.02 408,-368 409.71,-369.61 411.52,-371.12 413.43,-372.52"/>
<polygon fill="#63b8ff" stroke="#63b8ff" points="420.19,-376.91 411.52,-375.57 416.83,-374.73 413.48,-372.55 413.48,-372.55 413.48,-372.55 416.83,-374.73 415.44,-369.53 420.19,-376.91 420.19,-376.91"/>
</a>
</g>
</g>
<!-- Node13 -->
<g id="Node000013" class="node">
<title>Node13</title>
<g id="a_Node000013"><a target="_parent" xlink:href="https://doc.qt.io/qt-5/qlowenergycharacteristic.html#QLowEnergyCharacteristic" xlink:title=" ">
<polygon fill="white" stroke="#666666" points="561,-311 410,-311 410,-281 561,-281 561,-311"/>
<text text-anchor="start" x="418" y="-299" font-family="Helvetica,sans-Serif" font-size="10.00">QLowEnergyCharacteristic</text>
<text text-anchor="middle" x="485.5" y="-288" font-family="Helvetica,sans-Serif" font-size="10.00">::QLowEnergyCharacteristic</text>
</a>
</g>
</g>
<!-- Node10&#45;&gt;Node13 -->
<g id="edge14_Node000010_Node000013" class="edge">
<title>Node10&#45;&gt;Node13</title>
<g id="a_edge14_Node000010_Node000013"><a xlink:title=" ">
<path fill="none" stroke="#63b8ff" d="M355.81,-263.06C375.53,-268.1 397.66,-273.77 417.93,-278.96"/>
<polygon fill="#63b8ff" stroke="#63b8ff" points="425.9,-281 417.25,-282.5 422.02,-280.01 418.15,-279.01 418.15,-279.01 418.15,-279.01 422.02,-280.01 419.04,-275.53 425.9,-281 425.9,-281"/>
</a>
</g>
</g>
<!-- Node14 -->
<g id="Node000014" class="node">
<title>Node14</title>
<g id="a_Node000014"><a xlink:href="classPokitDevice.html#aca9393595de5676f20e3d0fd795358b5" target="_top" xlink:title="Returns a human&#45;readable name for the uuid service, or a null QString if unknown.">
<polygon fill="white" stroke="#666666" points="563,-128.5 408,-128.5 408,-109.5 563,-109.5 563,-128.5"/>
<text text-anchor="middle" x="485.5" y="-116.5" font-family="Helvetica,sans-Serif" font-size="10.00">PokitDevice::serviceToString</text>
</a>
</g>
</g>
<!-- Node10&#45;&gt;Node14 -->
<g id="edge15_Node000010_Node000014" class="edge">
<title>Node10&#45;&gt;Node14</title>
<g id="a_edge15_Node000010_Node000014"><a xlink:title=" ">
<path fill="none" stroke="#63b8ff" d="M351.17,-232.87C358.73,-229.17 365.97,-224.61 372,-219 399.38,-193.56 379.81,-167.54 408,-143 413.21,-138.47 419.27,-134.79 425.66,-131.81"/>
<polygon fill="#63b8ff" stroke="#63b8ff" points="433.27,-128.62 427.29,-135.03 429.58,-130.16 425.9,-131.71 425.9,-131.71 425.9,-131.71 429.58,-130.16 424.5,-128.39 433.27,-128.62 433.27,-128.62"/>
</a>
</g>
</g>
<!-- Node16 -->
<g id="Node000016" class="node">
<title>Node16</title>
<g id="a_Node000016"><a target="_parent" xlink:href="https://doc.qt.io/qt-5/qlowenergyservice.html#serviceUuid" xlink:title=" ">
<polygon fill="white" stroke="#666666" points="545,-263 426,-263 426,-233 545,-233 545,-263"/>
<text text-anchor="start" x="434" y="-251" font-family="Helvetica,sans-Serif" font-size="10.00">QLowEnergyService::</text>
<text text-anchor="middle" x="485.5" y="-240" font-family="Helvetica,sans-Serif" font-size="10.00">serviceUuid</text>
</a>
</g>
</g>
<!-- Node10&#45;&gt;Node16 -->
<g id="edge20_Node000010_Node000016" class="edge">
<title>Node10&#45;&gt;Node16</title>
<g id="a_edge20_Node000010_Node000016"><a xlink:title=" ">
<path fill="none" stroke="#63b8ff" d="M372.18,-248C387.23,-248 402.93,-248 417.67,-248"/>
<polygon fill="#63b8ff" stroke="#63b8ff" points="425.75,-248 417.75,-251.6 421.75,-248 417.75,-248 417.75,-248 417.75,-248 421.75,-248 417.75,-244.4 425.75,-248 425.75,-248"/>
</a>
</g>
</g>
<!-- Node17 -->
<g id="Node000017" class="node">
<title>Node17</title>
<g id="a_Node000017"><a target="_parent" xlink:href="https://doc.qt.io/qt-5/qlowenergyservice.html#state" xlink:title=" ">
<polygon fill="white" stroke="#666666" points="545,-215 426,-215 426,-185 545,-185 545,-215"/>
<text text-anchor="start" x="434" y="-203" font-family="Helvetica,sans-Serif" font-size="10.00">QLowEnergyService::</text>
<text text-anchor="middle" x="485.5" y="-192" font-family="Helvetica,sans-Serif" font-size="10.00">state</text>
</a>
</g>
</g>
<!-- Node10&#45;&gt;Node17 -->
<g id="edge21_Node000010_Node000017" class="edge">
<title>Node10&#45;&gt;Node17</title>
<g id="a_edge21_Node000010_Node000017"><a xlink:title=" ">
<path fill="none" stroke="#63b8ff" d="M355.81,-232.94C375.53,-227.9 397.66,-222.23 417.93,-217.04"/>
<polygon fill="#63b8ff" stroke="#63b8ff" points="425.9,-215 419.04,-220.47 422.02,-215.99 418.15,-216.99 418.15,-216.99 418.15,-216.99 422.02,-215.99 417.25,-213.5 425.9,-215 425.9,-215"/>
</a>
</g>
</g>
<!-- Node10&#45;&gt;Node18 -->
<g id="edge22_Node000010_Node000018" class="edge">
<title>Node10&#45;&gt;Node18</title>
<g id="a_edge22_Node000010_Node000018"><a xlink:title=" ">
<path fill="none" stroke="#63b8ff" d="M320.22,-232.75C336.95,-220.62 358.8,-202.19 372,-181 403.46,-130.47 365.31,-93.48 408,-52 414.6,-45.58 423.02,-41.23 431.84,-38.29"/>
<polygon fill="#63b8ff" stroke="#63b8ff" points="439.66,-36.06 432.96,-41.72 435.82,-37.16 431.97,-38.25 431.97,-38.25 431.97,-38.25 435.82,-37.16 430.98,-34.79 439.66,-36.06 439.66,-36.06"/>
</a>
</g>
</g>
<!-- Node14&#45;&gt;Node5 -->
<g id="edge16_Node000014_Node000005" class="edge">
<title>Node14&#45;&gt;Node5</title>
<g id="a_edge16_Node000014_Node000005"><a xlink:title=" ">
<path fill="none" stroke="#63b8ff" d="M563.25,-109.79C574.98,-108.38 587.15,-106.92 599.09,-105.49"/>
<polygon fill="#63b8ff" stroke="#63b8ff" points="607.3,-104.5 599.79,-109.03 603.33,-104.98 599.36,-105.46 599.36,-105.46 599.36,-105.46 603.33,-104.98 598.93,-101.88 607.3,-104.5 607.3,-104.5"/>
</a>
</g>
</g>
<!-- Node14&#45;&gt;Node6 -->
<g id="edge18_Node000014_Node000006" class="edge">
<title>Node14&#45;&gt;Node6</title>
<g id="a_edge18_Node000014_Node000006"><a xlink:title=" ">
<path fill="none" stroke="#63b8ff" d="M521.63,-128.56C534.8,-132.52 549.77,-137.49 563,-143 579.7,-149.96 582,-155.8 599,-162 613.54,-167.3 630.01,-171.36 644.7,-174.33"/>
<polygon fill="#63b8ff" stroke="#63b8ff" points="652.66,-175.87 644.12,-177.88 648.73,-175.11 644.8,-174.35 644.8,-174.35 644.8,-174.35 648.73,-175.11 645.49,-170.81 652.66,-175.87 652.66,-175.87"/>
</a>
</g>
</g>
<!-- Node14&#45;&gt;Node7 -->
<g id="edge19_Node000014_Node000007" class="edge">
<title>Node14&#45;&gt;Node7</title>
<g id="a_edge19_Node000014_Node000007"><a xlink:title=" ">
<path fill="none" stroke="#63b8ff" d="M535.9,-109.39C545.1,-106.86 554.49,-103.76 563,-100 580.59,-92.23 581.25,-83.41 599,-76 611.33,-70.85 625.26,-67.13 638.33,-64.46"/>
<polygon fill="#63b8ff" stroke="#63b8ff" points="646.33,-62.93 639.15,-67.97 642.4,-63.68 638.47,-64.43 638.47,-64.43 638.47,-64.43 642.4,-63.68 637.8,-60.9 646.33,-62.93 646.33,-62.93"/>
</a>
</g>
</g>
<!-- Node15 -->
<g id="Node000015" class="node">
<title>Node15</title>
<g id="a_Node000015"><a target="_parent" xlink:href="https://doc.qt.io/qt-5/qbluetoothuuid.html#serviceClassToString" xlink:title=" ">
<polygon fill="white" stroke="#666666" points="768,-153 607,-153 607,-123 768,-123 768,-153"/>
<text text-anchor="start" x="615" y="-141" font-family="Helvetica,sans-Serif" font-size="10.00">QBluetoothUuid::serviceClass</text>
<text text-anchor="middle" x="687.5" y="-130" font-family="Helvetica,sans-Serif" font-size="10.00">ToString</text>
</a>
</g>
</g>
<!-- Node14&#45;&gt;Node15 -->
<g id="edge17_Node000014_Node000015" class="edge">
<title>Node14&#45;&gt;Node15</title>
<g id="a_edge17_Node000014_Node000015"><a xlink:title=" ">
<path fill="none" stroke="#63b8ff" d="M563.25,-126.29C574.89,-127.4 586.97,-128.54 598.81,-129.67"/>
<polygon fill="#63b8ff" stroke="#63b8ff" points="606.97,-130.44 598.67,-133.27 602.99,-130.07 599.01,-129.69 599.01,-129.69 599.01,-129.69 602.99,-130.07 599.35,-126.1 606.97,-130.44 606.97,-130.44"/>
</a>
</g>
</g>
</g>
</svg>
