<?xml version="1.0" encoding="UTF-8" standalone="no"?>
<!DOCTYPE svg PUBLIC "-//W3C//DTD SVG 1.1//EN"
 "http://www.w3.org/Graphics/SVG/1.1/DTD/svg11.dtd">
<!-- Generated by graphviz version 2.43.0 (0)
 -->
<!-- Title: DeviceInfoService::manufacturer Pages: 1 -->
<svg width="300pt" height="124pt"
 viewBox="0.00 0.00 300.00 123.50" xmlns="http://www.w3.org/2000/svg" xmlns:xlink="http://www.w3.org/1999/xlink">
<g id="graph0" class="graph" transform="scale(1 1) rotate(0) translate(4 119.5)">
<title>DeviceInfoService::manufacturer</title>
<!-- Node1 -->
<g id="node1" class="node">
<title>Node1</title>
<g id="a_node1"><a xlink:title="Returns the most recent value of the Device Info service&#39;s Manufacturer Name characteristic.">
<polygon fill="#999999" stroke="#666666" points="111,-78 0,-78 0,-48 111,-48 111,-78"/>
<text text-anchor="start" x="8" y="-66" font-family="Helvetica,sans-Serif" font-size="10.00">DeviceInfoService::</text>
<text text-anchor="middle" x="55.5" y="-55" font-family="Helvetica,sans-Serif" font-size="10.00">manufacturer</text>
</a>
</g>
</g>
<!-- Node2 -->
<g id="node2" class="node">
<title>Node2</title>
<g id="a_node2"><a target="_parent" xlink:href="https://doc.qt.io/qt-5/qstring.html#fromUtf8" xlink:title=" ">
<polygon fill="white" stroke="#666666" points="271,-115.5 168,-115.5 168,-96.5 271,-96.5 271,-115.5"/>
<text text-anchor="middle" x="219.5" y="-103.5" font-family="Helvetica,sans-Serif" font-size="10.00">QString::fromUtf8</text>
</a>
</g>
</g>
<!-- Node1&#45;&gt;Node2 -->
<g id="edge1" class="edge">
<title>Node1&#45;&gt;Node2</title>
<path fill="none" stroke="#63b8ff" d="M111.35,-77.56C131.36,-82.87 153.75,-88.81 172.88,-93.89"/>
<polygon fill="#63b8ff" stroke="#63b8ff" points="171.98,-97.27 182.55,-96.46 173.78,-90.51 171.98,-97.27"/>
</g>
<!-- Node3 -->
<g id="node3" class="node">
<title>Node3</title>
<g id="a_node3"><a target="_parent" xlink:href="https://doc.qt.io/qt-5/qlowenergycharacteristic.html#isValid" xlink:title=" ">
<polygon fill="white" stroke="#666666" points="292,-78 147,-78 147,-48 292,-48 292,-78"/>
<text text-anchor="start" x="155" y="-66" font-family="Helvetica,sans-Serif" font-size="10.00">QLowEnergyCharacteristic</text>
<text text-anchor="middle" x="219.5" y="-55" font-family="Helvetica,sans-Serif" font-size="10.00">::isValid</text>
</a>
</g>
</g>
<!-- Node1&#45;&gt;Node3 -->
<g id="edge2" class="edge">
<title>Node1&#45;&gt;Node3</title>
<path fill="none" stroke="#63b8ff" d="M111.35,-63C119.53,-63 128.11,-63 136.7,-63"/>
<polygon fill="#63b8ff" stroke="#63b8ff" points="136.77,-66.5 146.77,-63 136.77,-59.5 136.77,-66.5"/>
</g>
<!-- Node4 -->
<g id="node4" class="node">
<title>Node4</title>
<g id="a_node4"><a target="_parent" xlink:href="https://doc.qt.io/qt-5/qlowenergycharacteristic.html#value" xlink:title=" ">
<polygon fill="white" stroke="#666666" points="292,-30 147,-30 147,0 292,0 292,-30"/>
<text text-anchor="start" x="155" y="-18" font-family="Helvetica,sans-Serif" font-size="10.00">QLowEnergyCharacteristic</text>
<text text-anchor="middle" x="219.5" y="-7" font-family="Helvetica,sans-Serif" font-size="10.00">::value</text>
</a>
</g>
</g>
<!-- Node1&#45;&gt;Node4 -->
<g id="edge3" class="edge">
<title>Node1&#45;&gt;Node4</title>
<path fill="none" stroke="#63b8ff" d="M107.31,-47.94C123.45,-43.16 141.45,-37.83 158.18,-32.87"/>
<polygon fill="#63b8ff" stroke="#63b8ff" points="159.27,-36.2 167.87,-30 157.28,-29.49 159.27,-36.2"/>
</g>
</g>
</svg>
