<?xml version="1.0" encoding="UTF-8" standalone="no"?>
<!DOCTYPE svg PUBLIC "-//W3C//DTD SVG 1.1//EN"
 "http://www.w3.org/Graphics/SVG/1.1/DTD/svg11.dtd">
<!-- Generated by graphviz version 2.43.0 (0)
 -->
<!-- Title: LoggerStopCommand::serviceDetailsDiscovered Pages: 1 -->
<svg width="882pt" height="167pt"
 viewBox="0.00 0.00 882.00 167.00" xmlns="http://www.w3.org/2000/svg" xmlns:xlink="http://www.w3.org/1999/xlink">
<g id="graph0" class="graph" transform="scale(1 1) rotate(0) translate(4 163)">
<title>LoggerStopCommand::serviceDetailsDiscovered</title>
<!-- Node1 -->
<g id="node1" class="node">
<title>Node1</title>
<g id="a_node1"><a xlink:title="Handles service detail discovery events.">
<polygon fill="#999999" stroke="#666666" points="141,-116 0,-116 0,-86 141,-86 141,-116"/>
<text text-anchor="start" x="8" y="-104" font-family="Helvetica,sans-Serif" font-size="10.00">LoggerStopCommand::</text>
<text text-anchor="middle" x="70.5" y="-93" font-family="Helvetica,sans-Serif" font-size="10.00">serviceDetailsDiscovered</text>
</a>
</g>
</g>
<!-- Node2 -->
<g id="node2" class="node">
<title>Node2</title>
<g id="a_node2"><a xlink:href="classDeviceCommand.html#a906fd97d832be0e8d2ba1c917fba41db" target="_top" xlink:title="Handles service detail discovery events.">
<polygon fill="white" stroke="#666666" points="353,-159 177,-159 177,-129 353,-129 353,-159"/>
<text text-anchor="start" x="185" y="-147" font-family="Helvetica,sans-Serif" font-size="10.00">DeviceCommand::serviceDetails</text>
<text text-anchor="middle" x="265" y="-136" font-family="Helvetica,sans-Serif" font-size="10.00">Discovered</text>
</a>
</g>
</g>
<!-- Node1&#45;&gt;Node2 -->
<g id="edge1" class="edge">
<title>Node1&#45;&gt;Node2</title>
<path fill="none" stroke="#63b8ff" d="M138.83,-116.04C154.95,-119.64 172.26,-123.51 188.71,-127.18"/>
<polygon fill="#63b8ff" stroke="#63b8ff" points="196.71,-128.97 188.12,-130.74 192.81,-128.1 188.9,-127.23 188.9,-127.23 188.9,-127.23 192.81,-128.1 189.69,-123.71 196.71,-128.97 196.71,-128.97"/>
</g>
<!-- Node3 -->
<g id="node3" class="node">
<title>Node3</title>
<g id="a_node3"><a target="_parent" xlink:href="https://doc.qt.io/qt-5/qobject.html#tr" xlink:title=" ">
<polygon fill="white" stroke="#666666" points="481,-131.5 412,-131.5 412,-112.5 481,-112.5 481,-131.5"/>
<text text-anchor="middle" x="446.5" y="-119.5" font-family="Helvetica,sans-Serif" font-size="10.00">QObject::tr</text>
</a>
</g>
</g>
<!-- Node1&#45;&gt;Node3 -->
<g id="edge11" class="edge">
<title>Node1&#45;&gt;Node3</title>
<path fill="none" stroke="#63b8ff" d="M141.41,-104.93C218.5,-109.25 340.02,-116.08 403.58,-119.65"/>
<polygon fill="#63b8ff" stroke="#63b8ff" points="411.79,-120.11 403.6,-123.25 407.79,-119.88 403.8,-119.66 403.8,-119.66 403.8,-119.66 407.79,-119.88 404,-116.06 411.79,-120.11 411.79,-120.11"/>
</g>
<!-- Node4 -->
<g id="node4" class="node">
<title>Node4</title>
<g id="a_node4"><a xlink:href="classDataLoggerService.html#a9f8a721025e04bf27df18194247b532e" target="_top" xlink:title="Stop the data logger.">
<polygon fill="white" stroke="#666666" points="322.5,-73 207.5,-73 207.5,-43 322.5,-43 322.5,-73"/>
<text text-anchor="start" x="215.5" y="-61" font-family="Helvetica,sans-Serif" font-size="10.00">DataLoggerService::</text>
<text text-anchor="middle" x="265" y="-50" font-family="Helvetica,sans-Serif" font-size="10.00">stopLogger</text>
</a>
</g>
</g>
<!-- Node1&#45;&gt;Node4 -->
<g id="edge3" class="edge">
<title>Node1&#45;&gt;Node4</title>
<path fill="none" stroke="#63b8ff" d="M138.83,-85.96C158.46,-81.58 179.86,-76.8 199.32,-72.45"/>
<polygon fill="#63b8ff" stroke="#63b8ff" points="207.24,-70.68 200.22,-75.94 203.34,-71.55 199.44,-72.42 199.44,-72.42 199.44,-72.42 203.34,-71.55 198.65,-68.91 207.24,-70.68 207.24,-70.68"/>
</g>
<!-- Node2&#45;&gt;Node3 -->
<g id="edge2" class="edge">
<title>Node2&#45;&gt;Node3</title>
<path fill="none" stroke="#63b8ff" d="M353.12,-133.32C370.76,-131.16 388.53,-128.98 403.71,-127.12"/>
<polygon fill="#63b8ff" stroke="#63b8ff" points="411.86,-126.12 404.35,-130.67 407.89,-126.61 403.92,-127.1 403.92,-127.1 403.92,-127.1 407.89,-126.61 403.48,-123.52 411.86,-126.12 411.86,-126.12"/>
</g>
<!-- Node5 -->
<g id="node5" class="node">
<title>Node5</title>
<g id="a_node5"><a xlink:href="classDataLoggerService.html#a3b933a1a161a390eb08e5019685f449c" target="_top" xlink:title="Configures the Pokit device&#39;s data logger mode.">
<polygon fill="white" stroke="#666666" points="504,-73 389,-73 389,-43 504,-43 504,-73"/>
<text text-anchor="start" x="397" y="-61" font-family="Helvetica,sans-Serif" font-size="10.00">DataLoggerService::</text>
<text text-anchor="middle" x="446.5" y="-50" font-family="Helvetica,sans-Serif" font-size="10.00">setSettings</text>
</a>
</g>
</g>
<!-- Node4&#45;&gt;Node5 -->
<g id="edge4" class="edge">
<title>Node4&#45;&gt;Node5</title>
<path fill="none" stroke="#63b8ff" d="M322.79,-58C341.22,-58 361.79,-58 380.75,-58"/>
<polygon fill="#63b8ff" stroke="#63b8ff" points="388.77,-58 380.77,-61.6 384.77,-58 380.77,-58 380.77,-58 380.77,-58 384.77,-58 380.77,-54.4 388.77,-58 388.77,-58"/>
</g>
<!-- Node6 -->
<g id="node6" class="node">
<title>Node6</title>
<g id="a_node6"><a xlink:href="classDataLoggerServicePrivate.html#a774d21863bf83168171143ec8492a736" target="_top" xlink:title="Returns settings in the format Pokit devices expect.">
<polygon fill="white" stroke="#666666" points="684,-116 541,-116 541,-86 684,-86 684,-116"/>
<text text-anchor="start" x="549" y="-104" font-family="Helvetica,sans-Serif" font-size="10.00">DataLoggerServicePrivate</text>
<text text-anchor="middle" x="612.5" y="-93" font-family="Helvetica,sans-Serif" font-size="10.00">::encodeSettings</text>
</a>
</g>
</g>
<!-- Node5&#45;&gt;Node6 -->
<g id="edge5" class="edge">
<title>Node5&#45;&gt;Node6</title>
<path fill="none" stroke="#63b8ff" d="M504.4,-72.92C517.86,-76.45 532.31,-80.24 546.11,-83.85"/>
<polygon fill="#63b8ff" stroke="#63b8ff" points="554.15,-85.96 545.49,-87.42 550.28,-84.95 546.41,-83.93 546.41,-83.93 546.41,-83.93 550.28,-84.95 547.32,-80.45 554.15,-85.96 554.15,-85.96"/>
</g>
<!-- Node10 -->
<g id="node10" class="node">
<title>Node10</title>
<g id="a_node10"><a target="_parent" xlink:href="https://doc.qt.io/qt-5/qbytearray.html#isNull" xlink:title=" ">
<polygon fill="white" stroke="#666666" points="665.5,-67.5 559.5,-67.5 559.5,-48.5 665.5,-48.5 665.5,-67.5"/>
<text text-anchor="middle" x="612.5" y="-55.5" font-family="Helvetica,sans-Serif" font-size="10.00">QByteArray::isNull</text>
</a>
</g>
</g>
<!-- Node5&#45;&gt;Node10 -->
<g id="edge9" class="edge">
<title>Node5&#45;&gt;Node10</title>
<path fill="none" stroke="#63b8ff" d="M504.4,-58C519.46,-58 535.78,-58 551.03,-58"/>
<polygon fill="#63b8ff" stroke="#63b8ff" points="559.37,-58 551.37,-61.6 555.37,-58 551.37,-58 551.37,-58 551.37,-58 555.37,-58 551.37,-54.4 559.37,-58 559.37,-58"/>
</g>
<!-- Node11 -->
<g id="node11" class="node">
<title>Node11</title>
<g id="a_node11"><a target="_parent" xlink:href="https://doc.qt.io/qt-5/qlowenergycharacteristic.html#isValid" xlink:title=" ">
<polygon fill="white" stroke="#666666" points="685,-30 540,-30 540,0 685,0 685,-30"/>
<text text-anchor="start" x="548" y="-18" font-family="Helvetica,sans-Serif" font-size="10.00">QLowEnergyCharacteristic</text>
<text text-anchor="middle" x="612.5" y="-7" font-family="Helvetica,sans-Serif" font-size="10.00">::isValid</text>
</a>
</g>
</g>
<!-- Node5&#45;&gt;Node11 -->
<g id="edge10" class="edge">
<title>Node5&#45;&gt;Node11</title>
<path fill="none" stroke="#63b8ff" d="M504.4,-43.08C517.86,-39.55 532.31,-35.76 546.11,-32.15"/>
<polygon fill="#63b8ff" stroke="#63b8ff" points="554.15,-30.04 547.32,-35.55 550.28,-31.05 546.41,-32.07 546.41,-32.07 546.41,-32.07 550.28,-31.05 545.49,-28.58 554.15,-30.04 554.15,-30.04"/>
</g>
<!-- Node7 -->
<g id="node7" class="node">
<title>Node7</title>
<g id="a_node7"><a target="_parent" xlink:href="https://doc.qt.io/qt-5/qdatastream.html#setByteOrder" xlink:title=" ">
<polygon fill="white" stroke="#666666" points="874,-153.5 721,-153.5 721,-134.5 874,-134.5 874,-153.5"/>
<text text-anchor="middle" x="797.5" y="-141.5" font-family="Helvetica,sans-Serif" font-size="10.00">QDataStream::setByteOrder</text>
</a>
</g>
</g>
<!-- Node6&#45;&gt;Node7 -->
<g id="edge6" class="edge">
<title>Node6&#45;&gt;Node7</title>
<path fill="none" stroke="#63b8ff" d="M677.5,-116.04C700.63,-121.47 726.33,-127.51 747.92,-132.58"/>
<polygon fill="#63b8ff" stroke="#63b8ff" points="755.98,-134.48 747.36,-136.15 752.08,-133.56 748.19,-132.65 748.19,-132.65 748.19,-132.65 752.08,-133.56 749.01,-129.14 755.98,-134.48 755.98,-134.48"/>
</g>
<!-- Node8 -->
<g id="node8" class="node">
<title>Node8</title>
<g id="a_node8"><a target="_parent" xlink:href="https://doc.qt.io/qt-5/qdatastream.html#setFloatingPointPrecision" xlink:title=" ">
<polygon fill="white" stroke="#666666" points="869,-116 726,-116 726,-86 869,-86 869,-116"/>
<text text-anchor="start" x="734" y="-104" font-family="Helvetica,sans-Serif" font-size="10.00">QDataStream::setFloating</text>
<text text-anchor="middle" x="797.5" y="-93" font-family="Helvetica,sans-Serif" font-size="10.00">PointPrecision</text>
</a>
</g>
</g>
<!-- Node6&#45;&gt;Node8 -->
<g id="edge7" class="edge">
<title>Node6&#45;&gt;Node8</title>
<path fill="none" stroke="#63b8ff" d="M684.25,-101C695.26,-101 706.69,-101 717.86,-101"/>
<polygon fill="#63b8ff" stroke="#63b8ff" points="725.94,-101 717.94,-104.6 721.94,-101 717.94,-101 717.94,-101 717.94,-101 721.94,-101 717.94,-97.4 725.94,-101 725.94,-101"/>
</g>
<!-- Node9 -->
<g id="node9" class="node">
<title>Node9</title>
<g id="a_node9"><a target="_parent" xlink:href="https://doc.qt.io/qt-5/qbytearray.html#size" xlink:title=" ">
<polygon fill="white" stroke="#666666" points="846.5,-67.5 748.5,-67.5 748.5,-48.5 846.5,-48.5 846.5,-67.5"/>
<text text-anchor="middle" x="797.5" y="-55.5" font-family="Helvetica,sans-Serif" font-size="10.00">QByteArray::size</text>
</a>
</g>
</g>
<!-- Node6&#45;&gt;Node9 -->
<g id="edge8" class="edge">
<title>Node6&#45;&gt;Node9</title>
<path fill="none" stroke="#63b8ff" d="M677.5,-85.96C700.63,-80.53 726.33,-74.49 747.92,-69.42"/>
<polygon fill="#63b8ff" stroke="#63b8ff" points="755.98,-67.52 749.01,-72.86 752.08,-68.44 748.19,-69.35 748.19,-69.35 748.19,-69.35 752.08,-68.44 747.36,-65.85 755.98,-67.52 755.98,-67.52"/>
</g>
</g>
</svg>
