<?xml version="1.0" encoding="UTF-8" standalone="no"?>
<!DOCTYPE svg PUBLIC "-//W3C//DTD SVG 1.1//EN"
 "http://www.w3.org/Graphics/SVG/1.1/DTD/svg11.dtd">
<!-- Generated by graphviz version 2.43.0 (0)
 -->
<!-- Title: AbstractCommand::processOptions Pages: 1 -->
<svg width="580pt" height="66pt"
 viewBox="0.00 0.00 580.00 66.00" xmlns="http://www.w3.org/2000/svg" xmlns:xlink="http://www.w3.org/1999/xlink">
<g id="graph0" class="graph" transform="scale(1 1) rotate(0) translate(4 62)">
<title>AbstractCommand::processOptions</title>
<!-- Node1 -->
<g id="node1" class="node">
<title>Node1</title>
<g id="a_node1"><a xlink:title="Processes the relevant options from the command line parser.">
<polygon fill="#bfbfbf" stroke="black" points="421,-14 421,-44 572,-44 572,-14 421,-14"/>
<text text-anchor="start" x="429" y="-32" font-family="Helvetica,sans-Serif" font-size="10.00">AbstractCommand::process</text>
<text text-anchor="middle" x="496.5" y="-21" font-family="Helvetica,sans-Serif" font-size="10.00">Options</text>
</a>
</g>
</g>
<!-- Node2 -->
<g id="node2" class="node">
<title>Node2</title>
<g id="a_node2"><a xlink:href="classDeviceCommand.html#a429915728a274595d134b3214e605c1b" target="_top" xlink:title="Processes the relevant options from the command line parser.">
<polygon fill="none" stroke="black" points="203,-38.5 203,-57.5 385,-57.5 385,-38.5 203,-38.5"/>
<text text-anchor="middle" x="294" y="-45.5" font-family="Helvetica,sans-Serif" font-size="10.00">DeviceCommand::processOptions</text>
</a>
</g>
</g>
<!-- Node1&#45;&gt;Node2 -->
<g id="edge1" class="edge">
<title>Node1&#45;&gt;Node2</title>
<path fill="none" stroke="midnightblue" d="M410.69,-37.04C402.3,-37.83 393.76,-38.64 385.32,-39.44"/>
<polygon fill="midnightblue" stroke="midnightblue" points="411.22,-40.5 420.84,-36.07 410.56,-33.53 411.22,-40.5"/>
</g>
<!-- Node4 -->
<g id="node4" class="node">
<title>Node4</title>
<g id="a_node4"><a xlink:href="classScanCommand.html#a9998ef360fde53be932dc3059e86578e" target="_top" xlink:title=" ">
<polygon fill="none" stroke="black" points="208.5,-0.5 208.5,-19.5 379.5,-19.5 379.5,-0.5 208.5,-0.5"/>
<text text-anchor="middle" x="294" y="-7.5" font-family="Helvetica,sans-Serif" font-size="10.00">ScanCommand::processOptions</text>
</a>
</g>
</g>
<!-- Node1&#45;&gt;Node4 -->
<g id="edge3" class="edge">
<title>Node1&#45;&gt;Node4</title>
<path fill="none" stroke="midnightblue" d="M410.63,-20.96C400.33,-19.98 389.8,-18.98 379.51,-18.01"/>
<polygon fill="midnightblue" stroke="midnightblue" points="410.56,-24.47 420.84,-21.93 411.22,-17.5 410.56,-24.47"/>
</g>
<!-- Node3 -->
<g id="node3" class="node">
<title>Node3</title>
<g id="a_node3"><a xlink:href="classInfoCommand.html#a7d815cb4b0133025e4354649e2cd7a6a" target="_top" xlink:title="Processes the relevant options from the command line parser.">
<polygon fill="none" stroke="black" points="0,-38.5 0,-57.5 167,-57.5 167,-38.5 0,-38.5"/>
<text text-anchor="middle" x="83.5" y="-45.5" font-family="Helvetica,sans-Serif" font-size="10.00">InfoCommand::processOptions</text>
</a>
</g>
</g>
<!-- Node2&#45;&gt;Node3 -->
<g id="edge2" class="edge">
<title>Node2&#45;&gt;Node3</title>
<path fill="none" stroke="midnightblue" d="M192.5,-48C184.07,-48 175.6,-48 167.32,-48"/>
<polygon fill="midnightblue" stroke="midnightblue" points="192.76,-51.5 202.76,-48 192.76,-44.5 192.76,-51.5"/>
</g>
</g>
</svg>
