<?xml version="1.0" encoding="UTF-8" standalone="no"?>
<!DOCTYPE svg PUBLIC "-//W3C//DTD SVG 1.1//EN"
 "http://www.w3.org/Graphics/SVG/1.1/DTD/svg11.dtd">
<!-- Generated by graphviz version 2.43.0 (0)
 -->
<!-- Title: MeterCommand::getService Pages: 1 -->
<svg width="932pt" height="704pt"
 viewBox="0.00 0.00 932.00 704.19" xmlns="http://www.w3.org/2000/svg" xmlns:xlink="http://www.w3.org/1999/xlink">
<g id="graph0" class="graph" transform="scale(1 1) rotate(0) translate(4 700.19)">
<title>MeterCommand::getService</title>
<!-- Node1 -->
<g id="node1" class="node">
<title>Node1</title>
<g id="a_node1"><a xlink:title="Returns a Pokit service object for the derived command class.">
<polygon fill="#bfbfbf" stroke="black" points="0,-375.55 0,-394.55 153,-394.55 153,-375.55 0,-375.55"/>
<text text-anchor="middle" x="76.5" y="-382.55" font-family="Helvetica,sans-Serif" font-size="10.00">MeterCommand::getService</text>
</a>
</g>
</g>
<!-- Node2 -->
<g id="node2" class="node">
<title>Node2</title>
<g id="a_node2"><a target="_parent" xlink:href="https://doc.qt.io/qt-5/qobject.html#connect" xlink:title=" ">
<polygon fill="none" stroke="black" points="437.5,-428.55 437.5,-447.55 537.5,-447.55 537.5,-428.55 437.5,-428.55"/>
<text text-anchor="middle" x="487.5" y="-435.55" font-family="Helvetica,sans-Serif" font-size="10.00">QObject::connect</text>
</a>
</g>
</g>
<!-- Node1&#45;&gt;Node2 -->
<g id="edge1" class="edge">
<title>Node1&#45;&gt;Node2</title>
<path fill="none" stroke="midnightblue" d="M100.51,-394.7C122.73,-403.53 157.54,-416.1 189,-422.05 270.55,-437.49 366.76,-439.86 427.2,-439.48"/>
<polygon fill="midnightblue" stroke="midnightblue" points="427.36,-442.98 437.32,-439.39 427.29,-435.98 427.36,-442.98"/>
</g>
<!-- Node3 -->
<g id="node3" class="node">
<title>Node3</title>
<g id="a_node3"><a xlink:href="classPokitDevice.html#a7b4467f667ace65992a8fd152e9799ce" target="_top" xlink:title="Returns a pointer to MultimeterService instance that uses this device&#39;s controller for access.">
<polygon fill="none" stroke="black" points="209,-375.55 209,-394.55 345,-394.55 345,-375.55 209,-375.55"/>
<text text-anchor="middle" x="277" y="-382.55" font-family="Helvetica,sans-Serif" font-size="10.00">PokitDevice::multimeter</text>
</a>
</g>
</g>
<!-- Node1&#45;&gt;Node3 -->
<g id="edge2" class="edge">
<title>Node1&#45;&gt;Node3</title>
<path fill="none" stroke="midnightblue" d="M153.11,-385.05C167.98,-385.05 183.59,-385.05 198.52,-385.05"/>
<polygon fill="midnightblue" stroke="midnightblue" points="198.73,-388.55 208.73,-385.05 198.73,-381.55 198.73,-388.55"/>
</g>
<!-- Node4 -->
<g id="node4" class="node">
<title>Node4</title>
<g id="a_node4"><a xlink:href="classMeterCommand.html#a994e13d73c26eac303fa34b14082c9a4" target="_top" xlink:title="Invoked when the multimeter settings have been written, to begin reading the meter values.">
<polygon fill="none" stroke="black" points="189,-337.55 189,-356.55 365,-356.55 365,-337.55 189,-337.55"/>
<text text-anchor="middle" x="277" y="-344.55" font-family="Helvetica,sans-Serif" font-size="10.00">MeterCommand::settingsWritten</text>
</a>
</g>
</g>
<!-- Node1&#45;&gt;Node4 -->
<g id="edge4" class="edge">
<title>Node1&#45;&gt;Node4</title>
<path fill="none" stroke="midnightblue" d="M127.33,-375.51C154.23,-370.36 187.64,-363.97 215.96,-358.55"/>
<polygon fill="midnightblue" stroke="midnightblue" points="216.98,-361.92 226.15,-356.6 215.67,-355.04 216.98,-361.92"/>
</g>
<!-- Node3&#45;&gt;Node3 -->
<g id="edge3" class="edge">
<title>Node3&#45;&gt;Node3</title>
<path fill="none" stroke="midnightblue" d="M246.17,-394.81C231.18,-403.62 241.45,-413.05 277,-413.05 301.99,-413.05 314.49,-408.39 314.5,-402.56"/>
<polygon fill="midnightblue" stroke="midnightblue" points="317,-400.1 307.83,-394.81 311.7,-404.67 317,-400.1"/>
</g>
<!-- Node4&#45;&gt;Node2 -->
<g id="edge6" class="edge">
<title>Node4&#45;&gt;Node2</title>
<path fill="none" stroke="midnightblue" d="M345.58,-356.56C352.44,-359.04 359.05,-362.15 365,-366.05 387.89,-381.08 378.39,-400.61 401,-416.05 408.98,-421.51 418.23,-425.61 427.62,-428.7"/>
<polygon fill="midnightblue" stroke="midnightblue" points="426.84,-432.11 437.42,-431.56 428.8,-425.39 426.84,-432.11"/>
</g>
<!-- Node5 -->
<g id="node5" class="node">
<title>Node5</title>
<g id="a_node5"><a xlink:href="classMultimeterService.html#a371ead0ff91d92494ddb8bf9eba56b31" target="_top" xlink:title="Requests the Pokit device to begin reporting multimeter reads.">
<polygon fill="none" stroke="black" points="429,-376.05 429,-406.05 546,-406.05 546,-376.05 429,-376.05"/>
<text text-anchor="start" x="437" y="-394.05" font-family="Helvetica,sans-Serif" font-size="10.00">MultimeterService::</text>
<text text-anchor="middle" x="487.5" y="-383.05" font-family="Helvetica,sans-Serif" font-size="10.00">beginClientReadings</text>
</a>
</g>
</g>
<!-- Node4&#45;&gt;Node5 -->
<g id="edge5" class="edge">
<title>Node4&#45;&gt;Node5</title>
<path fill="none" stroke="midnightblue" d="M323.24,-356.6C351.12,-362.49 387.4,-370.14 418.68,-376.74"/>
<polygon fill="midnightblue" stroke="midnightblue" points="418.13,-380.2 428.64,-378.84 419.58,-373.35 418.13,-380.2"/>
</g>
<!-- Node6 -->
<g id="node6" class="node">
<title>Node6</title>
<g id="a_node6"><a xlink:href="classMeterCommand.html#a551a1c3d1c6f10384b5ccf264a640eff" target="_top" xlink:title="Outputs meter reading in the selected ouput format.">
<polygon fill="none" stroke="black" points="401,-337.55 401,-356.55 574,-356.55 574,-337.55 401,-337.55"/>
<text text-anchor="middle" x="487.5" y="-344.55" font-family="Helvetica,sans-Serif" font-size="10.00">MeterCommand::outputReading</text>
</a>
</g>
</g>
<!-- Node4&#45;&gt;Node6 -->
<g id="edge7" class="edge">
<title>Node4&#45;&gt;Node6</title>
<path fill="none" stroke="midnightblue" d="M365.21,-347.05C373.72,-347.05 382.37,-347.05 390.95,-347.05"/>
<polygon fill="midnightblue" stroke="midnightblue" points="390.97,-350.55 400.97,-347.05 390.97,-343.55 390.97,-350.55"/>
</g>
<!-- Node16 -->
<g id="node16" class="node">
<title>Node16</title>
<g id="a_node16"><a target="_parent" xlink:href="https://doc.qt.io/qt-5/qobject.html#tr" xlink:title=" ">
<polygon fill="none" stroke="black" points="833.5,-293.55 833.5,-312.55 902.5,-312.55 902.5,-293.55 833.5,-293.55"/>
<text text-anchor="middle" x="868" y="-300.55" font-family="Helvetica,sans-Serif" font-size="10.00">QObject::tr</text>
</a>
</g>
</g>
<!-- Node4&#45;&gt;Node16 -->
<g id="edge30" class="edge">
<title>Node4&#45;&gt;Node16</title>
<path fill="none" stroke="midnightblue" d="M283.89,-337.39C312.51,-291.44 442.59,-94.6 610,-27.05 678.42,0.55 716.22,16.18 776,-27.05 860.57,-88.22 867.88,-230.74 867.58,-283.21"/>
<polygon fill="midnightblue" stroke="midnightblue" points="864.07,-283.44 867.41,-293.49 871.07,-283.55 864.07,-283.44"/>
</g>
<!-- Node7 -->
<g id="node7" class="node">
<title>Node7</title>
<g id="a_node7"><a target="_parent" xlink:href="https://doc.qt.io/qt-5/qstring.html#arg-11" xlink:title=" ">
<polygon fill="none" stroke="black" points="831,-662.55 831,-681.55 905,-681.55 905,-662.55 831,-662.55"/>
<text text-anchor="middle" x="868" y="-669.55" font-family="Helvetica,sans-Serif" font-size="10.00">QString::arg</text>
</a>
</g>
</g>
<!-- Node6&#45;&gt;Node7 -->
<g id="edge8" class="edge">
<title>Node6&#45;&gt;Node7</title>
<path fill="none" stroke="midnightblue" d="M560.88,-356.71C565.76,-359.46 570.23,-362.86 574,-367.05 660.56,-463.29 515.69,-567.4 610,-656.05 667.61,-710.21 768.3,-697.17 825.04,-683.93"/>
<polygon fill="midnightblue" stroke="midnightblue" points="825.88,-687.33 834.76,-681.56 824.22,-680.53 825.88,-687.33"/>
</g>
<!-- Node8 -->
<g id="node8" class="node">
<title>Node8</title>
<g id="a_node8"><a xlink:href="classAbstractCommand.html#af85c842568f8a3a893e336e449ef7813" target="_top" xlink:title="Returns an RFC 4180 compliant version of field.">
<polygon fill="none" stroke="black" points="610,-616.05 610,-646.05 776,-646.05 776,-616.05 610,-616.05"/>
<text text-anchor="start" x="618" y="-634.05" font-family="Helvetica,sans-Serif" font-size="10.00">AbstractCommand::escapeCsv</text>
<text text-anchor="middle" x="693" y="-623.05" font-family="Helvetica,sans-Serif" font-size="10.00">Field</text>
</a>
</g>
</g>
<!-- Node6&#45;&gt;Node8 -->
<g id="edge9" class="edge">
<title>Node6&#45;&gt;Node8</title>
<path fill="none" stroke="midnightblue" d="M560.35,-356.61C565.41,-359.37 570.06,-362.8 574,-367.05 645.48,-444.27 543.32,-519.66 610,-601.05 612.89,-604.58 616.23,-607.69 619.88,-610.44"/>
<polygon fill="midnightblue" stroke="midnightblue" points="617.99,-613.39 628.29,-615.88 621.8,-607.51 617.99,-613.39"/>
</g>
<!-- Node10 -->
<g id="node10" class="node">
<title>Node10</title>
<g id="a_node10"><a target="_parent" xlink:href="https://doc.qt.io/qt-5/qstring.html#fromLatin1" xlink:title=" ">
<polygon fill="none" stroke="black" points="812,-580.55 812,-599.55 924,-599.55 924,-580.55 812,-580.55"/>
<text text-anchor="middle" x="868" y="-587.55" font-family="Helvetica,sans-Serif" font-size="10.00">QString::fromLatin1</text>
</a>
</g>
</g>
<!-- Node6&#45;&gt;Node10 -->
<g id="edge14" class="edge">
<title>Node6&#45;&gt;Node10</title>
<path fill="none" stroke="midnightblue" d="M560.23,-356.72C565.33,-359.46 570.01,-362.85 574,-367.05 636.46,-432.89 542.95,-506.89 610,-568.05 637.14,-592.81 735.06,-594.87 801.89,-593.16"/>
<polygon fill="midnightblue" stroke="midnightblue" points="802.02,-596.66 811.92,-592.87 801.82,-589.66 802.02,-596.66"/>
</g>
<!-- Node11 -->
<g id="node11" class="node">
<title>Node11</title>
<g id="a_node11"><a target="_parent" xlink:href="https://doc.qt.io/qt-5/qcoreapplication.html#exit" xlink:title=" ">
<polygon fill="none" stroke="black" points="630,-539.55 630,-558.55 756,-558.55 756,-539.55 630,-539.55"/>
<text text-anchor="middle" x="693" y="-546.55" font-family="Helvetica,sans-Serif" font-size="10.00">QCoreApplication::exit</text>
</a>
</g>
</g>
<!-- Node6&#45;&gt;Node11 -->
<g id="edge13" class="edge">
<title>Node6&#45;&gt;Node11</title>
<path fill="none" stroke="midnightblue" d="M559.65,-356.68C564.93,-359.42 569.82,-362.82 574,-367.05 626.13,-419.84 557.81,-477.32 610,-530.05 613.21,-533.3 616.86,-536.03 620.78,-538.33"/>
<polygon fill="midnightblue" stroke="midnightblue" points="619.25,-541.48 629.77,-542.71 622.32,-535.19 619.25,-541.48"/>
</g>
<!-- Node12 -->
<g id="node12" class="node">
<title>Node12</title>
<g id="a_node12"><a target="_parent" xlink:href="https://doc.qt.io/qt-5/qstring.html#fromUtf8" xlink:title=" ">
<polygon fill="none" stroke="black" points="641.5,-501.55 641.5,-520.55 744.5,-520.55 744.5,-501.55 641.5,-501.55"/>
<text text-anchor="middle" x="693" y="-508.55" font-family="Helvetica,sans-Serif" font-size="10.00">QString::fromUtf8</text>
</a>
</g>
</g>
<!-- Node6&#45;&gt;Node12 -->
<g id="edge15" class="edge">
<title>Node6&#45;&gt;Node12</title>
<path fill="none" stroke="midnightblue" d="M558.54,-356.57C564.2,-359.31 569.47,-362.75 574,-367.05 615.9,-406.89 568.06,-452.27 610,-492.05 616.17,-497.91 623.78,-502.08 631.85,-505.04"/>
<polygon fill="midnightblue" stroke="midnightblue" points="630.89,-508.41 641.47,-507.98 632.93,-501.71 630.89,-508.41"/>
</g>
<!-- Node13 -->
<g id="node13" class="node">
<title>Node13</title>
<g id="a_node13"><a target="_parent" xlink:href="https://doc.qt.io/qt-5/qstring.html#insert-2" xlink:title=" ">
<polygon fill="none" stroke="black" points="650,-463.55 650,-482.55 736,-482.55 736,-463.55 650,-463.55"/>
<text text-anchor="middle" x="693" y="-470.55" font-family="Helvetica,sans-Serif" font-size="10.00">QString::insert</text>
</a>
</g>
</g>
<!-- Node6&#45;&gt;Node13 -->
<g id="edge16" class="edge">
<title>Node6&#45;&gt;Node13</title>
<path fill="none" stroke="midnightblue" d="M557.2,-356.74C563.27,-359.43 569,-362.81 574,-367.05 605.89,-394.14 578.08,-427 610,-454.05 618.45,-461.22 629.08,-465.8 639.87,-468.71"/>
<polygon fill="midnightblue" stroke="midnightblue" points="639.23,-472.15 649.76,-470.94 640.77,-465.33 639.23,-472.15"/>
</g>
<!-- Node14 -->
<g id="node14" class="node">
<title>Node14</title>
<g id="a_node14"><a target="_parent" xlink:href="https://doc.qt.io/qt-5/qvariant.html#isNull" xlink:title=" ">
<polygon fill="none" stroke="black" points="647,-425.55 647,-444.55 739,-444.55 739,-425.55 647,-425.55"/>
<text text-anchor="middle" x="693" y="-432.55" font-family="Helvetica,sans-Serif" font-size="10.00">QVariant::isNull</text>
</a>
</g>
</g>
<!-- Node6&#45;&gt;Node14 -->
<g id="edge17" class="edge">
<title>Node6&#45;&gt;Node14</title>
<path fill="none" stroke="midnightblue" d="M552.25,-356.59C559.93,-359.27 567.38,-362.69 574,-367.05 596.55,-381.94 587.43,-401.19 610,-416.05 618.06,-421.36 627.42,-425.2 636.87,-427.97"/>
<polygon fill="midnightblue" stroke="midnightblue" points="636.15,-431.39 646.71,-430.48 637.89,-424.61 636.15,-431.39"/>
</g>
<!-- Node15 -->
<g id="node15" class="node">
<title>Node15</title>
<g id="a_node15"><a xlink:href="classMultimeterService.html#acafbc2f0d9f123634c54a14c963e88ca" target="_top" xlink:title="Returns the maximum value for range in (integer) millivolts, or the string &quot;Auto&quot;.">
<polygon fill="none" stroke="black" points="636.5,-376.05 636.5,-406.05 749.5,-406.05 749.5,-376.05 636.5,-376.05"/>
<text text-anchor="start" x="644.5" y="-394.05" font-family="Helvetica,sans-Serif" font-size="10.00">MultimeterService::</text>
<text text-anchor="middle" x="693" y="-383.05" font-family="Helvetica,sans-Serif" font-size="10.00">maxValue</text>
</a>
</g>
</g>
<!-- Node6&#45;&gt;Node15 -->
<g id="edge18" class="edge">
<title>Node6&#45;&gt;Node15</title>
<path fill="none" stroke="midnightblue" d="M532.66,-356.6C559.96,-362.51 595.52,-370.19 626.12,-376.81"/>
<polygon fill="midnightblue" stroke="midnightblue" points="625.77,-380.31 636.28,-379.01 627.25,-373.47 625.77,-380.31"/>
</g>
<!-- Node6&#45;&gt;Node16 -->
<g id="edge28" class="edge">
<title>Node6&#45;&gt;Node16</title>
<path fill="none" stroke="midnightblue" d="M574.25,-345.91C631.69,-344.04 708.79,-339.39 776,-328.05 793.53,-325.1 812.54,-320.16 828.63,-315.45"/>
<polygon fill="midnightblue" stroke="midnightblue" points="829.67,-318.79 838.24,-312.56 827.65,-312.09 829.67,-318.79"/>
</g>
<!-- Node17 -->
<g id="node17" class="node">
<title>Node17</title>
<g id="a_node17"><a xlink:href="classMultimeterService.html#a01d0e40b92ddcb6e4c89e4c8504e30d4" target="_top" xlink:title="Returns the minimum value for range in (integer) millivolts, or the string &quot;Auto&quot;.">
<polygon fill="none" stroke="black" points="636.5,-288.05 636.5,-318.05 749.5,-318.05 749.5,-288.05 636.5,-288.05"/>
<text text-anchor="start" x="644.5" y="-306.05" font-family="Helvetica,sans-Serif" font-size="10.00">MultimeterService::</text>
<text text-anchor="middle" x="693" y="-295.05" font-family="Helvetica,sans-Serif" font-size="10.00">minValue</text>
</a>
</g>
</g>
<!-- Node6&#45;&gt;Node17 -->
<g id="edge20" class="edge">
<title>Node6&#45;&gt;Node17</title>
<path fill="none" stroke="midnightblue" d="M532.66,-337.51C559.96,-331.6 595.52,-323.91 626.12,-317.3"/>
<polygon fill="midnightblue" stroke="midnightblue" points="627.25,-320.64 636.28,-315.1 625.77,-313.79 627.25,-320.64"/>
</g>
<!-- Node18 -->
<g id="node18" class="node">
<title>Node18</title>
<g id="a_node18"><a xlink:href="classMultimeterService.html#aee4f24051a196c67e74ba6f090964693" target="_top" xlink:title="Requests the Pokit device to stop reporting multimeter reads.">
<polygon fill="none" stroke="black" points="636.5,-239.05 636.5,-269.05 749.5,-269.05 749.5,-239.05 636.5,-239.05"/>
<text text-anchor="start" x="644.5" y="-257.05" font-family="Helvetica,sans-Serif" font-size="10.00">MultimeterService::</text>
<text text-anchor="middle" x="693" y="-246.05" font-family="Helvetica,sans-Serif" font-size="10.00">stopClientReadings</text>
</a>
</g>
</g>
<!-- Node6&#45;&gt;Node18 -->
<g id="edge22" class="edge">
<title>Node6&#45;&gt;Node18</title>
<path fill="none" stroke="midnightblue" d="M503.31,-337.38C525.68,-323.1 569.75,-296.22 610,-279.05 615.44,-276.74 621.16,-274.53 626.95,-272.47"/>
<polygon fill="midnightblue" stroke="midnightblue" points="628.39,-275.68 636.72,-269.13 626.13,-269.05 628.39,-275.68"/>
</g>
<!-- Node19 -->
<g id="node19" class="node">
<title>Node19</title>
<g id="a_node19"><a target="_parent" xlink:href="https://doc.qt.io/qt-5/qvariant.html#toInt" xlink:title=" ">
<polygon fill="none" stroke="black" points="649.5,-200.55 649.5,-219.55 736.5,-219.55 736.5,-200.55 649.5,-200.55"/>
<text text-anchor="middle" x="693" y="-207.55" font-family="Helvetica,sans-Serif" font-size="10.00">QVariant::toInt</text>
</a>
</g>
</g>
<!-- Node6&#45;&gt;Node19 -->
<g id="edge23" class="edge">
<title>Node6&#45;&gt;Node19</title>
<path fill="none" stroke="midnightblue" d="M495.52,-337.44C512.49,-314.93 558.17,-258.56 610,-230.05 618.96,-225.13 629.12,-221.4 639.17,-218.59"/>
<polygon fill="midnightblue" stroke="midnightblue" points="640.29,-221.91 649.13,-216.07 638.57,-215.13 640.29,-221.91"/>
</g>
<!-- Node20 -->
<g id="node20" class="node">
<title>Node20</title>
<g id="a_node20"><a target="_parent" xlink:href="https://doc.qt.io/qt-5/qvariant.html#toJsonValue" xlink:title=" ">
<polygon fill="none" stroke="black" points="632,-162.55 632,-181.55 754,-181.55 754,-162.55 632,-162.55"/>
<text text-anchor="middle" x="693" y="-169.55" font-family="Helvetica,sans-Serif" font-size="10.00">QVariant::toJsonValue</text>
</a>
</g>
</g>
<!-- Node6&#45;&gt;Node20 -->
<g id="edge24" class="edge">
<title>Node6&#45;&gt;Node20</title>
<path fill="none" stroke="midnightblue" d="M492.97,-337.51C506.41,-309.97 549.24,-229.86 610,-191.05 613.84,-188.6 617.97,-186.46 622.25,-184.6"/>
<polygon fill="midnightblue" stroke="midnightblue" points="623.73,-187.78 631.83,-180.94 621.24,-181.24 623.73,-187.78"/>
</g>
<!-- Node21 -->
<g id="node21" class="node">
<title>Node21</title>
<g id="a_node21"><a target="_parent" xlink:href="https://doc.qt.io/qt-5/qvariant.html#toString" xlink:title=" ">
<polygon fill="none" stroke="black" points="641.5,-124.55 641.5,-143.55 744.5,-143.55 744.5,-124.55 641.5,-124.55"/>
<text text-anchor="middle" x="693" y="-131.55" font-family="Helvetica,sans-Serif" font-size="10.00">QVariant::toString</text>
</a>
</g>
</g>
<!-- Node6&#45;&gt;Node21 -->
<g id="edge25" class="edge">
<title>Node6&#45;&gt;Node21</title>
<path fill="none" stroke="midnightblue" d="M491.5,-337.54C502.02,-305.78 540.43,-202.66 610,-153.05 616.44,-148.46 623.83,-144.96 631.47,-142.3"/>
<polygon fill="midnightblue" stroke="midnightblue" points="632.67,-145.59 641.23,-139.35 630.65,-138.89 632.67,-145.59"/>
</g>
<!-- Node22 -->
<g id="node22" class="node">
<title>Node22</title>
<g id="a_node22"><a xlink:href="classMultimeterService.html#a58a03dbc0ae216dc60f27d975af92cf8" target="_top" xlink:title="Returns mode as a user&#45;friendly string.">
<polygon fill="none" stroke="black" points="636.5,-75.05 636.5,-105.05 749.5,-105.05 749.5,-75.05 636.5,-75.05"/>
<text text-anchor="start" x="644.5" y="-93.05" font-family="Helvetica,sans-Serif" font-size="10.00">MultimeterService::</text>
<text text-anchor="middle" x="693" y="-82.05" font-family="Helvetica,sans-Serif" font-size="10.00">toString</text>
</a>
</g>
</g>
<!-- Node6&#45;&gt;Node22 -->
<g id="edge26" class="edge">
<title>Node6&#45;&gt;Node22</title>
<path fill="none" stroke="midnightblue" d="M490.69,-337.42C499.24,-302.07 533.69,-178.31 610,-115.05 615.16,-110.78 621.04,-107.23 627.23,-104.29"/>
<polygon fill="midnightblue" stroke="midnightblue" points="628.6,-107.51 636.46,-100.41 625.89,-101.06 628.6,-107.51"/>
</g>
<!-- Node23 -->
<g id="node23" class="node">
<title>Node23</title>
<g id="a_node23"><a target="_parent" xlink:href="https://doc.qt.io/qt-5/qvariant.html#type" xlink:title=" ">
<polygon fill="none" stroke="black" points="650,-36.55 650,-55.55 736,-55.55 736,-36.55 650,-36.55"/>
<text text-anchor="middle" x="693" y="-43.55" font-family="Helvetica,sans-Serif" font-size="10.00">QVariant::type</text>
</a>
</g>
</g>
<!-- Node6&#45;&gt;Node23 -->
<g id="edge29" class="edge">
<title>Node6&#45;&gt;Node23</title>
<path fill="none" stroke="midnightblue" d="M489.55,-337.47C494.5,-297.27 519.17,-140.92 610,-65.05 618.5,-57.95 629.16,-53.39 639.95,-50.49"/>
<polygon fill="midnightblue" stroke="midnightblue" points="640.85,-53.87 649.83,-48.26 639.31,-47.04 640.85,-53.87"/>
</g>
<!-- Node8&#45;&gt;Node7 -->
<g id="edge10" class="edge">
<title>Node8&#45;&gt;Node7</title>
<path fill="none" stroke="midnightblue" d="M757.44,-646.09C778.46,-651.07 801.44,-656.52 820.91,-661.13"/>
<polygon fill="midnightblue" stroke="midnightblue" points="820.2,-664.56 830.73,-663.46 821.81,-657.75 820.2,-664.56"/>
</g>
<!-- Node9 -->
<g id="node9" class="node">
<title>Node9</title>
<g id="a_node9"><a target="_parent" xlink:href="https://doc.qt.io/qt-5/qstring.html#contains-1" xlink:title=" ">
<polygon fill="none" stroke="black" points="818,-621.55 818,-640.55 918,-640.55 918,-621.55 818,-621.55"/>
<text text-anchor="middle" x="868" y="-628.55" font-family="Helvetica,sans-Serif" font-size="10.00">QString::contains</text>
</a>
</g>
</g>
<!-- Node8&#45;&gt;Node9 -->
<g id="edge11" class="edge">
<title>Node8&#45;&gt;Node9</title>
<path fill="none" stroke="midnightblue" d="M776.19,-631.05C786.92,-631.05 797.73,-631.05 807.97,-631.05"/>
<polygon fill="midnightblue" stroke="midnightblue" points="807.99,-634.55 817.99,-631.05 807.99,-627.55 807.99,-634.55"/>
</g>
<!-- Node8&#45;&gt;Node10 -->
<g id="edge12" class="edge">
<title>Node8&#45;&gt;Node10</title>
<path fill="none" stroke="midnightblue" d="M757.44,-616.02C776.96,-611.39 798.18,-606.36 816.7,-601.97"/>
<polygon fill="midnightblue" stroke="midnightblue" points="817.76,-605.32 826.68,-599.61 816.15,-598.51 817.76,-605.32"/>
</g>
<!-- Node15&#45;&gt;Node16 -->
<g id="edge19" class="edge">
<title>Node15&#45;&gt;Node16</title>
<path fill="none" stroke="midnightblue" d="M740.71,-375.95C752.44,-371.62 764.86,-366.56 776,-361.05 800.89,-348.75 827.45,-331.26 845.41,-318.71"/>
<polygon fill="midnightblue" stroke="midnightblue" points="847.83,-321.28 853.97,-312.65 843.78,-315.57 847.83,-321.28"/>
</g>
<!-- Node17&#45;&gt;Node16 -->
<g id="edge21" class="edge">
<title>Node17&#45;&gt;Node16</title>
<path fill="none" stroke="midnightblue" d="M749.69,-303.05C773.48,-303.05 800.85,-303.05 823.16,-303.05"/>
<polygon fill="midnightblue" stroke="midnightblue" points="823.35,-306.55 833.35,-303.05 823.35,-299.55 823.35,-306.55"/>
</g>
<!-- Node22&#45;&gt;Node16 -->
<g id="edge27" class="edge">
<title>Node22&#45;&gt;Node16</title>
<path fill="none" stroke="midnightblue" d="M749.7,-100.21C759.2,-103.77 768.42,-108.57 776,-115.05 829.4,-160.77 854.11,-245.06 862.96,-283.28"/>
<polygon fill="midnightblue" stroke="midnightblue" points="859.57,-284.16 865.13,-293.17 866.4,-282.66 859.57,-284.16"/>
</g>
</g>
</svg>
