<?xml version="1.0" encoding="UTF-8" standalone="no"?>
<!DOCTYPE svg PUBLIC "-//W3C//DTD SVG 1.1//EN"
 "http://www.w3.org/Graphics/SVG/1.1/DTD/svg11.dtd">
<!-- Generated by graphviz version 2.43.0 (0)
 -->
<!-- Title: DeviceCommand::deviceDiscovered Pages: 1 -->
<svg width="605pt" height="896pt"
 viewBox="0.00 0.00 605.00 895.50" xmlns="http://www.w3.org/2000/svg" xmlns:xlink="http://www.w3.org/1999/xlink">
<g id="graph0" class="graph" transform="scale(1 1) rotate(0) translate(4 891.5)">
<title>DeviceCommand::deviceDiscovered</title>
<!-- Node1 -->
<g id="node1" class="node">
<title>Node1</title>
<g id="a_node1"><a xlink:title="Checks if info is the device (if any) we&#39;re looking for, and if so, create a contoller and service,...">
<polygon fill="#999999" stroke="#666666" points="194,-463 0,-463 0,-444 194,-444 194,-463"/>
<text text-anchor="middle" x="97" y="-451" font-family="Helvetica,sans-Serif" font-size="10.00">DeviceCommand::deviceDiscovered</text>
</a>
</g>
</g>
<!-- Node2 -->
<g id="node2" class="node">
<title>Node2</title>
<g id="a_node2"><a target="_parent" xlink:href="https://doc.qt.io/qt-5/qbluetoothdeviceinfo.html#address" xlink:title=" ">
<polygon fill="white" stroke="#666666" points="394.5,-887.5 270.5,-887.5 270.5,-857.5 394.5,-857.5 394.5,-887.5"/>
<text text-anchor="start" x="278.5" y="-875.5" font-family="Helvetica,sans-Serif" font-size="10.00">QBluetoothDeviceInfo</text>
<text text-anchor="middle" x="332.5" y="-864.5" font-family="Helvetica,sans-Serif" font-size="10.00">::address</text>
</a>
</g>
</g>
<!-- Node1&#45;&gt;Node2 -->
<g id="edge1" class="edge">
<title>Node1&#45;&gt;Node2</title>
<path fill="none" stroke="#63b8ff" d="M98.18,-463.07C99.6,-511.49 112.54,-731.55 230,-843.5 238.65,-851.75 249.49,-857.68 260.83,-861.93"/>
<polygon fill="#63b8ff" stroke="#63b8ff" points="259.85,-865.29 270.44,-865.12 262.05,-858.65 259.85,-865.29"/>
</g>
<!-- Node3 -->
<g id="node3" class="node">
<title>Node3</title>
<g id="a_node3"><a target="_parent" xlink:href="https://doc.qt.io/qt-5/qstring.html#arg-11" xlink:title=" ">
<polygon fill="white" stroke="#666666" points="571,-820 497,-820 497,-801 571,-801 571,-820"/>
<text text-anchor="middle" x="534" y="-808" font-family="Helvetica,sans-Serif" font-size="10.00">QString::arg</text>
</a>
</g>
</g>
<!-- Node1&#45;&gt;Node3 -->
<g id="edge2" class="edge">
<title>Node1&#45;&gt;Node3</title>
<path fill="none" stroke="#63b8ff" d="M97.96,-463.22C98.36,-511.32 107.18,-724.96 230,-810.5 310.35,-866.46 434.04,-841.04 495.57,-823"/>
<polygon fill="#63b8ff" stroke="#63b8ff" points="496.69,-826.32 505.25,-820.07 494.67,-819.62 496.69,-826.32"/>
</g>
<!-- Node4 -->
<g id="node4" class="node">
<title>Node4</title>
<g id="a_node4"><a target="_parent" xlink:href="https://doc.qt.io/qt-5/qobject.html#connect" xlink:title=" ">
<polygon fill="white" stroke="#666666" points="382.5,-592 282.5,-592 282.5,-573 382.5,-573 382.5,-592"/>
<text text-anchor="middle" x="332.5" y="-580" font-family="Helvetica,sans-Serif" font-size="10.00">QObject::connect</text>
</a>
</g>
</g>
<!-- Node1&#45;&gt;Node4 -->
<g id="edge3" class="edge">
<title>Node1&#45;&gt;Node4</title>
<path fill="none" stroke="#63b8ff" d="M106.15,-463.01C125.31,-484.72 175.75,-537.97 230,-563.5 243.05,-569.64 257.93,-573.8 272.19,-576.62"/>
<polygon fill="#63b8ff" stroke="#63b8ff" points="271.98,-580.13 282.43,-578.44 273.2,-573.24 271.98,-580.13"/>
</g>
<!-- Node5 -->
<g id="node5" class="node">
<title>Node5</title>
<g id="a_node5"><a target="_parent" xlink:href="https://doc.qt.io/qt-5/qlowenergycontroller.html#connectToDevice" xlink:title=" ">
<polygon fill="white" stroke="#666666" points="395,-554.5 270,-554.5 270,-524.5 395,-524.5 395,-554.5"/>
<text text-anchor="start" x="278" y="-542.5" font-family="Helvetica,sans-Serif" font-size="10.00">QLowEnergyController</text>
<text text-anchor="middle" x="332.5" y="-531.5" font-family="Helvetica,sans-Serif" font-size="10.00">::connectToDevice</text>
</a>
</g>
</g>
<!-- Node1&#45;&gt;Node5 -->
<g id="edge4" class="edge">
<title>Node1&#45;&gt;Node5</title>
<path fill="none" stroke="#63b8ff" d="M115.91,-463.12C140.87,-476.22 187.83,-499.72 230,-514.5 239.6,-517.87 249.87,-520.96 260.05,-523.73"/>
<polygon fill="#63b8ff" stroke="#63b8ff" points="259.19,-527.13 269.76,-526.3 260.98,-520.36 259.19,-527.13"/>
</g>
<!-- Node6 -->
<g id="node6" class="node">
<title>Node6</title>
<g id="a_node6"><a xlink:href="classPokitDevice.html#a2e2fb6b30e6f5f0d7bc6cd8f806d6423" target="_top" xlink:title="Returns a non&#45;const pointer to the controller used to access the Pokit device.">
<polygon fill="white" stroke="#666666" points="396.5,-506 268.5,-506 268.5,-487 396.5,-487 396.5,-506"/>
<text text-anchor="middle" x="332.5" y="-494" font-family="Helvetica,sans-Serif" font-size="10.00">PokitDevice::controller</text>
</a>
</g>
</g>
<!-- Node1&#45;&gt;Node6 -->
<g id="edge5" class="edge">
<title>Node1&#45;&gt;Node6</title>
<path fill="none" stroke="#63b8ff" d="M149.82,-463.04C185.19,-469.56 232.22,-478.22 269.56,-485.09"/>
<polygon fill="#63b8ff" stroke="#63b8ff" points="269.36,-488.61 279.82,-486.98 270.62,-481.73 269.36,-488.61"/>
</g>
<!-- Node7 -->
<g id="node7" class="node">
<title>Node7</title>
<g id="a_node7"><a xlink:href="classDeviceCommand.html#a28461c0fe3f2b3398c74298b3df70b93" target="_top" xlink:title="Handles controller error events.">
<polygon fill="white" stroke="#666666" points="409,-726.5 256,-726.5 256,-696.5 409,-696.5 409,-726.5"/>
<text text-anchor="start" x="264" y="-714.5" font-family="Helvetica,sans-Serif" font-size="10.00">DeviceCommand::controller</text>
<text text-anchor="middle" x="332.5" y="-703.5" font-family="Helvetica,sans-Serif" font-size="10.00">Error</text>
</a>
</g>
</g>
<!-- Node1&#45;&gt;Node7 -->
<g id="edge6" class="edge">
<title>Node1&#45;&gt;Node7</title>
<path fill="none" stroke="#63b8ff" d="M100.49,-463.4C110.15,-499.67 148.73,-626.39 230,-687.5 235.08,-691.32 240.68,-694.54 246.55,-697.26"/>
<polygon fill="#63b8ff" stroke="#63b8ff" points="245.4,-700.57 255.98,-701.13 248.06,-694.1 245.4,-700.57"/>
</g>
<!-- Node9 -->
<g id="node9" class="node">
<title>Node9</title>
<g id="a_node9"><a target="_parent" xlink:href="https://doc.qt.io/qt-5/qobject.html#tr" xlink:title=" ">
<polygon fill="white" stroke="#666666" points="568.5,-721 499.5,-721 499.5,-702 568.5,-702 568.5,-721"/>
<text text-anchor="middle" x="534" y="-709" font-family="Helvetica,sans-Serif" font-size="10.00">QObject::tr</text>
</a>
</g>
</g>
<!-- Node1&#45;&gt;Node9 -->
<g id="edge29" class="edge">
<title>Node1&#45;&gt;Node9</title>
<path fill="none" stroke="#63b8ff" d="M103.63,-463.37C119.56,-490.31 167.86,-565.45 230,-600.5 310.78,-646.06 349.97,-602.46 435,-639.5 466.22,-653.1 497,-678.14 515.51,-694.81"/>
<polygon fill="#63b8ff" stroke="#63b8ff" points="513.37,-697.61 523.1,-701.81 518.12,-692.46 513.37,-697.61"/>
</g>
<!-- Node10 -->
<g id="node10" class="node">
<title>Node10</title>
<g id="a_node10"><a xlink:href="classDeviceCommand.html#a525ae4429c2b9a325bad62678409fb5b" target="_top" xlink:title="Handles devics disconnection events.">
<polygon fill="white" stroke="#666666" points="435,-801 230,-801 230,-782 435,-782 435,-801"/>
<text text-anchor="middle" x="332.5" y="-789" font-family="Helvetica,sans-Serif" font-size="10.00">DeviceCommand::deviceDisconnected</text>
</a>
</g>
</g>
<!-- Node1&#45;&gt;Node10 -->
<g id="edge9" class="edge">
<title>Node1&#45;&gt;Node10</title>
<path fill="none" stroke="#63b8ff" d="M98.73,-463C102.62,-506.59 124.88,-688.92 230,-773.5 231.39,-774.62 232.83,-775.68 234.3,-776.68"/>
<polygon fill="#63b8ff" stroke="#63b8ff" points="232.74,-779.82 243.15,-781.81 236.26,-773.77 232.74,-779.82"/>
</g>
<!-- Node11 -->
<g id="node11" class="node">
<title>Node11</title>
<g id="a_node11"><a target="_parent" xlink:href="https://doc.qt.io/qt-5/qbluetoothdeviceinfo.html#deviceUuid" xlink:title=" ">
<polygon fill="white" stroke="#666666" points="394.5,-468.5 270.5,-468.5 270.5,-438.5 394.5,-438.5 394.5,-468.5"/>
<text text-anchor="start" x="278.5" y="-456.5" font-family="Helvetica,sans-Serif" font-size="10.00">QBluetoothDeviceInfo</text>
<text text-anchor="middle" x="332.5" y="-445.5" font-family="Helvetica,sans-Serif" font-size="10.00">::deviceUuid</text>
</a>
</g>
</g>
<!-- Node1&#45;&gt;Node11 -->
<g id="edge13" class="edge">
<title>Node1&#45;&gt;Node11</title>
<path fill="none" stroke="#63b8ff" d="M194.32,-453.5C216.45,-453.5 239.6,-453.5 260.43,-453.5"/>
<polygon fill="#63b8ff" stroke="#63b8ff" points="260.46,-457 270.46,-453.5 260.46,-450 260.46,-457"/>
</g>
<!-- Node12 -->
<g id="node12" class="node">
<title>Node12</title>
<g id="a_node12"><a target="_parent" xlink:href="https://doc.qt.io/qt-5/qlowenergycontroller.html#disconnected" xlink:title=" ">
<polygon fill="white" stroke="#666666" points="395,-420.5 270,-420.5 270,-390.5 395,-390.5 395,-420.5"/>
<text text-anchor="start" x="278" y="-408.5" font-family="Helvetica,sans-Serif" font-size="10.00">QLowEnergyController</text>
<text text-anchor="middle" x="332.5" y="-397.5" font-family="Helvetica,sans-Serif" font-size="10.00">::disconnected</text>
</a>
</g>
</g>
<!-- Node1&#45;&gt;Node12 -->
<g id="edge14" class="edge">
<title>Node1&#45;&gt;Node12</title>
<path fill="none" stroke="#63b8ff" d="M144.41,-443.96C177.38,-437.18 222.27,-427.95 259.81,-420.24"/>
<polygon fill="#63b8ff" stroke="#63b8ff" points="260.6,-423.65 269.69,-418.21 259.19,-416.79 260.6,-423.65"/>
</g>
<!-- Node13 -->
<g id="node13" class="node">
<title>Node13</title>
<g id="a_node13"><a target="_parent" xlink:href="https://doc.qt.io/qt-5/qlowenergycontroller.html#error" xlink:title=" ">
<polygon fill="white" stroke="#666666" points="395,-372.5 270,-372.5 270,-342.5 395,-342.5 395,-372.5"/>
<text text-anchor="start" x="278" y="-360.5" font-family="Helvetica,sans-Serif" font-size="10.00">QLowEnergyController</text>
<text text-anchor="middle" x="332.5" y="-349.5" font-family="Helvetica,sans-Serif" font-size="10.00">::error</text>
</a>
</g>
</g>
<!-- Node1&#45;&gt;Node13 -->
<g id="edge15" class="edge">
<title>Node1&#45;&gt;Node13</title>
<path fill="none" stroke="#63b8ff" d="M112.42,-443.94C136.05,-428.68 184.9,-398.77 230,-381.5 239.55,-377.84 249.82,-374.63 260.03,-371.85"/>
<polygon fill="#63b8ff" stroke="#63b8ff" points="260.99,-375.22 269.78,-369.31 259.22,-368.44 260.99,-375.22"/>
</g>
<!-- Node14 -->
<g id="node14" class="node">
<title>Node14</title>
<g id="a_node14"><a xlink:href="classDeviceCommand.html#a8f890b3a7389d158ad8fd06aa54035b3" target="_top" xlink:title="Returns a Pokit service object for the derived command class.">
<polygon fill="white" stroke="#666666" points="411.5,-324 253.5,-324 253.5,-305 411.5,-305 411.5,-324"/>
<text text-anchor="middle" x="332.5" y="-312" font-family="Helvetica,sans-Serif" font-size="10.00">DeviceCommand::getService</text>
</a>
</g>
</g>
<!-- Node1&#45;&gt;Node14 -->
<g id="edge16" class="edge">
<title>Node1&#45;&gt;Node14</title>
<path fill="none" stroke="#63b8ff" d="M105.39,-443.8C123.69,-420.55 173.7,-361.49 230,-333.5 234.92,-331.06 240.11,-328.92 245.44,-327.07"/>
<polygon fill="#63b8ff" stroke="#63b8ff" points="246.67,-330.35 255.16,-324.01 244.57,-323.67 246.67,-330.35"/>
</g>
<!-- Node15 -->
<g id="node15" class="node">
<title>Node15</title>
<g id="a_node15"><a target="_parent" xlink:href="https://doc.qt.io/qt-5/qstring.html#isEmpty" xlink:title=" ">
<polygon fill="white" stroke="#666666" points="381.5,-287 283.5,-287 283.5,-268 381.5,-268 381.5,-287"/>
<text text-anchor="middle" x="332.5" y="-275" font-family="Helvetica,sans-Serif" font-size="10.00">QString::isEmpty</text>
</a>
</g>
</g>
<!-- Node1&#45;&gt;Node15 -->
<g id="edge17" class="edge">
<title>Node1&#45;&gt;Node15</title>
<path fill="none" stroke="#63b8ff" d="M102.96,-443.67C117.84,-415.34 165.05,-333.13 230,-295.5 243.02,-287.95 258.44,-283.42 273.28,-280.74"/>
<polygon fill="#63b8ff" stroke="#63b8ff" points="274.08,-284.16 283.42,-279.17 273,-277.24 274.08,-284.16"/>
</g>
<!-- Node16 -->
<g id="node16" class="node">
<title>Node16</title>
<g id="a_node16"><a target="_parent" xlink:href="https://doc.qt.io/qt-5/qbluetoothaddress.html#isNull" xlink:title=" ">
<polygon fill="white" stroke="#666666" points="390.5,-249.5 274.5,-249.5 274.5,-219.5 390.5,-219.5 390.5,-249.5"/>
<text text-anchor="start" x="282.5" y="-237.5" font-family="Helvetica,sans-Serif" font-size="10.00">QBluetoothAddress::</text>
<text text-anchor="middle" x="332.5" y="-226.5" font-family="Helvetica,sans-Serif" font-size="10.00">isNull</text>
</a>
</g>
</g>
<!-- Node1&#45;&gt;Node16 -->
<g id="edge18" class="edge">
<title>Node1&#45;&gt;Node16</title>
<path fill="none" stroke="#63b8ff" d="M101.51,-443.94C113.72,-412.03 157.65,-308.42 230,-258.5 240.29,-251.4 252.41,-246.38 264.63,-242.84"/>
<polygon fill="#63b8ff" stroke="#63b8ff" points="265.61,-246.21 274.42,-240.31 263.86,-239.43 265.61,-246.21"/>
</g>
<!-- Node17 -->
<g id="node17" class="node">
<title>Node17</title>
<g id="a_node17"><a target="_parent" xlink:href="https://doc.qt.io/qt-5/quuid.html#isNull" xlink:title=" ">
<polygon fill="white" stroke="#666666" points="372.5,-201 292.5,-201 292.5,-182 372.5,-182 372.5,-201"/>
<text text-anchor="middle" x="332.5" y="-189" font-family="Helvetica,sans-Serif" font-size="10.00">QUuid::isNull</text>
</a>
</g>
</g>
<!-- Node1&#45;&gt;Node17 -->
<g id="edge19" class="edge">
<title>Node1&#45;&gt;Node17</title>
<path fill="none" stroke="#63b8ff" d="M100.09,-443.87C108.66,-406.83 144.79,-272.51 230,-210.5 244.9,-199.65 264.21,-194.45 281.98,-192.12"/>
<polygon fill="#63b8ff" stroke="#63b8ff" points="282.63,-195.57 292.21,-191.05 281.91,-188.61 282.63,-195.57"/>
</g>
<!-- Node18 -->
<g id="node18" class="node">
<title>Node18</title>
<g id="a_node18"><a target="_parent" xlink:href="https://doc.qt.io/qt-5/qbluetoothdeviceinfo.html#name" xlink:title=" ">
<polygon fill="white" stroke="#666666" points="394.5,-163.5 270.5,-163.5 270.5,-133.5 394.5,-133.5 394.5,-163.5"/>
<text text-anchor="start" x="278.5" y="-151.5" font-family="Helvetica,sans-Serif" font-size="10.00">QBluetoothDeviceInfo</text>
<text text-anchor="middle" x="332.5" y="-140.5" font-family="Helvetica,sans-Serif" font-size="10.00">::name</text>
</a>
</g>
</g>
<!-- Node1&#45;&gt;Node18 -->
<g id="edge20" class="edge">
<title>Node1&#45;&gt;Node18</title>
<path fill="none" stroke="#63b8ff" d="M99.45,-443.94C106.06,-403.85 137.1,-247.92 230,-172.5 238.86,-165.31 249.51,-160.2 260.54,-156.59"/>
<polygon fill="#63b8ff" stroke="#63b8ff" points="261.64,-159.91 270.28,-153.79 259.7,-153.19 261.64,-159.91"/>
</g>
<!-- Node19 -->
<g id="node19" class="node">
<title>Node19</title>
<g id="a_node19"><a xlink:href="classDeviceCommand.html#a906fd97d832be0e8d2ba1c917fba41db" target="_top" xlink:title="Handles service detail discovery events.">
<polygon fill="white" stroke="#666666" points="420.5,-678.5 244.5,-678.5 244.5,-648.5 420.5,-648.5 420.5,-678.5"/>
<text text-anchor="start" x="252.5" y="-666.5" font-family="Helvetica,sans-Serif" font-size="10.00">DeviceCommand::serviceDetails</text>
<text text-anchor="middle" x="332.5" y="-655.5" font-family="Helvetica,sans-Serif" font-size="10.00">Discovered</text>
</a>
</g>
</g>
<!-- Node1&#45;&gt;Node19 -->
<g id="edge21" class="edge">
<title>Node1&#45;&gt;Node19</title>
<path fill="none" stroke="#63b8ff" d="M102.17,-463.09C115.8,-493.27 162.08,-587.08 230,-634.5 235.45,-638.31 241.4,-641.62 247.59,-644.49"/>
<polygon fill="#63b8ff" stroke="#63b8ff" points="246.23,-647.72 256.8,-648.41 248.96,-641.28 246.23,-647.72"/>
</g>
<!-- Node20 -->
<g id="node20" class="node">
<title>Node20</title>
<g id="a_node20"><a xlink:href="classDeviceCommand.html#a96208c78728c0068e7a78f961b913751" target="_top" xlink:title="Handles service error events.">
<polygon fill="white" stroke="#666666" points="415,-764 250,-764 250,-745 415,-745 415,-764"/>
<text text-anchor="middle" x="332.5" y="-752" font-family="Helvetica,sans-Serif" font-size="10.00">DeviceCommand::serviceError</text>
</a>
</g>
</g>
<!-- Node1&#45;&gt;Node20 -->
<g id="edge23" class="edge">
<title>Node1&#45;&gt;Node20</title>
<path fill="none" stroke="#63b8ff" d="M99.35,-463.21C105.53,-503.91 135.13,-662.02 230,-735.5 233.26,-738.02 236.74,-740.24 240.4,-742.2"/>
<polygon fill="#63b8ff" stroke="#63b8ff" points="239.23,-745.52 249.78,-746.53 242.17,-739.16 239.23,-745.52"/>
</g>
<!-- Node21 -->
<g id="node21" class="node">
<title>Node21</title>
<g id="a_node21"><a target="_parent" xlink:href="https://doc.qt.io/qt-5/qbluetoothdevicediscoveryagent.html#stop" xlink:title=" ">
<polygon fill="white" stroke="#666666" points="409.5,-115.5 255.5,-115.5 255.5,-85.5 409.5,-85.5 409.5,-115.5"/>
<text text-anchor="start" x="263.5" y="-103.5" font-family="Helvetica,sans-Serif" font-size="10.00">QBluetoothDeviceDiscovery</text>
<text text-anchor="middle" x="332.5" y="-92.5" font-family="Helvetica,sans-Serif" font-size="10.00">Agent::stop</text>
</a>
</g>
</g>
<!-- Node1&#45;&gt;Node21 -->
<g id="edge26" class="edge">
<title>Node1&#45;&gt;Node21</title>
<path fill="none" stroke="#63b8ff" d="M98.75,-443.88C102.72,-399.7 125.28,-214.64 230,-124.5 234.86,-120.31 240.33,-116.83 246.13,-113.93"/>
<polygon fill="#63b8ff" stroke="#63b8ff" points="247.73,-117.05 255.49,-109.83 244.92,-110.63 247.73,-117.05"/>
</g>
<!-- Node22 -->
<g id="node22" class="node">
<title>Node22</title>
<g id="a_node22"><a target="_parent" xlink:href="https://doc.qt.io/qt-5/qbluetoothaddress.html#toString" xlink:title=" ">
<polygon fill="white" stroke="#666666" points="390.5,-67.5 274.5,-67.5 274.5,-37.5 390.5,-37.5 390.5,-67.5"/>
<text text-anchor="start" x="282.5" y="-55.5" font-family="Helvetica,sans-Serif" font-size="10.00">QBluetoothAddress::</text>
<text text-anchor="middle" x="332.5" y="-44.5" font-family="Helvetica,sans-Serif" font-size="10.00">toString</text>
</a>
</g>
</g>
<!-- Node1&#45;&gt;Node22 -->
<g id="edge27" class="edge">
<title>Node1&#45;&gt;Node22</title>
<path fill="none" stroke="#63b8ff" d="M98.2,-443.82C99.77,-395.84 113.28,-181.61 230,-76.5 239.7,-67.76 252,-62.04 264.65,-58.33"/>
<polygon fill="#63b8ff" stroke="#63b8ff" points="265.52,-61.72 274.35,-55.87 263.8,-54.94 265.52,-61.72"/>
</g>
<!-- Node23 -->
<g id="node23" class="node">
<title>Node23</title>
<g id="a_node23"><a target="_parent" xlink:href="https://doc.qt.io/qt-5/quuid.html#toString" xlink:title=" ">
<polygon fill="white" stroke="#666666" points="378,-19 287,-19 287,0 378,0 378,-19"/>
<text text-anchor="middle" x="332.5" y="-7" font-family="Helvetica,sans-Serif" font-size="10.00">QUuid::toString</text>
</a>
</g>
</g>
<!-- Node1&#45;&gt;Node23 -->
<g id="edge28" class="edge">
<title>Node1&#45;&gt;Node23</title>
<path fill="none" stroke="#63b8ff" d="M97.68,-443.9C96.51,-392.31 98.13,-145.88 230,-28.5 242.7,-17.2 259.91,-11.66 276.56,-9.17"/>
<polygon fill="#63b8ff" stroke="#63b8ff" points="277.27,-12.61 286.8,-7.99 276.47,-5.66 277.27,-12.61"/>
</g>
<!-- Node8 -->
<g id="node8" class="node">
<title>Node8</title>
<g id="a_node8"><a target="_parent" xlink:href="https://doc.qt.io/qt-5/qcoreapplication.html#exit" xlink:title=" ">
<polygon fill="white" stroke="#666666" points="597,-764 471,-764 471,-745 597,-745 597,-764"/>
<text text-anchor="middle" x="534" y="-752" font-family="Helvetica,sans-Serif" font-size="10.00">QCoreApplication::exit</text>
</a>
</g>
</g>
<!-- Node7&#45;&gt;Node8 -->
<g id="edge7" class="edge">
<title>Node7&#45;&gt;Node8</title>
<path fill="none" stroke="#63b8ff" d="M403.28,-726.54C428.04,-731.88 455.52,-737.8 478.79,-742.82"/>
<polygon fill="#63b8ff" stroke="#63b8ff" points="478.31,-746.29 488.82,-744.98 479.78,-739.45 478.31,-746.29"/>
</g>
<!-- Node7&#45;&gt;Node9 -->
<g id="edge8" class="edge">
<title>Node7&#45;&gt;Node9</title>
<path fill="none" stroke="#63b8ff" d="M409.21,-711.5C436.16,-711.5 465.61,-711.5 489.02,-711.5"/>
<polygon fill="#63b8ff" stroke="#63b8ff" points="489.32,-715 499.32,-711.5 489.32,-708 489.32,-715"/>
</g>
<!-- Node10&#45;&gt;Node3 -->
<g id="edge10" class="edge">
<title>Node10&#45;&gt;Node3</title>
<path fill="none" stroke="#63b8ff" d="M433.54,-801.03C452.2,-802.81 470.85,-804.58 486.87,-806.11"/>
<polygon fill="#63b8ff" stroke="#63b8ff" points="486.71,-809.61 497,-807.07 487.37,-802.64 486.71,-809.61"/>
</g>
<!-- Node10&#45;&gt;Node8 -->
<g id="edge11" class="edge">
<title>Node10&#45;&gt;Node8</title>
<path fill="none" stroke="#63b8ff" d="M388.05,-781.99C403.26,-779.3 419.78,-776.32 435,-773.5 447.9,-771.11 461.74,-768.47 474.84,-765.94"/>
<polygon fill="#63b8ff" stroke="#63b8ff" points="475.53,-769.37 484.68,-764.03 474.2,-762.49 475.53,-769.37"/>
</g>
<!-- Node10&#45;&gt;Node9 -->
<g id="edge12" class="edge">
<title>Node10&#45;&gt;Node9</title>
<path fill="none" stroke="#63b8ff" d="M414.88,-781.93C421.89,-779.67 428.7,-776.89 435,-773.5 455.48,-762.47 451.68,-748.46 471,-735.5 477.13,-731.39 484.06,-727.83 491.02,-724.81"/>
<polygon fill="#63b8ff" stroke="#63b8ff" points="492.47,-728 500.44,-721.03 489.86,-721.51 492.47,-728"/>
</g>
<!-- Node19&#45;&gt;Node9 -->
<g id="edge22" class="edge">
<title>Node19&#45;&gt;Node9</title>
<path fill="none" stroke="#63b8ff" d="M397.41,-678.53C409.88,-681.49 422.85,-684.58 435,-687.5 452.77,-691.78 472.34,-696.55 489.28,-700.71"/>
<polygon fill="#63b8ff" stroke="#63b8ff" points="488.91,-704.23 499.45,-703.21 490.58,-697.43 488.91,-704.23"/>
</g>
<!-- Node20&#45;&gt;Node8 -->
<g id="edge24" class="edge">
<title>Node20&#45;&gt;Node8</title>
<path fill="none" stroke="#63b8ff" d="M415.22,-754.5C430.35,-754.5 446.04,-754.5 460.86,-754.5"/>
<polygon fill="#63b8ff" stroke="#63b8ff" points="460.96,-758 470.96,-754.5 460.96,-751 460.96,-758"/>
</g>
<!-- Node20&#45;&gt;Node9 -->
<g id="edge25" class="edge">
<title>Node20&#45;&gt;Node9</title>
<path fill="none" stroke="#63b8ff" d="M387.34,-744.99C402.77,-742.11 419.58,-738.83 435,-735.5 452.72,-731.67 472.14,-727.02 488.98,-722.83"/>
<polygon fill="#63b8ff" stroke="#63b8ff" points="490.24,-726.12 499.09,-720.29 488.54,-719.33 490.24,-726.12"/>
</g>
</g>
</svg>
