<?xml version="1.0" encoding="UTF-8" standalone="no"?>
<!DOCTYPE svg PUBLIC "-//W3C//DTD SVG 1.1//EN"
 "http://www.w3.org/Graphics/SVG/1.1/DTD/svg11.dtd">
<!-- Generated by graphviz version 2.43.0 (0)
 -->
<!-- Title: DeviceInfoServicePrivate Pages: 1 -->
<svg width="284pt" height="152pt"
 viewBox="0.00 0.00 284.00 152.00" xmlns="http://www.w3.org/2000/svg" xmlns:xlink="http://www.w3.org/1999/xlink">
<g id="graph0" class="graph" transform="scale(1 1) rotate(0) translate(4 148)">
<title>DeviceInfoServicePrivate</title>
<!-- Node1 -->
<g id="node1" class="node">
<title>Node1</title>
<g id="a_node1"><a xlink:title="The DeviceInfoServicePrivate class provides private implementation for DeviceInfoService.">
<polygon fill="#bfbfbf" stroke="black" points="0,-0.5 0,-19.5 140,-19.5 140,-0.5 0,-0.5"/>
<text text-anchor="middle" x="70" y="-7.5" font-family="Helvetica,sans-Serif" font-size="10.00">DeviceInfoServicePrivate</text>
</a>
</g>
</g>
<!-- Node2 -->
<g id="node2" class="node">
<title>Node2</title>
<g id="a_node2"><a xlink:href="classAbstractPokitServicePrivate.html" target="_top" xlink:title="The AbstractPokitServicePrivate class provides private implementation for AbstractPokitService.">
<polygon fill="none" stroke="black" points="59,-67.5 59,-86.5 211,-86.5 211,-67.5 59,-67.5"/>
<text text-anchor="middle" x="135" y="-74.5" font-family="Helvetica,sans-Serif" font-size="10.00">AbstractPokitServicePrivate</text>
</a>
</g>
</g>
<!-- Node2&#45;&gt;Node1 -->
<g id="edge1" class="edge">
<title>Node2&#45;&gt;Node1</title>
<path fill="none" stroke="midnightblue" d="M119,-60C106.25,-47.25 88.89,-29.89 78.63,-19.63"/>
<polygon fill="midnightblue" stroke="midnightblue" points="116.69,-62.64 126.23,-67.23 121.64,-57.69 116.69,-62.64"/>
</g>
<!-- Node4 -->
<g id="node4" class="node">
<title>Node4</title>
<g id="a_node4"><a xlink:href="classAbstractPokitService.html" target="_top" xlink:title="The AbstractPokitService class provides a common base for Pokit services classes.">
<polygon fill="none" stroke="black" points="158,-0.5 158,-19.5 276,-19.5 276,-0.5 158,-0.5"/>
<text text-anchor="middle" x="217" y="-7.5" font-family="Helvetica,sans-Serif" font-size="10.00">AbstractPokitService</text>
</a>
</g>
</g>
<!-- Node2&#45;&gt;Node4 -->
<g id="edge5" class="edge">
<title>Node2&#45;&gt;Node4</title>
<path fill="none" stroke="#9a32cd" stroke-dasharray="5,2" d="M133.6,-57.11C134.04,-50.44 135.7,-43.29 140,-38 146.97,-29.42 156.84,-23.57 167.19,-19.57"/>
<polygon fill="#9a32cd" stroke="#9a32cd" points="130.1,-57.52 133.75,-67.46 137.1,-57.41 130.1,-57.52"/>
<text text-anchor="middle" x="154" y="-41" font-family="Helvetica,sans-Serif" font-size="10.00"> d_ptr</text>
</g>
<!-- Node3 -->
<g id="node3" class="node">
<title>Node3</title>
<g id="a_node3"><a xlink:title=" ">
<polygon fill="none" stroke="#bfbfbf" points="159,-124.5 159,-143.5 215,-143.5 215,-124.5 159,-124.5"/>
<text text-anchor="middle" x="187" y="-131.5" font-family="Helvetica,sans-Serif" font-size="10.00">QObject</text>
</a>
</g>
</g>
<!-- Node3&#45;&gt;Node2 -->
<g id="edge2" class="edge">
<title>Node3&#45;&gt;Node2</title>
<path fill="none" stroke="midnightblue" d="M171.99,-117.12C162.63,-107.22 150.94,-94.86 143.24,-86.71"/>
<polygon fill="midnightblue" stroke="midnightblue" points="169.46,-119.54 178.88,-124.41 174.55,-114.74 169.46,-119.54"/>
</g>
<!-- Node3&#45;&gt;Node4 -->
<g id="edge4" class="edge">
<title>Node3&#45;&gt;Node4</title>
<path fill="none" stroke="midnightblue" d="M202.46,-116.78C209.25,-108.54 216.47,-97.97 220,-87 227.52,-63.62 222.53,-34.09 219.24,-19.7"/>
<polygon fill="midnightblue" stroke="midnightblue" points="199.7,-114.62 195.72,-124.44 204.95,-119.25 199.7,-114.62"/>
</g>
<!-- Node4&#45;&gt;Node2 -->
<g id="edge3" class="edge">
<title>Node4&#45;&gt;Node2</title>
<path fill="none" stroke="#9a32cd" stroke-dasharray="5,2" d="M199.35,-26.4C191.15,-33.43 181.19,-41.78 172,-49 163.87,-55.39 154.46,-62.25 147.16,-67.46"/>
<polygon fill="#9a32cd" stroke="#9a32cd" points="201.88,-28.84 207.16,-19.66 197.3,-23.55 201.88,-28.84"/>
<text text-anchor="middle" x="198" y="-41" font-family="Helvetica,sans-Serif" font-size="10.00"> q_ptr</text>
</g>
</g>
</svg>
