<?xml version="1.0" encoding="UTF-8" standalone="no"?>
<!DOCTYPE svg PUBLIC "-//W3C//DTD SVG 1.1//EN"
 "http://www.w3.org/Graphics/SVG/1.1/DTD/svg11.dtd">
<!-- Generated by graphviz version 2.43.0 (0)
 -->
<!-- Title: DeviceCommand::start Pages: 1 -->
<svg width="482pt" height="150pt"
 viewBox="0.00 0.00 482.00 150.00" xmlns="http://www.w3.org/2000/svg" xmlns:xlink="http://www.w3.org/1999/xlink">
<g id="graph0" class="graph" transform="scale(1 1) rotate(0) translate(4 146)">
<title>DeviceCommand::start</title>
<!-- Node1 -->
<g id="node1" class="node">
<title>Node1</title>
<g id="a_node1"><a xlink:title="Begins scanning for the Pokit device.">
<polygon fill="#999999" stroke="#666666" points="129,-83 0,-83 0,-64 129,-64 129,-83"/>
<text text-anchor="middle" x="64.5" y="-71" font-family="Helvetica,sans-Serif" font-size="10.00">DeviceCommand::start</text>
</a>
</g>
</g>
<!-- Node2 -->
<g id="node2" class="node">
<title>Node2</title>
<g id="a_node2"><a target="_parent" xlink:href="https://doc.qt.io/qt-5/qstring.html#arg-11" xlink:title=" ">
<polygon fill="white" stroke="#666666" points="261.5,-142 187.5,-142 187.5,-123 261.5,-123 261.5,-142"/>
<text text-anchor="middle" x="224.5" y="-130" font-family="Helvetica,sans-Serif" font-size="10.00">QString::arg</text>
</a>
</g>
</g>
<!-- Node1&#45;&gt;Node2 -->
<g id="edge1" class="edge">
<title>Node1&#45;&gt;Node2</title>
<path fill="none" stroke="#63b8ff" d="M87.01,-83.04C107.02,-91.75 137.74,-104.71 165,-114.5 170.13,-116.34 175.54,-118.16 180.93,-119.91"/>
<polygon fill="#63b8ff" stroke="#63b8ff" points="179.94,-123.26 190.53,-122.94 182.05,-116.59 179.94,-123.26"/>
</g>
<!-- Node3 -->
<g id="node3" class="node">
<title>Node3</title>
<g id="a_node3"><a target="_parent" xlink:href="https://doc.qt.io/qt-5/qstring.html#isNull" xlink:title=" ">
<polygon fill="white" stroke="#666666" points="267.5,-105 181.5,-105 181.5,-86 267.5,-86 267.5,-105"/>
<text text-anchor="middle" x="224.5" y="-93" font-family="Helvetica,sans-Serif" font-size="10.00">QString::isNull</text>
</a>
</g>
</g>
<!-- Node1&#45;&gt;Node3 -->
<g id="edge2" class="edge">
<title>Node1&#45;&gt;Node3</title>
<path fill="none" stroke="#63b8ff" d="M129.31,-82.38C143.23,-84.32 157.81,-86.35 171.22,-88.22"/>
<polygon fill="#63b8ff" stroke="#63b8ff" points="170.83,-91.7 181.22,-89.61 171.8,-84.77 170.83,-91.7"/>
</g>
<!-- Node4 -->
<g id="node4" class="node">
<title>Node4</title>
<g id="a_node4"><a xlink:href="classPokitDiscoveryAgent.html#a7a91a09dbbe46327407d69bc04b19fc5" target="_top" xlink:title="Starts Pokit device discovery.">
<polygon fill="white" stroke="#666666" points="284,-67.5 165,-67.5 165,-37.5 284,-37.5 284,-67.5"/>
<text text-anchor="start" x="173" y="-55.5" font-family="Helvetica,sans-Serif" font-size="10.00">PokitDiscoveryAgent</text>
<text text-anchor="middle" x="224.5" y="-44.5" font-family="Helvetica,sans-Serif" font-size="10.00">::start</text>
</a>
</g>
</g>
<!-- Node1&#45;&gt;Node4 -->
<g id="edge3" class="edge">
<title>Node1&#45;&gt;Node4</title>
<path fill="none" stroke="#63b8ff" d="M129.31,-65.02C137.65,-63.91 146.23,-62.77 154.65,-61.65"/>
<polygon fill="#63b8ff" stroke="#63b8ff" points="155.36,-65.09 164.81,-60.3 154.44,-58.15 155.36,-65.09"/>
</g>
<!-- Node7 -->
<g id="node7" class="node">
<title>Node7</title>
<g id="a_node7"><a target="_parent" xlink:href="https://doc.qt.io/qt-5/qobject.html#tr" xlink:title=" ">
<polygon fill="white" stroke="#666666" points="259,-19 190,-19 190,0 259,0 259,-19"/>
<text text-anchor="middle" x="224.5" y="-7" font-family="Helvetica,sans-Serif" font-size="10.00">QObject::tr</text>
</a>
</g>
</g>
<!-- Node1&#45;&gt;Node7 -->
<g id="edge6" class="edge">
<title>Node1&#45;&gt;Node7</title>
<path fill="none" stroke="#63b8ff" d="M85.05,-63.88C104.92,-54.29 136.71,-39.45 165,-28.5 170.55,-26.35 176.46,-24.24 182.3,-22.25"/>
<polygon fill="#63b8ff" stroke="#63b8ff" points="183.62,-25.5 192,-19.02 181.41,-18.85 183.62,-25.5"/>
</g>
<!-- Node5 -->
<g id="node5" class="node">
<title>Node5</title>
<g id="a_node5"><a target="_parent" xlink:href="https://doc.qt.io/qt-5/qbluetoothdevicediscoveryagent.html#start" xlink:title=" ">
<polygon fill="white" stroke="#666666" points="474,-91.5 320,-91.5 320,-61.5 474,-61.5 474,-91.5"/>
<text text-anchor="start" x="328" y="-79.5" font-family="Helvetica,sans-Serif" font-size="10.00">QBluetoothDeviceDiscovery</text>
<text text-anchor="middle" x="397" y="-68.5" font-family="Helvetica,sans-Serif" font-size="10.00">Agent::start</text>
</a>
</g>
</g>
<!-- Node4&#45;&gt;Node5 -->
<g id="edge4" class="edge">
<title>Node4&#45;&gt;Node5</title>
<path fill="none" stroke="#63b8ff" d="M284.18,-60.76C292.42,-61.92 301.02,-63.13 309.64,-64.34"/>
<polygon fill="#63b8ff" stroke="#63b8ff" points="309.36,-67.84 319.75,-65.77 310.34,-60.91 309.36,-67.84"/>
</g>
<!-- Node6 -->
<g id="node6" class="node">
<title>Node6</title>
<g id="a_node6"><a target="_parent" xlink:href="https://doc.qt.io/qt-5/qbluetoothdevicediscoveryagent.html#tr" xlink:title=" ">
<polygon fill="white" stroke="#666666" points="474,-43.5 320,-43.5 320,-13.5 474,-13.5 474,-43.5"/>
<text text-anchor="start" x="328" y="-31.5" font-family="Helvetica,sans-Serif" font-size="10.00">QBluetoothDeviceDiscovery</text>
<text text-anchor="middle" x="397" y="-20.5" font-family="Helvetica,sans-Serif" font-size="10.00">Agent::tr</text>
</a>
</g>
</g>
<!-- Node4&#45;&gt;Node6 -->
<g id="edge5" class="edge">
<title>Node4&#45;&gt;Node6</title>
<path fill="none" stroke="#63b8ff" d="M284.18,-44.24C292.42,-43.08 301.02,-41.87 309.64,-40.66"/>
<polygon fill="#63b8ff" stroke="#63b8ff" points="310.34,-44.09 319.75,-39.23 309.36,-37.16 310.34,-44.09"/>
</g>
</g>
</svg>
