<?xml version="1.0" encoding="UTF-8" standalone="no"?>
<!DOCTYPE svg PUBLIC "-//W3C//DTD SVG 1.1//EN"
 "http://www.w3.org/Graphics/SVG/1.1/DTD/svg11.dtd">
<!-- Generated by graphviz version 2.43.0 (0)
 -->
<!-- Title: ScanCommand::processOptions Pages: 1 -->
<svg width="801pt" height="551pt"
 viewBox="0.00 0.00 801.00 550.50" xmlns="http://www.w3.org/2000/svg" xmlns:xlink="http://www.w3.org/1999/xlink">
<g id="graph0" class="graph" transform="scale(1 1) rotate(0) translate(4 546.5)">
<title>ScanCommand::processOptions</title>
<!-- Node1 -->
<g id="node1" class="node">
<title>Node1</title>
<g id="a_node1"><a xlink:title="Processes the relevant options from the command line parser.">
<polygon fill="#999999" stroke="#666666" points="171,-302.5 0,-302.5 0,-283.5 171,-283.5 171,-302.5"/>
<text text-anchor="middle" x="85.5" y="-290.5" font-family="Helvetica,sans-Serif" font-size="10.00">ScanCommand::processOptions</text>
</a>
</g>
</g>
<!-- Node2 -->
<g id="node2" class="node">
<title>Node2</title>
<g id="a_node2"><a target="_parent" xlink:href="https://doc.qt.io/qt-5/qlist.html#isEmpty" xlink:title=" ">
<polygon fill="white" stroke="#666666" points="326,-324.5 239,-324.5 239,-305.5 326,-305.5 326,-324.5"/>
<text text-anchor="middle" x="282.5" y="-312.5" font-family="Helvetica,sans-Serif" font-size="10.00">QList::isEmpty</text>
</a>
</g>
</g>
<!-- Node1&#45;&gt;Node2 -->
<g id="edge1" class="edge">
<title>Node1&#45;&gt;Node2</title>
<path fill="none" stroke="#63b8ff" d="M170.9,-302.52C190.51,-304.73 210.85,-307.03 228.66,-309.04"/>
<polygon fill="#63b8ff" stroke="#63b8ff" points="228.49,-312.54 238.82,-310.19 229.28,-305.59 228.49,-312.54"/>
</g>
<!-- Node3 -->
<g id="node3" class="node">
<title>Node3</title>
<g id="a_node3"><a xlink:href="classAbstractCommand.html#ad827a18a24776efeb955739459d48f7d" target="_top" xlink:title="Processes the relevant options from the command line parser.">
<polygon fill="white" stroke="#666666" points="358,-287 207,-287 207,-257 358,-257 358,-287"/>
<text text-anchor="start" x="215" y="-275" font-family="Helvetica,sans-Serif" font-size="10.00">AbstractCommand::process</text>
<text text-anchor="middle" x="282.5" y="-264" font-family="Helvetica,sans-Serif" font-size="10.00">Options</text>
</a>
</g>
</g>
<!-- Node1&#45;&gt;Node3 -->
<g id="edge2" class="edge">
<title>Node1&#45;&gt;Node3</title>
<path fill="none" stroke="#63b8ff" d="M171.18,-283.88C179.75,-282.96 188.45,-282.02 197.02,-281.1"/>
<polygon fill="#63b8ff" stroke="#63b8ff" points="197.43,-284.57 207,-280.02 196.68,-277.61 197.43,-284.57"/>
</g>
<!-- Node4 -->
<g id="node4" class="node">
<title>Node4</title>
<g id="a_node4"><a target="_parent" xlink:href="https://doc.qt.io/qt-5/qlist.html#append" xlink:title=" ">
<polygon fill="white" stroke="#666666" points="540,-542.5 457,-542.5 457,-523.5 540,-523.5 540,-542.5"/>
<text text-anchor="middle" x="498.5" y="-530.5" font-family="Helvetica,sans-Serif" font-size="10.00">QList::append</text>
</a>
</g>
</g>
<!-- Node3&#45;&gt;Node4 -->
<g id="edge3" class="edge">
<title>Node3&#45;&gt;Node4</title>
<path fill="none" stroke="#63b8ff" d="M346.6,-287.15C350.84,-289.9 354.73,-293.16 358,-297 421.66,-371.77 324.86,-445.27 394,-515 407.66,-528.78 427.84,-534.21 446.76,-535.86"/>
<polygon fill="#63b8ff" stroke="#63b8ff" points="446.62,-539.36 456.8,-536.41 447,-532.37 446.62,-539.36"/>
</g>
<!-- Node5 -->
<g id="node5" class="node">
<title>Node5</title>
<g id="a_node5"><a target="_parent" xlink:href="https://doc.qt.io/qt-5/qstring.html#arg-11" xlink:title=" ">
<polygon fill="white" stroke="#666666" points="535.5,-505.5 461.5,-505.5 461.5,-486.5 535.5,-486.5 535.5,-505.5"/>
<text text-anchor="middle" x="498.5" y="-493.5" font-family="Helvetica,sans-Serif" font-size="10.00">QString::arg</text>
</a>
</g>
</g>
<!-- Node3&#45;&gt;Node5 -->
<g id="edge4" class="edge">
<title>Node3&#45;&gt;Node5</title>
<path fill="none" stroke="#63b8ff" d="M346.11,-287.04C350.53,-289.82 354.58,-293.11 358,-297 412.19,-358.57 335.31,-420.71 394,-478 408.89,-492.54 431.07,-497.69 451.08,-498.94"/>
<polygon fill="#63b8ff" stroke="#63b8ff" points="451.2,-502.44 461.3,-499.26 451.42,-495.45 451.2,-502.44"/>
</g>
<!-- Node6 -->
<g id="node6" class="node">
<title>Node6</title>
<g id="a_node6"><a target="_parent" xlink:href="https://doc.qt.io/qt-5/qstringlist.html#contains" xlink:title=" ">
<polygon fill="white" stroke="#666666" points="557,-468.5 440,-468.5 440,-449.5 557,-449.5 557,-468.5"/>
<text text-anchor="middle" x="498.5" y="-456.5" font-family="Helvetica,sans-Serif" font-size="10.00">QStringList::contains</text>
</a>
</g>
</g>
<!-- Node3&#45;&gt;Node6 -->
<g id="edge5" class="edge">
<title>Node3&#45;&gt;Node6</title>
<path fill="none" stroke="#63b8ff" d="M345.55,-287.02C350.14,-289.8 354.39,-293.1 358,-297 402.52,-345.1 346.17,-395.19 394,-440 403.83,-449.21 416.58,-454.69 429.75,-457.82"/>
<polygon fill="#63b8ff" stroke="#63b8ff" points="429.38,-461.32 439.86,-459.79 430.71,-454.45 429.38,-461.32"/>
</g>
<!-- Node7 -->
<g id="node7" class="node">
<title>Node7</title>
<g id="a_node7"><a target="_parent" xlink:href="https://doc.qt.io/qt-5/qcommandlineparser.html#isSet" xlink:title=" ">
<polygon fill="white" stroke="#666666" points="561,-431 436,-431 436,-401 561,-401 561,-431"/>
<text text-anchor="start" x="444" y="-419" font-family="Helvetica,sans-Serif" font-size="10.00">QCommandLineParser</text>
<text text-anchor="middle" x="498.5" y="-408" font-family="Helvetica,sans-Serif" font-size="10.00">::isSet</text>
</a>
</g>
</g>
<!-- Node3&#45;&gt;Node7 -->
<g id="edge6" class="edge">
<title>Node3&#45;&gt;Node7</title>
<path fill="none" stroke="#63b8ff" d="M344.35,-287.07C349.32,-289.84 353.97,-293.12 358,-297 390.54,-328.31 360,-362.29 394,-392 403.11,-399.97 414.36,-405.42 426.04,-409.14"/>
<polygon fill="#63b8ff" stroke="#63b8ff" points="425.35,-412.58 435.92,-411.86 427.21,-405.83 425.35,-412.58"/>
</g>
<!-- Node8 -->
<g id="node8" class="node">
<title>Node8</title>
<g id="a_node8"><a target="_parent" xlink:href="https://doc.qt.io/qt-5/qbluetoothdevicediscoveryagent.html#lowEnergyDiscoveryTimeout" xlink:title=" ">
<polygon fill="white" stroke="#666666" points="594,-383 403,-383 403,-353 594,-353 594,-383"/>
<text text-anchor="start" x="411" y="-371" font-family="Helvetica,sans-Serif" font-size="10.00">QBluetoothDeviceDiscovery</text>
<text text-anchor="middle" x="498.5" y="-360" font-family="Helvetica,sans-Serif" font-size="10.00">Agent::lowEnergyDiscoveryTimeout</text>
</a>
</g>
</g>
<!-- Node3&#45;&gt;Node8 -->
<g id="edge7" class="edge">
<title>Node3&#45;&gt;Node8</title>
<path fill="none" stroke="#63b8ff" d="M340.57,-287.15C346.72,-289.93 352.67,-293.19 358,-297 379.41,-312.3 371.88,-329.75 394,-344 396.59,-345.67 399.28,-347.22 402.06,-348.67"/>
<polygon fill="#63b8ff" stroke="#63b8ff" points="400.61,-351.86 411.15,-352.93 403.58,-345.52 400.61,-351.86"/>
</g>
<!-- Node9 -->
<g id="node9" class="node">
<title>Node9</title>
<g id="a_node9"><a target="_parent" xlink:href="https://doc.qt.io/qt-5/qcommandlineparser.html#optionNames" xlink:title=" ">
<polygon fill="white" stroke="#666666" points="561,-335 436,-335 436,-305 561,-305 561,-335"/>
<text text-anchor="start" x="444" y="-323" font-family="Helvetica,sans-Serif" font-size="10.00">QCommandLineParser</text>
<text text-anchor="middle" x="498.5" y="-312" font-family="Helvetica,sans-Serif" font-size="10.00">::optionNames</text>
</a>
</g>
</g>
<!-- Node3&#45;&gt;Node9 -->
<g id="edge8" class="edge">
<title>Node3&#45;&gt;Node9</title>
<path fill="none" stroke="#63b8ff" d="M350.62,-287.06C374.54,-292.42 401.56,-298.48 425.84,-303.93"/>
<polygon fill="#63b8ff" stroke="#63b8ff" points="425.18,-307.37 435.71,-306.14 426.72,-300.54 425.18,-307.37"/>
</g>
<!-- Node10 -->
<g id="node10" class="node">
<title>Node10</title>
<g id="a_node10"><a xlink:href="classAbstractCommand.html#ab18bb57fe68534739f63c994330a29c2" target="_top" xlink:title="Returns value as a number of millis, such as milliseconds, or millivolts.">
<polygon fill="white" stroke="#666666" points="579,-287 418,-287 418,-257 579,-257 579,-287"/>
<text text-anchor="start" x="426" y="-275" font-family="Helvetica,sans-Serif" font-size="10.00">AbstractCommand::parseMilli</text>
<text text-anchor="middle" x="498.5" y="-264" font-family="Helvetica,sans-Serif" font-size="10.00">Value</text>
</a>
</g>
</g>
<!-- Node3&#45;&gt;Node10 -->
<g id="edge9" class="edge">
<title>Node3&#45;&gt;Node10</title>
<path fill="none" stroke="#63b8ff" d="M358.05,-272C374.03,-272 391.08,-272 407.57,-272"/>
<polygon fill="#63b8ff" stroke="#63b8ff" points="407.76,-275.5 417.76,-272 407.76,-268.5 407.76,-275.5"/>
</g>
<!-- Node18 -->
<g id="node18" class="node">
<title>Node18</title>
<g id="a_node18"><a xlink:href="classAbstractCommand.html#afd6f41cfc925751415cfa45e3b2d0b4a" target="_top" xlink:title="Returns a list of CLI option names required by this command.">
<polygon fill="white" stroke="#666666" points="793,-153 639,-153 639,-123 793,-123 793,-153"/>
<text text-anchor="start" x="647" y="-141" font-family="Helvetica,sans-Serif" font-size="10.00">AbstractCommand::required</text>
<text text-anchor="middle" x="716" y="-130" font-family="Helvetica,sans-Serif" font-size="10.00">Options</text>
</a>
</g>
</g>
<!-- Node3&#45;&gt;Node18 -->
<g id="edge17" class="edge">
<title>Node3&#45;&gt;Node18</title>
<path fill="none" stroke="#63b8ff" d="M350.92,-256.98C365.13,-253.92 380.04,-250.78 394,-248 486.59,-229.53 522.69,-259.64 603,-210 625.68,-195.98 617.24,-177.42 639,-162 641.12,-160.49 643.35,-159.08 645.64,-157.75"/>
<polygon fill="#63b8ff" stroke="#63b8ff" points="647.5,-160.73 654.79,-153.05 644.3,-154.51 647.5,-160.73"/>
</g>
<!-- Node19 -->
<g id="node19" class="node">
<title>Node19</title>
<g id="a_node19"><a target="_parent" xlink:href="https://doc.qt.io/qt-5/qbluetoothdevicediscoveryagent.html#setLowEnergyDiscoveryTimeout" xlink:title=" ">
<polygon fill="white" stroke="#666666" points="603,-201 394,-201 394,-171 603,-171 603,-201"/>
<text text-anchor="start" x="402" y="-189" font-family="Helvetica,sans-Serif" font-size="10.00">QBluetoothDeviceDiscovery</text>
<text text-anchor="middle" x="498.5" y="-178" font-family="Helvetica,sans-Serif" font-size="10.00">Agent::setLowEnergyDiscoveryTimeout</text>
</a>
</g>
</g>
<!-- Node3&#45;&gt;Node19 -->
<g id="edge18" class="edge">
<title>Node3&#45;&gt;Node19</title>
<path fill="none" stroke="#63b8ff" d="M309.15,-256.87C331.11,-244.38 363.87,-226.85 394,-215 404.17,-211 415.11,-207.31 425.92,-204"/>
<polygon fill="#63b8ff" stroke="#63b8ff" points="427.21,-207.27 435.8,-201.07 425.22,-200.56 427.21,-207.27"/>
</g>
<!-- Node20 -->
<g id="node20" class="node">
<title>Node20</title>
<g id="a_node20"><a xlink:href="classAbstractCommand.html#a1ceca3c5b4cb24277dd4d4054f45db18" target="_top" xlink:title="Returns a list of CLI option names supported by this command.">
<polygon fill="white" stroke="#666666" points="579.5,-153 417.5,-153 417.5,-123 579.5,-123 579.5,-153"/>
<text text-anchor="start" x="425.5" y="-141" font-family="Helvetica,sans-Serif" font-size="10.00">AbstractCommand::supported</text>
<text text-anchor="middle" x="498.5" y="-130" font-family="Helvetica,sans-Serif" font-size="10.00">Options</text>
</a>
</g>
</g>
<!-- Node3&#45;&gt;Node20 -->
<g id="edge19" class="edge">
<title>Node3&#45;&gt;Node20</title>
<path fill="none" stroke="#63b8ff" d="M294.17,-256.91C311.99,-232.9 350.19,-186.25 394,-162 398.43,-159.55 403.09,-157.35 407.89,-155.37"/>
<polygon fill="#63b8ff" stroke="#63b8ff" points="409.15,-158.64 417.27,-151.84 406.68,-152.09 409.15,-158.64"/>
</g>
<!-- Node21 -->
<g id="node21" class="node">
<title>Node21</title>
<g id="a_node21"><a target="_parent" xlink:href="https://doc.qt.io/qt-5/qstring.html#toLower" xlink:title=" ">
<polygon fill="white" stroke="#666666" points="547.5,-104.5 449.5,-104.5 449.5,-85.5 547.5,-85.5 547.5,-104.5"/>
<text text-anchor="middle" x="498.5" y="-92.5" font-family="Helvetica,sans-Serif" font-size="10.00">QString::toLower</text>
</a>
</g>
</g>
<!-- Node3&#45;&gt;Node21 -->
<g id="edge21" class="edge">
<title>Node3&#45;&gt;Node21</title>
<path fill="none" stroke="#63b8ff" d="M289.36,-256.86C302.63,-224.75 338.24,-149.82 394,-114 407.37,-105.41 423.59,-100.47 439.19,-97.68"/>
<polygon fill="#63b8ff" stroke="#63b8ff" points="439.96,-101.11 449.32,-96.14 438.91,-94.18 439.96,-101.11"/>
</g>
<!-- Node22 -->
<g id="node22" class="node">
<title>Node22</title>
<g id="a_node22"><a target="_parent" xlink:href="https://doc.qt.io/qt-5/qobject.html#tr" xlink:title=" ">
<polygon fill="white" stroke="#666666" points="533,-67.5 464,-67.5 464,-48.5 533,-48.5 533,-67.5"/>
<text text-anchor="middle" x="498.5" y="-55.5" font-family="Helvetica,sans-Serif" font-size="10.00">QObject::tr</text>
</a>
</g>
</g>
<!-- Node3&#45;&gt;Node22 -->
<g id="edge22" class="edge">
<title>Node3&#45;&gt;Node22</title>
<path fill="none" stroke="#63b8ff" d="M287.19,-256.99C297.23,-219.61 328.74,-122.08 394,-76 411.25,-63.82 434.08,-58.97 453.9,-57.32"/>
<polygon fill="#63b8ff" stroke="#63b8ff" points="454.18,-60.81 463.95,-56.73 453.76,-53.82 454.18,-60.81"/>
</g>
<!-- Node23 -->
<g id="node23" class="node">
<title>Node23</title>
<g id="a_node23"><a target="_parent" xlink:href="https://doc.qt.io/qt-5/qcommandlineparser.html#value" xlink:title=" ">
<polygon fill="white" stroke="#666666" points="561,-30 436,-30 436,0 561,0 561,-30"/>
<text text-anchor="start" x="444" y="-18" font-family="Helvetica,sans-Serif" font-size="10.00">QCommandLineParser</text>
<text text-anchor="middle" x="498.5" y="-7" font-family="Helvetica,sans-Serif" font-size="10.00">::value</text>
</a>
</g>
</g>
<!-- Node3&#45;&gt;Node23 -->
<g id="edge23" class="edge">
<title>Node3&#45;&gt;Node23</title>
<path fill="none" stroke="#63b8ff" d="M285.99,-256.96C293.72,-215.28 321.29,-97.54 394,-39 403.32,-31.5 414.55,-26.26 426.14,-22.61"/>
<polygon fill="#63b8ff" stroke="#63b8ff" points="427.21,-25.95 435.92,-19.91 425.35,-19.2 427.21,-25.95"/>
</g>
<!-- Node11 -->
<g id="node11" class="node">
<title>Node11</title>
<g id="a_node11"><a target="_parent" xlink:href="https://doc.qt.io/qt-5/qstring.html#chop" xlink:title=" ">
<polygon fill="white" stroke="#666666" points="757,-412.5 675,-412.5 675,-393.5 757,-393.5 757,-412.5"/>
<text text-anchor="middle" x="716" y="-400.5" font-family="Helvetica,sans-Serif" font-size="10.00">QString::chop</text>
</a>
</g>
</g>
<!-- Node10&#45;&gt;Node11 -->
<g id="edge10" class="edge">
<title>Node10&#45;&gt;Node11</title>
<path fill="none" stroke="#63b8ff" d="M579.08,-281.97C587.77,-285.44 595.99,-290.01 603,-296 635.44,-323.72 606.63,-357.2 639,-385 646.33,-391.29 655.47,-395.48 664.84,-398.24"/>
<polygon fill="#63b8ff" stroke="#63b8ff" points="664.08,-401.66 674.62,-400.63 665.74,-394.86 664.08,-401.66"/>
</g>
<!-- Node12 -->
<g id="node12" class="node">
<title>Node12</title>
<g id="a_node12"><a target="_parent" xlink:href="https://doc.qt.io/qt-5/qstring.html#endsWith" xlink:title=" ">
<polygon fill="white" stroke="#666666" points="768,-375.5 664,-375.5 664,-356.5 768,-356.5 768,-375.5"/>
<text text-anchor="middle" x="716" y="-363.5" font-family="Helvetica,sans-Serif" font-size="10.00">QString::endsWith</text>
</a>
</g>
</g>
<!-- Node10&#45;&gt;Node12 -->
<g id="edge11" class="edge">
<title>Node10&#45;&gt;Node12</title>
<path fill="none" stroke="#63b8ff" d="M579.21,-284.03C587.63,-287.16 595.75,-291.08 603,-296 626.25,-311.79 615.78,-332.15 639,-348 643.62,-351.15 648.72,-353.76 654.04,-355.91"/>
<polygon fill="#63b8ff" stroke="#63b8ff" points="653.17,-359.31 663.76,-359.31 655.48,-352.7 653.17,-359.31"/>
</g>
<!-- Node13 -->
<g id="node13" class="node">
<title>Node13</title>
<g id="a_node13"><a target="_parent" xlink:href="https://doc.qt.io/qt-5/qstring.html#isEmpty" xlink:title=" ">
<polygon fill="white" stroke="#666666" points="765,-338.5 667,-338.5 667,-319.5 765,-319.5 765,-338.5"/>
<text text-anchor="middle" x="716" y="-326.5" font-family="Helvetica,sans-Serif" font-size="10.00">QString::isEmpty</text>
</a>
</g>
</g>
<!-- Node10&#45;&gt;Node13 -->
<g id="edge12" class="edge">
<title>Node10&#45;&gt;Node13</title>
<path fill="none" stroke="#63b8ff" d="M571.47,-287.05C582.12,-289.75 592.9,-292.75 603,-296 619.5,-301.31 622.51,-305.65 639,-311 645.5,-313.11 652.38,-315.08 659.25,-316.9"/>
<polygon fill="#63b8ff" stroke="#63b8ff" points="658.7,-320.37 669.25,-319.44 660.42,-313.58 658.7,-320.37"/>
</g>
<!-- Node14 -->
<g id="node14" class="node">
<title>Node14</title>
<g id="a_node14"><a target="_parent" xlink:href="https://doc.qt.io/qt-5/qstring.html#length" xlink:title=" ">
<polygon fill="white" stroke="#666666" points="760.5,-301.5 671.5,-301.5 671.5,-282.5 760.5,-282.5 760.5,-301.5"/>
<text text-anchor="middle" x="716" y="-289.5" font-family="Helvetica,sans-Serif" font-size="10.00">QString::length</text>
</a>
</g>
</g>
<!-- Node10&#45;&gt;Node14 -->
<g id="edge13" class="edge">
<title>Node10&#45;&gt;Node14</title>
<path fill="none" stroke="#63b8ff" d="M579.13,-279.39C606.41,-281.92 636.27,-284.69 661.03,-286.99"/>
<polygon fill="#63b8ff" stroke="#63b8ff" points="661.03,-290.51 671.31,-287.95 661.68,-283.54 661.03,-290.51"/>
</g>
<!-- Node15 -->
<g id="node15" class="node">
<title>Node15</title>
<g id="a_node15"><a target="_parent" xlink:href="https://doc.qt.io/qt-5/qlocale.html#toDouble" xlink:title=" ">
<polygon fill="white" stroke="#666666" points="769,-264.5 663,-264.5 663,-245.5 769,-245.5 769,-264.5"/>
<text text-anchor="middle" x="716" y="-252.5" font-family="Helvetica,sans-Serif" font-size="10.00">QLocale::toDouble</text>
</a>
</g>
</g>
<!-- Node10&#45;&gt;Node15 -->
<g id="edge14" class="edge">
<title>Node10&#45;&gt;Node15</title>
<path fill="none" stroke="#63b8ff" d="M579.13,-265.72C603.36,-263.81 629.62,-261.74 652.54,-259.93"/>
<polygon fill="#63b8ff" stroke="#63b8ff" points="653.13,-263.39 662.82,-259.12 652.58,-256.41 653.13,-263.39"/>
</g>
<!-- Node16 -->
<g id="node16" class="node">
<title>Node16</title>
<g id="a_node16"><a target="_parent" xlink:href="https://doc.qt.io/qt-5/qlocale.html#toUInt" xlink:title=" ">
<polygon fill="white" stroke="#666666" points="762,-227.5 670,-227.5 670,-208.5 762,-208.5 762,-227.5"/>
<text text-anchor="middle" x="716" y="-215.5" font-family="Helvetica,sans-Serif" font-size="10.00">QLocale::toUInt</text>
</a>
</g>
</g>
<!-- Node10&#45;&gt;Node16 -->
<g id="edge15" class="edge">
<title>Node10&#45;&gt;Node16</title>
<path fill="none" stroke="#63b8ff" d="M559.58,-256.91C584.19,-250.74 612.96,-243.52 639,-237 648.01,-234.74 657.62,-232.34 666.87,-230.03"/>
<polygon fill="#63b8ff" stroke="#63b8ff" points="667.87,-233.38 676.73,-227.56 666.17,-226.59 667.87,-233.38"/>
</g>
<!-- Node17 -->
<g id="node17" class="node">
<title>Node17</title>
<g id="a_node17"><a target="_parent" xlink:href="https://doc.qt.io/qt-5/qstring.html#trimmed" xlink:title=" ">
<polygon fill="white" stroke="#666666" points="766.5,-190.5 665.5,-190.5 665.5,-171.5 766.5,-171.5 766.5,-190.5"/>
<text text-anchor="middle" x="716" y="-178.5" font-family="Helvetica,sans-Serif" font-size="10.00">QString::trimmed</text>
</a>
</g>
</g>
<!-- Node10&#45;&gt;Node17 -->
<g id="edge16" class="edge">
<title>Node10&#45;&gt;Node17</title>
<path fill="none" stroke="#63b8ff" d="M574.24,-256.94C584.33,-253.25 594.22,-248.67 603,-243 623.94,-229.48 617.87,-213.23 639,-200 644.1,-196.81 649.7,-194.15 655.48,-191.95"/>
<polygon fill="#63b8ff" stroke="#63b8ff" points="656.96,-195.14 665.32,-188.63 654.73,-188.51 656.96,-195.14"/>
</g>
<!-- Node20&#45;&gt;Node18 -->
<g id="edge20" class="edge">
<title>Node20&#45;&gt;Node18</title>
<path fill="none" stroke="#63b8ff" d="M579.74,-138C595.8,-138 612.73,-138 628.97,-138"/>
<polygon fill="#63b8ff" stroke="#63b8ff" points="628.98,-141.5 638.98,-138 628.98,-134.5 628.98,-141.5"/>
</g>
</g>
</svg>
