<?xml version="1.0" encoding="UTF-8" standalone="no"?>
<!DOCTYPE svg PUBLIC "-//W3C//DTD SVG 1.1//EN"
 "http://www.w3.org/Graphics/SVG/1.1/DTD/svg11.dtd">
<!-- Generated by graphviz version 2.43.0 (0)
 -->
<!-- Title: CalibrationService::calibrateTemperature Pages: 1 -->
<svg width="453pt" height="246pt"
 viewBox="0.00 0.00 453.00 246.00" xmlns="http://www.w3.org/2000/svg" xmlns:xlink="http://www.w3.org/1999/xlink">
<g id="graph0" class="graph" transform="scale(1 1) rotate(0) translate(4 242)">
<title>CalibrationService::calibrateTemperature</title>
<!-- Node1 -->
<g id="Node000001" class="node">
<title>Node1</title>
<g id="a_Node000001"><a xlink:title="Calibrates the Pokit device&#39;s temperature to ambientTemperature.">
<polygon fill="#999999" stroke="#666666" points="127,-128.5 0,-128.5 0,-98.5 127,-98.5 127,-128.5"/>
<text text-anchor="start" x="8" y="-116.5" font-family="Helvetica,sans-Serif" font-size="10.00">CalibrationService</text>
<text text-anchor="middle" x="63.5" y="-105.5" font-family="Helvetica,sans-Serif" font-size="10.00">::calibrateTemperature</text>
</a>
</g>
</g>
<!-- Node2 -->
<g id="Node000002" class="node">
<title>Node2</title>
<g id="a_Node000002"><a target="_parent" xlink:href="https://doc.qt.io/qt-5/qstring.html#arg-1" xlink:title=" ">
<polygon fill="white" stroke="#666666" points="272.5,-238 198.5,-238 198.5,-219 272.5,-219 272.5,-238"/>
<text text-anchor="middle" x="235.5" y="-226" font-family="Helvetica,sans-Serif" font-size="10.00">QString::arg</text>
</a>
</g>
</g>
<!-- Node1&#45;&gt;Node2 -->
<g id="edge1_Node000001_Node000002" class="edge">
<title>Node1&#45;&gt;Node2</title>
<g id="a_edge1_Node000001_Node000002"><a xlink:title=" ">
<path fill="none" stroke="#63b8ff" d="M75.78,-128.61C92.48,-149.87 125.82,-188.4 163,-209.5 171.38,-214.25 180.98,-217.85 190.38,-220.57"/>
<polygon fill="#63b8ff" stroke="#63b8ff" points="198.19,-222.64 189.53,-224.07 194.32,-221.62 190.46,-220.59 190.46,-220.59 190.46,-220.59 194.32,-221.62 191.38,-217.11 198.19,-222.64 198.19,-222.64"/>
</a>
</g>
</g>
<!-- Node3 -->
<g id="Node000003" class="node">
<title>Node3</title>
<g id="a_Node000003"><a xlink:href="classCalibrationService.html#a6116051fc655e706a0a0f120f423c5b3" target="_top" xlink:title="Constructs a new Pokit service with parent.">
<polygon fill="white" stroke="#666666" points="291.5,-200.5 179.5,-200.5 179.5,-170.5 291.5,-170.5 291.5,-200.5"/>
<text text-anchor="start" x="187.5" y="-188.5" font-family="Helvetica,sans-Serif" font-size="10.00">CalibrationService</text>
<text text-anchor="middle" x="235.5" y="-177.5" font-family="Helvetica,sans-Serif" font-size="10.00">::CalibrationService</text>
</a>
</g>
</g>
<!-- Node1&#45;&gt;Node3 -->
<g id="edge2_Node000001_Node000003" class="edge">
<title>Node1&#45;&gt;Node3</title>
<g id="a_edge2_Node000001_Node000003"><a xlink:title=" ">
<path fill="none" stroke="#63b8ff" d="M92.93,-128.57C112.37,-138.57 138.88,-151.62 163,-161.5 168.25,-163.65 173.77,-165.76 179.32,-167.78"/>
<polygon fill="#63b8ff" stroke="#63b8ff" points="186.88,-170.48 178.13,-171.18 183.11,-169.13 179.34,-167.79 179.34,-167.79 179.34,-167.79 183.11,-169.13 180.55,-164.4 186.88,-170.48 186.88,-170.48"/>
</a>
</g>
</g>
<!-- Node6 -->
<g id="Node000006" class="node">
<title>Node6</title>
<g id="a_Node000006"><a xlink:href="classCalibrationServicePrivate.html#a0da3f9cbe7dfb8a1d8e1cb94845702bc" target="_top" xlink:title="Returns value in a format Pokit devices expect.">
<polygon fill="white" stroke="#666666" points="305.5,-152.5 165.5,-152.5 165.5,-122.5 305.5,-122.5 305.5,-152.5"/>
<text text-anchor="start" x="173.5" y="-140.5" font-family="Helvetica,sans-Serif" font-size="10.00">CalibrationServicePrivate</text>
<text text-anchor="middle" x="235.5" y="-129.5" font-family="Helvetica,sans-Serif" font-size="10.00">::encodeTemperature</text>
</a>
</g>
</g>
<!-- Node1&#45;&gt;Node6 -->
<g id="edge5_Node000001_Node000006" class="edge">
<title>Node1&#45;&gt;Node6</title>
<g id="a_edge5_Node000001_Node000006"><a xlink:title=" ">
<path fill="none" stroke="#63b8ff" d="M127.32,-122.37C137.1,-123.75 147.29,-125.19 157.34,-126.61"/>
<polygon fill="#63b8ff" stroke="#63b8ff" points="165.36,-127.74 156.94,-130.19 161.4,-127.18 157.44,-126.62 157.44,-126.62 157.44,-126.62 161.4,-127.18 157.94,-123.06 165.36,-127.74 165.36,-127.74"/>
</a>
</g>
</g>
<!-- Node8 -->
<g id="Node000008" class="node">
<title>Node8</title>
<g id="a_Node000008"><a target="_parent" xlink:href="https://doc.qt.io/qt-5/qlowenergycharacteristic.html#isValid" xlink:title=" ">
<polygon fill="white" stroke="#666666" points="308,-104.5 163,-104.5 163,-74.5 308,-74.5 308,-104.5"/>
<text text-anchor="start" x="171" y="-92.5" font-family="Helvetica,sans-Serif" font-size="10.00">QLowEnergyCharacteristic</text>
<text text-anchor="middle" x="235.5" y="-81.5" font-family="Helvetica,sans-Serif" font-size="10.00">::isValid</text>
</a>
</g>
</g>
<!-- Node1&#45;&gt;Node8 -->
<g id="edge7_Node000001_Node000008" class="edge">
<title>Node1&#45;&gt;Node8</title>
<g id="a_edge7_Node000001_Node000008"><a xlink:title=" ">
<path fill="none" stroke="#63b8ff" d="M127.32,-104.63C136.24,-103.37 145.52,-102.06 154.71,-100.76"/>
<polygon fill="#63b8ff" stroke="#63b8ff" points="162.76,-99.63 155.34,-104.31 158.8,-100.19 154.84,-100.75 154.84,-100.75 154.84,-100.75 158.8,-100.19 154.34,-97.18 162.76,-99.63 162.76,-99.63"/>
</a>
</g>
</g>
<!-- Node9 -->
<g id="Node000009" class="node">
<title>Node9</title>
<g id="a_Node000009"><a target="_parent" xlink:href="https://doc.qt.io/qt-5/qbytearray.html#toHex" xlink:title=" ">
<polygon fill="white" stroke="#666666" points="289,-56 182,-56 182,-37 289,-37 289,-56"/>
<text text-anchor="middle" x="235.5" y="-44" font-family="Helvetica,sans-Serif" font-size="10.00">QByteArray::toHex</text>
</a>
</g>
</g>
<!-- Node1&#45;&gt;Node9 -->
<g id="edge8_Node000001_Node000009" class="edge">
<title>Node1&#45;&gt;Node9</title>
<g id="a_edge8_Node000001_Node000009"><a xlink:title=" ">
<path fill="none" stroke="#63b8ff" d="M91.89,-98.37C111.31,-88.09 138.22,-74.73 163,-65.5 170.07,-62.87 177.66,-60.44 185.16,-58.27"/>
<polygon fill="#63b8ff" stroke="#63b8ff" points="193.24,-56.01 186.5,-61.63 189.38,-57.08 185.53,-58.16 185.53,-58.16 185.53,-58.16 189.38,-57.08 184.56,-54.7 193.24,-56.01 193.24,-56.01"/>
</a>
</g>
</g>
<!-- Node10 -->
<g id="Node000010" class="node">
<title>Node10</title>
<g id="a_Node000010"><a target="_parent" xlink:href="https://doc.qt.io/qt-5/qobject.html#tr" xlink:title=" ">
<polygon fill="white" stroke="#666666" points="270,-19 201,-19 201,0 270,0 270,-19"/>
<text text-anchor="middle" x="235.5" y="-7" font-family="Helvetica,sans-Serif" font-size="10.00">QObject::tr</text>
</a>
</g>
</g>
<!-- Node1&#45;&gt;Node10 -->
<g id="edge9_Node000001_Node000010" class="edge">
<title>Node1&#45;&gt;Node10</title>
<g id="a_edge9_Node000001_Node000010"><a xlink:title=" ">
<path fill="none" stroke="#63b8ff" d="M77.57,-98.32C95.08,-78.96 128,-45.82 163,-27.5 172.22,-22.68 182.79,-19.1 192.93,-16.47"/>
<polygon fill="#63b8ff" stroke="#63b8ff" points="200.93,-14.55 193.98,-19.92 197.04,-15.48 193.15,-16.41 193.15,-16.41 193.15,-16.41 197.04,-15.48 192.31,-12.91 200.93,-14.55 200.93,-14.55"/>
</a>
</g>
</g>
<!-- Node4 -->
<g id="Node000004" class="node">
<title>Node4</title>
<g id="a_Node000004"><a target="_parent" xlink:href="https://doc.qt.io/qt-5/qobject.html#parent" xlink:title=" ">
<polygon fill="white" stroke="#666666" points="441,-226 348,-226 348,-207 441,-207 441,-226"/>
<text text-anchor="middle" x="394.5" y="-214" font-family="Helvetica,sans-Serif" font-size="10.00">QObject::parent</text>
</a>
</g>
</g>
<!-- Node3&#45;&gt;Node4 -->
<g id="edge3_Node000003_Node000004" class="edge">
<title>Node3&#45;&gt;Node4</title>
<g id="a_edge3_Node000003_Node000004"><a xlink:title=" ">
<path fill="none" stroke="#63b8ff" d="M291.85,-196.43C307.49,-199.52 324.47,-202.87 340,-205.94"/>
<polygon fill="#63b8ff" stroke="#63b8ff" points="347.97,-207.51 339.42,-209.49 344.05,-206.74 340.12,-205.96 340.12,-205.96 340.12,-205.96 344.05,-206.74 340.82,-202.43 347.97,-207.51 347.97,-207.51"/>
</a>
</g>
</g>
<!-- Node5 -->
<g id="Node000005" class="node">
<title>Node5</title>
<g id="a_Node000005"><a target="_parent" xlink:href="https://doc.qt.io/qt-5/qobject.html#QObject" xlink:title=" ">
<polygon fill="white" stroke="#666666" points="445,-189 344,-189 344,-170 445,-170 445,-189"/>
<text text-anchor="middle" x="394.5" y="-177" font-family="Helvetica,sans-Serif" font-size="10.00">QObject::QObject</text>
</a>
</g>
</g>
<!-- Node3&#45;&gt;Node5 -->
<g id="edge4_Node000003_Node000005" class="edge">
<title>Node3&#45;&gt;Node5</title>
<g id="a_edge4_Node000003_Node000005"><a xlink:title=" ">
<path fill="none" stroke="#63b8ff" d="M291.85,-183.38C306.02,-182.84 321.3,-182.26 335.59,-181.71"/>
<polygon fill="#63b8ff" stroke="#63b8ff" points="343.88,-181.4 336.02,-185.3 339.88,-181.55 335.88,-181.7 335.88,-181.7 335.88,-181.7 339.88,-181.55 335.75,-178.1 343.88,-181.4 343.88,-181.4"/>
</a>
</g>
</g>
<!-- Node7 -->
<g id="Node000007" class="node">
<title>Node7</title>
<g id="a_Node000007"><a target="_parent" xlink:href="https://doc.qt.io/qt-5/qbytearray.html#data" xlink:title=" ">
<polygon fill="white" stroke="#666666" points="444.5,-147 344.5,-147 344.5,-128 444.5,-128 444.5,-147"/>
<text text-anchor="middle" x="394.5" y="-135" font-family="Helvetica,sans-Serif" font-size="10.00">QByteArray::data</text>
</a>
</g>
</g>
<!-- Node6&#45;&gt;Node7 -->
<g id="edge6_Node000006_Node000007" class="edge">
<title>Node6&#45;&gt;Node7</title>
<g id="a_edge6_Node000006_Node000007"><a xlink:title=" ">
<path fill="none" stroke="#63b8ff" d="M305.82,-137.5C315.96,-137.5 326.31,-137.5 336.17,-137.5"/>
<polygon fill="#63b8ff" stroke="#63b8ff" points="344.33,-137.5 336.33,-141.1 340.33,-137.5 336.33,-137.5 336.33,-137.5 336.33,-137.5 340.33,-137.5 336.33,-133.9 344.33,-137.5 344.33,-137.5"/>
</a>
</g>
</g>
</g>
</svg>
