<?xml version="1.0" encoding="UTF-8" standalone="no"?>
<!DOCTYPE svg PUBLIC "-//W3C//DTD SVG 1.1//EN"
 "http://www.w3.org/Graphics/SVG/1.1/DTD/svg11.dtd">
<!-- Generated by graphviz version 2.43.0 (0)
 -->
<!-- Title: LoggerFetchCommand::serviceDetailsDiscovered Pages: 1 -->
<svg width="699pt" height="206pt"
 viewBox="0.00 0.00 699.00 205.77" xmlns="http://www.w3.org/2000/svg" xmlns:xlink="http://www.w3.org/1999/xlink">
<g id="graph0" class="graph" transform="scale(1 1) rotate(0) translate(4 201.77)">
<title>LoggerFetchCommand::serviceDetailsDiscovered</title>
<!-- Node1 -->
<g id="node1" class="node">
<title>Node1</title>
<g id="a_node1"><a xlink:title="Handles service detail discovery events.">
<polygon fill="#999999" stroke="#666666" points="147,-101.77 0,-101.77 0,-71.77 147,-71.77 147,-101.77"/>
<text text-anchor="start" x="8" y="-89.77" font-family="Helvetica,sans-Serif" font-size="10.00">LoggerFetchCommand</text>
<text text-anchor="middle" x="73.5" y="-78.77" font-family="Helvetica,sans-Serif" font-size="10.00">::serviceDetailsDiscovered</text>
</a>
</g>
</g>
<!-- Node2 -->
<g id="node2" class="node">
<title>Node2</title>
<g id="a_node2"><a xlink:href="classDataLoggerService.html#a0c63e3cdbc6b39ab68b8442b77938049" target="_top" xlink:title="Enables client&#45;side notifications of Data Logger metadata changes.">
<polygon fill="white" stroke="#666666" points="350,-197.77 192,-197.77 192,-167.77 350,-167.77 350,-197.77"/>
<text text-anchor="start" x="200" y="-185.77" font-family="Helvetica,sans-Serif" font-size="10.00">DataLoggerService::</text>
<text text-anchor="middle" x="271" y="-174.77" font-family="Helvetica,sans-Serif" font-size="10.00">enableMetadataNotifications</text>
</a>
</g>
</g>
<!-- Node1&#45;&gt;Node2 -->
<g id="edge1" class="edge">
<title>Node1&#45;&gt;Node2</title>
<path fill="none" stroke="#63b8ff" d="M93.39,-102.03C114.22,-118.18 149.26,-143.4 183,-158.77 187.32,-160.74 191.83,-162.58 196.43,-164.29"/>
<polygon fill="#63b8ff" stroke="#63b8ff" points="195.38,-167.63 205.97,-167.63 197.69,-161.02 195.38,-167.63"/>
</g>
<!-- Node3 -->
<g id="node3" class="node">
<title>Node3</title>
<g id="a_node3"><a xlink:href="classDataLoggerService.html#a2b9d2cad9b7b937a2fd20517c5ba825e" target="_top" xlink:title="Enables client&#45;side notifications of Data Logger readings.">
<polygon fill="white" stroke="#666666" points="346.5,-149.77 195.5,-149.77 195.5,-119.77 346.5,-119.77 346.5,-149.77"/>
<text text-anchor="start" x="203.5" y="-137.77" font-family="Helvetica,sans-Serif" font-size="10.00">DataLoggerService::</text>
<text text-anchor="middle" x="271" y="-126.77" font-family="Helvetica,sans-Serif" font-size="10.00">enableReadingNotifications</text>
</a>
</g>
</g>
<!-- Node1&#45;&gt;Node3 -->
<g id="edge2" class="edge">
<title>Node1&#45;&gt;Node3</title>
<path fill="none" stroke="#63b8ff" d="M135.82,-101.83C155.84,-106.74 178.23,-112.24 198.9,-117.32"/>
<polygon fill="#63b8ff" stroke="#63b8ff" points="198.35,-120.79 208.9,-119.77 200.02,-113.99 198.35,-120.79"/>
</g>
<!-- Node4 -->
<g id="node4" class="node">
<title>Node4</title>
<g id="a_node4"><a xlink:href="classDataLoggerService.html#a4c9e68b94b0fba82a979bb7e0b0adab4" target="_top" xlink:title="Start the data logger.">
<polygon fill="white" stroke="#666666" points="328.5,-101.77 213.5,-101.77 213.5,-71.77 328.5,-71.77 328.5,-101.77"/>
<text text-anchor="start" x="221.5" y="-89.77" font-family="Helvetica,sans-Serif" font-size="10.00">DataLoggerService::</text>
<text text-anchor="middle" x="271" y="-78.77" font-family="Helvetica,sans-Serif" font-size="10.00">fetchSamples</text>
</a>
</g>
</g>
<!-- Node1&#45;&gt;Node4 -->
<g id="edge3" class="edge">
<title>Node1&#45;&gt;Node4</title>
<path fill="none" stroke="#63b8ff" d="M147.02,-86.77C165.45,-86.77 185.17,-86.77 203.3,-86.77"/>
<polygon fill="#63b8ff" stroke="#63b8ff" points="203.48,-90.27 213.48,-86.77 203.48,-83.27 203.48,-90.27"/>
</g>
<!-- Node8 -->
<g id="node8" class="node">
<title>Node8</title>
<g id="a_node8"><a xlink:href="classDeviceCommand.html#a906fd97d832be0e8d2ba1c917fba41db" target="_top" xlink:title="Handles service detail discovery events.">
<polygon fill="white" stroke="#666666" points="359,-53.77 183,-53.77 183,-23.77 359,-23.77 359,-53.77"/>
<text text-anchor="start" x="191" y="-41.77" font-family="Helvetica,sans-Serif" font-size="10.00">DeviceCommand::serviceDetails</text>
<text text-anchor="middle" x="271" y="-30.77" font-family="Helvetica,sans-Serif" font-size="10.00">Discovered</text>
</a>
</g>
</g>
<!-- Node1&#45;&gt;Node8 -->
<g id="edge7" class="edge">
<title>Node1&#45;&gt;Node8</title>
<path fill="none" stroke="#63b8ff" d="M135.82,-71.72C155.84,-66.8 178.23,-61.3 198.9,-56.23"/>
<polygon fill="#63b8ff" stroke="#63b8ff" points="200.02,-59.56 208.9,-53.78 198.35,-52.76 200.02,-59.56"/>
</g>
<!-- Node9 -->
<g id="node9" class="node">
<title>Node9</title>
<g id="a_node9"><a target="_parent" xlink:href="https://doc.qt.io/qt-5/qobject.html#tr" xlink:title=" ">
<polygon fill="white" stroke="#666666" points="487,-27.27 418,-27.27 418,-8.27 487,-8.27 487,-27.27"/>
<text text-anchor="middle" x="452.5" y="-15.27" font-family="Helvetica,sans-Serif" font-size="10.00">QObject::tr</text>
</a>
</g>
</g>
<!-- Node1&#45;&gt;Node9 -->
<g id="edge9" class="edge">
<title>Node1&#45;&gt;Node9</title>
<path fill="none" stroke="#63b8ff" d="M90.55,-71.61C110.43,-53.98 146.21,-25.87 183,-14.77 259.52,8.31 353.98,-0.87 408.02,-9.46"/>
<polygon fill="#63b8ff" stroke="#63b8ff" points="407.52,-12.92 417.95,-11.1 408.66,-6.01 407.52,-12.92"/>
</g>
<!-- Node5 -->
<g id="node5" class="node">
<title>Node5</title>
<g id="a_node5"><a xlink:href="classDataLoggerService.html#a3b933a1a161a390eb08e5019685f449c" target="_top" xlink:title="Configures the Pokit device&#39;s data logger mode.">
<polygon fill="white" stroke="#666666" points="510,-101.77 395,-101.77 395,-71.77 510,-71.77 510,-101.77"/>
<text text-anchor="start" x="403" y="-89.77" font-family="Helvetica,sans-Serif" font-size="10.00">DataLoggerService::</text>
<text text-anchor="middle" x="452.5" y="-78.77" font-family="Helvetica,sans-Serif" font-size="10.00">setSettings</text>
</a>
</g>
</g>
<!-- Node4&#45;&gt;Node5 -->
<g id="edge4" class="edge">
<title>Node4&#45;&gt;Node5</title>
<path fill="none" stroke="#63b8ff" d="M328.79,-86.77C346.56,-86.77 366.33,-86.77 384.71,-86.77"/>
<polygon fill="#63b8ff" stroke="#63b8ff" points="384.77,-90.27 394.77,-86.77 384.77,-83.27 384.77,-90.27"/>
</g>
<!-- Node6 -->
<g id="node6" class="node">
<title>Node6</title>
<g id="a_node6"><a target="_parent" xlink:href="https://doc.qt.io/qt-5/qbytearray.html#isNull" xlink:title=" ">
<polygon fill="white" stroke="#666666" points="671.5,-117.27 565.5,-117.27 565.5,-98.27 671.5,-98.27 671.5,-117.27"/>
<text text-anchor="middle" x="618.5" y="-105.27" font-family="Helvetica,sans-Serif" font-size="10.00">QByteArray::isNull</text>
</a>
</g>
</g>
<!-- Node5&#45;&gt;Node6 -->
<g id="edge5" class="edge">
<title>Node5&#45;&gt;Node6</title>
<path fill="none" stroke="#63b8ff" d="M510.4,-94.06C524.91,-95.92 540.57,-97.92 555.33,-99.81"/>
<polygon fill="#63b8ff" stroke="#63b8ff" points="555.01,-103.3 565.37,-101.1 555.9,-96.36 555.01,-103.3"/>
</g>
<!-- Node7 -->
<g id="node7" class="node">
<title>Node7</title>
<g id="a_node7"><a target="_parent" xlink:href="https://doc.qt.io/qt-5/qlowenergycharacteristic.html#isValid" xlink:title=" ">
<polygon fill="white" stroke="#666666" points="691,-79.77 546,-79.77 546,-49.77 691,-49.77 691,-79.77"/>
<text text-anchor="start" x="554" y="-67.77" font-family="Helvetica,sans-Serif" font-size="10.00">QLowEnergyCharacteristic</text>
<text text-anchor="middle" x="618.5" y="-56.77" font-family="Helvetica,sans-Serif" font-size="10.00">::isValid</text>
</a>
</g>
</g>
<!-- Node5&#45;&gt;Node7 -->
<g id="edge6" class="edge">
<title>Node5&#45;&gt;Node7</title>
<path fill="none" stroke="#63b8ff" d="M510.4,-79.14C518.64,-78.03 527.26,-76.88 535.88,-75.72"/>
<polygon fill="#63b8ff" stroke="#63b8ff" points="536.52,-79.17 545.97,-74.37 535.59,-72.23 536.52,-79.17"/>
</g>
<!-- Node8&#45;&gt;Node9 -->
<g id="edge8" class="edge">
<title>Node8&#45;&gt;Node9</title>
<path fill="none" stroke="#63b8ff" d="M359.12,-28.58C375.94,-26.61 392.88,-24.63 407.58,-22.91"/>
<polygon fill="#63b8ff" stroke="#63b8ff" points="408.33,-26.35 417.86,-21.71 407.52,-19.4 408.33,-26.35"/>
</g>
</g>
</svg>
