<?xml version="1.0" encoding="UTF-8" standalone="no"?>
<!DOCTYPE svg PUBLIC "-//W3C//DTD SVG 1.1//EN"
 "http://www.w3.org/Graphics/SVG/1.1/DTD/svg11.dtd">
<!-- Generated by graphviz version 2.43.0 (0)
 -->
<!-- Title: DeviceInfoService::serialNumber Pages: 1 -->
<svg width="437pt" height="223pt"
 viewBox="0.00 0.00 437.00 222.50" xmlns="http://www.w3.org/2000/svg" xmlns:xlink="http://www.w3.org/1999/xlink">
<g id="graph0" class="graph" transform="scale(1 1) rotate(0) translate(4 218.5)">
<title>DeviceInfoService::serialNumber</title>
<!-- Node1 -->
<g id="Node000001" class="node">
<title>Node1</title>
<g id="a_Node000001"><a xlink:title="Returns the most recent value of the Device Info service&#39;s (undocumented) Serial Number characteristi...">
<polygon fill="#999999" stroke="#666666" points="111,-116 0,-116 0,-86 111,-86 111,-116"/>
<text text-anchor="start" x="8" y="-104" font-family="Helvetica,sans-Serif" font-size="10.00">DeviceInfoService::</text>
<text text-anchor="middle" x="55.5" y="-93" font-family="Helvetica,sans-Serif" font-size="10.00">serialNumber</text>
</a>
</g>
</g>
<!-- Node2 -->
<g id="Node000002" class="node">
<title>Node2</title>
<g id="a_Node000002"><a xlink:href="classDeviceInfoService.html#affdc7eeab6ca48cc3dc118a1c3953a88" target="_top" xlink:title="Constructs a new Pokit service with parent.">
<polygon fill="white" stroke="#666666" points="275,-202 164,-202 164,-172 275,-172 275,-202"/>
<text text-anchor="start" x="172" y="-190" font-family="Helvetica,sans-Serif" font-size="10.00">DeviceInfoService::</text>
<text text-anchor="middle" x="219.5" y="-179" font-family="Helvetica,sans-Serif" font-size="10.00">DeviceInfoService</text>
</a>
</g>
</g>
<!-- Node1&#45;&gt;Node2 -->
<g id="edge1_Node000001_Node000002" class="edge">
<title>Node1&#45;&gt;Node2</title>
<g id="a_edge1_Node000001_Node000002"><a xlink:title=" ">
<path fill="none" stroke="#63b8ff" d="M75.73,-116.11C93.46,-129.5 120.92,-148.92 147,-162 151.9,-164.46 157.09,-166.77 162.36,-168.93"/>
<polygon fill="#63b8ff" stroke="#63b8ff" points="170.11,-171.98 161.34,-172.4 166.39,-170.52 162.66,-169.05 162.66,-169.05 162.66,-169.05 166.39,-170.52 163.98,-165.7 170.11,-171.98 170.11,-171.98"/>
</a>
</g>
</g>
<!-- Node5 -->
<g id="Node000005" class="node">
<title>Node5</title>
<g id="a_Node000005"><a target="_parent" xlink:href="https://doc.qt.io/qt-5/qstring.html#fromUtf8" xlink:title=" ">
<polygon fill="white" stroke="#666666" points="271,-153.5 168,-153.5 168,-134.5 271,-134.5 271,-153.5"/>
<text text-anchor="middle" x="219.5" y="-141.5" font-family="Helvetica,sans-Serif" font-size="10.00">QString::fromUtf8</text>
</a>
</g>
</g>
<!-- Node1&#45;&gt;Node5 -->
<g id="edge4_Node000001_Node000005" class="edge">
<title>Node1&#45;&gt;Node5</title>
<g id="a_edge4_Node000001_Node000005"><a xlink:title=" ">
<path fill="none" stroke="#63b8ff" d="M111.35,-115.56C132,-121.04 155.19,-127.2 174.71,-132.38"/>
<polygon fill="#63b8ff" stroke="#63b8ff" points="182.55,-134.46 173.89,-135.88 178.68,-133.43 174.81,-132.4 174.81,-132.4 174.81,-132.4 178.68,-133.43 175.74,-128.92 182.55,-134.46 182.55,-134.46"/>
</a>
</g>
</g>
<!-- Node6 -->
<g id="Node000006" class="node">
<title>Node6</title>
<g id="a_Node000006"><a target="_parent" xlink:href="https://doc.qt.io/qt-5/qlowenergycharacteristic.html#isValid" xlink:title=" ">
<polygon fill="white" stroke="#666666" points="292,-116 147,-116 147,-86 292,-86 292,-116"/>
<text text-anchor="start" x="155" y="-104" font-family="Helvetica,sans-Serif" font-size="10.00">QLowEnergyCharacteristic</text>
<text text-anchor="middle" x="219.5" y="-93" font-family="Helvetica,sans-Serif" font-size="10.00">::isValid</text>
</a>
</g>
</g>
<!-- Node1&#45;&gt;Node6 -->
<g id="edge5_Node000001_Node000006" class="edge">
<title>Node1&#45;&gt;Node6</title>
<g id="a_edge5_Node000001_Node000006"><a xlink:title=" ">
<path fill="none" stroke="#63b8ff" d="M111.35,-101C120.15,-101 129.41,-101 138.66,-101"/>
<polygon fill="#63b8ff" stroke="#63b8ff" points="146.77,-101 138.77,-104.6 142.77,-101 138.77,-101 138.77,-101 138.77,-101 142.77,-101 138.77,-97.4 146.77,-101 146.77,-101"/>
</a>
</g>
</g>
<!-- Node7 -->
<g id="Node000007" class="node">
<title>Node7</title>
<g id="a_Node000007"><a target="_parent" xlink:href="https://doc.qt.io/qt-5/qstring.html#remove" xlink:title=" ">
<polygon fill="white" stroke="#666666" points="267.5,-67.5 171.5,-67.5 171.5,-48.5 267.5,-48.5 267.5,-67.5"/>
<text text-anchor="middle" x="219.5" y="-55.5" font-family="Helvetica,sans-Serif" font-size="10.00">QString::remove</text>
</a>
</g>
</g>
<!-- Node1&#45;&gt;Node7 -->
<g id="edge6_Node000001_Node000007" class="edge">
<title>Node1&#45;&gt;Node7</title>
<g id="a_edge6_Node000001_Node000007"><a xlink:title=" ">
<path fill="none" stroke="#63b8ff" d="M111.35,-86.44C132,-80.96 155.19,-74.8 174.71,-69.62"/>
<polygon fill="#63b8ff" stroke="#63b8ff" points="182.55,-67.54 175.74,-73.08 178.68,-68.57 174.81,-69.6 174.81,-69.6 174.81,-69.6 178.68,-68.57 173.89,-66.12 182.55,-67.54 182.55,-67.54"/>
</a>
</g>
</g>
<!-- Node8 -->
<g id="Node000008" class="node">
<title>Node8</title>
<g id="a_Node000008"><a target="_parent" xlink:href="https://doc.qt.io/qt-5/qlowenergycharacteristic.html#value" xlink:title=" ">
<polygon fill="white" stroke="#666666" points="292,-30 147,-30 147,0 292,0 292,-30"/>
<text text-anchor="start" x="155" y="-18" font-family="Helvetica,sans-Serif" font-size="10.00">QLowEnergyCharacteristic</text>
<text text-anchor="middle" x="219.5" y="-7" font-family="Helvetica,sans-Serif" font-size="10.00">::value</text>
</a>
</g>
</g>
<!-- Node1&#45;&gt;Node8 -->
<g id="edge7_Node000001_Node000008" class="edge">
<title>Node1&#45;&gt;Node8</title>
<g id="a_edge7_Node000001_Node000008"><a xlink:title=" ">
<path fill="none" stroke="#63b8ff" d="M75.31,-85.81C92.97,-72.12 120.58,-52.16 147,-39 151.2,-36.91 155.63,-34.93 160.14,-33.07"/>
<polygon fill="#63b8ff" stroke="#63b8ff" points="167.78,-30.07 161.66,-36.35 164.06,-31.53 160.34,-33 160.34,-33 160.34,-33 164.06,-31.53 159.02,-29.64 167.78,-30.07 167.78,-30.07"/>
</a>
</g>
</g>
<!-- Node3 -->
<g id="Node000003" class="node">
<title>Node3</title>
<g id="a_Node000003"><a target="_parent" xlink:href="https://doc.qt.io/qt-5/qobject.html#parent" xlink:title=" ">
<polygon fill="white" stroke="#666666" points="425,-214.5 332,-214.5 332,-195.5 425,-195.5 425,-214.5"/>
<text text-anchor="middle" x="378.5" y="-202.5" font-family="Helvetica,sans-Serif" font-size="10.00">QObject::parent</text>
</a>
</g>
</g>
<!-- Node2&#45;&gt;Node3 -->
<g id="edge2_Node000002_Node000003" class="edge">
<title>Node2&#45;&gt;Node3</title>
<g id="a_edge2_Node000002_Node000003"><a xlink:title=" ">
<path fill="none" stroke="#63b8ff" d="M275.41,-193.3C291.15,-195.1 308.28,-197.06 323.94,-198.86"/>
<polygon fill="#63b8ff" stroke="#63b8ff" points="331.97,-199.78 323.62,-202.45 328,-199.32 324.03,-198.87 324.03,-198.87 324.03,-198.87 328,-199.32 324.44,-195.29 331.97,-199.78 331.97,-199.78"/>
</a>
</g>
</g>
<!-- Node4 -->
<g id="Node000004" class="node">
<title>Node4</title>
<g id="a_Node000004"><a target="_parent" xlink:href="https://doc.qt.io/qt-5/qobject.html#QObject" xlink:title=" ">
<polygon fill="white" stroke="#666666" points="429,-177.5 328,-177.5 328,-158.5 429,-158.5 429,-177.5"/>
<text text-anchor="middle" x="378.5" y="-165.5" font-family="Helvetica,sans-Serif" font-size="10.00">QObject::QObject</text>
</a>
</g>
</g>
<!-- Node2&#45;&gt;Node4 -->
<g id="edge3_Node000002_Node000004" class="edge">
<title>Node2&#45;&gt;Node4</title>
<g id="a_edge3_Node000002_Node000004"><a xlink:title=" ">
<path fill="none" stroke="#63b8ff" d="M275.41,-180.35C289.81,-178.61 305.38,-176.73 319.91,-174.97"/>
<polygon fill="#63b8ff" stroke="#63b8ff" points="327.87,-174.01 320.36,-178.54 323.9,-174.49 319.93,-174.97 319.93,-174.97 319.93,-174.97 323.9,-174.49 319.49,-171.39 327.87,-174.01 327.87,-174.01"/>
</a>
</g>
</g>
</g>
</svg>
