<?xml version="1.0" encoding="UTF-8" standalone="no"?>
<!DOCTYPE svg PUBLIC "-//W3C//DTD SVG 1.1//EN"
 "http://www.w3.org/Graphics/SVG/1.1/DTD/svg11.dtd">
<!-- Generated by graphviz version 2.43.0 (0)
 -->
<!-- Title: SetNameCommand::processOptions Pages: 1 -->
<svg width="823pt" height="689pt"
 viewBox="0.00 0.00 823.00 688.50" xmlns="http://www.w3.org/2000/svg" xmlns:xlink="http://www.w3.org/1999/xlink">
<g id="graph0" class="graph" transform="scale(1 1) rotate(0) translate(4 684.5)">
<title>SetNameCommand::processOptions</title>
<!-- Node1 -->
<g id="Node000001" class="node">
<title>Node1</title>
<g id="a_Node000001"><a xlink:title="Processes the relevant options from the command line parser.">
<polygon fill="#999999" stroke="#666666" points="193,-304.5 0,-304.5 0,-285.5 193,-285.5 193,-304.5"/>
<text text-anchor="middle" x="96.5" y="-292.5" font-family="Helvetica,sans-Serif" font-size="10.00">SetNameCommand::processOptions</text>
</a>
</g>
</g>
<!-- Node2 -->
<g id="Node000002" class="node">
<title>Node2</title>
<g id="a_Node000002"><a target="_parent" xlink:href="https://doc.qt.io/qt-5/qlist.html#append" xlink:title=" ">
<polygon fill="white" stroke="#666666" points="562,-532.5 479,-532.5 479,-513.5 562,-513.5 562,-532.5"/>
<text text-anchor="middle" x="520.5" y="-520.5" font-family="Helvetica,sans-Serif" font-size="10.00">QList::append</text>
</a>
</g>
</g>
<!-- Node1&#45;&gt;Node2 -->
<g id="edge1_Node000001_Node000002" class="edge">
<title>Node1&#45;&gt;Node2</title>
<g id="a_edge1_Node000001_Node000002"><a xlink:title=" ">
<path fill="none" stroke="#63b8ff" d="M108.39,-304.68C147.07,-338.49 282.71,-452.14 416,-505 433.2,-511.82 453.03,-516.06 470.69,-518.7"/>
<polygon fill="#63b8ff" stroke="#63b8ff" points="478.64,-519.8 470.22,-522.27 474.68,-519.25 470.72,-518.7 470.72,-518.7 470.72,-518.7 474.68,-519.25 471.21,-515.14 478.64,-519.8 478.64,-519.8"/>
</a>
</g>
</g>
<!-- Node3 -->
<g id="Node000003" class="node">
<title>Node3</title>
<g id="a_Node000003"><a target="_parent" xlink:href="https://doc.qt.io/qt-5/qlist.html#isEmpty" xlink:title=" ">
<polygon fill="white" stroke="#666666" points="348,-185.5 261,-185.5 261,-166.5 348,-166.5 348,-185.5"/>
<text text-anchor="middle" x="304.5" y="-173.5" font-family="Helvetica,sans-Serif" font-size="10.00">QList::isEmpty</text>
</a>
</g>
</g>
<!-- Node1&#45;&gt;Node3 -->
<g id="edge2_Node000001_Node000003" class="edge">
<title>Node1&#45;&gt;Node3</title>
<g id="a_edge2_Node000001_Node000003"><a xlink:title=" ">
<path fill="none" stroke="#63b8ff" d="M108.33,-285.32C129.87,-266.51 180.25,-224.68 229,-200 238.18,-195.35 248.46,-191.35 258.37,-188.02"/>
<polygon fill="#63b8ff" stroke="#63b8ff" points="266.21,-185.5 259.7,-191.38 262.4,-186.73 258.6,-187.95 258.6,-187.95 258.6,-187.95 262.4,-186.73 257.49,-184.52 266.21,-185.5 266.21,-185.5"/>
</a>
</g>
</g>
<!-- Node4 -->
<g id="Node000004" class="node">
<title>Node4</title>
<g id="a_Node000004"><a target="_parent" xlink:href="https://doc.qt.io/qt-5/qstring.html#isEmpty" xlink:title=" ">
<polygon fill="white" stroke="#666666" points="787,-680.5 689,-680.5 689,-661.5 787,-661.5 787,-680.5"/>
<text text-anchor="middle" x="738" y="-668.5" font-family="Helvetica,sans-Serif" font-size="10.00">QString::isEmpty</text>
</a>
</g>
</g>
<!-- Node1&#45;&gt;Node4 -->
<g id="edge3_Node000001_Node000004" class="edge">
<title>Node1&#45;&gt;Node4</title>
<g id="a_edge3_Node000001_Node000004"><a xlink:title=" ">
<path fill="none" stroke="#63b8ff" d="M100.9,-304.72C113.08,-338.27 157.62,-450.64 229,-515 359.92,-633.05 578.41,-661.79 680.81,-668.77"/>
<polygon fill="#63b8ff" stroke="#63b8ff" points="688.87,-669.29 680.66,-672.36 684.88,-669.03 680.89,-668.77 680.89,-668.77 680.89,-668.77 684.88,-669.03 681.12,-665.18 688.87,-669.29 688.87,-669.29"/>
</a>
</g>
</g>
<!-- Node5 -->
<g id="Node000005" class="node">
<title>Node5</title>
<g id="a_Node000005"><a target="_parent" xlink:href="https://doc.qt.io/qt-5/qstring.html#length" xlink:title=" ">
<polygon fill="white" stroke="#666666" points="782.5,-643.5 693.5,-643.5 693.5,-624.5 782.5,-624.5 782.5,-643.5"/>
<text text-anchor="middle" x="738" y="-631.5" font-family="Helvetica,sans-Serif" font-size="10.00">QString::length</text>
</a>
</g>
</g>
<!-- Node1&#45;&gt;Node5 -->
<g id="edge4_Node000001_Node000005" class="edge">
<title>Node1&#45;&gt;Node5</title>
<g id="a_edge4_Node000001_Node000005"><a xlink:title=" ">
<path fill="none" stroke="#63b8ff" d="M102.81,-304.53C118.6,-332.12 168.02,-413.11 229,-460 371.5,-569.59 587.55,-612.81 685.5,-627.46"/>
<polygon fill="#63b8ff" stroke="#63b8ff" points="693.47,-628.63 685.04,-631.03 689.52,-628.05 685.56,-627.47 685.56,-627.47 685.56,-627.47 689.52,-628.05 686.08,-623.91 693.47,-628.63 693.47,-628.63"/>
</a>
</g>
</g>
<!-- Node6 -->
<g id="Node000006" class="node">
<title>Node6</title>
<g id="a_Node000006"><a xlink:href="classAbstractCommand.html#ad827a18a24776efeb955739459d48f7d" target="_top" xlink:title="Processes the relevant options from the command line parser.">
<polygon fill="white" stroke="#666666" points="380,-310 229,-310 229,-280 380,-280 380,-310"/>
<text text-anchor="start" x="237" y="-298" font-family="Helvetica,sans-Serif" font-size="10.00">AbstractCommand::process</text>
<text text-anchor="middle" x="304.5" y="-287" font-family="Helvetica,sans-Serif" font-size="10.00">Options</text>
</a>
</g>
</g>
<!-- Node1&#45;&gt;Node6 -->
<g id="edge5_Node000001_Node000006" class="edge">
<title>Node1&#45;&gt;Node6</title>
<g id="a_edge5_Node000001_Node000006"><a xlink:title=" ">
<path fill="none" stroke="#63b8ff" d="M193.26,-295C202.43,-295 211.68,-295 220.71,-295"/>
<polygon fill="#63b8ff" stroke="#63b8ff" points="228.94,-295 220.94,-298.6 224.94,-295 220.94,-295 220.94,-295 220.94,-295 224.94,-295 220.94,-291.4 228.94,-295 228.94,-295"/>
</a>
</g>
</g>
<!-- Node26 -->
<g id="Node000026" class="node">
<title>Node26</title>
<g id="a_Node000026"><a target="_parent" xlink:href="https://doc.qt.io/qt-5/qobject.html#tr" xlink:title=" ">
<polygon fill="white" stroke="#666666" points="555,-67.5 486,-67.5 486,-48.5 555,-48.5 555,-67.5"/>
<text text-anchor="middle" x="520.5" y="-55.5" font-family="Helvetica,sans-Serif" font-size="10.00">QObject::tr</text>
</a>
</g>
</g>
<!-- Node1&#45;&gt;Node26 -->
<g id="edge31_Node000001_Node000026" class="edge">
<title>Node1&#45;&gt;Node26</title>
<g id="a_edge31_Node000001_Node000026"><a xlink:title=" ">
<path fill="none" stroke="#63b8ff" d="M150.92,-285.45C228.21,-271.16 363.8,-244.19 380,-228 428.81,-179.24 365.95,-124.49 416,-77 432.26,-61.57 456.72,-56.57 477.77,-55.54"/>
<polygon fill="#63b8ff" stroke="#63b8ff" points="485.95,-55.33 478.04,-59.13 481.95,-55.43 477.95,-55.53 477.95,-55.53 477.95,-55.53 481.95,-55.43 477.86,-51.94 485.95,-55.33 485.95,-55.33"/>
</a>
</g>
</g>
<!-- Node27 -->
<g id="Node000027" class="node">
<title>Node27</title>
<g id="a_Node000027"><a target="_parent" xlink:href="https://doc.qt.io/qt-5/qcommandlineparser.html#value" xlink:title=" ">
<polygon fill="white" stroke="#666666" points="583,-30 458,-30 458,0 583,0 583,-30"/>
<text text-anchor="start" x="466" y="-18" font-family="Helvetica,sans-Serif" font-size="10.00">QCommandLineParser</text>
<text text-anchor="middle" x="520.5" y="-7" font-family="Helvetica,sans-Serif" font-size="10.00">::value</text>
</a>
</g>
</g>
<!-- Node1&#45;&gt;Node27 -->
<g id="edge32_Node000001_Node000027" class="edge">
<title>Node1&#45;&gt;Node27</title>
<g id="a_edge32_Node000001_Node000027"><a xlink:title=" ">
<path fill="none" stroke="#63b8ff" d="M113.1,-285.37C137.15,-270.94 185.09,-243.69 229,-228 293.69,-204.88 331.14,-243.29 380,-195 430.61,-144.98 365.71,-89.34 416,-39 425.23,-29.76 437.27,-23.8 449.86,-20"/>
<polygon fill="#63b8ff" stroke="#63b8ff" points="457.76,-17.91 450.94,-23.44 453.89,-18.93 450.02,-19.96 450.02,-19.96 450.02,-19.96 453.89,-18.93 449.1,-16.48 457.76,-17.91 457.76,-17.91"/>
</a>
</g>
</g>
<!-- Node6&#45;&gt;Node2 -->
<g id="edge6_Node000006_Node000002" class="edge">
<title>Node6&#45;&gt;Node2</title>
<g id="a_edge6_Node000006_Node000002"><a xlink:title=" ">
<path fill="none" stroke="#63b8ff" d="M317.03,-310.04C332.78,-331.08 361.2,-370.9 380,-408 400.79,-449.02 380.65,-475.59 416,-505 431.15,-517.6 451.95,-522.77 470.94,-524.54"/>
<polygon fill="#63b8ff" stroke="#63b8ff" points="478.94,-525.1 470.71,-528.13 474.95,-524.82 470.96,-524.54 470.96,-524.54 470.96,-524.54 474.95,-524.82 471.21,-520.95 478.94,-525.1 478.94,-525.1"/>
</a>
</g>
</g>
<!-- Node7 -->
<g id="Node000007" class="node">
<title>Node7</title>
<g id="a_Node000007"><a target="_parent" xlink:href="https://doc.qt.io/qt-5/qstring.html#arg-1" xlink:title=" ">
<polygon fill="white" stroke="#666666" points="557.5,-286.5 483.5,-286.5 483.5,-267.5 557.5,-267.5 557.5,-286.5"/>
<text text-anchor="middle" x="520.5" y="-274.5" font-family="Helvetica,sans-Serif" font-size="10.00">QString::arg</text>
</a>
</g>
</g>
<!-- Node6&#45;&gt;Node7 -->
<g id="edge7_Node000006_Node000007" class="edge">
<title>Node6&#45;&gt;Node7</title>
<g id="a_edge7_Node000006_Node000007"><a xlink:title=" ">
<path fill="none" stroke="#63b8ff" d="M380.05,-288.73C411.75,-286.06 447.65,-283.04 475.08,-280.74"/>
<polygon fill="#63b8ff" stroke="#63b8ff" points="483.31,-280.04 475.64,-284.3 479.33,-280.38 475.34,-280.71 475.34,-280.71 475.34,-280.71 479.33,-280.38 475.04,-277.13 483.31,-280.04 483.31,-280.04"/>
</a>
</g>
</g>
<!-- Node8 -->
<g id="Node000008" class="node">
<title>Node8</title>
<g id="a_Node000008"><a target="_parent" xlink:href="https://doc.qt.io/qt-5/qstringlist.html#contains" xlink:title=" ">
<polygon fill="white" stroke="#666666" points="579,-249.5 462,-249.5 462,-230.5 579,-230.5 579,-249.5"/>
<text text-anchor="middle" x="520.5" y="-237.5" font-family="Helvetica,sans-Serif" font-size="10.00">QStringList::contains</text>
</a>
</g>
</g>
<!-- Node6&#45;&gt;Node8 -->
<g id="edge8_Node000006_Node000008" class="edge">
<title>Node6&#45;&gt;Node8</title>
<g id="a_edge8_Node000006_Node000008"><a xlink:title=" ">
<path fill="none" stroke="#63b8ff" d="M347.09,-279.99C367.64,-272.96 392.92,-264.85 416,-259 428.13,-255.93 441.18,-253.14 453.79,-250.7"/>
<polygon fill="#63b8ff" stroke="#63b8ff" points="461.99,-249.15 454.8,-254.17 458.06,-249.89 454.13,-250.63 454.13,-250.63 454.13,-250.63 458.06,-249.89 453.46,-247.1 461.99,-249.15 461.99,-249.15"/>
</a>
</g>
</g>
<!-- Node9 -->
<g id="Node000009" class="node">
<title>Node9</title>
<g id="a_Node000009"><a target="_parent" xlink:href="https://doc.qt.io/qt-5/qcommandlineparser.html#isSet" xlink:title=" ">
<polygon fill="white" stroke="#666666" points="583,-212 458,-212 458,-182 583,-182 583,-212"/>
<text text-anchor="start" x="466" y="-200" font-family="Helvetica,sans-Serif" font-size="10.00">QCommandLineParser</text>
<text text-anchor="middle" x="520.5" y="-189" font-family="Helvetica,sans-Serif" font-size="10.00">::isSet</text>
</a>
</g>
</g>
<!-- Node6&#45;&gt;Node9 -->
<g id="edge9_Node000006_Node000009" class="edge">
<title>Node6&#45;&gt;Node9</title>
<g id="a_edge9_Node000006_Node000009"><a xlink:title=" ">
<path fill="none" stroke="#63b8ff" d="M355.06,-279.86C363.79,-276.06 372.48,-271.46 380,-266 400.44,-251.15 394.61,-235.44 416,-222 426.27,-215.55 438.08,-210.76 449.96,-207.21"/>
<polygon fill="#63b8ff" stroke="#63b8ff" points="457.76,-205.04 451.01,-210.65 453.91,-206.11 450.05,-207.18 450.05,-207.18 450.05,-207.18 453.91,-206.11 449.09,-203.71 457.76,-205.04 457.76,-205.04"/>
</a>
</g>
</g>
<!-- Node10 -->
<g id="Node000010" class="node">
<title>Node10</title>
<g id="a_Node000010"><a target="_parent" xlink:href="https://doc.qt.io/qt-5/qbluetoothdevicediscoveryagent.html#lowEnergyDiscoveryTimeout" xlink:title=" ">
<polygon fill="white" stroke="#666666" points="616,-164 425,-164 425,-134 616,-134 616,-164"/>
<text text-anchor="start" x="433" y="-152" font-family="Helvetica,sans-Serif" font-size="10.00">QBluetoothDeviceDiscovery</text>
<text text-anchor="middle" x="520.5" y="-141" font-family="Helvetica,sans-Serif" font-size="10.00">Agent::lowEnergyDiscoveryTimeout</text>
</a>
</g>
</g>
<!-- Node6&#45;&gt;Node10 -->
<g id="edge10_Node000006_Node000010" class="edge">
<title>Node6&#45;&gt;Node10</title>
<g id="a_edge10_Node000006_Node000010"><a xlink:title=" ">
<path fill="none" stroke="#63b8ff" d="M360.43,-279.82C367.62,-276.14 374.41,-271.6 380,-266 411.31,-234.63 382.52,-202.05 416,-173 417.83,-171.41 419.74,-169.93 421.73,-168.53"/>
<polygon fill="#63b8ff" stroke="#63b8ff" points="428.73,-164.15 423.86,-171.45 425.34,-166.27 421.95,-168.39 421.95,-168.39 421.95,-168.39 425.34,-166.27 420.04,-165.34 428.73,-164.15 428.73,-164.15"/>
</a>
</g>
</g>
<!-- Node11 -->
<g id="Node000011" class="node">
<title>Node11</title>
<g id="a_Node000011"><a target="_parent" xlink:href="https://doc.qt.io/qt-5/qcommandlineparser.html#optionNames" xlink:title=" ">
<polygon fill="white" stroke="#666666" points="583,-116 458,-116 458,-86 583,-86 583,-116"/>
<text text-anchor="start" x="466" y="-104" font-family="Helvetica,sans-Serif" font-size="10.00">QCommandLineParser</text>
<text text-anchor="middle" x="520.5" y="-93" font-family="Helvetica,sans-Serif" font-size="10.00">::optionNames</text>
</a>
</g>
</g>
<!-- Node6&#45;&gt;Node11 -->
<g id="edge11_Node000006_Node000011" class="edge">
<title>Node6&#45;&gt;Node11</title>
<g id="a_edge11_Node000006_Node000011"><a xlink:title=" ">
<path fill="none" stroke="#63b8ff" d="M362.17,-279.81C368.84,-276.15 375.03,-271.61 380,-266 422.88,-217.58 369.76,-170.22 416,-125 425.34,-115.87 437.43,-109.95 450.03,-106.17"/>
<polygon fill="#63b8ff" stroke="#63b8ff" points="457.93,-104.08 451.11,-109.61 454.06,-105.1 450.19,-106.13 450.19,-106.13 450.19,-106.13 454.06,-105.1 449.27,-102.65 457.93,-104.08 457.93,-104.08"/>
</a>
</g>
</g>
<!-- Node12 -->
<g id="Node000012" class="node">
<title>Node12</title>
<g id="a_Node000012"><a xlink:href="classAbstractCommand.html#a29b2a2446ef034195183a2ae9d4bb911" target="_top" xlink:title="Returns value as an integer multiple of the ratio R.">
<polygon fill="white" stroke="#666666" points="610,-495.5 431,-495.5 431,-476.5 610,-476.5 610,-495.5"/>
<text text-anchor="middle" x="520.5" y="-483.5" font-family="Helvetica,sans-Serif" font-size="10.00">AbstractCommand::parseNumber</text>
</a>
</g>
</g>
<!-- Node6&#45;&gt;Node12 -->
<g id="edge12_Node000006_Node000012" class="edge">
<title>Node6&#45;&gt;Node12</title>
<g id="a_edge12_Node000006_Node000012"><a xlink:title=" ">
<path fill="none" stroke="#63b8ff" d="M315.79,-310.24C330.33,-331.85 357.59,-372.68 380,-408 396.46,-433.94 390.69,-449.6 416,-467 419.39,-469.33 422.99,-471.4 426.74,-473.24"/>
<polygon fill="#63b8ff" stroke="#63b8ff" points="434.09,-476.48 425.32,-476.55 430.43,-474.87 426.77,-473.25 426.77,-473.25 426.77,-473.25 430.43,-474.87 428.22,-469.96 434.09,-476.48 434.09,-476.48"/>
</a>
</g>
</g>
<!-- Node22 -->
<g id="Node000022" class="node">
<title>Node22</title>
<g id="a_Node000022"><a xlink:href="classAbstractCommand.html#afd6f41cfc925751415cfa45e3b2d0b4a" target="_top" xlink:title="Returns a list of CLI option names required by this command.">
<polygon fill="white" stroke="#666666" points="815,-273 661,-273 661,-243 815,-243 815,-273"/>
<text text-anchor="start" x="669" y="-261" font-family="Helvetica,sans-Serif" font-size="10.00">AbstractCommand::required</text>
<text text-anchor="middle" x="738" y="-250" font-family="Helvetica,sans-Serif" font-size="10.00">Options</text>
</a>
</g>
</g>
<!-- Node6&#45;&gt;Node22 -->
<g id="edge24_Node000006_Node000022" class="edge">
<title>Node6&#45;&gt;Node22</title>
<g id="a_edge24_Node000006_Node000022"><a xlink:title=" ">
<path fill="none" stroke="#63b8ff" d="M318.63,-310.17C337.64,-330.86 375.07,-366.95 416,-381 503.86,-411.16 548.83,-434.17 625,-381 663.05,-354.44 627.63,-315.24 661,-283 663,-281.07 665.15,-279.29 667.41,-277.64"/>
<polygon fill="#63b8ff" stroke="#63b8ff" points="674.52,-273.11 669.71,-280.45 671.15,-275.26 667.77,-277.41 667.77,-277.41 667.77,-277.41 671.15,-275.26 665.84,-274.38 674.52,-273.11 674.52,-273.11"/>
</a>
</g>
</g>
<!-- Node23 -->
<g id="Node000023" class="node">
<title>Node23</title>
<g id="a_Node000023"><a target="_parent" xlink:href="https://doc.qt.io/qt-5/qbluetoothdevicediscoveryagent.html#setLowEnergyDiscoveryTimeout" xlink:title=" ">
<polygon fill="white" stroke="#666666" points="625,-372 416,-372 416,-342 625,-342 625,-372"/>
<text text-anchor="start" x="424" y="-360" font-family="Helvetica,sans-Serif" font-size="10.00">QBluetoothDeviceDiscovery</text>
<text text-anchor="middle" x="520.5" y="-349" font-family="Helvetica,sans-Serif" font-size="10.00">Agent::setLowEnergyDiscoveryTimeout</text>
</a>
</g>
</g>
<!-- Node6&#45;&gt;Node23 -->
<g id="edge25_Node000006_Node000023" class="edge">
<title>Node6&#45;&gt;Node23</title>
<g id="a_edge25_Node000006_Node000023"><a xlink:title=" ">
<path fill="none" stroke="#63b8ff" d="M346.11,-310.09C366.86,-317.51 392.6,-326.28 416,-333 424.5,-335.44 433.45,-337.81 442.38,-340.05"/>
<polygon fill="#63b8ff" stroke="#63b8ff" points="450.21,-341.98 441.58,-343.56 446.33,-341.02 442.44,-340.06 442.44,-340.06 442.44,-340.06 446.33,-341.02 443.3,-336.57 450.21,-341.98 450.21,-341.98"/>
</a>
</g>
</g>
<!-- Node24 -->
<g id="Node000024" class="node">
<title>Node24</title>
<g id="a_Node000024"><a xlink:href="classAbstractCommand.html#a1ceca3c5b4cb24277dd4d4054f45db18" target="_top" xlink:title="Returns a list of CLI option names supported by this command.">
<polygon fill="white" stroke="#666666" points="601.5,-458 439.5,-458 439.5,-428 601.5,-428 601.5,-458"/>
<text text-anchor="start" x="447.5" y="-446" font-family="Helvetica,sans-Serif" font-size="10.00">AbstractCommand::supported</text>
<text text-anchor="middle" x="520.5" y="-435" font-family="Helvetica,sans-Serif" font-size="10.00">Options</text>
</a>
</g>
</g>
<!-- Node6&#45;&gt;Node24 -->
<g id="edge26_Node000006_Node000024" class="edge">
<title>Node6&#45;&gt;Node24</title>
<g id="a_edge26_Node000006_Node000024"><a xlink:title=" ">
<path fill="none" stroke="#63b8ff" d="M315.45,-310.29C332.78,-335.7 370.99,-386.54 416,-414 422.93,-418.23 430.49,-421.86 438.27,-424.97"/>
<polygon fill="#63b8ff" stroke="#63b8ff" points="446.11,-427.91 437.36,-428.47 442.37,-426.5 438.62,-425.1 438.62,-425.1 438.62,-425.1 442.37,-426.5 439.89,-421.73 446.11,-427.91 446.11,-427.91"/>
</a>
</g>
</g>
<!-- Node25 -->
<g id="Node000025" class="node">
<title>Node25</title>
<g id="a_Node000025"><a target="_parent" xlink:href="https://doc.qt.io/qt-5/qstring.html#toLower" xlink:title=" ">
<polygon fill="white" stroke="#666666" points="569.5,-323.5 471.5,-323.5 471.5,-304.5 569.5,-304.5 569.5,-323.5"/>
<text text-anchor="middle" x="520.5" y="-311.5" font-family="Helvetica,sans-Serif" font-size="10.00">QString::toLower</text>
</a>
</g>
</g>
<!-- Node6&#45;&gt;Node25 -->
<g id="edge28_Node000006_Node000025" class="edge">
<title>Node6&#45;&gt;Node25</title>
<g id="a_edge28_Node000006_Node000025"><a xlink:title=" ">
<path fill="none" stroke="#63b8ff" d="M380.05,-301.62C407.37,-304.04 437.8,-306.75 463.26,-309.01"/>
<polygon fill="#63b8ff" stroke="#63b8ff" points="471.33,-309.72 463.05,-312.6 467.35,-309.37 463.37,-309.02 463.37,-309.02 463.37,-309.02 467.35,-309.37 463.68,-305.43 471.33,-309.72 471.33,-309.72"/>
</a>
</g>
</g>
<!-- Node6&#45;&gt;Node26 -->
<g id="edge29_Node000006_Node000026" class="edge">
<title>Node6&#45;&gt;Node26</title>
<g id="a_edge29_Node000006_Node000026"><a xlink:title=" ">
<path fill="none" stroke="#63b8ff" d="M362.87,-279.88C369.35,-276.21 375.3,-271.66 380,-266 434.69,-200.26 355.33,-137.26 416,-77 431.9,-61.2 456.34,-56.18 477.48,-55.24"/>
<polygon fill="#63b8ff" stroke="#63b8ff" points="485.69,-55.06 477.77,-58.83 481.69,-55.15 477.7,-55.24 477.7,-55.24 477.7,-55.24 481.69,-55.15 477.62,-51.64 485.69,-55.06 485.69,-55.06"/>
</a>
</g>
</g>
<!-- Node6&#45;&gt;Node27 -->
<g id="edge30_Node000006_Node000027" class="edge">
<title>Node6&#45;&gt;Node27</title>
<g id="a_edge30_Node000006_Node000027"><a xlink:title=" ">
<path fill="none" stroke="#63b8ff" d="M329.45,-279.78C346.28,-267.78 367.87,-249.52 380,-228 421.99,-153.51 356.75,-100.65 416,-39 425.1,-29.53 437.15,-23.47 449.8,-19.66"/>
<polygon fill="#63b8ff" stroke="#63b8ff" points="457.74,-17.56 450.92,-23.09 453.87,-18.58 450,-19.61 450,-19.61 450,-19.61 453.87,-18.58 449.08,-16.12 457.74,-17.56 457.74,-17.56"/>
</a>
</g>
</g>
<!-- Node12&#45;&gt;Node4 -->
<g id="edge17_Node000012_Node000004" class="edge">
<title>Node12&#45;&gt;Node4</title>
<g id="a_edge17_Node000012_Node000004"><a xlink:title=" ">
<path fill="none" stroke="#63b8ff" d="M610.31,-494.71C615.64,-497.47 620.62,-500.86 625,-505 674.21,-551.48 612.99,-605.28 661,-653 666.51,-658.48 673.36,-662.4 680.67,-665.2"/>
<polygon fill="#63b8ff" stroke="#63b8ff" points="688.75,-667.81 680.03,-668.77 684.94,-666.58 681.13,-665.35 681.13,-665.35 681.13,-665.35 684.94,-666.58 682.24,-661.92 688.75,-667.81 688.75,-667.81"/>
</a>
</g>
</g>
<!-- Node12&#45;&gt;Node5 -->
<g id="edge19_Node000012_Node000005" class="edge">
<title>Node12&#45;&gt;Node5</title>
<g id="a_edge19_Node000012_Node000005"><a xlink:title=" ">
<path fill="none" stroke="#63b8ff" d="M610.45,-495.34C615.69,-497.96 620.6,-501.15 625,-505 664.01,-539.17 622.87,-580.84 661,-616 667.86,-622.33 676.53,-626.55 685.53,-629.35"/>
<polygon fill="#63b8ff" stroke="#63b8ff" points="693.5,-631.46 684.84,-632.89 689.63,-630.43 685.76,-629.41 685.76,-629.41 685.76,-629.41 689.63,-630.43 686.68,-625.93 693.5,-631.46 693.5,-631.46"/>
</a>
</g>
</g>
<!-- Node13 -->
<g id="Node000013" class="node">
<title>Node13</title>
<g id="a_Node000013"><a target="_parent" xlink:href="https://doc.qt.io/qt-5/qstring.html#at" xlink:title=" ">
<polygon fill="white" stroke="#666666" points="772,-606.5 704,-606.5 704,-587.5 772,-587.5 772,-606.5"/>
<text text-anchor="middle" x="738" y="-594.5" font-family="Helvetica,sans-Serif" font-size="10.00">QString::at</text>
</a>
</g>
</g>
<!-- Node12&#45;&gt;Node13 -->
<g id="edge13_Node000012_Node000013" class="edge">
<title>Node12&#45;&gt;Node13</title>
<g id="a_edge13_Node000012_Node000013"><a xlink:title=" ">
<path fill="none" stroke="#63b8ff" d="M608.85,-495.61C614.6,-498.15 620.05,-501.24 625,-505 654.12,-527.13 632.45,-556.14 661,-579 670.9,-586.93 683.71,-591.46 695.98,-594.03"/>
<polygon fill="#63b8ff" stroke="#63b8ff" points="703.93,-595.45 695.42,-597.59 699.99,-594.75 696.05,-594.04 696.05,-594.04 696.05,-594.04 699.99,-594.75 696.68,-590.5 703.93,-595.45 703.93,-595.45"/>
</a>
</g>
</g>
<!-- Node14 -->
<g id="Node000014" class="node">
<title>Node14</title>
<g id="a_Node000014"><a target="_parent" xlink:href="https://doc.qt.io/qt-5/qstring.html#back" xlink:title=" ">
<polygon fill="white" stroke="#666666" points="779,-569.5 697,-569.5 697,-550.5 779,-550.5 779,-569.5"/>
<text text-anchor="middle" x="738" y="-557.5" font-family="Helvetica,sans-Serif" font-size="10.00">QString::back</text>
</a>
</g>
</g>
<!-- Node12&#45;&gt;Node14 -->
<g id="edge14_Node000012_Node000014" class="edge">
<title>Node12&#45;&gt;Node14</title>
<g id="a_edge14_Node000012_Node000014"><a xlink:title=" ">
<path fill="none" stroke="#63b8ff" d="M601.75,-495.56C609.85,-498.03 617.75,-501.13 625,-505 645.24,-515.8 641.04,-530.68 661,-542 669.48,-546.81 679.19,-550.33 688.77,-552.92"/>
<polygon fill="#63b8ff" stroke="#63b8ff" points="696.75,-554.88 688.12,-556.47 692.87,-553.93 688.98,-552.97 688.98,-552.97 688.98,-552.97 692.87,-553.93 689.84,-549.48 696.75,-554.88 696.75,-554.88"/>
</a>
</g>
</g>
<!-- Node15 -->
<g id="Node000015" class="node">
<title>Node15</title>
<g id="a_Node000015"><a target="_parent" xlink:href="https://doc.qt.io/qt-5/qstring.html#chop" xlink:title=" ">
<polygon fill="white" stroke="#666666" points="779,-532.5 697,-532.5 697,-513.5 779,-513.5 779,-532.5"/>
<text text-anchor="middle" x="738" y="-520.5" font-family="Helvetica,sans-Serif" font-size="10.00">QString::chop</text>
</a>
</g>
</g>
<!-- Node12&#45;&gt;Node15 -->
<g id="edge15_Node000012_Node000015" class="edge">
<title>Node12&#45;&gt;Node15</title>
<g id="a_edge15_Node000012_Node000015"><a xlink:title=" ">
<path fill="none" stroke="#63b8ff" d="M577,-495.53C611.49,-501.45 655.4,-508.99 688.5,-514.67"/>
<polygon fill="#63b8ff" stroke="#63b8ff" points="696.66,-516.07 688.17,-518.27 692.72,-515.4 688.78,-514.72 688.78,-514.72 688.78,-514.72 692.72,-515.4 689.39,-511.17 696.66,-516.07 696.66,-516.07"/>
</a>
</g>
</g>
<!-- Node16 -->
<g id="Node000016" class="node">
<title>Node16</title>
<g id="a_Node000016"><a target="_parent" xlink:href="https://doc.qt.io/qt-5/qstring.html#endsWith" xlink:title=" ">
<polygon fill="white" stroke="#666666" points="790,-495.5 686,-495.5 686,-476.5 790,-476.5 790,-495.5"/>
<text text-anchor="middle" x="738" y="-483.5" font-family="Helvetica,sans-Serif" font-size="10.00">QString::endsWith</text>
</a>
</g>
</g>
<!-- Node12&#45;&gt;Node16 -->
<g id="edge16_Node000012_Node000016" class="edge">
<title>Node12&#45;&gt;Node16</title>
<g id="a_edge16_Node000012_Node000016"><a xlink:title=" ">
<path fill="none" stroke="#63b8ff" d="M610.09,-486C632.84,-486 656.77,-486 677.64,-486"/>
<polygon fill="#63b8ff" stroke="#63b8ff" points="685.78,-486 677.78,-489.6 681.78,-486 677.78,-486 677.78,-486 677.78,-486 681.78,-486 677.78,-482.4 685.78,-486 685.78,-486"/>
</a>
</g>
</g>
<!-- Node17 -->
<g id="Node000017" class="node">
<title>Node17</title>
<g id="a_Node000017"><a xlink:href="structRatio.html#abbfb48e8ebeec5666385f38b31f94215" target="_top" xlink:title="Returns true if both num and den are non&#45;zero.">
<polygon fill="white" stroke="#666666" points="778,-458.5 698,-458.5 698,-439.5 778,-439.5 778,-458.5"/>
<text text-anchor="middle" x="738" y="-446.5" font-family="Helvetica,sans-Serif" font-size="10.00">Ratio::isValid</text>
</a>
</g>
</g>
<!-- Node12&#45;&gt;Node17 -->
<g id="edge18_Node000012_Node000017" class="edge">
<title>Node12&#45;&gt;Node17</title>
<g id="a_edge18_Node000012_Node000017"><a xlink:title=" ">
<path fill="none" stroke="#63b8ff" d="M577,-476.47C611.83,-470.49 656.28,-462.86 689.48,-457.16"/>
<polygon fill="#63b8ff" stroke="#63b8ff" points="697.67,-455.75 690.4,-460.65 693.73,-456.43 689.79,-457.11 689.79,-457.11 689.79,-457.11 693.73,-456.43 689.18,-453.56 697.67,-455.75 697.67,-455.75"/>
</a>
</g>
</g>
<!-- Node18 -->
<g id="Node000018" class="node">
<title>Node18</title>
<g id="a_Node000018"><a target="_parent" xlink:href="https://doc.qt.io/qt-5/qstring.html#size" xlink:title=" ">
<polygon fill="white" stroke="#666666" points="777,-421.5 699,-421.5 699,-402.5 777,-402.5 777,-421.5"/>
<text text-anchor="middle" x="738" y="-409.5" font-family="Helvetica,sans-Serif" font-size="10.00">QString::size</text>
</a>
</g>
</g>
<!-- Node12&#45;&gt;Node18 -->
<g id="edge20_Node000012_Node000018" class="edge">
<title>Node12&#45;&gt;Node18</title>
<g id="a_edge20_Node000012_Node000018"><a xlink:title=" ">
<path fill="none" stroke="#63b8ff" d="M601.43,-476.43C609.63,-473.95 617.64,-470.86 625,-467 645.03,-456.48 641.31,-442.15 661,-431 670.15,-425.82 680.7,-422.04 690.98,-419.28"/>
<polygon fill="#63b8ff" stroke="#63b8ff" points="698.75,-417.36 691.84,-422.77 694.87,-418.32 690.98,-419.28 690.98,-419.28 690.98,-419.28 694.87,-418.32 690.12,-415.78 698.75,-417.36 698.75,-417.36"/>
</a>
</g>
</g>
<!-- Node19 -->
<g id="Node000019" class="node">
<title>Node19</title>
<g id="a_Node000019"><a target="_parent" xlink:href="https://doc.qt.io/qt-5/qlocale.html#toDouble" xlink:title=" ">
<polygon fill="white" stroke="#666666" points="791,-384.5 685,-384.5 685,-365.5 791,-365.5 791,-384.5"/>
<text text-anchor="middle" x="738" y="-372.5" font-family="Helvetica,sans-Serif" font-size="10.00">QLocale::toDouble</text>
</a>
</g>
</g>
<!-- Node12&#45;&gt;Node19 -->
<g id="edge21_Node000012_Node000019" class="edge">
<title>Node12&#45;&gt;Node19</title>
<g id="a_edge21_Node000012_Node000019"><a xlink:title=" ">
<path fill="none" stroke="#63b8ff" d="M608.57,-476.48C614.42,-473.92 619.97,-470.8 625,-467 653.86,-445.19 632.84,-416.71 661,-394 665.84,-390.1 671.37,-386.98 677.2,-384.5"/>
<polygon fill="#63b8ff" stroke="#63b8ff" points="684.7,-381.68 678.48,-387.86 680.96,-383.09 677.21,-384.49 677.21,-384.49 677.21,-384.49 680.96,-383.09 675.95,-381.12 684.7,-381.68 684.7,-381.68"/>
</a>
</g>
</g>
<!-- Node20 -->
<g id="Node000020" class="node">
<title>Node20</title>
<g id="a_Node000020"><a target="_parent" xlink:href="https://doc.qt.io/qt-5/qlocale.html#toULongLong" xlink:title=" ">
<polygon fill="white" stroke="#666666" points="800.5,-347.5 675.5,-347.5 675.5,-328.5 800.5,-328.5 800.5,-347.5"/>
<text text-anchor="middle" x="738" y="-335.5" font-family="Helvetica,sans-Serif" font-size="10.00">QLocale::toULongLong</text>
</a>
</g>
</g>
<!-- Node12&#45;&gt;Node20 -->
<g id="edge22_Node000012_Node000020" class="edge">
<title>Node12&#45;&gt;Node20</title>
<g id="a_edge22_Node000012_Node000020"><a xlink:title=" ">
<path fill="none" stroke="#63b8ff" d="M610.44,-476.65C615.68,-474.03 620.6,-470.85 625,-467 663.74,-433.16 623.35,-392.05 661,-357 663.22,-354.93 665.63,-353.08 668.18,-351.42"/>
<polygon fill="#63b8ff" stroke="#63b8ff" points="675.23,-347.47 670.01,-354.53 671.74,-349.43 668.25,-351.38 668.25,-351.38 668.25,-351.38 671.74,-349.43 666.49,-348.24 675.23,-347.47 675.23,-347.47"/>
</a>
</g>
</g>
<!-- Node21 -->
<g id="Node000021" class="node">
<title>Node21</title>
<g id="a_Node000021"><a target="_parent" xlink:href="https://doc.qt.io/qt-5/qstring.html#trimmed" xlink:title=" ">
<polygon fill="white" stroke="#666666" points="788.5,-310.5 687.5,-310.5 687.5,-291.5 788.5,-291.5 788.5,-310.5"/>
<text text-anchor="middle" x="738" y="-298.5" font-family="Helvetica,sans-Serif" font-size="10.00">QString::trimmed</text>
</a>
</g>
</g>
<!-- Node12&#45;&gt;Node21 -->
<g id="edge23_Node000012_Node000021" class="edge">
<title>Node12&#45;&gt;Node21</title>
<g id="a_edge23_Node000012_Node000021"><a xlink:title=" ">
<path fill="none" stroke="#63b8ff" d="M610.3,-477.28C615.64,-474.52 620.61,-471.14 625,-467 673.94,-420.85 613.55,-367.68 661,-320 666.21,-314.76 672.64,-310.89 679.53,-308.04"/>
<polygon fill="#63b8ff" stroke="#63b8ff" points="687.14,-305.34 680.81,-311.41 683.38,-306.68 679.61,-308.01 679.61,-308.01 679.61,-308.01 683.38,-306.68 678.4,-304.62 687.14,-305.34 687.14,-305.34"/>
</a>
</g>
</g>
<!-- Node24&#45;&gt;Node22 -->
<g id="edge27_Node000024_Node000022" class="edge">
<title>Node24&#45;&gt;Node22</title>
<g id="a_edge27_Node000024_Node000022"><a xlink:title=" ">
<path fill="none" stroke="#63b8ff" d="M601.66,-429.85C610.3,-425.85 618.35,-420.68 625,-414 667.59,-371.2 619.38,-326.74 661,-283 662.71,-281.21 664.54,-279.54 666.48,-278"/>
<polygon fill="#63b8ff" stroke="#63b8ff" points="673.44,-273.19 668.9,-280.7 670.15,-275.47 666.86,-277.74 666.86,-277.74 666.86,-277.74 670.15,-275.47 664.81,-274.78 673.44,-273.19 673.44,-273.19"/>
</a>
</g>
</g>
</g>
</svg>
