<?xml version="1.0" encoding="UTF-8" standalone="no"?>
<!DOCTYPE svg PUBLIC "-//W3C//DTD SVG 1.1//EN"
 "http://www.w3.org/Graphics/SVG/1.1/DTD/svg11.dtd">
<!-- Generated by graphviz version 2.43.0 (0)
 -->
<!-- Title: DeviceCommand Pages: 1 -->
<svg width="1221pt" height="657pt"
 viewBox="0.00 0.00 1221.00 656.75" xmlns="http://www.w3.org/2000/svg" xmlns:xlink="http://www.w3.org/1999/xlink">
<g id="graph0" class="graph" transform="scale(1 1) rotate(0) translate(4 652.75)">
<title>DeviceCommand</title>
<!-- Node1 -->
<g id="Node000001" class="node">
<title>Node1</title>
<g id="a_Node000001"><a xlink:title="The AbstractCommand class extends AbstractCommand to add a PokitDevice instance.">
<polygon fill="#999999" stroke="#666666" points="954.5,-565.36 853.5,-565.36 853.5,-546.36 954.5,-546.36 954.5,-565.36"/>
<text text-anchor="middle" x="904" y="-553.36" font-family="Helvetica,sans-Serif" font-size="10.00">DeviceCommand</text>
</a>
</g>
</g>
<!-- Node2 -->
<g id="Node000002" class="node">
<title>Node2</title>
<g id="a_Node000002"><a xlink:href="classAbstractCommand.html" target="_top" xlink:title="The AbstractCommand class provides a consistent base for the classes that implement CLI commands.">
<polygon fill="white" stroke="#666666" points="747,-618.36 640,-618.36 640,-599.36 747,-599.36 747,-618.36"/>
<text text-anchor="middle" x="693.5" y="-606.36" font-family="Helvetica,sans-Serif" font-size="10.00">AbstractCommand</text>
</a>
</g>
</g>
<!-- Node2&#45;&gt;Node1 -->
<g id="edge1_Node000001_Node000002" class="edge">
<title>Node2&#45;&gt;Node1</title>
<g id="a_edge1_Node000001_Node000002"><a xlink:title=" ">
<path fill="none" stroke="#63b8ff" d="M740.04,-597.28C777.63,-587.73 830.34,-574.33 865.52,-565.39"/>
<polygon fill="#63b8ff" stroke="#63b8ff" points="732.26,-599.26 739.12,-593.8 736.13,-598.28 740.01,-597.29 740.01,-597.29 740.01,-597.29 736.13,-598.28 740.9,-600.78 732.26,-599.26 732.26,-599.26"/>
</a>
</g>
</g>
<!-- Node3 -->
<g id="Node000003" class="node">
<title>Node3</title>
<g id="a_Node000003"><a target="_parent" xlink:href="https://doc.qt.io/qt-5/qobject.html" xlink:title=" ">
<polygon fill="white" stroke="#bfbfbf" points="56,-424.36 0,-424.36 0,-405.36 56,-405.36 56,-424.36"/>
<text text-anchor="middle" x="28" y="-412.36" font-family="Helvetica,sans-Serif" font-size="10.00">QObject</text>
</a>
</g>
</g>
<!-- Node3&#45;&gt;Node2 -->
<g id="edge2_Node000002_Node000003" class="edge">
<title>Node3&#45;&gt;Node2</title>
<g id="a_edge2_Node000002_Node000003"><a xlink:title=" ">
<path fill="none" stroke="#63b8ff" d="M31.86,-432.8C37.7,-463.55 53.92,-526.34 93,-560.86 180.54,-638.21 228.51,-621.33 344,-638.86 456.1,-655.88 486.96,-648.29 599,-630.86 618.61,-627.81 640.19,-622.84 657.67,-618.4"/>
<polygon fill="#63b8ff" stroke="#63b8ff" points="30.42,-424.69 35.36,-431.94 31.12,-428.63 31.82,-432.57 31.82,-432.57 31.82,-432.57 31.12,-428.63 28.27,-433.2 30.42,-424.69 30.42,-424.69"/>
</a>
</g>
</g>
<!-- Node6 -->
<g id="Node000006" class="node">
<title>Node6</title>
<g id="a_Node000006"><a target="_parent" xlink:href="https://doc.qt.io/qt-5/qbluetoothdevicediscoveryagent.html" xlink:title=" ">
<polygon fill="white" stroke="#bfbfbf" points="247,-551.86 93,-551.86 93,-521.86 247,-521.86 247,-551.86"/>
<text text-anchor="start" x="101" y="-539.86" font-family="Helvetica,sans-Serif" font-size="10.00">QBluetoothDeviceDiscovery</text>
<text text-anchor="middle" x="170" y="-528.86" font-family="Helvetica,sans-Serif" font-size="10.00">Agent</text>
</a>
</g>
</g>
<!-- Node3&#45;&gt;Node6 -->
<g id="edge6_Node000006_Node000003" class="edge">
<title>Node3&#45;&gt;Node6</title>
<g id="a_edge6_Node000006_Node000003"><a xlink:title=" ">
<path fill="none" stroke="#63b8ff" d="M33.36,-432.31C39.27,-452.51 51.74,-485.5 74,-504.86 82.14,-511.94 91.91,-517.47 102.04,-521.78"/>
<polygon fill="#63b8ff" stroke="#63b8ff" points="31.21,-424.51 36.8,-431.27 32.27,-428.37 33.33,-432.22 33.33,-432.22 33.33,-432.22 32.27,-428.37 29.86,-433.18 31.21,-424.51 31.21,-424.51"/>
</a>
</g>
</g>
<!-- Node7 -->
<g id="Node000007" class="node">
<title>Node7</title>
<g id="a_Node000007"><a xlink:href="classPokitDiscoveryAgentPrivate.html" target="_top" xlink:title="The PokitDiscoveryAgentPrivate class provides private implementation for PokitDiscoveryAgent.">
<polygon fill="white" stroke="#666666" points="770,-533.36 617,-533.36 617,-514.36 770,-514.36 770,-533.36"/>
<text text-anchor="middle" x="693.5" y="-521.36" font-family="Helvetica,sans-Serif" font-size="10.00">PokitDiscoveryAgentPrivate</text>
</a>
</g>
</g>
<!-- Node3&#45;&gt;Node7 -->
<g id="edge8_Node000007_Node000003" class="edge">
<title>Node3&#45;&gt;Node7</title>
<g id="a_edge8_Node000007_Node000003"><a xlink:title=" ">
<path fill="none" stroke="#63b8ff" d="M46.1,-429.72C58.32,-439.45 75.6,-451.5 93,-457.86 117.29,-466.74 461.35,-501.24 616.99,-516.52"/>
<polygon fill="#63b8ff" stroke="#63b8ff" points="39.87,-424.61 48.34,-426.9 42.96,-427.14 46.05,-429.68 46.05,-429.68 46.05,-429.68 42.96,-427.14 43.77,-432.47 39.87,-424.61 39.87,-424.61"/>
</a>
</g>
</g>
<!-- Node8 -->
<g id="Node000008" class="node">
<title>Node8</title>
<g id="a_Node000008"><a xlink:href="classPokitDevice.html" target="_top" xlink:title="The PokitDevice class simplifies Pokit device access.">
<polygon fill="white" stroke="#666666" points="731,-483.36 656,-483.36 656,-464.36 731,-464.36 731,-483.36"/>
<text text-anchor="middle" x="693.5" y="-471.36" font-family="Helvetica,sans-Serif" font-size="10.00">PokitDevice</text>
</a>
</g>
</g>
<!-- Node3&#45;&gt;Node8 -->
<g id="edge11_Node000008_Node000003" class="edge">
<title>Node3&#45;&gt;Node8</title>
<g id="a_edge11_Node000008_Node000003"><a xlink:title=" ">
<path fill="none" stroke="#63b8ff" d="M64.33,-426.68C67.58,-427.51 70.83,-428.26 74,-428.86 291.91,-470.12 559.61,-474.12 655.87,-474.1"/>
<polygon fill="#63b8ff" stroke="#63b8ff" points="56.35,-424.46 65.03,-423.14 60.21,-425.53 64.06,-426.61 64.06,-426.61 64.06,-426.61 60.21,-425.53 63.1,-430.07 56.35,-424.46 56.35,-424.46"/>
</a>
</g>
</g>
<!-- Node9 -->
<g id="Node000009" class="node">
<title>Node9</title>
<g id="a_Node000009"><a xlink:href="classPokitDevicePrivate.html" target="_top" xlink:title="The PokitDevicePrivate class provides private implementation for PokitDevice.">
<polygon fill="white" stroke="#666666" points="1213,-286.36 1103,-286.36 1103,-267.36 1213,-267.36 1213,-286.36"/>
<text text-anchor="middle" x="1158" y="-274.36" font-family="Helvetica,sans-Serif" font-size="10.00">PokitDevicePrivate</text>
</a>
</g>
</g>
<!-- Node3&#45;&gt;Node9 -->
<g id="edge13_Node000009_Node000003" class="edge">
<title>Node3&#45;&gt;Node9</title>
<g id="a_edge13_Node000009_Node000003"><a xlink:title=" ">
<path fill="none" stroke="#63b8ff" d="M64.1,-414.86C92.42,-414.86 133.27,-414.86 169,-414.86 169,-414.86 169,-414.86 905,-414.86 987.46,-414.86 1015.96,-414.95 1085,-369.86 1118.34,-348.09 1142.66,-305.53 1152.36,-286.48"/>
<polygon fill="#63b8ff" stroke="#63b8ff" points="56.1,-414.86 64.1,-411.26 60.1,-414.86 64.1,-414.86 64.1,-414.86 64.1,-414.86 60.1,-414.86 64.1,-418.46 56.1,-414.86 56.1,-414.86"/>
</a>
</g>
</g>
<!-- Node10 -->
<g id="Node000010" class="node">
<title>Node10</title>
<g id="a_Node000010"><a target="_parent" xlink:href="https://doc.qt.io/qt-5/qlowenergycontroller.html" xlink:title=" ">
<polygon fill="white" stroke="#bfbfbf" points="232.5,-386.36 107.5,-386.36 107.5,-367.36 232.5,-367.36 232.5,-386.36"/>
<text text-anchor="middle" x="170" y="-374.36" font-family="Helvetica,sans-Serif" font-size="10.00">QLowEnergyController</text>
</a>
</g>
</g>
<!-- Node3&#45;&gt;Node10 -->
<g id="edge15_Node000010_Node000003" class="edge">
<title>Node3&#45;&gt;Node10</title>
<g id="a_edge15_Node000010_Node000003"><a xlink:title=" ">
<path fill="none" stroke="#63b8ff" d="M63.92,-403.79C67.32,-402.78 70.72,-401.78 74,-400.86 92.01,-395.79 112.08,-390.64 129.12,-386.42"/>
<polygon fill="#63b8ff" stroke="#63b8ff" points="56.06,-406.18 62.66,-400.41 59.88,-405.02 63.71,-403.86 63.71,-403.86 63.71,-403.86 59.88,-405.02 64.76,-407.3 56.06,-406.18 56.06,-406.18"/>
</a>
</g>
</g>
<!-- Node12 -->
<g id="Node000012" class="node">
<title>Node12</title>
<g id="a_Node000012"><a xlink:href="classAbstractPokitService.html" target="_top" xlink:title="The AbstractPokitService class provides a common base for Pokit services classes.">
<polygon fill="white" stroke="#666666" points="752.5,-256.36 634.5,-256.36 634.5,-237.36 752.5,-237.36 752.5,-256.36"/>
<text text-anchor="middle" x="693.5" y="-244.36" font-family="Helvetica,sans-Serif" font-size="10.00">AbstractPokitService</text>
</a>
</g>
</g>
<!-- Node3&#45;&gt;Node12 -->
<g id="edge18_Node000012_Node000003" class="edge">
<title>Node3&#45;&gt;Node12</title>
<g id="a_edge18_Node000012_Node000003"><a xlink:title=" ">
<path fill="none" stroke="#63b8ff" d="M41.6,-398.97C53.33,-385.47 72.1,-366.88 93,-357.86 300.24,-268.45 387.47,-393.57 599,-314.86 633.99,-301.84 667.49,-271.84 683.2,-256.41"/>
<polygon fill="#63b8ff" stroke="#63b8ff" points="36.43,-405.13 38.82,-396.69 39,-402.07 41.57,-399 41.57,-399 41.57,-399 39,-402.07 44.33,-401.32 36.43,-405.13 36.43,-405.13"/>
</a>
</g>
</g>
<!-- Node13 -->
<g id="Node000013" class="node">
<title>Node13</title>
<g id="a_Node000013"><a xlink:href="classAbstractPokitServicePrivate.html" target="_top" xlink:title="The AbstractPokitServicePrivate class provides private implementation for AbstractPokitService.">
<polygon fill="white" stroke="#666666" points="496,-282.36 344,-282.36 344,-263.36 496,-263.36 496,-282.36"/>
<text text-anchor="middle" x="420" y="-270.36" font-family="Helvetica,sans-Serif" font-size="10.00">AbstractPokitServicePrivate</text>
</a>
</g>
</g>
<!-- Node3&#45;&gt;Node13 -->
<g id="edge20_Node000013_Node000003" class="edge">
<title>Node3&#45;&gt;Node13</title>
<g id="a_edge20_Node000013_Node000003"><a xlink:title=" ">
<path fill="none" stroke="#63b8ff" d="M32.71,-397.03C38.05,-376.18 50.01,-342.29 74,-324.86 79.57,-320.81 251.6,-296.24 350.58,-282.37"/>
<polygon fill="#63b8ff" stroke="#63b8ff" points="30.82,-405.09 29.15,-396.47 31.73,-401.19 32.65,-397.3 32.65,-397.3 32.65,-397.3 31.73,-401.19 36.15,-398.12 30.82,-405.09 30.82,-405.09"/>
</a>
</g>
</g>
<!-- Node14 -->
<g id="Node000014" class="node">
<title>Node14</title>
<g id="a_Node000014"><a target="_parent" xlink:href="https://doc.qt.io/qt-5/qlowenergyservice.html" xlink:title=" ">
<polygon fill="white" stroke="#bfbfbf" points="226.5,-272.36 113.5,-272.36 113.5,-253.36 226.5,-253.36 226.5,-272.36"/>
<text text-anchor="middle" x="170" y="-260.36" font-family="Helvetica,sans-Serif" font-size="10.00">QLowEnergyService</text>
</a>
</g>
</g>
<!-- Node3&#45;&gt;Node14 -->
<g id="edge23_Node000014_Node000003" class="edge">
<title>Node3&#45;&gt;Node14</title>
<g id="a_edge23_Node000014_Node000003"><a xlink:title=" ">
<path fill="none" stroke="#63b8ff" d="M30.08,-397.15C32.74,-369.47 41.98,-316.1 74,-286.86 84.8,-276.99 99.07,-271.05 113.25,-267.5"/>
<polygon fill="#63b8ff" stroke="#63b8ff" points="29.42,-405.17 26.49,-396.91 29.75,-401.19 30.07,-397.2 30.07,-397.2 30.07,-397.2 29.75,-401.19 33.66,-397.49 29.42,-405.17 29.42,-405.17"/>
</a>
</g>
</g>
<!-- Node4 -->
<g id="Node000004" class="node">
<title>Node4</title>
<g id="a_Node000004"><a target="_parent" xlink:href="https://doc.qt.io/qt-5/qstring.html" xlink:title=" ">
<polygon fill="white" stroke="#bfbfbf" points="446.5,-629.36 393.5,-629.36 393.5,-610.36 446.5,-610.36 446.5,-629.36"/>
<text text-anchor="middle" x="420" y="-617.36" font-family="Helvetica,sans-Serif" font-size="10.00">QString</text>
</a>
</g>
</g>
<!-- Node4&#45;&gt;Node2 -->
<g id="edge3_Node000002_Node000004" class="edge">
<title>Node4&#45;&gt;Node2</title>
<g id="a_edge3_Node000002_Node000004"><a xlink:title=" ">
<path fill="none" stroke="#9a32cd" stroke-dasharray="5,2" d="M454.76,-618.49C501.21,-616.61 585.27,-613.2 639.97,-610.99"/>
<polygon fill="#9a32cd" stroke="#9a32cd" points="446.54,-618.83 454.39,-614.9 450.54,-618.66 454.54,-618.5 454.54,-618.5 454.54,-618.5 450.54,-618.66 454.68,-622.1 446.54,-618.83 446.54,-618.83"/>
</a>
</g>
<text text-anchor="middle" x="556.5" y="-618.86" font-family="Helvetica,sans-Serif" font-size="10.00" fill="grey"> deviceToScanFor</text>
</g>
<!-- Node5 -->
<g id="Node000005" class="node">
<title>Node5</title>
<g id="a_Node000005"><a xlink:href="classPokitDiscoveryAgent.html" target="_top" xlink:title="The PokitDiscoveryAgent class discovers nearby Pokit devices.">
<polygon fill="white" stroke="#666666" points="479.5,-564.36 360.5,-564.36 360.5,-545.36 479.5,-545.36 479.5,-564.36"/>
<text text-anchor="middle" x="420" y="-552.36" font-family="Helvetica,sans-Serif" font-size="10.00">PokitDiscoveryAgent</text>
</a>
</g>
</g>
<!-- Node5&#45;&gt;Node2 -->
<g id="edge4_Node000002_Node000005" class="edge">
<title>Node5&#45;&gt;Node2</title>
<g id="a_edge4_Node000002_Node000005"><a xlink:title=" ">
<path fill="none" stroke="#9a32cd" stroke-dasharray="5,2" d="M476.96,-565.99C526.41,-575.83 597.75,-590.02 644.61,-599.33"/>
<polygon fill="#9a32cd" stroke="#9a32cd" points="468.91,-564.39 477.46,-562.42 472.84,-565.17 476.76,-565.95 476.76,-565.95 476.76,-565.95 472.84,-565.17 476.06,-569.48 468.91,-564.39 468.91,-564.39"/>
</a>
</g>
<text text-anchor="middle" x="556.5" y="-591.86" font-family="Helvetica,sans-Serif" font-size="10.00" fill="grey"> discoveryAgent</text>
</g>
<!-- Node5&#45;&gt;Node7 -->
<g id="edge9_Node000007_Node000005" class="edge">
<title>Node5&#45;&gt;Node7</title>
<g id="a_edge9_Node000007_Node000005"><a xlink:title=" ">
<path fill="none" stroke="#9a32cd" stroke-dasharray="5,2" d="M487.88,-548.06C521.28,-544.58 562.29,-540.17 599,-535.86 605.66,-535.08 612.59,-534.24 619.53,-533.38"/>
<polygon fill="#9a32cd" stroke="#9a32cd" points="479.56,-548.93 487.14,-544.52 483.54,-548.51 487.52,-548.1 487.52,-548.1 487.52,-548.1 483.54,-548.51 487.89,-551.68 479.56,-548.93 479.56,-548.93"/>
</a>
</g>
<text text-anchor="middle" x="556.5" y="-548.86" font-family="Helvetica,sans-Serif" font-size="10.00" fill="grey"> q_ptr</text>
</g>
<!-- Node6&#45;&gt;Node5 -->
<g id="edge5_Node000005_Node000006" class="edge">
<title>Node6&#45;&gt;Node5</title>
<g id="a_edge5_Node000005_Node000006"><a xlink:title=" ">
<path fill="none" stroke="#63b8ff" d="M255.31,-542.98C289.87,-545.49 329.03,-548.33 360.38,-550.61"/>
<polygon fill="#63b8ff" stroke="#63b8ff" points="247.09,-542.38 255.33,-539.37 251.08,-542.67 255.07,-542.96 255.07,-542.96 255.07,-542.96 251.08,-542.67 254.81,-546.55 247.09,-542.38 247.09,-542.38"/>
</a>
</g>
</g>
<!-- Node7&#45;&gt;Node5 -->
<g id="edge7_Node000005_Node000007" class="edge">
<title>Node7&#45;&gt;Node5</title>
<g id="a_edge7_Node000005_Node000007"><a xlink:title=" ">
<path fill="none" stroke="#9a32cd" stroke-dasharray="5,2" d="M608.6,-519.06C578.59,-518.73 544.63,-519.95 514,-524.86 489.38,-528.8 462.37,-538.11 443.83,-545.32"/>
<polygon fill="#9a32cd" stroke="#9a32cd" points="616.96,-519.2 608.9,-522.67 612.96,-519.13 608.96,-519.07 608.96,-519.07 608.96,-519.07 612.96,-519.13 609.01,-515.47 616.96,-519.2 616.96,-519.2"/>
</a>
</g>
<text text-anchor="middle" x="556.5" y="-527.86" font-family="Helvetica,sans-Serif" font-size="10.00" fill="grey"> d_ptr</text>
</g>
<!-- Node8&#45;&gt;Node1 -->
<g id="edge10_Node000001_Node000008" class="edge">
<title>Node8&#45;&gt;Node1</title>
<g id="a_edge10_Node000001_Node000008"><a xlink:title=" ">
<path fill="none" stroke="#9a32cd" stroke-dasharray="5,2" d="M732.37,-486.27C744.85,-491.16 758.47,-497.41 770,-504.86 779.25,-510.83 778.46,-516.37 788,-521.86 808.03,-533.39 832.31,-541.31 853.39,-546.59"/>
<polygon fill="#9a32cd" stroke="#9a32cd" points="724.79,-483.4 733.54,-482.86 728.53,-484.82 732.27,-486.23 732.27,-486.23 732.27,-486.23 728.53,-484.82 730.99,-489.6 724.79,-483.4 724.79,-483.4"/>
</a>
</g>
<text text-anchor="middle" x="806" y="-540.86" font-family="Helvetica,sans-Serif" font-size="10.00" fill="grey"> device</text>
</g>
<!-- Node8&#45;&gt;Node9 -->
<g id="edge46_Node000009_Node000008" class="edge">
<title>Node8&#45;&gt;Node9</title>
<g id="a_edge46_Node000009_Node000008"><a xlink:title=" ">
<path fill="none" stroke="#9a32cd" stroke-dasharray="5,2" d="M731.51,-485.75C807.84,-507.73 983.99,-544.97 1085,-457.86 1139.55,-410.82 1153.17,-316.75 1156.21,-286.48"/>
<polygon fill="#9a32cd" stroke="#9a32cd" points="723.58,-483.42 732.27,-482.22 727.41,-484.55 731.25,-485.67 731.25,-485.67 731.25,-485.67 727.41,-484.55 730.24,-489.13 723.58,-483.42 723.58,-483.42"/>
</a>
</g>
<text text-anchor="middle" x="904" y="-515.86" font-family="Helvetica,sans-Serif" font-size="10.00" fill="grey"> q_ptr</text>
</g>
<!-- Node9&#45;&gt;Node8 -->
<g id="edge12_Node000008_Node000009" class="edge">
<title>Node9&#45;&gt;Node8</title>
<g id="a_edge12_Node000008_Node000009"><a xlink:title=" ">
<path fill="none" stroke="#9a32cd" stroke-dasharray="5,2" d="M1154.29,-294.51C1148.28,-327.07 1130.57,-396.22 1085,-428.86 1028.83,-469.1 817.18,-473.83 731.18,-474.06"/>
<polygon fill="#9a32cd" stroke="#9a32cd" points="1155.69,-286.36 1157.89,-294.85 1155.01,-290.3 1154.34,-294.25 1154.34,-294.25 1154.34,-294.25 1155.01,-290.3 1150.79,-293.64 1155.69,-286.36 1155.69,-286.36"/>
</a>
</g>
<text text-anchor="middle" x="904" y="-474.86" font-family="Helvetica,sans-Serif" font-size="10.00" fill="grey"> d_ptr</text>
</g>
<!-- Node10&#45;&gt;Node9 -->
<g id="edge14_Node000009_Node000010" class="edge">
<title>Node10&#45;&gt;Node9</title>
<g id="a_edge14_Node000009_Node000010"><a xlink:title=" ">
<path fill="none" stroke="#9a32cd" stroke-dasharray="5,2" d="M240.82,-376.57C317.86,-376.27 445.53,-375.86 555.5,-375.86 555.5,-375.86 555.5,-375.86 905,-375.86 986.76,-375.86 1011.57,-373.83 1085,-337.86 1111.48,-324.89 1136.32,-300 1148.73,-286.37"/>
<polygon fill="#9a32cd" stroke="#9a32cd" points="232.6,-376.6 240.58,-372.97 236.6,-376.59 240.6,-376.57 240.6,-376.57 240.6,-376.57 236.6,-376.59 240.61,-380.17 232.6,-376.6 232.6,-376.6"/>
</a>
</g>
<text text-anchor="middle" x="693.5" y="-378.86" font-family="Helvetica,sans-Serif" font-size="10.00" fill="grey"> controller</text>
</g>
<!-- Node10&#45;&gt;Node13 -->
<g id="edge21_Node000013_Node000010" class="edge">
<title>Node10&#45;&gt;Node13</title>
<g id="a_edge21_Node000013_Node000010"><a xlink:title=" ">
<path fill="none" stroke="#9a32cd" stroke-dasharray="5,2" d="M203.44,-364.36C234.92,-352.12 283.96,-332.75 326,-314.86 351.1,-304.18 379.66,-291.15 398.43,-282.46"/>
<polygon fill="#9a32cd" stroke="#9a32cd" points="195.83,-367.31 201.99,-361.06 199.56,-365.86 203.29,-364.42 203.29,-364.42 203.29,-364.42 199.56,-365.86 204.59,-367.77 195.83,-367.31 195.83,-367.31"/>
</a>
</g>
<text text-anchor="middle" x="295.5" y="-342.86" font-family="Helvetica,sans-Serif" font-size="10.00" fill="grey"> controller</text>
</g>
<!-- Node11 -->
<g id="Node000011" class="node">
<title>Node11</title>
<g id="a_Node000011"><a xlink:href="classCalibrationService.html" target="_top" xlink:title="The CalibrationService class accesses the Calibrartion service of Pokit devices.">
<polygon fill="white" stroke="#666666" points="957,-229.36 851,-229.36 851,-210.36 957,-210.36 957,-229.36"/>
<text text-anchor="middle" x="904" y="-217.36" font-family="Helvetica,sans-Serif" font-size="10.00">CalibrationService</text>
</a>
</g>
</g>
<!-- Node11&#45;&gt;Node9 -->
<g id="edge16_Node000009_Node000011" class="edge">
<title>Node11&#45;&gt;Node9</title>
<g id="a_edge16_Node000009_Node000011"><a xlink:title=" ">
<path fill="none" stroke="#9a32cd" stroke-dasharray="5,2" d="M965.65,-224.61C1000.95,-228.36 1046.04,-234.87 1085,-245.86 1103.86,-251.18 1124.28,-260.33 1138.55,-267.31"/>
<polygon fill="#9a32cd" stroke="#9a32cd" points="957.35,-223.76 965.68,-220.99 961.33,-224.17 965.31,-224.58 965.31,-224.58 965.31,-224.58 961.33,-224.17 964.94,-228.16 957.35,-223.76 957.35,-223.76"/>
</a>
</g>
<text text-anchor="middle" x="1034.5" y="-248.86" font-family="Helvetica,sans-Serif" font-size="10.00" fill="grey"> calibration</text>
</g>
<!-- Node12&#45;&gt;Node11 -->
<g id="edge17_Node000011_Node000012" class="edge">
<title>Node12&#45;&gt;Node11</title>
<g id="a_edge17_Node000011_Node000012"><a xlink:title=" ">
<path fill="none" stroke="#63b8ff" d="M760.67,-238.29C789.83,-234.51 823.6,-230.14 850.92,-226.6"/>
<polygon fill="#63b8ff" stroke="#63b8ff" points="752.58,-239.34 760.05,-234.74 756.55,-238.83 760.51,-238.31 760.51,-238.31 760.51,-238.31 756.55,-238.83 760.97,-241.88 752.58,-239.34 752.58,-239.34"/>
</a>
</g>
</g>
<!-- Node12&#45;&gt;Node13 -->
<g id="edge26_Node000013_Node000012" class="edge">
<title>Node12&#45;&gt;Node13</title>
<g id="a_edge26_Node000013_Node000012"><a xlink:title=" ">
<path fill="none" stroke="#9a32cd" stroke-dasharray="5,2" d="M625.85,-239.07C592.13,-236.63 550.67,-235.91 514,-241.86 488.97,-245.92 461.57,-255.76 443.04,-263.27"/>
<polygon fill="#9a32cd" stroke="#9a32cd" points="634.25,-239.73 626,-242.69 630.27,-239.42 626.28,-239.1 626.28,-239.1 626.28,-239.1 630.27,-239.42 626.56,-235.51 634.25,-239.73 634.25,-239.73"/>
</a>
</g>
<text text-anchor="middle" x="556.5" y="-244.86" font-family="Helvetica,sans-Serif" font-size="10.00" fill="grey"> q_ptr</text>
</g>
<!-- Node17 -->
<g id="Node000017" class="node">
<title>Node17</title>
<g id="a_Node000017"><a xlink:href="classDataLoggerService.html" target="_top" xlink:title="The DataLoggerService class accesses the Data Logger service of Pokit devices.">
<polygon fill="white" stroke="#666666" points="958.5,-192.36 849.5,-192.36 849.5,-173.36 958.5,-173.36 958.5,-192.36"/>
<text text-anchor="middle" x="904" y="-180.36" font-family="Helvetica,sans-Serif" font-size="10.00">DataLoggerService</text>
</a>
</g>
</g>
<!-- Node12&#45;&gt;Node17 -->
<g id="edge29_Node000017_Node000012" class="edge">
<title>Node12&#45;&gt;Node17</title>
<g id="a_edge29_Node000017_Node000012"><a xlink:title=" ">
<path fill="none" stroke="#63b8ff" d="M732.35,-234.88C762.11,-225.5 804.65,-212.19 842,-200.86 851.19,-198.07 861.18,-195.1 870.37,-192.39"/>
<polygon fill="#63b8ff" stroke="#63b8ff" points="724.68,-237.3 731.23,-231.46 728.5,-236.09 732.31,-234.89 732.31,-234.89 732.31,-234.89 728.5,-236.09 733.4,-238.32 724.68,-237.3 724.68,-237.3"/>
</a>
</g>
</g>
<!-- Node18 -->
<g id="Node000018" class="node">
<title>Node18</title>
<g id="a_Node000018"><a xlink:href="classDeviceInfoService.html" target="_top" xlink:title="The DeviceInfoService class accesses the Device Info service of Pokit devices.">
<polygon fill="white" stroke="#666666" points="956.5,-122.36 851.5,-122.36 851.5,-103.36 956.5,-103.36 956.5,-122.36"/>
<text text-anchor="middle" x="904" y="-110.36" font-family="Helvetica,sans-Serif" font-size="10.00">DeviceInfoService</text>
</a>
</g>
</g>
<!-- Node12&#45;&gt;Node18 -->
<g id="edge32_Node000018_Node000012" class="edge">
<title>Node12&#45;&gt;Node18</title>
<g id="a_edge32_Node000018_Node000012"><a xlink:title=" ">
<path fill="none" stroke="#63b8ff" d="M716.35,-232.81C758.92,-205.46 851.92,-145.69 888.14,-122.41"/>
<polygon fill="#63b8ff" stroke="#63b8ff" points="709.49,-237.22 714.28,-229.87 712.86,-235.06 716.22,-232.9 716.22,-232.9 716.22,-232.9 712.86,-235.06 718.17,-235.93 709.49,-237.22 709.49,-237.22"/>
</a>
</g>
</g>
<!-- Node19 -->
<g id="Node000019" class="node">
<title>Node19</title>
<g id="a_Node000019"><a xlink:href="classDsoService.html" target="_top" xlink:title="The DsoService class accesses the DSO (Digital Storage Oscilloscope) service of Pokit devices.">
<polygon fill="white" stroke="#666666" points="939.5,-85.36 868.5,-85.36 868.5,-66.36 939.5,-66.36 939.5,-85.36"/>
<text text-anchor="middle" x="904" y="-73.36" font-family="Helvetica,sans-Serif" font-size="10.00">DsoService</text>
</a>
</g>
</g>
<!-- Node12&#45;&gt;Node19 -->
<g id="edge35_Node000019_Node000012" class="edge">
<title>Node12&#45;&gt;Node19</title>
<g id="a_edge35_Node000019_Node000012"><a xlink:title=" ">
<path fill="none" stroke="#63b8ff" d="M705.67,-230.57C727.93,-199.35 780.96,-130.89 842,-93.86 850.02,-88.99 859.44,-85.37 868.45,-82.71"/>
<polygon fill="#63b8ff" stroke="#63b8ff" points="700.92,-237.33 702.58,-228.71 703.22,-234.05 705.52,-230.78 705.52,-230.78 705.52,-230.78 703.22,-234.05 708.47,-232.85 700.92,-237.33 700.92,-237.33"/>
</a>
</g>
</g>
<!-- Node20 -->
<g id="Node000020" class="node">
<title>Node20</title>
<g id="a_Node000020"><a xlink:href="classGenericAccessService.html" target="_top" xlink:title="The GenericAccessService class accesses the Generic Access service of Pokit devices.">
<polygon fill="white" stroke="#666666" points="966,-266.36 842,-266.36 842,-247.36 966,-247.36 966,-266.36"/>
<text text-anchor="middle" x="904" y="-254.36" font-family="Helvetica,sans-Serif" font-size="10.00">GenericAccessService</text>
</a>
</g>
</g>
<!-- Node12&#45;&gt;Node20 -->
<g id="edge38_Node000020_Node000012" class="edge">
<title>Node12&#45;&gt;Node20</title>
<g id="a_edge38_Node000020_Node000012"><a xlink:title=" ">
<path fill="none" stroke="#63b8ff" d="M760.88,-250.04C786.88,-251.29 816.51,-252.71 841.96,-253.93"/>
<polygon fill="#63b8ff" stroke="#63b8ff" points="752.58,-249.65 760.74,-246.43 756.57,-249.84 760.57,-250.03 760.57,-250.03 760.57,-250.03 756.57,-249.84 760.4,-253.62 752.58,-249.65 752.58,-249.65"/>
</a>
</g>
</g>
<!-- Node21 -->
<g id="Node000021" class="node">
<title>Node21</title>
<g id="a_Node000021"><a xlink:href="classMultimeterService.html" target="_top" xlink:title="The MultimeterService class accesses the Multimeter service of Pokit devices.">
<polygon fill="white" stroke="#666666" points="957.5,-303.36 850.5,-303.36 850.5,-284.36 957.5,-284.36 957.5,-303.36"/>
<text text-anchor="middle" x="904" y="-291.36" font-family="Helvetica,sans-Serif" font-size="10.00">MultimeterService</text>
</a>
</g>
</g>
<!-- Node12&#45;&gt;Node21 -->
<g id="edge41_Node000021_Node000012" class="edge">
<title>Node12&#45;&gt;Node21</title>
<g id="a_edge41_Node000021_Node000012"><a xlink:title=" ">
<path fill="none" stroke="#63b8ff" d="M744.52,-258.14C779.93,-266.12 826.91,-276.71 860.51,-284.28"/>
<polygon fill="#63b8ff" stroke="#63b8ff" points="736.69,-256.37 745.29,-254.62 740.6,-257.25 744.5,-258.13 744.5,-258.13 744.5,-258.13 740.6,-257.25 743.71,-261.64 736.69,-256.37 736.69,-256.37"/>
</a>
</g>
</g>
<!-- Node22 -->
<g id="Node000022" class="node">
<title>Node22</title>
<g id="a_Node000022"><a xlink:href="classStatusService.html" target="_top" xlink:title="The StatusService class accesses the Pokit Status service of Pokit devices.">
<polygon fill="white" stroke="#666666" points="945.5,-340.36 862.5,-340.36 862.5,-321.36 945.5,-321.36 945.5,-340.36"/>
<text text-anchor="middle" x="904" y="-328.36" font-family="Helvetica,sans-Serif" font-size="10.00">StatusService</text>
</a>
</g>
</g>
<!-- Node12&#45;&gt;Node22 -->
<g id="edge44_Node000022_Node000012" class="edge">
<title>Node12&#45;&gt;Node22</title>
<g id="a_edge44_Node000022_Node000012"><a xlink:title=" ">
<path fill="none" stroke="#63b8ff" d="M721.63,-259.92C750.93,-273.77 799.18,-295.82 842,-311.86 850.93,-315.21 860.75,-318.45 869.84,-321.28"/>
<polygon fill="#63b8ff" stroke="#63b8ff" points="714.24,-256.42 723.02,-256.6 717.86,-258.13 721.47,-259.85 721.47,-259.85 721.47,-259.85 717.86,-258.13 719.93,-263.1 714.24,-256.42 714.24,-256.42"/>
</a>
</g>
</g>
<!-- Node13&#45;&gt;Node12 -->
<g id="edge19_Node000012_Node000013" class="edge">
<title>Node13&#45;&gt;Node12</title>
<g id="a_edge19_Node000012_Node000013"><a xlink:title=" ">
<path fill="none" stroke="#9a32cd" stroke-dasharray="5,2" d="M504.3,-264.88C546.4,-260.85 596.44,-256.06 634.34,-252.43"/>
<polygon fill="#9a32cd" stroke="#9a32cd" points="496.27,-265.65 503.89,-261.31 500.25,-265.27 504.23,-264.89 504.23,-264.89 504.23,-264.89 500.25,-265.27 504.57,-268.47 496.27,-265.65 496.27,-265.65"/>
</a>
</g>
<text text-anchor="middle" x="556.5" y="-266.86" font-family="Helvetica,sans-Serif" font-size="10.00" fill="grey"> d_ptr</text>
</g>
<!-- Node14&#45;&gt;Node13 -->
<g id="edge22_Node000013_Node000014" class="edge">
<title>Node14&#45;&gt;Node13</title>
<g id="a_edge22_Node000013_Node000014"><a xlink:title=" ">
<path fill="none" stroke="#9a32cd" stroke-dasharray="5,2" d="M234.94,-265.44C268.18,-266.78 309.02,-268.43 343.78,-269.83"/>
<polygon fill="#9a32cd" stroke="#9a32cd" points="226.66,-265.1 234.79,-261.83 230.65,-265.27 234.65,-265.43 234.65,-265.43 234.65,-265.43 230.65,-265.27 234.5,-269.02 226.66,-265.1 226.66,-265.1"/>
</a>
</g>
<text text-anchor="middle" x="295.5" y="-272.86" font-family="Helvetica,sans-Serif" font-size="10.00" fill="grey"> service</text>
</g>
<!-- Node15 -->
<g id="Node000015" class="node">
<title>Node15</title>
<g id="a_Node000015"><a target="_parent" xlink:href="https://doc.qt.io/qt-5/qbluetoothuuid.html" xlink:title=" ">
<polygon fill="white" stroke="#bfbfbf" points="217,-166.36 123,-166.36 123,-147.36 217,-147.36 217,-166.36"/>
<text text-anchor="middle" x="170" y="-154.36" font-family="Helvetica,sans-Serif" font-size="10.00">QBluetoothUuid</text>
</a>
</g>
</g>
<!-- Node15&#45;&gt;Node11 -->
<g id="edge27_Node000011_Node000015" class="edge">
<title>Node15&#45;&gt;Node11</title>
<g id="a_edge27_Node000011_Node000015"><a xlink:title=" ">
<path fill="none" stroke="#9a32cd" stroke-dasharray="5,2" d="M225.25,-155C372.7,-150.37 773.2,-140.74 824,-170.86 837.38,-178.79 829.78,-191.25 842,-200.86 846.97,-204.77 852.75,-207.88 858.74,-210.35"/>
<polygon fill="#9a32cd" stroke="#9a32cd" points="217.16,-155.26 225.04,-151.41 221.16,-155.13 225.16,-155 225.16,-155 225.16,-155 221.16,-155.13 225.27,-158.6 217.16,-155.26 217.16,-155.26"/>
</a>
</g>
<text text-anchor="middle" x="556.5" y="-153.86" font-family="Helvetica,sans-Serif" font-size="10.00" fill="grey"> serviceUuid</text>
</g>
<!-- Node15&#45;&gt;Node13 -->
<g id="edge24_Node000013_Node000015" class="edge">
<title>Node15&#45;&gt;Node13</title>
<g id="a_edge24_Node000013_Node000015"><a xlink:title=" ">
<path fill="none" stroke="#9a32cd" stroke-dasharray="5,2" d="M190.27,-171.49C208.73,-185.03 237.73,-205.1 265,-218.86 298.39,-235.71 308.7,-235.5 344,-247.86 359.03,-253.12 375.83,-258.75 389.72,-263.33"/>
<polygon fill="#9a32cd" stroke="#9a32cd" points="183.5,-166.47 192.07,-168.35 186.72,-168.86 189.93,-171.24 189.93,-171.24 189.93,-171.24 186.72,-168.86 187.79,-174.13 183.5,-166.47 183.5,-166.47"/>
</a>
</g>
<text text-anchor="middle" x="295.5" y="-244.86" font-family="Helvetica,sans-Serif" font-size="10.00" fill="grey"> serviceUuid</text>
</g>
<!-- Node15&#45;&gt;Node17 -->
<g id="edge30_Node000017_Node000015" class="edge">
<title>Node15&#45;&gt;Node17</title>
<g id="a_edge30_Node000017_Node000015"><a xlink:title=" ">
<path fill="none" stroke="#9a32cd" stroke-dasharray="5,2" d="M225.26,-148.1C238.25,-146.19 252.1,-144.31 265,-142.86 511.89,-115.09 584.4,-80.13 824,-145.86 846.78,-152.11 871.14,-164.48 886.68,-173.19"/>
<polygon fill="#9a32cd" stroke="#9a32cd" points="217.29,-149.29 224.67,-144.55 221.25,-148.7 225.2,-148.11 225.2,-148.11 225.2,-148.11 221.25,-148.7 225.73,-151.67 217.29,-149.29 217.29,-149.29"/>
</a>
</g>
<text text-anchor="middle" x="556.5" y="-114.86" font-family="Helvetica,sans-Serif" font-size="10.00" fill="grey"> serviceUuid</text>
</g>
<!-- Node15&#45;&gt;Node18 -->
<g id="edge33_Node000018_Node000015" class="edge">
<title>Node15&#45;&gt;Node18</title>
<g id="a_edge33_Node000018_Node000015"><a xlink:title=" ">
<path fill="none" stroke="#9a32cd" stroke-dasharray="5,2" d="M208.02,-144.82C242.76,-133.99 296.37,-118.51 344,-109.86 528.06,-76.45 751.85,-95.05 851.2,-106.28"/>
<polygon fill="#9a32cd" stroke="#9a32cd" points="200.04,-147.33 206.59,-141.49 203.85,-146.13 207.67,-144.93 207.67,-144.93 207.67,-144.93 203.85,-146.13 208.75,-148.36 200.04,-147.33 200.04,-147.33"/>
</a>
</g>
<text text-anchor="middle" x="556.5" y="-95.86" font-family="Helvetica,sans-Serif" font-size="10.00" fill="grey"> serviceUuid</text>
</g>
<!-- Node15&#45;&gt;Node19 -->
<g id="edge36_Node000019_Node000015" class="edge">
<title>Node15&#45;&gt;Node19</title>
<g id="a_edge36_Node000019_Node000015"><a xlink:title=" ">
<path fill="none" stroke="#9a32cd" stroke-dasharray="5,2" d="M194.95,-143.08C213.57,-132.81 240.31,-119.04 265,-109.86 298.95,-97.24 308.26,-95.71 344,-89.86 540.16,-57.77 780.13,-68.06 868.34,-73.46"/>
<polygon fill="#9a32cd" stroke="#9a32cd" points="187.49,-147.24 192.72,-140.2 190.98,-145.29 194.48,-143.34 194.48,-143.34 194.48,-143.34 190.98,-145.29 196.23,-146.48 187.49,-147.24 187.49,-147.24"/>
</a>
</g>
<text text-anchor="middle" x="556.5" y="-75.86" font-family="Helvetica,sans-Serif" font-size="10.00" fill="grey"> serviceUuid</text>
</g>
<!-- Node15&#45;&gt;Node20 -->
<g id="edge39_Node000020_Node000015" class="edge">
<title>Node15&#45;&gt;Node20</title>
<g id="a_edge39_Node000020_Node000015"><a xlink:title=" ">
<path fill="none" stroke="#9a32cd" stroke-dasharray="5,2" d="M225.24,-163.22C370.2,-180.22 756.59,-225.61 770,-227.86 801.81,-233.2 837.51,-241.09 863.91,-247.29"/>
<polygon fill="#9a32cd" stroke="#9a32cd" points="217.28,-162.29 225.64,-159.64 221.25,-162.75 225.22,-163.22 225.22,-163.22 225.22,-163.22 221.25,-162.75 224.8,-166.79 217.28,-162.29 217.28,-162.29"/>
</a>
</g>
<text text-anchor="middle" x="556.5" y="-210.86" font-family="Helvetica,sans-Serif" font-size="10.00" fill="grey"> serviceUuid</text>
</g>
<!-- Node15&#45;&gt;Node21 -->
<g id="edge42_Node000021_Node000015" class="edge">
<title>Node15&#45;&gt;Node21</title>
<g id="a_edge42_Node000021_Node000015"><a xlink:title=" ">
<path fill="none" stroke="#9a32cd" stroke-dasharray="5,2" d="M209.51,-168.86C226.51,-174.13 246.73,-180.35 265,-185.86 367.47,-216.75 408.68,-191.98 496,-253.86 507.17,-261.78 501.94,-272.38 514,-278.86 627.44,-339.75 787.46,-318.33 861.91,-303.38"/>
<polygon fill="#9a32cd" stroke="#9a32cd" points="201.45,-166.36 210.16,-165.3 205.27,-167.55 209.09,-168.73 209.09,-168.73 209.09,-168.73 205.27,-167.55 208.02,-172.17 201.45,-166.36 201.45,-166.36"/>
</a>
</g>
<text text-anchor="middle" x="556.5" y="-311.86" font-family="Helvetica,sans-Serif" font-size="10.00" fill="grey"> serviceUuid</text>
</g>
<!-- Node16 -->
<g id="Node000016" class="node">
<title>Node16</title>
<g id="a_Node000016"><a target="_parent" xlink:href="https://doc.qt.io/qt-5/quuid.html" xlink:title=" ">
<polygon fill="white" stroke="#bfbfbf" points="51.5,-166.36 4.5,-166.36 4.5,-147.36 51.5,-147.36 51.5,-166.36"/>
<text text-anchor="middle" x="28" y="-154.36" font-family="Helvetica,sans-Serif" font-size="10.00">QUuid</text>
</a>
</g>
</g>
<!-- Node16&#45;&gt;Node15 -->
<g id="edge25_Node000015_Node000016" class="edge">
<title>Node16&#45;&gt;Node15</title>
<g id="a_edge25_Node000015_Node000016"><a xlink:title=" ">
<path fill="none" stroke="#63b8ff" d="M59.9,-156.86C78.41,-156.86 102.29,-156.86 122.98,-156.86"/>
<polygon fill="#63b8ff" stroke="#63b8ff" points="51.81,-156.86 59.81,-153.26 55.81,-156.86 59.81,-156.86 59.81,-156.86 59.81,-156.86 55.81,-156.86 59.8,-160.46 51.81,-156.86 51.81,-156.86"/>
</a>
</g>
</g>
<!-- Node17&#45;&gt;Node9 -->
<g id="edge28_Node000009_Node000017" class="edge">
<title>Node17&#45;&gt;Node9</title>
<g id="a_edge28_Node000009_Node000017"><a xlink:title=" ">
<path fill="none" stroke="#9a32cd" stroke-dasharray="5,2" d="M966.53,-184.65C1002.55,-187.73 1048.06,-195.2 1085,-212.86 1112.46,-225.99 1137.27,-252.8 1149.31,-267.2"/>
<polygon fill="#9a32cd" stroke="#9a32cd" points="958.53,-184.03 966.79,-181.06 962.52,-184.34 966.51,-184.65 966.51,-184.65 966.51,-184.65 962.52,-184.34 966.23,-188.24 958.53,-184.03 958.53,-184.03"/>
</a>
</g>
<text text-anchor="middle" x="1034.5" y="-215.86" font-family="Helvetica,sans-Serif" font-size="10.00" fill="grey"> dataLogger</text>
</g>
<!-- Node18&#45;&gt;Node9 -->
<g id="edge31_Node000009_Node000018" class="edge">
<title>Node18&#45;&gt;Node9</title>
<g id="a_edge31_Node000009_Node000018"><a xlink:title=" ">
<path fill="none" stroke="#9a32cd" stroke-dasharray="5,2" d="M945.71,-124.7C995.21,-139.32 1073.6,-163.32 1085,-171.86 1120.02,-198.11 1143.94,-246.57 1152.98,-267.18"/>
<polygon fill="#9a32cd" stroke="#9a32cd" points="938.02,-122.43 946.72,-121.24 941.86,-123.56 945.7,-124.69 945.7,-124.69 945.7,-124.69 941.86,-123.56 944.68,-128.15 938.02,-122.43 938.02,-122.43"/>
</a>
</g>
<text text-anchor="middle" x="1034.5" y="-174.86" font-family="Helvetica,sans-Serif" font-size="10.00" fill="grey"> deviceInfo</text>
</g>
<!-- Node19&#45;&gt;Node9 -->
<g id="edge34_Node000009_Node000019" class="edge">
<title>Node19&#45;&gt;Node9</title>
<g id="a_edge34_Node000009_Node000019"><a xlink:title=" ">
<path fill="none" stroke="#9a32cd" stroke-dasharray="5,2" d="M947.58,-87.65C953.8,-89.59 960.1,-91.69 966,-93.86 974.22,-96.88 975.67,-99.18 984,-101.86 1027.64,-115.92 1049.04,-94.42 1085,-122.86 1133.38,-161.13 1150.75,-239.56 1155.5,-267.06"/>
<polygon fill="#9a32cd" stroke="#9a32cd" points="939.78,-85.26 948.48,-84.16 943.6,-86.43 947.43,-87.6 947.43,-87.6 947.43,-87.6 943.6,-86.43 946.38,-91.04 939.78,-85.26 939.78,-85.26"/>
</a>
</g>
<text text-anchor="middle" x="1034.5" y="-125.86" font-family="Helvetica,sans-Serif" font-size="10.00" fill="grey"> dso</text>
</g>
<!-- Node20&#45;&gt;Node9 -->
<g id="edge37_Node000009_Node000020" class="edge">
<title>Node20&#45;&gt;Node9</title>
<g id="a_edge37_Node000009_Node000020"><a xlink:title=" ">
<path fill="none" stroke="#9a32cd" stroke-dasharray="5,2" d="M974.64,-260.09C1008.06,-261.9 1048.65,-264.48 1085,-267.86 1090.77,-268.4 1096.79,-269.03 1102.79,-269.71"/>
<polygon fill="#9a32cd" stroke="#9a32cd" points="966.31,-259.64 974.49,-256.47 970.3,-259.86 974.3,-260.07 974.3,-260.07 974.3,-260.07 970.3,-259.86 974.11,-263.66 966.31,-259.64 966.31,-259.64"/>
</a>
</g>
<text text-anchor="middle" x="1034.5" y="-270.86" font-family="Helvetica,sans-Serif" font-size="10.00" fill="grey"> genericAccess</text>
</g>
<!-- Node21&#45;&gt;Node9 -->
<g id="edge40_Node000009_Node000021" class="edge">
<title>Node21&#45;&gt;Node9</title>
<g id="a_edge40_Node000009_Node000021"><a xlink:title=" ">
<path fill="none" stroke="#9a32cd" stroke-dasharray="5,2" d="M965.69,-289.77C1007.48,-286.95 1062.5,-283.24 1102.81,-280.52"/>
<polygon fill="#9a32cd" stroke="#9a32cd" points="957.52,-290.32 965.26,-286.19 961.51,-290.05 965.5,-289.78 965.5,-289.78 965.5,-289.78 961.51,-290.05 965.74,-293.37 957.52,-290.32 957.52,-290.32"/>
</a>
</g>
<text text-anchor="middle" x="1034.5" y="-291.86" font-family="Helvetica,sans-Serif" font-size="10.00" fill="grey"> multimeter</text>
</g>
<!-- Node22&#45;&gt;Node9 -->
<g id="edge43_Node000009_Node000022" class="edge">
<title>Node22&#45;&gt;Node9</title>
<g id="a_edge43_Node000009_Node000022"><a xlink:title=" ">
<path fill="none" stroke="#9a32cd" stroke-dasharray="5,2" d="M953.55,-326.37C990.1,-322.32 1041.21,-315.22 1085,-303.86 1102.19,-299.4 1120.95,-292.29 1135.01,-286.48"/>
<polygon fill="#9a32cd" stroke="#9a32cd" points="945.52,-327.24 953.09,-322.8 949.5,-326.81 953.48,-326.38 953.48,-326.38 953.48,-326.38 949.5,-326.81 953.86,-329.96 945.52,-327.24 945.52,-327.24"/>
</a>
</g>
<text text-anchor="middle" x="1034.5" y="-325.86" font-family="Helvetica,sans-Serif" font-size="10.00" fill="grey"> status</text>
</g>
<!-- Node23 -->
<g id="Node000023" class="node">
<title>Node23</title>
<g id="a_Node000023"><a target="_parent" xlink:href="https://doc.qt.io/qt-5/qmutex.html" xlink:title=" ">
<polygon fill="white" stroke="#bfbfbf" points="931.5,-33.36 876.5,-33.36 876.5,-14.36 931.5,-14.36 931.5,-33.36"/>
<text text-anchor="middle" x="904" y="-21.36" font-family="Helvetica,sans-Serif" font-size="10.00">QMutex</text>
</a>
</g>
</g>
<!-- Node23&#45;&gt;Node9 -->
<g id="edge45_Node000009_Node000023" class="edge">
<title>Node23&#45;&gt;Node9</title>
<g id="a_edge45_Node000009_Node000023"><a xlink:title=" ">
<path fill="none" stroke="#9a32cd" stroke-dasharray="5,2" d="M938.99,-11.91C978.31,-0.42 1043.02,10.94 1085,-20.86 1126.22,-52.08 1150.43,-224.67 1155.84,-267.32"/>
<polygon fill="#9a32cd" stroke="#9a32cd" points="931,-14.34 937.6,-8.56 934.83,-13.18 938.65,-12.01 938.65,-12.01 938.65,-12.01 934.83,-13.18 939.7,-15.45 931,-14.34 931,-14.34"/>
</a>
</g>
<text text-anchor="middle" x="1034.5" y="-89.86" font-family="Helvetica,sans-Serif" font-size="10.00" fill="grey"> calibrationMutex</text>
<text text-anchor="middle" x="1034.5" y="-78.86" font-family="Helvetica,sans-Serif" font-size="10.00" fill="grey">dataLoggerMutex</text>
<text text-anchor="middle" x="1034.5" y="-67.86" font-family="Helvetica,sans-Serif" font-size="10.00" fill="grey">deviceInfoMutex</text>
<text text-anchor="middle" x="1034.5" y="-56.86" font-family="Helvetica,sans-Serif" font-size="10.00" fill="grey">dsoMutex</text>
<text text-anchor="middle" x="1034.5" y="-45.86" font-family="Helvetica,sans-Serif" font-size="10.00" fill="grey">genericAccessMutex</text>
<text text-anchor="middle" x="1034.5" y="-34.86" font-family="Helvetica,sans-Serif" font-size="10.00" fill="grey">multimeterMutex</text>
<text text-anchor="middle" x="1034.5" y="-23.86" font-family="Helvetica,sans-Serif" font-size="10.00" fill="grey">statusMutex</text>
</g>
</g>
</svg>
