<?xml version="1.0" encoding="UTF-8" standalone="no"?>
<!DOCTYPE svg PUBLIC "-//W3C//DTD SVG 1.1//EN"
 "http://www.w3.org/Graphics/SVG/1.1/DTD/svg11.dtd">
<!-- Generated by graphviz version 2.43.0 (0)
 -->
<!-- Title: DsoCommand::serviceDetailsDiscovered Pages: 1 -->
<svg width="516pt" height="379pt"
 viewBox="0.00 0.00 516.00 379.00" xmlns="http://www.w3.org/2000/svg" xmlns:xlink="http://www.w3.org/1999/xlink">
<g id="graph0" class="graph" transform="scale(1 1) rotate(0) translate(4 375)">
<title>DsoCommand::serviceDetailsDiscovered</title>
<!-- Node1 -->
<g id="Node000001" class="node">
<title>Node1</title>
<g id="a_Node000001"><a xlink:title="Handles service detail discovery events.">
<polygon fill="#999999" stroke="#666666" points="161,-185.5 0,-185.5 0,-155.5 161,-155.5 161,-185.5"/>
<text text-anchor="start" x="8" y="-173.5" font-family="Helvetica,sans-Serif" font-size="10.00">DsoCommand::serviceDetails</text>
<text text-anchor="middle" x="80.5" y="-162.5" font-family="Helvetica,sans-Serif" font-size="10.00">Discovered</text>
</a>
</g>
</g>
<!-- Node2 -->
<g id="Node000002" class="node">
<title>Node2</title>
<g id="a_Node000002"><a xlink:href="classAbstractCommand.html#a535ad584b6ca6e77bdb68778f773e426" target="_top" xlink:title="Returns a human&#45;readable version of value, with up&#45;to precision decimal digits, and SI unit prefix wh...">
<polygon fill="white" stroke="#666666" points="364,-265.5 206,-265.5 206,-235.5 364,-235.5 364,-265.5"/>
<text text-anchor="start" x="214" y="-253.5" font-family="Helvetica,sans-Serif" font-size="10.00">AbstractCommand::appendSi</text>
<text text-anchor="middle" x="285" y="-242.5" font-family="Helvetica,sans-Serif" font-size="10.00">Prefix</text>
</a>
</g>
</g>
<!-- Node1&#45;&gt;Node2 -->
<g id="edge1_Node000001_Node000002" class="edge">
<title>Node1&#45;&gt;Node2</title>
<g id="a_edge1_Node000001_Node000002"><a xlink:title=" ">
<path fill="none" stroke="#63b8ff" d="M109.88,-185.63C132.92,-197.52 166.47,-213.93 197,-225.5 203.91,-228.12 211.21,-230.62 218.53,-232.95"/>
<polygon fill="#63b8ff" stroke="#63b8ff" points="226.47,-235.42 217.76,-236.48 222.65,-234.23 218.83,-233.04 218.83,-233.04 218.83,-233.04 222.65,-234.23 219.9,-229.6 226.47,-235.42 226.47,-235.42"/>
</a>
</g>
</g>
<!-- Node3 -->
<g id="Node000003" class="node">
<title>Node3</title>
<g id="a_Node000003"><a target="_parent" xlink:href="https://doc.qt.io/qt-5/qstring.html#arg-1" xlink:title=" ">
<polygon fill="white" stroke="#666666" points="495.5,-371 421.5,-371 421.5,-352 495.5,-352 495.5,-371"/>
<text text-anchor="middle" x="458.5" y="-359" font-family="Helvetica,sans-Serif" font-size="10.00">QString::arg</text>
</a>
</g>
</g>
<!-- Node1&#45;&gt;Node3 -->
<g id="edge10_Node000001_Node000003" class="edge">
<title>Node1&#45;&gt;Node3</title>
<g id="a_edge10_Node000001_Node000003"><a xlink:title=" ">
<path fill="none" stroke="#63b8ff" d="M89.3,-185.65C105.23,-214.95 144.48,-279.22 197,-310.5 264.79,-350.87 358.42,-360.06 413.01,-361.71"/>
<polygon fill="#63b8ff" stroke="#63b8ff" points="421.1,-361.91 413.01,-365.31 417.1,-361.81 413.1,-361.71 413.1,-361.71 413.1,-361.71 417.1,-361.81 413.19,-358.11 421.1,-361.91 421.1,-361.91"/>
</a>
</g>
</g>
<!-- Node5 -->
<g id="Node000005" class="node">
<title>Node5</title>
<g id="a_Node000005"><a target="_parent" xlink:href="https://doc.qt.io/qt-5/qstring.html#at" xlink:title=" ">
<polygon fill="white" stroke="#666666" points="492.5,-334 424.5,-334 424.5,-315 492.5,-315 492.5,-334"/>
<text text-anchor="middle" x="458.5" y="-322" font-family="Helvetica,sans-Serif" font-size="10.00">QString::at</text>
</a>
</g>
</g>
<!-- Node1&#45;&gt;Node5 -->
<g id="edge11_Node000001_Node000005" class="edge">
<title>Node1&#45;&gt;Node5</title>
<g id="a_edge11_Node000001_Node000005"><a xlink:title=" ">
<path fill="none" stroke="#63b8ff" d="M93.53,-185.68C112.76,-208.82 152.78,-252.52 197,-274.5 268.63,-310.11 362.99,-320.41 416.26,-323.36"/>
<polygon fill="#63b8ff" stroke="#63b8ff" points="424.44,-323.77 416.27,-326.97 420.45,-323.57 416.45,-323.37 416.45,-323.37 416.45,-323.37 420.45,-323.57 416.63,-319.78 424.44,-323.77 424.44,-323.77"/>
</a>
</g>
</g>
<!-- Node11 -->
<g id="Node000011" class="node">
<title>Node11</title>
<g id="a_Node000011"><a target="_parent" xlink:href="https://doc.qt.io/qt-5/qstring.html#fromLatin1" xlink:title=" ">
<polygon fill="white" stroke="#666666" points="341,-217 229,-217 229,-198 341,-198 341,-217"/>
<text text-anchor="middle" x="285" y="-205" font-family="Helvetica,sans-Serif" font-size="10.00">QString::fromLatin1</text>
</a>
</g>
</g>
<!-- Node1&#45;&gt;Node11 -->
<g id="edge12_Node000001_Node000011" class="edge">
<title>Node1&#45;&gt;Node11</title>
<g id="a_edge12_Node000001_Node000011"><a xlink:title=" ">
<path fill="none" stroke="#63b8ff" d="M161.24,-185.07C182.06,-188.87 204.15,-192.91 223.76,-196.49"/>
<polygon fill="#63b8ff" stroke="#63b8ff" points="231.72,-197.95 223.21,-200.05 227.79,-197.23 223.85,-196.51 223.85,-196.51 223.85,-196.51 227.79,-197.23 224.5,-192.97 231.72,-197.95 231.72,-197.95"/>
</a>
</g>
</g>
<!-- Node12 -->
<g id="Node000012" class="node">
<title>Node12</title>
<g id="a_Node000012"><a target="_parent" xlink:href="https://doc.qt.io/qt-5/qstring.html#isNull" xlink:title=" ">
<polygon fill="white" stroke="#666666" points="328,-180 242,-180 242,-161 328,-161 328,-180"/>
<text text-anchor="middle" x="285" y="-168" font-family="Helvetica,sans-Serif" font-size="10.00">QString::isNull</text>
</a>
</g>
</g>
<!-- Node1&#45;&gt;Node12 -->
<g id="edge13_Node000001_Node000012" class="edge">
<title>Node1&#45;&gt;Node12</title>
<g id="a_edge13_Node000001_Node000012"><a xlink:title=" ">
<path fill="none" stroke="#63b8ff" d="M161.24,-170.5C185.68,-170.5 211.87,-170.5 233.75,-170.5"/>
<polygon fill="#63b8ff" stroke="#63b8ff" points="241.92,-170.5 233.92,-174.1 237.92,-170.5 233.92,-170.5 233.92,-170.5 233.92,-170.5 237.92,-170.5 233.92,-166.9 241.92,-170.5 241.92,-170.5"/>
</a>
</g>
</g>
<!-- Node13 -->
<g id="Node000013" class="node">
<title>Node13</title>
<g id="a_Node000013"><a xlink:href="classDeviceCommand.html#a906fd97d832be0e8d2ba1c917fba41db" target="_top" xlink:title="Handles service detail discovery events.">
<polygon fill="white" stroke="#666666" points="373,-104.5 197,-104.5 197,-74.5 373,-74.5 373,-104.5"/>
<text text-anchor="start" x="205" y="-92.5" font-family="Helvetica,sans-Serif" font-size="10.00">DeviceCommand::serviceDetails</text>
<text text-anchor="middle" x="285" y="-81.5" font-family="Helvetica,sans-Serif" font-size="10.00">Discovered</text>
</a>
</g>
</g>
<!-- Node1&#45;&gt;Node13 -->
<g id="edge14_Node000001_Node000013" class="edge">
<title>Node1&#45;&gt;Node13</title>
<g id="a_edge14_Node000001_Node000013"><a xlink:title=" ">
<path fill="none" stroke="#63b8ff" d="M113,-155.28C136.01,-144.41 168.12,-129.78 197,-118.5 206.93,-114.62 217.61,-110.79 227.98,-107.24"/>
<polygon fill="#63b8ff" stroke="#63b8ff" points="235.82,-104.59 229.4,-110.56 232.03,-105.87 228.24,-107.15 228.24,-107.15 228.24,-107.15 232.03,-105.87 227.09,-103.74 235.82,-104.59 235.82,-104.59"/>
</a>
</g>
</g>
<!-- Node14 -->
<g id="Node000014" class="node">
<title>Node14</title>
<g id="a_Node000014"><a target="_parent" xlink:href="https://doc.qt.io/qt-5/qobject.html#tr" xlink:title=" ">
<polygon fill="white" stroke="#666666" points="493,-75 424,-75 424,-56 493,-56 493,-75"/>
<text text-anchor="middle" x="458.5" y="-63" font-family="Helvetica,sans-Serif" font-size="10.00">QObject::tr</text>
</a>
</g>
</g>
<!-- Node1&#45;&gt;Node14 -->
<g id="edge19_Node000001_Node000014" class="edge">
<title>Node1&#45;&gt;Node14</title>
<g id="a_edge19_Node000001_Node000014"><a xlink:title=" ">
<path fill="none" stroke="#63b8ff" d="M161.08,-157.03C240.69,-143.23 353.99,-122.54 373,-113.5 391.81,-104.55 390.98,-93.94 409,-83.5 412.32,-81.58 415.89,-79.79 419.52,-78.16"/>
<polygon fill="#63b8ff" stroke="#63b8ff" points="427.02,-75.01 421.04,-81.42 423.34,-76.55 419.65,-78.1 419.65,-78.1 419.65,-78.1 423.34,-76.55 418.25,-74.78 427.02,-75.01 427.02,-75.01"/>
</a>
</g>
</g>
<!-- Node15 -->
<g id="Node000015" class="node">
<title>Node15</title>
<g id="a_Node000015"><a target="_parent" xlink:href="https://doc.qt.io/qt-5/qstring.html#size" xlink:title=" ">
<polygon fill="white" stroke="#666666" points="324,-19 246,-19 246,0 324,0 324,-19"/>
<text text-anchor="middle" x="285" y="-7" font-family="Helvetica,sans-Serif" font-size="10.00">QString::size</text>
</a>
</g>
</g>
<!-- Node1&#45;&gt;Node15 -->
<g id="edge16_Node000001_Node000015" class="edge">
<title>Node1&#45;&gt;Node15</title>
<g id="a_edge16_Node000001_Node000015"><a xlink:title=" ">
<path fill="none" stroke="#63b8ff" d="M89.24,-155.07C105.07,-125.24 144.14,-59.74 197,-27.5 209.22,-20.05 224.01,-15.63 237.9,-13.03"/>
<polygon fill="#63b8ff" stroke="#63b8ff" points="245.95,-11.7 238.65,-16.56 242.01,-12.35 238.06,-13.01 238.06,-13.01 238.06,-13.01 242.01,-12.35 237.47,-9.45 245.95,-11.7 245.95,-11.7"/>
</a>
</g>
</g>
<!-- Node16 -->
<g id="Node000016" class="node">
<title>Node16</title>
<g id="a_Node000016"><a xlink:href="classDsoService.html#aad93348966ffb4b3e528b653b2cbb8d2" target="_top" xlink:title="Returns command as a user&#45;friendly string.">
<polygon fill="white" stroke="#666666" points="343,-56 227,-56 227,-37 343,-37 343,-56"/>
<text text-anchor="middle" x="285" y="-44" font-family="Helvetica,sans-Serif" font-size="10.00">DsoService::toString</text>
</a>
</g>
</g>
<!-- Node1&#45;&gt;Node16 -->
<g id="edge17_Node000001_Node000016" class="edge">
<title>Node1&#45;&gt;Node16</title>
<g id="a_edge17_Node000001_Node000016"><a xlink:title=" ">
<path fill="none" stroke="#63b8ff" d="M93.57,-155.3C112.85,-132.13 152.93,-88.24 197,-65.5 203.76,-62.01 211.14,-59.16 218.64,-56.84"/>
<polygon fill="#63b8ff" stroke="#63b8ff" points="226.81,-54.51 220.1,-60.16 222.96,-55.6 219.12,-56.7 219.12,-56.7 219.12,-56.7 222.96,-55.6 218.13,-53.24 226.81,-54.51 226.81,-54.51"/>
</a>
</g>
</g>
<!-- Node2&#45;&gt;Node3 -->
<g id="edge2_Node000002_Node000003" class="edge">
<title>Node2&#45;&gt;Node3</title>
<g id="a_edge2_Node000002_Node000003"><a xlink:title=" ">
<path fill="none" stroke="#63b8ff" d="M302.81,-265.78C325.52,-285.79 367.92,-320.98 409,-343.5 412.55,-345.45 416.36,-347.27 420.22,-348.94"/>
<polygon fill="#63b8ff" stroke="#63b8ff" points="427.65,-351.99 418.88,-352.29 423.95,-350.47 420.25,-348.96 420.25,-348.96 420.25,-348.96 423.95,-350.47 421.61,-345.62 427.65,-351.99 427.65,-351.99"/>
</a>
</g>
</g>
<!-- Node4 -->
<g id="Node000004" class="node">
<title>Node4</title>
<g id="a_Node000004"><a target="_parent" xlink:href="https://doc.qt.io/qt-5/qlist.html#at" xlink:title=" ">
<polygon fill="white" stroke="#666666" points="487,-186 430,-186 430,-167 487,-167 487,-186"/>
<text text-anchor="middle" x="458.5" y="-174" font-family="Helvetica,sans-Serif" font-size="10.00">QList::at</text>
</a>
</g>
</g>
<!-- Node2&#45;&gt;Node4 -->
<g id="edge3_Node000002_Node000004" class="edge">
<title>Node2&#45;&gt;Node4</title>
<g id="a_edge3_Node000002_Node000004"><a xlink:title=" ">
<path fill="none" stroke="#63b8ff" d="M350.45,-235.41C358.25,-232.59 365.95,-229.31 373,-225.5 391.58,-215.46 390.82,-205.23 409,-194.5 413.11,-192.07 417.61,-189.88 422.15,-187.92"/>
<polygon fill="#63b8ff" stroke="#63b8ff" points="429.78,-184.86 423.7,-191.18 426.07,-186.35 422.36,-187.84 422.36,-187.84 422.36,-187.84 426.07,-186.35 421.02,-184.5 429.78,-184.86 429.78,-184.86"/>
</a>
</g>
</g>
<!-- Node2&#45;&gt;Node5 -->
<g id="edge4_Node000002_Node000005" class="edge">
<title>Node2&#45;&gt;Node5</title>
<g id="a_edge4_Node000002_Node000005"><a xlink:title=" ">
<path fill="none" stroke="#63b8ff" d="M317.33,-265.52C342.02,-277.17 377.44,-293.48 409,-306.5 413.47,-308.34 418.2,-310.21 422.89,-312"/>
<polygon fill="#63b8ff" stroke="#63b8ff" points="430.68,-314.94 421.93,-315.49 426.94,-313.53 423.2,-312.12 423.2,-312.12 423.2,-312.12 426.94,-313.53 424.47,-308.75 430.68,-314.94 430.68,-314.94"/>
</a>
</g>
</g>
<!-- Node6 -->
<g id="Node000006" class="node">
<title>Node6</title>
<g id="a_Node000006"><a target="_parent" xlink:href="https://doc.qt.io/qt-5/qstring.html#indexOf-1" xlink:title=" ">
<polygon fill="white" stroke="#666666" points="507,-149 410,-149 410,-130 507,-130 507,-149"/>
<text text-anchor="middle" x="458.5" y="-137" font-family="Helvetica,sans-Serif" font-size="10.00">QString::indexOf</text>
</a>
</g>
</g>
<!-- Node2&#45;&gt;Node6 -->
<g id="edge5_Node000002_Node000006" class="edge">
<title>Node2&#45;&gt;Node6</title>
<g id="a_edge5_Node000002_Node000006"><a xlink:title=" ">
<path fill="none" stroke="#63b8ff" d="M357.3,-235.39C362.91,-232.63 368.24,-229.36 373,-225.5 399.55,-203.95 383.28,-180.04 409,-157.5 410.77,-155.95 412.69,-154.52 414.71,-153.22"/>
<polygon fill="#63b8ff" stroke="#63b8ff" points="421.87,-149.22 416.64,-156.26 418.38,-151.17 414.89,-153.12 414.89,-153.12 414.89,-153.12 418.38,-151.17 413.13,-149.97 421.87,-149.22 421.87,-149.22"/>
</a>
</g>
</g>
<!-- Node7 -->
<g id="Node000007" class="node">
<title>Node7</title>
<g id="a_Node000007"><a target="_parent" xlink:href="https://doc.qt.io/qt-5/qlist.html#length" xlink:title=" ">
<polygon fill="white" stroke="#666666" points="497.5,-112 419.5,-112 419.5,-93 497.5,-93 497.5,-112"/>
<text text-anchor="middle" x="458.5" y="-100" font-family="Helvetica,sans-Serif" font-size="10.00">QList::length</text>
</a>
</g>
</g>
<!-- Node2&#45;&gt;Node7 -->
<g id="edge6_Node000002_Node000007" class="edge">
<title>Node2&#45;&gt;Node7</title>
<g id="a_edge6_Node000002_Node000007"><a xlink:title=" ">
<path fill="none" stroke="#63b8ff" d="M359.24,-235.48C364.23,-232.69 368.9,-229.4 373,-225.5 408.75,-191.51 374.56,-155.82 409,-120.5 410.32,-119.14 411.76,-117.88 413.28,-116.72"/>
<polygon fill="#63b8ff" stroke="#63b8ff" points="420.4,-112.2 415.58,-119.53 417.02,-114.35 413.65,-116.49 413.65,-116.49 413.65,-116.49 417.02,-114.35 411.72,-113.45 420.4,-112.2 420.4,-112.2"/>
</a>
</g>
</g>
<!-- Node8 -->
<g id="Node000008" class="node">
<title>Node8</title>
<g id="a_Node000008"><a target="_parent" xlink:href="https://doc.qt.io/qt-5/qstring.html#length" xlink:title=" ">
<polygon fill="white" stroke="#666666" points="503,-297 414,-297 414,-278 503,-278 503,-297"/>
<text text-anchor="middle" x="458.5" y="-285" font-family="Helvetica,sans-Serif" font-size="10.00">QString::length</text>
</a>
</g>
</g>
<!-- Node2&#45;&gt;Node8 -->
<g id="edge7_Node000002_Node000008" class="edge">
<title>Node2&#45;&gt;Node8</title>
<g id="a_edge7_Node000002_Node000008"><a xlink:title=" ">
<path fill="none" stroke="#63b8ff" d="M355.76,-265.55C372.5,-269.16 390.08,-272.96 405.83,-276.35"/>
<polygon fill="#63b8ff" stroke="#63b8ff" points="413.89,-278.09 405.31,-279.92 409.98,-277.25 406.07,-276.4 406.07,-276.4 406.07,-276.4 409.98,-277.25 406.83,-272.89 413.89,-278.09 413.89,-278.09"/>
</a>
</g>
</g>
<!-- Node9 -->
<g id="Node000009" class="node">
<title>Node9</title>
<g id="a_Node000009"><a target="_parent" xlink:href="https://doc.qt.io/qt-5/qstring.html#number-1" xlink:title=" ">
<polygon fill="white" stroke="#666666" points="506.5,-260 410.5,-260 410.5,-241 506.5,-241 506.5,-260"/>
<text text-anchor="middle" x="458.5" y="-248" font-family="Helvetica,sans-Serif" font-size="10.00">QString::number</text>
</a>
</g>
</g>
<!-- Node2&#45;&gt;Node9 -->
<g id="edge8_Node000002_Node000009" class="edge">
<title>Node2&#45;&gt;Node9</title>
<g id="a_edge8_Node000002_Node000009"><a xlink:title=" ">
<path fill="none" stroke="#63b8ff" d="M364.22,-250.5C377,-250.5 390,-250.5 402.08,-250.5"/>
<polygon fill="#63b8ff" stroke="#63b8ff" points="410.28,-250.5 402.28,-254.1 406.28,-250.5 402.28,-250.5 402.28,-250.5 402.28,-250.5 406.28,-250.5 402.28,-246.9 410.28,-250.5 410.28,-250.5"/>
</a>
</g>
</g>
<!-- Node10 -->
<g id="Node000010" class="node">
<title>Node10</title>
<g id="a_Node000010"><a target="_parent" xlink:href="https://doc.qt.io/qt-5/qstring.html#truncate" xlink:title=" ">
<polygon fill="white" stroke="#666666" points="508,-223 409,-223 409,-204 508,-204 508,-223"/>
<text text-anchor="middle" x="458.5" y="-211" font-family="Helvetica,sans-Serif" font-size="10.00">QString::truncate</text>
</a>
</g>
</g>
<!-- Node2&#45;&gt;Node10 -->
<g id="edge9_Node000002_Node000010" class="edge">
<title>Node2&#45;&gt;Node10</title>
<g id="a_edge9_Node000002_Node000010"><a xlink:title=" ">
<path fill="none" stroke="#63b8ff" d="M355.76,-235.45C372.34,-231.87 389.75,-228.12 405.39,-224.74"/>
<polygon fill="#63b8ff" stroke="#63b8ff" points="413.39,-223.02 406.33,-228.22 409.48,-223.86 405.57,-224.7 405.57,-224.7 405.57,-224.7 409.48,-223.86 404.81,-221.18 413.39,-223.02 413.39,-223.02"/>
</a>
</g>
</g>
<!-- Node13&#45;&gt;Node14 -->
<g id="edge15_Node000013_Node000014" class="edge">
<title>Node13&#45;&gt;Node14</title>
<g id="a_edge15_Node000013_Node000014"><a xlink:title=" ">
<path fill="none" stroke="#63b8ff" d="M373.01,-77.32C387.83,-75.25 402.61,-73.18 415.56,-71.37"/>
<polygon fill="#63b8ff" stroke="#63b8ff" points="423.8,-70.22 416.37,-74.89 419.83,-70.77 415.87,-71.33 415.87,-71.33 415.87,-71.33 419.83,-70.77 415.37,-67.76 423.8,-70.22 423.8,-70.22"/>
</a>
</g>
</g>
<!-- Node16&#45;&gt;Node14 -->
<g id="edge18_Node000016_Node000014" class="edge">
<title>Node16&#45;&gt;Node14</title>
<g id="a_edge18_Node000016_Node000014"><a xlink:title=" ">
<path fill="none" stroke="#63b8ff" d="M343.11,-52.83C366.87,-55.46 393.94,-58.46 415.79,-60.88"/>
<polygon fill="#63b8ff" stroke="#63b8ff" points="423.88,-61.78 415.54,-64.47 419.91,-61.34 415.93,-60.89 415.93,-60.89 415.93,-60.89 419.91,-61.34 416.33,-57.32 423.88,-61.78 423.88,-61.78"/>
</a>
</g>
</g>
</g>
</svg>
