<?xml version="1.0" encoding="UTF-8" standalone="no"?>
<!DOCTYPE svg PUBLIC "-//W3C//DTD SVG 1.1//EN"
 "http://www.w3.org/Graphics/SVG/1.1/DTD/svg11.dtd">
<!-- Generated by graphviz version 2.43.0 (0)
 -->
<!-- Title: StatusServicePrivate::characteristicRead Pages: 1 -->
<svg width="889pt" height="745pt"
 viewBox="0.00 0.00 889.00 745.36" xmlns="http://www.w3.org/2000/svg" xmlns:xlink="http://www.w3.org/1999/xlink">
<g id="graph0" class="graph" transform="scale(1 1) rotate(0) translate(4 741.36)">
<title>StatusServicePrivate::characteristicRead</title>
<!-- Node1 -->
<g id="Node000001" class="node">
<title>Node1</title>
<g id="a_Node000001"><a xlink:title="Implements AbstractPokitServicePrivate::characteristicRead to parse value, then emit a specialised si...">
<polygon fill="#999999" stroke="#666666" points="118,-350.86 0,-350.86 0,-320.86 118,-320.86 118,-350.86"/>
<text text-anchor="start" x="8" y="-338.86" font-family="Helvetica,sans-Serif" font-size="10.00">StatusServicePrivate</text>
<text text-anchor="middle" x="59" y="-327.86" font-family="Helvetica,sans-Serif" font-size="10.00">::characteristicRead</text>
</a>
</g>
</g>
<!-- Node2 -->
<g id="Node000002" class="node">
<title>Node2</title>
<g id="a_Node000002"><a target="_parent" xlink:href="https://doc.qt.io/qt-5/qstring.html#arg-1" xlink:title=" ">
<polygon fill="white" stroke="#666666" points="845.5,-348.36 771.5,-348.36 771.5,-329.36 845.5,-329.36 845.5,-348.36"/>
<text text-anchor="middle" x="808.5" y="-336.36" font-family="Helvetica,sans-Serif" font-size="10.00">QString::arg</text>
</a>
</g>
</g>
<!-- Node1&#45;&gt;Node2 -->
<g id="edge1_Node000001_Node000002" class="edge">
<title>Node1&#45;&gt;Node2</title>
<g id="a_edge1_Node000001_Node000002"><a xlink:title=" ">
<path fill="none" stroke="#63b8ff" d="M65.41,-320.72C77.53,-288.28 109.34,-210.71 154,-157.86 223.37,-75.77 244.21,-45.35 346,-10.86 409.98,10.83 430.52,-7.69 498,-10.86 588.07,-15.08 629.03,25.78 700,-29.86 724.33,-48.93 785.05,-259.13 802.65,-321.51"/>
<polygon fill="#63b8ff" stroke="#63b8ff" points="804.84,-329.29 799.21,-322.56 803.76,-325.44 802.67,-321.59 802.67,-321.59 802.67,-321.59 803.76,-325.44 806.14,-320.62 804.84,-329.29 804.84,-329.29"/>
</a>
</g>
</g>
<!-- Node3 -->
<g id="Node000003" class="node">
<title>Node3</title>
<g id="a_Node000003"><a xlink:href="classAbstractPokitServicePrivate.html#a84bef330c6ff124f1e460bb8949d82da" target="_top" xlink:title="Handles QLowEnergyService::characteristicRead events.">
<polygon fill="white" stroke="#666666" points="308,-584.86 156,-584.86 156,-554.86 308,-554.86 308,-584.86"/>
<text text-anchor="start" x="164" y="-572.86" font-family="Helvetica,sans-Serif" font-size="10.00">AbstractPokitServicePrivate</text>
<text text-anchor="middle" x="232" y="-561.86" font-family="Helvetica,sans-Serif" font-size="10.00">::characteristicRead</text>
</a>
</g>
</g>
<!-- Node1&#45;&gt;Node3 -->
<g id="edge2_Node000001_Node000003" class="edge">
<title>Node1&#45;&gt;Node3</title>
<g id="a_edge2_Node000001_Node000003"><a xlink:title=" ">
<path fill="none" stroke="#63b8ff" d="M69.74,-351.17C86.36,-377.1 121.56,-431.09 154,-474.86 173.14,-500.68 196.57,-529.19 212.53,-548.17"/>
<polygon fill="#63b8ff" stroke="#63b8ff" points="218.05,-554.71 210.14,-550.92 215.47,-551.65 212.89,-548.6 212.89,-548.6 212.89,-548.6 215.47,-551.65 215.64,-546.28 218.05,-554.71 218.05,-554.71"/>
</a>
</g>
</g>
<!-- Node6 -->
<g id="Node000006" class="node">
<title>Node6</title>
<g id="a_Node000006"><a target="_parent" xlink:href="https://doc.qt.io/qt-5/qobject.html#tr" xlink:title=" ">
<polygon fill="white" stroke="#666666" points="651.5,-427.36 582.5,-427.36 582.5,-408.36 651.5,-408.36 651.5,-427.36"/>
<text text-anchor="middle" x="617" y="-415.36" font-family="Helvetica,sans-Serif" font-size="10.00">QObject::tr</text>
</a>
</g>
</g>
<!-- Node1&#45;&gt;Node6 -->
<g id="edge41_Node000001_Node000006" class="edge">
<title>Node1&#45;&gt;Node6</title>
<g id="a_edge41_Node000001_Node000006"><a xlink:title=" ">
<path fill="none" stroke="#63b8ff" d="M84.56,-350.9C102.98,-361.42 129.18,-374.8 154,-381.86 304.2,-424.54 492.2,-423.19 574.36,-420.05"/>
<polygon fill="#63b8ff" stroke="#63b8ff" points="582.44,-419.72 574.59,-423.64 578.44,-419.88 574.45,-420.04 574.45,-420.04 574.45,-420.04 578.44,-419.88 574.3,-416.45 582.44,-419.72 582.44,-419.72"/>
</a>
</g>
</g>
<!-- Node14 -->
<g id="Node000014" class="node">
<title>Node14</title>
<g id="a_Node000014"><a target="_parent" xlink:href="https://doc.qt.io/qt-5/qlowenergycharacteristic.html#uuid" xlink:title=" ">
<polygon fill="white" stroke="#666666" points="494.5,-477.86 349.5,-477.86 349.5,-447.86 494.5,-447.86 494.5,-477.86"/>
<text text-anchor="start" x="357.5" y="-465.86" font-family="Helvetica,sans-Serif" font-size="10.00">QLowEnergyCharacteristic</text>
<text text-anchor="middle" x="422" y="-454.86" font-family="Helvetica,sans-Serif" font-size="10.00">::uuid</text>
</a>
</g>
</g>
<!-- Node1&#45;&gt;Node14 -->
<g id="edge42_Node000001_Node000014" class="edge">
<title>Node1&#45;&gt;Node14</title>
<g id="a_edge42_Node000001_Node000014"><a xlink:title=" ">
<path fill="none" stroke="#63b8ff" d="M69.37,-350.94C84.23,-373.37 115.5,-414.91 154,-433.86 212.22,-462.5 286.04,-468.57 341.29,-468.15"/>
<polygon fill="#63b8ff" stroke="#63b8ff" points="349.31,-468.04 341.36,-471.75 345.31,-468.09 341.31,-468.15 341.31,-468.15 341.31,-468.15 345.31,-468.09 341.26,-464.55 349.31,-468.04 349.31,-468.04"/>
</a>
</g>
</g>
<!-- Node15 -->
<g id="Node000015" class="node">
<title>Node15</title>
<g id="a_Node000015"><a target="_parent" xlink:href="https://doc.qt.io/qt-5/qstring.html#fromUtf8" xlink:title=" ">
<polygon fill="white" stroke="#666666" points="283.5,-324.36 180.5,-324.36 180.5,-305.36 283.5,-305.36 283.5,-324.36"/>
<text text-anchor="middle" x="232" y="-312.36" font-family="Helvetica,sans-Serif" font-size="10.00">QString::fromUtf8</text>
</a>
</g>
</g>
<!-- Node1&#45;&gt;Node15 -->
<g id="edge18_Node000001_Node000015" class="edge">
<title>Node1&#45;&gt;Node15</title>
<g id="a_edge18_Node000001_Node000015"><a xlink:title=" ">
<path fill="none" stroke="#63b8ff" d="M118.37,-328.69C135.66,-326.56 154.61,-324.24 171.95,-322.11"/>
<polygon fill="#63b8ff" stroke="#63b8ff" points="180.32,-321.08 172.81,-325.63 176.35,-321.57 172.38,-322.06 172.38,-322.06 172.38,-322.06 176.35,-321.57 171.94,-318.48 180.32,-321.08 180.32,-321.08"/>
</a>
</g>
</g>
<!-- Node16 -->
<g id="Node000016" class="node">
<title>Node16</title>
<g id="a_Node000016"><a target="_parent" xlink:href="https://doc.qt.io/qt-5/qlowenergycharacteristic.html#name" xlink:title=" ">
<polygon fill="white" stroke="#666666" points="304.5,-286.86 159.5,-286.86 159.5,-256.86 304.5,-256.86 304.5,-286.86"/>
<text text-anchor="start" x="167.5" y="-274.86" font-family="Helvetica,sans-Serif" font-size="10.00">QLowEnergyCharacteristic</text>
<text text-anchor="middle" x="232" y="-263.86" font-family="Helvetica,sans-Serif" font-size="10.00">::name</text>
</a>
</g>
</g>
<!-- Node1&#45;&gt;Node16 -->
<g id="edge19_Node000001_Node000016" class="edge">
<title>Node1&#45;&gt;Node16</title>
<g id="a_edge19_Node000001_Node000016"><a xlink:title=" ">
<path fill="none" stroke="#63b8ff" d="M94.56,-320.75C112.21,-313.23 134.11,-304.2 154,-296.86 160.78,-294.35 167.94,-291.85 175.06,-289.44"/>
<polygon fill="#63b8ff" stroke="#63b8ff" points="182.74,-286.87 176.29,-292.82 178.95,-288.14 175.15,-289.41 175.15,-289.41 175.15,-289.41 178.95,-288.14 174.01,-286 182.74,-286.87 182.74,-286.87"/>
</a>
</g>
</g>
<!-- Node17 -->
<g id="Node000017" class="node">
<title>Node17</title>
<g id="a_Node000017"><a xlink:href="classStatusServicePrivate.html#a7bdbc14dbfe0a29bb0333c01890a6ced" target="_top" xlink:title="Parses the Device Characteristics value into a DeviceCharacteristics struct.">
<polygon fill="white" stroke="#666666" points="310,-372.86 154,-372.86 154,-342.86 310,-342.86 310,-372.86"/>
<text text-anchor="start" x="162" y="-360.86" font-family="Helvetica,sans-Serif" font-size="10.00">StatusServicePrivate</text>
<text text-anchor="middle" x="232" y="-349.86" font-family="Helvetica,sans-Serif" font-size="10.00">::parseDeviceCharacteristics</text>
</a>
</g>
</g>
<!-- Node1&#45;&gt;Node17 -->
<g id="edge20_Node000001_Node000017" class="edge">
<title>Node1&#45;&gt;Node17</title>
<g id="a_edge20_Node000001_Node000017"><a xlink:title=" ">
<path fill="none" stroke="#63b8ff" d="M118.37,-343.37C127.2,-344.5 136.46,-345.69 145.72,-346.88"/>
<polygon fill="#63b8ff" stroke="#63b8ff" points="153.84,-347.93 145.45,-350.48 149.88,-347.42 145.91,-346.91 145.91,-346.91 145.91,-346.91 149.88,-347.42 146.37,-343.34 153.84,-347.93 153.84,-347.93"/>
</a>
</g>
</g>
<!-- Node20 -->
<g id="Node000020" class="node">
<title>Node20</title>
<g id="a_Node000020"><a xlink:href="classStatusServicePrivate.html#a3a6ff8ca3e9d7c884b269e52dd43aeb0" target="_top" xlink:title="Parses the Status value into Statu struct.">
<polygon fill="white" stroke="#666666" points="291,-196.86 173,-196.86 173,-166.86 291,-166.86 291,-196.86"/>
<text text-anchor="start" x="181" y="-184.86" font-family="Helvetica,sans-Serif" font-size="10.00">StatusServicePrivate</text>
<text text-anchor="middle" x="232" y="-173.86" font-family="Helvetica,sans-Serif" font-size="10.00">::parseStatus</text>
</a>
</g>
</g>
<!-- Node1&#45;&gt;Node20 -->
<g id="edge29_Node000001_Node000020" class="edge">
<title>Node1&#45;&gt;Node20</title>
<g id="a_edge29_Node000001_Node000020"><a xlink:title=" ">
<path fill="none" stroke="#63b8ff" d="M75.77,-320.69C94.29,-302.98 126.03,-272.92 154,-247.86 171.33,-232.33 191.28,-215.25 206.53,-202.36"/>
<polygon fill="#63b8ff" stroke="#63b8ff" points="212.76,-197.1 208.97,-205.01 209.7,-199.68 206.64,-202.26 206.64,-202.26 206.64,-202.26 209.7,-199.68 204.32,-199.51 212.76,-197.1 212.76,-197.1"/>
</a>
</g>
</g>
<!-- Node3&#45;&gt;Node2 -->
<g id="edge3_Node000003_Node000002" class="edge">
<title>Node3&#45;&gt;Node2</title>
<g id="a_edge3_Node000003_Node000002"><a xlink:title=" ">
<path fill="none" stroke="#63b8ff" d="M308.38,-580.95C424.53,-596.33 640.12,-617.51 700,-572.86 744.98,-539.31 712.78,-502.93 736,-451.86 752.66,-415.21 779.55,-376.36 795.18,-355.11"/>
<polygon fill="#63b8ff" stroke="#63b8ff" points="800.01,-348.61 798.13,-357.18 797.62,-351.82 795.24,-355.03 795.24,-355.03 795.24,-355.03 797.62,-351.82 792.35,-352.88 800.01,-348.61 800.01,-348.61"/>
</a>
</g>
</g>
<!-- Node4 -->
<g id="Node000004" class="node">
<title>Node4</title>
<g id="a_Node000004"><a xlink:href="classPokitDevice.html#a0a3e6078ce0a7c2d93171ef0f4183d61" target="_top" xlink:title="Returns a human&#45;readable name for the uuid characteristic, or a null QString if unknown.">
<polygon fill="white" stroke="#666666" points="492.5,-563.86 351.5,-563.86 351.5,-533.86 492.5,-533.86 492.5,-563.86"/>
<text text-anchor="start" x="359.5" y="-551.86" font-family="Helvetica,sans-Serif" font-size="10.00">PokitDevice::charcteristic</text>
<text text-anchor="middle" x="422" y="-540.86" font-family="Helvetica,sans-Serif" font-size="10.00">ToString</text>
</a>
</g>
</g>
<!-- Node3&#45;&gt;Node4 -->
<g id="edge4_Node000003_Node000004" class="edge">
<title>Node3&#45;&gt;Node4</title>
<g id="a_edge4_Node000003_Node000004"><a xlink:title=" ">
<path fill="none" stroke="#63b8ff" d="M308.11,-561.47C319.75,-560.17 331.78,-558.82 343.47,-557.52"/>
<polygon fill="#63b8ff" stroke="#63b8ff" points="351.49,-556.62 343.94,-561.09 347.52,-557.06 343.54,-557.51 343.54,-557.51 343.54,-557.51 347.52,-557.06 343.14,-553.93 351.49,-556.62 351.49,-556.62"/>
</a>
</g>
</g>
<!-- Node3&#45;&gt;Node6 -->
<g id="edge16_Node000003_Node000006" class="edge">
<title>Node3&#45;&gt;Node6</title>
<g id="a_edge16_Node000003_Node000006"><a xlink:title=" ">
<path fill="none" stroke="#63b8ff" d="M267.18,-554.85C289.37,-545.46 319.07,-533.54 346,-524.86 412.27,-503.48 433.52,-513.14 498,-486.86 534.29,-472.06 572.86,-447.65 595.67,-432.17"/>
<polygon fill="#63b8ff" stroke="#63b8ff" points="602.5,-427.49 597.94,-434.98 599.2,-429.75 595.9,-432.01 595.9,-432.01 595.9,-432.01 599.2,-429.75 593.86,-429.05 602.5,-427.49 602.5,-427.49"/>
</a>
</g>
</g>
<!-- Node7 -->
<g id="Node000007" class="node">
<title>Node7</title>
<g id="a_Node000007"><a target="_parent" xlink:href="https://doc.qt.io/qt-5/qbytearray.html#size" xlink:title=" ">
<polygon fill="white" stroke="#666666" points="857.5,-479.36 759.5,-479.36 759.5,-460.36 857.5,-460.36 857.5,-479.36"/>
<text text-anchor="middle" x="808.5" y="-467.36" font-family="Helvetica,sans-Serif" font-size="10.00">QByteArray::size</text>
</a>
</g>
</g>
<!-- Node3&#45;&gt;Node7 -->
<g id="edge7_Node000003_Node000007" class="edge">
<title>Node3&#45;&gt;Node7</title>
<g id="a_edge7_Node000003_Node000007"><a xlink:title=" ">
<path fill="none" stroke="#63b8ff" d="M270.48,-584.9C352.95,-615.51 554.36,-676.38 700,-605.86 751.72,-580.81 786.09,-517.47 800.22,-486.89"/>
<polygon fill="#63b8ff" stroke="#63b8ff" points="803.52,-479.53 803.53,-488.3 801.89,-483.18 800.25,-486.83 800.25,-486.83 800.25,-486.83 801.89,-483.18 796.96,-485.36 803.52,-479.53 803.52,-479.53"/>
</a>
</g>
</g>
<!-- Node8 -->
<g id="Node000008" class="node">
<title>Node8</title>
<g id="a_Node000008"><a xlink:href="classAbstractPokitServicePrivate.html#af748600fc201fe47f29b58e8e93179d8" target="_top" xlink:title="Returns up to maxSize bytes of data as a human readable hexadecimal string.">
<polygon fill="white" stroke="#666666" points="693,-687.86 541,-687.86 541,-657.86 693,-657.86 693,-687.86"/>
<text text-anchor="start" x="549" y="-675.86" font-family="Helvetica,sans-Serif" font-size="10.00">AbstractPokitServicePrivate</text>
<text text-anchor="middle" x="617" y="-664.86" font-family="Helvetica,sans-Serif" font-size="10.00">::toHexString</text>
</a>
</g>
</g>
<!-- Node3&#45;&gt;Node8 -->
<g id="edge8_Node000003_Node000008" class="edge">
<title>Node3&#45;&gt;Node8</title>
<g id="a_edge8_Node000003_Node000008"><a xlink:title=" ">
<path fill="none" stroke="#63b8ff" d="M241.81,-585C258.29,-611.6 296.61,-665.89 346,-686.86 414.77,-716.05 502.41,-703.52 558.86,-689.88"/>
<polygon fill="#63b8ff" stroke="#63b8ff" points="566.95,-687.86 560.06,-693.29 563.07,-688.83 559.19,-689.79 559.19,-689.79 559.19,-689.79 563.07,-688.83 558.32,-686.3 566.95,-687.86 566.95,-687.86"/>
</a>
</g>
</g>
<!-- Node13 -->
<g id="Node000013" class="node">
<title>Node13</title>
<g id="a_Node000013"><a target="_parent" xlink:href="https://doc.qt.io/qt-5/quuid.html#toString" xlink:title=" ">
<polygon fill="white" stroke="#666666" points="467.5,-677.36 376.5,-677.36 376.5,-658.36 467.5,-658.36 467.5,-677.36"/>
<text text-anchor="middle" x="422" y="-665.36" font-family="Helvetica,sans-Serif" font-size="10.00">QUuid::toString</text>
</a>
</g>
</g>
<!-- Node3&#45;&gt;Node13 -->
<g id="edge15_Node000003_Node000013" class="edge">
<title>Node3&#45;&gt;Node13</title>
<g id="a_edge15_Node000003_Node000013"><a xlink:title=" ">
<path fill="none" stroke="#63b8ff" d="M252.44,-584.95C274.23,-601.28 311.07,-627.21 346,-643.86 355.64,-648.45 366.37,-652.47 376.64,-655.85"/>
<polygon fill="#63b8ff" stroke="#63b8ff" points="384.38,-658.3 375.66,-659.31 380.57,-657.09 376.75,-655.88 376.75,-655.88 376.75,-655.88 380.57,-657.09 377.84,-652.45 384.38,-658.3 384.38,-658.3"/>
</a>
</g>
</g>
<!-- Node3&#45;&gt;Node14 -->
<g id="edge17_Node000003_Node000014" class="edge">
<title>Node3&#45;&gt;Node14</title>
<g id="a_edge17_Node000003_Node000014"><a xlink:title=" ">
<path fill="none" stroke="#63b8ff" d="M252.11,-554.57C273.89,-537.66 311.02,-510.36 346,-491.86 353.31,-487.99 361.26,-484.36 369.15,-481.06"/>
<polygon fill="#63b8ff" stroke="#63b8ff" points="377,-477.88 370.94,-484.22 373.29,-479.38 369.59,-480.88 369.59,-480.88 369.59,-480.88 373.29,-479.38 368.23,-477.55 377,-477.88 377,-477.88"/>
</a>
</g>
</g>
<!-- Node5 -->
<g id="Node000005" class="node">
<title>Node5</title>
<g id="a_Node000005"><a target="_parent" xlink:href="https://doc.qt.io/qt-5/qbluetoothuuid.html#characteristicToString" xlink:title=" ">
<polygon fill="white" stroke="#666666" points="700,-563.86 534,-563.86 534,-533.86 700,-533.86 700,-563.86"/>
<text text-anchor="start" x="542" y="-551.86" font-family="Helvetica,sans-Serif" font-size="10.00">QBluetoothUuid::characteristic</text>
<text text-anchor="middle" x="617" y="-540.86" font-family="Helvetica,sans-Serif" font-size="10.00">ToString</text>
</a>
</g>
</g>
<!-- Node4&#45;&gt;Node5 -->
<g id="edge5_Node000004_Node000005" class="edge">
<title>Node4&#45;&gt;Node5</title>
<g id="a_edge5_Node000004_Node000005"><a xlink:title=" ">
<path fill="none" stroke="#63b8ff" d="M492.68,-548.86C503.45,-548.86 514.71,-548.86 525.85,-548.86"/>
<polygon fill="#63b8ff" stroke="#63b8ff" points="533.94,-548.86 525.94,-552.46 529.94,-548.86 525.94,-548.86 525.94,-548.86 525.94,-548.86 529.94,-548.86 525.94,-545.26 533.94,-548.86 533.94,-548.86"/>
</a>
</g>
</g>
<!-- Node4&#45;&gt;Node6 -->
<g id="edge6_Node000004_Node000006" class="edge">
<title>Node4&#45;&gt;Node6</title>
<g id="a_edge6_Node000004_Node000006"><a xlink:title=" ">
<path fill="none" stroke="#63b8ff" d="M469.39,-533.79C479.14,-529.84 489.14,-525.17 498,-519.86 539.41,-494.98 580.41,-455.25 601.46,-433.44"/>
<polygon fill="#63b8ff" stroke="#63b8ff" points="607.09,-427.53 604.17,-435.81 604.33,-430.43 601.57,-433.32 601.57,-433.32 601.57,-433.32 604.33,-430.43 598.96,-430.84 607.09,-427.53 607.09,-427.53"/>
</a>
</g>
</g>
<!-- Node8&#45;&gt;Node2 -->
<g id="edge9_Node000008_Node000002" class="edge">
<title>Node8&#45;&gt;Node2</title>
<g id="a_edge9_Node000008_Node000002"><a xlink:title=" ">
<path fill="none" stroke="#63b8ff" d="M644.47,-657.76C662.8,-645.94 686.28,-627.85 700,-605.86 737.2,-546.22 708.83,-516.68 736,-451.86 751.56,-414.73 778.85,-376.05 794.83,-354.96"/>
<polygon fill="#63b8ff" stroke="#63b8ff" points="799.79,-348.51 797.77,-357.05 797.35,-351.68 794.91,-354.85 794.91,-354.85 794.91,-354.85 797.35,-351.68 792.06,-352.66 799.79,-348.51 799.79,-348.51"/>
</a>
</g>
</g>
<!-- Node8&#45;&gt;Node7 -->
<g id="edge13_Node000008_Node000007" class="edge">
<title>Node8&#45;&gt;Node7</title>
<g id="a_edge13_Node000008_Node000007"><a xlink:title=" ">
<path fill="none" stroke="#63b8ff" d="M676.62,-657.7C684.97,-654 693.06,-649.45 700,-643.86 727.87,-621.38 778.54,-526.35 798.79,-487.01"/>
<polygon fill="#63b8ff" stroke="#63b8ff" points="802.63,-479.51 802.19,-488.27 800.81,-483.07 798.99,-486.63 798.99,-486.63 798.99,-486.63 800.81,-483.07 795.78,-484.99 802.63,-479.51 802.63,-479.51"/>
</a>
</g>
</g>
<!-- Node9 -->
<g id="Node000009" class="node">
<title>Node9</title>
<g id="a_Node000009"><a target="_parent" xlink:href="https://doc.qt.io/qt-5/qstring.html#fromLatin1" xlink:title=" ">
<polygon fill="white" stroke="#666666" points="864.5,-626.36 752.5,-626.36 752.5,-607.36 864.5,-607.36 864.5,-626.36"/>
<text text-anchor="middle" x="808.5" y="-614.36" font-family="Helvetica,sans-Serif" font-size="10.00">QString::fromLatin1</text>
</a>
</g>
</g>
<!-- Node8&#45;&gt;Node9 -->
<g id="edge10_Node000008_Node000009" class="edge">
<title>Node8&#45;&gt;Node9</title>
<g id="a_edge10_Node000008_Node000009"><a xlink:title=" ">
<path fill="none" stroke="#63b8ff" d="M664.37,-657.8C686.06,-650.89 712.28,-642.72 736,-635.86 744.5,-633.39 753.61,-630.88 762.37,-628.52"/>
<polygon fill="#63b8ff" stroke="#63b8ff" points="770.3,-626.41 763.5,-631.95 766.44,-627.44 762.57,-628.47 762.57,-628.47 762.57,-628.47 766.44,-627.44 761.65,-624.99 770.3,-626.41 770.3,-626.41"/>
</a>
</g>
</g>
<!-- Node10 -->
<g id="Node000010" class="node">
<title>Node10</title>
<g id="a_Node000010"><a target="_parent" xlink:href="https://doc.qt.io/qt-5/qbytearray.html#left" xlink:title=" ">
<polygon fill="white" stroke="#666666" points="855.5,-737.36 761.5,-737.36 761.5,-718.36 855.5,-718.36 855.5,-737.36"/>
<text text-anchor="middle" x="808.5" y="-725.36" font-family="Helvetica,sans-Serif" font-size="10.00">QByteArray::left</text>
</a>
</g>
</g>
<!-- Node8&#45;&gt;Node10 -->
<g id="edge11_Node000008_Node000010" class="edge">
<title>Node8&#45;&gt;Node10</title>
<g id="a_edge11_Node000008_Node000010"><a xlink:title=" ">
<path fill="none" stroke="#63b8ff" d="M663.77,-687.88C685.56,-694.86 712.03,-703.09 736,-709.86 743.76,-712.05 752.03,-714.25 760.09,-716.33"/>
<polygon fill="#63b8ff" stroke="#63b8ff" points="768.06,-718.36 759.41,-719.87 764.18,-717.37 760.3,-716.38 760.3,-716.38 760.3,-716.38 764.18,-717.37 761.19,-712.89 768.06,-718.36 768.06,-718.36"/>
</a>
</g>
</g>
<!-- Node11 -->
<g id="Node000011" class="node">
<title>Node11</title>
<g id="a_Node000011"><a target="_parent" xlink:href="https://doc.qt.io/qt-5/qbytearray.html#right" xlink:title=" ">
<polygon fill="white" stroke="#666666" points="859,-700.36 758,-700.36 758,-681.36 859,-681.36 859,-700.36"/>
<text text-anchor="middle" x="808.5" y="-688.36" font-family="Helvetica,sans-Serif" font-size="10.00">QByteArray::right</text>
</a>
</g>
</g>
<!-- Node8&#45;&gt;Node11 -->
<g id="edge12_Node000008_Node000011" class="edge">
<title>Node8&#45;&gt;Node11</title>
<g id="a_edge12_Node000008_Node000011"><a xlink:title=" ">
<path fill="none" stroke="#63b8ff" d="M693.17,-680C711.99,-681.78 731.88,-683.67 749.71,-685.37"/>
<polygon fill="#63b8ff" stroke="#63b8ff" points="757.74,-686.13 749.44,-688.96 753.76,-685.75 749.78,-685.37 749.78,-685.37 749.78,-685.37 753.76,-685.75 750.12,-681.79 757.74,-686.13 757.74,-686.13"/>
</a>
</g>
</g>
<!-- Node12 -->
<g id="Node000012" class="node">
<title>Node12</title>
<g id="a_Node000012"><a target="_parent" xlink:href="https://doc.qt.io/qt-5/qbytearray.html#toHex" xlink:title=" ">
<polygon fill="white" stroke="#666666" points="862,-663.36 755,-663.36 755,-644.36 862,-644.36 862,-663.36"/>
<text text-anchor="middle" x="808.5" y="-651.36" font-family="Helvetica,sans-Serif" font-size="10.00">QByteArray::toHex</text>
</a>
</g>
</g>
<!-- Node8&#45;&gt;Node12 -->
<g id="edge14_Node000008_Node000012" class="edge">
<title>Node8&#45;&gt;Node12</title>
<g id="a_edge14_Node000008_Node000012"><a xlink:title=" ">
<path fill="none" stroke="#63b8ff" d="M693.17,-665.32C710.93,-663.54 729.65,-661.66 746.68,-659.95"/>
<polygon fill="#63b8ff" stroke="#63b8ff" points="754.9,-659.13 747.3,-663.51 750.92,-659.53 746.94,-659.93 746.94,-659.93 746.94,-659.93 750.92,-659.53 746.58,-656.35 754.9,-659.13 754.9,-659.13"/>
</a>
</g>
</g>
<!-- Node17&#45;&gt;Node6 -->
<g id="edge28_Node000017_Node000006" class="edge">
<title>Node17&#45;&gt;Node6</title>
<g id="a_edge28_Node000017_Node000006"><a xlink:title=" ">
<path fill="none" stroke="#63b8ff" d="M310.05,-369.93C389.49,-382.37 510.43,-401.32 573.85,-411.25"/>
<polygon fill="#63b8ff" stroke="#63b8ff" points="582.03,-412.53 573.57,-414.85 578.08,-411.91 574.13,-411.3 574.13,-411.3 574.13,-411.3 578.08,-411.91 574.68,-407.74 582.03,-412.53 582.03,-412.53"/>
</a>
</g>
</g>
<!-- Node18 -->
<g id="Node000018" class="node">
<title>Node18</title>
<g id="a_Node000018"><a xlink:href="classAbstractPokitServicePrivate.html#af8b480a950244540bfff7fc4b476a0ef" target="_top" xlink:title="Returns false if data is smaller than minSize, otherwise returns failOnMax if data is bigger than max...">
<polygon fill="white" stroke="#666666" points="498,-353.86 346,-353.86 346,-323.86 498,-323.86 498,-353.86"/>
<text text-anchor="start" x="354" y="-341.86" font-family="Helvetica,sans-Serif" font-size="10.00">AbstractPokitServicePrivate</text>
<text text-anchor="middle" x="422" y="-330.86" font-family="Helvetica,sans-Serif" font-size="10.00">::checkSize</text>
</a>
</g>
</g>
<!-- Node17&#45;&gt;Node18 -->
<g id="edge21_Node000017_Node000018" class="edge">
<title>Node17&#45;&gt;Node18</title>
<g id="a_edge21_Node000017_Node000018"><a xlink:title=" ">
<path fill="none" stroke="#63b8ff" d="M310.01,-350.07C319.19,-349.15 328.59,-348.2 337.84,-347.26"/>
<polygon fill="#63b8ff" stroke="#63b8ff" points="345.93,-346.44 338.33,-350.83 341.95,-346.84 337.97,-347.25 337.97,-347.25 337.97,-347.25 341.95,-346.84 337.61,-343.66 345.93,-346.44 345.93,-346.44"/>
</a>
</g>
</g>
<!-- Node19 -->
<g id="Node000019" class="node">
<title>Node19</title>
<g id="a_Node000019"><a target="_parent" xlink:href="https://doc.qt.io/qt-5/qbytearray.html#mid" xlink:title=" ">
<polygon fill="white" stroke="#666666" points="665.5,-305.36 568.5,-305.36 568.5,-286.36 665.5,-286.36 665.5,-305.36"/>
<text text-anchor="middle" x="617" y="-293.36" font-family="Helvetica,sans-Serif" font-size="10.00">QByteArray::mid</text>
</a>
</g>
</g>
<!-- Node17&#45;&gt;Node19 -->
<g id="edge27_Node000017_Node000019" class="edge">
<title>Node17&#45;&gt;Node19</title>
<g id="a_edge27_Node000017_Node000019"><a xlink:title=" ">
<path fill="none" stroke="#63b8ff" d="M286.06,-342.72C294.17,-340.01 302.37,-337.03 310,-333.86 326.71,-326.91 328.6,-319.82 346,-314.86 417.78,-294.38 504.43,-292 559.87,-293.14"/>
<polygon fill="#63b8ff" stroke="#63b8ff" points="568.15,-293.34 560.07,-296.74 564.15,-293.24 560.15,-293.15 560.15,-293.15 560.15,-293.15 564.15,-293.24 560.24,-289.55 568.15,-293.34 568.15,-293.34"/>
</a>
</g>
</g>
<!-- Node18&#45;&gt;Node2 -->
<g id="edge22_Node000018_Node000002" class="edge">
<title>Node18&#45;&gt;Node2</title>
<g id="a_edge22_Node000018_Node000002"><a xlink:title=" ">
<path fill="none" stroke="#63b8ff" d="M498.05,-338.86C576.9,-338.86 698.29,-338.86 763.11,-338.86"/>
<polygon fill="#63b8ff" stroke="#63b8ff" points="771.49,-338.86 763.49,-342.46 767.49,-338.86 763.49,-338.86 763.49,-338.86 763.49,-338.86 767.49,-338.86 763.49,-335.26 771.49,-338.86 771.49,-338.86"/>
</a>
</g>
</g>
<!-- Node18&#45;&gt;Node6 -->
<g id="edge26_Node000018_Node000006" class="edge">
<title>Node18&#45;&gt;Node6</title>
<g id="a_edge26_Node000018_Node000006"><a xlink:title=" ">
<path fill="none" stroke="#63b8ff" d="M467.01,-353.86C477.39,-357.94 488.26,-362.68 498,-367.86 515.21,-376.99 516.47,-384.36 534,-392.86 546.64,-398.99 561.11,-403.99 574.34,-407.87"/>
<polygon fill="#63b8ff" stroke="#63b8ff" points="582.39,-410.15 573.72,-411.44 578.54,-409.06 574.69,-407.97 574.69,-407.97 574.69,-407.97 578.54,-409.06 575.67,-404.51 582.39,-410.15 582.39,-410.15"/>
</a>
</g>
</g>
<!-- Node18&#45;&gt;Node7 -->
<g id="edge24_Node000018_Node000007" class="edge">
<title>Node18&#45;&gt;Node7</title>
<g id="a_edge24_Node000018_Node000007"><a xlink:title=" ">
<path fill="none" stroke="#63b8ff" d="M498.12,-347.92C555.13,-356.57 634.6,-372.44 700,-399.86 733.95,-414.09 768.88,-439.13 789.37,-455.08"/>
<polygon fill="#63b8ff" stroke="#63b8ff" points="795.74,-460.12 787.23,-457.98 792.6,-457.64 789.46,-455.16 789.46,-455.16 789.46,-455.16 792.6,-457.64 791.7,-452.33 795.74,-460.12 795.74,-460.12"/>
</a>
</g>
</g>
<!-- Node18&#45;&gt;Node8 -->
<g id="edge25_Node000018_Node000008" class="edge">
<title>Node18&#45;&gt;Node8</title>
<g id="a_edge25_Node000018_Node000008"><a xlink:title=" ">
<path fill="none" stroke="#63b8ff" d="M437.24,-353.9C454.08,-372.47 481.85,-405.68 498,-438.86 524.99,-494.3 505.82,-518.01 534,-572.86 549.58,-603.18 575.52,-632.71 594.06,-651.72"/>
<polygon fill="#63b8ff" stroke="#63b8ff" points="600.03,-657.75 591.85,-654.6 597.22,-654.91 594.4,-652.07 594.4,-652.07 594.4,-652.07 597.22,-654.91 596.96,-649.53 600.03,-657.75 600.03,-657.75"/>
</a>
</g>
</g>
<!-- Node18&#45;&gt;Node19 -->
<g id="edge23_Node000018_Node000019" class="edge">
<title>Node18&#45;&gt;Node19</title>
<g id="a_edge23_Node000018_Node000019"><a xlink:title=" ">
<path fill="none" stroke="#63b8ff" d="M490.5,-323.82C515.1,-318.34 542.48,-312.24 565.36,-307.14"/>
<polygon fill="#63b8ff" stroke="#63b8ff" points="573.26,-305.38 566.23,-310.63 569.36,-306.25 565.45,-307.12 565.45,-307.12 565.45,-307.12 569.36,-306.25 564.67,-303.6 573.26,-305.38 573.26,-305.38"/>
</a>
</g>
</g>
<!-- Node20&#45;&gt;Node2 -->
<g id="edge30_Node000020_Node000002" class="edge">
<title>Node20&#45;&gt;Node2</title>
<g id="a_edge30_Node000020_Node000002"><a xlink:title=" ">
<path fill="none" stroke="#63b8ff" d="M255.15,-166.72C277.1,-152.72 312.23,-132.89 346,-124.86 500.19,-88.17 570.06,-77.11 700,-167.86 756.19,-207.1 789.24,-286.08 801.73,-321.26"/>
<polygon fill="#63b8ff" stroke="#63b8ff" points="804.47,-329.21 798.46,-322.82 803.16,-325.43 801.86,-321.65 801.86,-321.65 801.86,-321.65 803.16,-325.43 805.27,-320.47 804.47,-329.21 804.47,-329.21"/>
</a>
</g>
</g>
<!-- Node20&#45;&gt;Node6 -->
<g id="edge40_Node000020_Node000006" class="edge">
<title>Node20&#45;&gt;Node6</title>
<g id="a_edge40_Node000020_Node000006"><a xlink:title=" ">
<path fill="none" stroke="#63b8ff" d="M262.73,-196.89C285.51,-208.4 317.72,-224.66 346,-238.86 413.5,-272.75 435.27,-272.79 498,-314.86 538.09,-341.73 579.31,-380.85 600.82,-402.32"/>
<polygon fill="#63b8ff" stroke="#63b8ff" points="606.6,-408.13 598.4,-404.99 603.78,-405.29 600.96,-402.45 600.96,-402.45 600.96,-402.45 603.78,-405.29 603.51,-399.92 606.6,-408.13 606.6,-408.13"/>
</a>
</g>
</g>
<!-- Node20&#45;&gt;Node7 -->
<g id="edge34_Node000020_Node000007" class="edge">
<title>Node20&#45;&gt;Node7</title>
<g id="a_edge34_Node000020_Node000007"><a xlink:title=" ">
<path fill="none" stroke="#63b8ff" d="M291.16,-175.93C389.06,-169.38 587.09,-171.38 700,-277.86 728.37,-304.6 717.46,-323.56 736,-357.86 755.04,-393.07 781.12,-432.01 795.95,-453.44"/>
<polygon fill="#63b8ff" stroke="#63b8ff" points="800.69,-460.26 793.17,-455.75 798.41,-456.97 796.12,-453.69 796.12,-453.69 796.12,-453.69 798.41,-456.97 799.08,-451.64 800.69,-460.26 800.69,-460.26"/>
</a>
</g>
</g>
<!-- Node20&#45;&gt;Node18 -->
<g id="edge32_Node000020_Node000018" class="edge">
<title>Node20&#45;&gt;Node18</title>
<g id="a_edge32_Node000020_Node000018"><a xlink:title=" ">
<path fill="none" stroke="#63b8ff" d="M251.03,-196.91C285,-225.28 358.5,-286.66 396.76,-318.61"/>
<polygon fill="#63b8ff" stroke="#63b8ff" points="403.03,-323.85 394.58,-321.48 399.96,-321.28 396.89,-318.72 396.89,-318.72 396.89,-318.72 399.96,-321.28 399.2,-315.96 403.03,-323.85 403.03,-323.85"/>
</a>
</g>
</g>
<!-- Node20&#45;&gt;Node19 -->
<g id="edge33_Node000020_Node000019" class="edge">
<title>Node20&#45;&gt;Node19</title>
<g id="a_edge33_Node000020_Node000019"><a xlink:title=" ">
<path fill="none" stroke="#63b8ff" d="M291.24,-192.25C345.51,-202.7 428.31,-220.57 498,-243.86 530.57,-254.74 566.48,-271.25 590.03,-282.74"/>
<polygon fill="#63b8ff" stroke="#63b8ff" points="597.22,-286.28 588.45,-285.97 593.63,-284.51 590.04,-282.74 590.04,-282.74 590.04,-282.74 593.63,-284.51 591.63,-279.51 597.22,-286.28 597.22,-286.28"/>
</a>
</g>
</g>
<!-- Node21 -->
<g id="Node000021" class="node">
<title>Node21</title>
<g id="a_Node000021"><a target="_parent" xlink:href="https://doc.qt.io/qt-5/qbytearray.html#at" xlink:title=" ">
<polygon fill="white" stroke="#666666" points="466,-153.36 378,-153.36 378,-134.36 466,-134.36 466,-153.36"/>
<text text-anchor="middle" x="422" y="-141.36" font-family="Helvetica,sans-Serif" font-size="10.00">QByteArray::at</text>
</a>
</g>
</g>
<!-- Node20&#45;&gt;Node21 -->
<g id="edge31_Node000020_Node000021" class="edge">
<title>Node20&#45;&gt;Node21</title>
<g id="a_edge31_Node000020_Node000021"><a xlink:title=" ">
<path fill="none" stroke="#63b8ff" d="M291.2,-170.09C316.39,-165 345.61,-159.09 369.94,-154.18"/>
<polygon fill="#63b8ff" stroke="#63b8ff" points="378,-152.55 370.87,-157.66 374.08,-153.34 370.15,-154.13 370.15,-154.13 370.15,-154.13 374.08,-153.34 369.44,-150.6 378,-152.55 378,-152.55"/>
</a>
</g>
</g>
<!-- Node22 -->
<g id="Node000022" class="node">
<title>Node22</title>
<g id="a_Node000022"><a xlink:href="classStatusService.html#aac79e97cb114be25b2a6771d915f132d" target="_top" xlink:title="Returns a string version of the status enum label.">
<polygon fill="white" stroke="#666666" points="486,-39.36 358,-39.36 358,-20.36 486,-20.36 486,-39.36"/>
<text text-anchor="middle" x="422" y="-27.36" font-family="Helvetica,sans-Serif" font-size="10.00">StatusService::toString</text>
</a>
</g>
</g>
<!-- Node20&#45;&gt;Node22 -->
<g id="edge35_Node000020_Node000022" class="edge">
<title>Node20&#45;&gt;Node22</title>
<g id="a_edge35_Node000020_Node000022"><a xlink:title=" ">
<path fill="none" stroke="#63b8ff" d="M242.53,-166.44C259.86,-139.66 299.1,-84.49 346,-53.86 353.27,-49.1 361.56,-45.23 369.9,-42.1"/>
<polygon fill="#63b8ff" stroke="#63b8ff" points="377.55,-39.42 371.19,-45.46 373.78,-40.74 370,-42.06 370,-42.06 370,-42.06 373.78,-40.74 368.81,-38.66 377.55,-39.42 377.55,-39.42"/>
</a>
</g>
</g>
<!-- Node23 -->
<g id="Node000023" class="node">
<title>Node23</title>
<g id="a_Node000023"><a xlink:href="classStatusService.html#ae7be4aae021ae50faef48ed2812eb6a7" target="_top" xlink:title="Returns the most recent value of the Status service&#39;s Status characteristic.">
<polygon fill="white" stroke="#666666" points="676.5,-58.36 557.5,-58.36 557.5,-39.36 676.5,-39.36 676.5,-58.36"/>
<text text-anchor="middle" x="617" y="-46.36" font-family="Helvetica,sans-Serif" font-size="10.00">StatusService::status</text>
</a>
</g>
</g>
<!-- Node22&#45;&gt;Node23 -->
<g id="edge36_Node000022_Node000023" class="edge">
<title>Node22&#45;&gt;Node23</title>
<g id="a_edge36_Node000022_Node000023"><a xlink:title=" ">
<path fill="none" stroke="#63b8ff" d="M486.2,-36.08C506.38,-38.06 528.79,-40.27 549.22,-42.28"/>
<polygon fill="#63b8ff" stroke="#63b8ff" points="557.24,-43.07 548.93,-45.87 553.26,-42.68 549.28,-42.29 549.28,-42.29 549.28,-42.29 553.26,-42.68 549.63,-38.7 557.24,-43.07 557.24,-43.07"/>
</a>
</g>
</g>
<!-- Node23&#45;&gt;Node20 -->
<g id="edge38_Node000023_Node000020" class="edge">
<title>Node23&#45;&gt;Node20</title>
<g id="a_edge38_Node000023_Node000020"><a xlink:title=" ">
<path fill="none" stroke="#63b8ff" d="M557.49,-49.65C501.11,-52.34 414.51,-61.65 346,-91.86 309.03,-108.16 273.84,-139.58 252.83,-160.64"/>
<polygon fill="#63b8ff" stroke="#63b8ff" points="247.04,-166.55 250.07,-158.32 249.84,-163.69 252.64,-160.84 252.64,-160.84 252.64,-160.84 249.84,-163.69 255.21,-163.36 247.04,-166.55 247.04,-166.55"/>
</a>
</g>
</g>
<!-- Node24 -->
<g id="Node000024" class="node">
<title>Node24</title>
<g id="a_Node000024"><a target="_parent" xlink:href="https://doc.qt.io/qt-5/qlowenergycharacteristic.html#isValid" xlink:title=" ">
<polygon fill="white" stroke="#666666" points="881,-87.86 736,-87.86 736,-57.86 881,-57.86 881,-87.86"/>
<text text-anchor="start" x="744" y="-75.86" font-family="Helvetica,sans-Serif" font-size="10.00">QLowEnergyCharacteristic</text>
<text text-anchor="middle" x="808.5" y="-64.86" font-family="Helvetica,sans-Serif" font-size="10.00">::isValid</text>
</a>
</g>
</g>
<!-- Node23&#45;&gt;Node24 -->
<g id="edge37_Node000023_Node000024" class="edge">
<title>Node23&#45;&gt;Node24</title>
<g id="a_edge37_Node000023_Node000024"><a xlink:title=" ">
<path fill="none" stroke="#63b8ff" d="M676.66,-56.28C692.73,-58.32 710.42,-60.56 727.47,-62.72"/>
<polygon fill="#63b8ff" stroke="#63b8ff" points="735.77,-63.77 727.38,-66.34 731.8,-63.27 727.84,-62.77 727.84,-62.77 727.84,-62.77 731.8,-63.27 728.29,-59.19 735.77,-63.77 735.77,-63.77"/>
</a>
</g>
</g>
<!-- Node25 -->
<g id="Node000025" class="node">
<title>Node25</title>
<g id="a_Node000025"><a target="_parent" xlink:href="https://doc.qt.io/qt-5/qlowenergycharacteristic.html#value" xlink:title=" ">
<polygon fill="white" stroke="#666666" points="881,-39.86 736,-39.86 736,-9.86 881,-9.86 881,-39.86"/>
<text text-anchor="start" x="744" y="-27.86" font-family="Helvetica,sans-Serif" font-size="10.00">QLowEnergyCharacteristic</text>
<text text-anchor="middle" x="808.5" y="-16.86" font-family="Helvetica,sans-Serif" font-size="10.00">::value</text>
</a>
</g>
</g>
<!-- Node23&#45;&gt;Node25 -->
<g id="edge39_Node000023_Node000025" class="edge">
<title>Node23&#45;&gt;Node25</title>
<g id="a_edge39_Node000023_Node000025"><a xlink:title=" ">
<path fill="none" stroke="#63b8ff" d="M676.66,-41.43C692.73,-39.39 710.42,-37.15 727.47,-34.99"/>
<polygon fill="#63b8ff" stroke="#63b8ff" points="735.77,-33.94 728.29,-38.52 731.8,-34.44 727.84,-34.95 727.84,-34.95 727.84,-34.95 731.8,-34.44 727.38,-31.37 735.77,-33.94 735.77,-33.94"/>
</a>
</g>
</g>
</g>
</svg>
