<?xml version="1.0" encoding="UTF-8" standalone="no"?>
<!DOCTYPE svg PUBLIC "-//W3C//DTD SVG 1.1//EN"
 "http://www.w3.org/Graphics/SVG/1.1/DTD/svg11.dtd">
<!-- Generated by graphviz version 2.43.0 (0)
 -->
<!-- Title: StatusService::status Pages: 1 -->
<svg width="832pt" height="299pt"
 viewBox="0.00 0.00 832.00 299.49" xmlns="http://www.w3.org/2000/svg" xmlns:xlink="http://www.w3.org/1999/xlink">
<g id="graph0" class="graph" transform="scale(1 1) rotate(0) translate(4 295.49)">
<title>StatusService::status</title>
<!-- Node1 -->
<g id="Node000001" class="node">
<title>Node1</title>
<g id="a_Node000001"><a xlink:title="Returns the most recent value of the Status service&#39;s Status characteristic.">
<polygon fill="#999999" stroke="#666666" points="119,-107 0,-107 0,-88 119,-88 119,-107"/>
<text text-anchor="middle" x="59.5" y="-95" font-family="Helvetica,sans-Serif" font-size="10.00">StatusService::status</text>
</a>
</g>
</g>
<!-- Node2 -->
<g id="Node000002" class="node">
<title>Node2</title>
<g id="a_Node000002"><a target="_parent" xlink:href="https://doc.qt.io/qt-5/qlowenergycharacteristic.html#isValid" xlink:title=" ">
<polygon fill="white" stroke="#666666" points="300,-184.5 155,-184.5 155,-154.5 300,-154.5 300,-184.5"/>
<text text-anchor="start" x="163" y="-172.5" font-family="Helvetica,sans-Serif" font-size="10.00">QLowEnergyCharacteristic</text>
<text text-anchor="middle" x="227.5" y="-161.5" font-family="Helvetica,sans-Serif" font-size="10.00">::isValid</text>
</a>
</g>
</g>
<!-- Node1&#45;&gt;Node2 -->
<g id="edge1_Node000001_Node000002" class="edge">
<title>Node1&#45;&gt;Node2</title>
<g id="a_edge1_Node000001_Node000002"><a xlink:title=" ">
<path fill="none" stroke="#63b8ff" d="M77.56,-107.12C96.21,-117.42 127.17,-133.83 155,-145.5 160.03,-147.61 165.32,-149.67 170.64,-151.63"/>
<polygon fill="#63b8ff" stroke="#63b8ff" points="178.45,-154.45 169.7,-155.12 174.69,-153.09 170.92,-151.74 170.92,-151.74 170.92,-151.74 174.69,-153.09 172.14,-148.35 178.45,-154.45 178.45,-154.45"/>
</a>
</g>
</g>
<!-- Node3 -->
<g id="Node000003" class="node">
<title>Node3</title>
<g id="a_Node000003"><a xlink:href="classStatusServicePrivate.html#a3a6ff8ca3e9d7c884b269e52dd43aeb0" target="_top" xlink:title="Parses the Status value into a Status struct.">
<polygon fill="white" stroke="#666666" points="286.5,-136.5 168.5,-136.5 168.5,-106.5 286.5,-106.5 286.5,-136.5"/>
<text text-anchor="start" x="176.5" y="-124.5" font-family="Helvetica,sans-Serif" font-size="10.00">StatusServicePrivate</text>
<text text-anchor="middle" x="227.5" y="-113.5" font-family="Helvetica,sans-Serif" font-size="10.00">::parseStatus</text>
</a>
</g>
</g>
<!-- Node1&#45;&gt;Node3 -->
<g id="edge2_Node000001_Node000003" class="edge">
<title>Node1&#45;&gt;Node3</title>
<g id="a_edge2_Node000001_Node000003"><a xlink:title=" ">
<path fill="none" stroke="#63b8ff" d="M119.03,-105.96C132.37,-107.89 146.64,-109.95 160.28,-111.93"/>
<polygon fill="#63b8ff" stroke="#63b8ff" points="168.22,-113.07 159.79,-115.49 164.26,-112.5 160.31,-111.93 160.31,-111.93 160.31,-111.93 164.26,-112.5 160.82,-108.37 168.22,-113.07 168.22,-113.07"/>
</a>
</g>
</g>
<!-- Node16 -->
<g id="Node000016" class="node">
<title>Node16</title>
<g id="a_Node000016"><a target="_parent" xlink:href="https://doc.qt.io/qt-5/qlowenergycharacteristic.html#value" xlink:title=" ">
<polygon fill="white" stroke="#666666" points="300,-88.5 155,-88.5 155,-58.5 300,-58.5 300,-88.5"/>
<text text-anchor="start" x="163" y="-76.5" font-family="Helvetica,sans-Serif" font-size="10.00">QLowEnergyCharacteristic</text>
<text text-anchor="middle" x="227.5" y="-65.5" font-family="Helvetica,sans-Serif" font-size="10.00">::value</text>
</a>
</g>
</g>
<!-- Node1&#45;&gt;Node16 -->
<g id="edge22_Node000001_Node000016" class="edge">
<title>Node1&#45;&gt;Node16</title>
<g id="a_edge22_Node000001_Node000016"><a xlink:title=" ">
<path fill="none" stroke="#63b8ff" d="M119.03,-89.04C127.98,-87.74 137.35,-86.39 146.66,-85.04"/>
<polygon fill="#63b8ff" stroke="#63b8ff" points="154.83,-83.86 147.42,-88.57 150.87,-84.44 146.91,-85.01 146.91,-85.01 146.91,-85.01 150.87,-84.44 146.39,-81.44 154.83,-83.86 154.83,-83.86"/>
</a>
</g>
</g>
<!-- Node4 -->
<g id="Node000004" class="node">
<title>Node4</title>
<g id="a_Node000004"><a target="_parent" xlink:href="https://doc.qt.io/qt-5/qstring.html#arg-1" xlink:title=" ">
<polygon fill="white" stroke="#666666" points="805,-268 731,-268 731,-249 805,-249 805,-268"/>
<text text-anchor="middle" x="768" y="-256" font-family="Helvetica,sans-Serif" font-size="10.00">QString::arg</text>
</a>
</g>
</g>
<!-- Node3&#45;&gt;Node4 -->
<g id="edge3_Node000003_Node000004" class="edge">
<title>Node3&#45;&gt;Node4</title>
<g id="a_edge3_Node000003_Node000004"><a xlink:title=" ">
<path fill="none" stroke="#63b8ff" d="M286.72,-136.17C291.52,-138.79 296.05,-141.87 300,-145.5 329.62,-172.69 304.75,-203.2 336,-228.5 449.66,-320.51 640.17,-289.78 724.56,-269.89"/>
<polygon fill="#63b8ff" stroke="#63b8ff" points="732.39,-268 725.46,-273.38 728.5,-268.94 724.61,-269.88 724.61,-269.88 724.61,-269.88 728.5,-268.94 723.77,-266.38 732.39,-268 732.39,-268"/>
</a>
</g>
</g>
<!-- Node5 -->
<g id="Node000005" class="node">
<title>Node5</title>
<g id="a_Node000005"><a target="_parent" xlink:href="https://doc.qt.io/qt-5/qbytearray.html#at" xlink:title=" ">
<polygon fill="white" stroke="#666666" points="456,-181 368,-181 368,-162 456,-162 456,-181"/>
<text text-anchor="middle" x="412" y="-169" font-family="Helvetica,sans-Serif" font-size="10.00">QByteArray::at</text>
</a>
</g>
</g>
<!-- Node3&#45;&gt;Node5 -->
<g id="edge4_Node000003_Node000005" class="edge">
<title>Node3&#45;&gt;Node5</title>
<g id="a_edge4_Node000003_Node000005"><a xlink:title=" ">
<path fill="none" stroke="#63b8ff" d="M279.26,-136.51C297.16,-141.7 317.44,-147.47 336,-152.5 345.22,-155 355.1,-157.57 364.57,-159.99"/>
<polygon fill="#63b8ff" stroke="#63b8ff" points="372.4,-161.98 363.76,-163.5 368.52,-160.99 364.64,-160.01 364.64,-160.01 364.64,-160.01 368.52,-160.99 365.53,-156.52 372.4,-161.98 372.4,-161.98"/>
</a>
</g>
</g>
<!-- Node6 -->
<g id="Node000006" class="node">
<title>Node6</title>
<g id="a_Node000006"><a xlink:href="classAbstractPokitServicePrivate.html#af8b480a950244540bfff7fc4b476a0ef" target="_top" xlink:title="Returns false if data is smaller than minSize, otherwise returns failOnMax if data is bigger than max...">
<polygon fill="white" stroke="#666666" points="488,-143.5 336,-143.5 336,-113.5 488,-113.5 488,-143.5"/>
<text text-anchor="start" x="344" y="-131.5" font-family="Helvetica,sans-Serif" font-size="10.00">AbstractPokitServicePrivate</text>
<text text-anchor="middle" x="412" y="-120.5" font-family="Helvetica,sans-Serif" font-size="10.00">::checkSize</text>
</a>
</g>
</g>
<!-- Node3&#45;&gt;Node6 -->
<g id="edge5_Node000003_Node000006" class="edge">
<title>Node3&#45;&gt;Node6</title>
<g id="a_edge5_Node000003_Node000006"><a xlink:title=" ">
<path fill="none" stroke="#63b8ff" d="M286.75,-123.73C299.83,-124.24 313.95,-124.78 327.83,-125.31"/>
<polygon fill="#63b8ff" stroke="#63b8ff" points="335.96,-125.62 327.83,-128.91 331.96,-125.47 327.96,-125.31 327.96,-125.31 327.96,-125.31 331.96,-125.47 328.1,-121.72 335.96,-125.62 335.96,-125.62"/>
</a>
</g>
</g>
<!-- Node7 -->
<g id="Node000007" class="node">
<title>Node7</title>
<g id="a_Node000007"><a target="_parent" xlink:href="https://doc.qt.io/qt-5/qbytearray.html#mid" xlink:title=" ">
<polygon fill="white" stroke="#666666" points="648.5,-257 551.5,-257 551.5,-238 648.5,-238 648.5,-257"/>
<text text-anchor="middle" x="600" y="-245" font-family="Helvetica,sans-Serif" font-size="10.00">QByteArray::mid</text>
</a>
</g>
</g>
<!-- Node3&#45;&gt;Node7 -->
<g id="edge17_Node000003_Node000007" class="edge">
<title>Node3&#45;&gt;Node7</title>
<g id="a_edge17_Node000003_Node000007"><a xlink:title=" ">
<path fill="none" stroke="#63b8ff" d="M284.31,-136.66C289.83,-139.19 295.17,-142.12 300,-145.5 320.99,-160.17 314.23,-177.01 336,-190.5 399.78,-230.02 487.04,-242.39 543.22,-246.12"/>
<polygon fill="#63b8ff" stroke="#63b8ff" points="551.28,-246.61 543.08,-249.72 547.29,-246.36 543.3,-246.12 543.3,-246.12 543.3,-246.12 547.29,-246.36 543.51,-242.53 551.28,-246.61 551.28,-246.61"/>
</a>
</g>
</g>
<!-- Node8 -->
<g id="Node000008" class="node">
<title>Node8</title>
<g id="a_Node000008"><a target="_parent" xlink:href="https://doc.qt.io/qt-5/qbytearray.html#size" xlink:title=" ">
<polygon fill="white" stroke="#666666" points="817,-83 719,-83 719,-64 817,-64 817,-83"/>
<text text-anchor="middle" x="768" y="-71" font-family="Helvetica,sans-Serif" font-size="10.00">QByteArray::size</text>
</a>
</g>
</g>
<!-- Node3&#45;&gt;Node8 -->
<g id="edge18_Node000003_Node000008" class="edge">
<title>Node3&#45;&gt;Node8</title>
<g id="a_edge18_Node000003_Node000008"><a xlink:title=" ">
<path fill="none" stroke="#63b8ff" d="M273.06,-106.45C296.87,-98.6 323.74,-90.1 336,-87.5 484.11,-56.12 524.71,-60.69 676,-66.5 687.21,-66.93 699.18,-67.66 710.64,-68.49"/>
<polygon fill="#63b8ff" stroke="#63b8ff" points="718.87,-69.1 710.62,-72.1 714.88,-68.8 710.89,-68.51 710.89,-68.51 710.89,-68.51 714.88,-68.8 711.16,-64.92 718.87,-69.1 718.87,-69.1"/>
</a>
</g>
</g>
<!-- Node14 -->
<g id="Node000014" class="node">
<title>Node14</title>
<g id="a_Node000014"><a target="_parent" xlink:href="https://doc.qt.io/qt-5/qobject.html#tr" xlink:title=" ">
<polygon fill="white" stroke="#666666" points="634.5,-95 565.5,-95 565.5,-76 634.5,-76 634.5,-95"/>
<text text-anchor="middle" x="600" y="-83" font-family="Helvetica,sans-Serif" font-size="10.00">QObject::tr</text>
</a>
</g>
</g>
<!-- Node3&#45;&gt;Node14 -->
<g id="edge21_Node000003_Node000014" class="edge">
<title>Node3&#45;&gt;Node14</title>
<g id="a_edge21_Node000003_Node000014"><a xlink:title=" ">
<path fill="none" stroke="#63b8ff" d="M286.68,-111.38C302.63,-108.85 319.95,-106.35 336,-104.5 413.92,-95.54 505.35,-90.06 557.3,-87.42"/>
<polygon fill="#63b8ff" stroke="#63b8ff" points="565.29,-87.02 557.48,-91.02 561.29,-87.22 557.3,-87.42 557.3,-87.42 557.3,-87.42 561.29,-87.22 557.12,-83.82 565.29,-87.02 565.29,-87.02"/>
</a>
</g>
</g>
<!-- Node15 -->
<g id="Node000015" class="node">
<title>Node15</title>
<g id="a_Node000015"><a xlink:href="classStatusService.html#aac79e97cb114be25b2a6771d915f132d" target="_top" xlink:title="Returns a string version of the status enum label.">
<polygon fill="white" stroke="#666666" points="476,-19 348,-19 348,0 476,0 476,-19"/>
<text text-anchor="middle" x="412" y="-7" font-family="Helvetica,sans-Serif" font-size="10.00">StatusService::toString</text>
</a>
</g>
</g>
<!-- Node3&#45;&gt;Node15 -->
<g id="edge19_Node000003_Node000015" class="edge">
<title>Node3&#45;&gt;Node15</title>
<g id="a_edge19_Node000003_Node000015"><a xlink:title=" ">
<path fill="none" stroke="#63b8ff" d="M286.33,-106.39C291.22,-103.86 295.86,-100.92 300,-97.5 325.15,-76.7 310.71,-54.12 336,-33.5 341.68,-28.87 348.27,-25.12 355.14,-22.1"/>
<polygon fill="#63b8ff" stroke="#63b8ff" points="362.67,-19.09 356.58,-25.4 358.96,-20.57 355.25,-22.06 355.25,-22.06 355.25,-22.06 358.96,-20.57 353.91,-18.71 362.67,-19.09 362.67,-19.09"/>
</a>
</g>
</g>
<!-- Node6&#45;&gt;Node4 -->
<g id="edge6_Node000006_Node000004" class="edge">
<title>Node6&#45;&gt;Node4</title>
<g id="a_edge6_Node000006_Node000004"><a xlink:title=" ">
<path fill="none" stroke="#63b8ff" d="M468.46,-143.6C475.27,-146.42 481.95,-149.71 488,-153.5 507.43,-165.7 504.15,-179 524,-190.5 584.35,-225.46 608.97,-210.24 676,-229.5 686.32,-232.46 709.47,-239.85 729.84,-246.42"/>
<polygon fill="#63b8ff" stroke="#63b8ff" points="737.48,-248.89 728.76,-249.85 733.67,-247.66 729.87,-246.43 729.87,-246.43 729.87,-246.43 733.67,-247.66 730.97,-243 737.48,-248.89 737.48,-248.89"/>
</a>
</g>
</g>
<!-- Node6&#45;&gt;Node7 -->
<g id="edge7_Node000006_Node000007" class="edge">
<title>Node6&#45;&gt;Node7</title>
<g id="a_edge7_Node000006_Node000007"><a xlink:title=" ">
<path fill="none" stroke="#63b8ff" d="M473.06,-143.64C478.43,-146.4 483.52,-149.66 488,-153.5 514.56,-176.27 497.3,-200.89 524,-223.5 529.75,-228.37 536.49,-232.25 543.54,-235.35"/>
<polygon fill="#63b8ff" stroke="#63b8ff" points="551.27,-238.41 542.51,-238.81 547.55,-236.94 543.84,-235.47 543.84,-235.47 543.84,-235.47 547.55,-236.94 545.16,-232.12 551.27,-238.41 551.27,-238.41"/>
</a>
</g>
</g>
<!-- Node6&#45;&gt;Node8 -->
<g id="edge8_Node000006_Node000008" class="edge">
<title>Node6&#45;&gt;Node8</title>
<g id="a_edge8_Node000006_Node000008"><a xlink:title=" ">
<path fill="none" stroke="#63b8ff" d="M488.24,-126.37C541.23,-123.72 613.55,-117.79 676,-104.5 677.47,-104.19 706.23,-94.37 731.02,-85.86"/>
<polygon fill="#63b8ff" stroke="#63b8ff" points="738.9,-83.16 732.5,-89.16 735.11,-84.46 731.33,-85.76 731.33,-85.76 731.33,-85.76 735.11,-84.46 730.16,-82.35 738.9,-83.16 738.9,-83.16"/>
</a>
</g>
</g>
<!-- Node9 -->
<g id="Node000009" class="node">
<title>Node9</title>
<g id="a_Node000009"><a xlink:href="classAbstractPokitServicePrivate.html#af748600fc201fe47f29b58e8e93179d8" target="_top" xlink:title="Returns up to maxSize bytes of data as a human readable hexadecimal string.">
<polygon fill="white" stroke="#666666" points="676,-181.5 524,-181.5 524,-151.5 676,-151.5 676,-181.5"/>
<text text-anchor="start" x="532" y="-169.5" font-family="Helvetica,sans-Serif" font-size="10.00">AbstractPokitServicePrivate</text>
<text text-anchor="middle" x="600" y="-158.5" font-family="Helvetica,sans-Serif" font-size="10.00">::toHexString</text>
</a>
</g>
</g>
<!-- Node6&#45;&gt;Node9 -->
<g id="edge9_Node000006_Node000009" class="edge">
<title>Node6&#45;&gt;Node9</title>
<g id="a_edge9_Node000006_Node000009"><a xlink:title=" ">
<path fill="none" stroke="#63b8ff" d="M486.51,-143.52C496.71,-145.6 507.23,-147.75 517.56,-149.86"/>
<polygon fill="#63b8ff" stroke="#63b8ff" points="525.41,-151.47 516.85,-153.39 521.49,-150.67 517.57,-149.86 517.57,-149.86 517.57,-149.86 521.49,-150.67 518.3,-146.34 525.41,-151.47 525.41,-151.47"/>
</a>
</g>
</g>
<!-- Node6&#45;&gt;Node14 -->
<g id="edge16_Node000006_Node000014" class="edge">
<title>Node6&#45;&gt;Node14</title>
<g id="a_edge16_Node000006_Node000014"><a xlink:title=" ">
<path fill="none" stroke="#63b8ff" d="M478.05,-113.46C504.39,-107.37 534.01,-100.52 557.36,-95.13"/>
<polygon fill="#63b8ff" stroke="#63b8ff" points="565.33,-93.28 558.35,-98.59 561.44,-94.18 557.54,-95.09 557.54,-95.09 557.54,-95.09 561.44,-94.18 556.73,-91.58 565.33,-93.28 565.33,-93.28"/>
</a>
</g>
</g>
<!-- Node9&#45;&gt;Node4 -->
<g id="edge10_Node000009_Node000004" class="edge">
<title>Node9&#45;&gt;Node4</title>
<g id="a_edge10_Node000009_Node000004"><a xlink:title=" ">
<path fill="none" stroke="#63b8ff" d="M650.94,-181.54C659.72,-185.35 668.46,-189.97 676,-195.5 696.66,-210.64 690.95,-225.91 712,-240.5 715.56,-242.97 719.48,-245.12 723.54,-246.98"/>
<polygon fill="#63b8ff" stroke="#63b8ff" points="730.95,-250.04 722.18,-250.31 727.26,-248.51 723.56,-246.99 723.56,-246.99 723.56,-246.99 727.26,-248.51 724.93,-243.66 730.95,-250.04 730.95,-250.04"/>
</a>
</g>
</g>
<!-- Node9&#45;&gt;Node8 -->
<g id="edge14_Node000009_Node000008" class="edge">
<title>Node9&#45;&gt;Node8</title>
<g id="a_edge14_Node000009_Node000008"><a xlink:title=" ">
<path fill="none" stroke="#63b8ff" d="M650.94,-151.46C659.72,-147.65 668.46,-143.03 676,-137.5 696.66,-122.36 691.07,-107.26 712,-92.5 715.32,-90.16 718.95,-88.08 722.72,-86.25"/>
<polygon fill="#63b8ff" stroke="#63b8ff" points="730.09,-83.01 724.21,-89.53 726.42,-84.62 722.76,-86.23 722.76,-86.23 722.76,-86.23 726.42,-84.62 721.31,-82.94 730.09,-83.01 730.09,-83.01"/>
</a>
</g>
</g>
<!-- Node10 -->
<g id="Node000010" class="node">
<title>Node10</title>
<g id="a_Node000010"><a target="_parent" xlink:href="https://doc.qt.io/qt-5/qstring.html#fromLatin1" xlink:title=" ">
<polygon fill="white" stroke="#666666" points="824,-157 712,-157 712,-138 824,-138 824,-157"/>
<text text-anchor="middle" x="768" y="-145" font-family="Helvetica,sans-Serif" font-size="10.00">QString::fromLatin1</text>
</a>
</g>
</g>
<!-- Node9&#45;&gt;Node10 -->
<g id="edge11_Node000009_Node000010" class="edge">
<title>Node9&#45;&gt;Node10</title>
<g id="a_edge11_Node000009_Node000010"><a xlink:title=" ">
<path fill="none" stroke="#63b8ff" d="M676.23,-157.89C685.42,-156.84 694.75,-155.77 703.74,-154.74"/>
<polygon fill="#63b8ff" stroke="#63b8ff" points="711.9,-153.81 704.36,-158.29 707.92,-154.26 703.95,-154.72 703.95,-154.72 703.95,-154.72 707.92,-154.26 703.54,-151.14 711.9,-153.81 711.9,-153.81"/>
</a>
</g>
</g>
<!-- Node11 -->
<g id="Node000011" class="node">
<title>Node11</title>
<g id="a_Node000011"><a target="_parent" xlink:href="https://doc.qt.io/qt-5/qbytearray.html#left" xlink:title=" ">
<polygon fill="white" stroke="#666666" points="815,-120 721,-120 721,-101 815,-101 815,-120"/>
<text text-anchor="middle" x="768" y="-108" font-family="Helvetica,sans-Serif" font-size="10.00">QByteArray::left</text>
</a>
</g>
</g>
<!-- Node9&#45;&gt;Node11 -->
<g id="edge12_Node000009_Node000011" class="edge">
<title>Node9&#45;&gt;Node11</title>
<g id="a_edge12_Node000009_Node000011"><a xlink:title=" ">
<path fill="none" stroke="#63b8ff" d="M645.48,-151.49C672.18,-142.49 705.69,-131.18 730.76,-122.72"/>
<polygon fill="#63b8ff" stroke="#63b8ff" points="738.59,-120.08 732.16,-126.05 734.8,-121.36 731.01,-122.64 731.01,-122.64 731.01,-122.64 734.8,-121.36 729.86,-119.23 738.59,-120.08 738.59,-120.08"/>
</a>
</g>
</g>
<!-- Node12 -->
<g id="Node000012" class="node">
<title>Node12</title>
<g id="a_Node000012"><a target="_parent" xlink:href="https://doc.qt.io/qt-5/qbytearray.html#right" xlink:title=" ">
<polygon fill="white" stroke="#666666" points="818.5,-231 717.5,-231 717.5,-212 818.5,-212 818.5,-231"/>
<text text-anchor="middle" x="768" y="-219" font-family="Helvetica,sans-Serif" font-size="10.00">QByteArray::right</text>
</a>
</g>
</g>
<!-- Node9&#45;&gt;Node12 -->
<g id="edge13_Node000009_Node000012" class="edge">
<title>Node9&#45;&gt;Node12</title>
<g id="a_edge13_Node000009_Node000012"><a xlink:title=" ">
<path fill="none" stroke="#63b8ff" d="M646.08,-181.59C666.24,-188.32 690.3,-196.33 712,-203.5 717.71,-205.38 723.75,-207.37 729.66,-209.31"/>
<polygon fill="#63b8ff" stroke="#63b8ff" points="737.59,-211.91 728.87,-212.84 733.79,-210.66 729.99,-209.42 729.99,-209.42 729.99,-209.42 733.79,-210.66 731.11,-206 737.59,-211.91 737.59,-211.91"/>
</a>
</g>
</g>
<!-- Node13 -->
<g id="Node000013" class="node">
<title>Node13</title>
<g id="a_Node000013"><a target="_parent" xlink:href="https://doc.qt.io/qt-5/qbytearray.html#toHex" xlink:title=" ">
<polygon fill="white" stroke="#666666" points="821.5,-194 714.5,-194 714.5,-175 821.5,-175 821.5,-194"/>
<text text-anchor="middle" x="768" y="-182" font-family="Helvetica,sans-Serif" font-size="10.00">QByteArray::toHex</text>
</a>
</g>
</g>
<!-- Node9&#45;&gt;Node13 -->
<g id="edge15_Node000009_Node000013" class="edge">
<title>Node9&#45;&gt;Node13</title>
<g id="a_edge15_Node000009_Node000013"><a xlink:title=" ">
<path fill="none" stroke="#63b8ff" d="M676.23,-174.66C686.28,-175.75 696.49,-176.85 706.25,-177.91"/>
<polygon fill="#63b8ff" stroke="#63b8ff" points="714.33,-178.79 705.99,-181.51 710.36,-178.36 706.38,-177.93 706.38,-177.93 706.38,-177.93 710.36,-178.36 706.77,-174.35 714.33,-178.79 714.33,-178.79"/>
</a>
</g>
</g>
<!-- Node15&#45;&gt;Node1 -->
<g id="edge20_Node000015_Node000001" class="edge">
<title>Node15&#45;&gt;Node1</title>
<g id="a_edge20_Node000015_Node000001"><a xlink:title=" ">
<path fill="none" stroke="#63b8ff" d="M347.91,-13.8C295.29,-18.69 218.89,-28.86 155,-49.5 128.88,-57.94 101.1,-72.85 82.48,-83.81"/>
<polygon fill="#63b8ff" stroke="#63b8ff" points="75.57,-87.95 80.59,-80.75 79,-85.89 82.44,-83.84 82.44,-83.84 82.44,-83.84 79,-85.89 84.28,-86.93 75.57,-87.95 75.57,-87.95"/>
</a>
</g>
</g>
</g>
</svg>
