<?xml version="1.0" encoding="UTF-8" standalone="no"?>
<!DOCTYPE svg PUBLIC "-//W3C//DTD SVG 1.1//EN"
 "http://www.w3.org/Graphics/SVG/1.1/DTD/svg11.dtd">
<!-- Generated by graphviz version 2.43.0 (0)
 -->
<!-- Title: MeterCommand::settingsWritten Pages: 1 -->
<svg width="765pt" height="718pt"
 viewBox="0.00 0.00 765.00 718.23" xmlns="http://www.w3.org/2000/svg" xmlns:xlink="http://www.w3.org/1999/xlink">
<g id="graph0" class="graph" transform="scale(1 1) rotate(0) translate(4 714.23)">
<title>MeterCommand::settingsWritten</title>
<!-- Node1 -->
<g id="node1" class="node">
<title>Node1</title>
<g id="a_node1"><a xlink:title="Invoked when the multimeter settings have been written, to begin reading the meter values.">
<polygon fill="#bfbfbf" stroke="black" points="0,-362.73 0,-381.73 176,-381.73 176,-362.73 0,-362.73"/>
<text text-anchor="middle" x="88" y="-369.73" font-family="Helvetica,sans-Serif" font-size="10.00">MeterCommand::settingsWritten</text>
</a>
</g>
</g>
<!-- Node2 -->
<g id="node2" class="node">
<title>Node2</title>
<g id="a_node2"><a target="_parent" xlink:href="https://doc.qt.io/qt-5/qobject.html#connect" xlink:title=" ">
<polygon fill="none" stroke="black" points="248.5,-428.73 248.5,-447.73 348.5,-447.73 348.5,-428.73 248.5,-428.73"/>
<text text-anchor="middle" x="298.5" y="-435.73" font-family="Helvetica,sans-Serif" font-size="10.00">QObject::connect</text>
</a>
</g>
</g>
<!-- Node1&#45;&gt;Node2 -->
<g id="edge1" class="edge">
<title>Node1&#45;&gt;Node2</title>
<path fill="none" stroke="midnightblue" d="M111.33,-381.9C135.71,-392.19 176.09,-408.45 212,-419.23 220.66,-421.84 229.92,-424.26 239.02,-426.44"/>
<polygon fill="midnightblue" stroke="midnightblue" points="238.27,-429.85 248.8,-428.7 239.85,-423.04 238.27,-429.85"/>
</g>
<!-- Node3 -->
<g id="node3" class="node">
<title>Node3</title>
<g id="a_node3"><a xlink:href="classMultimeterService.html#a321c4fdade8d934ac2e1daec3be174fb" target="_top" xlink:title="Enables client&#45;side notifications of meter readings.">
<polygon fill="none" stroke="black" points="223,-379.23 223,-409.23 374,-409.23 374,-379.23 223,-379.23"/>
<text text-anchor="start" x="231" y="-397.23" font-family="Helvetica,sans-Serif" font-size="10.00">MultimeterService::</text>
<text text-anchor="middle" x="298.5" y="-386.23" font-family="Helvetica,sans-Serif" font-size="10.00">enableReadingNotifications</text>
</a>
</g>
</g>
<!-- Node1&#45;&gt;Node3 -->
<g id="edge2" class="edge">
<title>Node1&#45;&gt;Node3</title>
<path fill="none" stroke="midnightblue" d="M176.21,-381.44C188.33,-382.72 200.77,-384.03 212.84,-385.3"/>
<polygon fill="midnightblue" stroke="midnightblue" points="212.56,-388.79 222.88,-386.36 213.3,-381.83 212.56,-388.79"/>
</g>
<!-- Node4 -->
<g id="node4" class="node">
<title>Node4</title>
<g id="a_node4"><a xlink:href="classMeterCommand.html#a551a1c3d1c6f10384b5ccf264a640eff" target="_top" xlink:title="Outputs meter reading in the selected ouput format.">
<polygon fill="none" stroke="black" points="212,-340.73 212,-359.73 385,-359.73 385,-340.73 212,-340.73"/>
<text text-anchor="middle" x="298.5" y="-347.73" font-family="Helvetica,sans-Serif" font-size="10.00">MeterCommand::outputReading</text>
</a>
</g>
</g>
<!-- Node1&#45;&gt;Node4 -->
<g id="edge3" class="edge">
<title>Node1&#45;&gt;Node4</title>
<path fill="none" stroke="midnightblue" d="M176.21,-363.03C184.72,-362.13 193.37,-361.22 201.95,-360.32"/>
<polygon fill="midnightblue" stroke="midnightblue" points="202.39,-363.79 211.97,-359.26 201.66,-356.83 202.39,-363.79"/>
</g>
<!-- Node9 -->
<g id="node9" class="node">
<title>Node9</title>
<g id="a_node9"><a target="_parent" xlink:href="https://doc.qt.io/qt-5/qobject.html#tr" xlink:title=" ">
<polygon fill="none" stroke="black" points="655.5,-201.73 655.5,-220.73 724.5,-220.73 724.5,-201.73 655.5,-201.73"/>
<text text-anchor="middle" x="690" y="-208.73" font-family="Helvetica,sans-Serif" font-size="10.00">QObject::tr</text>
</a>
</g>
</g>
<!-- Node1&#45;&gt;Node9 -->
<g id="edge30" class="edge">
<title>Node1&#45;&gt;Node9</title>
<path fill="none" stroke="midnightblue" d="M94.29,-362.43C121.08,-313.97 247.34,-99.42 421,-25.23 488.85,3.75 523.52,12.36 587,-25.23 649.28,-62.11 676.05,-151.98 685.13,-191.75"/>
<polygon fill="midnightblue" stroke="midnightblue" points="681.71,-192.51 687.23,-201.55 688.55,-191.04 681.71,-192.51"/>
</g>
<!-- Node5 -->
<g id="node5" class="node">
<title>Node5</title>
<g id="a_node5"><a target="_parent" xlink:href="https://doc.qt.io/qt-5/qstring.html#arg-11" xlink:title=" ">
<polygon fill="none" stroke="black" points="653,-649.73 653,-668.73 727,-668.73 727,-649.73 653,-649.73"/>
<text text-anchor="middle" x="690" y="-656.73" font-family="Helvetica,sans-Serif" font-size="10.00">QString::arg</text>
</a>
</g>
</g>
<!-- Node4&#45;&gt;Node5 -->
<g id="edge4" class="edge">
<title>Node4&#45;&gt;Node5</title>
<path fill="none" stroke="midnightblue" d="M371.84,-359.92C376.73,-362.66 381.21,-366.05 385,-370.23 467.17,-460.94 331.42,-559.84 421,-643.23 452.07,-672.16 574.6,-668.02 642.72,-663.23"/>
<polygon fill="midnightblue" stroke="midnightblue" points="643.04,-666.72 652.76,-662.49 642.53,-659.73 643.04,-666.72"/>
</g>
<!-- Node6 -->
<g id="node6" class="node">
<title>Node6</title>
<g id="a_node6"><a xlink:href="classDeviceCommand.html#ae619166395b5651f1316fd5336d9fa2c" target="_top" xlink:title="Disconnects the underlying Pokit device, and sets exitCode to be return to the OS once the disconnect...">
<polygon fill="none" stroke="black" points="424.5,-526.73 424.5,-545.73 583.5,-545.73 583.5,-526.73 424.5,-526.73"/>
<text text-anchor="middle" x="504" y="-533.73" font-family="Helvetica,sans-Serif" font-size="10.00">DeviceCommand::disconnect</text>
</a>
</g>
</g>
<!-- Node4&#45;&gt;Node6 -->
<g id="edge5" class="edge">
<title>Node4&#45;&gt;Node6</title>
<path fill="none" stroke="midnightblue" d="M370.13,-359.76C375.6,-362.51 380.67,-365.94 385,-370.23 432.81,-417.55 373.14,-469.97 421,-517.23 422.44,-518.66 423.97,-519.98 425.57,-521.22"/>
<polygon fill="midnightblue" stroke="midnightblue" points="423.78,-524.23 434.09,-526.65 427.54,-518.32 423.78,-524.23"/>
</g>
<!-- Node4&#45;&gt;Node9 -->
<g id="edge28" class="edge">
<title>Node4&#45;&gt;Node9</title>
<path fill="none" stroke="midnightblue" d="M300.88,-340.64C306.86,-303.18 334.2,-166.28 421,-113.23 483.95,-74.76 518.56,-85.68 587,-113.23 627.02,-129.34 660.15,-169.5 677,-193.1"/>
<polygon fill="midnightblue" stroke="midnightblue" points="674.26,-195.3 682.82,-201.54 680.02,-191.32 674.26,-195.3"/>
</g>
<!-- Node10 -->
<g id="node10" class="node">
<title>Node10</title>
<g id="a_node10"><a xlink:href="classAbstractCommand.html#af85c842568f8a3a893e336e449ef7813" target="_top" xlink:title="Returns an RFC 4180 compliant version of field.">
<polygon fill="none" stroke="black" points="421,-603.23 421,-633.23 587,-633.23 587,-603.23 421,-603.23"/>
<text text-anchor="start" x="429" y="-621.23" font-family="Helvetica,sans-Serif" font-size="10.00">AbstractCommand::escapeCsv</text>
<text text-anchor="middle" x="504" y="-610.23" font-family="Helvetica,sans-Serif" font-size="10.00">Field</text>
</a>
</g>
</g>
<!-- Node4&#45;&gt;Node10 -->
<g id="edge9" class="edge">
<title>Node4&#45;&gt;Node10</title>
<path fill="none" stroke="midnightblue" d="M371.3,-359.84C376.37,-362.59 381.04,-366 385,-370.23 452.11,-441.93 358.35,-512.61 421,-588.23 423.96,-591.81 427.39,-594.96 431.13,-597.74"/>
<polygon fill="midnightblue" stroke="midnightblue" points="429.44,-600.81 439.76,-603.23 433.2,-594.91 429.44,-600.81"/>
</g>
<!-- Node12 -->
<g id="node12" class="node">
<title>Node12</title>
<g id="a_node12"><a target="_parent" xlink:href="https://doc.qt.io/qt-5/qstring.html#fromLatin1" xlink:title=" ">
<polygon fill="none" stroke="black" points="634,-567.73 634,-586.73 746,-586.73 746,-567.73 634,-567.73"/>
<text text-anchor="middle" x="690" y="-574.73" font-family="Helvetica,sans-Serif" font-size="10.00">QString::fromLatin1</text>
</a>
</g>
</g>
<!-- Node4&#45;&gt;Node12 -->
<g id="edge13" class="edge">
<title>Node4&#45;&gt;Node12</title>
<path fill="none" stroke="midnightblue" d="M370.76,-359.75C376.02,-362.51 380.88,-365.95 385,-370.23 443.11,-430.57 358.6,-499.36 421,-555.23 449.88,-581.09 554.09,-582.66 623.73,-580.57"/>
<polygon fill="midnightblue" stroke="midnightblue" points="623.86,-584.07 633.74,-580.24 623.63,-577.07 623.86,-584.07"/>
</g>
<!-- Node13 -->
<g id="node13" class="node">
<title>Node13</title>
<g id="a_node13"><a target="_parent" xlink:href="https://doc.qt.io/qt-5/qstring.html#fromUtf8" xlink:title=" ">
<polygon fill="none" stroke="black" points="452.5,-438.73 452.5,-457.73 555.5,-457.73 555.5,-438.73 452.5,-438.73"/>
<text text-anchor="middle" x="504" y="-445.73" font-family="Helvetica,sans-Serif" font-size="10.00">QString::fromUtf8</text>
</a>
</g>
</g>
<!-- Node4&#45;&gt;Node13 -->
<g id="edge14" class="edge">
<title>Node4&#45;&gt;Node13</title>
<path fill="none" stroke="midnightblue" d="M365.37,-359.89C372.36,-362.56 379.07,-365.94 385,-370.23 409.89,-388.24 396.09,-411.25 421,-429.23 427.41,-433.87 434.78,-437.39 442.42,-440.06"/>
<polygon fill="midnightblue" stroke="midnightblue" points="441.59,-443.47 452.17,-443.02 443.62,-436.77 441.59,-443.47"/>
</g>
<!-- Node14 -->
<g id="node14" class="node">
<title>Node14</title>
<g id="a_node14"><a target="_parent" xlink:href="https://doc.qt.io/qt-5/qstring.html#insert-2" xlink:title=" ">
<polygon fill="none" stroke="black" points="461,-400.73 461,-419.73 547,-419.73 547,-400.73 461,-400.73"/>
<text text-anchor="middle" x="504" y="-407.73" font-family="Helvetica,sans-Serif" font-size="10.00">QString::insert</text>
</a>
</g>
</g>
<!-- Node4&#45;&gt;Node14 -->
<g id="edge15" class="edge">
<title>Node4&#45;&gt;Node14</title>
<path fill="none" stroke="midnightblue" d="M351.35,-359.75C362.64,-362.54 374.38,-366 385,-370.23 402.21,-377.09 403.78,-384.4 421,-391.23 430.47,-394.99 440.87,-398.12 450.99,-400.67"/>
<polygon fill="midnightblue" stroke="midnightblue" points="450.43,-404.13 460.97,-403.03 452.04,-397.32 450.43,-404.13"/>
</g>
<!-- Node15 -->
<g id="node15" class="node">
<title>Node15</title>
<g id="a_node15"><a target="_parent" xlink:href="https://doc.qt.io/qt-5/qvariant.html#isNull" xlink:title=" ">
<polygon fill="none" stroke="black" points="458,-362.73 458,-381.73 550,-381.73 550,-362.73 458,-362.73"/>
<text text-anchor="middle" x="504" y="-369.73" font-family="Helvetica,sans-Serif" font-size="10.00">QVariant::isNull</text>
</a>
</g>
</g>
<!-- Node4&#45;&gt;Node15 -->
<g id="edge16" class="edge">
<title>Node4&#45;&gt;Node15</title>
<path fill="none" stroke="midnightblue" d="M385.21,-359.5C406.39,-361.79 428.52,-364.18 447.8,-366.27"/>
<polygon fill="midnightblue" stroke="midnightblue" points="447.58,-369.76 457.9,-367.36 448.34,-362.8 447.58,-369.76"/>
</g>
<!-- Node16 -->
<g id="node16" class="node">
<title>Node16</title>
<g id="a_node16"><a xlink:href="classMultimeterService.html#acafbc2f0d9f123634c54a14c963e88ca" target="_top" xlink:title="Returns the maximum value for range in (integer) millivolts, or the string &quot;Auto&quot;.">
<polygon fill="none" stroke="black" points="447.5,-35.23 447.5,-65.23 560.5,-65.23 560.5,-35.23 447.5,-35.23"/>
<text text-anchor="start" x="455.5" y="-53.23" font-family="Helvetica,sans-Serif" font-size="10.00">MultimeterService::</text>
<text text-anchor="middle" x="504" y="-42.23" font-family="Helvetica,sans-Serif" font-size="10.00">maxValue</text>
</a>
</g>
</g>
<!-- Node4&#45;&gt;Node16 -->
<g id="edge17" class="edge">
<title>Node4&#45;&gt;Node16</title>
<path fill="none" stroke="midnightblue" d="M301.07,-340.55C307.85,-301.96 338.02,-157.44 421,-80.23 426.07,-75.52 431.94,-71.53 438.17,-68.16"/>
<polygon fill="midnightblue" stroke="midnightblue" points="440.01,-71.15 447.49,-63.65 436.97,-64.85 440.01,-71.15"/>
</g>
<!-- Node17 -->
<g id="node17" class="node">
<title>Node17</title>
<g id="a_node17"><a xlink:href="classMultimeterService.html#a01d0e40b92ddcb6e4c89e4c8504e30d4" target="_top" xlink:title="Returns the minimum value for range in (integer) millivolts, or the string &quot;Auto&quot;.">
<polygon fill="none" stroke="black" points="447.5,-477.23 447.5,-507.23 560.5,-507.23 560.5,-477.23 447.5,-477.23"/>
<text text-anchor="start" x="455.5" y="-495.23" font-family="Helvetica,sans-Serif" font-size="10.00">MultimeterService::</text>
<text text-anchor="middle" x="504" y="-484.23" font-family="Helvetica,sans-Serif" font-size="10.00">minValue</text>
</a>
</g>
</g>
<!-- Node4&#45;&gt;Node17 -->
<g id="edge19" class="edge">
<title>Node4&#45;&gt;Node17</title>
<path fill="none" stroke="midnightblue" d="M368.78,-359.92C374.67,-362.62 380.2,-366 385,-370.23 419.49,-400.65 387.53,-435.7 421,-467.23 425.95,-471.9 431.74,-475.69 437.92,-478.78"/>
<polygon fill="midnightblue" stroke="midnightblue" points="436.63,-482.04 447.2,-482.82 439.43,-475.62 436.63,-482.04"/>
</g>
<!-- Node18 -->
<g id="node18" class="node">
<title>Node18</title>
<g id="a_node18"><a target="_parent" xlink:href="https://doc.qt.io/qt-5/qvariant.html#toInt" xlink:title=" ">
<polygon fill="none" stroke="black" points="460.5,-274.73 460.5,-293.73 547.5,-293.73 547.5,-274.73 460.5,-274.73"/>
<text text-anchor="middle" x="504" y="-281.73" font-family="Helvetica,sans-Serif" font-size="10.00">QVariant::toInt</text>
</a>
</g>
</g>
<!-- Node4&#45;&gt;Node18 -->
<g id="edge21" class="edge">
<title>Node4&#45;&gt;Node18</title>
<path fill="none" stroke="midnightblue" d="M322.5,-340.56C346.71,-330.6 386.1,-315.05 421,-304.23 430.35,-301.34 440.4,-298.59 450.16,-296.11"/>
<polygon fill="midnightblue" stroke="midnightblue" points="451.3,-299.43 460.17,-293.63 449.62,-292.64 451.3,-299.43"/>
</g>
<!-- Node19 -->
<g id="node19" class="node">
<title>Node19</title>
<g id="a_node19"><a target="_parent" xlink:href="https://doc.qt.io/qt-5/qjsondocument.html#toJson" xlink:title=" ">
<polygon fill="none" stroke="black" points="438.5,-236.73 438.5,-255.73 569.5,-255.73 569.5,-236.73 438.5,-236.73"/>
<text text-anchor="middle" x="504" y="-243.73" font-family="Helvetica,sans-Serif" font-size="10.00">QJsonDocument::toJson</text>
</a>
</g>
</g>
<!-- Node4&#45;&gt;Node19 -->
<g id="edge22" class="edge">
<title>Node4&#45;&gt;Node19</title>
<path fill="none" stroke="midnightblue" d="M310.02,-340.72C330.08,-323.1 375.85,-285.35 421,-265.23 426.47,-262.8 432.3,-260.65 438.22,-258.77"/>
<polygon fill="midnightblue" stroke="midnightblue" points="439.61,-262.01 448.23,-255.84 437.65,-255.29 439.61,-262.01"/>
</g>
<!-- Node20 -->
<g id="node20" class="node">
<title>Node20</title>
<g id="a_node20"><a target="_parent" xlink:href="https://doc.qt.io/qt-5/qvariant.html#toJsonValue" xlink:title=" ">
<polygon fill="none" stroke="black" points="443,-198.73 443,-217.73 565,-217.73 565,-198.73 443,-198.73"/>
<text text-anchor="middle" x="504" y="-205.73" font-family="Helvetica,sans-Serif" font-size="10.00">QVariant::toJsonValue</text>
</a>
</g>
</g>
<!-- Node4&#45;&gt;Node20 -->
<g id="edge23" class="edge">
<title>Node4&#45;&gt;Node20</title>
<path fill="none" stroke="midnightblue" d="M306.13,-340.42C322.58,-316.88 367.81,-256.96 421,-227.23 424.98,-225.01 429.21,-223.04 433.57,-221.31"/>
<polygon fill="midnightblue" stroke="midnightblue" points="435.02,-224.51 443.27,-217.86 432.68,-217.91 435.02,-224.51"/>
</g>
<!-- Node21 -->
<g id="node21" class="node">
<title>Node21</title>
<g id="a_node21"><a target="_parent" xlink:href="https://doc.qt.io/qt-5/qbytearray.html#toStdString" xlink:title=" ">
<polygon fill="none" stroke="black" points="438,-160.73 438,-179.73 570,-179.73 570,-160.73 438,-160.73"/>
<text text-anchor="middle" x="504" y="-167.73" font-family="Helvetica,sans-Serif" font-size="10.00">QByteArray::toStdString</text>
</a>
</g>
</g>
<!-- Node4&#45;&gt;Node21 -->
<g id="edge24" class="edge">
<title>Node4&#45;&gt;Node21</title>
<path fill="none" stroke="midnightblue" d="M303.89,-340.39C317.08,-311.97 359.33,-229.29 421,-189.23 424.19,-187.16 427.58,-185.32 431.09,-183.67"/>
<polygon fill="midnightblue" stroke="midnightblue" points="432.71,-186.79 440.64,-179.76 430.06,-180.31 432.71,-186.79"/>
</g>
<!-- Node22 -->
<g id="node22" class="node">
<title>Node22</title>
<g id="a_node22"><a target="_parent" xlink:href="https://doc.qt.io/qt-5/qvariant.html#toString" xlink:title=" ">
<polygon fill="none" stroke="black" points="452.5,-122.73 452.5,-141.73 555.5,-141.73 555.5,-122.73 452.5,-122.73"/>
<text text-anchor="middle" x="504" y="-129.73" font-family="Helvetica,sans-Serif" font-size="10.00">QVariant::toString</text>
</a>
</g>
</g>
<!-- Node4&#45;&gt;Node22 -->
<g id="edge25" class="edge">
<title>Node4&#45;&gt;Node22</title>
<path fill="none" stroke="midnightblue" d="M302.42,-340.48C312.7,-307.91 350.43,-202.17 421,-151.23 427.42,-146.6 434.78,-143.08 442.42,-140.41"/>
<polygon fill="midnightblue" stroke="midnightblue" points="443.62,-143.7 452.18,-137.45 441.59,-137 443.62,-143.7"/>
</g>
<!-- Node23 -->
<g id="node23" class="node">
<title>Node23</title>
<g id="a_node23"><a xlink:href="classMultimeterService.html#a58a03dbc0ae216dc60f27d975af92cf8" target="_top" xlink:title="Returns mode as a user&#45;friendly string.">
<polygon fill="none" stroke="black" points="447.5,-313.23 447.5,-343.23 560.5,-343.23 560.5,-313.23 447.5,-313.23"/>
<text text-anchor="start" x="455.5" y="-331.23" font-family="Helvetica,sans-Serif" font-size="10.00">MultimeterService::</text>
<text text-anchor="middle" x="504" y="-320.23" font-family="Helvetica,sans-Serif" font-size="10.00">toString</text>
</a>
</g>
</g>
<!-- Node4&#45;&gt;Node23 -->
<g id="edge26" class="edge">
<title>Node4&#45;&gt;Node23</title>
<path fill="none" stroke="midnightblue" d="M385.21,-340.97C402.57,-339.09 420.57,-337.15 437.12,-335.36"/>
<polygon fill="midnightblue" stroke="midnightblue" points="437.65,-338.82 447.22,-334.26 436.9,-331.86 437.65,-338.82"/>
</g>
<!-- Node24 -->
<g id="node24" class="node">
<title>Node24</title>
<g id="a_node24"><a target="_parent" xlink:href="https://doc.qt.io/qt-5/qvariant.html#type" xlink:title=" ">
<polygon fill="none" stroke="black" points="461,-690.73 461,-709.73 547,-709.73 547,-690.73 461,-690.73"/>
<text text-anchor="middle" x="504" y="-697.73" font-family="Helvetica,sans-Serif" font-size="10.00">QVariant::type</text>
</a>
</g>
</g>
<!-- Node4&#45;&gt;Node24 -->
<g id="edge29" class="edge">
<title>Node4&#45;&gt;Node24</title>
<path fill="none" stroke="midnightblue" d="M371.91,-359.87C376.79,-362.62 381.24,-366.03 385,-370.23 476.22,-472.36 332.62,-571.64 421,-676.23 428.63,-685.26 439.45,-690.99 450.74,-694.61"/>
<polygon fill="midnightblue" stroke="midnightblue" points="450.14,-698.07 460.71,-697.27 451.95,-691.31 450.14,-698.07"/>
</g>
<!-- Node7 -->
<g id="node7" class="node">
<title>Node7</title>
<g id="a_node7"><a xlink:href="classPokitDevice.html#a2e2fb6b30e6f5f0d7bc6cd8f806d6423" target="_top" xlink:title="Returns a non&#45;const pointer to the controller used to access the Pokit device.">
<polygon fill="none" stroke="black" points="626,-527.73 626,-546.73 754,-546.73 754,-527.73 626,-527.73"/>
<text text-anchor="middle" x="690" y="-534.73" font-family="Helvetica,sans-Serif" font-size="10.00">PokitDevice::controller</text>
</a>
</g>
</g>
<!-- Node6&#45;&gt;Node7 -->
<g id="edge6" class="edge">
<title>Node6&#45;&gt;Node7</title>
<path fill="none" stroke="midnightblue" d="M583.57,-536.66C594.3,-536.72 605.28,-536.78 615.91,-536.84"/>
<polygon fill="midnightblue" stroke="midnightblue" points="615.96,-540.34 625.98,-536.89 616,-533.34 615.96,-540.34"/>
</g>
<!-- Node8 -->
<g id="node8" class="node">
<title>Node8</title>
<g id="a_node8"><a target="_parent" xlink:href="https://doc.qt.io/qt-5/qlowenergycontroller.html#disconnectFromDevice" xlink:title=" ">
<polygon fill="none" stroke="black" points="623,-478.23 623,-508.23 757,-508.23 757,-478.23 623,-478.23"/>
<text text-anchor="start" x="631" y="-496.23" font-family="Helvetica,sans-Serif" font-size="10.00">QLowEnergyController</text>
<text text-anchor="middle" x="690" y="-485.23" font-family="Helvetica,sans-Serif" font-size="10.00">::disconnectFromDevice</text>
</a>
</g>
</g>
<!-- Node6&#45;&gt;Node8 -->
<g id="edge7" class="edge">
<title>Node6&#45;&gt;Node8</title>
<path fill="none" stroke="midnightblue" d="M546.3,-526.69C559.33,-523.68 573.77,-520.32 587,-517.23 596.2,-515.09 605.87,-512.82 615.44,-510.57"/>
<polygon fill="midnightblue" stroke="midnightblue" points="616.41,-513.94 625.35,-508.25 614.81,-507.13 616.41,-513.94"/>
</g>
<!-- Node6&#45;&gt;Node9 -->
<g id="edge8" class="edge">
<title>Node6&#45;&gt;Node9</title>
<path fill="none" stroke="midnightblue" d="M572.78,-526.69C577.95,-524.18 582.79,-521.07 587,-517.23 631.15,-477.05 672.52,-291.52 685.11,-230.64"/>
<polygon fill="midnightblue" stroke="midnightblue" points="688.55,-231.29 687.12,-220.79 681.69,-229.89 688.55,-231.29"/>
</g>
<!-- Node10&#45;&gt;Node5 -->
<g id="edge10" class="edge">
<title>Node10&#45;&gt;Node5</title>
<path fill="none" stroke="midnightblue" d="M572.47,-633.27C595.93,-638.5 621.69,-644.24 643.01,-648.99"/>
<polygon fill="midnightblue" stroke="midnightblue" points="642.26,-652.41 652.78,-651.16 643.78,-645.57 642.26,-652.41"/>
</g>
<!-- Node11 -->
<g id="node11" class="node">
<title>Node11</title>
<g id="a_node11"><a target="_parent" xlink:href="https://doc.qt.io/qt-5/qstring.html#contains-1" xlink:title=" ">
<polygon fill="none" stroke="black" points="640,-608.73 640,-627.73 740,-627.73 740,-608.73 640,-608.73"/>
<text text-anchor="middle" x="690" y="-615.73" font-family="Helvetica,sans-Serif" font-size="10.00">QString::contains</text>
</a>
</g>
</g>
<!-- Node10&#45;&gt;Node11 -->
<g id="edge11" class="edge">
<title>Node10&#45;&gt;Node11</title>
<path fill="none" stroke="midnightblue" d="M587.04,-618.23C601.4,-618.23 616.09,-618.23 629.68,-618.23"/>
<polygon fill="midnightblue" stroke="midnightblue" points="629.83,-621.73 639.83,-618.23 629.83,-614.73 629.83,-621.73"/>
</g>
<!-- Node10&#45;&gt;Node12 -->
<g id="edge12" class="edge">
<title>Node10&#45;&gt;Node12</title>
<path fill="none" stroke="midnightblue" d="M572.47,-603.2C593.53,-598.51 616.44,-593.4 636.32,-588.97"/>
<polygon fill="midnightblue" stroke="midnightblue" points="637.12,-592.38 646.12,-586.79 635.6,-585.55 637.12,-592.38"/>
</g>
<!-- Node16&#45;&gt;Node9 -->
<g id="edge18" class="edge">
<title>Node16&#45;&gt;Node9</title>
<path fill="none" stroke="midnightblue" d="M559.67,-65.36C569.27,-69.34 578.79,-74.25 587,-80.23 629.5,-111.22 663.24,-164.6 679.11,-192.7"/>
<polygon fill="midnightblue" stroke="midnightblue" points="676.07,-194.43 683.97,-201.5 682.2,-191.06 676.07,-194.43"/>
</g>
<!-- Node17&#45;&gt;Node9 -->
<g id="edge20" class="edge">
<title>Node17&#45;&gt;Node9</title>
<path fill="none" stroke="midnightblue" d="M560.67,-482.68C570.28,-479.06 579.55,-474.09 587,-467.23 658.56,-401.4 680.78,-278.74 686.91,-230.98"/>
<polygon fill="midnightblue" stroke="midnightblue" points="690.42,-231.11 688.11,-220.77 683.46,-230.29 690.42,-231.11"/>
</g>
<!-- Node23&#45;&gt;Node9 -->
<g id="edge27" class="edge">
<title>Node23&#45;&gt;Node9</title>
<path fill="none" stroke="midnightblue" d="M560.63,-314.9C569.73,-311.71 578.84,-307.85 587,-303.23 622.39,-283.21 655.89,-249.05 674.31,-228.46"/>
<polygon fill="midnightblue" stroke="midnightblue" points="677.07,-230.63 681.03,-220.8 671.81,-226.01 677.07,-230.63"/>
</g>
</g>
</svg>
