<?xml version="1.0" encoding="UTF-8" standalone="no"?>
<!DOCTYPE svg PUBLIC "-//W3C//DTD SVG 1.1//EN"
 "http://www.w3.org/Graphics/SVG/1.1/DTD/svg11.dtd">
<!-- Generated by graphviz version 2.43.0 (0)
 -->
<!-- Title: DeviceCommand Pages: 1 -->
<svg width="834pt" height="443pt"
 viewBox="0.00 0.00 834.00 442.84" xmlns="http://www.w3.org/2000/svg" xmlns:xlink="http://www.w3.org/1999/xlink">
<g id="graph0" class="graph" transform="scale(1 1) rotate(0) translate(4 438.84)">
<title>DeviceCommand</title>
<!-- Node1 -->
<g id="node1" class="node">
<title>Node1</title>
<g id="a_node1"><a xlink:title="The AbstractCommand class extends AbstractCommand to add a PokitDevice instance.">
<polygon fill="#bfbfbf" stroke="black" points="725,-333.5 725,-352.5 826,-352.5 826,-333.5 725,-333.5"/>
<text text-anchor="middle" x="775.5" y="-340.5" font-family="Helvetica,sans-Serif" font-size="10.00">DeviceCommand</text>
</a>
</g>
</g>
<!-- Node2 -->
<g id="node2" class="node">
<title>Node2</title>
<g id="a_node2"><a xlink:href="classAbstractCommand.html" target="_top" xlink:title="The AbstractCommand class provides a consistent base for the classes that implement CLI commands.">
<polygon fill="none" stroke="black" points="579.5,-356.5 579.5,-375.5 686.5,-375.5 686.5,-356.5 579.5,-356.5"/>
<text text-anchor="middle" x="633" y="-363.5" font-family="Helvetica,sans-Serif" font-size="10.00">AbstractCommand</text>
</a>
</g>
</g>
<!-- Node2&#45;&gt;Node1 -->
<g id="edge1" class="edge">
<title>Node2&#45;&gt;Node1</title>
<path fill="none" stroke="midnightblue" d="M696.78,-355.72C706.15,-354.19 715.69,-352.63 724.74,-351.15"/>
<polygon fill="midnightblue" stroke="midnightblue" points="696.02,-352.3 686.72,-357.37 697.15,-359.21 696.02,-352.3"/>
</g>
<!-- Node3 -->
<g id="node3" class="node">
<title>Node3</title>
<g id="a_node3"><a xlink:title=" ">
<polygon fill="none" stroke="#bfbfbf" points="0,-247.5 0,-266.5 56,-266.5 56,-247.5 0,-247.5"/>
<text text-anchor="middle" x="28" y="-254.5" font-family="Helvetica,sans-Serif" font-size="10.00">QObject</text>
</a>
</g>
</g>
<!-- Node3&#45;&gt;Node2 -->
<g id="edge2" class="edge">
<title>Node3&#45;&gt;Node2</title>
<path fill="none" stroke="midnightblue" d="M32.43,-276.71C38.67,-305.9 54.97,-359.66 93,-383 263.96,-487.91 526.29,-405.31 607.31,-375.58"/>
<polygon fill="midnightblue" stroke="midnightblue" points="35.79,-275.66 30.44,-266.52 28.92,-277 35.79,-275.66"/>
</g>
<!-- Node6 -->
<g id="node6" class="node">
<title>Node6</title>
<g id="a_node6"><a xlink:href="classPokitDiscoveryAgentPrivate.html" target="_top" xlink:title="The PokitDiscoveryAgentPrivate class provides private implementation for PokitDiscoveryAgent.">
<polygon fill="none" stroke="black" points="93.5,-354.5 93.5,-373.5 246.5,-373.5 246.5,-354.5 93.5,-354.5"/>
<text text-anchor="middle" x="170" y="-361.5" font-family="Helvetica,sans-Serif" font-size="10.00">PokitDiscoveryAgentPrivate</text>
</a>
</g>
</g>
<!-- Node3&#45;&gt;Node6 -->
<g id="edge6" class="edge">
<title>Node3&#45;&gt;Node6</title>
<path fill="none" stroke="midnightblue" d="M37.7,-275.81C48.02,-296.01 67.14,-327.56 93,-345 98.75,-348.88 105.23,-351.97 111.91,-354.42"/>
<polygon fill="midnightblue" stroke="midnightblue" points="40.76,-274.11 33.23,-266.66 34.47,-277.18 40.76,-274.11"/>
</g>
<!-- Node7 -->
<g id="node7" class="node">
<title>Node7</title>
<g id="a_node7"><a xlink:href="classPokitDevice.html" target="_top" xlink:title="The PokitDevice class simplifies Pokit device access.">
<polygon fill="none" stroke="black" points="349.5,-279.5 349.5,-298.5 424.5,-298.5 424.5,-279.5 349.5,-279.5"/>
<text text-anchor="middle" x="387" y="-286.5" font-family="Helvetica,sans-Serif" font-size="10.00">PokitDevice</text>
</a>
</g>
</g>
<!-- Node3&#45;&gt;Node7 -->
<g id="edge9" class="edge">
<title>Node3&#45;&gt;Node7</title>
<path fill="none" stroke="midnightblue" d="M66.49,-260.36C135.32,-266.53 281.01,-279.59 349.27,-285.71"/>
<polygon fill="midnightblue" stroke="midnightblue" points="66.4,-256.84 56.13,-259.43 65.77,-263.81 66.4,-256.84"/>
</g>
<!-- Node8 -->
<g id="node8" class="node">
<title>Node8</title>
<g id="a_node8"><a xlink:href="classPokitDevicePrivate.html" target="_top" xlink:title="The PokitDevicePrivate class provides private implementation for PokitDevice.">
<polygon fill="none" stroke="black" points="578,-170.5 578,-189.5 688,-189.5 688,-170.5 578,-170.5"/>
<text text-anchor="middle" x="633" y="-177.5" font-family="Helvetica,sans-Serif" font-size="10.00">PokitDevicePrivate</text>
</a>
</g>
</g>
<!-- Node3&#45;&gt;Node8 -->
<g id="edge11" class="edge">
<title>Node3&#45;&gt;Node8</title>
<path fill="none" stroke="midnightblue" d="M66.86,-254.27C142.34,-248.71 316.83,-235.19 463,-219 506.23,-214.21 517.75,-216.33 560,-206 576.91,-201.86 595.37,-195.15 609.36,-189.58"/>
<polygon fill="midnightblue" stroke="midnightblue" points="66.18,-250.81 56.46,-255.04 66.69,-257.79 66.18,-250.81"/>
</g>
<!-- Node10 -->
<g id="node10" class="node">
<title>Node10</title>
<g id="a_node10"><a xlink:href="classAbstractPokitService.html" target="_top" xlink:title="The AbstractPokitService class provides a common base for Pokit services classes.">
<polygon fill="none" stroke="black" points="111,-106.5 111,-125.5 229,-125.5 229,-106.5 111,-106.5"/>
<text text-anchor="middle" x="170" y="-113.5" font-family="Helvetica,sans-Serif" font-size="10.00">AbstractPokitService</text>
</a>
</g>
</g>
<!-- Node3&#45;&gt;Node10 -->
<g id="edge14" class="edge">
<title>Node3&#45;&gt;Node10</title>
<path fill="none" stroke="midnightblue" d="M45.75,-240.13C75.3,-210.37 135.76,-149.48 159.31,-125.76"/>
<polygon fill="midnightblue" stroke="midnightblue" points="43.18,-237.75 38.62,-247.31 48.15,-242.68 43.18,-237.75"/>
</g>
<!-- Node11 -->
<g id="node11" class="node">
<title>Node11</title>
<g id="a_node11"><a xlink:href="classAbstractPokitServicePrivate.html" target="_top" xlink:title="The AbstractPokitServicePrivate class provides private implementation for AbstractPokitService.">
<polygon fill="none" stroke="black" points="311,-0.5 311,-19.5 463,-19.5 463,-0.5 311,-0.5"/>
<text text-anchor="middle" x="387" y="-7.5" font-family="Helvetica,sans-Serif" font-size="10.00">AbstractPokitServicePrivate</text>
</a>
</g>
</g>
<!-- Node3&#45;&gt;Node11 -->
<g id="edge16" class="edge">
<title>Node3&#45;&gt;Node11</title>
<path fill="none" stroke="midnightblue" d="M32.27,-237.42C38.64,-204.72 55.51,-138.51 93,-97 150.83,-32.97 181.22,-27.6 265,-7 279.59,-3.41 295.47,-2.06 310.78,-1.98"/>
<polygon fill="midnightblue" stroke="midnightblue" points="28.79,-237.03 30.44,-247.49 35.67,-238.28 28.79,-237.03"/>
</g>
<!-- Node4 -->
<g id="node4" class="node">
<title>Node4</title>
<g id="a_node4"><a xlink:href="classPokitDiscoveryAgent.html" target="_top" xlink:title="The PokitDiscoveryAgent class discovers nearby Pokit devices.">
<polygon fill="none" stroke="black" points="327.5,-346.5 327.5,-365.5 446.5,-365.5 446.5,-346.5 327.5,-346.5"/>
<text text-anchor="middle" x="387" y="-353.5" font-family="Helvetica,sans-Serif" font-size="10.00">PokitDiscoveryAgent</text>
</a>
</g>
</g>
<!-- Node4&#45;&gt;Node2 -->
<g id="edge3" class="edge">
<title>Node4&#45;&gt;Node2</title>
<path fill="none" stroke="#9a32cd" stroke-dasharray="5,2" d="M456.92,-358.82C495.7,-360.41 543.36,-362.37 579.16,-363.83"/>
<polygon fill="#9a32cd" stroke="#9a32cd" points="456.89,-355.32 446.75,-358.41 456.6,-362.31 456.89,-355.32"/>
<text text-anchor="middle" x="520.5" y="-366" font-family="Helvetica,sans-Serif" font-size="10.00"> discoveryAgent</text>
</g>
<!-- Node4&#45;&gt;Node6 -->
<g id="edge7" class="edge">
<title>Node4&#45;&gt;Node6</title>
<path fill="none" stroke="#9a32cd" stroke-dasharray="5,2" d="M317.07,-351.42C300.04,-350.92 281.85,-350.93 265,-352 255.97,-352.57 246.48,-353.46 237.15,-354.49"/>
<polygon fill="#9a32cd" stroke="#9a32cd" points="317.38,-354.93 327.5,-351.79 317.63,-347.94 317.38,-354.93"/>
<text text-anchor="middle" x="279" y="-355" font-family="Helvetica,sans-Serif" font-size="10.00"> q_ptr</text>
</g>
<!-- Node5 -->
<g id="node5" class="node">
<title>Node5</title>
<g id="a_node5"><a xlink:title=" ">
<polygon fill="none" stroke="#bfbfbf" points="93,-305 93,-335 247,-335 247,-305 93,-305"/>
<text text-anchor="start" x="101" y="-323" font-family="Helvetica,sans-Serif" font-size="10.00">QBluetoothDeviceDiscovery</text>
<text text-anchor="middle" x="170" y="-312" font-family="Helvetica,sans-Serif" font-size="10.00">Agent</text>
</a>
</g>
</g>
<!-- Node5&#45;&gt;Node4 -->
<g id="edge4" class="edge">
<title>Node5&#45;&gt;Node4</title>
<path fill="none" stroke="midnightblue" d="M257,-334.4C281.19,-338.45 306.9,-342.76 328.95,-346.45"/>
<polygon fill="midnightblue" stroke="midnightblue" points="257.54,-330.94 247.1,-332.74 256.39,-337.85 257.54,-330.94"/>
</g>
<!-- Node6&#45;&gt;Node4 -->
<g id="edge5" class="edge">
<title>Node6&#45;&gt;Node4</title>
<path fill="none" stroke="#9a32cd" stroke-dasharray="5,2" d="M256.7,-365.92C268.89,-365.84 281.26,-365.57 293,-365 304.02,-364.47 315.74,-363.58 327.03,-362.57"/>
<polygon fill="#9a32cd" stroke="#9a32cd" points="256.51,-362.42 246.52,-365.95 256.53,-369.42 256.51,-362.42"/>
<text text-anchor="middle" x="279" y="-368" font-family="Helvetica,sans-Serif" font-size="10.00"> d_ptr</text>
</g>
<!-- Node7&#45;&gt;Node1 -->
<g id="edge8" class="edge">
<title>Node7&#45;&gt;Node1</title>
<path fill="none" stroke="#9a32cd" stroke-dasharray="5,2" d="M431.61,-301.1C447.11,-305.05 464.74,-309.14 481,-312 526.55,-320 653.77,-332.13 724.86,-338.59"/>
<polygon fill="#9a32cd" stroke="#9a32cd" points="432.33,-297.67 421.77,-298.54 430.57,-304.44 432.33,-297.67"/>
<text text-anchor="middle" x="633" y="-338" font-family="Helvetica,sans-Serif" font-size="10.00"> device</text>
</g>
<!-- Node7&#45;&gt;Node8 -->
<g id="edge26" class="edge">
<title>Node7&#45;&gt;Node8</title>
<path fill="none" stroke="#9a32cd" stroke-dasharray="5,2" d="M435.03,-296.67C471.38,-300.24 521.77,-299.88 560,-279 597.11,-258.72 620.03,-210.15 628.4,-189.52"/>
<polygon fill="#9a32cd" stroke="#9a32cd" points="435.03,-293.15 424.7,-295.52 434.25,-300.11 435.03,-293.15"/>
<text text-anchor="middle" x="520.5" y="-300" font-family="Helvetica,sans-Serif" font-size="10.00"> q_ptr</text>
</g>
<!-- Node8&#45;&gt;Node7 -->
<g id="edge10" class="edge">
<title>Node8&#45;&gt;Node7</title>
<path fill="none" stroke="#9a32cd" stroke-dasharray="5,2" d="M617.21,-197.43C603.75,-212.21 582.58,-232.89 560,-245 548.08,-251.39 471.67,-269.7 424.79,-280.58"/>
<polygon fill="#9a32cd" stroke="#9a32cd" points="620.2,-199.33 624.2,-189.52 614.96,-194.7 620.2,-199.33"/>
<text text-anchor="middle" x="520.5" y="-269" font-family="Helvetica,sans-Serif" font-size="10.00"> d_ptr</text>
</g>
<!-- Node9 -->
<g id="node9" class="node">
<title>Node9</title>
<g id="a_node9"><a xlink:href="classCalibrationService.html" target="_top" xlink:title="The CalibrationService class accesses the Calibrartion service of Pokit devices.">
<polygon fill="none" stroke="black" points="334,-190.5 334,-209.5 440,-209.5 440,-190.5 334,-190.5"/>
<text text-anchor="middle" x="387" y="-197.5" font-family="Helvetica,sans-Serif" font-size="10.00">CalibrationService</text>
</a>
</g>
</g>
<!-- Node9&#45;&gt;Node8 -->
<g id="edge12" class="edge">
<title>Node9&#45;&gt;Node8</title>
<path fill="none" stroke="#9a32cd" stroke-dasharray="5,2" d="M450.08,-194.91C489.54,-191.68 540.12,-187.53 577.92,-184.43"/>
<polygon fill="#9a32cd" stroke="#9a32cd" points="449.73,-191.43 440.04,-195.73 450.3,-198.41 449.73,-191.43"/>
<text text-anchor="middle" x="520.5" y="-194" font-family="Helvetica,sans-Serif" font-size="10.00"> calibration</text>
</g>
<!-- Node10&#45;&gt;Node9 -->
<g id="edge13" class="edge">
<title>Node10&#45;&gt;Node9</title>
<path fill="none" stroke="midnightblue" d="M197.73,-130.24C225.45,-144.57 270.34,-166.55 311,-181 321,-184.55 331.97,-187.72 342.36,-190.41"/>
<polygon fill="midnightblue" stroke="midnightblue" points="199.16,-127.04 188.67,-125.51 195.92,-133.24 199.16,-127.04"/>
</g>
<!-- Node10&#45;&gt;Node11 -->
<g id="edge17" class="edge">
<title>Node10&#45;&gt;Node11</title>
<path fill="none" stroke="#9a32cd" stroke-dasharray="5,2" d="M191.47,-100.44C217.8,-81.1 265.57,-48.32 311,-29 319.78,-25.27 329.45,-22.14 338.86,-19.58"/>
<polygon fill="#9a32cd" stroke="#9a32cd" points="189.33,-97.66 183.39,-106.44 193.51,-103.28 189.33,-97.66"/>
<text text-anchor="middle" x="279" y="-55" font-family="Helvetica,sans-Serif" font-size="10.00"> q_ptr</text>
</g>
<!-- Node12 -->
<g id="node12" class="node">
<title>Node12</title>
<g id="a_node12"><a xlink:href="classDeviceInfoService.html" target="_top" xlink:title="The DeviceInfoService class accesses the Device Info service of Pokit devices.">
<polygon fill="none" stroke="black" points="334.5,-152.5 334.5,-171.5 439.5,-171.5 439.5,-152.5 334.5,-152.5"/>
<text text-anchor="middle" x="387" y="-159.5" font-family="Helvetica,sans-Serif" font-size="10.00">DeviceInfoService</text>
</a>
</g>
</g>
<!-- Node10&#45;&gt;Node12 -->
<g id="edge19" class="edge">
<title>Node10&#45;&gt;Node12</title>
<path fill="none" stroke="midnightblue" d="M225.38,-127.63C261.3,-135.32 307.8,-145.27 341.51,-152.48"/>
<polygon fill="midnightblue" stroke="midnightblue" points="226.06,-124.2 215.55,-125.53 224.59,-131.05 226.06,-124.2"/>
</g>
<!-- Node13 -->
<g id="node13" class="node">
<title>Node13</title>
<g id="a_node13"><a xlink:href="classGenericAccessService.html" target="_top" xlink:title="The GenericAccessService class accesses the Generic Access service of Pokit devices.">
<polygon fill="none" stroke="black" points="325,-114.5 325,-133.5 449,-133.5 449,-114.5 325,-114.5"/>
<text text-anchor="middle" x="387" y="-121.5" font-family="Helvetica,sans-Serif" font-size="10.00">GenericAccessService</text>
</a>
</g>
</g>
<!-- Node10&#45;&gt;Node13 -->
<g id="edge21" class="edge">
<title>Node10&#45;&gt;Node13</title>
<path fill="none" stroke="midnightblue" d="M239.47,-118.55C266.85,-119.57 298.15,-120.73 324.76,-121.72"/>
<polygon fill="midnightblue" stroke="midnightblue" points="239.31,-115.04 229.18,-118.16 239.05,-122.03 239.31,-115.04"/>
</g>
<!-- Node14 -->
<g id="node14" class="node">
<title>Node14</title>
<g id="a_node14"><a xlink:href="classMultimeterService.html" target="_top" xlink:title="The MultimeterService class accesses the Pokit Status service of Pokit devices.">
<polygon fill="none" stroke="black" points="333.5,-76.5 333.5,-95.5 440.5,-95.5 440.5,-76.5 333.5,-76.5"/>
<text text-anchor="middle" x="387" y="-83.5" font-family="Helvetica,sans-Serif" font-size="10.00">MultimeterService</text>
</a>
</g>
</g>
<!-- Node10&#45;&gt;Node14 -->
<g id="edge23" class="edge">
<title>Node10&#45;&gt;Node14</title>
<path fill="none" stroke="midnightblue" d="M239.29,-106.47C269.7,-102.23 304.96,-97.31 333.29,-93.35"/>
<polygon fill="midnightblue" stroke="midnightblue" points="238.6,-103.03 229.18,-107.88 239.57,-109.97 238.6,-103.03"/>
</g>
<!-- Node15 -->
<g id="node15" class="node">
<title>Node15</title>
<g id="a_node15"><a xlink:href="classStatusService.html" target="_top" xlink:title="The StatusService class accesses the Pokit Status service of Pokit devices.">
<polygon fill="none" stroke="black" points="345.5,-38.5 345.5,-57.5 428.5,-57.5 428.5,-38.5 345.5,-38.5"/>
<text text-anchor="middle" x="387" y="-45.5" font-family="Helvetica,sans-Serif" font-size="10.00">StatusService</text>
</a>
</g>
</g>
<!-- Node10&#45;&gt;Node15 -->
<g id="edge25" class="edge">
<title>Node10&#45;&gt;Node15</title>
<path fill="none" stroke="midnightblue" d="M205.47,-102.98C233.64,-92.57 274.6,-77.96 311,-67 322.19,-63.63 334.44,-60.36 345.73,-57.5"/>
<polygon fill="midnightblue" stroke="midnightblue" points="204.23,-99.71 196.07,-106.47 206.66,-106.27 204.23,-99.71"/>
</g>
<!-- Node11&#45;&gt;Node10 -->
<g id="edge15" class="edge">
<title>Node11&#45;&gt;Node10</title>
<path fill="none" stroke="#9a32cd" stroke-dasharray="5,2" d="M300.93,-8.49C288.49,-10.48 276.14,-13.79 265,-19 222.94,-38.68 189.71,-85.94 176.81,-106.35"/>
<polygon fill="#9a32cd" stroke="#9a32cd" points="301.44,-11.95 310.89,-7.16 300.52,-5.01 301.44,-11.95"/>
<text text-anchor="middle" x="279" y="-22" font-family="Helvetica,sans-Serif" font-size="10.00"> d_ptr</text>
</g>
<!-- Node12&#45;&gt;Node8 -->
<g id="edge18" class="edge">
<title>Node12&#45;&gt;Node8</title>
<path fill="none" stroke="#9a32cd" stroke-dasharray="5,2" d="M450.06,-160.28C482.85,-160.07 523.71,-160.94 560,-165 570.79,-166.21 582.35,-168.27 592.98,-170.48"/>
<polygon fill="#9a32cd" stroke="#9a32cd" points="449.68,-156.78 439.72,-160.38 449.75,-163.78 449.68,-156.78"/>
<text text-anchor="middle" x="520.5" y="-168" font-family="Helvetica,sans-Serif" font-size="10.00"> deviceInfo</text>
</g>
<!-- Node13&#45;&gt;Node8 -->
<g id="edge20" class="edge">
<title>Node13&#45;&gt;Node8</title>
<path fill="none" stroke="#9a32cd" stroke-dasharray="5,2" d="M459.08,-127.38C490.5,-130.22 527.59,-135.43 560,-145 580.4,-151.02 602.13,-162.35 616.32,-170.48"/>
<polygon fill="#9a32cd" stroke="#9a32cd" points="459.35,-123.89 449.09,-126.54 458.76,-130.87 459.35,-123.89"/>
<text text-anchor="middle" x="520.5" y="-148" font-family="Helvetica,sans-Serif" font-size="10.00"> genericAccess</text>
</g>
<!-- Node14&#45;&gt;Node8 -->
<g id="edge22" class="edge">
<title>Node14&#45;&gt;Node8</title>
<path fill="none" stroke="#9a32cd" stroke-dasharray="5,2" d="M450.98,-87.58C484.73,-90.53 526.2,-97.61 560,-114 587.77,-127.47 612.44,-155.15 624.39,-170.02"/>
<polygon fill="#9a32cd" stroke="#9a32cd" points="451.01,-84.08 440.77,-86.8 450.47,-91.06 451.01,-84.08"/>
<text text-anchor="middle" x="520.5" y="-117" font-family="Helvetica,sans-Serif" font-size="10.00"> multimeter</text>
</g>
<!-- Node15&#45;&gt;Node8 -->
<g id="edge24" class="edge">
<title>Node15&#45;&gt;Node8</title>
<path fill="none" stroke="#9a32cd" stroke-dasharray="5,2" d="M439.04,-46.48C475.35,-47.69 523.89,-54.17 560,-77 596.7,-100.21 619.85,-149.57 628.34,-170.41"/>
<polygon fill="#9a32cd" stroke="#9a32cd" points="438.74,-42.97 428.67,-46.27 438.59,-49.97 438.74,-42.97"/>
<text text-anchor="middle" x="520.5" y="-80" font-family="Helvetica,sans-Serif" font-size="10.00"> status</text>
</g>
</g>
</svg>
