<?xml version="1.0" encoding="UTF-8" standalone="no"?>
<!DOCTYPE svg PUBLIC "-//W3C//DTD SVG 1.1//EN"
 "http://www.w3.org/Graphics/SVG/1.1/DTD/svg11.dtd">
<!-- Generated by graphviz version 2.43.0 (0)
 -->
<!-- Title: LoggerStartCommand::settingsWritten Pages: 1 -->
<svg width="293pt" height="66pt"
 viewBox="0.00 0.00 293.00 66.00" xmlns="http://www.w3.org/2000/svg" xmlns:xlink="http://www.w3.org/1999/xlink">
<g id="graph0" class="graph" transform="scale(1 1) rotate(0) translate(4 62)">
<title>LoggerStartCommand::settingsWritten</title>
<!-- Node1 -->
<g id="node1" class="node">
<title>Node1</title>
<g id="a_node1"><a xlink:title="Invoked when the data logger settings have been written.">
<polygon fill="#bfbfbf" stroke="black" points="0,-14 0,-44 123,-44 123,-14 0,-14"/>
<text text-anchor="start" x="8" y="-32" font-family="Helvetica,sans-Serif" font-size="10.00">LoggerStartCommand</text>
<text text-anchor="middle" x="61.5" y="-21" font-family="Helvetica,sans-Serif" font-size="10.00">::settingsWritten</text>
</a>
</g>
</g>
<!-- Node2 -->
<g id="node2" class="node">
<title>Node2</title>
<g id="a_node2"><a target="_parent" xlink:href="https://doc.qt.io/qt-5/qcoreapplication.html#exit" xlink:title=" ">
<polygon fill="none" stroke="black" points="159,-38.5 159,-57.5 285,-57.5 285,-38.5 159,-38.5"/>
<text text-anchor="middle" x="222" y="-45.5" font-family="Helvetica,sans-Serif" font-size="10.00">QCoreApplication::exit</text>
</a>
</g>
</g>
<!-- Node1&#45;&gt;Node2 -->
<g id="edge1" class="edge">
<title>Node1&#45;&gt;Node2</title>
<path fill="none" stroke="midnightblue" d="M123.33,-36.29C131.67,-37.29 140.31,-38.33 148.83,-39.35"/>
<polygon fill="midnightblue" stroke="midnightblue" points="148.42,-42.82 158.76,-40.54 149.25,-35.87 148.42,-42.82"/>
</g>
<!-- Node3 -->
<g id="node3" class="node">
<title>Node3</title>
<g id="a_node3"><a target="_parent" xlink:href="https://doc.qt.io/qt-5/qobject.html#tr" xlink:title=" ">
<polygon fill="none" stroke="black" points="187.5,-0.5 187.5,-19.5 256.5,-19.5 256.5,-0.5 187.5,-0.5"/>
<text text-anchor="middle" x="222" y="-7.5" font-family="Helvetica,sans-Serif" font-size="10.00">QObject::tr</text>
</a>
</g>
</g>
<!-- Node1&#45;&gt;Node3 -->
<g id="edge2" class="edge">
<title>Node1&#45;&gt;Node3</title>
<path fill="none" stroke="midnightblue" d="M123.33,-21.71C141.26,-19.56 160.52,-17.25 177.16,-15.26"/>
<polygon fill="midnightblue" stroke="midnightblue" points="177.63,-18.72 187.14,-14.06 176.8,-11.77 177.63,-18.72"/>
</g>
</g>
</svg>
