<?xml version="1.0" encoding="UTF-8" standalone="no"?>
<!DOCTYPE svg PUBLIC "-//W3C//DTD SVG 1.1//EN"
 "http://www.w3.org/Graphics/SVG/1.1/DTD/svg11.dtd">
<!-- Generated by graphviz version 2.43.0 (0)
 -->
<!-- Title: FlashLedCommand::start Pages: 1 -->
<svg width="515pt" height="221pt"
 viewBox="0.00 0.00 515.00 221.00" xmlns="http://www.w3.org/2000/svg" xmlns:xlink="http://www.w3.org/1999/xlink">
<g id="graph0" class="graph" transform="scale(1 1) rotate(0) translate(4 217)">
<title>FlashLedCommand::start</title>
<!-- Node1 -->
<g id="node1" class="node">
<title>Node1</title>
<g id="a_node1"><a xlink:title="Begins scanning for Pokit devices.">
<polygon fill="#bfbfbf" stroke="black" points="0,-100.5 0,-119.5 139,-119.5 139,-100.5 0,-100.5"/>
<text text-anchor="middle" x="69.5" y="-107.5" font-family="Helvetica,sans-Serif" font-size="10.00">FlashLedCommand::start</text>
</a>
</g>
</g>
<!-- Node2 -->
<g id="node2" class="node">
<title>Node2</title>
<g id="a_node2"><a xlink:href="classPokitDevice.html#a2e2fb6b30e6f5f0d7bc6cd8f806d6423" target="_top" xlink:title="Returns a non&#45;const pointer to the controller used to access the Pokit device.">
<polygon fill="none" stroke="black" points="194,-193.5 194,-212.5 322,-212.5 322,-193.5 194,-193.5"/>
<text text-anchor="middle" x="258" y="-200.5" font-family="Helvetica,sans-Serif" font-size="10.00">PokitDevice::controller</text>
</a>
</g>
</g>
<!-- Node1&#45;&gt;Node2 -->
<g id="edge1" class="edge">
<title>Node1&#45;&gt;Node2</title>
<path fill="none" stroke="midnightblue" d="M80.92,-119.52C98.8,-135.34 137.07,-166.98 175,-184 180.47,-186.45 186.28,-188.61 192.2,-190.5"/>
<polygon fill="midnightblue" stroke="midnightblue" points="191.63,-193.98 202.21,-193.43 193.6,-187.26 191.63,-193.98"/>
</g>
<!-- Node3 -->
<g id="node3" class="node">
<title>Node3</title>
<g id="a_node3"><a xlink:href="classFlashLedCommand.html#af7a5897fc7657f70466c82f5ed538ccb" target="_top" xlink:title="Handles StatusService::deviceLedFlashed events, by outputting the result and exiting.">
<polygon fill="none" stroke="black" points="175,-144 175,-174 341,-174 341,-144 175,-144"/>
<text text-anchor="start" x="183" y="-162" font-family="Helvetica,sans-Serif" font-size="10.00">FlashLedCommand::deviceLed</text>
<text text-anchor="middle" x="258" y="-151" font-family="Helvetica,sans-Serif" font-size="10.00">Flashed</text>
</a>
</g>
</g>
<!-- Node1&#45;&gt;Node3 -->
<g id="edge2" class="edge">
<title>Node1&#45;&gt;Node3</title>
<path fill="none" stroke="midnightblue" d="M106.9,-119.56C130.51,-125.77 161.99,-134.04 190.02,-141.4"/>
<polygon fill="midnightblue" stroke="midnightblue" points="189.21,-144.81 199.77,-143.96 190.99,-138.04 189.21,-144.81"/>
</g>
<!-- Node4 -->
<g id="node4" class="node">
<title>Node4</title>
<g id="a_node4"><a xlink:href="classFlashLedCommand.html#af1d7d155b35b4a3d6301b2653c0d7eb7" target="_top" xlink:title="Handles service detail discovery events.">
<polygon fill="none" stroke="black" points="182,-95 182,-125 334,-125 334,-95 182,-95"/>
<text text-anchor="start" x="190" y="-113" font-family="Helvetica,sans-Serif" font-size="10.00">FlashLedCommand::service</text>
<text text-anchor="middle" x="258" y="-102" font-family="Helvetica,sans-Serif" font-size="10.00">DetailsDiscovered</text>
</a>
</g>
</g>
<!-- Node1&#45;&gt;Node4 -->
<g id="edge3" class="edge">
<title>Node1&#45;&gt;Node4</title>
<path fill="none" stroke="midnightblue" d="M139.15,-110C149.81,-110 160.92,-110 171.89,-110"/>
<polygon fill="midnightblue" stroke="midnightblue" points="171.9,-113.5 181.9,-110 171.9,-106.5 171.9,-113.5"/>
</g>
<!-- Node6 -->
<g id="node6" class="node">
<title>Node6</title>
<g id="a_node6"><a xlink:href="classDeviceCommand.html#a96208c78728c0068e7a78f961b913751" target="_top" xlink:title="Handles service error events.">
<polygon fill="none" stroke="black" points="175.5,-56.5 175.5,-75.5 340.5,-75.5 340.5,-56.5 175.5,-56.5"/>
<text text-anchor="middle" x="258" y="-63.5" font-family="Helvetica,sans-Serif" font-size="10.00">DeviceCommand::serviceError</text>
</a>
</g>
</g>
<!-- Node1&#45;&gt;Node6 -->
<g id="edge5" class="edge">
<title>Node1&#45;&gt;Node6</title>
<path fill="none" stroke="midnightblue" d="M110.97,-100.45C139.07,-93.82 176.72,-84.94 206.74,-77.86"/>
<polygon fill="midnightblue" stroke="midnightblue" points="207.68,-81.23 216.61,-75.53 206.07,-74.42 207.68,-81.23"/>
</g>
<!-- Node7 -->
<g id="node7" class="node">
<title>Node7</title>
<g id="a_node7"><a xlink:href="classPokitDevice.html#adaaaedcb434b3dda9608ad58192e9142" target="_top" xlink:title="Returns a pointer to StatusService instance that uses this device&#39;s controller for access.">
<polygon fill="none" stroke="black" points="202.5,-0.5 202.5,-19.5 313.5,-19.5 313.5,-0.5 202.5,-0.5"/>
<text text-anchor="middle" x="258" y="-7.5" font-family="Helvetica,sans-Serif" font-size="10.00">PokitDevice::status</text>
</a>
</g>
</g>
<!-- Node1&#45;&gt;Node7 -->
<g id="edge6" class="edge">
<title>Node1&#45;&gt;Node7</title>
<path fill="none" stroke="midnightblue" d="M85.06,-100.46C104.97,-87.6 141.98,-64.32 175,-47 190.88,-38.67 209.02,-30.36 224.19,-23.74"/>
<polygon fill="midnightblue" stroke="midnightblue" points="225.88,-26.82 233.68,-19.65 223.11,-20.4 225.88,-26.82"/>
</g>
<!-- Node5 -->
<g id="node5" class="node">
<title>Node5</title>
<g id="a_node5"><a xlink:href="classStatusService.html#a425bf65d42b24c4a621b312fcd152708" target="_top" xlink:title="Flash the Pokit device&#39;s LED.">
<polygon fill="none" stroke="black" points="377,-100.5 377,-119.5 507,-119.5 507,-100.5 377,-100.5"/>
<text text-anchor="middle" x="442" y="-107.5" font-family="Helvetica,sans-Serif" font-size="10.00">StatusService::flashLed</text>
</a>
</g>
</g>
<!-- Node4&#45;&gt;Node5 -->
<g id="edge4" class="edge">
<title>Node4&#45;&gt;Node5</title>
<path fill="none" stroke="midnightblue" d="M334.08,-110C344.84,-110 355.9,-110 366.65,-110"/>
<polygon fill="midnightblue" stroke="midnightblue" points="366.83,-113.5 376.83,-110 366.83,-106.5 366.83,-113.5"/>
</g>
<!-- Node7&#45;&gt;Node7 -->
<g id="edge7" class="edge">
<title>Node7&#45;&gt;Node7</title>
<path fill="none" stroke="midnightblue" d="M229.64,-19.76C215.84,-28.57 225.3,-38 258,-38 280.48,-38 291.98,-33.54 292.48,-27.89"/>
<polygon fill="midnightblue" stroke="midnightblue" points="295.17,-25.64 286.36,-19.76 289.58,-29.85 295.17,-25.64"/>
</g>
</g>
</svg>
