<?xml version="1.0" encoding="UTF-8" standalone="no"?>
<!DOCTYPE svg PUBLIC "-//W3C//DTD SVG 1.1//EN"
 "http://www.w3.org/Graphics/SVG/1.1/DTD/svg11.dtd">
<!-- Generated by graphviz version 2.43.0 (0)
 -->
<!-- Title: AbstractPokitService::pokitProduct Pages: 1 -->
<svg width="333pt" height="402pt"
 viewBox="0.00 0.00 333.00 402.00" xmlns="http://www.w3.org/2000/svg" xmlns:xlink="http://www.w3.org/1999/xlink">
<g id="graph0" class="graph" transform="scale(1 1) rotate(0) translate(4 398)">
<title>AbstractPokitService::pokitProduct</title>
<!-- Node1 -->
<g id="node1" class="node">
<title>Node1</title>
<g id="a_node1"><a xlink:title="Returns the Pokit product this service is attached to.">
<polygon fill="#999999" stroke="#666666" points="325,-212 207,-212 207,-182 325,-182 325,-212"/>
<text text-anchor="start" x="215" y="-200" font-family="Helvetica,sans-Serif" font-size="10.00">AbstractPokitService</text>
<text text-anchor="middle" x="266" y="-189" font-family="Helvetica,sans-Serif" font-size="10.00">::pokitProduct</text>
</a>
</g>
</g>
<!-- Node2 -->
<g id="node2" class="node">
<title>Node2</title>
<g id="a_node2"><a xlink:href="classDataLoggerService.html#ab2fb8703f5724589cdace781b47bb96d" target="_top" xlink:title="Returns the maximum value for range, or the string &quot;Auto&quot;.">
<polygon fill="white" stroke="#666666" points="143,-394 28,-394 28,-364 143,-364 143,-394"/>
<text text-anchor="start" x="36" y="-382" font-family="Helvetica,sans-Serif" font-size="10.00">DataLoggerService::</text>
<text text-anchor="middle" x="85.5" y="-371" font-family="Helvetica,sans-Serif" font-size="10.00">maxValue</text>
</a>
</g>
</g>
<!-- Node1&#45;&gt;Node2 -->
<g id="edge1" class="edge">
<title>Node1&#45;&gt;Node2</title>
<path fill="none" stroke="#63b8ff" d="M257.6,-219.88C245.25,-254.4 217.15,-319.52 171,-355 162.9,-361.23 153.25,-365.84 143.42,-369.25"/>
<polygon fill="#63b8ff" stroke="#63b8ff" points="260.27,-212.2 261.04,-220.94 258.95,-215.98 257.64,-219.76 257.64,-219.76 257.64,-219.76 258.95,-215.98 254.24,-218.58 260.27,-212.2 260.27,-212.2"/>
</g>
<!-- Node3 -->
<g id="node3" class="node">
<title>Node3</title>
<g id="a_node3"><a xlink:href="classDsoService.html#abd84505a298a555e421d9a80d59c6216" target="_top" xlink:title="Returns the maximum value for range, or the string &quot;Auto&quot;.">
<polygon fill="white" stroke="#666666" points="148.5,-345.5 22.5,-345.5 22.5,-326.5 148.5,-326.5 148.5,-345.5"/>
<text text-anchor="middle" x="85.5" y="-333.5" font-family="Helvetica,sans-Serif" font-size="10.00">DsoService::maxValue</text>
</a>
</g>
</g>
<!-- Node1&#45;&gt;Node3 -->
<g id="edge2" class="edge">
<title>Node1&#45;&gt;Node3</title>
<path fill="none" stroke="#63b8ff" d="M253.67,-219.5C238.63,-246.95 209.44,-292.7 171,-317 164.26,-321.26 156.7,-324.57 148.93,-327.14"/>
<polygon fill="#63b8ff" stroke="#63b8ff" points="257.53,-212.28 256.93,-221.03 255.64,-215.8 253.76,-219.33 253.76,-219.33 253.76,-219.33 255.64,-215.8 250.58,-217.63 257.53,-212.28 257.53,-212.28"/>
</g>
<!-- Node4 -->
<g id="node4" class="node">
<title>Node4</title>
<g id="a_node4"><a xlink:href="classMultimeterService.html#a80dd2c9eed94973bbc532ee42daee1fb" target="_top" xlink:title="Returns the maximum value for range, or the string &quot;Auto&quot;.">
<polygon fill="white" stroke="#666666" points="142,-308 29,-308 29,-278 142,-278 142,-308"/>
<text text-anchor="start" x="37" y="-296" font-family="Helvetica,sans-Serif" font-size="10.00">MultimeterService::</text>
<text text-anchor="middle" x="85.5" y="-285" font-family="Helvetica,sans-Serif" font-size="10.00">maxValue</text>
</a>
</g>
</g>
<!-- Node1&#45;&gt;Node4 -->
<g id="edge3" class="edge">
<title>Node1&#45;&gt;Node4</title>
<path fill="none" stroke="#63b8ff" d="M243.06,-217.69C224.98,-233.73 198,-255.45 171,-269 162,-273.52 152.03,-277.3 142.18,-280.42"/>
<polygon fill="#63b8ff" stroke="#63b8ff" points="249.3,-212.06 245.77,-220.09 246.33,-214.74 243.36,-217.41 243.36,-217.41 243.36,-217.41 246.33,-214.74 240.95,-214.74 249.3,-212.06 249.3,-212.06"/>
</g>
<!-- Node5 -->
<g id="node5" class="node">
<title>Node5</title>
<g id="a_node5"><a xlink:href="classDsoCommand.html#a57f3b6be35c7a6fdadfaa737177016a8" target="_top" xlink:title="Handles service detail discovery events.">
<polygon fill="white" stroke="#666666" points="166,-260 5,-260 5,-230 166,-230 166,-260"/>
<text text-anchor="start" x="13" y="-248" font-family="Helvetica,sans-Serif" font-size="10.00">DsoCommand::serviceDetails</text>
<text text-anchor="middle" x="85.5" y="-237" font-family="Helvetica,sans-Serif" font-size="10.00">Discovered</text>
</a>
</g>
</g>
<!-- Node1&#45;&gt;Node5 -->
<g id="edge4" class="edge">
<title>Node1&#45;&gt;Node5</title>
<path fill="none" stroke="#63b8ff" d="M201.17,-214.17C181.93,-219.34 160.97,-224.98 142.29,-230"/>
<polygon fill="#63b8ff" stroke="#63b8ff" points="209.01,-212.06 202.22,-217.61 205.15,-213.09 201.29,-214.13 201.29,-214.13 201.29,-214.13 205.15,-213.09 200.35,-210.66 209.01,-212.06 209.01,-212.06"/>
</g>
<!-- Node6 -->
<g id="node6" class="node">
<title>Node6</title>
<g id="a_node6"><a xlink:href="classLoggerStartCommand.html#ab1b0364c6a26ff893d5b58dea381e4d5" target="_top" xlink:title="Handles service detail discovery events.">
<polygon fill="white" stroke="#666666" points="159,-212 12,-212 12,-182 159,-182 159,-212"/>
<text text-anchor="start" x="20" y="-200" font-family="Helvetica,sans-Serif" font-size="10.00">LoggerStartCommand</text>
<text text-anchor="middle" x="85.5" y="-189" font-family="Helvetica,sans-Serif" font-size="10.00">::serviceDetailsDiscovered</text>
</a>
</g>
</g>
<!-- Node1&#45;&gt;Node6 -->
<g id="edge5" class="edge">
<title>Node1&#45;&gt;Node6</title>
<path fill="none" stroke="#63b8ff" d="M198.27,-197C185.5,-197 172.07,-197 159.12,-197"/>
<polygon fill="#63b8ff" stroke="#63b8ff" points="206.55,-197 198.55,-200.6 202.55,-197 198.55,-197 198.55,-197 198.55,-197 202.55,-197 198.55,-193.4 206.55,-197 206.55,-197"/>
</g>
<!-- Node7 -->
<g id="node7" class="node">
<title>Node7</title>
<g id="a_node7"><a xlink:href="classMeterCommand.html#aca51a018963bc384a24154cdb112a49b" target="_top" xlink:title="Handles service detail discovery events.">
<polygon fill="white" stroke="#666666" points="171,-164 0,-164 0,-134 171,-134 171,-164"/>
<text text-anchor="start" x="8" y="-152" font-family="Helvetica,sans-Serif" font-size="10.00">MeterCommand::serviceDetails</text>
<text text-anchor="middle" x="85.5" y="-141" font-family="Helvetica,sans-Serif" font-size="10.00">Discovered</text>
</a>
</g>
</g>
<!-- Node1&#45;&gt;Node7 -->
<g id="edge6" class="edge">
<title>Node1&#45;&gt;Node7</title>
<path fill="none" stroke="#63b8ff" d="M201.17,-179.83C181.93,-174.66 160.97,-169.02 142.29,-164"/>
<polygon fill="#63b8ff" stroke="#63b8ff" points="209.01,-181.94 200.35,-183.34 205.15,-180.91 201.29,-179.87 201.29,-179.87 201.29,-179.87 205.15,-180.91 202.22,-176.39 209.01,-181.94 209.01,-181.94"/>
</g>
<!-- Node8 -->
<g id="node8" class="node">
<title>Node8</title>
<g id="a_node8"><a xlink:href="classDataLoggerService.html#a6f92316f5c2c256b17a74c5ad38eeab8" target="_top" xlink:title="Returns range as a user&#45;friendly string, or a null QString if mode has no ranges.">
<polygon fill="white" stroke="#666666" points="143,-116 28,-116 28,-86 143,-86 143,-116"/>
<text text-anchor="start" x="36" y="-104" font-family="Helvetica,sans-Serif" font-size="10.00">DataLoggerService::</text>
<text text-anchor="middle" x="85.5" y="-93" font-family="Helvetica,sans-Serif" font-size="10.00">toString</text>
</a>
</g>
</g>
<!-- Node1&#45;&gt;Node8 -->
<g id="edge7" class="edge">
<title>Node1&#45;&gt;Node8</title>
<path fill="none" stroke="#63b8ff" d="M243.06,-176.31C224.98,-160.27 198,-138.55 171,-125 162.28,-120.62 152.63,-116.93 143.08,-113.86"/>
<polygon fill="#63b8ff" stroke="#63b8ff" points="249.3,-181.94 240.95,-179.26 246.33,-179.26 243.36,-176.59 243.36,-176.59 243.36,-176.59 246.33,-179.26 245.77,-173.91 249.3,-181.94 249.3,-181.94"/>
</g>
<!-- Node9 -->
<g id="node9" class="node">
<title>Node9</title>
<g id="a_node9"><a xlink:href="classDsoService.html#aa106091512457325081f1940ad70c9f7" target="_top" xlink:title="Returns range as a user&#45;friendly string, or a null QString if mode has no ranges.">
<polygon fill="white" stroke="#666666" points="143.5,-67.5 27.5,-67.5 27.5,-48.5 143.5,-48.5 143.5,-67.5"/>
<text text-anchor="middle" x="85.5" y="-55.5" font-family="Helvetica,sans-Serif" font-size="10.00">DsoService::toString</text>
</a>
</g>
</g>
<!-- Node1&#45;&gt;Node9 -->
<g id="edge8" class="edge">
<title>Node1&#45;&gt;Node9</title>
<path fill="none" stroke="#63b8ff" d="M253.67,-174.5C238.63,-147.05 209.44,-101.3 171,-77 162.74,-71.78 153.22,-67.98 143.63,-65.23"/>
<polygon fill="#63b8ff" stroke="#63b8ff" points="257.53,-181.72 250.58,-176.37 255.64,-178.2 253.76,-174.67 253.76,-174.67 253.76,-174.67 255.64,-178.2 256.93,-172.97 257.53,-181.72 257.53,-181.72"/>
</g>
<!-- Node10 -->
<g id="node10" class="node">
<title>Node10</title>
<g id="a_node10"><a xlink:href="classMultimeterService.html#ade75432f62ac592509c4583a415ec04b" target="_top" xlink:title="Returns range as a user&#45;friendly string, or a null QString if mode has no ranges.">
<polygon fill="white" stroke="#666666" points="142,-30 29,-30 29,0 142,0 142,-30"/>
<text text-anchor="start" x="37" y="-18" font-family="Helvetica,sans-Serif" font-size="10.00">MultimeterService::</text>
<text text-anchor="middle" x="85.5" y="-7" font-family="Helvetica,sans-Serif" font-size="10.00">toString</text>
</a>
</g>
</g>
<!-- Node1&#45;&gt;Node10 -->
<g id="edge9" class="edge">
<title>Node1&#45;&gt;Node10</title>
<path fill="none" stroke="#63b8ff" d="M257.51,-174.32C245.05,-140.1 216.79,-75.5 171,-40 162.54,-33.44 152.38,-28.6 142.1,-25.02"/>
<polygon fill="#63b8ff" stroke="#63b8ff" points="260.2,-181.94 254.14,-175.6 258.87,-178.17 257.54,-174.39 257.54,-174.39 257.54,-174.39 258.87,-178.17 260.93,-173.19 260.2,-181.94 260.2,-181.94"/>
</g>
</g>
</svg>
