<?xml version="1.0" encoding="UTF-8" standalone="no"?>
<!DOCTYPE svg PUBLIC "-//W3C//DTD SVG 1.1//EN"
 "http://www.w3.org/Graphics/SVG/1.1/DTD/svg11.dtd">
<!-- Generated by graphviz version 2.43.0 (0)
 -->
<!-- Title: StatusServicePrivate::characteristicRead Pages: 1 -->
<svg width="889pt" height="816pt"
 viewBox="0.00 0.00 889.00 815.50" xmlns="http://www.w3.org/2000/svg" xmlns:xlink="http://www.w3.org/1999/xlink">
<g id="graph0" class="graph" transform="scale(1 1) rotate(0) translate(4 811.5)">
<title>StatusServicePrivate::characteristicRead</title>
<!-- Node1 -->
<g id="node1" class="node">
<title>Node1</title>
<g id="a_node1"><a xlink:title="Implements AbstractPokitServicePrivate::characteristicRead to parse value, then emit a specialised si...">
<polygon fill="#bfbfbf" stroke="black" points="0,-337.5 0,-367.5 118,-367.5 118,-337.5 0,-337.5"/>
<text text-anchor="start" x="8" y="-355.5" font-family="Helvetica,sans-Serif" font-size="10.00">StatusServicePrivate</text>
<text text-anchor="middle" x="59" y="-344.5" font-family="Helvetica,sans-Serif" font-size="10.00">::characteristicRead</text>
</a>
</g>
</g>
<!-- Node2 -->
<g id="node2" class="node">
<title>Node2</title>
<g id="a_node2"><a target="_parent" xlink:href="https://doc.qt.io/qt-5/qstring.html#arg-11" xlink:title=" ">
<polygon fill="none" stroke="black" points="771.5,-321 771.5,-340 845.5,-340 845.5,-321 771.5,-321"/>
<text text-anchor="middle" x="808.5" y="-328" font-family="Helvetica,sans-Serif" font-size="10.00">QString::arg</text>
</a>
</g>
</g>
<!-- Node1&#45;&gt;Node2 -->
<g id="edge1" class="edge">
<title>Node1&#45;&gt;Node2</title>
<path fill="none" stroke="midnightblue" d="M63.94,-337.36C73.94,-301.21 103.18,-208.36 154,-147.5 220.69,-67.62 246.73,-44.72 346,-13.5 381.82,-2.24 695.53,-17.2 700,-20.5 724.7,-38.73 784.01,-246 802.14,-311.08"/>
<polygon fill="midnightblue" stroke="midnightblue" points="798.82,-312.18 804.86,-320.88 805.56,-310.31 798.82,-312.18"/>
</g>
<!-- Node3 -->
<g id="node3" class="node">
<title>Node3</title>
<g id="a_node3"><a xlink:href="classAbstractPokitServicePrivate.html#a84bef330c6ff124f1e460bb8949d82da" target="_top" xlink:title="Handles QLowEnergyService::characteristicRead events.">
<polygon fill="none" stroke="black" points="156,-589.5 156,-619.5 308,-619.5 308,-589.5 156,-589.5"/>
<text text-anchor="start" x="164" y="-607.5" font-family="Helvetica,sans-Serif" font-size="10.00">AbstractPokitServicePrivate</text>
<text text-anchor="middle" x="232" y="-596.5" font-family="Helvetica,sans-Serif" font-size="10.00">::characteristicRead</text>
</a>
</g>
</g>
<!-- Node1&#45;&gt;Node3 -->
<g id="edge2" class="edge">
<title>Node1&#45;&gt;Node3</title>
<path fill="none" stroke="midnightblue" d="M68.54,-367.62C84.45,-395.48 120.09,-456.56 154,-505.5 172.66,-532.44 196,-561.92 212.06,-581.64"/>
<polygon fill="midnightblue" stroke="midnightblue" points="209.42,-583.94 218.46,-589.46 214.83,-579.51 209.42,-583.94"/>
</g>
<!-- Node6 -->
<g id="node6" class="node">
<title>Node6</title>
<g id="a_node6"><a target="_parent" xlink:href="https://doc.qt.io/qt-5/qobject.html#tr" xlink:title=" ">
<polygon fill="none" stroke="black" points="582.5,-430 582.5,-449 651.5,-449 651.5,-430 582.5,-430"/>
<text text-anchor="middle" x="617" y="-437" font-family="Helvetica,sans-Serif" font-size="10.00">QObject::tr</text>
</a>
</g>
</g>
<!-- Node1&#45;&gt;Node6 -->
<g id="edge42" class="edge">
<title>Node1&#45;&gt;Node6</title>
<path fill="none" stroke="midnightblue" d="M84.13,-367.62C102.56,-378.39 128.95,-392.2 154,-399.5 302.8,-442.89 489.07,-443.64 572.31,-441.34"/>
<polygon fill="midnightblue" stroke="midnightblue" points="572.52,-444.84 582.41,-441.04 572.31,-437.84 572.52,-444.84"/>
</g>
<!-- Node14 -->
<g id="node14" class="node">
<title>Node14</title>
<g id="a_node14"><a target="_parent" xlink:href="https://doc.qt.io/qt-5/qlowenergycharacteristic.html#uuid" xlink:title=" ">
<polygon fill="none" stroke="black" points="349.5,-479.5 349.5,-509.5 494.5,-509.5 494.5,-479.5 349.5,-479.5"/>
<text text-anchor="start" x="357.5" y="-497.5" font-family="Helvetica,sans-Serif" font-size="10.00">QLowEnergyCharacteristic</text>
<text text-anchor="middle" x="422" y="-486.5" font-family="Helvetica,sans-Serif" font-size="10.00">::uuid</text>
</a>
</g>
</g>
<!-- Node1&#45;&gt;Node14 -->
<g id="edge43" class="edge">
<title>Node1&#45;&gt;Node14</title>
<path fill="none" stroke="midnightblue" d="M67.69,-367.63C81.29,-392.65 112.17,-442.07 154,-464.5 210.69,-494.9 283.8,-501.25 339.17,-500.65"/>
<polygon fill="midnightblue" stroke="midnightblue" points="339.36,-504.14 349.3,-500.45 339.23,-497.14 339.36,-504.14"/>
</g>
<!-- Node15 -->
<g id="node15" class="node">
<title>Node15</title>
<g id="a_node15"><a target="_parent" xlink:href="https://doc.qt.io/qt-5/qstring.html#fromUtf8" xlink:title=" ">
<polygon fill="none" stroke="black" points="180.5,-321 180.5,-340 283.5,-340 283.5,-321 180.5,-321"/>
<text text-anchor="middle" x="232" y="-328" font-family="Helvetica,sans-Serif" font-size="10.00">QString::fromUtf8</text>
</a>
</g>
</g>
<!-- Node1&#45;&gt;Node15 -->
<g id="edge18" class="edge">
<title>Node1&#45;&gt;Node15</title>
<path fill="none" stroke="midnightblue" d="M118.37,-344.99C135.04,-342.85 153.24,-340.5 170.05,-338.34"/>
<polygon fill="midnightblue" stroke="midnightblue" points="170.84,-341.77 180.32,-337.02 169.95,-334.83 170.84,-341.77"/>
</g>
<!-- Node16 -->
<g id="node16" class="node">
<title>Node16</title>
<g id="a_node16"><a target="_parent" xlink:href="https://doc.qt.io/qt-5/qlowenergycharacteristic.html#name" xlink:title=" ">
<polygon fill="none" stroke="black" points="159.5,-271.5 159.5,-301.5 304.5,-301.5 304.5,-271.5 159.5,-271.5"/>
<text text-anchor="start" x="167.5" y="-289.5" font-family="Helvetica,sans-Serif" font-size="10.00">QLowEnergyCharacteristic</text>
<text text-anchor="middle" x="232" y="-278.5" font-family="Helvetica,sans-Serif" font-size="10.00">::name</text>
</a>
</g>
</g>
<!-- Node1&#45;&gt;Node16 -->
<g id="edge19" class="edge">
<title>Node1&#45;&gt;Node16</title>
<path fill="none" stroke="midnightblue" d="M92.31,-337.48C110.29,-329.35 133.19,-319.39 154,-311.5 159.95,-309.24 166.2,-307 172.47,-304.84"/>
<polygon fill="midnightblue" stroke="midnightblue" points="173.93,-308.04 182.28,-301.52 171.69,-301.41 173.93,-308.04"/>
</g>
<!-- Node17 -->
<g id="node17" class="node">
<title>Node17</title>
<g id="a_node17"><a xlink:href="classStatusServicePrivate.html#a7bdbc14dbfe0a29bb0333c01890a6ced" target="_top" xlink:title="Parses the Device Characteristics value into a DeviceCharacteristics struct.">
<polygon fill="none" stroke="black" points="154,-359.5 154,-389.5 310,-389.5 310,-359.5 154,-359.5"/>
<text text-anchor="start" x="162" y="-377.5" font-family="Helvetica,sans-Serif" font-size="10.00">StatusServicePrivate</text>
<text text-anchor="middle" x="232" y="-366.5" font-family="Helvetica,sans-Serif" font-size="10.00">::parseDeviceCharacteristics</text>
</a>
</g>
</g>
<!-- Node1&#45;&gt;Node17 -->
<g id="edge20" class="edge">
<title>Node1&#45;&gt;Node17</title>
<path fill="none" stroke="midnightblue" d="M118.37,-360.01C126.58,-361.07 135.15,-362.17 143.76,-363.28"/>
<polygon fill="midnightblue" stroke="midnightblue" points="143.48,-366.77 153.84,-364.57 144.37,-359.83 143.48,-366.77"/>
</g>
<!-- Node21 -->
<g id="node21" class="node">
<title>Node21</title>
<g id="a_node21"><a xlink:href="classStatusServicePrivate.html#a3a6ff8ca3e9d7c884b269e52dd43aeb0" target="_top" xlink:title="Parses the Status value into a DeviceStatus and battery voltage.">
<polygon fill="none" stroke="black" points="173,-157.5 173,-187.5 291,-187.5 291,-157.5 173,-157.5"/>
<text text-anchor="start" x="181" y="-175.5" font-family="Helvetica,sans-Serif" font-size="10.00">StatusServicePrivate</text>
<text text-anchor="middle" x="232" y="-164.5" font-family="Helvetica,sans-Serif" font-size="10.00">::parseStatus</text>
</a>
</g>
</g>
<!-- Node1&#45;&gt;Node21 -->
<g id="edge30" class="edge">
<title>Node1&#45;&gt;Node21</title>
<path fill="none" stroke="midnightblue" d="M74.29,-337.46C104.34,-305.83 174.23,-232.26 209.63,-194.99"/>
<polygon fill="midnightblue" stroke="midnightblue" points="212.29,-197.28 216.64,-187.62 207.21,-192.46 212.29,-197.28"/>
</g>
<!-- Node3&#45;&gt;Node2 -->
<g id="edge3" class="edge">
<title>Node3&#45;&gt;Node2</title>
<path fill="none" stroke="midnightblue" d="M308.41,-615.64C424.61,-631.09 640.27,-652.35 700,-607.5 745.89,-573.04 715.79,-537.21 736,-483.5 754.67,-433.89 782.63,-378.04 797.45,-349.51"/>
<polygon fill="midnightblue" stroke="midnightblue" points="800.73,-350.78 802.27,-340.3 794.53,-347.53 800.73,-350.78"/>
</g>
<!-- Node4 -->
<g id="node4" class="node">
<title>Node4</title>
<g id="a_node4"><a xlink:href="classPokitDevice.html#a0a3e6078ce0a7c2d93171ef0f4183d61" target="_top" xlink:title="Returns a human&#45;readable name for the uuid characteristic, or a null QString if unknown.">
<polygon fill="none" stroke="black" points="351.5,-567.5 351.5,-597.5 492.5,-597.5 492.5,-567.5 351.5,-567.5"/>
<text text-anchor="start" x="359.5" y="-585.5" font-family="Helvetica,sans-Serif" font-size="10.00">PokitDevice::charcteristic</text>
<text text-anchor="middle" x="422" y="-574.5" font-family="Helvetica,sans-Serif" font-size="10.00">ToString</text>
</a>
</g>
</g>
<!-- Node3&#45;&gt;Node4 -->
<g id="edge4" class="edge">
<title>Node3&#45;&gt;Node4</title>
<path fill="none" stroke="midnightblue" d="M308.11,-595.71C319.08,-594.43 330.4,-593.1 341.44,-591.81"/>
<polygon fill="midnightblue" stroke="midnightblue" points="341.97,-595.27 351.49,-590.63 341.16,-588.32 341.97,-595.27"/>
</g>
<!-- Node3&#45;&gt;Node6 -->
<g id="edge16" class="edge">
<title>Node3&#45;&gt;Node6</title>
<path fill="none" stroke="midnightblue" d="M266.67,-589.39C288.91,-579.77 318.85,-567.46 346,-558.5 412.23,-536.64 434.42,-548.16 498,-519.5 535.65,-502.53 574.35,-473.7 596.73,-455.67"/>
<polygon fill="midnightblue" stroke="midnightblue" points="599.22,-458.16 604.75,-449.12 594.79,-452.74 599.22,-458.16"/>
</g>
<!-- Node7 -->
<g id="node7" class="node">
<title>Node7</title>
<g id="a_node7"><a target="_parent" xlink:href="https://doc.qt.io/qt-5/qbytearray.html#size" xlink:title=" ">
<polygon fill="none" stroke="black" points="759.5,-493 759.5,-512 857.5,-512 857.5,-493 759.5,-493"/>
<text text-anchor="middle" x="808.5" y="-500" font-family="Helvetica,sans-Serif" font-size="10.00">QByteArray::size</text>
</a>
</g>
</g>
<!-- Node3&#45;&gt;Node7 -->
<g id="edge7" class="edge">
<title>Node3&#45;&gt;Node7</title>
<path fill="none" stroke="midnightblue" d="M248.13,-619.77C268.35,-638.99 306.27,-670.99 346,-683.5 410.44,-703.79 430.82,-690.57 498,-683.5 589.29,-673.89 622.2,-689.21 700,-640.5 747.87,-610.53 782.92,-551.27 798.52,-521.1"/>
<polygon fill="midnightblue" stroke="midnightblue" points="801.69,-522.57 803.05,-512.07 795.44,-519.43 801.69,-522.57"/>
</g>
<!-- Node8 -->
<g id="node8" class="node">
<title>Node8</title>
<g id="a_node8"><a xlink:href="classAbstractPokitServicePrivate.html#af748600fc201fe47f29b58e8e93179d8" target="_top" xlink:title="Returns up to maxSize bytes of data as a human readable hexadecimal string.">
<polygon fill="none" stroke="black" points="541,-725.5 541,-755.5 693,-755.5 693,-725.5 541,-725.5"/>
<text text-anchor="start" x="549" y="-743.5" font-family="Helvetica,sans-Serif" font-size="10.00">AbstractPokitServicePrivate</text>
<text text-anchor="middle" x="617" y="-732.5" font-family="Helvetica,sans-Serif" font-size="10.00">::toHexString</text>
</a>
</g>
</g>
<!-- Node3&#45;&gt;Node8 -->
<g id="edge8" class="edge">
<title>Node3&#45;&gt;Node8</title>
<path fill="none" stroke="midnightblue" d="M242.99,-619.78C260.45,-645.01 299.15,-694.74 346,-716.5 403.66,-743.28 475.65,-748.48 530.79,-747.42"/>
<polygon fill="midnightblue" stroke="midnightblue" points="530.98,-750.91 540.89,-747.15 530.8,-743.92 530.98,-750.91"/>
</g>
<!-- Node13 -->
<g id="node13" class="node">
<title>Node13</title>
<g id="a_node13"><a target="_parent" xlink:href="https://doc.qt.io/qt-5/quuid.html#toString" xlink:title=" ">
<polygon fill="none" stroke="black" points="376.5,-655 376.5,-674 467.5,-674 467.5,-655 376.5,-655"/>
<text text-anchor="middle" x="422" y="-662" font-family="Helvetica,sans-Serif" font-size="10.00">QUuid::toString</text>
</a>
</g>
</g>
<!-- Node3&#45;&gt;Node13 -->
<g id="edge15" class="edge">
<title>Node3&#45;&gt;Node13</title>
<path fill="none" stroke="midnightblue" d="M280.44,-619.64C311.71,-629.62 352.19,-642.54 381.66,-651.95"/>
<polygon fill="midnightblue" stroke="midnightblue" points="380.62,-655.29 391.21,-654.99 382.75,-648.62 380.62,-655.29"/>
</g>
<!-- Node3&#45;&gt;Node14 -->
<g id="edge17" class="edge">
<title>Node3&#45;&gt;Node14</title>
<path fill="none" stroke="midnightblue" d="M251.3,-589.48C272.95,-572.22 310.53,-543.8 346,-524.5 353.18,-520.59 360.98,-516.91 368.75,-513.55"/>
<polygon fill="midnightblue" stroke="midnightblue" points="370.28,-516.7 378.16,-509.62 367.58,-510.25 370.28,-516.7"/>
</g>
<!-- Node5 -->
<g id="node5" class="node">
<title>Node5</title>
<g id="a_node5"><a target="_parent" xlink:href="https://doc.qt.io/qt-5/qbluetoothuuid.html#characteristicToString" xlink:title=" ">
<polygon fill="none" stroke="black" points="534,-567.5 534,-597.5 700,-597.5 700,-567.5 534,-567.5"/>
<text text-anchor="start" x="542" y="-585.5" font-family="Helvetica,sans-Serif" font-size="10.00">QBluetoothUuid::characteristic</text>
<text text-anchor="middle" x="617" y="-574.5" font-family="Helvetica,sans-Serif" font-size="10.00">ToString</text>
</a>
</g>
</g>
<!-- Node4&#45;&gt;Node5 -->
<g id="edge5" class="edge">
<title>Node4&#45;&gt;Node5</title>
<path fill="none" stroke="midnightblue" d="M492.68,-582.5C502.82,-582.5 513.4,-582.5 523.91,-582.5"/>
<polygon fill="midnightblue" stroke="midnightblue" points="523.94,-586 533.94,-582.5 523.94,-579 523.94,-586"/>
</g>
<!-- Node4&#45;&gt;Node6 -->
<g id="edge6" class="edge">
<title>Node4&#45;&gt;Node6</title>
<path fill="none" stroke="midnightblue" d="M468.8,-567.42C478.79,-563.26 489.04,-558.27 498,-552.5 540.45,-525.16 580.92,-481.21 601.64,-456.96"/>
<polygon fill="midnightblue" stroke="midnightblue" points="604.35,-459.17 608.11,-449.27 599,-454.66 604.35,-459.17"/>
</g>
<!-- Node8&#45;&gt;Node2 -->
<g id="edge9" class="edge">
<title>Node8&#45;&gt;Node2</title>
<path fill="none" stroke="midnightblue" d="M634.52,-725.18C653.26,-706.85 683.39,-674.36 700,-640.5 731.53,-576.23 712.72,-551.2 736,-483.5 753.32,-433.15 782.04,-377.25 797.28,-349"/>
<polygon fill="midnightblue" stroke="midnightblue" points="800.35,-350.68 802.06,-340.22 794.21,-347.33 800.35,-350.68"/>
</g>
<!-- Node8&#45;&gt;Node7 -->
<g id="edge13" class="edge">
<title>Node8&#45;&gt;Node7</title>
<path fill="none" stroke="midnightblue" d="M676.17,-725.44C684.77,-721.52 693.06,-716.61 700,-710.5 731.05,-683.14 780.73,-567.69 799.75,-521.61"/>
<polygon fill="midnightblue" stroke="midnightblue" points="803.06,-522.76 803.61,-512.18 796.58,-520.11 803.06,-522.76"/>
</g>
<!-- Node9 -->
<g id="node9" class="node">
<title>Node9</title>
<g id="a_node9"><a target="_parent" xlink:href="https://doc.qt.io/qt-5/qstring.html#fromLatin1" xlink:title=" ">
<polygon fill="none" stroke="black" points="752.5,-674 752.5,-693 864.5,-693 864.5,-674 752.5,-674"/>
<text text-anchor="middle" x="808.5" y="-681" font-family="Helvetica,sans-Serif" font-size="10.00">QString::fromLatin1</text>
</a>
</g>
</g>
<!-- Node8&#45;&gt;Node9 -->
<g id="edge10" class="edge">
<title>Node8&#45;&gt;Node9</title>
<path fill="none" stroke="midnightblue" d="M662.94,-725.42C684.89,-718.22 711.74,-709.63 736,-702.5 743.8,-700.21 752.11,-697.89 760.2,-695.7"/>
<polygon fill="midnightblue" stroke="midnightblue" points="761.17,-699.06 769.92,-693.1 759.35,-692.3 761.17,-699.06"/>
</g>
<!-- Node10 -->
<g id="node10" class="node">
<title>Node10</title>
<g id="a_node10"><a target="_parent" xlink:href="https://doc.qt.io/qt-5/qbytearray.html#left" xlink:title=" ">
<polygon fill="none" stroke="black" points="761.5,-788 761.5,-807 855.5,-807 855.5,-788 761.5,-788"/>
<text text-anchor="middle" x="808.5" y="-795" font-family="Helvetica,sans-Serif" font-size="10.00">QByteArray::left</text>
</a>
</g>
</g>
<!-- Node8&#45;&gt;Node10 -->
<g id="edge11" class="edge">
<title>Node8&#45;&gt;Node10</title>
<path fill="none" stroke="midnightblue" d="M662.94,-755.58C684.89,-762.78 711.74,-771.37 736,-778.5 743.8,-780.79 752.11,-783.11 760.2,-785.3"/>
<polygon fill="midnightblue" stroke="midnightblue" points="759.35,-788.7 769.92,-787.9 761.17,-781.94 759.35,-788.7"/>
</g>
<!-- Node11 -->
<g id="node11" class="node">
<title>Node11</title>
<g id="a_node11"><a target="_parent" xlink:href="https://doc.qt.io/qt-5/qbytearray.html#right" xlink:title=" ">
<polygon fill="none" stroke="black" points="758,-750 758,-769 859,-769 859,-750 758,-750"/>
<text text-anchor="middle" x="808.5" y="-757" font-family="Helvetica,sans-Serif" font-size="10.00">QByteArray::right</text>
</a>
</g>
</g>
<!-- Node8&#45;&gt;Node11 -->
<g id="edge12" class="edge">
<title>Node8&#45;&gt;Node11</title>
<path fill="none" stroke="midnightblue" d="M693.17,-748.04C711.31,-749.86 730.45,-751.77 747.77,-753.51"/>
<polygon fill="midnightblue" stroke="midnightblue" points="747.44,-757 757.74,-754.51 748.14,-750.03 747.44,-757"/>
</g>
<!-- Node12 -->
<g id="node12" class="node">
<title>Node12</title>
<g id="a_node12"><a target="_parent" xlink:href="https://doc.qt.io/qt-5/qbytearray.html#toHex" xlink:title=" ">
<polygon fill="none" stroke="black" points="755,-712 755,-731 862,-731 862,-712 755,-712"/>
<text text-anchor="middle" x="808.5" y="-719" font-family="Helvetica,sans-Serif" font-size="10.00">QByteArray::toHex</text>
</a>
</g>
</g>
<!-- Node8&#45;&gt;Node12 -->
<g id="edge14" class="edge">
<title>Node8&#45;&gt;Node12</title>
<path fill="none" stroke="midnightblue" d="M693.17,-732.96C710.28,-731.25 728.29,-729.44 744.82,-727.78"/>
<polygon fill="midnightblue" stroke="midnightblue" points="745.3,-731.25 754.9,-726.77 744.6,-724.29 745.3,-731.25"/>
</g>
<!-- Node17&#45;&gt;Node6 -->
<g id="edge29" class="edge">
<title>Node17&#45;&gt;Node6</title>
<path fill="none" stroke="midnightblue" d="M310.05,-387.58C388.68,-400.92 507.97,-421.17 571.89,-432.01"/>
<polygon fill="midnightblue" stroke="midnightblue" points="571.59,-435.51 582.03,-433.73 572.76,-428.61 571.59,-435.51"/>
</g>
<!-- Node18 -->
<g id="node18" class="node">
<title>Node18</title>
<g id="a_node18"><a xlink:href="classAbstractPokitServicePrivate.html#af8b480a950244540bfff7fc4b476a0ef" target="_top" xlink:title="Returns false if data is smaller than minSize, otherwise returns failOnMax if data is bigger than max...">
<polygon fill="none" stroke="black" points="346,-315.5 346,-345.5 498,-345.5 498,-315.5 346,-315.5"/>
<text text-anchor="start" x="354" y="-333.5" font-family="Helvetica,sans-Serif" font-size="10.00">AbstractPokitServicePrivate</text>
<text text-anchor="middle" x="422" y="-322.5" font-family="Helvetica,sans-Serif" font-size="10.00">::checkSize</text>
</a>
</g>
</g>
<!-- Node17&#45;&gt;Node18 -->
<g id="edge21" class="edge">
<title>Node17&#45;&gt;Node18</title>
<path fill="none" stroke="midnightblue" d="M297.17,-359.48C313.12,-355.75 330.34,-351.72 346.72,-347.88"/>
<polygon fill="midnightblue" stroke="midnightblue" points="347.86,-351.21 356.8,-345.53 346.26,-344.4 347.86,-351.21"/>
</g>
<!-- Node19 -->
<g id="node19" class="node">
<title>Node19</title>
<g id="a_node19"><a target="_parent" xlink:href="https://doc.qt.io/qt-5/qbytearray.html#mid" xlink:title=" ">
<polygon fill="none" stroke="black" points="568.5,-277 568.5,-296 665.5,-296 665.5,-277 568.5,-277"/>
<text text-anchor="middle" x="617" y="-284" font-family="Helvetica,sans-Serif" font-size="10.00">QByteArray::mid</text>
</a>
</g>
</g>
<!-- Node17&#45;&gt;Node19 -->
<g id="edge28" class="edge">
<title>Node17&#45;&gt;Node19</title>
<path fill="none" stroke="midnightblue" d="M291.42,-359.46C297.95,-356.65 304.29,-353.35 310,-349.5 330.66,-335.55 323.82,-317.87 346,-306.5 412.54,-272.38 500.66,-272.94 557.83,-278.26"/>
<polygon fill="midnightblue" stroke="midnightblue" points="557.83,-281.78 568.14,-279.3 558.54,-274.81 557.83,-281.78"/>
</g>
<!-- Node20 -->
<g id="node20" class="node">
<title>Node20</title>
<g id="a_node20"><a target="_parent" xlink:href="https://doc.qt.io/qt-5/qversionnumber.html#isNull" xlink:title=" ">
<polygon fill="none" stroke="black" points="355.5,-365 355.5,-384 488.5,-384 488.5,-365 355.5,-365"/>
<text text-anchor="middle" x="422" y="-372" font-family="Helvetica,sans-Serif" font-size="10.00">QVersionNumber::isNull</text>
</a>
</g>
</g>
<!-- Node17&#45;&gt;Node20 -->
<g id="edge27" class="edge">
<title>Node17&#45;&gt;Node20</title>
<path fill="none" stroke="midnightblue" d="M310.01,-374.5C321.62,-374.5 333.58,-374.5 345.16,-374.5"/>
<polygon fill="midnightblue" stroke="midnightblue" points="345.23,-378 355.23,-374.5 345.23,-371 345.23,-378"/>
</g>
<!-- Node18&#45;&gt;Node2 -->
<g id="edge22" class="edge">
<title>Node18&#45;&gt;Node2</title>
<path fill="none" stroke="midnightblue" d="M498.05,-330.5C576.1,-330.5 695.82,-330.5 761.11,-330.5"/>
<polygon fill="midnightblue" stroke="midnightblue" points="761.49,-334 771.49,-330.5 761.49,-327 761.49,-334"/>
</g>
<!-- Node18&#45;&gt;Node6 -->
<g id="edge26" class="edge">
<title>Node18&#45;&gt;Node6</title>
<path fill="none" stroke="midnightblue" d="M478.51,-345.52C485.31,-348.36 491.98,-351.67 498,-355.5 517.62,-368 515.65,-379.2 534,-393.5 550.04,-405.99 569.88,-417.22 586.03,-425.45"/>
<polygon fill="midnightblue" stroke="midnightblue" points="584.54,-428.62 595.05,-429.94 587.66,-422.36 584.54,-428.62"/>
</g>
<!-- Node18&#45;&gt;Node7 -->
<g id="edge24" class="edge">
<title>Node18&#45;&gt;Node7</title>
<path fill="none" stroke="midnightblue" d="M490.16,-345.54C547.88,-360.02 632.27,-384.99 700,-420.5 734.53,-438.61 769.51,-467.74 789.82,-485.97"/>
<polygon fill="midnightblue" stroke="midnightblue" points="787.59,-488.67 797.34,-492.82 792.31,-483.5 787.59,-488.67"/>
</g>
<!-- Node18&#45;&gt;Node8 -->
<g id="edge25" class="edge">
<title>Node18&#45;&gt;Node8</title>
<path fill="none" stroke="midnightblue" d="M486.61,-345.52C490.87,-348.31 494.75,-351.6 498,-355.5 570.49,-442.36 495.5,-501.11 534,-607.5 549.03,-649.03 578.1,-691.53 597.28,-716.97"/>
<polygon fill="midnightblue" stroke="midnightblue" points="594.75,-719.42 603.62,-725.22 600.31,-715.16 594.75,-719.42"/>
</g>
<!-- Node18&#45;&gt;Node19 -->
<g id="edge23" class="edge">
<title>Node18&#45;&gt;Node19</title>
<path fill="none" stroke="midnightblue" d="M488.88,-315.48C513.52,-309.86 541.12,-303.57 564.3,-298.29"/>
<polygon fill="midnightblue" stroke="midnightblue" points="565.3,-301.65 574.28,-296.01 563.75,-294.82 565.3,-301.65"/>
</g>
<!-- Node21&#45;&gt;Node2 -->
<g id="edge31" class="edge">
<title>Node21&#45;&gt;Node2</title>
<path fill="none" stroke="midnightblue" d="M255.15,-157.37C277.1,-143.36 312.23,-123.54 346,-115.5 500.19,-78.81 570.18,-67.58 700,-158.5 755.42,-197.31 788.2,-274.74 801.11,-310.97"/>
<polygon fill="midnightblue" stroke="midnightblue" points="797.93,-312.48 804.48,-320.8 804.55,-310.2 797.93,-312.48"/>
</g>
<!-- Node21&#45;&gt;Node6 -->
<g id="edge41" class="edge">
<title>Node21&#45;&gt;Node6</title>
<path fill="none" stroke="midnightblue" d="M262.97,-187.61C332.06,-222.44 496.71,-305.51 498,-306.5 542.59,-340.87 583.54,-393.77 603.4,-421.36"/>
<polygon fill="midnightblue" stroke="midnightblue" points="600.66,-423.55 609.3,-429.68 606.37,-419.5 600.66,-423.55"/>
</g>
<!-- Node21&#45;&gt;Node7 -->
<g id="edge35" class="edge">
<title>Node21&#45;&gt;Node7</title>
<path fill="none" stroke="midnightblue" d="M291.23,-166.35C389.22,-159.44 587.39,-160.8 700,-267.5 728.89,-294.88 719.57,-313.25 736,-349.5 757.99,-398.02 784.78,-454.74 798.48,-483.57"/>
<polygon fill="midnightblue" stroke="midnightblue" points="795.45,-485.34 802.9,-492.87 801.77,-482.34 795.45,-485.34"/>
</g>
<!-- Node21&#45;&gt;Node18 -->
<g id="edge33" class="edge">
<title>Node21&#45;&gt;Node18</title>
<path fill="none" stroke="midnightblue" d="M251.03,-187.65C284.57,-215.84 356.69,-276.45 395.32,-308.92"/>
<polygon fill="midnightblue" stroke="midnightblue" points="393.12,-311.64 403.03,-315.4 397.62,-306.28 393.12,-311.64"/>
</g>
<!-- Node21&#45;&gt;Node19 -->
<g id="edge34" class="edge">
<title>Node21&#45;&gt;Node19</title>
<path fill="none" stroke="midnightblue" d="M291.24,-182.9C345.51,-193.34 428.31,-211.22 498,-234.5 529.73,-245.1 564.61,-261.04 588.17,-272.48"/>
<polygon fill="midnightblue" stroke="midnightblue" points="586.7,-275.65 597.22,-276.92 589.78,-269.37 586.7,-275.65"/>
</g>
<!-- Node22 -->
<g id="node22" class="node">
<title>Node22</title>
<g id="a_node22"><a target="_parent" xlink:href="https://doc.qt.io/qt-5/qbytearray.html#at" xlink:title=" ">
<polygon fill="none" stroke="black" points="378,-125 378,-144 466,-144 466,-125 378,-125"/>
<text text-anchor="middle" x="422" y="-132" font-family="Helvetica,sans-Serif" font-size="10.00">QByteArray::at</text>
</a>
</g>
</g>
<!-- Node21&#45;&gt;Node22 -->
<g id="edge32" class="edge">
<title>Node21&#45;&gt;Node22</title>
<path fill="none" stroke="midnightblue" d="M291.2,-160.74C315.73,-155.78 344.09,-150.05 368.03,-145.21"/>
<polygon fill="midnightblue" stroke="midnightblue" points="368.89,-148.6 378,-143.19 367.5,-141.74 368.89,-148.6"/>
</g>
<!-- Node23 -->
<g id="node23" class="node">
<title>Node23</title>
<g id="a_node23"><a xlink:href="classStatusService.html#aac79e97cb114be25b2a6771d915f132d" target="_top" xlink:title="Returns a string version of the status enum label.">
<polygon fill="none" stroke="black" points="358,-49 358,-68 486,-68 486,-49 358,-49"/>
<text text-anchor="middle" x="422" y="-56" font-family="Helvetica,sans-Serif" font-size="10.00">StatusService::toString</text>
</a>
</g>
</g>
<!-- Node21&#45;&gt;Node23 -->
<g id="edge36" class="edge">
<title>Node21&#45;&gt;Node23</title>
<path fill="none" stroke="midnightblue" d="M248.16,-157.39C268.7,-137.66 307.3,-103.2 346,-82.5 354.23,-78.1 363.41,-74.33 372.44,-71.18"/>
<polygon fill="midnightblue" stroke="midnightblue" points="373.73,-74.45 382.14,-68.01 371.55,-67.8 373.73,-74.45"/>
</g>
<!-- Node24 -->
<g id="node24" class="node">
<title>Node24</title>
<g id="a_node24"><a xlink:href="classStatusService.html#ae7be4aae021ae50faef48ed2812eb6a7" target="_top" xlink:title="Returns the most recent value of the Status service&#39;s Status characteristic.">
<polygon fill="none" stroke="black" points="557.5,-30 557.5,-49 676.5,-49 676.5,-30 557.5,-30"/>
<text text-anchor="middle" x="617" y="-37" font-family="Helvetica,sans-Serif" font-size="10.00">StatusService::status</text>
</a>
</g>
</g>
<!-- Node23&#45;&gt;Node24 -->
<g id="edge37" class="edge">
<title>Node23&#45;&gt;Node24</title>
<path fill="none" stroke="midnightblue" d="M486.2,-52.28C505.67,-50.36 527.2,-48.24 547.04,-46.29"/>
<polygon fill="midnightblue" stroke="midnightblue" points="547.63,-49.75 557.24,-45.28 546.95,-42.78 547.63,-49.75"/>
</g>
<!-- Node24&#45;&gt;Node21 -->
<g id="edge39" class="edge">
<title>Node24&#45;&gt;Node21</title>
<path fill="none" stroke="midnightblue" d="M578.08,-29.94C523.82,-18.31 422.15,-4.27 346,-39.5 297.65,-61.86 262.42,-116.24 245.08,-148.11"/>
<polygon fill="midnightblue" stroke="midnightblue" points="241.85,-146.74 240.29,-157.22 248.04,-150 241.85,-146.74"/>
</g>
<!-- Node25 -->
<g id="node25" class="node">
<title>Node25</title>
<g id="a_node25"><a target="_parent" xlink:href="https://doc.qt.io/qt-5/qlowenergycharacteristic.html#isValid" xlink:title=" ">
<polygon fill="none" stroke="black" points="736,-49.5 736,-79.5 881,-79.5 881,-49.5 736,-49.5"/>
<text text-anchor="start" x="744" y="-67.5" font-family="Helvetica,sans-Serif" font-size="10.00">QLowEnergyCharacteristic</text>
<text text-anchor="middle" x="808.5" y="-56.5" font-family="Helvetica,sans-Serif" font-size="10.00">::isValid</text>
</a>
</g>
</g>
<!-- Node24&#45;&gt;Node25 -->
<g id="edge38" class="edge">
<title>Node24&#45;&gt;Node25</title>
<path fill="none" stroke="midnightblue" d="M676.66,-47.24C692.14,-49.28 709.14,-51.52 725.61,-53.7"/>
<polygon fill="midnightblue" stroke="midnightblue" points="725.4,-57.2 735.77,-55.04 726.32,-50.26 725.4,-57.2"/>
</g>
<!-- Node26 -->
<g id="node26" class="node">
<title>Node26</title>
<g id="a_node26"><a target="_parent" xlink:href="https://doc.qt.io/qt-5/qlowenergycharacteristic.html#value" xlink:title=" ">
<polygon fill="none" stroke="black" points="736,-0.5 736,-30.5 881,-30.5 881,-0.5 736,-0.5"/>
<text text-anchor="start" x="744" y="-18.5" font-family="Helvetica,sans-Serif" font-size="10.00">QLowEnergyCharacteristic</text>
<text text-anchor="middle" x="808.5" y="-7.5" font-family="Helvetica,sans-Serif" font-size="10.00">::value</text>
</a>
</g>
</g>
<!-- Node24&#45;&gt;Node26 -->
<g id="edge40" class="edge">
<title>Node24&#45;&gt;Node26</title>
<path fill="none" stroke="midnightblue" d="M676.66,-32.07C692.14,-30.11 709.14,-27.96 725.61,-25.87"/>
<polygon fill="midnightblue" stroke="midnightblue" points="726.29,-29.31 735.77,-24.58 725.41,-22.37 726.29,-29.31"/>
</g>
</g>
</svg>
