<?xml version="1.0" encoding="UTF-8" standalone="no"?>
<!DOCTYPE svg PUBLIC "-//W3C//DTD SVG 1.1//EN"
 "http://www.w3.org/Graphics/SVG/1.1/DTD/svg11.dtd">
<!-- Generated by graphviz version 2.43.0 (0)
 -->
<!-- Title: StatusService::StatusService Pages: 1 -->
<svg width="1042pt" height="1117pt"
 viewBox="0.00 0.00 1042.00 1116.90" xmlns="http://www.w3.org/2000/svg" xmlns:xlink="http://www.w3.org/1999/xlink">
<g id="graph0" class="graph" transform="scale(1 1) rotate(0) translate(4 1112.9)">
<title>StatusService::StatusService</title>
<!-- Node1 -->
<g id="Node000001" class="node">
<title>Node1</title>
<g id="a_Node000001"><a xlink:title="Constructs a new Pokit service with parent.">
<polygon fill="#999999" stroke="#666666" points="1034,-450 878,-450 878,-431 1034,-431 1034,-450"/>
<text text-anchor="middle" x="956" y="-438" font-family="Helvetica,sans-Serif" font-size="10.00">StatusService::StatusService</text>
</a>
</g>
</g>
<!-- Node2 -->
<g id="Node000002" class="node">
<title>Node2</title>
<g id="a_Node000002"><a xlink:href="classStatusService.html#a658e493f2942afd66263a989e99ed633" target="_top" xlink:title="Returns the most recent value of the Status services&#39;s Button Press characteristic.">
<polygon fill="white" stroke="#666666" points="160,-1032 13,-1032 13,-1013 160,-1013 160,-1032"/>
<text text-anchor="middle" x="86.5" y="-1020" font-family="Helvetica,sans-Serif" font-size="10.00">StatusService::buttonPress</text>
</a>
</g>
</g>
<!-- Node1&#45;&gt;Node2 -->
<g id="edge1_Node000001_Node000002" class="edge">
<title>Node1&#45;&gt;Node2</title>
<g id="a_edge1_Node000001_Node000002"><a xlink:title=" ">
<path fill="none" stroke="#63b8ff" d="M953.88,-458.22C948.12,-543.87 919.04,-913.97 842,-993.5 639.29,-1202.76 219.88,-1070.53 112.81,-1032.03"/>
<polygon fill="#63b8ff" stroke="#63b8ff" points="954.41,-450.23 957.48,-458.44 954.15,-454.22 953.88,-458.21 953.88,-458.21 953.88,-458.21 954.15,-454.22 950.29,-457.97 954.41,-450.23 954.41,-450.23"/>
</a>
</g>
</g>
<!-- Node3 -->
<g id="Node000003" class="node">
<title>Node3</title>
<g id="a_Node000003"><a xlink:href="classStatusService.html#a2084a26b33dd947723c40839d36b7b94" target="_top" xlink:title="This signal is emitted when the Button Press characteristic has been read successfully.">
<polygon fill="white" stroke="#666666" points="592,-1042 420,-1042 420,-1023 592,-1023 592,-1042"/>
<text text-anchor="middle" x="506" y="-1030" font-family="Helvetica,sans-Serif" font-size="10.00">StatusService::buttonPressRead</text>
</a>
</g>
</g>
<!-- Node1&#45;&gt;Node3 -->
<g id="edge2_Node000001_Node000003" class="edge">
<title>Node1&#45;&gt;Node3</title>
<g id="a_edge2_Node000001_Node000003"><a xlink:title=" ">
<path fill="none" stroke="#63b8ff" d="M953.24,-458.45C945.07,-538.45 908.36,-861.74 842,-934.5 778.6,-1004.01 668.9,-1025.25 592.36,-1031.21"/>
<polygon fill="#63b8ff" stroke="#63b8ff" points="954.06,-450.31 956.84,-458.63 953.66,-454.29 953.26,-458.27 953.26,-458.27 953.26,-458.27 953.66,-454.29 949.68,-457.91 954.06,-450.31 954.06,-450.31"/>
</a>
</g>
</g>
<!-- Node4 -->
<g id="Node000004" class="node">
<title>Node4</title>
<g id="a_Node000004"><a xlink:href="classStatusService.html#a008d41a33eedd90e68ccf7a94ed5b65f" target="_top" xlink:title="Returns the most recent value of the Status service&#39;s Device Characteristics characteristic.">
<polygon fill="white" stroke="#666666" points="835,-650 641,-650 641,-631 835,-631 835,-650"/>
<text text-anchor="middle" x="738" y="-638" font-family="Helvetica,sans-Serif" font-size="10.00">StatusService::deviceCharacteristics</text>
</a>
</g>
</g>
<!-- Node1&#45;&gt;Node4 -->
<g id="edge3_Node000001_Node000004" class="edge">
<title>Node1&#45;&gt;Node4</title>
<g id="a_edge3_Node000001_Node000004"><a xlink:title=" ">
<path fill="none" stroke="#63b8ff" d="M949.47,-458.4C936.97,-495.65 902.77,-581.45 842,-622.5 837.04,-625.85 831.64,-628.64 826.01,-630.95"/>
<polygon fill="#63b8ff" stroke="#63b8ff" points="952.06,-450.43 953.01,-459.15 950.83,-454.23 949.59,-458.03 949.59,-458.03 949.59,-458.03 950.83,-454.23 946.17,-456.92 952.06,-450.43 952.06,-450.43"/>
</a>
</g>
</g>
<!-- Node5 -->
<g id="Node000005" class="node">
<title>Node5</title>
<g id="a_Node000005"><a xlink:href="classStatusService.html#a113a7051f70e642d2c1f67124c1f12c7" target="_top" xlink:title="Returns the most recent value of the Status services&#39;s Device Name characteristic.">
<polygon fill="white" stroke="#666666" points="813.5,-613 662.5,-613 662.5,-594 813.5,-594 813.5,-613"/>
<text text-anchor="middle" x="738" y="-601" font-family="Helvetica,sans-Serif" font-size="10.00">StatusService::deviceName</text>
</a>
</g>
</g>
<!-- Node1&#45;&gt;Node5 -->
<g id="edge4_Node000001_Node000005" class="edge">
<title>Node1&#45;&gt;Node5</title>
<g id="a_edge4_Node000001_Node000005"><a xlink:title=" ">
<path fill="none" stroke="#63b8ff" d="M946.87,-457.59C931.25,-488.43 893.92,-553.1 842,-584.5 833.36,-589.72 823.63,-593.57 813.68,-596.4"/>
<polygon fill="#63b8ff" stroke="#63b8ff" points="950.54,-450.18 950.22,-458.95 948.76,-453.77 946.99,-457.35 946.99,-457.35 946.99,-457.35 948.76,-453.77 943.76,-455.76 950.54,-450.18 950.54,-450.18"/>
</a>
</g>
</g>
<!-- Node7 -->
<g id="Node000007" class="node">
<title>Node7</title>
<g id="a_Node000007"><a xlink:href="classStatusService.html#ab0d571f2729d69375715b3894ec691ee" target="_top" xlink:title="Disables client&#45;side notifications of button presses.">
<polygon fill="white" stroke="#666666" points="816.5,-575.5 659.5,-575.5 659.5,-545.5 816.5,-545.5 816.5,-575.5"/>
<text text-anchor="start" x="667.5" y="-563.5" font-family="Helvetica,sans-Serif" font-size="10.00">StatusService::disableButton</text>
<text text-anchor="middle" x="738" y="-552.5" font-family="Helvetica,sans-Serif" font-size="10.00">PressedNotifications</text>
</a>
</g>
</g>
<!-- Node1&#45;&gt;Node7 -->
<g id="edge6_Node000001_Node000007" class="edge">
<title>Node1&#45;&gt;Node7</title>
<g id="a_edge6_Node000001_Node000007"><a xlink:title=" ">
<path fill="none" stroke="#63b8ff" d="M941.19,-456.2C921.41,-477.69 882.84,-515.93 842,-536.5 834.05,-540.51 825.41,-543.86 816.63,-546.65"/>
<polygon fill="#63b8ff" stroke="#63b8ff" points="946.71,-450.11 944.01,-458.45 944.03,-453.07 941.34,-456.04 941.34,-456.04 941.34,-456.04 944.03,-453.07 938.67,-453.62 946.71,-450.11 946.71,-450.11"/>
</a>
</g>
</g>
<!-- Node8 -->
<g id="Node000008" class="node">
<title>Node8</title>
<g id="a_Node000008"><a xlink:href="classStatusService.html#a1beab67430fc8bc26e9faf3799d537f1" target="_top" xlink:title="Disables client&#45;side notifications of device status changes.">
<polygon fill="white" stroke="#666666" points="815.5,-527.5 660.5,-527.5 660.5,-497.5 815.5,-497.5 815.5,-527.5"/>
<text text-anchor="start" x="668.5" y="-515.5" font-family="Helvetica,sans-Serif" font-size="10.00">StatusService::disableStatus</text>
<text text-anchor="middle" x="738" y="-504.5" font-family="Helvetica,sans-Serif" font-size="10.00">Notifications</text>
</a>
</g>
</g>
<!-- Node1&#45;&gt;Node8 -->
<g id="edge7_Node000001_Node000008" class="edge">
<title>Node1&#45;&gt;Node8</title>
<g id="a_edge7_Node000001_Node000008"><a xlink:title=" ">
<path fill="none" stroke="#63b8ff" d="M927.87,-453.59C905.29,-464.11 872.09,-478.68 842,-488.5 831.96,-491.77 821.24,-494.79 810.64,-497.49"/>
<polygon fill="#63b8ff" stroke="#63b8ff" points="935.39,-450.06 929.68,-456.72 931.77,-451.76 928.15,-453.46 928.15,-453.46 928.15,-453.46 931.77,-451.76 926.62,-450.2 935.39,-450.06 935.39,-450.06"/>
</a>
</g>
</g>
<!-- Node9 -->
<g id="Node000009" class="node">
<title>Node9</title>
<g id="a_Node000009"><a xlink:href="classStatusService.html#a8c575b15d296c396d7837c6059f10aa8" target="_top" xlink:title="Disables client&#45;side notifications of torch status changes.">
<polygon fill="white" stroke="#666666" points="813,-479.5 663,-479.5 663,-449.5 813,-449.5 813,-479.5"/>
<text text-anchor="start" x="671" y="-467.5" font-family="Helvetica,sans-Serif" font-size="10.00">StatusService::disableTorch</text>
<text text-anchor="middle" x="738" y="-456.5" font-family="Helvetica,sans-Serif" font-size="10.00">StatusNotifications</text>
</a>
</g>
</g>
<!-- Node1&#45;&gt;Node9 -->
<g id="edge8_Node000001_Node000009" class="edge">
<title>Node1&#45;&gt;Node9</title>
<g id="a_edge8_Node000001_Node000009"><a xlink:title=" ">
<path fill="none" stroke="#63b8ff" d="M869.95,-449.95C851.18,-452.04 831.44,-454.23 813.14,-456.26"/>
<polygon fill="#63b8ff" stroke="#63b8ff" points="877.93,-449.06 870.38,-453.52 873.96,-449.5 869.98,-449.95 869.98,-449.95 869.98,-449.95 873.96,-449.5 869.59,-446.37 877.93,-449.06 877.93,-449.06"/>
</a>
</g>
</g>
<!-- Node10 -->
<g id="Node000010" class="node">
<title>Node10</title>
<g id="a_Node000010"><a xlink:href="classStatusService.html#a031595af37a535074015a121f0b712bb" target="_top" xlink:title="Enables client&#45;side notifications of button presses.">
<polygon fill="white" stroke="#666666" points="815.5,-431.5 660.5,-431.5 660.5,-401.5 815.5,-401.5 815.5,-431.5"/>
<text text-anchor="start" x="668.5" y="-419.5" font-family="Helvetica,sans-Serif" font-size="10.00">StatusService::enableButton</text>
<text text-anchor="middle" x="738" y="-408.5" font-family="Helvetica,sans-Serif" font-size="10.00">PressedNotifications</text>
</a>
</g>
</g>
<!-- Node1&#45;&gt;Node10 -->
<g id="edge9_Node000001_Node000010" class="edge">
<title>Node1&#45;&gt;Node10</title>
<g id="a_edge9_Node000001_Node000010"><a xlink:title=" ">
<path fill="none" stroke="#63b8ff" d="M869.8,-431.03C851.93,-429.05 833.2,-426.97 815.67,-425.02"/>
<polygon fill="#63b8ff" stroke="#63b8ff" points="877.93,-431.94 869.59,-434.63 873.96,-431.5 869.98,-431.05 869.98,-431.05 869.98,-431.05 873.96,-431.5 870.38,-427.48 877.93,-431.94 877.93,-431.94"/>
</a>
</g>
</g>
<!-- Node11 -->
<g id="Node000011" class="node">
<title>Node11</title>
<g id="a_Node000011"><a xlink:href="classStatusService.html#a5d86bed23202402cade7fa8bb09f9c48" target="_top" xlink:title="Enables client&#45;side notifications of device status changes.">
<polygon fill="white" stroke="#666666" points="814.5,-383.5 661.5,-383.5 661.5,-353.5 814.5,-353.5 814.5,-383.5"/>
<text text-anchor="start" x="669.5" y="-371.5" font-family="Helvetica,sans-Serif" font-size="10.00">StatusService::enableStatus</text>
<text text-anchor="middle" x="738" y="-360.5" font-family="Helvetica,sans-Serif" font-size="10.00">Notifications</text>
</a>
</g>
</g>
<!-- Node1&#45;&gt;Node11 -->
<g id="edge10_Node000001_Node000011" class="edge">
<title>Node1&#45;&gt;Node11</title>
<g id="a_edge10_Node000001_Node000011"><a xlink:title=" ">
<path fill="none" stroke="#63b8ff" d="M927.87,-427.41C905.29,-416.89 872.09,-402.32 842,-392.5 831.96,-389.23 821.24,-386.21 810.64,-383.51"/>
<polygon fill="#63b8ff" stroke="#63b8ff" points="935.39,-430.94 926.62,-430.8 931.77,-429.24 928.15,-427.54 928.15,-427.54 928.15,-427.54 931.77,-429.24 929.68,-424.28 935.39,-430.94 935.39,-430.94"/>
</a>
</g>
</g>
<!-- Node12 -->
<g id="Node000012" class="node">
<title>Node12</title>
<g id="a_Node000012"><a xlink:href="classStatusService.html#a698e0ba79ea0e7d489e4acdb58830884" target="_top" xlink:title="Enables client&#45;side notifications of torch status changes.">
<polygon fill="white" stroke="#666666" points="812,-335.5 664,-335.5 664,-305.5 812,-305.5 812,-335.5"/>
<text text-anchor="start" x="672" y="-323.5" font-family="Helvetica,sans-Serif" font-size="10.00">StatusService::enableTorch</text>
<text text-anchor="middle" x="738" y="-312.5" font-family="Helvetica,sans-Serif" font-size="10.00">StatusNotifications</text>
</a>
</g>
</g>
<!-- Node1&#45;&gt;Node12 -->
<g id="edge11_Node000001_Node000012" class="edge">
<title>Node1&#45;&gt;Node12</title>
<g id="a_edge11_Node000001_Node000012"><a xlink:title=" ">
<path fill="none" stroke="#63b8ff" d="M941.19,-424.8C921.41,-403.31 882.84,-365.07 842,-344.5 832.65,-339.79 822.36,-335.99 812.01,-332.93"/>
<polygon fill="#63b8ff" stroke="#63b8ff" points="946.71,-430.89 938.67,-427.38 944.03,-427.93 941.34,-424.96 941.34,-424.96 941.34,-424.96 944.03,-427.93 944.01,-422.55 946.71,-430.89 946.71,-430.89"/>
</a>
</g>
</g>
<!-- Node13 -->
<g id="Node000013" class="node">
<title>Node13</title>
<g id="a_Node000013"><a xlink:href="classStatusService.html#a425bf65d42b24c4a621b312fcd152708" target="_top" xlink:title="Flash the Pokit device&#39;s LED.">
<polygon fill="white" stroke="#666666" points="803,-287 673,-287 673,-268 803,-268 803,-287"/>
<text text-anchor="middle" x="738" y="-275" font-family="Helvetica,sans-Serif" font-size="10.00">StatusService::flashLed</text>
</a>
</g>
</g>
<!-- Node1&#45;&gt;Node13 -->
<g id="edge12_Node000001_Node000013" class="edge">
<title>Node1&#45;&gt;Node13</title>
<g id="a_edge12_Node000001_Node000013"><a xlink:title=" ">
<path fill="none" stroke="#63b8ff" d="M946.87,-423.41C931.25,-392.57 893.92,-327.9 842,-296.5 830.33,-289.44 816.66,-284.89 803.16,-281.98"/>
<polygon fill="#63b8ff" stroke="#63b8ff" points="950.54,-430.82 943.76,-425.24 948.76,-427.23 946.99,-423.65 946.99,-423.65 946.99,-423.65 948.76,-427.23 950.22,-422.05 950.54,-430.82 950.54,-430.82"/>
</a>
</g>
</g>
<!-- Node14 -->
<g id="Node000014" class="node">
<title>Node14</title>
<g id="a_Node000014"><a xlink:href="classStatusService.html#a29d3830c398e06a59b815c6f5d475fec" target="_top" xlink:title="Read the Status service&#39;s (undocumented) Button Press characteristic.">
<polygon fill="white" stroke="#666666" points="809.5,-249.5 666.5,-249.5 666.5,-219.5 809.5,-219.5 809.5,-249.5"/>
<text text-anchor="start" x="674.5" y="-237.5" font-family="Helvetica,sans-Serif" font-size="10.00">StatusService::readButton</text>
<text text-anchor="middle" x="738" y="-226.5" font-family="Helvetica,sans-Serif" font-size="10.00">PressCharacteristic</text>
</a>
</g>
</g>
<!-- Node1&#45;&gt;Node14 -->
<g id="edge13_Node000001_Node000014" class="edge">
<title>Node1&#45;&gt;Node14</title>
<g id="a_edge13_Node000001_Node000014"><a xlink:title=" ">
<path fill="none" stroke="#63b8ff" d="M949.23,-423C936.26,-386.54 901.22,-302.26 842,-259.5 832.38,-252.55 821.07,-247.52 809.53,-243.87"/>
<polygon fill="#63b8ff" stroke="#63b8ff" points="951.92,-430.81 945.91,-424.42 950.62,-427.02 949.31,-423.24 949.31,-423.24 949.31,-423.24 950.62,-427.02 952.71,-422.07 951.92,-430.81 951.92,-430.81"/>
</a>
</g>
</g>
<!-- Node16 -->
<g id="Node000016" class="node">
<title>Node16</title>
<g id="a_Node000016"><a xlink:href="classStatusService.html#adca5ca235e99c7878f8fde507bf487cc" target="_top" xlink:title="Read the Status service&#39;s Device Characteristics characteristic.">
<polygon fill="white" stroke="#666666" points="810.5,-201.5 665.5,-201.5 665.5,-171.5 810.5,-171.5 810.5,-201.5"/>
<text text-anchor="start" x="673.5" y="-189.5" font-family="Helvetica,sans-Serif" font-size="10.00">StatusService::readDevice</text>
<text text-anchor="middle" x="738" y="-178.5" font-family="Helvetica,sans-Serif" font-size="10.00">Characteristics</text>
</a>
</g>
</g>
<!-- Node1&#45;&gt;Node16 -->
<g id="edge15_Node000001_Node000016" class="edge">
<title>Node1&#45;&gt;Node16</title>
<g id="a_edge15_Node000001_Node000016"><a xlink:title=" ">
<path fill="none" stroke="#63b8ff" d="M951.7,-422.84C942.61,-379.44 913.03,-266.95 842,-210.5 832.87,-203.25 821.94,-198.11 810.65,-194.5"/>
<polygon fill="#63b8ff" stroke="#63b8ff" points="953.29,-430.79 948.19,-423.65 952.5,-426.87 951.72,-422.95 951.72,-422.95 951.72,-422.95 952.5,-426.87 955.25,-422.24 953.29,-430.79 953.29,-430.79"/>
</a>
</g>
</g>
<!-- Node17 -->
<g id="Node000017" class="node">
<title>Node17</title>
<g id="a_Node000017"><a xlink:href="classStatusService.html#a1540af10953c1b4b7d08620ade8c27ea" target="_top" xlink:title="Read the Status service&#39;s Name characteristic.">
<polygon fill="white" stroke="#666666" points="842,-153 634,-153 634,-134 842,-134 842,-153"/>
<text text-anchor="middle" x="738" y="-141" font-family="Helvetica,sans-Serif" font-size="10.00">StatusService::readNameCharacteristic</text>
</a>
</g>
</g>
<!-- Node1&#45;&gt;Node17 -->
<g id="edge17_Node000001_Node000017" class="edge">
<title>Node1&#45;&gt;Node17</title>
<g id="a_edge17_Node000001_Node000017"><a xlink:title=" ">
<path fill="none" stroke="#63b8ff" d="M953.51,-422.78C948.31,-373.03 926.42,-231.27 842,-162.5 837.35,-158.71 832.18,-155.58 826.72,-153.01"/>
<polygon fill="#63b8ff" stroke="#63b8ff" points="954.3,-430.96 949.95,-423.34 953.91,-426.98 953.53,-422.99 953.53,-422.99 953.53,-422.99 953.91,-426.98 957.11,-422.65 954.3,-430.96 954.3,-430.96"/>
</a>
</g>
</g>
<!-- Node18 -->
<g id="Node000018" class="node">
<title>Node18</title>
<g id="a_Node000018"><a xlink:href="classStatusService.html#a0410049da4a7ac6a64027c733797c578" target="_top" xlink:title="Read the Status service&#39;s Status characteristic.">
<polygon fill="white" stroke="#666666" points="809,-115.5 667,-115.5 667,-85.5 809,-85.5 809,-115.5"/>
<text text-anchor="start" x="675" y="-103.5" font-family="Helvetica,sans-Serif" font-size="10.00">StatusService::readStatus</text>
<text text-anchor="middle" x="738" y="-92.5" font-family="Helvetica,sans-Serif" font-size="10.00">Characteristic</text>
</a>
</g>
</g>
<!-- Node1&#45;&gt;Node18 -->
<g id="edge19_Node000001_Node000018" class="edge">
<title>Node1&#45;&gt;Node18</title>
<g id="a_edge19_Node000001_Node000018"><a xlink:title=" ">
<path fill="none" stroke="#63b8ff" d="M954.29,-422.8C951.15,-369.08 934.09,-206.6 842,-124.5 832.75,-116.25 821.22,-110.69 809.25,-106.96"/>
<polygon fill="#63b8ff" stroke="#63b8ff" points="954.71,-430.99 950.71,-423.19 954.51,-427 954.3,-423 954.3,-423 954.3,-423 954.51,-427 957.9,-422.82 954.71,-430.99 954.71,-430.99"/>
</a>
</g>
</g>
<!-- Node19 -->
<g id="Node000019" class="node">
<title>Node19</title>
<g id="a_Node000019"><a xlink:href="classStatusService.html#afeb96c51e64da0265ab7d026233541d4" target="_top" xlink:title="Read the Status service&#39;s (undocumented) Torch characteristic.">
<polygon fill="white" stroke="#666666" points="806.5,-67.5 669.5,-67.5 669.5,-37.5 806.5,-37.5 806.5,-67.5"/>
<text text-anchor="start" x="677.5" y="-55.5" font-family="Helvetica,sans-Serif" font-size="10.00">StatusService::readTorch</text>
<text text-anchor="middle" x="738" y="-44.5" font-family="Helvetica,sans-Serif" font-size="10.00">Characteristic</text>
</a>
</g>
</g>
<!-- Node1&#45;&gt;Node19 -->
<g id="edge21_Node000001_Node000019" class="edge">
<title>Node1&#45;&gt;Node19</title>
<g id="a_edge21_Node000001_Node000019"><a xlink:title=" ">
<path fill="none" stroke="#63b8ff" d="M955.25,-422.55C955.03,-363.44 945.92,-173.19 842,-76.5 832.19,-67.37 819.6,-61.5 806.61,-57.76"/>
<polygon fill="#63b8ff" stroke="#63b8ff" points="955.22,-430.87 951.65,-422.86 955.23,-426.87 955.25,-422.87 955.25,-422.87 955.25,-422.87 955.23,-426.87 958.85,-422.88 955.22,-430.87 955.22,-430.87"/>
</a>
</g>
</g>
<!-- Node20 -->
<g id="Node000020" class="node">
<title>Node20</title>
<g id="a_Node000020"><a xlink:href="classStatusService.html#ada280bc54493f85e6855a2534bf2a02d" target="_top" xlink:title="Set&#39;s the Pokit device&#39;s name to name.">
<polygon fill="white" stroke="#666666" points="821.5,-19 654.5,-19 654.5,0 821.5,0 821.5,-19"/>
<text text-anchor="middle" x="738" y="-7" font-family="Helvetica,sans-Serif" font-size="10.00">StatusService::setDeviceName</text>
</a>
</g>
</g>
<!-- Node1&#45;&gt;Node20 -->
<g id="edge23_Node000001_Node000020" class="edge">
<title>Node1&#45;&gt;Node20</title>
<g id="a_edge23_Node000001_Node000020"><a xlink:title=" ">
<path fill="none" stroke="#63b8ff" d="M952.63,-422.66C942.74,-350.81 902.38,-83.94 842,-28.5 836.04,-23.03 829.04,-18.88 821.54,-15.77"/>
<polygon fill="#63b8ff" stroke="#63b8ff" points="953.73,-430.77 949.09,-423.33 953.2,-426.81 952.66,-422.84 952.66,-422.84 952.66,-422.84 953.2,-426.81 956.23,-422.36 953.73,-430.77 953.73,-430.77"/>
</a>
</g>
</g>
<!-- Node21 -->
<g id="Node000021" class="node">
<title>Node21</title>
<g id="a_Node000021"><a xlink:href="classStatusService.html#a3bc469455e6e704e0643fbc9ad236c70" target="_top" xlink:title="Set the Pokit device&#39;s torch to status.">
<polygon fill="white" stroke="#666666" points="586.5,-1005 425.5,-1005 425.5,-986 586.5,-986 586.5,-1005"/>
<text text-anchor="middle" x="506" y="-993" font-family="Helvetica,sans-Serif" font-size="10.00">StatusService::setTorchStatus</text>
</a>
</g>
</g>
<!-- Node1&#45;&gt;Node21 -->
<g id="edge24_Node000001_Node000021" class="edge">
<title>Node1&#45;&gt;Node21</title>
<g id="a_edge24_Node000001_Node000021"><a xlink:title=" ">
<path fill="none" stroke="#63b8ff" d="M955.36,-458.41C955.71,-521.85 948.67,-738.9 842,-865.5 777.88,-941.59 663.62,-973.33 586.59,-986.45"/>
<polygon fill="#63b8ff" stroke="#63b8ff" points="955.27,-450.19 958.96,-458.15 955.32,-454.19 955.36,-458.19 955.36,-458.19 955.36,-458.19 955.32,-454.19 951.76,-458.23 955.27,-450.19 955.27,-450.19"/>
</a>
</g>
</g>
<!-- Node22 -->
<g id="Node000022" class="node">
<title>Node22</title>
<g id="a_Node000022"><a xlink:href="classStatusService.html#ae7be4aae021ae50faef48ed2812eb6a7" target="_top" xlink:title="Returns the most recent value of the Status service&#39;s Status characteristic.">
<polygon fill="white" stroke="#666666" points="797.5,-856 678.5,-856 678.5,-837 797.5,-837 797.5,-856"/>
<text text-anchor="middle" x="738" y="-844" font-family="Helvetica,sans-Serif" font-size="10.00">StatusService::status</text>
</a>
</g>
</g>
<!-- Node1&#45;&gt;Node22 -->
<g id="edge25_Node000001_Node000022" class="edge">
<title>Node1&#45;&gt;Node22</title>
<g id="a_edge25_Node000001_Node000022"><a xlink:title=" ">
<path fill="none" stroke="#63b8ff" d="M948.32,-458.05C932.18,-499.77 888.92,-607.73 842,-692.5 810.38,-749.63 764.14,-812.99 746.35,-836.78"/>
<polygon fill="#63b8ff" stroke="#63b8ff" points="951.26,-450.4 951.75,-459.16 949.82,-454.13 948.39,-457.86 948.39,-457.86 948.39,-457.86 949.82,-454.13 945.03,-456.57 951.26,-450.4 951.26,-450.4"/>
</a>
</g>
</g>
<!-- Node35 -->
<g id="Node000035" class="node">
<title>Node35</title>
<g id="a_Node000035"><a xlink:href="classStatusService.html#acb4787284fb5314ee2085421ad4c1d36" target="_top" xlink:title="Returns the most recent value of the Status services&#39;s Torch characteristic.">
<polygon fill="white" stroke="#666666" points="159,-715 14,-715 14,-696 159,-696 159,-715"/>
<text text-anchor="middle" x="86.5" y="-703" font-family="Helvetica,sans-Serif" font-size="10.00">StatusService::torchStatus</text>
</a>
</g>
</g>
<!-- Node1&#45;&gt;Node35 -->
<g id="edge46_Node000001_Node000035" class="edge">
<title>Node1&#45;&gt;Node35</title>
<g id="a_edge46_Node000001_Node000035"><a xlink:title=" ">
<path fill="none" stroke="#63b8ff" d="M951.99,-458.13C943.58,-501.34 915.44,-612.37 842,-659.5 801.93,-685.21 461.51,-676.5 414,-679.5 326.18,-685.05 225.23,-693.39 159.11,-699.12"/>
<polygon fill="#63b8ff" stroke="#63b8ff" points="953.46,-450.21 955.54,-458.74 952.73,-454.15 952,-458.08 952,-458.08 952,-458.08 952.73,-454.15 948.46,-457.43 953.46,-450.21 953.46,-450.21"/>
</a>
</g>
</g>
<!-- Node6 -->
<g id="Node000006" class="node">
<title>Node6</title>
<g id="a_Node000006"><a xlink:href="classStatusService.html#a7ac0f6b5cf9cfd4acee67df1479a24bf" target="_top" xlink:title="This signal is emitted when the Device Name characteristic has been read successfully.">
<polygon fill="white" stroke="#666666" points="594,-613 418,-613 418,-594 594,-594 594,-613"/>
<text text-anchor="middle" x="506" y="-601" font-family="Helvetica,sans-Serif" font-size="10.00">StatusService::deviceNameRead</text>
</a>
</g>
</g>
<!-- Node5&#45;&gt;Node6 -->
<g id="edge5_Node000005_Node000006" class="edge">
<title>Node5&#45;&gt;Node6</title>
<g id="a_edge5_Node000005_Node000006"><a xlink:title=" ">
<path fill="none" stroke="#63b8ff" d="M654.32,-603.5C634.77,-603.5 613.85,-603.5 594.1,-603.5"/>
<polygon fill="#63b8ff" stroke="#63b8ff" points="662.33,-603.5 654.33,-607.1 658.33,-603.5 654.33,-603.5 654.33,-603.5 654.33,-603.5 658.33,-603.5 654.33,-599.9 662.33,-603.5 662.33,-603.5"/>
</a>
</g>
</g>
<!-- Node15 -->
<g id="Node000015" class="node">
<title>Node15</title>
<g id="a_Node000015"><a xlink:href="classStatusService.html#ad73514f6f324ca56dffb844b14eb3bc0" target="_top" xlink:title="Read all characteristics.">
<polygon fill="white" stroke="#666666" points="598,-153 414,-153 414,-134 598,-134 598,-153"/>
<text text-anchor="middle" x="506" y="-141" font-family="Helvetica,sans-Serif" font-size="10.00">StatusService::readCharacteristics</text>
</a>
</g>
</g>
<!-- Node14&#45;&gt;Node15 -->
<g id="edge14_Node000014_Node000015" class="edge">
<title>Node14&#45;&gt;Node15</title>
<g id="a_edge14_Node000014_Node000015"><a xlink:title=" ">
<path fill="none" stroke="#63b8ff" d="M658.72,-218.5C650.29,-216.11 641.9,-213.45 634,-210.5 591.49,-194.64 545.24,-167.47 522.05,-153.08"/>
<polygon fill="#63b8ff" stroke="#63b8ff" points="666.47,-220.61 657.81,-221.98 662.61,-219.56 658.75,-218.51 658.75,-218.51 658.75,-218.51 662.61,-219.56 659.7,-215.03 666.47,-220.61 666.47,-220.61"/>
</a>
</g>
</g>
<!-- Node16&#45;&gt;Node15 -->
<g id="edge16_Node000016_Node000015" class="edge">
<title>Node16&#45;&gt;Node15</title>
<g id="a_edge16_Node000016_Node000015"><a xlink:title=" ">
<path fill="none" stroke="#63b8ff" d="M657.22,-171.58C624.32,-165.43 587.16,-158.49 558.03,-153.04"/>
<polygon fill="#63b8ff" stroke="#63b8ff" points="665.49,-173.13 656.96,-175.2 661.56,-172.4 657.62,-171.66 657.62,-171.66 657.62,-171.66 661.56,-172.4 658.29,-168.12 665.49,-173.13 665.49,-173.13"/>
</a>
</g>
</g>
<!-- Node17&#45;&gt;Node15 -->
<g id="edge18_Node000017_Node000015" class="edge">
<title>Node17&#45;&gt;Node15</title>
<g id="a_edge18_Node000017_Node000015"><a xlink:title=" ">
<path fill="none" stroke="#63b8ff" d="M625.72,-143.5C616.54,-143.5 607.32,-143.5 598.31,-143.5"/>
<polygon fill="#63b8ff" stroke="#63b8ff" points="633.77,-143.5 625.77,-147.1 629.77,-143.5 625.77,-143.5 625.77,-143.5 625.77,-143.5 629.77,-143.5 625.77,-139.9 633.77,-143.5 633.77,-143.5"/>
</a>
</g>
</g>
<!-- Node18&#45;&gt;Node15 -->
<g id="edge20_Node000018_Node000015" class="edge">
<title>Node18&#45;&gt;Node15</title>
<g id="a_edge20_Node000018_Node000015"><a xlink:title=" ">
<path fill="none" stroke="#63b8ff" d="M658.82,-115.12C625.46,-121.35 587.48,-128.45 557.86,-133.99"/>
<polygon fill="#63b8ff" stroke="#63b8ff" points="666.74,-113.64 659.54,-118.64 662.81,-114.37 658.88,-115.11 658.88,-115.11 658.88,-115.11 662.81,-114.37 658.22,-111.57 666.74,-113.64 666.74,-113.64"/>
</a>
</g>
</g>
<!-- Node19&#45;&gt;Node15 -->
<g id="edge22_Node000019_Node000015" class="edge">
<title>Node19&#45;&gt;Node15</title>
<g id="a_edge22_Node000019_Node000015"><a xlink:title=" ">
<path fill="none" stroke="#63b8ff" d="M661.61,-67.7C652.2,-70.28 642.8,-73.21 634,-76.5 591.49,-92.36 545.24,-119.53 522.05,-133.92"/>
<polygon fill="#63b8ff" stroke="#63b8ff" points="669.5,-65.61 662.69,-71.14 665.63,-66.63 661.76,-67.66 661.76,-67.66 661.76,-67.66 665.63,-66.63 660.84,-64.18 669.5,-65.61 669.5,-65.61"/>
</a>
</g>
</g>
<!-- Node22&#45;&gt;Node3 -->
<g id="edge26_Node000022_Node000003" class="edge">
<title>Node22&#45;&gt;Node3</title>
<g id="a_edge26_Node000022_Node000003"><a xlink:title=" ">
<path fill="none" stroke="#63b8ff" d="M728.25,-863.46C709.49,-898 661.82,-976.46 598,-1014.5 592.33,-1017.88 586.14,-1020.64 579.74,-1022.89"/>
<polygon fill="#63b8ff" stroke="#63b8ff" points="732.2,-856.04 731.62,-864.8 730.32,-859.57 728.44,-863.1 728.44,-863.1 728.44,-863.1 730.32,-859.57 725.26,-861.41 732.2,-856.04 732.2,-856.04"/>
</a>
</g>
</g>
<!-- Node22&#45;&gt;Node21 -->
<g id="edge28_Node000022_Node000021" class="edge">
<title>Node22&#45;&gt;Node21</title>
<g id="a_edge28_Node000022_Node000021"><a xlink:title=" ">
<path fill="none" stroke="#63b8ff" d="M698.06,-858.94C676.9,-867.32 651.55,-880.23 634,-898.5 607.27,-926.32 628.26,-953.56 598,-977.5 593.83,-980.8 589.23,-983.54 584.37,-985.83"/>
<polygon fill="#63b8ff" stroke="#63b8ff" points="705.64,-856.05 699.44,-862.26 701.9,-857.47 698.16,-858.9 698.16,-858.9 698.16,-858.9 701.9,-857.47 696.88,-855.53 705.64,-856.05 705.64,-856.05"/>
</a>
</g>
</g>
<!-- Node23 -->
<g id="Node000023" class="node">
<title>Node23</title>
<g id="a_Node000023"><a xlink:href="classStatusService.html#a9f89222ee84c2f45c4c21a9c6a0c9d4b" target="_top" xlink:title="This signal is emitted when the Status characteristic has been read successfully.">
<polygon fill="white" stroke="#666666" points="594.5,-818 417.5,-818 417.5,-799 594.5,-799 594.5,-818"/>
<text text-anchor="middle" x="506" y="-806" font-family="Helvetica,sans-Serif" font-size="10.00">StatusService::deviceStatusRead</text>
</a>
</g>
</g>
<!-- Node22&#45;&gt;Node23 -->
<g id="edge27_Node000022_Node000023" class="edge">
<title>Node22&#45;&gt;Node23</title>
<g id="a_edge27_Node000022_Node000023"><a xlink:title=" ">
<path fill="none" stroke="#63b8ff" d="M671.32,-835.65C637.71,-830.1 597.17,-823.4 564.77,-818.04"/>
<polygon fill="#63b8ff" stroke="#63b8ff" points="679.26,-836.96 670.78,-839.21 675.31,-836.31 671.37,-835.66 671.37,-835.66 671.37,-835.66 675.31,-836.31 671.95,-832.1 679.26,-836.96 679.26,-836.96"/>
</a>
</g>
</g>
<!-- Node24 -->
<g id="Node000024" class="node">
<title>Node24</title>
<g id="a_Node000024"><a xlink:href="classStatusService.html#a1658b06923abd2a4e7f15f2cc56686bb" target="_top" xlink:title="This signal is emitted when the Torch characteristic has been read successfully.">
<polygon fill="white" stroke="#666666" points="591,-781 421,-781 421,-762 591,-762 591,-781"/>
<text text-anchor="middle" x="506" y="-769" font-family="Helvetica,sans-Serif" font-size="10.00">StatusService::torchStatusRead</text>
</a>
</g>
</g>
<!-- Node22&#45;&gt;Node24 -->
<g id="edge29_Node000022_Node000024" class="edge">
<title>Node22&#45;&gt;Node24</title>
<g id="a_edge29_Node000022_Node000024"><a xlink:title=" ">
<path fill="none" stroke="#63b8ff" d="M709.33,-833.65C681.65,-821.21 637.6,-802.51 598,-790.5 586.11,-786.89 573.14,-783.74 560.81,-781.09"/>
<polygon fill="#63b8ff" stroke="#63b8ff" points="716.69,-836.99 707.91,-836.96 713.04,-835.34 709.4,-833.69 709.4,-833.69 709.4,-833.69 713.04,-835.34 710.88,-830.41 716.69,-836.99 716.69,-836.99"/>
</a>
</g>
</g>
<!-- Node25 -->
<g id="Node000025" class="node">
<title>Node25</title>
<g id="a_Node000025"><a xlink:href="classStatusService.html#aab6278d4fe2bedc916fc3d96641eaa30" target="_top" xlink:title="Returns a string version of the status enum label.">
<polygon fill="white" stroke="#666666" points="570,-744 442,-744 442,-725 570,-725 570,-744"/>
<text text-anchor="middle" x="506" y="-732" font-family="Helvetica,sans-Serif" font-size="10.00">StatusService::toString</text>
</a>
</g>
</g>
<!-- Node22&#45;&gt;Node25 -->
<g id="edge30_Node000022_Node000025" class="edge">
<title>Node22&#45;&gt;Node25</title>
<g id="a_edge30_Node000022_Node000025"><a xlink:title=" ">
<path fill="none" stroke="#63b8ff" d="M719.52,-831.52C694.37,-810.76 645.71,-773.55 598,-753.5 588.77,-749.62 578.68,-746.51 568.68,-744.02"/>
<polygon fill="#63b8ff" stroke="#63b8ff" points="725.98,-836.91 717.53,-834.54 722.91,-834.35 719.84,-831.78 719.84,-831.78 719.84,-831.78 722.91,-834.35 722.15,-829.02 725.98,-836.91 725.98,-836.91"/>
</a>
</g>
</g>
<!-- Node26 -->
<g id="Node000026" class="node">
<title>Node26</title>
<g id="a_Node000026"><a xlink:href="classStatusService.html#a681701df043e0490ed38d127a86f9afb" target="_top" xlink:title="Returns a string version of the status enum label.">
<polygon fill="white" stroke="#666666" points="570,-707 442,-707 442,-688 570,-688 570,-707"/>
<text text-anchor="middle" x="506" y="-695" font-family="Helvetica,sans-Serif" font-size="10.00">StatusService::toString</text>
</a>
</g>
</g>
<!-- Node22&#45;&gt;Node26 -->
<g id="edge31_Node000022_Node000026" class="edge">
<title>Node22&#45;&gt;Node26</title>
<g id="a_edge31_Node000022_Node000026"><a xlink:title=" ">
<path fill="none" stroke="#63b8ff" d="M724.8,-830.35C702.77,-802.41 653.42,-745.27 598,-716.5 589.41,-712.04 579.84,-708.62 570.23,-706.01"/>
<polygon fill="#63b8ff" stroke="#63b8ff" points="729.81,-836.79 722.06,-832.68 727.35,-833.63 724.9,-830.48 724.9,-830.48 724.9,-830.48 727.35,-833.63 727.74,-828.27 729.81,-836.79 729.81,-836.79"/>
</a>
</g>
</g>
<!-- Node27 -->
<g id="Node000027" class="node">
<title>Node27</title>
<g id="a_Node000027"><a xlink:href="classStatusService.html#a5e5d307e56870f2a65e9ccf79429bff7" target="_top" xlink:title="Returns a string version of the status enum label.">
<polygon fill="white" stroke="#666666" points="570,-968 442,-968 442,-949 570,-949 570,-968"/>
<text text-anchor="middle" x="506" y="-956" font-family="Helvetica,sans-Serif" font-size="10.00">StatusService::toString</text>
</a>
</g>
</g>
<!-- Node22&#45;&gt;Node27 -->
<g id="edge32_Node000022_Node000027" class="edge">
<title>Node22&#45;&gt;Node27</title>
<g id="a_edge32_Node000022_Node000027"><a xlink:title=" ">
<path fill="none" stroke="#63b8ff" d="M703.74,-859.29C682.55,-868.37 655.2,-881.88 634,-898.5 614.65,-913.67 619.23,-928.1 598,-940.5 589.52,-945.46 579.91,-949.07 570.2,-951.7"/>
<polygon fill="#63b8ff" stroke="#63b8ff" points="711.25,-856.15 705.26,-862.56 707.56,-857.69 703.87,-859.24 703.87,-859.24 703.87,-859.24 707.56,-857.69 702.48,-855.92 711.25,-856.15 711.25,-856.15"/>
</a>
</g>
</g>
<!-- Node28 -->
<g id="Node000028" class="node">
<title>Node28</title>
<g id="a_Node000028"><a xlink:href="classStatusService.html#aac79e97cb114be25b2a6771d915f132d" target="_top" xlink:title="Returns a string version of the status enum label.">
<polygon fill="white" stroke="#666666" points="570,-894 442,-894 442,-875 570,-875 570,-894"/>
<text text-anchor="middle" x="506" y="-882" font-family="Helvetica,sans-Serif" font-size="10.00">StatusService::toString</text>
</a>
</g>
</g>
<!-- Node22&#45;&gt;Node28 -->
<g id="edge33_Node000022_Node000028" class="edge">
<title>Node22&#45;&gt;Node28</title>
<g id="a_edge33_Node000022_Node000028"><a xlink:title=" ">
<path fill="none" stroke="#63b8ff" d="M671.32,-857.35C637.71,-862.9 597.17,-869.6 564.77,-874.96"/>
<polygon fill="#63b8ff" stroke="#63b8ff" points="679.26,-856.04 671.95,-860.9 675.31,-856.69 671.37,-857.34 671.37,-857.34 671.37,-857.34 675.31,-856.69 670.78,-853.79 679.26,-856.04 679.26,-856.04"/>
</a>
</g>
</g>
<!-- Node37 -->
<g id="Node000037" class="node">
<title>Node37</title>
<g id="a_Node000037"><a xlink:href="classStatusService.html#a490e0f1d95063c7e0aabaed33f3f8b22" target="_top" xlink:title="Returns a string version of the status enum label.">
<polygon fill="white" stroke="#666666" points="570,-931 442,-931 442,-912 570,-912 570,-931"/>
<text text-anchor="middle" x="506" y="-919" font-family="Helvetica,sans-Serif" font-size="10.00">StatusService::toString</text>
</a>
</g>
</g>
<!-- Node22&#45;&gt;Node37 -->
<g id="edge45_Node000022_Node000037" class="edge">
<title>Node22&#45;&gt;Node37</title>
<g id="a_edge45_Node000022_Node000037"><a xlink:title=" ">
<path fill="none" stroke="#63b8ff" d="M709.86,-859.47C682.25,-872.23 637.95,-891.48 598,-903.5 587.2,-906.75 575.51,-909.56 564.21,-911.94"/>
<polygon fill="#63b8ff" stroke="#63b8ff" points="717.19,-856.06 711.45,-862.7 713.56,-857.75 709.93,-859.44 709.93,-859.44 709.93,-859.44 713.56,-857.75 708.41,-856.17 717.19,-856.06 717.19,-856.06"/>
</a>
</g>
</g>
<!-- Node29 -->
<g id="Node000029" class="node">
<title>Node29</title>
<g id="a_Node000029"><a xlink:href="classStatusServicePrivate.html#a08d8faee04fb47ac19d3962609606d52" target="_top" xlink:title="Implements AbstractPokitServicePrivate::characteristicRead to parse value, then emit a specialised si...">
<polygon fill="white" stroke="#666666" points="145.5,-851.5 27.5,-851.5 27.5,-821.5 145.5,-821.5 145.5,-851.5"/>
<text text-anchor="start" x="35.5" y="-839.5" font-family="Helvetica,sans-Serif" font-size="10.00">StatusServicePrivate</text>
<text text-anchor="middle" x="86.5" y="-828.5" font-family="Helvetica,sans-Serif" font-size="10.00">::characteristicRead</text>
</a>
</g>
</g>
<!-- Node28&#45;&gt;Node29 -->
<g id="edge34_Node000028_Node000029" class="edge">
<title>Node28&#45;&gt;Node29</title>
<g id="a_edge34_Node000028_Node000029"><a xlink:title=" ">
<path fill="none" stroke="#63b8ff" d="M433.43,-883.31C373.25,-881.5 285.11,-876.94 209,-865.5 186.8,-862.16 162.7,-856.78 141.85,-851.56"/>
<polygon fill="#63b8ff" stroke="#63b8ff" points="441.73,-883.55 433.63,-886.92 437.73,-883.43 433.73,-883.32 433.73,-883.32 433.73,-883.32 437.73,-883.43 433.84,-879.72 441.73,-883.55 441.73,-883.55"/>
</a>
</g>
</g>
<!-- Node30 -->
<g id="Node000030" class="node">
<title>Node30</title>
<g id="a_Node000030"><a xlink:href="classStatusCommand.html#ae2349e3d64b1b4db9b80465c0b7dadb7" target="_top" xlink:title="Outputs the Pokit device&#39;s details, including chrs, in the selected format.">
<polygon fill="white" stroke="#666666" points="378,-942.5 209,-942.5 209,-912.5 378,-912.5 378,-942.5"/>
<text text-anchor="start" x="217" y="-930.5" font-family="Helvetica,sans-Serif" font-size="10.00">StatusCommand::outputDevice</text>
<text text-anchor="middle" x="293.5" y="-919.5" font-family="Helvetica,sans-Serif" font-size="10.00">Status</text>
</a>
</g>
</g>
<!-- Node28&#45;&gt;Node30 -->
<g id="edge35_Node000028_Node000030" class="edge">
<title>Node28&#45;&gt;Node30</title>
<g id="a_edge35_Node000028_Node000030"><a xlink:title=" ">
<path fill="none" stroke="#63b8ff" d="M450.31,-895.67C425.19,-900.8 395.03,-906.96 367.96,-912.49"/>
<polygon fill="#63b8ff" stroke="#63b8ff" points="458.28,-894.04 451.17,-899.17 454.36,-894.84 450.45,-895.64 450.45,-895.64 450.45,-895.64 454.36,-894.84 449.72,-892.12 458.28,-894.04 458.28,-894.04"/>
</a>
</g>
</g>
<!-- Node32 -->
<g id="Node000032" class="node">
<title>Node32</title>
<g id="a_Node000032"><a xlink:href="classStatusServicePrivate.html#a90d78c3261bea8f23ddf9804ada203c1" target="_top" xlink:title="Parses the button press value, and returns the corresponding ButtonStatus.">
<polygon fill="white" stroke="#666666" points="352.5,-990.5 234.5,-990.5 234.5,-960.5 352.5,-960.5 352.5,-990.5"/>
<text text-anchor="start" x="242.5" y="-978.5" font-family="Helvetica,sans-Serif" font-size="10.00">StatusServicePrivate</text>
<text text-anchor="middle" x="293.5" y="-967.5" font-family="Helvetica,sans-Serif" font-size="10.00">::parseButtonPress</text>
</a>
</g>
</g>
<!-- Node28&#45;&gt;Node32 -->
<g id="edge37_Node000028_Node000032" class="edge">
<title>Node28&#45;&gt;Node32</title>
<g id="a_edge37_Node000028_Node000032"><a xlink:title=" ">
<path fill="none" stroke="#63b8ff" d="M434.18,-893.91C427.07,-896.41 420.2,-899.56 414,-903.5 391.5,-917.81 399.95,-936.36 378,-951.5 370.42,-956.72 361.72,-960.82 352.85,-964.03"/>
<polygon fill="#63b8ff" stroke="#63b8ff" points="441.97,-891.44 435.44,-897.29 438.16,-892.65 434.35,-893.86 434.35,-893.86 434.35,-893.86 438.16,-892.65 433.26,-890.43 441.97,-891.44 441.97,-891.44"/>
</a>
</g>
</g>
<!-- Node33 -->
<g id="Node000033" class="node">
<title>Node33</title>
<g id="a_Node000033"><a xlink:href="classStatusServicePrivate.html#a3a6ff8ca3e9d7c884b269e52dd43aeb0" target="_top" xlink:title="Parses the Status value into a Status struct.">
<polygon fill="white" stroke="#666666" points="352.5,-808.5 234.5,-808.5 234.5,-778.5 352.5,-778.5 352.5,-808.5"/>
<text text-anchor="start" x="242.5" y="-796.5" font-family="Helvetica,sans-Serif" font-size="10.00">StatusServicePrivate</text>
<text text-anchor="middle" x="293.5" y="-785.5" font-family="Helvetica,sans-Serif" font-size="10.00">::parseStatus</text>
</a>
</g>
</g>
<!-- Node28&#45;&gt;Node33 -->
<g id="edge39_Node000028_Node000033" class="edge">
<title>Node28&#45;&gt;Node33</title>
<g id="a_edge39_Node000028_Node000033"><a xlink:title=" ">
<path fill="none" stroke="#63b8ff" d="M439.15,-872.37C430.33,-869.27 421.68,-865.38 414,-860.5 392.96,-847.14 398.89,-831.09 378,-817.5 370.29,-812.48 361.51,-808.49 352.61,-805.33"/>
<polygon fill="#63b8ff" stroke="#63b8ff" points="446.94,-874.9 438.22,-875.85 443.13,-873.67 439.33,-872.43 439.33,-872.43 439.33,-872.43 443.13,-873.67 440.44,-869.01 446.94,-874.9 446.94,-874.9"/>
</a>
</g>
</g>
<!-- Node34 -->
<g id="Node000034" class="node">
<title>Node34</title>
<g id="a_Node000034"><a xlink:href="classStatusServicePrivate.html#abe408253ab1c7f08e09d7613691befba" target="_top" xlink:title="Parses the torch status value, and returns the corresponding TorchStatus.">
<polygon fill="white" stroke="#666666" points="352.5,-856.5 234.5,-856.5 234.5,-826.5 352.5,-826.5 352.5,-856.5"/>
<text text-anchor="start" x="242.5" y="-844.5" font-family="Helvetica,sans-Serif" font-size="10.00">StatusServicePrivate</text>
<text text-anchor="middle" x="293.5" y="-833.5" font-family="Helvetica,sans-Serif" font-size="10.00">::parseTorchStatus</text>
</a>
</g>
</g>
<!-- Node28&#45;&gt;Node34 -->
<g id="edge42_Node000028_Node000034" class="edge">
<title>Node28&#45;&gt;Node34</title>
<g id="a_edge42_Node000028_Node000034"><a xlink:title=" ">
<path fill="none" stroke="#63b8ff" d="M450.43,-873.35C420.46,-867.23 383.28,-859.64 352.75,-853.4"/>
<polygon fill="#63b8ff" stroke="#63b8ff" points="458.28,-874.96 449.72,-876.88 454.36,-874.16 450.45,-873.36 450.45,-873.36 450.45,-873.36 454.36,-874.16 451.17,-869.83 458.28,-874.96 458.28,-874.96"/>
</a>
</g>
</g>
<!-- Node36 -->
<g id="Node000036" class="node">
<title>Node36</title>
<g id="a_Node000036"><a xlink:href="classSetTorchCommand.html#ae76dcd51a542ff55cf057079c215450e" target="_top" xlink:title="Handles service detail discovery events.">
<polygon fill="white" stroke="#666666" points="368,-1038.5 219,-1038.5 219,-1008.5 368,-1008.5 368,-1038.5"/>
<text text-anchor="start" x="227" y="-1026.5" font-family="Helvetica,sans-Serif" font-size="10.00">SetTorchCommand::service</text>
<text text-anchor="middle" x="293.5" y="-1015.5" font-family="Helvetica,sans-Serif" font-size="10.00">DetailsDiscovered</text>
</a>
</g>
</g>
<!-- Node28&#45;&gt;Node36 -->
<g id="edge44_Node000028_Node000036" class="edge">
<title>Node28&#45;&gt;Node36</title>
<g id="a_edge44_Node000028_Node000036"><a xlink:title=" ">
<path fill="none" stroke="#63b8ff" d="M433.92,-891.81C426.68,-894.68 419.85,-898.48 414,-903.5 379.41,-933.17 411.47,-968.57 378,-999.5 374.34,-1002.88 370.24,-1005.78 365.87,-1008.28"/>
<polygon fill="#63b8ff" stroke="#63b8ff" points="441.92,-889.04 435.53,-895.06 438.14,-890.35 434.36,-891.66 434.36,-891.66 434.36,-891.66 438.14,-890.35 433.18,-888.25 441.92,-889.04 441.92,-889.04"/>
</a>
</g>
</g>
<!-- Node31 -->
<g id="Node000031" class="node">
<title>Node31</title>
<g id="a_Node000031"><a xlink:href="classStatusCommand.html#af275e3a02032915dd27e0c0e041ff6c1" target="_top" xlink:title="Handles service detail discovery events.">
<polygon fill="white" stroke="#666666" points="173,-942.5 0,-942.5 0,-912.5 173,-912.5 173,-942.5"/>
<text text-anchor="start" x="8" y="-930.5" font-family="Helvetica,sans-Serif" font-size="10.00">StatusCommand::serviceDetails</text>
<text text-anchor="middle" x="86.5" y="-919.5" font-family="Helvetica,sans-Serif" font-size="10.00">Discovered</text>
</a>
</g>
</g>
<!-- Node30&#45;&gt;Node31 -->
<g id="edge36_Node000030_Node000031" class="edge">
<title>Node30&#45;&gt;Node31</title>
<g id="a_edge36_Node000030_Node000031"><a xlink:title=" ">
<path fill="none" stroke="#63b8ff" d="M200.8,-927.5C191.63,-927.5 182.34,-927.5 173.24,-927.5"/>
<polygon fill="#63b8ff" stroke="#63b8ff" points="208.82,-927.5 200.82,-931.1 204.82,-927.5 200.82,-927.5 200.82,-927.5 200.82,-927.5 204.82,-927.5 200.82,-923.9 208.82,-927.5 208.82,-927.5"/>
</a>
</g>
</g>
<!-- Node32&#45;&gt;Node2 -->
<g id="edge38_Node000032_Node000002" class="edge">
<title>Node32&#45;&gt;Node2</title>
<g id="a_edge38_Node000032_Node000002"><a xlink:title=" ">
<path fill="none" stroke="#63b8ff" d="M226.32,-990.67C194.42,-997.99 157.12,-1006.54 129.23,-1012.93"/>
<polygon fill="#63b8ff" stroke="#63b8ff" points="234.3,-988.84 227.31,-994.14 230.4,-989.74 226.51,-990.63 226.51,-990.63 226.51,-990.63 230.4,-989.74 225.7,-987.12 234.3,-988.84 234.3,-988.84"/>
</a>
</g>
</g>
<!-- Node33&#45;&gt;Node22 -->
<g id="edge41_Node000033_Node000022" class="edge">
<title>Node33&#45;&gt;Node22</title>
<g id="a_edge41_Node000033_Node000022"><a xlink:title=" ">
<path fill="none" stroke="#63b8ff" d="M354.52,-810.73C383.46,-819.01 412.33,-827.22 414,-827.5 505.38,-843 613.15,-846.41 678.22,-846.88"/>
<polygon fill="#63b8ff" stroke="#63b8ff" points="346.78,-808.51 355.46,-807.25 350.62,-809.61 354.47,-810.71 354.47,-810.71 354.47,-810.71 350.62,-809.61 353.48,-814.17 346.78,-808.51 346.78,-808.51"/>
</a>
</g>
</g>
<!-- Node33&#45;&gt;Node29 -->
<g id="edge40_Node000033_Node000029" class="edge">
<title>Node33&#45;&gt;Node29</title>
<g id="a_edge40_Node000033_Node000029"><a xlink:title=" ">
<path fill="none" stroke="#63b8ff" d="M226.38,-807.37C200.46,-812.81 170.96,-818.99 145.84,-824.26"/>
<polygon fill="#63b8ff" stroke="#63b8ff" points="234.3,-805.71 227.21,-810.87 230.39,-806.53 226.47,-807.35 226.47,-807.35 226.47,-807.35 230.39,-806.53 225.73,-803.83 234.3,-805.71 234.3,-805.71"/>
</a>
</g>
</g>
<!-- Node34&#45;&gt;Node35 -->
<g id="edge43_Node000034_Node000035" class="edge">
<title>Node34&#45;&gt;Node35</title>
<g id="a_edge43_Node000034_Node000035"><a xlink:title=" ">
<path fill="none" stroke="#63b8ff" d="M226.66,-825.77C220.53,-823.36 214.55,-820.62 209,-817.5 158.99,-789.37 112.96,-736.84 95.22,-715.2"/>
<polygon fill="#63b8ff" stroke="#63b8ff" points="234.48,-828.64 225.73,-829.26 230.73,-827.26 226.97,-825.88 226.97,-825.88 226.97,-825.88 230.73,-827.26 228.21,-822.5 234.48,-828.64 234.48,-828.64"/>
</a>
</g>
</g>
</g>
</svg>
