<?xml version="1.0" encoding="UTF-8" standalone="no"?>
<!DOCTYPE svg PUBLIC "-//W3C//DTD SVG 1.1//EN"
 "http://www.w3.org/Graphics/SVG/1.1/DTD/svg11.dtd">
<!-- Generated by graphviz version 2.43.0 (0)
 -->
<!-- Title: LoggerStopCommand::serviceDetailsDiscovered Pages: 1 -->
<svg width="701pt" height="210pt"
 viewBox="0.00 0.00 701.00 209.50" xmlns="http://www.w3.org/2000/svg" xmlns:xlink="http://www.w3.org/1999/xlink">
<g id="graph0" class="graph" transform="scale(1 1) rotate(0) translate(4 205.5)">
<title>LoggerStopCommand::serviceDetailsDiscovered</title>
<!-- Node1 -->
<g id="node1" class="node">
<title>Node1</title>
<g id="a_node1"><a xlink:title="Handles service detail discovery events.">
<polygon fill="#bfbfbf" stroke="black" points="0,-127 0,-157 141,-157 141,-127 0,-127"/>
<text text-anchor="start" x="8" y="-145" font-family="Helvetica,sans-Serif" font-size="10.00">LoggerStopCommand::</text>
<text text-anchor="middle" x="70.5" y="-134" font-family="Helvetica,sans-Serif" font-size="10.00">serviceDetailsDiscovered</text>
</a>
</g>
</g>
<!-- Node2 -->
<g id="node2" class="node">
<title>Node2</title>
<g id="a_node2"><a xlink:href="classDeviceCommand.html#a906fd97d832be0e8d2ba1c917fba41db" target="_top" xlink:title="Handles service detail discovery events.">
<polygon fill="none" stroke="black" points="328,-171 328,-201 504,-201 504,-171 328,-171"/>
<text text-anchor="start" x="336" y="-189" font-family="Helvetica,sans-Serif" font-size="10.00">DeviceCommand::serviceDetails</text>
<text text-anchor="middle" x="416" y="-178" font-family="Helvetica,sans-Serif" font-size="10.00">Discovered</text>
</a>
</g>
</g>
<!-- Node1&#45;&gt;Node2 -->
<g id="edge1" class="edge">
<title>Node1&#45;&gt;Node2</title>
<path fill="none" stroke="midnightblue" d="M141.01,-151.29C153.01,-152.87 165.36,-154.49 177,-156 223.36,-162 274.83,-168.5 318.01,-173.92"/>
<polygon fill="midnightblue" stroke="midnightblue" points="317.58,-177.39 327.94,-175.16 318.45,-170.45 317.58,-177.39"/>
</g>
<!-- Node3 -->
<g id="node3" class="node">
<title>Node3</title>
<g id="a_node3"><a target="_parent" xlink:href="https://doc.qt.io/qt-5/qobject.html#tr" xlink:title=" ">
<polygon fill="none" stroke="black" points="582,-176.5 582,-195.5 651,-195.5 651,-176.5 582,-176.5"/>
<text text-anchor="middle" x="616.5" y="-183.5" font-family="Helvetica,sans-Serif" font-size="10.00">QObject::tr</text>
</a>
</g>
</g>
<!-- Node1&#45;&gt;Node3 -->
<g id="edge10" class="edge">
<title>Node1&#45;&gt;Node3</title>
<path fill="none" stroke="midnightblue" d="M141.1,-141.68C226.82,-142.1 376.72,-145.47 504,-162 526.51,-164.92 551.22,-170.04 571.64,-174.8"/>
<polygon fill="midnightblue" stroke="midnightblue" points="571.06,-178.26 581.59,-177.17 572.68,-171.45 571.06,-178.26"/>
</g>
<!-- Node4 -->
<g id="node4" class="node">
<title>Node4</title>
<g id="a_node4"><a xlink:href="classDataLoggerService.html#a9f8a721025e04bf27df18194247b532e" target="_top" xlink:title="Stop the data logger.">
<polygon fill="none" stroke="black" points="177,-83 177,-113 292,-113 292,-83 177,-83"/>
<text text-anchor="start" x="185" y="-101" font-family="Helvetica,sans-Serif" font-size="10.00">DataLoggerService::</text>
<text text-anchor="middle" x="234.5" y="-90" font-family="Helvetica,sans-Serif" font-size="10.00">stopLogger</text>
</a>
</g>
</g>
<!-- Node1&#45;&gt;Node4 -->
<g id="edge3" class="edge">
<title>Node1&#45;&gt;Node4</title>
<path fill="none" stroke="midnightblue" d="M126.8,-126.98C140.15,-123.35 154.54,-119.45 168.29,-115.71"/>
<polygon fill="midnightblue" stroke="midnightblue" points="169.44,-119.03 178.18,-113.03 167.61,-112.27 169.44,-119.03"/>
</g>
<!-- Node2&#45;&gt;Node3 -->
<g id="edge2" class="edge">
<title>Node2&#45;&gt;Node3</title>
<path fill="none" stroke="midnightblue" d="M504.06,-186C527.38,-186 551.6,-186 571.48,-186"/>
<polygon fill="midnightblue" stroke="midnightblue" points="571.75,-189.5 581.75,-186 571.75,-182.5 571.75,-189.5"/>
</g>
<!-- Node5 -->
<g id="node5" class="node">
<title>Node5</title>
<g id="a_node5"><a xlink:href="classDataLoggerService.html#a3b933a1a161a390eb08e5019685f449c" target="_top" xlink:title="Configures the Pokit device&#39;s data logger mode.">
<polygon fill="none" stroke="black" points="358.5,-83 358.5,-113 473.5,-113 473.5,-83 358.5,-83"/>
<text text-anchor="start" x="366.5" y="-101" font-family="Helvetica,sans-Serif" font-size="10.00">DataLoggerService::</text>
<text text-anchor="middle" x="416" y="-90" font-family="Helvetica,sans-Serif" font-size="10.00">setSettings</text>
</a>
</g>
</g>
<!-- Node4&#45;&gt;Node5 -->
<g id="edge4" class="edge">
<title>Node4&#45;&gt;Node5</title>
<path fill="none" stroke="midnightblue" d="M292.29,-98C310.06,-98 329.83,-98 348.21,-98"/>
<polygon fill="midnightblue" stroke="midnightblue" points="348.27,-101.5 358.27,-98 348.27,-94.5 348.27,-101.5"/>
</g>
<!-- Node5&#45;&gt;Node3 -->
<g id="edge9" class="edge">
<title>Node5&#45;&gt;Node3</title>
<path fill="none" stroke="midnightblue" d="M473.67,-112.98C484.2,-117.01 494.77,-121.97 504,-128 523.75,-140.9 519.72,-154.95 540,-167 549.7,-172.76 561.1,-176.78 572.06,-179.59"/>
<polygon fill="midnightblue" stroke="midnightblue" points="571.41,-183.03 581.94,-181.84 572.96,-176.21 571.41,-183.03"/>
</g>
<!-- Node6 -->
<g id="node6" class="node">
<title>Node6</title>
<g id="a_node6"><a target="_parent" xlink:href="https://doc.qt.io/qt-5/qlowenergycharacteristic.html#isValid" xlink:title=" ">
<polygon fill="none" stroke="black" points="544,-127 544,-157 689,-157 689,-127 544,-127"/>
<text text-anchor="start" x="552" y="-145" font-family="Helvetica,sans-Serif" font-size="10.00">QLowEnergyCharacteristic</text>
<text text-anchor="middle" x="616.5" y="-134" font-family="Helvetica,sans-Serif" font-size="10.00">::isValid</text>
</a>
</g>
</g>
<!-- Node5&#45;&gt;Node6 -->
<g id="edge5" class="edge">
<title>Node5&#45;&gt;Node6</title>
<path fill="none" stroke="midnightblue" d="M473.62,-110.55C493.5,-114.96 516.2,-119.99 537.53,-124.72"/>
<polygon fill="midnightblue" stroke="midnightblue" points="537.02,-128.19 547.54,-126.94 538.54,-121.36 537.02,-128.19"/>
</g>
<!-- Node7 -->
<g id="node7" class="node">
<title>Node7</title>
<g id="a_node7"><a target="_parent" xlink:href="https://doc.qt.io/qt-5/qdatastream.html#setByteOrder" xlink:title=" ">
<polygon fill="none" stroke="black" points="540,-88.5 540,-107.5 693,-107.5 693,-88.5 540,-88.5"/>
<text text-anchor="middle" x="616.5" y="-95.5" font-family="Helvetica,sans-Serif" font-size="10.00">QDataStream::setByteOrder</text>
</a>
</g>
</g>
<!-- Node5&#45;&gt;Node7 -->
<g id="edge6" class="edge">
<title>Node5&#45;&gt;Node7</title>
<path fill="none" stroke="midnightblue" d="M473.62,-98C491.1,-98 510.76,-98 529.76,-98"/>
<polygon fill="midnightblue" stroke="midnightblue" points="529.91,-101.5 539.91,-98 529.91,-94.5 529.91,-101.5"/>
</g>
<!-- Node8 -->
<g id="node8" class="node">
<title>Node8</title>
<g id="a_node8"><a target="_parent" xlink:href="https://doc.qt.io/qt-5/qdatastream.html#setFloatingPointPrecision" xlink:title=" ">
<polygon fill="none" stroke="black" points="545,-39 545,-69 688,-69 688,-39 545,-39"/>
<text text-anchor="start" x="553" y="-57" font-family="Helvetica,sans-Serif" font-size="10.00">QDataStream::setFloating</text>
<text text-anchor="middle" x="616.5" y="-46" font-family="Helvetica,sans-Serif" font-size="10.00">PointPrecision</text>
</a>
</g>
</g>
<!-- Node5&#45;&gt;Node8 -->
<g id="edge7" class="edge">
<title>Node5&#45;&gt;Node8</title>
<path fill="none" stroke="midnightblue" d="M473.62,-85.45C493.5,-81.04 516.2,-76.01 537.53,-71.28"/>
<polygon fill="midnightblue" stroke="midnightblue" points="538.54,-74.64 547.54,-69.06 537.02,-67.81 538.54,-74.64"/>
</g>
<!-- Node9 -->
<g id="node9" class="node">
<title>Node9</title>
<g id="a_node9"><a target="_parent" xlink:href="https://doc.qt.io/qt-5/qbytearray.html#size" xlink:title=" ">
<polygon fill="none" stroke="black" points="567.5,-0.5 567.5,-19.5 665.5,-19.5 665.5,-0.5 567.5,-0.5"/>
<text text-anchor="middle" x="616.5" y="-7.5" font-family="Helvetica,sans-Serif" font-size="10.00">QByteArray::size</text>
</a>
</g>
</g>
<!-- Node5&#45;&gt;Node9 -->
<g id="edge8" class="edge">
<title>Node5&#45;&gt;Node9</title>
<path fill="none" stroke="midnightblue" d="M439.67,-82.86C463.68,-67.41 503.15,-43.67 540,-29 546.24,-26.51 552.91,-24.28 559.6,-22.29"/>
<polygon fill="midnightblue" stroke="midnightblue" points="560.69,-25.62 569.37,-19.55 558.8,-18.88 560.69,-25.62"/>
</g>
</g>
</svg>
