<?xml version="1.0" encoding="UTF-8" standalone="no"?>
<!DOCTYPE svg PUBLIC "-//W3C//DTD SVG 1.1//EN"
 "http://www.w3.org/Graphics/SVG/1.1/DTD/svg11.dtd">
<!-- Generated by graphviz version 2.43.0 (0)
 -->
<!-- Title: StatusService::status Pages: 1 -->
<svg width="832pt" height="315pt"
 viewBox="0.00 0.00 832.00 314.53" xmlns="http://www.w3.org/2000/svg" xmlns:xlink="http://www.w3.org/1999/xlink">
<g id="graph0" class="graph" transform="scale(1 1) rotate(0) translate(4 310.53)">
<title>StatusService::status</title>
<!-- Node1 -->
<g id="node1" class="node">
<title>Node1</title>
<g id="a_node1"><a xlink:title="Returns the most recent value of the Status service&#39;s Status characteristic.">
<polygon fill="#bfbfbf" stroke="black" points="0,-98 0,-117 119,-117 119,-98 0,-98"/>
<text text-anchor="middle" x="59.5" y="-105" font-family="Helvetica,sans-Serif" font-size="10.00">StatusService::status</text>
</a>
</g>
</g>
<!-- Node2 -->
<g id="node2" class="node">
<title>Node2</title>
<g id="a_node2"><a target="_parent" xlink:href="https://doc.qt.io/qt-5/qlowenergycharacteristic.html#isValid" xlink:title=" ">
<polygon fill="none" stroke="black" points="155,-166.5 155,-196.5 300,-196.5 300,-166.5 155,-166.5"/>
<text text-anchor="start" x="163" y="-184.5" font-family="Helvetica,sans-Serif" font-size="10.00">QLowEnergyCharacteristic</text>
<text text-anchor="middle" x="227.5" y="-173.5" font-family="Helvetica,sans-Serif" font-size="10.00">::isValid</text>
</a>
</g>
</g>
<!-- Node1&#45;&gt;Node2 -->
<g id="edge1" class="edge">
<title>Node1&#45;&gt;Node2</title>
<path fill="none" stroke="midnightblue" d="M76.83,-117.19C95.36,-127.94 126.68,-145.35 155,-157.5 159.36,-159.37 163.91,-161.19 168.53,-162.94"/>
<polygon fill="midnightblue" stroke="midnightblue" points="167.43,-166.26 178.02,-166.42 169.84,-159.69 167.43,-166.26"/>
</g>
<!-- Node3 -->
<g id="node3" class="node">
<title>Node3</title>
<g id="a_node3"><a xlink:href="classStatusServicePrivate.html#a3a6ff8ca3e9d7c884b269e52dd43aeb0" target="_top" xlink:title="Parses the Status value into a DeviceStatus and battery voltage.">
<polygon fill="none" stroke="black" points="168.5,-117.5 168.5,-147.5 286.5,-147.5 286.5,-117.5 168.5,-117.5"/>
<text text-anchor="start" x="176.5" y="-135.5" font-family="Helvetica,sans-Serif" font-size="10.00">StatusServicePrivate</text>
<text text-anchor="middle" x="227.5" y="-124.5" font-family="Helvetica,sans-Serif" font-size="10.00">::parseStatus</text>
</a>
</g>
</g>
<!-- Node1&#45;&gt;Node3 -->
<g id="edge2" class="edge">
<title>Node1&#45;&gt;Node3</title>
<path fill="none" stroke="midnightblue" d="M119.03,-116.31C131.62,-118.21 145.04,-120.23 157.98,-122.18"/>
<polygon fill="midnightblue" stroke="midnightblue" points="157.81,-125.7 168.22,-123.72 158.86,-118.77 157.81,-125.7"/>
</g>
<!-- Node16 -->
<g id="node16" class="node">
<title>Node16</title>
<g id="a_node16"><a target="_parent" xlink:href="https://doc.qt.io/qt-5/qlowenergycharacteristic.html#value" xlink:title=" ">
<polygon fill="none" stroke="black" points="155,-68.5 155,-98.5 300,-98.5 300,-68.5 155,-68.5"/>
<text text-anchor="start" x="163" y="-86.5" font-family="Helvetica,sans-Serif" font-size="10.00">QLowEnergyCharacteristic</text>
<text text-anchor="middle" x="227.5" y="-75.5" font-family="Helvetica,sans-Serif" font-size="10.00">::value</text>
</a>
</g>
</g>
<!-- Node1&#45;&gt;Node16 -->
<g id="edge22" class="edge">
<title>Node1&#45;&gt;Node16</title>
<path fill="none" stroke="midnightblue" d="M119.03,-99.04C127.34,-97.84 136.02,-96.58 144.69,-95.33"/>
<polygon fill="midnightblue" stroke="midnightblue" points="145.43,-98.76 154.83,-93.86 144.43,-91.83 145.43,-98.76"/>
</g>
<!-- Node4 -->
<g id="node4" class="node">
<title>Node4</title>
<g id="a_node4"><a target="_parent" xlink:href="https://doc.qt.io/qt-5/qstring.html#arg-11" xlink:title=" ">
<polygon fill="none" stroke="black" points="731,-265 731,-284 805,-284 805,-265 731,-265"/>
<text text-anchor="middle" x="768" y="-272" font-family="Helvetica,sans-Serif" font-size="10.00">QString::arg</text>
</a>
</g>
</g>
<!-- Node3&#45;&gt;Node4 -->
<g id="edge3" class="edge">
<title>Node3&#45;&gt;Node4</title>
<path fill="none" stroke="midnightblue" d="M286.06,-147.59C291.12,-150.36 295.88,-153.63 300,-157.5 329.93,-185.56 304.22,-216.55 336,-242.5 447.97,-333.94 635.53,-305.87 721.48,-286.38"/>
<polygon fill="midnightblue" stroke="midnightblue" points="722.5,-289.74 731.44,-284.06 720.91,-282.92 722.5,-289.74"/>
</g>
<!-- Node5 -->
<g id="node5" class="node">
<title>Node5</title>
<g id="a_node5"><a target="_parent" xlink:href="https://doc.qt.io/qt-5/qbytearray.html#at" xlink:title=" ">
<polygon fill="none" stroke="black" points="368,-176 368,-195 456,-195 456,-176 368,-176"/>
<text text-anchor="middle" x="412" y="-183" font-family="Helvetica,sans-Serif" font-size="10.00">QByteArray::at</text>
</a>
</g>
</g>
<!-- Node3&#45;&gt;Node5 -->
<g id="edge4" class="edge">
<title>Node3&#45;&gt;Node5</title>
<path fill="none" stroke="midnightblue" d="M274.09,-147.57C293.15,-153.69 315.57,-160.69 336,-166.5 344.26,-168.85 353.08,-171.21 361.66,-173.44"/>
<polygon fill="midnightblue" stroke="midnightblue" points="361.02,-176.88 371.57,-175.97 362.75,-170.1 361.02,-176.88"/>
</g>
<!-- Node6 -->
<g id="node6" class="node">
<title>Node6</title>
<g id="a_node6"><a xlink:href="classAbstractPokitServicePrivate.html#af8b480a950244540bfff7fc4b476a0ef" target="_top" xlink:title="Returns false if data is smaller than minSize, otherwise returns failOnMax if data is bigger than max...">
<polygon fill="none" stroke="black" points="336,-126.5 336,-156.5 488,-156.5 488,-126.5 336,-126.5"/>
<text text-anchor="start" x="344" y="-144.5" font-family="Helvetica,sans-Serif" font-size="10.00">AbstractPokitServicePrivate</text>
<text text-anchor="middle" x="412" y="-133.5" font-family="Helvetica,sans-Serif" font-size="10.00">::checkSize</text>
</a>
</g>
</g>
<!-- Node3&#45;&gt;Node6 -->
<g id="edge5" class="edge">
<title>Node3&#45;&gt;Node6</title>
<path fill="none" stroke="midnightblue" d="M286.75,-135.37C299.21,-135.99 312.63,-136.65 325.88,-137.3"/>
<polygon fill="midnightblue" stroke="midnightblue" points="325.8,-140.8 335.96,-137.8 326.14,-133.81 325.8,-140.8"/>
</g>
<!-- Node7 -->
<g id="node7" class="node">
<title>Node7</title>
<g id="a_node7"><a target="_parent" xlink:href="https://doc.qt.io/qt-5/qbytearray.html#mid" xlink:title=" ">
<polygon fill="none" stroke="black" points="551.5,-252 551.5,-271 648.5,-271 648.5,-252 551.5,-252"/>
<text text-anchor="middle" x="600" y="-259" font-family="Helvetica,sans-Serif" font-size="10.00">QByteArray::mid</text>
</a>
</g>
</g>
<!-- Node3&#45;&gt;Node7 -->
<g id="edge19" class="edge">
<title>Node3&#45;&gt;Node7</title>
<path fill="none" stroke="midnightblue" d="M282.54,-147.52C288.7,-150.34 294.67,-153.64 300,-157.5 321.31,-172.93 313.78,-190.41 336,-204.5 398.58,-244.2 484.59,-256.58 540.96,-260.26"/>
<polygon fill="midnightblue" stroke="midnightblue" points="540.94,-263.77 551.13,-260.85 541.35,-256.78 540.94,-263.77"/>
</g>
<!-- Node8 -->
<g id="node8" class="node">
<title>Node8</title>
<g id="a_node8"><a target="_parent" xlink:href="https://doc.qt.io/qt-5/qbytearray.html#size" xlink:title=" ">
<polygon fill="none" stroke="black" points="719,-75 719,-94 817,-94 817,-75 719,-75"/>
<text text-anchor="middle" x="768" y="-82" font-family="Helvetica,sans-Serif" font-size="10.00">QByteArray::size</text>
</a>
</g>
</g>
<!-- Node3&#45;&gt;Node8 -->
<g id="edge20" class="edge">
<title>Node3&#45;&gt;Node8</title>
<path fill="none" stroke="midnightblue" d="M272.78,-117.44C292.01,-111.39 314.92,-104.84 336,-100.5 484.32,-69.98 524.65,-73.52 676,-78.5 686.55,-78.85 697.78,-79.42 708.62,-80.08"/>
<polygon fill="midnightblue" stroke="midnightblue" points="708.66,-83.59 718.86,-80.73 709.1,-76.6 708.66,-83.59"/>
</g>
<!-- Node14 -->
<g id="node14" class="node">
<title>Node14</title>
<g id="a_node14"><a target="_parent" xlink:href="https://doc.qt.io/qt-5/qobject.html#tr" xlink:title=" ">
<polygon fill="none" stroke="black" points="565.5,-88 565.5,-107 634.5,-107 634.5,-88 565.5,-88"/>
<text text-anchor="middle" x="600" y="-95" font-family="Helvetica,sans-Serif" font-size="10.00">QObject::tr</text>
</a>
</g>
</g>
<!-- Node3&#45;&gt;Node14 -->
<g id="edge21" class="edge">
<title>Node3&#45;&gt;Node14</title>
<path fill="none" stroke="midnightblue" d="M286.72,-123.7C302.67,-121.47 319.98,-119.22 336,-117.5 412.88,-109.22 502.77,-103.16 555.06,-100"/>
<polygon fill="midnightblue" stroke="midnightblue" points="555.54,-103.47 565.31,-99.38 555.12,-96.49 555.54,-103.47"/>
</g>
<!-- Node15 -->
<g id="node15" class="node">
<title>Node15</title>
<g id="a_node15"><a xlink:href="classStatusService.html#adddc5b563c16a8ad199f6a07966d372c" target="_top" xlink:title="Returns a string version of the status enum label.">
<polygon fill="none" stroke="black" points="336,-0.5 336,-30.5 488,-30.5 488,-0.5 336,-0.5"/>
<text text-anchor="start" x="344" y="-18.5" font-family="Helvetica,sans-Serif" font-size="10.00">StatusService::deviceStatus</text>
<text text-anchor="middle" x="412" y="-7.5" font-family="Helvetica,sans-Serif" font-size="10.00">Label</text>
</a>
</g>
</g>
<!-- Node3&#45;&gt;Node15 -->
<g id="edge17" class="edge">
<title>Node3&#45;&gt;Node15</title>
<path fill="none" stroke="midnightblue" d="M284.49,-117.41C290.04,-114.63 295.34,-111.35 300,-107.5 324.56,-87.2 311.89,-66.33 336,-45.5 340.49,-41.62 345.54,-38.21 350.84,-35.21"/>
<polygon fill="midnightblue" stroke="midnightblue" points="352.65,-38.22 359.96,-30.55 349.46,-31.98 352.65,-38.22"/>
</g>
<!-- Node6&#45;&gt;Node4 -->
<g id="edge6" class="edge">
<title>Node6&#45;&gt;Node4</title>
<path fill="none" stroke="midnightblue" d="M468.51,-156.52C475.31,-159.36 481.98,-162.67 488,-166.5 507.62,-179 503.91,-192.77 524,-204.5 584.13,-239.62 609.39,-222.2 676,-242.5 692.27,-247.46 695.96,-249.83 712,-255.5 717.61,-257.48 723.56,-259.56 729.38,-261.58"/>
<polygon fill="midnightblue" stroke="midnightblue" points="728.4,-264.95 738.99,-264.91 730.69,-258.33 728.4,-264.95"/>
</g>
<!-- Node6&#45;&gt;Node7 -->
<g id="edge7" class="edge">
<title>Node6&#45;&gt;Node7</title>
<path fill="none" stroke="midnightblue" d="M473.08,-156.62C478.45,-159.38 483.53,-162.65 488,-166.5 514.79,-189.61 497.07,-214.56 524,-237.5 529.24,-241.97 535.33,-245.61 541.72,-248.57"/>
<polygon fill="midnightblue" stroke="midnightblue" points="540.66,-251.92 551.25,-252.44 543.3,-245.43 540.66,-251.92"/>
</g>
<!-- Node6&#45;&gt;Node8 -->
<g id="edge8" class="edge">
<title>Node6&#45;&gt;Node8</title>
<path fill="none" stroke="midnightblue" d="M488.04,-139.38C541.08,-136.67 613.57,-130.5 676,-116.5 692.6,-112.78 695.96,-109.17 712,-103.5 717.61,-101.52 723.56,-99.44 729.38,-97.42"/>
<polygon fill="midnightblue" stroke="midnightblue" points="730.69,-100.67 738.99,-94.09 728.4,-94.05 730.69,-100.67"/>
</g>
<!-- Node9 -->
<g id="node9" class="node">
<title>Node9</title>
<g id="a_node9"><a xlink:href="classAbstractPokitServicePrivate.html#af748600fc201fe47f29b58e8e93179d8" target="_top" xlink:title="Returns up to maxSize bytes of data as a human readable hexadecimal string.">
<polygon fill="none" stroke="black" points="524,-164.5 524,-194.5 676,-194.5 676,-164.5 524,-164.5"/>
<text text-anchor="start" x="532" y="-182.5" font-family="Helvetica,sans-Serif" font-size="10.00">AbstractPokitServicePrivate</text>
<text text-anchor="middle" x="600" y="-171.5" font-family="Helvetica,sans-Serif" font-size="10.00">::toHexString</text>
</a>
</g>
</g>
<!-- Node6&#45;&gt;Node9 -->
<g id="edge9" class="edge">
<title>Node6&#45;&gt;Node9</title>
<path fill="none" stroke="midnightblue" d="M486.51,-156.52C496.01,-158.46 505.79,-160.46 515.43,-162.43"/>
<polygon fill="midnightblue" stroke="midnightblue" points="514.91,-165.89 525.41,-164.47 516.32,-159.04 514.91,-165.89"/>
</g>
<!-- Node6&#45;&gt;Node14 -->
<g id="edge16" class="edge">
<title>Node6&#45;&gt;Node14</title>
<path fill="none" stroke="midnightblue" d="M476.49,-126.48C502.43,-120.34 531.8,-113.4 555.27,-107.84"/>
<polygon fill="midnightblue" stroke="midnightblue" points="556.35,-111.19 565.27,-105.48 554.74,-104.37 556.35,-111.19"/>
</g>
<!-- Node9&#45;&gt;Node4 -->
<g id="edge10" class="edge">
<title>Node9&#45;&gt;Node4</title>
<path fill="none" stroke="midnightblue" d="M649.81,-194.67C658.98,-198.7 668.15,-203.61 676,-209.5 696.77,-225.08 690.87,-240.42 712,-255.5 715.01,-257.65 718.29,-259.58 721.7,-261.29"/>
<polygon fill="midnightblue" stroke="midnightblue" points="720.36,-264.53 730.92,-265.38 723.19,-258.13 720.36,-264.53"/>
</g>
<!-- Node9&#45;&gt;Node8 -->
<g id="edge14" class="edge">
<title>Node9&#45;&gt;Node8</title>
<path fill="none" stroke="midnightblue" d="M649.81,-164.33C658.98,-160.3 668.15,-155.39 676,-149.5 696.77,-133.92 690.87,-118.58 712,-103.5 714.67,-101.59 717.55,-99.86 720.55,-98.3"/>
<polygon fill="midnightblue" stroke="midnightblue" points="722.13,-101.42 729.76,-94.08 719.21,-95.06 722.13,-101.42"/>
</g>
<!-- Node10 -->
<g id="node10" class="node">
<title>Node10</title>
<g id="a_node10"><a target="_parent" xlink:href="https://doc.qt.io/qt-5/qstring.html#fromLatin1" xlink:title=" ">
<polygon fill="none" stroke="black" points="712,-151 712,-170 824,-170 824,-151 712,-151"/>
<text text-anchor="middle" x="768" y="-158" font-family="Helvetica,sans-Serif" font-size="10.00">QString::fromLatin1</text>
</a>
</g>
</g>
<!-- Node9&#45;&gt;Node10 -->
<g id="edge11" class="edge">
<title>Node9&#45;&gt;Node10</title>
<path fill="none" stroke="midnightblue" d="M676.23,-170.89C684.77,-169.91 693.42,-168.92 701.81,-167.96"/>
<polygon fill="midnightblue" stroke="midnightblue" points="702.36,-171.42 711.9,-166.81 701.56,-164.47 702.36,-171.42"/>
</g>
<!-- Node11 -->
<g id="node11" class="node">
<title>Node11</title>
<g id="a_node11"><a target="_parent" xlink:href="https://doc.qt.io/qt-5/qbytearray.html#left" xlink:title=" ">
<polygon fill="none" stroke="black" points="721,-113 721,-132 815,-132 815,-113 721,-113"/>
<text text-anchor="middle" x="768" y="-120" font-family="Helvetica,sans-Serif" font-size="10.00">QByteArray::left</text>
</a>
</g>
</g>
<!-- Node9&#45;&gt;Node11 -->
<g id="edge12" class="edge">
<title>Node9&#45;&gt;Node11</title>
<path fill="none" stroke="midnightblue" d="M645.05,-164.37C671.34,-155.35 704.36,-144.01 729.42,-135.41"/>
<polygon fill="midnightblue" stroke="midnightblue" points="730.61,-138.69 738.94,-132.14 728.34,-132.07 730.61,-138.69"/>
</g>
<!-- Node12 -->
<g id="node12" class="node">
<title>Node12</title>
<g id="a_node12"><a target="_parent" xlink:href="https://doc.qt.io/qt-5/qbytearray.html#right" xlink:title=" ">
<polygon fill="none" stroke="black" points="717.5,-227 717.5,-246 818.5,-246 818.5,-227 717.5,-227"/>
<text text-anchor="middle" x="768" y="-234" font-family="Helvetica,sans-Serif" font-size="10.00">QByteArray::right</text>
</a>
</g>
</g>
<!-- Node9&#45;&gt;Node12 -->
<g id="edge13" class="edge">
<title>Node9&#45;&gt;Node12</title>
<path fill="none" stroke="midnightblue" d="M645.05,-194.63C671.34,-203.65 704.36,-214.99 729.42,-223.59"/>
<polygon fill="midnightblue" stroke="midnightblue" points="728.34,-226.93 738.94,-226.86 730.61,-220.31 728.34,-226.93"/>
</g>
<!-- Node13 -->
<g id="node13" class="node">
<title>Node13</title>
<g id="a_node13"><a target="_parent" xlink:href="https://doc.qt.io/qt-5/qbytearray.html#toHex" xlink:title=" ">
<polygon fill="none" stroke="black" points="714.5,-189 714.5,-208 821.5,-208 821.5,-189 714.5,-189"/>
<text text-anchor="middle" x="768" y="-196" font-family="Helvetica,sans-Serif" font-size="10.00">QByteArray::toHex</text>
</a>
</g>
</g>
<!-- Node9&#45;&gt;Node13 -->
<g id="edge15" class="edge">
<title>Node9&#45;&gt;Node13</title>
<path fill="none" stroke="midnightblue" d="M676.23,-188.11C685.58,-189.18 695.06,-190.27 704.19,-191.31"/>
<polygon fill="midnightblue" stroke="midnightblue" points="704,-194.81 714.33,-192.47 704.8,-187.86 704,-194.81"/>
</g>
<!-- Node15&#45;&gt;Node1 -->
<g id="edge18" class="edge">
<title>Node15&#45;&gt;Node1</title>
<path fill="none" stroke="midnightblue" d="M335.85,-21.89C284.02,-27.8 214.1,-38.76 155,-58.5 129.51,-67.02 102.48,-81.67 83.89,-92.74"/>
<polygon fill="midnightblue" stroke="midnightblue" points="81.97,-89.81 75.24,-98 85.6,-95.79 81.97,-89.81"/>
</g>
</g>
</svg>
