<?xml version="1.0" encoding="UTF-8" standalone="no"?>
<!DOCTYPE svg PUBLIC "-//W3C//DTD SVG 1.1//EN"
 "http://www.w3.org/Graphics/SVG/1.1/DTD/svg11.dtd">
<!-- Generated by graphviz version 2.43.0 (0)
 -->
<!-- Title: StatusServicePrivate::parseStatus Pages: 1 -->
<svg width="670pt" height="116pt"
 viewBox="0.00 0.00 670.00 116.00" xmlns="http://www.w3.org/2000/svg" xmlns:xlink="http://www.w3.org/1999/xlink">
<g id="graph0" class="graph" transform="scale(1 1) rotate(0) translate(4 112)">
<title>StatusServicePrivate::parseStatus</title>
<!-- Node1 -->
<g id="node1" class="node">
<title>Node1</title>
<g id="a_node1"><a xlink:title="Parses the Status value into a DeviceStatus and battery voltage.">
<polygon fill="#bfbfbf" stroke="black" points="544,-39 544,-69 662,-69 662,-39 544,-39"/>
<text text-anchor="start" x="552" y="-57" font-family="Helvetica,sans-Serif" font-size="10.00">StatusServicePrivate</text>
<text text-anchor="middle" x="603" y="-46" font-family="Helvetica,sans-Serif" font-size="10.00">::parseStatus</text>
</a>
</g>
</g>
<!-- Node2 -->
<g id="node2" class="node">
<title>Node2</title>
<g id="a_node2"><a xlink:href="classStatusService.html#aca5c357a3fef14251081bdfaf60f4971" target="_top" xlink:title="Returns the most recent value of the Status characteristic&#39;s Battery Voltage attribute.">
<polygon fill="none" stroke="black" points="347,-88.5 347,-107.5 508,-107.5 508,-88.5 347,-88.5"/>
<text text-anchor="middle" x="427.5" y="-95.5" font-family="Helvetica,sans-Serif" font-size="10.00">StatusService::batteryVoltage</text>
</a>
</g>
</g>
<!-- Node1&#45;&gt;Node2 -->
<g id="edge1" class="edge">
<title>Node1&#45;&gt;Node2</title>
<path fill="none" stroke="midnightblue" d="M536.52,-71.64C526.96,-74.15 517.24,-76.67 508,-79 495.48,-82.16 481.81,-85.48 469.4,-88.43"/>
<polygon fill="midnightblue" stroke="midnightblue" points="537.61,-74.97 546.39,-69.04 535.83,-68.21 537.61,-74.97"/>
</g>
<!-- Node5 -->
<g id="node5" class="node">
<title>Node5</title>
<g id="a_node5"><a xlink:href="classStatusServicePrivate.html#a08d8faee04fb47ac19d3962609606d52" target="_top" xlink:title="Implements AbstractPokitServicePrivate::characteristicRead parse value, then emit a specialised signa...">
<polygon fill="none" stroke="black" points="368.5,-39 368.5,-69 486.5,-69 486.5,-39 368.5,-39"/>
<text text-anchor="start" x="376.5" y="-57" font-family="Helvetica,sans-Serif" font-size="10.00">StatusServicePrivate</text>
<text text-anchor="middle" x="427.5" y="-46" font-family="Helvetica,sans-Serif" font-size="10.00">::characteristicRead</text>
</a>
</g>
</g>
<!-- Node1&#45;&gt;Node5 -->
<g id="edge4" class="edge">
<title>Node1&#45;&gt;Node5</title>
<path fill="none" stroke="midnightblue" d="M533.66,-54C518.09,-54 501.69,-54 486.6,-54"/>
<polygon fill="midnightblue" stroke="midnightblue" points="533.74,-57.5 543.74,-54 533.74,-50.5 533.74,-57.5"/>
</g>
<!-- Node6 -->
<g id="node6" class="node">
<title>Node6</title>
<g id="a_node6"><a xlink:href="classStatusService.html#a37b3976eeb85bf5aaf1cb23605b15f01" target="_top" xlink:title="Returns the most recent value of the Status characteristic&#39;s Status attribute.">
<polygon fill="none" stroke="black" points="351.5,-0.5 351.5,-19.5 503.5,-19.5 503.5,-0.5 351.5,-0.5"/>
<text text-anchor="middle" x="427.5" y="-7.5" font-family="Helvetica,sans-Serif" font-size="10.00">StatusService::deviceStatus</text>
</a>
</g>
</g>
<!-- Node1&#45;&gt;Node6 -->
<g id="edge5" class="edge">
<title>Node1&#45;&gt;Node6</title>
<path fill="none" stroke="midnightblue" d="M534.02,-36.61C525.27,-34.38 516.42,-32.13 508,-30 494.48,-26.57 479.66,-22.84 466.52,-19.54"/>
<polygon fill="midnightblue" stroke="midnightblue" points="533.29,-40.04 543.84,-39.12 535.02,-33.26 533.29,-40.04"/>
</g>
<!-- Node3 -->
<g id="node3" class="node">
<title>Node3</title>
<g id="a_node3"><a xlink:href="classInfoCommand.html#a06d095d57662fd10b201d6273085c34e" target="_top" xlink:title="Handles service detail discovery events.">
<polygon fill="none" stroke="black" points="150,-39 150,-69 311,-69 311,-39 150,-39"/>
<text text-anchor="start" x="158" y="-57" font-family="Helvetica,sans-Serif" font-size="10.00">InfoCommand::serviceDetails</text>
<text text-anchor="middle" x="230.5" y="-46" font-family="Helvetica,sans-Serif" font-size="10.00">Discovered</text>
</a>
</g>
</g>
<!-- Node2&#45;&gt;Node3 -->
<g id="edge2" class="edge">
<title>Node2&#45;&gt;Node3</title>
<path fill="none" stroke="midnightblue" d="M374.15,-86.19C350.82,-80.92 323.07,-74.66 298.27,-69.07"/>
<polygon fill="midnightblue" stroke="midnightblue" points="373.66,-89.67 384.19,-88.45 375.2,-82.84 373.66,-89.67"/>
</g>
<!-- Node4 -->
<g id="node4" class="node">
<title>Node4</title>
<g id="a_node4"><a xlink:href="classInfoCommand.html#a8f12a62e56958971c0f3655e1338decb" target="_top" xlink:title="Begins scanning for Pokit devices.">
<polygon fill="none" stroke="black" points="0,-44.5 0,-63.5 114,-63.5 114,-44.5 0,-44.5"/>
<text text-anchor="middle" x="57" y="-51.5" font-family="Helvetica,sans-Serif" font-size="10.00">InfoCommand::start</text>
</a>
</g>
</g>
<!-- Node3&#45;&gt;Node4 -->
<g id="edge3" class="edge">
<title>Node3&#45;&gt;Node4</title>
<path fill="none" stroke="midnightblue" d="M139.57,-54C130.89,-54 122.26,-54 114.04,-54"/>
<polygon fill="midnightblue" stroke="midnightblue" points="139.77,-57.5 149.77,-54 139.77,-50.5 139.77,-57.5"/>
</g>
<!-- Node6&#45;&gt;Node3 -->
<g id="edge6" class="edge">
<title>Node6&#45;&gt;Node3</title>
<path fill="none" stroke="midnightblue" d="M374.15,-21.81C350.82,-27.08 323.07,-33.34 298.27,-38.93"/>
<polygon fill="midnightblue" stroke="midnightblue" points="375.2,-25.16 384.19,-19.55 373.66,-18.33 375.2,-25.16"/>
</g>
</g>
</svg>
