<?xml version="1.0" encoding="UTF-8" standalone="no"?>
<!DOCTYPE svg PUBLIC "-//W3C//DTD SVG 1.1//EN"
 "http://www.w3.org/Graphics/SVG/1.1/DTD/svg11.dtd">
<!-- Generated by graphviz version 2.43.0 (0)
 -->
<!-- Title: FlashLedCommand Pages: 1 -->
<svg width="925pt" height="219pt"
 viewBox="0.00 0.00 925.05 219.00" xmlns="http://www.w3.org/2000/svg" xmlns:xlink="http://www.w3.org/1999/xlink">
<g id="graph0" class="graph" transform="scale(1 1) rotate(0) translate(4 215)">
<title>FlashLedCommand</title>
<!-- Node1 -->
<g id="node1" class="node">
<title>Node1</title>
<g id="a_node1"><a xlink:title="The FlashLedCommand class implements the flash&#45;led CLI command.">
<polygon fill="#bfbfbf" stroke="black" points="123.5,-0.5 123.5,-19.5 233.5,-19.5 233.5,-0.5 123.5,-0.5"/>
<text text-anchor="middle" x="178.5" y="-7.5" font-family="Helvetica,sans-Serif" font-size="10.00">FlashLedCommand</text>
</a>
</g>
</g>
<!-- Node2 -->
<g id="node2" class="node">
<title>Node2</title>
<g id="a_node2"><a xlink:href="classDeviceCommand.html" target="_top" xlink:title="The AbstractCommand class extends AbstractCommand to add a PokitDevice instance.">
<polygon fill="none" stroke="black" points="0,-67.5 0,-86.5 101,-86.5 101,-67.5 0,-67.5"/>
<text text-anchor="middle" x="50.5" y="-74.5" font-family="Helvetica,sans-Serif" font-size="10.00">DeviceCommand</text>
</a>
</g>
</g>
<!-- Node2&#45;&gt;Node1 -->
<g id="edge1" class="edge">
<title>Node2&#45;&gt;Node1</title>
<path fill="none" stroke="midnightblue" d="M75.72,-62.69C89.75,-55.33 107.55,-46.07 123.5,-38 135.84,-31.76 149.83,-24.9 160.61,-19.65"/>
<polygon fill="midnightblue" stroke="midnightblue" points="73.9,-59.69 66.68,-67.44 77.16,-65.88 73.9,-59.69"/>
</g>
<!-- Node3 -->
<g id="node3" class="node">
<title>Node3</title>
<g id="a_node3"><a xlink:href="classAbstractCommand.html" target="_top" xlink:title="The AbstractCommand class provides a consistent base for the classes that implement CLI commands.">
<polygon fill="none" stroke="black" points="10,-134.5 10,-153.5 117,-153.5 117,-134.5 10,-134.5"/>
<text text-anchor="middle" x="63.5" y="-141.5" font-family="Helvetica,sans-Serif" font-size="10.00">AbstractCommand</text>
</a>
</g>
</g>
<!-- Node3&#45;&gt;Node2 -->
<g id="edge2" class="edge">
<title>Node3&#45;&gt;Node2</title>
<path fill="none" stroke="midnightblue" d="M59.78,-124.41C57.3,-111.99 54.14,-96.22 52.23,-86.63"/>
<polygon fill="midnightblue" stroke="midnightblue" points="56.35,-125.11 61.75,-134.23 63.22,-123.74 56.35,-125.11"/>
</g>
<!-- Node4 -->
<g id="node4" class="node">
<title>Node4</title>
<g id="a_node4"><a xlink:title=" ">
<polygon fill="none" stroke="#bfbfbf" points="543.5,-191.5 543.5,-210.5 599.5,-210.5 599.5,-191.5 543.5,-191.5"/>
<text text-anchor="middle" x="571.5" y="-198.5" font-family="Helvetica,sans-Serif" font-size="10.00">QObject</text>
</a>
</g>
</g>
<!-- Node4&#45;&gt;Node3 -->
<g id="edge3" class="edge">
<title>Node4&#45;&gt;Node3</title>
<path fill="none" stroke="midnightblue" d="M533.4,-196.23C457.59,-188.67 282.46,-170.94 135.5,-154 129.62,-153.32 123.47,-152.59 117.35,-151.85"/>
<polygon fill="midnightblue" stroke="midnightblue" points="533.13,-199.72 543.42,-197.23 533.82,-192.75 533.13,-199.72"/>
</g>
<!-- Node5 -->
<g id="node5" class="node">
<title>Node5</title>
<g id="a_node5"><a xlink:href="classPokitDevice.html" target="_top" xlink:title="The PokitDevice class simplifies Pokit device access.">
<polygon fill="none" stroke="black" points="145,-134.5 145,-153.5 220,-153.5 220,-134.5 145,-134.5"/>
<text text-anchor="middle" x="182.5" y="-141.5" font-family="Helvetica,sans-Serif" font-size="10.00">PokitDevice</text>
</a>
</g>
</g>
<!-- Node4&#45;&gt;Node5 -->
<g id="edge5" class="edge">
<title>Node4&#45;&gt;Node5</title>
<path fill="none" stroke="midnightblue" d="M533.29,-194.6C458.67,-184.05 294.36,-160.82 220.17,-150.33"/>
<polygon fill="midnightblue" stroke="midnightblue" points="532.82,-198.07 543.21,-196 533.8,-191.13 532.82,-198.07"/>
</g>
<!-- Node6 -->
<g id="node6" class="node">
<title>Node6</title>
<g id="a_node6"><a xlink:href="classPokitDevicePrivate.html" target="_top" xlink:title="The PokitDevicePrivate class provides private implementation for PokitDevice.">
<polygon fill="none" stroke="black" points="347.5,-0.5 347.5,-19.5 457.5,-19.5 457.5,-0.5 347.5,-0.5"/>
<text text-anchor="middle" x="402.5" y="-7.5" font-family="Helvetica,sans-Serif" font-size="10.00">PokitDevicePrivate</text>
</a>
</g>
</g>
<!-- Node4&#45;&gt;Node6 -->
<g id="edge7" class="edge">
<title>Node4&#45;&gt;Node6</title>
<path fill="none" stroke="midnightblue" d="M609.6,-197.91C713.08,-190.94 985.98,-163.15 900.5,-67 871.45,-34.33 581.02,-18.44 457.56,-13.12"/>
<polygon fill="midnightblue" stroke="midnightblue" points="609.32,-194.42 599.56,-198.56 609.77,-201.41 609.32,-194.42"/>
</g>
<!-- Node8 -->
<g id="node8" class="node">
<title>Node8</title>
<g id="a_node8"><a xlink:href="classAbstractPokitService.html" target="_top" xlink:title="The AbstractPokitService class provides a common base for Pokit services classes.">
<polygon fill="none" stroke="black" points="512.5,-134.5 512.5,-153.5 630.5,-153.5 630.5,-134.5 512.5,-134.5"/>
<text text-anchor="middle" x="571.5" y="-141.5" font-family="Helvetica,sans-Serif" font-size="10.00">AbstractPokitService</text>
</a>
</g>
</g>
<!-- Node4&#45;&gt;Node8 -->
<g id="edge10" class="edge">
<title>Node4&#45;&gt;Node8</title>
<path fill="none" stroke="midnightblue" d="M571.5,-181.12C571.5,-171.82 571.5,-161.06 571.5,-153.71"/>
<polygon fill="midnightblue" stroke="midnightblue" points="568,-181.41 571.5,-191.41 575,-181.41 568,-181.41"/>
</g>
<!-- Node9 -->
<g id="node9" class="node">
<title>Node9</title>
<g id="a_node9"><a xlink:href="classAbstractPokitServicePrivate.html" target="_top" xlink:title="The AbstractPokitServicePrivate class provides private implementation for AbstractPokitService.">
<polygon fill="none" stroke="black" points="739.5,-67.5 739.5,-86.5 891.5,-86.5 891.5,-67.5 739.5,-67.5"/>
<text text-anchor="middle" x="815.5" y="-74.5" font-family="Helvetica,sans-Serif" font-size="10.00">AbstractPokitServicePrivate</text>
</a>
</g>
</g>
<!-- Node4&#45;&gt;Node9 -->
<g id="edge12" class="edge">
<title>Node4&#45;&gt;Node9</title>
<path fill="none" stroke="midnightblue" d="M609.42,-190.54C653.57,-178.29 727.33,-153.92 781.5,-116 793.1,-107.88 803.48,-95.06 809.64,-86.6"/>
<polygon fill="midnightblue" stroke="midnightblue" points="608.41,-187.19 599.67,-193.18 610.24,-193.95 608.41,-187.19"/>
</g>
<!-- Node5&#45;&gt;Node2 -->
<g id="edge4" class="edge">
<title>Node5&#45;&gt;Node2</title>
<path fill="none" stroke="#9a32cd" stroke-dasharray="5,2" d="M134.51,-134.53C118.81,-130.43 101.75,-124.5 87.5,-116 74.69,-108.36 63.28,-95.17 56.62,-86.52"/>
<polygon fill="#9a32cd" stroke="#9a32cd" points="134.05,-138.01 144.59,-136.96 135.69,-131.21 134.05,-138.01"/>
<text text-anchor="middle" x="105.5" y="-108" font-family="Helvetica,sans-Serif" font-size="10.00"> device</text>
</g>
<!-- Node5&#45;&gt;Node6 -->
<g id="edge20" class="edge">
<title>Node5&#45;&gt;Node6</title>
<path fill="none" stroke="#9a32cd" stroke-dasharray="5,2" d="M184.01,-124.44C187.06,-100.29 196.19,-58.74 223.5,-38 242.52,-23.55 302.06,-16.74 347.29,-13.59"/>
<polygon fill="#9a32cd" stroke="#9a32cd" points="180.52,-124.14 182.98,-134.45 187.49,-124.86 180.52,-124.14"/>
<text text-anchor="middle" x="214.5" y="-74.5" font-family="Helvetica,sans-Serif" font-size="10.00"> q_ptr</text>
</g>
<!-- Node6&#45;&gt;Node5 -->
<g id="edge6" class="edge">
<title>Node6&#45;&gt;Node5</title>
<path fill="none" stroke="#9a32cd" stroke-dasharray="5,2" d="M337.37,-15.26C284.2,-19.45 213.73,-26.86 187.5,-38 168.59,-46.03 160.37,-48.47 151.5,-67 147.66,-75.02 149.28,-78.39 151.5,-87 156.22,-105.29 168.34,-123.98 175.95,-134.48"/>
<polygon fill="#9a32cd" stroke="#9a32cd" points="337.72,-18.74 347.42,-14.49 337.18,-11.76 337.72,-18.74"/>
<text text-anchor="middle" x="165.5" y="-74.5" font-family="Helvetica,sans-Serif" font-size="10.00"> d_ptr</text>
</g>
<!-- Node7 -->
<g id="node7" class="node">
<title>Node7</title>
<g id="a_node7"><a xlink:href="classCalibrationService.html" target="_top" xlink:title="The CalibrationService class accesses the Calibrartion service of Pokit devices.">
<polygon fill="none" stroke="black" points="349.5,-67.5 349.5,-86.5 455.5,-86.5 455.5,-67.5 349.5,-67.5"/>
<text text-anchor="middle" x="402.5" y="-74.5" font-family="Helvetica,sans-Serif" font-size="10.00">CalibrationService</text>
</a>
</g>
</g>
<!-- Node7&#45;&gt;Node6 -->
<g id="edge8" class="edge">
<title>Node7&#45;&gt;Node6</title>
<path fill="none" stroke="#9a32cd" stroke-dasharray="5,2" d="M402.5,-57.04C402.5,-44.67 402.5,-29.12 402.5,-19.63"/>
<polygon fill="#9a32cd" stroke="#9a32cd" points="399,-57.23 402.5,-67.23 406,-57.23 399,-57.23"/>
<text text-anchor="middle" x="430" y="-41" font-family="Helvetica,sans-Serif" font-size="10.00"> calibration</text>
</g>
<!-- Node8&#45;&gt;Node7 -->
<g id="edge9" class="edge">
<title>Node8&#45;&gt;Node7</title>
<path fill="none" stroke="midnightblue" d="M539.7,-130.77C506.16,-117.87 454.18,-97.88 424.77,-86.56"/>
<polygon fill="midnightblue" stroke="midnightblue" points="538.47,-134.05 549.06,-134.37 540.98,-127.51 538.47,-134.05"/>
</g>
<!-- Node8&#45;&gt;Node9 -->
<g id="edge13" class="edge">
<title>Node8&#45;&gt;Node9</title>
<path fill="none" stroke="#9a32cd" stroke-dasharray="5,2" d="M603.87,-130.95C626.3,-122.89 656.95,-112.44 684.5,-105 711.51,-97.7 742.12,-91.29 766.95,-86.55"/>
<polygon fill="#9a32cd" stroke="#9a32cd" points="602.4,-127.76 594.19,-134.46 604.79,-134.34 602.4,-127.76"/>
<text text-anchor="middle" x="698.5" y="-108" font-family="Helvetica,sans-Serif" font-size="10.00"> q_ptr</text>
</g>
<!-- Node10 -->
<g id="node10" class="node">
<title>Node10</title>
<g id="a_node10"><a xlink:href="classDeviceInfoService.html" target="_top" xlink:title="The DeviceInfoService class accesses the Device Info service of Pokit devices.">
<polygon fill="none" stroke="black" points="474,-67.5 474,-86.5 579,-86.5 579,-67.5 474,-67.5"/>
<text text-anchor="middle" x="526.5" y="-74.5" font-family="Helvetica,sans-Serif" font-size="10.00">DeviceInfoService</text>
</a>
</g>
</g>
<!-- Node8&#45;&gt;Node10 -->
<g id="edge15" class="edge">
<title>Node8&#45;&gt;Node10</title>
<path fill="none" stroke="midnightblue" d="M559.66,-125.9C550.92,-113.27 539.38,-96.6 532.47,-86.63"/>
<polygon fill="midnightblue" stroke="midnightblue" points="556.86,-128 565.43,-134.23 562.62,-124.02 556.86,-128"/>
</g>
<!-- Node11 -->
<g id="node11" class="node">
<title>Node11</title>
<g id="a_node11"><a xlink:href="classGenericAccessService.html" target="_top" xlink:title="The GenericAccessService class accesses the Generic Access service of Pokit devices.">
<polygon fill="none" stroke="black" points="597.5,-67.5 597.5,-86.5 721.5,-86.5 721.5,-67.5 597.5,-67.5"/>
<text text-anchor="middle" x="659.5" y="-74.5" font-family="Helvetica,sans-Serif" font-size="10.00">GenericAccessService</text>
</a>
</g>
</g>
<!-- Node8&#45;&gt;Node11 -->
<g id="edge17" class="edge">
<title>Node8&#45;&gt;Node11</title>
<path fill="none" stroke="midnightblue" d="M591.72,-128.07C609.09,-115.24 633.53,-97.19 647.82,-86.63"/>
<polygon fill="midnightblue" stroke="midnightblue" points="589.33,-125.48 583.37,-134.23 593.49,-131.11 589.33,-125.48"/>
</g>
<!-- Node12 -->
<g id="node12" class="node">
<title>Node12</title>
<g id="a_node12"><a xlink:href="classStatusService.html" target="_top" xlink:title="The StatusService class accesses the Pokit Status service of Pokit devices.">
<polygon fill="none" stroke="black" points="248,-67.5 248,-86.5 331,-86.5 331,-67.5 248,-67.5"/>
<text text-anchor="middle" x="289.5" y="-74.5" font-family="Helvetica,sans-Serif" font-size="10.00">StatusService</text>
</a>
</g>
</g>
<!-- Node8&#45;&gt;Node12 -->
<g id="edge19" class="edge">
<title>Node8&#45;&gt;Node12</title>
<path fill="none" stroke="midnightblue" d="M524.4,-132.14C468.84,-119.34 377.61,-98.31 326.74,-86.58"/>
<polygon fill="midnightblue" stroke="midnightblue" points="523.81,-135.6 534.34,-134.44 525.39,-128.78 523.81,-135.6"/>
</g>
<!-- Node9&#45;&gt;Node8 -->
<g id="edge11" class="edge">
<title>Node9&#45;&gt;Node8</title>
<path fill="none" stroke="#9a32cd" stroke-dasharray="5,2" d="M786.89,-90.58C767.37,-98.76 740.75,-109.15 716.5,-116 688.65,-123.87 657.14,-130.05 630.62,-134.5"/>
<polygon fill="#9a32cd" stroke="#9a32cd" points="788.3,-93.78 796.13,-86.65 785.56,-87.34 788.3,-93.78"/>
<text text-anchor="middle" x="763.5" y="-108" font-family="Helvetica,sans-Serif" font-size="10.00"> d_ptr</text>
</g>
<!-- Node10&#45;&gt;Node6 -->
<g id="edge14" class="edge">
<title>Node10&#45;&gt;Node6</title>
<path fill="none" stroke="#9a32cd" stroke-dasharray="5,2" d="M504.04,-62.13C491.66,-54.67 475.92,-45.49 461.5,-38 448.7,-31.35 433.95,-24.6 422.4,-19.51"/>
<polygon fill="#9a32cd" stroke="#9a32cd" points="502.41,-65.23 512.78,-67.44 506.05,-59.25 502.41,-65.23"/>
<text text-anchor="middle" x="509" y="-41" font-family="Helvetica,sans-Serif" font-size="10.00"> deviceInfo</text>
</g>
<!-- Node11&#45;&gt;Node6 -->
<g id="edge16" class="edge">
<title>Node11&#45;&gt;Node6</title>
<path fill="none" stroke="#9a32cd" stroke-dasharray="5,2" d="M626.01,-64.16C602.33,-56.07 569.73,-45.5 540.5,-38 512.01,-30.69 479.76,-24.28 453.61,-19.54"/>
<polygon fill="#9a32cd" stroke="#9a32cd" points="624.98,-67.51 635.58,-67.46 627.27,-60.89 624.98,-67.51"/>
<text text-anchor="middle" x="614" y="-41" font-family="Helvetica,sans-Serif" font-size="10.00"> genericAccess</text>
</g>
<!-- Node12&#45;&gt;Node1 -->
<g id="edge21" class="edge">
<title>Node12&#45;&gt;Node1</title>
<path fill="none" stroke="#9a32cd" stroke-dasharray="5,2" d="M265.79,-62.12C243.8,-49.24 211.76,-30.48 193.23,-19.63"/>
<polygon fill="#9a32cd" stroke="#9a32cd" points="264.13,-65.2 274.53,-67.23 267.67,-59.16 264.13,-65.2"/>
<text text-anchor="middle" x="261" y="-41" font-family="Helvetica,sans-Serif" font-size="10.00"> service</text>
</g>
<!-- Node12&#45;&gt;Node6 -->
<g id="edge18" class="edge">
<title>Node12&#45;&gt;Node6</title>
<path fill="none" stroke="#9a32cd" stroke-dasharray="5,2" d="M313.64,-62.12C336.03,-49.24 368.64,-30.48 387.5,-19.63"/>
<polygon fill="#9a32cd" stroke="#9a32cd" points="311.66,-59.21 304.74,-67.23 315.15,-65.28 311.66,-59.21"/>
<text text-anchor="middle" x="370.5" y="-41" font-family="Helvetica,sans-Serif" font-size="10.00"> status</text>
</g>
</g>
</svg>
