<?xml version="1.0" encoding="UTF-8" standalone="no"?>
<!DOCTYPE svg PUBLIC "-//W3C//DTD SVG 1.1//EN"
 "http://www.w3.org/Graphics/SVG/1.1/DTD/svg11.dtd">
<!-- Generated by graphviz version 2.43.0 (0)
 -->
<!-- Title: LoggerFetchCommand::metadataRead Pages: 1 -->
<svg width="390pt" height="39pt"
 viewBox="0.00 0.00 390.00 39.00" xmlns="http://www.w3.org/2000/svg" xmlns:xlink="http://www.w3.org/1999/xlink">
<g id="graph0" class="graph" transform="scale(1 1) rotate(0) translate(4 35)">
<title>LoggerFetchCommand::metadataRead</title>
<!-- Node1 -->
<g id="node1" class="node">
<title>Node1</title>
<g id="a_node1"><a xlink:title="Invoked when the data logger settings have been written, to begin reading samples.">
<polygon fill="#bfbfbf" stroke="black" points="0,-0.5 0,-30.5 126,-30.5 126,-0.5 0,-0.5"/>
<text text-anchor="start" x="8" y="-18.5" font-family="Helvetica,sans-Serif" font-size="10.00">LoggerFetchCommand</text>
<text text-anchor="middle" x="63" y="-7.5" font-family="Helvetica,sans-Serif" font-size="10.00">::metadataRead</text>
</a>
</g>
</g>
<!-- Node2 -->
<g id="node2" class="node">
<title>Node2</title>
<g id="a_node2"><a xlink:href="classDataLoggerService.html#a4c696b7500e666959bbec4b0ed677d5d" target="_top" xlink:title="Returns mode as a user&#45;friendly string.">
<polygon fill="none" stroke="black" points="162,-0.5 162,-30.5 277,-30.5 277,-0.5 162,-0.5"/>
<text text-anchor="start" x="170" y="-18.5" font-family="Helvetica,sans-Serif" font-size="10.00">DataLoggerService::</text>
<text text-anchor="middle" x="219.5" y="-7.5" font-family="Helvetica,sans-Serif" font-size="10.00">toString</text>
</a>
</g>
</g>
<!-- Node1&#45;&gt;Node2 -->
<g id="edge1" class="edge">
<title>Node1&#45;&gt;Node2</title>
<path fill="none" stroke="midnightblue" d="M126.4,-15.5C134.73,-15.5 143.31,-15.5 151.71,-15.5"/>
<polygon fill="midnightblue" stroke="midnightblue" points="151.86,-19 161.86,-15.5 151.86,-12 151.86,-19"/>
</g>
<!-- Node3 -->
<g id="node3" class="node">
<title>Node3</title>
<g id="a_node3"><a target="_parent" xlink:href="https://doc.qt.io/qt-5/qobject.html#tr" xlink:title=" ">
<polygon fill="none" stroke="black" points="313,-6 313,-25 382,-25 382,-6 313,-6"/>
<text text-anchor="middle" x="347.5" y="-13" font-family="Helvetica,sans-Serif" font-size="10.00">QObject::tr</text>
</a>
</g>
</g>
<!-- Node2&#45;&gt;Node3 -->
<g id="edge2" class="edge">
<title>Node2&#45;&gt;Node3</title>
<path fill="none" stroke="midnightblue" d="M277.23,-15.5C285.78,-15.5 294.47,-15.5 302.69,-15.5"/>
<polygon fill="midnightblue" stroke="midnightblue" points="302.79,-19 312.79,-15.5 302.79,-12 302.79,-19"/>
</g>
</g>
</svg>
