<?xml version="1.0" encoding="UTF-8" standalone="no"?>
<!DOCTYPE svg PUBLIC "-//W3C//DTD SVG 1.1//EN"
 "http://www.w3.org/Graphics/SVG/1.1/DTD/svg11.dtd">
<!-- Generated by graphviz version 2.43.0 (0)
 -->
<!-- Title: AbstractPokitServicePrivate::checkSize Pages: 1 -->
<svg width="1151pt" height="685pt"
 viewBox="0.00 0.00 1151.00 684.76" xmlns="http://www.w3.org/2000/svg" xmlns:xlink="http://www.w3.org/1999/xlink">
<g id="graph0" class="graph" transform="scale(1 1) rotate(0) translate(4 680.76)">
<title>AbstractPokitServicePrivate::checkSize</title>
<!-- Node1 -->
<g id="Node000001" class="node">
<title>Node1</title>
<g id="a_Node000001"><a xlink:title="Returns false if data is smaller than minSize, otherwise returns failOnMax if data is bigger than max...">
<polygon fill="#999999" stroke="#666666" points="1143,-323.76 991,-323.76 991,-293.76 1143,-293.76 1143,-323.76"/>
<text text-anchor="start" x="999" y="-311.76" font-family="Helvetica,sans-Serif" font-size="10.00">AbstractPokitServicePrivate</text>
<text text-anchor="middle" x="1067" y="-300.76" font-family="Helvetica,sans-Serif" font-size="10.00">::checkSize</text>
</a>
</g>
</g>
<!-- Node2 -->
<g id="Node000002" class="node">
<title>Node2</title>
<g id="a_Node000002"><a xlink:href="classGenericAccessServicePrivate.html#a9f3b84e40f816ad12cf4c8804c0c7505" target="_top" xlink:title="Parses the Appearance value.">
<polygon fill="white" stroke="#666666" points="955,-628.76 797,-628.76 797,-598.76 955,-598.76 955,-628.76"/>
<text text-anchor="start" x="805" y="-616.76" font-family="Helvetica,sans-Serif" font-size="10.00">GenericAccessServicePrivate</text>
<text text-anchor="middle" x="876" y="-605.76" font-family="Helvetica,sans-Serif" font-size="10.00">::parseAppearance</text>
</a>
</g>
</g>
<!-- Node1&#45;&gt;Node2 -->
<g id="edge1_Node000001_Node000002" class="edge">
<title>Node1&#45;&gt;Node2</title>
<g id="a_edge1_Node000001_Node000002"><a xlink:title=" ">
<path fill="none" stroke="#63b8ff" d="M1055.73,-331.46C1037.58,-370.74 997.7,-453.34 955,-517.76 934.95,-548.01 907.38,-580.16 890.96,-598.52"/>
<polygon fill="#63b8ff" stroke="#63b8ff" points="1059.27,-323.76 1059.2,-332.53 1057.6,-327.4 1055.93,-331.03 1055.93,-331.03 1055.93,-331.03 1057.6,-327.4 1052.66,-329.53 1059.27,-323.76 1059.27,-323.76"/>
</a>
</g>
</g>
<!-- Node5 -->
<g id="Node000005" class="node">
<title>Node5</title>
<g id="a_Node000005"><a xlink:href="classStatusServicePrivate.html#a7bdbc14dbfe0a29bb0333c01890a6ced" target="_top" xlink:title="Parses the Device Characteristics value into a DeviceCharacteristics struct.">
<polygon fill="white" stroke="#666666" points="954,-163.76 798,-163.76 798,-133.76 954,-133.76 954,-163.76"/>
<text text-anchor="start" x="806" y="-151.76" font-family="Helvetica,sans-Serif" font-size="10.00">StatusServicePrivate</text>
<text text-anchor="middle" x="876" y="-140.76" font-family="Helvetica,sans-Serif" font-size="10.00">::parseDeviceCharacteristics</text>
</a>
</g>
</g>
<!-- Node1&#45;&gt;Node5 -->
<g id="edge4_Node000001_Node000005" class="edge">
<title>Node1&#45;&gt;Node5</title>
<g id="a_edge4_Node000001_Node000005"><a xlink:title=" ">
<path fill="none" stroke="#63b8ff" d="M1041.92,-288.37C1003.45,-255.81 928.99,-192.78 894.87,-163.89"/>
<polygon fill="#63b8ff" stroke="#63b8ff" points="1048.22,-293.71 1039.79,-291.29 1045.17,-291.12 1042.11,-288.54 1042.11,-288.54 1042.11,-288.54 1045.17,-291.12 1044.44,-285.79 1048.22,-293.71 1048.22,-293.71"/>
</a>
</g>
</g>
<!-- Node9 -->
<g id="Node000009" class="node">
<title>Node9</title>
<g id="a_Node000009"><a xlink:href="classDataLoggerServicePrivate.html#aed59b28db53cea0757289a0960bed3fd" target="_top" xlink:title="Parses the Metadata value into a DataLoggerService::Metatdata struct.">
<polygon fill="white" stroke="#666666" points="947.5,-508.76 804.5,-508.76 804.5,-478.76 947.5,-478.76 947.5,-508.76"/>
<text text-anchor="start" x="812.5" y="-496.76" font-family="Helvetica,sans-Serif" font-size="10.00">DataLoggerServicePrivate</text>
<text text-anchor="middle" x="876" y="-485.76" font-family="Helvetica,sans-Serif" font-size="10.00">::parseMetadata</text>
</a>
</g>
</g>
<!-- Node1&#45;&gt;Node9 -->
<g id="edge8_Node000001_Node000009" class="edge">
<title>Node1&#45;&gt;Node9</title>
<g id="a_edge8_Node000001_Node000009"><a xlink:title=" ">
<path fill="none" stroke="#63b8ff" d="M1044.74,-329.57C1006.29,-367.21 926.09,-445.71 892.42,-478.67"/>
<polygon fill="#63b8ff" stroke="#63b8ff" points="1050.53,-323.9 1047.33,-332.07 1047.67,-326.7 1044.82,-329.5 1044.82,-329.5 1044.82,-329.5 1047.67,-326.7 1042.3,-326.92 1050.53,-323.9 1050.53,-323.9"/>
</a>
</g>
</g>
<!-- Node13 -->
<g id="Node000013" class="node">
<title>Node13</title>
<g id="a_Node000013"><a xlink:href="classDsoServicePrivate.html#af869cf5b228bac719545511ba4247b88" target="_top" xlink:title="Parses the Metadata value into a DsoService::Metatdata struct.">
<polygon fill="white" stroke="#666666" points="932,-366.76 820,-366.76 820,-336.76 932,-336.76 932,-366.76"/>
<text text-anchor="start" x="828" y="-354.76" font-family="Helvetica,sans-Serif" font-size="10.00">DsoServicePrivate::</text>
<text text-anchor="middle" x="876" y="-343.76" font-family="Helvetica,sans-Serif" font-size="10.00">parseMetadata</text>
</a>
</g>
</g>
<!-- Node1&#45;&gt;Node13 -->
<g id="edge12_Node000001_Node000013" class="edge">
<title>Node1&#45;&gt;Node13</title>
<g id="a_edge12_Node000001_Node000013"><a xlink:title=" ">
<path fill="none" stroke="#63b8ff" d="M992.03,-325.59C972.07,-330.13 950.84,-334.96 932.11,-339.22"/>
<polygon fill="#63b8ff" stroke="#63b8ff" points="999.9,-323.8 992.89,-329.08 996,-324.69 992.1,-325.57 992.1,-325.57 992.1,-325.57 996,-324.69 991.3,-322.06 999.9,-323.8 999.9,-323.8"/>
</a>
</g>
</g>
<!-- Node17 -->
<g id="Node000017" class="node">
<title>Node17</title>
<g id="a_Node000017"><a xlink:href="classMultimeterServicePrivate.html#ac9594dce487207bafd123e1093f399db" target="_top" xlink:title="Parses the Reading value into a MultimeterService::Reading struct.">
<polygon fill="white" stroke="#666666" points="946.5,-278.76 805.5,-278.76 805.5,-248.76 946.5,-248.76 946.5,-278.76"/>
<text text-anchor="start" x="813.5" y="-266.76" font-family="Helvetica,sans-Serif" font-size="10.00">MultimeterServicePrivate</text>
<text text-anchor="middle" x="876" y="-255.76" font-family="Helvetica,sans-Serif" font-size="10.00">::parseReading</text>
</a>
</g>
</g>
<!-- Node1&#45;&gt;Node17 -->
<g id="edge16_Node000001_Node000017" class="edge">
<title>Node1&#45;&gt;Node17</title>
<g id="a_edge16_Node000001_Node000017"><a xlink:title=" ">
<path fill="none" stroke="#63b8ff" d="M994.66,-291.77C976.74,-287.51 957.63,-282.96 940.14,-278.79"/>
<polygon fill="#63b8ff" stroke="#63b8ff" points="1002.8,-293.71 994.19,-295.36 998.91,-292.79 995.02,-291.86 995.02,-291.86 995.02,-291.86 998.91,-292.79 995.85,-288.36 1002.8,-293.71 1002.8,-293.71"/>
</a>
</g>
</g>
<!-- Node21 -->
<g id="Node000021" class="node">
<title>Node21</title>
<g id="a_Node000021"><a xlink:href="classStatusServicePrivate.html#a3a6ff8ca3e9d7c884b269e52dd43aeb0" target="_top" xlink:title="Parses the Status value into Statu struct.">
<polygon fill="white" stroke="#666666" points="935,-96.76 817,-96.76 817,-66.76 935,-66.76 935,-96.76"/>
<text text-anchor="start" x="825" y="-84.76" font-family="Helvetica,sans-Serif" font-size="10.00">StatusServicePrivate</text>
<text text-anchor="middle" x="876" y="-73.76" font-family="Helvetica,sans-Serif" font-size="10.00">::parseStatus</text>
</a>
</g>
</g>
<!-- Node1&#45;&gt;Node21 -->
<g id="edge20_Node000001_Node000021" class="edge">
<title>Node1&#45;&gt;Node21</title>
<g id="a_edge20_Node000001_Node000021"><a xlink:title=" ">
<path fill="none" stroke="#63b8ff" d="M1056.84,-285.76C1040.92,-248.15 1005,-172.84 955,-124.76 943.07,-113.29 927.49,-103.9 913.39,-96.85"/>
<polygon fill="#63b8ff" stroke="#63b8ff" points="1060.11,-293.62 1053.72,-287.62 1058.57,-289.93 1057.04,-286.24 1057.04,-286.24 1057.04,-286.24 1058.57,-289.93 1060.36,-284.85 1060.11,-293.62 1060.11,-293.62"/>
</a>
</g>
</g>
<!-- Node3 -->
<g id="Node000003" class="node">
<title>Node3</title>
<g id="a_Node000003"><a xlink:href="classGenericAccessService.html#a0e8613c512b7f84bb775bf74af011be1" target="_top" xlink:title="Returns the most recent value of the Generic Access services&#39;s Appearance characteristic.">
<polygon fill="white" stroke="#666666" points="744,-628.76 620,-628.76 620,-598.76 744,-598.76 744,-628.76"/>
<text text-anchor="start" x="628" y="-616.76" font-family="Helvetica,sans-Serif" font-size="10.00">GenericAccessService</text>
<text text-anchor="middle" x="682" y="-605.76" font-family="Helvetica,sans-Serif" font-size="10.00">::appearance</text>
</a>
</g>
</g>
<!-- Node2&#45;&gt;Node3 -->
<g id="edge2_Node000002_Node000003" class="edge">
<title>Node2&#45;&gt;Node3</title>
<g id="a_edge2_Node000002_Node000003"><a xlink:title=" ">
<path fill="none" stroke="#63b8ff" d="M788.63,-613.76C773.66,-613.76 758.37,-613.76 744.24,-613.76"/>
<polygon fill="#63b8ff" stroke="#63b8ff" points="796.91,-613.76 788.91,-617.36 792.91,-613.76 788.91,-613.76 788.91,-613.76 788.91,-613.76 792.91,-613.76 788.91,-610.16 796.91,-613.76 796.91,-613.76"/>
</a>
</g>
</g>
<!-- Node4 -->
<g id="Node000004" class="node">
<title>Node4</title>
<g id="a_Node000004"><a xlink:href="classGenericAccessServicePrivate.html#a9b485f8e1eda4151b08b5543ab61fcc8" target="_top" xlink:title="Implements AbstractPokitServicePrivate::characteristicRead to parse value, then emit a specialised si...">
<polygon fill="white" stroke="#666666" points="761,-676.76 603,-676.76 603,-646.76 761,-646.76 761,-676.76"/>
<text text-anchor="start" x="611" y="-664.76" font-family="Helvetica,sans-Serif" font-size="10.00">GenericAccessServicePrivate</text>
<text text-anchor="middle" x="682" y="-653.76" font-family="Helvetica,sans-Serif" font-size="10.00">::characteristicRead</text>
</a>
</g>
</g>
<!-- Node2&#45;&gt;Node4 -->
<g id="edge3_Node000002_Node000004" class="edge">
<title>Node2&#45;&gt;Node4</title>
<g id="a_edge3_Node000002_Node000004"><a xlink:title=" ">
<path fill="none" stroke="#63b8ff" d="M806.89,-630.79C786.04,-636 763.28,-641.69 743.01,-646.76"/>
<polygon fill="#63b8ff" stroke="#63b8ff" points="814.78,-628.82 807.89,-634.25 810.9,-629.79 807.02,-630.76 807.02,-630.76 807.02,-630.76 810.9,-629.79 806.14,-627.26 814.78,-628.82 814.78,-628.82"/>
</a>
</g>
</g>
<!-- Node6 -->
<g id="Node000006" class="node">
<title>Node6</title>
<g id="a_Node000006"><a xlink:href="classStatusServicePrivate.html#a08d8faee04fb47ac19d3962609606d52" target="_top" xlink:title="Implements AbstractPokitServicePrivate::characteristicRead to parse value, then emit a specialised si...">
<polygon fill="white" stroke="#666666" points="741,-120.76 623,-120.76 623,-90.76 741,-90.76 741,-120.76"/>
<text text-anchor="start" x="631" y="-108.76" font-family="Helvetica,sans-Serif" font-size="10.00">StatusServicePrivate</text>
<text text-anchor="middle" x="682" y="-97.76" font-family="Helvetica,sans-Serif" font-size="10.00">::characteristicRead</text>
</a>
</g>
</g>
<!-- Node5&#45;&gt;Node6 -->
<g id="edge5_Node000005_Node000006" class="edge">
<title>Node5&#45;&gt;Node6</title>
<g id="a_edge5_Node000005_Node000006"><a xlink:title=" ">
<path fill="none" stroke="#63b8ff" d="M799.86,-131.93C780.36,-127.57 759.65,-122.93 741.17,-118.79"/>
<polygon fill="#63b8ff" stroke="#63b8ff" points="807.85,-133.72 799.25,-135.49 803.94,-132.85 800.04,-131.97 800.04,-131.97 800.04,-131.97 803.94,-132.85 800.83,-128.46 807.85,-133.72 807.85,-133.72"/>
</a>
</g>
</g>
<!-- Node7 -->
<g id="Node000007" class="node">
<title>Node7</title>
<g id="a_Node000007"><a xlink:href="classStatusService.html#a008d41a33eedd90e68ccf7a94ed5b65f" target="_top" xlink:title="Returns the most recent value of the Status service&#39;s Device Characteristics characteristic.">
<polygon fill="white" stroke="#666666" points="403,-136.26 209,-136.26 209,-117.26 403,-117.26 403,-136.26"/>
<text text-anchor="middle" x="306" y="-124.26" font-family="Helvetica,sans-Serif" font-size="10.00">StatusService::deviceCharacteristics</text>
</a>
</g>
</g>
<!-- Node5&#45;&gt;Node7 -->
<g id="edge6_Node000005_Node000007" class="edge">
<title>Node5&#45;&gt;Node7</title>
<g id="a_edge6_Node000005_Node000007"><a xlink:title=" ">
<path fill="none" stroke="#63b8ff" d="M789.54,-145.45C685.78,-141.43 511.29,-134.67 403,-130.48"/>
<polygon fill="#63b8ff" stroke="#63b8ff" points="797.81,-145.77 789.67,-149.06 793.81,-145.62 789.81,-145.46 789.81,-145.46 789.81,-145.46 793.81,-145.62 789.95,-141.86 797.81,-145.77 797.81,-145.77"/>
</a>
</g>
</g>
<!-- Node8 -->
<g id="Node000008" class="node">
<title>Node8</title>
<g id="a_Node000008"><a xlink:href="classStatusCommand.html#af275e3a02032915dd27e0c0e041ff6c1" target="_top" xlink:title="Handles service detail discovery events.">
<polygon fill="white" stroke="#666666" points="173,-98.76 0,-98.76 0,-68.76 173,-68.76 173,-98.76"/>
<text text-anchor="start" x="8" y="-86.76" font-family="Helvetica,sans-Serif" font-size="10.00">StatusCommand::serviceDetails</text>
<text text-anchor="middle" x="86.5" y="-75.76" font-family="Helvetica,sans-Serif" font-size="10.00">Discovered</text>
</a>
</g>
</g>
<!-- Node7&#45;&gt;Node8 -->
<g id="edge7_Node000007_Node000008" class="edge">
<title>Node7&#45;&gt;Node8</title>
<g id="a_edge7_Node000007_Node000008"><a xlink:title=" ">
<path fill="none" stroke="#63b8ff" d="M248.83,-115.66C222.81,-110.51 191.49,-104.32 163.4,-98.77"/>
<polygon fill="#63b8ff" stroke="#63b8ff" points="256.73,-117.22 248.18,-119.2 252.81,-116.44 248.88,-115.67 248.88,-115.67 248.88,-115.67 252.81,-116.44 249.58,-112.13 256.73,-117.22 256.73,-117.22"/>
</a>
</g>
</g>
<!-- Node10 -->
<g id="Node000010" class="node">
<title>Node10</title>
<g id="a_Node000010"><a xlink:href="classDataLoggerServicePrivate.html#a687b443e1e36e2c07a9776a6ca02e688" target="_top" xlink:title="Implements AbstractPokitServicePrivate::characteristicChanged to parse newValue, then emit a speciali...">
<polygon fill="white" stroke="#666666" points="753.5,-580.76 610.5,-580.76 610.5,-550.76 753.5,-550.76 753.5,-580.76"/>
<text text-anchor="start" x="618.5" y="-568.76" font-family="Helvetica,sans-Serif" font-size="10.00">DataLoggerServicePrivate</text>
<text text-anchor="middle" x="682" y="-557.76" font-family="Helvetica,sans-Serif" font-size="10.00">::characteristicChanged</text>
</a>
</g>
</g>
<!-- Node9&#45;&gt;Node10 -->
<g id="edge9_Node000009_Node000010" class="edge">
<title>Node9&#45;&gt;Node10</title>
<g id="a_edge9_Node000009_Node000010"><a xlink:title=" ">
<path fill="none" stroke="#63b8ff" d="M834.05,-512.17C812.52,-521.56 785.55,-532.84 761,-541.76 752.48,-544.86 743.34,-547.9 734.43,-550.74"/>
<polygon fill="#63b8ff" stroke="#63b8ff" points="841.43,-508.94 835.55,-515.45 837.77,-510.54 834.1,-512.15 834.1,-512.15 834.1,-512.15 837.77,-510.54 832.66,-508.85 841.43,-508.94 841.43,-508.94"/>
</a>
</g>
</g>
<!-- Node11 -->
<g id="Node000011" class="node">
<title>Node11</title>
<g id="a_Node000011"><a xlink:href="classDataLoggerServicePrivate.html#a91ded6976e79e6054954eebe591214be" target="_top" xlink:title="Implements AbstractPokitServicePrivate::characteristicRead to parse value, then emit a specialised si...">
<polygon fill="white" stroke="#666666" points="753.5,-532.76 610.5,-532.76 610.5,-502.76 753.5,-502.76 753.5,-532.76"/>
<text text-anchor="start" x="618.5" y="-520.76" font-family="Helvetica,sans-Serif" font-size="10.00">DataLoggerServicePrivate</text>
<text text-anchor="middle" x="682" y="-509.76" font-family="Helvetica,sans-Serif" font-size="10.00">::characteristicRead</text>
</a>
</g>
</g>
<!-- Node9&#45;&gt;Node11 -->
<g id="edge10_Node000009_Node000011" class="edge">
<title>Node9&#45;&gt;Node11</title>
<g id="a_edge10_Node000009_Node000011"><a xlink:title=" ">
<path fill="none" stroke="#63b8ff" d="M796.09,-503.62C781.99,-505.39 767.38,-507.21 753.53,-508.94"/>
<polygon fill="#63b8ff" stroke="#63b8ff" points="804.32,-502.59 796.83,-507.16 800.36,-503.09 796.39,-503.59 796.39,-503.59 796.39,-503.59 800.36,-503.09 795.94,-500.01 804.32,-502.59 804.32,-502.59"/>
</a>
</g>
</g>
<!-- Node12 -->
<g id="Node000012" class="node">
<title>Node12</title>
<g id="a_Node000012"><a xlink:href="classDataLoggerService.html#aa94364928c317c1769e66eaf8635db92" target="_top" xlink:title="Returns the most recent value of the DataLogger service&#39;s Metadata characteristic.">
<polygon fill="white" stroke="#666666" points="739.5,-484.76 624.5,-484.76 624.5,-454.76 739.5,-454.76 739.5,-484.76"/>
<text text-anchor="start" x="632.5" y="-472.76" font-family="Helvetica,sans-Serif" font-size="10.00">DataLoggerService::</text>
<text text-anchor="middle" x="682" y="-461.76" font-family="Helvetica,sans-Serif" font-size="10.00">metadata</text>
</a>
</g>
</g>
<!-- Node9&#45;&gt;Node12 -->
<g id="edge11_Node000009_Node000012" class="edge">
<title>Node9&#45;&gt;Node12</title>
<g id="a_edge11_Node000009_Node000012"><a xlink:title=" ">
<path fill="none" stroke="#63b8ff" d="M796.27,-483.92C777.32,-481.55 757.45,-479.07 739.73,-476.85"/>
<polygon fill="#63b8ff" stroke="#63b8ff" points="804.32,-484.93 795.94,-487.51 800.36,-484.43 796.39,-483.93 796.39,-483.93 796.39,-483.93 800.36,-484.43 796.83,-480.36 804.32,-484.93 804.32,-484.93"/>
</a>
</g>
</g>
<!-- Node14 -->
<g id="Node000014" class="node">
<title>Node14</title>
<g id="a_Node000014"><a xlink:href="classDsoServicePrivate.html#a7de9e2488240903fee3d88b89bf1d5ec" target="_top" xlink:title="Implements AbstractPokitServicePrivate::characteristicChanged to parse newValue, then emit a speciali...">
<polygon fill="white" stroke="#666666" points="744.5,-436.76 619.5,-436.76 619.5,-406.76 744.5,-406.76 744.5,-436.76"/>
<text text-anchor="start" x="627.5" y="-424.76" font-family="Helvetica,sans-Serif" font-size="10.00">DsoServicePrivate::</text>
<text text-anchor="middle" x="682" y="-413.76" font-family="Helvetica,sans-Serif" font-size="10.00">characteristicChanged</text>
</a>
</g>
</g>
<!-- Node13&#45;&gt;Node14 -->
<g id="edge13_Node000013_Node000014" class="edge">
<title>Node13&#45;&gt;Node14</title>
<g id="a_edge13_Node000013_Node000014"><a xlink:title=" ">
<path fill="none" stroke="#63b8ff" d="M832.27,-370.01C811.01,-378.83 784.82,-389.31 761,-397.76 752.32,-400.84 743.02,-403.9 733.97,-406.76"/>
<polygon fill="#63b8ff" stroke="#63b8ff" points="839.86,-366.84 833.87,-373.24 836.17,-368.38 832.48,-369.92 832.48,-369.92 832.48,-369.92 836.17,-368.38 831.09,-366.59 839.86,-366.84 839.86,-366.84"/>
</a>
</g>
</g>
<!-- Node15 -->
<g id="Node000015" class="node">
<title>Node15</title>
<g id="a_Node000015"><a xlink:href="classDsoServicePrivate.html#a0eb9af767bd0ec01458d681a5831c07a" target="_top" xlink:title="Implements AbstractPokitServicePrivate::characteristicRead to parse value, then emit a specialised si...">
<polygon fill="white" stroke="#666666" points="738,-388.76 626,-388.76 626,-358.76 738,-358.76 738,-388.76"/>
<text text-anchor="start" x="634" y="-376.76" font-family="Helvetica,sans-Serif" font-size="10.00">DsoServicePrivate::</text>
<text text-anchor="middle" x="682" y="-365.76" font-family="Helvetica,sans-Serif" font-size="10.00">characteristicRead</text>
</a>
</g>
</g>
<!-- Node13&#45;&gt;Node15 -->
<g id="edge14_Node000013_Node000015" class="edge">
<title>Node13&#45;&gt;Node15</title>
<g id="a_edge14_Node000013_Node000015"><a xlink:title=" ">
<path fill="none" stroke="#63b8ff" d="M812.01,-358.98C788.12,-361.72 761.13,-364.81 738.03,-367.45"/>
<polygon fill="#63b8ff" stroke="#63b8ff" points="819.98,-358.06 812.44,-362.55 816.01,-358.52 812.03,-358.98 812.03,-358.98 812.03,-358.98 816.01,-358.52 811.62,-355.4 819.98,-358.06 819.98,-358.06"/>
</a>
</g>
</g>
<!-- Node16 -->
<g id="Node000016" class="node">
<title>Node16</title>
<g id="a_Node000016"><a xlink:href="classDsoService.html#afda4aa4a55ff0af205f10ccf8c77cbf5" target="_top" xlink:title="Returns the most recent value of the DSO service&#39;s Metadata characteristic.">
<polygon fill="white" stroke="#666666" points="744.5,-340.26 619.5,-340.26 619.5,-321.26 744.5,-321.26 744.5,-340.26"/>
<text text-anchor="middle" x="682" y="-328.26" font-family="Helvetica,sans-Serif" font-size="10.00">DsoService::metadata</text>
</a>
</g>
</g>
<!-- Node13&#45;&gt;Node16 -->
<g id="edge15_Node000013_Node000016" class="edge">
<title>Node13&#45;&gt;Node16</title>
<g id="a_edge15_Node000013_Node000016"><a xlink:title=" ">
<path fill="none" stroke="#63b8ff" d="M811.85,-344.85C790.3,-342.5 766.23,-339.86 744.78,-337.52"/>
<polygon fill="#63b8ff" stroke="#63b8ff" points="819.98,-345.74 811.64,-348.45 816,-345.31 812.03,-344.87 812.03,-344.87 812.03,-344.87 816,-345.31 812.42,-341.29 819.98,-345.74 819.98,-345.74"/>
</a>
</g>
</g>
<!-- Node18 -->
<g id="Node000018" class="node">
<title>Node18</title>
<g id="a_Node000018"><a xlink:href="classMultimeterServicePrivate.html#af80ef46d902cc372a57bb1ba45313bcb" target="_top" xlink:title="Implements AbstractPokitServicePrivate::characteristicChanged to parse newValue, then emit a speciali...">
<polygon fill="white" stroke="#666666" points="752.5,-302.76 611.5,-302.76 611.5,-272.76 752.5,-272.76 752.5,-302.76"/>
<text text-anchor="start" x="619.5" y="-290.76" font-family="Helvetica,sans-Serif" font-size="10.00">MultimeterServicePrivate</text>
<text text-anchor="middle" x="682" y="-279.76" font-family="Helvetica,sans-Serif" font-size="10.00">::characteristicChanged</text>
</a>
</g>
</g>
<!-- Node17&#45;&gt;Node18 -->
<g id="edge17_Node000017_Node000018" class="edge">
<title>Node17&#45;&gt;Node18</title>
<g id="a_edge17_Node000017_Node000018"><a xlink:title=" ">
<path fill="none" stroke="#63b8ff" d="M797.28,-273.47C782.52,-275.32 767.16,-277.24 752.67,-279.05"/>
<polygon fill="#63b8ff" stroke="#63b8ff" points="805.41,-272.46 797.92,-277.02 801.44,-272.95 797.47,-273.45 797.47,-273.45 797.47,-273.45 801.44,-272.95 797.03,-269.88 805.41,-272.46 805.41,-272.46"/>
</a>
</g>
</g>
<!-- Node19 -->
<g id="Node000019" class="node">
<title>Node19</title>
<g id="a_Node000019"><a xlink:href="classMultimeterServicePrivate.html#a2cb96a3c5ae351ca9d07ee7bc828029a" target="_top" xlink:title="Implements AbstractPokitServicePrivate::characteristicRead to parse value, then emit a specialised si...">
<polygon fill="white" stroke="#666666" points="752.5,-254.76 611.5,-254.76 611.5,-224.76 752.5,-224.76 752.5,-254.76"/>
<text text-anchor="start" x="619.5" y="-242.76" font-family="Helvetica,sans-Serif" font-size="10.00">MultimeterServicePrivate</text>
<text text-anchor="middle" x="682" y="-231.76" font-family="Helvetica,sans-Serif" font-size="10.00">::characteristicRead</text>
</a>
</g>
</g>
<!-- Node17&#45;&gt;Node19 -->
<g id="edge18_Node000017_Node000019" class="edge">
<title>Node17&#45;&gt;Node19</title>
<g id="a_edge18_Node000017_Node000019"><a xlink:title=" ">
<path fill="none" stroke="#63b8ff" d="M797.28,-254.05C782.52,-252.2 767.16,-250.28 752.67,-248.47"/>
<polygon fill="#63b8ff" stroke="#63b8ff" points="805.41,-255.06 797.03,-257.64 801.44,-254.57 797.47,-254.07 797.47,-254.07 797.47,-254.07 801.44,-254.57 797.92,-250.5 805.41,-255.06 805.41,-255.06"/>
</a>
</g>
</g>
<!-- Node20 -->
<g id="Node000020" class="node">
<title>Node20</title>
<g id="a_Node000020"><a xlink:href="classMultimeterService.html#ad7623c59f41fc099bebd3447637a904e" target="_top" xlink:title="Returns the most recent value of the Multimeter service&#39;s Reading characteristic.">
<polygon fill="white" stroke="#666666" points="738.5,-206.76 625.5,-206.76 625.5,-176.76 738.5,-176.76 738.5,-206.76"/>
<text text-anchor="start" x="633.5" y="-194.76" font-family="Helvetica,sans-Serif" font-size="10.00">MultimeterService::</text>
<text text-anchor="middle" x="682" y="-183.76" font-family="Helvetica,sans-Serif" font-size="10.00">reading</text>
</a>
</g>
</g>
<!-- Node17&#45;&gt;Node20 -->
<g id="edge19_Node000017_Node000020" class="edge">
<title>Node17&#45;&gt;Node20</title>
<g id="a_edge19_Node000017_Node000020"><a xlink:title=" ">
<path fill="none" stroke="#63b8ff" d="M834.05,-245.35C812.52,-235.96 785.55,-224.68 761,-215.76 752.48,-212.66 743.34,-209.62 734.43,-206.78"/>
<polygon fill="#63b8ff" stroke="#63b8ff" points="841.43,-248.58 832.66,-248.67 837.77,-246.98 834.1,-245.37 834.1,-245.37 834.1,-245.37 837.77,-246.98 835.55,-242.07 841.43,-248.58 841.43,-248.58"/>
</a>
</g>
</g>
<!-- Node21&#45;&gt;Node6 -->
<g id="edge21_Node000021_Node000006" class="edge">
<title>Node21&#45;&gt;Node6</title>
<g id="a_edge21_Node000021_Node000006"><a xlink:title=" ">
<path fill="none" stroke="#63b8ff" d="M808.89,-90.02C786.91,-92.77 762.6,-95.81 741.26,-98.48"/>
<polygon fill="#63b8ff" stroke="#63b8ff" points="816.87,-89.03 809.38,-93.59 812.9,-89.52 808.93,-90.02 808.93,-90.02 808.93,-90.02 812.9,-89.52 808.49,-86.45 816.87,-89.03 816.87,-89.03"/>
</a>
</g>
</g>
<!-- Node22 -->
<g id="Node000022" class="node">
<title>Node22</title>
<g id="a_Node000022"><a xlink:href="classStatusService.html#ae7be4aae021ae50faef48ed2812eb6a7" target="_top" xlink:title="Returns the most recent value of the Status service&#39;s Status characteristic.">
<polygon fill="white" stroke="#666666" points="741.5,-34.26 622.5,-34.26 622.5,-15.26 741.5,-15.26 741.5,-34.26"/>
<text text-anchor="middle" x="682" y="-22.26" font-family="Helvetica,sans-Serif" font-size="10.00">StatusService::status</text>
</a>
</g>
</g>
<!-- Node21&#45;&gt;Node22 -->
<g id="edge22_Node000021_Node000022" class="edge">
<title>Node21&#45;&gt;Node22</title>
<g id="a_edge22_Node000021_Node000022"><a xlink:title=" ">
<path fill="none" stroke="#63b8ff" d="M816.45,-64.38C783.2,-54.51 742.83,-42.52 715.26,-34.34"/>
<polygon fill="#63b8ff" stroke="#63b8ff" points="824.3,-66.71 815.61,-67.88 820.47,-65.57 816.63,-64.43 816.63,-64.43 816.63,-64.43 820.47,-65.57 817.66,-60.98 824.3,-66.71 824.3,-66.71"/>
</a>
</g>
</g>
<!-- Node23 -->
<g id="Node000023" class="node">
<title>Node23</title>
<g id="a_Node000023"><a xlink:href="classStatusCommand.html#ae2349e3d64b1b4db9b80465c0b7dadb7" target="_top" xlink:title="Outputs the Pokit device&#39;s details, including chrs, in the selected format.">
<polygon fill="white" stroke="#666666" points="390.5,-77.76 221.5,-77.76 221.5,-47.76 390.5,-47.76 390.5,-77.76"/>
<text text-anchor="start" x="229.5" y="-65.76" font-family="Helvetica,sans-Serif" font-size="10.00">StatusCommand::outputDevice</text>
<text text-anchor="middle" x="306" y="-54.76" font-family="Helvetica,sans-Serif" font-size="10.00">Status</text>
</a>
</g>
</g>
<!-- Node22&#45;&gt;Node23 -->
<g id="edge23_Node000022_Node000023" class="edge">
<title>Node22&#45;&gt;Node23</title>
<g id="a_edge23_Node000022_Node000023"><a xlink:title=" ">
<path fill="none" stroke="#63b8ff" d="M633.25,-13.59C584.08,-3.85 505.48,6.76 439,-6.76 400.7,-14.55 359.73,-33.85 333.77,-47.61"/>
<polygon fill="#63b8ff" stroke="#63b8ff" points="641.18,-15.2 632.62,-17.13 637.26,-14.4 633.34,-13.6 633.34,-13.6 633.34,-13.6 637.26,-14.4 634.06,-10.08 641.18,-15.2 641.18,-15.2"/>
</a>
</g>
</g>
<!-- Node24 -->
<g id="Node000024" class="node">
<title>Node24</title>
<g id="a_Node000024"><a xlink:href="classStatusService.html#a5b3ed7cd72ea54ba07f8927ff2cb7178" target="_top" xlink:title="Returns a string version of the status enum label.">
<polygon fill="white" stroke="#666666" points="567,-35.26 439,-35.26 439,-16.26 567,-16.26 567,-35.26"/>
<text text-anchor="middle" x="503" y="-23.26" font-family="Helvetica,sans-Serif" font-size="10.00">StatusService::toString</text>
</a>
</g>
</g>
<!-- Node22&#45;&gt;Node24 -->
<g id="edge25_Node000022_Node000024" class="edge">
<title>Node22&#45;&gt;Node24</title>
<g id="a_edge25_Node000022_Node000024"><a xlink:title=" ">
<path fill="none" stroke="#63b8ff" d="M613.7,-25.14C598.45,-25.23 582.31,-25.32 567.24,-25.4"/>
<polygon fill="#63b8ff" stroke="#63b8ff" points="622.06,-25.09 614.08,-28.74 618.06,-25.12 614.06,-25.14 614.06,-25.14 614.06,-25.14 618.06,-25.12 614.04,-21.54 622.06,-25.09 622.06,-25.09"/>
</a>
</g>
</g>
<!-- Node25 -->
<g id="Node000025" class="node">
<title>Node25</title>
<g id="a_Node000025"><a xlink:href="classStatusService.html#aac79e97cb114be25b2a6771d915f132d" target="_top" xlink:title="Returns a string version of the status enum label.">
<polygon fill="white" stroke="#666666" points="567,-72.26 439,-72.26 439,-53.26 567,-53.26 567,-72.26"/>
<text text-anchor="middle" x="503" y="-60.26" font-family="Helvetica,sans-Serif" font-size="10.00">StatusService::toString</text>
</a>
</g>
</g>
<!-- Node22&#45;&gt;Node25 -->
<g id="edge26_Node000022_Node000025" class="edge">
<title>Node22&#45;&gt;Node25</title>
<g id="a_edge26_Node000022_Node000025"><a xlink:title=" ">
<path fill="none" stroke="#63b8ff" d="M628.25,-36.08C602.79,-41.55 572.6,-48.03 548.34,-53.24"/>
<polygon fill="#63b8ff" stroke="#63b8ff" points="636.34,-34.35 629.27,-39.55 632.42,-35.19 628.51,-36.03 628.51,-36.03 628.51,-36.03 632.42,-35.19 627.76,-32.51 636.34,-34.35 636.34,-34.35"/>
</a>
</g>
</g>
<!-- Node23&#45;&gt;Node8 -->
<g id="edge24_Node000023_Node000008" class="edge">
<title>Node23&#45;&gt;Node8</title>
<g id="a_edge24_Node000023_Node000008"><a xlink:title=" ">
<path fill="none" stroke="#63b8ff" d="M213.02,-71.64C199.76,-72.92 186.16,-74.23 173.03,-75.5"/>
<polygon fill="#63b8ff" stroke="#63b8ff" points="221.22,-70.85 213.6,-75.2 217.24,-71.23 213.26,-71.62 213.26,-71.62 213.26,-71.62 217.24,-71.23 212.91,-68.03 221.22,-70.85 221.22,-70.85"/>
</a>
</g>
</g>
<!-- Node25&#45;&gt;Node21 -->
<g id="edge28_Node000025_Node000021" class="edge">
<title>Node25&#45;&gt;Node21</title>
<g id="a_edge28_Node000025_Node000021"><a xlink:title=" ">
<path fill="none" stroke="#63b8ff" d="M575.69,-66.43C645.85,-70.02 751.42,-75.43 816.62,-78.77"/>
<polygon fill="#63b8ff" stroke="#63b8ff" points="567.31,-66 575.49,-62.82 571.31,-66.21 575.3,-66.41 575.3,-66.41 575.3,-66.41 571.31,-66.21 575.12,-70.01 567.31,-66 567.31,-66"/>
</a>
</g>
</g>
<!-- Node25&#45;&gt;Node23 -->
<g id="edge27_Node000025_Node000023" class="edge">
<title>Node25&#45;&gt;Node23</title>
<g id="a_edge27_Node000025_Node000023"><a xlink:title=" ">
<path fill="none" stroke="#63b8ff" d="M430.93,-62.76C417.89,-62.76 404.16,-62.76 390.79,-62.76"/>
<polygon fill="#63b8ff" stroke="#63b8ff" points="438.96,-62.76 430.96,-66.36 434.96,-62.76 430.96,-62.76 430.96,-62.76 430.96,-62.76 434.96,-62.76 430.96,-59.16 438.96,-62.76 438.96,-62.76"/>
</a>
</g>
</g>
</g>
</svg>
