<?xml version="1.0" encoding="UTF-8" standalone="no"?>
<!DOCTYPE svg PUBLIC "-//W3C//DTD SVG 1.1//EN"
 "http://www.w3.org/Graphics/SVG/1.1/DTD/svg11.dtd">
<!-- Generated by graphviz version 2.43.0 (0)
 -->
<!-- Title: LoggerStartCommand::serviceDetailsDiscovered Pages: 1 -->
<svg width="556pt" height="371pt"
 viewBox="0.00 0.00 556.00 371.00" xmlns="http://www.w3.org/2000/svg" xmlns:xlink="http://www.w3.org/1999/xlink">
<g id="graph0" class="graph" transform="scale(1 1) rotate(0) translate(4 367)">
<title>LoggerStartCommand::serviceDetailsDiscovered</title>
<!-- Node1 -->
<g id="node1" class="node">
<title>Node1</title>
<g id="a_node1"><a xlink:title="Handles service detail discovery events.">
<polygon fill="#bfbfbf" stroke="black" points="0,-218 0,-248 147,-248 147,-218 0,-218"/>
<text text-anchor="start" x="8" y="-236" font-family="Helvetica,sans-Serif" font-size="10.00">LoggerStartCommand</text>
<text text-anchor="middle" x="73.5" y="-225" font-family="Helvetica,sans-Serif" font-size="10.00">::serviceDetailsDiscovered</text>
</a>
</g>
</g>
<!-- Node2 -->
<g id="node2" class="node">
<title>Node2</title>
<g id="a_node2"><a target="_parent" xlink:href="https://doc.qt.io/qt-5/qstring.html#arg-11" xlink:title=" ">
<polygon fill="none" stroke="black" points="234,-343.5 234,-362.5 308,-362.5 308,-343.5 234,-343.5"/>
<text text-anchor="middle" x="271" y="-350.5" font-family="Helvetica,sans-Serif" font-size="10.00">QString::arg</text>
</a>
</g>
</g>
<!-- Node1&#45;&gt;Node2 -->
<g id="edge1" class="edge">
<title>Node1&#45;&gt;Node2</title>
<path fill="none" stroke="midnightblue" d="M86.36,-248.36C104.58,-270.85 141.73,-312.39 183,-334 195.44,-340.51 210.01,-344.8 223.63,-347.61"/>
<polygon fill="midnightblue" stroke="midnightblue" points="223.33,-351.12 233.8,-349.49 224.61,-344.24 223.33,-351.12"/>
</g>
<!-- Node3 -->
<g id="node3" class="node">
<title>Node3</title>
<g id="a_node3"><a target="_parent" xlink:href="https://doc.qt.io/qt-5/qstring.html#fromLatin1" xlink:title=" ">
<polygon fill="none" stroke="black" points="215,-305.5 215,-324.5 327,-324.5 327,-305.5 215,-305.5"/>
<text text-anchor="middle" x="271" y="-312.5" font-family="Helvetica,sans-Serif" font-size="10.00">QString::fromLatin1</text>
</a>
</g>
</g>
<!-- Node1&#45;&gt;Node3 -->
<g id="edge2" class="edge">
<title>Node1&#45;&gt;Node3</title>
<path fill="none" stroke="midnightblue" d="M95.92,-248.15C117.11,-262.46 150.92,-283.54 183,-296 190.01,-298.72 197.51,-301.1 205.04,-303.16"/>
<polygon fill="midnightblue" stroke="midnightblue" points="204.38,-306.6 214.93,-305.69 206.11,-299.82 204.38,-306.6"/>
</g>
<!-- Node4 -->
<g id="node4" class="node">
<title>Node4</title>
<g id="a_node4"><a target="_parent" xlink:href="https://doc.qt.io/qt-5/qstring.html#isNull" xlink:title=" ">
<polygon fill="none" stroke="black" points="228,-267.5 228,-286.5 314,-286.5 314,-267.5 228,-267.5"/>
<text text-anchor="middle" x="271" y="-274.5" font-family="Helvetica,sans-Serif" font-size="10.00">QString::isNull</text>
</a>
</g>
</g>
<!-- Node1&#45;&gt;Node4 -->
<g id="edge3" class="edge">
<title>Node1&#45;&gt;Node4</title>
<path fill="none" stroke="midnightblue" d="M139.3,-248.06C153.68,-251.37 168.85,-254.83 183,-258 194.32,-260.54 206.47,-263.22 218,-265.75"/>
<polygon fill="midnightblue" stroke="midnightblue" points="217.42,-269.2 227.94,-267.92 218.92,-262.36 217.42,-269.2"/>
</g>
<!-- Node5 -->
<g id="node5" class="node">
<title>Node5</title>
<g id="a_node5"><a xlink:href="classDeviceCommand.html#a906fd97d832be0e8d2ba1c917fba41db" target="_top" xlink:title="Handles service detail discovery events.">
<polygon fill="none" stroke="black" points="183,-218 183,-248 359,-248 359,-218 183,-218"/>
<text text-anchor="start" x="191" y="-236" font-family="Helvetica,sans-Serif" font-size="10.00">DeviceCommand::serviceDetails</text>
<text text-anchor="middle" x="271" y="-225" font-family="Helvetica,sans-Serif" font-size="10.00">Discovered</text>
</a>
</g>
</g>
<!-- Node1&#45;&gt;Node5 -->
<g id="edge4" class="edge">
<title>Node1&#45;&gt;Node5</title>
<path fill="none" stroke="midnightblue" d="M147.02,-233C155.38,-233 164,-233 172.62,-233"/>
<polygon fill="midnightblue" stroke="midnightblue" points="172.71,-236.5 182.71,-233 172.71,-229.5 172.71,-236.5"/>
</g>
<!-- Node6 -->
<g id="node6" class="node">
<title>Node6</title>
<g id="a_node6"><a target="_parent" xlink:href="https://doc.qt.io/qt-5/qobject.html#tr" xlink:title=" ">
<polygon fill="none" stroke="black" points="437,-178.5 437,-197.5 506,-197.5 506,-178.5 437,-178.5"/>
<text text-anchor="middle" x="471.5" y="-185.5" font-family="Helvetica,sans-Serif" font-size="10.00">QObject::tr</text>
</a>
</g>
</g>
<!-- Node1&#45;&gt;Node6 -->
<g id="edge14" class="edge">
<title>Node1&#45;&gt;Node6</title>
<path fill="none" stroke="midnightblue" d="M135.04,-217.98C150.59,-214.58 167.35,-211.29 183,-209 268.78,-196.45 370.1,-191.27 426.66,-189.23"/>
<polygon fill="midnightblue" stroke="midnightblue" points="426.82,-192.73 436.69,-188.88 426.57,-185.73 426.82,-192.73"/>
</g>
<!-- Node7 -->
<g id="node7" class="node">
<title>Node7</title>
<g id="a_node7"><a xlink:href="classDataLoggerService.html#a3b933a1a161a390eb08e5019685f449c" target="_top" xlink:title="Configures the Pokit device&#39;s data logger mode.">
<polygon fill="none" stroke="black" points="213.5,-81 213.5,-111 328.5,-111 328.5,-81 213.5,-81"/>
<text text-anchor="start" x="221.5" y="-99" font-family="Helvetica,sans-Serif" font-size="10.00">DataLoggerService::</text>
<text text-anchor="middle" x="271" y="-88" font-family="Helvetica,sans-Serif" font-size="10.00">setSettings</text>
</a>
</g>
</g>
<!-- Node1&#45;&gt;Node7 -->
<g id="edge6" class="edge">
<title>Node1&#45;&gt;Node7</title>
<path fill="none" stroke="midnightblue" d="M85,-217.88C102.52,-193.79 140.06,-146.77 183,-121 189.39,-117.16 196.4,-113.89 203.58,-111.1"/>
<polygon fill="midnightblue" stroke="midnightblue" points="205.19,-114.25 213.44,-107.6 202.84,-107.65 205.19,-114.25"/>
</g>
<!-- Node12 -->
<g id="node12" class="node">
<title>Node12</title>
<g id="a_node12"><a xlink:href="classDataLoggerService.html#a4c696b7500e666959bbec4b0ed677d5d" target="_top" xlink:title="Returns mode as a user&#45;friendly string.">
<polygon fill="none" stroke="black" points="213.5,-130 213.5,-160 328.5,-160 328.5,-130 213.5,-130"/>
<text text-anchor="start" x="221.5" y="-148" font-family="Helvetica,sans-Serif" font-size="10.00">DataLoggerService::</text>
<text text-anchor="middle" x="271" y="-137" font-family="Helvetica,sans-Serif" font-size="10.00">toString</text>
</a>
</g>
</g>
<!-- Node1&#45;&gt;Node12 -->
<g id="edge12" class="edge">
<title>Node1&#45;&gt;Node12</title>
<path fill="none" stroke="midnightblue" d="M99.8,-217.99C121.43,-205.52 153.64,-187.81 183,-175 192.43,-170.88 202.63,-166.94 212.6,-163.34"/>
<polygon fill="midnightblue" stroke="midnightblue" points="213.8,-166.63 222.07,-160 211.47,-160.03 213.8,-166.63"/>
</g>
<!-- Node5&#45;&gt;Node6 -->
<g id="edge5" class="edge">
<title>Node5&#45;&gt;Node6</title>
<path fill="none" stroke="midnightblue" d="M338.37,-217.95C367.53,-211.34 400.95,-203.77 426.88,-197.89"/>
<polygon fill="midnightblue" stroke="midnightblue" points="427.81,-201.27 436.78,-195.64 426.26,-194.44 427.81,-201.27"/>
</g>
<!-- Node7&#45;&gt;Node6 -->
<g id="edge11" class="edge">
<title>Node7&#45;&gt;Node6</title>
<path fill="none" stroke="midnightblue" d="M328.6,-106.67C339.24,-110.19 349.88,-114.85 359,-121 380.52,-135.51 373.41,-152.58 395,-167 404.53,-173.37 415.96,-177.82 427.01,-180.92"/>
<polygon fill="midnightblue" stroke="midnightblue" points="426.43,-184.39 436.98,-183.41 428.13,-177.59 426.43,-184.39"/>
</g>
<!-- Node8 -->
<g id="node8" class="node">
<title>Node8</title>
<g id="a_node8"><a target="_parent" xlink:href="https://doc.qt.io/qt-5/qlowenergycharacteristic.html#isValid" xlink:title=" ">
<polygon fill="none" stroke="black" points="399,-127 399,-157 544,-157 544,-127 399,-127"/>
<text text-anchor="start" x="407" y="-145" font-family="Helvetica,sans-Serif" font-size="10.00">QLowEnergyCharacteristic</text>
<text text-anchor="middle" x="471.5" y="-134" font-family="Helvetica,sans-Serif" font-size="10.00">::isValid</text>
</a>
</g>
</g>
<!-- Node7&#45;&gt;Node8 -->
<g id="edge7" class="edge">
<title>Node7&#45;&gt;Node8</title>
<path fill="none" stroke="midnightblue" d="M328.62,-109.12C349.58,-113.98 373.67,-119.56 395.99,-124.73"/>
<polygon fill="midnightblue" stroke="midnightblue" points="395.23,-128.15 405.76,-127 396.81,-121.33 395.23,-128.15"/>
</g>
<!-- Node9 -->
<g id="node9" class="node">
<title>Node9</title>
<g id="a_node9"><a target="_parent" xlink:href="https://doc.qt.io/qt-5/qdatastream.html#setByteOrder" xlink:title=" ">
<polygon fill="none" stroke="black" points="395,-88.5 395,-107.5 548,-107.5 548,-88.5 395,-88.5"/>
<text text-anchor="middle" x="471.5" y="-95.5" font-family="Helvetica,sans-Serif" font-size="10.00">QDataStream::setByteOrder</text>
</a>
</g>
</g>
<!-- Node7&#45;&gt;Node9 -->
<g id="edge8" class="edge">
<title>Node7&#45;&gt;Node9</title>
<path fill="none" stroke="midnightblue" d="M328.62,-96.57C346.1,-96.75 365.76,-96.94 384.76,-97.14"/>
<polygon fill="midnightblue" stroke="midnightblue" points="384.88,-100.64 394.91,-97.24 384.95,-93.64 384.88,-100.64"/>
</g>
<!-- Node10 -->
<g id="node10" class="node">
<title>Node10</title>
<g id="a_node10"><a target="_parent" xlink:href="https://doc.qt.io/qt-5/qdatastream.html#setFloatingPointPrecision" xlink:title=" ">
<polygon fill="none" stroke="black" points="400,-39 400,-69 543,-69 543,-39 400,-39"/>
<text text-anchor="start" x="408" y="-57" font-family="Helvetica,sans-Serif" font-size="10.00">QDataStream::setFloating</text>
<text text-anchor="middle" x="471.5" y="-46" font-family="Helvetica,sans-Serif" font-size="10.00">PointPrecision</text>
</a>
</g>
</g>
<!-- Node7&#45;&gt;Node10 -->
<g id="edge9" class="edge">
<title>Node7&#45;&gt;Node10</title>
<path fill="none" stroke="midnightblue" d="M328.62,-84.02C347.62,-80 369.2,-75.43 389.7,-71.1"/>
<polygon fill="midnightblue" stroke="midnightblue" points="390.6,-74.48 399.66,-68.99 389.15,-67.64 390.6,-74.48"/>
</g>
<!-- Node11 -->
<g id="node11" class="node">
<title>Node11</title>
<g id="a_node11"><a target="_parent" xlink:href="https://doc.qt.io/qt-5/qbytearray.html#size" xlink:title=" ">
<polygon fill="none" stroke="black" points="422.5,-0.5 422.5,-19.5 520.5,-19.5 520.5,-0.5 422.5,-0.5"/>
<text text-anchor="middle" x="471.5" y="-7.5" font-family="Helvetica,sans-Serif" font-size="10.00">QByteArray::size</text>
</a>
</g>
</g>
<!-- Node7&#45;&gt;Node11 -->
<g id="edge10" class="edge">
<title>Node7&#45;&gt;Node11</title>
<path fill="none" stroke="midnightblue" d="M295.63,-80.78C319.78,-65.8 358.76,-43.17 395,-29 401.34,-26.52 408.11,-24.28 414.9,-22.28"/>
<polygon fill="midnightblue" stroke="midnightblue" points="416.11,-25.58 424.8,-19.53 414.23,-18.84 416.11,-25.58"/>
</g>
<!-- Node12&#45;&gt;Node6 -->
<g id="edge13" class="edge">
<title>Node12&#45;&gt;Node6</title>
<path fill="none" stroke="midnightblue" d="M328.62,-157.26C359.88,-164.04 398.11,-172.32 427.01,-178.58"/>
<polygon fill="midnightblue" stroke="midnightblue" points="426.3,-182.01 436.82,-180.7 427.78,-175.17 426.3,-182.01"/>
</g>
</g>
</svg>
