<?xml version="1.0" encoding="UTF-8" standalone="no"?>
<!DOCTYPE svg PUBLIC "-//W3C//DTD SVG 1.1//EN"
 "http://www.w3.org/Graphics/SVG/1.1/DTD/svg11.dtd">
<!-- Generated by graphviz version 2.43.0 (0)
 -->
<!-- Title: ScanCommand::ScanCommand Pages: 1 -->
<svg width="965pt" height="977pt"
 viewBox="0.00 0.00 965.00 976.50" xmlns="http://www.w3.org/2000/svg" xmlns:xlink="http://www.w3.org/1999/xlink">
<g id="graph0" class="graph" transform="scale(1 1) rotate(0) translate(4 972.5)">
<title>ScanCommand::ScanCommand</title>
<!-- Node1 -->
<g id="node1" class="node">
<title>Node1</title>
<g id="a_node1"><a xlink:title="Construct a new ScanCommand object with parent.">
<polygon fill="#bfbfbf" stroke="black" points="0,-316.5 0,-335.5 170,-335.5 170,-316.5 0,-316.5"/>
<text text-anchor="middle" x="85" y="-323.5" font-family="Helvetica,sans-Serif" font-size="10.00">ScanCommand::ScanCommand</text>
</a>
</g>
</g>
<!-- Node2 -->
<g id="node2" class="node">
<title>Node2</title>
<g id="a_node2"><a target="_parent" xlink:href="https://doc.qt.io/qt-5/qobject.html#connect" xlink:title=" ">
<polygon fill="none" stroke="black" points="241,-335.5 241,-354.5 341,-354.5 341,-335.5 241,-335.5"/>
<text text-anchor="middle" x="291" y="-342.5" font-family="Helvetica,sans-Serif" font-size="10.00">QObject::connect</text>
</a>
</g>
</g>
<!-- Node1&#45;&gt;Node2 -->
<g id="edge1" class="edge">
<title>Node1&#45;&gt;Node2</title>
<path fill="none" stroke="midnightblue" d="M170.15,-333.84C190.53,-335.74 211.88,-337.72 230.83,-339.49"/>
<polygon fill="midnightblue" stroke="midnightblue" points="230.51,-342.97 240.79,-340.42 231.16,-336 230.51,-342.97"/>
</g>
<!-- Node3 -->
<g id="node3" class="node">
<title>Node3</title>
<g id="a_node3"><a xlink:href="classScanCommand.html#a2cb218644893d84036ec16cd46f1d488" target="_top" xlink:title="Handles updated Pokit devices, writing info to stdout.">
<polygon fill="none" stroke="black" points="206,-297.5 206,-316.5 376,-316.5 376,-297.5 206,-297.5"/>
<text text-anchor="middle" x="291" y="-304.5" font-family="Helvetica,sans-Serif" font-size="10.00">ScanCommand::deviceUpdated</text>
</a>
</g>
</g>
<!-- Node1&#45;&gt;Node3 -->
<g id="edge2" class="edge">
<title>Node1&#45;&gt;Node3</title>
<path fill="none" stroke="midnightblue" d="M170.15,-318.16C178.59,-317.38 187.2,-316.57 195.74,-315.78"/>
<polygon fill="midnightblue" stroke="midnightblue" points="196.08,-319.26 205.71,-314.85 195.43,-312.29 196.08,-319.26"/>
</g>
<!-- Node4 -->
<g id="node4" class="node">
<title>Node4</title>
<g id="a_node4"><a xlink:href="classScanCommand.html#ac9f53dee63d2dfaa3acf82e71db01d64" target="_top" xlink:title="Handles discovered Pokit devices, writing info to stdout.">
<polygon fill="none" stroke="black" points="412,-297.5 412,-316.5 595,-316.5 595,-297.5 412,-297.5"/>
<text text-anchor="middle" x="503.5" y="-304.5" font-family="Helvetica,sans-Serif" font-size="10.00">ScanCommand::deviceDiscovered</text>
</a>
</g>
</g>
<!-- Node3&#45;&gt;Node4 -->
<g id="edge3" class="edge">
<title>Node3&#45;&gt;Node4</title>
<path fill="none" stroke="midnightblue" d="M376.1,-307C384.58,-307 393.25,-307 401.88,-307"/>
<polygon fill="midnightblue" stroke="midnightblue" points="401.97,-310.5 411.97,-307 401.97,-303.5 401.97,-310.5"/>
</g>
<!-- Node5 -->
<g id="node5" class="node">
<title>Node5</title>
<g id="a_node5"><a target="_parent" xlink:href="https://doc.qt.io/qt-5/qbluetoothdeviceinfo.html#address" xlink:title=" ">
<polygon fill="none" stroke="black" points="833,-938 833,-968 957,-968 957,-938 833,-938"/>
<text text-anchor="start" x="841" y="-956" font-family="Helvetica,sans-Serif" font-size="10.00">QBluetoothDeviceInfo</text>
<text text-anchor="middle" x="895" y="-945" font-family="Helvetica,sans-Serif" font-size="10.00">::address</text>
</a>
</g>
</g>
<!-- Node4&#45;&gt;Node5 -->
<g id="edge4" class="edge">
<title>Node4&#45;&gt;Node5</title>
<path fill="none" stroke="midnightblue" d="M505.47,-316.56C512.31,-382.54 555.37,-770.11 631,-856 679.72,-911.33 762.87,-935.14 822.65,-945.36"/>
<polygon fill="midnightblue" stroke="midnightblue" points="822.34,-948.86 832.78,-947.01 823.46,-941.95 822.34,-948.86"/>
</g>
<!-- Node6 -->
<g id="node6" class="node">
<title>Node6</title>
<g id="a_node6"><a target="_parent" xlink:href="https://doc.qt.io/qt-5/qstring.html#arg-11" xlink:title=" ">
<polygon fill="none" stroke="black" points="858,-196.5 858,-215.5 932,-215.5 932,-196.5 858,-196.5"/>
<text text-anchor="middle" x="895" y="-203.5" font-family="Helvetica,sans-Serif" font-size="10.00">QString::arg</text>
</a>
</g>
</g>
<!-- Node4&#45;&gt;Node6 -->
<g id="edge5" class="edge">
<title>Node4&#45;&gt;Node6</title>
<path fill="none" stroke="midnightblue" d="M529.4,-297.45C554.7,-288.01 595.15,-273.61 631,-264 703.66,-244.52 723.66,-247.73 797,-231 814.13,-227.09 832.85,-222.38 849.23,-218.1"/>
<polygon fill="midnightblue" stroke="midnightblue" points="850.32,-221.43 859.09,-215.5 848.53,-214.66 850.32,-221.43"/>
</g>
<!-- Node7 -->
<g id="node7" class="node">
<title>Node7</title>
<g id="a_node7"><a target="_parent" xlink:href="https://doc.qt.io/qt-5/qbluetoothdeviceinfo.html#deviceUuid" xlink:title=" ">
<polygon fill="none" stroke="black" points="833,-889 833,-919 957,-919 957,-889 833,-889"/>
<text text-anchor="start" x="841" y="-907" font-family="Helvetica,sans-Serif" font-size="10.00">QBluetoothDeviceInfo</text>
<text text-anchor="middle" x="895" y="-896" font-family="Helvetica,sans-Serif" font-size="10.00">::deviceUuid</text>
</a>
</g>
</g>
<!-- Node4&#45;&gt;Node7 -->
<g id="edge6" class="edge">
<title>Node4&#45;&gt;Node7</title>
<path fill="none" stroke="midnightblue" d="M505.8,-316.71C514.29,-378.87 563.63,-720.98 631,-798 680.1,-854.13 763.18,-880.95 822.84,-893.49"/>
<polygon fill="midnightblue" stroke="midnightblue" points="822.45,-896.98 832.94,-895.53 823.83,-890.12 822.45,-896.98"/>
</g>
<!-- Node8 -->
<g id="node8" class="node">
<title>Node8</title>
<g id="a_node8"><a xlink:href="classAbstractCommand.html#af85c842568f8a3a893e336e449ef7813" target="_top" xlink:title="Returns an RFC 4180 compliant version of field.">
<polygon fill="none" stroke="black" points="631,-191 631,-221 797,-221 797,-191 631,-191"/>
<text text-anchor="start" x="639" y="-209" font-family="Helvetica,sans-Serif" font-size="10.00">AbstractCommand::escapeCsv</text>
<text text-anchor="middle" x="714" y="-198" font-family="Helvetica,sans-Serif" font-size="10.00">Field</text>
</a>
</g>
</g>
<!-- Node4&#45;&gt;Node8 -->
<g id="edge7" class="edge">
<title>Node4&#45;&gt;Node8</title>
<path fill="none" stroke="midnightblue" d="M519.66,-297.43C542.99,-282.96 589.36,-255.15 631,-236 639.69,-232 649.07,-228.16 658.29,-224.62"/>
<polygon fill="midnightblue" stroke="midnightblue" points="659.65,-227.85 667.79,-221.07 657.19,-221.3 659.65,-227.85"/>
</g>
<!-- Node10 -->
<g id="node10" class="node">
<title>Node10</title>
<g id="a_node10"><a target="_parent" xlink:href="https://doc.qt.io/qt-5/qstring.html#fromLatin1" xlink:title=" ">
<polygon fill="none" stroke="black" points="839,-120.5 839,-139.5 951,-139.5 951,-120.5 839,-120.5"/>
<text text-anchor="middle" x="895" y="-127.5" font-family="Helvetica,sans-Serif" font-size="10.00">QString::fromLatin1</text>
</a>
</g>
</g>
<!-- Node4&#45;&gt;Node10 -->
<g id="edge11" class="edge">
<title>Node4&#45;&gt;Node10</title>
<path fill="none" stroke="midnightblue" d="M511.15,-297.27C528.06,-273.36 575.35,-211.49 631,-182 664.59,-164.2 762.41,-147.94 828.81,-138.51"/>
<polygon fill="midnightblue" stroke="midnightblue" points="829.35,-141.96 838.77,-137.11 828.38,-135.03 829.35,-141.96"/>
</g>
<!-- Node11 -->
<g id="node11" class="node">
<title>Node11</title>
<g id="a_node11"><a target="_parent" xlink:href="https://doc.qt.io/qt-5/qbluetoothdeviceinfo.html#majorDeviceClass" xlink:title=" ">
<polygon fill="none" stroke="black" points="833,-840 833,-870 957,-870 957,-840 833,-840"/>
<text text-anchor="start" x="841" y="-858" font-family="Helvetica,sans-Serif" font-size="10.00">QBluetoothDeviceInfo</text>
<text text-anchor="middle" x="895" y="-847" font-family="Helvetica,sans-Serif" font-size="10.00">::majorDeviceClass</text>
</a>
</g>
</g>
<!-- Node4&#45;&gt;Node11 -->
<g id="edge12" class="edge">
<title>Node4&#45;&gt;Node11</title>
<path fill="none" stroke="midnightblue" d="M504.56,-316.81C505.38,-367.54 515.51,-602.82 631,-737 680.48,-794.49 763.56,-825.27 823.11,-840.81"/>
<polygon fill="midnightblue" stroke="midnightblue" points="822.27,-844.21 832.82,-843.27 823.98,-837.42 822.27,-844.21"/>
</g>
<!-- Node12 -->
<g id="node12" class="node">
<title>Node12</title>
<g id="a_node12"><a target="_parent" xlink:href="https://doc.qt.io/qt-5/qbluetoothdeviceinfo.html#minorDeviceClass" xlink:title=" ">
<polygon fill="none" stroke="black" points="833,-791 833,-821 957,-821 957,-791 833,-791"/>
<text text-anchor="start" x="841" y="-809" font-family="Helvetica,sans-Serif" font-size="10.00">QBluetoothDeviceInfo</text>
<text text-anchor="middle" x="895" y="-798" font-family="Helvetica,sans-Serif" font-size="10.00">::minorDeviceClass</text>
</a>
</g>
</g>
<!-- Node4&#45;&gt;Node12 -->
<g id="edge13" class="edge">
<title>Node4&#45;&gt;Node12</title>
<path fill="none" stroke="midnightblue" d="M505.34,-316.66C509.76,-361.97 533.87,-556 631,-671 682.29,-731.72 767.78,-768.39 827.32,-787.87"/>
<polygon fill="midnightblue" stroke="midnightblue" points="826.42,-791.26 837.01,-790.97 828.55,-784.59 826.42,-791.26"/>
</g>
<!-- Node13 -->
<g id="node13" class="node">
<title>Node13</title>
<g id="a_node13"><a target="_parent" xlink:href="https://doc.qt.io/qt-5/qbluetoothdeviceinfo.html#name" xlink:title=" ">
<polygon fill="none" stroke="black" points="833,-742 833,-772 957,-772 957,-742 833,-742"/>
<text text-anchor="start" x="841" y="-760" font-family="Helvetica,sans-Serif" font-size="10.00">QBluetoothDeviceInfo</text>
<text text-anchor="middle" x="895" y="-749" font-family="Helvetica,sans-Serif" font-size="10.00">::name</text>
</a>
</g>
</g>
<!-- Node4&#45;&gt;Node13 -->
<g id="edge14" class="edge">
<title>Node4&#45;&gt;Node13</title>
<path fill="none" stroke="midnightblue" d="M506.57,-316.59C515.39,-355.58 552.96,-504.56 631,-598 688.51,-666.85 783.93,-713.85 842.65,-738"/>
<polygon fill="midnightblue" stroke="midnightblue" points="841.52,-741.32 852.1,-741.82 844.14,-734.83 841.52,-741.32"/>
</g>
<!-- Node14 -->
<g id="node14" class="node">
<title>Node14</title>
<g id="a_node14"><a target="_parent" xlink:href="https://doc.qt.io/qt-5/qbluetoothdeviceinfo.html#rssi" xlink:title=" ">
<polygon fill="none" stroke="black" points="833,-322 833,-352 957,-352 957,-322 833,-322"/>
<text text-anchor="start" x="841" y="-340" font-family="Helvetica,sans-Serif" font-size="10.00">QBluetoothDeviceInfo</text>
<text text-anchor="middle" x="895" y="-329" font-family="Helvetica,sans-Serif" font-size="10.00">::rssi</text>
</a>
</g>
</g>
<!-- Node4&#45;&gt;Node14 -->
<g id="edge15" class="edge">
<title>Node4&#45;&gt;Node14</title>
<path fill="none" stroke="midnightblue" d="M595.34,-315.91C607.33,-317 619.46,-318.06 631,-319 695.79,-324.29 769.64,-329.25 822.56,-332.62"/>
<polygon fill="midnightblue" stroke="midnightblue" points="822.65,-336.13 832.85,-333.27 823.09,-329.15 822.65,-336.13"/>
</g>
<!-- Node15 -->
<g id="node15" class="node">
<title>Node15</title>
<g id="a_node15"><a target="_parent" xlink:href="https://doc.qt.io/qt-5/qjsondocument.html#toJson" xlink:title=" ">
<polygon fill="none" stroke="black" points="648.5,-38.5 648.5,-57.5 779.5,-57.5 779.5,-38.5 648.5,-38.5"/>
<text text-anchor="middle" x="714" y="-45.5" font-family="Helvetica,sans-Serif" font-size="10.00">QJsonDocument::toJson</text>
</a>
</g>
</g>
<!-- Node4&#45;&gt;Node15 -->
<g id="edge16" class="edge">
<title>Node4&#45;&gt;Node15</title>
<path fill="none" stroke="midnightblue" d="M506.85,-297.21C515.97,-261.29 552.51,-135.58 631,-72 636.27,-67.73 642.26,-64.23 648.57,-61.34"/>
<polygon fill="midnightblue" stroke="midnightblue" points="650,-64.54 657.96,-57.55 647.38,-58.05 650,-64.54"/>
</g>
<!-- Node16 -->
<g id="node16" class="node">
<title>Node16</title>
<g id="a_node16"><a xlink:href="classScanCommand.html#a0004f4c780fb9cbd73bc7eba48613c7c" target="_top" xlink:title="Returns info as a JSON object.">
<polygon fill="none" stroke="black" points="651,-551.5 651,-570.5 777,-570.5 777,-551.5 651,-551.5"/>
<text text-anchor="middle" x="714" y="-558.5" font-family="Helvetica,sans-Serif" font-size="10.00">ScanCommand::toJson</text>
</a>
</g>
</g>
<!-- Node4&#45;&gt;Node16 -->
<g id="edge17" class="edge">
<title>Node4&#45;&gt;Node16</title>
<path fill="none" stroke="midnightblue" d="M512.42,-316.65C543.58,-354.6 657.99,-493.99 698.59,-543.45"/>
<polygon fill="midnightblue" stroke="midnightblue" points="696.02,-545.83 705.07,-551.34 701.43,-541.39 696.02,-545.83"/>
</g>
<!-- Node25 -->
<g id="node25" class="node">
<title>Node25</title>
<g id="a_node25"><a target="_parent" xlink:href="https://doc.qt.io/qt-5/qbluetoothaddress.html#toString" xlink:title=" ">
<polygon fill="none" stroke="black" points="837,-273 837,-303 953,-303 953,-273 837,-273"/>
<text text-anchor="start" x="845" y="-291" font-family="Helvetica,sans-Serif" font-size="10.00">QBluetoothAddress::</text>
<text text-anchor="middle" x="895" y="-280" font-family="Helvetica,sans-Serif" font-size="10.00">toString</text>
</a>
</g>
</g>
<!-- Node4&#45;&gt;Node25 -->
<g id="edge36" class="edge">
<title>Node4&#45;&gt;Node25</title>
<path fill="none" stroke="midnightblue" d="M595.23,-308.39C653.06,-308.56 729.54,-307.42 797,-302 806.73,-301.22 816.97,-300.08 827.01,-298.79"/>
<polygon fill="midnightblue" stroke="midnightblue" points="827.5,-302.26 836.95,-297.46 826.57,-295.32 827.5,-302.26"/>
</g>
<!-- Node26 -->
<g id="node26" class="node">
<title>Node26</title>
<g id="a_node26"><a target="_parent" xlink:href="https://doc.qt.io/qt-5/quuid.html#toString" xlink:title=" ">
<polygon fill="none" stroke="black" points="849.5,-234.5 849.5,-253.5 940.5,-253.5 940.5,-234.5 849.5,-234.5"/>
<text text-anchor="middle" x="895" y="-241.5" font-family="Helvetica,sans-Serif" font-size="10.00">QUuid::toString</text>
</a>
</g>
</g>
<!-- Node4&#45;&gt;Node26 -->
<g id="edge37" class="edge">
<title>Node4&#45;&gt;Node26</title>
<path fill="none" stroke="midnightblue" d="M577.41,-297.46C636.7,-289.43 722.44,-277.16 797,-264 811.03,-261.52 826.15,-258.55 840.17,-255.67"/>
<polygon fill="midnightblue" stroke="midnightblue" points="841.08,-259.06 850.16,-253.59 839.66,-252.2 841.08,-259.06"/>
</g>
<!-- Node27 -->
<g id="node27" class="node">
<title>Node27</title>
<g id="a_node27"><a target="_parent" xlink:href="https://doc.qt.io/qt-5/qbytearray.html#toStdString" xlink:title=" ">
<polygon fill="none" stroke="black" points="648,-0.5 648,-19.5 780,-19.5 780,-0.5 648,-0.5"/>
<text text-anchor="middle" x="714" y="-7.5" font-family="Helvetica,sans-Serif" font-size="10.00">QByteArray::toStdString</text>
</a>
</g>
</g>
<!-- Node4&#45;&gt;Node27 -->
<g id="edge35" class="edge">
<title>Node4&#45;&gt;Node27</title>
<path fill="none" stroke="midnightblue" d="M505.82,-297.27C511.8,-257.17 540.1,-103.37 631,-29 633.41,-27.03 635.99,-25.25 638.69,-23.65"/>
<polygon fill="midnightblue" stroke="midnightblue" points="640.31,-26.75 647.67,-19.13 637.17,-20.5 640.31,-26.75"/>
</g>
<!-- Node28 -->
<g id="node28" class="node">
<title>Node28</title>
<g id="a_node28"><a xlink:href="classScanCommand.html#a4422f8c5972370796065882a622940e1" target="_top" xlink:title="Returns majorClass as a human&#45;readable string, or a null QString if majorClass is not recognised.">
<polygon fill="none" stroke="black" points="647,-114.5 647,-133.5 781,-133.5 781,-114.5 647,-114.5"/>
<text text-anchor="middle" x="714" y="-121.5" font-family="Helvetica,sans-Serif" font-size="10.00">ScanCommand::toString</text>
</a>
</g>
</g>
<!-- Node4&#45;&gt;Node28 -->
<g id="edge38" class="edge">
<title>Node4&#45;&gt;Node28</title>
<path fill="none" stroke="midnightblue" d="M509.33,-297.45C523.78,-269.84 569.52,-189.32 631,-148 637.58,-143.58 644.98,-139.96 652.58,-136.99"/>
<polygon fill="midnightblue" stroke="midnightblue" points="654,-140.21 662.27,-133.58 651.67,-133.6 654,-140.21"/>
</g>
<!-- Node29 -->
<g id="node29" class="node">
<title>Node29</title>
<g id="a_node29"><a target="_parent" xlink:href="https://doc.qt.io/qt-5/qobject.html#tr" xlink:title=" ">
<polygon fill="none" stroke="black" points="860.5,-79.5 860.5,-98.5 929.5,-98.5 929.5,-79.5 860.5,-79.5"/>
<text text-anchor="middle" x="895" y="-86.5" font-family="Helvetica,sans-Serif" font-size="10.00">QObject::tr</text>
</a>
</g>
</g>
<!-- Node4&#45;&gt;Node29 -->
<g id="edge41" class="edge">
<title>Node4&#45;&gt;Node29</title>
<path fill="none" stroke="midnightblue" d="M507.17,-297.09C516.93,-263.07 554.16,-150.65 631,-105 698.98,-64.61 795.07,-71.47 850.31,-80.19"/>
<polygon fill="midnightblue" stroke="midnightblue" points="850.02,-83.69 860.46,-81.88 851.18,-76.78 850.02,-83.69"/>
</g>
<!-- Node8&#45;&gt;Node6 -->
<g id="edge8" class="edge">
<title>Node8&#45;&gt;Node6</title>
<path fill="none" stroke="midnightblue" d="M797.17,-206C814.49,-206 832.18,-206 847.63,-206"/>
<polygon fill="midnightblue" stroke="midnightblue" points="847.92,-209.5 857.92,-206 847.92,-202.5 847.92,-209.5"/>
</g>
<!-- Node9 -->
<g id="node9" class="node">
<title>Node9</title>
<g id="a_node9"><a target="_parent" xlink:href="https://doc.qt.io/qt-5/qstring.html#contains-1" xlink:title=" ">
<polygon fill="none" stroke="black" points="845,-158.5 845,-177.5 945,-177.5 945,-158.5 845,-158.5"/>
<text text-anchor="middle" x="895" y="-165.5" font-family="Helvetica,sans-Serif" font-size="10.00">QString::contains</text>
</a>
</g>
</g>
<!-- Node8&#45;&gt;Node9 -->
<g id="edge9" class="edge">
<title>Node8&#45;&gt;Node9</title>
<path fill="none" stroke="midnightblue" d="M785.75,-190.98C803.47,-187.22 822.22,-183.24 839.04,-179.67"/>
<polygon fill="midnightblue" stroke="midnightblue" points="840.19,-183 849.25,-177.5 838.74,-176.15 840.19,-183"/>
</g>
<!-- Node8&#45;&gt;Node10 -->
<g id="edge10" class="edge">
<title>Node8&#45;&gt;Node10</title>
<path fill="none" stroke="midnightblue" d="M763.3,-191C774.64,-186.75 786.47,-181.71 797,-176 814.58,-166.46 815.19,-158.11 833,-149 837.28,-146.81 841.86,-144.82 846.51,-143.02"/>
<polygon fill="midnightblue" stroke="midnightblue" points="847.86,-146.25 856.1,-139.59 845.51,-139.66 847.86,-146.25"/>
</g>
<!-- Node16&#45;&gt;Node5 -->
<g id="edge18" class="edge">
<title>Node16&#45;&gt;Node5</title>
<path fill="none" stroke="midnightblue" d="M715.22,-570.73C716.79,-617.16 729.53,-818.62 833,-929 833.9,-929.96 834.84,-930.88 835.82,-931.76"/>
<polygon fill="midnightblue" stroke="midnightblue" points="833.84,-934.66 843.95,-937.85 838.04,-929.06 833.84,-934.66"/>
</g>
<!-- Node16&#45;&gt;Node7 -->
<g id="edge20" class="edge">
<title>Node16&#45;&gt;Node7</title>
<path fill="none" stroke="midnightblue" d="M715.76,-570.56C719.61,-612.92 740.64,-785.73 833,-880 833.94,-880.96 834.92,-881.88 835.95,-882.77"/>
<polygon fill="midnightblue" stroke="midnightblue" points="834.25,-885.86 844.4,-888.88 838.35,-880.19 834.25,-885.86"/>
</g>
<!-- Node16&#45;&gt;Node11 -->
<g id="edge25" class="edge">
<title>Node16&#45;&gt;Node11</title>
<path fill="none" stroke="midnightblue" d="M716.49,-570.62C722.93,-608.98 751.77,-752.74 833,-831 834.1,-832.06 835.25,-833.08 836.45,-834.05"/>
<polygon fill="midnightblue" stroke="midnightblue" points="834.68,-837.08 844.9,-839.86 838.64,-831.31 834.68,-837.08"/>
</g>
<!-- Node16&#45;&gt;Node12 -->
<g id="edge27" class="edge">
<title>Node16&#45;&gt;Node12</title>
<path fill="none" stroke="midnightblue" d="M717.6,-570.92C727.07,-605.14 762.84,-719.52 833,-782 834.31,-783.17 835.69,-784.29 837.12,-785.35"/>
<polygon fill="midnightblue" stroke="midnightblue" points="835.48,-788.46 845.79,-790.91 839.26,-782.56 835.48,-788.46"/>
</g>
<!-- Node16&#45;&gt;Node13 -->
<g id="edge28" class="edge">
<title>Node16&#45;&gt;Node13</title>
<path fill="none" stroke="midnightblue" d="M722.55,-570.67C737.38,-589.82 771.14,-634.05 797,-673 814.2,-698.91 809.27,-712.9 833,-733 834.5,-734.27 836.07,-735.48 837.7,-736.62"/>
<polygon fill="midnightblue" stroke="midnightblue" points="835.91,-739.63 846.27,-741.88 839.57,-733.66 835.91,-739.63"/>
</g>
<!-- Node16&#45;&gt;Node14 -->
<g id="edge29" class="edge">
<title>Node16&#45;&gt;Node14</title>
<path fill="none" stroke="midnightblue" d="M718.23,-551.22C729.2,-519.49 767.94,-418.18 833,-362 834.93,-360.33 836.99,-358.76 839.14,-357.29"/>
<polygon fill="midnightblue" stroke="midnightblue" points="841.04,-360.24 847.8,-352.08 837.42,-354.24 841.04,-360.24"/>
</g>
<!-- Node16&#45;&gt;Node16 -->
<g id="edge32" class="edge">
<title>Node16&#45;&gt;Node16</title>
<path fill="none" stroke="midnightblue" d="M686.26,-570.76C672.76,-579.57 682.01,-589 714,-589 735.99,-589 747.24,-584.54 747.73,-578.89"/>
<polygon fill="midnightblue" stroke="midnightblue" points="750.49,-576.73 741.74,-570.76 744.85,-580.88 750.49,-576.73"/>
</g>
<!-- Node17 -->
<g id="node17" class="node">
<title>Node17</title>
<g id="a_node17"><a target="_parent" xlink:href="https://doc.qt.io/qt-5/qbluetoothdeviceinfo.html#coreConfigurations" xlink:title=" ">
<polygon fill="none" stroke="black" points="833,-497 833,-527 957,-527 957,-497 833,-497"/>
<text text-anchor="start" x="841" y="-515" font-family="Helvetica,sans-Serif" font-size="10.00">QBluetoothDeviceInfo</text>
<text text-anchor="middle" x="895" y="-504" font-family="Helvetica,sans-Serif" font-size="10.00">::coreConfigurations</text>
</a>
</g>
</g>
<!-- Node16&#45;&gt;Node17 -->
<g id="edge19" class="edge">
<title>Node16&#45;&gt;Node17</title>
<path fill="none" stroke="midnightblue" d="M749.94,-551.44C772.5,-545.26 802.55,-537.04 829.36,-529.7"/>
<polygon fill="midnightblue" stroke="midnightblue" points="830.35,-533.05 839.07,-527.04 828.5,-526.3 830.35,-533.05"/>
</g>
<!-- Node18 -->
<g id="node18" class="node">
<title>Node18</title>
<g id="a_node18"><a target="_parent" xlink:href="https://doc.qt.io/qt-5/qbluetoothdeviceinfo.html#isCached" xlink:title=" ">
<polygon fill="none" stroke="black" points="833,-448 833,-478 957,-478 957,-448 833,-448"/>
<text text-anchor="start" x="841" y="-466" font-family="Helvetica,sans-Serif" font-size="10.00">QBluetoothDeviceInfo</text>
<text text-anchor="middle" x="895" y="-455" font-family="Helvetica,sans-Serif" font-size="10.00">::isCached</text>
</a>
</g>
</g>
<!-- Node16&#45;&gt;Node18 -->
<g id="edge21" class="edge">
<title>Node16&#45;&gt;Node18</title>
<path fill="none" stroke="midnightblue" d="M728.73,-551.46C750.3,-536.72 793.73,-508.02 833,-488 836.95,-485.99 841.1,-484.01 845.3,-482.11"/>
<polygon fill="midnightblue" stroke="midnightblue" points="846.77,-485.28 854.52,-478.06 843.95,-478.87 846.77,-485.28"/>
</g>
<!-- Node19 -->
<g id="node19" class="node">
<title>Node19</title>
<g id="a_node19"><a target="_parent" xlink:href="https://doc.qt.io/qt-5/qbytearray.html#isEmpty" xlink:title=" ">
<polygon fill="none" stroke="black" points="836,-409.5 836,-428.5 954,-428.5 954,-409.5 836,-409.5"/>
<text text-anchor="middle" x="895" y="-416.5" font-family="Helvetica,sans-Serif" font-size="10.00">QByteArray::isEmpty</text>
</a>
</g>
</g>
<!-- Node16&#45;&gt;Node19 -->
<g id="edge22" class="edge">
<title>Node16&#45;&gt;Node19</title>
<path fill="none" stroke="midnightblue" d="M721.8,-551.22C738.25,-528.29 782.55,-470.59 833,-439 837.04,-436.47 841.43,-434.23 845.94,-432.25"/>
<polygon fill="midnightblue" stroke="midnightblue" points="847.29,-435.48 855.3,-428.54 844.72,-428.97 847.29,-435.48"/>
</g>
<!-- Node20 -->
<g id="node20" class="node">
<title>Node20</title>
<g id="a_node20"><a target="_parent" xlink:href="https://doc.qt.io/qt-5/quuid.html#isNull" xlink:title=" ">
<polygon fill="none" stroke="black" points="855,-371.5 855,-390.5 935,-390.5 935,-371.5 855,-371.5"/>
<text text-anchor="middle" x="895" y="-378.5" font-family="Helvetica,sans-Serif" font-size="10.00">QUuid::isNull</text>
</a>
</g>
</g>
<!-- Node16&#45;&gt;Node20 -->
<g id="edge23" class="edge">
<title>Node16&#45;&gt;Node20</title>
<path fill="none" stroke="midnightblue" d="M719.32,-551.37C732.31,-523.54 773.78,-442.29 833,-400 836.76,-397.32 840.91,-395 845.22,-393.01"/>
<polygon fill="midnightblue" stroke="midnightblue" points="846.86,-396.12 854.83,-389.14 844.25,-389.63 846.86,-396.12"/>
</g>
<!-- Node21 -->
<g id="node21" class="node">
<title>Node21</title>
<g id="a_node21"><a target="_parent" xlink:href="https://doc.qt.io/qt-5/qbluetoothdeviceinfo.html#isValid" xlink:title=" ">
<polygon fill="none" stroke="black" points="833,-693 833,-723 957,-723 957,-693 833,-693"/>
<text text-anchor="start" x="841" y="-711" font-family="Helvetica,sans-Serif" font-size="10.00">QBluetoothDeviceInfo</text>
<text text-anchor="middle" x="895" y="-700" font-family="Helvetica,sans-Serif" font-size="10.00">::isValid</text>
</a>
</g>
</g>
<!-- Node16&#45;&gt;Node21 -->
<g id="edge24" class="edge">
<title>Node16&#45;&gt;Node21</title>
<path fill="none" stroke="midnightblue" d="M721.91,-570.67C738.58,-593.38 783.35,-650.72 833,-684 835.27,-685.52 837.65,-686.97 840.1,-688.34"/>
<polygon fill="midnightblue" stroke="midnightblue" points="838.71,-691.56 849.21,-693 841.9,-685.33 838.71,-691.56"/>
</g>
<!-- Node22 -->
<g id="node22" class="node">
<title>Node22</title>
<g id="a_node22"><a target="_parent" xlink:href="https://doc.qt.io/qt-5/qbluetoothdeviceinfo.html#manufacturerData" xlink:title=" ">
<polygon fill="none" stroke="black" points="833,-644 833,-674 957,-674 957,-644 833,-644"/>
<text text-anchor="start" x="841" y="-662" font-family="Helvetica,sans-Serif" font-size="10.00">QBluetoothDeviceInfo</text>
<text text-anchor="middle" x="895" y="-651" font-family="Helvetica,sans-Serif" font-size="10.00">::manufacturerData</text>
</a>
</g>
</g>
<!-- Node16&#45;&gt;Node22 -->
<g id="edge26" class="edge">
<title>Node16&#45;&gt;Node22</title>
<path fill="none" stroke="midnightblue" d="M728.33,-570.51C749.7,-585.49 793.28,-614.95 833,-635 836.29,-636.66 839.73,-638.29 843.22,-639.86"/>
<polygon fill="midnightblue" stroke="midnightblue" points="841.96,-643.13 852.53,-643.88 844.74,-636.7 841.96,-643.13"/>
</g>
<!-- Node23 -->
<g id="node23" class="node">
<title>Node23</title>
<g id="a_node23"><a target="_parent" xlink:href="https://doc.qt.io/qt-5/qbluetoothdeviceinfo.html#serviceClasses" xlink:title=" ">
<polygon fill="none" stroke="black" points="833,-595 833,-625 957,-625 957,-595 833,-595"/>
<text text-anchor="start" x="841" y="-613" font-family="Helvetica,sans-Serif" font-size="10.00">QBluetoothDeviceInfo</text>
<text text-anchor="middle" x="895" y="-602" font-family="Helvetica,sans-Serif" font-size="10.00">::serviceClasses</text>
</a>
</g>
</g>
<!-- Node16&#45;&gt;Node23 -->
<g id="edge30" class="edge">
<title>Node16&#45;&gt;Node23</title>
<path fill="none" stroke="midnightblue" d="M749.94,-570.56C772.5,-576.74 802.55,-584.96 829.36,-592.3"/>
<polygon fill="midnightblue" stroke="midnightblue" points="828.5,-595.7 839.07,-594.96 830.35,-588.95 828.5,-595.7"/>
</g>
<!-- Node24 -->
<g id="node24" class="node">
<title>Node24</title>
<g id="a_node24"><a target="_parent" xlink:href="https://doc.qt.io/qt-5/qbluetoothdeviceinfo.html#serviceUuids" xlink:title=" ">
<polygon fill="none" stroke="black" points="833,-546 833,-576 957,-576 957,-546 833,-546"/>
<text text-anchor="start" x="841" y="-564" font-family="Helvetica,sans-Serif" font-size="10.00">QBluetoothDeviceInfo</text>
<text text-anchor="middle" x="895" y="-553" font-family="Helvetica,sans-Serif" font-size="10.00">::serviceUuids</text>
</a>
</g>
</g>
<!-- Node16&#45;&gt;Node24 -->
<g id="edge31" class="edge">
<title>Node16&#45;&gt;Node24</title>
<path fill="none" stroke="midnightblue" d="M777.1,-561C791.79,-561 807.56,-561 822.62,-561"/>
<polygon fill="midnightblue" stroke="midnightblue" points="822.91,-564.5 832.91,-561 822.91,-557.5 822.91,-564.5"/>
</g>
<!-- Node16&#45;&gt;Node25 -->
<g id="edge33" class="edge">
<title>Node16&#45;&gt;Node25</title>
<path fill="none" stroke="midnightblue" d="M716.93,-551.45C724.72,-515.24 757.16,-384.77 833,-313 834.65,-311.43 836.42,-309.96 838.27,-308.57"/>
<polygon fill="midnightblue" stroke="midnightblue" points="840.34,-311.41 846.84,-303.04 836.54,-305.53 840.34,-311.41"/>
</g>
<!-- Node16&#45;&gt;Node26 -->
<g id="edge34" class="edge">
<title>Node16&#45;&gt;Node26</title>
<path fill="none" stroke="midnightblue" d="M715.91,-551.42C720.33,-510.49 743.07,-348.57 833,-264 835.28,-261.85 837.8,-259.94 840.47,-258.23"/>
<polygon fill="midnightblue" stroke="midnightblue" points="842.26,-261.24 849.43,-253.44 838.96,-255.07 842.26,-261.24"/>
</g>
<!-- Node28&#45;&gt;Node6 -->
<g id="edge39" class="edge">
<title>Node28&#45;&gt;Node6</title>
<path fill="none" stroke="midnightblue" d="M730.57,-133.54C752.71,-146.82 794.86,-171.05 833,-187 838.38,-189.25 844.11,-191.37 849.84,-193.33"/>
<polygon fill="midnightblue" stroke="midnightblue" points="848.8,-196.68 859.4,-196.46 850.98,-190.02 848.8,-196.68"/>
</g>
<!-- Node28&#45;&gt;Node29 -->
<g id="edge40" class="edge">
<title>Node28&#45;&gt;Node29</title>
<path fill="none" stroke="midnightblue" d="M763.91,-114.44C790.96,-109.15 824.29,-102.63 850.43,-97.52"/>
<polygon fill="midnightblue" stroke="midnightblue" points="851.29,-100.92 860.44,-95.56 849.95,-94.05 851.29,-100.92"/>
</g>
</g>
</svg>
