<?xml version="1.0" encoding="UTF-8" standalone="no"?>
<!DOCTYPE svg PUBLIC "-//W3C//DTD SVG 1.1//EN"
 "http://www.w3.org/Graphics/SVG/1.1/DTD/svg11.dtd">
<!-- Generated by graphviz version 2.43.0 (0)
 -->
<!-- Title: MultimeterService::toString Pages: 1 -->
<svg width="624pt" height="88pt"
 viewBox="0.00 0.00 624.00 88.00" xmlns="http://www.w3.org/2000/svg" xmlns:xlink="http://www.w3.org/1999/xlink">
<g id="graph0" class="graph" transform="scale(1 1) rotate(0) translate(4 84)">
<title>MultimeterService::toString</title>
<!-- Node1 -->
<g id="node1" class="node">
<title>Node1</title>
<g id="a_node1"><a xlink:title="Returns mode as a user&#45;friendly string.">
<polygon fill="#bfbfbf" stroke="black" points="503,-24.5 503,-54.5 616,-54.5 616,-24.5 503,-24.5"/>
<text text-anchor="start" x="511" y="-42.5" font-family="Helvetica,sans-Serif" font-size="10.00">MultimeterService::</text>
<text text-anchor="middle" x="559.5" y="-31.5" font-family="Helvetica,sans-Serif" font-size="10.00">toString</text>
</a>
</g>
</g>
<!-- Node2 -->
<g id="node2" class="node">
<title>Node2</title>
<g id="a_node2"><a xlink:href="classMultimeterCommand.html#a98e7c6c3cdab141604fe48aa72162175" target="_top" xlink:title="Outputs meter reading in the selected ouput format.">
<polygon fill="none" stroke="black" points="333,-49.5 333,-79.5 460,-79.5 460,-49.5 333,-49.5"/>
<text text-anchor="start" x="341" y="-67.5" font-family="Helvetica,sans-Serif" font-size="10.00">MultimeterCommand::</text>
<text text-anchor="middle" x="396.5" y="-56.5" font-family="Helvetica,sans-Serif" font-size="10.00">outputReading</text>
</a>
</g>
</g>
<!-- Node1&#45;&gt;Node2 -->
<g id="edge1" class="edge">
<title>Node1&#45;&gt;Node2</title>
<path fill="none" stroke="midnightblue" d="M492.52,-49.75C481.82,-51.41 470.76,-53.12 460.15,-54.77"/>
<polygon fill="midnightblue" stroke="midnightblue" points="493.3,-53.17 502.64,-48.17 492.22,-46.25 493.3,-53.17"/>
</g>
<!-- Node5 -->
<g id="node5" class="node">
<title>Node5</title>
<g id="a_node5"><a xlink:href="classMultimeterCommand.html#ab5fe0af3f386789d6cf89487e587b767" target="_top" xlink:title="Handles service detail discovery events.">
<polygon fill="none" stroke="black" points="326,-0.5 326,-30.5 467,-30.5 467,-0.5 326,-0.5"/>
<text text-anchor="start" x="334" y="-18.5" font-family="Helvetica,sans-Serif" font-size="10.00">MultimeterCommand::</text>
<text text-anchor="middle" x="396.5" y="-7.5" font-family="Helvetica,sans-Serif" font-size="10.00">serviceDetailsDiscovered</text>
</a>
</g>
</g>
<!-- Node1&#45;&gt;Node5 -->
<g id="edge4" class="edge">
<title>Node1&#45;&gt;Node5</title>
<path fill="none" stroke="midnightblue" d="M492.56,-29.67C484.18,-28.42 475.59,-27.14 467.16,-25.88"/>
<polygon fill="midnightblue" stroke="midnightblue" points="492.24,-33.16 502.64,-31.17 493.27,-26.24 492.24,-33.16"/>
</g>
<!-- Node3 -->
<g id="node3" class="node">
<title>Node3</title>
<g id="a_node3"><a xlink:href="classMultimeterCommand.html#a683a039618a2750b032c5de7f0d3eeee" target="_top" xlink:title="Invoked when the multimeter settings have been written, to begin reading the meter values.">
<polygon fill="none" stroke="black" points="163,-49.5 163,-79.5 290,-79.5 290,-49.5 163,-49.5"/>
<text text-anchor="start" x="171" y="-67.5" font-family="Helvetica,sans-Serif" font-size="10.00">MultimeterCommand::</text>
<text text-anchor="middle" x="226.5" y="-56.5" font-family="Helvetica,sans-Serif" font-size="10.00">settingsWritten</text>
</a>
</g>
</g>
<!-- Node2&#45;&gt;Node3 -->
<g id="edge2" class="edge">
<title>Node2&#45;&gt;Node3</title>
<path fill="none" stroke="midnightblue" d="M322.65,-64.5C311.81,-64.5 300.72,-64.5 290.11,-64.5"/>
<polygon fill="midnightblue" stroke="midnightblue" points="322.94,-68 332.94,-64.5 322.94,-61 322.94,-68"/>
</g>
<!-- Node4 -->
<g id="node4" class="node">
<title>Node4</title>
<g id="a_node4"><a xlink:href="classMultimeterCommand.html#a8f76fdaec093abb2aae454bc7e5a8993" target="_top" xlink:title="Returns a Pokit service object for the derived command class.">
<polygon fill="none" stroke="black" points="0,-49.5 0,-79.5 127,-79.5 127,-49.5 0,-49.5"/>
<text text-anchor="start" x="8" y="-67.5" font-family="Helvetica,sans-Serif" font-size="10.00">MultimeterCommand::</text>
<text text-anchor="middle" x="63.5" y="-56.5" font-family="Helvetica,sans-Serif" font-size="10.00">getService</text>
</a>
</g>
</g>
<!-- Node3&#45;&gt;Node4 -->
<g id="edge3" class="edge">
<title>Node3&#45;&gt;Node4</title>
<path fill="none" stroke="midnightblue" d="M152.78,-64.5C144.19,-64.5 135.47,-64.5 127.04,-64.5"/>
<polygon fill="midnightblue" stroke="midnightblue" points="152.79,-68 162.79,-64.5 152.79,-61 152.79,-68"/>
</g>
</g>
</svg>
