<?xml version="1.0" encoding="UTF-8" standalone="no"?>
<!DOCTYPE svg PUBLIC "-//W3C//DTD SVG 1.1//EN"
 "http://www.w3.org/Graphics/SVG/1.1/DTD/svg11.dtd">
<!-- Generated by graphviz version 2.43.0 (0)
 -->
<!-- Title: LoggerStartCommand::serviceDetailsDiscovered Pages: 1 -->
<svg width="548pt" height="313pt"
 viewBox="0.00 0.00 548.00 312.50" xmlns="http://www.w3.org/2000/svg" xmlns:xlink="http://www.w3.org/1999/xlink">
<g id="graph0" class="graph" transform="scale(1 1) rotate(0) translate(4 308.5)">
<title>LoggerStartCommand::serviceDetailsDiscovered</title>
<!-- Node1 -->
<g id="node1" class="node">
<title>Node1</title>
<g id="a_node1"><a xlink:title="Handles service detail discovery events.">
<polygon fill="#bfbfbf" stroke="black" points="0,-159.5 0,-189.5 147,-189.5 147,-159.5 0,-159.5"/>
<text text-anchor="start" x="8" y="-177.5" font-family="Helvetica,sans-Serif" font-size="10.00">LoggerStartCommand</text>
<text text-anchor="middle" x="73.5" y="-166.5" font-family="Helvetica,sans-Serif" font-size="10.00">::serviceDetailsDiscovered</text>
</a>
</g>
</g>
<!-- Node2 -->
<g id="node2" class="node">
<title>Node2</title>
<g id="a_node2"><a target="_parent" xlink:href="https://doc.qt.io/qt-5/qstring.html#arg-11" xlink:title=" ">
<polygon fill="none" stroke="black" points="234,-285 234,-304 308,-304 308,-285 234,-285"/>
<text text-anchor="middle" x="271" y="-292" font-family="Helvetica,sans-Serif" font-size="10.00">QString::arg</text>
</a>
</g>
</g>
<!-- Node1&#45;&gt;Node2 -->
<g id="edge1" class="edge">
<title>Node1&#45;&gt;Node2</title>
<path fill="none" stroke="midnightblue" d="M86.36,-189.86C104.58,-212.35 141.73,-253.89 183,-275.5 195.44,-282.01 210.01,-286.3 223.63,-289.11"/>
<polygon fill="midnightblue" stroke="midnightblue" points="223.33,-292.62 233.8,-290.99 224.61,-285.74 223.33,-292.62"/>
</g>
<!-- Node3 -->
<g id="node3" class="node">
<title>Node3</title>
<g id="a_node3"><a target="_parent" xlink:href="https://doc.qt.io/qt-5/qstring.html#fromLatin1" xlink:title=" ">
<polygon fill="none" stroke="black" points="215,-247 215,-266 327,-266 327,-247 215,-247"/>
<text text-anchor="middle" x="271" y="-254" font-family="Helvetica,sans-Serif" font-size="10.00">QString::fromLatin1</text>
</a>
</g>
</g>
<!-- Node1&#45;&gt;Node3 -->
<g id="edge2" class="edge">
<title>Node1&#45;&gt;Node3</title>
<path fill="none" stroke="midnightblue" d="M95.92,-189.65C117.11,-203.96 150.92,-225.04 183,-237.5 190.01,-240.22 197.51,-242.6 205.04,-244.66"/>
<polygon fill="midnightblue" stroke="midnightblue" points="204.38,-248.1 214.93,-247.19 206.11,-241.32 204.38,-248.1"/>
</g>
<!-- Node4 -->
<g id="node4" class="node">
<title>Node4</title>
<g id="a_node4"><a target="_parent" xlink:href="https://doc.qt.io/qt-5/qstring.html#isNull" xlink:title=" ">
<polygon fill="none" stroke="black" points="228,-209 228,-228 314,-228 314,-209 228,-209"/>
<text text-anchor="middle" x="271" y="-216" font-family="Helvetica,sans-Serif" font-size="10.00">QString::isNull</text>
</a>
</g>
</g>
<!-- Node1&#45;&gt;Node4 -->
<g id="edge3" class="edge">
<title>Node1&#45;&gt;Node4</title>
<path fill="none" stroke="midnightblue" d="M139.3,-189.56C153.68,-192.87 168.85,-196.33 183,-199.5 194.32,-202.04 206.47,-204.72 218,-207.25"/>
<polygon fill="midnightblue" stroke="midnightblue" points="217.42,-210.7 227.94,-209.42 218.92,-203.86 217.42,-210.7"/>
</g>
<!-- Node5 -->
<g id="node5" class="node">
<title>Node5</title>
<g id="a_node5"><a xlink:href="classDeviceCommand.html#a906fd97d832be0e8d2ba1c917fba41db" target="_top" xlink:title="Handles service detail discovery events.">
<polygon fill="none" stroke="black" points="183,-159.5 183,-189.5 359,-189.5 359,-159.5 183,-159.5"/>
<text text-anchor="start" x="191" y="-177.5" font-family="Helvetica,sans-Serif" font-size="10.00">DeviceCommand::serviceDetails</text>
<text text-anchor="middle" x="271" y="-166.5" font-family="Helvetica,sans-Serif" font-size="10.00">Discovered</text>
</a>
</g>
</g>
<!-- Node1&#45;&gt;Node5 -->
<g id="edge4" class="edge">
<title>Node1&#45;&gt;Node5</title>
<path fill="none" stroke="midnightblue" d="M147.02,-174.5C155.38,-174.5 164,-174.5 172.62,-174.5"/>
<polygon fill="midnightblue" stroke="midnightblue" points="172.71,-178 182.71,-174.5 172.71,-171 172.71,-178"/>
</g>
<!-- Node6 -->
<g id="node6" class="node">
<title>Node6</title>
<g id="a_node6"><a target="_parent" xlink:href="https://doc.qt.io/qt-5/qobject.html#tr" xlink:title=" ">
<polygon fill="none" stroke="black" points="433,-121 433,-140 502,-140 502,-121 433,-121"/>
<text text-anchor="middle" x="467.5" y="-128" font-family="Helvetica,sans-Serif" font-size="10.00">QObject::tr</text>
</a>
</g>
</g>
<!-- Node1&#45;&gt;Node6 -->
<g id="edge11" class="edge">
<title>Node1&#45;&gt;Node6</title>
<path fill="none" stroke="midnightblue" d="M135.04,-159.46C150.59,-156.05 167.34,-152.77 183,-150.5 267.18,-138.29 366.54,-133.45 422.47,-131.6"/>
<polygon fill="midnightblue" stroke="midnightblue" points="422.84,-135.09 432.72,-131.28 422.62,-128.09 422.84,-135.09"/>
</g>
<!-- Node7 -->
<g id="node7" class="node">
<title>Node7</title>
<g id="a_node7"><a xlink:href="classDataLoggerService.html#a3b933a1a161a390eb08e5019685f449c" target="_top" xlink:title="Configures the Pokit device&#39;s data logger mode.">
<polygon fill="none" stroke="black" points="213.5,-22.5 213.5,-52.5 328.5,-52.5 328.5,-22.5 213.5,-22.5"/>
<text text-anchor="start" x="221.5" y="-40.5" font-family="Helvetica,sans-Serif" font-size="10.00">DataLoggerService::</text>
<text text-anchor="middle" x="271" y="-29.5" font-family="Helvetica,sans-Serif" font-size="10.00">setSettings</text>
</a>
</g>
</g>
<!-- Node1&#45;&gt;Node7 -->
<g id="edge6" class="edge">
<title>Node1&#45;&gt;Node7</title>
<path fill="none" stroke="midnightblue" d="M85,-159.38C102.52,-135.29 140.06,-88.27 183,-62.5 189.39,-58.66 196.4,-55.39 203.58,-52.6"/>
<polygon fill="midnightblue" stroke="midnightblue" points="205.19,-55.75 213.44,-49.1 202.84,-49.15 205.19,-55.75"/>
</g>
<!-- Node10 -->
<g id="node10" class="node">
<title>Node10</title>
<g id="a_node10"><a xlink:href="classDataLoggerService.html#a4c696b7500e666959bbec4b0ed677d5d" target="_top" xlink:title="Returns mode as a user&#45;friendly string.">
<polygon fill="none" stroke="black" points="213.5,-71.5 213.5,-101.5 328.5,-101.5 328.5,-71.5 213.5,-71.5"/>
<text text-anchor="start" x="221.5" y="-89.5" font-family="Helvetica,sans-Serif" font-size="10.00">DataLoggerService::</text>
<text text-anchor="middle" x="271" y="-78.5" font-family="Helvetica,sans-Serif" font-size="10.00">toString</text>
</a>
</g>
</g>
<!-- Node1&#45;&gt;Node10 -->
<g id="edge9" class="edge">
<title>Node1&#45;&gt;Node10</title>
<path fill="none" stroke="midnightblue" d="M99.8,-159.49C121.43,-147.02 153.64,-129.31 183,-116.5 192.43,-112.38 202.63,-108.44 212.6,-104.84"/>
<polygon fill="midnightblue" stroke="midnightblue" points="213.8,-108.13 222.07,-101.5 211.47,-101.53 213.8,-108.13"/>
</g>
<!-- Node5&#45;&gt;Node6 -->
<g id="edge5" class="edge">
<title>Node5&#45;&gt;Node6</title>
<path fill="none" stroke="midnightblue" d="M338.39,-159.48C366.34,-153.16 398.09,-145.98 422.99,-140.34"/>
<polygon fill="midnightblue" stroke="midnightblue" points="423.88,-143.73 432.86,-138.11 422.34,-136.9 423.88,-143.73"/>
</g>
<!-- Node8 -->
<g id="node8" class="node">
<title>Node8</title>
<g id="a_node8"><a target="_parent" xlink:href="https://doc.qt.io/qt-5/qbytearray.html#isNull" xlink:title=" ">
<polygon fill="none" stroke="black" points="414.5,-50 414.5,-69 520.5,-69 520.5,-50 414.5,-50"/>
<text text-anchor="middle" x="467.5" y="-57" font-family="Helvetica,sans-Serif" font-size="10.00">QByteArray::isNull</text>
</a>
</g>
</g>
<!-- Node7&#45;&gt;Node8 -->
<g id="edge7" class="edge">
<title>Node7&#45;&gt;Node8</title>
<path fill="none" stroke="midnightblue" d="M328.52,-43.89C352.17,-46.57 379.75,-49.69 404,-52.43"/>
<polygon fill="midnightblue" stroke="midnightblue" points="403.84,-55.93 414.17,-53.58 404.63,-48.98 403.84,-55.93"/>
</g>
<!-- Node9 -->
<g id="node9" class="node">
<title>Node9</title>
<g id="a_node9"><a target="_parent" xlink:href="https://doc.qt.io/qt-5/qlowenergycharacteristic.html#isValid" xlink:title=" ">
<polygon fill="none" stroke="black" points="395,-0.5 395,-30.5 540,-30.5 540,-0.5 395,-0.5"/>
<text text-anchor="start" x="403" y="-18.5" font-family="Helvetica,sans-Serif" font-size="10.00">QLowEnergyCharacteristic</text>
<text text-anchor="middle" x="467.5" y="-7.5" font-family="Helvetica,sans-Serif" font-size="10.00">::isValid</text>
</a>
</g>
</g>
<!-- Node7&#45;&gt;Node9 -->
<g id="edge8" class="edge">
<title>Node7&#45;&gt;Node9</title>
<path fill="none" stroke="midnightblue" d="M328.52,-31.11C346.11,-29.12 365.87,-26.88 384.81,-24.74"/>
<polygon fill="midnightblue" stroke="midnightblue" points="385.39,-28.2 394.94,-23.59 384.61,-21.24 385.39,-28.2"/>
</g>
<!-- Node10&#45;&gt;Node6 -->
<g id="edge10" class="edge">
<title>Node10&#45;&gt;Node6</title>
<path fill="none" stroke="midnightblue" d="M328.52,-99.29C358.69,-106.11 395.24,-114.38 423.14,-120.69"/>
<polygon fill="midnightblue" stroke="midnightblue" points="422.47,-124.13 433,-122.92 424.02,-117.3 422.47,-124.13"/>
</g>
</g>
</svg>
