<?xml version="1.0" encoding="UTF-8" standalone="no"?>
<!DOCTYPE svg PUBLIC "-//W3C//DTD SVG 1.1//EN"
 "http://www.w3.org/Graphics/SVG/1.1/DTD/svg11.dtd">
<!-- Generated by graphviz version 2.43.0 (0)
 -->
<!-- Title: LoggerStopCommand Pages: 1 -->
<svg width="1233pt" height="698pt"
 viewBox="0.00 0.00 1233.00 698.00" xmlns="http://www.w3.org/2000/svg" xmlns:xlink="http://www.w3.org/1999/xlink">
<g id="graph0" class="graph" transform="scale(1 1) rotate(0) translate(4 694)">
<title>LoggerStopCommand</title>
<!-- Node1 -->
<g id="node1" class="node">
<title>Node1</title>
<g id="a_node1"><a xlink:title="The LoggerStopCommand class implements the logger stop CLI command.">
<polygon fill="#999999" stroke="#666666" points="1225,-498 1103,-498 1103,-479 1225,-479 1225,-498"/>
<text text-anchor="middle" x="1164" y="-486" font-family="Helvetica,sans-Serif" font-size="10.00">LoggerStopCommand</text>
</a>
</g>
</g>
<!-- Node2 -->
<g id="node2" class="node">
<title>Node2</title>
<g id="a_node2"><a xlink:href="classDeviceCommand.html" target="_top" xlink:title="The AbstractCommand class extends AbstractCommand to add a PokitDevice instance.">
<polygon fill="white" stroke="#666666" points="954.5,-581 853.5,-581 853.5,-562 954.5,-562 954.5,-581"/>
<text text-anchor="middle" x="904" y="-569" font-family="Helvetica,sans-Serif" font-size="10.00">DeviceCommand</text>
</a>
</g>
</g>
<!-- Node2&#45;&gt;Node1 -->
<g id="edge1" class="edge">
<title>Node2&#45;&gt;Node1</title>
<path fill="none" stroke="#63b8ff" d="M965.18,-570.6C1001.11,-568.26 1047,-562.06 1085,-546.5 1112.8,-535.12 1139.65,-511.52 1153.43,-498.2"/>
<polygon fill="#63b8ff" stroke="#63b8ff" points="964.63,-567.12 954.85,-571.18 965.03,-574.11 964.63,-567.12"/>
</g>
<!-- Node3 -->
<g id="node3" class="node">
<title>Node3</title>
<g id="a_node3"><a xlink:href="classAbstractCommand.html" target="_top" xlink:title="The AbstractCommand class provides a consistent base for the classes that implement CLI commands.">
<polygon fill="white" stroke="#666666" points="747,-639 640,-639 640,-620 747,-620 747,-639"/>
<text text-anchor="middle" x="693.5" y="-627" font-family="Helvetica,sans-Serif" font-size="10.00">AbstractCommand</text>
</a>
</g>
</g>
<!-- Node3&#45;&gt;Node2 -->
<g id="edge2" class="edge">
<title>Node3&#45;&gt;Node2</title>
<path fill="none" stroke="#63b8ff" d="M738.89,-617.15C777.62,-606.38 833.04,-590.96 868.52,-581.09"/>
<polygon fill="#63b8ff" stroke="#63b8ff" points="737.63,-613.87 728.93,-619.92 739.5,-620.61 737.63,-613.87"/>
</g>
<!-- Node4 -->
<g id="node4" class="node">
<title>Node4</title>
<g id="a_node4"><a target="_parent" xlink:href="https://doc.qt.io/qt-5/qobject.html" xlink:title=" ">
<polygon fill="white" stroke="#bfbfbf" points="56,-449 0,-449 0,-430 56,-430 56,-449"/>
<text text-anchor="middle" x="28" y="-437" font-family="Helvetica,sans-Serif" font-size="10.00">QObject</text>
</a>
</g>
</g>
<!-- Node4&#45;&gt;Node3 -->
<g id="edge3" class="edge">
<title>Node4&#45;&gt;Node3</title>
<path fill="none" stroke="#63b8ff" d="M31.28,-459.05C36.2,-491.35 50.97,-555.32 93,-585.5 179.68,-647.74 510.43,-638.62 640,-632.43"/>
<polygon fill="#63b8ff" stroke="#63b8ff" points="34.74,-458.48 29.93,-449.05 27.8,-459.42 34.74,-458.48"/>
</g>
<!-- Node7 -->
<g id="node7" class="node">
<title>Node7</title>
<g id="a_node7"><a target="_parent" xlink:href="https://doc.qt.io/qt-5/qbluetoothdevicediscoveryagent.html" xlink:title=" ">
<polygon fill="white" stroke="#bfbfbf" points="247,-576.5 93,-576.5 93,-546.5 247,-546.5 247,-576.5"/>
<text text-anchor="start" x="101" y="-564.5" font-family="Helvetica,sans-Serif" font-size="10.00">QBluetoothDeviceDiscovery</text>
<text text-anchor="middle" x="170" y="-553.5" font-family="Helvetica,sans-Serif" font-size="10.00">Agent</text>
</a>
</g>
</g>
<!-- Node4&#45;&gt;Node7 -->
<g id="edge7" class="edge">
<title>Node4&#45;&gt;Node7</title>
<path fill="none" stroke="#63b8ff" d="M33.93,-458.88C40.06,-479.2 52.44,-510.74 74,-529.5 82.14,-536.58 91.91,-542.11 102.04,-546.42"/>
<polygon fill="#63b8ff" stroke="#63b8ff" points="37.27,-457.84 31.21,-449.15 30.53,-459.72 37.27,-457.84"/>
</g>
<!-- Node8 -->
<g id="node8" class="node">
<title>Node8</title>
<g id="a_node8"><a xlink:href="classPokitDiscoveryAgentPrivate.html" target="_top" xlink:title="The PokitDiscoveryAgentPrivate class provides private implementation for PokitDiscoveryAgent.">
<polygon fill="white" stroke="#666666" points="770,-558 617,-558 617,-539 770,-539 770,-558"/>
<text text-anchor="middle" x="693.5" y="-546" font-family="Helvetica,sans-Serif" font-size="10.00">PokitDiscoveryAgentPrivate</text>
</a>
</g>
</g>
<!-- Node4&#45;&gt;Node8 -->
<g id="edge9" class="edge">
<title>Node4&#45;&gt;Node8</title>
<path fill="none" stroke="#63b8ff" d="M47.83,-455.73C59.92,-465.19 76.41,-476.43 93,-482.5 99.11,-484.73 457.08,-523.28 616.88,-540.41"/>
<polygon fill="#63b8ff" stroke="#63b8ff" points="49.83,-452.85 39.87,-449.25 45.41,-458.27 49.83,-452.85"/>
</g>
<!-- Node9 -->
<g id="node9" class="node">
<title>Node9</title>
<g id="a_node9"><a xlink:href="classPokitDevice.html" target="_top" xlink:title="The PokitDevice class simplifies Pokit device access.">
<polygon fill="white" stroke="#666666" points="731,-508 656,-508 656,-489 731,-489 731,-508"/>
<text text-anchor="middle" x="693.5" y="-496" font-family="Helvetica,sans-Serif" font-size="10.00">PokitDevice</text>
</a>
</g>
</g>
<!-- Node4&#45;&gt;Node9 -->
<g id="edge12" class="edge">
<title>Node4&#45;&gt;Node9</title>
<path fill="none" stroke="#63b8ff" d="M66,-451.74C68.69,-452.41 71.38,-453 74,-453.5 291.91,-494.76 559.61,-498.76 655.87,-498.74"/>
<polygon fill="#63b8ff" stroke="#63b8ff" points="66.92,-448.36 56.35,-449.1 65.08,-455.12 66.92,-448.36"/>
</g>
<!-- Node10 -->
<g id="node10" class="node">
<title>Node10</title>
<g id="a_node10"><a xlink:href="classPokitDevicePrivate.html" target="_top" xlink:title="The PokitDevicePrivate class provides private implementation for PokitDevice.">
<polygon fill="white" stroke="#666666" points="1219,-295 1109,-295 1109,-276 1219,-276 1219,-295"/>
<text text-anchor="middle" x="1164" y="-283" font-family="Helvetica,sans-Serif" font-size="10.00">PokitDevicePrivate</text>
</a>
</g>
</g>
<!-- Node4&#45;&gt;Node10 -->
<g id="edge14" class="edge">
<title>Node4&#45;&gt;Node10</title>
<path fill="none" stroke="#63b8ff" d="M66.31,-439.5C94.52,-439.5 134.19,-439.5 169,-439.5 169,-439.5 169,-439.5 905,-439.5 985.24,-439.5 1017.45,-468.8 1085,-425.5 1133.72,-394.27 1154.76,-321.37 1160.94,-295.13"/>
<polygon fill="#63b8ff" stroke="#63b8ff" points="66.1,-436 56.1,-439.5 66.1,-443 66.1,-436"/>
</g>
<!-- Node11 -->
<g id="node11" class="node">
<title>Node11</title>
<g id="a_node11"><a target="_parent" xlink:href="https://doc.qt.io/qt-5/qlowenergycontroller.html" xlink:title=" ">
<polygon fill="white" stroke="#bfbfbf" points="232.5,-411 107.5,-411 107.5,-392 232.5,-392 232.5,-411"/>
<text text-anchor="middle" x="170" y="-399" font-family="Helvetica,sans-Serif" font-size="10.00">QLowEnergyController</text>
</a>
</g>
</g>
<!-- Node4&#45;&gt;Node11 -->
<g id="edge16" class="edge">
<title>Node4&#45;&gt;Node11</title>
<path fill="none" stroke="#63b8ff" d="M65.9,-427.84C68.64,-427.03 71.36,-426.24 74,-425.5 92.01,-420.43 112.08,-415.28 129.12,-411.06"/>
<polygon fill="#63b8ff" stroke="#63b8ff" points="64.61,-424.58 56.06,-430.82 66.64,-431.28 64.61,-424.58"/>
</g>
<!-- Node13 -->
<g id="node13" class="node">
<title>Node13</title>
<g id="a_node13"><a xlink:href="classAbstractPokitService.html" target="_top" xlink:title="The AbstractPokitService class provides a common base for Pokit services classes.">
<polygon fill="white" stroke="#666666" points="752.5,-251 634.5,-251 634.5,-232 752.5,-232 752.5,-251"/>
<text text-anchor="middle" x="693.5" y="-239" font-family="Helvetica,sans-Serif" font-size="10.00">AbstractPokitService</text>
</a>
</g>
</g>
<!-- Node4&#45;&gt;Node13 -->
<g id="edge19" class="edge">
<title>Node4&#45;&gt;Node13</title>
<path fill="none" stroke="#63b8ff" d="M31.35,-419.9C36.35,-387.46 51.25,-323.07 93,-291.5 243.56,-177.65 325.65,-247.97 514,-235.5 554.07,-232.85 599.27,-234.41 634.17,-236.61"/>
<polygon fill="#63b8ff" stroke="#63b8ff" points="27.86,-419.55 29.96,-429.93 34.79,-420.51 27.86,-419.55"/>
</g>
<!-- Node14 -->
<g id="node14" class="node">
<title>Node14</title>
<g id="a_node14"><a xlink:href="classAbstractPokitServicePrivate.html" target="_top" xlink:title="The AbstractPokitServicePrivate class provides private implementation for AbstractPokitService.">
<polygon fill="white" stroke="#666666" points="496,-322 344,-322 344,-303 496,-303 496,-322"/>
<text text-anchor="middle" x="420" y="-310" font-family="Helvetica,sans-Serif" font-size="10.00">AbstractPokitServicePrivate</text>
</a>
</g>
</g>
<!-- Node4&#45;&gt;Node14 -->
<g id="edge21" class="edge">
<title>Node4&#45;&gt;Node14</title>
<path fill="none" stroke="#63b8ff" d="M43.97,-421.98C55.94,-409.11 73.84,-392.22 93,-382.5 117.29,-370.17 282.14,-338.12 367.69,-322.02"/>
<polygon fill="#63b8ff" stroke="#63b8ff" points="41.07,-419.97 37,-429.75 46.28,-424.64 41.07,-419.97"/>
</g>
<!-- Node15 -->
<g id="node15" class="node">
<title>Node15</title>
<g id="a_node15"><a target="_parent" xlink:href="https://doc.qt.io/qt-5/qlowenergyservice.html" xlink:title=" ">
<polygon fill="white" stroke="#bfbfbf" points="226.5,-320 113.5,-320 113.5,-301 226.5,-301 226.5,-320"/>
<text text-anchor="middle" x="170" y="-308" font-family="Helvetica,sans-Serif" font-size="10.00">QLowEnergyService</text>
</a>
</g>
</g>
<!-- Node4&#45;&gt;Node15 -->
<g id="edge24" class="edge">
<title>Node4&#45;&gt;Node15</title>
<path fill="none" stroke="#63b8ff" d="M33,-420.01C38.52,-397.95 50.56,-362.38 74,-341.5 85.27,-331.46 99.85,-324.66 114.19,-320.06"/>
<polygon fill="#63b8ff" stroke="#63b8ff" points="29.56,-419.37 30.74,-429.9 36.38,-420.93 29.56,-419.37"/>
</g>
<!-- Node5 -->
<g id="node5" class="node">
<title>Node5</title>
<g id="a_node5"><a target="_parent" xlink:href="https://doc.qt.io/qt-5/qstring.html" xlink:title=" ">
<polygon fill="white" stroke="#bfbfbf" points="446.5,-690 393.5,-690 393.5,-671 446.5,-671 446.5,-690"/>
<text text-anchor="middle" x="420" y="-678" font-family="Helvetica,sans-Serif" font-size="10.00">QString</text>
</a>
</g>
</g>
<!-- Node5&#45;&gt;Node3 -->
<g id="edge4" class="edge">
<title>Node5&#45;&gt;Node3</title>
<path fill="none" stroke="#9a32cd" stroke-dasharray="5,2" d="M456.6,-677.26C492.72,-673.6 550.12,-666.79 599,-656.5 620.99,-651.87 645.37,-644.76 663.72,-639"/>
<polygon fill="#9a32cd" stroke="#9a32cd" points="456.16,-673.78 446.55,-678.25 456.85,-680.75 456.16,-673.78"/>
<text text-anchor="middle" x="556.5" y="-672.5" font-family="Helvetica,sans-Serif" font-size="10.00"> deviceToScanFor</text>
</g>
<!-- Node6 -->
<g id="node6" class="node">
<title>Node6</title>
<g id="a_node6"><a xlink:href="classPokitDiscoveryAgent.html" target="_top" xlink:title="The PokitDiscoveryAgent class discovers nearby Pokit devices.">
<polygon fill="white" stroke="#666666" points="479.5,-589 360.5,-589 360.5,-570 479.5,-570 479.5,-589"/>
<text text-anchor="middle" x="420" y="-577" font-family="Helvetica,sans-Serif" font-size="10.00">PokitDiscoveryAgent</text>
</a>
</g>
</g>
<!-- Node6&#45;&gt;Node3 -->
<g id="edge5" class="edge">
<title>Node6&#45;&gt;Node3</title>
<path fill="none" stroke="#9a32cd" stroke-dasharray="5,2" d="M482.59,-590.84C530.25,-599.62 595.49,-611.63 640.52,-619.93"/>
<polygon fill="#9a32cd" stroke="#9a32cd" points="483.17,-587.39 472.71,-589.02 481.91,-594.28 483.17,-587.39"/>
<text text-anchor="middle" x="556.5" y="-615.5" font-family="Helvetica,sans-Serif" font-size="10.00"> discoveryAgent</text>
</g>
<!-- Node6&#45;&gt;Node8 -->
<g id="edge10" class="edge">
<title>Node6&#45;&gt;Node8</title>
<path fill="none" stroke="#9a32cd" stroke-dasharray="5,2" d="M451.58,-566.1C469.41,-559.03 492.54,-551.09 514,-547.5 547.47,-541.9 584.96,-541.28 616.92,-542.39"/>
<polygon fill="#9a32cd" stroke="#9a32cd" points="450.2,-562.89 442.27,-569.91 452.85,-569.37 450.2,-562.89"/>
<text text-anchor="middle" x="556.5" y="-550.5" font-family="Helvetica,sans-Serif" font-size="10.00"> q_ptr</text>
</g>
<!-- Node7&#45;&gt;Node6 -->
<g id="edge6" class="edge">
<title>Node7&#45;&gt;Node6</title>
<path fill="none" stroke="#63b8ff" d="M257.5,-567.78C291.52,-570.25 329.7,-573.02 360.38,-575.25"/>
<polygon fill="#63b8ff" stroke="#63b8ff" points="257.32,-564.26 247.09,-567.02 256.81,-571.24 257.32,-564.26"/>
</g>
<!-- Node8&#45;&gt;Node6 -->
<g id="edge8" class="edge">
<title>Node8&#45;&gt;Node6</title>
<path fill="none" stroke="#9a32cd" stroke-dasharray="5,2" d="M609.48,-559.25C605.94,-559.68 602.44,-560.1 599,-560.5 559.18,-565.18 514.3,-569.97 479.56,-573.57"/>
<polygon fill="#9a32cd" stroke="#9a32cd" points="610.03,-562.71 619.53,-558.02 609.18,-555.76 610.03,-562.71"/>
<text text-anchor="middle" x="556.5" y="-573.5" font-family="Helvetica,sans-Serif" font-size="10.00"> d_ptr</text>
</g>
<!-- Node9&#45;&gt;Node2 -->
<g id="edge11" class="edge">
<title>Node9&#45;&gt;Node2</title>
<path fill="none" stroke="#9a32cd" stroke-dasharray="5,2" d="M734.15,-511.61C746.13,-516.4 759.01,-522.41 770,-529.5 779.25,-535.47 778.27,-541.37 788,-546.5 808.06,-557.08 832.34,-563.19 853.42,-566.71"/>
<polygon fill="#9a32cd" stroke="#9a32cd" points="735.38,-508.34 724.79,-508.04 732.88,-514.88 735.38,-508.34"/>
<text text-anchor="middle" x="806" y="-563.5" font-family="Helvetica,sans-Serif" font-size="10.00"> device</text>
</g>
<!-- Node9&#45;&gt;Node10 -->
<g id="edge48" class="edge">
<title>Node9&#45;&gt;Node10</title>
<path fill="none" stroke="#9a32cd" stroke-dasharray="5,2" d="M733.4,-510.94C810.72,-533 984.87,-568.99 1085,-482.5 1144.85,-430.8 1159.19,-326.99 1162.24,-295.06"/>
<polygon fill="#9a32cd" stroke="#9a32cd" points="734.17,-507.52 723.59,-508.07 732.2,-514.24 734.17,-507.52"/>
<text text-anchor="middle" x="904" y="-540.5" font-family="Helvetica,sans-Serif" font-size="10.00"> q_ptr</text>
</g>
<!-- Node10&#45;&gt;Node9 -->
<g id="edge13" class="edge">
<title>Node10&#45;&gt;Node9</title>
<path fill="none" stroke="#9a32cd" stroke-dasharray="5,2" d="M1160.13,-305.37C1153.76,-341.49 1134.87,-417.49 1085,-453.5 1028.98,-493.95 817.25,-498.56 731.2,-498.73"/>
<polygon fill="#9a32cd" stroke="#9a32cd" points="1163.64,-305.58 1161.78,-295.15 1156.73,-304.46 1163.64,-305.58"/>
<text text-anchor="middle" x="904" y="-499.5" font-family="Helvetica,sans-Serif" font-size="10.00"> d_ptr</text>
</g>
<!-- Node11&#45;&gt;Node10 -->
<g id="edge15" class="edge">
<title>Node11&#45;&gt;Node10</title>
<path fill="none" stroke="#9a32cd" stroke-dasharray="5,2" d="M243.06,-401.17C269.19,-400.89 298.93,-400.39 326,-399.5 610.69,-390.1 682.29,-390.88 966,-365.5 1019.1,-360.75 1036.11,-371.75 1085,-350.5 1114.42,-337.71 1141.43,-310.25 1154.59,-295.45"/>
<polygon fill="#9a32cd" stroke="#9a32cd" points="242.83,-397.67 232.86,-401.27 242.89,-404.67 242.83,-397.67"/>
<text text-anchor="middle" x="693.5" y="-393.5" font-family="Helvetica,sans-Serif" font-size="10.00"> controller</text>
</g>
<!-- Node11&#45;&gt;Node14 -->
<g id="edge22" class="edge">
<title>Node11&#45;&gt;Node14</title>
<path fill="none" stroke="#9a32cd" stroke-dasharray="5,2" d="M242.68,-390.04C269.38,-384.56 299.59,-376.87 326,-366.5 356.07,-354.7 387.97,-334.19 405.49,-322.13"/>
<polygon fill="#9a32cd" stroke="#9a32cd" points="241.77,-386.66 232.64,-392.04 243.13,-393.52 241.77,-386.66"/>
<text text-anchor="middle" x="295.5" y="-387.5" font-family="Helvetica,sans-Serif" font-size="10.00"> controller</text>
</g>
<!-- Node12 -->
<g id="node12" class="node">
<title>Node12</title>
<g id="a_node12"><a xlink:href="classCalibrationService.html" target="_top" xlink:title="The CalibrationService class accesses the Calibrartion service of Pokit devices.">
<polygon fill="white" stroke="#666666" points="957,-239 851,-239 851,-220 957,-220 957,-239"/>
<text text-anchor="middle" x="904" y="-227" font-family="Helvetica,sans-Serif" font-size="10.00">CalibrationService</text>
</a>
</g>
</g>
<!-- Node12&#45;&gt;Node10 -->
<g id="edge17" class="edge">
<title>Node12&#45;&gt;Node10</title>
<path fill="none" stroke="#9a32cd" stroke-dasharray="5,2" d="M967.28,-235.03C1002.26,-238.99 1046.49,-245.45 1085,-255.5 1104.79,-260.67 1126.45,-269.24 1141.9,-275.91"/>
<polygon fill="#9a32cd" stroke="#9a32cd" points="967.53,-231.53 957.21,-233.92 966.77,-238.49 967.53,-231.53"/>
<text text-anchor="middle" x="1034.5" y="-258.5" font-family="Helvetica,sans-Serif" font-size="10.00"> calibration</text>
</g>
<!-- Node13&#45;&gt;Node12 -->
<g id="edge18" class="edge">
<title>Node13&#45;&gt;Node12</title>
<path fill="none" stroke="#63b8ff" d="M762.92,-237.56C791.56,-235.91 824.3,-234.03 850.92,-232.5"/>
<polygon fill="#63b8ff" stroke="#63b8ff" points="762.36,-234.09 752.58,-238.16 762.76,-241.08 762.36,-234.09"/>
</g>
<!-- Node13&#45;&gt;Node14 -->
<g id="edge27" class="edge">
<title>Node13&#45;&gt;Node14</title>
<path fill="none" stroke="#9a32cd" stroke-dasharray="5,2" d="M673,-257.19C654.97,-270.73 626.82,-289.5 599,-298.5 566.26,-309.09 528.45,-313.13 496.12,-314.31"/>
<polygon fill="#9a32cd" stroke="#9a32cd" points="675.22,-259.9 681,-251.02 670.94,-254.36 675.22,-259.9"/>
<text text-anchor="middle" x="556.5" y="-316.5" font-family="Helvetica,sans-Serif" font-size="10.00"> q_ptr</text>
</g>
<!-- Node18 -->
<g id="node18" class="node">
<title>Node18</title>
<g id="a_node18"><a xlink:href="classDataLoggerService.html" target="_top" xlink:title="The DataLoggerService class accesses the Pokit Status service of Pokit devices.">
<polygon fill="white" stroke="#666666" points="958.5,-357 849.5,-357 849.5,-338 958.5,-338 958.5,-357"/>
<text text-anchor="middle" x="904" y="-345" font-family="Helvetica,sans-Serif" font-size="10.00">DataLoggerService</text>
</a>
</g>
</g>
<!-- Node13&#45;&gt;Node18 -->
<g id="edge30" class="edge">
<title>Node13&#45;&gt;Node18</title>
<path fill="none" stroke="#63b8ff" d="M719.74,-256.13C748.81,-272.77 798.21,-300.35 842,-321.5 854.02,-327.31 867.68,-333.19 879.01,-337.89"/>
<polygon fill="#63b8ff" stroke="#63b8ff" points="721.46,-253.09 711.04,-251.14 717.97,-259.16 721.46,-253.09"/>
</g>
<!-- Node19 -->
<g id="node19" class="node">
<title>Node19</title>
<g id="a_node19"><a xlink:href="classDeviceInfoService.html" target="_top" xlink:title="The DeviceInfoService class accesses the Device Info service of Pokit devices.">
<polygon fill="white" stroke="#666666" points="956.5,-164 851.5,-164 851.5,-145 956.5,-145 956.5,-164"/>
<text text-anchor="middle" x="904" y="-152" font-family="Helvetica,sans-Serif" font-size="10.00">DeviceInfoService</text>
</a>
</g>
</g>
<!-- Node13&#45;&gt;Node19 -->
<g id="edge33" class="edge">
<title>Node13&#45;&gt;Node19</title>
<path fill="none" stroke="#63b8ff" d="M722.46,-227.28C751.79,-212.69 799.43,-189.86 842,-173.5 850.8,-170.12 860.48,-166.89 869.49,-164.08"/>
<polygon fill="#63b8ff" stroke="#63b8ff" points="720.63,-224.29 713.25,-231.89 723.76,-230.54 720.63,-224.29"/>
</g>
<!-- Node20 -->
<g id="node20" class="node">
<title>Node20</title>
<g id="a_node20"><a xlink:href="classDsoService.html" target="_top" xlink:title="The DsoService class accesses the Pokit Status service of Pokit devices.">
<polygon fill="white" stroke="#666666" points="939.5,-276 868.5,-276 868.5,-257 939.5,-257 939.5,-276"/>
<text text-anchor="middle" x="904" y="-264" font-family="Helvetica,sans-Serif" font-size="10.00">DsoService</text>
</a>
</g>
</g>
<!-- Node13&#45;&gt;Node20 -->
<g id="edge36" class="edge">
<title>Node13&#45;&gt;Node20</title>
<path fill="none" stroke="#63b8ff" d="M762.83,-249.69C798.15,-253.93 839.72,-258.91 868.37,-262.35"/>
<polygon fill="#63b8ff" stroke="#63b8ff" points="762.92,-246.18 752.58,-248.46 762.09,-253.13 762.92,-246.18"/>
</g>
<!-- Node21 -->
<g id="node21" class="node">
<title>Node21</title>
<g id="a_node21"><a xlink:href="classGenericAccessService.html" target="_top" xlink:title="The GenericAccessService class accesses the Generic Access service of Pokit devices.">
<polygon fill="white" stroke="#666666" points="966,-114 842,-114 842,-95 966,-95 966,-114"/>
<text text-anchor="middle" x="904" y="-102" font-family="Helvetica,sans-Serif" font-size="10.00">GenericAccessService</text>
</a>
</g>
</g>
<!-- Node13&#45;&gt;Node21 -->
<g id="edge39" class="edge">
<title>Node13&#45;&gt;Node21</title>
<path fill="none" stroke="#63b8ff" d="M714.84,-225.35C742.68,-203.61 794.6,-164.34 842,-135.5 854.99,-127.6 870.24,-119.85 882.24,-114.07"/>
<polygon fill="#63b8ff" stroke="#63b8ff" points="712.39,-222.83 706.69,-231.76 716.71,-228.33 712.39,-222.83"/>
</g>
<!-- Node22 -->
<g id="node22" class="node">
<title>Node22</title>
<g id="a_node22"><a xlink:href="classMultimeterService.html" target="_top" xlink:title="The MultimeterService class accesses the Pokit Status service of Pokit devices.">
<polygon fill="white" stroke="#666666" points="957.5,-202 850.5,-202 850.5,-183 957.5,-183 957.5,-202"/>
<text text-anchor="middle" x="904" y="-190" font-family="Helvetica,sans-Serif" font-size="10.00">MultimeterService</text>
</a>
</g>
</g>
<!-- Node13&#45;&gt;Node22 -->
<g id="edge42" class="edge">
<title>Node13&#45;&gt;Node22</title>
<path fill="none" stroke="#63b8ff" d="M745.02,-229.63C781.05,-221.16 828.85,-209.93 862.41,-202.04"/>
<polygon fill="#63b8ff" stroke="#63b8ff" points="744.13,-226.24 735.2,-231.94 745.73,-233.06 744.13,-226.24"/>
</g>
<!-- Node23 -->
<g id="node23" class="node">
<title>Node23</title>
<g id="a_node23"><a xlink:href="classStatusService.html" target="_top" xlink:title="The StatusService class accesses the Pokit Status service of Pokit devices.">
<polygon fill="white" stroke="#666666" points="945.5,-313 862.5,-313 862.5,-294 945.5,-294 945.5,-313"/>
<text text-anchor="middle" x="904" y="-301" font-family="Helvetica,sans-Serif" font-size="10.00">StatusService</text>
</a>
</g>
</g>
<!-- Node13&#45;&gt;Node23 -->
<g id="edge45" class="edge">
<title>Node13&#45;&gt;Node23</title>
<path fill="none" stroke="#63b8ff" d="M736.27,-253.92C775.93,-265.71 834.71,-283.19 870.84,-293.94"/>
<polygon fill="#63b8ff" stroke="#63b8ff" points="737.2,-250.55 726.62,-251.05 735.21,-257.26 737.2,-250.55"/>
</g>
<!-- Node14&#45;&gt;Node13 -->
<g id="edge20" class="edge">
<title>Node14&#45;&gt;Node13</title>
<path fill="none" stroke="#9a32cd" stroke-dasharray="5,2" d="M439.96,-296.41C457.79,-282.32 485.89,-262.7 514,-253.5 552.82,-240.8 598.86,-237.98 634.45,-238.24"/>
<polygon fill="#9a32cd" stroke="#9a32cd" points="437.63,-293.8 432.07,-302.82 442.04,-299.23 437.63,-293.8"/>
<text text-anchor="middle" x="556.5" y="-256.5" font-family="Helvetica,sans-Serif" font-size="10.00"> d_ptr</text>
</g>
<!-- Node15&#45;&gt;Node14 -->
<g id="edge23" class="edge">
<title>Node15&#45;&gt;Node14</title>
<path fill="none" stroke="#9a32cd" stroke-dasharray="5,2" d="M237.06,-311.03C269.91,-311.3 309.76,-311.62 343.78,-311.89"/>
<polygon fill="#9a32cd" stroke="#9a32cd" points="236.68,-307.53 226.66,-310.95 236.63,-314.53 236.68,-307.53"/>
<text text-anchor="middle" x="295.5" y="-315.5" font-family="Helvetica,sans-Serif" font-size="10.00"> service</text>
</g>
<!-- Node16 -->
<g id="node16" class="node">
<title>Node16</title>
<g id="a_node16"><a target="_parent" xlink:href="https://doc.qt.io/qt-5/qbluetoothuuid.html" xlink:title=" ">
<polygon fill="white" stroke="#bfbfbf" points="217,-189 123,-189 123,-170 217,-170 217,-189"/>
<text text-anchor="middle" x="170" y="-177" font-family="Helvetica,sans-Serif" font-size="10.00">QBluetoothUuid</text>
</a>
</g>
</g>
<!-- Node16&#45;&gt;Node12 -->
<g id="edge28" class="edge">
<title>Node16&#45;&gt;Node12</title>
<path fill="none" stroke="#9a32cd" stroke-dasharray="5,2" d="M227.4,-180.05C309.33,-181.17 466.04,-184.53 599,-194.5 687.74,-201.15 790.5,-214.08 850.94,-222.23"/>
<polygon fill="#9a32cd" stroke="#9a32cd" points="227.35,-176.55 217.3,-179.92 227.25,-183.55 227.35,-176.55"/>
<text text-anchor="middle" x="556.5" y="-197.5" font-family="Helvetica,sans-Serif" font-size="10.00"> serviceUuid</text>
</g>
<!-- Node16&#45;&gt;Node14 -->
<g id="edge25" class="edge">
<title>Node16&#45;&gt;Node14</title>
<path fill="none" stroke="#9a32cd" stroke-dasharray="5,2" d="M197.92,-193.94C248.82,-221.23 357.93,-279.75 400.99,-302.84"/>
<polygon fill="#9a32cd" stroke="#9a32cd" points="199.3,-190.71 188.84,-189.07 195.99,-196.88 199.3,-190.71"/>
<text text-anchor="middle" x="295.5" y="-265.5" font-family="Helvetica,sans-Serif" font-size="10.00"> serviceUuid</text>
</g>
<!-- Node16&#45;&gt;Node18 -->
<g id="edge31" class="edge">
<title>Node16&#45;&gt;Node18</title>
<path fill="none" stroke="#9a32cd" stroke-dasharray="5,2" d="M183.33,-197.66C208.49,-234.7 263.51,-315.54 265,-316.5 360.78,-378.22 713.9,-360.83 849.5,-351.56"/>
<polygon fill="#9a32cd" stroke="#9a32cd" points="186.14,-195.57 177.63,-189.27 180.35,-199.51 186.14,-195.57"/>
<text text-anchor="middle" x="556.5" y="-364.5" font-family="Helvetica,sans-Serif" font-size="10.00"> serviceUuid</text>
</g>
<!-- Node16&#45;&gt;Node19 -->
<g id="edge34" class="edge">
<title>Node16&#45;&gt;Node19</title>
<path fill="none" stroke="#9a32cd" stroke-dasharray="5,2" d="M211.07,-167.04C245.87,-156.71 297.79,-142.47 344,-134.5 530.58,-102.3 582.12,-107.03 770,-130.5 799.22,-134.15 831.75,-139.99 857.33,-144.99"/>
<polygon fill="#9a32cd" stroke="#9a32cd" points="209.86,-163.75 201.29,-169.97 211.87,-170.45 209.86,-163.75"/>
<text text-anchor="middle" x="556.5" y="-116.5" font-family="Helvetica,sans-Serif" font-size="10.00"> serviceUuid</text>
</g>
<!-- Node16&#45;&gt;Node20 -->
<g id="edge37" class="edge">
<title>Node16&#45;&gt;Node20</title>
<path fill="none" stroke="#9a32cd" stroke-dasharray="5,2" d="M185.36,-196.91C202.18,-215.84 231.98,-245.06 265,-257.5 376.56,-299.54 751.57,-277.25 868.13,-269.08"/>
<polygon fill="#9a32cd" stroke="#9a32cd" points="187.95,-194.56 178.77,-189.27 182.65,-199.13 187.95,-194.56"/>
<text text-anchor="middle" x="556.5" y="-285.5" font-family="Helvetica,sans-Serif" font-size="10.00"> serviceUuid</text>
</g>
<!-- Node16&#45;&gt;Node21 -->
<g id="edge40" class="edge">
<title>Node16&#45;&gt;Node21</title>
<path fill="none" stroke="#9a32cd" stroke-dasharray="5,2" d="M197.51,-165.14C230.65,-148.1 289.62,-120.71 344,-110.5 522.37,-77 738.43,-89.24 841.94,-98.27"/>
<polygon fill="#9a32cd" stroke="#9a32cd" points="195.73,-162.12 188.49,-169.86 198.97,-168.33 195.73,-162.12"/>
<text text-anchor="middle" x="556.5" y="-94.5" font-family="Helvetica,sans-Serif" font-size="10.00"> serviceUuid</text>
</g>
<!-- Node16&#45;&gt;Node22 -->
<g id="edge43" class="edge">
<title>Node16&#45;&gt;Node22</title>
<path fill="none" stroke="#9a32cd" stroke-dasharray="5,2" d="M227.47,-170.42C239.82,-168.62 252.83,-166.87 265,-165.5 511.89,-137.73 581.96,-109.45 824,-165.5 832.36,-167.44 833.92,-169.61 842,-172.5 851.97,-176.07 862.94,-179.74 872.79,-182.95"/>
<polygon fill="#9a32cd" stroke="#9a32cd" points="226.67,-167 217.29,-171.93 227.7,-173.92 226.67,-167"/>
<text text-anchor="middle" x="556.5" y="-139.5" font-family="Helvetica,sans-Serif" font-size="10.00"> serviceUuid</text>
</g>
<!-- Node17 -->
<g id="node17" class="node">
<title>Node17</title>
<g id="a_node17"><a target="_parent" xlink:href="https://doc.qt.io/qt-5/quuid.html" xlink:title=" ">
<polygon fill="white" stroke="#bfbfbf" points="51.5,-189 4.5,-189 4.5,-170 51.5,-170 51.5,-189"/>
<text text-anchor="middle" x="28" y="-177" font-family="Helvetica,sans-Serif" font-size="10.00">QUuid</text>
</a>
</g>
</g>
<!-- Node17&#45;&gt;Node16 -->
<g id="edge26" class="edge">
<title>Node17&#45;&gt;Node16</title>
<path fill="none" stroke="#63b8ff" d="M61.92,-179.5C80.13,-179.5 103.03,-179.5 122.98,-179.5"/>
<polygon fill="#63b8ff" stroke="#63b8ff" points="61.81,-176 51.81,-179.5 61.8,-183 61.81,-176"/>
</g>
<!-- Node18&#45;&gt;Node1 -->
<g id="edge49" class="edge">
<title>Node18&#45;&gt;Node1</title>
<path fill="none" stroke="#9a32cd" stroke-dasharray="5,2" d="M931.51,-361.99C984.28,-390.83 1101.15,-454.7 1145.48,-478.93"/>
<polygon fill="#9a32cd" stroke="#9a32cd" points="933.19,-358.92 922.73,-357.19 929.83,-365.06 933.19,-358.92"/>
<text text-anchor="middle" x="1034.5" y="-446.5" font-family="Helvetica,sans-Serif" font-size="10.00"> service</text>
</g>
<!-- Node18&#45;&gt;Node10 -->
<g id="edge29" class="edge">
<title>Node18&#45;&gt;Node10</title>
<path fill="none" stroke="#9a32cd" stroke-dasharray="5,2" d="M968.67,-337.99C1003.36,-332.19 1046.88,-323.87 1085,-313.5 1103.6,-308.44 1124.1,-301 1139.42,-295.07"/>
<polygon fill="#9a32cd" stroke="#9a32cd" points="967.97,-334.56 958.67,-339.64 969.1,-341.47 967.97,-334.56"/>
<text text-anchor="middle" x="1034.5" y="-338.5" font-family="Helvetica,sans-Serif" font-size="10.00"> dataLogger</text>
</g>
<!-- Node19&#45;&gt;Node10 -->
<g id="edge32" class="edge">
<title>Node19&#45;&gt;Node10</title>
<path fill="none" stroke="#9a32cd" stroke-dasharray="5,2" d="M966.62,-153.28C1003.31,-155.16 1049.49,-162.27 1085,-183.5 1123.08,-206.26 1149.09,-255.27 1158.78,-275.97"/>
<polygon fill="#9a32cd" stroke="#9a32cd" points="966.67,-149.78 956.54,-152.89 966.4,-156.78 966.67,-149.78"/>
<text text-anchor="middle" x="1034.5" y="-186.5" font-family="Helvetica,sans-Serif" font-size="10.00"> deviceInfo</text>
</g>
<!-- Node20&#45;&gt;Node10 -->
<g id="edge35" class="edge">
<title>Node20&#45;&gt;Node10</title>
<path fill="none" stroke="#9a32cd" stroke-dasharray="5,2" d="M949.85,-268.25C986.29,-269.85 1039.02,-272.57 1085,-276.5 1092.74,-277.16 1100.9,-277.97 1108.91,-278.84"/>
<polygon fill="#9a32cd" stroke="#9a32cd" points="949.69,-264.74 939.55,-267.81 949.39,-271.74 949.69,-264.74"/>
<text text-anchor="middle" x="1034.5" y="-279.5" font-family="Helvetica,sans-Serif" font-size="10.00"> dso</text>
</g>
<!-- Node21&#45;&gt;Node10 -->
<g id="edge38" class="edge">
<title>Node21&#45;&gt;Node10</title>
<path fill="none" stroke="#9a32cd" stroke-dasharray="5,2" d="M976.48,-104.83C1012.07,-108.25 1054,-117.54 1085,-140.5 1132.78,-175.88 1154.41,-249.49 1160.84,-275.85"/>
<polygon fill="#9a32cd" stroke="#9a32cd" points="976.39,-101.31 966.14,-103.98 975.82,-108.29 976.39,-101.31"/>
<text text-anchor="middle" x="1034.5" y="-143.5" font-family="Helvetica,sans-Serif" font-size="10.00"> genericAccess</text>
</g>
<!-- Node22&#45;&gt;Node10 -->
<g id="edge41" class="edge">
<title>Node22&#45;&gt;Node10</title>
<path fill="none" stroke="#9a32cd" stroke-dasharray="5,2" d="M968.08,-195.65C1003.68,-199.29 1048.26,-207.04 1085,-223.5 1113.42,-236.23 1140.43,-261.71 1153.97,-275.72"/>
<polygon fill="#9a32cd" stroke="#9a32cd" points="968.1,-192.13 957.82,-194.68 967.45,-199.1 968.1,-192.13"/>
<text text-anchor="middle" x="1034.5" y="-226.5" font-family="Helvetica,sans-Serif" font-size="10.00"> multimeter</text>
</g>
<!-- Node23&#45;&gt;Node10 -->
<g id="edge44" class="edge">
<title>Node23&#45;&gt;Node10</title>
<path fill="none" stroke="#9a32cd" stroke-dasharray="5,2" d="M955.81,-299.96C999.92,-296.88 1063.62,-292.43 1108.72,-289.29"/>
<polygon fill="#9a32cd" stroke="#9a32cd" points="955.33,-296.48 945.6,-300.67 955.82,-303.46 955.33,-296.48"/>
<text text-anchor="middle" x="1034.5" y="-301.5" font-family="Helvetica,sans-Serif" font-size="10.00"> status</text>
</g>
<!-- Node24 -->
<g id="node24" class="node">
<title>Node24</title>
<g id="a_node24"><a target="_parent" xlink:href="https://doc.qt.io/qt-5/qmutex.html" xlink:title=" ">
<polygon fill="white" stroke="#bfbfbf" points="931.5,-25 876.5,-25 876.5,-6 931.5,-6 931.5,-25"/>
<text text-anchor="middle" x="904" y="-13" font-family="Helvetica,sans-Serif" font-size="10.00">QMutex</text>
</a>
</g>
</g>
<!-- Node24&#45;&gt;Node10 -->
<g id="edge46" class="edge">
<title>Node24&#45;&gt;Node10</title>
<path fill="none" stroke="#9a32cd" stroke-dasharray="5,2" d="M941.6,-6.29C981.29,1.37 1044.41,6.49 1085,-25.5 1126.46,-58.17 1155.08,-232.73 1161.59,-275.86"/>
<polygon fill="#9a32cd" stroke="#9a32cd" points="940.87,-2.87 931.79,-8.33 942.3,-9.72 940.87,-2.87"/>
<text text-anchor="middle" x="1034.5" y="-94.5" font-family="Helvetica,sans-Serif" font-size="10.00"> calibrationMutex</text>
<text text-anchor="middle" x="1034.5" y="-83.5" font-family="Helvetica,sans-Serif" font-size="10.00">dataLoggerMutex</text>
<text text-anchor="middle" x="1034.5" y="-72.5" font-family="Helvetica,sans-Serif" font-size="10.00">deviceInfoMutex</text>
<text text-anchor="middle" x="1034.5" y="-61.5" font-family="Helvetica,sans-Serif" font-size="10.00">dsoMutex</text>
<text text-anchor="middle" x="1034.5" y="-50.5" font-family="Helvetica,sans-Serif" font-size="10.00">genericAccessMutex</text>
<text text-anchor="middle" x="1034.5" y="-39.5" font-family="Helvetica,sans-Serif" font-size="10.00">multimeterMutex</text>
<text text-anchor="middle" x="1034.5" y="-28.5" font-family="Helvetica,sans-Serif" font-size="10.00">statusMutex</text>
</g>
<!-- Node25 -->
<g id="node25" class="node">
<title>Node25</title>
<g id="a_node25"><a xlink:title=" ">
<polygon fill="white" stroke="#bfbfbf" points="734,-19 653,-19 653,0 734,0 734,-19"/>
<text text-anchor="middle" x="693.5" y="-7" font-family="Helvetica,sans-Serif" font-size="10.00">QBasicMutex</text>
</a>
</g>
</g>
<!-- Node25&#45;&gt;Node24 -->
<g id="edge47" class="edge">
<title>Node25&#45;&gt;Node24</title>
<path fill="none" stroke="#63b8ff" d="M744.38,-10.94C785.81,-12.13 843.16,-13.78 876.34,-14.73"/>
<polygon fill="#63b8ff" stroke="#63b8ff" points="744.3,-7.43 734.21,-10.64 744.1,-14.43 744.3,-7.43"/>
</g>
</g>
</svg>
