<?xml version="1.0" encoding="UTF-8" standalone="no"?>
<!DOCTYPE svg PUBLIC "-//W3C//DTD SVG 1.1//EN"
 "http://www.w3.org/Graphics/SVG/1.1/DTD/svg11.dtd">
<!-- Generated by graphviz version 2.43.0 (0)
 -->
<!-- Title: PokitDevicePrivate Pages: 1 -->
<svg width="303pt" height="286pt"
 viewBox="0.00 0.00 303.00 286.00" xmlns="http://www.w3.org/2000/svg" xmlns:xlink="http://www.w3.org/1999/xlink">
<g id="graph0" class="graph" transform="scale(1 1) rotate(0) translate(4 282)">
<title>PokitDevicePrivate</title>
<!-- Node1 -->
<g id="node1" class="node">
<title>Node1</title>
<g id="a_node1"><a xlink:title="The PokitDevicePrivate class provides private implementation for PokitDevice.">
<polygon fill="#bfbfbf" stroke="black" points="0,-67.5 0,-86.5 110,-86.5 110,-67.5 0,-67.5"/>
<text text-anchor="middle" x="55" y="-74.5" font-family="Helvetica,sans-Serif" font-size="10.00">PokitDevicePrivate</text>
</a>
</g>
</g>
<!-- Node6 -->
<g id="node6" class="node">
<title>Node6</title>
<g id="a_node6"><a xlink:href="classPokitDevice.html" target="_top" xlink:title="The PokitDevice class simplifies Pokit device access.">
<polygon fill="none" stroke="black" points="68.5,-0.5 68.5,-19.5 143.5,-19.5 143.5,-0.5 68.5,-0.5"/>
<text text-anchor="middle" x="106" y="-7.5" font-family="Helvetica,sans-Serif" font-size="10.00">PokitDevice</text>
</a>
</g>
</g>
<!-- Node1&#45;&gt;Node6 -->
<g id="edge10" class="edge">
<title>Node1&#45;&gt;Node6</title>
<path fill="none" stroke="#9a32cd" stroke-dasharray="5,2" d="M49.17,-57.37C48.21,-50.83 48.48,-43.7 52,-38 57.23,-29.53 66.02,-23.63 75,-19.55"/>
<polygon fill="#9a32cd" stroke="#9a32cd" points="45.86,-58.56 51.6,-67.47 52.67,-56.93 45.86,-58.56"/>
<text text-anchor="middle" x="66" y="-41" font-family="Helvetica,sans-Serif" font-size="10.00"> d_ptr</text>
</g>
<!-- Node2 -->
<g id="node2" class="node">
<title>Node2</title>
<g id="a_node2"><a xlink:title=" ">
<polygon fill="none" stroke="#bfbfbf" points="163,-258.5 163,-277.5 219,-277.5 219,-258.5 163,-258.5"/>
<text text-anchor="middle" x="191" y="-265.5" font-family="Helvetica,sans-Serif" font-size="10.00">QObject</text>
</a>
</g>
</g>
<!-- Node2&#45;&gt;Node1 -->
<g id="edge1" class="edge">
<title>Node2&#45;&gt;Node1</title>
<path fill="none" stroke="midnightblue" d="M152.84,-260.84C123.37,-254.61 82.74,-242.71 53,-221 23.2,-199.25 15.46,-189.07 4,-154 -4.93,-126.66 24.26,-99.99 42.13,-86.71"/>
<polygon fill="midnightblue" stroke="midnightblue" points="152.27,-264.29 162.76,-262.81 153.63,-257.43 152.27,-264.29"/>
</g>
<!-- Node4 -->
<g id="node4" class="node">
<title>Node4</title>
<g id="a_node4"><a xlink:href="classAbstractPokitService.html" target="_top" xlink:title="The AbstractPokitService class provides a common base for Pokit services classes.">
<polygon fill="none" stroke="black" points="62,-201.5 62,-220.5 180,-220.5 180,-201.5 62,-201.5"/>
<text text-anchor="middle" x="121" y="-208.5" font-family="Helvetica,sans-Serif" font-size="10.00">AbstractPokitService</text>
</a>
</g>
</g>
<!-- Node2&#45;&gt;Node4 -->
<g id="edge4" class="edge">
<title>Node2&#45;&gt;Node4</title>
<path fill="none" stroke="midnightblue" d="M171.91,-252C159.13,-241.96 142.77,-229.1 132.09,-220.71"/>
<polygon fill="midnightblue" stroke="midnightblue" points="170.04,-254.98 180.06,-258.41 174.36,-249.48 170.04,-254.98"/>
</g>
<!-- Node5 -->
<g id="node5" class="node">
<title>Node5</title>
<g id="a_node5"><a xlink:href="classAbstractPokitServicePrivate.html" target="_top" xlink:title="The AbstractPokitServicePrivate class provides private implementation for AbstractPokitService.">
<polygon fill="none" stroke="black" points="115,-134.5 115,-153.5 267,-153.5 267,-134.5 115,-134.5"/>
<text text-anchor="middle" x="191" y="-141.5" font-family="Helvetica,sans-Serif" font-size="10.00">AbstractPokitServicePrivate</text>
</a>
</g>
</g>
<!-- Node2&#45;&gt;Node5 -->
<g id="edge6" class="edge">
<title>Node2&#45;&gt;Node5</title>
<path fill="none" stroke="midnightblue" d="M192.03,-248.28C192.94,-229.11 193.98,-198.47 193,-172 192.77,-165.8 192.25,-158.82 191.79,-153.5"/>
<polygon fill="midnightblue" stroke="midnightblue" points="188.53,-248.19 191.52,-258.35 195.53,-248.54 188.53,-248.19"/>
</g>
<!-- Node2&#45;&gt;Node6 -->
<g id="edge9" class="edge">
<title>Node2&#45;&gt;Node6</title>
<path fill="none" stroke="midnightblue" d="M229.3,-262.37C258.95,-256.39 295,-242.79 295,-212 295,-212 295,-212 295,-76 295,-44.34 198.95,-24.78 143.79,-16.17"/>
<polygon fill="midnightblue" stroke="midnightblue" points="228.37,-258.97 219.14,-264.18 229.6,-265.87 228.37,-258.97"/>
</g>
<!-- Node3 -->
<g id="node3" class="node">
<title>Node3</title>
<g id="a_node3"><a xlink:href="classStatusService.html" target="_top" xlink:title="The StatusService class accesses the Pokit Status service of Pokit devices.">
<polygon fill="none" stroke="black" points="13.5,-134.5 13.5,-153.5 96.5,-153.5 96.5,-134.5 13.5,-134.5"/>
<text text-anchor="middle" x="55" y="-141.5" font-family="Helvetica,sans-Serif" font-size="10.00">StatusService</text>
</a>
</g>
</g>
<!-- Node3&#45;&gt;Node1 -->
<g id="edge2" class="edge">
<title>Node3&#45;&gt;Node1</title>
<path fill="none" stroke="#9a32cd" stroke-dasharray="5,2" d="M55,-124.04C55,-111.67 55,-96.12 55,-86.63"/>
<polygon fill="#9a32cd" stroke="#9a32cd" points="51.5,-124.23 55,-134.23 58.5,-124.23 51.5,-124.23"/>
<text text-anchor="middle" x="72" y="-108" font-family="Helvetica,sans-Serif" font-size="10.00"> status</text>
</g>
<!-- Node4&#45;&gt;Node3 -->
<g id="edge3" class="edge">
<title>Node4&#45;&gt;Node3</title>
<path fill="none" stroke="midnightblue" d="M104.75,-194C91.81,-181.25 74.19,-163.89 63.76,-153.63"/>
<polygon fill="midnightblue" stroke="midnightblue" points="102.52,-196.71 112.1,-201.23 107.43,-191.72 102.52,-196.71"/>
</g>
<!-- Node4&#45;&gt;Node5 -->
<g id="edge7" class="edge">
<title>Node4&#45;&gt;Node5</title>
<path fill="none" stroke="#9a32cd" stroke-dasharray="5,2" d="M116.19,-191.15C115.57,-184.59 116.21,-177.5 120,-172 125.91,-163.42 134.94,-157.57 144.59,-153.57"/>
<polygon fill="#9a32cd" stroke="#9a32cd" points="112.81,-192.14 118.07,-201.33 119.69,-190.86 112.81,-192.14"/>
<text text-anchor="middle" x="134" y="-175" font-family="Helvetica,sans-Serif" font-size="10.00"> q_ptr</text>
</g>
<!-- Node5&#45;&gt;Node4 -->
<g id="edge5" class="edge">
<title>Node5&#45;&gt;Node4</title>
<path fill="none" stroke="#9a32cd" stroke-dasharray="5,2" d="M174.34,-160.47C160.62,-173.21 141.67,-190.81 130.44,-201.23"/>
<polygon fill="#9a32cd" stroke="#9a32cd" points="176.76,-163 181.71,-153.63 172,-157.87 176.76,-163"/>
<text text-anchor="middle" x="175" y="-175" font-family="Helvetica,sans-Serif" font-size="10.00"> d_ptr</text>
</g>
<!-- Node6&#45;&gt;Node1 -->
<g id="edge8" class="edge">
<title>Node6&#45;&gt;Node1</title>
<path fill="none" stroke="#9a32cd" stroke-dasharray="5,2" d="M97.25,-28.57C93.57,-35.25 88.98,-42.75 84,-49 78.6,-55.78 71.49,-62.42 65.66,-67.43"/>
<polygon fill="#9a32cd" stroke="#9a32cd" points="100.41,-30.09 101.94,-19.61 94.21,-26.84 100.41,-30.09"/>
<text text-anchor="middle" x="106" y="-41" font-family="Helvetica,sans-Serif" font-size="10.00"> q_ptr</text>
</g>
</g>
</svg>
