<?xml version="1.0" encoding="UTF-8" standalone="no"?>
<!DOCTYPE svg PUBLIC "-//W3C//DTD SVG 1.1//EN"
 "http://www.w3.org/Graphics/SVG/1.1/DTD/svg11.dtd">
<!-- Generated by graphviz version 2.43.0 (0)
 -->
<!-- Title: CalibrationCommand::start Pages: 1 -->
<svg width="541pt" height="222pt"
 viewBox="0.00 0.00 541.00 221.50" xmlns="http://www.w3.org/2000/svg" xmlns:xlink="http://www.w3.org/1999/xlink">
<g id="graph0" class="graph" transform="scale(1 1) rotate(0) translate(4 217.5)">
<title>CalibrationCommand::start</title>
<!-- Node1 -->
<g id="node1" class="node">
<title>Node1</title>
<g id="a_node1"><a xlink:title="Begins scanning for Pokit devices.">
<polygon fill="#bfbfbf" stroke="black" points="0,-88.5 0,-118.5 120,-118.5 120,-88.5 0,-88.5"/>
<text text-anchor="start" x="8" y="-106.5" font-family="Helvetica,sans-Serif" font-size="10.00">CalibrationCommand</text>
<text text-anchor="middle" x="60" y="-95.5" font-family="Helvetica,sans-Serif" font-size="10.00">::start</text>
</a>
</g>
</g>
<!-- Node2 -->
<g id="node2" class="node">
<title>Node2</title>
<g id="a_node2"><a xlink:href="classPokitDevice.html#abb2eafe232090e82ea1a69e38ebab49e" target="_top" xlink:title="Returns a pointer to a CalibrationService instance that uses this device&#39;s controller for access.">
<polygon fill="none" stroke="black" points="172,-176 172,-195 305,-195 305,-176 172,-176"/>
<text text-anchor="middle" x="238.5" y="-183" font-family="Helvetica,sans-Serif" font-size="10.00">PokitDevice::calibration</text>
</a>
</g>
</g>
<!-- Node1&#45;&gt;Node2 -->
<g id="edge1" class="edge">
<title>Node1&#45;&gt;Node2</title>
<path fill="none" stroke="midnightblue" d="M79.48,-118.68C97.83,-133.02 127.29,-154.11 156,-166.5 161.78,-168.99 167.93,-171.19 174.17,-173.11"/>
<polygon fill="midnightblue" stroke="midnightblue" points="173.43,-176.54 184.01,-175.91 175.35,-169.81 173.43,-176.54"/>
</g>
<!-- Node3 -->
<g id="node3" class="node">
<title>Node3</title>
<g id="a_node3"><a xlink:href="classPokitDevice.html#a2e2fb6b30e6f5f0d7bc6cd8f806d6423" target="_top" xlink:title="Returns a non&#45;const pointer to the controller used to access the Pokit device.">
<polygon fill="none" stroke="black" points="174.5,-138 174.5,-157 302.5,-157 302.5,-138 174.5,-138"/>
<text text-anchor="middle" x="238.5" y="-145" font-family="Helvetica,sans-Serif" font-size="10.00">PokitDevice::controller</text>
</a>
</g>
</g>
<!-- Node1&#45;&gt;Node3 -->
<g id="edge3" class="edge">
<title>Node1&#45;&gt;Node3</title>
<path fill="none" stroke="midnightblue" d="M120.02,-118.48C131.93,-121.48 144.36,-124.6 156,-127.5 166.61,-130.14 178,-132.95 188.8,-135.61"/>
<polygon fill="midnightblue" stroke="midnightblue" points="187.97,-139.01 198.52,-137.99 189.64,-132.21 187.97,-139.01"/>
</g>
<!-- Node4 -->
<g id="node4" class="node">
<title>Node4</title>
<g id="a_node4"><a xlink:href="classCalibrationCommand.html#a34c5b94d0b2c54f3ff81e3abd8e13516" target="_top" xlink:title="Handles service detail discovery events.">
<polygon fill="none" stroke="black" points="165,-88.5 165,-118.5 312,-118.5 312,-88.5 165,-88.5"/>
<text text-anchor="start" x="173" y="-106.5" font-family="Helvetica,sans-Serif" font-size="10.00">CalibrationCommand</text>
<text text-anchor="middle" x="238.5" y="-95.5" font-family="Helvetica,sans-Serif" font-size="10.00">::serviceDetailsDiscovered</text>
</a>
</g>
</g>
<!-- Node1&#45;&gt;Node4 -->
<g id="edge4" class="edge">
<title>Node1&#45;&gt;Node4</title>
<path fill="none" stroke="midnightblue" d="M120.26,-103.5C131.34,-103.5 143.1,-103.5 154.74,-103.5"/>
<polygon fill="midnightblue" stroke="midnightblue" points="154.91,-107 164.91,-103.5 154.91,-100 154.91,-107"/>
</g>
<!-- Node7 -->
<g id="node7" class="node">
<title>Node7</title>
<g id="a_node7"><a xlink:href="classDeviceCommand.html#a96208c78728c0068e7a78f961b913751" target="_top" xlink:title="Handles service error events.">
<polygon fill="none" stroke="black" points="156,-50 156,-69 321,-69 321,-50 156,-50"/>
<text text-anchor="middle" x="238.5" y="-57" font-family="Helvetica,sans-Serif" font-size="10.00">DeviceCommand::serviceError</text>
</a>
</g>
</g>
<!-- Node1&#45;&gt;Node7 -->
<g id="edge7" class="edge">
<title>Node1&#45;&gt;Node7</title>
<path fill="none" stroke="midnightblue" d="M116.94,-88.5C129.76,-85.14 143.34,-81.64 156,-78.5 165.62,-76.11 175.91,-73.65 185.82,-71.32"/>
<polygon fill="midnightblue" stroke="midnightblue" points="186.63,-74.72 195.57,-69.04 185.03,-67.91 186.63,-74.72"/>
</g>
<!-- Node8 -->
<g id="node8" class="node">
<title>Node8</title>
<g id="a_node8"><a xlink:href="classCalibrationCommand.html#a221adb70b7e3a26c314b002a7e2e881c" target="_top" xlink:title="Handles CalibrationService::temperatureCalibrated events, by outputting the result and exiting.">
<polygon fill="none" stroke="black" points="171.5,-0.5 171.5,-30.5 305.5,-30.5 305.5,-0.5 171.5,-0.5"/>
<text text-anchor="start" x="179.5" y="-18.5" font-family="Helvetica,sans-Serif" font-size="10.00">CalibrationCommand</text>
<text text-anchor="middle" x="238.5" y="-7.5" font-family="Helvetica,sans-Serif" font-size="10.00">::temperatureCalibrated</text>
</a>
</g>
</g>
<!-- Node1&#45;&gt;Node8 -->
<g id="edge8" class="edge">
<title>Node1&#45;&gt;Node8</title>
<path fill="none" stroke="midnightblue" d="M80.03,-88.48C98.54,-74.47 127.91,-53.78 156,-40.5 160.85,-38.21 165.96,-36.06 171.16,-34.07"/>
<polygon fill="midnightblue" stroke="midnightblue" points="172.38,-37.35 180.58,-30.65 169.99,-30.77 172.38,-37.35"/>
</g>
<!-- Node2&#45;&gt;Node2 -->
<g id="edge2" class="edge">
<title>Node2&#45;&gt;Node2</title>
<path fill="none" stroke="midnightblue" d="M211.07,-195.26C197.72,-204.07 206.86,-213.5 238.5,-213.5 260.25,-213.5 271.37,-209.04 271.86,-203.39"/>
<polygon fill="midnightblue" stroke="midnightblue" points="274.65,-201.28 265.93,-195.26 268.99,-205.4 274.65,-201.28"/>
</g>
<!-- Node5 -->
<g id="node5" class="node">
<title>Node5</title>
<g id="a_node5"><a xlink:href="classCalibrationService.html#a301f5b733cacbebbf24459639f04af52" target="_top" xlink:title="Set&#39;s the Pokit device&#39;s name to name.">
<polygon fill="none" stroke="black" points="381.5,-112.5 381.5,-142.5 508.5,-142.5 508.5,-112.5 381.5,-112.5"/>
<text text-anchor="start" x="389.5" y="-130.5" font-family="Helvetica,sans-Serif" font-size="10.00">CalibrationService</text>
<text text-anchor="middle" x="445" y="-119.5" font-family="Helvetica,sans-Serif" font-size="10.00">::calibrateTemperature</text>
</a>
</g>
</g>
<!-- Node4&#45;&gt;Node5 -->
<g id="edge5" class="edge">
<title>Node4&#45;&gt;Node5</title>
<path fill="none" stroke="midnightblue" d="M312.17,-112.03C331.35,-114.28 352.03,-116.71 371.21,-118.96"/>
<polygon fill="midnightblue" stroke="midnightblue" points="371.05,-122.46 381.39,-120.15 371.86,-115.51 371.05,-122.46"/>
</g>
<!-- Node6 -->
<g id="node6" class="node">
<title>Node6</title>
<g id="a_node6"><a xlink:href="classDeviceCommand.html#a906fd97d832be0e8d2ba1c917fba41db" target="_top" xlink:title="Handles service detail discovery events.">
<polygon fill="none" stroke="black" points="357,-63.5 357,-93.5 533,-93.5 533,-63.5 357,-63.5"/>
<text text-anchor="start" x="365" y="-81.5" font-family="Helvetica,sans-Serif" font-size="10.00">DeviceCommand::serviceDetails</text>
<text text-anchor="middle" x="445" y="-70.5" font-family="Helvetica,sans-Serif" font-size="10.00">Discovered</text>
</a>
</g>
</g>
<!-- Node4&#45;&gt;Node6 -->
<g id="edge6" class="edge">
<title>Node4&#45;&gt;Node6</title>
<path fill="none" stroke="midnightblue" d="M312.17,-94.62C323.36,-93.25 335.07,-91.82 346.69,-90.4"/>
<polygon fill="midnightblue" stroke="midnightblue" points="347.36,-93.84 356.86,-89.15 346.51,-86.89 347.36,-93.84"/>
</g>
</g>
</svg>
