<?xml version="1.0" encoding="UTF-8" standalone="no"?>
<!DOCTYPE svg PUBLIC "-//W3C//DTD SVG 1.1//EN"
 "http://www.w3.org/Graphics/SVG/1.1/DTD/svg11.dtd">
<!-- Generated by graphviz version 2.43.0 (0)
 -->
<!-- Title: DataLoggerService::metadata Pages: 1 -->
<svg width="828pt" height="240pt"
 viewBox="0.00 0.00 828.00 240.00" xmlns="http://www.w3.org/2000/svg" xmlns:xlink="http://www.w3.org/1999/xlink">
<g id="graph0" class="graph" transform="scale(1 1) rotate(0) translate(4 236)">
<title>DataLoggerService::metadata</title>
<!-- Node1 -->
<g id="node1" class="node">
<title>Node1</title>
<g id="a_node1"><a xlink:title="Returns the most recent value of the DataLogger service&#39;s Metadata characteristic.">
<polygon fill="#bfbfbf" stroke="black" points="0,-63 0,-93 115,-93 115,-63 0,-63"/>
<text text-anchor="start" x="8" y="-81" font-family="Helvetica,sans-Serif" font-size="10.00">DataLoggerService::</text>
<text text-anchor="middle" x="57.5" y="-70" font-family="Helvetica,sans-Serif" font-size="10.00">metadata</text>
</a>
</g>
</g>
<!-- Node2 -->
<g id="node2" class="node">
<title>Node2</title>
<g id="a_node2"><a target="_parent" xlink:href="https://doc.qt.io/qt-5/qlowenergycharacteristic.html#isValid" xlink:title=" ">
<polygon fill="none" stroke="black" points="151,-112 151,-142 296,-142 296,-112 151,-112"/>
<text text-anchor="start" x="159" y="-130" font-family="Helvetica,sans-Serif" font-size="10.00">QLowEnergyCharacteristic</text>
<text text-anchor="middle" x="223.5" y="-119" font-family="Helvetica,sans-Serif" font-size="10.00">::isValid</text>
</a>
</g>
</g>
<!-- Node1&#45;&gt;Node2 -->
<g id="edge1" class="edge">
<title>Node1&#45;&gt;Node2</title>
<path fill="none" stroke="midnightblue" d="M109.04,-93.1C125.96,-98.16 144.98,-103.84 162.54,-109.08"/>
<polygon fill="midnightblue" stroke="midnightblue" points="161.54,-112.44 172.12,-111.95 163.54,-105.73 161.54,-112.44"/>
</g>
<!-- Node3 -->
<g id="node3" class="node">
<title>Node3</title>
<g id="a_node3"><a xlink:href="classDataLoggerServicePrivate.html#aed59b28db53cea0757289a0960bed3fd" target="_top" xlink:title="Parses the Metadata value into a DataLoggerService::Metatdata struct.">
<polygon fill="none" stroke="black" points="152,-63 152,-93 295,-93 295,-63 152,-63"/>
<text text-anchor="start" x="160" y="-81" font-family="Helvetica,sans-Serif" font-size="10.00">DataLoggerServicePrivate</text>
<text text-anchor="middle" x="223.5" y="-70" font-family="Helvetica,sans-Serif" font-size="10.00">::parseMetadata</text>
</a>
</g>
</g>
<!-- Node1&#45;&gt;Node3 -->
<g id="edge2" class="edge">
<title>Node1&#45;&gt;Node3</title>
<path fill="none" stroke="midnightblue" d="M115.4,-78C123.94,-78 132.87,-78 141.79,-78"/>
<polygon fill="midnightblue" stroke="midnightblue" points="141.83,-81.5 151.83,-78 141.83,-74.5 141.83,-81.5"/>
</g>
<!-- Node15 -->
<g id="node15" class="node">
<title>Node15</title>
<g id="a_node15"><a target="_parent" xlink:href="https://doc.qt.io/qt-5/qlowenergycharacteristic.html#value" xlink:title=" ">
<polygon fill="none" stroke="black" points="151,-14 151,-44 296,-44 296,-14 151,-14"/>
<text text-anchor="start" x="159" y="-32" font-family="Helvetica,sans-Serif" font-size="10.00">QLowEnergyCharacteristic</text>
<text text-anchor="middle" x="223.5" y="-21" font-family="Helvetica,sans-Serif" font-size="10.00">::value</text>
</a>
</g>
</g>
<!-- Node1&#45;&gt;Node15 -->
<g id="edge17" class="edge">
<title>Node1&#45;&gt;Node15</title>
<path fill="none" stroke="midnightblue" d="M109.04,-62.9C125.96,-57.84 144.98,-52.16 162.54,-46.92"/>
<polygon fill="midnightblue" stroke="midnightblue" points="163.54,-50.27 172.12,-44.05 161.54,-43.56 163.54,-50.27"/>
</g>
<!-- Node4 -->
<g id="node4" class="node">
<title>Node4</title>
<g id="a_node4"><a target="_parent" xlink:href="https://doc.qt.io/qt-5/qbytearray.html#at" xlink:title=" ">
<polygon fill="none" stroke="black" points="364,-112.5 364,-131.5 452,-131.5 452,-112.5 364,-112.5"/>
<text text-anchor="middle" x="408" y="-119.5" font-family="Helvetica,sans-Serif" font-size="10.00">QByteArray::at</text>
</a>
</g>
</g>
<!-- Node3&#45;&gt;Node4 -->
<g id="edge3" class="edge">
<title>Node3&#45;&gt;Node4</title>
<path fill="none" stroke="midnightblue" d="M286.8,-93.02C309.99,-98.61 335.96,-104.87 357.82,-110.14"/>
<polygon fill="midnightblue" stroke="midnightblue" points="357,-113.55 367.55,-112.49 358.64,-106.74 357,-113.55"/>
</g>
<!-- Node5 -->
<g id="node5" class="node">
<title>Node5</title>
<g id="a_node5"><a xlink:href="classAbstractPokitServicePrivate.html#af8b480a950244540bfff7fc4b476a0ef" target="_top" xlink:title="Returns false if data is smaller than minSize, otherwise returns failOnMax if data is bigger than max...">
<polygon fill="none" stroke="black" points="332,-63 332,-93 484,-93 484,-63 332,-63"/>
<text text-anchor="start" x="340" y="-81" font-family="Helvetica,sans-Serif" font-size="10.00">AbstractPokitServicePrivate</text>
<text text-anchor="middle" x="408" y="-70" font-family="Helvetica,sans-Serif" font-size="10.00">::checkSize</text>
</a>
</g>
</g>
<!-- Node3&#45;&gt;Node5 -->
<g id="edge4" class="edge">
<title>Node3&#45;&gt;Node5</title>
<path fill="none" stroke="midnightblue" d="M295.06,-78C303.8,-78 312.82,-78 321.75,-78"/>
<polygon fill="midnightblue" stroke="midnightblue" points="321.79,-81.5 331.79,-78 321.79,-74.5 321.79,-81.5"/>
</g>
<!-- Node7 -->
<g id="node7" class="node">
<title>Node7</title>
<g id="a_node7"><a target="_parent" xlink:href="https://doc.qt.io/qt-5/qbytearray.html#mid" xlink:title=" ">
<polygon fill="none" stroke="black" points="547.5,-0.5 547.5,-19.5 644.5,-19.5 644.5,-0.5 547.5,-0.5"/>
<text text-anchor="middle" x="596" y="-7.5" font-family="Helvetica,sans-Serif" font-size="10.00">QByteArray::mid</text>
</a>
</g>
</g>
<!-- Node3&#45;&gt;Node7 -->
<g id="edge16" class="edge">
<title>Node3&#45;&gt;Node7</title>
<path fill="none" stroke="midnightblue" d="M286.03,-62.95C301.03,-59.49 317.06,-55.96 332,-53 402.35,-39.08 483.93,-26.25 537.35,-18.3"/>
<polygon fill="midnightblue" stroke="midnightblue" points="537.94,-21.75 547.32,-16.82 536.91,-14.83 537.94,-21.75"/>
</g>
<!-- Node6 -->
<g id="node6" class="node">
<title>Node6</title>
<g id="a_node6"><a target="_parent" xlink:href="https://doc.qt.io/qt-5/qstring.html#arg-11" xlink:title=" ">
<polygon fill="none" stroke="black" points="727,-22.5 727,-41.5 801,-41.5 801,-22.5 727,-22.5"/>
<text text-anchor="middle" x="764" y="-29.5" font-family="Helvetica,sans-Serif" font-size="10.00">QString::arg</text>
</a>
</g>
</g>
<!-- Node5&#45;&gt;Node6 -->
<g id="edge5" class="edge">
<title>Node5&#45;&gt;Node6</title>
<path fill="none" stroke="midnightblue" d="M484.07,-68.24C554.53,-59.09 657.68,-45.69 716.79,-38"/>
<polygon fill="midnightblue" stroke="midnightblue" points="717.48,-41.44 726.94,-36.69 716.58,-34.5 717.48,-41.44"/>
</g>
<!-- Node5&#45;&gt;Node7 -->
<g id="edge6" class="edge">
<title>Node5&#45;&gt;Node7</title>
<path fill="none" stroke="midnightblue" d="M445.26,-62.91C466.83,-54.11 494.82,-43.01 520,-34 530.84,-30.12 542.67,-26.2 553.65,-22.68"/>
<polygon fill="midnightblue" stroke="midnightblue" points="554.98,-25.93 563.46,-19.57 552.87,-19.26 554.98,-25.93"/>
</g>
<!-- Node8 -->
<g id="node8" class="node">
<title>Node8</title>
<g id="a_node8"><a target="_parent" xlink:href="https://doc.qt.io/qt-5/qbytearray.html#size" xlink:title=" ">
<polygon fill="none" stroke="black" points="715,-212.5 715,-231.5 813,-231.5 813,-212.5 715,-212.5"/>
<text text-anchor="middle" x="764" y="-219.5" font-family="Helvetica,sans-Serif" font-size="10.00">QByteArray::size</text>
</a>
</g>
</g>
<!-- Node5&#45;&gt;Node8 -->
<g id="edge7" class="edge">
<title>Node5&#45;&gt;Node8</title>
<path fill="none" stroke="midnightblue" d="M466.99,-93.09C473.02,-95.88 478.82,-99.15 484,-103 506.27,-119.55 497.33,-138 520,-154 575.2,-192.95 652.08,-209.65 704.49,-216.77"/>
<polygon fill="midnightblue" stroke="midnightblue" points="704.26,-220.27 714.63,-218.07 705.15,-213.33 704.26,-220.27"/>
</g>
<!-- Node9 -->
<g id="node9" class="node">
<title>Node9</title>
<g id="a_node9"><a xlink:href="classAbstractPokitServicePrivate.html#af748600fc201fe47f29b58e8e93179d8" target="_top" xlink:title="Returns up to maxSize bytes of data as a human readable hexadecimal string.">
<polygon fill="none" stroke="black" points="520,-115 520,-145 672,-145 672,-115 520,-115"/>
<text text-anchor="start" x="528" y="-133" font-family="Helvetica,sans-Serif" font-size="10.00">AbstractPokitServicePrivate</text>
<text text-anchor="middle" x="596" y="-122" font-family="Helvetica,sans-Serif" font-size="10.00">::toHexString</text>
</a>
</g>
</g>
<!-- Node5&#45;&gt;Node9 -->
<g id="edge8" class="edge">
<title>Node5&#45;&gt;Node9</title>
<path fill="none" stroke="midnightblue" d="M462.8,-93.04C484.29,-99.05 509.21,-106.02 531.58,-112.27"/>
<polygon fill="midnightblue" stroke="midnightblue" points="530.75,-115.67 541.32,-114.99 532.63,-108.93 530.75,-115.67"/>
</g>
<!-- Node14 -->
<g id="node14" class="node">
<title>Node14</title>
<g id="a_node14"><a target="_parent" xlink:href="https://doc.qt.io/qt-5/qobject.html#tr" xlink:title=" ">
<polygon fill="none" stroke="black" points="561.5,-76.5 561.5,-95.5 630.5,-95.5 630.5,-76.5 561.5,-76.5"/>
<text text-anchor="middle" x="596" y="-83.5" font-family="Helvetica,sans-Serif" font-size="10.00">QObject::tr</text>
</a>
</g>
</g>
<!-- Node5&#45;&gt;Node14 -->
<g id="edge15" class="edge">
<title>Node5&#45;&gt;Node14</title>
<path fill="none" stroke="midnightblue" d="M484.12,-81.23C506.96,-82.21 531.29,-83.26 551.32,-84.12"/>
<polygon fill="midnightblue" stroke="midnightblue" points="551.24,-87.62 561.38,-84.55 551.54,-80.63 551.24,-87.62"/>
</g>
<!-- Node9&#45;&gt;Node6 -->
<g id="edge9" class="edge">
<title>Node9&#45;&gt;Node6</title>
<path fill="none" stroke="midnightblue" d="M655.48,-114.87C661.35,-112.09 666.98,-108.83 672,-105 694.92,-87.49 685.17,-68.63 708,-51 710.97,-48.7 714.24,-46.67 717.66,-44.88"/>
<polygon fill="midnightblue" stroke="midnightblue" points="719.29,-47.99 726.95,-40.67 716.4,-41.61 719.29,-47.99"/>
</g>
<!-- Node9&#45;&gt;Node8 -->
<g id="edge13" class="edge">
<title>Node9&#45;&gt;Node8</title>
<path fill="none" stroke="midnightblue" d="M616.55,-145.04C638.05,-161.04 674.06,-186.3 708,-203 712.31,-205.12 716.91,-207.1 721.55,-208.93"/>
<polygon fill="midnightblue" stroke="midnightblue" points="720.45,-212.26 731.04,-212.47 722.89,-205.7 720.45,-212.26"/>
</g>
<!-- Node10 -->
<g id="node10" class="node">
<title>Node10</title>
<g id="a_node10"><a target="_parent" xlink:href="https://doc.qt.io/qt-5/qstring.html#fromLatin1" xlink:title=" ">
<polygon fill="none" stroke="black" points="708,-136.5 708,-155.5 820,-155.5 820,-136.5 708,-136.5"/>
<text text-anchor="middle" x="764" y="-143.5" font-family="Helvetica,sans-Serif" font-size="10.00">QString::fromLatin1</text>
</a>
</g>
</g>
<!-- Node9&#45;&gt;Node10 -->
<g id="edge10" class="edge">
<title>Node9&#45;&gt;Node10</title>
<path fill="none" stroke="midnightblue" d="M672.23,-137.25C680.77,-138.07 689.42,-138.91 697.81,-139.72"/>
<polygon fill="midnightblue" stroke="midnightblue" points="697.61,-143.21 707.9,-140.69 698.28,-136.25 697.61,-143.21"/>
</g>
<!-- Node11 -->
<g id="node11" class="node">
<title>Node11</title>
<g id="a_node11"><a target="_parent" xlink:href="https://doc.qt.io/qt-5/qbytearray.html#left" xlink:title=" ">
<polygon fill="none" stroke="black" points="717,-98.5 717,-117.5 811,-117.5 811,-98.5 717,-98.5"/>
<text text-anchor="middle" x="764" y="-105.5" font-family="Helvetica,sans-Serif" font-size="10.00">QByteArray::left</text>
</a>
</g>
</g>
<!-- Node9&#45;&gt;Node11 -->
<g id="edge11" class="edge">
<title>Node9&#45;&gt;Node11</title>
<path fill="none" stroke="midnightblue" d="M672.23,-120.03C683.79,-118.5 695.55,-116.94 706.61,-115.47"/>
<polygon fill="midnightblue" stroke="midnightblue" points="707.09,-118.94 716.54,-114.16 706.17,-112 707.09,-118.94"/>
</g>
<!-- Node12 -->
<g id="node12" class="node">
<title>Node12</title>
<g id="a_node12"><a target="_parent" xlink:href="https://doc.qt.io/qt-5/qbytearray.html#right" xlink:title=" ">
<polygon fill="none" stroke="black" points="713.5,-60.5 713.5,-79.5 814.5,-79.5 814.5,-60.5 713.5,-60.5"/>
<text text-anchor="middle" x="764" y="-67.5" font-family="Helvetica,sans-Serif" font-size="10.00">QByteArray::right</text>
</a>
</g>
</g>
<!-- Node9&#45;&gt;Node12 -->
<g id="edge12" class="edge">
<title>Node9&#45;&gt;Node12</title>
<path fill="none" stroke="midnightblue" d="M644.46,-114.95C653.65,-111.82 663.17,-108.42 672,-105 688.32,-98.67 691.71,-95.42 708,-89 713.17,-86.96 718.66,-84.92 724.09,-82.98"/>
<polygon fill="midnightblue" stroke="midnightblue" points="725.44,-86.21 733.71,-79.6 723.12,-79.61 725.44,-86.21"/>
</g>
<!-- Node13 -->
<g id="node13" class="node">
<title>Node13</title>
<g id="a_node13"><a target="_parent" xlink:href="https://doc.qt.io/qt-5/qbytearray.html#toHex" xlink:title=" ">
<polygon fill="none" stroke="black" points="710.5,-174.5 710.5,-193.5 817.5,-193.5 817.5,-174.5 710.5,-174.5"/>
<text text-anchor="middle" x="764" y="-181.5" font-family="Helvetica,sans-Serif" font-size="10.00">QByteArray::toHex</text>
</a>
</g>
</g>
<!-- Node9&#45;&gt;Node13 -->
<g id="edge14" class="edge">
<title>Node9&#45;&gt;Node13</title>
<path fill="none" stroke="midnightblue" d="M643.24,-145.04C668.7,-153.33 699.95,-163.49 724.14,-171.36"/>
<polygon fill="midnightblue" stroke="midnightblue" points="723.12,-174.71 733.71,-174.47 725.28,-168.05 723.12,-174.71"/>
</g>
</g>
</svg>
