<?xml version="1.0" encoding="UTF-8" standalone="no"?>
<!DOCTYPE svg PUBLIC "-//W3C//DTD SVG 1.1//EN"
 "http://www.w3.org/Graphics/SVG/1.1/DTD/svg11.dtd">
<!-- Generated by graphviz version 2.43.0 (0)
 -->
<!-- Title: AbstractPokitServicePrivate Pages: 1 -->
<svg width="426pt" height="140pt"
 viewBox="0.00 0.00 426.00 140.00" xmlns="http://www.w3.org/2000/svg" xmlns:xlink="http://www.w3.org/1999/xlink">
<g id="graph0" class="graph" transform="scale(1 1) rotate(0) translate(4 136)">
<title>AbstractPokitServicePrivate</title>
<!-- Node1 -->
<g id="node1" class="node">
<title>Node1</title>
<g id="a_node1"><a xlink:title="The AbstractPokitServicePrivate class provides private implementation for AbstractPokitService.">
<polygon fill="#bfbfbf" stroke="black" points="153,-56.5 153,-75.5 305,-75.5 305,-56.5 153,-56.5"/>
<text text-anchor="middle" x="229" y="-63.5" font-family="Helvetica,sans-Serif" font-size="10.00">AbstractPokitServicePrivate</text>
</a>
</g>
</g>
<!-- Node3 -->
<g id="node3" class="node">
<title>Node3</title>
<g id="a_node3"><a xlink:href="classGenericAccessServicePrivate.html" target="_top" xlink:title="The GenericAccessServicePrivate class provides private implementation for GenericAccessService.">
<polygon fill="none" stroke="black" points="0,-0.5 0,-19.5 158,-19.5 158,-0.5 0,-0.5"/>
<text text-anchor="middle" x="79" y="-7.5" font-family="Helvetica,sans-Serif" font-size="10.00">GenericAccessServicePrivate</text>
</a>
</g>
</g>
<!-- Node1&#45;&gt;Node3 -->
<g id="edge2" class="edge">
<title>Node1&#45;&gt;Node3</title>
<path fill="none" stroke="midnightblue" d="M195.78,-53.04C167.55,-42.88 127.74,-28.55 102.66,-19.52"/>
<polygon fill="midnightblue" stroke="midnightblue" points="194.64,-56.35 205.23,-56.44 197.01,-49.76 194.64,-56.35"/>
</g>
<!-- Node4 -->
<g id="node4" class="node">
<title>Node4</title>
<g id="a_node4"><a xlink:href="classInfoServicePrivate.html" target="_top" xlink:title="The InfoServicePrivate class provides private implementation for InfoService.">
<polygon fill="none" stroke="black" points="176,-0.5 176,-19.5 282,-19.5 282,-0.5 176,-0.5"/>
<text text-anchor="middle" x="229" y="-7.5" font-family="Helvetica,sans-Serif" font-size="10.00">InfoServicePrivate</text>
</a>
</g>
</g>
<!-- Node1&#45;&gt;Node4 -->
<g id="edge3" class="edge">
<title>Node1&#45;&gt;Node4</title>
<path fill="none" stroke="midnightblue" d="M229,-45.8C229,-36.91 229,-26.78 229,-19.75"/>
<polygon fill="midnightblue" stroke="midnightblue" points="225.5,-46.08 229,-56.08 232.5,-46.08 225.5,-46.08"/>
</g>
<!-- Node5 -->
<g id="node5" class="node">
<title>Node5</title>
<g id="a_node5"><a xlink:href="classStatusServicePrivate.html" target="_top" xlink:title="The StatusServicePrivate class provides private implementation for StatusService.">
<polygon fill="none" stroke="black" points="300,-0.5 300,-19.5 418,-19.5 418,-0.5 300,-0.5"/>
<text text-anchor="middle" x="359" y="-7.5" font-family="Helvetica,sans-Serif" font-size="10.00">StatusServicePrivate</text>
</a>
</g>
</g>
<!-- Node1&#45;&gt;Node5 -->
<g id="edge4" class="edge">
<title>Node1&#45;&gt;Node5</title>
<path fill="none" stroke="midnightblue" d="M259.09,-52.5C283.46,-42.38 317.14,-28.39 338.5,-19.52"/>
<polygon fill="midnightblue" stroke="midnightblue" points="257.49,-49.38 249.6,-56.44 260.18,-55.84 257.49,-49.38"/>
</g>
<!-- Node2 -->
<g id="node2" class="node">
<title>Node2</title>
<g id="a_node2"><a xlink:title=" ">
<polygon fill="none" stroke="#bfbfbf" points="201,-112.5 201,-131.5 257,-131.5 257,-112.5 201,-112.5"/>
<text text-anchor="middle" x="229" y="-119.5" font-family="Helvetica,sans-Serif" font-size="10.00">QObject</text>
</a>
</g>
</g>
<!-- Node2&#45;&gt;Node1 -->
<g id="edge1" class="edge">
<title>Node2&#45;&gt;Node1</title>
<path fill="none" stroke="midnightblue" d="M229,-101.8C229,-92.91 229,-82.78 229,-75.75"/>
<polygon fill="midnightblue" stroke="midnightblue" points="225.5,-102.08 229,-112.08 232.5,-102.08 225.5,-102.08"/>
</g>
</g>
</svg>
