<?xml version="1.0" encoding="UTF-8" standalone="no"?>
<!DOCTYPE svg PUBLIC "-//W3C//DTD SVG 1.1//EN"
 "http://www.w3.org/Graphics/SVG/1.1/DTD/svg11.dtd">
<!-- Generated by graphviz version 2.43.0 (0)
 -->
<!-- Title: AbstractCommand::processOptions Pages: 1 -->
<svg width="594pt" height="503pt"
 viewBox="0.00 0.00 594.00 502.50" xmlns="http://www.w3.org/2000/svg" xmlns:xlink="http://www.w3.org/1999/xlink">
<g id="graph0" class="graph" transform="scale(1 1) rotate(0) translate(4 498.5)">
<title>AbstractCommand::processOptions</title>
<!-- Node1 -->
<g id="Node000001" class="node">
<title>Node1</title>
<g id="a_Node000001"><a xlink:title="Processes the relevant options from the command line parser.">
<polygon fill="#999999" stroke="#666666" points="151,-265 0,-265 0,-235 151,-235 151,-265"/>
<text text-anchor="start" x="8" y="-253" font-family="Helvetica,sans-Serif" font-size="10.00">AbstractCommand::process</text>
<text text-anchor="middle" x="75.5" y="-242" font-family="Helvetica,sans-Serif" font-size="10.00">Options</text>
</a>
</g>
</g>
<!-- Node2 -->
<g id="Node000002" class="node">
<title>Node2</title>
<g id="a_Node000002"><a target="_parent" xlink:href="https://doc.qt.io/qt-5/qlist.html#append" xlink:title=" ">
<polygon fill="white" stroke="#666666" points="333,-494.5 250,-494.5 250,-475.5 333,-475.5 333,-494.5"/>
<text text-anchor="middle" x="291.5" y="-482.5" font-family="Helvetica,sans-Serif" font-size="10.00">QList::append</text>
</a>
</g>
</g>
<!-- Node1&#45;&gt;Node2 -->
<g id="edge1_Node000001_Node000002" class="edge">
<title>Node1&#45;&gt;Node2</title>
<g id="a_edge1_Node000001_Node000002"><a xlink:title=" ">
<path fill="none" stroke="#63b8ff" d="M79.36,-265.09C87.8,-305.22 116.6,-415.02 187,-467 202.59,-478.51 223.08,-483.57 241.7,-485.55"/>
<polygon fill="#63b8ff" stroke="#63b8ff" points="249.83,-486.23 241.55,-489.15 245.84,-485.89 241.86,-485.56 241.86,-485.56 241.86,-485.56 245.84,-485.89 242.16,-481.97 249.83,-486.23 249.83,-486.23"/>
</a>
</g>
</g>
<!-- Node3 -->
<g id="Node000003" class="node">
<title>Node3</title>
<g id="a_Node000003"><a target="_parent" xlink:href="https://doc.qt.io/qt-5/qstring.html#arg-1" xlink:title=" ">
<polygon fill="white" stroke="#666666" points="328.5,-457.5 254.5,-457.5 254.5,-438.5 328.5,-438.5 328.5,-457.5"/>
<text text-anchor="middle" x="291.5" y="-445.5" font-family="Helvetica,sans-Serif" font-size="10.00">QString::arg</text>
</a>
</g>
</g>
<!-- Node1&#45;&gt;Node3 -->
<g id="edge2_Node000001_Node000003" class="edge">
<title>Node1&#45;&gt;Node3</title>
<g id="a_edge2_Node000001_Node000003"><a xlink:title=" ">
<path fill="none" stroke="#63b8ff" d="M80.99,-265.1C92.34,-300.38 125.71,-388.41 187,-430 204.17,-441.65 226.51,-446.5 246.05,-448.29"/>
<polygon fill="#63b8ff" stroke="#63b8ff" points="254.22,-448.89 245.98,-451.9 250.23,-448.6 246.24,-448.31 246.24,-448.31 246.24,-448.31 250.23,-448.6 246.5,-444.72 254.22,-448.89 254.22,-448.89"/>
</a>
</g>
</g>
<!-- Node4 -->
<g id="Node000004" class="node">
<title>Node4</title>
<g id="a_Node000004"><a target="_parent" xlink:href="https://doc.qt.io/qt-5/qstringlist.html#contains" xlink:title=" ">
<polygon fill="white" stroke="#666666" points="350,-420.5 233,-420.5 233,-401.5 350,-401.5 350,-420.5"/>
<text text-anchor="middle" x="291.5" y="-408.5" font-family="Helvetica,sans-Serif" font-size="10.00">QStringList::contains</text>
</a>
</g>
</g>
<!-- Node1&#45;&gt;Node4 -->
<g id="edge3_Node000001_Node000004" class="edge">
<title>Node1&#45;&gt;Node4</title>
<g id="a_edge3_Node000001_Node000004"><a xlink:title=" ">
<path fill="none" stroke="#63b8ff" d="M83.69,-265.42C98.45,-295.22 135.2,-360.56 187,-392 198.32,-398.87 211.52,-403.37 224.63,-406.3"/>
<polygon fill="#63b8ff" stroke="#63b8ff" points="232.77,-407.92 224.22,-409.89 228.85,-407.14 224.92,-406.36 224.92,-406.36 224.92,-406.36 228.85,-407.14 225.63,-402.82 232.77,-407.92 232.77,-407.92"/>
</a>
</g>
</g>
<!-- Node5 -->
<g id="Node000005" class="node">
<title>Node5</title>
<g id="a_Node000005"><a target="_parent" xlink:href="https://doc.qt.io/qt-5/qcommandlineparser.html#isSet" xlink:title=" ">
<polygon fill="white" stroke="#666666" points="354,-383 229,-383 229,-353 354,-353 354,-383"/>
<text text-anchor="start" x="237" y="-371" font-family="Helvetica,sans-Serif" font-size="10.00">QCommandLineParser</text>
<text text-anchor="middle" x="291.5" y="-360" font-family="Helvetica,sans-Serif" font-size="10.00">::isSet</text>
</a>
</g>
</g>
<!-- Node1&#45;&gt;Node5 -->
<g id="edge4_Node000001_Node000005" class="edge">
<title>Node1&#45;&gt;Node5</title>
<g id="a_edge4_Node000001_Node000005"><a xlink:title=" ">
<path fill="none" stroke="#63b8ff" d="M89.87,-265.25C109.18,-286.27 146.96,-323.84 187,-344 197.51,-349.29 209.21,-353.43 220.85,-356.67"/>
<polygon fill="#63b8ff" stroke="#63b8ff" points="228.88,-358.78 220.23,-360.23 225.01,-357.76 221.14,-356.75 221.14,-356.75 221.14,-356.75 225.01,-357.76 222.05,-353.27 228.88,-358.78 228.88,-358.78"/>
</a>
</g>
</g>
<!-- Node6 -->
<g id="Node000006" class="node">
<title>Node6</title>
<g id="a_Node000006"><a target="_parent" xlink:href="https://doc.qt.io/qt-5/qbluetoothdevicediscoveryagent.html#lowEnergyDiscoveryTimeout" xlink:title=" ">
<polygon fill="white" stroke="#666666" points="387,-335 196,-335 196,-305 387,-305 387,-335"/>
<text text-anchor="start" x="204" y="-323" font-family="Helvetica,sans-Serif" font-size="10.00">QBluetoothDeviceDiscovery</text>
<text text-anchor="middle" x="291.5" y="-312" font-family="Helvetica,sans-Serif" font-size="10.00">Agent::lowEnergyDiscoveryTimeout</text>
</a>
</g>
</g>
<!-- Node1&#45;&gt;Node6 -->
<g id="edge5_Node000001_Node000006" class="edge">
<title>Node1&#45;&gt;Node6</title>
<g id="a_edge5_Node000001_Node000006"><a xlink:title=" ">
<path fill="none" stroke="#63b8ff" d="M108.84,-265.14C130.59,-274.91 160.1,-287.35 187,-296 194.65,-298.46 202.7,-300.78 210.78,-302.93"/>
<polygon fill="#63b8ff" stroke="#63b8ff" points="218.53,-304.95 209.88,-306.42 214.66,-303.94 210.79,-302.93 210.79,-302.93 210.79,-302.93 214.66,-303.94 211.69,-299.45 218.53,-304.95 218.53,-304.95"/>
</a>
</g>
</g>
<!-- Node7 -->
<g id="Node000007" class="node">
<title>Node7</title>
<g id="a_Node000007"><a target="_parent" xlink:href="https://doc.qt.io/qt-5/qcommandlineparser.html#optionNames" xlink:title=" ">
<polygon fill="white" stroke="#666666" points="354,-287 229,-287 229,-257 354,-257 354,-287"/>
<text text-anchor="start" x="237" y="-275" font-family="Helvetica,sans-Serif" font-size="10.00">QCommandLineParser</text>
<text text-anchor="middle" x="291.5" y="-264" font-family="Helvetica,sans-Serif" font-size="10.00">::optionNames</text>
</a>
</g>
</g>
<!-- Node1&#45;&gt;Node7 -->
<g id="edge6_Node000001_Node000007" class="edge">
<title>Node1&#45;&gt;Node7</title>
<g id="a_edge6_Node000001_Node000007"><a xlink:title=" ">
<path fill="none" stroke="#63b8ff" d="M151.05,-257.66C173.71,-259.99 198.53,-262.55 220.86,-264.84"/>
<polygon fill="#63b8ff" stroke="#63b8ff" points="228.97,-265.67 220.64,-268.44 224.99,-265.27 221.01,-264.86 221.01,-264.86 221.01,-264.86 224.99,-265.27 221.38,-261.27 228.97,-265.67 228.97,-265.67"/>
</a>
</g>
</g>
<!-- Node8 -->
<g id="Node000008" class="node">
<title>Node8</title>
<g id="a_Node000008"><a xlink:href="classAbstractCommand.html#afd6f41cfc925751415cfa45e3b2d0b4a" target="_top" xlink:title="Returns a list of CLI option names required by this command.">
<polygon fill="white" stroke="#666666" points="586,-198 432,-198 432,-168 586,-168 586,-198"/>
<text text-anchor="start" x="440" y="-186" font-family="Helvetica,sans-Serif" font-size="10.00">AbstractCommand::required</text>
<text text-anchor="middle" x="509" y="-175" font-family="Helvetica,sans-Serif" font-size="10.00">Options</text>
</a>
</g>
</g>
<!-- Node1&#45;&gt;Node8 -->
<g id="edge7_Node000001_Node000008" class="edge">
<title>Node1&#45;&gt;Node8</title>
<g id="a_edge7_Node000001_Node000008"><a xlink:title=" ">
<path fill="none" stroke="#63b8ff" d="M151.1,-243.05C216.09,-236.43 312.69,-225.21 396,-210 411.33,-207.2 427.71,-203.61 443.07,-199.96"/>
<polygon fill="#63b8ff" stroke="#63b8ff" points="451,-198.05 444.06,-203.42 447.11,-198.98 443.22,-199.92 443.22,-199.92 443.22,-199.92 447.11,-198.98 442.38,-196.42 451,-198.05 451,-198.05"/>
</a>
</g>
</g>
<!-- Node9 -->
<g id="Node000009" class="node">
<title>Node9</title>
<g id="a_Node000009"><a target="_parent" xlink:href="https://doc.qt.io/qt-5/qbluetoothdevicediscoveryagent.html#setLowEnergyDiscoveryTimeout" xlink:title=" ">
<polygon fill="white" stroke="#666666" points="396,-201 187,-201 187,-171 396,-171 396,-201"/>
<text text-anchor="start" x="195" y="-189" font-family="Helvetica,sans-Serif" font-size="10.00">QBluetoothDeviceDiscovery</text>
<text text-anchor="middle" x="291.5" y="-178" font-family="Helvetica,sans-Serif" font-size="10.00">Agent::setLowEnergyDiscoveryTimeout</text>
</a>
</g>
</g>
<!-- Node1&#45;&gt;Node9 -->
<g id="edge8_Node000001_Node000009" class="edge">
<title>Node1&#45;&gt;Node9</title>
<g id="a_edge8_Node000001_Node000009"><a xlink:title=" ">
<path fill="none" stroke="#63b8ff" d="M122.9,-234.92C142.62,-228.61 165.88,-221.3 187,-215 200.15,-211.08 214.29,-207.01 227.77,-203.21"/>
<polygon fill="#63b8ff" stroke="#63b8ff" points="235.61,-201.01 228.88,-206.64 231.76,-202.09 227.91,-203.17 227.91,-203.17 227.91,-203.17 231.76,-202.09 226.94,-199.71 235.61,-201.01 235.61,-201.01"/>
</a>
</g>
</g>
<!-- Node10 -->
<g id="Node000010" class="node">
<title>Node10</title>
<g id="a_Node000010"><a xlink:href="classAbstractCommand.html#a1ceca3c5b4cb24277dd4d4054f45db18" target="_top" xlink:title="Returns a list of CLI option names supported by this command.">
<polygon fill="white" stroke="#666666" points="372.5,-153 210.5,-153 210.5,-123 372.5,-123 372.5,-153"/>
<text text-anchor="start" x="218.5" y="-141" font-family="Helvetica,sans-Serif" font-size="10.00">AbstractCommand::supported</text>
<text text-anchor="middle" x="291.5" y="-130" font-family="Helvetica,sans-Serif" font-size="10.00">Options</text>
</a>
</g>
</g>
<!-- Node1&#45;&gt;Node10 -->
<g id="edge9_Node000001_Node000010" class="edge">
<title>Node1&#45;&gt;Node10</title>
<g id="a_edge9_Node000001_Node000010"><a xlink:title=" ">
<path fill="none" stroke="#63b8ff" d="M91.08,-234.75C110.91,-214.94 148.36,-180.68 187,-162 191.97,-159.6 197.18,-157.43 202.53,-155.48"/>
<polygon fill="#63b8ff" stroke="#63b8ff" points="210.43,-152.76 204.03,-158.77 206.65,-154.06 202.86,-155.36 202.86,-155.36 202.86,-155.36 206.65,-154.06 201.69,-151.96 210.43,-152.76 210.43,-152.76"/>
</a>
</g>
</g>
<!-- Node11 -->
<g id="Node000011" class="node">
<title>Node11</title>
<g id="a_Node000011"><a target="_parent" xlink:href="https://doc.qt.io/qt-5/qstring.html#toLower" xlink:title=" ">
<polygon fill="white" stroke="#666666" points="340.5,-104.5 242.5,-104.5 242.5,-85.5 340.5,-85.5 340.5,-104.5"/>
<text text-anchor="middle" x="291.5" y="-92.5" font-family="Helvetica,sans-Serif" font-size="10.00">QString::toLower</text>
</a>
</g>
</g>
<!-- Node1&#45;&gt;Node11 -->
<g id="edge11_Node000001_Node000011" class="edge">
<title>Node1&#45;&gt;Node11</title>
<g id="a_edge11_Node000001_Node000011"><a xlink:title=" ">
<path fill="none" stroke="#63b8ff" d="M84.11,-234.78C99.33,-206.03 136.49,-143.94 187,-114 201.12,-105.63 218.08,-100.8 234.14,-98.05"/>
<polygon fill="#63b8ff" stroke="#63b8ff" points="242.44,-96.79 235.07,-101.55 238.48,-97.39 234.53,-97.99 234.53,-97.99 234.53,-97.99 238.48,-97.39 233.99,-94.43 242.44,-96.79 242.44,-96.79"/>
</a>
</g>
</g>
<!-- Node12 -->
<g id="Node000012" class="node">
<title>Node12</title>
<g id="a_Node000012"><a target="_parent" xlink:href="https://doc.qt.io/qt-5/qobject.html#tr" xlink:title=" ">
<polygon fill="white" stroke="#666666" points="326,-67.5 257,-67.5 257,-48.5 326,-48.5 326,-67.5"/>
<text text-anchor="middle" x="291.5" y="-55.5" font-family="Helvetica,sans-Serif" font-size="10.00">QObject::tr</text>
</a>
</g>
</g>
<!-- Node1&#45;&gt;Node12 -->
<g id="edge12_Node000001_Node000012" class="edge">
<title>Node1&#45;&gt;Node12</title>
<g id="a_edge12_Node000001_Node000012"><a xlink:title=" ">
<path fill="none" stroke="#63b8ff" d="M81.47,-234.75C93.51,-200.41 127.7,-116.87 187,-77 204.99,-64.9 228.54,-59.94 248.62,-58.09"/>
<polygon fill="#63b8ff" stroke="#63b8ff" points="256.71,-57.5 248.99,-61.68 252.72,-57.79 248.73,-58.09 248.73,-58.09 248.73,-58.09 252.72,-57.79 248.46,-54.5 256.71,-57.5 256.71,-57.5"/>
</a>
</g>
</g>
<!-- Node13 -->
<g id="Node000013" class="node">
<title>Node13</title>
<g id="a_Node000013"><a target="_parent" xlink:href="https://doc.qt.io/qt-5/qcommandlineparser.html#value" xlink:title=" ">
<polygon fill="white" stroke="#666666" points="354,-30 229,-30 229,0 354,0 354,-30"/>
<text text-anchor="start" x="237" y="-18" font-family="Helvetica,sans-Serif" font-size="10.00">QCommandLineParser</text>
<text text-anchor="middle" x="291.5" y="-7" font-family="Helvetica,sans-Serif" font-size="10.00">::value</text>
</a>
</g>
</g>
<!-- Node1&#45;&gt;Node13 -->
<g id="edge13_Node000001_Node000013" class="edge">
<title>Node1&#45;&gt;Node13</title>
<g id="a_edge13_Node000001_Node000013"><a xlink:title=" ">
<path fill="none" stroke="#63b8ff" d="M79.91,-234.78C89.44,-195.84 120.21,-92.02 187,-40 196.87,-32.31 208.75,-26.94 220.9,-23.2"/>
<polygon fill="#63b8ff" stroke="#63b8ff" points="228.9,-20.97 222.16,-26.59 225.05,-22.05 221.19,-23.12 221.19,-23.12 221.19,-23.12 225.05,-22.05 220.23,-19.65 228.9,-20.97 228.9,-20.97"/>
</a>
</g>
</g>
<!-- Node10&#45;&gt;Node8 -->
<g id="edge10_Node000010_Node000008" class="edge">
<title>Node10&#45;&gt;Node8</title>
<g id="a_edge10_Node000010_Node000008"><a xlink:title=" ">
<path fill="none" stroke="#63b8ff" d="M364.56,-153.05C384.96,-157.31 407.28,-161.97 428.11,-166.32"/>
<polygon fill="#63b8ff" stroke="#63b8ff" points="436.01,-167.97 427.44,-169.86 432.09,-167.15 428.18,-166.33 428.18,-166.33 428.18,-166.33 432.09,-167.15 428.91,-162.81 436.01,-167.97 436.01,-167.97"/>
</a>
</g>
</g>
</g>
</svg>
