<?xml version="1.0" encoding="UTF-8" standalone="no"?>
<!DOCTYPE svg PUBLIC "-//W3C//DTD SVG 1.1//EN"
 "http://www.w3.org/Graphics/SVG/1.1/DTD/svg11.dtd">
<!-- Generated by graphviz version 2.43.0 (0)
 -->
<!-- Title: AbstractPokitServicePrivate::getCharacteristic Pages: 1 -->
<svg width="564pt" height="429pt"
 viewBox="0.00 0.00 564.00 429.00" xmlns="http://www.w3.org/2000/svg" xmlns:xlink="http://www.w3.org/1999/xlink">
<g id="graph0" class="graph" transform="scale(1 1) rotate(0) translate(4 425)">
<title>AbstractPokitServicePrivate::getCharacteristic</title>
<!-- Node1 -->
<g id="Node000001" class="node">
<title>Node1</title>
<g id="a_Node000001"><a xlink:title="Get uuid characteristic from the underlying service.">
<polygon fill="#999999" stroke="#666666" points="152,-232.5 0,-232.5 0,-202.5 152,-202.5 152,-232.5"/>
<text text-anchor="start" x="8" y="-220.5" font-family="Helvetica,sans-Serif" font-size="10.00">AbstractPokitServicePrivate</text>
<text text-anchor="middle" x="76" y="-209.5" font-family="Helvetica,sans-Serif" font-size="10.00">::getCharacteristic</text>
</a>
</g>
</g>
<!-- Node2 -->
<g id="Node000002" class="node">
<title>Node2</title>
<g id="a_Node000002"><a target="_parent" xlink:href="https://doc.qt.io/qt-5/qstring.html#arg-1" xlink:title=" ">
<polygon fill="white" stroke="#666666" points="302.5,-421 228.5,-421 228.5,-402 302.5,-402 302.5,-421"/>
<text text-anchor="middle" x="265.5" y="-409" font-family="Helvetica,sans-Serif" font-size="10.00">QString::arg</text>
</a>
</g>
</g>
<!-- Node1&#45;&gt;Node2 -->
<g id="edge1_Node000001_Node000002" class="edge">
<title>Node1&#45;&gt;Node2</title>
<g id="a_edge1_Node000001_Node000002"><a xlink:title=" ">
<path fill="none" stroke="#63b8ff" d="M82.14,-232.66C94.54,-266.87 129.48,-350.32 188,-392.5 197.38,-399.26 208.9,-403.63 220.13,-406.45"/>
<polygon fill="#63b8ff" stroke="#63b8ff" points="228.22,-408.24 219.63,-410.02 224.31,-407.37 220.41,-406.51 220.41,-406.51 220.41,-406.51 224.31,-407.37 221.19,-402.99 228.22,-408.24 228.22,-408.24"/>
</a>
</g>
</g>
<!-- Node3 -->
<g id="Node000003" class="node">
<title>Node3</title>
<g id="a_Node000003"><a target="_parent" xlink:href="https://doc.qt.io/qt-5/qlowenergyservice.html#characteristic" xlink:title=" ">
<polygon fill="white" stroke="#666666" points="325,-383.5 206,-383.5 206,-353.5 325,-353.5 325,-383.5"/>
<text text-anchor="start" x="214" y="-371.5" font-family="Helvetica,sans-Serif" font-size="10.00">QLowEnergyService::</text>
<text text-anchor="middle" x="265.5" y="-360.5" font-family="Helvetica,sans-Serif" font-size="10.00">characteristic</text>
</a>
</g>
</g>
<!-- Node1&#45;&gt;Node3 -->
<g id="edge2_Node000001_Node000003" class="edge">
<title>Node1&#45;&gt;Node3</title>
<g id="a_edge2_Node000001_Node000003"><a xlink:title=" ">
<path fill="none" stroke="#63b8ff" d="M87.2,-232.75C104.91,-258.16 143.73,-309.38 188,-339.5 193.74,-343.41 200.08,-346.88 206.57,-349.94"/>
<polygon fill="#63b8ff" stroke="#63b8ff" points="214.24,-353.34 205.47,-353.39 210.59,-351.72 206.93,-350.1 206.93,-350.1 206.93,-350.1 210.59,-351.72 208.39,-346.81 214.24,-353.34 214.24,-353.34"/>
</a>
</g>
</g>
<!-- Node4 -->
<g id="Node000004" class="node">
<title>Node4</title>
<g id="a_Node000004"><a xlink:href="classPokitDevice.html#a0a3e6078ce0a7c2d93171ef0f4183d61" target="_top" xlink:title="Returns a human&#45;readable name for the uuid characteristic, or a null QString if unknown.">
<polygon fill="white" stroke="#666666" points="336,-297.5 195,-297.5 195,-267.5 336,-267.5 336,-297.5"/>
<text text-anchor="start" x="203" y="-285.5" font-family="Helvetica,sans-Serif" font-size="10.00">PokitDevice::charcteristic</text>
<text text-anchor="middle" x="265.5" y="-274.5" font-family="Helvetica,sans-Serif" font-size="10.00">ToString</text>
</a>
</g>
</g>
<!-- Node1&#45;&gt;Node4 -->
<g id="edge3_Node000001_Node000004" class="edge">
<title>Node1&#45;&gt;Node4</title>
<g id="a_edge3_Node000001_Node000004"><a xlink:title=" ">
<path fill="none" stroke="#63b8ff" d="M116.39,-232.59C137.53,-240.55 164.09,-250.34 188,-258.5 194.34,-260.67 201.01,-262.87 207.65,-265.01"/>
<polygon fill="#63b8ff" stroke="#63b8ff" points="215.41,-267.5 206.69,-268.48 211.6,-266.28 207.79,-265.06 207.79,-265.06 207.79,-265.06 211.6,-266.28 208.89,-261.63 215.41,-267.5 215.41,-267.5"/>
</a>
</g>
</g>
<!-- Node7 -->
<g id="Node000007" class="node">
<title>Node7</title>
<g id="a_Node000007"><a target="_parent" xlink:href="https://doc.qt.io/qt-5/qobject.html#tr" xlink:title=" ">
<polygon fill="white" stroke="#666666" points="502,-323 433,-323 433,-304 502,-304 502,-323"/>
<text text-anchor="middle" x="467.5" y="-311" font-family="Helvetica,sans-Serif" font-size="10.00">QObject::tr</text>
</a>
</g>
</g>
<!-- Node1&#45;&gt;Node7 -->
<g id="edge18_Node000001_Node000007" class="edge">
<title>Node1&#45;&gt;Node7</title>
<g id="a_edge18_Node000001_Node000007"><a xlink:title=" ">
<path fill="none" stroke="#63b8ff" d="M89.81,-232.69C108.75,-253.86 146.47,-291.32 188,-306.5 267.5,-335.56 368.47,-328.16 424.39,-320.57"/>
<polygon fill="#63b8ff" stroke="#63b8ff" points="432.64,-319.4 425.22,-324.09 428.68,-319.96 424.72,-320.52 424.72,-320.52 424.72,-320.52 428.68,-319.96 424.21,-316.96 432.64,-319.4 432.64,-319.4"/>
</a>
</g>
</g>
<!-- Node9 -->
<g id="Node000009" class="node">
<title>Node9</title>
<g id="a_Node000009"><a target="_parent" xlink:href="https://doc.qt.io/qt-5/qlowenergycharacteristic.html#isValid" xlink:title=" ">
<polygon fill="white" stroke="#666666" points="338,-211.5 193,-211.5 193,-181.5 338,-181.5 338,-211.5"/>
<text text-anchor="start" x="201" y="-199.5" font-family="Helvetica,sans-Serif" font-size="10.00">QLowEnergyCharacteristic</text>
<text text-anchor="middle" x="265.5" y="-188.5" font-family="Helvetica,sans-Serif" font-size="10.00">::isValid</text>
</a>
</g>
</g>
<!-- Node1&#45;&gt;Node9 -->
<g id="edge8_Node000001_Node000009" class="edge">
<title>Node1&#45;&gt;Node9</title>
<g id="a_edge8_Node000001_Node000009"><a xlink:title=" ">
<path fill="none" stroke="#63b8ff" d="M152.18,-209.08C162.9,-207.88 173.95,-206.64 184.75,-205.43"/>
<polygon fill="#63b8ff" stroke="#63b8ff" points="192.95,-204.51 185.4,-208.98 188.98,-204.96 185,-205.4 185,-205.4 185,-205.4 188.98,-204.96 184.6,-201.83 192.95,-204.51 192.95,-204.51"/>
</a>
</g>
</g>
<!-- Node10 -->
<g id="Node000010" class="node">
<title>Node10</title>
<g id="a_Node000010"><a target="_parent" xlink:href="https://doc.qt.io/qt-5/qlowenergycharacteristic.html#QLowEnergyCharacteristic" xlink:title=" ">
<polygon fill="white" stroke="#666666" points="341,-163.5 190,-163.5 190,-133.5 341,-133.5 341,-163.5"/>
<text text-anchor="start" x="198" y="-151.5" font-family="Helvetica,sans-Serif" font-size="10.00">QLowEnergyCharacteristic</text>
<text text-anchor="middle" x="265.5" y="-140.5" font-family="Helvetica,sans-Serif" font-size="10.00">::QLowEnergyCharacteristic</text>
</a>
</g>
</g>
<!-- Node1&#45;&gt;Node10 -->
<g id="edge9_Node000001_Node000010" class="edge">
<title>Node1&#45;&gt;Node10</title>
<g id="a_edge9_Node000001_Node000010"><a xlink:title=" ">
<path fill="none" stroke="#63b8ff" d="M112.21,-202.37C133.9,-193.27 162.36,-181.7 188,-172.5 193.99,-170.35 200.28,-168.2 206.57,-166.13"/>
<polygon fill="#63b8ff" stroke="#63b8ff" points="214.51,-163.54 208.02,-169.44 210.71,-164.78 206.91,-166.02 206.91,-166.02 206.91,-166.02 210.71,-164.78 205.79,-162.59 214.51,-163.54 214.51,-163.54"/>
</a>
</g>
</g>
<!-- Node11 -->
<g id="Node000011" class="node">
<title>Node11</title>
<g id="a_Node000011"><a xlink:href="classPokitDevice.html#aca9393595de5676f20e3d0fd795358b5" target="_top" xlink:title="Returns a human&#45;readable name for the uuid service, or a null QString if unknown.">
<polygon fill="white" stroke="#666666" points="343,-249 188,-249 188,-230 343,-230 343,-249"/>
<text text-anchor="middle" x="265.5" y="-237" font-family="Helvetica,sans-Serif" font-size="10.00">PokitDevice::serviceToString</text>
</a>
</g>
</g>
<!-- Node1&#45;&gt;Node11 -->
<g id="edge10_Node000001_Node000011" class="edge">
<title>Node1&#45;&gt;Node11</title>
<g id="a_edge10_Node000001_Node000011"><a xlink:title=" ">
<path fill="none" stroke="#63b8ff" d="M152.18,-226.32C161.25,-227.38 170.55,-228.48 179.74,-229.55"/>
<polygon fill="#63b8ff" stroke="#63b8ff" points="187.77,-230.5 179.4,-233.14 183.8,-230.03 179.82,-229.56 179.82,-229.56 179.82,-229.56 183.8,-230.03 180.24,-225.99 187.77,-230.5 187.77,-230.5"/>
</a>
</g>
</g>
<!-- Node13 -->
<g id="Node000013" class="node">
<title>Node13</title>
<g id="a_Node000013"><a target="_parent" xlink:href="https://doc.qt.io/qt-5/qlowenergyservice.html#serviceUuid" xlink:title=" ">
<polygon fill="white" stroke="#666666" points="325,-115.5 206,-115.5 206,-85.5 325,-85.5 325,-115.5"/>
<text text-anchor="start" x="214" y="-103.5" font-family="Helvetica,sans-Serif" font-size="10.00">QLowEnergyService::</text>
<text text-anchor="middle" x="265.5" y="-92.5" font-family="Helvetica,sans-Serif" font-size="10.00">serviceUuid</text>
</a>
</g>
</g>
<!-- Node1&#45;&gt;Node13 -->
<g id="edge15_Node000001_Node000013" class="edge">
<title>Node1&#45;&gt;Node13</title>
<g id="a_edge15_Node000001_Node000013"><a xlink:title=" ">
<path fill="none" stroke="#63b8ff" d="M91.04,-202.5C110.84,-182.14 148.96,-145.86 188,-124.5 191.82,-122.41 195.84,-120.48 199.96,-118.69"/>
<polygon fill="#63b8ff" stroke="#63b8ff" points="207.48,-115.62 201.43,-121.98 203.77,-117.13 200.07,-118.64 200.07,-118.64 200.07,-118.64 203.77,-117.13 198.71,-115.31 207.48,-115.62 207.48,-115.62"/>
</a>
</g>
</g>
<!-- Node14 -->
<g id="Node000014" class="node">
<title>Node14</title>
<g id="a_Node000014"><a target="_parent" xlink:href="https://doc.qt.io/qt-5/qlowenergyservice.html#state" xlink:title=" ">
<polygon fill="white" stroke="#666666" points="325,-67.5 206,-67.5 206,-37.5 325,-37.5 325,-67.5"/>
<text text-anchor="start" x="214" y="-55.5" font-family="Helvetica,sans-Serif" font-size="10.00">QLowEnergyService::</text>
<text text-anchor="middle" x="265.5" y="-44.5" font-family="Helvetica,sans-Serif" font-size="10.00">state</text>
</a>
</g>
</g>
<!-- Node1&#45;&gt;Node14 -->
<g id="edge16_Node000001_Node000014" class="edge">
<title>Node1&#45;&gt;Node14</title>
<g id="a_edge16_Node000001_Node000014"><a xlink:title=" ">
<path fill="none" stroke="#63b8ff" d="M84.87,-202.29C100.55,-173.45 138.51,-110.65 188,-76.5 191.35,-74.19 194.94,-72.09 198.66,-70.19"/>
<polygon fill="#63b8ff" stroke="#63b8ff" points="205.95,-66.77 200.23,-73.43 202.33,-68.47 198.71,-70.17 198.71,-70.17 198.71,-70.17 202.33,-68.47 197.18,-66.91 205.95,-66.77 205.95,-66.77"/>
</a>
</g>
</g>
<!-- Node15 -->
<g id="Node000015" class="node">
<title>Node15</title>
<g id="a_Node000015"><a target="_parent" xlink:href="https://doc.qt.io/qt-5/quuid.html#toString" xlink:title=" ">
<polygon fill="white" stroke="#666666" points="311,-19 220,-19 220,0 311,0 311,-19"/>
<text text-anchor="middle" x="265.5" y="-7" font-family="Helvetica,sans-Serif" font-size="10.00">QUuid::toString</text>
</a>
</g>
</g>
<!-- Node1&#45;&gt;Node15 -->
<g id="edge17_Node000001_Node000015" class="edge">
<title>Node1&#45;&gt;Node15</title>
<g id="a_edge17_Node000001_Node000015"><a xlink:title=" ">
<path fill="none" stroke="#63b8ff" d="M81.35,-202.5C92.58,-166.49 126.11,-74.73 188,-28.5 195.05,-23.23 203.39,-19.41 211.92,-16.65"/>
<polygon fill="#63b8ff" stroke="#63b8ff" points="219.78,-14.39 213.08,-20.06 215.93,-15.49 212.09,-16.6 212.09,-16.6 212.09,-16.6 215.93,-15.49 211.09,-13.14 219.78,-14.39 219.78,-14.39"/>
</a>
</g>
</g>
<!-- Node5 -->
<g id="Node000005" class="node">
<title>Node5</title>
<g id="a_Node000005"><a target="_parent" xlink:href="https://doc.qt.io/qt-5/qbluetoothuuid.html#characteristicToString" xlink:title=" ">
<polygon fill="white" stroke="#666666" points="550.5,-371.5 384.5,-371.5 384.5,-341.5 550.5,-341.5 550.5,-371.5"/>
<text text-anchor="start" x="392.5" y="-359.5" font-family="Helvetica,sans-Serif" font-size="10.00">QBluetoothUuid::characteristic</text>
<text text-anchor="middle" x="467.5" y="-348.5" font-family="Helvetica,sans-Serif" font-size="10.00">ToString</text>
</a>
</g>
</g>
<!-- Node4&#45;&gt;Node5 -->
<g id="edge4_Node000004_Node000005" class="edge">
<title>Node4&#45;&gt;Node5</title>
<g id="a_edge4_Node000004_Node000005"><a xlink:title=" ">
<path fill="none" stroke="#63b8ff" d="M297.03,-297.57C319.37,-308.23 350.62,-322.37 379,-332.5 385.4,-334.78 392.12,-336.98 398.88,-339.05"/>
<polygon fill="#63b8ff" stroke="#63b8ff" points="406.82,-341.43 398.12,-342.58 402.99,-340.28 399.15,-339.13 399.15,-339.13 399.15,-339.13 402.99,-340.28 400.19,-335.68 406.82,-341.43 406.82,-341.43"/>
</a>
</g>
</g>
<!-- Node6 -->
<g id="Node000006" class="node">
<title>Node6</title>
<g id="a_Node000006"><a target="_parent" xlink:href="https://doc.qt.io/qt-5/qbluetoothuuid.html#QBluetoothUuid" xlink:title=" ">
<polygon fill="white" stroke="#666666" points="556,-249 379,-249 379,-230 556,-230 556,-249"/>
<text text-anchor="middle" x="467.5" y="-237" font-family="Helvetica,sans-Serif" font-size="10.00">QBluetoothUuid::QBluetoothUuid</text>
</a>
</g>
</g>
<!-- Node4&#45;&gt;Node6 -->
<g id="edge5_Node000004_Node000006" class="edge">
<title>Node4&#45;&gt;Node6</title>
<g id="a_edge5_Node000004_Node000006"><a xlink:title=" ">
<path fill="none" stroke="#63b8ff" d="M336.17,-267.52C361.79,-262.01 390.35,-255.87 414.19,-250.75"/>
<polygon fill="#63b8ff" stroke="#63b8ff" points="422.08,-249.05 415.02,-254.25 418.17,-249.89 414.26,-250.73 414.26,-250.73 414.26,-250.73 418.17,-249.89 413.51,-247.21 422.08,-249.05 422.08,-249.05"/>
</a>
</g>
</g>
<!-- Node4&#45;&gt;Node7 -->
<g id="edge6_Node000004_Node000007" class="edge">
<title>Node4&#45;&gt;Node7</title>
<g id="a_edge6_Node000004_Node000007"><a xlink:title=" ">
<path fill="none" stroke="#63b8ff" d="M336.17,-293.3C365.77,-297.89 399.29,-303.08 424.92,-307.06"/>
<polygon fill="#63b8ff" stroke="#63b8ff" points="432.95,-308.3 424.49,-310.63 429,-307.69 425.05,-307.07 425.05,-307.07 425.05,-307.07 429,-307.69 425.6,-303.52 432.95,-308.3 432.95,-308.3"/>
</a>
</g>
</g>
<!-- Node8 -->
<g id="Node000008" class="node">
<title>Node8</title>
<g id="a_Node000008"><a target="_parent" xlink:href="https://doc.qt.io/qt-5/qhash.html#value" xlink:title=" ">
<polygon fill="white" stroke="#666666" points="508.5,-286 426.5,-286 426.5,-267 508.5,-267 508.5,-286"/>
<text text-anchor="middle" x="467.5" y="-274" font-family="Helvetica,sans-Serif" font-size="10.00">QHash::value</text>
</a>
</g>
</g>
<!-- Node4&#45;&gt;Node8 -->
<g id="edge7_Node000004_Node000008" class="edge">
<title>Node4&#45;&gt;Node8</title>
<g id="a_edge7_Node000004_Node000008"><a xlink:title=" ">
<path fill="none" stroke="#63b8ff" d="M336.17,-280.41C363.31,-279.6 393.75,-278.68 418.38,-277.94"/>
<polygon fill="#63b8ff" stroke="#63b8ff" points="426.5,-277.7 418.61,-281.54 422.5,-277.82 418.5,-277.94 418.5,-277.94 418.5,-277.94 422.5,-277.82 418.39,-274.34 426.5,-277.7 426.5,-277.7"/>
</a>
</g>
</g>
<!-- Node11&#45;&gt;Node6 -->
<g id="edge11_Node000011_Node000006" class="edge">
<title>Node11&#45;&gt;Node6</title>
<g id="a_edge11_Node000011_Node000006"><a xlink:title=" ">
<path fill="none" stroke="#63b8ff" d="M343.25,-239.5C352.28,-239.5 361.58,-239.5 370.83,-239.5"/>
<polygon fill="#63b8ff" stroke="#63b8ff" points="378.94,-239.5 370.94,-243.1 374.94,-239.5 370.94,-239.5 370.94,-239.5 370.94,-239.5 374.94,-239.5 370.94,-235.9 378.94,-239.5 378.94,-239.5"/>
</a>
</g>
</g>
<!-- Node11&#45;&gt;Node7 -->
<g id="edge13_Node000011_Node000007" class="edge">
<title>Node11&#45;&gt;Node7</title>
<g id="a_edge13_Node000011_Node000007"><a xlink:title=" ">
<path fill="none" stroke="#63b8ff" d="M321.05,-249.05C328.69,-251.52 336.24,-254.62 343,-258.5 362.9,-269.93 358.88,-284.48 379,-295.5 392.89,-303.1 409.62,-307.51 424.71,-310.05"/>
<polygon fill="#63b8ff" stroke="#63b8ff" points="432.9,-311.28 424.45,-313.65 428.94,-310.69 424.99,-310.09 424.99,-310.09 424.99,-310.09 428.94,-310.69 425.52,-306.53 432.9,-311.28 432.9,-311.28"/>
</a>
</g>
</g>
<!-- Node11&#45;&gt;Node8 -->
<g id="edge14_Node000011_Node000008" class="edge">
<title>Node11&#45;&gt;Node8</title>
<g id="a_edge14_Node000011_Node000008"><a xlink:title=" ">
<path fill="none" stroke="#63b8ff" d="M318,-249.03C348.92,-254.75 388,-261.98 418.31,-267.58"/>
<polygon fill="#63b8ff" stroke="#63b8ff" points="426.21,-269.05 417.69,-271.13 422.28,-268.32 418.34,-267.59 418.34,-267.59 418.34,-267.59 422.28,-268.32 419,-264.05 426.21,-269.05 426.21,-269.05"/>
</a>
</g>
</g>
<!-- Node12 -->
<g id="Node000012" class="node">
<title>Node12</title>
<g id="a_Node000012"><a target="_parent" xlink:href="https://doc.qt.io/qt-5/qbluetoothuuid.html#serviceClassToString" xlink:title=" ">
<polygon fill="white" stroke="#666666" points="548,-211.5 387,-211.5 387,-181.5 548,-181.5 548,-211.5"/>
<text text-anchor="start" x="395" y="-199.5" font-family="Helvetica,sans-Serif" font-size="10.00">QBluetoothUuid::serviceClass</text>
<text text-anchor="middle" x="467.5" y="-188.5" font-family="Helvetica,sans-Serif" font-size="10.00">ToString</text>
</a>
</g>
</g>
<!-- Node11&#45;&gt;Node12 -->
<g id="edge12_Node000011_Node000012" class="edge">
<title>Node11&#45;&gt;Node12</title>
<g id="a_edge12_Node000011_Node000012"><a xlink:title=" ">
<path fill="none" stroke="#63b8ff" d="M310.89,-229.96C333.73,-225.05 362.24,-218.92 388.6,-213.25"/>
<polygon fill="#63b8ff" stroke="#63b8ff" points="396.7,-211.51 389.64,-216.71 392.79,-212.35 388.88,-213.19 388.88,-213.19 388.88,-213.19 392.79,-212.35 388.13,-209.67 396.7,-211.51 396.7,-211.51"/>
</a>
</g>
</g>
</g>
</svg>
