<?xml version="1.0" encoding="UTF-8" standalone="no"?>
<!DOCTYPE svg PUBLIC "-//W3C//DTD SVG 1.1//EN"
 "http://www.w3.org/Graphics/SVG/1.1/DTD/svg11.dtd">
<!-- Generated by graphviz version 2.43.0 (0)
 -->
<!-- Title: DsoCommand Pages: 1 -->
<svg width="115pt" height="192pt"
 viewBox="0.00 0.00 115.00 192.00" xmlns="http://www.w3.org/2000/svg" xmlns:xlink="http://www.w3.org/1999/xlink">
<g id="graph0" class="graph" transform="scale(1 1) rotate(0) translate(4 188)">
<title>DsoCommand</title>
<!-- Node1 -->
<g id="node1" class="node">
<title>Node1</title>
<g id="a_node1"><a xlink:title="The DsoCommand class implements the dso CLI command.">
<polygon fill="#999999" stroke="#666666" points="96.5,-19 10.5,-19 10.5,0 96.5,0 96.5,-19"/>
<text text-anchor="middle" x="53.5" y="-7" font-family="Helvetica,sans-Serif" font-size="10.00">DsoCommand</text>
</a>
</g>
</g>
<!-- Node2 -->
<g id="node2" class="node">
<title>Node2</title>
<g id="a_node2"><a xlink:href="classDeviceCommand.html" target="_top" xlink:title="The AbstractCommand class extends AbstractCommand to add a PokitDevice instance.">
<polygon fill="white" stroke="#666666" points="104,-74 3,-74 3,-55 104,-55 104,-74"/>
<text text-anchor="middle" x="53.5" y="-62" font-family="Helvetica,sans-Serif" font-size="10.00">DeviceCommand</text>
</a>
</g>
</g>
<!-- Node2&#45;&gt;Node1 -->
<g id="edge1" class="edge">
<title>Node2&#45;&gt;Node1</title>
<path fill="none" stroke="#63b8ff" d="M53.5,-46.67C53.5,-37.5 53.5,-26.52 53.5,-19.09"/>
<polygon fill="#63b8ff" stroke="#63b8ff" points="53.5,-54.75 49.9,-46.75 53.5,-50.75 53.5,-46.75 53.5,-46.75 53.5,-46.75 53.5,-50.75 57.1,-46.75 53.5,-54.75 53.5,-54.75"/>
</g>
<!-- Node3 -->
<g id="node3" class="node">
<title>Node3</title>
<g id="a_node3"><a xlink:href="classAbstractCommand.html" target="_top" xlink:title="The AbstractCommand class provides a consistent base for the classes that implement CLI commands.">
<polygon fill="white" stroke="#666666" points="107,-129 0,-129 0,-110 107,-110 107,-129"/>
<text text-anchor="middle" x="53.5" y="-117" font-family="Helvetica,sans-Serif" font-size="10.00">AbstractCommand</text>
</a>
</g>
</g>
<!-- Node3&#45;&gt;Node2 -->
<g id="edge2" class="edge">
<title>Node3&#45;&gt;Node2</title>
<path fill="none" stroke="#63b8ff" d="M53.5,-101.67C53.5,-92.5 53.5,-81.52 53.5,-74.09"/>
<polygon fill="#63b8ff" stroke="#63b8ff" points="53.5,-109.75 49.9,-101.75 53.5,-105.75 53.5,-101.75 53.5,-101.75 53.5,-101.75 53.5,-105.75 57.1,-101.75 53.5,-109.75 53.5,-109.75"/>
</g>
<!-- Node4 -->
<g id="node4" class="node">
<title>Node4</title>
<g id="a_node4"><a target="_parent" xlink:href="https://doc.qt.io/qt-5/qobject.html" xlink:title=" ">
<polygon fill="white" stroke="#bfbfbf" points="81.5,-184 25.5,-184 25.5,-165 81.5,-165 81.5,-184"/>
<text text-anchor="middle" x="53.5" y="-172" font-family="Helvetica,sans-Serif" font-size="10.00">QObject</text>
</a>
</g>
</g>
<!-- Node4&#45;&gt;Node3 -->
<g id="edge3" class="edge">
<title>Node4&#45;&gt;Node3</title>
<path fill="none" stroke="#63b8ff" d="M53.5,-156.67C53.5,-147.5 53.5,-136.52 53.5,-129.09"/>
<polygon fill="#63b8ff" stroke="#63b8ff" points="53.5,-164.75 49.9,-156.75 53.5,-160.75 53.5,-156.75 53.5,-156.75 53.5,-156.75 53.5,-160.75 57.1,-156.75 53.5,-164.75 53.5,-164.75"/>
</g>
</g>
</svg>
