<?xml version="1.0" encoding="UTF-8" standalone="no"?>
<!DOCTYPE svg PUBLIC "-//W3C//DTD SVG 1.1//EN"
 "http://www.w3.org/Graphics/SVG/1.1/DTD/svg11.dtd">
<!-- Generated by graphviz version 2.43.0 (0)
 -->
<!-- Title: CalibrateCommand::processOptions Pages: 1 -->
<svg width="785pt" height="566pt"
 viewBox="0.00 0.00 785.00 566.00" xmlns="http://www.w3.org/2000/svg" xmlns:xlink="http://www.w3.org/1999/xlink">
<g id="graph0" class="graph" transform="scale(1 1) rotate(0) translate(4 562)">
<title>CalibrateCommand::processOptions</title>
<!-- Node1 -->
<g id="node1" class="node">
<title>Node1</title>
<g id="a_node1"><a xlink:title="Processes the relevant options from the command line parser.">
<polygon fill="#bfbfbf" stroke="black" points="0,-90 0,-120 155,-120 155,-90 0,-90"/>
<text text-anchor="start" x="8" y="-108" font-family="Helvetica,sans-Serif" font-size="10.00">CalibrateCommand::process</text>
<text text-anchor="middle" x="77.5" y="-97" font-family="Helvetica,sans-Serif" font-size="10.00">Options</text>
</a>
</g>
</g>
<!-- Node2 -->
<g id="node2" class="node">
<title>Node2</title>
<g id="a_node2"><a target="_parent" xlink:href="https://doc.qt.io/qt-5/qlist.html#append" xlink:title=" ">
<polygon fill="none" stroke="black" points="441,-538.5 441,-557.5 524,-557.5 524,-538.5 441,-538.5"/>
<text text-anchor="middle" x="482.5" y="-545.5" font-family="Helvetica,sans-Serif" font-size="10.00">QList::append</text>
</a>
</g>
</g>
<!-- Node1&#45;&gt;Node2 -->
<g id="edge1" class="edge">
<title>Node1&#45;&gt;Node2</title>
<path fill="none" stroke="midnightblue" d="M84.11,-120.29C108.09,-183.18 208.45,-423.64 378,-529 393.63,-538.71 412.98,-543.72 430.71,-546.23"/>
<polygon fill="midnightblue" stroke="midnightblue" points="430.58,-549.74 440.92,-547.43 431.4,-542.79 430.58,-549.74"/>
</g>
<!-- Node3 -->
<g id="node3" class="node">
<title>Node3</title>
<g id="a_node3"><a target="_parent" xlink:href="https://doc.qt.io/qt-5/qlist.html#isEmpty" xlink:title=" ">
<polygon fill="none" stroke="black" points="223,-38.5 223,-57.5 310,-57.5 310,-38.5 223,-38.5"/>
<text text-anchor="middle" x="266.5" y="-45.5" font-family="Helvetica,sans-Serif" font-size="10.00">QList::isEmpty</text>
</a>
</g>
</g>
<!-- Node1&#45;&gt;Node3 -->
<g id="edge2" class="edge">
<title>Node1&#45;&gt;Node3</title>
<path fill="none" stroke="midnightblue" d="M128.12,-89.87C158.22,-80.7 196.17,-69.13 224.55,-60.48"/>
<polygon fill="midnightblue" stroke="midnightblue" points="225.62,-63.81 234.17,-57.55 223.58,-57.12 225.62,-63.81"/>
</g>
<!-- Node4 -->
<g id="node4" class="node">
<title>Node4</title>
<g id="a_node4"><a xlink:href="classAbstractCommand.html#ad827a18a24776efeb955739459d48f7d" target="_top" xlink:title="Processes the relevant options from the command line parser.">
<polygon fill="none" stroke="black" points="191,-238 191,-268 342,-268 342,-238 191,-238"/>
<text text-anchor="start" x="199" y="-256" font-family="Helvetica,sans-Serif" font-size="10.00">AbstractCommand::process</text>
<text text-anchor="middle" x="266.5" y="-245" font-family="Helvetica,sans-Serif" font-size="10.00">Options</text>
</a>
</g>
</g>
<!-- Node1&#45;&gt;Node4 -->
<g id="edge3" class="edge">
<title>Node1&#45;&gt;Node4</title>
<path fill="none" stroke="midnightblue" d="M97.46,-120.01C130.78,-146.38 199.94,-201.12 238.34,-231.5"/>
<polygon fill="midnightblue" stroke="midnightblue" points="236.48,-234.49 246.49,-237.95 240.82,-229 236.48,-234.49"/>
</g>
<!-- Node22 -->
<g id="node22" class="node">
<title>Node22</title>
<g id="a_node22"><a target="_parent" xlink:href="https://doc.qt.io/qt-5/qobject.html#tr" xlink:title=" ">
<polygon fill="none" stroke="black" points="448,-52.5 448,-71.5 517,-71.5 517,-52.5 448,-52.5"/>
<text text-anchor="middle" x="482.5" y="-59.5" font-family="Helvetica,sans-Serif" font-size="10.00">QObject::tr</text>
</a>
</g>
</g>
<!-- Node1&#45;&gt;Node22 -->
<g id="edge26" class="edge">
<title>Node1&#45;&gt;Node22</title>
<path fill="none" stroke="midnightblue" d="M155,-112.79C208.28,-115.99 280.53,-115.85 342,-100 359.52,-95.48 360.91,-86.92 378,-81 397.08,-74.39 418.98,-69.94 437.7,-67.03"/>
<polygon fill="midnightblue" stroke="midnightblue" points="438.35,-70.47 447.74,-65.56 437.34,-63.54 438.35,-70.47"/>
</g>
<!-- Node23 -->
<g id="node23" class="node">
<title>Node23</title>
<g id="a_node23"><a target="_parent" xlink:href="https://doc.qt.io/qt-5/qcommandlineparser.html#value" xlink:title=" ">
<polygon fill="none" stroke="black" points="420,-3 420,-33 545,-33 545,-3 420,-3"/>
<text text-anchor="start" x="428" y="-21" font-family="Helvetica,sans-Serif" font-size="10.00">QCommandLineParser</text>
<text text-anchor="middle" x="482.5" y="-10" font-family="Helvetica,sans-Serif" font-size="10.00">::value</text>
</a>
</g>
</g>
<!-- Node1&#45;&gt;Node23 -->
<g id="edge27" class="edge">
<title>Node1&#45;&gt;Node23</title>
<path fill="none" stroke="midnightblue" d="M155.13,-102.88C208.95,-99.26 281.79,-90.05 342,-67 359.96,-60.12 360.38,-50.71 378,-43 388.05,-38.6 399,-34.9 409.89,-31.81"/>
<polygon fill="midnightblue" stroke="midnightblue" points="411.1,-35.11 419.86,-29.14 409.29,-28.35 411.1,-35.11"/>
</g>
<!-- Node24 -->
<g id="node24" class="node">
<title>Node24</title>
<g id="a_node24"><a target="_parent" xlink:href="https://doc.qt.io/qt-5/qstring.html#toFloat" xlink:title=" ">
<polygon fill="none" stroke="black" points="220,-0.5 220,-19.5 313,-19.5 313,-0.5 220,-0.5"/>
<text text-anchor="middle" x="266.5" y="-7.5" font-family="Helvetica,sans-Serif" font-size="10.00">QString::toFloat</text>
</a>
</g>
</g>
<!-- Node1&#45;&gt;Node24 -->
<g id="edge25" class="edge">
<title>Node1&#45;&gt;Node24</title>
<path fill="none" stroke="midnightblue" d="M96.43,-89.98C117.71,-72.88 154.87,-45.22 191,-29 197.05,-26.28 203.57,-23.9 210.13,-21.83"/>
<polygon fill="midnightblue" stroke="midnightblue" points="211.13,-25.19 219.74,-19.02 209.16,-18.47 211.13,-25.19"/>
</g>
<!-- Node4&#45;&gt;Node2 -->
<g id="edge4" class="edge">
<title>Node4&#45;&gt;Node2</title>
<path fill="none" stroke="midnightblue" d="M275.04,-268.33C289.15,-297.34 320.12,-362.43 342,-419 360.56,-466.98 339.26,-495.16 378,-529 392.39,-541.58 412.31,-547.05 430.83,-549.12"/>
<polygon fill="midnightblue" stroke="midnightblue" points="430.68,-552.62 440.93,-549.94 431.25,-545.64 430.68,-552.62"/>
</g>
<!-- Node5 -->
<g id="node5" class="node">
<title>Node5</title>
<g id="a_node5"><a target="_parent" xlink:href="https://doc.qt.io/qt-5/qstring.html#arg-11" xlink:title=" ">
<polygon fill="none" stroke="black" points="445.5,-90.5 445.5,-109.5 519.5,-109.5 519.5,-90.5 445.5,-90.5"/>
<text text-anchor="middle" x="482.5" y="-97.5" font-family="Helvetica,sans-Serif" font-size="10.00">QString::arg</text>
</a>
</g>
</g>
<!-- Node4&#45;&gt;Node5 -->
<g id="edge5" class="edge">
<title>Node4&#45;&gt;Node5</title>
<path fill="none" stroke="midnightblue" d="M275.41,-237.56C290.89,-209.04 328.09,-148.34 378,-119 395.14,-108.92 416.42,-103.98 435.21,-101.63"/>
<polygon fill="midnightblue" stroke="midnightblue" points="435.77,-105.09 445.36,-100.57 435.05,-98.13 435.77,-105.09"/>
</g>
<!-- Node6 -->
<g id="node6" class="node">
<title>Node6</title>
<g id="a_node6"><a target="_parent" xlink:href="https://doc.qt.io/qt-5/qstringlist.html#contains" xlink:title=" ">
<polygon fill="none" stroke="black" points="424,-500.5 424,-519.5 541,-519.5 541,-500.5 424,-500.5"/>
<text text-anchor="middle" x="482.5" y="-507.5" font-family="Helvetica,sans-Serif" font-size="10.00">QStringList::contains</text>
</a>
</g>
</g>
<!-- Node4&#45;&gt;Node6 -->
<g id="edge6" class="edge">
<title>Node4&#45;&gt;Node6</title>
<path fill="none" stroke="midnightblue" d="M274.39,-268.34C297.81,-320.39 373.14,-487.23 378,-491 388.36,-499.02 401.04,-504.04 413.92,-507.11"/>
<polygon fill="midnightblue" stroke="midnightblue" points="413.29,-510.55 423.78,-509.09 414.67,-503.69 413.29,-510.55"/>
</g>
<!-- Node7 -->
<g id="node7" class="node">
<title>Node7</title>
<g id="a_node7"><a target="_parent" xlink:href="https://doc.qt.io/qt-5/qcommandlineparser.html#isSet" xlink:title=" ">
<polygon fill="none" stroke="black" points="420,-451 420,-481 545,-481 545,-451 420,-451"/>
<text text-anchor="start" x="428" y="-469" font-family="Helvetica,sans-Serif" font-size="10.00">QCommandLineParser</text>
<text text-anchor="middle" x="482.5" y="-458" font-family="Helvetica,sans-Serif" font-size="10.00">::isSet</text>
</a>
</g>
</g>
<!-- Node4&#45;&gt;Node7 -->
<g id="edge7" class="edge">
<title>Node4&#45;&gt;Node7</title>
<path fill="none" stroke="midnightblue" d="M271.76,-268.06C282.79,-304.21 315.87,-396.24 378,-442 387.51,-449.01 398.75,-454.01 410.25,-457.57"/>
<polygon fill="midnightblue" stroke="midnightblue" points="409.36,-460.96 419.93,-460.24 411.22,-454.21 409.36,-460.96"/>
</g>
<!-- Node8 -->
<g id="node8" class="node">
<title>Node8</title>
<g id="a_node8"><a target="_parent" xlink:href="https://doc.qt.io/qt-5/qbluetoothdevicediscoveryagent.html#lowEnergyDiscoveryTimeout" xlink:title=" ">
<polygon fill="none" stroke="black" points="387,-402 387,-432 578,-432 578,-402 387,-402"/>
<text text-anchor="start" x="395" y="-420" font-family="Helvetica,sans-Serif" font-size="10.00">QBluetoothDeviceDiscovery</text>
<text text-anchor="middle" x="482.5" y="-409" font-family="Helvetica,sans-Serif" font-size="10.00">Agent::lowEnergyDiscoveryTimeout</text>
</a>
</g>
</g>
<!-- Node4&#45;&gt;Node8 -->
<g id="edge8" class="edge">
<title>Node4&#45;&gt;Node8</title>
<path fill="none" stroke="midnightblue" d="M275.11,-268.45C290.36,-297.67 327.53,-360.99 378,-393 380.64,-394.67 383.39,-396.23 386.21,-397.68"/>
<polygon fill="midnightblue" stroke="midnightblue" points="384.92,-400.94 395.46,-401.95 387.85,-394.59 384.92,-400.94"/>
</g>
<!-- Node9 -->
<g id="node9" class="node">
<title>Node9</title>
<g id="a_node9"><a target="_parent" xlink:href="https://doc.qt.io/qt-5/qcommandlineparser.html#optionNames" xlink:title=" ">
<polygon fill="none" stroke="black" points="420,-353 420,-383 545,-383 545,-353 420,-353"/>
<text text-anchor="start" x="428" y="-371" font-family="Helvetica,sans-Serif" font-size="10.00">QCommandLineParser</text>
<text text-anchor="middle" x="482.5" y="-360" font-family="Helvetica,sans-Serif" font-size="10.00">::optionNames</text>
</a>
</g>
</g>
<!-- Node4&#45;&gt;Node9 -->
<g id="edge9" class="edge">
<title>Node4&#45;&gt;Node9</title>
<path fill="none" stroke="midnightblue" d="M281.3,-268.09C300.83,-288.48 338.55,-324.54 378,-344 388.04,-348.96 399.14,-352.91 410.24,-356.06"/>
<polygon fill="midnightblue" stroke="midnightblue" points="409.39,-359.46 419.95,-358.63 411.18,-352.69 409.39,-359.46"/>
</g>
<!-- Node10 -->
<g id="node10" class="node">
<title>Node10</title>
<g id="a_node10"><a xlink:href="classAbstractCommand.html#ab18bb57fe68534739f63c994330a29c2" target="_top" xlink:title="Returns value as a number of millis, such as milliseconds, or millivolts.">
<polygon fill="none" stroke="black" points="402,-216 402,-246 563,-246 563,-216 402,-216"/>
<text text-anchor="start" x="410" y="-234" font-family="Helvetica,sans-Serif" font-size="10.00">AbstractCommand::parseMilli</text>
<text text-anchor="middle" x="482.5" y="-223" font-family="Helvetica,sans-Serif" font-size="10.00">Value</text>
</a>
</g>
</g>
<!-- Node4&#45;&gt;Node10 -->
<g id="edge10" class="edge">
<title>Node4&#45;&gt;Node10</title>
<path fill="none" stroke="midnightblue" d="M342.05,-245.34C358.03,-243.69 375.08,-241.94 391.57,-240.24"/>
<polygon fill="midnightblue" stroke="midnightblue" points="392.17,-243.7 401.76,-239.2 391.45,-236.74 392.17,-243.7"/>
</g>
<!-- Node18 -->
<g id="node18" class="node">
<title>Node18</title>
<g id="a_node18"><a xlink:href="classAbstractCommand.html#afd6f41cfc925751415cfa45e3b2d0b4a" target="_top" xlink:title="Returns a list of CLI option names required by this command.">
<polygon fill="none" stroke="black" points="623,-336 623,-366 777,-366 777,-336 623,-336"/>
<text text-anchor="start" x="631" y="-354" font-family="Helvetica,sans-Serif" font-size="10.00">AbstractCommand::required</text>
<text text-anchor="middle" x="700" y="-343" font-family="Helvetica,sans-Serif" font-size="10.00">Options</text>
</a>
</g>
</g>
<!-- Node4&#45;&gt;Node18 -->
<g id="edge18" class="edge">
<title>Node4&#45;&gt;Node18</title>
<path fill="none" stroke="midnightblue" d="M342.12,-257.86C422.49,-263.97 544.55,-276 587,-295 606.27,-303.63 604.62,-315.61 623,-326 626.85,-328.17 630.91,-330.19 635.07,-332.06"/>
<polygon fill="midnightblue" stroke="midnightblue" points="633.74,-335.3 644.32,-335.92 636.44,-328.84 633.74,-335.3"/>
</g>
<!-- Node19 -->
<g id="node19" class="node">
<title>Node19</title>
<g id="a_node19"><a target="_parent" xlink:href="https://doc.qt.io/qt-5/qbluetoothdevicediscoveryagent.html#setLowEnergyDiscoveryTimeout" xlink:title=" ">
<polygon fill="none" stroke="black" points="378,-167 378,-197 587,-197 587,-167 378,-167"/>
<text text-anchor="start" x="386" y="-185" font-family="Helvetica,sans-Serif" font-size="10.00">QBluetoothDeviceDiscovery</text>
<text text-anchor="middle" x="482.5" y="-174" font-family="Helvetica,sans-Serif" font-size="10.00">Agent::setLowEnergyDiscoveryTimeout</text>
</a>
</g>
</g>
<!-- Node4&#45;&gt;Node19 -->
<g id="edge19" class="edge">
<title>Node4&#45;&gt;Node19</title>
<path fill="none" stroke="midnightblue" d="M299.87,-237.94C321.63,-228.21 351.14,-215.78 378,-207 385.96,-204.4 394.34,-201.94 402.74,-199.65"/>
<polygon fill="midnightblue" stroke="midnightblue" points="403.83,-202.98 412.6,-197.04 402.03,-196.21 403.83,-202.98"/>
</g>
<!-- Node20 -->
<g id="node20" class="node">
<title>Node20</title>
<g id="a_node20"><a xlink:href="classAbstractCommand.html#a1ceca3c5b4cb24277dd4d4054f45db18" target="_top" xlink:title="Returns a list of CLI option names supported by this command.">
<polygon fill="none" stroke="black" points="401.5,-304 401.5,-334 563.5,-334 563.5,-304 401.5,-304"/>
<text text-anchor="start" x="409.5" y="-322" font-family="Helvetica,sans-Serif" font-size="10.00">AbstractCommand::supported</text>
<text text-anchor="middle" x="482.5" y="-311" font-family="Helvetica,sans-Serif" font-size="10.00">Options</text>
</a>
</g>
</g>
<!-- Node4&#45;&gt;Node20 -->
<g id="edge20" class="edge">
<title>Node4&#45;&gt;Node20</title>
<path fill="none" stroke="midnightblue" d="M312.55,-268.05C332.55,-274.63 356.4,-282.35 378,-289 391.17,-293.05 405.32,-297.25 418.8,-301.19"/>
<polygon fill="midnightblue" stroke="midnightblue" points="417.9,-304.57 428.48,-303.99 419.85,-297.85 417.9,-304.57"/>
</g>
<!-- Node21 -->
<g id="node21" class="node">
<title>Node21</title>
<g id="a_node21"><a target="_parent" xlink:href="https://doc.qt.io/qt-5/qstring.html#toLower" xlink:title=" ">
<polygon fill="none" stroke="black" points="433.5,-128.5 433.5,-147.5 531.5,-147.5 531.5,-128.5 433.5,-128.5"/>
<text text-anchor="middle" x="482.5" y="-135.5" font-family="Helvetica,sans-Serif" font-size="10.00">QString::toLower</text>
</a>
</g>
</g>
<!-- Node4&#45;&gt;Node21 -->
<g id="edge22" class="edge">
<title>Node4&#45;&gt;Node21</title>
<path fill="none" stroke="midnightblue" d="M280.41,-237.74C299.45,-216.31 337.23,-177.72 378,-158 392.06,-151.2 408.24,-146.71 423.57,-143.75"/>
<polygon fill="midnightblue" stroke="midnightblue" points="424.24,-147.19 433.49,-142.01 423.03,-140.29 424.24,-147.19"/>
</g>
<!-- Node4&#45;&gt;Node22 -->
<g id="edge23" class="edge">
<title>Node4&#45;&gt;Node22</title>
<path fill="none" stroke="midnightblue" d="M277.44,-237.78C291.77,-215.8 319.05,-173.87 342,-138 358.15,-112.76 353.18,-97.78 378,-81 395.4,-69.24 418.04,-64.21 437.71,-62.23"/>
<polygon fill="midnightblue" stroke="midnightblue" points="437.98,-65.72 447.68,-61.46 437.44,-58.75 437.98,-65.72"/>
</g>
<!-- Node4&#45;&gt;Node23 -->
<g id="edge24" class="edge">
<title>Node4&#45;&gt;Node23</title>
<path fill="none" stroke="midnightblue" d="M274.64,-237.71C296.3,-191.63 360.77,-56.42 378,-43 387.4,-35.68 398.63,-30.46 410.17,-26.75"/>
<polygon fill="midnightblue" stroke="midnightblue" points="411.24,-30.08 419.9,-23.97 409.32,-23.35 411.24,-30.08"/>
</g>
<!-- Node11 -->
<g id="node11" class="node">
<title>Node11</title>
<g id="a_node11"><a target="_parent" xlink:href="https://doc.qt.io/qt-5/qstring.html#chop" xlink:title=" ">
<polygon fill="none" stroke="black" points="659,-259.5 659,-278.5 741,-278.5 741,-259.5 659,-259.5"/>
<text text-anchor="middle" x="700" y="-266.5" font-family="Helvetica,sans-Serif" font-size="10.00">QString::chop</text>
</a>
</g>
</g>
<!-- Node10&#45;&gt;Node11 -->
<g id="edge11" class="edge">
<title>Node10&#45;&gt;Node11</title>
<path fill="none" stroke="midnightblue" d="M563.13,-245.04C591.8,-250.1 623.31,-255.65 648.77,-260.14"/>
<polygon fill="midnightblue" stroke="midnightblue" points="648.47,-263.64 658.92,-261.93 649.68,-256.75 648.47,-263.64"/>
</g>
<!-- Node12 -->
<g id="node12" class="node">
<title>Node12</title>
<g id="a_node12"><a target="_parent" xlink:href="https://doc.qt.io/qt-5/qstring.html#endsWith" xlink:title=" ">
<polygon fill="none" stroke="black" points="648,-221.5 648,-240.5 752,-240.5 752,-221.5 648,-221.5"/>
<text text-anchor="middle" x="700" y="-228.5" font-family="Helvetica,sans-Serif" font-size="10.00">QString::endsWith</text>
</a>
</g>
</g>
<!-- Node10&#45;&gt;Node12 -->
<g id="edge12" class="edge">
<title>Node10&#45;&gt;Node12</title>
<path fill="none" stroke="midnightblue" d="M563.13,-231C587.78,-231 614.54,-231 637.74,-231"/>
<polygon fill="midnightblue" stroke="midnightblue" points="637.79,-234.5 647.79,-231 637.79,-227.5 637.79,-234.5"/>
</g>
<!-- Node13 -->
<g id="node13" class="node">
<title>Node13</title>
<g id="a_node13"><a target="_parent" xlink:href="https://doc.qt.io/qt-5/qstring.html#isEmpty" xlink:title=" ">
<polygon fill="none" stroke="black" points="651,-183.5 651,-202.5 749,-202.5 749,-183.5 651,-183.5"/>
<text text-anchor="middle" x="700" y="-190.5" font-family="Helvetica,sans-Serif" font-size="10.00">QString::isEmpty</text>
</a>
</g>
</g>
<!-- Node10&#45;&gt;Node13 -->
<g id="edge13" class="edge">
<title>Node10&#45;&gt;Node13</title>
<path fill="none" stroke="midnightblue" d="M563.13,-216.96C588.94,-212.41 617.06,-207.45 640.99,-203.23"/>
<polygon fill="midnightblue" stroke="midnightblue" points="641.73,-206.65 650.97,-201.47 640.51,-199.76 641.73,-206.65"/>
</g>
<!-- Node14 -->
<g id="node14" class="node">
<title>Node14</title>
<g id="a_node14"><a target="_parent" xlink:href="https://doc.qt.io/qt-5/qstring.html#length" xlink:title=" ">
<polygon fill="none" stroke="black" points="655.5,-145.5 655.5,-164.5 744.5,-164.5 744.5,-145.5 655.5,-145.5"/>
<text text-anchor="middle" x="700" y="-152.5" font-family="Helvetica,sans-Serif" font-size="10.00">QString::length</text>
</a>
</g>
</g>
<!-- Node10&#45;&gt;Node14 -->
<g id="edge14" class="edge">
<title>Node10&#45;&gt;Node14</title>
<path fill="none" stroke="midnightblue" d="M563.02,-217.03C571.34,-214.26 579.49,-210.96 587,-207 606.2,-196.88 603.88,-184.28 623,-174 629.99,-170.24 637.74,-167.21 645.55,-164.77"/>
<polygon fill="midnightblue" stroke="midnightblue" points="646.74,-168.07 655.41,-161.98 644.83,-161.33 646.74,-168.07"/>
</g>
<!-- Node15 -->
<g id="node15" class="node">
<title>Node15</title>
<g id="a_node15"><a target="_parent" xlink:href="https://doc.qt.io/qt-5/qlocale.html#toDouble" xlink:title=" ">
<polygon fill="none" stroke="black" points="647,-107.5 647,-126.5 753,-126.5 753,-107.5 647,-107.5"/>
<text text-anchor="middle" x="700" y="-114.5" font-family="Helvetica,sans-Serif" font-size="10.00">QLocale::toDouble</text>
</a>
</g>
</g>
<!-- Node10&#45;&gt;Node15 -->
<g id="edge15" class="edge">
<title>Node10&#45;&gt;Node15</title>
<path fill="none" stroke="midnightblue" d="M563.12,-220.24C571.7,-216.9 579.89,-212.57 587,-207 614.85,-185.18 595.34,-158.06 623,-136 627.32,-132.55 632.18,-129.72 637.31,-127.4"/>
<polygon fill="midnightblue" stroke="midnightblue" points="638.69,-130.62 646.75,-123.74 636.16,-124.09 638.69,-130.62"/>
</g>
<!-- Node16 -->
<g id="node16" class="node">
<title>Node16</title>
<g id="a_node16"><a target="_parent" xlink:href="https://doc.qt.io/qt-5/qlocale.html#toUInt" xlink:title=" ">
<polygon fill="none" stroke="black" points="654,-69.5 654,-88.5 746,-88.5 746,-69.5 654,-69.5"/>
<text text-anchor="middle" x="700" y="-76.5" font-family="Helvetica,sans-Serif" font-size="10.00">QLocale::toUInt</text>
</a>
</g>
</g>
<!-- Node10&#45;&gt;Node16 -->
<g id="edge16" class="edge">
<title>Node10&#45;&gt;Node16</title>
<path fill="none" stroke="midnightblue" d="M563.21,-221.57C571.93,-218.02 580.12,-213.28 587,-207 624.68,-172.61 585.61,-132.72 623,-98 629.02,-92.41 636.44,-88.4 644.25,-85.53"/>
<polygon fill="midnightblue" stroke="midnightblue" points="645.37,-88.85 653.91,-82.58 643.32,-82.16 645.37,-88.85"/>
</g>
<!-- Node17 -->
<g id="node17" class="node">
<title>Node17</title>
<g id="a_node17"><a target="_parent" xlink:href="https://doc.qt.io/qt-5/qstring.html#trimmed" xlink:title=" ">
<polygon fill="none" stroke="black" points="649.5,-297.5 649.5,-316.5 750.5,-316.5 750.5,-297.5 649.5,-297.5"/>
<text text-anchor="middle" x="700" y="-304.5" font-family="Helvetica,sans-Serif" font-size="10.00">QString::trimmed</text>
</a>
</g>
</g>
<!-- Node10&#45;&gt;Node17 -->
<g id="edge17" class="edge">
<title>Node10&#45;&gt;Node17</title>
<path fill="none" stroke="midnightblue" d="M548.91,-246.07C561.86,-250.12 575.11,-255.07 587,-261 604.9,-269.93 604.94,-279.4 623,-288 628.27,-290.51 633.91,-292.71 639.65,-294.64"/>
<polygon fill="midnightblue" stroke="midnightblue" points="638.76,-298.03 649.35,-297.63 640.82,-291.34 638.76,-298.03"/>
</g>
<!-- Node20&#45;&gt;Node18 -->
<g id="edge21" class="edge">
<title>Node20&#45;&gt;Node18</title>
<path fill="none" stroke="midnightblue" d="M563.74,-330.92C579.8,-333.3 596.73,-335.81 612.97,-338.22"/>
<polygon fill="midnightblue" stroke="midnightblue" points="612.57,-341.7 622.98,-339.71 613.6,-334.78 612.57,-341.7"/>
</g>
</g>
</svg>
