<?xml version="1.0" encoding="UTF-8" standalone="no"?>
<!DOCTYPE svg PUBLIC "-//W3C//DTD SVG 1.1//EN"
 "http://www.w3.org/Graphics/SVG/1.1/DTD/svg11.dtd">
<!-- Generated by graphviz version 2.43.0 (0)
 -->
<!-- Title: SetNameCommand::start Pages: 1 -->
<svg width="372pt" height="134pt"
 viewBox="0.00 0.00 372.00 134.00" xmlns="http://www.w3.org/2000/svg" xmlns:xlink="http://www.w3.org/1999/xlink">
<g id="graph0" class="graph" transform="scale(1 1) rotate(0) translate(4 130)">
<title>SetNameCommand::start</title>
<!-- Node1 -->
<g id="node1" class="node">
<title>Node1</title>
<g id="a_node1"><a xlink:title="Begins scanning for Pokit devices.">
<polygon fill="#bfbfbf" stroke="black" points="0,-62.5 0,-81.5 140,-81.5 140,-62.5 0,-62.5"/>
<text text-anchor="middle" x="70" y="-69.5" font-family="Helvetica,sans-Serif" font-size="10.00">SetNameCommand::start</text>
</a>
</g>
</g>
<!-- Node2 -->
<g id="node2" class="node">
<title>Node2</title>
<g id="a_node2"><a xlink:href="classPokitDevice.html#a2e2fb6b30e6f5f0d7bc6cd8f806d6423" target="_top" xlink:title="Returns a non&#45;const pointer to the controller used to access the Pokit device.">
<polygon fill="none" stroke="black" points="206,-106.5 206,-125.5 334,-125.5 334,-106.5 206,-106.5"/>
<text text-anchor="middle" x="270" y="-113.5" font-family="Helvetica,sans-Serif" font-size="10.00">PokitDevice::controller</text>
</a>
</g>
</g>
<!-- Node1&#45;&gt;Node2 -->
<g id="edge1" class="edge">
<title>Node1&#45;&gt;Node2</title>
<path fill="none" stroke="midnightblue" d="M109.83,-81.56C129.6,-86.35 154.04,-92.14 176,-97 187.2,-99.48 199.19,-102.01 210.7,-104.39"/>
<polygon fill="midnightblue" stroke="midnightblue" points="210.17,-107.85 220.67,-106.43 211.58,-101 210.17,-107.85"/>
</g>
<!-- Node3 -->
<g id="node3" class="node">
<title>Node3</title>
<g id="a_node3"><a xlink:href="classSetNameCommand.html#a3d6d88c52edc3fed5d2326c6d0859b82" target="_top" xlink:title="Handles service detail discovery events.">
<polygon fill="none" stroke="black" points="176,-57 176,-87 364,-87 364,-57 176,-57"/>
<text text-anchor="start" x="184" y="-75" font-family="Helvetica,sans-Serif" font-size="10.00">SetNameCommand::serviceDetails</text>
<text text-anchor="middle" x="270" y="-64" font-family="Helvetica,sans-Serif" font-size="10.00">Discovered</text>
</a>
</g>
</g>
<!-- Node1&#45;&gt;Node3 -->
<g id="edge2" class="edge">
<title>Node1&#45;&gt;Node3</title>
<path fill="none" stroke="midnightblue" d="M140.25,-72C148.51,-72 157.07,-72 165.67,-72"/>
<polygon fill="midnightblue" stroke="midnightblue" points="165.78,-75.5 175.78,-72 165.78,-68.5 165.78,-75.5"/>
</g>
<!-- Node4 -->
<g id="node4" class="node">
<title>Node4</title>
<g id="a_node4"><a xlink:href="classPokitDevice.html#adaaaedcb434b3dda9608ad58192e9142" target="_top" xlink:title="Returns a pointer to StatusService instance that uses this device&#39;s controller for access.">
<polygon fill="none" stroke="black" points="214.5,-0.5 214.5,-19.5 325.5,-19.5 325.5,-0.5 214.5,-0.5"/>
<text text-anchor="middle" x="270" y="-7.5" font-family="Helvetica,sans-Serif" font-size="10.00">PokitDevice::status</text>
</a>
</g>
</g>
<!-- Node1&#45;&gt;Node4 -->
<g id="edge3" class="edge">
<title>Node1&#45;&gt;Node4</title>
<path fill="none" stroke="midnightblue" d="M101.5,-62.45C135.66,-51.75 191.15,-34.38 228.82,-22.58"/>
<polygon fill="midnightblue" stroke="midnightblue" points="229.96,-25.89 238.46,-19.56 227.87,-19.21 229.96,-25.89"/>
</g>
<!-- Node4&#45;&gt;Node4 -->
<g id="edge4" class="edge">
<title>Node4&#45;&gt;Node4</title>
<path fill="none" stroke="midnightblue" d="M239.17,-19.76C224.18,-28.57 234.45,-38 270,-38 294.99,-38 307.49,-33.34 307.5,-27.5"/>
<polygon fill="midnightblue" stroke="midnightblue" points="310,-25.05 300.83,-19.76 304.7,-29.62 310,-25.05"/>
</g>
</g>
</svg>
