<?xml version="1.0" encoding="UTF-8" standalone="no"?>
<!DOCTYPE svg PUBLIC "-//W3C//DTD SVG 1.1//EN"
 "http://www.w3.org/Graphics/SVG/1.1/DTD/svg11.dtd">
<!-- Generated by graphviz version 2.43.0 (0)
 -->
<!-- Title: InfoCommand::serviceDetailsDiscovered Pages: 1 -->
<svg width="517pt" height="665pt"
 viewBox="0.00 0.00 517.00 664.50" xmlns="http://www.w3.org/2000/svg" xmlns:xlink="http://www.w3.org/1999/xlink">
<g id="graph0" class="graph" transform="scale(1 1) rotate(0) translate(4 660.5)">
<title>InfoCommand::serviceDetailsDiscovered</title>
<!-- Node1 -->
<g id="Node000001" class="node">
<title>Node1</title>
<g id="a_Node000001"><a xlink:title="Handles service detail discovery events.">
<polygon fill="#999999" stroke="#666666" points="161,-355.5 0,-355.5 0,-325.5 161,-325.5 161,-355.5"/>
<text text-anchor="start" x="8" y="-343.5" font-family="Helvetica,sans-Serif" font-size="10.00">InfoCommand::serviceDetails</text>
<text text-anchor="middle" x="80.5" y="-332.5" font-family="Helvetica,sans-Serif" font-size="10.00">Discovered</text>
</a>
</g>
</g>
<!-- Node2 -->
<g id="Node000002" class="node">
<title>Node2</title>
<g id="a_Node000002"><a xlink:href="classDeviceCommand.html#ae619166395b5651f1316fd5336d9fa2c" target="_top" xlink:title="Disconnects the underlying Pokit device, and sets exitCode to be return to the OS once the disconnect...">
<polygon fill="white" stroke="#666666" points="364.5,-608 205.5,-608 205.5,-589 364.5,-589 364.5,-608"/>
<text text-anchor="middle" x="285" y="-596" font-family="Helvetica,sans-Serif" font-size="10.00">DeviceCommand::disconnect</text>
</a>
</g>
</g>
<!-- Node1&#45;&gt;Node2 -->
<g id="edge1_Node000001_Node000002" class="edge">
<title>Node1&#45;&gt;Node2</title>
<g id="a_edge1_Node000001_Node000002"><a xlink:title=" ">
<path fill="none" stroke="#63b8ff" d="M84.5,-355.76C93.51,-397.51 124.37,-514.46 197,-574.5 202.59,-579.12 209,-582.85 215.75,-585.87"/>
<polygon fill="#63b8ff" stroke="#63b8ff" points="223.19,-588.87 214.42,-589.21 219.48,-587.37 215.77,-585.88 215.77,-585.88 215.77,-585.88 219.48,-587.37 217.11,-582.54 223.19,-588.87 223.19,-588.87"/>
</a>
</g>
</g>
<!-- Node3 -->
<g id="Node000003" class="node">
<title>Node3</title>
<g id="a_Node000003"><a target="_parent" xlink:href="https://doc.qt.io/qt-5/qobject.html#tr" xlink:title=" ">
<polygon fill="white" stroke="#666666" points="493.5,-608 424.5,-608 424.5,-589 493.5,-589 493.5,-608"/>
<text text-anchor="middle" x="459" y="-596" font-family="Helvetica,sans-Serif" font-size="10.00">QObject::tr</text>
</a>
</g>
</g>
<!-- Node1&#45;&gt;Node3 -->
<g id="edge19_Node000001_Node000003" class="edge">
<title>Node1&#45;&gt;Node3</title>
<g id="a_edge19_Node000001_Node000003"><a xlink:title=" ">
<path fill="none" stroke="#63b8ff" d="M85.58,-355.73C96.58,-393.67 130.6,-492.87 197,-541.5 199.23,-543.13 342.9,-573.95 416.1,-589.57"/>
<polygon fill="#63b8ff" stroke="#63b8ff" points="424.24,-591.31 415.66,-593.16 420.32,-590.47 416.41,-589.64 416.41,-589.64 416.41,-589.64 420.32,-590.47 417.16,-586.12 424.24,-591.31 424.24,-591.31"/>
</a>
</g>
</g>
<!-- Node4 -->
<g id="Node000004" class="node">
<title>Node4</title>
<g id="a_Node000004"><a xlink:href="classAbstractCommand.html#af85c842568f8a3a893e336e449ef7813" target="_top" xlink:title="Returns an RFC 4180 compliant version of field.">
<polygon fill="white" stroke="#666666" points="368,-190.5 202,-190.5 202,-160.5 368,-160.5 368,-190.5"/>
<text text-anchor="start" x="210" y="-178.5" font-family="Helvetica,sans-Serif" font-size="10.00">AbstractCommand::escapeCsv</text>
<text text-anchor="middle" x="285" y="-167.5" font-family="Helvetica,sans-Serif" font-size="10.00">Field</text>
</a>
</g>
</g>
<!-- Node1&#45;&gt;Node4 -->
<g id="edge3_Node000001_Node000004" class="edge">
<title>Node1&#45;&gt;Node4</title>
<g id="a_edge3_Node000001_Node000004"><a xlink:title=" ">
<path fill="none" stroke="#63b8ff" d="M89.74,-325.14C106.16,-296.03 145.81,-232.81 197,-199.5 200.04,-197.52 203.24,-195.71 206.54,-194.04"/>
<polygon fill="#63b8ff" stroke="#63b8ff" points="213.93,-190.63 208.18,-197.25 210.3,-192.3 206.67,-193.98 206.67,-193.98 206.67,-193.98 210.3,-192.3 205.16,-190.72 213.93,-190.63 213.93,-190.63"/>
</a>
</g>
</g>
<!-- Node6 -->
<g id="Node000006" class="node">
<title>Node6</title>
<g id="a_Node000006"><a target="_parent" xlink:href="https://doc.qt.io/qt-5/qstring.html#fromLatin1" xlink:title=" ">
<polygon fill="white" stroke="#666666" points="341,-532 229,-532 229,-513 341,-513 341,-532"/>
<text text-anchor="middle" x="285" y="-520" font-family="Helvetica,sans-Serif" font-size="10.00">QString::fromLatin1</text>
</a>
</g>
</g>
<!-- Node1&#45;&gt;Node6 -->
<g id="edge5_Node000001_Node000006" class="edge">
<title>Node1&#45;&gt;Node6</title>
<g id="a_edge5_Node000001_Node000006"><a xlink:title=" ">
<path fill="none" stroke="#63b8ff" d="M87.51,-355.62C101.4,-388.47 139.06,-466.49 197,-504.5 204.21,-509.23 212.42,-512.75 220.84,-515.37"/>
<polygon fill="#63b8ff" stroke="#63b8ff" points="228.62,-517.52 219.95,-518.86 224.77,-516.46 220.91,-515.39 220.91,-515.39 220.91,-515.39 224.77,-516.46 221.87,-511.92 228.62,-517.52 228.62,-517.52"/>
</a>
</g>
</g>
<!-- Node7 -->
<g id="Node000007" class="node">
<title>Node7</title>
<g id="a_Node000007"><a target="_parent" xlink:href="https://doc.qt.io/qt-5/qstring.html#isEmpty" xlink:title=" ">
<polygon fill="white" stroke="#666666" points="334,-495 236,-495 236,-476 334,-476 334,-495"/>
<text text-anchor="middle" x="285" y="-483" font-family="Helvetica,sans-Serif" font-size="10.00">QString::isEmpty</text>
</a>
</g>
</g>
<!-- Node1&#45;&gt;Node7 -->
<g id="edge6_Node000001_Node000007" class="edge">
<title>Node1&#45;&gt;Node7</title>
<g id="a_edge6_Node000001_Node000007"><a xlink:title=" ">
<path fill="none" stroke="#63b8ff" d="M90.83,-355.7C108.18,-382.6 148.12,-438.39 197,-466.5 206.29,-471.84 216.93,-475.69 227.51,-478.45"/>
<polygon fill="#63b8ff" stroke="#63b8ff" points="235.56,-480.36 226.94,-482.02 231.67,-479.44 227.77,-478.51 227.77,-478.51 227.77,-478.51 231.67,-479.44 228.6,-475.01 235.56,-480.36 235.56,-480.36"/>
</a>
</g>
</g>
<!-- Node8 -->
<g id="Node000008" class="node">
<title>Node8</title>
<g id="a_Node000008"><a target="_parent" xlink:href="https://doc.qt.io/qt-5/qbluetoothaddress.html#isNull" xlink:title=" ">
<polygon fill="white" stroke="#666666" points="343,-457.5 227,-457.5 227,-427.5 343,-427.5 343,-457.5"/>
<text text-anchor="start" x="235" y="-445.5" font-family="Helvetica,sans-Serif" font-size="10.00">QBluetoothAddress::</text>
<text text-anchor="middle" x="285" y="-434.5" font-family="Helvetica,sans-Serif" font-size="10.00">isNull</text>
</a>
</g>
</g>
<!-- Node1&#45;&gt;Node8 -->
<g id="edge7_Node000001_Node000008" class="edge">
<title>Node1&#45;&gt;Node8</title>
<g id="a_edge7_Node000001_Node000008"><a xlink:title=" ">
<path fill="none" stroke="#63b8ff" d="M99.97,-355.79C121.87,-373.22 160.08,-401.5 197,-418.5 204.04,-421.74 211.62,-424.63 219.25,-427.18"/>
<polygon fill="#63b8ff" stroke="#63b8ff" points="226.89,-429.61 218.17,-430.61 223.08,-428.4 219.27,-427.18 219.27,-427.18 219.27,-427.18 223.08,-428.4 220.36,-423.75 226.89,-429.61 226.89,-429.61"/>
</a>
</g>
</g>
<!-- Node9 -->
<g id="Node000009" class="node">
<title>Node9</title>
<g id="a_Node000009"><a target="_parent" xlink:href="https://doc.qt.io/qt-5/qstring.html#isNull" xlink:title=" ">
<polygon fill="white" stroke="#666666" points="328,-409 242,-409 242,-390 328,-390 328,-409"/>
<text text-anchor="middle" x="285" y="-397" font-family="Helvetica,sans-Serif" font-size="10.00">QString::isNull</text>
</a>
</g>
</g>
<!-- Node1&#45;&gt;Node9 -->
<g id="edge8_Node000001_Node000009" class="edge">
<title>Node1&#45;&gt;Node9</title>
<g id="a_edge8_Node000001_Node000009"><a xlink:title=" ">
<path fill="none" stroke="#63b8ff" d="M119.58,-355.5C141.89,-363.92 170.77,-374.17 197,-381.5 208.82,-384.8 221.7,-387.79 233.83,-390.34"/>
<polygon fill="#63b8ff" stroke="#63b8ff" points="241.68,-391.96 233.12,-393.87 237.76,-391.15 233.84,-390.35 233.84,-390.35 233.84,-390.35 237.76,-391.15 234.57,-386.82 241.68,-391.96 241.68,-391.96"/>
</a>
</g>
</g>
<!-- Node10 -->
<g id="Node000010" class="node">
<title>Node10</title>
<g id="a_Node000010"><a target="_parent" xlink:href="https://doc.qt.io/qt-5/quuid.html#isNull" xlink:title=" ">
<polygon fill="white" stroke="#666666" points="325,-372 245,-372 245,-353 325,-353 325,-372"/>
<text text-anchor="middle" x="285" y="-360" font-family="Helvetica,sans-Serif" font-size="10.00">QUuid::isNull</text>
</a>
</g>
</g>
<!-- Node1&#45;&gt;Node10 -->
<g id="edge9_Node000001_Node000010" class="edge">
<title>Node1&#45;&gt;Node10</title>
<g id="a_edge9_Node000001_Node000010"><a xlink:title=" ">
<path fill="none" stroke="#63b8ff" d="M161.24,-349.16C186.87,-351.95 214.43,-354.94 236.93,-357.39"/>
<polygon fill="#63b8ff" stroke="#63b8ff" points="244.97,-358.26 236.63,-360.97 241,-357.83 237.02,-357.4 237.02,-357.4 237.02,-357.4 241,-357.83 237.41,-353.82 244.97,-358.26 244.97,-358.26"/>
</a>
</g>
</g>
<!-- Node11 -->
<g id="Node000011" class="node">
<title>Node11</title>
<g id="a_Node000011"><a target="_parent" xlink:href="https://doc.qt.io/qt-5/qlowenergycontroller.html#remoteAddress" xlink:title=" ">
<polygon fill="white" stroke="#666666" points="347.5,-334.5 222.5,-334.5 222.5,-304.5 347.5,-304.5 347.5,-334.5"/>
<text text-anchor="start" x="230.5" y="-322.5" font-family="Helvetica,sans-Serif" font-size="10.00">QLowEnergyController</text>
<text text-anchor="middle" x="285" y="-311.5" font-family="Helvetica,sans-Serif" font-size="10.00">::remoteAddress</text>
</a>
</g>
</g>
<!-- Node1&#45;&gt;Node11 -->
<g id="edge10_Node000001_Node000011" class="edge">
<title>Node1&#45;&gt;Node11</title>
<g id="a_edge10_Node000001_Node000011"><a xlink:title=" ">
<path fill="none" stroke="#63b8ff" d="M161.24,-332.23C178.74,-330.42 197.14,-328.51 214.22,-326.74"/>
<polygon fill="#63b8ff" stroke="#63b8ff" points="222.48,-325.88 214.9,-330.29 218.5,-326.29 214.53,-326.7 214.53,-326.7 214.53,-326.7 218.5,-326.29 214.15,-323.12 222.48,-325.88 222.48,-325.88"/>
</a>
</g>
</g>
<!-- Node12 -->
<g id="Node000012" class="node">
<title>Node12</title>
<g id="a_Node000012"><a target="_parent" xlink:href="https://doc.qt.io/qt-5/qlowenergycontroller.html#remoteDeviceUuid" xlink:title=" ">
<polygon fill="white" stroke="#666666" points="347.5,-286.5 222.5,-286.5 222.5,-256.5 347.5,-256.5 347.5,-286.5"/>
<text text-anchor="start" x="230.5" y="-274.5" font-family="Helvetica,sans-Serif" font-size="10.00">QLowEnergyController</text>
<text text-anchor="middle" x="285" y="-263.5" font-family="Helvetica,sans-Serif" font-size="10.00">::remoteDeviceUuid</text>
</a>
</g>
</g>
<!-- Node1&#45;&gt;Node12 -->
<g id="edge11_Node000001_Node000012" class="edge">
<title>Node1&#45;&gt;Node12</title>
<g id="a_edge11_Node000001_Node000012"><a xlink:title=" ">
<path fill="none" stroke="#63b8ff" d="M117.31,-325.46C139.95,-316.22 169.94,-304.48 197,-295.5 203.88,-293.22 211.12,-290.98 218.35,-288.84"/>
<polygon fill="#63b8ff" stroke="#63b8ff" points="226.19,-286.55 219.51,-292.25 222.35,-287.67 218.51,-288.79 218.51,-288.79 218.51,-288.79 222.35,-287.67 217.5,-285.33 226.19,-286.55 226.19,-286.55"/>
</a>
</g>
</g>
<!-- Node13 -->
<g id="Node000013" class="node">
<title>Node13</title>
<g id="a_Node000013"><a target="_parent" xlink:href="https://doc.qt.io/qt-5/qlowenergycontroller.html#remoteName" xlink:title=" ">
<polygon fill="white" stroke="#666666" points="347.5,-238.5 222.5,-238.5 222.5,-208.5 347.5,-208.5 347.5,-238.5"/>
<text text-anchor="start" x="230.5" y="-226.5" font-family="Helvetica,sans-Serif" font-size="10.00">QLowEnergyController</text>
<text text-anchor="middle" x="285" y="-215.5" font-family="Helvetica,sans-Serif" font-size="10.00">::remoteName</text>
</a>
</g>
</g>
<!-- Node1&#45;&gt;Node13 -->
<g id="edge12_Node000001_Node000013" class="edge">
<title>Node1&#45;&gt;Node13</title>
<g id="a_edge12_Node000001_Node000013"><a xlink:title=" ">
<path fill="none" stroke="#63b8ff" d="M96.12,-325.33C116.76,-304.78 156.45,-268.28 197,-247.5 202.59,-244.64 208.56,-242.08 214.66,-239.81"/>
<polygon fill="#63b8ff" stroke="#63b8ff" points="222.43,-237.08 216.07,-243.13 218.65,-238.4 214.88,-239.73 214.88,-239.73 214.88,-239.73 218.65,-238.4 213.69,-236.33 222.43,-237.08 222.43,-237.08"/>
</a>
</g>
</g>
<!-- Node14 -->
<g id="Node000014" class="node">
<title>Node14</title>
<g id="a_Node000014"><a xlink:href="classDeviceCommand.html#a906fd97d832be0e8d2ba1c917fba41db" target="_top" xlink:title="Handles service detail discovery events.">
<polygon fill="white" stroke="#666666" points="373,-656.5 197,-656.5 197,-626.5 373,-626.5 373,-656.5"/>
<text text-anchor="start" x="205" y="-644.5" font-family="Helvetica,sans-Serif" font-size="10.00">DeviceCommand::serviceDetails</text>
<text text-anchor="middle" x="285" y="-633.5" font-family="Helvetica,sans-Serif" font-size="10.00">Discovered</text>
</a>
</g>
</g>
<!-- Node1&#45;&gt;Node14 -->
<g id="edge13_Node000001_Node000014" class="edge">
<title>Node1&#45;&gt;Node14</title>
<g id="a_edge13_Node000001_Node000014"><a xlink:title=" ">
<path fill="none" stroke="#63b8ff" d="M83.22,-355.76C89.31,-402.43 114.14,-544.46 197,-617.5 198.82,-619.1 200.73,-620.6 202.73,-622"/>
<polygon fill="#63b8ff" stroke="#63b8ff" points="209.79,-626.38 201.1,-625.22 206.39,-624.27 202.99,-622.16 202.99,-622.16 202.99,-622.16 206.39,-624.27 204.89,-619.1 209.79,-626.38 209.79,-626.38"/>
</a>
</g>
</g>
<!-- Node15 -->
<g id="Node000015" class="node">
<title>Node15</title>
<g id="a_Node000015"><a target="_parent" xlink:href="https://doc.qt.io/qt-5/qjsondocument.html#toJson" xlink:title=" ">
<polygon fill="white" stroke="#666666" points="350.5,-142 219.5,-142 219.5,-123 350.5,-123 350.5,-142"/>
<text text-anchor="middle" x="285" y="-130" font-family="Helvetica,sans-Serif" font-size="10.00">QJsonDocument::toJson</text>
</a>
</g>
</g>
<!-- Node1&#45;&gt;Node15 -->
<g id="edge15_Node000001_Node000015" class="edge">
<title>Node1&#45;&gt;Node15</title>
<g id="a_edge15_Node000001_Node000015"><a xlink:title=" ">
<path fill="none" stroke="#63b8ff" d="M86.12,-325.37C98.04,-289.09 133.4,-196.77 197,-151.5 201.48,-148.31 206.41,-145.64 211.55,-143.4"/>
<polygon fill="#63b8ff" stroke="#63b8ff" points="219.24,-140.43 213.07,-146.67 215.5,-141.87 211.77,-143.32 211.77,-143.32 211.77,-143.32 215.5,-141.87 210.48,-139.96 219.24,-140.43 219.24,-140.43"/>
</a>
</g>
</g>
<!-- Node16 -->
<g id="Node000016" class="node">
<title>Node16</title>
<g id="a_Node000016"><a target="_parent" xlink:href="https://doc.qt.io/qt-5/qbytearray.html#toStdString" xlink:title=" ">
<polygon fill="white" stroke="#666666" points="351,-105 219,-105 219,-86 351,-86 351,-105"/>
<text text-anchor="middle" x="285" y="-93" font-family="Helvetica,sans-Serif" font-size="10.00">QByteArray::toStdString</text>
</a>
</g>
</g>
<!-- Node1&#45;&gt;Node16 -->
<g id="edge16_Node000001_Node000016" class="edge">
<title>Node1&#45;&gt;Node16</title>
<g id="a_edge16_Node000001_Node000016"><a xlink:title=" ">
<path fill="none" stroke="#63b8ff" d="M84.45,-325.44C93.34,-284.29 123.9,-169.31 197,-113.5 201.37,-110.17 206.2,-107.41 211.29,-105.14"/>
<polygon fill="#63b8ff" stroke="#63b8ff" points="218.9,-102.15 212.77,-108.43 215.18,-103.61 211.46,-105.08 211.46,-105.08 211.46,-105.08 215.18,-103.61 210.14,-101.73 218.9,-102.15 218.9,-102.15"/>
</a>
</g>
</g>
<!-- Node17 -->
<g id="Node000017" class="node">
<title>Node17</title>
<g id="a_Node000017"><a target="_parent" xlink:href="https://doc.qt.io/qt-5/qbluetoothaddress.html#toString" xlink:title=" ">
<polygon fill="white" stroke="#666666" points="343,-67.5 227,-67.5 227,-37.5 343,-37.5 343,-67.5"/>
<text text-anchor="start" x="235" y="-55.5" font-family="Helvetica,sans-Serif" font-size="10.00">QBluetoothAddress::</text>
<text text-anchor="middle" x="285" y="-44.5" font-family="Helvetica,sans-Serif" font-size="10.00">toString</text>
</a>
</g>
</g>
<!-- Node1&#45;&gt;Node17 -->
<g id="edge17_Node000001_Node000017" class="edge">
<title>Node1&#45;&gt;Node17</title>
<g id="a_edge17_Node000001_Node000017"><a xlink:title=" ">
<path fill="none" stroke="#63b8ff" d="M83.56,-325.3C90.49,-280.14 117.21,-145.61 197,-76.5 203.53,-70.85 211.28,-66.51 219.42,-63.2"/>
<polygon fill="#63b8ff" stroke="#63b8ff" points="226.99,-60.43 220.72,-66.56 223.23,-61.8 219.48,-63.18 219.48,-63.18 219.48,-63.18 223.23,-61.8 218.24,-59.8 226.99,-60.43 226.99,-60.43"/>
</a>
</g>
</g>
<!-- Node18 -->
<g id="Node000018" class="node">
<title>Node18</title>
<g id="a_Node000018"><a target="_parent" xlink:href="https://doc.qt.io/qt-5/quuid.html#toString" xlink:title=" ">
<polygon fill="white" stroke="#666666" points="330.5,-19 239.5,-19 239.5,0 330.5,0 330.5,-19"/>
<text text-anchor="middle" x="285" y="-7" font-family="Helvetica,sans-Serif" font-size="10.00">QUuid::toString</text>
</a>
</g>
</g>
<!-- Node1&#45;&gt;Node18 -->
<g id="edge18_Node000001_Node000018" class="edge">
<title>Node1&#45;&gt;Node18</title>
<g id="a_edge18_Node000001_Node000018"><a xlink:title=" ">
<path fill="none" stroke="#63b8ff" d="M82.23,-325.32C85.51,-274.66 103.28,-109.98 197,-28.5 206.57,-20.18 218.94,-15.24 231.33,-12.37"/>
<polygon fill="#63b8ff" stroke="#63b8ff" points="239.45,-10.77 232.3,-15.85 235.53,-11.54 231.6,-12.32 231.6,-12.32 231.6,-12.32 235.53,-11.54 230.91,-8.78 239.45,-10.77 239.45,-10.77"/>
</a>
</g>
</g>
<!-- Node2&#45;&gt;Node3 -->
<g id="edge2_Node000002_Node000003" class="edge">
<title>Node2&#45;&gt;Node3</title>
<g id="a_edge2_Node000002_Node000003"><a xlink:title=" ">
<path fill="none" stroke="#63b8ff" d="M364.7,-598.5C382.32,-598.5 400.34,-598.5 415.79,-598.5"/>
<polygon fill="#63b8ff" stroke="#63b8ff" points="424.09,-598.5 416.09,-602.1 420.09,-598.5 416.09,-598.5 416.09,-598.5 416.09,-598.5 420.09,-598.5 416.09,-594.9 424.09,-598.5 424.09,-598.5"/>
</a>
</g>
</g>
<!-- Node5 -->
<g id="Node000005" class="node">
<title>Node5</title>
<g id="a_Node000005"><a target="_parent" xlink:href="https://doc.qt.io/qt-5/qstring.html#contains-1" xlink:title=" ">
<polygon fill="white" stroke="#666666" points="509,-185 409,-185 409,-166 509,-166 509,-185"/>
<text text-anchor="middle" x="459" y="-173" font-family="Helvetica,sans-Serif" font-size="10.00">QString::contains</text>
</a>
</g>
</g>
<!-- Node4&#45;&gt;Node5 -->
<g id="edge4_Node000004_Node000005" class="edge">
<title>Node4&#45;&gt;Node5</title>
<g id="a_edge4_Node000004_Node000005"><a xlink:title=" ">
<path fill="none" stroke="#63b8ff" d="M368.22,-175.5C379.13,-175.5 390.11,-175.5 400.48,-175.5"/>
<polygon fill="#63b8ff" stroke="#63b8ff" points="408.64,-175.5 400.64,-179.1 404.64,-175.5 400.64,-175.5 400.64,-175.5 400.64,-175.5 404.64,-175.5 400.64,-171.9 408.64,-175.5 408.64,-175.5"/>
</a>
</g>
</g>
<!-- Node14&#45;&gt;Node3 -->
<g id="edge14_Node000014_Node000003" class="edge">
<title>Node14&#45;&gt;Node3</title>
<g id="a_edge14_Node000014_Node000003"><a xlink:title=" ">
<path fill="none" stroke="#63b8ff" d="M346.16,-626.46C369.35,-620.66 395.31,-614.17 416.37,-608.91"/>
<polygon fill="#63b8ff" stroke="#63b8ff" points="424.19,-606.95 417.3,-612.38 420.31,-607.92 416.43,-608.89 416.43,-608.89 416.43,-608.89 420.31,-607.92 415.56,-605.4 424.19,-606.95 424.19,-606.95"/>
</a>
</g>
</g>
</g>
</svg>
