<?xml version="1.0" encoding="UTF-8" standalone="no"?>
<!DOCTYPE svg PUBLIC "-//W3C//DTD SVG 1.1//EN"
 "http://www.w3.org/Graphics/SVG/1.1/DTD/svg11.dtd">
<!-- Generated by graphviz version 2.43.0 (0)
 -->
<!-- Title: FlashLedCommand::processOptions Pages: 1 -->
<svg width="754pt" height="459pt"
 viewBox="0.00 0.00 754.00 458.50" xmlns="http://www.w3.org/2000/svg" xmlns:xlink="http://www.w3.org/1999/xlink">
<g id="graph0" class="graph" transform="scale(1 1) rotate(0) translate(4 454.5)">
<title>FlashLedCommand::processOptions</title>
<!-- Node1 -->
<g id="Node000001" class="node">
<title>Node1</title>
<g id="a_Node000001"><a xlink:title="Processes the relevant options from the command line parser.">
<polygon fill="#999999" stroke="#666666" points="154,-255 0,-255 0,-225 154,-225 154,-255"/>
<text text-anchor="start" x="8" y="-243" font-family="Helvetica,sans-Serif" font-size="10.00">FlashLedCommand::process</text>
<text text-anchor="middle" x="77" y="-232" font-family="Helvetica,sans-Serif" font-size="10.00">Options</text>
</a>
</g>
</g>
<!-- Node2 -->
<g id="Node000002" class="node">
<title>Node2</title>
<g id="a_Node000002"><a target="_parent" xlink:href="https://doc.qt.io/qt-5/qlist.html#isEmpty" xlink:title=" ">
<polygon fill="white" stroke="#666666" points="309,-271.5 222,-271.5 222,-252.5 309,-252.5 309,-271.5"/>
<text text-anchor="middle" x="265.5" y="-259.5" font-family="Helvetica,sans-Serif" font-size="10.00">QList::isEmpty</text>
</a>
</g>
</g>
<!-- Node1&#45;&gt;Node2 -->
<g id="edge1_Node000001_Node000002" class="edge">
<title>Node1&#45;&gt;Node2</title>
<g id="a_edge1_Node000001_Node000002"><a xlink:title=" ">
<path fill="none" stroke="#63b8ff" d="M154.13,-248.98C174.13,-251.34 195.22,-253.83 213.54,-255.99"/>
<polygon fill="#63b8ff" stroke="#63b8ff" points="221.75,-256.96 213.39,-259.6 217.78,-256.49 213.81,-256.02 213.81,-256.02 213.81,-256.02 217.78,-256.49 214.23,-252.45 221.75,-256.96 221.75,-256.96"/>
</a>
</g>
</g>
<!-- Node3 -->
<g id="Node000003" class="node">
<title>Node3</title>
<g id="a_Node000003"><a xlink:href="classAbstractCommand.html#ad827a18a24776efeb955739459d48f7d" target="_top" xlink:title="Processes the relevant options from the command line parser.">
<polygon fill="white" stroke="#666666" points="341,-234 190,-234 190,-204 341,-204 341,-234"/>
<text text-anchor="start" x="198" y="-222" font-family="Helvetica,sans-Serif" font-size="10.00">AbstractCommand::process</text>
<text text-anchor="middle" x="265.5" y="-211" font-family="Helvetica,sans-Serif" font-size="10.00">Options</text>
</a>
</g>
</g>
<!-- Node1&#45;&gt;Node3 -->
<g id="edge2_Node000001_Node000003" class="edge">
<title>Node1&#45;&gt;Node3</title>
<g id="a_edge2_Node000001_Node000003"><a xlink:title=" ">
<path fill="none" stroke="#63b8ff" d="M154.13,-231.43C163.24,-230.4 172.58,-229.35 181.78,-228.31"/>
<polygon fill="#63b8ff" stroke="#63b8ff" points="189.82,-227.41 182.28,-231.88 185.85,-227.86 181.87,-228.3 181.87,-228.3 181.87,-228.3 185.85,-227.86 181.47,-224.73 189.82,-227.41 189.82,-227.41"/>
</a>
</g>
</g>
<!-- Node4 -->
<g id="Node000004" class="node">
<title>Node4</title>
<g id="a_Node000004"><a target="_parent" xlink:href="https://doc.qt.io/qt-5/qlist.html#append" xlink:title=" ">
<polygon fill="white" stroke="#666666" points="508,-436.5 425,-436.5 425,-417.5 508,-417.5 508,-436.5"/>
<text text-anchor="middle" x="466.5" y="-424.5" font-family="Helvetica,sans-Serif" font-size="10.00">QList::append</text>
</a>
</g>
</g>
<!-- Node3&#45;&gt;Node4 -->
<g id="edge3_Node000003_Node000004" class="edge">
<title>Node3&#45;&gt;Node4</title>
<g id="a_edge3_Node000003_Node000004"><a xlink:title=" ">
<path fill="none" stroke="#63b8ff" d="M329.03,-234.11C333.46,-236.88 337.54,-240.14 341,-244 391.11,-299.89 323.55,-356.3 377,-409 387.55,-419.4 402.37,-424.58 416.87,-426.97"/>
<polygon fill="#63b8ff" stroke="#63b8ff" points="424.87,-428.02 416.46,-430.54 420.9,-427.5 416.94,-426.98 416.94,-426.98 416.94,-426.98 420.9,-427.5 417.41,-423.41 424.87,-428.02 424.87,-428.02"/>
</a>
</g>
</g>
<!-- Node5 -->
<g id="Node000005" class="node">
<title>Node5</title>
<g id="a_Node000005"><a target="_parent" xlink:href="https://doc.qt.io/qt-5/qstring.html#arg-1" xlink:title=" ">
<polygon fill="white" stroke="#666666" points="503.5,-399.5 429.5,-399.5 429.5,-380.5 503.5,-380.5 503.5,-399.5"/>
<text text-anchor="middle" x="466.5" y="-387.5" font-family="Helvetica,sans-Serif" font-size="10.00">QString::arg</text>
</a>
</g>
</g>
<!-- Node3&#45;&gt;Node5 -->
<g id="edge4_Node000003_Node000005" class="edge">
<title>Node3&#45;&gt;Node5</title>
<g id="a_edge4_Node000003_Node000005"><a xlink:title=" ">
<path fill="none" stroke="#63b8ff" d="M328.43,-234.13C333.05,-236.89 337.33,-240.15 341,-244 381.74,-286.81 333.71,-331.78 377,-372 388.84,-383 405.48,-388.06 421.15,-390.18"/>
<polygon fill="#63b8ff" stroke="#63b8ff" points="429.22,-391.04 420.88,-393.77 425.24,-390.61 421.26,-390.19 421.26,-390.19 421.26,-390.19 425.24,-390.61 421.64,-386.61 429.22,-391.04 429.22,-391.04"/>
</a>
</g>
</g>
<!-- Node6 -->
<g id="Node000006" class="node">
<title>Node6</title>
<g id="a_Node000006"><a target="_parent" xlink:href="https://doc.qt.io/qt-5/qstringlist.html#contains" xlink:title=" ">
<polygon fill="white" stroke="#666666" points="525,-362.5 408,-362.5 408,-343.5 525,-343.5 525,-362.5"/>
<text text-anchor="middle" x="466.5" y="-350.5" font-family="Helvetica,sans-Serif" font-size="10.00">QStringList::contains</text>
</a>
</g>
</g>
<!-- Node3&#45;&gt;Node6 -->
<g id="edge5_Node000003_Node000006" class="edge">
<title>Node3&#45;&gt;Node6</title>
<g id="a_edge5_Node000003_Node000006"><a xlink:title=" ">
<path fill="none" stroke="#63b8ff" d="M327.28,-234.15C332.26,-236.91 336.93,-240.16 341,-244 372.32,-273.59 344.07,-306.22 377,-334 383.71,-339.66 391.71,-343.76 400.12,-346.7"/>
<polygon fill="#63b8ff" stroke="#63b8ff" points="407.93,-349.1 399.22,-350.19 404.1,-347.92 400.28,-346.75 400.28,-346.75 400.28,-346.75 404.1,-347.92 401.33,-343.31 407.93,-349.1 407.93,-349.1"/>
</a>
</g>
</g>
<!-- Node7 -->
<g id="Node000007" class="node">
<title>Node7</title>
<g id="a_Node000007"><a target="_parent" xlink:href="https://doc.qt.io/qt-5/qcommandlineparser.html#isSet" xlink:title=" ">
<polygon fill="white" stroke="#666666" points="529,-325 404,-325 404,-295 529,-295 529,-325"/>
<text text-anchor="start" x="412" y="-313" font-family="Helvetica,sans-Serif" font-size="10.00">QCommandLineParser</text>
<text text-anchor="middle" x="466.5" y="-302" font-family="Helvetica,sans-Serif" font-size="10.00">::isSet</text>
</a>
</g>
</g>
<!-- Node3&#45;&gt;Node7 -->
<g id="edge6_Node000003_Node000007" class="edge">
<title>Node3&#45;&gt;Node7</title>
<g id="a_edge6_Node000003_Node000007"><a xlink:title=" ">
<path fill="none" stroke="#63b8ff" d="M322.6,-234.11C329.05,-236.91 335.34,-240.19 341,-244 361.39,-257.74 356.22,-272.87 377,-286 382.9,-289.73 389.38,-292.88 396.06,-295.55"/>
<polygon fill="#63b8ff" stroke="#63b8ff" points="403.97,-298.47 395.22,-299.08 400.22,-297.08 396.46,-295.7 396.46,-295.7 396.46,-295.7 400.22,-297.08 397.71,-292.32 403.97,-298.47 403.97,-298.47"/>
</a>
</g>
</g>
<!-- Node8 -->
<g id="Node000008" class="node">
<title>Node8</title>
<g id="a_Node000008"><a target="_parent" xlink:href="https://doc.qt.io/qt-5/qcommandlineparser.html#optionNames" xlink:title=" ">
<polygon fill="white" stroke="#666666" points="529,-277 404,-277 404,-247 529,-247 529,-277"/>
<text text-anchor="start" x="412" y="-265" font-family="Helvetica,sans-Serif" font-size="10.00">QCommandLineParser</text>
<text text-anchor="middle" x="466.5" y="-254" font-family="Helvetica,sans-Serif" font-size="10.00">::optionNames</text>
</a>
</g>
</g>
<!-- Node3&#45;&gt;Node8 -->
<g id="edge7_Node000003_Node000008" class="edge">
<title>Node3&#45;&gt;Node8</title>
<g id="a_edge7_Node000003_Node000008"><a xlink:title=" ">
<path fill="none" stroke="#63b8ff" d="M336.1,-234.04C355.51,-238.23 376.59,-242.79 395.99,-246.98"/>
<polygon fill="#63b8ff" stroke="#63b8ff" points="403.9,-248.69 395.32,-250.52 399.99,-247.85 396.08,-247 396.08,-247 396.08,-247 399.99,-247.85 396.84,-243.48 403.9,-248.69 403.9,-248.69"/>
</a>
</g>
</g>
<!-- Node9 -->
<g id="Node000009" class="node">
<title>Node9</title>
<g id="a_Node000009"><a xlink:href="classAbstractCommand.html#a29b2a2446ef034195183a2ae9d4bb911" target="_top" xlink:title="Returns value as an integer multiple of the ratio R.">
<polygon fill="white" stroke="#666666" points="556,-228.5 377,-228.5 377,-209.5 556,-209.5 556,-228.5"/>
<text text-anchor="middle" x="466.5" y="-216.5" font-family="Helvetica,sans-Serif" font-size="10.00">AbstractCommand::parseNumber</text>
</a>
</g>
</g>
<!-- Node3&#45;&gt;Node9 -->
<g id="edge8_Node000003_Node000009" class="edge">
<title>Node3&#45;&gt;Node9</title>
<g id="a_edge8_Node000003_Node000009"><a xlink:title=" ">
<path fill="none" stroke="#63b8ff" d="M341.17,-219C350.12,-219 359.37,-219 368.58,-219"/>
<polygon fill="#63b8ff" stroke="#63b8ff" points="376.66,-219 368.66,-222.6 372.66,-219 368.66,-219 368.66,-219 368.66,-219 372.66,-219 368.66,-215.4 376.66,-219 376.66,-219"/>
</a>
</g>
</g>
<!-- Node21 -->
<g id="Node000021" class="node">
<title>Node21</title>
<g id="a_Node000021"><a xlink:href="classAbstractCommand.html#afd6f41cfc925751415cfa45e3b2d0b4a" target="_top" xlink:title="Returns a list of CLI option names required by this command.">
<polygon fill="white" stroke="#666666" points="746,-43 592,-43 592,-13 746,-13 746,-43"/>
<text text-anchor="start" x="600" y="-31" font-family="Helvetica,sans-Serif" font-size="10.00">AbstractCommand::required</text>
<text text-anchor="middle" x="669" y="-20" font-family="Helvetica,sans-Serif" font-size="10.00">Options</text>
</a>
</g>
</g>
<!-- Node3&#45;&gt;Node21 -->
<g id="edge20_Node000003_Node000021" class="edge">
<title>Node3&#45;&gt;Node21</title>
<g id="a_edge20_Node000003_Node000021"><a xlink:title=" ">
<path fill="none" stroke="#63b8ff" d="M341.27,-206.21C424.33,-191.72 547.9,-169.17 556,-162 594.52,-127.91 555.44,-88.18 592,-52 593.51,-50.51 595.1,-49.11 596.78,-47.8"/>
<polygon fill="#63b8ff" stroke="#63b8ff" points="603.57,-43.16 598.99,-50.65 600.27,-45.42 596.96,-47.67 596.96,-47.67 596.96,-47.67 600.27,-45.42 594.93,-44.7 603.57,-43.16 603.57,-43.16"/>
</a>
</g>
</g>
<!-- Node22 -->
<g id="Node000022" class="node">
<title>Node22</title>
<g id="a_Node000022"><a xlink:href="classAbstractCommand.html#a1ceca3c5b4cb24277dd4d4054f45db18" target="_top" xlink:title="Returns a list of CLI option names supported by this command.">
<polygon fill="white" stroke="#666666" points="547.5,-153 385.5,-153 385.5,-123 547.5,-123 547.5,-153"/>
<text text-anchor="start" x="393.5" y="-141" font-family="Helvetica,sans-Serif" font-size="10.00">AbstractCommand::supported</text>
<text text-anchor="middle" x="466.5" y="-130" font-family="Helvetica,sans-Serif" font-size="10.00">Options</text>
</a>
</g>
</g>
<!-- Node3&#45;&gt;Node22 -->
<g id="edge21_Node000003_Node000022" class="edge">
<title>Node3&#45;&gt;Node22</title>
<g id="a_edge21_Node000003_Node000022"><a xlink:title=" ">
<path fill="none" stroke="#63b8ff" d="M296.08,-203.86C318.08,-192.9 349.02,-178.12 377,-167 386.94,-163.05 397.65,-159.21 408.07,-155.68"/>
<polygon fill="#63b8ff" stroke="#63b8ff" points="415.96,-153.04 409.51,-158.99 412.17,-154.31 408.37,-155.57 408.37,-155.57 408.37,-155.57 412.17,-154.31 407.23,-152.16 415.96,-153.04 415.96,-153.04"/>
</a>
</g>
</g>
<!-- Node23 -->
<g id="Node000023" class="node">
<title>Node23</title>
<g id="a_Node000023"><a target="_parent" xlink:href="https://doc.qt.io/qt-5/qstring.html#toLower" xlink:title=" ">
<polygon fill="white" stroke="#666666" points="515.5,-104.5 417.5,-104.5 417.5,-85.5 515.5,-85.5 515.5,-104.5"/>
<text text-anchor="middle" x="466.5" y="-92.5" font-family="Helvetica,sans-Serif" font-size="10.00">QString::toLower</text>
</a>
</g>
</g>
<!-- Node3&#45;&gt;Node23 -->
<g id="edge23_Node000003_Node000023" class="edge">
<title>Node3&#45;&gt;Node23</title>
<g id="a_edge23_Node000003_Node000023"><a xlink:title=" ">
<path fill="none" stroke="#63b8ff" d="M277.88,-203.77C296.11,-180.55 334.17,-136.61 377,-114 386.95,-108.75 398.26,-104.95 409.39,-102.19"/>
<polygon fill="#63b8ff" stroke="#63b8ff" points="417.44,-100.37 410.44,-105.65 413.54,-101.26 409.64,-102.14 409.64,-102.14 409.64,-102.14 413.54,-101.26 408.85,-98.63 417.44,-100.37 417.44,-100.37"/>
</a>
</g>
</g>
<!-- Node24 -->
<g id="Node000024" class="node">
<title>Node24</title>
<g id="a_Node000024"><a target="_parent" xlink:href="https://doc.qt.io/qt-5/qobject.html#tr" xlink:title=" ">
<polygon fill="white" stroke="#666666" points="501,-67.5 432,-67.5 432,-48.5 501,-48.5 501,-67.5"/>
<text text-anchor="middle" x="466.5" y="-55.5" font-family="Helvetica,sans-Serif" font-size="10.00">QObject::tr</text>
</a>
</g>
</g>
<!-- Node3&#45;&gt;Node24 -->
<g id="edge24_Node000003_Node000024" class="edge">
<title>Node3&#45;&gt;Node24</title>
<g id="a_edge24_Node000003_Node000024"><a xlink:title=" ">
<path fill="none" stroke="#63b8ff" d="M273.77,-203.72C288.68,-174.15 325.67,-109.22 377,-77 390.94,-68.25 408.29,-63.48 423.92,-60.9"/>
<polygon fill="#63b8ff" stroke="#63b8ff" points="431.92,-59.74 424.52,-64.45 427.96,-60.31 424,-60.89 424,-60.89 424,-60.89 427.96,-60.31 423.48,-57.32 431.92,-59.74 431.92,-59.74"/>
</a>
</g>
</g>
<!-- Node25 -->
<g id="Node000025" class="node">
<title>Node25</title>
<g id="a_Node000025"><a target="_parent" xlink:href="https://doc.qt.io/qt-5/qcommandlineparser.html#value" xlink:title=" ">
<polygon fill="white" stroke="#666666" points="529,-30 404,-30 404,0 529,0 529,-30"/>
<text text-anchor="start" x="412" y="-18" font-family="Helvetica,sans-Serif" font-size="10.00">QCommandLineParser</text>
<text text-anchor="middle" x="466.5" y="-7" font-family="Helvetica,sans-Serif" font-size="10.00">::value</text>
</a>
</g>
</g>
<!-- Node3&#45;&gt;Node25 -->
<g id="edge25_Node000003_Node000025" class="edge">
<title>Node3&#45;&gt;Node25</title>
<g id="a_edge25_Node000003_Node000025"><a xlink:title=" ">
<path fill="none" stroke="#63b8ff" d="M271.44,-203.76C283.53,-168.94 317.99,-83.16 377,-39 382.8,-34.66 389.34,-31.1 396.17,-28.19"/>
<polygon fill="#63b8ff" stroke="#63b8ff" points="403.67,-25.27 397.52,-31.52 399.94,-26.72 396.22,-28.17 396.22,-28.17 396.22,-28.17 399.94,-26.72 394.91,-24.81 403.67,-25.27 403.67,-25.27"/>
</a>
</g>
</g>
<!-- Node10 -->
<g id="Node000010" class="node">
<title>Node10</title>
<g id="a_Node000010"><a target="_parent" xlink:href="https://doc.qt.io/qt-5/qstring.html#at" xlink:title=" ">
<polygon fill="white" stroke="#666666" points="703,-450.5 635,-450.5 635,-431.5 703,-431.5 703,-450.5"/>
<text text-anchor="middle" x="669" y="-438.5" font-family="Helvetica,sans-Serif" font-size="10.00">QString::at</text>
</a>
</g>
</g>
<!-- Node9&#45;&gt;Node10 -->
<g id="edge9_Node000009_Node000010" class="edge">
<title>Node9&#45;&gt;Node10</title>
<g id="a_edge9_Node000009_Node000010"><a xlink:title=" ">
<path fill="none" stroke="#63b8ff" d="M543.7,-228.71C548.2,-231.23 552.37,-234.3 556,-238 614.66,-297.8 533.98,-362.59 592,-423 601.01,-432.39 613.95,-437.26 626.6,-439.7"/>
<polygon fill="#63b8ff" stroke="#63b8ff" points="634.83,-440.96 626.38,-443.3 630.88,-440.35 626.93,-439.74 626.93,-439.74 626.93,-439.74 630.88,-440.35 627.47,-436.19 634.83,-440.96 634.83,-440.96"/>
</a>
</g>
</g>
<!-- Node11 -->
<g id="Node000011" class="node">
<title>Node11</title>
<g id="a_Node000011"><a target="_parent" xlink:href="https://doc.qt.io/qt-5/qstring.html#back" xlink:title=" ">
<polygon fill="white" stroke="#666666" points="710,-413.5 628,-413.5 628,-394.5 710,-394.5 710,-413.5"/>
<text text-anchor="middle" x="669" y="-401.5" font-family="Helvetica,sans-Serif" font-size="10.00">QString::back</text>
</a>
</g>
</g>
<!-- Node9&#45;&gt;Node11 -->
<g id="edge10_Node000009_Node000011" class="edge">
<title>Node9&#45;&gt;Node11</title>
<g id="a_edge10_Node000009_Node000011"><a xlink:title=" ">
<path fill="none" stroke="#63b8ff" d="M543.09,-228.68C547.8,-231.2 552.17,-234.27 556,-238 604.51,-285.21 543.99,-338.28 592,-386 599.51,-393.46 609.51,-398.05 619.78,-400.82"/>
<polygon fill="#63b8ff" stroke="#63b8ff" points="627.66,-402.6 619.06,-404.35 623.75,-401.72 619.85,-400.83 619.85,-400.83 619.85,-400.83 623.75,-401.72 620.65,-397.32 627.66,-402.6 627.66,-402.6"/>
</a>
</g>
</g>
<!-- Node12 -->
<g id="Node000012" class="node">
<title>Node12</title>
<g id="a_Node000012"><a target="_parent" xlink:href="https://doc.qt.io/qt-5/qstring.html#chop" xlink:title=" ">
<polygon fill="white" stroke="#666666" points="710,-376.5 628,-376.5 628,-357.5 710,-357.5 710,-376.5"/>
<text text-anchor="middle" x="669" y="-364.5" font-family="Helvetica,sans-Serif" font-size="10.00">QString::chop</text>
</a>
</g>
</g>
<!-- Node9&#45;&gt;Node12 -->
<g id="edge11_Node000009_Node000012" class="edge">
<title>Node9&#45;&gt;Node12</title>
<g id="a_edge11_Node000009_Node000012"><a xlink:title=" ">
<path fill="none" stroke="#63b8ff" d="M541.94,-228.58C547.03,-231.11 551.8,-234.21 556,-238 594.5,-272.75 553.87,-313.84 592,-349 599.63,-356.04 609.49,-360.47 619.57,-363.24"/>
<polygon fill="#63b8ff" stroke="#63b8ff" points="627.66,-365.11 619.05,-366.81 623.76,-364.21 619.86,-363.31 619.86,-363.31 619.86,-363.31 623.76,-364.21 620.68,-359.8 627.66,-365.11 627.66,-365.11"/>
</a>
</g>
</g>
<!-- Node13 -->
<g id="Node000013" class="node">
<title>Node13</title>
<g id="a_Node000013"><a target="_parent" xlink:href="https://doc.qt.io/qt-5/qstring.html#endsWith" xlink:title=" ">
<polygon fill="white" stroke="#666666" points="721,-339.5 617,-339.5 617,-320.5 721,-320.5 721,-339.5"/>
<text text-anchor="middle" x="669" y="-327.5" font-family="Helvetica,sans-Serif" font-size="10.00">QString::endsWith</text>
</a>
</g>
</g>
<!-- Node9&#45;&gt;Node13 -->
<g id="edge12_Node000009_Node000013" class="edge">
<title>Node9&#45;&gt;Node13</title>
<g id="a_edge12_Node000009_Node000013"><a xlink:title=" ">
<path fill="none" stroke="#63b8ff" d="M540.07,-228.66C545.77,-231.15 551.18,-234.22 556,-238 584.79,-260.56 563.45,-289.14 592,-312 597.06,-316.05 602.88,-319.22 609,-321.69"/>
<polygon fill="#63b8ff" stroke="#63b8ff" points="616.88,-324.46 608.14,-325.2 613.11,-323.13 609.34,-321.81 609.34,-321.81 609.34,-321.81 613.11,-323.13 610.53,-318.41 616.88,-324.46 616.88,-324.46"/>
</a>
</g>
</g>
<!-- Node14 -->
<g id="Node000014" class="node">
<title>Node14</title>
<g id="a_Node000014"><a target="_parent" xlink:href="https://doc.qt.io/qt-5/qstring.html#isEmpty" xlink:title=" ">
<polygon fill="white" stroke="#666666" points="718,-302.5 620,-302.5 620,-283.5 718,-283.5 718,-302.5"/>
<text text-anchor="middle" x="669" y="-290.5" font-family="Helvetica,sans-Serif" font-size="10.00">QString::isEmpty</text>
</a>
</g>
</g>
<!-- Node9&#45;&gt;Node14 -->
<g id="edge13_Node000009_Node000014" class="edge">
<title>Node9&#45;&gt;Node14</title>
<g id="a_edge13_Node000009_Node000014"><a xlink:title=" ">
<path fill="none" stroke="#63b8ff" d="M533.37,-228.58C541.26,-231.03 548.99,-234.12 556,-238 576.08,-249.11 572.04,-263.68 592,-275 598.1,-278.46 604.85,-281.26 611.72,-283.52"/>
<polygon fill="#63b8ff" stroke="#63b8ff" points="619.82,-285.93 611.12,-287.1 615.98,-284.79 612.15,-283.65 612.15,-283.65 612.15,-283.65 615.98,-284.79 613.18,-280.2 619.82,-285.93 619.82,-285.93"/>
</a>
</g>
</g>
<!-- Node15 -->
<g id="Node000015" class="node">
<title>Node15</title>
<g id="a_Node000015"><a xlink:href="structRatio.html#abbfb48e8ebeec5666385f38b31f94215" target="_top" xlink:title="Returns true if both num and den are non&#45;zero.">
<polygon fill="white" stroke="#666666" points="709,-265.5 629,-265.5 629,-246.5 709,-246.5 709,-265.5"/>
<text text-anchor="middle" x="669" y="-253.5" font-family="Helvetica,sans-Serif" font-size="10.00">Ratio::isValid</text>
</a>
</g>
</g>
<!-- Node9&#45;&gt;Node15 -->
<g id="edge14_Node000009_Node000015" class="edge">
<title>Node9&#45;&gt;Node15</title>
<g id="a_edge14_Node000009_Node000015"><a xlink:title=" ">
<path fill="none" stroke="#63b8ff" d="M519.13,-228.53C550.55,-234.33 590.38,-241.68 620.93,-247.31"/>
<polygon fill="#63b8ff" stroke="#63b8ff" points="628.89,-248.78 620.37,-250.87 624.96,-248.06 621.02,-247.33 621.02,-247.33 621.02,-247.33 624.96,-248.06 621.68,-243.79 628.89,-248.78 628.89,-248.78"/>
</a>
</g>
</g>
<!-- Node16 -->
<g id="Node000016" class="node">
<title>Node16</title>
<g id="a_Node000016"><a target="_parent" xlink:href="https://doc.qt.io/qt-5/qstring.html#length" xlink:title=" ">
<polygon fill="white" stroke="#666666" points="713.5,-228.5 624.5,-228.5 624.5,-209.5 713.5,-209.5 713.5,-228.5"/>
<text text-anchor="middle" x="669" y="-216.5" font-family="Helvetica,sans-Serif" font-size="10.00">QString::length</text>
</a>
</g>
</g>
<!-- Node9&#45;&gt;Node16 -->
<g id="edge15_Node000009_Node000016" class="edge">
<title>Node9&#45;&gt;Node16</title>
<g id="a_edge15_Node000009_Node000016"><a xlink:title=" ">
<path fill="none" stroke="#63b8ff" d="M556.03,-219C576.59,-219 597.81,-219 616.18,-219"/>
<polygon fill="#63b8ff" stroke="#63b8ff" points="624.41,-219 616.41,-222.6 620.41,-219 616.41,-219 616.41,-219 616.41,-219 620.41,-219 616.41,-215.4 624.41,-219 624.41,-219"/>
</a>
</g>
</g>
<!-- Node17 -->
<g id="Node000017" class="node">
<title>Node17</title>
<g id="a_Node000017"><a target="_parent" xlink:href="https://doc.qt.io/qt-5/qstring.html#size" xlink:title=" ">
<polygon fill="white" stroke="#666666" points="708,-191.5 630,-191.5 630,-172.5 708,-172.5 708,-191.5"/>
<text text-anchor="middle" x="669" y="-179.5" font-family="Helvetica,sans-Serif" font-size="10.00">QString::size</text>
</a>
</g>
</g>
<!-- Node9&#45;&gt;Node17 -->
<g id="edge16_Node000009_Node000017" class="edge">
<title>Node9&#45;&gt;Node17</title>
<g id="a_edge16_Node000009_Node000017"><a xlink:title=" ">
<path fill="none" stroke="#63b8ff" d="M519.13,-209.47C550.87,-203.61 591.19,-196.17 621.86,-190.51"/>
<polygon fill="#63b8ff" stroke="#63b8ff" points="629.84,-189.04 622.63,-194.03 625.91,-189.77 621.97,-190.49 621.97,-190.49 621.97,-190.49 625.91,-189.77 621.32,-186.95 629.84,-189.04 629.84,-189.04"/>
</a>
</g>
</g>
<!-- Node18 -->
<g id="Node000018" class="node">
<title>Node18</title>
<g id="a_Node000018"><a target="_parent" xlink:href="https://doc.qt.io/qt-5/qlocale.html#toDouble" xlink:title=" ">
<polygon fill="white" stroke="#666666" points="722,-154.5 616,-154.5 616,-135.5 722,-135.5 722,-154.5"/>
<text text-anchor="middle" x="669" y="-142.5" font-family="Helvetica,sans-Serif" font-size="10.00">QLocale::toDouble</text>
</a>
</g>
</g>
<!-- Node9&#45;&gt;Node18 -->
<g id="edge17_Node000009_Node000018" class="edge">
<title>Node9&#45;&gt;Node18</title>
<g id="a_edge17_Node000009_Node000018"><a xlink:title=" ">
<path fill="none" stroke="#63b8ff" d="M518.13,-209.42C530.92,-205.89 544.33,-201.19 556,-195 574.65,-185.1 573.25,-173.71 592,-164 597.15,-161.33 602.69,-159.03 608.35,-157.04"/>
<polygon fill="#63b8ff" stroke="#63b8ff" points="616.11,-154.51 609.62,-160.41 612.31,-155.75 608.51,-156.99 608.51,-156.99 608.51,-156.99 612.31,-155.75 607.39,-153.56 616.11,-154.51 616.11,-154.51"/>
</a>
</g>
</g>
<!-- Node19 -->
<g id="Node000019" class="node">
<title>Node19</title>
<g id="a_Node000019"><a target="_parent" xlink:href="https://doc.qt.io/qt-5/qlocale.html#toULongLong" xlink:title=" ">
<polygon fill="white" stroke="#666666" points="731.5,-117.5 606.5,-117.5 606.5,-98.5 731.5,-98.5 731.5,-117.5"/>
<text text-anchor="middle" x="669" y="-105.5" font-family="Helvetica,sans-Serif" font-size="10.00">QLocale::toULongLong</text>
</a>
</g>
</g>
<!-- Node9&#45;&gt;Node19 -->
<g id="edge18_Node000009_Node000019" class="edge">
<title>Node9&#45;&gt;Node19</title>
<g id="a_edge18_Node000009_Node000019"><a xlink:title=" ">
<path fill="none" stroke="#63b8ff" d="M528.74,-209.49C538.53,-206.04 548.04,-201.36 556,-195 582.71,-173.65 565.08,-148.09 592,-127 594.85,-124.77 597.92,-122.8 601.15,-121.05"/>
<polygon fill="#63b8ff" stroke="#63b8ff" points="608.42,-117.59 602.75,-124.28 604.81,-119.31 601.2,-121.03 601.2,-121.03 601.2,-121.03 604.81,-119.31 599.65,-117.78 608.42,-117.59 608.42,-117.59"/>
</a>
</g>
</g>
<!-- Node20 -->
<g id="Node000020" class="node">
<title>Node20</title>
<g id="a_Node000020"><a target="_parent" xlink:href="https://doc.qt.io/qt-5/qstring.html#trimmed" xlink:title=" ">
<polygon fill="white" stroke="#666666" points="719.5,-80.5 618.5,-80.5 618.5,-61.5 719.5,-61.5 719.5,-80.5"/>
<text text-anchor="middle" x="669" y="-68.5" font-family="Helvetica,sans-Serif" font-size="10.00">QString::trimmed</text>
</a>
</g>
</g>
<!-- Node9&#45;&gt;Node20 -->
<g id="edge19_Node000009_Node000020" class="edge">
<title>Node9&#45;&gt;Node20</title>
<g id="a_edge19_Node000009_Node000020"><a xlink:title=" ">
<path fill="none" stroke="#63b8ff" d="M532.34,-209.46C541.03,-206 549.26,-201.31 556,-195 592.01,-161.28 555.66,-123.36 592,-90 597.37,-85.07 603.83,-81.37 610.67,-78.6"/>
<polygon fill="#63b8ff" stroke="#63b8ff" points="618.23,-75.95 611.87,-82 614.45,-77.28 610.68,-78.6 610.68,-78.6 610.68,-78.6 614.45,-77.28 609.49,-75.2 618.23,-75.95 618.23,-75.95"/>
</a>
</g>
</g>
<!-- Node22&#45;&gt;Node21 -->
<g id="edge22_Node000022_Node000021" class="edge">
<title>Node22&#45;&gt;Node21</title>
<g id="a_edge22_Node000022_Node000021"><a xlink:title=" ">
<path fill="none" stroke="#63b8ff" d="M541.61,-122.81C546.72,-120.31 551.58,-117.39 556,-114 581.27,-94.6 567.13,-71.92 592,-52 594.16,-50.27 596.45,-48.66 598.83,-47.17"/>
<polygon fill="#63b8ff" stroke="#63b8ff" points="606.21,-43.04 600.99,-50.09 602.72,-44.99 599.23,-46.94 599.23,-46.94 599.23,-46.94 602.72,-44.99 597.47,-43.8 606.21,-43.04 606.21,-43.04"/>
</a>
</g>
</g>
</g>
</svg>
