<?xml version="1.0" encoding="UTF-8" standalone="no"?>
<!DOCTYPE svg PUBLIC "-//W3C//DTD SVG 1.1//EN"
 "http://www.w3.org/Graphics/SVG/1.1/DTD/svg11.dtd">
<!-- Generated by graphviz version 2.43.0 (0)
 -->
<!-- Title: CalibrateCommand::requiredOptions Pages: 1 -->
<svg width="356pt" height="38pt"
 viewBox="0.00 0.00 356.00 38.00" xmlns="http://www.w3.org/2000/svg" xmlns:xlink="http://www.w3.org/1999/xlink">
<g id="graph0" class="graph" transform="scale(1 1) rotate(0) translate(4 34)">
<title>CalibrateCommand::requiredOptions</title>
<!-- Node1 -->
<g id="Node000001" class="node">
<title>Node1</title>
<g id="a_Node000001"><a xlink:title="Returns a list of CLI option names required by this command.">
<polygon fill="#999999" stroke="#666666" points="158,-30 0,-30 0,0 158,0 158,-30"/>
<text text-anchor="start" x="8" y="-18" font-family="Helvetica,sans-Serif" font-size="10.00">CalibrateCommand::required</text>
<text text-anchor="middle" x="79" y="-7" font-family="Helvetica,sans-Serif" font-size="10.00">Options</text>
</a>
</g>
</g>
<!-- Node2 -->
<g id="Node000002" class="node">
<title>Node2</title>
<g id="a_Node000002"><a xlink:href="classAbstractCommand.html#afd6f41cfc925751415cfa45e3b2d0b4a" target="_top" xlink:title="Returns a list of CLI option names required by this command.">
<polygon fill="white" stroke="#666666" points="348,-30 194,-30 194,0 348,0 348,-30"/>
<text text-anchor="start" x="202" y="-18" font-family="Helvetica,sans-Serif" font-size="10.00">AbstractCommand::required</text>
<text text-anchor="middle" x="271" y="-7" font-family="Helvetica,sans-Serif" font-size="10.00">Options</text>
</a>
</g>
</g>
<!-- Node1&#45;&gt;Node2 -->
<g id="edge1_Node000001_Node000002" class="edge">
<title>Node1&#45;&gt;Node2</title>
<g id="a_edge1_Node000001_Node000002"><a xlink:title=" ">
<path fill="none" stroke="#63b8ff" d="M158.1,-15C167.21,-15 176.52,-15 185.71,-15"/>
<polygon fill="#63b8ff" stroke="#63b8ff" points="193.73,-15 185.73,-18.6 189.73,-15 185.73,-15 185.73,-15 185.73,-15 189.73,-15 185.73,-11.4 193.73,-15 193.73,-15"/>
</a>
</g>
</g>
</g>
</svg>
