<?xml version="1.0" encoding="UTF-8" standalone="no"?>
<!DOCTYPE svg PUBLIC "-//W3C//DTD SVG 1.1//EN"
 "http://www.w3.org/Graphics/SVG/1.1/DTD/svg11.dtd">
<!-- Generated by graphviz version 2.43.0 (0)
 -->
<!-- Title: StatusService::status Pages: 1 -->
<svg width="496pt" height="268pt"
 viewBox="0.00 0.00 496.00 267.50" xmlns="http://www.w3.org/2000/svg" xmlns:xlink="http://www.w3.org/1999/xlink">
<g id="graph0" class="graph" transform="scale(1 1) rotate(0) translate(4 263.5)">
<title>StatusService::status</title>
<!-- Node1 -->
<g id="node1" class="node">
<title>Node1</title>
<g id="a_node1"><a xlink:title="Returns the most recent value of the Status service&#39;s Status characteristic.">
<polygon fill="#bfbfbf" stroke="black" points="0,-94 0,-113 119,-113 119,-94 0,-94"/>
<text text-anchor="middle" x="59.5" y="-101" font-family="Helvetica,sans-Serif" font-size="10.00">StatusService::status</text>
</a>
</g>
</g>
<!-- Node2 -->
<g id="node2" class="node">
<title>Node2</title>
<g id="a_node2"><a target="_parent" xlink:href="https://doc.qt.io/qt-5/qlowenergycharacteristic.html#isValid" xlink:title=" ">
<polygon fill="none" stroke="black" points="155,-162.5 155,-192.5 300,-192.5 300,-162.5 155,-162.5"/>
<text text-anchor="start" x="163" y="-180.5" font-family="Helvetica,sans-Serif" font-size="10.00">QLowEnergyCharacteristic</text>
<text text-anchor="middle" x="227.5" y="-169.5" font-family="Helvetica,sans-Serif" font-size="10.00">::isValid</text>
</a>
</g>
</g>
<!-- Node1&#45;&gt;Node2 -->
<g id="edge1" class="edge">
<title>Node1&#45;&gt;Node2</title>
<path fill="none" stroke="midnightblue" d="M76.83,-113.19C95.36,-123.94 126.68,-141.35 155,-153.5 159.36,-155.37 163.91,-157.19 168.53,-158.94"/>
<polygon fill="midnightblue" stroke="midnightblue" points="167.43,-162.26 178.02,-162.42 169.84,-155.69 167.43,-162.26"/>
</g>
<!-- Node3 -->
<g id="node3" class="node">
<title>Node3</title>
<g id="a_node3"><a xlink:href="classStatusServicePrivate.html#a3a6ff8ca3e9d7c884b269e52dd43aeb0" target="_top" xlink:title="Parses the Status value into a DeviceStatus and battery voltage.">
<polygon fill="none" stroke="black" points="168.5,-113.5 168.5,-143.5 286.5,-143.5 286.5,-113.5 168.5,-113.5"/>
<text text-anchor="start" x="176.5" y="-131.5" font-family="Helvetica,sans-Serif" font-size="10.00">StatusServicePrivate</text>
<text text-anchor="middle" x="227.5" y="-120.5" font-family="Helvetica,sans-Serif" font-size="10.00">::parseStatus</text>
</a>
</g>
</g>
<!-- Node1&#45;&gt;Node3 -->
<g id="edge2" class="edge">
<title>Node1&#45;&gt;Node3</title>
<path fill="none" stroke="midnightblue" d="M119.03,-112.31C131.62,-114.21 145.04,-116.23 157.98,-118.18"/>
<polygon fill="midnightblue" stroke="midnightblue" points="157.81,-121.7 168.22,-119.72 158.86,-114.77 157.81,-121.7"/>
</g>
<!-- Node11 -->
<g id="node11" class="node">
<title>Node11</title>
<g id="a_node11"><a target="_parent" xlink:href="https://doc.qt.io/qt-5/qlowenergycharacteristic.html#value" xlink:title=" ">
<polygon fill="none" stroke="black" points="155,-64.5 155,-94.5 300,-94.5 300,-64.5 155,-64.5"/>
<text text-anchor="start" x="163" y="-82.5" font-family="Helvetica,sans-Serif" font-size="10.00">QLowEnergyCharacteristic</text>
<text text-anchor="middle" x="227.5" y="-71.5" font-family="Helvetica,sans-Serif" font-size="10.00">::value</text>
</a>
</g>
</g>
<!-- Node1&#45;&gt;Node11 -->
<g id="edge11" class="edge">
<title>Node1&#45;&gt;Node11</title>
<path fill="none" stroke="midnightblue" d="M119.03,-95.04C127.34,-93.84 136.02,-92.58 144.69,-91.33"/>
<polygon fill="midnightblue" stroke="midnightblue" points="145.43,-94.76 154.83,-89.86 144.43,-87.83 145.43,-94.76"/>
</g>
<!-- Node4 -->
<g id="node4" class="node">
<title>Node4</title>
<g id="a_node4"><a target="_parent" xlink:href="https://doc.qt.io/qt-5/qstring.html#arg-11" xlink:title=" ">
<polygon fill="none" stroke="black" points="375,-240 375,-259 449,-259 449,-240 375,-240"/>
<text text-anchor="middle" x="412" y="-247" font-family="Helvetica,sans-Serif" font-size="10.00">QString::arg</text>
</a>
</g>
</g>
<!-- Node3&#45;&gt;Node4 -->
<g id="edge3" class="edge">
<title>Node3&#45;&gt;Node4</title>
<path fill="none" stroke="midnightblue" d="M285.56,-143.56C290.78,-146.34 295.71,-149.62 300,-153.5 328.03,-178.83 306.88,-206.43 336,-230.5 344.24,-237.31 354.6,-241.72 364.97,-244.57"/>
<polygon fill="midnightblue" stroke="midnightblue" points="364.32,-248.01 374.85,-246.85 365.89,-241.19 364.32,-248.01"/>
</g>
<!-- Node5 -->
<g id="node5" class="node">
<title>Node5</title>
<g id="a_node5"><a target="_parent" xlink:href="https://doc.qt.io/qt-5/qbytearray.html#at" xlink:title=" ">
<polygon fill="none" stroke="black" points="368,-202 368,-221 456,-221 456,-202 368,-202"/>
<text text-anchor="middle" x="412" y="-209" font-family="Helvetica,sans-Serif" font-size="10.00">QByteArray::at</text>
</a>
</g>
</g>
<!-- Node3&#45;&gt;Node5 -->
<g id="edge4" class="edge">
<title>Node3&#45;&gt;Node5</title>
<path fill="none" stroke="midnightblue" d="M281.08,-143.51C287.69,-146.36 294.17,-149.68 300,-153.5 319.72,-166.44 315.73,-180.44 336,-192.5 342.74,-196.51 350.3,-199.68 357.96,-202.18"/>
<polygon fill="midnightblue" stroke="midnightblue" points="357.09,-205.57 367.67,-205.01 359.04,-198.85 357.09,-205.57"/>
</g>
<!-- Node6 -->
<g id="node6" class="node">
<title>Node6</title>
<g id="a_node6"><a xlink:href="classStatusService.html#adddc5b563c16a8ad199f6a07966d372c" target="_top" xlink:title="Returns a string version of the status enum label.">
<polygon fill="none" stroke="black" points="336,-0.5 336,-30.5 488,-30.5 488,-0.5 336,-0.5"/>
<text text-anchor="start" x="344" y="-18.5" font-family="Helvetica,sans-Serif" font-size="10.00">StatusService::deviceStatus</text>
<text text-anchor="middle" x="412" y="-7.5" font-family="Helvetica,sans-Serif" font-size="10.00">Label</text>
</a>
</g>
</g>
<!-- Node3&#45;&gt;Node6 -->
<g id="edge5" class="edge">
<title>Node3&#45;&gt;Node6</title>
<path fill="none" stroke="midnightblue" d="M286.33,-113.39C291.22,-110.86 295.86,-107.92 300,-104.5 325.15,-83.7 310.83,-61.28 336,-40.5 338.04,-38.82 340.19,-37.25 342.44,-35.78"/>
<polygon fill="midnightblue" stroke="midnightblue" points="344.52,-38.62 351.47,-30.63 341.05,-32.54 344.52,-38.62"/>
</g>
<!-- Node7 -->
<g id="node7" class="node">
<title>Node7</title>
<g id="a_node7"><a target="_parent" xlink:href="https://doc.qt.io/qt-5/qbytearray.html#mid" xlink:title=" ">
<polygon fill="none" stroke="black" points="363.5,-164 363.5,-183 460.5,-183 460.5,-164 363.5,-164"/>
<text text-anchor="middle" x="412" y="-171" font-family="Helvetica,sans-Serif" font-size="10.00">QByteArray::mid</text>
</a>
</g>
</g>
<!-- Node3&#45;&gt;Node7 -->
<g id="edge7" class="edge">
<title>Node3&#45;&gt;Node7</title>
<path fill="none" stroke="midnightblue" d="M286.75,-142.86C311.1,-148.87 339.08,-155.77 362.31,-161.49"/>
<polygon fill="midnightblue" stroke="midnightblue" points="361.74,-164.96 372.29,-163.95 363.41,-158.16 361.74,-164.96"/>
</g>
<!-- Node8 -->
<g id="node8" class="node">
<title>Node8</title>
<g id="a_node8"><a target="_parent" xlink:href="https://doc.qt.io/qt-5/qbytearray.html#size" xlink:title=" ">
<polygon fill="none" stroke="black" points="363,-126 363,-145 461,-145 461,-126 363,-126"/>
<text text-anchor="middle" x="412" y="-133" font-family="Helvetica,sans-Serif" font-size="10.00">QByteArray::size</text>
</a>
</g>
</g>
<!-- Node3&#45;&gt;Node8 -->
<g id="edge8" class="edge">
<title>Node3&#45;&gt;Node8</title>
<path fill="none" stroke="midnightblue" d="M286.75,-130.73C307.81,-131.54 331.59,-132.45 352.67,-133.26"/>
<polygon fill="midnightblue" stroke="midnightblue" points="352.64,-136.76 362.77,-133.65 352.91,-129.77 352.64,-136.76"/>
</g>
<!-- Node9 -->
<g id="node9" class="node">
<title>Node9</title>
<g id="a_node9"><a target="_parent" xlink:href="https://doc.qt.io/qt-5/qbytearray.html#toHex" xlink:title=" ">
<polygon fill="none" stroke="black" points="358.5,-88 358.5,-107 465.5,-107 465.5,-88 358.5,-88"/>
<text text-anchor="middle" x="412" y="-95" font-family="Helvetica,sans-Serif" font-size="10.00">QByteArray::toHex</text>
</a>
</g>
</g>
<!-- Node3&#45;&gt;Node9 -->
<g id="edge9" class="edge">
<title>Node3&#45;&gt;Node9</title>
<path fill="none" stroke="midnightblue" d="M286.75,-118.61C306.38,-115.27 328.37,-111.54 348.33,-108.15"/>
<polygon fill="midnightblue" stroke="midnightblue" points="348.98,-111.59 358.25,-106.46 347.8,-104.68 348.98,-111.59"/>
</g>
<!-- Node10 -->
<g id="node10" class="node">
<title>Node10</title>
<g id="a_node10"><a target="_parent" xlink:href="https://doc.qt.io/qt-5/qobject.html#tr" xlink:title=" ">
<polygon fill="none" stroke="black" points="377.5,-50 377.5,-69 446.5,-69 446.5,-50 377.5,-50"/>
<text text-anchor="middle" x="412" y="-57" font-family="Helvetica,sans-Serif" font-size="10.00">QObject::tr</text>
</a>
</g>
</g>
<!-- Node3&#45;&gt;Node10 -->
<g id="edge10" class="edge">
<title>Node3&#45;&gt;Node10</title>
<path fill="none" stroke="midnightblue" d="M279.67,-113.43C286.64,-110.78 293.59,-107.79 300,-104.5 317.55,-95.48 318.12,-86.85 336,-78.5 345.78,-73.94 356.8,-70.36 367.33,-67.61"/>
<polygon fill="midnightblue" stroke="midnightblue" points="368.32,-70.98 377.22,-65.22 366.67,-64.17 368.32,-70.98"/>
</g>
<!-- Node6&#45;&gt;Node1 -->
<g id="edge6" class="edge">
<title>Node6&#45;&gt;Node1</title>
<path fill="none" stroke="midnightblue" d="M335.9,-20.97C284.1,-26.25 214.18,-36.38 155,-55.5 129.68,-63.68 102.82,-77.93 84.24,-88.78"/>
<polygon fill="midnightblue" stroke="midnightblue" points="82.37,-85.82 75.57,-93.95 85.95,-91.84 82.37,-85.82"/>
</g>
</g>
</svg>
