<?xml version="1.0" encoding="UTF-8" standalone="no"?>
<!DOCTYPE svg PUBLIC "-//W3C//DTD SVG 1.1//EN"
 "http://www.w3.org/Graphics/SVG/1.1/DTD/svg11.dtd">
<!-- Generated by graphviz version 2.43.0 (0)
 -->
<!-- Title: MultimeterServicePrivate::characteristicWritten Pages: 1 -->
<svg width="727pt" height="492pt"
 viewBox="0.00 0.00 727.00 492.00" xmlns="http://www.w3.org/2000/svg" xmlns:xlink="http://www.w3.org/1999/xlink">
<g id="graph0" class="graph" transform="scale(1 1) rotate(0) translate(4 488)">
<title>MultimeterServicePrivate::characteristicWritten</title>
<!-- Node1 -->
<g id="Node000001" class="node">
<title>Node1</title>
<g id="a_Node000001"><a xlink:title="Implements AbstractPokitServicePrivate::characteristicWritten to parse newValue, then emit a speciali...">
<polygon fill="#999999" stroke="#666666" points="141,-110.5 0,-110.5 0,-80.5 141,-80.5 141,-110.5"/>
<text text-anchor="start" x="8" y="-98.5" font-family="Helvetica,sans-Serif" font-size="10.00">MultimeterServicePrivate</text>
<text text-anchor="middle" x="70.5" y="-87.5" font-family="Helvetica,sans-Serif" font-size="10.00">::characteristicWritten</text>
</a>
</g>
</g>
<!-- Node2 -->
<g id="Node000002" class="node">
<title>Node2</title>
<g id="a_Node000002"><a xlink:href="classAbstractPokitServicePrivate.html#aaf4a6cb9f0b1fe537877d615a6634201" target="_top" xlink:title="Handles QLowEnergyService::characteristicWritten events.">
<polygon fill="white" stroke="#666666" points="329,-256.5 177,-256.5 177,-226.5 329,-226.5 329,-256.5"/>
<text text-anchor="start" x="185" y="-244.5" font-family="Helvetica,sans-Serif" font-size="10.00">AbstractPokitServicePrivate</text>
<text text-anchor="middle" x="253" y="-233.5" font-family="Helvetica,sans-Serif" font-size="10.00">::characteristicWritten</text>
</a>
</g>
</g>
<!-- Node1&#45;&gt;Node2 -->
<g id="edge1_Node000001_Node000002" class="edge">
<title>Node1&#45;&gt;Node2</title>
<g id="a_edge1_Node000001_Node000002"><a xlink:title=" ">
<path fill="none" stroke="#63b8ff" d="M90.14,-110.57C122.7,-136.91 189.97,-191.33 226.71,-221.04"/>
<polygon fill="#63b8ff" stroke="#63b8ff" points="233.19,-226.29 224.71,-224.06 230.08,-223.77 226.97,-221.26 226.97,-221.26 226.97,-221.26 230.08,-223.77 229.24,-218.46 233.19,-226.29 233.19,-226.29"/>
</a>
</g>
</g>
<!-- Node6 -->
<g id="Node000006" class="node">
<title>Node6</title>
<g id="a_Node000006"><a target="_parent" xlink:href="https://doc.qt.io/qt-5/qobject.html#tr" xlink:title=" ">
<polygon fill="white" stroke="#666666" points="670.5,-191 601.5,-191 601.5,-172 670.5,-172 670.5,-191"/>
<text text-anchor="middle" x="636" y="-179" font-family="Helvetica,sans-Serif" font-size="10.00">QObject::tr</text>
</a>
</g>
</g>
<!-- Node1&#45;&gt;Node6 -->
<g id="edge19_Node000001_Node000006" class="edge">
<title>Node1&#45;&gt;Node6</title>
<g id="a_edge19_Node000001_Node000006"><a xlink:title=" ">
<path fill="none" stroke="#63b8ff" d="M141.03,-88.54C230.08,-81.86 388.27,-77.55 517,-114.5 555,-125.41 593.9,-150.81 616.18,-167.02"/>
<polygon fill="#63b8ff" stroke="#63b8ff" points="622.8,-171.92 614.23,-170.06 619.59,-169.54 616.37,-167.16 616.37,-167.16 616.37,-167.16 619.59,-169.54 618.52,-164.27 622.8,-171.92 622.8,-171.92"/>
</a>
</g>
</g>
<!-- Node14 -->
<g id="Node000014" class="node">
<title>Node14</title>
<g id="a_Node000014"><a target="_parent" xlink:href="https://doc.qt.io/qt-5/qlowenergycharacteristic.html#uuid" xlink:title=" ">
<polygon fill="white" stroke="#666666" points="513.5,-153.5 368.5,-153.5 368.5,-123.5 513.5,-123.5 513.5,-153.5"/>
<text text-anchor="start" x="376.5" y="-141.5" font-family="Helvetica,sans-Serif" font-size="10.00">QLowEnergyCharacteristic</text>
<text text-anchor="middle" x="441" y="-130.5" font-family="Helvetica,sans-Serif" font-size="10.00">::uuid</text>
</a>
</g>
</g>
<!-- Node1&#45;&gt;Node14 -->
<g id="edge20_Node000001_Node000014" class="edge">
<title>Node1&#45;&gt;Node14</title>
<g id="a_edge20_Node000001_Node000014"><a xlink:title=" ">
<path fill="none" stroke="#63b8ff" d="M141.27,-104.98C153.19,-106.54 165.44,-108.1 177,-109.5 238.36,-116.95 307.87,-124.58 360.02,-130.14"/>
<polygon fill="#63b8ff" stroke="#63b8ff" points="368.23,-131.02 359.9,-133.75 364.25,-130.6 360.28,-130.17 360.28,-130.17 360.28,-130.17 364.25,-130.6 360.66,-126.59 368.23,-131.02 368.23,-131.02"/>
</a>
</g>
</g>
<!-- Node15 -->
<g id="Node000015" class="node">
<title>Node15</title>
<g id="a_Node000015"><a target="_parent" xlink:href="https://doc.qt.io/qt-5/qlowenergycharacteristic.html#name" xlink:title=" ">
<polygon fill="white" stroke="#666666" points="325.5,-67.5 180.5,-67.5 180.5,-37.5 325.5,-37.5 325.5,-67.5"/>
<text text-anchor="start" x="188.5" y="-55.5" font-family="Helvetica,sans-Serif" font-size="10.00">QLowEnergyCharacteristic</text>
<text text-anchor="middle" x="253" y="-44.5" font-family="Helvetica,sans-Serif" font-size="10.00">::name</text>
</a>
</g>
</g>
<!-- Node1&#45;&gt;Node15 -->
<g id="edge17_Node000001_Node000015" class="edge">
<title>Node1&#45;&gt;Node15</title>
<g id="a_edge17_Node000001_Node000015"><a xlink:title=" ">
<path fill="none" stroke="#63b8ff" d="M134.63,-80.46C149.61,-76.89 165.68,-73.06 180.98,-69.42"/>
<polygon fill="#63b8ff" stroke="#63b8ff" points="188.91,-67.53 181.96,-72.89 185.01,-68.46 181.12,-69.38 181.12,-69.38 181.12,-69.38 185.01,-68.46 180.29,-65.88 188.91,-67.53 188.91,-67.53"/>
</a>
</g>
</g>
<!-- Node16 -->
<g id="Node000016" class="node">
<title>Node16</title>
<g id="a_Node000016"><a target="_parent" xlink:href="https://doc.qt.io/qt-5/qobject.html#Q_EMIT" xlink:title=" ">
<polygon fill="white" stroke="#666666" points="302,-19 204,-19 204,0 302,0 302,-19"/>
<text text-anchor="middle" x="253" y="-7" font-family="Helvetica,sans-Serif" font-size="10.00">QObject::Q_EMIT</text>
</a>
</g>
</g>
<!-- Node1&#45;&gt;Node16 -->
<g id="edge18_Node000001_Node000016" class="edge">
<title>Node1&#45;&gt;Node16</title>
<g id="a_edge18_Node000001_Node000016"><a xlink:title=" ">
<path fill="none" stroke="#63b8ff" d="M91.05,-80.38C111.46,-65.26 144.92,-42.33 177,-28.5 183.29,-25.79 190.06,-23.4 196.86,-21.32"/>
<polygon fill="#63b8ff" stroke="#63b8ff" points="204.83,-19.01 198.14,-24.69 200.99,-20.12 197.14,-21.24 197.14,-21.24 197.14,-21.24 200.99,-20.12 196.14,-17.78 204.83,-19.01 204.83,-19.01"/>
</a>
</g>
</g>
<!-- Node3 -->
<g id="Node000003" class="node">
<title>Node3</title>
<g id="a_Node000003"><a target="_parent" xlink:href="https://doc.qt.io/qt-5/qstring.html#arg-1" xlink:title=" ">
<polygon fill="white" stroke="#666666" points="673,-299 599,-299 599,-280 673,-280 673,-299"/>
<text text-anchor="middle" x="636" y="-287" font-family="Helvetica,sans-Serif" font-size="10.00">QString::arg</text>
</a>
</g>
</g>
<!-- Node2&#45;&gt;Node3 -->
<g id="edge2_Node000002_Node000003" class="edge">
<title>Node2&#45;&gt;Node3</title>
<g id="a_edge2_Node000002_Node000003"><a xlink:title=" ">
<path fill="none" stroke="#63b8ff" d="M282.75,-256.64C304.63,-267.29 335.85,-280.65 365,-286.5 443.25,-302.21 536.85,-298.35 590.76,-294"/>
<polygon fill="#63b8ff" stroke="#63b8ff" points="598.74,-293.33 591.07,-297.59 594.76,-293.67 590.77,-294 590.77,-294 590.77,-294 594.76,-293.67 590.47,-290.41 598.74,-293.33 598.74,-293.33"/>
</a>
</g>
</g>
<!-- Node4 -->
<g id="Node000004" class="node">
<title>Node4</title>
<g id="a_Node000004"><a xlink:href="classPokitDevice.html#a0a3e6078ce0a7c2d93171ef0f4183d61" target="_top" xlink:title="Returns a human&#45;readable name for the uuid characteristic, or a null QString if unknown.">
<polygon fill="white" stroke="#666666" points="511.5,-277.5 370.5,-277.5 370.5,-247.5 511.5,-247.5 511.5,-277.5"/>
<text text-anchor="start" x="378.5" y="-265.5" font-family="Helvetica,sans-Serif" font-size="10.00">PokitDevice::charcteristic</text>
<text text-anchor="middle" x="441" y="-254.5" font-family="Helvetica,sans-Serif" font-size="10.00">ToString</text>
</a>
</g>
</g>
<!-- Node2&#45;&gt;Node4 -->
<g id="edge3_Node000002_Node000004" class="edge">
<title>Node2&#45;&gt;Node4</title>
<g id="a_edge3_Node000002_Node000004"><a xlink:title=" ">
<path fill="none" stroke="#63b8ff" d="M329.12,-249.98C340.07,-251.22 351.37,-252.49 362.37,-253.74"/>
<polygon fill="#63b8ff" stroke="#63b8ff" points="370.32,-254.63 361.96,-257.31 366.34,-254.18 362.37,-253.74 362.37,-253.74 362.37,-253.74 366.34,-254.18 362.77,-250.16 370.32,-254.63 370.32,-254.63"/>
</a>
</g>
</g>
<!-- Node2&#45;&gt;Node6 -->
<g id="edge15_Node000002_Node000006" class="edge">
<title>Node2&#45;&gt;Node6</title>
<g id="a_edge15_Node000002_Node000006"><a xlink:title=" ">
<path fill="none" stroke="#63b8ff" d="M288.29,-226.4C309.87,-217.59 338.55,-207.13 365,-201.5 444.42,-184.58 539.61,-181.39 593.11,-181.1"/>
<polygon fill="#63b8ff" stroke="#63b8ff" points="601.33,-181.08 593.34,-184.7 597.33,-181.09 593.33,-181.1 593.33,-181.1 593.33,-181.1 597.33,-181.09 593.32,-177.5 601.33,-181.08 601.33,-181.08"/>
</a>
</g>
</g>
<!-- Node7 -->
<g id="Node000007" class="node">
<title>Node7</title>
<g id="a_Node000007"><a target="_parent" xlink:href="https://doc.qt.io/qt-5/qbytearray.html#size" xlink:title=" ">
<polygon fill="white" stroke="#666666" points="685,-484 587,-484 587,-465 685,-465 685,-484"/>
<text text-anchor="middle" x="636" y="-472" font-family="Helvetica,sans-Serif" font-size="10.00">QByteArray::size</text>
</a>
</g>
</g>
<!-- Node2&#45;&gt;Node7 -->
<g id="edge6_Node000002_Node000007" class="edge">
<title>Node2&#45;&gt;Node7</title>
<g id="a_edge6_Node000002_Node000007"><a xlink:title=" ">
<path fill="none" stroke="#63b8ff" d="M261.64,-256.58C277.19,-285.88 315.32,-350.8 365,-387.5 429.31,-435.01 520.66,-457.25 578.87,-467.17"/>
<polygon fill="#63b8ff" stroke="#63b8ff" points="586.86,-468.48 578.38,-470.73 582.91,-467.83 578.97,-467.18 578.97,-467.18 578.97,-467.18 582.91,-467.83 579.55,-463.63 586.86,-468.48 586.86,-468.48"/>
</a>
</g>
</g>
<!-- Node8 -->
<g id="Node000008" class="node">
<title>Node8</title>
<g id="a_Node000008"><a xlink:href="classAbstractPokitServicePrivate.html#af748600fc201fe47f29b58e8e93179d8" target="_top" xlink:title="Returns up to maxSize bytes of data as a human readable hexadecimal string.">
<polygon fill="white" stroke="#666666" points="517,-378.5 365,-378.5 365,-348.5 517,-348.5 517,-378.5"/>
<text text-anchor="start" x="373" y="-366.5" font-family="Helvetica,sans-Serif" font-size="10.00">AbstractPokitServicePrivate</text>
<text text-anchor="middle" x="441" y="-355.5" font-family="Helvetica,sans-Serif" font-size="10.00">::toHexString</text>
</a>
</g>
</g>
<!-- Node2&#45;&gt;Node8 -->
<g id="edge7_Node000002_Node000008" class="edge">
<title>Node2&#45;&gt;Node8</title>
<g id="a_edge7_Node000002_Node000008"><a xlink:title=" ">
<path fill="none" stroke="#63b8ff" d="M274.52,-256.68C296.54,-272.79 332.71,-298.73 365,-319.5 378.18,-327.97 393,-336.81 405.96,-344.32"/>
<polygon fill="#63b8ff" stroke="#63b8ff" points="412.95,-348.34 404.22,-347.47 409.48,-346.35 406.02,-344.35 406.02,-344.35 406.02,-344.35 409.48,-346.35 407.81,-341.23 412.95,-348.34 412.95,-348.34"/>
</a>
</g>
</g>
<!-- Node13 -->
<g id="Node000013" class="node">
<title>Node13</title>
<g id="a_Node000013"><a target="_parent" xlink:href="https://doc.qt.io/qt-5/quuid.html#toString" xlink:title=" ">
<polygon fill="white" stroke="#666666" points="486.5,-229 395.5,-229 395.5,-210 486.5,-210 486.5,-229"/>
<text text-anchor="middle" x="441" y="-217" font-family="Helvetica,sans-Serif" font-size="10.00">QUuid::toString</text>
</a>
</g>
</g>
<!-- Node2&#45;&gt;Node13 -->
<g id="edge14_Node000002_Node000013" class="edge">
<title>Node2&#45;&gt;Node13</title>
<g id="a_edge14_Node000002_Node000013"><a xlink:title=" ">
<path fill="none" stroke="#63b8ff" d="M329.12,-232.62C348.61,-230.31 369.2,-227.87 387.27,-225.74"/>
<polygon fill="#63b8ff" stroke="#63b8ff" points="395.39,-224.78 387.87,-229.29 391.42,-225.25 387.44,-225.72 387.44,-225.72 387.44,-225.72 391.42,-225.25 387.02,-222.14 395.39,-224.78 395.39,-224.78"/>
</a>
</g>
</g>
<!-- Node2&#45;&gt;Node14 -->
<g id="edge16_Node000002_Node000014" class="edge">
<title>Node2&#45;&gt;Node14</title>
<g id="a_edge16_Node000002_Node000014"><a xlink:title=" ">
<path fill="none" stroke="#63b8ff" d="M273.64,-226.47C295.21,-210.44 331.28,-184.99 365,-167.5 372.34,-163.69 380.3,-160.09 388.2,-156.81"/>
<polygon fill="#63b8ff" stroke="#63b8ff" points="396.06,-153.64 389.99,-159.97 392.35,-155.14 388.64,-156.63 388.64,-156.63 388.64,-156.63 392.35,-155.14 387.29,-153.3 396.06,-153.64 396.06,-153.64"/>
</a>
</g>
</g>
<!-- Node5 -->
<g id="Node000005" class="node">
<title>Node5</title>
<g id="a_Node000005"><a target="_parent" xlink:href="https://doc.qt.io/qt-5/qbluetoothuuid.html#characteristicToString" xlink:title=" ">
<polygon fill="white" stroke="#666666" points="719,-261.5 553,-261.5 553,-231.5 719,-231.5 719,-261.5"/>
<text text-anchor="start" x="561" y="-249.5" font-family="Helvetica,sans-Serif" font-size="10.00">QBluetoothUuid::characteristic</text>
<text text-anchor="middle" x="636" y="-238.5" font-family="Helvetica,sans-Serif" font-size="10.00">ToString</text>
</a>
</g>
</g>
<!-- Node4&#45;&gt;Node5 -->
<g id="edge4_Node000004_Node000005" class="edge">
<title>Node4&#45;&gt;Node5</title>
<g id="a_edge4_Node000004_Node000005"><a xlink:title=" ">
<path fill="none" stroke="#63b8ff" d="M511.68,-256.72C522.45,-255.83 533.71,-254.9 544.85,-253.97"/>
<polygon fill="#63b8ff" stroke="#63b8ff" points="552.94,-253.3 545.27,-257.55 548.95,-253.63 544.97,-253.96 544.97,-253.96 544.97,-253.96 548.95,-253.63 544.67,-250.38 552.94,-253.3 552.94,-253.3"/>
</a>
</g>
</g>
<!-- Node4&#45;&gt;Node6 -->
<g id="edge5_Node000004_Node000006" class="edge">
<title>Node4&#45;&gt;Node6</title>
<g id="a_edge5_Node000004_Node000006"><a xlink:title=" ">
<path fill="none" stroke="#63b8ff" d="M492.37,-247.46C500.67,-244.67 509.13,-241.64 517,-238.5 534.65,-231.45 579.52,-209.33 608.56,-194.81"/>
<polygon fill="#63b8ff" stroke="#63b8ff" points="615.94,-191.11 610.4,-197.91 612.36,-192.9 608.79,-194.69 608.79,-194.69 608.79,-194.69 612.36,-192.9 607.18,-191.47 615.94,-191.11 615.94,-191.11"/>
</a>
</g>
</g>
<!-- Node8&#45;&gt;Node3 -->
<g id="edge8_Node000008_Node000003" class="edge">
<title>Node8&#45;&gt;Node3</title>
<g id="a_edge8_Node000008_Node000003"><a xlink:title=" ">
<path fill="none" stroke="#63b8ff" d="M468.15,-348.37C490.18,-336.16 522.83,-319.3 553,-308.5 565.08,-304.18 578.51,-300.58 590.95,-297.73"/>
<polygon fill="#63b8ff" stroke="#63b8ff" points="598.96,-295.96 591.93,-301.2 595.06,-296.82 591.15,-297.69 591.15,-297.69 591.15,-297.69 595.06,-296.82 590.37,-294.17 598.96,-295.96 598.96,-295.96"/>
</a>
</g>
</g>
<!-- Node8&#45;&gt;Node7 -->
<g id="edge12_Node000008_Node000007" class="edge">
<title>Node8&#45;&gt;Node7</title>
<g id="a_edge12_Node000008_Node000007"><a xlink:title=" ">
<path fill="none" stroke="#63b8ff" d="M460.2,-378.79C491.51,-405.1 552.33,-456.17 553,-456.5 561.09,-460.48 570.07,-463.58 579.02,-466.01"/>
<polygon fill="#63b8ff" stroke="#63b8ff" points="586.86,-467.97 578.22,-469.52 582.98,-467 579.1,-466.03 579.1,-466.03 579.1,-466.03 582.98,-467 579.97,-462.53 586.86,-467.97 586.86,-467.97"/>
</a>
</g>
</g>
<!-- Node9 -->
<g id="Node000009" class="node">
<title>Node9</title>
<g id="a_Node000009"><a target="_parent" xlink:href="https://doc.qt.io/qt-5/qstring.html#fromLatin1" xlink:title=" ">
<polygon fill="white" stroke="#666666" points="692,-373 580,-373 580,-354 692,-354 692,-373"/>
<text text-anchor="middle" x="636" y="-361" font-family="Helvetica,sans-Serif" font-size="10.00">QString::fromLatin1</text>
</a>
</g>
</g>
<!-- Node8&#45;&gt;Node9 -->
<g id="edge9_Node000008_Node000009" class="edge">
<title>Node8&#45;&gt;Node9</title>
<g id="a_edge9_Node000008_Node000009"><a xlink:title=" ">
<path fill="none" stroke="#63b8ff" d="M517.17,-363.5C535.09,-363.5 554.04,-363.5 571.38,-363.5"/>
<polygon fill="#63b8ff" stroke="#63b8ff" points="579.76,-363.5 571.76,-367.1 575.76,-363.5 571.76,-363.5 571.76,-363.5 571.76,-363.5 575.76,-363.5 571.76,-359.9 579.76,-363.5 579.76,-363.5"/>
</a>
</g>
</g>
<!-- Node10 -->
<g id="Node000010" class="node">
<title>Node10</title>
<g id="a_Node000010"><a target="_parent" xlink:href="https://doc.qt.io/qt-5/qbytearray.html#left" xlink:title=" ">
<polygon fill="white" stroke="#666666" points="683,-336 589,-336 589,-317 683,-317 683,-336"/>
<text text-anchor="middle" x="636" y="-324" font-family="Helvetica,sans-Serif" font-size="10.00">QByteArray::left</text>
</a>
</g>
</g>
<!-- Node8&#45;&gt;Node10 -->
<g id="edge10_Node000008_Node000010" class="edge">
<title>Node8&#45;&gt;Node10</title>
<g id="a_edge10_Node000008_Node000010"><a xlink:title=" ">
<path fill="none" stroke="#63b8ff" d="M517.17,-349.09C538.38,-345.02 561.04,-340.68 580.76,-336.9"/>
<polygon fill="#63b8ff" stroke="#63b8ff" points="588.73,-335.37 581.55,-340.41 584.8,-336.12 580.88,-336.88 580.88,-336.88 580.88,-336.88 584.8,-336.12 580.2,-333.34 588.73,-335.37 588.73,-335.37"/>
</a>
</g>
</g>
<!-- Node11 -->
<g id="Node000011" class="node">
<title>Node11</title>
<g id="a_Node000011"><a target="_parent" xlink:href="https://doc.qt.io/qt-5/qbytearray.html#right" xlink:title=" ">
<polygon fill="white" stroke="#666666" points="686.5,-447 585.5,-447 585.5,-428 686.5,-428 686.5,-447"/>
<text text-anchor="middle" x="636" y="-435" font-family="Helvetica,sans-Serif" font-size="10.00">QByteArray::right</text>
</a>
</g>
</g>
<!-- Node8&#45;&gt;Node11 -->
<g id="edge11_Node000008_Node000011" class="edge">
<title>Node8&#45;&gt;Node11</title>
<g id="a_edge11_Node000008_Node000011"><a xlink:title=" ">
<path fill="none" stroke="#63b8ff" d="M467.2,-378.52C489.19,-391.06 522.29,-408.58 553,-419.5 560.81,-422.28 569.19,-424.71 577.5,-426.81"/>
<polygon fill="#63b8ff" stroke="#63b8ff" points="585.44,-428.72 576.81,-430.34 581.55,-427.78 577.66,-426.85 577.66,-426.85 577.66,-426.85 581.55,-427.78 578.5,-423.35 585.44,-428.72 585.44,-428.72"/>
</a>
</g>
</g>
<!-- Node12 -->
<g id="Node000012" class="node">
<title>Node12</title>
<g id="a_Node000012"><a target="_parent" xlink:href="https://doc.qt.io/qt-5/qbytearray.html#toHex" xlink:title=" ">
<polygon fill="white" stroke="#666666" points="689.5,-410 582.5,-410 582.5,-391 689.5,-391 689.5,-410"/>
<text text-anchor="middle" x="636" y="-398" font-family="Helvetica,sans-Serif" font-size="10.00">QByteArray::toHex</text>
</a>
</g>
</g>
<!-- Node8&#45;&gt;Node12 -->
<g id="edge13_Node000008_Node000012" class="edge">
<title>Node8&#45;&gt;Node12</title>
<g id="a_edge13_Node000008_Node000012"><a xlink:title=" ">
<path fill="none" stroke="#63b8ff" d="M517.17,-377.91C537.18,-381.75 558.47,-385.83 577.37,-389.45"/>
<polygon fill="#63b8ff" stroke="#63b8ff" points="585.31,-390.97 576.78,-393 581.38,-390.22 577.46,-389.47 577.46,-389.47 577.46,-389.47 581.38,-390.22 578.13,-385.93 585.31,-390.97 585.31,-390.97"/>
</a>
</g>
</g>
</g>
</svg>
