<?xml version="1.0" encoding="UTF-8" standalone="no"?>
<!DOCTYPE svg PUBLIC "-//W3C//DTD SVG 1.1//EN"
 "http://www.w3.org/Graphics/SVG/1.1/DTD/svg11.dtd">
<!-- Generated by graphviz version 2.43.0 (0)
 -->
<!-- Title: AbstractPokitServicePrivate::createServiceObject Pages: 1 -->
<svg width="529pt" height="936pt"
 viewBox="0.00 0.00 529.00 935.74" xmlns="http://www.w3.org/2000/svg" xmlns:xlink="http://www.w3.org/1999/xlink">
<g id="graph0" class="graph" transform="scale(1 1) rotate(0) translate(4 931.74)">
<title>AbstractPokitServicePrivate::createServiceObject</title>
<!-- Node1 -->
<g id="node1" class="node">
<title>Node1</title>
<g id="a_node1"><a xlink:title="Creates an internal service object from the internal controller.">
<polygon fill="#bfbfbf" stroke="black" points="0,-455.5 0,-485.5 152,-485.5 152,-455.5 0,-455.5"/>
<text text-anchor="start" x="8" y="-473.5" font-family="Helvetica,sans-Serif" font-size="10.00">AbstractPokitServicePrivate</text>
<text text-anchor="middle" x="76" y="-462.5" font-family="Helvetica,sans-Serif" font-size="10.00">::createServiceObject</text>
</a>
</g>
</g>
<!-- Node2 -->
<g id="node2" class="node">
<title>Node2</title>
<g id="a_node2"><a target="_parent" xlink:href="https://doc.qt.io/qt-5/qstring.html#arg-11" xlink:title=" ">
<polygon fill="none" stroke="black" points="411.5,-901 411.5,-920 485.5,-920 485.5,-901 411.5,-901"/>
<text text-anchor="middle" x="448.5" y="-908" font-family="Helvetica,sans-Serif" font-size="10.00">QString::arg</text>
</a>
</g>
</g>
<!-- Node1&#45;&gt;Node2 -->
<g id="edge1" class="edge">
<title>Node1&#45;&gt;Node2</title>
<path fill="none" stroke="midnightblue" d="M78.77,-485.84C87.02,-554.5 124.03,-832.49 188,-886.5 247.4,-936.64 343.95,-930.29 401.03,-920.69"/>
<polygon fill="midnightblue" stroke="midnightblue" points="401.98,-924.08 411.21,-918.87 400.75,-917.19 401.98,-924.08"/>
</g>
<!-- Node3 -->
<g id="node3" class="node">
<title>Node3</title>
<g id="a_node3"><a xlink:href="classAbstractPokitServicePrivate.html#a642431b7bfb76baa5d976ae24e90d9ef" target="_top" xlink:title="Handles QLowEnergyService::characteristicChanged events.">
<polygon fill="none" stroke="black" points="188,-813.5 188,-843.5 340,-843.5 340,-813.5 188,-813.5"/>
<text text-anchor="start" x="196" y="-831.5" font-family="Helvetica,sans-Serif" font-size="10.00">AbstractPokitServicePrivate</text>
<text text-anchor="middle" x="264" y="-820.5" font-family="Helvetica,sans-Serif" font-size="10.00">::characteristicChanged</text>
</a>
</g>
</g>
<!-- Node1&#45;&gt;Node3 -->
<g id="edge2" class="edge">
<title>Node1&#45;&gt;Node3</title>
<path fill="none" stroke="midnightblue" d="M77.79,-485.82C81.24,-537.09 99.12,-704.66 188,-798.5 191.53,-802.22 195.57,-805.49 199.93,-808.37"/>
<polygon fill="midnightblue" stroke="midnightblue" points="198.2,-811.41 208.6,-813.41 201.72,-805.36 198.2,-811.41"/>
</g>
<!-- Node4 -->
<g id="node4" class="node">
<title>Node4</title>
<g id="a_node4"><a target="_parent" xlink:href="https://doc.qt.io/qt-5/quuid.html#toString" xlink:title=" ">
<polygon fill="none" stroke="black" points="403,-863 403,-882 494,-882 494,-863 403,-863"/>
<text text-anchor="middle" x="448.5" y="-870" font-family="Helvetica,sans-Serif" font-size="10.00">QUuid::toString</text>
</a>
</g>
</g>
<!-- Node1&#45;&gt;Node4 -->
<g id="edge24" class="edge">
<title>Node1&#45;&gt;Node4</title>
<path fill="none" stroke="midnightblue" d="M79.07,-485.53C88.31,-550.35 128.02,-804.91 188,-853.5 247.6,-901.79 342.31,-894.37 399.32,-883.91"/>
<polygon fill="midnightblue" stroke="midnightblue" points="400.02,-887.34 409.17,-882 398.69,-880.47 400.02,-887.34"/>
</g>
<!-- Node5 -->
<g id="node5" class="node">
<title>Node5</title>
<g id="a_node5"><a target="_parent" xlink:href="https://doc.qt.io/qt-5/qobject.html#tr" xlink:title=" ">
<polygon fill="none" stroke="black" points="414,-753 414,-772 483,-772 483,-753 414,-753"/>
<text text-anchor="middle" x="448.5" y="-760" font-family="Helvetica,sans-Serif" font-size="10.00">QObject::tr</text>
</a>
</g>
</g>
<!-- Node1&#45;&gt;Node5 -->
<g id="edge25" class="edge">
<title>Node1&#45;&gt;Node5</title>
<path fill="none" stroke="midnightblue" d="M77.2,-485.57C78.8,-535.76 91.51,-697.79 188,-764.5 254.85,-810.71 356.32,-790.81 410.44,-775.02"/>
<polygon fill="midnightblue" stroke="midnightblue" points="411.74,-778.28 420.29,-772.04 409.71,-771.58 411.74,-778.28"/>
</g>
<!-- Node7 -->
<g id="node7" class="node">
<title>Node7</title>
<g id="a_node7"><a target="_parent" xlink:href="https://doc.qt.io/qt-5/qlowenergyservice.html#characteristicChanged" xlink:title=" ">
<polygon fill="none" stroke="black" points="201.5,-627.5 201.5,-657.5 326.5,-657.5 326.5,-627.5 201.5,-627.5"/>
<text text-anchor="start" x="209.5" y="-645.5" font-family="Helvetica,sans-Serif" font-size="10.00">QLowEnergyService::</text>
<text text-anchor="middle" x="264" y="-634.5" font-family="Helvetica,sans-Serif" font-size="10.00">characteristicChanged</text>
</a>
</g>
</g>
<!-- Node1&#45;&gt;Node7 -->
<g id="edge7" class="edge">
<title>Node1&#45;&gt;Node7</title>
<path fill="none" stroke="midnightblue" d="M84.51,-485.82C99.85,-515.55 137.61,-581.31 188,-617.5 190.68,-619.42 193.51,-621.2 196.45,-622.85"/>
<polygon fill="midnightblue" stroke="midnightblue" points="195.01,-626.05 205.52,-627.42 198.16,-619.8 195.01,-626.05"/>
</g>
<!-- Node8 -->
<g id="node8" class="node">
<title>Node8</title>
<g id="a_node8"><a target="_parent" xlink:href="https://doc.qt.io/qt-5/qlowenergyservice.html#characteristicRead" xlink:title=" ">
<polygon fill="none" stroke="black" points="204.5,-578.5 204.5,-608.5 323.5,-608.5 323.5,-578.5 204.5,-578.5"/>
<text text-anchor="start" x="212.5" y="-596.5" font-family="Helvetica,sans-Serif" font-size="10.00">QLowEnergyService::</text>
<text text-anchor="middle" x="264" y="-585.5" font-family="Helvetica,sans-Serif" font-size="10.00">characteristicRead</text>
</a>
</g>
</g>
<!-- Node1&#45;&gt;Node8 -->
<g id="edge8" class="edge">
<title>Node1&#45;&gt;Node8</title>
<path fill="none" stroke="midnightblue" d="M90.26,-485.53C109.74,-506.77 148.12,-545.54 188,-568.5 191.68,-570.62 195.57,-572.59 199.55,-574.42"/>
<polygon fill="midnightblue" stroke="midnightblue" points="198.42,-577.74 209,-578.43 201.16,-571.3 198.42,-577.74"/>
</g>
<!-- Node9 -->
<g id="node9" class="node">
<title>Node9</title>
<g id="a_node9"><a xlink:href="classAbstractPokitServicePrivate.html#af4d66a5350233f431e869cd09bf4aa26" target="_top" xlink:title="Handles QLowEnergyService::characteristicRead events.">
<polygon fill="none" stroke="black" points="188,-529.5 188,-559.5 340,-559.5 340,-529.5 188,-529.5"/>
<text text-anchor="start" x="196" y="-547.5" font-family="Helvetica,sans-Serif" font-size="10.00">AbstractPokitServicePrivate</text>
<text text-anchor="middle" x="264" y="-536.5" font-family="Helvetica,sans-Serif" font-size="10.00">::characteristicRead</text>
</a>
</g>
</g>
<!-- Node1&#45;&gt;Node9 -->
<g id="edge9" class="edge">
<title>Node1&#45;&gt;Node9</title>
<path fill="none" stroke="midnightblue" d="M109.21,-485.68C131.18,-495.8 161.08,-509.1 188,-519.5 193.8,-521.74 199.89,-523.97 205.99,-526.12"/>
<polygon fill="midnightblue" stroke="midnightblue" points="204.95,-529.47 215.55,-529.43 207.25,-522.85 204.95,-529.47"/>
</g>
<!-- Node10 -->
<g id="node10" class="node">
<title>Node10</title>
<g id="a_node10"><a target="_parent" xlink:href="https://doc.qt.io/qt-5/qlowenergyservice.html#characteristicWritten" xlink:title=" ">
<polygon fill="none" stroke="black" points="204.5,-480.5 204.5,-510.5 323.5,-510.5 323.5,-480.5 204.5,-480.5"/>
<text text-anchor="start" x="212.5" y="-498.5" font-family="Helvetica,sans-Serif" font-size="10.00">QLowEnergyService::</text>
<text text-anchor="middle" x="264" y="-487.5" font-family="Helvetica,sans-Serif" font-size="10.00">characteristicWritten</text>
</a>
</g>
</g>
<!-- Node1&#45;&gt;Node10 -->
<g id="edge10" class="edge">
<title>Node1&#45;&gt;Node10</title>
<path fill="none" stroke="midnightblue" d="M152.12,-480.6C166.02,-482.46 180.47,-484.41 194.17,-486.25"/>
<polygon fill="midnightblue" stroke="midnightblue" points="194.1,-489.77 204.48,-487.63 195.04,-482.83 194.1,-489.77"/>
</g>
<!-- Node11 -->
<g id="node11" class="node">
<title>Node11</title>
<g id="a_node11"><a xlink:href="classAbstractPokitServicePrivate.html#a20a20e4261112601e0c82b9389b1c7d8" target="_top" xlink:title="Handles QLowEnergyService::characteristicWritten events.">
<polygon fill="none" stroke="black" points="188,-431.5 188,-461.5 340,-461.5 340,-431.5 188,-431.5"/>
<text text-anchor="start" x="196" y="-449.5" font-family="Helvetica,sans-Serif" font-size="10.00">AbstractPokitServicePrivate</text>
<text text-anchor="middle" x="264" y="-438.5" font-family="Helvetica,sans-Serif" font-size="10.00">::characteristicWritten</text>
</a>
</g>
</g>
<!-- Node1&#45;&gt;Node11 -->
<g id="edge11" class="edge">
<title>Node1&#45;&gt;Node11</title>
<path fill="none" stroke="midnightblue" d="M152.12,-460.81C160.6,-459.71 169.28,-458.59 177.87,-457.48"/>
<polygon fill="midnightblue" stroke="midnightblue" points="178.43,-460.94 187.9,-456.19 177.54,-454 178.43,-460.94"/>
</g>
<!-- Node12 -->
<g id="node12" class="node">
<title>Node12</title>
<g id="a_node12"><a target="_parent" xlink:href="https://doc.qt.io/qt-5/qobject.html#connect" xlink:title=" ">
<polygon fill="none" stroke="black" points="214,-393 214,-412 314,-412 314,-393 214,-393"/>
<text text-anchor="middle" x="264" y="-400" font-family="Helvetica,sans-Serif" font-size="10.00">QObject::connect</text>
</a>
</g>
</g>
<!-- Node1&#45;&gt;Node12 -->
<g id="edge12" class="edge">
<title>Node1&#45;&gt;Node12</title>
<path fill="none" stroke="midnightblue" d="M107.54,-455.35C129.54,-444.86 160.12,-431.11 188,-421.5 195.15,-419.03 202.79,-416.73 210.35,-414.65"/>
<polygon fill="midnightblue" stroke="midnightblue" points="211.43,-417.98 220.19,-412.03 209.63,-411.22 211.43,-417.98"/>
</g>
<!-- Node13 -->
<g id="node13" class="node">
<title>Node13</title>
<g id="a_node13"><a target="_parent" xlink:href="https://doc.qt.io/qt-5/qlowenergycontroller.html#createServiceObject" xlink:title=" ">
<polygon fill="none" stroke="black" points="201.5,-343.5 201.5,-373.5 326.5,-373.5 326.5,-343.5 201.5,-343.5"/>
<text text-anchor="start" x="209.5" y="-361.5" font-family="Helvetica,sans-Serif" font-size="10.00">QLowEnergyController</text>
<text text-anchor="middle" x="264" y="-350.5" font-family="Helvetica,sans-Serif" font-size="10.00">::createServiceObject</text>
</a>
</g>
</g>
<!-- Node1&#45;&gt;Node13 -->
<g id="edge13" class="edge">
<title>Node1&#45;&gt;Node13</title>
<path fill="none" stroke="midnightblue" d="M92.67,-455.32C113.12,-436.24 150.69,-403.56 188,-383.5 191.98,-381.36 196.18,-379.35 200.48,-377.49"/>
<polygon fill="midnightblue" stroke="midnightblue" points="202.05,-380.63 209.99,-373.62 199.41,-374.14 202.05,-380.63"/>
</g>
<!-- Node14 -->
<g id="node14" class="node">
<title>Node14</title>
<g id="a_node14"><a target="_parent" xlink:href="https://doc.qt.io/qt-5/qlowenergyservice.html#descriptorRead" xlink:title=" ">
<polygon fill="none" stroke="black" points="204.5,-294.5 204.5,-324.5 323.5,-324.5 323.5,-294.5 204.5,-294.5"/>
<text text-anchor="start" x="212.5" y="-312.5" font-family="Helvetica,sans-Serif" font-size="10.00">QLowEnergyService::</text>
<text text-anchor="middle" x="264" y="-301.5" font-family="Helvetica,sans-Serif" font-size="10.00">descriptorRead</text>
</a>
</g>
</g>
<!-- Node1&#45;&gt;Node14 -->
<g id="edge14" class="edge">
<title>Node1&#45;&gt;Node14</title>
<path fill="none" stroke="midnightblue" d="M85.25,-455.31C101.3,-427.15 139.48,-366.68 188,-333.5 190.38,-331.87 192.88,-330.35 195.46,-328.93"/>
<polygon fill="midnightblue" stroke="midnightblue" points="197.08,-332.03 204.49,-324.46 193.97,-325.76 197.08,-332.03"/>
</g>
<!-- Node15 -->
<g id="node15" class="node">
<title>Node15</title>
<g id="a_node15"><a target="_parent" xlink:href="https://doc.qt.io/qt-5/qlowenergyservice.html#descriptorWritten" xlink:title=" ">
<polygon fill="none" stroke="black" points="204.5,-245.5 204.5,-275.5 323.5,-275.5 323.5,-245.5 204.5,-245.5"/>
<text text-anchor="start" x="212.5" y="-263.5" font-family="Helvetica,sans-Serif" font-size="10.00">QLowEnergyService::</text>
<text text-anchor="middle" x="264" y="-252.5" font-family="Helvetica,sans-Serif" font-size="10.00">descriptorWritten</text>
</a>
</g>
</g>
<!-- Node1&#45;&gt;Node15 -->
<g id="edge15" class="edge">
<title>Node1&#45;&gt;Node15</title>
<path fill="none" stroke="midnightblue" d="M81.79,-455.47C93.8,-420.24 128.52,-331.74 188,-284.5 190.31,-282.67 192.76,-280.97 195.31,-279.41"/>
<polygon fill="midnightblue" stroke="midnightblue" points="197.18,-282.37 204.34,-274.56 193.87,-276.21 197.18,-282.37"/>
</g>
<!-- Node16 -->
<g id="node16" class="node">
<title>Node16</title>
<g id="a_node16"><a target="_parent" xlink:href="https://doc.qt.io/qt-5/qlowenergyservice.html#discoverDetails" xlink:title=" ">
<polygon fill="none" stroke="black" points="204.5,-196.5 204.5,-226.5 323.5,-226.5 323.5,-196.5 204.5,-196.5"/>
<text text-anchor="start" x="212.5" y="-214.5" font-family="Helvetica,sans-Serif" font-size="10.00">QLowEnergyService::</text>
<text text-anchor="middle" x="264" y="-203.5" font-family="Helvetica,sans-Serif" font-size="10.00">discoverDetails</text>
</a>
</g>
</g>
<!-- Node1&#45;&gt;Node16 -->
<g id="edge16" class="edge">
<title>Node1&#45;&gt;Node16</title>
<path fill="none" stroke="midnightblue" d="M79.8,-455.34C88.25,-413.83 117.42,-297.36 188,-235.5 190.34,-233.45 192.86,-231.57 195.5,-229.86"/>
<polygon fill="midnightblue" stroke="midnightblue" points="197.32,-232.85 204.32,-224.9 193.89,-226.75 197.32,-232.85"/>
</g>
<!-- Node17 -->
<g id="node17" class="node">
<title>Node17</title>
<g id="a_node17"><a target="_parent" xlink:href="https://doc.qt.io/qt-5/qlowenergyservice.html#error" xlink:title=" ">
<polygon fill="none" stroke="black" points="204.5,-147.5 204.5,-177.5 323.5,-177.5 323.5,-147.5 204.5,-147.5"/>
<text text-anchor="start" x="212.5" y="-165.5" font-family="Helvetica,sans-Serif" font-size="10.00">QLowEnergyService::</text>
<text text-anchor="middle" x="264" y="-154.5" font-family="Helvetica,sans-Serif" font-size="10.00">error</text>
</a>
</g>
</g>
<!-- Node1&#45;&gt;Node17 -->
<g id="edge17" class="edge">
<title>Node1&#45;&gt;Node17</title>
<path fill="none" stroke="midnightblue" d="M78.42,-455.36C83.65,-408.35 105.99,-263.5 188,-186.5 190.32,-184.32 192.83,-182.35 195.49,-180.55"/>
<polygon fill="midnightblue" stroke="midnightblue" points="197.5,-183.43 204.4,-175.39 193.99,-177.37 197.5,-183.43"/>
</g>
<!-- Node18 -->
<g id="node18" class="node">
<title>Node18</title>
<g id="a_node18"><a xlink:href="classAbstractPokitServicePrivate.html#ab086f2e2e5058bc7978a67e86d579325" target="_top" xlink:title="Handles QLowEnergyController::errorOccurred events.">
<polygon fill="none" stroke="black" points="188,-725.5 188,-755.5 340,-755.5 340,-725.5 188,-725.5"/>
<text text-anchor="start" x="196" y="-743.5" font-family="Helvetica,sans-Serif" font-size="10.00">AbstractPokitServicePrivate</text>
<text text-anchor="middle" x="264" y="-732.5" font-family="Helvetica,sans-Serif" font-size="10.00">::errorOccurred</text>
</a>
</g>
</g>
<!-- Node1&#45;&gt;Node18 -->
<g id="edge18" class="edge">
<title>Node1&#45;&gt;Node18</title>
<path fill="none" stroke="midnightblue" d="M79.52,-485.63C87.4,-528.21 115.51,-650.16 188,-715.5 189.74,-717.07 191.58,-718.54 193.5,-719.92"/>
<polygon fill="midnightblue" stroke="midnightblue" points="192.02,-723.12 202.37,-725.39 195.7,-717.16 192.02,-723.12"/>
</g>
<!-- Node19 -->
<g id="node19" class="node">
<title>Node19</title>
<g id="a_node19"><a target="_parent" xlink:href="https://doc.qt.io/qt-5/qlowenergydescriptor.html#name" xlink:title=" ">
<polygon fill="none" stroke="black" points="200,-98.5 200,-128.5 328,-128.5 328,-98.5 200,-98.5"/>
<text text-anchor="start" x="208" y="-116.5" font-family="Helvetica,sans-Serif" font-size="10.00">QLowEnergyDescriptor</text>
<text text-anchor="middle" x="264" y="-105.5" font-family="Helvetica,sans-Serif" font-size="10.00">::name</text>
</a>
</g>
</g>
<!-- Node1&#45;&gt;Node19 -->
<g id="edge20" class="edge">
<title>Node1&#45;&gt;Node19</title>
<path fill="none" stroke="midnightblue" d="M77.42,-455.43C79.72,-403.48 94.36,-230.01 188,-137.5 189.09,-136.42 190.24,-135.39 191.42,-134.4"/>
<polygon fill="midnightblue" stroke="midnightblue" points="193.6,-137.15 199.79,-128.55 189.59,-131.41 193.6,-137.15"/>
</g>
<!-- Node20 -->
<g id="node20" class="node">
<title>Node20</title>
<g id="a_node20"><a xlink:href="classAbstractPokitServicePrivate.html#ad4cd6a5700b0b764b3a81f67603dc68f" target="_top" xlink:title="Handles QLowEnergyController::stateChanged events.">
<polygon fill="none" stroke="black" points="188,-676.5 188,-706.5 340,-706.5 340,-676.5 188,-676.5"/>
<text text-anchor="start" x="196" y="-694.5" font-family="Helvetica,sans-Serif" font-size="10.00">AbstractPokitServicePrivate</text>
<text text-anchor="middle" x="264" y="-683.5" font-family="Helvetica,sans-Serif" font-size="10.00">::stateChanged</text>
</a>
</g>
</g>
<!-- Node1&#45;&gt;Node20 -->
<g id="edge21" class="edge">
<title>Node1&#45;&gt;Node20</title>
<path fill="none" stroke="midnightblue" d="M81.42,-485.74C92.82,-522.37 126.71,-616.05 188,-666.5 190.04,-668.18 192.2,-669.75 194.44,-671.21"/>
<polygon fill="midnightblue" stroke="midnightblue" points="193.06,-674.45 203.48,-676.36 196.52,-668.37 193.06,-674.45"/>
</g>
<!-- Node21 -->
<g id="node21" class="node">
<title>Node21</title>
<g id="a_node21"><a target="_parent" xlink:href="https://doc.qt.io/qt-5/qlowenergyservice.html#stateChanged" xlink:title=" ">
<polygon fill="none" stroke="black" points="204.5,-49.5 204.5,-79.5 323.5,-79.5 323.5,-49.5 204.5,-49.5"/>
<text text-anchor="start" x="212.5" y="-67.5" font-family="Helvetica,sans-Serif" font-size="10.00">QLowEnergyService::</text>
<text text-anchor="middle" x="264" y="-56.5" font-family="Helvetica,sans-Serif" font-size="10.00">stateChanged</text>
</a>
</g>
</g>
<!-- Node1&#45;&gt;Node21 -->
<g id="edge23" class="edge">
<title>Node1&#45;&gt;Node21</title>
<path fill="none" stroke="midnightblue" d="M76.67,-455.27C76.3,-398.46 82.74,-196.63 188,-88.5 190.34,-86.1 192.91,-83.94 195.66,-81.99"/>
<polygon fill="midnightblue" stroke="midnightblue" points="197.58,-84.93 204.36,-76.78 193.98,-78.92 197.58,-84.93"/>
</g>
<!-- Node22 -->
<g id="node22" class="node">
<title>Node22</title>
<g id="a_node22"><a target="_parent" xlink:href="https://doc.qt.io/qt-5/qlowenergydescriptor.html#uuid" xlink:title=" ">
<polygon fill="none" stroke="black" points="200,-0.5 200,-30.5 328,-30.5 328,-0.5 200,-0.5"/>
<text text-anchor="start" x="208" y="-18.5" font-family="Helvetica,sans-Serif" font-size="10.00">QLowEnergyDescriptor</text>
<text text-anchor="middle" x="264" y="-7.5" font-family="Helvetica,sans-Serif" font-size="10.00">::uuid</text>
</a>
</g>
</g>
<!-- Node1&#45;&gt;Node22 -->
<g id="edge26" class="edge">
<title>Node1&#45;&gt;Node22</title>
<path fill="none" stroke="midnightblue" d="M78.92,-455.39C87.98,-386.48 128.46,-102.57 188,-39.5 189.09,-38.35 190.23,-37.26 191.41,-36.21"/>
<polygon fill="midnightblue" stroke="midnightblue" points="193.84,-38.78 199.87,-30.07 189.72,-33.11 193.84,-38.78"/>
</g>
<!-- Node3&#45;&gt;Node2 -->
<g id="edge3" class="edge">
<title>Node3&#45;&gt;Node2</title>
<path fill="none" stroke="midnightblue" d="M287.51,-843.57C309.34,-857.63 343.8,-878.34 376,-891.5 384.03,-894.78 392.81,-897.66 401.37,-900.11"/>
<polygon fill="midnightblue" stroke="midnightblue" points="400.7,-903.55 411.27,-902.79 402.53,-896.8 400.7,-903.55"/>
</g>
<!-- Node3&#45;&gt;Node4 -->
<g id="edge4" class="edge">
<title>Node3&#45;&gt;Node4</title>
<path fill="none" stroke="midnightblue" d="M327.3,-843.52C350.49,-849.11 376.46,-855.37 398.32,-860.64"/>
<polygon fill="midnightblue" stroke="midnightblue" points="397.5,-864.05 408.05,-862.99 399.14,-857.24 397.5,-864.05"/>
</g>
<!-- Node3&#45;&gt;Node5 -->
<g id="edge5" class="edge">
<title>Node3&#45;&gt;Node5</title>
<path fill="none" stroke="midnightblue" d="M306.87,-813.36C338.45,-801.94 381.32,-786.43 411.4,-775.56"/>
<polygon fill="midnightblue" stroke="midnightblue" points="412.86,-778.75 421.07,-772.06 410.48,-772.17 412.86,-778.75"/>
</g>
<!-- Node6 -->
<g id="node6" class="node">
<title>Node6</title>
<g id="a_node6"><a target="_parent" xlink:href="https://doc.qt.io/qt-5/qlowenergycharacteristic.html#uuid" xlink:title=" ">
<polygon fill="none" stroke="black" points="376,-813.5 376,-843.5 521,-843.5 521,-813.5 376,-813.5"/>
<text text-anchor="start" x="384" y="-831.5" font-family="Helvetica,sans-Serif" font-size="10.00">QLowEnergyCharacteristic</text>
<text text-anchor="middle" x="448.5" y="-820.5" font-family="Helvetica,sans-Serif" font-size="10.00">::uuid</text>
</a>
</g>
</g>
<!-- Node3&#45;&gt;Node6 -->
<g id="edge6" class="edge">
<title>Node3&#45;&gt;Node6</title>
<path fill="none" stroke="midnightblue" d="M340.02,-828.5C348.41,-828.5 356.98,-828.5 365.45,-828.5"/>
<polygon fill="midnightblue" stroke="midnightblue" points="365.71,-832 375.71,-828.5 365.71,-825 365.71,-832"/>
</g>
<!-- Node18&#45;&gt;Node5 -->
<g id="edge19" class="edge">
<title>Node18&#45;&gt;Node5</title>
<path fill="none" stroke="midnightblue" d="M340.02,-749.54C361.59,-752.14 384.4,-754.89 403.44,-757.19"/>
<polygon fill="midnightblue" stroke="midnightblue" points="403.25,-760.69 413.6,-758.41 404.09,-753.74 403.25,-760.69"/>
</g>
<!-- Node20&#45;&gt;Node5 -->
<g id="edge22" class="edge">
<title>Node20&#45;&gt;Node5</title>
<path fill="none" stroke="midnightblue" d="M314.47,-706.54C323.03,-709.37 331.81,-712.41 340,-715.5 366.77,-725.61 396.53,-738.77 417.94,-748.6"/>
<polygon fill="midnightblue" stroke="midnightblue" points="416.6,-751.84 427.15,-752.86 419.54,-745.48 416.6,-751.84"/>
</g>
</g>
</svg>
