<?xml version="1.0" encoding="UTF-8" standalone="no"?>
<!DOCTYPE svg PUBLIC "-//W3C//DTD SVG 1.1//EN"
 "http://www.w3.org/Graphics/SVG/1.1/DTD/svg11.dtd">
<!-- Generated by graphviz version 2.43.0 (0)
 -->
<!-- Title: MeterCommand::lowestRange Pages: 1 -->
<svg width="395pt" height="172pt"
 viewBox="0.00 0.00 395.00 171.50" xmlns="http://www.w3.org/2000/svg" xmlns:xlink="http://www.w3.org/1999/xlink">
<g id="graph0" class="graph" transform="scale(1 1) rotate(0) translate(4 167.5)">
<title>MeterCommand::lowestRange</title>
<!-- Node1 -->
<g id="node1" class="node">
<title>Node1</title>
<g id="a_node1"><a xlink:title="Returns the lowest mode range that can measure at least up to desired max, or AutoRange if no such ra...">
<polygon fill="#999999" stroke="#666666" points="164,-86 0,-86 0,-67 164,-67 164,-86"/>
<text text-anchor="middle" x="82" y="-74" font-family="Helvetica,sans-Serif" font-size="10.00">MeterCommand::lowestRange</text>
</a>
</g>
</g>
<!-- Node2 -->
<g id="node2" class="node">
<title>Node2</title>
<g id="a_node2"><a xlink:href="classMeterCommand.html#adcc916b68fa32670962f99f640a0254e" target="_top" xlink:title="Returns the lowest current range that can measure at least up to desired max, or AutoRange if no such...">
<polygon fill="white" stroke="#666666" points="378.5,-163.5 208.5,-163.5 208.5,-133.5 378.5,-133.5 378.5,-163.5"/>
<text text-anchor="start" x="216.5" y="-151.5" font-family="Helvetica,sans-Serif" font-size="10.00">MeterCommand::lowestCurrent</text>
<text text-anchor="middle" x="293.5" y="-140.5" font-family="Helvetica,sans-Serif" font-size="10.00">Range</text>
</a>
</g>
</g>
<!-- Node1&#45;&gt;Node2 -->
<g id="edge1" class="edge">
<title>Node1&#45;&gt;Node2</title>
<path fill="none" stroke="#63b8ff" d="M103.81,-86.04C126.96,-96.42 165.63,-113.05 200,-124.5 206.94,-126.81 214.22,-129.04 221.54,-131.14"/>
<polygon fill="#63b8ff" stroke="#63b8ff" points="229.47,-133.37 220.79,-134.67 225.62,-132.29 221.77,-131.2 221.77,-131.2 221.77,-131.2 225.62,-132.29 222.74,-127.74 229.47,-133.37 229.47,-133.37"/>
</g>
<!-- Node3 -->
<g id="node3" class="node">
<title>Node3</title>
<g id="a_node3"><a xlink:href="classMeterCommand.html#a4f5535a0b9d26e9b45903374561d4c97" target="_top" xlink:title="Returns the lowest resistance range that can measure at least up to desired max, or AutoRange if no s...">
<polygon fill="white" stroke="#666666" points="387,-115.5 200,-115.5 200,-85.5 387,-85.5 387,-115.5"/>
<text text-anchor="start" x="208" y="-103.5" font-family="Helvetica,sans-Serif" font-size="10.00">MeterCommand::lowestResistance</text>
<text text-anchor="middle" x="293.5" y="-92.5" font-family="Helvetica,sans-Serif" font-size="10.00">Range</text>
</a>
</g>
</g>
<!-- Node1&#45;&gt;Node3 -->
<g id="edge2" class="edge">
<title>Node1&#45;&gt;Node3</title>
<path fill="none" stroke="#63b8ff" d="M164.3,-85.81C173.28,-86.84 182.51,-87.9 191.7,-88.95"/>
<polygon fill="#63b8ff" stroke="#63b8ff" points="199.75,-89.88 191.4,-92.54 195.78,-89.42 191.81,-88.96 191.81,-88.96 191.81,-88.96 195.78,-89.42 192.21,-85.39 199.75,-89.88 199.75,-89.88"/>
</g>
<!-- Node4 -->
<g id="node4" class="node">
<title>Node4</title>
<g id="a_node4"><a xlink:href="classMeterCommand.html#a84a9af540f43dfd03c4cd2a68dc87476" target="_top" xlink:title="Returns the lowest voltage range that can measure at least up to desired max, or AutoRange if no such...">
<polygon fill="white" stroke="#666666" points="378.5,-67.5 208.5,-67.5 208.5,-37.5 378.5,-37.5 378.5,-67.5"/>
<text text-anchor="start" x="216.5" y="-55.5" font-family="Helvetica,sans-Serif" font-size="10.00">MeterCommand::lowestVoltage</text>
<text text-anchor="middle" x="293.5" y="-44.5" font-family="Helvetica,sans-Serif" font-size="10.00">Range</text>
</a>
</g>
</g>
<!-- Node1&#45;&gt;Node4 -->
<g id="edge3" class="edge">
<title>Node1&#45;&gt;Node4</title>
<path fill="none" stroke="#63b8ff" d="M164.3,-67.19C176.07,-65.84 188.26,-64.44 200.24,-63.07"/>
<polygon fill="#63b8ff" stroke="#63b8ff" points="208.48,-62.13 200.94,-66.61 204.51,-62.58 200.53,-63.04 200.53,-63.04 200.53,-63.04 204.51,-62.58 200.12,-59.46 208.48,-62.13 208.48,-62.13"/>
</g>
<!-- Node5 -->
<g id="node5" class="node">
<title>Node5</title>
<g id="a_node5"><a target="_parent" xlink:href="https://doc.qt.io/qt-5/qobject.html#tr" xlink:title=" ">
<polygon fill="white" stroke="#666666" points="328,-19 259,-19 259,0 328,0 328,-19"/>
<text text-anchor="middle" x="293.5" y="-7" font-family="Helvetica,sans-Serif" font-size="10.00">QObject::tr</text>
</a>
</g>
</g>
<!-- Node1&#45;&gt;Node5 -->
<g id="edge4" class="edge">
<title>Node1&#45;&gt;Node5</title>
<path fill="none" stroke="#63b8ff" d="M103.29,-66.81C126.29,-56.16 165.14,-39.13 200,-28.5 216.29,-23.53 234.59,-19.47 250.59,-16.39"/>
<polygon fill="#63b8ff" stroke="#63b8ff" points="258.73,-14.87 251.52,-19.88 254.79,-15.61 250.86,-16.34 250.86,-16.34 250.86,-16.34 254.79,-15.61 250.2,-12.8 258.73,-14.87 258.73,-14.87"/>
</g>
</g>
</svg>
