<?xml version="1.0" encoding="UTF-8" standalone="no"?>
<!DOCTYPE svg PUBLIC "-//W3C//DTD SVG 1.1//EN"
 "http://www.w3.org/Graphics/SVG/1.1/DTD/svg11.dtd">
<!-- Generated by graphviz version 2.43.0 (0)
 -->
<!-- Title: DeviceCommand::disconnect Pages: 1 -->
<svg width="783pt" height="498pt"
 viewBox="0.00 0.00 783.00 498.00" xmlns="http://www.w3.org/2000/svg" xmlns:xlink="http://www.w3.org/1999/xlink">
<g id="graph0" class="graph" transform="scale(1 1) rotate(0) translate(4 494)">
<title>DeviceCommand::disconnect</title>
<!-- Node1 -->
<g id="Node000001" class="node">
<title>Node1</title>
<g id="a_Node000001"><a xlink:title="Disconnects the underlying Pokit device, and sets exitCode to be return to the OS once the disconnect...">
<polygon fill="#999999" stroke="#666666" points="775,-259.5 616,-259.5 616,-240.5 775,-240.5 775,-259.5"/>
<text text-anchor="middle" x="695.5" y="-247.5" font-family="Helvetica,sans-Serif" font-size="10.00">DeviceCommand::disconnect</text>
</a>
</g>
</g>
<!-- Node2 -->
<g id="Node000002" class="node">
<title>Node2</title>
<g id="a_Node000002"><a xlink:href="classFlashLedCommand.html#af7a5897fc7657f70466c82f5ed538ccb" target="_top" xlink:title="Handles StatusService::deviceLedFlashed events, by outputting the result and exiting.">
<polygon fill="white" stroke="#666666" points="573.5,-490 407.5,-490 407.5,-460 573.5,-460 573.5,-490"/>
<text text-anchor="start" x="415.5" y="-478" font-family="Helvetica,sans-Serif" font-size="10.00">FlashLedCommand::deviceLed</text>
<text text-anchor="middle" x="490.5" y="-467" font-family="Helvetica,sans-Serif" font-size="10.00">Flashed</text>
</a>
</g>
</g>
<!-- Node1&#45;&gt;Node2 -->
<g id="edge1_Node000001_Node000002" class="edge">
<title>Node1&#45;&gt;Node2</title>
<g id="a_edge1_Node000001_Node000002"><a xlink:title=" ">
<path fill="none" stroke="#63b8ff" d="M689.56,-267.66C677.63,-306.92 643.47,-401.85 580,-451 575.59,-454.41 570.74,-457.34 565.64,-459.85"/>
<polygon fill="#63b8ff" stroke="#63b8ff" points="691.88,-259.75 693.08,-268.44 690.75,-263.58 689.62,-267.42 689.62,-267.42 689.62,-267.42 690.75,-263.58 686.17,-266.41 691.88,-259.75 691.88,-259.75"/>
</a>
</g>
</g>
<!-- Node4 -->
<g id="Node000004" class="node">
<title>Node4</title>
<g id="a_Node000004"><a xlink:href="classSetNameCommand.html#a6488980e62ffb16274644152a1364bce" target="_top" xlink:title="Handles StatusService::deviceNameWritten events, by outputting the result and exiting.">
<polygon fill="white" stroke="#666666" points="580,-442 401,-442 401,-412 580,-412 580,-442"/>
<text text-anchor="start" x="409" y="-430" font-family="Helvetica,sans-Serif" font-size="10.00">SetNameCommand::deviceName</text>
<text text-anchor="middle" x="490.5" y="-419" font-family="Helvetica,sans-Serif" font-size="10.00">Written</text>
</a>
</g>
</g>
<!-- Node1&#45;&gt;Node4 -->
<g id="edge3_Node000001_Node000004" class="edge">
<title>Node1&#45;&gt;Node4</title>
<g id="a_edge3_Node000001_Node000004"><a xlink:title=" ">
<path fill="none" stroke="#63b8ff" d="M686.65,-266.86C671.02,-298.57 632.88,-367.09 580,-403 575,-406.4 569.53,-409.32 563.84,-411.82"/>
<polygon fill="#63b8ff" stroke="#63b8ff" points="690.14,-259.64 689.91,-268.41 688.4,-263.24 686.66,-266.84 686.66,-266.84 686.66,-266.84 688.4,-263.24 683.42,-265.28 690.14,-259.64 690.14,-259.64"/>
</a>
</g>
</g>
<!-- Node6 -->
<g id="Node000006" class="node">
<title>Node6</title>
<g id="a_Node000006"><a xlink:href="classStatusCommand.html#ae2349e3d64b1b4db9b80465c0b7dadb7" target="_top" xlink:title="Outputs the Pokit device&#39;s details, including chrs, in the selected format.">
<polygon fill="white" stroke="#666666" points="575,-394 406,-394 406,-364 575,-364 575,-394"/>
<text text-anchor="start" x="414" y="-382" font-family="Helvetica,sans-Serif" font-size="10.00">StatusCommand::outputDevice</text>
<text text-anchor="middle" x="490.5" y="-371" font-family="Helvetica,sans-Serif" font-size="10.00">Status</text>
</a>
</g>
</g>
<!-- Node1&#45;&gt;Node6 -->
<g id="edge5_Node000001_Node000006" class="edge">
<title>Node1&#45;&gt;Node6</title>
<g id="a_edge5_Node000001_Node000006"><a xlink:title=" ">
<path fill="none" stroke="#63b8ff" d="M681.53,-265.99C661.95,-289.08 622.57,-331.55 580,-355 573.86,-358.38 567.22,-361.31 560.43,-363.84"/>
<polygon fill="#63b8ff" stroke="#63b8ff" points="686.73,-259.76 684.37,-268.21 684.17,-262.83 681.61,-265.9 681.61,-265.9 681.61,-265.9 684.17,-262.83 678.84,-263.59 686.73,-259.76 686.73,-259.76"/>
</a>
</g>
</g>
<!-- Node8 -->
<g id="Node000008" class="node">
<title>Node8</title>
<g id="a_Node000008"><a xlink:href="classMeterCommand.html#a551a1c3d1c6f10384b5ccf264a640eff" target="_top" xlink:title="Outputs meter reading in the selected ouput format.">
<polygon fill="white" stroke="#666666" points="577,-345.5 404,-345.5 404,-326.5 577,-326.5 577,-345.5"/>
<text text-anchor="middle" x="490.5" y="-333.5" font-family="Helvetica,sans-Serif" font-size="10.00">MeterCommand::outputReading</text>
</a>
</g>
</g>
<!-- Node1&#45;&gt;Node8 -->
<g id="edge7_Node000001_Node000008" class="edge">
<title>Node1&#45;&gt;Node8</title>
<g id="a_edge7_Node000001_Node000008"><a xlink:title=" ">
<path fill="none" stroke="#63b8ff" d="M674.86,-264.13C652.81,-279.35 615.45,-303.23 580,-317 570.19,-320.81 559.45,-323.93 548.94,-326.46"/>
<polygon fill="#63b8ff" stroke="#63b8ff" points="681.46,-259.51 676.97,-267.05 678.18,-261.81 674.91,-264.1 674.91,-264.1 674.91,-264.1 678.18,-261.81 672.84,-261.15 681.46,-259.51 681.46,-259.51"/>
</a>
</g>
</g>
<!-- Node11 -->
<g id="Node000011" class="node">
<title>Node11</title>
<g id="a_Node000011"><a xlink:href="classLoggerFetchCommand.html#a2f093386853fc6667de091a0e921a665" target="_top" xlink:title="Outputs logger samples in the selected ouput format.">
<polygon fill="white" stroke="#666666" points="553.5,-308 427.5,-308 427.5,-278 553.5,-278 553.5,-308"/>
<text text-anchor="start" x="435.5" y="-296" font-family="Helvetica,sans-Serif" font-size="10.00">LoggerFetchCommand</text>
<text text-anchor="middle" x="490.5" y="-285" font-family="Helvetica,sans-Serif" font-size="10.00">::outputSamples</text>
</a>
</g>
</g>
<!-- Node1&#45;&gt;Node11 -->
<g id="edge10_Node000001_Node000011" class="edge">
<title>Node1&#45;&gt;Node11</title>
<g id="a_edge10_Node000001_Node000011"><a xlink:title=" ">
<path fill="none" stroke="#63b8ff" d="M641.32,-261.27C614.48,-266.95 581.76,-273.88 553.75,-279.81"/>
<polygon fill="#63b8ff" stroke="#63b8ff" points="649.45,-259.54 642.37,-264.72 645.53,-260.37 641.62,-261.2 641.62,-261.2 641.62,-261.2 645.53,-260.37 640.88,-257.68 649.45,-259.54 649.45,-259.54"/>
</a>
</g>
</g>
<!-- Node13 -->
<g id="Node000013" class="node">
<title>Node13</title>
<g id="a_Node000013"><a xlink:href="classDsoCommand.html#a5ed6988ac93f2964979b8dce1425816e" target="_top" xlink:title="Outputs DSO samples in the selected ouput format.">
<polygon fill="white" stroke="#666666" points="573,-259.5 408,-259.5 408,-240.5 573,-240.5 573,-259.5"/>
<text text-anchor="middle" x="490.5" y="-247.5" font-family="Helvetica,sans-Serif" font-size="10.00">DsoCommand::outputSamples</text>
</a>
</g>
</g>
<!-- Node1&#45;&gt;Node13 -->
<g id="edge12_Node000001_Node000013" class="edge">
<title>Node1&#45;&gt;Node13</title>
<g id="a_edge12_Node000001_Node000013"><a xlink:title=" ">
<path fill="none" stroke="#63b8ff" d="M607.5,-250C596.14,-250 584.52,-250 573.25,-250"/>
<polygon fill="#63b8ff" stroke="#63b8ff" points="615.72,-250 607.72,-253.6 611.72,-250 607.72,-250 607.72,-250 607.72,-250 611.72,-250 607.72,-246.4 615.72,-250 615.72,-250"/>
</a>
</g>
</g>
<!-- Node16 -->
<g id="Node000016" class="node">
<title>Node16</title>
<g id="a_Node000016"><a xlink:href="classInfoCommand.html#a06d095d57662fd10b201d6273085c34e" target="_top" xlink:title="Handles service detail discovery events.">
<polygon fill="white" stroke="#666666" points="571,-222 410,-222 410,-192 571,-192 571,-222"/>
<text text-anchor="start" x="418" y="-210" font-family="Helvetica,sans-Serif" font-size="10.00">InfoCommand::serviceDetails</text>
<text text-anchor="middle" x="490.5" y="-199" font-family="Helvetica,sans-Serif" font-size="10.00">Discovered</text>
</a>
</g>
</g>
<!-- Node1&#45;&gt;Node16 -->
<g id="edge15_Node000001_Node000016" class="edge">
<title>Node1&#45;&gt;Node16</title>
<g id="a_edge15_Node000001_Node000016"><a xlink:title=" ">
<path fill="none" stroke="#63b8ff" d="M641.45,-238.76C617.28,-233.64 588.33,-227.51 562.34,-222.01"/>
<polygon fill="#63b8ff" stroke="#63b8ff" points="649.45,-240.46 640.88,-242.32 645.53,-239.63 641.62,-238.8 641.62,-238.8 641.62,-238.8 645.53,-239.63 642.37,-235.28 649.45,-240.46 649.45,-240.46"/>
</a>
</g>
</g>
<!-- Node17 -->
<g id="Node000017" class="node">
<title>Node17</title>
<g id="a_Node000017"><a xlink:href="classLoggerStartCommand.html#a6b0922cf2e55e23c2df85cddf35e0b12" target="_top" xlink:title="Invoked when the data logger settings have been written.">
<polygon fill="white" stroke="#666666" points="552,-174 429,-174 429,-144 552,-144 552,-174"/>
<text text-anchor="start" x="437" y="-162" font-family="Helvetica,sans-Serif" font-size="10.00">LoggerStartCommand</text>
<text text-anchor="middle" x="490.5" y="-151" font-family="Helvetica,sans-Serif" font-size="10.00">::settingsWritten</text>
</a>
</g>
</g>
<!-- Node1&#45;&gt;Node17 -->
<g id="edge16_Node000001_Node000017" class="edge">
<title>Node1&#45;&gt;Node17</title>
<g id="a_edge16_Node000001_Node000017"><a xlink:title=" ">
<path fill="none" stroke="#63b8ff" d="M673.99,-235.74C651.72,-220.8 614.69,-197.55 580,-183 571.19,-179.31 561.65,-176.02 552.2,-173.17"/>
<polygon fill="#63b8ff" stroke="#63b8ff" points="680.67,-240.27 672.03,-238.76 677.36,-238.02 674.05,-235.78 674.05,-235.78 674.05,-235.78 677.36,-238.02 676.07,-232.8 680.67,-240.27 680.67,-240.27"/>
</a>
</g>
</g>
<!-- Node19 -->
<g id="Node000019" class="node">
<title>Node19</title>
<g id="a_Node000019"><a xlink:href="classLoggerStopCommand.html#a0fc328ff975018ca87c14c38a56a2412" target="_top" xlink:title="Invoked when the data logger settings have been written.">
<polygon fill="white" stroke="#666666" points="554.5,-126 426.5,-126 426.5,-96 554.5,-96 554.5,-126"/>
<text text-anchor="start" x="434.5" y="-114" font-family="Helvetica,sans-Serif" font-size="10.00">LoggerStopCommand::</text>
<text text-anchor="middle" x="490.5" y="-103" font-family="Helvetica,sans-Serif" font-size="10.00">settingsWritten</text>
</a>
</g>
</g>
<!-- Node1&#45;&gt;Node19 -->
<g id="edge18_Node000001_Node000019" class="edge">
<title>Node1&#45;&gt;Node19</title>
<g id="a_edge18_Node000001_Node000019"><a xlink:title=" ">
<path fill="none" stroke="#63b8ff" d="M682.74,-233.57C663.91,-208.5 624.57,-160.89 580,-135 572.15,-130.44 563.41,-126.72 554.57,-123.7"/>
<polygon fill="#63b8ff" stroke="#63b8ff" points="687.7,-240.29 680.05,-236 685.32,-237.08 682.95,-233.86 682.95,-233.86 682.95,-233.86 685.32,-237.08 685.84,-231.72 687.7,-240.29 687.7,-240.29"/>
</a>
</g>
</g>
<!-- Node21 -->
<g id="Node000021" class="node">
<title>Node21</title>
<g id="a_Node000021"><a xlink:href="classCalibrateCommand.html#afaf2c6153a3d409c06318dc809df1c78" target="_top" xlink:title="Handles CalibrationService::temperatureCalibrated events, by outputting the result and exiting.">
<polygon fill="white" stroke="#666666" points="579.5,-78 401.5,-78 401.5,-48 579.5,-48 579.5,-78"/>
<text text-anchor="start" x="409.5" y="-66" font-family="Helvetica,sans-Serif" font-size="10.00">CalibrateCommand::temperature</text>
<text text-anchor="middle" x="490.5" y="-55" font-family="Helvetica,sans-Serif" font-size="10.00">Calibrated</text>
</a>
</g>
</g>
<!-- Node1&#45;&gt;Node21 -->
<g id="edge20_Node000001_Node000021" class="edge">
<title>Node1&#45;&gt;Node21</title>
<g id="a_edge20_Node000001_Node000021"><a xlink:title=" ">
<path fill="none" stroke="#63b8ff" d="M687.18,-232.52C672.2,-198.96 634.81,-125.44 580,-87 575.05,-83.53 569.61,-80.56 563.95,-78.01"/>
<polygon fill="#63b8ff" stroke="#63b8ff" points="690.5,-240.14 684,-234.24 688.9,-236.47 687.3,-232.81 687.3,-232.81 687.3,-232.81 688.9,-236.47 690.6,-231.37 690.5,-240.14 690.5,-240.14"/>
</a>
</g>
</g>
<!-- Node23 -->
<g id="Node000023" class="node">
<title>Node23</title>
<g id="a_Node000023"><a xlink:href="classSetTorchCommand.html#af4c7f99da529f36d29555565c814b82b" target="_top" xlink:title="Handles StatusService::torchStatusWritten events, by outputting the result and exiting.">
<polygon fill="white" stroke="#666666" points="575.5,-30 405.5,-30 405.5,0 575.5,0 575.5,-30"/>
<text text-anchor="start" x="413.5" y="-18" font-family="Helvetica,sans-Serif" font-size="10.00">SetTorchCommand::torchStatus</text>
<text text-anchor="middle" x="490.5" y="-7" font-family="Helvetica,sans-Serif" font-size="10.00">Written</text>
</a>
</g>
</g>
<!-- Node1&#45;&gt;Node23 -->
<g id="edge22_Node000001_Node000023" class="edge">
<title>Node1&#45;&gt;Node23</title>
<g id="a_edge22_Node000001_Node000023"><a xlink:title=" ">
<path fill="none" stroke="#63b8ff" d="M690.05,-232.31C678.9,-191.64 645.78,-91.03 580,-39 575.63,-35.54 570.8,-32.58 565.72,-30.05"/>
<polygon fill="#63b8ff" stroke="#63b8ff" points="692.16,-240.25 686.63,-233.44 691.13,-236.38 690.11,-232.51 690.11,-232.51 690.11,-232.51 691.13,-236.38 693.59,-231.59 692.16,-240.25 692.16,-240.25"/>
</a>
</g>
</g>
<!-- Node3 -->
<g id="Node000003" class="node">
<title>Node3</title>
<g id="a_Node000003"><a xlink:href="classFlashLedCommand.html#ae36389ece2050dd8546c5b379df942a9" target="_top" xlink:title="Returns a Pokit service object for the derived command class.">
<polygon fill="white" stroke="#666666" points="361,-484.5 193,-484.5 193,-465.5 361,-465.5 361,-484.5"/>
<text text-anchor="middle" x="277" y="-472.5" font-family="Helvetica,sans-Serif" font-size="10.00">FlashLedCommand::getService</text>
</a>
</g>
</g>
<!-- Node2&#45;&gt;Node3 -->
<g id="edge2_Node000002_Node000003" class="edge">
<title>Node2&#45;&gt;Node3</title>
<g id="a_edge2_Node000002_Node000003"><a xlink:title=" ">
<path fill="none" stroke="#63b8ff" d="M399.17,-475C386.52,-475 373.58,-475 361.07,-475"/>
<polygon fill="#63b8ff" stroke="#63b8ff" points="407.43,-475 399.43,-478.6 403.43,-475 399.43,-475 399.43,-475 399.43,-475 403.43,-475 399.43,-471.4 407.43,-475 407.43,-475"/>
</a>
</g>
</g>
<!-- Node5 -->
<g id="Node000005" class="node">
<title>Node5</title>
<g id="a_Node000005"><a xlink:href="classSetNameCommand.html#ac57aeeca51642c3ba79e6c6578677210" target="_top" xlink:title="Returns a Pokit service object for the derived command class.">
<polygon fill="white" stroke="#666666" points="362,-436.5 192,-436.5 192,-417.5 362,-417.5 362,-436.5"/>
<text text-anchor="middle" x="277" y="-424.5" font-family="Helvetica,sans-Serif" font-size="10.00">SetNameCommand::getService</text>
</a>
</g>
</g>
<!-- Node4&#45;&gt;Node5 -->
<g id="edge4_Node000004_Node000005" class="edge">
<title>Node4&#45;&gt;Node5</title>
<g id="a_edge4_Node000004_Node000005"><a xlink:title=" ">
<path fill="none" stroke="#63b8ff" d="M392.6,-427C382.44,-427 372.16,-427 362.16,-427"/>
<polygon fill="#63b8ff" stroke="#63b8ff" points="400.72,-427 392.72,-430.6 396.72,-427 392.72,-427 392.72,-427 392.72,-427 396.72,-427 392.72,-423.4 400.72,-427 400.72,-427"/>
</a>
</g>
</g>
<!-- Node7 -->
<g id="Node000007" class="node">
<title>Node7</title>
<g id="a_Node000007"><a xlink:href="classStatusCommand.html#af275e3a02032915dd27e0c0e041ff6c1" target="_top" xlink:title="Handles service detail discovery events.">
<polygon fill="white" stroke="#666666" points="363.5,-394 190.5,-394 190.5,-364 363.5,-364 363.5,-394"/>
<text text-anchor="start" x="198.5" y="-382" font-family="Helvetica,sans-Serif" font-size="10.00">StatusCommand::serviceDetails</text>
<text text-anchor="middle" x="277" y="-371" font-family="Helvetica,sans-Serif" font-size="10.00">Discovered</text>
</a>
</g>
</g>
<!-- Node6&#45;&gt;Node7 -->
<g id="edge6_Node000006_Node000007" class="edge">
<title>Node6&#45;&gt;Node7</title>
<g id="a_edge6_Node000006_Node000007"><a xlink:title=" ">
<path fill="none" stroke="#63b8ff" d="M397.74,-379C386.45,-379 374.95,-379 363.76,-379"/>
<polygon fill="#63b8ff" stroke="#63b8ff" points="405.91,-379 397.91,-382.6 401.91,-379 397.91,-379 397.91,-379 397.91,-379 401.91,-379 397.91,-375.4 405.91,-379 405.91,-379"/>
</a>
</g>
</g>
<!-- Node9 -->
<g id="Node000009" class="node">
<title>Node9</title>
<g id="a_Node000009"><a xlink:href="classMeterCommand.html#a994e13d73c26eac303fa34b14082c9a4" target="_top" xlink:title="Invoked when the multimeter settings have been written, to begin reading the meter values.">
<polygon fill="white" stroke="#666666" points="365,-345.5 189,-345.5 189,-326.5 365,-326.5 365,-345.5"/>
<text text-anchor="middle" x="277" y="-333.5" font-family="Helvetica,sans-Serif" font-size="10.00">MeterCommand::settingsWritten</text>
</a>
</g>
</g>
<!-- Node8&#45;&gt;Node9 -->
<g id="edge8_Node000008_Node000009" class="edge">
<title>Node8&#45;&gt;Node9</title>
<g id="a_edge8_Node000008_Node000009"><a xlink:title=" ">
<path fill="none" stroke="#63b8ff" d="M395.69,-336C385.55,-336 375.27,-336 365.22,-336"/>
<polygon fill="#63b8ff" stroke="#63b8ff" points="403.78,-336 395.78,-339.6 399.78,-336 395.78,-336 395.78,-336 395.78,-336 399.78,-336 395.78,-332.4 403.78,-336 403.78,-336"/>
</a>
</g>
</g>
<!-- Node10 -->
<g id="Node000010" class="node">
<title>Node10</title>
<g id="a_Node000010"><a xlink:href="classMeterCommand.html#abdc90c9cd480caa8ad04281c49a1e9a4" target="_top" xlink:title="Returns a Pokit service object for the derived command class.">
<polygon fill="white" stroke="#666666" points="153,-345.5 0,-345.5 0,-326.5 153,-326.5 153,-345.5"/>
<text text-anchor="middle" x="76.5" y="-333.5" font-family="Helvetica,sans-Serif" font-size="10.00">MeterCommand::getService</text>
</a>
</g>
</g>
<!-- Node9&#45;&gt;Node10 -->
<g id="edge9_Node000009_Node000010" class="edge">
<title>Node9&#45;&gt;Node10</title>
<g id="a_edge9_Node000009_Node000010"><a xlink:title=" ">
<path fill="none" stroke="#63b8ff" d="M180.84,-336C171.6,-336 162.31,-336 153.29,-336"/>
<polygon fill="#63b8ff" stroke="#63b8ff" points="188.94,-336 180.94,-339.6 184.94,-336 180.94,-336 180.94,-336 180.94,-336 184.94,-336 180.93,-332.4 188.94,-336 188.94,-336"/>
</a>
</g>
</g>
<!-- Node12 -->
<g id="Node000012" class="node">
<title>Node12</title>
<g id="a_Node000012"><a xlink:href="classLoggerFetchCommand.html#a42654138dfb822007275146802a2c26f" target="_top" xlink:title="Returns a Pokit service object for the derived command class.">
<polygon fill="white" stroke="#666666" points="340,-308 214,-308 214,-278 340,-278 340,-308"/>
<text text-anchor="start" x="222" y="-296" font-family="Helvetica,sans-Serif" font-size="10.00">LoggerFetchCommand</text>
<text text-anchor="middle" x="277" y="-285" font-family="Helvetica,sans-Serif" font-size="10.00">::getService</text>
</a>
</g>
</g>
<!-- Node11&#45;&gt;Node12 -->
<g id="edge11_Node000011_Node000012" class="edge">
<title>Node11&#45;&gt;Node12</title>
<g id="a_edge11_Node000011_Node000012"><a xlink:title=" ">
<path fill="none" stroke="#63b8ff" d="M419.27,-293C393.65,-293 364.88,-293 340.03,-293"/>
<polygon fill="#63b8ff" stroke="#63b8ff" points="427.47,-293 419.47,-296.6 423.47,-293 419.47,-293 419.47,-293 419.47,-293 423.47,-293 419.47,-289.4 427.47,-293 427.47,-293"/>
</a>
</g>
</g>
<!-- Node14 -->
<g id="Node000014" class="node">
<title>Node14</title>
<g id="a_Node000014"><a xlink:href="classDsoCommand.html#a96c56e497f56ab5ed43201ad13aede7b" target="_top" xlink:title="Invoked when the DSO settings have been written.">
<polygon fill="white" stroke="#666666" points="360.5,-259.5 193.5,-259.5 193.5,-240.5 360.5,-240.5 360.5,-259.5"/>
<text text-anchor="middle" x="277" y="-247.5" font-family="Helvetica,sans-Serif" font-size="10.00">DsoCommand::settingsWritten</text>
</a>
</g>
</g>
<!-- Node13&#45;&gt;Node14 -->
<g id="edge13_Node000013_Node000014" class="edge">
<title>Node13&#45;&gt;Node14</title>
<g id="a_edge13_Node000013_Node000014"><a xlink:title=" ">
<path fill="none" stroke="#63b8ff" d="M399.7,-250C386.73,-250 373.42,-250 360.6,-250"/>
<polygon fill="#63b8ff" stroke="#63b8ff" points="407.73,-250 399.73,-253.6 403.73,-250 399.73,-250 399.73,-250 399.73,-250 403.73,-250 399.73,-246.4 407.73,-250 407.73,-250"/>
</a>
</g>
</g>
<!-- Node15 -->
<g id="Node000015" class="node">
<title>Node15</title>
<g id="a_Node000015"><a xlink:href="classDsoCommand.html#abdc2af86181151e0c64c655ed265fbe8" target="_top" xlink:title="Returns a Pokit service object for the derived command class.">
<polygon fill="white" stroke="#666666" points="148,-259.5 5,-259.5 5,-240.5 148,-240.5 148,-259.5"/>
<text text-anchor="middle" x="76.5" y="-247.5" font-family="Helvetica,sans-Serif" font-size="10.00">DsoCommand::getService</text>
</a>
</g>
</g>
<!-- Node14&#45;&gt;Node15 -->
<g id="edge14_Node000014_Node000015" class="edge">
<title>Node14&#45;&gt;Node15</title>
<g id="a_edge14_Node000014_Node000015"><a xlink:title=" ">
<path fill="none" stroke="#63b8ff" d="M185.13,-250C172.71,-250 160.11,-250 148.13,-250"/>
<polygon fill="#63b8ff" stroke="#63b8ff" points="193.26,-250 185.26,-253.6 189.26,-250 185.26,-250 185.26,-250 185.26,-250 189.26,-250 185.26,-246.4 193.26,-250 193.26,-250"/>
</a>
</g>
</g>
<!-- Node18 -->
<g id="Node000018" class="node">
<title>Node18</title>
<g id="a_Node000018"><a xlink:href="classLoggerStartCommand.html#a2c5c71e3ea2690a25490862b104b81ea" target="_top" xlink:title="Returns a Pokit service object for the derived command class.">
<polygon fill="white" stroke="#666666" points="338.5,-174 215.5,-174 215.5,-144 338.5,-144 338.5,-174"/>
<text text-anchor="start" x="223.5" y="-162" font-family="Helvetica,sans-Serif" font-size="10.00">LoggerStartCommand</text>
<text text-anchor="middle" x="277" y="-151" font-family="Helvetica,sans-Serif" font-size="10.00">::getService</text>
</a>
</g>
</g>
<!-- Node17&#45;&gt;Node18 -->
<g id="edge17_Node000017_Node000018" class="edge">
<title>Node17&#45;&gt;Node18</title>
<g id="a_edge17_Node000017_Node000018"><a xlink:title=" ">
<path fill="none" stroke="#63b8ff" d="M420.8,-159C394.31,-159 364.28,-159 338.62,-159"/>
<polygon fill="#63b8ff" stroke="#63b8ff" points="428.89,-159 420.89,-162.6 424.89,-159 420.89,-159 420.89,-159 420.89,-159 424.89,-159 420.89,-155.4 428.89,-159 428.89,-159"/>
</a>
</g>
</g>
<!-- Node20 -->
<g id="Node000020" class="node">
<title>Node20</title>
<g id="a_Node000020"><a xlink:href="classLoggerStopCommand.html#a299a08c063c3a5274e4b9df3ae4b8861" target="_top" xlink:title="Returns a Pokit service object for the derived command class.">
<polygon fill="white" stroke="#666666" points="341,-126 213,-126 213,-96 341,-96 341,-126"/>
<text text-anchor="start" x="221" y="-114" font-family="Helvetica,sans-Serif" font-size="10.00">LoggerStopCommand::</text>
<text text-anchor="middle" x="277" y="-103" font-family="Helvetica,sans-Serif" font-size="10.00">getService</text>
</a>
</g>
</g>
<!-- Node19&#45;&gt;Node20 -->
<g id="edge19_Node000019_Node000020" class="edge">
<title>Node19&#45;&gt;Node20</title>
<g id="a_edge19_Node000019_Node000020"><a xlink:title=" ">
<path fill="none" stroke="#63b8ff" d="M418.01,-111C393.11,-111 365.38,-111 341.21,-111"/>
<polygon fill="#63b8ff" stroke="#63b8ff" points="426.33,-111 418.33,-114.6 422.33,-111 418.33,-111 418.33,-111 418.33,-111 422.33,-111 418.33,-107.4 426.33,-111 426.33,-111"/>
</a>
</g>
</g>
<!-- Node22 -->
<g id="Node000022" class="node">
<title>Node22</title>
<g id="a_Node000022"><a xlink:href="classCalibrateCommand.html#aca9b6661db8a9d95ce5bc866772e2a11" target="_top" xlink:title="Returns a Pokit service object for the derived command class.">
<polygon fill="white" stroke="#666666" points="361.5,-72.5 192.5,-72.5 192.5,-53.5 361.5,-53.5 361.5,-72.5"/>
<text text-anchor="middle" x="277" y="-60.5" font-family="Helvetica,sans-Serif" font-size="10.00">CalibrateCommand::getService</text>
</a>
</g>
</g>
<!-- Node21&#45;&gt;Node22 -->
<g id="edge21_Node000021_Node000022" class="edge">
<title>Node21&#45;&gt;Node22</title>
<g id="a_edge21_Node000021_Node000022"><a xlink:title=" ">
<path fill="none" stroke="#63b8ff" d="M393.29,-63C382.71,-63 372.02,-63 361.62,-63"/>
<polygon fill="#63b8ff" stroke="#63b8ff" points="401.34,-63 393.34,-66.6 397.34,-63 393.34,-63 393.34,-63 393.34,-63 397.34,-63 393.34,-59.4 401.34,-63 401.34,-63"/>
</a>
</g>
</g>
<!-- Node24 -->
<g id="Node000024" class="node">
<title>Node24</title>
<g id="a_Node000024"><a xlink:href="classSetTorchCommand.html#af772b83095447969556df52702d68dd4" target="_top" xlink:title="Returns a Pokit service object for the derived command class.">
<polygon fill="white" stroke="#666666" points="360,-24.5 194,-24.5 194,-5.5 360,-5.5 360,-24.5"/>
<text text-anchor="middle" x="277" y="-12.5" font-family="Helvetica,sans-Serif" font-size="10.00">SetTorchCommand::getService</text>
</a>
</g>
</g>
<!-- Node23&#45;&gt;Node24 -->
<g id="edge23_Node000023_Node000024" class="edge">
<title>Node23&#45;&gt;Node24</title>
<g id="a_edge23_Node000023_Node000024"><a xlink:title=" ">
<path fill="none" stroke="#63b8ff" d="M397.24,-15C384.91,-15 372.33,-15 360.18,-15"/>
<polygon fill="#63b8ff" stroke="#63b8ff" points="405.3,-15 397.3,-18.6 401.3,-15 397.3,-15 397.3,-15 397.3,-15 401.3,-15 397.3,-11.4 405.3,-15 405.3,-15"/>
</a>
</g>
</g>
</g>
</svg>
