<?xml version="1.0" encoding="UTF-8" standalone="no"?>
<!DOCTYPE svg PUBLIC "-//W3C//DTD SVG 1.1//EN"
 "http://www.w3.org/Graphics/SVG/1.1/DTD/svg11.dtd">
<!-- Generated by graphviz version 2.43.0 (0)
 -->
<!-- Title: AbstractPokitServicePrivate::createServiceObject Pages: 1 -->
<svg width="738pt" height="943pt"
 viewBox="0.00 0.00 738.00 943.00" xmlns="http://www.w3.org/2000/svg" xmlns:xlink="http://www.w3.org/1999/xlink">
<g id="graph0" class="graph" transform="scale(1 1) rotate(0) translate(4 939)">
<title>AbstractPokitServicePrivate::createServiceObject</title>
<!-- Node1 -->
<g id="node1" class="node">
<title>Node1</title>
<g id="a_node1"><a xlink:title="Creates an internal service object from the internal controller.">
<polygon fill="#999999" stroke="#666666" points="152,-490 0,-490 0,-460 152,-460 152,-490"/>
<text text-anchor="start" x="8" y="-478" font-family="Helvetica,sans-Serif" font-size="10.00">AbstractPokitServicePrivate</text>
<text text-anchor="middle" x="76" y="-467" font-family="Helvetica,sans-Serif" font-size="10.00">::createServiceObject</text>
</a>
</g>
</g>
<!-- Node2 -->
<g id="node2" class="node">
<title>Node2</title>
<g id="a_node2"><a target="_parent" xlink:href="https://doc.qt.io/qt-5/qstring.html#arg-11" xlink:title=" ">
<polygon fill="white" stroke="#666666" points="684,-316.5 610,-316.5 610,-297.5 684,-297.5 684,-316.5"/>
<text text-anchor="middle" x="647" y="-304.5" font-family="Helvetica,sans-Serif" font-size="10.00">QString::arg</text>
</a>
</g>
</g>
<!-- Node1&#45;&gt;Node2 -->
<g id="edge1" class="edge">
<title>Node1&#45;&gt;Node2</title>
<path fill="none" stroke="#63b8ff" d="M79.4,-459.92C89.55,-398.26 131.03,-166.7 188,-125 339.62,-14.02 568.15,-227.38 630.06,-290.28"/>
<polygon fill="#63b8ff" stroke="#63b8ff" points="627.59,-292.76 637.07,-297.49 632.6,-287.88 627.59,-292.76"/>
</g>
<!-- Node3 -->
<g id="node3" class="node">
<title>Node3</title>
<g id="a_node3"><a xlink:href="classAbstractPokitServicePrivate.html#a642431b7bfb76baa5d976ae24e90d9ef" target="_top" xlink:title="Handles QLowEnergyService::characteristicChanged events.">
<polygon fill="white" stroke="#666666" points="340,-250 188,-250 188,-220 340,-220 340,-250"/>
<text text-anchor="start" x="196" y="-238" font-family="Helvetica,sans-Serif" font-size="10.00">AbstractPokitServicePrivate</text>
<text text-anchor="middle" x="264" y="-227" font-family="Helvetica,sans-Serif" font-size="10.00">::characteristicChanged</text>
</a>
</g>
</g>
<!-- Node1&#45;&gt;Node3 -->
<g id="edge2" class="edge">
<title>Node1&#45;&gt;Node3</title>
<path fill="none" stroke="#63b8ff" d="M80.47,-459.92C90.24,-420.8 121.73,-315.14 188,-259 189.53,-257.71 191.12,-256.48 192.77,-255.33"/>
<polygon fill="#63b8ff" stroke="#63b8ff" points="194.72,-258.24 201.46,-250.07 191.09,-252.25 194.72,-258.24"/>
</g>
<!-- Node6 -->
<g id="node6" class="node">
<title>Node6</title>
<g id="a_node6"><a target="_parent" xlink:href="https://doc.qt.io/qt-5/qobject.html#tr" xlink:title=" ">
<polygon fill="white" stroke="#666666" points="681.5,-795.5 612.5,-795.5 612.5,-776.5 681.5,-776.5 681.5,-795.5"/>
<text text-anchor="middle" x="647" y="-783.5" font-family="Helvetica,sans-Serif" font-size="10.00">QObject::tr</text>
</a>
</g>
</g>
<!-- Node1&#45;&gt;Node6 -->
<g id="edge51" class="edge">
<title>Node1&#45;&gt;Node6</title>
<path fill="none" stroke="#63b8ff" d="M76.56,-490.22C75.95,-544.16 82,-726.96 188,-803 253.32,-849.85 500.86,-812.15 602.27,-794.19"/>
<polygon fill="#63b8ff" stroke="#63b8ff" points="602.96,-797.62 612.19,-792.41 601.73,-790.73 602.96,-797.62"/>
</g>
<!-- Node13 -->
<g id="node13" class="node">
<title>Node13</title>
<g id="a_node13"><a target="_parent" xlink:href="https://doc.qt.io/qt-5/quuid.html#toString" xlink:title=" ">
<polygon fill="white" stroke="#666666" points="497.5,-681.5 406.5,-681.5 406.5,-662.5 497.5,-662.5 497.5,-681.5"/>
<text text-anchor="middle" x="452" y="-669.5" font-family="Helvetica,sans-Serif" font-size="10.00">QUuid::toString</text>
</a>
</g>
</g>
<!-- Node1&#45;&gt;Node13 -->
<g id="edge50" class="edge">
<title>Node1&#45;&gt;Node13</title>
<path fill="none" stroke="#63b8ff" d="M77.04,-490.11C78.11,-541.2 89.28,-708.11 188,-777 243.4,-815.66 277.23,-801.98 340,-777 384.12,-759.44 420.81,-715.09 438.89,-690.01"/>
<polygon fill="#63b8ff" stroke="#63b8ff" points="441.82,-691.93 444.69,-681.73 436.09,-687.91 441.82,-691.93"/>
</g>
<!-- Node15 -->
<g id="node15" class="node">
<title>Node15</title>
<g id="a_node15"><a target="_parent" xlink:href="https://doc.qt.io/qt-5/qlowenergyservice.html#characteristicChanged" xlink:title=" ">
<polygon fill="white" stroke="#666666" points="326.5,-768 201.5,-768 201.5,-738 326.5,-738 326.5,-768"/>
<text text-anchor="start" x="209.5" y="-756" font-family="Helvetica,sans-Serif" font-size="10.00">QLowEnergyService::</text>
<text text-anchor="middle" x="264" y="-745" font-family="Helvetica,sans-Serif" font-size="10.00">characteristicChanged</text>
</a>
</g>
</g>
<!-- Node1&#45;&gt;Node15 -->
<g id="edge18" class="edge">
<title>Node1&#45;&gt;Node15</title>
<path fill="none" stroke="#63b8ff" d="M79.2,-490.1C86.35,-533.75 112.98,-661.29 188,-729 189.48,-730.34 191.04,-731.6 192.66,-732.8"/>
<polygon fill="#63b8ff" stroke="#63b8ff" points="190.9,-735.82 201.22,-738.2 194.64,-729.9 190.9,-735.82"/>
</g>
<!-- Node16 -->
<g id="node16" class="node">
<title>Node16</title>
<g id="a_node16"><a xlink:href="classAbstractPokitServicePrivate.html#a84bef330c6ff124f1e460bb8949d82da" target="_top" xlink:title="Handles QLowEnergyService::characteristicRead events.">
<polygon fill="white" stroke="#666666" points="340,-624 188,-624 188,-594 340,-594 340,-624"/>
<text text-anchor="start" x="196" y="-612" font-family="Helvetica,sans-Serif" font-size="10.00">AbstractPokitServicePrivate</text>
<text text-anchor="middle" x="264" y="-601" font-family="Helvetica,sans-Serif" font-size="10.00">::characteristicRead</text>
</a>
</g>
</g>
<!-- Node1&#45;&gt;Node16 -->
<g id="edge19" class="edge">
<title>Node1&#45;&gt;Node16</title>
<path fill="none" stroke="#63b8ff" d="M88.27,-490.06C106.65,-513.61 145.32,-559.11 188,-585 190.81,-586.7 193.74,-588.3 196.77,-589.79"/>
<polygon fill="#63b8ff" stroke="#63b8ff" points="195.48,-593.04 206.03,-593.96 198.35,-586.66 195.48,-593.04"/>
</g>
<!-- Node17 -->
<g id="node17" class="node">
<title>Node17</title>
<g id="a_node17"><a target="_parent" xlink:href="https://doc.qt.io/qt-5/qlowenergyservice.html#characteristicRead" xlink:title=" ">
<polygon fill="white" stroke="#666666" points="323.5,-672 204.5,-672 204.5,-642 323.5,-642 323.5,-672"/>
<text text-anchor="start" x="212.5" y="-660" font-family="Helvetica,sans-Serif" font-size="10.00">QLowEnergyService::</text>
<text text-anchor="middle" x="264" y="-649" font-family="Helvetica,sans-Serif" font-size="10.00">characteristicRead</text>
</a>
</g>
</g>
<!-- Node1&#45;&gt;Node17 -->
<g id="edge27" class="edge">
<title>Node1&#45;&gt;Node17</title>
<path fill="none" stroke="#63b8ff" d="M83.49,-490.07C97.74,-521.4 134.79,-593.88 188,-633 190.32,-634.71 192.77,-636.3 195.31,-637.78"/>
<polygon fill="#63b8ff" stroke="#63b8ff" points="193.75,-640.91 204.24,-642.39 196.96,-634.69 193.75,-640.91"/>
</g>
<!-- Node18 -->
<g id="node18" class="node">
<title>Node18</title>
<g id="a_node18"><a xlink:href="classAbstractPokitServicePrivate.html#aaf4a6cb9f0b1fe537877d615a6634201" target="_top" xlink:title="Handles QLowEnergyService::characteristicWritten events.">
<polygon fill="white" stroke="#666666" points="340,-720 188,-720 188,-690 340,-690 340,-720"/>
<text text-anchor="start" x="196" y="-708" font-family="Helvetica,sans-Serif" font-size="10.00">AbstractPokitServicePrivate</text>
<text text-anchor="middle" x="264" y="-697" font-family="Helvetica,sans-Serif" font-size="10.00">::characteristicWritten</text>
</a>
</g>
</g>
<!-- Node1&#45;&gt;Node18 -->
<g id="edge28" class="edge">
<title>Node1&#45;&gt;Node18</title>
<path fill="none" stroke="#63b8ff" d="M80.91,-490.21C91.45,-528.19 124.09,-627.92 188,-681 189.54,-682.28 191.15,-683.49 192.81,-684.63"/>
<polygon fill="#63b8ff" stroke="#63b8ff" points="191.15,-687.72 201.53,-689.84 194.74,-681.71 191.15,-687.72"/>
</g>
<!-- Node19 -->
<g id="node19" class="node">
<title>Node19</title>
<g id="a_node19"><a target="_parent" xlink:href="https://doc.qt.io/qt-5/qlowenergyservice.html#characteristicWritten" xlink:title=" ">
<polygon fill="white" stroke="#666666" points="323.5,-576 204.5,-576 204.5,-546 323.5,-546 323.5,-576"/>
<text text-anchor="start" x="212.5" y="-564" font-family="Helvetica,sans-Serif" font-size="10.00">QLowEnergyService::</text>
<text text-anchor="middle" x="264" y="-553" font-family="Helvetica,sans-Serif" font-size="10.00">characteristicWritten</text>
</a>
</g>
</g>
<!-- Node1&#45;&gt;Node19 -->
<g id="edge36" class="edge">
<title>Node1&#45;&gt;Node19</title>
<path fill="none" stroke="#63b8ff" d="M101.48,-490.13C123.55,-503.37 157.17,-522.52 188,-536 193.11,-538.23 198.49,-540.39 203.92,-542.43"/>
<polygon fill="#63b8ff" stroke="#63b8ff" points="203.11,-545.86 213.7,-545.98 205.5,-539.28 203.11,-545.86"/>
</g>
<!-- Node20 -->
<g id="node20" class="node">
<title>Node20</title>
<g id="a_node20"><a target="_parent" xlink:href="https://doc.qt.io/qt-5/qobject.html#connect" xlink:title=" ">
<polygon fill="white" stroke="#666666" points="314,-527.5 214,-527.5 214,-508.5 314,-508.5 314,-527.5"/>
<text text-anchor="middle" x="264" y="-515.5" font-family="Helvetica,sans-Serif" font-size="10.00">QObject::connect</text>
</a>
</g>
</g>
<!-- Node1&#45;&gt;Node20 -->
<g id="edge37" class="edge">
<title>Node1&#45;&gt;Node20</title>
<path fill="none" stroke="#63b8ff" d="M142.05,-490.04C164.93,-495.33 190.3,-501.19 211.87,-506.18"/>
<polygon fill="#63b8ff" stroke="#63b8ff" points="211.28,-509.64 221.81,-508.48 212.86,-502.82 211.28,-509.64"/>
</g>
<!-- Node21 -->
<g id="node21" class="node">
<title>Node21</title>
<g id="a_node21"><a target="_parent" xlink:href="https://doc.qt.io/qt-5/qlowenergycontroller.html#createServiceObject" xlink:title=" ">
<polygon fill="white" stroke="#666666" points="326.5,-490 201.5,-490 201.5,-460 326.5,-460 326.5,-490"/>
<text text-anchor="start" x="209.5" y="-478" font-family="Helvetica,sans-Serif" font-size="10.00">QLowEnergyController</text>
<text text-anchor="middle" x="264" y="-467" font-family="Helvetica,sans-Serif" font-size="10.00">::createServiceObject</text>
</a>
</g>
</g>
<!-- Node1&#45;&gt;Node21 -->
<g id="edge38" class="edge">
<title>Node1&#45;&gt;Node21</title>
<path fill="none" stroke="#63b8ff" d="M152.12,-475C165.01,-475 178.37,-475 191.17,-475"/>
<polygon fill="#63b8ff" stroke="#63b8ff" points="191.29,-478.5 201.29,-475 191.29,-471.5 191.29,-478.5"/>
</g>
<!-- Node22 -->
<g id="node22" class="node">
<title>Node22</title>
<g id="a_node22"><a target="_parent" xlink:href="https://doc.qt.io/qt-5/qlowenergyservice.html#descriptorRead" xlink:title=" ">
<polygon fill="white" stroke="#666666" points="323.5,-442 204.5,-442 204.5,-412 323.5,-412 323.5,-442"/>
<text text-anchor="start" x="212.5" y="-430" font-family="Helvetica,sans-Serif" font-size="10.00">QLowEnergyService::</text>
<text text-anchor="middle" x="264" y="-419" font-family="Helvetica,sans-Serif" font-size="10.00">descriptorRead</text>
</a>
</g>
</g>
<!-- Node1&#45;&gt;Node22 -->
<g id="edge39" class="edge">
<title>Node1&#45;&gt;Node22</title>
<path fill="none" stroke="#63b8ff" d="M135.34,-459.94C154.3,-455.05 175.5,-449.58 195.09,-444.52"/>
<polygon fill="#63b8ff" stroke="#63b8ff" points="196.06,-447.89 204.87,-442 194.31,-441.11 196.06,-447.89"/>
</g>
<!-- Node23 -->
<g id="node23" class="node">
<title>Node23</title>
<g id="a_node23"><a target="_parent" xlink:href="https://doc.qt.io/qt-5/qlowenergyservice.html#descriptorWritten" xlink:title=" ">
<polygon fill="white" stroke="#666666" points="323.5,-394 204.5,-394 204.5,-364 323.5,-364 323.5,-394"/>
<text text-anchor="start" x="212.5" y="-382" font-family="Helvetica,sans-Serif" font-size="10.00">QLowEnergyService::</text>
<text text-anchor="middle" x="264" y="-371" font-family="Helvetica,sans-Serif" font-size="10.00">descriptorWritten</text>
</a>
</g>
</g>
<!-- Node1&#45;&gt;Node23 -->
<g id="edge40" class="edge">
<title>Node1&#45;&gt;Node23</title>
<path fill="none" stroke="#63b8ff" d="M96.91,-459.75C118.42,-443.84 154.17,-419.03 188,-403 192,-401.1 196.19,-399.3 200.45,-397.61"/>
<polygon fill="#63b8ff" stroke="#63b8ff" points="201.74,-400.86 209.86,-394.05 199.27,-394.31 201.74,-400.86"/>
</g>
<!-- Node24 -->
<g id="node24" class="node">
<title>Node24</title>
<g id="a_node24"><a target="_parent" xlink:href="https://doc.qt.io/qt-5/qlowenergyservice.html#discoverDetails" xlink:title=" ">
<polygon fill="white" stroke="#666666" points="323.5,-346 204.5,-346 204.5,-316 323.5,-316 323.5,-346"/>
<text text-anchor="start" x="212.5" y="-334" font-family="Helvetica,sans-Serif" font-size="10.00">QLowEnergyService::</text>
<text text-anchor="middle" x="264" y="-323" font-family="Helvetica,sans-Serif" font-size="10.00">discoverDetails</text>
</a>
</g>
</g>
<!-- Node1&#45;&gt;Node24 -->
<g id="edge41" class="edge">
<title>Node1&#45;&gt;Node24</title>
<path fill="none" stroke="#63b8ff" d="M87.09,-459.76C104.64,-434.4 143.24,-383.5 188,-355 190.57,-353.36 193.26,-351.83 196.03,-350.4"/>
<polygon fill="#63b8ff" stroke="#63b8ff" points="197.54,-353.55 205.1,-346.13 194.56,-347.22 197.54,-353.55"/>
</g>
<!-- Node25 -->
<g id="node25" class="node">
<title>Node25</title>
<g id="a_node25"><a target="_parent" xlink:href="https://doc.qt.io/qt-5/qlowenergyservice.html#error" xlink:title=" ">
<polygon fill="white" stroke="#666666" points="323.5,-298 204.5,-298 204.5,-268 323.5,-268 323.5,-298"/>
<text text-anchor="start" x="212.5" y="-286" font-family="Helvetica,sans-Serif" font-size="10.00">QLowEnergyService::</text>
<text text-anchor="middle" x="264" y="-275" font-family="Helvetica,sans-Serif" font-size="10.00">error</text>
</a>
</g>
</g>
<!-- Node1&#45;&gt;Node25 -->
<g id="edge42" class="edge">
<title>Node1&#45;&gt;Node25</title>
<path fill="none" stroke="#63b8ff" d="M82.81,-459.97C96.23,-427.22 132.55,-349.01 188,-307 190.3,-305.26 192.73,-303.64 195.25,-302.14"/>
<polygon fill="#63b8ff" stroke="#63b8ff" points="196.91,-305.22 204.13,-297.47 193.65,-299.03 196.91,-305.22"/>
</g>
<!-- Node26 -->
<g id="node26" class="node">
<title>Node26</title>
<g id="a_node26"><a xlink:href="classAbstractPokitServicePrivate.html#ab086f2e2e5058bc7978a67e86d579325" target="_top" xlink:title="Handles QLowEnergyController::errorOccurred events.">
<polygon fill="white" stroke="#666666" points="528,-935 376,-935 376,-905 528,-905 528,-935"/>
<text text-anchor="start" x="384" y="-923" font-family="Helvetica,sans-Serif" font-size="10.00">AbstractPokitServicePrivate</text>
<text text-anchor="middle" x="452" y="-912" font-family="Helvetica,sans-Serif" font-size="10.00">::errorOccurred</text>
</a>
</g>
</g>
<!-- Node1&#45;&gt;Node26 -->
<g id="edge43" class="edge">
<title>Node1&#45;&gt;Node26</title>
<path fill="none" stroke="#63b8ff" d="M78.95,-490.39C87.83,-558.01 126.68,-827.79 188,-882 235.85,-924.31 308.85,-931.97 365.82,-930.08"/>
<polygon fill="#63b8ff" stroke="#63b8ff" points="366.06,-933.58 375.9,-929.65 365.76,-926.58 366.06,-933.58"/>
</g>
<!-- Node27 -->
<g id="node27" class="node">
<title>Node27</title>
<g id="a_node27"><a target="_parent" xlink:href="https://doc.qt.io/qt-5/quuid.html#isNull" xlink:title=" ">
<polygon fill="white" stroke="#666666" points="304,-201.5 224,-201.5 224,-182.5 304,-182.5 304,-201.5"/>
<text text-anchor="middle" x="264" y="-189.5" font-family="Helvetica,sans-Serif" font-size="10.00">QUuid::isNull</text>
</a>
</g>
</g>
<!-- Node1&#45;&gt;Node27 -->
<g id="edge45" class="edge">
<title>Node1&#45;&gt;Node27</title>
<path fill="none" stroke="#63b8ff" d="M78.71,-459.74C84.63,-414.4 108.47,-279.42 188,-211 195.41,-204.63 204.66,-200.34 214.11,-197.47"/>
<polygon fill="#63b8ff" stroke="#63b8ff" points="215.13,-200.83 223.96,-194.97 213.41,-194.04 215.13,-200.83"/>
</g>
<!-- Node28 -->
<g id="node28" class="node">
<title>Node28</title>
<g id="a_node28"><a target="_parent" xlink:href="https://doc.qt.io/qt-5/qlowenergydescriptor.html#name" xlink:title=" ">
<polygon fill="white" stroke="#666666" points="328,-164 200,-164 200,-134 328,-134 328,-164"/>
<text text-anchor="start" x="208" y="-152" font-family="Helvetica,sans-Serif" font-size="10.00">QLowEnergyDescriptor</text>
<text text-anchor="middle" x="264" y="-141" font-family="Helvetica,sans-Serif" font-size="10.00">::name</text>
</a>
</g>
</g>
<!-- Node1&#45;&gt;Node28 -->
<g id="edge46" class="edge">
<title>Node1&#45;&gt;Node28</title>
<path fill="none" stroke="#63b8ff" d="M78.01,-459.96C82.12,-411.17 101.69,-255.71 188,-173 189.11,-171.94 190.27,-170.92 191.47,-169.95"/>
<polygon fill="#63b8ff" stroke="#63b8ff" points="193.63,-172.7 199.9,-164.16 189.68,-166.93 193.63,-172.7"/>
</g>
<!-- Node29 -->
<g id="node29" class="node">
<title>Node29</title>
<g id="a_node29"><a xlink:href="classAbstractPokitServicePrivate.html#ad4cd6a5700b0b764b3a81f67603dc68f" target="_top" xlink:title="Handles QLowEnergyController::stateChanged events.">
<polygon fill="white" stroke="#666666" points="528,-887 376,-887 376,-857 528,-857 528,-887"/>
<text text-anchor="start" x="384" y="-875" font-family="Helvetica,sans-Serif" font-size="10.00">AbstractPokitServicePrivate</text>
<text text-anchor="middle" x="452" y="-864" font-family="Helvetica,sans-Serif" font-size="10.00">::stateChanged</text>
</a>
</g>
</g>
<!-- Node1&#45;&gt;Node29 -->
<g id="edge47" class="edge">
<title>Node1&#45;&gt;Node29</title>
<path fill="none" stroke="#63b8ff" d="M79.22,-490.04C88.93,-553.77 129.85,-800.37 188,-848 236.85,-888.01 309.27,-891.92 365.75,-886.99"/>
<polygon fill="#63b8ff" stroke="#63b8ff" points="366.13,-890.47 375.74,-886.01 365.45,-883.5 366.13,-890.47"/>
</g>
<!-- Node30 -->
<g id="node30" class="node">
<title>Node30</title>
<g id="a_node30"><a target="_parent" xlink:href="https://doc.qt.io/qt-5/qlowenergyservice.html#stateChanged" xlink:title=" ">
<polygon fill="white" stroke="#666666" points="323.5,-78 204.5,-78 204.5,-48 323.5,-48 323.5,-78"/>
<text text-anchor="start" x="212.5" y="-66" font-family="Helvetica,sans-Serif" font-size="10.00">QLowEnergyService::</text>
<text text-anchor="middle" x="264" y="-55" font-family="Helvetica,sans-Serif" font-size="10.00">stateChanged</text>
</a>
</g>
</g>
<!-- Node1&#45;&gt;Node30 -->
<g id="edge49" class="edge">
<title>Node1&#45;&gt;Node30</title>
<path fill="none" stroke="#63b8ff" d="M76.87,-459.93C77.19,-403.68 85.78,-203.5 188,-92 190.92,-88.82 194.23,-85.98 197.79,-83.45"/>
<polygon fill="#63b8ff" stroke="#63b8ff" points="199.81,-86.31 206.49,-78.09 196.14,-80.35 199.81,-86.31"/>
</g>
<!-- Node31 -->
<g id="node31" class="node">
<title>Node31</title>
<g id="a_node31"><a target="_parent" xlink:href="https://doc.qt.io/qt-5/qlowenergydescriptor.html#uuid" xlink:title=" ">
<polygon fill="white" stroke="#666666" points="328,-30 200,-30 200,0 328,0 328,-30"/>
<text text-anchor="start" x="208" y="-18" font-family="Helvetica,sans-Serif" font-size="10.00">QLowEnergyDescriptor</text>
<text text-anchor="middle" x="264" y="-7" font-family="Helvetica,sans-Serif" font-size="10.00">::uuid</text>
</a>
</g>
</g>
<!-- Node1&#45;&gt;Node31 -->
<g id="edge52" class="edge">
<title>Node1&#45;&gt;Node31</title>
<path fill="none" stroke="#63b8ff" d="M78.9,-459.72C87.85,-390.02 127.9,-102.84 188,-39 189.08,-37.85 190.22,-36.75 191.41,-35.71"/>
<polygon fill="#63b8ff" stroke="#63b8ff" points="193.84,-38.27 199.86,-29.55 189.72,-32.61 193.84,-38.27"/>
</g>
<!-- Node3&#45;&gt;Node2 -->
<g id="edge3" class="edge">
<title>Node3&#45;&gt;Node2</title>
<path fill="none" stroke="#63b8ff" d="M340.27,-249.22C417.47,-263.81 535.1,-286.04 599.63,-298.24"/>
<polygon fill="#63b8ff" stroke="#63b8ff" points="599.04,-301.69 609.51,-300.11 600.34,-294.81 599.04,-301.69"/>
</g>
<!-- Node4 -->
<g id="node4" class="node">
<title>Node4</title>
<g id="a_node4"><a xlink:href="classPokitDevice.html#a0a3e6078ce0a7c2d93171ef0f4183d61" target="_top" xlink:title="Returns a human&#45;readable name for the uuid characteristic, or a null QString if unknown.">
<polygon fill="white" stroke="#666666" points="522.5,-558 381.5,-558 381.5,-528 522.5,-528 522.5,-558"/>
<text text-anchor="start" x="389.5" y="-546" font-family="Helvetica,sans-Serif" font-size="10.00">PokitDevice::charcteristic</text>
<text text-anchor="middle" x="452" y="-535" font-family="Helvetica,sans-Serif" font-size="10.00">ToString</text>
</a>
</g>
</g>
<!-- Node3&#45;&gt;Node4 -->
<g id="edge4" class="edge">
<title>Node3&#45;&gt;Node4</title>
<path fill="none" stroke="#63b8ff" d="M329.87,-250.14C333.61,-252.65 337.05,-255.59 340,-259 403.93,-332.96 328.87,-390.35 376,-476 386.08,-494.33 403.16,-510.18 418.47,-521.85"/>
<polygon fill="#63b8ff" stroke="#63b8ff" points="416.6,-524.82 426.74,-527.9 420.73,-519.17 416.6,-524.82"/>
</g>
<!-- Node3&#45;&gt;Node6 -->
<g id="edge16" class="edge">
<title>Node3&#45;&gt;Node6</title>
<path fill="none" stroke="#63b8ff" d="M329.4,-250.02C333.31,-252.56 336.91,-255.53 340,-259 394.88,-320.54 326.36,-375.16 376,-441 421.71,-501.63 475.89,-463.77 528,-519 564.52,-557.7 620.53,-712.58 639.48,-766.98"/>
<polygon fill="#63b8ff" stroke="#63b8ff" points="636.18,-768.16 642.76,-776.46 642.79,-765.87 636.18,-768.16"/>
</g>
<!-- Node7 -->
<g id="node7" class="node">
<title>Node7</title>
<g id="a_node7"><a target="_parent" xlink:href="https://doc.qt.io/qt-5/qbytearray.html#size" xlink:title=" ">
<polygon fill="white" stroke="#666666" points="696,-505.5 598,-505.5 598,-486.5 696,-486.5 696,-505.5"/>
<text text-anchor="middle" x="647" y="-493.5" font-family="Helvetica,sans-Serif" font-size="10.00">QByteArray::size</text>
</a>
</g>
</g>
<!-- Node3&#45;&gt;Node7 -->
<g id="edge7" class="edge">
<title>Node3&#45;&gt;Node7</title>
<path fill="none" stroke="#63b8ff" d="M329.22,-250.18C333.17,-252.69 336.83,-255.6 340,-259 385.63,-307.84 329.55,-356.95 376,-405 424.79,-455.48 464.52,-418.01 528,-448 545.61,-456.32 546.38,-464.7 564,-473 572.74,-477.12 582.35,-480.63 591.83,-483.58"/>
<polygon fill="#63b8ff" stroke="#63b8ff" points="591.03,-486.99 601.61,-486.45 593,-480.27 591.03,-486.99"/>
</g>
<!-- Node8 -->
<g id="node8" class="node">
<title>Node8</title>
<g id="a_node8"><a xlink:href="classAbstractPokitServicePrivate.html#af748600fc201fe47f29b58e8e93179d8" target="_top" xlink:title="Returns up to maxSize bytes of data as a human readable hexadecimal string.">
<polygon fill="white" stroke="#666666" points="528,-396 376,-396 376,-366 528,-366 528,-396"/>
<text text-anchor="start" x="384" y="-384" font-family="Helvetica,sans-Serif" font-size="10.00">AbstractPokitServicePrivate</text>
<text text-anchor="middle" x="452" y="-373" font-family="Helvetica,sans-Serif" font-size="10.00">::toHexString</text>
</a>
</g>
</g>
<!-- Node3&#45;&gt;Node8 -->
<g id="edge8" class="edge">
<title>Node3&#45;&gt;Node8</title>
<path fill="none" stroke="#63b8ff" d="M322.93,-250.09C328.9,-252.65 334.71,-255.6 340,-259 380.69,-285.15 416.01,-329.9 435.33,-357.32"/>
<polygon fill="#63b8ff" stroke="#63b8ff" points="432.69,-359.67 441.25,-365.91 438.45,-355.69 432.69,-359.67"/>
</g>
<!-- Node3&#45;&gt;Node13 -->
<g id="edge15" class="edge">
<title>Node3&#45;&gt;Node13</title>
<path fill="none" stroke="#63b8ff" d="M330.45,-250.16C334.01,-252.68 337.25,-255.6 340,-259 390.06,-320.78 337.12,-545.64 376,-615 386.23,-633.25 404.96,-647.49 421.14,-657.17"/>
<polygon fill="#63b8ff" stroke="#63b8ff" points="419.86,-660.47 430.29,-662.34 423.3,-654.38 419.86,-660.47"/>
</g>
<!-- Node14 -->
<g id="node14" class="node">
<title>Node14</title>
<g id="a_node14"><a target="_parent" xlink:href="https://doc.qt.io/qt-5/qlowenergycharacteristic.html#uuid" xlink:title=" ">
<polygon fill="white" stroke="#666666" points="524.5,-606 379.5,-606 379.5,-576 524.5,-576 524.5,-606"/>
<text text-anchor="start" x="387.5" y="-594" font-family="Helvetica,sans-Serif" font-size="10.00">QLowEnergyCharacteristic</text>
<text text-anchor="middle" x="452" y="-583" font-family="Helvetica,sans-Serif" font-size="10.00">::uuid</text>
</a>
</g>
</g>
<!-- Node3&#45;&gt;Node14 -->
<g id="edge17" class="edge">
<title>Node3&#45;&gt;Node14</title>
<path fill="none" stroke="#63b8ff" d="M330.39,-250.21C333.96,-252.71 337.22,-255.62 340,-259 427.59,-365.41 288.41,-460.59 376,-567 376.61,-567.74 377.24,-568.46 377.89,-569.15"/>
<polygon fill="#63b8ff" stroke="#63b8ff" points="375.75,-571.92 385.61,-575.79 380.31,-566.61 375.75,-571.92"/>
</g>
<!-- Node5 -->
<g id="node5" class="node">
<title>Node5</title>
<g id="a_node5"><a target="_parent" xlink:href="https://doc.qt.io/qt-5/qbluetoothuuid.html#characteristicToString" xlink:title=" ">
<polygon fill="white" stroke="#666666" points="730,-558 564,-558 564,-528 730,-528 730,-558"/>
<text text-anchor="start" x="572" y="-546" font-family="Helvetica,sans-Serif" font-size="10.00">QBluetoothUuid::characteristic</text>
<text text-anchor="middle" x="647" y="-535" font-family="Helvetica,sans-Serif" font-size="10.00">ToString</text>
</a>
</g>
</g>
<!-- Node4&#45;&gt;Node5 -->
<g id="edge5" class="edge">
<title>Node4&#45;&gt;Node5</title>
<path fill="none" stroke="#63b8ff" d="M522.68,-543C532.82,-543 543.4,-543 553.91,-543"/>
<polygon fill="#63b8ff" stroke="#63b8ff" points="553.94,-546.5 563.94,-543 553.94,-539.5 553.94,-546.5"/>
</g>
<!-- Node4&#45;&gt;Node6 -->
<g id="edge6" class="edge">
<title>Node4&#45;&gt;Node6</title>
<path fill="none" stroke="#63b8ff" d="M514.47,-558.16C519.31,-560.67 523.9,-563.59 528,-567 594.18,-621.97 628.81,-723.99 640.92,-766.56"/>
<polygon fill="#63b8ff" stroke="#63b8ff" points="637.62,-767.75 643.64,-776.47 644.37,-765.9 637.62,-767.75"/>
</g>
<!-- Node8&#45;&gt;Node2 -->
<g id="edge9" class="edge">
<title>Node8&#45;&gt;Node2</title>
<path fill="none" stroke="#63b8ff" d="M478.2,-365.98C500.19,-353.44 533.29,-335.92 564,-325 575.48,-320.92 588.21,-317.58 600.14,-314.94"/>
<polygon fill="#63b8ff" stroke="#63b8ff" points="600.87,-318.36 609.93,-312.88 599.43,-311.51 600.87,-318.36"/>
</g>
<!-- Node8&#45;&gt;Node7 -->
<g id="edge13" class="edge">
<title>Node8&#45;&gt;Node7</title>
<path fill="none" stroke="#63b8ff" d="M506.02,-396.18C513.91,-399.89 521.54,-404.45 528,-410 552.45,-431.03 538.57,-453.16 564,-473 571.19,-478.61 579.68,-482.85 588.42,-486.06"/>
<polygon fill="#63b8ff" stroke="#63b8ff" points="587.36,-489.4 597.95,-489.15 589.52,-482.74 587.36,-489.4"/>
</g>
<!-- Node9 -->
<g id="node9" class="node">
<title>Node9</title>
<g id="a_node9"><a target="_parent" xlink:href="https://doc.qt.io/qt-5/qstring.html#fromLatin1" xlink:title=" ">
<polygon fill="white" stroke="#666666" points="703,-427.5 591,-427.5 591,-408.5 703,-408.5 703,-427.5"/>
<text text-anchor="middle" x="647" y="-415.5" font-family="Helvetica,sans-Serif" font-size="10.00">QString::fromLatin1</text>
</a>
</g>
</g>
<!-- Node8&#45;&gt;Node9 -->
<g id="edge10" class="edge">
<title>Node8&#45;&gt;Node9</title>
<path fill="none" stroke="#63b8ff" d="M528.17,-395.41C547.46,-399.11 567.95,-403.04 586.34,-406.56"/>
<polygon fill="#63b8ff" stroke="#63b8ff" points="585.83,-410.03 596.31,-408.47 587.15,-403.15 585.83,-410.03"/>
</g>
<!-- Node10 -->
<g id="node10" class="node">
<title>Node10</title>
<g id="a_node10"><a target="_parent" xlink:href="https://doc.qt.io/qt-5/qbytearray.html#left" xlink:title=" ">
<polygon fill="white" stroke="#666666" points="694,-390.5 600,-390.5 600,-371.5 694,-371.5 694,-390.5"/>
<text text-anchor="middle" x="647" y="-378.5" font-family="Helvetica,sans-Serif" font-size="10.00">QByteArray::left</text>
</a>
</g>
</g>
<!-- Node8&#45;&gt;Node10 -->
<g id="edge11" class="edge">
<title>Node8&#45;&gt;Node10</title>
<path fill="none" stroke="#63b8ff" d="M528.17,-381C548.63,-381 570.43,-381 589.65,-381"/>
<polygon fill="#63b8ff" stroke="#63b8ff" points="589.73,-384.5 599.73,-381 589.73,-377.5 589.73,-384.5"/>
</g>
<!-- Node11 -->
<g id="node11" class="node">
<title>Node11</title>
<g id="a_node11"><a target="_parent" xlink:href="https://doc.qt.io/qt-5/qbytearray.html#right" xlink:title=" ">
<polygon fill="white" stroke="#666666" points="697.5,-353.5 596.5,-353.5 596.5,-334.5 697.5,-334.5 697.5,-353.5"/>
<text text-anchor="middle" x="647" y="-341.5" font-family="Helvetica,sans-Serif" font-size="10.00">QByteArray::right</text>
</a>
</g>
</g>
<!-- Node8&#45;&gt;Node11 -->
<g id="edge12" class="edge">
<title>Node8&#45;&gt;Node11</title>
<path fill="none" stroke="#63b8ff" d="M528.17,-366.59C547.46,-362.89 567.95,-358.96 586.34,-355.44"/>
<polygon fill="#63b8ff" stroke="#63b8ff" points="587.15,-358.85 596.31,-353.53 585.83,-351.97 587.15,-358.85"/>
</g>
<!-- Node12 -->
<g id="node12" class="node">
<title>Node12</title>
<g id="a_node12"><a target="_parent" xlink:href="https://doc.qt.io/qt-5/qbytearray.html#toHex" xlink:title=" ">
<polygon fill="white" stroke="#666666" points="700.5,-464.5 593.5,-464.5 593.5,-445.5 700.5,-445.5 700.5,-464.5"/>
<text text-anchor="middle" x="647" y="-452.5" font-family="Helvetica,sans-Serif" font-size="10.00">QByteArray::toHex</text>
</a>
</g>
</g>
<!-- Node8&#45;&gt;Node12 -->
<g id="edge14" class="edge">
<title>Node8&#45;&gt;Node12</title>
<path fill="none" stroke="#63b8ff" d="M497.47,-396.03C507.73,-400.08 518.43,-404.81 528,-410 545.35,-419.41 546.03,-427.83 564,-436 570.17,-438.8 576.79,-441.21 583.5,-443.28"/>
<polygon fill="#63b8ff" stroke="#63b8ff" points="582.78,-446.72 593.35,-446.08 584.69,-439.98 582.78,-446.72"/>
</g>
<!-- Node16&#45;&gt;Node2 -->
<g id="edge20" class="edge">
<title>Node16&#45;&gt;Node2</title>
<path fill="none" stroke="#63b8ff" d="M329.9,-593.89C333.64,-591.37 337.06,-588.42 340,-585 406.78,-507.12 304.43,-430.5 376,-357 434.32,-297.11 539.43,-295.81 599.86,-300.93"/>
<polygon fill="#63b8ff" stroke="#63b8ff" points="599.6,-304.42 609.88,-301.87 600.26,-297.45 599.6,-304.42"/>
</g>
<!-- Node16&#45;&gt;Node4 -->
<g id="edge21" class="edge">
<title>Node16&#45;&gt;Node4</title>
<path fill="none" stroke="#63b8ff" d="M315.81,-593.91C323.98,-591.15 332.28,-588.14 340,-585 356.57,-578.25 359.43,-573.75 376,-567 380.71,-565.08 385.63,-563.22 390.6,-561.43"/>
<polygon fill="#63b8ff" stroke="#63b8ff" points="391.9,-564.68 400.19,-558.09 389.6,-558.07 391.9,-564.68"/>
</g>
<!-- Node16&#45;&gt;Node6 -->
<g id="edge25" class="edge">
<title>Node16&#45;&gt;Node6</title>
<path fill="none" stroke="#63b8ff" d="M340.2,-616.3C406.22,-623.71 496.49,-636.56 528,-654 577.78,-681.54 617.26,-738.25 635.31,-767.56"/>
<polygon fill="#63b8ff" stroke="#63b8ff" points="632.45,-769.6 640.59,-776.37 638.45,-765.99 632.45,-769.6"/>
</g>
<!-- Node16&#45;&gt;Node7 -->
<g id="edge22" class="edge">
<title>Node16&#45;&gt;Node7</title>
<path fill="none" stroke="#63b8ff" d="M326.45,-593.82C331.29,-591.31 335.89,-588.4 340,-585 365.76,-563.72 348.02,-537.26 376,-519 439.27,-477.71 529.43,-479.17 587.83,-486"/>
<polygon fill="#63b8ff" stroke="#63b8ff" points="587.63,-489.5 597.99,-487.28 588.51,-482.56 587.63,-489.5"/>
</g>
<!-- Node16&#45;&gt;Node8 -->
<g id="edge23" class="edge">
<title>Node16&#45;&gt;Node8</title>
<path fill="none" stroke="#63b8ff" d="M328.11,-593.85C332.42,-591.34 336.45,-588.41 340,-585 373.75,-552.55 354.19,-527.43 376,-486 391.87,-455.86 415.34,-424.48 431.79,-403.97"/>
<polygon fill="#63b8ff" stroke="#63b8ff" points="434.56,-406.11 438.15,-396.14 429.13,-401.69 434.56,-406.11"/>
</g>
<!-- Node16&#45;&gt;Node13 -->
<g id="edge24" class="edge">
<title>Node16&#45;&gt;Node13</title>
<path fill="none" stroke="#63b8ff" d="M314.02,-624.02C322.72,-626.88 331.66,-629.93 340,-633 356.27,-638.98 359.73,-642.02 376,-648 386.71,-651.94 398.41,-655.86 409.31,-659.35"/>
<polygon fill="#63b8ff" stroke="#63b8ff" points="408.46,-662.75 419.05,-662.43 410.57,-656.08 408.46,-662.75"/>
</g>
<!-- Node16&#45;&gt;Node14 -->
<g id="edge26" class="edge">
<title>Node16&#45;&gt;Node14</title>
<path fill="none" stroke="#63b8ff" d="M340.12,-601.73C349.7,-600.8 359.54,-599.85 369.21,-598.91"/>
<polygon fill="#63b8ff" stroke="#63b8ff" points="369.6,-602.39 379.22,-597.95 368.93,-595.43 369.6,-602.39"/>
</g>
<!-- Node18&#45;&gt;Node2 -->
<g id="edge29" class="edge">
<title>Node18&#45;&gt;Node2</title>
<path fill="none" stroke="#63b8ff" d="M340.29,-711.43C408.42,-715.45 501.97,-715.88 528,-691 587.07,-634.52 509.72,-386.1 564,-325 573.03,-314.84 586.35,-309.69 599.65,-307.26"/>
<polygon fill="#63b8ff" stroke="#63b8ff" points="600.31,-310.7 609.75,-305.88 599.36,-303.76 600.31,-310.7"/>
</g>
<!-- Node18&#45;&gt;Node4 -->
<g id="edge30" class="edge">
<title>Node18&#45;&gt;Node4</title>
<path fill="none" stroke="#63b8ff" d="M328.63,-689.8C332.77,-687.3 336.62,-684.39 340,-681 377.5,-643.36 338.5,-604.64 376,-567 376.95,-566.05 377.94,-565.13 378.96,-564.25"/>
<polygon fill="#63b8ff" stroke="#63b8ff" points="381.3,-566.88 387.37,-558.2 377.21,-561.2 381.3,-566.88"/>
</g>
<!-- Node18&#45;&gt;Node6 -->
<g id="edge34" class="edge">
<title>Node18&#45;&gt;Node6</title>
<path fill="none" stroke="#63b8ff" d="M321.44,-720.1C327.88,-722.68 334.21,-725.64 340,-729 358.77,-739.89 356.14,-753.24 376,-762 450.23,-794.73 546.92,-794.26 602.16,-790.47"/>
<polygon fill="#63b8ff" stroke="#63b8ff" points="602.6,-793.94 612.31,-789.7 602.08,-786.96 602.6,-793.94"/>
</g>
<!-- Node18&#45;&gt;Node7 -->
<g id="edge31" class="edge">
<title>Node18&#45;&gt;Node7</title>
<path fill="none" stroke="#63b8ff" d="M331.66,-720.01C399.71,-733.6 499.3,-748.1 528,-724 598.84,-664.51 501.93,-587.59 564,-519 570.48,-511.84 578.99,-506.84 588.07,-503.35"/>
<polygon fill="#63b8ff" stroke="#63b8ff" points="589.25,-506.65 597.69,-500.25 587.1,-499.99 589.25,-506.65"/>
</g>
<!-- Node18&#45;&gt;Node8 -->
<g id="edge32" class="edge">
<title>Node18&#45;&gt;Node8</title>
<path fill="none" stroke="#63b8ff" d="M329.31,-689.9C333.24,-687.38 336.87,-684.43 340,-681 389.73,-626.53 350.14,-588.07 376,-519 391.82,-476.74 418.53,-431.45 435.44,-404.71"/>
<polygon fill="#63b8ff" stroke="#63b8ff" points="438.53,-406.36 440.97,-396.05 432.64,-402.59 438.53,-406.36"/>
</g>
<!-- Node18&#45;&gt;Node13 -->
<g id="edge33" class="edge">
<title>Node18&#45;&gt;Node13</title>
<path fill="none" stroke="#63b8ff" d="M340.12,-691.67C358.91,-688.34 378.72,-684.82 396.31,-681.7"/>
<polygon fill="#63b8ff" stroke="#63b8ff" points="397.15,-685.11 406.39,-679.91 395.93,-678.22 397.15,-685.11"/>
</g>
<!-- Node18&#45;&gt;Node14 -->
<g id="edge35" class="edge">
<title>Node18&#45;&gt;Node14</title>
<path fill="none" stroke="#63b8ff" d="M320.46,-689.86C327.2,-687.26 333.87,-684.32 340,-681 349.28,-675.99 395.19,-637.94 424.98,-612.94"/>
<polygon fill="#63b8ff" stroke="#63b8ff" points="427.51,-615.39 432.92,-606.28 423.01,-610.03 427.51,-615.39"/>
</g>
<!-- Node26&#45;&gt;Node6 -->
<g id="edge44" class="edge">
<title>Node26&#45;&gt;Node6</title>
<path fill="none" stroke="#63b8ff" d="M509.47,-904.94C515.91,-902.36 522.22,-899.39 528,-896 570.83,-870.91 610.91,-827.83 631.53,-803.71"/>
<polygon fill="#63b8ff" stroke="#63b8ff" points="634.46,-805.65 638.21,-795.74 629.1,-801.15 634.46,-805.65"/>
</g>
<!-- Node29&#45;&gt;Node6 -->
<g id="edge48" class="edge">
<title>Node29&#45;&gt;Node6</title>
<path fill="none" stroke="#63b8ff" d="M493.72,-856.94C504.91,-852.62 516.99,-847.78 528,-843 559.37,-829.39 594.57,-812.11 618.3,-800.17"/>
<polygon fill="#63b8ff" stroke="#63b8ff" points="620.07,-803.19 627.42,-795.56 616.91,-796.95 620.07,-803.19"/>
</g>
</g>
</svg>
