<?xml version="1.0" encoding="UTF-8" standalone="no"?>
<!DOCTYPE svg PUBLIC "-//W3C//DTD SVG 1.1//EN"
 "http://www.w3.org/Graphics/SVG/1.1/DTD/svg11.dtd">
<!-- Generated by graphviz version 2.43.0 (0)
 -->
<!-- Title: StatusCommand::processOptions Pages: 1 -->
<svg width="809pt" height="551pt"
 viewBox="0.00 0.00 809.00 550.50" xmlns="http://www.w3.org/2000/svg" xmlns:xlink="http://www.w3.org/1999/xlink">
<g id="graph0" class="graph" transform="scale(1 1) rotate(0) translate(4 546.5)">
<title>StatusCommand::processOptions</title>
<!-- Node1 -->
<g id="node1" class="node">
<title>Node1</title>
<g id="a_node1"><a xlink:title="Processes the relevant options from the command line parser.">
<polygon fill="#999999" stroke="#666666" points="179,-302.5 0,-302.5 0,-283.5 179,-283.5 179,-302.5"/>
<text text-anchor="middle" x="89.5" y="-290.5" font-family="Helvetica,sans-Serif" font-size="10.00">StatusCommand::processOptions</text>
</a>
</g>
</g>
<!-- Node2 -->
<g id="node2" class="node">
<title>Node2</title>
<g id="a_node2"><a target="_parent" xlink:href="https://doc.qt.io/qt-5/qlist.html#isEmpty" xlink:title=" ">
<polygon fill="white" stroke="#666666" points="334,-324.5 247,-324.5 247,-305.5 334,-305.5 334,-324.5"/>
<text text-anchor="middle" x="290.5" y="-312.5" font-family="Helvetica,sans-Serif" font-size="10.00">QList::isEmpty</text>
</a>
</g>
</g>
<!-- Node1&#45;&gt;Node2 -->
<g id="edge1" class="edge">
<title>Node1&#45;&gt;Node2</title>
<path fill="none" stroke="#63b8ff" d="M176.63,-302.52C197.1,-304.78 218.34,-307.13 236.8,-309.17"/>
<polygon fill="#63b8ff" stroke="#63b8ff" points="236.43,-312.65 246.75,-310.27 237.19,-305.7 236.43,-312.65"/>
</g>
<!-- Node3 -->
<g id="node3" class="node">
<title>Node3</title>
<g id="a_node3"><a xlink:href="classAbstractCommand.html#ad827a18a24776efeb955739459d48f7d" target="_top" xlink:title="Processes the relevant options from the command line parser.">
<polygon fill="white" stroke="#666666" points="366,-287 215,-287 215,-257 366,-257 366,-287"/>
<text text-anchor="start" x="223" y="-275" font-family="Helvetica,sans-Serif" font-size="10.00">AbstractCommand::process</text>
<text text-anchor="middle" x="290.5" y="-264" font-family="Helvetica,sans-Serif" font-size="10.00">Options</text>
</a>
</g>
</g>
<!-- Node1&#45;&gt;Node3 -->
<g id="edge2" class="edge">
<title>Node1&#45;&gt;Node3</title>
<path fill="none" stroke="#63b8ff" d="M179.23,-283.64C187.71,-282.74 196.29,-281.84 204.72,-280.95"/>
<polygon fill="#63b8ff" stroke="#63b8ff" points="205.34,-284.4 214.92,-279.87 204.61,-277.44 205.34,-284.4"/>
</g>
<!-- Node4 -->
<g id="node4" class="node">
<title>Node4</title>
<g id="a_node4"><a target="_parent" xlink:href="https://doc.qt.io/qt-5/qlist.html#append" xlink:title=" ">
<polygon fill="white" stroke="#666666" points="548,-542.5 465,-542.5 465,-523.5 548,-523.5 548,-542.5"/>
<text text-anchor="middle" x="506.5" y="-530.5" font-family="Helvetica,sans-Serif" font-size="10.00">QList::append</text>
</a>
</g>
</g>
<!-- Node3&#45;&gt;Node4 -->
<g id="edge3" class="edge">
<title>Node3&#45;&gt;Node4</title>
<path fill="none" stroke="#63b8ff" d="M354.6,-287.15C358.84,-289.9 362.73,-293.16 366,-297 429.66,-371.77 332.86,-445.27 402,-515 415.66,-528.78 435.84,-534.21 454.76,-535.86"/>
<polygon fill="#63b8ff" stroke="#63b8ff" points="454.62,-539.36 464.8,-536.41 455,-532.37 454.62,-539.36"/>
</g>
<!-- Node5 -->
<g id="node5" class="node">
<title>Node5</title>
<g id="a_node5"><a target="_parent" xlink:href="https://doc.qt.io/qt-5/qstring.html#arg-11" xlink:title=" ">
<polygon fill="white" stroke="#666666" points="543.5,-505.5 469.5,-505.5 469.5,-486.5 543.5,-486.5 543.5,-505.5"/>
<text text-anchor="middle" x="506.5" y="-493.5" font-family="Helvetica,sans-Serif" font-size="10.00">QString::arg</text>
</a>
</g>
</g>
<!-- Node3&#45;&gt;Node5 -->
<g id="edge4" class="edge">
<title>Node3&#45;&gt;Node5</title>
<path fill="none" stroke="#63b8ff" d="M354.11,-287.04C358.53,-289.82 362.58,-293.11 366,-297 420.19,-358.57 343.31,-420.71 402,-478 416.89,-492.54 439.07,-497.69 459.08,-498.94"/>
<polygon fill="#63b8ff" stroke="#63b8ff" points="459.2,-502.44 469.3,-499.26 459.42,-495.45 459.2,-502.44"/>
</g>
<!-- Node6 -->
<g id="node6" class="node">
<title>Node6</title>
<g id="a_node6"><a target="_parent" xlink:href="https://doc.qt.io/qt-5/qstringlist.html#contains" xlink:title=" ">
<polygon fill="white" stroke="#666666" points="565,-468.5 448,-468.5 448,-449.5 565,-449.5 565,-468.5"/>
<text text-anchor="middle" x="506.5" y="-456.5" font-family="Helvetica,sans-Serif" font-size="10.00">QStringList::contains</text>
</a>
</g>
</g>
<!-- Node3&#45;&gt;Node6 -->
<g id="edge5" class="edge">
<title>Node3&#45;&gt;Node6</title>
<path fill="none" stroke="#63b8ff" d="M353.55,-287.02C358.14,-289.8 362.39,-293.1 366,-297 410.52,-345.1 354.17,-395.19 402,-440 411.83,-449.21 424.58,-454.69 437.75,-457.82"/>
<polygon fill="#63b8ff" stroke="#63b8ff" points="437.38,-461.32 447.86,-459.79 438.71,-454.45 437.38,-461.32"/>
</g>
<!-- Node7 -->
<g id="node7" class="node">
<title>Node7</title>
<g id="a_node7"><a target="_parent" xlink:href="https://doc.qt.io/qt-5/qcommandlineparser.html#isSet" xlink:title=" ">
<polygon fill="white" stroke="#666666" points="569,-431 444,-431 444,-401 569,-401 569,-431"/>
<text text-anchor="start" x="452" y="-419" font-family="Helvetica,sans-Serif" font-size="10.00">QCommandLineParser</text>
<text text-anchor="middle" x="506.5" y="-408" font-family="Helvetica,sans-Serif" font-size="10.00">::isSet</text>
</a>
</g>
</g>
<!-- Node3&#45;&gt;Node7 -->
<g id="edge6" class="edge">
<title>Node3&#45;&gt;Node7</title>
<path fill="none" stroke="#63b8ff" d="M352.35,-287.07C357.32,-289.84 361.97,-293.12 366,-297 398.54,-328.31 368,-362.29 402,-392 411.11,-399.97 422.36,-405.42 434.04,-409.14"/>
<polygon fill="#63b8ff" stroke="#63b8ff" points="433.35,-412.58 443.92,-411.86 435.21,-405.83 433.35,-412.58"/>
</g>
<!-- Node8 -->
<g id="node8" class="node">
<title>Node8</title>
<g id="a_node8"><a target="_parent" xlink:href="https://doc.qt.io/qt-5/qbluetoothdevicediscoveryagent.html#lowEnergyDiscoveryTimeout" xlink:title=" ">
<polygon fill="white" stroke="#666666" points="602,-383 411,-383 411,-353 602,-353 602,-383"/>
<text text-anchor="start" x="419" y="-371" font-family="Helvetica,sans-Serif" font-size="10.00">QBluetoothDeviceDiscovery</text>
<text text-anchor="middle" x="506.5" y="-360" font-family="Helvetica,sans-Serif" font-size="10.00">Agent::lowEnergyDiscoveryTimeout</text>
</a>
</g>
</g>
<!-- Node3&#45;&gt;Node8 -->
<g id="edge7" class="edge">
<title>Node3&#45;&gt;Node8</title>
<path fill="none" stroke="#63b8ff" d="M348.57,-287.15C354.72,-289.93 360.67,-293.19 366,-297 387.41,-312.3 379.88,-329.75 402,-344 404.59,-345.67 407.28,-347.22 410.06,-348.67"/>
<polygon fill="#63b8ff" stroke="#63b8ff" points="408.61,-351.86 419.15,-352.93 411.58,-345.52 408.61,-351.86"/>
</g>
<!-- Node9 -->
<g id="node9" class="node">
<title>Node9</title>
<g id="a_node9"><a target="_parent" xlink:href="https://doc.qt.io/qt-5/qcommandlineparser.html#optionNames" xlink:title=" ">
<polygon fill="white" stroke="#666666" points="569,-335 444,-335 444,-305 569,-305 569,-335"/>
<text text-anchor="start" x="452" y="-323" font-family="Helvetica,sans-Serif" font-size="10.00">QCommandLineParser</text>
<text text-anchor="middle" x="506.5" y="-312" font-family="Helvetica,sans-Serif" font-size="10.00">::optionNames</text>
</a>
</g>
</g>
<!-- Node3&#45;&gt;Node9 -->
<g id="edge8" class="edge">
<title>Node3&#45;&gt;Node9</title>
<path fill="none" stroke="#63b8ff" d="M358.62,-287.06C382.54,-292.42 409.56,-298.48 433.84,-303.93"/>
<polygon fill="#63b8ff" stroke="#63b8ff" points="433.18,-307.37 443.71,-306.14 434.72,-300.54 433.18,-307.37"/>
</g>
<!-- Node10 -->
<g id="node10" class="node">
<title>Node10</title>
<g id="a_node10"><a xlink:href="classAbstractCommand.html#ab18bb57fe68534739f63c994330a29c2" target="_top" xlink:title="Returns value as a number of millis, such as milliseconds, or millivolts.">
<polygon fill="white" stroke="#666666" points="587,-287 426,-287 426,-257 587,-257 587,-287"/>
<text text-anchor="start" x="434" y="-275" font-family="Helvetica,sans-Serif" font-size="10.00">AbstractCommand::parseMilli</text>
<text text-anchor="middle" x="506.5" y="-264" font-family="Helvetica,sans-Serif" font-size="10.00">Value</text>
</a>
</g>
</g>
<!-- Node3&#45;&gt;Node10 -->
<g id="edge9" class="edge">
<title>Node3&#45;&gt;Node10</title>
<path fill="none" stroke="#63b8ff" d="M366.05,-272C382.03,-272 399.08,-272 415.57,-272"/>
<polygon fill="#63b8ff" stroke="#63b8ff" points="415.76,-275.5 425.76,-272 415.76,-268.5 415.76,-275.5"/>
</g>
<!-- Node18 -->
<g id="node18" class="node">
<title>Node18</title>
<g id="a_node18"><a xlink:href="classAbstractCommand.html#afd6f41cfc925751415cfa45e3b2d0b4a" target="_top" xlink:title="Returns a list of CLI option names required by this command.">
<polygon fill="white" stroke="#666666" points="801,-153 647,-153 647,-123 801,-123 801,-153"/>
<text text-anchor="start" x="655" y="-141" font-family="Helvetica,sans-Serif" font-size="10.00">AbstractCommand::required</text>
<text text-anchor="middle" x="724" y="-130" font-family="Helvetica,sans-Serif" font-size="10.00">Options</text>
</a>
</g>
</g>
<!-- Node3&#45;&gt;Node18 -->
<g id="edge17" class="edge">
<title>Node3&#45;&gt;Node18</title>
<path fill="none" stroke="#63b8ff" d="M358.92,-256.98C373.13,-253.92 388.04,-250.78 402,-248 494.59,-229.53 530.69,-259.64 611,-210 633.68,-195.98 625.24,-177.42 647,-162 649.12,-160.49 651.35,-159.08 653.64,-157.75"/>
<polygon fill="#63b8ff" stroke="#63b8ff" points="655.5,-160.73 662.79,-153.05 652.3,-154.51 655.5,-160.73"/>
</g>
<!-- Node19 -->
<g id="node19" class="node">
<title>Node19</title>
<g id="a_node19"><a target="_parent" xlink:href="https://doc.qt.io/qt-5/qbluetoothdevicediscoveryagent.html#setLowEnergyDiscoveryTimeout" xlink:title=" ">
<polygon fill="white" stroke="#666666" points="611,-201 402,-201 402,-171 611,-171 611,-201"/>
<text text-anchor="start" x="410" y="-189" font-family="Helvetica,sans-Serif" font-size="10.00">QBluetoothDeviceDiscovery</text>
<text text-anchor="middle" x="506.5" y="-178" font-family="Helvetica,sans-Serif" font-size="10.00">Agent::setLowEnergyDiscoveryTimeout</text>
</a>
</g>
</g>
<!-- Node3&#45;&gt;Node19 -->
<g id="edge18" class="edge">
<title>Node3&#45;&gt;Node19</title>
<path fill="none" stroke="#63b8ff" d="M317.15,-256.87C339.11,-244.38 371.87,-226.85 402,-215 412.17,-211 423.11,-207.31 433.92,-204"/>
<polygon fill="#63b8ff" stroke="#63b8ff" points="435.21,-207.27 443.8,-201.07 433.22,-200.56 435.21,-207.27"/>
</g>
<!-- Node20 -->
<g id="node20" class="node">
<title>Node20</title>
<g id="a_node20"><a xlink:href="classAbstractCommand.html#a1ceca3c5b4cb24277dd4d4054f45db18" target="_top" xlink:title="Returns a list of CLI option names supported by this command.">
<polygon fill="white" stroke="#666666" points="587.5,-153 425.5,-153 425.5,-123 587.5,-123 587.5,-153"/>
<text text-anchor="start" x="433.5" y="-141" font-family="Helvetica,sans-Serif" font-size="10.00">AbstractCommand::supported</text>
<text text-anchor="middle" x="506.5" y="-130" font-family="Helvetica,sans-Serif" font-size="10.00">Options</text>
</a>
</g>
</g>
<!-- Node3&#45;&gt;Node20 -->
<g id="edge19" class="edge">
<title>Node3&#45;&gt;Node20</title>
<path fill="none" stroke="#63b8ff" d="M302.17,-256.91C319.99,-232.9 358.19,-186.25 402,-162 406.43,-159.55 411.09,-157.35 415.89,-155.37"/>
<polygon fill="#63b8ff" stroke="#63b8ff" points="417.15,-158.64 425.27,-151.84 414.68,-152.09 417.15,-158.64"/>
</g>
<!-- Node21 -->
<g id="node21" class="node">
<title>Node21</title>
<g id="a_node21"><a target="_parent" xlink:href="https://doc.qt.io/qt-5/qstring.html#toLower" xlink:title=" ">
<polygon fill="white" stroke="#666666" points="555.5,-104.5 457.5,-104.5 457.5,-85.5 555.5,-85.5 555.5,-104.5"/>
<text text-anchor="middle" x="506.5" y="-92.5" font-family="Helvetica,sans-Serif" font-size="10.00">QString::toLower</text>
</a>
</g>
</g>
<!-- Node3&#45;&gt;Node21 -->
<g id="edge21" class="edge">
<title>Node3&#45;&gt;Node21</title>
<path fill="none" stroke="#63b8ff" d="M297.36,-256.86C310.63,-224.75 346.24,-149.82 402,-114 415.37,-105.41 431.59,-100.47 447.19,-97.68"/>
<polygon fill="#63b8ff" stroke="#63b8ff" points="447.96,-101.11 457.32,-96.14 446.91,-94.18 447.96,-101.11"/>
</g>
<!-- Node22 -->
<g id="node22" class="node">
<title>Node22</title>
<g id="a_node22"><a target="_parent" xlink:href="https://doc.qt.io/qt-5/qobject.html#tr" xlink:title=" ">
<polygon fill="white" stroke="#666666" points="541,-67.5 472,-67.5 472,-48.5 541,-48.5 541,-67.5"/>
<text text-anchor="middle" x="506.5" y="-55.5" font-family="Helvetica,sans-Serif" font-size="10.00">QObject::tr</text>
</a>
</g>
</g>
<!-- Node3&#45;&gt;Node22 -->
<g id="edge22" class="edge">
<title>Node3&#45;&gt;Node22</title>
<path fill="none" stroke="#63b8ff" d="M295.19,-256.99C305.23,-219.61 336.74,-122.08 402,-76 419.25,-63.82 442.08,-58.97 461.9,-57.32"/>
<polygon fill="#63b8ff" stroke="#63b8ff" points="462.18,-60.81 471.95,-56.73 461.76,-53.82 462.18,-60.81"/>
</g>
<!-- Node23 -->
<g id="node23" class="node">
<title>Node23</title>
<g id="a_node23"><a target="_parent" xlink:href="https://doc.qt.io/qt-5/qcommandlineparser.html#value" xlink:title=" ">
<polygon fill="white" stroke="#666666" points="569,-30 444,-30 444,0 569,0 569,-30"/>
<text text-anchor="start" x="452" y="-18" font-family="Helvetica,sans-Serif" font-size="10.00">QCommandLineParser</text>
<text text-anchor="middle" x="506.5" y="-7" font-family="Helvetica,sans-Serif" font-size="10.00">::value</text>
</a>
</g>
</g>
<!-- Node3&#45;&gt;Node23 -->
<g id="edge23" class="edge">
<title>Node3&#45;&gt;Node23</title>
<path fill="none" stroke="#63b8ff" d="M293.99,-256.96C301.72,-215.28 329.29,-97.54 402,-39 411.32,-31.5 422.55,-26.26 434.14,-22.61"/>
<polygon fill="#63b8ff" stroke="#63b8ff" points="435.21,-25.95 443.92,-19.91 433.35,-19.2 435.21,-25.95"/>
</g>
<!-- Node11 -->
<g id="node11" class="node">
<title>Node11</title>
<g id="a_node11"><a target="_parent" xlink:href="https://doc.qt.io/qt-5/qstring.html#chop" xlink:title=" ">
<polygon fill="white" stroke="#666666" points="765,-412.5 683,-412.5 683,-393.5 765,-393.5 765,-412.5"/>
<text text-anchor="middle" x="724" y="-400.5" font-family="Helvetica,sans-Serif" font-size="10.00">QString::chop</text>
</a>
</g>
</g>
<!-- Node10&#45;&gt;Node11 -->
<g id="edge10" class="edge">
<title>Node10&#45;&gt;Node11</title>
<path fill="none" stroke="#63b8ff" d="M587.08,-281.97C595.77,-285.44 603.99,-290.01 611,-296 643.44,-323.72 614.63,-357.2 647,-385 654.33,-391.29 663.47,-395.48 672.84,-398.24"/>
<polygon fill="#63b8ff" stroke="#63b8ff" points="672.08,-401.66 682.62,-400.63 673.74,-394.86 672.08,-401.66"/>
</g>
<!-- Node12 -->
<g id="node12" class="node">
<title>Node12</title>
<g id="a_node12"><a target="_parent" xlink:href="https://doc.qt.io/qt-5/qstring.html#endsWith" xlink:title=" ">
<polygon fill="white" stroke="#666666" points="776,-375.5 672,-375.5 672,-356.5 776,-356.5 776,-375.5"/>
<text text-anchor="middle" x="724" y="-363.5" font-family="Helvetica,sans-Serif" font-size="10.00">QString::endsWith</text>
</a>
</g>
</g>
<!-- Node10&#45;&gt;Node12 -->
<g id="edge11" class="edge">
<title>Node10&#45;&gt;Node12</title>
<path fill="none" stroke="#63b8ff" d="M587.21,-284.03C595.63,-287.16 603.75,-291.08 611,-296 634.25,-311.79 623.78,-332.15 647,-348 651.62,-351.15 656.72,-353.76 662.04,-355.91"/>
<polygon fill="#63b8ff" stroke="#63b8ff" points="661.17,-359.31 671.76,-359.31 663.48,-352.7 661.17,-359.31"/>
</g>
<!-- Node13 -->
<g id="node13" class="node">
<title>Node13</title>
<g id="a_node13"><a target="_parent" xlink:href="https://doc.qt.io/qt-5/qstring.html#isEmpty" xlink:title=" ">
<polygon fill="white" stroke="#666666" points="773,-338.5 675,-338.5 675,-319.5 773,-319.5 773,-338.5"/>
<text text-anchor="middle" x="724" y="-326.5" font-family="Helvetica,sans-Serif" font-size="10.00">QString::isEmpty</text>
</a>
</g>
</g>
<!-- Node10&#45;&gt;Node13 -->
<g id="edge12" class="edge">
<title>Node10&#45;&gt;Node13</title>
<path fill="none" stroke="#63b8ff" d="M579.47,-287.05C590.12,-289.75 600.9,-292.75 611,-296 627.5,-301.31 630.51,-305.65 647,-311 653.5,-313.11 660.38,-315.08 667.25,-316.9"/>
<polygon fill="#63b8ff" stroke="#63b8ff" points="666.7,-320.37 677.25,-319.44 668.42,-313.58 666.7,-320.37"/>
</g>
<!-- Node14 -->
<g id="node14" class="node">
<title>Node14</title>
<g id="a_node14"><a target="_parent" xlink:href="https://doc.qt.io/qt-5/qstring.html#length" xlink:title=" ">
<polygon fill="white" stroke="#666666" points="768.5,-301.5 679.5,-301.5 679.5,-282.5 768.5,-282.5 768.5,-301.5"/>
<text text-anchor="middle" x="724" y="-289.5" font-family="Helvetica,sans-Serif" font-size="10.00">QString::length</text>
</a>
</g>
</g>
<!-- Node10&#45;&gt;Node14 -->
<g id="edge13" class="edge">
<title>Node10&#45;&gt;Node14</title>
<path fill="none" stroke="#63b8ff" d="M587.13,-279.39C614.41,-281.92 644.27,-284.69 669.03,-286.99"/>
<polygon fill="#63b8ff" stroke="#63b8ff" points="669.03,-290.51 679.31,-287.95 669.68,-283.54 669.03,-290.51"/>
</g>
<!-- Node15 -->
<g id="node15" class="node">
<title>Node15</title>
<g id="a_node15"><a target="_parent" xlink:href="https://doc.qt.io/qt-5/qlocale.html#toDouble" xlink:title=" ">
<polygon fill="white" stroke="#666666" points="777,-264.5 671,-264.5 671,-245.5 777,-245.5 777,-264.5"/>
<text text-anchor="middle" x="724" y="-252.5" font-family="Helvetica,sans-Serif" font-size="10.00">QLocale::toDouble</text>
</a>
</g>
</g>
<!-- Node10&#45;&gt;Node15 -->
<g id="edge14" class="edge">
<title>Node10&#45;&gt;Node15</title>
<path fill="none" stroke="#63b8ff" d="M587.13,-265.72C611.36,-263.81 637.62,-261.74 660.54,-259.93"/>
<polygon fill="#63b8ff" stroke="#63b8ff" points="661.13,-263.39 670.82,-259.12 660.58,-256.41 661.13,-263.39"/>
</g>
<!-- Node16 -->
<g id="node16" class="node">
<title>Node16</title>
<g id="a_node16"><a target="_parent" xlink:href="https://doc.qt.io/qt-5/qlocale.html#toUInt" xlink:title=" ">
<polygon fill="white" stroke="#666666" points="770,-227.5 678,-227.5 678,-208.5 770,-208.5 770,-227.5"/>
<text text-anchor="middle" x="724" y="-215.5" font-family="Helvetica,sans-Serif" font-size="10.00">QLocale::toUInt</text>
</a>
</g>
</g>
<!-- Node10&#45;&gt;Node16 -->
<g id="edge15" class="edge">
<title>Node10&#45;&gt;Node16</title>
<path fill="none" stroke="#63b8ff" d="M567.58,-256.91C592.19,-250.74 620.96,-243.52 647,-237 656.01,-234.74 665.62,-232.34 674.87,-230.03"/>
<polygon fill="#63b8ff" stroke="#63b8ff" points="675.87,-233.38 684.73,-227.56 674.17,-226.59 675.87,-233.38"/>
</g>
<!-- Node17 -->
<g id="node17" class="node">
<title>Node17</title>
<g id="a_node17"><a target="_parent" xlink:href="https://doc.qt.io/qt-5/qstring.html#trimmed" xlink:title=" ">
<polygon fill="white" stroke="#666666" points="774.5,-190.5 673.5,-190.5 673.5,-171.5 774.5,-171.5 774.5,-190.5"/>
<text text-anchor="middle" x="724" y="-178.5" font-family="Helvetica,sans-Serif" font-size="10.00">QString::trimmed</text>
</a>
</g>
</g>
<!-- Node10&#45;&gt;Node17 -->
<g id="edge16" class="edge">
<title>Node10&#45;&gt;Node17</title>
<path fill="none" stroke="#63b8ff" d="M582.24,-256.94C592.33,-253.25 602.22,-248.67 611,-243 631.94,-229.48 625.87,-213.23 647,-200 652.1,-196.81 657.7,-194.15 663.48,-191.95"/>
<polygon fill="#63b8ff" stroke="#63b8ff" points="664.96,-195.14 673.32,-188.63 662.73,-188.51 664.96,-195.14"/>
</g>
<!-- Node20&#45;&gt;Node18 -->
<g id="edge20" class="edge">
<title>Node20&#45;&gt;Node18</title>
<path fill="none" stroke="#63b8ff" d="M587.74,-138C603.8,-138 620.73,-138 636.97,-138"/>
<polygon fill="#63b8ff" stroke="#63b8ff" points="636.98,-141.5 646.98,-138 636.98,-134.5 636.98,-141.5"/>
</g>
</g>
</svg>
