<?xml version="1.0" encoding="UTF-8" standalone="no"?>
<!DOCTYPE svg PUBLIC "-//W3C//DTD SVG 1.1//EN"
 "http://www.w3.org/Graphics/SVG/1.1/DTD/svg11.dtd">
<!-- Generated by graphviz version 2.43.0 (0)
 -->
<!-- Title: StatusServicePrivate::parseStatus Pages: 1 -->
<svg width="859pt" height="116pt"
 viewBox="0.00 0.00 859.00 115.50" xmlns="http://www.w3.org/2000/svg" xmlns:xlink="http://www.w3.org/1999/xlink">
<g id="graph0" class="graph" transform="scale(1 1) rotate(0) translate(4 111.5)">
<title>StatusServicePrivate::parseStatus</title>
<!-- Node1 -->
<g id="node1" class="node">
<title>Node1</title>
<g id="a_node1"><a xlink:title="Parses the Status value into Statu struct.">
<polygon fill="#bfbfbf" stroke="black" points="733,-33 733,-63 851,-63 851,-33 733,-33"/>
<text text-anchor="start" x="741" y="-51" font-family="Helvetica,sans-Serif" font-size="10.00">StatusServicePrivate</text>
<text text-anchor="middle" x="792" y="-40" font-family="Helvetica,sans-Serif" font-size="10.00">::parseStatus</text>
</a>
</g>
</g>
<!-- Node2 -->
<g id="node2" class="node">
<title>Node2</title>
<g id="a_node2"><a xlink:href="classStatusServicePrivate.html#a08d8faee04fb47ac19d3962609606d52" target="_top" xlink:title="Implements AbstractPokitServicePrivate::characteristicRead to parse value, then emit a specialised si...">
<polygon fill="none" stroke="black" points="578.5,-77 578.5,-107 696.5,-107 696.5,-77 578.5,-77"/>
<text text-anchor="start" x="586.5" y="-95" font-family="Helvetica,sans-Serif" font-size="10.00">StatusServicePrivate</text>
<text text-anchor="middle" x="637.5" y="-84" font-family="Helvetica,sans-Serif" font-size="10.00">::characteristicRead</text>
</a>
</g>
</g>
<!-- Node1&#45;&gt;Node2 -->
<g id="edge1" class="edge">
<title>Node1&#45;&gt;Node2</title>
<path fill="none" stroke="midnightblue" d="M729.27,-65.81C716.43,-69.52 703.03,-73.38 690.58,-76.97"/>
<polygon fill="midnightblue" stroke="midnightblue" points="730.31,-69.15 738.94,-63.02 728.37,-62.43 730.31,-69.15"/>
</g>
<!-- Node3 -->
<g id="node3" class="node">
<title>Node3</title>
<g id="a_node3"><a xlink:href="classStatusService.html#ae7be4aae021ae50faef48ed2812eb6a7" target="_top" xlink:title="Returns the most recent value of the Status service&#39;s Status characteristic.">
<polygon fill="none" stroke="black" points="578,-38.5 578,-57.5 697,-57.5 697,-38.5 578,-38.5"/>
<text text-anchor="middle" x="637.5" y="-45.5" font-family="Helvetica,sans-Serif" font-size="10.00">StatusService::status</text>
</a>
</g>
</g>
<!-- Node1&#45;&gt;Node3 -->
<g id="edge2" class="edge">
<title>Node1&#45;&gt;Node3</title>
<path fill="none" stroke="midnightblue" d="M722.64,-48C714.15,-48 705.52,-48 697.19,-48"/>
<polygon fill="midnightblue" stroke="midnightblue" points="722.91,-51.5 732.91,-48 722.91,-44.5 722.91,-51.5"/>
</g>
<!-- Node4 -->
<g id="node4" class="node">
<title>Node4</title>
<g id="a_node4"><a xlink:href="classStatusCommand.html#a44fa20846ec8d74d1f6e3844832e9f1a" target="_top" xlink:title="Outputs the Pokit device&#39;s details, including chrs, in the selected format.">
<polygon fill="none" stroke="black" points="209,-14 209,-44 378,-44 378,-14 209,-14"/>
<text text-anchor="start" x="217" y="-32" font-family="Helvetica,sans-Serif" font-size="10.00">StatusCommand::outputDevice</text>
<text text-anchor="middle" x="293.5" y="-21" font-family="Helvetica,sans-Serif" font-size="10.00">Status</text>
</a>
</g>
</g>
<!-- Node3&#45;&gt;Node4 -->
<g id="edge3" class="edge">
<title>Node3&#45;&gt;Node4</title>
<path fill="none" stroke="midnightblue" d="M567.42,-44.16C512.76,-41.13 436.23,-36.87 378.11,-33.64"/>
<polygon fill="midnightblue" stroke="midnightblue" points="567.53,-47.67 577.71,-44.73 567.92,-40.68 567.53,-47.67"/>
</g>
<!-- Node6 -->
<g id="node6" class="node">
<title>Node6</title>
<g id="a_node6"><a xlink:href="classStatusService.html#aac79e97cb114be25b2a6771d915f132d" target="_top" xlink:title="Returns a string version of the status enum label.">
<polygon fill="none" stroke="black" points="414,-0.5 414,-19.5 542,-19.5 542,-0.5 414,-0.5"/>
<text text-anchor="middle" x="478" y="-7.5" font-family="Helvetica,sans-Serif" font-size="10.00">StatusService::toString</text>
</a>
</g>
</g>
<!-- Node3&#45;&gt;Node6 -->
<g id="edge5" class="edge">
<title>Node3&#45;&gt;Node6</title>
<path fill="none" stroke="midnightblue" d="M586.9,-36.03C564.82,-30.71 539.2,-24.52 518.46,-19.52"/>
<polygon fill="midnightblue" stroke="midnightblue" points="586.21,-39.47 596.76,-38.41 587.86,-32.66 586.21,-39.47"/>
</g>
<!-- Node5 -->
<g id="node5" class="node">
<title>Node5</title>
<g id="a_node5"><a xlink:href="classStatusCommand.html#af275e3a02032915dd27e0c0e041ff6c1" target="_top" xlink:title="Handles service detail discovery events.">
<polygon fill="none" stroke="black" points="0,-14 0,-44 173,-44 173,-14 0,-14"/>
<text text-anchor="start" x="8" y="-32" font-family="Helvetica,sans-Serif" font-size="10.00">StatusCommand::serviceDetails</text>
<text text-anchor="middle" x="86.5" y="-21" font-family="Helvetica,sans-Serif" font-size="10.00">Discovered</text>
</a>
</g>
</g>
<!-- Node4&#45;&gt;Node5 -->
<g id="edge4" class="edge">
<title>Node4&#45;&gt;Node5</title>
<path fill="none" stroke="midnightblue" d="M198.58,-29C190.13,-29 181.61,-29 173.24,-29"/>
<polygon fill="midnightblue" stroke="midnightblue" points="198.82,-32.5 208.82,-29 198.82,-25.5 198.82,-32.5"/>
</g>
<!-- Node6&#45;&gt;Node1 -->
<g id="edge7" class="edge">
<title>Node6&#45;&gt;Node1</title>
<path fill="none" stroke="midnightblue" d="M552.41,-14.33C594.81,-17.35 649.06,-22.09 697,-29 708.62,-30.67 720.97,-32.87 732.76,-35.17"/>
<polygon fill="midnightblue" stroke="midnightblue" points="552.4,-10.82 542.18,-13.62 551.91,-17.81 552.4,-10.82"/>
</g>
<!-- Node6&#45;&gt;Node4 -->
<g id="edge6" class="edge">
<title>Node6&#45;&gt;Node4</title>
<path fill="none" stroke="midnightblue" d="M403.78,-17.62C395.36,-18.5 386.72,-19.4 378.16,-20.29"/>
<polygon fill="midnightblue" stroke="midnightblue" points="404.35,-21.08 413.94,-16.57 403.63,-14.12 404.35,-21.08"/>
</g>
</g>
</svg>
