<?xml version="1.0" encoding="UTF-8" standalone="no"?>
<!DOCTYPE svg PUBLIC "-//W3C//DTD SVG 1.1//EN"
 "http://www.w3.org/Graphics/SVG/1.1/DTD/svg11.dtd">
<!-- Generated by graphviz version 2.43.0 (0)
 -->
<!-- Title: StatusCommand Pages: 1 -->
<svg width="556pt" height="219pt"
 viewBox="0.00 0.00 555.50 219.00" xmlns="http://www.w3.org/2000/svg" xmlns:xlink="http://www.w3.org/1999/xlink">
<g id="graph0" class="graph" transform="scale(1 1) rotate(0) translate(4 215)">
<title>StatusCommand</title>
<!-- Node1 -->
<g id="node1" class="node">
<title>Node1</title>
<g id="a_node1"><a xlink:title="The StatusCommand class implements the status CLI command.">
<polygon fill="#bfbfbf" stroke="black" points="43.5,-0.5 43.5,-19.5 141.5,-19.5 141.5,-0.5 43.5,-0.5"/>
<text text-anchor="middle" x="92.5" y="-7.5" font-family="Helvetica,sans-Serif" font-size="10.00">StatusCommand</text>
</a>
</g>
</g>
<!-- Node2 -->
<g id="node2" class="node">
<title>Node2</title>
<g id="a_node2"><a xlink:href="classDeviceCommand.html" target="_top" xlink:title="The AbstractCommand class extends AbstractCommand to add a PokitDevice instance.">
<polygon fill="none" stroke="black" points="0,-67.5 0,-86.5 101,-86.5 101,-67.5 0,-67.5"/>
<text text-anchor="middle" x="50.5" y="-74.5" font-family="Helvetica,sans-Serif" font-size="10.00">DeviceCommand</text>
</a>
</g>
</g>
<!-- Node2&#45;&gt;Node1 -->
<g id="edge1" class="edge">
<title>Node2&#45;&gt;Node1</title>
<path fill="none" stroke="midnightblue" d="M61.79,-58.53C69.92,-45.95 80.54,-29.51 86.93,-19.63"/>
<polygon fill="midnightblue" stroke="midnightblue" points="58.65,-56.94 56.16,-67.23 64.53,-60.73 58.65,-56.94"/>
</g>
<!-- Node3 -->
<g id="node3" class="node">
<title>Node3</title>
<g id="a_node3"><a xlink:href="classAbstractCommand.html" target="_top" xlink:title="The AbstractCommand class provides a consistent base for the classes that implement CLI commands.">
<polygon fill="none" stroke="black" points="15,-134.5 15,-153.5 122,-153.5 122,-134.5 15,-134.5"/>
<text text-anchor="middle" x="68.5" y="-141.5" font-family="Helvetica,sans-Serif" font-size="10.00">AbstractCommand</text>
</a>
</g>
</g>
<!-- Node3&#45;&gt;Node2 -->
<g id="edge2" class="edge">
<title>Node3&#45;&gt;Node2</title>
<path fill="none" stroke="midnightblue" d="M63.35,-124.41C59.91,-111.99 55.54,-96.22 52.89,-86.63"/>
<polygon fill="midnightblue" stroke="midnightblue" points="60.03,-125.53 66.07,-134.23 66.78,-123.66 60.03,-125.53"/>
</g>
<!-- Node4 -->
<g id="node4" class="node">
<title>Node4</title>
<g id="a_node4"><a xlink:title=" ">
<polygon fill="none" stroke="#bfbfbf" points="237.5,-191.5 237.5,-210.5 293.5,-210.5 293.5,-191.5 237.5,-191.5"/>
<text text-anchor="middle" x="265.5" y="-198.5" font-family="Helvetica,sans-Serif" font-size="10.00">QObject</text>
</a>
</g>
</g>
<!-- Node4&#45;&gt;Node3 -->
<g id="edge3" class="edge">
<title>Node4&#45;&gt;Node3</title>
<path fill="none" stroke="midnightblue" d="M227.27,-189.33C189.93,-178.9 133.82,-163.24 99.27,-153.59"/>
<polygon fill="midnightblue" stroke="midnightblue" points="226.7,-192.8 237.27,-192.12 228.58,-186.06 226.7,-192.8"/>
</g>
<!-- Node5 -->
<g id="node5" class="node">
<title>Node5</title>
<g id="a_node5"><a xlink:href="classPokitDevice.html" target="_top" xlink:title="The PokitDevice class simplifies Pokit device access.">
<polygon fill="none" stroke="black" points="155,-134.5 155,-153.5 230,-153.5 230,-134.5 155,-134.5"/>
<text text-anchor="middle" x="192.5" y="-141.5" font-family="Helvetica,sans-Serif" font-size="10.00">PokitDevice</text>
</a>
</g>
</g>
<!-- Node4&#45;&gt;Node5 -->
<g id="edge5" class="edge">
<title>Node4&#45;&gt;Node5</title>
<path fill="none" stroke="midnightblue" d="M245.97,-185.29C232.6,-175.21 215.31,-162.19 204.07,-153.71"/>
<polygon fill="midnightblue" stroke="midnightblue" points="244,-188.18 254.09,-191.41 248.21,-182.59 244,-188.18"/>
</g>
<!-- Node6 -->
<g id="node6" class="node">
<title>Node6</title>
<g id="a_node6"><a xlink:href="classPokitDevicePrivate.html" target="_top" xlink:title="The PokitDevicePrivate class provides private implementation for PokitDevice.">
<polygon fill="none" stroke="black" points="184.5,-0.5 184.5,-19.5 294.5,-19.5 294.5,-0.5 184.5,-0.5"/>
<text text-anchor="middle" x="239.5" y="-7.5" font-family="Helvetica,sans-Serif" font-size="10.00">PokitDevicePrivate</text>
</a>
</g>
</g>
<!-- Node4&#45;&gt;Node6 -->
<g id="edge7" class="edge">
<title>Node4&#45;&gt;Node6</title>
<path fill="none" stroke="midnightblue" d="M268.61,-180.99C272.88,-149.99 278.18,-87.06 260.5,-38 258,-31.07 253,-24.52 248.5,-19.61"/>
<polygon fill="midnightblue" stroke="midnightblue" points="265.1,-180.81 267.07,-191.22 272.02,-181.85 265.1,-180.81"/>
</g>
<!-- Node8 -->
<g id="node8" class="node">
<title>Node8</title>
<g id="a_node8"><a xlink:href="classAbstractPokitService.html" target="_top" xlink:title="The AbstractPokitService class provides a common base for Pokit services classes.">
<polygon fill="none" stroke="black" points="304.5,-134.5 304.5,-153.5 422.5,-153.5 422.5,-134.5 304.5,-134.5"/>
<text text-anchor="middle" x="363.5" y="-141.5" font-family="Helvetica,sans-Serif" font-size="10.00">AbstractPokitService</text>
</a>
</g>
</g>
<!-- Node4&#45;&gt;Node8 -->
<g id="edge10" class="edge">
<title>Node4&#45;&gt;Node8</title>
<path fill="none" stroke="midnightblue" d="M289.74,-186.39C308.07,-176.11 332.66,-162.31 348.3,-153.53"/>
<polygon fill="midnightblue" stroke="midnightblue" points="287.82,-183.46 280.81,-191.41 291.25,-189.56 287.82,-183.46"/>
</g>
<!-- Node9 -->
<g id="node9" class="node">
<title>Node9</title>
<g id="a_node9"><a xlink:href="classAbstractPokitServicePrivate.html" target="_top" xlink:title="The AbstractPokitServicePrivate class provides private implementation for AbstractPokitService.">
<polygon fill="none" stroke="black" points="395.5,-67.5 395.5,-86.5 547.5,-86.5 547.5,-67.5 395.5,-67.5"/>
<text text-anchor="middle" x="471.5" y="-74.5" font-family="Helvetica,sans-Serif" font-size="10.00">AbstractPokitServicePrivate</text>
</a>
</g>
</g>
<!-- Node4&#45;&gt;Node9 -->
<g id="edge12" class="edge">
<title>Node4&#45;&gt;Node9</title>
<path fill="none" stroke="midnightblue" d="M303.75,-197.09C339.71,-192.68 393.55,-181.65 431.5,-154 454.64,-137.14 465.57,-102.82 469.59,-86.71"/>
<polygon fill="midnightblue" stroke="midnightblue" points="303.21,-193.63 293.65,-198.21 303.98,-200.58 303.21,-193.63"/>
</g>
<!-- Node5&#45;&gt;Node2 -->
<g id="edge4" class="edge">
<title>Node5&#45;&gt;Node2</title>
<path fill="none" stroke="#9a32cd" stroke-dasharray="5,2" d="M144.8,-136.45C126.05,-132.45 104.89,-126.08 87.5,-116 74.59,-108.52 63.21,-95.29 56.58,-86.58"/>
<polygon fill="#9a32cd" stroke="#9a32cd" points="144.16,-139.89 154.64,-138.38 145.51,-133.02 144.16,-139.89"/>
<text text-anchor="middle" x="105.5" y="-108" font-family="Helvetica,sans-Serif" font-size="10.00"> device</text>
</g>
<!-- Node5&#45;&gt;Node6 -->
<g id="edge14" class="edge">
<title>Node5&#45;&gt;Node6</title>
<path fill="none" stroke="#9a32cd" stroke-dasharray="5,2" d="M189.62,-124.34C187.15,-102.21 186.11,-64.92 201.5,-38 206,-30.13 213.83,-23.98 221.23,-19.55"/>
<polygon fill="#9a32cd" stroke="#9a32cd" points="186.17,-124.95 190.95,-134.4 193.1,-124.03 186.17,-124.95"/>
<text text-anchor="middle" x="205.5" y="-74.5" font-family="Helvetica,sans-Serif" font-size="10.00"> q_ptr</text>
</g>
<!-- Node6&#45;&gt;Node5 -->
<g id="edge6" class="edge">
<title>Node6&#45;&gt;Node5</title>
<path fill="none" stroke="#9a32cd" stroke-dasharray="5,2" d="M199.74,-23.27C190.61,-27.14 181.3,-32.01 173.5,-38 160.67,-47.86 156.66,-51.67 151.5,-67 142.8,-92.86 167.19,-120.36 182.02,-134.1"/>
<polygon fill="#9a32cd" stroke="#9a32cd" points="201.09,-26.5 209.13,-19.59 198.54,-19.98 201.09,-26.5"/>
<text text-anchor="middle" x="165.5" y="-74.5" font-family="Helvetica,sans-Serif" font-size="10.00"> d_ptr</text>
</g>
<!-- Node7 -->
<g id="node7" class="node">
<title>Node7</title>
<g id="a_node7"><a xlink:href="classStatusService.html" target="_top" xlink:title="The StatusService class accesses the Pokit Status service of Pokit devices.">
<polygon fill="none" stroke="black" points="294,-67.5 294,-86.5 377,-86.5 377,-67.5 294,-67.5"/>
<text text-anchor="middle" x="335.5" y="-74.5" font-family="Helvetica,sans-Serif" font-size="10.00">StatusService</text>
</a>
</g>
</g>
<!-- Node7&#45;&gt;Node1 -->
<g id="edge15" class="edge">
<title>Node7&#45;&gt;Node1</title>
<path fill="none" stroke="#9a32cd" stroke-dasharray="5,2" d="M293.72,-64.82C245.73,-51.99 168.06,-31.21 124.59,-19.58"/>
<polygon fill="#9a32cd" stroke="#9a32cd" points="292.92,-68.23 303.48,-67.44 294.73,-61.47 292.92,-68.23"/>
<text text-anchor="middle" x="249" y="-41" font-family="Helvetica,sans-Serif" font-size="10.00"> service</text>
</g>
<!-- Node7&#45;&gt;Node6 -->
<g id="edge8" class="edge">
<title>Node7&#45;&gt;Node6</title>
<path fill="none" stroke="#9a32cd" stroke-dasharray="5,2" d="M317.99,-60.61C309.38,-53.37 298.69,-44.85 288.5,-38 278.34,-31.17 266.31,-24.53 256.72,-19.53"/>
<polygon fill="#9a32cd" stroke="#9a32cd" points="315.94,-63.46 325.81,-67.31 320.49,-58.15 315.94,-63.46"/>
<text text-anchor="middle" x="320.5" y="-41" font-family="Helvetica,sans-Serif" font-size="10.00"> status</text>
</g>
<!-- Node8&#45;&gt;Node7 -->
<g id="edge9" class="edge">
<title>Node8&#45;&gt;Node7</title>
<path fill="none" stroke="midnightblue" d="M355.32,-124.72C354.03,-121.81 352.72,-118.82 351.5,-116 347.18,-106.01 342.35,-94.49 339.14,-86.77"/>
<polygon fill="midnightblue" stroke="midnightblue" points="352.19,-126.31 359.46,-134.02 358.59,-123.46 352.19,-126.31"/>
</g>
<!-- Node8&#45;&gt;Node9 -->
<g id="edge13" class="edge">
<title>Node8&#45;&gt;Node9</title>
<path fill="none" stroke="#9a32cd" stroke-dasharray="5,2" d="M367.78,-124.16C370.19,-117.3 373.89,-110.01 379.5,-105 389.06,-96.46 401.19,-90.62 413.49,-86.62"/>
<polygon fill="#9a32cd" stroke="#9a32cd" points="364.3,-123.62 364.96,-134.19 371.04,-125.52 364.3,-123.62"/>
<text text-anchor="middle" x="393.5" y="-108" font-family="Helvetica,sans-Serif" font-size="10.00"> q_ptr</text>
</g>
<!-- Node9&#45;&gt;Node8 -->
<g id="edge11" class="edge">
<title>Node9&#45;&gt;Node8</title>
<path fill="none" stroke="#9a32cd" stroke-dasharray="5,2" d="M448.42,-91.89C427.11,-104.72 396.12,-123.37 378.07,-134.23"/>
<polygon fill="#9a32cd" stroke="#9a32cd" points="450.4,-94.78 457.17,-86.63 446.79,-88.79 450.4,-94.78"/>
<text text-anchor="middle" x="438.5" y="-108" font-family="Helvetica,sans-Serif" font-size="10.00"> d_ptr</text>
</g>
</g>
</svg>
