<?xml version="1.0" encoding="UTF-8" standalone="no"?>
<!DOCTYPE svg PUBLIC "-//W3C//DTD SVG 1.1//EN"
 "http://www.w3.org/Graphics/SVG/1.1/DTD/svg11.dtd">
<!-- Generated by graphviz version 2.43.0 (0)
 -->
<!-- Title: StatusService Pages: 1 -->
<svg width="572pt" height="149pt"
 viewBox="0.00 0.00 571.50 149.00" xmlns="http://www.w3.org/2000/svg" xmlns:xlink="http://www.w3.org/1999/xlink">
<g id="graph0" class="graph" transform="scale(1 1) rotate(0) translate(4 145)">
<title>StatusService</title>
<!-- Node1 -->
<g id="node1" class="node">
<title>Node1</title>
<g id="a_node1"><a xlink:title="The StatusService class accesses the Pokit Status service of Pokit devices.">
<polygon fill="#999999" stroke="#666666" points="83,-19 0,-19 0,0 83,0 83,-19"/>
<text text-anchor="middle" x="41.5" y="-7" font-family="Helvetica,sans-Serif" font-size="10.00">StatusService</text>
</a>
</g>
</g>
<!-- Node2 -->
<g id="node2" class="node">
<title>Node2</title>
<g id="a_node2"><a xlink:href="classAbstractPokitService.html" target="_top" xlink:title="The AbstractPokitService class provides a common base for Pokit services classes.">
<polygon fill="white" stroke="#666666" points="136.5,-85 18.5,-85 18.5,-66 136.5,-66 136.5,-85"/>
<text text-anchor="middle" x="77.5" y="-73" font-family="Helvetica,sans-Serif" font-size="10.00">AbstractPokitService</text>
</a>
</g>
</g>
<!-- Node2&#45;&gt;Node1 -->
<g id="edge1" class="edge">
<title>Node2&#45;&gt;Node1</title>
<path fill="none" stroke="#63b8ff" d="M62.39,-58C59.89,-54.82 57.47,-51.41 55.5,-48 50.14,-38.74 46.16,-27.05 43.84,-19.21"/>
<polygon fill="#63b8ff" stroke="#63b8ff" points="59.81,-60.38 68.95,-65.75 65.16,-55.85 59.81,-60.38"/>
</g>
<!-- Node4 -->
<g id="node4" class="node">
<title>Node4</title>
<g id="a_node4"><a xlink:href="classAbstractPokitServicePrivate.html" target="_top" xlink:title="The AbstractPokitServicePrivate class provides private implementation for AbstractPokitService.">
<polygon fill="white" stroke="#666666" points="265.5,-19 113.5,-19 113.5,0 265.5,0 265.5,-19"/>
<text text-anchor="middle" x="189.5" y="-7" font-family="Helvetica,sans-Serif" font-size="10.00">AbstractPokitServicePrivate</text>
</a>
</g>
</g>
<!-- Node2&#45;&gt;Node4 -->
<g id="edge11" class="edge">
<title>Node2&#45;&gt;Node4</title>
<path fill="none" stroke="#9a32cd" stroke-dasharray="5,2" d="M74.18,-55.52C74.08,-49 75.28,-42.07 79.5,-37 86.1,-29.07 105.79,-23.19 126.72,-19.01"/>
<polygon fill="#9a32cd" stroke="#9a32cd" points="70.73,-56.13 75.26,-65.7 77.69,-55.39 70.73,-56.13"/>
<text text-anchor="middle" x="93.5" y="-40" font-family="Helvetica,sans-Serif" font-size="10.00"> q_ptr</text>
</g>
<!-- Node3 -->
<g id="node3" class="node">
<title>Node3</title>
<g id="a_node3"><a target="_parent" xlink:href="https://doc.qt.io/qt-5/qobject.html" xlink:title=" ">
<polygon fill="white" stroke="#bfbfbf" points="223.5,-141 167.5,-141 167.5,-122 223.5,-122 223.5,-141"/>
<text text-anchor="middle" x="195.5" y="-129" font-family="Helvetica,sans-Serif" font-size="10.00">QObject</text>
</a>
</g>
</g>
<!-- Node3&#45;&gt;Node2 -->
<g id="edge2" class="edge">
<title>Node3&#45;&gt;Node2</title>
<path fill="none" stroke="#63b8ff" d="M167.6,-117.73C145.53,-107.63 115.32,-93.81 96.11,-85.02"/>
<polygon fill="#63b8ff" stroke="#63b8ff" points="166.25,-120.96 176.8,-121.94 169.17,-114.6 166.25,-120.96"/>
</g>
<!-- Node3&#45;&gt;Node4 -->
<g id="edge4" class="edge">
<title>Node3&#45;&gt;Node4</title>
<path fill="none" stroke="#63b8ff" d="M190.46,-111.92C188.49,-103.73 186.47,-93.96 185.5,-85 182.93,-61.31 186.12,-33.19 188.12,-19.24"/>
<polygon fill="#63b8ff" stroke="#63b8ff" points="187.14,-113.05 193.02,-121.87 193.92,-111.31 187.14,-113.05"/>
</g>
<!-- Node5 -->
<g id="node5" class="node">
<title>Node5</title>
<g id="a_node5"><a target="_parent" xlink:href="https://doc.qt.io/qt-5/qlowenergycontroller.html" xlink:title=" ">
<polygon fill="white" stroke="#bfbfbf" points="320,-85 195,-85 195,-66 320,-66 320,-85"/>
<text text-anchor="middle" x="257.5" y="-73" font-family="Helvetica,sans-Serif" font-size="10.00">QLowEnergyController</text>
</a>
</g>
</g>
<!-- Node3&#45;&gt;Node5 -->
<g id="edge6" class="edge">
<title>Node3&#45;&gt;Node5</title>
<path fill="none" stroke="#63b8ff" d="M213.25,-115.04C224.31,-105.41 238.13,-93.37 247.36,-85.33"/>
<polygon fill="#63b8ff" stroke="#63b8ff" points="210.7,-112.62 205.46,-121.82 215.3,-117.9 210.7,-112.62"/>
</g>
<!-- Node6 -->
<g id="node6" class="node">
<title>Node6</title>
<g id="a_node6"><a target="_parent" xlink:href="https://doc.qt.io/qt-5/qlowenergyservice.html" xlink:title=" ">
<polygon fill="white" stroke="#bfbfbf" points="451,-85 338,-85 338,-66 451,-66 451,-85"/>
<text text-anchor="middle" x="394.5" y="-73" font-family="Helvetica,sans-Serif" font-size="10.00">QLowEnergyService</text>
</a>
</g>
</g>
<!-- Node3&#45;&gt;Node6 -->
<g id="edge8" class="edge">
<title>Node3&#45;&gt;Node6</title>
<path fill="none" stroke="#63b8ff" d="M233.64,-120.15C271.18,-109.96 327.85,-94.59 362.94,-85.06"/>
<polygon fill="#63b8ff" stroke="#63b8ff" points="232.32,-116.88 223.59,-122.88 234.16,-123.64 232.32,-116.88"/>
</g>
<!-- Node4&#45;&gt;Node2 -->
<g id="edge3" class="edge">
<title>Node4&#45;&gt;Node2</title>
<path fill="none" stroke="#9a32cd" stroke-dasharray="5,2" d="M155.79,-22.82C146.09,-26.86 135.66,-31.69 126.5,-37 111.86,-45.49 96.63,-57.79 87.11,-65.96"/>
<polygon fill="#9a32cd" stroke="#9a32cd" points="157.2,-26.03 165.18,-19.06 154.59,-19.53 157.2,-26.03"/>
<text text-anchor="middle" x="140.5" y="-40" font-family="Helvetica,sans-Serif" font-size="10.00"> d_ptr</text>
</g>
<!-- Node5&#45;&gt;Node4 -->
<g id="edge5" class="edge">
<title>Node5&#45;&gt;Node4</title>
<path fill="none" stroke="#9a32cd" stroke-dasharray="5,2" d="M240.85,-58.83C227.69,-46.44 209.78,-29.59 198.96,-19.41"/>
<polygon fill="#9a32cd" stroke="#9a32cd" points="238.65,-61.56 248.33,-65.87 243.45,-56.47 238.65,-61.56"/>
<text text-anchor="middle" x="253.5" y="-40" font-family="Helvetica,sans-Serif" font-size="10.00"> controller</text>
</g>
<!-- Node6&#45;&gt;Node4 -->
<g id="edge7" class="edge">
<title>Node6&#45;&gt;Node4</title>
<path fill="none" stroke="#9a32cd" stroke-dasharray="5,2" d="M360.52,-62.68C338.39,-55.08 308.83,-45.15 282.5,-37 262.13,-30.69 239.09,-24.12 221.03,-19.1"/>
<polygon fill="#9a32cd" stroke="#9a32cd" points="359.54,-66.04 370.13,-65.99 361.82,-59.42 359.54,-66.04"/>
<text text-anchor="middle" x="337" y="-40" font-family="Helvetica,sans-Serif" font-size="10.00"> service</text>
</g>
<!-- Node7 -->
<g id="node7" class="node">
<title>Node7</title>
<g id="a_node7"><a target="_parent" xlink:href="https://doc.qt.io/qt-5/qbluetoothuuid.html" xlink:title=" ">
<polygon fill="white" stroke="#bfbfbf" points="563.5,-85 469.5,-85 469.5,-66 563.5,-66 563.5,-85"/>
<text text-anchor="middle" x="516.5" y="-73" font-family="Helvetica,sans-Serif" font-size="10.00">QBluetoothUuid</text>
</a>
</g>
</g>
<!-- Node7&#45;&gt;Node4 -->
<g id="edge9" class="edge">
<title>Node7&#45;&gt;Node4</title>
<path fill="none" stroke="#9a32cd" stroke-dasharray="5,2" d="M474.71,-63.47C443.41,-55.44 399.46,-44.69 360.5,-37 324.98,-29.99 285.02,-23.71 252.66,-19.02"/>
<polygon fill="#9a32cd" stroke="#9a32cd" points="473.85,-66.86 484.4,-65.97 475.59,-60.08 473.85,-66.86"/>
<text text-anchor="middle" x="439" y="-40" font-family="Helvetica,sans-Serif" font-size="10.00"> serviceUuid</text>
</g>
<!-- Node8 -->
<g id="node8" class="node">
<title>Node8</title>
<g id="a_node8"><a target="_parent" xlink:href="https://doc.qt.io/qt-5/quuid.html" xlink:title=" ">
<polygon fill="white" stroke="#bfbfbf" points="540,-141 493,-141 493,-122 540,-122 540,-141"/>
<text text-anchor="middle" x="516.5" y="-129" font-family="Helvetica,sans-Serif" font-size="10.00">QUuid</text>
</a>
</g>
</g>
<!-- Node8&#45;&gt;Node7 -->
<g id="edge10" class="edge">
<title>Node8&#45;&gt;Node7</title>
<path fill="none" stroke="#63b8ff" d="M516.5,-111.3C516.5,-102.41 516.5,-92.28 516.5,-85.25"/>
<polygon fill="#63b8ff" stroke="#63b8ff" points="513,-111.58 516.5,-121.58 520,-111.58 513,-111.58"/>
</g>
</g>
</svg>
