<?xml version="1.0" encoding="UTF-8" standalone="no"?>
<!DOCTYPE svg PUBLIC "-//W3C//DTD SVG 1.1//EN"
 "http://www.w3.org/Graphics/SVG/1.1/DTD/svg11.dtd">
<!-- Generated by graphviz version 2.43.0 (0)
 -->
<!-- Title: DeviceCommand::serviceDetailsDiscovered Pages: 1 -->
<svg width="568pt" height="186pt"
 viewBox="0.00 0.00 568.00 186.00" xmlns="http://www.w3.org/2000/svg" xmlns:xlink="http://www.w3.org/1999/xlink">
<g id="graph0" class="graph" transform="scale(1 1) rotate(0) translate(4 182)">
<title>DeviceCommand::serviceDetailsDiscovered</title>
<!-- Node1 -->
<g id="node1" class="node">
<title>Node1</title>
<g id="a_node1"><a xlink:title="Handles service detail discovery events.">
<polygon fill="#bfbfbf" stroke="black" points="384,-73.5 384,-103.5 560,-103.5 560,-73.5 384,-73.5"/>
<text text-anchor="start" x="392" y="-91.5" font-family="Helvetica,sans-Serif" font-size="10.00">DeviceCommand::serviceDetails</text>
<text text-anchor="middle" x="472" y="-80.5" font-family="Helvetica,sans-Serif" font-size="10.00">Discovered</text>
</a>
</g>
</g>
<!-- Node2 -->
<g id="node2" class="node">
<title>Node2</title>
<g id="a_node2"><a xlink:href="classCalibrationCommand.html#a34c5b94d0b2c54f3ff81e3abd8e13516" target="_top" xlink:title="Handles service detail discovery events.">
<polygon fill="none" stroke="black" points="188,-147.5 188,-177.5 335,-177.5 335,-147.5 188,-147.5"/>
<text text-anchor="start" x="196" y="-165.5" font-family="Helvetica,sans-Serif" font-size="10.00">CalibrationCommand</text>
<text text-anchor="middle" x="261.5" y="-154.5" font-family="Helvetica,sans-Serif" font-size="10.00">::serviceDetailsDiscovered</text>
</a>
</g>
</g>
<!-- Node1&#45;&gt;Node2 -->
<g id="edge1" class="edge">
<title>Node1&#45;&gt;Node2</title>
<path fill="none" stroke="midnightblue" d="M427.65,-107.52C404.29,-117.41 374.83,-129.31 348,-138.5 338.96,-141.6 329.28,-144.6 319.8,-147.38"/>
<polygon fill="midnightblue" stroke="midnightblue" points="429.1,-110.7 436.93,-103.56 426.36,-104.26 429.1,-110.7"/>
</g>
<!-- Node4 -->
<g id="node4" class="node">
<title>Node4</title>
<g id="a_node4"><a xlink:href="classFlashLedCommand.html#af1d7d155b35b4a3d6301b2653c0d7eb7" target="_top" xlink:title="Handles service detail discovery events.">
<polygon fill="none" stroke="black" points="185.5,-98.5 185.5,-128.5 337.5,-128.5 337.5,-98.5 185.5,-98.5"/>
<text text-anchor="start" x="193.5" y="-116.5" font-family="Helvetica,sans-Serif" font-size="10.00">FlashLedCommand::service</text>
<text text-anchor="middle" x="261.5" y="-105.5" font-family="Helvetica,sans-Serif" font-size="10.00">DetailsDiscovered</text>
</a>
</g>
</g>
<!-- Node1&#45;&gt;Node4 -->
<g id="edge3" class="edge">
<title>Node1&#45;&gt;Node4</title>
<path fill="none" stroke="midnightblue" d="M373.69,-100.17C361.63,-101.61 349.44,-103.08 337.78,-104.47"/>
<polygon fill="midnightblue" stroke="midnightblue" points="374.27,-103.62 383.79,-98.96 373.44,-96.67 374.27,-103.62"/>
</g>
<!-- Node6 -->
<g id="node6" class="node">
<title>Node6</title>
<g id="a_node6"><a xlink:href="classInfoCommand.html#a06d095d57662fd10b201d6273085c34e" target="_top" xlink:title="Handles service detail discovery events.">
<polygon fill="none" stroke="black" points="181,-49.5 181,-79.5 342,-79.5 342,-49.5 181,-49.5"/>
<text text-anchor="start" x="189" y="-67.5" font-family="Helvetica,sans-Serif" font-size="10.00">InfoCommand::serviceDetails</text>
<text text-anchor="middle" x="261.5" y="-56.5" font-family="Helvetica,sans-Serif" font-size="10.00">Discovered</text>
</a>
</g>
</g>
<!-- Node1&#45;&gt;Node6 -->
<g id="edge5" class="edge">
<title>Node1&#45;&gt;Node6</title>
<path fill="none" stroke="midnightblue" d="M373.67,-77.3C363.08,-76.08 352.39,-74.85 342.05,-73.66"/>
<polygon fill="midnightblue" stroke="midnightblue" points="373.45,-80.79 383.79,-78.46 374.25,-73.84 373.45,-80.79"/>
</g>
<!-- Node8 -->
<g id="node8" class="node">
<title>Node8</title>
<g id="a_node8"><a xlink:href="classStatusCommand.html#af275e3a02032915dd27e0c0e041ff6c1" target="_top" xlink:title="Handles service detail discovery events.">
<polygon fill="none" stroke="black" points="175,-0.5 175,-30.5 348,-30.5 348,-0.5 175,-0.5"/>
<text text-anchor="start" x="183" y="-18.5" font-family="Helvetica,sans-Serif" font-size="10.00">StatusCommand::serviceDetails</text>
<text text-anchor="middle" x="261.5" y="-7.5" font-family="Helvetica,sans-Serif" font-size="10.00">Discovered</text>
</a>
</g>
</g>
<!-- Node1&#45;&gt;Node8 -->
<g id="edge7" class="edge">
<title>Node1&#45;&gt;Node8</title>
<path fill="none" stroke="midnightblue" d="M425.46,-69.63C402.42,-60.37 373.92,-49.33 348,-40.5 337.9,-37.06 327.03,-33.66 316.54,-30.52"/>
<polygon fill="midnightblue" stroke="midnightblue" points="424.4,-72.97 434.98,-73.48 427.02,-66.49 424.4,-72.97"/>
</g>
<!-- Node3 -->
<g id="node3" class="node">
<title>Node3</title>
<g id="a_node3"><a xlink:href="classCalibrationCommand.html#a8ed2c02c4d45141b420fda5c0cd2414c" target="_top" xlink:title="Begins scanning for Pokit devices.">
<polygon fill="none" stroke="black" points="9.5,-147.5 9.5,-177.5 129.5,-177.5 129.5,-147.5 9.5,-147.5"/>
<text text-anchor="start" x="17.5" y="-165.5" font-family="Helvetica,sans-Serif" font-size="10.00">CalibrationCommand</text>
<text text-anchor="middle" x="69.5" y="-154.5" font-family="Helvetica,sans-Serif" font-size="10.00">::start</text>
</a>
</g>
</g>
<!-- Node2&#45;&gt;Node3 -->
<g id="edge2" class="edge">
<title>Node2&#45;&gt;Node3</title>
<path fill="none" stroke="midnightblue" d="M177.82,-162.5C161.57,-162.5 144.83,-162.5 129.55,-162.5"/>
<polygon fill="midnightblue" stroke="midnightblue" points="177.86,-166 187.86,-162.5 177.86,-159 177.86,-166"/>
</g>
<!-- Node5 -->
<g id="node5" class="node">
<title>Node5</title>
<g id="a_node5"><a xlink:href="classFlashLedCommand.html#a9404a910d1324e1e2f88e29855d5d95c" target="_top" xlink:title="Begins scanning for Pokit devices.">
<polygon fill="none" stroke="black" points="0,-104 0,-123 139,-123 139,-104 0,-104"/>
<text text-anchor="middle" x="69.5" y="-111" font-family="Helvetica,sans-Serif" font-size="10.00">FlashLedCommand::start</text>
</a>
</g>
</g>
<!-- Node4&#45;&gt;Node5 -->
<g id="edge4" class="edge">
<title>Node4&#45;&gt;Node5</title>
<path fill="none" stroke="midnightblue" d="M175.32,-113.5C163.22,-113.5 150.91,-113.5 139.18,-113.5"/>
<polygon fill="midnightblue" stroke="midnightblue" points="175.41,-117 185.41,-113.5 175.41,-110 175.41,-117"/>
</g>
<!-- Node7 -->
<g id="node7" class="node">
<title>Node7</title>
<g id="a_node7"><a xlink:href="classInfoCommand.html#a8f12a62e56958971c0f3655e1338decb" target="_top" xlink:title="Begins scanning for Pokit devices.">
<polygon fill="none" stroke="black" points="12.5,-55 12.5,-74 126.5,-74 126.5,-55 12.5,-55"/>
<text text-anchor="middle" x="69.5" y="-62" font-family="Helvetica,sans-Serif" font-size="10.00">InfoCommand::start</text>
</a>
</g>
</g>
<!-- Node6&#45;&gt;Node7 -->
<g id="edge6" class="edge">
<title>Node6&#45;&gt;Node7</title>
<path fill="none" stroke="midnightblue" d="M170.46,-64.5C155.54,-64.5 140.45,-64.5 126.68,-64.5"/>
<polygon fill="midnightblue" stroke="midnightblue" points="170.75,-68 180.75,-64.5 170.75,-61 170.75,-68"/>
</g>
<!-- Node9 -->
<g id="node9" class="node">
<title>Node9</title>
<g id="a_node9"><a xlink:href="classStatusCommand.html#a132a16e82442ad44cc7340075e726f97" target="_top" xlink:title="Begins scanning for Pokit devices.">
<polygon fill="none" stroke="black" points="6.5,-6 6.5,-25 132.5,-25 132.5,-6 6.5,-6"/>
<text text-anchor="middle" x="69.5" y="-13" font-family="Helvetica,sans-Serif" font-size="10.00">StatusCommand::start</text>
</a>
</g>
</g>
<!-- Node8&#45;&gt;Node9 -->
<g id="edge8" class="edge">
<title>Node8&#45;&gt;Node9</title>
<path fill="none" stroke="midnightblue" d="M164.88,-15.5C153.89,-15.5 142.92,-15.5 132.55,-15.5"/>
<polygon fill="midnightblue" stroke="midnightblue" points="164.95,-19 174.95,-15.5 164.95,-12 164.95,-19"/>
</g>
</g>
</svg>
