<?xml version="1.0" encoding="UTF-8" standalone="no"?>
<!DOCTYPE svg PUBLIC "-//W3C//DTD SVG 1.1//EN"
 "http://www.w3.org/Graphics/SVG/1.1/DTD/svg11.dtd">
<!-- Generated by graphviz version 2.43.0 (0)
 -->
<!-- Title: LoggerFetchCommand::serviceDetailsDiscovered Pages: 1 -->
<svg width="472pt" height="60pt"
 viewBox="0.00 0.00 472.00 60.00" xmlns="http://www.w3.org/2000/svg" xmlns:xlink="http://www.w3.org/1999/xlink">
<g id="graph0" class="graph" transform="scale(1 1) rotate(0) translate(4 56)">
<title>LoggerFetchCommand::serviceDetailsDiscovered</title>
<!-- Node1 -->
<g id="Node000001" class="node">
<title>Node1</title>
<g id="a_Node000001"><a xlink:title="Handles service detail discovery events.">
<polygon fill="#999999" stroke="#666666" points="147,-30 0,-30 0,0 147,0 147,-30"/>
<text text-anchor="start" x="8" y="-18" font-family="Helvetica,sans-Serif" font-size="10.00">LoggerFetchCommand</text>
<text text-anchor="middle" x="73.5" y="-7" font-family="Helvetica,sans-Serif" font-size="10.00">::serviceDetailsDiscovered</text>
</a>
</g>
</g>
<!-- Node2 -->
<g id="Node000002" class="node">
<title>Node2</title>
<g id="a_Node000002"><a xlink:href="classDeviceCommand.html#a906fd97d832be0e8d2ba1c917fba41db" target="_top" xlink:title="Handles service detail discovery events.">
<polygon fill="white" stroke="#666666" points="359,-52 183,-52 183,-22 359,-22 359,-52"/>
<text text-anchor="start" x="191" y="-40" font-family="Helvetica,sans-Serif" font-size="10.00">DeviceCommand::serviceDetails</text>
<text text-anchor="middle" x="271" y="-29" font-family="Helvetica,sans-Serif" font-size="10.00">Discovered</text>
</a>
</g>
</g>
<!-- Node1&#45;&gt;Node2 -->
<g id="edge1_Node000001_Node000002" class="edge">
<title>Node1&#45;&gt;Node2</title>
<g id="a_edge1_Node000001_Node000002"><a xlink:title=" ">
<path fill="none" stroke="#63b8ff" d="M147.02,-23.16C156.01,-24.17 165.31,-25.22 174.58,-26.26"/>
<polygon fill="#63b8ff" stroke="#63b8ff" points="182.71,-27.18 174.36,-29.86 178.74,-26.73 174.76,-26.28 174.76,-26.28 174.76,-26.28 178.74,-26.73 175.17,-22.71 182.71,-27.18 182.71,-27.18"/>
</a>
</g>
</g>
<!-- Node3 -->
<g id="Node000003" class="node">
<title>Node3</title>
<g id="a_Node000003"><a target="_parent" xlink:href="https://doc.qt.io/qt-5/qobject.html#tr" xlink:title=" ">
<polygon fill="white" stroke="#666666" points="464,-24.5 395,-24.5 395,-5.5 464,-5.5 464,-24.5"/>
<text text-anchor="middle" x="429.5" y="-12.5" font-family="Helvetica,sans-Serif" font-size="10.00">QObject::tr</text>
</a>
</g>
</g>
<!-- Node1&#45;&gt;Node3 -->
<g id="edge3_Node000001_Node000003" class="edge">
<title>Node1&#45;&gt;Node3</title>
<g id="a_edge3_Node000001_Node000003"><a xlink:title=" ">
<path fill="none" stroke="#63b8ff" d="M147.16,-13.48C159.13,-13.28 171.41,-13.11 183,-13 261.22,-12.28 280.79,-11.87 359,-13 367.96,-13.13 377.58,-13.35 386.71,-13.6"/>
<polygon fill="#63b8ff" stroke="#63b8ff" points="394.92,-13.84 386.82,-17.21 390.92,-13.72 386.93,-13.61 386.93,-13.61 386.93,-13.61 390.92,-13.72 387.03,-10.01 394.92,-13.84 394.92,-13.84"/>
</a>
</g>
</g>
<!-- Node2&#45;&gt;Node3 -->
<g id="edge2_Node000002_Node000003" class="edge">
<title>Node2&#45;&gt;Node3</title>
<g id="a_edge2_Node000002_Node000003"><a xlink:title=" ">
<path fill="none" stroke="#63b8ff" d="M359.4,-24.71C368.95,-23.37 378.32,-22.05 386.92,-20.85"/>
<polygon fill="#63b8ff" stroke="#63b8ff" points="394.91,-19.72 387.49,-24.4 390.95,-20.28 386.99,-20.83 386.99,-20.83 386.99,-20.83 390.95,-20.28 386.49,-17.27 394.91,-19.72 394.91,-19.72"/>
</a>
</g>
</g>
</g>
</svg>
