<?xml version="1.0" encoding="UTF-8" standalone="no"?>
<!DOCTYPE svg PUBLIC "-//W3C//DTD SVG 1.1//EN"
 "http://www.w3.org/Graphics/SVG/1.1/DTD/svg11.dtd">
<!-- Generated by graphviz version 2.43.0 (0)
 -->
<!-- Title: CalibrateCommand::temperatureCalibrated Pages: 1 -->
<svg width="551pt" height="113pt"
 viewBox="0.00 0.00 551.00 113.00" xmlns="http://www.w3.org/2000/svg" xmlns:xlink="http://www.w3.org/1999/xlink">
<g id="graph0" class="graph" transform="scale(1 1) rotate(0) translate(4 109)">
<title>CalibrateCommand::temperatureCalibrated</title>
<!-- Node1 -->
<g id="node1" class="node">
<title>Node1</title>
<g id="a_node1"><a xlink:title="Handles CalibrationService::temperatureCalibrated events, by outputting the result and exiting.">
<polygon fill="#999999" stroke="#666666" points="178,-45.5 0,-45.5 0,-15.5 178,-15.5 178,-45.5"/>
<text text-anchor="start" x="8" y="-33.5" font-family="Helvetica,sans-Serif" font-size="10.00">CalibrateCommand::temperature</text>
<text text-anchor="middle" x="89" y="-22.5" font-family="Helvetica,sans-Serif" font-size="10.00">Calibrated</text>
</a>
</g>
</g>
<!-- Node2 -->
<g id="node2" class="node">
<title>Node2</title>
<g id="a_node2"><a xlink:href="classDeviceCommand.html#ae619166395b5651f1316fd5336d9fa2c" target="_top" xlink:title="Disconnects the underlying Pokit device, and sets exitCode to be return to the OS once the disconnect...">
<polygon fill="white" stroke="#666666" points="373,-60 214,-60 214,-41 373,-41 373,-60"/>
<text text-anchor="middle" x="293.5" y="-48" font-family="Helvetica,sans-Serif" font-size="10.00">DeviceCommand::disconnect</text>
</a>
</g>
</g>
<!-- Node1&#45;&gt;Node2 -->
<g id="edge1" class="edge">
<title>Node1&#45;&gt;Node2</title>
<path fill="none" stroke="#63b8ff" d="M178.23,-39.21C187.38,-40.12 196.67,-41.04 205.81,-41.94"/>
<polygon fill="#63b8ff" stroke="#63b8ff" points="213.78,-42.73 205.47,-45.52 209.8,-42.33 205.82,-41.94 205.82,-41.94 205.82,-41.94 209.8,-42.33 206.18,-38.36 213.78,-42.73 213.78,-42.73"/>
</g>
<!-- Node5 -->
<g id="node5" class="node">
<title>Node5</title>
<g id="a_node5"><a target="_parent" xlink:href="https://doc.qt.io/qt-5/qobject.html#tr" xlink:title=" ">
<polygon fill="white" stroke="#666666" points="510.5,-19 441.5,-19 441.5,0 510.5,0 510.5,-19"/>
<text text-anchor="middle" x="476" y="-7" font-family="Helvetica,sans-Serif" font-size="10.00">QObject::tr</text>
</a>
</g>
</g>
<!-- Node1&#45;&gt;Node5 -->
<g id="edge5" class="edge">
<title>Node1&#45;&gt;Node5</title>
<path fill="none" stroke="#63b8ff" d="M178.33,-25.68C258.26,-21.32 372.49,-15.09 433.25,-11.78"/>
<polygon fill="#63b8ff" stroke="#63b8ff" points="441.46,-11.33 433.66,-15.36 437.46,-11.55 433.47,-11.77 433.47,-11.77 433.47,-11.77 437.46,-11.55 433.27,-8.17 441.46,-11.33 441.46,-11.33"/>
</g>
<!-- Node3 -->
<g id="node3" class="node">
<title>Node3</title>
<g id="a_node3"><a xlink:href="classPokitDevice.html#a2e2fb6b30e6f5f0d7bc6cd8f806d6423" target="_top" xlink:title="Returns a non&#45;const pointer to the controller used to access the Pokit device.">
<polygon fill="white" stroke="#666666" points="540,-105 412,-105 412,-86 540,-86 540,-105"/>
<text text-anchor="middle" x="476" y="-93" font-family="Helvetica,sans-Serif" font-size="10.00">PokitDevice::controller</text>
</a>
</g>
</g>
<!-- Node2&#45;&gt;Node3 -->
<g id="edge2" class="edge">
<title>Node2&#45;&gt;Node3</title>
<path fill="none" stroke="#63b8ff" d="M332.78,-60.04C360.9,-67.05 399.23,-76.61 429.01,-84.03"/>
<polygon fill="#63b8ff" stroke="#63b8ff" points="436.78,-85.97 428.14,-87.53 432.89,-85 429.01,-84.04 429.01,-84.04 429.01,-84.04 432.89,-85 429.88,-80.54 436.78,-85.97 436.78,-85.97"/>
</g>
<!-- Node4 -->
<g id="node4" class="node">
<title>Node4</title>
<g id="a_node4"><a target="_parent" xlink:href="https://doc.qt.io/qt-5/qlowenergycontroller.html#disconnectFromDevice" xlink:title=" ">
<polygon fill="white" stroke="#666666" points="543,-67.5 409,-67.5 409,-37.5 543,-37.5 543,-67.5"/>
<text text-anchor="start" x="417" y="-55.5" font-family="Helvetica,sans-Serif" font-size="10.00">QLowEnergyController</text>
<text text-anchor="middle" x="476" y="-44.5" font-family="Helvetica,sans-Serif" font-size="10.00">::disconnectFromDevice</text>
</a>
</g>
</g>
<!-- Node2&#45;&gt;Node4 -->
<g id="edge3" class="edge">
<title>Node2&#45;&gt;Node4</title>
<path fill="none" stroke="#63b8ff" d="M373.14,-51.37C382.24,-51.47 391.49,-51.57 400.52,-51.67"/>
<polygon fill="#63b8ff" stroke="#63b8ff" points="408.75,-51.77 400.71,-55.28 404.75,-51.72 400.75,-51.68 400.75,-51.68 400.75,-51.68 404.75,-51.72 400.79,-48.08 408.75,-51.77 408.75,-51.77"/>
</g>
<!-- Node2&#45;&gt;Node5 -->
<g id="edge4" class="edge">
<title>Node2&#45;&gt;Node5</title>
<path fill="none" stroke="#63b8ff" d="M336.36,-40.99C365.59,-34.35 404.42,-25.53 433.56,-18.91"/>
<polygon fill="#63b8ff" stroke="#63b8ff" points="441.5,-17.11 434.49,-22.39 437.6,-18 433.7,-18.88 433.7,-18.88 433.7,-18.88 437.6,-18 432.9,-15.37 441.5,-17.11 441.5,-17.11"/>
</g>
</g>
</svg>
