<?xml version="1.0" encoding="UTF-8" standalone="no"?>
<!DOCTYPE svg PUBLIC "-//W3C//DTD SVG 1.1//EN"
 "http://www.w3.org/Graphics/SVG/1.1/DTD/svg11.dtd">
<!-- Generated by graphviz version 2.43.0 (0)
 -->
<!-- Title: GenericAccessService::readCharacteristics Pages: 1 -->
<svg width="343pt" height="86pt"
 viewBox="0.00 0.00 343.00 86.00" xmlns="http://www.w3.org/2000/svg" xmlns:xlink="http://www.w3.org/1999/xlink">
<g id="graph0" class="graph" transform="scale(1 1) rotate(0) translate(4 82)">
<title>GenericAccessService::readCharacteristics</title>
<!-- Node1 -->
<g id="node1" class="node">
<title>Node1</title>
<g id="a_node1"><a xlink:title="Read all characteristics.">
<polygon fill="#999999" stroke="#666666" points="124,-54 0,-54 0,-24 124,-24 124,-54"/>
<text text-anchor="start" x="8" y="-42" font-family="Helvetica,sans-Serif" font-size="10.00">GenericAccessService</text>
<text text-anchor="middle" x="62" y="-31" font-family="Helvetica,sans-Serif" font-size="10.00">::readCharacteristics</text>
</a>
</g>
</g>
<!-- Node2 -->
<g id="node2" class="node">
<title>Node2</title>
<g id="a_node2"><a xlink:href="classGenericAccessService.html#a74542246a9a578267700eb810ff116c1" target="_top" xlink:title="Read the Generic Access service&#39;s Appearance characteristic.">
<polygon fill="white" stroke="#666666" points="332.5,-78 162.5,-78 162.5,-48 332.5,-48 332.5,-78"/>
<text text-anchor="start" x="170.5" y="-66" font-family="Helvetica,sans-Serif" font-size="10.00">GenericAccessService</text>
<text text-anchor="middle" x="247.5" y="-55" font-family="Helvetica,sans-Serif" font-size="10.00">::readAppearanceCharacteristic</text>
</a>
</g>
</g>
<!-- Node1&#45;&gt;Node2 -->
<g id="edge1" class="edge">
<title>Node1&#45;&gt;Node2</title>
<path fill="none" stroke="#63b8ff" d="M124.1,-46.99C133.23,-48.19 142.82,-49.44 152.44,-50.7"/>
<polygon fill="#63b8ff" stroke="#63b8ff" points="152.1,-54.18 162.47,-52.01 153,-47.24 152.1,-54.18"/>
</g>
<!-- Node3 -->
<g id="node3" class="node">
<title>Node3</title>
<g id="a_node3"><a xlink:href="classGenericAccessService.html#a21e6e924fcdf403e4d3081a52ba5ced7" target="_top" xlink:title="Read the Generic Access service&#39;s Device Name characteristic.">
<polygon fill="white" stroke="#666666" points="335,-30 160,-30 160,0 335,0 335,-30"/>
<text text-anchor="start" x="168" y="-18" font-family="Helvetica,sans-Serif" font-size="10.00">GenericAccessService</text>
<text text-anchor="middle" x="247.5" y="-7" font-family="Helvetica,sans-Serif" font-size="10.00">::readDeviceNameCharacteristic</text>
</a>
</g>
</g>
<!-- Node1&#45;&gt;Node3 -->
<g id="edge2" class="edge">
<title>Node1&#45;&gt;Node3</title>
<path fill="none" stroke="#63b8ff" d="M124.1,-31.01C132.35,-29.93 140.96,-28.8 149.64,-27.67"/>
<polygon fill="#63b8ff" stroke="#63b8ff" points="150.37,-31.1 159.83,-26.34 149.46,-24.16 150.37,-31.1"/>
</g>
</g>
</svg>
