<?xml version="1.0" encoding="UTF-8" standalone="no"?>
<!DOCTYPE svg PUBLIC "-//W3C//DTD SVG 1.1//EN"
 "http://www.w3.org/Graphics/SVG/1.1/DTD/svg11.dtd">
<!-- Generated by graphviz version 2.43.0 (0)
 -->
<!-- Title: ScanCommand::processOptions Pages: 1 -->
<svg width="801pt" height="564pt"
 viewBox="0.00 0.00 801.00 563.50" xmlns="http://www.w3.org/2000/svg" xmlns:xlink="http://www.w3.org/1999/xlink">
<g id="graph0" class="graph" transform="scale(1 1) rotate(0) translate(4 559.5)">
<title>ScanCommand::processOptions</title>
<!-- Node1 -->
<g id="node1" class="node">
<title>Node1</title>
<g id="a_node1"><a xlink:title="Processes the relevant options from the command line parser.">
<polygon fill="#bfbfbf" stroke="black" points="0,-291 0,-310 171,-310 171,-291 0,-291"/>
<text text-anchor="middle" x="85.5" y="-298" font-family="Helvetica,sans-Serif" font-size="10.00">ScanCommand::processOptions</text>
</a>
</g>
</g>
<!-- Node2 -->
<g id="node2" class="node">
<title>Node2</title>
<g id="a_node2"><a target="_parent" xlink:href="https://doc.qt.io/qt-5/qlist.html#isEmpty" xlink:title=" ">
<polygon fill="none" stroke="black" points="239,-313 239,-332 326,-332 326,-313 239,-313"/>
<text text-anchor="middle" x="282.5" y="-320" font-family="Helvetica,sans-Serif" font-size="10.00">QList::isEmpty</text>
</a>
</g>
</g>
<!-- Node1&#45;&gt;Node2 -->
<g id="edge1" class="edge">
<title>Node1&#45;&gt;Node2</title>
<path fill="none" stroke="midnightblue" d="M170.9,-310.02C190.51,-312.23 210.85,-314.53 228.66,-316.54"/>
<polygon fill="midnightblue" stroke="midnightblue" points="228.49,-320.04 238.82,-317.69 229.28,-313.09 228.49,-320.04"/>
</g>
<!-- Node3 -->
<g id="node3" class="node">
<title>Node3</title>
<g id="a_node3"><a xlink:href="classAbstractCommand.html#ad827a18a24776efeb955739459d48f7d" target="_top" xlink:title="Processes the relevant options from the command line parser.">
<polygon fill="none" stroke="black" points="207,-263.5 207,-293.5 358,-293.5 358,-263.5 207,-263.5"/>
<text text-anchor="start" x="215" y="-281.5" font-family="Helvetica,sans-Serif" font-size="10.00">AbstractCommand::process</text>
<text text-anchor="middle" x="282.5" y="-270.5" font-family="Helvetica,sans-Serif" font-size="10.00">Options</text>
</a>
</g>
</g>
<!-- Node1&#45;&gt;Node3 -->
<g id="edge2" class="edge">
<title>Node1&#45;&gt;Node3</title>
<path fill="none" stroke="midnightblue" d="M170.9,-290.98C179.48,-290.01 188.2,-289.03 196.78,-288.06"/>
<polygon fill="midnightblue" stroke="midnightblue" points="197.24,-291.53 206.78,-286.93 196.45,-284.57 197.24,-291.53"/>
</g>
<!-- Node4 -->
<g id="node4" class="node">
<title>Node4</title>
<g id="a_node4"><a target="_parent" xlink:href="https://doc.qt.io/qt-5/qlist.html#append" xlink:title=" ">
<polygon fill="none" stroke="black" points="457,-536 457,-555 540,-555 540,-536 457,-536"/>
<text text-anchor="middle" x="498.5" y="-543" font-family="Helvetica,sans-Serif" font-size="10.00">QList::append</text>
</a>
</g>
</g>
<!-- Node3&#45;&gt;Node4 -->
<g id="edge3" class="edge">
<title>Node3&#45;&gt;Node4</title>
<path fill="none" stroke="midnightblue" d="M346.61,-293.63C350.86,-296.39 354.73,-299.65 358,-303.5 422.95,-380.06 323.78,-454.75 394,-526.5 407.65,-540.44 427.92,-546.06 446.92,-547.87"/>
<polygon fill="midnightblue" stroke="midnightblue" points="446.79,-551.37 456.99,-548.5 447.23,-544.38 446.79,-551.37"/>
</g>
<!-- Node5 -->
<g id="node5" class="node">
<title>Node5</title>
<g id="a_node5"><a target="_parent" xlink:href="https://doc.qt.io/qt-5/qstring.html#arg-11" xlink:title=" ">
<polygon fill="none" stroke="black" points="461.5,-498 461.5,-517 535.5,-517 535.5,-498 461.5,-498"/>
<text text-anchor="middle" x="498.5" y="-505" font-family="Helvetica,sans-Serif" font-size="10.00">QString::arg</text>
</a>
</g>
</g>
<!-- Node3&#45;&gt;Node5 -->
<g id="edge4" class="edge">
<title>Node3&#45;&gt;Node5</title>
<path fill="none" stroke="midnightblue" d="M346.13,-293.53C350.54,-296.31 354.58,-299.6 358,-303.5 413.21,-366.5 334.46,-429.59 394,-488.5 408.82,-503.16 430.99,-508.53 451.02,-509.97"/>
<polygon fill="midnightblue" stroke="midnightblue" points="451.11,-513.48 461.24,-510.4 451.4,-506.49 451.11,-513.48"/>
</g>
<!-- Node6 -->
<g id="node6" class="node">
<title>Node6</title>
<g id="a_node6"><a target="_parent" xlink:href="https://doc.qt.io/qt-5/qstringlist.html#contains" xlink:title=" ">
<polygon fill="none" stroke="black" points="440,-460 440,-479 557,-479 557,-460 440,-460"/>
<text text-anchor="middle" x="498.5" y="-467" font-family="Helvetica,sans-Serif" font-size="10.00">QStringList::contains</text>
</a>
</g>
</g>
<!-- Node3&#45;&gt;Node6 -->
<g id="edge5" class="edge">
<title>Node3&#45;&gt;Node6</title>
<path fill="none" stroke="midnightblue" d="M345.93,-293.71C350.38,-296.45 354.49,-299.68 358,-303.5 403.53,-353.01 345.06,-404.35 394,-450.5 403.8,-459.74 416.53,-465.23 429.7,-468.37"/>
<polygon fill="midnightblue" stroke="midnightblue" points="429.33,-471.87 439.82,-470.34 430.67,-464.99 429.33,-471.87"/>
</g>
<!-- Node7 -->
<g id="node7" class="node">
<title>Node7</title>
<g id="a_node7"><a target="_parent" xlink:href="https://doc.qt.io/qt-5/qcommandlineparser.html#isSet" xlink:title=" ">
<polygon fill="none" stroke="black" points="436,-410.5 436,-440.5 561,-440.5 561,-410.5 436,-410.5"/>
<text text-anchor="start" x="444" y="-428.5" font-family="Helvetica,sans-Serif" font-size="10.00">QCommandLineParser</text>
<text text-anchor="middle" x="498.5" y="-417.5" font-family="Helvetica,sans-Serif" font-size="10.00">::isSet</text>
</a>
</g>
</g>
<!-- Node3&#45;&gt;Node7 -->
<g id="edge6" class="edge">
<title>Node3&#45;&gt;Node7</title>
<path fill="none" stroke="midnightblue" d="M344.39,-293.53C349.35,-296.31 353.99,-299.6 358,-303.5 391.27,-335.84 359.22,-370.79 394,-401.5 403.07,-409.51 414.3,-414.99 425.97,-418.71"/>
<polygon fill="midnightblue" stroke="midnightblue" points="425.28,-422.15 435.85,-421.44 427.14,-415.41 425.28,-422.15"/>
</g>
<!-- Node8 -->
<g id="node8" class="node">
<title>Node8</title>
<g id="a_node8"><a target="_parent" xlink:href="https://doc.qt.io/qt-5/qbluetoothdevicediscoveryagent.html#lowEnergyDiscoveryTimeout" xlink:title=" ">
<polygon fill="none" stroke="black" points="403,-361.5 403,-391.5 594,-391.5 594,-361.5 403,-361.5"/>
<text text-anchor="start" x="411" y="-379.5" font-family="Helvetica,sans-Serif" font-size="10.00">QBluetoothDeviceDiscovery</text>
<text text-anchor="middle" x="498.5" y="-368.5" font-family="Helvetica,sans-Serif" font-size="10.00">Agent::lowEnergyDiscoveryTimeout</text>
</a>
</g>
</g>
<!-- Node3&#45;&gt;Node8 -->
<g id="edge7" class="edge">
<title>Node3&#45;&gt;Node8</title>
<path fill="none" stroke="midnightblue" d="M340.65,-293.55C346.79,-296.35 352.71,-299.64 358,-303.5 379.83,-319.43 371.43,-337.63 394,-352.5 396.45,-354.12 399.01,-355.63 401.63,-357.03"/>
<polygon fill="midnightblue" stroke="midnightblue" points="400.28,-360.27 410.81,-361.44 403.31,-353.96 400.28,-360.27"/>
</g>
<!-- Node9 -->
<g id="node9" class="node">
<title>Node9</title>
<g id="a_node9"><a target="_parent" xlink:href="https://doc.qt.io/qt-5/qcommandlineparser.html#optionNames" xlink:title=" ">
<polygon fill="none" stroke="black" points="436,-312.5 436,-342.5 561,-342.5 561,-312.5 436,-312.5"/>
<text text-anchor="start" x="444" y="-330.5" font-family="Helvetica,sans-Serif" font-size="10.00">QCommandLineParser</text>
<text text-anchor="middle" x="498.5" y="-319.5" font-family="Helvetica,sans-Serif" font-size="10.00">::optionNames</text>
</a>
</g>
</g>
<!-- Node3&#45;&gt;Node9 -->
<g id="edge8" class="edge">
<title>Node3&#45;&gt;Node9</title>
<path fill="none" stroke="midnightblue" d="M349.16,-293.53C373.46,-299.1 401.12,-305.43 425.91,-311.11"/>
<polygon fill="midnightblue" stroke="midnightblue" points="425.45,-314.59 435.98,-313.41 427.02,-307.77 425.45,-314.59"/>
</g>
<!-- Node10 -->
<g id="node10" class="node">
<title>Node10</title>
<g id="a_node10"><a xlink:href="classAbstractCommand.html#ab18bb57fe68534739f63c994330a29c2" target="_top" xlink:title="Returns value as a number of millis, such as milliseconds, or millivolts.">
<polygon fill="none" stroke="black" points="418,-263.5 418,-293.5 579,-293.5 579,-263.5 418,-263.5"/>
<text text-anchor="start" x="426" y="-281.5" font-family="Helvetica,sans-Serif" font-size="10.00">AbstractCommand::parseMilli</text>
<text text-anchor="middle" x="498.5" y="-270.5" font-family="Helvetica,sans-Serif" font-size="10.00">Value</text>
</a>
</g>
</g>
<!-- Node3&#45;&gt;Node10 -->
<g id="edge9" class="edge">
<title>Node3&#45;&gt;Node10</title>
<path fill="none" stroke="midnightblue" d="M358.05,-278.5C374.03,-278.5 391.08,-278.5 407.57,-278.5"/>
<polygon fill="midnightblue" stroke="midnightblue" points="407.76,-282 417.76,-278.5 407.76,-275 407.76,-282"/>
</g>
<!-- Node17 -->
<g id="node17" class="node">
<title>Node17</title>
<g id="a_node17"><a xlink:href="classAbstractCommand.html#aec006493cf0a4ba88c092c597bf247b8" target="_top" xlink:title="Returns a list of CLI option names required by this command.">
<polygon fill="none" stroke="black" points="639,-134.5 639,-164.5 793,-164.5 793,-134.5 639,-134.5"/>
<text text-anchor="start" x="647" y="-152.5" font-family="Helvetica,sans-Serif" font-size="10.00">AbstractCommand::required</text>
<text text-anchor="middle" x="716" y="-141.5" font-family="Helvetica,sans-Serif" font-size="10.00">Options</text>
</a>
</g>
</g>
<!-- Node3&#45;&gt;Node17 -->
<g id="edge16" class="edge">
<title>Node3&#45;&gt;Node17</title>
<path fill="none" stroke="midnightblue" d="M351.22,-263.46C365.34,-260.42 380.14,-257.3 394,-254.5 486.62,-235.8 519.71,-260.12 603,-215.5 623.22,-204.67 619.83,-191.11 639,-178.5 644.55,-174.85 650.62,-171.56 656.85,-168.63"/>
<polygon fill="midnightblue" stroke="midnightblue" points="658.28,-171.82 666.02,-164.58 655.46,-165.41 658.28,-171.82"/>
</g>
<!-- Node18 -->
<g id="node18" class="node">
<title>Node18</title>
<g id="a_node18"><a target="_parent" xlink:href="https://doc.qt.io/qt-5/qbluetoothdevicediscoveryagent.html#setLowEnergyDiscoveryTimeout" xlink:title=" ">
<polygon fill="none" stroke="black" points="394,-175.5 394,-205.5 603,-205.5 603,-175.5 394,-175.5"/>
<text text-anchor="start" x="402" y="-193.5" font-family="Helvetica,sans-Serif" font-size="10.00">QBluetoothDeviceDiscovery</text>
<text text-anchor="middle" x="498.5" y="-182.5" font-family="Helvetica,sans-Serif" font-size="10.00">Agent::setLowEnergyDiscoveryTimeout</text>
</a>
</g>
</g>
<!-- Node3&#45;&gt;Node18 -->
<g id="edge17" class="edge">
<title>Node3&#45;&gt;Node18</title>
<path fill="none" stroke="midnightblue" d="M308.7,-263.4C330.66,-250.7 363.65,-232.72 394,-220.5 404.91,-216.11 416.71,-212.06 428.3,-208.46"/>
<polygon fill="midnightblue" stroke="midnightblue" points="429.4,-211.78 437.96,-205.54 427.38,-205.08 429.4,-211.78"/>
</g>
<!-- Node19 -->
<g id="node19" class="node">
<title>Node19</title>
<g id="a_node19"><a xlink:href="classAbstractCommand.html#a002fc48054b9df13bbb2e0bdc488c6d3" target="_top" xlink:title="Returns a list of CLI option names supported by this command.">
<polygon fill="none" stroke="black" points="417.5,-126.5 417.5,-156.5 579.5,-156.5 579.5,-126.5 417.5,-126.5"/>
<text text-anchor="start" x="425.5" y="-144.5" font-family="Helvetica,sans-Serif" font-size="10.00">AbstractCommand::supported</text>
<text text-anchor="middle" x="498.5" y="-133.5" font-family="Helvetica,sans-Serif" font-size="10.00">Options</text>
</a>
</g>
</g>
<!-- Node3&#45;&gt;Node19 -->
<g id="edge18" class="edge">
<title>Node3&#45;&gt;Node19</title>
<path fill="none" stroke="midnightblue" d="M293.79,-263.38C311.34,-238.83 349.51,-190.51 394,-165.5 398.46,-162.99 403.16,-160.75 408.01,-158.74"/>
<polygon fill="midnightblue" stroke="midnightblue" points="409.37,-161.97 417.48,-155.15 406.89,-155.42 409.37,-161.97"/>
</g>
<!-- Node20 -->
<g id="node20" class="node">
<title>Node20</title>
<g id="a_node20"><a target="_parent" xlink:href="https://doc.qt.io/qt-5/qstring.html#toLower" xlink:title=" ">
<polygon fill="none" stroke="black" points="449.5,-88 449.5,-107 547.5,-107 547.5,-88 449.5,-88"/>
<text text-anchor="middle" x="498.5" y="-95" font-family="Helvetica,sans-Serif" font-size="10.00">QString::toLower</text>
</a>
</g>
</g>
<!-- Node3&#45;&gt;Node20 -->
<g id="edge20" class="edge">
<title>Node3&#45;&gt;Node20</title>
<path fill="none" stroke="midnightblue" d="M289.05,-263.48C301.94,-230.85 337.21,-153.45 394,-116.5 407.31,-107.84 423.53,-102.87 439.13,-100.08"/>
<polygon fill="midnightblue" stroke="midnightblue" points="439.89,-103.5 449.26,-98.55 438.85,-96.58 439.89,-103.5"/>
</g>
<!-- Node21 -->
<g id="node21" class="node">
<title>Node21</title>
<g id="a_node21"><a target="_parent" xlink:href="https://doc.qt.io/qt-5/qobject.html#tr" xlink:title=" ">
<polygon fill="none" stroke="black" points="464,-50 464,-69 533,-69 533,-50 464,-50"/>
<text text-anchor="middle" x="498.5" y="-57" font-family="Helvetica,sans-Serif" font-size="10.00">QObject::tr</text>
</a>
</g>
</g>
<!-- Node3&#45;&gt;Node21 -->
<g id="edge21" class="edge">
<title>Node3&#45;&gt;Node21</title>
<path fill="none" stroke="midnightblue" d="M287.12,-263.23C296.99,-225.19 328.15,-125.89 394,-78.5 411.17,-66.14 433.99,-61.08 453.83,-59.23"/>
<polygon fill="midnightblue" stroke="midnightblue" points="454.15,-62.72 463.89,-58.54 453.67,-55.74 454.15,-62.72"/>
</g>
<!-- Node22 -->
<g id="node22" class="node">
<title>Node22</title>
<g id="a_node22"><a target="_parent" xlink:href="https://doc.qt.io/qt-5/qcommandlineparser.html#value" xlink:title=" ">
<polygon fill="none" stroke="black" points="436,-0.5 436,-30.5 561,-30.5 561,-0.5 436,-0.5"/>
<text text-anchor="start" x="444" y="-18.5" font-family="Helvetica,sans-Serif" font-size="10.00">QCommandLineParser</text>
<text text-anchor="middle" x="498.5" y="-7.5" font-family="Helvetica,sans-Serif" font-size="10.00">::value</text>
</a>
</g>
</g>
<!-- Node3&#45;&gt;Node22 -->
<g id="edge22" class="edge">
<title>Node3&#45;&gt;Node22</title>
<path fill="none" stroke="midnightblue" d="M285.86,-263.48C293.31,-221.29 320.36,-100.85 394,-40.5 403.27,-32.9 414.49,-27.55 426.06,-23.79"/>
<polygon fill="midnightblue" stroke="midnightblue" points="427.19,-27.11 435.84,-21 425.27,-20.38 427.19,-27.11"/>
</g>
<!-- Node11 -->
<g id="node11" class="node">
<title>Node11</title>
<g id="a_node11"><a target="_parent" xlink:href="https://doc.qt.io/qt-5/qstring.html#chop" xlink:title=" ">
<polygon fill="none" stroke="black" points="675,-378 675,-397 757,-397 757,-378 675,-378"/>
<text text-anchor="middle" x="716" y="-385" font-family="Helvetica,sans-Serif" font-size="10.00">QString::chop</text>
</a>
</g>
</g>
<!-- Node10&#45;&gt;Node11 -->
<g id="edge10" class="edge">
<title>Node10&#45;&gt;Node11</title>
<path fill="none" stroke="midnightblue" d="M579.21,-290.44C587.72,-293.8 595.87,-298.07 603,-303.5 629.27,-323.51 612.81,-348.38 639,-368.5 646.6,-374.34 655.79,-378.41 665.1,-381.23"/>
<polygon fill="midnightblue" stroke="midnightblue" points="664.23,-384.62 674.79,-383.75 665.99,-377.85 664.23,-384.62"/>
</g>
<!-- Node12 -->
<g id="node12" class="node">
<title>Node12</title>
<g id="a_node12"><a target="_parent" xlink:href="https://doc.qt.io/qt-5/qstring.html#endsWith" xlink:title=" ">
<polygon fill="none" stroke="black" points="664,-340 664,-359 768,-359 768,-340 664,-340"/>
<text text-anchor="middle" x="716" y="-347" font-family="Helvetica,sans-Serif" font-size="10.00">QString::endsWith</text>
</a>
</g>
</g>
<!-- Node10&#45;&gt;Node12 -->
<g id="edge11" class="edge">
<title>Node10&#45;&gt;Node12</title>
<path fill="none" stroke="midnightblue" d="M577,-293.53C585.96,-296.34 594.81,-299.64 603,-303.5 621.09,-312.02 620.94,-321.9 639,-330.5 643.99,-332.87 649.31,-334.97 654.73,-336.83"/>
<polygon fill="midnightblue" stroke="midnightblue" points="653.95,-340.25 664.54,-339.9 656.04,-333.57 653.95,-340.25"/>
</g>
<!-- Node13 -->
<g id="node13" class="node">
<title>Node13</title>
<g id="a_node13"><a target="_parent" xlink:href="https://doc.qt.io/qt-5/qstring.html#length" xlink:title=" ">
<polygon fill="none" stroke="black" points="671.5,-302 671.5,-321 760.5,-321 760.5,-302 671.5,-302"/>
<text text-anchor="middle" x="716" y="-309" font-family="Helvetica,sans-Serif" font-size="10.00">QString::length</text>
</a>
</g>
</g>
<!-- Node10&#45;&gt;Node13 -->
<g id="edge12" class="edge">
<title>Node10&#45;&gt;Node13</title>
<path fill="none" stroke="midnightblue" d="M579.13,-290.69C606.53,-294.89 636.54,-299.48 661.37,-303.29"/>
<polygon fill="midnightblue" stroke="midnightblue" points="660.9,-306.76 671.31,-304.81 661.96,-299.84 660.9,-306.76"/>
</g>
<!-- Node14 -->
<g id="node14" class="node">
<title>Node14</title>
<g id="a_node14"><a target="_parent" xlink:href="https://doc.qt.io/qt-5/qlocale.html#toDouble" xlink:title=" ">
<polygon fill="none" stroke="black" points="663,-264 663,-283 769,-283 769,-264 663,-264"/>
<text text-anchor="middle" x="716" y="-271" font-family="Helvetica,sans-Serif" font-size="10.00">QLocale::toDouble</text>
</a>
</g>
</g>
<!-- Node10&#45;&gt;Node14 -->
<g id="edge13" class="edge">
<title>Node10&#45;&gt;Node14</title>
<path fill="none" stroke="midnightblue" d="M579.13,-276.65C603.36,-276.09 629.62,-275.48 652.54,-274.95"/>
<polygon fill="midnightblue" stroke="midnightblue" points="652.91,-278.44 662.82,-274.71 652.74,-271.44 652.91,-278.44"/>
</g>
<!-- Node15 -->
<g id="node15" class="node">
<title>Node15</title>
<g id="a_node15"><a target="_parent" xlink:href="https://doc.qt.io/qt-5/qlocale.html#toUInt" xlink:title=" ">
<polygon fill="none" stroke="black" points="670,-226 670,-245 762,-245 762,-226 670,-226"/>
<text text-anchor="middle" x="716" y="-233" font-family="Helvetica,sans-Serif" font-size="10.00">QLocale::toUInt</text>
</a>
</g>
</g>
<!-- Node10&#45;&gt;Node15 -->
<g id="edge14" class="edge">
<title>Node10&#45;&gt;Node15</title>
<path fill="none" stroke="midnightblue" d="M574.87,-263.46C602.84,-257.88 634.01,-251.66 659.84,-246.51"/>
<polygon fill="midnightblue" stroke="midnightblue" points="660.71,-249.9 669.83,-244.51 659.34,-243.04 660.71,-249.9"/>
</g>
<!-- Node16 -->
<g id="node16" class="node">
<title>Node16</title>
<g id="a_node16"><a target="_parent" xlink:href="https://doc.qt.io/qt-5/qstring.html#trimmed" xlink:title=" ">
<polygon fill="none" stroke="black" points="665.5,-188 665.5,-207 766.5,-207 766.5,-188 665.5,-188"/>
<text text-anchor="middle" x="716" y="-195" font-family="Helvetica,sans-Serif" font-size="10.00">QString::trimmed</text>
</a>
</g>
</g>
<!-- Node10&#45;&gt;Node16 -->
<g id="edge15" class="edge">
<title>Node10&#45;&gt;Node16</title>
<path fill="none" stroke="midnightblue" d="M567.5,-263.49C579.71,-259.5 592.03,-254.56 603,-248.5 621.74,-238.15 620.07,-226.5 639,-216.5 644.24,-213.73 649.9,-211.36 655.68,-209.32"/>
<polygon fill="midnightblue" stroke="midnightblue" points="657,-212.57 665.47,-206.2 654.88,-205.9 657,-212.57"/>
</g>
<!-- Node19&#45;&gt;Node17 -->
<g id="edge19" class="edge">
<title>Node19&#45;&gt;Node17</title>
<path fill="none" stroke="midnightblue" d="M579.74,-144.48C595.8,-145.07 612.73,-145.7 628.97,-146.31"/>
<polygon fill="midnightblue" stroke="midnightblue" points="628.85,-149.8 638.98,-146.68 629.11,-142.81 628.85,-149.8"/>
</g>
</g>
</svg>
