<?xml version="1.0" encoding="UTF-8" standalone="no"?>
<!DOCTYPE svg PUBLIC "-//W3C//DTD SVG 1.1//EN"
 "http://www.w3.org/Graphics/SVG/1.1/DTD/svg11.dtd">
<!-- Generated by graphviz version 2.43.0 (0)
 -->
<!-- Title: SetNameCommand::processOptions Pages: 1 -->
<svg width="815pt" height="116pt"
 viewBox="0.00 0.00 815.00 115.50" xmlns="http://www.w3.org/2000/svg" xmlns:xlink="http://www.w3.org/1999/xlink">
<g id="graph0" class="graph" transform="scale(1 1) rotate(0) translate(4 111.5)">
<title>SetNameCommand::processOptions</title>
<!-- Node1 -->
<g id="node1" class="node">
<title>Node1</title>
<g id="a_node1"><a xlink:title="Processes the relevant options from the command line parser.">
<polygon fill="#bfbfbf" stroke="black" points="0,-50 0,-69 193,-69 193,-50 0,-50"/>
<text text-anchor="middle" x="96.5" y="-57" font-family="Helvetica,sans-Serif" font-size="10.00">SetNameCommand::processOptions</text>
</a>
</g>
</g>
<!-- Node2 -->
<g id="node2" class="node">
<title>Node2</title>
<g id="a_node2"><a xlink:href="classAbstractCommand.html#ad827a18a24776efeb955739459d48f7d" target="_top" xlink:title="Processes the relevant options from the command line parser.">
<polygon fill="none" stroke="black" points="229,-44.5 229,-74.5 380,-74.5 380,-44.5 229,-44.5"/>
<text text-anchor="start" x="237" y="-62.5" font-family="Helvetica,sans-Serif" font-size="10.00">AbstractCommand::process</text>
<text text-anchor="middle" x="304.5" y="-51.5" font-family="Helvetica,sans-Serif" font-size="10.00">Options</text>
</a>
</g>
</g>
<!-- Node1&#45;&gt;Node2 -->
<g id="edge1" class="edge">
<title>Node1&#45;&gt;Node2</title>
<path fill="none" stroke="midnightblue" d="M193.26,-59.5C201.78,-59.5 210.36,-59.5 218.77,-59.5"/>
<polygon fill="midnightblue" stroke="midnightblue" points="218.94,-63 228.94,-59.5 218.94,-56 218.94,-63"/>
</g>
<!-- Node3 -->
<g id="node3" class="node">
<title>Node3</title>
<g id="a_node3"><a xlink:href="classAbstractCommand.html#a1065f4e3e5e3e5f19ff0cd51386e75ad" target="_top" xlink:title="Returns value as a number of milliseonds.">
<polygon fill="none" stroke="black" points="416,-88 416,-107 617,-107 617,-88 416,-88"/>
<text text-anchor="middle" x="516.5" y="-95" font-family="Helvetica,sans-Serif" font-size="10.00">AbstractCommand::parseMilliseconds</text>
</a>
</g>
</g>
<!-- Node2&#45;&gt;Node3 -->
<g id="edge2" class="edge">
<title>Node2&#45;&gt;Node3</title>
<path fill="none" stroke="midnightblue" d="M380.13,-73C403.95,-77.32 430.06,-82.04 452.94,-86.18"/>
<polygon fill="midnightblue" stroke="midnightblue" points="452.4,-89.64 462.86,-87.98 453.65,-82.75 452.4,-89.64"/>
</g>
<!-- Node4 -->
<g id="node4" class="node">
<title>Node4</title>
<g id="a_node4"><a xlink:href="classAbstractCommand.html#aec006493cf0a4ba88c092c597bf247b8" target="_top" xlink:title="Returns a list of CLI option names required by this command.">
<polygon fill="none" stroke="black" points="653,-22.5 653,-52.5 807,-52.5 807,-22.5 653,-22.5"/>
<text text-anchor="start" x="661" y="-40.5" font-family="Helvetica,sans-Serif" font-size="10.00">AbstractCommand::required</text>
<text text-anchor="middle" x="730" y="-29.5" font-family="Helvetica,sans-Serif" font-size="10.00">Options</text>
</a>
</g>
</g>
<!-- Node2&#45;&gt;Node4 -->
<g id="edge3" class="edge">
<title>Node2&#45;&gt;Node4</title>
<path fill="none" stroke="midnightblue" d="M380.24,-55.62C453.64,-51.8 565.54,-45.99 642.69,-41.98"/>
<polygon fill="midnightblue" stroke="midnightblue" points="643.06,-45.47 652.87,-41.45 642.7,-38.48 643.06,-45.47"/>
</g>
<!-- Node5 -->
<g id="node5" class="node">
<title>Node5</title>
<g id="a_node5"><a xlink:href="classAbstractCommand.html#a002fc48054b9df13bbb2e0bdc488c6d3" target="_top" xlink:title="Returns a list of CLI option names supported by this command.">
<polygon fill="none" stroke="black" points="435.5,-0.5 435.5,-30.5 597.5,-30.5 597.5,-0.5 435.5,-0.5"/>
<text text-anchor="start" x="443.5" y="-18.5" font-family="Helvetica,sans-Serif" font-size="10.00">AbstractCommand::supported</text>
<text text-anchor="middle" x="516.5" y="-7.5" font-family="Helvetica,sans-Serif" font-size="10.00">Options</text>
</a>
</g>
</g>
<!-- Node2&#45;&gt;Node5 -->
<g id="edge4" class="edge">
<title>Node2&#45;&gt;Node5</title>
<path fill="none" stroke="midnightblue" d="M377.18,-44.48C395.41,-40.66 415.14,-36.53 433.82,-32.61"/>
<polygon fill="midnightblue" stroke="midnightblue" points="434.71,-36 443.78,-30.53 433.28,-29.15 434.71,-36"/>
</g>
<!-- Node5&#45;&gt;Node4 -->
<g id="edge5" class="edge">
<title>Node5&#45;&gt;Node4</title>
<path fill="none" stroke="midnightblue" d="M597.76,-23.85C612.48,-25.38 627.89,-26.98 642.78,-28.53"/>
<polygon fill="midnightblue" stroke="midnightblue" points="642.67,-32.04 652.98,-29.59 643.4,-25.08 642.67,-32.04"/>
</g>
</g>
</svg>
