<?xml version="1.0" encoding="UTF-8" standalone="no"?>
<!DOCTYPE svg PUBLIC "-//W3C//DTD SVG 1.1//EN"
 "http://www.w3.org/Graphics/SVG/1.1/DTD/svg11.dtd">
<!-- Generated by graphviz version 2.43.0 (0)
 -->
<!-- Title: SetNameCommand::processOptions Pages: 1 -->
<svg width="1019pt" height="165pt"
 viewBox="0.00 0.00 1019.00 165.00" xmlns="http://www.w3.org/2000/svg" xmlns:xlink="http://www.w3.org/1999/xlink">
<g id="graph0" class="graph" transform="scale(1 1) rotate(0) translate(4 161)">
<title>SetNameCommand::processOptions</title>
<!-- Node1 -->
<g id="node1" class="node">
<title>Node1</title>
<g id="a_node1"><a xlink:title="Processes the relevant options from the command line parser.">
<polygon fill="#bfbfbf" stroke="black" points="0,-68.5 0,-87.5 193,-87.5 193,-68.5 0,-68.5"/>
<text text-anchor="middle" x="96.5" y="-75.5" font-family="Helvetica,sans-Serif" font-size="10.00">SetNameCommand::processOptions</text>
</a>
</g>
</g>
<!-- Node2 -->
<g id="node2" class="node">
<title>Node2</title>
<g id="a_node2"><a xlink:href="classDeviceCommand.html#a429915728a274595d134b3214e605c1b" target="_top" xlink:title="Processes the relevant options from the command line parser.">
<polygon fill="none" stroke="black" points="229,-68.5 229,-87.5 411,-87.5 411,-68.5 229,-68.5"/>
<text text-anchor="middle" x="320" y="-75.5" font-family="Helvetica,sans-Serif" font-size="10.00">DeviceCommand::processOptions</text>
</a>
</g>
</g>
<!-- Node1&#45;&gt;Node2 -->
<g id="edge1" class="edge">
<title>Node1&#45;&gt;Node2</title>
<path fill="none" stroke="midnightblue" d="M193.04,-78C201.45,-78 209.98,-78 218.42,-78"/>
<polygon fill="midnightblue" stroke="midnightblue" points="218.67,-81.5 228.67,-78 218.67,-74.5 218.67,-81.5"/>
</g>
<!-- Node3 -->
<g id="node3" class="node">
<title>Node3</title>
<g id="a_node3"><a xlink:href="classPokitDevice.html#a2e2fb6b30e6f5f0d7bc6cd8f806d6423" target="_top" xlink:title="Returns a non&#45;const pointer to the controller used to access the Pokit device.">
<polygon fill="none" stroke="black" points="459.5,-137.5 459.5,-156.5 587.5,-156.5 587.5,-137.5 459.5,-137.5"/>
<text text-anchor="middle" x="523.5" y="-144.5" font-family="Helvetica,sans-Serif" font-size="10.00">PokitDevice::controller</text>
</a>
</g>
</g>
<!-- Node2&#45;&gt;Node3 -->
<g id="edge2" class="edge">
<title>Node2&#45;&gt;Node3</title>
<path fill="none" stroke="midnightblue" d="M342.54,-87.55C367.37,-98.33 409.6,-115.93 447,-128 454.51,-130.42 462.51,-132.73 470.41,-134.84"/>
<polygon fill="midnightblue" stroke="midnightblue" points="469.73,-138.28 480.29,-137.42 471.49,-131.51 469.73,-138.28"/>
</g>
<!-- Node4 -->
<g id="node4" class="node">
<title>Node4</title>
<g id="a_node4"><a xlink:href="classDeviceCommand.html#ad53223fb7ff9bd93b97f583432aa5163" target="_top" xlink:title="Handles controller error events.">
<polygon fill="none" stroke="black" points="447,-88 447,-118 600,-118 600,-88 447,-88"/>
<text text-anchor="start" x="455" y="-106" font-family="Helvetica,sans-Serif" font-size="10.00">DeviceCommand::controller</text>
<text text-anchor="middle" x="523.5" y="-95" font-family="Helvetica,sans-Serif" font-size="10.00">Error</text>
</a>
</g>
</g>
<!-- Node2&#45;&gt;Node4 -->
<g id="edge3" class="edge">
<title>Node2&#45;&gt;Node4</title>
<path fill="none" stroke="midnightblue" d="M397.75,-87.52C410.48,-89.1 423.75,-90.75 436.68,-92.35"/>
<polygon fill="midnightblue" stroke="midnightblue" points="436.6,-95.87 446.96,-93.63 437.47,-88.92 436.6,-95.87"/>
</g>
<!-- Node5 -->
<g id="node5" class="node">
<title>Node5</title>
<g id="a_node5"><a xlink:href="classAbstractCommand.html#ad827a18a24776efeb955739459d48f7d" target="_top" xlink:title="Processes the relevant options from the command line parser.">
<polygon fill="none" stroke="black" points="448,-39 448,-69 599,-69 599,-39 448,-39"/>
<text text-anchor="start" x="456" y="-57" font-family="Helvetica,sans-Serif" font-size="10.00">AbstractCommand::process</text>
<text text-anchor="middle" x="523.5" y="-46" font-family="Helvetica,sans-Serif" font-size="10.00">Options</text>
</a>
</g>
</g>
<!-- Node2&#45;&gt;Node5 -->
<g id="edge4" class="edge">
<title>Node2&#45;&gt;Node5</title>
<path fill="none" stroke="midnightblue" d="M400.93,-68.48C413.03,-67.04 425.55,-65.55 437.76,-64.09"/>
<polygon fill="midnightblue" stroke="midnightblue" points="438.4,-67.54 447.91,-62.88 437.57,-60.59 438.4,-67.54"/>
</g>
<!-- Node8 -->
<g id="node8" class="node">
<title>Node8</title>
<g id="a_node8"><a xlink:href="classDeviceCommand.html#a51880909f53005b1c178611aaac394e7" target="_top" xlink:title="Returns a list of CLI option names required by this command.">
<polygon fill="none" stroke="black" points="636,-0.5 636,-19.5 821,-19.5 821,-0.5 636,-0.5"/>
<text text-anchor="middle" x="728.5" y="-7.5" font-family="Helvetica,sans-Serif" font-size="10.00">DeviceCommand::requiredOptions</text>
</a>
</g>
</g>
<!-- Node2&#45;&gt;Node8 -->
<g id="edge8" class="edge">
<title>Node2&#45;&gt;Node8</title>
<path fill="none" stroke="midnightblue" d="M340.07,-68.47C364.26,-56.88 407.6,-37.78 447,-29 505.3,-16.01 571.95,-11.1 625.65,-9.51"/>
<polygon fill="midnightblue" stroke="midnightblue" points="625.96,-13 635.87,-9.24 625.78,-6 625.96,-13"/>
</g>
<!-- Node6 -->
<g id="node6" class="node">
<title>Node6</title>
<g id="a_node6"><a xlink:href="classAbstractCommand.html#aec006493cf0a4ba88c092c597bf247b8" target="_top" xlink:title="Returns a list of CLI option names required by this command.">
<polygon fill="none" stroke="black" points="857,-39 857,-69 1011,-69 1011,-39 857,-39"/>
<text text-anchor="start" x="865" y="-57" font-family="Helvetica,sans-Serif" font-size="10.00">AbstractCommand::required</text>
<text text-anchor="middle" x="934" y="-46" font-family="Helvetica,sans-Serif" font-size="10.00">Options</text>
</a>
</g>
</g>
<!-- Node5&#45;&gt;Node6 -->
<g id="edge5" class="edge">
<title>Node5&#45;&gt;Node6</title>
<path fill="none" stroke="midnightblue" d="M580.24,-69.03C597.93,-73.11 617.66,-76.97 636,-79 717.72,-88.05 739.27,-88.01 821,-79 835.96,-77.35 851.85,-74.5 866.81,-71.29"/>
<polygon fill="midnightblue" stroke="midnightblue" points="868,-74.61 877,-69.03 866.48,-67.78 868,-74.61"/>
</g>
<!-- Node7 -->
<g id="node7" class="node">
<title>Node7</title>
<g id="a_node7"><a xlink:href="classAbstractCommand.html#a002fc48054b9df13bbb2e0bdc488c6d3" target="_top" xlink:title="Returns a list of CLI option names supported by this command.">
<polygon fill="none" stroke="black" points="647.5,-39 647.5,-69 809.5,-69 809.5,-39 647.5,-39"/>
<text text-anchor="start" x="655.5" y="-57" font-family="Helvetica,sans-Serif" font-size="10.00">AbstractCommand::supported</text>
<text text-anchor="middle" x="728.5" y="-46" font-family="Helvetica,sans-Serif" font-size="10.00">Options</text>
</a>
</g>
</g>
<!-- Node5&#45;&gt;Node7 -->
<g id="edge6" class="edge">
<title>Node5&#45;&gt;Node7</title>
<path fill="none" stroke="midnightblue" d="M599.22,-54C611.62,-54 624.6,-54 637.33,-54"/>
<polygon fill="midnightblue" stroke="midnightblue" points="637.47,-57.5 647.47,-54 637.47,-50.5 637.47,-57.5"/>
</g>
<!-- Node7&#45;&gt;Node6 -->
<g id="edge7" class="edge">
<title>Node7&#45;&gt;Node6</title>
<path fill="none" stroke="midnightblue" d="M809.64,-54C821.8,-54 834.4,-54 846.69,-54"/>
<polygon fill="midnightblue" stroke="midnightblue" points="846.92,-57.5 856.92,-54 846.92,-50.5 846.92,-57.5"/>
</g>
<!-- Node8&#45;&gt;Node6 -->
<g id="edge9" class="edge">
<title>Node8&#45;&gt;Node6</title>
<path fill="none" stroke="midnightblue" d="M776.08,-19.53C790.49,-22.52 806.41,-25.86 821,-29 832.49,-31.47 844.63,-34.14 856.51,-36.77"/>
<polygon fill="midnightblue" stroke="midnightblue" points="855.89,-40.21 866.41,-38.97 857.41,-33.38 855.89,-40.21"/>
</g>
</g>
</svg>
