<?xml version="1.0" encoding="UTF-8" standalone="no"?>
<!DOCTYPE svg PUBLIC "-//W3C//DTD SVG 1.1//EN"
 "http://www.w3.org/Graphics/SVG/1.1/DTD/svg11.dtd">
<!-- Generated by graphviz version 2.43.0 (0)
 -->
<!-- Title: LoggerCommand::lowestRange Pages: 1 -->
<svg width="388pt" height="165pt"
 viewBox="0.00 0.00 388.00 165.00" xmlns="http://www.w3.org/2000/svg" xmlns:xlink="http://www.w3.org/1999/xlink">
<g id="graph0" class="graph" transform="scale(1 1) rotate(0) translate(4 161)">
<title>LoggerCommand::lowestRange</title>
<!-- Node1 -->
<g id="node1" class="node">
<title>Node1</title>
<g id="a_node1"><a xlink:title="Returns the lowest mode range that can measure at least up to desired max, or AutoRange if no such ra...">
<polygon fill="#bfbfbf" stroke="black" points="0,-68.5 0,-87.5 169,-87.5 169,-68.5 0,-68.5"/>
<text text-anchor="middle" x="84.5" y="-75.5" font-family="Helvetica,sans-Serif" font-size="10.00">LoggerCommand::lowestRange</text>
</a>
</g>
</g>
<!-- Node2 -->
<g id="node2" class="node">
<title>Node2</title>
<g id="a_node2"><a target="_parent" xlink:href="https://doc.qt.io/qt-5/qstring.html#arg-11" xlink:title=" ">
<polygon fill="none" stroke="black" points="255.5,-137.5 255.5,-156.5 329.5,-156.5 329.5,-137.5 255.5,-137.5"/>
<text text-anchor="middle" x="292.5" y="-144.5" font-family="Helvetica,sans-Serif" font-size="10.00">QString::arg</text>
</a>
</g>
</g>
<!-- Node1&#45;&gt;Node2 -->
<g id="edge1" class="edge">
<title>Node1&#45;&gt;Node2</title>
<path fill="none" stroke="midnightblue" d="M105.38,-87.62C128.77,-98.64 168.98,-116.61 205,-128 217.97,-132.1 232.3,-135.64 245.51,-138.51"/>
<polygon fill="midnightblue" stroke="midnightblue" points="244.84,-141.94 255.35,-140.57 246.28,-135.09 244.84,-141.94"/>
</g>
<!-- Node3 -->
<g id="node3" class="node">
<title>Node3</title>
<g id="a_node3"><a xlink:href="classLoggerCommand.html#adab9833586c868fea8b49090026d48ef" target="_top" xlink:title="Returns the lowest current range that can measure at least up to desired max, or AutoRange if no such...">
<polygon fill="none" stroke="black" points="205.5,-88 205.5,-118 379.5,-118 379.5,-88 205.5,-88"/>
<text text-anchor="start" x="213.5" y="-106" font-family="Helvetica,sans-Serif" font-size="10.00">LoggerCommand::lowestCurrent</text>
<text text-anchor="middle" x="292.5" y="-95" font-family="Helvetica,sans-Serif" font-size="10.00">Range</text>
</a>
</g>
</g>
<!-- Node1&#45;&gt;Node3 -->
<g id="edge2" class="edge">
<title>Node1&#45;&gt;Node3</title>
<path fill="none" stroke="midnightblue" d="M163.97,-87.52C174.22,-88.77 184.82,-90.05 195.32,-91.33"/>
<polygon fill="midnightblue" stroke="midnightblue" points="195,-94.81 205.35,-92.54 195.84,-87.87 195,-94.81"/>
</g>
<!-- Node4 -->
<g id="node4" class="node">
<title>Node4</title>
<g id="a_node4"><a xlink:href="classLoggerCommand.html#a9074b9609f22c507e11aa4c1801527f1" target="_top" xlink:title="Returns the lowest voltage range that can measure at least up to desired max, or AutoRange if no such...">
<polygon fill="none" stroke="black" points="205,-39 205,-69 380,-69 380,-39 205,-39"/>
<text text-anchor="start" x="213" y="-57" font-family="Helvetica,sans-Serif" font-size="10.00">LoggerCommand::lowestVoltage</text>
<text text-anchor="middle" x="292.5" y="-46" font-family="Helvetica,sans-Serif" font-size="10.00">Range</text>
</a>
</g>
</g>
<!-- Node1&#45;&gt;Node4 -->
<g id="edge3" class="edge">
<title>Node1&#45;&gt;Node4</title>
<path fill="none" stroke="midnightblue" d="M167.21,-68.48C176.29,-67.42 185.59,-66.34 194.83,-65.26"/>
<polygon fill="midnightblue" stroke="midnightblue" points="195.28,-68.73 204.81,-64.1 194.47,-61.78 195.28,-68.73"/>
</g>
<!-- Node5 -->
<g id="node5" class="node">
<title>Node5</title>
<g id="a_node5"><a target="_parent" xlink:href="https://doc.qt.io/qt-5/qobject.html#tr" xlink:title=" ">
<polygon fill="none" stroke="black" points="258,-0.5 258,-19.5 327,-19.5 327,-0.5 258,-0.5"/>
<text text-anchor="middle" x="292.5" y="-7.5" font-family="Helvetica,sans-Serif" font-size="10.00">QObject::tr</text>
</a>
</g>
</g>
<!-- Node1&#45;&gt;Node5 -->
<g id="edge4" class="edge">
<title>Node1&#45;&gt;Node5</title>
<path fill="none" stroke="midnightblue" d="M106.72,-68.31C130.34,-57.81 169.81,-41.06 205,-30 218.84,-25.65 234.2,-21.79 248.09,-18.66"/>
<polygon fill="midnightblue" stroke="midnightblue" points="248.89,-22.06 257.9,-16.5 247.39,-15.23 248.89,-22.06"/>
</g>
</g>
</svg>
