<?xml version="1.0" encoding="UTF-8" standalone="no"?>
<!DOCTYPE svg PUBLIC "-//W3C//DTD SVG 1.1//EN"
 "http://www.w3.org/Graphics/SVG/1.1/DTD/svg11.dtd">
<!-- Generated by graphviz version 2.43.0 (0)
 -->
<!-- Title: AbstractPokitServicePrivate::checkSize Pages: 1 -->
<svg width="496pt" height="212pt"
 viewBox="0.00 0.00 496.00 212.00" xmlns="http://www.w3.org/2000/svg" xmlns:xlink="http://www.w3.org/1999/xlink">
<g id="graph0" class="graph" transform="scale(1 1) rotate(0) translate(4 208)">
<title>AbstractPokitServicePrivate::checkSize</title>
<!-- Node1 -->
<g id="node1" class="node">
<title>Node1</title>
<g id="a_node1"><a xlink:title="Returns false if data is smaller than minSize, otherwise returns failOnMax if data is bigger than max...">
<polygon fill="#999999" stroke="#666666" points="152,-129.5 0,-129.5 0,-99.5 152,-99.5 152,-129.5"/>
<text text-anchor="start" x="8" y="-117.5" font-family="Helvetica,sans-Serif" font-size="10.00">AbstractPokitServicePrivate</text>
<text text-anchor="middle" x="76" y="-106.5" font-family="Helvetica,sans-Serif" font-size="10.00">::checkSize</text>
</a>
</g>
</g>
<!-- Node2 -->
<g id="node2" class="node">
<title>Node2</title>
<g id="a_node2"><a target="_parent" xlink:href="https://doc.qt.io/qt-5/qstring.html#arg-11" xlink:title=" ">
<polygon fill="white" stroke="#666666" points="469,-204 395,-204 395,-185 469,-185 469,-204"/>
<text text-anchor="middle" x="432" y="-192" font-family="Helvetica,sans-Serif" font-size="10.00">QString::arg</text>
</a>
</g>
</g>
<!-- Node1&#45;&gt;Node2 -->
<g id="edge1" class="edge">
<title>Node1&#45;&gt;Node2</title>
<path fill="none" stroke="#63b8ff" d="M108.35,-129.59C130.21,-139.52 160.3,-152.01 188,-159.5 255.03,-177.63 335.16,-186.86 384.56,-191.17"/>
<polygon fill="#63b8ff" stroke="#63b8ff" points="384.37,-194.67 394.63,-192.02 384.96,-187.69 384.37,-194.67"/>
</g>
<!-- Node3 -->
<g id="node3" class="node">
<title>Node3</title>
<g id="a_node3"><a target="_parent" xlink:href="https://doc.qt.io/qt-5/qbytearray.html#mid" xlink:title=" ">
<polygon fill="white" stroke="#666666" points="312.5,-81 215.5,-81 215.5,-62 312.5,-62 312.5,-81"/>
<text text-anchor="middle" x="264" y="-69" font-family="Helvetica,sans-Serif" font-size="10.00">QByteArray::mid</text>
</a>
</g>
</g>
<!-- Node1&#45;&gt;Node3 -->
<g id="edge2" class="edge">
<title>Node1&#45;&gt;Node3</title>
<path fill="none" stroke="#63b8ff" d="M142.05,-99.46C164.93,-94.17 190.3,-88.31 211.87,-83.32"/>
<polygon fill="#63b8ff" stroke="#63b8ff" points="212.86,-86.68 221.81,-81.02 211.28,-79.86 212.86,-86.68"/>
</g>
<!-- Node4 -->
<g id="node4" class="node">
<title>Node4</title>
<g id="a_node4"><a target="_parent" xlink:href="https://doc.qt.io/qt-5/qbytearray.html#size" xlink:title=" ">
<polygon fill="white" stroke="#666666" points="481,-167 383,-167 383,-148 481,-148 481,-167"/>
<text text-anchor="middle" x="432" y="-155" font-family="Helvetica,sans-Serif" font-size="10.00">QByteArray::size</text>
</a>
</g>
</g>
<!-- Node1&#45;&gt;Node4 -->
<g id="edge3" class="edge">
<title>Node1&#45;&gt;Node4</title>
<path fill="none" stroke="#63b8ff" d="M139.25,-129.5C155.08,-132.89 172.1,-136.17 188,-138.5 250.74,-147.69 323.28,-152.63 372.66,-155.15"/>
<polygon fill="#63b8ff" stroke="#63b8ff" points="372.68,-158.65 382.84,-155.65 373.02,-151.66 372.68,-158.65"/>
</g>
<!-- Node5 -->
<g id="node5" class="node">
<title>Node5</title>
<g id="a_node5"><a xlink:href="classAbstractPokitServicePrivate.html#af748600fc201fe47f29b58e8e93179d8" target="_top" xlink:title="Returns up to maxSize bytes of data as a human readable hexadecimal string.">
<polygon fill="white" stroke="#666666" points="340,-129.5 188,-129.5 188,-99.5 340,-99.5 340,-129.5"/>
<text text-anchor="start" x="196" y="-117.5" font-family="Helvetica,sans-Serif" font-size="10.00">AbstractPokitServicePrivate</text>
<text text-anchor="middle" x="264" y="-106.5" font-family="Helvetica,sans-Serif" font-size="10.00">::toHexString</text>
</a>
</g>
</g>
<!-- Node1&#45;&gt;Node5 -->
<g id="edge4" class="edge">
<title>Node1&#45;&gt;Node5</title>
<path fill="none" stroke="#63b8ff" d="M152.12,-114.5C160.6,-114.5 169.28,-114.5 177.87,-114.5"/>
<polygon fill="#63b8ff" stroke="#63b8ff" points="177.9,-118 187.9,-114.5 177.9,-111 177.9,-118"/>
</g>
<!-- Node10 -->
<g id="node10" class="node">
<title>Node10</title>
<g id="a_node10"><a target="_parent" xlink:href="https://doc.qt.io/qt-5/qobject.html#tr" xlink:title=" ">
<polygon fill="white" stroke="#666666" points="298.5,-44 229.5,-44 229.5,-25 298.5,-25 298.5,-44"/>
<text text-anchor="middle" x="264" y="-32" font-family="Helvetica,sans-Serif" font-size="10.00">QObject::tr</text>
</a>
</g>
</g>
<!-- Node1&#45;&gt;Node10 -->
<g id="edge11" class="edge">
<title>Node1&#45;&gt;Node10</title>
<path fill="none" stroke="#63b8ff" d="M99.9,-99.25C121.72,-85.31 155.93,-65.03 188,-52.5 197.92,-48.62 208.93,-45.42 219.37,-42.84"/>
<polygon fill="#63b8ff" stroke="#63b8ff" points="220.22,-46.23 229.17,-40.56 218.64,-39.42 220.22,-46.23"/>
</g>
<!-- Node5&#45;&gt;Node2 -->
<g id="edge5" class="edge">
<title>Node5&#45;&gt;Node2</title>
<path fill="none" stroke="#63b8ff" d="M288.99,-129.69C311.02,-143.2 344.86,-162.86 376,-176.5 380.1,-178.29 384.43,-180.01 388.8,-181.62"/>
<polygon fill="#63b8ff" stroke="#63b8ff" points="387.73,-184.95 398.33,-184.96 390.05,-178.35 387.73,-184.95"/>
</g>
<!-- Node5&#45;&gt;Node4 -->
<g id="edge9" class="edge">
<title>Node5&#45;&gt;Node4</title>
<path fill="none" stroke="#63b8ff" d="M323.06,-129.54C343.03,-134.71 365.13,-140.44 384.1,-145.35"/>
<polygon fill="#63b8ff" stroke="#63b8ff" points="383.43,-148.79 393.99,-147.91 385.19,-142.02 383.43,-148.79"/>
</g>
<!-- Node6 -->
<g id="node6" class="node">
<title>Node6</title>
<g id="a_node6"><a target="_parent" xlink:href="https://doc.qt.io/qt-5/qstring.html#fromLatin1" xlink:title=" ">
<polygon fill="white" stroke="#666666" points="488,-56 376,-56 376,-37 488,-37 488,-56"/>
<text text-anchor="middle" x="432" y="-44" font-family="Helvetica,sans-Serif" font-size="10.00">QString::fromLatin1</text>
</a>
</g>
</g>
<!-- Node5&#45;&gt;Node6 -->
<g id="edge6" class="edge">
<title>Node5&#45;&gt;Node6</title>
<path fill="none" stroke="#63b8ff" d="M319.09,-99.47C326.26,-96.82 333.41,-93.83 340,-90.5 357.62,-81.6 358.41,-73.45 376,-64.5 379.48,-62.73 383.16,-61.08 386.92,-59.56"/>
<polygon fill="#63b8ff" stroke="#63b8ff" points="388.17,-62.83 396.3,-56.04 385.71,-56.28 388.17,-62.83"/>
</g>
<!-- Node7 -->
<g id="node7" class="node">
<title>Node7</title>
<g id="a_node7"><a target="_parent" xlink:href="https://doc.qt.io/qt-5/qbytearray.html#left" xlink:title=" ">
<polygon fill="white" stroke="#666666" points="479,-19 385,-19 385,0 479,0 479,-19"/>
<text text-anchor="middle" x="432" y="-7" font-family="Helvetica,sans-Serif" font-size="10.00">QByteArray::left</text>
</a>
</g>
</g>
<!-- Node5&#45;&gt;Node7 -->
<g id="edge7" class="edge">
<title>Node5&#45;&gt;Node7</title>
<path fill="none" stroke="#63b8ff" d="M326,-99.42C331,-96.89 335.75,-93.94 340,-90.5 365.06,-70.21 351,-47.88 376,-27.5 377.58,-26.21 379.25,-25.02 380.99,-23.91"/>
<polygon fill="#63b8ff" stroke="#63b8ff" points="382.98,-26.82 390.16,-19.03 379.69,-20.64 382.98,-26.82"/>
</g>
<!-- Node8 -->
<g id="node8" class="node">
<title>Node8</title>
<g id="a_node8"><a target="_parent" xlink:href="https://doc.qt.io/qt-5/qbytearray.html#right" xlink:title=" ">
<polygon fill="white" stroke="#666666" points="482.5,-130 381.5,-130 381.5,-111 482.5,-111 482.5,-130"/>
<text text-anchor="middle" x="432" y="-118" font-family="Helvetica,sans-Serif" font-size="10.00">QByteArray::right</text>
</a>
</g>
</g>
<!-- Node5&#45;&gt;Node8 -->
<g id="edge8" class="edge">
<title>Node5&#45;&gt;Node8</title>
<path fill="none" stroke="#63b8ff" d="M340.23,-117.22C350.54,-117.59 361.02,-117.97 371.01,-118.33"/>
<polygon fill="#63b8ff" stroke="#63b8ff" points="371.1,-121.84 381.22,-118.7 371.36,-114.84 371.1,-121.84"/>
</g>
<!-- Node9 -->
<g id="node9" class="node">
<title>Node9</title>
<g id="a_node9"><a target="_parent" xlink:href="https://doc.qt.io/qt-5/qbytearray.html#toHex" xlink:title=" ">
<polygon fill="white" stroke="#666666" points="485.5,-93 378.5,-93 378.5,-74 485.5,-74 485.5,-93"/>
<text text-anchor="middle" x="432" y="-81" font-family="Helvetica,sans-Serif" font-size="10.00">QByteArray::toHex</text>
</a>
</g>
</g>
<!-- Node5&#45;&gt;Node9 -->
<g id="edge10" class="edge">
<title>Node5&#45;&gt;Node9</title>
<path fill="none" stroke="#63b8ff" d="M340.23,-100.45C350.16,-98.6 360.24,-96.71 369.9,-94.91"/>
<polygon fill="#63b8ff" stroke="#63b8ff" points="370.6,-98.34 379.78,-93.06 369.31,-91.46 370.6,-98.34"/>
</g>
</g>
</svg>
