<?xml version="1.0" encoding="UTF-8" standalone="no"?>
<!DOCTYPE svg PUBLIC "-//W3C//DTD SVG 1.1//EN"
 "http://www.w3.org/Graphics/SVG/1.1/DTD/svg11.dtd">
<!-- Generated by graphviz version 2.43.0 (0)
 -->
<!-- Title: dataloggerservice.cpp Pages: 1 -->
<svg width="869pt" height="357pt"
 viewBox="0.00 0.00 868.50 357.00" xmlns="http://www.w3.org/2000/svg" xmlns:xlink="http://www.w3.org/1999/xlink">
<g id="graph0" class="graph" transform="scale(1 1) rotate(0) translate(4 353)">
<title>dataloggerservice.cpp</title>
<!-- Node1 -->
<g id="Node000001" class="node">
<title>Node1</title>
<g id="a_Node000001"><a xlink:title="Defines the DataLoggerService and DataLoggerServicePrivate classes.">
<polygon fill="#999999" stroke="#666666" points="592.5,-349 467.5,-349 467.5,-330 592.5,-330 592.5,-349"/>
<text text-anchor="middle" x="530" y="-337" font-family="Helvetica,sans-Serif" font-size="10.00">dataloggerservice.cpp</text>
</a>
</g>
</g>
<!-- Node2 -->
<g id="Node000002" class="node">
<title>Node2</title>
<g id="a_Node000002"><a xlink:href="dataloggerservice_8h.html" target="_top" xlink:title="Declares the DataLoggerService class.">
<polygon fill="white" stroke="#666666" points="559.5,-239 408.5,-239 408.5,-220 559.5,-220 559.5,-239"/>
<text text-anchor="middle" x="484" y="-227" font-family="Helvetica,sans-Serif" font-size="10.00">qtpokit/dataloggerservice.h</text>
</a>
</g>
</g>
<!-- Node1&#45;&gt;Node2 -->
<g id="edge1_Node000001_Node000002" class="edge">
<title>Node1&#45;&gt;Node2</title>
<g id="a_edge1_Node000001_Node000002"><a xlink:title=" ">
<path fill="none" stroke="#63b8ff" d="M526.24,-329.66C518.52,-311.54 500.79,-269.91 490.93,-246.77"/>
<polygon fill="#63b8ff" stroke="#63b8ff" points="487.69,-239.16 494.13,-245.11 489.26,-242.84 490.82,-246.52 490.82,-246.52 490.82,-246.52 489.26,-242.84 487.51,-247.93 487.69,-239.16 487.69,-239.16"/>
</a>
</g>
</g>
<!-- Node16 -->
<g id="Node000016" class="node">
<title>Node16</title>
<g id="a_Node000016"><a xlink:href="dataloggerservice__p_8h.html" target="_top" xlink:title="Declares the DataLoggerServicePrivate class.">
<polygon fill="white" stroke="#666666" points="463.5,-294 338.5,-294 338.5,-275 463.5,-275 463.5,-294"/>
<text text-anchor="middle" x="401" y="-282" font-family="Helvetica,sans-Serif" font-size="10.00">dataloggerservice_p.h</text>
</a>
</g>
</g>
<!-- Node1&#45;&gt;Node16 -->
<g id="edge16_Node000001_Node000016" class="edge">
<title>Node1&#45;&gt;Node16</title>
<g id="a_edge16_Node000001_Node000016"><a xlink:title=" ">
<path fill="none" stroke="#63b8ff" d="M509.27,-329.98C487.68,-321.11 453.69,-307.15 429.56,-297.24"/>
<polygon fill="#63b8ff" stroke="#63b8ff" points="422.1,-294.17 430.87,-293.88 425.8,-295.69 429.5,-297.21 429.5,-297.21 429.5,-297.21 425.8,-295.69 428.13,-300.54 422.1,-294.17 422.1,-294.17"/>
</a>
</g>
</g>
<!-- Node19 -->
<g id="Node000019" class="node">
<title>Node19</title>
<g id="a_Node000019"><a xlink:href="pokitproducts__p_8h_source.html" target="_top" xlink:title=" ">
<polygon fill="white" stroke="#666666" points="282,-294 178,-294 178,-275 282,-275 282,-294"/>
<text text-anchor="middle" x="230" y="-282" font-family="Helvetica,sans-Serif" font-size="10.00">pokitproducts_p.h</text>
</a>
</g>
</g>
<!-- Node1&#45;&gt;Node19 -->
<g id="edge24_Node000001_Node000019" class="edge">
<title>Node1&#45;&gt;Node19</title>
<g id="a_edge24_Node000001_Node000019"><a xlink:title=" ">
<path fill="none" stroke="#63b8ff" d="M481.8,-329.98C428.6,-320.59 343.05,-305.47 286.68,-295.51"/>
<polygon fill="#63b8ff" stroke="#63b8ff" points="278.58,-294.08 287.08,-291.93 282.52,-294.78 286.46,-295.47 286.46,-295.47 286.46,-295.47 282.52,-294.78 285.83,-299.02 278.58,-294.08 278.58,-294.08"/>
</a>
</g>
</g>
<!-- Node20 -->
<g id="Node000020" class="node">
<title>Node20</title>
<g id="a_Node000020"><a xlink:title=" ">
<polygon fill="#e0e0e0" stroke="#999999" points="301.5,-239 176.5,-239 176.5,-220 301.5,-220 301.5,-239"/>
<text text-anchor="middle" x="239" y="-227" font-family="Helvetica,sans-Serif" font-size="10.00">QLowEnergyController</text>
</a>
</g>
</g>
<!-- Node1&#45;&gt;Node20 -->
<g id="edge36_Node000001_Node000020" class="edge">
<title>Node1&#45;&gt;Node20</title>
<g id="a_edge36_Node000001_Node000020"><a xlink:title=" ">
<path fill="none" stroke="#63b8ff" d="M467.31,-331.15C426.61,-324.81 373.13,-313.51 329,-294 300.59,-281.44 272,-259.26 254.89,-244.71"/>
<polygon fill="#63b8ff" stroke="#63b8ff" points="248.72,-239.37 257.12,-241.88 251.74,-241.99 254.76,-244.6 254.76,-244.6 254.76,-244.6 251.74,-241.99 252.41,-247.33 248.72,-239.37 248.72,-239.37"/>
</a>
</g>
</g>
<!-- Node21 -->
<g id="Node000021" class="node">
<title>Node21</title>
<g id="a_Node000021"><a xlink:href="stringliterals__p_8h.html" target="_top" xlink:title="Declares the DOKIT_USE_STRINGLITERALS macro, and related functions.">
<polygon fill="white" stroke="#666666" points="860.5,-239 753.5,-239 753.5,-220 860.5,-220 860.5,-239"/>
<text text-anchor="middle" x="807" y="-227" font-family="Helvetica,sans-Serif" font-size="10.00">../stringliterals_p.h</text>
</a>
</g>
</g>
<!-- Node1&#45;&gt;Node21 -->
<g id="edge27_Node000001_Node000021" class="edge">
<title>Node1&#45;&gt;Node21</title>
<g id="a_edge27_Node000001_Node000021"><a xlink:title=" ">
<path fill="none" stroke="#63b8ff" d="M535.09,-329.92C543.83,-316 563.08,-288.68 587,-275 613.52,-259.84 690.08,-246.55 745.43,-238.54"/>
<polygon fill="#63b8ff" stroke="#63b8ff" points="753.44,-237.39 746.03,-242.09 749.48,-237.96 745.52,-238.53 745.52,-238.53 745.52,-238.53 749.48,-237.96 745.01,-234.96 753.44,-237.39 753.44,-237.39"/>
</a>
</g>
</g>
<!-- Node22 -->
<g id="Node000022" class="node">
<title>Node22</title>
<g id="a_Node000022"><a xlink:href="statusservice_8h.html" target="_top" xlink:title="Declares the StatusService class.">
<polygon fill="white" stroke="#666666" points="706,-239 578,-239 578,-220 706,-220 706,-239"/>
<text text-anchor="middle" x="642" y="-227" font-family="Helvetica,sans-Serif" font-size="10.00">qtpokit/statusservice.h</text>
</a>
</g>
</g>
<!-- Node1&#45;&gt;Node22 -->
<g id="edge29_Node000001_Node000022" class="edge">
<title>Node1&#45;&gt;Node22</title>
<g id="a_edge29_Node000001_Node000022"><a xlink:title=" ">
<path fill="none" stroke="#63b8ff" d="M531.26,-329.65C533.58,-316.32 539.66,-290.96 554,-275 567.59,-259.87 587.52,-249.2 604.98,-242.11"/>
<polygon fill="#63b8ff" stroke="#63b8ff" points="612.79,-239.1 606.62,-245.33 609.06,-240.54 605.33,-241.97 605.33,-241.97 605.33,-241.97 609.06,-240.54 604.04,-238.61 612.79,-239.1 612.79,-239.1"/>
</a>
</g>
</g>
<!-- Node23 -->
<g id="Node000023" class="node">
<title>Node23</title>
<g id="a_Node000023"><a xlink:title=" ">
<polygon fill="#e0e0e0" stroke="#999999" points="679.5,-294 596.5,-294 596.5,-275 679.5,-275 679.5,-294"/>
<text text-anchor="middle" x="638" y="-282" font-family="Helvetica,sans-Serif" font-size="10.00">QDataStream</text>
</a>
</g>
</g>
<!-- Node1&#45;&gt;Node23 -->
<g id="edge34_Node000001_Node000023" class="edge">
<title>Node1&#45;&gt;Node23</title>
<g id="a_edge34_Node000001_Node000023"><a xlink:title=" ">
<path fill="none" stroke="#63b8ff" d="M547.35,-329.98C565.12,-321.27 592.9,-307.63 613.03,-297.75"/>
<polygon fill="#63b8ff" stroke="#63b8ff" points="620.33,-294.17 614.74,-300.93 616.74,-295.93 613.15,-297.69 613.15,-297.69 613.15,-297.69 616.74,-295.93 611.56,-294.46 620.33,-294.17 620.33,-294.17"/>
</a>
</g>
</g>
<!-- Node24 -->
<g id="Node000024" class="node">
<title>Node24</title>
<g id="a_Node000024"><a xlink:title=" ">
<polygon fill="#e0e0e0" stroke="#999999" points="766,-294 698,-294 698,-275 766,-275 766,-294"/>
<text text-anchor="middle" x="732" y="-282" font-family="Helvetica,sans-Serif" font-size="10.00">QIODevice</text>
</a>
</g>
</g>
<!-- Node1&#45;&gt;Node24 -->
<g id="edge35_Node000001_Node000024" class="edge">
<title>Node1&#45;&gt;Node24</title>
<g id="a_edge35_Node000001_Node000024"><a xlink:title=" ">
<path fill="none" stroke="#63b8ff" d="M562.45,-329.98C597.54,-320.78 653.53,-306.09 691.48,-296.13"/>
<polygon fill="#63b8ff" stroke="#63b8ff" points="699.29,-294.08 692.47,-299.59 695.42,-295.1 691.55,-296.11 691.55,-296.11 691.55,-296.11 695.42,-295.1 690.64,-292.63 699.29,-294.08 699.29,-294.08"/>
</a>
</g>
</g>
<!-- Node25 -->
<g id="Node000025" class="node">
<title>Node25</title>
<g id="a_Node000025"><a xlink:title=" ">
<polygon fill="#e0e0e0" stroke="#999999" points="845.5,-294 784.5,-294 784.5,-275 845.5,-275 845.5,-294"/>
<text text-anchor="middle" x="815" y="-282" font-family="Helvetica,sans-Serif" font-size="10.00">QtEndian</text>
</a>
</g>
</g>
<!-- Node1&#45;&gt;Node25 -->
<g id="edge37_Node000001_Node000025" class="edge">
<title>Node1&#45;&gt;Node25</title>
<g id="a_edge37_Node000001_Node000025"><a xlink:title=" ">
<path fill="none" stroke="#63b8ff" d="M579.35,-329.98C628.89,-321.32 707.35,-307.33 775,-294 775.48,-293.91 775.96,-293.81 776.45,-293.71"/>
<polygon fill="#63b8ff" stroke="#63b8ff" points="784.44,-292.09 777.32,-297.21 780.52,-292.89 776.6,-293.68 776.6,-293.68 776.6,-293.68 780.52,-292.89 775.89,-290.15 784.44,-292.09 784.44,-292.09"/>
</a>
</g>
</g>
<!-- Node3 -->
<g id="Node000003" class="node">
<title>Node3</title>
<g id="a_Node000003"><a xlink:href="abstractpokitservice_8h.html" target="_top" xlink:title="Declares the AbstractPokitService class.">
<polygon fill="white" stroke="#666666" points="451.5,-184 326.5,-184 326.5,-165 451.5,-165 451.5,-184"/>
<text text-anchor="middle" x="389" y="-172" font-family="Helvetica,sans-Serif" font-size="10.00">abstractpokitservice.h</text>
</a>
</g>
</g>
<!-- Node2&#45;&gt;Node3 -->
<g id="edge2_Node000002_Node000003" class="edge">
<title>Node2&#45;&gt;Node3</title>
<g id="a_edge2_Node000002_Node000003"><a xlink:title=" ">
<path fill="none" stroke="#63b8ff" d="M468.74,-219.98C453.32,-211.38 429.31,-197.99 411.67,-188.15"/>
<polygon fill="#63b8ff" stroke="#63b8ff" points="404.54,-184.17 413.28,-184.92 408.03,-186.12 411.53,-188.07 411.53,-188.07 411.53,-188.07 408.03,-186.12 409.77,-191.21 404.54,-184.17 404.54,-184.17"/>
</a>
</g>
</g>
<!-- Node13 -->
<g id="Node000013" class="node">
<title>Node13</title>
<g id="a_Node000013"><a xlink:title=" ">
<polygon fill="#e0e0e0" stroke="#999999" points="697,-184 587,-184 587,-165 697,-165 697,-184"/>
<text text-anchor="middle" x="642" y="-172" font-family="Helvetica,sans-Serif" font-size="10.00">QBluetoothAddress</text>
</a>
</g>
</g>
<!-- Node2&#45;&gt;Node13 -->
<g id="edge13_Node000002_Node000013" class="edge">
<title>Node2&#45;&gt;Node13</title>
<g id="a_edge13_Node000002_Node000013"><a xlink:title=" ">
<path fill="none" stroke="#63b8ff" d="M509.39,-219.98C536.37,-210.93 579.16,-196.58 608.8,-186.64"/>
<polygon fill="#63b8ff" stroke="#63b8ff" points="616.42,-184.08 609.98,-190.04 612.62,-185.35 608.83,-186.63 608.83,-186.63 608.83,-186.63 612.62,-185.35 607.69,-183.21 616.42,-184.08 616.42,-184.08"/>
</a>
</g>
</g>
<!-- Node14 -->
<g id="Node000014" class="node">
<title>Node14</title>
<g id="a_Node000014"><a xlink:title=" ">
<polygon fill="#e0e0e0" stroke="#999999" points="809,-184 715,-184 715,-165 809,-165 809,-184"/>
<text text-anchor="middle" x="762" y="-172" font-family="Helvetica,sans-Serif" font-size="10.00">QBluetoothUuid</text>
</a>
</g>
</g>
<!-- Node2&#45;&gt;Node14 -->
<g id="edge14_Node000002_Node000014" class="edge">
<title>Node2&#45;&gt;Node14</title>
<g id="a_edge14_Node000002_Node000014"><a xlink:title=" ">
<path fill="none" stroke="#63b8ff" d="M528.67,-219.98C577.76,-210.62 656.59,-195.6 708.84,-185.64"/>
<polygon fill="#63b8ff" stroke="#63b8ff" points="716.98,-184.08 709.8,-189.12 713.06,-184.83 709.13,-185.58 709.13,-185.58 709.13,-185.58 713.06,-184.83 708.45,-182.04 716.98,-184.08 716.98,-184.08"/>
</a>
</g>
</g>
<!-- Node15 -->
<g id="Node000015" class="node">
<title>Node15</title>
<g id="a_Node000015"><a xlink:title=" ">
<polygon fill="#e0e0e0" stroke="#999999" points="568.5,-184 469.5,-184 469.5,-165 568.5,-165 568.5,-184"/>
<text text-anchor="middle" x="519" y="-172" font-family="Helvetica,sans-Serif" font-size="10.00">QVersionNumber</text>
</a>
</g>
</g>
<!-- Node2&#45;&gt;Node15 -->
<g id="edge15_Node000002_Node000015" class="edge">
<title>Node2&#45;&gt;Node15</title>
<g id="a_edge15_Node000002_Node000015"><a xlink:title=" ">
<path fill="none" stroke="#63b8ff" d="M489.78,-219.75C494.93,-211.95 502.58,-200.37 508.76,-191"/>
<polygon fill="#63b8ff" stroke="#63b8ff" points="513.33,-184.09 511.92,-192.75 511.12,-187.43 508.92,-190.76 508.92,-190.76 508.92,-190.76 511.12,-187.43 505.92,-188.78 513.33,-184.09 513.33,-184.09"/>
</a>
</g>
</g>
<!-- Node4 -->
<g id="Node000004" class="node">
<title>Node4</title>
<g id="a_Node000004"><a xlink:href="qtpokit__global_8h.html" target="_top" xlink:title="Global QtPokit library macros.">
<polygon fill="white" stroke="#666666" points="481.5,-74 386.5,-74 386.5,-55 481.5,-55 481.5,-74"/>
<text text-anchor="middle" x="434" y="-62" font-family="Helvetica,sans-Serif" font-size="10.00">qtpokit_global.h</text>
</a>
</g>
</g>
<!-- Node3&#45;&gt;Node4 -->
<g id="edge3_Node000003_Node000004" class="edge">
<title>Node3&#45;&gt;Node4</title>
<g id="a_edge3_Node000003_Node000004"><a xlink:title=" ">
<path fill="none" stroke="#63b8ff" d="M429.71,-164.97C463.74,-156.93 508.35,-143.9 519,-129 535.47,-105.96 501.49,-87.69 471.72,-76.77"/>
<polygon fill="#63b8ff" stroke="#63b8ff" points="463.88,-74.02 472.62,-73.27 467.66,-75.34 471.43,-76.67 471.43,-76.67 471.43,-76.67 467.66,-75.34 470.24,-80.06 463.88,-74.02 463.88,-74.02"/>
</a>
</g>
</g>
<!-- Node6 -->
<g id="Node000006" class="node">
<title>Node6</title>
<g id="a_Node000006"><a xlink:href="pokitproducts_8h.html" target="_top" xlink:title="Declares the PokitProduct enumeration, and related helper functions.">
<polygon fill="white" stroke="#666666" points="141,-129 49,-129 49,-110 141,-110 141,-129"/>
<text text-anchor="middle" x="95" y="-117" font-family="Helvetica,sans-Serif" font-size="10.00">pokitproducts.h</text>
</a>
</g>
</g>
<!-- Node3&#45;&gt;Node6 -->
<g id="edge5_Node000003_Node000006" class="edge">
<title>Node3&#45;&gt;Node6</title>
<g id="a_edge5_Node000003_Node000006"><a xlink:title=" ">
<path fill="none" stroke="#63b8ff" d="M341.76,-164.98C289.16,-155.5 204.29,-140.2 149.07,-130.25"/>
<polygon fill="#63b8ff" stroke="#63b8ff" points="141.15,-128.82 149.66,-126.7 145.09,-129.53 149.02,-130.24 149.02,-130.24 149.02,-130.24 145.09,-129.53 148.38,-133.78 141.15,-128.82 141.15,-128.82"/>
</a>
</g>
</g>
<!-- Node10 -->
<g id="Node000010" class="node">
<title>Node10</title>
<g id="a_Node000010"><a xlink:title=" ">
<polygon fill="#e0e0e0" stroke="#999999" points="435.5,-129 322.5,-129 322.5,-110 435.5,-110 435.5,-129"/>
<text text-anchor="middle" x="379" y="-117" font-family="Helvetica,sans-Serif" font-size="10.00">QLowEnergyService</text>
</a>
</g>
</g>
<!-- Node3&#45;&gt;Node10 -->
<g id="edge10_Node000003_Node000010" class="edge">
<title>Node3&#45;&gt;Node10</title>
<g id="a_edge10_Node000003_Node000010"><a xlink:title=" ">
<path fill="none" stroke="#63b8ff" d="M387.35,-164.75C385.94,-157.26 383.86,-146.28 382.14,-137.13"/>
<polygon fill="#63b8ff" stroke="#63b8ff" points="380.62,-129.09 385.64,-136.28 381.36,-133.02 382.1,-136.95 382.1,-136.95 382.1,-136.95 381.36,-133.02 378.57,-137.62 380.62,-129.09 380.62,-129.09"/>
</a>
</g>
</g>
<!-- Node11 -->
<g id="Node000011" class="node">
<title>Node11</title>
<g id="a_Node000011"><a xlink:title=" ">
<polygon fill="#e0e0e0" stroke="#999999" points="510,-129 454,-129 454,-110 510,-110 510,-129"/>
<text text-anchor="middle" x="482" y="-117" font-family="Helvetica,sans-Serif" font-size="10.00">QObject</text>
</a>
</g>
</g>
<!-- Node3&#45;&gt;Node11 -->
<g id="edge11_Node000003_Node000011" class="edge">
<title>Node3&#45;&gt;Node11</title>
<g id="a_edge11_Node000003_Node000011"><a xlink:title=" ">
<path fill="none" stroke="#63b8ff" d="M403.94,-164.98C419.04,-156.38 442.53,-142.99 459.81,-133.15"/>
<polygon fill="#63b8ff" stroke="#63b8ff" points="466.79,-129.17 461.62,-136.26 463.31,-131.15 459.84,-133.13 459.84,-133.13 459.84,-133.13 463.31,-131.15 458.05,-130 466.79,-129.17 466.79,-129.17"/>
</a>
</g>
</g>
<!-- Node12 -->
<g id="Node000012" class="node">
<title>Node12</title>
<g id="a_Node000012"><a xlink:title=" ">
<polygon fill="#e0e0e0" stroke="#999999" points="622,-129 566,-129 566,-110 622,-110 622,-129"/>
<text text-anchor="middle" x="594" y="-117" font-family="Helvetica,sans-Serif" font-size="10.00">optional</text>
</a>
</g>
</g>
<!-- Node3&#45;&gt;Node12 -->
<g id="edge12_Node000003_Node000012" class="edge">
<title>Node3&#45;&gt;Node12</title>
<g id="a_edge12_Node000003_Node000012"><a xlink:title=" ">
<path fill="none" stroke="#63b8ff" d="M421.94,-164.98C459.13,-155.37 519.46,-139.77 557.91,-129.83"/>
<polygon fill="#63b8ff" stroke="#63b8ff" points="565.76,-127.8 558.92,-133.29 561.89,-128.8 558.02,-129.8 558.02,-129.8 558.02,-129.8 561.89,-128.8 557.12,-126.32 565.76,-127.8 565.76,-127.8"/>
</a>
</g>
</g>
<!-- Node5 -->
<g id="Node000005" class="node">
<title>Node5</title>
<g id="a_Node000005"><a xlink:title=" ">
<polygon fill="#e0e0e0" stroke="#999999" points="659.5,-19 600.5,-19 600.5,0 659.5,0 659.5,-19"/>
<text text-anchor="middle" x="630" y="-7" font-family="Helvetica,sans-Serif" font-size="10.00">QtGlobal</text>
</a>
</g>
</g>
<!-- Node4&#45;&gt;Node5 -->
<g id="edge4_Node000004_Node000005" class="edge">
<title>Node4&#45;&gt;Node5</title>
<g id="a_edge4_Node000004_Node000005"><a xlink:title=" ">
<path fill="none" stroke="#63b8ff" d="M465.49,-54.98C500,-45.65 555.34,-30.69 592.17,-20.73"/>
<polygon fill="#63b8ff" stroke="#63b8ff" points="600.19,-18.56 593.41,-24.12 596.33,-19.6 592.47,-20.65 592.47,-20.65 592.47,-20.65 596.33,-19.6 591.53,-17.17 600.19,-18.56 600.19,-18.56"/>
</a>
</g>
</g>
<!-- Node6&#45;&gt;Node4 -->
<g id="edge6_Node000006_Node000004" class="edge">
<title>Node6&#45;&gt;Node4</title>
<g id="a_edge6_Node000006_Node000004"><a xlink:title=" ">
<path fill="none" stroke="#63b8ff" d="M141.07,-111.3C202.7,-101.66 311.88,-84.59 378.13,-74.23"/>
<polygon fill="#63b8ff" stroke="#63b8ff" points="386.39,-72.94 379.04,-77.74 382.44,-73.56 378.49,-74.18 378.49,-74.18 378.49,-74.18 382.44,-73.56 377.93,-70.62 386.39,-72.94 386.39,-72.94"/>
</a>
</g>
</g>
<!-- Node7 -->
<g id="Node000007" class="node">
<title>Node7</title>
<g id="a_Node000007"><a xlink:title=" ">
<polygon fill="#e0e0e0" stroke="#999999" points="264,-74 140,-74 140,-55 264,-55 264,-74"/>
<text text-anchor="middle" x="202" y="-62" font-family="Helvetica,sans-Serif" font-size="10.00">QBluetoothDeviceInfo</text>
</a>
</g>
</g>
<!-- Node6&#45;&gt;Node7 -->
<g id="edge7_Node000006_Node000007" class="edge">
<title>Node6&#45;&gt;Node7</title>
<g id="a_edge7_Node000006_Node000007"><a xlink:title=" ">
<path fill="none" stroke="#63b8ff" d="M112.19,-109.98C129.79,-101.27 157.32,-87.63 177.26,-77.75"/>
<polygon fill="#63b8ff" stroke="#63b8ff" points="184.5,-74.17 178.92,-80.95 180.91,-75.95 177.33,-77.72 177.33,-77.72 177.33,-77.72 180.91,-75.95 175.73,-74.5 184.5,-74.17 184.5,-74.17"/>
</a>
</g>
</g>
<!-- Node8 -->
<g id="Node000008" class="node">
<title>Node8</title>
<g id="a_Node000008"><a xlink:title=" ">
<polygon fill="#e0e0e0" stroke="#999999" points="50,-74 0,-74 0,-55 50,-55 50,-74"/>
<text text-anchor="middle" x="25" y="-62" font-family="Helvetica,sans-Serif" font-size="10.00">QFlags</text>
</a>
</g>
</g>
<!-- Node6&#45;&gt;Node8 -->
<g id="edge8_Node000006_Node000008" class="edge">
<title>Node6&#45;&gt;Node8</title>
<g id="a_edge8_Node000006_Node000008"><a xlink:title=" ">
<path fill="none" stroke="#63b8ff" d="M83.75,-109.98C72.8,-101.69 55.96,-88.94 43.11,-79.22"/>
<polygon fill="#63b8ff" stroke="#63b8ff" points="36.45,-74.17 45,-76.13 39.64,-76.58 42.83,-79 42.83,-79 42.83,-79 39.64,-76.58 40.66,-81.87 36.45,-74.17 36.45,-74.17"/>
</a>
</g>
</g>
<!-- Node9 -->
<g id="Node000009" class="node">
<title>Node9</title>
<g id="a_Node000009"><a xlink:title=" ">
<polygon fill="#e0e0e0" stroke="#999999" points="121.5,-74 68.5,-74 68.5,-55 121.5,-55 121.5,-74"/>
<text text-anchor="middle" x="95" y="-62" font-family="Helvetica,sans-Serif" font-size="10.00">QString</text>
</a>
</g>
</g>
<!-- Node6&#45;&gt;Node9 -->
<g id="edge9_Node000006_Node000009" class="edge">
<title>Node6&#45;&gt;Node9</title>
<g id="a_edge9_Node000006_Node000009"><a xlink:title=" ">
<path fill="none" stroke="#63b8ff" d="M95,-109.75C95,-102.26 95,-91.28 95,-82.13"/>
<polygon fill="#63b8ff" stroke="#63b8ff" points="95,-74.09 98.6,-82.09 95,-78.09 95,-82.09 95,-82.09 95,-82.09 95,-78.09 91.4,-82.09 95,-74.09 95,-74.09"/>
</a>
</g>
</g>
<!-- Node16&#45;&gt;Node2 -->
<g id="edge17_Node000016_Node000002" class="edge">
<title>Node16&#45;&gt;Node2</title>
<g id="a_edge17_Node000016_Node000002"><a xlink:title=" ">
<path fill="none" stroke="#63b8ff" d="M414.34,-274.98C427.57,-266.54 448.03,-253.47 463.36,-243.68"/>
<polygon fill="#63b8ff" stroke="#63b8ff" points="470.42,-239.17 465.62,-246.51 467.05,-241.32 463.68,-243.48 463.68,-243.48 463.68,-243.48 467.05,-241.32 461.74,-240.44 470.42,-239.17 470.42,-239.17"/>
</a>
</g>
</g>
<!-- Node17 -->
<g id="Node000017" class="node">
<title>Node17</title>
<g id="a_Node000017"><a xlink:href="abstractpokitservice__p_8h.html" target="_top" xlink:title="Declares the AbstractPokitServicePrivate class.">
<polygon fill="white" stroke="#666666" points="308.5,-184 171.5,-184 171.5,-165 308.5,-165 308.5,-184"/>
<text text-anchor="middle" x="240" y="-172" font-family="Helvetica,sans-Serif" font-size="10.00">abstractpokitservice_p.h</text>
</a>
</g>
</g>
<!-- Node16&#45;&gt;Node17 -->
<g id="edge18_Node000016_Node000017" class="edge">
<title>Node16&#45;&gt;Node17</title>
<g id="a_edge18_Node000016_Node000017"><a xlink:title=" ">
<path fill="none" stroke="#63b8ff" d="M389.04,-274.91C371.75,-262.55 338.7,-239.12 310,-220 293.57,-209.05 274.66,-197.07 260.64,-188.3"/>
<polygon fill="#63b8ff" stroke="#63b8ff" points="253.79,-184.02 262.49,-185.2 257.19,-186.14 260.58,-188.26 260.58,-188.26 260.58,-188.26 257.19,-186.14 258.68,-191.31 253.79,-184.02 253.79,-184.02"/>
</a>
</g>
</g>
<!-- Node17&#45;&gt;Node4 -->
<g id="edge19_Node000017_Node000004" class="edge">
<title>Node17&#45;&gt;Node4</title>
<g id="a_edge19_Node000017_Node000004"><a xlink:title=" ">
<path fill="none" stroke="#63b8ff" d="M223.93,-164.83C203.23,-152.56 171.74,-129.47 188,-110 211.75,-81.57 313.2,-71.27 378.17,-67.56"/>
<polygon fill="#63b8ff" stroke="#63b8ff" points="386.3,-67.12 378.51,-71.15 382.31,-67.34 378.31,-67.55 378.31,-67.55 378.31,-67.55 382.31,-67.34 378.12,-63.96 386.3,-67.12 386.3,-67.12"/>
</a>
</g>
</g>
<!-- Node17&#45;&gt;Node6 -->
<g id="edge20_Node000017_Node000006" class="edge">
<title>Node17&#45;&gt;Node6</title>
<g id="a_edge20_Node000017_Node000006"><a xlink:title=" ">
<path fill="none" stroke="#63b8ff" d="M216.7,-164.98C192.22,-156.04 153.57,-141.91 126.4,-131.98"/>
<polygon fill="#63b8ff" stroke="#63b8ff" points="118.72,-129.17 127.47,-128.54 122.48,-130.54 126.23,-131.92 126.23,-131.92 126.23,-131.92 122.48,-130.54 125,-135.3 118.72,-129.17 118.72,-129.17"/>
</a>
</g>
</g>
<!-- Node17&#45;&gt;Node10 -->
<g id="edge22_Node000017_Node000010" class="edge">
<title>Node17&#45;&gt;Node10</title>
<g id="a_edge22_Node000017_Node000010"><a xlink:title=" ">
<path fill="none" stroke="#63b8ff" d="M262.33,-164.98C285.7,-156.07 322.54,-142.03 348.56,-132.11"/>
<polygon fill="#63b8ff" stroke="#63b8ff" points="356.26,-129.17 350.07,-135.38 352.52,-130.6 348.79,-132.02 348.79,-132.02 348.79,-132.02 352.52,-130.6 347.5,-128.66 356.26,-129.17 356.26,-129.17"/>
</a>
</g>
</g>
<!-- Node17&#45;&gt;Node11 -->
<g id="edge23_Node000017_Node000011" class="edge">
<title>Node17&#45;&gt;Node11</title>
<g id="a_edge23_Node000017_Node000011"><a xlink:title=" ">
<path fill="none" stroke="#63b8ff" d="M279.5,-164.95C320.61,-156.03 386.84,-141.63 444,-129 444.59,-128.87 445.19,-128.74 445.8,-128.6"/>
<polygon fill="#63b8ff" stroke="#63b8ff" points="453.78,-126.83 446.75,-132.08 449.88,-127.7 445.97,-128.56 445.97,-128.56 445.97,-128.56 449.88,-127.7 445.19,-125.05 453.78,-126.83 453.78,-126.83"/>
</a>
</g>
</g>
<!-- Node18 -->
<g id="Node000018" class="node">
<title>Node18</title>
<g id="a_Node000018"><a xlink:title=" ">
<polygon fill="#e0e0e0" stroke="#999999" points="304.5,-129 197.5,-129 197.5,-110 304.5,-110 304.5,-129"/>
<text text-anchor="middle" x="251" y="-117" font-family="Helvetica,sans-Serif" font-size="10.00">QLoggingCategory</text>
</a>
</g>
</g>
<!-- Node17&#45;&gt;Node18 -->
<g id="edge21_Node000017_Node000018" class="edge">
<title>Node17&#45;&gt;Node18</title>
<g id="a_edge21_Node000017_Node000018"><a xlink:title=" ">
<path fill="none" stroke="#63b8ff" d="M241.82,-164.75C243.37,-157.26 245.65,-146.28 247.55,-137.13"/>
<polygon fill="#63b8ff" stroke="#63b8ff" points="249.22,-129.09 251.12,-137.65 248.4,-133.01 247.59,-136.92 247.59,-136.92 247.59,-136.92 248.4,-133.01 244.07,-136.19 249.22,-129.09 249.22,-129.09"/>
</a>
</g>
</g>
<!-- Node19&#45;&gt;Node6 -->
<g id="edge25_Node000019_Node000006" class="edge">
<title>Node19&#45;&gt;Node6</title>
<g id="a_edge25_Node000019_Node000006"><a xlink:title=" ">
<path fill="none" stroke="#63b8ff" d="M214.4,-274.96C200.75,-266.95 180.98,-253.98 167,-239 137.17,-207.04 113.43,-160.8 102.15,-136.61"/>
<polygon fill="#63b8ff" stroke="#63b8ff" points="98.69,-129.04 105.29,-134.82 100.36,-132.68 102.02,-136.32 102.02,-136.32 102.02,-136.32 100.36,-132.68 98.74,-137.81 98.69,-129.04 98.69,-129.04"/>
</a>
</g>
</g>
<!-- Node19&#45;&gt;Node20 -->
<g id="edge26_Node000019_Node000020" class="edge">
<title>Node19&#45;&gt;Node20</title>
<g id="a_edge26_Node000019_Node000020"><a xlink:title=" ">
<path fill="none" stroke="#63b8ff" d="M231.49,-274.75C232.76,-267.26 234.62,-256.28 236.18,-247.13"/>
<polygon fill="#63b8ff" stroke="#63b8ff" points="237.54,-239.09 239.75,-247.58 236.87,-243.03 236.2,-246.98 236.2,-246.98 236.2,-246.98 236.87,-243.03 232.65,-246.37 237.54,-239.09 237.54,-239.09"/>
</a>
</g>
</g>
<!-- Node21&#45;&gt;Node5 -->
<g id="edge28_Node000021_Node000005" class="edge">
<title>Node21&#45;&gt;Node5</title>
<g id="a_edge28_Node000021_Node000005"><a xlink:title=" ">
<path fill="none" stroke="#63b8ff" d="M811.61,-219.85C817.67,-207.2 826.6,-183.21 818,-165 784.29,-93.65 699.69,-44.17 656.4,-22.63"/>
<polygon fill="#63b8ff" stroke="#63b8ff" points="649.07,-19.05 657.84,-19.33 652.67,-20.81 656.26,-22.56 656.26,-22.56 656.26,-22.56 652.67,-20.81 654.68,-25.8 649.07,-19.05 649.07,-19.05"/>
</a>
</g>
</g>
<!-- Node22&#45;&gt;Node3 -->
<g id="edge30_Node000022_Node000003" class="edge">
<title>Node22&#45;&gt;Node3</title>
<g id="a_edge30_Node000022_Node000003"><a xlink:title=" ">
<path fill="none" stroke="#63b8ff" d="M601.35,-219.98C556.85,-210.66 485.52,-195.72 437.97,-185.76"/>
<polygon fill="#63b8ff" stroke="#63b8ff" points="429.97,-184.08 438.54,-182.2 433.88,-184.9 437.8,-185.72 437.8,-185.72 437.8,-185.72 433.88,-184.9 437.06,-189.25 429.97,-184.08 429.97,-184.08"/>
</a>
</g>
</g>
<!-- Node22&#45;&gt;Node13 -->
<g id="edge31_Node000022_Node000013" class="edge">
<title>Node22&#45;&gt;Node13</title>
<g id="a_edge31_Node000022_Node000013"><a xlink:title=" ">
<path fill="none" stroke="#63b8ff" d="M642,-219.75C642,-212.26 642,-201.28 642,-192.13"/>
<polygon fill="#63b8ff" stroke="#63b8ff" points="642,-184.09 645.6,-192.09 642,-188.09 642,-192.09 642,-192.09 642,-192.09 642,-188.09 638.4,-192.09 642,-184.09 642,-184.09"/>
</a>
</g>
</g>
<!-- Node22&#45;&gt;Node14 -->
<g id="edge32_Node000022_Node000014" class="edge">
<title>Node22&#45;&gt;Node14</title>
<g id="a_edge32_Node000022_Node000014"><a xlink:title=" ">
<path fill="none" stroke="#63b8ff" d="M661.28,-219.98C681.19,-211.19 712.44,-197.39 734.84,-187.49"/>
<polygon fill="#63b8ff" stroke="#63b8ff" points="742.37,-184.17 736.51,-190.7 738.71,-185.79 735.05,-187.4 735.05,-187.4 735.05,-187.4 738.71,-185.79 733.6,-184.11 742.37,-184.17 742.37,-184.17"/>
</a>
</g>
</g>
<!-- Node22&#45;&gt;Node15 -->
<g id="edge33_Node000022_Node000015" class="edge">
<title>Node22&#45;&gt;Node15</title>
<g id="a_edge33_Node000022_Node000015"><a xlink:title=" ">
<path fill="none" stroke="#63b8ff" d="M622.24,-219.98C601.74,-211.15 569.52,-197.27 546.53,-187.36"/>
<polygon fill="#63b8ff" stroke="#63b8ff" points="539.12,-184.17 547.89,-184.03 542.8,-185.75 546.47,-187.34 546.47,-187.34 546.47,-187.34 542.8,-185.75 545.04,-190.64 539.12,-184.17 539.12,-184.17"/>
</a>
</g>
</g>
</g>
</svg>
