<?xml version="1.0" encoding="UTF-8" standalone="no"?>
<!DOCTYPE svg PUBLIC "-//W3C//DTD SVG 1.1//EN"
 "http://www.w3.org/Graphics/SVG/1.1/DTD/svg11.dtd">
<!-- Generated by graphviz version 2.43.0 (0)
 -->
<!-- Title: dsoservice_p.h Pages: 1 -->
<svg width="685pt" height="302pt"
 viewBox="0.00 0.00 684.50 302.00" xmlns="http://www.w3.org/2000/svg" xmlns:xlink="http://www.w3.org/1999/xlink">
<g id="graph0" class="graph" transform="scale(1 1) rotate(0) translate(4 298)">
<title>dsoservice_p.h</title>
<!-- Node1 -->
<g id="Node000001" class="node">
<title>Node1</title>
<g id="a_Node000001"><a xlink:title="Declares the DsoServicePrivate class.">
<polygon fill="#999999" stroke="#666666" points="303,-294 214,-294 214,-275 303,-275 303,-294"/>
<text text-anchor="middle" x="258.5" y="-282" font-family="Helvetica,sans-Serif" font-size="10.00">dsoservice_p.h</text>
</a>
</g>
</g>
<!-- Node2 -->
<g id="Node000002" class="node">
<title>Node2</title>
<g id="a_Node000002"><a xlink:href="dsoservice_8h.html" target="_top" xlink:title="Declares the DsoService class.">
<polygon fill="white" stroke="#666666" points="440.5,-239 324.5,-239 324.5,-220 440.5,-220 440.5,-239"/>
<text text-anchor="middle" x="382.5" y="-227" font-family="Helvetica,sans-Serif" font-size="10.00">qtpokit/dsoservice.h</text>
</a>
</g>
</g>
<!-- Node1&#45;&gt;Node2 -->
<g id="edge1_Node000001_Node000002" class="edge">
<title>Node1&#45;&gt;Node2</title>
<g id="a_edge1_Node000001_Node000002"><a xlink:title=" ">
<path fill="none" stroke="#63b8ff" d="M278.42,-274.98C299.09,-266.15 331.57,-252.27 354.74,-242.36"/>
<polygon fill="#63b8ff" stroke="#63b8ff" points="362.21,-239.17 356.27,-245.62 358.54,-240.74 354.86,-242.31 354.86,-242.31 354.86,-242.31 358.54,-240.74 353.44,-239 362.21,-239.17 362.21,-239.17"/>
</a>
</g>
</g>
<!-- Node15 -->
<g id="Node000015" class="node">
<title>Node15</title>
<g id="a_Node000015"><a xlink:href="abstractpokitservice__p_8h.html" target="_top" xlink:title="Declares the AbstractPokitServicePrivate class.">
<polygon fill="white" stroke="#666666" points="137,-184 0,-184 0,-165 137,-165 137,-184"/>
<text text-anchor="middle" x="68.5" y="-172" font-family="Helvetica,sans-Serif" font-size="10.00">abstractpokitservice_p.h</text>
</a>
</g>
</g>
<!-- Node1&#45;&gt;Node15 -->
<g id="edge16_Node000001_Node000015" class="edge">
<title>Node1&#45;&gt;Node15</title>
<g id="a_edge16_Node000001_Node000015"><a xlink:title=" ">
<path fill="none" stroke="#63b8ff" d="M243.27,-274.84C209.84,-255.84 129.88,-210.39 90.78,-188.17"/>
<polygon fill="#63b8ff" stroke="#63b8ff" points="83.54,-184.05 92.27,-184.87 87.01,-186.02 90.49,-188 90.49,-188 90.49,-188 87.01,-186.02 88.71,-191.13 83.54,-184.05 83.54,-184.05"/>
</a>
</g>
</g>
<!-- Node3 -->
<g id="Node000003" class="node">
<title>Node3</title>
<g id="a_Node000003"><a xlink:href="abstractpokitservice_8h.html" target="_top" xlink:title="Declares the AbstractPokitService class.">
<polygon fill="white" stroke="#666666" points="510,-184 385,-184 385,-165 510,-165 510,-184"/>
<text text-anchor="middle" x="447.5" y="-172" font-family="Helvetica,sans-Serif" font-size="10.00">abstractpokitservice.h</text>
</a>
</g>
</g>
<!-- Node2&#45;&gt;Node3 -->
<g id="edge2_Node000002_Node000003" class="edge">
<title>Node2&#45;&gt;Node3</title>
<g id="a_edge2_Node000002_Node000003"><a xlink:title=" ">
<path fill="none" stroke="#63b8ff" d="M392.94,-219.98C403.02,-211.77 418.46,-199.18 430.35,-189.49"/>
<polygon fill="#63b8ff" stroke="#63b8ff" points="436.87,-184.17 432.94,-192.02 433.77,-186.7 430.67,-189.23 430.67,-189.23 430.67,-189.23 433.77,-186.7 428.39,-186.44 436.87,-184.17 436.87,-184.17"/>
</a>
</g>
</g>
<!-- Node6 -->
<g id="Node000006" class="node">
<title>Node6</title>
<g id="a_Node000006"><a xlink:href="pokitproducts_8h.html" target="_top" xlink:title="Declares the PokitProduct enumeration, and related helper functions.">
<polygon fill="white" stroke="#666666" points="525.5,-129 433.5,-129 433.5,-110 525.5,-110 525.5,-129"/>
<text text-anchor="middle" x="479.5" y="-117" font-family="Helvetica,sans-Serif" font-size="10.00">pokitproducts.h</text>
</a>
</g>
</g>
<!-- Node2&#45;&gt;Node6 -->
<g id="edge12_Node000002_Node000006" class="edge">
<title>Node2&#45;&gt;Node6</title>
<g id="a_edge12_Node000002_Node000006"><a xlink:title=" ">
<path fill="none" stroke="#63b8ff" d="M440.66,-224.86C468.99,-219.8 500.71,-208.54 518.5,-184 530.39,-167.59 513.14,-147.49 497.94,-134.36"/>
<polygon fill="#63b8ff" stroke="#63b8ff" points="491.65,-129.19 500.12,-131.49 494.74,-131.73 497.83,-134.27 497.83,-134.27 497.83,-134.27 494.74,-131.73 495.55,-137.05 491.65,-129.19 491.65,-129.19"/>
</a>
</g>
</g>
<!-- Node12 -->
<g id="Node000012" class="node">
<title>Node12</title>
<g id="a_Node000012"><a xlink:title=" ">
<polygon fill="#e0e0e0" stroke="#999999" points="676.5,-184 566.5,-184 566.5,-165 676.5,-165 676.5,-184"/>
<text text-anchor="middle" x="621.5" y="-172" font-family="Helvetica,sans-Serif" font-size="10.00">QBluetoothAddress</text>
</a>
</g>
</g>
<!-- Node2&#45;&gt;Node12 -->
<g id="edge13_Node000002_Node000012" class="edge">
<title>Node2&#45;&gt;Node12</title>
<g id="a_edge13_Node000002_Node000012"><a xlink:title=" ">
<path fill="none" stroke="#63b8ff" d="M420.9,-219.98C462.85,-210.68 530.04,-195.78 574.96,-185.82"/>
<polygon fill="#63b8ff" stroke="#63b8ff" points="582.8,-184.08 575.77,-189.33 578.89,-184.95 574.99,-185.81 574.99,-185.81 574.99,-185.81 578.89,-184.95 574.21,-182.3 582.8,-184.08 582.8,-184.08"/>
</a>
</g>
</g>
<!-- Node13 -->
<g id="Node000013" class="node">
<title>Node13</title>
<g id="a_Node000013"><a xlink:title=" ">
<polygon fill="#e0e0e0" stroke="#999999" points="249.5,-184 155.5,-184 155.5,-165 249.5,-165 249.5,-184"/>
<text text-anchor="middle" x="202.5" y="-172" font-family="Helvetica,sans-Serif" font-size="10.00">QBluetoothUuid</text>
</a>
</g>
</g>
<!-- Node2&#45;&gt;Node13 -->
<g id="edge14_Node000002_Node000013" class="edge">
<title>Node2&#45;&gt;Node13</title>
<g id="a_edge14_Node000002_Node000013"><a xlink:title=" ">
<path fill="none" stroke="#63b8ff" d="M353.58,-219.98C322.57,-210.86 273.26,-196.33 239.46,-186.38"/>
<polygon fill="#63b8ff" stroke="#63b8ff" points="231.65,-184.08 240.34,-182.89 235.48,-185.21 239.32,-186.34 239.32,-186.34 239.32,-186.34 235.48,-185.21 238.3,-189.8 231.65,-184.08 231.65,-184.08"/>
</a>
</g>
</g>
<!-- Node14 -->
<g id="Node000014" class="node">
<title>Node14</title>
<g id="a_Node000014"><a xlink:title=" ">
<polygon fill="#e0e0e0" stroke="#999999" points="367,-184 268,-184 268,-165 367,-165 367,-184"/>
<text text-anchor="middle" x="317.5" y="-172" font-family="Helvetica,sans-Serif" font-size="10.00">QVersionNumber</text>
</a>
</g>
</g>
<!-- Node2&#45;&gt;Node14 -->
<g id="edge15_Node000002_Node000014" class="edge">
<title>Node2&#45;&gt;Node14</title>
<g id="a_edge15_Node000002_Node000014"><a xlink:title=" ">
<path fill="none" stroke="#63b8ff" d="M372.06,-219.98C361.98,-211.77 346.54,-199.18 334.65,-189.49"/>
<polygon fill="#63b8ff" stroke="#63b8ff" points="328.13,-184.17 336.61,-186.44 331.23,-186.7 334.33,-189.23 334.33,-189.23 334.33,-189.23 331.23,-186.7 332.06,-192.02 328.13,-184.17 328.13,-184.17"/>
</a>
</g>
</g>
<!-- Node4 -->
<g id="Node000004" class="node">
<title>Node4</title>
<g id="a_Node000004"><a xlink:href="qtpokit__global_8h.html" target="_top" xlink:title="Global QtPokit library macros.">
<polygon fill="white" stroke="#666666" points="381,-74 286,-74 286,-55 381,-55 381,-74"/>
<text text-anchor="middle" x="333.5" y="-62" font-family="Helvetica,sans-Serif" font-size="10.00">qtpokit_global.h</text>
</a>
</g>
</g>
<!-- Node3&#45;&gt;Node4 -->
<g id="edge3_Node000003_Node000004" class="edge">
<title>Node3&#45;&gt;Node4</title>
<g id="a_edge3_Node000003_Node000004"><a xlink:title=" ">
<path fill="none" stroke="#63b8ff" d="M439.5,-164.58C428.1,-152.03 406.37,-128.59 386.5,-110 374.98,-99.23 361.34,-87.8 350.79,-79.23"/>
<polygon fill="#63b8ff" stroke="#63b8ff" points="344.35,-74.04 352.83,-76.26 347.46,-76.55 350.58,-79.06 350.58,-79.06 350.58,-79.06 347.46,-76.55 348.32,-81.86 344.35,-74.04 344.35,-74.04"/>
</a>
</g>
</g>
<!-- Node3&#45;&gt;Node6 -->
<g id="edge5_Node000003_Node000006" class="edge">
<title>Node3&#45;&gt;Node6</title>
<g id="a_edge5_Node000003_Node000006"><a xlink:title=" ">
<path fill="none" stroke="#63b8ff" d="M452.78,-164.75C457.49,-156.95 464.49,-145.37 470.14,-136"/>
<polygon fill="#63b8ff" stroke="#63b8ff" points="474.31,-129.09 473.26,-137.8 472.25,-132.51 470.18,-135.94 470.18,-135.94 470.18,-135.94 472.25,-132.51 467.1,-134.08 474.31,-129.09 474.31,-129.09"/>
</a>
</g>
</g>
<!-- Node10 -->
<g id="Node000010" class="node">
<title>Node10</title>
<g id="a_Node000010"><a xlink:title=" ">
<polygon fill="#e0e0e0" stroke="#999999" points="303,-129 190,-129 190,-110 303,-110 303,-129"/>
<text text-anchor="middle" x="246.5" y="-117" font-family="Helvetica,sans-Serif" font-size="10.00">QLowEnergyService</text>
</a>
</g>
</g>
<!-- Node3&#45;&gt;Node10 -->
<g id="edge10_Node000003_Node000010" class="edge">
<title>Node3&#45;&gt;Node10</title>
<g id="a_edge10_Node000003_Node000010"><a xlink:title=" ">
<path fill="none" stroke="#63b8ff" d="M415.21,-164.98C380.29,-155.78 324.58,-141.09 286.82,-131.13"/>
<polygon fill="#63b8ff" stroke="#63b8ff" points="279.05,-129.08 287.7,-127.64 282.92,-130.1 286.78,-131.12 286.78,-131.12 286.78,-131.12 282.92,-130.1 285.86,-134.6 279.05,-129.08 279.05,-129.08"/>
</a>
</g>
</g>
<!-- Node11 -->
<g id="Node000011" class="node">
<title>Node11</title>
<g id="a_Node000011"><a xlink:title=" ">
<polygon fill="#e0e0e0" stroke="#999999" points="377.5,-129 321.5,-129 321.5,-110 377.5,-110 377.5,-129"/>
<text text-anchor="middle" x="349.5" y="-117" font-family="Helvetica,sans-Serif" font-size="10.00">QObject</text>
</a>
</g>
</g>
<!-- Node3&#45;&gt;Node11 -->
<g id="edge11_Node000003_Node000011" class="edge">
<title>Node3&#45;&gt;Node11</title>
<g id="a_edge11_Node000003_Node000011"><a xlink:title=" ">
<path fill="none" stroke="#63b8ff" d="M431.75,-164.98C415.85,-156.38 391.09,-142.99 372.89,-133.15"/>
<polygon fill="#63b8ff" stroke="#63b8ff" points="365.53,-129.17 374.28,-129.81 369.05,-131.07 372.57,-132.98 372.57,-132.98 372.57,-132.98 369.05,-131.07 370.86,-136.14 365.53,-129.17 365.53,-129.17"/>
</a>
</g>
</g>
<!-- Node5 -->
<g id="Node000005" class="node">
<title>Node5</title>
<g id="a_Node000005"><a xlink:title=" ">
<polygon fill="#e0e0e0" stroke="#999999" points="363,-19 304,-19 304,0 363,0 363,-19"/>
<text text-anchor="middle" x="333.5" y="-7" font-family="Helvetica,sans-Serif" font-size="10.00">QtGlobal</text>
</a>
</g>
</g>
<!-- Node4&#45;&gt;Node5 -->
<g id="edge4_Node000004_Node000005" class="edge">
<title>Node4&#45;&gt;Node5</title>
<g id="a_edge4_Node000004_Node000005"><a xlink:title=" ">
<path fill="none" stroke="#63b8ff" d="M333.5,-54.75C333.5,-47.26 333.5,-36.28 333.5,-27.13"/>
<polygon fill="#63b8ff" stroke="#63b8ff" points="333.5,-19.09 337.1,-27.09 333.5,-23.09 333.5,-27.09 333.5,-27.09 333.5,-27.09 333.5,-23.09 329.9,-27.09 333.5,-19.09 333.5,-19.09"/>
</a>
</g>
</g>
<!-- Node6&#45;&gt;Node4 -->
<g id="edge6_Node000006_Node000004" class="edge">
<title>Node6&#45;&gt;Node4</title>
<g id="a_edge6_Node000006_Node000004"><a xlink:title=" ">
<path fill="none" stroke="#63b8ff" d="M456.04,-109.98C431.39,-101.04 392.47,-86.91 365.12,-76.98"/>
<polygon fill="#63b8ff" stroke="#63b8ff" points="357.38,-74.17 366.13,-73.52 361.14,-75.54 364.9,-76.9 364.9,-76.9 364.9,-76.9 361.14,-75.54 363.68,-80.28 357.38,-74.17 357.38,-74.17"/>
</a>
</g>
</g>
<!-- Node7 -->
<g id="Node000007" class="node">
<title>Node7</title>
<g id="a_Node000007"><a xlink:title=" ">
<polygon fill="#e0e0e0" stroke="#999999" points="594.5,-74 470.5,-74 470.5,-55 594.5,-55 594.5,-74"/>
<text text-anchor="middle" x="532.5" y="-62" font-family="Helvetica,sans-Serif" font-size="10.00">QBluetoothDeviceInfo</text>
</a>
</g>
</g>
<!-- Node6&#45;&gt;Node7 -->
<g id="edge7_Node000006_Node000007" class="edge">
<title>Node6&#45;&gt;Node7</title>
<g id="a_edge7_Node000006_Node000007"><a xlink:title=" ">
<path fill="none" stroke="#63b8ff" d="M488.25,-109.75C496.36,-101.64 508.56,-89.44 518.1,-79.9"/>
<polygon fill="#63b8ff" stroke="#63b8ff" points="523.91,-74.09 520.8,-82.29 521.08,-76.92 518.25,-79.75 518.25,-79.75 518.25,-79.75 521.08,-76.92 515.71,-77.2 523.91,-74.09 523.91,-74.09"/>
</a>
</g>
</g>
<!-- Node8 -->
<g id="Node000008" class="node">
<title>Node8</title>
<g id="a_Node000008"><a xlink:title=" ">
<polygon fill="#e0e0e0" stroke="#999999" points="662.5,-74 612.5,-74 612.5,-55 662.5,-55 662.5,-74"/>
<text text-anchor="middle" x="637.5" y="-62" font-family="Helvetica,sans-Serif" font-size="10.00">QFlags</text>
</a>
</g>
</g>
<!-- Node6&#45;&gt;Node8 -->
<g id="edge8_Node000006_Node000008" class="edge">
<title>Node6&#45;&gt;Node8</title>
<g id="a_edge8_Node000006_Node000008"><a xlink:title=" ">
<path fill="none" stroke="#63b8ff" d="M504.89,-109.98C532.03,-100.88 575.17,-86.41 604.83,-76.46"/>
<polygon fill="#63b8ff" stroke="#63b8ff" points="612.44,-73.91 606,-79.86 608.65,-75.18 604.85,-76.45 604.85,-76.45 604.85,-76.45 608.65,-75.18 603.71,-73.04 612.44,-73.91 612.44,-73.91"/>
</a>
</g>
</g>
<!-- Node9 -->
<g id="Node000009" class="node">
<title>Node9</title>
<g id="a_Node000009"><a xlink:title=" ">
<polygon fill="#e0e0e0" stroke="#999999" points="452,-74 399,-74 399,-55 452,-55 452,-74"/>
<text text-anchor="middle" x="425.5" y="-62" font-family="Helvetica,sans-Serif" font-size="10.00">QString</text>
</a>
</g>
</g>
<!-- Node6&#45;&gt;Node9 -->
<g id="edge9_Node000006_Node000009" class="edge">
<title>Node6&#45;&gt;Node9</title>
<g id="a_edge9_Node000006_Node000009"><a xlink:title=" ">
<path fill="none" stroke="#63b8ff" d="M470.58,-109.75C462.33,-101.64 449.89,-89.44 440.18,-79.9"/>
<polygon fill="#63b8ff" stroke="#63b8ff" points="434.25,-74.09 442.48,-77.12 437.11,-76.89 439.96,-79.69 439.96,-79.69 439.96,-79.69 437.11,-76.89 437.44,-82.26 434.25,-74.09 434.25,-74.09"/>
</a>
</g>
</g>
<!-- Node15&#45;&gt;Node4 -->
<g id="edge17_Node000015_Node000004" class="edge">
<title>Node15&#45;&gt;Node4</title>
<g id="a_edge17_Node000015_Node000004"><a xlink:title=" ">
<path fill="none" stroke="#63b8ff" d="M62.81,-165C54.66,-151.67 42.07,-125.76 55.5,-110 83.48,-77.19 204.96,-68.47 277.76,-66.21"/>
<polygon fill="#63b8ff" stroke="#63b8ff" points="285.95,-65.98 278.05,-69.81 281.95,-66.1 277.95,-66.21 277.95,-66.21 277.95,-66.21 281.95,-66.1 277.85,-62.61 285.95,-65.98 285.95,-65.98"/>
</a>
</g>
</g>
<!-- Node15&#45;&gt;Node6 -->
<g id="edge18_Node000015_Node000006" class="edge">
<title>Node15&#45;&gt;Node6</title>
<g id="a_edge18_Node000015_Node000006"><a xlink:title=" ">
<path fill="none" stroke="#63b8ff" d="M134.53,-164.98C215.32,-154.57 350.56,-137.13 425.46,-127.47"/>
<polygon fill="#63b8ff" stroke="#63b8ff" points="433.4,-126.45 425.92,-131.04 429.43,-126.96 425.46,-127.47 425.46,-127.47 425.46,-127.47 429.43,-126.96 425,-123.9 433.4,-126.45 433.4,-126.45"/>
</a>
</g>
</g>
<!-- Node15&#45;&gt;Node10 -->
<g id="edge20_Node000015_Node000010" class="edge">
<title>Node15&#45;&gt;Node10</title>
<g id="a_edge20_Node000015_Node000010"><a xlink:title=" ">
<path fill="none" stroke="#63b8ff" d="M97.1,-164.98C127.76,-155.86 176.53,-141.33 209.95,-131.38"/>
<polygon fill="#63b8ff" stroke="#63b8ff" points="217.68,-129.08 211.04,-134.82 213.84,-130.22 210.01,-131.37 210.01,-131.37 210.01,-131.37 213.84,-130.22 208.98,-127.91 217.68,-129.08 217.68,-129.08"/>
</a>
</g>
</g>
<!-- Node15&#45;&gt;Node11 -->
<g id="edge21_Node000015_Node000011" class="edge">
<title>Node15&#45;&gt;Node11</title>
<g id="a_edge21_Node000015_Node000011"><a xlink:title=" ">
<path fill="none" stroke="#63b8ff" d="M118.41,-164.95C167.61,-156.38 244.88,-142.54 311.5,-129 312.1,-128.88 312.7,-128.76 313.3,-128.63"/>
<polygon fill="#63b8ff" stroke="#63b8ff" points="321.3,-126.94 314.22,-132.12 317.39,-127.76 313.48,-128.59 313.48,-128.59 313.48,-128.59 317.39,-127.76 312.73,-125.07 321.3,-126.94 321.3,-126.94"/>
</a>
</g>
</g>
<!-- Node16 -->
<g id="Node000016" class="node">
<title>Node16</title>
<g id="a_Node000016"><a xlink:title=" ">
<polygon fill="#e0e0e0" stroke="#999999" points="172,-129 65,-129 65,-110 172,-110 172,-129"/>
<text text-anchor="middle" x="118.5" y="-117" font-family="Helvetica,sans-Serif" font-size="10.00">QLoggingCategory</text>
</a>
</g>
</g>
<!-- Node15&#45;&gt;Node16 -->
<g id="edge19_Node000015_Node000016" class="edge">
<title>Node15&#45;&gt;Node16</title>
<g id="a_edge19_Node000015_Node000016"><a xlink:title=" ">
<path fill="none" stroke="#63b8ff" d="M76.76,-164.75C84.33,-156.72 95.69,-144.67 104.65,-135.18"/>
<polygon fill="#63b8ff" stroke="#63b8ff" points="110.4,-129.09 107.53,-137.38 107.65,-132 104.91,-134.91 104.91,-134.91 104.91,-134.91 107.65,-132 102.29,-132.44 110.4,-129.09 110.4,-129.09"/>
</a>
</g>
</g>
</g>
</svg>
