<?xml version="1.0" encoding="UTF-8" standalone="no"?>
<!DOCTYPE svg PUBLIC "-//W3C//DTD SVG 1.1//EN"
 "http://www.w3.org/Graphics/SVG/1.1/DTD/svg11.dtd">
<!-- Generated by graphviz version 2.43.0 (0)
 -->
<!-- Title: Graphical Class Hierarchy Pages: 1 -->
<svg width="604pt" height="683pt"
 viewBox="0.00 0.00 604.00 682.50" xmlns="http://www.w3.org/2000/svg" xmlns:xlink="http://www.w3.org/1999/xlink">
<g id="graph0" class="graph" transform="scale(1 1) rotate(0) translate(4 678.5)">
<title>Graphical Class Hierarchy</title>
<!-- Node0 -->
<g id="node1" class="node">
<title>Node0</title>
<g id="a_node1"><a target="_parent" xlink:href="https://doc.qt.io/qt-5/qobject.html" xlink:title=" ">
<polygon fill="none" stroke="black" points="0,-126 0,-145 56,-145 56,-126 0,-126"/>
<text text-anchor="middle" x="28" y="-133" font-family="Helvetica,sans-Serif" font-size="10.00">QObject</text>
</a>
</g>
</g>
<!-- Node1 -->
<g id="node2" class="node">
<title>Node1</title>
<g id="a_node2"><a xlink:href="classAbstractCommand.html" target="_top" xlink:title="The AbstractCommand class provides a consistent base for the classes that implement CLI commands.">
<polygon fill="none" stroke="black" points="115.5,-503 115.5,-522 222.5,-522 222.5,-503 115.5,-503"/>
<text text-anchor="middle" x="169" y="-510" font-family="Helvetica,sans-Serif" font-size="10.00">AbstractCommand</text>
</a>
</g>
</g>
<!-- Node0&#45;&gt;Node1 -->
<g id="edge1" class="edge">
<title>Node0&#45;&gt;Node1</title>
<path fill="none" stroke="midnightblue" d="M32.23,-155.13C39.57,-197.32 59.42,-299.3 92,-379.5 111.92,-428.53 146.79,-481.7 161.34,-502.95"/>
<polygon fill="midnightblue" stroke="midnightblue" points="35.65,-154.37 30.53,-145.1 28.75,-155.54 35.65,-154.37"/>
</g>
<!-- Node11 -->
<g id="node12" class="node">
<title>Node11</title>
<g id="a_node12"><a xlink:href="classAbstractPokitService.html" target="_top" xlink:title="The AbstractPokitService class provides a common base for Pokit services classes.">
<polygon fill="none" stroke="black" points="110,-351 110,-370 228,-370 228,-351 110,-351"/>
<text text-anchor="middle" x="169" y="-358" font-family="Helvetica,sans-Serif" font-size="10.00">AbstractPokitService</text>
</a>
</g>
</g>
<!-- Node0&#45;&gt;Node11 -->
<g id="edge11" class="edge">
<title>Node0&#45;&gt;Node11</title>
<path fill="none" stroke="midnightblue" d="M40.26,-153.73C68.35,-199.19 140.79,-316.45 162.05,-350.87"/>
<polygon fill="midnightblue" stroke="midnightblue" points="43.21,-151.84 34.97,-145.17 37.25,-155.51 43.21,-151.84"/>
</g>
<!-- Node18 -->
<g id="node19" class="node">
<title>Node18</title>
<g id="a_node19"><a xlink:href="classAbstractPokitServicePrivate.html" target="_top" xlink:title="The AbstractPokitServicePrivate class provides private implementation for AbstractPokitService.">
<polygon fill="none" stroke="black" points="93,-164 93,-183 245,-183 245,-164 93,-164"/>
<text text-anchor="middle" x="169" y="-171" font-family="Helvetica,sans-Serif" font-size="10.00">AbstractPokitServicePrivate</text>
</a>
</g>
</g>
<!-- Node0&#45;&gt;Node18 -->
<g id="edge18" class="edge">
<title>Node0&#45;&gt;Node18</title>
<path fill="none" stroke="midnightblue" d="M65.92,-146.96C74.46,-149.52 83.53,-152.17 92,-154.5 103.8,-157.75 116.7,-161.07 128.46,-164"/>
<polygon fill="midnightblue" stroke="midnightblue" points="66.79,-143.56 56.21,-144.02 64.76,-150.26 66.79,-143.56"/>
</g>
<!-- Node25 -->
<g id="node26" class="node">
<title>Node25</title>
<g id="a_node26"><a xlink:href="classPokitDevice.html" target="_top" xlink:title="The PokitDevice class simplifies Pokit device access.">
<polygon fill="none" stroke="black" points="131.5,-126 131.5,-145 206.5,-145 206.5,-126 131.5,-126"/>
<text text-anchor="middle" x="169" y="-133" font-family="Helvetica,sans-Serif" font-size="10.00">PokitDevice</text>
</a>
</g>
</g>
<!-- Node0&#45;&gt;Node25 -->
<g id="edge25" class="edge">
<title>Node0&#45;&gt;Node25</title>
<path fill="none" stroke="midnightblue" d="M66.23,-135.5C86.45,-135.5 111.36,-135.5 131.47,-135.5"/>
<polygon fill="midnightblue" stroke="midnightblue" points="66.13,-132 56.13,-135.5 66.13,-139 66.13,-132"/>
</g>
<!-- Node26 -->
<g id="node27" class="node">
<title>Node26</title>
<g id="a_node27"><a xlink:href="classPokitDevicePrivate.html" target="_top" xlink:title="The PokitDevicePrivate class provides private implementation for PokitDevice.">
<polygon fill="none" stroke="black" points="114,-88 114,-107 224,-107 224,-88 114,-88"/>
<text text-anchor="middle" x="169" y="-95" font-family="Helvetica,sans-Serif" font-size="10.00">PokitDevicePrivate</text>
</a>
</g>
</g>
<!-- Node0&#45;&gt;Node26 -->
<g id="edge26" class="edge">
<title>Node0&#45;&gt;Node26</title>
<path fill="none" stroke="midnightblue" d="M65.92,-124.04C74.46,-121.48 83.53,-118.83 92,-116.5 103.8,-113.25 116.7,-109.93 128.46,-107"/>
<polygon fill="midnightblue" stroke="midnightblue" points="64.76,-120.74 56.21,-126.98 66.79,-127.44 64.76,-120.74"/>
</g>
<!-- Node27 -->
<g id="node28" class="node">
<title>Node27</title>
<g id="a_node28"><a xlink:href="classPokitDiscoveryAgentPrivate.html" target="_top" xlink:title="The PokitDiscoveryAgentPrivate class provides private implementation for PokitDiscoveryAgent.">
<polygon fill="none" stroke="black" points="92.5,-50 92.5,-69 245.5,-69 245.5,-50 92.5,-50"/>
<text text-anchor="middle" x="169" y="-57" font-family="Helvetica,sans-Serif" font-size="10.00">PokitDiscoveryAgentPrivate</text>
</a>
</g>
</g>
<!-- Node0&#45;&gt;Node27 -->
<g id="edge27" class="edge">
<title>Node0&#45;&gt;Node27</title>
<path fill="none" stroke="midnightblue" d="M43.77,-118.16C55.58,-105.37 73.21,-88.53 92,-78.5 99.2,-74.66 107.2,-71.57 115.23,-69.1"/>
<polygon fill="midnightblue" stroke="midnightblue" points="40.95,-116.07 36.9,-125.86 46.17,-120.73 40.95,-116.07"/>
</g>
<!-- Node28 -->
<g id="node29" class="node">
<title>Node28</title>
<g id="a_node29"><a target="_parent" xlink:href="https://doc.qt.io/qt-5/qbluetoothdevicediscoveryagent.html" xlink:title=" ">
<polygon fill="none" stroke="black" points="92,-0.5 92,-30.5 246,-30.5 246,-0.5 92,-0.5"/>
<text text-anchor="start" x="100" y="-18.5" font-family="Helvetica,sans-Serif" font-size="10.00">QBluetoothDeviceDiscovery</text>
<text text-anchor="middle" x="169" y="-7.5" font-family="Helvetica,sans-Serif" font-size="10.00">Agent</text>
</a>
</g>
</g>
<!-- Node0&#45;&gt;Node28 -->
<g id="edge28" class="edge">
<title>Node0&#45;&gt;Node28</title>
<path fill="none" stroke="midnightblue" d="M36.92,-116.53C46.79,-95.1 65.63,-60.61 92,-40.5 97.08,-36.63 102.79,-33.34 108.74,-30.55"/>
<polygon fill="midnightblue" stroke="midnightblue" points="33.63,-115.31 32.8,-125.87 40.03,-118.13 33.63,-115.31"/>
</g>
<!-- Node2 -->
<g id="node3" class="node">
<title>Node2</title>
<g id="a_node3"><a xlink:href="classDeviceCommand.html" target="_top" xlink:title="The AbstractCommand class extends AbstractCommand to add a PokitDevice instance.">
<polygon fill="none" stroke="black" points="310.5,-541 310.5,-560 411.5,-560 411.5,-541 310.5,-541"/>
<text text-anchor="middle" x="361" y="-548" font-family="Helvetica,sans-Serif" font-size="10.00">DeviceCommand</text>
</a>
</g>
</g>
<!-- Node1&#45;&gt;Node2 -->
<g id="edge2" class="edge">
<title>Node1&#45;&gt;Node2</title>
<path fill="none" stroke="midnightblue" d="M228.05,-524.11C255.07,-529.51 286.82,-535.86 312.4,-540.98"/>
<polygon fill="midnightblue" stroke="midnightblue" points="228.44,-520.62 217.95,-522.09 227.06,-527.48 228.44,-520.62"/>
</g>
<!-- Node10 -->
<g id="node11" class="node">
<title>Node10</title>
<g id="a_node11"><a xlink:href="classScanCommand.html" target="_top" xlink:title="The ScanCommand class implements the scan CLI command, by scanning for nearby Pokit Bluetooth devices...">
<polygon fill="none" stroke="black" points="316,-503 316,-522 406,-522 406,-503 316,-503"/>
<text text-anchor="middle" x="361" y="-510" font-family="Helvetica,sans-Serif" font-size="10.00">ScanCommand</text>
</a>
</g>
</g>
<!-- Node1&#45;&gt;Node10 -->
<g id="edge10" class="edge">
<title>Node1&#45;&gt;Node10</title>
<path fill="none" stroke="midnightblue" d="M232.88,-512.5C260.07,-512.5 291.23,-512.5 315.9,-512.5"/>
<polygon fill="midnightblue" stroke="midnightblue" points="232.67,-509 222.67,-512.5 232.67,-516 232.67,-509"/>
</g>
<!-- Node3 -->
<g id="node4" class="node">
<title>Node3</title>
<g id="a_node4"><a xlink:href="classCalibrationCommand.html" target="_top" xlink:title="The CalibrationCommand class implements the calibrate CLI command.">
<polygon fill="none" stroke="black" points="476,-655 476,-674 596,-674 596,-655 476,-655"/>
<text text-anchor="middle" x="536" y="-662" font-family="Helvetica,sans-Serif" font-size="10.00">CalibrationCommand</text>
</a>
</g>
</g>
<!-- Node2&#45;&gt;Node3 -->
<g id="edge3" class="edge">
<title>Node2&#45;&gt;Node3</title>
<path fill="none" stroke="midnightblue" d="M378.22,-567.56C399.05,-588.58 437.17,-624.13 476,-645.5 482.79,-649.24 490.42,-652.37 497.9,-654.95"/>
<polygon fill="midnightblue" stroke="midnightblue" points="380.6,-564.99 371.12,-560.28 375.59,-569.88 380.6,-564.99"/>
</g>
<!-- Node4 -->
<g id="node5" class="node">
<title>Node4</title>
<g id="a_node5"><a xlink:href="classFlashLedCommand.html" target="_top" xlink:title="The FlashLedCommand class implements the flash&#45;led CLI command.">
<polygon fill="none" stroke="black" points="481,-617 481,-636 591,-636 591,-617 481,-617"/>
<text text-anchor="middle" x="536" y="-624" font-family="Helvetica,sans-Serif" font-size="10.00">FlashLedCommand</text>
</a>
</g>
</g>
<!-- Node2&#45;&gt;Node4 -->
<g id="edge4" class="edge">
<title>Node2&#45;&gt;Node4</title>
<path fill="none" stroke="midnightblue" d="M388.02,-564.94C410.79,-577.22 444.99,-594.84 476,-607.5 484.37,-610.92 493.6,-614.14 502.22,-616.92"/>
<polygon fill="midnightblue" stroke="midnightblue" points="389.46,-561.73 379,-560.03 386.11,-567.88 389.46,-561.73"/>
</g>
<!-- Node5 -->
<g id="node6" class="node">
<title>Node5</title>
<g id="a_node6"><a xlink:href="classInfoCommand.html" target="_top" xlink:title="The InfoCommand class implements the info CLI command.">
<polygon fill="none" stroke="black" points="493,-579 493,-598 579,-598 579,-579 493,-579"/>
<text text-anchor="middle" x="536" y="-586" font-family="Helvetica,sans-Serif" font-size="10.00">InfoCommand</text>
</a>
</g>
</g>
<!-- Node2&#45;&gt;Node5 -->
<g id="edge5" class="edge">
<title>Node2&#45;&gt;Node5</title>
<path fill="none" stroke="midnightblue" d="M415.66,-562.29C440.51,-567.75 469.61,-574.14 492.85,-579.24"/>
<polygon fill="midnightblue" stroke="midnightblue" points="416.17,-558.82 405.66,-560.09 414.67,-565.65 416.17,-558.82"/>
</g>
<!-- Node6 -->
<g id="node7" class="node">
<title>Node6</title>
<g id="a_node7"><a xlink:href="classLoggerCommand.html" target="_top" xlink:title="The LoggerCommand class implements the logger CLI command.">
<polygon fill="none" stroke="black" points="486,-541 486,-560 586,-560 586,-541 486,-541"/>
<text text-anchor="middle" x="536" y="-548" font-family="Helvetica,sans-Serif" font-size="10.00">LoggerCommand</text>
</a>
</g>
</g>
<!-- Node2&#45;&gt;Node6 -->
<g id="edge6" class="edge">
<title>Node2&#45;&gt;Node6</title>
<path fill="none" stroke="midnightblue" d="M421.63,-550.5C442.53,-550.5 465.76,-550.5 485.72,-550.5"/>
<polygon fill="midnightblue" stroke="midnightblue" points="421.57,-547 411.57,-550.5 421.57,-554 421.57,-547"/>
</g>
<!-- Node7 -->
<g id="node8" class="node">
<title>Node7</title>
<g id="a_node8"><a xlink:href="classMeterCommand.html" target="_top" xlink:title="The MeterCommand class implements the meter CLI command.">
<polygon fill="none" stroke="black" points="488.5,-503 488.5,-522 583.5,-522 583.5,-503 488.5,-503"/>
<text text-anchor="middle" x="536" y="-510" font-family="Helvetica,sans-Serif" font-size="10.00">MeterCommand</text>
</a>
</g>
</g>
<!-- Node2&#45;&gt;Node7 -->
<g id="edge7" class="edge">
<title>Node2&#45;&gt;Node7</title>
<path fill="none" stroke="midnightblue" d="M415.51,-538.75C439.97,-533.37 468.57,-527.09 491.66,-522.02"/>
<polygon fill="midnightblue" stroke="midnightblue" points="414.67,-535.35 405.66,-540.91 416.17,-542.18 414.67,-535.35"/>
</g>
<!-- Node8 -->
<g id="node9" class="node">
<title>Node8</title>
<g id="a_node9"><a xlink:href="classSetNameCommand.html" target="_top" xlink:title="The SetNameCommand class implements the set&#45;name CLI command.">
<polygon fill="none" stroke="black" points="480,-465 480,-484 592,-484 592,-465 480,-465"/>
<text text-anchor="middle" x="536" y="-472" font-family="Helvetica,sans-Serif" font-size="10.00">SetNameCommand</text>
</a>
</g>
</g>
<!-- Node2&#45;&gt;Node8 -->
<g id="edge8" class="edge">
<title>Node2&#45;&gt;Node8</title>
<path fill="none" stroke="midnightblue" d="M421.19,-539.96C427.75,-537.67 434.17,-534.88 440,-531.5 460.12,-519.83 456.31,-505.9 476,-493.5 482.01,-489.72 488.84,-486.62 495.67,-484.11"/>
<polygon fill="midnightblue" stroke="midnightblue" points="420.02,-536.65 411.51,-542.97 422.1,-543.34 420.02,-536.65"/>
</g>
<!-- Node9 -->
<g id="node10" class="node">
<title>Node9</title>
<g id="a_node10"><a xlink:href="classStatusCommand.html" target="_top" xlink:title="The StatusCommand class implements the status CLI command.">
<polygon fill="none" stroke="black" points="487,-427 487,-446 585,-446 585,-427 487,-427"/>
<text text-anchor="middle" x="536" y="-434" font-family="Helvetica,sans-Serif" font-size="10.00">StatusCommand</text>
</a>
</g>
</g>
<!-- Node2&#45;&gt;Node9 -->
<g id="edge9" class="edge">
<title>Node2&#45;&gt;Node9</title>
<path fill="none" stroke="midnightblue" d="M421.59,-542C428.23,-539.36 434.56,-535.94 440,-531.5 468.98,-507.89 447.9,-480.14 476,-455.5 480.45,-451.6 485.71,-448.49 491.23,-446.03"/>
<polygon fill="midnightblue" stroke="midnightblue" points="420.04,-538.83 411.69,-545.34 422.28,-545.46 420.04,-538.83"/>
</g>
<!-- Node12 -->
<g id="node13" class="node">
<title>Node12</title>
<g id="a_node13"><a xlink:href="classCalibrationService.html" target="_top" xlink:title="The CalibrationService class accesses the Calibrartion service of Pokit devices.">
<polygon fill="none" stroke="black" points="308,-465 308,-484 414,-484 414,-465 308,-465"/>
<text text-anchor="middle" x="361" y="-472" font-family="Helvetica,sans-Serif" font-size="10.00">CalibrationService</text>
</a>
</g>
</g>
<!-- Node11&#45;&gt;Node12 -->
<g id="edge12" class="edge">
<title>Node11&#45;&gt;Node12</title>
<path fill="none" stroke="midnightblue" d="M185.32,-377.7C205.4,-399.17 242.72,-435.49 282,-455.5 289.95,-459.55 298.8,-462.76 307.6,-465.3"/>
<polygon fill="midnightblue" stroke="midnightblue" points="187.84,-375.27 178.5,-370.27 182.68,-380 187.84,-375.27"/>
</g>
<!-- Node13 -->
<g id="node14" class="node">
<title>Node13</title>
<g id="a_node14"><a xlink:href="classDataLoggerService.html" target="_top" xlink:title="The DataLoggerService class accesses the Pokit Status service of Pokit devices.">
<polygon fill="none" stroke="black" points="306.5,-427 306.5,-446 415.5,-446 415.5,-427 306.5,-427"/>
<text text-anchor="middle" x="361" y="-434" font-family="Helvetica,sans-Serif" font-size="10.00">DataLoggerService</text>
</a>
</g>
</g>
<!-- Node11&#45;&gt;Node13 -->
<g id="edge13" class="edge">
<title>Node11&#45;&gt;Node13</title>
<path fill="none" stroke="midnightblue" d="M194.55,-375.09C216.75,-387.78 250.67,-405.89 282,-417.5 291.93,-421.18 302.84,-424.35 313.27,-426.99"/>
<polygon fill="midnightblue" stroke="midnightblue" points="196.2,-372 185.79,-370.02 192.69,-378.06 196.2,-372"/>
</g>
<!-- Node14 -->
<g id="node15" class="node">
<title>Node14</title>
<g id="a_node15"><a xlink:href="classDeviceInfoService.html" target="_top" xlink:title="The DeviceInfoService class accesses the Device Info service of Pokit devices.">
<polygon fill="none" stroke="black" points="308.5,-389 308.5,-408 413.5,-408 413.5,-389 308.5,-389"/>
<text text-anchor="middle" x="361" y="-396" font-family="Helvetica,sans-Serif" font-size="10.00">DeviceInfoService</text>
</a>
</g>
</g>
<!-- Node11&#45;&gt;Node14 -->
<g id="edge14" class="edge">
<title>Node11&#45;&gt;Node14</title>
<path fill="none" stroke="midnightblue" d="M228.05,-372.11C255.07,-377.51 286.82,-383.86 312.4,-388.98"/>
<polygon fill="midnightblue" stroke="midnightblue" points="228.44,-368.62 217.95,-370.09 227.06,-375.48 228.44,-368.62"/>
</g>
<!-- Node15 -->
<g id="node16" class="node">
<title>Node15</title>
<g id="a_node16"><a xlink:href="classGenericAccessService.html" target="_top" xlink:title="The GenericAccessService class accesses the Generic Access service of Pokit devices.">
<polygon fill="none" stroke="black" points="299,-351 299,-370 423,-370 423,-351 299,-351"/>
<text text-anchor="middle" x="361" y="-358" font-family="Helvetica,sans-Serif" font-size="10.00">GenericAccessService</text>
</a>
</g>
</g>
<!-- Node11&#45;&gt;Node15 -->
<g id="edge15" class="edge">
<title>Node11&#45;&gt;Node15</title>
<path fill="none" stroke="midnightblue" d="M238.2,-360.5C257.95,-360.5 279.39,-360.5 298.69,-360.5"/>
<polygon fill="midnightblue" stroke="midnightblue" points="238.04,-357 228.04,-360.5 238.04,-364 238.04,-357"/>
</g>
<!-- Node16 -->
<g id="node17" class="node">
<title>Node16</title>
<g id="a_node17"><a xlink:href="classMultimeterService.html" target="_top" xlink:title="The MultimeterService class accesses the Pokit Status service of Pokit devices.">
<polygon fill="none" stroke="black" points="307.5,-313 307.5,-332 414.5,-332 414.5,-313 307.5,-313"/>
<text text-anchor="middle" x="361" y="-320" font-family="Helvetica,sans-Serif" font-size="10.00">MultimeterService</text>
</a>
</g>
</g>
<!-- Node11&#45;&gt;Node16 -->
<g id="edge16" class="edge">
<title>Node11&#45;&gt;Node16</title>
<path fill="none" stroke="midnightblue" d="M228.05,-348.89C255.07,-343.49 286.82,-337.14 312.4,-332.02"/>
<polygon fill="midnightblue" stroke="midnightblue" points="227.06,-345.52 217.95,-350.91 228.44,-352.38 227.06,-345.52"/>
</g>
<!-- Node17 -->
<g id="node18" class="node">
<title>Node17</title>
<g id="a_node18"><a xlink:href="classStatusService.html" target="_top" xlink:title="The StatusService class accesses the Pokit Status service of Pokit devices.">
<polygon fill="none" stroke="black" points="319.5,-275 319.5,-294 402.5,-294 402.5,-275 319.5,-275"/>
<text text-anchor="middle" x="361" y="-282" font-family="Helvetica,sans-Serif" font-size="10.00">StatusService</text>
</a>
</g>
</g>
<!-- Node11&#45;&gt;Node17 -->
<g id="edge17" class="edge">
<title>Node11&#45;&gt;Node17</title>
<path fill="none" stroke="midnightblue" d="M194.55,-345.91C216.75,-333.22 250.67,-315.11 282,-303.5 293.89,-299.09 307.19,-295.42 319.38,-292.51"/>
<polygon fill="midnightblue" stroke="midnightblue" points="192.69,-342.94 185.79,-350.98 196.2,-349 192.69,-342.94"/>
</g>
<!-- Node19 -->
<g id="node20" class="node">
<title>Node19</title>
<g id="a_node20"><a xlink:href="classCalibrationServicePrivate.html" target="_top" xlink:title="The CalibrationServicePrivate class provides private implementation for CalibrationService.">
<polygon fill="none" stroke="black" points="291,-237 291,-256 431,-256 431,-237 291,-237"/>
<text text-anchor="middle" x="361" y="-244" font-family="Helvetica,sans-Serif" font-size="10.00">CalibrationServicePrivate</text>
</a>
</g>
</g>
<!-- Node18&#45;&gt;Node19 -->
<g id="edge19" class="edge">
<title>Node18&#45;&gt;Node19</title>
<path fill="none" stroke="midnightblue" d="M195.8,-187.87C218.08,-199.8 251.42,-216.54 282,-227.5 292.1,-231.12 303.18,-234.28 313.74,-236.93"/>
<polygon fill="midnightblue" stroke="midnightblue" points="197.43,-184.77 186.97,-183.08 194.09,-190.92 197.43,-184.77"/>
</g>
<!-- Node20 -->
<g id="node21" class="node">
<title>Node20</title>
<g id="a_node21"><a xlink:href="classDataLoggerServicePrivate.html" target="_top" xlink:title="The DataLoggerServicePrivate class provides private implementation for DataLoggerService.">
<polygon fill="none" stroke="black" points="289.5,-199 289.5,-218 432.5,-218 432.5,-199 289.5,-199"/>
<text text-anchor="middle" x="361" y="-206" font-family="Helvetica,sans-Serif" font-size="10.00">DataLoggerServicePrivate</text>
</a>
</g>
</g>
<!-- Node18&#45;&gt;Node20 -->
<g id="edge20" class="edge">
<title>Node18&#45;&gt;Node20</title>
<path fill="none" stroke="midnightblue" d="M231.69,-184.86C256.45,-189.43 284.68,-194.63 308.34,-198.98"/>
<polygon fill="midnightblue" stroke="midnightblue" points="232.14,-181.39 221.67,-183.02 230.87,-188.27 232.14,-181.39"/>
</g>
<!-- Node21 -->
<g id="node22" class="node">
<title>Node21</title>
<g id="a_node22"><a xlink:href="classDeviceInfoServicePrivate.html" target="_top" xlink:title="The DeviceInfoServicePrivate class provides private implementation for DeviceInfoService.">
<polygon fill="none" stroke="black" points="291,-161 291,-180 431,-180 431,-161 291,-161"/>
<text text-anchor="middle" x="361" y="-168" font-family="Helvetica,sans-Serif" font-size="10.00">DeviceInfoServicePrivate</text>
</a>
</g>
</g>
<!-- Node18&#45;&gt;Node21 -->
<g id="edge21" class="edge">
<title>Node18&#45;&gt;Node21</title>
<path fill="none" stroke="midnightblue" d="M255.4,-172.15C267.22,-171.96 279.23,-171.78 290.7,-171.59"/>
<polygon fill="midnightblue" stroke="midnightblue" points="255.04,-168.66 245.09,-172.31 255.15,-175.66 255.04,-168.66"/>
</g>
<!-- Node22 -->
<g id="node23" class="node">
<title>Node22</title>
<g id="a_node23"><a xlink:href="classGenericAccessServicePrivate.html" target="_top" xlink:title="The GenericAccessServicePrivate class provides private implementation for GenericAccessService.">
<polygon fill="none" stroke="black" points="282,-123 282,-142 440,-142 440,-123 282,-123"/>
<text text-anchor="middle" x="361" y="-130" font-family="Helvetica,sans-Serif" font-size="10.00">GenericAccessServicePrivate</text>
</a>
</g>
</g>
<!-- Node18&#45;&gt;Node22 -->
<g id="edge22" class="edge">
<title>Node18&#45;&gt;Node22</title>
<path fill="none" stroke="midnightblue" d="M224.06,-161.84C253.1,-155.57 288.47,-147.94 315.84,-142.03"/>
<polygon fill="midnightblue" stroke="midnightblue" points="223.1,-158.46 214.07,-163.99 224.58,-165.3 223.1,-158.46"/>
</g>
<!-- Node23 -->
<g id="node24" class="node">
<title>Node23</title>
<g id="a_node24"><a xlink:href="classMultimeterServicePrivate.html" target="_top" xlink:title="The MultimeterServicePrivate class provides private implementation for MultimeterService.">
<polygon fill="none" stroke="black" points="290.5,-85 290.5,-104 431.5,-104 431.5,-85 290.5,-85"/>
<text text-anchor="middle" x="361" y="-92" font-family="Helvetica,sans-Serif" font-size="10.00">MultimeterServicePrivate</text>
</a>
</g>
</g>
<!-- Node18&#45;&gt;Node23 -->
<g id="edge23" class="edge">
<title>Node18&#45;&gt;Node23</title>
<path fill="none" stroke="midnightblue" d="M234.61,-160.35C238.57,-158.63 242.41,-156.69 246,-154.5 266.7,-141.87 261.26,-126.06 282,-113.5 288.44,-109.6 295.63,-106.5 302.97,-104.04"/>
<polygon fill="midnightblue" stroke="midnightblue" points="233.26,-157.11 225.17,-163.96 235.76,-163.65 233.26,-157.11"/>
</g>
<!-- Node24 -->
<g id="node25" class="node">
<title>Node24</title>
<g id="a_node25"><a xlink:href="classStatusServicePrivate.html" target="_top" xlink:title="The StatusServicePrivate class provides private implementation for StatusService.">
<polygon fill="none" stroke="black" points="302,-47 302,-66 420,-66 420,-47 302,-47"/>
<text text-anchor="middle" x="361" y="-54" font-family="Helvetica,sans-Serif" font-size="10.00">StatusServicePrivate</text>
</a>
</g>
</g>
<!-- Node18&#45;&gt;Node24 -->
<g id="edge24" class="edge">
<title>Node18&#45;&gt;Node24</title>
<path fill="none" stroke="midnightblue" d="M239.61,-159.1C241.85,-157.71 243.99,-156.17 246,-154.5 275.66,-129.82 252.27,-100.09 282,-75.5 287.8,-70.7 294.62,-67.08 301.78,-64.36"/>
<polygon fill="midnightblue" stroke="midnightblue" points="237.79,-156.11 230.57,-163.87 241.05,-162.3 237.79,-156.11"/>
</g>
<!-- Node29 -->
<g id="node30" class="node">
<title>Node29</title>
<g id="a_node30"><a xlink:href="classPokitDiscoveryAgent.html" target="_top" xlink:title="The PokitDiscoveryAgent class discovers nearby Pokit devices.">
<polygon fill="none" stroke="black" points="301.5,-6 301.5,-25 420.5,-25 420.5,-6 301.5,-6"/>
<text text-anchor="middle" x="361" y="-13" font-family="Helvetica,sans-Serif" font-size="10.00">PokitDiscoveryAgent</text>
</a>
</g>
</g>
<!-- Node28&#45;&gt;Node29 -->
<g id="edge29" class="edge">
<title>Node28&#45;&gt;Node29</title>
<path fill="none" stroke="midnightblue" d="M256.61,-15.5C271.75,-15.5 287.19,-15.5 301.35,-15.5"/>
<polygon fill="midnightblue" stroke="midnightblue" points="256.19,-12 246.19,-15.5 256.19,-19 256.19,-12"/>
</g>
</g>
</svg>
