<?xml version="1.0" encoding="UTF-8" standalone="no"?>
<!DOCTYPE svg PUBLIC "-//W3C//DTD SVG 1.1//EN"
 "http://www.w3.org/Graphics/SVG/1.1/DTD/svg11.dtd">
<!-- Generated by graphviz version 2.43.0 (0)
 -->
<!-- Title: multimeterservice.cpp Pages: 1 -->
<svg width="1031pt" height="357pt"
 viewBox="0.00 0.00 1030.81 357.00" xmlns="http://www.w3.org/2000/svg" xmlns:xlink="http://www.w3.org/1999/xlink">
<g id="graph0" class="graph" transform="scale(1 1) rotate(0) translate(4 353)">
<title>multimeterservice.cpp</title>
<!-- Node1 -->
<g id="Node000001" class="node">
<title>Node1</title>
<g id="a_Node000001"><a xlink:title="Defines the MultimeterService and MultimeterServicePrivate classes.">
<polygon fill="#999999" stroke="#666666" points="545,-349 418,-349 418,-330 545,-330 545,-349"/>
<text text-anchor="middle" x="481.5" y="-337" font-family="Helvetica,sans-Serif" font-size="10.00">multimeterservice.cpp</text>
</a>
</g>
</g>
<!-- Node2 -->
<g id="Node000002" class="node">
<title>Node2</title>
<g id="a_Node000002"><a xlink:href="multimeterservice_8h.html" target="_top" xlink:title="Declares the MultimeterService class.">
<polygon fill="white" stroke="#666666" points="558,-239 405,-239 405,-220 558,-220 558,-239"/>
<text text-anchor="middle" x="481.5" y="-227" font-family="Helvetica,sans-Serif" font-size="10.00">qtpokit/multimeterservice.h</text>
</a>
</g>
</g>
<!-- Node1&#45;&gt;Node2 -->
<g id="edge1_Node000001_Node000002" class="edge">
<title>Node1&#45;&gt;Node2</title>
<g id="a_edge1_Node000001_Node000002"><a xlink:title=" ">
<path fill="none" stroke="#63b8ff" d="M455.65,-329.99C439.23,-323.09 419.3,-311.58 409.5,-294 397.14,-271.84 424.95,-253.58 449.52,-242.41"/>
<polygon fill="#63b8ff" stroke="#63b8ff" points="456.99,-239.18 451.08,-245.66 453.32,-240.77 449.65,-242.36 449.65,-242.36 449.65,-242.36 453.32,-240.77 448.22,-239.05 456.99,-239.18 456.99,-239.18"/>
</a>
</g>
</g>
<!-- Node16 -->
<g id="Node000016" class="node">
<title>Node16</title>
<g id="a_Node000016"><a xlink:href="multimeterservice__p_8h.html" target="_top" xlink:title="Declares the MultimeterServicePrivate class.">
<polygon fill="white" stroke="#666666" points="545,-294 418,-294 418,-275 545,-275 545,-294"/>
<text text-anchor="middle" x="481.5" y="-282" font-family="Helvetica,sans-Serif" font-size="10.00">multimeterservice_p.h</text>
</a>
</g>
</g>
<!-- Node1&#45;&gt;Node16 -->
<g id="edge16_Node000001_Node000016" class="edge">
<title>Node1&#45;&gt;Node16</title>
<g id="a_edge16_Node000001_Node000016"><a xlink:title=" ">
<path fill="none" stroke="#63b8ff" d="M481.5,-329.75C481.5,-322.26 481.5,-311.28 481.5,-302.13"/>
<polygon fill="#63b8ff" stroke="#63b8ff" points="481.5,-294.09 485.1,-302.09 481.5,-298.09 481.5,-302.09 481.5,-302.09 481.5,-302.09 481.5,-298.09 477.9,-302.09 481.5,-294.09 481.5,-294.09"/>
</a>
</g>
</g>
<!-- Node19 -->
<g id="Node000019" class="node">
<title>Node19</title>
<g id="a_Node000019"><a xlink:href="pokitproducts__p_8h_source.html" target="_top" xlink:title=" ">
<polygon fill="white" stroke="#666666" points="330.5,-294 226.5,-294 226.5,-275 330.5,-275 330.5,-294"/>
<text text-anchor="middle" x="278.5" y="-282" font-family="Helvetica,sans-Serif" font-size="10.00">pokitproducts_p.h</text>
</a>
</g>
</g>
<!-- Node1&#45;&gt;Node19 -->
<g id="edge24_Node000001_Node000019" class="edge">
<title>Node1&#45;&gt;Node19</title>
<g id="a_edge24_Node000001_Node000019"><a xlink:title=" ">
<path fill="none" stroke="#63b8ff" d="M448.88,-329.98C413.62,-320.78 357.36,-306.09 319.22,-296.13"/>
<polygon fill="#63b8ff" stroke="#63b8ff" points="311.37,-294.08 320.02,-292.62 315.24,-295.09 319.11,-296.1 319.11,-296.1 319.11,-296.1 315.24,-295.09 318.2,-299.59 311.37,-294.08 311.37,-294.08"/>
</a>
</g>
</g>
<!-- Node21 -->
<g id="Node000021" class="node">
<title>Node21</title>
<g id="a_Node000021"><a xlink:href="stringliterals__p_8h.html" target="_top" xlink:title="Declares the DOKIT_USE_STRINGLITERALS macro, and related functions.">
<polygon fill="white" stroke="#666666" points="107,-239 0,-239 0,-220 107,-220 107,-239"/>
<text text-anchor="middle" x="53.5" y="-227" font-family="Helvetica,sans-Serif" font-size="10.00">../stringliterals_p.h</text>
</a>
</g>
</g>
<!-- Node1&#45;&gt;Node21 -->
<g id="edge27_Node000001_Node000021" class="edge">
<title>Node1&#45;&gt;Node21</title>
<g id="a_edge27_Node000001_Node000021"><a xlink:title=" ">
<path fill="none" stroke="#63b8ff" d="M417.77,-331.43C363.81,-324.58 284.73,-312.48 217.5,-294 167.56,-280.28 111.8,-256.86 79.86,-242.62"/>
<polygon fill="#63b8ff" stroke="#63b8ff" points="72.27,-239.21 81.04,-239.21 75.91,-240.85 79.56,-242.49 79.56,-242.49 79.56,-242.49 75.91,-240.85 78.09,-245.77 72.27,-239.21 72.27,-239.21"/>
</a>
</g>
</g>
<!-- Node22 -->
<g id="Node000022" class="node">
<title>Node22</title>
<g id="a_Node000022"><a xlink:title=" ">
<polygon fill="#e0e0e0" stroke="#999999" points="646,-294 563,-294 563,-275 646,-275 646,-294"/>
<text text-anchor="middle" x="604.5" y="-282" font-family="Helvetica,sans-Serif" font-size="10.00">QDataStream</text>
</a>
</g>
</g>
<!-- Node1&#45;&gt;Node22 -->
<g id="edge29_Node000001_Node000022" class="edge">
<title>Node1&#45;&gt;Node22</title>
<g id="a_edge29_Node000001_Node000022"><a xlink:title=" ">
<path fill="none" stroke="#63b8ff" d="M501.26,-329.98C521.76,-321.15 553.98,-307.27 576.97,-297.36"/>
<polygon fill="#63b8ff" stroke="#63b8ff" points="584.38,-294.17 578.46,-300.64 580.7,-295.75 577.03,-297.34 577.03,-297.34 577.03,-297.34 580.7,-295.75 575.61,-294.03 584.38,-294.17 584.38,-294.17"/>
</a>
</g>
</g>
<!-- Node23 -->
<g id="Node000023" class="node">
<title>Node23</title>
<g id="a_Node000023"><a xlink:title=" ">
<polygon fill="#e0e0e0" stroke="#999999" points="732.5,-294 664.5,-294 664.5,-275 732.5,-275 732.5,-294"/>
<text text-anchor="middle" x="698.5" y="-282" font-family="Helvetica,sans-Serif" font-size="10.00">QIODevice</text>
</a>
</g>
</g>
<!-- Node1&#45;&gt;Node23 -->
<g id="edge30_Node000001_Node000023" class="edge">
<title>Node1&#45;&gt;Node23</title>
<g id="a_edge30_Node000001_Node000023"><a xlink:title=" ">
<path fill="none" stroke="#63b8ff" d="M516.36,-329.98C554.55,-320.66 615.78,-305.7 656.57,-295.74"/>
<polygon fill="#63b8ff" stroke="#63b8ff" points="664.44,-293.82 657.52,-299.21 660.55,-294.77 656.67,-295.72 656.67,-295.72 656.67,-295.72 660.55,-294.77 655.81,-292.22 664.44,-293.82 664.44,-293.82"/>
</a>
</g>
</g>
<!-- Node24 -->
<g id="Node000024" class="node">
<title>Node24</title>
<g id="a_Node000024"><a xlink:title=" ">
<polygon fill="#e0e0e0" stroke="#999999" points="812,-294 751,-294 751,-275 812,-275 812,-294"/>
<text text-anchor="middle" x="781.5" y="-282" font-family="Helvetica,sans-Serif" font-size="10.00">QtEndian</text>
</a>
</g>
</g>
<!-- Node1&#45;&gt;Node24 -->
<g id="edge31_Node000001_Node000024" class="edge">
<title>Node1&#45;&gt;Node24</title>
<g id="a_edge31_Node000001_Node000024"><a xlink:title=" ">
<path fill="none" stroke="#63b8ff" d="M535.39,-329.92C588.05,-321.38 670.44,-307.63 741.5,-294 741.98,-293.91 742.46,-293.81 742.95,-293.72"/>
<polygon fill="#63b8ff" stroke="#63b8ff" points="750.95,-292.12 743.81,-297.22 747.03,-292.91 743.11,-293.69 743.11,-293.69 743.11,-293.69 747.03,-292.91 742.4,-290.16 750.95,-292.12 750.95,-292.12"/>
</a>
</g>
</g>
<!-- Node3 -->
<g id="Node000003" class="node">
<title>Node3</title>
<g id="a_Node000003"><a xlink:href="abstractpokitservice_8h.html" target="_top" xlink:title="Declares the AbstractPokitService class.">
<polygon fill="white" stroke="#666666" points="789,-184 664,-184 664,-165 789,-165 789,-184"/>
<text text-anchor="middle" x="726.5" y="-172" font-family="Helvetica,sans-Serif" font-size="10.00">abstractpokitservice.h</text>
</a>
</g>
</g>
<!-- Node2&#45;&gt;Node3 -->
<g id="edge2_Node000002_Node000003" class="edge">
<title>Node2&#45;&gt;Node3</title>
<g id="a_edge2_Node000002_Node000003"><a xlink:title=" ">
<path fill="none" stroke="#63b8ff" d="M520.86,-219.98C563.87,-210.68 632.75,-195.78 678.79,-185.82"/>
<polygon fill="#63b8ff" stroke="#63b8ff" points="686.83,-184.08 679.77,-189.29 682.92,-184.93 679.01,-185.77 679.01,-185.77 679.01,-185.77 682.92,-184.93 678.25,-182.26 686.83,-184.08 686.83,-184.08"/>
</a>
</g>
</g>
<!-- Node13 -->
<g id="Node000013" class="node">
<title>Node13</title>
<g id="a_Node000013"><a xlink:title=" ">
<polygon fill="#e0e0e0" stroke="#999999" points="416.5,-184 306.5,-184 306.5,-165 416.5,-165 416.5,-184"/>
<text text-anchor="middle" x="361.5" y="-172" font-family="Helvetica,sans-Serif" font-size="10.00">QBluetoothAddress</text>
</a>
</g>
</g>
<!-- Node2&#45;&gt;Node13 -->
<g id="edge13_Node000002_Node000013" class="edge">
<title>Node2&#45;&gt;Node13</title>
<g id="a_edge13_Node000002_Node000013"><a xlink:title=" ">
<path fill="none" stroke="#63b8ff" d="M462.22,-219.98C442.31,-211.19 411.06,-197.39 388.66,-187.49"/>
<polygon fill="#63b8ff" stroke="#63b8ff" points="381.13,-184.17 389.9,-184.11 384.79,-185.79 388.45,-187.4 388.45,-187.4 388.45,-187.4 384.79,-185.79 386.99,-190.7 381.13,-184.17 381.13,-184.17"/>
</a>
</g>
</g>
<!-- Node14 -->
<g id="Node000014" class="node">
<title>Node14</title>
<g id="a_Node000014"><a xlink:title=" ">
<polygon fill="#e0e0e0" stroke="#999999" points="528.5,-184 434.5,-184 434.5,-165 528.5,-165 528.5,-184"/>
<text text-anchor="middle" x="481.5" y="-172" font-family="Helvetica,sans-Serif" font-size="10.00">QBluetoothUuid</text>
</a>
</g>
</g>
<!-- Node2&#45;&gt;Node14 -->
<g id="edge14_Node000002_Node000014" class="edge">
<title>Node2&#45;&gt;Node14</title>
<g id="a_edge14_Node000002_Node000014"><a xlink:title=" ">
<path fill="none" stroke="#63b8ff" d="M481.5,-219.75C481.5,-212.26 481.5,-201.28 481.5,-192.13"/>
<polygon fill="#63b8ff" stroke="#63b8ff" points="481.5,-184.09 485.1,-192.09 481.5,-188.09 481.5,-192.09 481.5,-192.09 481.5,-192.09 481.5,-188.09 477.9,-192.09 481.5,-184.09 481.5,-184.09"/>
</a>
</g>
</g>
<!-- Node15 -->
<g id="Node000015" class="node">
<title>Node15</title>
<g id="a_Node000015"><a xlink:title=" ">
<polygon fill="#e0e0e0" stroke="#999999" points="646,-184 547,-184 547,-165 646,-165 646,-184"/>
<text text-anchor="middle" x="596.5" y="-172" font-family="Helvetica,sans-Serif" font-size="10.00">QVersionNumber</text>
</a>
</g>
</g>
<!-- Node2&#45;&gt;Node15 -->
<g id="edge15_Node000002_Node000015" class="edge">
<title>Node2&#45;&gt;Node15</title>
<g id="a_edge15_Node000002_Node000015"><a xlink:title=" ">
<path fill="none" stroke="#63b8ff" d="M499.98,-219.98C518.98,-211.23 548.74,-197.51 570.19,-187.62"/>
<polygon fill="#63b8ff" stroke="#63b8ff" points="577.69,-184.17 571.93,-190.79 574.05,-185.84 570.42,-187.52 570.42,-187.52 570.42,-187.52 574.05,-185.84 568.91,-184.25 577.69,-184.17 577.69,-184.17"/>
</a>
</g>
</g>
<!-- Node4 -->
<g id="Node000004" class="node">
<title>Node4</title>
<g id="a_Node000004"><a xlink:href="qtpokit__global_8h.html" target="_top" xlink:title="Global QtPokit library macros.">
<polygon fill="white" stroke="#666666" points="730,-74 635,-74 635,-55 730,-55 730,-74"/>
<text text-anchor="middle" x="682.5" y="-62" font-family="Helvetica,sans-Serif" font-size="10.00">qtpokit_global.h</text>
</a>
</g>
</g>
<!-- Node3&#45;&gt;Node4 -->
<g id="edge3_Node000003_Node000004" class="edge">
<title>Node3&#45;&gt;Node4</title>
<g id="a_edge3_Node000003_Node000004"><a xlink:title=" ">
<path fill="none" stroke="#63b8ff" d="M714.41,-164.82C704.34,-156.8 690.7,-143.91 684.5,-129 678.31,-114.1 678.54,-95.5 679.87,-82.29"/>
<polygon fill="#63b8ff" stroke="#63b8ff" points="680.91,-74.12 683.47,-82.51 680.41,-78.09 679.9,-82.06 679.9,-82.06 679.9,-82.06 680.41,-78.09 676.33,-81.6 680.91,-74.12 680.91,-74.12"/>
</a>
</g>
</g>
<!-- Node6 -->
<g id="Node000006" class="node">
<title>Node6</title>
<g id="a_Node000006"><a xlink:href="pokitproducts_8h.html" target="_top" xlink:title="Declares the PokitProduct enumeration, and related helper functions.">
<polygon fill="white" stroke="#666666" points="636.5,-129 544.5,-129 544.5,-110 636.5,-110 636.5,-129"/>
<text text-anchor="middle" x="590.5" y="-117" font-family="Helvetica,sans-Serif" font-size="10.00">pokitproducts.h</text>
</a>
</g>
</g>
<!-- Node3&#45;&gt;Node6 -->
<g id="edge5_Node000003_Node000006" class="edge">
<title>Node3&#45;&gt;Node6</title>
<g id="a_edge5_Node000003_Node000006"><a xlink:title=" ">
<path fill="none" stroke="#63b8ff" d="M704.65,-164.98C681.79,-156.07 645.74,-142.03 620.28,-132.11"/>
<polygon fill="#63b8ff" stroke="#63b8ff" points="612.75,-129.17 621.51,-128.72 616.48,-130.62 620.2,-132.08 620.2,-132.08 620.2,-132.08 616.48,-130.62 618.9,-135.43 612.75,-129.17 612.75,-129.17"/>
</a>
</g>
</g>
<!-- Node10 -->
<g id="Node000010" class="node">
<title>Node10</title>
<g id="a_Node000010"><a xlink:title=" ">
<polygon fill="#e0e0e0" stroke="#999999" points="806,-129 693,-129 693,-110 806,-110 806,-129"/>
<text text-anchor="middle" x="749.5" y="-117" font-family="Helvetica,sans-Serif" font-size="10.00">QLowEnergyService</text>
</a>
</g>
</g>
<!-- Node3&#45;&gt;Node10 -->
<g id="edge10_Node000003_Node000010" class="edge">
<title>Node3&#45;&gt;Node10</title>
<g id="a_edge10_Node000003_Node000010"><a xlink:title=" ">
<path fill="none" stroke="#63b8ff" d="M730.3,-164.75C733.61,-157.11 738.51,-145.82 742.53,-136.56"/>
<polygon fill="#63b8ff" stroke="#63b8ff" points="745.77,-129.09 745.89,-137.86 744.18,-132.76 742.59,-136.43 742.59,-136.43 742.59,-136.43 744.18,-132.76 739.29,-134.99 745.77,-129.09 745.77,-129.09"/>
</a>
</g>
</g>
<!-- Node11 -->
<g id="Node000011" class="node">
<title>Node11</title>
<g id="a_Node000011"><a xlink:title=" ">
<polygon fill="#e0e0e0" stroke="#999999" points="880.5,-129 824.5,-129 824.5,-110 880.5,-110 880.5,-129"/>
<text text-anchor="middle" x="852.5" y="-117" font-family="Helvetica,sans-Serif" font-size="10.00">QObject</text>
</a>
</g>
</g>
<!-- Node3&#45;&gt;Node11 -->
<g id="edge11_Node000003_Node000011" class="edge">
<title>Node3&#45;&gt;Node11</title>
<g id="a_edge11_Node000003_Node000011"><a xlink:title=" ">
<path fill="none" stroke="#63b8ff" d="M746.74,-164.98C767.74,-156.15 800.74,-142.27 824.29,-132.36"/>
<polygon fill="#63b8ff" stroke="#63b8ff" points="831.89,-129.17 825.91,-135.59 828.2,-130.72 824.51,-132.27 824.51,-132.27 824.51,-132.27 828.2,-130.72 823.12,-128.95 831.89,-129.17 831.89,-129.17"/>
</a>
</g>
</g>
<!-- Node12 -->
<g id="Node000012" class="node">
<title>Node12</title>
<g id="a_Node000012"><a xlink:title=" ">
<polygon fill="#e0e0e0" stroke="#999999" points="526.5,-129 470.5,-129 470.5,-110 526.5,-110 526.5,-129"/>
<text text-anchor="middle" x="498.5" y="-117" font-family="Helvetica,sans-Serif" font-size="10.00">optional</text>
</a>
</g>
</g>
<!-- Node3&#45;&gt;Node12 -->
<g id="edge12_Node000003_Node000012" class="edge">
<title>Node3&#45;&gt;Node12</title>
<g id="a_edge12_Node000003_Node000012"><a xlink:title=" ">
<path fill="none" stroke="#63b8ff" d="M689.87,-164.98C647.18,-155.06 577.08,-138.77 534.61,-128.89"/>
<polygon fill="#63b8ff" stroke="#63b8ff" points="526.76,-127.07 535.37,-125.37 530.66,-127.97 534.55,-128.88 534.55,-128.88 534.55,-128.88 530.66,-127.97 533.74,-132.39 526.76,-127.07 526.76,-127.07"/>
</a>
</g>
</g>
<!-- Node5 -->
<g id="Node000005" class="node">
<title>Node5</title>
<g id="a_Node000005"><a xlink:title=" ">
<polygon fill="#e0e0e0" stroke="#999999" points="386,-19 327,-19 327,0 386,0 386,-19"/>
<text text-anchor="middle" x="356.5" y="-7" font-family="Helvetica,sans-Serif" font-size="10.00">QtGlobal</text>
</a>
</g>
</g>
<!-- Node4&#45;&gt;Node5 -->
<g id="edge4_Node000004_Node000005" class="edge">
<title>Node4&#45;&gt;Node5</title>
<g id="a_edge4_Node000004_Node000005"><a xlink:title=" ">
<path fill="none" stroke="#63b8ff" d="M634.75,-55.74C569.55,-45.14 453.98,-26.35 394.38,-16.66"/>
<polygon fill="#63b8ff" stroke="#63b8ff" points="386.36,-15.35 394.83,-13.08 390.31,-16 394.25,-16.64 394.25,-16.64 394.25,-16.64 390.31,-16 393.68,-20.19 386.36,-15.35 386.36,-15.35"/>
</a>
</g>
</g>
<!-- Node6&#45;&gt;Node4 -->
<g id="edge6_Node000006_Node000004" class="edge">
<title>Node6&#45;&gt;Node4</title>
<g id="a_edge6_Node000006_Node000004"><a xlink:title=" ">
<path fill="none" stroke="#63b8ff" d="M605.28,-109.98C620.08,-101.46 643.04,-88.23 660.09,-78.41"/>
<polygon fill="#63b8ff" stroke="#63b8ff" points="667.45,-74.17 662.31,-81.28 663.98,-76.17 660.52,-78.16 660.52,-78.16 660.52,-78.16 663.98,-76.17 658.72,-75.04 667.45,-74.17 667.45,-74.17"/>
</a>
</g>
</g>
<!-- Node7 -->
<g id="Node000007" class="node">
<title>Node7</title>
<g id="a_Node000007"><a xlink:title=" ">
<polygon fill="#e0e0e0" stroke="#999999" points="477.5,-74 353.5,-74 353.5,-55 477.5,-55 477.5,-74"/>
<text text-anchor="middle" x="415.5" y="-62" font-family="Helvetica,sans-Serif" font-size="10.00">QBluetoothDeviceInfo</text>
</a>
</g>
</g>
<!-- Node6&#45;&gt;Node7 -->
<g id="edge7_Node000006_Node000007" class="edge">
<title>Node6&#45;&gt;Node7</title>
<g id="a_edge7_Node000006_Node000007"><a xlink:title=" ">
<path fill="none" stroke="#63b8ff" d="M562.38,-109.98C532.37,-100.89 484.7,-86.46 451.85,-76.51"/>
<polygon fill="#63b8ff" stroke="#63b8ff" points="443.84,-74.08 452.54,-72.96 447.67,-75.24 451.49,-76.4 451.49,-76.4 451.49,-76.4 447.67,-75.24 450.45,-79.85 443.84,-74.08 443.84,-74.08"/>
</a>
</g>
</g>
<!-- Node8 -->
<g id="Node000008" class="node">
<title>Node8</title>
<g id="a_Node000008"><a xlink:title=" ">
<polygon fill="#e0e0e0" stroke="#999999" points="545.5,-74 495.5,-74 495.5,-55 545.5,-55 545.5,-74"/>
<text text-anchor="middle" x="520.5" y="-62" font-family="Helvetica,sans-Serif" font-size="10.00">QFlags</text>
</a>
</g>
</g>
<!-- Node6&#45;&gt;Node8 -->
<g id="edge8_Node000006_Node000008" class="edge">
<title>Node6&#45;&gt;Node8</title>
<g id="a_edge8_Node000006_Node000008"><a xlink:title=" ">
<path fill="none" stroke="#63b8ff" d="M579.25,-109.98C568.3,-101.69 551.46,-88.94 538.61,-79.22"/>
<polygon fill="#63b8ff" stroke="#63b8ff" points="531.95,-74.17 540.5,-76.13 535.14,-76.58 538.33,-79 538.33,-79 538.33,-79 535.14,-76.58 536.16,-81.87 531.95,-74.17 531.95,-74.17"/>
</a>
</g>
</g>
<!-- Node9 -->
<g id="Node000009" class="node">
<title>Node9</title>
<g id="a_Node000009"><a xlink:title=" ">
<polygon fill="#e0e0e0" stroke="#999999" points="617,-74 564,-74 564,-55 617,-55 617,-74"/>
<text text-anchor="middle" x="590.5" y="-62" font-family="Helvetica,sans-Serif" font-size="10.00">QString</text>
</a>
</g>
</g>
<!-- Node6&#45;&gt;Node9 -->
<g id="edge9_Node000006_Node000009" class="edge">
<title>Node6&#45;&gt;Node9</title>
<g id="a_edge9_Node000006_Node000009"><a xlink:title=" ">
<path fill="none" stroke="#63b8ff" d="M590.5,-109.75C590.5,-102.26 590.5,-91.28 590.5,-82.13"/>
<polygon fill="#63b8ff" stroke="#63b8ff" points="590.5,-74.09 594.1,-82.09 590.5,-78.09 590.5,-82.09 590.5,-82.09 590.5,-82.09 590.5,-78.09 586.9,-82.09 590.5,-74.09 590.5,-74.09"/>
</a>
</g>
</g>
<!-- Node16&#45;&gt;Node2 -->
<g id="edge17_Node000016_Node000002" class="edge">
<title>Node16&#45;&gt;Node2</title>
<g id="a_edge17_Node000016_Node000002"><a xlink:title=" ">
<path fill="none" stroke="#63b8ff" d="M481.5,-274.75C481.5,-267.26 481.5,-256.28 481.5,-247.13"/>
<polygon fill="#63b8ff" stroke="#63b8ff" points="481.5,-239.09 485.1,-247.09 481.5,-243.09 481.5,-247.09 481.5,-247.09 481.5,-247.09 481.5,-243.09 477.9,-247.09 481.5,-239.09 481.5,-239.09"/>
</a>
</g>
</g>
<!-- Node17 -->
<g id="Node000017" class="node">
<title>Node17</title>
<g id="a_Node000017"><a xlink:href="abstractpokitservice__p_8h.html" target="_top" xlink:title="Declares the AbstractPokitServicePrivate class.">
<polygon fill="white" stroke="#666666" points="944,-184 807,-184 807,-165 944,-165 944,-184"/>
<text text-anchor="middle" x="875.5" y="-172" font-family="Helvetica,sans-Serif" font-size="10.00">abstractpokitservice_p.h</text>
</a>
</g>
</g>
<!-- Node16&#45;&gt;Node17 -->
<g id="edge18_Node000016_Node000017" class="edge">
<title>Node16&#45;&gt;Node17</title>
<g id="a_edge18_Node000016_Node000017"><a xlink:title=" ">
<path fill="none" stroke="#63b8ff" d="M512.75,-274.94C583.87,-255.44 757.73,-207.78 836.08,-186.31"/>
<polygon fill="#63b8ff" stroke="#63b8ff" points="844.25,-184.07 837.49,-189.65 840.39,-185.12 836.54,-186.18 836.54,-186.18 836.54,-186.18 840.39,-185.12 835.58,-182.71 844.25,-184.07 844.25,-184.07"/>
</a>
</g>
</g>
<!-- Node17&#45;&gt;Node4 -->
<g id="edge19_Node000017_Node000004" class="edge">
<title>Node17&#45;&gt;Node4</title>
<g id="a_edge19_Node000017_Node000004"><a xlink:title=" ">
<path fill="none" stroke="#63b8ff" d="M943.6,-164.91C991,-156.19 1041.43,-139.62 1015.5,-110 997.55,-89.49 828.29,-75.21 738.24,-68.99"/>
<polygon fill="#63b8ff" stroke="#63b8ff" points="730.05,-68.43 738.27,-65.39 734.04,-68.71 738.03,-68.98 738.03,-68.98 738.03,-68.98 734.04,-68.71 737.78,-72.57 730.05,-68.43 730.05,-68.43"/>
</a>
</g>
</g>
<!-- Node17&#45;&gt;Node6 -->
<g id="edge20_Node000017_Node000006" class="edge">
<title>Node17&#45;&gt;Node6</title>
<g id="a_edge20_Node000017_Node000006"><a xlink:title=" ">
<path fill="none" stroke="#63b8ff" d="M829.71,-164.98C779.27,-155.61 698.23,-140.53 644.67,-130.57"/>
<polygon fill="#63b8ff" stroke="#63b8ff" points="636.65,-129.08 645.17,-127.01 640.58,-129.81 644.51,-130.54 644.51,-130.54 644.51,-130.54 640.58,-129.81 643.86,-134.08 636.65,-129.08 636.65,-129.08"/>
</a>
</g>
</g>
<!-- Node17&#45;&gt;Node10 -->
<g id="edge22_Node000017_Node000010" class="edge">
<title>Node17&#45;&gt;Node10</title>
<g id="a_edge22_Node000017_Node000010"><a xlink:title=" ">
<path fill="none" stroke="#63b8ff" d="M855.26,-164.98C834.26,-156.15 801.26,-142.27 777.71,-132.36"/>
<polygon fill="#63b8ff" stroke="#63b8ff" points="770.11,-129.17 778.88,-128.95 773.8,-130.72 777.49,-132.27 777.49,-132.27 777.49,-132.27 773.8,-130.72 776.09,-135.59 770.11,-129.17 770.11,-129.17"/>
</a>
</g>
</g>
<!-- Node17&#45;&gt;Node11 -->
<g id="edge23_Node000017_Node000011" class="edge">
<title>Node17&#45;&gt;Node11</title>
<g id="a_edge23_Node000017_Node000011"><a xlink:title=" ">
<path fill="none" stroke="#63b8ff" d="M871.7,-164.75C868.39,-157.11 863.49,-145.82 859.47,-136.56"/>
<polygon fill="#63b8ff" stroke="#63b8ff" points="856.23,-129.09 862.71,-134.99 857.82,-132.76 859.41,-136.43 859.41,-136.43 859.41,-136.43 857.82,-132.76 856.11,-137.86 856.23,-129.09 856.23,-129.09"/>
</a>
</g>
</g>
<!-- Node18 -->
<g id="Node000018" class="node">
<title>Node18</title>
<g id="a_Node000018"><a xlink:title=" ">
<polygon fill="#e0e0e0" stroke="#999999" points="1006,-129 899,-129 899,-110 1006,-110 1006,-129"/>
<text text-anchor="middle" x="952.5" y="-117" font-family="Helvetica,sans-Serif" font-size="10.00">QLoggingCategory</text>
</a>
</g>
</g>
<!-- Node17&#45;&gt;Node18 -->
<g id="edge21_Node000017_Node000018" class="edge">
<title>Node17&#45;&gt;Node18</title>
<g id="a_edge21_Node000017_Node000018"><a xlink:title=" ">
<path fill="none" stroke="#63b8ff" d="M887.87,-164.98C900.04,-156.61 918.79,-143.7 932.97,-133.95"/>
<polygon fill="#63b8ff" stroke="#63b8ff" points="939.9,-129.17 935.35,-136.67 936.61,-131.44 933.31,-133.71 933.31,-133.71 933.31,-133.71 936.61,-131.44 931.27,-130.74 939.9,-129.17 939.9,-129.17"/>
</a>
</g>
</g>
<!-- Node19&#45;&gt;Node6 -->
<g id="edge25_Node000019_Node000006" class="edge">
<title>Node19&#45;&gt;Node6</title>
<g id="a_edge25_Node000019_Node000006"><a xlink:title=" ">
<path fill="none" stroke="#63b8ff" d="M276.85,-274.84C273.23,-252.97 267.16,-195.07 297.5,-165 335.49,-127.34 482.62,-137.08 535.5,-129 535.77,-128.96 536.04,-128.92 536.31,-128.88"/>
<polygon fill="#63b8ff" stroke="#63b8ff" points="544.29,-127.65 536.93,-132.42 540.33,-128.26 536.38,-128.87 536.38,-128.87 536.38,-128.87 540.33,-128.26 535.83,-125.31 544.29,-127.65 544.29,-127.65"/>
</a>
</g>
</g>
<!-- Node20 -->
<g id="Node000020" class="node">
<title>Node20</title>
<g id="a_Node000020"><a xlink:title=" ">
<polygon fill="#e0e0e0" stroke="#999999" points="250,-239 125,-239 125,-220 250,-220 250,-239"/>
<text text-anchor="middle" x="187.5" y="-227" font-family="Helvetica,sans-Serif" font-size="10.00">QLowEnergyController</text>
</a>
</g>
</g>
<!-- Node19&#45;&gt;Node20 -->
<g id="edge26_Node000019_Node000020" class="edge">
<title>Node19&#45;&gt;Node20</title>
<g id="a_edge26_Node000019_Node000020"><a xlink:title=" ">
<path fill="none" stroke="#63b8ff" d="M263.88,-274.98C249.24,-266.46 226.53,-253.23 209.67,-243.41"/>
<polygon fill="#63b8ff" stroke="#63b8ff" points="202.39,-239.17 211.11,-240.09 205.84,-241.18 209.3,-243.2 209.3,-243.2 209.3,-243.2 205.84,-241.18 207.49,-246.31 202.39,-239.17 202.39,-239.17"/>
</a>
</g>
</g>
<!-- Node21&#45;&gt;Node5 -->
<g id="edge28_Node000021_Node000005" class="edge">
<title>Node21&#45;&gt;Node5</title>
<g id="a_edge28_Node000021_Node000005"><a xlink:title=" ">
<path fill="none" stroke="#63b8ff" d="M65.38,-219.95C111.76,-186.59 280.87,-64.91 337.72,-24.01"/>
<polygon fill="#63b8ff" stroke="#63b8ff" points="344.37,-19.22 339.98,-26.82 341.13,-21.56 337.88,-23.9 337.88,-23.9 337.88,-23.9 341.13,-21.56 335.78,-20.97 344.37,-19.22 344.37,-19.22"/>
</a>
</g>
</g>
</g>
</svg>
