<?xml version="1.0" encoding="UTF-8" standalone="no"?>
<!DOCTYPE svg PUBLIC "-//W3C//DTD SVG 1.1//EN"
 "http://www.w3.org/Graphics/SVG/1.1/DTD/svg11.dtd">
<!-- Generated by graphviz version 2.43.0 (0)
 -->
<!-- Title: multimeterservice.cpp Pages: 1 -->
<svg width="709pt" height="302pt"
 viewBox="0.00 0.00 708.50 302.00" xmlns="http://www.w3.org/2000/svg" xmlns:xlink="http://www.w3.org/1999/xlink">
<g id="graph0" class="graph" transform="scale(1 1) rotate(0) translate(4 298)">
<title>multimeterservice.cpp</title>
<!-- Node1 -->
<g id="node1" class="node">
<title>Node1</title>
<g id="a_node1"><a xlink:title="Defines the MultimeterService and MultimeterServicePrivate classes.">
<polygon fill="#999999" stroke="#666666" points="531,-294 404,-294 404,-275 531,-275 531,-294"/>
<text text-anchor="middle" x="467.5" y="-282" font-family="Helvetica,sans-Serif" font-size="10.00">multimeterservice.cpp</text>
</a>
</g>
</g>
<!-- Node2 -->
<g id="node2" class="node">
<title>Node2</title>
<g id="a_node2"><a xlink:href="multimeterservice_8h.html" target="_top" xlink:title="Declares the MultimeterService class.">
<polygon fill="white" stroke="#666666" points="474,-184 321,-184 321,-165 474,-165 474,-184"/>
<text text-anchor="middle" x="397.5" y="-172" font-family="Helvetica,sans-Serif" font-size="10.00">qtpokit/multimeterservice.h</text>
</a>
</g>
</g>
<!-- Node1&#45;&gt;Node2 -->
<g id="edge1" class="edge">
<title>Node1&#45;&gt;Node2</title>
<path fill="none" stroke="#63b8ff" d="M454.2,-274.78C442.92,-266.74 427.1,-253.83 417.5,-239 408.23,-224.67 403,-205.75 400.23,-192.29"/>
<polygon fill="#63b8ff" stroke="#63b8ff" points="398.75,-184.35 403.76,-191.55 399.49,-188.28 400.22,-192.21 400.22,-192.21 400.22,-192.21 399.49,-188.28 396.68,-192.87 398.75,-184.35 398.75,-184.35"/>
</g>
<!-- Node11 -->
<g id="node11" class="node">
<title>Node11</title>
<g id="a_node11"><a xlink:href="multimeterservice__p_8h.html" target="_top" xlink:title="Declares the MultimeterServicePrivate class.">
<polygon fill="white" stroke="#666666" points="369,-239 242,-239 242,-220 369,-220 369,-239"/>
<text text-anchor="middle" x="305.5" y="-227" font-family="Helvetica,sans-Serif" font-size="10.00">multimeterservice_p.h</text>
</a>
</g>
</g>
<!-- Node1&#45;&gt;Node11 -->
<g id="edge10" class="edge">
<title>Node1&#45;&gt;Node11</title>
<path fill="none" stroke="#63b8ff" d="M441.47,-274.98C413.8,-265.93 369.93,-251.58 339.54,-241.64"/>
<polygon fill="#63b8ff" stroke="#63b8ff" points="331.73,-239.08 340.45,-238.15 335.53,-240.33 339.34,-241.57 339.34,-241.57 339.34,-241.57 335.53,-240.33 338.22,-244.99 331.73,-239.08 331.73,-239.08"/>
</g>
<!-- Node14 -->
<g id="node14" class="node">
<title>Node14</title>
<g id="a_node14"><a xlink:title=" ">
<polygon fill="#e0e0e0" stroke="#999999" points="509,-239 426,-239 426,-220 509,-220 509,-239"/>
<text text-anchor="middle" x="467.5" y="-227" font-family="Helvetica,sans-Serif" font-size="10.00">QDataStream</text>
</a>
</g>
</g>
<!-- Node1&#45;&gt;Node14 -->
<g id="edge17" class="edge">
<title>Node1&#45;&gt;Node14</title>
<path fill="none" stroke="#63b8ff" d="M467.5,-274.75C467.5,-267.26 467.5,-256.28 467.5,-247.13"/>
<polygon fill="#63b8ff" stroke="#63b8ff" points="467.5,-239.09 471.1,-247.09 467.5,-243.09 467.5,-247.09 467.5,-247.09 467.5,-247.09 467.5,-243.09 463.9,-247.09 467.5,-239.09 467.5,-239.09"/>
</g>
<!-- Node15 -->
<g id="node15" class="node">
<title>Node15</title>
<g id="a_node15"><a xlink:title=" ">
<polygon fill="#e0e0e0" stroke="#999999" points="595.5,-239 527.5,-239 527.5,-220 595.5,-220 595.5,-239"/>
<text text-anchor="middle" x="561.5" y="-227" font-family="Helvetica,sans-Serif" font-size="10.00">QIODevice</text>
</a>
</g>
</g>
<!-- Node1&#45;&gt;Node15 -->
<g id="edge18" class="edge">
<title>Node1&#45;&gt;Node15</title>
<path fill="none" stroke="#63b8ff" d="M482.6,-274.98C497.86,-266.38 521.61,-252.99 539.07,-243.15"/>
<polygon fill="#63b8ff" stroke="#63b8ff" points="546.12,-239.17 540.92,-246.24 542.64,-241.13 539.15,-243.1 539.15,-243.1 539.15,-243.1 542.64,-241.13 537.39,-239.96 546.12,-239.17 546.12,-239.17"/>
</g>
<!-- Node16 -->
<g id="node16" class="node">
<title>Node16</title>
<g id="a_node16"><a xlink:title=" ">
<polygon fill="#e0e0e0" stroke="#999999" points="675,-239 614,-239 614,-220 675,-220 675,-239"/>
<text text-anchor="middle" x="644.5" y="-227" font-family="Helvetica,sans-Serif" font-size="10.00">QtEndian</text>
</a>
</g>
</g>
<!-- Node1&#45;&gt;Node16 -->
<g id="edge19" class="edge">
<title>Node1&#45;&gt;Node16</title>
<path fill="none" stroke="#63b8ff" d="M495.94,-274.98C526.43,-265.86 574.92,-251.33 608.16,-241.38"/>
<polygon fill="#63b8ff" stroke="#63b8ff" points="615.84,-239.08 609.21,-244.83 612.01,-240.23 608.18,-241.38 608.18,-241.38 608.18,-241.38 612.01,-240.23 607.14,-237.93 615.84,-239.08 615.84,-239.08"/>
</g>
<!-- Node3 -->
<g id="node3" class="node">
<title>Node3</title>
<g id="a_node3"><a xlink:href="abstractpokitservice_8h.html" target="_top" xlink:title="Declares the AbstractPokitService class.">
<polygon fill="white" stroke="#666666" points="460,-129 335,-129 335,-110 460,-110 460,-129"/>
<text text-anchor="middle" x="397.5" y="-117" font-family="Helvetica,sans-Serif" font-size="10.00">abstractpokitservice.h</text>
</a>
</g>
</g>
<!-- Node2&#45;&gt;Node3 -->
<g id="edge2" class="edge">
<title>Node2&#45;&gt;Node3</title>
<path fill="none" stroke="#63b8ff" d="M397.5,-164.75C397.5,-157.26 397.5,-146.28 397.5,-137.13"/>
<polygon fill="#63b8ff" stroke="#63b8ff" points="397.5,-129.09 401.1,-137.09 397.5,-133.09 397.5,-137.09 397.5,-137.09 397.5,-137.09 397.5,-133.09 393.9,-137.09 397.5,-129.09 397.5,-129.09"/>
</g>
<!-- Node8 -->
<g id="node8" class="node">
<title>Node8</title>
<g id="a_node8"><a xlink:title=" ">
<polygon fill="#e0e0e0" stroke="#999999" points="588.5,-129 478.5,-129 478.5,-110 588.5,-110 588.5,-129"/>
<text text-anchor="middle" x="533.5" y="-117" font-family="Helvetica,sans-Serif" font-size="10.00">QBluetoothAddress</text>
</a>
</g>
</g>
<!-- Node2&#45;&gt;Node8 -->
<g id="edge7" class="edge">
<title>Node2&#45;&gt;Node8</title>
<path fill="none" stroke="#63b8ff" d="M419.35,-164.98C442.21,-156.07 478.26,-142.03 503.72,-132.11"/>
<polygon fill="#63b8ff" stroke="#63b8ff" points="511.25,-129.17 505.1,-135.43 507.52,-130.62 503.8,-132.08 503.8,-132.08 503.8,-132.08 507.52,-130.62 502.49,-128.72 511.25,-129.17 511.25,-129.17"/>
</g>
<!-- Node9 -->
<g id="node9" class="node">
<title>Node9</title>
<g id="a_node9"><a xlink:title=" ">
<polygon fill="#e0e0e0" stroke="#999999" points="700.5,-129 606.5,-129 606.5,-110 700.5,-110 700.5,-129"/>
<text text-anchor="middle" x="653.5" y="-117" font-family="Helvetica,sans-Serif" font-size="10.00">QBluetoothUuid</text>
</a>
</g>
</g>
<!-- Node2&#45;&gt;Node9 -->
<g id="edge8" class="edge">
<title>Node2&#45;&gt;Node9</title>
<path fill="none" stroke="#63b8ff" d="M438.63,-164.98C483.66,-155.66 555.84,-140.72 603.95,-130.76"/>
<polygon fill="#63b8ff" stroke="#63b8ff" points="612.05,-129.08 604.94,-134.23 608.13,-129.89 604.21,-130.7 604.21,-130.7 604.21,-130.7 608.13,-129.89 603.48,-127.18 612.05,-129.08 612.05,-129.08"/>
</g>
<!-- Node10 -->
<g id="node10" class="node">
<title>Node10</title>
<g id="a_node10"><a xlink:title=" ">
<polygon fill="#e0e0e0" stroke="#999999" points="317,-129 218,-129 218,-110 317,-110 317,-129"/>
<text text-anchor="middle" x="267.5" y="-117" font-family="Helvetica,sans-Serif" font-size="10.00">QVersionNumber</text>
</a>
</g>
</g>
<!-- Node2&#45;&gt;Node10 -->
<g id="edge9" class="edge">
<title>Node2&#45;&gt;Node10</title>
<path fill="none" stroke="#63b8ff" d="M376.61,-164.98C354.85,-156.11 320.6,-142.15 296.28,-132.24"/>
<polygon fill="#63b8ff" stroke="#63b8ff" points="288.77,-129.17 297.53,-128.86 292.47,-130.68 296.17,-132.19 296.17,-132.19 296.17,-132.19 292.47,-130.68 294.82,-135.52 288.77,-129.17 288.77,-129.17"/>
</g>
<!-- Node4 -->
<g id="node4" class="node">
<title>Node4</title>
<g id="a_node4"><a xlink:href="qtpokit__global_8h.html" target="_top" xlink:title="Global QtPokit library macros.">
<polygon fill="white" stroke="#666666" points="220,-74 125,-74 125,-55 220,-55 220,-74"/>
<text text-anchor="middle" x="172.5" y="-62" font-family="Helvetica,sans-Serif" font-size="10.00">qtpokit_global.h</text>
</a>
</g>
</g>
<!-- Node3&#45;&gt;Node4 -->
<g id="edge3" class="edge">
<title>Node3&#45;&gt;Node4</title>
<path fill="none" stroke="#63b8ff" d="M361.35,-109.98C322.02,-100.72 259.12,-85.9 216.84,-75.94"/>
<polygon fill="#63b8ff" stroke="#63b8ff" points="208.93,-74.08 217.55,-72.41 212.83,-75 216.72,-75.92 216.72,-75.92 216.72,-75.92 212.83,-75 215.89,-79.42 208.93,-74.08 208.93,-74.08"/>
</g>
<!-- Node6 -->
<g id="node6" class="node">
<title>Node6</title>
<g id="a_node6"><a xlink:title=" ">
<polygon fill="#e0e0e0" stroke="#999999" points="351,-74 238,-74 238,-55 351,-55 351,-74"/>
<text text-anchor="middle" x="294.5" y="-62" font-family="Helvetica,sans-Serif" font-size="10.00">QLowEnergyService</text>
</a>
</g>
</g>
<!-- Node3&#45;&gt;Node6 -->
<g id="edge5" class="edge">
<title>Node3&#45;&gt;Node6</title>
<path fill="none" stroke="#63b8ff" d="M380.95,-109.98C364.08,-101.3 337.74,-87.75 318.57,-77.88"/>
<polygon fill="#63b8ff" stroke="#63b8ff" points="311.35,-74.17 320.11,-74.63 314.91,-76 318.46,-77.83 318.46,-77.83 318.46,-77.83 314.91,-76 316.82,-81.03 311.35,-74.17 311.35,-74.17"/>
</g>
<!-- Node7 -->
<g id="node7" class="node">
<title>Node7</title>
<g id="a_node7"><a xlink:title=" ">
<polygon fill="#e0e0e0" stroke="#999999" points="425.5,-74 369.5,-74 369.5,-55 425.5,-55 425.5,-74"/>
<text text-anchor="middle" x="397.5" y="-62" font-family="Helvetica,sans-Serif" font-size="10.00">QObject</text>
</a>
</g>
</g>
<!-- Node3&#45;&gt;Node7 -->
<g id="edge6" class="edge">
<title>Node3&#45;&gt;Node7</title>
<path fill="none" stroke="#63b8ff" d="M397.5,-109.75C397.5,-102.26 397.5,-91.28 397.5,-82.13"/>
<polygon fill="#63b8ff" stroke="#63b8ff" points="397.5,-74.09 401.1,-82.09 397.5,-78.09 397.5,-82.09 397.5,-82.09 397.5,-82.09 397.5,-78.09 393.9,-82.09 397.5,-74.09 397.5,-74.09"/>
</g>
<!-- Node5 -->
<g id="node5" class="node">
<title>Node5</title>
<g id="a_node5"><a xlink:title=" ">
<polygon fill="#e0e0e0" stroke="#999999" points="202,-19 143,-19 143,0 202,0 202,-19"/>
<text text-anchor="middle" x="172.5" y="-7" font-family="Helvetica,sans-Serif" font-size="10.00">QtGlobal</text>
</a>
</g>
</g>
<!-- Node4&#45;&gt;Node5 -->
<g id="edge4" class="edge">
<title>Node4&#45;&gt;Node5</title>
<path fill="none" stroke="#63b8ff" d="M172.5,-54.75C172.5,-47.26 172.5,-36.28 172.5,-27.13"/>
<polygon fill="#63b8ff" stroke="#63b8ff" points="172.5,-19.09 176.1,-27.09 172.5,-23.09 172.5,-27.09 172.5,-27.09 172.5,-27.09 172.5,-23.09 168.9,-27.09 172.5,-19.09 172.5,-19.09"/>
</g>
<!-- Node11&#45;&gt;Node2 -->
<g id="edge11" class="edge">
<title>Node11&#45;&gt;Node2</title>
<path fill="none" stroke="#63b8ff" d="M320.28,-219.98C335.08,-211.46 358.04,-198.23 375.09,-188.41"/>
<polygon fill="#63b8ff" stroke="#63b8ff" points="382.45,-184.17 377.31,-191.28 378.98,-186.17 375.52,-188.16 375.52,-188.16 375.52,-188.16 378.98,-186.17 373.72,-185.04 382.45,-184.17 382.45,-184.17"/>
</g>
<!-- Node12 -->
<g id="node12" class="node">
<title>Node12</title>
<g id="a_node12"><a xlink:href="abstractpokitservice__p_8h.html" target="_top" xlink:title="Declares the AbstractPokitServicePrivate class.">
<polygon fill="white" stroke="#666666" points="200,-129 63,-129 63,-110 200,-110 200,-129"/>
<text text-anchor="middle" x="131.5" y="-117" font-family="Helvetica,sans-Serif" font-size="10.00">abstractpokitservice_p.h</text>
</a>
</g>
</g>
<!-- Node11&#45;&gt;Node12 -->
<g id="edge12" class="edge">
<title>Node11&#45;&gt;Node12</title>
<path fill="none" stroke="#63b8ff" d="M291.55,-219.84C261.14,-200.97 188.68,-155.99 152.62,-133.61"/>
<polygon fill="#63b8ff" stroke="#63b8ff" points="145.51,-129.2 154.21,-130.36 148.91,-131.31 152.31,-133.42 152.31,-133.42 152.31,-133.42 148.91,-131.31 150.41,-136.47 145.51,-129.2 145.51,-129.2"/>
</g>
<!-- Node12&#45;&gt;Node4 -->
<g id="edge13" class="edge">
<title>Node12&#45;&gt;Node4</title>
<path fill="none" stroke="#63b8ff" d="M138.27,-109.75C144.42,-101.8 153.62,-89.91 160.93,-80.45"/>
<polygon fill="#63b8ff" stroke="#63b8ff" points="165.86,-74.09 163.81,-82.62 163.41,-77.25 160.96,-80.42 160.96,-80.42 160.96,-80.42 163.41,-77.25 158.11,-78.21 165.86,-74.09 165.86,-74.09"/>
</g>
<!-- Node12&#45;&gt;Node6 -->
<g id="edge15" class="edge">
<title>Node12&#45;&gt;Node6</title>
<path fill="none" stroke="#63b8ff" d="M157.69,-109.98C185.53,-100.93 229.67,-86.58 260.25,-76.64"/>
<polygon fill="#63b8ff" stroke="#63b8ff" points="268.11,-74.08 261.61,-79.98 264.3,-75.32 260.5,-76.56 260.5,-76.56 260.5,-76.56 264.3,-75.32 259.38,-73.13 268.11,-74.08 268.11,-74.08"/>
</g>
<!-- Node12&#45;&gt;Node7 -->
<g id="edge16" class="edge">
<title>Node12&#45;&gt;Node7</title>
<path fill="none" stroke="#63b8ff" d="M178.08,-109.93C224.42,-101.29 297.5,-87.35 360.5,-74 360.77,-73.94 361.03,-73.89 361.3,-73.83"/>
<polygon fill="#63b8ff" stroke="#63b8ff" points="369.24,-72.1 362.19,-77.32 365.33,-72.95 361.42,-73.8 361.42,-73.8 361.42,-73.8 365.33,-72.95 360.66,-70.29 369.24,-72.1 369.24,-72.1"/>
</g>
<!-- Node13 -->
<g id="node13" class="node">
<title>Node13</title>
<g id="a_node13"><a xlink:title=" ">
<polygon fill="#e0e0e0" stroke="#999999" points="107,-74 0,-74 0,-55 107,-55 107,-74"/>
<text text-anchor="middle" x="53.5" y="-62" font-family="Helvetica,sans-Serif" font-size="10.00">QLoggingCategory</text>
</a>
</g>
</g>
<!-- Node12&#45;&gt;Node13 -->
<g id="edge14" class="edge">
<title>Node12&#45;&gt;Node13</title>
<path fill="none" stroke="#63b8ff" d="M118.97,-109.98C106.53,-101.54 87.3,-88.47 72.89,-78.68"/>
<polygon fill="#63b8ff" stroke="#63b8ff" points="66.26,-74.17 74.9,-75.69 69.57,-76.42 72.88,-78.67 72.88,-78.67 72.88,-78.67 69.57,-76.42 70.85,-81.64 66.26,-74.17 66.26,-74.17"/>
</g>
</g>
</svg>
