<?xml version="1.0" encoding="UTF-8" standalone="no"?>
<!DOCTYPE svg PUBLIC "-//W3C//DTD SVG 1.1//EN"
 "http://www.w3.org/Graphics/SVG/1.1/DTD/svg11.dtd">
<!-- Generated by graphviz version 2.43.0 (0)
 -->
<!-- Title: CurrentRange::maxValue Pages: 1 -->
<svg width="494pt" height="140pt"
 viewBox="0.00 0.00 494.00 140.00" xmlns="http://www.w3.org/2000/svg" xmlns:xlink="http://www.w3.org/1999/xlink">
<g id="graph0" class="graph" transform="scale(1 1) rotate(0) translate(4 136)">
<title>CurrentRange::maxValue</title>
<!-- Node1 -->
<g id="node1" class="node">
<title>Node1</title>
<g id="a_node1"><a xlink:title="Returns the maximum value for product&#39;s range in (integer) microamps, or the string &quot;Auto&quot;.">
<polygon fill="#999999" stroke="#666666" points="138,-76 0,-76 0,-57 138,-57 138,-76"/>
<text text-anchor="middle" x="69" y="-64" font-family="Helvetica,sans-Serif" font-size="10.00">CurrentRange::maxValue</text>
</a>
</g>
</g>
<!-- Node2 -->
<g id="node2" class="node">
<title>Node2</title>
<g id="a_node2"><a target="_parent" xlink:href="https://doc.qt.io/qt-5/qstring.html#arg-1" xlink:title=" ">
<polygon fill="white" stroke="#666666" points="273.5,-132 199.5,-132 199.5,-113 273.5,-113 273.5,-132"/>
<text text-anchor="middle" x="236.5" y="-120" font-family="Helvetica,sans-Serif" font-size="10.00">QString::arg</text>
</a>
</g>
</g>
<!-- Node1&#45;&gt;Node2 -->
<g id="edge1" class="edge">
<title>Node1&#45;&gt;Node2</title>
<path fill="none" stroke="#63b8ff" d="M94.64,-76.02C115.61,-84 146.61,-95.5 174,-104.5 180.38,-106.6 187.17,-108.71 193.83,-110.7"/>
<polygon fill="#63b8ff" stroke="#63b8ff" points="201.54,-112.99 192.85,-114.17 197.71,-111.86 193.87,-110.72 193.87,-110.72 193.87,-110.72 197.71,-111.86 194.9,-107.27 201.54,-112.99 201.54,-112.99"/>
</g>
<!-- Node3 -->
<g id="node3" class="node">
<title>Node3</title>
<g id="a_node3"><a xlink:href="namespacePokitPro.html#a377d083e0bc3e7972ba1476914dda1b5" target="_top" xlink:title="Returns the maximum value for range in (integer) nanofarads, or the string &quot;Auto&quot;.">
<polygon fill="white" stroke="#666666" points="292.5,-95 180.5,-95 180.5,-76 292.5,-76 292.5,-95"/>
<text text-anchor="middle" x="236.5" y="-83" font-family="Helvetica,sans-Serif" font-size="10.00">PokitPro::maxValue</text>
</a>
</g>
</g>
<!-- Node1&#45;&gt;Node3 -->
<g id="edge2" class="edge">
<title>Node1&#45;&gt;Node3</title>
<path fill="none" stroke="#63b8ff" d="M138.27,-74.34C149.52,-75.63 161.14,-76.96 172.26,-78.24"/>
<polygon fill="#63b8ff" stroke="#63b8ff" points="180.25,-79.16 171.89,-81.82 176.28,-78.7 172.3,-78.24 172.3,-78.24 172.3,-78.24 176.28,-78.7 172.72,-74.67 180.25,-79.16 180.25,-79.16"/>
</g>
<!-- Node4 -->
<g id="node4" class="node">
<title>Node4</title>
<g id="a_node4"><a target="_parent" xlink:href="https://doc.qt.io/qt-5/qcoreapplication.html#translate" xlink:title=" ">
<polygon fill="white" stroke="#666666" points="486,-57 335,-57 335,-38 486,-38 486,-57"/>
<text text-anchor="middle" x="410.5" y="-45" font-family="Helvetica,sans-Serif" font-size="10.00">QCoreApplication::translate</text>
</a>
</g>
</g>
<!-- Node1&#45;&gt;Node4 -->
<g id="edge6" class="edge">
<title>Node1&#45;&gt;Node4</title>
<path fill="none" stroke="#63b8ff" d="M138.29,-62.68C192.66,-59.64 268.97,-55.36 326.8,-52.13"/>
<polygon fill="#63b8ff" stroke="#63b8ff" points="334.83,-51.68 327.04,-55.72 330.84,-51.9 326.84,-52.13 326.84,-52.13 326.84,-52.13 330.84,-51.9 326.64,-48.53 334.83,-51.68 334.83,-51.68"/>
</g>
<!-- Node5 -->
<g id="node5" class="node">
<title>Node5</title>
<g id="a_node5"><a xlink:href="namespacePokitMeter.html#a86a4eb262b1a9fde417acdee8eea00b7" target="_top" xlink:title="Returns the maximum value for range in (integer) microamps, or the string &quot;Auto&quot;.">
<polygon fill="white" stroke="#666666" points="299,-19 174,-19 174,0 299,0 299,-19"/>
<text text-anchor="middle" x="236.5" y="-7" font-family="Helvetica,sans-Serif" font-size="10.00">PokitMeter::maxValue</text>
</a>
</g>
</g>
<!-- Node1&#45;&gt;Node5 -->
<g id="edge4" class="edge">
<title>Node1&#45;&gt;Node5</title>
<path fill="none" stroke="#63b8ff" d="M97.7,-56.96C125.75,-47.3 169.23,-32.32 199.83,-21.78"/>
<polygon fill="#63b8ff" stroke="#63b8ff" points="207.71,-19.07 201.32,-25.08 203.93,-20.37 200.14,-21.68 200.14,-21.68 200.14,-21.68 203.93,-20.37 198.97,-18.27 207.71,-19.07 207.71,-19.07"/>
</g>
<!-- Node3&#45;&gt;Node4 -->
<g id="edge3" class="edge">
<title>Node3&#45;&gt;Node4</title>
<path fill="none" stroke="#63b8ff" d="M280.9,-75.91C304.52,-70.69 333.87,-64.21 358.57,-58.75"/>
<polygon fill="#63b8ff" stroke="#63b8ff" points="366.41,-57.02 359.37,-62.26 362.5,-57.88 358.6,-58.75 358.6,-58.75 358.6,-58.75 362.5,-57.88 357.82,-55.23 366.41,-57.02 366.41,-57.02"/>
</g>
<!-- Node5&#45;&gt;Node4 -->
<g id="edge5" class="edge">
<title>Node5&#45;&gt;Node4</title>
<path fill="none" stroke="#63b8ff" d="M280.9,-19.09C304.52,-24.31 333.87,-30.79 358.57,-36.25"/>
<polygon fill="#63b8ff" stroke="#63b8ff" points="366.41,-37.98 357.82,-39.77 362.5,-37.12 358.6,-36.25 358.6,-36.25 358.6,-36.25 362.5,-37.12 359.37,-32.74 366.41,-37.98 366.41,-37.98"/>
</g>
</g>
</svg>
