<?xml version="1.0" encoding="UTF-8" standalone="no"?>
<!DOCTYPE svg PUBLIC "-//W3C//DTD SVG 1.1//EN"
 "http://www.w3.org/Graphics/SVG/1.1/DTD/svg11.dtd">
<!-- Generated by graphviz version 2.43.0 (0)
 -->
<!-- Title: PokitPro::maxValue Pages: 1 -->
<svg width="616pt" height="138pt"
 viewBox="0.00 0.00 616.00 138.00" xmlns="http://www.w3.org/2000/svg" xmlns:xlink="http://www.w3.org/1999/xlink">
<g id="graph0" class="graph" transform="scale(1 1) rotate(0) translate(4 134)">
<title>PokitPro::maxValue</title>
<!-- Node1 -->
<g id="node1" class="node">
<title>Node1</title>
<g id="a_node1"><a xlink:title="Returns the maximum value for range in (integer) nanofarads, or the string &quot;Auto&quot;.">
<polygon fill="#999999" stroke="#666666" points="608,-74 496,-74 496,-55 608,-55 608,-74"/>
<text text-anchor="middle" x="552" y="-62" font-family="Helvetica,sans-Serif" font-size="10.00">PokitPro::maxValue</text>
</a>
</g>
</g>
<!-- Node2 -->
<g id="node2" class="node">
<title>Node2</title>
<g id="a_node2"><a xlink:href="namespaceCapacitanceRange.html#a08b309956882fef575456510c8f6145d" target="_top" xlink:title="Returns the maximum value for product&#39;s range in (integer) nanofarads, or the string &quot;Auto&quot;.">
<polygon fill="white" stroke="#666666" points="460,-130 298,-130 298,-111 460,-111 460,-130"/>
<text text-anchor="middle" x="379" y="-118" font-family="Helvetica,sans-Serif" font-size="10.00">CapacitanceRange::maxValue</text>
</a>
</g>
</g>
<!-- Node1&#45;&gt;Node2 -->
<g id="edge1" class="edge">
<title>Node1&#45;&gt;Node2</title>
<path fill="none" stroke="#63b8ff" d="M523.06,-77.66C505.3,-85.65 481.64,-95.6 460,-102.5 449.96,-105.7 439.04,-108.55 428.59,-110.99"/>
<polygon fill="#63b8ff" stroke="#63b8ff" points="530.78,-74.14 524.99,-80.73 527.14,-75.8 523.5,-77.46 523.5,-77.46 523.5,-77.46 527.14,-75.8 522.01,-74.18 530.78,-74.14 530.78,-74.14"/>
</g>
<!-- Node5 -->
<g id="node5" class="node">
<title>Node5</title>
<g id="a_node5"><a xlink:href="namespaceCurrentRange.html#a49520c1083330ff25586783a3a72b717" target="_top" xlink:title="Returns the maximum value for product&#39;s range in (integer) microamps, or the string &quot;Auto&quot;.">
<polygon fill="white" stroke="#666666" points="448,-93 310,-93 310,-74 448,-74 448,-93"/>
<text text-anchor="middle" x="379" y="-81" font-family="Helvetica,sans-Serif" font-size="10.00">CurrentRange::maxValue</text>
</a>
</g>
</g>
<!-- Node1&#45;&gt;Node5 -->
<g id="edge4" class="edge">
<title>Node1&#45;&gt;Node5</title>
<path fill="none" stroke="#63b8ff" d="M487.98,-71.5C475,-72.94 461.28,-74.47 448.13,-75.93"/>
<polygon fill="#63b8ff" stroke="#63b8ff" points="495.95,-70.62 488.4,-75.08 491.98,-71.06 488,-71.5 488,-71.5 488,-71.5 491.98,-71.06 487.6,-67.92 495.95,-70.62 495.95,-70.62"/>
</g>
<!-- Node6 -->
<g id="node6" class="node">
<title>Node6</title>
<g id="a_node6"><a xlink:href="namespaceResistanceRange.html#a73a157858424f45b6a623da183bd3a4a" target="_top" xlink:title="Returns the maximum value for product&#39;s range in (integer) ohms, or the string &quot;Auto&quot;.">
<polygon fill="white" stroke="#666666" points="456.5,-56 301.5,-56 301.5,-37 456.5,-37 456.5,-56"/>
<text text-anchor="middle" x="379" y="-44" font-family="Helvetica,sans-Serif" font-size="10.00">ResistanceRange::maxValue</text>
</a>
</g>
</g>
<!-- Node1&#45;&gt;Node6 -->
<g id="edge6" class="edge">
<title>Node1&#45;&gt;Node6</title>
<path fill="none" stroke="#63b8ff" d="M487.92,-57.86C477.78,-56.79 467.17,-55.68 456.75,-54.58"/>
<polygon fill="#63b8ff" stroke="#63b8ff" points="495.95,-58.71 487.62,-61.45 491.98,-58.29 488,-57.87 488,-57.87 488,-57.87 491.98,-58.29 488.37,-54.29 495.95,-58.71 495.95,-58.71"/>
</g>
<!-- Node7 -->
<g id="node7" class="node">
<title>Node7</title>
<g id="a_node7"><a xlink:href="namespaceVoltageRange.html#a5aa11f1985c6950f8312e88061449f21" target="_top" xlink:title="Returns the maximum value for product&#39;s range in (integer) millivolts, or the string &quot;Auto&quot;.">
<polygon fill="white" stroke="#666666" points="448.5,-19 309.5,-19 309.5,0 448.5,0 448.5,-19"/>
<text text-anchor="middle" x="379" y="-7" font-family="Helvetica,sans-Serif" font-size="10.00">VoltageRange::maxValue</text>
</a>
</g>
</g>
<!-- Node1&#45;&gt;Node7 -->
<g id="edge8" class="edge">
<title>Node1&#45;&gt;Node7</title>
<path fill="none" stroke="#63b8ff" d="M521.55,-51.61C503.92,-44.2 480.94,-35.09 460,-28.5 448.83,-24.99 436.61,-21.77 425.16,-19.03"/>
<polygon fill="#63b8ff" stroke="#63b8ff" points="529.25,-54.87 520.48,-55.06 525.57,-53.31 521.89,-51.75 521.89,-51.75 521.89,-51.75 525.57,-53.31 523.3,-48.43 529.25,-54.87 529.25,-54.87"/>
</g>
<!-- Node3 -->
<g id="node3" class="node">
<title>Node3</title>
<g id="a_node3"><a xlink:href="classMultimeterService.html#a9d05ef9c2d80a941bfd4f972d3dc6145" target="_top" xlink:title="Returns the maximum value for range, or the string &quot;Auto&quot;.">
<polygon fill="white" stroke="#666666" points="262,-79.5 149,-79.5 149,-49.5 262,-49.5 262,-79.5"/>
<text text-anchor="start" x="157" y="-67.5" font-family="Helvetica,sans-Serif" font-size="10.00">MultimeterService::</text>
<text text-anchor="middle" x="205.5" y="-56.5" font-family="Helvetica,sans-Serif" font-size="10.00">maxValue</text>
</a>
</g>
</g>
<!-- Node2&#45;&gt;Node3 -->
<g id="edge2" class="edge">
<title>Node2&#45;&gt;Node3</title>
<path fill="none" stroke="#63b8ff" d="M321.51,-109.07C313.56,-107.09 305.53,-104.89 298,-102.5 278,-96.15 256.28,-87.22 239.02,-79.61"/>
<polygon fill="#63b8ff" stroke="#63b8ff" points="329.41,-110.98 320.79,-112.6 325.53,-110.04 321.64,-109.1 321.64,-109.1 321.64,-109.1 325.53,-110.04 322.48,-105.6 329.41,-110.98 329.41,-110.98"/>
</g>
<!-- Node4 -->
<g id="node4" class="node">
<title>Node4</title>
<g id="a_node4"><a xlink:href="classMultimeterService.html#a80dd2c9eed94973bbc532ee42daee1fb" target="_top" xlink:title="Returns the maximum value for range, or the string &quot;Auto&quot;.">
<polygon fill="white" stroke="#666666" points="113,-79.5 0,-79.5 0,-49.5 113,-49.5 113,-79.5"/>
<text text-anchor="start" x="8" y="-67.5" font-family="Helvetica,sans-Serif" font-size="10.00">MultimeterService::</text>
<text text-anchor="middle" x="56.5" y="-56.5" font-family="Helvetica,sans-Serif" font-size="10.00">maxValue</text>
</a>
</g>
</g>
<!-- Node3&#45;&gt;Node4 -->
<g id="edge3" class="edge">
<title>Node3&#45;&gt;Node4</title>
<path fill="none" stroke="#63b8ff" d="M140.88,-64.5C131.65,-64.5 122.21,-64.5 113.15,-64.5"/>
<polygon fill="#63b8ff" stroke="#63b8ff" points="148.93,-64.5 140.93,-68.1 144.93,-64.5 140.93,-64.5 140.93,-64.5 140.93,-64.5 144.93,-64.5 140.93,-60.9 148.93,-64.5 148.93,-64.5"/>
</g>
<!-- Node5&#45;&gt;Node3 -->
<g id="edge5" class="edge">
<title>Node5&#45;&gt;Node3</title>
<path fill="none" stroke="#63b8ff" d="M301.52,-75.03C288.27,-73.56 274.72,-72.06 262.16,-70.67"/>
<polygon fill="#63b8ff" stroke="#63b8ff" points="309.73,-75.94 301.38,-78.63 305.75,-75.5 301.77,-75.06 301.77,-75.06 301.77,-75.06 305.75,-75.5 302.17,-71.48 309.73,-75.94 309.73,-75.94"/>
</g>
<!-- Node6&#45;&gt;Node3 -->
<g id="edge7" class="edge">
<title>Node6&#45;&gt;Node3</title>
<path fill="none" stroke="#63b8ff" d="M293.21,-55.4C282.64,-56.51 272.05,-57.62 262.08,-58.67"/>
<polygon fill="#63b8ff" stroke="#63b8ff" points="301.28,-54.55 293.7,-58.97 297.3,-54.97 293.32,-55.39 293.32,-55.39 293.32,-55.39 297.3,-54.97 292.95,-51.81 301.28,-54.55 301.28,-54.55"/>
</g>
<!-- Node7&#45;&gt;Node3 -->
<g id="edge9" class="edge">
<title>Node7&#45;&gt;Node3</title>
<path fill="none" stroke="#63b8ff" d="M324.96,-20.98C315.91,-23.26 306.64,-25.79 298,-28.5 278.94,-34.48 258.19,-42.51 241.28,-49.47"/>
<polygon fill="#63b8ff" stroke="#63b8ff" points="332.85,-19.04 325.93,-24.45 328.96,-20 325.08,-20.95 325.08,-20.95 325.08,-20.95 328.96,-20 324.22,-17.45 332.85,-19.04 332.85,-19.04"/>
</g>
</g>
</svg>
