<?xml version="1.0" encoding="UTF-8" standalone="no"?>
<!DOCTYPE svg PUBLIC "-//W3C//DTD SVG 1.1//EN"
 "http://www.w3.org/Graphics/SVG/1.1/DTD/svg11.dtd">
<!-- Generated by graphviz version 2.43.0 (0)
 -->
<!-- Title: CapacitanceRange::maxValue Pages: 1 -->
<svg width="318pt" height="45pt"
 viewBox="0.00 0.00 318.00 45.00" xmlns="http://www.w3.org/2000/svg" xmlns:xlink="http://www.w3.org/1999/xlink">
<g id="graph0" class="graph" transform="scale(1 1) rotate(0) translate(4 41)">
<title>CapacitanceRange::maxValue</title>
<!-- Node1 -->
<g id="Node000001" class="node">
<title>Node1</title>
<g id="a_Node000001"><a xlink:title="Returns the maximum value for range in nanofarads, or 0 if range is not a known value for product.">
<polygon fill="#999999" stroke="#666666" points="162,-19 0,-19 0,0 162,0 162,-19"/>
<text text-anchor="middle" x="81" y="-7" font-family="Helvetica,sans-Serif" font-size="10.00">CapacitanceRange::maxValue</text>
</a>
</g>
</g>
<!-- Node1&#45;&gt;Node1 -->
<g id="edge1_Node000001_Node000001" class="edge">
<title>Node1&#45;&gt;Node1</title>
<g id="a_edge1_Node000001_Node000001"><a xlink:title=" ">
<path fill="none" stroke="#63b8ff" d="M54.49,-19.08C41.59,-27.73 50.43,-37 81,-37 104.41,-37 115.07,-31.57 113,-25.14"/>
<polygon fill="#63b8ff" stroke="#63b8ff" points="107.51,-19.08 115.55,-22.6 110.2,-22.05 112.88,-25.01 112.88,-25.01 112.88,-25.01 110.2,-22.05 110.21,-27.43 107.51,-19.08 107.51,-19.08"/>
</a>
</g>
</g>
<!-- Node2 -->
<g id="Node000002" class="node">
<title>Node2</title>
<g id="a_Node000002"><a xlink:href="namespacePokitPro.html#ae2ab8138755e0f9a6876f3bbc61fad60" target="_top" xlink:title="Returns the maximum value for range in nanofarads, or 0 if range is not a known value for Pokit Pro d...">
<polygon fill="white" stroke="#666666" points="310,-19 198,-19 198,0 310,0 310,-19"/>
<text text-anchor="middle" x="254" y="-7" font-family="Helvetica,sans-Serif" font-size="10.00">PokitPro::maxValue</text>
</a>
</g>
</g>
<!-- Node1&#45;&gt;Node2 -->
<g id="edge2_Node000001_Node000002" class="edge">
<title>Node1&#45;&gt;Node2</title>
<g id="a_edge2_Node000001_Node000002"><a xlink:title=" ">
<path fill="none" stroke="#63b8ff" d="M162.24,-9.5C171.41,-9.5 180.66,-9.5 189.57,-9.5"/>
<polygon fill="#63b8ff" stroke="#63b8ff" points="197.64,-9.5 189.64,-13.1 193.64,-9.5 189.64,-9.5 189.64,-9.5 189.64,-9.5 193.64,-9.5 189.64,-5.9 197.64,-9.5 197.64,-9.5"/>
</a>
</g>
</g>
<!-- Node2&#45;&gt;Node2 -->
<g id="edge3_Node000002_Node000002" class="edge">
<title>Node2&#45;&gt;Node2</title>
<g id="a_edge3_Node000002_Node000002"><a xlink:title=" ">
<path fill="none" stroke="#63b8ff" d="M227.49,-19.08C214.59,-27.73 223.43,-37 254,-37 277.41,-37 288.07,-31.57 286,-25.14"/>
<polygon fill="#63b8ff" stroke="#63b8ff" points="280.51,-19.08 288.55,-22.6 283.2,-22.05 285.88,-25.01 285.88,-25.01 285.88,-25.01 283.2,-22.05 283.21,-27.43 280.51,-19.08 280.51,-19.08"/>
</a>
</g>
</g>
</g>
</svg>
