<?xml version="1.0" encoding="UTF-8" standalone="no"?>
<!DOCTYPE svg PUBLIC "-//W3C//DTD SVG 1.1//EN"
 "http://www.w3.org/Graphics/SVG/1.1/DTD/svg11.dtd">
<!-- Generated by graphviz version 2.43.0 (0)
 -->
<!-- Title: ResistanceRange::maxValue Pages: 1 -->
<svg width="511pt" height="140pt"
 viewBox="0.00 0.00 511.00 140.00" xmlns="http://www.w3.org/2000/svg" xmlns:xlink="http://www.w3.org/1999/xlink">
<g id="graph0" class="graph" transform="scale(1 1) rotate(0) translate(4 136)">
<title>ResistanceRange::maxValue</title>
<!-- Node1 -->
<g id="node1" class="node">
<title>Node1</title>
<g id="a_node1"><a xlink:title="Returns the maximum value for product&#39;s range in (integer) ohms, or the string &quot;Auto&quot;.">
<polygon fill="#999999" stroke="#666666" points="155,-76 0,-76 0,-57 155,-57 155,-76"/>
<text text-anchor="middle" x="77.5" y="-64" font-family="Helvetica,sans-Serif" font-size="10.00">ResistanceRange::maxValue</text>
</a>
</g>
</g>
<!-- Node2 -->
<g id="node2" class="node">
<title>Node2</title>
<g id="a_node2"><a target="_parent" xlink:href="https://doc.qt.io/qt-5/qstring.html#arg-1" xlink:title=" ">
<polygon fill="white" stroke="#666666" points="290.5,-132 216.5,-132 216.5,-113 290.5,-113 290.5,-132"/>
<text text-anchor="middle" x="253.5" y="-120" font-family="Helvetica,sans-Serif" font-size="10.00">QString::arg</text>
</a>
</g>
</g>
<!-- Node1&#45;&gt;Node2 -->
<g id="edge1" class="edge">
<title>Node1&#45;&gt;Node2</title>
<path fill="none" stroke="#63b8ff" d="M105.68,-76.03C128.4,-83.91 161.7,-95.27 191,-104.5 197.48,-106.54 204.37,-108.64 211.11,-110.64"/>
<polygon fill="#63b8ff" stroke="#63b8ff" points="218.91,-112.94 210.22,-114.13 215.07,-111.81 211.24,-110.68 211.24,-110.68 211.24,-110.68 215.07,-111.81 212.26,-107.22 218.91,-112.94 218.91,-112.94"/>
</g>
<!-- Node3 -->
<g id="node3" class="node">
<title>Node3</title>
<g id="a_node3"><a xlink:href="namespacePokitPro.html#a377d083e0bc3e7972ba1476914dda1b5" target="_top" xlink:title="Returns the maximum value for range in (integer) nanofarads, or the string &quot;Auto&quot;.">
<polygon fill="white" stroke="#666666" points="309.5,-95 197.5,-95 197.5,-76 309.5,-76 309.5,-95"/>
<text text-anchor="middle" x="253.5" y="-83" font-family="Helvetica,sans-Serif" font-size="10.00">PokitPro::maxValue</text>
</a>
</g>
</g>
<!-- Node1&#45;&gt;Node3 -->
<g id="edge2" class="edge">
<title>Node1&#45;&gt;Node3</title>
<path fill="none" stroke="#63b8ff" d="M155.07,-74.86C166.52,-76.11 178.21,-77.39 189.33,-78.6"/>
<polygon fill="#63b8ff" stroke="#63b8ff" points="197.32,-79.48 188.98,-82.19 193.35,-79.04 189.37,-78.61 189.37,-78.61 189.37,-78.61 193.35,-79.04 189.76,-75.03 197.32,-79.48 197.32,-79.48"/>
</g>
<!-- Node4 -->
<g id="node4" class="node">
<title>Node4</title>
<g id="a_node4"><a target="_parent" xlink:href="https://doc.qt.io/qt-5/qcoreapplication.html#translate" xlink:title=" ">
<polygon fill="white" stroke="#666666" points="503,-57 352,-57 352,-38 503,-38 503,-57"/>
<text text-anchor="middle" x="427.5" y="-45" font-family="Helvetica,sans-Serif" font-size="10.00">QCoreApplication::translate</text>
</a>
</g>
</g>
<!-- Node1&#45;&gt;Node4 -->
<g id="edge6" class="edge">
<title>Node1&#45;&gt;Node4</title>
<path fill="none" stroke="#63b8ff" d="M155.3,-62.31C211.1,-59.26 286.54,-55.14 343.69,-52.02"/>
<polygon fill="#63b8ff" stroke="#63b8ff" points="351.99,-51.57 344.19,-55.6 347.99,-51.79 344,-52 344,-52 344,-52 347.99,-51.79 343.8,-48.41 351.99,-51.57 351.99,-51.57"/>
</g>
<!-- Node5 -->
<g id="node5" class="node">
<title>Node5</title>
<g id="a_node5"><a xlink:href="namespacePokitMeter.html#a86a4eb262b1a9fde417acdee8eea00b7" target="_top" xlink:title="Returns the maximum value for range in (integer) microamps, or the string &quot;Auto&quot;.">
<polygon fill="white" stroke="#666666" points="316,-19 191,-19 191,0 316,0 316,-19"/>
<text text-anchor="middle" x="253.5" y="-7" font-family="Helvetica,sans-Serif" font-size="10.00">PokitMeter::maxValue</text>
</a>
</g>
</g>
<!-- Node1&#45;&gt;Node5 -->
<g id="edge4" class="edge">
<title>Node1&#45;&gt;Node5</title>
<path fill="none" stroke="#63b8ff" d="M107.62,-56.96C137.23,-47.26 183.21,-32.2 215.41,-21.65"/>
<polygon fill="#63b8ff" stroke="#63b8ff" points="223.28,-19.07 216.8,-24.98 219.48,-20.32 215.68,-21.56 215.68,-21.56 215.68,-21.56 219.48,-20.32 214.56,-18.14 223.28,-19.07 223.28,-19.07"/>
</g>
<!-- Node3&#45;&gt;Node4 -->
<g id="edge3" class="edge">
<title>Node3&#45;&gt;Node4</title>
<path fill="none" stroke="#63b8ff" d="M297.9,-75.91C321.52,-70.69 350.87,-64.21 375.57,-58.75"/>
<polygon fill="#63b8ff" stroke="#63b8ff" points="383.41,-57.02 376.37,-62.26 379.5,-57.88 375.6,-58.75 375.6,-58.75 375.6,-58.75 379.5,-57.88 374.82,-55.23 383.41,-57.02 383.41,-57.02"/>
</g>
<!-- Node5&#45;&gt;Node4 -->
<g id="edge5" class="edge">
<title>Node5&#45;&gt;Node4</title>
<path fill="none" stroke="#63b8ff" d="M297.9,-19.09C321.52,-24.31 350.87,-30.79 375.57,-36.25"/>
<polygon fill="#63b8ff" stroke="#63b8ff" points="383.41,-37.98 374.82,-39.77 379.5,-37.12 375.6,-36.25 375.6,-36.25 375.6,-36.25 379.5,-37.12 376.37,-32.74 383.41,-37.98 383.41,-37.98"/>
</g>
</g>
</svg>
