<?xml version="1.0" encoding="UTF-8" standalone="no"?>
<!DOCTYPE svg PUBLIC "-//W3C//DTD SVG 1.1//EN"
 "http://www.w3.org/Graphics/SVG/1.1/DTD/svg11.dtd">
<!-- Generated by graphviz version 2.43.0 (0)
 -->
<!-- Title: PokitMeter::toString Pages: 1 -->
<svg width="455pt" height="124pt"
 viewBox="0.00 0.00 455.00 123.50" xmlns="http://www.w3.org/2000/svg" xmlns:xlink="http://www.w3.org/1999/xlink">
<g id="graph0" class="graph" transform="scale(1 1) rotate(0) translate(4 119.5)">
<title>PokitMeter::toString</title>
<!-- Node1 -->
<g id="node1" class="node">
<title>Node1</title>
<g id="a_node1"><a xlink:title="Returns range as a user&#45;friendly string.">
<polygon fill="#999999" stroke="#666666" points="447,-61.5 333,-61.5 333,-42.5 447,-42.5 447,-61.5"/>
<text text-anchor="middle" x="390" y="-49.5" font-family="Helvetica,sans-Serif" font-size="10.00">PokitMeter::toString</text>
</a>
</g>
</g>
<!-- Node2 -->
<g id="node2" class="node">
<title>Node2</title>
<g id="a_node2"><a xlink:href="namespaceCurrentRange.html#a683a82fdd02371d1d6acb4bbbd91e844" target="_top" xlink:title="Returns product&#39;s current range as a human&#45;friendly string.">
<polygon fill="white" stroke="#666666" points="288.5,-61.5 160.5,-61.5 160.5,-42.5 288.5,-42.5 288.5,-61.5"/>
<text text-anchor="middle" x="224.5" y="-49.5" font-family="Helvetica,sans-Serif" font-size="10.00">CurrentRange::toString</text>
</a>
</g>
</g>
<!-- Node1&#45;&gt;Node2 -->
<g id="edge1" class="edge">
<title>Node1&#45;&gt;Node2</title>
<path fill="none" stroke="#63b8ff" d="M324.62,-52C312.77,-52 300.41,-52 288.6,-52"/>
<polygon fill="#63b8ff" stroke="#63b8ff" points="332.73,-52 324.73,-55.6 328.73,-52 324.73,-52 324.73,-52 324.73,-52 328.73,-52 324.73,-48.4 332.73,-52 332.73,-52"/>
</g>
<!-- Node6 -->
<g id="node6" class="node">
<title>Node6</title>
<g id="a_node6"><a xlink:href="namespaceResistanceRange.html#a6f542c3fe27b9c58c03edc92ceab40ef" target="_top" xlink:title="Returns product&#39;s current range as a human&#45;friendly string.">
<polygon fill="white" stroke="#666666" points="297,-24.5 152,-24.5 152,-5.5 297,-5.5 297,-24.5"/>
<text text-anchor="middle" x="224.5" y="-12.5" font-family="Helvetica,sans-Serif" font-size="10.00">ResistanceRange::toString</text>
</a>
</g>
</g>
<!-- Node1&#45;&gt;Node6 -->
<g id="edge5" class="edge">
<title>Node1&#45;&gt;Node6</title>
<path fill="none" stroke="#63b8ff" d="M339.01,-40.69C316.21,-35.53 289.52,-29.49 267.75,-24.56"/>
<polygon fill="#63b8ff" stroke="#63b8ff" points="346.89,-42.47 338.3,-44.22 342.99,-41.59 339.09,-40.71 339.09,-40.71 339.09,-40.71 342.99,-41.59 339.89,-37.19 346.89,-42.47 346.89,-42.47"/>
</g>
<!-- Node7 -->
<g id="node7" class="node">
<title>Node7</title>
<g id="a_node7"><a xlink:href="namespaceVoltageRange.html#a843ef4bfc3538988c695fa643adcd4d0" target="_top" xlink:title="Returns product&#39;s current range as a human&#45;friendly string.">
<polygon fill="white" stroke="#666666" points="288.5,-98.5 160.5,-98.5 160.5,-79.5 288.5,-79.5 288.5,-98.5"/>
<text text-anchor="middle" x="224.5" y="-86.5" font-family="Helvetica,sans-Serif" font-size="10.00">VoltageRange::toString</text>
</a>
</g>
</g>
<!-- Node1&#45;&gt;Node7 -->
<g id="edge7" class="edge">
<title>Node1&#45;&gt;Node7</title>
<path fill="none" stroke="#63b8ff" d="M339.01,-63.31C316.21,-68.47 289.52,-74.51 267.75,-79.44"/>
<polygon fill="#63b8ff" stroke="#63b8ff" points="346.89,-61.53 339.89,-66.81 342.99,-62.41 339.09,-63.29 339.09,-63.29 339.09,-63.29 342.99,-62.41 338.3,-59.78 346.89,-61.53 346.89,-61.53"/>
</g>
<!-- Node3 -->
<g id="node3" class="node">
<title>Node3</title>
<g id="a_node3"><a xlink:href="classDataLoggerService.html#acb7b2d9480b2756074571c6b96531337" target="_top" xlink:title="Returns range as a user&#45;friendly string, or a null QString if mode has no ranges.">
<polygon fill="white" stroke="#666666" points="115.5,-78 0.5,-78 0.5,-48 115.5,-48 115.5,-78"/>
<text text-anchor="start" x="8.5" y="-66" font-family="Helvetica,sans-Serif" font-size="10.00">DataLoggerService::</text>
<text text-anchor="middle" x="58" y="-55" font-family="Helvetica,sans-Serif" font-size="10.00">toString</text>
</a>
</g>
</g>
<!-- Node2&#45;&gt;Node3 -->
<g id="edge2" class="edge">
<title>Node2&#45;&gt;Node3</title>
<path fill="none" stroke="#63b8ff" d="M152.34,-56.76C140.02,-57.58 127.36,-58.43 115.5,-59.22"/>
<polygon fill="#63b8ff" stroke="#63b8ff" points="160.37,-56.22 152.63,-60.35 156.38,-56.49 152.39,-56.76 152.39,-56.76 152.39,-56.76 156.38,-56.49 152.15,-53.16 160.37,-56.22 160.37,-56.22"/>
</g>
<!-- Node4 -->
<g id="node4" class="node">
<title>Node4</title>
<g id="a_node4"><a xlink:href="classDsoService.html#ae30b37a57050beb9f9d36f8dc38b2bb6" target="_top" xlink:title="Returns range as a user&#45;friendly string, or a null QString if mode has no ranges.">
<polygon fill="white" stroke="#666666" points="116,-115.5 0,-115.5 0,-96.5 116,-96.5 116,-115.5"/>
<text text-anchor="middle" x="58" y="-103.5" font-family="Helvetica,sans-Serif" font-size="10.00">DsoService::toString</text>
</a>
</g>
</g>
<!-- Node2&#45;&gt;Node4 -->
<g id="edge3" class="edge">
<title>Node2&#45;&gt;Node4</title>
<path fill="none" stroke="#63b8ff" d="M172.05,-63.67C165.24,-65.59 158.41,-67.7 152,-70 135.34,-75.97 132.42,-80.41 116,-87 107.67,-90.34 98.51,-93.58 90.01,-96.41"/>
<polygon fill="#63b8ff" stroke="#63b8ff" points="179.99,-61.51 173.21,-67.08 176.13,-62.56 172.27,-63.61 172.27,-63.61 172.27,-63.61 176.13,-62.56 171.33,-60.13 179.99,-61.51 179.99,-61.51"/>
</g>
<!-- Node5 -->
<g id="node5" class="node">
<title>Node5</title>
<g id="a_node5"><a xlink:href="classMultimeterService.html#a66e1f404c97d779e284c0a6c7c954c49" target="_top" xlink:title="Returns range as a user&#45;friendly string, or a null QString if mode has no ranges.">
<polygon fill="white" stroke="#666666" points="114.5,-30 1.5,-30 1.5,0 114.5,0 114.5,-30"/>
<text text-anchor="start" x="9.5" y="-18" font-family="Helvetica,sans-Serif" font-size="10.00">MultimeterService::</text>
<text text-anchor="middle" x="58" y="-7" font-family="Helvetica,sans-Serif" font-size="10.00">toString</text>
</a>
</g>
</g>
<!-- Node2&#45;&gt;Node5 -->
<g id="edge4" class="edge">
<title>Node2&#45;&gt;Node5</title>
<path fill="none" stroke="#63b8ff" d="M172.85,-40.61C154.39,-36.46 133.43,-31.74 114.56,-27.5"/>
<polygon fill="#63b8ff" stroke="#63b8ff" points="181.14,-42.47 172.54,-44.23 177.23,-41.59 173.33,-40.72 173.33,-40.72 173.33,-40.72 177.23,-41.59 174.12,-37.2 181.14,-42.47 181.14,-42.47"/>
</g>
<!-- Node6&#45;&gt;Node5 -->
<g id="edge6" class="edge">
<title>Node6&#45;&gt;Node5</title>
<path fill="none" stroke="#63b8ff" d="M143.61,-15C133.8,-15 123.95,-15 114.61,-15"/>
<polygon fill="#63b8ff" stroke="#63b8ff" points="151.83,-15 143.83,-18.6 147.83,-15 143.83,-15 143.83,-15 143.83,-15 147.83,-15 143.83,-11.4 151.83,-15 151.83,-15"/>
</g>
<!-- Node7&#45;&gt;Node3 -->
<g id="edge8" class="edge">
<title>Node7&#45;&gt;Node3</title>
<path fill="none" stroke="#63b8ff" d="M155.1,-78.19C142.01,-76.12 128.44,-73.97 115.76,-71.97"/>
<polygon fill="#63b8ff" stroke="#63b8ff" points="163.18,-79.47 154.72,-81.77 159.23,-78.84 155.28,-78.22 155.28,-78.22 155.28,-78.22 159.23,-78.84 155.84,-74.66 163.18,-79.47 163.18,-79.47"/>
</g>
<!-- Node7&#45;&gt;Node4 -->
<g id="edge9" class="edge">
<title>Node7&#45;&gt;Node4</title>
<path fill="none" stroke="#63b8ff" d="M152.09,-96.38C140.03,-97.63 127.66,-98.9 116.04,-100.11"/>
<polygon fill="#63b8ff" stroke="#63b8ff" points="160.37,-95.52 152.78,-99.93 156.39,-95.94 152.41,-96.35 152.41,-96.35 152.41,-96.35 156.39,-95.94 152.04,-92.77 160.37,-95.52 160.37,-95.52"/>
</g>
<!-- Node7&#45;&gt;Node5 -->
<g id="edge10" class="edge">
<title>Node7&#45;&gt;Node5</title>
<path fill="none" stroke="#63b8ff" d="M167.52,-76.78C162.15,-74.82 156.89,-72.58 152,-70 133.32,-60.15 133.95,-50.12 116,-39 110.8,-35.78 105.09,-32.8 99.35,-30.12"/>
<polygon fill="#63b8ff" stroke="#63b8ff" points="175.44,-79.44 166.71,-80.3 171.65,-78.17 167.86,-76.89 167.86,-76.89 167.86,-76.89 171.65,-78.17 169,-73.48 175.44,-79.44 175.44,-79.44"/>
</g>
</g>
</svg>
