<?xml version="1.0" encoding="UTF-8" standalone="no"?>
<!DOCTYPE svg PUBLIC "-//W3C//DTD SVG 1.1//EN"
 "http://www.w3.org/Graphics/SVG/1.1/DTD/svg11.dtd">
<!-- Generated by graphviz version 2.43.0 (0)
 -->
<!-- Title: VoltageRange::toString Pages: 1 -->
<svg width="473pt" height="64pt"
 viewBox="0.00 0.00 473.00 64.00" xmlns="http://www.w3.org/2000/svg" xmlns:xlink="http://www.w3.org/1999/xlink">
<g id="graph0" class="graph" transform="scale(1 1) rotate(0) translate(4 60)">
<title>VoltageRange::toString</title>
<!-- Node1 -->
<g id="node1" class="node">
<title>Node1</title>
<g id="a_node1"><a xlink:title="Returns product&#39;s current range as a human&#45;friendly string.">
<polygon fill="#999999" stroke="#666666" points="128,-37 0,-37 0,-18 128,-18 128,-37"/>
<text text-anchor="middle" x="64" y="-25" font-family="Helvetica,sans-Serif" font-size="10.00">VoltageRange::toString</text>
</a>
</g>
</g>
<!-- Node2 -->
<g id="node2" class="node">
<title>Node2</title>
<g id="a_node2"><a xlink:href="namespacePokitPro.html#a38ce307b844e4d67d94402b31461f7f4" target="_top" xlink:title="Returns range as a user&#45;friendly string.">
<polygon fill="white" stroke="#666666" points="271.5,-56 170.5,-56 170.5,-37 271.5,-37 271.5,-56"/>
<text text-anchor="middle" x="221" y="-44" font-family="Helvetica,sans-Serif" font-size="10.00">PokitPro::toString</text>
</a>
</g>
</g>
<!-- Node1&#45;&gt;Node2 -->
<g id="edge1" class="edge">
<title>Node1&#45;&gt;Node2</title>
<path fill="none" stroke="#63b8ff" d="M128.04,-35.23C139.37,-36.62 151.13,-38.06 162.3,-39.43"/>
<polygon fill="#63b8ff" stroke="#63b8ff" points="170.32,-40.41 161.94,-43.01 166.35,-39.92 162.38,-39.44 162.38,-39.44 162.38,-39.44 166.35,-39.92 162.81,-35.86 170.32,-40.41 170.32,-40.41"/>
</g>
<!-- Node4 -->
<g id="node4" class="node">
<title>Node4</title>
<g id="a_node4"><a xlink:href="namespacePokitMeter.html#a3c3db7b94b6f44af24f4a23e87a3569e" target="_top" xlink:title="Returns range as a user&#45;friendly string.">
<polygon fill="white" stroke="#666666" points="278,-19 164,-19 164,0 278,0 278,-19"/>
<text text-anchor="middle" x="221" y="-7" font-family="Helvetica,sans-Serif" font-size="10.00">PokitMeter::toString</text>
</a>
</g>
</g>
<!-- Node1&#45;&gt;Node4 -->
<g id="edge3" class="edge">
<title>Node1&#45;&gt;Node4</title>
<path fill="none" stroke="#63b8ff" d="M128.04,-20.18C137.25,-19.11 146.74,-18.01 155.96,-16.94"/>
<polygon fill="#63b8ff" stroke="#63b8ff" points="163.99,-16 156.46,-20.5 160.01,-16.47 156.04,-16.93 156.04,-16.93 156.04,-16.93 160.01,-16.47 155.62,-13.35 163.99,-16 163.99,-16"/>
</g>
<!-- Node3 -->
<g id="node3" class="node">
<title>Node3</title>
<g id="a_node3"><a target="_parent" xlink:href="https://doc.qt.io/qt-5/qcoreapplication.html#translate" xlink:title=" ">
<polygon fill="white" stroke="#666666" points="465,-37 314,-37 314,-18 465,-18 465,-37"/>
<text text-anchor="middle" x="389.5" y="-25" font-family="Helvetica,sans-Serif" font-size="10.00">QCoreApplication::translate</text>
</a>
</g>
</g>
<!-- Node2&#45;&gt;Node3 -->
<g id="edge2" class="edge">
<title>Node2&#45;&gt;Node3</title>
<path fill="none" stroke="#63b8ff" d="M271.5,-40.85C282.33,-39.62 294.07,-38.28 305.8,-36.94"/>
<polygon fill="#63b8ff" stroke="#63b8ff" points="313.91,-36.01 306.37,-40.5 309.93,-36.47 305.96,-36.92 305.96,-36.92 305.96,-36.92 309.93,-36.47 305.55,-33.34 313.91,-36.01 313.91,-36.01"/>
</g>
<!-- Node4&#45;&gt;Node3 -->
<g id="edge4" class="edge">
<title>Node4&#45;&gt;Node3</title>
<path fill="none" stroke="#63b8ff" d="M278.37,-15.59C287.2,-16.55 296.48,-17.55 305.75,-18.55"/>
<polygon fill="#63b8ff" stroke="#63b8ff" points="313.89,-19.43 305.55,-22.15 309.91,-19 305.93,-18.57 305.93,-18.57 305.93,-18.57 309.91,-19 306.32,-14.99 313.89,-19.43 313.89,-19.43"/>
</g>
</g>
</svg>
