<?xml version="1.0" encoding="UTF-8" standalone="no"?>
<!DOCTYPE svg PUBLIC "-//W3C//DTD SVG 1.1//EN"
 "http://www.w3.org/Graphics/SVG/1.1/DTD/svg11.dtd">
<!-- Generated by graphviz version 2.43.0 (0)
 -->
<!-- Title: PokitPro::maxValue Pages: 1 -->
<svg width="642pt" height="321pt"
 viewBox="0.00 0.00 642.00 321.00" xmlns="http://www.w3.org/2000/svg" xmlns:xlink="http://www.w3.org/1999/xlink">
<g id="graph0" class="graph" transform="scale(1 1) rotate(0) translate(4 317)">
<title>PokitPro::maxValue</title>
<!-- Node1 -->
<g id="Node000001" class="node">
<title>Node1</title>
<g id="a_Node000001"><a xlink:title="Returns the maximum value for range in nanofarads, or 0 if range is not a known value for Pokit Pro d...">
<polygon fill="#999999" stroke="#666666" points="634,-130 522,-130 522,-111 634,-111 634,-130"/>
<text text-anchor="middle" x="578" y="-118" font-family="Helvetica,sans-Serif" font-size="10.00">PokitPro::maxValue</text>
</a>
</g>
</g>
<!-- Node1&#45;&gt;Node1 -->
<g id="edge12_Node000001_Node000001" class="edge">
<title>Node1&#45;&gt;Node1</title>
<g id="a_edge12_Node000001_Node000001"><a xlink:title=" ">
<path fill="none" stroke="#63b8ff" d="M610,-136.14C612.07,-142.57 601.41,-148 578,-148 547.43,-148 538.59,-138.73 551.49,-130.08"/>
<polygon fill="#63b8ff" stroke="#63b8ff" points="604.51,-130.08 612.55,-133.6 607.2,-133.05 609.88,-136.01 609.88,-136.01 609.88,-136.01 607.2,-133.05 607.21,-138.43 604.51,-130.08 604.51,-130.08"/>
</a>
</g>
</g>
<!-- Node2 -->
<g id="Node000002" class="node">
<title>Node2</title>
<g id="a_Node000002"><a xlink:href="namespaceCapacitanceRange.html#a1fcf8de47d4a5785e8916dd1fc5c6e8b" target="_top" xlink:title="Returns the maximum value for range in nanofarads, or 0 if range is not a known value for product.">
<polygon fill="white" stroke="#666666" points="486,-240 324,-240 324,-221 486,-221 486,-240"/>
<text text-anchor="middle" x="405" y="-228" font-family="Helvetica,sans-Serif" font-size="10.00">CapacitanceRange::maxValue</text>
</a>
</g>
</g>
<!-- Node1&#45;&gt;Node2 -->
<g id="edge1_Node000001_Node000002" class="edge">
<title>Node1&#45;&gt;Node2</title>
<g id="a_edge1_Node000001_Node000002"><a xlink:title=" ">
<path fill="none" stroke="#63b8ff" d="M565.61,-136.78C550.09,-157.68 520.28,-193.5 486,-212.5 479.77,-215.95 472.93,-218.74 465.94,-220.99"/>
<polygon fill="#63b8ff" stroke="#63b8ff" points="570.49,-130.06 568.7,-138.65 568.14,-133.3 565.79,-136.54 565.79,-136.54 565.79,-136.54 568.14,-133.3 562.88,-134.42 570.49,-130.06 570.49,-130.06"/>
</a>
</g>
</g>
<!-- Node5 -->
<g id="Node000005" class="node">
<title>Node5</title>
<g id="a_Node000005"><a xlink:href="namespaceCurrentRange.html#ad228acca15fb3bcd44700e0313c05dd5" target="_top" xlink:title="Returns the maximum value for range in microamps, or 0 if range is not a known value for product.">
<polygon fill="white" stroke="#666666" points="474,-130 336,-130 336,-111 474,-111 474,-130"/>
<text text-anchor="middle" x="405" y="-118" font-family="Helvetica,sans-Serif" font-size="10.00">CurrentRange::maxValue</text>
</a>
</g>
</g>
<!-- Node1&#45;&gt;Node5 -->
<g id="edge5_Node000001_Node000005" class="edge">
<title>Node1&#45;&gt;Node5</title>
<g id="a_edge5_Node000001_Node000005"><a xlink:title=" ">
<path fill="none" stroke="#63b8ff" d="M513.61,-120.5C500.74,-120.5 487.15,-120.5 474.13,-120.5"/>
<polygon fill="#63b8ff" stroke="#63b8ff" points="521.95,-120.5 513.95,-124.1 517.95,-120.5 513.95,-120.5 513.95,-120.5 513.95,-120.5 517.95,-120.5 513.95,-116.9 521.95,-120.5 521.95,-120.5"/>
</a>
</g>
</g>
<!-- Node10 -->
<g id="Node000010" class="node">
<title>Node10</title>
<g id="a_Node000010"><a xlink:href="namespacePokitPro.html#a6e838cc9f950ff847384f5515607ddda" target="_top" xlink:title="Returns the maximum value for range in microamps, or 0 if range is not a known value for Pokit Pro de...">
<polygon fill="white" stroke="#666666" points="461,-93 349,-93 349,-74 461,-74 461,-93"/>
<text text-anchor="middle" x="405" y="-81" font-family="Helvetica,sans-Serif" font-size="10.00">PokitPro::maxValue</text>
</a>
</g>
</g>
<!-- Node1&#45;&gt;Node10 -->
<g id="edge13_Node000001_Node000010" class="edge">
<title>Node1&#45;&gt;Node10</title>
<g id="a_edge13_Node000001_Node000010"><a xlink:title=" ">
<path fill="none" stroke="#63b8ff" d="M525.03,-109.25C501.12,-104.08 473.06,-98.01 450.18,-93.06"/>
<polygon fill="#63b8ff" stroke="#63b8ff" points="532.96,-110.97 524.38,-112.8 529.05,-110.13 525.14,-109.28 525.14,-109.28 525.14,-109.28 529.05,-110.13 525.91,-105.76 532.96,-110.97 532.96,-110.97"/>
</a>
</g>
</g>
<!-- Node11 -->
<g id="Node000011" class="node">
<title>Node11</title>
<g id="a_Node000011"><a xlink:href="namespacePokitPro.html#a05e5f6a0b19a7f9040e0dfac636fe081" target="_top" xlink:title="Returns the maximum value for range in ohms, or 0 if range is not a known value for Pokit Pro devices...">
<polygon fill="white" stroke="#666666" points="461,-56 349,-56 349,-37 461,-37 461,-56"/>
<text text-anchor="middle" x="405" y="-44" font-family="Helvetica,sans-Serif" font-size="10.00">PokitPro::maxValue</text>
</a>
</g>
</g>
<!-- Node1&#45;&gt;Node11 -->
<g id="edge14_Node000001_Node000011" class="edge">
<title>Node1&#45;&gt;Node11</title>
<g id="a_edge14_Node000001_Node000011"><a xlink:title=" ">
<path fill="none" stroke="#63b8ff" d="M557.94,-106.16C540.19,-93.46 512.55,-75.3 486,-64.5 477.69,-61.12 468.63,-58.31 459.68,-56"/>
<polygon fill="#63b8ff" stroke="#63b8ff" points="564.47,-110.9 555.88,-109.11 561.23,-108.55 557.99,-106.2 557.99,-106.2 557.99,-106.2 561.23,-108.55 560.11,-103.29 564.47,-110.9 564.47,-110.9"/>
</a>
</g>
</g>
<!-- Node12 -->
<g id="Node000012" class="node">
<title>Node12</title>
<g id="a_Node000012"><a xlink:href="namespacePokitPro.html#ab138b9ef321341c89db0b187dda247e1" target="_top" xlink:title="Returns the maximum value for range in millivolts, or 0 if range is not a known value for Pokit Pro d...">
<polygon fill="white" stroke="#666666" points="461,-19 349,-19 349,0 461,0 461,-19"/>
<text text-anchor="middle" x="405" y="-7" font-family="Helvetica,sans-Serif" font-size="10.00">PokitPro::maxValue</text>
</a>
</g>
</g>
<!-- Node1&#45;&gt;Node12 -->
<g id="edge15_Node000001_Node000012" class="edge">
<title>Node1&#45;&gt;Node12</title>
<g id="a_edge15_Node000001_Node000012"><a xlink:title=" ">
<path fill="none" stroke="#63b8ff" d="M565.85,-104.31C550.44,-83.23 520.56,-46.78 486,-27.5 478.42,-23.27 469.9,-20.03 461.34,-17.56"/>
<polygon fill="#63b8ff" stroke="#63b8ff" points="570.51,-110.83 562.93,-106.42 568.19,-107.58 565.86,-104.32 565.86,-104.32 565.86,-104.32 568.19,-107.58 568.79,-102.23 570.51,-110.83 570.51,-110.83"/>
</a>
</g>
</g>
<!-- Node13 -->
<g id="Node000013" class="node">
<title>Node13</title>
<g id="a_Node000013"><a xlink:href="namespaceResistanceRange.html#af5acf674597a3fe0021d98d3a0d35342" target="_top" xlink:title="Returns the maximum value for range in ohms, or 0 if range is not a known value for product.">
<polygon fill="white" stroke="#666666" points="482.5,-295 327.5,-295 327.5,-276 482.5,-276 482.5,-295"/>
<text text-anchor="middle" x="405" y="-283" font-family="Helvetica,sans-Serif" font-size="10.00">ResistanceRange::maxValue</text>
</a>
</g>
</g>
<!-- Node1&#45;&gt;Node13 -->
<g id="edge16_Node000001_Node000013" class="edge">
<title>Node1&#45;&gt;Node13</title>
<g id="a_edge16_Node000001_Node000013"><a xlink:title=" ">
<path fill="none" stroke="#63b8ff" d="M571.26,-138.12C560.11,-169.38 532.48,-234.39 486,-267.5 481.25,-270.89 475.96,-273.65 470.44,-275.9"/>
<polygon fill="#63b8ff" stroke="#63b8ff" points="573.97,-130.25 574.77,-138.98 572.66,-134.03 571.36,-137.81 571.36,-137.81 571.36,-137.81 572.66,-134.03 567.96,-136.64 573.97,-130.25 573.97,-130.25"/>
</a>
</g>
</g>
<!-- Node14 -->
<g id="Node000014" class="node">
<title>Node14</title>
<g id="a_Node000014"><a xlink:href="namespaceVoltageRange.html#a51a1090e2e5ef6067e50141a20d92e0f" target="_top" xlink:title="Returns the maximum value for range in millivolts, or 0 if range is not a known value for product.">
<polygon fill="white" stroke="#666666" points="474.5,-185 335.5,-185 335.5,-166 474.5,-166 474.5,-185"/>
<text text-anchor="middle" x="405" y="-173" font-family="Helvetica,sans-Serif" font-size="10.00">VoltageRange::maxValue</text>
</a>
</g>
</g>
<!-- Node1&#45;&gt;Node14 -->
<g id="edge19_Node000001_Node000014" class="edge">
<title>Node1&#45;&gt;Node14</title>
<g id="a_edge19_Node000001_Node000014"><a xlink:title=" ">
<path fill="none" stroke="#63b8ff" d="M547.55,-133.39C529.92,-140.8 506.94,-149.91 486,-156.5 474.83,-160.01 462.61,-163.23 451.16,-165.97"/>
<polygon fill="#63b8ff" stroke="#63b8ff" points="555.25,-130.13 549.3,-136.57 551.57,-131.69 547.89,-133.25 547.89,-133.25 547.89,-133.25 551.57,-131.69 546.48,-129.94 555.25,-130.13 555.25,-130.13"/>
</a>
</g>
</g>
<!-- Node2&#45;&gt;Node2 -->
<g id="edge2_Node000002_Node000002" class="edge">
<title>Node2&#45;&gt;Node2</title>
<g id="a_edge2_Node000002_Node000002"><a xlink:title=" ">
<path fill="none" stroke="#63b8ff" d="M437,-246.14C439.07,-252.57 428.41,-258 405,-258 374.43,-258 365.59,-248.73 378.49,-240.08"/>
<polygon fill="#63b8ff" stroke="#63b8ff" points="431.51,-240.08 439.55,-243.6 434.2,-243.05 436.88,-246.01 436.88,-246.01 436.88,-246.01 434.2,-243.05 434.21,-248.43 431.51,-240.08 431.51,-240.08"/>
</a>
</g>
</g>
<!-- Node3 -->
<g id="Node000003" class="node">
<title>Node3</title>
<g id="a_Node000003"><a xlink:href="classMultimeterService.html#a2e7ad049eb95b7b38adf4b69321fd8fe" target="_top" xlink:title="Returns the maximum value for range, or 0 if range is not a known value for product&#39;s mode.">
<polygon fill="white" stroke="#666666" points="281.5,-239.5 168.5,-239.5 168.5,-209.5 281.5,-209.5 281.5,-239.5"/>
<text text-anchor="start" x="176.5" y="-227.5" font-family="Helvetica,sans-Serif" font-size="10.00">MultimeterService::</text>
<text text-anchor="middle" x="225" y="-216.5" font-family="Helvetica,sans-Serif" font-size="10.00">maxValue</text>
</a>
</g>
</g>
<!-- Node2&#45;&gt;Node3 -->
<g id="edge3_Node000002_Node000003" class="edge">
<title>Node2&#45;&gt;Node3</title>
<g id="a_edge3_Node000002_Node000003"><a xlink:title=" ">
<path fill="none" stroke="#63b8ff" d="M315.78,-227.53C304.11,-227.13 292.42,-226.74 281.52,-226.37"/>
<polygon fill="#63b8ff" stroke="#63b8ff" points="323.85,-227.8 315.74,-231.13 319.85,-227.66 315.86,-227.53 315.86,-227.53 315.86,-227.53 319.85,-227.66 315.98,-223.93 323.85,-227.8 323.85,-227.8"/>
</a>
</g>
</g>
<!-- Node4 -->
<g id="Node000004" class="node">
<title>Node4</title>
<g id="a_Node000004"><a xlink:href="classMultimeterService.html#afb8e02e67d3adfc010796904052689e0" target="_top" xlink:title="Returns the maximum value for range, or 0 range is not a known value for the current product&#39;s mode.">
<polygon fill="white" stroke="#666666" points="119.5,-239.5 6.5,-239.5 6.5,-209.5 119.5,-209.5 119.5,-239.5"/>
<text text-anchor="start" x="14.5" y="-227.5" font-family="Helvetica,sans-Serif" font-size="10.00">MultimeterService::</text>
<text text-anchor="middle" x="63" y="-216.5" font-family="Helvetica,sans-Serif" font-size="10.00">maxValue</text>
</a>
</g>
</g>
<!-- Node3&#45;&gt;Node4 -->
<g id="edge4_Node000003_Node000004" class="edge">
<title>Node3&#45;&gt;Node4</title>
<g id="a_edge4_Node000003_Node000004"><a xlink:title=" ">
<path fill="none" stroke="#63b8ff" d="M160.23,-224.5C146.82,-224.5 132.77,-224.5 119.68,-224.5"/>
<polygon fill="#63b8ff" stroke="#63b8ff" points="168.49,-224.5 160.49,-228.1 164.49,-224.5 160.49,-224.5 160.49,-224.5 160.49,-224.5 164.49,-224.5 160.49,-220.9 168.49,-224.5 168.49,-224.5"/>
</a>
</g>
</g>
<!-- Node5&#45;&gt;Node3 -->
<g id="edge11_Node000005_Node000003" class="edge">
<title>Node5&#45;&gt;Node3</title>
<g id="a_edge11_Node000005_Node000003"><a xlink:title=" ">
<path fill="none" stroke="#63b8ff" d="M368.68,-133.27C354.22,-139.28 337.71,-147.18 324,-156.5 305.55,-169.05 306.03,-178.35 288,-191.5 278.94,-198.11 268.38,-204.23 258.57,-209.36"/>
<polygon fill="#63b8ff" stroke="#63b8ff" points="376.46,-130.13 370.39,-136.46 372.75,-131.63 369.04,-133.12 369.04,-133.12 369.04,-133.12 372.75,-131.63 367.7,-129.78 376.46,-130.13 376.46,-130.13"/>
</a>
</g>
</g>
<!-- Node5&#45;&gt;Node5 -->
<g id="edge6_Node000005_Node000005" class="edge">
<title>Node5&#45;&gt;Node5</title>
<g id="a_edge6_Node000005_Node000005"><a xlink:title=" ">
<path fill="none" stroke="#63b8ff" d="M437,-136.14C439.07,-142.57 428.41,-148 405,-148 374.43,-148 365.59,-138.73 378.49,-130.08"/>
<polygon fill="#63b8ff" stroke="#63b8ff" points="431.51,-130.08 439.55,-133.6 434.2,-133.05 436.88,-136.01 436.88,-136.01 436.88,-136.01 434.2,-133.05 434.21,-138.43 431.51,-130.08 431.51,-130.08"/>
</a>
</g>
</g>
<!-- Node6 -->
<g id="Node000006" class="node">
<title>Node6</title>
<g id="a_Node000006"><a xlink:href="classDataLoggerService.html#a4cd028d70ecdb238f8f973a6ff8f63ce" target="_top" xlink:title="Returns the maximum value for range, or 0 if range is not a known value for product&#39;s mode.">
<polygon fill="white" stroke="#666666" points="282.5,-141.5 167.5,-141.5 167.5,-111.5 282.5,-111.5 282.5,-141.5"/>
<text text-anchor="start" x="175.5" y="-129.5" font-family="Helvetica,sans-Serif" font-size="10.00">DataLoggerService::</text>
<text text-anchor="middle" x="225" y="-118.5" font-family="Helvetica,sans-Serif" font-size="10.00">maxValue</text>
</a>
</g>
</g>
<!-- Node5&#45;&gt;Node6 -->
<g id="edge7_Node000005_Node000006" class="edge">
<title>Node5&#45;&gt;Node6</title>
<g id="a_edge7_Node000005_Node000006"><a xlink:title=" ">
<path fill="none" stroke="#63b8ff" d="M327.64,-123.07C312.57,-123.58 297.01,-124.11 282.73,-124.59"/>
<polygon fill="#63b8ff" stroke="#63b8ff" points="335.94,-122.79 328.07,-126.66 331.95,-122.93 327.95,-123.06 327.95,-123.06 327.95,-123.06 331.95,-122.93 327.83,-119.47 335.94,-122.79 335.94,-122.79"/>
</a>
</g>
</g>
<!-- Node8 -->
<g id="Node000008" class="node">
<title>Node8</title>
<g id="a_Node000008"><a xlink:href="classDsoService.html#a82e08bde638018321eeec3479bd386f0" target="_top" xlink:title="Returns the maximum value for range, or 0 if range is not a known value for product&#39;s mode.">
<polygon fill="white" stroke="#666666" points="288,-182 162,-182 162,-163 288,-163 288,-182"/>
<text text-anchor="middle" x="225" y="-170" font-family="Helvetica,sans-Serif" font-size="10.00">DsoService::maxValue</text>
</a>
</g>
</g>
<!-- Node5&#45;&gt;Node8 -->
<g id="edge9_Node000005_Node000008" class="edge">
<title>Node5&#45;&gt;Node8</title>
<g id="a_edge9_Node000005_Node000008"><a xlink:title=" ">
<path fill="none" stroke="#63b8ff" d="M363.56,-132.31C331.85,-141.58 288.29,-154.3 258.74,-162.93"/>
<polygon fill="#63b8ff" stroke="#63b8ff" points="371.35,-130.04 364.68,-135.74 367.51,-131.16 363.67,-132.28 363.67,-132.28 363.67,-132.28 367.51,-131.16 362.66,-128.83 371.35,-130.04 371.35,-130.04"/>
</a>
</g>
</g>
<!-- Node7 -->
<g id="Node000007" class="node">
<title>Node7</title>
<g id="a_Node000007"><a xlink:href="classDataLoggerService.html#a975b86a17e910d91a60461032b096d4d" target="_top" xlink:title="Returns the maximum value for range, or 0 range is not a known value for the current product&#39;s mode.">
<polygon fill="white" stroke="#666666" points="120.5,-141.5 5.5,-141.5 5.5,-111.5 120.5,-111.5 120.5,-141.5"/>
<text text-anchor="start" x="13.5" y="-129.5" font-family="Helvetica,sans-Serif" font-size="10.00">DataLoggerService::</text>
<text text-anchor="middle" x="63" y="-118.5" font-family="Helvetica,sans-Serif" font-size="10.00">maxValue</text>
</a>
</g>
</g>
<!-- Node6&#45;&gt;Node7 -->
<g id="edge8_Node000006_Node000007" class="edge">
<title>Node6&#45;&gt;Node7</title>
<g id="a_edge8_Node000006_Node000007"><a xlink:title=" ">
<path fill="none" stroke="#63b8ff" d="M158.9,-126.5C146.23,-126.5 133.05,-126.5 120.68,-126.5"/>
<polygon fill="#63b8ff" stroke="#63b8ff" points="167.14,-126.5 159.14,-130.1 163.14,-126.5 159.14,-126.5 159.14,-126.5 159.14,-126.5 163.14,-126.5 159.14,-122.9 167.14,-126.5 167.14,-126.5"/>
</a>
</g>
</g>
<!-- Node9 -->
<g id="Node000009" class="node">
<title>Node9</title>
<g id="a_Node000009"><a xlink:href="classDsoService.html#a89dd8027581790c3e65c13ced786d2ee" target="_top" xlink:title="Returns the maximum value for range, or 0 range is not a known value for the current product&#39;s mode.">
<polygon fill="white" stroke="#666666" points="126,-182 0,-182 0,-163 126,-163 126,-182"/>
<text text-anchor="middle" x="63" y="-170" font-family="Helvetica,sans-Serif" font-size="10.00">DsoService::maxValue</text>
</a>
</g>
</g>
<!-- Node8&#45;&gt;Node9 -->
<g id="edge10_Node000008_Node000009" class="edge">
<title>Node8&#45;&gt;Node9</title>
<g id="a_edge10_Node000008_Node000009"><a xlink:title=" ">
<path fill="none" stroke="#63b8ff" d="M153.68,-172.5C144.51,-172.5 135.17,-172.5 126.15,-172.5"/>
<polygon fill="#63b8ff" stroke="#63b8ff" points="161.68,-172.5 153.68,-176.1 157.68,-172.5 153.68,-172.5 153.68,-172.5 153.68,-172.5 157.68,-172.5 153.68,-168.9 161.68,-172.5 161.68,-172.5"/>
</a>
</g>
</g>
<!-- Node13&#45;&gt;Node3 -->
<g id="edge17_Node000013_Node000003" class="edge">
<title>Node13&#45;&gt;Node3</title>
<g id="a_edge17_Node000013_Node000003"><a xlink:title=" ">
<path fill="none" stroke="#63b8ff" d="M346.34,-273.92C338.76,-272 331.15,-269.85 324,-267.5 300.7,-259.85 275.37,-248.65 256.3,-239.61"/>
<polygon fill="#63b8ff" stroke="#63b8ff" points="354.52,-275.93 345.89,-277.52 350.63,-274.98 346.75,-274.02 346.75,-274.02 346.75,-274.02 350.63,-274.98 347.6,-270.53 354.52,-275.93 354.52,-275.93"/>
</a>
</g>
</g>
<!-- Node13&#45;&gt;Node13 -->
<g id="edge18_Node000013_Node000013" class="edge">
<title>Node13&#45;&gt;Node13</title>
<g id="a_edge18_Node000013_Node000013"><a xlink:title=" ">
<path fill="none" stroke="#63b8ff" d="M437,-301.14C439.07,-307.57 428.41,-313 405,-313 374.43,-313 365.59,-303.73 378.49,-295.08"/>
<polygon fill="#63b8ff" stroke="#63b8ff" points="431.51,-295.08 439.55,-298.6 434.2,-298.05 436.88,-301.01 436.88,-301.01 436.88,-301.01 434.2,-298.05 434.21,-303.43 431.51,-295.08 431.51,-295.08"/>
</a>
</g>
</g>
<!-- Node14&#45;&gt;Node3 -->
<g id="edge22_Node000014_Node000003" class="edge">
<title>Node14&#45;&gt;Node3</title>
<g id="a_edge22_Node000014_Node000003"><a xlink:title=" ">
<path fill="none" stroke="#63b8ff" d="M361.31,-187.25C337.1,-193.92 306.56,-202.32 280.62,-209.46"/>
<polygon fill="#63b8ff" stroke="#63b8ff" points="369.26,-185.06 362.5,-190.66 365.4,-186.13 361.54,-187.19 361.54,-187.19 361.54,-187.19 365.4,-186.13 360.59,-183.72 369.26,-185.06 369.26,-185.06"/>
</a>
</g>
</g>
<!-- Node14&#45;&gt;Node6 -->
<g id="edge20_Node000014_Node000006" class="edge">
<title>Node14&#45;&gt;Node6</title>
<g id="a_edge20_Node000014_Node000006"><a xlink:title=" ">
<path fill="none" stroke="#63b8ff" d="M353.71,-164.07C343.83,-161.68 333.57,-159.1 324,-156.5 307.34,-151.98 289.24,-146.58 273.18,-141.61"/>
<polygon fill="#63b8ff" stroke="#63b8ff" points="361.52,-165.94 352.91,-167.58 357.63,-165.01 353.74,-164.08 353.74,-164.08 353.74,-164.08 357.63,-165.01 354.58,-160.58 361.52,-165.94 361.52,-165.94"/>
</a>
</g>
</g>
<!-- Node14&#45;&gt;Node8 -->
<g id="edge21_Node000014_Node000008" class="edge">
<title>Node14&#45;&gt;Node8</title>
<g id="a_edge21_Node000014_Node000008"><a xlink:title=" ">
<path fill="none" stroke="#63b8ff" d="M327.34,-174.21C314.24,-173.99 300.78,-173.76 288.12,-173.55"/>
<polygon fill="#63b8ff" stroke="#63b8ff" points="335.44,-174.34 327.38,-177.81 331.44,-174.28 327.44,-174.21 327.44,-174.21 327.44,-174.21 331.44,-174.28 327.5,-170.61 335.44,-174.34 335.44,-174.34"/>
</a>
</g>
</g>
<!-- Node14&#45;&gt;Node14 -->
<g id="edge23_Node000014_Node000014" class="edge">
<title>Node14&#45;&gt;Node14</title>
<g id="a_edge23_Node000014_Node000014"><a xlink:title=" ">
<path fill="none" stroke="#63b8ff" d="M437,-191.14C439.07,-197.57 428.41,-203 405,-203 374.43,-203 365.59,-193.73 378.49,-185.08"/>
<polygon fill="#63b8ff" stroke="#63b8ff" points="431.51,-185.08 439.55,-188.6 434.2,-188.05 436.88,-191.01 436.88,-191.01 436.88,-191.01 434.2,-188.05 434.21,-193.43 431.51,-185.08 431.51,-185.08"/>
</a>
</g>
</g>
</g>
</svg>
