<?xml version="1.0" encoding="UTF-8" standalone="no"?>
<!DOCTYPE svg PUBLIC "-//W3C//DTD SVG 1.1//EN"
 "http://www.w3.org/Graphics/SVG/1.1/DTD/svg11.dtd">
<!-- Generated by graphviz version 2.43.0 (0)
 -->
<!-- Title: ResistanceRange::toString Pages: 1 -->
<svg width="490pt" height="140pt"
 viewBox="0.00 0.00 490.00 140.00" xmlns="http://www.w3.org/2000/svg" xmlns:xlink="http://www.w3.org/1999/xlink">
<g id="graph0" class="graph" transform="scale(1 1) rotate(0) translate(4 136)">
<title>ResistanceRange::toString</title>
<!-- Node1 -->
<g id="node1" class="node">
<title>Node1</title>
<g id="a_node1"><a xlink:title="Returns product&#39;s current range as a human&#45;friendly string.">
<polygon fill="#999999" stroke="#666666" points="145,-76 0,-76 0,-57 145,-57 145,-76"/>
<text text-anchor="middle" x="72.5" y="-64" font-family="Helvetica,sans-Serif" font-size="10.00">ResistanceRange::toString</text>
</a>
</g>
</g>
<!-- Node2 -->
<g id="node2" class="node">
<title>Node2</title>
<g id="a_node2"><a target="_parent" xlink:href="https://doc.qt.io/qt-5/qstring.html#arg-1" xlink:title=" ">
<polygon fill="white" stroke="#666666" points="275,-132 201,-132 201,-113 275,-113 275,-132"/>
<text text-anchor="middle" x="238" y="-120" font-family="Helvetica,sans-Serif" font-size="10.00">QString::arg</text>
</a>
</g>
</g>
<!-- Node1&#45;&gt;Node2 -->
<g id="edge1" class="edge">
<title>Node1&#45;&gt;Node2</title>
<path fill="none" stroke="#63b8ff" d="M99.93,-76.08C121.65,-83.9 153.24,-95.13 181,-104.5 186.72,-106.43 192.79,-108.43 198.73,-110.36"/>
<polygon fill="#63b8ff" stroke="#63b8ff" points="206.72,-112.94 198,-113.91 202.92,-111.71 199.11,-110.48 199.11,-110.48 199.11,-110.48 202.92,-111.71 200.22,-107.06 206.72,-112.94 206.72,-112.94"/>
</g>
<!-- Node3 -->
<g id="node3" class="node">
<title>Node3</title>
<g id="a_node3"><a xlink:href="namespacePokitPro.html#a38ce307b844e4d67d94402b31461f7f4" target="_top" xlink:title="Returns range as a user&#45;friendly string.">
<polygon fill="white" stroke="#666666" points="288.5,-95 187.5,-95 187.5,-76 288.5,-76 288.5,-95"/>
<text text-anchor="middle" x="238" y="-83" font-family="Helvetica,sans-Serif" font-size="10.00">PokitPro::toString</text>
</a>
</g>
</g>
<!-- Node1&#45;&gt;Node3 -->
<g id="edge2" class="edge">
<title>Node1&#45;&gt;Node3</title>
<path fill="none" stroke="#63b8ff" d="M145.21,-74.83C156.56,-76.15 168.18,-77.5 179.16,-78.78"/>
<polygon fill="#63b8ff" stroke="#63b8ff" points="187.42,-79.74 179.05,-82.39 183.44,-79.28 179.47,-78.81 179.47,-78.81 179.47,-78.81 183.44,-79.28 179.88,-75.24 187.42,-79.74 187.42,-79.74"/>
</g>
<!-- Node4 -->
<g id="node4" class="node">
<title>Node4</title>
<g id="a_node4"><a target="_parent" xlink:href="https://doc.qt.io/qt-5/qcoreapplication.html#translate" xlink:title=" ">
<polygon fill="white" stroke="#666666" points="482,-57 331,-57 331,-38 482,-38 482,-57"/>
<text text-anchor="middle" x="406.5" y="-45" font-family="Helvetica,sans-Serif" font-size="10.00">QCoreApplication::translate</text>
</a>
</g>
</g>
<!-- Node1&#45;&gt;Node4 -->
<g id="edge6" class="edge">
<title>Node1&#45;&gt;Node4</title>
<path fill="none" stroke="#63b8ff" d="M145.13,-62.4C197.26,-59.42 267.98,-55.37 322.56,-52.25"/>
<polygon fill="#63b8ff" stroke="#63b8ff" points="330.83,-51.77 323.05,-55.82 326.84,-52 322.85,-52.23 322.85,-52.23 322.85,-52.23 326.84,-52 322.64,-48.64 330.83,-51.77 330.83,-51.77"/>
</g>
<!-- Node5 -->
<g id="node5" class="node">
<title>Node5</title>
<g id="a_node5"><a xlink:href="namespacePokitMeter.html#a3c3db7b94b6f44af24f4a23e87a3569e" target="_top" xlink:title="Returns range as a user&#45;friendly string.">
<polygon fill="white" stroke="#666666" points="295,-19 181,-19 181,0 295,0 295,-19"/>
<text text-anchor="middle" x="238" y="-7" font-family="Helvetica,sans-Serif" font-size="10.00">PokitMeter::toString</text>
</a>
</g>
</g>
<!-- Node1&#45;&gt;Node5 -->
<g id="edge4" class="edge">
<title>Node1&#45;&gt;Node5</title>
<path fill="none" stroke="#63b8ff" d="M100.87,-56.96C128.57,-47.3 171.53,-32.32 201.76,-21.78"/>
<polygon fill="#63b8ff" stroke="#63b8ff" points="209.54,-19.07 203.18,-25.1 205.77,-20.39 201.99,-21.71 201.99,-21.71 201.99,-21.71 205.77,-20.39 200.81,-18.31 209.54,-19.07 209.54,-19.07"/>
</g>
<!-- Node3&#45;&gt;Node4 -->
<g id="edge3" class="edge">
<title>Node3&#45;&gt;Node4</title>
<path fill="none" stroke="#63b8ff" d="M281.01,-75.91C303.78,-70.72 332.04,-64.26 355.89,-58.82"/>
<polygon fill="#63b8ff" stroke="#63b8ff" points="363.79,-57.02 356.79,-62.31 359.89,-57.91 355.99,-58.8 355.99,-58.8 355.99,-58.8 359.89,-57.91 355.19,-55.29 363.79,-57.02 363.79,-57.02"/>
</g>
<!-- Node5&#45;&gt;Node4 -->
<g id="edge5" class="edge">
<title>Node5&#45;&gt;Node4</title>
<path fill="none" stroke="#63b8ff" d="M281.01,-19.09C303.78,-24.28 332.04,-30.74 355.89,-36.18"/>
<polygon fill="#63b8ff" stroke="#63b8ff" points="363.79,-37.98 355.19,-39.71 359.89,-37.09 355.99,-36.2 355.99,-36.2 355.99,-36.2 359.89,-37.09 356.79,-32.69 363.79,-37.98 363.79,-37.98"/>
</g>
</g>
</svg>
