<?xml version="1.0" encoding="UTF-8" standalone="no"?>
<!DOCTYPE svg PUBLIC "-//W3C//DTD SVG 1.1//EN"
 "http://www.w3.org/Graphics/SVG/1.1/DTD/svg11.dtd">
<!-- Generated by graphviz version 2.43.0 (0)
 -->
<!-- Title: pokitdevice.cpp Pages: 1 -->
<svg width="1332pt" height="302pt"
 viewBox="0.00 0.00 1331.62 302.00" xmlns="http://www.w3.org/2000/svg" xmlns:xlink="http://www.w3.org/1999/xlink">
<g id="graph0" class="graph" transform="scale(1 1) rotate(0) translate(4 298)">
<title>pokitdevice.cpp</title>
<!-- Node1 -->
<g id="Node000001" class="node">
<title>Node1</title>
<g id="a_Node000001"><a xlink:title="Defines the PokitDevice and PokitDevicePrivate classes.">
<polygon fill="#999999" stroke="#666666" points="699.12,-294 605.12,-294 605.12,-275 699.12,-275 699.12,-294"/>
<text text-anchor="middle" x="652.12" y="-282" font-family="Helvetica,sans-Serif" font-size="10.00">pokitdevice.cpp</text>
</a>
</g>
</g>
<!-- Node2 -->
<g id="Node000002" class="node">
<title>Node2</title>
<g id="a_Node000002"><a xlink:href="pokitdevice_8h.html" target="_top" xlink:title="Declares the PokitDevice class.">
<polygon fill="white" stroke="#666666" points="850.12,-184 730.12,-184 730.12,-165 850.12,-165 850.12,-184"/>
<text text-anchor="middle" x="790.12" y="-172" font-family="Helvetica,sans-Serif" font-size="10.00">qtpokit/pokitdevice.h</text>
</a>
</g>
</g>
<!-- Node1&#45;&gt;Node2 -->
<g id="edge1_Node000001_Node000002" class="edge">
<title>Node1&#45;&gt;Node2</title>
<g id="a_edge1_Node000001_Node000002"><a xlink:title=" ">
<path fill="none" stroke="#63b8ff" d="M699.4,-284.19C779.88,-284.24 938.2,-279.09 973.12,-239 1009.24,-197.54 924.57,-183.13 858.67,-178.14"/>
<polygon fill="#63b8ff" stroke="#63b8ff" points="850.33,-177.55 858.56,-174.52 854.32,-177.83 858.31,-178.11 858.31,-178.11 858.31,-178.11 854.32,-177.83 858.05,-181.71 850.33,-177.55 850.33,-177.55"/>
</a>
</g>
</g>
<!-- Node7 -->
<g id="Node000007" class="node">
<title>Node7</title>
<g id="a_Node000007"><a xlink:href="calibrationservice_8h.html" target="_top" xlink:title="Declares the CalibrationService class.">
<polygon fill="white" stroke="#666666" points="964.12,-239 814.12,-239 814.12,-220 964.12,-220 964.12,-239"/>
<text text-anchor="middle" x="889.12" y="-227" font-family="Helvetica,sans-Serif" font-size="10.00">qtpokit/calibrationservice.h</text>
</a>
</g>
</g>
<!-- Node1&#45;&gt;Node7 -->
<g id="edge6_Node000001_Node000007" class="edge">
<title>Node1&#45;&gt;Node7</title>
<g id="a_edge6_Node000001_Node000007"><a xlink:title=" ">
<path fill="none" stroke="#63b8ff" d="M690.2,-274.98C731.71,-265.7 798.16,-250.84 842.7,-240.88"/>
<polygon fill="#63b8ff" stroke="#63b8ff" points="850.75,-239.08 843.72,-244.34 846.84,-239.96 842.94,-240.83 842.94,-240.83 842.94,-240.83 846.84,-239.96 842.15,-237.31 850.75,-239.08 850.75,-239.08"/>
</a>
</g>
</g>
<!-- Node17 -->
<g id="Node000017" class="node">
<title>Node17</title>
<g id="a_Node000017"><a xlink:href="dataloggerservice_8h.html" target="_top" xlink:title="Declares the DataLoggerService class.">
<polygon fill="white" stroke="#666666" points="311.62,-239 160.62,-239 160.62,-220 311.62,-220 311.62,-239"/>
<text text-anchor="middle" x="236.12" y="-227" font-family="Helvetica,sans-Serif" font-size="10.00">qtpokit/dataloggerservice.h</text>
</a>
</g>
</g>
<!-- Node1&#45;&gt;Node17 -->
<g id="edge20_Node000001_Node000017" class="edge">
<title>Node1&#45;&gt;Node17</title>
<g id="a_edge20_Node000001_Node000017"><a xlink:title=" ">
<path fill="none" stroke="#63b8ff" d="M604.81,-277.47C533.12,-268.34 396.31,-250.91 311.01,-240.04"/>
<polygon fill="#63b8ff" stroke="#63b8ff" points="302.92,-239.01 311.32,-236.45 306.89,-239.52 310.86,-240.02 310.86,-240.02 310.86,-240.02 306.89,-239.52 310.41,-243.59 302.92,-239.01 302.92,-239.01"/>
</a>
</g>
</g>
<!-- Node18 -->
<g id="Node000018" class="node">
<title>Node18</title>
<g id="a_Node000018"><a xlink:href="deviceinfoservice_8h.html" target="_top" xlink:title="Declares the DeviceInfoService class.">
<polygon fill="white" stroke="#666666" points="478.62,-239 329.62,-239 329.62,-220 478.62,-220 478.62,-239"/>
<text text-anchor="middle" x="404.12" y="-227" font-family="Helvetica,sans-Serif" font-size="10.00">qtpokit/deviceinfoservice.h</text>
</a>
</g>
</g>
<!-- Node1&#45;&gt;Node18 -->
<g id="edge25_Node000001_Node000018" class="edge">
<title>Node1&#45;&gt;Node18</title>
<g id="a_edge25_Node000001_Node000018"><a xlink:title=" ">
<path fill="none" stroke="#63b8ff" d="M612.28,-274.98C568.66,-265.66 498.73,-250.72 452.13,-240.76"/>
<polygon fill="#63b8ff" stroke="#63b8ff" points="444.28,-239.08 452.86,-237.23 448.19,-239.92 452.1,-240.75 452.1,-240.75 452.1,-240.75 448.19,-239.92 451.35,-244.27 444.28,-239.08 444.28,-239.08"/>
</a>
</g>
</g>
<!-- Node19 -->
<g id="Node000019" class="node">
<title>Node19</title>
<g id="a_Node000019"><a xlink:href="dsoservice_8h.html" target="_top" xlink:title="Declares the DsoService class.">
<polygon fill="white" stroke="#666666" points="142.12,-239 26.12,-239 26.12,-220 142.12,-220 142.12,-239"/>
<text text-anchor="middle" x="84.12" y="-227" font-family="Helvetica,sans-Serif" font-size="10.00">qtpokit/dsoservice.h</text>
</a>
</g>
</g>
<!-- Node1&#45;&gt;Node19 -->
<g id="edge30_Node000001_Node000019" class="edge">
<title>Node1&#45;&gt;Node19</title>
<g id="a_edge30_Node000001_Node000019"><a xlink:title=" ">
<path fill="none" stroke="#63b8ff" d="M605.1,-279.92C516.28,-273.02 317.81,-256.97 151.12,-239 150.85,-238.97 150.58,-238.94 150.3,-238.91"/>
<polygon fill="#63b8ff" stroke="#63b8ff" points="142.21,-238.01 150.56,-235.32 146.19,-238.45 150.16,-238.9 150.16,-238.9 150.16,-238.9 146.19,-238.45 149.76,-242.47 142.21,-238.01 142.21,-238.01"/>
</a>
</g>
</g>
<!-- Node20 -->
<g id="Node000020" class="node">
<title>Node20</title>
<g id="a_Node000020"><a xlink:href="multimeterservice_8h.html" target="_top" xlink:title="Declares the MultimeterService class.">
<polygon fill="white" stroke="#666666" points="649.62,-239 496.62,-239 496.62,-220 649.62,-220 649.62,-239"/>
<text text-anchor="middle" x="573.12" y="-227" font-family="Helvetica,sans-Serif" font-size="10.00">qtpokit/multimeterservice.h</text>
</a>
</g>
</g>
<!-- Node1&#45;&gt;Node20 -->
<g id="edge36_Node000001_Node000020" class="edge">
<title>Node1&#45;&gt;Node20</title>
<g id="a_edge36_Node000001_Node000020"><a xlink:title=" ">
<path fill="none" stroke="#63b8ff" d="M639.43,-274.98C626.84,-266.54 607.36,-253.47 592.77,-243.68"/>
<polygon fill="#63b8ff" stroke="#63b8ff" points="586.05,-239.17 594.7,-240.64 589.37,-241.4 592.69,-243.63 592.69,-243.63 592.69,-243.63 589.37,-241.4 590.68,-246.62 586.05,-239.17 586.05,-239.17"/>
</a>
</g>
</g>
<!-- Node21 -->
<g id="Node000021" class="node">
<title>Node21</title>
<g id="a_Node000021"><a xlink:href="statusservice_8h.html" target="_top" xlink:title="Declares the StatusService class.">
<polygon fill="white" stroke="#666666" points="796.12,-239 668.12,-239 668.12,-220 796.12,-220 796.12,-239"/>
<text text-anchor="middle" x="732.12" y="-227" font-family="Helvetica,sans-Serif" font-size="10.00">qtpokit/statusservice.h</text>
</a>
</g>
</g>
<!-- Node1&#45;&gt;Node21 -->
<g id="edge41_Node000001_Node000021" class="edge">
<title>Node1&#45;&gt;Node21</title>
<g id="a_edge41_Node000001_Node000021"><a xlink:title=" ">
<path fill="none" stroke="#63b8ff" d="M664.98,-274.98C677.73,-266.54 697.45,-253.47 712.23,-243.68"/>
<polygon fill="#63b8ff" stroke="#63b8ff" points="719.04,-239.17 714.35,-246.59 715.7,-241.38 712.37,-243.59 712.37,-243.59 712.37,-243.59 715.7,-241.38 710.38,-240.59 719.04,-239.17 719.04,-239.17"/>
</a>
</g>
</g>
<!-- Node22 -->
<g id="Node000022" class="node">
<title>Node22</title>
<g id="a_Node000022"><a xlink:href="pokitdevice__p_8h.html" target="_top" xlink:title="Declares the PokitDevicePrivate class.">
<polygon fill="white" stroke="#666666" points="1077.12,-184 983.12,-184 983.12,-165 1077.12,-165 1077.12,-184"/>
<text text-anchor="middle" x="1030.12" y="-172" font-family="Helvetica,sans-Serif" font-size="10.00">pokitdevice_p.h</text>
</a>
</g>
</g>
<!-- Node1&#45;&gt;Node22 -->
<g id="edge46_Node000001_Node000022" class="edge">
<title>Node1&#45;&gt;Node22</title>
<g id="a_edge46_Node000001_Node000022"><a xlink:title=" ">
<path fill="none" stroke="#63b8ff" d="M699.31,-282.25C780.85,-279.28 943.93,-269.6 991.12,-239 1008,-228.06 1018.76,-206.98 1024.61,-192.12"/>
<polygon fill="#63b8ff" stroke="#63b8ff" points="1027.5,-184.21 1028.14,-192.96 1026.13,-187.97 1024.76,-191.73 1024.76,-191.73 1024.76,-191.73 1026.13,-187.97 1021.37,-190.49 1027.5,-184.21 1027.5,-184.21"/>
</a>
</g>
</g>
<!-- Node27 -->
<g id="Node000027" class="node">
<title>Node27</title>
<g id="a_Node000027"><a xlink:href="stringliterals__p_8h.html" target="_top" xlink:title="Declares the DOKIT_USE_STRINGLITERALS macro, and related functions.">
<polygon fill="white" stroke="#666666" points="109.62,-74 2.62,-74 2.62,-55 109.62,-55 109.62,-74"/>
<text text-anchor="middle" x="56.12" y="-62" font-family="Helvetica,sans-Serif" font-size="10.00">../stringliterals_p.h</text>
</a>
</g>
</g>
<!-- Node1&#45;&gt;Node27 -->
<g id="edge53_Node000001_Node000027" class="edge">
<title>Node1&#45;&gt;Node27</title>
<g id="a_edge53_Node000001_Node000027"><a xlink:title=" ">
<path fill="none" stroke="#63b8ff" d="M604.84,-283.81C464.4,-284.23 56.97,-281.74 17.12,-239 -24.76,-194.07 22.01,-114.19 44.94,-80.81"/>
<polygon fill="#63b8ff" stroke="#63b8ff" points="49.68,-74.08 48.02,-82.69 47.38,-77.35 45.07,-80.62 45.07,-80.62 45.07,-80.62 47.38,-77.35 42.13,-78.54 49.68,-74.08 49.68,-74.08"/>
</a>
</g>
</g>
<!-- Node28 -->
<g id="Node000028" class="node">
<title>Node28</title>
<g id="a_Node000028"><a xlink:title=" ">
<polygon fill="#e0e0e0" stroke="#999999" points="1144.12,-239 1058.12,-239 1058.12,-220 1144.12,-220 1144.12,-239"/>
<text text-anchor="middle" x="1101.12" y="-227" font-family="Helvetica,sans-Serif" font-size="10.00">QMutexLocker</text>
</a>
</g>
</g>
<!-- Node1&#45;&gt;Node28 -->
<g id="edge55_Node000001_Node000028" class="edge">
<title>Node1&#45;&gt;Node28</title>
<g id="a_edge55_Node000001_Node000028"><a xlink:title=" ">
<path fill="none" stroke="#63b8ff" d="M699.25,-278.69C772.93,-271.04 919.85,-255.31 1044.12,-239 1045.94,-238.76 1047.78,-238.51 1049.64,-238.26"/>
<polygon fill="#63b8ff" stroke="#63b8ff" points="1057.89,-237.11 1050.46,-241.78 1053.92,-237.66 1049.96,-238.22 1049.96,-238.22 1049.96,-238.22 1053.92,-237.66 1049.46,-234.65 1057.89,-237.11 1057.89,-237.11"/>
</a>
</g>
</g>
<!-- Node3 -->
<g id="Node000003" class="node">
<title>Node3</title>
<g id="a_Node000003"><a xlink:href="qtpokit__global_8h.html" target="_top" xlink:title="Global QtPokit library macros.">
<polygon fill="white" stroke="#666666" points="662.62,-74 567.62,-74 567.62,-55 662.62,-55 662.62,-74"/>
<text text-anchor="middle" x="615.12" y="-62" font-family="Helvetica,sans-Serif" font-size="10.00">qtpokit_global.h</text>
</a>
</g>
</g>
<!-- Node2&#45;&gt;Node3 -->
<g id="edge2_Node000002_Node000003" class="edge">
<title>Node2&#45;&gt;Node3</title>
<g id="a_edge2_Node000002_Node000003"><a xlink:title=" ">
<path fill="none" stroke="#63b8ff" d="M780.52,-164.96C765.69,-152.04 736.02,-127.2 708.12,-110 687.46,-97.26 662.59,-85.53 643.77,-77.31"/>
<polygon fill="#63b8ff" stroke="#63b8ff" points="636.1,-74.01 644.87,-73.87 639.78,-75.59 643.45,-77.18 643.45,-77.18 643.45,-77.18 639.78,-75.59 642.03,-80.48 636.1,-74.01 636.1,-74.01"/>
</a>
</g>
</g>
<!-- Node5 -->
<g id="Node000005" class="node">
<title>Node5</title>
<g id="a_Node000005"><a xlink:title=" ">
<polygon fill="#e0e0e0" stroke="#999999" points="542.12,-74 418.12,-74 418.12,-55 542.12,-55 542.12,-74"/>
<text text-anchor="middle" x="480.12" y="-62" font-family="Helvetica,sans-Serif" font-size="10.00">QBluetoothDeviceInfo</text>
</a>
</g>
</g>
<!-- Node2&#45;&gt;Node5 -->
<g id="edge4_Node000002_Node000005" class="edge">
<title>Node2&#45;&gt;Node5</title>
<g id="a_edge4_Node000002_Node000005"><a xlink:title=" ">
<path fill="none" stroke="#63b8ff" d="M756,-164.96C724.16,-156.71 675.49,-143.38 634.12,-129 588.48,-113.14 536.82,-90.93 506.44,-77.42"/>
<polygon fill="#63b8ff" stroke="#63b8ff" points="498.82,-74.02 507.6,-74 502.48,-75.65 506.13,-77.28 506.13,-77.28 506.13,-77.28 502.48,-75.65 504.66,-80.57 498.82,-74.02 498.82,-74.02"/>
</a>
</g>
</g>
<!-- Node6 -->
<g id="Node000006" class="node">
<title>Node6</title>
<g id="a_Node000006"><a xlink:title=" ">
<polygon fill="#e0e0e0" stroke="#999999" points="699.12,-129 643.12,-129 643.12,-110 699.12,-110 699.12,-129"/>
<text text-anchor="middle" x="671.12" y="-117" font-family="Helvetica,sans-Serif" font-size="10.00">QObject</text>
</a>
</g>
</g>
<!-- Node2&#45;&gt;Node6 -->
<g id="edge5_Node000002_Node000006" class="edge">
<title>Node2&#45;&gt;Node6</title>
<g id="a_edge5_Node000002_Node000006"><a xlink:title=" ">
<path fill="none" stroke="#63b8ff" d="M771,-164.98C751.26,-156.19 720.27,-142.39 698.05,-132.49"/>
<polygon fill="#63b8ff" stroke="#63b8ff" points="690.59,-129.17 699.36,-129.14 694.24,-130.8 697.9,-132.43 697.9,-132.43 697.9,-132.43 694.24,-130.8 696.43,-135.71 690.59,-129.17 690.59,-129.17"/>
</a>
</g>
</g>
<!-- Node4 -->
<g id="Node000004" class="node">
<title>Node4</title>
<g id="a_Node000004"><a xlink:title=" ">
<polygon fill="#e0e0e0" stroke="#999999" points="293.62,-19 234.62,-19 234.62,0 293.62,0 293.62,-19"/>
<text text-anchor="middle" x="264.12" y="-7" font-family="Helvetica,sans-Serif" font-size="10.00">QtGlobal</text>
</a>
</g>
</g>
<!-- Node3&#45;&gt;Node4 -->
<g id="edge3_Node000003_Node000004" class="edge">
<title>Node3&#45;&gt;Node4</title>
<g id="a_edge3_Node000003_Node000004"><a xlink:title=" ">
<path fill="none" stroke="#63b8ff" d="M567.42,-56.3C496.92,-45.65 366.33,-25.93 301.98,-16.22"/>
<polygon fill="#63b8ff" stroke="#63b8ff" points="293.72,-14.97 302.17,-12.6 297.68,-15.57 301.63,-16.16 301.63,-16.16 301.63,-16.16 297.68,-15.57 301.09,-19.72 293.72,-14.97 293.72,-14.97"/>
</a>
</g>
</g>
<!-- Node8 -->
<g id="Node000008" class="node">
<title>Node8</title>
<g id="a_Node000008"><a xlink:href="abstractpokitservice_8h.html" target="_top" xlink:title="Declares the AbstractPokitService class.">
<polygon fill="white" stroke="#666666" points="466.62,-184 341.62,-184 341.62,-165 466.62,-165 466.62,-184"/>
<text text-anchor="middle" x="404.12" y="-172" font-family="Helvetica,sans-Serif" font-size="10.00">abstractpokitservice.h</text>
</a>
</g>
</g>
<!-- Node7&#45;&gt;Node8 -->
<g id="edge7_Node000007_Node000008" class="edge">
<title>Node7&#45;&gt;Node8</title>
<g id="a_edge7_Node000007_Node000008"><a xlink:title=" ">
<path fill="none" stroke="#63b8ff" d="M814.11,-220.65C731.34,-211.93 594.18,-197.33 476.12,-184 475.75,-183.96 475.37,-183.92 474.99,-183.87"/>
<polygon fill="#63b8ff" stroke="#63b8ff" points="466.95,-182.95 475.3,-180.28 470.92,-183.41 474.9,-183.86 474.9,-183.86 474.9,-183.86 470.92,-183.41 474.49,-187.44 466.95,-182.95 466.95,-182.95"/>
</a>
</g>
</g>
<!-- Node14 -->
<g id="Node000014" class="node">
<title>Node14</title>
<g id="a_Node000014"><a xlink:title=" ">
<polygon fill="#e0e0e0" stroke="#999999" points="712.12,-184 602.12,-184 602.12,-165 712.12,-165 712.12,-184"/>
<text text-anchor="middle" x="657.12" y="-172" font-family="Helvetica,sans-Serif" font-size="10.00">QBluetoothAddress</text>
</a>
</g>
</g>
<!-- Node7&#45;&gt;Node14 -->
<g id="edge17_Node000007_Node000014" class="edge">
<title>Node7&#45;&gt;Node14</title>
<g id="a_edge17_Node000007_Node000014"><a xlink:title=" ">
<path fill="none" stroke="#63b8ff" d="M851.85,-219.98C811.21,-210.7 746.17,-195.84 702.57,-185.88"/>
<polygon fill="#63b8ff" stroke="#63b8ff" points="694.69,-184.08 703.29,-182.35 698.59,-184.97 702.49,-185.86 702.49,-185.86 702.49,-185.86 698.59,-184.97 701.69,-189.37 694.69,-184.08 694.69,-184.08"/>
</a>
</g>
</g>
<!-- Node15 -->
<g id="Node000015" class="node">
<title>Node15</title>
<g id="a_Node000015"><a xlink:title=" ">
<polygon fill="#e0e0e0" stroke="#999999" points="323.12,-184 229.12,-184 229.12,-165 323.12,-165 323.12,-184"/>
<text text-anchor="middle" x="276.12" y="-172" font-family="Helvetica,sans-Serif" font-size="10.00">QBluetoothUuid</text>
</a>
</g>
</g>
<!-- Node7&#45;&gt;Node15 -->
<g id="edge18_Node000007_Node000015" class="edge">
<title>Node7&#45;&gt;Node15</title>
<g id="a_edge18_Node000007_Node000015"><a xlink:title=" ">
<path fill="none" stroke="#63b8ff" d="M814.03,-220.81C811.02,-220.53 808.04,-220.26 805.12,-220 595.56,-201.41 542.19,-207.53 333.12,-184 332.53,-183.93 331.93,-183.86 331.32,-183.79"/>
<polygon fill="#63b8ff" stroke="#63b8ff" points="323.37,-182.81 331.75,-180.22 327.34,-183.3 331.31,-183.79 331.31,-183.79 331.31,-183.79 327.34,-183.3 330.86,-187.36 323.37,-182.81 323.37,-182.81"/>
</a>
</g>
</g>
<!-- Node16 -->
<g id="Node000016" class="node">
<title>Node16</title>
<g id="a_Node000016"><a xlink:title=" ">
<polygon fill="#e0e0e0" stroke="#999999" points="583.62,-184 484.62,-184 484.62,-165 583.62,-165 583.62,-184"/>
<text text-anchor="middle" x="534.12" y="-172" font-family="Helvetica,sans-Serif" font-size="10.00">QVersionNumber</text>
</a>
</g>
</g>
<!-- Node7&#45;&gt;Node16 -->
<g id="edge19_Node000007_Node000016" class="edge">
<title>Node7&#45;&gt;Node16</title>
<g id="a_edge19_Node000007_Node000016"><a xlink:title=" ">
<path fill="none" stroke="#63b8ff" d="M832.09,-219.98C766.21,-210.15 658.41,-194.06 592.12,-184.16"/>
<polygon fill="#63b8ff" stroke="#63b8ff" points="583.85,-182.92 592.3,-180.55 587.81,-183.52 591.77,-184.11 591.77,-184.11 591.77,-184.11 587.81,-183.52 591.23,-187.67 583.85,-182.92 583.85,-182.92"/>
</a>
</g>
</g>
<!-- Node8&#45;&gt;Node3 -->
<g id="edge8_Node000008_Node000003" class="edge">
<title>Node8&#45;&gt;Node3</title>
<g id="a_edge8_Node000008_Node000003"><a xlink:title=" ">
<path fill="none" stroke="#63b8ff" d="M460.68,-164.99C491.25,-158.53 528.65,-147.49 558.12,-129 577.79,-116.66 594.73,-95.64 604.92,-81.19"/>
<polygon fill="#63b8ff" stroke="#63b8ff" points="609.61,-74.31 608.08,-82.94 607.36,-77.61 605.11,-80.92 605.11,-80.92 605.11,-80.92 607.36,-77.61 602.13,-78.89 609.61,-74.31 609.61,-74.31"/>
</a>
</g>
</g>
<!-- Node8&#45;&gt;Node6 -->
<g id="edge15_Node000008_Node000006" class="edge">
<title>Node8&#45;&gt;Node6</title>
<g id="a_edge15_Node000008_Node000006"><a xlink:title=" ">
<path fill="none" stroke="#63b8ff" d="M447.69,-164.94C493.02,-156.02 566.06,-141.62 629.12,-129 631.1,-128.6 633.13,-128.2 635.18,-127.78"/>
<polygon fill="#63b8ff" stroke="#63b8ff" points="643.11,-126.19 635.98,-131.3 639.19,-126.98 635.27,-127.77 635.27,-127.77 635.27,-127.77 639.19,-126.98 634.56,-124.24 643.11,-126.19 643.11,-126.19"/>
</a>
</g>
</g>
<!-- Node9 -->
<g id="Node000009" class="node">
<title>Node9</title>
<g id="a_Node000009"><a xlink:href="pokitproducts_8h.html" target="_top" xlink:title="Declares the PokitProduct enumeration, and related helper functions.">
<polygon fill="white" stroke="#666666" points="343.12,-129 251.12,-129 251.12,-110 343.12,-110 343.12,-129"/>
<text text-anchor="middle" x="297.12" y="-117" font-family="Helvetica,sans-Serif" font-size="10.00">pokitproducts.h</text>
</a>
</g>
</g>
<!-- Node8&#45;&gt;Node9 -->
<g id="edge9_Node000008_Node000009" class="edge">
<title>Node8&#45;&gt;Node9</title>
<g id="a_edge9_Node000008_Node000009"><a xlink:title=" ">
<path fill="none" stroke="#63b8ff" d="M386.93,-164.98C369.33,-156.27 341.8,-142.63 321.86,-132.75"/>
<polygon fill="#63b8ff" stroke="#63b8ff" points="314.63,-129.17 323.39,-129.5 318.21,-130.95 321.8,-132.72 321.8,-132.72 321.8,-132.72 318.21,-130.95 320.2,-135.95 314.63,-129.17 314.63,-129.17"/>
</a>
</g>
</g>
<!-- Node12 -->
<g id="Node000012" class="node">
<title>Node12</title>
<g id="a_Node000012"><a xlink:title=" ">
<polygon fill="#e0e0e0" stroke="#999999" points="548.62,-129 435.62,-129 435.62,-110 548.62,-110 548.62,-129"/>
<text text-anchor="middle" x="492.12" y="-117" font-family="Helvetica,sans-Serif" font-size="10.00">QLowEnergyService</text>
</a>
</g>
</g>
<!-- Node8&#45;&gt;Node12 -->
<g id="edge14_Node000008_Node000012" class="edge">
<title>Node8&#45;&gt;Node12</title>
<g id="a_edge14_Node000008_Node000012"><a xlink:title=" ">
<path fill="none" stroke="#63b8ff" d="M418.26,-164.98C432.42,-156.46 454.38,-143.23 470.68,-133.41"/>
<polygon fill="#63b8ff" stroke="#63b8ff" points="477.73,-129.17 472.73,-136.38 474.3,-131.23 470.87,-133.3 470.87,-133.3 470.87,-133.3 474.3,-131.23 469.02,-130.21 477.73,-129.17 477.73,-129.17"/>
</a>
</g>
</g>
<!-- Node13 -->
<g id="Node000013" class="node">
<title>Node13</title>
<g id="a_Node000013"><a xlink:title=" ">
<polygon fill="#e0e0e0" stroke="#999999" points="417.12,-129 361.12,-129 361.12,-110 417.12,-110 417.12,-129"/>
<text text-anchor="middle" x="389.12" y="-117" font-family="Helvetica,sans-Serif" font-size="10.00">optional</text>
</a>
</g>
</g>
<!-- Node8&#45;&gt;Node13 -->
<g id="edge16_Node000008_Node000013" class="edge">
<title>Node8&#45;&gt;Node13</title>
<g id="a_edge16_Node000008_Node000013"><a xlink:title=" ">
<path fill="none" stroke="#63b8ff" d="M401.65,-164.75C399.51,-157.18 396.35,-146.05 393.75,-136.84"/>
<polygon fill="#63b8ff" stroke="#63b8ff" points="391.55,-129.09 397.2,-135.81 392.64,-132.94 393.73,-136.79 393.73,-136.79 393.73,-136.79 392.64,-132.94 390.27,-137.77 391.55,-129.09 391.55,-129.09"/>
</a>
</g>
</g>
<!-- Node9&#45;&gt;Node3 -->
<g id="edge10_Node000009_Node000003" class="edge">
<title>Node9&#45;&gt;Node3</title>
<g id="a_edge10_Node000009_Node000003"><a xlink:title=" ">
<path fill="none" stroke="#63b8ff" d="M343.36,-110.79C400.65,-101.25 498.17,-84.99 559.49,-74.77"/>
<polygon fill="#63b8ff" stroke="#63b8ff" points="567.53,-73.43 560.23,-78.3 563.58,-74.09 559.64,-74.75 559.64,-74.75 559.64,-74.75 563.58,-74.09 559.04,-71.2 567.53,-73.43 567.53,-73.43"/>
</a>
</g>
</g>
<!-- Node9&#45;&gt;Node5 -->
<g id="edge11_Node000009_Node000005" class="edge">
<title>Node9&#45;&gt;Node5</title>
<g id="a_edge11_Node000009_Node000005"><a xlink:title=" ">
<path fill="none" stroke="#63b8ff" d="M326.52,-109.98C358.05,-100.86 408.19,-86.33 442.55,-76.38"/>
<polygon fill="#63b8ff" stroke="#63b8ff" points="450.49,-74.08 443.81,-79.77 446.65,-75.19 442.81,-76.31 442.81,-76.31 442.81,-76.31 446.65,-75.19 441.8,-72.85 450.49,-74.08 450.49,-74.08"/>
</a>
</g>
</g>
<!-- Node10 -->
<g id="Node000010" class="node">
<title>Node10</title>
<g id="a_Node000010"><a xlink:title=" ">
<polygon fill="#e0e0e0" stroke="#999999" points="357.12,-74 307.12,-74 307.12,-55 357.12,-55 357.12,-74"/>
<text text-anchor="middle" x="332.12" y="-62" font-family="Helvetica,sans-Serif" font-size="10.00">QFlags</text>
</a>
</g>
</g>
<!-- Node9&#45;&gt;Node10 -->
<g id="edge12_Node000009_Node000010" class="edge">
<title>Node9&#45;&gt;Node10</title>
<g id="a_edge12_Node000009_Node000010"><a xlink:title=" ">
<path fill="none" stroke="#63b8ff" d="M302.9,-109.75C308.05,-101.95 315.7,-90.37 321.88,-81"/>
<polygon fill="#63b8ff" stroke="#63b8ff" points="326.45,-74.09 325.05,-82.75 324.25,-77.43 322.04,-80.76 322.04,-80.76 322.04,-80.76 324.25,-77.43 319.04,-78.78 326.45,-74.09 326.45,-74.09"/>
</a>
</g>
</g>
<!-- Node11 -->
<g id="Node000011" class="node">
<title>Node11</title>
<g id="a_Node000011"><a xlink:title=" ">
<polygon fill="#e0e0e0" stroke="#999999" points="288.62,-74 235.62,-74 235.62,-55 288.62,-55 288.62,-74"/>
<text text-anchor="middle" x="262.12" y="-62" font-family="Helvetica,sans-Serif" font-size="10.00">QString</text>
</a>
</g>
</g>
<!-- Node9&#45;&gt;Node11 -->
<g id="edge13_Node000009_Node000011" class="edge">
<title>Node9&#45;&gt;Node11</title>
<g id="a_edge13_Node000009_Node000011"><a xlink:title=" ">
<path fill="none" stroke="#63b8ff" d="M291.34,-109.75C286.2,-101.95 278.54,-90.37 272.36,-81"/>
<polygon fill="#63b8ff" stroke="#63b8ff" points="267.79,-74.09 275.21,-78.78 270,-77.43 272.2,-80.76 272.2,-80.76 272.2,-80.76 270,-77.43 269.2,-82.75 267.79,-74.09 267.79,-74.09"/>
</a>
</g>
</g>
<!-- Node17&#45;&gt;Node8 -->
<g id="edge21_Node000017_Node000008" class="edge">
<title>Node17&#45;&gt;Node8</title>
<g id="a_edge21_Node000017_Node000008"><a xlink:title=" ">
<path fill="none" stroke="#63b8ff" d="M263.11,-219.98C291.93,-210.89 337.69,-196.46 369.23,-186.51"/>
<polygon fill="#63b8ff" stroke="#63b8ff" points="376.92,-184.08 370.37,-189.92 373.1,-185.29 369.29,-186.49 369.29,-186.49 369.29,-186.49 373.1,-185.29 368.21,-183.06 376.92,-184.08 376.92,-184.08"/>
</a>
</g>
</g>
<!-- Node17&#45;&gt;Node14 -->
<g id="edge22_Node000017_Node000014" class="edge">
<title>Node17&#45;&gt;Node14</title>
<g id="a_edge22_Node000017_Node000014"><a xlink:title=" ">
<path fill="none" stroke="#63b8ff" d="M305.92,-219.97C377.9,-211.13 493.39,-196.84 593.12,-184 593.39,-183.97 593.67,-183.93 593.94,-183.9"/>
<polygon fill="#63b8ff" stroke="#63b8ff" points="601.97,-182.85 594.5,-187.45 598,-183.37 594.03,-183.88 594.03,-183.88 594.03,-183.88 598,-183.37 593.57,-180.31 601.97,-182.85 601.97,-182.85"/>
</a>
</g>
</g>
<!-- Node17&#45;&gt;Node15 -->
<g id="edge23_Node000017_Node000015" class="edge">
<title>Node17&#45;&gt;Node15</title>
<g id="a_edge23_Node000017_Node000015"><a xlink:title=" ">
<path fill="none" stroke="#63b8ff" d="M242.73,-219.75C248.67,-211.88 257.53,-200.14 264.63,-190.73"/>
<polygon fill="#63b8ff" stroke="#63b8ff" points="269.64,-184.09 267.69,-192.64 267.23,-187.28 264.82,-190.47 264.82,-190.47 264.82,-190.47 267.23,-187.28 261.95,-188.31 269.64,-184.09 269.64,-184.09"/>
</a>
</g>
</g>
<!-- Node17&#45;&gt;Node16 -->
<g id="edge24_Node000017_Node000016" class="edge">
<title>Node17&#45;&gt;Node16</title>
<g id="a_edge24_Node000017_Node000016"><a xlink:title=" ">
<path fill="none" stroke="#63b8ff" d="M284,-219.98C336.85,-210.59 421.83,-195.47 477.82,-185.51"/>
<polygon fill="#63b8ff" stroke="#63b8ff" points="485.87,-184.08 478.62,-189.03 481.93,-184.78 477.99,-185.48 477.99,-185.48 477.99,-185.48 481.93,-184.78 477.36,-181.94 485.87,-184.08 485.87,-184.08"/>
</a>
</g>
</g>
<!-- Node18&#45;&gt;Node8 -->
<g id="edge26_Node000018_Node000008" class="edge">
<title>Node18&#45;&gt;Node8</title>
<g id="a_edge26_Node000018_Node000008"><a xlink:title=" ">
<path fill="none" stroke="#63b8ff" d="M404.12,-219.75C404.12,-212.26 404.12,-201.28 404.12,-192.13"/>
<polygon fill="#63b8ff" stroke="#63b8ff" points="404.12,-184.09 407.72,-192.09 404.12,-188.09 404.12,-192.09 404.12,-192.09 404.12,-192.09 404.12,-188.09 400.52,-192.09 404.12,-184.09 404.12,-184.09"/>
</a>
</g>
</g>
<!-- Node18&#45;&gt;Node14 -->
<g id="edge27_Node000018_Node000014" class="edge">
<title>Node18&#45;&gt;Node14</title>
<g id="a_edge27_Node000018_Node000014"><a xlink:title=" ">
<path fill="none" stroke="#63b8ff" d="M444.77,-219.98C489.27,-210.66 560.6,-195.72 608.15,-185.76"/>
<polygon fill="#63b8ff" stroke="#63b8ff" points="616.16,-184.08 609.06,-189.25 612.24,-184.9 608.33,-185.72 608.33,-185.72 608.33,-185.72 612.24,-184.9 607.59,-182.2 616.16,-184.08 616.16,-184.08"/>
</a>
</g>
</g>
<!-- Node18&#45;&gt;Node15 -->
<g id="edge28_Node000018_Node000015" class="edge">
<title>Node18&#45;&gt;Node15</title>
<g id="a_edge28_Node000018_Node000015"><a xlink:title=" ">
<path fill="none" stroke="#63b8ff" d="M383.56,-219.98C362.13,-211.11 328.41,-197.15 304.46,-187.24"/>
<polygon fill="#63b8ff" stroke="#63b8ff" points="297.06,-184.17 305.83,-183.9 300.76,-185.7 304.45,-187.23 304.45,-187.23 304.45,-187.23 300.76,-185.7 303.08,-190.56 297.06,-184.17 297.06,-184.17"/>
</a>
</g>
</g>
<!-- Node18&#45;&gt;Node16 -->
<g id="edge29_Node000018_Node000016" class="edge">
<title>Node18&#45;&gt;Node16</title>
<g id="a_edge29_Node000018_Node000016"><a xlink:title=" ">
<path fill="none" stroke="#63b8ff" d="M425.01,-219.98C446.77,-211.11 481.02,-197.15 505.34,-187.24"/>
<polygon fill="#63b8ff" stroke="#63b8ff" points="512.86,-184.17 506.81,-190.52 509.15,-185.68 505.45,-187.19 505.45,-187.19 505.45,-187.19 509.15,-185.68 504.09,-183.86 512.86,-184.17 512.86,-184.17"/>
</a>
</g>
</g>
<!-- Node19&#45;&gt;Node8 -->
<g id="edge31_Node000019_Node000008" class="edge">
<title>Node19&#45;&gt;Node8</title>
<g id="a_edge31_Node000019_Node000008"><a xlink:title=" ">
<path fill="none" stroke="#63b8ff" d="M135.54,-219.98C192.6,-210.53 284.56,-195.3 344.67,-185.35"/>
<polygon fill="#63b8ff" stroke="#63b8ff" points="352.57,-184.04 345.27,-188.9 348.63,-184.69 344.68,-185.35 344.68,-185.35 344.68,-185.35 348.63,-184.69 344.09,-181.79 352.57,-184.04 352.57,-184.04"/>
</a>
</g>
</g>
<!-- Node19&#45;&gt;Node9 -->
<g id="edge32_Node000019_Node000009" class="edge">
<title>Node19&#45;&gt;Node9</title>
<g id="a_edge32_Node000019_Node000009"><a xlink:title=" ">
<path fill="none" stroke="#63b8ff" d="M101.19,-219.84C138.91,-200.72 229.44,-154.82 272.96,-132.75"/>
<polygon fill="#63b8ff" stroke="#63b8ff" points="280.27,-129.05 274.76,-135.88 276.7,-130.86 273.13,-132.66 273.13,-132.66 273.13,-132.66 276.7,-130.86 271.5,-129.45 280.27,-129.05 280.27,-129.05"/>
</a>
</g>
</g>
<!-- Node19&#45;&gt;Node14 -->
<g id="edge33_Node000019_Node000014" class="edge">
<title>Node19&#45;&gt;Node14</title>
<g id="a_edge33_Node000019_Node000014"><a xlink:title=" ">
<path fill="none" stroke="#63b8ff" d="M142.21,-220.97C145.22,-220.63 148.21,-220.3 151.12,-220 347.16,-199.59 397.15,-204.98 593.12,-184 593.39,-183.97 593.67,-183.94 593.94,-183.91"/>
<polygon fill="#63b8ff" stroke="#63b8ff" points="601.99,-183 594.44,-187.48 598.01,-183.45 594.04,-183.9 594.04,-183.9 594.04,-183.9 598.01,-183.45 593.63,-180.32 601.99,-183 601.99,-183"/>
</a>
</g>
</g>
<!-- Node19&#45;&gt;Node15 -->
<g id="edge34_Node000019_Node000015" class="edge">
<title>Node19&#45;&gt;Node15</title>
<g id="a_edge34_Node000019_Node000015"><a xlink:title=" ">
<path fill="none" stroke="#63b8ff" d="M114.97,-219.98C148.18,-210.82 201.09,-196.21 237.16,-186.26"/>
<polygon fill="#63b8ff" stroke="#63b8ff" points="245.03,-184.08 238.28,-189.68 241.18,-185.15 237.32,-186.21 237.32,-186.21 237.32,-186.21 241.18,-185.15 236.36,-182.74 245.03,-184.08 245.03,-184.08"/>
</a>
</g>
</g>
<!-- Node19&#45;&gt;Node16 -->
<g id="edge35_Node000019_Node000016" class="edge">
<title>Node19&#45;&gt;Node16</title>
<g id="a_edge35_Node000019_Node000016"><a xlink:title=" ">
<path fill="none" stroke="#63b8ff" d="M142.22,-221.07C145.23,-220.71 148.21,-220.35 151.12,-220 295.44,-202.85 331.98,-202.54 476.12,-184 476.21,-183.99 476.29,-183.98 476.38,-183.97"/>
<polygon fill="#63b8ff" stroke="#63b8ff" points="484.46,-182.89 477.01,-187.52 480.5,-183.42 476.53,-183.95 476.53,-183.95 476.53,-183.95 480.5,-183.42 476.06,-180.38 484.46,-182.89 484.46,-182.89"/>
</a>
</g>
</g>
<!-- Node20&#45;&gt;Node8 -->
<g id="edge37_Node000020_Node000008" class="edge">
<title>Node20&#45;&gt;Node8</title>
<g id="a_edge37_Node000020_Node000008"><a xlink:title=" ">
<path fill="none" stroke="#63b8ff" d="M545.97,-219.98C516.98,-210.89 470.95,-196.46 439.23,-186.51"/>
<polygon fill="#63b8ff" stroke="#63b8ff" points="431.49,-184.08 440.2,-183.04 435.31,-185.28 439.12,-186.48 439.12,-186.48 439.12,-186.48 435.31,-185.28 438.04,-189.91 431.49,-184.08 431.49,-184.08"/>
</a>
</g>
</g>
<!-- Node20&#45;&gt;Node14 -->
<g id="edge38_Node000020_Node000014" class="edge">
<title>Node20&#45;&gt;Node14</title>
<g id="a_edge38_Node000020_Node000014"><a xlink:title=" ">
<path fill="none" stroke="#63b8ff" d="M586.62,-219.98C600.01,-211.54 620.72,-198.47 636.24,-188.68"/>
<polygon fill="#63b8ff" stroke="#63b8ff" points="643.38,-184.17 638.54,-191.48 640,-186.3 636.62,-188.44 636.62,-188.44 636.62,-188.44 640,-186.3 634.69,-185.39 643.38,-184.17 643.38,-184.17"/>
</a>
</g>
</g>
<!-- Node20&#45;&gt;Node15 -->
<g id="edge39_Node000020_Node000015" class="edge">
<title>Node20&#45;&gt;Node15</title>
<g id="a_edge39_Node000020_Node000015"><a xlink:title=" ">
<path fill="none" stroke="#63b8ff" d="M525.4,-219.98C472.42,-210.53 387.03,-195.29 331.24,-185.34"/>
<polygon fill="#63b8ff" stroke="#63b8ff" points="323.23,-183.91 331.74,-181.77 327.17,-184.61 331.11,-185.31 331.11,-185.31 331.11,-185.31 327.17,-184.61 330.48,-188.86 323.23,-183.91 323.23,-183.91"/>
</a>
</g>
</g>
<!-- Node20&#45;&gt;Node16 -->
<g id="edge40_Node000020_Node000016" class="edge">
<title>Node20&#45;&gt;Node16</title>
<g id="a_edge40_Node000020_Node000016"><a xlink:title=" ">
<path fill="none" stroke="#63b8ff" d="M566.68,-219.75C560.89,-211.88 552.25,-200.14 545.33,-190.73"/>
<polygon fill="#63b8ff" stroke="#63b8ff" points="540.44,-184.09 548.08,-188.4 542.81,-187.31 545.18,-190.53 545.18,-190.53 545.18,-190.53 542.81,-187.31 542.28,-192.67 540.44,-184.09 540.44,-184.09"/>
</a>
</g>
</g>
<!-- Node21&#45;&gt;Node8 -->
<g id="edge42_Node000021_Node000008" class="edge">
<title>Node21&#45;&gt;Node8</title>
<g id="a_edge42_Node000021_Node000008"><a xlink:title=" ">
<path fill="none" stroke="#63b8ff" d="M679.42,-219.98C620.93,-210.53 526.68,-195.3 465.06,-185.35"/>
<polygon fill="#63b8ff" stroke="#63b8ff" points="456.96,-184.04 465.43,-181.76 460.91,-184.68 464.86,-185.31 464.86,-185.31 464.86,-185.31 460.91,-184.68 464.29,-188.87 456.96,-184.04 456.96,-184.04"/>
</a>
</g>
</g>
<!-- Node21&#45;&gt;Node14 -->
<g id="edge43_Node000021_Node000014" class="edge">
<title>Node21&#45;&gt;Node14</title>
<g id="a_edge43_Node000021_Node000014"><a xlink:title=" ">
<path fill="none" stroke="#63b8ff" d="M720.07,-219.98C708.22,-211.61 689.96,-198.7 676.15,-188.95"/>
<polygon fill="#63b8ff" stroke="#63b8ff" points="669.39,-184.17 678,-185.85 672.66,-186.48 675.93,-188.79 675.93,-188.79 675.93,-188.79 672.66,-186.48 673.85,-191.73 669.39,-184.17 669.39,-184.17"/>
</a>
</g>
</g>
<!-- Node21&#45;&gt;Node15 -->
<g id="edge44_Node000021_Node000015" class="edge">
<title>Node21&#45;&gt;Node15</title>
<g id="a_edge44_Node000021_Node000015"><a xlink:title=" ">
<path fill="none" stroke="#63b8ff" d="M668.03,-221.02C665.02,-220.67 662.04,-220.33 659.12,-220 514.28,-203.57 477.68,-202.75 333.12,-184 332.53,-183.92 331.93,-183.84 331.33,-183.77"/>
<polygon fill="#63b8ff" stroke="#63b8ff" points="323.38,-182.69 331.79,-180.2 327.34,-183.23 331.31,-183.76 331.31,-183.76 331.31,-183.76 327.34,-183.23 330.83,-187.33 323.38,-182.69 323.38,-182.69"/>
</a>
</g>
</g>
<!-- Node21&#45;&gt;Node16 -->
<g id="edge45_Node000021_Node000016" class="edge">
<title>Node21&#45;&gt;Node16</title>
<g id="a_edge45_Node000021_Node000016"><a xlink:title=" ">
<path fill="none" stroke="#63b8ff" d="M700.31,-219.98C666.06,-210.82 611.5,-196.21 574.31,-186.26"/>
<polygon fill="#63b8ff" stroke="#63b8ff" points="566.18,-184.08 574.84,-182.67 570.05,-185.12 573.91,-186.15 573.91,-186.15 573.91,-186.15 570.05,-185.12 572.98,-189.63 566.18,-184.08 566.18,-184.08"/>
</a>
</g>
</g>
<!-- Node22&#45;&gt;Node3 -->
<g id="edge47_Node000022_Node000003" class="edge">
<title>Node22&#45;&gt;Node3</title>
<g id="a_edge47_Node000022_Node000003"><a xlink:title=" ">
<path fill="none" stroke="#63b8ff" d="M1032.68,-164.74C1036.09,-151.07 1040.17,-124.69 1026.12,-110 1002.01,-84.78 777.44,-72.2 670.82,-67.61"/>
<polygon fill="#63b8ff" stroke="#63b8ff" points="662.73,-67.27 670.88,-64.01 666.73,-67.43 670.72,-67.6 670.72,-67.6 670.72,-67.6 666.73,-67.43 670.57,-71.2 662.73,-67.27 662.73,-67.27"/>
</a>
</g>
</g>
<!-- Node22&#45;&gt;Node6 -->
<g id="edge52_Node000022_Node000006" class="edge">
<title>Node22&#45;&gt;Node6</title>
<g id="a_edge52_Node000022_Node000006"><a xlink:title=" ">
<path fill="none" stroke="#63b8ff" d="M982.82,-166.52C910.15,-155.79 772.61,-135.48 707.3,-125.84"/>
<polygon fill="#63b8ff" stroke="#63b8ff" points="699.33,-124.66 707.77,-122.27 703.29,-125.25 707.24,-125.83 707.24,-125.83 707.24,-125.83 703.29,-125.25 706.72,-129.39 699.33,-124.66 699.33,-124.66"/>
</a>
</g>
</g>
<!-- Node23 -->
<g id="Node000023" class="node">
<title>Node23</title>
<g id="a_Node000023"><a xlink:title=" ">
<polygon fill="#e0e0e0" stroke="#999999" points="1180.62,-129 1073.62,-129 1073.62,-110 1180.62,-110 1180.62,-129"/>
<text text-anchor="middle" x="1127.12" y="-117" font-family="Helvetica,sans-Serif" font-size="10.00">QLoggingCategory</text>
</a>
</g>
</g>
<!-- Node22&#45;&gt;Node23 -->
<g id="edge48_Node000022_Node000023" class="edge">
<title>Node22&#45;&gt;Node23</title>
<g id="a_edge48_Node000022_Node000023"><a xlink:title=" ">
<path fill="none" stroke="#63b8ff" d="M1045.71,-164.98C1061.45,-156.38 1085.96,-142.99 1103.98,-133.15"/>
<polygon fill="#63b8ff" stroke="#63b8ff" points="1111.25,-129.17 1105.96,-136.17 1107.74,-131.09 1104.23,-133.01 1104.23,-133.01 1104.23,-133.01 1107.74,-131.09 1102.51,-129.85 1111.25,-129.17 1111.25,-129.17"/>
</a>
</g>
</g>
<!-- Node24 -->
<g id="Node000024" class="node">
<title>Node24</title>
<g id="a_Node000024"><a xlink:title=" ">
<polygon fill="#e0e0e0" stroke="#999999" points="1323.62,-129 1198.62,-129 1198.62,-110 1323.62,-110 1323.62,-129"/>
<text text-anchor="middle" x="1261.12" y="-117" font-family="Helvetica,sans-Serif" font-size="10.00">QLowEnergyController</text>
</a>
</g>
</g>
<!-- Node22&#45;&gt;Node24 -->
<g id="edge49_Node000022_Node000024" class="edge">
<title>Node22&#45;&gt;Node24</title>
<g id="a_edge49_Node000022_Node000024"><a xlink:title=" ">
<path fill="none" stroke="#63b8ff" d="M1067.24,-164.98C1107.7,-155.7 1172.46,-140.84 1215.87,-130.88"/>
<polygon fill="#63b8ff" stroke="#63b8ff" points="1223.72,-129.08 1216.73,-134.38 1219.82,-129.98 1215.92,-130.87 1215.92,-130.87 1215.92,-130.87 1219.82,-129.98 1215.12,-127.36 1223.72,-129.08 1223.72,-129.08"/>
</a>
</g>
</g>
<!-- Node25 -->
<g id="Node000025" class="node">
<title>Node25</title>
<g id="a_Node000025"><a xlink:title=" ">
<polygon fill="#e0e0e0" stroke="#999999" points="943.12,-129 755.12,-129 755.12,-110 943.12,-110 943.12,-129"/>
<text text-anchor="middle" x="849.12" y="-117" font-family="Helvetica,sans-Serif" font-size="10.00">QLowEnergyConnectionParameters</text>
</a>
</g>
</g>
<!-- Node22&#45;&gt;Node25 -->
<g id="edge50_Node000022_Node000025" class="edge">
<title>Node22&#45;&gt;Node25</title>
<g id="a_edge50_Node000022_Node000025"><a xlink:title=" ">
<path fill="none" stroke="#63b8ff" d="M1001.04,-164.98C969.86,-155.86 920.27,-141.33 886.29,-131.38"/>
<polygon fill="#63b8ff" stroke="#63b8ff" points="878.43,-129.08 887.12,-127.88 882.27,-130.21 886.11,-131.33 886.11,-131.33 886.11,-131.33 882.27,-130.21 885.1,-134.79 878.43,-129.08 878.43,-129.08"/>
</a>
</g>
</g>
<!-- Node26 -->
<g id="Node000026" class="node">
<title>Node26</title>
<g id="a_Node000026"><a xlink:title=" ">
<polygon fill="#e0e0e0" stroke="#999999" points="1016.62,-129 961.62,-129 961.62,-110 1016.62,-110 1016.62,-129"/>
<text text-anchor="middle" x="989.12" y="-117" font-family="Helvetica,sans-Serif" font-size="10.00">QMutex</text>
</a>
</g>
</g>
<!-- Node22&#45;&gt;Node26 -->
<g id="edge51_Node000022_Node000026" class="edge">
<title>Node22&#45;&gt;Node26</title>
<g id="a_edge51_Node000022_Node000026"><a xlink:title=" ">
<path fill="none" stroke="#63b8ff" d="M1023.35,-164.75C1017.2,-156.8 1008,-144.91 1000.69,-135.45"/>
<polygon fill="#63b8ff" stroke="#63b8ff" points="995.77,-129.09 1003.51,-133.21 998.21,-132.25 1000.66,-135.42 1000.66,-135.42 1000.66,-135.42 998.21,-132.25 997.81,-137.62 995.77,-129.09 995.77,-129.09"/>
</a>
</g>
</g>
<!-- Node27&#45;&gt;Node4 -->
<g id="edge54_Node000027_Node000004" class="edge">
<title>Node27&#45;&gt;Node4</title>
<g id="a_edge54_Node000027_Node000004"><a xlink:title=" ">
<path fill="none" stroke="#63b8ff" d="M89.54,-54.98C126.96,-45.45 187.45,-30.04 226.5,-20.09"/>
<polygon fill="#63b8ff" stroke="#63b8ff" points="234.49,-18.05 227.63,-23.51 230.62,-19.04 226.74,-20.03 226.74,-20.03 226.74,-20.03 230.62,-19.04 225.85,-16.54 234.49,-18.05 234.49,-18.05"/>
</a>
</g>
</g>
</g>
</svg>
