<?xml version="1.0" encoding="UTF-8" standalone="no"?>
<!DOCTYPE svg PUBLIC "-//W3C//DTD SVG 1.1//EN"
 "http://www.w3.org/Graphics/SVG/1.1/DTD/svg11.dtd">
<!-- Generated by graphviz version 2.43.0 (0)
 -->
<!-- Title: pokitdevice.cpp Pages: 1 -->
<svg width="1411pt" height="302pt"
 viewBox="0.00 0.00 1411.25 302.00" xmlns="http://www.w3.org/2000/svg" xmlns:xlink="http://www.w3.org/1999/xlink">
<g id="graph0" class="graph" transform="scale(1 1) rotate(0) translate(4 298)">
<title>pokitdevice.cpp</title>
<!-- Node1 -->
<g id="Node000001" class="node">
<title>Node1</title>
<g id="a_Node000001"><a xlink:title="Defines the PokitDevice and PokitDevicePrivate classes.">
<polygon fill="#999999" stroke="#666666" points="700.11,-294 606.11,-294 606.11,-275 700.11,-275 700.11,-294"/>
<text text-anchor="middle" x="653.11" y="-282" font-family="Helvetica,sans-Serif" font-size="10.00">pokitdevice.cpp</text>
</a>
</g>
</g>
<!-- Node2 -->
<g id="Node000002" class="node">
<title>Node2</title>
<g id="a_Node000002"><a xlink:href="pokitdevice_8h.html" target="_top" xlink:title="Declares the PokitDevice class.">
<polygon fill="white" stroke="#666666" points="261.11,-184 141.11,-184 141.11,-165 261.11,-165 261.11,-184"/>
<text text-anchor="middle" x="201.11" y="-172" font-family="Helvetica,sans-Serif" font-size="10.00">qtpokit/pokitdevice.h</text>
</a>
</g>
</g>
<!-- Node1&#45;&gt;Node2 -->
<g id="edge1_Node000001_Node000002" class="edge">
<title>Node1&#45;&gt;Node2</title>
<g id="a_edge1_Node000001_Node000002"><a xlink:title=" ">
<path fill="none" stroke="#63b8ff" d="M605.99,-283.85C464.49,-284.42 50.55,-282.33 10.11,-239 -29.53,-196.53 62.86,-182.44 132.52,-177.78"/>
<polygon fill="#63b8ff" stroke="#63b8ff" points="140.89,-177.26 133.13,-181.35 136.89,-177.51 132.9,-177.76 132.9,-177.76 132.9,-177.76 136.89,-177.51 132.68,-174.16 140.89,-177.26 140.89,-177.26"/>
</a>
</g>
</g>
<!-- Node7 -->
<g id="Node000007" class="node">
<title>Node7</title>
<g id="a_Node000007"><a xlink:href="calibrationservice_8h.html" target="_top" xlink:title="Declares the CalibrationService class.">
<polygon fill="white" stroke="#666666" points="475.11,-239 325.11,-239 325.11,-220 475.11,-220 475.11,-239"/>
<text text-anchor="middle" x="400.11" y="-227" font-family="Helvetica,sans-Serif" font-size="10.00">qtpokit/calibrationservice.h</text>
</a>
</g>
</g>
<!-- Node1&#45;&gt;Node7 -->
<g id="edge6_Node000001_Node000007" class="edge">
<title>Node1&#45;&gt;Node7</title>
<g id="a_edge6_Node000001_Node000007"><a xlink:title=" ">
<path fill="none" stroke="#63b8ff" d="M612.46,-274.98C567.96,-265.66 496.63,-250.72 449.08,-240.76"/>
<polygon fill="#63b8ff" stroke="#63b8ff" points="441.07,-239.08 449.64,-237.2 444.99,-239.9 448.9,-240.72 448.9,-240.72 448.9,-240.72 444.99,-239.9 448.17,-244.25 441.07,-239.08 441.07,-239.08"/>
</a>
</g>
</g>
<!-- Node17 -->
<g id="Node000017" class="node">
<title>Node17</title>
<g id="a_Node000017"><a xlink:href="dataloggerservice_8h.html" target="_top" xlink:title="Declares the DataLoggerService class.">
<polygon fill="white" stroke="#666666" points="644.61,-239 493.61,-239 493.61,-220 644.61,-220 644.61,-239"/>
<text text-anchor="middle" x="569.11" y="-227" font-family="Helvetica,sans-Serif" font-size="10.00">qtpokit/dataloggerservice.h</text>
</a>
</g>
</g>
<!-- Node1&#45;&gt;Node17 -->
<g id="edge20_Node000001_Node000017" class="edge">
<title>Node1&#45;&gt;Node17</title>
<g id="a_edge20_Node000001_Node000017"><a xlink:title=" ">
<path fill="none" stroke="#63b8ff" d="M639.61,-274.98C626.22,-266.54 605.51,-253.47 589.99,-243.68"/>
<polygon fill="#63b8ff" stroke="#63b8ff" points="582.85,-239.17 591.54,-240.39 586.23,-241.3 589.61,-243.44 589.61,-243.44 589.61,-243.44 586.23,-241.3 587.69,-246.48 582.85,-239.17 582.85,-239.17"/>
</a>
</g>
</g>
<!-- Node18 -->
<g id="Node000018" class="node">
<title>Node18</title>
<g id="a_Node000018"><a xlink:href="deviceinfoservice_8h.html" target="_top" xlink:title="Declares the DeviceInfoService class.">
<polygon fill="white" stroke="#666666" points="811.61,-239 662.61,-239 662.61,-220 811.61,-220 811.61,-239"/>
<text text-anchor="middle" x="737.11" y="-227" font-family="Helvetica,sans-Serif" font-size="10.00">qtpokit/deviceinfoservice.h</text>
</a>
</g>
</g>
<!-- Node1&#45;&gt;Node18 -->
<g id="edge25_Node000001_Node000018" class="edge">
<title>Node1&#45;&gt;Node18</title>
<g id="a_edge25_Node000001_Node000018"><a xlink:title=" ">
<path fill="none" stroke="#63b8ff" d="M666.6,-274.98C679.99,-266.54 700.71,-253.47 716.22,-243.68"/>
<polygon fill="#63b8ff" stroke="#63b8ff" points="723.37,-239.17 718.52,-246.48 719.98,-241.3 716.6,-243.44 716.6,-243.44 716.6,-243.44 719.98,-241.3 714.68,-240.39 723.37,-239.17 723.37,-239.17"/>
</a>
</g>
</g>
<!-- Node19 -->
<g id="Node000019" class="node">
<title>Node19</title>
<g id="a_Node000019"><a xlink:href="dsoservice_8h.html" target="_top" xlink:title="Declares the DsoService class.">
<polygon fill="white" stroke="#666666" points="135.11,-239 19.11,-239 19.11,-220 135.11,-220 135.11,-239"/>
<text text-anchor="middle" x="77.11" y="-227" font-family="Helvetica,sans-Serif" font-size="10.00">qtpokit/dsoservice.h</text>
</a>
</g>
</g>
<!-- Node1&#45;&gt;Node19 -->
<g id="edge30_Node000001_Node000019" class="edge">
<title>Node1&#45;&gt;Node19</title>
<g id="a_edge30_Node000001_Node000019"><a xlink:title=" ">
<path fill="none" stroke="#63b8ff" d="M606.03,-280C516.14,-273.18 313.89,-257.18 144.11,-239 143.83,-238.97 143.56,-238.94 143.29,-238.91"/>
<polygon fill="#63b8ff" stroke="#63b8ff" points="135.2,-238.01 143.55,-235.32 139.17,-238.45 143.15,-238.9 143.15,-238.9 143.15,-238.9 139.17,-238.45 142.75,-242.47 135.2,-238.01 135.2,-238.01"/>
</a>
</g>
</g>
<!-- Node20 -->
<g id="Node000020" class="node">
<title>Node20</title>
<g id="a_Node000020"><a xlink:href="genericaccessservice_8h.html" target="_top" xlink:title="Declares the GenericAccessService class.">
<polygon fill="white" stroke="#666666" points="996.61,-239 829.61,-239 829.61,-220 996.61,-220 996.61,-239"/>
<text text-anchor="middle" x="913.11" y="-227" font-family="Helvetica,sans-Serif" font-size="10.00">qtpokit/genericaccessservice.h</text>
</a>
</g>
</g>
<!-- Node1&#45;&gt;Node20 -->
<g id="edge36_Node000001_Node000020" class="edge">
<title>Node1&#45;&gt;Node20</title>
<g id="a_edge36_Node000001_Node000020"><a xlink:title=" ">
<path fill="none" stroke="#63b8ff" d="M694.88,-274.98C740.71,-265.64 814.22,-250.66 863.08,-240.7"/>
<polygon fill="#63b8ff" stroke="#63b8ff" points="871.01,-239.08 863.89,-244.21 867.09,-239.88 863.17,-240.68 863.17,-240.68 863.17,-240.68 867.09,-239.88 862.45,-237.15 871.01,-239.08 871.01,-239.08"/>
</a>
</g>
</g>
<!-- Node21 -->
<g id="Node000021" class="node">
<title>Node21</title>
<g id="a_Node000021"><a xlink:href="multimeterservice_8h.html" target="_top" xlink:title="Declares the MultimeterService class.">
<polygon fill="white" stroke="#666666" points="306.61,-239 153.61,-239 153.61,-220 306.61,-220 306.61,-239"/>
<text text-anchor="middle" x="230.11" y="-227" font-family="Helvetica,sans-Serif" font-size="10.00">qtpokit/multimeterservice.h</text>
</a>
</g>
</g>
<!-- Node1&#45;&gt;Node21 -->
<g id="edge41_Node000001_Node000021" class="edge">
<title>Node1&#45;&gt;Node21</title>
<g id="a_edge41_Node000001_Node000021"><a xlink:title=" ">
<path fill="none" stroke="#63b8ff" d="M605.82,-277.57C533.06,-268.46 393,-250.91 305.96,-240"/>
<polygon fill="#63b8ff" stroke="#63b8ff" points="297.96,-239 306.35,-236.42 301.93,-239.5 305.9,-240 305.9,-240 305.9,-240 301.93,-239.5 305.45,-243.57 297.96,-239 297.96,-239"/>
</a>
</g>
</g>
<!-- Node22 -->
<g id="Node000022" class="node">
<title>Node22</title>
<g id="a_Node000022"><a xlink:href="statusservice_8h.html" target="_top" xlink:title="Declares the StatusService class.">
<polygon fill="white" stroke="#666666" points="1143.11,-239 1015.11,-239 1015.11,-220 1143.11,-220 1143.11,-239"/>
<text text-anchor="middle" x="1079.11" y="-227" font-family="Helvetica,sans-Serif" font-size="10.00">qtpokit/statusservice.h</text>
</a>
</g>
</g>
<!-- Node1&#45;&gt;Node22 -->
<g id="edge46_Node000001_Node000022" class="edge">
<title>Node1&#45;&gt;Node22</title>
<g id="a_edge46_Node000001_Node000022"><a xlink:title=" ">
<path fill="none" stroke="#63b8ff" d="M700.32,-277.63C774.69,-268.37 919.61,-250.34 1007.05,-239.47"/>
<polygon fill="#63b8ff" stroke="#63b8ff" points="1015.06,-238.47 1007.57,-243.03 1011.1,-238.96 1007.13,-239.46 1007.13,-239.46 1007.13,-239.46 1011.1,-238.96 1006.68,-235.88 1015.06,-238.47 1015.06,-238.47"/>
</a>
</g>
</g>
<!-- Node23 -->
<g id="Node000023" class="node">
<title>Node23</title>
<g id="a_Node000023"><a xlink:href="pokitdevice__p_8h.html" target="_top" xlink:title="Declares the PokitDevicePrivate class.">
<polygon fill="white" stroke="#666666" points="1218.11,-184 1124.11,-184 1124.11,-165 1218.11,-165 1218.11,-184"/>
<text text-anchor="middle" x="1171.11" y="-172" font-family="Helvetica,sans-Serif" font-size="10.00">pokitdevice_p.h</text>
</a>
</g>
</g>
<!-- Node1&#45;&gt;Node23 -->
<g id="edge52_Node000001_Node000023" class="edge">
<title>Node1&#45;&gt;Node23</title>
<g id="a_edge52_Node000001_Node000023"><a xlink:title=" ">
<path fill="none" stroke="#63b8ff" d="M700.52,-282.26C818.36,-278.77 1117.57,-267.18 1152.11,-239 1165.84,-227.79 1169.93,-207.08 1171,-192.36"/>
<polygon fill="#63b8ff" stroke="#63b8ff" points="1171.34,-184.11 1174.61,-192.25 1171.18,-188.11 1171.01,-192.1 1171.01,-192.1 1171.01,-192.1 1171.18,-188.11 1167.42,-191.96 1171.34,-184.11 1171.34,-184.11"/>
</a>
</g>
</g>
<!-- Node28 -->
<g id="Node000028" class="node">
<title>Node28</title>
<g id="a_Node000028"><a xlink:title=" ">
<polygon fill="#e0e0e0" stroke="#999999" points="1285.11,-239 1199.11,-239 1199.11,-220 1285.11,-220 1285.11,-239"/>
<text text-anchor="middle" x="1242.11" y="-227" font-family="Helvetica,sans-Serif" font-size="10.00">QMutexLocker</text>
</a>
</g>
</g>
<!-- Node1&#45;&gt;Node28 -->
<g id="edge59_Node000001_Node000028" class="edge">
<title>Node1&#45;&gt;Node28</title>
<g id="a_edge59_Node000001_Node000028"><a xlink:title=" ">
<path fill="none" stroke="#63b8ff" d="M700.18,-280.59C793.08,-274.61 1006.5,-259.76 1185.11,-239 1186.92,-238.79 1188.77,-238.56 1190.64,-238.33"/>
<polygon fill="#63b8ff" stroke="#63b8ff" points="1198.89,-237.24 1191.42,-241.86 1194.92,-237.77 1190.95,-238.29 1190.95,-238.29 1190.95,-238.29 1194.92,-237.77 1190.49,-234.72 1198.89,-237.24 1198.89,-237.24"/>
</a>
</g>
</g>
<!-- Node3 -->
<g id="Node000003" class="node">
<title>Node3</title>
<g id="a_Node000003"><a xlink:href="qtpokit__global_8h.html" target="_top" xlink:title="Global QtPokit library macros.">
<polygon fill="white" stroke="#666666" points="635.61,-74 540.61,-74 540.61,-55 635.61,-55 635.61,-74"/>
<text text-anchor="middle" x="588.11" y="-62" font-family="Helvetica,sans-Serif" font-size="10.00">qtpokit_global.h</text>
</a>
</g>
</g>
<!-- Node2&#45;&gt;Node3 -->
<g id="edge2_Node000002_Node000003" class="edge">
<title>Node2&#45;&gt;Node3</title>
<g id="a_edge2_Node000002_Node000003"><a xlink:title=" ">
<path fill="none" stroke="#63b8ff" d="M245.94,-164.97C286.7,-156.88 348.36,-143.78 401.11,-129 457.12,-113.31 521.03,-90.52 557.76,-76.94"/>
<polygon fill="#63b8ff" stroke="#63b8ff" points="565.61,-74.02 559.37,-80.18 561.87,-75.42 558.12,-76.81 558.12,-76.81 558.12,-76.81 561.87,-75.42 556.86,-73.43 565.61,-74.02 565.61,-74.02"/>
</a>
</g>
</g>
<!-- Node5 -->
<g id="Node000005" class="node">
<title>Node5</title>
<g id="a_Node000005"><a xlink:title=" ">
<polygon fill="#e0e0e0" stroke="#999999" points="287.11,-74 163.11,-74 163.11,-55 287.11,-55 287.11,-74"/>
<text text-anchor="middle" x="225.11" y="-62" font-family="Helvetica,sans-Serif" font-size="10.00">QBluetoothDeviceInfo</text>
</a>
</g>
</g>
<!-- Node2&#45;&gt;Node5 -->
<g id="edge4_Node000002_Node000005" class="edge">
<title>Node2&#45;&gt;Node5</title>
<g id="a_edge4_Node000002_Node000005"><a xlink:title=" ">
<path fill="none" stroke="#63b8ff" d="M203.07,-164.66C207.08,-146.61 216.27,-105.28 221.42,-82.08"/>
<polygon fill="#63b8ff" stroke="#63b8ff" points="223.18,-74.16 224.96,-82.75 222.32,-78.06 221.45,-81.97 221.45,-81.97 221.45,-81.97 222.32,-78.06 217.93,-81.19 223.18,-74.16 223.18,-74.16"/>
</a>
</g>
</g>
<!-- Node6 -->
<g id="Node000006" class="node">
<title>Node6</title>
<g id="a_Node000006"><a xlink:title=" ">
<polygon fill="#e0e0e0" stroke="#999999" points="760.11,-129 704.11,-129 704.11,-110 760.11,-110 760.11,-129"/>
<text text-anchor="middle" x="732.11" y="-117" font-family="Helvetica,sans-Serif" font-size="10.00">QObject</text>
</a>
</g>
</g>
<!-- Node2&#45;&gt;Node6 -->
<g id="edge5_Node000002_Node000006" class="edge">
<title>Node2&#45;&gt;Node6</title>
<g id="a_edge5_Node000002_Node000006"><a xlink:title=" ">
<path fill="none" stroke="#63b8ff" d="M261.12,-167.9C348.19,-159.71 514.61,-143.83 656.11,-129 669.11,-127.64 683.34,-126.07 695.95,-124.65"/>
<polygon fill="#63b8ff" stroke="#63b8ff" points="703.97,-123.74 696.42,-128.22 699.99,-124.19 696.02,-124.64 696.02,-124.64 696.02,-124.64 699.99,-124.19 695.61,-121.06 703.97,-123.74 703.97,-123.74"/>
</a>
</g>
</g>
<!-- Node4 -->
<g id="Node000004" class="node">
<title>Node4</title>
<g id="a_Node000004"><a xlink:title=" ">
<polygon fill="#e0e0e0" stroke="#999999" points="617.61,-19 558.61,-19 558.61,0 617.61,0 617.61,-19"/>
<text text-anchor="middle" x="588.11" y="-7" font-family="Helvetica,sans-Serif" font-size="10.00">QtGlobal</text>
</a>
</g>
</g>
<!-- Node3&#45;&gt;Node4 -->
<g id="edge3_Node000003_Node000004" class="edge">
<title>Node3&#45;&gt;Node4</title>
<g id="a_edge3_Node000003_Node000004"><a xlink:title=" ">
<path fill="none" stroke="#63b8ff" d="M588.11,-54.75C588.11,-47.26 588.11,-36.28 588.11,-27.13"/>
<polygon fill="#63b8ff" stroke="#63b8ff" points="588.11,-19.09 591.71,-27.09 588.11,-23.09 588.11,-27.09 588.11,-27.09 588.11,-27.09 588.11,-23.09 584.51,-27.09 588.11,-19.09 588.11,-19.09"/>
</a>
</g>
</g>
<!-- Node8 -->
<g id="Node000008" class="node">
<title>Node8</title>
<g id="a_Node000008"><a xlink:href="abstractpokitservice_8h.html" target="_top" xlink:title="Declares the AbstractPokitService class.">
<polygon fill="white" stroke="#666666" points="799.61,-184 674.61,-184 674.61,-165 799.61,-165 799.61,-184"/>
<text text-anchor="middle" x="737.11" y="-172" font-family="Helvetica,sans-Serif" font-size="10.00">abstractpokitservice.h</text>
</a>
</g>
</g>
<!-- Node7&#45;&gt;Node8 -->
<g id="edge7_Node000007_Node000008" class="edge">
<title>Node7&#45;&gt;Node8</title>
<g id="a_edge7_Node000007_Node000008"><a xlink:title=" ">
<path fill="none" stroke="#63b8ff" d="M454.25,-219.98C514.47,-210.51 611.59,-195.24 674.89,-185.29"/>
<polygon fill="#63b8ff" stroke="#63b8ff" points="682.82,-184.04 675.47,-188.84 678.87,-184.66 674.91,-185.28 674.91,-185.28 674.91,-185.28 678.87,-184.66 674.36,-181.72 682.82,-184.04 682.82,-184.04"/>
</a>
</g>
</g>
<!-- Node14 -->
<g id="Node000014" class="node">
<title>Node14</title>
<g id="a_Node000014"><a xlink:title=" ">
<polygon fill="#e0e0e0" stroke="#999999" points="427.11,-184 317.11,-184 317.11,-165 427.11,-165 427.11,-184"/>
<text text-anchor="middle" x="372.11" y="-172" font-family="Helvetica,sans-Serif" font-size="10.00">QBluetoothAddress</text>
</a>
</g>
</g>
<!-- Node7&#45;&gt;Node14 -->
<g id="edge17_Node000007_Node000014" class="edge">
<title>Node7&#45;&gt;Node14</title>
<g id="a_edge17_Node000007_Node000014"><a xlink:title=" ">
<path fill="none" stroke="#63b8ff" d="M395.48,-219.75C391.41,-212.03 385.37,-200.6 380.45,-191.28"/>
<polygon fill="#63b8ff" stroke="#63b8ff" points="376.65,-184.09 383.57,-189.48 378.51,-187.63 380.38,-191.16 380.38,-191.16 380.38,-191.16 378.51,-187.63 377.2,-192.84 376.65,-184.09 376.65,-184.09"/>
</a>
</g>
</g>
<!-- Node15 -->
<g id="Node000015" class="node">
<title>Node15</title>
<g id="a_Node000015"><a xlink:title=" ">
<polygon fill="#e0e0e0" stroke="#999999" points="539.11,-184 445.11,-184 445.11,-165 539.11,-165 539.11,-184"/>
<text text-anchor="middle" x="492.11" y="-172" font-family="Helvetica,sans-Serif" font-size="10.00">QBluetoothUuid</text>
</a>
</g>
</g>
<!-- Node7&#45;&gt;Node15 -->
<g id="edge18_Node000007_Node000015" class="edge">
<title>Node7&#45;&gt;Node15</title>
<g id="a_edge18_Node000007_Node000015"><a xlink:title=" ">
<path fill="none" stroke="#63b8ff" d="M414.89,-219.98C429.69,-211.46 452.65,-198.23 469.69,-188.41"/>
<polygon fill="#63b8ff" stroke="#63b8ff" points="477.06,-184.17 471.92,-191.28 473.59,-186.17 470.13,-188.16 470.13,-188.16 470.13,-188.16 473.59,-186.17 468.33,-185.04 477.06,-184.17 477.06,-184.17"/>
</a>
</g>
</g>
<!-- Node16 -->
<g id="Node000016" class="node">
<title>Node16</title>
<g id="a_Node000016"><a xlink:title=" ">
<polygon fill="#e0e0e0" stroke="#999999" points="656.61,-184 557.61,-184 557.61,-165 656.61,-165 656.61,-184"/>
<text text-anchor="middle" x="607.11" y="-172" font-family="Helvetica,sans-Serif" font-size="10.00">QVersionNumber</text>
</a>
</g>
</g>
<!-- Node7&#45;&gt;Node16 -->
<g id="edge19_Node000007_Node000016" class="edge">
<title>Node7&#45;&gt;Node16</title>
<g id="a_edge19_Node000007_Node000016"><a xlink:title=" ">
<path fill="none" stroke="#63b8ff" d="M433.37,-219.98C469.32,-210.78 526.69,-196.09 565.58,-186.13"/>
<polygon fill="#63b8ff" stroke="#63b8ff" points="573.59,-184.08 566.73,-189.55 569.71,-185.07 565.84,-186.07 565.84,-186.07 565.84,-186.07 569.71,-185.07 564.95,-182.58 573.59,-184.08 573.59,-184.08"/>
</a>
</g>
</g>
<!-- Node8&#45;&gt;Node3 -->
<g id="edge8_Node000008_Node000003" class="edge">
<title>Node8&#45;&gt;Node3</title>
<g id="a_edge8_Node000008_Node000003"><a xlink:title=" ">
<path fill="none" stroke="#63b8ff" d="M726.84,-164.99C711.67,-152.52 682.24,-128.75 656.11,-110 640.63,-98.9 622.57,-87.13 608.95,-78.49"/>
<polygon fill="#63b8ff" stroke="#63b8ff" points="601.88,-74.03 610.57,-75.25 605.27,-76.16 608.65,-78.3 608.65,-78.3 608.65,-78.3 605.27,-76.16 606.73,-81.34 601.88,-74.03 601.88,-74.03"/>
</a>
</g>
</g>
<!-- Node8&#45;&gt;Node6 -->
<g id="edge15_Node000008_Node000006" class="edge">
<title>Node8&#45;&gt;Node6</title>
<g id="a_edge15_Node000008_Node000006"><a xlink:title=" ">
<path fill="none" stroke="#63b8ff" d="M736.28,-164.75C735.58,-157.26 734.54,-146.28 733.68,-137.13"/>
<polygon fill="#63b8ff" stroke="#63b8ff" points="732.92,-129.09 737.25,-136.72 733.29,-133.07 733.67,-137.05 733.67,-137.05 733.67,-137.05 733.29,-133.07 730.09,-137.39 732.92,-129.09 732.92,-129.09"/>
</a>
</g>
</g>
<!-- Node9 -->
<g id="Node000009" class="node">
<title>Node9</title>
<g id="a_Node000009"><a xlink:href="pokitproducts_8h.html" target="_top" xlink:title="Declares the PokitProduct enumeration, and related helper functions.">
<polygon fill="white" stroke="#666666" points="392.11,-129 300.11,-129 300.11,-110 392.11,-110 392.11,-129"/>
<text text-anchor="middle" x="346.11" y="-117" font-family="Helvetica,sans-Serif" font-size="10.00">pokitproducts.h</text>
</a>
</g>
</g>
<!-- Node8&#45;&gt;Node9 -->
<g id="edge9_Node000008_Node000009" class="edge">
<title>Node8&#45;&gt;Node9</title>
<g id="a_edge9_Node000008_Node000009"><a xlink:title=" ">
<path fill="none" stroke="#63b8ff" d="M674.29,-164.98C598.42,-154.7 472.07,-137.57 400.29,-127.85"/>
<polygon fill="#63b8ff" stroke="#63b8ff" points="392.25,-126.75 400.66,-124.26 396.21,-127.29 400.17,-127.83 400.17,-127.83 400.17,-127.83 396.21,-127.29 399.69,-131.4 392.25,-126.75 392.25,-126.75"/>
</a>
</g>
</g>
<!-- Node12 -->
<g id="Node000012" class="node">
<title>Node12</title>
<g id="a_Node000012"><a xlink:title=" ">
<polygon fill="#e0e0e0" stroke="#999999" points="647.61,-129 534.61,-129 534.61,-110 647.61,-110 647.61,-129"/>
<text text-anchor="middle" x="591.11" y="-117" font-family="Helvetica,sans-Serif" font-size="10.00">QLowEnergyService</text>
</a>
</g>
</g>
<!-- Node8&#45;&gt;Node12 -->
<g id="edge14_Node000008_Node000012" class="edge">
<title>Node8&#45;&gt;Node12</title>
<g id="a_edge14_Node000008_Node000012"><a xlink:title=" ">
<path fill="none" stroke="#63b8ff" d="M713.65,-164.98C689,-156.04 650.08,-141.91 622.73,-131.98"/>
<polygon fill="#63b8ff" stroke="#63b8ff" points="614.99,-129.17 623.74,-128.52 618.75,-130.54 622.51,-131.9 622.51,-131.9 622.51,-131.9 618.75,-130.54 621.28,-135.28 614.99,-129.17 614.99,-129.17"/>
</a>
</g>
</g>
<!-- Node13 -->
<g id="Node000013" class="node">
<title>Node13</title>
<g id="a_Node000013"><a xlink:title=" ">
<polygon fill="#e0e0e0" stroke="#999999" points="834.11,-129 778.11,-129 778.11,-110 834.11,-110 834.11,-129"/>
<text text-anchor="middle" x="806.11" y="-117" font-family="Helvetica,sans-Serif" font-size="10.00">optional</text>
</a>
</g>
</g>
<!-- Node8&#45;&gt;Node13 -->
<g id="edge16_Node000008_Node000013" class="edge">
<title>Node8&#45;&gt;Node13</title>
<g id="a_edge16_Node000008_Node000013"><a xlink:title=" ">
<path fill="none" stroke="#63b8ff" d="M748.19,-164.98C758.99,-156.69 775.59,-143.94 788.25,-134.22"/>
<polygon fill="#63b8ff" stroke="#63b8ff" points="794.82,-129.17 790.67,-136.9 791.65,-131.61 788.48,-134.04 788.48,-134.04 788.48,-134.04 791.65,-131.61 786.28,-131.19 794.82,-129.17 794.82,-129.17"/>
</a>
</g>
</g>
<!-- Node9&#45;&gt;Node3 -->
<g id="edge10_Node000009_Node000003" class="edge">
<title>Node9&#45;&gt;Node3</title>
<g id="a_edge10_Node000009_Node000003"><a xlink:title=" ">
<path fill="none" stroke="#63b8ff" d="M384.99,-109.98C427.46,-100.68 495.5,-85.78 540.98,-75.82"/>
<polygon fill="#63b8ff" stroke="#63b8ff" points="548.92,-74.08 541.88,-79.31 545.01,-74.94 541.11,-75.79 541.11,-75.79 541.11,-75.79 545.01,-74.94 540.34,-72.28 548.92,-74.08 548.92,-74.08"/>
</a>
</g>
</g>
<!-- Node9&#45;&gt;Node5 -->
<g id="edge11_Node000009_Node000005" class="edge">
<title>Node9&#45;&gt;Node5</title>
<g id="a_edge11_Node000009_Node000005"><a xlink:title=" ">
<path fill="none" stroke="#63b8ff" d="M326.67,-109.98C306.59,-101.19 275.08,-87.39 252.49,-77.49"/>
<polygon fill="#63b8ff" stroke="#63b8ff" points="244.9,-74.17 253.67,-74.08 248.57,-75.78 252.23,-77.38 252.23,-77.38 252.23,-77.38 248.57,-75.78 250.79,-80.68 244.9,-74.17 244.9,-74.17"/>
</a>
</g>
</g>
<!-- Node10 -->
<g id="Node000010" class="node">
<title>Node10</title>
<g id="a_Node000010"><a xlink:title=" ">
<polygon fill="#e0e0e0" stroke="#999999" points="438.11,-74 388.11,-74 388.11,-55 438.11,-55 438.11,-74"/>
<text text-anchor="middle" x="413.11" y="-62" font-family="Helvetica,sans-Serif" font-size="10.00">QFlags</text>
</a>
</g>
</g>
<!-- Node9&#45;&gt;Node10 -->
<g id="edge12_Node000009_Node000010" class="edge">
<title>Node9&#45;&gt;Node10</title>
<g id="a_edge12_Node000009_Node000010"><a xlink:title=" ">
<path fill="none" stroke="#63b8ff" d="M356.87,-109.98C367.36,-101.69 383.47,-88.94 395.77,-79.22"/>
<polygon fill="#63b8ff" stroke="#63b8ff" points="402.15,-74.17 398.11,-81.96 399.01,-76.65 395.87,-79.13 395.87,-79.13 395.87,-79.13 399.01,-76.65 393.64,-76.31 402.15,-74.17 402.15,-74.17"/>
</a>
</g>
</g>
<!-- Node11 -->
<g id="Node000011" class="node">
<title>Node11</title>
<g id="a_Node000011"><a xlink:title=" ">
<polygon fill="#e0e0e0" stroke="#999999" points="369.61,-74 316.61,-74 316.61,-55 369.61,-55 369.61,-74"/>
<text text-anchor="middle" x="343.11" y="-62" font-family="Helvetica,sans-Serif" font-size="10.00">QString</text>
</a>
</g>
</g>
<!-- Node9&#45;&gt;Node11 -->
<g id="edge13_Node000009_Node000011" class="edge">
<title>Node9&#45;&gt;Node11</title>
<g id="a_edge13_Node000009_Node000011"><a xlink:title=" ">
<path fill="none" stroke="#63b8ff" d="M345.61,-109.75C345.19,-102.26 344.57,-91.28 344.05,-82.13"/>
<polygon fill="#63b8ff" stroke="#63b8ff" points="343.59,-74.09 347.64,-81.87 343.82,-78.08 344.05,-82.08 344.05,-82.08 344.05,-82.08 343.82,-78.08 340.45,-82.28 343.59,-74.09 343.59,-74.09"/>
</a>
</g>
</g>
<!-- Node17&#45;&gt;Node8 -->
<g id="edge21_Node000017_Node000008" class="edge">
<title>Node17&#45;&gt;Node8</title>
<g id="a_edge21_Node000017_Node000008"><a xlink:title=" ">
<path fill="none" stroke="#63b8ff" d="M596.1,-219.98C624.92,-210.89 670.68,-196.46 702.21,-186.51"/>
<polygon fill="#63b8ff" stroke="#63b8ff" points="709.9,-184.08 703.36,-189.92 706.09,-185.29 702.27,-186.49 702.27,-186.49 702.27,-186.49 706.09,-185.29 701.19,-183.06 709.9,-184.08 709.9,-184.08"/>
</a>
</g>
</g>
<!-- Node17&#45;&gt;Node14 -->
<g id="edge22_Node000017_Node000014" class="edge">
<title>Node17&#45;&gt;Node14</title>
<g id="a_edge22_Node000017_Node000014"><a xlink:title=" ">
<path fill="none" stroke="#63b8ff" d="M537.46,-219.98C503.38,-210.82 449.09,-196.21 412.09,-186.26"/>
<polygon fill="#63b8ff" stroke="#63b8ff" points="404.01,-184.08 412.67,-182.68 407.87,-185.12 411.73,-186.16 411.73,-186.16 411.73,-186.16 407.87,-185.12 410.8,-189.64 404.01,-184.08 404.01,-184.08"/>
</a>
</g>
</g>
<!-- Node17&#45;&gt;Node15 -->
<g id="edge23_Node000017_Node000015" class="edge">
<title>Node17&#45;&gt;Node15</title>
<g id="a_edge23_Node000017_Node000015"><a xlink:title=" ">
<path fill="none" stroke="#63b8ff" d="M556.74,-219.98C544.57,-211.61 525.82,-198.7 511.64,-188.95"/>
<polygon fill="#63b8ff" stroke="#63b8ff" points="504.7,-184.17 513.33,-185.74 508,-186.44 511.29,-188.71 511.29,-188.71 511.29,-188.71 508,-186.44 509.25,-191.67 504.7,-184.17 504.7,-184.17"/>
</a>
</g>
</g>
<!-- Node17&#45;&gt;Node16 -->
<g id="edge24_Node000017_Node000016" class="edge">
<title>Node17&#45;&gt;Node16</title>
<g id="a_edge24_Node000017_Node000016"><a xlink:title=" ">
<path fill="none" stroke="#63b8ff" d="M575.38,-219.75C581.03,-211.88 589.44,-200.14 596.19,-190.73"/>
<polygon fill="#63b8ff" stroke="#63b8ff" points="600.95,-184.09 599.21,-192.69 598.62,-187.34 596.29,-190.59 596.29,-190.59 596.29,-190.59 598.62,-187.34 593.36,-188.49 600.95,-184.09 600.95,-184.09"/>
</a>
</g>
</g>
<!-- Node18&#45;&gt;Node8 -->
<g id="edge26_Node000018_Node000008" class="edge">
<title>Node18&#45;&gt;Node8</title>
<g id="a_edge26_Node000018_Node000008"><a xlink:title=" ">
<path fill="none" stroke="#63b8ff" d="M737.11,-219.75C737.11,-212.26 737.11,-201.28 737.11,-192.13"/>
<polygon fill="#63b8ff" stroke="#63b8ff" points="737.11,-184.09 740.71,-192.09 737.11,-188.09 737.11,-192.09 737.11,-192.09 737.11,-192.09 737.11,-188.09 733.51,-192.09 737.11,-184.09 737.11,-184.09"/>
</a>
</g>
</g>
<!-- Node18&#45;&gt;Node14 -->
<g id="edge27_Node000018_Node000014" class="edge">
<title>Node18&#45;&gt;Node14</title>
<g id="a_edge27_Node000018_Node000014"><a xlink:title=" ">
<path fill="none" stroke="#63b8ff" d="M678.46,-219.98C611.95,-210.33 503.87,-194.63 435.46,-184.7"/>
<polygon fill="#63b8ff" stroke="#63b8ff" points="427.32,-183.52 435.75,-181.1 431.28,-184.09 435.24,-184.67 435.24,-184.67 435.24,-184.67 431.28,-184.09 434.72,-188.23 427.32,-183.52 427.32,-183.52"/>
</a>
</g>
</g>
<!-- Node18&#45;&gt;Node15 -->
<g id="edge28_Node000018_Node000015" class="edge">
<title>Node18&#45;&gt;Node15</title>
<g id="a_edge28_Node000018_Node000015"><a xlink:title=" ">
<path fill="none" stroke="#63b8ff" d="M697.74,-219.98C654.74,-210.68 585.86,-195.78 539.82,-185.82"/>
<polygon fill="#63b8ff" stroke="#63b8ff" points="531.78,-184.08 540.36,-182.26 535.69,-184.93 539.6,-185.77 539.6,-185.77 539.6,-185.77 535.69,-184.93 538.84,-189.29 531.78,-184.08 531.78,-184.08"/>
</a>
</g>
</g>
<!-- Node18&#45;&gt;Node16 -->
<g id="edge29_Node000018_Node000016" class="edge">
<title>Node18&#45;&gt;Node16</title>
<g id="a_edge29_Node000018_Node000016"><a xlink:title=" ">
<path fill="none" stroke="#63b8ff" d="M716.22,-219.98C694.46,-211.11 660.21,-197.15 635.89,-187.24"/>
<polygon fill="#63b8ff" stroke="#63b8ff" points="628.37,-184.17 637.14,-183.86 632.08,-185.68 635.78,-187.19 635.78,-187.19 635.78,-187.19 632.08,-185.68 634.42,-190.52 628.37,-184.17 628.37,-184.17"/>
</a>
</g>
</g>
<!-- Node19&#45;&gt;Node8 -->
<g id="edge31_Node000019_Node000008" class="edge">
<title>Node19&#45;&gt;Node8</title>
<g id="a_edge31_Node000019_Node000008"><a xlink:title=" ">
<path fill="none" stroke="#63b8ff" d="M135.19,-220.93C138.2,-220.6 141.19,-220.29 144.11,-220 375.11,-197.38 434.01,-205.61 665.11,-184 665.48,-183.96 665.86,-183.93 666.24,-183.89"/>
<polygon fill="#63b8ff" stroke="#63b8ff" points="674.3,-183.1 666.69,-187.47 670.32,-183.49 666.34,-183.88 666.34,-183.88 666.34,-183.88 670.32,-183.49 665.98,-180.3 674.3,-183.1 674.3,-183.1"/>
</a>
</g>
</g>
<!-- Node19&#45;&gt;Node9 -->
<g id="edge32_Node000019_Node000009" class="edge">
<title>Node19&#45;&gt;Node9</title>
<g id="a_edge32_Node000019_Node000009"><a xlink:title=" ">
<path fill="none" stroke="#63b8ff" d="M125.97,-219.92C174.5,-210.92 245.17,-196.4 270.11,-184 294.67,-171.79 318.14,-150.13 332.34,-135.55"/>
<polygon fill="#63b8ff" stroke="#63b8ff" points="338.18,-129.4 335.27,-137.68 335.42,-132.3 332.66,-135.2 332.66,-135.2 332.66,-135.2 335.42,-132.3 330.06,-132.72 338.18,-129.4 338.18,-129.4"/>
</a>
</g>
</g>
<!-- Node19&#45;&gt;Node14 -->
<g id="edge33_Node000019_Node000014" class="edge">
<title>Node19&#45;&gt;Node14</title>
<g id="a_edge33_Node000019_Node000014"><a xlink:title=" ">
<path fill="none" stroke="#63b8ff" d="M124.5,-219.98C176.82,-210.59 260.94,-195.47 316.38,-185.51"/>
<polygon fill="#63b8ff" stroke="#63b8ff" points="324.34,-184.08 317.1,-189.04 320.4,-184.79 316.47,-185.5 316.47,-185.5 316.47,-185.5 320.4,-184.79 315.83,-181.95 324.34,-184.08 324.34,-184.08"/>
</a>
</g>
</g>
<!-- Node19&#45;&gt;Node15 -->
<g id="edge34_Node000019_Node000015" class="edge">
<title>Node19&#45;&gt;Node15</title>
<g id="a_edge34_Node000019_Node000015"><a xlink:title=" ">
<path fill="none" stroke="#63b8ff" d="M135.21,-221.12C138.22,-220.74 141.2,-220.36 144.11,-220 273.86,-203.77 306.57,-201.81 436.11,-184 436.38,-183.96 436.66,-183.92 436.93,-183.89"/>
<polygon fill="#63b8ff" stroke="#63b8ff" points="445.07,-182.74 437.65,-187.42 441.11,-183.3 437.15,-183.86 437.15,-183.86 437.15,-183.86 441.11,-183.3 436.64,-180.29 445.07,-182.74 445.07,-182.74"/>
</a>
</g>
</g>
<!-- Node19&#45;&gt;Node16 -->
<g id="edge35_Node000019_Node000016" class="edge">
<title>Node19&#45;&gt;Node16</title>
<g id="a_edge35_Node000019_Node000016"><a xlink:title=" ">
<path fill="none" stroke="#63b8ff" d="M135.2,-221C138.21,-220.65 141.19,-220.31 144.11,-220 323.33,-200.65 369.05,-204.86 548.11,-184 548.59,-183.94 549.07,-183.89 549.56,-183.83"/>
<polygon fill="#63b8ff" stroke="#63b8ff" points="557.56,-182.84 550.06,-187.39 553.59,-183.33 549.62,-183.82 549.62,-183.82 549.62,-183.82 553.59,-183.33 549.18,-180.25 557.56,-182.84 557.56,-182.84"/>
</a>
</g>
</g>
<!-- Node20&#45;&gt;Node8 -->
<g id="edge37_Node000020_Node000008" class="edge">
<title>Node20&#45;&gt;Node8</title>
<g id="a_edge37_Node000020_Node000008"><a xlink:title=" ">
<path fill="none" stroke="#63b8ff" d="M884.83,-219.98C854.64,-210.89 806.7,-196.46 773.66,-186.51"/>
<polygon fill="#63b8ff" stroke="#63b8ff" points="765.61,-184.08 774.3,-182.94 769.44,-185.24 773.27,-186.39 773.27,-186.39 773.27,-186.39 769.44,-185.24 772.23,-189.84 765.61,-184.08 765.61,-184.08"/>
</a>
</g>
</g>
<!-- Node20&#45;&gt;Node14 -->
<g id="edge38_Node000020_Node000014" class="edge">
<title>Node20&#45;&gt;Node14</title>
<g id="a_edge38_Node000020_Node000014"><a xlink:title=" ">
<path fill="none" stroke="#63b8ff" d="M829.4,-220.78C697.77,-208.62 455.3,-186.17 436.11,-184 435.84,-183.97 435.56,-183.94 435.29,-183.91"/>
<polygon fill="#63b8ff" stroke="#63b8ff" points="427.25,-182.96 435.61,-180.32 431.22,-183.43 435.19,-183.9 435.19,-183.9 435.19,-183.9 431.22,-183.43 434.77,-187.47 427.25,-182.96 427.25,-182.96"/>
</a>
</g>
</g>
<!-- Node20&#45;&gt;Node15 -->
<g id="edge39_Node000020_Node000015" class="edge">
<title>Node20&#45;&gt;Node15</title>
<g id="a_edge39_Node000020_Node000015"><a xlink:title=" ">
<path fill="none" stroke="#63b8ff" d="M837.88,-219.98C764.02,-211.46 648.2,-197.69 548.11,-184 547.83,-183.96 547.56,-183.92 547.28,-183.89"/>
<polygon fill="#63b8ff" stroke="#63b8ff" points="539.15,-182.74 547.57,-180.29 543.11,-183.3 547.07,-183.86 547.07,-183.86 547.07,-183.86 543.11,-183.3 546.57,-187.42 539.15,-182.74 539.15,-182.74"/>
</a>
</g>
</g>
<!-- Node20&#45;&gt;Node16 -->
<g id="edge40_Node000020_Node000016" class="edge">
<title>Node20&#45;&gt;Node16</title>
<g id="a_edge40_Node000020_Node000016"><a xlink:title=" ">
<path fill="none" stroke="#63b8ff" d="M863.94,-219.98C809.49,-210.55 721.8,-195.36 664.31,-185.41"/>
<polygon fill="#63b8ff" stroke="#63b8ff" points="656.4,-184.04 664.9,-181.86 660.34,-184.72 664.29,-185.4 664.29,-185.4 664.29,-185.4 660.34,-184.72 663.67,-188.95 656.4,-184.04 656.4,-184.04"/>
</a>
</g>
</g>
<!-- Node21&#45;&gt;Node8 -->
<g id="edge42_Node000021_Node000008" class="edge">
<title>Node21&#45;&gt;Node8</title>
<g id="a_edge42_Node000021_Node000008"><a xlink:title=" ">
<path fill="none" stroke="#63b8ff" d="M306.61,-220.82C412.32,-210.18 597.67,-191.43 665.11,-184 665.48,-183.96 665.86,-183.92 666.24,-183.88"/>
<polygon fill="#63b8ff" stroke="#63b8ff" points="674.29,-182.97 666.74,-187.44 670.31,-183.42 666.33,-183.86 666.33,-183.86 666.33,-183.86 670.31,-183.42 665.93,-180.29 674.29,-182.97 674.29,-182.97"/>
</a>
</g>
</g>
<!-- Node21&#45;&gt;Node14 -->
<g id="edge43_Node000021_Node000014" class="edge">
<title>Node21&#45;&gt;Node14</title>
<g id="a_edge43_Node000021_Node000014"><a xlink:title=" ">
<path fill="none" stroke="#63b8ff" d="M252.92,-219.98C276.9,-211.04 314.75,-196.91 341.35,-186.98"/>
<polygon fill="#63b8ff" stroke="#63b8ff" points="348.88,-184.17 342.64,-190.34 345.13,-185.57 341.38,-186.97 341.38,-186.97 341.38,-186.97 345.13,-185.57 340.12,-183.6 348.88,-184.17 348.88,-184.17"/>
</a>
</g>
</g>
<!-- Node21&#45;&gt;Node15 -->
<g id="edge44_Node000021_Node000015" class="edge">
<title>Node21&#45;&gt;Node15</title>
<g id="a_edge44_Node000021_Node000015"><a xlink:title=" ">
<path fill="none" stroke="#63b8ff" d="M272.2,-219.98C318.38,-210.64 392.46,-195.66 441.7,-185.7"/>
<polygon fill="#63b8ff" stroke="#63b8ff" points="449.68,-184.08 442.56,-189.2 445.76,-184.88 441.84,-185.67 441.84,-185.67 441.84,-185.67 445.76,-184.88 441.13,-182.14 449.68,-184.08 449.68,-184.08"/>
</a>
</g>
</g>
<!-- Node21&#45;&gt;Node16 -->
<g id="edge45_Node000021_Node000016" class="edge">
<title>Node21&#45;&gt;Node16</title>
<g id="a_edge45_Node000021_Node000016"><a xlink:title=" ">
<path fill="none" stroke="#63b8ff" d="M291.67,-219.96C355.74,-211.06 458.97,-196.66 548.11,-184 548.59,-183.93 549.07,-183.86 549.55,-183.79"/>
<polygon fill="#63b8ff" stroke="#63b8ff" points="557.54,-182.66 550.12,-187.35 553.58,-183.22 549.62,-183.79 549.62,-183.79 549.62,-183.79 553.58,-183.22 549.11,-180.22 557.54,-182.66 557.54,-182.66"/>
</a>
</g>
</g>
<!-- Node22&#45;&gt;Node8 -->
<g id="edge47_Node000022_Node000008" class="edge">
<title>Node22&#45;&gt;Node8</title>
<g id="a_edge47_Node000022_Node000008"><a xlink:title=" ">
<path fill="none" stroke="#63b8ff" d="M1024.16,-219.98C963.05,-210.51 864.49,-195.24 800.25,-185.29"/>
<polygon fill="#63b8ff" stroke="#63b8ff" points="792.2,-184.04 800.66,-181.71 796.16,-184.65 800.11,-185.26 800.11,-185.26 800.11,-185.26 796.16,-184.65 799.56,-188.82 792.2,-184.04 792.2,-184.04"/>
</a>
</g>
</g>
<!-- Node22&#45;&gt;Node13 -->
<g id="edge51_Node000022_Node000013" class="edge">
<title>Node22&#45;&gt;Node13</title>
<g id="a_edge51_Node000022_Node000013"><a xlink:title=" ">
<path fill="none" stroke="#63b8ff" d="M1057.23,-219.84C1008.39,-200.52 890.45,-153.87 835.37,-132.08"/>
<polygon fill="#63b8ff" stroke="#63b8ff" points="827.71,-129.05 836.48,-128.64 831.43,-130.52 835.15,-131.99 835.15,-131.99 835.15,-131.99 831.43,-130.52 833.83,-135.34 827.71,-129.05 827.71,-129.05"/>
</a>
</g>
</g>
<!-- Node22&#45;&gt;Node14 -->
<g id="edge48_Node000022_Node000014" class="edge">
<title>Node22&#45;&gt;Node14</title>
<g id="a_edge48_Node000022_Node000014"><a xlink:title=" ">
<path fill="none" stroke="#63b8ff" d="M1015.03,-220.85C1012.02,-220.55 1009.03,-220.26 1006.11,-220 753.29,-197.31 688.74,-208.72 436.11,-184 435.84,-183.97 435.56,-183.95 435.29,-183.92"/>
<polygon fill="#63b8ff" stroke="#63b8ff" points="427.24,-183.07 435.57,-180.33 431.22,-183.49 435.19,-183.91 435.19,-183.91 435.19,-183.91 431.22,-183.49 434.81,-187.49 427.24,-183.07 427.24,-183.07"/>
</a>
</g>
</g>
<!-- Node22&#45;&gt;Node15 -->
<g id="edge49_Node000022_Node000015" class="edge">
<title>Node22&#45;&gt;Node15</title>
<g id="a_edge49_Node000022_Node000015"><a xlink:title=" ">
<path fill="none" stroke="#63b8ff" d="M1015.03,-220.9C1012.01,-220.59 1009.03,-220.28 1006.11,-220 802.89,-200.19 750.95,-207.34 548.11,-184 547.83,-183.97 547.56,-183.94 547.28,-183.9"/>
<polygon fill="#63b8ff" stroke="#63b8ff" points="539.13,-182.89 547.51,-180.31 543.1,-183.38 547.07,-183.88 547.07,-183.88 547.07,-183.88 543.1,-183.38 546.62,-187.45 539.13,-182.89 539.13,-182.89"/>
</a>
</g>
</g>
<!-- Node22&#45;&gt;Node16 -->
<g id="edge50_Node000022_Node000016" class="edge">
<title>Node22&#45;&gt;Node16</title>
<g id="a_edge50_Node000022_Node000016"><a xlink:title=" ">
<path fill="none" stroke="#63b8ff" d="M1015.02,-221C1012.01,-220.66 1009.02,-220.32 1006.11,-220 854.64,-203.19 816.31,-203.05 665.11,-184 665.02,-183.99 664.94,-183.98 664.85,-183.97"/>
<polygon fill="#63b8ff" stroke="#63b8ff" points="656.76,-182.91 665.16,-180.38 660.73,-183.43 664.7,-183.95 664.7,-183.95 664.7,-183.95 660.73,-183.43 664.23,-187.52 656.76,-182.91 656.76,-182.91"/>
</a>
</g>
</g>
<!-- Node23&#45;&gt;Node3 -->
<g id="edge53_Node000023_Node000003" class="edge">
<title>Node23&#45;&gt;Node3</title>
<g id="a_edge53_Node000023_Node000003"><a xlink:title=" ">
<path fill="none" stroke="#63b8ff" d="M1218.31,-174C1297.64,-173.37 1444.17,-165.02 1392.11,-110 1366.41,-82.84 821.96,-69.99 643.91,-66.51"/>
<polygon fill="#63b8ff" stroke="#63b8ff" points="635.71,-66.35 643.78,-62.9 639.71,-66.43 643.71,-66.5 643.71,-66.5 643.71,-66.5 639.71,-66.43 643.64,-70.1 635.71,-66.35 635.71,-66.35"/>
</a>
</g>
</g>
<!-- Node23&#45;&gt;Node6 -->
<g id="edge58_Node000023_Node000006" class="edge">
<title>Node23&#45;&gt;Node6</title>
<g id="a_edge58_Node000023_Node000006"><a xlink:title=" ">
<path fill="none" stroke="#63b8ff" d="M1123.83,-170.05C1048.43,-164.14 896.49,-150.61 769.11,-129 768.84,-128.95 768.57,-128.91 768.3,-128.86"/>
<polygon fill="#63b8ff" stroke="#63b8ff" points="760.32,-127.34 768.86,-125.3 764.25,-128.09 768.18,-128.84 768.18,-128.84 768.18,-128.84 764.25,-128.09 767.5,-132.37 760.32,-127.34 760.32,-127.34"/>
</a>
</g>
</g>
<!-- Node24 -->
<g id="Node000024" class="node">
<title>Node24</title>
<g id="a_Node000024"><a xlink:title=" ">
<polygon fill="#e0e0e0" stroke="#999999" points="959.61,-129 852.61,-129 852.61,-110 959.61,-110 959.61,-129"/>
<text text-anchor="middle" x="906.11" y="-117" font-family="Helvetica,sans-Serif" font-size="10.00">QLoggingCategory</text>
</a>
</g>
</g>
<!-- Node23&#45;&gt;Node24 -->
<g id="edge54_Node000023_Node000024" class="edge">
<title>Node23&#45;&gt;Node24</title>
<g id="a_edge54_Node000023_Node000024"><a xlink:title=" ">
<path fill="none" stroke="#63b8ff" d="M1128.53,-164.98C1081.83,-155.64 1006.9,-140.66 957.09,-130.7"/>
<polygon fill="#63b8ff" stroke="#63b8ff" points="949.02,-129.08 957.57,-127.12 952.94,-129.87 956.86,-130.65 956.86,-130.65 956.86,-130.65 952.94,-129.87 956.16,-134.18 949.02,-129.08 949.02,-129.08"/>
</a>
</g>
</g>
<!-- Node25 -->
<g id="Node000025" class="node">
<title>Node25</title>
<g id="a_Node000025"><a xlink:title=" ">
<polygon fill="#e0e0e0" stroke="#999999" points="1102.61,-129 977.61,-129 977.61,-110 1102.61,-110 1102.61,-129"/>
<text text-anchor="middle" x="1040.11" y="-117" font-family="Helvetica,sans-Serif" font-size="10.00">QLowEnergyController</text>
</a>
</g>
</g>
<!-- Node23&#45;&gt;Node25 -->
<g id="edge55_Node000023_Node000025" class="edge">
<title>Node23&#45;&gt;Node25</title>
<g id="a_edge55_Node000023_Node000025"><a xlink:title=" ">
<path fill="none" stroke="#63b8ff" d="M1150.06,-164.98C1128.13,-156.11 1093.62,-142.15 1069.11,-132.24"/>
<polygon fill="#63b8ff" stroke="#63b8ff" points="1061.54,-129.17 1070.3,-128.83 1065.25,-130.67 1068.95,-132.17 1068.95,-132.17 1068.95,-132.17 1065.25,-130.67 1067.6,-135.51 1061.54,-129.17 1061.54,-129.17"/>
</a>
</g>
</g>
<!-- Node26 -->
<g id="Node000026" class="node">
<title>Node26</title>
<g id="a_Node000026"><a xlink:title=" ">
<polygon fill="#e0e0e0" stroke="#999999" points="1309.11,-129 1121.11,-129 1121.11,-110 1309.11,-110 1309.11,-129"/>
<text text-anchor="middle" x="1215.11" y="-117" font-family="Helvetica,sans-Serif" font-size="10.00">QLowEnergyConnectionParameters</text>
</a>
</g>
</g>
<!-- Node23&#45;&gt;Node26 -->
<g id="edge56_Node000023_Node000026" class="edge">
<title>Node23&#45;&gt;Node26</title>
<g id="a_edge56_Node000023_Node000026"><a xlink:title=" ">
<path fill="none" stroke="#63b8ff" d="M1178.37,-164.75C1184.97,-156.8 1194.85,-144.91 1202.7,-135.45"/>
<polygon fill="#63b8ff" stroke="#63b8ff" points="1207.98,-129.09 1205.64,-137.54 1205.42,-132.17 1202.87,-135.24 1202.87,-135.24 1202.87,-135.24 1205.42,-132.17 1200.1,-132.94 1207.98,-129.09 1207.98,-129.09"/>
</a>
</g>
</g>
<!-- Node27 -->
<g id="Node000027" class="node">
<title>Node27</title>
<g id="a_Node000027"><a xlink:title=" ">
<polygon fill="#e0e0e0" stroke="#999999" points="1382.61,-129 1327.61,-129 1327.61,-110 1382.61,-110 1382.61,-129"/>
<text text-anchor="middle" x="1355.11" y="-117" font-family="Helvetica,sans-Serif" font-size="10.00">QMutex</text>
</a>
</g>
</g>
<!-- Node23&#45;&gt;Node27 -->
<g id="edge57_Node000023_Node000027" class="edge">
<title>Node23&#45;&gt;Node27</title>
<g id="a_edge57_Node000023_Node000027"><a xlink:title=" ">
<path fill="none" stroke="#63b8ff" d="M1200.67,-164.98C1233.02,-155.67 1284.88,-140.73 1319.46,-130.77"/>
<polygon fill="#63b8ff" stroke="#63b8ff" points="1327.42,-128.47 1320.73,-134.15 1323.58,-129.58 1319.74,-130.69 1319.74,-130.69 1319.74,-130.69 1323.58,-129.58 1318.74,-127.23 1327.42,-128.47 1327.42,-128.47"/>
</a>
</g>
</g>
</g>
</svg>
