<?xml version="1.0" encoding="UTF-8" standalone="no"?>
<!DOCTYPE svg PUBLIC "-//W3C//DTD SVG 1.1//EN"
 "http://www.w3.org/Graphics/SVG/1.1/DTD/svg11.dtd">
<!-- Generated by graphviz version 2.43.0 (0)
 -->
<!-- Title: pokitdevice.cpp Pages: 1 -->
<svg width="1112pt" height="252pt"
 viewBox="0.00 0.00 1111.50 252.00" xmlns="http://www.w3.org/2000/svg" xmlns:xlink="http://www.w3.org/1999/xlink">
<g id="graph0" class="graph" transform="scale(1 1) rotate(0) translate(4 248)">
<title>pokitdevice.cpp</title>
<!-- Node1 -->
<g id="node1" class="node">
<title>Node1</title>
<g id="a_node1"><a xlink:title="Defines the PokitDevice and PokitDevicePrivate classes.">
<polygon fill="#bfbfbf" stroke="black" points="514,-224.5 514,-243.5 608,-243.5 608,-224.5 514,-224.5"/>
<text text-anchor="middle" x="561" y="-231.5" font-family="Helvetica,sans-Serif" font-size="10.00">pokitdevice.cpp</text>
</a>
</g>
</g>
<!-- Node2 -->
<g id="node2" class="node">
<title>Node2</title>
<g id="a_node2"><a xlink:href="pokitdevice_8h.html" target="_top" xlink:title="Declares the PokitDevice class.">
<polygon fill="none" stroke="black" points="501,-112.5 501,-131.5 621,-131.5 621,-112.5 501,-112.5"/>
<text text-anchor="middle" x="561" y="-119.5" font-family="Helvetica,sans-Serif" font-size="10.00">qtpokit/pokitdevice.h</text>
</a>
</g>
</g>
<!-- Node1&#45;&gt;Node2 -->
<g id="edge1" class="edge">
<title>Node1&#45;&gt;Node2</title>
<path fill="none" stroke="midnightblue" d="M561,-224.37C561,-206.62 561,-165.67 561,-141.6"/>
<polygon fill="midnightblue" stroke="midnightblue" points="564.5,-141.59 561,-131.59 557.5,-141.59 564.5,-141.59"/>
</g>
<!-- Node6 -->
<g id="node6" class="node">
<title>Node6</title>
<g id="a_node6"><a xlink:href="deviceinfoservice_8h.html" target="_top" xlink:title="Declares the DeviceInfoService class.">
<polygon fill="none" stroke="black" points="39.5,-168.5 39.5,-187.5 188.5,-187.5 188.5,-168.5 39.5,-168.5"/>
<text text-anchor="middle" x="114" y="-175.5" font-family="Helvetica,sans-Serif" font-size="10.00">qtpokit/deviceinfoservice.h</text>
</a>
</g>
</g>
<!-- Node1&#45;&gt;Node6 -->
<g id="edge5" class="edge">
<title>Node1&#45;&gt;Node6</title>
<path fill="none" stroke="midnightblue" d="M513.59,-227.27C437.6,-218.09 287.67,-199.98 194.62,-188.74"/>
<polygon fill="midnightblue" stroke="midnightblue" points="195.03,-185.26 184.68,-187.54 194.19,-192.21 195.03,-185.26"/>
</g>
<!-- Node12 -->
<g id="node12" class="node">
<title>Node12</title>
<g id="a_node12"><a xlink:href="genericaccessservice_8h.html" target="_top" xlink:title="Declares the GenericAccessService class.">
<polygon fill="none" stroke="black" points="206.5,-168.5 206.5,-187.5 373.5,-187.5 373.5,-168.5 206.5,-168.5"/>
<text text-anchor="middle" x="290" y="-175.5" font-family="Helvetica,sans-Serif" font-size="10.00">qtpokit/genericaccessservice.h</text>
</a>
</g>
</g>
<!-- Node1&#45;&gt;Node12 -->
<g id="edge13" class="edge">
<title>Node1&#45;&gt;Node12</title>
<path fill="none" stroke="midnightblue" d="M518.06,-224.44C470.49,-214.96 393.76,-199.67 342.61,-189.48"/>
<polygon fill="midnightblue" stroke="midnightblue" points="343.23,-186.04 332.74,-187.52 341.86,-192.9 343.23,-186.04"/>
</g>
<!-- Node13 -->
<g id="node13" class="node">
<title>Node13</title>
<g id="a_node13"><a xlink:href="statusservice_8h.html" target="_top" xlink:title="Declares the StatusService class.">
<polygon fill="none" stroke="black" points="392,-168.5 392,-187.5 520,-187.5 520,-168.5 392,-168.5"/>
<text text-anchor="middle" x="456" y="-175.5" font-family="Helvetica,sans-Serif" font-size="10.00">qtpokit/statusservice.h</text>
</a>
</g>
</g>
<!-- Node1&#45;&gt;Node13 -->
<g id="edge18" class="edge">
<title>Node1&#45;&gt;Node13</title>
<path fill="none" stroke="midnightblue" d="M544.13,-224.32C527.29,-215.66 501.19,-202.24 481.76,-192.25"/>
<polygon fill="midnightblue" stroke="midnightblue" points="483.32,-189.12 472.83,-187.65 480.12,-195.34 483.32,-189.12"/>
</g>
<!-- Node14 -->
<g id="node14" class="node">
<title>Node14</title>
<g id="a_node14"><a xlink:href="pokitdevice__p_8h.html" target="_top" xlink:title="Declares the PokitDevicePrivate class.">
<polygon fill="none" stroke="black" points="803,-112.5 803,-131.5 897,-131.5 897,-112.5 803,-112.5"/>
<text text-anchor="middle" x="850" y="-119.5" font-family="Helvetica,sans-Serif" font-size="10.00">pokitdevice_p.h</text>
</a>
</g>
</g>
<!-- Node1&#45;&gt;Node14 -->
<g id="edge23" class="edge">
<title>Node1&#45;&gt;Node14</title>
<path fill="none" stroke="midnightblue" d="M587.1,-224.48C612.07,-216.08 650.62,-202.42 683,-188 700.43,-180.24 703.5,-175.61 721,-168 750.86,-155.02 785.79,-143.02 811.77,-134.68"/>
<polygon fill="midnightblue" stroke="midnightblue" points="813.13,-137.92 821.61,-131.56 811.02,-131.25 813.13,-137.92"/>
</g>
<!-- Node18 -->
<g id="node18" class="node">
<title>Node18</title>
<g id="a_node18"><a xlink:href="logging__p_8h.html" target="_top" xlink:title="QtPokit logging categories.">
<polygon fill="none" stroke="black" points="600.5,-168.5 600.5,-187.5 673.5,-187.5 673.5,-168.5 600.5,-168.5"/>
<text text-anchor="middle" x="637" y="-175.5" font-family="Helvetica,sans-Serif" font-size="10.00">logging_p.h</text>
</a>
</g>
</g>
<!-- Node1&#45;&gt;Node18 -->
<g id="edge29" class="edge">
<title>Node1&#45;&gt;Node18</title>
<path fill="none" stroke="midnightblue" d="M573.21,-224.32C584.78,-216.11 602.38,-203.6 616.16,-193.81"/>
<polygon fill="midnightblue" stroke="midnightblue" points="618.44,-196.48 624.57,-187.83 614.39,-190.77 618.44,-196.48"/>
</g>
<!-- Node20 -->
<g id="node20" class="node">
<title>Node20</title>
<g id="a_node20"><a xlink:title=" ">
<polygon fill="none" stroke="#bfbfbf" points="730,-168.5 730,-187.5 816,-187.5 816,-168.5 730,-168.5"/>
<text text-anchor="middle" x="773" y="-175.5" font-family="Helvetica,sans-Serif" font-size="10.00">QMutexLocker</text>
</a>
</g>
</g>
<!-- Node1&#45;&gt;Node20 -->
<g id="edge32" class="edge">
<title>Node1&#45;&gt;Node20</title>
<path fill="none" stroke="midnightblue" d="M594.59,-224.44C631.19,-215.12 689.84,-200.18 729.83,-190"/>
<polygon fill="midnightblue" stroke="midnightblue" points="730.74,-193.38 739.57,-187.52 729.01,-186.59 730.74,-193.38"/>
</g>
<!-- Node3 -->
<g id="node3" class="node">
<title>Node3</title>
<g id="a_node3"><a xlink:href="qtpokit__global_8h.html" target="_top" xlink:title="Global QtPokit library macros.">
<polygon fill="none" stroke="black" points="585.5,-56.5 585.5,-75.5 680.5,-75.5 680.5,-56.5 585.5,-56.5"/>
<text text-anchor="middle" x="633" y="-63.5" font-family="Helvetica,sans-Serif" font-size="10.00">qtpokit_global.h</text>
</a>
</g>
</g>
<!-- Node2&#45;&gt;Node3 -->
<g id="edge2" class="edge">
<title>Node2&#45;&gt;Node3</title>
<path fill="none" stroke="midnightblue" d="M572.57,-112.32C583.42,-104.18 599.88,-91.84 612.88,-82.09"/>
<polygon fill="midnightblue" stroke="midnightblue" points="615.32,-84.63 621.22,-75.83 611.12,-79.03 615.32,-84.63"/>
</g>
<!-- Node5 -->
<g id="node5" class="node">
<title>Node5</title>
<g id="a_node5"><a xlink:title=" ">
<polygon fill="none" stroke="#bfbfbf" points="511,-56.5 511,-75.5 567,-75.5 567,-56.5 511,-56.5"/>
<text text-anchor="middle" x="539" y="-63.5" font-family="Helvetica,sans-Serif" font-size="10.00">QObject</text>
</a>
</g>
</g>
<!-- Node2&#45;&gt;Node5 -->
<g id="edge4" class="edge">
<title>Node2&#45;&gt;Node5</title>
<path fill="none" stroke="midnightblue" d="M557.37,-112.08C554.39,-104.77 550.07,-94.18 546.38,-85.1"/>
<polygon fill="midnightblue" stroke="midnightblue" points="549.58,-83.69 542.57,-75.75 543.1,-86.33 549.58,-83.69"/>
</g>
<!-- Node4 -->
<g id="node4" class="node">
<title>Node4</title>
<g id="a_node4"><a xlink:title=" ">
<polygon fill="none" stroke="#bfbfbf" points="603.5,-0.5 603.5,-19.5 662.5,-19.5 662.5,-0.5 603.5,-0.5"/>
<text text-anchor="middle" x="633" y="-7.5" font-family="Helvetica,sans-Serif" font-size="10.00">QtGlobal</text>
</a>
</g>
</g>
<!-- Node3&#45;&gt;Node4 -->
<g id="edge3" class="edge">
<title>Node3&#45;&gt;Node4</title>
<path fill="none" stroke="midnightblue" d="M633,-56.08C633,-49.01 633,-38.86 633,-29.99"/>
<polygon fill="midnightblue" stroke="midnightblue" points="636.5,-29.75 633,-19.75 629.5,-29.75 636.5,-29.75"/>
</g>
<!-- Node7 -->
<g id="node7" class="node">
<title>Node7</title>
<g id="a_node7"><a xlink:href="abstractpokitservice_8h.html" target="_top" xlink:title="Declares the AbstractPokitService class.">
<polygon fill="none" stroke="black" points="357.5,-112.5 357.5,-131.5 482.5,-131.5 482.5,-112.5 357.5,-112.5"/>
<text text-anchor="middle" x="420" y="-119.5" font-family="Helvetica,sans-Serif" font-size="10.00">abstractpokitservice.h</text>
</a>
</g>
</g>
<!-- Node6&#45;&gt;Node7 -->
<g id="edge6" class="edge">
<title>Node6&#45;&gt;Node7</title>
<path fill="none" stroke="midnightblue" d="M162.49,-168.44C216.54,-158.9 303.93,-143.48 361.67,-133.29"/>
<polygon fill="midnightblue" stroke="midnightblue" points="362.5,-136.7 371.74,-131.52 361.28,-129.81 362.5,-136.7"/>
</g>
<!-- Node9 -->
<g id="node9" class="node">
<title>Node9</title>
<g id="a_node9"><a xlink:title=" ">
<polygon fill="none" stroke="#bfbfbf" points="0,-112.5 0,-131.5 110,-131.5 110,-112.5 0,-112.5"/>
<text text-anchor="middle" x="55" y="-119.5" font-family="Helvetica,sans-Serif" font-size="10.00">QBluetoothAddress</text>
</a>
</g>
</g>
<!-- Node6&#45;&gt;Node9 -->
<g id="edge10" class="edge">
<title>Node6&#45;&gt;Node9</title>
<path fill="none" stroke="midnightblue" d="M104.52,-168.32C95.8,-160.34 82.66,-148.31 72.1,-138.65"/>
<polygon fill="midnightblue" stroke="midnightblue" points="74.39,-136 64.65,-131.83 69.67,-141.17 74.39,-136"/>
</g>
<!-- Node10 -->
<g id="node10" class="node">
<title>Node10</title>
<g id="a_node10"><a xlink:title=" ">
<polygon fill="none" stroke="#bfbfbf" points="128,-112.5 128,-131.5 222,-131.5 222,-112.5 128,-112.5"/>
<text text-anchor="middle" x="175" y="-119.5" font-family="Helvetica,sans-Serif" font-size="10.00">QBluetoothUuid</text>
</a>
</g>
</g>
<!-- Node6&#45;&gt;Node10 -->
<g id="edge11" class="edge">
<title>Node6&#45;&gt;Node10</title>
<path fill="none" stroke="midnightblue" d="M123.8,-168.32C132.82,-160.34 146.41,-148.31 157.32,-138.65"/>
<polygon fill="midnightblue" stroke="midnightblue" points="159.85,-141.08 165.02,-131.83 155.21,-135.84 159.85,-141.08"/>
</g>
<!-- Node11 -->
<g id="node11" class="node">
<title>Node11</title>
<g id="a_node11"><a xlink:title=" ">
<polygon fill="none" stroke="#bfbfbf" points="240.5,-112.5 240.5,-131.5 339.5,-131.5 339.5,-112.5 240.5,-112.5"/>
<text text-anchor="middle" x="290" y="-119.5" font-family="Helvetica,sans-Serif" font-size="10.00">QVersionNumber</text>
</a>
</g>
</g>
<!-- Node6&#45;&gt;Node11 -->
<g id="edge12" class="edge">
<title>Node6&#45;&gt;Node11</title>
<path fill="none" stroke="midnightblue" d="M141.89,-168.44C171.75,-159.28 219.31,-144.69 252.46,-134.52"/>
<polygon fill="midnightblue" stroke="midnightblue" points="253.71,-137.8 262.24,-131.52 251.66,-131.1 253.71,-137.8"/>
</g>
<!-- Node7&#45;&gt;Node3 -->
<g id="edge7" class="edge">
<title>Node7&#45;&gt;Node3</title>
<path fill="none" stroke="midnightblue" d="M453.75,-112.44C490.52,-103.12 549.45,-88.18 589.62,-78"/>
<polygon fill="midnightblue" stroke="midnightblue" points="590.57,-81.37 599.41,-75.52 588.85,-74.58 590.57,-81.37"/>
</g>
<!-- Node7&#45;&gt;Node5 -->
<g id="edge9" class="edge">
<title>Node7&#45;&gt;Node5</title>
<path fill="none" stroke="midnightblue" d="M438.86,-112.44C458.27,-103.64 488.73,-89.81 510.96,-79.72"/>
<polygon fill="midnightblue" stroke="midnightblue" points="512.57,-82.84 520.23,-75.52 509.68,-76.46 512.57,-82.84"/>
</g>
<!-- Node8 -->
<g id="node8" class="node">
<title>Node8</title>
<g id="a_node8"><a xlink:title=" ">
<polygon fill="none" stroke="#bfbfbf" points="363.5,-56.5 363.5,-75.5 476.5,-75.5 476.5,-56.5 363.5,-56.5"/>
<text text-anchor="middle" x="420" y="-63.5" font-family="Helvetica,sans-Serif" font-size="10.00">QLowEnergyService</text>
</a>
</g>
</g>
<!-- Node7&#45;&gt;Node8 -->
<g id="edge8" class="edge">
<title>Node7&#45;&gt;Node8</title>
<path fill="none" stroke="midnightblue" d="M420,-112.08C420,-105.01 420,-94.86 420,-85.99"/>
<polygon fill="midnightblue" stroke="midnightblue" points="423.5,-85.75 420,-75.75 416.5,-85.75 423.5,-85.75"/>
</g>
<!-- Node12&#45;&gt;Node7 -->
<g id="edge14" class="edge">
<title>Node12&#45;&gt;Node7</title>
<path fill="none" stroke="midnightblue" d="M310.6,-168.44C331.99,-159.56 365.68,-145.56 390.02,-135.45"/>
<polygon fill="midnightblue" stroke="midnightblue" points="391.61,-138.58 399.5,-131.52 388.92,-132.12 391.61,-138.58"/>
</g>
<!-- Node12&#45;&gt;Node9 -->
<g id="edge15" class="edge">
<title>Node12&#45;&gt;Node9</title>
<path fill="none" stroke="midnightblue" d="M252.76,-168.44C211.94,-159.06 146.36,-143.99 102.02,-133.8"/>
<polygon fill="midnightblue" stroke="midnightblue" points="102.59,-130.34 92.06,-131.52 101.02,-137.17 102.59,-130.34"/>
</g>
<!-- Node12&#45;&gt;Node10 -->
<g id="edge16" class="edge">
<title>Node12&#45;&gt;Node10</title>
<path fill="none" stroke="midnightblue" d="M271.78,-168.44C253.1,-159.68 223.84,-145.94 202.38,-135.86"/>
<polygon fill="midnightblue" stroke="midnightblue" points="203.68,-132.6 193.14,-131.52 200.7,-138.93 203.68,-132.6"/>
</g>
<!-- Node12&#45;&gt;Node11 -->
<g id="edge17" class="edge">
<title>Node12&#45;&gt;Node11</title>
<path fill="none" stroke="midnightblue" d="M290,-168.08C290,-161.01 290,-150.86 290,-141.99"/>
<polygon fill="midnightblue" stroke="midnightblue" points="293.5,-141.75 290,-131.75 286.5,-141.75 293.5,-141.75"/>
</g>
<!-- Node13&#45;&gt;Node7 -->
<g id="edge19" class="edge">
<title>Node13&#45;&gt;Node7</title>
<path fill="none" stroke="midnightblue" d="M450.06,-168.08C445.02,-160.53 437.66,-149.49 431.49,-140.23"/>
<polygon fill="midnightblue" stroke="midnightblue" points="434.29,-138.13 425.83,-131.75 428.47,-142.01 434.29,-138.13"/>
</g>
<!-- Node13&#45;&gt;Node9 -->
<g id="edge20" class="edge">
<title>Node13&#45;&gt;Node9</title>
<path fill="none" stroke="midnightblue" d="M391.69,-168.55C326.05,-159.89 220.93,-145.94 120.2,-132.16"/>
<polygon fill="midnightblue" stroke="midnightblue" points="120.54,-128.67 110.15,-130.78 119.59,-135.61 120.54,-128.67"/>
</g>
<!-- Node13&#45;&gt;Node10 -->
<g id="edge21" class="edge">
<title>Node13&#45;&gt;Node10</title>
<path fill="none" stroke="midnightblue" d="M411.47,-168.44C362.04,-158.94 282.25,-143.61 229.22,-133.42"/>
<polygon fill="midnightblue" stroke="midnightblue" points="229.8,-129.97 219.32,-131.52 228.48,-136.84 229.8,-129.97"/>
</g>
<!-- Node13&#45;&gt;Node11 -->
<g id="edge22" class="edge">
<title>Node13&#45;&gt;Node11</title>
<path fill="none" stroke="midnightblue" d="M429.7,-168.44C401.65,-159.32 357.06,-144.81 325.82,-134.65"/>
<polygon fill="midnightblue" stroke="midnightblue" points="326.77,-131.28 316.18,-131.52 324.61,-137.94 326.77,-131.28"/>
</g>
<!-- Node14&#45;&gt;Node3 -->
<g id="edge24" class="edge">
<title>Node14&#45;&gt;Node3</title>
<path fill="none" stroke="midnightblue" d="M815.62,-112.44C778.08,-103.1 717.87,-88.12 676.93,-77.93"/>
<polygon fill="midnightblue" stroke="midnightblue" points="677.77,-74.53 667.22,-75.52 676.08,-81.33 677.77,-74.53"/>
</g>
<!-- Node14&#45;&gt;Node5 -->
<g id="edge28" class="edge">
<title>Node14&#45;&gt;Node5</title>
<path fill="none" stroke="midnightblue" d="M802.82,-113.35C735.35,-102.39 615.9,-82.94 577.3,-76"/>
<polygon fill="midnightblue" stroke="midnightblue" points="577.71,-72.52 567.23,-74.1 576.41,-79.4 577.71,-72.52"/>
</g>
<!-- Node15 -->
<g id="node15" class="node">
<title>Node15</title>
<g id="a_node15"><a xlink:title=" ">
<polygon fill="none" stroke="#bfbfbf" points="698.5,-56.5 698.5,-75.5 823.5,-75.5 823.5,-56.5 698.5,-56.5"/>
<text text-anchor="middle" x="761" y="-63.5" font-family="Helvetica,sans-Serif" font-size="10.00">QLowEnergyController</text>
</a>
</g>
</g>
<!-- Node14&#45;&gt;Node15 -->
<g id="edge25" class="edge">
<title>Node14&#45;&gt;Node15</title>
<path fill="none" stroke="midnightblue" d="M835.7,-112.32C821.82,-103.9 800.51,-90.97 784.2,-81.07"/>
<polygon fill="midnightblue" stroke="midnightblue" points="785.63,-77.85 775.26,-75.65 782,-83.83 785.63,-77.85"/>
</g>
<!-- Node16 -->
<g id="node16" class="node">
<title>Node16</title>
<g id="a_node16"><a xlink:title=" ">
<polygon fill="none" stroke="#bfbfbf" points="842,-56.5 842,-75.5 1030,-75.5 1030,-56.5 842,-56.5"/>
<text text-anchor="middle" x="936" y="-63.5" font-family="Helvetica,sans-Serif" font-size="10.00">QLowEnergyConnectionParameters</text>
</a>
</g>
</g>
<!-- Node14&#45;&gt;Node16 -->
<g id="edge26" class="edge">
<title>Node14&#45;&gt;Node16</title>
<path fill="none" stroke="midnightblue" d="M863.82,-112.32C877.23,-103.9 897.82,-90.97 913.59,-81.07"/>
<polygon fill="midnightblue" stroke="midnightblue" points="915.61,-83.94 922.22,-75.65 911.89,-78.01 915.61,-83.94"/>
</g>
<!-- Node17 -->
<g id="node17" class="node">
<title>Node17</title>
<g id="a_node17"><a xlink:title=" ">
<polygon fill="none" stroke="#bfbfbf" points="1048.5,-56.5 1048.5,-75.5 1103.5,-75.5 1103.5,-56.5 1048.5,-56.5"/>
<text text-anchor="middle" x="1076" y="-63.5" font-family="Helvetica,sans-Serif" font-size="10.00">QMutex</text>
</a>
</g>
</g>
<!-- Node14&#45;&gt;Node17 -->
<g id="edge27" class="edge">
<title>Node14&#45;&gt;Node17</title>
<path fill="none" stroke="midnightblue" d="M886.25,-112.43C922.29,-103.89 979.45,-90.31 1038.28,-76.16"/>
<polygon fill="midnightblue" stroke="midnightblue" points="1039.22,-79.54 1048.12,-73.8 1037.58,-72.73 1039.22,-79.54"/>
</g>
<!-- Node18&#45;&gt;Node3 -->
<g id="edge30" class="edge">
<title>Node18&#45;&gt;Node3</title>
<path fill="none" stroke="midnightblue" d="M636.69,-168.37C636.04,-150.62 634.55,-109.67 633.68,-85.6"/>
<polygon fill="midnightblue" stroke="midnightblue" points="637.17,-85.46 633.31,-75.59 630.18,-85.71 637.17,-85.46"/>
</g>
<!-- Node19 -->
<g id="node19" class="node">
<title>Node19</title>
<g id="a_node19"><a xlink:title=" ">
<polygon fill="none" stroke="#bfbfbf" points="677.5,-112.5 677.5,-131.5 784.5,-131.5 784.5,-112.5 677.5,-112.5"/>
<text text-anchor="middle" x="731" y="-119.5" font-family="Helvetica,sans-Serif" font-size="10.00">QLoggingCategory</text>
</a>
</g>
</g>
<!-- Node18&#45;&gt;Node19 -->
<g id="edge31" class="edge">
<title>Node18&#45;&gt;Node19</title>
<path fill="none" stroke="midnightblue" d="M652.1,-168.32C666.9,-159.82 689.69,-146.73 706.98,-136.8"/>
<polygon fill="midnightblue" stroke="midnightblue" points="709.01,-139.67 715.93,-131.65 705.52,-133.6 709.01,-139.67"/>
</g>
</g>
</svg>
