<?xml version="1.0" encoding="UTF-8" standalone="no"?>
<!DOCTYPE svg PUBLIC "-//W3C//DTD SVG 1.1//EN"
 "http://www.w3.org/Graphics/SVG/1.1/DTD/svg11.dtd">
<!-- Generated by graphviz version 2.43.0 (0)
 -->
<!-- Title: isPokitProduct Pages: 1 -->
<svg width="379pt" height="88pt"
 viewBox="0.00 0.00 379.00 87.50" xmlns="http://www.w3.org/2000/svg" xmlns:xlink="http://www.w3.org/1999/xlink">
<g id="graph0" class="graph" transform="scale(1 1) rotate(0) translate(4 83.5)">
<title>isPokitProduct</title>
<!-- Node1 -->
<g id="Node000001" class="node">
<title>Node1</title>
<g id="a_Node000001"><a xlink:title="Returns true if serviceUuids contains a known Pokit Status service UUID.">
<polygon fill="#999999" stroke="#666666" points="86,-51.5 0,-51.5 0,-32.5 86,-32.5 86,-51.5"/>
<text text-anchor="middle" x="43" y="-39.5" font-family="Helvetica,sans-Serif" font-size="10.00">isPokitProduct</text>
</a>
</g>
</g>
<!-- Node2 -->
<g id="Node000002" class="node">
<title>Node2</title>
<g id="a_Node000002"><a target="_parent" xlink:href="https://doc.qt.io/qt-5/qlist.html#contains" xlink:title=" ">
<polygon fill="white" stroke="#666666" points="211,-79.5 122,-79.5 122,-60.5 211,-60.5 211,-79.5"/>
<text text-anchor="middle" x="166.5" y="-67.5" font-family="Helvetica,sans-Serif" font-size="10.00">QList::contains</text>
</a>
</g>
</g>
<!-- Node1&#45;&gt;Node2 -->
<g id="edge1_Node000001_Node000002" class="edge">
<title>Node1&#45;&gt;Node2</title>
<g id="a_edge1_Node000001_Node000002"><a xlink:title=" ">
<path fill="none" stroke="#63b8ff" d="M85.47,-51.56C95.35,-53.83 105.98,-56.28 116.16,-58.63"/>
<polygon fill="#63b8ff" stroke="#63b8ff" points="124.21,-60.49 115.61,-62.2 120.32,-59.59 116.42,-58.69 116.42,-58.69 116.42,-58.69 120.32,-59.59 117.23,-55.18 124.21,-60.49 124.21,-60.49"/>
</a>
</g>
</g>
<!-- Node3 -->
<g id="Node000003" class="node">
<title>Node3</title>
<g id="a_Node000003"><a xlink:href="pokitproducts_8cpp.html#a4a5ebc5229da2cc0d2d00b43ba199bfb" target="_top" xlink:title="Returns true if info describes a Pokit device.">
<polygon fill="white" stroke="#666666" points="209.5,-24.5 123.5,-24.5 123.5,-5.5 209.5,-5.5 209.5,-24.5"/>
<text text-anchor="middle" x="166.5" y="-12.5" font-family="Helvetica,sans-Serif" font-size="10.00">isPokitProduct</text>
</a>
</g>
</g>
<!-- Node1&#45;&gt;Node3 -->
<g id="edge2_Node000001_Node000003" class="edge">
<title>Node1&#45;&gt;Node3</title>
<g id="a_edge2_Node000001_Node000003"><a xlink:title=" ">
<path fill="none" stroke="#63b8ff" d="M86.15,-32.63C95.58,-30.54 105.66,-28.3 115.37,-26.14"/>
<polygon fill="#63b8ff" stroke="#63b8ff" points="123.42,-24.35 116.39,-29.6 119.52,-25.22 115.61,-26.09 115.61,-26.09 115.61,-26.09 119.52,-25.22 114.83,-22.57 123.42,-24.35 123.42,-24.35"/>
</a>
</g>
</g>
<!-- Node3&#45;&gt;Node3 -->
<g id="edge3_Node000003_Node000003" class="edge">
<title>Node3&#45;&gt;Node3</title>
<g id="a_edge3_Node000003_Node000003"><a xlink:title=" ">
<path fill="none" stroke="#63b8ff" d="M147.7,-24.58C138.55,-33.23 144.82,-42.5 166.5,-42.5 182.09,-42.5 189.71,-37.71 189.36,-31.81"/>
<polygon fill="#63b8ff" stroke="#63b8ff" points="185.3,-24.58 192.36,-29.79 187.26,-28.07 189.22,-31.56 189.22,-31.56 189.22,-31.56 187.26,-28.07 186.08,-33.32 185.3,-24.58 185.3,-24.58"/>
</a>
</g>
</g>
<!-- Node4 -->
<g id="Node000004" class="node">
<title>Node4</title>
<g id="a_Node000004"><a target="_parent" xlink:href="https://doc.qt.io/qt-5/qbluetoothdeviceinfo.html#serviceUuids" xlink:title=" ">
<polygon fill="white" stroke="#666666" points="371,-30 247,-30 247,0 371,0 371,-30"/>
<text text-anchor="start" x="255" y="-18" font-family="Helvetica,sans-Serif" font-size="10.00">QBluetoothDeviceInfo</text>
<text text-anchor="middle" x="309" y="-7" font-family="Helvetica,sans-Serif" font-size="10.00">::serviceUuids</text>
</a>
</g>
</g>
<!-- Node3&#45;&gt;Node4 -->
<g id="edge4_Node000003_Node000004" class="edge">
<title>Node3&#45;&gt;Node4</title>
<g id="a_edge4_Node000003_Node000004"><a xlink:title=" ">
<path fill="none" stroke="#63b8ff" d="M209.65,-15C218.81,-15 228.73,-15 238.63,-15"/>
<polygon fill="#63b8ff" stroke="#63b8ff" points="246.92,-15 238.92,-18.6 242.92,-15 238.92,-15 238.92,-15 238.92,-15 242.92,-15 238.92,-11.4 246.92,-15 246.92,-15"/>
</a>
</g>
</g>
</g>
</svg>
