<?xml version="1.0" encoding="UTF-8" standalone="no"?>
<!DOCTYPE svg PUBLIC "-//W3C//DTD SVG 1.1//EN"
 "http://www.w3.org/Graphics/SVG/1.1/DTD/svg11.dtd">
<!-- Generated by graphviz version 2.43.0 (0)
 -->
<!-- Title: pokitproducts.cpp Pages: 1 -->
<svg width="1070pt" height="302pt"
 viewBox="0.00 0.00 1069.50 302.00" xmlns="http://www.w3.org/2000/svg" xmlns:xlink="http://www.w3.org/1999/xlink">
<g id="graph0" class="graph" transform="scale(1 1) rotate(0) translate(4 298)">
<title>pokitproducts.cpp</title>
<!-- Node1 -->
<g id="Node000001" class="node">
<title>Node1</title>
<g id="a_Node000001"><a xlink:title="Defines the PokitProduct helper functions.">
<polygon fill="#999999" stroke="#666666" points="737,-294 633,-294 633,-275 737,-275 737,-294"/>
<text text-anchor="middle" x="685" y="-282" font-family="Helvetica,sans-Serif" font-size="10.00">pokitproducts.cpp</text>
</a>
</g>
</g>
<!-- Node2 -->
<g id="Node000002" class="node">
<title>Node2</title>
<g id="a_Node000002"><a xlink:href="pokitmeter_8h.html" target="_top" xlink:title="Declares the PokitMeter namespace.">
<polygon fill="white" stroke="#666666" points="116,-239 0,-239 0,-220 116,-220 116,-239"/>
<text text-anchor="middle" x="58" y="-227" font-family="Helvetica,sans-Serif" font-size="10.00">qtpokit/pokitmeter.h</text>
</a>
</g>
</g>
<!-- Node1&#45;&gt;Node2 -->
<g id="edge1_Node000001_Node000002" class="edge">
<title>Node1&#45;&gt;Node2</title>
<g id="a_edge1_Node000001_Node000002"><a xlink:title=" ">
<path fill="none" stroke="#63b8ff" d="M632.81,-280.17C533.71,-273.67 311.51,-258.23 125,-239 124.73,-238.97 124.45,-238.94 124.18,-238.91"/>
<polygon fill="#63b8ff" stroke="#63b8ff" points="116.09,-238.04 124.43,-235.32 120.06,-238.47 124.04,-238.9 124.04,-238.9 124.04,-238.9 120.06,-238.47 123.65,-242.48 116.09,-238.04 116.09,-238.04"/>
</a>
</g>
</g>
<!-- Node6 -->
<g id="Node000006" class="node">
<title>Node6</title>
<g id="a_Node000006"><a xlink:href="pokitpro_8h.html" target="_top" xlink:title="Declares the PokitPro namespace.">
<polygon fill="white" stroke="#666666" points="238,-239 134,-239 134,-220 238,-220 238,-239"/>
<text text-anchor="middle" x="186" y="-227" font-family="Helvetica,sans-Serif" font-size="10.00">qtpokit/pokitpro.h</text>
</a>
</g>
</g>
<!-- Node1&#45;&gt;Node6 -->
<g id="edge5_Node000001_Node000006" class="edge">
<title>Node1&#45;&gt;Node6</title>
<g id="a_edge5_Node000001_Node000006"><a xlink:title=" ">
<path fill="none" stroke="#63b8ff" d="M632.54,-277.93C539.2,-268.01 344.85,-247.37 246.22,-236.9"/>
<polygon fill="#63b8ff" stroke="#63b8ff" points="238.13,-236.04 246.47,-233.3 242.11,-236.46 246.08,-236.88 246.08,-236.88 246.08,-236.88 242.11,-236.46 245.7,-240.46 238.13,-236.04 238.13,-236.04"/>
</a>
</g>
</g>
<!-- Node7 -->
<g id="Node000007" class="node">
<title>Node7</title>
<g id="a_Node000007"><a xlink:href="pokitproducts_8h.html" target="_top" xlink:title="Declares the PokitProduct enumeration, and related helper functions.">
<polygon fill="white" stroke="#666666" points="581,-129 451,-129 451,-110 581,-110 581,-129"/>
<text text-anchor="middle" x="516" y="-117" font-family="Helvetica,sans-Serif" font-size="10.00">qtpokit/pokitproducts.h</text>
</a>
</g>
</g>
<!-- Node1&#45;&gt;Node7 -->
<g id="edge8_Node000001_Node000007" class="edge">
<title>Node1&#45;&gt;Node7</title>
<g id="a_edge8_Node000001_Node000007"><a xlink:title=" ">
<path fill="none" stroke="#63b8ff" d="M686.44,-274.77C689.46,-253.22 694.05,-196.94 666,-165 646.75,-143.08 617.25,-131.72 589.49,-125.92"/>
<polygon fill="#63b8ff" stroke="#63b8ff" points="581.33,-124.36 589.87,-122.32 585.26,-125.11 589.19,-125.86 589.19,-125.86 589.19,-125.86 585.26,-125.11 588.51,-129.4 581.33,-124.36 581.33,-124.36"/>
</a>
</g>
</g>
<!-- Node11 -->
<g id="Node000011" class="node">
<title>Node11</title>
<g id="a_Node000011"><a xlink:href="statusservice_8h.html" target="_top" xlink:title="Declares the StatusService class.">
<polygon fill="white" stroke="#666666" points="543,-239 415,-239 415,-220 543,-220 543,-239"/>
<text text-anchor="middle" x="479" y="-227" font-family="Helvetica,sans-Serif" font-size="10.00">qtpokit/statusservice.h</text>
</a>
</g>
</g>
<!-- Node1&#45;&gt;Node11 -->
<g id="edge13_Node000001_Node000011" class="edge">
<title>Node1&#45;&gt;Node11</title>
<g id="a_edge13_Node000001_Node000011"><a xlink:title=" ">
<path fill="none" stroke="#63b8ff" d="M651.9,-274.98C616.12,-265.78 559.02,-251.09 520.32,-241.13"/>
<polygon fill="#63b8ff" stroke="#63b8ff" points="512.36,-239.08 521,-237.59 516.23,-240.08 520.1,-241.08 520.1,-241.08 520.1,-241.08 516.23,-240.08 519.21,-244.56 512.36,-239.08 512.36,-239.08"/>
</a>
</g>
</g>
<!-- Node18 -->
<g id="Node000018" class="node">
<title>Node18</title>
<g id="a_Node000018"><a xlink:href="pokitproducts__p_8h_source.html" target="_top" xlink:title=" ">
<polygon fill="white" stroke="#666666" points="817,-239 713,-239 713,-220 817,-220 817,-239"/>
<text text-anchor="middle" x="765" y="-227" font-family="Helvetica,sans-Serif" font-size="10.00">pokitproducts_p.h</text>
</a>
</g>
</g>
<!-- Node1&#45;&gt;Node18 -->
<g id="edge22_Node000001_Node000018" class="edge">
<title>Node1&#45;&gt;Node18</title>
<g id="a_edge22_Node000001_Node000018"><a xlink:title=" ">
<path fill="none" stroke="#63b8ff" d="M697.85,-274.98C710.61,-266.54 730.33,-253.47 745.11,-243.68"/>
<polygon fill="#63b8ff" stroke="#63b8ff" points="751.91,-239.17 747.23,-246.59 748.58,-241.38 745.24,-243.59 745.24,-243.59 745.24,-243.59 748.58,-241.38 743.26,-240.59 751.91,-239.17 751.91,-239.17"/>
</a>
</g>
</g>
<!-- Node20 -->
<g id="Node000020" class="node">
<title>Node20</title>
<g id="a_Node000020"><a xlink:title=" ">
<polygon fill="#e0e0e0" stroke="#999999" points="936.5,-239 835.5,-239 835.5,-220 936.5,-220 936.5,-239"/>
<text text-anchor="middle" x="886" y="-227" font-family="Helvetica,sans-Serif" font-size="10.00">QCoreApplication</text>
</a>
</g>
</g>
<!-- Node1&#45;&gt;Node20 -->
<g id="edge25_Node000001_Node000020" class="edge">
<title>Node1&#45;&gt;Node20</title>
<g id="a_edge25_Node000001_Node000020"><a xlink:title=" ">
<path fill="none" stroke="#63b8ff" d="M717.29,-274.98C752.21,-265.78 807.92,-251.09 845.68,-241.13"/>
<polygon fill="#63b8ff" stroke="#63b8ff" points="853.45,-239.08 846.64,-244.6 849.58,-240.1 845.72,-241.12 845.72,-241.12 845.72,-241.12 849.58,-240.1 844.8,-237.64 853.45,-239.08 853.45,-239.08"/>
</a>
</g>
</g>
<!-- Node21 -->
<g id="Node000021" class="node">
<title>Node21</title>
<g id="a_Node000021"><a xlink:title=" ">
<polygon fill="#e0e0e0" stroke="#999999" points="1061.5,-239 954.5,-239 954.5,-220 1061.5,-220 1061.5,-239"/>
<text text-anchor="middle" x="1008" y="-227" font-family="Helvetica,sans-Serif" font-size="10.00">QLoggingCategory</text>
</a>
</g>
</g>
<!-- Node1&#45;&gt;Node21 -->
<g id="edge26_Node000001_Node000021" class="edge">
<title>Node1&#45;&gt;Node21</title>
<g id="a_edge26_Node000001_Node000021"><a xlink:title=" ">
<path fill="none" stroke="#63b8ff" d="M736.9,-274.98C794.5,-265.53 887.31,-250.3 947.99,-240.35"/>
<polygon fill="#63b8ff" stroke="#63b8ff" points="955.97,-239.04 948.65,-243.89 952.02,-239.69 948.07,-240.33 948.07,-240.33 948.07,-240.33 952.02,-239.69 947.49,-236.78 955.97,-239.04 955.97,-239.04"/>
</a>
</g>
</g>
<!-- Node3 -->
<g id="Node000003" class="node">
<title>Node3</title>
<g id="a_Node000003"><a xlink:href="qtpokit__global_8h.html" target="_top" xlink:title="Global QtPokit library macros.">
<polygon fill="white" stroke="#666666" points="297.5,-74 202.5,-74 202.5,-55 297.5,-55 297.5,-74"/>
<text text-anchor="middle" x="250" y="-62" font-family="Helvetica,sans-Serif" font-size="10.00">qtpokit_global.h</text>
</a>
</g>
</g>
<!-- Node2&#45;&gt;Node3 -->
<g id="edge2_Node000002_Node000003" class="edge">
<title>Node2&#45;&gt;Node3</title>
<g id="a_edge2_Node000002_Node000003"><a xlink:title=" ">
<path fill="none" stroke="#63b8ff" d="M53.13,-219.58C46.77,-206.6 37.6,-182.19 48,-165 79.25,-113.36 146.29,-87.81 194.57,-75.67"/>
<polygon fill="#63b8ff" stroke="#63b8ff" points="202.45,-73.77 195.52,-79.15 198.57,-74.71 194.68,-75.65 194.68,-75.65 194.68,-75.65 198.57,-74.71 193.83,-72.15 202.45,-73.77 202.45,-73.77"/>
</a>
</g>
</g>
<!-- Node5 -->
<g id="Node000005" class="node">
<title>Node5</title>
<g id="a_Node000005"><a xlink:title=" ">
<polygon fill="#e0e0e0" stroke="#999999" points="116.5,-184 57.5,-184 57.5,-165 116.5,-165 116.5,-184"/>
<text text-anchor="middle" x="87" y="-172" font-family="Helvetica,sans-Serif" font-size="10.00">QVariant</text>
</a>
</g>
</g>
<!-- Node2&#45;&gt;Node5 -->
<g id="edge4_Node000002_Node000005" class="edge">
<title>Node2&#45;&gt;Node5</title>
<g id="a_edge4_Node000002_Node000005"><a xlink:title=" ">
<path fill="none" stroke="#63b8ff" d="M62.79,-219.75C67.01,-212.03 73.27,-200.6 78.36,-191.28"/>
<polygon fill="#63b8ff" stroke="#63b8ff" points="82.3,-184.09 81.62,-192.84 80.38,-187.6 78.46,-191.11 78.46,-191.11 78.46,-191.11 80.38,-187.6 75.3,-189.38 82.3,-184.09 82.3,-184.09"/>
</a>
</g>
</g>
<!-- Node4 -->
<g id="Node000004" class="node">
<title>Node4</title>
<g id="a_Node000004"><a xlink:title=" ">
<polygon fill="#e0e0e0" stroke="#999999" points="279.5,-19 220.5,-19 220.5,0 279.5,0 279.5,-19"/>
<text text-anchor="middle" x="250" y="-7" font-family="Helvetica,sans-Serif" font-size="10.00">QtGlobal</text>
</a>
</g>
</g>
<!-- Node3&#45;&gt;Node4 -->
<g id="edge3_Node000003_Node000004" class="edge">
<title>Node3&#45;&gt;Node4</title>
<g id="a_edge3_Node000003_Node000004"><a xlink:title=" ">
<path fill="none" stroke="#63b8ff" d="M250,-54.75C250,-47.26 250,-36.28 250,-27.13"/>
<polygon fill="#63b8ff" stroke="#63b8ff" points="250,-19.09 253.6,-27.09 250,-23.09 250,-27.09 250,-27.09 250,-27.09 250,-23.09 246.4,-27.09 250,-19.09 250,-19.09"/>
</a>
</g>
</g>
<!-- Node6&#45;&gt;Node3 -->
<g id="edge6_Node000006_Node000003" class="edge">
<title>Node6&#45;&gt;Node3</title>
<g id="a_edge6_Node000006_Node000003"><a xlink:title=" ">
<path fill="none" stroke="#63b8ff" d="M180.54,-219.73C168.43,-199.01 142.03,-146.11 164,-110 173.62,-94.18 190.88,-83.74 207.43,-76.97"/>
<polygon fill="#63b8ff" stroke="#63b8ff" points="214.95,-74.12 208.75,-80.32 211.21,-75.54 207.47,-76.96 207.47,-76.96 207.47,-76.96 211.21,-75.54 206.19,-73.59 214.95,-74.12 214.95,-74.12"/>
</a>
</g>
</g>
<!-- Node6&#45;&gt;Node5 -->
<g id="edge7_Node000006_Node000005" class="edge">
<title>Node6&#45;&gt;Node5</title>
<g id="a_edge7_Node000006_Node000005"><a xlink:title=" ">
<path fill="none" stroke="#63b8ff" d="M170.09,-219.98C154.02,-211.38 129.01,-197.99 110.62,-188.15"/>
<polygon fill="#63b8ff" stroke="#63b8ff" points="103.2,-184.17 111.95,-184.77 106.72,-186.06 110.25,-187.95 110.25,-187.95 110.25,-187.95 106.72,-186.06 108.55,-191.12 103.2,-184.17 103.2,-184.17"/>
</a>
</g>
</g>
<!-- Node7&#45;&gt;Node3 -->
<g id="edge9_Node000007_Node000003" class="edge">
<title>Node7&#45;&gt;Node3</title>
<g id="a_edge9_Node000007_Node000003"><a xlink:title=" ">
<path fill="none" stroke="#63b8ff" d="M473.26,-109.98C426.38,-100.64 351.17,-85.66 301.18,-75.7"/>
<polygon fill="#63b8ff" stroke="#63b8ff" points="293.07,-74.08 301.62,-72.11 297,-74.86 300.92,-75.65 300.92,-75.65 300.92,-75.65 297,-74.86 300.21,-79.18 293.07,-74.08 293.07,-74.08"/>
</a>
</g>
</g>
<!-- Node8 -->
<g id="Node000008" class="node">
<title>Node8</title>
<g id="a_Node000008"><a xlink:title=" ">
<polygon fill="#e0e0e0" stroke="#999999" points="685,-74 561,-74 561,-55 685,-55 685,-74"/>
<text text-anchor="middle" x="623" y="-62" font-family="Helvetica,sans-Serif" font-size="10.00">QBluetoothDeviceInfo</text>
</a>
</g>
</g>
<!-- Node7&#45;&gt;Node8 -->
<g id="edge10_Node000007_Node000008" class="edge">
<title>Node7&#45;&gt;Node8</title>
<g id="a_edge10_Node000007_Node000008"><a xlink:title=" ">
<path fill="none" stroke="#63b8ff" d="M533.19,-109.98C550.79,-101.27 578.32,-87.63 598.26,-77.75"/>
<polygon fill="#63b8ff" stroke="#63b8ff" points="605.5,-74.17 599.92,-80.95 601.91,-75.95 598.33,-77.72 598.33,-77.72 598.33,-77.72 601.91,-75.95 596.73,-74.5 605.5,-74.17 605.5,-74.17"/>
</a>
</g>
</g>
<!-- Node9 -->
<g id="Node000009" class="node">
<title>Node9</title>
<g id="a_Node000009"><a xlink:title=" ">
<polygon fill="#e0e0e0" stroke="#999999" points="471,-74 421,-74 421,-55 471,-55 471,-74"/>
<text text-anchor="middle" x="446" y="-62" font-family="Helvetica,sans-Serif" font-size="10.00">QFlags</text>
</a>
</g>
</g>
<!-- Node7&#45;&gt;Node9 -->
<g id="edge11_Node000007_Node000009" class="edge">
<title>Node7&#45;&gt;Node9</title>
<g id="a_edge11_Node000007_Node000009"><a xlink:title=" ">
<path fill="none" stroke="#63b8ff" d="M504.75,-109.98C493.8,-101.69 476.96,-88.94 464.11,-79.22"/>
<polygon fill="#63b8ff" stroke="#63b8ff" points="457.45,-74.17 466,-76.13 460.64,-76.58 463.83,-79 463.83,-79 463.83,-79 460.64,-76.58 461.66,-81.87 457.45,-74.17 457.45,-74.17"/>
</a>
</g>
</g>
<!-- Node10 -->
<g id="Node000010" class="node">
<title>Node10</title>
<g id="a_Node000010"><a xlink:title=" ">
<polygon fill="#e0e0e0" stroke="#999999" points="542.5,-74 489.5,-74 489.5,-55 542.5,-55 542.5,-74"/>
<text text-anchor="middle" x="516" y="-62" font-family="Helvetica,sans-Serif" font-size="10.00">QString</text>
</a>
</g>
</g>
<!-- Node7&#45;&gt;Node10 -->
<g id="edge12_Node000007_Node000010" class="edge">
<title>Node7&#45;&gt;Node10</title>
<g id="a_edge12_Node000007_Node000010"><a xlink:title=" ">
<path fill="none" stroke="#63b8ff" d="M516,-109.75C516,-102.26 516,-91.28 516,-82.13"/>
<polygon fill="#63b8ff" stroke="#63b8ff" points="516,-74.09 519.6,-82.09 516,-78.09 516,-82.09 516,-82.09 516,-82.09 516,-78.09 512.4,-82.09 516,-74.09 516,-74.09"/>
</a>
</g>
</g>
<!-- Node12 -->
<g id="Node000012" class="node">
<title>Node12</title>
<g id="a_Node000012"><a xlink:href="abstractpokitservice_8h.html" target="_top" xlink:title="Declares the AbstractPokitService class.">
<polygon fill="white" stroke="#666666" points="298.5,-184 173.5,-184 173.5,-165 298.5,-165 298.5,-184"/>
<text text-anchor="middle" x="236" y="-172" font-family="Helvetica,sans-Serif" font-size="10.00">abstractpokitservice.h</text>
</a>
</g>
</g>
<!-- Node11&#45;&gt;Node12 -->
<g id="edge14_Node000011_Node000012" class="edge">
<title>Node11&#45;&gt;Node12</title>
<g id="a_edge14_Node000011_Node000012"><a xlink:title=" ">
<path fill="none" stroke="#63b8ff" d="M439.96,-219.98C397.31,-210.68 328.99,-195.78 283.32,-185.82"/>
<polygon fill="#63b8ff" stroke="#63b8ff" points="275.35,-184.08 283.93,-182.27 279.26,-184.93 283.16,-185.79 283.16,-185.79 283.16,-185.79 279.26,-184.93 282.4,-189.3 275.35,-184.08 275.35,-184.08"/>
</a>
</g>
</g>
<!-- Node15 -->
<g id="Node000015" class="node">
<title>Node15</title>
<g id="a_Node000015"><a xlink:title=" ">
<polygon fill="#e0e0e0" stroke="#999999" points="657,-184 547,-184 547,-165 657,-165 657,-184"/>
<text text-anchor="middle" x="602" y="-172" font-family="Helvetica,sans-Serif" font-size="10.00">QBluetoothAddress</text>
</a>
</g>
</g>
<!-- Node11&#45;&gt;Node15 -->
<g id="edge19_Node000011_Node000015" class="edge">
<title>Node11&#45;&gt;Node15</title>
<g id="a_edge19_Node000011_Node000015"><a xlink:title=" ">
<path fill="none" stroke="#63b8ff" d="M498.76,-219.98C519.26,-211.15 551.48,-197.27 574.47,-187.36"/>
<polygon fill="#63b8ff" stroke="#63b8ff" points="581.88,-184.17 575.96,-190.64 578.2,-185.75 574.53,-187.34 574.53,-187.34 574.53,-187.34 578.2,-185.75 573.11,-184.03 581.88,-184.17 581.88,-184.17"/>
</a>
</g>
</g>
<!-- Node16 -->
<g id="Node000016" class="node">
<title>Node16</title>
<g id="a_Node000016"><a xlink:title=" ">
<polygon fill="#e0e0e0" stroke="#999999" points="411,-184 317,-184 317,-165 411,-165 411,-184"/>
<text text-anchor="middle" x="364" y="-172" font-family="Helvetica,sans-Serif" font-size="10.00">QBluetoothUuid</text>
</a>
</g>
</g>
<!-- Node11&#45;&gt;Node16 -->
<g id="edge20_Node000011_Node000016" class="edge">
<title>Node11&#45;&gt;Node16</title>
<g id="a_edge20_Node000011_Node000016"><a xlink:title=" ">
<path fill="none" stroke="#63b8ff" d="M460.52,-219.98C441.52,-211.23 411.76,-197.51 390.31,-187.62"/>
<polygon fill="#63b8ff" stroke="#63b8ff" points="382.81,-184.17 391.59,-184.25 386.45,-185.84 390.08,-187.52 390.08,-187.52 390.08,-187.52 386.45,-185.84 388.57,-190.79 382.81,-184.17 382.81,-184.17"/>
</a>
</g>
</g>
<!-- Node17 -->
<g id="Node000017" class="node">
<title>Node17</title>
<g id="a_Node000017"><a xlink:title=" ">
<polygon fill="#e0e0e0" stroke="#999999" points="528.5,-184 429.5,-184 429.5,-165 528.5,-165 528.5,-184"/>
<text text-anchor="middle" x="479" y="-172" font-family="Helvetica,sans-Serif" font-size="10.00">QVersionNumber</text>
</a>
</g>
</g>
<!-- Node11&#45;&gt;Node17 -->
<g id="edge21_Node000011_Node000017" class="edge">
<title>Node11&#45;&gt;Node17</title>
<g id="a_edge21_Node000011_Node000017"><a xlink:title=" ">
<path fill="none" stroke="#63b8ff" d="M479,-219.75C479,-212.26 479,-201.28 479,-192.13"/>
<polygon fill="#63b8ff" stroke="#63b8ff" points="479,-184.09 482.6,-192.09 479,-188.09 479,-192.09 479,-192.09 479,-192.09 479,-188.09 475.4,-192.09 479,-184.09 479,-184.09"/>
</a>
</g>
</g>
<!-- Node12&#45;&gt;Node3 -->
<g id="edge15_Node000012_Node000003" class="edge">
<title>Node12&#45;&gt;Node3</title>
<g id="a_edge15_Node000012_Node000003"><a xlink:title=" ">
<path fill="none" stroke="#63b8ff" d="M278.64,-164.99C313.6,-157.05 359.06,-144.16 370,-129 390.62,-100.42 346.21,-83.56 305.71,-74.48"/>
<polygon fill="#63b8ff" stroke="#63b8ff" points="297.68,-72.77 306.25,-70.92 301.59,-73.61 305.5,-74.44 305.5,-74.44 305.5,-74.44 301.59,-73.61 304.75,-77.96 297.68,-72.77 297.68,-72.77"/>
</a>
</g>
</g>
<!-- Node12&#45;&gt;Node7 -->
<g id="edge16_Node000012_Node000007" class="edge">
<title>Node12&#45;&gt;Node7</title>
<g id="a_edge16_Node000012_Node000007"><a xlink:title=" ">
<path fill="none" stroke="#63b8ff" d="M280.99,-164.98C330.54,-155.61 410.16,-140.53 462.78,-130.57"/>
<polygon fill="#63b8ff" stroke="#63b8ff" points="470.66,-129.08 463.47,-134.11 466.73,-129.83 462.8,-130.57 462.8,-130.57 462.8,-130.57 466.73,-129.83 462.13,-127.03 470.66,-129.08 470.66,-129.08"/>
</a>
</g>
</g>
<!-- Node13 -->
<g id="Node000013" class="node">
<title>Node13</title>
<g id="a_Node000013"><a xlink:title=" ">
<polygon fill="#e0e0e0" stroke="#999999" points="286.5,-129 173.5,-129 173.5,-110 286.5,-110 286.5,-129"/>
<text text-anchor="middle" x="230" y="-117" font-family="Helvetica,sans-Serif" font-size="10.00">QLowEnergyService</text>
</a>
</g>
</g>
<!-- Node12&#45;&gt;Node13 -->
<g id="edge17_Node000012_Node000013" class="edge">
<title>Node12&#45;&gt;Node13</title>
<g id="a_edge17_Node000012_Node000013"><a xlink:title=" ">
<path fill="none" stroke="#63b8ff" d="M235.01,-164.75C234.16,-157.26 232.92,-146.28 231.88,-137.13"/>
<polygon fill="#63b8ff" stroke="#63b8ff" points="230.97,-129.09 235.45,-136.63 231.42,-133.06 231.87,-137.04 231.87,-137.04 231.87,-137.04 231.42,-133.06 228.3,-137.44 230.97,-129.09 230.97,-129.09"/>
</a>
</g>
</g>
<!-- Node14 -->
<g id="Node000014" class="node">
<title>Node14</title>
<g id="a_Node000014"><a xlink:title=" ">
<polygon fill="#e0e0e0" stroke="#999999" points="361,-129 305,-129 305,-110 361,-110 361,-129"/>
<text text-anchor="middle" x="333" y="-117" font-family="Helvetica,sans-Serif" font-size="10.00">QObject</text>
</a>
</g>
</g>
<!-- Node12&#45;&gt;Node14 -->
<g id="edge18_Node000012_Node000014" class="edge">
<title>Node12&#45;&gt;Node14</title>
<g id="a_edge18_Node000012_Node000014"><a xlink:title=" ">
<path fill="none" stroke="#63b8ff" d="M251.58,-164.98C267.33,-156.38 291.84,-142.99 309.85,-133.15"/>
<polygon fill="#63b8ff" stroke="#63b8ff" points="317.13,-129.17 311.84,-136.17 313.62,-131.09 310.11,-133.01 310.11,-133.01 310.11,-133.01 313.62,-131.09 308.39,-129.85 317.13,-129.17 317.13,-129.17"/>
</a>
</g>
</g>
<!-- Node18&#45;&gt;Node7 -->
<g id="edge23_Node000018_Node000007" class="edge">
<title>Node18&#45;&gt;Node7</title>
<g id="a_edge23_Node000018_Node000007"><a xlink:title=" ">
<path fill="none" stroke="#63b8ff" d="M758.36,-219.6C747.52,-205.73 724.64,-179.09 699,-165 665.44,-146.56 624.29,-135.68 589.51,-129.3"/>
<polygon fill="#63b8ff" stroke="#63b8ff" points="581.28,-127.85 589.78,-125.7 585.22,-128.55 589.16,-129.24 589.16,-129.24 589.16,-129.24 585.22,-128.55 588.53,-132.79 581.28,-127.85 581.28,-127.85"/>
</a>
</g>
</g>
<!-- Node19 -->
<g id="Node000019" class="node">
<title>Node19</title>
<g id="a_Node000019"><a xlink:title=" ">
<polygon fill="#e0e0e0" stroke="#999999" points="876.5,-184 751.5,-184 751.5,-165 876.5,-165 876.5,-184"/>
<text text-anchor="middle" x="814" y="-172" font-family="Helvetica,sans-Serif" font-size="10.00">QLowEnergyController</text>
</a>
</g>
</g>
<!-- Node18&#45;&gt;Node19 -->
<g id="edge24_Node000018_Node000019" class="edge">
<title>Node18&#45;&gt;Node19</title>
<g id="a_edge24_Node000018_Node000019"><a xlink:title=" ">
<path fill="none" stroke="#63b8ff" d="M773.09,-219.75C780.51,-211.72 791.65,-199.67 800.43,-190.18"/>
<polygon fill="#63b8ff" stroke="#63b8ff" points="806.06,-184.09 803.27,-192.41 803.34,-187.03 800.63,-189.96 800.63,-189.96 800.63,-189.96 803.34,-187.03 797.98,-187.52 806.06,-184.09 806.06,-184.09"/>
</a>
</g>
</g>
</g>
</svg>
