<?xml version="1.0" encoding="UTF-8" standalone="no"?>
<!DOCTYPE svg PUBLIC "-//W3C//DTD SVG 1.1//EN"
 "http://www.w3.org/Graphics/SVG/1.1/DTD/svg11.dtd">
<!-- Generated by graphviz version 2.43.0 (0)
 -->
<!-- Title: isPokitProduct Pages: 1 -->
<svg width="672pt" height="186pt"
 viewBox="0.00 0.00 672.00 186.07" xmlns="http://www.w3.org/2000/svg" xmlns:xlink="http://www.w3.org/1999/xlink">
<g id="graph0" class="graph" transform="scale(1 1) rotate(0) translate(4 182.07)">
<title>isPokitProduct</title>
<!-- Node1 -->
<g id="Node000001" class="node">
<title>Node1</title>
<g id="a_Node000001"><a xlink:title="Returns true if info describes a Pokit device.">
<polygon fill="#999999" stroke="#666666" points="664,-86 578,-86 578,-67 664,-67 664,-86"/>
<text text-anchor="middle" x="621" y="-74" font-family="Helvetica,sans-Serif" font-size="10.00">isPokitProduct</text>
</a>
</g>
</g>
<!-- Node1&#45;&gt;Node1 -->
<g id="edge12_Node000001_Node000001" class="edge">
<title>Node1&#45;&gt;Node1</title>
<g id="a_edge12_Node000001_Node000001"><a xlink:title=" ">
<path fill="none" stroke="#63b8ff" d="M649.75,-92.53C651.11,-98.79 641.53,-104 621,-104 593.63,-104 585.72,-94.73 597.26,-86.08"/>
<polygon fill="#63b8ff" stroke="#63b8ff" points="644.74,-86.08 652.49,-90.19 647.19,-89.24 649.64,-92.4 649.64,-92.4 649.64,-92.4 647.19,-89.24 646.8,-94.61 644.74,-86.08 644.74,-86.08"/>
</a>
</g>
</g>
<!-- Node2 -->
<g id="Node000002" class="node">
<title>Node2</title>
<g id="a_Node000002"><a xlink:href="classAbstractPokitServicePrivate.html#a2b105802085225fe68254dfdb6754ad9" target="_top" xlink:title="Creates an internal service object from the internal controller.">
<polygon fill="white" stroke="#666666" points="541.5,-163.5 389.5,-163.5 389.5,-133.5 541.5,-133.5 541.5,-163.5"/>
<text text-anchor="start" x="397.5" y="-151.5" font-family="Helvetica,sans-Serif" font-size="10.00">AbstractPokitServicePrivate</text>
<text text-anchor="middle" x="465.5" y="-140.5" font-family="Helvetica,sans-Serif" font-size="10.00">::createServiceObject</text>
</a>
</g>
</g>
<!-- Node1&#45;&gt;Node2 -->
<g id="edge1_Node000001_Node000002" class="edge">
<title>Node1&#45;&gt;Node2</title>
<g id="a_edge1_Node000001_Node000002"><a xlink:title=" ">
<path fill="none" stroke="#63b8ff" d="M599.8,-90.84C584.48,-101.23 562.62,-115.05 542,-124.5 534.87,-127.77 527.18,-130.77 519.52,-133.46"/>
<polygon fill="#63b8ff" stroke="#63b8ff" points="606.75,-86.05 602.21,-93.55 603.46,-88.32 600.16,-90.59 600.16,-90.59 600.16,-90.59 603.46,-88.32 598.12,-87.62 606.75,-86.05 606.75,-86.05"/>
</a>
</g>
</g>
<!-- Node7 -->
<g id="Node000007" class="node">
<title>Node7</title>
<g id="a_Node000007"><a xlink:href="classPokitDiscoveryAgentPrivate.html#af96c8bec6557e8ac44006081a7f82caf" target="_top" xlink:title="Handle deviceDiscovered signals.">
<polygon fill="white" stroke="#666666" points="542,-115.5 389,-115.5 389,-85.5 542,-85.5 542,-115.5"/>
<text text-anchor="start" x="397" y="-103.5" font-family="Helvetica,sans-Serif" font-size="10.00">PokitDiscoveryAgentPrivate</text>
<text text-anchor="middle" x="465.5" y="-92.5" font-family="Helvetica,sans-Serif" font-size="10.00">::deviceDiscovered</text>
</a>
</g>
</g>
<!-- Node1&#45;&gt;Node7 -->
<g id="edge8_Node000001_Node000007" class="edge">
<title>Node1&#45;&gt;Node7</title>
<g id="a_edge8_Node000001_Node000007"><a xlink:title=" ">
<path fill="none" stroke="#63b8ff" d="M569.73,-84.36C560.93,-85.74 551.6,-87.19 542.29,-88.65"/>
<polygon fill="#63b8ff" stroke="#63b8ff" points="577.65,-83.12 570.3,-87.91 573.7,-83.74 569.75,-84.36 569.75,-84.36 569.75,-84.36 573.7,-83.74 569.19,-80.8 577.65,-83.12 577.65,-83.12"/>
</a>
</g>
</g>
<!-- Node9 -->
<g id="Node000009" class="node">
<title>Node9</title>
<g id="a_Node000009"><a xlink:href="classPokitDiscoveryAgentPrivate.html#afc40fda129c4f54986bf8c31fd803fb6" target="_top" xlink:title="Handle deviceUpdated signals.">
<polygon fill="white" stroke="#666666" points="542,-67.5 389,-67.5 389,-37.5 542,-37.5 542,-67.5"/>
<text text-anchor="start" x="397" y="-55.5" font-family="Helvetica,sans-Serif" font-size="10.00">PokitDiscoveryAgentPrivate</text>
<text text-anchor="middle" x="465.5" y="-44.5" font-family="Helvetica,sans-Serif" font-size="10.00">::deviceUpdated</text>
</a>
</g>
</g>
<!-- Node1&#45;&gt;Node9 -->
<g id="edge10_Node000001_Node000009" class="edge">
<title>Node1&#45;&gt;Node9</title>
<g id="a_edge10_Node000001_Node000009"><a xlink:title=" ">
<path fill="none" stroke="#63b8ff" d="M569.73,-68.64C560.93,-67.26 551.6,-65.81 542.29,-64.35"/>
<polygon fill="#63b8ff" stroke="#63b8ff" points="577.65,-69.88 569.19,-72.2 573.7,-69.26 569.75,-68.64 569.75,-68.64 569.75,-68.64 573.7,-69.26 570.3,-65.09 577.65,-69.88 577.65,-69.88"/>
</a>
</g>
</g>
<!-- Node10 -->
<g id="Node000010" class="node">
<title>Node10</title>
<g id="a_Node000010"><a xlink:href="pokitproducts_8cpp.html#a1e8475fe32ea6fbcbb0bd795448d43c8" target="_top" xlink:title="Returns true if controller describes a Pokit device.">
<polygon fill="white" stroke="#666666" points="508.5,-19 422.5,-19 422.5,0 508.5,0 508.5,-19"/>
<text text-anchor="middle" x="465.5" y="-7" font-family="Helvetica,sans-Serif" font-size="10.00">isPokitProduct</text>
</a>
</g>
</g>
<!-- Node1&#45;&gt;Node10 -->
<g id="edge13_Node000001_Node000010" class="edge">
<title>Node1&#45;&gt;Node10</title>
<g id="a_edge13_Node000001_Node000010"><a xlink:title=" ">
<path fill="none" stroke="#63b8ff" d="M600.23,-61.98C584.99,-51.38 563.03,-37.37 542,-28.5 531.54,-24.09 519.81,-20.53 508.78,-17.73"/>
<polygon fill="#63b8ff" stroke="#63b8ff" points="607.14,-66.87 598.53,-65.19 603.88,-64.56 600.62,-62.25 600.62,-62.25 600.62,-62.25 603.88,-64.56 602.7,-59.31 607.14,-66.87 607.14,-66.87"/>
</a>
</g>
</g>
<!-- Node3 -->
<g id="Node000003" class="node">
<title>Node3</title>
<g id="a_Node000003"><a xlink:href="classAbstractPokitServicePrivate.html#a73d4b6cd1a53f997f78d1c266a1c1871" target="_top" xlink:title=" ">
<polygon fill="white" stroke="#666666" points="158,-163.5 0,-163.5 0,-133.5 158,-133.5 158,-163.5"/>
<text text-anchor="start" x="8" y="-151.5" font-family="Helvetica,sans-Serif" font-size="10.00">AbstractPokitServicePrivate</text>
<text text-anchor="middle" x="79" y="-140.5" font-family="Helvetica,sans-Serif" font-size="10.00">::AbstractPokitServicePrivate</text>
</a>
</g>
</g>
<!-- Node2&#45;&gt;Node3 -->
<g id="edge2_Node000002_Node000003" class="edge">
<title>Node2&#45;&gt;Node3</title>
<g id="a_edge2_Node000002_Node000003"><a xlink:title=" ">
<path fill="none" stroke="#63b8ff" d="M397.81,-165.26C383.14,-168.27 367.62,-170.94 353,-172.5 282.73,-179.98 264.29,-179.82 194,-172.5 176.3,-170.66 157.29,-167.24 139.98,-163.56"/>
<polygon fill="#63b8ff" stroke="#63b8ff" points="405.85,-163.56 398.77,-168.74 401.94,-164.39 398.03,-165.22 398.03,-165.22 398.03,-165.22 401.94,-164.39 397.28,-161.69 405.85,-163.56 405.85,-163.56"/>
</a>
</g>
</g>
<!-- Node4 -->
<g id="Node000004" class="node">
<title>Node4</title>
<g id="a_Node000004"><a xlink:href="classAbstractPokitServicePrivate.html#a2cc16a897908f50e0f3cfc6b876b50ab" target="_top" xlink:title="Handles QLowEnergyController::discoveryFinished events.">
<polygon fill="white" stroke="#666666" points="349.5,-163.5 197.5,-163.5 197.5,-133.5 349.5,-133.5 349.5,-163.5"/>
<text text-anchor="start" x="205.5" y="-151.5" font-family="Helvetica,sans-Serif" font-size="10.00">AbstractPokitServicePrivate</text>
<text text-anchor="middle" x="273.5" y="-140.5" font-family="Helvetica,sans-Serif" font-size="10.00">::discoveryFinished</text>
</a>
</g>
</g>
<!-- Node2&#45;&gt;Node4 -->
<g id="edge3_Node000002_Node000004" class="edge">
<title>Node2&#45;&gt;Node4</title>
<g id="a_edge3_Node000002_Node000004"><a xlink:title=" ">
<path fill="none" stroke="#63b8ff" d="M381.39,-148.5C370.84,-148.5 360.09,-148.5 349.67,-148.5"/>
<polygon fill="#63b8ff" stroke="#63b8ff" points="389.41,-148.5 381.41,-152.1 385.41,-148.5 381.41,-148.5 381.41,-148.5 381.41,-148.5 385.41,-148.5 381.41,-144.9 389.41,-148.5 389.41,-148.5"/>
</a>
</g>
</g>
<!-- Node5 -->
<g id="Node000005" class="node">
<title>Node5</title>
<g id="a_Node000005"><a xlink:href="classAbstractPokitServicePrivate.html#a654255854b4aca7718ef30e10260d89b" target="_top" xlink:title="Handles QLowEnergyController::serviceDiscovered events.">
<polygon fill="white" stroke="#666666" points="349.5,-115.5 197.5,-115.5 197.5,-85.5 349.5,-85.5 349.5,-115.5"/>
<text text-anchor="start" x="205.5" y="-103.5" font-family="Helvetica,sans-Serif" font-size="10.00">AbstractPokitServicePrivate</text>
<text text-anchor="middle" x="273.5" y="-92.5" font-family="Helvetica,sans-Serif" font-size="10.00">::serviceDiscovered</text>
</a>
</g>
</g>
<!-- Node2&#45;&gt;Node5 -->
<g id="edge5_Node000002_Node000005" class="edge">
<title>Node2&#45;&gt;Node5</title>
<g id="a_edge5_Node000002_Node000005"><a xlink:title=" ">
<path fill="none" stroke="#63b8ff" d="M397.1,-131.47C376.47,-126.26 353.94,-120.57 333.88,-115.5"/>
<polygon fill="#63b8ff" stroke="#63b8ff" points="404.9,-133.44 396.27,-134.97 401.03,-132.46 397.15,-131.48 397.15,-131.48 397.15,-131.48 401.03,-132.46 398.03,-127.99 404.9,-133.44 404.9,-133.44"/>
</a>
</g>
</g>
<!-- Node4&#45;&gt;Node3 -->
<g id="edge4_Node000004_Node000003" class="edge">
<title>Node4&#45;&gt;Node3</title>
<g id="a_edge4_Node000004_Node000003"><a xlink:title=" ">
<path fill="none" stroke="#63b8ff" d="M189.05,-148.5C178.75,-148.5 168.26,-148.5 158.06,-148.5"/>
<polygon fill="#63b8ff" stroke="#63b8ff" points="197.25,-148.5 189.25,-152.1 193.25,-148.5 189.25,-148.5 189.25,-148.5 189.25,-148.5 193.25,-148.5 189.25,-144.9 197.25,-148.5 197.25,-148.5"/>
</a>
</g>
</g>
<!-- Node5&#45;&gt;Node3 -->
<g id="edge6_Node000005_Node000003" class="edge">
<title>Node5&#45;&gt;Node3</title>
<g id="a_edge6_Node000005_Node000003"><a xlink:title=" ">
<path fill="none" stroke="#63b8ff" d="M204.21,-117.53C183.31,-122.74 160.48,-128.43 140.17,-133.5"/>
<polygon fill="#63b8ff" stroke="#63b8ff" points="212.12,-115.56 205.23,-120.98 208.24,-116.52 204.36,-117.49 204.36,-117.49 204.36,-117.49 208.24,-116.52 203.49,-114 212.12,-115.56 212.12,-115.56"/>
</a>
</g>
</g>
<!-- Node6 -->
<g id="Node000006" class="node">
<title>Node6</title>
<g id="a_Node000006"><a xlink:href="classStatusServicePrivate.html#a416f4b2a7e342c39fd667bcf324b4ea4" target="_top" xlink:title="Handles QLowEnergyController::serviceDiscovered events.">
<polygon fill="white" stroke="#666666" points="138,-115.5 20,-115.5 20,-85.5 138,-85.5 138,-115.5"/>
<text text-anchor="start" x="28" y="-103.5" font-family="Helvetica,sans-Serif" font-size="10.00">StatusServicePrivate</text>
<text text-anchor="middle" x="79" y="-92.5" font-family="Helvetica,sans-Serif" font-size="10.00">::serviceDiscovered</text>
</a>
</g>
</g>
<!-- Node5&#45;&gt;Node6 -->
<g id="edge7_Node000005_Node000006" class="edge">
<title>Node5&#45;&gt;Node6</title>
<g id="a_edge7_Node000005_Node000006"><a xlink:title=" ">
<path fill="none" stroke="#63b8ff" d="M188.91,-100.5C171.82,-100.5 154.18,-100.5 138.21,-100.5"/>
<polygon fill="#63b8ff" stroke="#63b8ff" points="197.25,-100.5 189.25,-104.1 193.25,-100.5 189.25,-100.5 189.25,-100.5 189.25,-100.5 193.25,-100.5 189.25,-96.9 197.25,-100.5 197.25,-100.5"/>
</a>
</g>
</g>
<!-- Node8 -->
<g id="Node000008" class="node">
<title>Node8</title>
<g id="a_Node000008"><a xlink:href="classPokitDiscoveryAgentPrivate.html#a0efe6e89767d8c982d181aee05f3f392" target="_top" xlink:title=" ">
<polygon fill="white" stroke="#666666" points="353,-67.5 194,-67.5 194,-37.5 353,-37.5 353,-67.5"/>
<text text-anchor="start" x="202" y="-55.5" font-family="Helvetica,sans-Serif" font-size="10.00">PokitDiscoveryAgentPrivate</text>
<text text-anchor="middle" x="273.5" y="-44.5" font-family="Helvetica,sans-Serif" font-size="10.00">::PokitDiscoveryAgentPrivate</text>
</a>
</g>
</g>
<!-- Node7&#45;&gt;Node8 -->
<g id="edge9_Node000007_Node000008" class="edge">
<title>Node7&#45;&gt;Node8</title>
<g id="a_edge9_Node000007_Node000008"><a xlink:title=" ">
<path fill="none" stroke="#63b8ff" d="M397.1,-83.47C376.47,-78.26 353.94,-72.57 333.88,-67.5"/>
<polygon fill="#63b8ff" stroke="#63b8ff" points="404.9,-85.44 396.27,-86.97 401.03,-84.46 397.15,-83.48 397.15,-83.48 397.15,-83.48 401.03,-84.46 398.03,-79.99 404.9,-85.44 404.9,-85.44"/>
</a>
</g>
</g>
<!-- Node9&#45;&gt;Node8 -->
<g id="edge11_Node000009_Node000008" class="edge">
<title>Node9&#45;&gt;Node8</title>
<g id="a_edge11_Node000009_Node000008"><a xlink:title=" ">
<path fill="none" stroke="#63b8ff" d="M380.86,-52.5C371.7,-52.5 362.4,-52.5 353.3,-52.5"/>
<polygon fill="#63b8ff" stroke="#63b8ff" points="388.86,-52.5 380.86,-56.1 384.86,-52.5 380.86,-52.5 380.86,-52.5 380.86,-52.5 384.86,-52.5 380.86,-48.9 388.86,-52.5 388.86,-52.5"/>
</a>
</g>
</g>
</g>
</svg>
