<?xml version="1.0" encoding="UTF-8" standalone="no"?>
<!DOCTYPE svg PUBLIC "-//W3C//DTD SVG 1.1//EN"
 "http://www.w3.org/Graphics/SVG/1.1/DTD/svg11.dtd">
<!-- Generated by graphviz version 2.43.0 (0)
 -->
<!-- Title: pokitmeter.h Pages: 1 -->
<svg width="1489pt" height="192pt"
 viewBox="0.00 0.00 1489.00 192.00" xmlns="http://www.w3.org/2000/svg" xmlns:xlink="http://www.w3.org/1999/xlink">
<g id="graph0" class="graph" transform="scale(1 1) rotate(0) translate(4 188)">
<title>pokitmeter.h</title>
<!-- Node1 -->
<g id="Node000001" class="node">
<title>Node1</title>
<g id="a_Node000001"><a xlink:title="Declares the PokitMeter namespace.">
<polygon fill="#999999" stroke="#666666" points="1165,-184 1086,-184 1086,-165 1165,-165 1165,-184"/>
<text text-anchor="middle" x="1125.5" y="-172" font-family="Helvetica,sans-Serif" font-size="10.00">pokitmeter.h</text>
</a>
</g>
</g>
<!-- Node2 -->
<g id="Node000002" class="node">
<title>Node2</title>
<g id="a_Node000002"><a xlink:href="devicecommand_8h_source.html" target="_top" xlink:title=" ">
<polygon fill="white" stroke="#666666" points="833,-129 726,-129 726,-110 833,-110 833,-129"/>
<text text-anchor="middle" x="779.5" y="-117" font-family="Helvetica,sans-Serif" font-size="10.00">devicecommand.h</text>
</a>
</g>
</g>
<!-- Node1&#45;&gt;Node2 -->
<g id="edge1_Node000001_Node000002" class="edge">
<title>Node1&#45;&gt;Node2</title>
<g id="a_edge1_Node000001_Node000002"><a xlink:title=" ">
<path fill="none" stroke="#63b8ff" d="M1077.87,-166.2C1013.79,-156.39 900.15,-138.98 833.13,-128.72"/>
<polygon fill="#63b8ff" stroke="#63b8ff" points="1085.81,-167.42 1077.36,-169.77 1081.86,-166.81 1077.9,-166.21 1077.9,-166.21 1077.9,-166.21 1081.86,-166.81 1078.45,-162.65 1085.81,-167.42 1085.81,-167.42"/>
</a>
</g>
</g>
<!-- Node7 -->
<g id="Node000007" class="node">
<title>Node7</title>
<g id="a_Node000007"><a xlink:href="dsocommand_8h_source.html" target="_top" xlink:title=" ">
<polygon fill="white" stroke="#666666" points="97.5,-74 5.5,-74 5.5,-55 97.5,-55 97.5,-74"/>
<text text-anchor="middle" x="51.5" y="-62" font-family="Helvetica,sans-Serif" font-size="10.00">dsocommand.h</text>
</a>
</g>
</g>
<!-- Node1&#45;&gt;Node7 -->
<g id="edge33_Node000001_Node000007" class="edge">
<title>Node1&#45;&gt;Node7</title>
<g id="a_edge33_Node000001_Node000007"><a xlink:title=" ">
<path fill="none" stroke="#63b8ff" d="M1077.21,-169.75C930.81,-158.18 479.13,-120.95 106.5,-74 103.62,-73.64 100.67,-73.24 97.69,-72.83"/>
<polygon fill="#63b8ff" stroke="#63b8ff" points="1085.59,-170.41 1077.34,-173.37 1081.61,-170.1 1077.62,-169.78 1077.62,-169.78 1077.62,-169.78 1081.61,-170.1 1077.9,-166.19 1085.59,-170.41 1085.59,-170.41"/>
</a>
</g>
</g>
<!-- Node15 -->
<g id="Node000015" class="node">
<title>Node15</title>
<g id="a_Node000015"><a xlink:href="loggerstartcommand_8h_source.html" target="_top" xlink:title=" ">
<polygon fill="white" stroke="#666666" points="1308.5,-74 1180.5,-74 1180.5,-55 1308.5,-55 1308.5,-74"/>
<text text-anchor="middle" x="1244.5" y="-62" font-family="Helvetica,sans-Serif" font-size="10.00">loggerstartcommand.h</text>
</a>
</g>
</g>
<!-- Node1&#45;&gt;Node15 -->
<g id="edge35_Node000001_Node000015" class="edge">
<title>Node1&#45;&gt;Node15</title>
<g id="a_edge35_Node000001_Node000015"><a xlink:title=" ">
<path fill="none" stroke="#63b8ff" d="M1115.5,-157.51C1108.3,-143.74 1101.47,-123.94 1111.5,-110 1122.35,-94.93 1167.47,-82.03 1202.18,-74.05"/>
<polygon fill="#63b8ff" stroke="#63b8ff" points="1119.66,-164.83 1112.58,-159.65 1117.68,-161.35 1115.71,-157.87 1115.71,-157.87 1115.71,-157.87 1117.68,-161.35 1118.84,-156.1 1119.66,-164.83 1119.66,-164.83"/>
</a>
</g>
</g>
<!-- Node19 -->
<g id="Node000019" class="node">
<title>Node19</title>
<g id="a_Node000019"><a xlink:href="metercommand_8h_source.html" target="_top" xlink:title=" ">
<polygon fill="white" stroke="#666666" points="1430.5,-74 1326.5,-74 1326.5,-55 1430.5,-55 1430.5,-74"/>
<text text-anchor="middle" x="1378.5" y="-62" font-family="Helvetica,sans-Serif" font-size="10.00">metercommand.h</text>
</a>
</g>
</g>
<!-- Node1&#45;&gt;Node19 -->
<g id="edge36_Node000001_Node000019" class="edge">
<title>Node1&#45;&gt;Node19</title>
<g id="a_edge36_Node000001_Node000019"><a xlink:title=" ">
<path fill="none" stroke="#63b8ff" d="M1126.21,-156.46C1127.76,-141.98 1132.34,-121.71 1145.5,-110 1152.28,-103.97 1260.16,-85.15 1326.73,-74.01"/>
<polygon fill="#63b8ff" stroke="#63b8ff" points="1125.59,-164.61 1122.61,-156.36 1125.89,-160.62 1126.2,-156.63 1126.2,-156.63 1126.2,-156.63 1125.89,-160.62 1129.79,-156.91 1125.59,-164.61 1125.59,-164.61"/>
</a>
</g>
</g>
<!-- Node25 -->
<g id="Node000025" class="node">
<title>Node25</title>
<g id="a_Node000025"><a xlink:href="dsoservice_8cpp.html" target="_top" xlink:title="Defines the DsoService and DsoServicePrivate classes.">
<polygon fill="white" stroke="#666666" points="1243,-129 1154,-129 1154,-110 1243,-110 1243,-129"/>
<text text-anchor="middle" x="1198.5" y="-117" font-family="Helvetica,sans-Serif" font-size="10.00">dsoservice.cpp</text>
</a>
</g>
</g>
<!-- Node1&#45;&gt;Node25 -->
<g id="edge34_Node000001_Node000025" class="edge">
<title>Node1&#45;&gt;Node25</title>
<g id="a_edge34_Node000001_Node000025"><a xlink:title=" ">
<path fill="none" stroke="#63b8ff" d="M1143.77,-160.23C1157.16,-150.51 1174.95,-137.6 1186.56,-129.17"/>
<polygon fill="#63b8ff" stroke="#63b8ff" points="1137.23,-164.98 1141.59,-157.37 1140.47,-162.63 1143.7,-160.28 1143.7,-160.28 1143.7,-160.28 1140.47,-162.63 1145.82,-163.2 1137.23,-164.98 1137.23,-164.98"/>
</a>
</g>
</g>
<!-- Node26 -->
<g id="Node000026" class="node">
<title>Node26</title>
<g id="a_Node000026"><a xlink:href="pokitmeter_8cpp.html" target="_top" xlink:title="Declares the PokitMeter namespace.">
<polygon fill="white" stroke="#666666" points="1351.5,-129 1261.5,-129 1261.5,-110 1351.5,-110 1351.5,-129"/>
<text text-anchor="middle" x="1306.5" y="-117" font-family="Helvetica,sans-Serif" font-size="10.00">pokitmeter.cpp</text>
</a>
</g>
</g>
<!-- Node1&#45;&gt;Node26 -->
<g id="edge37_Node000001_Node000026" class="edge">
<title>Node1&#45;&gt;Node26</title>
<g id="a_edge37_Node000001_Node000026"><a xlink:title=" ">
<path fill="none" stroke="#63b8ff" d="M1162.42,-162.69C1196.33,-152.76 1245.92,-138.24 1277.19,-129.08"/>
<polygon fill="#63b8ff" stroke="#63b8ff" points="1154.58,-164.98 1161.25,-159.28 1158.42,-163.86 1162.26,-162.74 1162.26,-162.74 1162.26,-162.74 1158.42,-163.86 1163.27,-166.19 1154.58,-164.98 1154.58,-164.98"/>
</a>
</g>
</g>
<!-- Node27 -->
<g id="Node000027" class="node">
<title>Node27</title>
<g id="a_Node000027"><a xlink:href="pokitproducts_8cpp.html" target="_top" xlink:title="Defines the PokitProduct helper functions.">
<polygon fill="white" stroke="#666666" points="1473.5,-129 1369.5,-129 1369.5,-110 1473.5,-110 1473.5,-129"/>
<text text-anchor="middle" x="1421.5" y="-117" font-family="Helvetica,sans-Serif" font-size="10.00">pokitproducts.cpp</text>
</a>
</g>
</g>
<!-- Node1&#45;&gt;Node27 -->
<g id="edge38_Node000001_Node000027" class="edge">
<title>Node1&#45;&gt;Node27</title>
<g id="a_edge38_Node000001_Node000027"><a xlink:title=" ">
<path fill="none" stroke="#63b8ff" d="M1173.32,-164.94C1228.5,-155.06 1318.68,-138.91 1373.8,-129.04"/>
<polygon fill="#63b8ff" stroke="#63b8ff" points="1165.11,-166.41 1172.35,-161.45 1169.05,-165.7 1172.99,-165 1172.99,-165 1172.99,-165 1169.05,-165.7 1173.62,-168.54 1165.11,-166.41 1165.11,-166.41"/>
</a>
</g>
</g>
<!-- Node3 -->
<g id="Node000003" class="node">
<title>Node3</title>
<g id="a_Node000003"><a xlink:href="calibratecommand_8h_source.html" target="_top" xlink:title=" ">
<polygon fill="white" stroke="#666666" points="629,-74 512,-74 512,-55 629,-55 629,-74"/>
<text text-anchor="middle" x="570.5" y="-62" font-family="Helvetica,sans-Serif" font-size="10.00">calibratecommand.h</text>
</a>
</g>
</g>
<!-- Node2&#45;&gt;Node3 -->
<g id="edge2_Node000002_Node000003" class="edge">
<title>Node2&#45;&gt;Node3</title>
<g id="a_edge2_Node000002_Node000003"><a xlink:title=" ">
<path fill="none" stroke="#63b8ff" d="M737.86,-107.94C698.68,-98.01 640.75,-83.31 604.34,-74.08"/>
<polygon fill="#63b8ff" stroke="#63b8ff" points="745.92,-109.98 737.28,-111.51 742.04,-109 738.17,-108.02 738.17,-108.02 738.17,-108.02 742.04,-109 739.05,-104.53 745.92,-109.98 745.92,-109.98"/>
</a>
</g>
</g>
<!-- Node6 -->
<g id="Node000006" class="node">
<title>Node6</title>
<g id="a_Node000006"><a xlink:href="devicecommand_8cpp_source.html" target="_top" xlink:title=" ">
<polygon fill="white" stroke="#666666" points="233.5,-74 115.5,-74 115.5,-55 233.5,-55 233.5,-74"/>
<text text-anchor="middle" x="174.5" y="-62" font-family="Helvetica,sans-Serif" font-size="10.00">devicecommand.cpp</text>
</a>
</g>
</g>
<!-- Node2&#45;&gt;Node6 -->
<g id="edge5_Node000002_Node000006" class="edge">
<title>Node2&#45;&gt;Node6</title>
<g id="a_edge5_Node000002_Node000006"><a xlink:title=" ">
<path fill="none" stroke="#63b8ff" d="M717.51,-114.21C617.46,-107.09 414.23,-91.84 242.5,-74 239.66,-73.7 236.75,-73.39 233.82,-73.06"/>
<polygon fill="#63b8ff" stroke="#63b8ff" points="725.7,-114.79 717.46,-117.81 721.71,-114.5 717.72,-114.22 717.72,-114.22 717.72,-114.22 721.71,-114.5 717.97,-110.63 725.7,-114.79 725.7,-114.79"/>
</a>
</g>
</g>
<!-- Node2&#45;&gt;Node7 -->
<g id="edge6_Node000002_Node000007" class="edge">
<title>Node2&#45;&gt;Node7</title>
<g id="a_edge6_Node000002_Node000007"><a xlink:title=" ">
<path fill="none" stroke="#63b8ff" d="M717.41,-116.21C598.54,-111.42 330.7,-98.69 106.5,-74 103.62,-73.68 100.66,-73.32 97.67,-72.94"/>
<polygon fill="#63b8ff" stroke="#63b8ff" points="725.71,-116.54 717.57,-119.82 721.71,-116.38 717.72,-116.22 717.72,-116.22 717.72,-116.22 721.71,-116.38 717.86,-112.62 725.71,-116.54 725.71,-116.54"/>
</a>
</g>
</g>
<!-- Node9 -->
<g id="Node000009" class="node">
<title>Node9</title>
<g id="a_Node000009"><a xlink:href="flashledcommand_8h_source.html" target="_top" xlink:title=" ">
<polygon fill="white" stroke="#666666" points="905,-74 792,-74 792,-55 905,-55 905,-74"/>
<text text-anchor="middle" x="848.5" y="-62" font-family="Helvetica,sans-Serif" font-size="10.00">flashledcommand.h</text>
</a>
</g>
</g>
<!-- Node2&#45;&gt;Node9 -->
<g id="edge9_Node000002_Node000009" class="edge">
<title>Node2&#45;&gt;Node9</title>
<g id="a_edge9_Node000002_Node000009"><a xlink:title=" ">
<path fill="none" stroke="#63b8ff" d="M797.12,-104.97C809.73,-95.28 826.34,-82.52 837.21,-74.17"/>
<polygon fill="#63b8ff" stroke="#63b8ff" points="790.59,-109.98 794.74,-102.26 793.76,-107.55 796.93,-105.11 796.93,-105.11 796.93,-105.11 793.76,-107.55 799.12,-107.97 790.59,-109.98 790.59,-109.98"/>
</a>
</g>
</g>
<!-- Node11 -->
<g id="Node000011" class="node">
<title>Node11</title>
<g id="a_Node000011"><a xlink:href="infocommand_8h_source.html" target="_top" xlink:title=" ">
<polygon fill="white" stroke="#666666" points="345,-74 252,-74 252,-55 345,-55 345,-74"/>
<text text-anchor="middle" x="298.5" y="-62" font-family="Helvetica,sans-Serif" font-size="10.00">infocommand.h</text>
</a>
</g>
</g>
<!-- Node2&#45;&gt;Node11 -->
<g id="edge12_Node000002_Node000011" class="edge">
<title>Node2&#45;&gt;Node11</title>
<g id="a_edge12_Node000002_Node000011"><a xlink:title=" ">
<path fill="none" stroke="#63b8ff" d="M717.69,-112.93C634.88,-105.27 483.4,-90.52 354.5,-74 351.48,-73.61 348.36,-73.19 345.23,-72.76"/>
<polygon fill="#63b8ff" stroke="#63b8ff" points="725.74,-113.68 717.44,-116.53 721.75,-113.31 717.77,-112.94 717.77,-112.94 717.77,-112.94 721.75,-113.31 718.1,-109.36 725.74,-113.68 725.74,-113.68"/>
</a>
</g>
</g>
<!-- Node13 -->
<g id="Node000013" class="node">
<title>Node13</title>
<g id="a_Node000013"><a xlink:href="loggerfetchcommand_8h_source.html" target="_top" xlink:title=" ">
<polygon fill="white" stroke="#666666" points="493.5,-74 363.5,-74 363.5,-55 493.5,-55 493.5,-74"/>
<text text-anchor="middle" x="428.5" y="-62" font-family="Helvetica,sans-Serif" font-size="10.00">loggerfetchcommand.h</text>
</a>
</g>
</g>
<!-- Node2&#45;&gt;Node13 -->
<g id="edge15_Node000002_Node000013" class="edge">
<title>Node2&#45;&gt;Node13</title>
<g id="a_edge15_Node000002_Node000013"><a xlink:title=" ">
<path fill="none" stroke="#63b8ff" d="M717.57,-109.15C651.7,-99.2 548.43,-83.61 484.8,-74"/>
<polygon fill="#63b8ff" stroke="#63b8ff" points="725.81,-110.39 717.36,-112.76 721.85,-109.8 717.9,-109.2 717.9,-109.2 717.9,-109.2 721.85,-109.8 718.44,-105.64 725.81,-110.39 725.81,-110.39"/>
</a>
</g>
</g>
<!-- Node2&#45;&gt;Node15 -->
<g id="edge18_Node000002_Node000015" class="edge">
<title>Node2&#45;&gt;Node15</title>
<g id="a_edge18_Node000002_Node000015"><a xlink:title=" ">
<path fill="none" stroke="#63b8ff" d="M841.29,-111.54C918.53,-102.83 1054.8,-87.42 1171.5,-74 1174.42,-73.66 1177.4,-73.32 1180.41,-72.97"/>
<polygon fill="#63b8ff" stroke="#63b8ff" points="833.08,-112.47 840.63,-107.99 837.06,-112.02 841.03,-111.57 841.03,-111.57 841.03,-111.57 837.06,-112.02 841.44,-115.15 833.08,-112.47 833.08,-112.47"/>
</a>
</g>
</g>
<!-- Node17 -->
<g id="Node000017" class="node">
<title>Node17</title>
<g id="a_Node000017"><a xlink:href="loggerstopcommand_8h_source.html" target="_top" xlink:title=" ">
<polygon fill="white" stroke="#666666" points="773.5,-74 647.5,-74 647.5,-55 773.5,-55 773.5,-74"/>
<text text-anchor="middle" x="710.5" y="-62" font-family="Helvetica,sans-Serif" font-size="10.00">loggerstopcommand.h</text>
</a>
</g>
</g>
<!-- Node2&#45;&gt;Node17 -->
<g id="edge21_Node000002_Node000017" class="edge">
<title>Node2&#45;&gt;Node17</title>
<g id="a_edge21_Node000002_Node000017"><a xlink:title=" ">
<path fill="none" stroke="#63b8ff" d="M761.88,-104.97C749.27,-95.28 732.66,-82.52 721.79,-74.17"/>
<polygon fill="#63b8ff" stroke="#63b8ff" points="768.41,-109.98 759.88,-107.97 765.24,-107.55 762.07,-105.11 762.07,-105.11 762.07,-105.11 765.24,-107.55 764.26,-102.26 768.41,-109.98 768.41,-109.98"/>
</a>
</g>
</g>
<!-- Node2&#45;&gt;Node19 -->
<g id="edge24_Node000002_Node000019" class="edge">
<title>Node2&#45;&gt;Node19</title>
<g id="a_edge24_Node000002_Node000019"><a xlink:title=" ">
<path fill="none" stroke="#63b8ff" d="M841.24,-114.52C941.38,-107.81 1145.35,-93.1 1317.5,-74 1320.37,-73.68 1323.31,-73.34 1326.28,-72.97"/>
<polygon fill="#63b8ff" stroke="#63b8ff" points="833.05,-115.07 840.79,-110.94 837.04,-114.8 841.03,-114.53 841.03,-114.53 841.03,-114.53 837.04,-114.8 841.27,-118.13 833.05,-115.07 833.05,-115.07"/>
</a>
</g>
</g>
<!-- Node21 -->
<g id="Node000021" class="node">
<title>Node21</title>
<g id="a_Node000021"><a xlink:href="setnamecommand_8h_source.html" target="_top" xlink:title=" ">
<polygon fill="white" stroke="#666666" points="1040,-74 923,-74 923,-55 1040,-55 1040,-74"/>
<text text-anchor="middle" x="981.5" y="-62" font-family="Helvetica,sans-Serif" font-size="10.00">setnamecommand.h</text>
</a>
</g>
</g>
<!-- Node2&#45;&gt;Node21 -->
<g id="edge27_Node000002_Node000021" class="edge">
<title>Node2&#45;&gt;Node21</title>
<g id="a_edge27_Node000002_Node000021"><a xlink:title=" ">
<path fill="none" stroke="#63b8ff" d="M819.75,-107.94C857.61,-98.01 913.6,-83.31 948.79,-74.08"/>
<polygon fill="#63b8ff" stroke="#63b8ff" points="811.95,-109.98 818.78,-104.47 815.82,-108.97 819.69,-107.95 819.69,-107.95 819.69,-107.95 815.82,-108.97 820.61,-111.44 811.95,-109.98 811.95,-109.98"/>
</a>
</g>
</g>
<!-- Node23 -->
<g id="Node000023" class="node">
<title>Node23</title>
<g id="a_Node000023"><a xlink:href="statuscommand_8h_source.html" target="_top" xlink:title=" ">
<polygon fill="white" stroke="#666666" points="1162.5,-74 1058.5,-74 1058.5,-55 1162.5,-55 1162.5,-74"/>
<text text-anchor="middle" x="1110.5" y="-62" font-family="Helvetica,sans-Serif" font-size="10.00">statuscommand.h</text>
</a>
</g>
</g>
<!-- Node2&#45;&gt;Node23 -->
<g id="edge30_Node000002_Node000023" class="edge">
<title>Node2&#45;&gt;Node23</title>
<g id="a_edge30_Node000002_Node000023"><a xlink:title=" ">
<path fill="none" stroke="#63b8ff" d="M840.89,-108.67C903.41,-98.66 999.29,-83.31 1058.27,-73.86"/>
<polygon fill="#63b8ff" stroke="#63b8ff" points="832.68,-109.98 840.01,-105.16 836.63,-109.35 840.58,-108.72 840.58,-108.72 840.58,-108.72 836.63,-109.35 841.15,-112.27 832.68,-109.98 832.68,-109.98"/>
</a>
</g>
</g>
<!-- Node4 -->
<g id="Node000004" class="node">
<title>Node4</title>
<g id="a_Node000004"><a xlink:href="calibratecommand_8cpp_source.html" target="_top" xlink:title=" ">
<polygon fill="white" stroke="#666666" points="532.5,-19 404.5,-19 404.5,0 532.5,0 532.5,-19"/>
<text text-anchor="middle" x="468.5" y="-7" font-family="Helvetica,sans-Serif" font-size="10.00">calibratecommand.cpp</text>
</a>
</g>
</g>
<!-- Node3&#45;&gt;Node4 -->
<g id="edge3_Node000003_Node000004" class="edge">
<title>Node3&#45;&gt;Node4</title>
<g id="a_edge3_Node000003_Node000004"><a xlink:title=" ">
<path fill="none" stroke="#63b8ff" d="M547,-51.29C528.1,-41.47 502,-27.91 485.19,-19.17"/>
<polygon fill="#63b8ff" stroke="#63b8ff" points="554.11,-54.98 545.35,-54.49 550.56,-53.14 547.01,-51.3 547.01,-51.3 547.01,-51.3 550.56,-53.14 548.67,-48.1 554.11,-54.98 554.11,-54.98"/>
</a>
</g>
</g>
<!-- Node5 -->
<g id="Node000005" class="node">
<title>Node5</title>
<g id="a_Node000005"><a xlink:href="main_8cpp_source.html" target="_top" xlink:title=" ">
<polygon fill="white" stroke="#666666" points="768.5,-19 706.5,-19 706.5,0 768.5,0 768.5,-19"/>
<text text-anchor="middle" x="737.5" y="-7" font-family="Helvetica,sans-Serif" font-size="10.00">main.cpp</text>
</a>
</g>
</g>
<!-- Node3&#45;&gt;Node5 -->
<g id="edge4_Node000003_Node000005" class="edge">
<title>Node3&#45;&gt;Node5</title>
<g id="a_edge4_Node000003_Node000005"><a xlink:title=" ">
<path fill="none" stroke="#63b8ff" d="M604.96,-52.56C636.24,-42.64 681.73,-28.2 710.46,-19.08"/>
<polygon fill="#63b8ff" stroke="#63b8ff" points="597.33,-54.98 603.87,-49.13 601.14,-53.77 604.96,-52.56 604.96,-52.56 604.96,-52.56 601.14,-53.77 606.05,-56 597.33,-54.98 597.33,-54.98"/>
</a>
</g>
</g>
<!-- Node7&#45;&gt;Node5 -->
<g id="edge8_Node000007_Node000005" class="edge">
<title>Node7&#45;&gt;Node5</title>
<g id="a_edge8_Node000007_Node000005"><a xlink:title=" ">
<path fill="none" stroke="#63b8ff" d="M105.69,-55.09C105.96,-55.06 106.23,-55.03 106.5,-55 367.7,-26.91 436.1,-53.75 696.5,-19 699.67,-18.58 702.96,-18.05 706.24,-17.46"/>
<polygon fill="#63b8ff" stroke="#63b8ff" points="97.67,-56.05 105.19,-51.52 101.64,-55.57 105.62,-55.1 105.62,-55.1 105.62,-55.1 101.64,-55.57 106.04,-58.67 97.67,-56.05 97.67,-56.05"/>
</a>
</g>
</g>
<!-- Node8 -->
<g id="Node000008" class="node">
<title>Node8</title>
<g id="a_Node000008"><a xlink:href="dsocommand_8cpp_source.html" target="_top" xlink:title=" ">
<polygon fill="white" stroke="#666666" points="103,-19 0,-19 0,0 103,0 103,-19"/>
<text text-anchor="middle" x="51.5" y="-7" font-family="Helvetica,sans-Serif" font-size="10.00">dsocommand.cpp</text>
</a>
</g>
</g>
<!-- Node7&#45;&gt;Node8 -->
<g id="edge7_Node000007_Node000008" class="edge">
<title>Node7&#45;&gt;Node8</title>
<g id="a_edge7_Node000007_Node000008"><a xlink:title=" ">
<path fill="none" stroke="#63b8ff" d="M51.5,-46.67C51.5,-37.5 51.5,-26.52 51.5,-19.09"/>
<polygon fill="#63b8ff" stroke="#63b8ff" points="51.5,-54.75 47.9,-46.75 51.5,-50.75 51.5,-46.75 51.5,-46.75 51.5,-46.75 51.5,-50.75 55.1,-46.75 51.5,-54.75 51.5,-54.75"/>
</a>
</g>
</g>
<!-- Node9&#45;&gt;Node5 -->
<g id="edge11_Node000009_Node000005" class="edge">
<title>Node9&#45;&gt;Node5</title>
<g id="a_edge11_Node000009_Node000005"><a xlink:title=" ">
<path fill="none" stroke="#63b8ff" d="M823.2,-51.42C802.61,-41.59 774.04,-27.95 755.66,-19.17"/>
<polygon fill="#63b8ff" stroke="#63b8ff" points="830.67,-54.98 821.9,-54.79 827.06,-53.26 823.45,-51.54 823.45,-51.54 823.45,-51.54 827.06,-53.26 825,-48.29 830.67,-54.98 830.67,-54.98"/>
</a>
</g>
</g>
<!-- Node10 -->
<g id="Node000010" class="node">
<title>Node10</title>
<g id="a_Node000010"><a xlink:href="flashledcommand_8cpp_source.html" target="_top" xlink:title=" ">
<polygon fill="white" stroke="#666666" points="910.5,-19 786.5,-19 786.5,0 910.5,0 910.5,-19"/>
<text text-anchor="middle" x="848.5" y="-7" font-family="Helvetica,sans-Serif" font-size="10.00">flashledcommand.cpp</text>
</a>
</g>
</g>
<!-- Node9&#45;&gt;Node10 -->
<g id="edge10_Node000009_Node000010" class="edge">
<title>Node9&#45;&gt;Node10</title>
<g id="a_edge10_Node000009_Node000010"><a xlink:title=" ">
<path fill="none" stroke="#63b8ff" d="M848.5,-46.67C848.5,-37.5 848.5,-26.52 848.5,-19.09"/>
<polygon fill="#63b8ff" stroke="#63b8ff" points="848.5,-54.75 844.9,-46.75 848.5,-50.75 848.5,-46.75 848.5,-46.75 848.5,-46.75 848.5,-50.75 852.1,-46.75 848.5,-54.75 848.5,-54.75"/>
</a>
</g>
</g>
<!-- Node11&#45;&gt;Node5 -->
<g id="edge14_Node000011_Node000005" class="edge">
<title>Node11&#45;&gt;Node5</title>
<g id="a_edge14_Node000011_Node000005"><a xlink:title=" ">
<path fill="none" stroke="#63b8ff" d="M353.36,-55.15C353.74,-55.1 354.12,-55.05 354.5,-55 506.09,-35.53 545.48,-42.54 696.5,-19 699.66,-18.51 702.95,-17.93 706.22,-17.32"/>
<polygon fill="#63b8ff" stroke="#63b8ff" points="345.23,-56.24 352.68,-51.61 349.19,-55.71 353.16,-55.17 353.16,-55.17 353.16,-55.17 349.19,-55.71 353.64,-58.74 345.23,-56.24 345.23,-56.24"/>
</a>
</g>
</g>
<!-- Node12 -->
<g id="Node000012" class="node">
<title>Node12</title>
<g id="a_Node000012"><a xlink:href="infocommand_8cpp_source.html" target="_top" xlink:title=" ">
<polygon fill="white" stroke="#666666" points="226.5,-19 122.5,-19 122.5,0 226.5,0 226.5,-19"/>
<text text-anchor="middle" x="174.5" y="-7" font-family="Helvetica,sans-Serif" font-size="10.00">infocommand.cpp</text>
</a>
</g>
</g>
<!-- Node11&#45;&gt;Node12 -->
<g id="edge13_Node000011_Node000012" class="edge">
<title>Node11&#45;&gt;Node12</title>
<g id="a_edge13_Node000011_Node000012"><a xlink:title=" ">
<path fill="none" stroke="#63b8ff" d="M271.15,-51.81C248.08,-41.95 215.59,-28.06 194.79,-19.17"/>
<polygon fill="#63b8ff" stroke="#63b8ff" points="278.58,-54.98 269.81,-55.15 274.9,-53.41 271.22,-51.84 271.22,-51.84 271.22,-51.84 274.9,-53.41 272.64,-48.53 278.58,-54.98 278.58,-54.98"/>
</a>
</g>
</g>
<!-- Node13&#45;&gt;Node5 -->
<g id="edge17_Node000013_Node000005" class="edge">
<title>Node13&#45;&gt;Node5</title>
<g id="a_edge17_Node000013_Node000005"><a xlink:title=" ">
<path fill="none" stroke="#63b8ff" d="M491.95,-53.69C546.34,-45.12 626.71,-32.02 696.5,-19 699.64,-18.41 702.92,-17.78 706.19,-17.13"/>
<polygon fill="#63b8ff" stroke="#63b8ff" points="483.79,-54.98 491.13,-50.18 487.74,-54.36 491.69,-53.74 491.69,-53.74 491.69,-53.74 487.74,-54.36 492.25,-57.29 483.79,-54.98 483.79,-54.98"/>
</a>
</g>
</g>
<!-- Node14 -->
<g id="Node000014" class="node">
<title>Node14</title>
<g id="a_Node000014"><a xlink:href="loggerfetchcommand_8cpp_source.html" target="_top" xlink:title=" ">
<polygon fill="white" stroke="#666666" points="386,-19 245,-19 245,0 386,0 386,-19"/>
<text text-anchor="middle" x="315.5" y="-7" font-family="Helvetica,sans-Serif" font-size="10.00">loggerfetchcommand.cpp</text>
</a>
</g>
</g>
<!-- Node13&#45;&gt;Node14 -->
<g id="edge16_Node000013_Node000014" class="edge">
<title>Node13&#45;&gt;Node14</title>
<g id="a_edge16_Node000013_Node000014"><a xlink:title=" ">
<path fill="none" stroke="#63b8ff" d="M403.02,-51.55C382.04,-41.71 352.78,-27.98 333.99,-19.17"/>
<polygon fill="#63b8ff" stroke="#63b8ff" points="410.34,-54.98 401.57,-54.85 406.72,-53.29 403.1,-51.59 403.1,-51.59 403.1,-51.59 406.72,-53.29 404.63,-48.33 410.34,-54.98 410.34,-54.98"/>
</a>
</g>
</g>
<!-- Node15&#45;&gt;Node5 -->
<g id="edge20_Node000015_Node000005" class="edge">
<title>Node15&#45;&gt;Node5</title>
<g id="a_edge20_Node000015_Node000005"><a xlink:title=" ">
<path fill="none" stroke="#63b8ff" d="M1172.32,-55.09C1172.05,-55.06 1171.77,-55.03 1171.5,-55 996.6,-36.83 951.36,-45.32 777.5,-19 774.69,-18.57 771.79,-18.08 768.88,-17.53"/>
<polygon fill="#63b8ff" stroke="#63b8ff" points="1180.42,-55.95 1172.08,-58.68 1176.44,-55.52 1172.46,-55.1 1172.46,-55.1 1172.46,-55.1 1176.44,-55.52 1172.84,-51.52 1180.42,-55.95 1180.42,-55.95"/>
</a>
</g>
</g>
<!-- Node16 -->
<g id="Node000016" class="node">
<title>Node16</title>
<g id="a_Node000016"><a xlink:href="loggerstartcommand_8cpp_source.html" target="_top" xlink:title=" ">
<polygon fill="white" stroke="#666666" points="1348,-19 1209,-19 1209,0 1348,0 1348,-19"/>
<text text-anchor="middle" x="1278.5" y="-7" font-family="Helvetica,sans-Serif" font-size="10.00">loggerstartcommand.cpp</text>
</a>
</g>
</g>
<!-- Node15&#45;&gt;Node16 -->
<g id="edge19_Node000015_Node000016" class="edge">
<title>Node15&#45;&gt;Node16</title>
<g id="a_edge19_Node000015_Node000016"><a xlink:title=" ">
<path fill="none" stroke="#63b8ff" d="M1254.57,-47.8C1260.6,-38.41 1268.02,-26.83 1272.99,-19.09"/>
<polygon fill="#63b8ff" stroke="#63b8ff" points="1250.11,-54.75 1251.4,-46.07 1252.27,-51.38 1254.43,-48.01 1254.43,-48.01 1254.43,-48.01 1252.27,-51.38 1257.46,-49.96 1250.11,-54.75 1250.11,-54.75"/>
</a>
</g>
</g>
<!-- Node17&#45;&gt;Node5 -->
<g id="edge23_Node000017_Node000005" class="edge">
<title>Node17&#45;&gt;Node5</title>
<g id="a_edge23_Node000017_Node000005"><a xlink:title=" ">
<path fill="none" stroke="#63b8ff" d="M718.64,-47.52C723.4,-38.18 729.22,-26.75 733.12,-19.09"/>
<polygon fill="#63b8ff" stroke="#63b8ff" points="714.96,-54.75 715.38,-45.99 716.77,-51.18 718.59,-47.62 718.59,-47.62 718.59,-47.62 716.77,-51.18 721.8,-49.25 714.96,-54.75 714.96,-54.75"/>
</a>
</g>
</g>
<!-- Node18 -->
<g id="Node000018" class="node">
<title>Node18</title>
<g id="a_Node000018"><a xlink:href="loggerstopcommand_8cpp_source.html" target="_top" xlink:title=" ">
<polygon fill="white" stroke="#666666" points="688,-19 551,-19 551,0 688,0 688,-19"/>
<text text-anchor="middle" x="619.5" y="-7" font-family="Helvetica,sans-Serif" font-size="10.00">loggerstopcommand.cpp</text>
</a>
</g>
</g>
<!-- Node17&#45;&gt;Node18 -->
<g id="edge22_Node000017_Node000018" class="edge">
<title>Node17&#45;&gt;Node18</title>
<g id="a_edge22_Node000017_Node000018"><a xlink:title=" ">
<path fill="none" stroke="#63b8ff" d="M688.64,-50.77C671.85,-40.99 649.12,-27.75 634.39,-19.17"/>
<polygon fill="#63b8ff" stroke="#63b8ff" points="695.88,-54.98 687.15,-54.07 692.42,-52.97 688.97,-50.96 688.97,-50.96 688.97,-50.96 692.42,-52.97 690.78,-47.85 695.88,-54.98 695.88,-54.98"/>
</a>
</g>
</g>
<!-- Node19&#45;&gt;Node5 -->
<g id="edge25_Node000019_Node000005" class="edge">
<title>Node19&#45;&gt;Node5</title>
<g id="a_edge25_Node000019_Node000005"><a xlink:title=" ">
<path fill="none" stroke="#63b8ff" d="M1318.31,-55.08C1318.04,-55.06 1317.77,-55.03 1317.5,-55 1078.23,-30.39 1015.75,-52.08 777.5,-19 774.69,-18.61 771.78,-18.13 768.87,-17.61"/>
<polygon fill="#63b8ff" stroke="#63b8ff" points="1326.29,-55.97 1317.94,-58.66 1322.31,-55.53 1318.34,-55.09 1318.34,-55.09 1318.34,-55.09 1322.31,-55.53 1318.73,-51.51 1326.29,-55.97 1326.29,-55.97"/>
</a>
</g>
</g>
<!-- Node20 -->
<g id="Node000020" class="node">
<title>Node20</title>
<g id="a_Node000020"><a xlink:href="metercommand_8cpp_source.html" target="_top" xlink:title=" ">
<polygon fill="white" stroke="#666666" points="1481,-19 1366,-19 1366,0 1481,0 1481,-19"/>
<text text-anchor="middle" x="1423.5" y="-7" font-family="Helvetica,sans-Serif" font-size="10.00">metercommand.cpp</text>
</a>
</g>
</g>
<!-- Node19&#45;&gt;Node20 -->
<g id="edge26_Node000019_Node000020" class="edge">
<title>Node19&#45;&gt;Node20</title>
<g id="a_edge26_Node000019_Node000020"><a xlink:title=" ">
<path fill="none" stroke="#63b8ff" d="M1391.13,-48.63C1399.22,-39.1 1409.44,-27.06 1416.21,-19.09"/>
<polygon fill="#63b8ff" stroke="#63b8ff" points="1385.93,-54.75 1388.36,-46.32 1388.52,-51.7 1391.11,-48.65 1391.11,-48.65 1391.11,-48.65 1388.52,-51.7 1393.85,-50.98 1385.93,-54.75 1385.93,-54.75"/>
</a>
</g>
</g>
<!-- Node21&#45;&gt;Node5 -->
<g id="edge28_Node000021_Node000005" class="edge">
<title>Node21&#45;&gt;Node5</title>
<g id="a_edge28_Node000021_Node000005"><a xlink:title=" ">
<path fill="none" stroke="#63b8ff" d="M934.4,-53.27C885.64,-42.68 810.82,-26.43 768.85,-17.31"/>
<polygon fill="#63b8ff" stroke="#63b8ff" points="942.3,-54.98 933.72,-56.8 938.39,-54.14 934.48,-53.29 934.48,-53.29 934.48,-53.29 938.39,-54.14 935.24,-49.77 942.3,-54.98 942.3,-54.98"/>
</a>
</g>
</g>
<!-- Node22 -->
<g id="Node000022" class="node">
<title>Node22</title>
<g id="a_Node000022"><a xlink:href="setnamecommand_8cpp_source.html" target="_top" xlink:title=" ">
<polygon fill="white" stroke="#666666" points="1056.5,-19 928.5,-19 928.5,0 1056.5,0 1056.5,-19"/>
<text text-anchor="middle" x="992.5" y="-7" font-family="Helvetica,sans-Serif" font-size="10.00">setnamecommand.cpp</text>
</a>
</g>
</g>
<!-- Node21&#45;&gt;Node22 -->
<g id="edge29_Node000021_Node000022" class="edge">
<title>Node21&#45;&gt;Node22</title>
<g id="a_edge29_Node000021_Node000022"><a xlink:title=" ">
<path fill="none" stroke="#63b8ff" d="M984.99,-46.67C986.9,-37.5 989.17,-26.52 990.72,-19.09"/>
<polygon fill="#63b8ff" stroke="#63b8ff" points="983.32,-54.75 981.42,-46.18 984.13,-50.83 984.94,-46.92 984.94,-46.92 984.94,-46.92 984.13,-50.83 988.47,-47.65 983.32,-54.75 983.32,-54.75"/>
</a>
</g>
</g>
<!-- Node23&#45;&gt;Node5 -->
<g id="edge31_Node000023_Node000005" class="edge">
<title>Node23&#45;&gt;Node5</title>
<g id="a_edge31_Node000023_Node000005"><a xlink:title=" ">
<path fill="none" stroke="#63b8ff" d="M1050.31,-55.11C1050.04,-55.07 1049.77,-55.04 1049.5,-55 928.67,-38.59 897.68,-39.69 777.5,-19 774.7,-18.52 771.8,-17.98 768.9,-17.41"/>
<polygon fill="#63b8ff" stroke="#63b8ff" points="1058.26,-56.2 1049.85,-58.68 1054.3,-55.65 1050.33,-55.11 1050.33,-55.11 1050.33,-55.11 1054.3,-55.65 1050.82,-51.55 1058.26,-56.2 1058.26,-56.2"/>
</a>
</g>
</g>
<!-- Node24 -->
<g id="Node000024" class="node">
<title>Node24</title>
<g id="a_Node000024"><a xlink:href="statuscommand_8cpp_source.html" target="_top" xlink:title=" ">
<polygon fill="white" stroke="#666666" points="1190.5,-19 1074.5,-19 1074.5,0 1190.5,0 1190.5,-19"/>
<text text-anchor="middle" x="1132.5" y="-7" font-family="Helvetica,sans-Serif" font-size="10.00">statuscommand.cpp</text>
</a>
</g>
</g>
<!-- Node23&#45;&gt;Node24 -->
<g id="edge32_Node000023_Node000024" class="edge">
<title>Node23&#45;&gt;Node24</title>
<g id="a_edge32_Node000023_Node000024"><a xlink:title=" ">
<path fill="none" stroke="#63b8ff" d="M1117.25,-47.24C1121.11,-37.95 1125.78,-26.68 1128.93,-19.09"/>
<polygon fill="#63b8ff" stroke="#63b8ff" points="1114.13,-54.75 1113.88,-45.98 1115.67,-51.05 1117.2,-47.36 1117.2,-47.36 1117.2,-47.36 1115.67,-51.05 1120.52,-48.74 1114.13,-54.75 1114.13,-54.75"/>
</a>
</g>
</g>
</g>
</svg>
