<?xml version="1.0" encoding="UTF-8" standalone="no"?>
<!DOCTYPE svg PUBLIC "-//W3C//DTD SVG 1.1//EN"
 "http://www.w3.org/Graphics/SVG/1.1/DTD/svg11.dtd">
<!-- Generated by graphviz version 2.43.0 (0)
 -->
<!-- Title: qtpokit_global.h Pages: 1 -->
<svg width="2449pt" height="252pt"
 viewBox="0.00 0.00 2448.99 252.00" xmlns="http://www.w3.org/2000/svg" xmlns:xlink="http://www.w3.org/1999/xlink">
<g id="graph0" class="graph" transform="scale(1 1) rotate(0) translate(4 248)">
<title>qtpokit_global.h</title>
<!-- Node1 -->
<g id="node1" class="node">
<title>Node1</title>
<g id="a_node1"><a xlink:title="Global QtPokit library macros.">
<polygon fill="#bfbfbf" stroke="black" points="1168.49,-224.5 1168.49,-243.5 1263.49,-243.5 1263.49,-224.5 1168.49,-224.5"/>
<text text-anchor="middle" x="1215.99" y="-231.5" font-family="Helvetica,sans-Serif" font-size="10.00">qtpokit_global.h</text>
</a>
</g>
</g>
<!-- Node2 -->
<g id="node2" class="node">
<title>Node2</title>
<g id="a_node2"><a xlink:href="abstractpokitservice_8h.html" target="_top" xlink:title="Declares the AbstractPokitService class.">
<polygon fill="none" stroke="black" points="1025.49,-168.5 1025.49,-187.5 1150.49,-187.5 1150.49,-168.5 1025.49,-168.5"/>
<text text-anchor="middle" x="1087.99" y="-175.5" font-family="Helvetica,sans-Serif" font-size="10.00">abstractpokitservice.h</text>
</a>
</g>
</g>
<!-- Node1&#45;&gt;Node2 -->
<g id="edge1" class="edge">
<title>Node1&#45;&gt;Node2</title>
<path fill="none" stroke="midnightblue" d="M1186.36,-220.5C1162.37,-210.38 1129.2,-196.39 1108.17,-187.52"/>
<polygon fill="midnightblue" stroke="midnightblue" points="1185.13,-223.78 1195.7,-224.44 1187.85,-217.33 1185.13,-223.78"/>
</g>
<!-- Node24 -->
<g id="node24" class="node">
<title>Node24</title>
<g id="a_node24"><a xlink:href="abstractpokitservice__p_8h.html" target="_top" xlink:title="Declares the AbstractPokitServicePrivate class.">
<polygon fill="none" stroke="black" points="576.49,-112.5 576.49,-131.5 713.49,-131.5 713.49,-112.5 576.49,-112.5"/>
<text text-anchor="middle" x="644.99" y="-119.5" font-family="Helvetica,sans-Serif" font-size="10.00">abstractpokitservice_p.h</text>
</a>
</g>
</g>
<!-- Node1&#45;&gt;Node24 -->
<g id="edge30" class="edge">
<title>Node1&#45;&gt;Node24</title>
<path fill="none" stroke="midnightblue" d="M1161.54,-222.51C1048.98,-200.83 792.55,-151.43 689.29,-131.53"/>
<polygon fill="midnightblue" stroke="midnightblue" points="1161.17,-226.01 1171.66,-224.46 1162.5,-219.13 1161.17,-226.01"/>
</g>
<!-- Node25 -->
<g id="node25" class="node">
<title>Node25</title>
<g id="a_node25"><a xlink:href="logging__p_8h.html" target="_top" xlink:title="QtPokit logging categories.">
<polygon fill="none" stroke="black" points="160.49,-112.5 160.49,-131.5 233.49,-131.5 233.49,-112.5 160.49,-112.5"/>
<text text-anchor="middle" x="196.99" y="-119.5" font-family="Helvetica,sans-Serif" font-size="10.00">logging_p.h</text>
</a>
</g>
</g>
<!-- Node1&#45;&gt;Node25 -->
<g id="edge36" class="edge">
<title>Node1&#45;&gt;Node25</title>
<path fill="none" stroke="midnightblue" d="M1158.02,-226.74C970.83,-206.54 385.84,-143.39 233.53,-126.95"/>
<polygon fill="midnightblue" stroke="midnightblue" points="1157.89,-230.25 1168.2,-227.84 1158.64,-223.29 1157.89,-230.25"/>
</g>
<!-- Node27 -->
<g id="node27" class="node">
<title>Node27</title>
<g id="a_node27"><a xlink:href="pokitdevice_8h.html" target="_top" xlink:title="Declares the PokitDevice class.">
<polygon fill="none" stroke="black" points="1496.49,-112.5 1496.49,-131.5 1579.49,-131.5 1579.49,-112.5 1496.49,-112.5"/>
<text text-anchor="middle" x="1537.99" y="-119.5" font-family="Helvetica,sans-Serif" font-size="10.00">pokitdevice.h</text>
</a>
</g>
</g>
<!-- Node1&#45;&gt;Node27 -->
<g id="edge45" class="edge">
<title>Node1&#45;&gt;Node27</title>
<path fill="none" stroke="midnightblue" d="M1250.81,-221.1C1316.14,-198.79 1455.64,-151.13 1512.78,-131.61"/>
<polygon fill="midnightblue" stroke="midnightblue" points="1249.32,-217.92 1240.98,-224.46 1251.58,-224.54 1249.32,-217.92"/>
</g>
<!-- Node29 -->
<g id="node29" class="node">
<title>Node29</title>
<g id="a_node29"><a xlink:href="pokitdevice__p_8h.html" target="_top" xlink:title="Declares the PokitDevicePrivate class.">
<polygon fill="none" stroke="black" points="1168.99,-168.5 1168.99,-187.5 1262.99,-187.5 1262.99,-168.5 1168.99,-168.5"/>
<text text-anchor="middle" x="1215.99" y="-175.5" font-family="Helvetica,sans-Serif" font-size="10.00">pokitdevice_p.h</text>
</a>
</g>
</g>
<!-- Node1&#45;&gt;Node29 -->
<g id="edge54" class="edge">
<title>Node1&#45;&gt;Node29</title>
<path fill="none" stroke="midnightblue" d="M1215.99,-213.8C1215.99,-204.91 1215.99,-194.78 1215.99,-187.75"/>
<polygon fill="midnightblue" stroke="midnightblue" points="1212.49,-214.08 1215.99,-224.08 1219.49,-214.08 1212.49,-214.08"/>
</g>
<!-- Node30 -->
<g id="node30" class="node">
<title>Node30</title>
<g id="a_node30"><a xlink:href="pokitdiscoveryagent_8h.html" target="_top" xlink:title="Declares the PokitDiscoveryAgent class.">
<polygon fill="none" stroke="black" points="2053.49,-112.5 2053.49,-131.5 2178.49,-131.5 2178.49,-112.5 2053.49,-112.5"/>
<text text-anchor="middle" x="2115.99" y="-119.5" font-family="Helvetica,sans-Serif" font-size="10.00">pokitdiscoveryagent.h</text>
</a>
</g>
</g>
<!-- Node1&#45;&gt;Node30 -->
<g id="edge56" class="edge">
<title>Node1&#45;&gt;Node30</title>
<path fill="none" stroke="midnightblue" d="M1274.16,-232.66C1388.76,-231.17 1651.52,-223.78 1868.99,-188 1951.02,-174.5 2045.39,-145.91 2090.02,-131.57"/>
<polygon fill="midnightblue" stroke="midnightblue" points="1273.82,-229.16 1263.86,-232.78 1273.9,-236.16 1273.82,-229.16"/>
</g>
<!-- Node32 -->
<g id="node32" class="node">
<title>Node32</title>
<g id="a_node32"><a xlink:href="pokitdiscoveryagent__p_8h.html" target="_top" xlink:title="Declares the PokitDiscoveryAgentPrivate class.">
<polygon fill="none" stroke="black" points="1722.49,-168.5 1722.49,-187.5 1859.49,-187.5 1859.49,-168.5 1722.49,-168.5"/>
<text text-anchor="middle" x="1790.99" y="-175.5" font-family="Helvetica,sans-Serif" font-size="10.00">pokitdiscoveryagent_p.h</text>
</a>
</g>
</g>
<!-- Node1&#45;&gt;Node32 -->
<g id="edge61" class="edge">
<title>Node1&#45;&gt;Node32</title>
<path fill="none" stroke="midnightblue" d="M1273.78,-227.57C1380.52,-217.55 1608.07,-196.18 1722.41,-185.44"/>
<polygon fill="midnightblue" stroke="midnightblue" points="1273.16,-224.12 1263.53,-228.54 1273.81,-231.08 1273.16,-224.12"/>
</g>
<!-- Node3 -->
<g id="node3" class="node">
<title>Node3</title>
<g id="a_node3"><a xlink:href="abstractpokitservice_8cpp.html" target="_top" xlink:title="Defines the AbstractPokitService and AbstractPokitServicePrivate classes.">
<polygon fill="none" stroke="black" points="225.49,-56.5 225.49,-75.5 362.49,-75.5 362.49,-56.5 225.49,-56.5"/>
<text text-anchor="middle" x="293.99" y="-63.5" font-family="Helvetica,sans-Serif" font-size="10.00">abstractpokitservice.cpp</text>
</a>
</g>
</g>
<!-- Node2&#45;&gt;Node3 -->
<g id="edge2" class="edge">
<title>Node2&#45;&gt;Node3</title>
<path fill="none" stroke="midnightblue" d="M1015.37,-174.11C914.31,-169.33 725.78,-157.62 566.99,-132 477.28,-117.53 373.39,-89.64 323.59,-75.57"/>
<polygon fill="midnightblue" stroke="midnightblue" points="1015.32,-177.62 1025.47,-174.58 1015.64,-170.62 1015.32,-177.62"/>
</g>
<!-- Node4 -->
<g id="node4" class="node">
<title>Node4</title>
<g id="a_node4"><a xlink:href="calibrationservice_8h.html" target="_top" xlink:title="Declares the CalibrationService class.">
<polygon fill="none" stroke="black" points="911.49,-112.5 911.49,-131.5 1024.49,-131.5 1024.49,-112.5 911.49,-112.5"/>
<text text-anchor="middle" x="967.99" y="-119.5" font-family="Helvetica,sans-Serif" font-size="10.00">calibrationservice.h</text>
</a>
</g>
</g>
<!-- Node2&#45;&gt;Node4 -->
<g id="edge3" class="edge">
<title>Node2&#45;&gt;Node4</title>
<path fill="none" stroke="midnightblue" d="M1059.61,-164.23C1037.17,-154.13 1006.45,-140.31 986.91,-131.52"/>
<polygon fill="midnightblue" stroke="midnightblue" points="1058.42,-167.53 1068.97,-168.44 1061.29,-161.15 1058.42,-167.53"/>
</g>
<!-- Node9 -->
<g id="node9" class="node">
<title>Node9</title>
<g id="a_node9"><a xlink:href="devicecommand_8cpp_source.html" target="_top" xlink:title=" ">
<polygon fill="none" stroke="black" points="2322.99,-56.5 2322.99,-75.5 2440.99,-75.5 2440.99,-56.5 2322.99,-56.5"/>
<text text-anchor="middle" x="2381.99" y="-63.5" font-family="Helvetica,sans-Serif" font-size="10.00">devicecommand.cpp</text>
</a>
</g>
</g>
<!-- Node2&#45;&gt;Node9 -->
<g id="edge9" class="edge">
<title>Node2&#45;&gt;Node9</title>
<path fill="none" stroke="midnightblue" d="M1161.05,-168.03C1404.07,-150.44 1966.24,-172.16 2187.99,-132 2254.05,-120.04 2328.31,-90.31 2362.65,-75.57"/>
<polygon fill="midnightblue" stroke="midnightblue" points="1160.49,-164.57 1150.78,-168.82 1161.02,-171.55 1160.49,-164.57"/>
</g>
<!-- Node10 -->
<g id="node10" class="node">
<title>Node10</title>
<g id="a_node10"><a xlink:href="deviceinfoservice_8h.html" target="_top" xlink:title="Declares the DeviceInfoService class.">
<polygon fill="none" stroke="black" points="1042.99,-112.5 1042.99,-131.5 1154.99,-131.5 1154.99,-112.5 1042.99,-112.5"/>
<text text-anchor="middle" x="1098.99" y="-119.5" font-family="Helvetica,sans-Serif" font-size="10.00">deviceinfoservice.h</text>
</a>
</g>
</g>
<!-- Node2&#45;&gt;Node10 -->
<g id="edge10" class="edge">
<title>Node2&#45;&gt;Node10</title>
<path fill="none" stroke="midnightblue" d="M1091.84,-158.1C1093.66,-149.14 1095.76,-138.86 1097.2,-131.75"/>
<polygon fill="midnightblue" stroke="midnightblue" points="1088.37,-157.59 1089.8,-168.08 1095.23,-158.98 1088.37,-157.59"/>
</g>
<!-- Node14 -->
<g id="node14" class="node">
<title>Node14</title>
<g id="a_node14"><a xlink:href="genericaccessservice_8h.html" target="_top" xlink:title="Declares the GenericAccessService class.">
<polygon fill="none" stroke="black" points="752.99,-112.5 752.99,-131.5 882.99,-131.5 882.99,-112.5 752.99,-112.5"/>
<text text-anchor="middle" x="817.99" y="-119.5" font-family="Helvetica,sans-Serif" font-size="10.00">genericaccessservice.h</text>
</a>
</g>
</g>
<!-- Node2&#45;&gt;Node14 -->
<g id="edge16" class="edge">
<title>Node2&#45;&gt;Node14</title>
<path fill="none" stroke="midnightblue" d="M1035.35,-166.47C984.33,-156.27 907.88,-140.98 860.57,-131.52"/>
<polygon fill="midnightblue" stroke="midnightblue" points="1034.71,-169.91 1045.2,-168.44 1036.08,-163.05 1034.71,-169.91"/>
</g>
<!-- Node17 -->
<g id="node17" class="node">
<title>Node17</title>
<g id="a_node17"><a xlink:href="statusservice_8h.html" target="_top" xlink:title="Declares the StatusService class.">
<polygon fill="none" stroke="black" points="1333.49,-112.5 1333.49,-131.5 1424.49,-131.5 1424.49,-112.5 1333.49,-112.5"/>
<text text-anchor="middle" x="1378.99" y="-119.5" font-family="Helvetica,sans-Serif" font-size="10.00">statusservice.h</text>
</a>
</g>
</g>
<!-- Node2&#45;&gt;Node17 -->
<g id="edge21" class="edge">
<title>Node2&#45;&gt;Node17</title>
<path fill="none" stroke="midnightblue" d="M1144.03,-166.6C1199.02,-156.4 1281.88,-141.02 1333.09,-131.52"/>
<polygon fill="midnightblue" stroke="midnightblue" points="1143.29,-163.18 1134.1,-168.44 1144.57,-170.06 1143.29,-163.18"/>
</g>
<!-- Node5 -->
<g id="node5" class="node">
<title>Node5</title>
<g id="a_node5"><a xlink:href="calibratecommand_8cpp_source.html" target="_top" xlink:title=" ">
<polygon fill="none" stroke="black" points="1169.99,-56.5 1169.99,-75.5 1297.99,-75.5 1297.99,-56.5 1169.99,-56.5"/>
<text text-anchor="middle" x="1233.99" y="-63.5" font-family="Helvetica,sans-Serif" font-size="10.00">calibratecommand.cpp</text>
</a>
</g>
</g>
<!-- Node4&#45;&gt;Node5 -->
<g id="edge4" class="edge">
<title>Node4&#45;&gt;Node5</title>
<path fill="none" stroke="midnightblue" d="M1020.15,-110.41C1070.42,-100.2 1145.52,-84.96 1192.03,-75.52"/>
<polygon fill="midnightblue" stroke="midnightblue" points="1019.24,-107.02 1010.13,-112.44 1020.63,-113.88 1019.24,-107.02"/>
</g>
<!-- Node6 -->
<g id="node6" class="node">
<title>Node6</title>
<g id="a_node6"><a xlink:href="calibrationservice_8cpp.html" target="_top" xlink:title="Defines the CalibrationService and CalibrationServicePrivate classes.">
<polygon fill="none" stroke="black" points="577.99,-0.5 577.99,-19.5 701.99,-19.5 701.99,-0.5 577.99,-0.5"/>
<text text-anchor="middle" x="639.99" y="-7.5" font-family="Helvetica,sans-Serif" font-size="10.00">calibrationservice.cpp</text>
</a>
</g>
</g>
<!-- Node4&#45;&gt;Node6 -->
<g id="edge5" class="edge">
<title>Node4&#45;&gt;Node6</title>
<path fill="none" stroke="midnightblue" d="M901.09,-113.18C856.86,-106.59 798.17,-95.09 748.99,-76 729.27,-68.35 677.81,-35.61 653.32,-19.72"/>
<polygon fill="midnightblue" stroke="midnightblue" points="900.76,-116.67 911.16,-114.64 901.76,-109.74 900.76,-116.67"/>
</g>
<!-- Node7 -->
<g id="node7" class="node">
<title>Node7</title>
<g id="a_node7"><a xlink:href="calibrationservice__p_8h.html" target="_top" xlink:title="Declares the CalibrationServicePrivate class.">
<polygon fill="none" stroke="black" points="577.99,-56.5 577.99,-75.5 701.99,-75.5 701.99,-56.5 577.99,-56.5"/>
<text text-anchor="middle" x="639.99" y="-63.5" font-family="Helvetica,sans-Serif" font-size="10.00">calibrationservice_p.h</text>
</a>
</g>
</g>
<!-- Node4&#45;&gt;Node7 -->
<g id="edge6" class="edge">
<title>Node4&#45;&gt;Node7</title>
<path fill="none" stroke="midnightblue" d="M905.97,-110.79C844,-100.59 749.79,-85.08 691.72,-75.52"/>
<polygon fill="midnightblue" stroke="midnightblue" points="905.58,-114.27 916.01,-112.44 906.71,-107.37 905.58,-114.27"/>
</g>
<!-- Node8 -->
<g id="node8" class="node">
<title>Node8</title>
<g id="a_node8"><a xlink:href="pokitdevice_8cpp.html" target="_top" xlink:title="Defines the PokitDevice and PokitDevicePrivate classes.">
<polygon fill="none" stroke="black" points="1057.99,-56.5 1057.99,-75.5 1151.99,-75.5 1151.99,-56.5 1057.99,-56.5"/>
<text text-anchor="middle" x="1104.99" y="-63.5" font-family="Helvetica,sans-Serif" font-size="10.00">pokitdevice.cpp</text>
</a>
</g>
</g>
<!-- Node4&#45;&gt;Node8 -->
<g id="edge8" class="edge">
<title>Node4&#45;&gt;Node8</title>
<path fill="none" stroke="midnightblue" d="M999.01,-108.77C1024.74,-98.63 1060.67,-84.47 1083.38,-75.52"/>
<polygon fill="midnightblue" stroke="midnightblue" points="997.71,-105.52 989.69,-112.44 1000.28,-112.03 997.71,-105.52"/>
</g>
<!-- Node7&#45;&gt;Node6 -->
<g id="edge7" class="edge">
<title>Node7&#45;&gt;Node6</title>
<path fill="none" stroke="midnightblue" d="M639.99,-45.8C639.99,-36.91 639.99,-26.78 639.99,-19.75"/>
<polygon fill="midnightblue" stroke="midnightblue" points="636.49,-46.08 639.99,-56.08 643.49,-46.08 636.49,-46.08"/>
</g>
<!-- Node10&#45;&gt;Node8 -->
<g id="edge15" class="edge">
<title>Node10&#45;&gt;Node8</title>
<path fill="none" stroke="midnightblue" d="M1101.09,-102.1C1102.08,-93.14 1103.22,-82.86 1104.01,-75.75"/>
<polygon fill="midnightblue" stroke="midnightblue" points="1097.6,-101.76 1099.98,-112.08 1104.56,-102.53 1097.6,-101.76"/>
</g>
<!-- Node11 -->
<g id="node11" class="node">
<title>Node11</title>
<g id="a_node11"><a xlink:href="deviceinfoservice_8cpp.html" target="_top" xlink:title="Defines the DeviceInfoService and DeviceInfoServicePrivate classes.">
<polygon fill="none" stroke="black" points="758.49,-0.5 758.49,-19.5 881.49,-19.5 881.49,-0.5 758.49,-0.5"/>
<text text-anchor="middle" x="819.99" y="-7.5" font-family="Helvetica,sans-Serif" font-size="10.00">deviceinfoservice.cpp</text>
</a>
</g>
</g>
<!-- Node10&#45;&gt;Node11 -->
<g id="edge11" class="edge">
<title>Node10&#45;&gt;Node11</title>
<path fill="none" stroke="midnightblue" d="M1042.95,-110.3C1009.17,-102.84 965.71,-91.45 928.99,-76 909.49,-67.8 857.93,-35.34 833.36,-19.62"/>
<polygon fill="midnightblue" stroke="midnightblue" points="1042.6,-113.8 1053.11,-112.49 1044.07,-106.96 1042.6,-113.8"/>
</g>
<!-- Node12 -->
<g id="node12" class="node">
<title>Node12</title>
<g id="a_node12"><a xlink:href="deviceinfoservice__p_8h.html" target="_top" xlink:title="Declares the DeviceInfoServicePrivate class.">
<polygon fill="none" stroke="black" points="758.49,-56.5 758.49,-75.5 881.49,-75.5 881.49,-56.5 758.49,-56.5"/>
<text text-anchor="middle" x="819.99" y="-63.5" font-family="Helvetica,sans-Serif" font-size="10.00">deviceinfoservice_p.h</text>
</a>
</g>
</g>
<!-- Node10&#45;&gt;Node12 -->
<g id="edge12" class="edge">
<title>Node10&#45;&gt;Node12</title>
<path fill="none" stroke="midnightblue" d="M1044.93,-110.54C992.2,-100.33 912.98,-85 863.99,-75.52"/>
<polygon fill="midnightblue" stroke="midnightblue" points="1044.29,-113.98 1054.78,-112.44 1045.63,-107.11 1044.29,-113.98"/>
</g>
<!-- Node13 -->
<g id="node13" class="node">
<title>Node13</title>
<g id="a_node13"><a xlink:href="infocommand_8cpp_source.html" target="_top" xlink:title=" ">
<polygon fill="none" stroke="black" points="1353.99,-56.5 1353.99,-75.5 1457.99,-75.5 1457.99,-56.5 1353.99,-56.5"/>
<text text-anchor="middle" x="1405.99" y="-63.5" font-family="Helvetica,sans-Serif" font-size="10.00">infocommand.cpp</text>
</a>
</g>
</g>
<!-- Node10&#45;&gt;Node13 -->
<g id="edge14" class="edge">
<title>Node10&#45;&gt;Node13</title>
<path fill="none" stroke="midnightblue" d="M1157.75,-110.66C1215.76,-100.46 1303.43,-85.04 1357.57,-75.52"/>
<polygon fill="midnightblue" stroke="midnightblue" points="1156.87,-107.26 1147.63,-112.44 1158.09,-114.16 1156.87,-107.26"/>
</g>
<!-- Node12&#45;&gt;Node11 -->
<g id="edge13" class="edge">
<title>Node12&#45;&gt;Node11</title>
<path fill="none" stroke="midnightblue" d="M819.99,-45.8C819.99,-36.91 819.99,-26.78 819.99,-19.75"/>
<polygon fill="midnightblue" stroke="midnightblue" points="816.49,-46.08 819.99,-56.08 823.49,-46.08 816.49,-46.08"/>
</g>
<!-- Node14&#45;&gt;Node8 -->
<g id="edge20" class="edge">
<title>Node14&#45;&gt;Node8</title>
<path fill="none" stroke="midnightblue" d="M873.59,-110.54C927.84,-100.33 1009.32,-85 1059.72,-75.52"/>
<polygon fill="midnightblue" stroke="midnightblue" points="872.64,-107.15 863.46,-112.44 873.94,-114.03 872.64,-107.15"/>
</g>
<!-- Node15 -->
<g id="node15" class="node">
<title>Node15</title>
<g id="a_node15"><a xlink:href="genericaccessservice_8cpp.html" target="_top" xlink:title="Defines the GenericAccessService and GenericAccessServicePrivate classes.">
<polygon fill="none" stroke="black" points="380.49,-0.5 380.49,-19.5 521.49,-19.5 521.49,-0.5 380.49,-0.5"/>
<text text-anchor="middle" x="450.99" y="-7.5" font-family="Helvetica,sans-Serif" font-size="10.00">genericaccessservice.cpp</text>
</a>
</g>
</g>
<!-- Node14&#45;&gt;Node15 -->
<g id="edge17" class="edge">
<title>Node14&#45;&gt;Node15</title>
<path fill="none" stroke="midnightblue" d="M742.65,-113.83C692.39,-107.5 625.43,-96.04 568.99,-76 558.24,-72.19 495.4,-36.47 466.06,-19.66"/>
<polygon fill="midnightblue" stroke="midnightblue" points="742.44,-117.33 752.79,-115.07 743.29,-110.38 742.44,-117.33"/>
</g>
<!-- Node16 -->
<g id="node16" class="node">
<title>Node16</title>
<g id="a_node16"><a xlink:href="genericaccessservice__p_8h.html" target="_top" xlink:title="Declares the GenericAccessServicePrivate class.">
<polygon fill="none" stroke="black" points="380.49,-56.5 380.49,-75.5 521.49,-75.5 521.49,-56.5 380.49,-56.5"/>
<text text-anchor="middle" x="450.99" y="-63.5" font-family="Helvetica,sans-Serif" font-size="10.00">genericaccessservice_p.h</text>
</a>
</g>
</g>
<!-- Node14&#45;&gt;Node16 -->
<g id="edge18" class="edge">
<title>Node14&#45;&gt;Node16</title>
<path fill="none" stroke="midnightblue" d="M749.88,-110.98C680.56,-100.78 574.25,-85.14 508.87,-75.52"/>
<polygon fill="midnightblue" stroke="midnightblue" points="749.43,-114.45 759.83,-112.44 750.45,-107.53 749.43,-114.45"/>
</g>
<!-- Node16&#45;&gt;Node15 -->
<g id="edge19" class="edge">
<title>Node16&#45;&gt;Node15</title>
<path fill="none" stroke="midnightblue" d="M450.99,-45.8C450.99,-36.91 450.99,-26.78 450.99,-19.75"/>
<polygon fill="midnightblue" stroke="midnightblue" points="447.49,-46.08 450.99,-56.08 454.49,-46.08 447.49,-46.08"/>
</g>
<!-- Node17&#45;&gt;Node8 -->
<g id="edge23" class="edge">
<title>Node17&#45;&gt;Node8</title>
<path fill="none" stroke="midnightblue" d="M1325.57,-110.47C1273.79,-100.27 1196.22,-84.98 1148.2,-75.52"/>
<polygon fill="midnightblue" stroke="midnightblue" points="1325.08,-113.94 1335.57,-112.44 1326.44,-107.08 1325.08,-113.94"/>
</g>
<!-- Node18 -->
<g id="node18" class="node">
<title>Node18</title>
<g id="a_node18"><a xlink:href="flashledcommand_8cpp_source.html" target="_top" xlink:title=" ">
<polygon fill="none" stroke="black" points="1475.99,-56.5 1475.99,-75.5 1599.99,-75.5 1599.99,-56.5 1475.99,-56.5"/>
<text text-anchor="middle" x="1537.99" y="-63.5" font-family="Helvetica,sans-Serif" font-size="10.00">flashledcommand.cpp</text>
</a>
</g>
</g>
<!-- Node17&#45;&gt;Node18 -->
<g id="edge22" class="edge">
<title>Node17&#45;&gt;Node18</title>
<path fill="none" stroke="midnightblue" d="M1413.81,-109.17C1443.75,-99 1486.21,-84.59 1512.91,-75.52"/>
<polygon fill="midnightblue" stroke="midnightblue" points="1412.52,-105.91 1404.18,-112.44 1414.77,-112.54 1412.52,-105.91"/>
</g>
<!-- Node19 -->
<g id="node19" class="node">
<title>Node19</title>
<g id="a_node19"><a xlink:href="pokitdiscoveryagent_8cpp.html" target="_top" xlink:title="Defines the PokitDiscoveryAgent and PokitDiscoveryAgentPrivate classes.">
<polygon fill="none" stroke="black" points="1898.49,-56.5 1898.49,-75.5 2035.49,-75.5 2035.49,-56.5 1898.49,-56.5"/>
<text text-anchor="middle" x="1966.99" y="-63.5" font-family="Helvetica,sans-Serif" font-size="10.00">pokitdiscoveryagent.cpp</text>
</a>
</g>
</g>
<!-- Node17&#45;&gt;Node19 -->
<g id="edge24" class="edge">
<title>Node17&#45;&gt;Node19</title>
<path fill="none" stroke="midnightblue" d="M1434.98,-116.25C1548.46,-106.59 1802.16,-84.84 1888.99,-76 1891.97,-75.7 1895.02,-75.38 1898.09,-75.05"/>
<polygon fill="midnightblue" stroke="midnightblue" points="1434.43,-112.78 1424.77,-117.12 1435.03,-119.76 1434.43,-112.78"/>
</g>
<!-- Node20 -->
<g id="node20" class="node">
<title>Node20</title>
<g id="a_node20"><a xlink:href="setnamecommand_8cpp_source.html" target="_top" xlink:title=" ">
<polygon fill="none" stroke="black" points="1617.99,-56.5 1617.99,-75.5 1745.99,-75.5 1745.99,-56.5 1617.99,-56.5"/>
<text text-anchor="middle" x="1681.99" y="-63.5" font-family="Helvetica,sans-Serif" font-size="10.00">setnamecommand.cpp</text>
</a>
</g>
</g>
<!-- Node17&#45;&gt;Node20 -->
<g id="edge25" class="edge">
<title>Node17&#45;&gt;Node20</title>
<path fill="none" stroke="midnightblue" d="M1434.63,-111.08C1491.84,-100.89 1580,-85.18 1634.17,-75.52"/>
<polygon fill="midnightblue" stroke="midnightblue" points="1433.91,-107.66 1424.68,-112.86 1435.14,-114.55 1433.91,-107.66"/>
</g>
<!-- Node21 -->
<g id="node21" class="node">
<title>Node21</title>
<g id="a_node21"><a xlink:href="statuscommand_8cpp_source.html" target="_top" xlink:title=" ">
<polygon fill="none" stroke="black" points="1763.99,-56.5 1763.99,-75.5 1879.99,-75.5 1879.99,-56.5 1763.99,-56.5"/>
<text text-anchor="middle" x="1821.99" y="-63.5" font-family="Helvetica,sans-Serif" font-size="10.00">statuscommand.cpp</text>
</a>
</g>
</g>
<!-- Node17&#45;&gt;Node21 -->
<g id="edge26" class="edge">
<title>Node17&#45;&gt;Node21</title>
<path fill="none" stroke="midnightblue" d="M1434.69,-114.59C1508.12,-106.08 1641.31,-90.44 1754.99,-76 1757.9,-75.63 1760.88,-75.25 1763.89,-74.86"/>
<polygon fill="midnightblue" stroke="midnightblue" points="1434.27,-111.11 1424.74,-115.74 1435.07,-118.07 1434.27,-111.11"/>
</g>
<!-- Node22 -->
<g id="node22" class="node">
<title>Node22</title>
<g id="a_node22"><a xlink:href="statusservice_8cpp.html" target="_top" xlink:title="Defines the StatusService and StatusServicePrivate classes.">
<polygon fill="none" stroke="black" points="937.99,-0.5 937.99,-19.5 1039.99,-19.5 1039.99,-0.5 937.99,-0.5"/>
<text text-anchor="middle" x="988.99" y="-7.5" font-family="Helvetica,sans-Serif" font-size="10.00">statusservice.cpp</text>
</a>
</g>
</g>
<!-- Node17&#45;&gt;Node22 -->
<g id="edge27" class="edge">
<title>Node17&#45;&gt;Node22</title>
<path fill="none" stroke="midnightblue" d="M1365.74,-104.36C1352.57,-89.09 1330.93,-67.2 1306.99,-56 1260.71,-34.36 1117.74,-20.64 1040.22,-14.59"/>
<polygon fill="midnightblue" stroke="midnightblue" points="1363.06,-106.61 1372.14,-112.05 1368.44,-102.13 1363.06,-106.61"/>
</g>
<!-- Node23 -->
<g id="node23" class="node">
<title>Node23</title>
<g id="a_node23"><a xlink:href="statusservice__p_8h.html" target="_top" xlink:title="Declares the StatusServicePrivate class.">
<polygon fill="none" stroke="black" points="937.99,-56.5 937.99,-75.5 1039.99,-75.5 1039.99,-56.5 937.99,-56.5"/>
<text text-anchor="middle" x="988.99" y="-63.5" font-family="Helvetica,sans-Serif" font-size="10.00">statusservice_p.h</text>
</a>
</g>
</g>
<!-- Node17&#45;&gt;Node23 -->
<g id="edge28" class="edge">
<title>Node17&#45;&gt;Node23</title>
<path fill="none" stroke="midnightblue" d="M1323.19,-113.62C1257.55,-104.89 1145.29,-89.79 1048.99,-76 1046.07,-75.58 1043.07,-75.15 1040.04,-74.71"/>
<polygon fill="midnightblue" stroke="midnightblue" points="1322.94,-117.12 1333.32,-114.97 1323.87,-110.18 1322.94,-117.12"/>
</g>
<!-- Node23&#45;&gt;Node22 -->
<g id="edge29" class="edge">
<title>Node23&#45;&gt;Node22</title>
<path fill="none" stroke="midnightblue" d="M988.99,-45.8C988.99,-36.91 988.99,-26.78 988.99,-19.75"/>
<polygon fill="midnightblue" stroke="midnightblue" points="985.49,-46.08 988.99,-56.08 992.49,-46.08 985.49,-46.08"/>
</g>
<!-- Node24&#45;&gt;Node3 -->
<g id="edge31" class="edge">
<title>Node24&#45;&gt;Node3</title>
<path fill="none" stroke="midnightblue" d="M579.44,-110.92C513.13,-100.71 411.75,-85.12 349.34,-75.52"/>
<polygon fill="midnightblue" stroke="midnightblue" points="578.95,-114.38 589.37,-112.44 580.02,-107.46 578.95,-114.38"/>
</g>
<!-- Node24&#45;&gt;Node7 -->
<g id="edge32" class="edge">
<title>Node24&#45;&gt;Node7</title>
<path fill="none" stroke="midnightblue" d="M643.24,-102.1C642.41,-93.14 641.45,-82.86 640.8,-75.75"/>
<polygon fill="midnightblue" stroke="midnightblue" points="639.75,-102.45 644.16,-112.08 646.72,-101.8 639.75,-102.45"/>
</g>
<!-- Node24&#45;&gt;Node12 -->
<g id="edge33" class="edge">
<title>Node24&#45;&gt;Node12</title>
<path fill="none" stroke="midnightblue" d="M682.46,-109.44C715.46,-99.26 762.74,-84.66 792.39,-75.52"/>
<polygon fill="midnightblue" stroke="midnightblue" points="681.24,-106.15 672.72,-112.44 683.3,-112.84 681.24,-106.15"/>
</g>
<!-- Node24&#45;&gt;Node16 -->
<g id="edge34" class="edge">
<title>Node24&#45;&gt;Node16</title>
<path fill="none" stroke="midnightblue" d="M604.38,-109.7C567.77,-99.51 514.73,-84.74 481.58,-75.52"/>
<polygon fill="midnightblue" stroke="midnightblue" points="603.67,-113.13 614.25,-112.44 605.55,-106.39 603.67,-113.13"/>
</g>
<!-- Node24&#45;&gt;Node23 -->
<g id="edge35" class="edge">
<title>Node24&#45;&gt;Node23</title>
<path fill="none" stroke="midnightblue" d="M709.38,-110.89C775.48,-100.52 877.01,-84.58 937.82,-75.03"/>
<polygon fill="midnightblue" stroke="midnightblue" points="708.83,-107.44 699.49,-112.44 709.92,-114.35 708.83,-107.44"/>
</g>
<!-- Node25&#45;&gt;Node3 -->
<g id="edge37" class="edge">
<title>Node25&#45;&gt;Node3</title>
<path fill="none" stroke="midnightblue" d="M221.32,-107.45C239.23,-97.48 263.04,-84.23 278.44,-75.65"/>
<polygon fill="midnightblue" stroke="midnightblue" points="219.61,-104.4 212.57,-112.32 223.01,-110.52 219.61,-104.4"/>
</g>
<!-- Node25&#45;&gt;Node6 -->
<g id="edge38" class="edge">
<title>Node25&#45;&gt;Node6</title>
<path fill="none" stroke="midnightblue" d="M150.22,-119.41C81.79,-115.53 -33.06,-102.13 9.99,-56 49.5,-13.66 472.23,-24.36 529.99,-20 545.46,-18.83 562.16,-17.5 577.75,-16.23"/>
<polygon fill="midnightblue" stroke="midnightblue" points="150.19,-122.92 160.36,-119.94 150.56,-115.93 150.19,-122.92"/>
</g>
<!-- Node25&#45;&gt;Node8 -->
<g id="edge42" class="edge">
<title>Node25&#45;&gt;Node8</title>
<path fill="none" stroke="midnightblue" d="M243.93,-120.28C372.85,-117.91 743.12,-108.56 1048.99,-76 1051.92,-75.69 1054.94,-75.32 1057.98,-74.93"/>
<polygon fill="midnightblue" stroke="midnightblue" points="243.57,-116.78 233.63,-120.46 243.7,-123.78 243.57,-116.78"/>
</g>
<!-- Node25&#45;&gt;Node11 -->
<g id="edge39" class="edge">
<title>Node25&#45;&gt;Node11</title>
<path fill="none" stroke="midnightblue" d="M185.62,-103.16C177.96,-88.66 171.21,-68.61 182.99,-56 223.13,-13.03 652.35,-24.42 710.99,-20 726.32,-18.84 742.87,-17.52 758.32,-16.25"/>
<polygon fill="midnightblue" stroke="midnightblue" points="182.79,-105.27 190.85,-112.15 188.84,-101.75 182.79,-105.27"/>
</g>
<!-- Node25&#45;&gt;Node15 -->
<g id="edge40" class="edge">
<title>Node25&#45;&gt;Node15</title>
<path fill="none" stroke="midnightblue" d="M172.94,-107.01C153.01,-93.67 130.17,-73.15 144.99,-56 174.78,-21.51 299.6,-12.97 380.33,-11.14"/>
<polygon fill="midnightblue" stroke="midnightblue" points="171.14,-110.01 181.46,-112.42 174.9,-104.1 171.14,-110.01"/>
</g>
<!-- Node25&#45;&gt;Node19 -->
<g id="edge43" class="edge">
<title>Node25&#45;&gt;Node19</title>
<path fill="none" stroke="midnightblue" d="M243.86,-119.87C508.31,-113.48 1804.79,-81.97 1888.99,-76 1891.98,-75.79 1895.03,-75.55 1898.11,-75.28"/>
<polygon fill="midnightblue" stroke="midnightblue" points="243.74,-116.37 233.82,-120.11 243.9,-123.37 243.74,-116.37"/>
</g>
<!-- Node25&#45;&gt;Node22 -->
<g id="edge44" class="edge">
<title>Node25&#45;&gt;Node22</title>
<path fill="none" stroke="midnightblue" d="M196.99,-101.89C198.11,-86.9 202.33,-66.82 215.99,-56 274.77,-9.44 815.18,-25.4 889.99,-20 905.56,-18.88 922.5,-17.42 937.89,-16.01"/>
<polygon fill="midnightblue" stroke="midnightblue" points="193.48,-102.01 196.63,-112.12 200.48,-102.25 193.48,-102.01"/>
</g>
<!-- Node26 -->
<g id="node26" class="node">
<title>Node26</title>
<g id="a_node26"><a xlink:href="logging_8cpp_source.html" target="_top" xlink:title=" ">
<polygon fill="none" stroke="black" points="19.49,-56.5 19.49,-75.5 92.49,-75.5 92.49,-56.5 19.49,-56.5"/>
<text text-anchor="middle" x="55.99" y="-63.5" font-family="Helvetica,sans-Serif" font-size="10.00">logging.cpp</text>
</a>
</g>
</g>
<!-- Node25&#45;&gt;Node26 -->
<g id="edge41" class="edge">
<title>Node25&#45;&gt;Node26</title>
<path fill="none" stroke="midnightblue" d="M165.06,-108.77C138.57,-98.63 101.59,-84.47 78.22,-75.52"/>
<polygon fill="midnightblue" stroke="midnightblue" points="164.05,-112.14 174.64,-112.44 166.56,-105.6 164.05,-112.14"/>
</g>
<!-- Node27&#45;&gt;Node5 -->
<g id="edge47" class="edge">
<title>Node27&#45;&gt;Node5</title>
<path fill="none" stroke="midnightblue" d="M1486.43,-111.84C1429.2,-101.68 1337.57,-85.4 1281.87,-75.51"/>
<polygon fill="midnightblue" stroke="midnightblue" points="1485.9,-115.3 1496.35,-113.6 1487.12,-108.41 1485.9,-115.3"/>
</g>
<!-- Node27&#45;&gt;Node8 -->
<g id="edge51" class="edge">
<title>Node27&#45;&gt;Node8</title>
<path fill="none" stroke="midnightblue" d="M1486.09,-115.48C1413.32,-107.58 1276.87,-92.22 1160.99,-76 1158.06,-75.59 1155.05,-75.15 1152.02,-74.7"/>
<polygon fill="midnightblue" stroke="midnightblue" points="1486.04,-118.99 1496.35,-116.59 1486.79,-112.03 1486.04,-118.99"/>
</g>
<!-- Node27&#45;&gt;Node9 -->
<g id="edge48" class="edge">
<title>Node27&#45;&gt;Node9</title>
<path fill="none" stroke="midnightblue" d="M1589.75,-119.32C1714.55,-114.97 2041.87,-101.86 2313.99,-76 2316.83,-75.73 2319.74,-75.43 2322.68,-75.11"/>
<polygon fill="midnightblue" stroke="midnightblue" points="1589.58,-115.82 1579.71,-119.66 1589.82,-122.82 1589.58,-115.82"/>
</g>
<!-- Node27&#45;&gt;Node13 -->
<g id="edge50" class="edge">
<title>Node27&#45;&gt;Node13</title>
<path fill="none" stroke="midnightblue" d="M1507.77,-108.64C1483,-98.5 1448.59,-84.43 1426.8,-75.52"/>
<polygon fill="midnightblue" stroke="midnightblue" points="1506.49,-111.9 1517.07,-112.44 1509.14,-105.42 1506.49,-111.9"/>
</g>
<!-- Node27&#45;&gt;Node18 -->
<g id="edge49" class="edge">
<title>Node27&#45;&gt;Node18</title>
<path fill="none" stroke="midnightblue" d="M1537.99,-101.8C1537.99,-92.91 1537.99,-82.78 1537.99,-75.75"/>
<polygon fill="midnightblue" stroke="midnightblue" points="1534.49,-102.08 1537.99,-112.08 1541.49,-102.08 1534.49,-102.08"/>
</g>
<!-- Node27&#45;&gt;Node20 -->
<g id="edge52" class="edge">
<title>Node27&#45;&gt;Node20</title>
<path fill="none" stroke="midnightblue" d="M1570.24,-108.91C1597.31,-98.75 1635.3,-84.51 1659.28,-75.52"/>
<polygon fill="midnightblue" stroke="midnightblue" points="1568.94,-105.66 1560.8,-112.44 1571.4,-112.21 1568.94,-105.66"/>
</g>
<!-- Node27&#45;&gt;Node21 -->
<g id="edge53" class="edge">
<title>Node27&#45;&gt;Node21</title>
<path fill="none" stroke="midnightblue" d="M1589.56,-111.19C1643.1,-101.01 1726.02,-85.25 1776.99,-75.56"/>
<polygon fill="midnightblue" stroke="midnightblue" points="1588.76,-107.78 1579.59,-113.09 1590.06,-114.66 1588.76,-107.78"/>
</g>
<!-- Node28 -->
<g id="node28" class="node">
<title>Node28</title>
<g id="a_node28"><a xlink:href="abstractcommand_8cpp_source.html" target="_top" xlink:title=" ">
<polygon fill="none" stroke="black" points="2053.49,-56.5 2053.49,-75.5 2178.49,-75.5 2178.49,-56.5 2053.49,-56.5"/>
<text text-anchor="middle" x="2115.99" y="-63.5" font-family="Helvetica,sans-Serif" font-size="10.00">abstractcommand.cpp</text>
</a>
</g>
</g>
<!-- Node27&#45;&gt;Node28 -->
<g id="edge46" class="edge">
<title>Node27&#45;&gt;Node28</title>
<path fill="none" stroke="midnightblue" d="M1589.92,-117.04C1681.79,-109.89 1878.96,-93.88 2044.99,-76 2047.7,-75.71 2050.48,-75.4 2053.28,-75.08"/>
<polygon fill="midnightblue" stroke="midnightblue" points="1589.47,-113.56 1579.77,-117.83 1590.01,-120.54 1589.47,-113.56"/>
</g>
<!-- Node29&#45;&gt;Node8 -->
<g id="edge55" class="edge">
<title>Node29&#45;&gt;Node8</title>
<path fill="none" stroke="midnightblue" d="M1204.17,-160C1194.25,-146.3 1179.27,-126.94 1163.99,-112 1149.61,-97.96 1130.85,-84.32 1118.38,-75.81"/>
<polygon fill="midnightblue" stroke="midnightblue" points="1201.53,-162.33 1210.18,-168.45 1207.24,-158.27 1201.53,-162.33"/>
</g>
<!-- Node30&#45;&gt;Node9 -->
<g id="edge58" class="edge">
<title>Node30&#45;&gt;Node9</title>
<path fill="none" stroke="midnightblue" d="M2168.15,-110.41C2218.42,-100.2 2293.52,-84.96 2340.03,-75.52"/>
<polygon fill="midnightblue" stroke="midnightblue" points="2167.24,-107.02 2158.13,-112.44 2168.63,-113.88 2167.24,-107.02"/>
</g>
<!-- Node30&#45;&gt;Node19 -->
<g id="edge59" class="edge">
<title>Node30&#45;&gt;Node19</title>
<path fill="none" stroke="midnightblue" d="M2082.62,-108.91C2054.6,-98.75 2015.29,-84.51 1990.49,-75.52"/>
<polygon fill="midnightblue" stroke="midnightblue" points="2081.78,-112.33 2092.38,-112.44 2084.17,-105.75 2081.78,-112.33"/>
</g>
<!-- Node30&#45;&gt;Node28 -->
<g id="edge57" class="edge">
<title>Node30&#45;&gt;Node28</title>
<path fill="none" stroke="midnightblue" d="M2115.99,-101.8C2115.99,-92.91 2115.99,-82.78 2115.99,-75.75"/>
<polygon fill="midnightblue" stroke="midnightblue" points="2112.49,-102.08 2115.99,-112.08 2119.49,-102.08 2112.49,-102.08"/>
</g>
<!-- Node31 -->
<g id="node31" class="node">
<title>Node31</title>
<g id="a_node31"><a xlink:href="scancommand_8cpp_source.html" target="_top" xlink:title=" ">
<polygon fill="none" stroke="black" points="2196.99,-56.5 2196.99,-75.5 2304.99,-75.5 2304.99,-56.5 2196.99,-56.5"/>
<text text-anchor="middle" x="2250.99" y="-63.5" font-family="Helvetica,sans-Serif" font-size="10.00">scancommand.cpp</text>
</a>
</g>
</g>
<!-- Node30&#45;&gt;Node31 -->
<g id="edge60" class="edge">
<title>Node30&#45;&gt;Node31</title>
<path fill="none" stroke="midnightblue" d="M2146.89,-108.64C2172.23,-98.5 2207.42,-84.43 2229.7,-75.52"/>
<polygon fill="midnightblue" stroke="midnightblue" points="2145.36,-105.48 2137.38,-112.44 2147.96,-111.98 2145.36,-105.48"/>
</g>
<!-- Node32&#45;&gt;Node19 -->
<g id="edge62" class="edge">
<title>Node32&#45;&gt;Node19</title>
<path fill="none" stroke="midnightblue" d="M1813.37,-163.01C1850.32,-139.92 1922.97,-94.51 1953.24,-75.59"/>
<polygon fill="midnightblue" stroke="midnightblue" points="1811.42,-160.1 1804.8,-168.37 1815.13,-166.04 1811.42,-160.1"/>
</g>
</g>
</svg>
