<?xml version="1.0" encoding="UTF-8" standalone="no"?>
<!DOCTYPE svg PUBLIC "-//W3C//DTD SVG 1.1//EN"
 "http://www.w3.org/Graphics/SVG/1.1/DTD/svg11.dtd">
<!-- Generated by graphviz version 2.43.0 (0)
 -->
<!-- Title: qtpokit_global.h Pages: 1 -->
<svg width="1545pt" height="252pt"
 viewBox="0.00 0.00 1545.00 252.00" xmlns="http://www.w3.org/2000/svg" xmlns:xlink="http://www.w3.org/1999/xlink">
<g id="graph0" class="graph" transform="scale(1 1) rotate(0) translate(4 248)">
<title>qtpokit_global.h</title>
<!-- Node1 -->
<g id="node1" class="node">
<title>Node1</title>
<g id="a_node1"><a xlink:title="Global QtPokit library macros.">
<polygon fill="#bfbfbf" stroke="black" points="1000.5,-224.5 1000.5,-243.5 1095.5,-243.5 1095.5,-224.5 1000.5,-224.5"/>
<text text-anchor="middle" x="1048" y="-231.5" font-family="Helvetica,sans-Serif" font-size="10.00">qtpokit_global.h</text>
</a>
</g>
</g>
<!-- Node2 -->
<g id="node2" class="node">
<title>Node2</title>
<g id="a_node2"><a xlink:href="abstractpokitservice_8h.html" target="_top" xlink:title="Declares the AbstractPokitService class.">
<polygon fill="none" stroke="black" points="627.5,-168.5 627.5,-187.5 752.5,-187.5 752.5,-168.5 627.5,-168.5"/>
<text text-anchor="middle" x="690" y="-175.5" font-family="Helvetica,sans-Serif" font-size="10.00">abstractpokitservice.h</text>
</a>
</g>
</g>
<!-- Node1&#45;&gt;Node2 -->
<g id="edge1" class="edge">
<title>Node1&#45;&gt;Node2</title>
<path fill="none" stroke="midnightblue" d="M990.48,-224.32C923.42,-214.21 813.27,-197.59 746.6,-187.54"/>
<polygon fill="midnightblue" stroke="midnightblue" points="990.05,-227.8 1000.46,-225.83 991.09,-220.88 990.05,-227.8"/>
</g>
<!-- Node13 -->
<g id="node13" class="node">
<title>Node13</title>
<g id="a_node13"><a xlink:href="abstractpokitservice__p_8h.html" target="_top" xlink:title="Declares the AbstractPokitServicePrivate class.">
<polygon fill="none" stroke="black" points="472.5,-168.5 472.5,-187.5 609.5,-187.5 609.5,-168.5 472.5,-168.5"/>
<text text-anchor="middle" x="541" y="-175.5" font-family="Helvetica,sans-Serif" font-size="10.00">abstractpokitservice_p.h</text>
</a>
</g>
</g>
<!-- Node1&#45;&gt;Node13 -->
<g id="edge13" class="edge">
<title>Node1&#45;&gt;Node13</title>
<path fill="none" stroke="midnightblue" d="M990.07,-227.16C907.46,-218.79 751.07,-202.74 618,-188 615.32,-187.7 612.6,-187.4 609.84,-187.09"/>
<polygon fill="midnightblue" stroke="midnightblue" points="989.95,-230.67 1000.26,-228.19 990.66,-223.7 989.95,-230.67"/>
</g>
<!-- Node14 -->
<g id="node14" class="node">
<title>Node14</title>
<g id="a_node14"><a xlink:href="logging__p_8h.html" target="_top" xlink:title="QtPokit logging categories.">
<polygon fill="none" stroke="black" points="1011.5,-168.5 1011.5,-187.5 1084.5,-187.5 1084.5,-168.5 1011.5,-168.5"/>
<text text-anchor="middle" x="1048" y="-175.5" font-family="Helvetica,sans-Serif" font-size="10.00">logging_p.h</text>
</a>
</g>
</g>
<!-- Node1&#45;&gt;Node14 -->
<g id="edge16" class="edge">
<title>Node1&#45;&gt;Node14</title>
<path fill="none" stroke="midnightblue" d="M1048,-213.8C1048,-204.91 1048,-194.78 1048,-187.75"/>
<polygon fill="midnightblue" stroke="midnightblue" points="1044.5,-214.08 1048,-224.08 1051.5,-214.08 1044.5,-214.08"/>
</g>
<!-- Node17 -->
<g id="node17" class="node">
<title>Node17</title>
<g id="a_node17"><a xlink:href="pokitdevice_8h.html" target="_top" xlink:title="Declares the PokitDevice class.">
<polygon fill="none" stroke="black" points="719.5,-112.5 719.5,-131.5 802.5,-131.5 802.5,-112.5 719.5,-112.5"/>
<text text-anchor="middle" x="761" y="-119.5" font-family="Helvetica,sans-Serif" font-size="10.00">pokitdevice.h</text>
</a>
</g>
</g>
<!-- Node1&#45;&gt;Node17 -->
<g id="edge23" class="edge">
<title>Node1&#45;&gt;Node17</title>
<path fill="none" stroke="midnightblue" d="M992.59,-222.32C958.29,-214.79 913.75,-203.3 876,-188 836.68,-172.06 794.13,-145.21 773.56,-131.55"/>
<polygon fill="midnightblue" stroke="midnightblue" points="991.91,-225.76 1002.43,-224.44 993.38,-218.92 991.91,-225.76"/>
</g>
<!-- Node20 -->
<g id="node20" class="node">
<title>Node20</title>
<g id="a_node20"><a xlink:href="pokitdevice__p_8h.html" target="_top" xlink:title="Declares the PokitDevicePrivate class.">
<polygon fill="none" stroke="black" points="885,-168.5 885,-187.5 979,-187.5 979,-168.5 885,-168.5"/>
<text text-anchor="middle" x="932" y="-175.5" font-family="Helvetica,sans-Serif" font-size="10.00">pokitdevice_p.h</text>
</a>
</g>
</g>
<!-- Node1&#45;&gt;Node20 -->
<g id="edge31" class="edge">
<title>Node1&#45;&gt;Node20</title>
<path fill="none" stroke="midnightblue" d="M1020.28,-220.1C998.61,-210.01 969.1,-196.27 950.29,-187.52"/>
<polygon fill="midnightblue" stroke="midnightblue" points="1019.08,-223.4 1029.62,-224.44 1022.03,-217.05 1019.08,-223.4"/>
</g>
<!-- Node21 -->
<g id="node21" class="node">
<title>Node21</title>
<g id="a_node21"><a xlink:href="pokitdevicedisoveryagent_8h.html" target="_top" xlink:title="Declares the PokitDeviceDiscoveryAgent class.">
<polygon fill="none" stroke="black" points="1187,-168.5 1187,-187.5 1339,-187.5 1339,-168.5 1187,-168.5"/>
<text text-anchor="middle" x="1263" y="-175.5" font-family="Helvetica,sans-Serif" font-size="10.00">pokitdevicedisoveryagent.h</text>
</a>
</g>
</g>
<!-- Node1&#45;&gt;Node21 -->
<g id="edge33" class="edge">
<title>Node1&#45;&gt;Node21</title>
<path fill="none" stroke="midnightblue" d="M1091.96,-221.96C1132.57,-211.76 1192.04,-196.82 1229.09,-187.52"/>
<polygon fill="midnightblue" stroke="midnightblue" points="1090.91,-218.61 1082.07,-224.44 1092.62,-225.4 1090.91,-218.61"/>
</g>
<!-- Node23 -->
<g id="node23" class="node">
<title>Node23</title>
<g id="a_node23"><a xlink:href="pokitdevicedisoveryagent__p_8h.html" target="_top" xlink:title="Declares the PokitDeviceDiscoveryAgentPrivate class.">
<polygon fill="none" stroke="black" points="1373,-112.5 1373,-131.5 1537,-131.5 1537,-112.5 1373,-112.5"/>
<text text-anchor="middle" x="1455" y="-119.5" font-family="Helvetica,sans-Serif" font-size="10.00">pokitdevicedisoveryagent_p.h</text>
</a>
</g>
</g>
<!-- Node1&#45;&gt;Node23 -->
<g id="edge36" class="edge">
<title>Node1&#45;&gt;Node23</title>
<path fill="none" stroke="midnightblue" d="M1105.98,-231.07C1167.65,-227.49 1267.25,-217.24 1348,-188 1367.72,-180.86 1418.52,-147.54 1442.33,-131.57"/>
<polygon fill="midnightblue" stroke="midnightblue" points="1105.46,-227.6 1095.67,-231.63 1105.84,-234.59 1105.46,-227.6"/>
</g>
<!-- Node24 -->
<g id="node24" class="node">
<title>Node24</title>
<g id="a_node24"><a xlink:href="utils_8h.html" target="_top" xlink:title="Declares some simple general purpose, utility functions used by QtPokit.">
<polygon fill="none" stroke="black" points="1121.5,-168.5 1121.5,-187.5 1168.5,-187.5 1168.5,-168.5 1121.5,-168.5"/>
<text text-anchor="middle" x="1145" y="-175.5" font-family="Helvetica,sans-Serif" font-size="10.00">utils.h</text>
</a>
</g>
</g>
<!-- Node1&#45;&gt;Node24 -->
<g id="edge38" class="edge">
<title>Node1&#45;&gt;Node24</title>
<path fill="none" stroke="midnightblue" d="M1072.34,-219.45C1090.24,-209.48 1114.05,-196.23 1129.45,-187.65"/>
<polygon fill="midnightblue" stroke="midnightblue" points="1070.62,-216.4 1063.58,-224.32 1074.02,-222.52 1070.62,-216.4"/>
</g>
<!-- Node25 -->
<g id="node25" class="node">
<title>Node25</title>
<g id="a_node25"><a xlink:href="uuids_8h.html" target="_top" xlink:title="Define official UUIDs from Pokit&#39;s Bluetooth API Definition document.">
<polygon fill="none" stroke="black" points="1395,-168.5 1395,-187.5 1447,-187.5 1447,-168.5 1395,-168.5"/>
<text text-anchor="middle" x="1421" y="-175.5" font-family="Helvetica,sans-Serif" font-size="10.00">uuids.h</text>
</a>
</g>
</g>
<!-- Node1&#45;&gt;Node25 -->
<g id="edge41" class="edge">
<title>Node1&#45;&gt;Node25</title>
<path fill="none" stroke="midnightblue" d="M1105.92,-226.72C1172.53,-219.14 1285.08,-205.24 1381,-188 1385.48,-187.19 1390.23,-186.23 1394.82,-185.23"/>
<polygon fill="midnightblue" stroke="midnightblue" points="1105.17,-223.28 1095.63,-227.88 1105.96,-230.24 1105.17,-223.28"/>
</g>
<!-- Node3 -->
<g id="node3" class="node">
<title>Node3</title>
<g id="a_node3"><a xlink:href="abstractpokitservice_8cpp.html" target="_top" xlink:title="Defines the AbstractPokitService and AbstractPokitServicePrivate classes.">
<polygon fill="none" stroke="black" points="564.5,-112.5 564.5,-131.5 701.5,-131.5 701.5,-112.5 564.5,-112.5"/>
<text text-anchor="middle" x="633" y="-119.5" font-family="Helvetica,sans-Serif" font-size="10.00">abstractpokitservice.cpp</text>
</a>
</g>
</g>
<!-- Node2&#45;&gt;Node3 -->
<g id="edge2" class="edge">
<title>Node2&#45;&gt;Node3</title>
<path fill="none" stroke="midnightblue" d="M673.38,-161.25C663.27,-151.67 650.72,-139.79 642.32,-131.83"/>
<polygon fill="midnightblue" stroke="midnightblue" points="671.18,-163.99 680.84,-168.32 675.99,-158.91 671.18,-163.99"/>
</g>
<!-- Node4 -->
<g id="node4" class="node">
<title>Node4</title>
<g id="a_node4"><a xlink:href="statusservice_8h.html" target="_top" xlink:title="Declares the StatusService class.">
<polygon fill="none" stroke="black" points="430.5,-112.5 430.5,-131.5 521.5,-131.5 521.5,-112.5 430.5,-112.5"/>
<text text-anchor="middle" x="476" y="-119.5" font-family="Helvetica,sans-Serif" font-size="10.00">statusservice.h</text>
</a>
</g>
</g>
<!-- Node2&#45;&gt;Node4 -->
<g id="edge3" class="edge">
<title>Node2&#45;&gt;Node4</title>
<path fill="none" stroke="midnightblue" d="M646.24,-165.96C605.83,-155.76 546.63,-140.82 509.75,-131.52"/>
<polygon fill="midnightblue" stroke="midnightblue" points="645.54,-169.39 656.09,-168.44 647.25,-162.6 645.54,-169.39"/>
</g>
<!-- Node5 -->
<g id="node5" class="node">
<title>Node5</title>
<g id="a_node5"><a xlink:href="flashledcommand_8cpp_source.html" target="_top" xlink:title=" ">
<polygon fill="none" stroke="black" points="414,-56.5 414,-75.5 538,-75.5 538,-56.5 414,-56.5"/>
<text text-anchor="middle" x="476" y="-63.5" font-family="Helvetica,sans-Serif" font-size="10.00">flashledcommand.cpp</text>
</a>
</g>
</g>
<!-- Node4&#45;&gt;Node5 -->
<g id="edge4" class="edge">
<title>Node4&#45;&gt;Node5</title>
<path fill="none" stroke="midnightblue" d="M476,-101.8C476,-92.91 476,-82.78 476,-75.75"/>
<polygon fill="midnightblue" stroke="midnightblue" points="472.5,-102.08 476,-112.08 479.5,-102.08 472.5,-102.08"/>
</g>
<!-- Node6 -->
<g id="node6" class="node">
<title>Node6</title>
<g id="a_node6"><a xlink:href="infocommand_8cpp_source.html" target="_top" xlink:title=" ">
<polygon fill="none" stroke="black" points="292,-56.5 292,-75.5 396,-75.5 396,-56.5 292,-56.5"/>
<text text-anchor="middle" x="344" y="-63.5" font-family="Helvetica,sans-Serif" font-size="10.00">infocommand.cpp</text>
</a>
</g>
</g>
<!-- Node4&#45;&gt;Node6 -->
<g id="edge5" class="edge">
<title>Node4&#45;&gt;Node6</title>
<path fill="none" stroke="midnightblue" d="M445.78,-108.64C421.01,-98.5 386.6,-84.43 364.82,-75.52"/>
<polygon fill="midnightblue" stroke="midnightblue" points="444.5,-111.9 455.08,-112.44 447.15,-105.42 444.5,-111.9"/>
</g>
<!-- Node7 -->
<g id="node7" class="node">
<title>Node7</title>
<g id="a_node7"><a xlink:href="pokitdevice_8cpp.html" target="_top" xlink:title="Defines the PokitDevice and PokitDevicePrivate classes.">
<polygon fill="none" stroke="black" points="982,-56.5 982,-75.5 1076,-75.5 1076,-56.5 982,-56.5"/>
<text text-anchor="middle" x="1029" y="-63.5" font-family="Helvetica,sans-Serif" font-size="10.00">pokitdevice.cpp</text>
</a>
</g>
</g>
<!-- Node4&#45;&gt;Node7 -->
<g id="edge6" class="edge">
<title>Node4&#45;&gt;Node7</title>
<path fill="none" stroke="midnightblue" d="M531.69,-114.46C539.51,-113.6 547.46,-112.75 555,-112 740.54,-93.45 787.93,-98.81 973,-76 975.93,-75.64 978.95,-75.24 981.98,-74.81"/>
<polygon fill="midnightblue" stroke="midnightblue" points="531.06,-111.01 521.51,-115.6 531.84,-117.97 531.06,-111.01"/>
</g>
<!-- Node8 -->
<g id="node8" class="node">
<title>Node8</title>
<g id="a_node8"><a xlink:href="pokitdevicedisoveryagent_8cpp.html" target="_top" xlink:title="Defines the PokitDeviceDiscoveryAgent and PokitDeviceDiscoveryAgentPrivate classes.">
<polygon fill="none" stroke="black" points="1198,-56.5 1198,-75.5 1362,-75.5 1362,-56.5 1198,-56.5"/>
<text text-anchor="middle" x="1280" y="-63.5" font-family="Helvetica,sans-Serif" font-size="10.00">pokitdevicedisoveryagent.cpp</text>
</a>
</g>
</g>
<!-- Node4&#45;&gt;Node8 -->
<g id="edge7" class="edge">
<title>Node4&#45;&gt;Node8</title>
<path fill="none" stroke="midnightblue" d="M531.97,-114.26C539.7,-113.44 547.54,-112.66 555,-112 787.72,-91.53 1063.28,-77.12 1197.81,-70.72"/>
<polygon fill="midnightblue" stroke="midnightblue" points="531.47,-110.8 521.91,-115.37 532.23,-117.75 531.47,-110.8"/>
</g>
<!-- Node9 -->
<g id="node9" class="node">
<title>Node9</title>
<g id="a_node9"><a xlink:href="setnamecommand_8cpp_source.html" target="_top" xlink:title=" ">
<polygon fill="none" stroke="black" points="556,-56.5 556,-75.5 684,-75.5 684,-56.5 556,-56.5"/>
<text text-anchor="middle" x="620" y="-63.5" font-family="Helvetica,sans-Serif" font-size="10.00">setnamecommand.cpp</text>
</a>
</g>
</g>
<!-- Node4&#45;&gt;Node9 -->
<g id="edge8" class="edge">
<title>Node4&#45;&gt;Node9</title>
<path fill="none" stroke="midnightblue" d="M508.25,-108.91C535.32,-98.75 573.32,-84.51 597.29,-75.52"/>
<polygon fill="midnightblue" stroke="midnightblue" points="506.95,-105.66 498.82,-112.44 509.41,-112.21 506.95,-105.66"/>
</g>
<!-- Node10 -->
<g id="node10" class="node">
<title>Node10</title>
<g id="a_node10"><a xlink:href="statuscommand_8cpp_source.html" target="_top" xlink:title=" ">
<polygon fill="none" stroke="black" points="158,-56.5 158,-75.5 274,-75.5 274,-56.5 158,-56.5"/>
<text text-anchor="middle" x="216" y="-63.5" font-family="Helvetica,sans-Serif" font-size="10.00">statuscommand.cpp</text>
</a>
</g>
</g>
<!-- Node4&#45;&gt;Node10 -->
<g id="edge9" class="edge">
<title>Node4&#45;&gt;Node10</title>
<path fill="none" stroke="midnightblue" d="M425.01,-110.41C375.87,-100.2 302.47,-84.96 257.01,-75.52"/>
<polygon fill="midnightblue" stroke="midnightblue" points="424.3,-113.84 434.8,-112.44 425.72,-106.98 424.3,-113.84"/>
</g>
<!-- Node11 -->
<g id="node11" class="node">
<title>Node11</title>
<g id="a_node11"><a xlink:href="statusservice_8cpp.html" target="_top" xlink:title="Defines the StatusService and StatusServicePrivate classes.">
<polygon fill="none" stroke="black" points="79,-0.5 79,-19.5 181,-19.5 181,-0.5 79,-0.5"/>
<text text-anchor="middle" x="130" y="-7.5" font-family="Helvetica,sans-Serif" font-size="10.00">statusservice.cpp</text>
</a>
</g>
</g>
<!-- Node4&#45;&gt;Node11 -->
<g id="edge10" class="edge">
<title>Node4&#45;&gt;Node11</title>
<path fill="none" stroke="midnightblue" d="M420.01,-120.44C337.45,-118.45 188.54,-110.09 149,-76 132.44,-61.72 129.91,-33.88 129.77,-19.72"/>
<polygon fill="midnightblue" stroke="midnightblue" points="420.15,-123.94 430.22,-120.66 420.3,-116.94 420.15,-123.94"/>
</g>
<!-- Node12 -->
<g id="node12" class="node">
<title>Node12</title>
<g id="a_node12"><a xlink:href="statusservice__p_8h.html" target="_top" xlink:title="Declares the StatusServicePrivate class.">
<polygon fill="none" stroke="black" points="0,-56.5 0,-75.5 102,-75.5 102,-56.5 0,-56.5"/>
<text text-anchor="middle" x="51" y="-63.5" font-family="Helvetica,sans-Serif" font-size="10.00">statusservice_p.h</text>
</a>
</g>
</g>
<!-- Node4&#45;&gt;Node12 -->
<g id="edge11" class="edge">
<title>Node4&#45;&gt;Node12</title>
<path fill="none" stroke="midnightblue" d="M420.19,-114.26C349.4,-105.65 223.58,-90.17 116,-76 111.48,-75.4 106.79,-74.78 102.09,-74.14"/>
<polygon fill="midnightblue" stroke="midnightblue" points="419.88,-117.74 430.23,-115.48 420.72,-110.79 419.88,-117.74"/>
</g>
<!-- Node12&#45;&gt;Node11 -->
<g id="edge12" class="edge">
<title>Node12&#45;&gt;Node11</title>
<path fill="none" stroke="midnightblue" d="M72.03,-50.62C86.47,-40.76 105.14,-27.99 117.34,-19.65"/>
<polygon fill="midnightblue" stroke="midnightblue" points="69.97,-47.79 63.69,-56.32 73.92,-53.57 69.97,-47.79"/>
</g>
<!-- Node13&#45;&gt;Node3 -->
<g id="edge14" class="edge">
<title>Node13&#45;&gt;Node3</title>
<path fill="none" stroke="midnightblue" d="M564.55,-163.18C581.48,-153.24 603.78,-140.15 618.26,-131.65"/>
<polygon fill="midnightblue" stroke="midnightblue" points="562.63,-160.24 555.78,-168.32 566.18,-166.28 562.63,-160.24"/>
</g>
<!-- Node13&#45;&gt;Node12 -->
<g id="edge15" class="edge">
<title>Node13&#45;&gt;Node12</title>
<path fill="none" stroke="midnightblue" d="M493.11,-166.25C395.91,-144.43 177.27,-95.35 89.02,-75.53"/>
<polygon fill="midnightblue" stroke="midnightblue" points="492.43,-169.68 502.96,-168.46 493.97,-162.85 492.43,-169.68"/>
</g>
<!-- Node14&#45;&gt;Node3 -->
<g id="edge17" class="edge">
<title>Node14&#45;&gt;Node3</title>
<path fill="none" stroke="midnightblue" d="M1001.01,-169.85C996.62,-169.21 992.23,-168.58 988,-168 888.61,-154.25 773.34,-139.94 701.78,-131.25"/>
<polygon fill="midnightblue" stroke="midnightblue" points="1000.81,-173.35 1011.21,-171.35 1001.83,-166.43 1000.81,-173.35"/>
</g>
<!-- Node14&#45;&gt;Node7 -->
<g id="edge19" class="edge">
<title>Node14&#45;&gt;Node7</title>
<path fill="none" stroke="midnightblue" d="M1044.78,-158.35C1040.62,-134.25 1033.54,-93.31 1030.48,-75.59"/>
<polygon fill="midnightblue" stroke="midnightblue" points="1041.36,-159.11 1046.51,-168.37 1048.26,-157.92 1041.36,-159.11"/>
</g>
<!-- Node14&#45;&gt;Node8 -->
<g id="edge20" class="edge">
<title>Node14&#45;&gt;Node8</title>
<path fill="none" stroke="midnightblue" d="M1063.02,-160.66C1077.37,-145.97 1100.27,-124.79 1124,-112 1157.5,-93.95 1199.05,-82.42 1230.84,-75.56"/>
<polygon fill="midnightblue" stroke="midnightblue" points="1060.34,-158.41 1055.98,-168.06 1065.41,-163.23 1060.34,-158.41"/>
</g>
<!-- Node14&#45;&gt;Node11 -->
<g id="edge21" class="edge">
<title>Node14&#45;&gt;Node11</title>
<path fill="none" stroke="midnightblue" d="M1057.3,-159.41C1072.43,-129.61 1099.3,-70.99 1085,-56 1053.58,-23.07 374.72,-13.53 181.12,-11.48"/>
<polygon fill="midnightblue" stroke="midnightblue" points="1054.18,-157.81 1052.7,-168.3 1060.4,-161.03 1054.18,-157.81"/>
</g>
<!-- Node15 -->
<g id="node15" class="node">
<title>Node15</title>
<g id="a_node15"><a xlink:href="logging_8cpp_source.html" target="_top" xlink:title=" ">
<polygon fill="none" stroke="black" points="927.5,-112.5 927.5,-131.5 1000.5,-131.5 1000.5,-112.5 927.5,-112.5"/>
<text text-anchor="middle" x="964" y="-119.5" font-family="Helvetica,sans-Serif" font-size="10.00">logging.cpp</text>
</a>
</g>
</g>
<!-- Node14&#45;&gt;Node15 -->
<g id="edge18" class="edge">
<title>Node14&#45;&gt;Node15</title>
<path fill="none" stroke="midnightblue" d="M1026.07,-162.9C1010.66,-153 990.55,-140.07 977.46,-131.65"/>
<polygon fill="midnightblue" stroke="midnightblue" points="1024.2,-165.86 1034.5,-168.32 1027.98,-159.97 1024.2,-165.86"/>
</g>
<!-- Node16 -->
<g id="node16" class="node">
<title>Node16</title>
<g id="a_node16"><a xlink:href="utils_8cpp.html" target="_top" xlink:title="Defines some simple general purpose, utility functions used by QtPokit.">
<polygon fill="none" stroke="black" points="1133,-112.5 1133,-131.5 1191,-131.5 1191,-112.5 1133,-112.5"/>
<text text-anchor="middle" x="1162" y="-119.5" font-family="Helvetica,sans-Serif" font-size="10.00">utils.cpp</text>
</a>
</g>
</g>
<!-- Node14&#45;&gt;Node16 -->
<g id="edge22" class="edge">
<title>Node14&#45;&gt;Node16</title>
<path fill="none" stroke="midnightblue" d="M1075.24,-164.1C1096.54,-154.01 1125.54,-140.27 1144.02,-131.52"/>
<polygon fill="midnightblue" stroke="midnightblue" points="1073.6,-161 1066.06,-168.44 1076.6,-167.33 1073.6,-161"/>
</g>
<!-- Node17&#45;&gt;Node5 -->
<g id="edge26" class="edge">
<title>Node17&#45;&gt;Node5</title>
<path fill="none" stroke="midnightblue" d="M709.25,-111.19C655.52,-101.01 572.31,-85.25 521.16,-75.56"/>
<polygon fill="midnightblue" stroke="midnightblue" points="708.78,-114.67 719.25,-113.09 710.08,-107.79 708.78,-114.67"/>
</g>
<!-- Node17&#45;&gt;Node6 -->
<g id="edge27" class="edge">
<title>Node17&#45;&gt;Node6</title>
<path fill="none" stroke="midnightblue" d="M709.31,-111.98C573.28,-92.21 537.14,-93.54 405,-76 402.13,-75.62 399.2,-75.22 396.23,-74.81"/>
<polygon fill="midnightblue" stroke="midnightblue" points="708.88,-115.45 719.28,-113.44 709.9,-108.53 708.88,-115.45"/>
</g>
<!-- Node17&#45;&gt;Node7 -->
<g id="edge28" class="edge">
<title>Node17&#45;&gt;Node7</title>
<path fill="none" stroke="midnightblue" d="M812.65,-110.59C863.19,-100.41 939.26,-85.08 986.44,-75.58"/>
<polygon fill="midnightblue" stroke="midnightblue" points="811.69,-107.22 802.58,-112.62 813.08,-114.08 811.69,-107.22"/>
</g>
<!-- Node17&#45;&gt;Node9 -->
<g id="edge29" class="edge">
<title>Node17&#45;&gt;Node9</title>
<path fill="none" stroke="midnightblue" d="M729.07,-108.77C702.59,-98.63 665.61,-84.47 642.24,-75.52"/>
<polygon fill="midnightblue" stroke="midnightblue" points="728.07,-112.14 738.66,-112.44 730.57,-105.6 728.07,-112.14"/>
</g>
<!-- Node17&#45;&gt;Node10 -->
<g id="edge30" class="edge">
<title>Node17&#45;&gt;Node10</title>
<path fill="none" stroke="midnightblue" d="M709.27,-112.03C519.43,-87.73 469.09,-96.33 283,-76 280.08,-75.68 277.1,-75.34 274.08,-74.98"/>
<polygon fill="midnightblue" stroke="midnightblue" points="708.93,-115.51 719.3,-113.32 709.83,-108.57 708.93,-115.51"/>
</g>
<!-- Node18 -->
<g id="node18" class="node">
<title>Node18</title>
<g id="a_node18"><a xlink:href="abstractcommand_8cpp_source.html" target="_top" xlink:title=" ">
<polygon fill="none" stroke="black" points="838.5,-56.5 838.5,-75.5 963.5,-75.5 963.5,-56.5 838.5,-56.5"/>
<text text-anchor="middle" x="901" y="-63.5" font-family="Helvetica,sans-Serif" font-size="10.00">abstractcommand.cpp</text>
</a>
</g>
</g>
<!-- Node17&#45;&gt;Node18 -->
<g id="edge24" class="edge">
<title>Node17&#45;&gt;Node18</title>
<path fill="none" stroke="midnightblue" d="M792.7,-108.77C819,-98.63 855.72,-84.47 878.92,-75.52"/>
<polygon fill="midnightblue" stroke="midnightblue" points="791.25,-105.58 783.18,-112.44 793.77,-112.11 791.25,-105.58"/>
</g>
<!-- Node19 -->
<g id="node19" class="node">
<title>Node19</title>
<g id="a_node19"><a xlink:href="devicecommand_8cpp_source.html" target="_top" xlink:title=" ">
<polygon fill="none" stroke="black" points="702,-56.5 702,-75.5 820,-75.5 820,-56.5 702,-56.5"/>
<text text-anchor="middle" x="761" y="-63.5" font-family="Helvetica,sans-Serif" font-size="10.00">devicecommand.cpp</text>
</a>
</g>
</g>
<!-- Node17&#45;&gt;Node19 -->
<g id="edge25" class="edge">
<title>Node17&#45;&gt;Node19</title>
<path fill="none" stroke="midnightblue" d="M761,-101.8C761,-92.91 761,-82.78 761,-75.75"/>
<polygon fill="midnightblue" stroke="midnightblue" points="757.5,-102.08 761,-112.08 764.5,-102.08 757.5,-102.08"/>
</g>
<!-- Node20&#45;&gt;Node7 -->
<g id="edge32" class="edge">
<title>Node20&#45;&gt;Node7</title>
<path fill="none" stroke="midnightblue" d="M921.74,-159.17C915.21,-145.25 909.61,-125.99 919,-112 933.09,-91.01 958.88,-79.81 981.95,-73.83"/>
<polygon fill="midnightblue" stroke="midnightblue" points="918.72,-160.95 926.44,-168.21 924.93,-157.72 918.72,-160.95"/>
</g>
<!-- Node21&#45;&gt;Node8 -->
<g id="edge34" class="edge">
<title>Node21&#45;&gt;Node8</title>
<path fill="none" stroke="midnightblue" d="M1292.82,-163.61C1305.48,-156.23 1318.92,-145.75 1326,-132 1337.2,-110.24 1310.92,-87.5 1293.64,-75.53"/>
<polygon fill="midnightblue" stroke="midnightblue" points="1291,-160.61 1283.85,-168.43 1294.31,-166.78 1291,-160.61"/>
</g>
<!-- Node22 -->
<g id="node22" class="node">
<title>Node22</title>
<g id="a_node22"><a xlink:href="scancommand_8cpp_source.html" target="_top" xlink:title=" ">
<polygon fill="none" stroke="black" points="1209,-112.5 1209,-131.5 1317,-131.5 1317,-112.5 1209,-112.5"/>
<text text-anchor="middle" x="1263" y="-119.5" font-family="Helvetica,sans-Serif" font-size="10.00">scancommand.cpp</text>
</a>
</g>
</g>
<!-- Node21&#45;&gt;Node22 -->
<g id="edge35" class="edge">
<title>Node21&#45;&gt;Node22</title>
<path fill="none" stroke="midnightblue" d="M1263,-157.8C1263,-148.91 1263,-138.78 1263,-131.75"/>
<polygon fill="midnightblue" stroke="midnightblue" points="1259.5,-158.08 1263,-168.08 1266.5,-158.08 1259.5,-158.08"/>
</g>
<!-- Node23&#45;&gt;Node8 -->
<g id="edge37" class="edge">
<title>Node23&#45;&gt;Node8</title>
<path fill="none" stroke="midnightblue" d="M1417.53,-109.44C1384.53,-99.26 1337.24,-84.66 1307.6,-75.52"/>
<polygon fill="midnightblue" stroke="midnightblue" points="1416.68,-112.84 1427.27,-112.44 1418.75,-106.15 1416.68,-112.84"/>
</g>
<!-- Node24&#45;&gt;Node16 -->
<g id="edge40" class="edge">
<title>Node24&#45;&gt;Node16</title>
<path fill="none" stroke="midnightblue" d="M1150.86,-158.4C1153.7,-149.36 1156.98,-138.94 1159.25,-131.75"/>
<polygon fill="midnightblue" stroke="midnightblue" points="1147.47,-157.49 1147.81,-168.08 1154.15,-159.6 1147.47,-157.49"/>
</g>
<!-- Node24&#45;&gt;Node22 -->
<g id="edge39" class="edge">
<title>Node24&#45;&gt;Node22</title>
<path fill="none" stroke="midnightblue" d="M1172.9,-164.23C1194.97,-154.13 1225.18,-140.31 1244.39,-131.52"/>
<polygon fill="midnightblue" stroke="midnightblue" points="1171.33,-161.1 1163.7,-168.44 1174.25,-167.46 1171.33,-161.1"/>
</g>
</g>
</svg>
