<?xml version="1.0" encoding="UTF-8" standalone="no"?>
<!DOCTYPE svg PUBLIC "-//W3C//DTD SVG 1.1//EN"
 "http://www.w3.org/Graphics/SVG/1.1/DTD/svg11.dtd">
<!-- Generated by graphviz version 2.43.0 (0)
 -->
<!-- Title: qtpokit_global.h Pages: 1 -->
<svg width="1088pt" height="252pt"
 viewBox="0.00 0.00 1088.00 252.00" xmlns="http://www.w3.org/2000/svg" xmlns:xlink="http://www.w3.org/1999/xlink">
<g id="graph0" class="graph" transform="scale(1 1) rotate(0) translate(4 248)">
<title>qtpokit_global.h</title>
<!-- Node1 -->
<g id="node1" class="node">
<title>Node1</title>
<g id="a_node1"><a xlink:title="Global QtPokit library macros.">
<polygon fill="#bfbfbf" stroke="black" points="534.5,-224.5 534.5,-243.5 629.5,-243.5 629.5,-224.5 534.5,-224.5"/>
<text text-anchor="middle" x="582" y="-231.5" font-family="Helvetica,sans-Serif" font-size="10.00">qtpokit_global.h</text>
</a>
</g>
</g>
<!-- Node2 -->
<g id="node2" class="node">
<title>Node2</title>
<g id="a_node2"><a xlink:href="abstractpokitservice_8h.html" target="_top" xlink:title="Declares the AbstractPokitService class.">
<polygon fill="none" stroke="black" points="212.5,-168.5 212.5,-187.5 337.5,-187.5 337.5,-168.5 212.5,-168.5"/>
<text text-anchor="middle" x="275" y="-175.5" font-family="Helvetica,sans-Serif" font-size="10.00">abstractpokitservice.h</text>
</a>
</g>
</g>
<!-- Node1&#45;&gt;Node2 -->
<g id="edge1" class="edge">
<title>Node1&#45;&gt;Node2</title>
<path fill="none" stroke="midnightblue" d="M524.27,-222.85C466.29,-212.65 377.97,-197.11 323.5,-187.53"/>
<polygon fill="midnightblue" stroke="midnightblue" points="523.91,-226.34 534.37,-224.62 525.13,-219.44 523.91,-226.34"/>
</g>
<!-- Node9 -->
<g id="node9" class="node">
<title>Node9</title>
<g id="a_node9"><a xlink:href="abstractpokitservice__p_8h.html" target="_top" xlink:title="Declares the AbstractPokitServicePrivate class.">
<polygon fill="none" stroke="black" points="57.5,-168.5 57.5,-187.5 194.5,-187.5 194.5,-168.5 57.5,-168.5"/>
<text text-anchor="middle" x="126" y="-175.5" font-family="Helvetica,sans-Serif" font-size="10.00">abstractpokitservice_p.h</text>
</a>
</g>
</g>
<!-- Node1&#45;&gt;Node9 -->
<g id="edge9" class="edge">
<title>Node1&#45;&gt;Node9</title>
<path fill="none" stroke="midnightblue" d="M524.37,-226.18C440.41,-216.23 284.7,-197.79 194.83,-187.15"/>
<polygon fill="midnightblue" stroke="midnightblue" points="524.15,-229.67 534.49,-227.37 524.97,-222.72 524.15,-229.67"/>
</g>
<!-- Node10 -->
<g id="node10" class="node">
<title>Node10</title>
<g id="a_node10"><a xlink:href="logging__p_8h.html" target="_top" xlink:title="QtPokit logging categories.">
<polygon fill="none" stroke="black" points="410.5,-168.5 410.5,-187.5 483.5,-187.5 483.5,-168.5 410.5,-168.5"/>
<text text-anchor="middle" x="447" y="-175.5" font-family="Helvetica,sans-Serif" font-size="10.00">logging_p.h</text>
</a>
</g>
</g>
<!-- Node1&#45;&gt;Node10 -->
<g id="edge12" class="edge">
<title>Node1&#45;&gt;Node10</title>
<path fill="none" stroke="midnightblue" d="M551.09,-220.64C525.76,-210.5 490.57,-196.43 468.29,-187.52"/>
<polygon fill="midnightblue" stroke="midnightblue" points="550.02,-223.98 560.61,-224.44 552.62,-217.48 550.02,-223.98"/>
</g>
<!-- Node14 -->
<g id="node14" class="node">
<title>Node14</title>
<g id="a_node14"><a xlink:href="pokitdevice_8h.html" target="_top" xlink:title="Declares the PokitDevice class.">
<polygon fill="none" stroke="black" points="663.5,-112.5 663.5,-131.5 746.5,-131.5 746.5,-112.5 663.5,-112.5"/>
<text text-anchor="middle" x="705" y="-119.5" font-family="Helvetica,sans-Serif" font-size="10.00">pokitdevice.h</text>
</a>
</g>
</g>
<!-- Node1&#45;&gt;Node14 -->
<g id="edge19" class="edge">
<title>Node1&#45;&gt;Node14</title>
<path fill="none" stroke="midnightblue" d="M583.58,-214.2C585.68,-199.98 590.59,-180.79 602,-168 618.63,-149.37 644.38,-138.12 665.97,-131.52"/>
<polygon fill="midnightblue" stroke="midnightblue" points="580.08,-213.98 582.42,-224.31 587.04,-214.78 580.08,-213.98"/>
</g>
<!-- Node15 -->
<g id="node15" class="node">
<title>Node15</title>
<g id="a_node15"><a xlink:href="pokitdevice__p_8h.html" target="_top" xlink:title="Declares the PokitDevicePrivate class.">
<polygon fill="none" stroke="black" points="551,-112.5 551,-131.5 645,-131.5 645,-112.5 551,-112.5"/>
<text text-anchor="middle" x="598" y="-119.5" font-family="Helvetica,sans-Serif" font-size="10.00">pokitdevice_p.h</text>
</a>
</g>
</g>
<!-- Node1&#45;&gt;Node15 -->
<g id="edge22" class="edge">
<title>Node1&#45;&gt;Node15</title>
<path fill="none" stroke="midnightblue" d="M573.32,-215.15C568.08,-201.98 563.25,-183.69 568,-168 572.24,-153.98 582.46,-140.34 589.79,-131.82"/>
<polygon fill="midnightblue" stroke="midnightblue" points="570.2,-216.74 577.44,-224.47 576.6,-213.91 570.2,-216.74"/>
</g>
<!-- Node16 -->
<g id="node16" class="node">
<title>Node16</title>
<g id="a_node16"><a xlink:href="pokitdevicedisoveryagent_8h.html" target="_top" xlink:title="Declares the PokitDeviceDiscoveryAgent class.">
<polygon fill="none" stroke="black" points="858,-168.5 858,-187.5 1010,-187.5 1010,-168.5 858,-168.5"/>
<text text-anchor="middle" x="934" y="-175.5" font-family="Helvetica,sans-Serif" font-size="10.00">pokitdevicedisoveryagent.h</text>
</a>
</g>
</g>
<!-- Node1&#45;&gt;Node16 -->
<g id="edge24" class="edge">
<title>Node1&#45;&gt;Node16</title>
<path fill="none" stroke="midnightblue" d="M640.08,-224.09C706.19,-213.95 813.39,-197.5 878.43,-187.52"/>
<polygon fill="midnightblue" stroke="midnightblue" points="639.19,-220.69 629.84,-225.66 640.25,-227.6 639.19,-220.69"/>
</g>
<!-- Node18 -->
<g id="node18" class="node">
<title>Node18</title>
<g id="a_node18"><a xlink:href="pokitdevicedisoveryagent__p_8h.html" target="_top" xlink:title="Declares the PokitDeviceDiscoveryAgentPrivate class.">
<polygon fill="none" stroke="black" points="676,-168.5 676,-187.5 840,-187.5 840,-168.5 676,-168.5"/>
<text text-anchor="middle" x="758" y="-175.5" font-family="Helvetica,sans-Serif" font-size="10.00">pokitdevicedisoveryagent_p.h</text>
</a>
</g>
</g>
<!-- Node1&#45;&gt;Node18 -->
<g id="edge27" class="edge">
<title>Node1&#45;&gt;Node18</title>
<path fill="none" stroke="midnightblue" d="M619.69,-221.44C652.87,-211.26 700.43,-196.66 730.24,-187.52"/>
<polygon fill="midnightblue" stroke="midnightblue" points="618.42,-218.16 609.89,-224.44 620.47,-224.86 618.42,-218.16"/>
</g>
<!-- Node19 -->
<g id="node19" class="node">
<title>Node19</title>
<g id="a_node19"><a xlink:href="utils_8h.html" target="_top" xlink:title="Declares some simple general purpose, utility functions used by QtPokit.">
<polygon fill="none" stroke="black" points="610.5,-168.5 610.5,-187.5 657.5,-187.5 657.5,-168.5 610.5,-168.5"/>
<text text-anchor="middle" x="634" y="-175.5" font-family="Helvetica,sans-Serif" font-size="10.00">utils.h</text>
</a>
</g>
</g>
<!-- Node1&#45;&gt;Node19 -->
<g id="edge29" class="edge">
<title>Node1&#45;&gt;Node19</title>
<path fill="none" stroke="midnightblue" d="M597.68,-216.72C606.84,-207.2 618.05,-195.56 625.57,-187.75"/>
<polygon fill="midnightblue" stroke="midnightblue" points="595,-214.45 590.59,-224.08 600.04,-219.31 595,-214.45"/>
</g>
<!-- Node20 -->
<g id="node20" class="node">
<title>Node20</title>
<g id="a_node20"><a xlink:href="uuids_8h.html" target="_top" xlink:title="Define official UUIDs from Pokit&#39;s Bluetooth API Definition document.">
<polygon fill="none" stroke="black" points="1028,-168.5 1028,-187.5 1080,-187.5 1080,-168.5 1028,-168.5"/>
<text text-anchor="middle" x="1054" y="-175.5" font-family="Helvetica,sans-Serif" font-size="10.00">uuids.h</text>
</a>
</g>
</g>
<!-- Node1&#45;&gt;Node20 -->
<g id="edge33" class="edge">
<title>Node1&#45;&gt;Node20</title>
<path fill="none" stroke="midnightblue" d="M639.63,-229.81C723.59,-224.54 884.23,-212.13 1019,-188 1021.84,-187.49 1024.79,-186.87 1027.72,-186.21"/>
<polygon fill="midnightblue" stroke="midnightblue" points="639.3,-226.32 629.53,-230.43 639.73,-233.31 639.3,-226.32"/>
</g>
<!-- Node3 -->
<g id="node3" class="node">
<title>Node3</title>
<g id="a_node3"><a xlink:href="abstractpokitservice_8cpp.html" target="_top" xlink:title="Defines the AbstractPokitService and AbstractPokitServicePrivate classes.">
<polygon fill="none" stroke="black" points="151.5,-112.5 151.5,-131.5 288.5,-131.5 288.5,-112.5 151.5,-112.5"/>
<text text-anchor="middle" x="220" y="-119.5" font-family="Helvetica,sans-Serif" font-size="10.00">abstractpokitservice.cpp</text>
</a>
</g>
</g>
<!-- Node2&#45;&gt;Node3 -->
<g id="edge2" class="edge">
<title>Node2&#45;&gt;Node3</title>
<path fill="none" stroke="midnightblue" d="M258.71,-161C248.96,-151.43 236.95,-139.64 228.91,-131.75"/>
<polygon fill="midnightblue" stroke="midnightblue" points="256.33,-163.57 265.92,-168.08 261.23,-158.58 256.33,-163.57"/>
</g>
<!-- Node4 -->
<g id="node4" class="node">
<title>Node4</title>
<g id="a_node4"><a xlink:href="statusservice_8h.html" target="_top" xlink:title="Declares the StatusService class.">
<polygon fill="none" stroke="black" points="42.5,-112.5 42.5,-131.5 133.5,-131.5 133.5,-112.5 42.5,-112.5"/>
<text text-anchor="middle" x="88" y="-119.5" font-family="Helvetica,sans-Serif" font-size="10.00">statusservice.h</text>
</a>
</g>
</g>
<!-- Node2&#45;&gt;Node4 -->
<g id="edge3" class="edge">
<title>Node2&#45;&gt;Node4</title>
<path fill="none" stroke="midnightblue" d="M235.41,-165.57C200.13,-155.38 149.31,-140.7 117.49,-131.52"/>
<polygon fill="midnightblue" stroke="midnightblue" points="234.79,-169.03 245.37,-168.44 236.73,-162.31 234.79,-169.03"/>
</g>
<!-- Node5 -->
<g id="node5" class="node">
<title>Node5</title>
<g id="a_node5"><a xlink:href="informer_8cpp_source.html" target="_top" xlink:title=" ">
<polygon fill="none" stroke="black" points="701,-56.5 701,-75.5 779,-75.5 779,-56.5 701,-56.5"/>
<text text-anchor="middle" x="740" y="-63.5" font-family="Helvetica,sans-Serif" font-size="10.00">informer.cpp</text>
</a>
</g>
</g>
<!-- Node4&#45;&gt;Node5 -->
<g id="edge4" class="edge">
<title>Node4&#45;&gt;Node5</title>
<path fill="none" stroke="midnightblue" d="M143.72,-111.91C269.07,-97.66 588.93,-76.65 700.76,-69.49"/>
<polygon fill="midnightblue" stroke="midnightblue" points="143.15,-108.46 133.62,-113.1 143.96,-115.41 143.15,-108.46"/>
</g>
<!-- Node6 -->
<g id="node6" class="node">
<title>Node6</title>
<g id="a_node6"><a xlink:href="pokitdevice_8cpp.html" target="_top" xlink:title="Defines the PokitDevice and PokitDevicePrivate classes.">
<polygon fill="none" stroke="black" points="475,-56.5 475,-75.5 569,-75.5 569,-56.5 475,-56.5"/>
<text text-anchor="middle" x="522" y="-63.5" font-family="Helvetica,sans-Serif" font-size="10.00">pokitdevice.cpp</text>
</a>
</g>
</g>
<!-- Node4&#45;&gt;Node6 -->
<g id="edge5" class="edge">
<title>Node4&#45;&gt;Node6</title>
<path fill="none" stroke="midnightblue" d="M143.78,-111.8C268.94,-94.16 404.77,-79.24 474.81,-71.86"/>
<polygon fill="midnightblue" stroke="midnightblue" points="143.05,-108.37 133.64,-113.24 144.03,-115.3 143.05,-108.37"/>
</g>
<!-- Node7 -->
<g id="node7" class="node">
<title>Node7</title>
<g id="a_node7"><a xlink:href="statusservice_8cpp.html" target="_top" xlink:title="Defines the StatusService and StatusServicePrivate classes.">
<polygon fill="none" stroke="black" points="79,-0.5 79,-19.5 181,-19.5 181,-0.5 79,-0.5"/>
<text text-anchor="middle" x="130" y="-7.5" font-family="Helvetica,sans-Serif" font-size="10.00">statusservice.cpp</text>
</a>
</g>
</g>
<!-- Node4&#45;&gt;Node7 -->
<g id="edge6" class="edge">
<title>Node4&#45;&gt;Node7</title>
<path fill="none" stroke="midnightblue" d="M98,-103.35C102.36,-95.19 107.31,-85.27 111,-76 118.82,-56.33 125.04,-32.19 128.04,-19.59"/>
<polygon fill="midnightblue" stroke="midnightblue" points="94.84,-101.82 93.09,-112.26 100.98,-105.19 94.84,-101.82"/>
</g>
<!-- Node8 -->
<g id="node8" class="node">
<title>Node8</title>
<g id="a_node8"><a xlink:href="statusservice__p_8h.html" target="_top" xlink:title="Declares the StatusServicePrivate class.">
<polygon fill="none" stroke="black" points="0,-56.5 0,-75.5 102,-75.5 102,-56.5 0,-56.5"/>
<text text-anchor="middle" x="51" y="-63.5" font-family="Helvetica,sans-Serif" font-size="10.00">statusservice_p.h</text>
</a>
</g>
</g>
<!-- Node4&#45;&gt;Node8 -->
<g id="edge7" class="edge">
<title>Node4&#45;&gt;Node8</title>
<path fill="none" stroke="midnightblue" d="M76.05,-103.57C69.69,-94.27 62.13,-83.25 57,-75.75"/>
<polygon fill="midnightblue" stroke="midnightblue" points="73.35,-105.81 81.89,-112.08 79.13,-101.86 73.35,-105.81"/>
</g>
<!-- Node8&#45;&gt;Node7 -->
<g id="edge8" class="edge">
<title>Node8&#45;&gt;Node7</title>
<path fill="none" stroke="midnightblue" d="M72.03,-50.62C86.47,-40.76 105.14,-27.99 117.34,-19.65"/>
<polygon fill="midnightblue" stroke="midnightblue" points="69.97,-47.79 63.69,-56.32 73.92,-53.57 69.97,-47.79"/>
</g>
<!-- Node9&#45;&gt;Node3 -->
<g id="edge10" class="edge">
<title>Node9&#45;&gt;Node3</title>
<path fill="none" stroke="midnightblue" d="M150.06,-163.18C167.36,-153.24 190.15,-140.15 204.93,-131.65"/>
<polygon fill="midnightblue" stroke="midnightblue" points="148.03,-160.31 141.1,-168.32 151.52,-166.38 148.03,-160.31"/>
</g>
<!-- Node9&#45;&gt;Node8 -->
<g id="edge11" class="edge">
<title>Node9&#45;&gt;Node8</title>
<path fill="none" stroke="midnightblue" d="M76.89,-164.89C60,-158.13 42.88,-147.75 33,-132 21.68,-113.94 35.55,-88.71 44.52,-75.63"/>
<polygon fill="midnightblue" stroke="midnightblue" points="76.15,-168.35 86.75,-168.48 78.54,-161.77 76.15,-168.35"/>
</g>
<!-- Node10&#45;&gt;Node3 -->
<g id="edge13" class="edge">
<title>Node10&#45;&gt;Node3</title>
<path fill="none" stroke="midnightblue" d="M401.13,-166.09C358.25,-155.89 295.08,-140.86 255.8,-131.52"/>
<polygon fill="midnightblue" stroke="midnightblue" points="400.49,-169.53 411.03,-168.44 402.11,-162.72 400.49,-169.53"/>
</g>
<!-- Node10&#45;&gt;Node6 -->
<g id="edge15" class="edge">
<title>Node10&#45;&gt;Node6</title>
<path fill="none" stroke="midnightblue" d="M449.42,-158.12C451.88,-144.41 456.71,-125.9 466,-112 476.46,-96.34 494.07,-83.5 506.75,-75.6"/>
<polygon fill="midnightblue" stroke="midnightblue" points="445.91,-157.89 447.86,-168.31 452.83,-158.95 445.91,-157.89"/>
</g>
<!-- Node10&#45;&gt;Node7 -->
<g id="edge17" class="edge">
<title>Node10&#45;&gt;Node7</title>
<path fill="none" stroke="midnightblue" d="M413.79,-164.99C391.44,-156.56 361.51,-144.58 336,-132 260.48,-94.76 175.2,-40.5 143.12,-19.62"/>
<polygon fill="midnightblue" stroke="midnightblue" points="412.58,-168.28 423.18,-168.49 415.03,-161.72 412.58,-168.28"/>
</g>
<!-- Node11 -->
<g id="node11" class="node">
<title>Node11</title>
<g id="a_node11"><a xlink:href="logging_8cpp_source.html" target="_top" xlink:title=" ">
<polygon fill="none" stroke="black" points="345.5,-112.5 345.5,-131.5 418.5,-131.5 418.5,-112.5 345.5,-112.5"/>
<text text-anchor="middle" x="382" y="-119.5" font-family="Helvetica,sans-Serif" font-size="10.00">logging.cpp</text>
</a>
</g>
</g>
<!-- Node10&#45;&gt;Node11 -->
<g id="edge14" class="edge">
<title>Node10&#45;&gt;Node11</title>
<path fill="none" stroke="midnightblue" d="M428.73,-161.82C417.08,-152.15 402.4,-139.95 392.63,-131.83"/>
<polygon fill="midnightblue" stroke="midnightblue" points="426.63,-164.63 436.56,-168.32 431.1,-159.24 426.63,-164.63"/>
</g>
<!-- Node12 -->
<g id="node12" class="node">
<title>Node12</title>
<g id="a_node12"><a xlink:href="pokitdevicedisoveryagent_8cpp.html" target="_top" xlink:title="Defines the PokitDeviceDiscoveryAgent and PokitDeviceDiscoveryAgentPrivate classes.">
<polygon fill="none" stroke="black" points="803,-112.5 803,-131.5 967,-131.5 967,-112.5 803,-112.5"/>
<text text-anchor="middle" x="885" y="-119.5" font-family="Helvetica,sans-Serif" font-size="10.00">pokitdevicedisoveryagent.cpp</text>
</a>
</g>
</g>
<!-- Node10&#45;&gt;Node12 -->
<g id="edge16" class="edge">
<title>Node10&#45;&gt;Node12</title>
<path fill="none" stroke="midnightblue" d="M493.98,-171.21C571.37,-161.67 726.02,-142.6 815.9,-131.52"/>
<polygon fill="midnightblue" stroke="midnightblue" points="493.09,-167.79 483.59,-172.49 493.94,-174.74 493.09,-167.79"/>
</g>
<!-- Node13 -->
<g id="node13" class="node">
<title>Node13</title>
<g id="a_node13"><a xlink:href="utils_8cpp.html" target="_top" xlink:title="Defines some simple general purpose, utility functions used by QtPokit.">
<polygon fill="none" stroke="black" points="475,-112.5 475,-131.5 533,-131.5 533,-112.5 475,-112.5"/>
<text text-anchor="middle" x="504" y="-119.5" font-family="Helvetica,sans-Serif" font-size="10.00">utils.cpp</text>
</a>
</g>
</g>
<!-- Node10&#45;&gt;Node13 -->
<g id="edge18" class="edge">
<title>Node10&#45;&gt;Node13</title>
<path fill="none" stroke="midnightblue" d="M463.62,-161.25C473.73,-151.67 486.28,-139.79 494.68,-131.83"/>
<polygon fill="midnightblue" stroke="midnightblue" points="461.01,-158.91 456.16,-168.32 465.82,-163.99 461.01,-158.91"/>
</g>
<!-- Node14&#45;&gt;Node5 -->
<g id="edge20" class="edge">
<title>Node14&#45;&gt;Node5</title>
<path fill="none" stroke="midnightblue" d="M716.3,-103.57C722.32,-94.27 729.47,-83.25 734.33,-75.75"/>
<polygon fill="midnightblue" stroke="midnightblue" points="713.28,-101.79 710.78,-112.08 719.16,-105.6 713.28,-101.79"/>
</g>
<!-- Node14&#45;&gt;Node6 -->
<g id="edge21" class="edge">
<title>Node14&#45;&gt;Node6</title>
<path fill="none" stroke="midnightblue" d="M666.26,-109.57C631.74,-99.38 581.99,-84.7 550.86,-75.52"/>
<polygon fill="midnightblue" stroke="midnightblue" points="665.42,-112.97 676,-112.44 667.4,-106.26 665.42,-112.97"/>
</g>
<!-- Node15&#45;&gt;Node6 -->
<g id="edge23" class="edge">
<title>Node15&#45;&gt;Node6</title>
<path fill="none" stroke="midnightblue" d="M577.42,-106.38C563.69,-96.62 546.07,-84.11 534.43,-75.83"/>
<polygon fill="midnightblue" stroke="midnightblue" points="575.61,-109.38 585.79,-112.32 579.66,-103.68 575.61,-109.38"/>
</g>
<!-- Node16&#45;&gt;Node12 -->
<g id="edge25" class="edge">
<title>Node16&#45;&gt;Node12</title>
<path fill="none" stroke="midnightblue" d="M918.97,-160.43C910.38,-150.97 899.96,-139.48 892.94,-131.75"/>
<polygon fill="midnightblue" stroke="midnightblue" points="916.6,-163.03 925.91,-168.08 921.78,-158.33 916.6,-163.03"/>
</g>
<!-- Node17 -->
<g id="node17" class="node">
<title>Node17</title>
<g id="a_node17"><a xlink:href="scanner_8cpp_source.html" target="_top" xlink:title=" ">
<polygon fill="none" stroke="black" points="985,-112.5 985,-131.5 1059,-131.5 1059,-112.5 985,-112.5"/>
<text text-anchor="middle" x="1022" y="-119.5" font-family="Helvetica,sans-Serif" font-size="10.00">scanner.cpp</text>
</a>
</g>
</g>
<!-- Node16&#45;&gt;Node17 -->
<g id="edge26" class="edge">
<title>Node16&#45;&gt;Node17</title>
<path fill="none" stroke="midnightblue" d="M956.98,-162.9C973.11,-153 994.18,-140.07 1007.9,-131.65"/>
<polygon fill="midnightblue" stroke="midnightblue" points="954.83,-160.11 948.14,-168.32 958.49,-166.08 954.83,-160.11"/>
</g>
<!-- Node18&#45;&gt;Node12 -->
<g id="edge28" class="edge">
<title>Node18&#45;&gt;Node12</title>
<path fill="none" stroke="midnightblue" d="M787.39,-164.5C811.2,-154.38 844.11,-140.39 864.97,-131.52"/>
<polygon fill="midnightblue" stroke="midnightblue" points="785.96,-161.31 778.12,-168.44 788.7,-167.75 785.96,-161.31"/>
</g>
<!-- Node19&#45;&gt;Node5 -->
<g id="edge30" class="edge">
<title>Node19&#45;&gt;Node5</title>
<path fill="none" stroke="midnightblue" d="M667.43,-166.83C701.69,-156.07 750.68,-139.63 756,-132 768.09,-114.65 754.91,-89.12 746.27,-75.8"/>
<polygon fill="midnightblue" stroke="midnightblue" points="666.28,-163.52 657.77,-169.83 668.36,-170.2 666.28,-163.52"/>
</g>
<!-- Node19&#45;&gt;Node13 -->
<g id="edge32" class="edge">
<title>Node19&#45;&gt;Node13</title>
<path fill="none" stroke="midnightblue" d="M603.91,-164.5C579.54,-154.38 545.86,-140.39 524.5,-131.52"/>
<polygon fill="midnightblue" stroke="midnightblue" points="602.82,-167.84 613.4,-168.44 605.51,-161.38 602.82,-167.84"/>
</g>
<!-- Node19&#45;&gt;Node17 -->
<g id="edge31" class="edge">
<title>Node19&#45;&gt;Node17</title>
<path fill="none" stroke="midnightblue" d="M667.72,-168.15C804.52,-142.26 842.59,-152.79 976,-132 978.89,-131.55 981.88,-131.05 984.89,-130.52"/>
<polygon fill="midnightblue" stroke="midnightblue" points="666.85,-164.75 657.69,-170.08 668.17,-171.63 666.85,-164.75"/>
</g>
<!-- Node20&#45;&gt;Node5 -->
<g id="edge34" class="edge">
<title>Node20&#45;&gt;Node5</title>
<path fill="none" stroke="midnightblue" d="M1065.14,-159.36C1072.66,-144.99 1079.34,-125.01 1068,-112 1030.93,-69.5 857.94,-65.71 779.2,-66.26"/>
<polygon fill="midnightblue" stroke="midnightblue" points="1061.97,-157.85 1060.01,-168.27 1068.04,-161.35 1061.97,-157.85"/>
</g>
<!-- Node20&#45;&gt;Node12 -->
<g id="edge35" class="edge">
<title>Node20&#45;&gt;Node12</title>
<path fill="none" stroke="midnightblue" d="M1018.14,-165.54C986.25,-155.35 940.35,-140.69 911.62,-131.51"/>
<polygon fill="midnightblue" stroke="midnightblue" points="1017.37,-168.97 1027.96,-168.68 1019.5,-162.3 1017.37,-168.97"/>
</g>
<!-- Node20&#45;&gt;Node17 -->
<g id="edge36" class="edge">
<title>Node20&#45;&gt;Node17</title>
<path fill="none" stroke="midnightblue" d="M1043.5,-159.27C1038.03,-150.05 1031.58,-139.17 1027.19,-131.75"/>
<polygon fill="midnightblue" stroke="midnightblue" points="1040.61,-161.26 1048.72,-168.08 1046.63,-157.7 1040.61,-161.26"/>
</g>
</g>
</svg>
