<?xml version="1.0" encoding="UTF-8" standalone="no"?>
<!DOCTYPE svg PUBLIC "-//W3C//DTD SVG 1.1//EN"
 "http://www.w3.org/Graphics/SVG/1.1/DTD/svg11.dtd">
<!-- Generated by graphviz version 2.43.0 (0)
 -->
<!-- Title: qtpokit_global.h Pages: 1 -->
<svg width="2547pt" height="252pt"
 viewBox="0.00 0.00 2547.35 252.00" xmlns="http://www.w3.org/2000/svg" xmlns:xlink="http://www.w3.org/1999/xlink">
<g id="graph0" class="graph" transform="scale(1 1) rotate(0) translate(4 248)">
<title>qtpokit_global.h</title>
<!-- Node1 -->
<g id="node1" class="node">
<title>Node1</title>
<g id="a_node1"><a xlink:title="Global QtPokit library macros.">
<polygon fill="#bfbfbf" stroke="black" points="1403.85,-224.5 1403.85,-243.5 1498.85,-243.5 1498.85,-224.5 1403.85,-224.5"/>
<text text-anchor="middle" x="1451.35" y="-231.5" font-family="Helvetica,sans-Serif" font-size="10.00">qtpokit_global.h</text>
</a>
</g>
</g>
<!-- Node2 -->
<g id="node2" class="node">
<title>Node2</title>
<g id="a_node2"><a xlink:href="abstractpokitservice_8h.html" target="_top" xlink:title="Declares the AbstractPokitService class.">
<polygon fill="none" stroke="black" points="765.85,-168.5 765.85,-187.5 890.85,-187.5 890.85,-168.5 765.85,-168.5"/>
<text text-anchor="middle" x="828.35" y="-175.5" font-family="Helvetica,sans-Serif" font-size="10.00">abstractpokitservice.h</text>
</a>
</g>
</g>
<!-- Node1&#45;&gt;Node2 -->
<g id="edge1" class="edge">
<title>Node1&#45;&gt;Node2</title>
<path fill="none" stroke="midnightblue" d="M1393.57,-227.99C1276.45,-217.84 1011.97,-194.91 890.94,-184.42"/>
<polygon fill="midnightblue" stroke="midnightblue" points="1393.49,-231.5 1403.76,-228.87 1394.1,-224.52 1393.49,-231.5"/>
</g>
<!-- Node23 -->
<g id="node23" class="node">
<title>Node23</title>
<g id="a_node23"><a xlink:href="abstractpokitservice__p_8h.html" target="_top" xlink:title="Declares the AbstractPokitServicePrivate class.">
<polygon fill="none" stroke="black" points="472.85,-112.5 472.85,-131.5 609.85,-131.5 609.85,-112.5 472.85,-112.5"/>
<text text-anchor="middle" x="541.35" y="-119.5" font-family="Helvetica,sans-Serif" font-size="10.00">abstractpokitservice_p.h</text>
</a>
</g>
</g>
<!-- Node1&#45;&gt;Node23 -->
<g id="edge29" class="edge">
<title>Node1&#45;&gt;Node23</title>
<path fill="none" stroke="midnightblue" d="M1393.66,-233.7C1273.87,-234.18 989.88,-230.28 756.35,-188 684.22,-174.94 602.08,-146.01 563.53,-131.56"/>
<polygon fill="midnightblue" stroke="midnightblue" points="1393.73,-237.2 1403.71,-233.65 1393.69,-230.2 1393.73,-237.2"/>
</g>
<!-- Node24 -->
<g id="node24" class="node">
<title>Node24</title>
<g id="a_node24"><a xlink:href="logging__p_8h.html" target="_top" xlink:title="QtPokit logging categories.">
<polygon fill="none" stroke="black" points="1939.85,-112.5 1939.85,-131.5 2012.85,-131.5 2012.85,-112.5 1939.85,-112.5"/>
<text text-anchor="middle" x="1976.35" y="-119.5" font-family="Helvetica,sans-Serif" font-size="10.00">logging_p.h</text>
</a>
</g>
</g>
<!-- Node1&#45;&gt;Node24 -->
<g id="edge35" class="edge">
<title>Node1&#45;&gt;Node24</title>
<path fill="none" stroke="midnightblue" d="M1502.18,-222.35C1607.52,-200.28 1847.51,-150 1939.51,-130.72"/>
<polygon fill="midnightblue" stroke="midnightblue" points="1501.18,-218.98 1492.11,-224.46 1502.62,-225.83 1501.18,-218.98"/>
</g>
<!-- Node27 -->
<g id="node27" class="node">
<title>Node27</title>
<g id="a_node27"><a xlink:href="pokitdevice_8h.html" target="_top" xlink:title="Declares the PokitDevice class.">
<polygon fill="none" stroke="black" points="1346.85,-112.5 1346.85,-131.5 1429.85,-131.5 1429.85,-112.5 1346.85,-112.5"/>
<text text-anchor="middle" x="1388.35" y="-119.5" font-family="Helvetica,sans-Serif" font-size="10.00">pokitdevice.h</text>
</a>
</g>
</g>
<!-- Node1&#45;&gt;Node27 -->
<g id="edge45" class="edge">
<title>Node1&#45;&gt;Node27</title>
<path fill="none" stroke="midnightblue" d="M1441.41,-215.64C1427.72,-191.74 1403.6,-149.63 1393.27,-131.59"/>
<polygon fill="midnightblue" stroke="midnightblue" points="1438.4,-217.43 1446.41,-224.37 1444.48,-213.95 1438.4,-217.43"/>
</g>
<!-- Node30 -->
<g id="node30" class="node">
<title>Node30</title>
<g id="a_node30"><a xlink:href="pokitdevice__p_8h.html" target="_top" xlink:title="Declares the PokitDevicePrivate class.">
<polygon fill="none" stroke="black" points="1188.35,-168.5 1188.35,-187.5 1282.35,-187.5 1282.35,-168.5 1188.35,-168.5"/>
<text text-anchor="middle" x="1235.35" y="-175.5" font-family="Helvetica,sans-Serif" font-size="10.00">pokitdevice_p.h</text>
</a>
</g>
</g>
<!-- Node1&#45;&gt;Node30 -->
<g id="edge54" class="edge">
<title>Node1&#45;&gt;Node30</title>
<path fill="none" stroke="midnightblue" d="M1407.19,-221.96C1366.39,-211.76 1306.64,-196.82 1269.42,-187.52"/>
<polygon fill="midnightblue" stroke="midnightblue" points="1406.58,-225.41 1417.13,-224.44 1408.27,-218.62 1406.58,-225.41"/>
</g>
<!-- Node31 -->
<g id="node31" class="node">
<title>Node31</title>
<g id="a_node31"><a xlink:href="pokitdevicedisoveryagent_8h.html" target="_top" xlink:title="Declares the PokitDeviceDiscoveryAgent class.">
<polygon fill="none" stroke="black" points="2179.35,-112.5 2179.35,-131.5 2331.35,-131.5 2331.35,-112.5 2179.35,-112.5"/>
<text text-anchor="middle" x="2255.35" y="-119.5" font-family="Helvetica,sans-Serif" font-size="10.00">pokitdevicedisoveryagent.h</text>
</a>
</g>
</g>
<!-- Node1&#45;&gt;Node31 -->
<g id="edge56" class="edge">
<title>Node1&#45;&gt;Node31</title>
<path fill="none" stroke="midnightblue" d="M1509.3,-231.48C1647.15,-227.46 1991.41,-214.98 2103.35,-188 2155.81,-175.36 2213.19,-146.23 2239.98,-131.65"/>
<polygon fill="midnightblue" stroke="midnightblue" points="1508.85,-227.99 1498.95,-231.78 1509.05,-234.99 1508.85,-227.99"/>
</g>
<!-- Node33 -->
<g id="node33" class="node">
<title>Node33</title>
<g id="a_node33"><a xlink:href="pokitdevicedisoveryagent__p_8h.html" target="_top" xlink:title="Declares the PokitDeviceDiscoveryAgentPrivate class.">
<polygon fill="none" stroke="black" points="1930.35,-168.5 1930.35,-187.5 2094.35,-187.5 2094.35,-168.5 1930.35,-168.5"/>
<text text-anchor="middle" x="2012.35" y="-175.5" font-family="Helvetica,sans-Serif" font-size="10.00">pokitdevicedisoveryagent_p.h</text>
</a>
</g>
</g>
<!-- Node1&#45;&gt;Node33 -->
<g id="edge59" class="edge">
<title>Node1&#45;&gt;Node33</title>
<path fill="none" stroke="midnightblue" d="M1509.42,-227.41C1609.65,-217.76 1815.38,-197.96 1930.23,-186.9"/>
<polygon fill="midnightblue" stroke="midnightblue" points="1508.8,-223.95 1499.18,-228.4 1509.47,-230.92 1508.8,-223.95"/>
</g>
<!-- Node34 -->
<g id="node34" class="node">
<title>Node34</title>
<g id="a_node34"><a xlink:href="utils_8h.html" target="_top" xlink:title="Declares some simple general purpose, utility functions used by QtPokit.">
<polygon fill="none" stroke="black" points="2360.85,-112.5 2360.85,-131.5 2407.85,-131.5 2407.85,-112.5 2360.85,-112.5"/>
<text text-anchor="middle" x="2384.35" y="-119.5" font-family="Helvetica,sans-Serif" font-size="10.00">utils.h</text>
</a>
</g>
</g>
<!-- Node1&#45;&gt;Node34 -->
<g id="edge61" class="edge">
<title>Node1&#45;&gt;Node34</title>
<path fill="none" stroke="midnightblue" d="M1509.04,-233.21C1628.85,-232.79 1912.96,-227.3 2147.35,-188 2227.09,-174.63 2318.64,-145.44 2360.83,-131.17"/>
<polygon fill="midnightblue" stroke="midnightblue" points="1508.98,-229.71 1498.99,-233.24 1509,-236.71 1508.98,-229.71"/>
</g>
<!-- Node3 -->
<g id="node3" class="node">
<title>Node3</title>
<g id="a_node3"><a xlink:href="abstractpokitservice_8cpp.html" target="_top" xlink:title="Defines the AbstractPokitService and AbstractPokitServicePrivate classes.">
<polygon fill="none" stroke="black" points="617.85,-56.5 617.85,-75.5 754.85,-75.5 754.85,-56.5 617.85,-56.5"/>
<text text-anchor="middle" x="686.35" y="-63.5" font-family="Helvetica,sans-Serif" font-size="10.00">abstractpokitservice.cpp</text>
</a>
</g>
</g>
<!-- Node2&#45;&gt;Node3 -->
<g id="edge2" class="edge">
<title>Node2&#45;&gt;Node3</title>
<path fill="none" stroke="midnightblue" d="M815.22,-160.34C803.63,-146.32 785.75,-126.34 767.35,-112 747.94,-96.87 722.8,-83.75 705.71,-75.64"/>
<polygon fill="midnightblue" stroke="midnightblue" points="812.56,-162.62 821.58,-168.19 818.01,-158.21 812.56,-162.62"/>
</g>
<!-- Node4 -->
<g id="node4" class="node">
<title>Node4</title>
<g id="a_node4"><a xlink:href="calibrationservice_8h.html" target="_top" xlink:title="Declares the CalibrationService class.">
<polygon fill="none" stroke="black" points="814.85,-112.5 814.85,-131.5 927.85,-131.5 927.85,-112.5 814.85,-112.5"/>
<text text-anchor="middle" x="871.35" y="-119.5" font-family="Helvetica,sans-Serif" font-size="10.00">calibrationservice.h</text>
</a>
</g>
</g>
<!-- Node2&#45;&gt;Node4 -->
<g id="edge3" class="edge">
<title>Node2&#45;&gt;Node4</title>
<path fill="none" stroke="midnightblue" d="M841.78,-160.14C849.27,-150.74 858.29,-139.4 864.38,-131.75"/>
<polygon fill="midnightblue" stroke="midnightblue" points="838.95,-158.08 835.45,-168.08 844.42,-162.44 838.95,-158.08"/>
</g>
<!-- Node9 -->
<g id="node9" class="node">
<title>Node9</title>
<g id="a_node9"><a xlink:href="deviceinfoservice_8h.html" target="_top" xlink:title="Declares the DeviceInfoService class.">
<polygon fill="none" stroke="black" points="342.35,-112.5 342.35,-131.5 454.35,-131.5 454.35,-112.5 342.35,-112.5"/>
<text text-anchor="middle" x="398.35" y="-119.5" font-family="Helvetica,sans-Serif" font-size="10.00">deviceinfoservice.h</text>
</a>
</g>
</g>
<!-- Node2&#45;&gt;Node9 -->
<g id="edge9" class="edge">
<title>Node2&#45;&gt;Node9</title>
<path fill="none" stroke="midnightblue" d="M755.56,-168.35C681.87,-159.52 564.63,-145.25 463.35,-132 460.42,-131.62 457.41,-131.22 454.37,-130.81"/>
<polygon fill="midnightblue" stroke="midnightblue" points="755.32,-171.85 765.67,-169.56 756.16,-164.9 755.32,-171.85"/>
</g>
<!-- Node13 -->
<g id="node13" class="node">
<title>Node13</title>
<g id="a_node13"><a xlink:href="genericaccessservice_8h.html" target="_top" xlink:title="Declares the GenericAccessService class.">
<polygon fill="none" stroke="black" points="628.35,-112.5 628.35,-131.5 758.35,-131.5 758.35,-112.5 628.35,-112.5"/>
<text text-anchor="middle" x="693.35" y="-119.5" font-family="Helvetica,sans-Serif" font-size="10.00">genericaccessservice.h</text>
</a>
</g>
</g>
<!-- Node2&#45;&gt;Node13 -->
<g id="edge15" class="edge">
<title>Node2&#45;&gt;Node13</title>
<path fill="none" stroke="midnightblue" d="M797.45,-164.64C772.11,-154.5 736.92,-140.43 714.64,-131.52"/>
<polygon fill="midnightblue" stroke="midnightblue" points="796.38,-167.98 806.96,-168.44 798.98,-161.48 796.38,-167.98"/>
</g>
<!-- Node16 -->
<g id="node16" class="node">
<title>Node16</title>
<g id="a_node16"><a xlink:href="statusservice_8h.html" target="_top" xlink:title="Declares the StatusService class.">
<polygon fill="none" stroke="black" points="1557.85,-112.5 1557.85,-131.5 1648.85,-131.5 1648.85,-112.5 1557.85,-112.5"/>
<text text-anchor="middle" x="1603.35" y="-119.5" font-family="Helvetica,sans-Serif" font-size="10.00">statusservice.h</text>
</a>
</g>
</g>
<!-- Node2&#45;&gt;Node16 -->
<g id="edge20" class="edge">
<title>Node2&#45;&gt;Node16</title>
<path fill="none" stroke="midnightblue" d="M901.2,-171.92C1058.99,-160.93 1428.53,-135.18 1557.76,-126.18"/>
<polygon fill="midnightblue" stroke="midnightblue" points="900.85,-168.44 891.12,-172.63 901.34,-175.42 900.85,-168.44"/>
</g>
<!-- Node5 -->
<g id="node5" class="node">
<title>Node5</title>
<g id="a_node5"><a xlink:href="calibratecommand_8cpp_source.html" target="_top" xlink:title=" ">
<polygon fill="none" stroke="black" points="811.35,-56.5 811.35,-75.5 939.35,-75.5 939.35,-56.5 811.35,-56.5"/>
<text text-anchor="middle" x="875.35" y="-63.5" font-family="Helvetica,sans-Serif" font-size="10.00">calibratecommand.cpp</text>
</a>
</g>
</g>
<!-- Node4&#45;&gt;Node5 -->
<g id="edge4" class="edge">
<title>Node4&#45;&gt;Node5</title>
<path fill="none" stroke="midnightblue" d="M872.75,-102.1C873.42,-93.14 874.18,-82.86 874.71,-75.75"/>
<polygon fill="midnightblue" stroke="midnightblue" points="869.26,-101.85 872.01,-112.08 876.24,-102.37 869.26,-101.85"/>
</g>
<!-- Node6 -->
<g id="node6" class="node">
<title>Node6</title>
<g id="a_node6"><a xlink:href="calibrationservice_8cpp.html" target="_top" xlink:title="Defines the CalibrationService and CalibrationServicePrivate classes.">
<polygon fill="none" stroke="black" points="721.35,-0.5 721.35,-19.5 845.35,-19.5 845.35,-0.5 721.35,-0.5"/>
<text text-anchor="middle" x="783.35" y="-7.5" font-family="Helvetica,sans-Serif" font-size="10.00">calibrationservice.cpp</text>
</a>
</g>
</g>
<!-- Node4&#45;&gt;Node6 -->
<g id="edge5" class="edge">
<title>Node4&#45;&gt;Node6</title>
<path fill="none" stroke="midnightblue" d="M841.52,-107.65C827.81,-100.14 812.4,-89.53 802.35,-76 789.6,-58.82 785.38,-33.21 784,-19.85"/>
<polygon fill="midnightblue" stroke="midnightblue" points="840.16,-110.88 850.66,-112.35 843.37,-104.66 840.16,-110.88"/>
</g>
<!-- Node7 -->
<g id="node7" class="node">
<title>Node7</title>
<g id="a_node7"><a xlink:href="calibrationservice__p_8h.html" target="_top" xlink:title="Declares the CalibrationServicePrivate class.">
<polygon fill="none" stroke="black" points="475.35,-56.5 475.35,-75.5 599.35,-75.5 599.35,-56.5 475.35,-56.5"/>
<text text-anchor="middle" x="537.35" y="-63.5" font-family="Helvetica,sans-Serif" font-size="10.00">calibrationservice_p.h</text>
</a>
</g>
</g>
<!-- Node4&#45;&gt;Node7 -->
<g id="edge6" class="edge">
<title>Node4&#45;&gt;Node7</title>
<path fill="none" stroke="midnightblue" d="M808.21,-110.79C745.09,-100.59 649.17,-85.08 590.03,-75.52"/>
<polygon fill="midnightblue" stroke="midnightblue" points="808,-114.3 818.43,-112.44 809.12,-107.39 808,-114.3"/>
</g>
<!-- Node8 -->
<g id="node8" class="node">
<title>Node8</title>
<g id="a_node8"><a xlink:href="pokitdevice_8cpp.html" target="_top" xlink:title="Defines the PokitDevice and PokitDevicePrivate classes.">
<polygon fill="none" stroke="black" points="957.35,-56.5 957.35,-75.5 1051.35,-75.5 1051.35,-56.5 957.35,-56.5"/>
<text text-anchor="middle" x="1004.35" y="-63.5" font-family="Helvetica,sans-Serif" font-size="10.00">pokitdevice.cpp</text>
</a>
</g>
</g>
<!-- Node4&#45;&gt;Node8 -->
<g id="edge8" class="edge">
<title>Node4&#45;&gt;Node8</title>
<path fill="none" stroke="midnightblue" d="M901.8,-108.64C926.76,-98.5 961.43,-84.43 983.38,-75.52"/>
<polygon fill="midnightblue" stroke="midnightblue" points="900.38,-105.44 892.43,-112.44 903.01,-111.92 900.38,-105.44"/>
</g>
<!-- Node7&#45;&gt;Node6 -->
<g id="edge7" class="edge">
<title>Node7&#45;&gt;Node6</title>
<path fill="none" stroke="midnightblue" d="M586.18,-54.28C632.67,-44.08 701.72,-28.92 744.56,-19.52"/>
<polygon fill="midnightblue" stroke="midnightblue" points="585.35,-50.88 576.33,-56.44 586.85,-57.72 585.35,-50.88"/>
</g>
<!-- Node9&#45;&gt;Node8 -->
<g id="edge14" class="edge">
<title>Node9&#45;&gt;Node8</title>
<path fill="none" stroke="midnightblue" d="M464.74,-111.92C680.01,-89.52 736.93,-100.79 948.35,-76 951.29,-75.66 954.3,-75.27 957.34,-74.85"/>
<polygon fill="midnightblue" stroke="midnightblue" points="464.28,-108.45 454.7,-112.98 465.01,-115.41 464.28,-108.45"/>
</g>
<!-- Node10 -->
<g id="node10" class="node">
<title>Node10</title>
<g id="a_node10"><a xlink:href="deviceinfoservice_8cpp.html" target="_top" xlink:title="Defines the DeviceInfoService and DeviceInfoServicePrivate classes.">
<polygon fill="none" stroke="black" points="14.85,-0.5 14.85,-19.5 137.85,-19.5 137.85,-0.5 14.85,-0.5"/>
<text text-anchor="middle" x="76.35" y="-7.5" font-family="Helvetica,sans-Serif" font-size="10.00">deviceinfoservice.cpp</text>
</a>
</g>
</g>
<!-- Node9&#45;&gt;Node10 -->
<g id="edge10" class="edge">
<title>Node9&#45;&gt;Node10</title>
<path fill="none" stroke="midnightblue" d="M331.96,-118.14C225.59,-112.86 26.67,-99.9 5.35,-76 -14.23,-54.05 26.67,-31.56 54.15,-19.65"/>
<polygon fill="midnightblue" stroke="midnightblue" points="332.11,-121.65 342.27,-118.64 332.45,-114.66 332.11,-121.65"/>
</g>
<!-- Node11 -->
<g id="node11" class="node">
<title>Node11</title>
<g id="a_node11"><a xlink:href="deviceinfoservice__p_8h.html" target="_top" xlink:title="Declares the DeviceInfoServicePrivate class.">
<polygon fill="none" stroke="black" points="14.85,-56.5 14.85,-75.5 137.85,-75.5 137.85,-56.5 14.85,-56.5"/>
<text text-anchor="middle" x="76.35" y="-63.5" font-family="Helvetica,sans-Serif" font-size="10.00">deviceinfoservice_p.h</text>
</a>
</g>
</g>
<!-- Node9&#45;&gt;Node11 -->
<g id="edge11" class="edge">
<title>Node9&#45;&gt;Node11</title>
<path fill="none" stroke="midnightblue" d="M337.1,-110.73C276.25,-100.52 184.03,-85.06 127.14,-75.52"/>
<polygon fill="midnightblue" stroke="midnightblue" points="336.89,-114.24 347.33,-112.44 338.05,-107.34 336.89,-114.24"/>
</g>
<!-- Node12 -->
<g id="node12" class="node">
<title>Node12</title>
<g id="a_node12"><a xlink:href="infocommand_8cpp_source.html" target="_top" xlink:title=" ">
<polygon fill="none" stroke="black" points="353.35,-56.5 353.35,-75.5 457.35,-75.5 457.35,-56.5 353.35,-56.5"/>
<text text-anchor="middle" x="405.35" y="-63.5" font-family="Helvetica,sans-Serif" font-size="10.00">infocommand.cpp</text>
</a>
</g>
</g>
<!-- Node9&#45;&gt;Node12 -->
<g id="edge13" class="edge">
<title>Node9&#45;&gt;Node12</title>
<path fill="none" stroke="midnightblue" d="M400.8,-102.1C401.97,-93.14 403.3,-82.86 404.22,-75.75"/>
<polygon fill="midnightblue" stroke="midnightblue" points="397.32,-101.72 399.51,-112.08 404.27,-102.62 397.32,-101.72"/>
</g>
<!-- Node11&#45;&gt;Node10 -->
<g id="edge12" class="edge">
<title>Node11&#45;&gt;Node10</title>
<path fill="none" stroke="midnightblue" d="M76.35,-45.8C76.35,-36.91 76.35,-26.78 76.35,-19.75"/>
<polygon fill="midnightblue" stroke="midnightblue" points="72.85,-46.08 76.35,-56.08 79.85,-46.08 72.85,-46.08"/>
</g>
<!-- Node13&#45;&gt;Node8 -->
<g id="edge19" class="edge">
<title>Node13&#45;&gt;Node8</title>
<path fill="none" stroke="midnightblue" d="M752.64,-110.71C812.14,-100.37 902.61,-84.67 957.34,-75.16"/>
<polygon fill="midnightblue" stroke="midnightblue" points="751.89,-107.28 742.63,-112.44 753.08,-114.18 751.89,-107.28"/>
</g>
<!-- Node14 -->
<g id="node14" class="node">
<title>Node14</title>
<g id="a_node14"><a xlink:href="genericaccessservice_8cpp.html" target="_top" xlink:title="Defines the GenericAccessService and GenericAccessServicePrivate classes.">
<polygon fill="none" stroke="black" points="254.85,-0.5 254.85,-19.5 395.85,-19.5 395.85,-0.5 254.85,-0.5"/>
<text text-anchor="middle" x="325.35" y="-7.5" font-family="Helvetica,sans-Serif" font-size="10.00">genericaccessservice.cpp</text>
</a>
</g>
</g>
<!-- Node13&#45;&gt;Node14 -->
<g id="edge16" class="edge">
<title>Node13&#45;&gt;Node14</title>
<path fill="none" stroke="midnightblue" d="M618.4,-111.85C516.62,-99.35 346.95,-78.22 344.35,-76 327.73,-61.79 325.23,-33.92 325.11,-19.73"/>
<polygon fill="midnightblue" stroke="midnightblue" points="617.98,-115.32 628.33,-113.07 618.83,-108.37 617.98,-115.32"/>
</g>
<!-- Node15 -->
<g id="node15" class="node">
<title>Node15</title>
<g id="a_node15"><a xlink:href="genericaccessservice__p_8h.html" target="_top" xlink:title="Declares the GenericAccessServicePrivate class.">
<polygon fill="none" stroke="black" points="155.85,-56.5 155.85,-75.5 296.85,-75.5 296.85,-56.5 155.85,-56.5"/>
<text text-anchor="middle" x="226.35" y="-63.5" font-family="Helvetica,sans-Serif" font-size="10.00">genericaccessservice_p.h</text>
</a>
</g>
</g>
<!-- Node13&#45;&gt;Node15 -->
<g id="edge17" class="edge">
<title>Node13&#45;&gt;Node15</title>
<path fill="none" stroke="midnightblue" d="M618.66,-112.04C618.56,-112.02 618.46,-112.01 618.35,-112 506.1,-98.82 375.7,-83.94 297.18,-75.02"/>
<polygon fill="midnightblue" stroke="midnightblue" points="617.97,-115.48 628.31,-113.17 618.79,-108.53 617.97,-115.48"/>
</g>
<!-- Node15&#45;&gt;Node14 -->
<g id="edge18" class="edge">
<title>Node15&#45;&gt;Node14</title>
<path fill="none" stroke="midnightblue" d="M251.19,-51.45C269.47,-41.48 293.77,-28.23 309.49,-19.65"/>
<polygon fill="midnightblue" stroke="midnightblue" points="249.36,-48.46 242.26,-56.32 252.71,-54.61 249.36,-48.46"/>
</g>
<!-- Node16&#45;&gt;Node8 -->
<g id="edge22" class="edge">
<title>Node16&#45;&gt;Node8</title>
<path fill="none" stroke="midnightblue" d="M1547.8,-117.81C1449.35,-111.83 1237.88,-97.59 1060.35,-76 1057.42,-75.64 1054.41,-75.25 1051.37,-74.82"/>
<polygon fill="midnightblue" stroke="midnightblue" points="1547.63,-121.3 1557.82,-118.41 1548.05,-114.32 1547.63,-121.3"/>
</g>
<!-- Node17 -->
<g id="node17" class="node">
<title>Node17</title>
<g id="a_node17"><a xlink:href="flashledcommand_8cpp_source.html" target="_top" xlink:title=" ">
<polygon fill="none" stroke="black" points="1469.35,-56.5 1469.35,-75.5 1593.35,-75.5 1593.35,-56.5 1469.35,-56.5"/>
<text text-anchor="middle" x="1531.35" y="-63.5" font-family="Helvetica,sans-Serif" font-size="10.00">flashledcommand.cpp</text>
</a>
</g>
</g>
<!-- Node16&#45;&gt;Node17 -->
<g id="edge21" class="edge">
<title>Node16&#45;&gt;Node17</title>
<path fill="none" stroke="midnightblue" d="M1583.49,-106.1C1570.53,-96.38 1554.06,-84.03 1543.13,-75.83"/>
<polygon fill="midnightblue" stroke="midnightblue" points="1581.69,-109.12 1591.79,-112.32 1585.89,-103.52 1581.69,-109.12"/>
</g>
<!-- Node18 -->
<g id="node18" class="node">
<title>Node18</title>
<g id="a_node18"><a xlink:href="pokitdevicedisoveryagent_8cpp.html" target="_top" xlink:title="Defines the PokitDeviceDiscoveryAgent and PokitDeviceDiscoveryAgentPrivate classes.">
<polygon fill="none" stroke="black" points="2173.35,-56.5 2173.35,-75.5 2337.35,-75.5 2337.35,-56.5 2173.35,-56.5"/>
<text text-anchor="middle" x="2255.35" y="-63.5" font-family="Helvetica,sans-Serif" font-size="10.00">pokitdevicedisoveryagent.cpp</text>
</a>
</g>
</g>
<!-- Node16&#45;&gt;Node18 -->
<g id="edge23" class="edge">
<title>Node16&#45;&gt;Node18</title>
<path fill="none" stroke="midnightblue" d="M1659.47,-116.85C1760.49,-109.29 1979.66,-92.54 2164.35,-76 2167.2,-75.75 2170.1,-75.48 2173.02,-75.21"/>
<polygon fill="midnightblue" stroke="midnightblue" points="1658.9,-113.38 1649.19,-117.61 1659.42,-120.36 1658.9,-113.38"/>
</g>
<!-- Node19 -->
<g id="node19" class="node">
<title>Node19</title>
<g id="a_node19"><a xlink:href="setnamecommand_8cpp_source.html" target="_top" xlink:title=" ">
<polygon fill="none" stroke="black" points="1611.35,-56.5 1611.35,-75.5 1739.35,-75.5 1739.35,-56.5 1611.35,-56.5"/>
<text text-anchor="middle" x="1675.35" y="-63.5" font-family="Helvetica,sans-Serif" font-size="10.00">setnamecommand.cpp</text>
</a>
</g>
</g>
<!-- Node16&#45;&gt;Node19 -->
<g id="edge24" class="edge">
<title>Node16&#45;&gt;Node19</title>
<path fill="none" stroke="midnightblue" d="M1623.22,-106.1C1636.18,-96.38 1652.65,-84.03 1663.57,-75.83"/>
<polygon fill="midnightblue" stroke="midnightblue" points="1620.82,-103.52 1614.92,-112.32 1625.02,-109.12 1620.82,-103.52"/>
</g>
<!-- Node20 -->
<g id="node20" class="node">
<title>Node20</title>
<g id="a_node20"><a xlink:href="statuscommand_8cpp_source.html" target="_top" xlink:title=" ">
<polygon fill="none" stroke="black" points="1757.35,-56.5 1757.35,-75.5 1873.35,-75.5 1873.35,-56.5 1757.35,-56.5"/>
<text text-anchor="middle" x="1815.35" y="-63.5" font-family="Helvetica,sans-Serif" font-size="10.00">statuscommand.cpp</text>
</a>
</g>
</g>
<!-- Node16&#45;&gt;Node20 -->
<g id="edge25" class="edge">
<title>Node16&#45;&gt;Node20</title>
<path fill="none" stroke="midnightblue" d="M1646.7,-109.96C1686.74,-99.76 1745.39,-84.82 1781.92,-75.52"/>
<polygon fill="midnightblue" stroke="midnightblue" points="1645.77,-106.58 1636.95,-112.44 1647.5,-113.37 1645.77,-106.58"/>
</g>
<!-- Node21 -->
<g id="node21" class="node">
<title>Node21</title>
<g id="a_node21"><a xlink:href="statusservice_8cpp.html" target="_top" xlink:title="Defines the StatusService and StatusServicePrivate classes.">
<polygon fill="none" stroke="black" points="1926.35,-0.5 1926.35,-19.5 2028.35,-19.5 2028.35,-0.5 1926.35,-0.5"/>
<text text-anchor="middle" x="1977.35" y="-7.5" font-family="Helvetica,sans-Serif" font-size="10.00">statusservice.cpp</text>
</a>
</g>
</g>
<!-- Node16&#45;&gt;Node21 -->
<g id="edge26" class="edge">
<title>Node16&#45;&gt;Node21</title>
<path fill="none" stroke="midnightblue" d="M1658.95,-119.16C1716.66,-115.64 1808.64,-105.44 1882.35,-76 1917.06,-62.14 1951.75,-33.85 1967.93,-19.6"/>
<polygon fill="midnightblue" stroke="midnightblue" points="1658.72,-115.67 1648.94,-119.73 1659.12,-122.66 1658.72,-115.67"/>
</g>
<!-- Node22 -->
<g id="node22" class="node">
<title>Node22</title>
<g id="a_node22"><a xlink:href="statusservice__p_8h.html" target="_top" xlink:title="Declares the StatusServicePrivate class.">
<polygon fill="none" stroke="black" points="1205.35,-56.5 1205.35,-75.5 1307.35,-75.5 1307.35,-56.5 1205.35,-56.5"/>
<text text-anchor="middle" x="1256.35" y="-63.5" font-family="Helvetica,sans-Serif" font-size="10.00">statusservice_p.h</text>
</a>
</g>
</g>
<!-- Node16&#45;&gt;Node22 -->
<g id="edge27" class="edge">
<title>Node16&#45;&gt;Node22</title>
<path fill="none" stroke="midnightblue" d="M1547.38,-112.29C1481.1,-101.98 1371.65,-84.94 1307.54,-74.97"/>
<polygon fill="midnightblue" stroke="midnightblue" points="1547.21,-115.81 1557.63,-113.88 1548.29,-108.89 1547.21,-115.81"/>
</g>
<!-- Node22&#45;&gt;Node21 -->
<g id="edge28" class="edge">
<title>Node22&#45;&gt;Node21</title>
<path fill="none" stroke="midnightblue" d="M1317.62,-56.07C1551.39,-31.24 1816.87,-17.94 1926.31,-13.11"/>
<polygon fill="midnightblue" stroke="midnightblue" points="1317.14,-52.6 1307.57,-57.15 1317.89,-59.56 1317.14,-52.6"/>
</g>
<!-- Node23&#45;&gt;Node3 -->
<g id="edge30" class="edge">
<title>Node23&#45;&gt;Node3</title>
<path fill="none" stroke="midnightblue" d="M573.83,-108.91C601.09,-98.75 639.35,-84.51 663.49,-75.52"/>
<polygon fill="midnightblue" stroke="midnightblue" points="572.48,-105.67 564.33,-112.44 574.92,-112.23 572.48,-105.67"/>
</g>
<!-- Node23&#45;&gt;Node7 -->
<g id="edge31" class="edge">
<title>Node23&#45;&gt;Node7</title>
<path fill="none" stroke="midnightblue" d="M539.95,-102.1C539.29,-93.14 538.53,-82.86 538,-75.75"/>
<polygon fill="midnightblue" stroke="midnightblue" points="536.46,-102.37 540.69,-112.08 543.44,-101.85 536.46,-102.37"/>
</g>
<!-- Node23&#45;&gt;Node11 -->
<g id="edge32" class="edge">
<title>Node23&#45;&gt;Node11</title>
<path fill="none" stroke="midnightblue" d="M462.09,-111.86C320.76,-95.73 283.82,-92.64 146.35,-76 143.68,-75.68 140.94,-75.34 138.18,-75"/>
<polygon fill="midnightblue" stroke="midnightblue" points="462.12,-115.38 472.45,-113.04 462.91,-108.43 462.12,-115.38"/>
</g>
<!-- Node23&#45;&gt;Node15 -->
<g id="edge33" class="edge">
<title>Node23&#45;&gt;Node15</title>
<path fill="none" stroke="midnightblue" d="M481.43,-110.73C421.9,-100.52 331.69,-85.06 276.03,-75.52"/>
<polygon fill="midnightblue" stroke="midnightblue" points="480.99,-114.2 491.44,-112.44 482.18,-107.3 480.99,-114.2"/>
</g>
<!-- Node23&#45;&gt;Node22 -->
<g id="edge34" class="edge">
<title>Node23&#45;&gt;Node22</title>
<path fill="none" stroke="midnightblue" d="M620.24,-111.97C876.98,-89.61 944.09,-102.74 1196.35,-76 1199.29,-75.69 1202.3,-75.34 1205.33,-74.96"/>
<polygon fill="midnightblue" stroke="midnightblue" points="619.89,-108.49 610.24,-112.85 620.51,-115.46 619.89,-108.49"/>
</g>
<!-- Node24&#45;&gt;Node3 -->
<g id="edge36" class="edge">
<title>Node24&#45;&gt;Node3</title>
<path fill="none" stroke="midnightblue" d="M1929.64,-119.45C1740.05,-113.14 1027.56,-89.05 802.35,-76 787.03,-75.11 770.58,-73.96 755.02,-72.77"/>
<polygon fill="midnightblue" stroke="midnightblue" points="1929.71,-122.96 1939.82,-119.79 1929.94,-115.96 1929.71,-122.96"/>
</g>
<!-- Node24&#45;&gt;Node6 -->
<g id="edge37" class="edge">
<title>Node24&#45;&gt;Node6</title>
<path fill="none" stroke="midnightblue" d="M1975.15,-101.73C1973.09,-86.65 1967.64,-66.52 1953.35,-56 1908.46,-22.95 1081.34,-13.5 845.59,-11.47"/>
<polygon fill="midnightblue" stroke="midnightblue" points="1971.7,-102.42 1976.16,-112.04 1978.67,-101.75 1971.7,-102.42"/>
</g>
<!-- Node24&#45;&gt;Node8 -->
<g id="edge41" class="edge">
<title>Node24&#45;&gt;Node8</title>
<path fill="none" stroke="midnightblue" d="M1929.35,-119.38C1767.16,-113.67 1231.58,-93.91 1060.35,-76 1057.42,-75.69 1054.4,-75.33 1051.36,-74.94"/>
<polygon fill="midnightblue" stroke="midnightblue" points="1929.37,-122.88 1939.48,-119.73 1929.61,-115.88 1929.37,-122.88"/>
</g>
<!-- Node24&#45;&gt;Node10 -->
<g id="edge38" class="edge">
<title>Node24&#45;&gt;Node10</title>
<path fill="none" stroke="midnightblue" d="M1956.7,-106.5C1931.66,-88.18 1890.63,-58.68 1882.35,-56 1795.82,-27.95 336.26,-23.42 245.35,-20 209.83,-18.66 170.13,-16.58 138.14,-14.75"/>
<polygon fill="midnightblue" stroke="midnightblue" points="1954.67,-109.36 1964.81,-112.46 1958.82,-103.72 1954.67,-109.36"/>
</g>
<!-- Node24&#45;&gt;Node14 -->
<g id="edge39" class="edge">
<title>Node24&#45;&gt;Node14</title>
<path fill="none" stroke="midnightblue" d="M1965.72,-103.43C1955.13,-87.79 1937.33,-65.88 1915.35,-56 1897.78,-48.1 701.65,-19.75 395.9,-12.63"/>
<polygon fill="midnightblue" stroke="midnightblue" points="1963,-105.68 1971.34,-112.2 1968.89,-101.9 1963,-105.68"/>
</g>
<!-- Node24&#45;&gt;Node18 -->
<g id="edge42" class="edge">
<title>Node24&#45;&gt;Node18</title>
<path fill="none" stroke="midnightblue" d="M2023.15,-111.94C2075.55,-101.8 2159.82,-85.49 2211.14,-75.56"/>
<polygon fill="midnightblue" stroke="midnightblue" points="2022.27,-108.55 2013.11,-113.88 2023.6,-115.42 2022.27,-108.55"/>
</g>
<!-- Node24&#45;&gt;Node21 -->
<g id="edge43" class="edge">
<title>Node24&#45;&gt;Node21</title>
<path fill="none" stroke="midnightblue" d="M2001.08,-106.9C2011.89,-99.28 2023.43,-88.79 2029.35,-76 2039.97,-53.05 2011.78,-31.1 1992.87,-19.51"/>
<polygon fill="midnightblue" stroke="midnightblue" points="1999.14,-103.98 1992.69,-112.39 2002.97,-109.84 1999.14,-103.98"/>
</g>
<!-- Node25 -->
<g id="node25" class="node">
<title>Node25</title>
<g id="a_node25"><a xlink:href="logging_8cpp_source.html" target="_top" xlink:title=" ">
<polygon fill="none" stroke="black" points="2081.85,-56.5 2081.85,-75.5 2154.85,-75.5 2154.85,-56.5 2081.85,-56.5"/>
<text text-anchor="middle" x="2118.35" y="-63.5" font-family="Helvetica,sans-Serif" font-size="10.00">logging.cpp</text>
</a>
</g>
</g>
<!-- Node24&#45;&gt;Node25 -->
<g id="edge40" class="edge">
<title>Node24&#45;&gt;Node25</title>
<path fill="none" stroke="midnightblue" d="M2008.51,-108.77C2035.18,-98.63 2072.42,-84.47 2095.96,-75.52"/>
<polygon fill="midnightblue" stroke="midnightblue" points="2006.96,-105.62 1998.85,-112.44 2009.44,-112.16 2006.96,-105.62"/>
</g>
<!-- Node26 -->
<g id="node26" class="node">
<title>Node26</title>
<g id="a_node26"><a xlink:href="utils_8cpp.html" target="_top" xlink:title="Defines some simple general purpose, utility functions used by QtPokit.">
<polygon fill="none" stroke="black" points="2355.35,-56.5 2355.35,-75.5 2413.35,-75.5 2413.35,-56.5 2355.35,-56.5"/>
<text text-anchor="middle" x="2384.35" y="-63.5" font-family="Helvetica,sans-Serif" font-size="10.00">utils.cpp</text>
</a>
</g>
</g>
<!-- Node24&#45;&gt;Node26 -->
<g id="edge44" class="edge">
<title>Node24&#45;&gt;Node26</title>
<path fill="none" stroke="midnightblue" d="M2023.38,-116.98C2093.9,-110.56 2231.08,-96.59 2346.35,-76 2349.16,-75.5 2352.06,-74.92 2354.96,-74.3"/>
<polygon fill="midnightblue" stroke="midnightblue" points="2022.7,-113.52 2013.05,-117.9 2023.33,-120.49 2022.7,-113.52"/>
</g>
<!-- Node27&#45;&gt;Node5 -->
<g id="edge47" class="edge">
<title>Node27&#45;&gt;Node5</title>
<path fill="none" stroke="midnightblue" d="M1336.68,-116.07C1254.43,-108.13 1088.66,-91.82 948.35,-76 945.43,-75.67 942.45,-75.33 939.44,-74.98"/>
<polygon fill="midnightblue" stroke="midnightblue" points="1336.48,-119.56 1346.77,-117.04 1337.15,-112.59 1336.48,-119.56"/>
</g>
<!-- Node27&#45;&gt;Node8 -->
<g id="edge51" class="edge">
<title>Node27&#45;&gt;Node8</title>
<path fill="none" stroke="midnightblue" d="M1336.69,-114.29C1272.02,-105.79 1157.89,-90.53 1060.35,-76 1057.43,-75.56 1054.43,-75.11 1051.39,-74.64"/>
<polygon fill="midnightblue" stroke="midnightblue" points="1336.26,-117.76 1346.63,-115.59 1337.17,-110.82 1336.26,-117.76"/>
</g>
<!-- Node27&#45;&gt;Node12 -->
<g id="edge50" class="edge">
<title>Node27&#45;&gt;Node12</title>
<path fill="none" stroke="midnightblue" d="M1336.37,-120.24C1195.83,-117.81 796.62,-108.35 466.35,-76 463.48,-75.72 460.53,-75.4 457.56,-75.04"/>
<polygon fill="midnightblue" stroke="midnightblue" points="1336.38,-123.74 1346.43,-120.41 1336.5,-116.74 1336.38,-123.74"/>
</g>
<!-- Node27&#45;&gt;Node17 -->
<g id="edge49" class="edge">
<title>Node27&#45;&gt;Node17</title>
<path fill="none" stroke="midnightblue" d="M1420.38,-108.91C1447.27,-98.75 1484.99,-84.51 1508.8,-75.52"/>
<polygon fill="midnightblue" stroke="midnightblue" points="1419.13,-105.64 1411.01,-112.44 1421.6,-112.19 1419.13,-105.64"/>
</g>
<!-- Node27&#45;&gt;Node19 -->
<g id="edge52" class="edge">
<title>Node27&#45;&gt;Node19</title>
<path fill="none" stroke="midnightblue" d="M1440.15,-111.25C1494.21,-101.08 1578.15,-85.29 1629.78,-75.58"/>
<polygon fill="midnightblue" stroke="midnightblue" points="1439.27,-107.86 1430.09,-113.15 1440.56,-114.74 1439.27,-107.86"/>
</g>
<!-- Node27&#45;&gt;Node20 -->
<g id="edge53" class="edge">
<title>Node27&#45;&gt;Node20</title>
<path fill="none" stroke="midnightblue" d="M1440.25,-114.66C1510.23,-106.09 1638.74,-90.21 1748.35,-76 1751.26,-75.62 1754.24,-75.23 1757.25,-74.84"/>
<polygon fill="midnightblue" stroke="midnightblue" points="1439.44,-111.24 1429.94,-115.93 1440.3,-118.19 1439.44,-111.24"/>
</g>
<!-- Node28 -->
<g id="node28" class="node">
<title>Node28</title>
<g id="a_node28"><a xlink:href="abstractcommand_8cpp_source.html" target="_top" xlink:title=" ">
<polygon fill="none" stroke="black" points="1325.85,-56.5 1325.85,-75.5 1450.85,-75.5 1450.85,-56.5 1325.85,-56.5"/>
<text text-anchor="middle" x="1388.35" y="-63.5" font-family="Helvetica,sans-Serif" font-size="10.00">abstractcommand.cpp</text>
</a>
</g>
</g>
<!-- Node27&#45;&gt;Node28 -->
<g id="edge46" class="edge">
<title>Node27&#45;&gt;Node28</title>
<path fill="none" stroke="midnightblue" d="M1388.35,-101.8C1388.35,-92.91 1388.35,-82.78 1388.35,-75.75"/>
<polygon fill="midnightblue" stroke="midnightblue" points="1384.85,-102.08 1388.35,-112.08 1391.85,-102.08 1384.85,-102.08"/>
</g>
<!-- Node29 -->
<g id="node29" class="node">
<title>Node29</title>
<g id="a_node29"><a xlink:href="devicecommand_8cpp_source.html" target="_top" xlink:title=" ">
<polygon fill="none" stroke="black" points="1069.35,-56.5 1069.35,-75.5 1187.35,-75.5 1187.35,-56.5 1069.35,-56.5"/>
<text text-anchor="middle" x="1128.35" y="-63.5" font-family="Helvetica,sans-Serif" font-size="10.00">devicecommand.cpp</text>
</a>
</g>
</g>
<!-- Node27&#45;&gt;Node29 -->
<g id="edge48" class="edge">
<title>Node27&#45;&gt;Node29</title>
<path fill="none" stroke="midnightblue" d="M1337.36,-110.41C1288.23,-100.2 1214.83,-84.96 1169.36,-75.52"/>
<polygon fill="midnightblue" stroke="midnightblue" points="1336.65,-113.84 1347.16,-112.44 1338.08,-106.98 1336.65,-113.84"/>
</g>
<!-- Node30&#45;&gt;Node8 -->
<g id="edge55" class="edge">
<title>Node30&#45;&gt;Node8</title>
<path fill="none" stroke="midnightblue" d="M1208.1,-164.02C1160.32,-141.27 1062.71,-94.79 1022.4,-75.59"/>
<polygon fill="midnightblue" stroke="midnightblue" points="1206.69,-167.23 1217.23,-168.37 1209.7,-160.91 1206.69,-167.23"/>
</g>
<!-- Node31&#45;&gt;Node18 -->
<g id="edge57" class="edge">
<title>Node31&#45;&gt;Node18</title>
<path fill="none" stroke="midnightblue" d="M2255.35,-101.8C2255.35,-92.91 2255.35,-82.78 2255.35,-75.75"/>
<polygon fill="midnightblue" stroke="midnightblue" points="2251.85,-102.08 2255.35,-112.08 2258.85,-102.08 2251.85,-102.08"/>
</g>
<!-- Node32 -->
<g id="node32" class="node">
<title>Node32</title>
<g id="a_node32"><a xlink:href="scancommand_8cpp_source.html" target="_top" xlink:title=" ">
<polygon fill="none" stroke="black" points="2431.35,-56.5 2431.35,-75.5 2539.35,-75.5 2539.35,-56.5 2431.35,-56.5"/>
<text text-anchor="middle" x="2485.35" y="-63.5" font-family="Helvetica,sans-Serif" font-size="10.00">scancommand.cpp</text>
</a>
</g>
</g>
<!-- Node31&#45;&gt;Node32 -->
<g id="edge58" class="edge">
<title>Node31&#45;&gt;Node32</title>
<path fill="none" stroke="midnightblue" d="M2301.55,-110.15C2345.01,-99.95 2409.19,-84.88 2449.08,-75.52"/>
<polygon fill="midnightblue" stroke="midnightblue" points="2300.73,-106.75 2291.8,-112.44 2302.33,-113.57 2300.73,-106.75"/>
</g>
<!-- Node33&#45;&gt;Node18 -->
<g id="edge60" class="edge">
<title>Node33&#45;&gt;Node18</title>
<path fill="none" stroke="midnightblue" d="M2040.71,-164.16C2090.85,-141.47 2193.87,-94.83 2236.37,-75.59"/>
<polygon fill="midnightblue" stroke="midnightblue" points="2039.09,-161.06 2031.42,-168.37 2041.97,-167.43 2039.09,-161.06"/>
</g>
<!-- Node34&#45;&gt;Node26 -->
<g id="edge63" class="edge">
<title>Node34&#45;&gt;Node26</title>
<path fill="none" stroke="midnightblue" d="M2384.35,-101.8C2384.35,-92.91 2384.35,-82.78 2384.35,-75.75"/>
<polygon fill="midnightblue" stroke="midnightblue" points="2380.85,-102.08 2384.35,-112.08 2387.85,-102.08 2380.85,-102.08"/>
</g>
<!-- Node34&#45;&gt;Node32 -->
<g id="edge62" class="edge">
<title>Node34&#45;&gt;Node32</title>
<path fill="none" stroke="midnightblue" d="M2409.44,-107.59C2428.11,-97.61 2453.06,-84.27 2469.17,-75.65"/>
<polygon fill="midnightblue" stroke="midnightblue" points="2407.75,-104.52 2400.58,-112.32 2411.05,-110.7 2407.75,-104.52"/>
</g>
</g>
</svg>
