<?xml version="1.0" encoding="UTF-8" standalone="no"?>
<!DOCTYPE svg PUBLIC "-//W3C//DTD SVG 1.1//EN"
 "http://www.w3.org/Graphics/SVG/1.1/DTD/svg11.dtd">
<!-- Generated by graphviz version 2.43.0 (0)
 -->
<!-- Title: statusservice_p.h Pages: 1 -->
<svg width="647pt" height="252pt"
 viewBox="0.00 0.00 646.50 252.00" xmlns="http://www.w3.org/2000/svg" xmlns:xlink="http://www.w3.org/1999/xlink">
<g id="graph0" class="graph" transform="scale(1 1) rotate(0) translate(4 248)">
<title>statusservice_p.h</title>
<!-- Node1 -->
<g id="node1" class="node">
<title>Node1</title>
<g id="a_node1"><a xlink:title="Declares the StatusServicePrivate class.">
<polygon fill="#bfbfbf" stroke="black" points="280,-224.5 280,-243.5 382,-243.5 382,-224.5 280,-224.5"/>
<text text-anchor="middle" x="331" y="-231.5" font-family="Helvetica,sans-Serif" font-size="10.00">statusservice_p.h</text>
</a>
</g>
</g>
<!-- Node2 -->
<g id="node2" class="node">
<title>Node2</title>
<g id="a_node2"><a xlink:href="statusservice_8h.html" target="_top" xlink:title="Declares the StatusService class.">
<polygon fill="none" stroke="black" points="221,-168.5 221,-187.5 349,-187.5 349,-168.5 221,-168.5"/>
<text text-anchor="middle" x="285" y="-175.5" font-family="Helvetica,sans-Serif" font-size="10.00">qtpokit/statusservice.h</text>
</a>
</g>
</g>
<!-- Node1&#45;&gt;Node2 -->
<g id="edge1" class="edge">
<title>Node1&#45;&gt;Node2</title>
<path fill="none" stroke="midnightblue" d="M323.4,-224.08C316.77,-216.3 306.98,-204.8 298.94,-195.37"/>
<polygon fill="midnightblue" stroke="midnightblue" points="301.6,-193.09 292.45,-187.75 296.27,-197.63 301.6,-193.09"/>
</g>
<!-- Node11 -->
<g id="node11" class="node">
<title>Node11</title>
<g id="a_node11"><a xlink:href="abstractpokitservice__p_8h.html" target="_top" xlink:title="Declares the AbstractPokitServicePrivate class.">
<polygon fill="none" stroke="black" points="501.5,-112.5 501.5,-131.5 638.5,-131.5 638.5,-112.5 501.5,-112.5"/>
<text text-anchor="middle" x="570" y="-119.5" font-family="Helvetica,sans-Serif" font-size="10.00">abstractpokitservice_p.h</text>
</a>
</g>
</g>
<!-- Node1&#45;&gt;Node11 -->
<g id="edge10" class="edge">
<title>Node1&#45;&gt;Node11</title>
<path fill="none" stroke="midnightblue" d="M349.75,-224.37C391.64,-205.09 492.97,-158.45 542.21,-135.79"/>
<polygon fill="midnightblue" stroke="midnightblue" points="543.71,-138.95 551.33,-131.59 540.79,-132.59 543.71,-138.95"/>
</g>
<!-- Node3 -->
<g id="node3" class="node">
<title>Node3</title>
<g id="a_node3"><a xlink:href="abstractpokitservice_8h.html" target="_top" xlink:title="Declares the AbstractPokitService class.">
<polygon fill="none" stroke="black" points="358.5,-112.5 358.5,-131.5 483.5,-131.5 483.5,-112.5 358.5,-112.5"/>
<text text-anchor="middle" x="421" y="-119.5" font-family="Helvetica,sans-Serif" font-size="10.00">abstractpokitservice.h</text>
</a>
</g>
</g>
<!-- Node2&#45;&gt;Node3 -->
<g id="edge2" class="edge">
<title>Node2&#45;&gt;Node3</title>
<path fill="none" stroke="midnightblue" d="M306.55,-168.44C329.03,-159.52 364.49,-145.44 389.98,-135.32"/>
<polygon fill="midnightblue" stroke="midnightblue" points="391.55,-138.46 399.55,-131.52 388.97,-131.95 391.55,-138.46"/>
</g>
<!-- Node8 -->
<g id="node8" class="node">
<title>Node8</title>
<g id="a_node8"><a xlink:title=" ">
<polygon fill="none" stroke="#bfbfbf" points="230,-112.5 230,-131.5 340,-131.5 340,-112.5 230,-112.5"/>
<text text-anchor="middle" x="285" y="-119.5" font-family="Helvetica,sans-Serif" font-size="10.00">QBluetoothAddress</text>
</a>
</g>
</g>
<!-- Node2&#45;&gt;Node8 -->
<g id="edge7" class="edge">
<title>Node2&#45;&gt;Node8</title>
<path fill="none" stroke="midnightblue" d="M285,-168.08C285,-161.01 285,-150.86 285,-141.99"/>
<polygon fill="midnightblue" stroke="midnightblue" points="288.5,-141.75 285,-131.75 281.5,-141.75 288.5,-141.75"/>
</g>
<!-- Node9 -->
<g id="node9" class="node">
<title>Node9</title>
<g id="a_node9"><a xlink:title=" ">
<polygon fill="none" stroke="#bfbfbf" points="0,-112.5 0,-131.5 94,-131.5 94,-112.5 0,-112.5"/>
<text text-anchor="middle" x="47" y="-119.5" font-family="Helvetica,sans-Serif" font-size="10.00">QBluetoothUuid</text>
</a>
</g>
</g>
<!-- Node2&#45;&gt;Node9 -->
<g id="edge8" class="edge">
<title>Node2&#45;&gt;Node9</title>
<path fill="none" stroke="midnightblue" d="M247.29,-168.44C205.86,-159.04 139.24,-143.93 94.33,-133.74"/>
<polygon fill="midnightblue" stroke="midnightblue" points="95.06,-130.32 84.54,-131.52 93.51,-137.14 95.06,-130.32"/>
</g>
<!-- Node10 -->
<g id="node10" class="node">
<title>Node10</title>
<g id="a_node10"><a xlink:title=" ">
<polygon fill="none" stroke="#bfbfbf" points="112.5,-112.5 112.5,-131.5 211.5,-131.5 211.5,-112.5 112.5,-112.5"/>
<text text-anchor="middle" x="162" y="-119.5" font-family="Helvetica,sans-Serif" font-size="10.00">QVersionNumber</text>
</a>
</g>
</g>
<!-- Node2&#45;&gt;Node10 -->
<g id="edge9" class="edge">
<title>Node2&#45;&gt;Node10</title>
<path fill="none" stroke="midnightblue" d="M265.51,-168.44C245.36,-159.6 213.68,-145.69 190.67,-135.59"/>
<polygon fill="midnightblue" stroke="midnightblue" points="191.96,-132.33 181.4,-131.52 189.15,-138.74 191.96,-132.33"/>
</g>
<!-- Node4 -->
<g id="node4" class="node">
<title>Node4</title>
<g id="a_node4"><a xlink:href="qtpokit__global_8h.html" target="_top" xlink:title="Global QtPokit library macros.">
<polygon fill="none" stroke="black" points="335.5,-56.5 335.5,-75.5 430.5,-75.5 430.5,-56.5 335.5,-56.5"/>
<text text-anchor="middle" x="383" y="-63.5" font-family="Helvetica,sans-Serif" font-size="10.00">qtpokit_global.h</text>
</a>
</g>
</g>
<!-- Node3&#45;&gt;Node4 -->
<g id="edge3" class="edge">
<title>Node3&#45;&gt;Node4</title>
<path fill="none" stroke="midnightblue" d="M414.73,-112.08C409.36,-104.46 401.48,-93.26 394.92,-83.94"/>
<polygon fill="midnightblue" stroke="midnightblue" points="397.78,-81.91 389.16,-75.75 392.05,-85.94 397.78,-81.91"/>
</g>
<!-- Node6 -->
<g id="node6" class="node">
<title>Node6</title>
<g id="a_node6"><a xlink:title=" ">
<polygon fill="none" stroke="#bfbfbf" points="448.5,-56.5 448.5,-75.5 561.5,-75.5 561.5,-56.5 448.5,-56.5"/>
<text text-anchor="middle" x="505" y="-63.5" font-family="Helvetica,sans-Serif" font-size="10.00">QLowEnergyService</text>
</a>
</g>
</g>
<!-- Node3&#45;&gt;Node6 -->
<g id="edge5" class="edge">
<title>Node3&#45;&gt;Node6</title>
<path fill="none" stroke="midnightblue" d="M434.5,-112.32C447.6,-103.9 467.71,-90.97 483.11,-81.07"/>
<polygon fill="midnightblue" stroke="midnightblue" points="485.02,-84.01 491.54,-75.65 481.23,-78.12 485.02,-84.01"/>
</g>
<!-- Node7 -->
<g id="node7" class="node">
<title>Node7</title>
<g id="a_node7"><a xlink:title=" ">
<polygon fill="none" stroke="#bfbfbf" points="580,-56.5 580,-75.5 636,-75.5 636,-56.5 580,-56.5"/>
<text text-anchor="middle" x="608" y="-63.5" font-family="Helvetica,sans-Serif" font-size="10.00">QObject</text>
</a>
</g>
</g>
<!-- Node3&#45;&gt;Node7 -->
<g id="edge6" class="edge">
<title>Node3&#45;&gt;Node7</title>
<path fill="none" stroke="midnightblue" d="M450.63,-112.44C482.88,-103.13 534.53,-88.22 569.8,-78.03"/>
<polygon fill="midnightblue" stroke="midnightblue" points="571.1,-81.3 579.73,-75.16 569.15,-74.57 571.1,-81.3"/>
</g>
<!-- Node5 -->
<g id="node5" class="node">
<title>Node5</title>
<g id="a_node5"><a xlink:title=" ">
<polygon fill="none" stroke="#bfbfbf" points="353.5,-0.5 353.5,-19.5 412.5,-19.5 412.5,-0.5 353.5,-0.5"/>
<text text-anchor="middle" x="383" y="-7.5" font-family="Helvetica,sans-Serif" font-size="10.00">QtGlobal</text>
</a>
</g>
</g>
<!-- Node4&#45;&gt;Node5 -->
<g id="edge4" class="edge">
<title>Node4&#45;&gt;Node5</title>
<path fill="none" stroke="midnightblue" d="M383,-56.08C383,-49.01 383,-38.86 383,-29.99"/>
<polygon fill="midnightblue" stroke="midnightblue" points="386.5,-29.75 383,-19.75 379.5,-29.75 386.5,-29.75"/>
</g>
<!-- Node11&#45;&gt;Node4 -->
<g id="edge11" class="edge">
<title>Node11&#45;&gt;Node4</title>
<path fill="none" stroke="midnightblue" d="M540.37,-112.44C508.5,-103.24 457.67,-88.56 422.44,-78.39"/>
<polygon fill="midnightblue" stroke="midnightblue" points="423.07,-74.93 412.49,-75.52 421.13,-81.65 423.07,-74.93"/>
</g>
<!-- Node11&#45;&gt;Node6 -->
<g id="edge12" class="edge">
<title>Node11&#45;&gt;Node6</title>
<path fill="none" stroke="midnightblue" d="M559.56,-112.32C549.85,-104.26 535.18,-92.08 523.5,-82.37"/>
<polygon fill="midnightblue" stroke="midnightblue" points="525.56,-79.53 515.63,-75.83 521.09,-84.92 525.56,-79.53"/>
</g>
<!-- Node11&#45;&gt;Node7 -->
<g id="edge13" class="edge">
<title>Node11&#45;&gt;Node7</title>
<path fill="none" stroke="midnightblue" d="M576.27,-112.08C581.64,-104.46 589.52,-93.26 596.08,-83.94"/>
<polygon fill="midnightblue" stroke="midnightblue" points="598.95,-85.94 601.84,-75.75 593.22,-81.91 598.95,-85.94"/>
</g>
</g>
</svg>
