<?xml version="1.0" encoding="UTF-8" standalone="no"?>
<!DOCTYPE svg PUBLIC "-//W3C//DTD SVG 1.1//EN"
 "http://www.w3.org/Graphics/SVG/1.1/DTD/svg11.dtd">
<!-- Generated by graphviz version 2.43.0 (0)
 -->
<!-- Title: statusservice_p.h Pages: 1 -->
<svg width="878pt" height="302pt"
 viewBox="0.00 0.00 877.50 302.00" xmlns="http://www.w3.org/2000/svg" xmlns:xlink="http://www.w3.org/1999/xlink">
<g id="graph0" class="graph" transform="scale(1 1) rotate(0) translate(4 298)">
<title>statusservice_p.h</title>
<!-- Node1 -->
<g id="Node000001" class="node">
<title>Node1</title>
<g id="a_Node000001"><a xlink:title="Declares the StatusServicePrivate class.">
<polygon fill="#999999" stroke="#666666" points="426,-294 324,-294 324,-275 426,-275 426,-294"/>
<text text-anchor="middle" x="375" y="-282" font-family="Helvetica,sans-Serif" font-size="10.00">statusservice_p.h</text>
</a>
</g>
</g>
<!-- Node2 -->
<g id="Node000002" class="node">
<title>Node2</title>
<g id="a_Node000002"><a xlink:href="statusservice_8h.html" target="_top" xlink:title="Declares the StatusService class.">
<polygon fill="white" stroke="#666666" points="393,-239 265,-239 265,-220 393,-220 393,-239"/>
<text text-anchor="middle" x="329" y="-227" font-family="Helvetica,sans-Serif" font-size="10.00">qtpokit/statusservice.h</text>
</a>
</g>
</g>
<!-- Node1&#45;&gt;Node2 -->
<g id="edge1_Node000001_Node000002" class="edge">
<title>Node1&#45;&gt;Node2</title>
<g id="a_edge1_Node000001_Node000002"><a xlink:title=" ">
<path fill="none" stroke="#63b8ff" d="M367.4,-274.75C360.44,-266.72 349.98,-254.67 341.74,-245.18"/>
<polygon fill="#63b8ff" stroke="#63b8ff" points="336.45,-239.09 344.42,-242.77 339.08,-242.11 341.7,-245.13 341.7,-245.13 341.7,-245.13 339.08,-242.11 338.98,-247.49 336.45,-239.09 336.45,-239.09"/>
</a>
</g>
</g>
<!-- Node16 -->
<g id="Node000016" class="node">
<title>Node16</title>
<g id="a_Node000016"><a xlink:href="abstractpokitservice__p_8h.html" target="_top" xlink:title="Declares the AbstractPokitServicePrivate class.">
<polygon fill="white" stroke="#666666" points="676.5,-184 539.5,-184 539.5,-165 676.5,-165 676.5,-184"/>
<text text-anchor="middle" x="608" y="-172" font-family="Helvetica,sans-Serif" font-size="10.00">abstractpokitservice_p.h</text>
</a>
</g>
</g>
<!-- Node1&#45;&gt;Node16 -->
<g id="edge17_Node000001_Node000016" class="edge">
<title>Node1&#45;&gt;Node16</title>
<g id="a_edge17_Node000001_Node000016"><a xlink:title=" ">
<path fill="none" stroke="#63b8ff" d="M393.67,-274.84C435.1,-255.64 534.78,-209.44 582.15,-187.48"/>
<polygon fill="#63b8ff" stroke="#63b8ff" points="589.56,-184.05 583.82,-190.68 585.93,-185.73 582.3,-187.41 582.3,-187.41 582.3,-187.41 585.93,-185.73 580.79,-184.15 589.56,-184.05 589.56,-184.05"/>
</a>
</g>
</g>
<!-- Node3 -->
<g id="Node000003" class="node">
<title>Node3</title>
<g id="a_Node000003"><a xlink:href="abstractpokitservice_8h.html" target="_top" xlink:title="Declares the AbstractPokitService class.">
<polygon fill="white" stroke="#666666" points="521.5,-184 396.5,-184 396.5,-165 521.5,-165 521.5,-184"/>
<text text-anchor="middle" x="459" y="-172" font-family="Helvetica,sans-Serif" font-size="10.00">abstractpokitservice.h</text>
</a>
</g>
</g>
<!-- Node2&#45;&gt;Node3 -->
<g id="edge2_Node000002_Node000003" class="edge">
<title>Node2&#45;&gt;Node3</title>
<g id="a_edge2_Node000002_Node000003"><a xlink:title=" ">
<path fill="none" stroke="#63b8ff" d="M349.89,-219.98C371.65,-211.11 405.9,-197.15 430.22,-187.24"/>
<polygon fill="#63b8ff" stroke="#63b8ff" points="437.73,-184.17 431.68,-190.52 434.03,-185.68 430.33,-187.19 430.33,-187.19 430.33,-187.19 434.03,-185.68 428.97,-183.86 437.73,-184.17 437.73,-184.17"/>
</a>
</g>
</g>
<!-- Node12 -->
<g id="Node000012" class="node">
<title>Node12</title>
<g id="a_Node000012"><a xlink:title=" ">
<polygon fill="#e0e0e0" stroke="#999999" points="390,-129 334,-129 334,-110 390,-110 390,-129"/>
<text text-anchor="middle" x="362" y="-117" font-family="Helvetica,sans-Serif" font-size="10.00">optional</text>
</a>
</g>
</g>
<!-- Node2&#45;&gt;Node12 -->
<g id="edge16_Node000002_Node000012" class="edge">
<title>Node2&#45;&gt;Node12</title>
<g id="a_edge16_Node000002_Node000012"><a xlink:title=" ">
<path fill="none" stroke="#63b8ff" d="M333.28,-219.82C337.5,-210.98 343.9,-196.8 348,-184 352.98,-168.45 356.81,-150.21 359.19,-137.27"/>
<polygon fill="#63b8ff" stroke="#63b8ff" points="360.6,-129.26 362.75,-137.77 359.91,-133.2 359.21,-137.14 359.21,-137.14 359.21,-137.14 359.91,-133.2 355.66,-136.51 360.6,-129.26 360.6,-129.26"/>
</a>
</g>
</g>
<!-- Node13 -->
<g id="Node000013" class="node">
<title>Node13</title>
<g id="a_Node000013"><a xlink:title=" ">
<polygon fill="#e0e0e0" stroke="#999999" points="110,-184 0,-184 0,-165 110,-165 110,-184"/>
<text text-anchor="middle" x="55" y="-172" font-family="Helvetica,sans-Serif" font-size="10.00">QBluetoothAddress</text>
</a>
</g>
</g>
<!-- Node2&#45;&gt;Node13 -->
<g id="edge13_Node000002_Node000013" class="edge">
<title>Node2&#45;&gt;Node13</title>
<g id="a_edge13_Node000002_Node000013"><a xlink:title=" ">
<path fill="none" stroke="#63b8ff" d="M284.98,-219.98C236.59,-210.62 158.89,-195.6 107.4,-185.64"/>
<polygon fill="#63b8ff" stroke="#63b8ff" points="99.37,-184.08 107.91,-182.07 103.3,-184.84 107.22,-185.6 107.22,-185.6 107.22,-185.6 103.3,-184.84 106.54,-189.14 99.37,-184.08 99.37,-184.08"/>
</a>
</g>
</g>
<!-- Node14 -->
<g id="Node000014" class="node">
<title>Node14</title>
<g id="a_Node000014"><a xlink:title=" ">
<polygon fill="#e0e0e0" stroke="#999999" points="222,-184 128,-184 128,-165 222,-165 222,-184"/>
<text text-anchor="middle" x="175" y="-172" font-family="Helvetica,sans-Serif" font-size="10.00">QBluetoothUuid</text>
</a>
</g>
</g>
<!-- Node2&#45;&gt;Node14 -->
<g id="edge14_Node000002_Node000014" class="edge">
<title>Node2&#45;&gt;Node14</title>
<g id="a_edge14_Node000002_Node000014"><a xlink:title=" ">
<path fill="none" stroke="#63b8ff" d="M304.26,-219.98C278.07,-210.97 236.6,-196.7 207.73,-186.76"/>
<polygon fill="#63b8ff" stroke="#63b8ff" points="199.94,-184.08 208.67,-183.28 203.72,-185.38 207.5,-186.69 207.5,-186.69 207.5,-186.69 203.72,-185.38 206.33,-190.09 199.94,-184.08 199.94,-184.08"/>
</a>
</g>
</g>
<!-- Node15 -->
<g id="Node000015" class="node">
<title>Node15</title>
<g id="a_Node000015"><a xlink:title=" ">
<polygon fill="#e0e0e0" stroke="#999999" points="339.5,-184 240.5,-184 240.5,-165 339.5,-165 339.5,-184"/>
<text text-anchor="middle" x="290" y="-172" font-family="Helvetica,sans-Serif" font-size="10.00">QVersionNumber</text>
</a>
</g>
</g>
<!-- Node2&#45;&gt;Node15 -->
<g id="edge15_Node000002_Node000015" class="edge">
<title>Node2&#45;&gt;Node15</title>
<g id="a_edge15_Node000002_Node000015"><a xlink:title=" ">
<path fill="none" stroke="#63b8ff" d="M322.56,-219.75C316.77,-211.88 308.13,-200.14 301.21,-190.73"/>
<polygon fill="#63b8ff" stroke="#63b8ff" points="296.32,-184.09 303.96,-188.4 298.69,-187.31 301.06,-190.53 301.06,-190.53 301.06,-190.53 298.69,-187.31 298.16,-192.67 296.32,-184.09 296.32,-184.09"/>
</a>
</g>
</g>
<!-- Node4 -->
<g id="Node000004" class="node">
<title>Node4</title>
<g id="a_Node000004"><a xlink:href="qtpokit__global_8h.html" target="_top" xlink:title="Global QtPokit library macros.">
<polygon fill="white" stroke="#666666" points="564.5,-74 469.5,-74 469.5,-55 564.5,-55 564.5,-74"/>
<text text-anchor="middle" x="517" y="-62" font-family="Helvetica,sans-Serif" font-size="10.00">qtpokit_global.h</text>
</a>
</g>
</g>
<!-- Node3&#45;&gt;Node4 -->
<g id="edge3_Node000003_Node000004" class="edge">
<title>Node3&#45;&gt;Node4</title>
<g id="a_edge3_Node000003_Node000004"><a xlink:title=" ">
<path fill="none" stroke="#63b8ff" d="M396.29,-165.32C350.78,-156.73 301.05,-140.13 325,-110 341.74,-88.94 410.35,-76.96 460.8,-70.85"/>
<polygon fill="#63b8ff" stroke="#63b8ff" points="469.05,-69.89 461.52,-74.4 465.07,-70.35 461.1,-70.82 461.1,-70.82 461.1,-70.82 465.07,-70.35 460.68,-67.24 469.05,-69.89 469.05,-69.89"/>
</a>
</g>
</g>
<!-- Node6 -->
<g id="Node000006" class="node">
<title>Node6</title>
<g id="a_Node000006"><a xlink:href="pokitproducts_8h.html" target="_top" xlink:title="Declares the PokitProduct enumeration, and related helper functions.">
<polygon fill="white" stroke="#666666" points="744,-129 652,-129 652,-110 744,-110 744,-129"/>
<text text-anchor="middle" x="698" y="-117" font-family="Helvetica,sans-Serif" font-size="10.00">pokitproducts.h</text>
</a>
</g>
</g>
<!-- Node3&#45;&gt;Node6 -->
<g id="edge5_Node000003_Node000006" class="edge">
<title>Node3&#45;&gt;Node6</title>
<g id="a_edge5_Node000003_Node000006"><a xlink:title=" ">
<path fill="none" stroke="#63b8ff" d="M497.4,-164.98C539.35,-155.68 606.54,-140.78 651.46,-130.82"/>
<polygon fill="#63b8ff" stroke="#63b8ff" points="659.3,-129.08 652.27,-134.33 655.39,-129.95 651.49,-130.81 651.49,-130.81 651.49,-130.81 655.39,-129.95 650.71,-127.3 659.3,-129.08 659.3,-129.08"/>
</a>
</g>
</g>
<!-- Node10 -->
<g id="Node000010" class="node">
<title>Node10</title>
<g id="a_Node000010"><a xlink:title=" ">
<polygon fill="#e0e0e0" stroke="#999999" points="521.5,-129 408.5,-129 408.5,-110 521.5,-110 521.5,-129"/>
<text text-anchor="middle" x="465" y="-117" font-family="Helvetica,sans-Serif" font-size="10.00">QLowEnergyService</text>
</a>
</g>
</g>
<!-- Node3&#45;&gt;Node10 -->
<g id="edge10_Node000003_Node000010" class="edge">
<title>Node3&#45;&gt;Node10</title>
<g id="a_edge10_Node000003_Node000010"><a xlink:title=" ">
<path fill="none" stroke="#63b8ff" d="M459.99,-164.75C460.84,-157.26 462.08,-146.28 463.12,-137.13"/>
<polygon fill="#63b8ff" stroke="#63b8ff" points="464.03,-129.09 466.7,-137.44 463.58,-133.06 463.13,-137.04 463.13,-137.04 463.13,-137.04 463.58,-133.06 459.55,-136.63 464.03,-129.09 464.03,-129.09"/>
</a>
</g>
</g>
<!-- Node11 -->
<g id="Node000011" class="node">
<title>Node11</title>
<g id="a_Node000011"><a xlink:title=" ">
<polygon fill="#e0e0e0" stroke="#999999" points="596,-129 540,-129 540,-110 596,-110 596,-129"/>
<text text-anchor="middle" x="568" y="-117" font-family="Helvetica,sans-Serif" font-size="10.00">QObject</text>
</a>
</g>
</g>
<!-- Node3&#45;&gt;Node11 -->
<g id="edge11_Node000003_Node000011" class="edge">
<title>Node3&#45;&gt;Node11</title>
<g id="a_edge11_Node000003_Node000011"><a xlink:title=" ">
<path fill="none" stroke="#63b8ff" d="M476.51,-164.98C494.44,-156.27 522.48,-142.63 542.8,-132.75"/>
<polygon fill="#63b8ff" stroke="#63b8ff" points="550.17,-129.17 544.55,-135.91 546.57,-130.92 542.97,-132.67 542.97,-132.67 542.97,-132.67 546.57,-130.92 541.4,-129.43 550.17,-129.17 550.17,-129.17"/>
</a>
</g>
</g>
<!-- Node3&#45;&gt;Node12 -->
<g id="edge12_Node000003_Node000012" class="edge">
<title>Node3&#45;&gt;Node12</title>
<g id="a_edge12_Node000003_Node000012"><a xlink:title=" ">
<path fill="none" stroke="#63b8ff" d="M443.42,-164.98C427.67,-156.38 403.16,-142.99 385.15,-133.15"/>
<polygon fill="#63b8ff" stroke="#63b8ff" points="377.87,-129.17 386.61,-129.85 381.38,-131.09 384.89,-133.01 384.89,-133.01 384.89,-133.01 381.38,-131.09 383.16,-136.17 377.87,-129.17 377.87,-129.17"/>
</a>
</g>
</g>
<!-- Node5 -->
<g id="Node000005" class="node">
<title>Node5</title>
<g id="a_Node000005"><a xlink:title=" ">
<polygon fill="#e0e0e0" stroke="#999999" points="546.5,-19 487.5,-19 487.5,0 546.5,0 546.5,-19"/>
<text text-anchor="middle" x="517" y="-7" font-family="Helvetica,sans-Serif" font-size="10.00">QtGlobal</text>
</a>
</g>
</g>
<!-- Node4&#45;&gt;Node5 -->
<g id="edge4_Node000004_Node000005" class="edge">
<title>Node4&#45;&gt;Node5</title>
<g id="a_edge4_Node000004_Node000005"><a xlink:title=" ">
<path fill="none" stroke="#63b8ff" d="M517,-54.75C517,-47.26 517,-36.28 517,-27.13"/>
<polygon fill="#63b8ff" stroke="#63b8ff" points="517,-19.09 520.6,-27.09 517,-23.09 517,-27.09 517,-27.09 517,-27.09 517,-23.09 513.4,-27.09 517,-19.09 517,-19.09"/>
</a>
</g>
</g>
<!-- Node6&#45;&gt;Node4 -->
<g id="edge6_Node000006_Node000004" class="edge">
<title>Node6&#45;&gt;Node4</title>
<g id="a_edge6_Node000006_Node000004"><a xlink:title=" ">
<path fill="none" stroke="#63b8ff" d="M668.92,-109.98C637.74,-100.86 588.15,-86.33 554.16,-76.38"/>
<polygon fill="#63b8ff" stroke="#63b8ff" points="546.31,-74.08 555,-72.88 550.15,-75.21 553.99,-76.33 553.99,-76.33 553.99,-76.33 550.15,-75.21 552.97,-79.79 546.31,-74.08 546.31,-74.08"/>
</a>
</g>
</g>
<!-- Node7 -->
<g id="Node000007" class="node">
<title>Node7</title>
<g id="a_Node000007"><a xlink:title=" ">
<polygon fill="#e0e0e0" stroke="#999999" points="707,-74 583,-74 583,-55 707,-55 707,-74"/>
<text text-anchor="middle" x="645" y="-62" font-family="Helvetica,sans-Serif" font-size="10.00">QBluetoothDeviceInfo</text>
</a>
</g>
</g>
<!-- Node6&#45;&gt;Node7 -->
<g id="edge7_Node000006_Node000007" class="edge">
<title>Node6&#45;&gt;Node7</title>
<g id="a_edge7_Node000006_Node000007"><a xlink:title=" ">
<path fill="none" stroke="#63b8ff" d="M689.25,-109.75C681.14,-101.64 668.94,-89.44 659.4,-79.9"/>
<polygon fill="#63b8ff" stroke="#63b8ff" points="653.59,-74.09 661.79,-77.2 656.42,-76.92 659.25,-79.75 659.25,-79.75 659.25,-79.75 656.42,-76.92 656.7,-82.29 653.59,-74.09 653.59,-74.09"/>
</a>
</g>
</g>
<!-- Node8 -->
<g id="Node000008" class="node">
<title>Node8</title>
<g id="a_Node000008"><a xlink:title=" ">
<polygon fill="#e0e0e0" stroke="#999999" points="775,-74 725,-74 725,-55 775,-55 775,-74"/>
<text text-anchor="middle" x="750" y="-62" font-family="Helvetica,sans-Serif" font-size="10.00">QFlags</text>
</a>
</g>
</g>
<!-- Node6&#45;&gt;Node8 -->
<g id="edge8_Node000006_Node000008" class="edge">
<title>Node6&#45;&gt;Node8</title>
<g id="a_edge8_Node000006_Node000008"><a xlink:title=" ">
<path fill="none" stroke="#63b8ff" d="M706.59,-109.75C714.54,-101.64 726.51,-89.44 735.87,-79.9"/>
<polygon fill="#63b8ff" stroke="#63b8ff" points="741.57,-74.09 738.54,-82.32 738.77,-76.94 735.97,-79.8 735.97,-79.8 735.97,-79.8 738.77,-76.94 733.4,-77.28 741.57,-74.09 741.57,-74.09"/>
</a>
</g>
</g>
<!-- Node9 -->
<g id="Node000009" class="node">
<title>Node9</title>
<g id="a_Node000009"><a xlink:title=" ">
<polygon fill="#e0e0e0" stroke="#999999" points="846.5,-74 793.5,-74 793.5,-55 846.5,-55 846.5,-74"/>
<text text-anchor="middle" x="820" y="-62" font-family="Helvetica,sans-Serif" font-size="10.00">QString</text>
</a>
</g>
</g>
<!-- Node6&#45;&gt;Node9 -->
<g id="edge9_Node000006_Node000009" class="edge">
<title>Node6&#45;&gt;Node9</title>
<g id="a_edge9_Node000006_Node000009"><a xlink:title=" ">
<path fill="none" stroke="#63b8ff" d="M717.6,-109.98C737.93,-101.15 769.89,-87.27 792.69,-77.36"/>
<polygon fill="#63b8ff" stroke="#63b8ff" points="800.04,-74.17 794.14,-80.66 796.37,-75.76 792.7,-77.36 792.7,-77.36 792.7,-77.36 796.37,-75.76 791.27,-74.06 800.04,-74.17 800.04,-74.17"/>
</a>
</g>
</g>
<!-- Node16&#45;&gt;Node4 -->
<g id="edge18_Node000016_Node000004" class="edge">
<title>Node16&#45;&gt;Node4</title>
<g id="a_edge18_Node000016_Node000004"><a xlink:title=" ">
<path fill="none" stroke="#63b8ff" d="M610.13,-164.88C612.83,-151.84 615.92,-126.86 605,-110 594.75,-94.18 577.03,-83.73 560.17,-76.97"/>
<polygon fill="#63b8ff" stroke="#63b8ff" points="552.51,-74.11 561.26,-73.53 556.26,-75.51 560.01,-76.91 560.01,-76.91 560.01,-76.91 556.26,-75.51 558.75,-80.28 552.51,-74.11 552.51,-74.11"/>
</a>
</g>
</g>
<!-- Node16&#45;&gt;Node6 -->
<g id="edge19_Node000016_Node000006" class="edge">
<title>Node16&#45;&gt;Node6</title>
<g id="a_edge19_Node000016_Node000006"><a xlink:title=" ">
<path fill="none" stroke="#63b8ff" d="M622.46,-164.98C636.94,-156.46 659.4,-143.23 676.07,-133.41"/>
<polygon fill="#63b8ff" stroke="#63b8ff" points="683.28,-129.17 678.21,-136.33 679.83,-131.2 676.38,-133.23 676.38,-133.23 676.38,-133.23 679.83,-131.2 674.56,-130.13 683.28,-129.17 683.28,-129.17"/>
</a>
</g>
</g>
<!-- Node16&#45;&gt;Node10 -->
<g id="edge21_Node000016_Node000010" class="edge">
<title>Node16&#45;&gt;Node10</title>
<g id="a_edge21_Node000016_Node000010"><a xlink:title=" ">
<path fill="none" stroke="#63b8ff" d="M585.02,-164.98C560.88,-156.04 522.76,-141.91 495.97,-131.98"/>
<polygon fill="#63b8ff" stroke="#63b8ff" points="488.39,-129.17 497.15,-128.57 492.14,-130.56 495.89,-131.95 495.89,-131.95 495.89,-131.95 492.14,-130.56 494.64,-135.33 488.39,-129.17 488.39,-129.17"/>
</a>
</g>
</g>
<!-- Node16&#45;&gt;Node11 -->
<g id="edge22_Node000016_Node000011" class="edge">
<title>Node16&#45;&gt;Node11</title>
<g id="a_edge22_Node000016_Node000011"><a xlink:title=" ">
<path fill="none" stroke="#63b8ff" d="M601.39,-164.75C595.45,-156.88 586.59,-145.14 579.49,-135.73"/>
<polygon fill="#63b8ff" stroke="#63b8ff" points="574.48,-129.09 582.18,-133.31 576.89,-132.28 579.3,-135.47 579.3,-135.47 579.3,-135.47 576.89,-132.28 576.43,-137.64 574.48,-129.09 574.48,-129.09"/>
</a>
</g>
</g>
<!-- Node16&#45;&gt;Node12 -->
<g id="edge23_Node000016_Node000012" class="edge">
<title>Node16&#45;&gt;Node12</title>
<g id="a_edge23_Node000016_Node000012"><a xlink:title=" ">
<path fill="none" stroke="#63b8ff" d="M567.11,-165C524.95,-156.18 457.32,-141.91 399,-129 398.73,-128.94 398.47,-128.88 398.2,-128.82"/>
<polygon fill="#63b8ff" stroke="#63b8ff" points="390.27,-127.04 398.87,-125.28 394.17,-127.92 398.08,-128.8 398.08,-128.8 398.08,-128.8 394.17,-127.92 397.29,-132.31 390.27,-127.04 390.27,-127.04"/>
</a>
</g>
</g>
<!-- Node17 -->
<g id="Node000017" class="node">
<title>Node17</title>
<g id="a_Node000017"><a xlink:title=" ">
<polygon fill="#e0e0e0" stroke="#999999" points="869.5,-129 762.5,-129 762.5,-110 869.5,-110 869.5,-129"/>
<text text-anchor="middle" x="816" y="-117" font-family="Helvetica,sans-Serif" font-size="10.00">QLoggingCategory</text>
</a>
</g>
</g>
<!-- Node16&#45;&gt;Node17 -->
<g id="edge20_Node000016_Node000017" class="edge">
<title>Node16&#45;&gt;Node17</title>
<g id="a_edge20_Node000016_Node000017"><a xlink:title=" ">
<path fill="none" stroke="#63b8ff" d="M641.42,-164.98C677.55,-155.78 735.2,-141.09 774.28,-131.13"/>
<polygon fill="#63b8ff" stroke="#63b8ff" points="782.32,-129.08 775.46,-134.55 778.44,-130.07 774.57,-131.06 774.57,-131.06 774.57,-131.06 778.44,-130.07 773.68,-127.57 782.32,-129.08 782.32,-129.08"/>
</a>
</g>
</g>
</g>
</svg>
