<?xml version="1.0" encoding="UTF-8" standalone="no"?>
<!DOCTYPE svg PUBLIC "-//W3C//DTD SVG 1.1//EN"
 "http://www.w3.org/Graphics/SVG/1.1/DTD/svg11.dtd">
<!-- Generated by graphviz version 2.43.0 (0)
 -->
<!-- Title: stringliterals_p.h Pages: 1 -->
<svg width="2946pt" height="82pt"
 viewBox="0.00 0.00 2945.50 82.00" xmlns="http://www.w3.org/2000/svg" xmlns:xlink="http://www.w3.org/1999/xlink">
<g id="graph0" class="graph" transform="scale(1 1) rotate(0) translate(4 78)">
<title>stringliterals_p.h</title>
<!-- Node1 -->
<g id="Node000001" class="node">
<title>Node1</title>
<g id="a_Node000001"><a xlink:title="Declares the DOKIT_USE_STRINGLITERALS macro, and related functions.">
<polygon fill="#999999" stroke="#666666" points="1576.5,-74 1478.5,-74 1478.5,-55 1576.5,-55 1576.5,-74"/>
<text text-anchor="middle" x="1527.5" y="-62" font-family="Helvetica,sans-Serif" font-size="10.00">stringliterals_p.h</text>
</a>
</g>
</g>
<!-- Node2 -->
<g id="Node000002" class="node">
<title>Node2</title>
<g id="a_Node000002"><a xlink:href="abstractcommand_8cpp_source.html" target="_top" xlink:title=" ">
<polygon fill="white" stroke="#666666" points="125,-19 0,-19 0,0 125,0 125,-19"/>
<text text-anchor="middle" x="62.5" y="-7" font-family="Helvetica,sans-Serif" font-size="10.00">abstractcommand.cpp</text>
</a>
</g>
</g>
<!-- Node1&#45;&gt;Node2 -->
<g id="edge1_Node000001_Node000002" class="edge">
<title>Node1&#45;&gt;Node2</title>
<g id="a_edge1_Node000001_Node000002"><a xlink:title=" ">
<path fill="none" stroke="#63b8ff" d="M1470.14,-63.46C1279.72,-62.95 651.25,-58.18 133.5,-19 130.78,-18.79 128,-18.56 125.19,-18.31"/>
<polygon fill="#63b8ff" stroke="#63b8ff" points="1478.34,-63.48 1470.33,-67.06 1474.34,-63.47 1470.34,-63.46 1470.34,-63.46 1470.34,-63.46 1474.34,-63.47 1470.35,-59.86 1478.34,-63.48 1478.34,-63.48"/>
</a>
</g>
</g>
<!-- Node3 -->
<g id="Node000003" class="node">
<title>Node3</title>
<g id="a_Node000003"><a xlink:href="abstractpokitservice_8cpp.html" target="_top" xlink:title="Defines the AbstractPokitService and AbstractPokitServicePrivate classes.">
<polygon fill="white" stroke="#666666" points="280,-19 143,-19 143,0 280,0 280,-19"/>
<text text-anchor="middle" x="211.5" y="-7" font-family="Helvetica,sans-Serif" font-size="10.00">abstractpokitservice.cpp</text>
</a>
</g>
</g>
<!-- Node1&#45;&gt;Node3 -->
<g id="edge2_Node000001_Node000003" class="edge">
<title>Node1&#45;&gt;Node3</title>
<g id="a_edge2_Node000001_Node000003"><a xlink:title=" ">
<path fill="none" stroke="#63b8ff" d="M1470.38,-62.92C1294.24,-60.82 744.01,-51.89 289.5,-19 286.51,-18.78 283.46,-18.54 280.38,-18.28"/>
<polygon fill="#63b8ff" stroke="#63b8ff" points="1478.48,-63.02 1470.44,-66.52 1474.48,-62.97 1470.48,-62.92 1470.48,-62.92 1470.48,-62.92 1474.48,-62.97 1470.52,-59.32 1478.48,-63.02 1478.48,-63.02"/>
</a>
</g>
</g>
<!-- Node4 -->
<g id="Node000004" class="node">
<title>Node4</title>
<g id="a_Node000004"><a xlink:href="calibratecommand_8cpp_source.html" target="_top" xlink:title=" ">
<polygon fill="white" stroke="#666666" points="426.5,-19 298.5,-19 298.5,0 426.5,0 426.5,-19"/>
<text text-anchor="middle" x="362.5" y="-7" font-family="Helvetica,sans-Serif" font-size="10.00">calibratecommand.cpp</text>
</a>
</g>
</g>
<!-- Node1&#45;&gt;Node4 -->
<g id="edge3_Node000001_Node000004" class="edge">
<title>Node1&#45;&gt;Node4</title>
<g id="a_edge3_Node000001_Node000004"><a xlink:title=" ">
<path fill="none" stroke="#63b8ff" d="M1470.02,-62.68C1307.43,-60.03 830.4,-49.99 435.5,-19 432.57,-18.77 429.59,-18.51 426.57,-18.24"/>
<polygon fill="#63b8ff" stroke="#63b8ff" points="1478.44,-62.81 1470.39,-66.29 1474.44,-62.75 1470.44,-62.69 1470.44,-62.69 1470.44,-62.69 1474.44,-62.75 1470.5,-59.09 1478.44,-62.81 1478.44,-62.81"/>
</a>
</g>
</g>
<!-- Node5 -->
<g id="Node000005" class="node">
<title>Node5</title>
<g id="a_Node000005"><a xlink:href="dataloggerservice_8cpp.html" target="_top" xlink:title="Defines the DataLoggerService and DataLoggerServicePrivate classes.">
<polygon fill="white" stroke="#666666" points="570,-19 445,-19 445,0 570,0 570,-19"/>
<text text-anchor="middle" x="507.5" y="-7" font-family="Helvetica,sans-Serif" font-size="10.00">dataloggerservice.cpp</text>
</a>
</g>
</g>
<!-- Node1&#45;&gt;Node5 -->
<g id="edge4_Node000001_Node000005" class="edge">
<title>Node1&#45;&gt;Node5</title>
<g id="a_edge4_Node000001_Node000005"><a xlink:title=" ">
<path fill="none" stroke="#63b8ff" d="M1470.16,-62.26C1322.27,-58.73 915.86,-47.07 578.5,-19 575.78,-18.77 573,-18.52 570.19,-18.25"/>
<polygon fill="#63b8ff" stroke="#63b8ff" points="1478.27,-62.45 1470.19,-65.86 1474.27,-62.35 1470.28,-62.26 1470.28,-62.26 1470.28,-62.26 1474.27,-62.35 1470.36,-58.66 1478.27,-62.45 1478.27,-62.45"/>
</a>
</g>
</g>
<!-- Node6 -->
<g id="Node000006" class="node">
<title>Node6</title>
<g id="a_Node000006"><a xlink:href="deviceinfoservice_8cpp.html" target="_top" xlink:title="Defines the DeviceInfoService and DeviceInfoServicePrivate classes.">
<polygon fill="white" stroke="#666666" points="711,-19 588,-19 588,0 711,0 711,-19"/>
<text text-anchor="middle" x="649.5" y="-7" font-family="Helvetica,sans-Serif" font-size="10.00">deviceinfoservice.cpp</text>
</a>
</g>
</g>
<!-- Node1&#45;&gt;Node6 -->
<g id="edge5_Node000001_Node000006" class="edge">
<title>Node1&#45;&gt;Node6</title>
<g id="a_edge5_Node000001_Node000006"><a xlink:title=" ">
<path fill="none" stroke="#63b8ff" d="M1470.19,-61.64C1337.79,-57.06 1000.51,-43.77 719.5,-19 716.82,-18.76 714.08,-18.5 711.31,-18.23"/>
<polygon fill="#63b8ff" stroke="#63b8ff" points="1478.23,-61.92 1470.11,-65.24 1474.23,-61.78 1470.24,-61.64 1470.24,-61.64 1470.24,-61.64 1474.23,-61.78 1470.36,-58.04 1478.23,-61.92 1478.23,-61.92"/>
</a>
</g>
</g>
<!-- Node7 -->
<g id="Node000007" class="node">
<title>Node7</title>
<g id="a_Node000007"><a xlink:href="dsocommand_8cpp_source.html" target="_top" xlink:title=" ">
<polygon fill="white" stroke="#666666" points="832,-19 729,-19 729,0 832,0 832,-19"/>
<text text-anchor="middle" x="780.5" y="-7" font-family="Helvetica,sans-Serif" font-size="10.00">dsocommand.cpp</text>
</a>
</g>
</g>
<!-- Node1&#45;&gt;Node7 -->
<g id="edge6_Node000001_Node000007" class="edge">
<title>Node1&#45;&gt;Node7</title>
<g id="a_edge6_Node000001_Node000007"><a xlink:title=" ">
<path fill="none" stroke="#63b8ff" d="M1470.02,-61.26C1351.87,-56.32 1073.29,-42.99 840.5,-19 837.78,-18.72 834.99,-18.41 832.18,-18.08"/>
<polygon fill="#63b8ff" stroke="#63b8ff" points="1478.24,-61.6 1470.1,-64.86 1474.25,-61.43 1470.25,-61.27 1470.25,-61.27 1470.25,-61.27 1474.25,-61.43 1470.4,-57.67 1478.24,-61.6 1478.24,-61.6"/>
</a>
</g>
</g>
<!-- Node8 -->
<g id="Node000008" class="node">
<title>Node8</title>
<g id="a_Node000008"><a xlink:href="dsoservice_8cpp.html" target="_top" xlink:title="Defines the DsoService and DsoServicePrivate classes.">
<polygon fill="white" stroke="#666666" points="939,-19 850,-19 850,0 939,0 939,-19"/>
<text text-anchor="middle" x="894.5" y="-7" font-family="Helvetica,sans-Serif" font-size="10.00">dsoservice.cpp</text>
</a>
</g>
</g>
<!-- Node1&#45;&gt;Node8 -->
<g id="edge7_Node000001_Node000008" class="edge">
<title>Node1&#45;&gt;Node8</title>
<g id="a_edge7_Node000001_Node000008"><a xlink:title=" ">
<path fill="none" stroke="#63b8ff" d="M1470.29,-60.68C1366.07,-55.19 1138.4,-41.59 947.5,-19 944.82,-18.68 942.06,-18.33 939.28,-17.95"/>
<polygon fill="#63b8ff" stroke="#63b8ff" points="1478.48,-61.11 1470.31,-64.28 1474.49,-60.9 1470.49,-60.69 1470.49,-60.69 1470.49,-60.69 1474.49,-60.9 1470.68,-57.09 1478.48,-61.11 1478.48,-61.11"/>
</a>
</g>
</g>
<!-- Node9 -->
<g id="Node000009" class="node">
<title>Node9</title>
<g id="a_Node000009"><a xlink:href="flashledcommand_8cpp_source.html" target="_top" xlink:title=" ">
<polygon fill="white" stroke="#666666" points="1080.5,-19 956.5,-19 956.5,0 1080.5,0 1080.5,-19"/>
<text text-anchor="middle" x="1018.5" y="-7" font-family="Helvetica,sans-Serif" font-size="10.00">flashledcommand.cpp</text>
</a>
</g>
</g>
<!-- Node1&#45;&gt;Node9 -->
<g id="edge8_Node000001_Node000009" class="edge">
<title>Node1&#45;&gt;Node9</title>
<g id="a_edge8_Node000001_Node000009"><a xlink:title=" ">
<path fill="none" stroke="#63b8ff" d="M1470.1,-58C1386.38,-49.9 1225.88,-34.09 1089.5,-19 1086.66,-18.69 1083.76,-18.36 1080.83,-18.03"/>
<polygon fill="#63b8ff" stroke="#63b8ff" points="1478.2,-58.78 1469.9,-61.6 1474.22,-58.4 1470.24,-58.01 1470.24,-58.01 1470.24,-58.01 1474.22,-58.4 1470.59,-54.43 1478.2,-58.78 1478.2,-58.78"/>
</a>
</g>
</g>
<!-- Node10 -->
<g id="Node000010" class="node">
<title>Node10</title>
<g id="a_Node000010"><a xlink:href="infocommand_8cpp_source.html" target="_top" xlink:title=" ">
<polygon fill="white" stroke="#666666" points="1202.5,-19 1098.5,-19 1098.5,0 1202.5,0 1202.5,-19"/>
<text text-anchor="middle" x="1150.5" y="-7" font-family="Helvetica,sans-Serif" font-size="10.00">infocommand.cpp</text>
</a>
</g>
</g>
<!-- Node1&#45;&gt;Node10 -->
<g id="edge9_Node000001_Node000010" class="edge">
<title>Node1&#45;&gt;Node10</title>
<g id="a_edge9_Node000001_Node000010"><a xlink:title=" ">
<path fill="none" stroke="#63b8ff" d="M1470.03,-55.42C1397.18,-45.18 1272.67,-27.68 1202.52,-17.81"/>
<polygon fill="#63b8ff" stroke="#63b8ff" points="1478.21,-56.57 1469.79,-59.02 1474.25,-56.01 1470.29,-55.46 1470.29,-55.46 1470.29,-55.46 1474.25,-56.01 1470.79,-51.89 1478.21,-56.57 1478.21,-56.57"/>
</a>
</g>
</g>
<!-- Node11 -->
<g id="Node000011" class="node">
<title>Node11</title>
<g id="a_Node000011"><a xlink:href="loggerfetchcommand_8cpp_source.html" target="_top" xlink:title=" ">
<polygon fill="white" stroke="#666666" points="1362,-19 1221,-19 1221,0 1362,0 1362,-19"/>
<text text-anchor="middle" x="1291.5" y="-7" font-family="Helvetica,sans-Serif" font-size="10.00">loggerfetchcommand.cpp</text>
</a>
</g>
</g>
<!-- Node1&#45;&gt;Node11 -->
<g id="edge10_Node000001_Node000011" class="edge">
<title>Node1&#45;&gt;Node11</title>
<g id="a_edge10_Node000001_Node000011"><a xlink:title=" ">
<path fill="none" stroke="#63b8ff" d="M1481.59,-53.19C1437.34,-43.25 1371.17,-28.39 1329.71,-19.08"/>
<polygon fill="#63b8ff" stroke="#63b8ff" points="1489.58,-54.98 1480.99,-56.74 1485.68,-54.11 1481.78,-53.23 1481.78,-53.23 1481.78,-53.23 1485.68,-54.11 1482.57,-49.72 1489.58,-54.98 1489.58,-54.98"/>
</a>
</g>
</g>
<!-- Node12 -->
<g id="Node000012" class="node">
<title>Node12</title>
<g id="a_Node000012"><a xlink:href="loggerstartcommand_8cpp_source.html" target="_top" xlink:title=" ">
<polygon fill="white" stroke="#666666" points="1519,-19 1380,-19 1380,0 1519,0 1519,-19"/>
<text text-anchor="middle" x="1449.5" y="-7" font-family="Helvetica,sans-Serif" font-size="10.00">loggerstartcommand.cpp</text>
</a>
</g>
</g>
<!-- Node1&#45;&gt;Node12 -->
<g id="edge11_Node000001_Node000012" class="edge">
<title>Node1&#45;&gt;Node12</title>
<g id="a_edge11_Node000001_Node000012"><a xlink:title=" ">
<path fill="none" stroke="#63b8ff" d="M1507.98,-50.23C1493.67,-40.51 1474.66,-27.6 1462.26,-19.17"/>
<polygon fill="#63b8ff" stroke="#63b8ff" points="1514.97,-54.98 1506.33,-53.47 1511.66,-52.74 1508.35,-50.49 1508.35,-50.49 1508.35,-50.49 1511.66,-52.74 1510.37,-47.51 1514.97,-54.98 1514.97,-54.98"/>
</a>
</g>
</g>
<!-- Node13 -->
<g id="Node000013" class="node">
<title>Node13</title>
<g id="a_Node000013"><a xlink:href="loggerstopcommand_8cpp_source.html" target="_top" xlink:title=" ">
<polygon fill="white" stroke="#666666" points="1674,-19 1537,-19 1537,0 1674,0 1674,-19"/>
<text text-anchor="middle" x="1605.5" y="-7" font-family="Helvetica,sans-Serif" font-size="10.00">loggerstopcommand.cpp</text>
</a>
</g>
</g>
<!-- Node1&#45;&gt;Node13 -->
<g id="edge12_Node000001_Node000013" class="edge">
<title>Node1&#45;&gt;Node13</title>
<g id="a_edge12_Node000001_Node000013"><a xlink:title=" ">
<path fill="none" stroke="#63b8ff" d="M1547.02,-50.23C1561.33,-40.51 1580.34,-27.6 1592.74,-19.17"/>
<polygon fill="#63b8ff" stroke="#63b8ff" points="1540.03,-54.98 1544.63,-47.51 1543.34,-52.74 1546.65,-50.49 1546.65,-50.49 1546.65,-50.49 1543.34,-52.74 1548.67,-53.47 1540.03,-54.98 1540.03,-54.98"/>
</a>
</g>
</g>
<!-- Node14 -->
<g id="Node000014" class="node">
<title>Node14</title>
<g id="a_Node000014"><a xlink:href="main_8cpp_source.html" target="_top" xlink:title=" ">
<polygon fill="white" stroke="#666666" points="1754.5,-19 1692.5,-19 1692.5,0 1754.5,0 1754.5,-19"/>
<text text-anchor="middle" x="1723.5" y="-7" font-family="Helvetica,sans-Serif" font-size="10.00">main.cpp</text>
</a>
</g>
</g>
<!-- Node1&#45;&gt;Node14 -->
<g id="edge13_Node000001_Node000014" class="edge">
<title>Node1&#45;&gt;Node14</title>
<g id="a_edge13_Node000001_Node000014"><a xlink:title=" ">
<path fill="none" stroke="#63b8ff" d="M1567.06,-52.8C1604.03,-42.81 1658.47,-28.09 1692.41,-18.91"/>
<polygon fill="#63b8ff" stroke="#63b8ff" points="1558.99,-54.98 1565.77,-49.42 1562.85,-53.94 1566.71,-52.9 1566.71,-52.9 1566.71,-52.9 1562.85,-53.94 1567.65,-56.37 1558.99,-54.98 1558.99,-54.98"/>
</a>
</g>
</g>
<!-- Node15 -->
<g id="Node000015" class="node">
<title>Node15</title>
<g id="a_Node000015"><a xlink:href="metercommand_8cpp_source.html" target="_top" xlink:title=" ">
<polygon fill="white" stroke="#666666" points="1888,-19 1773,-19 1773,0 1888,0 1888,-19"/>
<text text-anchor="middle" x="1830.5" y="-7" font-family="Helvetica,sans-Serif" font-size="10.00">metercommand.cpp</text>
</a>
</g>
</g>
<!-- Node1&#45;&gt;Node15 -->
<g id="edge14_Node000001_Node000015" class="edge">
<title>Node1&#45;&gt;Node15</title>
<g id="a_edge14_Node000001_Node000015"><a xlink:title=" ">
<path fill="none" stroke="#63b8ff" d="M1584.35,-53.56C1641.24,-43.61 1727.82,-28.46 1781.69,-19.04"/>
<polygon fill="#63b8ff" stroke="#63b8ff" points="1576.18,-54.98 1583.44,-50.06 1580.12,-54.3 1584.06,-53.61 1584.06,-53.61 1584.06,-53.61 1580.12,-54.3 1584.68,-57.15 1576.18,-54.98 1576.18,-54.98"/>
</a>
</g>
</g>
<!-- Node16 -->
<g id="Node000016" class="node">
<title>Node16</title>
<g id="a_Node000016"><a xlink:href="multimeterservice_8cpp.html" target="_top" xlink:title="Defines the MultimeterService and MultimeterServicePrivate classes.">
<polygon fill="white" stroke="#666666" points="2033,-19 1906,-19 1906,0 2033,0 2033,-19"/>
<text text-anchor="middle" x="1969.5" y="-7" font-family="Helvetica,sans-Serif" font-size="10.00">multimeterservice.cpp</text>
</a>
</g>
</g>
<!-- Node1&#45;&gt;Node16 -->
<g id="edge15_Node000001_Node000016" class="edge">
<title>Node1&#45;&gt;Node16</title>
<g id="a_edge15_Node000001_Node000016"><a xlink:title=" ">
<path fill="none" stroke="#63b8ff" d="M1584.94,-56.61C1667.66,-46.69 1819.79,-28.45 1905.83,-18.13"/>
<polygon fill="#63b8ff" stroke="#63b8ff" points="1576.92,-57.57 1584.43,-53.05 1580.89,-57.1 1584.86,-56.62 1584.86,-56.62 1584.86,-56.62 1580.89,-57.1 1585.29,-60.2 1576.92,-57.57 1576.92,-57.57"/>
</a>
</g>
</g>
<!-- Node17 -->
<g id="Node000017" class="node">
<title>Node17</title>
<g id="a_Node000017"><a xlink:href="pokitdevice_8cpp.html" target="_top" xlink:title="Defines the PokitDevice and PokitDevicePrivate classes.">
<polygon fill="white" stroke="#666666" points="2145.5,-19 2051.5,-19 2051.5,0 2145.5,0 2145.5,-19"/>
<text text-anchor="middle" x="2098.5" y="-7" font-family="Helvetica,sans-Serif" font-size="10.00">pokitdevice.cpp</text>
</a>
</g>
</g>
<!-- Node1&#45;&gt;Node17 -->
<g id="edge16_Node000001_Node000017" class="edge">
<title>Node1&#45;&gt;Node17</title>
<g id="a_edge16_Node000001_Node000017"><a xlink:title=" ">
<path fill="none" stroke="#63b8ff" d="M1584.66,-59.77C1679.83,-53.29 1876.68,-38.73 2042.5,-19 2045.43,-18.65 2048.44,-18.27 2051.48,-17.86"/>
<polygon fill="#63b8ff" stroke="#63b8ff" points="1576.6,-60.32 1584.34,-56.18 1580.59,-60.04 1584.59,-59.77 1584.59,-59.77 1584.59,-59.77 1580.59,-60.04 1584.83,-63.37 1576.6,-60.32 1576.6,-60.32"/>
</a>
</g>
</g>
<!-- Node18 -->
<g id="Node000018" class="node">
<title>Node18</title>
<g id="a_Node000018"><a xlink:href="pokitproducts_8cpp.html" target="_top" xlink:title="Defines the PokitProduct helper functions.">
<polygon fill="white" stroke="#666666" points="2267.5,-19 2163.5,-19 2163.5,0 2267.5,0 2267.5,-19"/>
<text text-anchor="middle" x="2215.5" y="-7" font-family="Helvetica,sans-Serif" font-size="10.00">pokitproducts.cpp</text>
</a>
</g>
</g>
<!-- Node1&#45;&gt;Node18 -->
<g id="edge17_Node000001_Node000018" class="edge">
<title>Node1&#45;&gt;Node18</title>
<g id="a_edge17_Node000001_Node000018"><a xlink:title=" ">
<path fill="none" stroke="#63b8ff" d="M1584.8,-60.73C1695.23,-55.11 1945.12,-40.99 2154.5,-19 2157.37,-18.7 2160.32,-18.37 2163.28,-18.01"/>
<polygon fill="#63b8ff" stroke="#63b8ff" points="1576.78,-61.14 1584.59,-57.14 1580.77,-60.94 1584.77,-60.73 1584.77,-60.73 1584.77,-60.73 1580.77,-60.94 1584.95,-64.33 1576.78,-61.14 1576.78,-61.14"/>
</a>
</g>
</g>
<!-- Node19 -->
<g id="Node000019" class="node">
<title>Node19</title>
<g id="a_Node000019"><a xlink:href="scancommand_8cpp_source.html" target="_top" xlink:title=" ">
<polygon fill="white" stroke="#666666" points="2393.5,-19 2285.5,-19 2285.5,0 2393.5,0 2393.5,-19"/>
<text text-anchor="middle" x="2339.5" y="-7" font-family="Helvetica,sans-Serif" font-size="10.00">scancommand.cpp</text>
</a>
</g>
</g>
<!-- Node1&#45;&gt;Node19 -->
<g id="edge18_Node000001_Node000019" class="edge">
<title>Node1&#45;&gt;Node19</title>
<g id="a_edge18_Node000001_Node000019"><a xlink:title=" ">
<path fill="none" stroke="#63b8ff" d="M1584.67,-61.56C1710.13,-56.99 2018.95,-43.99 2276.5,-19 2279.36,-18.72 2282.28,-18.41 2285.23,-18.08"/>
<polygon fill="#63b8ff" stroke="#63b8ff" points="1576.67,-61.85 1584.54,-57.96 1580.67,-61.71 1584.67,-61.56 1584.67,-61.56 1584.67,-61.56 1580.67,-61.71 1584.8,-65.16 1576.67,-61.85 1576.67,-61.85"/>
</a>
</g>
</g>
<!-- Node20 -->
<g id="Node000020" class="node">
<title>Node20</title>
<g id="a_Node000020"><a xlink:href="setnamecommand_8cpp_source.html" target="_top" xlink:title=" ">
<polygon fill="white" stroke="#666666" points="2539.5,-19 2411.5,-19 2411.5,0 2539.5,0 2539.5,-19"/>
<text text-anchor="middle" x="2475.5" y="-7" font-family="Helvetica,sans-Serif" font-size="10.00">setnamecommand.cpp</text>
</a>
</g>
</g>
<!-- Node1&#45;&gt;Node20 -->
<g id="edge19_Node000001_Node000020" class="edge">
<title>Node1&#45;&gt;Node20</title>
<g id="a_edge19_Node000001_Node000020"><a xlink:title=" ">
<path fill="none" stroke="#63b8ff" d="M1585.01,-61.87C1725.05,-57.62 2094.86,-44.71 2402.5,-19 2405.42,-18.76 2408.41,-18.49 2411.43,-18.2"/>
<polygon fill="#63b8ff" stroke="#63b8ff" points="1576.91,-62.11 1584.8,-58.28 1580.91,-61.99 1584.91,-61.87 1584.91,-61.87 1584.91,-61.87 1580.91,-61.99 1585.02,-65.47 1576.91,-62.11 1576.91,-62.11"/>
</a>
</g>
</g>
<!-- Node21 -->
<g id="Node000021" class="node">
<title>Node21</title>
<g id="a_Node000021"><a xlink:href="settorchcommand_8cpp_source.html" target="_top" xlink:title=" ">
<polygon fill="white" stroke="#666666" points="2683,-19 2558,-19 2558,0 2683,0 2683,-19"/>
<text text-anchor="middle" x="2620.5" y="-7" font-family="Helvetica,sans-Serif" font-size="10.00">settorchcommand.cpp</text>
</a>
</g>
</g>
<!-- Node1&#45;&gt;Node21 -->
<g id="edge20_Node000001_Node000021" class="edge">
<title>Node1&#45;&gt;Node21</title>
<g id="a_edge20_Node000001_Node000021"><a xlink:title=" ">
<path fill="none" stroke="#63b8ff" d="M1584.78,-62.49C1740.09,-59.42 2182.12,-48.57 2548.5,-19 2551.51,-18.76 2554.59,-18.48 2557.7,-18.19"/>
<polygon fill="#63b8ff" stroke="#63b8ff" points="1576.72,-62.65 1584.65,-58.89 1580.72,-62.57 1584.72,-62.49 1584.72,-62.49 1584.72,-62.49 1580.72,-62.57 1584.79,-66.09 1576.72,-62.65 1576.72,-62.65"/>
</a>
</g>
</g>
<!-- Node22 -->
<g id="Node000022" class="node">
<title>Node22</title>
<g id="a_Node000022"><a xlink:href="statuscommand_8cpp_source.html" target="_top" xlink:title=" ">
<polygon fill="white" stroke="#666666" points="2817.5,-19 2701.5,-19 2701.5,0 2817.5,0 2817.5,-19"/>
<text text-anchor="middle" x="2759.5" y="-7" font-family="Helvetica,sans-Serif" font-size="10.00">statuscommand.cpp</text>
</a>
</g>
</g>
<!-- Node1&#45;&gt;Node22 -->
<g id="edge21_Node000001_Node000022" class="edge">
<title>Node1&#45;&gt;Node22</title>
<g id="a_edge21_Node000001_Node000022"><a xlink:title=" ">
<path fill="none" stroke="#63b8ff" d="M1584.75,-63.1C1754.23,-61.52 2268.02,-53.96 2692.5,-19 2695.42,-18.76 2698.41,-18.48 2701.43,-18.18"/>
<polygon fill="#63b8ff" stroke="#63b8ff" points="1576.71,-63.17 1584.67,-59.5 1580.71,-63.13 1584.71,-63.1 1584.71,-63.1 1584.71,-63.1 1580.71,-63.13 1584.74,-66.7 1576.71,-63.17 1576.71,-63.17"/>
</a>
</g>
</g>
<!-- Node23 -->
<g id="Node000023" class="node">
<title>Node23</title>
<g id="a_Node000023"><a xlink:href="statusservice_8cpp.html" target="_top" xlink:title="Defines the StatusService and StatusServicePrivate classes.">
<polygon fill="white" stroke="#666666" points="2937.5,-19 2835.5,-19 2835.5,0 2937.5,0 2937.5,-19"/>
<text text-anchor="middle" x="2886.5" y="-7" font-family="Helvetica,sans-Serif" font-size="10.00">statusservice.cpp</text>
</a>
</g>
</g>
<!-- Node1&#45;&gt;Node23 -->
<g id="edge22_Node000001_Node000023" class="edge">
<title>Node1&#45;&gt;Node23</title>
<g id="a_edge22_Node000001_Node000023"><a xlink:title=" ">
<path fill="none" stroke="#63b8ff" d="M1584.67,-63.71C1766.51,-63.91 2347.75,-60.99 2826.5,-19 2829.43,-18.74 2832.44,-18.44 2835.48,-18.1"/>
<polygon fill="#63b8ff" stroke="#63b8ff" points="1576.57,-63.7 1584.58,-60.11 1580.57,-63.7 1584.57,-63.71 1584.57,-63.71 1584.57,-63.71 1580.57,-63.7 1584.56,-67.31 1576.57,-63.7 1576.57,-63.7"/>
</a>
</g>
</g>
</g>
</svg>
