<?xml version="1.0" encoding="UTF-8" standalone="no"?>
<!DOCTYPE svg PUBLIC "-//W3C//DTD SVG 1.1//EN"
 "http://www.w3.org/Graphics/SVG/1.1/DTD/svg11.dtd">
<!-- Generated by graphviz version 2.43.0 (0)
 -->
<!-- Title: utils.cpp Pages: 1 -->
<svg width="822pt" height="196pt"
 viewBox="0.00 0.00 822.00 196.00" xmlns="http://www.w3.org/2000/svg" xmlns:xlink="http://www.w3.org/1999/xlink">
<g id="graph0" class="graph" transform="scale(1 1) rotate(0) translate(4 192)">
<title>utils.cpp</title>
<!-- Node1 -->
<g id="node1" class="node">
<title>Node1</title>
<g id="a_node1"><a xlink:title="Defines some simple general purpose, utility functions used by QtPokit.">
<polygon fill="#bfbfbf" stroke="black" points="601,-168.5 601,-187.5 659,-187.5 659,-168.5 601,-168.5"/>
<text text-anchor="middle" x="630" y="-175.5" font-family="Helvetica,sans-Serif" font-size="10.00">utils.cpp</text>
</a>
</g>
</g>
<!-- Node2 -->
<g id="node2" class="node">
<title>Node2</title>
<g id="a_node2"><a xlink:href="utils_8h.html" target="_top" xlink:title="Declares some simple general purpose, utility functions used by QtPokit.">
<polygon fill="none" stroke="black" points="340,-112.5 340,-131.5 424,-131.5 424,-112.5 340,-112.5"/>
<text text-anchor="middle" x="382" y="-119.5" font-family="Helvetica,sans-Serif" font-size="10.00">qtpokit/utils.h</text>
</a>
</g>
</g>
<!-- Node1&#45;&gt;Node2 -->
<g id="edge1" class="edge">
<title>Node1&#45;&gt;Node2</title>
<path fill="none" stroke="midnightblue" d="M600.58,-170.59C558.8,-161.5 481.78,-144.73 431.22,-133.72"/>
<polygon fill="midnightblue" stroke="midnightblue" points="431.68,-130.24 421.17,-131.53 430.19,-137.08 431.68,-130.24"/>
</g>
<!-- Node10 -->
<g id="node10" class="node">
<title>Node10</title>
<g id="a_node10"><a xlink:href="logging__p_8h.html" target="_top" xlink:title="QtPokit logging categories.">
<polygon fill="none" stroke="black" points="538.5,-112.5 538.5,-131.5 611.5,-131.5 611.5,-112.5 538.5,-112.5"/>
<text text-anchor="middle" x="575" y="-119.5" font-family="Helvetica,sans-Serif" font-size="10.00">logging_p.h</text>
</a>
</g>
</g>
<!-- Node1&#45;&gt;Node10 -->
<g id="edge9" class="edge">
<title>Node1&#45;&gt;Node10</title>
<path fill="none" stroke="midnightblue" d="M620.92,-168.08C612.83,-160.14 600.8,-148.34 591.09,-138.8"/>
<polygon fill="midnightblue" stroke="midnightblue" points="593.5,-136.26 583.91,-131.75 588.6,-141.25 593.5,-136.26"/>
</g>
<!-- Node12 -->
<g id="node12" class="node">
<title>Node12</title>
<g id="a_node12"><a xlink:title=" ">
<polygon fill="none" stroke="#bfbfbf" points="630,-112.5 630,-131.5 740,-131.5 740,-112.5 630,-112.5"/>
<text text-anchor="middle" x="685" y="-119.5" font-family="Helvetica,sans-Serif" font-size="10.00">QBluetoothAddress</text>
</a>
</g>
</g>
<!-- Node1&#45;&gt;Node12 -->
<g id="edge12" class="edge">
<title>Node1&#45;&gt;Node12</title>
<path fill="none" stroke="midnightblue" d="M639.08,-168.08C647.17,-160.14 659.2,-148.34 668.91,-138.8"/>
<polygon fill="midnightblue" stroke="midnightblue" points="671.4,-141.25 676.09,-131.75 666.5,-136.26 671.4,-141.25"/>
</g>
<!-- Node13 -->
<g id="node13" class="node">
<title>Node13</title>
<g id="a_node13"><a xlink:title=" ">
<polygon fill="none" stroke="#bfbfbf" points="758,-112.5 758,-131.5 814,-131.5 814,-112.5 758,-112.5"/>
<text text-anchor="middle" x="786" y="-119.5" font-family="Helvetica,sans-Serif" font-size="10.00">QDebug</text>
</a>
</g>
</g>
<!-- Node1&#45;&gt;Node13 -->
<g id="edge13" class="edge">
<title>Node1&#45;&gt;Node13</title>
<path fill="none" stroke="midnightblue" d="M654.72,-168.44C680.85,-159.4 722.26,-145.06 751.58,-134.92"/>
<polygon fill="midnightblue" stroke="midnightblue" points="753.09,-138.1 761.4,-131.52 750.8,-131.48 753.09,-138.1"/>
</g>
<!-- Node3 -->
<g id="node3" class="node">
<title>Node3</title>
<g id="a_node3"><a xlink:href="qtpokit__global_8h.html" target="_top" xlink:title="Global QtPokit library macros.">
<polygon fill="none" stroke="black" points="527.5,-56.5 527.5,-75.5 622.5,-75.5 622.5,-56.5 527.5,-56.5"/>
<text text-anchor="middle" x="575" y="-63.5" font-family="Helvetica,sans-Serif" font-size="10.00">qtpokit_global.h</text>
</a>
</g>
</g>
<!-- Node2&#45;&gt;Node3 -->
<g id="edge2" class="edge">
<title>Node2&#45;&gt;Node3</title>
<path fill="none" stroke="midnightblue" d="M412.58,-112.44C445.61,-103.2 498.39,-88.44 534.77,-78.26"/>
<polygon fill="midnightblue" stroke="midnightblue" points="535.87,-81.58 544.56,-75.52 533.99,-74.84 535.87,-81.58"/>
</g>
<!-- Node5 -->
<g id="node5" class="node">
<title>Node5</title>
<g id="a_node5"><a xlink:title=" ">
<polygon fill="none" stroke="#bfbfbf" points="0,-56.5 0,-75.5 124,-75.5 124,-56.5 0,-56.5"/>
<text text-anchor="middle" x="62" y="-63.5" font-family="Helvetica,sans-Serif" font-size="10.00">QBluetoothDeviceInfo</text>
</a>
</g>
</g>
<!-- Node2&#45;&gt;Node5 -->
<g id="edge4" class="edge">
<title>Node2&#45;&gt;Node5</title>
<path fill="none" stroke="midnightblue" d="M339.84,-113.88C284.18,-104.49 185.83,-87.9 122.32,-77.18"/>
<polygon fill="midnightblue" stroke="midnightblue" points="122.88,-73.72 112.43,-75.51 121.71,-80.63 122.88,-73.72"/>
</g>
<!-- Node6 -->
<g id="node6" class="node">
<title>Node6</title>
<g id="a_node6"><a xlink:title=" ">
<polygon fill="none" stroke="#bfbfbf" points="142,-56.5 142,-75.5 236,-75.5 236,-56.5 142,-56.5"/>
<text text-anchor="middle" x="189" y="-63.5" font-family="Helvetica,sans-Serif" font-size="10.00">QBluetoothUuid</text>
</a>
</g>
</g>
<!-- Node2&#45;&gt;Node6 -->
<g id="edge5" class="edge">
<title>Node2&#45;&gt;Node6</title>
<path fill="none" stroke="midnightblue" d="M351.42,-112.44C318.39,-103.2 265.61,-88.44 229.23,-78.26"/>
<polygon fill="midnightblue" stroke="midnightblue" points="230.01,-74.84 219.44,-75.52 228.13,-81.58 230.01,-74.84"/>
</g>
<!-- Node7 -->
<g id="node7" class="node">
<title>Node7</title>
<g id="a_node7"><a xlink:title=" ">
<polygon fill="none" stroke="#bfbfbf" points="254.5,-56.5 254.5,-75.5 325.5,-75.5 325.5,-56.5 254.5,-56.5"/>
<text text-anchor="middle" x="290" y="-63.5" font-family="Helvetica,sans-Serif" font-size="10.00">QJsonArray</text>
</a>
</g>
</g>
<!-- Node2&#45;&gt;Node7 -->
<g id="edge6" class="edge">
<title>Node2&#45;&gt;Node7</title>
<path fill="none" stroke="midnightblue" d="M367.22,-112.32C352.73,-103.82 330.43,-90.73 313.51,-80.8"/>
<polygon fill="midnightblue" stroke="midnightblue" points="315.14,-77.7 304.74,-75.65 311.6,-83.74 315.14,-77.7"/>
</g>
<!-- Node8 -->
<g id="node8" class="node">
<title>Node8</title>
<g id="a_node8"><a xlink:title=" ">
<polygon fill="none" stroke="#bfbfbf" points="344,-56.5 344,-75.5 420,-75.5 420,-56.5 344,-56.5"/>
<text text-anchor="middle" x="382" y="-63.5" font-family="Helvetica,sans-Serif" font-size="10.00">QJsonObject</text>
</a>
</g>
</g>
<!-- Node2&#45;&gt;Node8 -->
<g id="edge7" class="edge">
<title>Node2&#45;&gt;Node8</title>
<path fill="none" stroke="midnightblue" d="M382,-112.08C382,-105.01 382,-94.86 382,-85.99"/>
<polygon fill="midnightblue" stroke="midnightblue" points="385.5,-85.75 382,-75.75 378.5,-85.75 385.5,-85.75"/>
</g>
<!-- Node9 -->
<g id="node9" class="node">
<title>Node9</title>
<g id="a_node9"><a xlink:title=" ">
<polygon fill="none" stroke="#bfbfbf" points="438.5,-56.5 438.5,-75.5 509.5,-75.5 509.5,-56.5 438.5,-56.5"/>
<text text-anchor="middle" x="474" y="-63.5" font-family="Helvetica,sans-Serif" font-size="10.00">QJsonValue</text>
</a>
</g>
</g>
<!-- Node2&#45;&gt;Node9 -->
<g id="edge8" class="edge">
<title>Node2&#45;&gt;Node9</title>
<path fill="none" stroke="midnightblue" d="M396.78,-112.32C411.27,-103.82 433.57,-90.73 450.49,-80.8"/>
<polygon fill="midnightblue" stroke="midnightblue" points="452.4,-83.74 459.26,-75.65 448.86,-77.7 452.4,-83.74"/>
</g>
<!-- Node4 -->
<g id="node4" class="node">
<title>Node4</title>
<g id="a_node4"><a xlink:title=" ">
<polygon fill="none" stroke="#bfbfbf" points="545.5,-0.5 545.5,-19.5 604.5,-19.5 604.5,-0.5 545.5,-0.5"/>
<text text-anchor="middle" x="575" y="-7.5" font-family="Helvetica,sans-Serif" font-size="10.00">QtGlobal</text>
</a>
</g>
</g>
<!-- Node3&#45;&gt;Node4 -->
<g id="edge3" class="edge">
<title>Node3&#45;&gt;Node4</title>
<path fill="none" stroke="midnightblue" d="M575,-56.08C575,-49.01 575,-38.86 575,-29.99"/>
<polygon fill="midnightblue" stroke="midnightblue" points="578.5,-29.75 575,-19.75 571.5,-29.75 578.5,-29.75"/>
</g>
<!-- Node10&#45;&gt;Node3 -->
<g id="edge10" class="edge">
<title>Node10&#45;&gt;Node3</title>
<path fill="none" stroke="midnightblue" d="M575,-112.08C575,-105.01 575,-94.86 575,-85.99"/>
<polygon fill="midnightblue" stroke="midnightblue" points="578.5,-85.75 575,-75.75 571.5,-85.75 578.5,-85.75"/>
</g>
<!-- Node11 -->
<g id="node11" class="node">
<title>Node11</title>
<g id="a_node11"><a xlink:title=" ">
<polygon fill="none" stroke="#bfbfbf" points="640.5,-56.5 640.5,-75.5 747.5,-75.5 747.5,-56.5 640.5,-56.5"/>
<text text-anchor="middle" x="694" y="-63.5" font-family="Helvetica,sans-Serif" font-size="10.00">QLoggingCategory</text>
</a>
</g>
</g>
<!-- Node10&#45;&gt;Node11 -->
<g id="edge11" class="edge">
<title>Node10&#45;&gt;Node11</title>
<path fill="none" stroke="midnightblue" d="M593.86,-112.44C613.27,-103.64 643.73,-89.81 665.96,-79.72"/>
<polygon fill="midnightblue" stroke="midnightblue" points="667.57,-82.84 675.23,-75.52 664.68,-76.46 667.57,-82.84"/>
</g>
</g>
</svg>
