<?xml version="1.0" encoding="UTF-8" standalone="no"?>
<!DOCTYPE svg PUBLIC "-//W3C//DTD SVG 1.1//EN"
 "http://www.w3.org/Graphics/SVG/1.1/DTD/svg11.dtd">
<!-- Generated by graphviz version 2.43.0 (0)
 -->
<!-- Title: MultimeterService Pages: 1 -->
<svg width="238pt" height="149pt"
 viewBox="0.00 0.00 238.00 149.00" xmlns="http://www.w3.org/2000/svg" xmlns:xlink="http://www.w3.org/1999/xlink">
<g id="graph0" class="graph" transform="scale(1 1) rotate(0) translate(4 145)">
<title>MultimeterService</title>
<!-- Node1 -->
<g id="Node000001" class="node">
<title>Node1</title>
<g id="a_Node000001"><a xlink:title="The MultimeterService class accesses the Multimeter service of Pokit devices.">
<polygon fill="#999999" stroke="#666666" points="173.5,-19 66.5,-19 66.5,0 173.5,0 173.5,-19"/>
<text text-anchor="middle" x="120" y="-7" font-family="Helvetica,sans-Serif" font-size="10.00">MultimeterService</text>
</a>
</g>
</g>
<!-- Node2 -->
<g id="Node000002" class="node">
<title>Node2</title>
<g id="a_Node000002"><a xlink:href="classAbstractPokitService.html" target="_top" xlink:title="The AbstractPokitService class provides a common base for Pokit services classes.">
<polygon fill="white" stroke="#666666" points="118,-85 0,-85 0,-66 118,-66 118,-85"/>
<text text-anchor="middle" x="59" y="-73" font-family="Helvetica,sans-Serif" font-size="10.00">AbstractPokitService</text>
</a>
</g>
</g>
<!-- Node2&#45;&gt;Node1 -->
<g id="edge1_Node000001_Node000002" class="edge">
<title>Node2&#45;&gt;Node1</title>
<g id="a_edge1_Node000001_Node000002"><a xlink:title=" ">
<path fill="none" stroke="#63b8ff" d="M72.94,-59.87C84.83,-47.4 101.53,-29.87 111.51,-19.41"/>
<polygon fill="#63b8ff" stroke="#63b8ff" points="67.23,-65.87 70.14,-57.59 69.99,-62.97 72.75,-60.08 72.75,-60.08 72.75,-60.08 69.99,-62.97 75.35,-62.56 67.23,-65.87 67.23,-65.87"/>
</a>
</g>
</g>
<!-- Node3 -->
<g id="Node000003" class="node">
<title>Node3</title>
<g id="a_Node000003"><a target="_parent" xlink:href="https://doc.qt.io/qt-5/qobject.html" xlink:title=" ">
<polygon fill="white" stroke="#bfbfbf" points="87,-141 31,-141 31,-122 87,-122 87,-141"/>
<text text-anchor="middle" x="59" y="-129" font-family="Helvetica,sans-Serif" font-size="10.00">QObject</text>
</a>
</g>
</g>
<!-- Node3&#45;&gt;Node2 -->
<g id="edge2_Node000002_Node000003" class="edge">
<title>Node3&#45;&gt;Node2</title>
<g id="a_edge2_Node000002_Node000003"><a xlink:title=" ">
<path fill="none" stroke="#63b8ff" d="M59,-113.36C59,-104 59,-92.83 59,-85.25"/>
<polygon fill="#63b8ff" stroke="#63b8ff" points="59,-121.58 55.4,-113.58 59,-117.58 59,-113.58 59,-113.58 59,-113.58 59,-117.58 62.6,-113.58 59,-121.58 59,-121.58"/>
</a>
</g>
</g>
<!-- Node4 -->
<g id="Node000004" class="node">
<title>Node4</title>
<g id="a_Node000004"><a target="_parent" xlink:href="https://doc.qt.io/qt-5/qbluetoothuuid.html" xlink:title=" ">
<polygon fill="white" stroke="#bfbfbf" points="230,-85 136,-85 136,-66 230,-66 230,-85"/>
<text text-anchor="middle" x="183" y="-73" font-family="Helvetica,sans-Serif" font-size="10.00">QBluetoothUuid</text>
</a>
</g>
</g>
<!-- Node4&#45;&gt;Node1 -->
<g id="edge3_Node000001_Node000004" class="edge">
<title>Node4&#45;&gt;Node1</title>
<g id="a_edge3_Node000001_Node000004"><a xlink:title=" ">
<path fill="none" stroke="#9a32cd" stroke-dasharray="5,2" d="M168.6,-59.87C156.32,-47.4 139.07,-29.87 128.77,-19.41"/>
<polygon fill="#9a32cd" stroke="#9a32cd" points="174.5,-65.87 166.33,-62.69 171.7,-63.02 168.89,-60.17 168.89,-60.17 168.89,-60.17 171.7,-63.02 171.46,-57.64 174.5,-65.87 174.5,-65.87"/>
</a>
</g>
<text text-anchor="middle" x="186.5" y="-40" font-family="Helvetica,sans-Serif" font-size="10.00" fill="grey"> serviceUuid</text>
</g>
<!-- Node5 -->
<g id="Node000005" class="node">
<title>Node5</title>
<g id="a_Node000005"><a target="_parent" xlink:href="https://doc.qt.io/qt-5/quuid.html" xlink:title=" ">
<polygon fill="white" stroke="#bfbfbf" points="206.5,-141 159.5,-141 159.5,-122 206.5,-122 206.5,-141"/>
<text text-anchor="middle" x="183" y="-129" font-family="Helvetica,sans-Serif" font-size="10.00">QUuid</text>
</a>
</g>
</g>
<!-- Node5&#45;&gt;Node4 -->
<g id="edge4_Node000004_Node000005" class="edge">
<title>Node5&#45;&gt;Node4</title>
<g id="a_edge4_Node000004_Node000005"><a xlink:title=" ">
<path fill="none" stroke="#63b8ff" d="M183,-113.36C183,-104 183,-92.83 183,-85.25"/>
<polygon fill="#63b8ff" stroke="#63b8ff" points="183,-121.58 179.4,-113.58 183,-117.58 183,-113.58 183,-113.58 183,-113.58 183,-117.58 186.6,-113.58 183,-121.58 183,-121.58"/>
</a>
</g>
</g>
</g>
</svg>
