<?xml version="1.0" encoding="UTF-8" standalone="no"?>
<!DOCTYPE svg PUBLIC "-//W3C//DTD SVG 1.1//EN"
 "http://www.w3.org/Graphics/SVG/1.1/DTD/svg11.dtd">
<!-- Generated by graphviz version 2.43.0 (0)
 -->
<!-- Title: AbstractPokitServicePrivate::enableCharacteristicNotificatons Pages: 1 -->
<svg width="771pt" height="420pt"
 viewBox="0.00 0.00 771.00 420.00" xmlns="http://www.w3.org/2000/svg" xmlns:xlink="http://www.w3.org/1999/xlink">
<g id="graph0" class="graph" transform="scale(1 1) rotate(0) translate(4 416)">
<title>AbstractPokitServicePrivate::enableCharacteristicNotificatons</title>
<!-- Node1 -->
<g id="node1" class="node">
<title>Node1</title>
<g id="a_node1"><a xlink:title="Enables client (Pokit device) side notification for characteristic uuid.">
<polygon fill="#999999" stroke="#666666" points="182,-223 0,-223 0,-193 182,-193 182,-223"/>
<text text-anchor="start" x="8" y="-211" font-family="Helvetica,sans-Serif" font-size="10.00">AbstractPokitServicePrivate</text>
<text text-anchor="middle" x="91" y="-200" font-family="Helvetica,sans-Serif" font-size="10.00">::enableCharacteristicNotificatons</text>
</a>
</g>
</g>
<!-- Node2 -->
<g id="node2" class="node">
<title>Node2</title>
<g id="a_node2"><a target="_parent" xlink:href="https://doc.qt.io/qt-5/qstring.html#arg-1" xlink:title=" ">
<polygon fill="white" stroke="#666666" points="520.5,-325.5 446.5,-325.5 446.5,-306.5 520.5,-306.5 520.5,-325.5"/>
<text text-anchor="middle" x="483.5" y="-313.5" font-family="Helvetica,sans-Serif" font-size="10.00">QString::arg</text>
</a>
</g>
</g>
<!-- Node1&#45;&gt;Node2 -->
<g id="edge1" class="edge">
<title>Node1&#45;&gt;Node2</title>
<path fill="none" stroke="#63b8ff" d="M107.46,-223.28C129.73,-244.19 173.11,-280.95 218,-297 291.66,-323.33 384.06,-323.08 437.87,-319.93"/>
<polygon fill="#63b8ff" stroke="#63b8ff" points="446.17,-319.41 438.41,-323.51 442.18,-319.66 438.18,-319.91 438.18,-319.91 438.18,-319.91 442.18,-319.66 437.96,-316.32 446.17,-319.41 446.17,-319.41"/>
</g>
<!-- Node3 -->
<g id="node3" class="node">
<title>Node3</title>
<g id="a_node3"><a xlink:href="classPokitDevice.html#a0a3e6078ce0a7c2d93171ef0f4183d61" target="_top" xlink:title="Returns a human&#45;readable name for the uuid characteristic, or a null QString if unknown.">
<polygon fill="white" stroke="#666666" points="554,-412 413,-412 413,-382 554,-382 554,-412"/>
<text text-anchor="start" x="421" y="-400" font-family="Helvetica,sans-Serif" font-size="10.00">PokitDevice::charcteristic</text>
<text text-anchor="middle" x="483.5" y="-389" font-family="Helvetica,sans-Serif" font-size="10.00">ToString</text>
</a>
</g>
</g>
<!-- Node1&#45;&gt;Node3 -->
<g id="edge2" class="edge">
<title>Node1&#45;&gt;Node3</title>
<path fill="none" stroke="#63b8ff" d="M98.81,-223.19C114.46,-256.12 156.47,-333.87 218,-368 274.98,-399.61 349.48,-405.19 404.88,-403.83"/>
<polygon fill="#63b8ff" stroke="#63b8ff" points="412.92,-403.58 405.03,-407.43 408.92,-403.7 404.92,-403.83 404.92,-403.83 404.92,-403.83 408.92,-403.7 404.81,-400.23 412.92,-403.58 412.92,-403.58"/>
</g>
<!-- Node5 -->
<g id="node5" class="node">
<title>Node5</title>
<g id="a_node5"><a target="_parent" xlink:href="https://doc.qt.io/qt-5/qobject.html#tr" xlink:title=" ">
<polygon fill="white" stroke="#666666" points="714.5,-325.5 645.5,-325.5 645.5,-306.5 714.5,-306.5 714.5,-325.5"/>
<text text-anchor="middle" x="680" y="-313.5" font-family="Helvetica,sans-Serif" font-size="10.00">QObject::tr</text>
</a>
</g>
</g>
<!-- Node1&#45;&gt;Node5 -->
<g id="edge22" class="edge">
<title>Node1&#45;&gt;Node5</title>
<path fill="none" stroke="#63b8ff" d="M102.79,-223.01C122.36,-248.86 166.48,-301.11 218,-323 361.66,-384.04 553.95,-348.02 637.43,-327.4"/>
<polygon fill="#63b8ff" stroke="#63b8ff" points="645.4,-325.39 638.52,-330.84 641.52,-326.37 637.64,-327.34 637.64,-327.34 637.64,-327.34 641.52,-326.37 636.76,-323.85 645.4,-325.39 645.4,-325.39"/>
</g>
<!-- Node6 -->
<g id="node6" class="node">
<title>Node6</title>
<g id="a_node6"><a target="_parent" xlink:href="https://doc.qt.io/qt-5/qlowenergycharacteristic.html#descriptor" xlink:title=" ">
<polygon fill="white" stroke="#666666" points="366.5,-288 221.5,-288 221.5,-258 366.5,-258 366.5,-288"/>
<text text-anchor="start" x="229.5" y="-276" font-family="Helvetica,sans-Serif" font-size="10.00">QLowEnergyCharacteristic</text>
<text text-anchor="middle" x="294" y="-265" font-family="Helvetica,sans-Serif" font-size="10.00">::descriptor</text>
</a>
</g>
</g>
<!-- Node1&#45;&gt;Node6 -->
<g id="edge5" class="edge">
<title>Node1&#45;&gt;Node6</title>
<path fill="none" stroke="#63b8ff" d="M138.06,-223.05C161.91,-230.82 191.51,-240.45 218,-249 224.45,-251.08 231.22,-253.26 237.94,-255.41"/>
<polygon fill="#63b8ff" stroke="#63b8ff" points="245.78,-257.93 237.06,-258.91 241.97,-256.71 238.16,-255.49 238.16,-255.49 238.16,-255.49 241.97,-256.71 239.26,-252.06 245.78,-257.93 245.78,-257.93"/>
</g>
<!-- Node7 -->
<g id="node7" class="node">
<title>Node7</title>
<g id="a_node7"><a target="_parent" xlink:href="https://doc.qt.io/qt-5/qbytearray.html#fromHex" xlink:title=" ">
<polygon fill="white" stroke="#666666" points="354.5,-239.5 233.5,-239.5 233.5,-220.5 354.5,-220.5 354.5,-239.5"/>
<text text-anchor="middle" x="294" y="-227.5" font-family="Helvetica,sans-Serif" font-size="10.00">QByteArray::fromHex</text>
</a>
</g>
</g>
<!-- Node1&#45;&gt;Node7 -->
<g id="edge6" class="edge">
<title>Node1&#45;&gt;Node7</title>
<path fill="none" stroke="#63b8ff" d="M182.21,-217.87C196.69,-219.46 211.46,-221.08 225.3,-222.59"/>
<polygon fill="#63b8ff" stroke="#63b8ff" points="233.33,-223.47 224.99,-226.18 229.36,-223.03 225.38,-222.6 225.38,-222.6 225.38,-222.6 229.36,-223.03 225.77,-219.02 233.33,-223.47 233.33,-223.47"/>
</g>
<!-- Node8 -->
<g id="node8" class="node">
<title>Node8</title>
<g id="a_node8"><a xlink:href="classAbstractPokitServicePrivate.html#aaac3ef8e3590334acdddb2b029865eb0" target="_top" xlink:title="Get uuid characteristc from the underlying service.">
<polygon fill="white" stroke="#666666" points="370,-202 218,-202 218,-172 370,-172 370,-202"/>
<text text-anchor="start" x="226" y="-190" font-family="Helvetica,sans-Serif" font-size="10.00">AbstractPokitServicePrivate</text>
<text text-anchor="middle" x="294" y="-179" font-family="Helvetica,sans-Serif" font-size="10.00">::getCharacteristic</text>
</a>
</g>
</g>
<!-- Node1&#45;&gt;Node8 -->
<g id="edge7" class="edge">
<title>Node1&#45;&gt;Node8</title>
<path fill="none" stroke="#63b8ff" d="M182.21,-198.57C191.41,-197.61 200.73,-196.64 209.85,-195.69"/>
<polygon fill="#63b8ff" stroke="#63b8ff" points="217.81,-194.86 210.23,-199.27 213.83,-195.27 209.85,-195.69 209.85,-195.69 209.85,-195.69 213.83,-195.27 209.48,-192.11 217.81,-194.86 217.81,-194.86"/>
</g>
<!-- Node10 -->
<g id="node10" class="node">
<title>Node10</title>
<g id="a_node10"><a target="_parent" xlink:href="https://doc.qt.io/qt-5/qlowenergycharacteristic.html#isValid" xlink:title=" ">
<polygon fill="white" stroke="#666666" points="556,-68 411,-68 411,-38 556,-38 556,-68"/>
<text text-anchor="start" x="419" y="-56" font-family="Helvetica,sans-Serif" font-size="10.00">QLowEnergyCharacteristic</text>
<text text-anchor="middle" x="483.5" y="-45" font-family="Helvetica,sans-Serif" font-size="10.00">::isValid</text>
</a>
</g>
</g>
<!-- Node1&#45;&gt;Node10 -->
<g id="edge19" class="edge">
<title>Node1&#45;&gt;Node10</title>
<path fill="none" stroke="#63b8ff" d="M132.05,-192.92C156.7,-183.83 189.02,-172.26 218,-163 284.87,-141.63 311.07,-158.17 370,-120 390.92,-106.45 385.27,-90.84 406,-77 408.86,-75.09 411.89,-73.32 415.02,-71.69"/>
<polygon fill="#63b8ff" stroke="#63b8ff" points="422.48,-68.12 416.82,-74.82 418.87,-69.84 415.26,-71.57 415.26,-71.57 415.26,-71.57 418.87,-69.84 413.71,-68.32 422.48,-68.12 422.48,-68.12"/>
</g>
<!-- Node15 -->
<g id="node15" class="node">
<title>Node15</title>
<g id="a_node15"><a target="_parent" xlink:href="https://doc.qt.io/qt-5/quuid.html#toString" xlink:title=" ">
<polygon fill="white" stroke="#666666" points="529,-19.5 438,-19.5 438,-0.5 529,-0.5 529,-19.5"/>
<text text-anchor="middle" x="483.5" y="-7.5" font-family="Helvetica,sans-Serif" font-size="10.00">QUuid::toString</text>
</a>
</g>
</g>
<!-- Node1&#45;&gt;Node15 -->
<g id="edge21" class="edge">
<title>Node1&#45;&gt;Node15</title>
<path fill="none" stroke="#63b8ff" d="M109.01,-192.76C132.04,-172.95 175.21,-138.69 218,-120 281.35,-92.34 313.52,-126.86 370,-87 394.79,-69.51 381.47,-46.86 406,-29 413.11,-23.82 421.48,-20.04 430.03,-17.29"/>
<polygon fill="#63b8ff" stroke="#63b8ff" points="437.89,-15.04 431.19,-20.7 434.04,-16.14 430.2,-17.24 430.2,-17.24 430.2,-17.24 434.04,-16.14 429.21,-13.78 437.89,-15.04 437.89,-15.04"/>
</g>
<!-- Node16 -->
<g id="node16" class="node">
<title>Node16</title>
<g id="a_node16"><a target="_parent" xlink:href="https://doc.qt.io/qt-5/qlowenergydescriptor.html#isValid" xlink:title=" ">
<polygon fill="white" stroke="#666666" points="358,-78 230,-78 230,-48 358,-48 358,-78"/>
<text text-anchor="start" x="238" y="-66" font-family="Helvetica,sans-Serif" font-size="10.00">QLowEnergyDescriptor</text>
<text text-anchor="middle" x="294" y="-55" font-family="Helvetica,sans-Serif" font-size="10.00">::isValid</text>
</a>
</g>
</g>
<!-- Node1&#45;&gt;Node16 -->
<g id="edge20" class="edge">
<title>Node1&#45;&gt;Node16</title>
<path fill="none" stroke="#63b8ff" d="M104.92,-192.89C126.29,-168.7 171.29,-121.06 218,-92 224.35,-88.05 231.34,-84.48 238.41,-81.3"/>
<polygon fill="#63b8ff" stroke="#63b8ff" points="246.08,-78.02 240.15,-84.48 242.41,-79.59 238.73,-81.17 238.73,-81.17 238.73,-81.17 242.41,-79.59 237.31,-77.86 246.08,-78.02 246.08,-78.02"/>
</g>
<!-- Node17 -->
<g id="node17" class="node">
<title>Node17</title>
<g id="a_node17"><a target="_parent" xlink:href="https://doc.qt.io/qt-5/qlowenergyservice.html#writeDescriptor" xlink:title=" ">
<polygon fill="white" stroke="#666666" points="353.5,-30 234.5,-30 234.5,0 353.5,0 353.5,-30"/>
<text text-anchor="start" x="242.5" y="-18" font-family="Helvetica,sans-Serif" font-size="10.00">QLowEnergyService::</text>
<text text-anchor="middle" x="294" y="-7" font-family="Helvetica,sans-Serif" font-size="10.00">writeDescriptor</text>
</a>
</g>
</g>
<!-- Node1&#45;&gt;Node17 -->
<g id="edge23" class="edge">
<title>Node1&#45;&gt;Node17</title>
<path fill="none" stroke="#63b8ff" d="M99.14,-192.89C115.47,-159.96 158.72,-81.31 218,-39 220.82,-36.99 223.81,-35.14 226.92,-33.44"/>
<polygon fill="#63b8ff" stroke="#63b8ff" points="234.34,-29.75 228.78,-36.54 230.76,-31.53 227.18,-33.31 227.18,-33.31 227.18,-33.31 230.76,-31.53 225.58,-30.09 234.34,-29.75 234.34,-29.75"/>
</g>
<!-- Node4 -->
<g id="node4" class="node">
<title>Node4</title>
<g id="a_node4"><a target="_parent" xlink:href="https://doc.qt.io/qt-5/qbluetoothuuid.html#characteristicToString" xlink:title=" ">
<polygon fill="white" stroke="#666666" points="763,-412 597,-412 597,-382 763,-382 763,-412"/>
<text text-anchor="start" x="605" y="-400" font-family="Helvetica,sans-Serif" font-size="10.00">QBluetoothUuid::characteristic</text>
<text text-anchor="middle" x="680" y="-389" font-family="Helvetica,sans-Serif" font-size="10.00">ToString</text>
</a>
</g>
</g>
<!-- Node3&#45;&gt;Node4 -->
<g id="edge3" class="edge">
<title>Node3&#45;&gt;Node4</title>
<path fill="none" stroke="#63b8ff" d="M554.17,-397C565.42,-397 577.2,-397 588.85,-397"/>
<polygon fill="#63b8ff" stroke="#63b8ff" points="596.88,-397 588.88,-400.6 592.88,-397 588.88,-397 588.88,-397 588.88,-397 592.88,-397 588.88,-393.4 596.88,-397 596.88,-397"/>
</g>
<!-- Node3&#45;&gt;Node5 -->
<g id="edge4" class="edge">
<title>Node3&#45;&gt;Node5</title>
<path fill="none" stroke="#63b8ff" d="M525.55,-381.89C537.07,-377.53 549.56,-372.68 561,-368 592.03,-355.29 627.15,-339.65 650.94,-328.86"/>
<polygon fill="#63b8ff" stroke="#63b8ff" points="658.25,-325.54 652.46,-332.13 654.61,-327.2 650.97,-328.85 650.97,-328.85 650.97,-328.85 654.61,-327.2 649.48,-325.57 658.25,-325.54 658.25,-325.54"/>
</g>
<!-- Node8&#45;&gt;Node2 -->
<g id="edge8" class="edge">
<title>Node8&#45;&gt;Node2</title>
<path fill="none" stroke="#63b8ff" d="M355.64,-202.1C360.83,-204.87 365.72,-208.14 370,-212 398.93,-238.14 376.84,-266.12 406,-292 415.05,-300.03 426.78,-305.38 438.32,-308.93"/>
<polygon fill="#63b8ff" stroke="#63b8ff" points="446.24,-311.12 437.57,-312.46 442.39,-310.06 438.53,-308.99 438.53,-308.99 438.53,-308.99 442.39,-310.06 439.49,-305.52 446.24,-311.12 446.24,-311.12"/>
</g>
<!-- Node8&#45;&gt;Node3 -->
<g id="edge10" class="edge">
<title>Node8&#45;&gt;Node3</title>
<path fill="none" stroke="#63b8ff" d="M357.3,-202.13C361.96,-204.89 366.29,-208.15 370,-212 409.52,-253.02 374.44,-287.58 406,-335 417.25,-351.91 434.54,-366.48 449.83,-377.23"/>
<polygon fill="#63b8ff" stroke="#63b8ff" points="456.69,-381.9 448.05,-380.38 453.38,-379.65 450.08,-377.4 450.08,-377.4 450.08,-377.4 453.38,-379.65 452.1,-374.42 456.69,-381.9 456.69,-381.9"/>
</g>
<!-- Node8&#45;&gt;Node5 -->
<g id="edge18" class="edge">
<title>Node8&#45;&gt;Node5</title>
<path fill="none" stroke="#63b8ff" d="M352.46,-202.12C358.65,-204.91 364.64,-208.18 370,-212 391.42,-227.28 383.73,-244.99 406,-259 425.44,-271.23 565.96,-296.63 637.45,-308.97"/>
<polygon fill="#63b8ff" stroke="#63b8ff" points="645.4,-310.34 636.9,-312.53 641.46,-309.66 637.51,-308.98 637.51,-308.98 637.51,-308.98 641.46,-309.66 638.12,-305.43 645.4,-310.34 645.4,-310.34"/>
</g>
<!-- Node9 -->
<g id="node9" class="node">
<title>Node9</title>
<g id="a_node9"><a target="_parent" xlink:href="https://doc.qt.io/qt-5/qlowenergyservice.html#characteristic" xlink:title=" ">
<polygon fill="white" stroke="#666666" points="543,-250 424,-250 424,-220 543,-220 543,-250"/>
<text text-anchor="start" x="432" y="-238" font-family="Helvetica,sans-Serif" font-size="10.00">QLowEnergyService::</text>
<text text-anchor="middle" x="483.5" y="-227" font-family="Helvetica,sans-Serif" font-size="10.00">characteristic</text>
</a>
</g>
</g>
<!-- Node8&#45;&gt;Node9 -->
<g id="edge9" class="edge">
<title>Node8&#45;&gt;Node9</title>
<path fill="none" stroke="#63b8ff" d="M353.81,-202.06C373.53,-207.1 395.66,-212.77 415.93,-217.96"/>
<polygon fill="#63b8ff" stroke="#63b8ff" points="423.9,-220 415.25,-221.5 420.02,-219.01 416.15,-218.01 416.15,-218.01 416.15,-218.01 420.02,-219.01 417.04,-214.53 423.9,-220 423.9,-220"/>
</g>
<!-- Node8&#45;&gt;Node10 -->
<g id="edge11" class="edge">
<title>Node8&#45;&gt;Node10</title>
<path fill="none" stroke="#63b8ff" d="M349.29,-172C356.83,-168.28 364.03,-163.68 370,-158 398.53,-130.84 376.6,-103.22 406,-77 407.8,-75.39 409.71,-73.89 411.7,-72.49"/>
<polygon fill="#63b8ff" stroke="#63b8ff" points="418.77,-68.11 413.87,-75.39 415.37,-70.22 411.97,-72.33 411.97,-72.33 411.97,-72.33 415.37,-70.22 410.07,-69.27 418.77,-68.11 418.77,-68.11"/>
</g>
<!-- Node11 -->
<g id="node11" class="node">
<title>Node11</title>
<g id="a_node11"><a xlink:href="classPokitDevice.html#aca9393595de5676f20e3d0fd795358b5" target="_top" xlink:title="Returns a human&#45;readable name for the uuid service, or a null QString if unknonw.">
<polygon fill="white" stroke="#666666" points="561,-201.5 406,-201.5 406,-182.5 561,-182.5 561,-201.5"/>
<text text-anchor="middle" x="483.5" y="-189.5" font-family="Helvetica,sans-Serif" font-size="10.00">PokitDevice::serviceToString</text>
</a>
</g>
</g>
<!-- Node8&#45;&gt;Node11 -->
<g id="edge12" class="edge">
<title>Node8&#45;&gt;Node11</title>
<path fill="none" stroke="#63b8ff" d="M370.18,-189C379.25,-189.25 388.55,-189.49 397.74,-189.74"/>
<polygon fill="#63b8ff" stroke="#63b8ff" points="405.77,-189.95 397.68,-193.34 401.77,-189.85 397.77,-189.74 397.77,-189.74 397.77,-189.74 401.77,-189.85 397.87,-186.14 405.77,-189.95 405.77,-189.95"/>
</g>
<!-- Node13 -->
<g id="node13" class="node">
<title>Node13</title>
<g id="a_node13"><a target="_parent" xlink:href="https://doc.qt.io/qt-5/qlowenergyservice.html#serviceUuid" xlink:title=" ">
<polygon fill="white" stroke="#666666" points="543,-164 424,-164 424,-134 543,-134 543,-164"/>
<text text-anchor="start" x="432" y="-152" font-family="Helvetica,sans-Serif" font-size="10.00">QLowEnergyService::</text>
<text text-anchor="middle" x="483.5" y="-141" font-family="Helvetica,sans-Serif" font-size="10.00">serviceUuid</text>
</a>
</g>
</g>
<!-- Node8&#45;&gt;Node13 -->
<g id="edge15" class="edge">
<title>Node8&#45;&gt;Node13</title>
<path fill="none" stroke="#63b8ff" d="M369.1,-171.98C384.62,-168.84 400.89,-165.54 416.1,-162.46"/>
<polygon fill="#63b8ff" stroke="#63b8ff" points="423.95,-160.87 416.83,-165.98 420.03,-161.66 416.11,-162.45 416.11,-162.45 416.11,-162.45 420.03,-161.66 415.4,-158.93 423.95,-160.87 423.95,-160.87"/>
</g>
<!-- Node14 -->
<g id="node14" class="node">
<title>Node14</title>
<g id="a_node14"><a target="_parent" xlink:href="https://doc.qt.io/qt-5/qlowenergyservice.html#state" xlink:title=" ">
<polygon fill="white" stroke="#666666" points="543,-116 424,-116 424,-86 543,-86 543,-116"/>
<text text-anchor="start" x="432" y="-104" font-family="Helvetica,sans-Serif" font-size="10.00">QLowEnergyService::</text>
<text text-anchor="middle" x="483.5" y="-93" font-family="Helvetica,sans-Serif" font-size="10.00">state</text>
</a>
</g>
</g>
<!-- Node8&#45;&gt;Node14 -->
<g id="edge16" class="edge">
<title>Node8&#45;&gt;Node14</title>
<path fill="none" stroke="#63b8ff" d="M341.91,-171.97C351.52,-168.04 361.34,-163.37 370,-158 388.44,-146.55 387.2,-135.84 406,-125 409.6,-122.92 413.4,-121.01 417.31,-119.24"/>
<polygon fill="#63b8ff" stroke="#63b8ff" points="424.93,-116.02 418.96,-122.45 421.24,-117.57 417.56,-119.13 417.56,-119.13 417.56,-119.13 421.24,-117.57 416.15,-115.82 424.93,-116.02 424.93,-116.02"/>
</g>
<!-- Node8&#45;&gt;Node15 -->
<g id="edge17" class="edge">
<title>Node8&#45;&gt;Node15</title>
<path fill="none" stroke="#63b8ff" d="M316.9,-171.84C333.38,-159.5 355.51,-140.76 370,-120 394.89,-84.33 373.27,-57.64 406,-29 412.85,-23.01 421.31,-18.84 430.07,-15.97"/>
<polygon fill="#63b8ff" stroke="#63b8ff" points="437.82,-13.76 431.11,-19.41 433.97,-14.85 430.12,-15.95 430.12,-15.95 430.12,-15.95 433.97,-14.85 429.14,-12.49 437.82,-13.76 437.82,-13.76"/>
</g>
<!-- Node11&#45;&gt;Node5 -->
<g id="edge14" class="edge">
<title>Node11&#45;&gt;Node5</title>
<path fill="none" stroke="#63b8ff" d="M537.59,-201.62C545.68,-204.09 553.74,-207.17 561,-211 604.93,-234.17 645.77,-277.11 665.9,-300.25"/>
<polygon fill="#63b8ff" stroke="#63b8ff" points="671.23,-306.49 663.3,-302.75 668.63,-303.45 666.03,-300.41 666.03,-300.41 666.03,-300.41 668.63,-303.45 668.77,-298.07 671.23,-306.49 671.23,-306.49"/>
</g>
<!-- Node12 -->
<g id="node12" class="node">
<title>Node12</title>
<g id="a_node12"><a target="_parent" xlink:href="https://doc.qt.io/qt-5/qbluetoothuuid.html#serviceClassToString" xlink:title=" ">
<polygon fill="white" stroke="#666666" points="760.5,-207 599.5,-207 599.5,-177 760.5,-177 760.5,-207"/>
<text text-anchor="start" x="607.5" y="-195" font-family="Helvetica,sans-Serif" font-size="10.00">QBluetoothUuid::serviceClass</text>
<text text-anchor="middle" x="680" y="-184" font-family="Helvetica,sans-Serif" font-size="10.00">ToString</text>
</a>
</g>
</g>
<!-- Node11&#45;&gt;Node12 -->
<g id="edge13" class="edge">
<title>Node11&#45;&gt;Node12</title>
<path fill="none" stroke="#63b8ff" d="M561.09,-192C570.99,-192 581.19,-192 591.25,-192"/>
<polygon fill="#63b8ff" stroke="#63b8ff" points="599.28,-192 591.28,-195.6 595.28,-192 591.28,-192 591.28,-192 591.28,-192 595.28,-192 591.28,-188.4 599.28,-192 599.28,-192"/>
</g>
</g>
</svg>
