<?xml version="1.0" encoding="UTF-8" standalone="no"?>
<!DOCTYPE svg PUBLIC "-//W3C//DTD SVG 1.1//EN"
 "http://www.w3.org/Graphics/SVG/1.1/DTD/svg11.dtd">
<!-- Generated by graphviz version 2.43.0 (0)
 -->
<!-- Title: AbstractPokitService Pages: 1 -->
<svg width="551pt" height="149pt"
 viewBox="0.00 0.00 551.00 149.00" xmlns="http://www.w3.org/2000/svg" xmlns:xlink="http://www.w3.org/1999/xlink">
<g id="graph0" class="graph" transform="scale(1 1) rotate(0) translate(4 145)">
<title>AbstractPokitService</title>
<!-- Node1 -->
<g id="node1" class="node">
<title>Node1</title>
<g id="a_node1"><a xlink:title="The AbstractPokitService class provides a common base for Pokit services classes.">
<polygon fill="#999999" stroke="#666666" points="118,-85 0,-85 0,-66 118,-66 118,-85"/>
<text text-anchor="middle" x="59" y="-73" font-family="Helvetica,sans-Serif" font-size="10.00">AbstractPokitService</text>
</a>
</g>
</g>
<!-- Node3 -->
<g id="node3" class="node">
<title>Node3</title>
<g id="a_node3"><a xlink:href="classAbstractPokitServicePrivate.html" target="_top" xlink:title="The AbstractPokitServicePrivate class provides private implementation for AbstractPokitService.">
<polygon fill="white" stroke="#666666" points="253,-19 101,-19 101,0 253,0 253,-19"/>
<text text-anchor="middle" x="177" y="-7" font-family="Helvetica,sans-Serif" font-size="10.00">AbstractPokitServicePrivate</text>
</a>
</g>
</g>
<!-- Node1&#45;&gt;Node3 -->
<g id="edge10" class="edge">
<title>Node1&#45;&gt;Node3</title>
<path fill="none" stroke="#9a32cd" stroke-dasharray="5,2" d="M53.53,-57.95C52.23,-50.8 52.36,-42.77 57,-37 63.55,-28.85 82.67,-23.06 103.77,-19.01"/>
<polygon fill="#9a32cd" stroke="#9a32cd" points="55.51,-65.75 50.05,-58.89 54.52,-61.88 53.54,-58 53.54,-58 53.54,-58 54.52,-61.88 57.03,-57.11 55.51,-65.75 55.51,-65.75"/>
<text text-anchor="middle" x="71" y="-40" font-family="Helvetica,sans-Serif" font-size="10.00"> q_ptr</text>
</g>
<!-- Node2 -->
<g id="node2" class="node">
<title>Node2</title>
<g id="a_node2"><a target="_parent" xlink:href="https://doc.qt.io/qt-5/qobject.html" xlink:title=" ">
<polygon fill="white" stroke="#bfbfbf" points="203,-141 147,-141 147,-122 203,-122 203,-141"/>
<text text-anchor="middle" x="175" y="-129" font-family="Helvetica,sans-Serif" font-size="10.00">QObject</text>
</a>
</g>
</g>
<!-- Node2&#45;&gt;Node1 -->
<g id="edge1" class="edge">
<title>Node2&#45;&gt;Node1</title>
<path fill="none" stroke="#63b8ff" d="M149.31,-118.54C127.48,-108.38 96.69,-94.05 77.29,-85.02"/>
<polygon fill="#63b8ff" stroke="#63b8ff" points="156.62,-121.94 147.85,-121.83 152.99,-120.26 149.37,-118.57 149.37,-118.57 149.37,-118.57 152.99,-120.26 150.89,-115.3 156.62,-121.94 156.62,-121.94"/>
</g>
<!-- Node2&#45;&gt;Node3 -->
<g id="edge3" class="edge">
<title>Node2&#45;&gt;Node3</title>
<path fill="none" stroke="#63b8ff" d="M170.5,-114.11C168.37,-105.51 166.06,-94.77 165,-85 162.4,-61.04 169.74,-33.03 174.07,-19.18"/>
<polygon fill="#63b8ff" stroke="#63b8ff" points="172.52,-121.87 167.02,-115.03 171.51,-118 170.5,-114.13 170.5,-114.13 170.5,-114.13 171.51,-118 173.99,-113.22 172.52,-121.87 172.52,-121.87"/>
</g>
<!-- Node4 -->
<g id="node4" class="node">
<title>Node4</title>
<g id="a_node4"><a target="_parent" xlink:href="https://doc.qt.io/qt-5/qlowenergycontroller.html" xlink:title=" ">
<polygon fill="white" stroke="#bfbfbf" points="299.5,-85 174.5,-85 174.5,-66 299.5,-66 299.5,-85"/>
<text text-anchor="middle" x="237" y="-73" font-family="Helvetica,sans-Serif" font-size="10.00">QLowEnergyController</text>
</a>
</g>
</g>
<!-- Node2&#45;&gt;Node4 -->
<g id="edge5" class="edge">
<title>Node2&#45;&gt;Node4</title>
<path fill="none" stroke="#63b8ff" d="M191.15,-116.44C202.44,-106.6 217.18,-93.76 226.86,-85.33"/>
<polygon fill="#63b8ff" stroke="#63b8ff" points="184.96,-121.82 188.63,-113.85 187.98,-119.2 190.99,-116.57 190.99,-116.57 190.99,-116.57 187.98,-119.2 193.36,-119.28 184.96,-121.82 184.96,-121.82"/>
</g>
<!-- Node5 -->
<g id="node5" class="node">
<title>Node5</title>
<g id="a_node5"><a target="_parent" xlink:href="https://doc.qt.io/qt-5/qlowenergyservice.html" xlink:title=" ">
<polygon fill="white" stroke="#bfbfbf" points="430.5,-85 317.5,-85 317.5,-66 430.5,-66 430.5,-85"/>
<text text-anchor="middle" x="374" y="-73" font-family="Helvetica,sans-Serif" font-size="10.00">QLowEnergyService</text>
</a>
</g>
</g>
<!-- Node2&#45;&gt;Node5 -->
<g id="edge7" class="edge">
<title>Node2&#45;&gt;Node5</title>
<path fill="none" stroke="#63b8ff" d="M211.23,-120.67C248.74,-110.49 306.75,-94.75 342.44,-85.06"/>
<polygon fill="#63b8ff" stroke="#63b8ff" points="203.09,-122.88 209.87,-117.31 206.95,-121.83 210.81,-120.78 210.81,-120.78 210.81,-120.78 206.95,-121.83 211.75,-124.26 203.09,-122.88 203.09,-122.88"/>
</g>
<!-- Node3&#45;&gt;Node1 -->
<g id="edge2" class="edge">
<title>Node3&#45;&gt;Node1</title>
<path fill="none" stroke="#9a32cd" stroke-dasharray="5,2" d="M138.37,-21.72C126.94,-25.77 114.64,-30.89 104,-37 90.07,-45 76.19,-57.41 67.61,-65.74"/>
<polygon fill="#9a32cd" stroke="#9a32cd" points="146.12,-19.08 139.71,-25.07 142.33,-20.37 138.55,-21.66 138.55,-21.66 138.55,-21.66 142.33,-20.37 137.39,-18.25 146.12,-19.08 146.12,-19.08"/>
<text text-anchor="middle" x="118" y="-40" font-family="Helvetica,sans-Serif" font-size="10.00"> d_ptr</text>
</g>
<!-- Node4&#45;&gt;Node3 -->
<g id="edge4" class="edge">
<title>Node4&#45;&gt;Node3</title>
<path fill="none" stroke="#9a32cd" stroke-dasharray="5,2" d="M223.29,-59.87C211.59,-47.4 195.16,-29.87 185.35,-19.41"/>
<polygon fill="#9a32cd" stroke="#9a32cd" points="228.91,-65.87 220.81,-62.49 226.17,-62.95 223.44,-60.03 223.44,-60.03 223.44,-60.03 226.17,-62.95 226.06,-57.57 228.91,-65.87 228.91,-65.87"/>
<text text-anchor="middle" x="236" y="-40" font-family="Helvetica,sans-Serif" font-size="10.00"> controller</text>
</g>
<!-- Node5&#45;&gt;Node3 -->
<g id="edge6" class="edge">
<title>Node5&#45;&gt;Node3</title>
<path fill="none" stroke="#9a32cd" stroke-dasharray="5,2" d="M342.23,-63.2C320.54,-55.59 291.12,-45.42 265,-37 245.56,-30.73 223.56,-24.11 206.42,-19.05"/>
<polygon fill="#9a32cd" stroke="#9a32cd" points="349.85,-65.89 341.1,-66.63 346.07,-64.56 342.3,-63.23 342.3,-63.23 342.3,-63.23 346.07,-64.56 343.5,-59.83 349.85,-65.89 349.85,-65.89"/>
<text text-anchor="middle" x="318.5" y="-40" font-family="Helvetica,sans-Serif" font-size="10.00"> service</text>
</g>
<!-- Node6 -->
<g id="node6" class="node">
<title>Node6</title>
<g id="a_node6"><a target="_parent" xlink:href="https://doc.qt.io/qt-5/qbluetoothuuid.html" xlink:title=" ">
<polygon fill="white" stroke="#bfbfbf" points="543,-85 449,-85 449,-66 543,-66 543,-85"/>
<text text-anchor="middle" x="496" y="-73" font-family="Helvetica,sans-Serif" font-size="10.00">QBluetoothUuid</text>
</a>
</g>
</g>
<!-- Node6&#45;&gt;Node3 -->
<g id="edge8" class="edge">
<title>Node6&#45;&gt;Node3</title>
<path fill="none" stroke="#9a32cd" stroke-dasharray="5,2" d="M456.04,-63.84C425.07,-55.81 381,-44.87 342,-37 307.59,-30.06 268.84,-23.76 237.55,-19.04"/>
<polygon fill="#9a32cd" stroke="#9a32cd" points="464.02,-65.92 455.37,-67.39 460.15,-64.91 456.28,-63.9 456.28,-63.9 456.28,-63.9 460.15,-64.91 457.18,-60.42 464.02,-65.92 464.02,-65.92"/>
<text text-anchor="middle" x="419.5" y="-40" font-family="Helvetica,sans-Serif" font-size="10.00"> serviceUuid</text>
</g>
<!-- Node7 -->
<g id="node7" class="node">
<title>Node7</title>
<g id="a_node7"><a target="_parent" xlink:href="https://doc.qt.io/qt-5/quuid.html" xlink:title=" ">
<polygon fill="white" stroke="#bfbfbf" points="519.5,-141 472.5,-141 472.5,-122 519.5,-122 519.5,-141"/>
<text text-anchor="middle" x="496" y="-129" font-family="Helvetica,sans-Serif" font-size="10.00">QUuid</text>
</a>
</g>
</g>
<!-- Node7&#45;&gt;Node6 -->
<g id="edge9" class="edge">
<title>Node7&#45;&gt;Node6</title>
<path fill="none" stroke="#63b8ff" d="M496,-113.36C496,-104 496,-92.83 496,-85.25"/>
<polygon fill="#63b8ff" stroke="#63b8ff" points="496,-121.58 492.4,-113.58 496,-117.58 496,-113.58 496,-113.58 496,-113.58 496,-117.58 499.6,-113.58 496,-121.58 496,-121.58"/>
</g>
</g>
</svg>
