<?xml version="1.0" encoding="UTF-8" standalone="no"?>
<!DOCTYPE svg PUBLIC "-//W3C//DTD SVG 1.1//EN"
 "http://www.w3.org/Graphics/SVG/1.1/DTD/svg11.dtd">
<!-- Generated by graphviz version 2.43.0 (0)
 -->
<!-- Title: pokitdevice.h Pages: 1 -->
<svg width="1954pt" height="82pt"
 viewBox="0.00 0.00 1953.50 82.00" xmlns="http://www.w3.org/2000/svg" xmlns:xlink="http://www.w3.org/1999/xlink">
<g id="graph0" class="graph" transform="scale(1 1) rotate(0) translate(4 78)">
<title>pokitdevice.h</title>
<!-- Node1 -->
<g id="node1" class="node">
<title>Node1</title>
<g id="a_node1"><a xlink:title="Declares the PokitDevice class.">
<polygon fill="#999999" stroke="#666666" points="1008,-74 925,-74 925,-55 1008,-55 1008,-74"/>
<text text-anchor="middle" x="966.5" y="-62" font-family="Helvetica,sans-Serif" font-size="10.00">pokitdevice.h</text>
</a>
</g>
</g>
<!-- Node2 -->
<g id="node2" class="node">
<title>Node2</title>
<g id="a_node2"><a xlink:href="abstractcommand_8cpp_source.html" target="_top" xlink:title=" ">
<polygon fill="white" stroke="#666666" points="125,-19 0,-19 0,0 125,0 125,-19"/>
<text text-anchor="middle" x="62.5" y="-7" font-family="Helvetica,sans-Serif" font-size="10.00">abstractcommand.cpp</text>
</a>
</g>
</g>
<!-- Node1&#45;&gt;Node2 -->
<g id="edge1" class="edge">
<title>Node1&#45;&gt;Node2</title>
<path fill="none" stroke="#63b8ff" d="M916.64,-61.98C787.21,-57.79 429.99,-44.64 133.5,-19 130.78,-18.76 128,-18.51 125.2,-18.23"/>
<polygon fill="#63b8ff" stroke="#63b8ff" points="924.83,-62.24 916.72,-65.59 920.83,-62.12 916.83,-61.99 916.83,-61.99 916.83,-61.99 920.83,-62.12 916.95,-58.39 924.83,-62.24 924.83,-62.24"/>
</g>
<!-- Node3 -->
<g id="node3" class="node">
<title>Node3</title>
<g id="a_node3"><a xlink:href="abstractpokitservice_8cpp.html" target="_top" xlink:title="Defines the AbstractPokitService and AbstractPokitServicePrivate classes.">
<polygon fill="white" stroke="#666666" points="280,-19 143,-19 143,0 280,0 280,-19"/>
<text text-anchor="middle" x="211.5" y="-7" font-family="Helvetica,sans-Serif" font-size="10.00">abstractpokitservice.cpp</text>
</a>
</g>
</g>
<!-- Node1&#45;&gt;Node3 -->
<g id="edge2" class="edge">
<title>Node1&#45;&gt;Node3</title>
<path fill="none" stroke="#63b8ff" d="M916.76,-60.96C804.68,-55.09 523.89,-39.47 289.5,-19 286.51,-18.74 283.47,-18.46 280.39,-18.17"/>
<polygon fill="#63b8ff" stroke="#63b8ff" points="924.85,-61.39 916.68,-64.56 920.86,-61.18 916.86,-60.97 916.86,-60.97 916.86,-60.97 920.86,-61.18 917.05,-57.37 924.85,-61.39 924.85,-61.39"/>
</g>
<!-- Node4 -->
<g id="node4" class="node">
<title>Node4</title>
<g id="a_node4"><a xlink:href="calibratecommand_8cpp_source.html" target="_top" xlink:title=" ">
<polygon fill="white" stroke="#666666" points="426.5,-19 298.5,-19 298.5,0 426.5,0 426.5,-19"/>
<text text-anchor="middle" x="362.5" y="-7" font-family="Helvetica,sans-Serif" font-size="10.00">calibratecommand.cpp</text>
</a>
</g>
</g>
<!-- Node1&#45;&gt;Node4 -->
<g id="edge3" class="edge">
<title>Node1&#45;&gt;Node4</title>
<path fill="none" stroke="#63b8ff" d="M916.61,-59.86C822.46,-52.87 612.2,-36.69 435.5,-19 432.58,-18.71 429.6,-18.4 426.58,-18.08"/>
<polygon fill="#63b8ff" stroke="#63b8ff" points="924.81,-60.47 916.56,-63.47 920.82,-60.17 916.83,-59.88 916.83,-59.88 916.83,-59.88 920.82,-60.17 917.1,-56.29 924.81,-60.47 924.81,-60.47"/>
</g>
<!-- Node5 -->
<g id="node5" class="node">
<title>Node5</title>
<g id="a_node5"><a xlink:href="devicecommand_8cpp_source.html" target="_top" xlink:title=" ">
<polygon fill="white" stroke="#666666" points="562.5,-19 444.5,-19 444.5,0 562.5,0 562.5,-19"/>
<text text-anchor="middle" x="503.5" y="-7" font-family="Helvetica,sans-Serif" font-size="10.00">devicecommand.cpp</text>
</a>
</g>
</g>
<!-- Node1&#45;&gt;Node5 -->
<g id="edge4" class="edge">
<title>Node1&#45;&gt;Node5</title>
<path fill="none" stroke="#63b8ff" d="M916.62,-58.08C841.67,-49.89 695.55,-33.74 571.5,-19 568.66,-18.66 565.76,-18.31 562.83,-17.96"/>
<polygon fill="#63b8ff" stroke="#63b8ff" points="924.97,-58.99 916.62,-61.7 920.99,-58.55 917.01,-58.12 917.01,-58.12 917.01,-58.12 920.99,-58.55 917.4,-54.54 924.97,-58.99 924.97,-58.99"/>
</g>
<!-- Node6 -->
<g id="node6" class="node">
<title>Node6</title>
<g id="a_node6"><a xlink:href="dsocommand_8cpp_source.html" target="_top" xlink:title=" ">
<polygon fill="white" stroke="#666666" points="684,-19 581,-19 581,0 684,0 684,-19"/>
<text text-anchor="middle" x="632.5" y="-7" font-family="Helvetica,sans-Serif" font-size="10.00">dsocommand.cpp</text>
</a>
</g>
</g>
<!-- Node1&#45;&gt;Node6 -->
<g id="edge5" class="edge">
<title>Node1&#45;&gt;Node6</title>
<path fill="none" stroke="#63b8ff" d="M916.74,-55.6C854.27,-45.69 747.65,-28.77 684.26,-18.71"/>
<polygon fill="#63b8ff" stroke="#63b8ff" points="924.87,-56.89 916.41,-59.2 920.92,-56.27 916.97,-55.64 916.97,-55.64 916.97,-55.64 920.92,-56.27 917.54,-52.09 924.87,-56.89 924.87,-56.89"/>
</g>
<!-- Node7 -->
<g id="node7" class="node">
<title>Node7</title>
<g id="a_node7"><a xlink:href="flashledcommand_8cpp_source.html" target="_top" xlink:title=" ">
<polygon fill="white" stroke="#666666" points="826.5,-19 702.5,-19 702.5,0 826.5,0 826.5,-19"/>
<text text-anchor="middle" x="764.5" y="-7" font-family="Helvetica,sans-Serif" font-size="10.00">flashledcommand.cpp</text>
</a>
</g>
</g>
<!-- Node1&#45;&gt;Node7 -->
<g id="edge6" class="edge">
<title>Node1&#45;&gt;Node7</title>
<path fill="none" stroke="#63b8ff" d="M926.25,-52.94C888.39,-43.01 832.4,-28.31 797.21,-19.08"/>
<polygon fill="#63b8ff" stroke="#63b8ff" points="934.05,-54.98 925.39,-56.44 930.18,-53.97 926.31,-52.95 926.31,-52.95 926.31,-52.95 930.18,-53.97 927.22,-49.47 934.05,-54.98 934.05,-54.98"/>
</g>
<!-- Node8 -->
<g id="node8" class="node">
<title>Node8</title>
<g id="a_node8"><a xlink:href="infocommand_8cpp_source.html" target="_top" xlink:title=" ">
<polygon fill="white" stroke="#666666" points="948.5,-19 844.5,-19 844.5,0 948.5,0 948.5,-19"/>
<text text-anchor="middle" x="896.5" y="-7" font-family="Helvetica,sans-Serif" font-size="10.00">infocommand.cpp</text>
</a>
</g>
</g>
<!-- Node1&#45;&gt;Node8 -->
<g id="edge7" class="edge">
<title>Node1&#45;&gt;Node8</title>
<path fill="none" stroke="#63b8ff" d="M948.62,-49.97C935.83,-40.28 918.98,-27.52 907.95,-19.17"/>
<polygon fill="#63b8ff" stroke="#63b8ff" points="955.25,-54.98 946.7,-53.03 952.06,-52.57 948.88,-50.16 948.88,-50.16 948.88,-50.16 952.06,-52.57 951.05,-47.29 955.25,-54.98 955.25,-54.98"/>
</g>
<!-- Node9 -->
<g id="node9" class="node">
<title>Node9</title>
<g id="a_node9"><a xlink:href="loggerfetchcommand_8cpp_source.html" target="_top" xlink:title=" ">
<polygon fill="white" stroke="#666666" points="1108,-19 967,-19 967,0 1108,0 1108,-19"/>
<text text-anchor="middle" x="1037.5" y="-7" font-family="Helvetica,sans-Serif" font-size="10.00">loggerfetchcommand.cpp</text>
</a>
</g>
</g>
<!-- Node1&#45;&gt;Node9 -->
<g id="edge8" class="edge">
<title>Node1&#45;&gt;Node9</title>
<path fill="none" stroke="#63b8ff" d="M984.63,-49.97C997.61,-40.28 1014.7,-27.52 1025.89,-19.17"/>
<polygon fill="#63b8ff" stroke="#63b8ff" points="977.91,-54.98 982.16,-47.31 981.11,-52.59 984.32,-50.2 984.32,-50.2 984.32,-50.2 981.11,-52.59 986.47,-53.08 977.91,-54.98 977.91,-54.98"/>
</g>
<!-- Node10 -->
<g id="node10" class="node">
<title>Node10</title>
<g id="a_node10"><a xlink:href="loggerstartcommand_8cpp_source.html" target="_top" xlink:title=" ">
<polygon fill="white" stroke="#666666" points="1265,-19 1126,-19 1126,0 1265,0 1265,-19"/>
<text text-anchor="middle" x="1195.5" y="-7" font-family="Helvetica,sans-Serif" font-size="10.00">loggerstartcommand.cpp</text>
</a>
</g>
</g>
<!-- Node1&#45;&gt;Node10 -->
<g id="edge9" class="edge">
<title>Node1&#45;&gt;Node10</title>
<path fill="none" stroke="#63b8ff" d="M1011.32,-53.13C1054.25,-43.19 1118.28,-28.37 1158.42,-19.08"/>
<polygon fill="#63b8ff" stroke="#63b8ff" points="1003.29,-54.98 1010.28,-49.67 1007.19,-54.08 1011.09,-53.18 1011.09,-53.18 1011.09,-53.18 1007.19,-54.08 1011.9,-56.69 1003.29,-54.98 1003.29,-54.98"/>
</g>
<!-- Node11 -->
<g id="node11" class="node">
<title>Node11</title>
<g id="a_node11"><a xlink:href="loggerstopcommand_8cpp_source.html" target="_top" xlink:title=" ">
<polygon fill="white" stroke="#666666" points="1420,-19 1283,-19 1283,0 1420,0 1420,-19"/>
<text text-anchor="middle" x="1351.5" y="-7" font-family="Helvetica,sans-Serif" font-size="10.00">loggerstopcommand.cpp</text>
</a>
</g>
</g>
<!-- Node1&#45;&gt;Node11 -->
<g id="edge10" class="edge">
<title>Node1&#45;&gt;Node11</title>
<path fill="none" stroke="#63b8ff" d="M1016.31,-56.64C1086.26,-47.01 1213.55,-29.49 1289.53,-19.03"/>
<polygon fill="#63b8ff" stroke="#63b8ff" points="1008.07,-57.78 1015.5,-53.12 1012.03,-57.23 1015.99,-56.69 1015.99,-56.69 1015.99,-56.69 1012.03,-57.23 1016.48,-60.25 1008.07,-57.78 1008.07,-57.78"/>
</g>
<!-- Node12 -->
<g id="node12" class="node">
<title>Node12</title>
<g id="a_node12"><a xlink:href="metercommand_8cpp_source.html" target="_top" xlink:title=" ">
<polygon fill="white" stroke="#666666" points="1553,-19 1438,-19 1438,0 1553,0 1553,-19"/>
<text text-anchor="middle" x="1495.5" y="-7" font-family="Helvetica,sans-Serif" font-size="10.00">metercommand.cpp</text>
</a>
</g>
</g>
<!-- Node1&#45;&gt;Node12 -->
<g id="edge11" class="edge">
<title>Node1&#45;&gt;Node12</title>
<path fill="none" stroke="#63b8ff" d="M1016.21,-59.25C1101.06,-51.88 1279.23,-35.89 1429.5,-19 1432.26,-18.69 1435.07,-18.36 1437.92,-18.03"/>
<polygon fill="#63b8ff" stroke="#63b8ff" points="1008.05,-59.96 1015.71,-55.68 1012.04,-59.61 1016.02,-59.27 1016.02,-59.27 1016.02,-59.27 1012.04,-59.61 1016.33,-62.86 1008.05,-59.96 1008.05,-59.96"/>
</g>
<!-- Node13 -->
<g id="node13" class="node">
<title>Node13</title>
<g id="a_node13"><a xlink:href="pokitdevice_8cpp.html" target="_top" xlink:title="Defines the PokitDevice and PokitDevicePrivate classes.">
<polygon fill="white" stroke="#666666" points="1665.5,-19 1571.5,-19 1571.5,0 1665.5,0 1665.5,-19"/>
<text text-anchor="middle" x="1618.5" y="-7" font-family="Helvetica,sans-Serif" font-size="10.00">pokitdevice.cpp</text>
</a>
</g>
</g>
<!-- Node1&#45;&gt;Node13 -->
<g id="edge12" class="edge">
<title>Node1&#45;&gt;Node13</title>
<path fill="none" stroke="#63b8ff" d="M1016.16,-61.07C1118.55,-55.79 1360.48,-41.84 1562.5,-19 1565.43,-18.67 1568.44,-18.3 1571.48,-17.9"/>
<polygon fill="#63b8ff" stroke="#63b8ff" points="1008.15,-61.48 1015.95,-57.48 1012.14,-61.28 1016.14,-61.07 1016.14,-61.07 1016.14,-61.07 1012.14,-61.28 1016.32,-64.67 1008.15,-61.48 1008.15,-61.48"/>
</g>
<!-- Node14 -->
<g id="node14" class="node">
<title>Node14</title>
<g id="a_node14"><a xlink:href="setnamecommand_8cpp_source.html" target="_top" xlink:title=" ">
<polygon fill="white" stroke="#666666" points="1811.5,-19 1683.5,-19 1683.5,0 1811.5,0 1811.5,-19"/>
<text text-anchor="middle" x="1747.5" y="-7" font-family="Helvetica,sans-Serif" font-size="10.00">setnamecommand.cpp</text>
</a>
</g>
</g>
<!-- Node1&#45;&gt;Node14 -->
<g id="edge13" class="edge">
<title>Node1&#45;&gt;Node14</title>
<path fill="none" stroke="#63b8ff" d="M1016.06,-61.29C1131.59,-55.95 1427.73,-41.11 1674.5,-19 1677.42,-18.74 1680.41,-18.45 1683.43,-18.16"/>
<polygon fill="#63b8ff" stroke="#63b8ff" points="1008.06,-61.66 1015.88,-57.7 1012.05,-61.48 1016.05,-61.29 1016.05,-61.29 1016.05,-61.29 1012.05,-61.48 1016.21,-64.89 1008.06,-61.66 1008.06,-61.66"/>
</g>
<!-- Node15 -->
<g id="node15" class="node">
<title>Node15</title>
<g id="a_node15"><a xlink:href="statuscommand_8cpp_source.html" target="_top" xlink:title=" ">
<polygon fill="white" stroke="#666666" points="1945.5,-19 1829.5,-19 1829.5,0 1945.5,0 1945.5,-19"/>
<text text-anchor="middle" x="1887.5" y="-7" font-family="Helvetica,sans-Serif" font-size="10.00">statuscommand.cpp</text>
</a>
</g>
</g>
<!-- Node1&#45;&gt;Node15 -->
<g id="edge14" class="edge">
<title>Node1&#45;&gt;Node15</title>
<path fill="none" stroke="#63b8ff" d="M1016.69,-62.18C1148.6,-58.45 1515.91,-46.22 1820.5,-19 1823.42,-18.74 1826.41,-18.45 1829.42,-18.14"/>
<polygon fill="#63b8ff" stroke="#63b8ff" points="1008.34,-62.42 1016.24,-58.6 1012.34,-62.31 1016.34,-62.19 1016.34,-62.19 1016.34,-62.19 1012.34,-62.31 1016.44,-65.79 1008.34,-62.42 1008.34,-62.42"/>
</g>
</g>
</svg>
