<?xml version="1.0" encoding="UTF-8" standalone="no"?>
<!DOCTYPE svg PUBLIC "-//W3C//DTD SVG 1.1//EN"
 "http://www.w3.org/Graphics/SVG/1.1/DTD/svg11.dtd">
<!-- Generated by graphviz version 2.43.0 (0)
 -->
<!-- Title: SetNameCommand::deviceNameWritten Pages: 1 -->
<svg width="487pt" height="52pt"
 viewBox="0.00 0.00 487.00 51.50" xmlns="http://www.w3.org/2000/svg" xmlns:xlink="http://www.w3.org/1999/xlink">
<g id="graph0" class="graph" transform="scale(1 1) rotate(0) translate(4 47.5)">
<title>SetNameCommand::deviceNameWritten</title>
<!-- Node1 -->
<g id="Node000001" class="node">
<title>Node1</title>
<g id="a_Node000001"><a xlink:title="Handles StatusService::deviceNameWritten events, by outputting the result and exiting.">
<polygon fill="#999999" stroke="#666666" points="179,-30 0,-30 0,0 179,0 179,-30"/>
<text text-anchor="start" x="8" y="-18" font-family="Helvetica,sans-Serif" font-size="10.00">SetNameCommand::deviceName</text>
<text text-anchor="middle" x="89.5" y="-7" font-family="Helvetica,sans-Serif" font-size="10.00">Written</text>
</a>
</g>
</g>
<!-- Node2 -->
<g id="Node000002" class="node">
<title>Node2</title>
<g id="a_Node000002"><a xlink:href="classDeviceCommand.html#ae619166395b5651f1316fd5336d9fa2c" target="_top" xlink:title="Disconnects the underlying Pokit device, and sets exitCode to be return to the OS once the disconnect...">
<polygon fill="white" stroke="#666666" points="374,-43.5 215,-43.5 215,-24.5 374,-24.5 374,-43.5"/>
<text text-anchor="middle" x="294.5" y="-31.5" font-family="Helvetica,sans-Serif" font-size="10.00">DeviceCommand::disconnect</text>
</a>
</g>
</g>
<!-- Node1&#45;&gt;Node2 -->
<g id="edge1_Node000001_Node000002" class="edge">
<title>Node1&#45;&gt;Node2</title>
<g id="a_edge1_Node000001_Node000002"><a xlink:title=" ">
<path fill="none" stroke="#63b8ff" d="M179.24,-23.31C188.4,-24.16 197.7,-25.03 206.84,-25.89"/>
<polygon fill="#63b8ff" stroke="#63b8ff" points="214.82,-26.64 206.52,-29.47 210.84,-26.26 206.85,-25.89 206.85,-25.89 206.85,-25.89 210.84,-26.26 207.19,-22.31 214.82,-26.64 214.82,-26.64"/>
</a>
</g>
</g>
<!-- Node3 -->
<g id="Node000003" class="node">
<title>Node3</title>
<g id="a_Node000003"><a target="_parent" xlink:href="https://doc.qt.io/qt-5/qobject.html#tr" xlink:title=" ">
<polygon fill="white" stroke="#666666" points="479,-24.5 410,-24.5 410,-5.5 479,-5.5 479,-24.5"/>
<text text-anchor="middle" x="444.5" y="-12.5" font-family="Helvetica,sans-Serif" font-size="10.00">QObject::tr</text>
</a>
</g>
</g>
<!-- Node1&#45;&gt;Node3 -->
<g id="edge3_Node000001_Node000003" class="edge">
<title>Node1&#45;&gt;Node3</title>
<g id="a_edge3_Node000001_Node000003"><a xlink:title=" ">
<path fill="none" stroke="#63b8ff" d="M179.12,-15C250.41,-15 347.39,-15 401.88,-15"/>
<polygon fill="#63b8ff" stroke="#63b8ff" points="409.93,-15 401.93,-18.6 405.93,-15 401.93,-15 401.93,-15 401.93,-15 405.93,-15 401.93,-11.4 409.93,-15 409.93,-15"/>
</a>
</g>
</g>
<!-- Node2&#45;&gt;Node3 -->
<g id="edge2_Node000002_Node000003" class="edge">
<title>Node2&#45;&gt;Node3</title>
<g id="a_edge2_Node000002_Node000003"><a xlink:title=" ">
<path fill="none" stroke="#63b8ff" d="M369.93,-24.44C380.84,-23.04 391.74,-21.64 401.68,-20.37"/>
<polygon fill="#63b8ff" stroke="#63b8ff" points="409.78,-19.33 402.3,-23.92 405.81,-19.84 401.84,-20.35 401.84,-20.35 401.84,-20.35 405.81,-19.84 401.38,-16.78 409.78,-19.33 409.78,-19.33"/>
</a>
</g>
</g>
</g>
</svg>
