<?xml version="1.0" encoding="UTF-8" standalone="no"?>
<!DOCTYPE svg PUBLIC "-//W3C//DTD SVG 1.1//EN"
 "http://www.w3.org/Graphics/SVG/1.1/DTD/svg11.dtd">
<!-- Generated by graphviz version 2.43.0 (0)
 -->
<!-- Title: AbstractPokitServicePrivate::connected Pages: 1 -->
<svg width="539pt" height="278pt"
 viewBox="0.00 0.00 539.00 278.00" xmlns="http://www.w3.org/2000/svg" xmlns:xlink="http://www.w3.org/1999/xlink">
<g id="graph0" class="graph" transform="scale(1 1) rotate(0) translate(4 274)">
<title>AbstractPokitServicePrivate::connected</title>
<!-- Node1 -->
<g id="Node000001" class="node">
<title>Node1</title>
<g id="a_Node000001"><a xlink:title="Handles QLowEnergyController::connected events.">
<polygon fill="#999999" stroke="#666666" points="531,-150 379,-150 379,-120 531,-120 531,-150"/>
<text text-anchor="start" x="387" y="-138" font-family="Helvetica,sans-Serif" font-size="10.00">AbstractPokitServicePrivate</text>
<text text-anchor="middle" x="455" y="-127" font-family="Helvetica,sans-Serif" font-size="10.00">::connected</text>
</a>
</g>
</g>
<!-- Node2 -->
<g id="Node000002" class="node">
<title>Node2</title>
<g id="a_Node000002"><a xlink:href="classAbstractPokitServicePrivate.html#a73d4b6cd1a53f997f78d1c266a1c1871" target="_top" xlink:title=" ">
<polygon fill="white" stroke="#666666" points="343,-150 185,-150 185,-120 343,-120 343,-150"/>
<text text-anchor="start" x="193" y="-138" font-family="Helvetica,sans-Serif" font-size="10.00">AbstractPokitServicePrivate</text>
<text text-anchor="middle" x="264" y="-127" font-family="Helvetica,sans-Serif" font-size="10.00">::AbstractPokitServicePrivate</text>
</a>
</g>
</g>
<!-- Node1&#45;&gt;Node2 -->
<g id="edge1_Node000001_Node000002" class="edge">
<title>Node1&#45;&gt;Node2</title>
<g id="a_edge1_Node000001_Node000002"><a xlink:title=" ">
<path fill="none" stroke="#63b8ff" d="M370.73,-135C361.54,-135 352.2,-135 343.08,-135"/>
<polygon fill="#63b8ff" stroke="#63b8ff" points="378.76,-135 370.76,-138.6 374.76,-135 370.76,-135 370.76,-135 370.76,-135 374.76,-135 370.76,-131.4 378.76,-135 378.76,-135"/>
</a>
</g>
</g>
<!-- Node3 -->
<g id="Node000003" class="node">
<title>Node3</title>
<g id="a_Node000003"><a xlink:href="classCalibrationServicePrivate.html#a03a98ab0155e7b4ae8a2776a2ec251a3" target="_top" xlink:title=" ">
<polygon fill="white" stroke="#666666" points="147.5,-270 1.5,-270 1.5,-240 147.5,-240 147.5,-270"/>
<text text-anchor="start" x="9.5" y="-258" font-family="Helvetica,sans-Serif" font-size="10.00">CalibrationServicePrivate</text>
<text text-anchor="middle" x="74.5" y="-247" font-family="Helvetica,sans-Serif" font-size="10.00">::CalibrationServicePrivate</text>
</a>
</g>
</g>
<!-- Node2&#45;&gt;Node3 -->
<g id="edge2_Node000002_Node000003" class="edge">
<title>Node2&#45;&gt;Node3</title>
<g id="a_edge2_Node000002_Node000003"><a xlink:title=" ">
<path fill="none" stroke="#63b8ff" d="M243.27,-155.8C221.86,-177.3 185.79,-210.53 149,-231 143.02,-234.33 136.5,-237.28 129.9,-239.88"/>
<polygon fill="#63b8ff" stroke="#63b8ff" points="248.91,-150.07 245.87,-158.3 246.1,-152.92 243.3,-155.77 243.3,-155.77 243.3,-155.77 246.1,-152.92 240.73,-153.25 248.91,-150.07 248.91,-150.07"/>
</a>
</g>
</g>
<!-- Node4 -->
<g id="Node000004" class="node">
<title>Node4</title>
<g id="a_Node000004"><a xlink:href="classDataLoggerServicePrivate.html#afdabd152b55f000163e30a19f06e7f7f" target="_top" xlink:title=" ">
<polygon fill="white" stroke="#666666" points="149,-222 0,-222 0,-192 149,-192 149,-222"/>
<text text-anchor="start" x="8" y="-210" font-family="Helvetica,sans-Serif" font-size="10.00">DataLoggerServicePrivate</text>
<text text-anchor="middle" x="74.5" y="-199" font-family="Helvetica,sans-Serif" font-size="10.00">::DataLoggerServicePrivate</text>
</a>
</g>
</g>
<!-- Node2&#45;&gt;Node4 -->
<g id="edge3_Node000002_Node000004" class="edge">
<title>Node2&#45;&gt;Node4</title>
<g id="a_edge3_Node000002_Node000004"><a xlink:title=" ">
<path fill="none" stroke="#63b8ff" d="M221.99,-153.24C200.44,-162.58 173.48,-173.87 149,-183 140.83,-186.05 132.06,-189.1 123.54,-191.95"/>
<polygon fill="#63b8ff" stroke="#63b8ff" points="229.37,-150.02 223.48,-156.52 225.71,-151.62 222.04,-153.22 222.04,-153.22 222.04,-153.22 225.71,-151.62 220.6,-149.92 229.37,-150.02 229.37,-150.02"/>
</a>
</g>
</g>
<!-- Node5 -->
<g id="Node000005" class="node">
<title>Node5</title>
<g id="a_Node000005"><a xlink:href="classDeviceInfoServicePrivate.html#adf611f70ba673572f7bdbb305e8adfca" target="_top" xlink:title=" ">
<polygon fill="white" stroke="#666666" points="147.5,-174 1.5,-174 1.5,-144 147.5,-144 147.5,-174"/>
<text text-anchor="start" x="9.5" y="-162" font-family="Helvetica,sans-Serif" font-size="10.00">DeviceInfoServicePrivate</text>
<text text-anchor="middle" x="74.5" y="-151" font-family="Helvetica,sans-Serif" font-size="10.00">::DeviceInfoServicePrivate</text>
</a>
</g>
</g>
<!-- Node2&#45;&gt;Node5 -->
<g id="edge4_Node000002_Node000005" class="edge">
<title>Node2&#45;&gt;Node5</title>
<g id="a_edge4_Node000002_Node000005"><a xlink:title=" ">
<path fill="none" stroke="#63b8ff" d="M176.69,-146.05C166.94,-147.3 157.08,-148.56 147.54,-149.78"/>
<polygon fill="#63b8ff" stroke="#63b8ff" points="184.84,-145 177.36,-149.59 180.87,-145.51 176.91,-146.02 176.91,-146.02 176.91,-146.02 180.87,-145.51 176.45,-142.45 184.84,-145 184.84,-145"/>
</a>
</g>
</g>
<!-- Node6 -->
<g id="Node000006" class="node">
<title>Node6</title>
<g id="a_Node000006"><a xlink:href="classDsoServicePrivate.html#ae3bcba184e5e1775e1fc8e0408ffc6cb" target="_top" xlink:title=" ">
<polygon fill="white" stroke="#666666" points="130.5,-126 18.5,-126 18.5,-96 130.5,-96 130.5,-126"/>
<text text-anchor="start" x="26.5" y="-114" font-family="Helvetica,sans-Serif" font-size="10.00">DsoServicePrivate::</text>
<text text-anchor="middle" x="74.5" y="-103" font-family="Helvetica,sans-Serif" font-size="10.00">DsoServicePrivate</text>
</a>
</g>
</g>
<!-- Node2&#45;&gt;Node6 -->
<g id="edge5_Node000002_Node000006" class="edge">
<title>Node2&#45;&gt;Node6</title>
<g id="a_edge5_Node000002_Node000006"><a xlink:title=" ">
<path fill="none" stroke="#63b8ff" d="M176.7,-123.95C161.06,-121.95 145.14,-119.91 130.7,-118.07"/>
<polygon fill="#63b8ff" stroke="#63b8ff" points="184.84,-125 176.45,-127.55 180.87,-124.49 176.91,-123.98 176.91,-123.98 176.91,-123.98 180.87,-124.49 177.36,-120.41 184.84,-125 184.84,-125"/>
</a>
</g>
</g>
<!-- Node7 -->
<g id="Node000007" class="node">
<title>Node7</title>
<g id="a_Node000007"><a xlink:href="classMultimeterServicePrivate.html#a59762f5dbe8b4a33c16d155a1da57f54" target="_top" xlink:title=" ">
<polygon fill="white" stroke="#666666" points="148,-78 1,-78 1,-48 148,-48 148,-78"/>
<text text-anchor="start" x="9" y="-66" font-family="Helvetica,sans-Serif" font-size="10.00">MultimeterServicePrivate</text>
<text text-anchor="middle" x="74.5" y="-55" font-family="Helvetica,sans-Serif" font-size="10.00">::MultimeterServicePrivate</text>
</a>
</g>
</g>
<!-- Node2&#45;&gt;Node7 -->
<g id="edge6_Node000002_Node000007" class="edge">
<title>Node2&#45;&gt;Node7</title>
<g id="a_edge6_Node000002_Node000007"><a xlink:title=" ">
<path fill="none" stroke="#63b8ff" d="M221.99,-116.76C200.44,-107.42 173.48,-96.13 149,-87 140.83,-83.95 132.06,-80.9 123.54,-78.05"/>
<polygon fill="#63b8ff" stroke="#63b8ff" points="229.37,-119.98 220.6,-120.08 225.71,-118.38 222.04,-116.78 222.04,-116.78 222.04,-116.78 225.71,-118.38 223.48,-113.48 229.37,-119.98 229.37,-119.98"/>
</a>
</g>
</g>
<!-- Node8 -->
<g id="Node000008" class="node">
<title>Node8</title>
<g id="a_Node000008"><a xlink:href="classStatusServicePrivate.html#a15eb3d0b2529f9c9d4ba506b7492b5d5" target="_top" xlink:title=" ">
<polygon fill="white" stroke="#666666" points="136.5,-30 12.5,-30 12.5,0 136.5,0 136.5,-30"/>
<text text-anchor="start" x="20.5" y="-18" font-family="Helvetica,sans-Serif" font-size="10.00">StatusServicePrivate</text>
<text text-anchor="middle" x="74.5" y="-7" font-family="Helvetica,sans-Serif" font-size="10.00">::StatusServicePrivate</text>
</a>
</g>
</g>
<!-- Node2&#45;&gt;Node8 -->
<g id="edge7_Node000002_Node000008" class="edge">
<title>Node2&#45;&gt;Node8</title>
<g id="a_edge7_Node000002_Node000008"><a xlink:title=" ">
<path fill="none" stroke="#63b8ff" d="M243.27,-114.2C221.86,-92.7 185.79,-59.47 149,-39 143.02,-35.67 136.5,-32.72 129.9,-30.12"/>
<polygon fill="#63b8ff" stroke="#63b8ff" points="248.91,-119.93 240.73,-116.75 246.1,-117.08 243.3,-114.23 243.3,-114.23 243.3,-114.23 246.1,-117.08 245.87,-111.7 248.91,-119.93 248.91,-119.93"/>
</a>
</g>
</g>
</g>
</svg>
