<?xml version="1.0" encoding="UTF-8" standalone="no"?>
<!DOCTYPE svg PUBLIC "-//W3C//DTD SVG 1.1//EN"
 "http://www.w3.org/Graphics/SVG/1.1/DTD/svg11.dtd">
<!-- Generated by graphviz version 2.43.0 (0)
 -->
<!-- Title: AbstractPokitServicePrivate::characteristicWritten Pages: 1 -->
<svg width="915pt" height="398pt"
 viewBox="0.00 0.00 915.00 398.00" xmlns="http://www.w3.org/2000/svg" xmlns:xlink="http://www.w3.org/1999/xlink">
<g id="graph0" class="graph" transform="scale(1 1) rotate(0) translate(4 394)">
<title>AbstractPokitServicePrivate::characteristicWritten</title>
<!-- Node1 -->
<g id="Node000001" class="node">
<title>Node1</title>
<g id="a_Node000001"><a xlink:title="Handles QLowEnergyService::characteristicWritten events.">
<polygon fill="#999999" stroke="#666666" points="907,-270 755,-270 755,-240 907,-240 907,-270"/>
<text text-anchor="start" x="763" y="-258" font-family="Helvetica,sans-Serif" font-size="10.00">AbstractPokitServicePrivate</text>
<text text-anchor="middle" x="831" y="-247" font-family="Helvetica,sans-Serif" font-size="10.00">::characteristicWritten</text>
</a>
</g>
</g>
<!-- Node2 -->
<g id="Node000002" class="node">
<title>Node2</title>
<g id="a_Node000002"><a xlink:href="classCalibrationServicePrivate.html#a1319763f3101ba47ad5e3dedacb630ac" target="_top" xlink:title="Implements AbstractPokitServicePrivate::characteristicWritten to parse newValue, then emit a speciali...">
<polygon fill="white" stroke="#666666" points="713,-390 573,-390 573,-360 713,-360 713,-390"/>
<text text-anchor="start" x="581" y="-378" font-family="Helvetica,sans-Serif" font-size="10.00">CalibrationServicePrivate</text>
<text text-anchor="middle" x="643" y="-367" font-family="Helvetica,sans-Serif" font-size="10.00">::characteristicWritten</text>
</a>
</g>
</g>
<!-- Node1&#45;&gt;Node2 -->
<g id="edge1_Node000001_Node000002" class="edge">
<title>Node1&#45;&gt;Node2</title>
<g id="a_edge1_Node000001_Node000002"><a xlink:title=" ">
<path fill="none" stroke="#63b8ff" d="M810.66,-276.15C789.89,-297.72 755,-330.8 719,-351 713.04,-354.35 706.55,-357.3 699.95,-359.89"/>
<polygon fill="#63b8ff" stroke="#63b8ff" points="816.38,-270.12 813.48,-278.4 813.63,-273.02 810.87,-275.92 810.87,-275.92 810.87,-275.92 813.63,-273.02 808.26,-273.45 816.38,-270.12 816.38,-270.12"/>
</a>
</g>
</g>
<!-- Node3 -->
<g id="Node000003" class="node">
<title>Node3</title>
<g id="a_Node000003"><a xlink:href="classDataLoggerServicePrivate.html#a6988cc8bf165d4bf1fcdacf7124ea6f9" target="_top" xlink:title="Implements AbstractPokitServicePrivate::characteristicWritten to parse newValue, then emit a speciali...">
<polygon fill="white" stroke="#666666" points="714.5,-342 571.5,-342 571.5,-312 714.5,-312 714.5,-342"/>
<text text-anchor="start" x="579.5" y="-330" font-family="Helvetica,sans-Serif" font-size="10.00">DataLoggerServicePrivate</text>
<text text-anchor="middle" x="643" y="-319" font-family="Helvetica,sans-Serif" font-size="10.00">::characteristicWritten</text>
</a>
</g>
</g>
<!-- Node1&#45;&gt;Node3 -->
<g id="edge2_Node000001_Node000003" class="edge">
<title>Node1&#45;&gt;Node3</title>
<g id="a_edge2_Node000001_Node000003"><a xlink:title=" ">
<path fill="none" stroke="#63b8ff" d="M789.86,-273.49C768.94,-282.84 742.81,-294.07 719,-303 710.81,-306.07 702.02,-309.11 693.46,-311.94"/>
<polygon fill="#63b8ff" stroke="#63b8ff" points="797.32,-270.14 791.5,-276.7 793.67,-271.78 790.02,-273.42 790.02,-273.42 790.02,-273.42 793.67,-271.78 788.55,-270.14 797.32,-270.14 797.32,-270.14"/>
</a>
</g>
</g>
<!-- Node4 -->
<g id="Node000004" class="node">
<title>Node4</title>
<g id="a_Node000004"><a xlink:href="classDsoServicePrivate.html#acd230f4773256fa6cea38cb43ed65df1" target="_top" xlink:title="Implements AbstractPokitServicePrivate::characteristicWritten to parse newValue, then emit a speciali...">
<polygon fill="white" stroke="#666666" points="702.5,-294 583.5,-294 583.5,-264 702.5,-264 702.5,-294"/>
<text text-anchor="start" x="591.5" y="-282" font-family="Helvetica,sans-Serif" font-size="10.00">DsoServicePrivate::</text>
<text text-anchor="middle" x="643" y="-271" font-family="Helvetica,sans-Serif" font-size="10.00">characteristicWritten</text>
</a>
</g>
</g>
<!-- Node1&#45;&gt;Node4 -->
<g id="edge3_Node000001_Node000004" class="edge">
<title>Node1&#45;&gt;Node4</title>
<g id="a_edge3_Node000001_Node000004"><a xlink:title=" ">
<path fill="none" stroke="#63b8ff" d="M746.65,-265.75C731.76,-267.68 716.53,-269.64 702.52,-271.45"/>
<polygon fill="#63b8ff" stroke="#63b8ff" points="754.88,-264.69 747.41,-269.29 750.92,-265.2 746.95,-265.72 746.95,-265.72 746.95,-265.72 750.92,-265.2 746.49,-262.15 754.88,-264.69 754.88,-264.69"/>
</a>
</g>
</g>
<!-- Node5 -->
<g id="Node000005" class="node">
<title>Node5</title>
<g id="a_Node000005"><a xlink:href="classMultimeterServicePrivate.html#abe299f554929b4b345d5dd527fd7bcea" target="_top" xlink:title="Implements AbstractPokitServicePrivate::characteristicWritten to parse newValue, then emit a speciali...">
<polygon fill="white" stroke="#666666" points="713.5,-246 572.5,-246 572.5,-216 713.5,-216 713.5,-246"/>
<text text-anchor="start" x="580.5" y="-234" font-family="Helvetica,sans-Serif" font-size="10.00">MultimeterServicePrivate</text>
<text text-anchor="middle" x="643" y="-223" font-family="Helvetica,sans-Serif" font-size="10.00">::characteristicWritten</text>
</a>
</g>
</g>
<!-- Node1&#45;&gt;Node5 -->
<g id="edge4_Node000001_Node000005" class="edge">
<title>Node1&#45;&gt;Node5</title>
<g id="a_edge4_Node000001_Node000005"><a xlink:title=" ">
<path fill="none" stroke="#63b8ff" d="M746.86,-244.27C735.77,-242.84 724.5,-241.39 713.68,-239.99"/>
<polygon fill="#63b8ff" stroke="#63b8ff" points="754.88,-245.31 746.49,-247.85 750.92,-244.8 746.95,-244.28 746.95,-244.28 746.95,-244.28 750.92,-244.8 747.41,-240.71 754.88,-245.31 754.88,-245.31"/>
</a>
</g>
</g>
<!-- Node6 -->
<g id="Node000006" class="node">
<title>Node6</title>
<g id="a_Node000006"><a xlink:href="classStatusServicePrivate.html#a8de57b8b27437360d75bd44f74595db1" target="_top" xlink:title="Implements AbstractPokitServicePrivate::characteristicWritten to parse newValue, then emit a speciali...">
<polygon fill="white" stroke="#666666" points="705.5,-198 580.5,-198 580.5,-168 705.5,-168 705.5,-198"/>
<text text-anchor="start" x="588.5" y="-186" font-family="Helvetica,sans-Serif" font-size="10.00">StatusServicePrivate</text>
<text text-anchor="middle" x="643" y="-175" font-family="Helvetica,sans-Serif" font-size="10.00">::characteristicWritten</text>
</a>
</g>
</g>
<!-- Node1&#45;&gt;Node6 -->
<g id="edge5_Node000001_Node000006" class="edge">
<title>Node1&#45;&gt;Node6</title>
<g id="a_edge5_Node000001_Node000006"><a xlink:title=" ">
<path fill="none" stroke="#63b8ff" d="M789.86,-236.51C768.94,-227.16 742.81,-215.93 719,-207 710.81,-203.93 702.02,-200.89 693.46,-198.06"/>
<polygon fill="#63b8ff" stroke="#63b8ff" points="797.32,-239.86 788.55,-239.86 793.67,-238.22 790.02,-236.58 790.02,-236.58 790.02,-236.58 793.67,-238.22 791.5,-233.3 797.32,-239.86 797.32,-239.86"/>
</a>
</g>
</g>
<!-- Node7 -->
<g id="Node000007" class="node">
<title>Node7</title>
<g id="a_Node000007"><a xlink:href="classAbstractPokitServicePrivate.html#a2b105802085225fe68254dfdb6754ad9" target="_top" xlink:title="Creates an internal service object from the internal controller.">
<polygon fill="white" stroke="#666666" points="719,-150 567,-150 567,-120 719,-120 719,-150"/>
<text text-anchor="start" x="575" y="-138" font-family="Helvetica,sans-Serif" font-size="10.00">AbstractPokitServicePrivate</text>
<text text-anchor="middle" x="643" y="-127" font-family="Helvetica,sans-Serif" font-size="10.00">::createServiceObject</text>
</a>
</g>
</g>
<!-- Node1&#45;&gt;Node7 -->
<g id="edge6_Node000001_Node000007" class="edge">
<title>Node1&#45;&gt;Node7</title>
<g id="a_edge6_Node000001_Node000007"><a xlink:title=" ">
<path fill="none" stroke="#63b8ff" d="M810.66,-233.85C789.89,-212.28 755,-179.2 719,-159 713.04,-155.65 706.55,-152.7 699.95,-150.11"/>
<polygon fill="#63b8ff" stroke="#63b8ff" points="816.38,-239.88 808.26,-236.55 813.63,-236.98 810.87,-234.08 810.87,-234.08 810.87,-234.08 813.63,-236.98 813.48,-231.6 816.38,-239.88 816.38,-239.88"/>
</a>
</g>
</g>
<!-- Node8 -->
<g id="Node000008" class="node">
<title>Node8</title>
<g id="a_Node000008"><a xlink:href="classAbstractPokitServicePrivate.html#a73d4b6cd1a53f997f78d1c266a1c1871" target="_top" xlink:title=" ">
<polygon fill="white" stroke="#666666" points="343,-150 185,-150 185,-120 343,-120 343,-150"/>
<text text-anchor="start" x="193" y="-138" font-family="Helvetica,sans-Serif" font-size="10.00">AbstractPokitServicePrivate</text>
<text text-anchor="middle" x="264" y="-127" font-family="Helvetica,sans-Serif" font-size="10.00">::AbstractPokitServicePrivate</text>
</a>
</g>
</g>
<!-- Node7&#45;&gt;Node8 -->
<g id="edge7_Node000007_Node000008" class="edge">
<title>Node7&#45;&gt;Node8</title>
<g id="a_edge7_Node000007_Node000008"><a xlink:title=" ">
<path fill="none" stroke="#63b8ff" d="M575.61,-151.76C561.01,-154.77 545.56,-157.44 531,-159 463.83,-166.18 446.19,-166 379,-159 361.3,-157.16 342.29,-153.74 324.98,-150.06"/>
<polygon fill="#63b8ff" stroke="#63b8ff" points="583.62,-150.06 576.54,-155.24 579.71,-150.89 575.8,-151.72 575.8,-151.72 575.8,-151.72 579.71,-150.89 575.05,-148.2 583.62,-150.06 583.62,-150.06"/>
</a>
</g>
</g>
<!-- Node15 -->
<g id="Node000015" class="node">
<title>Node15</title>
<g id="a_Node000015"><a xlink:href="classAbstractPokitServicePrivate.html#a2cc16a897908f50e0f3cfc6b876b50ab" target="_top" xlink:title="Handles QLowEnergyController::discoveryFinished events.">
<polygon fill="white" stroke="#666666" points="531,-150 379,-150 379,-120 531,-120 531,-150"/>
<text text-anchor="start" x="387" y="-138" font-family="Helvetica,sans-Serif" font-size="10.00">AbstractPokitServicePrivate</text>
<text text-anchor="middle" x="455" y="-127" font-family="Helvetica,sans-Serif" font-size="10.00">::discoveryFinished</text>
</a>
</g>
</g>
<!-- Node7&#45;&gt;Node15 -->
<g id="edge14_Node000007_Node000015" class="edge">
<title>Node7&#45;&gt;Node15</title>
<g id="a_edge14_Node000007_Node000015"><a xlink:title=" ">
<path fill="none" stroke="#63b8ff" d="M558.81,-135C549.58,-135 540.22,-135 531.1,-135"/>
<polygon fill="#63b8ff" stroke="#63b8ff" points="566.88,-135 558.88,-138.6 562.88,-135 558.88,-135 558.88,-135 558.88,-135 562.88,-135 558.88,-131.4 566.88,-135 566.88,-135"/>
</a>
</g>
</g>
<!-- Node16 -->
<g id="Node000016" class="node">
<title>Node16</title>
<g id="a_Node000016"><a xlink:href="classAbstractPokitServicePrivate.html#a654255854b4aca7718ef30e10260d89b" target="_top" xlink:title="Handles QLowEnergyController::serviceDiscovered events.">
<polygon fill="white" stroke="#666666" points="531,-102 379,-102 379,-72 531,-72 531,-102"/>
<text text-anchor="start" x="387" y="-90" font-family="Helvetica,sans-Serif" font-size="10.00">AbstractPokitServicePrivate</text>
<text text-anchor="middle" x="455" y="-79" font-family="Helvetica,sans-Serif" font-size="10.00">::serviceDiscovered</text>
</a>
</g>
</g>
<!-- Node7&#45;&gt;Node16 -->
<g id="edge16_Node000007_Node000016" class="edge">
<title>Node7&#45;&gt;Node16</title>
<g id="a_edge16_Node000007_Node000016"><a xlink:title=" ">
<path fill="none" stroke="#63b8ff" d="M575.75,-117.9C555.63,-112.71 533.68,-107.05 514.13,-102"/>
<polygon fill="#63b8ff" stroke="#63b8ff" points="583.66,-119.94 575.01,-121.43 579.79,-118.94 575.91,-117.95 575.91,-117.95 575.91,-117.95 579.79,-118.94 576.81,-114.46 583.66,-119.94 583.66,-119.94"/>
</a>
</g>
</g>
<!-- Node9 -->
<g id="Node000009" class="node">
<title>Node9</title>
<g id="a_Node000009"><a xlink:href="classCalibrationServicePrivate.html#a03a98ab0155e7b4ae8a2776a2ec251a3" target="_top" xlink:title=" ">
<polygon fill="white" stroke="#666666" points="147.5,-270 1.5,-270 1.5,-240 147.5,-240 147.5,-270"/>
<text text-anchor="start" x="9.5" y="-258" font-family="Helvetica,sans-Serif" font-size="10.00">CalibrationServicePrivate</text>
<text text-anchor="middle" x="74.5" y="-247" font-family="Helvetica,sans-Serif" font-size="10.00">::CalibrationServicePrivate</text>
</a>
</g>
</g>
<!-- Node8&#45;&gt;Node9 -->
<g id="edge8_Node000008_Node000009" class="edge">
<title>Node8&#45;&gt;Node9</title>
<g id="a_edge8_Node000008_Node000009"><a xlink:title=" ">
<path fill="none" stroke="#63b8ff" d="M243.27,-155.8C221.86,-177.3 185.79,-210.53 149,-231 143.02,-234.33 136.5,-237.28 129.9,-239.88"/>
<polygon fill="#63b8ff" stroke="#63b8ff" points="248.91,-150.07 245.87,-158.3 246.1,-152.92 243.3,-155.77 243.3,-155.77 243.3,-155.77 246.1,-152.92 240.73,-153.25 248.91,-150.07 248.91,-150.07"/>
</a>
</g>
</g>
<!-- Node10 -->
<g id="Node000010" class="node">
<title>Node10</title>
<g id="a_Node000010"><a xlink:href="classDataLoggerServicePrivate.html#afdabd152b55f000163e30a19f06e7f7f" target="_top" xlink:title=" ">
<polygon fill="white" stroke="#666666" points="149,-222 0,-222 0,-192 149,-192 149,-222"/>
<text text-anchor="start" x="8" y="-210" font-family="Helvetica,sans-Serif" font-size="10.00">DataLoggerServicePrivate</text>
<text text-anchor="middle" x="74.5" y="-199" font-family="Helvetica,sans-Serif" font-size="10.00">::DataLoggerServicePrivate</text>
</a>
</g>
</g>
<!-- Node8&#45;&gt;Node10 -->
<g id="edge9_Node000008_Node000010" class="edge">
<title>Node8&#45;&gt;Node10</title>
<g id="a_edge9_Node000008_Node000010"><a xlink:title=" ">
<path fill="none" stroke="#63b8ff" d="M221.99,-153.24C200.44,-162.58 173.48,-173.87 149,-183 140.83,-186.05 132.06,-189.1 123.54,-191.95"/>
<polygon fill="#63b8ff" stroke="#63b8ff" points="229.37,-150.02 223.48,-156.52 225.71,-151.62 222.04,-153.22 222.04,-153.22 222.04,-153.22 225.71,-151.62 220.6,-149.92 229.37,-150.02 229.37,-150.02"/>
</a>
</g>
</g>
<!-- Node11 -->
<g id="Node000011" class="node">
<title>Node11</title>
<g id="a_Node000011"><a xlink:href="classDeviceInfoServicePrivate.html#adf611f70ba673572f7bdbb305e8adfca" target="_top" xlink:title=" ">
<polygon fill="white" stroke="#666666" points="147.5,-174 1.5,-174 1.5,-144 147.5,-144 147.5,-174"/>
<text text-anchor="start" x="9.5" y="-162" font-family="Helvetica,sans-Serif" font-size="10.00">DeviceInfoServicePrivate</text>
<text text-anchor="middle" x="74.5" y="-151" font-family="Helvetica,sans-Serif" font-size="10.00">::DeviceInfoServicePrivate</text>
</a>
</g>
</g>
<!-- Node8&#45;&gt;Node11 -->
<g id="edge10_Node000008_Node000011" class="edge">
<title>Node8&#45;&gt;Node11</title>
<g id="a_edge10_Node000008_Node000011"><a xlink:title=" ">
<path fill="none" stroke="#63b8ff" d="M176.69,-146.05C166.94,-147.3 157.08,-148.56 147.54,-149.78"/>
<polygon fill="#63b8ff" stroke="#63b8ff" points="184.84,-145 177.36,-149.59 180.87,-145.51 176.91,-146.02 176.91,-146.02 176.91,-146.02 180.87,-145.51 176.45,-142.45 184.84,-145 184.84,-145"/>
</a>
</g>
</g>
<!-- Node12 -->
<g id="Node000012" class="node">
<title>Node12</title>
<g id="a_Node000012"><a xlink:href="classDsoServicePrivate.html#ae3bcba184e5e1775e1fc8e0408ffc6cb" target="_top" xlink:title=" ">
<polygon fill="white" stroke="#666666" points="130.5,-126 18.5,-126 18.5,-96 130.5,-96 130.5,-126"/>
<text text-anchor="start" x="26.5" y="-114" font-family="Helvetica,sans-Serif" font-size="10.00">DsoServicePrivate::</text>
<text text-anchor="middle" x="74.5" y="-103" font-family="Helvetica,sans-Serif" font-size="10.00">DsoServicePrivate</text>
</a>
</g>
</g>
<!-- Node8&#45;&gt;Node12 -->
<g id="edge11_Node000008_Node000012" class="edge">
<title>Node8&#45;&gt;Node12</title>
<g id="a_edge11_Node000008_Node000012"><a xlink:title=" ">
<path fill="none" stroke="#63b8ff" d="M176.7,-123.95C161.06,-121.95 145.14,-119.91 130.7,-118.07"/>
<polygon fill="#63b8ff" stroke="#63b8ff" points="184.84,-125 176.45,-127.55 180.87,-124.49 176.91,-123.98 176.91,-123.98 176.91,-123.98 180.87,-124.49 177.36,-120.41 184.84,-125 184.84,-125"/>
</a>
</g>
</g>
<!-- Node13 -->
<g id="Node000013" class="node">
<title>Node13</title>
<g id="a_Node000013"><a xlink:href="classMultimeterServicePrivate.html#a59762f5dbe8b4a33c16d155a1da57f54" target="_top" xlink:title=" ">
<polygon fill="white" stroke="#666666" points="148,-78 1,-78 1,-48 148,-48 148,-78"/>
<text text-anchor="start" x="9" y="-66" font-family="Helvetica,sans-Serif" font-size="10.00">MultimeterServicePrivate</text>
<text text-anchor="middle" x="74.5" y="-55" font-family="Helvetica,sans-Serif" font-size="10.00">::MultimeterServicePrivate</text>
</a>
</g>
</g>
<!-- Node8&#45;&gt;Node13 -->
<g id="edge12_Node000008_Node000013" class="edge">
<title>Node8&#45;&gt;Node13</title>
<g id="a_edge12_Node000008_Node000013"><a xlink:title=" ">
<path fill="none" stroke="#63b8ff" d="M199.17,-117.05C194.31,-115.17 189.54,-113.15 185,-111 167.63,-102.75 166.3,-95.4 149,-87 142.24,-83.72 134.92,-80.72 127.6,-78.05"/>
<polygon fill="#63b8ff" stroke="#63b8ff" points="206.86,-119.88 198.11,-120.49 203.1,-118.5 199.35,-117.11 199.35,-117.11 199.35,-117.11 203.1,-118.5 200.6,-113.74 206.86,-119.88 206.86,-119.88"/>
</a>
</g>
</g>
<!-- Node14 -->
<g id="Node000014" class="node">
<title>Node14</title>
<g id="a_Node000014"><a xlink:href="classStatusServicePrivate.html#a15eb3d0b2529f9c9d4ba506b7492b5d5" target="_top" xlink:title=" ">
<polygon fill="white" stroke="#666666" points="136.5,-30 12.5,-30 12.5,0 136.5,0 136.5,-30"/>
<text text-anchor="start" x="20.5" y="-18" font-family="Helvetica,sans-Serif" font-size="10.00">StatusServicePrivate</text>
<text text-anchor="middle" x="74.5" y="-7" font-family="Helvetica,sans-Serif" font-size="10.00">::StatusServicePrivate</text>
</a>
</g>
</g>
<!-- Node8&#45;&gt;Node14 -->
<g id="edge13_Node000008_Node000014" class="edge">
<title>Node8&#45;&gt;Node14</title>
<g id="a_edge13_Node000008_Node000014"><a xlink:title=" ">
<path fill="none" stroke="#63b8ff" d="M190.91,-115.46C188.85,-114.07 186.87,-112.59 185,-111 157.7,-87.87 176.1,-62.36 149,-39 145.03,-35.58 140.57,-32.65 135.85,-30.13"/>
<polygon fill="#63b8ff" stroke="#63b8ff" points="198.2,-119.8 189.48,-118.8 194.76,-117.75 191.33,-115.7 191.33,-115.7 191.33,-115.7 194.76,-117.75 193.17,-112.61 198.2,-119.8 198.2,-119.8"/>
</a>
</g>
</g>
<!-- Node15&#45;&gt;Node8 -->
<g id="edge15_Node000015_Node000008" class="edge">
<title>Node15&#45;&gt;Node8</title>
<g id="a_edge15_Node000015_Node000008"><a xlink:title=" ">
<path fill="none" stroke="#63b8ff" d="M370.73,-135C361.54,-135 352.2,-135 343.08,-135"/>
<polygon fill="#63b8ff" stroke="#63b8ff" points="378.76,-135 370.76,-138.6 374.76,-135 370.76,-135 370.76,-135 370.76,-135 374.76,-135 370.76,-131.4 378.76,-135 378.76,-135"/>
</a>
</g>
</g>
<!-- Node16&#45;&gt;Node8 -->
<g id="edge17_Node000016_Node000008" class="edge">
<title>Node16&#45;&gt;Node8</title>
<g id="a_edge17_Node000016_Node000008"><a xlink:title=" ">
<path fill="none" stroke="#63b8ff" d="M386.95,-104.03C366.43,-109.24 344.02,-114.93 324.07,-120"/>
<polygon fill="#63b8ff" stroke="#63b8ff" points="394.72,-102.06 387.85,-107.51 390.84,-103.04 386.96,-104.03 386.96,-104.03 386.96,-104.03 390.84,-103.04 386.08,-100.54 394.72,-102.06 394.72,-102.06"/>
</a>
</g>
</g>
<!-- Node17 -->
<g id="Node000017" class="node">
<title>Node17</title>
<g id="a_Node000017"><a xlink:href="classStatusServicePrivate.html#a416f4b2a7e342c39fd667bcf324b4ea4" target="_top" xlink:title="Handles QLowEnergyController::serviceDiscovered events.">
<polygon fill="white" stroke="#666666" points="323,-102 205,-102 205,-72 323,-72 323,-102"/>
<text text-anchor="start" x="213" y="-90" font-family="Helvetica,sans-Serif" font-size="10.00">StatusServicePrivate</text>
<text text-anchor="middle" x="264" y="-79" font-family="Helvetica,sans-Serif" font-size="10.00">::serviceDiscovered</text>
</a>
</g>
</g>
<!-- Node16&#45;&gt;Node17 -->
<g id="edge18_Node000016_Node000017" class="edge">
<title>Node16&#45;&gt;Node17</title>
<g id="a_edge18_Node000016_Node000017"><a xlink:title=" ">
<path fill="none" stroke="#63b8ff" d="M370.45,-87C354.47,-87 338.06,-87 323.09,-87"/>
<polygon fill="#63b8ff" stroke="#63b8ff" points="378.76,-87 370.76,-90.6 374.76,-87 370.76,-87 370.76,-87 370.76,-87 374.76,-87 370.76,-83.4 378.76,-87 378.76,-87"/>
</a>
</g>
</g>
</g>
</svg>
