<?xml version="1.0" encoding="UTF-8" standalone="no"?>
<!DOCTYPE svg PUBLIC "-//W3C//DTD SVG 1.1//EN"
 "http://www.w3.org/Graphics/SVG/1.1/DTD/svg11.dtd">
<!-- Generated by graphviz version 2.43.0 (0)
 -->
<!-- Title: pokitproducts.h Pages: 1 -->
<svg width="385pt" height="137pt"
 viewBox="0.00 0.00 385.00 137.00" xmlns="http://www.w3.org/2000/svg" xmlns:xlink="http://www.w3.org/1999/xlink">
<g id="graph0" class="graph" transform="scale(1 1) rotate(0) translate(4 133)">
<title>pokitproducts.h</title>
<!-- Node1 -->
<g id="Node000001" class="node">
<title>Node1</title>
<g id="a_Node000001"><a xlink:title="Declares the PokitProduct enumeration, and related helper functions.">
<polygon fill="#999999" stroke="#666666" points="273.5,-129 181.5,-129 181.5,-110 273.5,-110 273.5,-129"/>
<text text-anchor="middle" x="227.5" y="-117" font-family="Helvetica,sans-Serif" font-size="10.00">pokitproducts.h</text>
</a>
</g>
</g>
<!-- Node2 -->
<g id="Node000002" class="node">
<title>Node2</title>
<g id="a_Node000002"><a xlink:href="qtpokit__global_8h.html" target="_top" xlink:title="Global QtPokit library macros.">
<polygon fill="white" stroke="#666666" points="95,-74 0,-74 0,-55 95,-55 95,-74"/>
<text text-anchor="middle" x="47.5" y="-62" font-family="Helvetica,sans-Serif" font-size="10.00">qtpokit_global.h</text>
</a>
</g>
</g>
<!-- Node1&#45;&gt;Node2 -->
<g id="edge1_Node000001_Node000002" class="edge">
<title>Node1&#45;&gt;Node2</title>
<g id="a_edge1_Node000001_Node000002"><a xlink:title=" ">
<path fill="none" stroke="#63b8ff" d="M198.58,-109.98C167.57,-100.86 118.26,-86.33 84.46,-76.38"/>
<polygon fill="#63b8ff" stroke="#63b8ff" points="76.65,-74.08 85.34,-72.89 80.48,-75.21 84.32,-76.34 84.32,-76.34 84.32,-76.34 80.48,-75.21 83.3,-79.8 76.65,-74.08 76.65,-74.08"/>
</a>
</g>
</g>
<!-- Node4 -->
<g id="Node000004" class="node">
<title>Node4</title>
<g id="a_Node000004"><a xlink:title=" ">
<polygon fill="#e0e0e0" stroke="#999999" points="237.5,-74 113.5,-74 113.5,-55 237.5,-55 237.5,-74"/>
<text text-anchor="middle" x="175.5" y="-62" font-family="Helvetica,sans-Serif" font-size="10.00">QBluetoothDeviceInfo</text>
</a>
</g>
</g>
<!-- Node1&#45;&gt;Node4 -->
<g id="edge3_Node000001_Node000004" class="edge">
<title>Node1&#45;&gt;Node4</title>
<g id="a_edge3_Node000001_Node000004"><a xlink:title=" ">
<path fill="none" stroke="#63b8ff" d="M218.91,-109.75C210.96,-101.64 198.99,-89.44 189.63,-79.9"/>
<polygon fill="#63b8ff" stroke="#63b8ff" points="183.93,-74.09 192.1,-77.28 186.73,-76.94 189.53,-79.8 189.53,-79.8 189.53,-79.8 186.73,-76.94 186.96,-82.32 183.93,-74.09 183.93,-74.09"/>
</a>
</g>
</g>
<!-- Node5 -->
<g id="Node000005" class="node">
<title>Node5</title>
<g id="a_Node000005"><a xlink:title=" ">
<polygon fill="#e0e0e0" stroke="#999999" points="305.5,-74 255.5,-74 255.5,-55 305.5,-55 305.5,-74"/>
<text text-anchor="middle" x="280.5" y="-62" font-family="Helvetica,sans-Serif" font-size="10.00">QFlags</text>
</a>
</g>
</g>
<!-- Node1&#45;&gt;Node5 -->
<g id="edge4_Node000001_Node000005" class="edge">
<title>Node1&#45;&gt;Node5</title>
<g id="a_edge4_Node000001_Node000005"><a xlink:title=" ">
<path fill="none" stroke="#63b8ff" d="M236.25,-109.75C244.36,-101.64 256.56,-89.44 266.1,-79.9"/>
<polygon fill="#63b8ff" stroke="#63b8ff" points="271.91,-74.09 268.8,-82.29 269.08,-76.92 266.25,-79.75 266.25,-79.75 266.25,-79.75 269.08,-76.92 263.71,-77.2 271.91,-74.09 271.91,-74.09"/>
</a>
</g>
</g>
<!-- Node6 -->
<g id="Node000006" class="node">
<title>Node6</title>
<g id="a_Node000006"><a xlink:title=" ">
<polygon fill="#e0e0e0" stroke="#999999" points="377,-74 324,-74 324,-55 377,-55 377,-74"/>
<text text-anchor="middle" x="350.5" y="-62" font-family="Helvetica,sans-Serif" font-size="10.00">QString</text>
</a>
</g>
</g>
<!-- Node1&#45;&gt;Node6 -->
<g id="edge5_Node000001_Node000006" class="edge">
<title>Node1&#45;&gt;Node6</title>
<g id="a_edge5_Node000001_Node000006"><a xlink:title=" ">
<path fill="none" stroke="#63b8ff" d="M247.26,-109.98C267.76,-101.15 299.98,-87.27 322.97,-77.36"/>
<polygon fill="#63b8ff" stroke="#63b8ff" points="330.38,-74.17 324.46,-80.64 326.7,-75.75 323.03,-77.34 323.03,-77.34 323.03,-77.34 326.7,-75.75 321.61,-74.03 330.38,-74.17 330.38,-74.17"/>
</a>
</g>
</g>
<!-- Node3 -->
<g id="Node000003" class="node">
<title>Node3</title>
<g id="a_Node000003"><a xlink:title=" ">
<polygon fill="#e0e0e0" stroke="#999999" points="77,-19 18,-19 18,0 77,0 77,-19"/>
<text text-anchor="middle" x="47.5" y="-7" font-family="Helvetica,sans-Serif" font-size="10.00">QtGlobal</text>
</a>
</g>
</g>
<!-- Node2&#45;&gt;Node3 -->
<g id="edge2_Node000002_Node000003" class="edge">
<title>Node2&#45;&gt;Node3</title>
<g id="a_edge2_Node000002_Node000003"><a xlink:title=" ">
<path fill="none" stroke="#63b8ff" d="M47.5,-54.75C47.5,-47.26 47.5,-36.28 47.5,-27.13"/>
<polygon fill="#63b8ff" stroke="#63b8ff" points="47.5,-19.09 51.1,-27.09 47.5,-23.09 47.5,-27.09 47.5,-27.09 47.5,-27.09 47.5,-23.09 43.9,-27.09 47.5,-19.09 47.5,-19.09"/>
</a>
</g>
</g>
</g>
</svg>
