<?xml version="1.0" encoding="UTF-8" standalone="no"?>
<!DOCTYPE svg PUBLIC "-//W3C//DTD SVG 1.1//EN"
 "http://www.w3.org/Graphics/SVG/1.1/DTD/svg11.dtd">
<!-- Generated by graphviz version 2.43.0 (0)
 -->
<!-- Title: StatusService::status Pages: 1 -->
<svg width="291pt" height="64pt"
 viewBox="0.00 0.00 291.00 64.00" xmlns="http://www.w3.org/2000/svg" xmlns:xlink="http://www.w3.org/1999/xlink">
<g id="graph0" class="graph" transform="scale(1 1) rotate(0) translate(4 60)">
<title>StatusService::status</title>
<!-- Node1 -->
<g id="Node000001" class="node">
<title>Node1</title>
<g id="a_Node000001"><a xlink:title="Returns the most recent value of the Status service&#39;s Status characteristic.">
<polygon fill="#999999" stroke="#666666" points="283,-37 164,-37 164,-18 283,-18 283,-37"/>
<text text-anchor="middle" x="223.5" y="-25" font-family="Helvetica,sans-Serif" font-size="10.00">StatusService::status</text>
</a>
</g>
</g>
<!-- Node2 -->
<g id="Node000002" class="node">
<title>Node2</title>
<g id="a_Node000002"><a xlink:href="classStatusService.html#a5b3ed7cd72ea54ba07f8927ff2cb7178" target="_top" xlink:title="Returns a string version of the status enum label.">
<polygon fill="white" stroke="#666666" points="128,-56 0,-56 0,-37 128,-37 128,-56"/>
<text text-anchor="middle" x="64" y="-44" font-family="Helvetica,sans-Serif" font-size="10.00">StatusService::toString</text>
</a>
</g>
</g>
<!-- Node1&#45;&gt;Node2 -->
<g id="edge1_Node000001_Node000002" class="edge">
<title>Node1&#45;&gt;Node2</title>
<g id="a_edge1_Node000001_Node000002"><a xlink:title=" ">
<path fill="none" stroke="#63b8ff" d="M155.86,-35.54C146.69,-36.65 137.29,-37.78 128.19,-38.88"/>
<polygon fill="#63b8ff" stroke="#63b8ff" points="163.85,-34.57 156.34,-39.11 159.88,-35.05 155.91,-35.53 155.91,-35.53 155.91,-35.53 159.88,-35.05 155.48,-31.96 163.85,-34.57 163.85,-34.57"/>
</a>
</g>
</g>
<!-- Node3 -->
<g id="Node000003" class="node">
<title>Node3</title>
<g id="a_Node000003"><a xlink:href="classStatusService.html#aac79e97cb114be25b2a6771d915f132d" target="_top" xlink:title="Returns a string version of the status enum label.">
<polygon fill="white" stroke="#666666" points="128,-19 0,-19 0,0 128,0 128,-19"/>
<text text-anchor="middle" x="64" y="-7" font-family="Helvetica,sans-Serif" font-size="10.00">StatusService::toString</text>
</a>
</g>
</g>
<!-- Node1&#45;&gt;Node3 -->
<g id="edge2_Node000001_Node000003" class="edge">
<title>Node1&#45;&gt;Node3</title>
<g id="a_edge2_Node000001_Node000003"><a xlink:title=" ">
<path fill="none" stroke="#63b8ff" d="M155.86,-19.88C146.69,-18.84 137.29,-17.76 128.19,-16.72"/>
<polygon fill="#63b8ff" stroke="#63b8ff" points="163.85,-20.8 155.5,-23.47 159.88,-20.34 155.9,-19.89 155.9,-19.89 155.9,-19.89 159.88,-20.34 156.31,-16.31 163.85,-20.8 163.85,-20.8"/>
</a>
</g>
</g>
</g>
</svg>
