<?xml version="1.0" encoding="UTF-8" standalone="no"?>
<!DOCTYPE svg PUBLIC "-//W3C//DTD SVG 1.1//EN"
 "http://www.w3.org/Graphics/SVG/1.1/DTD/svg11.dtd">
<!-- Generated by graphviz version 2.43.0 (0)
 -->
<!-- Title: Graphical Class Hierarchy Pages: 1 -->
<svg width="595pt" height="739pt"
 viewBox="0.00 0.00 595.00 738.50" xmlns="http://www.w3.org/2000/svg" xmlns:xlink="http://www.w3.org/1999/xlink">
<g id="graph0" class="graph" transform="scale(1 1) rotate(0) translate(4 734.5)">
<title>Graphical Class Hierarchy</title>
<!-- Node0 -->
<g id="Node000000" class="node">
<title>Node0</title>
<g id="a_Node000000"><a target="_parent" xlink:href="https://doc.qt.io/qt-5/qobject.html" xlink:title=" ">
<polygon fill="white" stroke="#666666" points="56,-141.5 0,-141.5 0,-122.5 56,-122.5 56,-141.5"/>
<text text-anchor="middle" x="28" y="-129.5" font-family="Helvetica,sans-Serif" font-size="10.00">QObject</text>
</a>
</g>
</g>
<!-- Node1 -->
<g id="Node000001" class="node">
<title>Node1</title>
<g id="a_Node000001"><a xlink:href="classAbstractCommand.html" target="_top" xlink:title="The AbstractCommand class provides a consistent base for the classes that implement CLI commands.">
<polygon fill="white" stroke="#666666" points="222.5,-508.5 115.5,-508.5 115.5,-489.5 222.5,-489.5 222.5,-508.5"/>
<text text-anchor="middle" x="169" y="-496.5" font-family="Helvetica,sans-Serif" font-size="10.00">AbstractCommand</text>
</a>
</g>
</g>
<!-- Node0&#45;&gt;Node1 -->
<g id="edge1_Node000000_Node000001" class="edge">
<title>Node0&#45;&gt;Node1</title>
<g id="a_edge1_Node000000_Node000001"><a xlink:title=" ">
<path fill="none" stroke="#63b8ff" d="M32.01,-149.93C39.16,-190.34 59.08,-291.16 92,-370 111.83,-417.49 146.45,-468.69 161.12,-489.45"/>
<polygon fill="#63b8ff" stroke="#63b8ff" points="30.61,-141.83 35.52,-149.1 31.29,-145.77 31.97,-149.72 31.97,-149.72 31.97,-149.72 31.29,-145.77 28.42,-150.33 30.61,-141.83 30.61,-141.83"/>
</a>
</g>
</g>
<!-- Node15 -->
<g id="Node000015" class="node">
<title>Node15</title>
<g id="a_Node000015"><a xlink:href="classAbstractPokitService.html" target="_top" xlink:title="The AbstractPokitService class provides a common base for Pokit services classes.">
<polygon fill="white" stroke="#666666" points="228,-360.5 110,-360.5 110,-341.5 228,-341.5 228,-360.5"/>
<text text-anchor="middle" x="169" y="-348.5" font-family="Helvetica,sans-Serif" font-size="10.00">AbstractPokitService</text>
</a>
</g>
</g>
<!-- Node0&#45;&gt;Node15 -->
<g id="edge15_Node000000_Node000015" class="edge">
<title>Node0&#45;&gt;Node15</title>
<g id="a_edge15_Node000000_Node000015"><a xlink:title=" ">
<path fill="none" stroke="#63b8ff" d="M39.6,-148.7C67.14,-192.09 140.32,-307.39 161.92,-341.42"/>
<polygon fill="#63b8ff" stroke="#63b8ff" points="35.15,-141.69 42.48,-146.52 37.3,-145.07 39.44,-148.45 39.44,-148.45 39.44,-148.45 37.3,-145.07 36.4,-150.38 35.15,-141.69 35.15,-141.69"/>
</a>
</g>
</g>
<!-- Node22 -->
<g id="Node000022" class="node">
<title>Node22</title>
<g id="a_Node000022"><a xlink:href="classAbstractPokitServicePrivate.html" target="_top" xlink:title="The AbstractPokitServicePrivate class provides private implementation for AbstractPokitService.">
<polygon fill="white" stroke="#666666" points="245,-178.5 93,-178.5 93,-159.5 245,-159.5 245,-178.5"/>
<text text-anchor="middle" x="169" y="-166.5" font-family="Helvetica,sans-Serif" font-size="10.00">AbstractPokitServicePrivate</text>
</a>
</g>
</g>
<!-- Node0&#45;&gt;Node22 -->
<g id="edge22_Node000000_Node000022" class="edge">
<title>Node0&#45;&gt;Node22</title>
<g id="a_edge22_Node000000_Node000022"><a xlink:title=" ">
<path fill="none" stroke="#63b8ff" d="M63.96,-142.95C73.06,-145.69 82.87,-148.54 92,-151 102.87,-153.92 114.68,-156.84 125.68,-159.45"/>
<polygon fill="#63b8ff" stroke="#63b8ff" points="56.19,-140.59 64.89,-139.47 60.01,-141.75 63.84,-142.92 63.84,-142.92 63.84,-142.92 60.01,-141.75 62.79,-146.36 56.19,-140.59 56.19,-140.59"/>
</a>
</g>
</g>
<!-- Node29 -->
<g id="Node000029" class="node">
<title>Node29</title>
<g id="a_Node000029"><a xlink:href="classPokitDevice.html" target="_top" xlink:title="The PokitDevice class simplifies Pokit device access.">
<polygon fill="white" stroke="#666666" points="206.5,-141.5 131.5,-141.5 131.5,-122.5 206.5,-122.5 206.5,-141.5"/>
<text text-anchor="middle" x="169" y="-129.5" font-family="Helvetica,sans-Serif" font-size="10.00">PokitDevice</text>
</a>
</g>
</g>
<!-- Node0&#45;&gt;Node29 -->
<g id="edge29_Node000000_Node000029" class="edge">
<title>Node0&#45;&gt;Node29</title>
<g id="a_edge29_Node000000_Node000029"><a xlink:title=" ">
<path fill="none" stroke="#63b8ff" d="M64.29,-132C84.84,-132 110.71,-132 131.47,-132"/>
<polygon fill="#63b8ff" stroke="#63b8ff" points="56.13,-132 64.13,-128.4 60.13,-132 64.13,-132 64.13,-132 64.13,-132 60.13,-132 64.13,-135.6 56.13,-132 56.13,-132"/>
</a>
</g>
</g>
<!-- Node30 -->
<g id="Node000030" class="node">
<title>Node30</title>
<g id="a_Node000030"><a xlink:href="classPokitDevicePrivate.html" target="_top" xlink:title="The PokitDevicePrivate class provides private implementation for PokitDevice.">
<polygon fill="white" stroke="#666666" points="224,-104.5 114,-104.5 114,-85.5 224,-85.5 224,-104.5"/>
<text text-anchor="middle" x="169" y="-92.5" font-family="Helvetica,sans-Serif" font-size="10.00">PokitDevicePrivate</text>
</a>
</g>
</g>
<!-- Node0&#45;&gt;Node30 -->
<g id="edge30_Node000000_Node000030" class="edge">
<title>Node0&#45;&gt;Node30</title>
<g id="a_edge30_Node000000_Node000030"><a xlink:title=" ">
<path fill="none" stroke="#63b8ff" d="M64.01,-121.77C73.11,-119.18 82.91,-116.44 92,-114 103.96,-110.8 117.01,-107.47 128.88,-104.51"/>
<polygon fill="#63b8ff" stroke="#63b8ff" points="56.23,-124 62.93,-118.34 60.08,-122.9 63.92,-121.8 63.92,-121.8 63.92,-121.8 60.08,-122.9 64.92,-125.26 56.23,-124 56.23,-124"/>
</a>
</g>
</g>
<!-- Node31 -->
<g id="Node000031" class="node">
<title>Node31</title>
<g id="a_Node000031"><a xlink:href="classPokitDiscoveryAgentPrivate.html" target="_top" xlink:title="The PokitDiscoveryAgentPrivate class provides private implementation for PokitDiscoveryAgent.">
<polygon fill="white" stroke="#666666" points="245.5,-67.5 92.5,-67.5 92.5,-48.5 245.5,-48.5 245.5,-67.5"/>
<text text-anchor="middle" x="169" y="-55.5" font-family="Helvetica,sans-Serif" font-size="10.00">PokitDiscoveryAgentPrivate</text>
</a>
</g>
</g>
<!-- Node0&#45;&gt;Node31 -->
<g id="edge31_Node000000_Node000031" class="edge">
<title>Node0&#45;&gt;Node31</title>
<g id="a_edge31_Node000000_Node000031"><a xlink:title=" ">
<path fill="none" stroke="#63b8ff" d="M42.97,-116.25C54.83,-103.82 72.93,-86.96 92,-77 99.35,-73.16 107.52,-70.07 115.69,-67.59"/>
<polygon fill="#63b8ff" stroke="#63b8ff" points="37.36,-122.29 40.16,-113.97 40.08,-119.36 42.8,-116.42 42.8,-116.42 42.8,-116.42 40.08,-119.36 45.44,-118.87 37.36,-122.29 37.36,-122.29"/>
</a>
</g>
</g>
<!-- Node32 -->
<g id="Node000032" class="node">
<title>Node32</title>
<g id="a_Node000032"><a target="_parent" xlink:href="https://doc.qt.io/qt-5/qbluetoothdevicediscoveryagent.html" xlink:title=" ">
<polygon fill="white" stroke="#666666" points="246,-30 92,-30 92,0 246,0 246,-30"/>
<text text-anchor="start" x="100" y="-18" font-family="Helvetica,sans-Serif" font-size="10.00">QBluetoothDeviceDiscovery</text>
<text text-anchor="middle" x="169" y="-7" font-family="Helvetica,sans-Serif" font-size="10.00">Agent</text>
</a>
</g>
</g>
<!-- Node0&#45;&gt;Node32 -->
<g id="edge32_Node000000_Node000032" class="edge">
<title>Node0&#45;&gt;Node32</title>
<g id="a_edge32_Node000000_Node000032"><a xlink:title=" ">
<path fill="none" stroke="#63b8ff" d="M36.34,-114.74C46.08,-93.84 65.22,-58.96 92,-39 96.55,-35.61 101.59,-32.69 106.85,-30.18"/>
<polygon fill="#63b8ff" stroke="#63b8ff" points="32.96,-122.26 32.95,-113.48 34.6,-118.61 36.24,-114.96 36.24,-114.96 36.24,-114.96 34.6,-118.61 39.52,-116.44 32.96,-122.26 32.96,-122.26"/>
</a>
</g>
</g>
<!-- Node2 -->
<g id="Node000002" class="node">
<title>Node2</title>
<g id="a_Node000002"><a xlink:href="classDeviceCommand.html" target="_top" xlink:title="The AbstractCommand class extends AbstractCommand to add a PokitDevice instance.">
<polygon fill="white" stroke="#666666" points="404,-545.5 303,-545.5 303,-526.5 404,-526.5 404,-545.5"/>
<text text-anchor="middle" x="353.5" y="-533.5" font-family="Helvetica,sans-Serif" font-size="10.00">DeviceCommand</text>
</a>
</g>
</g>
<!-- Node1&#45;&gt;Node2 -->
<g id="edge2_Node000001_Node000002" class="edge">
<title>Node1&#45;&gt;Node2</title>
<g id="a_edge2_Node000001_Node000002"><a xlink:title=" ">
<path fill="none" stroke="#63b8ff" d="M225.13,-510.18C250.72,-515.37 280.83,-521.47 305.34,-526.44"/>
<polygon fill="#63b8ff" stroke="#63b8ff" points="217,-508.53 225.55,-506.59 220.92,-509.32 224.84,-510.12 224.84,-510.12 224.84,-510.12 220.92,-509.32 224.12,-513.65 217,-508.53 217,-508.53"/>
</a>
</g>
</g>
<!-- Node14 -->
<g id="Node000014" class="node">
<title>Node14</title>
<g id="a_Node000014"><a xlink:href="classScanCommand.html" target="_top" xlink:title="The ScanCommand class implements the scan CLI command, by scanning for nearby Pokit Bluetooth devices...">
<polygon fill="white" stroke="#666666" points="398.5,-508.5 308.5,-508.5 308.5,-489.5 398.5,-489.5 398.5,-508.5"/>
<text text-anchor="middle" x="353.5" y="-496.5" font-family="Helvetica,sans-Serif" font-size="10.00">ScanCommand</text>
</a>
</g>
</g>
<!-- Node1&#45;&gt;Node14 -->
<g id="edge14_Node000001_Node000014" class="edge">
<title>Node1&#45;&gt;Node14</title>
<g id="a_edge14_Node000001_Node000014"><a xlink:title=" ">
<path fill="none" stroke="#63b8ff" d="M230.89,-499C256.27,-499 285.19,-499 308.46,-499"/>
<polygon fill="#63b8ff" stroke="#63b8ff" points="222.79,-499 230.79,-495.4 226.79,-499 230.79,-499 230.79,-499 230.79,-499 226.79,-499 230.79,-502.6 222.79,-499 222.79,-499"/>
</a>
</g>
</g>
<!-- Node3 -->
<g id="Node000003" class="node">
<title>Node3</title>
<g id="a_Node000003"><a xlink:href="classCalibrateCommand.html" target="_top" xlink:title="The CalibrateCommand class implements the calibrate CLI command.">
<polygon fill="white" stroke="#666666" points="579.5,-730.5 468.5,-730.5 468.5,-711.5 579.5,-711.5 579.5,-730.5"/>
<text text-anchor="middle" x="524" y="-718.5" font-family="Helvetica,sans-Serif" font-size="10.00">CalibrateCommand</text>
</a>
</g>
</g>
<!-- Node2&#45;&gt;Node3 -->
<g id="edge3_Node000002_Node000003" class="edge">
<title>Node2&#45;&gt;Node3</title>
<g id="a_edge3_Node000002_Node000003"><a xlink:title=" ">
<path fill="none" stroke="#63b8ff" d="M360.71,-553.33C373.8,-587.32 407.46,-662.9 461,-703 465.58,-706.43 470.79,-709.2 476.2,-711.45"/>
<polygon fill="#63b8ff" stroke="#63b8ff" points="357.83,-545.63 364.01,-551.86 359.23,-549.38 360.64,-553.13 360.64,-553.13 360.64,-553.13 359.23,-549.38 357.27,-554.39 357.83,-545.63 357.83,-545.63"/>
</a>
</g>
</g>
<!-- Node4 -->
<g id="Node000004" class="node">
<title>Node4</title>
<g id="a_Node000004"><a xlink:href="classDsoCommand.html" target="_top" xlink:title="The DsoCommand class implements the dso CLI command.">
<polygon fill="white" stroke="#666666" points="567,-693.5 481,-693.5 481,-674.5 567,-674.5 567,-693.5"/>
<text text-anchor="middle" x="524" y="-681.5" font-family="Helvetica,sans-Serif" font-size="10.00">DsoCommand</text>
</a>
</g>
</g>
<!-- Node2&#45;&gt;Node4 -->
<g id="edge4_Node000002_Node000004" class="edge">
<title>Node2&#45;&gt;Node4</title>
<g id="a_edge4_Node000002_Node000004"><a xlink:title=" ">
<path fill="none" stroke="#63b8ff" d="M363.75,-552.93C379.83,-580.75 415.6,-636.03 461,-666 466.99,-669.95 473.85,-673.05 480.79,-675.48"/>
<polygon fill="#63b8ff" stroke="#63b8ff" points="359.75,-545.85 366.82,-551.04 361.72,-549.33 363.69,-552.82 363.69,-552.82 363.69,-552.82 361.72,-549.33 360.56,-554.59 359.75,-545.85 359.75,-545.85"/>
</a>
</g>
</g>
<!-- Node5 -->
<g id="Node000005" class="node">
<title>Node5</title>
<g id="a_Node000005"><a xlink:href="classFlashLedCommand.html" target="_top" xlink:title="The FlashLedCommand class implements the flash&#45;led CLI command.">
<polygon fill="white" stroke="#666666" points="579,-656.5 469,-656.5 469,-637.5 579,-637.5 579,-656.5"/>
<text text-anchor="middle" x="524" y="-644.5" font-family="Helvetica,sans-Serif" font-size="10.00">FlashLedCommand</text>
</a>
</g>
</g>
<!-- Node2&#45;&gt;Node5 -->
<g id="edge5_Node000002_Node000005" class="edge">
<title>Node2&#45;&gt;Node5</title>
<g id="a_edge5_Node000002_Node000005"><a xlink:title=" ">
<path fill="none" stroke="#63b8ff" d="M368.4,-551.83C387.36,-572.48 423.29,-608.39 461,-629 467.1,-632.33 473.88,-635.11 480.65,-637.4"/>
<polygon fill="#63b8ff" stroke="#63b8ff" points="362.86,-545.7 370.9,-549.23 365.54,-548.67 368.23,-551.64 368.23,-551.64 368.23,-551.64 365.54,-548.67 365.55,-554.05 362.86,-545.7 362.86,-545.7"/>
</a>
</g>
</g>
<!-- Node6 -->
<g id="Node000006" class="node">
<title>Node6</title>
<g id="a_Node000006"><a xlink:href="classInfoCommand.html" target="_top" xlink:title="The InfoCommand class implements the info CLI command.">
<polygon fill="white" stroke="#666666" points="567,-619.5 481,-619.5 481,-600.5 567,-600.5 567,-619.5"/>
<text text-anchor="middle" x="524" y="-607.5" font-family="Helvetica,sans-Serif" font-size="10.00">InfoCommand</text>
</a>
</g>
</g>
<!-- Node2&#45;&gt;Node6 -->
<g id="edge6_Node000002_Node000006" class="edge">
<title>Node2&#45;&gt;Node6</title>
<g id="a_edge6_Node000002_Node000006"><a xlink:title=" ">
<path fill="none" stroke="#63b8ff" d="M377.23,-549.68C398.37,-561.97 431.02,-579.91 461,-592 468.8,-595.14 477.35,-597.99 485.54,-600.44"/>
<polygon fill="#63b8ff" stroke="#63b8ff" points="370.26,-545.58 378.98,-546.53 373.71,-547.61 377.15,-549.63 377.15,-549.63 377.15,-549.63 373.71,-547.61 375.33,-552.74 370.26,-545.58 370.26,-545.58"/>
</a>
</g>
</g>
<!-- Node7 -->
<g id="Node000007" class="node">
<title>Node7</title>
<g id="a_Node000007"><a xlink:href="classLoggerFetchCommand.html" target="_top" xlink:title="The LoggerFetchCommand class implements the logger CLI command.">
<polygon fill="white" stroke="#666666" points="587,-582.5 461,-582.5 461,-563.5 587,-563.5 587,-582.5"/>
<text text-anchor="middle" x="524" y="-570.5" font-family="Helvetica,sans-Serif" font-size="10.00">LoggerFetchCommand</text>
</a>
</g>
</g>
<!-- Node2&#45;&gt;Node7 -->
<g id="edge7_Node000002_Node000007" class="edge">
<title>Node2&#45;&gt;Node7</title>
<g id="a_edge7_Node000002_Node000007"><a xlink:title=" ">
<path fill="none" stroke="#63b8ff" d="M405.71,-547.25C429.27,-552.42 456.92,-558.49 479.46,-563.44"/>
<polygon fill="#63b8ff" stroke="#63b8ff" points="397.89,-545.53 406.48,-543.73 401.8,-546.39 405.71,-547.24 405.71,-547.24 405.71,-547.24 401.8,-546.39 404.93,-550.76 397.89,-545.53 397.89,-545.53"/>
</a>
</g>
</g>
<!-- Node8 -->
<g id="Node000008" class="node">
<title>Node8</title>
<g id="a_Node000008"><a xlink:href="classLoggerStartCommand.html" target="_top" xlink:title="The LoggerStartCommand class implements the logger CLI command.">
<polygon fill="white" stroke="#666666" points="585.5,-545.5 462.5,-545.5 462.5,-526.5 585.5,-526.5 585.5,-545.5"/>
<text text-anchor="middle" x="524" y="-533.5" font-family="Helvetica,sans-Serif" font-size="10.00">LoggerStartCommand</text>
</a>
</g>
</g>
<!-- Node2&#45;&gt;Node8 -->
<g id="edge8_Node000002_Node000008" class="edge">
<title>Node2&#45;&gt;Node8</title>
<g id="a_edge8_Node000002_Node000008"><a xlink:title=" ">
<path fill="none" stroke="#63b8ff" d="M412.43,-536C428.55,-536 446.1,-536 462.38,-536"/>
<polygon fill="#63b8ff" stroke="#63b8ff" points="404.14,-536 412.14,-532.4 408.14,-536 412.14,-536 412.14,-536 412.14,-536 408.14,-536 412.14,-539.6 404.14,-536 404.14,-536"/>
</a>
</g>
</g>
<!-- Node9 -->
<g id="Node000009" class="node">
<title>Node9</title>
<g id="a_Node000009"><a xlink:href="classLoggerStopCommand.html" target="_top" xlink:title="The LoggerStopCommand class implements the logger stop CLI command.">
<polygon fill="white" stroke="#666666" points="585,-508.5 463,-508.5 463,-489.5 585,-489.5 585,-508.5"/>
<text text-anchor="middle" x="524" y="-496.5" font-family="Helvetica,sans-Serif" font-size="10.00">LoggerStopCommand</text>
</a>
</g>
</g>
<!-- Node2&#45;&gt;Node9 -->
<g id="edge9_Node000002_Node000009" class="edge">
<title>Node2&#45;&gt;Node9</title>
<g id="a_edge9_Node000002_Node000009"><a xlink:title=" ">
<path fill="none" stroke="#63b8ff" d="M405.71,-524.75C429.27,-519.58 456.92,-513.51 479.46,-508.56"/>
<polygon fill="#63b8ff" stroke="#63b8ff" points="397.89,-526.47 404.93,-521.24 401.8,-525.61 405.71,-524.76 405.71,-524.76 405.71,-524.76 401.8,-525.61 406.48,-528.27 397.89,-526.47 397.89,-526.47"/>
</a>
</g>
</g>
<!-- Node10 -->
<g id="Node000010" class="node">
<title>Node10</title>
<g id="a_Node000010"><a xlink:href="classMeterCommand.html" target="_top" xlink:title="The MeterCommand class implements the meter CLI command.">
<polygon fill="white" stroke="#666666" points="571.5,-471.5 476.5,-471.5 476.5,-452.5 571.5,-452.5 571.5,-471.5"/>
<text text-anchor="middle" x="524" y="-459.5" font-family="Helvetica,sans-Serif" font-size="10.00">MeterCommand</text>
</a>
</g>
</g>
<!-- Node2&#45;&gt;Node10 -->
<g id="edge10_Node000002_Node000010" class="edge">
<title>Node2&#45;&gt;Node10</title>
<g id="a_edge10_Node000002_Node000010"><a xlink:title=" ">
<path fill="none" stroke="#63b8ff" d="M411.84,-524.27C416.42,-522.47 420.87,-520.39 425,-518 444.86,-506.51 441.42,-492.96 461,-481 467.25,-477.19 474.32,-474.08 481.39,-471.58"/>
<polygon fill="#63b8ff" stroke="#63b8ff" points="404.03,-527.06 410.36,-520.98 407.8,-525.71 411.57,-524.37 411.57,-524.37 411.57,-524.37 407.8,-525.71 412.78,-527.76 404.03,-527.06 404.03,-527.06"/>
</a>
</g>
</g>
<!-- Node11 -->
<g id="Node000011" class="node">
<title>Node11</title>
<g id="a_Node000011"><a xlink:href="classSetNameCommand.html" target="_top" xlink:title="The SetNameCommand class implements the set&#45;name CLI command.">
<polygon fill="white" stroke="#666666" points="580,-434.5 468,-434.5 468,-415.5 580,-415.5 580,-434.5"/>
<text text-anchor="middle" x="524" y="-422.5" font-family="Helvetica,sans-Serif" font-size="10.00">SetNameCommand</text>
</a>
</g>
</g>
<!-- Node2&#45;&gt;Node11 -->
<g id="edge11_Node000002_Node000011" class="edge">
<title>Node2&#45;&gt;Node11</title>
<g id="a_edge11_Node000002_Node000011"><a xlink:title=" ">
<path fill="none" stroke="#63b8ff" d="M411.77,-526.11C416.52,-523.92 421.02,-521.25 425,-518 453.35,-494.89 433.21,-467.78 461,-444 465.53,-440.12 470.85,-437.03 476.42,-434.58"/>
<polygon fill="#63b8ff" stroke="#63b8ff" points="404.14,-529.18 410.22,-522.86 407.85,-527.69 411.56,-526.2 411.56,-526.2 411.56,-526.2 407.85,-527.69 412.91,-529.54 404.14,-529.18 404.14,-529.18"/>
</a>
</g>
</g>
<!-- Node12 -->
<g id="Node000012" class="node">
<title>Node12</title>
<g id="a_Node000012"><a xlink:href="classSetTorchCommand.html" target="_top" xlink:title="The SetTorchCommand class implements the set&#45;torch CLI command.">
<polygon fill="white" stroke="#666666" points="578,-397.5 470,-397.5 470,-378.5 578,-378.5 578,-397.5"/>
<text text-anchor="middle" x="524" y="-385.5" font-family="Helvetica,sans-Serif" font-size="10.00">SetTorchCommand</text>
</a>
</g>
</g>
<!-- Node2&#45;&gt;Node12 -->
<g id="edge12_Node000002_Node000012" class="edge">
<title>Node2&#45;&gt;Node12</title>
<g id="a_edge12_Node000002_Node000012"><a xlink:title=" ">
<path fill="none" stroke="#63b8ff" d="M411.47,-527.07C416.42,-524.69 421.04,-521.72 425,-518 462.82,-482.51 424.03,-443.37 461,-407 464.93,-403.13 469.63,-400.05 474.66,-397.59"/>
<polygon fill="#63b8ff" stroke="#63b8ff" points="404.04,-530.15 410.05,-523.76 407.73,-528.62 411.43,-527.09 411.43,-527.09 411.43,-527.09 407.73,-528.62 412.8,-530.42 404.04,-530.15 404.04,-530.15"/>
</a>
</g>
</g>
<!-- Node13 -->
<g id="Node000013" class="node">
<title>Node13</title>
<g id="a_Node000013"><a xlink:href="classStatusCommand.html" target="_top" xlink:title="The StatusCommand class implements the status CLI command.">
<polygon fill="white" stroke="#666666" points="573,-360.5 475,-360.5 475,-341.5 573,-341.5 573,-360.5"/>
<text text-anchor="middle" x="524" y="-348.5" font-family="Helvetica,sans-Serif" font-size="10.00">StatusCommand</text>
</a>
</g>
</g>
<!-- Node2&#45;&gt;Node13 -->
<g id="edge13_Node000002_Node000013" class="edge">
<title>Node2&#45;&gt;Node13</title>
<g id="a_edge13_Node000002_Node000013"><a xlink:title=" ">
<path fill="none" stroke="#63b8ff" d="M411.54,-527.49C416.51,-525.03 421.12,-521.92 425,-518 472.6,-469.86 414.56,-419.25 461,-370 464.94,-365.82 469.77,-362.56 474.98,-360"/>
<polygon fill="#63b8ff" stroke="#63b8ff" points="404.03,-530.64 410.01,-524.23 407.72,-529.09 411.41,-527.54 411.41,-527.54 411.41,-527.54 407.72,-529.09 412.8,-530.86 404.03,-530.64 404.03,-530.64"/>
</a>
</g>
</g>
<!-- Node16 -->
<g id="Node000016" class="node">
<title>Node16</title>
<g id="a_Node000016"><a xlink:href="classCalibrationService.html" target="_top" xlink:title="The CalibrationService class accesses the Calibrartion service of Pokit devices.">
<polygon fill="white" stroke="#666666" points="406.5,-471.5 300.5,-471.5 300.5,-452.5 406.5,-452.5 406.5,-471.5"/>
<text text-anchor="middle" x="353.5" y="-459.5" font-family="Helvetica,sans-Serif" font-size="10.00">CalibrationService</text>
</a>
</g>
</g>
<!-- Node15&#45;&gt;Node16 -->
<g id="edge16_Node000015_Node000016" class="edge">
<title>Node15&#45;&gt;Node16</title>
<g id="a_edge16_Node000015_Node000016"><a xlink:title=" ">
<path fill="none" stroke="#63b8ff" d="M184.12,-366.4C203.98,-387.12 242.21,-423.71 282,-444 288.64,-447.39 295.96,-450.17 303.3,-452.44"/>
<polygon fill="#63b8ff" stroke="#63b8ff" points="178.57,-360.51 186.68,-363.86 181.31,-363.42 184.06,-366.33 184.06,-366.33 184.06,-366.33 181.31,-363.42 181.44,-368.8 178.57,-360.51 178.57,-360.51"/>
</a>
</g>
</g>
<!-- Node17 -->
<g id="Node000017" class="node">
<title>Node17</title>
<g id="a_Node000017"><a xlink:href="classDataLoggerService.html" target="_top" xlink:title="The DataLoggerService class accesses the Data Logger service of Pokit devices.">
<polygon fill="white" stroke="#666666" points="408,-434.5 299,-434.5 299,-415.5 408,-415.5 408,-434.5"/>
<text text-anchor="middle" x="353.5" y="-422.5" font-family="Helvetica,sans-Serif" font-size="10.00">DataLoggerService</text>
</a>
</g>
</g>
<!-- Node15&#45;&gt;Node17 -->
<g id="edge17_Node000015_Node000017" class="edge">
<title>Node15&#45;&gt;Node17</title>
<g id="a_edge17_Node000015_Node000017"><a xlink:title=" ">
<path fill="none" stroke="#63b8ff" d="M193.62,-364.67C215.84,-377.08 250.34,-395.2 282,-407 290.64,-410.22 300.09,-413.07 309.17,-415.49"/>
<polygon fill="#63b8ff" stroke="#63b8ff" points="186.57,-360.7 195.31,-361.49 190.06,-362.67 193.54,-364.63 193.54,-364.63 193.54,-364.63 190.06,-362.67 191.77,-367.77 186.57,-360.7 186.57,-360.7"/>
</a>
</g>
</g>
<!-- Node18 -->
<g id="Node000018" class="node">
<title>Node18</title>
<g id="a_Node000018"><a xlink:href="classDeviceInfoService.html" target="_top" xlink:title="The DeviceInfoService class accesses the Device Info service of Pokit devices.">
<polygon fill="white" stroke="#666666" points="406,-397.5 301,-397.5 301,-378.5 406,-378.5 406,-397.5"/>
<text text-anchor="middle" x="353.5" y="-385.5" font-family="Helvetica,sans-Serif" font-size="10.00">DeviceInfoService</text>
</a>
</g>
</g>
<!-- Node15&#45;&gt;Node18 -->
<g id="edge18_Node000015_Node000018" class="edge">
<title>Node15&#45;&gt;Node18</title>
<g id="a_edge18_Node000015_Node000018"><a xlink:title=" ">
<path fill="none" stroke="#63b8ff" d="M225.13,-362.18C250.72,-367.37 280.83,-373.47 305.34,-378.44"/>
<polygon fill="#63b8ff" stroke="#63b8ff" points="217,-360.53 225.55,-358.59 220.92,-361.32 224.84,-362.12 224.84,-362.12 224.84,-362.12 220.92,-361.32 224.12,-365.65 217,-360.53 217,-360.53"/>
</a>
</g>
</g>
<!-- Node19 -->
<g id="Node000019" class="node">
<title>Node19</title>
<g id="a_Node000019"><a xlink:href="classDsoService.html" target="_top" xlink:title="The DsoService class accesses the DSO (Digital Storage Oscilloscope) service of Pokit devices.">
<polygon fill="white" stroke="#666666" points="389,-360.5 318,-360.5 318,-341.5 389,-341.5 389,-360.5"/>
<text text-anchor="middle" x="353.5" y="-348.5" font-family="Helvetica,sans-Serif" font-size="10.00">DsoService</text>
</a>
</g>
</g>
<!-- Node15&#45;&gt;Node19 -->
<g id="edge19_Node000015_Node000019" class="edge">
<title>Node15&#45;&gt;Node19</title>
<g id="a_edge19_Node000015_Node000019"><a xlink:title=" ">
<path fill="none" stroke="#63b8ff" d="M236.32,-351C263.95,-351 294.89,-351 317.88,-351"/>
<polygon fill="#63b8ff" stroke="#63b8ff" points="228.25,-351 236.25,-347.4 232.25,-351 236.25,-351 236.25,-351 236.25,-351 232.25,-351 236.25,-354.6 228.25,-351 228.25,-351"/>
</a>
</g>
</g>
<!-- Node20 -->
<g id="Node000020" class="node">
<title>Node20</title>
<g id="a_Node000020"><a xlink:href="classMultimeterService.html" target="_top" xlink:title="The MultimeterService class accesses the Multimeter service of Pokit devices.">
<polygon fill="white" stroke="#666666" points="407,-323.5 300,-323.5 300,-304.5 407,-304.5 407,-323.5"/>
<text text-anchor="middle" x="353.5" y="-311.5" font-family="Helvetica,sans-Serif" font-size="10.00">MultimeterService</text>
</a>
</g>
</g>
<!-- Node15&#45;&gt;Node20 -->
<g id="edge20_Node000015_Node000020" class="edge">
<title>Node15&#45;&gt;Node20</title>
<g id="a_edge20_Node000015_Node000020"><a xlink:title=" ">
<path fill="none" stroke="#63b8ff" d="M225.13,-339.82C250.72,-334.63 280.83,-328.53 305.34,-323.56"/>
<polygon fill="#63b8ff" stroke="#63b8ff" points="217,-341.47 224.12,-336.35 220.92,-340.68 224.84,-339.88 224.84,-339.88 224.84,-339.88 220.92,-340.68 225.55,-343.41 217,-341.47 217,-341.47"/>
</a>
</g>
</g>
<!-- Node21 -->
<g id="Node000021" class="node">
<title>Node21</title>
<g id="a_Node000021"><a xlink:href="classStatusService.html" target="_top" xlink:title="The StatusService class accesses the Pokit Status service of Pokit devices.">
<polygon fill="white" stroke="#666666" points="395,-286.5 312,-286.5 312,-267.5 395,-267.5 395,-286.5"/>
<text text-anchor="middle" x="353.5" y="-274.5" font-family="Helvetica,sans-Serif" font-size="10.00">StatusService</text>
</a>
</g>
</g>
<!-- Node15&#45;&gt;Node21 -->
<g id="edge21_Node000015_Node000021" class="edge">
<title>Node15&#45;&gt;Node21</title>
<g id="a_edge21_Node000015_Node000021"><a xlink:title=" ">
<path fill="none" stroke="#63b8ff" d="M194.07,-337.48C216.35,-325.39 250.67,-307.79 282,-296 291.49,-292.43 301.94,-289.23 311.81,-286.53"/>
<polygon fill="#63b8ff" stroke="#63b8ff" points="187,-341.36 192.28,-334.36 190.51,-339.44 194.01,-337.51 194.01,-337.51 194.01,-337.51 190.51,-339.44 195.74,-340.67 187,-341.36 187,-341.36"/>
</a>
</g>
</g>
<!-- Node23 -->
<g id="Node000023" class="node">
<title>Node23</title>
<g id="a_Node000023"><a xlink:href="classCalibrationServicePrivate.html" target="_top" xlink:title="The CalibrationServicePrivate class provides private implementation for CalibrationService.">
<polygon fill="white" stroke="#666666" points="423.5,-249.5 283.5,-249.5 283.5,-230.5 423.5,-230.5 423.5,-249.5"/>
<text text-anchor="middle" x="353.5" y="-237.5" font-family="Helvetica,sans-Serif" font-size="10.00">CalibrationServicePrivate</text>
</a>
</g>
</g>
<!-- Node22&#45;&gt;Node23 -->
<g id="edge23_Node000022_Node000023" class="edge">
<title>Node22&#45;&gt;Node23</title>
<g id="a_edge23_Node000022_Node000023"><a xlink:title=" ">
<path fill="none" stroke="#63b8ff" d="M194.49,-182.27C216.8,-193.95 250.91,-210.79 282,-222 290.79,-225.17 300.39,-228.01 309.6,-230.45"/>
<polygon fill="#63b8ff" stroke="#63b8ff" points="187.4,-178.52 196.15,-179.08 190.93,-180.39 194.47,-182.26 194.47,-182.26 194.47,-182.26 190.93,-180.39 192.79,-185.44 187.4,-178.52 187.4,-178.52"/>
</a>
</g>
</g>
<!-- Node24 -->
<g id="Node000024" class="node">
<title>Node24</title>
<g id="a_Node000024"><a xlink:href="classDataLoggerServicePrivate.html" target="_top" xlink:title="The DataLoggerServicePrivate class provides private implementation for DataLoggerService.">
<polygon fill="white" stroke="#666666" points="425,-212.5 282,-212.5 282,-193.5 425,-193.5 425,-212.5"/>
<text text-anchor="middle" x="353.5" y="-200.5" font-family="Helvetica,sans-Serif" font-size="10.00">DataLoggerServicePrivate</text>
</a>
</g>
</g>
<!-- Node22&#45;&gt;Node24 -->
<g id="edge24_Node000022_Node000024" class="edge">
<title>Node22&#45;&gt;Node24</title>
<g id="a_edge24_Node000022_Node000024"><a xlink:title=" ">
<path fill="none" stroke="#63b8ff" d="M229.38,-180.06C252.57,-184.38 278.9,-189.29 301.25,-193.45"/>
<polygon fill="#63b8ff" stroke="#63b8ff" points="221.32,-178.56 229.85,-176.49 225.25,-179.29 229.19,-180.03 229.19,-180.03 229.19,-180.03 225.25,-179.29 228.53,-183.57 221.32,-178.56 221.32,-178.56"/>
</a>
</g>
</g>
<!-- Node25 -->
<g id="Node000025" class="node">
<title>Node25</title>
<g id="a_Node000025"><a xlink:href="classDeviceInfoServicePrivate.html" target="_top" xlink:title="The DeviceInfoServicePrivate class provides private implementation for DeviceInfoService.">
<polygon fill="white" stroke="#666666" points="423.5,-175.5 283.5,-175.5 283.5,-156.5 423.5,-156.5 423.5,-175.5"/>
<text text-anchor="middle" x="353.5" y="-163.5" font-family="Helvetica,sans-Serif" font-size="10.00">DeviceInfoServicePrivate</text>
</a>
</g>
</g>
<!-- Node22&#45;&gt;Node25 -->
<g id="edge25_Node000022_Node000025" class="edge">
<title>Node22&#45;&gt;Node25</title>
<g id="a_edge25_Node000022_Node000025"><a xlink:title=" ">
<path fill="none" stroke="#63b8ff" d="M253.09,-167.63C263.21,-167.47 273.46,-167.3 283.34,-167.14"/>
<polygon fill="#63b8ff" stroke="#63b8ff" points="245.02,-167.77 252.96,-164.04 249.02,-167.7 253.02,-167.64 253.02,-167.64 253.02,-167.64 249.02,-167.7 253.08,-171.23 245.02,-167.77 245.02,-167.77"/>
</a>
</g>
</g>
<!-- Node26 -->
<g id="Node000026" class="node">
<title>Node26</title>
<g id="a_Node000026"><a xlink:href="classDsoServicePrivate.html" target="_top" xlink:title="The DsoServicePrivate class provides private implementation for DsoService.">
<polygon fill="white" stroke="#666666" points="406.5,-138.5 300.5,-138.5 300.5,-119.5 406.5,-119.5 406.5,-138.5"/>
<text text-anchor="middle" x="353.5" y="-126.5" font-family="Helvetica,sans-Serif" font-size="10.00">DsoServicePrivate</text>
</a>
</g>
</g>
<!-- Node22&#45;&gt;Node26 -->
<g id="edge26_Node000022_Node000026" class="edge">
<title>Node22&#45;&gt;Node26</title>
<g id="a_edge26_Node000022_Node000026"><a xlink:title=" ">
<path fill="none" stroke="#63b8ff" d="M221.7,-157.67C249.31,-151.62 282.91,-144.25 309.14,-138.5"/>
<polygon fill="#63b8ff" stroke="#63b8ff" points="213.71,-159.42 220.76,-154.19 217.62,-158.56 221.53,-157.71 221.53,-157.71 221.53,-157.71 217.62,-158.56 222.3,-161.22 213.71,-159.42 213.71,-159.42"/>
</a>
</g>
</g>
<!-- Node27 -->
<g id="Node000027" class="node">
<title>Node27</title>
<g id="a_Node000027"><a xlink:href="classMultimeterServicePrivate.html" target="_top" xlink:title="The MultimeterServicePrivate class provides private implementation for MultimeterService.">
<polygon fill="white" stroke="#666666" points="424,-101.5 283,-101.5 283,-82.5 424,-82.5 424,-101.5"/>
<text text-anchor="middle" x="353.5" y="-89.5" font-family="Helvetica,sans-Serif" font-size="10.00">MultimeterServicePrivate</text>
</a>
</g>
</g>
<!-- Node22&#45;&gt;Node27 -->
<g id="edge27_Node000022_Node000027" class="edge">
<title>Node22&#45;&gt;Node27</title>
<g id="a_edge27_Node000022_Node000027"><a xlink:title=" ">
<path fill="none" stroke="#63b8ff" d="M234.99,-156.51C238.81,-154.89 242.52,-153.07 246,-151 266.57,-138.8 261.62,-123.51 282,-111 288.27,-107.15 295.31,-104.07 302.46,-101.61"/>
<polygon fill="#63b8ff" stroke="#63b8ff" points="227.5,-159.37 233.69,-153.15 231.24,-157.94 234.98,-156.52 234.98,-156.52 234.98,-156.52 231.24,-157.94 236.26,-159.88 227.5,-159.37 227.5,-159.37"/>
</a>
</g>
</g>
<!-- Node28 -->
<g id="Node000028" class="node">
<title>Node28</title>
<g id="a_Node000028"><a xlink:href="classStatusServicePrivate.html" target="_top" xlink:title="The StatusServicePrivate class provides private implementation for StatusService.">
<polygon fill="white" stroke="#666666" points="412.5,-64.5 294.5,-64.5 294.5,-45.5 412.5,-45.5 412.5,-64.5"/>
<text text-anchor="middle" x="353.5" y="-52.5" font-family="Helvetica,sans-Serif" font-size="10.00">StatusServicePrivate</text>
</a>
</g>
</g>
<!-- Node22&#45;&gt;Node28 -->
<g id="edge28_Node000022_Node000028" class="edge">
<title>Node22&#45;&gt;Node28</title>
<g id="a_edge28_Node000022_Node000028"><a xlink:title=" ">
<path fill="none" stroke="#63b8ff" d="M239.32,-155.68C241.66,-154.27 243.9,-152.71 246,-151 275.3,-127.16 253.07,-98.29 282,-74 286.56,-70.17 291.83,-67.1 297.38,-64.65"/>
<polygon fill="#63b8ff" stroke="#63b8ff" points="232.03,-159.49 237.45,-152.59 235.57,-157.64 239.12,-155.78 239.12,-155.78 239.12,-155.78 235.57,-157.64 240.79,-158.97 232.03,-159.49 232.03,-159.49"/>
</a>
</g>
</g>
<!-- Node33 -->
<g id="Node000033" class="node">
<title>Node33</title>
<g id="a_Node000033"><a xlink:href="classPokitDiscoveryAgent.html" target="_top" xlink:title="The PokitDiscoveryAgent class discovers nearby Pokit devices.">
<polygon fill="white" stroke="#666666" points="413,-24.5 294,-24.5 294,-5.5 413,-5.5 413,-24.5"/>
<text text-anchor="middle" x="353.5" y="-12.5" font-family="Helvetica,sans-Serif" font-size="10.00">PokitDiscoveryAgent</text>
</a>
</g>
</g>
<!-- Node32&#45;&gt;Node33 -->
<g id="edge33_Node000032_Node000033" class="edge">
<title>Node32&#45;&gt;Node33</title>
<g id="a_edge33_Node000032_Node000033"><a xlink:title=" ">
<path fill="none" stroke="#63b8ff" d="M254.34,-15C267.67,-15 281.21,-15 293.79,-15"/>
<polygon fill="#63b8ff" stroke="#63b8ff" points="246.07,-15 254.07,-11.4 250.07,-15 254.07,-15 254.07,-15 254.07,-15 250.07,-15 254.07,-18.6 246.07,-15 246.07,-15"/>
</a>
</g>
</g>
</g>
</svg>
