<?xml version="1.0" encoding="UTF-8" standalone="no"?>
<!DOCTYPE svg PUBLIC "-//W3C//DTD SVG 1.1//EN"
 "http://www.w3.org/Graphics/SVG/1.1/DTD/svg11.dtd">
<!-- Generated by graphviz version 2.43.0 (0)
 -->
<!-- Title: abstractpokitservice.h Pages: 1 -->
<svg width="1276pt" height="137pt"
 viewBox="0.00 0.00 1276.00 137.00" xmlns="http://www.w3.org/2000/svg" xmlns:xlink="http://www.w3.org/1999/xlink">
<g id="graph0" class="graph" transform="scale(1 1) rotate(0) translate(4 133)">
<title>abstractpokitservice.h</title>
<!-- Node1 -->
<g id="node1" class="node">
<title>Node1</title>
<g id="a_node1"><a xlink:title="Declares the AbstractPokitService class.">
<polygon fill="#999999" stroke="#666666" points="579,-129 454,-129 454,-110 579,-110 579,-129"/>
<text text-anchor="middle" x="516.5" y="-117" font-family="Helvetica,sans-Serif" font-size="10.00">abstractpokitservice.h</text>
</a>
</g>
</g>
<!-- Node2 -->
<g id="node2" class="node">
<title>Node2</title>
<g id="a_node2"><a xlink:href="abstractpokitservice_8cpp.html" target="_top" xlink:title="Defines the AbstractPokitService and AbstractPokitServicePrivate classes.">
<polygon fill="white" stroke="#666666" points="137,-74 0,-74 0,-55 137,-55 137,-74"/>
<text text-anchor="middle" x="68.5" y="-62" font-family="Helvetica,sans-Serif" font-size="10.00">abstractpokitservice.cpp</text>
</a>
</g>
</g>
<!-- Node1&#45;&gt;Node2 -->
<g id="edge1" class="edge">
<title>Node1&#45;&gt;Node2</title>
<path fill="none" stroke="#63b8ff" d="M445.73,-110.13C361.17,-100.12 220.66,-83.5 137.08,-73.61"/>
<polygon fill="#63b8ff" stroke="#63b8ff" points="453.74,-111.07 445.37,-113.71 449.76,-110.6 445.79,-110.13 445.79,-110.13 445.79,-110.13 449.76,-110.6 446.21,-106.56 453.74,-111.07 453.74,-111.07"/>
</g>
<!-- Node3 -->
<g id="node3" class="node">
<title>Node3</title>
<g id="a_node3"><a xlink:href="calibrationservice_8h.html" target="_top" xlink:title="Declares the CalibrationService class.">
<polygon fill="white" stroke="#666666" points="268,-74 155,-74 155,-55 268,-55 268,-74"/>
<text text-anchor="middle" x="211.5" y="-62" font-family="Helvetica,sans-Serif" font-size="10.00">calibrationservice.h</text>
</a>
</g>
</g>
<!-- Node1&#45;&gt;Node3 -->
<g id="edge2" class="edge">
<title>Node1&#45;&gt;Node3</title>
<path fill="none" stroke="#63b8ff" d="M459.27,-108.56C402.01,-98.61 314.86,-83.46 260.63,-74.04"/>
<polygon fill="#63b8ff" stroke="#63b8ff" points="467.5,-109.98 459,-112.16 463.56,-109.3 459.61,-108.61 459.61,-108.61 459.61,-108.61 463.56,-109.3 460.23,-105.07 467.5,-109.98 467.5,-109.98"/>
</g>
<!-- Node6 -->
<g id="node6" class="node">
<title>Node6</title>
<g id="a_node6"><a xlink:href="dataloggerservice_8h.html" target="_top" xlink:title="Declares the DataLoggerService class.">
<polygon fill="white" stroke="#666666" points="908,-74 795,-74 795,-55 908,-55 908,-74"/>
<text text-anchor="middle" x="851.5" y="-62" font-family="Helvetica,sans-Serif" font-size="10.00">dataloggerservice.h</text>
</a>
</g>
</g>
<!-- Node1&#45;&gt;Node6 -->
<g id="edge5" class="edge">
<title>Node1&#45;&gt;Node6</title>
<path fill="none" stroke="#63b8ff" d="M578.58,-108.68C641.46,-98.73 737.73,-83.5 797.53,-74.04"/>
<polygon fill="#63b8ff" stroke="#63b8ff" points="570.32,-109.98 577.66,-105.18 574.27,-109.36 578.23,-108.73 578.23,-108.73 578.23,-108.73 574.27,-109.36 578.79,-112.29 570.32,-109.98 570.32,-109.98"/>
</g>
<!-- Node8 -->
<g id="node8" class="node">
<title>Node8</title>
<g id="a_node8"><a xlink:href="deviceinfoservice_8h.html" target="_top" xlink:title="Declares the DeviceInfoService class.">
<polygon fill="white" stroke="#666666" points="398.5,-74 286.5,-74 286.5,-55 398.5,-55 398.5,-74"/>
<text text-anchor="middle" x="342.5" y="-62" font-family="Helvetica,sans-Serif" font-size="10.00">deviceinfoservice.h</text>
</a>
</g>
</g>
<!-- Node1&#45;&gt;Node8 -->
<g id="edge8" class="edge">
<title>Node1&#45;&gt;Node8</title>
<path fill="none" stroke="#63b8ff" d="M480.6,-107.56C448.01,-97.64 400.61,-83.2 370.68,-74.08"/>
<polygon fill="#63b8ff" stroke="#63b8ff" points="488.54,-109.98 479.84,-111.1 484.72,-108.82 480.89,-107.65 480.89,-107.65 480.89,-107.65 484.72,-108.82 481.94,-104.21 488.54,-109.98 488.54,-109.98"/>
</g>
<!-- Node10 -->
<g id="node10" class="node">
<title>Node10</title>
<g id="a_node10"><a xlink:href="dsoservice_8h.html" target="_top" xlink:title="Declares the DsoService class.">
<polygon fill="white" stroke="#666666" points="494.5,-74 416.5,-74 416.5,-55 494.5,-55 494.5,-74"/>
<text text-anchor="middle" x="455.5" y="-62" font-family="Helvetica,sans-Serif" font-size="10.00">dsoservice.h</text>
</a>
</g>
</g>
<!-- Node1&#45;&gt;Node10 -->
<g id="edge11" class="edge">
<title>Node1&#45;&gt;Node10</title>
<path fill="none" stroke="#63b8ff" d="M500.61,-104.7C489.5,-95.04 475,-82.44 465.48,-74.17"/>
<polygon fill="#63b8ff" stroke="#63b8ff" points="506.7,-109.98 498.3,-107.46 503.68,-107.36 500.66,-104.74 500.66,-104.74 500.66,-104.74 503.68,-107.36 503.02,-102.02 506.7,-109.98 506.7,-109.98"/>
</g>
<!-- Node12 -->
<g id="node12" class="node">
<title>Node12</title>
<g id="a_node12"><a xlink:href="genericaccessservice_8h.html" target="_top" xlink:title="Declares the GenericAccessService class.">
<polygon fill="white" stroke="#666666" points="642.5,-74 512.5,-74 512.5,-55 642.5,-55 642.5,-74"/>
<text text-anchor="middle" x="577.5" y="-62" font-family="Helvetica,sans-Serif" font-size="10.00">genericaccessservice.h</text>
</a>
</g>
</g>
<!-- Node1&#45;&gt;Node12 -->
<g id="edge14" class="edge">
<title>Node1&#45;&gt;Node12</title>
<path fill="none" stroke="#63b8ff" d="M532.39,-104.7C543.5,-95.04 558,-82.44 567.52,-74.17"/>
<polygon fill="#63b8ff" stroke="#63b8ff" points="526.3,-109.98 529.98,-102.02 529.32,-107.36 532.34,-104.74 532.34,-104.74 532.34,-104.74 529.32,-107.36 534.7,-107.46 526.3,-109.98 526.3,-109.98"/>
</g>
<!-- Node14 -->
<g id="node14" class="node">
<title>Node14</title>
<g id="a_node14"><a xlink:href="multimeterservice_8h.html" target="_top" xlink:title="Declares the MultimeterService class.">
<polygon fill="white" stroke="#666666" points="776.5,-74 660.5,-74 660.5,-55 776.5,-55 776.5,-74"/>
<text text-anchor="middle" x="718.5" y="-62" font-family="Helvetica,sans-Serif" font-size="10.00">multimeterservice.h</text>
</a>
</g>
</g>
<!-- Node1&#45;&gt;Node14 -->
<g id="edge17" class="edge">
<title>Node1&#45;&gt;Node14</title>
<path fill="none" stroke="#63b8ff" d="M556.75,-107.94C594.61,-98.01 650.6,-83.31 685.79,-74.08"/>
<polygon fill="#63b8ff" stroke="#63b8ff" points="548.95,-109.98 555.78,-104.47 552.82,-108.97 556.69,-107.95 556.69,-107.95 556.69,-107.95 552.82,-108.97 557.61,-111.44 548.95,-109.98 548.95,-109.98"/>
</g>
<!-- Node16 -->
<g id="node16" class="node">
<title>Node16</title>
<g id="a_node16"><a xlink:href="statusservice_8h.html" target="_top" xlink:title="Declares the StatusService class.">
<polygon fill="white" stroke="#666666" points="1017,-74 926,-74 926,-55 1017,-55 1017,-74"/>
<text text-anchor="middle" x="971.5" y="-62" font-family="Helvetica,sans-Serif" font-size="10.00">statusservice.h</text>
</a>
</g>
</g>
<!-- Node1&#45;&gt;Node16 -->
<g id="edge20" class="edge">
<title>Node1&#45;&gt;Node16</title>
<path fill="none" stroke="#63b8ff" d="M587.19,-111.64C667.39,-103.63 802.06,-89.48 917.5,-74 920.23,-73.63 923.03,-73.24 925.86,-72.83"/>
<polygon fill="#63b8ff" stroke="#63b8ff" points="579.12,-112.44 586.72,-108.07 583.1,-112.05 587.08,-111.65 587.08,-111.65 587.08,-111.65 583.1,-112.05 587.44,-115.23 579.12,-112.44 579.12,-112.44"/>
</g>
<!-- Node4 -->
<g id="node4" class="node">
<title>Node4</title>
<g id="a_node4"><a xlink:href="calibrationservice_8cpp.html" target="_top" xlink:title="Defines the CalibrationService and CalibrationServicePrivate classes.">
<polygon fill="white" stroke="#666666" points="183.5,-19 59.5,-19 59.5,0 183.5,0 183.5,-19"/>
<text text-anchor="middle" x="121.5" y="-7" font-family="Helvetica,sans-Serif" font-size="10.00">calibrationservice.cpp</text>
</a>
</g>
</g>
<!-- Node3&#45;&gt;Node4 -->
<g id="edge3" class="edge">
<title>Node3&#45;&gt;Node4</title>
<path fill="none" stroke="#63b8ff" d="M189.88,-50.77C173.27,-40.99 150.8,-27.75 136.22,-19.17"/>
<polygon fill="#63b8ff" stroke="#63b8ff" points="197.04,-54.98 188.32,-54.03 193.59,-52.95 190.15,-50.93 190.15,-50.93 190.15,-50.93 193.59,-52.95 191.97,-47.82 197.04,-54.98 197.04,-54.98"/>
</g>
<!-- Node5 -->
<g id="node5" class="node">
<title>Node5</title>
<g id="a_node5"><a xlink:href="pokitdevice_8cpp.html" target="_top" xlink:title="Defines the PokitDevice and PokitDevicePrivate classes.">
<polygon fill="white" stroke="#666666" points="544.5,-19 450.5,-19 450.5,0 544.5,0 544.5,-19"/>
<text text-anchor="middle" x="497.5" y="-7" font-family="Helvetica,sans-Serif" font-size="10.00">pokitdevice.cpp</text>
</a>
</g>
</g>
<!-- Node3&#45;&gt;Node5 -->
<g id="edge4" class="edge">
<title>Node3&#45;&gt;Node5</title>
<path fill="none" stroke="#63b8ff" d="M265.48,-53.5C319.09,-43.56 400.43,-28.49 451.19,-19.08"/>
<polygon fill="#63b8ff" stroke="#63b8ff" points="257.45,-54.98 264.66,-49.99 261.38,-54.26 265.32,-53.53 265.32,-53.53 265.32,-53.53 261.38,-54.26 265.97,-57.07 257.45,-54.98 257.45,-54.98"/>
</g>
<!-- Node6&#45;&gt;Node5 -->
<g id="edge7" class="edge">
<title>Node6&#45;&gt;Node5</title>
<path fill="none" stroke="#63b8ff" d="M786.71,-53.8C716.7,-43.32 606.83,-26.87 544.61,-17.55"/>
<polygon fill="#63b8ff" stroke="#63b8ff" points="794.62,-54.98 786.18,-57.36 790.67,-54.39 786.71,-53.8 786.71,-53.8 786.71,-53.8 790.67,-54.39 787.25,-50.24 794.62,-54.98 794.62,-54.98"/>
</g>
<!-- Node7 -->
<g id="node7" class="node">
<title>Node7</title>
<g id="a_node7"><a xlink:href="dataloggerservice_8cpp.html" target="_top" xlink:title="Defines the DataLoggerService and DataLoggerServicePrivate classes.">
<polygon fill="white" stroke="#666666" points="992,-19 867,-19 867,0 992,0 992,-19"/>
<text text-anchor="middle" x="929.5" y="-7" font-family="Helvetica,sans-Serif" font-size="10.00">dataloggerservice.cpp</text>
</a>
</g>
</g>
<!-- Node6&#45;&gt;Node7 -->
<g id="edge6" class="edge">
<title>Node6&#45;&gt;Node7</title>
<path fill="none" stroke="#63b8ff" d="M871.02,-50.23C885.33,-40.51 904.34,-27.6 916.74,-19.17"/>
<polygon fill="#63b8ff" stroke="#63b8ff" points="864.03,-54.98 868.63,-47.51 867.34,-52.74 870.65,-50.49 870.65,-50.49 870.65,-50.49 867.34,-52.74 872.67,-53.47 864.03,-54.98 864.03,-54.98"/>
</g>
<!-- Node8&#45;&gt;Node5 -->
<g id="edge10" class="edge">
<title>Node8&#45;&gt;Node5</title>
<path fill="none" stroke="#63b8ff" d="M375.22,-52.31C404.23,-42.39 445.97,-28.12 472.4,-19.08"/>
<polygon fill="#63b8ff" stroke="#63b8ff" points="367.4,-54.98 373.81,-48.99 371.19,-53.69 374.97,-52.4 374.97,-52.4 374.97,-52.4 371.19,-53.69 376.14,-55.8 367.4,-54.98 367.4,-54.98"/>
</g>
<!-- Node9 -->
<g id="node9" class="node">
<title>Node9</title>
<g id="a_node9"><a xlink:href="deviceinfoservice_8cpp.html" target="_top" xlink:title="Defines the DeviceInfoService and DeviceInfoServicePrivate classes.">
<polygon fill="white" stroke="#666666" points="325,-19 202,-19 202,0 325,0 325,-19"/>
<text text-anchor="middle" x="263.5" y="-7" font-family="Helvetica,sans-Serif" font-size="10.00">deviceinfoservice.cpp</text>
</a>
</g>
</g>
<!-- Node8&#45;&gt;Node9 -->
<g id="edge9" class="edge">
<title>Node8&#45;&gt;Node9</title>
<path fill="none" stroke="#63b8ff" d="M323.12,-50.5C308.59,-40.75 289.1,-27.68 276.42,-19.17"/>
<polygon fill="#63b8ff" stroke="#63b8ff" points="329.81,-54.98 321.16,-53.52 326.49,-52.76 323.16,-50.53 323.16,-50.53 323.16,-50.53 326.49,-52.76 325.17,-47.54 329.81,-54.98 329.81,-54.98"/>
</g>
<!-- Node10&#45;&gt;Node5 -->
<g id="edge13" class="edge">
<title>Node10&#45;&gt;Node5</title>
<path fill="none" stroke="#63b8ff" d="M467.5,-48.35C475.02,-38.87 484.44,-26.98 490.69,-19.09"/>
<polygon fill="#63b8ff" stroke="#63b8ff" points="462.44,-54.75 464.58,-46.24 464.92,-51.61 467.4,-48.48 467.4,-48.48 467.4,-48.48 464.92,-51.61 470.23,-50.71 462.44,-54.75 462.44,-54.75"/>
</g>
<!-- Node11 -->
<g id="node11" class="node">
<title>Node11</title>
<g id="a_node11"><a xlink:href="dsoservice_8cpp.html" target="_top" xlink:title="Defines the DsoService and DsoServicePrivate classes.">
<polygon fill="white" stroke="#666666" points="432,-19 343,-19 343,0 432,0 432,-19"/>
<text text-anchor="middle" x="387.5" y="-7" font-family="Helvetica,sans-Serif" font-size="10.00">dsoservice.cpp</text>
</a>
</g>
</g>
<!-- Node10&#45;&gt;Node11 -->
<g id="edge12" class="edge">
<title>Node10&#45;&gt;Node11</title>
<path fill="none" stroke="#63b8ff" d="M438.13,-49.97C425.7,-40.28 409.34,-27.52 398.62,-19.17"/>
<polygon fill="#63b8ff" stroke="#63b8ff" points="444.57,-54.98 436.05,-52.91 441.42,-52.53 438.26,-50.07 438.26,-50.07 438.26,-50.07 441.42,-52.53 440.48,-47.23 444.57,-54.98 444.57,-54.98"/>
</g>
<!-- Node12&#45;&gt;Node5 -->
<g id="edge16" class="edge">
<title>Node12&#45;&gt;Node5</title>
<path fill="none" stroke="#63b8ff" d="M557.88,-50.5C543.16,-40.75 523.43,-27.68 510.59,-19.17"/>
<polygon fill="#63b8ff" stroke="#63b8ff" points="564.65,-54.98 555.99,-53.57 561.31,-52.78 557.98,-50.57 557.98,-50.57 557.98,-50.57 561.31,-52.78 559.97,-47.57 564.65,-54.98 564.65,-54.98"/>
</g>
<!-- Node13 -->
<g id="node13" class="node">
<title>Node13</title>
<g id="a_node13"><a xlink:href="genericaccessservice_8cpp.html" target="_top" xlink:title="Defines the GenericAccessService and GenericAccessServicePrivate classes.">
<polygon fill="white" stroke="#666666" points="704,-19 563,-19 563,0 704,0 704,-19"/>
<text text-anchor="middle" x="633.5" y="-7" font-family="Helvetica,sans-Serif" font-size="10.00">genericaccessservice.cpp</text>
</a>
</g>
</g>
<!-- Node12&#45;&gt;Node13 -->
<g id="edge15" class="edge">
<title>Node12&#45;&gt;Node13</title>
<path fill="none" stroke="#63b8ff" d="M592.37,-49.42C602.53,-39.81 615.68,-27.37 624.34,-19.17"/>
<polygon fill="#63b8ff" stroke="#63b8ff" points="586.5,-54.98 589.83,-46.87 589.4,-52.24 592.31,-49.49 592.31,-49.49 592.31,-49.49 589.4,-52.24 594.78,-52.1 586.5,-54.98 586.5,-54.98"/>
</g>
<!-- Node14&#45;&gt;Node5 -->
<g id="edge19" class="edge">
<title>Node14&#45;&gt;Node5</title>
<path fill="none" stroke="#63b8ff" d="M674.99,-53.07C633.56,-43.13 571.95,-28.35 533.29,-19.08"/>
<polygon fill="#63b8ff" stroke="#63b8ff" points="682.99,-54.98 674.37,-56.62 679.1,-54.05 675.21,-53.12 675.21,-53.12 675.21,-53.12 679.1,-54.05 676.05,-49.62 682.99,-54.98 682.99,-54.98"/>
</g>
<!-- Node15 -->
<g id="node15" class="node">
<title>Node15</title>
<g id="a_node15"><a xlink:href="multimeterservice_8cpp.html" target="_top" xlink:title="Defines the MultimeterService and MultimeterServicePrivate classes.">
<polygon fill="white" stroke="#666666" points="849,-19 722,-19 722,0 849,0 849,-19"/>
<text text-anchor="middle" x="785.5" y="-7" font-family="Helvetica,sans-Serif" font-size="10.00">multimeterservice.cpp</text>
</a>
</g>
</g>
<!-- Node14&#45;&gt;Node15 -->
<g id="edge18" class="edge">
<title>Node14&#45;&gt;Node15</title>
<path fill="none" stroke="#63b8ff" d="M735.61,-49.97C747.86,-40.28 763.98,-27.52 774.54,-19.17"/>
<polygon fill="#63b8ff" stroke="#63b8ff" points="729.26,-54.98 733.31,-47.2 732.4,-52.5 735.54,-50.02 735.54,-50.02 735.54,-50.02 732.4,-52.5 737.77,-52.84 729.26,-54.98 729.26,-54.98"/>
</g>
<!-- Node16&#45;&gt;Node5 -->
<g id="edge22" class="edge">
<title>Node16&#45;&gt;Node5</title>
<path fill="none" stroke="#63b8ff" d="M917.76,-55.03C917.67,-55.02 917.59,-55.01 917.5,-55 756.69,-34.39 715.39,-38.96 554.5,-19 551.32,-18.61 548.05,-18.18 544.75,-17.73"/>
<polygon fill="#63b8ff" stroke="#63b8ff" points="925.86,-56.13 917.45,-58.62 921.9,-55.59 917.93,-55.06 917.93,-55.06 917.93,-55.06 921.9,-55.59 918.42,-51.49 925.86,-56.13 925.86,-56.13"/>
</g>
<!-- Node16&#45;&gt;Node7 -->
<g id="edge21" class="edge">
<title>Node16&#45;&gt;Node7</title>
<path fill="none" stroke="#63b8ff" d="M959.5,-48.35C951.98,-38.87 942.56,-26.98 936.31,-19.09"/>
<polygon fill="#63b8ff" stroke="#63b8ff" points="964.56,-54.75 956.77,-50.71 962.08,-51.61 959.6,-48.48 959.6,-48.48 959.6,-48.48 962.08,-51.61 962.42,-46.24 964.56,-54.75 964.56,-54.75"/>
</g>
<!-- Node17 -->
<g id="node17" class="node">
<title>Node17</title>
<g id="a_node17"><a xlink:href="pokitdiscoveryagent_8cpp.html" target="_top" xlink:title="Defines the PokitDiscoveryAgent and PokitDiscoveryAgentPrivate classes.">
<polygon fill="white" stroke="#666666" points="1268,-19 1131,-19 1131,0 1268,0 1268,-19"/>
<text text-anchor="middle" x="1199.5" y="-7" font-family="Helvetica,sans-Serif" font-size="10.00">pokitdiscoveryagent.cpp</text>
</a>
</g>
</g>
<!-- Node16&#45;&gt;Node17 -->
<g id="edge23" class="edge">
<title>Node16&#45;&gt;Node17</title>
<path fill="none" stroke="#63b8ff" d="M1016.12,-53.13C1058.87,-43.19 1122.61,-28.37 1162.58,-19.08"/>
<polygon fill="#63b8ff" stroke="#63b8ff" points="1008.13,-54.98 1015.11,-49.67 1012.03,-54.08 1015.92,-53.17 1015.92,-53.17 1015.92,-53.17 1012.03,-54.08 1016.74,-56.68 1008.13,-54.98 1008.13,-54.98"/>
</g>
<!-- Node18 -->
<g id="node18" class="node">
<title>Node18</title>
<g id="a_node18"><a xlink:href="statusservice_8cpp.html" target="_top" xlink:title="Defines the StatusService and StatusServicePrivate classes.">
<polygon fill="white" stroke="#666666" points="1112.5,-19 1010.5,-19 1010.5,0 1112.5,0 1112.5,-19"/>
<text text-anchor="middle" x="1061.5" y="-7" font-family="Helvetica,sans-Serif" font-size="10.00">statusservice.cpp</text>
</a>
</g>
</g>
<!-- Node16&#45;&gt;Node18 -->
<g id="edge24" class="edge">
<title>Node16&#45;&gt;Node18</title>
<path fill="none" stroke="#63b8ff" d="M993.12,-50.77C1009.73,-40.99 1032.2,-27.75 1046.78,-19.17"/>
<polygon fill="#63b8ff" stroke="#63b8ff" points="985.96,-54.98 991.03,-47.82 989.41,-52.95 992.85,-50.93 992.85,-50.93 992.85,-50.93 989.41,-52.95 994.68,-54.03 985.96,-54.98 985.96,-54.98"/>
</g>
</g>
</svg>
