<?xml version="1.0" encoding="UTF-8" standalone="no"?>
<!DOCTYPE svg PUBLIC "-//W3C//DTD SVG 1.1//EN"
 "http://www.w3.org/Graphics/SVG/1.1/DTD/svg11.dtd">
<!-- Generated by graphviz version 2.43.0 (0)
 -->
<!-- Title: dataloggerservice.cpp Pages: 1 -->
<svg width="1018pt" height="357pt"
 viewBox="0.00 0.00 1018.00 357.00" xmlns="http://www.w3.org/2000/svg" xmlns:xlink="http://www.w3.org/1999/xlink">
<g id="graph0" class="graph" transform="scale(1 1) rotate(0) translate(4 353)">
<title>dataloggerservice.cpp</title>
<!-- Node1 -->
<g id="Node000001" class="node">
<title>Node1</title>
<g id="a_Node000001"><a xlink:title="Defines the DataLoggerService and DataLoggerServicePrivate classes.">
<polygon fill="#999999" stroke="#666666" points="755,-349 630,-349 630,-330 755,-330 755,-349"/>
<text text-anchor="middle" x="692.5" y="-337" font-family="Helvetica,sans-Serif" font-size="10.00">dataloggerservice.cpp</text>
</a>
</g>
</g>
<!-- Node2 -->
<g id="Node000002" class="node">
<title>Node2</title>
<g id="a_Node000002"><a xlink:href="dataloggerservice_8h.html" target="_top" xlink:title="Declares the DataLoggerService class.">
<polygon fill="white" stroke="#666666" points="407,-239 256,-239 256,-220 407,-220 407,-239"/>
<text text-anchor="middle" x="331.5" y="-227" font-family="Helvetica,sans-Serif" font-size="10.00">qtpokit/dataloggerservice.h</text>
</a>
</g>
</g>
<!-- Node1&#45;&gt;Node2 -->
<g id="edge1_Node000001_Node000002" class="edge">
<title>Node1&#45;&gt;Node2</title>
<g id="a_edge1_Node000001_Node000002"><a xlink:title=" ">
<path fill="none" stroke="#63b8ff" d="M663.87,-329.94C598.84,-310.48 440.05,-262.98 368.06,-241.44"/>
<polygon fill="#63b8ff" stroke="#63b8ff" points="360.13,-239.07 368.83,-237.91 363.96,-240.21 367.8,-241.36 367.8,-241.36 367.8,-241.36 363.96,-240.21 366.76,-244.81 360.13,-239.07 360.13,-239.07"/>
</a>
</g>
</g>
<!-- Node15 -->
<g id="Node000015" class="node">
<title>Node15</title>
<g id="a_Node000015"><a xlink:href="dataloggerservice__p_8h.html" target="_top" xlink:title="Declares the DataLoggerServicePrivate class.">
<polygon fill="white" stroke="#666666" points="394,-294 269,-294 269,-275 394,-275 394,-294"/>
<text text-anchor="middle" x="331.5" y="-282" font-family="Helvetica,sans-Serif" font-size="10.00">dataloggerservice_p.h</text>
</a>
</g>
</g>
<!-- Node1&#45;&gt;Node15 -->
<g id="edge15_Node000001_Node000015" class="edge">
<title>Node1&#45;&gt;Node15</title>
<g id="a_edge15_Node000001_Node000015"><a xlink:title=" ">
<path fill="none" stroke="#63b8ff" d="M634.5,-329.98C569.86,-320.49 465.54,-305.18 397.74,-295.22"/>
<polygon fill="#63b8ff" stroke="#63b8ff" points="389.66,-294.04 398.09,-291.64 393.61,-294.62 397.57,-295.2 397.57,-295.2 397.57,-295.2 393.61,-294.62 397.05,-298.76 389.66,-294.04 389.66,-294.04"/>
</a>
</g>
</g>
<!-- Node18 -->
<g id="Node000018" class="node">
<title>Node18</title>
<g id="a_Node000018"><a xlink:href="pokitproducts__p_8h_source.html" target="_top" xlink:title=" ">
<polygon fill="white" stroke="#666666" points="704.5,-294 600.5,-294 600.5,-275 704.5,-275 704.5,-294"/>
<text text-anchor="middle" x="652.5" y="-282" font-family="Helvetica,sans-Serif" font-size="10.00">pokitproducts_p.h</text>
</a>
</g>
</g>
<!-- Node1&#45;&gt;Node18 -->
<g id="edge23_Node000001_Node000018" class="edge">
<title>Node1&#45;&gt;Node18</title>
<g id="a_edge23_Node000001_Node000018"><a xlink:title=" ">
<path fill="none" stroke="#63b8ff" d="M685.89,-329.75C679.95,-321.88 671.09,-310.14 663.99,-300.73"/>
<polygon fill="#63b8ff" stroke="#63b8ff" points="658.98,-294.09 666.68,-298.31 661.39,-297.28 663.8,-300.47 663.8,-300.47 663.8,-300.47 661.39,-297.28 660.93,-302.64 658.98,-294.09 658.98,-294.09"/>
</a>
</g>
</g>
<!-- Node19 -->
<g id="Node000019" class="node">
<title>Node19</title>
<g id="a_Node000019"><a xlink:title=" ">
<polygon fill="#e0e0e0" stroke="#999999" points="820,-239 695,-239 695,-220 820,-220 820,-239"/>
<text text-anchor="middle" x="757.5" y="-227" font-family="Helvetica,sans-Serif" font-size="10.00">QLowEnergyController</text>
</a>
</g>
</g>
<!-- Node1&#45;&gt;Node19 -->
<g id="edge33_Node000001_Node000019" class="edge">
<title>Node1&#45;&gt;Node19</title>
<g id="a_edge33_Node000001_Node000019"><a xlink:title=" ">
<path fill="none" stroke="#63b8ff" d="M697.82,-329.66C708.82,-311.38 734.22,-269.18 748.07,-246.17"/>
<polygon fill="#63b8ff" stroke="#63b8ff" points="752.29,-239.16 751.25,-247.87 750.23,-242.59 748.16,-246.01 748.16,-246.01 748.16,-246.01 750.23,-242.59 745.08,-244.16 752.29,-239.16 752.29,-239.16"/>
</a>
</g>
</g>
<!-- Node20 -->
<g id="Node000020" class="node">
<title>Node20</title>
<g id="a_Node000020"><a xlink:href="statusservice_8h.html" target="_top" xlink:title="Declares the StatusService class.">
<polygon fill="white" stroke="#666666" points="553.5,-239 425.5,-239 425.5,-220 553.5,-220 553.5,-239"/>
<text text-anchor="middle" x="489.5" y="-227" font-family="Helvetica,sans-Serif" font-size="10.00">qtpokit/statusservice.h</text>
</a>
</g>
</g>
<!-- Node1&#45;&gt;Node20 -->
<g id="edge26_Node000001_Node000020" class="edge">
<title>Node1&#45;&gt;Node20</title>
<g id="a_edge26_Node000001_Node000020"><a xlink:title=" ">
<path fill="none" stroke="#63b8ff" d="M670.8,-329.99C650.06,-321.6 618.1,-308.05 591.5,-294 561.77,-278.3 529.03,-257.19 508.87,-243.71"/>
<polygon fill="#63b8ff" stroke="#63b8ff" points="502.04,-239.12 510.69,-240.6 505.36,-241.35 508.68,-243.58 508.68,-243.58 508.68,-243.58 505.36,-241.35 506.67,-246.57 502.04,-239.12 502.04,-239.12"/>
</a>
</g>
</g>
<!-- Node21 -->
<g id="Node000021" class="node">
<title>Node21</title>
<g id="a_Node000021"><a xlink:title=" ">
<polygon fill="#e0e0e0" stroke="#999999" points="844,-294 761,-294 761,-275 844,-275 844,-294"/>
<text text-anchor="middle" x="802.5" y="-282" font-family="Helvetica,sans-Serif" font-size="10.00">QDataStream</text>
</a>
</g>
</g>
<!-- Node1&#45;&gt;Node21 -->
<g id="edge31_Node000001_Node000021" class="edge">
<title>Node1&#45;&gt;Node21</title>
<g id="a_edge31_Node000001_Node000021"><a xlink:title=" ">
<path fill="none" stroke="#63b8ff" d="M710.17,-329.98C728.27,-321.27 756.57,-307.63 777.07,-297.75"/>
<polygon fill="#63b8ff" stroke="#63b8ff" points="784.51,-294.17 778.86,-300.89 780.9,-295.91 777.3,-297.64 777.3,-297.64 777.3,-297.64 780.9,-295.91 775.74,-294.4 784.51,-294.17 784.51,-294.17"/>
</a>
</g>
</g>
<!-- Node22 -->
<g id="Node000022" class="node">
<title>Node22</title>
<g id="a_Node000022"><a xlink:title=" ">
<polygon fill="#e0e0e0" stroke="#999999" points="930.5,-294 862.5,-294 862.5,-275 930.5,-275 930.5,-294"/>
<text text-anchor="middle" x="896.5" y="-282" font-family="Helvetica,sans-Serif" font-size="10.00">QIODevice</text>
</a>
</g>
</g>
<!-- Node1&#45;&gt;Node22 -->
<g id="edge32_Node000001_Node000022" class="edge">
<title>Node1&#45;&gt;Node22</title>
<g id="a_edge32_Node000001_Node000022"><a xlink:title=" ">
<path fill="none" stroke="#63b8ff" d="M725.28,-329.98C760.71,-320.78 817.25,-306.09 855.58,-296.13"/>
<polygon fill="#63b8ff" stroke="#63b8ff" points="863.47,-294.08 856.63,-299.58 859.6,-295.09 855.72,-296.09 855.72,-296.09 855.72,-296.09 859.6,-295.09 854.82,-292.61 863.47,-294.08 863.47,-294.08"/>
</a>
</g>
</g>
<!-- Node23 -->
<g id="Node000023" class="node">
<title>Node23</title>
<g id="a_Node000023"><a xlink:title=" ">
<polygon fill="#e0e0e0" stroke="#999999" points="1010,-294 949,-294 949,-275 1010,-275 1010,-294"/>
<text text-anchor="middle" x="979.5" y="-282" font-family="Helvetica,sans-Serif" font-size="10.00">QtEndian</text>
</a>
</g>
</g>
<!-- Node1&#45;&gt;Node23 -->
<g id="edge34_Node000001_Node000023" class="edge">
<title>Node1&#45;&gt;Node23</title>
<g id="a_edge34_Node000001_Node000023"><a xlink:title=" ">
<path fill="none" stroke="#63b8ff" d="M742.73,-329.92C792.7,-321.28 871.52,-307.34 939.5,-294 939.98,-293.91 940.46,-293.81 940.95,-293.71"/>
<polygon fill="#63b8ff" stroke="#63b8ff" points="948.95,-292.1 941.82,-297.21 945.02,-292.89 941.1,-293.68 941.1,-293.68 941.1,-293.68 945.02,-292.89 940.39,-290.15 948.95,-292.1 948.95,-292.1"/>
</a>
</g>
</g>
<!-- Node3 -->
<g id="Node000003" class="node">
<title>Node3</title>
<g id="a_Node000003"><a xlink:href="abstractpokitservice_8h.html" target="_top" xlink:title="Declares the AbstractPokitService class.">
<polygon fill="white" stroke="#666666" points="510,-184 385,-184 385,-165 510,-165 510,-184"/>
<text text-anchor="middle" x="447.5" y="-172" font-family="Helvetica,sans-Serif" font-size="10.00">abstractpokitservice.h</text>
</a>
</g>
</g>
<!-- Node2&#45;&gt;Node3 -->
<g id="edge2_Node000002_Node000003" class="edge">
<title>Node2&#45;&gt;Node3</title>
<g id="a_edge2_Node000002_Node000003"><a xlink:title=" ">
<path fill="none" stroke="#63b8ff" d="M350.14,-219.98C369.3,-211.23 399.32,-197.51 420.97,-187.62"/>
<polygon fill="#63b8ff" stroke="#63b8ff" points="428.52,-184.17 422.74,-190.77 424.89,-185.83 421.25,-187.49 421.25,-187.49 421.25,-187.49 424.89,-185.83 419.75,-184.22 428.52,-184.17 428.52,-184.17"/>
</a>
</g>
</g>
<!-- Node12 -->
<g id="Node000012" class="node">
<title>Node12</title>
<g id="a_Node000012"><a xlink:title=" ">
<polygon fill="#e0e0e0" stroke="#999999" points="638.5,-184 528.5,-184 528.5,-165 638.5,-165 638.5,-184"/>
<text text-anchor="middle" x="583.5" y="-172" font-family="Helvetica,sans-Serif" font-size="10.00">QBluetoothAddress</text>
</a>
</g>
</g>
<!-- Node2&#45;&gt;Node12 -->
<g id="edge12_Node000002_Node000012" class="edge">
<title>Node2&#45;&gt;Node12</title>
<g id="a_edge12_Node000002_Node000012"><a xlink:title=" ">
<path fill="none" stroke="#63b8ff" d="M371.99,-219.98C416.31,-210.66 487.36,-195.72 534.72,-185.76"/>
<polygon fill="#63b8ff" stroke="#63b8ff" points="542.69,-184.08 535.61,-189.25 538.78,-184.91 534.87,-185.73 534.87,-185.73 534.87,-185.73 538.78,-184.91 534.12,-182.21 542.69,-184.08 542.69,-184.08"/>
</a>
</g>
</g>
<!-- Node13 -->
<g id="Node000013" class="node">
<title>Node13</title>
<g id="a_Node000013"><a xlink:title=" ">
<polygon fill="#e0e0e0" stroke="#999999" points="249.5,-184 155.5,-184 155.5,-165 249.5,-165 249.5,-184"/>
<text text-anchor="middle" x="202.5" y="-172" font-family="Helvetica,sans-Serif" font-size="10.00">QBluetoothUuid</text>
</a>
</g>
</g>
<!-- Node2&#45;&gt;Node13 -->
<g id="edge13_Node000002_Node000013" class="edge">
<title>Node2&#45;&gt;Node13</title>
<g id="a_edge13_Node000002_Node000013"><a xlink:title=" ">
<path fill="none" stroke="#63b8ff" d="M310.77,-219.98C289.18,-211.11 255.19,-197.15 231.06,-187.24"/>
<polygon fill="#63b8ff" stroke="#63b8ff" points="223.6,-184.17 232.37,-183.88 227.3,-185.69 231,-187.21 231,-187.21 231,-187.21 227.3,-185.69 229.63,-190.54 223.6,-184.17 223.6,-184.17"/>
</a>
</g>
</g>
<!-- Node14 -->
<g id="Node000014" class="node">
<title>Node14</title>
<g id="a_Node000014"><a xlink:title=" ">
<polygon fill="#e0e0e0" stroke="#999999" points="367,-184 268,-184 268,-165 367,-165 367,-184"/>
<text text-anchor="middle" x="317.5" y="-172" font-family="Helvetica,sans-Serif" font-size="10.00">QVersionNumber</text>
</a>
</g>
</g>
<!-- Node2&#45;&gt;Node14 -->
<g id="edge14_Node000002_Node000014" class="edge">
<title>Node2&#45;&gt;Node14</title>
<g id="a_edge14_Node000002_Node000014"><a xlink:title=" ">
<path fill="none" stroke="#63b8ff" d="M329.19,-219.75C327.19,-212.18 324.25,-201.05 321.82,-191.84"/>
<polygon fill="#63b8ff" stroke="#63b8ff" points="319.77,-184.09 325.29,-190.9 320.79,-187.96 321.81,-191.82 321.81,-191.82 321.81,-191.82 320.79,-187.96 318.33,-192.74 319.77,-184.09 319.77,-184.09"/>
</a>
</g>
</g>
<!-- Node4 -->
<g id="Node000004" class="node">
<title>Node4</title>
<g id="a_Node000004"><a xlink:href="qtpokit__global_8h.html" target="_top" xlink:title="Global QtPokit library macros.">
<polygon fill="white" stroke="#666666" points="347,-74 252,-74 252,-55 347,-55 347,-74"/>
<text text-anchor="middle" x="299.5" y="-62" font-family="Helvetica,sans-Serif" font-size="10.00">qtpokit_global.h</text>
</a>
</g>
</g>
<!-- Node3&#45;&gt;Node4 -->
<g id="edge3_Node000003_Node000004" class="edge">
<title>Node3&#45;&gt;Node4</title>
<g id="a_edge3_Node000003_Node000004"><a xlink:title=" ">
<path fill="none" stroke="#63b8ff" d="M440.75,-164.81C430.24,-151.69 408.83,-126.6 386.5,-110 368.67,-96.75 346.32,-85.41 328.73,-77.5"/>
<polygon fill="#63b8ff" stroke="#63b8ff" points="321.02,-74.11 329.8,-74.03 324.69,-75.72 328.35,-77.33 328.35,-77.33 328.35,-77.33 324.69,-75.72 326.9,-80.62 321.02,-74.11 321.02,-74.11"/>
</a>
</g>
</g>
<!-- Node6 -->
<g id="Node000006" class="node">
<title>Node6</title>
<g id="a_Node000006"><a xlink:href="pokitproducts_8h.html" target="_top" xlink:title="Declares the PokitProduct enumeration, and related helper functions.">
<polygon fill="white" stroke="#666666" points="526.5,-129 434.5,-129 434.5,-110 526.5,-110 526.5,-129"/>
<text text-anchor="middle" x="480.5" y="-117" font-family="Helvetica,sans-Serif" font-size="10.00">pokitproducts.h</text>
</a>
</g>
</g>
<!-- Node3&#45;&gt;Node6 -->
<g id="edge5_Node000003_Node000006" class="edge">
<title>Node3&#45;&gt;Node6</title>
<g id="a_edge5_Node000003_Node000006"><a xlink:title=" ">
<path fill="none" stroke="#63b8ff" d="M452.95,-164.75C457.8,-156.95 465.02,-145.37 470.85,-136"/>
<polygon fill="#63b8ff" stroke="#63b8ff" points="475.15,-129.09 473.98,-137.78 473.04,-132.48 470.92,-135.88 470.92,-135.88 470.92,-135.88 473.04,-132.48 467.87,-133.98 475.15,-129.09 475.15,-129.09"/>
</a>
</g>
</g>
<!-- Node10 -->
<g id="Node000010" class="node">
<title>Node10</title>
<g id="a_Node000010"><a xlink:title=" ">
<polygon fill="#e0e0e0" stroke="#999999" points="378,-129 265,-129 265,-110 378,-110 378,-129"/>
<text text-anchor="middle" x="321.5" y="-117" font-family="Helvetica,sans-Serif" font-size="10.00">QLowEnergyService</text>
</a>
</g>
</g>
<!-- Node3&#45;&gt;Node10 -->
<g id="edge10_Node000003_Node000010" class="edge">
<title>Node3&#45;&gt;Node10</title>
<g id="a_edge10_Node000003_Node000010"><a xlink:title=" ">
<path fill="none" stroke="#63b8ff" d="M427.26,-164.98C406.26,-156.15 373.26,-142.27 349.71,-132.36"/>
<polygon fill="#63b8ff" stroke="#63b8ff" points="342.11,-129.17 350.88,-128.95 345.8,-130.72 349.49,-132.27 349.49,-132.27 349.49,-132.27 345.8,-130.72 348.09,-135.59 342.11,-129.17 342.11,-129.17"/>
</a>
</g>
</g>
<!-- Node11 -->
<g id="Node000011" class="node">
<title>Node11</title>
<g id="a_Node000011"><a xlink:title=" ">
<polygon fill="#e0e0e0" stroke="#999999" points="246.5,-129 190.5,-129 190.5,-110 246.5,-110 246.5,-129"/>
<text text-anchor="middle" x="218.5" y="-117" font-family="Helvetica,sans-Serif" font-size="10.00">QObject</text>
</a>
</g>
</g>
<!-- Node3&#45;&gt;Node11 -->
<g id="edge11_Node000003_Node000011" class="edge">
<title>Node3&#45;&gt;Node11</title>
<g id="a_edge11_Node000003_Node000011"><a xlink:title=" ">
<path fill="none" stroke="#63b8ff" d="M410.71,-164.98C367.71,-155.03 297.03,-138.68 254.42,-128.81"/>
<polygon fill="#63b8ff" stroke="#63b8ff" points="246.54,-126.99 255.15,-125.29 250.44,-127.89 254.33,-128.79 254.33,-128.79 254.33,-128.79 250.44,-127.89 253.52,-132.3 246.54,-126.99 246.54,-126.99"/>
</a>
</g>
</g>
<!-- Node5 -->
<g id="Node000005" class="node">
<title>Node5</title>
<g id="a_Node000005"><a xlink:title=" ">
<polygon fill="#e0e0e0" stroke="#999999" points="329,-19 270,-19 270,0 329,0 329,-19"/>
<text text-anchor="middle" x="299.5" y="-7" font-family="Helvetica,sans-Serif" font-size="10.00">QtGlobal</text>
</a>
</g>
</g>
<!-- Node4&#45;&gt;Node5 -->
<g id="edge4_Node000004_Node000005" class="edge">
<title>Node4&#45;&gt;Node5</title>
<g id="a_edge4_Node000004_Node000005"><a xlink:title=" ">
<path fill="none" stroke="#63b8ff" d="M299.5,-54.75C299.5,-47.26 299.5,-36.28 299.5,-27.13"/>
<polygon fill="#63b8ff" stroke="#63b8ff" points="299.5,-19.09 303.1,-27.09 299.5,-23.09 299.5,-27.09 299.5,-27.09 299.5,-27.09 299.5,-23.09 295.9,-27.09 299.5,-19.09 299.5,-19.09"/>
</a>
</g>
</g>
<!-- Node6&#45;&gt;Node4 -->
<g id="edge6_Node000006_Node000004" class="edge">
<title>Node6&#45;&gt;Node4</title>
<g id="a_edge6_Node000006_Node000004"><a xlink:title=" ">
<path fill="none" stroke="#63b8ff" d="M451.42,-109.98C420.24,-100.86 370.65,-86.33 336.66,-76.38"/>
<polygon fill="#63b8ff" stroke="#63b8ff" points="328.81,-74.08 337.5,-72.88 332.65,-75.21 336.49,-76.33 336.49,-76.33 336.49,-76.33 332.65,-75.21 335.47,-79.79 328.81,-74.08 328.81,-74.08"/>
</a>
</g>
</g>
<!-- Node7 -->
<g id="Node000007" class="node">
<title>Node7</title>
<g id="a_Node000007"><a xlink:title=" ">
<polygon fill="#e0e0e0" stroke="#999999" points="489.5,-74 365.5,-74 365.5,-55 489.5,-55 489.5,-74"/>
<text text-anchor="middle" x="427.5" y="-62" font-family="Helvetica,sans-Serif" font-size="10.00">QBluetoothDeviceInfo</text>
</a>
</g>
</g>
<!-- Node6&#45;&gt;Node7 -->
<g id="edge7_Node000006_Node000007" class="edge">
<title>Node6&#45;&gt;Node7</title>
<g id="a_edge7_Node000006_Node000007"><a xlink:title=" ">
<path fill="none" stroke="#63b8ff" d="M471.75,-109.75C463.64,-101.64 451.44,-89.44 441.9,-79.9"/>
<polygon fill="#63b8ff" stroke="#63b8ff" points="436.09,-74.09 444.29,-77.2 438.92,-76.92 441.75,-79.75 441.75,-79.75 441.75,-79.75 438.92,-76.92 439.2,-82.29 436.09,-74.09 436.09,-74.09"/>
</a>
</g>
</g>
<!-- Node8 -->
<g id="Node000008" class="node">
<title>Node8</title>
<g id="a_Node000008"><a xlink:title=" ">
<polygon fill="#e0e0e0" stroke="#999999" points="557.5,-74 507.5,-74 507.5,-55 557.5,-55 557.5,-74"/>
<text text-anchor="middle" x="532.5" y="-62" font-family="Helvetica,sans-Serif" font-size="10.00">QFlags</text>
</a>
</g>
</g>
<!-- Node6&#45;&gt;Node8 -->
<g id="edge8_Node000006_Node000008" class="edge">
<title>Node6&#45;&gt;Node8</title>
<g id="a_edge8_Node000006_Node000008"><a xlink:title=" ">
<path fill="none" stroke="#63b8ff" d="M489.09,-109.75C497.04,-101.64 509.01,-89.44 518.37,-79.9"/>
<polygon fill="#63b8ff" stroke="#63b8ff" points="524.07,-74.09 521.04,-82.32 521.27,-76.94 518.47,-79.8 518.47,-79.8 518.47,-79.8 521.27,-76.94 515.9,-77.28 524.07,-74.09 524.07,-74.09"/>
</a>
</g>
</g>
<!-- Node9 -->
<g id="Node000009" class="node">
<title>Node9</title>
<g id="a_Node000009"><a xlink:title=" ">
<polygon fill="#e0e0e0" stroke="#999999" points="629,-74 576,-74 576,-55 629,-55 629,-74"/>
<text text-anchor="middle" x="602.5" y="-62" font-family="Helvetica,sans-Serif" font-size="10.00">QString</text>
</a>
</g>
</g>
<!-- Node6&#45;&gt;Node9 -->
<g id="edge9_Node000006_Node000009" class="edge">
<title>Node6&#45;&gt;Node9</title>
<g id="a_edge9_Node000006_Node000009"><a xlink:title=" ">
<path fill="none" stroke="#63b8ff" d="M500.1,-109.98C520.43,-101.15 552.39,-87.27 575.19,-77.36"/>
<polygon fill="#63b8ff" stroke="#63b8ff" points="582.54,-74.17 576.64,-80.66 578.87,-75.76 575.2,-77.36 575.2,-77.36 575.2,-77.36 578.87,-75.76 573.77,-74.06 582.54,-74.17 582.54,-74.17"/>
</a>
</g>
</g>
<!-- Node15&#45;&gt;Node2 -->
<g id="edge16_Node000015_Node000002" class="edge">
<title>Node15&#45;&gt;Node2</title>
<g id="a_edge16_Node000015_Node000002"><a xlink:title=" ">
<path fill="none" stroke="#63b8ff" d="M331.5,-274.75C331.5,-267.26 331.5,-256.28 331.5,-247.13"/>
<polygon fill="#63b8ff" stroke="#63b8ff" points="331.5,-239.09 335.1,-247.09 331.5,-243.09 331.5,-247.09 331.5,-247.09 331.5,-247.09 331.5,-243.09 327.9,-247.09 331.5,-239.09 331.5,-239.09"/>
</a>
</g>
</g>
<!-- Node16 -->
<g id="Node000016" class="node">
<title>Node16</title>
<g id="a_Node000016"><a xlink:href="abstractpokitservice__p_8h.html" target="_top" xlink:title="Declares the AbstractPokitServicePrivate class.">
<polygon fill="white" stroke="#666666" points="137,-184 0,-184 0,-165 137,-165 137,-184"/>
<text text-anchor="middle" x="68.5" y="-172" font-family="Helvetica,sans-Serif" font-size="10.00">abstractpokitservice_p.h</text>
</a>
</g>
</g>
<!-- Node15&#45;&gt;Node16 -->
<g id="edge17_Node000015_Node000016" class="edge">
<title>Node15&#45;&gt;Node16</title>
<g id="a_edge17_Node000015_Node000016"><a xlink:title=" ">
<path fill="none" stroke="#63b8ff" d="M310.42,-274.84C263.47,-255.56 150.22,-209.06 97.01,-187.21"/>
<polygon fill="#63b8ff" stroke="#63b8ff" points="89.31,-184.05 98.08,-183.76 93.01,-185.57 96.71,-187.09 96.71,-187.09 96.71,-187.09 93.01,-185.57 95.35,-190.42 89.31,-184.05 89.31,-184.05"/>
</a>
</g>
</g>
<!-- Node16&#45;&gt;Node4 -->
<g id="edge18_Node000016_Node000004" class="edge">
<title>Node16&#45;&gt;Node4</title>
<g id="a_edge18_Node000016_Node000004"><a xlink:title=" ">
<path fill="none" stroke="#63b8ff" d="M62.58,-164.59C54.49,-151.19 42.38,-125.73 55.5,-110 79.01,-81.82 179.39,-71.44 243.85,-67.65"/>
<polygon fill="#63b8ff" stroke="#63b8ff" points="251.92,-67.19 244.13,-71.24 247.92,-67.42 243.93,-67.64 243.93,-67.64 243.93,-67.64 247.92,-67.42 243.73,-64.05 251.92,-67.19 251.92,-67.19"/>
</a>
</g>
</g>
<!-- Node16&#45;&gt;Node6 -->
<g id="edge19_Node000016_Node000006" class="edge">
<title>Node16&#45;&gt;Node6</title>
<g id="a_edge19_Node000016_Node000006"><a xlink:title=" ">
<path fill="none" stroke="#63b8ff" d="M134.69,-164.98C215.68,-154.57 351.24,-137.13 426.32,-127.47"/>
<polygon fill="#63b8ff" stroke="#63b8ff" points="434.29,-126.45 426.81,-131.04 430.32,-126.96 426.35,-127.47 426.35,-127.47 426.35,-127.47 430.32,-126.96 425.89,-123.9 434.29,-126.45 434.29,-126.45"/>
</a>
</g>
</g>
<!-- Node16&#45;&gt;Node10 -->
<g id="edge21_Node000016_Node000010" class="edge">
<title>Node16&#45;&gt;Node10</title>
<g id="a_edge21_Node000016_Node000010"><a xlink:title=" ">
<path fill="none" stroke="#63b8ff" d="M109.15,-164.98C153.65,-155.66 224.98,-140.72 272.53,-130.76"/>
<polygon fill="#63b8ff" stroke="#63b8ff" points="280.53,-129.08 273.44,-134.25 276.62,-129.9 272.7,-130.72 272.7,-130.72 272.7,-130.72 276.62,-129.9 271.96,-127.2 280.53,-129.08 280.53,-129.08"/>
</a>
</g>
</g>
<!-- Node16&#45;&gt;Node11 -->
<g id="edge22_Node000016_Node000011" class="edge">
<title>Node16&#45;&gt;Node11</title>
<g id="a_edge22_Node000016_Node000011"><a xlink:title=" ">
<path fill="none" stroke="#63b8ff" d="M92.6,-164.98C118.03,-156 158.26,-141.79 186.37,-131.85"/>
<polygon fill="#63b8ff" stroke="#63b8ff" points="193.96,-129.17 187.62,-135.23 190.19,-130.5 186.42,-131.84 186.42,-131.84 186.42,-131.84 190.19,-130.5 185.22,-128.44 193.96,-129.17 193.96,-129.17"/>
</a>
</g>
</g>
<!-- Node17 -->
<g id="Node000017" class="node">
<title>Node17</title>
<g id="a_Node000017"><a xlink:title=" ">
<polygon fill="#e0e0e0" stroke="#999999" points="172,-129 65,-129 65,-110 172,-110 172,-129"/>
<text text-anchor="middle" x="118.5" y="-117" font-family="Helvetica,sans-Serif" font-size="10.00">QLoggingCategory</text>
</a>
</g>
</g>
<!-- Node16&#45;&gt;Node17 -->
<g id="edge20_Node000016_Node000017" class="edge">
<title>Node16&#45;&gt;Node17</title>
<g id="a_edge20_Node000016_Node000017"><a xlink:title=" ">
<path fill="none" stroke="#63b8ff" d="M76.76,-164.75C84.33,-156.72 95.69,-144.67 104.65,-135.18"/>
<polygon fill="#63b8ff" stroke="#63b8ff" points="110.4,-129.09 107.53,-137.38 107.65,-132 104.91,-134.91 104.91,-134.91 104.91,-134.91 107.65,-132 102.29,-132.44 110.4,-129.09 110.4,-129.09"/>
</a>
</g>
</g>
<!-- Node18&#45;&gt;Node6 -->
<g id="edge24_Node000018_Node000006" class="edge">
<title>Node18&#45;&gt;Node6</title>
<g id="a_edge24_Node000018_Node000006"><a xlink:title=" ">
<path fill="none" stroke="#63b8ff" d="M655.22,-274.87C661.36,-253.56 673.79,-197.76 647.5,-165 633.31,-147.32 577.7,-135.01 534.5,-127.89"/>
<polygon fill="#63b8ff" stroke="#63b8ff" points="526.59,-126.62 535.06,-124.33 530.54,-127.25 534.49,-127.89 534.49,-127.89 534.49,-127.89 530.54,-127.25 533.92,-131.44 526.59,-126.62 526.59,-126.62"/>
</a>
</g>
</g>
<!-- Node18&#45;&gt;Node19 -->
<g id="edge25_Node000018_Node000019" class="edge">
<title>Node18&#45;&gt;Node19</title>
<g id="a_edge25_Node000018_Node000019"><a xlink:title=" ">
<path fill="none" stroke="#63b8ff" d="M669.37,-274.98C686.57,-266.3 713.42,-252.75 732.96,-242.88"/>
<polygon fill="#63b8ff" stroke="#63b8ff" points="740.32,-239.17 734.8,-245.99 736.75,-240.97 733.18,-242.78 733.18,-242.78 733.18,-242.78 736.75,-240.97 731.56,-239.56 740.32,-239.17 740.32,-239.17"/>
</a>
</g>
</g>
<!-- Node20&#45;&gt;Node3 -->
<g id="edge27_Node000020_Node000003" class="edge">
<title>Node20&#45;&gt;Node3</title>
<g id="a_edge27_Node000020_Node000003"><a xlink:title=" ">
<path fill="none" stroke="#63b8ff" d="M482.56,-219.75C476.27,-211.8 466.84,-199.91 459.35,-190.45"/>
<polygon fill="#63b8ff" stroke="#63b8ff" points="454.31,-184.09 462.1,-188.12 456.79,-187.22 459.28,-190.36 459.28,-190.36 459.28,-190.36 456.79,-187.22 456.45,-192.59 454.31,-184.09 454.31,-184.09"/>
</a>
</g>
</g>
<!-- Node20&#45;&gt;Node12 -->
<g id="edge28_Node000020_Node000012" class="edge">
<title>Node20&#45;&gt;Node12</title>
<g id="a_edge28_Node000020_Node000012"><a xlink:title=" ">
<path fill="none" stroke="#63b8ff" d="M504.6,-219.98C519.86,-211.38 543.61,-197.99 561.07,-188.15"/>
<polygon fill="#63b8ff" stroke="#63b8ff" points="568.12,-184.17 562.92,-191.24 564.64,-186.13 561.15,-188.1 561.15,-188.1 561.15,-188.1 564.64,-186.13 559.39,-184.96 568.12,-184.17 568.12,-184.17"/>
</a>
</g>
</g>
<!-- Node20&#45;&gt;Node13 -->
<g id="edge29_Node000020_Node000013" class="edge">
<title>Node20&#45;&gt;Node13</title>
<g id="a_edge29_Node000020_Node000013"><a xlink:title=" ">
<path fill="none" stroke="#63b8ff" d="M443.39,-219.98C392.6,-210.61 310.99,-195.53 257.05,-185.57"/>
<polygon fill="#63b8ff" stroke="#63b8ff" points="248.97,-184.08 257.49,-181.99 252.91,-184.81 256.84,-185.53 256.84,-185.53 256.84,-185.53 252.91,-184.81 256.19,-189.08 248.97,-184.08 248.97,-184.08"/>
</a>
</g>
</g>
<!-- Node20&#45;&gt;Node14 -->
<g id="edge30_Node000020_Node000014" class="edge">
<title>Node20&#45;&gt;Node14</title>
<g id="a_edge30_Node000020_Node000014"><a xlink:title=" ">
<path fill="none" stroke="#63b8ff" d="M461.87,-219.98C432.36,-210.89 385.51,-196.46 353.23,-186.51"/>
<polygon fill="#63b8ff" stroke="#63b8ff" points="345.35,-184.08 354.06,-183 349.17,-185.26 353,-186.44 353,-186.44 353,-186.44 349.17,-185.26 351.94,-189.88 345.35,-184.08 345.35,-184.08"/>
</a>
</g>
</g>
</g>
</svg>
