<?xml version="1.0" encoding="UTF-8" standalone="no"?>
<!DOCTYPE svg PUBLIC "-//W3C//DTD SVG 1.1//EN"
 "http://www.w3.org/Graphics/SVG/1.1/DTD/svg11.dtd">
<!-- Generated by graphviz version 2.43.0 (0)
 -->
<!-- Title: InfoCommand::supportedOptions Pages: 1 -->
<svg width="574pt" height="39pt"
 viewBox="0.00 0.00 574.00 39.00" xmlns="http://www.w3.org/2000/svg" xmlns:xlink="http://www.w3.org/1999/xlink">
<g id="graph0" class="graph" transform="scale(1 1) rotate(0) translate(4 35)">
<title>InfoCommand::supportedOptions</title>
<!-- Node1 -->
<g id="node1" class="node">
<title>Node1</title>
<g id="a_node1"><a xlink:title="Returns a list of CLI option names supported by this command.">
<polygon fill="#bfbfbf" stroke="black" points="0,-6 0,-25 178,-25 178,-6 0,-6"/>
<text text-anchor="middle" x="89" y="-13" font-family="Helvetica,sans-Serif" font-size="10.00">InfoCommand::supportedOptions</text>
</a>
</g>
</g>
<!-- Node2 -->
<g id="node2" class="node">
<title>Node2</title>
<g id="a_node2"><a xlink:href="classAbstractCommand.html#a1ceca3c5b4cb24277dd4d4054f45db18" target="_top" xlink:title="Returns a list of CLI option names supported by this command.">
<polygon fill="none" stroke="black" points="214,-0.5 214,-30.5 376,-30.5 376,-0.5 214,-0.5"/>
<text text-anchor="start" x="222" y="-18.5" font-family="Helvetica,sans-Serif" font-size="10.00">AbstractCommand::supported</text>
<text text-anchor="middle" x="295" y="-7.5" font-family="Helvetica,sans-Serif" font-size="10.00">Options</text>
</a>
</g>
</g>
<!-- Node1&#45;&gt;Node2 -->
<g id="edge1" class="edge">
<title>Node1&#45;&gt;Node2</title>
<path fill="none" stroke="midnightblue" d="M178.29,-15.5C186.71,-15.5 195.26,-15.5 203.7,-15.5"/>
<polygon fill="midnightblue" stroke="midnightblue" points="203.93,-19 213.93,-15.5 203.92,-12 203.93,-19"/>
</g>
<!-- Node3 -->
<g id="node3" class="node">
<title>Node3</title>
<g id="a_node3"><a xlink:href="classAbstractCommand.html#afd6f41cfc925751415cfa45e3b2d0b4a" target="_top" xlink:title="Returns a list of CLI option names required by this command.">
<polygon fill="none" stroke="black" points="412,-0.5 412,-30.5 566,-30.5 566,-0.5 412,-0.5"/>
<text text-anchor="start" x="420" y="-18.5" font-family="Helvetica,sans-Serif" font-size="10.00">AbstractCommand::required</text>
<text text-anchor="middle" x="489" y="-7.5" font-family="Helvetica,sans-Serif" font-size="10.00">Options</text>
</a>
</g>
</g>
<!-- Node2&#45;&gt;Node3 -->
<g id="edge2" class="edge">
<title>Node2&#45;&gt;Node3</title>
<path fill="none" stroke="midnightblue" d="M376.03,-15.5C384.45,-15.5 393.03,-15.5 401.51,-15.5"/>
<polygon fill="midnightblue" stroke="midnightblue" points="401.79,-19 411.79,-15.5 401.79,-12 401.79,-19"/>
</g>
</g>
</svg>
