<?xml version="1.0" encoding="UTF-8" standalone="no"?>
<!DOCTYPE svg PUBLIC "-//W3C//DTD SVG 1.1//EN"
 "http://www.w3.org/Graphics/SVG/1.1/DTD/svg11.dtd">
<!-- Generated by graphviz version 2.43.0 (0)
 -->
<!-- Title: MultimeterService Pages: 1 -->
<svg width="564pt" height="152pt"
 viewBox="0.00 0.00 563.50 152.00" xmlns="http://www.w3.org/2000/svg" xmlns:xlink="http://www.w3.org/1999/xlink">
<g id="graph0" class="graph" transform="scale(1 1) rotate(0) translate(4 148)">
<title>MultimeterService</title>
<!-- Node1 -->
<g id="node1" class="node">
<title>Node1</title>
<g id="a_node1"><a xlink:title="The MultimeterService class accesses the Pokit Status service of Pokit devices.">
<polygon fill="#bfbfbf" stroke="black" points="366,-0.5 366,-19.5 473,-19.5 473,-0.5 366,-0.5"/>
<text text-anchor="middle" x="419.5" y="-7.5" font-family="Helvetica,sans-Serif" font-size="10.00">MultimeterService</text>
</a>
</g>
</g>
<!-- Node2 -->
<g id="node2" class="node">
<title>Node2</title>
<g id="a_node2"><a xlink:href="classAbstractPokitService.html" target="_top" xlink:title="The AbstractPokitService class provides a common base for Pokit services classes.">
<polygon fill="none" stroke="black" points="313.5,-67.5 313.5,-86.5 431.5,-86.5 431.5,-67.5 313.5,-67.5"/>
<text text-anchor="middle" x="372.5" y="-74.5" font-family="Helvetica,sans-Serif" font-size="10.00">AbstractPokitService</text>
</a>
</g>
</g>
<!-- Node2&#45;&gt;Node1 -->
<g id="edge1" class="edge">
<title>Node2&#45;&gt;Node1</title>
<path fill="none" stroke="midnightblue" d="M384.86,-58.9C393.99,-46.27 406.05,-29.6 413.26,-19.63"/>
<polygon fill="midnightblue" stroke="midnightblue" points="381.86,-57.08 378.84,-67.23 387.53,-61.18 381.86,-57.08"/>
</g>
<!-- Node4 -->
<g id="node4" class="node">
<title>Node4</title>
<g id="a_node4"><a xlink:href="classAbstractPokitServicePrivate.html" target="_top" xlink:title="The AbstractPokitServicePrivate class provides private implementation for AbstractPokitService.">
<polygon fill="none" stroke="black" points="191.5,-0.5 191.5,-19.5 343.5,-19.5 343.5,-0.5 191.5,-0.5"/>
<text text-anchor="middle" x="267.5" y="-7.5" font-family="Helvetica,sans-Serif" font-size="10.00">AbstractPokitServicePrivate</text>
</a>
</g>
</g>
<!-- Node2&#45;&gt;Node4 -->
<g id="edge11" class="edge">
<title>Node2&#45;&gt;Node4</title>
<path fill="none" stroke="#9a32cd" stroke-dasharray="5,2" d="M321.92,-64.11C311.9,-60.32 301.89,-55.38 293.5,-49 283.32,-41.26 275.71,-28.35 271.43,-19.76"/>
<polygon fill="#9a32cd" stroke="#9a32cd" points="320.88,-67.46 331.48,-67.41 323.17,-60.84 320.88,-67.46"/>
<text text-anchor="middle" x="307.5" y="-41" font-family="Helvetica,sans-Serif" font-size="10.00"> q_ptr</text>
</g>
<!-- Node3 -->
<g id="node3" class="node">
<title>Node3</title>
<g id="a_node3"><a target="_parent" xlink:href="https://doc.qt.io/qt-5/qobject.html" xlink:title=" ">
<polygon fill="none" stroke="#bfbfbf" points="153.5,-124.5 153.5,-143.5 209.5,-143.5 209.5,-124.5 153.5,-124.5"/>
<text text-anchor="middle" x="181.5" y="-131.5" font-family="Helvetica,sans-Serif" font-size="10.00">QObject</text>
</a>
</g>
</g>
<!-- Node3&#45;&gt;Node2 -->
<g id="edge2" class="edge">
<title>Node3&#45;&gt;Node2</title>
<path fill="none" stroke="midnightblue" d="M219.42,-122.08C255.72,-111.63 309.73,-96.08 342.94,-86.51"/>
<polygon fill="midnightblue" stroke="midnightblue" points="218.32,-118.75 209.68,-124.88 220.26,-125.48 218.32,-118.75"/>
</g>
<!-- Node3&#45;&gt;Node4 -->
<g id="edge4" class="edge">
<title>Node3&#45;&gt;Node4</title>
<path fill="none" stroke="midnightblue" d="M173.2,-114.76C168.18,-100.81 164.18,-81.56 172.5,-67 186.46,-42.56 215.71,-27.73 238.09,-19.52"/>
<polygon fill="midnightblue" stroke="midnightblue" points="170.05,-116.29 177.06,-124.22 176.53,-113.64 170.05,-116.29"/>
</g>
<!-- Node5 -->
<g id="node5" class="node">
<title>Node5</title>
<g id="a_node5"><a target="_parent" xlink:href="https://doc.qt.io/qt-5/qlowenergycontroller.html" xlink:title=" ">
<polygon fill="none" stroke="#bfbfbf" points="0,-67.5 0,-86.5 125,-86.5 125,-67.5 0,-67.5"/>
<text text-anchor="middle" x="62.5" y="-74.5" font-family="Helvetica,sans-Serif" font-size="10.00">QLowEnergyController</text>
</a>
</g>
</g>
<!-- Node3&#45;&gt;Node5 -->
<g id="edge6" class="edge">
<title>Node3&#45;&gt;Node5</title>
<path fill="none" stroke="midnightblue" d="M153.58,-120.1C131.19,-109.75 100.39,-95.51 80.96,-86.53"/>
<polygon fill="midnightblue" stroke="midnightblue" points="152.36,-123.39 162.91,-124.41 155.3,-117.03 152.36,-123.39"/>
</g>
<!-- Node6 -->
<g id="node6" class="node">
<title>Node6</title>
<g id="a_node6"><a target="_parent" xlink:href="https://doc.qt.io/qt-5/qlowenergyservice.html" xlink:title=" ">
<polygon fill="none" stroke="#bfbfbf" points="182,-67.5 182,-86.5 295,-86.5 295,-67.5 182,-67.5"/>
<text text-anchor="middle" x="238.5" y="-74.5" font-family="Helvetica,sans-Serif" font-size="10.00">QLowEnergyService</text>
</a>
</g>
</g>
<!-- Node3&#45;&gt;Node6 -->
<g id="edge8" class="edge">
<title>Node3&#45;&gt;Node6</title>
<path fill="none" stroke="midnightblue" d="M197.65,-117.42C207.96,-107.47 220.94,-94.94 229.47,-86.71"/>
<polygon fill="midnightblue" stroke="midnightblue" points="195.17,-114.94 190.41,-124.41 200.03,-119.98 195.17,-114.94"/>
</g>
<!-- Node4&#45;&gt;Node2 -->
<g id="edge3" class="edge">
<title>Node4&#45;&gt;Node2</title>
<path fill="none" stroke="#9a32cd" stroke-dasharray="5,2" d="M298.46,-23.72C307.42,-27.85 317.06,-32.73 325.5,-38 339.57,-46.78 354.17,-59.19 363.29,-67.42"/>
<polygon fill="#9a32cd" stroke="#9a32cd" points="299.65,-20.42 289.09,-19.55 296.8,-26.81 299.65,-20.42"/>
<text text-anchor="middle" x="354.5" y="-41" font-family="Helvetica,sans-Serif" font-size="10.00"> d_ptr</text>
</g>
<!-- Node5&#45;&gt;Node4 -->
<g id="edge5" class="edge">
<title>Node5&#45;&gt;Node4</title>
<path fill="none" stroke="#9a32cd" stroke-dasharray="5,2" d="M70.8,-58.62C75.29,-51.09 81.55,-42.89 89.5,-38 106.54,-27.51 151.04,-20.76 191.28,-16.64"/>
<polygon fill="#9a32cd" stroke="#9a32cd" points="67.68,-57.03 66.08,-67.5 73.86,-60.31 67.68,-57.03"/>
<text text-anchor="middle" x="114.5" y="-41" font-family="Helvetica,sans-Serif" font-size="10.00"> controller</text>
</g>
<!-- Node6&#45;&gt;Node4 -->
<g id="edge7" class="edge">
<title>Node6&#45;&gt;Node4</title>
<path fill="none" stroke="#9a32cd" stroke-dasharray="5,2" d="M233.41,-57.54C232.56,-51.1 232.71,-44 235.5,-38 239.05,-30.35 245.96,-24.09 252.44,-19.53"/>
<polygon fill="#9a32cd" stroke="#9a32cd" points="230,-58.36 235.49,-67.42 236.85,-56.91 230,-58.36"/>
<text text-anchor="middle" x="255" y="-41" font-family="Helvetica,sans-Serif" font-size="10.00"> service</text>
</g>
<!-- Node7 -->
<g id="node7" class="node">
<title>Node7</title>
<g id="a_node7"><a target="_parent" xlink:href="https://doc.qt.io/qt-5/qbluetoothuuid.html" xlink:title=" ">
<polygon fill="none" stroke="#bfbfbf" points="456.5,-67.5 456.5,-86.5 550.5,-86.5 550.5,-67.5 456.5,-67.5"/>
<text text-anchor="middle" x="503.5" y="-74.5" font-family="Helvetica,sans-Serif" font-size="10.00">QBluetoothUuid</text>
</a>
</g>
</g>
<!-- Node7&#45;&gt;Node1 -->
<g id="edge12" class="edge">
<title>Node7&#45;&gt;Node1</title>
<path fill="none" stroke="#9a32cd" stroke-dasharray="5,2" d="M497.91,-57.44C495.09,-50.61 491.06,-43.27 485.5,-38 476.69,-29.66 464.96,-23.74 453.82,-19.62"/>
<polygon fill="#9a32cd" stroke="#9a32cd" points="494.78,-59.08 501.38,-67.37 501.38,-56.77 494.78,-59.08"/>
<text text-anchor="middle" x="525" y="-41" font-family="Helvetica,sans-Serif" font-size="10.00"> serviceUuid</text>
</g>
<!-- Node7&#45;&gt;Node4 -->
<g id="edge9" class="edge">
<title>Node7&#45;&gt;Node4</title>
<path fill="none" stroke="#9a32cd" stroke-dasharray="5,2" d="M465.09,-64.52C439.03,-56.82 403.76,-46.55 372.5,-38 349.08,-31.59 322.6,-24.79 302.09,-19.61"/>
<polygon fill="#9a32cd" stroke="#9a32cd" points="464.37,-67.96 474.95,-67.44 466.36,-61.25 464.37,-67.96"/>
<text text-anchor="middle" x="440" y="-41" font-family="Helvetica,sans-Serif" font-size="10.00"> serviceUuid</text>
</g>
<!-- Node8 -->
<g id="node8" class="node">
<title>Node8</title>
<g id="a_node8"><a target="_parent" xlink:href="https://doc.qt.io/qt-5/quuid.html" xlink:title=" ">
<polygon fill="none" stroke="#bfbfbf" points="480,-124.5 480,-143.5 527,-143.5 527,-124.5 480,-124.5"/>
<text text-anchor="middle" x="503.5" y="-131.5" font-family="Helvetica,sans-Serif" font-size="10.00">QUuid</text>
</a>
</g>
</g>
<!-- Node8&#45;&gt;Node7 -->
<g id="edge10" class="edge">
<title>Node8&#45;&gt;Node7</title>
<path fill="none" stroke="midnightblue" d="M503.5,-114.12C503.5,-104.82 503.5,-94.06 503.5,-86.71"/>
<polygon fill="midnightblue" stroke="midnightblue" points="500,-114.41 503.5,-124.41 507,-114.41 500,-114.41"/>
</g>
</g>
</svg>
