<?xml version="1.0" encoding="UTF-8" standalone="no"?>
<!DOCTYPE svg PUBLIC "-//W3C//DTD SVG 1.1//EN"
 "http://www.w3.org/Graphics/SVG/1.1/DTD/svg11.dtd">
<!-- Generated by graphviz version 2.43.0 (0)
 -->
<!-- Title: ScanCommand::toJson Pages: 1 -->
<svg width="294pt" height="743pt"
 viewBox="0.00 0.00 294.00 742.50" xmlns="http://www.w3.org/2000/svg" xmlns:xlink="http://www.w3.org/1999/xlink">
<g id="graph0" class="graph" transform="scale(1 1) rotate(0) translate(4 738.5)">
<title>ScanCommand::toJson</title>
<!-- Node1 -->
<g id="node1" class="node">
<title>Node1</title>
<g id="a_node1"><a xlink:title="Returns info as a JSON object.">
<polygon fill="#bfbfbf" stroke="black" points="0,-362.5 0,-381.5 126,-381.5 126,-362.5 0,-362.5"/>
<text text-anchor="middle" x="63" y="-369.5" font-family="Helvetica,sans-Serif" font-size="10.00">ScanCommand::toJson</text>
</a>
</g>
</g>
<!-- Node1&#45;&gt;Node1 -->
<g id="edge15" class="edge">
<title>Node1&#45;&gt;Node1</title>
<path fill="none" stroke="midnightblue" d="M38.34,-381.76C26.34,-390.57 34.56,-400 63,-400 82.11,-400 92.09,-395.74 92.94,-390.27"/>
<polygon fill="midnightblue" stroke="midnightblue" points="95.9,-388.41 87.66,-381.76 89.95,-392.1 95.9,-388.41"/>
</g>
<!-- Node2 -->
<g id="node2" class="node">
<title>Node2</title>
<g id="a_node2"><a target="_parent" xlink:href="https://doc.qt.io/qt-5/qbluetoothdeviceinfo.html#address" xlink:title=" ">
<polygon fill="none" stroke="black" points="162,-704 162,-734 286,-734 286,-704 162,-704"/>
<text text-anchor="start" x="170" y="-722" font-family="Helvetica,sans-Serif" font-size="10.00">QBluetoothDeviceInfo</text>
<text text-anchor="middle" x="224" y="-711" font-family="Helvetica,sans-Serif" font-size="10.00">::address</text>
</a>
</g>
</g>
<!-- Node1&#45;&gt;Node2 -->
<g id="edge1" class="edge">
<title>Node1&#45;&gt;Node2</title>
<path fill="none" stroke="midnightblue" d="M64.04,-381.64C64.75,-424.37 73.18,-598.75 162,-695 162.89,-695.96 163.82,-696.89 164.79,-697.78"/>
<polygon fill="midnightblue" stroke="midnightblue" points="162.8,-700.66 172.89,-703.91 167.03,-695.08 162.8,-700.66"/>
</g>
<!-- Node3 -->
<g id="node3" class="node">
<title>Node3</title>
<g id="a_node3"><a target="_parent" xlink:href="https://doc.qt.io/qt-5/qbluetoothdeviceinfo.html#coreConfigurations" xlink:title=" ">
<polygon fill="none" stroke="black" points="162,-655 162,-685 286,-685 286,-655 162,-655"/>
<text text-anchor="start" x="170" y="-673" font-family="Helvetica,sans-Serif" font-size="10.00">QBluetoothDeviceInfo</text>
<text text-anchor="middle" x="224" y="-662" font-family="Helvetica,sans-Serif" font-size="10.00">::coreConfigurations</text>
</a>
</g>
</g>
<!-- Node1&#45;&gt;Node3 -->
<g id="edge2" class="edge">
<title>Node1&#45;&gt;Node3</title>
<path fill="none" stroke="midnightblue" d="M64.66,-381.73C67.79,-420.54 84.47,-566 162,-646 162.94,-646.97 163.91,-647.89 164.93,-648.78"/>
<polygon fill="midnightblue" stroke="midnightblue" points="163.22,-651.86 173.36,-654.92 167.34,-646.21 163.22,-651.86"/>
</g>
<!-- Node4 -->
<g id="node4" class="node">
<title>Node4</title>
<g id="a_node4"><a target="_parent" xlink:href="https://doc.qt.io/qt-5/qbluetoothdeviceinfo.html#deviceUuid" xlink:title=" ">
<polygon fill="none" stroke="black" points="162,-606 162,-636 286,-636 286,-606 162,-606"/>
<text text-anchor="start" x="170" y="-624" font-family="Helvetica,sans-Serif" font-size="10.00">QBluetoothDeviceInfo</text>
<text text-anchor="middle" x="224" y="-613" font-family="Helvetica,sans-Serif" font-size="10.00">::deviceUuid</text>
</a>
</g>
</g>
<!-- Node1&#45;&gt;Node4 -->
<g id="edge3" class="edge">
<title>Node1&#45;&gt;Node4</title>
<path fill="none" stroke="midnightblue" d="M65.5,-381.61C71.31,-415.77 95.46,-532.81 162,-597 163.1,-598.06 164.25,-599.08 165.45,-600.05"/>
<polygon fill="midnightblue" stroke="midnightblue" points="163.68,-603.08 173.9,-605.86 167.64,-597.31 163.68,-603.08"/>
</g>
<!-- Node5 -->
<g id="node5" class="node">
<title>Node5</title>
<g id="a_node5"><a target="_parent" xlink:href="https://doc.qt.io/qt-5/qbluetoothdeviceinfo.html#isCached" xlink:title=" ">
<polygon fill="none" stroke="black" points="162,-557 162,-587 286,-587 286,-557 162,-557"/>
<text text-anchor="start" x="170" y="-575" font-family="Helvetica,sans-Serif" font-size="10.00">QBluetoothDeviceInfo</text>
<text text-anchor="middle" x="224" y="-564" font-family="Helvetica,sans-Serif" font-size="10.00">::isCached</text>
</a>
</g>
</g>
<!-- Node1&#45;&gt;Node5 -->
<g id="edge4" class="edge">
<title>Node1&#45;&gt;Node5</title>
<path fill="none" stroke="midnightblue" d="M66.92,-381.81C76.08,-410.99 106.99,-498.3 162,-547 163.74,-548.54 165.59,-549.99 167.52,-551.37"/>
<polygon fill="midnightblue" stroke="midnightblue" points="166.05,-554.57 176.4,-556.86 169.73,-548.62 166.05,-554.57"/>
</g>
<!-- Node6 -->
<g id="node6" class="node">
<title>Node6</title>
<g id="a_node6"><a target="_parent" xlink:href="https://doc.qt.io/qt-5/qbytearray.html#isEmpty" xlink:title=" ">
<polygon fill="none" stroke="black" points="165,-518.5 165,-537.5 283,-537.5 283,-518.5 165,-518.5"/>
<text text-anchor="middle" x="224" y="-525.5" font-family="Helvetica,sans-Serif" font-size="10.00">QByteArray::isEmpty</text>
</a>
</g>
</g>
<!-- Node1&#45;&gt;Node6 -->
<g id="edge5" class="edge">
<title>Node1&#45;&gt;Node6</title>
<path fill="none" stroke="midnightblue" d="M68.17,-381.6C79.47,-406.5 113.18,-473.71 162,-509 164.7,-510.95 167.6,-512.7 170.62,-514.28"/>
<polygon fill="midnightblue" stroke="midnightblue" points="169.41,-517.57 179.97,-518.5 172.29,-511.19 169.41,-517.57"/>
</g>
<!-- Node7 -->
<g id="node7" class="node">
<title>Node7</title>
<g id="a_node7"><a target="_parent" xlink:href="https://doc.qt.io/qt-5/quuid.html#isNull" xlink:title=" ">
<polygon fill="none" stroke="black" points="184,-480.5 184,-499.5 264,-499.5 264,-480.5 184,-480.5"/>
<text text-anchor="middle" x="224" y="-487.5" font-family="Helvetica,sans-Serif" font-size="10.00">QUuid::isNull</text>
</a>
</g>
</g>
<!-- Node1&#45;&gt;Node7 -->
<g id="edge6" class="edge">
<title>Node1&#45;&gt;Node7</title>
<path fill="none" stroke="midnightblue" d="M70.95,-381.71C85.57,-401.43 121.5,-446.38 162,-471 165.84,-473.33 169.98,-475.4 174.25,-477.23"/>
<polygon fill="midnightblue" stroke="midnightblue" points="173.11,-480.54 183.7,-480.87 175.62,-474.01 173.11,-480.54"/>
</g>
<!-- Node8 -->
<g id="node8" class="node">
<title>Node8</title>
<g id="a_node8"><a target="_parent" xlink:href="https://doc.qt.io/qt-5/qbluetoothdeviceinfo.html#isValid" xlink:title=" ">
<polygon fill="none" stroke="black" points="162,-431 162,-461 286,-461 286,-431 162,-431"/>
<text text-anchor="start" x="170" y="-449" font-family="Helvetica,sans-Serif" font-size="10.00">QBluetoothDeviceInfo</text>
<text text-anchor="middle" x="224" y="-438" font-family="Helvetica,sans-Serif" font-size="10.00">::isValid</text>
</a>
</g>
</g>
<!-- Node1&#45;&gt;Node8 -->
<g id="edge7" class="edge">
<title>Node1&#45;&gt;Node8</title>
<path fill="none" stroke="midnightblue" d="M81.45,-381.55C100.86,-392.03 133.27,-409.05 162,-422 165.79,-423.71 169.75,-425.42 173.74,-427.1"/>
<polygon fill="midnightblue" stroke="midnightblue" points="172.48,-430.36 183.06,-430.93 175.15,-423.89 172.48,-430.36"/>
</g>
<!-- Node9 -->
<g id="node9" class="node">
<title>Node9</title>
<g id="a_node9"><a target="_parent" xlink:href="https://doc.qt.io/qt-5/qbluetoothdeviceinfo.html#majorDeviceClass" xlink:title=" ">
<polygon fill="none" stroke="black" points="162,-382 162,-412 286,-412 286,-382 162,-382"/>
<text text-anchor="start" x="170" y="-400" font-family="Helvetica,sans-Serif" font-size="10.00">QBluetoothDeviceInfo</text>
<text text-anchor="middle" x="224" y="-389" font-family="Helvetica,sans-Serif" font-size="10.00">::majorDeviceClass</text>
</a>
</g>
</g>
<!-- Node1&#45;&gt;Node9 -->
<g id="edge8" class="edge">
<title>Node1&#45;&gt;Node9</title>
<path fill="none" stroke="midnightblue" d="M124.56,-381.52C133.43,-382.92 142.62,-384.36 151.68,-385.79"/>
<polygon fill="midnightblue" stroke="midnightblue" points="151.39,-389.28 161.81,-387.38 152.48,-382.37 151.39,-389.28"/>
</g>
<!-- Node10 -->
<g id="node10" class="node">
<title>Node10</title>
<g id="a_node10"><a target="_parent" xlink:href="https://doc.qt.io/qt-5/qbluetoothdeviceinfo.html#manufacturerData" xlink:title=" ">
<polygon fill="none" stroke="black" points="162,-333 162,-363 286,-363 286,-333 162,-333"/>
<text text-anchor="start" x="170" y="-351" font-family="Helvetica,sans-Serif" font-size="10.00">QBluetoothDeviceInfo</text>
<text text-anchor="middle" x="224" y="-340" font-family="Helvetica,sans-Serif" font-size="10.00">::manufacturerData</text>
</a>
</g>
</g>
<!-- Node1&#45;&gt;Node10 -->
<g id="edge9" class="edge">
<title>Node1&#45;&gt;Node10</title>
<path fill="none" stroke="midnightblue" d="M126.38,-362.58C134.76,-361.32 143.41,-360.01 151.92,-358.73"/>
<polygon fill="midnightblue" stroke="midnightblue" points="152.47,-362.19 161.84,-357.23 151.43,-355.26 152.47,-362.19"/>
</g>
<!-- Node11 -->
<g id="node11" class="node">
<title>Node11</title>
<g id="a_node11"><a target="_parent" xlink:href="https://doc.qt.io/qt-5/qbluetoothdeviceinfo.html#minorDeviceClass" xlink:title=" ">
<polygon fill="none" stroke="black" points="162,-284 162,-314 286,-314 286,-284 162,-284"/>
<text text-anchor="start" x="170" y="-302" font-family="Helvetica,sans-Serif" font-size="10.00">QBluetoothDeviceInfo</text>
<text text-anchor="middle" x="224" y="-291" font-family="Helvetica,sans-Serif" font-size="10.00">::minorDeviceClass</text>
</a>
</g>
</g>
<!-- Node1&#45;&gt;Node11 -->
<g id="edge10" class="edge">
<title>Node1&#45;&gt;Node11</title>
<path fill="none" stroke="midnightblue" d="M82.61,-362.42C102.2,-352.46 134,-336.58 162,-324 166.4,-322.02 171.01,-320.02 175.63,-318.05"/>
<polygon fill="midnightblue" stroke="midnightblue" points="177.22,-321.18 185.09,-314.08 174.51,-314.72 177.22,-321.18"/>
</g>
<!-- Node12 -->
<g id="node12" class="node">
<title>Node12</title>
<g id="a_node12"><a target="_parent" xlink:href="https://doc.qt.io/qt-5/qbluetoothdeviceinfo.html#name" xlink:title=" ">
<polygon fill="none" stroke="black" points="162,-235 162,-265 286,-265 286,-235 162,-235"/>
<text text-anchor="start" x="170" y="-253" font-family="Helvetica,sans-Serif" font-size="10.00">QBluetoothDeviceInfo</text>
<text text-anchor="middle" x="224" y="-242" font-family="Helvetica,sans-Serif" font-size="10.00">::name</text>
</a>
</g>
</g>
<!-- Node1&#45;&gt;Node12 -->
<g id="edge11" class="edge">
<title>Node1&#45;&gt;Node12</title>
<path fill="none" stroke="midnightblue" d="M71.41,-362.49C86.59,-343.56 123.07,-300.76 162,-275 164.9,-273.08 167.98,-271.26 171.14,-269.55"/>
<polygon fill="midnightblue" stroke="midnightblue" points="172.85,-272.61 180.23,-265.01 169.72,-266.35 172.85,-272.61"/>
</g>
<!-- Node13 -->
<g id="node13" class="node">
<title>Node13</title>
<g id="a_node13"><a target="_parent" xlink:href="https://doc.qt.io/qt-5/qbluetoothdeviceinfo.html#rssi" xlink:title=" ">
<polygon fill="none" stroke="black" points="162,-186 162,-216 286,-216 286,-186 162,-186"/>
<text text-anchor="start" x="170" y="-204" font-family="Helvetica,sans-Serif" font-size="10.00">QBluetoothDeviceInfo</text>
<text text-anchor="middle" x="224" y="-193" font-family="Helvetica,sans-Serif" font-size="10.00">::rssi</text>
</a>
</g>
</g>
<!-- Node1&#45;&gt;Node13 -->
<g id="edge12" class="edge">
<title>Node1&#45;&gt;Node13</title>
<path fill="none" stroke="midnightblue" d="M68.01,-362.39C79.18,-336.75 113.03,-265.95 162,-226 164.02,-224.35 166.16,-222.8 168.38,-221.34"/>
<polygon fill="midnightblue" stroke="midnightblue" points="170.42,-224.21 177.31,-216.16 166.91,-218.15 170.42,-224.21"/>
</g>
<!-- Node14 -->
<g id="node14" class="node">
<title>Node14</title>
<g id="a_node14"><a target="_parent" xlink:href="https://doc.qt.io/qt-5/qbluetoothdeviceinfo.html#serviceClasses" xlink:title=" ">
<polygon fill="none" stroke="black" points="162,-137 162,-167 286,-167 286,-137 162,-137"/>
<text text-anchor="start" x="170" y="-155" font-family="Helvetica,sans-Serif" font-size="10.00">QBluetoothDeviceInfo</text>
<text text-anchor="middle" x="224" y="-144" font-family="Helvetica,sans-Serif" font-size="10.00">::serviceClasses</text>
</a>
</g>
</g>
<!-- Node1&#45;&gt;Node14 -->
<g id="edge13" class="edge">
<title>Node1&#45;&gt;Node14</title>
<path fill="none" stroke="midnightblue" d="M66.24,-362.42C74,-331.34 102.51,-232.09 162,-177 163.67,-175.45 165.45,-173.99 167.31,-172.62"/>
<polygon fill="midnightblue" stroke="midnightblue" points="169.37,-175.46 175.92,-167.13 165.61,-169.56 169.37,-175.46"/>
</g>
<!-- Node15 -->
<g id="node15" class="node">
<title>Node15</title>
<g id="a_node15"><a target="_parent" xlink:href="https://doc.qt.io/qt-5/qbluetoothdeviceinfo.html#serviceUuids" xlink:title=" ">
<polygon fill="none" stroke="black" points="162,-88 162,-118 286,-118 286,-88 162,-88"/>
<text text-anchor="start" x="170" y="-106" font-family="Helvetica,sans-Serif" font-size="10.00">QBluetoothDeviceInfo</text>
<text text-anchor="middle" x="224" y="-95" font-family="Helvetica,sans-Serif" font-size="10.00">::serviceUuids</text>
</a>
</g>
</g>
<!-- Node1&#45;&gt;Node15 -->
<g id="edge14" class="edge">
<title>Node1&#45;&gt;Node15</title>
<path fill="none" stroke="midnightblue" d="M65.2,-362.14C70.12,-325.9 91.88,-198.62 162,-128 163.42,-126.57 164.94,-125.22 166.52,-123.94"/>
<polygon fill="midnightblue" stroke="midnightblue" points="168.71,-126.68 174.99,-118.15 164.76,-120.9 168.71,-126.68"/>
</g>
<!-- Node16 -->
<g id="node16" class="node">
<title>Node16</title>
<g id="a_node16"><a target="_parent" xlink:href="https://doc.qt.io/qt-5/qbluetoothaddress.html#toString" xlink:title=" ">
<polygon fill="none" stroke="black" points="166,-39 166,-69 282,-69 282,-39 166,-39"/>
<text text-anchor="start" x="174" y="-57" font-family="Helvetica,sans-Serif" font-size="10.00">QBluetoothAddress::</text>
<text text-anchor="middle" x="224" y="-46" font-family="Helvetica,sans-Serif" font-size="10.00">toString</text>
</a>
</g>
</g>
<!-- Node1&#45;&gt;Node16 -->
<g id="edge16" class="edge">
<title>Node1&#45;&gt;Node16</title>
<path fill="none" stroke="midnightblue" d="M64.42,-362.47C66.69,-322.43 80.63,-165.94 162,-79 163.35,-77.56 164.79,-76.2 166.31,-74.91"/>
<polygon fill="midnightblue" stroke="midnightblue" points="168.35,-77.76 174.46,-69.11 164.29,-72.06 168.35,-77.76"/>
</g>
<!-- Node17 -->
<g id="node17" class="node">
<title>Node17</title>
<g id="a_node17"><a target="_parent" xlink:href="https://doc.qt.io/qt-5/quuid.html#toString" xlink:title=" ">
<polygon fill="none" stroke="black" points="178.5,-0.5 178.5,-19.5 269.5,-19.5 269.5,-0.5 178.5,-0.5"/>
<text text-anchor="middle" x="224" y="-7.5" font-family="Helvetica,sans-Serif" font-size="10.00">QUuid::toString</text>
</a>
</g>
</g>
<!-- Node1&#45;&gt;Node17 -->
<g id="edge17" class="edge">
<title>Node1&#45;&gt;Node17</title>
<path fill="none" stroke="midnightblue" d="M63.72,-362.28C62.96,-317.59 65.82,-129.88 162,-30 164.21,-27.71 166.69,-25.67 169.34,-23.88"/>
<polygon fill="midnightblue" stroke="midnightblue" points="171.28,-26.8 178.33,-18.89 167.89,-20.68 171.28,-26.8"/>
</g>
</g>
</svg>
