<?xml version="1.0" encoding="UTF-8" standalone="no"?>
<!DOCTYPE svg PUBLIC "-//W3C//DTD SVG 1.1//EN"
 "http://www.w3.org/Graphics/SVG/1.1/DTD/svg11.dtd">
<!-- Generated by graphviz version 2.43.0 (0)
 -->
<!-- Title: DsoServicePrivate::characteristicWritten Pages: 1 -->
<svg width="705pt" height="466pt"
 viewBox="0.00 0.00 705.00 465.50" xmlns="http://www.w3.org/2000/svg" xmlns:xlink="http://www.w3.org/1999/xlink">
<g id="graph0" class="graph" transform="scale(1 1) rotate(0) translate(4 461.5)">
<title>DsoServicePrivate::characteristicWritten</title>
<!-- Node1 -->
<g id="node1" class="node">
<title>Node1</title>
<g id="a_node1"><a xlink:title="Implements AbstractPokitServicePrivate::characteristicWritten to parse newValue, then emit a speciali...">
<polygon fill="#bfbfbf" stroke="black" points="0,-66.5 0,-96.5 119,-96.5 119,-66.5 0,-66.5"/>
<text text-anchor="start" x="8" y="-84.5" font-family="Helvetica,sans-Serif" font-size="10.00">DsoServicePrivate::</text>
<text text-anchor="middle" x="59.5" y="-73.5" font-family="Helvetica,sans-Serif" font-size="10.00">characteristicWritten</text>
</a>
</g>
</g>
<!-- Node2 -->
<g id="node2" class="node">
<title>Node2</title>
<g id="a_node2"><a xlink:href="classAbstractPokitServicePrivate.html#aaf4a6cb9f0b1fe537877d615a6634201" target="_top" xlink:title="Handles QLowEnergyService::characteristicWritten events.">
<polygon fill="none" stroke="black" points="155,-192.5 155,-222.5 307,-222.5 307,-192.5 155,-192.5"/>
<text text-anchor="start" x="163" y="-210.5" font-family="Helvetica,sans-Serif" font-size="10.00">AbstractPokitServicePrivate</text>
<text text-anchor="middle" x="231" y="-199.5" font-family="Helvetica,sans-Serif" font-size="10.00">::characteristicWritten</text>
</a>
</g>
</g>
<!-- Node1&#45;&gt;Node2 -->
<g id="edge1" class="edge">
<title>Node1&#45;&gt;Node2</title>
<path fill="none" stroke="midnightblue" d="M80.95,-96.7C111.06,-119.08 167.45,-161.01 201.58,-186.37"/>
<polygon fill="midnightblue" stroke="midnightblue" points="199.63,-189.29 209.75,-192.44 203.81,-183.67 199.63,-189.29"/>
</g>
<!-- Node6 -->
<g id="node6" class="node">
<title>Node6</title>
<g id="a_node6"><a target="_parent" xlink:href="https://doc.qt.io/qt-5/qobject.html#tr" xlink:title=" ">
<polygon fill="none" stroke="black" points="579.5,-138 579.5,-157 648.5,-157 648.5,-138 579.5,-138"/>
<text text-anchor="middle" x="614" y="-145" font-family="Helvetica,sans-Serif" font-size="10.00">QObject::tr</text>
</a>
</g>
</g>
<!-- Node1&#45;&gt;Node6 -->
<g id="edge18" class="edge">
<title>Node1&#45;&gt;Node6</title>
<path fill="none" stroke="midnightblue" d="M119.02,-71.65C203.65,-59.53 364.38,-44.56 495,-79.5 532.71,-89.59 570.85,-114.94 593.19,-131.68"/>
<polygon fill="midnightblue" stroke="midnightblue" points="591.15,-134.52 601.21,-137.83 595.41,-128.97 591.15,-134.52"/>
</g>
<!-- Node14 -->
<g id="node14" class="node">
<title>Node14</title>
<g id="a_node14"><a target="_parent" xlink:href="https://doc.qt.io/qt-5/qlowenergycharacteristic.html#uuid" xlink:title=" ">
<polygon fill="none" stroke="black" points="346.5,-88.5 346.5,-118.5 491.5,-118.5 491.5,-88.5 346.5,-88.5"/>
<text text-anchor="start" x="354.5" y="-106.5" font-family="Helvetica,sans-Serif" font-size="10.00">QLowEnergyCharacteristic</text>
<text text-anchor="middle" x="419" y="-95.5" font-family="Helvetica,sans-Serif" font-size="10.00">::uuid</text>
</a>
</g>
</g>
<!-- Node1&#45;&gt;Node14 -->
<g id="edge19" class="edge">
<title>Node1&#45;&gt;Node14</title>
<path fill="none" stroke="midnightblue" d="M119.13,-85.11C178.3,-88.75 270.13,-94.4 336.39,-98.48"/>
<polygon fill="midnightblue" stroke="midnightblue" points="336.19,-101.97 346.39,-99.09 336.62,-94.99 336.19,-101.97"/>
</g>
<!-- Node15 -->
<g id="node15" class="node">
<title>Node15</title>
<g id="a_node15"><a target="_parent" xlink:href="https://doc.qt.io/qt-5/qlowenergycharacteristic.html#name" xlink:title=" ">
<polygon fill="none" stroke="black" points="158.5,-0.5 158.5,-30.5 303.5,-30.5 303.5,-0.5 158.5,-0.5"/>
<text text-anchor="start" x="166.5" y="-18.5" font-family="Helvetica,sans-Serif" font-size="10.00">QLowEnergyCharacteristic</text>
<text text-anchor="middle" x="231" y="-7.5" font-family="Helvetica,sans-Serif" font-size="10.00">::name</text>
</a>
</g>
</g>
<!-- Node1&#45;&gt;Node15 -->
<g id="edge17" class="edge">
<title>Node1&#45;&gt;Node15</title>
<path fill="none" stroke="midnightblue" d="M99.39,-66.36C123.93,-56.8 155.83,-44.38 181.95,-34.21"/>
<polygon fill="midnightblue" stroke="midnightblue" points="183.25,-37.46 191.29,-30.57 180.71,-30.94 183.25,-37.46"/>
</g>
<!-- Node3 -->
<g id="node3" class="node">
<title>Node3</title>
<g id="a_node3"><a target="_parent" xlink:href="https://doc.qt.io/qt-5/qstring.html#arg-11" xlink:title=" ">
<polygon fill="none" stroke="black" points="577,-248 577,-267 651,-267 651,-248 577,-248"/>
<text text-anchor="middle" x="614" y="-255" font-family="Helvetica,sans-Serif" font-size="10.00">QString::arg</text>
</a>
</g>
</g>
<!-- Node2&#45;&gt;Node3 -->
<g id="edge2" class="edge">
<title>Node2&#45;&gt;Node3</title>
<path fill="none" stroke="midnightblue" d="M259.3,-222.62C281.19,-233.85 313.09,-248.26 343,-254.5 420.17,-270.61 512.46,-266.85 566.71,-262.37"/>
<polygon fill="midnightblue" stroke="midnightblue" points="567.05,-265.86 576.71,-261.5 566.44,-258.88 567.05,-265.86"/>
</g>
<!-- Node4 -->
<g id="node4" class="node">
<title>Node4</title>
<g id="a_node4"><a xlink:href="classPokitDevice.html#a0a3e6078ce0a7c2d93171ef0f4183d61" target="_top" xlink:title="Returns a human&#45;readable name for the uuid characteristic, or a null QString if unknown.">
<polygon fill="none" stroke="black" points="348.5,-214.5 348.5,-244.5 489.5,-244.5 489.5,-214.5 348.5,-214.5"/>
<text text-anchor="start" x="356.5" y="-232.5" font-family="Helvetica,sans-Serif" font-size="10.00">PokitDevice::charcteristic</text>
<text text-anchor="middle" x="419" y="-221.5" font-family="Helvetica,sans-Serif" font-size="10.00">ToString</text>
</a>
</g>
</g>
<!-- Node2&#45;&gt;Node4 -->
<g id="edge3" class="edge">
<title>Node2&#45;&gt;Node4</title>
<path fill="none" stroke="midnightblue" d="M307.12,-216.38C317.33,-217.59 327.83,-218.84 338.12,-220.05"/>
<polygon fill="midnightblue" stroke="midnightblue" points="337.98,-223.56 348.32,-221.26 338.8,-216.61 337.98,-223.56"/>
</g>
<!-- Node2&#45;&gt;Node6 -->
<g id="edge15" class="edge">
<title>Node2&#45;&gt;Node6</title>
<path fill="none" stroke="midnightblue" d="M265.26,-192.39C286.94,-183.26 316.09,-172.29 343,-166.5 421.38,-149.63 515.22,-146.8 569.09,-146.8"/>
<polygon fill="midnightblue" stroke="midnightblue" points="569.31,-150.3 579.32,-146.83 569.33,-143.3 569.31,-150.3"/>
</g>
<!-- Node7 -->
<g id="node7" class="node">
<title>Node7</title>
<g id="a_node7"><a target="_parent" xlink:href="https://doc.qt.io/qt-5/qbytearray.html#size" xlink:title=" ">
<polygon fill="none" stroke="black" points="565,-438 565,-457 663,-457 663,-438 565,-438"/>
<text text-anchor="middle" x="614" y="-445" font-family="Helvetica,sans-Serif" font-size="10.00">QByteArray::size</text>
</a>
</g>
</g>
<!-- Node2&#45;&gt;Node7 -->
<g id="edge6" class="edge">
<title>Node2&#45;&gt;Node7</title>
<path fill="none" stroke="midnightblue" d="M239.28,-222.62C254.47,-252.67 292.36,-320.27 343,-358.5 406.26,-406.26 496.42,-429.12 554.82,-439.53"/>
<polygon fill="midnightblue" stroke="midnightblue" points="554.54,-443.03 564.99,-441.27 555.72,-436.13 554.54,-443.03"/>
</g>
<!-- Node8 -->
<g id="node8" class="node">
<title>Node8</title>
<g id="a_node8"><a xlink:href="classAbstractPokitServicePrivate.html#af748600fc201fe47f29b58e8e93179d8" target="_top" xlink:title="Returns up to maxSize bytes of data as a human readable hexadecimal string.">
<polygon fill="none" stroke="black" points="343,-318.5 343,-348.5 495,-348.5 495,-318.5 343,-318.5"/>
<text text-anchor="start" x="351" y="-336.5" font-family="Helvetica,sans-Serif" font-size="10.00">AbstractPokitServicePrivate</text>
<text text-anchor="middle" x="419" y="-325.5" font-family="Helvetica,sans-Serif" font-size="10.00">::toHexString</text>
</a>
</g>
</g>
<!-- Node2&#45;&gt;Node8 -->
<g id="edge7" class="edge">
<title>Node2&#45;&gt;Node8</title>
<path fill="none" stroke="midnightblue" d="M252.14,-222.71C274.14,-239.15 310.57,-265.91 343,-287.5 356.12,-296.23 370.85,-305.4 383.76,-313.23"/>
<polygon fill="midnightblue" stroke="midnightblue" points="381.99,-316.25 392.36,-318.42 385.6,-310.26 381.99,-316.25"/>
</g>
<!-- Node13 -->
<g id="node13" class="node">
<title>Node13</title>
<g id="a_node13"><a target="_parent" xlink:href="https://doc.qt.io/qt-5/quuid.html#toString" xlink:title=" ">
<polygon fill="none" stroke="black" points="373.5,-176 373.5,-195 464.5,-195 464.5,-176 373.5,-176"/>
<text text-anchor="middle" x="419" y="-183" font-family="Helvetica,sans-Serif" font-size="10.00">QUuid::toString</text>
</a>
</g>
</g>
<!-- Node2&#45;&gt;Node13 -->
<g id="edge14" class="edge">
<title>Node2&#45;&gt;Node13</title>
<path fill="none" stroke="midnightblue" d="M307.12,-198.62C325.91,-196.39 345.72,-194.05 363.31,-191.97"/>
<polygon fill="midnightblue" stroke="midnightblue" points="363.87,-195.43 373.39,-190.78 363.05,-188.48 363.87,-195.43"/>
</g>
<!-- Node2&#45;&gt;Node14 -->
<g id="edge16" class="edge">
<title>Node2&#45;&gt;Node14</title>
<path fill="none" stroke="midnightblue" d="M252.08,-192.26C273.72,-176.27 309.59,-151.08 343,-133.5 350.49,-129.56 358.62,-125.81 366.67,-122.38"/>
<polygon fill="midnightblue" stroke="midnightblue" points="368.14,-125.56 376.04,-118.5 365.47,-119.09 368.14,-125.56"/>
</g>
<!-- Node5 -->
<g id="node5" class="node">
<title>Node5</title>
<g id="a_node5"><a target="_parent" xlink:href="https://doc.qt.io/qt-5/qbluetoothuuid.html#characteristicToString" xlink:title=" ">
<polygon fill="none" stroke="black" points="531,-198.5 531,-228.5 697,-228.5 697,-198.5 531,-198.5"/>
<text text-anchor="start" x="539" y="-216.5" font-family="Helvetica,sans-Serif" font-size="10.00">QBluetoothUuid::characteristic</text>
<text text-anchor="middle" x="614" y="-205.5" font-family="Helvetica,sans-Serif" font-size="10.00">ToString</text>
</a>
</g>
</g>
<!-- Node4&#45;&gt;Node5 -->
<g id="edge4" class="edge">
<title>Node4&#45;&gt;Node5</title>
<path fill="none" stroke="midnightblue" d="M489.68,-223.72C499.82,-222.88 510.4,-222.01 520.91,-221.13"/>
<polygon fill="midnightblue" stroke="midnightblue" points="521.26,-224.62 530.94,-220.3 520.69,-217.64 521.26,-224.62"/>
</g>
<!-- Node4&#45;&gt;Node6 -->
<g id="edge5" class="edge">
<title>Node4&#45;&gt;Node6</title>
<path fill="none" stroke="midnightblue" d="M468.35,-214.4C477.28,-211.32 486.48,-207.96 495,-204.5 526.86,-191.56 562.24,-174.02 585.87,-161.83"/>
<polygon fill="midnightblue" stroke="midnightblue" points="587.67,-164.84 594.93,-157.13 584.45,-158.63 587.67,-164.84"/>
</g>
<!-- Node8&#45;&gt;Node3 -->
<g id="edge8" class="edge">
<title>Node8&#45;&gt;Node3</title>
<path fill="none" stroke="midnightblue" d="M445.2,-318.28C467.18,-305.56 500.28,-287.75 531,-276.5 542.47,-272.3 555.19,-268.82 567.13,-266.03"/>
<polygon fill="midnightblue" stroke="midnightblue" points="567.92,-269.44 576.92,-263.85 566.4,-262.61 567.92,-269.44"/>
</g>
<!-- Node8&#45;&gt;Node7 -->
<g id="edge12" class="edge">
<title>Node8&#45;&gt;Node7</title>
<path fill="none" stroke="midnightblue" d="M437.79,-348.92C468.47,-375.47 528.31,-427.14 531,-428.5 538.5,-432.29 546.77,-435.33 555.08,-437.78"/>
<polygon fill="midnightblue" stroke="midnightblue" points="554.25,-441.18 564.81,-440.38 556.06,-434.42 554.25,-441.18"/>
</g>
<!-- Node9 -->
<g id="node9" class="node">
<title>Node9</title>
<g id="a_node9"><a target="_parent" xlink:href="https://doc.qt.io/qt-5/qstring.html#fromLatin1" xlink:title=" ">
<polygon fill="none" stroke="black" points="558,-324 558,-343 670,-343 670,-324 558,-324"/>
<text text-anchor="middle" x="614" y="-331" font-family="Helvetica,sans-Serif" font-size="10.00">QString::fromLatin1</text>
</a>
</g>
</g>
<!-- Node8&#45;&gt;Node9 -->
<g id="edge9" class="edge">
<title>Node8&#45;&gt;Node9</title>
<path fill="none" stroke="midnightblue" d="M495.17,-333.5C512.44,-333.5 530.66,-333.5 547.49,-333.5"/>
<polygon fill="midnightblue" stroke="midnightblue" points="547.76,-337 557.76,-333.5 547.76,-330 547.76,-337"/>
</g>
<!-- Node10 -->
<g id="node10" class="node">
<title>Node10</title>
<g id="a_node10"><a target="_parent" xlink:href="https://doc.qt.io/qt-5/qbytearray.html#left" xlink:title=" ">
<polygon fill="none" stroke="black" points="567,-286 567,-305 661,-305 661,-286 567,-286"/>
<text text-anchor="middle" x="614" y="-293" font-family="Helvetica,sans-Serif" font-size="10.00">QByteArray::left</text>
</a>
</g>
</g>
<!-- Node8&#45;&gt;Node10 -->
<g id="edge10" class="edge">
<title>Node8&#45;&gt;Node10</title>
<path fill="none" stroke="midnightblue" d="M495.17,-318.7C515.72,-314.65 537.63,-310.34 556.91,-306.54"/>
<polygon fill="midnightblue" stroke="midnightblue" points="557.6,-309.98 566.73,-304.61 556.25,-303.11 557.6,-309.98"/>
</g>
<!-- Node11 -->
<g id="node11" class="node">
<title>Node11</title>
<g id="a_node11"><a target="_parent" xlink:href="https://doc.qt.io/qt-5/qbytearray.html#right" xlink:title=" ">
<polygon fill="none" stroke="black" points="563.5,-400 563.5,-419 664.5,-419 664.5,-400 563.5,-400"/>
<text text-anchor="middle" x="614" y="-407" font-family="Helvetica,sans-Serif" font-size="10.00">QByteArray::right</text>
</a>
</g>
</g>
<!-- Node8&#45;&gt;Node11 -->
<g id="edge11" class="edge">
<title>Node8&#45;&gt;Node11</title>
<path fill="none" stroke="midnightblue" d="M445.2,-348.72C467.18,-361.44 500.28,-379.25 531,-390.5 538.24,-393.15 545.97,-395.51 553.69,-397.6"/>
<polygon fill="midnightblue" stroke="midnightblue" points="552.87,-401 563.42,-400.09 554.6,-394.22 552.87,-401"/>
</g>
<!-- Node12 -->
<g id="node12" class="node">
<title>Node12</title>
<g id="a_node12"><a target="_parent" xlink:href="https://doc.qt.io/qt-5/qbytearray.html#toHex" xlink:title=" ">
<polygon fill="none" stroke="black" points="560.5,-362 560.5,-381 667.5,-381 667.5,-362 560.5,-362"/>
<text text-anchor="middle" x="614" y="-369" font-family="Helvetica,sans-Serif" font-size="10.00">QByteArray::toHex</text>
</a>
</g>
</g>
<!-- Node8&#45;&gt;Node12 -->
<g id="edge13" class="edge">
<title>Node8&#45;&gt;Node12</title>
<path fill="none" stroke="midnightblue" d="M495.17,-348.3C515,-352.2 536.09,-356.36 554.87,-360.05"/>
<polygon fill="midnightblue" stroke="midnightblue" points="554.26,-363.5 564.75,-362 555.61,-356.63 554.26,-363.5"/>
</g>
</g>
</svg>
