<?xml version="1.0" encoding="UTF-8" standalone="no"?>
<!DOCTYPE svg PUBLIC "-//W3C//DTD SVG 1.1//EN"
 "http://www.w3.org/Graphics/SVG/1.1/DTD/svg11.dtd">
<!-- Generated by graphviz version 2.43.0 (0)
 -->
<!-- Title: AbstractCommand::parseMilliValue Pages: 1 -->
<svg width="311pt" height="256pt"
 viewBox="0.00 0.00 311.00 256.00" xmlns="http://www.w3.org/2000/svg" xmlns:xlink="http://www.w3.org/1999/xlink">
<g id="graph0" class="graph" transform="scale(1 1) rotate(0) translate(4 252)">
<title>AbstractCommand::parseMilliValue</title>
<!-- Node1 -->
<g id="node1" class="node">
<title>Node1</title>
<g id="a_node1"><a xlink:title="Returns value as a number of millis, such as milliseconds, or millivolts.">
<polygon fill="#bfbfbf" stroke="black" points="0,-109 0,-139 161,-139 161,-109 0,-109"/>
<text text-anchor="start" x="8" y="-127" font-family="Helvetica,sans-Serif" font-size="10.00">AbstractCommand::parseMilli</text>
<text text-anchor="middle" x="80.5" y="-116" font-family="Helvetica,sans-Serif" font-size="10.00">Value</text>
</a>
</g>
</g>
<!-- Node2 -->
<g id="node2" class="node">
<title>Node2</title>
<g id="a_node2"><a target="_parent" xlink:href="https://doc.qt.io/qt-5/qstring.html#chop" xlink:title=" ">
<polygon fill="none" stroke="black" points="209,-228.5 209,-247.5 291,-247.5 291,-228.5 209,-228.5"/>
<text text-anchor="middle" x="250" y="-235.5" font-family="Helvetica,sans-Serif" font-size="10.00">QString::chop</text>
</a>
</g>
</g>
<!-- Node1&#45;&gt;Node2 -->
<g id="edge1" class="edge">
<title>Node1&#45;&gt;Node2</title>
<path fill="none" stroke="midnightblue" d="M96.31,-139.04C117.16,-159.51 157.1,-196.19 197,-219 200.47,-220.98 204.18,-222.82 207.97,-224.51"/>
<polygon fill="midnightblue" stroke="midnightblue" points="206.85,-227.84 217.43,-228.41 209.52,-221.37 206.85,-227.84"/>
</g>
<!-- Node3 -->
<g id="node3" class="node">
<title>Node3</title>
<g id="a_node3"><a target="_parent" xlink:href="https://doc.qt.io/qt-5/qstring.html#endsWith" xlink:title=" ">
<polygon fill="none" stroke="black" points="198,-190.5 198,-209.5 302,-209.5 302,-190.5 198,-190.5"/>
<text text-anchor="middle" x="250" y="-197.5" font-family="Helvetica,sans-Serif" font-size="10.00">QString::endsWith</text>
</a>
</g>
</g>
<!-- Node1&#45;&gt;Node3 -->
<g id="edge2" class="edge">
<title>Node1&#45;&gt;Node3</title>
<path fill="none" stroke="midnightblue" d="M110.05,-139.17C133.18,-151.19 166.78,-168.07 197,-181 201.74,-183.03 206.77,-185.04 211.77,-186.95"/>
<polygon fill="midnightblue" stroke="midnightblue" points="210.66,-190.28 221.26,-190.49 213.11,-183.72 210.66,-190.28"/>
</g>
<!-- Node4 -->
<g id="node4" class="node">
<title>Node4</title>
<g id="a_node4"><a target="_parent" xlink:href="https://doc.qt.io/qt-5/qstring.html#isEmpty" xlink:title=" ">
<polygon fill="none" stroke="black" points="201,-152.5 201,-171.5 299,-171.5 299,-152.5 201,-152.5"/>
<text text-anchor="middle" x="250" y="-159.5" font-family="Helvetica,sans-Serif" font-size="10.00">QString::isEmpty</text>
</a>
</g>
</g>
<!-- Node1&#45;&gt;Node4 -->
<g id="edge3" class="edge">
<title>Node1&#45;&gt;Node4</title>
<path fill="none" stroke="midnightblue" d="M147.7,-139.02C164.05,-142.73 181.34,-146.65 196.91,-150.18"/>
<polygon fill="midnightblue" stroke="midnightblue" points="196.35,-153.64 206.87,-152.44 197.9,-146.82 196.35,-153.64"/>
</g>
<!-- Node5 -->
<g id="node5" class="node">
<title>Node5</title>
<g id="a_node5"><a target="_parent" xlink:href="https://doc.qt.io/qt-5/qstring.html#length" xlink:title=" ">
<polygon fill="none" stroke="black" points="205.5,-114.5 205.5,-133.5 294.5,-133.5 294.5,-114.5 205.5,-114.5"/>
<text text-anchor="middle" x="250" y="-121.5" font-family="Helvetica,sans-Serif" font-size="10.00">QString::length</text>
</a>
</g>
</g>
<!-- Node1&#45;&gt;Node5 -->
<g id="edge4" class="edge">
<title>Node1&#45;&gt;Node5</title>
<path fill="none" stroke="midnightblue" d="M161.33,-124C172.82,-124 184.41,-124 195.23,-124"/>
<polygon fill="midnightblue" stroke="midnightblue" points="195.35,-127.5 205.35,-124 195.35,-120.5 195.35,-127.5"/>
</g>
<!-- Node6 -->
<g id="node6" class="node">
<title>Node6</title>
<g id="a_node6"><a target="_parent" xlink:href="https://doc.qt.io/qt-5/qlocale.html#toDouble" xlink:title=" ">
<polygon fill="none" stroke="black" points="197,-76.5 197,-95.5 303,-95.5 303,-76.5 197,-76.5"/>
<text text-anchor="middle" x="250" y="-83.5" font-family="Helvetica,sans-Serif" font-size="10.00">QLocale::toDouble</text>
</a>
</g>
</g>
<!-- Node1&#45;&gt;Node6 -->
<g id="edge5" class="edge">
<title>Node1&#45;&gt;Node6</title>
<path fill="none" stroke="midnightblue" d="M147.7,-108.98C164.05,-105.27 181.34,-101.35 196.91,-97.82"/>
<polygon fill="midnightblue" stroke="midnightblue" points="197.9,-101.18 206.87,-95.56 196.35,-94.36 197.9,-101.18"/>
</g>
<!-- Node7 -->
<g id="node7" class="node">
<title>Node7</title>
<g id="a_node7"><a target="_parent" xlink:href="https://doc.qt.io/qt-5/qlocale.html#toUInt" xlink:title=" ">
<polygon fill="none" stroke="black" points="204,-38.5 204,-57.5 296,-57.5 296,-38.5 204,-38.5"/>
<text text-anchor="middle" x="250" y="-45.5" font-family="Helvetica,sans-Serif" font-size="10.00">QLocale::toUInt</text>
</a>
</g>
</g>
<!-- Node1&#45;&gt;Node7 -->
<g id="edge6" class="edge">
<title>Node1&#45;&gt;Node7</title>
<path fill="none" stroke="midnightblue" d="M110.05,-108.83C133.18,-96.81 166.78,-79.93 197,-67 201.74,-64.97 206.77,-62.96 211.77,-61.05"/>
<polygon fill="midnightblue" stroke="midnightblue" points="213.11,-64.28 221.26,-57.51 210.66,-57.72 213.11,-64.28"/>
</g>
<!-- Node8 -->
<g id="node8" class="node">
<title>Node8</title>
<g id="a_node8"><a target="_parent" xlink:href="https://doc.qt.io/qt-5/qstring.html#trimmed" xlink:title=" ">
<polygon fill="none" stroke="black" points="199.5,-0.5 199.5,-19.5 300.5,-19.5 300.5,-0.5 199.5,-0.5"/>
<text text-anchor="middle" x="250" y="-7.5" font-family="Helvetica,sans-Serif" font-size="10.00">QString::trimmed</text>
</a>
</g>
</g>
<!-- Node1&#45;&gt;Node8 -->
<g id="edge7" class="edge">
<title>Node1&#45;&gt;Node8</title>
<path fill="none" stroke="midnightblue" d="M96.31,-108.96C117.16,-88.49 157.1,-51.81 197,-29 200.47,-27.02 204.18,-25.18 207.97,-23.49"/>
<polygon fill="midnightblue" stroke="midnightblue" points="209.52,-26.63 217.43,-19.59 206.85,-20.16 209.52,-26.63"/>
</g>
</g>
</svg>
