<?xml version="1.0" encoding="UTF-8" standalone="no"?>
<!DOCTYPE svg PUBLIC "-//W3C//DTD SVG 1.1//EN"
 "http://www.w3.org/Graphics/SVG/1.1/DTD/svg11.dtd">
<!-- Generated by graphviz version 2.43.0 (0)
 -->
<!-- Title: DataLoggerServicePrivate::parseSamples Pages: 1 -->
<svg width="487pt" height="268pt"
 viewBox="0.00 0.00 487.00 268.00" xmlns="http://www.w3.org/2000/svg" xmlns:xlink="http://www.w3.org/1999/xlink">
<g id="graph0" class="graph" transform="scale(1 1) rotate(0) translate(4 264)">
<title>DataLoggerServicePrivate::parseSamples</title>
<!-- Node1 -->
<g id="node1" class="node">
<title>Node1</title>
<g id="a_node1"><a xlink:title="Parses the Reading value into a DataLoggerService::Samples vector.">
<polygon fill="#bfbfbf" stroke="black" points="0,-115 0,-145 143,-145 143,-115 0,-115"/>
<text text-anchor="start" x="8" y="-133" font-family="Helvetica,sans-Serif" font-size="10.00">DataLoggerServicePrivate</text>
<text text-anchor="middle" x="71.5" y="-122" font-family="Helvetica,sans-Serif" font-size="10.00">::parseSamples</text>
</a>
</g>
</g>
<!-- Node2 -->
<g id="node2" class="node">
<title>Node2</title>
<g id="a_node2"><a target="_parent" xlink:href="https://doc.qt.io/qt-5/qvector.html#append" xlink:title=" ">
<polygon fill="none" stroke="black" points="206.5,-240.5 206.5,-259.5 303.5,-259.5 303.5,-240.5 206.5,-240.5"/>
<text text-anchor="middle" x="255" y="-247.5" font-family="Helvetica,sans-Serif" font-size="10.00">QVector::append</text>
</a>
</g>
</g>
<!-- Node1&#45;&gt;Node2 -->
<g id="edge1" class="edge">
<title>Node1&#45;&gt;Node2</title>
<path fill="none" stroke="midnightblue" d="M85.44,-145.16C104.1,-166.13 140.58,-203.92 179,-226 186.66,-230.41 195.24,-234.12 203.78,-237.2"/>
<polygon fill="midnightblue" stroke="midnightblue" points="202.77,-240.55 213.36,-240.43 205,-233.92 202.77,-240.55"/>
</g>
<!-- Node3 -->
<g id="node3" class="node">
<title>Node3</title>
<g id="a_node3"><a target="_parent" xlink:href="https://doc.qt.io/qt-5/qstring.html#arg-11" xlink:title=" ">
<polygon fill="none" stroke="black" points="386,-202.5 386,-221.5 460,-221.5 460,-202.5 386,-202.5"/>
<text text-anchor="middle" x="423" y="-209.5" font-family="Helvetica,sans-Serif" font-size="10.00">QString::arg</text>
</a>
</g>
</g>
<!-- Node1&#45;&gt;Node3 -->
<g id="edge2" class="edge">
<title>Node1&#45;&gt;Node3</title>
<path fill="none" stroke="midnightblue" d="M101.58,-145.02C122.57,-155.24 151.88,-168.28 179,-176 246.01,-195.08 326.46,-204.47 375.91,-208.77"/>
<polygon fill="midnightblue" stroke="midnightblue" points="375.71,-212.26 385.97,-209.61 376.3,-205.29 375.71,-212.26"/>
</g>
<!-- Node4 -->
<g id="node4" class="node">
<title>Node4</title>
<g id="a_node4"><a target="_parent" xlink:href="https://doc.qt.io/qt-5/qbytearray.html#mid" xlink:title=" ">
<polygon fill="none" stroke="black" points="206.5,-76.5 206.5,-95.5 303.5,-95.5 303.5,-76.5 206.5,-76.5"/>
<text text-anchor="middle" x="255" y="-83.5" font-family="Helvetica,sans-Serif" font-size="10.00">QByteArray::mid</text>
</a>
</g>
</g>
<!-- Node1&#45;&gt;Node4 -->
<g id="edge3" class="edge">
<title>Node1&#45;&gt;Node4</title>
<path fill="none" stroke="midnightblue" d="M134.45,-114.98C157.42,-109.41 183.12,-103.18 204.79,-97.93"/>
<polygon fill="midnightblue" stroke="midnightblue" points="205.87,-101.27 214.76,-95.51 204.22,-94.47 205.87,-101.27"/>
</g>
<!-- Node5 -->
<g id="node5" class="node">
<title>Node5</title>
<g id="a_node5"><a target="_parent" xlink:href="https://doc.qt.io/qt-5/qbytearray.html#size" xlink:title=" ">
<polygon fill="none" stroke="black" points="374,-164.5 374,-183.5 472,-183.5 472,-164.5 374,-164.5"/>
<text text-anchor="middle" x="423" y="-171.5" font-family="Helvetica,sans-Serif" font-size="10.00">QByteArray::size</text>
</a>
</g>
</g>
<!-- Node1&#45;&gt;Node5 -->
<g id="edge4" class="edge">
<title>Node1&#45;&gt;Node5</title>
<path fill="none" stroke="midnightblue" d="M129.39,-145.05C145.34,-148.8 162.77,-152.48 179,-155 241.65,-164.74 314.21,-169.59 363.62,-171.94"/>
<polygon fill="midnightblue" stroke="midnightblue" points="363.65,-175.44 373.8,-172.4 363.97,-168.45 363.65,-175.44"/>
</g>
<!-- Node6 -->
<g id="node6" class="node">
<title>Node6</title>
<g id="a_node6"><a target="_parent" xlink:href="https://doc.qt.io/qt-5/qvector.html#size" xlink:title=" ">
<polygon fill="none" stroke="black" points="215,-38.5 215,-57.5 295,-57.5 295,-38.5 215,-38.5"/>
<text text-anchor="middle" x="255" y="-45.5" font-family="Helvetica,sans-Serif" font-size="10.00">QVector::size</text>
</a>
</g>
</g>
<!-- Node1&#45;&gt;Node6 -->
<g id="edge5" class="edge">
<title>Node1&#45;&gt;Node6</title>
<path fill="none" stroke="midnightblue" d="M93.97,-114.79C114.83,-100.64 147.82,-79.86 179,-67 187.21,-63.61 196.18,-60.71 204.98,-58.26"/>
<polygon fill="midnightblue" stroke="midnightblue" points="205.99,-61.62 214.78,-55.7 204.22,-54.85 205.99,-61.62"/>
</g>
<!-- Node7 -->
<g id="node7" class="node">
<title>Node7</title>
<g id="a_node7"><a xlink:href="classAbstractPokitServicePrivate.html#af748600fc201fe47f29b58e8e93179d8" target="_top" xlink:title="Returns up to maxSize bytes of data as a human readable hexadecimal string.">
<polygon fill="none" stroke="black" points="179,-115 179,-145 331,-145 331,-115 179,-115"/>
<text text-anchor="start" x="187" y="-133" font-family="Helvetica,sans-Serif" font-size="10.00">AbstractPokitServicePrivate</text>
<text text-anchor="middle" x="255" y="-122" font-family="Helvetica,sans-Serif" font-size="10.00">::toHexString</text>
</a>
</g>
</g>
<!-- Node1&#45;&gt;Node7 -->
<g id="edge6" class="edge">
<title>Node1&#45;&gt;Node7</title>
<path fill="none" stroke="midnightblue" d="M143.19,-130C151.47,-130 159.99,-130 168.44,-130"/>
<polygon fill="midnightblue" stroke="midnightblue" points="168.7,-133.5 178.7,-130 168.7,-126.5 168.7,-133.5"/>
</g>
<!-- Node12 -->
<g id="node12" class="node">
<title>Node12</title>
<g id="a_node12"><a target="_parent" xlink:href="https://doc.qt.io/qt-5/qobject.html#tr" xlink:title=" ">
<polygon fill="none" stroke="black" points="220.5,-0.5 220.5,-19.5 289.5,-19.5 289.5,-0.5 220.5,-0.5"/>
<text text-anchor="middle" x="255" y="-7.5" font-family="Helvetica,sans-Serif" font-size="10.00">QObject::tr</text>
</a>
</g>
</g>
<!-- Node1&#45;&gt;Node12 -->
<g id="edge13" class="edge">
<title>Node1&#45;&gt;Node12</title>
<path fill="none" stroke="midnightblue" d="M84.16,-114.8C102.09,-92.53 138.6,-51.25 179,-29 188.54,-23.74 199.56,-19.91 210.17,-17.13"/>
<polygon fill="midnightblue" stroke="midnightblue" points="211.22,-20.48 220.15,-14.77 209.61,-13.66 211.22,-20.48"/>
</g>
<!-- Node7&#45;&gt;Node3 -->
<g id="edge7" class="edge">
<title>Node7&#45;&gt;Node3</title>
<path fill="none" stroke="midnightblue" d="M279.58,-145.08C301.61,-158.74 335.7,-178.86 367,-193 371.66,-195.1 376.62,-197.12 381.59,-199"/>
<polygon fill="midnightblue" stroke="midnightblue" points="380.47,-202.31 391.06,-202.43 382.85,-195.73 380.47,-202.31"/>
</g>
<!-- Node7&#45;&gt;Node5 -->
<g id="edge11" class="edge">
<title>Node7&#45;&gt;Node5</title>
<path fill="none" stroke="midnightblue" d="M312.66,-145.02C333.3,-150.49 356.36,-156.6 375.96,-161.8"/>
<polygon fill="midnightblue" stroke="midnightblue" points="375.3,-165.24 385.86,-164.42 377.09,-158.48 375.3,-165.24"/>
</g>
<!-- Node8 -->
<g id="node8" class="node">
<title>Node8</title>
<g id="a_node8"><a target="_parent" xlink:href="https://doc.qt.io/qt-5/qstring.html#fromLatin1" xlink:title=" ">
<polygon fill="none" stroke="black" points="367,-50.5 367,-69.5 479,-69.5 479,-50.5 367,-50.5"/>
<text text-anchor="middle" x="423" y="-57.5" font-family="Helvetica,sans-Serif" font-size="10.00">QString::fromLatin1</text>
</a>
</g>
</g>
<!-- Node7&#45;&gt;Node8 -->
<g id="edge8" class="edge">
<title>Node7&#45;&gt;Node8</title>
<path fill="none" stroke="midnightblue" d="M308.08,-114.93C315.93,-112.01 323.79,-108.69 331,-105 348.56,-96 349.49,-88.1 367,-79 371.04,-76.9 375.37,-74.95 379.75,-73.16"/>
<polygon fill="midnightblue" stroke="midnightblue" points="381.24,-76.34 389.35,-69.52 378.76,-69.8 381.24,-76.34"/>
</g>
<!-- Node9 -->
<g id="node9" class="node">
<title>Node9</title>
<g id="a_node9"><a target="_parent" xlink:href="https://doc.qt.io/qt-5/qbytearray.html#left" xlink:title=" ">
<polygon fill="none" stroke="black" points="376,-12.5 376,-31.5 470,-31.5 470,-12.5 376,-12.5"/>
<text text-anchor="middle" x="423" y="-19.5" font-family="Helvetica,sans-Serif" font-size="10.00">QByteArray::left</text>
</a>
</g>
</g>
<!-- Node7&#45;&gt;Node9 -->
<g id="edge9" class="edge">
<title>Node7&#45;&gt;Node9</title>
<path fill="none" stroke="midnightblue" d="M315.53,-114.87C321.07,-112.11 326.34,-108.84 331,-105 356.17,-84.22 341.94,-61.91 367,-41 369.04,-39.3 371.23,-37.75 373.54,-36.34"/>
<polygon fill="midnightblue" stroke="midnightblue" points="375.56,-39.23 382.83,-31.53 372.34,-33.01 375.56,-39.23"/>
</g>
<!-- Node10 -->
<g id="node10" class="node">
<title>Node10</title>
<g id="a_node10"><a target="_parent" xlink:href="https://doc.qt.io/qt-5/qbytearray.html#right" xlink:title=" ">
<polygon fill="none" stroke="black" points="372.5,-126.5 372.5,-145.5 473.5,-145.5 473.5,-126.5 372.5,-126.5"/>
<text text-anchor="middle" x="423" y="-133.5" font-family="Helvetica,sans-Serif" font-size="10.00">QByteArray::right</text>
</a>
</g>
</g>
<!-- Node7&#45;&gt;Node10 -->
<g id="edge10" class="edge">
<title>Node7&#45;&gt;Node10</title>
<path fill="none" stroke="midnightblue" d="M331.23,-132.72C341.54,-133.09 352.02,-133.47 362.01,-133.83"/>
<polygon fill="midnightblue" stroke="midnightblue" points="362.1,-137.34 372.22,-134.2 362.36,-130.34 362.1,-137.34"/>
</g>
<!-- Node11 -->
<g id="node11" class="node">
<title>Node11</title>
<g id="a_node11"><a target="_parent" xlink:href="https://doc.qt.io/qt-5/qbytearray.html#toHex" xlink:title=" ">
<polygon fill="none" stroke="black" points="369.5,-88.5 369.5,-107.5 476.5,-107.5 476.5,-88.5 369.5,-88.5"/>
<text text-anchor="middle" x="423" y="-95.5" font-family="Helvetica,sans-Serif" font-size="10.00">QByteArray::toHex</text>
</a>
</g>
</g>
<!-- Node7&#45;&gt;Node11 -->
<g id="edge12" class="edge">
<title>Node7&#45;&gt;Node11</title>
<path fill="none" stroke="midnightblue" d="M331.23,-115.5C341.78,-113.46 352.5,-111.4 362.7,-109.43"/>
<polygon fill="midnightblue" stroke="midnightblue" points="363.54,-112.83 372.7,-107.5 362.22,-105.96 363.54,-112.83"/>
</g>
</g>
</svg>
