<?xml version="1.0" encoding="UTF-8" standalone="no"?>
<!DOCTYPE svg PUBLIC "-//W3C//DTD SVG 1.1//EN"
 "http://www.w3.org/Graphics/SVG/1.1/DTD/svg11.dtd">
<!-- Generated by graphviz version 2.43.0 (0)
 -->
<!-- Title: DsoCommand::metadataRead Pages: 1 -->
<svg width="429pt" height="28pt"
 viewBox="0.00 0.00 429.00 28.00" xmlns="http://www.w3.org/2000/svg" xmlns:xlink="http://www.w3.org/1999/xlink">
<g id="graph0" class="graph" transform="scale(1 1) rotate(0) translate(4 24)">
<title>DsoCommand::metadataRead</title>
<!-- Node1 -->
<g id="node1" class="node">
<title>Node1</title>
<g id="a_node1"><a xlink:title="Invoked when metadata has been received from the DSO.">
<polygon fill="#bfbfbf" stroke="black" points="0,-0.5 0,-19.5 164,-19.5 164,-0.5 0,-0.5"/>
<text text-anchor="middle" x="82" y="-7.5" font-family="Helvetica,sans-Serif" font-size="10.00">DsoCommand::metadataRead</text>
</a>
</g>
</g>
<!-- Node2 -->
<g id="node2" class="node">
<title>Node2</title>
<g id="a_node2"><a xlink:href="classDsoService.html#acc76b93255cf3c5110d90c0df3318afe" target="_top" xlink:title="Returns mode as a user&#45;friendly string.">
<polygon fill="none" stroke="black" points="200,-0.5 200,-19.5 316,-19.5 316,-0.5 200,-0.5"/>
<text text-anchor="middle" x="258" y="-7.5" font-family="Helvetica,sans-Serif" font-size="10.00">DsoService::toString</text>
</a>
</g>
</g>
<!-- Node1&#45;&gt;Node2 -->
<g id="edge1" class="edge">
<title>Node1&#45;&gt;Node2</title>
<path fill="none" stroke="midnightblue" d="M164.14,-10C172.71,-10 181.35,-10 189.73,-10"/>
<polygon fill="midnightblue" stroke="midnightblue" points="189.81,-13.5 199.81,-10 189.81,-6.5 189.81,-13.5"/>
</g>
<!-- Node3 -->
<g id="node3" class="node">
<title>Node3</title>
<g id="a_node3"><a target="_parent" xlink:href="https://doc.qt.io/qt-5/qobject.html#tr" xlink:title=" ">
<polygon fill="none" stroke="black" points="352,-0.5 352,-19.5 421,-19.5 421,-0.5 352,-0.5"/>
<text text-anchor="middle" x="386.5" y="-7.5" font-family="Helvetica,sans-Serif" font-size="10.00">QObject::tr</text>
</a>
</g>
</g>
<!-- Node2&#45;&gt;Node3 -->
<g id="edge2" class="edge">
<title>Node2&#45;&gt;Node3</title>
<path fill="none" stroke="midnightblue" d="M316.33,-10C324.88,-10 333.57,-10 341.78,-10"/>
<polygon fill="midnightblue" stroke="midnightblue" points="341.87,-13.5 351.87,-10 341.87,-6.5 341.87,-13.5"/>
</g>
</g>
</svg>
