<?xml version="1.0" encoding="UTF-8" standalone="no"?>
<!DOCTYPE svg PUBLIC "-//W3C//DTD SVG 1.1//EN"
 "http://www.w3.org/Graphics/SVG/1.1/DTD/svg11.dtd">
<!-- Generated by graphviz version 2.43.0 (0)
 -->
<!-- Title: CalibrateCommand Pages: 1 -->
<svg width="119pt" height="196pt"
 viewBox="0.00 0.00 119.00 196.00" xmlns="http://www.w3.org/2000/svg" xmlns:xlink="http://www.w3.org/1999/xlink">
<g id="graph0" class="graph" transform="scale(1 1) rotate(0) translate(4 192)">
<title>CalibrateCommand</title>
<!-- Node1 -->
<g id="node1" class="node">
<title>Node1</title>
<g id="a_node1"><a xlink:title="The CalibrateCommand class implements the calibrate CLI command.">
<polygon fill="#bfbfbf" stroke="black" points="0,-0.5 0,-19.5 111,-19.5 111,-0.5 0,-0.5"/>
<text text-anchor="middle" x="55.5" y="-7.5" font-family="Helvetica,sans-Serif" font-size="10.00">CalibrateCommand</text>
</a>
</g>
</g>
<!-- Node2 -->
<g id="node2" class="node">
<title>Node2</title>
<g id="a_node2"><a xlink:href="classDeviceCommand.html" target="_top" xlink:title="The AbstractCommand class extends AbstractCommand to add a PokitDevice instance.">
<polygon fill="none" stroke="black" points="5,-56.5 5,-75.5 106,-75.5 106,-56.5 5,-56.5"/>
<text text-anchor="middle" x="55.5" y="-63.5" font-family="Helvetica,sans-Serif" font-size="10.00">DeviceCommand</text>
</a>
</g>
</g>
<!-- Node2&#45;&gt;Node1 -->
<g id="edge1" class="edge">
<title>Node2&#45;&gt;Node1</title>
<path fill="none" stroke="midnightblue" d="M55.5,-45.8C55.5,-36.91 55.5,-26.78 55.5,-19.75"/>
<polygon fill="midnightblue" stroke="midnightblue" points="52,-46.08 55.5,-56.08 59,-46.08 52,-46.08"/>
</g>
<!-- Node3 -->
<g id="node3" class="node">
<title>Node3</title>
<g id="a_node3"><a xlink:href="classAbstractCommand.html" target="_top" xlink:title="The AbstractCommand class provides a consistent base for the classes that implement CLI commands.">
<polygon fill="none" stroke="black" points="2,-112.5 2,-131.5 109,-131.5 109,-112.5 2,-112.5"/>
<text text-anchor="middle" x="55.5" y="-119.5" font-family="Helvetica,sans-Serif" font-size="10.00">AbstractCommand</text>
</a>
</g>
</g>
<!-- Node3&#45;&gt;Node2 -->
<g id="edge2" class="edge">
<title>Node3&#45;&gt;Node2</title>
<path fill="none" stroke="midnightblue" d="M55.5,-101.8C55.5,-92.91 55.5,-82.78 55.5,-75.75"/>
<polygon fill="midnightblue" stroke="midnightblue" points="52,-102.08 55.5,-112.08 59,-102.08 52,-102.08"/>
</g>
<!-- Node4 -->
<g id="node4" class="node">
<title>Node4</title>
<g id="a_node4"><a target="_parent" xlink:href="https://doc.qt.io/qt-5/qobject.html" xlink:title=" ">
<polygon fill="none" stroke="#bfbfbf" points="27.5,-168.5 27.5,-187.5 83.5,-187.5 83.5,-168.5 27.5,-168.5"/>
<text text-anchor="middle" x="55.5" y="-175.5" font-family="Helvetica,sans-Serif" font-size="10.00">QObject</text>
</a>
</g>
</g>
<!-- Node4&#45;&gt;Node3 -->
<g id="edge3" class="edge">
<title>Node4&#45;&gt;Node3</title>
<path fill="none" stroke="midnightblue" d="M55.5,-157.8C55.5,-148.91 55.5,-138.78 55.5,-131.75"/>
<polygon fill="midnightblue" stroke="midnightblue" points="52,-158.08 55.5,-168.08 59,-158.08 52,-158.08"/>
</g>
</g>
</svg>
