<?xml version="1.0" encoding="UTF-8" standalone="no"?>
<!DOCTYPE svg PUBLIC "-//W3C//DTD SVG 1.1//EN"
 "http://www.w3.org/Graphics/SVG/1.1/DTD/svg11.dtd">
<!-- Generated by graphviz version 2.43.0 (0)
 -->
<!-- Title: PokitDevicePrivate::connectionUpdated Pages: 1 -->
<svg width="349pt" height="225pt"
 viewBox="0.00 0.00 349.00 224.50" xmlns="http://www.w3.org/2000/svg" xmlns:xlink="http://www.w3.org/1999/xlink">
<g id="graph0" class="graph" transform="scale(1 1) rotate(0) translate(4 220.5)">
<title>PokitDevicePrivate::connectionUpdated</title>
<!-- Node1 -->
<g id="node1" class="node">
<title>Node1</title>
<g id="a_node1"><a xlink:title="Handle connectionUpdated signals.">
<polygon fill="#bfbfbf" stroke="black" points="0,-88 0,-118 117,-118 117,-88 0,-88"/>
<text text-anchor="start" x="8" y="-106" font-family="Helvetica,sans-Serif" font-size="10.00">PokitDevicePrivate</text>
<text text-anchor="middle" x="58.5" y="-95" font-family="Helvetica,sans-Serif" font-size="10.00">::connectionUpdated</text>
</a>
</g>
</g>
<!-- Node2 -->
<g id="node2" class="node">
<title>Node2</title>
<g id="a_node2"><a target="_parent" xlink:href="https://doc.qt.io/qt-5/qlowenergyconnectionparameters.html#latency" xlink:title=" ">
<polygon fill="none" stroke="black" points="153,-186 153,-216 341,-216 341,-186 153,-186"/>
<text text-anchor="start" x="161" y="-204" font-family="Helvetica,sans-Serif" font-size="10.00">QLowEnergyConnectionParameters</text>
<text text-anchor="middle" x="247" y="-193" font-family="Helvetica,sans-Serif" font-size="10.00">::latency</text>
</a>
</g>
</g>
<!-- Node1&#45;&gt;Node2 -->
<g id="edge1" class="edge">
<title>Node1&#45;&gt;Node2</title>
<path fill="none" stroke="midnightblue" d="M74.32,-118.04C91.68,-134.82 122.04,-161.62 153,-177 156.97,-178.97 161.12,-180.79 165.37,-182.48"/>
<polygon fill="midnightblue" stroke="midnightblue" points="164.2,-185.78 174.8,-185.93 166.61,-179.2 164.2,-185.78"/>
</g>
<!-- Node3 -->
<g id="node3" class="node">
<title>Node3</title>
<g id="a_node3"><a target="_parent" xlink:href="https://doc.qt.io/qt-5/qlowenergyconnectionparameters.html#maximumInterval" xlink:title=" ">
<polygon fill="none" stroke="black" points="153,-137 153,-167 341,-167 341,-137 153,-137"/>
<text text-anchor="start" x="161" y="-155" font-family="Helvetica,sans-Serif" font-size="10.00">QLowEnergyConnectionParameters</text>
<text text-anchor="middle" x="247" y="-144" font-family="Helvetica,sans-Serif" font-size="10.00">::maximumInterval</text>
</a>
</g>
</g>
<!-- Node1&#45;&gt;Node3 -->
<g id="edge2" class="edge">
<title>Node1&#45;&gt;Node3</title>
<path fill="none" stroke="midnightblue" d="M115.35,-118.02C127.74,-121.33 140.81,-124.8 153,-128 161,-130.1 169.39,-132.29 177.72,-134.45"/>
<polygon fill="midnightblue" stroke="midnightblue" points="176.88,-137.85 187.44,-136.97 178.64,-131.07 176.88,-137.85"/>
</g>
<!-- Node4 -->
<g id="node4" class="node">
<title>Node4</title>
<g id="a_node4"><a target="_parent" xlink:href="https://doc.qt.io/qt-5/qlowenergyconnectionparameters.html#minimumInterval" xlink:title=" ">
<polygon fill="none" stroke="black" points="153,-88 153,-118 341,-118 341,-88 153,-88"/>
<text text-anchor="start" x="161" y="-106" font-family="Helvetica,sans-Serif" font-size="10.00">QLowEnergyConnectionParameters</text>
<text text-anchor="middle" x="247" y="-95" font-family="Helvetica,sans-Serif" font-size="10.00">::minimumInterval</text>
</a>
</g>
</g>
<!-- Node1&#45;&gt;Node4 -->
<g id="edge3" class="edge">
<title>Node1&#45;&gt;Node4</title>
<path fill="none" stroke="midnightblue" d="M117.23,-103C125.38,-103 133.96,-103 142.65,-103"/>
<polygon fill="midnightblue" stroke="midnightblue" points="142.9,-106.5 152.9,-103 142.9,-99.5 142.9,-106.5"/>
</g>
<!-- Node5 -->
<g id="node5" class="node">
<title>Node5</title>
<g id="a_node5"><a target="_parent" xlink:href="https://doc.qt.io/qt-5/qlowenergyconnectionparameters.html#supervisionTimeout" xlink:title=" ">
<polygon fill="none" stroke="black" points="153,-39 153,-69 341,-69 341,-39 153,-39"/>
<text text-anchor="start" x="161" y="-57" font-family="Helvetica,sans-Serif" font-size="10.00">QLowEnergyConnectionParameters</text>
<text text-anchor="middle" x="247" y="-46" font-family="Helvetica,sans-Serif" font-size="10.00">::supervisionTimeout</text>
</a>
</g>
</g>
<!-- Node1&#45;&gt;Node5 -->
<g id="edge4" class="edge">
<title>Node1&#45;&gt;Node5</title>
<path fill="none" stroke="midnightblue" d="M116.72,-87.97C136.42,-82.79 158.64,-76.95 179.04,-71.59"/>
<polygon fill="midnightblue" stroke="midnightblue" points="180.1,-74.93 188.88,-69.01 178.32,-68.16 180.1,-74.93"/>
</g>
<!-- Node6 -->
<g id="node6" class="node">
<title>Node6</title>
<g id="a_node6"><a target="_parent" xlink:href="https://doc.qt.io/qt-5/qobject.html#tr" xlink:title=" ">
<polygon fill="none" stroke="black" points="212.5,-0.5 212.5,-19.5 281.5,-19.5 281.5,-0.5 212.5,-0.5"/>
<text text-anchor="middle" x="247" y="-7.5" font-family="Helvetica,sans-Serif" font-size="10.00">QObject::tr</text>
</a>
</g>
</g>
<!-- Node1&#45;&gt;Node6 -->
<g id="edge5" class="edge">
<title>Node1&#45;&gt;Node6</title>
<path fill="none" stroke="midnightblue" d="M74.25,-87.95C91.55,-71.19 121.85,-44.57 153,-30 168.22,-22.88 186.02,-18.27 201.96,-15.28"/>
<polygon fill="midnightblue" stroke="midnightblue" points="202.85,-18.68 212.12,-13.55 201.67,-11.78 202.85,-18.68"/>
</g>
</g>
</svg>
