<?xml version="1.0" encoding="UTF-8" standalone="no"?>
<!DOCTYPE svg PUBLIC "-//W3C//DTD SVG 1.1//EN"
 "http://www.w3.org/Graphics/SVG/1.1/DTD/svg11.dtd">
<!-- Generated by graphviz version 2.43.0 (0)
 -->
<!-- Title: DsoService::CharacteristicUuids Pages: 1 -->
<svg width="153pt" height="185pt"
 viewBox="0.00 0.00 153.00 185.00" xmlns="http://www.w3.org/2000/svg" xmlns:xlink="http://www.w3.org/1999/xlink">
<g id="graph0" class="graph" transform="scale(1 1) rotate(0) translate(4 181)">
<title>DsoService::CharacteristicUuids</title>
<!-- Node1 -->
<g id="node1" class="node">
<title>Node1</title>
<g id="a_node1"><a xlink:title="Characteristics available via the DSO service.">
<polygon fill="#bfbfbf" stroke="black" points="0,-0.5 0,-30.5 145,-30.5 145,-0.5 0,-0.5"/>
<text text-anchor="start" x="8" y="-18.5" font-family="Helvetica,sans-Serif" font-size="10.00">DsoService::Characteristic</text>
<text text-anchor="middle" x="72.5" y="-7.5" font-family="Helvetica,sans-Serif" font-size="10.00">Uuids</text>
</a>
</g>
</g>
<!-- Node2 -->
<g id="node2" class="node">
<title>Node2</title>
<g id="a_node2"><a target="_parent" xlink:href="https://doc.qt.io/qt-5/qbluetoothuuid.html" xlink:title=" ">
<polygon fill="none" stroke="#bfbfbf" points="25.5,-100.5 25.5,-119.5 119.5,-119.5 119.5,-100.5 25.5,-100.5"/>
<text text-anchor="middle" x="72.5" y="-107.5" font-family="Helvetica,sans-Serif" font-size="10.00">QBluetoothUuid</text>
</a>
</g>
</g>
<!-- Node2&#45;&gt;Node1 -->
<g id="edge1" class="edge">
<title>Node2&#45;&gt;Node1</title>
<path fill="none" stroke="#9a32cd" stroke-dasharray="5,2" d="M72.5,-90.29C72.5,-72.67 72.5,-46.67 72.5,-30.7"/>
<polygon fill="#9a32cd" stroke="#9a32cd" points="69,-90.46 72.5,-100.46 76,-90.46 69,-90.46"/>
<text text-anchor="middle" x="98" y="-74" font-family="Helvetica,sans-Serif" font-size="10.00"> metadata</text>
<text text-anchor="middle" x="98" y="-63" font-family="Helvetica,sans-Serif" font-size="10.00">reading</text>
<text text-anchor="middle" x="98" y="-52" font-family="Helvetica,sans-Serif" font-size="10.00">settings</text>
</g>
<!-- Node3 -->
<g id="node3" class="node">
<title>Node3</title>
<g id="a_node3"><a target="_parent" xlink:href="https://doc.qt.io/qt-5/quuid.html" xlink:title=" ">
<polygon fill="none" stroke="#bfbfbf" points="49,-157.5 49,-176.5 96,-176.5 96,-157.5 49,-157.5"/>
<text text-anchor="middle" x="72.5" y="-164.5" font-family="Helvetica,sans-Serif" font-size="10.00">QUuid</text>
</a>
</g>
</g>
<!-- Node3&#45;&gt;Node2 -->
<g id="edge2" class="edge">
<title>Node3&#45;&gt;Node2</title>
<path fill="none" stroke="midnightblue" d="M72.5,-147.12C72.5,-137.82 72.5,-127.06 72.5,-119.71"/>
<polygon fill="midnightblue" stroke="midnightblue" points="69,-147.41 72.5,-157.41 76,-147.41 69,-147.41"/>
</g>
</g>
</svg>
