<?xml version="1.0" encoding="UTF-8" standalone="no"?>
<!DOCTYPE svg PUBLIC "-//W3C//DTD SVG 1.1//EN"
 "http://www.w3.org/Graphics/SVG/1.1/DTD/svg11.dtd">
<!-- Generated by graphviz version 2.43.0 (0)
 -->
<!-- Title: DataLoggerService::metadata Pages: 1 -->
<svg width="441pt" height="147pt"
 viewBox="0.00 0.00 441.00 146.50" xmlns="http://www.w3.org/2000/svg" xmlns:xlink="http://www.w3.org/1999/xlink">
<g id="graph0" class="graph" transform="scale(1 1) rotate(0) translate(4 142.5)">
<title>DataLoggerService::metadata</title>
<!-- Node1 -->
<g id="Node000001" class="node">
<title>Node1</title>
<g id="a_Node000001"><a xlink:title="Returns the most recent value of the DataLogger service&#39;s Metadata characteristic.">
<polygon fill="#999999" stroke="#666666" points="115,-78 0,-78 0,-48 115,-48 115,-78"/>
<text text-anchor="start" x="8" y="-66" font-family="Helvetica,sans-Serif" font-size="10.00">DataLoggerService::</text>
<text text-anchor="middle" x="57.5" y="-55" font-family="Helvetica,sans-Serif" font-size="10.00">metadata</text>
</a>
</g>
</g>
<!-- Node2 -->
<g id="Node000002" class="node">
<title>Node2</title>
<g id="a_Node000002"><a xlink:href="classDataLoggerService.html#a1c2155abba340d49fc39bfa49ed59a6c" target="_top" xlink:title="Constructs a new Pokit service with parent.">
<polygon fill="white" stroke="#666666" points="281,-126 166,-126 166,-96 281,-96 281,-126"/>
<text text-anchor="start" x="174" y="-114" font-family="Helvetica,sans-Serif" font-size="10.00">DataLoggerService::</text>
<text text-anchor="middle" x="223.5" y="-103" font-family="Helvetica,sans-Serif" font-size="10.00">DataLoggerService</text>
</a>
</g>
</g>
<!-- Node1&#45;&gt;Node2 -->
<g id="edge1_Node000001_Node000002" class="edge">
<title>Node1&#45;&gt;Node2</title>
<g id="a_edge1_Node000001_Node000002"><a xlink:title=" ">
<path fill="none" stroke="#63b8ff" d="M109.94,-78.06C126.88,-83.01 145.86,-88.57 163.33,-93.68"/>
<polygon fill="#63b8ff" stroke="#63b8ff" points="171.24,-96 162.55,-97.21 167.4,-94.87 163.56,-93.75 163.56,-93.75 163.56,-93.75 167.4,-94.87 164.58,-90.3 171.24,-96 171.24,-96"/>
</a>
</g>
</g>
<!-- Node5 -->
<g id="Node000005" class="node">
<title>Node5</title>
<g id="a_Node000005"><a target="_parent" xlink:href="https://doc.qt.io/qt-5/qlowenergycharacteristic.html#isValid" xlink:title=" ">
<polygon fill="white" stroke="#666666" points="296,-78 151,-78 151,-48 296,-48 296,-78"/>
<text text-anchor="start" x="159" y="-66" font-family="Helvetica,sans-Serif" font-size="10.00">QLowEnergyCharacteristic</text>
<text text-anchor="middle" x="223.5" y="-55" font-family="Helvetica,sans-Serif" font-size="10.00">::isValid</text>
</a>
</g>
</g>
<!-- Node1&#45;&gt;Node5 -->
<g id="edge4_Node000001_Node000005" class="edge">
<title>Node1&#45;&gt;Node5</title>
<g id="a_edge4_Node000001_Node000005"><a xlink:title=" ">
<path fill="none" stroke="#63b8ff" d="M115.4,-63C124.27,-63 133.58,-63 142.84,-63"/>
<polygon fill="#63b8ff" stroke="#63b8ff" points="150.97,-63 142.97,-66.6 146.97,-63 142.97,-63 142.97,-63 142.97,-63 146.97,-63 142.97,-59.4 150.97,-63 150.97,-63"/>
</a>
</g>
</g>
<!-- Node6 -->
<g id="Node000006" class="node">
<title>Node6</title>
<g id="a_Node000006"><a target="_parent" xlink:href="https://doc.qt.io/qt-5/qlowenergycharacteristic.html#value" xlink:title=" ">
<polygon fill="white" stroke="#666666" points="296,-30 151,-30 151,0 296,0 296,-30"/>
<text text-anchor="start" x="159" y="-18" font-family="Helvetica,sans-Serif" font-size="10.00">QLowEnergyCharacteristic</text>
<text text-anchor="middle" x="223.5" y="-7" font-family="Helvetica,sans-Serif" font-size="10.00">::value</text>
</a>
</g>
</g>
<!-- Node1&#45;&gt;Node6 -->
<g id="edge5_Node000001_Node000006" class="edge">
<title>Node1&#45;&gt;Node6</title>
<g id="a_edge5_Node000001_Node000006"><a xlink:title=" ">
<path fill="none" stroke="#63b8ff" d="M109.94,-47.94C126.88,-42.99 145.86,-37.43 163.33,-32.32"/>
<polygon fill="#63b8ff" stroke="#63b8ff" points="171.24,-30 164.58,-35.7 167.4,-31.13 163.56,-32.25 163.56,-32.25 163.56,-32.25 167.4,-31.13 162.55,-28.79 171.24,-30 171.24,-30"/>
</a>
</g>
</g>
<!-- Node3 -->
<g id="Node000003" class="node">
<title>Node3</title>
<g id="a_Node000003"><a target="_parent" xlink:href="https://doc.qt.io/qt-5/qobject.html#parent" xlink:title=" ">
<polygon fill="white" stroke="#666666" points="429,-138.5 336,-138.5 336,-119.5 429,-119.5 429,-138.5"/>
<text text-anchor="middle" x="382.5" y="-126.5" font-family="Helvetica,sans-Serif" font-size="10.00">QObject::parent</text>
</a>
</g>
</g>
<!-- Node2&#45;&gt;Node3 -->
<g id="edge2_Node000002_Node000003" class="edge">
<title>Node2&#45;&gt;Node3</title>
<g id="a_edge2_Node000002_Node000003"><a xlink:title=" ">
<path fill="none" stroke="#63b8ff" d="M281.18,-117.5C296.37,-119.24 312.75,-121.12 327.78,-122.84"/>
<polygon fill="#63b8ff" stroke="#63b8ff" points="335.97,-123.78 327.61,-126.45 332,-123.32 328.02,-122.87 328.02,-122.87 328.02,-122.87 332,-123.32 328.43,-119.29 335.97,-123.78 335.97,-123.78"/>
</a>
</g>
</g>
<!-- Node4 -->
<g id="Node000004" class="node">
<title>Node4</title>
<g id="a_Node000004"><a target="_parent" xlink:href="https://doc.qt.io/qt-5/qobject.html#QObject" xlink:title=" ">
<polygon fill="white" stroke="#666666" points="433,-101.5 332,-101.5 332,-82.5 433,-82.5 433,-101.5"/>
<text text-anchor="middle" x="382.5" y="-89.5" font-family="Helvetica,sans-Serif" font-size="10.00">QObject::QObject</text>
</a>
</g>
</g>
<!-- Node2&#45;&gt;Node4 -->
<g id="edge3_Node000002_Node000004" class="edge">
<title>Node2&#45;&gt;Node4</title>
<g id="a_edge3_Node000002_Node000004"><a xlink:title=" ">
<path fill="none" stroke="#63b8ff" d="M281.18,-104.14C295.06,-102.46 309.92,-100.66 323.84,-98.98"/>
<polygon fill="#63b8ff" stroke="#63b8ff" points="331.92,-98 324.41,-102.54 327.95,-98.48 323.98,-98.96 323.98,-98.96 323.98,-98.96 327.95,-98.48 323.54,-95.39 331.92,-98 331.92,-98"/>
</a>
</g>
</g>
</g>
</svg>
