<?xml version="1.0" encoding="UTF-8" standalone="no"?>
<!DOCTYPE svg PUBLIC "-//W3C//DTD SVG 1.1//EN"
 "http://www.w3.org/Graphics/SVG/1.1/DTD/svg11.dtd">
<!-- Generated by graphviz version 2.43.0 (0)
 -->
<!-- Title: DsoService::enableReadingNotifications Pages: 1 -->
<svg width="463pt" height="64pt"
 viewBox="0.00 0.00 463.00 64.00" xmlns="http://www.w3.org/2000/svg" xmlns:xlink="http://www.w3.org/1999/xlink">
<g id="graph0" class="graph" transform="scale(1 1) rotate(0) translate(4 60)">
<title>DsoService::enableReadingNotifications</title>
<!-- Node1 -->
<g id="Node000001" class="node">
<title>Node1</title>
<g id="a_Node000001"><a xlink:title="Enables client&#45;side notifications of DSO readings.">
<polygon fill="#999999" stroke="#666666" points="150,-42.5 0,-42.5 0,-12.5 150,-12.5 150,-42.5"/>
<text text-anchor="start" x="8" y="-30.5" font-family="Helvetica,sans-Serif" font-size="10.00">DsoService::enableReading</text>
<text text-anchor="middle" x="75" y="-19.5" font-family="Helvetica,sans-Serif" font-size="10.00">Notifications</text>
</a>
</g>
</g>
<!-- Node2 -->
<g id="Node000002" class="node">
<title>Node2</title>
<g id="a_Node000002"><a xlink:href="classDsoService.html#a1dd2b779c611f5d255bedf8f142806b7" target="_top" xlink:title="Constructs a new Pokit service with parent.">
<polygon fill="white" stroke="#666666" points="318,-37 186,-37 186,-18 318,-18 318,-37"/>
<text text-anchor="middle" x="252" y="-25" font-family="Helvetica,sans-Serif" font-size="10.00">DsoService::DsoService</text>
</a>
</g>
</g>
<!-- Node1&#45;&gt;Node2 -->
<g id="edge1_Node000001_Node000002" class="edge">
<title>Node1&#45;&gt;Node2</title>
<g id="a_edge1_Node000001_Node000002"><a xlink:title=" ">
<path fill="none" stroke="#63b8ff" d="M150.22,-27.5C159.27,-27.5 168.53,-27.5 177.57,-27.5"/>
<polygon fill="#63b8ff" stroke="#63b8ff" points="185.81,-27.5 177.81,-31.1 181.81,-27.5 177.81,-27.5 177.81,-27.5 177.81,-27.5 181.81,-27.5 177.81,-23.9 185.81,-27.5 185.81,-27.5"/>
</a>
</g>
</g>
<!-- Node3 -->
<g id="Node000003" class="node">
<title>Node3</title>
<g id="a_Node000003"><a target="_parent" xlink:href="https://doc.qt.io/qt-5/qobject.html#parent" xlink:title=" ">
<polygon fill="white" stroke="#666666" points="451,-56 358,-56 358,-37 451,-37 451,-56"/>
<text text-anchor="middle" x="404.5" y="-44" font-family="Helvetica,sans-Serif" font-size="10.00">QObject::parent</text>
</a>
</g>
</g>
<!-- Node2&#45;&gt;Node3 -->
<g id="edge2_Node000002_Node000003" class="edge">
<title>Node2&#45;&gt;Node3</title>
<g id="a_edge2_Node000002_Node000003"><a xlink:title=" ">
<path fill="none" stroke="#63b8ff" d="M318.14,-35.72C328.67,-37.05 339.47,-38.42 349.69,-39.71"/>
<polygon fill="#63b8ff" stroke="#63b8ff" points="357.75,-40.72 349.36,-43.29 353.78,-40.22 349.81,-39.72 349.81,-39.72 349.81,-39.72 353.78,-40.22 350.27,-36.15 357.75,-40.72 357.75,-40.72"/>
</a>
</g>
</g>
<!-- Node4 -->
<g id="Node000004" class="node">
<title>Node4</title>
<g id="a_Node000004"><a target="_parent" xlink:href="https://doc.qt.io/qt-5/qobject.html#QObject" xlink:title=" ">
<polygon fill="white" stroke="#666666" points="455,-19 354,-19 354,0 455,0 455,-19"/>
<text text-anchor="middle" x="404.5" y="-7" font-family="Helvetica,sans-Serif" font-size="10.00">QObject::QObject</text>
</a>
</g>
</g>
<!-- Node2&#45;&gt;Node4 -->
<g id="edge3_Node000002_Node000004" class="edge">
<title>Node2&#45;&gt;Node4</title>
<g id="a_edge3_Node000002_Node000004"><a xlink:title=" ">
<path fill="none" stroke="#63b8ff" d="M318.14,-19.71C327.26,-18.62 336.59,-17.5 345.56,-16.43"/>
<polygon fill="#63b8ff" stroke="#63b8ff" points="353.69,-15.46 346.18,-19.98 349.72,-15.93 345.75,-16.41 345.75,-16.41 345.75,-16.41 349.72,-15.93 345.32,-12.83 353.69,-15.46 353.69,-15.46"/>
</a>
</g>
</g>
</g>
</svg>
