<?xml version="1.0" encoding="UTF-8" standalone="no"?>
<!DOCTYPE svg PUBLIC "-//W3C//DTD SVG 1.1//EN"
 "http://www.w3.org/Graphics/SVG/1.1/DTD/svg11.dtd">
<!-- Generated by graphviz version 2.43.0 (0)
 -->
<!-- Title: StatusService::setDeviceName Pages: 1 -->
<svg width="504pt" height="261pt"
 viewBox="0.00 0.00 504.00 261.00" xmlns="http://www.w3.org/2000/svg" xmlns:xlink="http://www.w3.org/1999/xlink">
<g id="graph0" class="graph" transform="scale(1 1) rotate(0) translate(4 257)">
<title>StatusService::setDeviceName</title>
<!-- Node1 -->
<g id="Node000001" class="node">
<title>Node1</title>
<g id="a_Node000001"><a xlink:title="Set&#39;s the Pokit device&#39;s name to name.">
<polygon fill="#999999" stroke="#666666" points="167,-130 0,-130 0,-111 167,-111 167,-130"/>
<text text-anchor="middle" x="83.5" y="-118" font-family="Helvetica,sans-Serif" font-size="10.00">StatusService::setDeviceName</text>
</a>
</g>
</g>
<!-- Node2 -->
<g id="Node000002" class="node">
<title>Node2</title>
<g id="a_Node000002"><a target="_parent" xlink:href="https://doc.qt.io/qt-5/qstring.html#arg-1" xlink:title=" ">
<polygon fill="white" stroke="#666666" points="318,-253 244,-253 244,-234 318,-234 318,-253"/>
<text text-anchor="middle" x="281" y="-241" font-family="Helvetica,sans-Serif" font-size="10.00">QString::arg</text>
</a>
</g>
</g>
<!-- Node1&#45;&gt;Node2 -->
<g id="edge1_Node000001_Node000002" class="edge">
<title>Node1&#45;&gt;Node2</title>
<g id="a_edge1_Node000001_Node000002"><a xlink:title=" ">
<path fill="none" stroke="#63b8ff" d="M92.59,-130.23C110.34,-150.92 154.96,-199.42 203,-224.5 213.12,-229.78 224.75,-233.63 235.87,-236.43"/>
<polygon fill="#63b8ff" stroke="#63b8ff" points="243.84,-238.29 235.23,-239.98 239.94,-237.38 236.04,-236.47 236.04,-236.47 236.04,-236.47 239.94,-237.38 236.86,-232.97 243.84,-238.29 243.84,-238.29"/>
</a>
</g>
</g>
<!-- Node3 -->
<g id="Node000003" class="node">
<title>Node3</title>
<g id="a_Node000003"><a target="_parent" xlink:href="https://doc.qt.io/qt-5/qlowenergycharacteristic.html#isValid" xlink:title=" ">
<polygon fill="white" stroke="#666666" points="353.5,-215.5 208.5,-215.5 208.5,-185.5 353.5,-185.5 353.5,-215.5"/>
<text text-anchor="start" x="216.5" y="-203.5" font-family="Helvetica,sans-Serif" font-size="10.00">QLowEnergyCharacteristic</text>
<text text-anchor="middle" x="281" y="-192.5" font-family="Helvetica,sans-Serif" font-size="10.00">::isValid</text>
</a>
</g>
</g>
<!-- Node1&#45;&gt;Node3 -->
<g id="edge2_Node000001_Node000003" class="edge">
<title>Node1&#45;&gt;Node3</title>
<g id="a_edge2_Node000001_Node000003"><a xlink:title=" ">
<path fill="none" stroke="#63b8ff" d="M102.62,-130.04C125.58,-141.89 166.54,-162.28 203,-176.5 208.69,-178.72 214.67,-180.88 220.68,-182.93"/>
<polygon fill="#63b8ff" stroke="#63b8ff" points="228.3,-185.48 219.57,-186.35 224.5,-184.21 220.71,-182.94 220.71,-182.94 220.71,-182.94 224.5,-184.21 221.85,-179.52 228.3,-185.48 228.3,-185.48"/>
</a>
</g>
</g>
<!-- Node4 -->
<g id="Node000004" class="node">
<title>Node4</title>
<g id="a_Node000004"><a target="_parent" xlink:href="https://doc.qt.io/qt-5/qbytearray.html#length" xlink:title=" ">
<polygon fill="white" stroke="#666666" points="335.5,-167 226.5,-167 226.5,-148 335.5,-148 335.5,-167"/>
<text text-anchor="middle" x="281" y="-155" font-family="Helvetica,sans-Serif" font-size="10.00">QByteArray::length</text>
</a>
</g>
</g>
<!-- Node1&#45;&gt;Node4 -->
<g id="edge3_Node000001_Node000004" class="edge">
<title>Node1&#45;&gt;Node4</title>
<g id="a_edge3_Node000001_Node000004"><a xlink:title=" ">
<path fill="none" stroke="#63b8ff" d="M134.85,-130.03C161.31,-135.04 193.89,-141.2 221.47,-146.42"/>
<polygon fill="#63b8ff" stroke="#63b8ff" points="229.49,-147.94 220.96,-149.99 225.55,-147.2 221.62,-146.45 221.62,-146.45 221.62,-146.45 225.55,-147.2 222.29,-142.91 229.49,-147.94 229.49,-147.94"/>
</a>
</g>
</g>
<!-- Node5 -->
<g id="Node000005" class="node">
<title>Node5</title>
<g id="a_Node000005"><a xlink:href="classStatusService.html#a095254046689e5115ba053c029a2e1b8" target="_top" xlink:title="Constructs a new Pokit service with parent.">
<polygon fill="white" stroke="#666666" points="359,-130 203,-130 203,-111 359,-111 359,-130"/>
<text text-anchor="middle" x="281" y="-118" font-family="Helvetica,sans-Serif" font-size="10.00">StatusService::StatusService</text>
</a>
</g>
</g>
<!-- Node1&#45;&gt;Node5 -->
<g id="edge4_Node000001_Node000005" class="edge">
<title>Node1&#45;&gt;Node5</title>
<g id="a_edge4_Node000001_Node000005"><a xlink:title=" ">
<path fill="none" stroke="#63b8ff" d="M167.13,-120.5C176.31,-120.5 185.69,-120.5 194.9,-120.5"/>
<polygon fill="#63b8ff" stroke="#63b8ff" points="202.96,-120.5 194.96,-124.1 198.96,-120.5 194.96,-120.5 194.96,-120.5 194.96,-120.5 198.96,-120.5 194.96,-116.9 202.96,-120.5 202.96,-120.5"/>
</a>
</g>
</g>
<!-- Node8 -->
<g id="Node000008" class="node">
<title>Node8</title>
<g id="a_Node000008"><a target="_parent" xlink:href="https://doc.qt.io/qt-5/qbytearray.html#toHex" xlink:title=" ">
<polygon fill="white" stroke="#666666" points="334.5,-93 227.5,-93 227.5,-74 334.5,-74 334.5,-93"/>
<text text-anchor="middle" x="281" y="-81" font-family="Helvetica,sans-Serif" font-size="10.00">QByteArray::toHex</text>
</a>
</g>
</g>
<!-- Node1&#45;&gt;Node8 -->
<g id="edge7_Node000001_Node000008" class="edge">
<title>Node1&#45;&gt;Node8</title>
<g id="a_edge7_Node000001_Node000008"><a xlink:title=" ">
<path fill="none" stroke="#63b8ff" d="M134.85,-110.97C161.31,-105.96 193.89,-99.8 221.47,-94.58"/>
<polygon fill="#63b8ff" stroke="#63b8ff" points="229.49,-93.06 222.29,-98.09 225.55,-93.8 221.62,-94.55 221.62,-94.55 221.62,-94.55 225.55,-93.8 220.96,-91.01 229.49,-93.06 229.49,-93.06"/>
</a>
</g>
</g>
<!-- Node9 -->
<g id="Node000009" class="node">
<title>Node9</title>
<g id="a_Node000009"><a target="_parent" xlink:href="https://doc.qt.io/qt-5/qstring.html#toUtf8" xlink:title=" ">
<polygon fill="white" stroke="#666666" points="325.5,-56 236.5,-56 236.5,-37 325.5,-37 325.5,-56"/>
<text text-anchor="middle" x="281" y="-44" font-family="Helvetica,sans-Serif" font-size="10.00">QString::toUtf8</text>
</a>
</g>
</g>
<!-- Node1&#45;&gt;Node9 -->
<g id="edge8_Node000001_Node000009" class="edge">
<title>Node1&#45;&gt;Node9</title>
<g id="a_edge8_Node000001_Node000009"><a xlink:title=" ">
<path fill="none" stroke="#63b8ff" d="M101.68,-110.96C124.31,-98.72 165.62,-77.54 203,-64.5 211.14,-61.66 219.92,-59.13 228.53,-56.93"/>
<polygon fill="#63b8ff" stroke="#63b8ff" points="236.37,-55.01 229.46,-60.41 232.49,-55.96 228.6,-56.92 228.6,-56.92 228.6,-56.92 232.49,-55.96 227.74,-53.42 236.37,-55.01 236.37,-55.01"/>
</a>
</g>
</g>
<!-- Node10 -->
<g id="Node000010" class="node">
<title>Node10</title>
<g id="a_Node000010"><a target="_parent" xlink:href="https://doc.qt.io/qt-5/qobject.html#tr" xlink:title=" ">
<polygon fill="white" stroke="#666666" points="315.5,-19 246.5,-19 246.5,0 315.5,0 315.5,-19"/>
<text text-anchor="middle" x="281" y="-7" font-family="Helvetica,sans-Serif" font-size="10.00">QObject::tr</text>
</a>
</g>
</g>
<!-- Node1&#45;&gt;Node10 -->
<g id="edge9_Node000001_Node000010" class="edge">
<title>Node1&#45;&gt;Node10</title>
<g id="a_edge9_Node000001_Node000010"><a xlink:title=" ">
<path fill="none" stroke="#63b8ff" d="M93.65,-110.93C112.33,-91.98 157.03,-49.57 203,-27.5 213.96,-22.24 226.55,-18.46 238.34,-15.78"/>
<polygon fill="#63b8ff" stroke="#63b8ff" points="246.34,-14.08 239.25,-19.26 242.42,-14.91 238.51,-15.74 238.51,-15.74 238.51,-15.74 242.42,-14.91 237.76,-12.22 246.34,-14.08 246.34,-14.08"/>
</a>
</g>
</g>
<!-- Node6 -->
<g id="Node000006" class="node">
<title>Node6</title>
<g id="a_Node000006"><a target="_parent" xlink:href="https://doc.qt.io/qt-5/qobject.html#parent" xlink:title=" ">
<polygon fill="white" stroke="#666666" points="492,-148 399,-148 399,-129 492,-129 492,-148"/>
<text text-anchor="middle" x="445.5" y="-136" font-family="Helvetica,sans-Serif" font-size="10.00">QObject::parent</text>
</a>
</g>
</g>
<!-- Node5&#45;&gt;Node6 -->
<g id="edge5_Node000005_Node000006" class="edge">
<title>Node5&#45;&gt;Node6</title>
<g id="a_edge5_Node000005_Node000006"><a xlink:title=" ">
<path fill="none" stroke="#63b8ff" d="M359.44,-129.08C369.92,-130.24 380.47,-131.41 390.42,-132.51"/>
<polygon fill="#63b8ff" stroke="#63b8ff" points="398.61,-133.42 390.26,-136.11 394.64,-132.98 390.66,-132.54 390.66,-132.54 390.66,-132.54 394.64,-132.98 391.06,-128.96 398.61,-133.42 398.61,-133.42"/>
</a>
</g>
</g>
<!-- Node7 -->
<g id="Node000007" class="node">
<title>Node7</title>
<g id="a_Node000007"><a target="_parent" xlink:href="https://doc.qt.io/qt-5/qobject.html#QObject" xlink:title=" ">
<polygon fill="white" stroke="#666666" points="496,-111 395,-111 395,-92 496,-92 496,-111"/>
<text text-anchor="middle" x="445.5" y="-99" font-family="Helvetica,sans-Serif" font-size="10.00">QObject::QObject</text>
</a>
</g>
</g>
<!-- Node5&#45;&gt;Node7 -->
<g id="edge6_Node000005_Node000007" class="edge">
<title>Node5&#45;&gt;Node7</title>
<g id="a_edge6_Node000005_Node000007"><a xlink:title=" ">
<path fill="none" stroke="#63b8ff" d="M359.44,-111.45C368.71,-110.36 378.03,-109.27 386.95,-108.23"/>
<polygon fill="#63b8ff" stroke="#63b8ff" points="395,-107.29 387.47,-111.79 391.03,-107.75 387.05,-108.22 387.05,-108.22 387.05,-108.22 391.03,-107.75 386.64,-104.64 395,-107.29 395,-107.29"/>
</a>
</g>
</g>
</g>
</svg>
