<?xml version="1.0" encoding="UTF-8" standalone="no"?>
<!DOCTYPE svg PUBLIC "-//W3C//DTD SVG 1.1//EN"
 "http://www.w3.org/Graphics/SVG/1.1/DTD/svg11.dtd">
<!-- Generated by graphviz version 2.43.0 (0)
 -->
<!-- Title: pokitmeter.cpp Pages: 1 -->
<svg width="369pt" height="192pt"
 viewBox="0.00 0.00 368.50 192.00" xmlns="http://www.w3.org/2000/svg" xmlns:xlink="http://www.w3.org/1999/xlink">
<g id="graph0" class="graph" transform="scale(1 1) rotate(0) translate(4 188)">
<title>pokitmeter.cpp</title>
<!-- Node1 -->
<g id="Node000001" class="node">
<title>Node1</title>
<g id="a_Node000001"><a xlink:title="Declares the PokitMeter namespace.">
<polygon fill="#999999" stroke="#666666" points="230,-184 140,-184 140,-165 230,-165 230,-184"/>
<text text-anchor="middle" x="185" y="-172" font-family="Helvetica,sans-Serif" font-size="10.00">pokitmeter.cpp</text>
</a>
</g>
</g>
<!-- Node2 -->
<g id="Node000002" class="node">
<title>Node2</title>
<g id="a_Node000002"><a xlink:href="pokitmeter_8h.html" target="_top" xlink:title="Declares the PokitMeter namespace.">
<polygon fill="white" stroke="#666666" points="116,-129 0,-129 0,-110 116,-110 116,-129"/>
<text text-anchor="middle" x="58" y="-117" font-family="Helvetica,sans-Serif" font-size="10.00">qtpokit/pokitmeter.h</text>
</a>
</g>
</g>
<!-- Node1&#45;&gt;Node2 -->
<g id="edge1_Node000001_Node000002" class="edge">
<title>Node1&#45;&gt;Node2</title>
<g id="a_edge1_Node000001_Node000002"><a xlink:title=" ">
<path fill="none" stroke="#63b8ff" d="M164.6,-164.98C143.43,-156.15 110.17,-142.27 86.43,-132.36"/>
<polygon fill="#63b8ff" stroke="#63b8ff" points="78.78,-129.17 87.55,-128.93 82.47,-130.71 86.16,-132.25 86.16,-132.25 86.16,-132.25 82.47,-130.71 84.77,-135.57 78.78,-129.17 78.78,-129.17"/>
</a>
</g>
</g>
<!-- Node5 -->
<g id="Node000005" class="node">
<title>Node5</title>
<g id="a_Node000005"><a xlink:title=" ">
<polygon fill="#e0e0e0" stroke="#999999" points="235.5,-129 134.5,-129 134.5,-110 235.5,-110 235.5,-129"/>
<text text-anchor="middle" x="185" y="-117" font-family="Helvetica,sans-Serif" font-size="10.00">QCoreApplication</text>
</a>
</g>
</g>
<!-- Node1&#45;&gt;Node5 -->
<g id="edge4_Node000001_Node000005" class="edge">
<title>Node1&#45;&gt;Node5</title>
<g id="a_edge4_Node000001_Node000005"><a xlink:title=" ">
<path fill="none" stroke="#63b8ff" d="M185,-164.75C185,-157.26 185,-146.28 185,-137.13"/>
<polygon fill="#63b8ff" stroke="#63b8ff" points="185,-129.09 188.6,-137.09 185,-133.09 185,-137.09 185,-137.09 185,-137.09 185,-133.09 181.4,-137.09 185,-129.09 185,-129.09"/>
</a>
</g>
</g>
<!-- Node6 -->
<g id="Node000006" class="node">
<title>Node6</title>
<g id="a_Node000006"><a xlink:title=" ">
<polygon fill="#e0e0e0" stroke="#999999" points="360.5,-129 253.5,-129 253.5,-110 360.5,-110 360.5,-129"/>
<text text-anchor="middle" x="307" y="-117" font-family="Helvetica,sans-Serif" font-size="10.00">QLoggingCategory</text>
</a>
</g>
</g>
<!-- Node1&#45;&gt;Node6 -->
<g id="edge5_Node000001_Node000006" class="edge">
<title>Node1&#45;&gt;Node6</title>
<g id="a_edge5_Node000001_Node000006"><a xlink:title=" ">
<path fill="none" stroke="#63b8ff" d="M204.6,-164.98C224.93,-156.15 256.89,-142.27 279.69,-132.36"/>
<polygon fill="#63b8ff" stroke="#63b8ff" points="287.04,-129.17 281.14,-135.66 283.37,-130.76 279.7,-132.36 279.7,-132.36 279.7,-132.36 283.37,-130.76 278.27,-129.06 287.04,-129.17 287.04,-129.17"/>
</a>
</g>
</g>
<!-- Node3 -->
<g id="Node000003" class="node">
<title>Node3</title>
<g id="a_Node000003"><a xlink:href="qtpokit__global_8h.html" target="_top" xlink:title="Global QtPokit library macros.">
<polygon fill="white" stroke="#666666" points="105.5,-74 10.5,-74 10.5,-55 105.5,-55 105.5,-74"/>
<text text-anchor="middle" x="58" y="-62" font-family="Helvetica,sans-Serif" font-size="10.00">qtpokit_global.h</text>
</a>
</g>
</g>
<!-- Node2&#45;&gt;Node3 -->
<g id="edge2_Node000002_Node000003" class="edge">
<title>Node2&#45;&gt;Node3</title>
<g id="a_edge2_Node000002_Node000003"><a xlink:title=" ">
<path fill="none" stroke="#63b8ff" d="M58,-109.75C58,-102.26 58,-91.28 58,-82.13"/>
<polygon fill="#63b8ff" stroke="#63b8ff" points="58,-74.09 61.6,-82.09 58,-78.09 58,-82.09 58,-82.09 58,-82.09 58,-78.09 54.4,-82.09 58,-74.09 58,-74.09"/>
</a>
</g>
</g>
<!-- Node4 -->
<g id="Node000004" class="node">
<title>Node4</title>
<g id="a_Node000004"><a xlink:title=" ">
<polygon fill="#e0e0e0" stroke="#999999" points="87.5,-19 28.5,-19 28.5,0 87.5,0 87.5,-19"/>
<text text-anchor="middle" x="58" y="-7" font-family="Helvetica,sans-Serif" font-size="10.00">QtGlobal</text>
</a>
</g>
</g>
<!-- Node3&#45;&gt;Node4 -->
<g id="edge3_Node000003_Node000004" class="edge">
<title>Node3&#45;&gt;Node4</title>
<g id="a_edge3_Node000003_Node000004"><a xlink:title=" ">
<path fill="none" stroke="#63b8ff" d="M58,-54.75C58,-47.26 58,-36.28 58,-27.13"/>
<polygon fill="#63b8ff" stroke="#63b8ff" points="58,-19.09 61.6,-27.09 58,-23.09 58,-27.09 58,-27.09 58,-27.09 58,-23.09 54.4,-27.09 58,-19.09 58,-19.09"/>
</a>
</g>
</g>
</g>
</svg>
